<?xml version="1.0" encoding="utf-8" ?>
<svg xmlns="http://www.w3.org/2000/svg" xmlns:xlink="http://www.w3.org/1999/xlink" width="1134" height="950">
	<path d="M555.695 22.0634C558.137 23.7536 560.397 26.5493 562.442 28.7145C607.594 76.533 660.438 155.19 676.206 218.535C680.345 235.163 681.64 252.353 681.048 269.431C680.174 294.632 668.957 323.55 650.252 340.857C624.968 364.252 588.992 376.199 554.922 375.084C554.037 375.186 553.149 375.257 552.259 375.298C548.188 375.475 543.81 374.555 539.767 373.979C534.797 373.271 529.711 372.69 524.85 371.422C501.737 365.397 476.205 351.206 458.587 334.991C438.639 316.631 429.69 293.564 428.559 266.829C425.192 187.26 503.726 78.7269 555.695 22.0634Z"/>
	<path fill="#B6EBFD" d="M556.03 35.973C556.291 36.2333 556.551 36.4956 556.808 36.7599C569.143 49.3974 580.362 63.9741 591.063 78.0422C629.506 128.582 672.753 197.264 671.841 263.235C671.49 288.653 662.814 315.666 644.103 333.598C621.065 355.678 586.25 366.017 554.957 365.539C523.259 365.433 488.603 349.082 465.35 328.152C447.949 312.489 439.2 291.807 438.086 268.593C434.536 194.685 506.847 90.2008 556.03 35.973Z"/>
</svg>
