<?xml version="1.0" encoding="UTF-8"?>
<svg id="_图层_1" data-name="图层 1" xmlns="http://www.w3.org/2000/svg" xmlns:xlink="http://www.w3.org/1999/xlink" viewBox="0 0 1134 950">
  <defs>
    <style>
      .cls-1 {
        fill: #221816;
      }

      .cls-2 {
        fill: url(#_未命名的渐变);
      }

      .cls-3 {
        fill: #650005;
      }

      .cls-4 {
        fill: #fe8f9f;
      }

      .cls-5 {
        fill: #763e3d;
      }

      .cls-6 {
        fill: #5f0037;
      }

      .cls-7 {
        fill: #feddc8;
      }

      .cls-8 {
        fill: #a38969;
      }

      .cls-9 {
        fill: #fee5df;
      }

      .cls-10 {
        fill: #8d6466;
      }

      .cls-11 {
        fill: url(#_未命名的渐变_2);
      }

      .cls-12 {
        fill: #febcc2;
      }

      .cls-13 {
        fill: #ff6365;
      }

      .cls-14 {
        fill: #fefefe;
      }
    </style>
    <linearGradient id="_未命名的渐变" data-name="未命名的渐变" x1="574.68" y1="642.95" x2="574.38" y2="621.66" gradientTransform="translate(0 950) scale(1 -1)" gradientUnits="userSpaceOnUse">
      <stop offset="0" stop-color="#ffd9c1"/>
      <stop offset="1" stop-color="#ffebe9"/>
    </linearGradient>
    <linearGradient id="_未命名的渐变_2" data-name="未命名的渐变 2" x1="706.55" y1="307.81" x2="708.22" y2="311.1" gradientTransform="translate(0 950) scale(1 -1)" gradientUnits="userSpaceOnUse">
      <stop offset="0" stop-color="#000" stop-opacity="0"/>
      <stop offset="1" stop-color="#000" stop-opacity=".05"/>
    </linearGradient>
  </defs>
  <path d="m427.11,139.61c4.46-14.58,11.33-26.83,20.47-38.95,20.5-27.21,49.24-48.3,83.61-53.06,19.47-2.6,39.29-.61,57.85,5.81,5.93,2.02,11.61,4.75,17.57,6.67,4.8,1.55,9.8,2.53,14.64,3.96,11.38,3.39,22.05,8.83,31.49,16.04,22.91,17.39,38.14,45.78,41.91,74.28,3.37,25.44,1.55,45.36-14.32,66.19,1.19,1.23,2.43,2.48,3.43,3.89,3.84,5.43,4.45,12.49,3.3,18.86-1.46,8.17-5.21,13.28-11.96,17.99.99,25.82,1.23,50.03-10.27,73.86,17.14,14.28,34.98,28.01,52.47,41.89,7.56,6,16.03,11.69,22.99,18.36,1.77,1.69,3.15,3.42,4.12,5.7-.04,1.36-.28,2.3-.99,3.49-6.6,11.01-59.99,28.54-74.24,32.25,1.26,14.13,3.67,28.14,4.86,42.29-1.96,2.8-4.01,5.52-6.1,8.22,3.84,14.55,9.03,28.81,13.38,43.23,3.1,10.29,3.32,17.05-1.85,26.72,2.1,6.56,3.66,14.75,7.33,20.59,4.6,7.31,11.54,14.02,17.24,20.54l44.15,50.43c7.71,8.78,16.42,17.52,23.35,26.89,1.25,1.69,2.51,3.56,2.76,5.7.32,2.7-.72,5.31-2.53,7.29-1.74,1.9-4.19,3.4-6.83,3.37-2.14-.02-3.67-.59-5.44-1.78-6.52-4.38-12.3-11.47-17.81-17.05l-30.09-30.28-7.27-7.18,1.95,6.3,10.41,32.58c2.12,6.59,4.72,13.37,6.06,20.16.7,3.57,1.6,8.93.03,12.32-1.9,1.64-3.84,2.36-6.29,2.88-6.61,1.39-14.06,1.24-20.83,1.69-15.41,1.05-30.84,1.87-46.28,2.45-8.42.32-17.32,0-25.66.96-1.94,12.74-4.69,25.4-7.1,38.06l-12.92,68c-2.05,10.8-4.44,21.66-6.04,32.54-.64,4.39-.74,8.82-1.29,13.23,19.15,11.1,47.93,17.32,54.44,41.72,1.35,5.06,1.08,11.07-1.56,15.67-1.53,2.67-3.94,4.96-6.99,5.72-7.84,1.97-17.31,1.07-25.4,1.07h-32.57c-13.65,0-31.18.98-44.43-.24-2.53-.23-4.94-.85-7.11-2.2-3.41-2.12-5.05-5.66-5.85-9.48-1-4.79-.56-10.14-.54-15.03.03-9.68.36-19.45.05-29.13-1.72-18.04,4.27-33.92,7.57-51.41-2.98.17-5.98.15-8.96.2-6.39,13.17-10.44,29.43-18.82,41.24-5.9,8.32-14.16,15.32-24.51,16.97-4.65.74-9.53.03-13.35-2.89-4.02-3.07-4.82-7.57-5.36-12.3-2.17-19.26-2.29-39.25-3.33-58.64-.58-10.73-2.7-28.87-1.56-38.76.32-2.73,1.75-5.31,3.49-7.39,2.01-2.4,4.42-3.57,7.4-4.38,9.09-2.48,34.72-2.31,45.61-3.15,7.69-4.21,30.49-31.09,36.76-39.65-12.1.79-25.04-.44-37.17-.97-21.6-.92-43.17-2.42-64.69-4.49-9.85-.99-20.27-1.74-29.93-3.84-6.18-1.34-8.68-3.76-12-8.98.04-10.57,6.71-26.87,9.69-37.47l25.54-89.27c4.08-14.15,9.02-28.29,12.33-42.63-3.12-3.51-5.87-7.31-5.85-12.24.04-9.14,9.77-14.29,15.5-20.05-2.73-5.36-6.88-10.19-10.49-15,.71-10.09,11-56.95,8.96-61.28-3.3-2.47-12.59.35-16.96-.51-5.13-1.02-7.51-4.05-10.27-8.12-7.45-3.37-30.12-9.54-34.53-14.83-1.36-1.63-2.05-3.69-1.77-5.81,1.05-7.97,13.28-16.29,19.3-21.01-2.56-1.42-5.12-2.87-7.2-4.97-3.18-3.22-5.32-7.5-5.15-12.1.13-3.5,1.46-6.85,4.15-9.16,3.67-3.16,7.87-3.5,12.46-3.27-.47-5.1-.82-10.22-.57-15.35.92-19.43,11.08-36.08,13.15-55.19,1.39-12.87-2.64-11.56-4.43-21.55-1.01-5.62-.27-11.73.07-17.4-5.33,3.69-10.6,7.75-17.08,9.09-6.62,1.37-13.54.37-19.19-3.45-5.85-4-9.81-10.21-10.97-17.19-1.35-7.78.84-14,5.21-20.34-10.57-.16-19.5,1.65-28.43,7.63-13.18,8.82-22.8,25.43-25.76,40.83-2.47,12.9.23,27.02,7.71,37.88,6.53,9.48,17.59,17.04,29.49,16.52,5.56-.24,10.76-1.53,16.34-.43,2.62.52,8.72,2.07,10.14,4.44,1.94,3.25,4.94,10.68,3.62,14.38-.44,1.24-1.22,2.15-2.47,2.62-4.25,1.59-12.3-2.36-16.31-4.01-1.28-4.05-1.88-8.51-2.72-12.69-2.24.75-4.48,1.49-6.74,2.21-15.85,5.02-34.24,6.58-49.41-1.44-12.85-6.8-20.45-19.25-24.55-32.85-7.76-25.77-1.88-55.65,10.78-79.05,12.29-22.7,35.49-40.56,59.83-48.64,3.86-1.28,7.84-2.41,11.84-3.14,2.81-.51,6.07-.7,8.76-1.56,3.9-1.24,6.82-4.65,11.09-5.86,8.97-2.54,16.73.88,24.4,5.27Zm236.3,124.85c-2.51,6.02-5.4,11.4-8.92,16.9,1.53,15.95,3.15,32.02,5.19,47.9l.69,1.97.71-.12c10.27-15.29,10.31-48.99,9.27-67.28l-.54-.68-6.4,1.31Zm-196.32,58.84c.14-5.26.14-9.5,2.11-14.43l-.21-.94-3.02-1.22c-.03,4.86-.97,12.92,1.04,17.35l.08-.76Zm13.58-71.03c1.54-5.36,1.17-11.97,1.49-17.55l-.73-.14c-1.47,3.2-1.02,12.52-1.43,16.43l.67,1.27Z"/>
  <path class="cls-6" d="m525.04,823.85c-6.39,13.17-10.44,29.43-18.82,41.24-5.9,8.32-14.16,15.32-24.51,16.97-4.65.74-9.53.03-13.35-2.89-4.02-3.07-4.82-7.57-5.36-12.3-2.17-19.26-2.29-39.25-3.33-58.64-.58-10.73-2.7-28.87-1.56-38.76.32-2.73,1.75-5.31,3.49-7.39,2.01-2.4,4.42-3.57,7.4-4.38,9.09-2.48,34.72-2.31,45.61-3.15-1.75,1.68-4.45,4.27-6.69,5.2-8.15,7.33-13.86,15.79-14.53,27.04-.56,9.34,2.64,18.51,8.87,25.49,4.97,5.54,11.36,9.04,18.54,10.81l4.24.77Z"/>
  <path class="cls-6" d="m525.04,823.85c-6.39,13.17-10.44,29.43-18.82,41.24-5.9,8.32-14.16,15.32-24.51,16.97-4.65.74-9.53.03-13.35-2.89-4.02-3.07-4.82-7.57-5.36-12.3-2.17-19.26-2.29-39.25-3.33-58.64-.58-10.73-2.7-28.87-1.56-38.76.32-2.73,1.75-5.31,3.49-7.39,2.01-2.4,4.42-3.57,7.4-4.38,9.09-2.48,34.72-2.31,45.61-3.15-1.75,1.68-4.45,4.27-6.69,5.2-5.53-.58-27.88.19-32.81,1.33l-.73.1c.07,10.68.92,21.41,1.5,32.07l2.91,53.62c.3,5.56.55,27.47,1.85,31.11l4.06-1.07c7.02-2.61,12.11-7.03,16.72-12.79l3.03-4.2c2.83-2.61,6.34-13.92,7.83-17.81l2.28-5.48c1.94-4.61,3.86-9.15,6.23-13.56l4.24.77Z"/>
  <path class="cls-1" d="m525.04,823.85c-6.39,13.17-10.44,29.43-18.82,41.24-5.9,8.32-14.16,15.32-24.51,16.97-4.65.74-9.53.03-13.35-2.89-4.02-3.07-4.82-7.57-5.36-12.3-2.17-19.26-2.29-39.25-3.33-58.64-.58-10.73-2.7-28.87-1.56-38.76.32-2.73,1.75-5.31,3.49-7.39,2.01-2.4,4.42-3.57,7.4-4.38,9.09-2.48,34.72-2.31,45.61-3.15-1.75,1.68-4.45,4.27-6.69,5.2-5.53-.58-27.88.19-32.81,1.33l-.73.1c-3.58.09-6.96,1.04-9.46,3.76-1.46,1.58-2.13,3.18-2.37,5.31-1.17,10.4.66,23.02,1.24,33.65,1.08,19.81,1.81,39.72,3.3,59.51.31,4.09.54,9.3,4,12.06,2.66,2.12,6.28,2.58,9.56,2.52l4.06-1.07c7.02-2.61,12.11-7.03,16.72-12.79l3.03-4.2c2.83-2.61,6.34-13.92,7.83-17.81l2.28-5.48c1.94-4.61,3.86-9.15,6.23-13.56l4.24.77Z"/>
  <path class="cls-14" d="m475.1,761.08c1.51.07,2.22-.23,3.27.91,1.62,15.87,1.91,32.07,2.77,48,1.21,22.29,2.79,44.62,3.56,66.93l-4.06,1.07c-1.31-3.64-1.55-25.55-1.85-31.11l-2.91-53.62c-.58-10.66-1.43-21.39-1.5-32.07l.73-.1Z"/>
  <path class="cls-14" d="m502.63,833.03c1.32,1.07,2.65,2.22,4.09,3.13,2.68,1.68,4.96,1.1,7.84.48l-2.28,5.48c-1.49,3.89-5,15.2-7.83,17.81l-3.03,4.2c-3.2-1.06-5.43-2.77-7.86-5-.04-9.14,3.95-18.69,9.07-26.09Z"/>
  <path class="cls-6" d="m503.39,839.52c2.93,1.61,5.64,2.13,8.89,2.6-1.49,3.89-5,15.2-7.83,17.81-1.02-.15-2.15-.26-3.13-.58-1.31-.42-2.26-1.4-2.71-2.69-1.67-4.7,2.84-12.77,4.78-17.14Z"/>
  <path class="cls-6" d="m596.39,866.96c19.15,11.1,47.93,17.32,54.44,41.72,1.35,5.06,1.08,11.07-1.56,15.67-1.53,2.67-3.94,4.96-6.99,5.72-7.84,1.97-17.31,1.07-25.4,1.07h-32.57c-13.65,0-31.18.98-44.43-.24-2.53-.23-4.94-.85-7.11-2.2-3.41-2.12-5.05-5.66-5.85-9.48-1-4.79-.56-10.14-.54-15.03.03-9.68.36-19.45.05-29.13,2.51,1.09,3.58,4.46,4.75,6.9,4.75,7.05,11.17,12.41,19.35,14.98,8.95,2.79,18.65,1.9,26.94-2.48,9.53-5.06,14.79-13.12,17.89-23.2l1.02-4.3Z"/>
  <path class="cls-6" d="m595.37,871.26c3.94,2.51,8.23,4.63,12.55,6.44l5.33,2.71c4.71,2.14,13.86,5.39,17.59,8.77,1.27,1.05,2.52,2.23,3.86,3.18,5.66,5.4,9.14,10.06,11.88,17.41h-76.83c-13.02,0-26.23-.51-39.22.1.25-6.57-1.3-22.69.65-27.9,4.75,7.05,11.17,12.41,19.35,14.98,8.95,2.79,18.65,1.9,26.94-2.48,9.53-5.06,14.79-13.12,17.89-23.2Z"/>
  <path class="cls-14" d="m607.91,877.7l5.33,2.71c4.71,2.14,13.86,5.39,17.59,8.77,1.27,1.05,2.52,2.23,3.86,3.18-.6,1.66-1.46,3.53-2.6,4.89-1.27,1.51-2.97,2.12-4.89,2.31-7.38.72-17.87-5.45-23.29-10.08,1.18-1.31,2.5-2.64,3.46-4.12,1.66-2.55,1.1-4.88.55-7.65Z"/>
  <path class="cls-6" d="m613.24,880.41c4.71,2.14,13.86,5.39,17.59,8.77-.29,1.14-.55,2.42-1.01,3.5-.55,1.26-1.73,1.96-3.02,2.28-4.91,1.19-12.15-3.54-16.25-5.85,1.53-2.93,2.26-5.45,2.69-8.69Z"/>
  <path class="cls-1" d="m596.39,866.96c19.15,11.1,47.93,17.32,54.44,41.72,1.35,5.06,1.08,11.07-1.56,15.67-1.53,2.67-3.94,4.96-6.99,5.72-7.84,1.97-17.31,1.07-25.4,1.07h-32.57c-13.65,0-31.18.98-44.43-.24-2.53-.23-4.94-.85-7.11-2.2-3.41-2.12-5.05-5.66-5.85-9.48-1-4.79-.56-10.14-.54-15.03.03-9.68.36-19.45.05-29.13,2.51,1.09,3.58,4.46,4.75,6.9-1.96,5.2-.4,21.32-.65,27.9l-.14,4.23c.15,3.77.76,7.18,3.76,9.82,1.49,1.31,3.32,2.17,5.29,2.46,5.45.82,11.36.46,16.87.46h28.01s32.96-.02,32.96-.02c6.53,0,13.26.32,19.76-.37,3.12-.33,5.48-.77,7.58-3.34,2-2.45,2.64-5.57,2.82-8.66l-.85-4.67c-2.74-7.35-6.22-12-11.88-17.41-1.34-.95-2.59-2.13-3.86-3.18-3.73-3.38-12.88-6.63-17.59-8.77l-5.33-2.71c-4.31-1.81-8.6-3.93-12.55-6.44l1.02-4.3Z"/>
  <path class="cls-14" d="m646.58,909.76l.85,4.67c-39.01-.49-78.03-.61-117.04-.35l.14-4.23c12.99-.6,26.2-.09,39.22-.09h76.83Z"/>
  <path class="cls-12" d="m540.34,51.71c7.24-.72,14.89-.27,22.1.64,10.02,1.3,19.86,3.75,29.33,7.29,4.52,1.72,8.92,3.92,13.46,5.53,4.85,1.72,10.14,2.16,15.07,3.73,18.78,5.87,35.3,17.36,47.33,32.91,16.89,21.98,26.36,55.97,22.54,83.64-2.12,15.35-8.73,28.69-21.21,38.11,1.4-3.57,4.49-10.14,3.32-13.81-.02-.07-.43-1.21-.45-1.34-.29-2.31,2.83-1.53,4.19-3.33-.1-.51-.09-1.05-.29-1.52-.39-.9-13.9-6.69-16.05-7.76-26.2-12.96-51.69-29.17-65.96-55.56,5.17-9.93,9.85-20.04,12.62-30.93-1.26-.85-1.75-1.18-3.33-1.16-3.77,2.21-5.69,12.88-7.55,17.08-14.67,33.16-38.58,58.94-72.7,72.12-5.37-5.01-11.19-7.6-17.97-10.14,5.73-1.67,11.15-3.73,15.81-7.57,5.31-4.37,8.76-10.42,9.34-17.3.54-6.89-1.65-13.71-6.11-18.99-4.3-5.09-10.45-8.25-17.1-8.78-10.17-.76-18,4.61-25.37,10.93,1.21-5.83,2.07-11.78,1.05-17.71-1.12-6.56-4.53-12.63-10.03-16.49-7.3-5.12-15.4-4.95-23.81-3.42,2.85-3.9,5.73-7.75,8.86-11.43,21.65-25.44,49.08-41.99,82.91-44.75Z"/>
  <path class="cls-9" d="m542.4,60.01c15.27-2.23,32.99.91,47.56,5.7,4.3,1.41,17.42,5.18,19.09,9.34.43,1.08.3,1.99-.11,3.05-.55,1.42-1.86,2.85-3.27,3.46-3.56,1.53-9.54-2.25-12.78-3.66-24.41-10.59-51.46-9.99-75.97-.47-11.23,5.07-21.22,11.55-30.26,19.95-3.05,2.83-7.55,9.97-11.55,10.78-1.65.33-3.53-.02-4.87-1.07-1-.79-1.75-2.05-1.76-3.35,0-1.93,1.45-3.92,2.59-5.36,16.88-21.35,44.77-35.3,71.33-38.37Z"/>
  <path class="cls-9" d="m622.5,77.55c1.05-.08,2.14-.16,3.19-.06,9.03.88,27.92,20.08,33.28,26.66,14.03,17.27,22.68,38.29,24.85,60.43.46,4.29,1.24,9,.71,13.3-.41,3.29-1.31,4.45-3.93,6.41-2.28.14-4.81.21-6.62-1.43-2.89-2.6-2-11.98-2.19-15.74-1.4-27.18-15.95-52.68-36.69-69.78-4.59-3.78-11.91-6.67-15.31-10.01-1.06-1.05-1.65-2.51-1.52-4.03.22-2.63,2.31-4.25,4.24-5.74Z"/>
  <path class="cls-1" d="m561.02,164.56c.55-.1,1.27-.29,1.85-.27,1.39.05,2.06.7,3.05,1.56l.05,1.18c-3.23,3.77-10.17,3.71-14.51,5.69-4.31,1.96-6.32,6.22-7.9,10.38-.55.48-1.18.6-1.86.83-1.29-.42-1.28-.48-2.03-1.63-.24-2.75.57-4.99,2.05-7.29,4.32-6.75,11.9-9.01,19.3-10.44Z"/>
  <path class="cls-1" d="m637.92,166.71c3.37-.13,6.73,0,10,.89,5.3,1.46,11.29,4.7,13.94,9.72,1.36,2.56,1.89,4.89,1.09,7.65-4.48-.34-6.25-8.25-10.01-11.01-4.25-3.12-10.21-1.57-14.77-3.78-.83-1.55-.58-1.81-.25-3.48Z"/>
  <path class="cls-12" d="m640.53,656.4c.36-15.43-.28-30.92-.64-46.35-.57-22.27-1.03-44.55-1.38-66.82,7.29,19.84,13.5,40.05,19.98,60.16,2.65,8.22,13.22,45.17,17.08,50.01,6.25,2.42,22.27-.17,29.79-.1,3.88,12.32,7.5,24.82,11.83,36.99l.76,3.01c.85,2.24,1.93,6.24,1.59,8.59-.2,1.38-1,2.59-2.18,3.32-3.76,2.3-23.01,2.39-28.85,2.75-70.67,4.48-141.56,4.31-212.21-.49-13.12-.88-26.22-2.13-39.27-3.75-5.37-.63-11.03-.89-16.3-2.11-2.99-.69-6.14-1.89-7.7-4.72-2.05-3.71.22-8.99,1.3-12.78l1.27-3.93c2.86-10.32,6.01-20.58,9.04-30.85l55.72,2.51c7.26.32,25.63,2.3,31.84.68,3.9-3.7,5.79-11.36,7.71-16.34,1.09.26,2.22.55,3.33.68,2.58.3,5.78.42,7.93-1.22,4.65-8.81,6.86-1.83,13.43-4.82,5.51-2.51,7.9-11.78,9.97-17.03,1.74-.63,3.85-1.71,5.72-1.41,1.14,1.33,1,3.49,1.14,5.17-.07,12.78.51,26.19,1.77,38.92,10.65,1.31,22.24.22,33,.19,14.66-.05,29.74.67,44.35-.24Z"/>
  <path class="cls-12" d="m415.59,680.17c18.85,7.66,48.79,8.84,69.36,10.06,60.84,3.62,122.01,2.62,182.91,1.35,16.44-.34,32.89-1.08,49.32-1.3l.76,3.01c.85,2.24,1.93,6.24,1.59,8.59-.2,1.38-1,2.59-2.18,3.32-3.76,2.3-23.01,2.39-28.85,2.75-70.67,4.48-141.56,4.31-212.21-.49-13.12-.88-26.22-2.13-39.27-3.75-5.37-.63-11.03-.89-16.3-2.11-2.99-.69-6.14-1.89-7.7-4.72-2.05-3.71.22-8.99,1.3-12.78l1.27-3.93Z"/>
  <path class="cls-14" d="m415.59,680.17c18.85,7.66,48.79,8.84,69.36,10.06,60.84,3.62,122.01,2.62,182.91,1.35,16.44-.34,32.89-1.08,49.32-1.3l.76,3.01-.7.83c-5.53,1.11-11.7.79-17.36.95l-29.8.79c-47.31,1.14-223.12,4.71-255.76-11.76l1.27-3.93Z"/>
  <path class="cls-9" d="m526.04,201.54c28.78-10.33,48.33-30.9,64.67-55.89,17.58,28.66,47.69,47.3,78.16,59.98-2.15,11.65-3.69,23.39-5.33,35.12-1.08,6.04-5.15,29.2-10.1,32.34-.75.47-1.54-.36-2.27-.25-2.68.42-7.61,4.04-10.16,5.48l-27.11,14.6-3.68,8.68c-8.53,2.47-17.8,3.6-26.67,3.68-11.13.1-35.01-2.19-44.24-8.06-5.88-3.73-13.48-12.58-17.9-18.14-5-6.3-9.3-13.22-15.54-18.44-6.76-5.67-16.23-3.6-18.76-6.46-3.29-3.71-.92-15.48-.45-20.09,2.42,1.5,4.91,2.97,7.57,4.01,6.51,2.55,13.77,2.7,20.2-.18,6.14-2.78,10.94-7.86,13.36-14.15,2.93-7.8,1.62-14.87-1.75-22.23Z"/>
  <path class="cls-7" d="m641.01,278.31c-.12-6.03-3.12-10.5-1.95-17.02,1.26-6.95,5.06-13.13,10.93-17.12,3.93-2.66,8.8-4.33,13.54-3.43-1.08,6.04-5.15,29.2-10.1,32.34-.75.47-1.54-.36-2.27-.25-2.68.42-7.61,4.04-10.16,5.48Z"/>
  <path d="m633.55,193.81c1.7-.04,3.3-.04,4.91.57,3.35,1.26,5.85,4.13,7.31,7.33,2.87,6.29,2.95,15.01.4,21.42-1.87,4.69-4.41,7.29-9.01,9.28-1.33.03-2.57,0-3.85-.39-3.36-1.03-6.09-3.87-7.67-6.92-3.18-6.12-3.5-14.35-1.3-20.84,1.73-5.08,4.41-8.12,9.2-10.45Z"/>
  <path d="m558.31,193.83c1.59.13,3.09.32,4.57.97,3.53,1.55,5.99,5.09,7.29,8.61,2.39,6.47,2.23,14.97-.72,21.23-1.99,4.21-4.47,6.35-8.73,7.93-1.55-.02-3.04-.05-4.49-.68-3.86-1.67-6.46-5.26-7.85-9.12-2.3-6.4-2.21-14.64.77-20.82,2.11-4.37,4.69-6.53,9.16-8.12Z"/>
  <path class="cls-1" d="m614.59,252.66c1.11,0,2.07.2,3.15.42,1.01,1.23,1.26,2.25,1.11,3.86-.43,4.6-3.59,9.15-7.23,11.89-4.12,3.1-9.79,4.28-14.84,3.34-6.24-1.15-10.4-5.11-13.74-10.22-.74-1.73-1.59-3.39-1.28-5.32.23-1.43.25-2.16,1.45-2.97,3.21,1.09,3.86,4.51,5.32,7.18,1.74,3.2,5.49,5.54,8.97,6.39,3.57.85,7.34.13,10.35-1.98,4.62-3.2,5.65-7.48,6.74-12.6Z"/>
  <path class="cls-4" d="m595.71,491.89c20.08,1.93,40.6,3.53,60.54,6.55l47.76,150.74c-8.62.1-17.24.38-25.85.82l-23.95-74.11c-3.85-11.97-7.07-24.78-11.73-36.42-.67-1.68-1.28-3.75-3.04-4.56-.98-.45-1.59-.27-2.63-.22-1.23.78-2.12,1.21-2.51,2.76-1.2,4.68.24,23.23.36,29.09.61,28.54,1.64,57.17,1.64,85.72l-69.17.2c-.57-12.88-.71-25.93-1.83-38.77-.44-1.77-.35-2.69-1.8-3.85-1.22.84-1.54,1.82-1.85,3.3-.28,1.37-.2,3-.23,4.4-.13-1.68,0-3.84-1.14-5.17-1.86-.29-3.97.78-5.72,1.41-2.07,5.25-4.46,14.52-9.97,17.03-6.58,2.99-8.78-3.99-13.43,4.82-2.15,1.64-5.35,1.52-7.93,1.22-1.12-.13-2.24-.42-3.33-.68l-4.43-2.73c-.68-1.25-1.42-2.54-1.89-3.89-2.78-7.99,7.58-26.11,11.01-33.67-3.49-13.4,3.92-29.17,2.01-36.54,1.4-.36,3.36-.2,4.84-.26,14.76-4.25,30.09,1.42,44.3-4.61l3.95-1.39c7.02-1.52,15.3-3.49,19.53-9.91,6.87-10.42-.76-39.25-3.51-51.27Z"/>
  <path class="cls-1" d="m575.74,554.46l3.95-1.39c.36,3.51-.49,8.99.64,12.05.22.15.44.3.66.46,1.1.79,2.31,1.73,3.1,2.84,3.11,4.36,12.26,23.85,13.02,28.81.41,2.68-.09,5.54-1.72,7.75-1.79,2.44-4.86,3.77-7.8,4.16-2.87.38-5.49-.42-7.72-2.25-3.01-2.48-4.39-5.6-5.88-9.08-2,4.29-7.29,8.9-8.48,11.99-.43,1.12-.26,2.7-.22,3.88-.44-1.77-.35-2.69-1.8-3.85-1.22.84-1.54,1.82-1.85,3.3-.28,1.37-.2,3-.23,4.4-.13-1.68,0-3.84-1.14-5.17-1.86-.29-3.97.78-5.72,1.41-2.07,5.25-4.46,14.52-9.97,17.03-6.58,2.99-8.78-3.99-13.43,4.82-2.15,1.64-5.35,1.52-7.93,1.22-1.12-.13-2.24-.42-3.33-.68l-4.43-2.73c-.68-1.25-1.42-2.54-1.89-3.89-2.78-7.99,7.58-26.11,11.01-33.67-3.49-13.4,3.92-29.17,2.01-36.54,1.4-.36,3.36-.2,4.84-.26,14.76-4.25,30.09,1.42,44.3-4.61Z"/>
  <path class="cls-9" d="m575.74,554.46c.06,3.25.2,6.52,0,9.77-3.7.74-7.25,2.05-9.34,5.47-1.78,2.91-1.58,6.56-.73,9.73,1.23,4.56,3.88,8.82,5.7,13.17-3.08,8.33-6.76,12.46-14.66,16.33,1.89-4.79,5.19-11.02,2.86-16.11-1.29-2.82-4.35-5.62-7.29-6.61-2.39-.81-5-.29-7.2.85-2.28,1.19-6.33,5.73-8.57,5.36-.14-.02-1.12-.39-1.22-.43-1.55-.54-2.36-.3-3.91.03-1,.22-2,.4-3,.61-2.63-3.9,2.29-27.44,3.07-33.55,14.76-4.25,30.09,1.42,44.3-4.61Z"/>
  <path class="cls-9" d="m547.65,590.21c1.34-.01,2.5.1,3.78.56,1.6.57,2.95,1.79,3.55,3.39,2.52,6.74-5.34,21.51-8.4,27.82-1.41,2.91-2.35,4.51-5.52,5.59-.12-.03-.24-.05-.37-.08-2.84-.66-5.47-1.21-6.97-3.96-1.54-2.81-1-6.31.02-9.19,2.08-5.86,6.54-17.41,10.45-21.94.89-1.03,2.25-1.62,3.45-2.19Z"/>
  <path class="cls-9" d="m574.87,568.47c.73.08,1.41.16,2.12.33,1.87.43,3.05,1.2,4.03,2.87,2.18,3.7,12.97,25.5,12.16,28.49-.66,2.43-3.08,3.6-5.09,4.77-1.37-.08-2.97-.09-4.28-.5-2.46-.76-4.01-4.22-5.09-6.36-2.18-4.31-10.83-20.41-9.18-24.87.95-2.57,3.01-3.59,5.33-4.74Z"/>
  <path class="cls-9" d="m530.87,596.33c.95-.11,1.95-.26,2.9-.25,1.28.02,1.81.23,2.62,1.18-1.36,6.92-7.02,13.18-8.21,19.97-.8,4.52,3.42,9,1.99,13.09-1.18,1.46-2.15,2.07-3.88,2.79-2.73-.25-5.86-.89-7.68-3.14-1.15-1.41-1.59-3.06-1.39-4.86.69-6.17,8.89-25.01,13.65-28.79Z"/>
  <path class="cls-12" d="m453.44,111.37c5.79-.38,11.08-.08,16.08,3.25,13.04,8.68,9.62,26.77,4.13,38.79-1.18,2.6-4.48,6.62-4.75,9.32-.05.46.19.9.29,1.35.96.53,1.49.99,2.63.56,4.23-1.6,11.28-21.33,28.41-25.28,5.43-1.25,10.54-.58,15.25,2.5,5.15,3.37,8.83,8.6,9.99,14.68,1.02,5.26-.15,10.7-3.24,15.08-6.39,9.15-18.61,12.13-29.08,13.03-3.05.26-6.15-.03-9.17.47-1.18.95-1.1.95-1.32,2.47,1.99,3.44,25.22.27,36.94,13.04,3.78,4.11,5.93,9.41,5.58,15.04-.37,5.85-3.31,11.67-7.82,15.39-4.34,3.63-9.98,5.33-15.6,4.7-14.91-1.55-22-16.21-30.4-26.51-1.28-.37-1.24-.26-2.44.37-.39,1.13-.56,1.56-.19,2.77.63,2.05,2.15,4.05,3.15,5.95,1.71,3.24,2.99,6.78,3.95,10.3,2.14,7.8,2.74,16.9-1.56,24.11-3.28,5.5-8.01,8.03-13.93,9.62-2,.18-4.01.23-6.02.13-5.23-.28-10.44-2.81-13.86-6.76-8.24-9.5-5.49-23.94-.81-34.41,1.64-3.67,4.62-7.08,4.76-11.26.04-1.16-.03-.95-.71-1.72-2.79.27-11.42,13.41-14.08,16.12-5.49,5.59-12.66,10.64-20.83,10.51-5.43-.08-10.54-2.48-14.33-6.32-4.23-4.21-6.58-9.95-6.52-15.92.1-4.99,2.06-9.26,5.42-12.88,12.65-13.61,33.68-8.67,37.55-12.41.17-1.45.18-1.44-.63-2.65-3.27-.87-6.94-.8-10.32-1.12-9.82-.92-20.36-3.88-26.85-11.85-3.42-4.2-5.08-9.38-4.46-14.79.65-5.66,3.71-11.26,8.17-14.8,4.46-3.52,10.16-5.07,15.79-4.29,14.27,1.92,21.59,16,29.51,26.22,1.32.53,1.3.44,2.65-.05.5-1.04.68-1.32.34-2.5-.5-1.77-1.88-3.54-2.69-5.21-1.7-3.51-3.12-7.15-4.24-10.9-2.29-7.82-3.11-16.94,1.08-24.31,3.25-5.72,8.12-8.17,14.16-9.84Z"/>
  <path d="m455.66,164.12c4.13,1.94,13.54,17.65,16.37,22.2-2.38,4.64-11.39,20.62-15.44,22.75-3.81-4.3-16.2-17.55-16.57-22.58-.36-4.99,12.06-18.24,15.64-22.37Z"/>
  <path class="cls-13" d="m455.88,170.45c4.03,4.99,7.51,10.74,11.17,16.02-1.85,2.89-8.49,14.72-10.7,15.66-4.18-5.43-8.48-10.77-12.72-16.14,4.24-5.02,8.19-10.35,12.25-15.54Z"/>
  <path class="cls-4" d="m561.79,417.02s.04-.08.07-.11c2.71-2.71,4.21-4.22,5.61-7.91,2.91,10.95,6.82,21.66,10.15,32.5,7.91,25.75,15.28,51.84,19.53,78.48l.35,4.34c.42,5.11,1.7,13.44-1.95,17.71-7.55,8.82-45.81,10.53-57.41,11.74-6.69.7-13.61,2.24-20.3,2.35-4.51.08-8.15-1.14-11.48-4.28-4.44-4.18-6.47-10.76-6.27-16.75.03-.78.05-.83.15-1.49,1.79-34.72,2.43-69.5,4.07-104.22,10.12,2.23,21.21,4.05,31.57,2.69,10.05-1.32,19.73-7.01,25.92-15.04Z"/>
  <path class="cls-4" d="m500.22,533.59c32.3-3.57,65.59-4.14,96.92-13.62l.35,4.34c.42,5.11,1.7,13.44-1.95,17.71-7.55,8.82-45.81,10.53-57.41,11.74-6.69.7-13.61,2.24-20.3,2.35-4.51.08-8.15-1.14-11.48-4.28-4.44-4.18-6.47-10.76-6.27-16.75.03-.78.05-.83.15-1.49Z"/>
  <path class="cls-14" d="m500.22,533.59c32.3-3.57,65.59-4.14,96.92-13.62l.35,4.34c-7.24,2.32-14.62,3.83-22.11,5.15-8.77,1.54-70.03,10.1-74.63,7.75-.19-1.2-.37-2.41-.54-3.62Z"/>
  <path class="cls-4" d="m459.53,528.73c2.41.19,4.84.46,7.19-.26,8.44-2.59,23.51-17.24,30.66-23.26-.3,11.39-2.43,25.53-.47,36.57,1.08,6.08,4.26,12.06,9.5,15.53,6.36,4.22,13.14,3.56,20.19,2.02,1.91,7.37-5.5,23.14-2.01,36.54-3.43,7.56-13.79,25.68-11.01,33.67.47,1.35,1.2,2.64,1.89,3.89-1.86,5.12-3.65,10.26-5.4,15.42l-84.26-3.77c10.37-38.96,22.51-77.62,33.73-116.35Z"/>
  <path class="cls-14" d="m661.59,348.92c-.2-2.58-1.21-7.92.4-9.9,6.44,3.29,14.64,11.14,20.58,15.85l46.38,36.82,3.76,3.08c1.63,1.24,3.34,2.48,4.89,3.82,1.39,1.21,1.75,2.09,1.84,3.89-2.66,5.52-37.89,19.52-45.67,22.35-14.18,5.16-41.59,14.8-55.76,7.99-16.05-7.72-28.93-36.26-35.39-52.45-2.59-6.48-4.64-13.32-7.31-19.72-.74-1.77-1.97-1.8-3.65-2.37l-.15-.88c1.85-2.11,8.24-2.02,11.05-2.28,1.36-.4,3.19-.34,4.62-.46,17.97-1.78,36.64-2.63,54.41-5.74Z"/>
  <path class="cls-14" d="m602.56,355.12c1.36-.4,3.19-.34,4.62-.46,4.94,15.81,20.98,57.5,36.12,65.05,9.38,4.68,26.2-2.31,35.53-5.71,11.65-4.25,40.13-15.41,50.12-22.29l3.76,3.08c1.63,1.24,3.34,2.48,4.89,3.82,1.39,1.21,1.75,2.09,1.84,3.89-2.66,5.52-37.89,19.52-45.67,22.35-14.18,5.16-41.59,14.8-55.76,7.99-16.05-7.72-28.93-36.26-35.39-52.45-2.59-6.48-4.64-13.32-7.31-19.72-.74-1.77-1.97-1.8-3.65-2.37l-.15-.88c1.85-2.11,8.24-2.02,11.05-2.28Z"/>
  <path class="cls-4" d="m602.56,355.12c1.36-.4,3.19-.34,4.62-.46,4.94,15.81,20.98,57.5,36.12,65.05,9.38,4.68,26.2-2.31,35.53-5.71,11.65-4.25,40.13-15.41,50.12-22.29l3.76,3.08c-17.06,9.83-64.09,30.9-83.12,30.64-6.3-.09-11-2.75-15.27-7.16-12.42-12.83-20.62-33.49-26.96-49.92-1.24-3.21-3.35-7.28-3.75-10.67-.16-1.38.62-1.13.64-2.31l-1.69-.24Z"/>
  <path class="cls-5" d="m387.68,145.26l.28.38c-.71,1.47-1.4,2.96-1.96,4.49-2.34,6.47-2.31,13.49.69,19.75,4.41,9.22,13.26,13.35,22.44,16.47-5.88,1.71-10.76,4.15-16,7.25-11.64-.97-21.84.38-32.04,6.42-14.56,8.63-25.03,25.18-29.17,41.35-3.77,14.34-1.62,29.59,5.96,42.32,6.51,10.71,15.69,17.54,27.79,20.49l-.23.64-2.35.56c-13.47,2.51-27.92,2.21-39.61-5.77-11.88-8.11-18.44-22.35-21.01-36.13-4.63-24.85,3-54.73,17.27-75.51,15.74-22.92,40.93-37.57,67.93-42.71Z"/>
  <path class="cls-14" d="m412.6,379.9c18.46-17.1,37.58-33.57,56.27-50.43,5.81,8.14,13.64,12.05,22.82,15.38-.14,6.16.27,12.92,3.85,18.17,3.4,4.99,8.12,6.45,13.71,7.47.25,1.78.34,2.86,1.6,4.19,1.23.52,2.19.85,3.51,1.04-5.68,9.27-7.5,20.4-7.6,31.13l.38,4.73c.63,5.04,1.83,9.84,3.28,14.69-29.9-5.03-59.49-15.73-87.95-26.05-4.84-1.75-13.88-3.87-17.52-7.49-.8-.79-1.22-1.89-1.16-3.02.13-2.68,2.79-4.55,4.62-6.22l4.17-3.61Z"/>
  <path class="cls-14" d="m408.42,383.51l4.17-3.61c11.11,4.55,23.42,7.58,34.92,11.02,18.96,5.67,39.82,12.42,59.24,15.93l.38,4.73c.63,5.04,1.83,9.84,3.28,14.69-29.9-5.03-59.49-15.73-87.95-26.05-4.84-1.75-13.88-3.87-17.52-7.49-.8-.79-1.22-1.89-1.16-3.02.13-2.68,2.79-4.55,4.62-6.22Z"/>
  <path class="cls-4" d="m408.42,383.51l4.17-3.61c11.11,4.55,23.42,7.58,34.92,11.02,18.96,5.67,39.82,12.42,59.24,15.93l.38,4.73c-13.17-4.24-27.65-7.03-41.1-10.82-19.29-5.45-38.3-11.95-57.61-17.26Z"/>
  <path class="cls-4" d="m612.1,410.01c6.85,11.31,15.29,25.03,29.03,28.43,7.7,1.91,16.1.66,23.8-.7,1.62,13.36,3.86,26.95,4.69,40.35l-12.64,15.91c-7.51-.61-60.13-5.22-62.51-7.66-.11-.12-.19-.26-.28-.39,3.5-3.63,19.72.88,19.88-5.28-.63-.86-.44-.92-1.61-1.14-5.92-1.13-13.47,1.1-19.61,1.18-2.08-7.98-3.79-16.62-6.83-24.27-.61-.61-.49-5.44-.53-6.51-.75-1.08-1.18-2.34-1.24-3.65-1.36-1.85-2.27-4.17-3.28-6.23-.24-1.51-.86-2.83.14-4.13,2.25-2.95,6.68-5.85,9.58-8.24,7.19-5.82,14.32-11.71,21.41-17.67Z"/>
  <path class="cls-1" d="m580.98,440.04c.16-.07.32-.12.47-.2,4.85-2.55,5.27-6.67,12.42-4.88,3.1.76,5.73,2.8,7.23,5.61,1.49,2.72,1.8,5.92.85,8.87-.96,2.92-3.07,5.05-5.8,6.39-3.48,1.71-6.44,1.24-10.12.6-.61-.61-.49-5.44-.53-6.51-.75-1.08-1.18-2.34-1.24-3.65-1.36-1.85-2.27-4.17-3.28-6.23Z"/>
  <path class="cls-14" d="m584.25,446.27c-.16-3.46,2.26-6.5,5.66-7.14,3.4-.64,6.76,1.32,7.87,4.6,1.11,3.28-.36,6.88-3.46,8.43-3.09,1.56-6.86.6-8.83-2.24-.75-1.08-1.18-2.34-1.24-3.65Z"/>
  <path class="cls-9" d="m557.22,715.27c20.12.18,40.24.13,60.36-.14-1.89,26.39-24.05,49.52-41.44,67.74l-10.49,10.67c.31-2.54.56-5.09.53-7.66-.1-9.5-4.04-18.56-10.93-25.1-8.51-8.01-18.29-9.73-29.54-9.43,11.39-11.31,22.21-22.98,31.51-36.08Z"/>
  <path class="cls-14" d="m558.97,828.92c6.91-.57,14.06,1.06,19.83,4.98,6.64,4.55,11.18,11.57,12.59,19.5,1.64,9.09-.51,19.84-5.83,27.41-5.23,7.43-12.59,11.11-21.36,12.58-7.34.54-14.48-1.07-20.54-5.35-6.4-4.58-10.73-11.5-12.04-19.26-1.55-9.16.57-19.92,6.02-27.51,5.28-7.36,12.59-10.89,21.34-12.34Z"/>
  <path class="cls-14" d="m527.22,756.41c17.15-1.4,32.19,11.33,33.66,28.47,1.47,17.14-11.2,32.23-28.33,33.77-17.23,1.55-32.44-11.21-33.92-28.44-1.48-17.24,11.34-32.39,28.59-33.79Z"/>
  <path class="cls-14" d="m617.2,296.15c10.86-5.97,21.76-11.85,32.71-17.64,2,19.83,4.72,39.65,6.29,59.51-2.73,2.72-6.8,4.29-7.89,8.05-4.49,1.26-9.74,1.29-14.4,1.73l-24.41,2.33c-2.35.35-4.72.58-7.09.81l-7.9.71c6.92-18.66,15.14-37.08,22.7-55.5Z"/>
  <path class="cls-4" d="m602.41,350.94c2.41-5.94,23.77-54.94,26.22-57.45.94-.96,1.6-.8,2.83-.81.26.27.64.46.78.81,1.14,2.76-24.7,52.5-24.13,56.21l1.39.43c-2.35.35-4.72.58-7.09.81Z"/>
  <path class="cls-12" d="m460.6,266.7c5.62-1.31,9.07-3.04,13.43-6.85.57-.5,1.88-2.01,2.53-2.26,1.19-.46,2.31.26,3.29.81.36.57.58,1.04.65,1.72,1.16,10.77,1.23,21.24,3.83,31.87.74,2.73,1.44,5.48,2.23,8.2.97,2.71,1.83,5.57,3,8.19,1.01,2.28,1.97,4.63,3.07,6.87,6.16,11,13.41,20.36,23.83,27.66,1.98,1.39,4.52,3.29,6.87,3.96.42.12.71.14,1.16.19l.76-.52c.29-2.72-1.79-5.27-1.09-7.68l.84-.43c3.09,3.05,6.85,9.99,6.72,14.35-.08,2.7-1.35,5.03-3.32,6.82-3.77,3.4-9.54,4.93-14.47,5.54-3.04.27-5.55,0-8.53-.57-1.37-.63-2.58-1.29-3.72-2.29-4.55-3.98-4.79-10.47-5.1-16.04l7.22,1.75,1.88-.13c.97-.46,1.27-.89,1.98-1.67l-.09-1.23c-2.27-2.75-17.23-5.76-22.08-8.13-5.53-2.71-11.22-6.74-13.1-12.92-1.7-5.58.2-10.33,2.77-15.2,1.81.26,3.8.68,5.62.66,1.9-.02,3.75-.96,5.07-2.27-.34-.81-.29-1.25-1.14-1.63-2.65-1.19-6.07-1.45-8.94-1.93-6.6-1.11-13.24-2.49-19.24-5.58-4.3-2.21-8.44-5.45-9.8-10.3-2.05-7.3,1.39-14.59,4.73-20.89l8.47.13.68-.2Z"/>
  <path class="cls-9" d="m460.6,266.7c5.62-1.31,9.07-3.04,13.43-6.85.57-.5,1.88-2.01,2.53-2.26,1.19-.46,2.31.26,3.29.81.36.57.58,1.04.65,1.72,1.16,10.77,1.23,21.24,3.83,31.87.74,2.73,1.44,5.48,2.23,8.2-.68.91-1.42,1.41-2.52,1.71-6.15,1.67-16.48-2.44-21.7-5.5-4.88-2.86-9.09-7.02-10.39-12.72-.93-4.1-.25-9.48,2.09-13.08,1.53-2.35,3.22-3.09,5.88-3.71l.68-.2Z"/>
  <path class="cls-12" d="m460.6,266.7c5.62-1.31,9.07-3.04,13.43-6.85.57-.5,1.88-2.01,2.53-2.26,1.19-.46,2.31.26,3.29.81.36.57.58,1.04.65,1.72,1.16,10.77,1.23,21.24,3.83,31.87-6.16-1.45-14.64-2.69-19.41-7.18-4.96-4.66.49-8.25-.13-13.09-.33-2.57-2.27-3.64-4.18-5.03Z"/>
  <path class="cls-9" d="m489.56,308.38c1.01,2.28,1.97,4.63,3.07,6.87l-.79,1.72c-.5,1.08-1.08,2.2-1.44,3.34-2.62,8.37,10.62,8,13.43,12.97.12,1.14.16,1.93-.29,3-.61,1.46-1.71,2.58-3.21,3.13-2.93,1.07-6.24-.02-8.88-1.36-4.77-2.42-9.28-6.65-10.81-11.88-1.1-3.76-.84-8.62,1.21-12.04,1.95-3.26,4.06-4.87,7.7-5.75Z"/>
  <path class="cls-9" d="m496.58,346.23l7.22,1.75,1.88-.13c1.7,1.31,2.24,1.99,2.9,3.99,2.44,7.4,9.98,3.23,5.36,13.28-3.04.27-5.55,0-8.53-.57-1.37-.63-2.58-1.29-3.72-2.29-4.55-3.98-4.79-10.47-5.1-16.04Z"/>
  <path class="cls-12" d="m496.58,346.23l7.22,1.75c-1.91,1.47-3.08,2.55-3.3,5.05-.37,4.17,3.33,7.91,4.9,11.53-1.37-.63-2.58-1.29-3.72-2.29-4.55-3.98-4.79-10.47-5.1-16.04Z"/>
  <path class="cls-9" d="m612.25,746.29l.26.16c.31,4.99-3.52,20.18-4.68,26.29l-13.62,72.1c-3.18-6.5-7.79-12.11-14.01-15.92-8.97-5.5-18.37-6.04-28.39-3.67-5.68,1.91-9.93,4.73-14.57,8.47.63-3.88,1.41-7.74,2.12-11.61,4.74-1.7,8.81-4.19,12.7-7.39,4.76-3.92,8.7-9.15,13.05-13.56,17.13-17.35,33.79-34.33,47.15-54.87Z"/>
  <path class="cls-4" d="m468.11,420.27c10.68,3.12,21.45,5.98,32.28,8.56-1.03,12.63-1.02,25.55-1.49,38.22-5.76,5.2-12,10.02-17.97,14.99-4,3.36-7.94,6.74-12.26,9.69-3.36-4.35-6.67-8.74-9.94-13.17,2.93-19.44,6.91-38.78,9.38-58.28Z"/>
  <path class="cls-12" d="m509.25,370.49c9.22-.25,16.99-2.06,23.86-8.43,1.41.83,3.05,1.68,3.52,3.39.34,1.25.05,2.4-.71,3.43-.92,1.24-2.45,2.01-3.77,2.71l.62.53c-.72,7.17,3.15,14.93,7.59,20.38,7.05,8.65,16.59,10.39,27.14,11.42,0,1.67.13,3.43-.02,5.09-1.4,3.69-2.9,5.2-5.61,7.91-.03.03-.05.08-.07.11-5.22,1.97-10.06,3.96-14.86,6.84-4.35,2.48-8.89,3.85-13.88,4.37-6.24,1.39-10.97.45-17.05-1.19-3.94-10.2-5.94-23.73-2.82-34.4,1.3-4.44,3.41-8.75,4.54-13.2.41-1.63.13-2.05-.74-3.45l-2.62-.26c-1.32-.19-2.28-.52-3.51-1.04-1.26-1.33-1.35-2.42-1.6-4.19Z"/>
  <path class="cls-6" d="m509.25,370.49c9.22-.25,16.99-2.06,23.86-8.43,1.41.83,3.05,1.68,3.52,3.39.34,1.25.05,2.4-.71,3.43-.92,1.24-2.45,2.01-3.77,2.71-4.81,2.2-9.59,3.52-14.85,4.09l-.32.31-2.62-.26c-1.32-.19-2.28-.52-3.51-1.04-1.26-1.33-1.35-2.42-1.6-4.19Z"/>
  <path d="m535.78,423.33c-3.37-1.82-6.71-4.41-7.85-8.26-.53-1.77-.7-3.68.1-5.34,4.28.71,5.76,6.15,8.82,8.57,2.1,1.66,5.85-.1,8.27,1.24.86,1.52.62,2.21.52,3.93l1.28.39c-4.35,2.48-8.89,3.85-13.88,4.37.24-1.96,1.58-3.37,2.73-4.9Z"/>
  <path class="cls-14" d="m545.65,423.46l1.28.39c-4.35,2.48-8.89,3.85-13.88,4.37.24-1.96,1.58-3.37,2.73-4.9,3.49.87,6.34.96,9.87.14Z"/>
  <path d="m545.04,406.41c.43.04.81.05,1.22.13,1.95.39,10.3,3.49,11.28,5.1-.02,1.51-.34,1.81-1.13,3.05-2.63.1-4.83-.14-7.28-1.16-2.37-.98-4.45-1.95-5.48-4.45.28-1.49.32-1.61,1.39-2.68Z"/>
  <path class="cls-14" d="m533.11,362.06c.52-.57,1.03-1.16,1.46-1.8,2.79-4.21,2.11-8.94,1.28-13.61,11.41,2.57,23.19,4.25,34.72,6.31l4.26.58c4.44.83,9.06,1.45,13.43,2.6-3.27,10.18-12.67,37.32-19.58,44.48-.52-.37-1.64-1.7-2.11-1.88-2.95-1.13-7.66-1-10.91-1.61l-3.99-1.45c-12.18-7.14-11.91-20.07-15.7-23.29-.67-.57-2.33-.28-3.2-.26l-.62-.53c1.33-.71,2.86-1.47,3.77-2.71.76-1.03,1.05-2.18.71-3.43-.47-1.71-2.1-2.55-3.52-3.39Z"/>
  <path class="cls-14" d="m570.57,352.95l4.26.58c4.44.83,9.06,1.45,13.43,2.6-3.27,10.18-12.67,37.32-19.58,44.48-.52-.37-1.64-1.7-2.11-1.88-2.95-1.13-7.66-1-10.91-1.61l-3.99-1.45c7.88-13.47,13.46-28.13,18.9-42.71Z"/>
  <path class="cls-4" d="m570.57,352.95l4.26.58c-5.36,14.87-11.03,29.97-19.17,43.58l-3.99-1.45c7.88-13.47,13.46-28.13,18.9-42.71Z"/>
  <path class="cls-12" d="m490.29,256.95c.39.08.78.16,1.16.26.18.05.35.1.53.14,6.02,1.55,13.64,9.84,17.56,14.45,3.8,4.49,7.47,10.53,6.82,16.63-.54,5.14-4.58,10.31-8.82,13.16-1.86,1.25-4.19,2.12-5.87,3.58-1.12.98-.95,1.28-.97,2.69.83,1.26.86,1.23,2.3,1.67,4.4-.81,8.16-4.39,11.64-7.07,5.85,4.56,9.71,8.84,11.35,16.24.21,7.86-3.06,13.22-7.55,19.35-7.75-5.92-14.13-12.82-19.06-21.26-8.32-14.21-11.81-30.12-13.24-46.33-.31-3.47-1.06-7.54-.18-10.93,1.59-.6,2.73-1.17,4-2.31.11-.1.22-.2.33-.3Z"/>
  <path class="cls-5" d="m688.6,587.08l54.52,62.47c8.12,9.27,17.66,18.79,24.96,28.6,1.04,1.4,1.87,2.63,1.79,4.42-.06,1.53-.76,2.97-1.94,3.95-1.01.85-1.95,1.12-3.21,1.37-1.9-.34-3.17-1.04-4.61-2.33-2.94-2.64-5.46-5.78-8.26-8.58-7.55-7.44-15.07-14.93-22.54-22.46-7.44-7.49-22.52-20.77-27.69-28.65-1.03-1.56-1.55-3.32-2.07-5.1-1.31-3.03-2.02-6.43-2.81-9.62-3-7.9-5.26-16.11-8.13-24.08Z"/>
  <path class="cls-3" d="m696.73,611.16l46.43,47.78c5.27,5.41,20.28,19.25,22.99,24.56l-.31,1.27c-.85.46-.85.68-1.86.42-6.78-1.75-52.48-55.6-64.44-64.41-1.31-3.03-2.02-6.43-2.81-9.62Z"/>
  <path class="cls-14" d="m521.91,286.37l38.59,39.66c7.94,8.1,16.66,16.05,23.89,24.76-4.65-.71-9.33-1.32-13.91-2.35-3.2-.42-6.32-.89-9.46-1.62-9.05-1.49-18.09-3.06-27.11-4.72-1.92-3.1-4.01-5.98-6.22-8.88,3.3-6.13,3.92-12.03,2.57-18.77-2.57-6.67-6.63-10.73-11.78-15.56-.27-1.42.35-1.91,1.06-3.13,1.33-3.06,1.85-6.11,2.38-9.38Z"/>
  <path class="cls-14" d="m530.25,314.45c3,1.35,29.9,29.49,30.92,31.74l-.16.63c-9.05-1.49-18.09-3.06-27.11-4.72-1.92-3.1-4.01-5.98-6.22-8.88,3.3-6.13,3.92-12.03,2.57-18.77Z"/>
  <path class="cls-4" d="m519.53,295.76c2.44,4.68,45.59,48.14,50.95,52.69-3.2-.42-6.32-.89-9.46-1.62l.16-.63c-1.02-2.25-27.92-30.39-30.92-31.74-2.57-6.67-6.63-10.73-11.78-15.56-.27-1.42.35-1.91,1.06-3.13Z"/>
  <path class="cls-5" d="m498.23,473.36c1.05,1.34-.4,22.35-.51,25.81-5.24,4.9-26.32,23.51-32.35,25.33-3.17.95-5.72-.39-8.42-1.95-.15-.15-.31-.3-.45-.45-1.75-1.82-3.07-4.5-2.93-7.07.11-1.98.99-4.27,2.22-5.82,4.02-5.08,10.28-9.26,15.27-13.39l27.17-22.45Z"/>
  <path class="cls-2" d="m546.37,305.36c18.94,4.37,36.05,6.25,55.43,3.41.06,3.74.41,7.24,1.05,10.92l-2.57,6.5c-.39,1.02-.83,1.77-1.48,2.65-5.5,2.36-21.82.92-28.4.83-8.31-7.71-16.09-16.21-24.04-24.3Z"/>
  <path class="cls-5" d="m601.06,388.1c2.79,6.11,5.74,12.15,8.84,18.11l-29.83,24.85-.94.47c-2.43-2.93-5.51-15.67-6.79-19.79,9.93-7.19,19.27-15.81,28.73-23.64Z"/>
  <path class="cls-4" d="m590.71,361.77c3.63,6.58,5.86,15,8.58,22.08l-22.89,19.01c-2.25,1.91-4.58,3.72-6.88,5.57,7.77-15.08,17.5-29.83,21.19-46.67Z"/>
  <path class="cls-8" d="m449.55,299.81c2.94,1.77,5.77,3.43,8.97,4.67-4.82,5.46-8.35,11.42-11.91,17.72-1.24.58-2.43,1.26-3.57,2.02-5.56,3.81-6.46,10.18-7.62,16.27-.27,1.18-.46,1.91-1.16,2.93-1.91-.04-3.45-1.65-5-2.74,4.36-15.1,9.93-28.79,20.3-40.87Z"/>
  <path class="cls-12" d="m419.65,342.68c7.47.63,11.9,4.82,16.92,9.89l-11.35,10.22-3.06,2.36c-4.74-2.54-9.37-5.42-11.03-10.92-.64-2.12-.59-4.44.54-6.39,1.74-3.02,4.79-4.26,7.98-5.15Z"/>
  <path class="cls-4" d="m660.29,496.79l4.68-5.89c4.37,14.56,8.61,29.3,13.54,43.68l1.11,4.09-5.74,1.24-1.29-4.1c-3.59-13.09-8.21-26.07-12.3-39.01Z"/>
  <path class="cls-14" d="m678.51,534.58l1.11,4.09-5.74,1.24-1.29-4.1,5.92-1.23Z"/>
  <path class="cls-9" d="m675.84,224.62c.81.15,1.28.36,1.95.84,2.77,1.99,4.1,4.95,4.55,8.25.9,6.57-.96,14.31-4.98,19.56-.83.8-1.51,1.66-2.72,1.8-1.16-8.98-2.05-17.96-3.33-26.94l4.53-3.52Z"/>
  <path class="cls-12" d="m448.51,326.19c.16-.01.32-.02.48-.03,2.34-.1,6.9.51,8.63,2.28.7.72.95,1.49.84,2.51-.43,4.03-8.67,9.92-11.79,12.67l-5.04,4.59c-1.01-5.01-2.06-10.41-.07-15.33,1.38-3.4,3.68-5.21,6.95-6.68Z"/>
  <path class="cls-4" d="m572.76,332.63c8.25.11,16.51.16,24.76.17l-4.64,11.15-2.61,6.4c-5.77-5.97-11.61-11.87-17.51-17.71Z"/>
  <path class="cls-4" d="m385.73,303.52l10.31,3.24c.92,3.64,1.71,7.21,2.25,10.93l-11-3.32c-.73-3.52-1.69-7.25-1.56-10.86Z"/>
  <path class="cls-8" d="m441.99,291.05c1.44.71,2.89,3.84,3.8,5.27-5.51,4.06-10.35,8.54-15.17,13.37-.49.57-.99.96-1.58,1.42-.15-.44-.24-.58-.22-1.11.25-7.12,8.36-14.63,13.16-18.96Z"/>
  <path class="cls-5" d="m440.87,262.08l5.34,3.17c-2.28,4.65-3.75,9.06-4.7,14.18-.3,1.62-.1,5.83-.86,7.04-.33.53-.93.85-1.39,1.28l-4.39,3.72c3.16-9.8,5.19-19.07,6-29.38Z"/>
  <path class="cls-8" d="m461.72,307.29c.63.96.33,9.97.53,12.18-3.1.69-6.16,1.68-9.22,2.55l-.59-.37c-.22-3.48,6.98-11.64,9.28-14.36Z"/>
  <path class="cls-8" d="m435.51,311.08c.13,1.98-7.08,17.39-8.4,21.23-.47-3.74-.23-7.52-.09-11.28,2.33-3.69,5.45-6.84,8.49-9.94Z"/>
  <path class="cls-4" d="m673.88,539.91l5.74-1.24c.56,5.32-.11,9.02-1.8,14.04-1.27-4.27-2.41-8.63-3.95-12.81Z"/>
  <path class="cls-9" d="m668.12,243.47c1.32,2.86,2.08,10.29,1.38,13.32-.33,1.43-1.29,1.57-2.47,2.21l-1.1-.35c-1.46-2.05,1.73-12.22,2.2-15.18Z"/>
  <path d="m465.95,306.71l3.02,1.22.21.94c-1.97,4.93-1.98,9.17-2.11,14.43l-.08.76c-2.01-4.43-1.08-12.49-1.04-17.35Z"/>
  <path d="m481.42,234.57l.73.14c-.32,5.58.05,12.19-1.49,17.55l-.67-1.27c.41-3.91-.04-13.23,1.43-16.43Z"/>
  <path class="cls-10" d="m441.74,411.82c3.23.19,6.44,1.7,9.42,2.83-4.18.19-6.05-.52-9.42-2.83Z"/>
  <path class="cls-11" d="m706.3,642.1l-1.95-6.3,7.27,7.18c-2.29.08-3.29.32-5.31-.88Z"/>
  <path class="cls-7" d="m522.27,232.62c.14,1.43-.13,2.8.99,3.75,9.69,1.02,17.52,1.71,24.11,9.82,4.3,5.28,6.14,12.22,5.4,18.96-.69,6.3-4.06,13.13-9.16,17.03-3.92,2.99-10.2,3.68-13.46,6.8-3.04-2.99-6.26-5.98-8.86-9.36-3.2-4.17-5.98-8.91-9.49-12.8-3.12-3.46-7.78-6.08-10.44-9.83-1.71-.82-3.43-.31-5.25-.41-2.71-.15-8.07-.28-9.92-2.44-2.12-4.95-.15-14.59.44-20.01,7.47,4.88,13.17,6.38,22.06,6.07,5.49-1.62,9.34-3.69,13.56-7.57Z"/>
</svg>