<?xml version="1.0" encoding="UTF-8"?>
<svg id="_图层_1" data-name="图层 1" xmlns="http://www.w3.org/2000/svg" xmlns:xlink="http://www.w3.org/1999/xlink" viewBox="0 0 1134 950">
  <defs>
    <style>
      .cls-1 {
        fill: url(#_未命名的渐变);
      }

      .cls-2 {
        fill: #febdc2;
      }

      .cls-3 {
        fill: #fe8f9f;
      }

      .cls-4 {
        fill: #fee6e1;
      }

      .cls-5 {
        fill: #660005;
      }

      .cls-6 {
        fill: #763e3d;
      }

      .cls-7 {
        fill: #5f0038;
      }

      .cls-8 {
        fill: #feddc8;
      }

      .cls-9 {
        fill: #a38969;
      }

      .cls-10 {
        fill: #ff6365;
      }

      .cls-11 {
        fill: #221917;
      }

      .cls-12 {
        fill: #fefefe;
      }
    </style>
    <linearGradient id="_未命名的渐变" data-name="未命名的渐变" x1="572.92" y1="638.91" x2="572.5" y2="618.32" gradientTransform="translate(0 950) scale(1 -1)" gradientUnits="userSpaceOnUse">
      <stop offset="0" stop-color="#ffdac3"/>
      <stop offset="1" stop-color="#ffebe9"/>
    </linearGradient>
  </defs>
  <path d="m423.25,144.61c2.12-6.54,4.42-13.28,7.54-19.42,13-25.63,36.13-49.84,61.8-62.94,27.84-14.21,61.26-15.58,90.79-5.9,6,1.97,11.77,4.66,17.79,6.5,6.74,2.06,13.67,3.24,20.34,5.63,25.03,8.95,44.99,26.26,56.99,50.02,12.08,23.93,19.07,57.69,10.42,83.57-2.62,7.85-6.66,14.27-11.64,20.81,4.91,4.71,7.43,9.65,7.58,16.52.15,7.18-2.16,15.23-7.33,20.43-1.4,1.41-3.16,2.6-4.76,3.77.37,24.49,2.9,51.64-9.79,73.86,17.27,13.99,35.13,27.51,52.72,41.11,8.03,6.21,17.06,12.17,24.42,19.15,1.42,1.34,2.92,2.72,3.09,4.77.18,2.2-.93,4.26-2.42,5.8-9.72,10.06-52.03,22.8-56.22,27.97,0,6.07,35.99,56.59,42.74,66.55,4.7,6.93,11.53,14.8,13.79,22.9,1.94,6.97.55,15.05-4.54,20.38-4.61,4.82-10.94,5.83-16.59,8.78,4.5,6.13,10.1,11.77,14.28,18.07,1.65,2.49,2.17,5.91,4.04,8.19,5.93,7.24,24.97,13.36,23.41,24.47-.44,3.15-2.73,6.79-5.33,8.61-3.11,2.18-6.89,2.04-10.46,1.38-3.28,2.65-6.43,5.41-10.98,4.8-7.37-.98-10.21-9.77-18.54-7.68,10.52,10.57,20.19,22.66,30.15,33.82,8.93,10,19.34,20.16,27.26,30.84,1.29,1.73,2.71,3.64,2.61,5.9-.11,2.72-1.35,5.98-3.41,7.81-1.88,1.68-4.45,2.38-6.94,2.16-2.14-.18-3.68-.88-5.4-2.15-8.12-6.02-16.42-15.67-23.7-22.86-10.32-10.2-21.34-20.09-31.16-30.75l12.83,39.01c2.62,7.82,6.71,16.85,7.63,25.02.25,2.23-.29,4.83-1.26,6.85-.71,1.5-1.59,2.46-3.2,2.99-6.39,2.11-14.64,1.63-21.41,2.16-22.17,1.75-48.07,4.18-70.1,4.11-6.38,25.46-13.09,34.04-29.77,53.28,2.25,20.86,4.63,41.7,7.15,62.53,1.24,9.88,4.2,19.04,3.21,29.14,20.74,12.01,48.43,17.35,55.41,43.72,1.24,4.67.55,9.64-1.93,13.79-1.59,2.63-4.44,5.4-7.51,6.16-8.6,2.14-44.72.88-55.64.88l-30.04-.02c-5.89,0-12.02.3-17.86-.4-2.04-.25-3.9-1.01-5.61-2.13-3.58-2.35-5.19-6.13-5.9-10.23-1.18-6.88-.53-14.61-.51-21.58.03-8.99-.24-18.16.33-27.13-1.38-12.54-1.68-25.18-3.04-37.77-4.52,1.31-8.92,1.95-13.62,2.12-1.73,4.37-3.84,8.6-5.63,12.96-4.07,9.88-7.42,20.84-13.92,29.44-5.73,7.58-14.04,14.35-23.74,15.56-4.85.6-9.77-.28-13.62-3.47-3.54-2.93-4.36-6.5-4.83-10.85-2.08-19.33-2.25-39.32-3.33-58.74-.57-10.2-2.7-29.36-1.7-38.84.31-2.97,1.47-5.88,3.43-8.16,1.86-2.16,4.7-3.47,7.41-4.18,8.89-2.35,32.8-2.25,43.1-2.73,4.79-1.63,12.93-10.85,16.91-14.63l-3.14-28.13c-27.02-1.51-53.89-2.11-80.86-4.77-8.4-.83-17.7-1.2-25.79-3.49-5.02-1.42-7.08-4.44-9.52-8.73.22-10.28,6.25-25.81,9.02-36.15,3.88-14.48,6.97-29.74,12.06-43.81-1.39,0-2.8,0-4.18-.23-2.88-.48-5.65-1.87-7.3-4.36-2.74-4.12-1.85-9.06-1.07-13.6-9.36,5.19-15.27,4.96-25.56,3.3-4.81,3.34-9.58,6.88-15.13,8.88-4.29-1.26-6.76-2.95-9.94-6.06-.13.06-.26.12-.39.18-.22.1-.44.19-.66.29-.2.09-.4.19-.6.28-2.97,1.35-5.55,1.49-8.62.25-4.16-1.68-6.76-5.5-8.43-9.47.6-2.18,1.11-4.83,2.22-6.8,3.86-6.91,19.68-15.3,26.52-19.85,5.19-12.25,16.18-23.19,25.57-32.54-9.03-5.39-21.8-9.66-24.61-20.9-1.63-6.52-.35-13.6,3.2-19.27,4.76-7.6,11.5-14.61,17.19-21.58,14.99-18.37,31.99-37.7,45.96-56.59-4.73-1.91-7.18-4.37-10.03-8.58-7.23-2.9-32.84-9.6-35.72-16.22-.91-2.09-.69-4.42.16-6.48,2.86-6.9,12.38-14.02,18.29-18.48-5.4-2.96-10.22-6.31-12.02-12.56-1.04-3.62-.68-7.76,1.3-11.01,1.97-3.22,5.45-5.2,9.11-5.88,1.85-.34,3.71-.21,5.57-.09-1.14-11.99-.9-22.8,2.27-34.54,3.6-13.34,9.26-25.88,10.32-39.87.51-6.77-3.8-10.89-5.11-17.06-1.31-6.18-.48-12.1-.5-18.33-7.77,6-15.59,11.1-25.89,9.8-6.64-.83-12.67-4.3-16.72-9.63-4.09-5.47-5.86-12.33-4.93-19.09.64-4.59,2.53-8.61,5.23-12.35-13.82-.11-24.8,3.41-34.82,13.27-11.41,11.24-19.7,28.75-19.64,44.9.05,12.76,4.88,25.84,14.14,34.79,6.18,5.98,14.62,10.23,23.35,10.07,10.79-.2,16.89-3.06,27,2.95,2.26,3.57,5.39,9.99,4.63,14.33-.24,1.36-.88,2.45-2.08,3.17-3.47,2.06-11.63-1.57-15.04-2.81-.66-.24-1.29-.5-1.93-.8-1.18-4.2-1.94-8.49-2.75-12.78-17.79,6.23-37.24,10.71-55.12,2.08-12.85-6.21-20.8-17.89-25.31-31.11-3.09-9.07-5.35-21.04-5.13-30.71.32-14.07,7.01-35.86,13.39-48.56,12.22-24.34,36.43-43.48,62.16-51.88,6.25-2.04,12.75-2.85,19-4.74,3.09-.93,6.11-3.05,8.99-4.56,6.9-3.62,14.78-1.9,21.4,1.5,1.6.82,3.19,1.68,4.72,2.62Zm237.84,121.91c-2.43,6.22-5.3,11.75-8.97,17.35,2.07,15.59,4.3,31.38,5.49,47.06l.82,2.12c1.11-.1.75.14,1.44-.69,7.73-9.34,10.61-53.65,7.98-65.56-.09-.4-.31-1.03-.65-1.32l-6.12,1.04Zm-182.94-9.36c.63-3.43,2.29-19.76.95-22.15l-.96-.7c.12,4.31-1.23,20.25-.97,21.72,0,.04.65.88.66.89.09.1.21.16.32.24Zm-13.3,63.88c.68-2.67,2.22-5.67,2.12-8.36-.9-1.01-1.44-.84-2.75-1.01-.07,2.14-.76,8.67.63,10.3v-.94Z"/>
  <path class="cls-3" d="m514.17,495.73c15.17-1.07,30.92-3.98,46.08-3.88,11,.07,22.29,1.8,33.26,2.87l62.69,6.03c16.7,50.01,33.48,100.08,49.45,150.32-8.62.18-17.22.73-25.83,1.13l-24.51-73.15-8.05-24.17c-1.36-4.1-2.47-8.43-4.18-12.39-1.06-2.44-2.15-4.46-4.44-5.92-1.26.04-1.48-.06-2.38.92-1.06,1.16-1.4,2.61-1.52,4.14-.82,9.83.48,20.78.79,30.7.83,27.48,2.6,55.18,2.42,82.66-23.05.21-46.09.54-69.13.98l-4.3-79.55c-.63-11.89-.38-27.62-2.34-39.03-.22-1.28-.79-2.24-1.73-3.13-.93-.9-2.01-1.28-3.29-1.31-1.28-.03-2.8.85-3.64,1.77-3.05,3.34-36.85,103.6-41.79,118.05l-84.2-2.76c2.6-9.85,5.31-19.68,8.14-29.47,4.51-8.22,5.56-18.58,7.64-27.69,2.47-8.54,4.88-17.09,7.24-25.66,5.65.88,9.5,1.15,14.44-2.35,9.82-6.96,18.56-28.14,23.45-39.07,2.09-4.68,3.87-10.08,7-14.17,3.95-5.16,13.27-12.39,18.74-15.9Z"/>
  <path class="cls-7" d="m610.03,867.03l.85-4.44c20.74,12.01,48.43,17.35,55.41,43.72,1.24,4.67.55,9.64-1.93,13.79-1.59,2.63-4.44,5.4-7.51,6.16-8.6,2.14-44.72.88-55.64.88l-30.04-.02c-5.89,0-12.02.3-17.86-.4-2.04-.25-3.9-1.01-5.61-2.13-3.58-2.35-5.19-6.13-5.9-10.23-1.18-6.88-.53-14.61-.51-21.58.03-8.99-.24-18.16.33-27.13,1.62,3.09,2.73,6.42,4.12,9.62,4.52,6.52,9.91,11.8,17.39,14.79,8.75,3.46,18.53,3.28,27.15-.5,10.13-4.47,15.9-12.46,19.74-22.53Z"/>
  <path class="cls-7" d="m610.03,867.03c4.19,2.76,8.82,4.45,13.18,6.85,1.65.83,3.37,1.6,4.97,2.52,4.62,1.96,14.57,5.51,17.67,8.85l3.99,3.14c5.37,4.85,9.6,10.44,11.82,17.41-13.38-.38-26.87-.03-40.26-.03l-75.91.05c-.05-10.03-.77-20.59.24-30.53,4.52,6.52,9.91,11.8,17.39,14.79,8.75,3.46,18.53,3.28,27.15-.5,10.13-4.47,15.9-12.46,19.74-22.53Z"/>
  <path class="cls-12" d="m623.21,873.88c1.65.83,3.37,1.6,4.97,2.52,4.62,1.96,14.57,5.51,17.67,8.85l3.99,3.14c-.77,1.8-1.83,3.91-3.11,5.41-1.2,1.4-2.67,2.07-4.51,2.07-7.3-.01-18.12-5.63-23.31-10.62,1.04-1.02,2.14-2.05,3.03-3.2,2.02-2.59,1.58-5.13,1.25-8.17Z"/>
  <path class="cls-7" d="m628.18,876.4c4.62,1.96,14.57,5.51,17.67,8.85-.23,1.09-.45,2.32-.88,3.34-.54,1.27-1.64,2.07-2.96,2.39-4.88,1.21-12.52-3.73-16.59-5.95,1.88-2.85,2.47-5.3,2.76-8.63Z"/>
  <path class="cls-11" d="m610.03,867.03l.85-4.44c20.74,12.01,48.43,17.35,55.41,43.72,1.24,4.67.55,9.64-1.93,13.79-1.59,2.63-4.44,5.4-7.51,6.16-8.6,2.14-44.72.88-55.64.88l-30.04-.02c-5.89,0-12.02.3-17.86-.4-2.04-.25-3.9-1.01-5.61-2.13-3.58-2.35-5.19-6.13-5.9-10.23-1.18-6.88-.53-14.61-.51-21.58.03-8.99-.24-18.16.33-27.13,1.62,3.09,2.73,6.42,4.12,9.62-1.01,9.94-.29,20.51-.24,30.53l-.05,4.26c.18,3.85,1.02,7.56,4.08,10.18,2.08,1.78,4.5,2.05,7.12,2.32,5.91.59,12.05.3,18,.31l29.71.02c14.01,0,33.97,1.05,47.38-.37,3.27-.35,6.02-1,8.16-3.74,1.89-2.42,2.38-5.41,2.53-8.39l-.77-4.59c-2.22-6.97-6.46-12.56-11.82-17.41l-3.99-3.14c-3.1-3.34-13.05-6.89-17.67-8.85-1.6-.92-3.32-1.69-4.97-2.52-4.36-2.4-8.99-4.09-13.18-6.85Z"/>
  <path class="cls-12" d="m545.5,905.81l75.91-.05c13.39,0,26.88-.35,40.26.03l.77,4.59c-38.95-1.12-78.02.13-116.99-.32l.05-4.26Z"/>
  <path class="cls-7" d="m524.96,830.01c-1.73,4.37-3.84,8.6-5.63,12.96-4.07,9.88-7.42,20.84-13.92,29.44-5.73,7.58-14.04,14.35-23.74,15.56-4.85.6-9.77-.28-13.62-3.47-3.54-2.93-4.36-6.5-4.83-10.85-2.08-19.33-2.25-39.32-3.33-58.74-.57-10.2-2.7-29.36-1.7-38.84.31-2.97,1.47-5.88,3.43-8.16,1.86-2.16,4.7-3.47,7.41-4.18,8.89-2.35,32.8-2.25,43.1-2.73-1.42,1.93-4.57,4.26-6.73,5.29-8.06,7.51-13.52,16.17-13.88,27.46-.3,9.46,3.24,18.64,9.82,25.45,5.36,5.56,11.74,8.49,19.18,10.19l4.44.62Z"/>
  <path class="cls-7" d="m524.96,830.01c-1.73,4.37-3.84,8.6-5.63,12.96-4.07,9.88-7.42,20.84-13.92,29.44-5.73,7.58-14.04,14.35-23.74,15.56-4.85.6-9.77-.28-13.62-3.47-3.54-2.93-4.36-6.5-4.83-10.85-2.08-19.33-2.25-39.32-3.33-58.74-.57-10.2-2.7-29.36-1.7-38.84.31-2.97,1.47-5.88,3.43-8.16,1.86-2.16,4.7-3.47,7.41-4.18,8.89-2.35,32.8-2.25,43.1-2.73-1.42,1.93-4.57,4.26-6.73,5.29-3.59-1.7-22.75.58-28.2.48l-2.55.41c-.53,5.72.3,11.97.62,17.72l1.75,31.79,2.58,47.43c.35,6.5.2,13.22.88,19.67l4.55-.93c7.05-3.18,11.62-6.84,16.57-12.74l3.17-4.49c3.42-5.03,5.55-12.11,7.79-17.76l2.18-5.33c1.48-4.41,3.88-8.86,5.77-13.14l4.44.62Z"/>
  <path class="cls-11" d="m524.96,830.01c-1.73,4.37-3.84,8.6-5.63,12.96-4.07,9.88-7.42,20.84-13.92,29.44-5.73,7.58-14.04,14.35-23.74,15.56-4.85.6-9.77-.28-13.62-3.47-3.54-2.93-4.36-6.5-4.83-10.85-2.08-19.33-2.25-39.32-3.33-58.74-.57-10.2-2.7-29.36-1.7-38.84.31-2.97,1.47-5.88,3.43-8.16,1.86-2.16,4.7-3.47,7.41-4.18,8.89-2.35,32.8-2.25,43.1-2.73-1.42,1.93-4.57,4.26-6.73,5.29-3.59-1.7-22.75.58-28.2.48l-2.55.41c-2.82-.3-5.49.41-7.77,2.14-2.22,1.68-3.81,4.06-4.14,6.85-.71,5.95.07,12.45.4,18.44l1.53,27.6c.87,15.65.96,36.37,3.07,51.41.34,2.45.73,4.6,2.37,6.57,1.89,2.28,4.86,3.3,7.73,3.53.88.06,1.76.09,2.64.08l4.55-.93c7.05-3.18,11.62-6.84,16.57-12.74l3.17-4.49c3.42-5.03,5.55-12.11,7.79-17.76l2.18-5.33c1.48-4.41,3.88-8.86,5.77-13.14l4.44.62Z"/>
  <path class="cls-12" d="m474.66,767.18l2.55-.41c1.34.96,1.26.97,1.53,2.56,1.49,9.03,1.2,20.44,1.7,29.74l2.97,55.2c.51,9.5.7,19.13,1.63,28.59l-4.55.93c-.68-6.44-.53-13.17-.88-19.67l-2.58-47.43-1.75-31.79c-.32-5.75-1.15-12-.62-17.72Z"/>
  <path class="cls-12" d="m502.85,838.86c1.32,1.12,2.67,2.39,4.14,3.3,2.57,1.58,5.02.96,7.76.37l-2.18,5.33c-2.24,5.65-4.37,12.73-7.79,17.76l-3.17,4.49c-1.68-.76-3.4-1.51-4.93-2.55-1.48-1.01-2.44-1.94-2.74-3.76-1.2-7.43,4.75-19.04,8.91-24.94Z"/>
  <path class="cls-7" d="m503.58,845.51c3.07,1.54,5.61,2.12,8.99,2.35-2.24,5.65-4.37,12.73-7.79,17.76-1.11-.11-2.34-.15-3.41-.46-1.3-.38-2.24-1.41-2.67-2.67-1.57-4.65,2.94-12.66,4.88-16.98Z"/>
  <path class="cls-11" d="m403.23,541.57c1.08.68,2.57,1.9,3.79,2.16,6.76,4.18,12.93,10.7,19.1,14.17,5.64,3.17,12.15,4.2,17.89,7.26,1.72.56,2.3.43,3.2,2.06-.06,4.49-3.06,6.52-4.69,10.35-.83,1.94-.24,13.68.78,15.32-2.09,9.11-3.14,19.47-7.64,27.69-1.45-.43-1.98-.73-3.49-.08-.42.18-.97.55-1.36.8-1.39,0-2.8,0-4.18-.23-2.88-.48-5.65-1.87-7.3-4.36-2.74-4.12-1.85-9.06-1.07-13.6-9.36,5.19-15.27,4.96-25.56,3.3-4.81,3.34-9.58,6.88-15.13,8.88-4.29-1.26-6.76-2.95-9.94-6.06-.13.06-.26.12-.39.18-.22.1-.44.19-.66.29-.2.09-.4.19-.6.28-2.97,1.35-5.55,1.49-8.62.25-4.16-1.68-6.76-5.5-8.43-9.47.6-2.18,1.11-4.83,2.22-6.8,3.86-6.91,19.68-15.3,26.52-19.85,5.19-12.25,16.18-23.19,25.57-32.54Z"/>
  <path class="cls-4" d="m382.38,573.73c5.01-10.22,16.94-21.38,24.65-30,6.76,4.18,12.93,10.7,19.1,14.17,5.64,3.17,12.15,4.2,17.89,7.26-1.34,3.97-3.39,7.07-5.89,10.38l-5.79-1.66-.79.21c-2.03.52-3.87.96-5.63,2.17-6.25,4.32-5.58,13.85-6.98,20.58-.43.43-.84.82-1.31,1.2-6.2,4.93-12.1,5.58-19.75,4.69,3.98-2.76,9.38-5.85,10.84-10.79.84-2.83.35-5.81-1.07-8.36-5.54-9.9-12.59-4.14-15.88-4.76-1.38-.26-5.76-4.06-9.38-5.08Z"/>
  <path class="cls-4" d="m396.14,581.81c.79,0,1.53.03,2.31.16,2.49.42,3.92,1.46,5.37,3.53.89,1.26,1.2,2.52.86,4.04-1.46,6.46-20.14,17.24-26.1,20.9-.58,0-1.14.02-1.71-.09-2.68-.53-4.82-2.68-6.05-5.02-.65-1.23-.63-2.75-.23-4.06,1.87-6.16,19.51-16.34,25.56-19.46Z"/>
  <path class="cls-4" d="m430.18,578.48c1.21-.03,2.41.02,3.6.27,1.97.42,2.99,1.3,4.11,2.92.9,3.91-1.91,28.18-3.52,31.92-.86,2.01-2.12,2.48-4.02,3.23-.71-.02-1.42-.03-2.12-.1-1.84-.19-3.55-1.03-4.63-2.56-3.82-5.42-.12-20.74,1.24-27.02.89-4.08,1.69-6.32,5.33-8.65Z"/>
  <path class="cls-4" d="m379.74,578.41c.37-.02.74-.02,1.11-.03,2.01,0,4.29.22,5.78,1.69.67,5.03-15.15,11.04-18.1,15.14-1.96,2.74-1.77,5.62-2.68,8.69-.52,1.77-1.85,2.16-3.33,3.03-.69-.03-.75,0-1.52-.15-2.78-.52-4.84-2.67-6.16-5.06-.68-1.23-.68-2.73-.27-4.05,1.9-6.17,19.27-15.93,25.18-19.26Z"/>
  <path class="cls-11" d="m715.46,556.54c1.47-.63,2.98-1.14,4.49-1.68,4.5,6.13,10.1,11.77,14.28,18.07,1.65,2.49,2.17,5.91,4.04,8.19,5.93,7.24,24.97,13.36,23.41,24.47-.44,3.15-2.73,6.79-5.33,8.61-3.11,2.18-6.89,2.04-10.46,1.38-3.28,2.65-6.43,5.41-10.98,4.8-7.37-.98-10.21-9.77-18.54-7.68-1.8.25-3.22.38-4.76,1.39-.79-.43-.46-.33-1.31-.5-4.98-.97-9.22-2.65-14.02-4.12-1.12-2.38-1.56-5.26-2.48-7.76-2.98-8.09-6.56-15.78-8.04-24.33.02-1.73-1.09-4.06-1.64-5.74,4.6-1.58,8.75-4.09,13.07-6.28,6.05-3.02,12.15-5.96,18.28-8.82Z"/>
  <path class="cls-4" d="m715.46,556.54c5.78,7.08,12.14,14.16,17.04,21.87-5.6.16-8.09,1.17-12.19,5.11-3.36-1.04-5.96-1.33-9.17.46-2.89,1.61-5.73,5.59-6.55,8.78-.56,2.17-.23,4.21.95,6.11,2.42,3.91,7.53,5.22,9.71,8.92l-.2.69c-5.33,1.19-10.82.34-15.41-2.68-1.88-1.23-3.52-2.9-4.97-4.61-.59-6.94,0-16.27-5.62-21.22-1.05-.92-2.2-1.76-3.31-2.6.02-1.73-1.09-4.06-1.64-5.74,4.6-1.58,8.75-4.09,13.07-6.28,6.05-3.02,12.15-5.96,18.28-8.82Z"/>
  <path class="cls-4" d="m714.79,586.77c.68,0,1.32,0,1.99.11,4,.64,22.25,14.08,24.73,17.67,1.17,1.69,1.97,3.88,1.47,5.94-.64,2.64-2.87,4.15-5.02,5.52-.77,0-1.53-.02-2.28-.14-4.28-.69-22.12-13.95-24.63-17.6-1.13-1.64-1.91-3.83-1.4-5.82.7-2.77,2.91-4.22,5.16-5.68Z"/>
  <path class="cls-4" d="m727.62,582.88c.23-.03.46-.05.69-.07,6.05-.55,19.64,10.88,24.45,14.84,1.99,1.64,4.25,3.53,4.4,6.29.16,2.83-1.7,4.85-3.4,6.85-.83.33-1.75.74-2.63.88-1.46.23-2.36.06-3.46-.83.68-14.85-15.97-15.28-22.61-24.87.35-1.56,1.4-2.06,2.58-3.1Z"/>
  <path class="cls-6" d="m696.27,609.47c4.8,1.47,9.04,3.15,14.02,4.12.85.17.52.07,1.31.5,12.74,13.7,25.05,27.84,37.52,41.79,6.92,7.75,14.68,15.37,20.95,23.6.98,1.28,1.86,2.41,1.82,4.11-.04,1.55-.65,3.05-1.78,4.13-1.03.98-2.58,1.51-4,1.39-1.06-.09-2.02-.66-2.82-1.32-8.84-7.26-17.59-17.3-25.93-25.44l-22.65-22.05c-3.66-3.61-7.94-7.3-10.97-11.45-1.24-1.69-1.96-3.37-2.6-5.36-1.55-3.13-2.32-7.18-3.29-10.53l-1.58-3.49Z"/>
  <path class="cls-5" d="m697.85,612.96c15.7,16.23,31.78,32.12,47.72,48.12,6.69,6.71,14.43,13.37,20.54,20.56.99,1.16,1.65,2.17,1.86,3.68-.7,1.23-.81,1.13-2.18,1.57-4.12-1.69-11.35-10.53-14.84-14.08-4.82-4.88-47.01-48.76-49.81-49.33-1.55-3.13-2.32-7.18-3.29-10.53Z"/>
  <path class="cls-2" d="m542.91,55.07c4.26,0,8.52.2,12.76.57,18.16,1.69,27.72,6.53,44.34,12.27,5.46,1.89,11.34,2.64,16.89,4.33,17.63,5.4,33.29,15.85,45.03,30.07,17.87,21.62,28.07,55.65,25.13,83.72-1.71,16.35-8.28,29.64-21.06,40.03,1.19-3.05,2.7-6.49,2.86-9.77l.33-6.66c.17-.05.34-.09.51-.14,1.55-.46,2.34-.67,3.15-2.13-.43-1.65-.68-2.19-2.22-3.04-3.93-2.14-8.57-3.36-12.66-5.34-12.42-5.97-24.39-12.82-35.84-20.49-13.06-8.83-24.66-21.26-32.23-35.07,3.17-6.19,12.5-23.9,11.59-30.28-.17-1.19-.53-1.34-1.4-2.06-1.61-.04-1.58-.07-2.8.97-1.79,5.77-3.73,11.4-6.16,16.94-14.45,32.93-37.61,58.96-71.55,72.25-5.5-4.92-11.46-7.97-18.61-9.7,6.05-1.98,11.57-3.96,16.47-8.18,5.17-4.44,8.57-10.55,9.01-17.4.38-6.94-1.99-13.75-6.61-18.95-4.48-5.06-10.82-8.07-17.57-8.35-9.97-.38-17.73,4.94-24.77,11.4,1.28-6.33,2.16-12.67.73-19.06-1.46-6.52-5.21-12.37-10.94-15.91-7.18-4.44-15.02-4.19-22.96-2.36,4.24-5.97,8.7-11.75,13.66-17.14,23.37-25.41,50.16-39.09,84.91-40.52Z"/>
  <path class="cls-4" d="m541.9,63.35c7.45-.64,15.33-.22,22.73.78,8.84,1.2,34.92,7.14,40.03,13.84.2.94.46,1.47.2,2.42-.44,1.64-2.11,3.45-3.62,4.19-3.83,1.87-11.77-3.24-15.58-4.6-25.75-9.2-51.73-8.44-76.59,3.07-9.15,4.46-17.6,10.23-25.1,17.11-3.55,3.22-8.1,10.78-12.52,12.23-1.57.51-3.38.35-4.78-.53-1.54-.96-1.94-2.22-2.33-3.91.45-3.07,3.42-6.06,5.39-8.37,17.74-20.82,45.13-34.12,72.17-36.23Z"/>
  <path class="cls-4" d="m618.52,80.21c1.13-.06,2.3-.11,3.41.15,12.17,2.83,33.12,25.32,40.12,35.95,10.7,16.24,16.66,34.5,18.55,53.78.36,3.69,1.21,8.28.3,11.91-.61,2.45-2,3.42-4.11,4.62-1.01.03-2.03.05-3.03-.12-2.01-.34-3.5-1.15-4.26-3.12-1.68-4.34-.78-10.33-1.26-15-1.09-9.89-3.56-19.58-7.32-28.79-6.51-15.57-17.23-29.91-30.66-40.19-3.38-2.59-14.14-7.29-15.78-10.34-.6-1.11-.78-2.47-.46-3.7.63-2.4,2.52-3.87,4.49-5.15Z"/>
  <path class="cls-11" d="m560.34,167.44c1.26.99,1.43,1.15,1.98,2.64-1.76,4.03-12.17,4.51-16.22,7.37-3.71,2.61-3.99,6.78-6.57,10.06-.19.24-.39.47-.58.71-1.51-.79-2.03-.98-3-2.43-.08-2.65,1.31-5.51,2.76-7.67,4.95-7.34,13.54-9.07,21.62-10.67Z"/>
  <path class="cls-11" d="m634.44,169.37c4.73-.15,8.9.11,13.36,1.86,4.52,1.78,9.46,5.15,11.28,9.81.92,2.36,1.32,4.14.29,6.5-4.11-.72-6.25-8.54-10-11.21-4.39-3.12-10.25-1.06-14.68-3.47-.77-1.47-.51-1.89-.25-3.49Z"/>
  <path class="cls-2" d="m557.31,535.78c.05.19.1.37.15.56,2.32,9.29,1.86,22.39,2.39,32.29l3.51,66.56c.37,7-.21,18.09,2.25,24.34,4.04,1.43,69.31.16,76.62-.46.62-26.55-1.36-53.48-2.24-80.05-.35-10.5-.91-21.13-.49-31.63,4.42,9.91,7.55,20.6,11,30.88l16.34,48.93c2.02,6.06,7.07,24.5,10.44,28.46,6.71,2.22,22.05-.31,29.82-.36,3.97,12.29,8.02,24.55,12.15,36.78l1,3.36c.12.39.25.77.35,1.16.76,3.02,1.73,7.47.14,10.3-4.54,2.47-23.26,2.61-29.62,3.08-73.33,5.56-146.96,6.02-220.36,1.35-10.35-.77-20.69-1.69-31.02-2.77-5.54-.56-11.48-.8-16.91-2.04-2.79-.63-6.02-1.76-7.53-4.4-2.24-3.93.08-9.35,1.25-13.32l.96-3.57,8.8-30.98,59.03,2.04c8.24.29,20.68,1.84,28.38.45,7.87-8.43,33.95-100.94,43.58-120.98Z"/>
  <path class="cls-2" d="m417.52,685.25c23.96,8.7,66.73,9.46,93.26,10.18,69.48,1.88,139.05-.65,208.47-3.35l1,3.36c.12.39.25.77.35,1.16.76,3.02,1.73,7.47.14,10.3-4.54,2.47-23.26,2.61-29.62,3.08-73.33,5.56-146.96,6.02-220.36,1.35-10.35-.77-20.69-1.69-31.02-2.77-5.54-.56-11.48-.8-16.91-2.04-2.79-.63-6.02-1.76-7.53-4.4-2.24-3.93.08-9.35,1.25-13.32l.96-3.57Z"/>
  <path class="cls-12" d="m417.52,685.25c23.96,8.7,66.73,9.46,93.26,10.18,69.48,1.88,139.05-.65,208.47-3.35l1,3.36c-.78.56-1.43.78-2.37.87-11.37,1.13-23.02.94-34.44,1.38-55,2.41-110.06,3.14-165.1,2.17-26.75-.73-53.56-1.47-80.08-5.36-6.17-.9-16.93-1.72-21.7-5.69l.96-3.57Z"/>
  <path class="cls-4" d="m522.99,205.4c28.62-11.07,47.93-31.11,63.93-56.59,2.61,4.2,5.72,8.06,8.38,12.23,8.05,8.14,15.4,16,25.01,22.45,6.77,4.54,14.22,8.18,20.88,12.81,8.28,3.54,15.97,8.16,24.37,11.55l.35.14c-2.41,11.61-3.4,23.41-5.04,35.14-1.01,6.1-4.86,29.42-9.84,32.59-.14.09-.29.14-.44.2l-1.63-.68c-3.59,1.49-6.8,3.8-10.2,5.66l-27.01,15.01-3.57,8.74c-6.79,1.65-13.46,3.05-20.46,3.59-13.34,1.02-39.85-.65-51.31-7.66-3.07-1.88-5.75-5.42-8.19-8.08-3.08-2.94-6.35-5.89-9-9.23-3.26-4.12-6.11-8.82-9.68-12.66-3.17-3.42-7.87-5.96-10.58-9.67-1.72-.8-3.43-.26-5.25-.33-2.71-.11-8.08-.17-9.96-2.29-2.19-4.91-.36-14.59.15-20.01,7.54,4.77,13.27,6.18,22.15,5.74,5.46-1.7,9.29-3.83,13.44-7.77,2.27-2.5,4.07-5.4,5.31-8.54,3.07-7.91,1.48-14.83-1.81-22.32Z"/>
  <path class="cls-8" d="m519.49,236.26c.16,1.42-.08,2.8,1.05,3.74,9.71.87,17.54,1.45,24.26,9.46,4.38,5.22,6.32,12.13,5.68,18.88-.59,6.31-3.87,13.19-8.91,17.16-3.88,3.05-10.15,3.83-13.35,6.99-3.08-2.94-6.35-5.89-9-9.23-3.26-4.12-6.11-8.82-9.68-12.66-3.17-3.42-7.87-5.96-10.58-9.67-1.72-.8-3.43-.26-5.25-.33-2.71-.11-8.08-.17-9.96-2.29-2.19-4.91-.36-14.59.15-20.01,7.54,4.77,13.27,6.18,22.15,5.74,5.46-1.7,9.29-3.83,13.44-7.77Z"/>
  <path class="cls-4" d="m483.89,238.29c7.54,4.77,13.27,6.18,22.15,5.74-.17,1.2-.83,1.25-.97,2.35-.4,3.26-3.17,12.4-5.7,14.31-.13.1-.28.15-.42.23-1.72-.8-3.43-.26-5.25-.33-2.71-.11-8.08-.17-9.96-2.29-2.19-4.91-.36-14.59.15-20.01Z"/>
  <path class="cls-8" d="m638.75,280.89c-1.55-5.75-3.29-11.37-2.15-17.36,1.3-7,5.35-13.19,11.24-17.2,3.78-2.54,8.47-4.16,13.01-3.22-1.01,6.1-4.86,29.42-9.84,32.59-.14.09-.29.14-.44.2l-1.63-.68c-3.59,1.49-6.8,3.8-10.2,5.66Z"/>
  <path class="cls-8" d="m595.3,161.04c8.05,8.14,15.4,16,25.01,22.45,6.77,4.54,14.22,8.18,20.88,12.81-2.31-.06-4.33-1.32-6.42-2.22-12.09-5.19-21.37-13.18-30.89-22.16-2.42-2.28-8.46-7.42-8.57-10.88Z"/>
  <path d="m553.79,197.67c1.87-.11,3.67-.21,5.44.49,3.4,1.33,5.87,4.23,7.35,7.49,2.84,6.28,2.94,14.78.49,21.2-1.74,4.55-4.14,7.12-8.49,9.12-1.42.14-2.8.2-4.19-.18-3.27-.9-5.99-3.51-7.61-6.41-3.34-5.99-3.81-14.16-1.88-20.67,1.53-5.16,4.17-8.46,8.89-11.03Z"/>
  <path d="m630.24,196.58c1.72-.08,3.32-.09,4.97.48,3.58,1.24,6.11,4.34,7.62,7.7,2.79,6.22,2.84,14.7.42,21.04-1.74,4.55-4.2,7.22-8.61,9.18-1.32.13-2.56.21-3.86-.13-3.57-.95-6.39-3.74-8.05-6.95-3.11-6-3.55-14.17-1.52-20.58,1.63-5.14,4.27-8.3,9.03-10.74Z"/>
  <path class="cls-11" d="m612.09,255.52c1.2.06,2.1.19,3.26.56,1.04,1.43,1.18,2.68.96,4.43-.59,4.57-3.99,9.14-7.72,11.74-4.21,2.93-9.79,3.94-14.8,2.91-6-1.23-10.06-5.08-13.21-10.07-.88-1.95-1.61-3.6-1.25-5.77.21-1.3.21-1.47,1.26-2.24.23.07.46.12.69.19,2.78.97,3.65,4.76,5.03,7.12,1.75,2.98,5.43,5.18,8.74,5.96,3.37.77,6.92.15,9.83-1.71,5.01-3.14,6.09-7.76,7.21-13.12Z"/>
  <path class="cls-2" d="m450.68,115.81c4.03-.22,7.79.04,11.56,1.56,4.86,1.96,8.51,5.7,10.52,10.52,5.94,14.24-2.2,26.91-7.51,39.57.37,1.25.56,1.2,1.68,1.9,4.55-.65,12.7-22.14,29.86-25.93,5.53-1.22,11.03-.25,15.74,2.9,4.6,3.08,8.59,8.97,9.46,14.46.89,5.62-.81,11.73-4.24,16.25-8.71,11.46-24.6,10.63-37.31,12.66-1,.92-.83,1.14-.95,2.51.8.87,1.04,1.15,2.26,1.38,2.13.41,4.53.11,6.71.24,6.12.34,12.46,1.65,18.08,4.11,6.36,2.79,12.35,7.53,14.78,14.25,1.82,5.04,1.17,10.4-1.12,15.16-2.57,5.34-6.98,9.92-12.72,11.78-13.32,4.32-25.85-6.9-33.05-16.8-1.85-2.54-3.89-7.56-6.6-8.99-1.35.27-1.41.34-2.35,1.36-.09.65-.15.77.02,1.51.34,1.43,1.99,3.7,2.68,5.11,2.44,5.03,4.57,10.28,5.7,15.77,1.47,7.17,1.27,15.42-3.09,21.62-3.64,5.18-8.98,7.38-14.97,8.49-4.6.32-9.44-.56-13.44-2.93-13-7.69-10.9-24.91-6.19-36.81,1.37-3.46,3.97-6.76,5-10.22.37-1.24.27-2.4-.03-3.64l-.86-.49c-3.85,1.33-8.39,10.3-11.14,13.59-2.35,2.83-5,5.4-7.9,7.66-5.25,4.04-11.4,6.37-18.08,5.45-5.74-.79-10.51-3.94-13.9-8.54-3.26-4.42-5.2-10.43-4.17-15.92,2.62-13.97,17.38-19.61,29.88-21.05,3.38-.39,10.18.04,12.75-1.72.18-1.34.3-1.45-.39-2.59-2.54-1.34-5.93-.68-8.75-.89-10.23-.75-22.13-3.86-29.01-12.03-3.48-4.13-5.21-9.29-4.56-14.71.71-5.87,3.88-11.62,8.54-15.24,4.46-3.46,9.89-4.73,15.44-3.96,14.04,1.95,21.89,15.59,29.61,25.89,1.4.39,1.38.39,2.71-.22.33-1.07.51-1.46.14-2.58-.69-2.08-2.24-4.07-3.21-6.06-2.24-4.59-4.02-9.76-5.02-14.78-1.38-6.95-1.17-15.02,3.05-21.03,3.57-5.08,8.48-7.4,14.4-8.57Z"/>
  <path d="m452.43,168.62c5.35,4.13,12.58,16.17,16.29,22.16-3.28,6.66-8.06,14.88-12.63,20.7-1.01,1.28-1.45,1.54-3.05,1.76-4.23-5.18-15.39-16.66-16.83-22.45,1.36-5.36,12.04-18.09,16.22-22.17Z"/>
  <path class="cls-10" d="m452.25,175.28c3.71,2.71,8.63,11.54,11.47,15.63-3.22,5.29-6.29,11.41-10.22,16.16-4.33-5.47-8.68-10.93-13.06-16.36,3.99-5.1,7.88-10.28,11.82-15.43Z"/>
  <path class="cls-3" d="m452.66,420.19c10.59,3.4,21.35,6.59,32.16,9.18,8.03,1.92,16.59,3.21,24.34,6.07,2.71-.1,5.4-.16,8.08-.57l1.32.58c.23,1.67-.63,2.76-1.36,4.23-9.23,26.61-18.67,53.21-29.91,79.06-4.07,9.37-8.29,19.51-13.71,28.18l-2.06,3.7c-2.63,3.93-7.07,11.87-11.92,13.01-11.74,2.75-40.55-17.33-51.19-23.89-4.95-3.06-10.07-5.8-15.07-8.76-5.4-3.2-9.49-5.94-10.99-12.43-1.36-5.88.37-11.13,3.35-16.12l2.48-3.27c7.51-7.92,14.2-17.3,21.11-25.79l43.37-53.18Z"/>
  <path class="cls-3" d="m388.18,499.15c27.93,16.28,54.69,36.86,85.4,47.77l-2.06,3.7c-2.63,3.93-7.07,11.87-11.92,13.01-11.74,2.75-40.55-17.33-51.19-23.89-4.95-3.06-10.07-5.8-15.07-8.76-5.4-3.2-9.49-5.94-10.99-12.43-1.36-5.88.37-11.13,3.35-16.12l2.48-3.27Z"/>
  <path class="cls-12" d="m388.18,499.15c27.93,16.28,54.69,36.86,85.4,47.77l-2.06,3.7c-18.22-4.71-68.8-35.97-85.82-48.2l2.48-3.27Z"/>
  <path class="cls-11" d="m509.16,435.44c2.71-.1,5.4-.16,8.08-.57l1.32.58c.23,1.67-.63,2.76-1.36,4.23l-8.04-4.24Z"/>
  <path class="cls-12" d="m659.42,340.52c8.2,5.74,16.01,12.13,23.91,18.26l44.47,34.54,3.83,3.08c1.89,1.35,5.78,3.54,6.56,5.74.29.82.12,1.54-.29,2.29-4.4,8.04-55.84,26.71-67.06,29.66-9.45,2.48-21.03,5.17-30.64,2.4-19.43-5.61-35.32-43.99-42.21-61.45-1.28-3.23-2.28-8.62-4.06-11.38-.58-.9-1.91-1.53-2.81-2.05l-.58-.32-.16-.91c2.22-2.19,9.46-2.07,12.58-2.35.88-.33,1.85-.29,2.78-.34,17.9-2.01,36.42-3.13,54.12-6.33-.17-3.61-.43-7.24-.44-10.85Z"/>
  <path class="cls-12" d="m602.96,358.04c.88-.33,1.85-.29,2.78-.34,4.56,15.63,21.5,55.95,35.89,64.17,6.84,3.9,17.64.48,24.62-1.64,15.67-4.77,30.67-11.56,45.45-18.56,5.34-2.53,11.27-4.94,16.1-8.33l3.83,3.08c1.89,1.35,5.78,3.54,6.56,5.74.29.82.12,1.54-.29,2.29-4.4,8.04-55.84,26.71-67.06,29.66-9.45,2.48-21.03,5.17-30.64,2.4-19.43-5.61-35.32-43.99-42.21-61.45-1.28-3.23-2.28-8.62-4.06-11.38-.58-.9-1.91-1.53-2.81-2.05l-.58-.32-.16-.91c2.22-2.19,9.46-2.07,12.58-2.35Z"/>
  <path class="cls-3" d="m602.96,358.04c.88-.33,1.85-.29,2.78-.34,4.56,15.63,21.5,55.95,35.89,64.17,6.84,3.9,17.64.48,24.62-1.64,15.67-4.77,30.67-11.56,45.45-18.56,5.34-2.53,11.27-4.94,16.1-8.33l3.83,3.08c-15.04,8.45-31.48,15.78-47.52,22.12-11.36,4.49-31.9,13.13-43.64,7.64-14.32-6.71-26.16-35.38-32.21-49.5-2-4.66-4.54-9.73-5.86-14.62-.39-1.43,0-2.07.7-3.3l-.14-.72Z"/>
  <path class="cls-3" d="m611.05,413.12c1.83,1.79,3.34,5.09,4.78,7.28,3.75,5.74,8.8,11.67,14.33,15.76,10.47,7.75,22.1,5.85,34.13,3.96l5.3,40.06-12.71,16.46c-24.59-3-49.43-4.84-74.08-7.31,9.36-1.31,18.94-1.22,28.25-2.8,2.14-.36,2.54-.95,3.74-2.62l-1.02-1.13c-3.83-1.42-84.74,7.07-94.9,8.57,30.3-26.52,61.46-52.19,92.18-78.24Z"/>
  <path class="cls-11" d="m588.19,438.19c6.03-1.39,12.05,2.36,13.46,8.39,1.41,6.02-2.33,12.05-8.35,13.48-6.05,1.43-12.11-2.32-13.52-8.37-1.41-6.05,2.36-12.1,8.41-13.5Z"/>
  <path class="cls-12" d="m590.04,442.21c2.5-.23,4.92.91,6.34,2.98,1.42,2.06,1.62,4.73.52,6.99-1.1,2.25-3.33,3.74-5.83,3.89-3.79.23-7.06-2.63-7.35-6.41-.29-3.79,2.52-7.1,6.3-7.44Z"/>
  <path class="cls-6" d="m382.99,150.69c.7-.06.32-.13,1.06.45l-1.71,4.77c-2.26,6.42-2.42,12.68.63,18.89,4.61,9.38,13.49,13.57,22.92,16.74-5.88,1.65-10.53,3.9-15.6,7.3-13.87-.86-25.53,1.18-36.79,9.85-13.4,10.32-23.29,28.12-25.4,44.86-1.8,14.26,1.73,29.23,10.73,40.58,5.42,6.83,13.92,13.92,22.87,14.8,1.21.12,1.12.32,1.95,1.12l-.11.21-3.2.89c-13.12,2.29-26.57,2.34-38.19-5.04-12.04-7.64-18.82-21.36-21.8-34.92-5.43-24.76,1.58-54.58,15.27-75.78,15.22-23.57,40.28-38.9,67.36-44.73Z"/>
  <path class="cls-4" d="m530.93,718.38c19.49.39,38.98.46,58.48.2l12.68,111.2c-3.23-3.31-6.69-5.84-10.68-8.17-7.44-3.27-14.93-4.58-22.99-2.95-10.84,2.21-18.05,8.83-23.93,17.84-4.09-39.4-9.05-78.76-13.56-118.12Z"/>
  <path class="cls-12" d="m467.17,333.89c5.39,8.15,14.02,11.98,22.89,15.19-.07,6.48.56,13.64,4.68,18.94,3.4,4.38,8.02,5.82,13.29,6.46.2,1.43.23,3.12,1.47,4.07.96.73,2.58,1.19,3.71,1.62-5.09,5.34-6.49,17.25-7.22,24.22.04,3.68-.07,7.44.22,11.11.71,5.12,1.98,10,3.51,14.93-9.09-1.66-18.11-3.67-27.04-6.02-11.5-3.02-72.48-20.79-78.7-26.44-.83-.76-1.29-1.84-1.28-2.95.02-2.64,2.66-4.6,4.41-6.28l4.18-3.64c18.15-17.5,37.35-34.11,55.88-51.22Z"/>
  <path class="cls-12" d="m407.11,388.75c11.4,2.37,22.81,6.48,34.02,9.75,21.48,6.25,43.2,12.3,65.07,17.01.71,5.12,1.98,10,3.51,14.93-9.09-1.66-18.11-3.67-27.04-6.02-11.5-3.02-72.48-20.79-78.7-26.44-.83-.76-1.29-1.84-1.28-2.95.02-2.64,2.66-4.6,4.41-6.28Z"/>
  <path class="cls-3" d="m407.11,388.75l4.18-3.64c30.75,10.13,62.61,18.59,94.16,25.87.12-2.17.09-4.46.53-6.59.04,3.68-.07,7.44.22,11.11-21.87-4.71-43.6-10.76-65.07-17.01-11.21-3.26-22.62-7.37-34.02-9.75Z"/>
  <path class="cls-3" d="m668.51,439.06l9.33-2.38c6.58,9.04,12.64,18.58,18.9,27.85l36.58,54.09,1.92,3.04c2.33,4.82,3.92,9.82,2.12,15.17-1.77,5.27-6.29,8.64-11.14,10.87-4.68,2.15-9.57,3.82-14.28,5.93-9.81,4.4-19.43,9.25-29.3,13.52-1.74-5.39-3.76-10.81-5.24-16.27l-1.19-2.92c-4.73-16.38-10.57-32.56-15.88-48.78,4.63-5.85,9.2-11.74,13.72-17.67l-5.53-42.44Z"/>
  <path class="cls-3" d="m733.32,518.62l1.92,3.04c2.33,4.82,3.92,9.82,2.12,15.17-1.77,5.27-6.29,8.64-11.14,10.87-4.68,2.15-9.57,3.82-14.28,5.93-9.81,4.4-19.43,9.25-29.3,13.52-1.74-5.39-3.76-10.81-5.24-16.27l-1.19-2.92c.6-.94,1.11-1.39,2.08-1.91,6.27-3.38,13-6.14,19.41-9.3,11.92-5.95,23.8-11.99,35.63-18.11Z"/>
  <path class="cls-12" d="m733.32,518.62l1.92,3.04c-4.61,4.8-48.75,25.46-57.84,29.22l-1.19-2.92c.6-.94,1.11-1.39,2.08-1.91,6.27-3.38,13-6.14,19.41-9.3,11.92-5.95,23.8-11.99,35.63-18.11Z"/>
  <path class="cls-12" d="m570.3,823.35c6.74-.66,12.91-.24,19.03,2.9,7.4,3.8,12.72,10.44,15.14,18.36,2.7,8.83,2.52,18.99-1.95,27.22-4.56,8.37-11.64,12.66-20.58,15.22-7.23,1.16-14.63.11-20.98-3.64-7.14-4.21-11.97-11.02-14.03-19-2.33-8.99-1.85-18.83,2.98-26.94,4.68-7.84,11.72-11.97,20.4-14.12Z"/>
  <path class="cls-12" d="m615.08,299.01l32.52-18.07c1.78,19.87,4.83,39.71,6.98,59.56-2.57,2.51-6.86,4.33-7.64,7.84-5.01,2.22-33.65,4.24-41.22,5.04l-4.89.56-7.79.88c6.68-18.78,14.71-37.27,22.05-55.82Z"/>
  <path class="cls-3" d="m600.83,353.95c6.94-15.02,13.35-30.36,20.01-45.51,1.45-3.29,3.29-9.61,5.48-12.28.93-1.14,1.36-.96,2.73-.97l.77.84c.15,1.59-.08,2.71-.61,4.23-1.88,5.36-4.83,10.71-7.13,15.94l-16.36,37.2-4.89.56Z"/>
  <path class="cls-6" d="m599.66,391.3c2.02,1.65,7.56,14.58,9.26,17.91-34.4,30.18-69.88,59.4-104.88,88.91l-5.92,4.91c3.23-8.07,10.98-31.87,14.92-37.52,3.9-5.59,19.49-17.31,25.77-22.62l60.84-51.59Z"/>
  <path class="cls-2" d="m508.03,374.48c9.29-.39,16.65-2.27,23.68-8.6,1.72.88,2.52,1.44,3.54,3.1.26,1.34.29,2.31-.52,3.49-.83,1.2-2.18,1.94-3.43,2.6l.56.44c-1.26,5.46,1.37,11.65,4.25,16.25,4.72,7.53,10.93,12.17,19.64,14.12,3.44.77,7.13,1.17,10.66,1.27.3,3.9.69,7.25-1.99,10.48-3.78,4.56-12.23,6.08-17.37,9.36-4.72,2.78-9.47,4.55-14.96,5.03-6.04,1.51-10.81.45-16.71-.92-4.52-10.63-6.03-24-2.98-35.19,1.15-4.21,3.18-8.38,4.1-12.6.33-1.51,0-2.03-.76-3.32l-2.51.19c-1.13-.43-2.75-.89-3.71-1.62-1.24-.95-1.27-2.64-1.47-4.07Z"/>
  <path class="cls-7" d="m508.03,374.48c9.29-.39,16.65-2.27,23.68-8.6,1.72.88,2.52,1.44,3.54,3.1.26,1.34.29,2.31-.52,3.49-.83,1.2-2.18,1.94-3.43,2.6-4.01,2.02-14.83,4.44-15.57,4.91l-2.51.19c-1.13-.43-2.75-.89-3.71-1.62-1.24-.95-1.27-2.64-1.47-4.07Z"/>
  <path d="m535.28,427.14c-2.52-1.02-4.87-2.81-6.49-4.99-1.54-2.07-2.52-4.56-2.05-7.14.98-1.07,1.09-1.03,2.54-1.29,2.42,1.6,3.24,4.76,5.03,6.97,2.1,2.59,6.35,1.75,9.34,2.15,1.39,1.17,1.4,1.82,1.93,3.52l1.47.62c-4.72,2.78-9.47,4.55-14.96,5.03.52-2.12,1.77-3.32,3.2-4.88Z"/>
  <path class="cls-12" d="m545.57,426.37l1.47.62c-4.72,2.78-9.47,4.55-14.96,5.03.52-2.12,1.77-3.32,3.2-4.88,3.73,1.01,6.79.87,10.29-.78Z"/>
  <path d="m543.1,410.12c1.28-.02,2.25.03,3.43.54,3.12,1.33,7.34,1.69,9.91,4.01.44,1.63.07,1.89-.62,3.38-1.02.15-1.98.22-3.01.16-3.1-.17-7.01-1.31-8.98-3.84-1.16-1.48-.97-2.54-.72-4.25Z"/>
  <path class="cls-2" d="m449.13,271.29c.48.03.96.05,1.44.08,9.3.45,15-1.73,21.89-7.93,1.4-1.26,2.29-1.99,4.23-1.89.76.71.89,1.25,1.06,2.23.87,4.86.93,10.03,1.42,14.95.58,5.88,1.69,11.62,2.91,17.39.88,2.98,1.66,6.05,2.68,8.99.9,2.51,1.75,5.07,2.75,7.54l3.21,6.79c3.1,5.58,6.61,10.69,10.56,15.71l.26.2c.47,2.2,1.01,4.35-.35,6.36-1.34,1.99-4.02,2.73-6.17,3.46l-4.42-1.54c-2.76-.71-5.51-1.92-8.06-3.19-5.15-2.57-10.29-6.48-12.05-12.22-1.69-5.49.18-10.27,2.64-15.11,1.02.13,2.04.24,3.05.35,3.14.36,5.33.07,7.91-1.87-.2-.46-.27-1.01-.61-1.38-1.41-1.52-16.86-3.53-19.64-4.26-3.46-.91-6.89-2.11-10.06-3.77-4.13-2.16-7.98-5.2-9.3-9.88-2.05-7.24,1.34-14.76,4.66-21.03Z"/>
  <path class="cls-4" d="m484.75,305.11c-1.23.59-2.52,1.26-3.89,1.41-7.48.84-18.09-3.22-23.95-7.75-4.06-3.13-6.96-7.47-7.45-12.67-.35-3.73.52-9.18,3.16-12.02,1.52-1.63,3.61-2.14,5.79-2.06,1.53.06,2.39.39,3.48,1.5,1.36,3.18-.51,6.41-1.32,9.52-.41,1.56-.7,2.83.24,4.24,4.12,6.2,14.49,7.54,21.25,8.85.88,2.98,1.66,6.05,2.68,8.99Z"/>
  <path class="cls-4" d="m487.51,312.65l3.21,6.79c3.1,5.58,6.61,10.69,10.56,15.71l.26.2c.47,2.2,1.01,4.35-.35,6.36-1.34,1.99-4.02,2.73-6.17,3.46l-4.42-1.54c-3.48-4.63-9.73-5.86-11.93-12.39-1.42-4.22-.2-9.51,1.83-13.39,1.63-3.12,3.74-4.26,7.02-5.21Z"/>
  <path class="cls-2" d="m490.71,319.44c3.1,5.58,6.61,10.69,10.56,15.71-2.44-.61-4.88-1.57-7.24-2.46-2.28-.85-4.17-1.91-5.12-4.26-1.3-3.23.49-6.08,1.8-9Z"/>
  <path class="cls-12" d="m531.71,365.88c.48-.56.95-1.1,1.35-1.72,2.78-4.3,2.1-8.92,1.19-13.64,11.61,1.87,23.21,3.8,34.8,5.79l4.41.6c4.45.78,8.92,1.48,13.35,2.36-4.86,16.02-10.95,30.5-19.02,45.15-.74-.59-.84-.75-1.23-1.56-3.7-1.59-7.92-1.25-11.77-2.32l-4.35-1.42c-6.46-3.36-10.13-10.1-12.72-16.61-.7-1.78-1.36-4.29-2.43-5.82-.82-1.16-2.13-.98-3.44-1.17l-.56-.44c1.25-.66,2.61-1.4,3.43-2.6.81-1.17.78-2.15.52-3.49-1.02-1.66-1.82-2.22-3.54-3.1Z"/>
  <path class="cls-12" d="m569.05,356.3l4.41.6c4.45.78,8.92,1.48,13.35,2.36-4.86,16.02-10.95,30.5-19.02,45.15-.74-.59-.84-.75-1.23-1.56-3.7-1.59-7.92-1.25-11.77-2.32l-4.35-1.42c6.51-7.51,15.19-32.76,18.61-42.8Z"/>
  <path class="cls-3" d="m569.05,356.3l4.41.6c-5.38,14.87-10.79,29.85-18.66,43.63l-4.35-1.42c6.51-7.51,15.19-32.76,18.61-42.8Z"/>
  <path class="cls-12" d="m525.44,762.49l5.47-.18c2.78,20.07,4.81,40.37,6.92,60.53-8.93,2.68-16.09,2.44-24.7-1.09-.79-.41-1.55-.86-2.3-1.34-7.06-4.48-12.06-11.36-13.7-19.6-1.59-7.99.1-16.29,4.7-23.02,5.6-8.35,13.87-13.36,23.6-15.3Z"/>
  <path class="cls-2" d="m487.54,261.44c.17,0,.35-.04.52-.03,5.55.18,12.69,7.9,16.52,11.64,4.71,4.6,9.79,11.53,9.65,18.42-.13,6.24-4.55,11.4-9.57,14.63-1.66,1.07-3.84,2.07-5.21,3.48-.93.95-.78,1.24-.71,2.48.53.71.7,1.34,1.63,1.51,3.65.65,9.42-4.88,12.2-7.09,5.86,4.31,9.64,8.73,11.53,15.82.36,8.02-2.88,13.4-7.3,19.78-1.77-1.34-3.5-2.74-5.2-4.17-20.11-17.09-26.66-44.14-28.46-69.37-.14-1.91-.52-3.56.76-5.07,1.54-.32,2.2-.62,3.34-1.72.1-.1.2-.2.31-.31Z"/>
  <path class="cls-12" d="m519.82,290.39l38.06,38.33c8.35,8.36,17.3,16.54,25.02,25.48-4.6-.77-9.61-1.26-14.12-2.38-3.32-.45-6.64-.87-9.91-1.63-8.9-1.34-17.79-2.8-26.66-4.36-1.81-3.02-4.02-5.83-6.09-8.67,2.73-6.3,3.48-11.36,2.42-18.17-2.6-7-6.73-11.33-12.26-16.26-.1-1.3.35-1.57,1.02-2.62,1.24-3.2,1.9-6.34,2.52-9.71Z"/>
  <path class="cls-12" d="m528.53,318.97l.88-.21c10.38,9.9,20.36,20.34,30.36,30.64-.66.7-.32.49-.91.78-8.9-1.34-17.79-2.8-26.66-4.36-1.81-3.02-4.02-5.83-6.09-8.67,2.73-6.3,3.48-11.36,2.42-18.17Z"/>
  <path class="cls-3" d="m528.53,318.97c-2.6-7-6.73-11.33-12.26-16.26-.1-1.3.35-1.57,1.02-2.62,7.58,8.61,16.1,16.54,24.2,24.67,9.02,9.04,17.87,18.41,27.27,27.04-3.32-.45-6.64-.87-9.91-1.63.58-.29.25-.07.91-.78-9.99-10.29-19.98-20.74-30.36-30.64l-.88.21Z"/>
  <path class="cls-1" d="m544.56,309.3c5.11.5,10.29,2.03,15.4,2.83,13.44,2.1,26.28,1.56,39.73-.15.21,3.55.58,6.92,1.41,10.38l-2.32,6.07c-.43,1.21-.8,2.67-1.73,3.6-1.48,1.48-24.43,1.07-28.24,1.12-8.41-7.56-15.99-16.09-24.25-23.84Z"/>
  <path class="cls-4" d="m611.85,718.32c4.36-.37,8.79-.31,13.17-.4-3.68,17.1-10.23,28-21.12,41.45l-4.17,4.71c-2.37-15-3.61-30.45-5.28-45.54l17.41-.22Z"/>
  <path class="cls-2" d="m501.53,335.36c5.36,5.21,13.57,14.45,21.38,15.16l.87-.6c.12-2.66-2.67-5.7-.61-7.64,3.37,2.8,6.45,9.05,6.84,13.38.23,2.56-.43,4.91-2.08,6.89-3.64,4.37-10.4,5.67-15.7,6.66-2.04.16-4.15.02-6.19-.02-1.91-.58-3.75-1.14-5.34-2.42-4.97-3.98-5.2-10.52-5.72-16.34,2.14.54,4.62,1.35,6.81,1.41,1.42.04,2.66-.29,3.76-1.2l.03-1.04c-2.71-3.37-6.56-3.61-10.55-4.44,2.15-.73,4.83-1.47,6.17-3.46,1.35-2.01.81-4.15.35-6.36Z"/>
  <path class="cls-4" d="m506.02,369.19c-3.61-3.9-6.82-7.46-6.74-13.13.02-1.68.43-2.63,1.6-3.81,1.59-.37,3.05.05,4.43.9,2.4,1.49,1.41,3.51,2.77,5.31,1.72,2.28,4.69,2.45,6.14,5.04-.11,2.21-.95,3.81-2.01,5.72-2.04.16-4.15.02-6.19-.02Z"/>
  <path class="cls-3" d="m589.42,365.25c2.52,3.04,6.91,17.07,8.69,21.69l-25.18,21.36-6.32,5.26c10.63-14.37,17.47-31.37,22.82-48.31Z"/>
  <path class="cls-2" d="m418.46,347.74c7.21.55,11.75,4.87,16.65,9.66l-11.73,10.7c-.3.3-.74.75-1.1.96-1.44.82-2.94.33-4.34-.32-3.79-1.77-6.98-5.14-8.22-9.18-.7-2.29-.6-4.83.63-6.93,1.81-3.07,4.82-4.17,8.11-4.89Z"/>
  <path class="cls-9" d="m447.56,304.51c2.91,1.72,5.74,3.25,8.88,4.53-4.62,5.63-8.15,11.52-11.62,17.88-1.19.58-2.38,1.2-3.47,1.95-5.8,4-6.58,11.18-7.84,17.53l-.64,2.1c-1.69.26-3.93-1.91-5.32-2.92,4.33-14.87,9.52-29.3,20.01-41.06Z"/>
  <path class="cls-4" d="m673.04,226.81c1.05.26,1.46.51,2.28,1.19,2.87,2.38,4.13,5.47,4.42,9.13.54,6.88-1.35,14.09-5.81,19.38-.8.63-.66.66-1.77.76-1.82-8.7-2.33-18.07-3.59-26.9l4.48-3.56Z"/>
  <path class="cls-2" d="m445.79,331.14c1.64-.19,3.33-.34,4.98-.08,3.33.54,5.19,2.91,7.06,5.44-4.1,4.08-8.53,7.9-12.8,11.82l-4.92,4.68c-.99-4.21-1.85-8.89-.89-13.18.91-4.06,3.12-6.53,6.58-8.68Z"/>
  <path class="cls-3" d="m571.05,336.01c8.24.06,16.48.06,24.72,0l-5.28,13.19-1.82,4.4c-5.78-5.96-11.65-11.82-17.62-17.59Z"/>
  <path class="cls-3" d="m540.62,434.74l.68.16c-7.66,7.53-16.61,14.31-24.83,21.26l-.67-.22c2.15-6.62,4.49-13.18,7-19.67,6.16.03,11.81-.01,17.83-1.53Z"/>
  <path class="cls-3" d="m383.47,308.8c3.56,1.07,7.1,2.18,10.63,3.34,1.05,3.54,1.73,7.26,2.54,10.86l-11.4-3.39c-.71-3.58-1.31-7.19-1.77-10.82Z"/>
  <path class="cls-9" d="m440.1,295.61l3.65,5.37c-5.51,4.16-10.33,8.73-15.13,13.67-.59.67-.73.77-1.5,1.11-.13-.51-.2-.64-.17-1.24.37-7.14,8.29-14.51,13.14-18.91Z"/>
  <path class="cls-6" d="m438.63,266.92c1.67,1.06,3.43,1.99,5.15,2.95-2.15,4.65-3.55,8.9-4.4,13.99-.34,2.05-.2,6.25-1.4,7.93-.41.57-1.48,1.24-2.05,1.71l-3.11,2.42c3.24-9.5,4.71-19.08,5.81-29.01Z"/>
  <path class="cls-9" d="m459.95,311.54c.48,4.01.16,8.41.31,12.48-3.27.77-6.51,1.78-9.78,2.58-.26-3.06,7.39-12.51,9.47-15.06Z"/>
  <path class="cls-9" d="m433.91,315.55c-.02,1.89-7.25,18.07-8.52,21.6-.49-3.84-.28-7.66-.08-11.51,2.51-3.67,5.52-6.9,8.6-10.09Z"/>
  <path class="cls-4" d="m665.29,246.24c1.57,2.4,1.91,9.3,1.69,12.29-.13,1.74-.6,1.84-1.81,2.92l-1.58-.42c-1.52-2.89,1.32-11.23,1.7-14.79Z"/>
  <path d="m478.14,234.32l.96.7c1.34,2.39-.32,18.72-.95,22.15-.11-.08-.23-.14-.32-.24,0,0-.65-.85-.66-.89-.26-1.47,1.09-17.41.97-21.72Z"/>
</svg>