<?xml version="1.0" encoding="UTF-8"?>
<svg id="_图层_1" data-name="图层 1" xmlns="http://www.w3.org/2000/svg" xmlns:xlink="http://www.w3.org/1999/xlink" viewBox="0 0 256 256">
  <defs>
    <style>
      .cls-1 {
        fill: #ffa301;
      }

      .cls-2 {
        fill: #ffef76;
      }

      .cls-3 {
        fill: #fff86b;
      }

      .cls-4 {
        fill: #ffdb03;
      }

      .cls-5 {
        fill: #ffdc04;
      }

      .cls-6 {
        fill: #ffeb6c;
      }

      .cls-7 {
        fill: #ffca16;
      }

      .cls-8 {
        fill: #fefa97;
      }

      .cls-9 {
        fill: #ffcb68;
      }

      .cls-10 {
        fill: #fedc69;
      }

      .cls-11 {
        fill: #ffb62f;
      }

      .cls-12 {
        fill: #fef7c2;
      }

      .cls-13 {
        fill: #feee92;
      }

      .cls-14 {
        fill: #ff9803;
      }

      .cls-15 {
        fill: #fdde79;
      }

      .cls-16 {
        fill: #99321b;
      }

      .cls-17 {
        fill: url(#_未命名的渐变_42);
      }

      .cls-18 {
        fill: url(#_未命名的渐变_43);
      }
    </style>
    <linearGradient id="_未命名的渐变_42" data-name="未命名的渐变 42" x1="3838.5" y1="1738.79" x2="4296.32" y2="2471.94" gradientTransform="translate(-903 645) scale(.25 -.25)" gradientUnits="userSpaceOnUse">
      <stop offset="0" stop-color="#ff8001"/>
      <stop offset="1" stop-color="#ffc201"/>
    </linearGradient>
    <linearGradient id="_未命名的渐变_43" data-name="未命名的渐变 43" x1="3875.37" y1="1772.16" x2="4315.08" y2="2416.43" gradientTransform="translate(-903 645) scale(.25 -.25)" gradientUnits="userSpaceOnUse">
      <stop offset="0" stop-color="#ff8600"/>
      <stop offset="1" stop-color="#fff902"/>
    </linearGradient>
  </defs>
  <path class="cls-16" d="m43.75,18.74c10.5.88,21.43.32,31.96.33l63-.09c11.42-.02,27.09-1.94,37.84,1.6,8.63,2.84,19.88,12.86,26.43,19.16,7.14,6.86,8.49,13.25,8.64,22.81.2,13.04,2.22,41.47-2.58,52.43-2.31,5.27-6.13,8.97-10.06,13.04,4.33,3.31,8.34,7.36,10.43,12.47,3.96,9.72,3.05,52.98,1.58,64.52-.41,3.18-1.28,5.94-2.45,8.92-2.4,2.96-4.82,5.86-7.58,8.49-3.52,3.34-6.29,4.75-11.02,5.65-15.52,2.96-33.64,1.22-49.51,1.23-27.27.02-54.63.53-81.88-.2l-.12-11.66-14.58.18c.59-66.19,1.11-132.68-.11-198.87Z"/>
  <path class="cls-16" d="m50.13,25.55c8.84-1.89,17.94-1.67,26.89-2.08,17.57-.82,35.21-.57,52.8-.5,10.17.04,21-.88,31.09.35,3.32.4,5.72,1.3,8.53,3.06-27.75-.91-55.68-.25-83.45-.22-11.32.01-24.86,1.5-35.86-.6Z"/>
  <path class="cls-17" d="m50.13,25.55c11,2.1,24.54.61,35.86.6,27.77-.03,55.7-.69,83.45.22.87.51.46.34,1.42.62,5.22,1.54,10.2,3.85,13.59,8.28,1.62,2.13,2.9,4.38,3.52,7,2.16,9.28,1.92,44.52.38,54.15-2.1,13.09-14.26,12.6-22.93,18.79.28.56.37,1.27.84,1.68,3.38,2.89,11.34,4.01,17.01,9.27,5,4.64,5.43,9.85,5.67,16.4.36,9.78,1.51,42.44-.6,50.41-1.13,4.28-4.21,8.47-7.26,11.57-3.13,3.19-5.89,3.9-10.22,4.57-13.44,2.07-28.48.79-42.13.79l-79.13-.07c.79-15.76.19-31.83.21-47.63l.08-88.89c-.03-15.82-.92-32.01.26-47.77Z"/>
  <path class="cls-2" d="m56.61,37.62c-.33-1.63-.56-2.58,0-4.17,2.43-1.34,5.34-.65,8.09-.48l-1.28,1.47c-2.23,1.11-4.46,2.36-6.82,3.19Z"/>
  <path class="cls-9" d="m57.25,108.8c-.13-.22-.25-.45-.38-.67-1.35-2.31-1.19-3.7-.96-6.35.26-2.9.24-5.39,1.52-8.05l.51,4.83c.03,4.13,4.06,4.86.6,9.02-.38.45-.85.83-1.29,1.21Z"/>
  <path class="cls-10" d="m182.87,170.39c-.03,3.59-.03,7.17,0,10.76l-3.97-.11c.42-3.53.27-6.83.04-10.35l3.93-.3Z"/>
  <path class="cls-7" d="m178.7,159.59l4.18,1.38v9.42s-3.94.3-3.94.3c.52-3.61.02-7.48-.24-11.1Z"/>
  <path class="cls-13" d="m107.05,32.97c2.16-.16,4.63-.13,6.74-.55l3.35.61c-.28,1.19-.5,2.43-.89,3.59l-2.74.12-3.6,2.12-3.85-4.98,1-.91Z"/>
  <path class="cls-8" d="m113.79,32.43l3.35.61c-.28,1.19-.5,2.43-.89,3.59l-2.74.12c-.2-1.59.05-2.73.29-4.31Z"/>
  <path class="cls-8" d="m127.06,32.47c4.18.22,8.35.46,12.54.37-1.55,3.46-4.39,3.76-6.8,6.3-1.52-1.94-3.01-2.8-5.12-3.95l-.62-2.72Z"/>
  <path class="cls-10" d="m179.47,147.09l3.29-.56.12,14.45-4.18-1.38c.68-4.13.43-8.33.77-12.51Z"/>
  <path class="cls-10" d="m160.61,126.11c3.58-1.18,7.07-1.03,10.79-1.04,4.75,2.62,8.48,4.95,10.25,10.44,1.06,3.3,1.25,7.56,1.11,11.01l-3.29.56c-1.24-4.18-.46-9.07-1.77-13.42-2.13-7.08-11.92-3.88-16.26-6.92-.29-.2-.56-.43-.83-.64Z"/>
  <path class="cls-13" d="m56.72,38.76c2.32,1.45,4.66,2.87,6.87,4.49,1.27,1.67,2.42,3.25,3.4,5.12l-2.89,2.73-.24.65c-2.28,2.23-4.52,5.63-7.21,7.21,0-.35-.02-.7,0-1.04.4-6.51.37-12.62.06-19.15Z"/>
  <path class="cls-6" d="m63.6,43.24c1.27,1.67,2.42,3.25,3.4,5.12l-2.89,2.73-2.1-2.13c-.5-2.61.39-3.4,1.59-5.72Z"/>
  <path class="cls-9" d="m178.9,181.05l3.97.11c-.01,8.21-1.13,12.93-6.07,19.68-4.46,1.74-10.96,4.68-15.8,3.28,3-6,11.6-3.49,15.83-8.41,3.18-3.7,2.26-10.16,2.07-14.66Z"/>
  <path class="cls-14" d="m55.98,184.95c2.14.49,2.46.28,3.69,2.04.12,4.56-1.77,10.56,1.69,13.95,4.11.49,10.57-1.02,13.15,2.16l-2.08.89c-3.85-.82-6.02.74-9.64.86-1.91.06-3.71-.47-5.06-1.88-3.29-3.44-2.37-7.91-2.42-12.18-.02-2.16.07-3.77.67-5.85Z"/>
  <path class="cls-13" d="m64.71,32.96c5.26-.74,12.2-.64,17.48.05l1.03,1.08c-3.4,1.8-5.57,3-7.84,6.15l-.44,1.62c-1.21.49-3.11,1.16-4.4,1.18-2.37.02-2.97-.81-4.61-2.29-.69-2.14-1.65-4.23-2.5-6.32l1.28-1.47Z"/>
  <path class="cls-2" d="m65.92,40.75c1.94-2.15,2.54-3.08,5.32-4.06,2.1.8,2.97,1.54,4.13,3.56l-.44,1.62c-1.21.49-3.11,1.16-4.4,1.18-2.37.02-2.97-.81-4.61-2.29Z"/>
  <path class="cls-4" d="m56.61,37.62c2.35-.83,4.59-2.07,6.82-3.19.85,2.08,1.81,4.18,2.5,6.32,1.65,1.48,2.24,2.32,4.61,2.29,1.28-.01,3.19-.69,4.4-1.18l.83,2.33c-.83,2.79-1.04,4.17.14,6.96l-2.97,2.39-2.16-1.5c-1.32-.57-2.3-1.2-3.48-2l-.3-1.68c-.98-1.87-2.13-3.45-3.4-5.12-2.21-1.62-4.55-3.04-6.87-4.49l-.12-1.14Z"/>
  <path class="cls-18" d="m139.6,32.84c10.38-.22,24.15-1.7,34.12.8,1.91,1.85,3.95,3.66,5.76,5.61,1.33,1.99,2.04,3.77,2.32,6.17,1.05,9.14,1.41,42.74-.25,50.72-.87,4.17-5.34,7.99-8.37,10.73-4.83.01-9.66.1-14.49-.07-.5,5.24-.86,13.51.21,18.6l1.71.72c.28.21.55.44.83.64,4.33,3.04,14.13-.16,16.26,6.92,1.31,4.35.53,9.24,1.77,13.42-.33,4.18-.09,8.38-.77,12.51.25,3.62.76,7.5.24,11.1.23,3.52.38,6.82-.04,10.35.19,4.5,1.11,10.96-2.07,14.66-4.23,4.92-12.83,2.41-15.83,8.41l-.45-.65-1.2.13c-5.87.69-11.83-.19-17.74-.19-6.57,0-13.05.77-19.63.4-2.1-.12-2.67-1.83-4.91-1.76l-.78,1.24c-3.59,1.46-37.25.79-41.8-.19-2.59-3.18-9.04-1.67-13.15-2.16-3.46-3.4-1.57-9.4-1.69-13.95-1.23-1.77-1.55-1.55-3.69-2.04l.53-.34c-.74-1.34-.84-2-.76-3.52l1.93-1.72c-2.87-3.68-1.92-5.99-1.5-10.25-1.06-2.35-.73-3.63-.18-6.02.15-.43.29-.87.45-1.3,2.61-7.28-2.06-33.84.56-42.08-.28-4.45,1.46-5.09-.52-10.17l.76-.75c.45-.38.92-.76,1.29-1.21,3.46-4.17-.57-4.89-.6-9.02l-.51-4.83c-.32-2.57-.38-4.92-.2-7.51-.07-.04-.17-.05-.22-.11-1.73-1.82-.51-5.93-.37-8.48,1.14-5.03,1.27-11.93-.13-16.9l.16-1.77c2.69-1.58,4.93-4.98,7.21-7.21l.24-.65,2.89-2.73.3,1.68c1.18.8,2.16,1.43,3.48,2l2.16,1.5,2.97-2.39c-1.18-2.79-.97-4.17-.14-6.96l-.83-2.33.44-1.62c2.27-3.14,4.45-4.35,7.84-6.15l-1.03-1.08c7.99-.76,16.86-.7,24.87-.04l-1,.91,3.85,4.98,3.6-2.12,2.74-.12c.39-1.16.61-2.4.89-3.59,3.27-.18,6.68-.16,9.92-.57l.62,2.72c2.11,1.15,3.6,2.01,5.12,3.95,2.4-2.54,5.25-2.84,6.8-6.3Z"/>
  <path class="cls-9" d="m60.42,179.4c0,1.09.33,2.28-.42,3.15-.97,1.11-2.16,1.48-3.48,2.05-.74-1.34-.84-2-.76-3.52l1.93-1.72,2.73.05Z"/>
  <path class="cls-3" d="m167.11,89.66l3.04.55c1.48,1.74,1.04,2.58.97,4.81-1.34-.2-2.6-.5-3.91-.83-.98-1.91-.49-2.52-.1-4.53Z"/>
  <path class="cls-11" d="m56,163.1c2.05,1.37,3.01,1.61,3.89,3.97l-.62,2.42-3.08-.37c-1.06-2.35-.73-3.63-.18-6.02Z"/>
  <path class="cls-15" d="m80.06,132.32c1.65.35,2.38.92,3.65,2.01.27,2.19-.33,2.87-1.26,4.83-1.22-.33-1.65-.7-2.63-1.47-.81-2.24-.42-3.18.24-5.36Z"/>
  <path class="cls-6" d="m144.61,111.05c1.42.07,2.77.27,4.17.48,1.36,1.73,1.05,2.57,1.09,4.73-1.38-.09-2.76-.29-4.13-.45-1.52-1.72-1.13-2.52-1.14-4.76Z"/>
  <path class="cls-15" d="m89.95,121.58c1.21.16,2.36.47,3.53.76,1.38,1.94,1.01,3,.97,5.34-1.45-.04-2.48-.31-3.84-.8-1.08-2.05-.79-3.02-.66-5.3Z"/>
  <path class="cls-9" d="m98.73,153.07l3.41-.52.7,6.24-4.18,2.47c-.25-2.69,0-5.49.07-8.19Z"/>
  <path class="cls-15" d="m101.06,110.15c2.18.17,3.28.27,5.18,1.48.82,2.37.45,3-.13,5.38-2.16.12-2.51.11-4.42-.88-1.12-2.04-.81-3.76-.62-5.98Z"/>
  <path class="cls-11" d="m56.18,169.11l3.08.37c-.45,3.33.59,6.64,1.15,9.92l-2.73-.05c-2.87-3.68-1.92-5.99-1.5-10.25Z"/>
  <path class="cls-6" d="m156.63,76.79c1.88.59,2.97,1.29,4.53,2.43.61,2.51.08,2.89-.98,5.17-.57.07-1.36.21-1.92.12-1.87-.29-2.2-.95-3.13-2.4-.12-2.35.44-3.32,1.49-5.33Z"/>
  <path class="cls-13" d="m56.49,109.55c2.64.4,3.16.3,5.19,2.17.47,1.97.75,2.7-.23,4.62-.87,1.71-2.68,2.88-4.44,3.37-.28-4.45,1.46-5.09-.52-10.17Z"/>
  <path class="cls-15" d="m79.1,110.12c2.36.24,4.38.21,6.16,1.97.22,2.51-.2,2.94-1.33,5.1-.18.03-.36.06-.55.07-2.27.14-2.39.11-4.13-1.25-.79-2.22-.54-3.66-.15-5.9Z"/>
  <path class="cls-10" d="m91.57,98.07c2.15,1.11,3.16,1.94,4.08,4.2-.49,2.66-1.16,3.22-2.86,5.25-2.34-1.05-2.68-1.58-3.63-3.89.38-2.51.89-3.52,2.41-5.57Z"/>
  <path class="cls-2" d="m157.42,54.66c2.02,1.01,3.12,1.55,4.49,3.42.09,2.5-.43,2.87-1.75,4.92-.59,0-1.3.05-1.87-.12-2-.59-2.32-1.29-3.23-2.98.21-2.59.77-3.32,2.35-5.24Z"/>
  <path class="cls-2" d="m113.5,36.74l2.74-.12,2.79,2.61c-.88,1.59-1.17,2.72-3.04,3.31-1.22.39-3.44.1-4.72.05l-1.38-3.74,3.6-2.12Z"/>
  <path class="cls-15" d="m68.03,97.9c2.51.75,3.21.81,5.03,2.79.48,2.58-.11,4.12-.97,6.5-2.39-.56-2.84-.55-4.5-2.3-.72-2.6-.19-4.41.44-6.99Z"/>
  <path class="cls-13" d="m117.14,33.04c3.27-.18,6.68-.16,9.92-.57l.62,2.72c-3.28.31-5.64.39-7.92,3.09-.26.31-.49.64-.73.96l-2.79-2.61c.39-1.16.61-2.4.89-3.59Z"/>
  <path class="cls-12" d="m138.37,70.12c2.11,1.89,1.64,2.81,1.8,5.59.18,3.12.92,10.1-1.18,12.57l-1.19.22c-1.39-5.02.74-10.59-.12-15.66-.26-1.51-.02-1.43.7-2.71Z"/>
  <path class="cls-15" d="m57.23,86.22c2.47,1.13,4.72,1.92,6.41,4.12.19,1.97.18,2.88-1.26,4.39-1.32,1.38-2.95,2.61-4.43,3.83l-.51-4.83c-.32-2.57-.38-4.92-.2-7.51Z"/>
  <path class="cls-3" d="m144.55,42.94c.9.05,1.84.06,2.72.31,1.94.55,3.28,1.52,4.33,3.24.27,2.47-.06,2.63-1.37,4.79-.72.25-2.13.88-2.96.9-1.94.05-2.27-.38-3.4-1.72-.6-2.74.02-4.82.68-7.5Z"/>
  <path class="cls-10" d="m80.01,86.59c1.15.25,2.54.58,3.57,1.12,1.79.94,2.19,1.99,2.71,3.82-.88,2.71-1.57,3.16-3.62,5.03-1.03,0-2.32-.11-3.24-.59-1.46-.75-2.22-2.03-2.28-3.65-.09-2.45,1.37-4.03,2.86-5.73Z"/>
  <path class="cls-11" d="m98.66,161.26l4.18-2.47c-.25,3.02-1.61,8.54-.17,11.25,3.12,1.85,6.19.82,9.55,1.56-3.54,3.1-9.03,1.9-13.49,1.72-.07-4.02-.5-8.05-.07-12.06Z"/>
  <path class="cls-10" d="m105.44,98.17c3.13-.61,3.87-.05,6.8,1.16l2.45-1.57,5.88-.15c-1.36,2.81-2.59,5.48-4.64,7.87-1.14.3-1.57.7-2.71.14-2.55-1.25-5.45-5.4-7.77-7.45Z"/>
  <path class="cls-10" d="m67.06,76.19c1.46,0,3.22-.11,4.64.26,1.98.51,2.65,1.51,3.65,3.16-.19,2.6-.71,3.2-2.1,5.33-1.29.36-2.53.48-3.86.63-1.89-.9-2.05-1.11-3.17-2.89-.32-2.74-.17-3.93.84-6.5Z"/>
  <path class="cls-15" d="m138.24,90.45c2.1,2.45,2.4,3.38,2.24,6.66-.14,2.81-.58,5.83-2.23,8.14l-1.73.74c-1.16-.51-1.94-.59-2.67-1.65-1.74-2.54-3.43-3.92-6.01-5.55,2.89-1.13,3.38-1.46,6.43-.14.4.17.79.36,1.19.54,3.89-2.11,1.29-5.15,2.78-8.75Z"/>
  <path class="cls-15" d="m56.5,60.73c2.98,1.95,7.32,4.38,7.74,8.37.21,2-.75,3.78-2.22,5.05-1.56,1.35-3.49,2.65-5.38,3.48,1.14-5.03,1.27-11.93-.13-16.9Z"/>
  <path class="cls-9" d="m98.73,153.07c.13-5.64-1.53-19.78,2.24-23.76,1.99-.1,2.07.45,3.54,1.73-.66.91-2.15,2.46-2.5,3.45-1.88,5.3,2.24,13.05.13,18.07l-3.41.52Z"/>
  <path class="cls-10" d="m101.88,82.46c-1.26-.14-2.55-.13-3.82-.16-2.27,1.42-4.1,2.74-6.81,3.02-1.6-.71-2.36-1.22-2.9-3.09-.57-2,.1-3.08.98-4.76,4.38-2.24,4.38.87,8.03,1.99,1.43-1.4,2.92-2.71,4.43-4.02.45,2.59.58,4.44.09,7.03Z"/>
  <path class="cls-6" d="m122.54,42.51c1.5,0,3.36-.01,4.72.73,2.01,1.1,2.25,1.98,2.84,4-.26,2.71-1.49,3.85-3.24,5.75-1.43.41-2.84.76-4.24-.03-1.65-.93-2.27-2.32-2.45-4.16-.25-2.51,1.03-4.33,2.37-6.3Z"/>
  <path class="cls-6" d="m77.39,67.87c1.18-1.92,1.87-2.53,3.91-3.47,1.82.14,2.8.17,4.13,1.66,1.17,1.31,1.97,3.73,1.72,5.48-.29,1.97-1.32,2.45-2.8,3.5-2.15.31-3.61.52-5.72-.25-.41-.53-1.09-1.37-1.36-1.96-.93-1.96-.41-3,.13-4.97Z"/>
  <path class="cls-10" d="m77.39,67.87l1.86.7c.7,1.8.91,3.26.05,5.12-.18.39-.44.74-.66,1.11-.41-.53-1.09-1.37-1.36-1.96-.93-1.96-.41-3,.13-4.97Z"/>
  <path class="cls-6" d="m90.58,53c1.59.06,3.88.37,5.24,1.31,1.41.97,2.34,2.02,2.49,3.79.21,2.52-1.62,4.3-3.15,6.04-2.12.17-3.34.09-5.42-.58-1.4-1.35-2.26-1.88-2.3-3.99-.04-2.67,1.59-4.58,3.13-6.57Z"/>
  <path class="cls-2" d="m127.52,65.86c2.08-1.34,3.85-2.01,6.22-2.67-.27-1.59-.93-2.87-1.6-4.33.38-1.87.58-2.58,2.44-3.58,1.66-.89,2.48-.45,4.07.13,2.8,3.38,2.12,6.72,1.75,10.8-.67.47-1.2.89-1.98,1.16-3.97-1.9-6.72.5-10.9-1.52Z"/>
  <path class="cls-6" d="m111.09,54.9c2.46-.77,3.57-.96,6.09-.44,1.57,1.54,1.86,2.4,1.79,4.64-.05,1.57-.36,3.18-.61,4.73l1.2,2.93c-.74.16-2.08.57-2.88.51-2.37-.17-3.59-1.9-5.23-3.4l-1.27-2.04c-.47-2.9-.25-4.24.91-6.92Z"/>
  <path class="cls-2" d="m111.09,54.9c1.52,1.88,1.92,2.25,2.26,4.6-1.18,1.69-1.2,1.72-3.17,2.33-.47-2.9-.25-4.24.91-6.92Z"/>
  <path class="cls-2" d="m98.14,44.8c1.33-.99,2.5-1.94,4.14-2.38,2.96-.79,5.07.43,7.47,1.91.03,2.59.26,5.05-1.49,7.17-1.43,1.73-2.71,2.21-4.84,2.58-1.88-.36-3.1-.82-4.25-2.46-1.49-2.12-1.22-4.37-1.03-6.82Z"/>
  <path class="cls-6" d="m66.99,48.36l.3,1.68c1.18.8,2.16,1.43,3.48,2l2.16,1.5c1.63,1.64,3.09,2.76,3.34,5.2-.45,2.01-.88,3.37-2.72,4.54-1.44.92-3.62,1.39-5.28.84-2.01-.67-2.35-1.71-3.24-3.43.07-1.51.12-2.91.37-4.41-.37-1.57-.98-3.03-1.56-4.54l.24-.65,2.89-2.73Z"/>
  <path class="cls-5" d="m66.99,48.36l.3,1.68c1.18.8,2.16,1.43,3.48,2-2.43,1.02-3.62,2.27-5.35,4.23-.37-1.57-.98-3.03-1.56-4.54l.24-.65,2.89-2.73Z"/>
  <path class="cls-8" d="m139.6,32.84c10.38-.22,24.15-1.7,34.12.8,1.91,1.85,3.95,3.66,5.76,5.61-4.04-.87-8.18-3.39-12.13-3.91-4.35-.57-5.41,3.94-8.46,6.02-3.07-.65-4.62-3.58-7.17-5.39-7.16-5.08-10.19,5.14-15.5,6.22-1.99-.92-2.19-1.23-3.42-3.06,2.4-2.54,5.25-2.84,6.8-6.3Z"/>
  <path class="cls-6" d="m83.22,34.09c2.3,1.22,2.76,2.38,4.15,4.53l1.6,3.77-1.52.66c.67,3.17,1.18,5.68-.76,8.57-1.07,1.6-2.71,2.41-4.63,2.43-2.39.02-4.37-1.48-6.16-2.89-1.18-2.79-.97-4.17-.14-6.96l-.83-2.33.44-1.62c2.27-3.14,4.45-4.35,7.84-6.15Z"/>
  <path class="cls-4" d="m83.22,34.09c2.3,1.22,2.76,2.38,4.15,4.53l1.6,3.77-1.52.66c-2.89-1.45-4.98-1.85-8.1-.76-1.34.47-2.45,1.06-3.59,1.91l-.83-2.33.44-1.62c2.27-3.14,4.45-4.35,7.84-6.15Z"/>
  <path class="cls-2" d="m82.19,33.01c7.99-.76,16.86-.7,24.87-.04l-1,.91,3.85,4.98,1.38,3.74-1.53,1.74c-2.4-1.48-4.51-2.69-7.47-1.91-1.64.44-2.82,1.39-4.14,2.38-.54-1.12-1.32-1.51-2.29-2.24-2.3.22-4.58-.02-6.87-.17l-1.6-3.77c-1.39-2.15-1.86-3.31-4.15-4.53l-1.03-1.08Z"/>
  <path class="cls-6" d="m87.37,38.62c1.81-.95,3.93-2.27,6.06-1.78,1.56.36,2.9,1.4,4.09,2.41l-1.67,3.31c-2.3.22-4.58-.02-6.87-.17l-1.6-3.77Z"/>
  <path class="cls-4" d="m97.52,39.25c2.56-2.96,5-3.92,8.53-5.37l3.85,4.98,1.38,3.74-1.53,1.74c-2.4-1.48-4.51-2.69-7.47-1.91-1.64.44-2.82,1.39-4.14,2.38-.54-1.12-1.32-1.51-2.29-2.24l1.67-3.31Z"/>
  <path class="cls-11" d="m111.45,63.86c1.65,1.51,2.87,3.23,5.23,3.4.8.06,2.14-.35,2.88-.51,3.09.24,5.06.32,7.95-.89,4.18,2.01,6.93-.38,10.9,1.52l-.05,2.74c-.71,1.29-.95,1.2-.7,2.71.86,5.07-1.27,10.64.12,15.66l.44,1.95c-1.49,3.6,1.11,6.64-2.78,8.75-.4-.18-.79-.37-1.19-.54-3.06-1.32-3.54-.99-6.43.14-1-.11-1.26-.53-2.03-1.14l-5.24-.05-5.88.15-2.45,1.57c-2.93-1.21-3.67-1.77-6.8-1.16l-.8.7c-.4-.2-2.21-1.08-2.53-1.33-2.28-1.83.3-11.06-.06-13.91-.05-.39-.12-.78-.18-1.17.49-2.59.35-4.44-.09-7.03-.43-2.82-1.31-5.5-.3-8.21,2.26-1.32,5.73-.62,8.32-.88l1.65-2.48Z"/>
  <path class="cls-16" d="m108.79,73.28l22.61-.28c-.15,6.98-.32,13.95-.1,20.93-1.49,1.15-2.69,1.48-4.47,1.98l-1.02,1.74-5.24-.05-5.88.15c-2.2-1.76-4.07-1.47-5.68-3.9.13-6.88.08-13.7-.21-20.58Z"/>
  <path class="cls-1" d="m109,93.86c6.53-1.02,15.89-1.71,22.29.08-1.49,1.15-2.69,1.48-4.47,1.98l-1.02,1.74-5.24-.05-5.88.15c-2.2-1.76-4.07-1.47-5.68-3.9Z"/>
  <path class="cls-14" d="m104.51,131.04c.88.53,2.32,1.69,3.25,1.94,7.13,1.95,25.49-3.93,30.13,2.42-.06,9.88,1.26,26.44-.62,35.73-7.87.08-17.41-.82-25.06.48-3.36-.74-6.43.29-9.55-1.56-1.44-2.71-.07-8.22.17-11.25l-.7-6.24c2.11-5.02-2-12.76-.13-18.07.35-.99,1.84-2.54,2.5-3.45Z"/>
  <path class="cls-16" d="m129.37,139.31l1,.24c2.08,3.98.87,18.88.86,24.4-7.39-.22-14.8-.12-22.19-.13.11-8.16.07-16.33-.15-24.49,6.82.12,13.64.11,20.46-.02Z"/>
</svg>