<?xml version="1.0" encoding="UTF-8"?>
<svg id="_图层_1" data-name="图层 1" xmlns="http://www.w3.org/2000/svg" xmlns:xlink="http://www.w3.org/1999/xlink" viewBox="0 0 1134 950">
  <defs>
    <style>
      .cls-1 {
        fill: url(#_未命名的渐变);
      }

      .cls-2 {
        fill: #febfc6;
      }

      .cls-3 {
        fill: #fe8f9f;
      }

      .cls-4 {
        fill: #763e3d;
      }

      .cls-5 {
        fill: #fee7df;
      }

      .cls-6 {
        fill: #7b6d68;
      }

      .cls-7 {
        fill: #5f0038;
      }

      .cls-8 {
        fill: #650004;
      }

      .cls-9 {
        fill: #bd888f;
      }

      .cls-10 {
        fill: #ffddc7;
      }

      .cls-11 {
        fill: #87d9fe;
      }

      .cls-12 {
        fill: #a38869;
      }

      .cls-13 {
        fill: #ff6365;
      }

      .cls-14 {
        fill: #7d4848;
      }

      .cls-15 {
        fill: #231917;
      }

      .cls-16 {
        fill: #fefefe;
      }
    </style>
    <linearGradient id="_未命名的渐变" data-name="未命名的渐变" x1="568.47" y1="663.68" x2="566.8" y2="640.31" gradientTransform="translate(0 950) scale(1 -1)" gradientUnits="userSpaceOnUse">
      <stop offset="0" stop-color="#ffdac2"/>
      <stop offset="1" stop-color="#ffecea"/>
    </linearGradient>
  </defs>
  <path d="m444.45,80.87c6.46-9.11,13.47-17.68,21.54-25.41,23.52-22.53,52.43-35.44,85.33-34.7,12.82.27,25.52,2.45,37.7,6.46,5.37,1.8,10.56,4.12,15.93,5.9,5.77,1.92,11.82,2.99,17.63,4.79,16.69,5.14,31.78,14.46,43.85,27.08,20.52,21.68,31.61,56,30.65,85.64-.65,19.92-7.06,35.22-21.52,48.8,1.56.98,3.22,1.98,4.6,3.21,4.07,3.63,6.21,8.85,6.48,14.23.47,9.27-2.97,16.98-9.02,23.77.6,20.27,1.39,45.3-8.02,63.87-3.06,6.04-8.37,11.27-12.53,16.59-.02,1.56,1.4,2.75,2.51,3.77,6,5.49,13.16,10.06,19.59,15.07,13.55,10.76,27.18,21.43,40.89,32,5.12,3.93,17.75,12.05,20.51,16.86,1.04,1.82,1.21,4.11.61,6.11-1.17,3.89-17.46,11.35-21.68,13.58,24.33,22.47,51.18,42.25,75.72,64.47,7.01,6.35,12.55,14.39,12.91,24.12.24,6.4-2.09,10.9-6.34,15.45-1.21,1.04-2.43,2.07-3.56,3.19-11.96,10.91-21.48,25.48-34.56,35.03-1.56.99-2.63,1.75-3.72,3.26l-.03.29c-5.55,2.56-11.23,6.08-17.49,3.72-18.86-7.1-61.97-71.07-75.48-90.55-2.73,3.48-5.61,6.91-8.2,10.5,13.6,45.62,28.38,90.98,42.68,136.39l12,37.99c2.42,7.61,5.32,15.35,6.97,23.16.83,3.92,1.99,9.71-.26,13.31-1.2,1.92-3.93,2.26-6.01,2.58-7.43,1.16-15.3,1.25-22.81,1.71-11.98.73-24.03,1.57-36.04,1.82l9.98,113.92,2.13,23.92c.9,9.11,3.45,19.16,1.47,28.22,5.57,2.69,11.05,5.53,16.65,8.16,14.98,7.04,31.83,14.29,37.64,31.32,1.91,5.6,2.21,11.93-.52,17.32-1.49,2.94-3.96,5.45-7.22,6.32-8.58,2.3-47.43,1.03-58.58,1.02-13.51,0-31.47.97-44.53-.26-2.3-.22-4.55-.85-6.5-2.11-3.01-1.94-5.33-5.42-5.94-8.95-1.12-6.45-1.3-45.96.36-51.35-.11-2.29-.71-4.61-.84-6.94-1.2-20.97-3.01-41.81-4.85-62.74-1.35-15.44-1.87-31.58-4.42-46.84-1.9-1.29-3.82-2.79-5.04-4.78-3.24-5.27-4.95-12.07-6.97-17.91l-9.16-26.68c-7.83-.8-15.85-.61-23.72-.71-12.35,54.9-25.49,109.67-36.57,164.82,19.15,10.43,47.95,17.7,54.79,41.24,1.57,5.41,2.07,11.05-.89,16.14-1.7,2.91-4.7,5.64-8.08,6.32-6.86,1.37-14.67.75-21.67.74h-31.55s-31.72,0-31.72,0c-5.7,0-11.59.32-17.25-.24-2.68-.27-5.26-1.16-7.43-2.79-3.72-2.78-4.97-7.64-5.45-12.05-.85-7.81-.3-16.16-.27-24.04.02-7.18-.43-14.74.31-21.86.61-5.42-.78-10.92.02-16.43.78-5.32,2.72-10.63,4.04-15.84,2.27-8.92,4.21-17.94,6.24-26.92l25.44-112.32c-5.21-.89-10.71-1.06-15.98-1.52-9.36-.79-18.7-1.77-28.02-2.93-4.64-.58-9.58-.96-14.1-2.2-5.46-1.49-8.5-3.61-11.25-8.53-.26-11.39,6.26-26.89,9.41-38.06l22.12-76.35c1.47-4.99,6.29-18.02,6.2-22.45-.98.1-1.96.18-2.94.22-12.82.56-37.33-17.35-47.06-25.93-14.33-12.64-30.4-30.07-31.51-50.04-1.49-26.61,29.97-52.12,46.36-70.47-3.1-1.01-6.51-2-8.86-4.37-1.59-1.6-2.63-3.6-2.58-5.89.15-7.57,15.78-18.79,21.33-24.11-1.87-2.34-3.28-4.7-3.83-7.68-1.34-7.14,2.1-12.96,5.96-18.58-2.33.48-4.77.95-7.14,1.09-5,.29-10.36-.99-14.06-4.52-2.67-2.55-4.15-6.1-4.08-9.79.03-3.81,1.67-7.43,4.51-9.97,5.47-4.93,12.34-4.64,19.17-4.23-2.35-2.5-4.55-5.25-5.95-8.41-1.97-4.48-2.59-9.57-.66-14.19,1.29-3.09,3.65-5.65,6.83-6.8,5.12-1.86,9.62-.26,14.28,1.85.03-.12.07-.24.1-.36l.18-.59c2.07-7.01,5.76-13.31,8.47-20.07,2.32-5.77,3.72-11.69,6.64-17.22-5-2.06-9.3-5.52-12.09-10.18-4.92-8.23-4.26-18.05-2.09-27.02-5.26,4.75-11,9.08-18.01,10.77-6.6,1.6-13.38.58-19.14-3.05-5.79-3.7-9.87-9.55-11.35-16.26-1.5-6.59-.26-13.51,3.43-19.18,4.88-7.41,12.8-11.35,21.26-13.19-5.62-2.05-10.69-4.32-15.69-7.62-6.38,9.13-10.65,18.41-11.25,29.69-.77,14.43,5.26,31.05,19.13,37.55,7.56,3.55,14.27,4.08,20.13,10.77,1.56,1.78,3.41,3.93,3.18,6.42-.32,3.56-1.17,10.87-4.16,13.17-.88.68-2.01,1-3.13.82-4.01-.67-8.99-6.38-11.05-9.74-2.06-3.37.87-10.34,1.85-13.86-14.42-1.34-28.47-4.34-40.49-12.88-10.28-7.29-16.73-17.65-18.78-30.09-3.45-20.86,4.59-42.78,16.64-59.57,19.89-27.71,43.8-40.72,77.32-46.2Zm218.1,164.44c-3.33,7.88-6.9,14.24-12.66,20.65l5.36,45.23.35,1.9c1.26.11,1.83-.35,2.73-1.18,13.02-11.96,14.93-41.18,14.89-57.93,0-3,.48-7.91-.53-10.65-3.35.89-6.72,1.43-10.14,1.98Z"/>
  <path class="cls-7" d="m668.85,860.97c5.57,2.69,11.05,5.53,16.65,8.16,14.98,7.04,31.83,14.29,37.64,31.32,1.91,5.6,2.21,11.93-.52,17.32-1.49,2.94-3.96,5.45-7.22,6.32-8.58,2.3-47.43,1.03-58.58,1.02-13.51,0-31.47.97-44.53-.26-2.3-.22-4.55-.85-6.5-2.11-3.01-1.94-5.33-5.42-5.94-8.95-1.12-6.45-1.3-45.96.36-51.35l4.07,8.9c4.27,6.67,9.82,11.75,17.24,14.71,8.77,3.46,18.56,3.28,27.19-.51,9.24-4.04,15.17-11.22,18.85-20.42l1.28-4.15Z"/>
  <path class="cls-7" d="m667.57,865.12c4.39,2.26,8.74,4.57,13.28,6.53l5.42,2.86c5.9,2.56,11.84,5.18,17.3,8.61l4.08,3.38c5.78,4.34,9.51,10.65,11.92,17.33l-116.04.07c.17-6.98-1.36-27.43.74-32.55,4.27,6.67,9.82,11.75,17.24,14.71,8.77,3.46,18.56,3.28,27.19-.51,9.24-4.04,15.17-11.22,18.85-20.42Z"/>
  <path class="cls-16" d="m680.85,871.64l5.42,2.86c5.9,2.56,11.84,5.18,17.3,8.61l4.08,3.38c-.58,1.57-1.48,3.37-2.52,4.68-1.23,1.54-2.91,2.18-4.83,2.38-7.56.79-17.93-5.54-23.59-10.08,1.26-1.33,2.72-2.71,3.7-4.25,1.6-2.5.98-4.89.42-7.58Z"/>
  <path class="cls-7" d="m686.27,874.5c5.9,2.56,11.84,5.18,17.3,8.61-.16,1.1-.29,2.4-.71,3.43-.53,1.3-1.56,2.17-2.92,2.5-4.85,1.17-12.55-3.78-16.61-5.98,1.75-2.77,2.4-5.4,2.94-8.57Z"/>
  <path class="cls-15" d="m668.85,860.97c5.57,2.69,11.05,5.53,16.65,8.16,14.98,7.04,31.83,14.29,37.64,31.32,1.91,5.6,2.21,11.93-.52,17.32-1.49,2.94-3.96,5.45-7.22,6.32-8.58,2.3-47.43,1.03-58.58,1.02-13.51,0-31.47.97-44.53-.26-2.3-.22-4.55-.85-6.5-2.11-3.01-1.94-5.33-5.42-5.94-8.95-1.12-6.45-1.3-45.96.36-51.35l4.07,8.9c-2.09,5.12-.57,25.57-.74,32.55l-.12,4.19c0,1.39.05,2.74.36,4.11.63,2.8,2.36,5.4,4.85,6.86,2.08,1.22,4.41,1.4,6.77,1.55,16.78,1.06,34.16.2,51.01.2,9.03,0,40.21,1.12,46.85-.77,2.29-.65,4.54-3.17,5.68-5.16,1.25-2.19,1.8-5.48,1.2-7.95l-.56-3.1c-2.42-6.69-6.15-13-11.92-17.33l-4.08-3.38c-5.46-3.44-11.4-6.05-17.3-8.61l-5.42-2.86c-4.53-1.95-8.89-4.27-13.28-6.53l1.28-4.15Z"/>
  <path class="cls-16" d="m603.54,903.9l116.04-.07.56,3.1-.65,1.34c-4.17.33-8.47-.09-12.66-.14-7.49-.1-15-.04-22.49-.04h-80.91s.12-4.19.12-4.19Z"/>
  <path class="cls-7" d="m508.66,860.67c19.15,10.43,47.95,17.7,54.79,41.24,1.57,5.41,2.07,11.05-.89,16.14-1.7,2.91-4.7,5.64-8.08,6.32-6.86,1.37-14.67.75-21.67.74h-31.55s-31.72,0-31.72,0c-5.7,0-11.59.32-17.25-.24-2.68-.27-5.26-1.16-7.43-2.79-3.72-2.78-4.97-7.64-5.45-12.05-.85-7.81-.3-16.16-.27-24.04.02-7.18-.43-14.74.31-21.86,1.57,2.14,3.64,5.29,4.32,7.86,4.21,6.13,9.25,11.08,16.14,14.12,8.6,3.73,18.32,3.9,27.04.48,10.25-4.02,16.3-11.71,20.52-21.57l1.21-4.33Z"/>
  <path class="cls-7" d="m507.44,865.01c4.42,2.33,8.79,4.68,13.4,6.62l5.43,2.83c5.87,2.55,11.95,5.11,17.31,8.64l4.07,3.37c5.8,4.3,9.48,10.7,11.95,17.35l-116.16.04c-.02-10.44-.82-21.54.3-31.87,4.21,6.13,9.25,11.08,16.14,14.12,8.6,3.73,18.32,3.9,27.04.48,10.25-4.02,16.3-11.71,20.52-21.57Z"/>
  <path class="cls-16" d="m520.84,871.63l5.43,2.83c5.87,2.55,11.95,5.11,17.31,8.64l4.07,3.37c-.63,1.69-1.46,3.36-2.58,4.78-1.37,1.73-3.52,2.28-5.63,2.35-7.17.22-17.51-5.51-22.66-10.26,1.23-1.28,2.66-2.61,3.64-4.09,1.65-2.5,1.01-4.92.42-7.61Z"/>
  <path class="cls-7" d="m526.27,874.46c5.87,2.55,11.95,5.11,17.31,8.64-.17,1.09-.29,2.34-.68,3.37-.48,1.25-1.47,2.19-2.76,2.54-4.86,1.33-12.72-3.72-16.8-5.94,1.77-2.79,2.41-5.41,2.93-8.61Z"/>
  <path class="cls-15" d="m508.66,860.67c19.15,10.43,47.95,17.7,54.79,41.24,1.57,5.41,2.07,11.05-.89,16.14-1.7,2.91-4.7,5.64-8.08,6.32-6.86,1.37-14.67.75-21.67.74h-31.55s-31.72,0-31.72,0c-5.7,0-11.59.32-17.25-.24-2.68-.27-5.26-1.16-7.43-2.79-3.72-2.78-4.97-7.64-5.45-12.05-.85-7.81-.3-16.16-.27-24.04.02-7.18-.43-14.74.31-21.86,1.57,2.14,3.64,5.29,4.32,7.86-1.12,10.33-.32,21.44-.3,31.87l-.02,4.24c.02,1.05.03,2.12.18,3.16.48,3.36,2.31,5.94,5.03,7.87,1.49,1.06,3.04,1.28,4.81,1.41,7.44.53,15.03.26,22.49.27h37.22c8.84,0,32.51,1.07,39.71-.63,2.46-.58,4.59-2.85,5.86-4.93,1.42-2.34,2.08-5.64,1.4-8.31l-.52-3.11c-2.47-6.65-6.15-13.05-11.95-17.35l-4.07-3.37c-5.36-3.53-11.44-6.09-17.31-8.64l-5.43-2.83c-4.6-1.94-8.98-4.3-13.4-6.62l1.21-4.33Z"/>
  <path class="cls-16" d="m443.45,903.85l116.16-.04.52,3.11-.65,1.35c-4.18.3-8.47-.1-12.67-.16-7.61-.1-15.23-.04-22.85-.04h-80.53s.02-4.23.02-4.23Z"/>
  <path class="cls-2" d="m450.96,80.43c20.85-27.48,47.09-48.78,82.4-53.68,18.48-2.43,37.28-.55,54.92,5.48,5.66,1.91,11.06,4.56,16.74,6.39,4.71,1.51,9.68,2.33,14.47,3.62,11.41,3.07,22.31,8.72,31.68,15.88,23.71,18.13,36.26,46.38,40,75.42,2.37,18.36.74,38.35-10.9,53.51-2.88,3.76-6.18,6.82-9.92,9.71,1.26-3.71,2.67-7.3,4.21-10.9l-1.17-5.44c1.46-.85,2.9-.92,4.03-2.2-.15-1.3-.3-1.85-1.42-2.65-4.34-3.1-13.61-6.05-18.88-8.71-24.9-12.57-48.69-27.7-62.65-52.75,3.32-6.79,10.38-20.33,11.67-27.53.26-1.43-.06-2.91-.44-4.29l-.96-1.09c-1.29.27-1.96.47-2.63,1.7-3.21,5.89-4.91,13.71-7.93,20.02-10.09,21.08-23.37,39.97-42.34,53.95-2.72,2.01-6.23,5-9.38,6.17-.48.18-.72.13-1.17.1-.57-1.81-.42-3.55-.64-5.41-.43-1.49-.33-2.66-.17-4.2-.09-12.98-4.83-27.02-11.91-37.83-11.66-17.79-30.74-28.76-51.26-33.08l-6.92-1.21c-6.45-.72-12.95-1.05-19.44-1Z"/>
  <path class="cls-5" d="m470.4,81.43c-.83-1.47-1.49-2.26-1.02-4.04,2.57-9.86,28.9-28.19,38.3-32.81,28.7-14.1,58.55-13.4,88.16-3.06,4.27,1.49,11.09,3.27,13.44,7.38.26,1.5.41,2.54-.42,3.93-.86,1.43-2.81,2.28-4.39,2.52-4.01.61-13.95-4.69-18.84-6.22-31.82-9.95-65.32-4.43-91.41,16.72-6.27,5.08-10.99,11.44-16.89,16.79l-6.92-1.21Z"/>
  <path class="cls-15" d="m540.49,153.55c4.06-6.76,7.95-11.62,15.97-13.66,2.82-.71,5.95-1.71,8.86-1.38,1.25.79,1.22.77,1.64,2.19-1.29,2.38-4.05,2.83-6.49,3.56-2.58.77-6.22,1.29-8.46,2.75-3.23,2.12-6.22,10.51-9.08,11.06-.51.1-1.71-.24-2.27-.32-.43-1.49-.33-2.66-.17-4.2Z"/>
  <path class="cls-5" d="m622.97,50.87c1.39-.1,2.63-.13,3.98.27,3.73,1.09,6.92,3.62,10.08,5.78,14.51,9.75,26.41,22.9,34.66,38.31,7.75,14.3,11.9,29.55,13.62,45.67.43,3.98,1.22,8.63-.09,12.5-.74,2.17-2.15,2.88-4.1,3.9-1.93.03-4.22-.13-5.76-1.43-2.96-2.48-2.18-11.56-2.42-15.36-1.66-26.29-15.5-51.94-35.81-68.5-5.83-4.75-13.01-7.94-18.59-12.87-.17-.81-.41-1.66-.26-2.49.45-2.56,2.72-4.38,4.7-5.78Z"/>
  <path class="cls-15" d="m638.89,140.04c5.82-.16,10.86.22,16.08,3.04,3.79,2.05,8.18,5.43,9.33,9.75.61,2.31.56,3.36-.64,5.32-3.8-1.16-6.04-8.56-9.79-11.23-4.14-2.95-9.88-1.63-14.49-3.46-1.01-1.45-.72-1.73-.49-3.43Z"/>
  <path class="cls-5" d="m590.99,120.16c14.81,20.99,33.56,35.02,55.92,47.15,7.58,4.11,15.39,8.21,23.47,11.25-4.24,14.33-4.92,28.93-7.85,43.45-2.64,16.07-6.01,30.94-18.53,42.37-21.73,17.44-48.39,24.04-75.9,20.99-13.6-1.51-26.23-5.33-38.95-10.23-1.91-.73-5.41-1.49-6.59-3.23-.42-.62-.4-.67-.6-1.3l1.17-2.94c.47-1.93.77-4.06.76-6.06-.08-10.55-7.56-18.17-14.58-25.09,5.01-6.48,9.24-13.7,13.52-20.67,5.15-9.25,10.64-18.79,14.34-28.74,1.57-4.21,1.64-13.16,4.02-16.32,1.86-2.45,8.91-5.21,11.7-7.51,15.35-12.66,27.81-26.1,38.1-43.13Z"/>
  <path class="cls-10" d="m522.83,215.86c.22.15.43.31.65.45,1.84,1.19,5.32,1.12,7.49,1.51,10.15,1.86,17.86,8.51,20.47,18.61,1.67,6.54.64,13.48-2.88,19.24-3.56,5.94-9.38,10.18-16.12,11.75-3.13.73-6.14.49-9.31.26.47-1.93.77-4.06.76-6.06-.08-10.55-7.56-18.17-14.58-25.09,5.01-6.48,9.24-13.7,13.52-20.67Z"/>
  <path class="cls-10" d="m644.01,264.39c-.44-1.16-1.14-2.16-1.77-3.22-4.07-6.81-5.7-13.21-3.63-21.04,1.77-6.69,6.17-12.73,12.27-16.11,3.54-1.96,7.69-3.06,11.66-1.99-2.64,16.07-6.01,30.94-18.53,42.37Z"/>
  <path d="m556.04,175c1.71-.1,3.43-.25,5.07.3,3.31,1.11,5.87,3.83,7.38,6.9,3,6.07,3.17,14.32,1.1,20.69-1.61,4.94-4.14,8.01-8.75,10.31-1.51.13-3.01.26-4.48-.16-3.3-.95-6.02-3.56-7.61-6.53-3.18-5.92-3.56-13.91-1.68-20.28,1.56-5.3,4.19-8.59,8.97-11.23Z"/>
  <path d="m632.42,174.97c1.54-.1,3.06-.17,4.57.25,3.23.9,5.83,3.5,7.39,6.38,3.25,6,3.48,14.41,1.53,20.86-1.51,4.98-4.03,8.25-8.62,10.68-1.66.18-3.29.35-4.91-.16-3.34-1.05-5.97-3.74-7.56-6.78-3.17-6.07-3.43-14.31-1.33-20.76,1.65-5.06,4.3-8.08,8.93-10.48Z"/>
  <path class="cls-15" d="m613.87,233.43c1.25.1,2.05.31,3.18.83.96,1.41,1.03,2.74.79,4.39-.67,4.53-4.06,9.01-7.78,11.54-4.33,2.95-10.06,3.89-15.15,2.71-5.95-1.38-9.93-5.37-13.01-10.39-1.17-2.85-1.65-4.48-.59-7.41.79-.35.78-.56,1.66-.19,2.56,1.08,3,3.76,4.09,6.06,1.49,3.15,5.12,5.81,8.35,6.9,3.46,1.15,7.24.78,10.41-1.04,5.36-3.01,6.62-7.92,8.05-13.42Z"/>
  <path class="cls-3" d="m529.09,471.28c9.65-.86,19.61-2.23,29.3-2.12,14.44.16,32.83,3.27,47.55,4.91,15.67,1.74,33.39,2.69,48.72,5.54l31.24,99.51c5.32,16.95,10.2,34.23,16.06,50.99-8.59.51-17.33.94-25.94.92l-24.05-75.13c-3.56-11.13-6.46-23.55-10.89-34.24-1.02-2.46-2.18-4.59-4.36-6.18-.92-.15-1.28-.43-2.1.09-1.16.73-1.91,2.28-2.14,3.6-1.11,6.32.3,23.35.42,30.73l1.36,83.39h-59.78c-3.81-13.27-8.64-26.99-10.79-40.61-1.18-7.44-.96-15.47-1.24-23.01l-1.58-41c-.16-4.09.59-15.56-3.34-17.53-1.68-.84-3.3-.69-5.05-.23-.96-2.73-.94-5.68-2.56-8.23-1.66-2.62-4.82-3.01-7.6-3.58,2.75-.51,5.38-.93,7.47-2.95,2.6-2.53,3.88-6.15,3.8-9.74-.06-2.67-.92-5.25-2.91-7.09-4.56-4.22-14.24-2.33-19.9-2.12l-1.69-5.91Z"/>
  <path class="cls-4" d="m451.68,84.94c19.12-1.41,40.39,4.06,56.01,15.26,15.63,11.21,25.04,27.89,27.99,46.78,1.75,11.19,1.49,23.42-1.42,34.4-5.28,19.89-22.06,43.96-34.17,60.52-13.01-4.53-23.54-4.09-36.71-.7,5.21-4.26,9.67-10.02,13.45-15.54,11.17-16.29,17.2-36.4,13.42-56.09-2.97-15.43-11.29-27.59-24.27-36.27-7.97-4.77-17.17-7.09-26.45-6.67-17.51.77-34.45,10.7-45.95,23.58-9.88,11.05-14.93,25.6-14.02,40.4.92,13.94,6.82,23.98,17.19,33-10.25-2.48-20.07-5.88-28.2-12.84-8.88-7.61-13.58-18.13-14.42-29.7-1.61-22.23,9.13-43.79,23.43-60.15,20.1-23,43.76-33.9,74.12-35.97Z"/>
  <path class="cls-8" d="m499.04,171.94c.97.15,1.7.44,2.59.84.75.94,1.13,1.72,1.21,2.92.18,2.86-.38,6.1-.68,8.96-1.9,18.36-8.85,35.78-21.07,49.74-1.43-.45-1.68-.56-2.68-1.67-.05-1.03.15-1.67.65-2.54,1.53-2.69,3.9-4.87,5.64-7.43,2.03-2.98,3.65-6.6,5.24-9.85,3.93-8,7.12-17.71,7.84-26.63.36-4.47-.26-10.15,1.25-14.34Z"/>
  <path class="cls-3" d="m715.52,410.24c25.55,21.09,50.59,42.88,75.9,64.27l3.46,3.12c4.93,5.34,9.15,11.71,9.05,19.28-.04,2.79-.6,4.95-2.11,7.29-3.51,5.44-9.23,9.78-13.68,14.45-7.66,8.04-14.8,16.66-22.96,24.21-4.62,4.27-13.25,11.86-20.03,11.8-5.05-.04-11-6.71-14.41-10.03l-3.35-3.55c-19.05-19.4-42.38-53.58-57.97-76.77l3.2-3.79-3.88-33.12c16.18-3.63,31.66-10.48,46.78-17.15Z"/>
  <path class="cls-3" d="m727.38,541.08c24.72-14.74,44.51-45.48,64.03-66.57l3.46,3.12c4.93,5.34,9.15,11.71,9.05,19.28-.04,2.79-.6,4.95-2.11,7.29-3.51,5.44-9.23,9.78-13.68,14.45-7.66,8.04-14.8,16.66-22.96,24.21-4.62,4.27-13.25,11.86-20.03,11.8-5.05-.04-11-6.71-14.41-10.03l-3.35-3.55Z"/>
  <path class="cls-16" d="m727.38,541.08c24.72-14.74,44.51-45.48,64.03-66.57l3.46,3.12c-9.21,14.56-49.67,60.01-64.14,67l-3.35-3.55Z"/>
  <path class="cls-3" d="m412.97,395.98c18.68,7.11,37.85,13.03,57.02,18.68,3.87,9.26,7.14,19.31,10.1,28.92-2.68-2.35-5.76-4.72-8.86-6.49-5.96-3.39-56.91-21.54-60.3-20.36-.99.34-.83.41-1.28,1.22.93,1.72,2.94,2.55,4.67,3.32,5.72,2.54,12.12,4.2,18.08,6.16,10.21,3.31,20.35,6.82,30.42,10.52l3.15,1.45c6.16,3.15,11.44,5.91,13.72,12.99,1.29,4,1.43,8.63,1.65,12.79l-.08,5.74c-8.08,2.7-14.28,7.05-18.17,14.84-3.59,7.19-4.2,16.35-1.6,23.96.72,2.11,1.7,4.19,2.75,6.16-5.49,6.92-14.6,19.36-23.93,20.13-4.57.38-12.53-2.22-16.03-5.29l-2.28-.79c-3.01-2.39-6.76-4.29-10-6.41-5.97-3.9-11.63-8.26-16.91-13.05-12.82-11.68-28.16-28.45-28.87-46.57-.92-23.35,31.53-51.68,46.74-67.91Z"/>
  <path class="cls-3" d="m465.96,439.4c6.16,3.15,11.44,5.91,13.72,12.99,1.29,4,1.43,8.63,1.65,12.79l-.08,5.74c-8.08,2.7-14.28,7.05-18.17,14.84-3.59,7.19-4.2,16.35-1.6,23.96.72,2.11,1.7,4.19,2.75,6.16-5.49,6.92-14.6,19.36-23.93,20.13-4.57.38-12.53-2.22-16.03-5.29,5.86-4.68,32.33-63.18,36.08-72.76,2.37-6.05,4.63-12.12,5.6-18.57Z"/>
  <path class="cls-16" d="m462.82,437.95l3.15,1.45c-.97,6.45-3.23,12.52-5.6,18.57-3.75,9.57-30.22,68.08-36.08,72.76l-2.28-.79c.55-4.64,20.4-41.37,24.37-49.87,4.18-8.95,8.36-17.98,11.76-27.25,1.73-4.73,2.57-9.82,4.52-14.46.06-.13.11-.27.17-.4Z"/>
  <path class="cls-2" d="m638.48,637.28c.47-38.01-2.05-76.07-1.61-114.08,8.31,25.4,16.47,50.85,24.51,76.34,3.09,9.68,7.19,26.65,12.07,35.01,3.55,1.97,24.49.04,29.83-.09,3.84,12.33,7.44,24.83,11.73,37.01l.72,2.98c.94,3.01,2.33,8.41.89,11.37-.38.77-.94,1.04-1.77,1.22-8.38,1.8-20.59,1.59-29.57,2.13-31.37,1.89-63.06,3.31-94.48,2.86l-3.85-14.01-.98-3.28c-3.26-12.45-6.92-24.81-10.39-37.2,20.83.02,42.15.99,62.91-.25Z"/>
  <path class="cls-2" d="m715.73,674.46c.94,3.01,2.33,8.41.89,11.37-.38.77-.94,1.04-1.77,1.22-8.38,1.8-20.59,1.59-29.57,2.13-31.37,1.89-63.06,3.31-94.48,2.86l-3.85-14.01c28.74.24,57.65-.58,86.4-1.17l27.44-.69c4.06-.12,8.57.13,12.57-.47,1.39-.21,1.53-.11,2.37-1.24Z"/>
  <path class="cls-16" d="m585.96,674.74c.1-.13.18-.28.3-.4,1.06-1.06,6.56-.7,8.1-.74,15.76-.43,31.56-.26,47.33-.47,24.45-.38,48.89-.93,73.32-1.65l.72,2.98c-.84,1.13-.98,1.03-2.37,1.24-4,.6-8.51.36-12.57.47l-27.44.69c-28.75.59-57.66,1.41-86.4,1.17l-.98-3.28Z"/>
  <path class="cls-2" d="m422.32,629.96c19.25.36,38.55,1.67,57.78,2.58,8.15.38,22.8,2.34,30.22.4,4.93-5.51,15.23-40.37,18.89-49.31,10.67,30,20.48,60.46,31.73,90.23l.88,2.81c2.07,4.95,3.65,10.27,5.44,15.34-38.68-.37-77.32-2.33-115.84-5.9-10.9-1.09-23.06-1.6-33.59-4.37-2.78-.73-5.64-1.75-7.04-4.47-1.95-3.81.28-8.98,1.41-12.79l1.21-3.96c3.11-10.14,6.08-20.33,8.9-30.55Z"/>
  <path class="cls-2" d="m413.42,660.51c25.44,10.47,86.31,11.53,115.96,12.28,10.33.26,21.37-.36,31.56,1.06l.88,2.81c2.07,4.95,3.65,10.27,5.44,15.34-38.68-.37-77.32-2.33-115.84-5.9-10.9-1.09-23.06-1.6-33.59-4.37-2.78-.73-5.64-1.75-7.04-4.47-1.95-3.81.28-8.98,1.41-12.79l1.21-3.96Z"/>
  <path class="cls-16" d="m413.42,660.51c25.44,10.47,86.31,11.53,115.96,12.28,10.33.26,21.37-.36,31.56,1.06l.88,2.81c-.59.65-.27.47-1.13.73-4.8,1.45-18.66.09-24-.05-25.07-.65-105.76-2.34-124.47-12.87l1.21-3.96Z"/>
  <path class="cls-16" d="m654.27,326.5c9.12,6.44,17.82,13.58,26.64,20.43l45.38,35.29,3.9,3.05c1.61,1.19,3.32,2.37,4.82,3.7,1.19,1.05,1.98,1.94,2.11,3.57-4.62,7.95-50.46,25.18-61.26,28.45-12.14,3.67-29.7,8.95-41.51,2.48-19.7-10.8-37.51-55.2-43.64-75.96l8.07-2.81,3.83-1.07c17.1-5.75,34.3-12.3,51.66-17.13Z"/>
  <path class="cls-16" d="m602.61,343.63c6.95,16.57,22.08,61.01,39.2,67.78,13.57,5.37,52.02-13.34,65.03-19.43,6.55-3.06,13.21-6.11,19.45-9.78l3.9,3.05c1.61,1.19,3.32,2.37,4.82,3.7,1.19,1.05,1.98,1.94,2.11,3.57-4.62,7.95-50.46,25.18-61.26,28.45-12.14,3.67-29.7,8.95-41.51,2.48-19.7-10.8-37.51-55.2-43.64-75.96l8.07-2.81,3.83-1.07Z"/>
  <path class="cls-3" d="m602.61,343.63c6.95,16.57,22.08,61.01,39.2,67.78,13.57,5.37,52.02-13.34,65.03-19.43,6.55-3.06,13.21-6.11,19.45-9.78l3.9,3.05c-18.48,9.3-37.26,18.63-56.83,25.45-10.2,3.56-24.55,9.02-34.89,3.86-17.15-8.56-33.82-52.28-39.69-69.89l3.83-1.07Z"/>
  <path class="cls-3" d="m515.98,424.53c15.04,1.02,26.09.62,38.01-9.73,15.52-13.48,29.12-41.33,33.9-61.27,8.39,22.01,23.55,64.31,46.19,74.69,9.32,4.27,20.86,2.28,30.51.2,1.19,10.23,2.29,20.49,3.59,30.71l-12.87,16.05-46.67-5.1c-8.32-.92-16.8-1.53-25.06-2.84l5.19-1.06c4.15-.22,21.23-.41,23.42-2.7.21-1.3.43-1.59-.2-2.73-3.52-1.23-75.05,5.51-84.05,6.28l-11.94-42.49Z"/>
  <path class="cls-15" d="m586.86,416.04c5.97-1.58,12.1,1.96,13.71,7.92,1.61,5.96-1.89,12.11-7.85,13.75-6,1.66-12.2-1.88-13.83-7.89-1.63-6.01,1.95-12.19,7.96-13.78Z"/>
  <path class="cls-16" d="m588.93,419.98c3.8-.43,7.24,2.3,7.68,6.1.44,3.8-2.28,7.24-6.08,7.69-3.81.45-7.27-2.28-7.71-6.09s2.3-7.26,6.11-7.7Z"/>
  <path class="cls-15" d="m587.24,381.15c3.98-.9,8.14.42,10.86,3.46,2.72,3.04,3.58,7.32,2.23,11.17s-4.67,6.67-8.69,7.37c-6,1.04-11.73-2.89-12.92-8.86-1.2-5.97,2.59-11.8,8.52-13.15Z"/>
  <path class="cls-16" d="m589.39,385.16c3.74-.18,6.94,2.64,7.25,6.36.31,3.73-2.39,7.03-6.11,7.47-2.52.3-5-.8-6.47-2.88-1.47-2.07-1.69-4.78-.58-7.06,1.11-2.28,3.38-3.78,5.92-3.9Z"/>
  <path class="cls-3" d="m466.92,519.48c2.88,2.55,5.86,5.43,9.49,6.88,7.04,2.79,31.28,2.5,34.82,5.7,5.31,14.94,10.52,29.93,15.62,44.95-5.86,17.66-12.6,35.1-18.97,52.59l-84.17-4.01,17.56-59.9c2.15-7.37,5.05-21.25,8.54-27.39,2.71-4.78,12.81-13.18,17.12-18.8Z"/>
  <path class="cls-5" d="m480.36,692.71c19.77,1.91,39.97,2.62,59.83,2.85-10.72,47.33-20.64,95.01-32.33,142.1l-2.51-5.19c-1.08-1.57-2.14-3.16-3.33-4.65-5.78-7.11-14.14-11.64-23.25-12.62-11.18-1.18-19.93,2.78-28.49,9.61,2.93-11.28,5.23-22.79,7.8-34.16,7.39-32.62,14.24-65.48,22.29-97.94Z"/>
  <path class="cls-5" d="m636.3,695.59l14.07-.31c.7,14.41,2.42,28.88,3.69,43.26l7.79,89.27c-5.66-6.59-13.1-11.38-21.73-12.86-10.22-1.76-19.3,1.13-27.65,6.97-3.85,3.3-6.58,6.75-9.28,11.04-1.45-10.11-1.95-20.53-2.84-30.71l-4.96-56.68c2.28-1.13,4.81-2.52,6.08-4.82,1.09-1.96,1.11-4.05.91-6.22-.77-8.59-7.65-28.73-10.34-38.16,14.76.01,29.51-.25,44.26-.77Z"/>
  <path class="cls-2" d="m442.64,130.57c2.89.31,5.8.69,8.63,1.37,11.61,2.87,21.61,10.24,27.79,20.49,9.1,14.85,9.4,30.96,5.49,47.44-4.01-5.07-7.36-10.58-11.33-15.62-1.25-.37-1.27-.22-2.47.35-.68,1.14-.82,1.21-.39,2.55.84,2.65,2.53,5.31,3.72,7.84,2.63,5.6,4.17,10.87,5.23,16.95-3.38,9.7-11.29,19.28-18.95,25.94-4.45.06-8.79-.59-12.75-2.71-4.78-2.56-8.01-6.94-9.5-12.1-3.58-12.43,2.36-25.57,8.3-36.25l.16-.7c-.55-1.28-.77-1.39-1.94-2.19-2.51.63-11.73,14.91-15.42,18.32-5.34,4.94-12.42,8.68-19.87,8.28-5.59-.3-10.7-3.01-14.35-7.21-3.94-4.47-5.85-10.37-5.27-16.29,1.46-14.01,15.7-20.11,27.99-21.85,3.66-.52,11.94-.12,14.64-2.39l-.05-1.38c-2.31-3-13.65-1.79-17.68-2.79-6.1-1.52-11.24-3.61-16.51-7.03,11.62-11.09,23.11-17.78,38.96-20.72,2.18,2.89,3.63,6.25,6.16,8.88,1.35.18,1.48.18,2.7-.43l.38-1.19c-.47-2.8-2.23-5.18-3.68-7.57Z"/>
  <path d="m456.94,139.26c5.3,3.68,12.56,16.27,16.51,22.09-2.68,4.92-9.91,18.12-13.47,21.5-.94.89-1.34.75-2.56.76-3.5-4.43-15.78-16.99-16.11-21.89-.34-5.09,12.04-18.67,15.63-22.45Z"/>
  <path class="cls-13" d="m456.93,145.99c4.32,3.39,8.29,11.03,11.44,15.62-1.97,3.17-7.86,14.37-10.41,15.75-4.28-5.39-8.69-10.69-13.03-16.03,4.13-4.98,7.99-10.24,12-15.34Z"/>
  <path class="cls-2" d="m488.51,326.06c.62-.99,1.09-2.05,1.61-3.1.83-1.68,1.56-3.02,3.38-3.64,2.15,2.86,1.08,12.71,5.5,18.78,3.45,4.74,8.09,6.18,13.59,7.02.18,1.46.23,2.96,1.45,3.97.53.44,1.36.71,1.99.99.5.23,1,.47,1.51.71l2.83-.08c.86-.47.6-.43,1.37-.57,4.75-.86,9.05-1.96,13.45-4,1.47-.8,3.34-1.68,4.2-3.19.64-1.12.91-2.28.43-3.53-.6-1.56-2.2-2.18-3.6-2.83,1.55-1.81,2.34-3.38,3.21-5.57,9.75,3.51,19.51,7.34,29.39,10.47l3.68,1.33,12.82,4.76c-3.45,11.39-7.43,22.52-12.52,33.29-1.5,4.02-2.87,7.42-5.78,10.67-7.43,12-16.67,24.74-31.2,28.23-6.88,1.65-14.02.95-20.98.32-1.22-4.03-3.78-9.99-3.44-14.14.78-1.73.68-2.9.5-4.77-1.25-2.56-3.04-4.73-4.14-7.41-3.18-7.75-5.01-16.41-7.27-24.47l-11.97-43.24Z"/>
  <path class="cls-16" d="m536.21,336.6c1.55-1.81,2.34-3.38,3.21-5.57,9.75,3.51,19.51,7.34,29.39,10.47l3.68,1.33,12.82,4.76c-3.45,11.39-7.43,22.52-12.52,33.29-1.23-1.34-1.16-1.67-1.41-3.41.3-1.78.53-2.19-.23-3.88-2.52-1.7-6.26-1.52-9.22-1.79l-4.35-1.11c-8.77-3.6-12.33-10.31-15.68-18.68-.62-1.55-1.24-3.9-2.38-5.09-.64-.67-2.32-.53-3.23-.61l-1.11-.16c1.47-.8,3.34-1.68,4.2-3.19.64-1.12.91-2.28.43-3.53-.6-1.56-2.2-2.18-3.6-2.83Z"/>
  <path class="cls-16" d="m572.49,342.83l12.82,4.76c-3.45,11.39-7.43,22.52-12.52,33.29-1.23-1.34-1.16-1.67-1.41-3.41.3-1.78.53-2.19-.23-3.88-2.52-1.7-6.26-1.52-9.22-1.79,3.44-9.71,7.72-19.02,10.56-28.97Z"/>
  <path class="cls-3" d="m568.8,341.5l3.68,1.33c-2.84,9.95-7.12,19.26-10.56,28.97l-4.35-1.11c4.12-9.6,7.54-19.42,11.23-29.18Z"/>
  <path class="cls-16" d="m550.64,395.3c2.36-1.01,14.13-3.86,16.37-3.76-7.43,12-16.67,24.74-31.2,28.23-6.88,1.65-14.02.95-20.98.32-1.22-4.03-3.78-9.99-3.44-14.14.78-1.73.68-2.9.5-4.77l2.92,1.12c.74,1.56,1.13,2.54,2.67,3.39,1.38-.06,1.83-.04,2.84-1.13.27-.29.46-.69.64-1.04,4.64.28,9.03.78,13.71.63,2.83-1.64,5.07-3.41,7.33-5.75,2.02-.07,4.05-.09,6.05-.37,1.13-.57,1.84-1.76,2.59-2.74Z"/>
  <path class="cls-3" d="m541.99,398.41c2.02-.07,4.05-.09,6.05-.37-5,5.15-9.73,10.34-17.51,10.39-6.4.03-12.78-2.25-19.15-2.47.78-1.73.68-2.9.5-4.77l2.92,1.12c.74,1.56,1.13,2.54,2.67,3.39,1.38-.06,1.83-.04,2.84-1.13.27-.29.46-.69.64-1.04,4.64.28,9.03.78,13.71.63,2.83-1.64,5.07-3.41,7.33-5.75Z"/>
  <path class="cls-16" d="m488.51,326.06c.62-.99,1.09-2.05,1.61-3.1.83-1.68,1.56-3.02,3.38-3.64,2.15,2.86,1.08,12.71,5.5,18.78,3.45,4.74,8.09,6.18,13.59,7.02.18,1.46.23,2.96,1.45,3.97.53.44,1.36.71,1.99.99.5.23,1,.47,1.51.71-7.37,10.9-8.23,28.02-5.81,40.54.76,3.73,1.79,7.39,3.08,10.96l-2.92-1.12c-1.25-2.56-3.04-4.73-4.14-7.41-3.18-7.75-5.01-16.41-7.27-24.47l-11.97-43.24Z"/>
  <path d="m520.36,350.71c.69,1,1.29,1.4,1.02,2.68-.78,3.72-2.86,7.53-3.91,11.29-3.5,12.55-2.61,27.22,3.48,38.85-.18.35-.37.75-.64,1.04-1.01,1.09-1.45,1.07-2.84,1.13-1.54-.86-1.94-1.83-2.67-3.39-1.29-3.57-2.33-7.24-3.08-10.96-2.43-12.52-1.56-29.64,5.81-40.54l2.83-.08Z"/>
  <path d="m536.28,346.3c.92.08,2.59-.06,3.23.61,1.14,1.19,1.76,3.54,2.38,5.09,3.35,8.37,6.9,15.08,15.68,18.68l4.35,1.11c2.97.27,6.71.09,9.22,1.79.76,1.69.53,2.1.23,3.88-3.46.21-6.85-.11-10.25-.78-8.58-1.7-14.97-6.12-19.76-13.41-3.08-4.68-6.22-11.27-5.08-16.97Z"/>
  <path d="m541.99,398.41l-.53-.19c-2.49-.87-4.42-1.66-6.31-3.61-1.88-1.95-4.1-5.53-3.83-8.36.11-1.15.29-1.26,1.15-1.91,4.87.49,3.89,5.62,7.49,7.85,3.81,2.36,6.65-.31,10.68,3.12-.76.98-1.46,2.17-2.59,2.74-2,.28-4.03.3-6.05.37Z"/>
  <path d="m547.61,380.71c1.23-.02,2.2.05,3.36.51,3.27,1.29,7.06,1.85,9.99,3.84.67,1.66.34,1.86-.24,3.49-1.46.16-3.05.26-4.51.1-2.75-.3-6.39-1.53-8.01-3.94-1-1.5-.8-2.34-.58-4Z"/>
  <path class="cls-15" d="m481.34,465.18c.86,1.18.64,3.67.74,5.17l.8.33c.47-.24.77-.37,1.17-.75,1.7-1.6.66-8.18.95-10.76l.67-.21c1.38,1.3.58,3.22,2,4.74,1.82.15,2.15-.35,3.64-1.32,1.82-.27,3.65-.63,5.48-.78l4.29-.67,9.15-1.14,4.37-.5c2.7.16,4.79,1.11,7.34,1.47,5.98,8.33.61,14.02,8.85,16.43,5.65-.21,15.34-2.1,19.9,2.12,1.99,1.84,2.85,4.42,2.91,7.09.08,3.59-1.2,7.21-3.8,9.74-2.09,2.03-4.72,2.44-7.47,2.95,2.79.57,5.95.96,7.6,3.58,1.61,2.55,1.6,5.5,2.56,8.23-.76,2.88-1.64,7.38-4.22,9.21-.14.1-.29.17-.44.25-1.06,2.63-2.12,5.25-3.02,7.94-.58-2.23-1.08-4.54-1.77-6.73l-4.15,1-.23-1.34c-1.08-.33-1.63-.23-2.68.09-1.45.43-1.39.84-2.07,2.13-1.41.92-2.75,1.81-4.03,2.9-1.89,1.06-3.77,2.2-5.73,3.14l-4.14,1.29-4.62.55c-1.42.06-2.93-.07-4.17.72-3.54-3.19-27.78-2.9-34.82-5.7-3.64-1.44-6.62-4.32-9.49-6.88l-2.68-3.6c-1.05-1.97-2.03-4.05-2.75-6.16-2.61-7.61-2-16.77,1.6-23.96,3.89-7.79,10.09-12.14,18.17-14.84l.08-5.74Z"/>
  <path class="cls-3" d="m543.04,521.57c1.61-.81,3-1,4.78-1.21-1.06,2.63-2.12,5.25-3.02,7.94-.58-2.23-1.08-4.54-1.77-6.73Z"/>
  <path class="cls-5" d="m483.8,474.58c.93,2.56,1.94,5.25,4.14,7,5.68,4.5,21.16.01,28.2-1.04-.6.76-1.15,1.56-1.66,2.39-1.73,2.85-2.39,6.71-1.43,9.95,1.06,3.56,3.23,5.54,6.45,7.18,1.19.32,2.57.56,3.69,1.06-1.23.53-2.32,1.16-3.37,2.01-2.31,1.86-3.94,4.81-4.22,7.77-.31,3.23.78,6.29,2.96,8.67,2.73,2.99,5.53,3.07,9.32,3.3-2,1.02-4.08,2.19-6.21,2.91-2.7.92-5.7,1.3-8.55,1.28-6.63-.04-30.84-2.78-36.19-5.45-5.54-2.78-9.73-7.68-11.6-13.59-2.12-6.79-1.48-14.14,1.76-20.46,3.7-7.1,9.28-10.62,16.71-12.97Z"/>
  <path class="cls-5" d="m533.96,481.33c3.53-.19,9.99-1.33,12.99.43,1.25,1.59,1.85,3.33,2.05,5.35.19,1.84-.06,3.65-1.31,5.08-2.97,3.4-10.31,3.06-14.56,3.37-3.78.33-11.06,1.8-14.1-.7-1.33-1.1-1.96-2.82-2.09-4.49-.18-2.36.63-4.93,2.31-6.62,2.93-2.95,10.8-2.27,14.7-2.41Z"/>
  <path class="cls-5" d="m513.74,463.6c1.87-.16,3.69-.21,5.31.91,1.45,1.01,2.5,3.4,2.77,5.1.23,1.42-.04,2.74-.91,3.9-3.42,4.5-19.12,4.97-24.64,5.73-.22.04-.43.09-.65.13-1.78.3-3.16.34-4.63-.79-1.48-1.14-2.47-2.8-2.65-4.67-.17-1.81.33-3.58,1.49-4.99,3.86-4.65,18.07-4.65,23.92-5.31Z"/>
  <path class="cls-5" d="m537.34,504.09c2.49-.24,5.4-.93,7.61.51,1.77,1.15,2.95,2.89,3.23,4.99.26,1.92-.3,4.04-1.55,5.54-2.42,2.91-12.24,2.68-16.04,2.97-2.56.29-5.52.89-7.75-.75-1.66-1.22-3.09-2.98-3.28-5.09-.16-1.71.52-3.25,1.65-4.51,3.79-4.18,10.91-3.41,16.12-3.65Z"/>
  <path class="cls-6" d="m519.5,500.07c5.08-.23,13.93-1.62,18.58-.51-2.05,1.82-11.75,1.42-14.89,1.57-1.12-.5-2.5-.74-3.69-1.06Z"/>
  <path class="cls-4" d="m533.91,523.45c.68-1.28.62-1.69,2.07-2.13,1.04-.31,1.6-.41,2.68-.09l.23,1.34c13.13,44.74,25.22,89.83,37.81,134.73l13.99,49.93c2.49,8.91,5.47,17.93,7.39,26.97.33,1.55.54,2.78-.3,4.23-.75,1.3-2.06,2.12-3.5,2.45-1.43.33-2.9.33-4.15-.51-.82-.55-1.44-1.18-1.94-2.03-2.29-6.24-4.46-12.54-6.5-18.87-2.72-5.57-4.46-12.07-6.51-17.95l-12.3-35.16-30.1-85.81c-5.74-16.4-11.21-32.96-17.37-49.21l4.62-.55,4.14-1.29c1.95-.95,3.83-2.08,5.73-3.14,1.27-1.09,2.62-1.99,4.03-2.9Z"/>
  <path class="cls-8" d="m520.02,530.78l4.14-1.29c15.28,43.38,29.5,87.22,44.24,130.79l18.53,55.11c2.05,6.15,4.82,12.38,6.6,18.54.45,1.56.3,2.7-.3,4.17l-1.19.69c-1.28-.38-1.65-.5-2.42-1.67-.22-.33-.38-.77-.54-1.15l-.9,2.37c-2.29-6.24-4.46-12.54-6.5-18.87-2.72-5.57-4.46-12.07-6.51-17.95l-12.3-35.16-30.1-85.81c-5.74-16.4-11.21-32.96-17.37-49.21l4.62-.55Z"/>
  <path class="cls-4" d="m515.4,531.34l4.62-.55c4,10.22,7.22,20.88,10.73,31.29l19.2,56.86,22.25,66.08c3.9,11.66,8.19,23.34,11.63,35.15-.79-.11-1.41-.39-2.14-.68-2.72-5.57-4.46-12.07-6.51-17.95l-12.3-35.16-30.1-85.81c-5.74-16.4-11.21-32.96-17.37-49.21Z"/>
  <path class="cls-14" d="m581.68,719.48c.73.29,1.35.58,2.14.68,1.75,5.16,4.01,10.54,5.26,15.82l-.9,2.37c-2.29-6.24-4.46-12.54-6.5-18.87Z"/>
  <path class="cls-8" d="m533.91,523.45c0,.28,0,.56,0,.84.1,4.63,3.95,14.44,5.35,19.2l17.66,60.19c1.86,6.33,7.65,22.18,7.66,27.97l-.03-.12-1.02,1.44c-2.3-1.03-3.34-3.42-4.2-5.68-4.46-11.71-7.97-27.61-11.62-40-5.94-20.14-13.01-40.52-17.83-60.93,1.27-1.09,2.62-1.99,4.03-2.9Z"/>
  <path class="cls-2" d="m456.38,278.55c3.23-.45,6.74.13,9.48,2.02,1.57,1.08,2.28,2.69,2.55,4.54,1.29,9.04-6.4,17.61-12.92,22.78-1.53,1.22-4.32,2.7-5.33,4.26-.65,1.01-.54,1.29-.32,2.4l1.13.7c3.38-.19,10.19-4.91,13.98-6.3,5.21-1.92,11.96-3.31,17.17-.75,2.34,1.15,4.17,3.07,4.94,5.6.73,2.45.43,5.09-.81,7.32-8.05,14.65-28.65-.93-35.32.91l-.51,1.07c1.68,4.17,9.8,6.57,13.14,9.91,4.28,4.27,8.43,9.71,8.18,16.09-.09,2.18-.75,4.17-2.45,5.62-2.15,1.84-5.62,2.57-8.39,2.26-14.25-1.61-12.31-25.9-16.4-30-.65-.65-.79-.46-1.65-.47-1.6,2.88-1.11,15.93-3.38,21.92-1.99,5.22-4.86,8.43-9.96,10.69-1.91.1-3.68.07-5.46-.74-2.4-1.1-4.37-2.92-5.17-5.48-2.65-8.45,4.76-17.18,10.83-22.14,2.34-1.91,6.13-3.86,7.62-6.46l-.52-1.44c-.29-.2-.53-.49-.87-.59-.33-.09-16.99,7.3-20.62,7.88-3.82.6-9.14.99-12.33-1.54-2.08-1.64-2.94-4.13-3.22-6.68-.32-2.85-.01-6.06,1.97-8.29,1.74-1.96,4.34-2.63,6.85-2.96,12.12-1.58,19.02,5.1,26.81,4.86l.64-.8c-.28-1.29-.4-1.62-1.38-2.53-5.91-5.44-12.35-7.44-17.29-14.65-1.9-2.77-3.14-5.86-2.39-9.25.62-2.82,2.39-5.45,4.88-6.94,1.94-1.16,4.17-1.67,6.36-.98,10.25,3.25,12.28,13.8,13.76,23,.33,2.07.53,5.25,1.59,7.06.38.65.73.53,1.4.68,1.08-.73,1.83-1.24,2.03-2.64.21-1.46-.11-3.23-.09-4.74.06-4.67.67-9.08,1.98-13.57,1.64-5.58,4.45-8.9,9.5-11.64Z"/>
  <path class="cls-16" d="m473.15,820.08c7.08-.44,14.09,1.63,19.79,5.85,6.46,4.9,10.66,12.21,11.65,20.26,1.13,9.16-1.46,19.53-7.3,26.75-5.44,6.72-12.74,10.07-21.21,10.92-7.54.23-14.54-1.41-20.57-6.14-6.29-4.94-10.32-12.2-11.2-20.14-1.04-9.18,1.52-19.38,7.39-26.59,5.58-6.85,12.83-9.96,21.44-10.92Z"/>
  <path class="cls-16" d="m631.18,820.36c17.19-1.74,32.54,10.78,34.29,27.97,1.75,17.19-10.76,32.54-27.95,34.3-17.21,1.76-32.58-10.76-34.33-27.96-1.75-17.2,10.78-32.57,27.99-34.31Z"/>
  <path class="cls-16" d="m613.44,287.85c10.82-6.1,21.68-12.13,32.57-18.1.88,10.5,2.46,21.03,3.64,31.51.78,6.89.83,14.64,2.73,21.28l-45.4,14.94-6.79,2.4c-2.77.47-5.9,1.89-8.61,2.78l21.86-54.81Z"/>
  <path class="cls-3" d="m600.19,339.88c4.25-8.44,21.65-51.39,24.58-54.59.98-1.07,1.53-1.14,2.94-1.15,3.16,4.03-21.91,48.01-20.73,53.34l-6.79,2.4Z"/>
  <path class="cls-4" d="m464.8,386.28c2.89,2.09,5.74,4.24,8.55,6.44,2.09,1.34,4.48,2.62,6.34,4.26,4.73,2.82,9.52,5.57,14.16,8.54l5.37,2.23c2.71.77,5.33,1.46,8.12,1.87,3.03,10.58,6,21.18,8.9,31.8,1.77,6.42,3.24,13.17,5.71,19.35-2.54-.37-4.64-1.32-7.34-1.47l-4.37.5-9.15,1.14-4.29.67c-1.83.15-3.67.51-5.48.78-7.93-25.56-17.81-50.78-26.51-76.11Z"/>
  <path class="cls-4" d="m464.8,386.28c2.89,2.09,5.74,4.24,8.55,6.44,2.09,1.34,4.48,2.62,6.34,4.26,4.27,13.69,9.02,27.25,13.6,40.84,2.58,7.64,4.82,15.63,7.79,23.11l-4.29.67c-1.83.15-3.67.51-5.48.78-7.93-25.56-17.81-50.78-26.51-76.11Z"/>
  <path class="cls-8" d="m473.35,392.72c2.09,1.34,4.48,2.62,6.34,4.26,4.27,13.69,9.02,27.25,13.6,40.84,2.58,7.64,4.82,15.63,7.79,23.11l-4.29.67c-7.83-22.83-14.63-46.44-23.44-68.88Z"/>
  <path class="cls-4" d="m499.22,407.75c2.71.77,5.33,1.46,8.12,1.87,3.03,10.58,6,21.18,8.9,31.8,1.77,6.42,3.24,13.17,5.71,19.35-2.54-.37-4.64-1.32-7.34-1.47-5.48-17.06-9.63-34.57-15.38-51.55Z"/>
  <path class="cls-8" d="m493.85,405.52l5.37,2.23c5.75,16.97,9.9,34.48,15.38,51.55l-4.37.5c-4.03-12.13-7.29-24.65-10.88-36.93-1.69-5.78-3.14-11.81-5.51-17.34Z"/>
  <path class="cls-16" d="m421.99,362.55c4.93.93,9.26,1.17,13.67-1.75,4.96-3.28,7.33-8.97,9.36-14.3,2.26,4.65,5.49,9.96,6.28,15.11.68,4.4-2.91,11.48-1.01,15.22,1.25,2.47,6.1,4.19,8.38,5.67l2.31,6.18,1.85,5.28,5.43,15.72c-9.09-2.65-61.46-18.63-65.51-22.53-.92-.88-1.69-2.31-1.66-3.61.05-2.51,2.97-4.64,4.65-6.2l3.99-3.56,12.25-11.23Z"/>
  <path class="cls-16" d="m421.99,362.55c4.93.93,9.26,1.17,13.67-1.75,4.96-3.28,7.33-8.97,9.36-14.3,2.26,4.65,5.49,9.96,6.28,15.11.68,4.4-2.91,11.48-1.01,15.22,1.25,2.47,6.1,4.19,8.38,5.67l2.31,6.18c-7.7-1.5-15.41-4.1-22.95-6.26-9.39-2.7-19.17-5.14-28.3-8.64l12.25-11.23Z"/>
  <path class="cls-3" d="m405.75,377.33l3.99-3.56c9.13,3.5,18.9,5.94,28.3,8.64,7.54,2.16,15.25,4.76,22.95,6.26l1.85,5.28-57.09-16.62Z"/>
  <path class="cls-2" d="m506.25,240.9c3.26,2.56,6.5,6.2,8.75,9.69,2.75,4.24,4.62,9.36,3.38,14.45-1.92,7.89-7.77,10.08-13.55,14.44-1.22.92-1.46,1.47-1.58,2.94.71,1.24.7,1.29,2.02,1.81,4.43-.47,8.43-4.38,11.89-7.01,3.82,2.59,7.45,5.97,9.59,10.11,2.72,5.25,2.18,10.06.59,15.49-1.84,3.4-3.64,6.7-5.97,9.8-17.46-13.1-25.48-30.15-30.64-50.87,4-7.27,10.45-14.23,15.52-20.85Z"/>
  <path class="cls-4" d="m467.97,331.19c6.05.35,11.13.16,16.77-2.27l17.64,62.84-8.44-3.7c-1.86-.46-3.72-1.14-5.55-1.72-7.21-2.09-14.51-3.81-21.89-5.16.87-4.07,1.76-8.08,2.15-12.23-3.39-3.09-7.34-5.5-11.17-8.02,4.9.64,9.18.73,13.42-2.34,2.8-2.03,4.49-5.13,4.99-8.53.78-5.29-1.36-11.06-4.66-15.18-1.03-1.27-2.11-2.5-3.24-3.68Z"/>
  <path class="cls-8" d="m488.38,386.34c-1.68-7.48-10.4-28.96-7.7-34.81l1.49.05-1.4-.2,1.66.6c5.36,11.38,6.26,24.71,11.5,36.08-1.86-.46-3.72-1.14-5.55-1.72Z"/>
  <path class="cls-1" d="m533.22,282.12c22.32,8.32,43.87,10.37,67.48,7.73-.05,4.75.62,8.41,2.15,12.92l-2.09,5.18c-.26.74-.66,1.48-.99,2.19-4.44,1.62-36.9.44-44.09.39-5.97-5.82-12.24-11.52-17.9-17.64-3.57-3.87-4.75-5.47-4.57-10.78Z"/>
  <path class="cls-2" d="m506.63,306.37c4.56,4.71,13.54,14.24,20.24,14.69,1.23-.71,1.58-.75,2.18-2.08-.99-1.76-2.45-2.54-2.61-4.56l1.08-1.38c1.69.41,3.35,3.61,4.26,5.12,1.95,3.28,3.72,7.93,2.57,11.72-1.05,3.45-4.55,5.82-7.64,7.31-5.08,2.45-12.41,4.02-17.83,2.01-3.77-1.4-6.22-4.39-7.69-8.05-1.25-3.12-1.29-6.6-1.59-9.91,2.19.45,4.43.83,6.59,1.4l3.18.32c.85-1.34,1.15-1.92.88-3.46-2.34-2.79-9-3.29-12.5-4.24-3.4-.93-5.69-1.56-7.49-4.74,3.32,1.55,7.24,3.68,10.95,3.84,1.51.07,2.93-.21,4-1.35,1.73-1.83,1.55-4.29,1.42-6.62Z"/>
  <path class="cls-5" d="m506.19,322.62l3.18.32c2.14,1.83,1.95,3.92,3.55,5.84,1.68,2.02,4.65,2.33,5.78,4.89.09,1.16.23,2.19-.33,3.26-.49.95-1.41,1.65-2.47,1.89-2.69.61-5.92-.79-8.01-2.4-2.28-1.76-4.07-4.17-4.29-7.12-.2-2.76.74-4.71,2.58-6.69Z"/>
  <path class="cls-16" d="m534.13,295.23c8.5,8.38,16.92,16.84,25.27,25.37,6.68,6.7,13.64,13.25,20.09,20.16-6.53-2.24-13.2-4.38-19.57-7.06-3.76-1.02-7.7-2.37-11.24-3.99l-8.65-3.02c-.52-2.66-1.26-5.14-2.1-7.7-2.09-3.69-5.88-8.08-7.1-11.95l.88-1.6c1.12-3.39,1.84-6.68,2.42-10.2Z"/>
  <path class="cls-3" d="m537.93,318.98c-2.09-3.69-5.88-8.08-7.1-11.95l.88-1.6c9.32,9.31,19.51,18.43,28.21,28.27-3.76-1.02-7.7-2.37-11.24-3.99l-8.65-3.02c-.52-2.66-1.26-5.14-2.1-7.7Z"/>
  <path class="cls-16" d="m537.93,318.98l.84-.14c2.61,2.42,9.33,7.61,9.91,10.86l-8.65-3.02c-.52-2.66-1.26-5.14-2.1-7.7Z"/>
  <path class="cls-5" d="m481.23,277.28c1.58-3.58,3.54-6.88,5.52-10.24l2.49,8.27c.99,2.78,1.89,5.63,3.07,8.34l2.97,6.3c3.13,5.57,6.51,10.72,10.64,15.61l.72.81c.13,2.33.31,4.78-1.42,6.62-1.07,1.14-2.49,1.42-4,1.35-3.71-.16-7.63-2.29-10.95-3.84-1.85-4.36-7.09-4.89-8.64-8.61-1.07-4.23-3.59-11.39-2.14-15.67,1.31-3.84,5.22-1.22,7.94-2.48l.52-1.65c-.9-4.02-4.26-1.81-6.95-3.6l.23-1.2Z"/>
  <path class="cls-2" d="m481.23,277.28c1.58-3.58,3.54-6.88,5.52-10.24l2.49,8.27c.99,2.78,1.89,5.63,3.07,8.34-2.18-.03-3.46.3-5.07,1.82-4.24,4.01-4.86,10.97-5.61,16.41-1.07-4.23-3.59-11.39-2.14-15.67,1.31-3.84,5.22-1.22,7.94-2.48l.52-1.65c-.9-4.02-4.26-1.81-6.95-3.6l.23-1.2Z"/>
  <path class="cls-5" d="m481.23,277.28c1.58-3.58,3.54-6.88,5.52-10.24l2.49,8.27c-2.73,1.94-4.71,2.16-8.01,1.97Z"/>
  <path class="cls-2" d="m495.27,289.94c3.13,5.57,6.51,10.72,10.64,15.61-2.74-.63-5.43-1.48-8.03-2.55-2.01-.82-3.68-2.11-4.47-4.2-1.18-3.11.64-6.06,1.86-8.87Z"/>
  <path class="cls-3" d="m559.53,314.52h38.63c-2.34,6.36-5.03,12.62-7.55,18.9l-3.56,8.88-27.52-27.78Z"/>
  <path class="cls-12" d="m478.32,253.68c4.19-.38,8.59-.11,12.8-.11l-5.81,7.72c-9.24,2.57-16.35,7.16-24.13,12.58-1.3.11-2.59.12-3.89.26-5.93.67-9.37,5.12-12.76,9.47l-3.67,4.74-3.4-5.01c11.02-12.81,24.19-25.13,40.85-29.66Z"/>
  <path class="cls-2" d="m554.43,515.04l.75.32c2.06,3,2.76,53.22,3.68,61.8-.8-2.43-1.46-4.93-2.17-7.39-3.69-11.29-7.15-23.6-9.63-35.21,2.14-6.17,3.94-14.04,7.37-19.52Z"/>
  <path class="cls-12" d="m477.91,242.68c6.88-.62,12.91.66,19.43,2.8l-3.38,4.35c-9.88-1.59-19.61-.34-29.27,1.85-5.39,1.35-10.6,3.28-15.76,5.31,7.77-9.83,16.69-12.84,28.96-14.3Z"/>
  <path class="cls-11" d="m473.49,387.07c9.42,1.73,21.39,4.51,29.27,10.04,3.04,2.13,4.7,4.02,5.33,7.71-9.33.92-27.32-11.91-34.61-17.75Z"/>
  <path class="cls-7" d="m512.59,345.13c7.93-.63,15.59-1.51,21.85-7.04.58-.51,1.17-1,1.77-1.5,1.4.65,3,1.27,3.6,2.83.48,1.24.21,2.41-.43,3.53-.86,1.52-2.73,2.39-4.2,3.19-4.4,2.04-8.69,3.14-13.45,4-.78.14-.51.1-1.37.57l-2.83.08c-.5-.23-1-.48-1.51-.71-.63-.28-1.45-.55-1.99-.99-1.22-1.01-1.27-2.51-1.45-3.97Z"/>
  <path class="cls-5" d="m673.58,204.1c2.68,1.7,5.02,3.7,6.48,6.55,3.24,6.3,1.15,13.64-1.01,19.9-.57,1.04-.97,2.08-2.07,2.65-.61-9.78-2.02-19.41-3.4-29.11Z"/>
  <path class="cls-5" d="m669.41,211.28c2.11,5.03,2.54,20.22,2.93,26.29l-5.94,2.14-1.4-.02-.59-.62c1.81-9.24,3.47-18.51,4.99-27.8Z"/>
  <path class="cls-3" d="m414.01,230.59l8.26,7.78-2.48,10.82-8.81-8.05,3.03-10.55Z"/>
  <path class="cls-11" d="m455.6,364.96c2.99,1.55,5.84,3.9,8.61,5.85l-1.68,8.77-8.4-4.86,1.47-9.75Z"/>
  <path class="cls-12" d="m480.44,267.35l.52.64c-1.69,3.32-3.25,6.7-4.67,10.14-2.73-.6-5.53-1-8.28-1.48l-1.29-.62c.04-.13.07-.26.13-.38,1.57-3.12,10.45-6.79,13.6-8.3Z"/>
  <path class="cls-12" d="m456.8,258.66l.31.22c-1.99,1.99-4.52,3.49-6.69,5.29-3.6,2.99-6.9,6.31-10.2,9.62-.26-.16-.27-.55-.39-.83.7-1.73,1.38-3.51,2.23-5.17,2.83-5.53,9.34-7.2,14.75-9.12Z"/>
  <path class="cls-12" d="m471.78,281.51l1.99.4c1.98,1.96,1.14,9.97,1.51,13.09-1.01-.17-1.82-.34-2.75-.79-.34-1.87-.19-3.83-.04-5.72.21-2.55-.16-4.5-.72-6.97Z"/>
  <path class="cls-12" d="m470.03,298.5c2,.24,4.95.42,6.46,1.84-1.15,1.07-2.22.96-3.75,1.19l-5.91,1.25,3.2-4.27Z"/>
  <path class="cls-9" d="m453.5,241.69c.85.08,1.65.24,2.49.4l.07.71c-1.22,1.42-2.55,2.71-3.88,4.01l-1.13.9c0-1.97,1.57-4.27,2.45-6.02Z"/>
  <path class="cls-15" d="m583.56,467.23c-1.26.22-4.3.25-5.38-.4,3.49-1.04,6.98-.82,10.57-.66l-5.19,1.06Z"/>
  <path class="cls-15" d="m801.78,512.51c2.63.7,5.36,1.35,7.81,2.55,3.59,1.76,7.26,4.62,11.1,5.68,8.54,2.36,26.09-1.62,31.18,6.98,1.64,2.77,1.79,6.86.96,9.92-1.05,3.88-4.18,5.91-7.52,7.68-.39.21-.79.41-1.18.62l-1.42,5.43c-3.37,3.43-6.08,5.09-11.09,5.22-3.56.1-7.3-.41-10.86-.7-4.63,5.75-9.75,9.6-17.3,10.32-1.82.17-3.66.24-5.49.32,3.13,3.51,5.21,6.4,4.87,11.39-.22,3.33-1.78,6.67-4.41,8.77-2.36,1.89-5.37,2.26-8.29,1.87-7.35-.98-18.66-17.76-23.14-24.12-3.89-5.54,1.08-7.76-7.09-10.15l.03-.29c1.08-1.51,2.15-2.27,3.72-3.26,13.08-9.55,22.6-24.11,34.56-35.03,1.13-1.13,2.35-2.15,3.56-3.19Z"/>
  <path class="cls-5" d="m798.22,515.71c5.02,1.76,10.26,3.33,14.99,5.79-3.1,1.9-5.75,3.72-6.66,7.49-.19.78-.33,1.56-.46,2.35-4.45,2.23-7.27,4.16-8.89,9.15-.91,2.79-.93,5.99.52,8.6,1.59,2.87,4.84,4.65,7.96,5.34,3.2.71,6.75.68,10.01.86-4.15,3.72-10.08,7.71-15.93,7.27-4.06-.31-6.92-2.75-9.38-5.8-3.55-4.4-6.99-10.39-13.26-10.92-5.55-.47-9.51,6.73-13.48,4.89,13.08-9.55,22.6-24.11,34.56-35.03Z"/>
  <path class="cls-5" d="m804.95,536.43c6.84-.3,13.93.36,20.77.78,4.15.25,9.9.28,12.75,3.81,1.16,1.44,1.31,3.07,1.09,4.86-.36,3.01-1.79,4.24-4.14,5.99-1.38.1-2.76.15-4.13.14-6.76-.02-24.9.02-29.34-4.82-.99-1.08-1.5-2.31-1.34-3.78.3-2.87,2.28-5.15,4.34-6.97Z"/>
  <path class="cls-5" d="m774.85,550.21c.75-.03,1.48-.05,2.23.04,3.83.48,7.37,5.85,9.62,8.68,3.23,4.07,12.82,14.08,11.99,19.14-.46,2.79-3.18,4.49-5.29,6.02-1.01.06-2.11.14-3.11-.07-4.36-.93-15.52-16.42-18.38-20.72-1.3-1.95-3.3-4.91-2.69-7.32.69-2.71,3.47-4.32,5.64-5.76Z"/>
  <path class="cls-5" d="m814.45,525.42c7.73-.34,16.22.38,23.95,1.04,3.24.28,7.4.91,9.52,3.67,1.15,1.49,1.25,3.17.98,4.97-.46,3.07-2.06,4.23-4.41,6.01-3.14-1.34-3.72-5.89-7.66-7-5.84-1.65-21.59.52-25.43-2.94-.58-.52-.41-1.04-.45-1.76.8-1.77,2.05-2.75,3.49-4Z"/>
</svg>