<svg width="256" height="256" viewBox="0 0 256 256" fill="none" xmlns="http://www.w3.org/2000/svg">
<path d="M166.073 133.737C166.434 132.034 167.104 130.311 167.704 128.676C169.334 124.235 171.661 117.903 175.731 115.19C176.537 114.651 177.519 114.219 178.51 114.447C179.288 114.626 179.792 115.133 180.219 115.777C182.145 120.288 178.735 130.743 176.921 135.271C175.616 138.531 173.947 141.617 172.111 144.604C173.116 145.619 174.699 146.556 176.125 146.751C175.26 147.807 174.137 148.531 173.229 149.518C171.549 149.181 169.746 149.197 168.038 149.189C167.133 150.109 166.496 151.314 165.677 152.321C164.966 153.192 160.935 157.461 160.052 157.708C160.489 157.051 161.1 156.449 161.605 155.84C162.383 154.902 162.978 153.968 163.557 152.899C163.246 152.639 162.957 152.478 162.59 152.307L162.455 152.245L162.613 151.96L162.476 152.126C164.013 148.05 165.514 143.989 166.392 139.704C166.656 138.41 166.72 137.082 166.945 135.782C167.169 134.482 167.302 133.24 167.47 131.933C167.533 131.446 167.709 130.92 167.693 130.432C167.359 131.265 166.574 135.425 166.515 135.499C166.565 134.666 166.699 133.846 166.739 133.009C166.359 133.644 166.23 134.886 166.054 135.634C166.061 135.07 166.325 134.242 166.073 133.737Z" fill="#ADDB2B"/>
<path d="M166.073 133.737C166.434 132.034 167.104 130.311 167.704 128.676C169.334 124.235 171.662 117.903 175.731 115.19C176.538 114.651 177.519 114.219 178.51 114.447C179.288 114.626 179.792 115.133 180.219 115.777C178.668 117.443 177.036 119.051 175.865 121.021C174.269 123.707 173.323 126.835 172.455 129.818C171.361 133.571 170.35 137.342 169.208 141.082C168.355 143.879 167.473 146.816 166.066 149.388C165.367 150.663 164.466 151.77 163.557 152.899C163.246 152.639 162.957 152.478 162.591 152.307L162.455 152.245L162.613 151.96L162.476 152.126C164.013 148.05 165.514 143.989 166.392 139.704C166.656 138.41 166.72 137.082 166.945 135.782C167.169 134.482 167.302 133.24 167.47 131.933C167.533 131.446 167.709 130.92 167.693 130.432C167.36 131.265 166.574 135.425 166.515 135.499C166.565 134.666 166.699 133.846 166.739 133.009C166.359 133.644 166.231 134.886 166.054 135.634C166.061 135.07 166.325 134.242 166.073 133.737Z" fill="#80C535"/>
<path d="M65.2997 130.897C65.7306 128.081 67.2321 119.911 69.4751 118.202C69.7857 117.965 70.1336 117.834 70.5294 117.902C71.5118 118.073 72.4271 119.195 72.9315 119.986C74.2386 122.037 74.8776 124.853 75.0826 127.25C75.2981 129.954 75.2545 132.672 74.9522 135.367C74.7828 136.842 74.4753 138.351 74.3889 139.828C74.3709 140.136 74.3726 140.294 74.5875 140.529C75.1824 140.404 75.7878 139.454 76.109 138.954C79.4305 133.789 82.3382 129.619 87.5886 126.106C88.7604 125.322 90.0799 124.463 91.4637 124.116C92.1016 123.956 92.8486 123.894 93.4309 124.261C93.9238 124.571 94.1574 125.12 94.2445 125.677C94.6845 128.487 92.1693 132.074 90.5711 134.174C89.0825 136.128 87.2838 137.907 85.6002 139.697C83.9184 141.295 82.2213 142.877 80.5091 144.443C79.3816 145.465 78.1913 146.449 77.1185 147.528C77.1722 146.965 77.3718 146.604 77.5976 146.098C77.7766 145.697 77.6448 145.432 77.4957 145.055C76.1311 146.682 74.9389 148.457 73.5133 150.031C74.6743 147.948 75.9982 145.961 77.1176 143.853C77.0349 142.8 77.3093 141.845 77.5727 140.838C76.2941 142.719 75.0588 144.657 73.7174 146.493C73.7545 144.892 73.907 143.095 73.6598 141.514C73.3891 143.016 73.3417 144.588 73.0118 146.069C72.7229 147.366 72.1779 148.604 71.8178 149.882C71.6665 150.419 71.6192 151.13 71.3261 151.602C71.2753 151.368 71.281 151.342 71.329 151.121C71.8222 148.851 72.0606 146.456 72.7065 144.225C71.4863 146.107 70.8395 148.206 70.4158 150.4C70.21 149.105 70.0424 146.961 69.0605 146.005C68.6566 144.823 68.5768 143.507 68.2643 142.292C67.388 138.886 65.8015 134.508 63.9268 131.527L65.2997 130.897Z" fill="#59AC38"/>
<path d="M70.2323 125.426C70.392 125.478 70.5304 125.558 70.6787 125.635C71.6743 126.955 70.7716 135.338 70.7006 137.403L70.591 137.431C70.5763 137.4 70.5581 137.369 70.5467 137.337C70.4294 137.003 69.9539 127.16 70.0042 126.214C70.0191 125.932 70.116 125.679 70.2323 125.426Z" fill="#6CB938"/>
<path d="M183.494 145.769C183.559 145.214 183.223 139.643 183.119 139.223C182.91 138.388 182.546 137.582 182.3 136.755C181.936 135.536 181.938 134.005 182.033 132.741C182.151 131.152 182.598 128.74 183.895 127.69C184.359 127.315 184.931 127.169 185.519 127.247C188.411 127.631 191.539 133.169 193.236 135.405C193.114 134.635 193.024 133.861 192.964 133.083C192.852 131.608 192.781 129.743 193.85 128.577C194.195 128.201 194.652 127.945 195.172 127.945C196.303 127.944 197.396 128.95 198.184 129.674L197.801 129.788C197.556 130.387 197.793 130.98 198.033 131.558C198.686 133.135 200.155 134.059 200.769 135.588C202.148 139.029 200.695 143.901 201.246 147.561C201.247 148.366 201.227 149.172 201.342 149.97L201.226 150.367C201.078 150.307 200.958 150.25 200.823 150.164C200.727 151.722 201.031 153.31 200.797 154.877C200.03 151.719 197.917 149.678 196.083 147.128C197.067 150.043 198.359 153.94 200.148 156.429C199.649 156.023 199.202 155.624 198.775 155.137C198.253 155.522 197.908 156.802 197.292 157.413C197.635 157.68 198.079 157.944 198.306 158.315C198.462 159.271 198.053 160.961 197.5 161.756C196.17 161.191 195.357 160.147 194.255 159.273L194.064 159.122L193.379 158.553C192.437 158.048 191.52 157.408 190.602 156.853C186.331 154.274 182.86 152.57 177.77 152.459C177.485 152.155 177.225 151.826 176.955 151.507C174.782 152.99 172.302 152.859 169.884 153.67C167.11 154.6 164.602 156.183 161.867 157.186C161.031 157.391 160.516 157.8 159.878 158.344L159.858 157.875L160.052 157.707C160.935 157.461 164.965 153.191 165.677 152.32C166.496 151.313 167.133 150.109 168.038 149.189C169.746 149.196 171.549 149.18 173.228 149.517C174.137 148.531 175.26 147.807 176.125 146.751C178.923 145.877 180.802 146.187 183.494 145.769Z" fill="#ADDB2B"/>
<path d="M186.473 135.716C187.44 137.099 188.549 137.877 189.942 138.783C192.103 139.907 194.136 142.346 195.567 144.291C195.6 142.345 196.362 140.571 196.642 138.661C197.13 141.239 197.872 143.763 198.857 146.195C199.121 146.858 199.393 147.534 199.723 148.169C200.066 148.829 200.725 149.413 200.823 150.165C200.727 151.723 201.031 153.31 200.797 154.877C200.03 151.719 197.917 149.679 196.083 147.129C197.067 150.044 198.359 153.941 200.148 156.429C199.649 156.024 199.202 155.625 198.775 155.138C198.253 155.523 197.908 156.803 197.292 157.413C197.635 157.68 198.079 157.944 198.306 158.316C198.462 159.271 198.053 160.961 197.5 161.757C196.17 161.192 195.357 160.147 194.255 159.274L194.064 159.123L193.379 158.554C193.43 157.533 192.575 156.849 192.002 156.063C193.182 156.197 194.19 157.976 195.376 157.931C195.459 157.65 195.206 157.329 195.242 156.939L195.431 156.972L195.255 156.946L195.264 156.925C195.438 157.138 195.615 157.344 195.802 157.545L195.992 157.5C195.988 157.22 195.987 156.939 195.99 156.658C196.24 156.778 196.156 156.721 196.348 156.866C196.773 157.186 197.201 157.501 197.634 157.81C196.663 156.651 195.885 155.335 194.885 154.205C194.463 153.593 194.017 152.992 193.661 152.338C192.745 151.858 190.381 148.23 190.111 147.143C189.79 145.851 190.393 144.253 189.544 143.114C189.379 142.892 189.293 142.733 189.212 142.463L189.323 142.346C189.99 142.749 191.793 145.94 192.682 146.836C193.115 147.271 193.511 147.732 193.914 148.195L193.552 147.619L193.586 147.59C194.101 148.033 194.355 148.597 194.664 149.187C193.656 143.163 192.695 143.702 189.405 139.367C188.642 138.594 188.02 138.053 186.992 137.661C187.739 140.495 190.463 142.556 191.863 145.096C191.517 144.838 188.065 140.424 187.889 140.03C187.798 139.826 187.698 139.641 187.588 139.447L187.433 139.421C187.306 139.818 188.142 141.695 188.292 142.222C188.785 143.951 189.05 145.848 189.179 147.64C189.483 147.621 189.681 147.323 189.9 147.115L190 147.225C189.907 147.429 189.804 147.639 189.737 147.851C189.427 148.844 190.459 149.256 190.853 150.049C191.31 150.969 192.283 151.405 192.744 152.276C192.559 152.142 192.386 152.015 192.216 151.863C191.076 150.848 189.776 149.277 189.116 147.898C188.657 146.939 188.644 144.623 188.41 143.48C187.864 140.801 186.686 138.506 186.473 135.716Z" fill="#80C535"/>
<path d="M195.789 144.877C196.256 145.354 196.691 145.821 196.869 146.478C196.552 146.367 196.348 146.239 196.132 145.985C195.826 145.623 195.754 145.331 195.789 144.877Z" fill="#6CB938"/>
<path d="M190.172 143.808C191.45 145.841 193.035 147.589 194.503 149.477C195.956 151.343 197.303 153.286 198.775 155.137C198.253 155.523 197.908 156.803 197.293 157.413C197.635 157.68 198.079 157.944 198.306 158.315C198.462 159.271 198.053 160.961 197.5 161.757C196.17 161.191 195.357 160.147 194.255 159.273L194.064 159.122L193.379 158.553C193.43 157.533 192.575 156.849 192.002 156.062C193.182 156.197 194.19 157.976 195.376 157.93C195.459 157.65 195.206 157.329 195.242 156.939L195.431 156.971L195.255 156.946L195.264 156.925C195.439 157.137 195.615 157.344 195.802 157.545L195.992 157.5C195.988 157.219 195.987 156.939 195.99 156.658C196.24 156.777 196.156 156.721 196.349 156.866C196.773 157.186 197.201 157.5 197.634 157.809C196.663 156.65 195.885 155.335 194.885 154.205C194.463 153.593 194.018 152.991 193.661 152.338C191.352 148.891 190.17 148.366 190.172 143.808Z" fill="#449C39"/>
<path d="M183.494 145.769C184.826 147.75 187.036 148.749 188.783 150.29C190.054 151.414 191.324 152.571 192.557 153.735C193.232 154.372 193.856 155.086 194.585 155.661C194.927 155.93 195.377 156.28 195.822 156.336C195.985 156.356 195.946 156.337 196.08 156.22C195.983 156.054 195.912 155.963 195.768 155.832C195.391 155.486 195.119 154.677 194.885 154.205C195.885 155.335 196.663 156.65 197.634 157.809C197.201 157.5 196.773 157.186 196.348 156.865C196.156 156.721 196.24 156.777 195.99 156.658C195.987 156.938 195.988 157.219 195.992 157.5L195.802 157.545C195.615 157.344 195.438 157.137 195.264 156.925L195.255 156.946L195.431 156.971L195.242 156.938C195.206 157.329 195.459 157.65 195.376 157.93C194.19 157.976 193.182 156.197 192.002 156.062C192.575 156.849 193.43 157.533 193.379 158.553C192.437 158.049 191.52 157.408 190.602 156.853C186.331 154.274 182.86 152.57 177.77 152.459C177.485 152.156 177.225 151.826 176.955 151.507C174.782 152.99 172.302 152.859 169.884 153.67C167.11 154.6 164.602 156.183 161.867 157.186C161.031 157.392 160.516 157.801 159.878 158.344L159.858 157.875L160.052 157.708C160.935 157.461 164.965 153.192 165.677 152.321C166.496 151.314 167.133 150.109 168.038 149.189C169.746 149.197 171.549 149.18 173.228 149.518C174.137 148.531 175.26 147.807 176.125 146.751C178.923 145.878 180.802 146.187 183.494 145.769Z" fill="#80C535"/>
<path d="M199.627 131.197C200.633 128.176 202.789 122.759 205.748 121.309C206.863 120.763 208.111 120.843 209.245 121.289C211.26 122.079 212.847 124.048 213.654 126.011C214.97 129.217 214.449 133.579 213.109 136.696C212.117 139.003 210.764 141.16 209.683 143.428C213.917 140.625 217.99 136.571 221.379 132.798C222.867 131.143 224.308 129.08 226.024 127.675C226.652 127.16 227.213 126.888 228.036 127.032C228.883 127.179 229.711 127.684 230.188 128.405C231.056 129.719 230.823 131.474 230.477 132.926C229.696 136.2 227.927 138.528 225.691 140.949C225.432 141.229 224.605 141.952 224.83 142.35C224.881 142.331 224.931 142.314 224.981 142.295C225.896 141.959 226.702 141.318 227.621 141.046C229.917 140.37 234.38 140.804 236.547 141.791C237.423 142.188 238.266 142.847 238.576 143.793C238.813 144.514 238.659 145.261 238.285 145.905C237.144 147.873 234.317 149.142 232.24 149.787C231.742 149.896 231.283 150.005 230.814 150.204C227.689 149.55 218.366 152.84 217.509 152.587C217.003 152.696 216.511 153.022 216.055 153.265L216.112 153.251L215.834 153.466L216.433 153.55L216.465 153.674C216.155 153.865 215.864 154.054 215.582 154.285L215.588 154.489C214.547 155.217 213.665 156.099 212.746 156.97C211.889 157.646 211.472 158.225 211.045 159.227C209.91 161.876 207.67 162.168 205.129 162.722C203.606 162.07 202.501 160.954 201.074 160.19C200.138 159.58 199.212 158.967 198.306 158.315C198.079 157.944 197.635 157.68 197.293 157.413C197.908 156.803 198.253 155.523 198.775 155.137C199.202 155.625 199.649 156.024 200.148 156.429C198.359 153.94 197.067 150.044 196.083 147.129C197.917 149.679 200.03 151.719 200.797 154.877C201.031 153.31 200.727 151.723 200.823 150.165C200.958 150.25 201.079 150.307 201.226 150.367L201.342 149.971C201.227 149.173 201.247 148.366 201.246 147.562C200.695 143.902 202.148 139.029 200.769 135.588C200.155 134.059 198.686 133.135 198.033 131.558C197.794 130.98 197.556 130.387 197.801 129.788L198.184 129.674C198.664 130.167 199.201 130.658 199.627 131.197Z" fill="#ADDB2B"/>
<path d="M205.757 129.563C206.479 129.16 207.686 129.032 208.504 128.812C208.38 130.16 206.814 136.138 206.947 136.763C207.276 136.165 207.431 135.542 207.606 134.887C207.646 137.51 207.009 140.208 206.518 142.773C204.599 139.913 205.721 133.196 205.755 129.771L205.757 129.563Z" fill="#80C535"/>
<path d="M210.064 148.472L210.237 148.351C210.632 148.083 211.125 147.927 211.486 147.622C212.374 146.873 212.995 145.271 213.875 144.354C216.063 142.072 222.798 136.225 225.456 135.028C224.043 136.463 223.357 138.337 221.965 139.767C220.231 141.548 218.137 143.101 216.179 144.627C215.204 145.384 214.162 146.122 213.309 147.019C212.904 147.445 212.468 148.103 212.331 148.676C212.702 148.832 212.843 148.403 213.189 148.641C213.058 149.222 212.058 150.216 211.556 150.535C211.514 150.561 211.467 150.576 211.425 150.596C211.235 150.473 211.246 150.449 211.034 150.414C210.491 150.326 210.012 150.834 209.615 151.153C209.825 150.42 210.325 149.197 210.064 148.472Z" fill="#80C535"/>
<path d="M205.757 129.563L205.756 129.771C205.722 133.195 204.599 139.913 206.519 142.772C206.078 144.845 205.883 147.183 207.027 149.082C207.032 149.101 207.035 149.12 207.04 149.14C207.301 150.241 206.916 151.787 206.821 152.932C206.731 152.22 206.662 151.507 206.443 150.821L206.307 150.754C205.768 151.413 205.009 157.896 204.795 159.199C204.157 156.375 203.879 153.492 203.148 150.675C202.676 148.853 201.936 147.112 201.237 145.367C201.267 146.098 201.27 146.83 201.246 147.562C200.695 143.901 202.149 139.029 200.769 135.588C200.155 134.059 198.686 133.135 198.033 131.558C197.794 130.98 197.556 130.387 197.801 129.788L198.184 129.674C198.665 130.167 199.201 130.658 199.627 131.197C200.706 132.702 201.523 134.4 202.229 136.105C203.143 133.841 204.458 131.626 205.757 129.563Z" fill="#6CB938"/>
<path d="M201.246 147.562C201.27 146.83 201.267 146.098 201.237 145.367C201.936 147.112 202.676 148.853 203.148 150.676C203.879 153.493 204.157 156.375 204.795 159.199C205.009 157.896 205.768 151.413 206.307 150.754L206.443 150.822C206.662 151.508 206.731 152.22 206.821 152.932C206.916 151.787 207.301 150.241 207.04 149.14C207.034 149.12 207.032 149.101 207.027 149.082C208.131 149.168 209.07 148.912 210.064 148.472C210.325 149.197 209.825 150.42 209.615 151.153C210.012 150.834 210.491 150.326 211.034 150.414C211.246 150.449 211.235 150.473 211.425 150.596C210.253 151.644 209.285 152.9 208.569 154.299C209.034 154.116 210.257 152.231 210.785 151.727C211.191 152.576 210.612 154.91 210.357 155.839C211.592 154.584 213.31 153.292 214.808 152.358C215.671 151.821 216.613 151.365 217.435 150.77C217.959 150.39 218.479 149.544 219.071 149.354L219.092 149.461C218.813 149.844 218.776 150 218.807 150.455L218.823 150.678C218.37 151.306 217.929 151.937 217.509 152.588C217.003 152.696 216.511 153.022 216.055 153.265L216.112 153.251L215.834 153.466L216.433 153.55L216.465 153.674C216.155 153.865 215.864 154.054 215.582 154.285L215.588 154.489C214.547 155.217 213.665 156.099 212.746 156.97C211.889 157.646 211.472 158.225 211.045 159.227C209.91 161.876 207.67 162.168 205.129 162.722C203.606 162.07 202.501 160.954 201.074 160.19C200.138 159.581 199.212 158.968 198.306 158.316C198.079 157.944 197.635 157.68 197.293 157.413C197.908 156.803 198.253 155.523 198.775 155.138C199.202 155.625 199.649 156.024 200.148 156.429C198.359 153.941 197.067 150.044 196.083 147.129C197.917 149.679 200.03 151.719 200.797 154.877C201.031 153.31 200.727 151.723 200.823 150.165C200.958 150.25 201.079 150.307 201.226 150.367L201.342 149.971C201.227 149.173 201.247 148.366 201.246 147.562Z" fill="#3F8E3B"/>
<path d="M201.341 149.971C201.825 151.512 201.665 153.501 201.777 155.114C202.115 155.849 202.299 156.949 202.266 157.756L202.151 157.971C201.519 157.624 201.075 156.213 200.895 155.549C200.854 155.401 200.866 155.449 200.882 155.281L200.796 154.877C201.03 153.31 200.727 151.723 200.823 150.165C200.957 150.25 201.078 150.307 201.226 150.367L201.341 149.971Z" fill="#449C39"/>
<path d="M224.83 142.35C224.88 142.331 224.931 142.315 224.981 142.296C225.896 141.96 226.702 141.318 227.62 141.046C229.916 140.37 234.379 140.804 236.547 141.791C237.423 142.189 238.266 142.847 238.576 143.794C238.812 144.515 238.659 145.261 238.285 145.906C237.143 147.873 234.316 149.143 232.24 149.787C231.741 149.897 231.283 150.005 230.814 150.204C227.688 149.551 218.366 152.841 217.509 152.588C217.929 151.937 218.369 151.306 218.823 150.678L218.806 150.456C218.776 150 218.813 149.844 219.092 149.461L219.071 149.354C218.479 149.544 217.959 150.39 217.434 150.77C216.612 151.366 215.671 151.821 214.807 152.359C213.31 153.293 211.592 154.584 210.357 155.839C210.611 154.91 211.19 152.576 210.785 151.727C212.038 149.951 222.283 143.947 224.738 142.441L224.83 142.35Z" fill="#95CF30"/>
<path d="M224.738 142.44C224.938 142.755 224.991 142.822 224.938 143.209C224.917 143.373 224.831 143.573 224.78 143.724L224.854 143.858C225.214 143.878 225.249 143.836 225.497 144.088C225.613 144.812 225.322 145.301 224.981 145.923C227.529 145.144 230.306 145.455 232.926 145.64C227.89 146.367 222.595 146.836 218.823 150.678L218.806 150.455C218.776 150 218.813 149.844 219.092 149.461L219.071 149.354C218.479 149.544 217.959 150.39 217.434 150.77C216.612 151.365 215.671 151.821 214.807 152.359C213.31 153.292 211.592 154.584 210.357 155.839C210.611 154.91 211.19 152.576 210.785 151.727C212.038 149.951 222.283 143.947 224.738 142.44Z" fill="#6CB938"/>
<path d="M153.727 143.445C152.366 134.79 152.573 125.739 147.81 118.016C146.948 116.618 145.976 115.221 144.859 114.014C143.682 112.741 142.259 111.612 141.414 110.076C140.967 109.264 140.757 108.266 141.066 107.367C141.253 106.825 141.626 106.384 142.161 106.16C143.036 105.795 144.072 106.101 144.899 106.451C149.669 108.447 153.898 111.544 157.242 115.489C160.586 119.433 162.949 124.113 164.137 129.145C164.501 130.659 164.738 135.509 165.114 136.315C165.139 136.369 165.168 136.42 165.194 136.474L166.073 133.737C166.325 134.242 166.06 135.07 166.054 135.634C166.23 134.886 166.359 133.644 166.739 133.009C166.699 133.846 166.565 134.666 166.515 135.499C166.574 135.425 167.359 131.265 167.693 130.432C167.709 130.92 167.533 131.446 167.47 131.933C167.301 133.24 167.169 134.482 166.945 135.782C166.72 137.082 166.656 138.41 166.391 139.704C165.514 143.989 164.013 148.05 162.476 152.126L162.613 151.959L162.454 152.245L162.59 152.307C162.957 152.478 163.246 152.639 163.557 152.898C162.978 153.968 162.383 154.902 161.605 155.84C161.1 156.449 160.488 157.051 160.052 157.708L159.858 157.875L159.878 158.345C158.268 159.431 157.299 161.544 155.221 161.959C154.144 162.175 153.098 161.745 152.204 161.17C151.573 160.765 150.093 159.761 150.005 159C149.922 158.29 150.181 157.757 150.003 156.987L149.967 156.837C149.684 156.238 148.838 156.031 148.264 155.81C148.546 155.851 148.828 155.893 149.11 155.946C148.812 155.496 148.366 155.101 147.915 154.808C147.782 154.722 147.013 154.4 146.986 154.348C146.964 154.308 146.991 154.258 146.993 154.212L146.819 154.158C148.013 154.424 149.46 156.088 150.535 155.978C150.135 155.236 149.474 154.687 148.892 154.085C149.74 154.56 150.658 155.734 151.507 155.993L151.596 155.883C151.551 155.402 151.325 155.065 151.086 154.654C150.885 154.513 147.221 149.798 146.642 149.105C146.121 148.817 145.719 148.313 145.176 148.056C144.205 147.6 142.786 147.547 141.718 147.323C140.691 147.106 139.713 146.802 138.721 146.464L138.09 146.429C135.849 146.776 133.366 146.842 131.095 146.95C131.183 145.756 131.467 144.556 131.742 143.393C133.112 142.851 134.549 142.691 136.006 142.601C135.108 141.472 133.786 139.932 133.677 138.437C133.629 137.775 133.884 137.436 134.31 136.974C130.99 134.299 126.304 130.5 125.829 125.957C125.726 124.969 125.89 123.958 126.526 123.168C127.207 122.321 128.253 121.926 129.313 121.858C133.743 121.571 139.192 124.517 142.365 127.413C144.233 129.118 145.519 131.383 146.993 133.415C148.399 135.352 150.001 137.272 151.156 139.369C151.984 140.746 152.841 142.105 153.727 143.445Z" fill="#BAE62A"/>
<path d="M138.139 145.241C139.185 145.194 140.373 145.041 141.406 145.194C142.548 145.364 147.775 147.188 148.46 147.859C148.598 147.994 148.675 148.141 148.753 148.315C148.72 148.604 148.743 148.736 148.477 148.915C148.049 149.203 147.148 149.101 146.642 149.105C146.121 148.817 145.719 148.313 145.176 148.056C144.205 147.6 142.786 147.547 141.718 147.323C140.691 147.106 139.713 146.802 138.721 146.464C138.548 146.038 138.383 145.632 138.139 145.241Z" fill="#449C39"/>
<path d="M134.31 136.974C135.327 137.673 136.353 138.347 137.461 138.892C139.202 139.747 141.383 140.299 142.804 141.658C143.624 142.442 144.108 143.441 144.757 144.352L144.632 144.327C143.658 144.114 142.73 143.709 141.757 143.513C139.714 143.097 137.604 143.743 135.828 144.727L135.789 144.807L135.49 144.901C135.678 145.608 135.837 145.861 136.37 146.361C136.939 146.374 137.524 146.359 138.089 146.429C135.849 146.776 133.366 146.842 131.095 146.95C131.183 145.756 131.467 144.556 131.742 143.393C133.112 142.851 134.549 142.691 136.006 142.602C135.108 141.473 133.786 139.932 133.677 138.437C133.629 137.775 133.884 137.436 134.31 136.974Z" fill="#80C535"/>
<path d="M149.673 114.028C149.987 114.184 150.306 114.348 150.597 114.541C152.101 115.542 153.473 117.148 154.501 118.619C159.858 126.282 160.35 137.115 159.303 146.132C158.996 148.773 157.692 152.814 158.173 155.35L158.386 155.295C158.535 155.05 158.655 154.817 158.897 154.648C158.601 155.461 158.359 156.321 158.265 157.182C158.258 157.236 158.255 157.291 158.25 157.345C158.938 155.738 159.559 154.103 160.252 152.498C161.046 150.659 161.908 148.872 162.569 146.975C163.757 143.561 164.524 140.021 165.195 136.474L166.073 133.737C166.325 134.242 166.061 135.07 166.054 135.634C166.231 134.886 166.359 133.644 166.739 133.009C166.699 133.846 166.565 134.666 166.515 135.499C166.574 135.425 167.36 131.265 167.693 130.432C167.71 130.92 167.533 131.446 167.47 131.933C167.302 133.24 167.17 134.482 166.946 135.782C166.72 137.082 166.656 138.41 166.392 139.704C165.514 143.989 164.013 148.05 162.476 152.126L162.613 151.96L162.455 152.245L162.591 152.307C162.957 152.478 163.246 152.639 163.557 152.899C162.978 153.968 162.383 154.902 161.605 155.84C161.1 156.449 160.489 157.051 160.052 157.708L159.858 157.875L159.878 158.345C158.268 159.431 157.299 161.544 155.221 161.959C154.144 162.175 153.098 161.746 152.204 161.17C151.574 160.765 150.094 159.761 150.005 159C149.922 158.291 150.182 157.757 150.003 156.987L149.968 156.837C149.684 156.238 148.839 156.031 148.265 155.81C148.547 155.851 148.829 155.893 149.111 155.946C148.812 155.496 148.367 155.101 147.915 154.808C147.783 154.722 147.014 154.4 146.986 154.348C146.965 154.308 146.991 154.258 146.994 154.213L146.82 154.158C148.013 154.424 149.46 156.088 150.535 155.978C150.135 155.236 149.474 154.687 148.893 154.085C149.74 154.56 150.659 155.734 151.507 155.994L151.596 155.883C151.551 155.402 151.326 155.065 151.087 154.654C152.237 155.031 153.147 157.987 153.966 159.162C153.158 156.228 152.067 151.393 152.18 148.372C153.526 150.18 154.345 152.557 154.948 154.705C155.199 155.598 155.278 156.7 155.822 157.47L156.01 157.212C156.339 155.305 156.139 153.335 156.386 151.408C156.739 148.666 157.278 145.943 157.599 143.197C158.409 136.274 158.099 128.566 155.09 122.194C153.668 119.182 151.469 116.792 149.673 114.028Z" fill="#59AC38"/>
<path d="M134.31 136.974C130.99 134.299 126.304 130.499 125.829 125.957C125.726 124.969 125.89 123.958 126.526 123.168C127.207 122.321 128.253 121.926 129.313 121.858C133.743 121.571 139.192 124.517 142.365 127.413C144.233 129.117 145.519 131.383 146.993 133.414C148.399 135.351 150.001 137.272 151.156 139.369C151.171 140.781 151.305 142.308 150.23 143.403C150.188 143.446 150.144 143.487 150.101 143.529L149.967 143.4C148.617 142.088 147.826 140.166 146.85 138.57C144.778 135.183 142.069 131.667 138.116 130.46C137.467 130.261 136.72 130.049 136.039 130.07C135.728 130.08 135.626 130.121 135.376 130.284C135.343 130.633 135.389 130.775 135.609 131.056C136.322 131.961 137.665 132.742 138.58 133.455C139.557 134.209 140.486 135.022 141.363 135.889C143.23 137.742 145.037 139.951 146.462 142.172C147.281 143.451 147.961 144.821 148.836 146.063C148.916 146.178 148.971 146.284 149.021 146.415L148.959 146.579C147.635 146.664 145.82 145.039 144.757 144.352C144.108 143.441 143.624 142.441 142.804 141.657C141.383 140.299 139.202 139.747 137.461 138.892C136.353 138.347 135.327 137.672 134.31 136.974Z" fill="#ADDB2B"/>
<path d="M48.319 128.171C48.2453 127.248 48.3453 126.418 48.9891 125.705C49.9158 124.68 50.9213 124.42 52.2519 124.388C55.7049 124.303 58.5159 125.876 60.9625 128.224C61.7487 128.979 63.299 131.139 63.9269 131.527C65.8017 134.508 67.3882 138.886 68.2644 142.292C68.577 143.506 68.6568 144.823 69.0607 146.005C70.0425 146.961 70.2102 149.105 70.416 150.4C70.8396 148.206 71.4864 146.107 72.7067 144.225C72.0608 146.455 71.8224 148.851 71.3291 151.121C71.2812 151.341 71.2755 151.368 71.3262 151.602C71.6194 151.13 71.6667 150.419 71.818 149.881C72.1781 148.604 72.7231 147.365 73.0119 146.069C73.3418 144.587 73.3893 143.015 73.66 141.514C73.9072 143.095 73.7546 144.892 73.7175 146.493C75.059 144.657 76.2942 142.718 77.5729 140.838C77.3094 141.845 77.035 142.8 77.1177 143.852C75.9983 145.961 74.6745 147.948 73.5135 150.031C74.939 148.457 76.1312 146.682 77.4958 145.054C77.645 145.432 77.7768 145.696 77.5978 146.098C77.372 146.604 77.1724 146.965 77.1186 147.528C78.1915 146.449 79.3818 145.465 80.5093 144.443C82.2215 142.877 83.9186 141.295 85.6004 139.696C91.0441 139.386 96.5983 139.598 101.86 141.112C109.055 143.183 113.962 147.649 121.965 146.644C125.44 146.209 128.432 144.375 131.742 143.393C131.467 144.556 131.184 145.756 131.095 146.95C133.366 146.842 135.849 146.776 138.09 146.429L138.722 146.464C139.713 146.801 140.691 147.106 141.718 147.323C142.786 147.547 144.205 147.599 145.176 148.056C145.72 148.313 146.121 148.817 146.642 149.105C147.221 149.798 150.885 154.513 151.086 154.654C151.326 155.064 151.551 155.402 151.596 155.883L151.507 155.993C150.659 155.734 149.74 154.56 148.893 154.085C149.474 154.687 150.135 155.236 150.535 155.978C149.46 156.088 148.013 154.424 146.82 154.158L146.993 154.212C146.991 154.258 146.964 154.308 146.986 154.348C147.013 154.4 147.783 154.722 147.915 154.808C148.367 155.101 148.812 155.496 149.11 155.945C148.828 155.893 148.547 155.851 148.265 155.81C148.839 156.031 149.684 156.237 149.968 156.837L150.003 156.986C150.181 157.757 149.922 158.29 150.005 159C150.093 159.76 151.574 160.765 152.204 161.17C153.098 161.745 154.144 162.175 155.221 161.959C157.299 161.544 158.268 159.431 159.878 158.344C160.516 157.801 161.031 157.392 161.867 157.187C164.602 156.183 167.11 154.6 169.884 153.67C172.302 152.859 174.782 152.99 176.955 151.508C177.225 151.826 177.485 152.156 177.77 152.459C182.86 152.57 186.331 154.274 190.602 156.853C191.52 157.408 192.437 158.049 193.379 158.553L194.064 159.122L194.255 159.273C195.357 160.147 196.17 161.192 197.5 161.757C198.053 160.961 198.462 159.271 198.306 158.316C199.212 158.967 200.138 159.58 201.073 160.19C202.501 160.954 203.606 162.07 205.129 162.722C207.67 162.168 209.91 161.876 211.044 159.227C211.472 158.225 211.889 157.646 212.746 156.97C213.665 156.099 214.547 155.217 215.588 154.489L215.582 154.285C215.864 154.054 216.155 153.865 216.465 153.674L216.433 153.55L215.834 153.466L216.112 153.251L216.055 153.265C216.511 153.022 217.003 152.696 217.509 152.587C218.366 152.84 227.689 149.55 230.814 150.204C231.283 150.005 231.742 149.896 232.24 149.787C232.691 150.003 233.237 150.12 233.709 150.303C235.709 151.08 237.633 152.078 238.915 153.861C239.924 155.267 240.256 156.876 239.93 158.572C239.264 162.046 236.599 164.385 233.618 165.981C232.493 166.582 231.127 167.16 230.17 168.005C228.415 169.553 228.195 171.346 225.674 173.048C219.521 177.201 207.399 176.421 200.468 174.495C197.631 173.707 194.929 172.518 192.162 171.522C188.88 170.333 185.481 169.495 182.021 169.024C176.972 168.362 171.069 168.58 166.12 169.837C163.253 170.565 160.468 171.66 157.735 172.775C154.534 174.081 151.293 175.685 147.781 175.841C142.992 176.054 139.949 172.475 136.024 170.441C133.582 169.176 131.078 168.611 128.336 168.555C126.095 168.513 123.853 168.606 121.623 168.831C119.763 169.025 117.849 169.366 115.975 169.324C114.226 169.283 112.456 169.019 110.712 168.864C105.814 168.427 100.676 167.933 95.77 168.372C89.8323 168.903 84.128 170.513 78.3705 171.971C74.0292 173.069 69.5763 174.215 65.0726 174.268C62.6617 174.295 60.3964 173.934 58.04 173.488C51.7372 176.057 47.0925 176.697 40.3699 175.769C35.766 175.134 32.5274 173.686 29.7087 169.948C26.2756 168.599 23.0515 167.667 20.251 165.105C17.6635 162.705 16.1218 159.386 15.9581 155.861C15.865 153.457 16.4961 151.195 18.1785 149.426C22.3742 145.014 32.8507 144.893 38.6131 144.718C37.9968 144.064 37.3882 143.397 36.8305 142.692C35.8808 141.491 34.4496 139.279 34.7016 137.672C34.7654 137.266 34.9716 136.983 35.3223 136.764C37.0215 135.704 41.7825 137.394 43.5705 137.908C43.1959 137.496 42.8387 137.078 42.5276 136.615C42.1063 135.987 41.6882 135.139 41.8907 134.362C42.0368 133.802 42.492 133.416 42.9933 133.169C45.3218 132.025 48.2735 133.019 50.5516 133.793C49.56 132.024 48.4329 130.248 48.319 128.171Z" fill="#ADDB2B"/>
<path d="M217.509 152.588C218.366 152.841 227.689 149.551 230.814 150.204C230.269 151.13 229.903 151.596 228.809 151.875C227.426 152.228 225.773 152.103 224.351 152.14C221.729 152.209 219.748 152.59 217.328 153.644C216.742 153.898 216.171 154.253 215.588 154.49L215.582 154.286C215.864 154.054 216.155 153.865 216.466 153.674L216.433 153.551L215.834 153.466L216.112 153.251L216.055 153.265C216.511 153.022 217.003 152.696 217.509 152.588Z" fill="#80C535"/>
<path d="M78.5093 152.102C79.5752 151.735 80.4631 150.454 81.3464 149.753C84.3037 147.406 90.5589 146.492 94.2719 146.421C95.7669 146.394 97.2287 146.53 98.7099 146.706L98.7756 146.918C96.193 149.67 88.5056 148.923 85.929 151.447C83.623 151.56 80.6486 152.139 78.5093 152.102Z" fill="#6CB938"/>
<path d="M77.0092 147.671C77.8543 147.709 80.59 145.353 81.5256 144.792C82.904 143.966 89.5032 140.404 90.7471 141.8C90.9558 142.035 90.9938 142.15 90.9432 142.464C90.7187 143.868 87.8389 145.329 86.6962 145.91C85.092 146.729 83.4693 147.498 81.8867 148.357C80.9303 148.877 79.9208 149.597 78.9324 150.016L78.7309 149.91C78.1166 150.176 77.5783 150.593 77.0296 150.97L76.8746 150.878C75.9319 151.584 75.1833 152.187 74.001 152.426C73.7562 152.63 73.6507 152.734 73.3465 152.843L73.3237 152.799C74.653 151.213 75.5237 149.086 77.0092 147.671Z" fill="#59AC38"/>
<path d="M74.001 152.426C74.3837 151.975 74.8165 151.399 75.2868 151.044C75.5577 150.839 79.0598 149.13 79.3467 149.083C79.1221 149.504 78.0791 149.746 77.6494 150.15L76.8746 150.878C75.9319 151.584 75.1832 152.187 74.001 152.426Z" fill="#449C39"/>
<path d="M98.7101 146.706C100.6 146.979 103.871 147.414 105.156 149.026C105.332 149.248 105.415 149.502 105.521 149.759C105.6 149.948 105.691 150.3 105.882 150.376C106.919 150.782 108.054 150.886 109.119 151.201C110.48 151.604 112.783 152.887 113.42 154.21C113.6 154.585 113.684 155.055 113.558 155.461C113.388 156.008 112.864 156.344 112.364 156.556C109.846 157.618 105.681 157.458 102.922 157.491C102.176 157.5 101.055 157.374 100.364 157.636C99.7767 157.258 99.2928 156.245 98.7579 155.722C98.2455 155.222 97.5231 154.863 96.9466 154.429L97.4168 154.291C96.9302 154.191 96.4762 153.993 95.9868 153.895C95.7686 153.683 95.6657 153.404 95.5393 153.133C92.4097 151.913 89.2606 151.564 85.9292 151.447C88.5058 148.923 96.1932 149.67 98.7758 146.918L98.7101 146.706Z" fill="#95CF30"/>
<path d="M95.5391 153.134C97.593 153.874 99.5241 154.01 101.664 154.295C100.252 154.334 98.8266 154.4 97.4166 154.292C96.93 154.191 96.476 153.994 95.9865 153.896C95.7684 153.684 95.6654 153.405 95.5391 153.134Z" fill="#449C39"/>
<path d="M212.746 156.97C212.789 156.993 212.829 157.019 212.873 157.037C213.715 157.373 216.055 157.22 217.032 157.236C219.202 157.27 228.27 157.417 229.389 159.171C229.392 159.37 229.445 159.457 229.292 159.612C227.837 161.078 219.086 160.417 216.815 160.657C216.886 160.685 216.955 160.716 217.027 160.743C218.201 161.213 220.409 161.443 221.012 162.718C221.11 162.927 221.076 163.004 221.06 163.225C220.537 164.061 219.036 164.446 218.109 164.66C212.325 165.994 184.527 165.292 179.839 162.203C179.582 162.034 179.363 161.846 179.146 161.629C182.847 159.116 193.215 159.788 194.064 159.122L194.256 159.273C195.357 160.147 196.17 161.191 197.5 161.757C198.053 160.961 198.462 159.271 198.306 158.315C199.212 158.967 200.138 159.58 201.074 160.19C202.501 160.954 203.606 162.07 205.129 162.722C207.67 162.168 209.911 161.876 211.045 159.227C211.472 158.225 211.889 157.646 212.746 156.97Z" fill="#95CF30"/>
<path d="M198.306 158.316C199.212 158.968 200.138 159.581 201.073 160.19C200.024 160.901 198.839 161.942 197.5 161.757C198.053 160.961 198.462 159.271 198.306 158.316Z" fill="#80C535"/>
<path d="M161.867 157.187C162.14 157.369 162.412 157.354 162.73 157.364C166.618 157.487 170.49 157.09 174.385 157.487C175.118 157.563 176.568 157.644 177.016 158.283C177.137 158.455 177.067 158.532 177.028 158.722C175.026 160.734 168.957 160.043 167.83 160.78C167.925 161.009 168.025 161.241 168.087 161.481C168.168 161.8 168.123 161.952 167.93 162.217C167.286 163.102 165.811 163.431 164.792 163.647C161.051 164.441 156.141 164.645 152.287 164.663C147.311 164.688 130.695 163.842 126.91 161.231C126.523 160.963 126.146 160.588 126.108 160.09C126.079 159.724 126.309 159.403 126.569 159.17C129.52 156.53 143.939 155.874 147.92 156.157C148.194 156.177 148.073 156.216 148.278 156.07C148.023 155.837 144.244 155.109 143.678 155.055C142.636 154.955 140.55 155.233 139.688 154.708C140.409 154.463 147.201 155.321 148.103 155.732C148.158 155.757 148.21 155.783 148.265 155.81C148.839 156.031 149.684 156.238 149.968 156.837L150.003 156.987C150.181 157.757 149.922 158.29 150.005 159C150.093 159.761 151.574 160.765 152.204 161.17C153.098 161.745 154.144 162.175 155.221 161.959C157.299 161.544 158.268 159.431 159.878 158.345C160.516 157.801 161.031 157.392 161.867 157.187Z" fill="#95CF30"/>
<path d="M99.1131 159.791C99.1412 159.967 99.1783 160.154 99.185 160.333C99.2016 160.785 99.0883 161.097 98.7902 161.427C96.2872 164.197 83.2884 165.257 79.3825 165.475C74.6617 165.731 69.934 165.84 65.2064 165.801C57.3429 165.658 35.5746 164.45 29.9508 159.189C29.5099 158.776 29.1297 158.255 29.1222 157.628C29.1144 156.989 29.4898 156.441 29.9472 156.027C32.3392 153.862 38.7112 152.417 41.8991 152.642C41.6725 152.947 41.3612 153.292 41.2091 153.637C40.9774 154.128 40.6439 155.025 40.8793 155.558C41.0084 155.85 41.2165 156.021 41.5145 156.117C43.3227 156.701 45.9053 154.805 47.6023 154.264L47.6767 154.514C46.9631 155.155 45.2987 155.833 45.1568 156.84C45.1286 157.04 45.2186 157.253 45.3238 157.422C45.3734 157.501 45.4413 157.545 45.5126 157.598C46.4429 157.908 47.2793 158.183 48.2757 158.137C48.3224 158.139 48.3691 158.143 48.4159 158.144C50.5544 158.215 53.287 157.507 55.6329 157.457C60.0497 157.361 60.2583 158.615 63.9373 159.622C65.589 160.074 67.3276 160.183 68.9604 160.677C70.6278 161.529 72.4007 162.166 74.2784 161.543C74.8303 161.36 75.3624 161.035 75.8489 160.721C78.3061 161.209 81.2772 162.748 83.7972 162.297C85.2696 162.032 85.8173 160.546 86.5677 159.46C86.7469 159.199 86.9341 158.955 87.2453 158.854C90.0429 157.95 95.5317 160.484 99.1131 159.791Z" fill="#95CF30"/>
<path d="M48.2757 158.137C48.3224 158.139 48.3691 158.143 48.4159 158.144C50.5543 158.215 53.287 157.507 55.6328 157.457C60.0497 157.361 60.2582 158.615 63.9372 159.622C65.5889 160.074 67.3275 160.183 68.9604 160.677C68.1431 161.179 67.0933 161.504 66.1814 161.797C65.3389 162.067 64.4896 162.281 63.613 162.406C62.4584 162.571 57.3461 162.845 56.5445 162.373C56.3728 162.273 56.3071 162.188 56.2755 161.983C56.1345 161.066 57.2118 159.706 57.6746 158.917C55.9004 159.272 50.2254 160.636 48.759 160.078C48.4341 159.953 48.3976 159.9 48.25 159.609C48.291 159.214 48.5468 159.018 48.8081 158.743C48.985 158.558 48.9366 158.677 48.9333 158.4C48.7624 158.268 48.6728 158.216 48.4552 158.168C48.3959 158.156 48.3355 158.148 48.2757 158.137Z" fill="#59AC38"/>
<path d="M48.319 128.171C48.2454 127.248 48.3453 126.418 48.9891 125.705C49.9159 124.68 50.9214 124.42 52.2519 124.388C55.705 124.303 58.5159 125.876 60.9626 128.224C61.7488 128.979 63.299 131.139 63.927 131.527C65.8017 134.508 67.3882 138.886 68.2645 142.292C68.577 143.506 68.6568 144.823 69.0607 146.005C70.0426 146.961 70.2102 149.105 70.416 150.4C70.8397 148.206 71.4865 146.107 72.7068 144.225C72.0608 146.455 71.8224 148.851 71.3292 151.121C71.2812 151.341 71.2755 151.368 71.3263 151.602C71.6194 151.13 71.6667 150.419 71.818 149.881C72.1781 148.604 72.7231 147.365 73.012 146.069C73.3419 144.587 73.3893 143.015 73.6601 141.514C73.9072 143.095 73.7547 144.892 73.7176 146.493C75.059 144.657 76.2943 142.718 77.5729 140.838C77.3095 141.845 77.0351 142.8 77.1178 143.852C75.9984 145.961 74.6745 147.948 73.5135 150.031C74.9391 148.457 76.1313 146.682 77.4959 145.054C77.645 145.432 77.7768 145.696 77.5978 146.098C77.372 146.604 77.1724 146.965 77.1187 147.528L77.0094 147.671C75.524 149.086 74.6532 151.213 73.324 152.799L73.3468 152.843C73.651 152.733 73.7565 152.63 74.0013 152.426C75.1835 152.187 75.9322 151.584 76.8749 150.878L77.0298 150.97C77.5786 150.592 78.1169 150.176 78.7311 149.91L78.9326 150.016C77.1684 151.087 75.1296 152.479 73.7159 153.99C75.3796 153.08 77.0025 152.835 78.5095 152.102C80.6488 152.139 83.6232 151.56 85.9292 151.447C89.2606 151.564 92.4097 151.913 95.5393 153.134C95.6657 153.404 95.7686 153.684 95.9867 153.895C96.4762 153.993 96.9302 154.191 97.4168 154.292L96.9466 154.429C97.5231 154.863 98.2455 155.222 98.7579 155.723C99.2928 156.245 99.7766 157.258 100.364 157.636C100.58 158.016 100.774 158.284 100.714 158.741C100.431 159.377 99.717 159.555 99.1132 159.791C95.5319 160.484 90.0431 157.951 87.2455 158.854C86.9342 158.955 86.747 159.199 86.5678 159.46C85.8174 160.546 85.2698 162.032 83.7973 162.297C81.2774 162.748 78.3062 161.209 75.8491 160.721C75.3625 161.035 74.8305 161.36 74.2785 161.543C72.4008 162.166 70.628 161.529 68.9605 160.677C67.3277 160.183 65.5891 160.074 63.9374 159.622C60.2584 158.615 60.0498 157.361 55.633 157.457C53.2871 157.507 50.5545 158.215 48.4161 158.144C48.3692 158.143 48.3226 158.139 48.2759 158.137C47.2794 158.183 46.443 157.908 45.5128 157.598C45.4414 157.545 45.3736 157.501 45.324 157.422C45.2187 157.253 45.1287 157.041 45.1569 156.84C45.2988 155.833 46.9632 155.155 47.6769 154.514L47.6025 154.264C45.9055 154.805 43.3228 156.701 41.5147 156.117C41.2166 156.021 41.0086 155.85 40.8794 155.558C40.6441 155.025 40.9775 154.128 41.2092 153.637C41.3614 153.292 41.6726 152.947 41.8992 152.642C42.888 151.883 43.991 151.287 45.1669 150.874C45.755 150.558 46.3706 150.367 47.0029 150.162C46.5248 149.878 46.0658 149.579 45.6703 149.184C45.1274 148.642 44.4931 147.378 43.8318 147.134C41.7628 147.145 40.1265 145.976 38.6131 144.718C37.9969 144.064 37.3882 143.397 36.8305 142.692C35.8809 141.491 34.4497 139.279 34.7016 137.672C34.7654 137.266 34.9716 136.983 35.3224 136.764C37.0216 135.704 41.7825 137.394 43.5705 137.908C43.196 137.496 42.8388 137.078 42.5276 136.615C42.1064 135.987 41.6882 135.139 41.8908 134.362C42.0369 133.802 42.492 133.416 42.9933 133.169C45.3218 132.025 48.2736 133.019 50.5516 133.793C49.5601 132.024 48.4329 130.248 48.319 128.171Z" fill="#3F8E3B"/>
<path d="M47.003 150.162C47.9429 150.014 49.1459 149.671 50.0121 150.2C49.3141 150.34 48.6139 150.423 47.9078 150.507C47.4857 150.634 47.0482 150.744 46.6361 150.9C46.3895 150.789 46.2575 150.765 45.9967 150.808C45.7928 150.842 45.6061 150.866 45.3988 150.871L45.167 150.875C45.7552 150.559 46.3708 150.367 47.003 150.162Z" fill="#6CB938"/>
<path d="M57.4106 153.767C58.0147 153.351 58.3112 153.321 59.0211 153.454C60.7512 153.778 62.5181 154.475 64.0886 155.254C62.7542 154.982 61.1703 154.727 59.9336 154.157L59.8626 154.27C60.1846 154.555 60.926 154.577 61.0885 154.847C60.4042 155.029 59.6459 154.873 59.0286 154.532L59.0984 154.409L59.0454 154.263C58.5481 153.971 57.9686 153.89 57.4106 153.767Z" fill="#449C39"/>
<path d="M45.1667 150.875L45.3985 150.871C45.6058 150.866 45.7925 150.842 45.9964 150.808C46.2572 150.765 46.3892 150.789 46.6358 150.9C44.3551 151.749 42.9003 152.518 41.6364 154.711L41.4556 154.554C41.4276 154.194 41.4089 153.953 41.209 153.637C41.3612 153.292 41.6724 152.948 41.899 152.642C42.8878 151.883 43.9908 151.287 45.1667 150.875Z" fill="#449C39"/>
<path d="M48.0779 150.832C48.3108 150.831 48.8624 150.756 49.046 150.865C47.0514 151.225 45.6379 151.619 44.1987 153.129C43.9123 153.43 43.5149 153.797 43.3048 154.152C43.2306 154.278 43.2277 154.32 43.197 154.445C43.7762 154.142 44.1664 153.595 44.6994 153.221C45.7194 152.506 47.3019 152.033 48.5112 151.758C48.281 151.722 48.0675 151.697 47.8469 151.621L47.9181 151.403C49.4948 150.959 51.4767 151.397 53.0761 151.61L52.9084 151.63C51.9501 151.733 50.9924 151.698 50.0349 151.782C46.6458 152.083 44.9866 153.339 42.3415 155.271C42.1035 155.235 42.231 155.272 41.9697 155.124L41.9067 154.889C41.9526 154.788 41.9679 154.741 42.0429 154.643C43.4006 152.851 45.8793 151.266 48.0779 150.832Z" fill="#449C39"/>
<path d="M47.6021 154.264C50.5903 153.067 54.2896 153.17 57.4104 153.767C57.9683 153.89 58.5478 153.971 59.0451 154.263L59.0981 154.409L59.0284 154.532L58.3127 154.409L58.2187 154.479C59.1911 154.93 60.2607 155.212 61.2818 155.535L59.8313 155.694C58.1219 155.895 56.3097 155.394 54.564 155.478C51.3179 155.636 48.5943 156.833 45.5124 157.598C45.4411 157.545 45.3732 157.501 45.3236 157.422C45.2184 157.253 45.1284 157.04 45.1566 156.84C45.2985 155.833 46.9629 155.155 47.6765 154.514L47.6021 154.264Z" fill="#80C535"/>
<path d="M43.8315 147.134C46.8532 145.8 49.1165 144.878 52.3974 146.148C54.4137 146.927 57.2921 148.995 59.0331 149.489C60.045 150.158 60.9646 150.956 61.986 151.606C60.8128 151.542 59.6149 151.508 58.4527 151.334C55.3456 150.868 53.3328 150.165 50.0117 150.2C49.1455 149.671 47.9425 150.014 47.0026 150.162C46.5245 149.878 46.0655 149.579 45.67 149.184C45.1271 148.642 44.4928 147.378 43.8315 147.134Z" fill="#95CF30"/>
<path d="M95.9865 153.895C96.476 153.993 96.9299 154.191 97.4165 154.292L96.9463 154.429C97.5228 154.863 98.2452 155.222 98.7576 155.723C99.2926 156.245 99.7764 157.258 100.364 157.636C100.58 158.016 100.774 158.284 100.714 158.741C100.431 159.377 99.7167 159.555 99.1129 159.791C95.5316 160.484 90.0428 157.951 87.2452 158.854C86.9339 158.955 86.7468 159.199 86.5675 159.46C85.8171 160.546 85.2695 162.032 83.797 162.297C81.2771 162.749 78.3059 161.209 75.8488 160.721C75.8751 160.684 75.899 160.645 75.9278 160.61C77.1577 159.109 79.5778 159.408 81.3104 159.272C82.3508 159.192 85.6161 158.767 86.2205 157.938C86.344 157.768 86.2977 157.797 86.27 157.558C86.2355 157.533 86.2037 157.504 86.1663 157.482C85.5284 157.134 77.9896 156.455 76.8322 156.488C75.739 156.52 74.7699 156.706 73.7129 156.984C74.802 156.324 75.8838 155.744 77.0961 155.34C80.941 154.058 86.8892 153.817 90.967 154.323C92.3535 154.496 94.3584 155.15 95.6586 155.032C95.9866 155.002 96.0936 154.929 96.3089 154.691C96.2992 154.304 96.1944 154.211 95.9865 153.895Z" fill="#6CB938"/>
<path d="M48.3191 128.171C48.2454 127.248 48.3454 126.418 48.9892 125.705C49.9159 124.68 50.9214 124.42 52.252 124.388C55.705 124.303 58.516 125.876 60.9627 128.224C61.7488 128.979 63.2991 131.139 63.927 131.527C65.8018 134.508 67.3883 138.886 68.2645 142.292C68.5771 143.506 68.6569 144.823 69.0608 146.005C69.2219 147.49 69.844 149.052 69.6781 150.55C69.4956 150.833 69.3715 150.947 69.0771 151.111C68.7709 150.808 68.603 150.22 68.421 149.815C67.2833 147.28 65.9437 144.862 64.6731 142.394L64.4775 142.627C64.6512 142.941 64.8491 143.25 64.9663 143.589L64.8395 143.806L64.9075 143.873L64.9367 143.543L65.0225 143.898C64.2619 143.576 63.2028 141.744 62.6408 141.056C63.6293 143.183 65.0536 145.08 65.9989 147.239C65.9654 147.239 65.9316 147.244 65.8985 147.239C65.3909 147.17 63.9522 145.68 63.5529 145.253C62.6424 144.279 61.9025 143.126 61.1117 142.054C60.15 140.735 59.1099 139.475 57.997 138.28C57.0914 137.304 56.1385 136.355 55.1115 135.505C53.2061 133.931 51.0489 132.527 49.5527 130.522C49.0369 129.83 48.867 129.011 48.4126 128.311C48.382 128.264 48.3503 128.218 48.3191 128.171Z" fill="#80C535"/>
<path d="M64.4774 142.627C63.9975 141.952 63.6256 141.202 63.1332 140.526C62.1611 139.191 61.0917 137.932 60.1517 136.571C59.1979 135.191 58.3055 133.707 57.2737 132.388C56.294 131.135 54.6324 130.182 53.854 128.836C53.7058 128.579 53.6632 128.552 53.7406 128.258C53.8392 128.224 53.8834 128.2 53.9993 128.206C54.8764 128.258 56.5788 129.602 57.2677 130.192C60.2162 132.72 62.4086 136.753 64.1728 140.171C64.5563 140.914 65.2053 141.884 65.275 142.725L65.1216 142.622C64.7532 141.511 64.0695 140.478 63.4924 139.464C63.1781 139.506 63.3142 139.445 63.0802 139.64C63.6484 140.542 64.1826 141.446 64.673 142.394L64.4774 142.627Z" fill="#59AC38"/>
<path d="M63.0801 139.64C62.7915 139.469 62.2373 138.691 62.1086 138.371C61.98 138.051 62.0037 137.838 62.1104 137.523L62.3326 137.478C62.9278 137.884 63.221 138.814 63.4923 139.464C63.1781 139.506 63.3141 139.445 63.0801 139.64Z" fill="#6CB938"/>
<path d="M48.319 128.171C48.3502 128.217 48.382 128.264 48.4125 128.311C48.8669 129.01 49.0368 129.83 49.5526 130.522C51.0489 132.527 53.2061 133.93 55.1114 135.505C56.1385 136.355 57.0914 137.304 57.997 138.28C59.1099 139.475 60.15 140.735 61.1116 142.054C61.9024 143.126 62.6424 144.279 63.5529 145.253C63.9521 145.68 65.3909 147.17 65.8985 147.239C65.9316 147.244 65.9653 147.239 65.9988 147.239C67.4602 149.21 67.5361 151.992 67.9011 154.323C67.0708 152.626 65.9393 150.378 64.2985 149.325L64.084 149.375C63.8561 149.83 63.8463 150.37 63.7912 150.869C62.6599 150.766 60.4231 149.4 59.0334 149.489C57.2924 148.995 54.414 146.927 52.3977 146.148C49.1168 144.878 46.8535 145.799 43.8318 147.134C41.7628 147.145 40.1265 145.976 38.6131 144.718C37.9969 144.064 37.3882 143.397 36.8305 142.692C35.8809 141.491 34.4497 139.278 34.7016 137.672C34.7654 137.266 34.9716 136.983 35.3224 136.764C37.0216 135.704 41.7825 137.394 43.5705 137.908C43.196 137.496 42.8388 137.078 42.5276 136.615C42.1064 135.987 41.6882 135.139 41.8908 134.362C42.0369 133.802 42.492 133.416 42.9933 133.169C45.3218 132.025 48.2736 133.019 50.5516 133.793C49.5601 132.024 48.4329 130.248 48.319 128.171Z" fill="#59AC38"/>
<path d="M38.9937 138.445C42.1296 139.598 44.9819 141.649 47.6249 143.656C46.3945 143.399 44.8835 142.083 43.6594 141.526C42.6187 141.054 41.404 141.014 40.4557 140.324C39.8454 139.88 39.4109 139.067 38.9937 138.445Z" fill="#6CB938"/>
<path d="M43.5703 137.908C43.1957 137.496 42.8385 137.079 42.5274 136.615C42.1061 135.987 41.688 135.139 41.8905 134.362C42.0367 133.802 42.4918 133.416 42.9931 133.169C45.3216 132.025 48.2734 133.019 50.5514 133.794C51.8479 134.87 53.0173 136.203 54.2249 137.384C57.7781 140.863 61.1007 143.771 63.3343 148.328C59.7542 146.478 56.2825 144.381 52.6799 142.566C51.0496 141.744 49.2708 141.231 47.6317 140.418C46.8357 140.023 44.1723 137.958 43.5703 137.908Z" fill="#80C535"/>
</svg>
