<?xml version="1.0" encoding="UTF-8"?>
<svg id="_图层_1" data-name="图层 1" xmlns="http://www.w3.org/2000/svg" xmlns:xlink="http://www.w3.org/1999/xlink" viewBox="0 0 256 256">
  <defs>
    <style>
      .cls-1 {
        fill: #ffef76;
      }

      .cls-2 {
        fill: #fff86b;
      }

      .cls-3 {
        fill: #ffdc04;
      }

      .cls-4 {
        fill: #ffeb6c;
      }

      .cls-5 {
        fill: #ffca16;
      }

      .cls-6 {
        fill: #ffcb68;
      }

      .cls-7 {
        fill: #fedc69;
      }

      .cls-8 {
        fill: #ffb62f;
      }

      .cls-9 {
        fill: #ffad04;
      }

      .cls-10 {
        fill: #ffc203;
      }

      .cls-11 {
        fill: #feee92;
      }

      .cls-12 {
        fill: #fdde79;
      }

      .cls-13 {
        fill: #99321b;
      }

      .cls-14 {
        fill: url(#_未命名的渐变_27);
      }
    </style>
    <linearGradient id="_未命名的渐变_27" data-name="未命名的渐变 27" x1="4721.85" y1="-2301.67" x2="5108.8" y2="-1548.97" gradientTransform="translate(-1125 -365) scale(.25 -.25)" gradientUnits="userSpaceOnUse">
      <stop offset="0" stop-color="#ff8500"/>
      <stop offset="1" stop-color="#ffc200"/>
    </linearGradient>
  </defs>
  <path class="cls-13" d="m44.83,22.54c6.75,1.01,14.61.26,21.48.28,18.78.03,97.41-2.08,109.67,2.09,6.72,2.29,19.93,13.21,25.4,18.32,7.84,7.35,9.18,15.95,9.5,26.15.48,15.29.1,30.72.09,46.03,0,10.77,1.27,23.41-.94,33.87-1.32,6.22-4.26,12.69-8.78,17.25-10.22,10.34-32.84,7.35-46.41,7.26h-23.44s.06,56.01.06,56.01c-23.82-.42-47.68.36-71.49-.42l.11-11.31-15.39.04.15-195.57Z"/>
  <path class="cls-14" d="m52.59,30.61h76.67c12.95,0,26.93-1.19,39.72.57,4.44.61,8.37,1.47,11.67,4.7,5.86,5.75,6.5,12.48,6.69,20.21.41,16.39.05,32.88.04,49.29,0,10.86,1.42,23.8-.96,34.33-.77,3.4-2.72,7.16-5.22,9.6-9.55,9.33-38.72,6.38-51.48,6.31l-20.85-.14c.4,18.83.08,37.74.09,56.58-18.7-.65-37.62-.27-56.35-.06.61-60.44.12-120.95-.01-181.4Z"/>
  <path class="cls-4" d="m67.44,36.79c3.71.08,7.36-.08,11.06-.31l.14,1.91c-2.58.65-4.4,1.13-6.48,2.82-.05-.07-.09-.14-.16-.2-1.56-1.4-3.07-2.74-4.55-4.23Z"/>
  <path class="cls-1" d="m61.02,129.01c-.42,1.22-.34.64-.29,1.94.88,21.24.52,43.05.06,64.28-.04,1.72.2,2.83-1.11,4.09l-1.02-.51c-.95-4.28-.1-8.57-.1-12.91,0-12.34-.59-24.8-.6-37.2-.03-36.95-.77-74.1,0-111.02l-.72-.86.86.25c1.51-.61.94-.6,2.39-.47,1.94.17,3.81.36,5.76.25l1.2-.07c1.48,1.49,2.99,2.83,4.55,4.23.06.06.1.13.16.2l-.4.81c-.93,1.85-1.5,3.31-3.35,4.41-2.09.05-3.82-.12-5.88-.49-1.71,1.61-1.94,4.39-1.99,6.72-.04,1.88.19,3.12,1.22,4.74,2.21,1.44,4.88.87,7.4.72,1,.52,1.66.53,2.04,1.68.64,1.93.31,4.4-.67,6.17-.59,1.07-1.17,1.02-2.23,1.44-2.29-.48-4.94-1.65-6.95-.39-1.5,5.56.08,12.18.12,17.91.1,13.31-.21,26.91-.65,40.21-.04,1.34.04,2.54.2,3.87Z"/>
  <path class="cls-10" d="m126.68,37.18c1.21-.13,1.98-.12,3.18.07,9.33,1.47,41.78-3.88,47.75,3.83,1.53,1.97,2.92,4.07,4.39,6.09l-.09,66.13c-.05,7.51,1.03,17.36-.54,24.63-.39,1.82-1.84,3.82-3.12,5.16-3.68,3.82-9.34,5.77-14.47,6.56-6.59,1.01-13.87.42-20.54.37-11.81-.09-23.66-.29-35.46.18-.88-.74-1.77-1.47-2.67-2.19-1.27.71-2.07,1.55-3.06,2.61l-1.11-.4-.9-3.24-.84-.33c-1.14,1.59-.62,3.16-.36,5.08.53,3.9.65,43.34-.41,44.78-.17.23-.36.46-.54.68l1.67,1.99c-.44.99-.18,1-1.15,1.27-2.13.59-5.17,0-7.61.35-7.04,1.01-20.72-1.06-28.67-.48,1.35-15.62-.02-31.2-.02-46.91,0-1.07.15-1.61.72-2.51,1.81-.1,3.25.61,4.89,1.27l1.25-.72c.38-1.85.62-2.83-.11-4.62-2.02-.97-3.39-.57-5.54,0-.42-5.3-1.24-10.93-.66-16.21l.84-.97c1.98,1.02,2.22,1.48,4.35.98.35-.67.83-1.4,1.04-2.12l-1,.77c-1.54-.4-3.57-.41-4.24-2.02-.12-.3-.12-.64-.18-.96l-2.44,2.71c-.17-1.33-.25-2.53-.2-3.87.43-13.3.75-26.9.65-40.21-.04-5.73-1.62-12.35-.12-17.91,2.01-1.26,4.66-.08,6.95.39,1.06-.41,1.63-.37,2.23-1.44.98-1.76,1.31-4.24.67-6.17-.38-1.16-1.04-1.17-2.04-1.68-2.52.15-5.19.72-7.4-.72-1.03-1.62-1.26-2.86-1.22-4.74.05-2.33.28-5.11,1.99-6.72,2.06.38,3.79.55,5.88.49,1.85-1.09,2.42-2.56,3.35-4.41l.4-.81c2.08-1.7,3.91-2.17,6.48-2.82l-.14-1.91c9.16.81,18.95.47,28.16.46.28,0,.56-.07.84-.11,6.46,1.16,12.73-1.05,19.18.34Z"/>
  <path class="cls-7" d="m74.7,135.89c1.17.14,2.35.39,3.51.6,1.19,1.75.57,2.7.26,4.7l-2.4-.73c-1.58-1.75-1.29-2.27-1.37-4.57Z"/>
  <path class="cls-2" d="m151.17,60.16c1.03.22,1.96.6,2.95.97.88,2.09.31,2.79-.31,4.92-1.12-.62-2.14-1.36-3.19-2.08-.51-1.97-.17-2.01.55-3.81Z"/>
  <path class="cls-5" d="m119.42,115.12c1.38.22.88.4,1.59,0,.71,2.16.53,2.97,2.73,3.96.24.1.49.18.73.26-1.92.66-5.16.51-7.03-.23,1.83-1.39,1.57-1.69,1.98-4Z"/>
  <path class="cls-6" d="m112.7,116.04c2.32-.64,4.32-.85,6.72-.92-.41,2.3-.15,2.61-1.98,4-2.79-.58-4.34-.73-7.07.16l2.32-3.24Z"/>
  <path class="cls-3" d="m150.43,81.23c1.31.41,2.46.91,3.71,1.47.97,2.13.63,3.1.38,5.39-1.65-.28-2.56-.65-3.95-1.57-.79-2.2-.51-3.03-.15-5.29Z"/>
  <path class="cls-1" d="m119.02,48.82c1.59.65,2.75,1.38,4.12,2.43.48,1.97.2,2.18-.62,4.08-2.03-.43-3.93-.55-5.31-2.26.11-2.06.62-2.51,1.81-4.25Z"/>
  <path class="cls-11" d="m85.68,81.99c1.99,0,3.19.02,5.06.83.87,2.12.39,2.56-.29,4.69-2.05-.11-3.16-.22-5.01-1.22-.67-1.99-.4-2.27.25-4.3Z"/>
  <path class="cls-12" d="m65.23,79.52c2.16.88,4.15,1.78,5.22,3.95-.17,2.57-.82,3.21-2.22,5.32-.34,0-.69.06-1.04,0-1.56-.24-2.28-1.3-2.85-2.69-.87-2.12.09-4.64.88-6.59Z"/>
  <path class="cls-6" d="m121.01,115.13c3.68-.58,7.37-.31,11.08-.19.79.61,1.22.97,1.8,1.81l-.8,1.8c-2.91.9-5.67.32-8.62.8-.24-.08-.49-.16-.73-.26-2.21-.99-2.03-1.8-2.73-3.96Z"/>
  <path class="cls-1" d="m94.89,49.12c2.98-.24,5.37-.25,8,1.32.8,2.07.63,2.05-.15,4.16-.63.26-1.25.54-1.9.76-2.03.69-3.1.45-4.89-.46-1.21-2.11-1.16-3.45-1.06-5.78Z"/>
  <path class="cls-4" d="m74.03,69.83c1.57.09,3.34.28,4.8.91,1.84.8,2.33,1.46,3.03,3.28l-1.05,2.02c-.75.4-2.05,1.23-2.94,1.42-1.9.4-2.34.14-3.77-.9-.92-2.47-.51-4.23-.07-6.73Z"/>
  <path class="cls-1" d="m106.6,69.14c.22-1.75.34-3.43.46-5.18.13-1.95,1.01-3.51,1.87-5.22l1.8.44c1.06,2.73,1.48,4.38,1.2,7.3-.13,1.32.1,2.33.39,3.61l-2.34,1c-1.99-.21-1.97-.47-3.38-1.95Z"/>
  <path class="cls-4" d="m86.4,57.89c.88.15,1.35.2,2.24.54,1.98.76,2.8,1.86,3.73,3.66-.38,2.67-.93,3.05-2.62,5.04l-2.54.18c-2.05-.96-2.27-.96-3.33-2.92.24-3.16.74-3.83,2.53-6.5Z"/>
  <path class="cls-4" d="m75.73,46.68c1.32.56,2.76,1.17,3.96,1.94,1.74,1.13,2.23,1.95,2.66,3.92-1.35,2.36-2.4,2.74-4.69,4.11-1.38.29-2.09.04-3.43-.28-1.25-1.3-1.66-1.78-1.68-3.73-.03-2.62,1.52-4.15,3.17-5.97Z"/>
  <path class="cls-1" d="m107.5,36.84c6.46,1.16,12.73-1.05,19.18.34-3.73,2.17-6.17.96-9.88,2.27-3.24,1.15-4,5.33-7.53,6.1-2.31-1.1-2.98-3.59-3.87-5.93l2.11-2.78Z"/>
  <path class="cls-4" d="m78.49,36.49c9.16.81,18.95.47,28.16.46.28,0,.56-.07.84-.11l-2.11,2.78c-10.85-1.26-8.33,1.83-16.73,5.45-4.15,1.79-4.73-3.03-6.92-5.19-.55-.54-2.35-1.11-3.11-1.48l-.14-1.91Z"/>
  <path class="cls-1" d="m101.37,112.33c-2.38-3.67,1.03-8.3-.09-12.06-.82-2.75-4.27-2.67-5.7-5.22,2.29-1.83,5.06-4.28,5.74-7.29,2.18-9.69-3.41-7.59-6.17-13.27-.43-.88-.08-.83.4-1.97,2.45-1.46,4.28-2.76,6.09-4.99.15-.19.3-.38.45-.57h1.2s1.08,1.96,1.08,1.96c-.95,3.21-.95,6.3-1.04,9.62-.44,1.3-.26,1.95-.08,3.27.98,7.28.58,22.12.07,29.63-.62.31-1.28.72-1.95.88Z"/>
  <path class="cls-9" d="m104.37,68.92l2.23.22c1.41,1.47,1.39,1.73,3.38,1.95l2.34-1c2.07-.07,3.49.11,5.49.69.98.28.53.18,1.7.32,4.38-.77,11.75-2.56,15.64-.06,1.51.97,2.2,3,2.41,4.72,1.22,9.91-3.15,20.42-.34,30.21.8,2.78.55,7.92-.71,10.5l-1.41.75-1.2-.46c-.58-.83-1.01-1.19-1.8-1.81-3.71-.12-7.4-.4-11.08.19-.71.39-.22.21-1.59,0-2.4.07-4.4.28-6.72.92l-2.32,3.24c-.09,0-.18.02-.26,0-2.57-.24-2.77-.74-4.54-2.42-.33.25-.8.2-1.21.28-.94-1.67-1.9-3.24-2.99-4.82.67-.16,1.33-.58,1.95-.88.5-7.51.91-22.36-.07-29.63-.18-1.32-.36-1.96.08-3.27.09-3.32.09-6.4,1.04-9.62Z"/>
  <path class="cls-7" d="m105.57,116.87c.44-.4,1.09-1.03,1.6-1.3,2.07-1.12,3.48-.18,5.53.48l-2.32,3.24c-.09,0-.18.02-.26,0-2.57-.24-2.77-.74-4.54-2.42Z"/>
  <path class="cls-8" d="m104.37,68.92l2.23.22c1.41,1.47,1.39,1.73,3.38,1.95l2.34-1c2.07-.07,3.49.11,5.49.69.98.28.53.18,1.7.32-2.71,1.36-5.16.92-8.17,2.16l-.2.92c5.63,1.02,16.11-1.16,20.66,1.71l.47,1.74-.52.8-.54-.55-1.34-1.45c-6.76-.94-14.12-.25-20.99-.45-1.84.85-3.72,1.67-5.54,2.58.09-3.32.09-6.4,1.04-9.62Z"/>
  <path class="cls-13" d="m108.87,75.97c6.87.2,14.23-.5,20.99.45l1.34,1.45c-1.1,10.21-.36,21.26-.43,31.58-7.21-.25-14.47-.12-21.69-.14-.21-11.1-.12-22.23-.21-33.33Z"/>
</svg>