<svg width="200" height="200" viewBox="0 0 200 200" fill="none" xmlns="http://www.w3.org/2000/svg">
<path d="M85.7933 36.6629C93.3495 34.8873 112.02 34.7197 118.624 38.8202C119.44 39.3264 120.527 40.1956 120.773 41.1561C120.911 41.696 120.821 42.4165 120.703 42.9588C120.449 44.1297 119.934 45.2604 119.598 46.4139C119.106 48.1029 118.718 49.819 118.267 51.5174L118.07 52.245C117.986 52.466 117.919 52.6533 117.887 52.8895C117.831 53.1666 117.777 53.4435 117.711 53.7186C116.854 57.5053 115.914 61.3203 115.576 65.1971L115.33 65.3123C105.769 67.1579 94.3777 67.3067 84.8089 65.4998C83.759 61.8005 82.8304 58.0686 81.806 54.3621C81.6655 53.9751 81.5788 53.5542 81.471 53.1561C81.412 52.7813 81.3305 52.5148 81.139 52.1864C80.7242 50.9078 80.353 49.6155 80.0267 48.3114C79.6117 46.5795 78.3918 43.5309 78.3285 41.993C78.3062 41.4526 78.4454 40.9832 78.7162 40.5174C80.0213 38.2731 83.4428 37.2154 85.7933 36.6629Z" fill="#432508"/>
<path d="M112 48.222C113.974 47.7266 115.844 47.1576 117.747 46.4329C116.325 50.8079 115.214 55.2777 114.42 59.8089C114.111 61.4809 113.751 63.1995 113.643 64.8991C111.974 65.0416 110.302 65.5365 108.628 65.5472C107.087 65.6964 105.517 65.8442 103.969 65.8683C101.401 65.9422 98.8181 66.0327 96.2517 65.9002C94.9089 65.8565 93.5521 65.825 92.2142 65.7036C90.621 65.5823 89.0295 65.4357 87.4408 65.264C87.1204 65.2344 86.8415 65.1843 86.5303 65.1019C86.1278 64.3233 85.6655 61.543 85.4067 60.4922C84.2841 55.9334 83.0899 51.4003 82.0221 46.8279C82.5054 46.9834 82.9435 47.1938 83.3968 47.4179C85.845 48.2807 88.4593 48.6859 91.0321 48.9793C92.6274 49.1077 94.2522 49.2874 95.8532 49.2992C99.2785 49.3473 102.701 49.3781 106.118 49.0952C108.077 48.9386 110.106 48.7683 112 48.222Z" fill="#9A7017"/>
<path d="M82.0221 46.8279C82.5054 46.9835 82.9435 47.1938 83.3968 47.4179C85.845 48.2807 88.4593 48.6859 91.0321 48.9793C92.6274 49.1077 94.2522 49.2874 95.8532 49.2993C96.0047 54.7824 96.7505 60.4253 96.2517 65.9003C94.9089 65.8565 93.5521 65.825 92.2142 65.7036C90.621 65.5824 89.0295 65.4358 87.4408 65.264C87.1204 65.2344 86.8415 65.1843 86.5303 65.1019C86.1278 64.3234 85.6655 61.5431 85.4067 60.4922C84.2841 55.9334 83.0899 51.4004 82.0221 46.8279Z" fill="#FBDB4F"/>
<path d="M91.032 48.9792C92.6273 49.1076 94.2521 49.2874 95.8531 49.2992C96.0046 54.7823 96.7504 60.4253 96.2516 65.9002C94.9088 65.8565 93.552 65.825 92.2141 65.7035C92.2178 64.2368 91.9755 62.6906 91.8647 61.2231C91.5572 57.1488 91.1602 53.0637 91.032 48.9792Z" fill="#E9A726"/>
<path d="M82.0221 46.8279C82.5054 46.9835 82.9435 47.1938 83.3968 47.4179C84.1115 51.6075 85.266 55.7271 86.2687 59.8555C86.6808 61.5519 87.3647 63.534 87.4408 65.264C87.1204 65.2344 86.8415 65.1843 86.5304 65.1019C86.1278 64.3234 85.6655 61.5431 85.4067 60.4922C84.2841 55.9334 83.0899 51.4004 82.0221 46.8279Z" fill="#FCFFFD"/>
<path d="M95.8532 49.2993C99.2785 49.3473 102.701 49.3782 106.118 49.0952C106.116 50.8504 105.662 52.6929 105.403 54.4287C104.838 58.2146 104.205 62.048 103.969 65.8684C101.401 65.9422 98.8181 66.0328 96.2516 65.9003C96.7505 60.4253 96.0047 54.7824 95.8532 49.2993Z" fill="#BA8A1E"/>
<path d="M112 48.222C113.974 47.7266 115.844 47.1576 117.746 46.4329C116.325 50.8079 115.214 55.2777 114.42 59.8089C114.111 61.4809 113.751 63.1995 113.643 64.8991C111.974 65.0416 110.302 65.5365 108.628 65.5472C108.846 63.0502 109.566 60.5128 110.061 58.0549C110.72 54.7844 111.245 51.4705 112 48.222Z" fill="#794614"/>
<path d="M80.5489 41.2953C80.7378 41.0651 80.9363 40.8357 81.1659 40.6455C84.8487 37.5945 97.9409 37.1261 102.644 37.2394C104.29 37.2791 105.952 37.4872 107.591 37.6436C110.244 37.8252 116.795 38.8822 118.463 40.9048C118.795 41.3069 119.007 41.8182 118.94 42.3461C118.846 43.0774 118.266 43.6129 117.698 44.0234C116.63 44.7968 115.312 45.2771 114.072 45.6907C106.545 48.1995 95.3569 47.8513 87.5787 46.4637C85.2441 46.0473 82.7833 45.5253 80.8047 44.1514C80.4692 43.4166 80.0278 42.4439 80.361 41.6393C80.4115 41.5173 80.4804 41.4077 80.5489 41.2953Z" fill="#BA8A1E"/>
<path d="M107.591 37.6436C110.244 37.8251 116.795 38.8821 118.463 40.9047C118.795 41.3069 119.007 41.8182 118.94 42.3461C118.846 43.0774 118.266 43.6128 117.698 44.0234C116.63 44.7968 115.312 45.277 114.072 45.6906C106.545 48.1994 95.3569 47.8513 87.5787 46.4637C85.2441 46.0472 82.7833 45.5253 80.8047 44.1514C80.4692 43.4166 80.0278 42.4438 80.361 41.6393C80.4115 41.5172 80.4804 41.4077 80.5489 41.2952C80.8701 41.7769 81.2723 42.2508 81.7049 42.6376C84.9378 45.5289 98.2347 45.8976 102.73 45.6332C106.518 45.4106 110.538 45.1286 114.058 43.6327C114.689 43.3646 115.444 43.0696 115.889 42.5293C116.086 42.2894 116.175 42.0306 116.124 41.7223C115.839 40.0031 110.652 38.7431 109.093 38.243C108.665 38.1054 108.083 37.9975 107.719 37.7388C107.676 37.708 107.634 37.6752 107.591 37.6436Z" fill="url(#paint0_linear_97_25)"/>
<path d="M96.4383 37.9035L96.504 37.8704C100.254 38.0472 103.438 38.1828 107.104 39.1688C108.157 39.452 109.395 39.7961 110.3 40.4258C110.6 40.6347 110.932 40.9408 110.952 41.3335C110.969 41.6576 110.767 41.9364 110.547 42.1523C108.421 44.2436 100.553 44.3974 97.5023 44.3432C94.3851 44.2156 85.3446 43.6718 83.0308 41.7933C82.7881 41.5962 82.6785 41.4126 82.6446 41.0964C82.7016 40.8713 82.7675 40.7212 82.9394 40.5582C85.108 38.5021 93.4865 37.8861 96.4383 37.9035Z" fill="#FCCD36"/>
<path d="M91.545 40.3176C96.4892 39.9666 99.881 39.9991 104.795 40.6539C105.758 40.7823 107.066 40.8026 107.86 41.3891L107.861 41.5394C106.605 42.569 95.8038 42.699 93.6418 42.4901L93.4372 42.4688C92.4515 42.5136 91.3912 42.4189 90.4166 42.2699C89.2484 42.0912 87.7056 41.8496 86.9549 40.8377L86.9823 40.6554C87.5165 40.3467 87.7936 40.3229 88.3969 40.4642C89.415 40.7026 90.4888 40.1291 91.545 40.3176Z" fill="#FEF095"/>
<path d="M93.4372 42.4687C92.4515 42.5135 91.3912 42.4189 90.4166 42.2698C89.2484 42.0911 87.7056 41.8495 86.9549 40.8377L86.9823 40.6553C87.5165 40.3466 87.7936 40.3229 88.3969 40.4641C89.415 40.7025 90.4888 40.129 91.545 40.3175C91.5184 40.3317 91.4928 40.348 91.465 40.3597C90.4232 40.7978 88.8383 40.3936 87.9389 41.2909L87.9837 41.4524C89.3543 42.1555 91.8688 42.0026 93.4372 42.4687Z" fill="#FBDB4F"/>
<path d="M66.8275 61.7351C70.7442 66.1389 80.3712 67.5024 86.0167 68.2944C90.3841 68.8695 94.6984 69.1676 99.1026 69.248C101.009 69.0754 103.028 69.2052 104.954 69.1308C109.756 68.945 114.79 68.5214 119.489 67.5224C119.688 68.5109 117.954 72.2427 117.335 73.1726C114.854 76.8964 110.073 77.1293 106.159 78.2374C104.877 78.3564 103.513 78.5674 102.229 78.5261C99.9523 78.6252 91.7795 78.7086 89.9711 78.1554C86.1375 78.075 76.9336 75.9122 73.7115 73.7538C69.8395 71.1602 67.7263 66.1381 66.8275 61.7351Z" fill="url(#paint1_linear_97_25)"/>
<path d="M115.276 67.3595C103.49 69.0008 91.5127 68.6801 79.8309 66.4107C76.1271 65.6757 71.9969 64.7379 68.8349 62.5998C67.9921 62.03 67.0132 61.1437 66.8523 60.093C66.7516 59.4353 67.0654 58.8158 67.4432 58.2984C69.8806 54.9593 77.5761 53.8093 81.4708 53.1565C81.5786 53.5546 81.6661 53.9747 81.8065 54.3617C82.831 58.0684 83.7594 61.8006 84.8095 65.5001C94.3783 67.307 105.769 67.1579 115.331 65.3124L115.432 65.4175C114.066 65.8125 112.6 65.9597 111.198 66.1952C111.462 66.5342 111.716 66.8453 111.894 67.241C111.851 67.3683 111.855 67.4233 111.749 67.5108L111.801 67.5959C112.441 67.631 114.964 67.0314 115.265 67.2851L115.276 67.3595Z" fill="url(#paint2_linear_97_25)"/>
<path d="M81.8065 54.3618C82.831 58.0685 83.7594 61.8007 84.8094 65.5002C80.8568 64.838 76.5113 64.2487 73.0246 62.1482C72.3172 61.7222 71.4532 61.1229 71.2733 60.2628C71.1602 59.7222 71.3502 59.2173 71.6546 58.7746C73.4255 56.1994 78.8134 54.8664 81.8065 54.3618Z" fill="#49911C"/>
<path d="M130.411 62.6087C130.875 61.8087 132.223 61.3579 132.784 60.0298C132.796 64.7084 129.735 69.2639 126.55 72.4607C125.853 73.1607 125.139 73.7685 124.257 74.2232C120.527 76.1463 110.69 78.3044 106.521 78.2547C106.4 78.2533 106.28 78.2449 106.159 78.2374C110.073 77.1292 114.854 76.8964 117.335 73.1726C117.954 72.2427 119.688 68.5109 119.489 67.5224C120.163 67.3282 120.85 67.1659 121.528 66.9837C124.071 66.3004 129.051 64.9701 130.411 62.6087Z" fill="#49911C"/>
<path d="M117.711 53.7188C120.379 54.6075 125.401 55.4408 126.813 58.1099C127.143 58.7349 127.219 59.4339 126.976 60.1031C126.447 61.5614 124.781 62.425 123.443 63.0097C121.675 63.7819 117.515 65.118 115.575 65.1975C115.914 61.3206 116.853 57.5055 117.711 53.7188Z" fill="#13672C"/>
<path d="M117.887 52.8894C121.712 53.5371 130.176 55.4853 132.374 58.6412C132.681 59.0819 132.719 59.5121 132.784 60.0298C132.223 61.3579 130.875 61.8087 130.411 62.6087C125.782 65.3105 120.581 66.7226 115.276 67.3595L115.265 67.285C114.964 67.0313 112.441 67.631 111.801 67.5958L111.749 67.5107C111.855 67.4232 111.851 67.3682 111.894 67.2409C111.716 66.8453 111.462 66.5341 111.198 66.1951C112.6 65.9596 114.066 65.8124 115.432 65.4174L115.331 65.3123L115.575 65.1974C117.515 65.1179 121.675 63.7818 123.443 63.0096C124.781 62.4249 126.447 61.5613 126.976 60.103C127.219 59.4338 127.143 58.7348 126.813 58.1098C125.401 55.4407 120.379 54.6074 117.711 53.7186C117.777 53.4435 117.831 53.1666 117.887 52.8894Z" fill="#89D28B"/>
<path d="M78.0081 77.2466L80.9904 78.8789C82.1561 79.2684 83.2998 79.666 84.5095 79.8989C86.3745 80.3618 88.3366 80.6149 90.2421 80.8506C94.5369 81.2566 98.8553 81.3605 103.165 81.1618C103.677 81.0054 104.528 81.0561 105.076 81.0184C106.409 80.9271 107.744 80.8457 109.067 80.6523C111.407 80.31 113.649 79.6286 115.963 79.2175L116.045 79.2036C116.936 78.9768 117.821 78.7143 118.708 78.4678C119.652 78.1206 120.603 77.7894 121.509 77.3476C121.534 79.2038 121.54 81.0602 121.526 82.9166C121.52 84.2731 121.375 85.8177 121.69 87.1433C121.857 87.8474 122.165 88.381 122.678 88.8897C124.071 90.2712 126.273 91.108 127.956 92.0998C129.811 93.1772 131.598 94.3679 133.307 95.6649C146.114 105.215 154.163 119.411 154.526 135.495C154.632 140.219 154.024 145.189 152.733 149.735C150.552 157.413 145.585 166.023 140.044 171.793C129.627 182.429 115.471 188.579 100.588 188.936C92.3937 189.097 84.3088 187.669 76.7914 184.329C75.7573 183.87 74.2664 183.357 73.3873 182.654C68.0449 180.136 62.6411 175.982 58.5677 171.733C48.9788 161.731 44.2446 148.727 44.5515 134.933C44.8976 119.379 52.9852 104.864 65.4997 95.7715C67.0737 94.6278 68.6523 93.5096 70.3392 92.5361C72.3125 91.3973 74.6893 90.5746 76.3402 88.9746C76.9527 88.3811 77.4591 87.7466 77.7222 86.9209C78.1804 85.4838 77.9792 79.2283 78.0081 77.2466Z" fill="#6C3595"/>
<path d="M128.909 112.958L129.02 112.914L129.067 113.002C129.533 113.864 130.141 114.644 130.627 115.497C132.06 118.016 133.18 120.534 134.143 123.264C137.925 121.897 141.741 121.412 145.748 121.531C146.441 122.697 147.11 125.023 147.223 126.368C143.651 125.597 139.876 126.331 136.454 127.433C136.121 141.293 130.628 152.869 120.645 162.39C112.637 170.027 102.186 173.805 91.1903 173.518C81.9155 173.276 73.5047 170.188 65.7739 165.16C62.8077 163.231 59.9606 161.077 57.5293 158.497C56.2333 157.122 55.382 155.632 54.3331 154.088C52.4851 150.414 50.8328 143.843 51.0411 139.735C50.6265 138.425 51.1928 133.619 51.7677 132.227C52.407 129.238 53.8813 126.093 56.0462 123.903C57.9384 121.989 60.4359 120.55 63.1743 120.546L63.2557 120.527C67.534 121.001 73.6541 121.753 77.83 121.491C77.7237 122.655 77.6329 123.822 77.5575 124.989C79.6702 124.893 81.7812 124.79 83.8839 124.557C85.1325 124.418 86.3972 124.137 87.6446 124.054C90.1662 123.461 92.7208 123.028 95.2091 122.291C102.897 120.012 110.33 116.984 118.075 114.878C118.838 114.582 119.773 114.446 120.574 114.274C123.346 113.678 126.087 113.218 128.909 112.958Z" fill="#91D321"/>
<path d="M128.909 112.958L129.02 112.914L129.067 113.002C129.533 113.864 130.141 114.644 130.627 115.497C132.06 118.016 133.18 120.534 134.143 123.264C128.869 124.961 122.955 128.99 118.283 132.042C115.032 134.078 111.839 136.218 108.468 138.054C107.374 138.65 106.185 139.336 105.007 139.74C97.557 143.501 87.2215 146.393 78.8268 146.376C78.6422 145.115 78.4893 143.85 78.2981 142.59L78.2987 142.483L78.1744 141.907L78.2039 141.846C77.6108 138.897 77.5194 135.64 77.3883 132.633L77.3615 132.538C77.3413 130.042 77.3153 127.547 77.4883 125.055L77.5574 124.989C79.6702 124.893 81.7811 124.79 83.8839 124.557C85.1324 124.418 86.3971 124.137 87.6445 124.054C90.1662 123.461 92.7207 123.028 95.2091 122.291C102.897 120.012 110.33 116.984 118.075 114.878C118.838 114.582 119.773 114.446 120.574 114.274C123.346 113.678 126.087 113.218 128.909 112.958Z" fill="#E9A726"/>
<path d="M128.909 112.958L129.02 112.914L129.067 113.002C129.533 113.864 130.141 114.644 130.627 115.497C132.06 118.016 133.18 120.534 134.143 123.264C128.869 124.961 122.955 128.99 118.283 132.042C118.579 131.477 119.028 131.307 119.57 131.049C118.401 130.622 113.727 129.745 113.15 129.132C112.922 128.89 112.79 128.65 112.489 128.472C111.486 127.879 110.127 127.575 109.042 127.102C106.822 126.134 104.61 125.001 102.435 123.934C101.699 123.573 98.4529 121.696 97.9087 121.696C97.077 121.695 95.9999 122.191 95.1913 122.436C93.9109 122.823 88.8162 124.252 87.7962 124.084C87.7453 124.076 87.695 124.064 87.6445 124.054C90.1662 123.461 92.7208 123.028 95.2091 122.291C102.897 120.012 110.33 116.984 118.075 114.878C118.838 114.582 119.773 114.446 120.574 114.274C123.346 113.678 126.087 113.218 128.909 112.958Z" fill="url(#paint3_linear_97_25)"/>
<path d="M119.378 120.869C119.75 120.85 120.118 120.83 120.484 120.919C121.071 121.06 121.662 121.426 121.976 121.952C122.206 122.337 122.28 122.79 122.154 123.223C121.968 123.864 121.498 124.261 120.946 124.591C120.574 124.638 120.178 124.709 119.804 124.647C119.292 124.561 118.791 124.238 118.509 123.802C118.218 123.351 118.127 122.8 118.256 122.28C118.427 121.617 118.808 121.213 119.378 120.869Z" fill="#FCCD36"/>
<path d="M78.2988 142.483C79.4087 141.977 80.1795 141.399 80.9496 140.449C81.4466 139.836 81.6041 139.16 81.8189 138.414C82.1683 138.94 81.1314 139.925 81.3131 140.517C84.7646 140.569 88.166 140.006 91.6298 140.223C93.0771 140.314 94.6356 140.637 96.0443 140.981C96.6558 141.13 97.2771 141.381 97.899 141.469C98.1337 141.502 98.3682 141.458 98.5978 141.413C98.6475 141.404 98.696 141.386 98.7463 141.382C99.0313 141.358 99.2425 141.585 99.4434 141.756L99.5387 141.838C100.332 141.801 103.826 140.077 104.811 139.647L105.007 139.74C97.557 143.501 87.2215 146.393 78.8268 146.376C78.6422 145.115 78.4893 143.85 78.2981 142.59L78.2988 142.483Z" fill="#FCCD36"/>
<path d="M77.3884 132.633C78.9356 133.284 80.3676 134.304 81.0549 135.893C81.5288 136.989 81.453 138.203 80.9799 139.286C80.4406 140.522 79.4349 141.349 78.2039 141.845C77.6108 138.897 77.5194 135.64 77.3884 132.633Z" fill="#FBDB4F"/>
<path d="M96.4925 125.142C98.7856 124.637 101.057 126.077 101.579 128.366C102.1 130.655 100.678 132.937 98.3926 133.476C96.0829 134.021 93.7717 132.58 93.2442 130.266C92.7167 127.953 94.1748 125.652 96.4925 125.142Z" fill="#FBDB4F"/>
<path d="M63.2557 120.527C67.5339 121 73.6541 121.753 77.83 121.49C77.7237 122.655 77.6329 123.821 77.5574 124.989L77.4883 125.054C77.3154 127.547 77.3413 130.042 77.3616 132.538L77.3884 132.633C77.5194 135.639 77.6108 138.897 78.2039 141.845L78.1745 141.907L78.2988 142.483L78.2982 142.59C78.4893 143.85 78.6422 145.115 78.8269 146.376C79.0107 147.715 79.3235 149.012 79.6759 150.316C78.5308 150.6 70.8742 149.419 69.3787 149.131C68.1148 148.887 66.8752 148.571 65.634 148.232L65.5308 148.131C64.8722 146.498 64.2327 144.858 63.6122 143.21C63.1042 143.11 62.6055 142.867 62.1388 142.649C58.6047 141 55.0021 138.768 53.0473 135.272C52.5053 134.302 52.1426 133.268 51.7677 132.227C52.407 129.238 53.8813 126.093 56.0462 123.903C57.9384 121.988 60.4359 120.549 63.1743 120.546L63.2557 120.527Z" fill="#E8C3B3"/>
<path d="M70.7121 142.21C69.7884 141.545 68.979 140.854 68.4321 139.834C67.7977 138.666 67.6558 137.293 68.0381 136.02C68.4683 134.617 69.5302 133.473 70.8135 132.794C72.8829 131.7 75.1946 131.867 77.3616 132.538L77.3884 132.633C77.5194 135.64 77.6108 138.897 78.2039 141.845L78.1745 141.907L78.2988 142.483L78.2982 142.59C78.4893 143.85 78.6423 145.115 78.8269 146.376C79.0107 147.715 79.3235 149.012 79.676 150.316C78.5308 150.6 70.8742 149.419 69.3787 149.131C68.1148 148.887 66.8752 148.571 65.634 148.232L65.5308 148.131C64.8723 146.498 64.2327 144.858 63.6122 143.21C63.1195 141.975 62.8795 140.666 62.581 139.373C65.1335 140.586 67.9312 141.67 70.7121 142.21Z" fill="#FEF095"/>
<path d="M63.6122 143.21C65.0127 143.693 66.3859 144.26 67.8024 144.695C71.369 145.791 75.1106 146.227 78.8268 146.376C79.0106 147.715 79.3234 149.013 79.6759 150.316C78.5308 150.6 70.8742 149.42 69.3787 149.131C68.1148 148.887 66.8752 148.571 65.634 148.232L65.5307 148.131C64.8722 146.498 64.2327 144.858 63.6122 143.21Z" fill="#CBBDDD"/>
<path d="M78.2981 142.59C78.063 142.691 77.8201 142.772 77.5719 142.834C75.8321 143.279 72.7623 142.825 71.2483 141.827C71.042 141.691 70.9693 141.608 70.9318 141.36L71.0525 141.344C71.3133 141.543 71.5824 141.736 71.8801 141.875C73.9219 142.832 76.0964 142.623 78.1744 141.907L78.2987 142.483L78.2981 142.59Z" fill="#E8C3B3"/>
<path d="M51.7677 132.227C52.407 129.238 53.8813 126.093 56.0462 123.903C57.9384 121.989 60.4359 120.549 63.1743 120.546C62.8697 121.323 62.6705 122.407 62.2279 123.081L62.3712 123.116C61.4819 127.198 61.0492 131.107 61.5876 135.284C61.738 136.452 62.4323 138.171 62.4379 139.213L62.581 139.373C62.8795 140.666 63.1195 141.975 63.6122 143.21C63.1042 143.11 62.6055 142.867 62.1388 142.649C58.6047 141 55.0021 138.768 53.0473 135.272C52.5053 134.302 52.1426 133.268 51.7677 132.227Z" fill="url(#paint4_linear_97_25)"/>
<path d="M62.228 123.082L62.3713 123.116C61.4819 127.198 61.0493 131.107 61.5876 135.285C61.7381 136.452 62.4324 138.171 62.4379 139.213C61.8982 138.898 61.3683 138.566 60.8492 138.217C58.527 136.634 56.0354 134.188 55.5429 131.292C55.2781 129.737 55.6339 128.198 56.5782 126.929C57.8293 125.248 60.0946 123.378 62.228 123.082Z" fill="#D440DB"/>
<path d="M63.2557 120.527C67.534 121 73.6542 121.753 77.83 121.49C77.7237 122.655 77.6329 123.821 77.5575 124.989L77.4884 125.054C74.6153 125.092 71.526 124.96 68.7028 124.405C66.6289 123.998 64.4683 123.281 62.3713 123.116L62.2279 123.081C62.6706 122.407 62.8697 121.323 63.1743 120.546L63.2557 120.527Z" fill="#FEF095"/>
<path d="M145.748 121.53C146.441 122.697 147.11 125.023 147.223 126.368C143.651 125.597 139.876 126.331 136.454 127.433C130.169 129.556 126.422 132.563 121.092 136.227C110.353 143.609 101.301 148.569 88.1209 150.042C86.3584 150.239 84.6152 150.307 82.8425 150.304C81.8123 150.301 80.6964 150.202 79.676 150.316C79.3235 149.012 79.0107 147.715 78.8269 146.376C87.2216 146.393 97.557 143.501 105.007 139.74C106.185 139.336 107.374 138.65 108.468 138.054C111.839 136.218 115.032 134.078 118.283 132.042C122.955 128.99 128.869 124.961 134.143 123.264C137.925 121.897 141.741 121.411 145.748 121.53Z" fill="#3D2060"/>
<path d="M65.6341 148.232C66.8753 148.571 68.1148 148.887 69.3787 149.131C70.8743 149.42 78.5309 150.6 79.676 150.316C79.7602 150.686 79.8496 151.055 79.9438 151.423C81.5968 157.896 84.9201 165.253 89.9968 169.773C91.173 170.82 92.4724 171.62 93.8208 172.419C91.4533 171.922 89.013 171.318 86.7477 170.464C76.6532 166.662 69.9222 157.773 65.6341 148.232Z" fill="#E1FEA4"/>
<path d="M51.7677 132.227C52.1427 133.268 52.5054 134.303 53.0474 135.272C55.0021 138.769 58.6047 141 62.1388 142.649C62.6055 142.867 63.1042 143.11 63.6122 143.21C64.2327 144.858 64.8723 146.498 65.5308 148.131C59.6807 146.195 55.3983 144.243 51.0411 139.735C50.6265 138.425 51.1928 133.619 51.7677 132.227Z" fill="#350760"/>
<path d="M100.337 157.889C101.891 157.636 103.46 158.243 104.438 159.475C105.417 160.708 105.652 162.374 105.053 163.83C104.455 165.285 103.115 166.303 101.553 166.49C99.2056 166.772 97.0645 165.125 96.7339 162.784C96.4033 160.444 98.0043 158.269 100.337 157.889Z" fill="#67B10B"/>
<path d="M126.708 136.344C128.93 135.934 131.06 137.412 131.454 139.636C131.848 141.86 130.353 143.98 128.126 144.357C125.922 144.729 123.83 143.255 123.441 141.054C123.052 138.853 124.51 136.75 126.708 136.344Z" fill="#67B10B"/>
<path d="M110.175 153.487C110.682 153.443 111.201 153.466 111.676 153.666C112.188 153.882 112.612 154.277 112.817 154.798C113.043 155.385 113.027 156.037 112.771 156.61C112.419 157.412 111.839 157.783 111.052 158.09C110.627 158.134 110.22 158.156 109.804 158.034C109.231 157.866 108.732 157.481 108.477 156.934C108.214 156.369 108.218 155.72 108.442 155.143C108.767 154.303 109.385 153.854 110.175 153.487Z" fill="#67B10B"/>
<path d="M136.454 127.433C139.876 126.331 143.651 125.597 147.223 126.368C149.371 139.64 146.727 151.304 138.846 162.22C131.398 172.537 119.288 179.345 106.804 181.354C93.1888 183.508 79.2783 180.112 68.1884 171.925C63.0604 168.215 58.4311 163.068 55.5979 157.391C55.1444 156.482 54.5151 155.357 54.3622 154.343C54.3495 154.259 54.3411 154.173 54.3331 154.088C55.382 155.632 56.2333 157.122 57.5293 158.497C59.9606 161.077 62.8077 163.231 65.7739 165.16C73.5047 170.188 81.9155 173.276 91.1903 173.518C102.186 173.805 112.637 170.027 120.645 162.39C130.628 152.869 136.121 141.293 136.454 127.433Z" fill="#49911C"/>
<path d="M90.1539 88.9114C94.846 89.6378 99.359 90.1385 104.123 89.9831C104.202 91.0336 104.284 92.1946 104.696 93.1756C105.588 97.377 110.824 101.861 113.518 105.182C114.691 106.627 115.672 108.237 116.543 109.88C117.12 110.967 117.737 112.224 117.766 113.48L117.646 113.539C117.894 113.936 117.967 114.427 118.075 114.878C110.33 116.984 102.897 120.012 95.2091 122.291C92.7207 123.028 90.1662 123.461 87.6445 124.054C86.3971 124.137 85.1324 124.418 83.8839 124.557C81.7811 124.79 79.6702 124.893 77.5574 124.989C77.6328 123.822 77.7236 122.655 77.8299 121.491C78.9532 114.554 81.4252 107.431 85.5125 101.68C86.9514 99.6558 88.7622 97.8394 90.1189 95.7829C90.1416 95.7485 90.1637 95.7136 90.186 95.679C90.2633 93.4391 90.1574 91.1566 90.1539 88.9114Z" fill="#74479F"/>
<path d="M77.8299 121.491C83.4917 121.325 89.1226 120.589 94.6368 119.294C99.2882 118.184 103.822 116.653 108.445 115.437C111.482 114.665 114.552 114.032 117.646 113.539C117.894 113.936 117.967 114.427 118.075 114.878C110.33 116.983 102.897 120.012 95.2091 122.291C92.7207 123.028 90.1662 123.461 87.6445 124.054C86.3971 124.137 85.1324 124.417 83.8839 124.556C81.7811 124.79 79.6702 124.893 77.5574 124.989C77.6328 123.821 77.7236 122.655 77.8299 121.491Z" fill="url(#paint5_linear_97_25)"/>
<path d="M118.708 78.4678C119.652 78.1207 120.603 77.7895 121.509 77.3477C121.534 79.2038 121.54 81.0602 121.526 82.9166C121.52 84.2731 121.375 85.8178 121.69 87.1434C121.857 87.8475 122.165 88.3811 122.678 88.8898C124.071 90.2713 126.273 91.1081 127.956 92.0998C129.811 93.1773 131.598 94.368 133.307 95.665C146.114 105.215 154.163 119.412 154.526 135.495C154.632 140.219 154.024 145.189 152.733 149.735C150.552 157.413 145.585 166.024 140.044 171.793C129.627 182.429 115.471 188.579 100.588 188.936C92.3936 189.097 84.3087 187.669 76.7914 184.329C75.7573 183.87 74.2664 183.357 73.3873 182.654C73.4723 182.352 73.161 182.228 72.9516 182.069C70.3022 180.065 67.5967 178.247 65.0981 176.039C59.7582 171.318 54.6821 163.906 51.9339 157.347C51.4524 156.198 50.9 154.966 50.6534 153.742C50.9685 153.979 53.2657 158.618 53.806 159.506C56.3193 163.64 60.091 168.772 63.6453 172.049C66.846 175 70.296 177.917 74.0184 180.194C82.1943 185.194 91.8437 186.96 101.316 186.534C112.915 186.012 123.53 182.378 132.727 175.227C134.961 173.49 137.057 171.702 138.966 169.609C147.902 159.803 152.021 147.111 151.376 133.949C150.659 119.326 142.547 106.103 130.948 97.4752C129.219 96.1888 127.363 95.0228 125.5 93.9415C124.009 93.0759 122.262 92.3117 120.99 91.1385C118.708 89.0337 118.853 86.4969 118.813 83.6392C118.804 81.915 118.769 80.1909 118.708 78.4678Z" fill="#9C67CA"/>
<path d="M84.5095 79.8989C86.3745 80.3618 88.3366 80.6149 90.2421 80.8506C90.1693 83.5369 90.14 86.2239 90.1539 88.9112C90.1574 91.1565 90.2633 93.4389 90.186 95.6789C90.1638 95.7134 90.1417 95.7484 90.119 95.7827C88.7623 97.8393 86.9515 99.6556 85.5126 101.68C81.4252 107.431 78.9532 114.554 77.83 121.491C73.6541 121.753 67.534 121 63.2557 120.527C66.7035 112.379 70.7581 106.277 77.6936 100.621C78.6453 99.8429 79.6359 99.1132 80.6612 98.4353C81.7433 97.7205 83.0383 97.0413 83.943 96.1029C84.8921 95.1185 84.468 89.0214 84.4701 87.4294C84.5492 84.9226 84.4476 82.4077 84.5095 79.8989Z" fill="#CBBDDD"/>
<path d="M78.0081 77.2466L80.9904 78.8789L80.9114 85.8191C80.689 88.0394 80.1595 89.9817 78.3613 91.4394C77.0361 92.5138 75.2854 93.0633 73.7893 93.8725C71.9294 94.8782 70.1413 96.0965 68.4139 97.3124C57.2385 105.178 49.4012 117.939 47.8486 131.556C46.9691 139.271 48.289 146.409 50.6535 153.742C50.9 154.965 51.4524 156.198 51.9339 157.347C54.6821 163.906 59.7582 171.318 65.0982 176.039C67.5967 178.247 70.3022 180.065 72.9516 182.069C73.161 182.228 73.4724 182.352 73.3873 182.653C68.0449 180.136 62.6411 175.982 58.5677 171.733C48.9788 161.731 44.2446 148.727 44.5515 134.933C44.8976 119.379 52.9852 104.864 65.4997 95.7715C67.0737 94.6278 68.6523 93.5096 70.3392 92.5361C72.3125 91.3973 74.6892 90.5746 76.3402 88.9746C76.9527 88.381 77.4591 87.7466 77.7222 86.9209C78.1804 85.4838 77.9792 79.2283 78.0081 77.2466Z" fill="#CBBDDD"/>
<path d="M129.02 112.914C132.468 112.747 136.12 112.667 139.412 113.866C140.571 114.288 141.623 114.952 142.762 115.38C144.024 117.04 144.903 119.602 145.748 121.53C141.741 121.411 137.925 121.897 134.143 123.264C133.18 120.534 132.06 118.016 130.627 115.497C130.141 114.644 129.533 113.864 129.067 113.002L129.02 112.914Z" fill="#794614"/>
<path d="M103.165 81.1618C103.677 81.0054 104.528 81.0561 105.076 81.0185C106.409 80.9271 107.744 80.8457 109.067 80.6523C111.407 80.3101 113.649 79.6287 115.963 79.2175L116.045 79.2036C115.939 81.1825 116.019 83.1928 116.009 85.176C114.388 87.3646 112.151 88.2742 109.608 89.0335C107.728 89.3091 106.031 89.8221 104.098 89.9149C104.046 88.8742 103.483 81.5805 103.165 81.1618Z" fill="#3D2060"/>
<path d="M117.766 113.48C118.739 113.426 119.752 113.184 120.719 113.04C123.338 112.652 126.06 112.231 128.713 112.219C128.784 112.451 128.902 112.717 128.909 112.958C126.087 113.218 123.346 113.679 120.574 114.274C119.773 114.446 118.838 114.582 118.075 114.878C117.967 114.427 117.895 113.936 117.646 113.539L117.766 113.48Z" fill="#E9A726"/>
<path d="M128.713 112.219C132.732 112.095 136.938 112.255 140.635 114.001C141.272 114.302 142.071 114.694 142.585 115.182C142.663 115.257 142.688 115.292 142.762 115.38C141.623 114.952 140.571 114.288 139.412 113.866C136.12 112.667 132.468 112.747 129.02 112.914L128.909 112.958C128.902 112.717 128.784 112.451 128.713 112.219Z" fill="#E98914"/>
<defs>
<linearGradient id="paint0_linear_97_25" x1="101.297" y1="48.8754" x2="98.2098" y2="37.0304" gradientUnits="userSpaceOnUse">
<stop stop-color="#806214"/>
<stop offset="1" stop-color="#A46B15"/>
</linearGradient>
<linearGradient id="paint1_linear_97_25" x1="114.002" y1="56.8543" x2="73.7784" y2="77.3986" gradientUnits="userSpaceOnUse">
<stop stop-color="#34A150"/>
<stop offset="1" stop-color="#FFFFFC"/>
</linearGradient>
<linearGradient id="paint2_linear_97_25" x1="91.41" y1="56.522" x2="87.7788" y2="68.8126" gradientUnits="userSpaceOnUse">
<stop stop-color="#ABEFAD"/>
<stop offset="1" stop-color="#E5FFE8"/>
</linearGradient>
<linearGradient id="paint3_linear_97_25" x1="125.269" y1="110.344" x2="109.562" y2="130.506" gradientUnits="userSpaceOnUse">
<stop stop-color="#844C0A"/>
<stop offset="1" stop-color="#D2861B"/>
</linearGradient>
<linearGradient id="paint4_linear_97_25" x1="55.3805" y1="137.968" x2="67.413" y2="125.117" gradientUnits="userSpaceOnUse">
<stop stop-color="#FFC811"/>
<stop offset="1" stop-color="#FFFF43"/>
</linearGradient>
<linearGradient id="paint5_linear_97_25" x1="100.667" y1="108.717" x2="94.4342" y2="129.691" gradientUnits="userSpaceOnUse">
<stop stop-color="#FFBF21"/>
<stop offset="1" stop-color="#FFE42D"/>
</linearGradient>
</defs>
</svg>
