<svg width="281" height="280" viewBox="0 0 281 280" fill="none" xmlns="http://www.w3.org/2000/svg">
<path d="M26.9507 164.792C27.3926 164.835 28.0272 165.008 28.9196 165.279C29.8226 165.552 30.9529 165.909 32.0072 166.061C33.0267 166.207 34.3706 166.225 35.461 165.406C40.0234 161.976 46.5026 162.895 49.9322 167.457C53.3615 172.019 52.4426 178.498 47.8805 181.927C43.3182 185.357 36.8396 184.439 33.4099 179.877C32.4447 178.593 30.6543 175.368 29.1782 172.011C28.4467 170.348 27.8157 168.704 27.4113 167.304C27.2091 166.604 27.0715 165.991 27.0019 165.484C26.9621 165.194 26.9491 164.965 26.9507 164.792Z" fill="#FFBE31" stroke="black" stroke-width="3"/>
<path d="M26.9507 164.792C27.3926 164.835 28.0272 165.008 28.9196 165.279C29.8226 165.552 30.9529 165.909 32.0072 166.061C33.0267 166.207 34.3706 166.225 35.461 165.406C40.0234 161.976 46.5026 162.895 49.9322 167.457C53.3615 172.019 52.4426 178.498 47.8805 181.927C43.3182 185.357 36.8396 184.439 33.4099 179.877C32.4447 178.593 30.6543 175.368 29.1782 172.011C28.4467 170.348 27.8157 168.704 27.4113 167.304C27.2091 166.604 27.0715 165.991 27.0019 165.484C26.9621 165.194 26.9491 164.965 26.9507 164.792Z" fill="#FFBE31" stroke="black" stroke-width="3"/>
<path d="M76.0528 203.826C68.6858 205.508 64.1797 212.52 64.1407 224.543C64.1037 236.493 60.4726 239.115 56.9026 246.03C53.3346 252.944 68.7346 268.226 72.7366 265.897C76.4826 263.715 75.3028 258.668 76.7168 256.784C87.7328 242.111 93.0218 230.596 92.9378 219.102C92.8608 208.807 84.8918 201.809 76.0528 203.826Z" fill="#FFBE31"/>
<path d="M72.3586 247.927C74.3626 251.564 78.2646 251.77 81.8156 249.598C80.2766 251.915 78.5835 254.301 76.7135 256.786C75.3055 258.672 76.4846 263.718 72.7336 265.901C68.7336 268.231 53.3337 252.949 56.9057 246.031C58.2907 243.329 59.6966 241.282 60.8896 239.085C62.1766 240.997 63.9346 242.187 66.1496 242.606C68.2046 243.004 70.7006 244.912 72.3586 247.927Z" fill="#E6E1B8"/>
<path d="M69.8547 258.513C70.3747 259.473 70.5578 260.657 70.5208 261.825C70.4798 262.998 70.2278 264.183 69.7808 265.338L67.2666 263.7C67.9616 263.087 68.5887 262.327 69.0657 261.457C69.5387 260.588 69.8827 259.6 69.8547 258.513Z" fill="black"/>
<path d="M70.3896 206.638C68.5576 208.817 67.4147 211.313 66.7117 213.91C66.0027 216.512 65.6976 219.203 65.6006 221.911C65.5326 223.277 65.5846 224.589 65.5576 226.071C65.5306 227.512 65.4427 228.964 65.2607 230.419C64.9187 233.323 64.0906 236.288 62.7566 238.94C61.4346 241.602 59.8697 243.911 58.6477 246.316L58.4187 246.768C58.4187 246.773 58.2508 247.111 58.2688 247.123C58.2198 247.242 58.1518 247.529 58.1228 247.747C58.0588 248.223 58.0757 248.755 58.1777 249.312C58.3687 250.425 58.8317 251.607 59.4177 252.738C60.6087 255.012 62.2657 257.15 64.1037 259.067C65.9377 260.955 68.0447 262.754 70.1877 263.797C70.7057 264.046 71.2408 264.219 71.5918 264.255C71.7638 264.275 71.8627 264.248 71.8357 264.25C71.8337 264.254 71.8217 264.258 71.8047 264.264L71.7947 264.271C71.8047 264.269 71.6857 264.339 71.7497 264.3L71.7766 264.281L71.8877 264.211C71.9507 264.168 72.0577 264.108 72.0867 264.081L72.1846 264.006C72.8686 263.489 73.3367 262.651 73.6277 261.497C73.9477 260.332 73.9817 259.027 74.4497 257.295C74.5847 256.856 74.7636 256.361 75.1196 255.831L75.7917 254.92L77.0276 253.245C80.2816 248.761 83.3106 244.124 85.8476 239.274C88.3596 234.42 90.2986 229.28 91.0366 223.946C91.7576 218.482 91.4876 213.538 89.1206 208.224C91.5936 209.832 93.2658 212.593 93.9978 215.514C94.1868 216.255 94.3157 216.983 94.3957 217.763C94.4387 218.168 94.4567 218.517 94.4717 218.864C94.4927 219.277 94.4838 219.608 94.4878 219.982C94.4758 221.445 94.3827 222.906 94.2087 224.354C93.5177 230.174 91.5286 235.72 88.9936 240.861C86.4606 246.026 83.3216 250.804 80.0146 255.413L78.7627 257.128L78.1868 257.91C78.1518 257.963 78.0696 258.129 78.0046 258.359C77.7216 259.335 77.6337 260.863 77.2407 262.417C76.8737 263.967 76.0356 265.797 74.4556 266.991L74.1296 267.227C74.0186 267.305 73.9716 267.329 73.8896 267.383L73.7766 267.45L73.6477 267.529L73.5188 267.595C73.3468 267.686 73.1727 267.757 73.0007 267.81C72.3077 268.031 71.6897 268.024 71.1687 267.964C70.1257 267.827 69.3267 267.497 68.5847 267.144C67.1157 266.422 65.8916 265.534 64.7256 264.592C63.5676 263.645 62.4956 262.628 61.4836 261.554C59.4736 259.401 57.6697 257.048 56.2847 254.334C55.6087 252.968 55.0117 251.512 54.7637 249.85C54.6367 249.025 54.6077 248.138 54.7537 247.228C54.8397 246.752 54.9256 246.354 55.1426 245.821C55.2696 245.502 55.2716 245.531 55.4216 245.217L55.6797 244.738C57.0627 242.175 58.7026 239.852 59.9236 237.511C61.1616 235.172 61.9237 232.675 62.3047 230.016C62.5037 228.693 62.6136 227.342 62.6716 225.982C62.7226 224.662 62.7186 223.168 62.8606 221.734C63.1286 218.851 63.7418 215.953 64.9248 213.266C66.1108 210.603 67.9346 208.117 70.3896 206.638Z" fill="black"/>
<path d="M143.909 192.997C138.368 195.506 135.384 203.724 140.63 216.501C147.224 232.562 161.437 243.312 168.816 242.26C176.195 241.208 182.836 236.744 182.546 232.953C182.335 230.214 177.169 228.42 175.905 227.787C173.759 226.713 170.048 214.311 163.991 201.769C159.575 192.625 152.085 189.292 143.909 192.997Z" fill="#FFBE31"/>
<path d="M182.545 232.953C182.836 236.745 176.199 241.207 168.82 242.261C164.623 242.86 158.22 239.644 152.261 233.805C156.279 234.325 159.154 233.226 160.769 230.409C161.744 228.724 163.937 226.744 167.339 226.93C170.831 227.123 172.267 223.896 171.87 220.201C173.6 224.397 174.911 227.302 175.905 227.787C177.166 228.421 182.332 230.21 182.545 232.953Z" fill="#E6E1B8"/>
<path d="M137.901 204.11C139.128 209.095 140.863 213.514 142.91 217.974C145.027 222.365 147.785 226.451 151.045 230.052C152.672 231.852 154.434 233.53 156.311 235.032C158.184 236.533 160.17 237.888 162.264 238.904C164.321 239.91 166.612 240.617 168.448 240.385C170.68 240.067 172.981 239.371 175.04 238.38C176.077 237.89 177.071 237.323 177.96 236.671C178.843 236.025 179.634 235.275 180.128 234.521C180.376 234.146 180.532 233.779 180.593 233.482C180.607 233.409 180.617 233.337 180.619 233.273L180.624 233.177L180.621 233.131V233.109C180.625 233.151 180.609 232.997 180.631 233.202L180.628 233.172L180.598 232.957C180.594 232.976 180.595 232.993 180.605 233.009C180.591 232.978 180.578 232.933 180.552 232.883C180.357 232.436 179.497 231.709 178.562 231.181C177.589 230.613 176.564 230.173 175.333 229.626C175.155 229.531 175.048 229.527 174.571 229.189C174.27 228.956 174.106 228.774 173.938 228.585C173.631 228.224 173.414 227.897 173.214 227.579C172.827 226.947 172.516 226.349 172.231 225.747C171.114 223.357 170.221 221.014 169.292 218.669C167.462 213.986 165.639 209.346 163.598 204.808C163.078 203.66 162.579 202.559 162.042 201.462C161.538 200.432 160.955 199.379 160.348 198.378C159.114 196.357 157.657 194.513 155.733 192.732C158.35 193.135 160.728 194.75 162.521 196.723C163.431 197.721 164.193 198.801 164.875 199.985C165.516 201.108 166.059 202.292 166.604 203.419C168.782 208.002 170.732 212.674 172.66 217.308C173.627 219.613 174.582 221.948 175.64 224.083C175.906 224.61 176.176 225.128 176.45 225.563C176.583 225.776 176.721 225.971 176.821 226.085C176.862 226.133 176.919 226.178 176.866 226.136C176.636 225.997 176.821 226.115 176.927 226.154C177.993 226.622 179.286 227.163 180.488 227.859C181.099 228.214 181.711 228.608 182.316 229.115C182.912 229.621 183.531 230.238 184.004 231.154C184.121 231.384 184.219 231.634 184.305 231.9C184.352 232.068 184.39 232.239 184.421 232.409L184.459 232.661L184.476 232.841L184.483 232.936L184.489 233.125C184.489 233.25 184.491 233.377 184.481 233.5C184.469 233.749 184.431 233.987 184.39 234.225C184.201 235.161 183.818 235.954 183.382 236.628C182.493 237.978 181.402 238.955 180.275 239.801C179.14 240.642 177.945 241.33 176.714 241.914C174.228 243.057 171.656 243.808 168.91 244.163C167.306 244.346 165.834 244.1 164.467 243.734C163.1 243.359 161.83 242.828 160.625 242.223C155.814 239.763 151.895 236.212 148.502 232.293C145.125 228.355 142.322 223.949 140.199 219.232C139.133 216.882 138.24 214.429 137.775 211.86C137.32 209.31 137.21 206.626 137.901 204.11Z" fill="black"/>
<path d="M174.735 233.774C175.815 233.628 176.989 233.871 178.067 234.318C179.151 234.769 180.172 235.422 181.094 236.248L178.678 238.025C178.346 237.158 177.856 236.303 177.211 235.55C176.563 234.802 175.761 234.132 174.735 233.774Z" fill="black"/>
<path d="M48.9837 206.207C40.3817 185.403 49.2907 162.616 75.2137 153.931C101.624 145.082 111.427 154.84 145.155 149.266C163.538 146.228 174.469 153.257 177.157 165.197C182.368 188.349 151.919 213.963 125.116 224.912C101.644 234.501 62.5347 238.976 48.9837 206.207Z" fill="#FFBE31"/>
<path d="M145.154 149.266C163.537 146.231 174.465 153.254 177.156 165.201C182.373 188.346 151.924 213.96 125.113 224.915C101.642 234.504 62.5348 238.976 48.9858 206.21C43.1808 192.157 45.3508 177.211 55.3488 166.304C51.5248 181.755 62.1398 199.751 86.3408 196.097C122.052 190.706 145.171 165.187 125.253 151.093C130.957 151.012 137.428 150.544 145.154 149.266Z" fill="#FFBE31"/>
<path d="M175.555 160.519C176.246 161.977 176.785 163.538 177.157 165.204C182.374 188.35 151.925 213.963 125.114 224.918C109.473 231.309 86.8818 235.427 69.5498 227.761C82.3118 229.094 101.331 228.365 127.591 216.127C162.937 199.662 158.501 177.987 163.101 166.036C166.969 155.984 172.562 156.821 175.555 160.519Z" fill="#E6E1B8"/>
<path d="M46.9467 207.059L46.9325 207.026C44.0045 200.055 42.7417 192.118 44.0107 184.468C44.6317 180.648 45.8446 176.918 47.5966 173.465C49.3406 170.004 51.6666 166.861 54.3366 164.096C59.7116 158.561 66.5047 154.681 73.6137 152.227C80.6487 149.797 88.0865 148.251 95.5805 148.061C103.076 147.831 110.352 148.759 117.524 149.076C124.708 149.44 131.872 149.219 139.004 148.364C140.787 148.155 142.568 147.907 144.344 147.631L145.698 147.422L147.101 147.236C148.033 147.125 148.971 147.031 149.911 146.97C153.663 146.723 157.497 146.874 161.249 147.746C164.987 148.607 168.659 150.246 171.655 152.824C174.669 155.371 176.87 158.834 178.055 162.533C179.256 166.197 179.576 170.204 179.075 173.994C178.585 177.809 177.356 181.46 175.714 184.844C172.392 191.626 167.577 197.424 162.319 202.6C157.02 207.762 151.157 212.284 144.971 216.277C138.77 220.247 132.262 223.752 125.428 226.568C118.574 229.372 111.426 231.411 104.112 232.633C96.8005 233.836 89.2797 234.207 81.8207 233.181C74.3927 232.166 66.9685 229.612 60.7675 225.037C57.6715 222.769 54.9125 220.029 52.6015 216.971C50.2885 213.915 48.4197 210.555 46.9467 207.059ZM51.0307 205.376C53.6167 211.815 57.7216 217.602 63.2336 221.723C68.7216 225.886 75.4406 228.334 82.3766 229.376C89.3316 230.429 96.5137 230.184 103.553 229.117C110.602 228.038 117.549 226.131 124.19 223.505C130.836 220.849 137.247 217.532 143.294 213.659C149.339 209.788 155.067 205.401 160.208 200.427C165.329 195.462 169.905 189.849 172.962 183.519C174.478 180.361 175.577 177.019 175.999 173.609C176.423 170.189 176.138 166.77 175.065 163.518C174.012 160.302 172.143 157.408 169.585 155.26C167.034 153.097 163.858 151.71 160.519 150.974C157.167 150.232 153.652 150.12 150.16 150.39C149.285 150.456 148.412 150.552 147.539 150.667L146.242 150.853L144.903 151.074C143.09 151.377 141.269 151.65 139.443 151.884C132.142 152.842 124.718 153.151 117.369 152.859C110.015 152.609 102.793 151.783 95.7297 152.086C88.6667 152.344 81.7136 153.869 75.0366 156.254C68.4486 158.609 62.3197 162.238 57.5917 167.221C52.8707 172.185 49.6287 178.476 48.5507 185.207C47.4507 191.938 48.3917 198.936 51.0307 205.376Z" fill="black"/>
<path d="M153.566 252.67C152.777 256.39 144.115 259.009 136.742 257.94C129.371 256.871 119.654 236.863 118.041 219.58C116.428 202.296 123.611 197.748 129.559 196.486C137.178 194.884 143.362 199.999 145.998 208.58C149.436 219.746 146.902 244.211 148.652 245.84C149.685 246.803 154.142 249.987 153.566 252.67Z" fill="#FFBE31"/>
<path d="M148.652 245.839C149.685 246.804 154.142 249.987 153.566 252.67C152.777 256.39 144.115 259.009 136.742 257.94C129.371 256.871 119.654 236.863 118.041 219.58C116.428 202.296 123.611 197.748 129.559 196.486C130.622 196.258 131.661 196.172 132.663 196.206C126.981 198.84 124.524 210.213 126.161 220.542C127.915 231.588 141.157 242.355 147.79 235.534C147.877 237.411 148.301 245.512 148.652 245.839Z" fill="#FFBE31"/>
<path d="M148.651 245.839C149.684 246.804 154.141 249.987 153.565 252.67C152.776 256.39 144.114 259.009 136.741 257.94C132.86 257.376 128.341 251.574 124.688 243.688C128.342 245.699 131.485 245.708 134.032 243.617C135.53 242.373 138.155 241.379 141.403 242.676C144.571 243.935 146.969 241.648 147.928 238.231C148.1 241.305 148.391 245.598 148.651 245.839Z" fill="#FFFBD9"/>
<path d="M119.432 204.932C119.008 207.765 118.932 210.466 119.043 213.187C119.148 215.901 119.397 218.613 119.752 221.32C120.508 226.732 121.94 232.07 123.859 237.197C125.802 242.297 128.213 247.303 131.394 251.525C132.193 252.566 133.058 253.539 133.978 254.351C134.888 255.158 135.902 255.803 136.759 255.993C136.874 256.02 136.945 256.03 137.089 256.053L137.575 256.113C137.886 256.146 138.212 256.177 138.532 256.195C139.173 256.238 139.819 256.254 140.468 256.241C141.763 256.218 143.064 256.094 144.335 255.868C145.605 255.639 146.855 255.316 148.021 254.885C149.173 254.455 150.281 253.878 150.998 253.215C151.353 252.891 151.572 252.558 151.633 252.344L151.654 252.267C151.617 252.475 151.648 252.307 151.64 252.344L151.646 252.312L151.656 252.249L151.676 252.123C151.662 252.14 151.66 252.169 151.664 252.178C151.66 252.157 151.66 252.135 151.66 252.111C151.648 252.008 151.611 251.85 151.529 251.663C151.191 250.883 150.334 249.908 149.4 249.054C148.927 248.614 148.429 248.194 147.882 247.733L147.439 247.348L147.373 247.29L147.342 247.26L147.176 247.087L147.135 247.037L147.018 246.885C146.918 246.748 146.786 246.519 146.752 246.436L146.641 246.175C146.418 245.56 146.37 245.16 146.301 244.739C146.094 243.138 146.084 241.743 146.053 240.306C146.006 237.463 146.088 234.67 146.106 231.879C146.155 226.309 146.161 220.742 145.594 215.312C145.448 213.958 145.26 212.616 144.998 211.308C144.867 210.655 144.719 210.011 144.545 209.384L144.42 208.923L144.272 208.42L143.991 207.494C143.206 204.968 142.278 202.554 140.999 199.891C143.718 201.168 145.671 203.704 146.874 206.394C147.022 206.73 147.173 207.088 147.304 207.443L147.478 207.939L147.658 208.481C147.873 209.199 148.053 209.916 148.211 210.63C148.527 212.063 148.754 213.49 148.936 214.914C149.645 220.612 149.739 226.262 149.805 231.878L149.885 240.241C149.914 241.599 149.953 243.01 150.115 244.183C150.152 244.453 150.222 244.746 150.242 244.788C150.242 244.781 150.238 244.774 150.234 244.768C150.234 244.768 150.154 244.609 150.095 244.549L150.042 244.492C150.026 244.476 150.05 244.502 150.052 244.505L150.095 244.555C150.038 244.497 150.253 244.721 149.972 244.431L149.99 244.445L150.021 244.475L150.373 244.775C150.898 245.213 151.475 245.692 152.027 246.202C153.127 247.245 154.269 248.327 155.103 250.107C155.3 250.559 155.468 251.079 155.537 251.672L155.568 252.126C155.566 252.313 155.554 252.516 155.535 252.707L155.476 253.079C155.441 253.225 155.408 253.371 155.363 253.509C155.002 254.641 154.334 255.449 153.672 256.077C152.318 257.312 150.865 258 149.416 258.566C147.963 259.122 146.486 259.489 145 259.732C143.514 259.978 142.018 260.104 140.514 260.115C139.764 260.12 139.012 260.093 138.256 260.035C137.879 260.008 137.508 259.969 137.123 259.922L136.57 259.848C136.369 259.819 136.091 259.769 135.869 259.713C133.99 259.228 132.64 258.204 131.467 257.172C130.303 256.116 129.321 254.968 128.43 253.783C124.903 249.018 122.573 243.74 120.651 238.36C118.772 232.965 117.413 227.391 116.751 221.698C116.411 218.855 116.3 215.961 116.647 213.079C117.011 210.225 117.788 207.313 119.432 204.932Z" fill="black"/>
<path d="M145.666 250.868C146.732 251.085 147.759 251.702 148.632 252.478C149.507 253.26 150.257 254.211 150.855 255.297L147.99 256.178C147.963 255.251 147.781 254.283 147.418 253.359C147.052 252.44 146.515 251.545 145.666 250.868Z" fill="black"/>
<path d="M72.5819 195.024C65.8549 191.577 53.1657 195.003 47.1107 205.39C38.7687 219.696 29.4178 223.591 22.4078 226.972C15.3978 230.352 18.0078 252.711 22.6068 253.254C26.9118 253.763 28.9977 249.01 31.2647 248.364C53.0677 242.162 68.7398 231.185 76.9508 217.693C83.3278 207.215 78.6659 198.145 72.5819 195.024Z" fill="#FFBE31"/>
<path d="M72.5777 195.029C78.6617 198.143 83.3218 207.214 76.9488 217.699C68.7358 231.191 53.0717 242.166 31.2667 248.368C28.9957 249.013 26.9078 253.767 22.6048 253.257C18.0088 252.713 15.4018 230.353 22.4058 226.977C26.5468 224.978 31.5097 222.797 36.5897 218.4C33.6697 229.48 49.2499 233.595 64.2169 221.664C76.6428 211.766 77.2616 199.727 72.2886 194.893C72.3866 194.937 72.4817 194.983 72.5777 195.029Z" fill="#FFBE31"/>
<path d="M31.6778 230.92C33.1408 232.407 34.0978 235.41 33.7498 238.825C33.3378 242.748 36.1068 245.099 39.9388 245.527C37.1678 246.564 34.2767 247.512 31.2667 248.368C28.9957 249.013 26.9078 253.767 22.6048 253.257C18.0088 252.713 15.4018 230.353 22.4058 226.977C24.5718 225.935 26.9718 224.835 29.4918 223.381C29.0208 226.405 29.7298 228.937 31.6778 230.92Z" fill="#FFFBD9"/>
<path d="M24.8567 245.684C24.6047 246.746 23.9588 247.752 23.1558 248.599C22.3448 249.451 21.3708 250.169 20.2688 250.735L19.4756 247.841C20.4036 247.843 21.3758 247.692 22.3118 247.36C23.2418 247.023 24.1557 246.513 24.8567 245.684Z" fill="black"/>
<path d="M63.7746 193.948C57.3136 196.089 51.9715 200.218 48.7255 205.655C45.4245 211.569 41.0185 217.283 35.4225 221.537C32.6415 223.683 29.5826 225.453 26.5146 226.986L24.2235 228.115L23.1625 228.638C23.0905 228.682 22.9377 228.756 22.9267 228.775L22.8246 228.848C22.7206 228.927 22.6195 229.01 22.5175 229.106C21.6995 229.857 21.0795 231.221 20.6935 232.659C19.9205 235.585 19.8417 238.879 20.1137 242.059C20.2547 243.657 20.5025 245.246 20.8715 246.772C21.2385 248.272 21.7625 249.816 22.4435 250.825C22.6055 251.065 22.7816 251.25 22.8776 251.32C22.9266 251.36 22.9436 251.36 22.9186 251.35C22.9386 251.346 22.6807 251.312 23.0207 251.345C23.5267 251.38 24.0477 251.29 24.5617 251.067C25.6297 250.627 26.6746 249.577 27.9616 248.332C28.2956 248.02 28.6506 247.693 29.1066 247.359C29.3366 247.193 29.5817 247.026 29.8857 246.87C30.0267 246.79 30.2035 246.716 30.3695 246.647C30.5555 246.58 30.7586 246.515 30.8246 246.497C31.6296 246.26 32.4596 246.031 33.2406 245.787C34.8106 245.308 36.3986 244.79 37.9616 244.235C44.2196 242.029 50.2546 239.223 55.8896 235.784C61.5086 232.336 66.6965 228.159 70.9855 223.192C72.0555 221.951 73.0717 220.665 74.0207 219.331C74.9547 217.991 75.8626 216.602 76.6186 215.244C78.1656 212.473 79.3005 209.557 79.9235 206.111C81.2615 209.408 80.7396 213.322 79.2616 216.564C78.5096 218.229 77.5466 219.662 76.5856 221.115C75.6036 222.551 74.5506 223.935 73.4396 225.272C68.9886 230.616 63.6037 235.102 57.7897 238.815C51.9767 242.55 45.6895 245.461 39.2365 247.796C37.6195 248.382 35.9987 248.922 34.3437 249.439L31.9057 250.172C31.7687 250.211 31.7727 250.219 31.7597 250.219C31.7347 250.236 31.7126 250.238 31.6696 250.264C31.5976 250.299 31.4935 250.37 31.3825 250.451C31.1555 250.617 30.8866 250.861 30.6056 251.128C29.4686 252.197 28.1675 253.71 26.1015 254.629C25.0745 255.089 23.8845 255.303 22.7055 255.204C22.6275 255.203 21.9396 255.146 21.5666 254.974C21.1466 254.815 20.7966 254.599 20.5136 254.376C19.9456 253.925 19.5746 253.452 19.2616 252.997C18.0856 251.171 17.6075 249.427 17.1615 247.665C16.7475 245.905 16.4916 244.147 16.3456 242.382C16.0836 238.85 16.1505 235.283 17.1205 231.669C17.6435 229.888 18.3565 227.99 20.0265 226.408C20.2335 226.216 20.4626 226.036 20.7006 225.864L21.1266 225.591C21.2886 225.49 21.3316 225.479 21.4406 225.418L21.7956 225.243L22.0827 225.107L22.6586 224.838L24.9286 223.766C27.9226 222.334 30.7646 220.75 33.3676 218.814C35.9746 216.888 38.3406 214.638 40.4516 212.149C41.5086 210.904 42.5045 209.602 43.4435 208.256C43.9125 207.582 44.3655 206.897 44.8065 206.201L46.1405 204.054C49.9795 197.981 56.8746 193.901 63.7746 193.948Z" fill="black"/>
<path d="M208.878 84.4271C213.476 83.6211 219.919 113.549 216.255 116.945C210.757 122.034 194.729 124.344 187.875 119.912C181.152 115.565 192.349 103.117 197.679 96.4991C204.116 88.5071 204.907 85.1241 208.878 84.4271Z" fill="#FFBE31"/>
<path d="M216.255 116.945C216.696 116.223 216.694 115.398 216.72 114.602C216.726 113.797 216.661 112.991 216.591 112.185C216.441 110.573 216.196 108.961 215.974 107.348C215.501 104.122 214.872 100.901 214.038 97.743C213.2 94.598 212.212 91.451 210.88 88.614C210.54 87.917 210.169 87.241 209.765 86.682C209.566 86.407 209.351 86.162 209.175 86.014C208.993 85.848 208.882 85.878 209.075 85.899C209.11 85.893 209.081 85.907 209.171 85.887L209.019 85.918C208.923 85.939 208.798 85.963 208.749 85.981C208.622 86.013 208.476 86.062 208.327 86.114C208.038 86.22 207.774 86.357 207.518 86.525C207.006 86.859 206.522 87.34 206.034 87.912C205.057 89.056 204.12 90.441 203.149 91.789C202.18 93.145 201.182 94.503 200.151 95.832C198.094 98.516 195.868 100.959 193.844 103.533C191.799 106.084 189.893 108.741 188.385 111.504C187.629 112.875 186.953 114.282 186.672 115.718C186.522 116.436 186.516 117.152 186.69 117.869C186.874 118.584 187.292 119.279 187.874 119.911C187.067 119.644 186.282 119.109 185.757 118.316C185.206 117.535 184.978 116.555 184.919 115.623C184.853 113.732 185.411 111.982 186.093 110.382C186.796 108.778 187.698 107.315 188.632 105.894C189.568 104.474 190.56 103.108 191.573 101.769C193.604 99.092 195.731 96.526 197.733 93.961C198.733 92.668 199.698 91.352 200.653 90.006C201.622 88.665 202.534 87.29 203.708 85.904C204.296 85.217 205.011 84.524 205.897 83.966C206.34 83.69 206.827 83.456 207.319 83.286C207.565 83.205 207.813 83.13 208.09 83.067C208.24 83.028 208.32 83.018 208.428 82.997L208.58 82.968C208.771 82.937 208.846 82.929 208.984 82.926C210.023 82.922 210.673 83.421 211.107 83.792C211.552 84.19 211.867 84.595 212.146 84.995C212.695 85.795 213.099 86.593 213.47 87.393C214.906 90.592 215.759 93.854 216.515 97.139C217.236 100.428 217.826 103.741 218.101 107.108C218.244 108.789 218.251 110.493 218.078 112.196C217.99 113.048 217.844 113.903 217.594 114.738C217.335 115.546 216.995 116.461 216.255 116.945Z" fill="black"/>
<path d="M194.271 100.592C212.251 101.419 230.396 112.728 239.271 129.092C247.271 143.842 243.021 165.592 240.271 171.342C237.521 177.092 248.81 175.315 249.021 179.092C249.271 183.592 243.271 191.342 238.521 190.842C232.533 190.212 229.771 187.092 227.771 184.342C223.271 188.842 223.47 197.442 228.771 200.092C231.771 201.592 230.427 203.487 226.021 204.842C216.271 207.842 175.216 204.827 155.521 182.842C134.021 158.842 141.611 134.46 150.021 120.342C157.021 108.592 172.521 99.592 194.271 100.592Z" fill="#FFBE31"/>
<path d="M249.021 179.094C249.271 183.594 243.271 191.344 238.521 190.844C232.531 190.214 229.771 187.094 227.771 184.344C223.271 188.844 223.47 197.444 228.771 200.094C231.771 201.594 230.431 203.485 226.021 204.844C222.111 206.044 213.169 206.285 202.591 204.714C177.97 195.434 186.47 174.964 196.611 169.414C202.211 166.344 203.361 165.164 202.861 160.164C202.111 152.693 200.611 142.664 204.361 135.914C213.621 119.244 228.361 128.414 234.111 133.164C237.66 136.094 240.261 137.504 242.541 137.853C245.75 151.343 242.512 166.654 240.271 171.343C237.521 177.094 248.81 175.315 249.021 179.094Z" fill="#FFFBD9"/>
<path d="M220.75 109.385C206.781 106.184 178.201 109.565 174.021 144.844C171.541 165.774 177.71 180.115 186.91 189.764C188.131 195.424 192.681 200.975 202.601 204.714C186.8 202.385 167.33 196.014 155.521 182.844C134.021 158.844 141.611 134.464 150.021 120.344C157.021 108.594 172.521 99.594 194.271 100.594C203.471 101.014 212.721 104.194 220.75 109.385Z" fill="#FFBE31"/>
<path d="M215.121 205.805C211.441 205.735 207.17 205.395 202.601 204.714C192.681 200.975 188.13 195.424 186.91 189.764C195.211 198.475 205.99 203.365 215.121 205.805Z" fill="#E6E1B8"/>
<path d="M244.691 184.672C244.781 182.342 244.351 180.512 243.191 178.262C242.64 177.193 242.701 176.241 243.41 175.922C245.941 176.682 248.91 177.172 249.021 179.092C249.15 181.352 247.691 184.432 245.611 186.872C245.031 186.802 244.631 185.962 244.691 184.672Z" fill="black"/>
<path d="M250.342 178.685C250.258 178.125 249.988 177.576 249.653 177.18C249.319 176.78 248.948 176.502 248.596 176.282C247.885 175.852 247.215 175.61 246.569 175.391C245.286 174.969 244.061 174.687 242.999 174.291C242.476 174.098 241.991 173.869 241.686 173.631C241.368 173.374 241.315 173.242 241.291 173.055C241.271 172.84 241.344 172.473 241.58 171.989C241.855 171.423 242.135 170.742 242.353 170.132C243.248 167.628 243.841 165.114 244.326 162.573C244.801 160.032 245.135 157.471 245.332 154.895C245.717 149.749 245.588 144.527 244.639 139.372C244.16 136.798 243.475 134.241 242.504 131.767C242.262 131.149 242.004 130.535 241.725 129.928C241.594 129.627 241.432 129.311 241.286 129.004L240.839 128.132C240.224 126.977 239.566 125.844 238.864 124.739C233.249 115.89 225.122 108.743 215.757 104.048C211.062 101.719 206.046 99.9931 200.853 99.0451C198.277 98.5651 195.58 98.2971 192.99 98.2251C190.385 98.1371 187.769 98.1881 185.158 98.3951C179.939 98.8251 174.738 99.9131 169.777 101.764C164.818 103.605 160.117 106.27 156.052 109.756C154.023 111.497 152.152 113.442 150.513 115.578C149.697 116.643 148.925 117.766 148.236 118.916C147.558 120.062 146.949 121.193 146.353 122.36C145.167 124.685 144.115 127.077 143.212 129.529C142.341 131.993 141.628 134.514 141.095 137.074C140.544 139.63 140.251 142.239 140.134 144.845C140.007 147.451 140.136 150.067 140.488 152.638C141.174 157.783 142.818 162.757 145.308 167.182C143.812 162.331 142.952 157.381 142.871 152.453C142.832 149.99 142.993 147.539 143.298 145.115C143.611 142.689 144.14 140.302 144.761 137.947C145.396 135.593 146.202 133.287 147.138 131.037C148.046 128.775 149.097 126.568 150.269 124.426C150.851 123.36 151.478 122.29 152.107 121.276C152.726 120.267 153.398 119.311 154.127 118.38C155.58 116.524 157.244 114.824 159.063 113.298C162.7 110.24 166.944 107.897 171.44 106.21C175.944 104.522 180.725 103.545 185.561 103.109C187.981 102.886 190.422 102.81 192.864 102.861C195.323 102.903 197.667 103.111 200.063 103.521C204.817 104.329 209.463 105.859 213.84 107.964C222.586 112.167 230.336 118.654 235.717 126.775C241.34 134.716 242.682 144.873 242.131 154.676C241.817 159.578 241.076 164.566 239.572 169.144C239.373 169.724 239.183 170.216 238.918 170.792C238.629 171.442 238.303 172.33 238.422 173.38C238.481 173.903 238.676 174.45 238.971 174.886C239.262 175.331 239.621 175.661 239.973 175.922C240.684 176.44 241.375 176.712 242.034 176.953C243.348 177.413 244.597 177.676 245.718 178.03C246.271 178.202 246.792 178.401 247.165 178.624C247.556 178.864 247.649 179.023 247.661 179.118C247.698 179.427 247.663 179.989 247.554 180.496C247.445 181.017 247.277 181.548 247.064 182.073C246.636 183.124 246.05 184.145 245.369 185.094C244.012 186.965 242.209 188.696 240.242 189.397C239.758 189.562 239.275 189.647 238.826 189.631C238.652 189.626 238.26 189.576 237.99 189.541C237.713 189.505 237.424 189.455 237.135 189.402C235.987 189.185 234.875 188.839 233.844 188.336C231.762 187.345 230.102 185.678 228.658 183.697L227.877 182.626L227.004 183.567C223.756 186.717 222.518 191.581 223.803 195.996C224.147 197.096 224.663 198.177 225.413 199.119C226.128 200.063 227.17 200.883 228.168 201.399C228.432 201.54 228.49 201.588 228.652 201.699C228.718 201.75 228.775 201.8 228.824 201.844C228.72 201.949 228.549 202.102 228.338 202.229C228.016 202.434 227.631 202.629 227.221 202.801C226.401 203.142 225.473 203.446 224.616 203.619C223.714 203.807 222.757 203.93 221.794 204.019C219.862 204.197 217.886 204.251 215.909 204.226C211.95 204.173 207.977 203.816 204.03 203.3C200.081 202.772 196.161 202.022 192.292 201.075C188.421 200.141 184.601 198.993 180.876 197.598C173.425 194.758 166.409 191.163 159.521 186.798C162.113 189.981 165.349 192.606 168.8 194.836C172.259 197.08 176.011 198.819 179.827 200.328C187.473 203.341 195.477 205.342 203.597 206.467C207.658 207.039 211.755 207.362 215.88 207.393C217.944 207.403 220.015 207.345 222.107 207.125C223.152 207.01 224.203 206.858 225.275 206.615C226.392 206.361 227.388 206.013 228.427 205.564C228.943 205.335 229.46 205.069 229.986 204.721C230.502 204.358 231.068 203.958 231.541 203.113C231.768 202.695 231.934 202.085 231.836 201.484C231.746 200.887 231.465 200.414 231.188 200.085C230.907 199.751 230.616 199.521 230.334 199.321C230.078 199.145 229.702 198.934 229.517 198.846C227.976 198.133 226.934 196.825 226.358 195.168C225.381 192.257 225.926 188.709 227.741 186.113C229.087 187.819 230.757 189.411 232.796 190.428C234.023 191.062 235.335 191.499 236.661 191.777C236.991 191.843 237.323 191.906 237.671 191.957C238.026 192.005 238.26 192.049 238.715 192.079C239.529 192.121 240.312 191.98 241.025 191.751C242.453 191.281 243.64 190.489 244.693 189.608C245.744 188.718 246.662 187.713 247.47 186.626C248.277 185.537 248.978 184.367 249.523 183.086C249.794 182.445 250.022 181.774 250.184 181.061C250.327 180.343 250.447 179.633 250.342 178.685Z" fill="black"/>
<path d="M247.891 178.924C247.772 179.392 247.061 179.615 246.307 179.421C245.553 179.228 245.037 178.691 245.159 178.224C245.278 177.755 245.987 177.533 246.741 177.726C247.497 177.919 248.013 178.456 247.891 178.924Z" fill="white"/>
<path d="M213.324 140.503C216.838 131.333 231.269 131.179 235.217 144.048C230.621 138.567 222.629 136.309 213.324 140.503Z" fill="black"/>
<path d="M220.584 147.904C229.272 146.341 231.791 153.999 231.076 161.007C230.353 168.675 225.459 172.654 223.396 173.842C220.021 169.842 213.708 169.342 211.458 169.092C210.084 157.842 214.408 149.014 220.584 147.904Z" fill="white"/>
<path d="M217.183 148.177C225.732 143.659 232.697 150.133 231.288 159.767C231.231 160.191 231.153 160.605 231.075 161.007C231.79 153.999 228.27 146.842 220.602 148.948C214.383 150.657 211.332 158.779 212.645 169.091C211.676 169.06 211.27 169.154 210.332 169.279C209.146 163.717 209.896 152.029 217.183 148.177Z" fill="black"/>
<path d="M231.156 162.182C229.986 167.862 226.418 171.926 223.187 171.258C219.955 170.594 218.287 165.449 219.455 159.77C220.627 154.09 224.195 150.026 227.426 150.693C230.658 151.358 232.328 156.503 231.156 162.182Z" fill="black"/>
<path d="M228.529 158.051C227.412 160.402 225.174 161.674 223.533 160.891C221.892 160.11 221.47 157.572 222.588 155.222C223.707 152.87 225.947 151.598 227.588 152.379C229.226 153.161 229.65 155.7 228.529 158.051Z" fill="white"/>
<path d="M205.947 170.875C211.842 169.097 220.761 171.194 225.441 176.403C221.922 168.814 213.203 165.137 205.947 170.875Z" fill="#FFBE31"/>
<path d="M184.23 76.7049C190.429 80.7899 198.421 109.539 196.65 114.732C195.06 119.399 188.664 124.289 181.13 127.37C175.046 129.858 156.396 134.778 152.099 126.454C149.124 120.685 156.894 106.253 169.595 89.9269C177.871 79.2899 180.64 74.3409 184.23 76.7049Z" fill="#FFBE31"/>
<path d="M182.457 86.684C177.559 93.293 170.469 105.743 168.512 118.141C167.256 126.093 174.21 123.094 180.618 120.754C187.028 118.413 191.055 113.586 191.531 110.936C192.006 108.286 184.986 83.271 182.457 86.684Z" fill="#FF9365"/>
<path d="M153.597 129.372C152.499 128.657 151.558 127.647 150.958 126.39C150.349 125.064 150.233 123.699 150.28 122.4C150.38 119.793 151.116 117.394 151.946 115.087C152.807 112.787 153.854 110.591 154.964 108.442C156.079 106.295 157.278 104.203 158.523 102.147C159.791 100.102 161.113 98.098 162.468 96.122C165.146 92.142 168.146 88.39 170.962 84.63C172.386 82.736 173.808 80.841 175.364 78.941C176.151 77.992 176.964 77.042 177.971 76.107C178.481 75.642 179.041 75.174 179.768 74.753C180.477 74.341 181.444 73.954 182.551 73.971C183.66 73.978 184.651 74.407 185.356 74.868L185.536 74.989L185.626 75.053L185.821 75.199C185.993 75.339 186.21 75.511 186.337 75.636C186.624 75.9 186.88 76.167 187.116 76.436C188.055 77.511 188.741 78.604 189.384 79.704C190.648 81.903 191.585 84.167 192.47 86.433C194.156 90.994 195.4 95.649 196.325 100.371C196.774 102.734 197.128 105.119 197.284 107.533C197.372 108.737 197.397 109.952 197.343 111.166C197.243 112.369 197.191 113.633 196.65 114.733C196.785 113.545 196.572 112.387 196.347 111.238C196.117 110.089 195.827 108.951 195.536 107.816C194.927 105.551 194.259 103.303 193.556 101.07C192.144 96.605 190.54 92.193 188.701 87.954C187.806 85.828 186.799 83.756 185.695 81.846C185.138 80.905 184.537 79.992 183.904 79.29C183.289 78.562 182.629 78.234 182.5 78.283C182.416 78.278 182.227 78.313 181.916 78.492C181.613 78.665 181.25 78.949 180.885 79.283C180.153 79.959 179.412 80.807 178.69 81.683C177.239 83.449 175.825 85.353 174.372 87.224C171.454 91.015 168.528 94.671 165.763 98.456C164.378 100.347 163.033 102.263 161.738 104.208C160.427 106.142 159.166 108.104 157.992 110.11C156.814 112.112 155.732 114.161 154.799 116.249C153.865 118.327 153.07 120.479 152.736 122.604C152.586 123.657 152.137 126.123 153.597 129.372Z" fill="black"/>
<ellipse cx="214.965" cy="174.362" rx="10.6338" ry="6.0799" transform="rotate(10.8066 214.965 174.362)" fill="#FF9365"/>
</svg>
