<svg width="281" height="280" viewBox="0 0 281 280" fill="none" xmlns="http://www.w3.org/2000/svg">
<path d="M52.7539 182.736C53.1696 182.892 53.7379 183.223 54.5302 183.715C55.332 184.212 56.3315 184.849 57.311 185.268C58.2581 185.673 59.5516 186.037 60.8167 185.527C66.1102 183.393 72.1323 185.954 74.2669 191.247C76.4012 196.54 73.8399 202.562 68.5467 204.696C63.2533 206.831 57.2316 204.271 55.0969 198.977C54.4962 197.488 53.5997 193.91 53.0408 190.286C52.7638 188.49 52.5789 186.739 52.5498 185.282C52.5353 184.554 52.5606 183.926 52.6246 183.417C52.6611 183.127 52.7076 182.903 52.7539 182.736Z" fill="#FFBE31" stroke="black" stroke-width="3"/>
<path d="M97.0099 238.665C95.4489 231.269 88.5119 226.647 76.4909 226.412C64.5439 226.177 61.9819 222.504 55.1259 218.82C48.2719 215.138 32.7368 230.285 35.0018 234.326C37.1208 238.105 42.1867 237.009 44.0487 238.456C58.5387 249.71 69.9629 255.187 81.4569 255.295C91.7529 255.388 98.8809 247.536 97.0099 238.665Z" fill="#FFBE31"/>
<path d="M52.9774 234.244C49.3064 236.187 49.0373 240.086 51.1483 243.673C48.8573 242.098 46.5012 240.361 44.0472 238.453C42.1852 237.015 37.1194 238.108 34.9984 234.323C32.7364 230.285 48.2693 215.137 55.1273 218.825C57.8063 220.254 59.8282 221.694 62.0062 222.923C60.0732 224.179 58.8552 225.918 58.4002 228.125C57.9662 230.171 56.0184 232.636 52.9774 234.244Z" fill="#E6E1B8"/>
<path d="M42.4312 231.567C41.4642 232.068 40.2781 232.233 39.1111 232.177C37.9381 232.117 36.7573 231.847 35.6123 231.379L37.2881 228.891C37.8921 229.597 38.6422 230.236 39.5042 230.726C40.3642 231.214 41.3432 231.576 42.4312 231.567Z" fill="black"/>
<path d="M94.2922 232.955C92.1452 231.089 89.6672 229.905 87.0812 229.157C84.4922 228.408 81.806 228.057 79.099 227.915C77.736 227.825 76.4221 227.856 74.9411 227.805C73.5001 227.752 72.0511 227.642 70.5981 227.436C67.7021 227.046 64.7501 226.169 62.1191 224.791C59.4791 223.427 57.1962 221.824 54.8102 220.562L54.3642 220.326C54.3582 220.326 54.0222 220.154 54.0092 220.169C53.8942 220.121 53.6061 220.047 53.3891 220.013C52.9141 219.942 52.3831 219.952 51.8241 220.043C50.7071 220.217 49.5201 220.658 48.3781 221.227C46.0851 222.38 43.92 224.003 41.974 225.806C40.055 227.609 38.223 229.687 37.141 231.813C36.884 232.327 36.703 232.858 36.662 233.209C36.639 233.38 36.665 233.48 36.663 233.454C36.658 233.45 36.6561 233.439 36.6501 233.421L36.642 233.414C36.646 233.42 36.5782 233.301 36.6152 233.365L36.6332 233.393L36.7011 233.505C36.7441 233.568 36.803 233.676 36.829 233.706L36.901 233.806C37.406 234.498 38.2371 234.981 39.3871 235.288C40.5461 235.63 41.8492 235.684 43.5732 236.182C44.0102 236.325 44.503 236.511 45.028 236.875L45.9272 237.563L47.58 238.825C52.01 242.153 56.5962 245.261 61.4042 247.875C66.2172 250.468 71.324 252.49 76.642 253.318C82.096 254.126 87.0442 253.939 92.3962 251.661C90.7482 254.105 87.9581 255.731 85.0251 256.417C84.2831 256.593 83.5522 256.71 82.7712 256.778C82.3642 256.812 82.0141 256.824 81.6691 256.836C81.2551 256.851 80.9252 256.836 80.5502 256.832C79.0872 256.797 77.6291 256.679 76.1821 256.482C70.3741 255.695 64.8631 253.615 59.7641 250.994C54.6421 248.378 49.9172 245.16 45.3632 241.778L43.6691 240.496L42.8962 239.908C42.8442 239.873 42.6811 239.789 42.4521 239.72C41.4801 239.421 39.9541 239.307 38.4081 238.89C36.8621 238.496 35.0481 237.629 33.8801 236.03L33.6501 235.698C33.5731 235.589 33.5492 235.54 33.4982 235.457L33.4311 235.343L33.3551 235.211L33.2922 235.082C33.2032 234.909 33.1351 234.736 33.0861 234.563C32.8761 233.865 32.8931 233.248 32.9601 232.726C33.1151 231.686 33.4592 230.893 33.8232 230.157C34.5702 228.698 35.4792 227.49 36.4382 226.34C37.4052 225.198 38.4382 224.143 39.5292 223.15C41.7172 221.174 44.0971 219.411 46.8351 218.069C48.2121 217.418 49.6782 216.844 51.3422 216.624C52.1722 216.51 53.0562 216.496 53.9672 216.656C54.4402 216.751 54.8382 216.842 55.3652 217.069C55.6822 217.201 55.654 217.202 55.966 217.355L56.4411 217.625C58.9811 219.047 61.2751 220.729 63.5971 221.986C65.9141 223.262 68.4012 224.065 71.0512 224.49C72.3702 224.709 73.719 224.842 75.078 224.923C76.398 224.995 77.8922 225.018 79.3232 225.183C82.2012 225.498 85.089 226.161 87.756 227.388C90.397 228.613 92.8532 230.477 94.2922 232.955Z" fill="black"/>
<path d="M157.22 243.714C155.985 249.67 160.866 256.923 174.283 260.209C191.145 264.341 208.206 259.188 211.702 252.605C215.199 246.022 215.502 238.026 212.267 236.028C209.93 234.585 205.438 237.701 204.182 238.351C202.05 239.453 189.843 235.146 176.138 232.653C166.148 230.835 159.043 234.924 157.22 243.714Z" fill="#FFBE31"/>
<path d="M212.267 236.028C215.501 238.028 215.201 246.019 211.703 252.602C209.715 256.348 203.346 259.625 195.118 261.001C197.906 258.061 198.709 255.092 197.386 252.128C196.598 250.346 196.289 247.407 198.444 244.769C200.659 242.061 198.895 238.998 195.676 237.142C200.085 238.215 203.205 238.867 204.183 238.351C205.436 237.706 209.924 234.586 212.267 236.028Z" fill="#E6E1B8"/>
<path d="M162.663 255.115C167.416 257.061 172.007 258.261 176.817 259.235C181.612 260.109 186.539 260.289 191.369 259.775C193.782 259.52 196.175 259.086 198.494 258.453C200.81 257.825 203.078 257.017 205.131 255.925C207.154 254.856 209.077 253.42 209.971 251.801C211.028 249.809 211.821 247.541 212.234 245.292C212.449 244.164 212.577 243.028 212.572 241.928C212.57 240.833 212.432 239.752 212.112 238.907C211.956 238.485 211.751 238.143 211.547 237.92C211.494 237.866 211.445 237.814 211.394 237.774L211.319 237.714L211.282 237.69L211.263 237.676C211.299 237.698 211.165 237.619 211.343 237.723L211.318 237.708L211.126 237.604C211.139 237.62 211.153 237.629 211.171 237.63C211.139 237.623 211.094 237.607 211.039 237.599C210.561 237.492 209.47 237.76 208.491 238.204C207.459 238.655 206.5 239.226 205.333 239.897C205.151 239.985 205.086 240.069 204.531 240.254C204.166 240.36 203.923 240.385 203.671 240.409C203.199 240.447 202.809 240.429 202.435 240.401C201.695 240.342 201.028 240.243 200.373 240.119C197.783 239.614 195.363 238.955 192.92 238.325C188.06 237.046 183.234 235.784 178.365 234.761C177.135 234.504 175.947 234.258 174.745 234.047C173.616 233.849 172.424 233.698 171.257 233.6C168.898 233.407 166.546 233.498 163.976 234.004C165.843 232.126 168.548 231.157 171.198 230.871C172.543 230.723 173.863 230.742 175.222 230.89C176.505 231.034 177.782 231.292 179.013 231.517C184 232.455 188.925 233.631 193.803 234.804C196.237 235.377 198.686 235.981 201.036 236.384C201.618 236.48 202.195 236.57 202.708 236.604C202.958 236.622 203.198 236.624 203.35 236.611C203.411 236.607 203.482 236.588 203.417 236.604C203.168 236.709 203.373 236.629 203.468 236.566C204.473 235.981 205.672 235.254 206.944 234.694C207.59 234.41 208.268 234.148 209.033 233.958C209.794 233.773 210.659 233.638 211.677 233.796C211.931 233.837 212.191 233.902 212.456 233.991C212.619 234.052 212.78 234.121 212.937 234.195L213.162 234.315L213.317 234.405L213.396 234.458L213.554 234.563C213.655 234.636 213.758 234.711 213.851 234.791C214.046 234.947 214.218 235.116 214.384 235.291C215.031 235.993 215.444 236.771 215.734 237.521C216.3 239.034 216.448 240.491 216.467 241.9C216.478 243.312 216.329 244.683 216.076 246.024C215.537 248.706 214.626 251.225 213.298 253.654C212.5 255.057 211.435 256.102 210.333 256.993C209.226 257.876 208.048 258.589 206.85 259.208C202.029 261.645 196.85 262.723 191.684 263.153C186.512 263.564 181.302 263.234 176.239 262.172C173.713 261.649 171.205 260.924 168.856 259.787C166.521 258.649 164.289 257.154 162.663 255.115Z" fill="black"/>
<path d="M208.331 242.824C208.85 241.864 209.737 241.059 210.732 240.45C211.736 239.841 212.865 239.399 214.077 239.14L214.09 242.141C213.194 241.895 212.215 241.79 211.227 241.869C210.24 241.95 209.225 242.204 208.331 242.824Z" fill="black"/>
<path d="M221.748 132.846C226.412 132.742 228.281 163.297 224.147 166.104C217.945 170.308 201.752 170.18 195.643 164.766C189.65 159.457 202.592 148.835 208.861 143.095C216.426 136.163 217.717 132.938 221.748 132.846Z" fill="#FFBE31"/>
<path d="M224.147 166.104C224.693 165.457 224.814 164.641 224.96 163.858C225.087 163.064 225.146 162.256 225.195 161.449C225.289 159.832 225.291 158.203 225.311 156.575C225.331 153.314 225.194 150.036 224.843 146.788C224.489 143.553 223.985 140.292 223.094 137.286C222.866 136.546 222.599 135.823 222.282 135.21C222.129 134.907 221.952 134.634 221.801 134.46C221.646 134.271 221.531 134.282 221.72 134.332C221.756 134.33 221.726 134.34 221.817 134.333L221.662 134.342C221.563 134.35 221.437 134.355 221.385 134.365C221.257 134.378 221.103 134.404 220.949 134.433C220.647 134.494 220.367 134.588 220.089 134.715C219.531 134.97 218.979 135.373 218.412 135.864C217.275 136.847 216.139 138.076 214.975 139.26C213.815 140.457 212.622 141.649 211.405 142.809C208.966 145.15 206.398 147.232 204.009 149.471C201.605 151.687 199.32 154.027 197.412 156.53C196.46 157.773 195.579 159.063 195.087 160.439C194.829 161.127 194.717 161.833 194.781 162.569C194.852 163.303 195.162 164.053 195.642 164.765C194.883 164.38 194.19 163.733 193.787 162.87C193.363 162.015 193.284 161.012 193.365 160.081C193.584 158.2 194.4 156.556 195.314 155.076C196.251 153.597 197.363 152.285 198.499 151.02C199.639 149.757 200.826 148.557 202.027 147.385C204.439 145.044 206.929 142.826 209.295 140.593C210.477 139.466 211.63 138.309 212.776 137.122C213.934 135.941 215.046 134.721 216.412 133.526C217.097 132.935 217.907 132.359 218.87 131.94C219.349 131.734 219.863 131.576 220.378 131.482C220.633 131.439 220.889 131.402 221.173 131.381C221.326 131.366 221.408 131.367 221.517 131.363L221.673 131.356C221.866 131.353 221.942 131.357 222.078 131.376C223.106 131.528 223.674 132.118 224.047 132.552C224.427 133.013 224.678 133.46 224.893 133.898C225.316 134.772 225.597 135.622 225.84 136.468C226.779 139.847 227.131 143.198 227.385 146.562C227.602 149.923 227.686 153.286 227.454 156.655C227.341 158.34 227.092 160.025 226.665 161.683C226.448 162.512 226.175 163.333 225.802 164.122C225.424 164.885 224.952 165.737 224.147 166.104Z" fill="black"/>
<path d="M60.5291 225.076C58.6471 202.642 74.05 183.634 101.386 183.227C129.238 182.811 135.617 195.083 169.447 200.009C187.885 202.694 196.168 212.709 195.105 224.901C193.042 248.542 156.254 263.707 127.392 266.005C102.117 268.019 63.4941 260.413 60.5291 225.076Z" fill="#FFBE31"/>
<path d="M169.445 200.009C187.883 202.697 196.162 212.707 195.1 224.905C193.046 248.543 156.259 263.706 127.388 266.007C102.116 268.022 63.4934 260.413 60.5294 225.079C59.2644 209.929 65.8674 196.346 78.7064 188.987C70.3724 202.55 75.0222 222.918 99.1932 226.782C134.855 232.484 164.629 215.184 149.929 195.709C155.387 197.365 161.695 198.882 169.445 200.009Z" fill="#FFBE31"/>
<path d="M194.995 219.958C195.214 221.557 195.25 223.209 195.1 224.908C193.045 248.546 156.259 263.708 127.386 266.01C110.546 267.355 87.77 264.42 73.582 251.856C85.336 256.999 103.681 262.077 132.414 258.386C171.09 253.424 173.442 231.427 181.451 221.435C188.19 213.031 193.268 215.526 194.995 219.958Z" fill="#E6E1B8"/>
<path d="M58.3297 225.271L58.3268 225.234C57.6518 217.705 58.8558 209.757 62.3888 202.854C64.1388 199.402 66.4279 196.216 69.1459 193.458C71.8569 190.688 75.0288 188.401 78.4118 186.578C85.2128 182.933 92.8627 181.3 100.381 181.118C107.824 180.938 115.38 181.723 122.577 183.816C129.788 185.872 136.438 188.964 143.179 191.442C149.91 193.969 156.804 195.933 163.861 197.283C165.625 197.626 167.395 197.93 169.172 198.205L170.526 198.418L171.922 198.667C172.842 198.844 173.762 199.038 174.676 199.266C178.325 200.17 181.933 201.478 185.245 203.446C188.544 205.403 191.546 208.078 193.618 211.444C195.717 214.787 196.764 218.754 196.771 222.637C196.803 226.493 195.891 230.408 194.263 233.867C192.638 237.353 190.36 240.459 187.768 243.184C182.543 248.638 176.197 252.702 169.615 256.038C163 259.349 156.041 261.878 148.935 263.804C141.821 265.706 134.557 267.069 127.19 267.68C119.81 268.271 112.379 268.044 105.038 266.989C97.7087 265.918 90.4299 263.988 83.6339 260.746C76.8639 257.523 70.5658 252.838 66.0438 246.596C63.7828 243.496 61.9858 240.049 60.7108 236.434C59.4358 232.819 58.6707 229.049 58.3297 225.271ZM62.7308 224.906C63.2408 231.825 65.3959 238.585 69.3969 244.185C73.3629 249.818 79.0209 254.189 85.3129 257.287C91.6229 260.4 98.5379 262.347 105.571 263.468C112.613 264.577 119.813 264.87 126.937 264.384C134.075 263.869 141.19 262.655 148.125 260.801C155.062 258.947 161.85 256.506 168.257 253.326C174.645 250.149 180.709 246.189 185.544 241.085C187.947 238.537 190.007 235.686 191.443 232.564C192.886 229.434 193.653 226.09 193.617 222.666C193.592 219.283 192.686 215.958 190.903 213.135C189.128 210.3 186.522 208.014 183.562 206.299C180.595 204.575 177.279 203.402 173.87 202.6C173.016 202.397 172.154 202.223 171.289 202.067L169.996 201.851L168.655 201.655C166.834 201.393 165.017 201.1 163.205 200.77C155.959 199.467 148.792 197.508 141.876 195C134.945 192.527 128.314 189.55 121.492 187.694C114.684 185.797 107.597 185.138 100.511 185.383C93.5199 185.629 86.5769 187.227 80.5609 190.539C74.5559 193.836 69.5579 198.846 66.4889 204.934C63.3969 211.016 62.1708 217.969 62.7308 224.906Z" fill="black"/>
<path d="M197.963 150.211C215.79 147.726 235.701 155.516 247.426 169.976C257.994 183.009 257.806 205.169 256.157 211.327C254.507 217.484 265.28 213.666 266.179 217.342C267.249 221.72 262.772 230.439 258.011 230.819C252.008 231.297 248.704 220.581 240.299 232.684C236.819 237.698 243.027 242.067 250.121 241.699C253.472 241.525 252.373 244.732 248.29 246.873C239.256 251.61 198.343 256.174 174.95 238.174C149.415 218.524 152.404 193.162 158.084 177.742C162.811 164.906 176.399 153.217 197.963 150.211Z" fill="#FFBE31"/>
<path d="M225.561 154.025C211.243 153.45 183.773 162.035 186.16 197.481C187.574 218.509 196.279 231.468 207.098 239.26C209.34 244.598 214.835 249.216 225.274 251.066C209.315 251.685 189.003 249.007 174.971 238.238C149.42 218.605 152.392 193.245 158.059 177.818C162.776 164.98 176.356 153.28 197.917 150.259C207.036 148.978 216.713 150.401 225.561 154.025Z" fill="#FFBE31"/>
<path d="M237.78 249.833C234.15 250.441 229.888 250.895 225.273 251.066C214.835 249.216 209.339 244.598 207.097 239.26C216.861 246.294 228.355 249.116 237.78 249.833Z" fill="#E6E1B8"/>
<path d="M266.18 217.341C265.368 214.033 256.585 216.788 256.023 212.897C256.019 212.891 256.015 212.888 256.012 212.883L256.015 212.882C255.955 212.45 255.994 211.942 256.156 211.331C257.495 206.31 257.859 190.665 252.22 177.995C249.915 178.071 247.1 177.164 243.072 174.938C236.546 171.328 220.37 165.029 214.337 183.118C211.895 190.443 215.215 200.024 217.327 207.23C218.739 212.052 217.825 213.423 212.887 217.472C203.942 224.793 199.355 246.479 225.265 251.068C230.363 250.876 234.994 250.341 238.859 249.634C238.848 249.625 238.836 249.615 238.824 249.607C238.838 249.612 238.853 249.619 238.868 249.625C243.106 248.846 246.403 247.863 248.293 246.871C252.379 244.724 253.478 241.578 250.124 241.697C243.279 241.94 236.727 238.05 240.302 232.682C248.376 220.563 252.009 231.293 258.014 230.817C262.773 230.437 267.251 221.719 266.18 217.341Z" fill="#FFFBD9"/>
<path d="M262.946 223.619C262.608 221.312 261.849 219.593 260.297 217.593C259.56 216.642 259.443 215.696 260.084 215.252C262.71 215.537 265.72 215.473 266.181 217.341C266.722 219.538 265.852 222.834 264.253 225.613C263.67 225.65 263.124 224.897 262.946 223.619Z" fill="black"/>
<path d="M267.403 216.699C267.218 216.163 266.852 215.673 266.449 215.345C266.048 215.012 265.633 214.808 265.247 214.656C264.47 214.363 263.766 214.249 263.091 214.151C261.751 213.973 260.496 213.922 259.379 213.726C258.83 213.632 258.312 213.495 257.967 213.318C257.609 213.125 257.531 213.004 257.474 212.823C257.415 212.616 257.42 212.242 257.563 211.722C257.73 211.117 257.88 210.396 257.983 209.754C258.403 207.128 258.525 204.548 258.536 201.962C258.536 199.377 258.394 196.798 258.117 194.231C257.552 189.1 256.467 183.992 254.59 179.097C253.647 176.655 252.503 174.267 251.096 172.014C250.744 171.45 250.378 170.895 249.993 170.349C249.807 170.077 249.593 169.794 249.391 169.52L248.792 168.746C247.975 167.723 247.119 166.73 246.229 165.771C239.085 158.103 229.785 152.567 219.718 149.67C214.675 148.239 209.428 147.464 204.149 147.484C201.529 147.483 198.828 147.714 196.268 148.118C193.693 148.51 191.129 149.039 188.6 149.722C183.549 151.101 178.636 153.125 174.098 155.853C169.562 158.574 165.43 162.056 162.073 166.228C160.396 168.312 158.915 170.567 157.695 172.966C157.088 174.165 156.536 175.408 156.069 176.665C155.613 177.917 155.22 179.141 154.849 180.397C154.111 182.9 153.513 185.444 153.076 188.02C152.672 190.602 152.434 193.212 152.38 195.825C152.307 198.439 152.497 201.057 152.859 203.64C153.213 206.225 153.818 208.772 154.634 211.237C156.253 216.169 158.781 220.758 162.041 224.649C159.68 220.156 157.927 215.447 156.945 210.617C156.455 208.203 156.163 205.763 156.017 203.325C155.879 200.884 155.962 198.441 156.142 196.011C156.333 193.581 156.704 191.165 157.211 188.782C157.69 186.391 158.317 184.03 159.076 181.708C159.451 180.555 159.873 179.388 160.305 178.274C160.729 177.17 161.213 176.106 161.758 175.059C162.847 172.966 164.172 170.992 165.679 169.158C168.695 165.485 172.435 162.402 176.546 159.921C180.663 157.435 185.184 155.597 189.859 154.282C192.196 153.62 194.582 153.097 196.993 152.7C199.417 152.29 201.76 152.064 204.19 152.028C209.011 151.952 213.86 152.603 218.549 153.87C227.916 156.398 236.726 161.354 243.503 168.349C250.487 175.125 253.669 184.864 254.925 194.603C255.516 199.48 255.702 204.516 255.063 209.294C254.973 209.899 254.876 210.419 254.722 211.033C254.557 211.725 254.4 212.658 254.707 213.668C254.861 214.173 255.154 214.675 255.524 215.048C255.892 215.432 256.306 215.692 256.7 215.884C257.493 216.263 258.222 216.403 258.915 216.52C260.292 216.73 261.566 216.76 262.732 216.903C263.307 216.97 263.855 217.071 264.264 217.221C264.692 217.385 264.815 217.526 264.842 217.616C264.935 217.913 265.003 218.47 264.988 218.99C264.976 219.521 264.907 220.074 264.795 220.631C264.568 221.741 264.179 222.854 263.683 223.911C262.693 226 261.238 228.032 259.432 229.083C258.12 229.823 257.423 229.742 256.056 229.345C253.598 228.63 249.941 223.893 245.439 226.007C240.586 228.286 237.108 233.445 237.913 236.634C238.69 239.713 240.527 241.099 244.025 242.191C247.031 243.13 250.69 242.791 249.938 243.915C249.258 244.927 247.49 245.603 246.678 245.931C245.824 246.28 244.908 246.577 243.978 246.84C242.111 247.369 240.179 247.785 238.23 248.124C234.33 248.798 230.358 249.175 226.383 249.392C222.404 249.599 218.413 249.58 214.436 249.357C210.458 249.149 206.494 248.721 202.576 248.034C194.732 246.608 187.175 244.362 179.604 241.333C182.734 243.987 186.397 245.974 190.2 247.533C194.011 249.104 198.016 250.128 202.046 250.911C210.115 252.472 218.351 252.97 226.538 252.587C230.636 252.403 234.723 251.969 238.784 251.245C240.814 250.874 242.84 250.44 244.855 249.84C245.861 249.534 246.866 249.194 247.876 248.757C248.928 248.303 249.844 247.778 250.782 247.146C251.247 246.828 251.708 246.471 252.16 246.034C252.599 245.582 253.085 245.084 253.392 244.167C253.538 243.715 254.011 241.896 252.736 240.924C250.657 239.335 244.484 241.778 241.288 236.875C239.612 234.305 243.555 230.068 246.244 228.762C249.414 227.225 251.429 230.275 255.238 231.783C255.864 232.031 256.737 232.037 257.372 232.077C257.73 232.099 257.969 232.06 258.423 232.007C259.231 231.899 259.975 231.617 260.632 231.262C261.949 230.537 262.97 229.541 263.845 228.481C264.715 227.415 265.433 226.257 266.029 225.042C266.621 223.822 267.097 222.544 267.397 221.185C267.546 220.505 267.65 219.805 267.676 219.073C267.693 218.33 267.679 217.611 267.403 216.699Z" fill="black"/>
<path d="M265.04 217.382C265.008 217.863 264.352 218.212 263.575 218.16C262.797 218.109 262.192 217.677 262.224 217.194C262.256 216.711 262.912 216.362 263.688 216.414C264.466 216.466 265.072 216.899 265.04 217.382Z" fill="white"/>
<ellipse cx="231.744" cy="220.134" rx="10.6338" ry="6.0799" transform="rotate(10.8066 231.744 220.134)" fill="#FF9365"/>
<path d="M222.159 191.84C226.919 189.475 237.646 188.808 243.174 197.342C247.453 203.95 246.429 214.281 245.459 218.374C241.598 213.602 230.611 207.743 219.934 212.384C223.283 206.226 235.592 201.029 243.435 212.276C240.6 197.707 232.481 193.248 222.159 191.84Z" fill="black"/>
<path d="M196.101 128.872C202.045 133.32 208.296 162.497 206.219 167.575C204.35 172.138 197.672 176.636 189.968 179.26C183.744 181.378 164.83 185.17 161.042 176.604C158.419 170.666 167.041 156.726 180.698 141.193C189.598 131.07 192.659 126.296 196.101 128.872Z" fill="#FFBE31"/>
<path d="M193.731 138.727C188.446 145.029 180.623 157.031 177.924 169.29C176.194 177.152 183.316 174.575 189.855 172.624C196.394 170.673 200.701 166.096 201.334 163.478C201.968 160.863 196.461 135.471 193.731 138.727Z" fill="#FF9365"/>
<path d="M162.363 179.605C161.311 178.826 160.429 177.761 159.908 176.469C159.38 175.109 159.345 173.74 159.47 172.446C159.728 169.85 160.606 167.5 161.573 165.247C162.57 163.002 163.746 160.874 164.984 158.796C166.225 156.719 167.549 154.703 168.915 152.725C170.303 150.761 171.743 148.84 173.215 146.949C176.125 143.136 179.345 139.571 182.382 135.988C183.917 134.181 185.451 132.376 187.117 130.571C187.961 129.672 188.828 128.771 189.889 127.899C190.427 127.466 191.016 127.033 191.765 126.656C192.496 126.287 193.486 125.96 194.591 126.043C195.697 126.116 196.661 126.604 197.336 127.107L197.509 127.239L197.594 127.308L197.78 127.464C197.946 127.614 198.15 127.799 198.27 127.931C198.541 128.211 198.782 128.494 198.999 128.776C199.873 129.906 200.491 131.038 201.065 132.176C202.193 134.447 202.994 136.761 203.741 139.076C205.151 143.73 206.113 148.452 206.754 153.221C207.061 155.607 207.273 158.009 207.282 160.428C207.299 161.634 207.25 162.848 207.121 164.059C206.95 165.251 206.822 166.51 206.219 167.576C206.424 166.399 206.28 165.23 206.124 164.069C205.966 162.909 205.745 161.756 205.521 160.605C205.049 158.308 204.515 156.025 203.948 153.751C202.806 149.21 201.469 144.711 199.888 140.367C199.123 138.192 198.24 136.062 197.253 134.091C196.754 133.116 196.208 132.17 195.619 131.432C195.048 130.667 194.41 130.301 194.277 130.342C194.194 130.332 194.003 130.356 193.682 130.517C193.369 130.67 192.988 130.933 192.607 131.244C191.833 131.876 191.044 132.678 190.27 133.509C188.715 135.184 187.19 137 185.626 138.782C182.484 142.388 179.346 145.864 176.358 149.475C174.861 151.28 173.402 153.111 171.995 154.975C170.57 156.827 169.192 158.711 167.9 160.643C166.606 162.57 165.402 164.55 164.344 166.58C163.286 168.598 162.366 170.697 161.906 172.801C161.698 173.841 161.1 176.275 162.363 179.605Z" fill="black"/>
<path d="M95.4543 243.886C93.7253 236.528 82.8975 229.078 71.0615 231.191C54.7595 234.1 45.7324 229.496 38.6184 226.344C31.5044 223.191 16.1555 239.659 18.7205 243.515C21.1205 247.124 26.0934 245.638 28.0544 246.946C46.8994 259.543 65.4115 264.378 81.0095 261.897C93.1235 259.969 97.0163 250.544 95.4543 243.886Z" fill="#FFBE31"/>
<path d="M95.4481 243.887C97.0151 250.538 93.123 259.965 81.004 261.897C65.406 264.376 46.8991 259.549 28.0531 246.95C26.0881 245.638 21.1152 247.126 18.7172 243.514C16.1562 239.66 31.5052 223.194 38.6132 226.344C42.8172 228.204 47.6941 230.573 54.3341 231.597C44.0011 236.549 50.9562 251.084 69.7392 254.764C85.3281 257.822 94.9011 250.497 95.3661 243.577C95.3931 243.68 95.4211 243.783 95.4481 243.887Z" fill="#FFBE31"/>
<path d="M41.6139 235.963C41.4269 238.041 39.7588 240.716 36.9308 242.662C33.6748 244.889 33.6769 248.52 35.8319 251.719C33.2469 250.279 30.6529 248.689 28.0519 246.949C26.0869 245.637 21.1137 247.125 18.7157 243.513C16.1547 239.659 31.5039 223.193 38.6119 226.343C40.8109 227.32 43.2018 228.436 45.9398 229.414C43.3338 231.015 41.8629 233.195 41.6139 235.963Z" fill="#FFFBD9"/>
<path d="M25.946 240.327C24.975 240.823 23.787 240.982 22.623 240.919C21.449 240.853 20.27 240.576 19.126 240.102L20.8169 237.625C21.4179 238.333 22.163 238.976 23.02 239.473C23.879 239.962 24.859 240.33 25.946 240.327Z" fill="black"/>
<path d="M90.57 236.479C84.757 232.941 78.1502 231.545 71.9062 232.592C65.2612 233.907 58.0522 234.25 51.1872 232.738C47.7512 232.009 44.424 230.827 41.266 229.479L38.923 228.466L37.8361 227.997C37.7571 227.969 37.602 227.9 37.58 227.905L37.4582 227.874C37.3312 227.848 37.2011 227.822 37.0641 227.808C35.9611 227.672 34.52 228.081 33.174 228.72C30.445 230.024 27.8832 232.098 25.6342 234.363C24.5092 235.508 23.4591 236.724 22.5341 237.994C21.6301 239.245 20.791 240.644 20.465 241.818C20.387 242.095 20.3591 242.35 20.3681 242.467C20.3701 242.53 20.38 242.544 20.372 242.519C20.388 242.53 20.2451 242.312 20.4401 242.592C20.7411 243 21.148 243.339 21.651 243.588C22.677 244.116 24.1551 244.233 25.9381 244.405C26.3911 244.459 26.8701 244.517 27.4201 244.647C27.6951 244.717 27.981 244.793 28.296 244.924C28.449 244.98 28.6212 245.067 28.7792 245.149C28.9512 245.248 29.1321 245.36 29.1891 245.399C29.8901 245.859 30.6031 246.343 31.2941 246.781C32.6761 247.668 34.0991 248.543 35.5311 249.373C41.2651 252.714 47.3121 255.494 53.5841 257.56C59.8511 259.609 66.392 260.857 72.954 260.912C74.592 260.922 76.229 260.864 77.861 260.723C79.486 260.566 81.1321 260.36 82.6581 260.055C85.7711 259.44 88.727 258.416 91.756 256.659C90.11 259.815 86.7912 261.95 83.3622 262.924C81.6062 263.429 79.891 263.623 78.162 263.831C76.433 264.013 74.6962 264.105 72.9572 264.125C66.0022 264.195 59.0971 262.999 52.5031 260.972C45.8931 258.961 39.6042 256.056 33.6442 252.65C32.1502 251.797 30.689 250.914 29.223 249.986L27.0861 248.605C26.9681 248.527 26.9642 248.534 26.9562 248.526C26.9262 248.514 26.9112 248.499 26.8642 248.486C26.7902 248.454 26.6681 248.419 26.5341 248.386C26.2631 248.322 25.901 248.275 25.515 248.233C23.966 248.06 21.9701 248.047 19.9311 247.067C18.9141 246.582 17.9811 245.814 17.2931 244.852C17.2431 244.791 16.8411 244.232 16.7301 243.835C16.5811 243.412 16.5161 243.005 16.5031 242.646C16.4791 241.92 16.5991 241.333 16.7431 240.8C17.3741 238.72 18.3921 237.226 19.4481 235.745C20.5191 234.292 21.691 232.957 22.943 231.701C25.464 229.216 28.226 226.956 31.609 225.355C33.306 224.599 35.2132 223.916 37.4992 224.163C37.7802 224.195 38.065 224.255 38.35 224.323L38.8341 224.471C39.0171 224.531 39.0531 224.556 39.1701 224.599L39.5321 224.756L39.8222 224.888L40.401 225.153L42.6872 226.187C45.7162 227.542 48.7642 228.682 51.9262 229.411C55.0812 230.15 58.3262 230.496 61.5922 230.493C63.2262 230.492 64.861 230.407 66.495 230.251C67.312 230.174 68.129 230.074 68.944 229.96L71.444 229.586C78.564 228.58 86.138 231.19 90.57 236.479Z" fill="black"/>
<path d="M205.793 228.549C209.388 229.79 210.914 238.711 208.94 245.896C206.965 253.079 185.909 260.242 168.557 259.704C151.208 259.166 147.584 251.475 147.069 245.415C146.424 237.659 152.264 232.153 161.106 230.601C172.611 228.57 196.573 234.116 198.407 232.581C199.492 231.674 203.203 227.644 205.793 228.549Z" fill="#FFBE31"/>
<path d="M198.407 232.58C199.492 231.674 203.203 227.644 205.793 228.549C209.388 229.79 210.914 238.711 208.94 245.896C206.965 253.079 185.909 260.242 168.557 259.704C151.208 259.166 147.584 251.475 147.069 245.415C146.973 244.332 147.017 243.292 147.175 242.303C149.084 248.266 160.067 252.112 170.519 251.767C181.696 251.396 194.021 239.588 188.073 232.161C189.949 232.305 198.039 232.888 198.407 232.58Z" fill="#FFBE31"/>
<path d="M198.407 232.58C199.492 231.674 203.203 227.644 205.793 228.549C209.388 229.79 210.914 238.711 208.94 245.896C207.9 249.678 201.582 253.443 193.305 256.09C195.754 252.716 196.151 249.598 194.391 246.811C193.341 245.17 192.682 242.442 194.37 239.38C196.012 236.392 194.04 233.729 190.767 232.353C193.841 232.565 198.136 232.807 198.407 232.58Z" fill="#FFFBD9"/>
<path d="M154.199 256.508C156.956 257.28 159.628 257.691 162.343 257.915C165.047 258.146 167.769 258.237 170.5 258.22C175.962 258.14 181.437 257.381 186.764 256.11C192.064 254.814 197.329 253.043 201.913 250.407C203.046 249.741 204.117 249.005 205.038 248.192C205.95 247.391 206.717 246.463 207.012 245.637C207.053 245.526 207.071 245.456 207.112 245.315L207.231 244.84C207.304 244.535 207.374 244.217 207.432 243.902C207.554 243.271 207.65 242.632 207.717 241.987C207.854 240.697 207.892 239.394 207.826 238.103C207.755 236.814 207.59 235.534 207.305 234.324C207.022 233.127 206.586 231.956 206.016 231.164C205.739 230.771 205.435 230.515 205.231 230.426L205.158 230.394C205.36 230.458 205.196 230.407 205.231 230.419L205.202 230.409L205.139 230.391L205.016 230.356C205.032 230.372 205.06 230.377 205.07 230.374C205.048 230.376 205.026 230.372 205.003 230.371C204.899 230.366 204.737 230.386 204.542 230.444C203.726 230.682 202.652 231.413 201.688 232.233C201.193 232.648 200.713 233.09 200.19 233.576L199.752 233.971L199.686 234.026L199.653 234.055L199.462 234.198L199.405 234.233L199.241 234.331C199.094 234.414 198.848 234.517 198.762 234.539L198.49 234.618C197.852 234.762 197.45 234.761 197.023 234.775C195.41 234.783 194.022 234.622 192.593 234.473C189.766 234.167 187.006 233.741 184.239 233.376C178.717 232.64 173.195 231.943 167.735 231.834C166.374 231.812 165.016 231.831 163.69 231.929C163.024 231.977 162.366 232.047 161.723 232.141L161.25 232.208L160.733 232.293L159.779 232.457C157.174 232.923 154.665 233.543 151.864 234.484C153.468 231.945 156.225 230.318 159.046 229.46C159.396 229.353 159.771 229.249 160.139 229.162L160.653 229.052L161.214 228.941C161.953 228.818 162.687 228.728 163.416 228.659C164.876 228.523 166.32 228.474 167.756 228.47C173.497 228.473 179.115 229.079 184.697 229.708L193.005 230.665C194.357 230.803 195.76 230.939 196.945 230.924C197.219 230.921 197.518 230.888 197.562 230.872C197.555 230.873 197.548 230.875 197.541 230.878C197.541 230.878 197.373 230.939 197.307 230.99L197.244 231.035C197.227 231.048 197.255 231.028 197.26 231.026L197.313 230.99C197.25 231.039 197.499 230.854 197.174 231.096L197.191 231.08L197.225 231.051L197.567 230.74C198.066 230.274 198.613 229.761 199.187 229.275C200.359 228.314 201.573 227.314 203.443 226.708C203.918 226.566 204.453 226.466 205.05 226.472L205.505 226.498C205.689 226.52 205.891 226.558 206.077 226.602L206.438 226.706C206.578 226.759 206.719 226.808 206.851 226.871C207.928 227.367 208.649 228.133 209.19 228.867C210.248 230.363 210.751 231.891 211.133 233.4C211.503 234.909 211.686 236.42 211.742 237.923C211.804 239.43 211.742 240.93 211.566 242.422C211.478 243.168 211.359 243.912 211.208 244.653C211.135 245.023 211.05 245.387 210.955 245.762L210.813 246.301C210.758 246.498 210.676 246.765 210.592 246.982C209.878 248.786 208.695 249.999 207.526 251.035C206.334 252.061 205.073 252.891 203.787 253.631C198.623 256.541 193.097 258.2 187.52 259.441C181.932 260.638 176.236 261.295 170.501 261.249C167.639 261.233 164.754 260.983 161.938 260.283C159.15 259.567 156.356 258.434 154.199 256.508Z" fill="black"/>
<path d="M203.027 236.166C203.377 235.133 204.115 234.191 204.993 233.421C205.877 232.65 206.915 232.023 208.066 231.564L208.586 234.518C207.661 234.429 206.679 234.49 205.717 234.736C204.761 234.983 203.804 235.406 203.027 236.166Z" fill="black"/>
</svg>
