<svg width="281" height="280" viewBox="0 0 281 280" fill="none" xmlns="http://www.w3.org/2000/svg">
<path d="M21.6152 151.989C21.9423 152.289 22.3454 152.809 22.8965 153.562C23.4541 154.323 24.1427 155.288 24.8945 156.042C25.6216 156.772 26.6847 157.594 28.0488 157.594C33.7564 157.594 38.3838 162.221 38.3838 167.929C38.3836 173.636 33.7563 178.263 28.0488 178.263C22.3412 178.263 17.7141 173.636 17.7139 167.929C17.7139 166.322 18.2206 162.669 19.0576 159.099C19.4724 157.329 19.9557 155.636 20.4736 154.274C20.7326 153.594 20.9908 153.021 21.2402 152.573C21.3828 152.317 21.5097 152.127 21.6152 151.989Z" fill="#FFBE31" stroke="black" stroke-width="3"/>
<path d="M60.1154 198.224C53.1174 200.995 49.8084 208.429 51.7204 219.959C53.6224 231.42 50.4664 234.507 48.0664 241.697C45.6664 248.887 63.3434 261.11 66.9144 258.244C70.2564 255.563 68.2714 250.911 69.3633 248.882C77.8513 233.08 81.2033 221.208 79.2543 210.204C77.5073 200.347 68.5074 194.896 60.1154 198.224Z" fill="#FFBE31"/>
<path d="M63.6246 241.079C66.1926 244.25 70.0776 243.83 73.2286 241.189C72.0876 243.652 70.8026 246.207 69.3616 248.882C68.2776 250.91 70.2576 255.564 66.9146 258.248C63.3446 261.113 45.6686 248.892 48.0706 241.694C48.9986 238.887 50.0546 236.704 50.8736 234.408C52.4536 236.04 54.3836 236.901 56.6376 236.955C58.7286 237.015 61.4996 238.449 63.6246 241.079Z" fill="#E6E1B8"/>
<path d="M62.8746 251.623C63.5406 252.462 63.9156 253.565 64.0676 254.689C64.2176 255.819 64.1617 256.998 63.9077 258.174L61.1597 257.002C61.7477 256.303 62.2417 255.477 62.5717 254.566C62.8967 253.661 63.0766 252.659 62.8746 251.623Z" fill="black"/>
<path d="M54.9825 201.812C53.5295 204.189 52.8066 206.761 52.5336 209.363C52.2566 211.968 52.3926 214.596 52.7366 217.209C52.8906 218.527 53.1545 219.776 53.3695 221.203C53.5745 222.588 53.7246 223.994 53.7816 225.418C53.9146 228.254 53.5786 231.228 52.6936 233.98C51.8206 236.74 50.6525 239.197 49.8365 241.698L49.6826 242.167C49.6866 242.173 49.5755 242.522 49.5925 242.532C49.5655 242.653 49.5436 242.941 49.5496 243.153C49.5636 243.621 49.6685 244.126 49.8585 244.645C50.2275 245.683 50.8766 246.742 51.6376 247.734C53.1826 249.726 55.1646 251.513 57.2876 253.062C59.4026 254.584 61.7756 255.972 64.0586 256.638C64.6116 256.794 65.1656 256.874 65.5176 256.855C65.6916 256.847 65.7875 256.804 65.7595 256.81C65.7575 256.816 65.7475 256.82 65.7285 256.828L65.7225 256.838C65.7305 256.834 65.6245 256.92 65.6815 256.873L65.7065 256.852L65.8046 256.768C65.8616 256.716 65.9546 256.64 65.9806 256.611L66.0646 256.523C66.6546 255.919 66.9806 255.042 67.0806 253.891C67.2096 252.723 67.0295 251.468 67.2115 249.734C67.2745 249.292 67.3696 248.789 67.6356 248.224L68.1516 247.244L69.0985 245.444C71.5805 240.632 73.8195 235.71 75.5345 230.662C77.2255 225.612 78.3056 220.379 78.1696 215.15C77.9936 209.797 76.9255 205.101 73.7285 200.379C76.4255 201.532 78.5255 203.915 79.7225 206.6C80.0275 207.28 80.2736 207.959 80.4806 208.694C80.5876 209.077 80.6606 209.407 80.7346 209.737C80.8226 210.128 80.8675 210.448 80.9315 210.807C81.1585 212.211 81.3026 213.624 81.3656 215.041C81.6296 220.729 80.5666 226.358 78.8966 231.686C77.2366 237.039 74.9165 242.112 72.4005 247.051L71.4415 248.892L71.0026 249.733C70.9756 249.789 70.9225 249.962 70.8955 250.192C70.7765 251.172 70.9365 252.652 70.8015 254.201C70.6905 255.744 70.1606 257.631 68.7936 259.024L68.5106 259.301C68.4146 259.397 68.3716 259.425 68.2976 259.49L68.1996 259.575L68.0825 259.67L67.9675 259.753C67.8135 259.867 67.6546 259.963 67.4926 260.04C66.8446 260.362 66.2325 260.452 65.7075 260.478C64.6565 260.511 63.8145 260.321 63.0255 260.097C61.4595 259.638 60.1076 258.98 58.8026 258.26C57.5056 257.535 56.2826 256.731 55.1116 255.86C52.7776 254.111 50.6176 252.141 48.8086 249.758C47.9216 248.556 47.0956 247.253 46.5796 245.701C46.3216 244.927 46.1476 244.084 46.1436 243.187C46.1516 242.717 46.1706 242.321 46.2996 241.778C46.3736 241.45 46.3796 241.477 46.4756 241.153L46.6536 240.654C47.6026 237.978 48.8446 235.493 49.6696 233.056C50.5116 230.619 50.8576 228.104 50.8026 225.497C50.7816 224.196 50.6736 222.884 50.5076 221.572C50.3456 220.298 50.0976 218.865 50.0076 217.468C49.8026 214.664 49.9376 211.788 50.6696 209.026C51.4046 206.287 52.7985 203.615 54.9825 201.812Z" fill="black"/>
<path d="M136.502 202.016C130.5 202.972 125.484 209.931 127.234 223.24C129.435 239.97 140.37 253.639 147.77 254.513C155.168 255.384 162.742 252.871 163.445 249.242C163.953 246.619 159.429 243.635 158.373 242.721C156.58 241.172 156.213 228.603 153.619 215.308C151.729 205.617 145.36 200.601 136.502 202.016Z" fill="#FFBE31"/>
<path d="M163.446 249.24C162.743 252.871 155.175 255.385 147.774 254.513C143.565 254.017 138.217 249.387 133.979 242.406C137.723 243.908 140.784 243.598 143.075 241.366C144.454 240.03 147.087 238.723 150.323 239.759C153.645 240.82 155.87 238.154 156.446 234.586C157.028 238.959 157.542 242.016 158.374 242.721C159.426 243.633 163.95 246.614 163.446 249.24Z" fill="#E6E1B8"/>
<path d="M127.815 210.928C127.708 215.914 128.235 220.497 129.055 225.198C129.961 229.851 131.563 234.381 133.776 238.58C134.881 240.68 136.147 242.695 137.571 244.578C138.989 246.461 140.557 248.232 142.313 249.713C144.04 251.177 146.069 252.417 147.901 252.662C150.139 252.925 152.542 252.853 154.788 252.443C155.917 252.244 157.024 251.963 158.05 251.575C159.071 251.191 160.03 250.688 160.704 250.104C161.04 249.815 161.286 249.51 161.421 249.248C161.452 249.182 161.484 249.117 161.503 249.059L161.53 248.97L161.54 248.926L161.548 248.905C161.54 248.945 161.566 248.798 161.532 248.995L161.536 248.967L161.563 248.758C161.553 248.773 161.551 248.79 161.555 248.807C161.549 248.774 161.549 248.73 161.537 248.676C161.465 248.206 160.822 247.308 160.055 246.577C159.264 245.798 158.389 245.128 157.342 244.305C157.194 244.172 157.092 244.14 156.721 243.703C156.491 243.408 156.379 243.197 156.266 242.976C156.063 242.561 155.938 242.203 155.828 241.85C155.617 241.16 155.473 240.521 155.353 239.883C154.892 237.36 154.64 234.936 154.351 232.502C153.798 227.647 153.242 222.833 152.449 218.062C152.246 216.856 152.049 215.695 151.814 214.531C151.593 213.437 151.306 212.303 150.98 211.213C150.312 209.005 149.382 206.907 147.988 204.752C150.41 205.791 152.285 207.903 153.506 210.207C154.127 211.373 154.582 212.579 154.934 213.86C155.26 215.076 155.477 216.321 155.711 217.517C156.625 222.365 157.297 227.242 157.955 232.074C158.293 234.479 158.607 236.91 159.076 239.183C159.197 239.743 159.32 240.297 159.472 240.775C159.546 241.007 159.628 241.226 159.697 241.359C159.722 241.413 159.765 241.47 159.726 241.418C159.538 241.23 159.687 241.388 159.781 241.451C160.687 242.158 161.797 242.991 162.775 243.948C163.273 244.433 163.761 244.958 164.214 245.585C164.657 246.212 165.097 246.946 165.316 247.925C165.369 248.172 165.398 248.429 165.412 248.701C165.414 248.869 165.408 249.041 165.394 249.209L165.363 249.452L165.334 249.627L165.314 249.716L165.273 249.896C165.24 250.014 165.209 250.132 165.166 250.246C165.092 250.478 164.994 250.692 164.893 250.902C164.467 251.735 163.893 252.381 163.295 252.905C162.088 253.946 160.779 254.589 159.471 255.097C158.157 255.6 156.825 255.944 155.485 256.183C152.786 256.627 150.108 256.683 147.364 256.327C145.768 256.092 144.411 255.491 143.184 254.804C141.961 254.108 140.873 253.289 139.864 252.417C135.86 248.897 132.993 244.577 130.735 240.046C128.495 235.5 126.932 230.66 126.106 225.7C125.686 223.226 125.46 220.698 125.678 218.173C125.903 215.66 126.497 213.114 127.815 210.928Z" fill="black"/>
<path d="M155.689 248.043C156.771 248.179 157.841 248.702 158.765 249.393C159.697 250.09 160.513 250.958 161.189 251.966L158.394 253.026C158.3 252.129 158.048 251.204 157.619 250.335C157.189 249.47 156.587 248.638 155.689 248.043Z" fill="black"/>
<path d="M206.526 97.9308C211.139 98.6348 207.696 129.054 203.139 131.103C196.305 134.171 180.377 131.245 175.295 124.857C170.311 118.591 184.897 110.368 192.061 105.798C200.711 100.276 202.541 97.3248 206.526 97.9308Z" fill="#FFBE31"/>
<path d="M203.139 131.103C203.789 130.559 204.049 129.778 204.328 129.03C204.59 128.272 204.787 127.485 204.976 126.7C205.349 125.123 205.63 123.518 205.933 121.919C206.515 118.711 206.947 115.457 207.165 112.198C207.374 108.951 207.442 105.651 207.085 102.538C206.987 101.769 206.851 101.011 206.646 100.352C206.546 100.027 206.419 99.7267 206.298 99.5297C206.181 99.3157 206.066 99.3077 206.241 99.3897C206.276 99.3937 206.245 99.3987 206.337 99.4077L206.183 99.3897C206.085 99.3787 205.96 99.3627 205.906 99.3637C205.777 99.3537 205.621 99.3527 205.465 99.3547C205.158 99.3647 204.865 99.4097 204.567 99.4857C203.977 99.6387 203.364 99.9417 202.719 100.327C201.428 101.099 200.098 102.113 198.746 103.08C197.396 104.058 196.017 105.024 194.615 105.957C191.81 107.842 188.92 109.448 186.179 111.24C183.429 113.008 180.773 114.916 178.462 117.053C177.31 118.113 176.22 119.23 175.495 120.5C175.124 121.133 174.89 121.81 174.825 122.546C174.77 123.28 174.946 124.072 175.294 124.858C174.616 124.347 174.042 123.589 173.796 122.671C173.526 121.755 173.622 120.753 173.862 119.851C174.403 118.037 175.491 116.557 176.647 115.258C177.825 113.962 179.149 112.864 180.485 111.814C181.825 110.768 183.202 109.791 184.59 108.845C187.367 106.956 190.203 105.202 192.92 103.412C194.279 102.506 195.615 101.565 196.949 100.596C198.295 99.6327 199.599 98.6207 201.152 97.6827C201.929 97.2187 202.826 96.7897 203.847 96.5447C204.355 96.4247 204.888 96.3577 205.411 96.3547C205.669 96.3567 205.927 96.3647 206.21 96.3937C206.366 96.4057 206.444 96.4197 206.552 96.4337L206.706 96.4547C206.899 96.4857 206.972 96.5027 207.104 96.5447C208.088 96.8717 208.545 97.5517 208.838 98.0427C209.133 98.5637 209.303 99.0467 209.438 99.5147C209.706 100.449 209.833 101.333 209.928 102.21C210.268 105.7 210.035 109.063 209.703 112.419C209.338 115.767 208.838 119.093 208.025 122.372C207.623 124.011 207.087 125.628 206.379 127.187C206.024 127.966 205.613 128.729 205.109 129.44C204.61 130.122 203.997 130.88 203.139 131.103Z" fill="black"/>
<path d="M28.2065 189.695C26.3025 167.263 41.6855 148.239 69.0205 147.804C96.8725 147.361 103.262 159.626 137.098 164.518C155.537 167.184 163.831 177.191 162.781 189.384C160.742 213.028 123.972 228.229 95.1106 230.556C69.8376 232.596 31.2065 225.028 28.2065 189.695Z" fill="#FFBE31"/>
<path d="M137.096 164.52C155.537 167.19 163.826 177.19 162.778 189.39C160.747 213.03 123.977 228.23 95.1076 230.56C69.8366 232.599 31.2075 225.03 28.2075 189.7C26.9265 174.551 33.5166 160.961 46.3466 153.59C38.0286 167.16 42.6986 187.524 66.8736 191.363C102.542 197.03 132.298 179.7 117.577 160.24C123.038 161.89 129.346 163.399 137.096 164.52Z" fill="#FFBE31"/>
<path d="M162.666 184.442C162.887 186.042 162.926 187.692 162.777 189.392C160.746 213.032 123.976 228.232 95.1046 230.562C78.2646 231.922 55.4856 229.012 41.2866 216.461C53.0466 221.592 71.3956 226.651 100.127 222.932C138.797 217.932 141.127 195.932 149.127 185.932C155.856 177.522 160.936 180.013 162.666 184.442Z" fill="#E6E1B8"/>
<path d="M26.0075 189.894L26.0034 189.857C25.3214 182.328 26.5175 174.379 30.0425 167.472C31.7905 164.019 34.0754 160.831 36.7904 158.07C39.4994 155.299 42.6675 153.007 46.0485 151.18C52.8455 147.529 60.4955 145.887 68.0135 145.699C75.4545 145.511 83.0114 146.289 90.2124 148.374C97.4254 150.423 104.077 153.509 110.819 155.98C117.553 158.5 124.45 160.458 131.508 161.8C133.27 162.14 135.041 162.443 136.819 162.716L138.173 162.927L139.569 163.175C140.489 163.351 141.41 163.544 142.324 163.771C145.976 164.671 149.583 165.975 152.897 167.941C156.198 169.894 159.202 172.566 161.278 175.929C163.38 179.27 164.43 183.236 164.442 187.12C164.479 190.975 163.571 194.891 161.946 198.352C160.325 201.84 158.05 204.948 155.46 207.676C150.241 213.135 143.899 217.205 137.321 220.547C130.708 223.864 123.753 226.401 116.647 228.334C109.536 230.242 102.274 231.613 94.9075 232.23C87.5285 232.829 80.0985 232.61 72.7555 231.562C65.4235 230.497 58.1445 228.575 51.3455 225.34C44.5725 222.125 38.2675 217.444 33.7405 211.208C31.4765 208.109 29.6765 204.664 28.3985 201.05C27.1195 197.439 26.3535 193.671 26.0075 189.894ZM30.4085 189.524C30.9265 196.443 33.0885 203.201 37.0945 208.796C41.0675 214.425 46.7294 218.79 53.0244 221.882C59.3374 224.989 66.2545 226.929 73.2885 228.042C80.3315 229.146 87.5324 229.431 94.6554 228.937C101.792 228.416 108.907 227.194 115.841 225.333C122.775 223.473 129.562 221.023 135.966 217.838C142.349 214.655 148.409 210.69 153.239 205.58C155.639 203.029 157.697 200.176 159.131 197.053C160.57 193.922 161.333 190.577 161.294 187.153C161.265 183.77 160.356 180.446 158.569 177.625C156.792 174.792 154.184 172.509 151.223 170.797C148.254 169.076 144.937 167.906 141.527 167.107C140.673 166.906 139.811 166.733 138.944 166.578L137.653 166.363L136.309 166.168C134.489 165.908 132.672 165.617 130.86 165.289C123.612 163.993 116.445 162.042 109.527 159.54C102.593 157.076 95.9585 154.103 89.1334 152.256C82.3244 150.365 75.2374 149.715 68.1494 149.967C61.1594 150.219 54.2175 151.824 48.2045 155.143C42.2025 158.446 37.2104 163.461 34.1454 169.551C31.0604 175.633 29.8415 182.587 30.4085 189.524Z" fill="black"/>
<path d="M180.457 110.529C198.437 111.356 216.582 122.665 225.457 139.029C233.457 153.779 229.207 175.529 226.457 181.279C223.707 187.029 234.996 185.252 235.207 189.029C235.457 193.529 229.457 201.279 224.707 200.779C218.719 200.149 215.957 197.029 213.957 194.279C209.457 198.779 209.656 207.379 214.957 210.029C217.957 211.529 216.613 213.424 212.207 214.779C202.457 217.779 161.402 214.764 141.707 192.779C120.207 168.779 127.797 144.397 136.207 130.279C143.207 118.529 158.707 109.529 180.457 110.529Z" fill="#FFBE31"/>
<path d="M235.207 189.032C235.457 193.532 229.457 201.282 224.707 200.782C218.717 200.152 215.957 197.032 213.957 194.282C209.457 198.782 209.656 207.382 214.957 210.032C217.957 211.532 216.617 213.423 212.207 214.782C208.297 215.982 199.355 216.222 188.777 214.652C164.156 205.372 172.656 184.901 182.797 179.351C188.397 176.281 189.547 175.101 189.047 170.101C188.297 162.63 186.797 152.601 190.547 145.851C199.807 129.181 214.547 138.351 220.297 143.101C223.846 146.031 226.447 147.441 228.727 147.79C231.936 161.28 228.698 176.591 226.457 181.28C223.707 187.031 234.997 185.253 235.207 189.032Z" fill="#FFFBD9"/>
<path d="M206.936 119.322C192.967 116.121 164.387 119.502 160.207 154.781C157.727 175.712 163.896 190.052 173.096 199.701C174.317 205.361 178.867 210.912 188.787 214.651C172.986 212.322 153.516 205.951 141.707 192.782C120.207 168.782 127.797 144.401 136.207 130.281C143.207 118.531 158.707 109.531 180.457 110.531C189.657 110.951 198.907 114.131 206.936 119.322Z" fill="#FFBE31"/>
<path d="M201.307 215.742C197.627 215.672 193.356 215.332 188.787 214.651C178.867 210.912 174.316 205.361 173.096 199.701C181.397 208.412 192.176 213.302 201.307 215.742Z" fill="#E6E1B8"/>
<path d="M230.877 194.609C230.967 192.279 230.537 190.449 229.377 188.199C228.826 187.13 228.887 186.179 229.596 185.859C232.127 186.619 235.096 187.109 235.207 189.029C235.336 191.289 233.877 194.369 231.797 196.809C231.217 196.739 230.817 195.899 230.877 194.609Z" fill="black"/>
<path d="M236.528 188.623C236.444 188.063 236.174 187.514 235.839 187.118C235.505 186.718 235.134 186.44 234.782 186.22C234.071 185.79 233.401 185.548 232.755 185.329C231.472 184.907 230.247 184.625 229.185 184.229C228.662 184.036 228.177 183.807 227.872 183.569C227.554 183.312 227.501 183.18 227.477 182.993C227.457 182.778 227.53 182.411 227.766 181.927C228.041 181.362 228.321 180.68 228.539 180.07C229.434 177.566 230.027 175.052 230.512 172.511C230.987 169.97 231.321 167.409 231.518 164.833C231.903 159.687 231.774 154.465 230.825 149.31C230.346 146.736 229.661 144.179 228.69 141.706C228.448 141.088 228.19 140.474 227.911 139.867C227.78 139.566 227.618 139.25 227.472 138.943L227.025 138.071C226.41 136.916 225.752 135.783 225.05 134.677C219.435 125.828 211.308 118.681 201.943 113.987C197.248 111.658 192.232 109.932 187.039 108.984C184.463 108.504 181.766 108.236 179.176 108.164C176.571 108.076 173.955 108.127 171.344 108.334C166.125 108.764 160.924 109.852 155.963 111.703C151.004 113.544 146.303 116.209 142.238 119.695C140.209 121.436 138.338 123.381 136.699 125.517C135.883 126.583 135.111 127.705 134.422 128.855C133.744 130 133.135 131.132 132.539 132.299C131.353 134.624 130.301 137.016 129.398 139.468C128.527 141.932 127.814 144.453 127.281 147.013C126.73 149.569 126.437 152.178 126.32 154.783C126.193 157.39 126.322 160.005 126.674 162.576C127.36 167.722 129.004 172.695 131.494 177.12C129.998 172.27 129.139 167.319 129.058 162.391C129.019 159.928 129.179 157.477 129.484 155.053C129.797 152.627 130.326 150.24 130.947 147.885C131.582 145.531 132.388 143.225 133.324 140.975C134.232 138.713 135.283 136.506 136.455 134.364C137.037 133.298 137.664 132.228 138.293 131.214C138.912 130.205 139.584 129.249 140.313 128.318C141.766 126.462 143.43 124.762 145.249 123.236C148.886 120.178 153.13 117.835 157.626 116.148C162.13 114.459 166.911 113.483 171.747 113.047C174.167 112.824 176.608 112.748 179.05 112.799C181.509 112.841 183.853 113.049 186.249 113.459C191.003 114.267 195.649 115.797 200.026 117.902C208.772 122.105 216.522 128.593 221.903 136.713C227.526 144.654 228.868 154.811 228.317 164.614C228.003 169.516 227.262 174.504 225.758 179.082C225.559 179.662 225.369 180.154 225.104 180.73C224.815 181.38 224.489 182.268 224.608 183.318C224.667 183.841 224.862 184.388 225.157 184.824C225.448 185.269 225.807 185.599 226.159 185.86C226.87 186.378 227.561 186.65 228.22 186.891C229.534 187.351 230.783 187.614 231.904 187.968C232.457 188.14 232.978 188.339 233.351 188.562C233.742 188.802 233.835 188.961 233.847 189.056C233.884 189.365 233.849 189.927 233.74 190.434C233.631 190.954 233.463 191.486 233.25 192.011C232.822 193.062 232.236 194.083 231.555 195.032C230.198 196.903 228.395 198.634 226.428 199.335C225.944 199.5 225.461 199.585 225.012 199.569C224.838 199.564 224.446 199.514 224.176 199.479C223.899 199.443 223.61 199.393 223.321 199.34C222.173 199.123 221.061 198.777 220.03 198.274C217.948 197.283 216.288 195.616 214.844 193.635L214.063 192.564L213.19 193.505C209.942 196.655 208.704 201.519 209.989 205.934C210.333 207.034 210.85 208.115 211.6 209.057C212.315 210.001 213.356 210.821 214.354 211.337C214.618 211.478 214.676 211.526 214.838 211.637C214.904 211.688 214.961 211.738 215.01 211.783C214.906 211.888 214.735 212.041 214.524 212.168C214.202 212.373 213.817 212.568 213.407 212.74C212.587 213.081 211.659 213.385 210.802 213.558C209.9 213.746 208.943 213.87 207.98 213.958C206.048 214.136 204.072 214.19 202.095 214.165C198.136 214.112 194.163 213.755 190.216 213.239C186.267 212.711 182.347 211.961 178.478 211.014C174.607 210.08 170.787 208.932 167.062 207.537C159.611 204.697 152.595 201.102 145.707 196.737C148.299 199.92 151.535 202.545 154.986 204.775C158.445 207.019 162.197 208.758 166.013 210.267C173.659 213.28 181.663 215.281 189.783 216.406C193.844 216.978 197.941 217.301 202.066 217.332C204.13 217.342 206.201 217.284 208.293 217.064C209.338 216.949 210.389 216.797 211.461 216.554C212.578 216.3 213.574 215.952 214.613 215.503C215.129 215.274 215.646 215.008 216.172 214.66C216.688 214.297 217.254 213.897 217.727 213.052C217.954 212.634 218.12 212.024 218.022 211.423C217.932 210.826 217.651 210.353 217.374 210.025C217.093 209.691 216.802 209.461 216.52 209.261C216.264 209.085 215.889 208.874 215.704 208.786C214.163 208.073 213.12 206.765 212.544 205.108C211.567 202.197 212.112 198.649 213.927 196.053C215.273 197.759 216.943 199.351 218.982 200.369C220.209 201.003 221.521 201.44 222.847 201.718C223.177 201.784 223.509 201.847 223.857 201.898C224.212 201.946 224.447 201.99 224.902 202.02C225.716 202.062 226.498 201.921 227.211 201.692C228.639 201.222 229.826 200.43 230.879 199.548C231.93 198.658 232.848 197.653 233.656 196.567C234.463 195.478 235.164 194.308 235.709 193.027C235.98 192.386 236.209 191.716 236.371 191.002C236.514 190.28 236.633 189.571 236.528 188.623Z" fill="black"/>
<path d="M234.079 188.861C233.96 189.329 233.249 189.551 232.495 189.358C231.741 189.165 231.225 188.628 231.347 188.161C231.466 187.692 232.175 187.47 232.929 187.663C233.684 187.856 234.2 188.394 234.079 188.861Z" fill="white"/>
<path d="M199.51 150.44C203.024 141.27 217.455 141.116 221.403 153.985C216.807 148.505 208.815 146.247 199.51 150.44Z" fill="black"/>
<path d="M181.723 89.4397C186.834 94.8267 188.08 124.64 185.176 129.294C182.565 133.477 175.225 136.785 167.188 138.074C160.7 139.114 141.418 139.666 139.127 130.583C137.541 124.289 148.389 112.001 164.467 98.9887C174.944 90.5127 178.764 86.3217 181.723 89.4397Z" fill="#FFBE31"/>
<path d="M177.729 98.7557C171.456 104.078 161.723 114.59 156.999 126.22C153.968 133.679 161.423 132.339 168.196 131.517C174.969 130.695 179.987 126.909 181.053 124.436C182.118 121.962 180.967 96.0077 177.729 98.7557Z" fill="#FF9365"/>
<path d="M139.922 133.767C139.016 132.822 138.326 131.624 138.031 130.262C137.738 128.833 137.935 127.477 138.277 126.223C138.966 123.707 140.23 121.538 141.562 119.481C142.923 117.436 144.441 115.536 146.011 113.695C147.583 111.857 149.226 110.094 150.907 108.373C152.606 106.672 154.346 105.021 156.118 103.403C159.63 100.135 163.403 97.1636 167.001 94.1436C168.819 92.6226 170.634 91.0986 172.581 89.6016C173.563 88.8576 174.571 88.1166 175.763 87.4346C176.368 87.0976 177.021 86.7706 177.822 86.5246C178.607 86.2866 179.636 86.1286 180.711 86.3966C181.791 86.6556 182.658 87.2986 183.238 87.9086L183.384 88.0666L183.458 88.1506L183.614 88.3366C183.751 88.5116 183.923 88.7296 184.018 88.8796C184.237 89.2006 184.426 89.5206 184.594 89.8346C185.266 91.0966 185.684 92.3156 186.061 93.5326C186.79 95.9616 187.188 98.3796 187.536 100.788C188.141 105.612 188.294 110.428 188.124 115.237C188.022 117.64 187.827 120.043 187.431 122.429C187.242 123.622 186.99 124.81 186.66 125.981C186.291 127.128 185.951 128.348 185.176 129.295C185.576 128.17 185.633 126.994 185.674 125.823C185.713 124.651 185.688 123.478 185.662 122.307C185.586 119.963 185.445 117.621 185.267 115.286C184.908 110.618 184.349 105.957 183.521 101.411C183.134 99.1376 182.621 96.8896 181.982 94.7786C181.654 93.7346 181.275 92.7096 180.818 91.8826C180.384 91.0326 179.816 90.5656 179.679 90.5826C179.599 90.5596 179.406 90.5506 179.064 90.6546C178.73 90.7536 178.31 90.9466 177.88 91.1896C177.013 91.6806 176.099 92.3386 175.194 93.0276C173.38 94.4176 171.571 95.9496 169.729 97.4436C166.026 100.471 162.348 103.367 158.793 106.423C157.014 107.949 155.268 109.509 153.566 111.11C151.849 112.696 150.173 114.32 148.576 116.006C146.974 117.688 145.455 119.438 144.07 121.259C142.687 123.07 141.425 124.986 140.617 126.98C140.237 127.972 139.239 130.271 139.922 133.767Z" fill="black"/>
<path d="M136.973 262.307C135.692 265.785 126.754 267.174 119.592 265.181C112.432 263.187 105.496 242.659 106.221 225.81C106.948 208.96 114.678 205.521 120.742 205.085C128.506 204.54 133.947 210.27 135.404 218.876C137.308 230.072 131.506 253.291 133.021 255.089C133.916 256.151 137.903 259.8 136.973 262.307Z" fill="#FFBE31"/>
<path d="M133.022 255.089C133.917 256.152 137.903 259.8 136.973 262.307C135.692 265.785 126.754 267.174 119.592 265.181C112.432 263.187 105.496 242.659 106.221 225.81C106.948 208.96 114.678 205.521 120.742 205.085C121.826 205.002 122.865 205.056 123.853 205.221C117.871 207.013 113.904 217.64 114.136 227.797C114.388 238.657 126.062 250.754 133.552 245.056C133.387 246.874 132.717 254.729 133.022 255.089Z" fill="#FFBE31"/>
<path d="M133.021 255.089C133.916 256.152 137.902 259.8 136.972 262.307C135.691 265.785 126.753 267.174 119.591 265.181C115.82 264.13 112.124 257.954 109.566 249.886C112.916 252.3 116.029 252.72 118.834 251.038C120.484 250.036 123.221 249.424 126.266 251.096C129.235 252.72 131.92 250.833 133.33 247.67C133.083 250.653 132.796 254.824 133.021 255.089Z" fill="#FFFBD9"/>
<path d="M109.573 211.892C108.77 214.565 108.333 217.154 108.077 219.79C107.817 222.413 107.698 225.057 107.686 227.711C107.706 233.019 108.407 238.344 109.62 243.531C110.858 248.693 112.575 253.827 115.159 258.308C115.811 259.413 116.536 260.462 117.339 261.366C118.132 262.262 119.05 263.015 119.874 263.309C119.985 263.351 120.052 263.37 120.192 263.411L120.667 263.532C120.97 263.604 121.288 263.678 121.603 263.736C122.234 263.861 122.873 263.96 123.515 264.034C124.804 264.181 126.107 264.23 127.398 264.181C128.687 264.126 129.97 263.978 131.183 263.715C132.384 263.453 133.558 263.04 134.357 262.495C134.752 262.231 135.013 261.938 135.103 261.74L135.136 261.67C135.07 261.866 135.122 261.707 135.111 261.741L135.121 261.712L135.141 261.651L135.176 261.531C135.16 261.548 135.155 261.574 135.158 261.586C135.154 261.562 135.16 261.542 135.162 261.52C135.166 261.419 135.15 261.261 135.092 261.071C134.863 260.275 134.145 259.225 133.334 258.28C132.924 257.795 132.488 257.327 132.008 256.811L131.619 256.383L131.564 256.319L131.535 256.285L131.394 256.097L131.361 256.043L131.265 255.883C131.183 255.737 131.083 255.499 131.062 255.414L130.986 255.149C130.849 254.527 130.855 254.137 130.843 253.723C130.853 252.154 131.031 250.809 131.193 249.423C131.531 246.68 131.986 244.003 132.381 241.319C133.178 235.962 133.934 230.604 134.102 225.301C134.139 223.982 134.133 222.662 134.051 221.371C134.008 220.725 133.947 220.086 133.86 219.459L133.797 218.999L133.719 218.496L133.567 217.567C133.128 215.032 132.534 212.588 131.624 209.859C134.145 211.443 135.741 214.137 136.569 216.886C136.673 217.227 136.772 217.594 136.856 217.95L136.961 218.45L137.065 218.996C137.18 219.715 137.264 220.428 137.325 221.138C137.444 222.559 137.477 223.962 137.468 225.357C137.402 230.934 136.736 236.385 136.044 241.8L134.999 249.86C134.847 251.174 134.694 252.535 134.696 253.686C134.696 253.952 134.727 254.243 134.743 254.286C134.741 254.28 134.739 254.272 134.737 254.266C134.737 254.266 134.676 254.102 134.628 254.039L134.583 253.975C134.569 253.959 134.589 253.987 134.591 253.989L134.626 254.045C134.579 253.98 134.761 254.223 134.522 253.908L134.538 253.923L134.565 253.957L134.874 254.291C135.335 254.783 135.841 255.318 136.321 255.882C137.268 257.029 138.255 258.219 138.842 260.043C138.977 260.504 139.072 261.025 139.061 261.606L139.03 262.047C139.005 262.227 138.966 262.42 138.921 262.603L138.812 262.953C138.757 263.09 138.707 263.225 138.642 263.352C138.134 264.394 137.361 265.084 136.622 265.603C135.112 266.615 133.581 267.086 132.067 267.443C130.553 267.788 129.04 267.95 127.536 267.988C126.03 268.032 124.53 267.958 123.04 267.77C122.296 267.676 121.552 267.553 120.813 267.399C120.442 267.323 120.081 267.237 119.706 267.141L119.167 266.997C118.972 266.942 118.704 266.859 118.491 266.775C116.694 266.063 115.495 264.901 114.471 263.754C113.457 262.587 112.639 261.354 111.914 260.096C109.06 255.048 107.463 249.661 106.281 244.234C105.146 238.793 104.549 233.251 104.658 227.683C104.705 224.902 104.984 222.102 105.717 219.373C106.459 216.67 107.623 213.968 109.573 211.892Z" fill="black"/>
<path d="M129.385 259.54C130.414 259.888 131.35 260.615 132.108 261.476C132.872 262.343 133.487 263.359 133.934 264.482L130.975 264.957C131.073 264.059 131.022 263.104 130.787 262.168C130.549 261.235 130.137 260.301 129.385 259.54Z" fill="black"/>
<ellipse cx="201.366" cy="185.276" rx="10.6338" ry="6.0799" transform="rotate(10.8066 201.366 185.276)" fill="#FF9365"/>
<path d="M50.0156 190.243C42.4666 190.627 33.2127 199.694 33.1937 211.374C33.1627 227.462 27.0297 235.297 22.6647 241.555C18.3017 247.816 31.7837 265.325 36.0337 263.538C40.0107 261.867 39.4297 256.856 41.0667 255.207C56.8067 239.362 64.8497 222.497 65.1757 207.157C65.4297 195.244 56.8436 189.896 50.0156 190.243Z" fill="#FFBE31"/>
<path d="M50.0152 190.249C56.8392 189.897 65.4233 195.244 65.1753 207.163C64.8493 222.503 56.8103 239.365 41.0683 255.208C39.4293 256.86 40.0093 261.873 36.0313 263.541C31.7853 265.327 18.3023 247.813 22.6643 241.56C25.2423 237.862 28.4393 233.608 30.6253 227.435C33.6643 238.17 49.2033 234.026 56.1563 216.702C61.9333 202.328 56.4243 191.912 49.6953 190.275C49.8023 190.266 49.9082 190.257 50.0152 190.249Z" fill="#FFBE31"/>
<path d="M32.6643 240.351C34.6763 240.888 37.0123 242.943 38.4243 245.983C40.0393 249.477 43.6133 250.103 47.1433 248.592C45.2683 250.817 43.2433 253.022 41.0693 255.208C39.4303 256.86 40.0103 261.873 36.0323 263.541C31.7863 265.327 18.3033 247.813 22.6653 241.56C24.0173 239.628 25.5402 237.535 26.9892 235.082C28.0992 237.854 29.9843 239.635 32.6643 240.351Z" fill="#FFFBD9"/>
<path d="M34.1775 256.082C34.4935 257.097 34.4394 258.258 34.1694 259.359C33.8984 260.469 33.4155 261.549 32.7455 262.562L30.6064 260.517C31.4114 260.066 32.1744 259.463 32.8174 258.731C33.4534 257.994 33.9865 257.121 34.1775 256.082Z" fill="black"/>
<path d="M41.8596 193.633C37.3456 198.583 34.8005 204.657 34.7225 210.809C34.8375 217.388 33.8965 224.339 31.1915 230.641C29.8655 233.801 28.1096 236.78 26.2246 239.565L24.8105 241.629L24.1545 242.588C24.1155 242.66 24.0215 242.796 24.0195 242.816L23.9665 242.926C23.9175 243.044 23.8705 243.163 23.8315 243.292C23.5015 244.323 23.6495 245.772 24.0385 247.166C24.8395 250.004 26.4256 252.81 28.2556 255.349C29.1816 256.621 30.1935 257.836 31.2785 258.938C32.3485 260.018 33.5755 261.061 34.6735 261.577C34.9335 261.7 35.1795 261.769 35.2965 261.781C35.3595 261.792 35.3725 261.783 35.3475 261.785C35.3615 261.775 35.1205 261.871 35.4315 261.733C35.8865 261.517 36.2925 261.187 36.6265 260.748C37.3295 259.858 37.7045 258.465 38.1925 256.792C38.3255 256.366 38.4675 255.918 38.6945 255.416C38.8095 255.163 38.9365 254.905 39.1225 254.624C39.2025 254.488 39.3195 254.339 39.4295 254.202C39.5565 254.055 39.6995 253.902 39.7475 253.851C40.3235 253.26 40.9276 252.665 41.4796 252.078C42.5966 250.909 43.7095 249.7 44.7825 248.473C49.0875 243.567 52.8975 238.266 56.0445 232.628C59.1735 226.989 61.5625 220.95 62.7785 214.685C63.0795 213.122 63.3116 211.544 63.4646 209.96C63.5976 208.381 63.6875 206.771 63.6576 205.261C63.6045 202.178 63.1225 199.176 61.9285 195.977C64.7425 198.093 66.2565 201.637 66.6065 205.082C66.7925 206.848 66.6785 208.518 66.5755 210.209C66.4485 211.895 66.2315 213.572 65.9425 215.236C64.7765 221.896 62.3726 228.293 59.2086 234.247C56.0586 240.221 52.0815 245.733 47.6735 250.843C46.5685 252.124 45.4395 253.368 44.2675 254.612L42.5275 256.416C42.4275 256.515 42.4375 256.52 42.4235 256.525C42.4095 256.554 42.3925 256.566 42.3685 256.608C42.3235 256.672 42.2706 256.785 42.2146 256.905C42.1036 257.154 41.9915 257.492 41.8825 257.853C41.4375 259.305 41.0716 261.21 39.7456 262.992C39.0876 263.88 38.1655 264.638 37.0975 265.132C37.0295 265.167 36.4066 265.456 35.9956 265.491C35.5526 265.562 35.1405 265.552 34.7845 265.503C34.0675 265.402 33.5095 265.187 33.0095 264.955C31.0755 263.996 29.7865 262.764 28.5175 261.5C27.2775 260.225 26.1715 258.873 25.1585 257.46C23.1605 254.62 21.4265 251.592 20.4515 248.082C20.0105 246.33 19.6745 244.389 20.3225 242.245C20.4045 241.981 20.5135 241.722 20.6315 241.459L20.8635 241.021C20.9535 240.857 20.9845 240.827 21.0495 240.723L21.2685 240.402L21.4505 240.148L21.8136 239.641L23.2375 237.634C25.1085 234.97 26.7705 232.254 28.0505 229.358C29.3375 226.468 30.2535 223.424 30.8295 220.301C31.1185 218.741 31.3255 217.16 31.4625 215.571C31.5285 214.776 31.5776 213.978 31.6106 213.18L31.6845 210.724C31.9555 203.752 35.8696 196.96 41.8596 193.633Z" fill="black"/>
<path d="M195.936 171.263C200.178 177.797 210.073 181.025 218.243 177.006C212.707 185.78 197.457 184.03 195.936 171.263Z" fill="black"/>
</svg>
