<svg width="281" height="280" viewBox="0 0 281 280" fill="none" xmlns="http://www.w3.org/2000/svg">
<path d="M39.6968 163.828C40.1097 163.991 40.6724 164.332 41.4564 164.837C42.2497 165.347 43.2385 166.001 44.2108 166.436C45.151 166.857 46.4382 167.243 47.7117 166.754C53.0401 164.709 59.0186 167.37 61.0644 172.698C63.1099 178.026 60.4484 184.004 55.1202 186.05C49.7918 188.096 43.8138 185.435 41.7679 180.107C41.1921 178.607 40.3556 175.015 39.8573 171.382C39.6104 169.582 39.4548 167.828 39.4501 166.371C39.4477 165.642 39.4836 165.015 39.556 164.508C39.5974 164.218 39.6476 163.995 39.6968 163.828Z" fill="#FFBE31" stroke="black" stroke-width="3"/>
<path d="M81.8174 210.532C74.3904 209.133 67.4595 213.762 62.6255 224.769C57.8185 235.71 53.4434 236.665 47.4094 241.58C41.3774 246.494 49.3954 266.655 53.9944 266.117C58.2994 265.613 59.2325 260.514 61.2815 259.351C77.2395 250.296 86.6864 241.851 91.1974 231.279C95.2384 221.81 90.7264 212.212 81.8174 210.532Z" fill="#FFBE31"/>
<path d="M60.8215 249.49C61.2075 253.625 64.7046 255.372 68.8256 254.798C66.4896 256.309 63.9856 257.82 61.2796 259.352C59.2356 260.518 58.3016 265.616 53.9916 266.12C49.3916 266.659 41.3746 246.499 47.4126 241.583C49.7616 239.659 51.8665 238.343 53.8375 236.806C54.2545 239.072 55.3926 240.865 57.2556 242.134C58.9806 243.318 60.5055 246.064 60.8215 249.49Z" fill="#E6E1B8"/>
<path d="M54.3004 258.197C54.3944 259.285 54.0894 260.443 53.5884 261.499C53.0834 262.559 52.3784 263.545 51.5074 264.424L49.8574 261.92C50.7394 261.635 51.6175 261.189 52.4025 260.581C53.1835 259.972 53.8924 259.204 54.3004 258.197Z" fill="black"/>
<path d="M75.5017 210.849C72.9527 212.116 70.9097 213.949 69.2267 216.048C67.5387 218.152 66.1837 220.496 65.0137 222.941C64.4067 224.166 63.9317 225.39 63.3147 226.738C62.7127 228.049 62.0527 229.343 61.3047 230.605C59.8317 233.131 57.8887 235.519 55.6077 237.418C53.3327 239.331 50.9767 240.823 48.8957 242.54L48.5047 242.863C48.5037 242.868 48.2148 243.11 48.2248 243.129C48.1328 243.22 47.9557 243.455 47.8417 243.644C47.5937 244.054 47.3967 244.548 47.2677 245.101C46.9977 246.198 46.9517 247.466 47.0377 248.737C47.2217 251.298 47.8877 253.92 48.8057 256.41C49.7337 258.873 50.9488 261.363 52.4958 263.177C52.8708 263.612 53.2918 263.984 53.5998 264.156C53.7478 264.244 53.8517 264.26 53.8267 264.25C53.8227 264.253 53.8107 264.252 53.7917 264.25L53.7797 264.253C53.7897 264.254 53.6517 264.272 53.7267 264.262L53.7577 264.256L53.8887 264.235C53.9637 264.22 54.0857 264.208 54.1237 264.195L54.2417 264.166C55.0757 263.965 55.8397 263.384 56.5677 262.441C57.3257 261.502 57.8777 260.318 58.9997 258.918C59.2987 258.569 59.6598 258.188 60.1988 257.844L61.1778 257.276L62.9798 256.235C67.7528 253.422 72.3817 250.381 76.6437 246.947C80.8857 243.499 84.7157 239.561 87.5227 234.966C90.3647 230.244 92.0908 225.604 92.0428 219.786C93.6678 222.249 94.0997 225.447 93.6037 228.418C93.4807 229.173 93.3087 229.892 93.0727 230.639C92.9497 231.029 92.8257 231.355 92.7027 231.679C92.5567 232.066 92.4167 232.366 92.2697 232.71C91.6757 234.046 91.0057 235.349 90.2677 236.606C87.3107 241.667 83.2738 245.958 78.8968 249.659C74.5118 253.383 69.7267 256.511 64.8557 259.416L63.0218 260.487L62.1817 260.975C62.1277 261.008 61.9877 261.128 61.8347 261.314C61.1877 262.096 60.4947 263.461 59.5157 264.729C58.5597 266.003 57.0617 267.347 55.1347 267.811L54.7417 267.898C54.6087 267.924 54.5557 267.928 54.4597 267.946L54.3288 267.962L54.1787 267.983L54.0347 267.991C53.8397 268.006 53.6527 268.003 53.4737 267.981C52.7497 267.907 52.1867 267.655 51.7317 267.391C50.8307 266.85 50.2307 266.228 49.6907 265.608C48.6317 264.36 47.8647 263.055 47.1707 261.727C46.4867 260.396 45.9107 259.036 45.4107 257.647C44.4277 254.871 43.7138 251.994 43.5268 248.952C43.4528 247.431 43.4868 245.856 43.9228 244.233C44.1358 243.426 44.4627 242.602 44.9597 241.825C45.2297 241.425 45.4657 241.093 45.8777 240.69C46.1227 240.448 46.1117 240.476 46.3747 240.249L46.8028 239.912C49.0948 238.114 51.5267 236.64 53.5807 234.98C55.6487 233.331 57.3448 231.344 58.7558 229.059C59.4658 227.924 60.1067 226.731 60.7017 225.506C61.2757 224.316 61.8697 222.944 62.5727 221.688C63.9687 219.151 65.6878 216.739 67.8448 214.748C69.9958 212.776 72.6617 211.225 75.5017 210.849Z" fill="black"/>
<path d="M146.305 204.027C143.114 209.207 145.236 217.688 156.731 225.345C171.18 234.97 188.974 235.934 194.503 230.934C200.03 225.935 203.039 218.521 200.679 215.54C198.972 213.387 193.687 214.788 192.284 214.972C189.904 215.282 179.892 207.077 167.856 200.068C159.082 194.956 151.009 196.382 146.305 204.027Z" fill="#FFBE31"/>
<path d="M200.678 215.54C203.039 218.521 200.033 225.933 194.507 230.933C191.361 233.777 184.257 234.691 176.051 233.184C179.673 231.369 181.44 228.849 181.204 225.611C181.07 223.67 181.78 220.801 184.705 219.053C187.707 217.26 187.094 213.781 184.697 210.941C188.478 213.451 191.19 215.125 192.284 214.972C193.684 214.792 198.967 213.386 200.678 215.54Z" fill="#E6E1B8"/>
<path d="M147.539 216.601C151.344 220.047 155.253 222.74 159.444 225.292C163.655 227.747 168.225 229.593 172.943 230.754C175.298 231.336 177.698 231.741 180.094 231.938C182.485 232.135 184.89 232.148 187.194 231.819C189.463 231.502 191.757 230.806 193.148 229.589C194.821 228.076 196.338 226.213 197.492 224.24C198.077 223.254 198.585 222.227 198.956 221.19C199.326 220.162 199.563 219.096 199.552 218.195C199.548 217.745 199.472 217.353 199.356 217.073C199.327 217.006 199.296 216.939 199.262 216.885L199.212 216.803L199.184 216.766L199.17 216.748C199.197 216.78 199.099 216.661 199.232 216.818L199.211 216.797L199.066 216.635C199.073 216.653 199.084 216.666 199.1 216.674C199.072 216.656 199.035 216.626 198.986 216.6C198.574 216.338 197.456 216.216 196.383 216.302C195.259 216.374 194.164 216.584 192.837 216.819C192.637 216.84 192.546 216.897 191.962 216.883C191.582 216.858 191.345 216.799 191.1 216.737C190.643 216.609 190.282 216.46 189.938 216.307C189.264 216 188.671 215.678 188.098 215.338C185.834 213.983 183.784 212.539 181.702 211.115C177.567 208.256 173.46 205.429 169.23 202.808C168.158 202.148 167.127 201.514 166.068 200.906C165.074 200.334 164.004 199.787 162.94 199.297C160.787 198.313 158.546 197.598 155.957 197.197C158.353 196.068 161.225 196.078 163.814 196.711C165.128 197.028 166.364 197.498 167.59 198.098C168.749 198.67 169.861 199.349 170.943 199.978C175.313 202.559 179.543 205.34 183.732 208.104C185.823 209.473 187.921 210.875 189.993 212.053C190.508 212.342 191.02 212.62 191.49 212.828C191.72 212.93 191.944 213.014 192.091 213.053C192.152 213.071 192.224 213.076 192.156 213.071C191.887 213.086 192.107 213.079 192.218 213.052C193.363 212.843 194.738 212.569 196.123 212.474C196.827 212.426 197.555 212.411 198.34 212.494C199.117 212.579 199.976 212.745 200.879 213.24C201.106 213.366 201.325 213.517 201.546 213.69C201.679 213.803 201.807 213.922 201.929 214.045L202.1 214.234L202.215 214.373L202.272 214.448L202.384 214.601C202.453 214.705 202.526 214.81 202.586 214.916C202.717 215.128 202.819 215.347 202.917 215.567C203.284 216.449 203.41 217.319 203.426 218.123C203.446 219.738 203.087 221.159 202.625 222.491C202.154 223.823 201.55 225.061 200.854 226.235C199.432 228.572 197.72 230.632 195.643 232.464C194.416 233.513 193.058 234.132 191.72 234.593C190.376 235.048 189.027 235.318 187.69 235.49C182.327 236.141 177.09 235.39 172.087 234.039C167.084 232.663 162.297 230.579 157.899 227.856C155.702 226.504 153.588 224.97 151.766 223.1C149.965 221.237 148.374 219.072 147.539 216.601Z" fill="black"/>
<path d="M194.664 220.589C195.477 219.864 196.587 219.409 197.729 219.177C198.881 218.945 200.092 218.913 201.318 219.083L200.31 221.907C199.55 221.374 198.665 220.94 197.709 220.677C196.756 220.419 195.714 220.312 194.664 220.589Z" fill="black"/>
<path d="M218.368 95.5217C223.031 95.5197 224.229 126.111 220.035 128.824C213.741 132.892 197.556 132.406 191.567 126.86C185.693 121.42 198.865 111.085 205.258 105.484C212.974 98.7188 214.338 95.5237 218.368 95.5217Z" fill="#FFBE31"/>
<path d="M220.035 128.824C220.595 128.189 220.733 127.377 220.896 126.597C221.041 125.805 221.117 124.999 221.184 124.194C221.314 122.578 221.351 120.95 221.408 119.323C221.499 116.063 221.434 112.781 221.156 109.528C220.871 106.285 220.44 103.014 219.616 99.9907C219.405 99.2437 219.154 98.5148 218.851 97.8958C218.705 97.5888 218.535 97.3138 218.386 97.1348C218.235 96.9428 218.12 96.9517 218.309 97.0057C218.343 97.0037 218.313 97.0127 218.405 97.0077L218.249 97.0137C218.15 97.0197 218.024 97.0227 217.971 97.0317C217.843 97.0417 217.689 97.0637 217.533 97.0897C217.231 97.1457 216.949 97.2358 216.668 97.3538C216.105 97.5968 215.544 97.9877 214.966 98.4657C213.808 99.4257 212.646 100.627 211.456 101.787C210.269 102.958 209.052 104.122 207.81 105.256C205.319 107.542 202.706 109.568 200.268 111.753C197.817 113.916 195.48 116.204 193.518 118.667C192.539 119.888 191.629 121.157 191.106 122.521C190.835 123.204 190.706 123.907 190.754 124.646C190.81 125.378 191.103 126.135 191.567 126.86C190.816 126.456 190.137 125.795 189.754 124.924C189.349 124.059 189.29 123.054 189.394 122.125C189.653 120.25 190.506 118.624 191.453 117.165C192.422 115.706 193.562 114.42 194.727 113.181C195.892 111.943 197.105 110.77 198.332 109.625C200.796 107.336 203.333 105.175 205.748 102.994C206.953 101.893 208.134 100.762 209.306 99.5997C210.491 98.4457 211.626 97.2487 213.019 96.0847C213.716 95.5087 214.54 94.9497 215.513 94.5527C215.994 94.3587 216.511 94.2117 217.029 94.1287C217.285 94.0917 217.541 94.0607 217.827 94.0457C217.98 94.0347 218.062 94.0368 218.17 94.0358L218.326 94.0317C218.52 94.0327 218.595 94.0397 218.731 94.0597C219.757 94.2357 220.309 94.8387 220.673 95.2787C221.042 95.7487 221.283 96.2017 221.488 96.6427C221.891 97.5257 222.153 98.3817 222.38 99.2347C223.243 102.634 223.522 105.992 223.701 109.359C223.845 112.724 223.854 116.088 223.548 119.451C223.398 121.133 223.113 122.812 222.649 124.461C222.415 125.285 222.124 126.103 221.732 126.882C221.34 127.632 220.848 128.475 220.035 128.824Z" fill="black"/>
<path d="M52.3001 216.6C43.6651 195.81 52.5361 173.008 78.4461 164.284C104.844 155.393 114.662 165.135 148.382 159.507C166.76 156.441 177.703 163.452 180.411 175.388C185.656 198.532 155.248 224.194 128.462 235.186C105.003 244.812 65.9021 249.349 52.3001 216.6Z" fill="#FFBE31"/>
<path d="M148.38 159.507C166.759 156.444 177.696 163.45 180.406 175.392C185.659 198.53 155.251 224.191 128.456 235.188C105.004 244.813 65.901 249.349 52.3 216.603C46.475 202.561 48.62 187.611 58.603 176.687C54.803 192.145 65.4451 210.124 89.6421 206.431C125.344 200.985 148.422 175.427 128.483 161.365C134.186 161.277 140.654 160.797 148.38 159.507Z" fill="#FFBE31"/>
<path d="M178.797 170.711C179.493 172.169 180.031 173.73 180.407 175.394C185.661 198.533 155.252 224.193 128.456 235.191C112.829 241.608 90.2429 245.76 72.8989 238.122C85.6609 239.435 104.68 238.676 130.92 226.396C166.239 209.875 161.77 188.208 166.351 176.249C170.203 166.191 175.801 167.019 178.797 170.711Z" fill="#E6E1B8"/>
<path d="M50.265 217.457L50.25 217.423C47.312 210.457 46.035 202.521 47.292 194.869C47.906 191.049 49.1141 187.316 50.8611 183.86C52.5981 180.395 54.922 177.25 57.586 174.481C62.951 168.936 69.739 165.047 76.844 162.582C83.877 160.141 91.313 158.583 98.806 158.38C106.3 158.139 113.577 159.056 120.751 159.361C127.933 159.713 135.098 159.481 142.23 158.614C144.013 158.402 145.793 158.152 147.567 157.873L148.921 157.662L150.327 157.473C151.257 157.362 152.192 157.265 153.133 157.203C156.884 156.951 160.719 157.096 164.474 157.961C168.212 158.817 171.887 160.45 174.886 163.024C177.905 165.567 180.112 169.026 181.304 172.723C182.511 176.384 182.836 180.391 182.341 184.182C181.858 187.998 180.635 191.651 178.996 195.036C175.684 201.824 170.88 207.63 165.63 212.814C160.34 217.984 154.483 222.516 148.303 226.517C142.109 230.497 135.607 234.011 128.778 236.839C121.929 239.653 114.784 241.704 107.47 242.939C100.162 244.154 92.641 244.536 85.181 243.521C77.751 242.518 70.324 239.977 64.114 235.411C61.015 233.149 58.253 230.415 55.936 227.359C53.617 224.307 51.741 220.95 50.265 217.457ZM54.3451 215.766C56.9411 222.201 61.0561 227.981 66.5741 232.093C72.0701 236.248 78.791 238.685 85.728 239.716C92.686 240.757 99.866 240.501 106.905 239.424C113.951 238.332 120.897 236.415 127.533 233.778C134.175 231.112 140.581 227.785 146.62 223.903C152.659 220.023 158.381 215.626 163.513 210.644C168.628 205.671 173.195 200.049 176.242 193.713C177.754 190.554 178.845 187.21 179.262 183.8C179.682 180.378 179.392 176.96 178.313 173.709C177.257 170.495 175.38 167.605 172.821 165.46C170.266 163.302 167.088 161.92 163.746 161.189C160.393 160.452 156.878 160.345 153.387 160.622C152.513 160.689 151.638 160.787 150.766 160.902L149.47 161.09L148.132 161.312C146.319 161.619 144.498 161.894 142.672 162.132C135.373 163.102 127.951 163.421 120.6 163.142C113.246 162.902 106.023 162.088 98.9591 162.403C91.8971 162.673 84.946 164.208 78.271 166.603C71.688 168.968 65.564 172.608 60.844 177.598C56.13 182.57 52.9 188.865 51.832 195.598C50.743 202.335 51.6961 209.33 54.3451 215.766Z" fill="black"/>
<path d="M197.522 110.857C215.501 111.697 233.637 123.022 242.498 139.394C250.484 154.152 246.216 175.896 243.462 181.645C240.706 187.392 251.998 185.624 252.205 189.403C252.45 193.903 246.443 201.647 241.694 201.144C235.705 200.507 234.433 189.368 223.942 199.714C219.597 203.999 224.894 209.44 231.936 210.384C235.26 210.83 233.589 213.781 229.182 215.132C219.429 218.123 178.376 215.072 158.702 193.071C137.221 169.052 144.834 144.675 153.256 130.566C160.263 118.823 175.773 109.836 197.522 110.857Z" fill="#FFBE31"/>
<path d="M223.945 119.689C209.976 116.485 181.395 119.863 177.212 155.142C174.729 176.071 180.897 190.412 190.095 200.064C191.314 205.723 195.865 211.275 205.783 215.016C189.983 212.683 170.514 206.311 158.706 193.139C137.21 169.137 144.802 144.758 153.215 130.638C160.216 118.89 175.717 109.892 197.467 110.895C206.664 111.315 215.915 114.495 223.945 119.689Z" fill="#FFBE31"/>
<path d="M218.304 216.107C214.624 216.038 210.353 215.697 205.783 215.016C195.864 211.275 191.313 205.723 190.095 200.064C198.396 208.774 209.173 213.665 218.304 216.107Z" fill="#E6E1B8"/>
<path d="M252.204 189.403C252.016 186.003 242.875 187.091 243.038 183.163C243.035 183.158 243.032 183.153 243.029 183.148C243.031 183.148 243.033 183.147 243.033 183.147C243.054 182.711 243.184 182.219 243.458 181.649C245.698 176.961 248.938 161.651 245.73 148.16C243.45 147.81 240.85 146.399 237.302 143.47C231.551 138.719 216.813 129.548 207.55 146.216C203.8 152.967 205.299 162.995 206.048 170.467C206.547 175.467 205.397 176.646 199.797 179.715C189.656 185.265 181.153 205.734 205.775 215.016C210.821 215.766 215.47 216.094 219.4 216.111C219.39 216.1 219.379 216.09 219.371 216.078C219.383 216.085 219.396 216.096 219.41 216.103C223.721 216.118 227.141 215.76 229.181 215.133C233.592 213.776 235.251 210.886 231.934 210.385C225.162 209.363 219.438 204.331 223.941 199.715C234.111 189.29 235.705 200.507 241.693 201.145C246.443 201.647 252.449 193.903 252.204 189.403Z" fill="#FFFBD9"/>
<path d="M247.869 194.978C247.962 192.648 247.531 190.818 246.375 188.567C245.825 187.495 245.886 186.545 246.596 186.227C249.125 186.989 252.096 187.481 252.204 189.403C252.331 191.663 250.869 194.742 248.786 197.178C248.207 197.107 247.809 196.266 247.869 194.978Z" fill="black"/>
<path d="M253.524 188.997C253.442 188.435 253.172 187.887 252.836 187.489C252.503 187.089 252.134 186.81 251.78 186.59C251.071 186.159 250.4 185.918 249.757 185.697C248.471 185.276 247.249 184.993 246.185 184.595C245.663 184.403 245.179 184.171 244.873 183.933C244.556 183.678 244.502 183.545 244.479 183.358C244.458 183.142 244.532 182.776 244.768 182.292C245.043 181.728 245.324 181.046 245.544 180.435C246.44 177.931 247.033 175.419 247.523 172.878C247.999 170.338 248.335 167.776 248.534 165.202C248.925 160.055 248.8 154.835 247.855 149.677C247.378 147.103 246.694 144.545 245.725 142.072C245.485 141.454 245.226 140.841 244.949 140.231C244.818 139.931 244.658 139.614 244.511 139.308L244.066 138.436C243.452 137.28 242.794 136.146 242.093 135.04C236.486 126.187 228.364 119.033 219.003 114.331C214.311 111.997 209.295 110.268 204.104 109.313C201.528 108.831 198.831 108.562 196.24 108.487C193.637 108.396 191.02 108.445 188.409 108.651C183.189 109.074 177.987 110.159 173.025 112.005C168.065 113.844 163.361 116.505 159.294 119.987C157.263 121.726 155.391 123.67 153.75 125.804C152.933 126.869 152.161 127.99 151.47 129.139C150.791 130.286 150.181 131.414 149.584 132.583C148.397 134.906 147.341 137.298 146.438 139.749C145.564 142.212 144.851 144.733 144.316 147.292C143.762 149.849 143.466 152.456 143.347 155.063C143.217 157.668 143.345 160.283 143.693 162.856C144.376 168.002 146.015 172.978 148.503 177.404C147.011 172.551 146.154 167.601 146.078 162.674C146.042 160.208 146.203 157.76 146.51 155.334C146.825 152.908 147.358 150.524 147.98 148.169C148.616 145.815 149.426 143.508 150.364 141.261C151.275 139 152.326 136.793 153.501 134.652C154.081 133.587 154.712 132.519 155.343 131.505C155.961 130.496 156.634 129.54 157.362 128.611C158.817 126.755 160.485 125.056 162.303 123.533C165.944 120.478 170.189 118.138 174.686 116.456C179.191 114.77 183.973 113.798 188.811 113.365C191.231 113.146 193.671 113.071 196.114 113.125C198.572 113.17 200.917 113.38 203.312 113.792C208.064 114.605 212.71 116.138 217.086 118.247C225.827 122.457 233.572 128.951 238.945 137.073C244.561 145.021 245.893 155.179 245.336 164.983C245.017 169.886 244.273 174.872 242.765 179.448C242.565 180.027 242.373 180.521 242.11 181.096C241.82 181.745 241.493 182.634 241.61 183.681C241.669 184.207 241.863 184.754 242.159 185.189C242.45 185.634 242.809 185.965 243.162 186.227C243.871 186.746 244.562 187.018 245.22 187.261C246.535 187.719 247.783 187.985 248.902 188.339C249.457 188.513 249.975 188.713 250.35 188.935C250.74 189.174 250.836 189.336 250.846 189.429C250.881 189.738 250.847 190.299 250.736 190.808C250.627 191.327 250.457 191.857 250.244 192.385C249.817 193.434 249.229 194.453 248.547 195.402C247.189 197.275 245.385 199.002 243.417 199.702C241.99 200.19 241.319 199.982 240.049 199.339C237.766 198.186 235.043 192.856 230.231 194.102C225.04 195.449 220.671 199.879 220.875 203.163C221.071 206.332 222.623 208.032 225.858 209.75C228.64 211.226 232.298 211.566 231.353 212.532C230.499 213.403 228.635 213.74 227.777 213.913C226.875 214.099 225.92 214.224 224.957 214.31C223.024 214.486 221.049 214.54 219.071 214.513C215.111 214.457 211.14 214.096 207.193 213.576C203.245 213.046 199.325 212.291 195.457 211.341C191.585 210.403 187.767 209.253 184.045 207.855C176.597 205.008 169.582 201.41 162.698 197.039C165.286 200.224 168.52 202.851 171.97 205.084C175.425 207.33 179.176 209.074 182.991 210.585C190.634 213.607 198.637 215.612 206.755 216.743C210.818 217.319 214.913 217.644 219.039 217.681C221.102 217.692 223.173 217.638 225.266 217.42C226.311 217.306 227.361 217.156 228.434 216.911C229.551 216.657 230.548 216.311 231.587 215.862C232.103 215.635 232.621 215.371 233.146 215.023C233.662 214.66 234.23 214.26 234.702 213.415C234.93 212.998 235.728 211.298 234.654 210.105C232.902 208.162 226.385 209.426 224.149 204.018C222.974 201.182 227.629 197.745 230.514 196.956C233.912 196.028 235.33 199.397 238.795 201.583C239.366 201.941 240.223 202.108 240.841 202.264C241.189 202.353 241.43 202.358 241.885 202.388C242.7 202.432 243.482 202.292 244.194 202.064C245.623 201.593 246.81 200.803 247.865 199.92C248.918 199.034 249.835 198.028 250.645 196.943C251.452 195.853 252.154 194.685 252.7 193.403C252.973 192.762 253.204 192.093 253.363 191.378C253.508 190.654 253.628 189.945 253.524 188.997Z" fill="black"/>
<path d="M251.075 189.234C250.955 189.7 250.246 189.922 249.492 189.728C248.737 189.535 248.221 188.998 248.342 188.53C248.464 188.061 249.173 187.839 249.926 188.033C250.683 188.226 251.197 188.764 251.075 189.234Z" fill="white"/>
<ellipse cx="216.967" cy="184.902" rx="10.6338" ry="6.0799" transform="rotate(17.5732 216.967 184.902)" fill="#FF9365"/>
<path d="M213.634 156.229C218.747 154.781 229.415 156.101 233.276 165.507C236.264 172.792 233.353 182.757 231.647 186.601C228.731 181.2 219.012 173.417 207.662 176.011C212.089 170.575 225.144 167.734 230.782 180.233C230.678 165.392 223.52 159.514 213.634 156.229Z" fill="black"/>
<path d="M192.641 87.2557C198.374 91.9737 203.274 121.407 200.965 126.384C198.887 130.856 192.008 135.041 184.19 137.307C177.877 139.134 158.809 142.052 155.42 133.319C153.072 127.268 162.329 113.739 176.69 98.8517C186.044 89.1517 189.322 84.5237 192.641 87.2557Z" fill="#FFBE31"/>
<path d="M189.821 96.9908C184.25 103.044 175.883 114.671 172.62 126.794C170.53 134.569 177.763 132.321 184.385 130.675C191.008 129.027 195.521 124.654 196.276 122.069C197.029 119.483 192.698 93.8648 189.821 96.9908Z" fill="#FF9365"/>
<path d="M156.6 136.379C155.584 135.553 154.755 134.447 154.293 133.133C153.827 131.751 153.856 130.381 154.041 129.095C154.418 126.513 155.404 124.205 156.472 121.999C157.572 119.803 158.846 117.731 160.178 115.713C161.515 113.694 162.929 111.741 164.383 109.829C165.861 107.932 167.388 106.079 168.945 104.257C172.03 100.581 175.411 97.1687 178.609 93.7307C180.227 91.9977 181.842 90.2627 183.589 88.5377C184.474 87.6787 185.381 86.8207 186.482 85.9967C187.039 85.5897 187.647 85.1837 188.415 84.8407C189.162 84.5067 190.165 84.2248 191.266 84.3588C192.367 84.4848 193.309 85.0157 193.958 85.5507L194.124 85.6878L194.205 85.7627L194.385 85.9257C194.542 86.0847 194.738 86.2788 194.853 86.4158C195.112 86.7078 195.338 87.0017 195.541 87.2937C196.364 88.4627 196.931 89.6207 197.451 90.7827C198.473 93.1047 199.166 95.4558 199.806 97.8018C201.001 102.517 201.743 107.278 202.163 112.07C202.357 114.468 202.458 116.877 202.357 119.296C202.317 120.501 202.214 121.712 202.029 122.914C201.802 124.099 201.617 125.35 200.966 126.386C201.223 125.221 201.135 124.045 201.031 122.878C200.926 121.712 200.76 120.551 200.589 119.392C200.225 117.075 199.797 114.77 199.334 112.473C198.404 107.883 197.276 103.327 195.896 98.9147C195.234 96.7057 194.45 94.5387 193.555 92.5227C193.103 91.5277 192.6 90.5558 192.046 89.7908C191.511 89.0018 190.89 88.6068 190.754 88.6418C190.673 88.6278 190.48 88.6427 190.152 88.7887C189.833 88.9267 189.44 89.1718 189.046 89.4648C188.242 90.0588 187.417 90.8237 186.607 91.6187C184.974 93.2207 183.37 94.9648 181.725 96.6728C178.421 100.13 175.126 103.458 171.973 106.927C170.395 108.66 168.853 110.422 167.361 112.22C165.852 114.006 164.388 115.824 163.01 117.694C161.629 119.559 160.334 121.482 159.183 123.461C158.034 125.428 157.017 127.483 156.461 129.563C156.201 130.591 155.491 132.994 156.6 136.379Z" fill="black"/>
<path d="M186.846 232.968C188.767 236.249 184.124 244.018 177.952 248.191C171.78 252.363 151.127 244.107 138.299 232.414C125.471 220.719 127.722 212.519 131.271 207.582C135.827 201.269 143.843 200.889 151.569 205.459C161.628 211.402 176.223 231.199 178.614 231.226C180.028 231.242 185.466 230.597 186.846 232.968Z" fill="#FFBE31"/>
<path d="M178.613 231.225C180.027 231.243 185.466 230.597 186.845 232.968C188.766 236.249 184.123 244.018 177.951 248.191C171.779 252.363 151.126 244.107 138.298 232.414C125.47 220.719 127.721 212.519 131.27 207.582C131.903 206.699 132.612 205.936 133.375 205.286C130.947 211.058 136.786 221.123 144.949 227.659C153.682 234.646 170.723 233.693 171.037 224.185C172.366 225.515 178.134 231.22 178.613 231.225Z" fill="#FFBE31"/>
<path d="M178.613 231.225C180.027 231.243 185.466 230.597 186.845 232.968C188.766 236.249 184.123 244.018 177.951 248.191C174.701 250.386 167.453 249.138 159.444 245.765C163.499 244.792 165.829 242.683 166.305 239.422C166.575 237.493 167.847 234.991 171.122 233.764C174.311 232.563 174.546 229.256 172.955 226.083C175.154 228.243 178.26 231.222 178.613 231.225Z" fill="#FFFBD9"/>
<path d="M129.47 220.644C131.063 223.025 132.825 225.074 134.739 227.011C136.645 228.946 138.653 230.784 140.738 232.548C144.941 236.04 149.592 239.025 154.465 241.523C159.334 243.986 164.486 246.065 169.682 247.046C170.974 247.277 172.268 247.415 173.495 247.397C174.711 247.38 175.895 247.175 176.656 246.739C176.76 246.681 176.819 246.64 176.94 246.56L177.341 246.277C177.593 246.093 177.854 245.896 178.103 245.695C178.606 245.295 179.095 244.871 179.566 244.425C180.508 243.535 181.386 242.569 182.174 241.546C182.96 240.522 183.666 239.441 184.238 238.337C184.801 237.243 185.231 236.071 185.314 235.099C185.359 234.62 185.296 234.227 185.197 234.028L185.162 233.956C185.273 234.136 185.183 233.99 185.203 234.023L185.185 233.996L185.15 233.941L185.08 233.836C185.081 233.857 185.1 233.879 185.108 233.884C185.09 233.871 185.077 233.854 185.059 233.837C184.982 233.768 184.847 233.677 184.661 233.594C183.887 233.243 182.596 233.1 181.331 233.096C180.685 233.09 180.033 233.115 179.318 233.141L178.731 233.156L178.644 233.157H178.6L178.362 233.139L178.298 233.131L178.11 233.096C177.943 233.063 177.69 232.983 177.61 232.944L177.352 232.827C176.774 232.52 176.469 232.259 176.135 231.993C174.905 230.948 173.957 229.925 172.967 228.883C171.019 226.812 169.199 224.693 167.334 222.615C163.619 218.464 159.877 214.344 155.802 210.709C154.782 209.807 153.74 208.94 152.666 208.149C152.13 207.754 151.587 207.378 151.036 207.032L150.633 206.774L150.185 206.503L149.355 206.007C147.073 204.668 144.762 203.507 142.025 202.4C144.894 201.515 148.046 202.074 150.746 203.254C151.083 203.401 151.435 203.566 151.77 203.739L152.233 203.989L152.73 204.27C153.372 204.656 153.987 205.065 154.586 205.487C155.783 206.333 156.912 207.237 158.006 208.167C162.365 211.904 166.238 216.019 170.068 220.127L175.756 226.258C176.694 227.241 177.671 228.259 178.58 229.019C178.79 229.193 179.039 229.363 179.083 229.38C179.078 229.374 179.07 229.372 179.063 229.371C179.063 229.371 178.896 229.308 178.813 229.303L178.736 229.296C178.714 229.296 178.748 229.298 178.752 229.299L178.817 229.308C178.736 229.303 179.046 229.324 178.642 229.298L178.664 229.296L178.708 229.297L179.17 229.282C179.853 229.253 180.601 229.219 181.354 229.223C182.87 229.254 184.442 229.286 186.257 230.041C186.708 230.241 187.182 230.512 187.632 230.905L187.96 231.22C188.085 231.359 188.212 231.517 188.327 231.671L188.533 231.986C188.605 232.118 188.68 232.247 188.739 232.38C189.234 233.46 189.284 234.509 189.218 235.418C189.048 237.243 188.437 238.73 187.746 240.124C187.045 241.513 186.2 242.778 185.265 243.959C184.332 245.142 183.311 246.241 182.206 247.262C181.654 247.771 181.08 248.257 180.482 248.722C180.185 248.956 179.884 249.177 179.567 249.402L179.109 249.718C178.94 249.833 178.702 249.982 178.501 250.091C176.783 250.997 175.098 251.148 173.534 251.175C171.962 251.179 170.464 250.99 169.007 250.714C163.191 249.566 157.915 247.231 152.872 244.546C147.851 241.821 143.094 238.614 138.771 234.851C136.606 232.977 134.576 230.912 132.893 228.546C131.241 226.189 129.857 223.511 129.47 220.644Z" fill="black"/>
<path d="M179.79 236.954C180.725 236.396 181.9 236.161 183.068 236.147C184.242 236.136 185.436 236.335 186.61 236.735L185.084 239.317C184.439 238.649 183.654 238.056 182.764 237.616C181.875 237.183 180.875 236.882 179.79 236.954Z" fill="black"/>
<path d="M83.5207 211.896C77.8967 206.847 64.7537 206.921 56.2497 215.421C44.5337 227.124 34.4968 228.505 26.8558 229.985C19.2168 231.464 16.0348 253.749 20.3418 255.448C24.3748 257.038 27.6057 252.975 29.9627 252.928C52.6247 252.494 70.5788 245.88 81.9608 234.93C90.8008 226.426 88.6077 216.467 83.5207 211.896Z" fill="#FFBE31"/>
<path d="M83.5172 211.9C88.6052 216.464 90.7961 226.423 81.9571 234.935C70.5741 245.885 52.6281 252.499 29.9631 252.933C27.6031 252.978 24.3712 257.041 20.3402 255.45C16.0362 253.752 19.2191 231.466 26.8531 229.988C31.3671 229.112 36.7222 228.27 42.7562 225.314C37.1062 235.283 51.1202 243.238 68.6372 235.519C83.1762 229.121 86.8472 217.638 83.2722 211.695C83.3542 211.763 83.4352 211.831 83.5172 211.9Z" fill="#FFBE31"/>
<path d="M34.8131 236.167C35.8481 237.978 36.0062 241.126 34.7992 244.339C33.4002 248.027 35.4771 251.007 39.0731 252.399C36.1291 252.695 33.0921 252.875 29.9631 252.933C27.6031 252.978 24.3712 257.041 20.3402 255.45C16.0362 253.752 19.2191 231.466 26.8531 229.988C29.2141 229.534 31.8162 229.084 34.6222 228.32C33.3952 231.124 33.4361 233.753 34.8131 236.167Z" fill="#FFFBD9"/>
<path d="M24.4498 248.702C23.9348 249.665 23.0528 250.473 22.0608 251.087C21.0598 251.704 19.9348 252.15 18.7238 252.415L18.6968 249.415C19.5928 249.653 20.5718 249.756 21.5618 249.673C22.5458 249.585 23.5598 249.325 24.4498 248.702Z" fill="black"/>
<path d="M75.2809 208.609C68.4879 209.031 62.2689 211.661 57.7429 216.089C53.0429 220.964 47.3239 225.364 40.8269 228.05C37.5919 229.416 34.182 230.347 30.824 231.046L28.3209 231.554L27.162 231.788C27.08 231.812 26.9149 231.846 26.8979 231.86L26.7809 231.905C26.6619 231.956 26.5409 232.009 26.4199 232.077C25.4379 232.594 24.4889 233.755 23.7499 235.046C22.2549 237.678 21.3389 240.843 20.7889 243.987C20.5179 245.567 20.3509 247.167 20.3199 248.737C20.2929 250.282 20.4039 251.907 20.8059 253.057C20.9019 253.33 21.0229 253.553 21.0989 253.646C21.1359 253.698 21.1519 253.702 21.1299 253.686C21.1499 253.687 20.9089 253.588 21.2289 253.707C21.7089 253.869 22.2359 253.916 22.7909 253.83C23.9369 253.678 25.215 252.93 26.777 252.054C27.179 251.838 27.605 251.612 28.131 251.405C28.398 251.303 28.6759 251.205 29.0099 251.132C29.1669 251.091 29.3579 251.064 29.5349 251.04C29.7319 251.022 29.9439 251.012 30.0139 251.011C30.8519 250.987 31.714 250.978 32.532 250.941C34.173 250.878 35.841 250.783 37.491 250.646C44.105 250.109 50.6569 248.936 56.9829 247.048C63.2959 245.148 69.3779 242.433 74.7919 238.725C76.1439 237.798 77.4539 236.814 78.7119 235.766C79.9559 234.708 81.19 233.598 82.267 232.478C84.47 230.193 86.3099 227.664 87.7919 224.49C88.2449 228.019 86.741 231.672 84.485 234.428C83.332 235.846 82.036 236.986 80.735 238.146C79.419 239.283 78.047 240.353 76.631 241.363C70.965 245.394 64.6129 248.357 58.0449 250.465C51.4709 252.593 44.649 253.803 37.814 254.414C36.1 254.568 34.3969 254.678 32.6639 254.756L30.121 254.843C29.977 254.846 29.9809 254.854 29.9679 254.851C29.9389 254.86 29.9169 254.857 29.8689 254.872C29.7899 254.888 29.6709 254.93 29.5439 254.979C29.2819 255.082 28.9589 255.249 28.6199 255.434C27.2479 256.178 25.6039 257.309 23.3719 257.67C22.2609 257.853 21.0559 257.756 19.9399 257.359C19.8659 257.338 19.2149 257.108 18.8989 256.845C18.5329 256.584 18.249 256.286 18.033 255.999C17.598 255.417 17.3599 254.865 17.1739 254.346C16.5029 252.281 16.4859 250.472 16.5039 248.655C16.5539 246.848 16.754 245.084 17.064 243.339C17.712 239.858 18.6869 236.426 20.5459 233.178C21.5069 231.59 22.6809 229.938 24.6979 228.834C24.9479 228.7 25.2159 228.585 25.4889 228.48L25.9689 228.325C26.1529 228.268 26.198 228.268 26.319 228.237L26.7059 228.159L27.0199 228.101L27.6449 227.989L30.1129 227.531C33.3739 226.911 36.5239 226.104 39.5359 224.895C42.5489 223.699 45.4089 222.127 48.0869 220.258C49.4269 219.324 50.7209 218.32 51.9739 217.258C52.5989 216.725 53.2119 216.178 53.8169 215.619L55.6539 213.883C60.9139 208.99 68.6209 206.803 75.2809 208.609Z" fill="black"/>
</svg>
