<svg width="281" height="280" viewBox="0 0 281 280" fill="none" xmlns="http://www.w3.org/2000/svg">
<path d="M35.9507 143.792C36.3926 143.835 37.0272 144.008 37.9196 144.279C38.8226 144.552 39.9529 144.909 41.0072 145.061C42.0267 145.207 43.3706 145.225 44.461 144.406C49.0234 140.976 55.5026 141.895 58.9322 146.457C62.3615 151.019 61.4426 157.498 56.8805 160.927C52.3182 164.357 45.8396 163.439 42.4099 158.877C41.4447 157.593 39.6543 154.368 38.1782 151.011C37.4467 149.348 36.8157 147.704 36.4113 146.304C36.2091 145.604 36.0715 144.991 36.0019 144.484C35.9621 144.194 35.9491 143.965 35.9507 143.792Z" fill="#FFBE31" stroke="black" stroke-width="3"/>
<path d="M85.8518 199.74C78.4668 198.135 71.4088 202.572 66.2718 213.442C61.1668 224.246 56.7657 225.079 50.5977 229.825C44.4317 234.572 51.8907 254.945 56.5017 254.535C60.8177 254.148 61.8929 249.079 63.9749 247.972C80.1759 239.361 89.8538 231.181 94.6548 220.738C98.9578 211.384 94.7108 201.665 85.8518 199.74Z" fill="#FFBE31"/>
<path d="M63.7904 238.104C64.0614 242.248 67.5094 244.091 71.6444 243.631C69.2694 245.075 66.7204 246.517 63.9744 247.974C61.9004 249.083 60.8243 254.152 56.5013 254.537C51.8903 254.948 44.4313 234.575 50.6033 229.828C53.0053 227.969 55.1463 226.713 57.1583 225.229C57.5123 227.506 58.5993 229.331 60.4283 230.65C62.1183 231.885 63.5674 234.671 63.7904 238.104Z" fill="#E6E1B8"/>
<path d="M57.03 246.628C57.091 247.717 56.7571 248.866 56.2271 249.907C55.6921 250.952 54.9609 251.919 54.0649 252.774L52.4829 250.225C53.3739 249.963 54.2639 249.541 55.0649 248.957C55.8619 248.371 56.592 247.623 57.03 246.628Z" fill="black"/>
<path d="M79.5299 199.883C76.9499 201.079 74.8539 202.854 73.1139 204.908C71.3679 206.961 69.9498 209.269 68.7118 211.681C68.0708 212.888 67.5619 214.099 66.9069 215.429C66.2699 216.722 65.5749 218 64.7939 219.241C63.2509 221.723 61.2429 224.057 58.9089 225.892C56.5809 227.743 54.1858 229.168 52.0568 230.828L51.6569 231.139C51.6569 231.145 51.362 231.379 51.37 231.397C51.278 231.485 51.093 231.716 50.974 231.901C50.714 232.304 50.5048 232.794 50.3588 233.341C50.0598 234.432 49.978 235.696 50.029 236.97C50.142 239.534 50.7379 242.172 51.5859 244.689C52.4449 247.177 53.5898 249.7 55.0878 251.555C55.4508 252.001 55.861 252.383 56.164 252.565C56.31 252.657 56.4138 252.674 56.3888 252.666C56.3848 252.669 56.3729 252.665 56.3539 252.663L56.342 252.667C56.35 252.667 56.213 252.682 56.287 252.673L56.32 252.669L56.4508 252.651C56.5268 252.639 56.6479 252.63 56.6869 252.618L56.8058 252.593C57.6438 252.414 58.4249 251.854 59.1769 250.934C59.9639 250.015 60.546 248.848 61.706 247.479C62.015 247.138 62.388 246.766 62.935 246.436L63.9308 245.897L65.7609 244.905C70.6089 242.227 75.322 239.314 79.675 235.998C84.011 232.67 87.9478 228.84 90.8798 224.324C93.8508 219.682 95.708 215.09 95.819 209.274C97.374 211.778 97.715 214.989 97.141 217.945C96.995 218.696 96.803 219.409 96.547 220.151C96.412 220.536 96.2768 220.858 96.1488 221.179C95.9928 221.561 95.842 221.857 95.686 222.199C95.055 223.518 94.35 224.801 93.579 226.04C90.483 231.016 86.327 235.193 81.85 238.772C77.366 242.374 72.4948 245.368 67.5448 248.137L65.6818 249.158L64.83 249.624C64.773 249.655 64.631 249.771 64.475 249.951C63.805 250.715 63.075 252.061 62.061 253.301C61.071 254.549 59.5358 255.851 57.5978 256.261L57.2018 256.337C57.0688 256.361 57.0159 256.361 56.9169 256.375L56.788 256.391L56.6359 256.407L56.4928 256.412C56.2978 256.421 56.112 256.412 55.934 256.388C55.211 256.293 54.655 256.025 54.207 255.749C53.32 255.182 52.738 254.544 52.215 253.909C51.192 252.632 50.4609 251.307 49.8029 249.961C49.1569 248.612 48.6169 247.235 48.1579 245.834C47.2519 243.03 46.6168 240.137 46.5148 237.09C46.4838 235.568 46.56 233.994 47.04 232.384C47.276 231.583 47.626 230.768 48.144 230.005C48.423 229.611 48.6689 229.286 49.0929 228.897C49.3449 228.663 49.333 228.689 49.601 228.469L50.039 228.144C52.381 226.41 54.8518 225.003 56.9508 223.402C59.0638 221.809 60.814 219.871 62.287 217.626C63.027 216.512 63.701 215.336 64.33 214.129C64.937 212.955 65.5678 211.601 66.3068 210.361C67.7718 207.866 69.5589 205.502 71.7699 203.572C73.9729 201.658 76.6799 200.181 79.5299 199.883Z" fill="black"/>
<path d="M156.028 206.109C151.051 209.606 149.646 218.236 157.181 229.812C166.652 244.364 182.618 252.28 189.672 249.872C196.726 247.464 202.418 241.842 201.428 238.171C200.711 235.519 195.303 234.718 193.944 234.332C191.633 233.676 185.678 222.184 177.391 210.988C171.35 202.826 163.37 200.946 156.028 206.109Z" fill="#FFBE31"/>
<path d="M201.427 238.171C202.417 241.843 196.731 247.463 189.676 249.871C185.662 251.242 178.775 249.275 171.833 244.648C175.876 244.411 178.496 242.794 179.559 239.727C180.204 237.89 181.988 235.536 185.365 235.086C188.834 234.625 189.642 231.186 188.564 227.629C191.046 231.43 192.878 234.038 193.944 234.331C195.299 234.72 200.707 235.515 201.427 238.171Z" fill="#E6E1B8"/>
<path d="M152.194 218.148C154.329 222.817 156.854 226.836 159.696 230.836C162.596 234.755 166.065 238.257 169.938 241.188C171.874 242.653 173.917 243.972 176.04 245.1C178.159 246.226 180.364 247.188 182.608 247.796C184.817 248.4 187.2 248.669 188.962 248.1C191.095 247.37 193.226 246.259 195.066 244.903C195.994 244.227 196.865 243.485 197.615 242.679C198.363 241.88 199 240.997 199.345 240.162C199.519 239.748 199.605 239.358 199.609 239.056C199.607 238.981 199.607 238.909 199.597 238.845L199.581 238.749L199.571 238.705L199.567 238.682C199.579 238.723 199.536 238.575 199.594 238.771L199.584 238.743L199.516 238.537C199.514 238.557 199.518 238.573 199.532 238.587C199.512 238.56 199.491 238.519 199.456 238.473C199.181 238.07 198.202 237.517 197.183 237.173C196.122 236.794 195.033 236.555 193.722 236.246C193.531 236.186 193.425 236.202 192.894 235.959C192.554 235.785 192.359 235.638 192.16 235.483C191.789 235.186 191.517 234.906 191.264 234.629C190.764 234.08 190.346 233.551 189.953 233.013C188.41 230.873 187.098 228.737 185.746 226.606C183.076 222.346 180.422 218.126 177.572 214.047C176.847 213.017 176.152 212.026 175.418 211.05C174.732 210.132 173.965 209.206 173.182 208.335C171.594 206.58 169.817 205.038 167.596 203.649C170.242 203.557 172.877 204.701 175.006 206.306C176.088 207.117 177.037 208.036 177.928 209.072C178.766 210.056 179.518 211.118 180.264 212.124C183.258 216.221 186.045 220.449 188.801 224.642C190.182 226.726 191.555 228.842 192.992 230.744C193.351 231.212 193.711 231.671 194.062 232.048C194.232 232.232 194.406 232.398 194.525 232.492C194.572 232.531 194.636 232.564 194.578 232.533C194.324 232.439 194.529 232.521 194.642 232.539C195.775 232.801 197.146 233.092 198.456 233.553C199.122 233.787 199.796 234.061 200.485 234.446C201.165 234.833 201.887 235.325 202.522 236.136C202.68 236.341 202.823 236.567 202.958 236.814C203.034 236.969 203.104 237.129 203.169 237.292L203.251 237.532L203.302 237.706L203.325 237.798L203.366 237.983C203.389 238.106 203.415 238.231 203.427 238.353C203.462 238.599 203.472 238.841 203.474 239.082C203.464 240.038 203.236 240.887 202.931 241.632C202.312 243.122 201.421 244.286 200.47 245.328C199.513 246.364 198.466 247.264 197.365 248.066C195.136 249.653 192.75 250.869 190.117 251.73C188.576 252.208 187.084 252.24 185.672 252.136C184.26 252.022 182.914 251.737 181.615 251.367C176.431 249.846 171.918 247.087 167.855 243.868C163.804 240.628 160.23 236.821 157.265 232.583C155.781 230.472 154.447 228.228 153.511 225.791C152.59 223.365 151.985 220.748 152.194 218.148Z" fill="black"/>
<path d="M193.908 240.431C194.941 240.087 196.14 240.108 197.281 240.345C198.431 240.587 199.556 241.037 200.617 241.678L198.574 243.874C198.088 243.083 197.445 242.335 196.672 241.716C195.896 241.102 194.982 240.593 193.908 240.431Z" fill="black"/>
<path d="M45.8289 183.279C46.1859 160.769 63.4009 143.386 90.6449 145.696C118.399 148.051 123.526 160.896 156.7 169.16C174.778 173.663 182.024 184.452 179.757 196.478C175.355 219.797 137.243 231.231 108.296 230.649C82.9437 230.141 45.2679 218.735 45.8289 183.279Z" fill="#FFBE31"/>
<path d="M156.696 169.159C174.776 173.667 182.02 184.448 179.751 196.481C175.358 219.797 137.247 231.23 108.29 230.651C82.9419 230.143 45.2689 218.735 45.8289 183.282C46.0769 168.081 53.9968 155.22 67.5028 149.175C57.8618 161.842 60.4659 182.571 84.1339 188.818C119.052 198.037 150.398 183.781 137.706 162.942C142.971 165.132 149.098 167.266 156.696 169.159Z" fill="#FFBE31"/>
<path d="M180.137 191.547C180.196 193.162 180.071 194.807 179.75 196.483C175.357 219.8 137.248 231.232 108.289 230.652C91.3958 230.316 69.0248 225.134 56.1558 211.222C67.3418 217.506 85.0918 224.382 114.049 223.566C153.026 222.472 157.553 200.816 166.516 191.67C174.057 183.978 178.86 186.966 180.137 191.547Z" fill="#E6E1B8"/>
<path d="M43.6219 183.254V183.217C43.6999 175.657 45.6858 167.87 49.8878 161.351C51.9738 158.091 54.5678 155.149 57.5458 152.672C60.5188 150.187 63.9009 148.227 67.4479 146.747C74.5769 143.798 82.3519 142.931 89.8519 143.498C97.2759 144.059 104.715 145.59 111.67 148.388C118.641 151.151 124.949 154.889 131.41 158.024C137.857 161.208 144.523 163.848 151.41 165.892C153.131 166.407 154.861 166.886 156.601 167.336L157.927 167.682L159.292 168.069C160.19 168.337 161.085 168.623 161.972 168.939C165.515 170.202 168.974 171.861 172.074 174.149C175.164 176.424 177.885 179.384 179.611 182.939C181.367 186.474 182.015 190.524 181.636 194.39C181.284 198.23 179.988 202.036 178.025 205.316C176.062 208.625 173.486 211.487 170.636 213.942C164.896 218.849 158.177 222.262 151.296 224.927C144.384 227.563 137.208 229.39 129.946 230.601C122.678 231.785 115.315 232.42 107.925 232.295C100.521 232.148 93.1518 231.187 85.9498 229.407C78.7618 227.611 71.7118 224.966 65.2718 221.066C58.8558 217.187 53.0529 211.898 49.1739 205.238C47.2329 201.928 45.7868 198.32 44.8788 194.596C43.9708 190.873 43.5859 187.047 43.6219 183.254ZM48.0379 183.327C47.8579 190.263 49.3307 197.203 52.7547 203.174C56.1417 209.172 61.3369 214.084 67.2919 217.792C73.2589 221.518 79.9479 224.142 86.8329 225.955C93.7309 227.76 100.866 228.767 108.003 228.991C115.157 229.188 122.358 228.685 129.444 227.53C136.528 226.375 143.526 224.619 150.219 222.094C156.889 219.568 163.317 216.23 168.635 211.631C171.28 209.334 173.614 206.701 175.354 203.738C177.1 200.767 178.194 197.516 178.499 194.105C178.812 190.737 178.241 187.337 176.745 184.351C175.263 181.353 172.895 178.82 170.122 176.82C167.341 174.81 164.157 173.312 160.845 172.176C160.015 171.889 159.175 171.63 158.329 171.388L157.065 171.045L155.749 170.717C153.964 170.276 152.185 169.804 150.415 169.295C143.333 167.277 136.397 164.616 129.765 161.433C123.115 158.286 116.812 154.662 110.208 152.139C103.622 149.573 96.6359 148.217 89.5599 147.756C82.5779 147.305 75.5109 148.204 69.1949 150.901C62.8919 153.585 57.4218 158.075 53.7608 163.827C50.0808 169.572 48.1699 176.369 48.0379 183.327Z" fill="black"/>
<path d="M174.178 257.208C174.233 261.011 166.365 265.482 158.938 266.073C151.512 266.663 137.606 249.303 132.204 232.806C126.804 216.31 132.8 210.284 138.323 207.736C145.395 204.487 152.561 208.104 157.032 215.889C162.858 226.015 165.805 250.434 167.872 251.635C169.094 252.346 174.145 254.465 174.178 257.208Z" fill="#FFBE31"/>
<path d="M167.872 251.635C169.095 252.346 174.145 254.464 174.179 257.207C174.234 261.01 166.366 265.481 158.939 266.072C151.513 266.662 137.607 249.302 132.205 232.805C126.805 216.309 132.801 210.283 138.324 207.735C139.308 207.277 140.303 206.962 141.287 206.775C136.33 210.6 136.453 222.237 140.336 231.946C144.492 242.329 159.793 249.895 164.75 241.775C165.249 243.589 167.456 251.394 167.872 251.635Z" fill="#FFBE31"/>
<path d="M167.872 251.636C169.095 252.347 174.145 254.465 174.179 257.208C174.234 261.011 166.366 265.482 158.939 266.073C155.029 266.383 149.337 261.725 144.029 254.845C148.039 255.997 151.103 255.31 153.125 252.706C154.309 251.161 156.65 249.61 160.105 250.154C163.472 250.68 165.306 247.919 165.484 244.375C166.331 247.338 167.565 251.459 167.872 251.636Z" fill="#FFFBD9"/>
<path d="M130.319 218.216C130.532 221.072 131.057 223.724 131.768 226.353C132.473 228.974 133.315 231.564 134.26 234.126C136.196 239.235 138.776 244.124 141.783 248.699C144.806 253.242 148.265 257.589 152.304 261.002C153.314 261.841 154.372 262.598 155.449 263.187C156.515 263.772 157.648 264.176 158.525 264.171C158.644 264.172 158.714 264.166 158.859 264.156L159.347 264.106C159.658 264.07 159.982 264.028 160.298 263.976C160.933 263.875 161.568 263.747 162.196 263.591C163.454 263.282 164.694 262.872 165.884 262.37C167.072 261.865 168.22 261.273 169.261 260.595C170.29 259.92 171.241 259.113 171.794 258.307C172.067 257.912 172.208 257.539 172.22 257.318L172.224 257.238C172.234 257.449 172.226 257.278 172.228 257.316L172.226 257.283L172.222 257.219L172.212 257.092C172.202 257.112 172.208 257.14 172.214 257.15C172.204 257.129 172.2 257.108 172.194 257.085C172.161 256.986 172.089 256.841 171.967 256.677C171.465 255.989 170.412 255.23 169.313 254.604C168.754 254.279 168.176 253.98 167.54 253.652L167.022 253.375L166.946 253.333L166.909 253.311L166.71 253.178L166.657 253.138L166.509 253.016C166.382 252.906 166.202 252.71 166.152 252.637L165.984 252.409C165.632 251.857 165.496 251.478 165.338 251.083C164.781 249.568 164.461 248.21 164.113 246.816C163.437 244.053 162.898 241.312 162.299 238.586C161.111 233.144 159.885 227.714 158.129 222.544C157.686 221.257 157.205 219.988 156.662 218.773C156.389 218.165 156.101 217.57 155.793 216.997L155.568 216.575L155.312 216.118L154.833 215.277C153.507 212.987 152.069 210.839 150.231 208.526C153.165 209.169 155.631 211.208 157.401 213.567C157.62 213.86 157.846 214.177 158.053 214.493L158.332 214.938L158.625 215.428C158.994 216.08 159.328 216.739 159.641 217.402C160.266 218.728 160.803 220.07 161.297 221.419C163.25 226.817 164.594 232.307 165.901 237.77L167.833 245.907C168.163 247.225 168.513 248.592 168.931 249.701C169.027 249.957 169.16 250.226 169.191 250.262C169.187 250.256 169.183 250.25 169.177 250.245C169.177 250.245 169.064 250.107 168.993 250.062L168.929 250.018C168.909 250.006 168.939 250.026 168.941 250.029L168.994 250.068C168.926 250.023 169.185 250.195 168.848 249.973L168.868 249.984L168.907 250.005L169.315 250.22C169.924 250.53 170.592 250.87 171.245 251.245C172.548 252.019 173.901 252.82 175.108 254.372C175.403 254.768 175.68 255.238 175.879 255.803L176.008 256.239C176.049 256.42 176.082 256.621 176.106 256.812L176.129 257.188C176.129 257.337 176.129 257.488 176.115 257.632C176.013 258.815 175.541 259.752 175.035 260.51C173.988 262.015 172.722 263.007 171.435 263.882C170.14 264.743 168.783 265.43 167.386 265.996C165.993 266.564 164.562 267.018 163.097 267.361C162.367 267.533 161.626 267.674 160.878 267.784C160.503 267.841 160.134 267.886 159.747 267.925L159.192 267.976C158.989 267.991 158.708 268.004 158.479 267.998C156.538 267.942 154.995 267.242 153.624 266.496C152.253 265.725 151.042 264.822 149.909 263.864C145.415 259.999 141.973 255.368 138.907 250.548C135.88 245.701 133.321 240.569 131.413 235.163C130.452 232.466 129.704 229.668 129.405 226.781C129.129 223.914 129.243 220.902 130.319 218.216Z" fill="black"/>
<path d="M166.073 257.202C167.163 257.178 168.302 257.551 169.323 258.115C170.35 258.683 171.294 259.446 172.116 260.371L169.516 261.866C169.284 260.968 168.893 260.064 168.334 259.243C167.776 258.428 167.053 257.674 166.073 257.202Z" fill="black"/>
<path d="M72.9457 191.474C66.2487 187.971 53.5318 191.292 47.3908 201.629C38.9318 215.865 29.5467 219.683 22.5097 223.006C15.4727 226.327 17.8966 248.707 22.4896 249.288C26.7906 249.833 28.9176 245.098 31.1886 244.472C53.0426 238.45 68.8036 227.604 77.1266 214.18C83.5896 203.755 79.0037 194.645 72.9457 191.474Z" fill="#FFBE31"/>
<path d="M72.944 191.48C79.001 194.644 83.5868 203.752 77.1258 214.185C68.8018 227.609 53.0478 238.454 31.1918 244.475C28.9168 245.102 26.7879 249.838 22.4889 249.29C17.8989 248.709 15.4749 226.328 22.5089 223.011C26.6649 221.046 31.6458 218.907 36.7628 214.55C33.7508 225.607 49.2979 229.85 64.3629 218.043C76.8709 208.249 77.5899 196.215 72.6559 191.34C72.7499 191.386 72.846 191.433 72.944 191.48Z" fill="#FFBE31"/>
<path d="M31.7489 227.031C33.1979 228.531 34.1317 231.54 33.7547 234.953C33.3097 238.873 36.0598 241.247 39.8898 241.706C37.1088 242.721 34.208 243.645 31.193 244.476C28.918 245.103 26.7889 249.839 22.4899 249.291C17.8999 248.71 15.4759 226.329 22.5099 223.012C24.6859 221.988 27.0939 220.908 29.6249 219.475C29.1269 222.495 29.8169 225.032 31.7489 227.031Z" fill="#FFFBD9"/>
<path d="M24.8027 241.739C24.5427 242.799 23.8869 243.8 23.0779 244.639C22.2619 245.485 21.2808 246.195 20.1738 246.75L19.4058 243.851C20.3338 243.861 21.3078 243.717 22.2458 243.393C23.1778 243.064 24.0937 242.562 24.8027 241.739Z" fill="black"/>
<path d="M64.1487 190.326C57.6697 192.413 52.2947 196.498 49.0037 201.907C45.6537 207.795 41.2009 213.471 35.5679 217.678C32.7709 219.801 29.6987 221.545 26.6167 223.053L24.3157 224.163L23.2517 224.678C23.1777 224.72 23.0249 224.793 23.0159 224.813L22.9119 224.885C22.8079 224.964 22.7048 225.045 22.6028 225.14C21.7788 225.884 21.1478 227.244 20.7488 228.678C19.9518 231.598 19.8469 234.89 20.0909 238.073C20.2199 239.672 20.4519 241.263 20.8099 242.793C21.1649 244.295 21.6749 245.844 22.3489 246.858C22.5089 247.099 22.6828 247.287 22.7788 247.356C22.8278 247.397 22.8429 247.398 22.8199 247.387C22.8399 247.383 22.5797 247.347 22.9197 247.382C23.4257 247.423 23.9469 247.337 24.4649 247.117C25.5369 246.686 26.5897 245.644 27.8887 244.411C28.2247 244.1 28.5799 243.777 29.0389 243.447C29.2729 243.282 29.5178 243.118 29.8218 242.964C29.9648 242.885 30.1419 242.813 30.3079 242.745C30.4959 242.68 30.6989 242.617 30.7669 242.6C31.5719 242.369 32.4058 242.148 33.1868 241.909C34.7608 241.444 36.3527 240.939 37.9187 240.397C44.1937 238.242 50.2528 235.487 55.9168 232.095C61.5648 228.693 66.7858 224.558 71.1158 219.628C72.1958 218.396 73.2227 217.118 74.1817 215.792C75.1247 214.459 76.0467 213.079 76.8147 211.727C78.3827 208.968 79.5419 206.062 80.1939 202.622C81.5069 205.93 80.9518 209.84 79.4458 213.068C78.6798 214.728 77.7057 216.152 76.7327 217.596C75.7387 219.024 74.6718 220.4 73.5508 221.727C69.0568 227.035 63.6349 231.477 57.7889 235.141C51.9449 238.828 45.6349 241.686 39.1619 243.969C37.5389 244.54 35.9159 245.069 34.2559 245.571L31.8147 246.284C31.6757 246.322 31.6798 246.33 31.6668 246.329C31.6418 246.347 31.6197 246.349 31.5767 246.374C31.5047 246.409 31.3989 246.479 31.2879 246.559C31.0609 246.723 30.7879 246.965 30.5069 247.229C29.3609 248.289 28.0479 249.792 25.9739 250.694C24.9409 251.144 23.7488 251.348 22.5718 251.24C22.4938 251.238 21.8079 251.175 21.4349 251C21.0168 250.838 20.6687 250.619 20.3877 250.395C19.8237 249.939 19.4558 249.463 19.1458 249.004C17.9858 247.169 17.5229 245.421 17.0909 243.655C16.6929 241.892 16.4499 240.133 16.3179 238.365C16.0879 234.831 16.1829 231.265 17.1829 227.659C17.7219 225.883 18.4509 223.991 20.1319 222.423C20.3409 222.233 20.5709 222.055 20.8099 221.885L21.2378 221.614C21.4018 221.515 21.4447 221.505 21.5557 221.444L21.9107 221.272L22.1997 221.14L22.7779 220.874L25.0567 219.82C28.0607 218.415 30.9157 216.853 33.5357 214.939C36.1587 213.035 38.5438 210.804 40.6768 208.332C41.7428 207.096 42.7488 205.802 43.6978 204.463C44.1748 203.793 44.6338 203.112 45.0808 202.42L46.4307 200.283C50.3227 194.245 57.2497 190.221 64.1487 190.326Z" fill="black"/>
<path d="M224.899 102.905C229.528 103.485 226.899 133.985 222.399 136.155C215.649 139.405 199.649 136.905 194.399 130.655C189.249 124.525 203.608 115.915 210.649 111.155C219.149 105.405 220.899 102.405 224.899 102.905Z" fill="#FFBE31"/>
<path d="M222.399 136.155C223.034 135.595 223.274 134.805 223.532 134.051C223.774 133.285 223.95 132.494 224.118 131.703C224.448 130.117 224.688 128.506 224.948 126.898C225.444 123.675 225.79 120.412 225.919 117.148C226.042 113.896 226.023 110.596 225.581 107.494C225.464 106.727 225.306 105.973 225.083 105.32C224.976 104.998 224.841 104.702 224.716 104.507C224.591 104.296 224.476 104.292 224.655 104.368C224.69 104.372 224.659 104.377 224.751 104.384L224.595 104.37C224.497 104.362 224.372 104.349 224.318 104.352C224.189 104.346 224.033 104.349 223.877 104.355C223.57 104.373 223.279 104.425 222.984 104.509C222.396 104.679 221.791 104.997 221.158 105.4C219.888 106.207 218.586 107.255 217.262 108.257C215.938 109.271 214.584 110.275 213.209 111.243C210.453 113.202 207.607 114.886 204.918 116.751C202.215 118.59 199.611 120.569 197.357 122.767C196.234 123.857 195.173 125.003 194.484 126.292C194.129 126.935 193.914 127.617 193.869 128.355C193.834 129.091 194.029 129.878 194.4 130.654C193.707 130.162 193.115 129.42 192.843 128.508C192.548 127.6 192.616 126.596 192.833 125.688C193.325 123.86 194.374 122.352 195.495 121.023C196.638 119.696 197.931 118.563 199.239 117.477C200.552 116.395 201.901 115.381 203.262 114.399C205.991 112.437 208.778 110.608 211.446 108.746C212.78 107.804 214.091 106.828 215.399 105.823C216.717 104.825 217.995 103.779 219.522 102.799C220.286 102.316 221.172 101.862 222.186 101.59C222.69 101.456 223.221 101.376 223.745 101.359C224.003 101.353 224.261 101.354 224.546 101.376C224.7 101.384 224.78 101.397 224.888 101.408L225.044 101.425C225.235 101.451 225.31 101.466 225.442 101.504C226.436 101.805 226.911 102.473 227.217 102.955C227.526 103.468 227.707 103.946 227.856 104.41C228.147 105.337 228.299 106.218 228.417 107.092C228.851 110.572 228.708 113.94 228.466 117.303C228.189 120.66 227.778 123.998 227.056 127.297C226.697 128.946 226.204 130.577 225.538 132.155C225.202 132.943 224.811 133.717 224.327 134.441C223.842 135.136 223.249 135.91 222.399 136.155Z" fill="black"/>
<path d="M199.559 116.332C217.539 117.159 235.684 128.468 244.559 144.832C252.559 159.582 248.309 181.332 245.559 187.082C242.809 192.832 254.098 191.055 254.309 194.832C254.559 199.332 248.559 207.082 243.809 206.582C237.821 205.952 235.059 202.832 233.059 200.082C228.559 204.582 228.758 213.182 234.059 215.832C237.059 217.332 235.715 219.227 231.309 220.582C221.559 223.582 180.504 220.567 160.809 198.582C139.309 174.582 146.899 150.2 155.309 136.082C162.309 124.332 177.809 115.332 199.559 116.332Z" fill="#FFBE31"/>
<path d="M254.309 194.834C254.559 199.334 248.559 207.084 243.809 206.584C237.819 205.954 235.059 202.834 233.059 200.084C228.559 204.584 228.758 213.184 234.059 215.834C237.059 217.334 235.719 219.225 231.309 220.584C227.399 221.784 218.457 222.024 207.879 220.454C183.258 211.174 191.758 190.704 201.899 185.154C207.499 182.084 208.649 180.904 208.149 175.904C207.399 168.433 205.899 158.404 209.649 151.654C218.909 134.984 233.649 144.154 239.399 148.904C242.948 151.834 245.549 153.244 247.829 153.594C251.038 167.084 247.8 182.395 245.559 187.084C242.809 192.834 254.098 191.054 254.309 194.834Z" fill="#FFFBD9"/>
<path d="M226.038 125.125C212.069 121.924 183.489 125.305 179.309 160.584C176.829 181.514 182.998 195.855 192.198 205.504C193.419 211.164 197.969 216.715 207.889 220.454C192.088 218.125 172.618 211.754 160.809 198.584C139.309 174.584 146.899 150.204 155.309 136.084C162.309 124.334 177.809 115.334 199.559 116.334C208.758 116.754 218.008 119.933 226.038 125.125Z" fill="#FFBE31"/>
<path d="M220.409 221.545C216.729 221.475 212.458 221.135 207.889 220.454C197.969 216.715 193.418 211.164 192.198 205.504C200.499 214.215 211.278 219.104 220.409 221.545Z" fill="#E6E1B8"/>
<path d="M249.979 200.412C250.069 198.082 249.639 196.252 248.479 194.002C247.928 192.933 247.989 191.981 248.698 191.662C251.229 192.422 254.198 192.912 254.309 194.832C254.438 197.092 252.979 200.172 250.899 202.612C250.319 202.542 249.918 201.702 249.979 200.412Z" fill="black"/>
<path d="M255.629 194.426C255.545 193.867 255.275 193.317 254.94 192.921C254.606 192.521 254.235 192.243 253.883 192.023C253.172 191.593 252.502 191.351 251.856 191.132C250.573 190.71 249.348 190.428 248.286 190.032C247.763 189.839 247.278 189.61 246.973 189.372C246.655 189.115 246.602 188.983 246.578 188.796C246.558 188.581 246.631 188.214 246.867 187.73C247.142 187.165 247.422 186.483 247.64 185.873C248.535 183.369 249.128 180.855 249.613 178.314C250.088 175.773 250.422 173.212 250.619 170.636C251.004 165.489 250.875 160.268 249.926 155.113C249.447 152.539 248.762 149.982 247.791 147.508C247.549 146.89 247.291 146.276 247.012 145.669C246.881 145.368 246.719 145.052 246.573 144.745L246.126 143.873C245.511 142.718 244.853 141.585 244.151 140.479C238.536 131.63 230.409 124.483 221.044 119.789C216.349 117.46 211.333 115.734 206.14 114.786C203.564 114.306 200.867 114.038 198.277 113.966C195.672 113.878 193.056 113.929 190.445 114.136C185.226 114.566 180.025 115.654 175.064 117.505C170.105 119.346 165.404 122.011 161.339 125.497C159.31 127.238 157.439 129.183 155.8 131.319C154.984 132.384 154.212 133.507 153.523 134.657C152.845 135.802 152.236 136.934 151.64 138.101C150.454 140.426 149.402 142.818 148.499 145.27C147.628 147.734 146.915 150.255 146.382 152.815C145.831 155.371 145.538 157.98 145.421 160.586C145.294 163.192 145.423 165.808 145.775 168.379C146.461 173.524 148.105 178.498 150.595 182.923C149.099 178.072 148.24 173.122 148.159 168.194C148.12 165.731 148.28 163.28 148.585 160.856C148.898 158.43 149.427 156.043 150.048 153.688C150.683 151.334 151.489 149.028 152.425 146.778C153.333 144.516 154.384 142.309 155.556 140.167C156.138 139.101 156.765 138.031 157.394 137.017C158.013 136.008 158.685 135.052 159.414 134.121C160.867 132.265 162.531 130.565 164.35 129.039C167.987 125.981 172.231 123.638 176.727 121.951C181.231 120.262 186.012 119.286 190.848 118.85C193.268 118.627 195.709 118.551 198.151 118.602C200.61 118.644 202.954 118.852 205.35 119.262C210.104 120.07 214.75 121.6 219.127 123.705C227.873 127.908 235.623 134.395 241.004 142.516C246.627 150.457 247.969 160.614 247.418 170.417C247.104 175.319 246.363 180.307 244.859 184.885C244.66 185.465 244.47 185.957 244.205 186.533C243.916 187.183 243.59 188.071 243.709 189.121C243.768 189.644 243.963 190.191 244.258 190.627C244.549 191.072 244.908 191.402 245.26 191.663C245.971 192.181 246.662 192.453 247.321 192.694C248.635 193.154 249.884 193.417 251.005 193.771C251.558 193.943 252.079 194.142 252.452 194.365C252.843 194.605 252.936 194.764 252.948 194.859C252.985 195.168 252.95 195.73 252.841 196.237C252.732 196.757 252.564 197.289 252.351 197.814C251.923 198.865 251.337 199.886 250.656 200.835C249.299 202.706 247.496 204.437 245.529 205.138C245.045 205.303 244.562 205.388 244.113 205.372C243.939 205.367 243.547 205.317 243.277 205.282C243 205.246 242.711 205.196 242.422 205.143C241.274 204.926 240.162 204.58 239.131 204.077C237.049 203.086 235.389 201.419 233.945 199.438L233.164 198.367L232.291 199.307C229.043 202.457 227.805 207.321 229.09 211.736C229.434 212.836 229.951 213.917 230.701 214.859C231.416 215.803 232.457 216.623 233.455 217.139C233.719 217.28 233.777 217.328 233.939 217.439C234.005 217.49 234.062 217.539 234.111 217.584C234.007 217.689 233.836 217.842 233.625 217.969C233.303 218.174 232.918 218.369 232.508 218.541C231.688 218.882 230.76 219.186 229.903 219.359C229.001 219.547 228.044 219.67 227.081 219.759C225.149 219.937 223.173 219.991 221.196 219.966C217.237 219.913 213.264 219.556 209.317 219.04C205.368 218.512 201.448 217.762 197.579 216.815C193.708 215.881 189.888 214.733 186.163 213.338C178.712 210.498 171.696 206.904 164.808 202.538C167.4 205.721 170.636 208.346 174.087 210.576C177.546 212.82 181.298 214.559 185.114 216.068C192.76 219.081 200.764 221.082 208.884 222.207C212.945 222.779 217.042 223.102 221.167 223.133C223.231 223.143 225.302 223.085 227.394 222.865C228.439 222.75 229.49 222.598 230.562 222.355C231.679 222.101 232.675 221.753 233.714 221.304C234.23 221.075 234.747 220.809 235.273 220.461C235.789 220.098 236.355 219.698 236.828 218.853C237.055 218.435 237.221 217.825 237.123 217.224C237.033 216.627 236.752 216.154 236.475 215.826C236.194 215.492 235.903 215.262 235.621 215.062C235.365 214.886 234.99 214.675 234.805 214.587C233.264 213.874 232.221 212.566 231.645 210.909C230.668 207.998 231.213 204.45 233.028 201.854C234.374 203.56 236.044 205.152 238.083 206.169C239.31 206.803 240.622 207.24 241.948 207.518C242.278 207.584 242.61 207.647 242.958 207.698C243.313 207.746 243.548 207.79 244.003 207.82C244.817 207.862 245.599 207.721 246.312 207.492C247.74 207.022 248.927 206.23 249.98 205.348C251.031 204.458 251.949 203.453 252.757 202.367C253.564 201.278 254.265 200.108 254.81 198.827C255.081 198.186 255.31 197.515 255.472 196.802C255.616 196.083 255.735 195.374 255.629 194.426Z" fill="black"/>
<path d="M253.18 194.664C253.061 195.132 252.35 195.354 251.596 195.161C250.842 194.968 250.326 194.432 250.448 193.964C250.567 193.495 251.276 193.273 252.03 193.466C252.786 193.659 253.301 194.196 253.18 194.664Z" fill="white"/>
<path d="M218.612 156.242C222.126 147.072 236.557 146.918 240.505 159.787C235.909 154.306 227.917 152.049 218.612 156.242Z" fill="black"/>
<path d="M225.872 163.644C234.56 162.081 237.079 169.739 236.364 176.747C235.641 184.415 230.747 188.394 228.684 189.582C225.309 185.582 218.996 185.082 216.746 184.832C215.372 173.582 219.696 164.755 225.872 163.644Z" fill="white"/>
<path d="M222.471 163.917C231.02 159.399 237.985 165.873 236.576 175.507C236.519 175.931 236.441 176.345 236.363 176.747C237.078 169.739 233.558 162.582 225.89 164.688C219.671 166.397 216.62 174.519 217.933 184.832C216.964 184.801 216.558 184.895 215.62 185.02C214.434 179.457 215.184 167.769 222.471 163.917Z" fill="black"/>
<path d="M236.444 177.922C235.274 183.602 231.706 187.666 228.475 186.998C225.243 186.334 223.575 181.189 224.743 175.51C225.915 169.83 229.483 165.766 232.714 166.433C235.946 167.097 237.616 172.242 236.444 177.922Z" fill="black"/>
<path d="M233.817 173.79C232.7 176.141 230.462 177.413 228.821 176.63C227.18 175.849 226.758 173.311 227.876 170.961C228.995 168.609 231.235 167.337 232.876 168.118C234.514 168.9 234.938 171.439 233.817 173.79Z" fill="white"/>
<path d="M211.235 186.615C217.13 184.837 226.049 186.934 230.729 192.143C227.209 184.554 218.491 180.878 211.235 186.615Z" fill="#FFBE31"/>
<path d="M199.648 94.1545C204.898 99.4045 206.927 129.175 204.148 133.905C201.648 138.155 194.398 141.655 186.398 143.155C179.937 144.365 160.677 145.425 158.148 136.405C156.398 130.155 166.918 117.585 182.648 104.155C192.898 95.4045 196.607 91.1145 199.648 94.1545Z" fill="#FFBE31"/>
<path d="M195.899 103.572C189.77 109.057 180.317 119.822 175.899 131.572C173.067 139.108 180.483 137.572 187.233 136.572C193.983 135.572 198.899 131.655 199.899 129.155C200.899 126.655 199.065 100.739 195.899 103.572Z" fill="#FF9365"/>
<path d="M159.028 139.564C158.096 138.643 157.377 137.463 157.045 136.111C156.715 134.689 156.878 133.329 157.185 132.066C157.81 129.533 159.015 127.333 160.292 125.241C161.599 123.16 163.064 121.22 164.586 119.34C166.111 117.461 167.708 115.654 169.343 113.891C170.995 112.145 172.694 110.449 174.42 108.786C177.844 105.427 181.539 102.356 185.055 99.2435C186.832 97.6755 188.608 96.1045 190.514 94.5565C191.477 93.7855 192.463 93.0185 193.639 92.3065C194.233 91.9535 194.878 91.6095 195.673 91.3425C196.45 91.0825 197.476 90.8995 198.558 91.1385C199.642 91.3685 200.527 91.9895 201.124 92.5825L201.273 92.7365L201.347 92.8185L201.51 93.0005C201.653 93.1725 201.827 93.3845 201.927 93.5315C202.156 93.8475 202.354 94.1615 202.53 94.4715C203.235 95.7145 203.686 96.9225 204.093 98.1305C204.886 100.538 205.349 102.944 205.759 105.342C206.491 110.15 206.771 114.959 206.726 119.771C206.689 122.176 206.555 124.584 206.221 126.98C206.065 128.177 205.844 129.372 205.545 130.55C205.205 131.708 204.899 132.935 204.149 133.904C204.52 132.768 204.544 131.591 204.555 130.42C204.563 129.248 204.508 128.076 204.451 126.905C204.312 124.564 204.11 122.227 203.872 119.897C203.39 115.24 202.708 110.596 201.761 106.073C201.314 103.811 200.743 101.577 200.048 99.4835C199.693 98.4495 199.286 97.4345 198.81 96.6195C198.353 95.7815 197.773 95.3285 197.636 95.3495C197.556 95.3285 197.362 95.3245 197.022 95.4375C196.69 95.5445 196.276 95.7505 195.854 96.0035C194.999 96.5185 194.103 97.1995 193.218 97.9115C191.441 99.3485 189.673 100.928 187.872 102.469C184.249 105.593 180.647 108.584 177.175 111.734C175.437 113.307 173.732 114.912 172.073 116.557C170.399 118.187 168.766 119.855 167.214 121.582C165.657 123.306 164.185 125.095 162.849 126.952C161.515 128.8 160.304 130.747 159.548 132.762C159.19 133.763 158.252 136.088 159.028 139.564Z" fill="black"/>
<ellipse cx="220.253" cy="189.923" rx="10.6338" ry="6.0799" transform="rotate(10.8066 220.253 189.923)" fill="#FF9365"/>
</svg>
