<svg width="281" height="280" viewBox="0 0 281 280" fill="none" xmlns="http://www.w3.org/2000/svg">
<path d="M50.1261 176.788C50.565 176.855 51.1894 177.063 52.0659 177.381C52.9528 177.702 54.0621 178.12 55.1068 178.328C56.1169 178.529 57.4578 178.62 58.5909 177.861C63.3316 174.682 69.7519 175.949 72.9303 180.689C76.1085 185.43 74.8414 191.85 70.1009 195.028C65.3602 198.207 58.9405 196.941 55.7619 192.2C54.8675 190.866 53.2537 187.549 51.9608 184.117C51.3201 182.417 50.7787 180.742 50.4505 179.322C50.2864 178.612 50.182 177.993 50.1399 177.482C50.1158 177.19 50.1151 176.961 50.1261 176.788Z" fill="#FFBE31" stroke="black" stroke-width="3"/>
<path d="M94.7134 235.898C91.8664 228.896 84.2204 225.577 72.3484 227.474C60.5484 229.36 57.3766 226.199 49.9766 223.788C42.5796 221.379 29.9735 239.038 32.9175 242.614C35.6735 245.958 40.4645 243.981 42.5535 245.075C58.8085 253.584 71.0226 256.951 82.3536 255.019C92.5026 253.289 98.1264 244.297 94.7134 235.898Z" fill="#FFBE31"/>
<path d="M50.5933 239.349C47.3243 241.912 47.7502 245.796 50.4642 248.953C47.9302 247.808 45.3033 246.517 42.5513 245.074C40.4633 243.989 35.6714 245.962 32.9134 242.613C29.9724 239.039 42.5744 221.38 49.9774 223.793C52.8674 224.725 55.1122 225.784 57.4732 226.607C55.7932 228.185 54.9023 230.113 54.8453 232.366C54.7823 234.457 53.3013 237.227 50.5933 239.349Z" fill="#E6E1B8"/>
<path d="M39.7402 238.584C38.8772 239.248 37.7383 239.621 36.5803 239.772C35.4153 239.921 34.2041 239.865 32.9951 239.607L34.2031 236.861C34.9231 237.449 35.7732 237.945 36.7092 238.275C37.6422 238.601 38.6712 238.785 39.7402 238.584Z" fill="black"/>
<path d="M91.0254 230.76C88.5814 229.304 85.9334 228.577 83.2554 228.3C80.5744 228.021 77.8685 228.153 75.1795 228.491C73.8225 228.644 72.5344 228.908 71.0674 229.119C69.6394 229.323 68.1946 229.471 66.7276 229.525C63.8086 229.655 60.7486 229.315 57.9146 228.424C55.0746 227.549 52.5445 226.377 49.9725 225.557L49.4915 225.404C49.4865 225.405 49.1256 225.296 49.1146 225.312C48.9926 225.285 48.6956 225.263 48.4756 225.268C47.9966 225.282 47.4755 225.386 46.9405 225.575C45.8725 225.944 44.7826 226.589 43.7586 227.35C41.7056 228.892 39.8624 230.872 38.2664 232.992C36.6984 235.106 35.2625 237.476 34.5755 239.761C34.4135 240.312 34.3296 240.866 34.3506 241.22C34.3576 241.393 34.4016 241.487 34.3946 241.461C34.3896 241.458 34.3855 241.448 34.3755 241.431L34.3665 241.425C34.3715 241.431 34.2836 241.325 34.3316 241.382L34.3536 241.407L34.4405 241.505C34.4945 241.56 34.5706 241.655 34.6016 241.681L34.6905 241.766C35.3105 242.358 36.2134 242.686 37.4004 242.785C38.6014 242.916 39.8935 242.738 41.6775 242.923C42.1325 242.986 42.6515 243.082 43.2325 243.348L44.2405 243.866L46.0916 244.815C51.0406 247.305 56.1056 249.551 61.3006 251.272C66.4966 252.971 71.8815 254.057 77.2625 253.929C82.7735 253.758 87.6104 252.698 92.4734 249.507C91.2844 252.204 88.8276 254.299 86.0616 255.493C85.3626 255.798 84.6645 256.043 83.9075 256.248C83.5125 256.354 83.1716 256.428 82.8335 256.5C82.4296 256.588 82.1015 256.632 81.7315 256.694C80.2855 256.919 78.8294 257.061 77.3704 257.124C71.5164 257.379 65.7226 256.309 60.2396 254.632C54.7356 252.965 49.5144 250.635 44.4334 248.113L42.5386 247.152L41.6724 246.711C41.6154 246.685 41.4405 246.631 41.2015 246.604C40.1925 246.482 38.6705 246.64 37.0745 246.503C35.4835 246.39 33.5446 245.857 32.1116 244.49L31.8255 244.205C31.7305 244.11 31.6986 244.066 31.6336 243.994L31.5464 243.893L31.4485 243.777L31.3636 243.662C31.2456 243.508 31.1474 243.349 31.0684 243.187C30.7384 242.538 30.6454 241.927 30.6194 241.402C30.5884 240.351 30.7855 239.509 31.0145 238.72C31.4915 237.152 32.1714 235.802 32.9114 234.499C33.6604 233.204 34.4905 231.982 35.3885 230.811C37.1915 228.479 39.2225 226.322 41.6785 224.516C42.9175 223.631 44.2594 222.807 45.8584 222.295C46.6544 222.035 47.5226 221.865 48.4476 221.861C48.9286 221.871 49.3375 221.889 49.8965 222.019C50.2325 222.093 50.2056 222.099 50.5386 222.195L51.0535 222.376C53.8055 223.326 56.3614 224.574 58.8694 225.4C61.3764 226.246 63.9655 226.595 66.6485 226.544C67.9865 226.525 69.3365 226.418 70.6895 226.256C72.0015 226.094 73.4756 225.851 74.9136 225.76C77.8026 225.561 80.7616 225.7 83.6026 226.436C86.4236 227.177 89.1714 228.577 91.0254 230.76Z" fill="black"/>
<path d="M155.684 240.857C154.094 246.728 158.534 254.26 171.73 258.342C188.316 263.474 205.654 259.349 209.537 252.988C213.421 246.626 214.201 238.662 211.092 236.474C208.846 234.893 204.175 237.736 202.883 238.31C200.689 239.282 188.761 234.253 175.23 230.947C165.365 228.535 158.028 232.191 155.684 240.857Z" fill="#FFBE31"/>
<path d="M211.093 236.474C214.202 238.663 213.424 246.622 209.539 252.985C207.331 256.605 200.776 259.497 192.481 260.379C195.439 257.61 196.419 254.694 195.274 251.657C194.594 249.831 194.462 246.879 196.771 244.374C199.143 241.803 197.565 238.641 194.462 236.596C198.8 237.93 201.876 238.767 202.883 238.311C204.174 237.741 208.841 234.894 211.093 236.474Z" fill="#E6E1B8"/>
<path d="M160.436 252.563C165.064 254.79 169.574 256.262 174.318 257.521C179.052 258.68 183.961 259.154 188.812 258.93C191.237 258.82 193.65 258.529 196.002 258.035C198.353 257.547 200.665 256.876 202.779 255.908C204.863 254.961 206.867 253.643 207.855 252.08C209.029 250.155 209.957 247.938 210.502 245.719C210.784 244.606 210.981 243.48 211.042 242.38C211.105 241.287 211.031 240.2 210.762 239.338C210.631 238.907 210.449 238.554 210.258 238.318C210.208 238.261 210.162 238.206 210.113 238.163L210.042 238.099L210.005 238.073L209.988 238.058C210.023 238.082 209.893 237.995 210.064 238.11L210.041 238.093L209.854 237.979C209.866 237.996 209.879 238.005 209.897 238.008C209.865 237.999 209.823 237.98 209.768 237.968C209.298 237.833 208.191 238.035 207.188 238.421C206.13 238.81 205.14 239.322 203.935 239.922C203.748 239.999 203.678 240.079 203.114 240.232C202.743 240.316 202.498 240.326 202.245 240.336C201.771 240.346 201.383 240.304 201.011 240.254C200.276 240.151 199.616 240.012 198.97 239.849C196.415 239.191 194.039 238.388 191.638 237.614C186.863 236.047 182.121 234.499 177.323 233.186C176.109 232.856 174.939 232.54 173.752 232.257C172.637 231.991 171.455 231.77 170.297 231.602C167.953 231.268 165.6 231.219 163.004 231.571C164.981 229.807 167.738 229.003 170.4 228.875C171.751 228.808 173.069 228.906 174.417 229.134C175.689 229.355 176.948 229.689 178.164 229.987C183.086 231.222 187.931 232.69 192.73 234.152C195.125 234.87 197.534 235.619 199.856 236.162C200.431 236.292 201.002 236.416 201.511 236.481C201.76 236.513 202 236.53 202.153 236.526C202.214 236.526 202.285 236.51 202.219 236.523C201.964 236.614 202.174 236.545 202.272 236.488C203.31 235.965 204.551 235.31 205.854 234.827C206.516 234.582 207.207 234.361 207.983 234.217C208.754 234.078 209.626 233.994 210.632 234.213C210.883 234.27 211.137 234.351 211.397 234.455C211.556 234.525 211.713 234.603 211.866 234.687L212.083 234.82L212.232 234.92L212.308 234.977L212.459 235.092C212.556 235.171 212.654 235.252 212.742 235.337C212.928 235.504 213.089 235.684 213.244 235.867C213.848 236.607 214.214 237.408 214.458 238.175C214.934 239.719 214.993 241.182 214.929 242.59C214.856 244 214.625 245.36 214.293 246.683C213.594 249.328 212.534 251.788 211.064 254.133C210.183 255.487 209.058 256.466 207.906 257.289C206.748 258.103 205.529 258.745 204.296 259.292C199.338 261.436 194.104 262.202 188.921 262.324C183.734 262.425 178.553 261.784 173.563 260.421C171.072 259.748 168.612 258.875 166.335 257.6C164.076 256.322 161.937 254.696 160.436 252.563Z" fill="black"/>
<path d="M206.757 243.022C207.331 242.095 208.266 241.345 209.295 240.796C210.334 240.247 211.487 239.874 212.712 239.689L212.546 242.685C211.666 242.386 210.695 242.223 209.704 242.242C208.714 242.264 207.686 242.457 206.757 243.022Z" fill="black"/>
<path d="M239.054 141.995C243.629 142.905 238.825 173.14 234.18 174.981C227.214 177.74 211.435 174.102 206.646 167.491C201.948 161.009 216.886 153.447 224.251 149.205C233.14 144.078 235.101 141.211 239.054 141.995Z" fill="#FFBE31"/>
<path d="M234.179 174.981C234.853 174.468 235.148 173.698 235.46 172.964C235.756 172.217 235.988 171.442 236.212 170.663C236.654 169.104 237.011 167.517 237.383 165.931C238.11 162.752 238.688 159.522 239.051 156.276C239.405 153.041 239.621 149.748 239.405 146.621C239.343 145.85 239.24 145.086 239.063 144.419C238.979 144.09 238.866 143.785 238.756 143.582C238.645 143.363 238.531 143.35 238.704 143.439C238.74 143.445 238.708 143.448 238.798 143.46L238.646 143.436C238.547 143.422 238.423 143.4 238.37 143.399C238.242 143.383 238.087 143.376 237.931 143.371C237.623 143.365 237.328 143.396 237.03 143.46C236.43 143.588 235.803 143.862 235.144 144.219C233.821 144.932 232.444 145.884 231.051 146.788C229.658 147.705 228.237 148.609 226.796 149.477C223.907 151.233 220.948 152.709 218.131 154.376C215.303 156.018 212.565 157.806 210.16 159.835C208.96 160.842 207.821 161.909 207.042 163.147C206.641 163.762 206.379 164.426 206.281 165.16C206.191 165.892 206.331 166.691 206.645 167.491C205.989 166.951 205.452 166.168 205.246 165.239C205.017 164.312 205.157 163.316 205.438 162.425C206.06 160.637 207.213 159.209 208.427 157.963C209.661 156.721 211.032 155.683 212.415 154.694C213.802 153.709 215.221 152.795 216.648 151.912C219.51 150.15 222.422 148.525 225.215 146.858C226.614 146.014 227.99 145.134 229.367 144.225C230.754 143.324 232.103 142.373 233.696 141.504C234.493 141.075 235.408 140.689 236.44 140.488C236.951 140.391 237.488 140.348 238.011 140.368C238.268 140.382 238.527 140.401 238.809 140.442C238.961 140.462 239.04 140.48 239.148 140.501L239.302 140.528C239.491 140.566 239.564 140.587 239.694 140.634C240.665 141.006 241.09 141.704 241.361 142.209C241.632 142.741 241.778 143.231 241.894 143.706C242.117 144.651 242.207 145.541 242.26 146.42C242.445 149.923 242.06 153.271 241.578 156.608C241.06 159.937 240.412 163.238 239.456 166.475C238.979 168.095 238.37 169.687 237.595 171.212C237.203 171.976 236.758 172.717 236.223 173.406C235.692 174.068 235.046 174.797 234.179 174.981Z" fill="black"/>
<path d="M58.9866 222.253C57.1046 199.819 72.5075 180.811 99.8435 180.404C127.696 179.988 134.075 192.26 167.905 197.186C186.343 199.871 194.626 209.886 193.563 222.078C191.5 245.719 154.711 260.884 125.849 263.182C100.574 265.196 61.9516 257.589 58.9866 222.253Z" fill="#FFBE31"/>
<path d="M167.902 197.185C186.34 199.873 194.619 209.883 193.557 222.081C191.503 245.719 154.716 260.882 125.845 263.183C100.573 265.198 61.9504 257.589 58.9864 222.255C57.7214 207.105 64.3244 193.522 77.1634 186.163C68.8294 199.726 73.4792 220.094 97.6502 223.958C133.312 229.66 163.086 212.36 148.386 192.885C153.845 194.542 160.152 196.058 167.902 197.185Z" fill="#FFBE31"/>
<path d="M193.452 217.134C193.671 218.733 193.707 220.385 193.557 222.084C191.502 245.722 154.717 260.884 125.844 263.186C109.004 264.531 86.2276 261.596 72.0396 249.032C83.7936 254.175 102.139 259.253 130.872 255.562C169.548 250.6 171.899 228.603 179.908 218.611C186.647 210.208 191.725 212.703 193.452 217.134Z" fill="#E6E1B8"/>
<path d="M56.7872 222.448L56.7843 222.411C56.1093 214.882 57.3133 206.934 60.8463 200.031C62.5963 196.579 64.8854 193.393 67.6034 190.635C70.3144 187.865 73.4863 185.578 76.8693 183.755C83.6703 180.11 91.3203 178.477 98.8383 178.295C106.281 178.115 113.837 178.9 121.034 180.993C128.245 183.049 134.895 186.141 141.636 188.619C148.367 191.146 155.261 193.11 162.318 194.46C164.082 194.803 165.852 195.107 167.629 195.382L168.983 195.595L170.379 195.844C171.299 196.021 172.219 196.215 173.133 196.443C176.782 197.347 180.39 198.655 183.702 200.623C187.001 202.58 190.003 205.255 192.075 208.621C194.174 211.964 195.221 215.931 195.228 219.814C195.26 223.67 194.348 227.585 192.72 231.044C191.095 234.53 188.817 237.636 186.225 240.361C181 245.815 174.654 249.879 168.072 253.215C161.457 256.526 154.498 259.055 147.392 260.981C140.278 262.883 133.014 264.246 125.647 264.857C118.267 265.448 110.836 265.221 103.495 264.166C96.1663 263.095 88.8874 261.165 82.0914 257.923C75.3214 254.7 69.0234 250.015 64.5014 243.773C62.2404 240.673 60.4433 237.226 59.1683 233.611C57.8933 229.996 57.1292 226.225 56.7872 222.448ZM61.1884 222.083C61.6984 229.002 63.8534 235.762 67.8544 241.362C71.8204 246.995 77.4784 251.366 83.7704 254.464C90.0804 257.577 96.9955 259.524 104.028 260.645C111.07 261.754 118.27 262.047 125.394 261.561C132.532 261.046 139.647 259.832 146.582 257.978C153.519 256.124 160.307 253.683 166.714 250.503C173.102 247.326 179.166 243.366 184.001 238.262C186.404 235.714 188.464 232.863 189.9 229.741C191.343 226.611 192.11 223.267 192.074 219.843C192.049 216.46 191.143 213.135 189.36 210.312C187.585 207.477 184.979 205.191 182.019 203.476C179.052 201.752 175.736 200.579 172.327 199.777C171.473 199.574 170.611 199.4 169.746 199.244L168.453 199.028L167.112 198.832C165.291 198.57 163.474 198.277 161.662 197.947C154.416 196.644 147.249 194.685 140.333 192.177C133.402 189.704 126.771 186.727 119.949 184.871C113.141 182.974 106.054 182.315 98.9684 182.56C91.9774 182.806 85.0344 184.404 79.0184 187.716C73.0134 191.013 68.0154 196.023 64.9464 202.111C61.8544 208.193 60.6294 215.145 61.1884 222.083Z" fill="black"/>
<path d="M211.384 154.05C229.363 154.902 247.492 166.238 256.342 182.615C264.32 197.377 260.038 219.121 257.28 224.867C254.52 230.613 265.814 228.852 266.018 232.631C266.261 237.131 260.248 244.872 255.5 244.365C249.512 243.725 248.245 232.584 237.748 242.925C233.401 247.209 238.694 252.651 245.735 253.6C249.059 254.048 247.387 256.997 242.979 258.346C233.225 261.332 192.173 258.255 172.51 236.242C151.046 212.211 158.672 187.839 167.104 173.734C174.121 161.996 189.636 153.018 211.384 154.05Z" fill="#FFBE31"/>
<path d="M237.801 162.899C223.836 159.688 195.253 163.047 191.047 198.325C188.55 219.253 194.71 233.596 203.902 243.254C205.119 248.915 209.666 254.469 219.583 258.216C203.784 255.875 184.317 249.489 172.518 236.312C151.036 212.295 158.644 187.921 167.064 173.807C174.073 162.062 189.582 153.074 211.33 154.09C220.527 154.515 229.775 157.703 237.801 162.899Z" fill="#FFBE31"/>
<path d="M232.102 259.315C228.422 259.242 224.15 258.9 219.582 258.215C209.665 254.468 205.118 248.914 203.901 243.253C212.197 251.97 222.972 256.869 232.102 259.315Z" fill="#E6E1B8"/>
<path d="M266.018 232.631C265.831 229.231 256.691 230.315 256.857 226.386C256.854 226.379 256.851 226.376 256.849 226.37H256.852C256.873 225.934 257.005 225.441 257.277 224.872C259.521 220.185 262.77 204.877 259.571 191.383C257.292 191.032 254.692 189.62 251.145 186.689C245.398 181.934 230.666 172.754 221.392 189.417C217.638 196.164 219.13 206.194 219.874 213.666C220.371 218.667 219.219 219.845 213.617 222.911C203.472 228.453 194.957 248.918 219.573 258.216C224.618 258.969 229.268 259.3 233.197 259.32C233.188 259.309 233.177 259.298 233.168 259.287C233.181 259.295 233.194 259.304 233.208 259.312C237.518 259.33 240.938 258.973 242.979 258.347C247.391 256.993 249.052 254.104 245.735 253.601C238.963 252.576 233.242 247.54 237.748 242.926C247.923 232.508 249.51 243.726 255.5 244.366C260.249 244.873 266.262 237.131 266.018 232.631Z" fill="#FFFBD9"/>
<path d="M261.679 238.204C261.773 235.875 261.345 234.045 260.189 231.792C259.64 230.721 259.701 229.77 260.413 229.452C262.941 230.218 265.911 230.711 266.018 232.632C266.144 234.892 264.679 237.97 262.594 240.405C262.016 240.334 261.618 239.493 261.679 238.204Z" fill="black"/>
<path d="M267.339 232.227C267.257 231.665 266.987 231.117 266.651 230.719C266.318 230.318 265.948 230.04 265.597 229.82C264.887 229.388 264.216 229.145 263.571 228.924C262.288 228.502 261.064 228.219 260.002 227.82C259.481 227.627 258.996 227.396 258.689 227.158C258.373 226.902 258.32 226.769 258.296 226.581C258.276 226.366 258.351 226 258.586 225.516C258.862 224.952 259.144 224.272 259.363 223.66C260.26 221.157 260.857 218.644 261.345 216.104C261.824 213.564 262.16 211.003 262.363 208.428C262.756 203.282 262.634 198.061 261.693 192.904C261.217 190.329 260.535 187.771 259.569 185.297C259.328 184.678 259.07 184.065 258.793 183.457C258.661 183.155 258.502 182.838 258.355 182.531L257.91 181.659C257.296 180.503 256.639 179.369 255.94 178.263C250.336 169.407 242.219 162.246 232.862 157.539C228.171 155.201 223.157 153.47 217.965 152.514C215.391 152.029 212.693 151.757 210.103 151.681C207.5 151.589 204.883 151.636 202.271 151.84C197.052 152.262 191.85 153.343 186.885 155.185C181.925 157.021 177.22 159.679 173.15 163.159C171.117 164.897 169.245 166.84 167.602 168.972C166.784 170.038 166.011 171.158 165.321 172.307C164.641 173.453 164.029 174.583 163.432 175.749C162.244 178.072 161.186 180.462 160.28 182.913C159.406 185.376 158.69 187.897 158.153 190.455C157.598 193.011 157.301 195.619 157.18 198.225C157.049 200.83 157.174 203.446 157.521 206.019C158.201 211.165 159.837 216.142 162.322 220.569C160.832 215.716 159.979 210.765 159.907 205.837C159.872 203.374 160.036 200.923 160.344 198.499C160.659 196.074 161.193 193.689 161.819 191.334C162.456 188.981 163.266 186.675 164.206 184.428C165.119 182.167 166.172 179.962 167.347 177.82C167.929 176.757 168.559 175.687 169.19 174.674C169.811 173.667 170.483 172.711 171.212 171.782C172.669 169.927 174.336 168.231 176.156 166.708C179.799 163.655 184.044 161.316 188.543 159.638C193.049 157.955 197.831 156.985 202.67 156.557C205.089 156.338 207.529 156.266 209.973 156.321C212.431 156.366 214.775 156.578 217.17 156.991C221.923 157.807 226.567 159.344 230.941 161.456C239.68 165.672 247.421 172.171 252.79 180.298C258.401 188.248 259.728 198.407 259.163 208.21C258.842 213.112 258.095 218.097 256.583 222.674C256.383 223.253 256.191 223.745 255.926 224.32C255.636 224.97 255.31 225.857 255.425 226.907C255.484 227.431 255.679 227.979 255.974 228.414C256.264 228.859 256.623 229.191 256.975 229.453C257.684 229.972 258.375 230.244 259.034 230.487C260.348 230.948 261.596 231.213 262.715 231.569C263.268 231.741 263.788 231.941 264.162 232.165C264.553 232.405 264.647 232.566 264.657 232.659C264.693 232.969 264.658 233.529 264.548 234.037C264.438 234.557 264.268 235.087 264.055 235.613C263.626 236.663 263.038 237.684 262.355 238.632C260.996 240.502 259.191 242.231 257.222 242.929C255.796 243.414 255.125 243.205 253.856 242.563C251.572 241.406 248.853 236.075 244.039 237.32C238.849 238.664 234.476 243.091 234.678 246.373C234.873 249.543 236.422 251.244 239.658 252.964C242.438 254.443 246.097 254.785 245.15 255.751C244.296 256.619 242.432 256.957 241.574 257.129C240.671 257.315 239.716 257.438 238.753 257.524C236.819 257.699 234.845 257.752 232.866 257.724C228.908 257.665 224.935 257.301 220.989 256.78C217.041 256.249 213.122 255.492 209.255 254.538C205.384 253.599 201.567 252.445 197.843 251.045C190.398 248.194 183.386 244.59 176.506 240.214C179.091 243.402 182.324 246.03 185.773 248.266C189.228 250.515 192.975 252.261 196.791 253.775C204.433 256.8 212.435 258.812 220.552 259.949C224.613 260.526 228.709 260.854 232.835 260.893C234.898 260.904 236.97 260.852 239.062 260.634C240.107 260.52 241.157 260.371 242.23 260.128C243.348 259.876 244.345 259.53 245.384 259.081C245.9 258.854 246.418 258.59 246.944 258.243C247.46 257.88 248.029 257.48 248.501 256.636C248.729 256.219 249.529 254.519 248.455 253.327C246.706 251.382 240.187 252.641 237.952 247.232C236.78 244.396 241.438 240.961 244.323 240.174C247.722 239.249 249.138 242.618 252.603 244.806C253.172 245.165 254.03 245.332 254.646 245.49C254.994 245.578 255.235 245.584 255.692 245.615C256.505 245.657 257.289 245.518 258.001 245.291C259.429 244.822 260.616 244.032 261.672 243.151C262.725 242.263 263.644 241.259 264.454 240.174C265.261 239.084 265.966 237.916 266.512 236.636C266.784 235.995 267.015 235.326 267.176 234.612C267.322 233.883 267.441 233.174 267.339 232.227Z" fill="black"/>
<path d="M264.889 232.461C264.769 232.929 264.059 233.149 263.306 232.955C262.55 232.762 262.036 232.225 262.158 231.757C262.278 231.287 262.988 231.067 263.74 231.261C264.496 231.455 265.011 231.993 264.889 232.461Z" fill="white"/>
<ellipse cx="230.983" cy="228.329" rx="10.6338" ry="6.0799" transform="rotate(19.0853 230.983 228.329)" fill="#FF9365"/>
<path d="M227.469 199.433C232.584 197.989 243.248 199.316 247.104 208.725C250.088 216.01 247.171 225.974 245.462 229.817C242.549 224.413 232.835 216.626 221.483 219.213C225.912 213.779 238.97 210.947 244.599 223.449C244.507 208.608 237.352 202.725 227.469 199.433Z" fill="black"/>
<path d="M214.448 133.161C219.359 138.728 219.522 168.566 216.452 173.114C213.691 177.199 206.235 180.239 198.159 181.236C191.634 182.04 172.345 181.891 170.385 172.733C169.03 166.384 180.315 154.498 196.855 142.078C207.632 133.985 211.603 129.936 214.448 133.161Z" fill="#FFBE31"/>
<path d="M210.115 142.325C203.655 147.416 193.548 157.568 188.404 169.019C185.105 176.362 192.603 175.293 199.403 174.718C206.203 174.142 211.352 170.54 212.508 168.108C213.663 165.676 213.452 139.694 210.115 142.325Z" fill="#FF9365"/>
<path d="M171.064 175.94C170.193 174.962 169.548 173.741 169.301 172.37C169.062 170.931 169.306 169.584 169.693 168.342C170.476 165.854 171.815 163.733 173.221 161.723C174.656 159.73 176.241 157.886 177.876 156.105C179.516 154.325 181.223 152.622 182.963 150.962C184.722 149.323 186.526 147.736 188.353 146.186C191.981 143.046 195.86 140.215 199.564 137.327C201.436 135.872 203.306 134.417 205.305 132.99C206.314 132.282 207.346 131.578 208.564 130.94C209.179 130.627 209.845 130.323 210.656 130.106C211.447 129.894 212.481 129.776 213.547 130.083C214.615 130.381 215.46 131.055 216.018 131.686L216.159 131.85L216.228 131.936L216.377 132.126C216.509 132.307 216.671 132.529 216.762 132.684C216.97 133.013 217.148 133.339 217.304 133.66C217.929 134.943 218.304 136.178 218.634 137.41C219.275 139.862 219.585 142.292 219.845 144.712C220.275 149.557 220.252 154.374 219.908 159.173C219.721 161.571 219.436 163.966 218.953 166.336C218.724 167.521 218.429 168.698 218.056 169.858C217.645 170.99 217.261 172.196 216.453 173.116C216.893 172.006 216.991 170.833 217.076 169.664C217.158 168.496 217.177 167.323 217.193 166.15C217.2 163.804 217.144 161.461 217.053 159.12C216.862 154.441 216.471 149.764 215.81 145.189C215.505 142.903 215.076 140.638 214.512 138.506C214.223 137.45 213.881 136.412 213.455 135.57C213.053 134.704 212.502 134.216 212.364 134.228C212.285 134.202 212.092 134.186 211.745 134.278C211.408 134.364 210.98 134.545 210.545 134.77C209.657 135.23 208.721 135.854 207.793 136.51C205.93 137.832 204.066 139.298 202.172 140.725C198.361 143.615 194.578 146.375 190.918 149.301C189.084 150.762 187.281 152.257 185.523 153.794C183.75 155.316 182.016 156.88 180.357 158.507C178.697 160.13 177.116 161.823 175.667 163.594C174.219 165.353 172.89 167.221 172.009 169.185C171.59 170.161 170.508 172.422 171.064 175.94Z" fill="black"/>
<path d="M93.6425 240.963C90.1965 234.236 77.8945 229.609 66.9135 234.505C51.7885 241.248 41.9195 238.949 34.2565 237.601C26.5925 236.251 15.6535 255.927 19.0695 259.053C22.2675 261.979 26.7365 259.341 28.9545 260.139C50.2755 267.834 69.4073 268.077 83.9513 261.919C95.2473 257.135 96.7615 247.05 93.6425 240.963Z" fill="#FFBE31"/>
<path d="M93.6377 240.965C96.7577 247.045 95.2458 257.131 83.9478 261.92C69.4038 268.077 50.2778 267.841 28.9558 260.143C26.7338 259.342 22.2636 261.982 19.0676 259.052C15.6556 255.927 26.5947 236.253 34.2527 237.603C38.7807 238.398 44.0847 239.525 50.7747 238.921C41.9357 246.212 52.1806 258.65 71.2976 257.704C87.1646 256.925 94.6956 247.514 93.4836 240.684C93.5356 240.779 93.5877 240.872 93.6377 240.965Z" fill="#FFBE31"/>
<path d="M39.4778 246.218C39.7958 248.28 38.8197 251.278 36.5427 253.846C33.9177 256.79 34.7928 260.316 37.6538 262.902C34.7988 262.125 31.8978 261.206 28.9548 260.143C26.7328 259.342 22.2627 261.982 19.0667 259.052C15.6547 255.927 26.5937 236.253 34.2517 237.603C36.6207 238.022 39.2098 238.531 42.1038 238.822C39.9578 241.003 39.0538 243.472 39.4778 246.218Z" fill="#FFFBD9"/>
<path d="M25.3184 254.221C24.4954 254.936 23.3804 255.376 22.2354 255.595C21.0804 255.813 19.8695 255.827 18.6445 255.642L19.6904 252.831C20.4434 253.374 21.3214 253.818 22.2734 254.095C23.2244 254.364 24.2644 254.486 25.3184 254.221Z" fill="black"/>
<path d="M87.1226 234.949C80.6286 232.913 73.8806 233.146 68.0706 235.664C61.9376 238.538 55.0224 240.604 47.9954 240.788C44.4854 240.906 40.9716 240.559 37.5826 240.01L35.0645 239.59L33.8966 239.397C33.8126 239.388 33.6456 239.36 33.6256 239.37L33.4996 239.369C33.3696 239.374 33.2376 239.38 33.1016 239.399C31.9986 239.532 30.6985 240.276 29.5455 241.219C27.2095 243.141 25.2216 245.77 23.5836 248.509C22.7666 249.89 22.0396 251.323 21.4476 252.779C20.8706 254.211 20.3915 255.77 20.3575 256.988C20.3485 257.276 20.3825 257.531 20.4205 257.642C20.4375 257.703 20.4506 257.713 20.4376 257.691C20.4556 257.698 20.2646 257.521 20.5216 257.746C20.9116 258.07 21.3876 258.301 21.9356 258.422C23.0596 258.688 24.5215 258.445 26.2935 258.185C26.7465 258.128 27.2256 258.07 27.7906 258.064C28.0746 258.066 28.3696 258.071 28.7076 258.123C28.8696 258.14 29.0575 258.184 29.2305 258.225C29.4205 258.28 29.6235 258.345 29.6885 258.37C30.4795 258.647 31.2885 258.946 32.0645 259.205C33.6195 259.733 35.2106 260.24 36.8006 260.701C43.1696 262.565 49.7076 263.81 56.2916 264.307C62.8666 264.789 69.5165 264.428 75.8985 262.903C77.4915 262.519 79.0665 262.069 80.6165 261.54C82.1565 260.996 83.7056 260.4 85.1126 259.738C87.9866 258.392 90.6095 256.688 93.1275 254.255C92.2885 257.714 89.5794 260.585 86.4854 262.354C84.9024 263.266 83.2856 263.868 81.6566 264.485C80.0206 265.078 78.3576 265.586 76.6746 266.022C69.9416 267.762 62.9495 268.261 56.0635 267.879C49.1635 267.517 42.3594 266.208 35.7554 264.335C34.1004 263.866 32.4696 263.36 30.8236 262.812L28.4175 261.986C28.2835 261.938 28.2816 261.946 28.2716 261.94C28.2396 261.936 28.2214 261.924 28.1724 261.923C28.0934 261.909 27.9664 261.904 27.8284 261.905C27.5494 261.908 27.1865 261.95 26.8035 262.002C25.2575 262.206 23.3176 262.674 21.1026 262.213C19.9986 261.986 18.9086 261.465 18.0096 260.697C17.9466 260.65 17.4215 260.203 17.2195 259.844C16.9725 259.47 16.8124 259.09 16.7134 258.744C16.5154 258.046 16.4905 257.446 16.5025 256.894C16.6145 254.723 17.2444 253.029 17.9124 251.337C18.6024 249.669 19.4206 248.092 20.3336 246.571C22.1836 243.552 24.3205 240.695 27.2195 238.328C28.6855 237.186 30.3715 236.064 32.6505 235.755C32.9305 235.719 33.2215 235.708 33.5145 235.706L34.0196 235.733C34.2116 235.747 34.2525 235.762 34.3765 235.776L34.7664 235.841L35.0797 235.9L35.7056 236.018L38.1737 236.472C41.4407 237.059 44.6726 237.432 47.9166 237.379C51.1576 237.338 54.3906 236.894 57.5596 236.106C59.1456 235.712 60.7115 235.237 62.2615 234.692C63.0355 234.421 63.8044 234.128 64.5684 233.821L66.9056 232.856C73.5686 230.168 81.5496 230.88 87.1226 234.949Z" fill="black"/>
<path d="M206.535 243.619C209.598 245.873 208.404 254.844 204.385 261.117C200.365 267.388 178.131 267.971 161.724 262.301C145.319 256.631 144.144 248.211 145.453 242.272C147.142 234.674 154.354 231.153 163.259 232.298C174.848 233.777 196.079 246.194 198.286 245.274C199.59 244.73 204.331 241.986 206.535 243.619Z" fill="#FFBE31"/>
<path d="M198.285 245.273C199.59 244.73 204.331 241.986 206.535 243.619C209.598 245.873 208.404 254.844 204.385 261.117C200.365 267.388 178.131 267.971 161.724 262.301C145.319 256.631 144.144 248.211 145.453 242.272C145.683 241.209 146.035 240.229 146.479 239.332C146.53 245.593 155.874 252.528 165.956 255.306C176.738 258.273 192.016 250.661 188.544 241.802C190.29 242.498 197.842 245.458 198.285 245.273Z" fill="#FFBE31"/>
<path d="M198.285 245.273C199.59 244.73 204.331 241.986 206.535 243.619C209.598 245.873 208.404 254.844 204.385 261.117C202.269 264.42 195.116 266.137 186.427 266.205C189.769 263.711 191.074 260.851 190.222 257.668C189.707 255.789 189.888 252.988 192.41 250.566C194.865 248.201 193.774 245.072 191.058 242.786C193.929 243.902 197.959 245.41 198.285 245.273Z" fill="#FFFBD9"/>
<path d="M148.963 254.982C151.366 256.539 153.795 257.724 156.32 258.746C158.834 259.771 161.405 260.666 164.018 261.461C169.257 263.008 174.71 263.91 180.174 264.279C185.619 264.617 191.174 264.49 196.334 263.336C197.613 263.037 198.855 262.652 199.976 262.15C201.085 261.656 202.093 260.998 202.62 260.296C202.692 260.202 202.73 260.142 202.811 260.019L203.066 259.601C203.226 259.331 203.387 259.048 203.537 258.765C203.841 258.199 204.122 257.617 204.378 257.021C204.893 255.83 205.316 254.597 205.637 253.345C205.952 252.093 206.175 250.822 206.264 249.581C206.349 248.354 206.281 247.106 205.972 246.181C205.824 245.724 205.61 245.388 205.442 245.243L205.381 245.19C205.555 245.311 205.413 245.213 205.444 245.236L205.419 245.217L205.364 245.182L205.258 245.112C205.268 245.132 205.293 245.145 205.304 245.145C205.282 245.14 205.263 245.13 205.241 245.122C205.142 245.087 204.983 245.058 204.779 245.056C203.928 245.04 202.687 245.419 201.523 245.916C200.926 246.165 200.337 246.444 199.693 246.753L199.159 246.999L199.079 247.032L199.039 247.05L198.813 247.129L198.749 247.146L198.563 247.191C198.397 247.226 198.132 247.252 198.044 247.248L197.76 247.242C197.109 247.189 196.725 247.069 196.313 246.956C194.77 246.484 193.494 245.918 192.173 245.352C189.565 244.22 187.056 242.993 184.522 241.823C179.468 239.478 174.403 237.173 169.222 235.446C167.929 235.02 166.627 234.635 165.331 234.335C164.681 234.183 164.032 234.054 163.391 233.952L162.919 233.876L162.4 233.804L161.44 233.677C158.814 233.348 156.234 233.195 153.281 233.261C155.566 231.313 158.682 230.579 161.631 230.598C161.997 230.599 162.386 230.612 162.763 230.638L163.286 230.685L163.854 230.746C164.596 230.849 165.324 230.98 166.041 231.131C167.476 231.436 168.869 231.819 170.241 232.24C175.721 233.949 180.906 236.197 186.049 238.457L193.697 241.84C194.946 242.373 196.246 242.92 197.383 243.258C197.646 243.336 197.941 243.394 197.987 243.392C197.98 243.391 197.973 243.391 197.966 243.392C197.966 243.392 197.788 243.4 197.709 243.429L197.635 243.453C197.615 243.46 197.648 243.449 197.653 243.449L197.715 243.43C197.64 243.457 197.932 243.355 197.551 243.491L197.572 243.48L197.613 243.462L198.032 243.267C198.646 242.971 199.321 242.644 200.014 242.35C201.418 241.781 202.874 241.187 204.84 241.163C205.335 241.169 205.876 241.231 206.445 241.415L206.871 241.575C207.04 241.651 207.222 241.747 207.387 241.845L207.701 242.052C207.818 242.144 207.939 242.233 208.047 242.332C208.928 243.126 209.388 244.071 209.687 244.933C210.252 246.676 210.279 248.285 210.196 249.839C210.1 251.39 209.826 252.886 209.433 254.339C209.043 255.796 208.539 257.21 207.928 258.583C207.622 259.269 207.287 259.944 206.923 260.606C206.742 260.938 206.553 261.26 206.352 261.59L206.056 262.063C205.946 262.235 205.787 262.465 205.643 262.647C204.425 264.157 202.935 264.963 201.511 265.606C200.068 266.231 198.616 266.649 197.169 266.973C191.373 268.217 185.604 268.159 179.91 267.686C174.22 267.168 168.585 266.102 163.124 264.354C160.395 263.489 157.715 262.393 155.234 260.887C152.781 259.375 150.45 257.462 148.963 254.982Z" fill="black"/>
<path d="M201.631 250.07C202.272 249.187 203.256 248.507 204.323 248.033C205.396 247.56 206.574 247.269 207.809 247.173L207.427 250.149C206.571 249.79 205.614 249.555 204.623 249.504C203.637 249.457 202.598 249.576 201.631 250.07Z" fill="black"/>
</svg>
