<svg width="280" height="280" viewBox="0 0 280 280" fill="none" xmlns="http://www.w3.org/2000/svg">
<path d="M21.4014 149.994C21.7284 150.294 22.1315 150.814 22.6826 151.566C23.2402 152.327 23.9288 153.292 24.6807 154.046C25.4077 154.776 26.4708 155.598 27.835 155.598C33.5426 155.598 38.1699 160.225 38.1699 165.933C38.1697 171.641 33.5424 176.267 27.835 176.267C22.1274 176.267 17.5002 171.641 17.5 165.933C17.5 164.327 18.0067 160.673 18.8438 157.103C19.2586 155.334 19.7419 153.641 20.2598 152.279C20.5187 151.598 20.7769 151.025 21.0264 150.578C21.1689 150.322 21.2959 150.131 21.4014 149.994Z" fill="#FFBE31" stroke="black" stroke-width="3"/>
<path d="M52.9093 205.959C47.9973 211.701 48.5603 220.02 55.6983 229.693C62.7923 239.308 61.4423 243.578 62.7003 251.257C63.9563 258.937 85.4343 262.021 87.2574 257.765C88.9624 253.782 85.0073 250.433 85.0193 248.075C85.1113 229.728 82.4943 217.331 75.5723 208.154C69.3723 199.934 58.8013 199.068 52.9093 205.959Z" fill="#FFBE31"/>
<path d="M76.2388 243.564C80.0158 245.289 83.2718 243.128 84.8268 239.266C84.9748 242.042 85.0357 244.969 85.0157 248.079C85.0097 250.432 88.9649 253.78 87.2559 257.769C85.4339 262.025 63.9588 258.94 62.7008 251.255C62.2028 248.26 62.1108 245.779 61.7578 243.304C63.9318 244.072 66.0528 243.977 68.0798 242.994C69.9688 242.089 73.1078 242.134 76.2388 243.564Z" fill="#E6E1B8"/>
<path d="M80.541 253.555C81.529 254.018 82.3831 254.857 83.0491 255.816C83.7171 256.783 84.223 257.884 84.551 259.079L81.5551 259.264C81.7481 258.357 81.7971 257.372 81.6621 256.39C81.5241 255.411 81.211 254.413 80.541 253.555Z" fill="black"/>
<path d="M50.0371 211.593C49.8671 214.434 50.4369 217.119 51.4219 219.625C52.4039 222.134 53.764 224.478 55.301 226.711C56.061 227.847 56.885 228.868 57.746 230.076C58.584 231.249 59.379 232.466 60.101 233.743C61.558 236.277 62.66 239.151 63.171 242.076C63.696 245.002 63.8169 247.788 64.2709 250.447L64.3551 250.947C64.3611 250.951 64.427 251.322 64.447 251.323C64.48 251.446 64.597 251.719 64.703 251.911C64.935 252.33 65.267 252.746 65.68 253.135C66.498 253.915 67.575 254.587 68.721 255.146C71.032 256.262 73.637 256.989 76.252 257.433C78.852 257.855 81.6151 258.041 83.9591 257.602C84.5251 257.494 85.055 257.314 85.359 257.132C85.509 257.046 85.574 256.964 85.552 256.983C85.554 256.988 85.544 256.997 85.534 257.012L85.5321 257.024C85.5361 257.017 85.483 257.144 85.513 257.076L85.523 257.044L85.57 256.921C85.597 256.849 85.644 256.736 85.654 256.698L85.687 256.58C85.927 255.757 85.804 254.804 85.3489 253.705C84.9109 252.578 84.16 251.512 83.505 249.842C83.351 249.409 83.2 248.904 83.169 248.266L83.165 247.133L83.159 245.053C83.096 239.513 82.7641 233.983 81.9071 228.578C81.0321 223.182 79.524 217.9 76.936 213.179C74.254 208.364 71.09 204.553 66.022 201.699C68.965 201.517 71.956 202.737 74.286 204.644C74.878 205.126 75.415 205.633 75.946 206.212C76.221 206.513 76.442 206.783 76.663 207.05C76.927 207.368 77.116 207.64 77.343 207.94C78.206 209.12 79.001 210.348 79.726 211.616C82.642 216.7 84.351 222.338 85.382 227.976C86.429 233.633 86.757 239.339 86.851 245.011L86.867 247.136L86.875 248.107C86.875 248.17 86.91 248.352 86.994 248.576C87.349 249.527 88.189 250.807 88.801 252.287C89.432 253.752 89.85 255.72 89.293 257.621L89.1719 258.005C89.1289 258.135 89.106 258.182 89.07 258.275L89.023 258.396L88.9641 258.537L88.901 258.667C88.815 258.842 88.719 259.002 88.614 259.147C88.188 259.738 87.688 260.101 87.233 260.365C86.313 260.876 85.475 261.087 84.669 261.246C83.06 261.544 81.548 261.559 80.05 261.499C78.556 261.43 77.0891 261.253 75.6361 260.993C72.7381 260.463 69.8881 259.649 67.1571 258.297C65.8001 257.603 64.452 256.79 63.263 255.605C62.667 255.018 62.117 254.325 61.691 253.505C61.476 253.073 61.308 252.701 61.164 252.145C61.076 251.812 61.0961 251.835 61.0271 251.494L60.949 250.955C60.531 248.072 60.4649 245.23 60.0469 242.622C59.6469 240.006 58.7679 237.547 57.4899 235.186C56.8589 234.006 56.144 232.854 55.379 231.73C54.633 230.639 53.738 229.441 52.998 228.205C51.494 225.732 50.258 223.04 49.607 220.177C48.967 217.329 48.9501 214.245 50.0371 211.593Z" fill="black"/>
<path d="M124.313 206.845C119.192 203.561 110.672 205.528 102.809 216.882C92.9198 231.154 91.6328 248.927 96.5318 254.545C101.43 260.164 108.788 263.307 111.811 261.001C113.995 259.334 112.69 254.026 112.532 252.619C112.264 250.233 120.651 240.373 127.88 228.467C133.149 219.788 131.87 211.689 124.313 206.845Z" fill="#FFBE31"/>
<path d="M111.809 261.001C108.788 263.309 101.432 260.169 96.5329 254.55C93.7459 251.354 92.9609 244.235 94.6169 236.058C96.3669 239.712 98.8529 241.524 102.096 241.348C104.039 241.248 106.895 242.01 108.588 244.966C110.326 248.002 113.817 247.451 116.701 245.108C114.121 248.843 112.398 251.524 112.531 252.621C112.686 254.021 113.995 259.33 111.809 261.001Z" fill="#E6E1B8"/>
<path d="M111.717 207.852C108.203 211.593 105.438 215.453 102.811 219.595C100.28 223.763 98.3518 228.299 97.1038 232.994C96.4788 235.339 96.0299 237.729 95.7909 240.121C95.5509 242.509 95.4939 244.914 95.7789 247.222C96.0539 249.494 96.7089 251.802 97.8999 253.217C99.3819 254.916 101.218 256.469 103.17 257.656C104.147 258.26 105.164 258.786 106.193 259.176C107.216 259.567 108.273 259.821 109.177 259.825C109.626 259.829 110.019 259.761 110.302 259.65C110.37 259.621 110.437 259.594 110.491 259.559L110.575 259.51L110.612 259.483L110.63 259.471C110.597 259.496 110.718 259.401 110.558 259.53L110.581 259.511L110.747 259.367C110.727 259.374 110.714 259.385 110.704 259.402C110.724 259.373 110.753 259.338 110.782 259.288C111.052 258.882 111.192 257.765 111.126 256.692C111.075 255.567 110.886 254.468 110.673 253.137C110.657 252.936 110.603 252.845 110.628 252.261C110.659 251.882 110.722 251.646 110.79 251.403C110.925 250.947 111.081 250.589 111.239 250.25C111.559 249.58 111.889 248.993 112.241 248.426C113.637 246.188 115.118 244.164 116.579 242.108C119.513 238.025 122.415 233.97 125.112 229.79C125.792 228.73 126.444 227.711 127.071 226.663C127.661 225.681 128.229 224.62 128.737 223.566C129.762 221.43 130.516 219.204 130.964 216.62C132.048 219.035 131.989 221.908 131.308 224.486C130.968 225.794 130.474 227.021 129.853 228.237C129.259 229.384 128.56 230.482 127.912 231.553C125.254 235.874 122.394 240.054 119.555 244.192C118.149 246.258 116.709 248.331 115.492 250.381C115.195 250.89 114.906 251.397 114.689 251.863C114.584 252.091 114.496 252.313 114.455 252.46C114.435 252.52 114.43 252.592 114.435 252.525C114.425 252.254 114.427 252.476 114.453 252.587C114.641 253.734 114.889 255.114 114.959 256.502C114.996 257.206 114.996 257.934 114.9 258.717C114.8 259.492 114.619 260.349 114.107 261.243C113.978 261.466 113.824 261.683 113.644 261.9C113.531 262.03 113.408 262.157 113.283 262.277L113.092 262.444L112.949 262.557L112.873 262.613L112.719 262.722C112.614 262.789 112.508 262.859 112.399 262.917C112.186 263.043 111.963 263.143 111.743 263.235C110.854 263.588 109.981 263.697 109.179 263.698C107.564 263.687 106.15 263.304 104.825 262.818C103.503 262.324 102.276 261.695 101.116 260.979C98.8029 259.515 96.7739 257.766 94.9809 255.657C93.9559 254.41 93.3619 253.041 92.9239 251.695C92.4919 250.345 92.2479 248.991 92.0999 247.648C91.5469 242.275 92.3929 237.053 93.8359 232.075C95.3009 227.099 97.4729 222.35 100.275 218.003C101.666 215.829 103.24 213.745 105.14 211.958C107.04 210.192 109.233 208.64 111.717 207.852Z" fill="black"/>
<path d="M106.872 254.896C107.583 255.723 108.017 256.839 108.229 257.986C108.44 259.142 108.45 260.354 108.256 261.578L105.451 260.518C106 259.768 106.449 258.891 106.728 257.941C107.004 256.99 107.129 255.951 106.872 254.896Z" fill="black"/>
<path d="M21.9769 195.705C20.1979 173.273 34.5729 154.249 60.1219 153.814C86.1489 153.371 92.1238 165.636 123.745 170.528C140.977 173.194 148.727 183.201 147.745 195.394C145.841 219.038 111.475 234.239 84.5029 236.566C60.8829 238.605 24.7799 231.038 21.9769 195.705Z" fill="#FFBE31"/>
<path d="M123.741 170.528C140.975 173.198 148.721 183.198 147.741 195.398C145.843 219.038 111.479 234.238 84.499 236.568C60.8839 238.607 24.78 231.038 21.978 195.708C20.781 180.559 26.941 166.969 38.931 159.598C31.156 173.168 35.521 193.532 58.113 197.371C91.447 203.038 119.256 185.708 105.5 166.248C110.602 167.898 116.498 169.408 123.741 170.528Z" fill="#FFBE31"/>
<path d="M147.637 190.451C147.842 192.051 147.881 193.701 147.741 195.401C145.843 219.041 111.479 234.241 84.4991 236.571C68.7611 237.931 47.4721 235.021 34.2021 222.47C45.1921 227.601 62.3412 232.66 89.1902 228.941C125.331 223.941 127.508 201.941 134.983 191.941C141.274 183.531 146.02 186.021 147.637 190.451Z" fill="#E6E1B8"/>
<path d="M19.922 195.902L19.9181 195.865C19.2811 188.336 20.398 180.388 23.693 173.48C25.326 170.027 27.4611 166.839 29.9981 164.078C32.5291 161.307 35.4921 159.015 38.6521 157.188C45.0031 153.537 52.152 151.895 59.177 151.706C66.132 151.518 73.1951 152.296 79.9231 154.381C86.6651 156.43 92.8821 159.516 99.1831 161.988C105.478 164.507 111.923 166.465 118.519 167.808C120.165 168.148 121.822 168.451 123.482 168.724L124.748 168.935L126.053 169.183C126.912 169.359 127.774 169.552 128.627 169.779C132.039 170.679 135.412 171.983 138.508 173.949C141.594 175.902 144.401 178.574 146.34 181.937C148.305 185.278 149.287 189.244 149.297 193.128C149.332 196.983 148.483 200.899 146.965 204.36C145.451 207.848 143.322 210.956 140.902 213.684C136.027 219.143 130.099 223.213 123.951 226.555C117.771 229.872 111.271 232.409 104.631 234.342C97.9851 236.25 91.1971 237.621 84.3151 238.238C77.4171 238.837 70.4731 238.618 63.6121 237.57C56.7601 236.506 49.9561 234.583 43.6021 231.348C37.2721 228.133 31.3791 223.453 27.1491 217.216C25.0341 214.117 23.3501 210.672 22.1571 207.058C20.9591 203.447 20.245 199.679 19.922 195.902ZM24.036 195.532C24.518 202.451 26.5381 209.209 30.2841 214.804C33.9951 220.433 39.2861 224.798 45.1711 227.89C51.0691 230.997 57.534 232.937 64.109 234.05C70.691 235.154 77.422 235.439 84.078 234.944C90.748 234.423 97.3961 233.201 103.877 231.34C110.357 229.48 116.699 227.03 122.684 223.845C128.651 220.662 134.315 216.697 138.827 211.587C141.071 209.036 142.995 206.183 144.335 203.06C145.681 199.929 146.394 196.585 146.356 193.16C146.329 189.777 145.481 186.453 143.809 183.632C142.149 180.799 139.711 178.516 136.944 176.804C134.171 175.083 131.071 173.913 127.883 173.114C127.084 172.913 126.279 172.74 125.469 172.585L124.262 172.37L123.006 172.175C121.307 171.915 119.608 171.624 117.914 171.296C111.139 170 104.441 168.049 97.9751 165.547C91.4961 163.083 85.2951 160.111 78.9181 158.263C72.5551 156.372 65.93 155.722 59.307 155.974C52.774 156.226 46.2871 157.831 40.666 161.15C35.059 164.453 30.3931 169.468 27.5271 175.558C24.6451 181.641 23.504 188.595 24.036 195.532Z" fill="black"/>
<path d="M102.657 265.193C99.7622 267.662 91.3002 264.457 86.1082 259.115C80.9152 253.773 85.4111 231.99 94.6671 217.305C103.925 202.62 112.392 203.393 117.876 206.02C124.89 209.395 126.677 217.219 123.534 225.628C119.454 236.575 102.53 254.424 102.925 256.781C103.157 258.178 104.747 263.418 102.657 265.193Z" fill="#FFBE31"/>
<path d="M102.924 256.782C103.156 258.178 104.746 263.418 102.656 265.193C99.7611 267.662 91.2992 264.457 86.1072 259.115C80.9142 253.773 85.4101 231.99 94.6661 217.305C103.924 202.62 112.391 203.393 117.875 206.02C118.855 206.488 119.732 207.051 120.504 207.69C114.397 206.314 105.514 213.832 100.516 223.017C95.1721 232.842 99.1082 249.45 108.522 248.087C107.448 249.63 102.844 256.308 102.924 256.782Z" fill="#FFBE31"/>
<path d="M102.924 256.781C103.156 258.177 104.746 263.417 102.656 265.192C99.7612 267.661 91.2992 264.457 86.1072 259.115C83.3732 256.301 83.3281 248.946 85.2401 240.469C86.9101 244.29 89.3962 246.213 92.6892 246.108C94.6362 246.034 97.3222 246.848 99.1072 249.855C100.851 252.783 104.146 252.433 106.99 250.31C105.25 252.852 102.866 256.433 102.924 256.781Z" fill="#FFFBD9"/>
<path d="M104.7 206.545C102.636 208.531 100.929 210.627 99.3602 212.853C97.7902 215.068 96.3332 217.368 94.9642 219.731C92.2652 224.481 90.144 229.585 88.542 234.821C86.972 240.048 85.8311 245.485 85.7801 250.772C85.7801 252.086 85.8721 253.382 86.1041 254.587C86.3341 255.781 86.7451 256.911 87.3091 257.583C87.3831 257.676 87.4341 257.727 87.5331 257.832L87.8831 258.176C88.1081 258.392 88.3481 258.615 88.5901 258.825C89.0721 259.25 89.5761 259.657 90.0981 260.041C91.1391 260.812 92.244 261.506 93.391 262.103C94.536 262.696 95.7251 263.202 96.9111 263.571C98.0891 263.934 99.3171 264.15 100.29 264.061C100.769 264.021 101.145 263.889 101.323 263.757L101.387 263.71C101.231 263.852 101.358 263.736 101.328 263.762L101.351 263.741L101.4 263.696L101.492 263.608C101.471 263.614 101.451 263.634 101.449 263.645C101.459 263.624 101.472 263.609 101.486 263.588C101.543 263.5 101.607 263.352 101.656 263.153C101.865 262.329 101.779 261.033 101.56 259.787C101.453 259.149 101.314 258.513 101.162 257.814L101.045 257.239L101.029 257.153L101.021 257.111L100.996 256.872L100.994 256.807V256.615C100.998 256.446 101.031 256.183 101.057 256.097L101.125 255.823C101.326 255.2 101.531 254.853 101.732 254.478C102.545 253.083 103.386 251.97 104.238 250.812C105.935 248.532 107.701 246.367 109.418 244.166C112.852 239.779 116.25 235.37 119.111 230.72C119.82 229.558 120.49 228.378 121.078 227.185C121.375 226.586 121.648 225.986 121.892 225.382L122.074 224.94L122.263 224.452L122.605 223.548C123.521 221.066 124.259 218.588 124.869 215.697C126.244 218.366 126.248 221.566 125.56 224.433C125.474 224.788 125.374 225.165 125.263 225.526L125.097 226.025L124.908 226.565C124.642 227.264 124.347 227.942 124.037 228.606C123.414 229.934 122.724 231.203 122.002 232.443C119.09 237.391 115.719 241.928 112.348 246.421L107.313 253.098C106.51 254.195 105.682 255.335 105.092 256.366C104.957 256.601 104.834 256.877 104.824 256.924C104.828 256.917 104.83 256.91 104.83 256.904C104.83 256.904 104.863 256.728 104.853 256.645L104.845 256.567C104.843 256.546 104.845 256.581 104.845 256.584L104.849 256.649C104.839 256.569 104.872 256.877 104.828 256.476L104.834 256.498L104.84 256.54L104.936 256.993C105.086 257.66 105.25 258.39 105.377 259.132C105.613 260.63 105.859 262.183 105.436 264.103C105.317 264.583 105.133 265.096 104.825 265.609L104.573 265.987C104.46 266.135 104.325 266.289 104.192 266.428L103.919 266.686C103.804 266.781 103.689 266.877 103.567 266.959C102.592 267.635 101.567 267.869 100.661 267.963C98.8351 268.117 97.2651 267.776 95.7681 267.342C94.2801 266.896 92.8851 266.288 91.5591 265.573C90.2311 264.864 88.9671 264.051 87.7701 263.142C87.1721 262.689 86.5901 262.208 86.0281 261.703C85.7451 261.45 85.475 261.193 85.198 260.923L84.8071 260.527C84.6641 260.38 84.4751 260.173 84.3321 259.993C83.1391 258.463 82.6931 256.828 82.3931 255.295C82.1121 253.749 82.0341 252.239 82.0491 250.757C82.1581 244.829 83.5281 239.225 85.2831 233.789C87.0841 228.365 89.4041 223.12 92.3501 218.202C93.8131 215.742 95.4911 213.381 97.5221 211.308C99.5531 209.262 101.946 207.428 104.7 206.545Z" fill="black"/>
<path d="M97.4912 258.948C98.2062 259.77 98.6432 260.887 98.8622 262.033C99.0792 263.187 99.0942 264.398 98.9072 265.623L96.0962 264.574C96.6392 263.822 97.0842 262.944 97.3622 261.991C97.6332 261.041 97.7522 260.002 97.4912 258.948Z" fill="black"/>
<path d="M33.8847 202.203C29.2517 208.175 30.2717 221.279 39.3617 229.15C51.8777 239.994 53.9767 249.906 56.0027 257.419C58.0277 264.933 80.4827 266.505 81.8677 262.084C83.1627 257.948 78.8797 255.018 78.6647 252.67C76.6007 230.099 68.7117 212.666 56.9717 202.102C47.8537 193.896 38.0767 196.8 33.8847 202.203Z" fill="#FFBE31"/>
<path d="M33.8887 202.207C38.0747 196.804 47.8497 193.9 56.9747 202.105C68.7147 212.67 76.6037 230.095 78.6677 252.67C78.8807 255.022 83.1677 257.952 81.8687 262.088C80.4837 266.502 58.0267 264.93 56.0057 257.422C54.8067 252.983 53.5817 247.702 50.1987 241.898C60.5487 246.816 67.4716 232.265 58.5146 215.351C51.0866 201.308 39.3697 198.473 33.7007 202.465C33.7617 202.379 33.8267 202.293 33.8887 202.207Z" fill="#FFBE31"/>
<path d="M61.5958 249.039C63.3288 247.877 66.4548 247.491 69.7478 248.465C73.5268 249.595 76.3498 247.309 77.4778 243.621C77.9858 246.537 78.3817 249.554 78.6667 252.67C78.8797 255.022 83.1668 257.952 81.8678 262.088C80.4828 266.502 58.0258 264.93 56.0048 257.422C55.3798 255.1 54.7448 252.538 53.7798 249.794C56.6678 250.815 59.2868 250.586 61.5958 249.039Z" fill="#FFFBD9"/>
<path d="M74.8438 258.472C75.8418 258.916 76.7108 259.739 77.3948 260.683C78.0828 261.637 78.6079 262.727 78.9589 263.915L75.9688 264.158C76.1428 263.247 76.1739 262.263 76.0219 261.283C75.8619 260.308 75.5297 259.316 74.8438 258.472Z" fill="black"/>
<path d="M31.1978 210.658C32.1078 217.403 35.1778 223.417 39.9208 227.612C45.1218 231.95 49.9228 237.337 53.0668 243.623C54.6628 246.753 55.8368 250.085 56.7758 253.385L57.4618 255.845L57.7798 256.985C57.8088 257.065 57.8538 257.227 57.8698 257.242L57.9248 257.356C57.9838 257.472 58.0438 257.587 58.1198 257.705C58.7078 258.648 59.9328 259.511 61.2738 260.155C64.0058 261.456 67.2288 262.142 70.4048 262.465C72.0008 262.62 73.6079 262.672 75.1779 262.59C76.7189 262.507 78.3319 262.278 79.4489 261.795C79.7169 261.68 79.9289 261.542 80.0169 261.461C80.0639 261.42 80.0679 261.403 80.0539 261.426C80.0539 261.406 79.9718 261.654 80.0678 261.326C80.1948 260.835 80.2049 260.306 80.0799 259.759C79.8459 258.628 79.0058 257.406 78.0188 255.911C77.7748 255.525 77.5188 255.116 77.2748 254.607C77.1558 254.348 77.0369 254.079 76.9389 253.751C76.8859 253.598 76.8469 253.408 76.8099 253.233C76.7789 253.038 76.7509 252.827 76.7459 252.758C76.6619 251.924 76.5919 251.065 76.4959 250.252C76.3139 248.619 76.0998 246.964 75.8438 245.327C74.8318 238.768 73.1918 232.318 70.8538 226.144C68.5038 219.983 65.3599 214.113 61.2719 208.979C60.2489 207.699 59.1739 206.462 58.0379 205.284C56.8959 204.119 55.6978 202.968 54.5028 201.974C52.0648 199.941 49.4088 198.286 46.1398 197.038C49.6258 196.331 53.3759 197.568 56.2879 199.62C57.7859 200.668 59.0169 201.879 60.2669 203.092C61.4959 204.323 62.6618 205.614 63.7708 206.952C68.1988 212.316 71.6129 218.437 74.1849 224.837C76.7829 231.24 78.4778 237.958 79.5808 244.732C79.8559 246.429 80.0888 248.121 80.2898 249.844L80.5599 252.373C80.5739 252.517 80.5809 252.514 80.5799 252.525C80.5919 252.555 80.5899 252.577 80.6068 252.623C80.6278 252.7 80.6788 252.816 80.7378 252.94C80.8608 253.192 81.0488 253.503 81.2588 253.828C82.0988 255.142 83.3449 256.701 83.8659 258.902C84.1279 259.998 84.1179 261.207 83.8029 262.346C83.7869 262.422 83.6038 263.088 83.3648 263.422C83.1308 263.805 82.8549 264.111 82.5839 264.347C82.0349 264.822 81.5019 265.1 80.9959 265.323C78.9839 266.14 77.1819 266.288 75.3669 266.4C73.5619 266.481 71.7868 266.409 70.0248 266.225C66.5048 265.829 63.0128 265.104 59.6398 263.482C57.9858 262.637 56.2529 261.585 55.0069 259.653C54.8569 259.415 54.7218 259.156 54.5968 258.891L54.4069 258.421C54.3389 258.242 54.3348 258.198 54.2958 258.079L54.1889 257.698L54.1109 257.389L53.9508 256.773L53.3178 254.344C52.4658 251.137 51.4329 248.052 50.0109 245.136C48.6009 242.217 46.8269 239.477 44.7729 236.94C43.7439 235.671 42.6498 234.453 41.4988 233.281C40.9228 232.696 40.3328 232.123 39.7318 231.56L37.8688 229.853C32.6118 224.961 29.8768 217.43 31.1978 210.658Z" fill="black"/>
<path d="M185.09 94.9095C189.754 94.7575 191.934 125.293 187.828 128.141C181.672 132.408 165.476 132.445 159.312 127.094C153.265 121.847 166.099 111.094 172.306 105.289C179.803 98.2795 181.061 95.0415 185.09 94.9095Z" fill="#FFBE31"/>
<path d="M187.829 128.141C188.368 127.488 188.483 126.67 188.62 125.885C188.737 125.09 188.788 124.283 188.831 123.475C188.909 121.857 188.892 120.229 188.897 118.599C188.881 115.339 188.711 112.061 188.329 108.818C187.942 105.587 187.405 102.331 186.483 99.3355C186.247 98.5975 185.973 97.8755 185.651 97.2675C185.493 96.9655 185.315 96.6945 185.161 96.5225C185.005 96.3335 184.89 96.3465 185.079 96.3955C185.114 96.3935 185.083 96.4035 185.175 96.3955L185.021 96.4075C184.923 96.4145 184.796 96.4195 184.744 96.4305C184.615 96.4465 184.463 96.4735 184.308 96.5025C184.007 96.5675 183.728 96.6655 183.451 96.7955C182.896 97.0555 182.349 97.4635 181.787 97.9615C180.66 98.9565 179.537 100.196 178.385 101.395C177.237 102.603 176.059 103.806 174.85 104.978C172.438 107.345 169.891 109.453 167.526 111.717C165.143 113.956 162.881 116.32 161.001 118.843C160.062 120.095 159.196 121.394 158.716 122.775C158.466 123.464 158.361 124.173 158.431 124.908C158.513 125.64 158.829 126.388 159.316 127.096C158.556 126.719 157.853 126.078 157.443 125.221C157.009 124.369 156.92 123.367 156.992 122.436C157.191 120.554 157.99 118.9 158.89 117.412C159.812 115.923 160.91 114.6 162.033 113.324C163.16 112.05 164.334 110.837 165.525 109.653C167.912 107.288 170.379 105.045 172.72 102.788C173.892 101.647 175.033 100.479 176.167 99.2815C177.313 98.0895 178.409 96.8555 179.767 95.6485C180.445 95.0505 181.249 94.4645 182.206 94.0375C182.685 93.8265 183.196 93.6625 183.71 93.5645C183.964 93.5175 184.22 93.4785 184.503 93.4555C184.657 93.4385 184.737 93.4395 184.847 93.4335L185.003 93.4265C185.196 93.4225 185.273 93.4245 185.409 93.4425C186.438 93.5835 187.013 94.1695 187.389 94.5965C187.774 95.0555 188.028 95.4985 188.248 95.9345C188.68 96.8035 188.969 97.6495 189.223 98.4955C190.196 101.865 190.582 105.214 190.869 108.573C191.121 111.931 191.24 115.293 191.041 118.665C190.945 120.35 190.715 122.037 190.305 123.701C190.096 124.531 189.832 125.356 189.467 126.148C189.096 126.907 188.631 127.765 187.829 128.141Z" fill="black"/>
<path d="M165.311 110.205C183.291 111.031 201.436 122.34 210.311 138.705C218.311 153.455 214.061 175.205 211.311 180.955C208.561 186.705 219.852 184.928 220.061 188.705C220.311 193.205 214.311 200.955 209.561 200.455C203.573 199.824 200.811 196.705 198.811 193.955C194.311 198.455 194.51 207.055 199.811 209.705C202.811 211.205 201.467 213.1 197.061 214.455C187.311 217.455 146.256 214.439 126.561 192.455C105.061 168.455 112.651 144.072 121.061 129.955C128.061 118.205 143.561 109.205 165.311 110.205Z" fill="#FFBE31"/>
<path d="M220.061 188.708C220.311 193.208 214.311 200.958 209.561 200.458C203.571 199.828 200.811 196.708 198.811 193.958C194.311 198.458 194.512 207.057 199.811 209.707C202.811 211.207 201.471 213.098 197.061 214.457C193.151 215.658 184.211 215.898 173.631 214.328C149.012 205.047 157.512 184.578 167.651 179.027C173.251 175.958 174.401 174.777 173.901 169.777C173.151 162.307 171.651 152.277 175.401 145.527C184.661 128.857 199.401 138.027 205.151 142.777C208.702 145.708 211.301 147.117 213.581 147.468C216.792 160.958 213.552 176.268 211.311 180.958C208.561 186.708 219.852 184.927 220.061 188.708Z" fill="#FFFBD9"/>
<path d="M191.791 118.999C177.82 115.799 149.24 119.179 145.061 154.458C142.581 175.389 148.75 189.729 157.952 199.379C159.171 205.038 163.722 210.589 173.641 214.329C157.842 211.999 138.371 205.628 126.561 192.459C105.061 168.459 112.651 144.078 121.061 129.958C128.061 118.208 143.561 109.209 165.311 110.209C174.512 110.629 183.762 113.808 191.791 118.999Z" fill="#FFBE31"/>
<path d="M186.161 215.418C182.481 215.348 178.212 215.008 173.641 214.328C163.721 210.588 159.17 205.037 157.952 199.378C166.25 208.088 177.032 212.978 186.161 215.418Z" fill="#E6E1B8"/>
<path d="M215.731 194.285C215.821 191.955 215.391 190.125 214.231 187.875C213.682 186.805 213.741 185.854 214.452 185.535C216.981 186.295 219.952 186.785 220.061 188.705C220.192 190.965 218.731 194.045 216.651 196.484C216.071 196.414 215.672 195.574 215.731 194.285Z" fill="black"/>
<path d="M221.381 188.298C221.297 187.738 221.027 187.189 220.692 186.792C220.358 186.392 219.987 186.114 219.635 185.894C218.926 185.464 218.254 185.222 217.61 185.003C216.327 184.581 215.1 184.3 214.038 183.903C213.517 183.71 213.032 183.481 212.725 183.243C212.409 182.987 212.354 182.854 212.332 182.667C212.311 182.452 212.385 182.085 212.621 181.601C212.894 181.037 213.176 180.355 213.394 179.744C214.287 177.24 214.88 174.726 215.365 172.185C215.84 169.644 216.174 167.083 216.371 164.507C216.756 159.361 216.627 154.14 215.68 148.984C215.201 146.41 214.514 143.853 213.543 141.38C213.301 140.761 213.043 140.148 212.766 139.54C212.633 139.239 212.473 138.923 212.327 138.616L211.88 137.745C211.265 136.589 210.605 135.456 209.905 134.35C204.288 125.502 196.161 118.354 186.796 113.661C182.103 111.331 177.085 109.606 171.892 108.657C169.316 108.177 166.619 107.909 164.029 107.837C161.425 107.749 158.808 107.8 156.197 108.007C150.978 108.437 145.777 109.525 140.818 111.376C135.859 113.218 131.158 115.882 127.093 119.368C125.062 121.11 123.193 123.054 121.554 125.19C120.736 126.256 119.966 127.378 119.277 128.528C118.599 129.674 117.988 130.805 117.392 131.973C116.208 134.297 115.154 136.69 114.251 139.141C113.382 141.606 112.669 144.127 112.136 146.686C111.585 149.243 111.29 151.852 111.175 154.457C111.048 157.062 111.177 159.678 111.527 162.25C112.215 167.395 113.857 172.369 116.349 176.793C114.851 171.943 113.992 166.992 113.911 162.064C113.872 159.601 114.034 157.15 114.339 154.726C114.65 152.3 115.179 149.913 115.8 147.558C116.435 145.204 117.241 142.898 118.179 140.648C119.087 138.386 120.138 136.179 121.308 134.037C121.89 132.971 122.517 131.902 123.148 130.887C123.765 129.879 124.437 128.922 125.166 127.992C126.619 126.135 128.285 124.435 130.102 122.91C133.741 119.851 137.983 117.508 142.479 115.822C146.983 114.133 151.764 113.156 156.602 112.72C159.022 112.497 161.461 112.421 163.905 112.472C166.362 112.515 168.708 112.722 171.102 113.132C175.856 113.941 180.504 115.47 184.879 117.575C193.625 121.778 201.377 128.266 206.756 136.386C212.381 144.327 213.721 154.484 213.172 164.288C212.858 169.19 212.117 174.177 210.613 178.755C210.412 179.335 210.222 179.827 209.959 180.403C209.668 181.053 209.344 181.942 209.461 182.991C209.52 183.514 209.715 184.061 210.012 184.497C210.303 184.942 210.662 185.272 211.014 185.534C211.725 186.052 212.414 186.323 213.075 186.565C214.389 187.024 215.638 187.288 216.757 187.641C217.31 187.813 217.831 188.012 218.206 188.235C218.597 188.475 218.69 188.635 218.702 188.729C218.739 189.038 218.704 189.6 218.593 190.108C218.486 190.628 218.316 191.159 218.103 191.684C217.677 192.735 217.089 193.756 216.408 194.705C215.053 196.576 213.25 198.307 211.281 199.008C210.797 199.174 210.314 199.258 209.867 199.242C209.691 199.238 209.301 199.187 209.029 199.152C208.752 199.117 208.463 199.066 208.174 199.013C207.026 198.796 205.914 198.45 204.885 197.947C202.803 196.957 201.143 195.289 199.697 193.308L198.918 192.238L198.043 193.177C194.795 196.327 193.559 201.191 194.844 205.607C195.188 206.707 195.703 207.787 196.455 208.73C197.168 209.673 198.211 210.494 199.207 211.009C199.471 211.15 199.531 211.198 199.691 211.31C199.759 211.361 199.816 211.41 199.863 211.455C199.761 211.56 199.588 211.713 199.377 211.84C199.057 212.045 198.672 212.24 198.26 212.412C197.44 212.754 196.512 213.057 195.655 213.23C194.753 213.418 193.798 213.543 192.833 213.63C190.901 213.808 188.927 213.862 186.95 213.837C182.991 213.784 179.016 213.427 175.069 212.911C171.122 212.384 167.2 211.634 163.333 210.686C159.46 209.752 155.64 208.604 151.915 207.209C144.466 204.369 137.448 200.775 130.561 196.41C133.151 199.592 136.387 202.217 139.84 204.447C143.297 206.691 147.049 208.431 150.865 209.939C158.511 212.953 166.515 214.953 174.635 216.078C178.698 216.65 182.793 216.973 186.92 217.004C188.983 217.014 191.053 216.957 193.145 216.736C194.192 216.621 195.241 216.47 196.313 216.226C197.43 215.972 198.428 215.624 199.465 215.175C199.981 214.946 200.5 214.681 201.026 214.333C201.54 213.97 202.108 213.569 202.579 212.724C202.806 212.306 202.972 211.697 202.874 211.095C202.786 210.499 202.505 210.025 202.228 209.697C201.945 209.363 201.656 209.133 201.373 208.933C201.119 208.757 200.744 208.546 200.557 208.458C199.016 207.745 197.975 206.437 197.397 204.78C196.42 201.87 196.965 198.321 198.78 195.725C200.128 197.432 201.798 199.024 203.835 200.041C205.062 200.674 206.376 201.111 207.7 201.389C208.032 201.455 208.364 201.518 208.712 201.569C209.066 201.618 209.3 201.661 209.755 201.692C210.569 201.733 211.353 201.592 212.064 201.364C213.492 200.893 214.679 200.102 215.732 199.219C216.785 198.33 217.703 197.324 218.511 196.239C219.316 195.149 220.019 193.979 220.562 192.698C220.835 192.057 221.064 191.387 221.224 190.673C221.368 189.955 221.487 189.246 221.381 188.298Z" fill="black"/>
<path d="M218.934 188.537C218.813 189.004 218.104 189.226 217.35 189.033C216.596 188.84 216.08 188.304 216.2 187.836C216.321 187.367 217.03 187.145 217.784 187.338C218.538 187.531 219.053 188.068 218.934 188.537Z" fill="white"/>
<path d="M184.366 150.115C187.88 140.945 202.309 140.791 206.257 153.66C201.661 148.179 193.668 145.922 184.366 150.115Z" fill="black"/>
<path d="M191.623 157.517C200.311 155.954 202.832 163.611 202.115 170.619C201.394 178.287 196.498 182.267 194.435 183.455C191.06 179.455 184.747 178.955 182.497 178.705C181.123 167.455 185.448 158.627 191.623 157.517Z" fill="white"/>
<path d="M188.225 157.789C196.774 153.271 203.737 159.746 202.329 169.379C202.274 169.803 202.194 170.217 202.116 170.619C202.833 163.611 199.311 156.455 191.645 158.56C185.426 160.269 182.374 168.392 183.686 178.705C182.717 178.674 182.311 178.768 181.373 178.893C180.186 173.33 180.936 161.642 188.225 157.789Z" fill="black"/>
<path d="M202.199 171.795C201.027 177.475 197.459 181.539 194.228 180.871C190.998 180.207 189.328 175.062 190.498 169.383C191.668 163.703 195.238 159.639 198.467 160.307C201.699 160.97 203.369 166.115 202.199 171.795Z" fill="black"/>
<path d="M199.571 167.665C198.452 170.015 196.214 171.288 194.575 170.505C192.934 169.724 192.511 167.185 193.63 164.835C194.747 162.483 196.989 161.212 198.63 161.993C200.268 162.774 200.69 165.313 199.571 167.665Z" fill="white"/>
<path d="M176.989 180.489C182.884 178.71 191.803 180.807 196.483 186.016C192.963 178.428 184.243 174.751 176.989 180.489Z" fill="#FFBE31"/>
<path d="M160.84 86.9685C166.553 91.7125 171.322 121.168 168.99 126.135C166.894 130.598 159.998 134.752 152.17 136.984C145.85 138.786 126.77 141.619 123.418 132.871C121.098 126.81 130.412 113.322 144.836 98.4965C154.235 88.8385 157.534 84.2225 160.84 86.9685Z" fill="#FFBE31"/>
<path d="M157.977 96.6925C152.379 102.721 143.961 114.312 140.647 126.419C138.522 134.184 145.764 131.971 152.393 130.352C159.022 128.733 163.555 124.379 164.321 121.797C165.086 119.215 160.868 93.5785 157.977 96.6925Z" fill="#FF9365"/>
<path d="M124.584 135.935C123.572 135.104 122.748 133.996 122.291 132.679C121.832 131.294 121.867 129.925 122.059 128.64C122.446 126.059 123.442 123.756 124.522 121.555C125.631 119.364 126.913 117.296 128.254 115.284C129.598 113.273 131.02 111.326 132.484 109.42C133.97 107.527 135.504 105.682 137.07 103.867C140.17 100.205 143.564 96.8085 146.779 93.3835C148.404 91.6575 150.025 89.9304 151.783 88.2134C152.67 87.3584 153.582 86.5024 154.685 85.6844C155.246 85.2784 155.853 84.8755 156.621 84.5385C157.373 84.2075 158.375 83.9295 159.475 84.0675C160.577 84.1965 161.514 84.7314 162.164 85.2684L162.328 85.4094L162.41 85.4835L162.588 85.6495C162.744 85.8075 162.942 86.0025 163.053 86.1395C163.309 86.4335 163.535 86.7274 163.739 87.0204C164.555 88.1924 165.116 89.3544 165.634 90.5184C166.646 92.8444 167.329 95.1984 167.958 97.5464C169.132 102.266 169.853 107.029 170.253 111.824C170.439 114.222 170.528 116.632 170.417 119.049C170.37 120.255 170.261 121.465 170.073 122.666C169.843 123.85 169.649 125.1 168.991 126.135C169.257 124.969 169.173 123.795 169.075 122.627C168.973 121.459 168.811 120.297 168.647 119.137C168.292 116.819 167.876 114.511 167.422 112.213C166.512 107.62 165.404 103.059 164.043 98.6424C163.389 96.4304 162.615 94.2604 161.729 92.2404C161.282 91.2434 160.784 90.2704 160.233 89.5034C159.7 88.7104 159.081 88.3135 158.948 88.3475C158.864 88.3335 158.673 88.3474 158.344 88.4914C158.024 88.6294 157.631 88.8725 157.233 89.1645C156.43 89.7555 155.6 90.5164 154.784 91.3074C153.147 92.9024 151.532 94.6384 149.882 96.3384C146.564 99.7844 143.253 103.095 140.085 106.552C138.501 108.279 136.952 110.033 135.45 111.825C133.934 113.602 132.464 115.415 131.077 117.278C129.686 119.138 128.384 121.055 127.225 123.028C126.067 124.991 125.041 127.042 124.475 129.118C124.211 130.144 123.493 132.545 124.584 135.935Z" fill="black"/>
<ellipse cx="186.414" cy="183.657" rx="10.6338" ry="6.0799" transform="rotate(10.8066 186.414 183.657)" fill="#FF9365"/>
</svg>
