<svg width="280" height="280" viewBox="0 0 280 280" fill="none" xmlns="http://www.w3.org/2000/svg">
<path d="M21.491 154.295C21.9256 154.386 22.5377 154.628 23.3956 154.993C24.2637 155.362 25.3487 155.84 26.3804 156.104C27.3781 156.36 28.7121 156.524 29.8848 155.827C34.7916 152.912 41.1334 154.526 44.049 159.432C46.9644 164.339 45.3497 170.68 40.4432 173.596C35.5365 176.511 29.1953 174.898 26.2795 169.991C25.459 168.61 24.0281 165.211 22.924 161.714C22.3768 159.981 21.9274 158.279 21.6769 156.843C21.5517 156.126 21.4812 155.501 21.4669 154.989C21.4588 154.696 21.4706 154.468 21.491 154.295Z" fill="#FFBE31" stroke="black" stroke-width="3"/>
<path d="M178.897 50.6608C183.457 49.6768 191.073 79.3268 187.544 82.8638C182.25 88.1658 166.325 91.1028 159.302 86.9428C152.413 82.8638 163.113 69.9847 168.181 63.1627C174.298 54.9227 174.956 51.5128 178.897 50.6608Z" fill="#FFBE31"/>
<path d="M187.544 82.8638C187.957 82.1248 187.923 81.3008 187.917 80.5048C187.892 79.7018 187.796 78.8978 187.692 78.0958C187.478 76.4898 187.171 74.8898 186.884 73.2868C186.285 70.0808 185.531 66.8878 184.572 63.7648C183.612 60.6558 182.501 57.5488 181.057 54.7668C180.693 54.0818 180.293 53.4228 179.868 52.8808C179.66 52.6118 179.435 52.3768 179.253 52.2348C179.065 52.0778 178.955 52.1118 179.149 52.1248C179.184 52.1158 179.156 52.1317 179.245 52.1067L179.094 52.1458C178.999 52.1708 178.876 52.1998 178.825 52.2198C178.702 52.2568 178.555 52.3118 178.41 52.3688C178.126 52.4858 177.869 52.6328 177.619 52.8088C177.12 53.1638 176.654 53.6637 176.19 54.2537C175.259 55.4357 174.377 56.8568 173.459 58.2398C172.546 59.6348 171.601 61.0297 170.624 62.3987C168.672 65.1597 166.544 67.6898 164.623 70.3398C162.682 72.9708 160.88 75.6998 159.48 78.5198C158.781 79.9198 158.16 81.3528 157.936 82.7968C157.813 83.5218 157.836 84.2357 158.039 84.9467C158.249 85.6527 158.694 86.3318 159.301 86.9398C158.484 86.7048 157.68 86.2007 157.121 85.4297C156.543 84.6697 156.274 83.7008 156.179 82.7718C156.038 80.8828 156.529 79.1138 157.147 77.4888C157.786 75.8578 158.63 74.3608 159.506 72.9028C160.386 71.4478 161.324 70.0448 162.283 68.6668C164.209 65.9118 166.233 63.2637 168.134 60.6227C169.081 59.2927 169.995 57.9378 170.897 56.5568C171.811 55.1788 172.67 53.7688 173.787 52.3378C174.348 51.6288 175.034 50.9077 175.9 50.3157C176.332 50.0227 176.806 49.7707 177.295 49.5817C177.536 49.4907 177.78 49.4058 178.056 49.3328C178.204 49.2888 178.285 49.2738 178.39 49.2498L178.542 49.2138C178.731 49.1748 178.807 49.1638 178.944 49.1558C179.982 49.1108 180.651 49.5838 181.099 49.9378C181.56 50.3188 181.89 50.7098 182.184 51.0988C182.765 51.8768 183.201 52.6588 183.6 53.4438C185.162 56.5848 186.142 59.8088 187.027 63.0628C187.877 66.3228 188.594 69.6088 189.005 72.9598C189.212 74.6358 189.287 76.3378 189.182 78.0468C189.125 78.9018 189.013 79.7608 188.795 80.6058C188.568 81.4238 188.265 82.3508 187.544 82.8638Z" fill="black"/>
<path d="M75.1032 197.35C69.5202 192.256 61.1901 192.553 51.2911 199.378C41.4541 206.16 37.23 204.674 29.514 205.684C21.799 206.696 18.0282 228.063 22.2232 230.022C26.1522 231.854 29.6251 228.006 31.9791 228.094C50.3141 228.776 62.7911 226.555 72.1831 219.93C80.5981 213.998 81.8012 203.46 75.1032 197.35Z" fill="#FFBE31"/>
<path d="M36.7714 219.463C34.9264 223.184 36.9833 226.508 40.7903 228.186C38.0113 228.244 35.0853 228.212 31.9773 228.094C29.6253 228.012 26.1524 231.857 22.2194 230.022C18.0244 228.065 21.7964 206.7 29.5174 205.69C32.5264 205.286 35.0084 205.274 37.4944 204.999C36.6574 207.147 36.6843 209.271 37.6023 211.33C38.4453 213.245 38.3014 216.381 36.7714 219.463Z" fill="#E6E1B8"/>
<path d="M26.6462 223.446C26.1532 224.419 25.2862 225.245 24.3052 225.88C23.3202 226.517 22.2012 226.985 20.9982 227.276L20.9082 224.276C21.8092 224.497 22.7912 224.579 23.7772 224.475C24.7602 224.368 25.7682 224.087 26.6462 223.446Z" fill="black"/>
<path d="M69.5644 194.301C66.7314 194.04 64.0293 194.524 61.4933 195.426C58.9533 196.327 56.5684 197.612 54.2864 199.077C53.1284 199.8 52.0783 200.592 50.8463 201.414C49.6453 202.213 48.4044 202.969 47.1054 203.65C44.5254 205.025 41.6174 206.035 38.6774 206.451C35.7374 206.885 32.9484 206.915 30.2754 207.283L29.7733 207.351C29.7693 207.357 29.3963 207.412 29.3943 207.431C29.2713 207.459 28.9954 207.568 28.7984 207.667C28.3714 207.886 27.9443 208.204 27.5443 208.604C26.7383 209.398 26.0324 210.451 25.4374 211.578C24.2484 213.852 23.4393 216.433 22.9103 219.035C22.4043 221.619 22.1313 224.375 22.4933 226.732C22.5863 227.3 22.7483 227.836 22.9193 228.145C23.0003 228.298 23.0804 228.365 23.0634 228.345C23.0574 228.345 23.0493 228.337 23.0343 228.324L23.0233 228.322C23.0303 228.327 22.9044 228.271 22.9734 228.301L23.0033 228.315L23.1244 228.364C23.1964 228.393 23.3074 228.446 23.3454 228.455L23.4623 228.493C24.2763 228.759 25.2333 228.666 26.3463 228.247C27.4873 227.847 28.5754 227.13 30.2664 226.526C30.7044 226.387 31.2143 226.253 31.8523 226.243L32.9854 226.276L35.0644 226.335C40.6034 226.452 46.1403 226.297 51.5713 225.612C56.9913 224.909 62.3193 223.571 67.1223 221.135C72.0213 218.611 75.9313 215.571 78.9463 210.597C79.0323 213.542 77.7183 216.492 75.7373 218.76C75.2353 219.336 74.7113 219.858 74.1183 220.369C73.8073 220.635 73.5304 220.848 73.2574 221.058C72.9304 221.311 72.6534 221.492 72.3454 221.71C71.1384 222.534 69.8854 223.29 68.5954 223.974C63.4214 226.725 57.7304 228.253 52.0624 229.101C46.3744 229.966 40.6624 230.113 34.9894 230.026L32.8654 229.974L31.8943 229.947C31.8313 229.948 31.6484 229.977 31.4214 230.053C30.4604 230.378 29.1523 231.177 27.6533 231.74C26.1713 232.322 24.1904 232.679 22.3074 232.06L21.9274 231.927C21.7994 231.881 21.7523 231.855 21.6603 231.819L21.5414 231.767L21.4014 231.704L21.2754 231.637C21.1034 231.547 20.9454 231.446 20.8024 231.334C20.2264 230.891 19.8804 230.379 19.6304 229.916C19.1494 228.98 18.9643 228.137 18.8313 227.326C18.5863 225.707 18.6183 224.195 18.7263 222.699C18.8433 221.209 19.0683 219.748 19.3723 218.304C19.9973 215.424 20.9014 212.603 22.3404 209.915C23.0764 208.583 23.9333 207.262 25.1543 206.11C25.7613 205.534 26.4713 205.005 27.3043 204.605C27.7423 204.405 28.1193 204.247 28.6803 204.124C29.0163 204.046 28.9933 204.063 29.3363 204.008L29.8773 203.946C32.7723 203.62 35.6144 203.643 38.2344 203.311C40.8614 202.994 43.3473 202.196 45.7483 200.993C46.9473 200.399 48.1214 199.722 49.2714 198.993C50.3844 198.283 51.6094 197.427 52.8714 196.725C55.3894 195.301 58.1213 194.153 61.0023 193.594C63.8663 193.047 66.9494 193.127 69.5644 194.301Z" fill="black"/>
<path d="M142.245 176.25C139.249 181.544 141.68 189.942 153.45 197.17C168.244 206.256 186.062 206.563 191.402 201.362C196.744 196.162 199.475 188.642 197.006 185.751C195.222 183.662 189.992 185.258 188.599 185.492C186.232 185.889 175.923 178.06 163.636 171.498C154.68 166.716 146.665 168.439 142.245 176.25Z" fill="#FFBE31"/>
<path d="M197.006 185.752C199.477 188.643 196.746 196.16 191.406 201.361C188.369 204.318 181.302 205.494 173.047 204.291C176.6 202.344 178.273 199.761 177.918 196.533C177.711 194.597 178.315 191.705 181.174 189.851C184.109 187.948 183.365 184.494 180.867 181.742C184.738 184.112 187.51 185.684 188.598 185.492C189.99 185.262 195.217 183.663 197.006 185.752Z" fill="#E6E1B8"/>
<path d="M143.943 188.772C147.873 192.075 151.878 194.622 156.16 197.018C160.46 199.316 165.096 200.991 169.851 201.979C172.228 202.473 174.638 202.789 177.04 202.897C179.437 203.006 181.842 202.928 184.131 202.516C186.386 202.116 188.653 201.336 190 200.068C191.614 198.495 193.063 196.577 194.143 194.562C194.692 193.553 195.162 192.51 195.494 191.46C195.826 190.418 196.023 189.346 195.978 188.443C195.958 187.995 195.869 187.607 195.742 187.331C195.709 187.264 195.678 187.199 195.64 187.145L195.586 187.066L195.558 187.03L195.544 187.011C195.573 187.044 195.47 186.927 195.607 187.08L195.587 187.059L195.435 186.902C195.443 186.921 195.455 186.933 195.47 186.941C195.442 186.923 195.406 186.896 195.355 186.87C194.933 186.624 193.81 186.544 192.744 186.67C191.623 186.783 190.535 187.033 189.22 187.317C189.02 187.345 188.932 187.405 188.348 187.412C187.966 187.402 187.727 187.351 187.481 187.299C187.019 187.188 186.653 187.053 186.305 186.912C185.617 186.63 185.014 186.33 184.429 186.012C182.117 184.741 180.014 183.375 177.881 182.028C173.643 179.325 169.434 176.651 165.111 174.188C164.015 173.567 162.961 172.971 161.881 172.403C160.867 171.868 159.777 171.361 158.697 170.911C156.508 170.006 154.242 169.374 151.639 169.071C153.991 167.853 156.863 167.757 159.473 168.294C160.798 168.564 162.05 168.987 163.298 169.541C164.478 170.071 165.612 170.708 166.718 171.296C171.179 173.714 175.509 176.339 179.796 178.944C181.937 180.235 184.085 181.557 186.2 182.66C186.725 182.929 187.247 183.189 187.724 183.38C187.957 183.473 188.184 183.549 188.333 183.583C188.393 183.597 188.466 183.6 188.398 183.597C188.129 183.621 188.349 183.608 188.459 183.576C189.596 183.326 190.959 183.002 192.34 182.856C193.041 182.782 193.768 182.74 194.555 182.793C195.336 182.85 196.201 182.984 197.121 183.445C197.351 183.562 197.577 183.705 197.804 183.871C197.94 183.978 198.074 184.094 198.2 184.212L198.378 184.394L198.498 184.53L198.558 184.602L198.677 184.75C198.749 184.852 198.825 184.954 198.89 185.06C199.027 185.268 199.138 185.481 199.244 185.698C199.645 186.565 199.803 187.431 199.848 188.234C199.926 189.847 199.621 191.28 199.209 192.63C198.787 193.976 198.228 195.236 197.578 196.435C196.244 198.824 194.607 200.946 192.6 202.852C191.412 203.945 190.078 204.614 188.757 205.125C187.432 205.627 186.094 205.947 184.763 206.171C179.428 207.018 174.167 206.461 169.117 205.294C164.067 204.105 159.206 202.198 154.711 199.64C152.464 198.369 150.297 196.915 148.407 195.114C146.537 193.315 144.867 191.209 143.943 188.772Z" fill="black"/>
<path d="M191.184 191.018C191.97 190.264 193.062 189.768 194.195 189.495C195.338 189.22 196.548 189.144 197.78 189.268L196.875 192.128C196.097 191.621 195.197 191.221 194.231 190.994C193.268 190.771 192.224 190.704 191.184 191.018Z" fill="black"/>
<path d="M42.299 197.765C33.076 177.229 41.295 154.185 66.946 144.726C93.08 135.088 103.172 144.546 136.717 137.961C155 134.373 166.139 141.07 169.184 152.924C175.086 175.909 145.42 202.426 118.957 214.176C95.784 224.466 56.826 230.114 42.299 197.765Z" fill="#FFBE31"/>
<path d="M136.716 137.962C155.001 134.377 166.133 141.069 169.182 152.929C175.091 175.908 145.425 202.424 118.954 214.179C95.7839 224.468 56.8259 230.114 42.2999 197.768C36.0769 183.897 37.7969 168.892 47.4639 157.689C44.1059 173.249 55.2539 190.918 79.3369 186.539C114.869 180.079 137.211 153.876 116.88 140.386C122.578 140.135 129.031 139.471 136.716 137.962Z" fill="#FFBE31"/>
<path d="M167.439 148.297C168.176 149.734 168.759 151.278 169.182 152.932C175.091 175.911 145.425 202.426 118.954 214.182C103.515 221.04 81.056 225.834 63.502 218.692C76.297 219.641 95.287 218.341 121.166 205.321C156.001 187.801 150.917 166.271 155.155 154.186C158.722 144.023 164.34 144.691 167.439 148.297Z" fill="#E6E1B8"/>
<path d="M40.289 198.68L40.273 198.646C37.137 191.767 35.635 183.871 36.675 176.186C37.18 172.349 38.281 168.584 39.929 165.081C41.568 161.568 43.8001 158.357 46.3851 155.515C51.5901 149.82 58.2651 145.739 65.2961 143.072C72.2571 140.431 79.6451 138.664 87.1291 138.248C94.6131 137.794 101.913 138.503 109.094 138.603C116.282 138.751 123.438 138.316 130.542 137.247C132.318 136.984 134.09 136.684 135.856 136.353L137.204 136.104L138.603 135.875C139.53 135.736 140.462 135.614 141.4 135.525C145.143 135.167 148.98 135.202 152.757 135.96C156.519 136.71 160.238 138.237 163.311 140.724C166.4 143.181 168.705 146.576 170.001 150.237C171.312 153.863 171.751 157.859 171.363 161.663C170.988 165.491 169.87 169.177 168.329 172.608C165.212 179.487 160.574 185.427 155.474 190.758C150.332 196.077 144.608 200.774 138.544 204.949C132.465 209.104 126.065 212.802 119.319 215.823C112.553 218.831 105.469 221.084 98.194 222.525C90.923 223.948 83.417 224.544 75.93 223.742C68.475 222.95 60.9771 220.621 54.6401 216.234C51.4791 214.06 48.639 211.405 46.237 208.418C43.835 205.431 41.865 202.129 40.289 198.68ZM44.319 196.873C47.097 203.23 51.375 208.892 57.007 212.846C62.618 216.843 69.4061 219.088 76.3701 219.921C83.3541 220.764 90.5241 220.304 97.5301 219.026C104.542 217.735 111.43 215.621 117.988 212.797C124.551 209.943 130.86 206.435 136.787 202.383C142.714 198.332 148.308 193.775 153.296 188.649C158.267 183.533 162.672 177.784 165.538 171.364C166.959 168.163 167.955 164.789 168.274 161.368C168.596 157.936 168.21 154.528 167.039 151.309C165.892 148.126 163.935 145.29 161.314 143.219C158.699 141.134 155.482 139.843 152.121 139.208C148.75 138.566 145.232 138.561 141.75 138.936C140.878 139.028 140.007 139.151 139.139 139.29L137.848 139.516L136.517 139.776C134.713 140.133 132.902 140.461 131.082 140.751C123.814 141.928 116.404 142.459 109.048 142.389C101.69 142.359 94.4461 141.75 87.3951 142.266C80.3441 142.736 73.44 144.468 66.836 147.052C60.322 149.604 54.3051 153.416 49.7291 158.538C45.1591 163.642 42.108 170.026 41.233 176.788C40.337 183.55 41.488 190.516 44.319 196.873Z" fill="black"/>
<path d="M159.47 71.6658C176.714 66.5058 197.574 71.1867 211.357 83.7007C223.78 94.9807 226.954 116.914 226.258 123.25C225.561 129.586 235.63 124.178 237.076 127.675C238.798 131.84 235.695 141.137 231.048 142.235C225.187 143.617 220.296 133.526 213.823 146.764C211.143 152.247 217.941 155.624 224.898 154.185C228.184 153.505 227.584 156.842 223.873 159.577C215.661 165.63 175.915 176.345 150.063 162.1C121.842 146.549 120.952 121.028 124.227 104.925C126.952 91.5227 138.61 77.9078 159.47 71.6658Z" fill="#FFBE31"/>
<path d="M187.325 71.2517C173.085 72.8547 147.235 85.5056 154.97 120.18C159.557 140.751 170.126 152.241 182.001 158.301C185.026 163.238 191.158 166.969 201.757 167.214C186.076 170.246 165.594 170.68 150.091 162.162C121.859 146.632 120.949 121.114 124.211 105.006C126.927 91.6017 138.575 77.9776 159.43 71.7216C168.249 69.0726 178.03 69.0107 187.325 71.2517Z" fill="#FFBE31"/>
<path d="M213.932 164.099C210.437 165.25 206.293 166.344 201.757 167.214C191.158 166.969 185.027 163.237 182.001 158.301C192.718 163.773 204.508 164.819 213.932 164.099Z" fill="#E6E1B8"/>
<path d="M237.076 127.675C235.772 124.529 227.509 128.584 226.362 124.822C226.358 124.817 226.353 124.814 226.349 124.81L226.352 124.808C226.228 124.391 226.188 123.882 226.256 123.254C226.818 118.088 224.805 102.568 217.311 90.8997C215.044 91.3247 212.123 90.8547 207.804 89.2657C200.806 86.6867 183.862 82.9128 180.642 101.708C179.338 109.319 184.074 118.286 187.254 125.088C189.381 129.641 188.686 131.134 184.418 135.885C176.687 144.479 175.441 166.609 201.747 167.215C206.757 166.252 211.253 165.022 214.967 163.736C214.954 163.729 214.941 163.721 214.928 163.715C214.943 163.718 214.958 163.723 214.974 163.726C219.045 162.313 222.155 160.842 223.872 159.575C227.585 156.833 228.194 153.557 224.897 154.183C218.168 155.461 211.101 152.61 213.821 146.762C219.965 133.559 225.182 143.615 231.046 142.233C235.694 141.137 238.798 131.84 237.076 127.675Z" fill="#FFFBD9"/>
<path d="M234.832 134.372C234.147 132.143 233.137 130.559 231.299 128.817C230.426 127.989 230.168 127.071 230.734 126.536C233.373 126.419 236.338 125.899 237.077 127.676C237.945 129.766 237.585 133.155 236.427 136.145C235.856 136.269 235.201 135.608 234.832 134.372Z" fill="black"/>
<path d="M238.188 126.856C237.924 126.354 237.488 125.925 237.04 125.662C236.593 125.393 236.151 125.255 235.747 125.163C234.934 124.991 234.222 124.985 233.54 124.991C232.188 125.018 230.94 125.157 229.806 125.134C229.249 125.124 228.716 125.068 228.349 124.945C227.965 124.808 227.87 124.701 227.786 124.531C227.696 124.335 227.644 123.965 227.707 123.429C227.78 122.805 227.819 122.07 227.823 121.42C227.841 118.761 227.569 116.192 227.188 113.634C226.795 111.079 226.265 108.552 225.601 106.056C224.264 101.071 222.417 96.1857 219.82 91.6317C218.517 89.3607 217.024 87.1738 215.292 85.1608C214.859 84.6558 214.413 84.1628 213.95 83.6818C213.725 83.4408 213.47 83.1948 213.229 82.9538L212.52 82.2787C211.557 81.3907 210.561 80.5397 209.535 79.7267C201.311 73.2307 191.279 69.1688 180.889 67.8328C175.688 67.1838 170.383 67.2127 165.168 68.0327C162.578 68.4287 159.943 69.0678 157.475 69.8548C154.989 70.6318 152.536 71.5437 150.139 72.6027C145.356 74.7317 140.806 77.4777 136.735 80.8627C132.664 84.2397 129.107 88.3077 126.422 92.9407C125.081 95.2547 123.958 97.7088 123.116 100.265C122.698 101.542 122.341 102.855 122.07 104.168C121.809 105.475 121.606 106.743 121.43 108.042C121.079 110.628 120.875 113.233 120.833 115.846C120.825 118.459 120.986 121.075 121.328 123.666C121.652 126.261 122.237 128.82 122.987 131.318C123.728 133.819 124.714 136.245 125.894 138.557C128.242 143.186 131.437 147.338 135.249 150.691C132.233 146.608 129.786 142.219 128.084 137.594C127.233 135.281 126.575 132.915 126.062 130.527C125.555 128.134 125.267 125.708 125.076 123.278C124.897 120.847 124.896 118.404 125.037 115.971C125.148 113.535 125.41 111.106 125.808 108.696C126.003 107.499 126.244 106.282 126.502 105.116C126.753 103.961 127.07 102.835 127.45 101.718C128.209 99.4848 129.22 97.3307 130.43 95.2897C132.854 91.2017 136.083 87.5877 139.771 84.5117C143.463 81.4297 147.654 78.9277 152.076 76.9187C154.286 75.9097 156.564 75.0317 158.888 74.2727C161.222 73.5007 163.503 72.9217 165.9 72.5177C170.654 71.7107 175.546 71.6198 180.373 72.1608C190.016 73.2388 199.475 76.8028 207.234 82.6878C215.166 88.3268 219.787 97.4698 222.505 106.907C223.828 111.637 224.776 116.588 224.869 121.407C224.872 122.019 224.855 122.548 224.796 123.178C224.737 123.887 224.724 124.833 225.181 125.784C225.41 126.26 225.776 126.711 226.199 127.023C226.621 127.347 227.069 127.541 227.488 127.671C228.329 127.925 229.071 127.952 229.773 127.964C231.166 127.962 232.43 127.799 233.604 127.763C234.183 127.742 234.74 127.759 235.167 127.845C235.614 127.943 235.757 128.063 235.798 128.148C235.935 128.427 236.087 128.968 236.152 129.484C236.22 130.011 236.236 130.568 236.21 131.135C236.154 132.267 235.938 133.425 235.607 134.546C234.945 136.761 233.815 138.989 232.19 140.302C231.005 141.233 230.304 141.259 228.892 141.073C226.355 140.739 222.021 136.611 217.892 139.384C213.441 142.372 210.786 147.999 212.064 151.03C213.299 153.956 215.326 155.047 218.949 155.595C222.062 156.068 225.628 155.177 225.054 156.402C224.536 157.506 222.89 158.441 222.138 158.888C221.347 159.363 220.487 159.796 219.607 160.197C217.841 161.004 215.996 161.708 214.121 162.338C210.367 163.596 206.499 164.57 202.603 165.388C198.702 166.196 194.754 166.782 190.789 167.165C186.826 167.562 182.842 167.741 178.865 167.655C170.895 167.435 163.085 166.361 155.142 164.515C158.638 166.663 162.56 168.072 166.555 169.036C170.56 170.012 174.675 170.415 178.777 170.578C186.99 170.897 195.205 170.14 203.24 168.52C207.262 167.717 211.236 166.668 215.14 165.336C217.091 164.662 219.027 163.926 220.928 163.026C221.876 162.572 222.818 162.084 223.749 161.498C224.72 160.89 225.546 160.232 226.378 159.465C226.789 159.079 227.191 158.657 227.571 158.156C227.936 157.642 228.341 157.077 228.506 156.124C228.582 155.654 228.773 153.786 227.365 153.018C225.069 151.763 219.339 155.114 215.435 150.752C213.389 148.465 216.643 143.68 219.104 141.981C222.003 139.981 224.458 142.69 228.452 143.604C229.108 143.754 229.973 143.627 230.606 143.571C230.963 143.539 231.193 143.464 231.633 143.342C232.415 143.112 233.108 142.721 233.703 142.27C234.895 141.354 235.754 140.215 236.457 139.034C237.156 137.848 237.689 136.596 238.095 135.304C238.494 134.009 238.772 132.673 238.862 131.283C238.907 130.589 238.903 129.881 238.818 129.153C238.722 128.423 238.6 127.715 238.188 126.856Z" fill="black"/>
<path d="M235.955 127.889C235.996 128.369 235.4 128.814 234.625 128.88C233.849 128.947 233.186 128.611 233.144 128.13C233.103 127.648 233.699 127.203 234.473 127.137C235.25 127.07 235.914 127.407 235.955 127.889Z" fill="white"/>
<path d="M189.697 109.145C194.043 106.085 204.545 103.799 211.302 111.397C216.534 117.28 217.088 127.647 216.75 131.839C212.21 127.707 200.462 123.582 190.611 129.788C192.987 123.193 204.366 116.189 213.824 126.117C208.814 112.148 200.113 108.971 189.697 109.145Z" fill="black"/>
<path d="M138.84 236.194C136.613 239.277 127.632 238.165 121.323 234.204C115.014 230.241 114.229 208.013 119.749 191.556C125.27 175.098 133.679 173.847 139.63 175.101C147.243 176.721 150.829 183.901 149.766 192.815C148.39 204.418 136.171 225.762 137.111 227.961C137.667 229.259 140.452 233.974 138.84 236.194Z" fill="#FFBE31"/>
<path d="M137.11 227.959C137.667 229.259 140.452 233.974 138.839 236.193C136.612 239.276 127.631 238.164 121.322 234.203C115.013 230.24 114.228 208.012 119.748 191.555C125.269 175.097 133.678 173.846 139.629 175.1C140.693 175.323 141.677 175.663 142.578 176.1C136.318 176.208 129.467 185.615 126.783 195.721C123.916 206.532 131.667 221.737 140.492 218.186C139.813 219.938 136.921 227.516 137.11 227.959Z" fill="#FFBE31"/>
<path d="M137.109 227.959C137.666 229.259 140.451 233.974 138.838 236.193C136.611 239.276 127.63 238.164 121.321 234.203C117.999 232.116 116.216 224.98 116.069 216.292C118.594 219.61 121.465 220.89 124.64 220.008C126.513 219.477 129.317 219.631 131.762 222.131C134.149 224.565 137.268 223.444 139.529 220.709C138.439 223.59 136.971 227.633 137.109 227.959Z" fill="#FFFBD9"/>
<path d="M126.951 178.727C125.416 181.145 124.253 183.584 123.255 186.118C122.253 188.642 121.382 191.222 120.61 193.842C119.112 199.096 118.258 204.557 117.939 210.023C117.65 215.472 117.83 221.026 119.031 226.175C119.34 227.45 119.736 228.689 120.248 229.806C120.754 230.911 121.42 231.911 122.127 232.431C122.223 232.503 122.281 232.54 122.404 232.619L122.826 232.87C123.096 233.028 123.382 233.187 123.667 233.334C124.236 233.633 124.82 233.909 125.418 234.16C126.612 234.663 127.85 235.075 129.106 235.384C130.36 235.689 131.634 235.9 132.876 235.978C134.105 236.051 135.349 235.97 136.272 235.655C136.727 235.502 137.063 235.285 137.205 235.116L137.257 235.054C137.138 235.229 137.234 235.087 137.212 235.118L137.231 235.091L137.267 235.036L137.334 234.929C137.315 234.94 137.303 234.964 137.303 234.976C137.307 234.954 137.316 234.935 137.325 234.912C137.356 234.814 137.387 234.654 137.387 234.45C137.397 233.599 137.004 232.361 136.497 231.201C136.241 230.608 135.956 230.021 135.643 229.38L135.393 228.848L135.358 228.768L135.34 228.729L135.259 228.504L135.241 228.44L135.196 228.254C135.159 228.088 135.132 227.824 135.133 227.735L135.137 227.452C135.184 226.801 135.3 226.414 135.408 226.002C135.867 224.454 136.422 223.174 136.975 221.848C138.083 219.231 139.287 216.709 140.435 214.164C142.733 209.09 144.993 204.003 146.672 198.807C147.086 197.51 147.458 196.206 147.747 194.907C147.892 194.257 148.017 193.607 148.112 192.964L148.183 192.491L148.251 191.971L148.37 191.011C148.673 188.383 148.803 185.8 148.71 182.848C150.679 185.116 151.44 188.225 151.449 191.172C151.451 191.539 151.441 191.928 151.418 192.305L151.377 192.828L151.32 193.396C151.226 194.14 151.101 194.868 150.956 195.585C150.665 197.023 150.296 198.421 149.887 199.796C148.228 205.292 146.028 210.498 143.814 215.66L140.501 223.339C139.98 224.595 139.444 225.899 139.116 227.038C139.041 227.3 138.986 227.597 138.987 227.643C138.989 227.636 138.989 227.629 138.988 227.622C138.988 227.622 138.979 227.444 138.949 227.366L138.924 227.292C138.916 227.271 138.928 227.304 138.929 227.308L138.948 227.372C138.92 227.295 139.025 227.586 138.886 227.208L138.896 227.228L138.913 227.269L139.113 227.685C139.415 228.298 139.748 228.968 140.049 229.66C140.632 231.058 141.237 232.51 141.279 234.476C141.278 234.969 141.219 235.511 141.043 236.083L140.887 236.51C140.813 236.679 140.718 236.861 140.622 237.028L140.418 237.345C140.328 237.462 140.237 237.583 140.139 237.692C139.354 238.58 138.413 239.049 137.554 239.355C135.816 239.937 134.208 239.977 132.654 239.91C131.101 239.828 129.603 239.567 128.144 239.187C126.687 238.811 125.267 238.321 123.888 237.721C123.2 237.423 122.523 237.093 121.857 236.736C121.522 236.557 121.199 236.372 120.866 236.173L120.391 235.88C120.219 235.772 119.986 235.615 119.804 235.474C118.283 234.271 117.463 232.786 116.808 231.369C116.17 229.932 115.737 228.484 115.401 227.04C114.105 221.256 114.111 215.486 114.531 209.789C114.997 204.094 116.01 198.448 117.71 192.973C118.55 190.239 119.62 187.546 121.104 185.051C122.593 182.585 124.483 180.238 126.951 178.727Z" fill="black"/>
<path d="M132.343 231.348C133.231 231.98 133.922 232.959 134.405 234.022C134.889 235.091 135.19 236.266 135.298 237.501L132.319 237.146C132.671 236.288 132.895 235.33 132.938 234.337C132.977 233.35 132.847 232.311 132.343 231.348Z" fill="black"/>
<path d="M63.828 190.092C56.295 190.709 47.319 200.311 47.652 212.329C48.107 228.883 42.214 237.126 38.042 243.693C33.869 250.261 47.875 267.884 52.07 265.92C55.995 264.082 55.2621 258.943 56.8481 257.199C72.1031 240.433 79.6301 222.844 79.4941 207.051C79.3871 194.785 70.6451 189.535 63.828 190.092Z" fill="#FFBE31"/>
<path d="M63.8283 190.098C70.6393 189.535 79.3823 194.785 79.4943 207.056C79.6313 222.85 72.1073 240.436 56.8513 257.202C55.2623 258.948 55.9963 264.089 52.0683 265.924C47.8783 267.885 33.8713 250.26 38.0423 243.699C40.5063 239.816 43.5733 235.346 45.5703 228.931C48.9333 239.885 64.3413 235.165 70.7653 217.136C76.1053 202.174 70.2842 191.618 63.5092 190.133C63.6152 190.122 63.7213 190.11 63.8283 190.098Z" fill="#FFBE31"/>
<path d="M48.0013 242.161C50.0273 242.653 52.4242 244.7 53.9302 247.785C55.6492 251.335 59.2423 251.873 62.7233 250.216C60.9143 252.559 58.9572 254.888 56.8522 257.203C55.2632 258.949 55.9973 264.09 52.0693 265.925C47.8793 267.886 33.8723 250.261 38.0433 243.7C39.3353 241.671 40.7943 239.471 42.1683 236.907C43.3613 239.725 45.3013 241.502 48.0013 242.161Z" fill="#FFFBD9"/>
<path d="M49.9902 258.302C50.3362 259.336 50.3162 260.533 50.0822 261.675C49.8442 262.826 49.3932 263.951 48.7552 265.012L46.5562 262.972C47.3462 262.485 48.0922 261.842 48.7112 261.068C49.3232 260.291 49.8312 259.377 49.9902 258.302Z" fill="black"/>
<path d="M55.7782 193.822C51.4182 199.048 49.0551 205.372 49.1641 211.704C49.4781 218.47 48.7482 225.648 46.2342 232.214C45.0042 235.503 43.3381 238.62 41.5391 241.54L40.1892 243.708L39.5622 244.712C39.5242 244.788 39.4341 244.931 39.4351 244.952L39.3852 245.069C39.3392 245.19 39.2962 245.313 39.2612 245.448C38.9622 246.518 39.1562 248.005 39.5852 249.429C40.4712 252.323 42.1422 255.162 44.0482 257.723C45.0112 259.005 46.0592 260.225 47.1782 261.327C48.2812 262.407 49.5382 263.443 50.6522 263.941C50.9162 264.06 51.1622 264.125 51.2802 264.132C51.3432 264.141 51.3571 264.132 51.3311 264.136C51.3461 264.124 51.1091 264.23 51.4141 264.079C51.8631 263.843 52.2582 263.491 52.5782 263.03C53.2542 262.092 53.5882 260.649 54.0252 258.913C54.1442 258.472 54.2732 258.007 54.4842 257.483C54.5922 257.219 54.7131 256.95 54.8881 256.655C54.9651 256.514 55.0772 256.356 55.1822 256.212C55.3042 256.057 55.4432 255.896 55.4902 255.844C56.0492 255.218 56.6342 254.585 57.1682 253.966C58.2502 252.731 59.3262 251.454 60.3612 250.16C64.5132 244.985 68.1622 239.419 71.1372 233.524C74.0932 227.631 76.2982 221.346 77.3252 214.865C77.5782 213.247 77.7632 211.618 77.8662 209.984C77.9532 208.354 77.9931 206.694 77.9191 205.141C77.7731 201.971 77.1981 198.896 75.9101 195.639C78.7871 197.735 80.4072 201.336 80.8602 204.869C81.0992 206.682 81.0362 208.405 80.9852 210.147C80.9082 211.884 80.7432 213.616 80.5052 215.337C79.5402 222.225 77.3312 228.876 74.3492 235.097C71.3802 241.335 67.5721 247.124 63.3211 252.513C62.2561 253.863 61.1642 255.175 60.0312 256.488L58.3452 258.396C58.2492 258.501 58.2582 258.507 58.2452 258.513C58.2312 258.541 58.2142 258.554 58.1922 258.599C58.1502 258.667 58.0982 258.783 58.0462 258.909C57.9432 259.17 57.8411 259.52 57.7431 259.894C57.3411 261.401 57.0342 263.373 55.7622 265.244C55.1312 266.178 54.2341 266.985 53.1801 267.523C53.1141 267.564 52.4982 267.878 52.0902 267.927C51.6512 268.014 51.2382 268.015 50.8812 267.974C50.1602 267.892 49.5962 267.687 49.0902 267.464C47.1282 266.532 45.8022 265.302 44.4942 264.04C43.2152 262.763 42.0702 261.405 41.0152 259.981C38.9302 257.118 37.1072 254.051 36.0252 250.469C35.5312 248.68 35.1371 246.692 35.7211 244.467C35.7941 244.194 35.8952 243.922 36.0052 243.649L36.2232 243.194C36.3092 243.022 36.3382 242.99 36.4002 242.88L36.6102 242.545L36.7832 242.278L37.1312 241.745L38.4942 239.638C40.2842 236.843 41.8622 233.999 43.0532 230.98C44.2532 227.97 45.0752 224.811 45.5582 221.582C45.8002 219.969 45.9592 218.336 46.0462 216.697C46.0912 215.877 46.1141 215.055 46.1221 214.232L46.1231 211.705C46.1841 204.522 49.8912 197.42 55.7782 193.822Z" fill="black"/>
<path d="M152.172 50.7627C158.864 53.9787 170.634 81.3977 169.577 86.7817C168.625 91.6197 162.942 97.3227 155.889 101.386C150.193 104.666 132.369 112.042 126.996 104.368C123.275 99.0496 129.041 83.7056 139.44 65.8256C146.217 54.1756 148.297 48.9007 152.172 50.7627Z" fill="#FFBE31"/>
<path d="M151.751 60.8898C147.783 68.0948 142.427 81.3818 142.147 93.9318C141.969 101.981 148.459 98.0768 154.498 94.8978C160.536 91.7198 163.878 86.3967 163.994 83.7067C164.11 81.0167 153.801 57.1678 151.751 60.8898Z" fill="#FF9365"/>
<path d="M128.872 107.06C127.689 106.498 126.62 105.623 125.858 104.457C125.077 103.225 124.779 101.888 124.651 100.594C124.402 97.9967 124.81 95.5217 125.323 93.1237C125.868 90.7277 126.61 88.4128 127.424 86.1348C128.24 83.8578 129.149 81.6237 130.107 79.4187C131.089 77.2237 132.131 75.0607 133.21 72.9197C135.329 68.6157 137.8 64.4958 140.087 60.3948C141.244 58.3268 142.4 56.2568 143.687 54.1658C144.34 53.1198 145.017 52.0687 145.891 51.0077C146.334 50.4797 146.829 49.9407 147.491 49.4257C148.138 48.9227 149.045 48.4097 150.145 48.2787C151.245 48.1367 152.285 48.4287 153.044 48.7927L153.237 48.8887L153.335 48.9418L153.548 49.0587C153.739 49.1737 153.975 49.3157 154.118 49.4217C154.438 49.6447 154.728 49.8747 154.997 50.1097C156.073 51.0487 156.899 52.0398 157.683 53.0458C159.228 55.0558 160.461 57.1727 161.642 59.2997C163.925 63.5937 165.781 68.0397 167.331 72.5947C168.092 74.8767 168.764 77.1927 169.241 79.5647C169.49 80.7457 169.678 81.9457 169.785 83.1577C169.848 84.3617 169.965 85.6217 169.578 86.7837C169.552 85.5897 169.184 84.4707 168.807 83.3617C168.427 82.2537 167.988 81.1657 167.546 80.0797C166.64 77.9167 165.675 75.7787 164.679 73.6587C162.682 69.4237 160.501 65.2668 158.11 61.3118C156.94 59.3258 155.662 57.4067 154.313 55.6617C153.635 54.8037 152.916 53.9798 152.196 53.3688C151.488 52.7288 150.791 52.4937 150.669 52.5587C150.586 52.5657 150.402 52.6247 150.119 52.8447C149.842 53.0557 149.518 53.3867 149.205 53.7657C148.567 54.5347 147.947 55.4747 147.349 56.4397C146.147 58.3827 145.002 60.4598 143.813 62.5098C141.428 66.6558 139.02 70.6717 136.786 74.7927C135.667 76.8527 134.589 78.9317 133.568 81.0327C132.528 83.1247 131.54 85.2387 130.646 87.3837C129.749 89.5257 128.95 91.7007 128.304 93.8967C127.657 96.0817 127.158 98.3197 127.113 100.471C127.106 101.533 126.99 104.036 128.872 107.06Z" fill="black"/>
<ellipse cx="203.263" cy="135.094" rx="10.6338" ry="6.0799" transform="rotate(5.33899 203.263 135.094)" fill="#FF9365"/>
</svg>
