<svg width="280" height="280" viewBox="0 0 280 280" fill="none" xmlns="http://www.w3.org/2000/svg">
<path d="M21.4014 149.994C21.7284 150.294 22.1315 150.814 22.6826 151.566C23.2402 152.327 23.9288 153.292 24.6807 154.046C25.4077 154.776 26.4708 155.598 27.835 155.598C33.5426 155.598 38.1699 160.225 38.1699 165.933C38.1697 171.641 33.5424 176.267 27.835 176.267C22.1274 176.267 17.5002 171.641 17.5 165.933C17.5 164.327 18.0067 160.673 18.8438 157.103C19.2586 155.334 19.7419 153.641 20.2598 152.279C20.5187 151.598 20.7769 151.025 21.0264 150.578C21.1689 150.322 21.2959 150.131 21.4014 149.994Z" fill="#FFBE31" stroke="black" stroke-width="3"/>
<path d="M59.9015 196.175C52.9035 199.029 49.5945 206.681 51.5065 218.55C53.4085 230.347 50.2525 233.525 47.8525 240.927C45.4525 248.328 63.1295 260.91 66.7005 257.96C70.0425 255.2 68.0585 250.411 69.1495 248.321C77.6375 232.055 80.9895 219.835 79.0405 208.508C77.2935 198.36 68.2945 192.749 59.9015 196.175Z" fill="#FFBE31"/>
<path d="M63.4118 240.29C65.9788 243.554 69.8648 243.122 73.0138 240.403C71.8728 242.938 70.5878 245.569 69.1468 248.323C68.0628 250.411 70.0448 255.201 66.6998 257.965C63.1298 260.913 45.4538 248.333 47.8558 240.925C48.7848 238.035 49.8398 235.787 50.6588 233.425C52.2388 235.104 54.1688 235.991 56.4228 236.046C58.5148 236.106 61.2858 237.583 63.4118 240.29Z" fill="#E6E1B8"/>
<path d="M62.6608 251.144C63.3268 252.007 63.7018 253.144 63.8538 254.301C64.0038 255.464 63.9488 256.677 63.6938 257.889L60.9458 256.682C61.5338 255.962 62.0278 255.112 62.3578 254.175C62.6838 253.241 62.8638 252.21 62.6608 251.144Z" fill="black"/>
<path d="M54.7686 199.868C53.3166 202.315 52.5926 204.964 52.3196 207.641C52.0426 210.323 52.1786 213.028 52.5226 215.717C52.6766 217.074 52.9416 218.36 53.1556 219.828C53.3606 221.254 53.5106 222.701 53.5676 224.166C53.7016 227.086 53.3656 230.147 52.4796 232.98C51.6066 235.821 50.4386 238.351 49.6226 240.925L49.4686 241.408C49.4726 241.414 49.3616 241.774 49.3786 241.784C49.3516 241.908 49.3306 242.205 49.3356 242.424C49.3496 242.904 49.4546 243.425 49.6446 243.959C50.0146 245.027 50.6626 246.117 51.4246 247.139C52.9686 249.19 54.9516 251.03 57.0736 252.623C59.1896 254.189 61.5616 255.62 63.8446 256.305C64.3976 256.465 64.9516 256.549 65.3046 256.528C65.4776 256.52 65.5726 256.477 65.5466 256.483C65.5446 256.489 65.5336 256.493 65.5156 256.5L65.5086 256.51C65.5166 256.506 65.4106 256.595 65.4676 256.546L65.4926 256.524L65.5906 256.438C65.6476 256.384 65.7406 256.306 65.7666 256.276L65.8506 256.186C66.4406 255.565 66.7676 254.661 66.8666 253.476C66.9956 252.274 66.8156 250.982 66.9976 249.198C67.0606 248.742 67.1566 248.224 67.4216 247.643L67.9376 246.635L68.8846 244.781C71.3666 239.829 73.6056 234.761 75.3206 229.564C77.0116 224.367 78.0916 218.979 77.9556 213.597C77.7796 208.087 76.7116 203.253 73.5146 198.393C76.2116 199.579 78.3116 202.033 79.5096 204.796C79.8146 205.495 80.0596 206.194 80.2676 206.95C80.3746 207.345 80.4476 207.684 80.5206 208.024C80.6086 208.426 80.6536 208.755 80.7176 209.126C80.9446 210.571 81.0886 212.026 81.1526 213.485C81.4156 219.339 80.3526 225.134 78.6836 230.619C77.0226 236.128 74.7026 241.35 72.1866 246.435L71.2286 248.33L70.7886 249.196C70.7616 249.253 70.7096 249.43 70.6816 249.669C70.5626 250.677 70.7226 252.2 70.5876 253.795C70.4766 255.384 69.9466 257.325 68.5806 258.76L68.2966 259.046C68.2006 259.144 68.1576 259.173 68.0846 259.24L67.9856 259.327L67.8696 259.425L67.7546 259.511C67.5996 259.628 67.4416 259.727 67.2786 259.806C66.6306 260.138 66.0186 260.231 65.4936 260.257C64.4426 260.29 63.6016 260.095 62.8116 259.864C61.2456 259.391 59.8936 258.714 58.5886 257.973C57.2916 257.227 56.0686 256.399 54.8976 255.502C52.5636 253.701 50.4046 251.674 48.5956 249.221C47.7076 247.984 46.8816 246.643 46.3656 245.045C46.1076 244.248 45.9336 243.38 45.9316 242.457C45.9386 241.974 45.9576 241.566 46.0866 241.007C46.1606 240.669 46.1666 240.697 46.2636 240.364L46.4406 239.849C47.3896 237.095 48.6316 234.536 49.4566 232.029C50.2986 229.52 50.6446 226.931 50.5896 224.248C50.5696 222.909 50.4606 221.559 50.2956 220.208C50.1326 218.897 49.8856 217.422 49.7946 215.983C49.5906 213.097 49.7256 210.136 50.4576 207.293C51.1906 204.476 52.5856 201.726 54.7686 199.868Z" fill="black"/>
<path d="M136.287 200.078C130.285 201.063 125.269 208.226 127.019 221.927C129.22 239.148 140.157 253.219 147.556 254.118C154.955 255.015 162.528 252.429 163.231 248.692C163.739 245.991 159.215 242.919 158.159 241.979C156.366 240.385 155.999 227.446 153.405 213.76C151.514 203.786 145.145 198.622 136.287 200.078Z" fill="#FFBE31"/>
<path d="M163.232 248.692C162.529 252.429 154.961 255.017 147.559 254.12C143.35 253.609 138.003 248.844 133.764 241.657C137.508 243.203 140.57 242.885 142.86 240.586C144.239 239.212 146.872 237.867 150.108 238.932C153.431 240.024 155.656 237.28 156.232 233.608C156.814 238.11 157.328 241.256 158.16 241.981C159.212 242.919 163.736 245.987 163.232 248.692Z" fill="#E6E1B8"/>
<path d="M127.6 209.253C127.493 214.386 128.02 219.104 128.84 223.942C129.746 228.733 131.348 233.394 133.562 237.717C134.667 239.878 135.932 241.953 137.356 243.892C138.774 245.828 140.342 247.654 142.098 249.177C143.825 250.683 145.854 251.96 147.686 252.212C149.924 252.483 152.327 252.41 154.574 251.987C155.703 251.782 156.81 251.493 157.836 251.093C158.857 250.698 159.816 250.18 160.49 249.578C160.826 249.281 161.072 248.968 161.207 248.697C161.238 248.629 161.27 248.562 161.289 248.502L161.316 248.41L161.326 248.365L161.334 248.343C161.326 248.384 161.352 248.232 161.318 248.435L161.322 248.406L161.349 248.191C161.339 248.207 161.337 248.224 161.341 248.241C161.335 248.208 161.335 248.162 161.323 248.107C161.251 247.623 160.608 246.699 159.841 245.947C159.05 245.144 158.175 244.455 157.128 243.607C156.98 243.47 156.878 243.437 156.507 242.988C156.277 242.684 156.165 242.467 156.052 242.241C155.849 241.812 155.724 241.443 155.614 241.082C155.403 240.371 155.259 239.713 155.139 239.057C154.678 236.459 154.426 233.965 154.137 231.459C153.584 226.461 153.027 221.506 152.234 216.594C152.031 215.354 151.834 214.158 151.599 212.959C151.379 211.834 151.091 210.667 150.765 209.543C150.097 207.271 149.167 205.111 147.773 202.893C150.195 203.962 152.071 206.137 153.292 208.508C153.913 209.708 154.368 210.949 154.72 212.269C155.046 213.52 155.263 214.803 155.497 216.034C156.411 221.024 157.083 226.044 157.741 231.018C158.079 233.495 158.393 235.997 158.862 238.336C158.983 238.912 159.106 239.482 159.258 239.974C159.332 240.214 159.414 240.439 159.483 240.576C159.508 240.632 159.551 240.691 159.512 240.637C159.324 240.444 159.473 240.607 159.567 240.671C160.473 241.4 161.583 242.257 162.561 243.241C163.059 243.741 163.547 244.281 164 244.926C164.443 245.571 164.883 246.327 165.102 247.334C165.155 247.588 165.184 247.853 165.198 248.133C165.2 248.306 165.194 248.483 165.18 248.656L165.149 248.906L165.12 249.086L165.1 249.178L165.059 249.363C165.026 249.484 164.995 249.606 164.952 249.722C164.878 249.96 164.78 250.181 164.679 250.398C164.253 251.255 163.679 251.919 163.081 252.459C161.874 253.53 160.565 254.191 159.257 254.716C157.943 255.234 156.611 255.587 155.271 255.833C152.572 256.291 149.893 256.349 147.149 255.98C145.553 255.739 144.196 255.12 142.969 254.413C141.746 253.696 140.659 252.853 139.65 251.956C135.645 248.333 132.779 243.887 130.52 239.222C128.28 234.542 126.717 229.56 125.891 224.454C125.471 221.907 125.245 219.306 125.463 216.706C125.689 214.124 126.281 211.503 127.6 209.253Z" fill="black"/>
<path d="M155.477 247.458C156.559 247.599 157.629 248.138 158.553 248.848C159.485 249.566 160.301 250.46 160.977 251.497L158.182 252.588C158.088 251.663 157.836 250.712 157.407 249.817C156.977 248.927 156.375 248.07 155.477 247.458Z" fill="black"/>
<path d="M205.583 95.1049C210.212 95.6849 207.583 126.185 203.083 128.355C196.333 131.605 180.333 129.105 175.083 122.855C169.933 116.725 184.292 108.115 191.333 103.355C199.833 97.6049 201.583 94.6049 205.583 95.1049Z" fill="#FFBE31"/>
<path d="M203.083 128.355C203.718 127.794 203.958 127.005 204.216 126.251C204.458 125.485 204.634 124.694 204.802 123.903C205.132 122.317 205.372 120.706 205.632 119.098C206.128 115.875 206.474 112.612 206.603 109.348C206.726 106.096 206.707 102.796 206.265 99.6938C206.148 98.9268 205.99 98.1728 205.767 97.5198C205.66 97.1978 205.525 96.9018 205.4 96.7068C205.275 96.4958 205.16 96.4918 205.339 96.5678C205.374 96.5718 205.343 96.5768 205.435 96.5838L205.279 96.5698C205.181 96.5618 205.056 96.5488 205.002 96.5508C204.873 96.5448 204.717 96.5478 204.561 96.5538C204.254 96.5718 203.963 96.6238 203.668 96.7078C203.08 96.8778 202.475 97.1958 201.842 97.5988C200.572 98.4058 199.27 99.4538 197.945 100.456C196.621 101.47 195.267 102.474 193.892 103.442C191.136 105.401 188.29 107.085 185.601 108.95C182.898 110.789 180.294 112.768 178.04 114.966C176.917 116.056 175.856 117.202 175.167 118.491C174.812 119.134 174.597 119.816 174.552 120.554C174.517 121.29 174.712 122.077 175.083 122.853C174.39 122.361 173.798 121.619 173.526 120.707C173.231 119.799 173.299 118.795 173.516 117.887C174.008 116.059 175.057 114.551 176.178 113.222C177.32 111.895 178.613 110.762 179.922 109.676C181.235 108.594 182.584 107.58 183.945 106.598C186.674 104.636 189.461 102.807 192.129 100.945C193.463 100.003 194.774 99.0268 196.082 98.0218C197.4 97.0238 198.678 95.9778 200.205 94.9978C200.969 94.5148 201.855 94.0608 202.869 93.7888C203.373 93.6548 203.904 93.5748 204.428 93.5578C204.686 93.5518 204.944 93.5528 205.229 93.5748C205.383 93.5828 205.463 93.5958 205.571 93.6068L205.727 93.6238C205.918 93.6498 205.993 93.6648 206.125 93.7028C207.119 94.0038 207.594 94.6718 207.9 95.1538C208.209 95.6668 208.39 96.1448 208.539 96.6088C208.83 97.5358 208.982 98.4168 209.1 99.2908C209.534 102.771 209.391 106.139 209.149 109.502C208.872 112.859 208.461 116.197 207.739 119.496C207.38 121.145 206.888 122.776 206.221 124.354C205.885 125.142 205.494 125.915 205.01 126.64C204.527 127.335 203.933 128.109 203.083 128.355Z" fill="black"/>
<path d="M27.9927 188.698C26.0887 166.266 41.4717 147.242 68.8087 146.807C96.6597 146.364 103.051 158.629 136.886 163.521C155.327 166.187 163.619 176.194 162.569 188.387C160.53 212.031 123.76 227.232 94.8977 229.559C69.6236 231.599 30.9927 224.031 27.9927 188.698Z" fill="#FFBE31"/>
<path d="M136.882 163.522C155.323 166.192 163.612 176.192 162.564 188.392C160.533 212.032 123.762 227.232 94.8935 229.562C69.6225 231.601 30.9935 224.032 27.9935 188.702C26.7135 173.553 33.3034 159.963 46.1334 152.592C37.8144 166.162 42.4854 186.526 66.6594 190.365C102.327 196.032 132.083 178.702 117.363 159.242C122.822 160.892 129.132 162.401 136.882 163.522Z" fill="#FFBE31"/>
<path d="M162.452 183.444C162.673 185.044 162.712 186.694 162.563 188.394C160.532 212.034 123.761 227.234 94.8913 229.564C78.0513 230.924 55.2723 228.014 41.0723 215.463C52.8323 220.594 71.1813 225.653 99.9123 221.934C138.582 216.934 140.912 194.934 148.912 184.934C155.642 176.524 160.722 179.015 162.452 183.444Z" fill="#E6E1B8"/>
<path d="M25.7935 188.896L25.7895 188.859C25.1075 181.33 26.3045 173.381 29.8295 166.474C31.5765 163.021 33.8615 159.833 36.5765 157.072C39.2855 154.301 42.4545 152.009 45.8355 150.182C52.6325 146.531 60.2815 144.889 67.7995 144.701C75.2415 144.513 82.7985 145.291 89.9985 147.376C97.2115 149.425 103.865 152.511 110.606 154.982C117.34 157.502 124.238 159.46 131.295 160.802C133.058 161.142 134.828 161.445 136.605 161.718L137.961 161.929L139.355 162.177C140.276 162.353 141.196 162.546 142.11 162.773C145.761 163.673 149.37 164.977 152.683 166.943C155.985 168.896 158.99 171.568 161.066 174.931C163.168 178.272 164.218 182.238 164.23 186.122C164.267 189.977 163.359 193.893 161.734 197.354C160.113 200.842 157.837 203.95 155.247 206.678C150.028 212.137 143.686 216.207 137.107 219.549C130.495 222.866 123.54 225.403 116.435 227.336C109.324 229.244 102.06 230.615 94.6945 231.232C87.3145 231.831 79.8845 231.612 72.5425 230.564C65.2105 229.5 57.9305 227.577 51.1315 224.342C44.3595 221.127 38.0545 216.446 33.5275 210.21C31.2635 207.111 29.4635 203.666 28.1855 200.052C26.9055 196.441 26.1395 192.673 25.7935 188.896ZM30.1955 188.526C30.7125 195.445 32.8745 202.203 36.8815 207.798C40.8535 213.427 46.5155 217.792 52.8115 220.884C59.1235 223.991 66.0415 225.931 73.0745 227.044C80.1185 228.148 87.3185 228.433 94.4415 227.939C101.579 227.418 108.694 226.196 115.629 224.335C122.562 222.475 129.348 220.025 135.752 216.84C142.136 213.657 148.197 209.692 153.026 204.582C155.426 202.031 157.484 199.178 158.918 196.055C160.357 192.924 161.121 189.579 161.082 186.155C161.053 182.772 160.144 179.448 158.357 176.627C156.58 173.794 153.971 171.511 151.009 169.799C148.04 168.078 144.724 166.908 141.313 166.109C140.46 165.908 139.597 165.735 138.731 165.58L137.439 165.365L136.097 165.17C134.277 164.91 132.458 164.619 130.646 164.291C123.398 162.995 116.23 161.044 109.312 158.542C102.378 156.078 95.7455 153.105 88.9205 151.258C82.1105 149.367 75.0225 148.717 67.9365 148.969C60.9455 149.221 54.0045 150.826 47.9915 154.145C41.9895 157.448 36.9975 162.463 33.9325 168.553C30.8475 174.635 29.6275 181.589 30.1955 188.526Z" fill="black"/>
<path d="M180.243 108.531C198.223 109.358 216.368 120.667 225.243 137.031C233.243 151.781 228.993 173.531 226.243 179.281C223.493 185.031 234.782 183.254 234.993 187.031C235.243 191.531 229.243 199.281 224.493 198.781C218.505 198.151 215.743 195.031 213.743 192.281C209.243 196.781 209.442 205.381 214.743 208.031C217.743 209.531 216.399 211.426 211.993 212.781C202.243 215.781 161.188 212.766 141.492 190.781C119.992 166.781 127.582 142.399 135.992 128.281C142.992 116.531 158.493 107.531 180.243 108.531Z" fill="#FFBE31"/>
<path d="M234.993 187.034C235.243 191.534 229.243 199.284 224.493 198.784C218.503 198.154 215.743 195.034 213.743 192.284C209.243 196.784 209.442 205.384 214.743 208.034C217.743 209.534 216.403 211.425 211.993 212.784C208.083 213.984 199.141 214.224 188.563 212.654C163.942 203.374 172.442 182.904 182.583 177.354C188.183 174.284 189.333 173.104 188.833 168.104C188.083 160.633 186.583 150.604 190.333 143.854C199.593 127.184 214.333 136.354 220.083 141.104C223.632 144.034 226.233 145.444 228.513 145.793C231.722 159.283 228.484 174.594 226.243 179.283C223.493 185.034 234.783 183.255 234.993 187.034Z" fill="#FFFBD9"/>
<path d="M206.722 117.325C192.753 114.124 164.173 117.505 159.993 152.784C157.513 173.714 163.682 188.055 172.882 197.704C174.103 203.364 178.654 208.915 188.573 212.654C172.772 210.325 153.302 203.954 141.492 190.784C119.992 166.784 127.582 142.404 135.992 128.284C142.992 116.534 158.493 107.534 180.243 108.534C189.443 108.954 198.693 112.134 206.722 117.325Z" fill="#FFBE31"/>
<path d="M201.093 213.745C197.413 213.675 193.142 213.335 188.573 212.654C178.653 208.915 174.102 203.364 172.882 197.704C181.183 206.415 191.962 211.305 201.093 213.745Z" fill="#E6E1B8"/>
<path d="M230.663 192.611C230.753 190.281 230.323 188.451 229.163 186.201C228.612 185.132 228.673 184.181 229.382 183.861C231.913 184.621 234.882 185.111 234.993 187.031C235.122 189.291 233.663 192.371 231.583 194.811C231.003 194.741 230.603 193.901 230.663 192.611Z" fill="black"/>
<path d="M236.314 186.625C236.23 186.065 235.96 185.516 235.625 185.12C235.291 184.72 234.92 184.442 234.568 184.222C233.857 183.792 233.187 183.55 232.541 183.331C231.258 182.909 230.033 182.627 228.971 182.231C228.447 182.038 227.963 181.809 227.658 181.571C227.34 181.314 227.287 181.182 227.263 180.995C227.243 180.78 227.316 180.413 227.552 179.929C227.827 179.364 228.107 178.682 228.326 178.072C229.221 175.568 229.814 173.054 230.299 170.513C230.774 167.972 231.108 165.411 231.305 162.835C231.69 157.689 231.561 152.467 230.612 147.312C230.133 144.738 229.448 142.181 228.477 139.708C228.235 139.09 227.977 138.476 227.698 137.869C227.567 137.568 227.405 137.252 227.259 136.945L226.812 136.073C226.197 134.918 225.539 133.785 224.837 132.679C219.222 123.83 211.095 116.683 201.73 111.989C197.035 109.66 192.019 107.934 186.826 106.986C184.25 106.506 181.553 106.238 178.963 106.166C176.358 106.078 173.742 106.129 171.131 106.336C165.912 106.766 160.711 107.854 155.75 109.705C150.791 111.546 146.09 114.211 142.025 117.697C139.995 119.438 138.125 121.383 136.486 123.519C135.669 124.585 134.898 125.707 134.209 126.857C133.531 128.002 132.921 129.134 132.325 130.301C131.141 132.626 130.087 135.018 129.184 137.47C128.314 139.934 127.601 142.455 127.068 145.015C126.517 147.571 126.223 150.18 126.107 152.785C125.98 155.392 126.109 158.007 126.46 160.578C127.146 165.724 128.79 170.697 131.281 175.122C129.784 170.272 128.925 165.321 128.845 160.393C128.806 157.93 128.967 155.479 129.272 153.055C129.584 150.629 130.113 148.242 130.734 145.887C131.369 143.533 132.175 141.227 133.112 138.977C134.02 136.715 135.071 134.508 136.242 132.366C136.824 131.3 137.451 130.23 138.081 129.216C138.699 128.207 139.371 127.251 140.1 126.32C141.553 124.464 143.218 122.764 145.035 121.238C148.673 118.18 152.916 115.837 157.413 114.15C161.917 112.461 166.698 111.485 171.534 111.049C173.954 110.826 176.395 110.75 178.837 110.801C181.296 110.843 183.64 111.051 186.036 111.461C190.79 112.269 195.436 113.799 199.813 115.904C208.559 120.107 216.309 126.595 221.69 134.715C227.313 142.656 228.655 152.813 228.104 162.616C227.79 167.518 227.049 172.506 225.545 177.084C225.346 177.664 225.156 178.156 224.891 178.732C224.602 179.382 224.276 180.27 224.395 181.32C224.454 181.843 224.649 182.39 224.944 182.826C225.235 183.271 225.594 183.601 225.946 183.862C226.657 184.38 227.348 184.652 228.007 184.893C229.321 185.353 230.57 185.616 231.691 185.97C232.244 186.142 232.765 186.341 233.138 186.564C233.529 186.804 233.622 186.963 233.634 187.058C233.671 187.367 233.636 187.929 233.527 188.436C233.418 188.956 233.25 189.488 233.037 190.013C232.609 191.064 232.023 192.085 231.342 193.034C229.984 194.905 228.182 196.636 226.215 197.337C225.731 197.502 225.248 197.587 224.799 197.571C224.625 197.566 224.233 197.516 223.963 197.481C223.686 197.445 223.397 197.395 223.108 197.342C221.96 197.125 220.848 196.779 219.817 196.276C217.735 195.285 216.075 193.618 214.631 191.637L213.85 190.566L212.977 191.507C209.729 194.657 208.491 199.521 209.776 203.936C210.12 205.036 210.637 206.117 211.387 207.059C212.102 208.003 213.143 208.823 214.141 209.339C214.405 209.48 214.463 209.528 214.625 209.639C214.691 209.69 214.748 209.74 214.797 209.785C214.694 209.89 214.522 210.043 214.311 210.17C213.989 210.375 213.604 210.57 213.194 210.742C212.374 211.083 211.446 211.387 210.589 211.56C209.687 211.748 208.73 211.872 207.767 211.96C205.835 212.138 203.859 212.192 201.882 212.167C197.923 212.114 193.95 211.757 190.003 211.241C186.054 210.713 182.134 209.963 178.265 209.016C174.394 208.082 170.574 206.934 166.849 205.539C159.398 202.699 152.381 199.104 145.494 194.739C148.085 197.922 151.321 200.547 154.773 202.777C158.232 205.021 161.984 206.76 165.8 208.269C173.446 211.282 181.45 213.283 189.57 214.408C193.631 214.98 197.728 215.303 201.853 215.334C203.917 215.344 205.988 215.286 208.08 215.066C209.125 214.951 210.176 214.799 211.248 214.556C212.365 214.302 213.361 213.954 214.4 213.505C214.916 213.276 215.433 213.01 215.959 212.662C216.475 212.299 217.041 211.899 217.514 211.054C217.741 210.636 217.907 210.026 217.809 209.425C217.719 208.828 217.438 208.355 217.161 208.027C216.88 207.693 216.589 207.463 216.307 207.263C216.051 207.087 215.676 206.876 215.491 206.788C213.95 206.075 212.907 204.767 212.331 203.11C211.354 200.199 211.899 196.651 213.714 194.055C215.06 195.761 216.73 197.353 218.769 198.371C219.996 199.005 221.308 199.442 222.634 199.72C222.964 199.786 223.296 199.849 223.644 199.9C223.999 199.948 224.234 199.992 224.689 200.022C225.504 200.064 226.285 199.923 226.998 199.694C228.426 199.224 229.613 198.432 230.666 197.55C231.717 196.66 232.635 195.655 233.443 194.569C234.25 193.48 234.951 192.31 235.496 191.029C235.767 190.388 235.996 189.718 236.158 189.004C236.3 188.282 236.419 187.573 236.314 186.625Z" fill="black"/>
<path d="M233.865 186.863C233.746 187.331 233.035 187.553 232.281 187.36C231.527 187.167 231.011 186.63 231.133 186.163C231.252 185.694 231.961 185.472 232.715 185.665C233.471 185.858 233.987 186.396 233.865 186.863Z" fill="white"/>
<path d="M199.296 148.442C202.81 139.272 217.241 139.118 221.189 151.987C216.593 146.507 208.601 144.249 199.296 148.442Z" fill="black"/>
<path d="M206.556 155.844C215.244 154.281 217.763 161.939 217.048 168.947C216.325 176.615 211.431 180.594 209.368 181.782C205.993 177.782 199.68 177.282 197.43 177.032C196.056 165.781 200.38 156.954 206.556 155.844Z" fill="white"/>
<path d="M203.156 156.116C211.705 151.598 218.67 158.072 217.261 167.706C217.204 168.13 217.126 168.544 217.048 168.946C217.763 161.938 214.243 154.781 206.575 156.887C200.356 158.596 197.305 166.718 198.618 177.031C197.649 177 197.243 177.094 196.305 177.219C195.118 171.656 195.868 159.969 203.156 156.116Z" fill="black"/>
<path d="M217.128 170.122C215.958 175.802 212.39 179.866 209.159 179.198C205.927 178.534 204.259 173.389 205.427 167.71C206.599 162.03 210.167 157.966 213.398 158.633C216.63 159.298 218.3 164.442 217.128 170.122Z" fill="black"/>
<path d="M214.502 165.99C213.385 168.341 211.147 169.613 209.506 168.83C207.865 168.049 207.443 165.511 208.561 163.161C209.68 160.809 211.92 159.537 213.561 160.318C215.2 161.101 215.623 163.64 214.502 165.99Z" fill="white"/>
<path d="M191.919 178.814C197.814 177.036 206.733 179.133 211.413 184.342C207.894 176.754 199.175 173.077 191.919 178.814Z" fill="black"/>
<path d="M180.333 86.355C185.583 91.605 187.612 121.374 184.833 126.105C182.333 130.355 175.083 133.855 167.083 135.355C160.622 136.565 141.362 137.625 138.832 128.605C137.082 122.355 147.602 109.785 163.333 96.355C173.583 87.605 177.292 83.315 180.333 86.355Z" fill="#FFBE31"/>
<path d="M176.583 95.772C170.454 101.257 161.001 112.022 156.583 123.772C153.751 131.308 161.167 129.772 167.917 128.772C174.667 127.772 179.583 123.855 180.583 121.355C181.583 118.855 179.749 92.939 176.583 95.772Z" fill="#FF9365"/>
<path d="M139.711 131.765C138.78 130.844 138.061 129.664 137.729 128.312C137.399 126.89 137.561 125.53 137.869 124.267C138.493 121.734 139.698 119.533 140.975 117.441C142.283 115.361 143.749 113.421 145.271 111.541C146.795 109.662 148.391 107.855 150.026 106.092C151.679 104.346 153.379 102.65 155.105 100.986C158.529 97.627 162.224 94.556 165.74 91.443C167.517 89.875 169.293 88.304 171.199 86.756C172.162 85.985 173.148 85.218 174.324 84.506C174.918 84.153 175.562 83.809 176.357 83.542C177.134 83.282 178.16 83.099 179.242 83.338C180.326 83.568 181.211 84.189 181.808 84.782L181.958 84.936L182.032 85.018L182.195 85.2C182.338 85.372 182.513 85.584 182.613 85.731C182.842 86.047 183.038 86.361 183.214 86.671C183.919 87.914 184.37 89.122 184.777 90.33C185.57 92.738 186.033 95.144 186.443 97.542C187.175 102.35 187.455 107.159 187.41 111.971C187.373 114.376 187.24 116.784 186.906 119.18C186.75 120.377 186.529 121.572 186.23 122.75C185.89 123.907 185.584 125.135 184.834 126.104C185.205 124.968 185.229 123.791 185.24 122.62C185.248 121.448 185.193 120.276 185.137 119.105C184.998 116.764 184.795 114.427 184.557 112.097C184.075 107.44 183.393 102.795 182.446 98.272C181.999 96.01 181.428 93.777 180.733 91.683C180.378 90.649 179.972 89.634 179.495 88.819C179.038 87.981 178.458 87.528 178.321 87.549C178.241 87.528 178.048 87.524 177.708 87.637C177.376 87.744 176.962 87.95 176.54 88.203C175.685 88.718 174.788 89.399 173.903 90.111C172.126 91.548 170.358 93.128 168.557 94.669C164.934 97.793 161.332 100.784 157.86 103.934C156.122 105.507 154.417 107.112 152.757 108.757C151.083 110.387 149.451 112.055 147.898 113.782C146.342 115.506 144.869 117.295 143.533 119.152C142.199 121 140.988 122.947 140.232 124.962C139.873 125.964 138.936 128.288 139.711 131.765Z" fill="black"/>
<path d="M136.758 262.142C135.477 265.722 126.539 267.152 119.378 265.1C112.217 263.048 105.281 241.915 106.007 224.572C106.733 207.228 114.463 203.687 120.528 203.239C128.292 202.677 133.733 208.576 135.19 217.435C137.095 228.96 131.293 252.861 132.807 254.712C133.701 255.806 137.689 259.561 136.758 262.142Z" fill="#FFBE31"/>
<path d="M132.807 254.712C133.702 255.806 137.689 259.561 136.758 262.142C135.477 265.722 126.539 267.152 119.378 265.1C112.217 263.048 105.281 241.915 106.007 224.572C106.733 207.228 114.463 203.687 120.528 203.239C121.612 203.154 122.651 203.209 123.639 203.379C117.657 205.224 113.691 216.163 113.923 226.619C114.174 237.799 125.849 250.25 133.338 244.385C133.172 246.255 132.502 254.341 132.807 254.712Z" fill="#FFBE31"/>
<path d="M132.808 254.712C133.703 255.806 137.69 259.561 136.759 262.142C135.478 265.722 126.54 267.152 119.379 265.1C115.608 264.019 111.911 257.661 109.353 249.357C112.704 251.84 115.816 252.273 118.621 250.543C120.272 249.511 123.009 248.881 126.053 250.602C129.022 252.274 131.707 250.332 133.119 247.076C132.871 250.146 132.583 254.438 132.808 254.712Z" fill="#FFFBD9"/>
<path d="M109.359 210.245C108.556 212.996 108.118 215.662 107.862 218.374C107.602 221.075 107.483 223.796 107.471 226.527C107.491 231.991 108.192 237.473 109.405 242.813C110.643 248.127 112.36 253.411 114.944 258.024C115.596 259.163 116.321 260.243 117.124 261.172C117.917 262.093 118.836 262.869 119.659 263.172C119.77 263.215 119.838 263.235 119.977 263.277L120.452 263.401C120.756 263.476 121.073 263.551 121.388 263.612C122.019 263.741 122.657 263.842 123.301 263.919C124.589 264.069 125.892 264.12 127.183 264.069C128.472 264.012 129.755 263.86 130.968 263.59C132.169 263.32 133.343 262.895 134.142 262.334C134.537 262.062 134.798 261.76 134.888 261.557L134.921 261.485C134.855 261.686 134.907 261.522 134.896 261.558L134.906 261.528L134.926 261.465L134.961 261.342C134.945 261.359 134.94 261.385 134.943 261.398C134.939 261.374 134.945 261.353 134.947 261.33C134.951 261.227 134.935 261.063 134.878 260.868C134.649 260.048 133.93 258.968 133.12 257.995C132.71 257.495 132.273 257.013 131.793 256.483L131.405 256.042L131.349 255.976L131.321 255.942L131.18 255.748L131.146 255.693L131.05 255.527C130.968 255.377 130.868 255.131 130.847 255.045L130.771 254.774C130.634 254.133 130.64 253.731 130.628 253.305C130.639 251.69 130.816 250.306 130.978 248.879C131.316 246.055 131.771 243.3 132.166 240.536C132.963 235.021 133.719 229.507 133.887 224.049C133.924 222.69 133.919 221.332 133.836 220.003C133.794 219.338 133.732 218.68 133.645 218.035L133.582 217.561L133.504 217.042L133.352 216.087C132.913 213.478 132.319 210.961 131.409 208.151C133.931 209.782 135.526 212.556 136.355 215.385C136.458 215.737 136.557 216.114 136.641 216.481L136.746 216.997L136.85 217.559C136.965 218.298 137.049 219.033 137.11 219.763C137.229 221.226 137.262 222.67 137.253 224.106C137.187 229.847 136.521 235.459 135.83 241.033L134.784 249.329C134.632 250.681 134.479 252.082 134.482 253.268C134.482 253.541 134.512 253.84 134.528 253.884C134.527 253.878 134.524 253.87 134.522 253.864C134.522 253.864 134.462 253.695 134.413 253.63L134.368 253.564C134.355 253.547 134.375 253.577 134.376 253.579L134.412 253.636C134.364 253.57 134.546 253.82 134.307 253.495L134.323 253.511L134.35 253.545L134.659 253.89C135.12 254.396 135.626 254.947 136.106 255.527C137.054 256.709 138.04 257.933 138.627 259.81C138.763 260.285 138.858 260.822 138.847 261.419L138.815 261.873C138.79 262.058 138.751 262.257 138.706 262.445L138.597 262.805C138.543 262.945 138.492 263.084 138.427 263.215C137.919 264.287 137.146 264.999 136.407 265.531C134.897 266.574 133.366 267.059 131.852 267.427C130.338 267.78 128.826 267.948 127.321 267.988C125.815 268.032 124.315 267.956 122.825 267.763C122.081 267.666 121.338 267.539 120.599 267.381C120.228 267.303 119.866 267.214 119.491 267.115L118.953 266.967C118.757 266.91 118.49 266.825 118.276 266.739C116.479 266.006 115.28 264.81 114.256 263.629C113.242 262.428 112.424 261.158 111.699 259.863C108.845 254.667 107.248 249.123 106.066 243.535C104.931 237.933 104.334 232.228 104.443 226.498C104.49 223.636 104.769 220.753 105.502 217.944C106.245 215.163 107.409 212.383 109.359 210.245Z" fill="black"/>
<path d="M129.17 259.294C130.199 259.651 131.135 260.401 131.894 261.286C132.657 262.179 133.272 263.224 133.719 264.38L130.76 264.868C130.858 263.944 130.807 262.962 130.572 261.997C130.334 261.039 129.922 260.077 129.17 259.294Z" fill="black"/>
<path d="M49.8013 187.96C42.2533 188.355 32.9993 197.689 32.9793 209.712C32.9483 226.273 26.8153 234.338 22.4503 240.78C18.0873 247.223 31.5693 265.249 35.8193 263.409C39.7973 261.688 39.2153 256.53 40.8523 254.834C56.5923 238.522 64.6353 221.162 64.9613 205.372C65.2153 193.108 56.6303 187.603 49.8013 187.96Z" fill="#FFBE31"/>
<path d="M49.8012 187.966C56.6252 187.605 65.2103 193.109 64.9623 205.378C64.6353 221.168 56.5973 238.525 40.8543 254.835C39.2153 256.534 39.7963 261.694 35.8173 263.412C31.5713 265.251 18.0883 247.222 22.4513 240.785C25.0283 236.977 28.2253 232.599 30.4113 226.245C33.4503 237.295 48.9893 233.029 55.9423 215.196C61.7193 200.399 56.2102 189.676 49.4822 187.993C49.5882 187.983 49.6942 187.975 49.8012 187.966Z" fill="#FFBE31"/>
<path d="M32.4493 239.54C34.4613 240.093 36.7973 242.208 38.2103 245.337C39.8243 248.935 43.3983 249.578 46.9283 248.023C45.0533 250.313 43.0283 252.584 40.8543 254.834C39.2153 256.533 39.7963 261.693 35.8173 263.411C31.5713 265.25 18.0883 247.221 22.4513 240.784C23.8023 238.795 25.3253 236.639 26.7743 234.116C27.8853 236.97 29.7703 238.804 32.4493 239.54Z" fill="#FFFBD9"/>
<path d="M33.9646 255.733C34.2796 256.777 34.2256 257.973 33.9566 259.107C33.6846 260.25 33.2016 261.362 32.5316 262.404L30.3926 260.3C31.1976 259.836 31.9616 259.216 32.6046 258.461C33.2396 257.702 33.7736 256.804 33.9646 255.733Z" fill="black"/>
<path d="M41.6454 191.45C37.1324 196.545 34.5864 202.798 34.5084 209.13C34.6234 215.903 33.6824 223.058 30.9774 229.545C29.6514 232.798 27.8954 235.864 26.0104 238.731L24.5964 240.856L23.9414 241.842C23.9014 241.916 23.8074 242.057 23.8054 242.077L23.7534 242.191C23.7034 242.312 23.6564 242.435 23.6184 242.568C23.2874 243.629 23.4364 245.121 23.8244 246.556C24.6254 249.476 26.2114 252.365 28.0424 254.978C28.9674 256.289 29.9794 257.539 31.0654 258.673C32.1354 259.784 33.3624 260.858 34.4594 261.388C34.7204 261.515 34.9654 261.587 35.0824 261.599C35.1454 261.61 35.1594 261.601 35.1334 261.603C35.1484 261.593 34.9074 261.691 35.2184 261.55C35.6734 261.327 36.0784 260.987 36.4124 260.534C37.1154 259.619 37.4904 258.184 37.9794 256.462C38.1114 256.024 38.2534 255.564 38.4804 255.046C38.5954 254.786 38.7234 254.521 38.9084 254.232C38.9894 254.091 39.1064 253.938 39.2154 253.796C39.3424 253.646 39.4854 253.487 39.5334 253.437C40.1094 252.829 40.7144 252.214 41.2654 251.611C42.3834 250.408 43.4964 249.163 44.5694 247.9C48.8734 242.849 52.6834 237.392 55.8304 231.589C58.9594 225.784 61.3484 219.568 62.5644 213.118C62.8654 211.509 63.0984 209.886 63.2504 208.255C63.3834 206.629 63.4734 204.972 63.4444 203.417C63.3904 200.243 62.9084 197.153 61.7154 193.86C64.5294 196.039 66.0424 199.686 66.3924 203.233C66.5784 205.05 66.4644 206.771 66.3624 208.51C66.2344 210.245 66.0184 211.972 65.7284 213.685C64.5624 220.541 62.1584 227.125 58.9954 233.255C55.8444 239.403 51.8674 245.078 47.4594 250.338C46.3544 251.656 45.2254 252.937 44.0534 254.217L42.3144 256.074C42.2144 256.176 42.2234 256.181 42.2104 256.186C42.1954 256.215 42.1784 256.227 42.1554 256.271C42.1104 256.337 42.0564 256.453 42.0004 256.577C41.8894 256.834 41.7774 257.182 41.6684 257.553C41.2234 259.048 40.8574 261.01 39.5314 262.843C38.8734 263.757 37.9514 264.537 36.8834 265.045C36.8154 265.082 36.1924 265.379 35.7814 265.416C35.3394 265.489 34.9274 265.479 34.5714 265.428C33.8534 265.324 33.2954 265.102 32.7964 264.865C30.8624 263.877 29.5734 262.608 28.3034 261.307C27.0634 259.994 25.9574 258.604 24.9454 257.149C22.9464 254.226 21.2134 251.108 20.2374 247.496C19.7964 245.692 19.4604 243.694 20.1094 241.487C20.1904 241.216 20.2994 240.948 20.4174 240.678L20.6494 240.227C20.7394 240.059 20.7704 240.027 20.8344 239.92L21.0534 239.59L21.2354 239.328L21.5984 238.807L23.0234 236.741C24.8934 233.999 26.5554 231.203 27.8344 228.221C29.1214 225.246 30.0374 222.114 30.6144 218.899C30.9034 217.294 31.1094 215.667 31.2464 214.031C31.3134 213.212 31.3614 212.391 31.3944 211.569L31.4684 209.042C31.7404 201.866 35.6554 194.875 41.6454 191.45Z" fill="black"/>
<ellipse cx="201.153" cy="181.273" rx="10.6338" ry="6.0799" transform="rotate(10.8066 201.153 181.273)" fill="#FF9365"/>
</svg>
