<?xml version="1.0" encoding="UTF-8"?>
<svg id="_图层_1" data-name="图层 1" xmlns="http://www.w3.org/2000/svg" xmlns:xlink="http://www.w3.org/1999/xlink" viewBox="0 0 1134 950">
  <defs>
    <style>
      .cls-1 {
        fill: url(#_未命名的渐变);
      }

      .cls-2 {
        fill: #650005;
      }

      .cls-3 {
        fill: #febfc6;
      }

      .cls-4 {
        fill: #ffddc8;
      }

      .cls-5 {
        fill: #fe8f9f;
      }

      .cls-6 {
        fill: #a4886a;
      }

      .cls-7 {
        fill: #763e3d;
      }

      .cls-8 {
        fill: #5f0038;
      }

      .cls-9 {
        fill: #fee7e0;
      }

      .cls-10 {
        fill: #88dafe;
      }

      .cls-11 {
        fill: #ff6365;
      }

      .cls-12 {
        fill: #221917;
      }

      .cls-13 {
        fill: #736661;
      }

      .cls-14 {
        fill: #fefefe;
      }
    </style>
    <linearGradient id="_未命名的渐变" data-name="未命名的渐变" x1="553.88" y1="120.22" x2="552.09" y2="143.92" gradientTransform="translate(0 158)" gradientUnits="userSpaceOnUse">
      <stop offset="0" stop-color="#ffdac2"/>
      <stop offset="1" stop-color="#ffecea"/>
    </linearGradient>
  </defs>
  <path d="m430,72.8c10.4-14.6,22.2-27.6,36.8-38.2,25.7-18.7,56.4-25.4,87.6-20.4,13.4,2.1,24.4,6.9,37.1,11.1,6,2,12.4,3,18.4,5,19.7,6.4,37.6,18.9,49.7,35.7,17.1,23.8,26.9,58.9,22,88.1-2.4,14.1-8.7,28.4-20.6,36.9,2.4,1.5,4.8,3.1,6.7,5.3,4,4.9,5.3,11.1,4.7,17.3-.7,7.1-3.3,14-8.9,18.6.3,10.1.5,20.2-.3,30.3-1.5,20.5-5.8,36.7-21.8,50.4,6.3,7.1,15.5,12.7,23,18.5l44.8,35c4.8,3.7,14.1,9.3,17.2,14.1,1,1.5,1.2,4,.7,5.7-1.6,4.9-17.1,11.9-21.9,14.3,6.3,6.7,14.1,12.5,21.1,18.4l37.4,31.8c6.7,5.7,13.8,11.3,20.2,17.3,6.9,6.4,12.3,15,12.5,24.6.1,6-2.1,10.4-6.2,14.6-1.2,1.1-2.6,2.1-3.6,3.4-10.6,9.7-19.2,21.5-29.8,31.2l-4.6,3.8c-1.4.9-2.4,1.8-3.5,3.1-5.5,3.2-10.8,6.4-17.4,4.5-17.4-5-66.6-76-78.2-93.9-2.2,2.7-8,8.2-7.7,11.8.7,7.6,7.3,24.6,9.9,32.9l35.6,113.8,10,31.5c2.2,6.9,4.9,14,6.1,21.2.7,3.8.6,8.2-1.8,11.4-6.4,3.2-51.4,4.9-61.2,5l17.3,112.5c1.6,10.4,3,20.8,4.8,31.2,1,5.9,2.5,11.8,3.2,17.8.5,4.1.7,8.6-.3,12.7,18.9,10,47.2,17.6,54.4,40.1,1.7,5.2,2.3,11.4-.2,16.4-1.3,2.6-3.9,5.6-6.8,6.4-2.6.8-5.4,1-8.1,1.2-17.4.9-35.2.1-52.7.1-14,0-28.7,1-42.6-.2-2.4-.2-4.6-.8-6.7-2.1-3.5-2.1-5-5.4-5.9-9.2-1-4.5-1.4-45.7-.4-50,.6-.1.3,0,.8-.7-1.7-6.7-1.7-14-2.7-20.8-3.3-23.2-7.1-46.4-10.7-69.6-1.6-10-2.5-20.2-4.5-30.2-.3-1.6-.5-3.7-1.6-4.9-2.3.3-4.3.3-6.4-.7-1.7-.8-3.1-2.1-4-3.6-3.3-5.3-5-12.4-7-18.3l-9.1-26.3c-6.9-.5-13.9-.1-20.9-.6-2.9,25.8-7.6,51.6-11.4,77.2l-13.5,95.8c18.9,10.2,47.9,17.9,54.7,40.9,1.6,5.5,2.1,11.6-.9,16.7-1.8,3.1-4.6,5.2-8.1,6-7.6,1.8-17.1.8-25,.8l-38.6-.1c-12,0-24.7,1-36.6,0-3.2-.3-6.6-1-9.3-2.9-3.4-2.3-4.8-6.6-5.4-10.5-1.1-7-1.1-40.5-.2-47.6.5-4.9-.8-9.9-.3-14.8.6-5.6,2.1-11.2,3.1-16.8,1.6-8.9,2.8-17.9,4.1-26.8l18-120.9c-19.4-2.6-39.2-2.7-58.6-6.2-6.3-1.1-10.3-3.1-14-8.4-.3-2.2-.6-4.1-.2-6.3,2.3-11.7,6.8-23.1,9.9-34.6,6.1-22.3,12.5-44.6,19.2-66.7,3-10,5.6-20.2,9-30-16.1.8-34-12-46.1-21.9-15.6-12.8-34-31.5-35.9-52.5-2.7-29,29.6-51.9,46.2-71.8-2.9-1-6.2-1.9-8.5-4-1.7-1.5-2.8-3.4-2.9-5.7-.3-8.5,15-18.2,20.5-24.2l.5-.6c-1.6-2.3-2.9-4.4-3.5-7.3-1.5-7.3,2-13,5.7-18.9-3.2.6-6.6,1.2-9.9,1-4.5-.3-9.1-2-12.1-5.5-2.5-2.9-3.5-6.8-3-10.6.5-3.7,2.6-7.1,5.7-9.3,5.4-3.8,11.9-3.8,18.1-2.9-2.6-2.7-4.9-5.5-6.4-9-1.9-4.6-2.4-9.5-.4-14.2,1.3-3.1,3.6-5.4,6.8-6.6,5-1.8,9.6-.2,14.1,2,2.2-7.5,6.4-13.7,9.2-20.8,2.3-5.9,3.4-11.7,6.3-17.4-4.5-2.1-8.3-4.8-11.2-8.9-6-8.5-4.9-18.6-3.2-28.3-4.8,4.7-10.6,8.9-17.2,10.6-6.7,1.7-13.6.9-19.5-2.7-5.9-3.6-9.9-9.5-11.5-16.2-1.6-6.6-.5-13.5,3.1-19.2,4.8-7.6,13.1-11.6,21.6-13.4-5.4-2.1-11-4.1-15.8-7.5-4,5.5-7.1,11.2-9.1,17.7-5,16.8-1.4,38.1,14.5,48,8.5,5.3,20.3,5.2,25.2,15.7,1.4,2.9-.3,9.9-1.5,12.9-.8,2.1-1.5,3.6-3.6,4.5-4.3,0-10.8-8-13.9-11,.5-4.4,1.9-8.8,3.1-13.1-14.3-1.6-28-4.3-40.1-12.7-10.3-7.2-17-17.3-19.1-29.7-3.6-21,4.3-42.8,16.3-59.7,20.2-28.5,43.5-41.1,77.7-46.9Zm218,165c-3.3,7.5-6.8,14.2-12.5,20.1,1.8,15.4,4.4,30.9,5.3,46.4l.7,1.3c10.9-8.6,14.3-24.2,15.9-37.3,1.3-10.6,1.7-21.8.9-32.4l-.6-.6-.6.1-9.1,2.4Z"/>
  <path class="cls-8" d="m668.8,860.9c18.9,10,47.2,17.6,54.4,40.1,1.7,5.2,2.3,11.4-.2,16.4-1.3,2.6-3.9,5.6-6.8,6.4-2.6.8-5.4,1-8.1,1.2-17.4.9-35.2.1-52.7.1-14,0-28.7,1-42.6-.2-2.4-.2-4.6-.8-6.7-2.1-3.5-2.1-5-5.4-5.9-9.2-1-4.5-1.4-45.7-.4-50,1.9,1.3,3.9,5.5,4.6,7.8,4.3,6.6,9.6,11.6,16.9,14.6,8.8,3.6,18.8,3.4,27.5-.4,9.3-4,15.2-11.2,18.9-20.4l1.1-4.3Z"/>
  <path class="cls-8" d="m667.6,865.1c4.4,2.3,8.7,4.6,13.3,6.6l5.4,2.9c5.9,2.6,11.8,5.2,17.3,8.6l4.1,3.4c5.8,4.3,9.5,10.6,11.9,17.3-38.7-.2-77.4-.3-116,.1.2-7-1.4-27.4.7-32.5,4.3,6.6,9.6,11.6,16.9,14.6,8.8,3.6,18.8,3.4,27.5-.4,9.3-4.2,15.2-11.4,18.9-20.6Z"/>
  <path class="cls-14" d="m680.8,871.6l5.4,2.9c5.9,2.6,11.8,5.2,17.3,8.6l4.1,3.4c-.6,1.6-1.5,3.4-2.5,4.7-1.2,1.5-2.9,2.2-4.8,2.4-7.6.8-17.9-5.5-23.6-10.1,1.3-1.3,2.7-2.7,3.7-4.2,1.6-2.6,1-5,.4-7.7Z"/>
  <path class="cls-8" d="m686.3,874.5c5.9,2.6,11.8,5.2,17.3,8.6-.2,1.1-.3,2.4-.7,3.4-.5,1.3-1.6,2.2-2.9,2.5-4.9,1.2-12.6-3.8-16.6-6,1.7-2.7,2.3-5.3,2.9-8.5Z"/>
  <path class="cls-12" d="m668.8,860.9c18.9,10,47.2,17.6,54.4,40.1,1.7,5.2,2.3,11.4-.2,16.4-1.3,2.6-3.9,5.6-6.8,6.4-2.6.8-5.4,1-8.1,1.2-17.4.9-35.2.1-52.7.1-14,0-28.7,1-42.6-.2-2.4-.2-4.6-.8-6.7-2.1-3.5-2.1-5-5.4-5.9-9.2-1-4.5-1.4-45.7-.4-50,1.9,1.3,3.9,5.5,4.6,7.8-2.1,5.2-.6,25.5-.7,32.5l-.1,4.2c0,1.4.1,2.7.4,4.1.6,2.8,2.4,5.4,4.9,6.9,2.1,1.2,4.4,1.4,6.8,1.6,16.8,1.1,34.2.2,51,.2,9,0,40.2,1.1,46.8-.8,2.3-.7,4.5-3.2,5.7-5.2,1.2-2.2,1.8-5.5,1.2-7.9l-.6-3.1c-2.4-6.7-6.1-13-11.9-17.3l-4.1-3.4c-5.5-3.4-11.4-6-17.3-8.6l-5.4-2.9c-4.5-2-8.9-4.3-13.3-6.6l1-4.2Z"/>
  <path class="cls-14" d="m603.5,903.9c38.7-.4,77.4-.3,116-.1l.6,3.1-.7,1.3c-4,.4-8.3-.1-12.4-.1-7.4-.1-14.7,0-22.1,0h-81.6l.2-4.2Z"/>
  <path class="cls-8" d="m508.6,860.7c18.9,10.2,47.9,17.9,54.7,40.9,1.6,5.5,2.1,11.6-.9,16.7-1.8,3.1-4.6,5.2-8.1,6-7.6,1.8-17.1.8-25,.8l-38.6-.1c-12,0-24.7,1-36.6,0-3.2-.3-6.6-1-9.3-2.9-3.4-2.3-4.8-6.6-5.4-10.5-1.1-7-1.1-40.5-.2-47.6,1.6,2.1,3.7,5.3,4.3,7.8,4.3,6.3,9.6,11.4,16.7,14.3,8.7,3.6,18.5,3.6,27.1,0,9.9-4.1,15.8-11.7,19.8-21.3l1.5-4.1Z"/>
  <path class="cls-8" d="m507.4,865c4.4,2.3,8.8,4.7,13.4,6.6l5.4,2.8c5.9,2.6,12,5.1,17.3,8.6l4.1,3.4c5.8,4.3,9.5,10.7,11.9,17.4h-116.2c0-10.4-.8-21.5.3-31.9,4.3,6.3,9.6,11.4,16.7,14.3,8.7,3.6,18.5,3.6,27.1,0,10.1-4,16-11.6,20-21.2Z"/>
  <path class="cls-14" d="m520.8,871.6l5.4,2.8c5.9,2.6,12,5.1,17.3,8.6l4.1,3.4c-.6,1.7-1.5,3.4-2.6,4.8-1.4,1.7-3.5,2.3-5.6,2.3-7.2.2-17.5-5.5-22.7-10.3,1.2-1.3,2.7-2.6,3.6-4.1,1.8-2.4,1.1-4.8.5-7.5Z"/>
  <path class="cls-8" d="m526.3,874.5c5.9,2.6,12,5.1,17.3,8.6-.2,1.1-.3,2.3-.7,3.4-.5,1.2-1.5,2.2-2.8,2.5-4.9,1.3-12.7-3.7-16.8-5.9,1.8-2.8,2.5-5.4,3-8.6Z"/>
  <path class="cls-12" d="m508.6,860.7c18.9,10.2,47.9,17.9,54.7,40.9,1.6,5.5,2.1,11.6-.9,16.7-1.8,3.1-4.6,5.2-8.1,6-7.6,1.8-17.1.8-25,.8l-38.6-.1c-12,0-24.7,1-36.6,0-3.2-.3-6.6-1-9.3-2.9-3.4-2.3-4.8-6.6-5.4-10.5-1.1-7-1.1-40.5-.2-47.6,1.6,2.1,3.7,5.3,4.3,7.8-1.1,10.3-.3,21.4-.3,31.9v4.2c0,1.2,0,2.5.3,3.7.7,3.5,2.6,5.8,5.5,7.7,1.5.9,3.4,1,5.1,1.1,20.1,1.2,40.7.2,60.9.2,9.3,0,29.5,1.1,37.6-.6,2.4-.5,4.6-2.9,5.9-4.9,1.4-2.3,2.1-5.6,1.4-8.3l-.5-3.1c-2.5-6.7-6.1-13.1-11.9-17.4l-4.1-3.4c-5.4-3.5-11.4-6.1-17.3-8.6l-5.4-2.8c-4.6-1.9-9-4.3-13.4-6.6l1.3-4.2Z"/>
  <path class="cls-14" d="m443.4,903.9h116.2l.5,3.1-.7,1.4c-4.2.3-8.5-.1-12.7-.2-7.6-.1-15.2,0-22.8,0h-80.5v-4.3Z"/>
  <path class="cls-3" d="m436.4,72.5c21.1-27.6,47.2-49,82.8-53.9,18.6-2.4,37.6-.4,55.3,5.8,5.5,1.9,10.8,4.4,16.3,6.2,4.6,1.5,9.4,2.3,14,3.5,11.6,3.2,22.4,8.7,32,16,23.6,17.9,36,46.3,39.9,75.1,2.5,18.5.7,38.7-11.1,54-2.8,3.7-6.1,6.7-9.7,9.7,1.2-3.7,2.5-7.3,4.3-10.8l-1.3-6,.6-.2c1.4-.4,2.4-.5,3.4-1.6.1-1,.2-1.4-.5-2.2-2.2-2.6-10.1-4.5-13.4-6-26.3-12.5-55-29.3-69-56,3.1-6.3,13.3-25.8,11.7-32.4l-1.3-.8c-1.1.5-2.2.8-2.8,1.9-3,5.9-4.6,12.9-7.4,19-11.8,25.8-29.1,47.6-53.7,62.2l-.5-.1c-.3-3.4-.1-6.8,0-10.2-.1-12.4-4.6-26-11.1-36.5-11.6-18.8-30.8-29.6-51.9-34.5l-7.6-1.3c-6.3-.8-12.6-1.1-19-.9Z"/>
  <path class="cls-9" d="m455.5,73.2c-.7-1.7-1.1-2.8-.4-4.5,1.5-3.8,4.7-6.7,7.6-9.5,11.3-11.3,24-20.4,38.9-26.3,28-11.2,59.4-8.6,86.8,3.1,2.2.9,5.5,2.4,6.4,4.8.4,1,.4,2.5,0,3.6-.5,1.3-1.8,2.1-3,2.5-5.3,1.7-13.1-3.3-18.3-5.1-32.7-10.9-66.4-5.7-93.5,16-6.3,5-11.5,10.8-16.9,16.7l-7.6-1.3Z"/>
  <path class="cls-12" d="m526.1,145.6c4.6-8.4,9.1-11.8,18.3-14.5,2.8-.8,5.2-.8,7.9.2l.7.9c-.8,1.8-3.5,3.1-5.3,3.8-2.9,1.2-6.9.8-9.4,2.5-5,3.3-6.1,8.9-8.8,11.2-.6.6-1.7.7-2.6.8-.7,1.6-.3,3.6-.2,5.3l-.5-.1c-.4-3.3-.2-6.8-.1-10.1Z"/>
  <path class="cls-9" d="m609.1,42.5c1,0,1.9,0,2.8.3,4.2,1.2,8.2,4.1,11.7,6.6,13,9.4,23.7,20.8,31.9,34.7,8.7,15,13.5,31.4,15.2,48.5.4,3.9,1.3,8.4.1,12.2-.7,2.4-2.1,3.3-4.3,4.4-.3,0-.6,0-.9-.1-2.2-.2-4.4-.6-5.7-2.6-2.3-3.7-1.1-12.9-1.7-17.4-1.2-9.3-3.5-18.3-7.1-27-6.4-15.5-16.6-29.1-29.9-39.5-2.6-2-16.2-9.9-17.1-11.7-.4-.8-.4-2.3-.1-3.1.8-2.4,3-3.9,5.1-5.3Z"/>
  <path class="cls-12" d="m624.7,131.8c4.2-.2,8,.1,12,1.4,4.9,1.6,10.2,5,12.5,9.8,1,2.2,1.7,4.4.8,6.7-.7,0-1.8,0-2.4-.4-2.4-1.4-4.5-8.6-9.2-11.3-4-2.3-9.9-.5-13.6-2.9-.7-1.4-.5-1.7-.1-3.3Z"/>
  <path class="cls-9" d="m576.6,112c19.9,27.7,48.2,45.9,79.5,58.5l-1.8,5.9c-2.7,12.2-3.7,24.7-6.1,36.9-2.5,15.8-5.9,31.7-18.4,42.8-21.3,17.4-47.9,24-75,21.3-13.9-1.4-27.1-5.2-40.1-10.4-2.3-.9-5.4-1.6-7-3.4-.3-1.6.2-2.1.9-3.6.5-2.2.9-4.4.8-6.7-.2-10.4-7.6-18-14.6-24.9,4.9-6.5,9.1-13.6,13.4-20.5,8.7-15.6,15.1-27.8,18-45.8,14.1-4.3,34.3-27.3,43.2-39.2,2.5-3.6,4.9-7.2,7.2-10.9Z"/>
  <path class="cls-4" d="m494.9,228.4c4.9-6.5,9.1-13.6,13.4-20.5.2.1.3.1.5.2,2.8,1,5.7,1.1,8.7,1.7,7.7,1.5,14.2,6.3,17.8,13.4,3,6.1,3.5,13.2,1.3,19.7-2.2,6.3-6.8,11.5-12.8,14.5-5,2.4-9.6,2.4-15,2.7.5-2.2.9-4.4.8-6.7-.3-10.5-7.7-18.1-14.7-25Z"/>
  <path class="cls-4" d="m629.8,256.2c-4.6-6.9-7.4-13.5-6-21.9,1.1-6.8,4.8-12.9,10.4-16.9,3.7-2.7,9.6-4.7,14.1-4-2.6,15.8-5.9,31.7-18.5,42.8Z"/>
  <path d="m542,175.6c2.7-.2,5.2,0,7.7,1,2.7,1.1,5.1,3.2,6.1,6,.9,2.4.8,5.1-.3,7.4-1.9,3.8-5.3,5.1-9.1,6.3-2.9.2-5.7,0-8.4-1.3-2.8-1.3-5.1-3.5-6-6.4-.8-2.3-.5-4.9.7-7,2.1-3.8,5.5-5,9.3-6Z"/>
  <path d="m617.7,175.6c2.8-.2,5.7-.1,8.3,1,2.7,1.2,5,3.3,6.1,6.1.9,2.4.8,5.1-.4,7.4-1.8,3.5-4.8,4.8-8.3,6-3.2.4-6.2.2-9.2-1.1-2.6-1.2-4.9-3.4-5.9-6.2-.8-2.4-.6-5,.6-7.2,2-3.6,5.2-4.8,8.8-6Z"/>
  <path class="cls-12" d="m599.4,225.5c1.2.1,2.1.2,3.2.6,1,1.5,1.1,2.8.8,4.6-.8,4.6-4.2,9.2-8.1,11.7-4.4,2.8-10.3,3.7-15.4,2.3-5.8-1.6-9.6-5.7-12.5-10.7-.5-1.3-1.2-2.8-1-4.3s.3-2.2,1.4-3.1c.2,0,.4.1.6.1,3.1,1,3.9,5.4,5.5,7.9,1.7,2.8,5.6,4.9,8.7,5.6,3.3.7,6.9-.1,9.7-1.9,4.7-3.1,5.8-7.6,7.1-12.8Z"/>
  <path class="cls-5" d="m516,467.9c-.4-1.4-1.3-3.1-.7-4.6,4-1.1,8.3-1.1,12.4-1.4,5.4-.4,10.9-1,16.4-.9,16.5.4,35.3,3.6,51.8,5.4,14.8,1.6,29.6,2.9,44.3,4.9l32.1,102.2c5.1,16.2,9.9,32.5,15.3,48.6-8.6.3-17.3.7-26,.7l-24.3-76c-2.2-6.8-4.6-13.5-6.6-20.3-1.4-4.5-2.4-9.1-4-13.5-.7-1.8-1.5-4-3.1-5.1-.7-.5-2.2-.5-3-.2-1,.4-1.7.9-2.1,1.9-1.7,4.7,1.5,101.7,1.4,115.4h-59.8c-3.7-12.3-9.5-28.9-10.9-41.4-.8-6.9-.7-14-1-20.9l-1.4-35.8c-.2-6.4-.1-13.1-1-19.4-.3-1.9-.5-3.4-2.3-4.5-1.5-.9-3.5-.8-5.2-.7-1.8-2.1-.9-6.4-3-8.8-1.8-2-4.7-.7-6.6-2.6,1-1.1,4.4-1.2,5.9-2.1,2.3-1.3,3.6-3.6,4.1-6.1.8-3.6.1-8.5-2-11.5-3.4-4.9-14.7-1.7-20-2.5l-.7-.8Z"/>
  <path class="cls-7" d="m432.7,77.2c20.1-3.1,44.7,3.3,61,15.2,15.5,11.3,24.7,28.1,27.6,46.9,1.8,11.5,1.4,23.8-1.8,34.9-5.6,19.8-21.7,42.9-33.9,59.6-12.6-4.7-23.7-4.2-36.5-.6,4.8-4.6,9.1-9.7,12.9-15.2,11.3-16.3,17.5-36.6,13.7-56.4-2.8-14.8-10.7-27.2-23.2-35.7-7.6-4.9-16.6-7.5-25.7-7.5-17.7.2-34.4,9.7-46.5,22.3-10.3,10.6-15.9,25-15.5,39.8.4,14.9,6.3,25,17,34.9-9.5-2.2-18.7-5.5-26.5-11.6-9.3-7.3-14.5-17.6-15.7-29.3-2.2-20.9,7.2-42,20.1-58,19.4-23.7,42.6-36.1,73-39.3Z"/>
  <path class="cls-2" d="m484.2,164c1.4.1,2,.2,3.2.9.5.7.9,1.3,1,2.2.3,3.1-.4,6.7-.7,9.8-1.8,18.4-9,34.9-20.7,49.2-.7.1-1.4-.1-2.2-.2-.7-.8-1-1.3-.6-2.4,1.2-3.8,7.6-11,9.9-15.6,7.2-14,9.5-28.3,10.1-43.9Z"/>
  <path class="cls-5" d="m701,402.3c25.4,22.8,52.1,44.6,78.1,66.7l3.4,3c5.1,5.6,9.6,12.2,9.3,20.1-.1,2.6-.5,4.6-1.9,6.8-3.5,5.4-9.1,9.7-13.5,14.3-8,8.4-15.4,17.5-24,25.4-4.3,3.9-12.9,11.2-19.2,10.9-5.2-.3-10.9-6.7-14.5-10.2l-3.1-3.3c-4.7-4.2-9-10.2-13-15.1-16.9-20.7-32.2-42.8-47.4-64.7l3-3.7c-1.2-11-2.5-22.1-3.9-33.1,16.2-4.3,31.3-10.4,46.7-17.1Z"/>
  <path class="cls-5" d="m715.5,536c3.3-3.3,8-5.8,11.6-8.9,6.5-5.5,12.5-12.2,18.3-18.5,8.3-9,16.1-18.4,23.9-27.7,3.2-3.9,6.1-8.6,9.9-11.8l3.4,3c5.1,5.6,9.6,12.2,9.3,20.1-.1,2.6-.5,4.6-1.9,6.8-3.5,5.4-9.1,9.7-13.5,14.3-8,8.4-15.4,17.5-24,25.4-4.3,3.9-12.9,11.2-19.2,10.9-5.2-.3-10.9-6.7-14.5-10.2l-3.3-3.4Z"/>
  <path class="cls-14" d="m715.5,536c3.3-3.3,8-5.8,11.6-8.9,6.5-5.5,12.5-12.2,18.3-18.5,8.3-9,16.1-18.4,23.9-27.7,3.2-3.9,6.1-8.6,9.9-11.8l3.4,3c-8.6,14.3-50,60.8-63.9,67.3l-3.2-3.4Z"/>
  <path class="cls-5" d="m398.5,387.9c18.9,6.9,38,13.1,57.3,18.8,3.2,9.7,6.7,19.3,10,28.9-3.8-3.3-7.6-6-12.2-8.2-5.3-2.5-53.4-19.3-55.1-19.2-1.4,0-1.9.5-2.8,1.5l.2,1.2c2.9,2.9,45.5,16.2,52.4,18.8l3.5,1.4c6.1,3.3,11.8,6.3,13.9,13.6,1.2,4.2,1.2,8.8,1.4,13.2,0,1.6.2,3.6-.7,4.9-9.2,4.3-15,7.6-18.7,17.6-2.7,7.4-2.7,16.4.5,23.6.6,1.3,1.2,2.5,1.9,3.7-5.5,6.8-14.4,19.1-23.6,20.2-4.9.6-12.9-2.2-16.8-5.4l-2.1-.8c-9.3-5.9-18.3-11.5-26.4-18.9-12.9-11.7-28.5-28.8-29.3-46.9-1-23.2,31.5-51.8,46.6-68Z"/>
  <path class="cls-5" d="m448.2,429.8l3.5,1.4c6.1,3.3,11.8,6.3,13.9,13.6,1.2,4.2,1.2,8.8,1.4,13.2,0,1.6.2,3.6-.7,4.9-9.2,4.3-15,7.6-18.7,17.6-2.7,7.4-2.7,16.4.5,23.6.6,1.3,1.2,2.5,1.9,3.7-5.5,6.8-14.4,19.1-23.6,20.2-4.9.6-12.9-2.2-16.8-5.4l-2.1-.8c1-6,15.3-30.6,19-38.2,8.6-17.3,16.8-35.1,21.7-53.8Z"/>
  <path class="cls-14" d="m448.2,429.8l3.5,1.4c-1.1,7.2-3.8,14.1-6.5,20.8-3.7,9.3-29.5,65.8-34.5,69.9-.3.3-.5.3-.9.5l-2.1-.8c1-6,15.3-30.6,19-38.2,8.4-17.1,16.6-34.9,21.5-53.6Z"/>
  <path class="cls-3" d="m624,629.4c.6-38.1-2.1-76.3-1.5-114.4l23.9,74.6c4,12.4,7.3,25.8,12.4,37.8,9.9.2,20.1-.6,30.1-.9,3.8,12.2,7.1,25,11.7,36.9l.7,3.4c1.1,3.3,2.2,8.3.7,11.5-5,3.8-111.2,6-125.7,5.7-1.3-4.7-2.4-9.4-3.9-14.1l-1-3.3c-3.1-12.4-6.8-24.7-10.3-37.1l62.9-.1Z"/>
  <path class="cls-3" d="m701.4,666.7c1.1,3.3,2.2,8.3.7,11.5-5,3.8-111.2,6-125.7,5.7-1.3-4.7-2.4-9.4-3.9-14.1,11.3.4,124.2-.9,128-2.4.3-.1.6-.5.9-.7Z"/>
  <path class="cls-14" d="m571.4,666.5c.8-.6,1.5-.8,2.5-.9,11.5-.7,23.3-.1,34.8-.3,30.6-.5,61.4-.5,91.9-2.1l.7,3.4c-.3.3-.6.6-.9.8-3.8,1.5-116.7,2.8-128,2.4l-1-3.3Z"/>
  <path class="cls-3" d="m496.5,625.5c6.8-16.4,12.4-33.3,18.4-49.9,10.5,29.9,20.3,60.2,31.5,89.9l1.1,3.4,5.3,14.9c-34.8-.3-69.6-1.8-104.3-4.7-14.2-1.2-29.4-2.1-43.3-5-3.1-.6-6.8-1.6-8.5-4.5-2.3-3.9,0-9.1,1.2-13l1.1-4c3.1-10,7-20.6,8.9-30.8l57.7,2.7c10.1.4,20.9,1.7,30.9,1Z"/>
  <path class="cls-3" d="m399,652.6c18.7,6.7,39.8,8.1,59.5,9.5,29.3,2.1,58.6,2.6,88,3.3l1.1,3.4,5.3,14.9c-34.8-.3-69.6-1.8-104.3-4.7-14.2-1.2-29.4-2.1-43.3-5-3.1-.6-6.8-1.6-8.5-4.5-2.3-3.9,0-9.1,1.2-13l1-3.9Z"/>
  <path class="cls-14" d="m399,652.6c18.7,6.7,39.8,8.1,59.5,9.5,29.3,2.1,58.6,2.6,88,3.3l1.1,3.4c-.2.1-.3.2-.5.3-3.3,1.4-18.5.3-22.9.2-30.2-.7-99.9-1.8-126.3-12.8l1.1-3.9Z"/>
  <path class="cls-14" d="m639.6,318.4c8.2,4.7,16,12,23.6,17.8l48.7,37.8,3.8,3.1c2.1,1.5,5.8,3.6,6.7,6.1.3.7.4,1,0,1.7-3.5,6.9-49.5,24.4-59.2,27.4-12.3,3.9-30.9,9.6-42.9,3.2-20.1-10.7-37.5-55.4-44-76.3l8-2.5,3.9-1.3,51.4-17Z"/>
  <path class="cls-14" d="m584.3,336.8l3.9-1.3c6.4,16.2,22.2,60.5,38.8,67.7,10.8,4.7,37.1-6.8,47.8-11.3,11.1-4.7,27.3-11.2,37-17.8l3.8,3.1c2.1,1.5,5.8,3.6,6.7,6.1.3.7.4,1,0,1.7-3.5,6.9-49.5,24.4-59.2,27.4-12.3,3.9-30.9,9.6-42.9,3.2-20.1-10.7-37.5-55.4-44-76.3l8.1-2.5Z"/>
  <path class="cls-5" d="m584.3,336.8l3.9-1.3c6.4,16.2,22.2,60.5,38.8,67.7,10.8,4.7,37.1-6.8,47.8-11.3,11.1-4.7,27.3-11.2,37-17.8l3.8,3.1-.7.4c-16.4,9.5-70.2,35.4-88.2,30.2-15.8-4.6-31-41.1-36.5-55.3-1.4-3.6-4-12.9-5.6-15.3-.1-.2-.2-.3-.3-.4Z"/>
  <path class="cls-5" d="m573.4,345.9c2.4,2.7,4.6,11.5,6,15.2,7.1,18,19.6,45.5,35.8,56.6,10.7,7.3,23,4.9,34.9,2.7l3.5,30.6-12.8,16.1-74.7-8.2c4.7-.7,9.5-.8,14.2-1.2,3.4-.3,14.8,0,17-2.2.9-1,.9-1.1.9-2.3-1.3-.9-2.6-.9-4.2-.9-8.4.1-17.1,1.5-25.6,2.2l-54.9,4.5c-4.4-14-8-28.4-12-42.5,9.9,1.2,20.2,1,29.3-3.7,22.6-11.8,35.4-43.8,42.6-66.9Z"/>
  <path class="cls-12" d="m573.5,407.7c6.1-1,11.9,3.1,12.9,9.2s-3.1,11.9-9.2,12.9c-6.1,1-11.9-3.1-13-9.2-1-6.1,3.2-11.9,9.3-12.9Z"/>
  <path class="cls-14" d="m573.2,412.2c3.7-1.2,7.6.9,8.7,4.5s-.9,7.6-4.6,8.7c-3.6,1.1-7.5-.9-8.7-4.6-1-3.6,1-7.4,4.6-8.6Z"/>
  <path class="cls-12" d="m574.1,372.9c6.1-.7,11.7,3.7,12.4,9.8.7,6.1-3.7,11.7-9.8,12.4-6.2.7-11.8-3.7-12.5-9.8s3.7-11.7,9.9-12.4Z"/>
  <path class="cls-14" d="m573.5,377.3c3.7-1,7.5,1.2,8.5,4.8,1,3.7-1.1,7.5-4.8,8.5-3.7,1.1-7.6-1.1-8.6-4.8-1-3.7,1.2-7.5,4.9-8.5Z"/>
  <path class="cls-5" d="m452.7,511.3c13,14.1,40.2,8,44.1,12.9l15.7,44.9c-6.1,17.6-12.6,35-19,52.5-9.6-1.1-19.6-1.1-29.3-1.5l-54.8-2.5,16.8-57.4c2.4-8.1,5.8-24.3,10-31.1,1.9-3.3,12.7-13,16.5-17.8Z"/>
  <path class="cls-9" d="m469.2,684.9c7,1.1,14.7,1.1,21.8,1.4,12.5.6,25,1.1,37.5,1.5-6.8,49.2-14.8,98.3-21.8,147.4l-4-6.3c-1-1.2-2.1-2.5-3.2-3.7-6.5-6.6-15.4-10.3-24.6-10.3-10.7-.1-19.3,4.5-26.7,11.9,2.9-17.2,5.2-34.5,7.7-51.7l13.3-90.2Z"/>
  <path class="cls-9" d="m629.2,687.3l9.6-.3c7.8,46.2,14.3,92.6,21.3,138.9-6.6-6.5-14.4-10.9-23.8-11.5-10.2-.7-19,3-26.6,9.6-3.3,3.3-5.6,7-8,10.9-1.1-11.4-3.4-23-5.2-34.4l-10.2-66.7c1.1-1.7,1.8-3.8,1.7-5.8-.3-7-3.4-14.9-5.2-21.7-1.6-6-2.7-12-3.5-18.2,16.6.2,33.3,0,49.9-.8Z"/>
  <path class="cls-3" d="m428.4,122.6c3.2.2,6.2.6,9.3,1.4,11.6,3.1,21.3,10.8,27.4,21.2,8.5,14.6,9,30.5,4.9,46.5-3.9-5-7.6-10-10.9-15.4q-1.4-.5-2.8.1c-.2.4-.5.8-.6,1.2-.3,1.7,6.1,14.2,7,16.8,1.1,3.1,1.6,6.3,2.1,9.6l-.3.7c-3.1,7.6-9.4,17.3-15.8,22.6-2.6,2.2-6,2.8-9.4,2.4-4.9-.7-9.1-3.8-12.1-7.7-4.7-6.3-5.3-13.4-4.2-21,1.4-7.8,4.9-14.1,8-21.2.6-1.3.8-1.8.3-3.2-1.2-.4-1.6-.3-2.6.4-4.5,3.2-8.9,12.1-13.3,16.4-3.1,3-7.1,5.7-11.1,7.3-5.3,2.2-11.1,2.4-16.3.1-5.3-2.3-9.4-6.9-11.4-12.3-2-5.3-2-11.2.5-16.3,5.3-11.1,19.7-15,31-16,2.5-.2,6.3.3,8.6-.6,1-.4,1.1-.7,1.5-1.7-.4-1.3-.3-1.9-1.8-2.3-2.1-.6-5.5-.2-7.8-.3-9.3-.7-17-3-24.9-7.9,10.6-10.7,22.9-18,37.8-20.5,4,.5,4.4,7.5,8.4,9q1.4-.6,2-2c-.2-2.3-2.2-5-3.5-7.3Z"/>
  <path d="m442.1,131.5c.1,0,.3,0,.4.1,3.2.8,14.3,18.2,16.5,21.8-2.1,3.5-11.5,20.8-14,21.9-.5.2-1.1.3-1.7.5-6-7.2-12.6-14.6-17.8-22.4,3.9-7.3,11.2-15.6,16.6-21.9Z"/>
  <path class="cls-11" d="m442.6,137.7c4.2,4.3,7.8,10.7,11.4,15.7-3.2,5.2-6.3,10.6-9.8,15.6l-.9.1c-4.1-5.4-8.5-10.6-12.7-15.9l12-15.5Z"/>
  <path class="cls-3" d="m474,317.9c1.5-2.1,2-4.9,3.5-6.8h1.5c.4.3.8.5,1.1.9,1.2,1.9.2,11.6,3.9,17.3,3.3,5,8.4,6.7,13.9,7.8,9.2-.2,17.3-2.4,24-8.7,1.4-1.7,2.2-3.3,3-5.4l29.5,10.5,3.5,1.2c4.3,1.6,8.6,3.2,12.9,4.7-3.3,11.8-7.7,23.1-12.9,34.3-1.4,3.8-2.8,6.9-5.5,10-7.2,11.8-16.5,24.3-30.6,27.9-6.8,1.7-14.5,1.2-21.4.4-1.1-3.7-4-10.3-3.4-14.1.6-1.5.6-2.9.6-4.5-.7-1.4-1.5-2.7-2.3-4-5-8.2-7-20.2-9.6-29.4l-11.7-42.1Z"/>
  <path class="cls-14" d="m521.9,328.3c1.4-1.7,2.2-3.3,3-5.4l29.5,10.5,3.5,1.2c4.3,1.6,8.6,3.2,12.9,4.7-3.3,11.8-7.7,23.1-12.9,34.3-.9-1.2-1.1-2.5-1.4-4,.2-.4.4-.9.5-1.3.4-1.5.2-1.8-.5-3.1-2.3-1.5-6.1-1.3-8.9-1.7l-4.7-1.1c-8.7-3.6-12.3-10.5-15.6-18.8-.5-1.4-1.1-3.8-2.1-4.9-.9-1-2.4-.6-3.6-.6l-.9-.3c1.3-.7,3-1.5,3.9-2.7.9-1.1,1.2-2.4.8-3.7-.4-1.4-2.1-2.2-3.5-3.1Z"/>
  <path class="cls-14" d="m558,334.7c4.3,1.6,8.6,3.2,12.9,4.7-3.3,11.8-7.7,23.1-12.9,34.3-.9-1.2-1.1-2.5-1.4-4,.2-.4.4-.9.5-1.3.4-1.5.2-1.8-.5-3.1-2.3-1.5-6.1-1.3-8.9-1.7,2.5-9.8,8.4-18.7,10.3-28.9Z"/>
  <path class="cls-5" d="m554.4,333.5l3.5,1.2c-1.9,10.2-7.8,19.1-10.2,28.9l-4.7-1.1c5.1-8,8.1-20,11.4-29Z"/>
  <path class="cls-14" d="m536.2,387.3c.5-.3,14.8-4,15.1-4,.4,0,.8.3,1.2.4-7.2,11.8-16.5,24.3-30.6,27.9-6.8,1.7-14.5,1.2-21.4.4-1.1-3.7-4-10.3-3.4-14.1.6-1.5.6-2.9.6-4.5l2.7.3c.8,1.9,1.3,3.4,3.3,4.2.2.1.5.2.7.3l2.3-2.7c4.6-.1,9.2.6,13.9.4,2.7-1.7,4.9-3.5,7.3-5.8h5.4c1.2-.6,1.9-1.6,2.9-2.8Z"/>
  <path class="cls-5" d="m527.7,390.2h5.4c-4.3,5.1-8.4,9.4-15.5,10-5.3.4-11.6-.7-16.7-2l-4-.2c.6-1.5.6-2.9.6-4.5l2.7.3c.8,1.9,1.3,3.4,3.3,4.2.2.1.5.2.7.3l2.3-2.7c4.6-.1,9.2.6,13.9.4,2.8-1.7,5-3.6,7.3-5.8Z"/>
  <path class="cls-14" d="m474,317.9c1.5-2.1,2-4.9,3.5-6.8h1.5c.4.3.8.5,1.1.9,1.2,1.9.2,11.6,3.9,17.3,3.3,5,8.4,6.7,13.9,7.8.4,1.6.7,3.3,2.2,4.3.7.4,1.6.6,2.4.9.2.1.5.2.7.3l.4.2c-4.9,4-6.6,16-7.2,22-.9,10.1.5,19.6,3.9,29.1l-2.7-.3c-.7-1.4-1.5-2.7-2.3-4-5-8.2-7-20.2-9.6-29.4l-11.7-42.3Z"/>
  <path d="m505.6,342.4c.8.9,1.6,1.4,1.4,2.7-.5,3.8-3.3,8-4.3,11.9-2.9,11-2.3,28.7,3.9,38.6l-2.3,2.7c-.2-.1-.5-.2-.7-.3-2-.8-2.6-2.3-3.3-4.2-3.3-9.5-4.8-19.1-3.9-29.1.6-5.9,2.3-17.9,7.2-22l2-.3Z"/>
  <path d="m521.6,338.4c1.2,0,2.7-.4,3.6.6,1,1.1,1.6,3.5,2.1,4.9,3.3,8.3,7,15.2,15.6,18.8l4.7,1.1c2.8.4,6.5.2,8.9,1.7.7,1.3.9,1.6.5,3.1-.1.4-.3.9-.5,1.3-10.3-.9-19.6-2.3-26.7-10.6-4.7-5.6-8.7-13.6-8.2-20.9Z"/>
  <path class="cls-8" d="m497.9,337.1c9.2-.2,17.3-2.4,24-8.7,1.4.8,3.1,1.7,3.5,3.3.3,1.4,0,2.6-.8,3.7-.9,1.2-2.6,2-3.9,2.7-3.3,1.5-6.5,2.6-10,3.3-1.5.3-3.6.4-5,1l-2,.2-.4-.2c-.2-.1-.5-.2-.7-.3-.8-.3-1.7-.5-2.4-.9-1.6-.8-1.9-2.5-2.3-4.1Z"/>
  <path d="m527.7,390.2c-4-1.1-7.4-3-9.5-6.7-1-1.7-1.9-3.9-1.4-5.9,1.1-1.1,1-1.2,2.5-1.4,2.9,1.9,3.5,6.1,6.4,7.9,3.7,2.3,6.3-.6,10.4,3-.9,1.2-1.6,2.3-3,2.9-1.8.3-3.6.2-5.4.2Z"/>
  <path d="m533.4,372.6c1.2,0,2.2,0,3.4.6,3.1,1.4,7.4,1.7,9.9,4.1.3,1.6.1,1.8-.7,3.3-1.5.2-3,.3-4.5.1-2.7-.5-6.4-1.6-7.9-4.1-.8-1.7-.6-2.4-.2-4Z"/>
  <path class="cls-12" d="m470.7,451.6l.4-.8c.9,1.6,1.5,3.4,2.1,5.2,1.4-.2,2.6-1,3.8-1.6,1.7-.4,3.5-.6,5.2-.9l4.3-.6c3.1-.6,6.3-.9,9.5-1.3,1.4-.1,2.8-.4,4.1-.6,2.7.2,4.7,1.3,7.3,1.7,4.9,5.5,2.5,13.9,7.3,15.9.6-.3.8-.3,1.3-.8l.6,1c5.2.8,16.6-2.4,20,2.5,2.1,3.1,2.8,7.9,2,11.5-.5,2.5-1.8,4.8-4.1,6.1-1.5.9-4.9,1-5.9,2.1,1.9,2,4.8.6,6.6,2.6,2.1,2.5,1.2,6.7,3,8.8-1,3.9-1.7,6.8-4.8,9.6l-3,7.8-1.8-6.1-2-.3c-2.2-.4-3.8-.7-6,0-.8.7-1.2,1.2-1.6,2.1-1.2.9-2.5,1.8-3.7,2.8-1.9,1-3.8,2-5.7,3l-3.9,1.2c-1.5.2-3.1.5-4.7.6-1.7,0-2.8-.2-4.2.8l-.1.1c-3.9-4.9-31.1,1.3-44.1-12.9-1-1.1-1.8-2.4-2.7-3.6-.7-1.2-1.4-2.4-1.9-3.7-3.3-7.2-3.3-16.2-.5-23.6,3.7-10,9.5-13.3,18.7-17.6.9-1.3.7-3.3.7-4.9,1,1.6,0,3,1.1,4.5l1.5-.4c2.1-1.8,1.1-7.3,1.2-10.2Z"/>
  <path class="cls-5" d="m528.6,513.8c1.1-1.3,3.1-1.4,4.8-1.8l-3,7.8-1.8-6Z"/>
  <path class="cls-5" d="m470.7,451.6l.4-.8c.9,1.6,1.5,3.4,2.1,5.2-.3,1-.7,1.7-1.3,2.5-1.1-1.3-1-5-1.2-6.9Z"/>
  <path class="cls-9" d="m508.8,493.3c-.9.3-1.8.7-2.6,1.2-2.2,1.4-3.9,3.8-4.4,6.3-.7,3.1-.3,7.2,1.5,9.9,2.1,3,4,3.3,7.4,3.8.9.1,1,.1,1.7.7-.9,1.1-1.7,1.5-3.1,2-9.3,3.1-38.1.5-46.7-3.7-5.6-2.8-9.9-7.7-11.9-13.6-2.2-6.8-1.2-14.4,2.1-20.7,3.6-7,9.2-10.2,16.4-12.6,1,2.5,2.1,5.4,4.4,7.1,5.9,4.4,20.8-.2,28.2-1.1-2.3,2.8-3.5,5.2-3.5,8.9,0,3,.7,6,2.9,8.1,2.3,2.3,4.8,2.7,7.9,2.7l-.3,1Z"/>
  <path class="cls-9" d="m524.7,473c2.6-.2,5.1-.6,7.3.9,1.5,1,3.3,2.9,3.5,4.8.2,1.7-.5,3.2-1.6,4.5-4.5,4.9-14.2,4.4-20.4,4.7-2.9.4-5.8.9-8.2-1.2-1.6-1.3-2.8-3.2-3-5.2-.1-1.8.4-3.4,1.6-4.7,4.2-4.7,15-3.5,20.8-3.8Z"/>
  <path class="cls-9" d="m496.9,455.8c2.2-.4,5-.7,7,.5,1.9,1.2,3.7,3.4,4,5.7.2,1.3-.2,2.5-1,3.5-3.3,4.2-18.1,4.6-23.3,5.3-2.4.5-4.5,1.2-6.7-.4-1.5-1.1-2.5-2.7-2.9-4.5-.3-1.7.1-3.5,1.2-4.9,3.6-4.6,15.9-4.5,21.7-5.2Z"/>
  <path class="cls-9" d="m528.2,495.7c1.3-.3,1.9.1,3,.6,1.4,1.4,2,2.8,2.3,4.8.3,2.4,0,4.5-1.6,6.5-5.3,2.9-15,2.3-21.1,3-1.1-.3-2.2-.6-3-1.4-1.5-1.3-2.3-4-2.4-5.9-.1-1.4.4-2.8,1.4-3.8,4.3-4.4,15.6-3.6,21.4-3.8Z"/>
  <path class="cls-13" d="m509.2,492.2c4.6-.8,9.2-1,13.9-.7-3.5,2-10.2,1.1-14.3,1.9l.4-1.2Z"/>
  <path class="cls-7" d="m519,515.6c.5-.9.9-1.4,1.6-2.1,2.2-.7,3.8-.4,6,0l-1.7.3c-.1.3-.3.6-.3,1,0,4.5,8.9,32,10.6,38.1l37.4,133.8c2,7.2,11.2,36.4,11.1,41.5-.1,1.7-1.5,3.4-2.9,4.1-1.6.9-3.1.6-4.8.3-2.1-1.7-3.3-5.4-4.3-7.9-5-12.9-9.2-26.2-13.8-39.2l-26.2-74.7-20.3-58.1c-3.4-9.8-7.4-19.7-10.3-29.6,1.6-.1,3.1-.4,4.7-.6l3.9-1.2c1.9-1,3.8-2,5.7-3,1.1-.9,2.4-1.8,3.6-2.7Z"/>
  <path class="cls-2" d="m509.7,521.5c14.9,42.6,29,85.6,43.4,128.4l18,53.7c2.2,6.5,4.9,12.9,6.8,19.4.7,2.3,1.5,5.2.8,7.5l-.8.5c-2.3-1.5-3.4-4.4-4.4-6.9-4.9-12.4-8.5-25.5-12.7-38.2l-24.7-73-20.2-59.7c-3.4-10-7.6-20.3-10.1-30.5l3.9-1.2Z"/>
  <path class="cls-2" d="m515.3,518.5c1.2-1,2.4-1.9,3.7-2.8l21.2,72.3,6.7,22.8c.9,3.1,2.2,6.3,2.9,9.4.4,1.7.4,2.5-.3,4.1-1.3.3-1.4.3-2.7-.1-3-4.8-7.5-24.1-9.4-30.5-7.2-25.2-14.4-50.3-22.1-75.2Z"/>
  <path class="cls-3" d="m442.6,270.3c.8,0,1.5-.1,2.3-.1,2.4,0,4.6.9,6.3,2.7,2,2.1,3.2,5,3.1,7.9-.3,10.1-11.9,17.4-18.7,23.3q-.3,1.4.4,2.6c3.7.9,13.4-5.8,18.1-7.1,4.7-1.3,10.2-1.5,14.5,1.1,2.2,1.3,3.8,3.5,4.3,6s0,5.1-1.4,7.2c-3.8,5.8-13.8,6-19.9,4.2-4.4-1.3-10.8-5.2-15.4-4.4-1,4.9,18.3,10.1,21.2,24.1.5,2.4,0,4.8-1.4,6.9-1.6,2.4-4.1,3.9-6.9,4.3-16.3,2.3-14.7-26.9-19.9-30.7l-.9.3c-2.3,7.9-.4,15.8-4.1,23.7-2.1,4.5-4.8,7.1-9.6,8.8-2.3,0-4.6-.3-6.5-1.6-2.2-1.5-3.6-3.9-4-6.6-1.1-8.4,5-15.2,11.2-20,2.1-1.6,5.1-3.4,6.7-5.5.8-1,.6-1.3.4-2.5-.4-.4-.9-1.2-1.5-1.1-1.4.1-3.6,1.7-5,2.4-7.1,3.8-15.7,7.6-24,5.8-2.2-.5-4-1.6-5.2-3.5-1.6-2.6-2-6.5-1.2-9.4.7-2.4,2.3-4.2,4.5-5.2,9.6-4.5,19.5.9,28.5,3.7,1.3.4,1.7.1,2.8-.5.2-1.1.4-1.3-.5-2.2-5-5.7-13.3-6.9-18.6-16.4-1.6-2.9-2.3-6.7-1.2-9.9.8-2.5,2.3-4.3,4.7-5.5,2.3-1.1,4.9-1.3,7.3-.4,2.1.7,3.9,2.4,5.5,4,8.4,8.8,4.3,17,8.6,25.5q1.3.6,2.7.3c1.6-2.6.8-15.4,2.8-21.1,1.8-5.4,4.9-8.8,10-11.1Z"/>
  <path class="cls-14" d="m630.2,819.5c6.8-.5,13.3.6,19.2,4.2,7.3,4.4,12,11.6,14,19.8,2.1,8.8,1.4,18.3-3.5,26.1s-12.1,11.7-20.9,13.7c-7.3.8-14.4-.4-20.7-4.4-7.3-4.7-11.9-12.2-13.6-20.6-1.8-8.9-.8-18.1,4.4-25.7,5.1-7.7,12.3-11.4,21.1-13.1Z"/>
  <path class="cls-14" d="m470.9,820c7-.6,13.9.7,19.8,4.5,6.7,4.3,11.4,11.1,13.1,18.9,1.9,8.9.2,19.6-4.8,27.2-4.7,7.2-11.7,11.3-20,13-7.6.9-14.8-.1-21.3-4.3-6.7-4.3-11.4-11.1-13-18.8-1.9-9-.2-19.6,4.9-27.3,5.1-7.7,12.5-11.5,21.3-13.2Z"/>
  <path class="cls-14" d="m599.1,279.7c10.8-6.1,21.7-12.1,32.5-18.1,1.9,17.5,3.4,35.5,6.3,52.8-15.2,5.3-30.6,10.1-45.9,15.3l-5.9,2-8.7,2.8c6.9-18.3,14.5-36.5,21.7-54.8Z"/>
  <path class="cls-5" d="m586,331.7c6.2-13.2,11.9-26.7,17.8-40,1.6-3.6,2.7-7.5,4.4-10.9.8-1.7,2.5-4,4.4-4.6,1-.3.6-.3,1.5.3.5,4.5-19.1,44.4-22.2,53.2l-5.9,2Z"/>
  <path class="cls-7" d="m450.2,378.2c3.1,2.1,6.2,4.2,9,6.7,2.1,1.3,4.2,2.5,6.1,4,4.8,2.9,9.6,5.9,14.5,8.6l4.9,2.1c2.8.8,5.4,1.5,8.3,2,4.5,17,8.9,34.5,14.5,51.2-2.6-.4-4.6-1.5-7.3-1.7-1.4.2-2.8.5-4.1.6-3.1.4-6.3.7-9.5,1.3l-4.3.6c-1.7.3-3.5.4-5.2.9-9.2-25.4-17.7-51-26.9-76.3Z"/>
  <path class="cls-7" d="m450.2,378.2c3.1,2.1,6.2,4.2,9,6.7,2.1,1.3,4.2,2.5,6.1,4,5.4,21.8,15.8,42.4,21.3,64.1l-4.3.6c-1.7.3-3.5.4-5.2.9-9.2-25.4-17.7-51-26.9-76.3Z"/>
  <path class="cls-2" d="m459.2,384.9c2.1,1.3,4.2,2.5,6.1,4,5.4,21.8,15.8,42.4,21.3,64.1l-4.3.6c-2.2-7.9-5.2-15.7-7.8-23.4l-15.3-45.3Z"/>
  <path class="cls-7" d="m484.7,399.6c2.8.8,5.4,1.5,8.3,2,4.5,17,8.9,34.5,14.5,51.2-2.6-.4-4.6-1.5-7.3-1.7-6-16.9-9.4-34.7-15.5-51.5Z"/>
  <path class="cls-2" d="m479.8,397.5l4.9,2.1c6.1,16.8,9.5,34.6,15.4,51.5-1.4.2-2.8.5-4.1.6-2.6-6.1-4.1-12.9-5.9-19.3l-10.3-34.9Z"/>
  <path class="cls-14" d="m430.6,338.4c2.2,4.6,5.8,10.3,6.3,15.4,1.3,12.8-7.8,12.2,7.3,20.5l2.4,6.5,1.8,5.1c1.3,5.2,3.7,10.6,5.5,15.7-10.6-3.1-60.5-18-65.9-23-.9-.8-1.3-1.9-1.3-3.1.1-2.5,2.8-4.6,4.5-6.3l4.1-3.6c4.2-3.8,8.2-7.7,12.5-11.3,4.8,1.1,9.1,1.2,13.4-1.6,5-3.3,7.3-8.9,9.4-14.3Z"/>
  <path class="cls-14" d="m430.6,338.4c2.2,4.6,5.8,10.3,6.3,15.4,1.3,12.8-7.8,12.2,7.3,20.5l2.4,6.5c-17-4.4-34.8-9-51.3-15,4.2-3.8,8.2-7.7,12.5-11.3,4.8,1.1,9.1,1.2,13.4-1.6,5-3.5,7.3-9.1,9.4-14.5Z"/>
  <path class="cls-5" d="m391.2,369.3l4.1-3.6c16.5,6,34.3,10.6,51.3,15l1.8,5.1c-7.7-2.6-15.8-4.5-23.7-6.8-11.2-3.1-22.3-6.6-33.5-9.7Z"/>
  <path class="cls-3" d="m491.8,232.9c2,1.2,3.7,3.2,5.2,4.9,3.8,4.5,8.5,11.4,7.8,17.6-.9,8-8.7,11.1-14,15.8-1.3,1.2-1.6,1.7-1.7,3.5.8,1.2.9,1.1,2.3,1.4,4.3-1,7.9-4.4,11.3-7.1,3.5,2.4,7,5.5,9.1,9.2,3.2,5.4,2.8,10.5,1.2,16.3-1.7,3.4-3.6,7.2-6.2,10-17.1-13.7-25.5-29.9-30.4-51,4.1-7.2,10.3-14,15.4-20.6Z"/>
  <path class="cls-7" d="m453.7,323.2c6,.1,10.9.1,16.5-2.4,5.9,21,12.1,41.9,17.6,63-2.7-1.4-5.4-2.7-8.3-3.7l-5.6-1.8c-7.2-2.1-14.5-4-22-5,.8-4.1,1.8-8.2,2.2-12.4-3.3-2.9-7-5.3-10.8-7.7,5.2.2,9.7.3,13.9-3.4,2.7-2.4,4.1-5.7,4.3-9.3.4-6.9-3.3-12.4-7.8-17.3Z"/>
  <path class="cls-2" d="m474,378.3c-1.3-5.1-9.8-30.4-8.9-33.4l1-.9c1.6.5,2.3,1.4,3,2.9,5.1,10,5.7,23,10.4,33.3l-5.5-1.9Z"/>
  <path class="cls-1" d="m519.1,274.1c21.7,7.9,44.3,11.1,67.2,7.5-.1,6,3,11.4.6,17-.5,1.4-.9,2.4-1.8,3.5-6.9,1.5-34.8.3-43.8.3-6.8-6.7-15.1-13.4-20.8-21-2-2.6-1.8-4.1-1.4-7.3Z"/>
  <path class="cls-3" d="m492.2,298.3c4.6,4.8,13.2,13.8,20,14.7,1.3-.5,1.4-.6,2.2-1.7-.1-3.3-3.7-2.7-1.3-6.6,2.1.9,5.1,6.6,6,8.7,1.2,3,1.4,6.5,0,9.5-2,4.1-6.3,6.4-10.5,7.8-5,1.6-11.2,2.3-15.9-.4-3.3-1.9-5.6-5.4-6.5-9.1-.7-2.7-.8-5.5-.9-8.2,2.9.7,7.4,2.5,10.1.9l.6-1.2c-.9-1.9-2-2.4-4-3.1-3.6-1.3-13.9-2.7-15.6-6-.2-.4-.4-.9-.6-1.4,3.3,1.9,8.1,4.4,12,4.2,1.3-.1,2.4-.5,3.2-1.5,1.6-1.9,1.4-4.3,1.2-6.6Z"/>
  <path class="cls-9" d="m491.2,315.1c1.9.1,3.6-.1,5.2,1.1l.2.8c.8,2.9,1.5,4.3,4.2,5.8.5.3,1,.5,1.5.8,1.4.9,1.6,1.2,2.1,2.8-.3,1.7-.8,2.8-1.7,4.3-.2.1-.5.1-.7.2-2.3.6-5.9-.7-7.8-2-2.4-1.6-4.3-4.2-4.7-7.1-.5-2.7.1-4.6,1.7-6.7Z"/>
  <path class="cls-14" d="m519.8,287c15,15.4,30.7,30.2,45.5,45.9-6.4-2.4-12.8-4.9-19.3-7-3.7-1.2-7.4-2.5-11-3.9l-9.3-3.3c-.5-2.5-1.3-5-2-7.4-1.9-3.8-5.2-7.3-6.8-11.1-.6-1.3,0-1.8.5-3,1-3.4,1.8-6.7,2.4-10.2Z"/>
  <path class="cls-5" d="m523.6,311.2c-1.9-3.8-5.2-7.3-6.8-11.1-.6-1.3,0-1.8.5-3,8.5,10.1,19.1,19.4,28.5,28.8-3.7-1.2-7.4-2.5-11-3.9l-9.3-3.3c-.4-2.7-1.1-5.1-1.9-7.5Z"/>
  <path class="cls-14" d="m523.6,311.2c1.1-.1,1.1,0,2,.7,3.2,2.8,7.2,6.4,9.4,10l-9.3-3.3c-.6-2.6-1.3-5-2.1-7.4Z"/>
  <path class="cls-9" d="m467.4,268c1.5-3.2,3.1-6.1,5-9.1.8,2.8,1.5,5.8,2.5,8.5.9,2.5,1.8,5.1,2.7,7.6l3.4,7.3c3.2,5.5,6.5,10.6,10.6,15.4l.6.6c.1,2.3.3,4.7-1.3,6.6-.8,1-1.9,1.4-3.2,1.5-3.9.2-8.7-2.3-12-4.2-1.4-2.4-3.1-4-5.5-5.4-.8-.3-1.7-.7-2.2-1.4-3.4-4.6-3.6-14.2-3.1-19.6,2.4.3,4.6.6,7,.4,1.1-.8,1.4-1.5,2-2.7-1.4-2.7-5.4-1.4-7.3-3.6l.8-1.9Z"/>
  <path class="cls-3" d="m467.4,268c1.5-3.2,3.1-6.1,5-9.1.8,2.8,1.5,5.8,2.5,8.5.9,2.5,1.8,5.1,2.7,7.6-3.8,1.3-5.9,3.2-7.7,6.8-1.8,3.6-2.4,8.5-1,12.3.4,1,.9,1.9,1.4,2.8-.8-.3-1.7-.7-2.2-1.4-3.4-4.6-3.6-14.2-3.1-19.6,2.4.3,4.6.6,7,.4,1.1-.8,1.4-1.5,2-2.7-1.4-2.7-5.4-1.4-7.3-3.6l.7-2Z"/>
  <path class="cls-9" d="m467.4,268c1.5-3.2,3.1-6.1,5-9.1.8,2.8,1.5,5.8,2.5,8.5-1.6,1.1-3.6,2.2-5.6,2-1.2-.2-1.2-.6-1.9-1.4Z"/>
  <path class="cls-3" d="m481,282.3c3.2,5.5,6.5,10.6,10.6,15.4-2.9-.9-6-1.7-8.7-3.1-1.9-.9-3.7-2.3-4.3-4.5-.8-2.8,1.1-5.5,2.4-7.8Z"/>
  <path class="cls-5" d="m545.2,306.5h38.5l-8,19.9-3.1,7.8-27.4-27.7Z"/>
  <path class="cls-6" d="m465.7,245.4c3.6-.1,7.3,0,11,.1l-5.7,7.7c-9.5,2.3-15.6,8.3-24.2,12-3.1,1.3-7,1.5-9.9,3.1-2.6,1.5-4.4,4.3-6.2,6.6l-4.3,5.5-3.1-5.2c10.1-12.8,25.9-27,42.4-29.8Z"/>
  <path class="cls-3" d="m540.2,506.8q.1,0,.2.1l.9.8c1.5,2.5,2,53.3,3.3,62l-2.5-8.1c-2.8-11.7-6.6-23.2-9.6-34.8,2.3-6.4,4.2-14.5,7.7-20Z"/>
  <path class="cls-6" d="m466,234.4c6-.1,11.3,1.1,16.9,2.9l-3.2,4.2c-10.9-.9-20.6-.1-31.2,2.5-4.8,1.3-9.4,3.1-14,4.8.8-1,1.5-1.9,2.3-2.8,7.2-8.4,18.7-10.7,29.2-11.6Z"/>
  <path class="cls-10" d="m459.2,379.2c7.9.1,23.4,5.6,29.7,10.2,2.9,2.1,4.2,3.9,4.7,7.4-10.3.5-26.1-11.7-34.4-17.6Z"/>
  <path class="cls-9" d="m659.2,196.2c2.7,1.5,5,3.4,6.5,6.2,3.3,6.3,1.2,13.7-.9,20l-1.7,2.7c-.7-1-3.4-25.1-3.9-28.9Z"/>
  <path class="cls-9" d="m655,203.5c2.2,5,2.5,20,3,26-2,.8-4.1,1.4-6.1,2.1h-1.5c-.7-1.5,3.9-24,4.6-28.1Z"/>
  <path class="cls-5" d="m399.5,222.8c3.1,2.1,5.7,4.9,8.3,7.5l-2.6,10.6c-3.1-2.4-5.9-5.3-8.8-7.9l3.1-10.2Z"/>
  <path class="cls-10" d="m441.2,356.7c3,1.8,5.8,4,8.6,6-.6,2.9-1.1,5.8-1.7,8.6-2.9-1.2-5.7-3.1-8.5-4.7l1.6-9.9Z"/>
  <path class="cls-6" d="m466.2,259.1l.3.7c-1.7,3.3-3.3,6.7-4.7,10.1-2.6-.6-5.1-.9-7.7-1.2-.6-.2-1.1-.5-1.6-.9,1.2-3.3,10.3-7,13.7-8.7Z"/>
  <path class="cls-6" d="m441.5,250.7l.6.1c-.1.4-14,12.4-16,14.5l-.5.2c-.2-2.8,3-7.2,4.4-9.6,3.7-2,7.6-3.6,11.5-5.2Z"/>
  <path class="cls-6" d="m457.2,273.4l2.1.6c1.9,2,1.2,10.3,1.5,13.4-.6-.2-1.3-.4-1.8-.7-2.1-1.2-.7-6.3-.7-8.5-.1-1.7-.7-3.3-1.1-4.8Z"/>
  <path class="cls-6" d="m455.4,290.5c2.5.1,4.5.4,6.7,1.7l-.1.7-1.8.3c-2,.5-4.3,1.2-6.4,1l-.2-.9,1.8-2.8Z"/>
  <path class="cls-5" d="m439.1,233.6l2.3.1.3.7c-1.1,1.6-2.6,2.8-4,4.2-.3.4-.7.6-1.1.9.2-2,1.6-4.1,2.5-5.9Z"/>
  <path class="cls-12" d="m790,507.2c7.7,1.9,12.5,6.5,18.2,8.1,8.5,2.3,26.7-1.3,31.6,7.1,1.7,2.9,1.9,7.3.8,10.4-1.4,4.1-5.2,6-8.7,7.9-.6,3.3-1.3,6-4.1,8.2-4.7,3.4-13.4,2-19,1.8-6.9,7.9-12.6,9.8-22.8,10.5,3.2,3.6,5.3,6.6,4.8,11.7-.3,3-1.8,6.1-4.2,8-2.3,1.9-5.3,2.4-8.2,2.1-1.8-.2-3.8-.7-5.3-1.8-6-4.4-13.4-15.8-18-22-4.1-5.5.8-7.6-6.6-10.6,1.1-1.3,2.1-2.2,3.5-3.1l4.6-3.8c10.6-9.8,19.2-21.5,29.8-31.2,1-1.2,2.3-2.2,3.6-3.3Z"/>
  <path class="cls-9" d="m786.3,510.6c5,1.6,10.1,3.2,14.7,5.6-7.7,4.5-4.1,6.5-7.6,10.1-4.1,4.2-6.7,1.6-8.9,9.5-.7,2.6-.6,5.2.9,7.5,1.9,3.2,5.8,5.3,9.4,6,2.9.5,6,.5,8.9.6-5.1,4.4-10,7.4-17.1,6.9-1.6-.1-3.2-.5-4.8-.8-4.4-5-9.5-14.7-16.7-15.2-2.5-.2-4.8.6-7,1.8l-1.6-.6c10.6-10,19.2-21.7,29.8-31.4Z"/>
  <path class="cls-4" d="m756.5,541.8l1.6.6c-1.3,1.3-2.7,3-4.5,3.5l-1.7-.4,4.6-3.7Z"/>
  <path class="cls-9" d="m793.1,531c1.4-.1,2.8-.1,4.2,0,6.7.2,24.6-.5,28.9,4.6,1.2,1.4,1.4,3,1.2,4.8-.3,3-1.7,4.2-4,6-7.2,1-15.8-.2-23.1-.7-3.6-.2-8-.7-10.4-3.7-1.2-1.5-1.3-3.1-1-4.9.5-3.1,1.9-4.4,4.2-6.1Z"/>
  <path class="cls-9" d="m763.1,544.7h.7c3.5.2,5.3,2.3,7.4,4.8,3.5,4,16,18.5,15.4,23-.4,3-3.5,4.8-5.8,6.2-.6,0-1.2,0-1.8-.1-5.7-.7-13.5-13-17-17.5-2.1-2.7-5.7-7-5-10.6.6-2.8,3.9-4.5,6.1-5.8Z"/>
  <path class="cls-9" d="m802.8,519.9c7.9-.3,17.5.3,25.4,1.4,2.8.4,6.2,1.3,7.8,3.8,1,1.5,1,3.5.6,5.3-.6,2.9-2.7,4.1-5,5.5-.7-1.3-1.4-2.6-2.3-3.7-5.3-6.1-23.7-5-31.5-5.4,1.1-3.3,2-4.9,5-6.9Z"/>
</svg>