<?xml version="1.0" encoding="UTF-8"?>
<svg id="_图层_1" data-name="图层 1" xmlns="http://www.w3.org/2000/svg" xmlns:xlink="http://www.w3.org/1999/xlink" viewBox="0 0 1134 950">
  <defs>
    <style>
      .cls-1 {
        fill: url(#_未命名的渐变);
      }

      .cls-2 {
        fill: #febfc6;
      }

      .cls-3 {
        fill: #7c7169;
      }

      .cls-4 {
        fill: #fe8f9f;
      }

      .cls-5 {
        fill: #763e3d;
      }

      .cls-6 {
        fill: #5f0038;
      }

      .cls-7 {
        fill: #650004;
      }

      .cls-8 {
        fill: #feddc8;
      }

      .cls-9 {
        fill: #a48969;
      }

      .cls-10 {
        fill: #87d9fe;
      }

      .cls-11 {
        fill: #fee7e0;
      }

      .cls-12 {
        fill: #ff6365;
      }

      .cls-13 {
        fill: #221917;
      }

      .cls-14 {
        fill: #fefefe;
      }
    </style>
    <linearGradient id="_未命名的渐变" data-name="未命名的渐变" x1="558.98" y1="668.98" x2="557.17" y2="645.3" gradientTransform="translate(0 950) scale(1 -1)" gradientUnits="userSpaceOnUse">
      <stop offset="0" stop-color="#ffdac3"/>
      <stop offset="1" stop-color="#ffecea"/>
    </linearGradient>
  </defs>
  <path d="m434.56,75.64c7.37-8.94,13.67-17.93,22.15-25.95,24.07-22.77,52.85-35.22,86.32-34.27,13.63.45,27.11,3.01,39.95,7.59,5,1.78,9.84,4.07,14.84,5.81,3.85,1.34,8.25,1.47,12.21,2.67,17.92,5.42,34.3,14.74,47.15,28.5,20.51,21.96,31.31,55.88,30.28,85.74-.68,19.67-7.15,34.92-21.48,48.27,1.51.97,3.1,1.98,4.47,3.15,4.04,3.47,6.27,8.7,6.63,13.94.65,9.39-3.1,17.74-9.09,24.72,1.16,18.38,1.01,47.05-8.21,63.33-3.25,5.74-10.91,13.41-12.69,17.14,3.7,5.82,16.61,13.62,22.43,18.14l32.88,25.93c7.95,6.15,16.29,12.02,23.94,18.52,2.8,2.38,5.51,5,5.84,8.84-2.61,7.26-16.26,12.21-22.73,15.51l51.94,44.2c8.91,7.58,18.52,14.85,26.9,22.99,6.6,6.4,11.73,14.4,11.83,23.87.06,5.84-2.02,10.47-6.13,14.63-1.27,1.1-2.6,2.17-3.76,3.38-10,9.57-18.69,20.4-28.54,30.12-1.98,1.6-3.94,3.22-5.87,4.88-1.56.97-2.77,1.87-3.98,3.26-4.9,3.05-10.18,5.94-16.18,4.47-18.9-4.62-64.35-74.18-78.34-92.92-2.75,3.51-5.76,6.98-8.24,10.69l41.85,133.3,13.16,41.75c2.24,7.11,4.98,14.34,6.64,21.59.9,3.93,1.84,9.84.01,13.59-.83,1.71-1.96,1.96-3.7,2.44-7.63,2.11-17.31,1.72-25.27,2.21-11.21.7-22.91,1.99-34.14,1.76l14.96,113.37c1.26,9.51,2.39,19.06,3.81,28.54.9,6.04,2.26,12.05,2.8,18.14.33,3.72.41,7.7-.45,11.36,19.49,10.36,47.65,17.62,54.7,41.2,1.53,5.11,1.86,10.77-.71,15.63-1.33,2.51-3.85,5.32-6.65,6.18-2.57.79-5.47,1.03-8.14,1.17-17.42.86-35.25.09-52.72.09-13.98,0-28.72.96-42.59-.2-2.42-.2-4.65-.83-6.76-2.07-3.49-2.06-5.02-5.43-5.88-9.25-1.36-6.05-1.45-44.89.05-50.76.16-2.41-.52-5.31-.74-7.76-.96-10.56-2.28-20.98-3.67-31.49l-10.94-83.32c-1.95-.15-4.01-.22-5.8-1.08-1.81-.87-2.91-2.27-3.9-3.97-2.84-4.9-4.4-11.07-6.26-16.42l-9.58-27.8c-7.25-.32-14.51-.12-21.76-.53-8.54,50.86-18.23,101.56-26.43,152.47-.95,5.9-1.45,11.86-2.38,17.77,18.88,10.21,47.86,17.9,54.71,40.87,1.63,5.47,2.12,11.57-.89,16.69-1.83,3.11-4.58,5.2-8.07,6.04-7.63,1.83-17.11.83-24.98.81l-38.56-.07c-11.97-.01-24.67,1.04-36.57.01-3.21-.28-6.58-1.02-9.28-2.87-3.36-2.31-4.79-6.62-5.39-10.49-1-6.41-1.26-41.04-.19-47.03.63-5.28-.88-10.75-.15-16.13.72-5.3,2.23-10.59,3.29-15.84,1.78-8.81,3.2-17.7,4.74-26.55l20.66-119c-13.48-.58-51.74-3.46-63.35-7.29-4.68-1.54-6.46-4.44-8.57-8.58,0-.15,0-.29,0-.44,0-.24.02-.49.04-.74.42-10.2,6.87-26.52,9.78-36.82,9.08-32.74,18.58-65.37,28.5-97.87-18.43-.2-37.65-14.52-51.01-26.42-14.26-12.69-29.99-30.09-30.98-50.03-1.29-25.95,30.34-51.89,46.38-69.87-2.65-.96-5.63-1.82-7.84-3.63-1.89-1.54-3.43-3.63-3.56-6.14-.41-7.64,15.43-18.7,20.63-24.59-1.24-2.12-2.37-4.45-2.92-6.86-1.71-7.47,1.68-13.23,5.41-19.32-3.46.54-6.99,1.08-10.5.72-4.56-.47-9.08-2.3-11.94-6.03-2.09-2.76-2.99-6.23-2.53-9.66.5-3.79,2.58-7.12,5.68-9.35,5.4-3.89,11.87-3.95,18.16-3.06-2.79-3.11-5.32-6.29-6.7-10.29-1.59-4.59-1.66-9.4.55-13.82,1.37-2.73,3.63-4.88,6.57-5.8,4.92-1.54,9.51-.03,13.82,2.32,1.95-7.3,5.92-13.23,8.76-20.09,2.5-6.04,3.78-12.32,6.58-18.32-4.34-2.18-8.05-4.68-10.91-8.68-6.17-8.63-4.99-18.73-3.31-28.54-5.16,5.09-11.38,9.45-18.58,10.96-6.55,1.41-13.38.11-18.96-3.6-5.75-3.8-9.55-9.85-10.85-16.59-1.26-6.55.01-13.58,3.86-19.07,4.82-6.88,12.88-11.09,21.01-12.59-5.57-2.08-10.7-4.3-15.65-7.63-3.1,4.25-5.79,8.53-7.74,13.43-4.68,11.76-5.16,25.42.04,37.1,6.19,13.88,12.9,15.36,25.71,20.42,4.7,1.86,10.93,6.33,12.73,11.23,1.15,3.16-.74,10.02-2.02,13.05-.87,2.06-1.61,3.05-3.67,3.84-4.86-1.26-10.27-7.59-13.57-11.34.68-4.35,2.04-8.65,3.18-12.9-14.5-1.46-28.8-4.49-40.86-13.16-10.25-7.37-16.65-17.75-18.6-30.23-3.31-21.18,5.05-43.24,17.47-60.11,19.8-26.9,43.46-40.06,76.36-45.06Zm218.34,164.24c-3.17,8.07-6.87,14.18-12.53,20.78,1.45,14.95,3.51,29.87,5.17,44.8.13,1.13-.06,1.91.84,2.67,9.19-6.27,12.94-20.14,14.85-30.5,2.28-12.33,3.16-26.27,1.86-38.73l-.49-.65c-3.2.59-6.47,1.34-9.71,1.62Zm-56.52,49.94c.86-1.92,2.52-4.55,2.05-6.66-.86-.25-1.56-.39-2.46-.41-.86,1.85-.86,4.92-.17,6.86.08.22.17.44.26.66l.32-.45Z"/>
  <path class="cls-6" d="m668.79,860.83c19.49,10.36,47.65,17.62,54.7,41.2,1.53,5.11,1.86,10.77-.71,15.63-1.33,2.51-3.85,5.32-6.65,6.18-2.57.79-5.47,1.03-8.14,1.17-17.42.86-35.25.09-52.72.09-13.98,0-28.72.96-42.59-.2-2.42-.2-4.65-.83-6.76-2.07-3.49-2.06-5.02-5.43-5.88-9.25-1.36-6.05-1.45-44.89.05-50.76,1.41,2.61,3.29,5.73,4.17,8.53,4.25,6.58,9.64,11.58,16.96,14.58,8.84,3.58,18.75,3.44,27.48-.39,9.27-4.04,15.17-11.25,18.88-20.47l1.2-4.24Z"/>
  <path class="cls-6" d="m667.59,865.07c4.37,2.31,8.73,4.57,13.25,6.57l5.42,2.86c5.9,2.56,11.85,5.17,17.3,8.61l4.09,3.37c5.78,4.38,9.48,10.64,11.94,17.35l-116.05.07c.17-7-1.36-27.41.74-32.55,4.25,6.58,9.64,11.58,16.96,14.58,8.84,3.58,18.75,3.44,27.48-.39,9.27-4.04,15.17-11.25,18.88-20.47Z"/>
  <path class="cls-14" d="m680.85,871.64l5.42,2.86c5.9,2.56,11.85,5.17,17.3,8.61l4.09,3.37c-.57,1.54-1.49,3.39-2.52,4.68-1.23,1.54-2.91,2.18-4.83,2.38-7.56.79-17.93-5.54-23.59-10.08,1.26-1.33,2.72-2.71,3.7-4.25,1.6-2.5.98-4.89.42-7.58Z"/>
  <path class="cls-6" d="m686.27,874.5c5.9,2.56,11.85,5.17,17.3,8.61-.16,1.1-.29,2.4-.71,3.43-.53,1.3-1.56,2.18-2.92,2.5-4.85,1.17-12.55-3.78-16.61-5.98,1.75-2.77,2.4-5.4,2.94-8.57Z"/>
  <path class="cls-13" d="m668.79,860.83c19.49,10.36,47.65,17.62,54.7,41.2,1.53,5.11,1.86,10.77-.71,15.63-1.33,2.51-3.85,5.32-6.65,6.18-2.57.79-5.47,1.03-8.14,1.17-17.42.86-35.25.09-52.72.09-13.98,0-28.72.96-42.59-.2-2.42-.2-4.65-.83-6.76-2.07-3.49-2.06-5.02-5.43-5.88-9.25-1.36-6.05-1.45-44.89.05-50.76,1.41,2.61,3.29,5.73,4.17,8.53-2.1,5.14-.57,25.55-.74,32.55l-.12,4.18c0,.51,0,1.02.03,1.53.17,3.23,1.33,6.41,3.88,8.53,1.75,1.46,3.61,2.01,5.83,2.26,5.77.67,11.82.38,17.63.38h28.61s32.02,0,32.02,0c6.22,0,12.64.28,18.83-.29,3.33-.3,5.56-1.36,7.67-4.08,2.05-2.64,2.62-5.68,2.23-8.95l-.57-3.65c-2.46-6.71-6.16-12.97-11.94-17.35l-4.09-3.37c-5.45-3.44-11.4-6.05-17.3-8.61l-5.42-2.86c-4.53-2-8.88-4.26-13.25-6.57l1.2-4.24Z"/>
  <path class="cls-14" d="m603.54,903.9l116.05-.07.57,3.65c-.3.26-.54.61-.9.77-.61.26-105.79-.08-115.84-.16l.12-4.18Z"/>
  <path class="cls-6" d="m508.65,860.69c18.88,10.21,47.86,17.9,54.71,40.87,1.63,5.47,2.12,11.57-.89,16.69-1.83,3.11-4.58,5.2-8.07,6.04-7.63,1.83-17.11.83-24.98.81l-38.56-.07c-11.97-.01-24.67,1.04-36.57.01-3.21-.28-6.58-1.02-9.28-2.87-3.36-2.31-4.79-6.62-5.39-10.49-1-6.41-1.26-41.04-.19-47.03,1.79,1.7,3.69,4.91,4.31,7.32,4.34,6.3,9.53,11.35,16.68,14.35,8.7,3.59,18.46,3.59,27.16-.01,9.88-4.11,15.81-11.66,19.83-21.31l1.24-4.31Z"/>
  <path class="cls-6" d="m507.41,865c4.43,2.32,8.82,4.7,13.43,6.63l5.42,2.83c5.87,2.55,11.96,5.11,17.32,8.64l4.07,3.37c5.8,4.29,9.49,10.7,11.94,17.35l-116.15.03c-.02-10.45-.81-21.54.3-31.88,4.34,6.3,9.53,11.35,16.68,14.35,8.7,3.59,18.46,3.59,27.16-.01,9.88-4.11,15.81-11.66,19.83-21.31Z"/>
  <path class="cls-14" d="m520.84,871.63l5.42,2.83c5.87,2.55,11.96,5.11,17.32,8.64l4.07,3.37c-.63,1.69-1.46,3.36-2.58,4.78-1.37,1.73-3.52,2.28-5.63,2.35-7.17.22-17.51-5.51-22.66-10.26,1.23-1.28,2.66-2.61,3.64-4.09,1.64-2.49,1-4.92.42-7.61Z"/>
  <path class="cls-6" d="m526.27,874.46c5.87,2.55,11.96,5.11,17.32,8.64-.17,1.09-.29,2.34-.68,3.37-.48,1.25-1.47,2.19-2.76,2.54-4.86,1.33-12.72-3.72-16.8-5.94,1.77-2.79,2.41-5.41,2.93-8.61Z"/>
  <path class="cls-13" d="m508.65,860.69c18.88,10.21,47.86,17.9,54.71,40.87,1.63,5.47,2.12,11.57-.89,16.69-1.83,3.11-4.58,5.2-8.07,6.04-7.63,1.83-17.11.83-24.98.81l-38.56-.07c-11.97-.01-24.67,1.04-36.57.01-3.21-.28-6.58-1.02-9.28-2.87-3.36-2.31-4.79-6.62-5.39-10.49-1-6.41-1.26-41.04-.19-47.03,1.79,1.7,3.69,4.91,4.31,7.32-1.1,10.34-.31,21.44-.3,31.88l-.02,4.24c.02,1.2.04,2.53.28,3.71.69,3.45,2.63,5.81,5.54,7.68,1.46.94,3.44.99,5.14,1.09,20.04,1.17,40.65.23,60.74.22,9.36,0,29.58,1.12,37.73-.63,2.43-.52,4.62-2.9,5.86-4.93,1.42-2.34,2.07-5.64,1.4-8.31l-.54-3.11c-2.45-6.65-6.14-13.05-11.94-17.35l-4.07-3.37c-5.36-3.53-11.44-6.09-17.32-8.64l-5.42-2.83c-4.61-1.93-9.01-4.31-13.43-6.63l1.24-4.31Z"/>
  <path class="cls-14" d="m443.45,903.85l116.15-.03.54,3.11-.65,1.35c-4.18.3-8.47-.1-12.67-.16-7.61-.1-15.23-.04-22.85-.04h-80.53s.02-4.23.02-4.23Z"/>
  <path class="cls-2" d="m441.24,75.19c20.85-27.58,47.02-48.86,82.41-53.84,18.57-2.45,37.45-.57,55.17,5.51,5.78,1.96,11.31,4.75,17.15,6.52,4.73,1.43,9.65,2.28,14.42,3.6,11.15,3.18,21.61,8.42,30.83,15.45,23.72,17.93,36.42,46.07,40.26,74.99,2.47,18.56,1,38.76-10.74,54.13-2.8,3.65-6.07,6.92-9.73,9.71,1.05-3.58,2.29-6.93,3.82-10.34-.32-2.18-.63-4.35-1.05-6.51.15-.01.3-.02.45-.04,1.45-.14,2.13-.31,3.3-1.19.3-1.4.29-1.33-.46-2.55-5.88-3.23-12.25-5.52-18.25-8.53-24-12.05-51.62-28.37-63.87-53.51,2.59-5.32,13.63-26.99,11.37-32.1-.23-.52-.32-.4-.93-.66-1.13.33-2.22.56-2.93,1.59-2.44,3.56-4.81,13.84-7.2,18.84-12.64,26.43-28.98,47.09-54.09,62.58-.6-3.54-.22-7.29-.07-10.86-.74-12.97-4.87-26.33-11.89-37.27-11.52-17.94-30.62-29.08-51.18-33.45l-8.03-1.4c-6.23-.61-12.49-.83-18.76-.68Z"/>
  <path class="cls-11" d="m460,75.87c-.72-2.58-.58-3.84.79-6.16,2.29-3.89,5.79-7.04,9-10.15,14.34-13.87,31.9-24.18,51.42-28.71,21.25-4.94,43.21-2.32,63.64,4.75,4.07,1.41,8.87,2.84,12.45,5.21,1.26.83,2.13,1.62,2.36,3.16.25,1.61.04,2.79-.75,4.18-1.75,1.47-3.19,1.84-5.48,1.6-6.98-.74-15.46-5.55-22.55-7.49-29.27-8.02-59.61-1.94-83.79,16.38-7.16,5.42-13.26,11.82-19.07,18.63l-8.03-1.4Z"/>
  <path class="cls-13" d="m531.09,147.99c3.98-7.2,8.35-11.6,16.43-13.87,3.23-.91,6.29-1.27,9.55-.21l.74.9c-.6,1.62-2.42,2.46-3.9,3.17-4,1.93-9.11,1.5-12.55,4.4-3.51,2.96-4.73,8.01-7.07,10.21-.39.37-1.6.45-2.12.51-1.17,1.74-.73,3.78-1.01,5.76-.6-3.54-.22-7.29-.07-10.86Z"/>
  <path class="cls-11" d="m613.58,45.37c1.11-.04,2.2-.08,3.29.18,3.36.79,6.35,3.02,9.17,4.93,12.15,8.21,22.42,18.13,30.59,30.35,10.93,16.36,17.13,35,18.98,54.54.35,3.64,1.17,8.18.32,11.75-.59,2.47-1.89,3.42-4,4.65-1.14.03-2.3.03-3.43-.15-2.03-.32-3.29-1.39-4.01-3.32-1.83-4.93-1.1-12.37-1.66-17.74-.81-7.85-3.02-15.87-5.85-23.22-6.43-16.69-18.47-33.91-33.42-43.95-4.32-2.9-11.12-5.27-14.2-9.44-.33-1.09-.62-2.13-.36-3.27.58-2.5,2.57-3.96,4.59-5.31Z"/>
  <path class="cls-13" d="m629.49,134.52c4.44-.11,8.39.11,12.61,1.64,4.67,1.69,9.88,5.04,11.86,9.76,1,2.38,1.48,4.39.43,6.8-.44-.12-1.77-.32-2.08-.56-3.26-2.62-3.96-8.17-8.73-11.11-4.17-2.57-10-.64-13.94-3.04-.71-1.49-.45-1.9-.16-3.49Z"/>
  <path class="cls-11" d="m581.45,114.64c2.25,3.51,5.08,6.63,7.75,9.83,14.14,17,30.78,28.19,50.21,38.53,6.94,3.69,14.09,7.51,21.55,10.04l-1.63,5.46c-2.94,12.5-4.26,25.2-6.22,37.86-3,16.58-6.01,30.86-18.83,42.81-22.05,17.52-48.64,23.9-76.41,20.76-16.18-1.83-31.4-6.92-46.19-13.58l1.82-3.97c.45-1.95.82-4.01.81-6.01-.05-10.53-7.47-18.35-14.57-25.19,4.82-6.81,9.23-13.86,13.64-20.94,8.35-14.86,14.8-27.67,17.66-44.68,16.6-8.03,32.48-25.26,43.35-40.02,2.38-3.61,4.84-7.2,7.07-10.91Z"/>
  <path class="cls-8" d="m499.74,231.19c4.82-6.81,9.23-13.86,13.64-20.94.18.16.36.33.55.48,1.42,1.1,4.28,1.18,6.07,1.54,11.37,2.32,19.73,8.03,22.15,20.05,1.35,6.76-.11,13.78-4.07,19.43-3.9,5.63-9.88,9.48-16.62,10.71-2.62.47-5.33.19-7.96-.06.45-1.95.82-4.01.81-6.01-.05-10.53-7.47-18.35-14.57-25.19Z"/>
  <path class="cls-8" d="m634.28,259.18c-3.97-8.19-7.54-13.8-5.5-23.29,1.44-6.85,5.58-12.84,11.48-16.61,3.62-2.29,8.61-3.89,12.85-2.91-3,16.58-6.01,30.86-18.83,42.81Z"/>
  <path d="m546.21,178.39c3.06-.24,6.07-.17,8.88,1.21,2.62,1.29,4.94,3.54,5.82,6.37.73,2.34.58,4.81-.6,6.97-1.8,3.3-4.74,4.68-8.13,5.8-3.25.41-6.35.37-9.36-1.09-2.65-1.29-4.97-3.49-5.91-6.33-.8-2.42-.59-4.99.69-7.21,1.93-3.36,5.12-4.64,8.61-5.73Z"/>
  <path d="m622.73,178.35c2.65-.19,5.3-.08,7.8.9,2.75,1.08,5.18,3.15,6.31,5.92.97,2.35.9,5.01-.2,7.31-1.8,3.83-5.06,5.22-8.82,6.47-3.02.14-5.78.1-8.57-1.2-2.7-1.25-5.12-3.51-6.11-6.36-.8-2.29-.67-4.78.46-6.94,1.91-3.66,5.41-5.04,9.14-6.1Z"/>
  <path class="cls-13" d="m604.81,227.96c.97.2,1.85.56,2.77.92.97,1.53,1.02,2.88.69,4.66-.83,4.49-4.11,8.85-7.88,11.35-4.37,2.89-10.12,3.79-15.2,2.58-6.03-1.43-9.8-5.4-12.89-10.51-.51-1.19-1.15-2.6-1.15-3.91,0-1.43.35-2.78,1.31-3.85,3.64.13,5.14,9.01,9.91,11.65,3.32,1.84,9.16,2.73,12.8,1.54,6.62-2.17,6.41-8.7,9.17-13.64.15-.27.31-.53.47-.8Z"/>
  <path class="cls-4" d="m519.51,465.81c9.22-.71,18.87-2.2,28.1-2.08,11.14.15,22.53,2.1,33.62,3.34,21.27,2.39,42.56,4.89,63.86,6.99,15.75,50.27,32.16,100.41,47.29,150.86-8.62.3-17.25.53-25.87.68l-24.34-75.9c-3.7-11.58-6.85-23.71-11.19-35.04-.55-1.43-1.02-2.98-2.39-3.82-1.27-.77-2.26-.52-3.63-.28-1.61,1.44-1.93,2.15-2.05,4.31-.66,11.39.28,23.32.51,34.75.53,26.04,1.4,52.18,1.28,78.23h-59.81c-3.57-12.4-8.23-25.4-10.43-38.09-1.43-8.23-1.25-17.01-1.56-25.35l-1.54-40.16c-.15-3.89.55-16.29-3.1-18.32-1.6-.89-3.49-.81-5.24-.6-1.07-2.68-.95-6.29-2.84-8.57-1.61-1.95-3.55-1.8-5.87-2.12l-.49-.72c3.76-1.6,7.51-3.37,9.36-7.26,1.43-3.02,1.21-6.33-.09-9.35-5.01-11.62-15.57-2.67-21.76-5.94-.16-.09-.3-.22-.45-.33l-1.35-5.23Z"/>
  <path class="cls-5" d="m443.78,79.41c18.01-1.57,39.42,4.76,54.04,15.16,15.59,11.1,25.14,27.79,28.12,46.59,1.82,11.48,1.59,23.82-1.41,35.09-5.22,19.63-22.12,43.71-34.05,60.26-12.55-4.74-23.83-4.15-36.61-.72,6.04-5.28,11.27-12.1,15.51-18.88,10.22-16.39,15.23-36.31,10.66-55.37-3.52-14.65-11.89-26.32-24.68-34.24-7.41-4.37-16.11-6.38-24.68-6.14-17.46.49-34.01,10.03-45.75,22.56-10.23,10.83-15.66,25.33-15.07,40.22.63,14.7,6.68,24.61,17.17,34.35-10.29-2.75-20.23-6.09-28.4-13.21-8.8-7.67-13.35-18.13-14.12-29.69-1.51-22.44,9.37-44.03,23.91-60.44,20.63-23.27,44.55-33.69,75.35-35.54Z"/>
  <path class="cls-7" d="m489.74,166.34c.41.11,1.31.28,1.68.56,1.63,1.18,1.7,3.53,1.76,5.38.68,18.92-9.51,43.49-22.18,57.19-1.18-.83-1.72-1.19-2.29-2.58.47-2.52,11.44-17.44,13.79-24.01,2.15-5.99,3.94-12.1,4.99-18.39.72-4.27.4-14.25,1.88-17.43.11-.24.24-.48.36-.72Z"/>
  <path class="cls-4" d="m705.82,404.96l77.22,65.71,3.7,3.24c5.09,5.67,9.55,12.34,9.15,20.32-.14,2.78-1,4.84-2.57,7.1-3.72,5.37-9.2,9.71-13.68,14.44-8.28,8.72-15.93,18.23-25.06,26.09-4.05,3.49-11.98,9.86-17.73,9.32-5.09-.49-10.65-6.7-14.14-10.05l-3.28-3.51c-21.03-21.82-42.17-53.4-59.51-78.73l3.14-3.76c-1.35-11.02-2.61-22.05-3.78-33.1,16.15-3.98,31.37-10.41,46.55-17.09Z"/>
  <path class="cls-4" d="m783.04,470.67l3.7,3.24c5.09,5.67,9.55,12.34,9.15,20.32-.14,2.78-1,4.84-2.57,7.1-3.72,5.37-9.2,9.71-13.68,14.44-8.28,8.72-15.93,18.23-25.06,26.09-4.05,3.49-11.98,9.86-17.73,9.32-5.09-.49-10.65-6.7-14.14-10.05l-3.28-3.51c3.97-3.19,8.25-5.75,12.12-9.19,19.12-16.95,35.48-37.93,51.5-57.77Z"/>
  <path class="cls-14" d="m783.04,470.67l3.7,3.24c-11.21,16.38-47.61,59.04-64.03,67.22l-3.28-3.51c3.97-3.19,8.25-5.75,12.12-9.19,19.12-16.95,35.48-37.93,51.5-57.77Z"/>
  <path class="cls-4" d="m403.34,390.63c18.75,6.91,37.75,13.11,56.96,18.6,4.1,9.24,7.19,19.59,10.25,29.24-2.93-2.8-6.48-5.55-10.1-7.38-11.68-5.91-25.24-9.46-37.66-13.58-6.69-2.22-13.57-5.15-20.46-6.56-1.18.4-1.34.46-2.11,1.42l.44,1.14c4.07,3.59,43.78,15.83,52.31,18.99l3.51,1.52c6.3,3.38,11.71,6.25,13.88,13.62,1.6,5.46,1.51,12.2,1.42,17.87-8.04,2.5-14.05,6.91-18.01,14.48-3.72,7.13-4.65,16.05-2.13,23.72.72,2.18,1.77,4.69,3.14,6.55-5.08,6.83-14.14,18.7-22.88,20.2-5.27.9-12.8-1.89-17.14-4.88-.17-.12-.33-.27-.5-.4l-2.1-.81c-9.69-5.93-18.88-12.21-27.3-19.88-12.59-11.48-27.57-28.34-28.2-46.09-.84-23.41,31.54-51.48,46.68-67.78Z"/>
  <path class="cls-4" d="m452.97,432.5l3.51,1.52c6.3,3.38,11.71,6.25,13.88,13.62,1.6,5.46,1.51,12.2,1.42,17.87-8.04,2.5-14.05,6.91-18.01,14.48-3.72,7.13-4.65,16.05-2.13,23.72.72,2.18,1.77,4.69,3.14,6.55-5.08,6.83-14.14,18.7-22.88,20.2-5.27.9-12.8-1.89-17.14-4.88-.17-.12-.33-.27-.5-.4l-2.1-.81c2.29-8.27,9.35-18.82,13.49-26.78,10.73-20.63,21.57-42.51,27.32-65.09Z"/>
  <path class="cls-14" d="m452.97,432.5l3.51,1.52c-1.07,6.34-3.17,12.24-5.52,18.2-3.55,9.03-30.68,69.02-35.59,72.43-.42.29-.61.32-1.11.53l-2.1-.81c2.29-8.27,9.35-18.82,13.49-26.78,10.73-20.63,21.57-42.51,27.32-65.09Z"/>
  <path class="cls-2" d="m627.4,517.82l24,74.92c3.93,12.29,7.29,25.41,12.25,37.31,10,0,20.06-.62,30.06-.99l11.7,37.11.9,3.29c.81,2.99,2.27,8.33.59,11.11-.59.98-1.69,1.08-2.76,1.28-9.49,1.76-21.28,1.56-31.15,2.14-30.56,1.79-61.16,2.66-91.77,2.62-1.31-4.67-2.49-9.43-3.94-14.05l-1.22-4.08c-2.12-11.66-6.79-24.73-10.06-36.31,20.91.02,42.06.61,62.94-.17.85-37.9-1.85-76.2-1.54-114.19Z"/>
  <path class="cls-2" d="m706.31,669.47c.81,2.99,2.27,8.33.59,11.11-.59.98-1.69,1.08-2.76,1.28-9.49,1.76-21.28,1.56-31.15,2.14-30.56,1.79-61.16,2.66-91.77,2.62-1.31-4.67-2.49-9.43-3.94-14.05,14.36-.07,124.58-.26,129.03-3.1Z"/>
  <path class="cls-14" d="m705.41,666.18l.9,3.29c-4.46,2.84-114.67,3.03-129.03,3.1l-1.22-4.08c11.92-.41,23.83-.19,35.75-.4,31.21-.41,62.41-1.05,93.6-1.91Z"/>
  <path class="cls-2" d="m519.57,578.37c11.34,29.67,20.41,60.23,31.71,89.91l1.34,3.82c1.42,4.86,3.33,9.7,4.99,14.5-40.1-.32-80.17-2.4-120.09-6.25-9.62-1.01-20.53-1.37-29.76-4.09-2.66-.78-5.29-1.8-6.57-4.45-1.87-3.87.32-8.83,1.47-12.61l1.13-3.8c3.03-10.24,6.47-20.54,9.01-30.91l55.99,2.6c10.73.5,21.55,1.34,32.29,1.25,7.51-15.78,12.61-33.47,18.48-49.95Z"/>
  <path class="cls-2" d="m403.79,655.39c15.54,5.26,31.88,7.03,48.14,8.53,21.67,1.84,43.39,3.01,65.13,3.52,11.41.31,22.82.26,34.22.85l1.34,3.82c1.42,4.86,3.33,9.7,4.99,14.5-40.1-.32-80.17-2.4-120.09-6.25-9.62-1.01-20.53-1.37-29.76-4.09-2.66-.78-5.29-1.8-6.57-4.45-1.87-3.87.32-8.83,1.47-12.61l1.13-3.8Z"/>
  <path class="cls-14" d="m403.79,655.39c15.54,5.26,31.88,7.03,48.14,8.53,21.67,1.84,43.39,3.01,65.13,3.52,11.41.31,22.82.26,34.22.85l1.34,3.82c-9.1.84-18.87,0-28.03-.21-28.19-.63-98.6-2-121.93-12.7l1.13-3.8Z"/>
  <path class="cls-14" d="m644.84,321.18c24.32,17.94,47.91,37.04,71.77,55.6l3.9,3.09c1.92,1.38,5.48,3.37,6.47,5.55.29.63.58,1.54.27,2.19-3.14,6.48-45.35,22.81-54.46,25.9-13.18,4.47-34.2,11.6-47.3,4.98-20.68-10.46-37.43-55.45-44.41-76.38l8.15-2.72,3.81-1.24c17.25-5.44,34.36-12.32,51.82-16.96Z"/>
  <path class="cls-14" d="m589.22,339.39l3.81-1.24c6.71,16.03,22.3,60.78,38.62,67.82,11.17,4.82,39.22-7.6,50.07-12.26,10.05-4.32,26.39-10.86,34.9-16.92l3.9,3.09c1.92,1.38,5.48,3.37,6.47,5.55.29.63.58,1.54.27,2.19-3.14,6.48-45.35,22.81-54.46,25.9-13.18,4.47-34.2,11.6-47.3,4.98-20.68-10.46-37.43-55.45-44.41-76.38l8.15-2.72Z"/>
  <path class="cls-4" d="m589.22,339.39l3.81-1.24c6.71,16.03,22.3,60.78,38.62,67.82,11.17,4.82,39.22-7.6,50.07-12.26,10.05-4.32,26.39-10.86,34.9-16.92l3.9,3.09c-15.78,8.74-33.02,16.65-49.92,23.03-11.21,4.23-29.71,12.04-41.2,6.68-17.44-8.14-34.05-52.77-40.18-70.19Z"/>
  <path class="cls-4" d="m578.31,348.63c2.72,3.56,4.74,11.91,6.48,16.32,6.9,17.46,18.97,43.51,34.37,54.77,10.95,8.01,23.32,5.48,35.79,3.5,1.71,10.04,2.49,20.4,3.62,30.53-4.32,5.32-8.58,10.68-12.79,16.09-24.98-2.69-50.03-5.14-74.96-8.3,4.68-.3,9.36-.73,14.04-1.11,5.62-.44,11.55-.58,17.09-1.61.97-.88.88-.89.99-2.2l-.83-.91c-1.57-.57-2.98-.74-4.65-.7-10.79.25-22.02,1.95-32.82,2.82-15.31,1.24-31.06,1.8-46.23,3.97-4.39-14.09-8.04-28.48-11.98-42.71,9.83,1.21,19.96,1.09,28.95-3.5,22.91-11.69,35.41-43.87,42.92-66.98Z"/>
  <path class="cls-13" d="m578.01,410.5c6.12-1.21,12.04,2.79,13.21,8.91,1.17,6.12-2.87,12.02-9,13.15-6.07,1.12-11.91-2.87-13.07-8.94-1.16-6.07,2.8-11.93,8.86-13.13Z"/>
  <path class="cls-14" d="m577.86,414.96c2.4-.83,5.06-.29,6.93,1.42,1.88,1.7,2.68,4.29,2.09,6.76-.59,2.47-2.48,4.42-4.92,5.08-3.61.99-7.36-1.07-8.47-4.65-1.11-3.58.82-7.39,4.36-8.62Z"/>
  <path class="cls-13" d="m578.48,375.65c6.06-.92,11.74,3.19,12.75,9.24,1.02,6.04-3,11.78-9.03,12.9-3.99.74-8.06-.73-10.66-3.84-2.6-3.11-3.32-7.38-1.88-11.17,1.44-3.79,4.81-6.51,8.81-7.12Z"/>
  <path class="cls-14" d="m578.11,380.09c3.66-1.12,7.53.93,8.66,4.59,1.13,3.65-.91,7.54-4.56,8.68-3.67,1.15-7.58-.9-8.71-4.58-1.14-3.67.93-7.57,4.61-8.69Z"/>
  <path class="cls-4" d="m457.24,514.34c.17.08.35.15.51.25,3.39,1.9,5.88,4.95,9.62,6.57,8.58,3.73,24.39,2.05,33.93,4.73,5.73,14.35,11.49,31.13,15.93,45.95-5.49,17.66-12.58,35.09-18.9,52.49-9.46-1.14-19.36-1.06-28.89-1.5l-55.19-2.56c4.72-18.81,10.89-37.48,16.32-56.11,2.2-7.54,6.23-25.13,9.61-31.18,2.6-4.66,12.9-13.38,17.05-18.63Z"/>
  <path class="cls-11" d="m473.04,687.57c19.78,1.35,39.59,2.3,59.41,2.84-8.32,48.5-16.02,97.31-25.45,145.6-1.04-2.14-2.34-4.16-3.56-6.2-1.04-1.36-2.12-2.72-3.28-3.97-6.3-6.69-14.98-10.62-24.16-10.93-10.76-.39-19.37,3.95-27.07,11.13l24.1-138.46Z"/>
  <path class="cls-11" d="m633.04,690.05l9.61-.35c6.11,45.6,11.32,91.43,18.2,136.92-6.33-6.44-13.81-11-22.91-12.06-10.51-1.23-19.54,2.37-27.62,8.87-3.39,3.2-5.79,6.95-8.19,10.92-1.95-17.48-4.57-34.94-6.87-52.38-1.9-14.4-3.4-28.99-5.91-43.29.24-.29.47-.59.7-.88,1.27-1.65,2.31-3.34,2.57-5.45,1.05-8.7-7.91-30.54-9.38-41.45,16.6.04,33.2-.24,49.79-.85Z"/>
  <path class="cls-2" d="m433.24,125.06c3.27.44,6.55.92,9.73,1.8,11.84,3.37,21.82,11.38,27.67,22.21,7.71,14,8.53,29.96,4.16,45.14-2.29-2.71-9.44-14.38-11.68-15.46-.66-.32-1.27.15-1.9.38-.58,1.06-.76,1.2-.4,2.42.91,3.17,2.91,6.42,4.27,9.45,2.28,5.09,3.64,10.02,4.75,15.46-.34.95-.72,1.88-1.15,2.79-2.55,5.46-12.72,21.46-18.77,23.12-2.71.75-8.23-.65-10.7-1.96-5.33-2.84-9.08-7.1-10.82-12.94-3.79-12.7,3.21-26.38,8.97-37.31-1.09-.9-1.77-1.54-3.24-1.67-4.06,3.44-7.45,10.69-11.32,14.93-5.42,5.95-13.02,11.82-21.43,11.95-5.56.09-11.1-2.48-14.97-6.42-4.11-4.19-6.5-9.83-6.33-15.73.79-26.79,38.65-21.95,42.75-25.82v-1.35c-3.57-3.22-13.33-1.92-18.12-2.93-5.82-1.23-11.21-3.65-16.14-6.94,11.35-11.21,23.12-17.73,38.74-20.75,2.87,3.54,4.21,7.11,8.53,9.29l.66-.48c.07-3.48-1.67-6.22-3.25-9.21Z"/>
  <path d="m447.42,133.78c5.32,4.03,12.61,16.24,16.32,22.17-3.34,6.63-7.67,13.27-11.79,19.48-1.2,1.81-1.7,2.56-3.88,3-4.14-5.05-15.55-16.87-16.85-22.52,1.42-5.43,11.99-17.97,16.2-22.13Z"/>
  <path class="cls-12" d="m447.32,140.45c3.84,2.99,8.48,11.44,11.41,15.67-3.3,5.33-6.35,11.21-10.2,16.15l-13.09-16.39,11.88-15.43Z"/>
  <path class="cls-2" d="m478.87,320.69c.96-1.55,1.54-3.35,2.54-4.85.75-1.12,1.21-1.64,2.54-1.88,2.69,4.37.49,12.19,5.55,18.91,3.5,4.64,8.08,6.09,13.55,6.79,9.2-.19,16.89-2.35,23.73-8.65,1.29-1.75,2.23-3.32,3.01-5.36,9.79,3.52,19.8,6.76,29.46,10.59l3.6,1.2c4.29,1.61,8.59,3.2,12.9,4.76-3.5,11.53-7.5,22.84-12.77,33.7-1.4,3.75-2.7,7.08-5.46,10.08-7.4,12.13-16.88,25.08-31.54,28.49-6.45,1.5-14.15,1.19-20.68.24-1.3-3.97-3.92-9.96-3.45-14.06.47-1.33.55-2.79.72-4.19-1.36-3.26-3.63-6.01-4.91-9.41-2.95-7.81-4.85-16.23-7.08-24.28l-11.7-42.09Z"/>
  <path class="cls-14" d="m526.79,331.02c1.29-1.75,2.23-3.32,3.01-5.36,9.79,3.52,19.8,6.76,29.46,10.59l3.6,1.2c4.29,1.61,8.59,3.2,12.9,4.76-3.5,11.53-7.5,22.84-12.77,33.7-.74-1.06-1.13-2.24-1.58-3.43.2-.51.31-.75.45-1.31.31-1.34.17-1.99-.47-3.16-2.44-1.46-6-1.28-8.83-1.61l-4.6-1.08c-7.7-3.47-11.78-8.97-14.86-16.68-.83-2.08-1.51-4.83-2.73-6.66-.86-1.29-1.99-1.08-3.41-1.29l-.63-.4c1.03-.56,2.45-1.35,3.19-2.31.96-1.25.88-2.27.76-3.75-.91-1.68-1.83-2.25-3.46-3.2Z"/>
  <path class="cls-14" d="m562.85,337.45c4.29,1.61,8.59,3.2,12.9,4.76-3.5,11.53-7.5,22.84-12.77,33.7-.74-1.06-1.13-2.24-1.58-3.43.2-.51.31-.75.45-1.31.31-1.34.17-1.99-.47-3.16-2.44-1.46-6-1.28-8.83-1.61,2.9-9.79,8.1-18.88,10.3-28.94Z"/>
  <path class="cls-4" d="m559.25,336.25l3.6,1.2c-2.21,10.06-7.41,19.15-10.3,28.94l-4.6-1.08c4.86-8.99,7.62-19.52,11.31-29.06Z"/>
  <path class="cls-14" d="m540.56,390.64l.24-.61c4.28-1.17,12.77-4.11,16.72-4.03-7.4,12.13-16.88,25.08-31.54,28.49-6.45,1.5-14.15,1.19-20.68.24-1.3-3.97-3.92-9.96-3.45-14.06.47-1.33.55-2.79.72-4.19,1.07-.2,1.37-.45,2.22-1.07.72,1.96,1.21,3.34,2.76,4.77,1.43.36,1.38.26,2.67-.48l.93-1.58c4.43.57,9.39,1.7,13.73.31.56-2.38,3.57-4.44,5.37-6.22l1.82.55c2.34.31,4.35.12,6.67-.18l1.85-1.93Z"/>
  <path class="cls-4" d="m530.23,392.2l1.82.55c2.34.31,4.35.12,6.67-.18-5.49,5.17-10.16,10.9-18.49,10.56-6.14-.25-12.27-2.25-18.39-2.47.47-1.33.55-2.79.72-4.19,1.07-.2,1.37-.45,2.22-1.07.72,1.96,1.21,3.34,2.76,4.77,1.43.36,1.38.26,2.67-.48l.93-1.58c4.43.57,9.39,1.7,13.73.31.56-2.38,3.57-4.44,5.37-6.22Z"/>
  <path class="cls-11" d="m530.23,392.2l1.82.55c-1.99,2.77-4.04,4.38-7.19,5.67.56-2.38,3.57-4.44,5.37-6.22Z"/>
  <path class="cls-14" d="m478.87,320.69c.96-1.55,1.54-3.35,2.54-4.85.75-1.12,1.21-1.64,2.54-1.88,2.69,4.37.49,12.19,5.55,18.91,3.5,4.64,8.08,6.09,13.55,6.79.27,1.5.26,3.36,1.69,4.28.91.59,2.1.96,3.12,1.35-7.32,13.19-8.88,30.27-4.83,44.74.51,1.81,1.12,3.59,1.74,5.37-.85.62-1.15.87-2.22,1.07-1.36-3.26-3.63-6.01-4.91-9.41-2.95-7.81-4.85-16.23-7.08-24.28l-11.7-42.09Z"/>
  <path d="m510.71,345.25c.82,1.21,1.16,1.71.87,3.2-.65,3.37-2.74,6.56-3.65,9.9-3.63,13.34-2.26,27.12,3.2,39.75l-.93,1.58c-1.3.74-1.24.84-2.67.48-1.55-1.43-2.04-2.81-2.76-4.77-.62-1.77-1.23-3.56-1.74-5.37-4.05-14.47-2.49-31.55,4.83-44.74l2.85-.04Z"/>
  <path d="m526.94,340.68c1.42.21,2.56,0,3.41,1.29,1.21,1.83,1.89,4.58,2.73,6.66,3.08,7.71,7.16,13.21,14.86,16.68l4.6,1.08c2.83.33,6.38.15,8.83,1.61.65,1.17.79,1.82.47,3.16-.13.57-.25.81-.45,1.31-4.52-.48-9.08-.91-13.48-2.13-7.56-2.1-12.96-6.78-16.71-13.62-2.68-4.89-5.91-10.34-4.27-16.04Z"/>
  <path class="cls-6" d="m503.06,339.67c9.2-.19,16.89-2.35,23.73-8.65,1.63.95,2.55,1.52,3.46,3.2.12,1.48.2,2.5-.76,3.75-.73.96-2.16,1.75-3.19,2.31-3.49,1.74-15.34,4.79-15.6,4.97l-2.85.04c-1.01-.39-2.2-.76-3.12-1.35-1.43-.92-1.42-2.78-1.69-4.28Z"/>
  <path d="m530.23,392.2c-1.57-.58-2.86-1.3-4.13-2.41-2.04-1.78-4.83-5.48-4.62-8.41.1-1.42.67-1.65,1.69-2.5,3.3.34,4.49,5.27,6.65,7.47,1.92,1.96,5.83,1.43,8.4,1.45,1.52.92,1.59,1.29,2.35,2.83l-1.85,1.93c-2.31.31-4.32.49-6.67.18l-1.82-.55Z"/>
  <path d="m538.11,375.25c1.27,0,2.24.06,3.42.57,3.08,1.35,7.4,1.68,9.91,4.02.46,1.58.1,1.89-.51,3.37-1.35.22-2.81.27-4.17.1-2.77-.35-6.31-1.44-7.99-3.85-1.09-1.55-.85-2.47-.66-4.21Z"/>
  <path class="cls-13" d="m504.92,453.79c2.78.17,4.79,1.32,7.37,1.72,4.95,6.05,2,13.06,6.51,15.56l2.06-.02c.15.11.29.24.45.33,6.18,3.28,16.74-5.68,21.76,5.94,1.3,3.02,1.53,6.33.09,9.35-1.85,3.89-5.6,5.67-9.36,7.26l.49.72c2.33.32,4.26.17,5.87,2.12,1.88,2.27,1.77,5.89,2.84,8.57-.93,3.18-1.85,7.25-4.62,9.35-1.11,2.6-2.1,5.17-2.96,7.86l-2.08-6.33c-1.59.42-2.71.32-4.33.08l-.77-.64c-1.83.18-3.02.59-4.24,2.03-.1.12-.19.26-.28.39-1.19,1-2.37,2-3.61,2.93-1.87,1.1-3.69,2.22-5.69,3.07l-3.99,1.08-4.47.79-4.66-.07c-9.54-2.68-25.35-1-33.93-4.73-3.74-1.63-6.23-4.67-9.62-6.57-.16-.09-.34-.16-.51-.25-.76-1.39-1.63-2.72-2.46-4.07-1.37-1.85-2.42-4.36-3.14-6.55-2.52-7.67-1.59-16.59,2.13-23.72,3.95-7.58,9.97-11.99,18.01-14.48,6.77-2.03,1.7-6.5,4.14-10.74.94,1.46,1.69,3.01,3.34,3.64l2.62-1.37c1.7-.49,3.5-.69,5.25-.96,1.4-.06,2.9-.37,4.3-.56,3.07-.46,6.14-.78,9.22-1.12l4.28-.62Z"/>
  <path class="cls-4" d="m533.35,516.22c1.17-1.04,3.48-1.19,5.03-1.53-1.11,2.6-2.1,5.17-2.96,7.86l-2.08-6.33Z"/>
  <path class="cls-11" d="m474.19,469.17c1,2.72,2.14,5.65,4.64,7.34,6.12,4.14,20.61-.29,27.66-1.45-1.57,2.21-2.86,4.42-3.19,7.16-.4,3.34.14,6.93,2.42,9.53,2.05,2.33,4.47,3,7.46,3.15l.36.82c-1.37.58-2.63,1.39-3.73,2.38-2.24,2.02-3.75,4.99-3.86,8.02-.11,3.01.93,5.86,2.99,8.05,2.81,3,5.46,3.03,9.31,3.2-1.96,1.09-4.03,2.13-6.14,2.93-2.77,1.05-6.01,1.39-8.96,1.37-5.87-.05-30.5-3.02-35.26-5.22-5.6-2.56-9.92-7.29-11.95-13.11-2.34-6.86-1.83-14.38,1.4-20.87,3.66-7.2,9.27-10.92,16.83-13.3Z"/>
  <path class="cls-11" d="m528.62,475.8c3.19-.21,5.93-.79,8.68,1.15,1.5,1.06,2.67,2.53,2.84,4.41.15,1.67-.61,3.39-1.72,4.61-4.12,4.56-12.67,4.1-18.36,4.47-3.7.28-7.11.98-10.31-1.33-1.52-1.1-2.59-2.56-2.81-4.46-.23-1.92.52-3.85,1.77-5.28,3.94-4.5,14.25-3.37,19.89-3.56Z"/>
  <path class="cls-11" d="m500.9,458.59c2.18-.36,5.09-.96,7.14.12,2.02,1.07,3.9,3.24,4.4,5.5.32,1.41.09,2.82-.78,3.99-2.88,3.89-16.1,4.32-21.08,5-3.22.65-6.18,1.61-9.17-.35-1.54-1.01-2.7-2.45-2.95-4.32-.24-1.79.39-3.49,1.53-4.86,3.78-4.51,15.36-4.46,20.9-5.09Z"/>
  <path class="cls-11" d="m528.63,498.59l2.05-.15c1.76-.14,3.11-.43,4.65.59,1.73,1.14,2.95,3.27,3.24,5.3.24,1.74-.11,4.07-1.39,5.38-3.09,3.18-14.34,2.83-18.78,3.14-.21.04-.41.09-.61.12-1.88.28-3.74.17-5.23-1.13-1.33-1.15-2.04-2.99-2.17-4.71-.15-2.02.43-4.09,1.85-5.57,3.25-3.39,11.99-2.7,16.39-2.97Z"/>
  <path class="cls-3" d="m513.19,494.9c3.92-1.49,10.4-1.02,14.56-.79-1.9,1.65-11.23,1.46-14.2,1.6l-.36-.82Z"/>
  <path class="cls-5" d="m523.73,518.08c.09-.13.18-.27.28-.39,1.22-1.44,2.41-1.85,4.24-2.03l.77.64c13.93,47.34,26.7,95.08,40,142.6l14.08,50.59c1.34,4.9,3.94,10.83,4.8,15.54.52,2.85.51,6.19-.81,8.84-.8,1.59-1.65,2.11-3.28,2.71-2.1-.42-3.53-1.52-4.73-3.3-3.71-5.46-5.36-13.94-7.55-20.22l-11.58-32.99-53.99-154.11,4.47-.79,3.99-1.08c2-.85,3.82-1.97,5.69-3.07,1.24-.94,2.42-1.94,3.61-2.93Z"/>
  <path class="cls-7" d="m510.43,525.16l3.99-1.08c13.17,35.61,24.51,72.14,36.66,108.13l21.01,62.31c3.54,10.45,7.46,20.87,10.66,31.42.6,1.99,1.42,4.15,1.19,6.24l-1.09,1.15c-1.44-.31-1.82-.77-2.6-2.03-3.51-5.72-5.12-14.32-7.23-20.78l-10.73-31.8-51.87-153.56Z"/>
  <path class="cls-7" d="m523.73,518.08c7,22.63,13.48,45.44,20.15,68.18,1.81,6.18,3.42,12.47,5.33,18.62,1.66,5.36,3.69,10.73,4.89,16.21.44,2,.83,3.94-.1,5.86-1.16.39-1.16.3-2.31-.19-3.33-6.12-6.55-20.84-8.66-28.03-7.6-25.85-14.59-52.09-22.92-77.71,1.24-.94,2.42-1.94,3.61-2.93Z"/>
  <path class="cls-2" d="m447.04,273.02c1.31-.13,2.61-.24,3.92-.06,2.74.37,4.77,2.07,6.37,4.26,9.47,13.01-16.44,25.9-17.29,31.63l.86,1.02c.4.08.79.28,1.19.23.72-.08,2.85-1.64,3.58-2.05,6.72-3.74,14.09-7.06,21.96-6.46,3,.23,6.3,1.02,8.24,3.52,1.65,2.13,1.94,5.01,1.63,7.6-.31,2.58-1.3,5.08-3.41,6.7-8.79,6.72-22.96-2.09-30.66-2.97-1.28-.14-1.47-.05-2.42.7.52,2.37,14.26,11.11,17.98,16.26,2.14,2.97,3.9,6.55,3.18,10.3-.51,2.7-2.11,5.38-4.52,6.79-1.98,1.16-4.79,1.6-7.01.98-14.75-4.13-10.66-22.92-15.42-30.75l-1.05-.13c-3.06,2.53-1.88,14.69-3.57,20.42-1.71,5.79-4.58,9.64-9.92,12.49-2.26.33-4.58.38-6.67-.69-2.56-1.31-4.41-3.87-5.11-6.63-3.24-12.75,14.96-21.09,18.46-27.32-.53-1.3-.57-1.59-1.69-2.39-5.52,2.5-10.49,5.8-16.38,7.48-4.35,1.24-11.37,2.13-15.39-.38-1.95-1.22-3.07-3.31-3.51-5.52-.6-3.05-.36-6.75,1.54-9.32,7.59-10.24,28.62,2.33,34.23,1.28l.28-1.01c-.69-3.08-6.27-5.59-8.87-7.33-4.92-3.3-11.02-8.67-11.97-14.82-.44-2.8.02-6.16,1.79-8.45,1.51-1.96,3.87-3.38,6.34-3.65,16.21-1.75,15.53,27.96,19.73,31.08,3.14-4.64,1.89-15.28,3.87-21.39,1.74-5.36,4.71-8.83,9.71-11.43Z"/>
  <path class="cls-14" d="m630.86,819.47c7.13-.39,13.77.93,19.78,4.95,7.17,4.8,11.54,12.21,13.15,20.6,1.7,8.9.6,18.06-4.63,25.62-5.19,7.51-12.58,11.19-21.38,12.75-7.27.56-14.26-1-20.31-5.16-7.03-4.82-11.33-12.34-12.84-20.64-1.63-8.94-.38-18.25,4.97-25.75,5.24-7.35,12.54-10.89,21.26-12.37Z"/>
  <path class="cls-14" d="m471.49,820.01c6.78-.59,13.61.85,19.38,4.53,6.78,4.37,11.52,11.28,13.16,19.18,1.84,8.97-.1,19.76-5.3,27.34-4.91,7.15-11.97,11.02-20.37,12.61-7.44.77-14.74-.46-21.03-4.68-6.61-4.42-11.18-11.3-12.68-19.11-1.74-9.06.19-19.62,5.5-27.22,5.21-7.46,12.56-11.12,21.34-12.65Z"/>
  <path class="cls-14" d="m603.94,282.44c10.78-6.12,21.62-12.14,32.53-18.05,1.64,17.66,4.21,35.28,6.08,52.92-15.27,4.23-30.42,9.98-45.47,15l-6.28,2.07-8.66,2.9c7-18.37,14.52-36.58,21.8-54.85Z"/>
  <path class="cls-4" d="m590.79,334.38c6.64-12.96,12-26.97,17.87-40.32,1.96-4.45,3.71-9.63,6.19-13.79,1.01-1.69.96-1.72,2.9-2.24,3.38,6.04-18.61,43.57-20.52,53.39-.06.3-.11.59-.16.89l-6.28,2.07Z"/>
  <path class="cls-5" d="m455.04,380.69c2.96,2.16,5.88,4.33,8.71,6.66,2.24,1.3,4.34,2.68,6.44,4.2,4.6,2.79,10.35,5.45,14.51,8.76l4.88,1.94c2.76,1.01,5.25,1.42,8.17,1.72,4.54,17.08,8.75,34.87,14.54,51.54-2.58-.39-4.59-1.55-7.37-1.72l-4.28.62c-3.08.34-6.16.66-9.22,1.12-1.4.19-2.89.5-4.3.56-1.75.27-3.55.47-5.25.96-9.44-25.24-17.9-50.94-26.83-76.36Z"/>
  <path class="cls-5" d="m455.04,380.69c2.96,2.16,5.88,4.33,8.71,6.66,2.24,1.3,4.34,2.68,6.44,4.2,1.63,7.53,4.68,15.08,7.16,22.39,4.7,13.86,9.53,27.68,14.07,41.59-1.4.19-2.89.5-4.3.56-1.75.27-3.55.47-5.25.96-9.44-25.24-17.9-50.94-26.83-76.36Z"/>
  <path class="cls-7" d="m463.74,387.35c2.24,1.3,4.34,2.68,6.44,4.2,1.63,7.53,4.68,15.08,7.16,22.39,4.7,13.86,9.53,27.68,14.07,41.59-1.4.19-2.89.5-4.3.56-7.84-22.77-14.61-46.34-23.37-68.74Z"/>
  <path class="cls-5" d="m489.58,402.24c2.76,1.01,5.25,1.42,8.17,1.72,4.54,17.08,8.75,34.87,14.54,51.54-2.58-.39-4.59-1.55-7.37-1.72-5.05-17.09-9.44-34.74-15.34-51.54Z"/>
  <path class="cls-7" d="m484.7,400.31l4.88,1.94c5.9,16.8,10.29,34.46,15.34,51.54l-4.28.62c-2.1-5.9-3.62-12.19-5.39-18.21l-10.55-35.89Z"/>
  <path class="cls-14" d="m435.3,340.94c2.26,4.55,5.41,9.69,6.18,14.76,1.86,12.27-6.81,13.67,7.38,21.12.78,1.92,1.65,3.85,2.28,5.83l2.23,6.16c1.8,5.13,3.54,10.28,5.2,15.45-11.7-3.43-59.98-17.7-66.2-23.37-.49-1.01-.86-1.66-.83-2.83.05-2.32,2.9-4.47,4.46-5.93l4.01-3.56,12.52-11.46c4.7,1.02,8.68,1.24,12.99-1.38,5.38-3.27,7.89-9.09,9.78-14.79Z"/>
  <path class="cls-14" d="m435.3,340.94c2.26,4.55,5.41,9.69,6.18,14.76,1.86,12.27-6.81,13.67,7.38,21.12.78,1.92,1.65,3.85,2.28,5.83-3.51,1.29-44.29-11.9-51.12-14.07l12.52-11.46c4.7,1.02,8.68,1.24,12.99-1.38,5.38-3.27,7.89-9.09,9.78-14.79Z"/>
  <path class="cls-4" d="m400,368.58c6.83,2.17,47.61,15.36,51.12,14.07l2.23,6.16c-7.46-3-15.93-4.71-23.68-6.94-11.21-3.23-22.37-6.94-33.69-9.74l4.01-3.56Z"/>
  <path class="cls-2" d="m496.56,235.56c.23.13.47.24.68.39,5.42,3.73,12.08,13.88,12.37,20.51.43,9.73-10.07,12.72-15.18,18.77-.78.92-.6,1.06-.5,2.27.48.64.65,1.26,1.52,1.37,3.63.43,9.48-5.08,12.11-7.2,3.57,2.79,6.91,5.58,9.19,9.56,2.98,5.18,2.68,10.02,1.2,15.53-1.62,3.73-3.86,7.22-6.17,10.55-17.18-13.7-25.99-30-30.63-51.38,5.07-6.84,10.2-13.63,15.4-20.37Z"/>
  <path class="cls-5" d="m458.55,325.71c6.17.49,10.89.31,16.55-2.38,5.91,21.09,11.41,42.4,17.8,63.34-2.85-1.54-5.66-2.85-8.68-4.02l-5.39-1.78c-7.21-2.01-14.4-3.89-21.83-4.95.72-4.05,1.55-8.1,2.11-12.17-3.23-3.27-7.38-5.73-11.22-8.24,4.96.61,9.76.84,13.9-2.6,2.77-2.3,4.24-5.62,4.52-9.17.58-7.28-3.32-12.79-7.76-18.03Z"/>
  <path class="cls-7" d="m478.83,380.88c-1.87-7.08-3.88-14.13-6.03-21.14-.77-2.52-2.15-5.12-2.59-7.69-.28-1.65-.13-4.01.81-5.42.12-.18.28-.34.42-.5,1.15.22.79-.07,1.41.84,4.04,5.93,8.17,27.16,11.38,35.69l-5.39-1.78Z"/>
  <path class="cls-1" d="m523.69,276.86c22.18,7.71,44.07,10.98,67.42,7.53,0,4.74.57,8.32,2.24,12.78l-1.71,4.39c-.46,1.27-.89,2.2-1.66,3.31-4.72.95-10.48.37-15.33.36l-28.58-.08c-6.23-6.11-12.65-12.11-18.69-18.4-3.48-3.62-3.79-4.98-3.69-9.88Z"/>
  <path class="cls-2" d="m496.71,300.67c4.85,4.94,13.61,14.33,20.61,15l1.33-.55c.74-2.39-2.77-6.04-.56-7.71,3.22,2.53,6.27,8.65,6.84,12.67.4,2.81-.18,5.38-2,7.6-3.63,4.43-10.97,6.04-16.33,6.89l-2.13.05c-3.25-.21-6.15-.57-8.81-2.69-4.91-3.9-5.18-10.62-5.68-16.35,3.66.99,6.34,1.47,10.12.87l-.66.03,1.97-.57.11-1.21c-3.25-3.28-7.96-3.45-12.26-4.7,2.37-.46,5.29-.83,6.83-2.91,1.43-1.93.97-4.22.62-6.42Z"/>
  <path class="cls-11" d="m504.46,334.61c-4.7-2.32-8.14-4.26-9.88-9.6-.5-1.54-.96-4.3-.01-5.77.69-1.08,1.57-1.66,2.86-1.71,1.45-.06,2.66.55,3.77,1.38.87,1.49,1.07,3.34,1.86,4.69,1.53,2.6,7.24,2.49,6.05,6.79-.45,1.62-1.5,2.89-2.52,4.18l-2.13.05Z"/>
  <path class="cls-14" d="m524.46,289.51c14.85,15.6,30.82,30.21,45.42,46.01-6.43-2.32-13-4.47-19.33-7.05-3.95-1.17-8.2-2.5-11.92-4.27l-8.25-2.91c-.57-2.9-1.39-5.58-2.36-8.37-1.81-3.32-5.05-6.83-6.33-10.27-.49-1.31.03-1.87.55-3.05,1.1-3.37,1.74-6.58,2.22-10.09Z"/>
  <path class="cls-4" d="m528.03,312.92c-1.81-3.32-5.05-6.83-6.33-10.27-.49-1.31.03-1.87.55-3.05,4.99,7.28,21.21,21.69,28.31,28.87-3.95-1.17-8.2-2.5-11.92-4.27l-8.25-2.91c-.57-2.9-1.39-5.58-2.36-8.37Z"/>
  <path class="cls-14" d="m528.03,312.92c3.58,1.51,8.12,7.2,10.69,10.16.04.97.17.62-.08,1.11l-8.25-2.91c-.57-2.9-1.39-5.58-2.36-8.37Z"/>
  <path class="cls-11" d="m477.11,261.6l2.6,8.61c.93,2.54,1.83,5.1,2.8,7.63l3.21,6.8c3.11,5.55,6.56,10.67,10.57,15.62l.43.41c.35,2.2.82,4.49-.62,6.42-1.55,2.08-4.46,2.45-6.83,2.91l-7.06-2.13c-1.98-4.16-4.02-7.03-8.28-8.97-.58-.36-.65-.35-1.15-.97-2.99-3.72-3.34-14.89-3.13-19.49,2.44.3,4.86.74,7.32.35,1.02-1.02,1.11-1.14,1.38-2.55-1.64-3.72-4.82-1.14-6.97-3.29l.57-1.52c1.32-3.49,3.29-6.63,5.17-9.83Z"/>
  <path class="cls-2" d="m477.11,261.6l2.6,8.61c.93,2.54,1.83,5.1,2.8,7.63-3.59.98-5.75,2.54-7.53,5.89-2.58,4.84-1.88,10.02-1.05,15.17-.58-.36-.65-.35-1.15-.97-2.99-3.72-3.34-14.89-3.13-19.49,2.44.3,4.86.74,7.32.35,1.02-1.02,1.11-1.14,1.38-2.55-1.64-3.72-4.82-1.14-6.97-3.29l.57-1.52c1.32-3.49,3.29-6.63,5.17-9.83Z"/>
  <path class="cls-11" d="m477.11,261.6l2.6,8.61c-2.17,1.02-4.1,2.04-6.55,2.16-.37-.27-.93-.6-1.22-.94,1.32-3.49,3.29-6.63,5.17-9.83Z"/>
  <path class="cls-2" d="m485.72,284.63c3.11,5.55,6.56,10.67,10.57,15.62-2.41-.68-4.79-1.41-7.13-2.3-2.35-.89-4.26-1.93-5.23-4.39-1.28-3.24.47-6.02,1.8-8.94Z"/>
  <path class="cls-4" d="m550.08,309.31c12.76-.42,25.66-.02,38.43-.02-2.28,6.73-5.26,13.36-7.89,19.97l-3.09,7.69-27.45-27.65Z"/>
  <path class="cls-9" d="m469.58,248.15c3.94-.21,7.95-.07,11.9-.07l-5.73,7.66c-4.04,1.06-7.93,2.61-11.6,4.59-5.74,3.18-11.23,8.32-17.86,9.06-5.48.61-8.16,4.72-11.33,8.76l-3.82,4.98-3.17-5.28c11.05-12.71,24.65-26.03,41.62-29.69Z"/>
  <path class="cls-2" d="m545.06,509.52l.65.44c2.28,3.47,2.06,49.6,3.23,58.83l.09.65c-1.07-1.29-1.5-3.57-2.02-5.18-3.31-11.65-6.55-23.32-9.71-35,2.7-6.29,4.08-14.03,7.77-19.74Z"/>
  <path class="cls-9" d="m469.82,237.17c5.99-.66,12.15,1.03,17.81,2.79l-3.14,4.37c-10.72-1.06-20.32-.29-30.75,2.31-4.86,1.36-9.51,3.06-14.23,4.86.78-1.04,1.59-2.07,2.42-3.07,6.67-8.05,18.01-10.33,27.88-11.25Z"/>
  <path class="cls-10" d="m464.22,381.59c9.7,2.14,23.22,4.8,30.72,11.48,2.31,2.06,3.03,3.57,3.14,6.64-.25,0-.49.01-.74,0-7.66-.13-27.69-12.32-33.12-18.14Z"/>
  <path class="cls-11" d="m664.02,198.97c2.69,1.2,5.3,3.72,6.58,6.36,2.97,6.18,1.04,13.27-.95,19.41l-1.49,2.71-.66.13c-1.2-9.55-2.12-19.09-3.49-28.62Z"/>
  <path class="cls-11" d="m659.82,206.57c2.45,7.59,2.33,17.61,3.02,25.64-1.95.8-4.01,1.38-6.01,2.02l-1.19.21-.84-.62c1.86-9.05,3.53-18.14,5.03-27.25Z"/>
  <path class="cls-4" d="m404.43,225.32c2.9,2.36,5.53,5.05,8.2,7.67-.77,3.61-1.63,7.19-2.57,10.76l-8.57-7.96c.78-3.52,1.93-7.01,2.94-10.47Z"/>
  <path class="cls-10" d="m446.18,359.25c2.64,2.18,5.56,4.08,8.36,6.06l-1.64,8.81c-2.87-1.43-5.65-3.21-8.44-4.8.52-3.36,1.09-6.72,1.71-10.06Z"/>
  <path class="cls-9" d="m470.9,261.87l.45.6c-1.66,3.38-3.26,6.73-4.59,10.26-2.52-.61-5.07-.89-7.63-1.21-.77-.24-1.12-.48-1.76-.95,1.33-3.51,10.21-7.12,13.53-8.71Z"/>
  <path class="cls-9" d="m447.19,253.09l.26.11c-.15.54-13.96,12.27-16.71,15.05l-.26-.13c-.32-2.67,2.95-7.28,4.36-9.57,3.94-2.21,8.17-3.79,12.35-5.47Z"/>
  <path class="cls-9" d="m462.09,275.94l2.28.77c1.89,2.36.92,9.76,1.36,13.08l-2.62-.97c-.62-1.86-.26-3.96-.12-5.89.19-2.55-.28-4.55-.9-7Z"/>
  <path class="cls-9" d="m460.39,293.07c1.18.13,2.47.2,3.62.49,1.21.31,2.01.46,2.61,1.57-1.18,1.07-2.76,1.04-4.28,1.23-1.31.25-2.53.41-3.86.49-.21-1.24,1.19-2.72,1.9-3.78Z"/>
  <path d="m595.97,282.75c.9.02,1.6.15,2.46.41.47,2.11-1.18,4.74-2.05,6.66l-.32.45c-.09-.22-.18-.44-.26-.66-.69-1.93-.69-5.01.17-6.86Z"/>
  <path class="cls-13" d="m794.01,508.9c6.37,2.16,11.77,4.18,17.09,8.44,8.15.75,26.44-.54,31.78,5.82,2.17,2.58,2.55,5.94,2.15,9.18-.39,3.21-1.9,5.7-4.5,7.61-1.42,1.04-3.05,1.86-4.61,2.68-.77,3.49-1.65,6.49-4.88,8.51-5.09,3.17-12.79,1.36-18.47,1.37-4.41,5.72-9.6,9.1-16.86,10.02-1.93.25-3.88.4-5.82.56,2.98,3.16,5.02,5.86,4.96,10.45-.04,3.3-1.35,6.49-3.76,8.77-2.12,2-4.88,2.84-7.77,2.72-4.66-.21-7.35-2.46-10.26-5.82-4.76-5.5-11.6-13.52-15.1-19.79-1.21-2.16-.49-5.31-1.77-7.07-.52-.72-3.4-1.47-4.34-1.82,1.21-1.39,2.42-2.29,3.98-3.26,1.93-1.65,3.89-3.28,5.87-4.88,9.84-9.72,18.54-20.55,28.54-30.12,1.16-1.22,2.49-2.29,3.76-3.38Z"/>
  <path class="cls-11" d="m790.25,512.29c3.04,1.04,12.37,3.29,13.99,5.78-2.32,1.87-4.43,3.22-5.31,6.18-.67,2.25-.96,3.92-3.14,5.11-.53.29-1.08.52-1.62.78-2.42,1.17-3.91,2.58-4.82,5.15-1.22,3.42-.96,7,.67,10.24,1.38,2.74,3.67,4.33,6.57,5.17,3.46.99,7.62.75,11.21.88-5.02,4.51-9.86,7.34-16.92,6.93-1.63-.09-3.24-.43-4.83-.76-4.58-5.01-9.43-14.83-16.83-15.29-1.83-.11-3.49.25-5.24.73l-2.27-.77c9.84-9.72,18.54-20.55,28.54-30.12Z"/>
  <path class="cls-8" d="m755.84,547.28c1.93-1.65,3.89-3.28,5.87-4.88l2.27.77c-1.82,1.37-4.4,4.18-6.48,4.7l-1.65-.6Z"/>
  <path class="cls-11" d="m797.54,532.7c7.93-.07,19.04.13,26.71,1.61,2.5.48,5.33,1.63,6.69,3.92.88,1.49.8,3.61.37,5.23-.68,2.56-2.39,3.68-4.55,5-7.34.52-17.8-.29-25.11-1.28-2.81-.38-6.15-1.33-7.84-3.8-1.04-1.52-1.11-3.25-.76-5,.58-2.89,2.11-4.11,4.48-5.68Z"/>
  <path class="cls-11" d="m767.64,546.31c1.04.16,2.1.4,3.07.82,4.01,1.71,16.81,18.51,18.65,22.98.78,1.91,1.21,4.32.33,6.27-1.08,2.41-3.53,3.5-5.82,4.46-.16-.03-.33-.06-.49-.09-1.31-.26-2.51-.56-3.58-1.39-4.92-3.87-13.16-15.07-16.63-20.52-1.22-1.92-2.58-4.17-1.96-6.51.8-3.04,3.87-4.64,6.43-6Z"/>
  <path class="cls-11" d="m806.07,522.02c5.82-.66,12.36.14,18.19.48,4.74.28,12.22-.03,15.52,4.06,1.16,1.43,1.34,3.1,1.08,4.87-.46,3.06-1.95,4.22-4.33,6.01l-.99-.31c-1.57-2.28-3.67-5-6.18-6.31-6.2-3.25-20.36,1.06-25.8-2.96-.74-.55-.6-.83-.78-1.68.74-1.88,1.82-2.82,3.31-4.16Z"/>
</svg>