<?xml version="1.0" encoding="UTF-8"?>
<svg id="_图层_1" data-name="图层 1" xmlns="http://www.w3.org/2000/svg" xmlns:xlink="http://www.w3.org/1999/xlink" viewBox="0 0 1134 950">
  <defs>
    <style>
      .cls-1 {
        fill: #221816;
      }

      .cls-2 {
        fill: url(#_未命名的渐变);
      }

      .cls-3 {
        fill: #650005;
      }

      .cls-4 {
        fill: #ffddc8;
      }

      .cls-5 {
        fill: #fe8f9f;
      }

      .cls-6 {
        fill: #763e3d;
      }

      .cls-7 {
        fill: #fee6df;
      }

      .cls-8 {
        fill: #5f0037;
      }

      .cls-9 {
        fill: #feddc8;
      }

      .cls-10 {
        fill: #a3896a;
      }

      .cls-11 {
        fill: #febcc2;
      }

      .cls-12 {
        fill: #ff6365;
      }

      .cls-13 {
        fill: #91696a;
      }

      .cls-14 {
        fill: #fefefe;
      }
    </style>
    <linearGradient id="_未命名的渐变" data-name="未命名的渐变" x1="583.51" y1="660.41" x2="582.07" y2="638.79" gradientTransform="translate(0 950) scale(1 -1)" gradientUnits="userSpaceOnUse">
      <stop offset="0" stop-color="#ffd9c1"/>
      <stop offset="1" stop-color="#ffebea"/>
    </linearGradient>
  </defs>
  <path d="m443.42,115.58c6.28-16.64,15.58-30.64,27.46-43.77,22.15-24.46,51.8-41.96,85.32-43.59,18.1-.89,36.19,2.11,53.03,8.8,5.55,2.19,10.85,5.02,16.43,7.11,4.72,1.77,9.64,3.01,14.39,4.67,13.23,4.53,25.38,11.78,35.65,21.27,22.33,20.39,33.39,51.01,34.71,80.78.95,21.51-2.94,41.07-17.86,57.33,1.03,1.14,2.16,2.28,3.06,3.53,3.75,5.26,4.32,12.17,3.11,18.35-1.69,8.65-5.9,13.98-13.06,18.9-.26,25.86-1.05,49.83-13.81,73.1,16.58,13.62,32.35,28.18,48.48,42.32,8.51,7.45,18.32,14.49,25.99,22.75.89.96,1.42,2.1,1.76,3.36.44,1.61.23,2.8-.64,4.22-6.49,10.63-62.52,26.24-75.58,29.25-.27,14.13,2.79,28.24,2.58,42.39-4.31,5.98-9.77,11.23-14.29,17.08,2.03,10.18,19.54,76.63,22.87,82.42,4.67,8.12,11.91,15.61,17.77,22.93l45.44,57.21c5.45,6.93,12.47,13.97,17.06,21.41,1.07,1.73,2.07,3.63,2.19,5.7.15,2.49-.79,4.84-2.51,6.63-2.02,2.11-4.83,3.26-7.75,3.17-1.93-.07-3.85-.65-5.37-1.86-6.07-4.86-11.53-12.17-16.77-17.97-11.75-13.03-23.43-26.2-35.46-38.97l9.34,34.85c2.56,9.45,6.89,20.62,6.91,30.43,0,2.36-.17,6.36-2.06,7.99-4.45,3.83-66.98,2.5-77.3,2.41-.05,23.83.6,47.74.97,71.58.28,17.59-.51,35.61,2.4,52.99,20.24,6.64,49.8,7.98,60.78,29.41,2.37,4.63,3.89,10.66,2.28,15.73-1.1,3.47-3.91,6.85-7.16,8.51-5.95,3.04-18.39,4.35-25.34,5.72-22.17,4.37-44.75,8.03-66.74,13.18,3.7,7.74,7.86,16.95,4.81,25.63-1.26,3.58-4.06,6.87-7.53,8.47-2.46,1.14-5.17,1.3-7.84,1.21-6.97-.22-14.04-1.27-20.97-2.03l-33.94-3.67c-9.28-1-37.93-3.05-44.49-5.45-3.08-1.13-6.49-3.98-7.76-7.06-1.17-2.83-1.43-6.12-1.43-9.16.02-7.9,1.6-15.95,2.46-23.8.78-7.06.79-14.55,2.77-21.39l.07-.25c.1-9.06,1.99-17.08,3.37-25.96,1.15-7.38,1.88-14.85,2.77-22.27l13.96-117.3c-25.37-3.39-50.86-5.1-76.19-9.18-6.92-1.11-14.06-2.05-20.86-3.73-6.46-1.59-9.18-3.98-12.54-9.6.48-10.67,8.69-28.68,12.22-39.5,13.86-42.82,28.33-85.44,43.41-127.84-2.82-2.81-5.16-5.99-5.72-10.05-1.51-10.95,10.39-14.6,15.84-21.55.11-.14.22-.29.32-.43-.12-.24-.24-.48-.35-.73-2.48-5.37-6.5-9.66-9.1-14.94l12.68-59.89c-2.39-.9-4.79-1.64-7.25-2.35-3.52.94-7.18,1.79-10.81.92-4.93-1.18-7.41-5.18-9.87-9.18-7.25-3.04-29.51-10.48-33.55-16.29-1.26-1.78-1.73-4-1.31-6.14,1.45-7.49,14.03-15.47,20.28-19.42-2.46-1.47-4.99-3.06-6.96-5.17-3.21-3.44-5.26-7.91-4.84-12.69.29-3.38,1.73-6.64,4.39-8.8,3.74-3.05,8.34-3.33,12.91-2.77-2.58-33.44,12.8-44.58,16.44-72.66.89-6.88-3.11-12.21-3.97-18.72-.77-5.89.12-11.94.55-17.84-5.87,4.17-11.64,7.89-18.98,8.69-6.63.77-13.28-1.17-18.47-5.37-5.32-4.33-8.67-10.63-9.27-17.46-.73-7.57,1.77-13.67,6.48-19.45-3.78-.21-7.63-.39-11.4.06-12.76,1.52-23.8,9.07-31.62,19-10.11,12.85-16.59,28.62-14.5,45.17,2.08,16.45,13.27,34.17,30.69,37.25,10.26,1.81,21.91-2.65,30.86,5.1,2.3,1.99,3.11,8.79,3.24,11.72.11,2.47.11,4.49-1.62,6.36-5.02.86-12.52-3.13-17.07-5.15-1.04-4.13-1.58-8.61-2.15-12.84l-5.35,1.41c-17.02,4.48-35.23,5.94-50.99-3.4-12.49-7.4-19.42-20.46-22.79-34.21-6.4-26.14.9-56.04,14.88-78.68,13.59-22,37.11-38.21,61.8-45.27,6.54-1.87,13.27-2.25,19.8-3.9,4.94-1.25,9.35-4.41,14.33-5.46,7.84-1.66,15.47,2.66,21.83,6.67Zm113.55,748.54c6.77,3.61,13.4,8.62,19.9,12.79-2.23-7.92-6.77-26.06-6.74-33.72-3.69-10.53-2.64-20.21-2.22-31.07.21-5.44.08-10.92.12-16.37.87-8.69.35-18.43-.23-27.15l-.31-.19c-.42,1.9-.51,3.48-.37,5.42l.05.62c-1.7,9.23-2.51,18.69-3.61,28.01-1.53,12.91-3.2,25.82-4.53,38.74-.79,7.72-.06,15.32-2.06,22.91Zm107.39-597.03c.18,16.57,1.25,34.41,2.99,50.89,1.33-.27,1.4-.69,2.16-1.84,8.45-12.78,10.64-38.26,11.16-53.65.13-3.79.59-8.05-.22-11.74l-.45-.37c-3.65.6-5.1.65-7.37,3.83-3.01,4.21-4.97,8.74-8.25,12.87Z"/>
  <path d="m567.16,774.45l-.05-.62c-.14-1.94-.05-3.52.37-5.42l.31.19c.58,8.72,1.1,18.46.23,27.15-.87-7.01.36-14.37-.86-21.3Z"/>
  <path class="cls-1" d="m637.9,824.33c20.24,6.64,49.8,7.98,60.78,29.41,2.37,4.63,3.89,10.66,2.28,15.73-1.1,3.47-3.91,6.85-7.16,8.51-5.95,3.04-18.39,4.35-25.34,5.72-22.17,4.37-44.75,8.03-66.74,13.18,3.7,7.74,7.86,16.95,4.81,25.63-1.26,3.58-4.06,6.87-7.53,8.47-2.46,1.14-5.17,1.3-7.84,1.21-6.97-.22-14.04-1.27-20.97-2.03l-33.94-3.67c-9.28-1-37.93-3.05-44.49-5.45-3.08-1.13-6.49-3.98-7.76-7.06-1.17-2.83-1.43-6.12-1.43-9.16.02-7.9,1.6-15.95,2.46-23.8.78-7.06.79-14.55,2.77-21.39l.07-.25c.99,3.39,2.27,6.74,3.14,10.15,4.17,7.55,9.22,13.47,17.17,17.19,8.64,3.94,18.49,4.3,27.39.99,9.48-3.54,15.76-10.49,19.95-19.5l1.45-4.13c6.77,3.61,13.4,8.62,19.9,12.79-2.23-7.92-6.77-26.06-6.74-33.72,2.31,2.92,4.56,5.9,6.95,8.75,5.55,5.76,12.67,9.45,20.62,10.48,9.38,1.23,18.86-1.37,26.31-7.2,8.66-6.8,12.15-15.65,13.44-26.29.01-1.52.27-3.08.44-4.6Z"/>
  <path class="cls-8" d="m637.45,828.92l13.91,3.74,5.32,1.52c5.73,1.28,13.88,2.37,18.87,5.28l4.84,2.55c6.29,3.54,11.38,8.3,14.86,14.67l1.68,4.21c-25.7,4.45-51.27,9.84-76.86,14.88-11.24,2.21-22.54,4.77-33.87,6.46-1.77-.8-3.21-1.9-4.76-3.05-.96-4.61-5.82-23.94-4.38-27.26,5.55,5.76,12.67,9.45,20.62,10.48,9.38,1.23,18.86-1.37,26.31-7.2,8.66-6.8,12.15-15.65,13.44-26.29Z"/>
  <path class="cls-14" d="m581.46,879.19c4.67-2.12,26.71-5.54,33.1-6.8,26.82-5.28,53.73-11.36,80.71-15.71l1.68,4.21c-25.7,4.45-51.27,9.84-76.86,14.88-11.24,2.21-22.54,4.77-33.87,6.46-1.77-.8-3.21-1.9-4.76-3.05Z"/>
  <path class="cls-14" d="m651.37,832.66l5.32,1.52c5.73,1.28,13.88,2.37,18.87,5.28l4.84,2.55c-.59,1.73-1.13,3.59-1.97,5.21-.77,1.49-2,2.84-3.66,3.3-6.98,1.92-19.29-2.32-25.45-5.66.31-.53.61-1.06.93-1.58.46-.74.94-1.46,1.34-2.24,1.47-2.81.6-5.54-.22-8.38Z"/>
  <path class="cls-8" d="m656.69,834.18c5.73,1.28,13.88,2.37,18.87,5.28.02,1.1.11,2.38-.07,3.47-.22,1.35-1.23,2.42-2.44,2.98-4.49,2.08-12.95-1.3-17.36-2.69,1.19-3.15,1.36-5.75,1-9.04Z"/>
  <path class="cls-8" d="m555.52,868.25c4.14,2.88,8.4,5.6,12.76,8.15l4.68,3.03c5.39,3.25,11.56,6.52,16.36,10.58l3.66,3.79c5.05,5.13,8.51,11.61,9.99,18.65-12.25-2.49-25.72-3-38.2-4.35l-77.4-8.34c1.08-9.89,1.53-20.47,3.63-30.18,4.17,7.55,9.22,13.47,17.17,17.19,8.64,3.94,18.49,4.3,27.39.99,9.48-3.54,15.76-10.49,19.95-19.5Z"/>
  <path class="cls-14" d="m592.98,893.78c-.88,1.55-1.87,3.13-3.16,4.39-1.54,1.5-3.86,1.83-5.92,1.7-6.48-.43-15.1-6.19-19.38-10.92-.02-.03-1.05-1.17-1.06-1.2-.1-.68,3.89-5.32,4.36-6.63.41-1.16.39-2.68.43-3.9l.03-.82,4.68,3.03c5.39,3.25,11.56,6.52,16.36,10.58l3.66,3.79Z"/>
  <path class="cls-8" d="m572.96,879.42c5.39,3.25,11.56,6.52,16.36,10.58-.33,1.19-.73,2.54-1.36,3.6-.57.95-1.57,1.56-2.65,1.75-5.24.88-12.26-4.84-16.26-7.66,2.17-2.57,3.03-5.09,3.92-8.26Z"/>
  <path class="cls-8" d="m487.38,899.74l77.4,8.34c12.48,1.35,25.95,1.86,38.2,4.35l.14,4.41c-.16,1.9-.51,3.65-1.4,5.36-1.43,2.74-3.78,4.5-6.71,5.38-4.19,1.26-88.84-8.21-98.63-10.02-2.5-.46-4.46-1.5-6.63-2.75-2.36-3.7-3.31-6.83-2.79-11.23l.42-3.85Z"/>
  <path class="cls-14" d="m487.38,899.74l77.4,8.34c12.48,1.35,25.95,1.86,38.2,4.35l.14,4.41c-6.03-.43-12.13-1.48-18.15-2.14l-44.13-4.8c-8.22-.89-48.91-4.27-53.88-6.32l.42-3.85Z"/>
  <path class="cls-8" d="m586.22,882.24c11.33-1.69,22.62-4.25,33.87-6.46,25.59-5.04,51.16-10.43,76.86-14.88.34,3.69.55,7.15-1.99,10.19-1.41,1.68-2.87,2.72-4.93,3.45-7.99,2.82-17.4,3.83-25.76,5.47-21.81,4.28-44.16,7.79-65.73,13.08-3.95-3.79-8.06-7.41-12.32-10.85Z"/>
  <path class="cls-11" d="m553.5,33.44c9.96-1.02,20.35-.36,30.17,1.45,15.91,2.94,25.58,8.07,40.15,14.06,5.76,2.36,11.98,3.58,17.8,5.81,18.14,6.85,33.71,19.14,44.58,35.19,15.44,22.65,23.22,57.58,17.82,84.68-2.96,14.84-10.23,27.58-22.92,36.07,2.4-5.17,4.74-9.64,4.04-15.46l-.11-.91c.45-.11.9-.23,1.34-.35,1.39-.39,1.77-.38,2.49-1.69-.24-1.33-.12-1.51-1.28-2.27-4.45-2.93-9.77-5.05-14.46-7.66-11.22-6.25-22.32-13.15-32.47-21.05-12.95-9.94-23.46-22.69-30.73-37.31,4.41-7.73,8.38-15.4,11.77-23.64.51-1.19,1.03-2.44,1.36-3.69.48-1.87-.26-3.27-1.24-4.82l-1.29.03c-3.56,3.97-5.72,12.02-8.17,16.97-16.17,32.67-41.09,57.21-75.96,68.89-5.4-5.22-10.38-8.16-17.47-10.61,5.95-1.87,11.78-3.74,16.74-7.65,5.35-4.22,9.02-10.29,9.7-17.12.64-6.85-1.43-13.67-5.78-19-4.25-5.22-10.44-8.5-17.15-9.09-9.82-.83-17.78,3.96-25.05,10.01,1.58-6.06,2.77-12.3,1.83-18.57-.99-6.58-4.23-12.66-9.66-16.62-7.03-5.13-14.9-5.33-23.17-4.02,1.12-1.43,2.26-2.84,3.42-4.23,21.38-25.89,49.78-44.15,83.7-47.39Z"/>
  <path class="cls-7" d="m558.59,41.75c14.31-1.34,29.08.57,42.81,4.7,5.13,1.54,24.91,8.42,26.8,12.9.5,1.17.43,2.38-.18,3.5-2.1,3.83-5.61,3.95-9.18,2.31-3.29-1.52-6.42-3.44-9.76-4.84-21.73-9.11-44.41-10.92-67.12-4.56-11.11,3.64-22.25,8.72-31.47,15.98-4.01,3.16-13.02,13.58-17.16,14.47-1.57.34-3.37.03-4.71-.87-1.36-.91-1.78-1.84-2.14-3.39.2-1.96,1.04-3.12,2.27-4.62,16.19-19.82,44.99-33.04,69.85-35.59Z"/>
  <path class="cls-7" d="m641.88,62.55c1.29-.04,2.57,0,3.8.42,4.11,1.39,7.7,4.52,11.02,7.2,13.58,10.97,24.16,24.18,31.57,40,7.02,14.99,10.17,30.95,10.69,47.42.11,3.37.65,7.68-.66,10.86-.88,2.14-2.46,2.88-4.5,3.73-2.35-.17-5.09-.7-6.36-2.91-1.04-1.8-.83-5.03-.84-7.08-.07-11.73-.82-22.99-4.29-34.26-5.05-16.41-16.38-35.74-30.35-46.19-4.08-3.05-10.88-6.08-13.95-10.02-.8-1.03-1.18-2.76-.89-4.03.56-2.44,2.81-3.87,4.76-5.15Z"/>
  <path class="cls-1" d="m578.75,146.4c.17.04.36.04.51.13,1.21.73,1.29,1.37,1.55,2.63-2.62,4.34-13.88,3.28-18.78,8.18-2.2,2.2-3.15,5.52-4.97,8.05-.08.12-.17.23-.26.35-1.7-.79-2.21-.96-3.02-2.69,0-2.45.75-4.26,2.2-6.24,5.74-7.87,13.67-9.19,22.77-10.4Z"/>
  <path class="cls-1" d="m653.71,152.46c5.36.25,9.93,1,14.62,3.79,3.81,2.26,8,5.9,8.98,10.37.54,2.45.39,3.5-.95,5.48-4.09-1.71-5.09-9.13-9.22-12.09-4-2.87-11.62-1.53-14.78-4.92.15-1.49.3-1.52,1.35-2.62Z"/>
  <path class="cls-11" d="m636.32,529.63c3.92,9.4,6.21,20.12,8.89,29.96l14.26,52.51c2.61,9.59,4.86,19.53,8.1,28.92,10.07.63,20.26.52,30.35.58,3.03,11.68,5.88,26.16,10.01,37.27l.59,3.32c.78,2.24,1.97,6.85,1.26,9.11-.35,1.12-1.13,2.06-2.17,2.61-4.43,2.3-24.41,1.45-30.43,1.53-72.97,1.27-145.94-2.47-218.39-11.18-10.46-1.32-20.81-3.01-31.21-4.66-5.6-.89-11.83-1.38-17.22-3.09-2.57-.82-5.27-2.13-6.48-4.68-1.95-4.11.58-9.14,2.02-13.02l1.15-3.57c4.04-9.79,7.06-20.36,10.52-30.4,29.15,1.77,58.37,5.22,87.48,7.78,6.98-9.19,14.58-32.34,19.17-44.2,1.48-2.54,3.41-4.79,5.24-7.08.66,3.51,1.17,6.78,3.51,9.63,2.14,2.61,5.02,4.29,8.4,4.58,2.76.24,5.61-.5,7.7-2.36,2.15-1.9,3.27-4.77,3.29-7.61.03-3.48-4.89-27.07-6.45-30.62-.76-1.72-2-2.97-3.31-4.28,1.62-4.15,2.2-8.29,2.71-12.69,3.48-.42,7.1-.66,10.53-1.34l-.28,63.93c-.05,8.91-1.4,29.9.79,37.4,5.43,1.78,66.56,3.8,76.45,3.73,1.32-11.07,1.11-22.56,1.38-33.7.62-26.03.35-52.38,2.15-78.34Z"/>
  <path class="cls-11" d="m407.04,655.22c34.62,14.22,122.71,17.98,162.09,19.82,46.23,2.21,92.51,3.48,138.79,3.82l.59,3.32c.78,2.24,1.97,6.85,1.26,9.11-.35,1.12-1.13,2.06-2.17,2.61-4.43,2.3-24.41,1.45-30.43,1.53-72.97,1.27-145.94-2.47-218.39-11.18-10.46-1.32-20.81-3.01-31.21-4.66-5.6-.89-11.83-1.38-17.22-3.09-2.57-.82-5.27-2.13-6.48-4.68-1.95-4.11.58-9.14,2.02-13.02l1.15-3.57Z"/>
  <path class="cls-14" d="m407.04,655.22c34.62,14.22,122.71,17.98,162.09,19.82,46.23,2.21,92.51,3.48,138.79,3.82l.59,3.32c-.67.94-.68.87-1.78,1-3.63.45-7.8,0-11.47-.08l-23.41-.41c-48.44-.76-96.85-2.69-145.2-5.78-33.75-2.28-68.61-4.58-101.72-11.8-5.8-1.27-14.43-2.55-19.04-6.33l1.15-3.57Z"/>
  <path class="cls-7" d="m606.64,129.14c11.72,21.88,29.51,36.49,50.15,49.54,8.1,5.12,16.49,10.11,25.24,14.02-2.91,11.48-4.8,23.3-6.92,34.95-2.21,9.43-4.82,24.22-11.29,31.62-1.32.52-1.12-.02-2.37-.19-1.71-.23-8.56,3.95-10.38,4.86l-28.15,13.63-3.92,8.38c-9.44,1.96-18.9,2.86-28.54,2.34-11.08-.61-32.25-3.69-41.43-9.56-5.55-3.55-14.03-14.17-17.94-19.72-4.67-6.63-8.7-13.62-14.81-19.12-6.39-5.73-15.82-4.1-17.93-6.77-3.11-3.92-.37-15.71.22-20.41,2.7,1.83,5.38,3.61,8.42,4.82,6.62,2.64,13.81,2.85,20.36-.11,6.27-2.85,11.13-8.11,13.47-14.58,2.58-7.06,1.64-14-1.42-20.7,29.34-9.91,49.73-28.02,67.24-53.01Z"/>
  <path class="cls-4" d="m651.08,263.94c-1.55-6.57-2.97-12.46-.85-19.09,2.13-6.69,6.94-12.6,13.28-15.72,3.52-1.73,7.81-2.69,11.6-1.48-2.21,9.43-4.82,24.22-11.29,31.62-1.32.52-1.12-.02-2.37-.19-1.71-.23-8.56,3.95-10.38,4.86Z"/>
  <path d="m571,176.03c1.59-.02,3.08.03,4.59.58,3.15,1.15,5.61,3.85,6.99,6.84,2.95,6.38,2.76,15.13.17,21.59-1.93,4.81-4.54,7.5-9.21,9.56-1.4.04-2.8.09-4.15-.36-3.63-1.21-6.16-4.2-7.68-7.59-2.72-6.06-2.62-14.28-.28-20.44,1.91-5.02,4.69-8.04,9.57-10.19Z"/>
  <path d="m646.85,179.4c1.66,0,3.33-.04,4.91.56,3.45,1.32,5.95,4.3,7.31,7.66,2.52,6.22,2.33,14.65-.21,20.83-1.97,4.81-4.71,7.6-9.49,9.57-1.23.03-2.41,0-3.6-.37-3.31-1.01-5.92-3.7-7.46-6.72-3.17-6.18-3.2-14.55-.89-21.01,1.81-5.07,4.6-8.24,9.45-10.51Z"/>
  <path class="cls-1" d="m592.7,237.3c7.13.46,3.93,5.58,8.66,10.01,2.85,2.67,6.93,4.07,10.81,3.92,11.73-.45,9.27-8,14.47-13.37,1.39-.48,1.32-.57,2.63.06.71,1.65.57,2.15.38,3.89-1.19,4.37-3.06,8.06-6.78,10.82-4.12,3.06-9.42,3.97-14.43,3.22-5.02-.76-10.04-3.3-13.01-7.53-2.18-3.1-3.48-7.3-2.72-11.02Z"/>
  <path class="cls-5" d="m569.97,471.38c28.66,4.06,57.49,8.32,86,13.31l40.61,152.58c-8.57-.1-17.14-.14-25.71-.14-2.44-7.54-4.23-15.41-6.33-23.06-5.14-19.23-10.39-38.42-15.77-57.58-1.81-6.82-6.88-32.35-11.53-36.02-1.2-.95-1.86-.86-3.29-.6-1.59,1.51-1.83,4.84-2.02,6.99-1.09,11.93-.68,24.4-.99,36.41l-1.99,74.09c-23.03-.53-46.1-1.9-69.11-2.94-.32-33,.14-66.03.1-99.03,1.99-1.03,3.99-2.11,5.47-3.83,9.38-10.93,5.53-45.97,4.57-60.18Z"/>
  <path class="cls-11" d="m471.32,88.66c5.21-.35,10.59.45,15.01,3.39,11.37,7.58,9.98,22.9,5.55,33.96-1.72,4.29-7.88,12.45-7.09,16.82l.95.25c5.34-2.48,8.49-9.54,12.62-13.72,5.56-5.62,13.61-10.99,21.77-10.93,5.77.04,11.03,2.26,15.02,6.44,3.89,4.08,6.09,9.92,5.92,15.54-.83,27.89-40.34,21.02-43.81,24.23-.29,1.15-.63,1.54-.09,2.66,1.68.61,3.07.73,4.83.83,10.73.66,23.92,4.47,31.21,12.88,3.48,4.02,5.65,9.12,5.08,14.51-.64,6.07-4.41,12.24-9.23,15.94-4.32,3.32-9.45,4.6-14.83,3.8-10.86-1.63-19.09-11.32-24.64-20.02-1.63-2.56-2.84-5.33-4.65-7.77-1.37-.65-1.3-.61-2.75-.12-.55.94-.8,1.25-.57,2.4.4,2.05,1.97,4.23,2.81,6.16,1.58,3.64,2.82,7.41,3.68,11.28,1.72,7.76,1.87,16.81-2.67,23.69-3.41,5.16-8.23,7.48-14.05,8.76-1.44.09-2.9.18-4.34.16-5.29-.07-10.73-2.29-14.37-6.13-9.64-10.15-5.41-25.99.19-36.98,1.29-2.54,5.12-6.85,4.95-9.69-.05-.79-.61-.95-1.18-1.39-.44-.02-.91-.24-1.32-.07-2.05.86-8.71,10.45-10.77,12.59-2.99,3.11-6.33,5.96-10.02,8.19-5.23,3.16-11.24,4.89-17.31,3.26-5.41-1.47-10.05-4.96-12.96-9.75-2.98-5.01-4.04-11.14-2.47-16.79,3.44-12.34,17.4-17.28,28.92-17.99,3.67-.23,11.09.78,14.07-1.14.67-.43.5-.93.59-1.65-.24-.41-.36-.94-.73-1.25-1.49-1.19-15.15-2.35-17.91-3.06-3.39-.89-6.64-2.21-9.69-3.94-5.81-3.32-10.78-8.43-12.42-15.09-1.32-5.38-.22-10.92,2.68-15.58,3.14-5.04,7.82-8.6,13.69-9.85,12.81-2.73,23.21,7.03,29.62,16.97,1.7,2.64,4.92,9.41,7.49,10.74.71.36,1.41-.13,2.11-.36.42-.96.55-1.27.26-2.34-.45-1.68-1.62-3.28-2.32-4.88-1.77-4.03-3.14-8.59-4.1-12.88-1.7-7.63-1.83-16.49,2.65-23.26,3.55-5.36,8.62-7.51,14.61-8.84Z"/>
  <path d="m470.99,141.44c4.05,2.43,12.65,18.2,15.32,22.99-3.06,5.12-11.73,19.34-16.43,21.93-6.2-7.09-12.31-15.88-17.18-23.94,5.9-7.11,11.81-14.4,18.3-20.99Z"/>
  <path class="cls-12" d="m470.55,148.13c3.26,2.09,8.5,12.52,10.73,16.17-2.83,4.01-7.56,12.61-11.19,15.25-4.11-5.57-8.1-11.22-12.14-16.84,4.36-4.7,8.43-9.72,12.6-14.59Z"/>
  <path class="cls-5" d="m491.54,404.36c17.75,5.44,42.95,13.79,60.58,4.68,2.13-1.1,4.25-2.46,6.2-3.86,4.58,33.7,10.31,69.35,8.8,103.43l-.21,4.34c-.66,5.55-1.2,10.66-3.72,15.74-13.31,8.92-40.91,4.26-56.3,3.21-7.26-.49-14.6-.42-21.83-1.11-5.05-.48-9.11-1.71-12.41-5.87-3.4-4.28-4.46-9.45-3.91-14.76l.57-4.25c4.52-16.48,7.56-33.67,11.21-50.38,3.7-16.96,8.13-34.07,11.04-51.16Z"/>
  <path class="cls-5" d="m469.3,505.9c30.29,2.05,68.25,7.11,97.82,2.71l-.21,4.34c-.66,5.55-1.2,10.66-3.72,15.74-13.31,8.92-40.91,4.26-56.3,3.21-7.26-.49-14.6-.42-21.83-1.11-5.05-.48-9.11-1.71-12.41-5.87-3.4-4.28-4.46-9.45-3.91-14.76l.57-4.25Z"/>
  <path class="cls-14" d="m469.3,505.9c30.29,2.05,68.25,7.11,97.82,2.71l-.21,4.34c-28.28,4.07-69.21-.37-98.18-2.79l.57-4.25Z"/>
  <path class="cls-5" d="m457.92,505.95c2.53.31,4.91.35,7.45.27-.33,2.11-.7,4.24-.72,6.37-.07,6.17,1.91,12.44,6.43,16.8,5.92,5.7,13.05,5.96,20.78,5.91l4.56.23c5.48.13,11.2.25,16.62,1.1,9.77,1.53,17.39,5.5,27.38,2.17,1.57-.44,3.25-.61,4.86-.85-.5,4.4-1.08,8.54-2.71,12.69,1.31,1.31,2.55,2.56,3.31,4.28,1.56,3.55,6.48,27.14,6.45,30.62-.03,2.84-1.14,5.71-3.29,7.61-2.09,1.86-4.94,2.6-7.7,2.36-3.38-.3-6.26-1.97-8.4-4.58-2.34-2.85-2.85-6.12-3.51-9.63-1.83,2.29-3.75,4.54-5.24,7.08-1.53-.44-2.04-.16-3.45.61-.74.4-1.43.92-2.12,1.4-6.11,11.9-10.64,25.36-15.71,37.79l-83.96-7.7c12.67-38.28,26.4-76.22,38.95-114.54Z"/>
  <path class="cls-1" d="m491.86,535.32l4.56.23c5.48.13,11.2.25,16.62,1.1,9.77,1.53,17.39,5.5,27.38,2.17,1.57-.44,3.25-.61,4.86-.85-.5,4.4-1.08,8.54-2.71,12.69,1.31,1.31,2.55,2.56,3.31,4.28,1.56,3.55,6.48,27.14,6.45,30.62-.03,2.84-1.14,5.71-3.29,7.61-2.09,1.86-4.94,2.6-7.7,2.36-3.38-.3-6.26-1.97-8.4-4.58-2.34-2.85-2.85-6.12-3.51-9.63-1.83,2.29-3.75,4.54-5.24,7.08-1.53-.44-2.04-.16-3.45.61-.74.4-1.43.92-2.12,1.4-3.91,1.25-7.59,1.87-11.69,2.1-4.38,6.4-9.3,17.34-18.51,13.47-1.2-.51-3.12-1.5-4.45-1.23-2.29.45-3.95,3.63-6.76,4.21-2.88.59-7.75-1.26-10.03-2.91-2-1.45-3.15-3.6-3.49-6.03-1.33-9.52,12.16-24.1,17.99-31.35.32-11.83,5.8-22.51,10.16-33.33Z"/>
  <path class="cls-7" d="m496.42,535.55c5.48.13,11.2.25,16.62,1.1,9.77,1.53,17.39,5.5,27.38,2.17,1.07,2.82-.86,7.46-1.72,10.21-.54.02-1.08.06-1.62.08-.92.03-1.85.02-2.76.2-2.77.55-5.67,2.46-7.18,4.84-3.59,5.67-.25,15.34.91,21.4-.25.47-.51.92-.78,1.38-4.22,6.89-9.47,9.48-17.14,11.36,2.6-3.69,6.48-8.27,6.66-12.95.13-3.36-2.01-6.62-4.29-8.93-7.15-7.24-12.12,1.74-16.57,1.47-1.91-.11-4.98-1.89-9.5-2.07-1.72-4.95,7.77-24.79,9.98-30.26Z"/>
  <path class="cls-7" d="m502.65,568.48c.7-.06,1.39-.1,2.1-.12,2.1-.03,4.37.55,5.86,2.12,1.21,1.27,1.54,3.2,1.36,4.89-.58,5.6-13.79,23.73-18.51,27.47l-.41-.04c-2.82-.31-5.85-1-7.61-3.43-1.11-1.53-1.38-3.47-1.09-5.3.97-6.03,13.25-21.76,18.3-25.58Z"/>
  <path class="cls-7" d="m535.46,553.07c.83.08,1.68.16,2.5.36,1.37.34,2.84,1.09,3.57,2.34,1.39,2.42,7.41,29.84,6.45,31.8-1.05,2.16-3.26,2.94-5.32,3.85-1.17-.08-2.33-.3-3.45-.65-1.39-.44-2.79-1.41-3.44-2.75-2.04-4.23-7.14-26.73-5.56-30.58.94-2.29,3.18-3.33,5.26-4.37Z"/>
  <path class="cls-7" d="m487.21,570.29c.93.02,1.92,0,2.85.14,1.26.2,1.71.54,2.42,1.55-.49,6.56-9.75,12.05-12.05,18.2-1.45,3.88,1.12,8.64-.26,11.84-.78,1.8-2.83,2.47-4.54,3.07-2.67-.85-5.63-2.01-7.1-4.57-.9-1.56-1.15-3.45-.56-5.17,1.87-5.42,14.42-22.54,19.25-25.06Z"/>
  <path class="cls-14" d="m667.99,335.59c-.05-3-.38-6.17.58-9.06l.77-.65c7.43,5.06,14.29,12.07,21.09,17.99l42.92,37.4,3.87,3.47c.77.63,1.53,1.27,2.29,1.91,2.05,1.73,3.78,2.84,4.02,5.66-1.42,2.9-4.88,4.05-7.66,5.31-20.41,9.33-70.93,30-92.83,21.6-17.3-6.63-29.89-39.23-35.53-55.77-2.28-6.67-3.9-14.11-6.69-20.53-1.15-.38-2.44-.61-3.19-1.63l1.02-1.17c2.61-1.12,5.65-.92,8.45-1.01,2.21-.32,4.47-.28,6.7-.33,17.97-.98,36.32-1.3,54.2-3.21Z"/>
  <path class="cls-14" d="m607.09,339.13c2.21-.32,4.47-.28,6.7-.33,2.57,15.42,18.73,57.1,31.73,65.99,5.98,4.09,15.25,2.02,21.82.63,17.47-3.71,34.41-10.54,50.9-17.23,4.77-1.93,10.95-3.87,15.1-6.92l3.87,3.47c.77.63,1.53,1.27,2.29,1.91,2.05,1.73,3.78,2.84,4.02,5.66-1.42,2.9-4.88,4.05-7.66,5.31-20.41,9.33-70.93,30-92.83,21.6-17.3-6.63-29.89-39.23-35.53-55.77-2.28-6.67-3.9-14.11-6.69-20.53-1.15-.38-2.44-.61-3.19-1.63l1.02-1.17c2.61-1.12,5.65-.92,8.45-1.01Z"/>
  <path class="cls-5" d="m607.09,339.13c2.21-.32,4.47-.28,6.7-.33,2.57,15.42,18.73,57.1,31.73,65.99,5.98,4.09,15.25,2.02,21.82.63,17.47-3.71,34.41-10.54,50.9-17.23,4.77-1.93,10.95-3.87,15.1-6.92l3.87,3.47c-5.08,1.86-10.05,4.43-15.07,6.51-19.23,7.97-39.86,16.62-60.57,19.55-7.64,1.08-13.53,1.38-19.9-3.55-12.91-10.01-21.69-35.25-27.08-50.39-1.78-5.01-4.17-10.57-4.75-15.88-.08-.7.31-.86.74-1.38l-3.5-.48Z"/>
  <path class="cls-7" d="m512.86,694.16c19.36,1.57,38.75,2.86,58.15,3.87-6.21,45.25-10.17,90.85-16.33,136.11-1.42-2.34-3-4.48-4.66-6.66l-.44-.48c-6.58-7.05-15.45-11.32-25.14-11.56-11.02-.27-19.66,4.57-27.42,11.98,2.85-19.98,4.86-40.16,7.25-60.21,2.9-24.33,6.11-48.68,8.59-73.05Z"/>
  <path class="cls-6" d="m402.01,119.78c.63-.11,1.17-.05,1.8,0,.01,1.7-1.7,3.74-2.36,5.39-2.33,5.79-2.17,13.02.24,18.74,3.98,9.47,12.68,14.05,21.74,17.66-5.87,1.41-10.63,3.42-15.92,6.35-5.74-.63-11.62-1.07-17.36-.27-13.65,1.91-25.96,10.89-34.1,21.69-10.25,13.59-16.71,30.6-14.24,47.76,2.14,14.93,9.86,28.37,23.02,36.12,2.76,1.62,7.67,2.81,9.68,4.32l-1.07.68c-14.07,1.6-28.1,1.5-40.1-7.03-11.63-8.27-17.6-22.51-19.8-36.21-4-24.97,4.81-54.57,19.74-74.91,16.25-22.12,41.84-36.24,68.71-40.29Z"/>
  <path class="cls-14" d="m476.61,307.23c4.76,8.45,13.41,12.7,21.91,16.5-.41,6.21-.16,13.02,3.25,18.45,3.11,4.96,7.65,6.68,13.05,7.92.41,1.64.52,3.61,2.11,4.58.94.58,2.14.94,3.17,1.32-5.19,3.87-7.71,16.67-8.58,22.69-.29,2-.49,4.06-.5,6.08,0,2.13-.06,4.28.02,6.41.09,4.99,1.28,9.88,2.53,14.69-29.69-6.33-59.11-18.59-87.09-30.24-4.41-1.84-13.34-4.42-16.45-7.87-.83-.92-1.39-2.2-1.26-3.45.28-2.58,3.08-4.41,4.94-5.92l4.15-3.24,58.77-47.92Z"/>
  <path class="cls-14" d="m413.69,358.39l4.15-3.24c8.44,3.57,88.31,31.96,92.66,30.48l.5-.86c0,2.13-.06,4.28.02,6.41.09,4.99,1.28,9.88,2.53,14.69-29.69-6.33-59.11-18.59-87.09-30.24-4.41-1.84-13.34-4.42-16.45-7.87-.83-.92-1.39-2.2-1.26-3.45.28-2.58,3.08-4.41,4.94-5.92Z"/>
  <path class="cls-5" d="m413.69,358.39l4.15-3.24c8.44,3.57,88.31,31.96,92.66,30.48l.5-.86c0,2.13-.06,4.28.02,6.41-12.7-4.69-26.14-8.08-39.04-12.36-19.55-6.5-38.8-13.82-58.3-20.43Z"/>
  <path class="cls-5" d="m615.37,394.61c2.66,1.82,5.83,9.23,7.77,12.1,2.83,4.18,6.08,8.32,9.96,11.59,10.17,8.58,22.02,7.2,34.4,6.22.68,13.49,1.96,26.95,2.75,40.44-4.52,5.08-9,10.2-13.43,15.35-19.59-2.42-39.11-6.11-58.67-8.92l-15.09-2.63c5.35-.68,27.78.19,30.92-1.6.64-1.3.59-1.54.45-3-1.9-1.45-39.8.82-45.07.94-.88-11.03-2.04-22.04-3.47-33.01,16.31-12.72,33.05-24.94,49.49-37.49Z"/>
  <path class="cls-1" d="m591.03,418.27c6.11-1.3,12.1,2.62,13.35,8.74,1.25,6.12-2.74,12.08-8.87,13.27-6.05,1.17-11.91-2.75-13.14-8.78-1.23-6.04,2.63-11.93,8.66-13.22Z"/>
  <path class="cls-14" d="m590.98,422.72c2.36-.85,4.99-.37,6.89,1.26,1.9,1.63,2.77,4.16,2.29,6.61-.49,2.46-2.26,4.46-4.63,5.25-3.61,1.19-7.51-.73-8.75-4.32-1.24-3.59.63-7.51,4.21-8.8Z"/>
  <path class="cls-7" d="m575.97,698.17c17.8.85,35.7,1.67,53.52,1.53l1.38,103.22c-3.11-3.73-6.33-6.74-10.35-9.48-7.08-4.11-15.18-5.93-23.32-4.73-10.31,1.51-18.11,7.09-24.18,15.35-.44-13.05-.41-26.12-.63-39.18-.18-10.9-.75-21.95-.17-32.85.6-11.25,2.41-22.66,3.75-33.86Z"/>
  <path class="cls-14" d="m520.07,820.59c6.84-.47,13.44.73,19.32,4.36,6.76,4.22,11.57,10.95,13.37,18.72,2.1,8.91.49,19.79-4.46,27.53-4.79,7.49-11.78,11.48-20.28,13.42-7.78.62-14.77-.13-21.44-4.5-6.63-4.34-11.25-11.15-12.85-18.91-1.85-8.95-.27-19.59,4.8-27.27,5.16-7.81,12.58-11.58,21.54-13.35Z"/>
  <path class="cls-14" d="m599.27,793.47c6.83-.51,13.58.99,19.35,4.72,7,4.52,11.59,11.78,13.2,19.9,1.76,8.87.52,18.73-4.59,26.33-5.11,7.61-12.32,11.32-21.11,13.11-7.64.39-14.44-.73-20.86-5.14-6.72-4.62-11.11-11.8-12.54-19.79-1.63-9.13-.3-19.1,5.17-26.76,5.25-7.34,12.66-10.93,21.37-12.36Z"/>
  <path class="cls-14" d="m626.2,280.75c11.11-5.44,22.27-10.8,33.46-16.07,1.54,19.82,2.48,39.73,3.66,59.58-3.03,2.94-6.91,5.07-10.13,7.89l1.05.09c-13.42.87-26.85,1.61-40.29,2.22l-5.22.39-7.71.33c7.62-18.4,16.89-36.3,25.16-54.43Z"/>
  <path class="cls-5" d="m608.74,334.85c5.62-8.87,26.04-54.5,30.01-57.08,1.33.1,1.48-.08,2.34.91.11,1.55-.18,2.62-.78,4.05-1.88,4.53-4.77,8.96-7.02,13.36-6.51,12.72-13.33,25.41-19.33,38.37l-5.22.39Z"/>
  <path class="cls-11" d="m462.08,243.68c18.88,2.5,22.17-8.22,28.01-8.21.79.83.78,1.14.93,2.24.65,4.84.42,10.1.65,15.01.28,6.06,1.08,11.98,2,17.97l1.76,7.87,2.76,8.91,2.73,6.74c2.81,5.48,5.81,10.77,9.41,15.78l.81.86c4.07,4.87,12.73,15,19.28,16.03,1.34-.43,1.64-.31,2.33-1.51-.65-1.94-2.1-3.5-1.98-5.5l1.01-1.07c1.98.79,3.7,4.79,4.54,6.72,1.49,3.38,2.46,7.67.93,11.18-1.45,3.33-4.69,5.17-7.98,6.32-3.09,1.08-6.47,1.59-9.71,1.98l-2.87.02c-3.38-.2-6.45-1.12-8.91-3.52-4.27-4.17-4.34-10.71-4.41-16.25,2.63.81,5.31,1.48,7.96,2.21l1.39-.02c1.12-1.09,1.37-1.23,1.72-2.82-.31-.43-.55-.91-.92-1.29-.47-.48-17.6-6.26-20.78-8.01-5.44-2.99-10.94-7.32-12.53-13.62-1.42-5.63.75-10.34,3.57-15.03,2.86.56,5.76,1.39,8.67.93,1.22-.81,1.21-.76,1.56-2.17-.32-.98-.34-1.41-1.31-1.93-2.01-1.07-5.52-1.32-7.79-1.79-6.55-1.36-13.16-3.04-19.01-6.38-4.37-2.49-8.31-6.06-9.53-11.13-1.78-7.42,2.09-14.38,5.71-20.53Z"/>
  <path class="cls-7" d="m495.42,278.57c-.45,1.03-.63,1.25-1.72,1.75-3.12,1.44-10.39-1.07-13.47-2.21-7.03-2.6-14.55-6.97-17.66-14.15-1.72-3.98-1.79-8.33-.08-12.32.99-2.3,3.03-5.78,5.52-6.6,1.82-.6,4.27.17,5.88,1.03,3.35,4.65-2.74,9.48-.94,14.43,2.2,6.07,15.31,8.01,20.72,10.2l1.76,7.87Z"/>
  <path class="cls-7" d="m498.18,287.48l2.73,6.74c2.81,5.48,5.81,10.77,9.41,15.78l.81.86c.11,2.11.29,4.28-1.15,6.01-1,1.19-2.25,1.69-3.77,1.83-4.28.39-9.25-2.62-12.38-5.36-3.44-3.01-5.84-6.97-6.03-11.62-.18-4.31,2.12-9.59,5.26-12.6,1.53-1.47,3.09-1.64,5.13-1.65Z"/>
  <path class="cls-11" d="m500.91,294.22c2.81,5.48,5.81,10.77,9.41,15.78-2.69-.86-5.57-1.81-8.09-3.1-1.75-.89-3.2-2.29-3.8-4.21-.96-3.1,1.06-5.85,2.48-8.48Z"/>
  <path class="cls-7" d="m503.37,325.27c2.63.81,5.31,1.48,7.96,2.21l1.39-.02c2.38,2.4,2.76,4.09,3.14,7.37,2.07.76,5.01,1.48,5.79,3.83.69,2.1-.94,4.71-2.08,6.36l-2.87.02c-3.38-.2-6.45-1.12-8.91-3.52-4.27-4.17-4.34-10.71-4.41-16.25Z"/>
  <path class="cls-11" d="m503.37,325.27c2.63.81,5.31,1.48,7.96,2.21-1.8.57-3.37,1.42-4.22,3.2-.72,1.5-.5,3.45.1,4.95,1.93,4.85,5.42,6.67,9.48,9.42-3.38-.2-6.45-1.12-8.91-3.52-4.27-4.17-4.34-10.71-4.41-16.25Z"/>
  <path class="cls-11" d="m514.82,350.11c9.24.23,17.37-1.26,24.4-7.5,1.33.96,2.95,2.02,3.32,3.74.28,1.26-.08,2.58-.97,3.52-.8.84-2.19,1.54-3.24,2.01l.76.4c-1.63,3.52-.84,6.7.46,10.18,3.16,8.48,7.5,16,16.11,19.79,5,2.2,10.49,3.08,15.85,3.86.08,4.08.21,7.03-2.77,10.21-3.72,3.97-9.14,4.36-13.88,6.37-1.52.64-3.04,1.79-4.58,2.28-4.56,2.49-9.17,3.6-14.36,3.78-6.14,1.27-10.92.02-16.77-1.85-4.65-12.68-4.13-26.37.18-39.03,1-2.93,3.31-6.01,3.92-8.87.32-1.49-.46-2.15-1.27-3.26l-1.91.27c-1.03-.38-2.23-.74-3.17-1.32-1.58-.97-1.7-2.94-2.11-4.58Z"/>
  <path class="cls-8" d="m514.82,350.11c9.24.23,17.37-1.26,24.4-7.5,1.33.96,2.95,2.02,3.32,3.74.28,1.26-.08,2.58-.97,3.52-.8.84-2.19,1.54-3.24,2.01-7.6,3.42-9.49,2.2-16.33,3.85l-1.91.27c-1.03-.38-2.23-.74-3.17-1.32-1.58-.97-1.7-2.94-2.11-4.58Z"/>
  <path d="m539.7,404.35c-.74-.38-1.46-.79-2.17-1.23-2.88-1.78-5.58-4.93-6.23-8.34-.34-1.75-.05-2.7.93-4.1l1.52-.25c2.3.99,2.7,3.1,3.69,5.27,2.39,5.2,6.39,3.3,10.78,4.93,1.1,1.51.9,1.93.87,3.75l1.21.57c-4.56,2.49-9.17,3.6-14.36,3.78.03-.16.05-.32.1-.47.6-1.85,2.03-3.01,3.66-3.93Z"/>
  <path class="cls-14" d="m549.08,404.39l1.21.57c-4.56,2.49-9.17,3.6-14.36,3.78.03-.16.05-.32.1-.47.6-1.85,2.03-3.01,3.66-3.93,3.43.81,5.98,1.08,9.39.05Z"/>
  <path d="m547.59,387.81c3.9-.22,9.94,2.64,13.29,4.72.73,1.62.47,1.84,0,3.49-.66.13-1.31.21-1.98.23-3.36.12-7.16-1-9.56-3.45-1.55-1.59-1.83-2.81-1.75-4.99Z"/>
  <path class="cls-14" d="m539.22,342.61c.4-.36.76-.71,1.11-1.13,3.4-4.13,2.89-8.8,2.33-13.74,11.54,2.2,23.03,5.02,34.51,7.54l4.33.94c4.35,1.03,8.73,1.98,13.06,3.1-3.64,9.83-14.63,36.97-21.49,43.66l-.64.06-1.09-2.01c-3.71-.83-7.49-1.28-11.17-2.22l-4.15-1.84c-6.2-3.81-9.64-10.46-11.81-17.2-.6-1.86-1.02-4.26-1.99-5.95-.75-1.3-1.78-1.2-3.13-1.53l-.76-.4c1.05-.46,2.44-1.16,3.24-2.01.88-.94,1.24-2.26.97-3.52-.37-1.72-1.99-2.78-3.32-3.74Z"/>
  <path class="cls-14" d="m577.17,335.27l4.33.94c4.35,1.03,8.73,1.98,13.06,3.1-3.64,9.83-14.63,36.97-21.49,43.66l-.64.06-1.09-2.01c-3.71-.83-7.49-1.28-11.17-2.22l-4.15-1.84c5.4-4.35,17.87-34.18,21.15-41.69Z"/>
  <path class="cls-5" d="m577.17,335.27l4.33.94c-7.05,14.42-12.72,28.91-21.33,42.59l-4.15-1.84c5.4-4.35,17.87-34.18,21.15-41.69Z"/>
  <path class="cls-11" d="m501.15,235.88c6.69,1.18,13.07,9.07,17.39,14.08,4.07,4.73,8.09,11.53,7.37,17.98-.67,6.05-5.62,11.09-10.74,13.94-1.56.87-3.79,1.68-5.07,2.9-.96.91-.74,1.37-.72,2.6.68.93.77,1.29,1.98,1.48,3.37.54,9.37-4.54,12.09-6.46,5.85,5.1,9.59,9.56,10.62,17.5-.34,7.43-4,12.57-8.39,18.27-5.77-4.95-10.72-10.09-14.85-16.52-10.02-15.61-13.41-33.78-14.32-51.99-.18-3.65-.78-7.72.01-11.29,1.63-.57,2.89-1.14,4.27-2.2.12-.09.24-.19.36-.29Z"/>
  <path class="cls-6" d="m684.22,574.49c17.55,23.95,36.96,46.8,55.48,70.04,6.66,8.36,14.46,16.8,20.36,25.68.83,1.25,1.28,2.77.98,4.27-.28,1.4-1.14,2.58-2.36,3.33-1.28.79-2.87.98-4.33.62-1.19-.3-2.29-.97-3.18-1.81-3.43-3.24-6.43-7.52-9.67-11.04l-22.43-24.54c-5.93-6.41-20.67-20.91-24.13-27.7-.68-1.34-1.04-2.83-1.38-4.29-1.23-3.25-1.86-6.97-2.7-10.36-2.06-8.11-4.27-16.18-6.64-24.2Z"/>
  <path class="cls-3" d="m690.86,598.7c7.65,8.68,64.94,71.81,66.21,75.58-.29,1.34-.34,1.27-1.48,2.06-1.63-.12-2-.53-3.19-1.61-5.59-5.04-10.58-11.66-15.58-17.34l-31.22-35.53c-3.12-3.53-8.01-10.64-12.03-12.81-1.23-3.25-1.86-6.97-2.7-10.36Z"/>
  <path class="cls-14" d="m531.48,266.71c12.18,13.13,23.79,26.82,35.72,40.18,7.8,8.74,16.83,17.52,23.6,27.03-4.59-1-9.24-1.9-13.79-3.07-2.78-.47-5.51-1.14-8.25-1.78l-27.79-6.19c-1.79-3.14-3.84-6.16-5.8-9.2,3.44-6.31,4.23-11.63,3.33-18.7-2.34-6.67-6.16-11.21-11.17-16.12-.1-1.3.43-1.66,1.13-2.71,1.65-2.98,2.38-6.13,3.02-9.45Z"/>
  <path class="cls-14" d="m538.51,294.99c4.57,3.52,27.3,29.33,30.26,34.09l-27.79-6.19c-1.79-3.14-3.84-6.16-5.8-9.2,3.44-6.31,4.23-11.63,3.33-18.7Z"/>
  <path class="cls-5" d="m538.51,294.99c-2.34-6.67-6.16-11.21-11.17-16.12-.1-1.3.43-1.66,1.13-2.71,6.27,8.67,14.22,16.55,21.35,24.55,8.97,10.05,17.72,20.61,27.21,30.15-2.78-.47-5.51-1.14-8.25-1.78-2.96-4.76-25.69-30.56-30.26-34.09Z"/>
  <path class="cls-6" d="m605.6,372c3.11,4.13,5.85,13.28,8.25,18.45l-45.39,34.26-3.36,2.57c-.56-7.56-1.81-15.16-2.79-22.67,14.66-10.52,28.9-21.73,43.29-32.61Z"/>
  <path class="cls-5" d="m471.67,397.79c5.23,2.15,10.82,3.77,16.19,5.59l-8.72,40.33c-1.38,6.37-2.55,16.96-5.56,22.5-1.49,1.18-3.18,2.06-4.83,3.01l-9.3-13.55c4.69-19.07,8.27-38.62,12.22-57.87Z"/>
  <path class="cls-2" d="m555.41,287.08c5.22.79,10.54,2.62,15.73,3.74,12.93,2.79,25.9,3.27,39.03,1.94-.04,3.67.22,7.16.68,10.8l-3.18,6.88-1.1,2.02c-3.82,2.05-23.17-.05-28.53-.31-7.83-8.03-15.15-16.71-22.62-25.08Z"/>
  <path class="cls-5" d="m596.76,345.39c2.01,2.27,6.31,18.32,7.57,22.16l-27.08,20.39-5.75,4.26c11.1-13.31,19.7-30.47,25.26-46.81Z"/>
  <path class="cls-11" d="m425.52,318.33c.55,0,1.11,0,1.66.03,6.98.41,11.66,5.69,16.01,10.51l-10.05,8.17c-1.52,1.3-3.18,2.46-4.78,3.66-4.13-2.19-7.93-4.87-9.99-9.24-1.05-2.23-1.46-4.99-.45-7.31,1.45-3.31,4.39-4.73,7.6-5.83Z"/>
  <path class="cls-10" d="m458.66,276.77c2.8,1.91,5.57,3.56,8.6,5.07-5.03,5.21-8.83,10.95-12.58,17.09-1.21.51-2.42,1.08-3.55,1.75-6.08,3.59-7.2,10.45-8.77,16.71-.25.89-.53,1.53-1.03,2.3-2.03-.29-3.32-1.8-4.89-3.07,4.66-14.57,11.26-28.96,22.23-39.86Z"/>
  <path class="cls-6" d="m472.1,472.79l.46.84c-1.89,7.7-2.41,16.9-5.26,24.17-.69,1.76-1.87,3.63-3.75,4.26-2.58.86-5.55-.96-7.63-2.28-.33-.34-.46-.45-.74-.79-1.68-2.06-2.8-4.62-2.48-7.32.9-7.58,13.64-14.63,19.4-18.88Z"/>
  <path class="cls-7" d="m688.3,211.89c.62.17,1.08.51,1.58.9,2.66,2.12,3.92,5.17,4.26,8.47.68,6.56-1.48,14.21-5.7,19.26-.89.82-1.52,1.29-2.66,1.78-1.36-3.36-1.89-21.74-2.32-26.97l4.83-3.44Z"/>
  <path class="cls-11" d="m454.55,303.48c1.75-.25,3.48-.49,5.24-.17,3.63.65,5.4,3.17,7.26,6.04-3.83,3.26-7.78,6.4-11.67,9.59l-7.08,5.89c-.44-3.84-1.01-7.72-.37-11.57.75-4.49,2.99-7.27,6.63-9.77Z"/>
  <path class="cls-5" d="m580.28,315.31c8.15.22,16.33.89,24.47,1.36l-4.99,10.74-3.03,6.34c-5.37-6.25-10.85-12.4-16.45-18.44Z"/>
  <path class="cls-5" d="m394.56,277.47l10.17,3.68c.81,3.72,1.44,7.42,1.95,11.2-3.63-1.43-7.37-2.62-11.05-3.9-.52-3.63-1.18-7.3-1.07-10.97Z"/>
  <path class="cls-10" d="m451.81,267.43c1.08,1.89,2.15,3.78,3.2,5.68-5.88,3.83-11.02,8.17-16.13,12.93-.43.48-.75.64-1.31.94-.07-.63-.12-.79-.01-1.51,1.16-7.86,8.48-13.44,14.25-18.05Z"/>
  <path class="cls-6" d="m451.64,238.49c1.57,1.34,3.47,2.37,5.22,3.46-3.68,7.16-5.78,12.96-6.49,21.04l-2.16,1.73-3.38,2.47c.23-3.24,2.36-6.89,3.28-10.08,1.76-6.1,2.83-12.31,3.54-18.61Z"/>
  <path class="cls-10" d="m470.49,284.51c.53,3.81-.26,8.53-.23,12.46-3.28.61-6.55,1.42-9.81,2.14-.08-3.93,7.5-11.71,10.04-14.6Z"/>
  <path class="cls-10" d="m445.07,286.28c-.42,2.38-8.49,16.97-10.33,21.64-.34-1.98-.29-4.27-.22-6.28.25-6.72,6.04-11.12,10.54-15.36Z"/>
  <path class="cls-7" d="m679.59,230.71c.47,3.59,2.15,10.37.46,13.6-.64,1.22-2.05,1.17-3.28,1.45l-.47-.37c-.55-3.73,2.3-10.84,3.3-14.68Z"/>
  <path class="cls-13" d="m445.49,388.06c3.23.67,6.45,2.2,9.52,3.4-4.4,0-6.11-.8-9.52-3.4Z"/>
  <path class="cls-9" d="m534.24,211.88c.08,1.43-.23,2.79.85,3.79,9.65,1.39,17.44,2.38,23.72,10.73,4.09,5.44,5.66,12.45,4.67,19.15-.93,6.27-4.56,12.97-9.8,16.66-4.03,2.84-10.34,3.29-13.71,6.28-2.92-3.1-6.03-6.22-8.5-9.7-3.04-4.29-5.63-9.13-8.99-13.16-2.99-3.58-7.54-6.37-10.05-10.22-1.68-.89-3.41-.44-5.23-.61-2.7-.25-8.06-.59-9.82-2.82-1.93-5.02.41-14.59,1.21-19.98,7.27,5.16,12.92,6.88,21.82,6.91,5.54-1.4,9.47-3.33,13.84-7.05Z"/>
</svg>