<?xml version="1.0" encoding="utf-8" ?>
<svg xmlns="http://www.w3.org/2000/svg" xmlns:xlink="http://www.w3.org/1999/xlink" width="1134" height="950">
	<path d="M427.198 118.997C437.487 85.57 464.17 54.0459 495.148 37.6332C523.174 22.7843 556.449 21.3687 586.461 30.6851C593.235 32.7876 599.691 35.8218 606.449 37.9133C612.806 39.8806 619.344 41.0218 625.643 43.2372C649.783 51.4695 669.811 68.702 681.551 91.3403C694.324 115.772 701.645 149.855 693.081 176.591C690.172 185.53 685.171 193.646 678.494 200.264C684.202 205.639 688.111 210.466 688.376 218.637C688.605 225.693 686.477 233.769 681.602 239.059C680.236 240.541 678.513 241.883 676.901 243.081C678.007 267.738 678.679 296.548 663.323 317.336C666.648 321.877 667.571 325.493 668.046 331.074C683.581 342.974 699.02 355 714.36 367.151C722.784 373.693 732.234 379.945 739.987 387.209C741.42 388.551 742.917 390.007 743.135 392.028C743.343 393.963 742.562 395.904 741.355 397.388C738.342 401.093 732.005 403.804 727.718 405.918C745.482 422.08 763.765 437.736 781.864 453.525C790.044 460.66 800.551 468.19 807.206 476.571C810.629 480.883 812.491 485.2 812.795 490.724C813.166 497.469 810.512 503.621 806.026 508.571C804.234 510.548 802.084 512.326 800.04 514.036C798.759 515.053 797.475 516.039 796.316 517.195C784.548 527.016 774.34 538.8 762.344 548.308L758.759 551.219C752.41 556.517 742.379 564.743 733.453 563.955C725.906 563.288 718.908 554.299 714.589 548.803C701.479 532.122 690.838 513.352 680.545 494.849C676.031 486.734 671.1 478.452 667.391 469.942C664.185 473.735 660.83 476.883 661.428 482.313C661.945 487.002 664.508 491.94 666.006 496.437C668.171 502.94 670.059 509.556 672.054 516.114C675.011 525.829 681.611 550.477 685.886 558.475C690.548 567.198 701.037 577.344 707.758 585.082L750.41 634.093C756.309 640.823 769.413 653.877 773.192 661.061C774.5 663.549 773.434 667.388 772.236 669.723C771.891 670.399 771.489 671.044 771.035 671.651C769.796 673.286 768.065 674.385 765.995 674.552C761.78 674.892 757.803 672.038 754.867 669.307C743.962 659.166 733.742 647.959 723.221 637.382C717.603 631.734 708.233 623.691 703.845 617.537L716.118 656.216C718.462 663.606 721.646 671.491 722.843 679.154C723.328 682.252 723.55 686.709 722.038 689.501C721.173 691.097 719.914 691.443 718.243 691.857C710.938 693.669 702.086 693.426 694.549 693.899C680.997 694.751 667.104 696.049 653.53 695.958C654.617 734.611 652.977 773.389 653.66 812.042C654.076 812.357 654.489 812.677 654.898 813C659.01 816.236 660.872 818.923 661.426 824.204C662.113 830.748 662.582 851.396 661.094 857.337C660.514 859.656 658.683 861.71 657.216 863.553C669.473 870.329 683.831 874.561 694.627 883.633C702.227 890.02 707.75 898.431 708.583 908.501C708.952 912.964 707.72 917.687 704.672 921.051C701.132 924.957 695.831 925.356 690.882 925.543C676.557 926.085 662.03 925.595 647.686 925.582L568.059 925.564L524.488 925.568C516.356 925.6 507.564 926.275 499.491 925.284C496.291 924.891 493.083 923.707 490.758 921.42C488.239 918.941 487.149 915.489 486.531 912.098C485.615 907.066 486.12 901.236 486.131 896.117L486.21 867.054C482.483 865.118 479.914 863.169 477.938 859.405C473.49 850.936 474.189 830.764 477.081 821.595C478.603 816.768 481.147 813.904 485.636 811.58L485.702 694.092C479.589 693.204 473.2 693.059 467.024 692.543C455.587 691.636 444.173 690.47 432.789 689.046C427.141 688.334 421.05 687.918 415.666 685.988C412.061 684.695 409.207 682.565 407.678 678.954C406.699 676.644 406.863 674.137 407.379 671.736C409.671 661.067 413.921 650.467 416.976 639.949C423.417 617.769 429.463 595.492 436.046 573.342L450.186 525.468C452.696 517.057 454.737 508.38 458.143 500.28C455.821 498.417 454.126 496.714 452.464 494.233C449.699 499.117 446.81 503.929 443.8 508.664C437.502 518.754 423.163 542.448 411.183 544.843C403.469 546.385 395.182 539.946 389.133 535.942C385.819 532.767 382.283 529.834 378.55 527.164C369.787 519.041 361.205 510.728 352.34 502.716C350.217 500.284 348.021 497.957 345.005 496.642C337.647 489.565 330.739 483.874 330.507 472.856C330.354 465.619 334.727 458.932 339.687 454.037C354.695 439.225 372.17 425.347 388.149 411.461C394.37 406.055 401.342 400.722 406.87 394.62C403.45 392.924 400.111 391.258 398.858 387.33C398.073 384.87 398.643 382.365 399.852 380.138C401.197 377.659 403.652 375.677 405.815 373.923C405.866 367.625 406.377 362.022 411.163 357.358C414.423 354.183 418.677 352.468 422.998 351.292C416.633 348.422 410.5 345.219 407.926 338.228C406.648 334.756 406.611 330.501 408.187 327.115C409.683 323.904 412.446 322.048 415.727 320.959C418.404 320.071 421.011 319.894 423.782 320.344C423.138 313.32 422.405 306.148 423.298 299.118C426.023 277.668 437.365 262.864 436.741 239.723C436.63 235.631 433.825 231.423 432.99 227.377C431.867 221.939 432.498 216.27 431.299 210.826L430.743 211.075C419.983 215.991 414.224 222.092 401.399 217.449C395.064 215.113 389.945 210.31 387.212 204.136C384.467 198.056 383.989 190.639 386.422 184.37C387.177 182.426 388.203 180.559 389.324 178.807C375.872 178.644 364.792 182.314 355.001 191.848C343.7 202.854 335.19 220.463 335.046 236.371C334.932 248.909 339.64 261.89 348.482 270.891C355.041 277.569 363.525 281.6 372.957 281.635C376.868 281.65 380.697 280.916 384.433 279.792C388.741 281.027 398.458 282.661 400.599 286.974C401.952 289.699 403.969 298.774 402.767 301.405C402.221 302.598 401.722 303.058 400.442 303.376C398.113 303.955 388.06 300.763 386.115 299.259C381.75 295.885 383.258 286.149 380.042 286.431C376.006 286.784 371.582 289.279 367.507 290.182C350.879 293.869 332.716 293.185 318.885 282.218C305.841 271.875 299.827 254.677 298.049 238.629C297.446 233.186 296.963 227.393 297.398 221.932C298.898 203.113 307.708 176.797 319.907 161.929C333.262 145.651 351.84 132.754 371.829 126.204C377.976 124.19 385.172 123.632 391.027 121.253C392.509 120.651 393.925 119.224 395.173 118.229C398.595 115.481 402.758 113.816 407.131 113.447C414.588 112.748 420.793 115.525 427.198 118.997ZM555.861 811.79C559.776 814.119 562.876 816.095 564.022 820.816C565.689 827.678 565.85 855.402 562.512 860.926C561.914 861.917 561.24 862.877 560.567 863.818C568.119 867.746 575.865 871.199 583.517 874.911C583.366 872.338 583.195 869.798 583.38 867.221C579.514 865.209 575.366 863.088 573.942 858.61C571.977 852.429 571.834 823.199 574.84 817.917C576.762 814.54 579.907 813.004 583.263 811.413C583.997 773.557 582.229 735.588 583.337 697.735C574.565 696.315 564.756 697.046 555.845 697.011L555.861 811.79ZM482.074 208.8C483.532 214.723 481.971 224.236 481.23 230.336L482.071 230.806C483.013 227.578 484.195 212.569 483.157 209.544L482.074 208.8ZM467.492 287.126C466.656 295.073 465.808 305.572 471.362 312.247C471.694 312.646 471.9 312.718 472.309 312.937C472.646 312.724 473.208 312.45 473.469 312.158C465.671 299.934 470.422 299.365 470.358 287.638L467.492 287.126ZM671.648 244.853C669.128 245.458 666.573 246.008 664.077 246.7C660.764 254.146 657.282 261.114 651.51 267.013C653.425 281.879 655.154 296.768 656.698 311.676L657.005 313.403L657.857 313.973C659.877 313.521 661.051 311.797 662.114 310.149C671.529 295.56 672.547 274.131 672.547 257.073C672.547 253.824 672.867 248.914 672.11 245.779C672.001 245.327 671.879 245.196 671.648 244.853Z"/>
	<path fill="#241A18" d="M485.702 694.092L490.057 694.271C510.531 695.568 531.03 696.432 551.541 696.862L555.845 697.011L555.861 811.79C559.776 814.119 562.876 816.095 564.022 820.816C565.689 827.678 565.85 855.402 562.512 860.926C561.914 861.917 561.24 862.877 560.567 863.818C568.119 867.746 575.865 871.199 583.517 874.911C583.366 872.338 583.195 869.798 583.38 867.221C579.514 865.209 575.366 863.088 573.942 858.61C571.977 852.429 571.834 823.199 574.84 817.917C576.762 814.54 579.907 813.004 583.263 811.413C583.997 773.557 582.229 735.588 583.337 697.735C583.655 697.721 583.969 697.714 584.285 697.667C592.741 696.429 601.845 696.296 610.367 697.076C623.34 696.919 636.31 696.646 649.278 696.258L653.53 695.958C654.617 734.611 652.977 773.389 653.66 812.042C654.076 812.357 654.489 812.677 654.898 813C659.01 816.236 660.872 818.923 661.426 824.204C662.113 830.748 662.582 851.396 661.094 857.337C660.514 859.656 658.683 861.71 657.216 863.553C669.473 870.329 683.831 874.561 694.627 883.633C702.227 890.02 707.75 898.431 708.583 908.501C708.952 912.964 707.72 917.687 704.672 921.051C701.132 924.957 695.831 925.356 690.882 925.543C676.557 926.085 662.03 925.595 647.686 925.582L568.059 925.564L524.488 925.568C516.356 925.6 507.564 926.275 499.491 925.284C496.291 924.891 493.083 923.707 490.758 921.42C488.239 918.941 487.149 915.489 486.531 912.098C485.615 907.066 486.12 901.236 486.131 896.117L486.21 867.054C482.483 865.118 479.914 863.169 477.938 859.405C473.49 850.936 474.189 830.764 477.081 821.595C478.603 816.768 481.147 813.904 485.636 811.58L485.702 694.092Z"/>
	<path fill="#FEE6E0" d="M490.057 694.271C510.531 695.568 531.03 696.432 551.541 696.862L551.549 811.134L490.032 811.131L490.057 694.271Z"/>
	<path fill="#FEE6E0" d="M610.367 697.076C623.34 696.919 636.31 696.646 649.278 696.258L649.317 811.148L587.487 811.131L587.485 697.323C595.05 697.347 602.837 697.739 610.367 697.076Z"/>
	<path fill="#5E0037" d="M490.421 867.43C502.128 867.546 513.835 867.583 525.542 867.539C535.835 867.536 546.107 867.76 556.358 866.674C560.161 868.579 563.992 870.428 567.849 872.221L573.283 875C579.226 877.563 584.98 880.327 590.551 883.64L594.736 887.025C600.29 891.7 604.351 897.358 606.548 904.328L607.217 908.02C607.477 911.418 606.903 914.6 604.673 917.282C602.353 920.07 599.897 920.849 596.39 921.087C580.068 922.199 563.04 921.273 546.638 921.276C532.194 921.278 516.537 922.281 502.236 921.038C499.419 920.793 496.356 920.601 494.144 918.635C491.539 916.32 490.467 912.684 490.414 909.293C490.41 909.043 490.415 908.794 490.415 908.545L490.441 904.369L490.421 867.43Z"/>
	<path fill="#5E0037" d="M606.548 904.328L607.217 908.02C607.477 911.418 606.903 914.6 604.673 917.282C602.353 920.07 599.897 920.849 596.39 921.087C580.068 922.199 563.04 921.273 546.638 921.276C532.194 921.278 516.537 922.281 502.236 921.038C499.419 920.793 496.356 920.601 494.144 918.635C491.539 916.32 490.467 912.684 490.414 909.293C490.41 909.043 490.415 908.794 490.415 908.545L490.441 904.369C503.714 903.892 517.144 904.291 530.432 904.288L606.548 904.328Z"/>
	<path fill="#FEFEFE" d="M606.548 904.328L607.217 908.02C606.916 908.251 606.668 908.575 606.315 908.712C605.556 909.006 500.798 908.594 490.415 908.545L490.441 904.369C503.714 903.892 517.144 904.291 530.432 904.288L606.548 904.328Z"/>
	<path fill="#FEFEFE" d="M567.849 872.221L573.283 875C579.226 877.563 584.98 880.327 590.551 883.64L594.736 887.025C594.038 888.451 593.351 890.013 592.407 891.293C591.191 892.941 589.539 893.719 587.542 893.989C579.85 895.031 569.418 888.453 563.622 883.968C564.946 882.621 566.556 881.189 567.575 879.6C569.077 877.26 568.391 874.724 567.849 872.221Z"/>
	<path fill="#5E0037" d="M573.283 875C579.226 877.563 584.98 880.327 590.551 883.64C590.472 884.703 590.323 886.093 589.892 887.07C589.331 888.342 588.279 889.165 586.941 889.491C582.084 890.673 574.388 885.799 570.327 883.582C572.067 880.727 572.735 878.251 573.283 875Z"/>
	<path fill="#5E0037" d="M587.57 867.497C608.12 867.633 633.164 868.918 653.215 866.565C657.015 868.574 660.922 870.374 664.807 872.212L670.249 874.949C675.968 877.544 682.444 880.039 687.571 883.701L691.684 886.981C697.264 891.906 701.217 897.198 703.55 904.333L704.387 908.848C704.102 912.184 703.706 915.286 701.294 917.859C699.657 919.604 697.562 920.564 695.219 920.909C686.06 922.258 675.46 921.286 666.133 921.28L607.435 921.226C610.478 916.855 611.284 913.7 611.425 908.475L610.93 904.498C607.108 890.86 598.877 884.477 587.705 876.735C587.557 873.669 587.609 870.567 587.57 867.497Z"/>
	<path fill="#5E0037" d="M703.55 904.333L704.387 908.848C704.102 912.184 703.706 915.286 701.294 917.859C699.657 919.604 697.562 920.564 695.219 920.909C686.06 922.258 675.46 921.286 666.133 921.28L607.435 921.226C610.478 916.855 611.284 913.7 611.425 908.475L610.93 904.498C620.865 903.467 631.558 904.256 641.579 904.265L703.55 904.333Z"/>
	<path fill="#FEFEFE" d="M703.55 904.333L704.387 908.848C673.437 908.882 642.372 908.918 611.425 908.475L610.93 904.498C620.865 903.467 631.558 904.256 641.579 904.265L703.55 904.333Z"/>
	<path fill="#FEFEFE" d="M664.807 872.212L670.249 874.949C675.968 877.544 682.444 880.039 687.571 883.701L691.684 886.981C691.081 888.608 690.073 890.596 688.921 891.921C687.672 893.359 685.767 893.939 683.925 894.074C676.462 894.623 666.253 888.513 660.697 883.913C662.015 882.55 663.61 881.1 664.621 879.497C666.069 877.2 665.4 874.649 664.807 872.212Z"/>
	<path fill="#5E0037" d="M670.249 874.949C675.968 877.544 682.444 880.039 687.571 883.701C687.427 884.78 687.297 886.075 686.873 887.081C686.366 888.286 685.339 889.136 684.083 889.46C679.155 890.729 671.441 885.822 667.319 883.602C669.068 880.76 669.773 878.199 670.249 874.949Z"/>
	<path fill="#FEFEFE" d="M542.465 815.165C546.802 815.195 553.683 814.518 557.027 817.664C559.779 820.252 560.457 825.326 560.542 828.943C560.726 836.748 562.425 855.387 556.714 860.915C555.553 862.039 554.426 862.495 552.85 862.777C546.827 863.856 539.889 863.221 533.746 863.214L498.458 863.155C493.834 863.232 488.174 863.892 484.296 860.851C481.775 858.874 480.956 854.668 480.674 851.621C479.956 843.849 479.269 823.383 484.124 817.904C485.107 816.795 486.279 816.128 487.729 815.835C493.125 814.744 499.373 815.321 504.879 815.354C517.309 815.428 530.074 816.063 542.465 815.165Z"/>
	<path fill="#FEFEFE" d="M639.624 815.159C644.14 815.202 650.456 814.615 653.984 817.974C656.344 820.22 657.082 824.676 657.232 827.823C657.597 835.444 658.993 855.111 653.475 860.808C652.184 862.14 650.777 862.531 649 862.836C643.172 863.837 636.409 863.22 630.471 863.213L594.76 863.155C590.584 863.223 584.567 863.906 581.103 861.033C578.683 859.026 577.757 854.906 577.457 851.893C576.762 844.926 575.964 823.225 580.7 817.926C581.713 816.793 582.882 816.164 584.367 815.873C589.862 814.794 596.006 815.355 601.593 815.376C614.19 815.424 627.064 815.959 639.624 815.159Z"/>
	<path fill="#FE8F9F" d="M553.59 470.246C566.551 468.976 581.957 472.193 595.015 473.645C615.436 475.787 635.845 478.05 656.24 480.435C661.937 497.134 666.868 514.191 672.157 531.029L703.563 631.191C694.948 631.326 686.336 631.642 677.734 632.139L651.53 550.405C648.419 540.895 646.133 530.709 642.421 521.456C641.482 519.116 640.824 517.578 638.386 516.568C637.063 516.64 636.069 516.581 635.118 517.65C634.143 518.747 634.062 520.037 633.988 521.445C633.391 532.732 634.386 544.612 634.592 555.941C635.163 582.07 635.578 608.202 635.839 634.336L573.925 634.301L566.718 634.306C565.214 606.08 564.345 577.791 563.245 549.545C562.909 540.922 563.319 521.89 561.362 514.78C561.009 513.459 560.118 512.347 558.906 511.714C557.659 511.07 556.069 511.075 554.787 511.621C553.121 512.331 552.351 513.597 551.603 515.165C546.042 526.826 542.108 540.743 537.668 552.991L509.536 630.545C499.761 629.585 489.759 629.512 479.939 629.043L425.351 626.531C437.22 584.852 450.531 543.505 461.871 501.686C464.035 501.543 466.407 501.821 468.501 501.182C477.511 498.436 494.331 481.056 502.756 474.527C519.655 472.811 536.66 471.663 553.59 470.246Z"/>
	<path fill="#FEBDC2" d="M539.628 30.117C540.811 29.9952 541.999 29.9122 543.188 29.868C558.775 29.2624 574.337 31.6137 589.049 36.7975C594.018 38.5189 598.796 40.7851 603.768 42.4757C608.7 44.1524 613.954 44.9455 618.969 46.3654C633.593 50.5058 647 58.1148 658.052 68.5456C679.455 88.7767 690.938 120.524 691.525 149.757C691.918 169.31 686.367 184.719 672.855 198.744C673.878 192.415 675.258 186.322 677.323 180.246C672.496 177.968 667.437 176.196 662.6 173.912C635.549 161.14 608.861 145.057 593.909 118.14C597.061 111.729 606.922 93.4854 605.242 86.9016C603.898 85.6504 603.43 85.8467 601.648 85.7114C599.928 91.2141 598.104 96.6513 595.857 101.965C581.484 135.942 558.098 162.019 523.582 175.949C517.962 171.02 512.525 168.497 505.443 166.168C511.289 164.237 516.796 162.122 521.511 158.038C526.704 153.541 530.016 147.371 530.417 140.474C530.772 133.59 528.401 126.844 523.817 121.695C519.451 116.773 513.309 113.786 506.741 113.391C496.565 112.834 488.822 118.165 481.559 124.64C482.824 118.499 483.615 112.157 482.3 105.951C480.908 99.3838 477.172 93.4627 471.432 89.8725C464.205 85.3515 456.272 85.6344 448.245 87.4211C451.167 83.4318 454.113 79.4688 457.277 75.6663C478.582 50.0606 506.004 33.1977 539.628 30.117Z"/>
	<path fill="#FEE6E0" d="M548.634 37.8925C560.247 36.9386 572.965 38.9183 584.138 42.0535C590.929 43.9591 605.034 46.9472 608.286 53.4542C608.966 54.8132 609.071 55.8363 608.637 57.3038C608.038 57.9872 607.592 58.4834 606.728 58.825C601.286 60.9748 595.838 57.0061 590.866 55.1215C564.609 45.1679 537.916 46.2352 512.522 57.9442C505.565 61.4436 498.984 65.6474 492.885 70.4894C488.439 74.0706 479.073 86.3637 474.482 87.2055C473.034 87.4708 471.686 87.15 470.497 86.2778C469.686 85.6836 468.467 84.259 468.357 83.2278C468.053 80.3575 471.007 77.2122 472.812 75.2123C492.711 53.1625 518.748 39.5771 548.634 37.8925Z"/>
	<path fill="#FEE6E0" d="M622.937 54.6985C623.99 54.7131 624.976 54.7631 625.996 55.054C629.547 56.067 632.713 58.4322 635.735 60.481C649.456 69.6152 660.902 81.7719 669.193 96.0177C678.079 111.12 682.881 127.635 684.623 145.007C685.006 148.829 685.864 153.33 684.737 157.077C683.981 159.588 682.515 160.341 680.281 161.502C679.464 161.437 678.651 161.328 677.846 161.178C675.803 160.795 674.189 160 673.43 157.963C671.812 153.62 672.586 147.504 672.19 142.852C671.379 133.314 668.741 123.464 665.1 114.648C658.217 97.9829 646.401 82.4287 631.508 72.1295C627.894 69.6305 620.544 67.165 618.321 63.4941C617.71 62.4854 617.602 61.2445 617.914 60.1187C618.606 57.6208 620.842 55.9697 622.937 54.6985Z"/>
	<path fill="#241A18" d="M563.023 142.455C563.867 142.302 564.219 142.416 565.033 142.622C566.114 143.846 566.268 143.816 566.268 145.426C562.985 148.995 556.902 148.866 552.641 150.53C547.867 152.394 545.504 158.097 543.778 162.496C543.173 162.425 542.405 162.387 541.82 162.168C540.534 161.685 540.136 160.852 539.529 159.709C539.557 157.519 540.54 155.699 541.823 153.958C547.194 146.674 554.407 143.956 563.023 142.455Z"/>
	<path fill="#241A18" d="M638.497 144.035C642.671 143.861 646.464 144.105 650.446 145.431C655.363 147.069 660.677 150.416 662.888 155.268C663.887 157.46 664.567 159.634 663.722 161.953C663.075 161.914 661.959 161.927 661.373 161.579C658.985 160.163 656.765 152.7 651.897 150.16C647.909 148.08 642.18 149.688 638.535 147.412C637.857 145.923 638.132 145.585 638.497 144.035Z"/>
	<path fill="#FEBDC2" d="M512.159 634.671L512.532 634.014C521.148 618.649 551.95 518.583 556.684 516.396C557.66 517.517 557.766 519.015 557.889 520.446C558.756 530.514 558.565 540.885 558.978 551.006C560.16 580.042 560.846 609.199 562.621 638.2C572.36 639.53 583.121 638.489 592.981 638.472C608.609 638.445 624.422 638.97 640.028 638.349C641.1 600.801 638.229 563.073 638.535 525.489C647.968 551.653 655.993 578.372 664.461 604.863C667.781 615.25 670.767 625.938 674.606 636.136C684.738 636.432 694.871 635.527 705.005 635.481C708.745 647.725 712.098 660.445 716.674 672.383L717.396 675.555C718.31 677.679 719.505 682.47 718.894 684.706C718.603 685.772 717.951 686.65 717.005 687.226C713.151 689.572 693.61 689.697 687.973 690.029C614.378 694.53 540.56 693.95 467.044 688.293C456.326 687.407 445.694 686.163 435.017 684.897C429.856 684.286 424.229 684.103 419.224 682.671C416.623 681.926 413.674 680.733 412.401 678.159C410.505 674.326 412.699 669.262 413.834 665.458L414.969 661.693L424.269 630.625C441.481 631.893 458.814 632.369 476.056 633.166C487.998 633.718 500.218 634.826 512.159 634.671Z"/>
	<path fill="#FEBDC2" d="M414.969 661.693C442.092 670.412 472.286 671.33 500.627 672.667C536.571 674.25 572.553 674.807 608.529 674.336C644.548 674.049 680.68 673.889 716.674 672.383L717.396 675.555C718.31 677.679 719.505 682.47 718.894 684.706C718.603 685.772 717.951 686.65 717.005 687.226C713.151 689.572 693.61 689.697 687.973 690.029C614.378 694.53 540.56 693.95 467.044 688.293C456.326 687.407 445.694 686.163 435.017 684.897C429.856 684.286 424.229 684.103 419.224 682.671C416.623 681.926 413.674 680.733 412.401 678.159C410.505 674.326 412.699 669.262 413.834 665.458L414.969 661.693Z"/>
	<path fill="#FEFEFE" d="M414.969 661.693C442.092 670.412 472.286 671.33 500.627 672.667C536.571 674.25 572.553 674.807 608.529 674.336C644.548 674.049 680.68 673.889 716.674 672.383L717.396 675.555C716.996 676.094 716.666 676.283 715.986 676.457C711.935 677.496 706.081 677.028 701.854 677.141L669.508 677.882C620.213 678.832 448.03 682.29 413.834 665.458L414.969 661.693Z"/>
	<path fill="#FEE6E0" d="M590.944 123.497C608.518 152.191 640.399 170.967 670.976 183.128C667.48 196.068 666.264 209.515 664.195 222.73C661.497 238.606 658.318 253.819 645.849 265.099C624.536 282.565 598.557 289.134 571.426 286.477C559.877 285.346 531.313 278.737 522.469 272.07L523.218 268.564C523.298 267.225 523.301 265.884 523.227 264.545C522.562 251.981 511.8 243.913 503.275 236.142C501.751 235.49 501.152 235.011 499.492 235.299C498.667 236.138 498.122 236.776 497.571 237.837C495.627 237.29 492.573 236.495 491.353 234.871C490.355 233.817 487.92 233.221 487.326 232.233C485.854 229.783 487.601 216.379 487.921 213.038C490.402 214.553 492.88 216.062 495.621 217.067C502.258 219.499 509.621 219.521 516.055 216.457C522.188 213.47 526.876 208.16 529.08 201.705C531.688 194.154 530.351 187.148 526.889 180.172C555.649 168.591 574.567 149.327 590.944 123.497Z"/>
	<path fill="#FEDDC7" d="M503.275 236.142C507.468 228.526 512.067 221.486 520.91 219.026C527.785 217.113 535.4 218.273 541.526 221.899C547.228 225.254 551.333 230.77 552.911 237.194C554.626 244.032 553.487 251.274 549.753 257.255C546.153 263.039 540.335 267.09 533.661 268.46C530.116 269.207 526.784 269.003 523.218 268.564C523.298 267.225 523.301 265.884 523.227 264.545C522.562 251.981 511.8 243.913 503.275 236.142Z"/>
	<path fill="#FEDDC7" d="M645.849 265.099C644.815 263.566 643.83 262.001 642.896 260.406C639.305 254.242 638.364 247.77 640.271 240.873C642.136 234.124 646.826 227.88 653.05 224.558C656.194 222.88 660.766 221.62 664.195 222.73C661.497 238.606 658.318 253.819 645.849 265.099Z"/>
	<path d="M557.119 176.119C558.719 175.927 560.433 175.663 562.025 176.041C565.261 176.811 567.954 179.267 569.581 182.091C573.064 188.137 573.336 196.894 571.307 203.464C569.771 208.434 567.297 211.632 562.72 214.047C561.446 214.217 560.154 214.391 558.875 214.175C555.719 213.644 552.79 211.359 551.11 208.696C547.513 202.995 546.836 194.861 548.382 188.404C549.697 182.91 552.256 179.036 557.119 176.119Z"/>
	<path d="M633.421 176.082C635.067 175.883 636.72 175.654 638.351 176.071C641.621 176.908 644.275 179.389 645.89 182.282C649.241 188.283 649.485 196.857 647.542 203.341C646.048 208.323 643.603 211.526 639.054 213.977C637.704 214.186 636.327 214.413 634.965 214.173C631.764 213.608 628.93 211.322 627.254 208.605C623.603 202.686 623.002 194.228 624.787 187.61C626.205 182.352 628.724 178.833 633.421 176.082Z"/>
	<path fill="#241A18" d="M615.389 234.422C616.647 234.507 617.576 234.568 618.721 235.172C619.647 236.739 619.744 238.037 619.414 239.831C618.558 244.481 615.163 248.925 611.212 251.442C606.877 254.202 601.278 255.016 596.305 253.785C590.312 252.301 586.456 248.289 583.415 243.173C583.002 242.059 582.451 240.847 582.315 239.663C582.155 238.27 582.538 236.784 583.477 235.75L584.883 235.929C587.281 237.486 587.797 239.93 589.024 242.351C590.646 245.554 594.252 248.091 597.682 249.047C601.053 249.986 604.65 249.402 607.657 247.651C612.842 244.633 614.113 239.851 615.389 234.422Z"/>
	<path fill="#FEBDC2" d="M455.381 90.4341C458.826 90.3235 462.001 90.5596 465.264 91.7418C470.391 93.5634 474.536 97.4256 476.713 102.411C483.129 116.889 474.449 129.143 469.42 141.975C469.726 143.278 469.742 143.224 470.851 143.989C471.309 143.937 471.79 143.984 472.226 143.832C474.038 143.199 481.017 131.962 483.188 129.533C486.124 126.249 489.412 123.213 493.266 121.036C498.685 117.975 504.806 116.599 510.907 118.4C516.625 120.088 521.171 124.255 523.883 129.493C526.51 134.566 526.981 140.044 525.101 145.457C520.887 157.593 507.576 162.109 495.867 163.193C492.642 163.492 486.779 163.221 484.129 164.783C483.438 165.191 483.59 166.115 483.487 166.846C485.513 168.349 489.468 168.376 491.925 168.592C502.711 169.54 515.169 172.241 522.336 181.167C525.576 185.203 526.811 189.812 526.152 194.938C525.399 200.802 522.452 206.898 517.656 210.447C513.101 213.817 507.425 215.4 501.79 214.479C488.223 212.26 480.039 198.829 472.682 188.632C471.311 188.067 471.333 188.14 469.921 188.637C469.515 189.71 469.361 190.043 469.708 191.197C470.367 193.394 472.023 195.632 473.054 197.694C475.27 202.129 476.982 207.104 477.961 211.965C479.412 219.177 479.121 227.261 474.72 233.46C471.115 238.537 465.989 240.744 460.092 241.814C459.745 241.838 459.397 241.865 459.05 241.873C453.021 242.009 447.146 240.535 442.74 236.158C433.332 226.811 436.159 211.609 440.792 200.703C442.293 197.17 445.567 193.379 445.328 189.43C445.258 188.273 445.215 188.493 444.461 187.795C439.159 189.288 430.928 210.727 414.781 214.205C409.281 215.39 402.849 214.329 398.228 211.043C393.494 207.678 390.229 202.093 389.293 196.395C388.39 191.056 389.709 185.579 392.943 181.236C401.736 169.229 417.6 169.81 430.685 167.823C431.811 166.87 431.761 166.906 431.942 165.438C429.353 163.543 414.799 162.843 410.224 161.556C402.76 159.456 394.63 155.142 390.847 148.043C388.388 143.429 388.402 137.726 390.053 132.84C392.027 127 395.523 122.31 401.185 119.609C413.854 113.566 425.98 121.97 433.81 131.674C435.779 134.114 440.882 143.126 443.63 144.098C444.898 143.786 444.99 143.893 445.7 142.822C445.586 139.342 442.515 135.571 441.151 132.356C439.461 128.371 438.038 124.25 437.205 119.996C435.813 112.887 436.113 105 440.415 98.8775C444.085 93.6546 449.332 91.4872 455.381 90.4341Z"/>
	<path d="M455.925 143.682C459.939 144.625 470.04 161.234 472.784 165.454C472.716 165.58 472.649 165.707 472.58 165.833C470.958 168.755 461.312 186.312 458.854 187.448C458.309 187.7 457.701 187.786 457.125 187.956C451.025 180.745 444.621 173.351 439.256 165.586C443.164 158.399 450.513 149.919 455.925 143.682Z"/>
	<path fill="#FF6365" d="M456.44 149.839C460.482 154.797 464.031 160.333 467.726 165.563C464.552 170.786 461.484 176.135 457.984 181.146L457.125 181.239L444.39 165.323C448.438 160.187 452.455 155.025 456.44 149.839Z"/>
	<path fill="#FE8F9F" d="M723.437 408.093L799.807 474.982L802.882 477.86C806.678 482.639 808.973 487.394 808.381 493.676C808.059 497.098 807.108 500 805.026 502.769C800.227 509.151 793.106 514.057 787.254 519.45C776.491 529.368 766.199 540 754.702 549.072C750.063 552.732 740.13 560.599 733.813 559.865C729.463 559.359 725.2 554.39 722.356 551.365L719.637 548.258C700.105 523.256 684.872 494.407 670.348 466.267L674.113 461.539C673.116 450.438 671.663 439.362 670.364 428.292C688.748 424.226 706.517 416.134 723.437 408.093Z"/>
	<path fill="#FE8F9F" d="M799.807 474.982L802.882 477.86C806.678 482.639 808.973 487.394 808.381 493.676C808.059 497.098 807.108 500 805.026 502.769C800.227 509.151 793.106 514.057 787.254 519.45C776.491 529.368 766.199 540 754.702 549.072C750.063 552.732 740.13 560.599 733.813 559.865C729.463 559.359 725.2 554.39 722.356 551.365L719.637 548.258C745.818 532.282 777.967 497.398 799.807 474.982Z"/>
	<path fill="#FEFEFE" d="M799.807 474.982L802.882 477.86C788.777 493.877 739.507 543.593 722.356 551.365L719.637 548.258C745.818 532.282 777.967 497.398 799.807 474.982Z"/>
	<path fill="#FE8F9F" d="M343.88 455.954C366.87 436.262 389.296 415.911 412.235 396.162C428.739 402.19 445.41 407.75 462.229 412.833C459.623 428.437 455.762 445.785 454.294 461.346L461.148 470.547C458.933 474.143 455.455 476.549 453.277 479.996C451.212 483.264 451.245 487.366 449.51 490.774C443.121 503.321 434.349 516.043 425.729 527.167L423.255 530.234C420.168 533.596 415.042 540.09 410.256 540.926C404.576 541.919 394.733 534.692 390.527 531.445C378.605 522.24 367.953 511.175 356.878 500.973C350.936 495.5 343.898 490.568 338.898 484.226C336.813 481.581 335.749 478.745 335.366 475.41C334.623 468.953 336.873 463.745 340.822 458.821L343.88 455.954Z"/>
	<path fill="#FE8F9F" d="M343.88 455.954C361.945 473.054 379.787 490.426 398.781 506.512C404.593 511.396 410.571 516.081 416.704 520.557C419.469 522.592 423.469 524.699 425.729 527.167L423.255 530.234C420.168 533.596 415.042 540.09 410.256 540.926C404.576 541.919 394.733 534.692 390.527 531.445C378.605 522.24 367.953 511.175 356.878 500.973C350.936 495.5 343.898 490.568 338.898 484.226C336.813 481.581 335.749 478.745 335.366 475.41C334.623 468.953 336.873 463.745 340.822 458.821L343.88 455.954Z"/>
	<path fill="#FEFEFE" d="M343.88 455.954C361.945 473.054 379.787 490.426 398.781 506.512C404.593 511.396 410.571 516.081 416.704 520.557C419.469 522.592 423.469 524.699 425.729 527.167L423.255 530.234C404.877 519.174 388.554 503.709 372.758 489.257C361.94 479.358 350.976 469.4 340.822 458.821L343.88 455.954Z"/>
	<path fill="#FEFEFE" d="M411.395 374.627C418.458 368.165 474.636 315.883 476.461 315.418C476.741 315.346 477.04 315.42 477.329 315.421C477.436 315.572 477.566 315.711 477.65 315.876C479.162 318.835 476.667 327.372 476.088 330.593C482.234 331.893 488.5 332.746 494.705 333.722C495.488 336.402 496.347 339.149 497.856 341.518C501.078 346.575 506.214 348.155 511.739 349.275C512.15 350.863 512.4 352.586 513.87 353.54C514.562 353.99 515.523 354.214 516.3 354.488C516.534 354.57 516.765 354.66 516.997 354.746L519.752 354.753C523.797 352.885 529.514 352.571 534.515 350.254C535.477 349.749 536.474 349.248 537.371 348.632C538.37 347.947 539.005 346.91 539.193 345.718C539.442 344.144 538.831 342.987 537.912 341.766C537.83 341.657 537.744 341.551 537.66 341.444L537.792 340.79L569.159 345.94L574.106 346.761C578.321 347.456 582.645 347.994 586.785 349.041C582.762 362.087 578.132 374.894 571.716 386.979C570.43 389.953 569.059 392.899 566.835 395.304C564.479 399.319 561.561 403.254 558.489 406.75C550.945 415.338 542.262 421.011 530.659 421.618C520.602 422.145 510.006 420.311 500.174 418.282C487.481 415.664 410.59 394.163 403.991 387.517C403.201 386.721 402.77 385.694 402.815 384.579C402.924 381.87 405.352 380.051 407.174 378.335L411.395 374.627Z"/>
	<path fill="#FEBDC2" d="M537.792 340.79L569.159 345.94L574.106 346.761C578.321 347.456 582.645 347.994 586.785 349.041C582.762 362.087 578.132 374.894 571.716 386.979C570.43 389.953 569.059 392.899 566.835 395.304C561.571 395.174 555.641 398.722 550.049 399.199C548.965 400.786 548.337 401.675 546.544 402.438C544.507 402.498 542.523 402.391 540.492 402.255C537.119 405.196 533.462 407.615 528.799 407.401C524.893 407.223 521.796 405.467 518.626 403.394C519.239 404.954 519.802 406.56 520.514 408.076C519.292 409.112 518.575 409.708 516.894 409.791C515.509 408.998 515.445 408.691 514.744 407.319C513.959 405.405 513.284 403.429 512.562 401.489C512.118 400.021 511.739 398.534 511.426 397.032C508.589 383.709 509.384 366.497 516.997 354.746L519.752 354.753C523.797 352.885 529.514 352.571 534.515 350.254C535.477 349.749 536.474 349.248 537.371 348.632C538.37 347.947 539.005 346.91 539.193 345.718C539.442 344.144 538.831 342.987 537.912 341.766C537.83 341.657 537.744 341.551 537.66 341.444L537.792 340.79Z"/>
	<path fill="#FEFEFE" d="M537.792 340.79L569.159 345.94L574.106 346.761C578.321 347.456 582.645 347.994 586.785 349.041C582.762 362.087 578.132 374.894 571.716 386.979C570.651 385.433 570.691 383.619 570.533 381.803C571.144 380.075 571.321 379.266 570.54 377.611C568.322 376.031 564.724 376.243 562.034 375.981L557.64 374.964C548.592 371.632 544.735 364.897 541.366 356.354C540.784 354.879 540.164 352.254 539.086 351.11C538.192 350.16 536.668 350.514 535.465 350.517L534.515 350.254C535.477 349.749 536.474 349.248 537.371 348.632C538.37 347.947 539.005 346.91 539.193 345.718C539.442 344.144 538.831 342.987 537.912 341.766C537.83 341.657 537.744 341.551 537.66 341.444L537.792 340.79Z"/>
	<path fill="#FEFEFE" d="M569.159 345.94L574.106 346.761C578.321 347.456 582.645 347.994 586.785 349.041C582.762 362.087 578.132 374.894 571.716 386.979C570.651 385.433 570.691 383.619 570.533 381.803C571.144 380.075 571.321 379.266 570.54 377.611C568.322 376.031 564.724 376.243 562.034 375.981L557.64 374.964C562.259 365.664 565.613 355.686 569.159 345.94Z"/>
	<path fill="#FE8F9F" d="M569.159 345.94L574.106 346.761C571.701 348.67 564.23 370.986 562.034 375.981L557.64 374.964C562.259 365.664 565.613 355.686 569.159 345.94Z"/>
	<path d="M519.752 354.753C520.585 356.125 520.9 356.562 520.462 358.145C519.489 361.667 517.898 365.029 516.921 368.576C513.922 379.461 513.926 392.749 518.526 403.211C518.554 403.275 518.593 403.333 518.626 403.394C519.239 404.954 519.802 406.56 520.514 408.076C519.292 409.112 518.575 409.708 516.894 409.791C515.509 408.998 515.445 408.691 514.744 407.319C513.959 405.405 513.284 403.429 512.562 401.489C512.118 400.021 511.739 398.534 511.426 397.032C508.589 383.709 509.384 366.497 516.997 354.746L519.752 354.753Z"/>
	<path d="M535.465 350.517C536.668 350.514 538.192 350.16 539.086 351.11C540.164 352.254 540.784 354.879 541.366 356.354C544.735 364.897 548.592 371.632 557.64 374.964L562.034 375.981C564.724 376.243 568.322 376.031 570.54 377.611C571.321 379.266 571.144 380.075 570.533 381.803C570.015 381.782 569.497 381.763 568.981 381.728C559.237 381.061 550.291 379.013 543.674 371.335C538.956 365.86 534.918 357.882 535.465 350.517Z"/>
	<path d="M540.492 402.255L539.916 402.024C536.034 400.501 533.671 398.426 531.784 394.66C530.861 392.819 530.161 391.049 530.795 389.008L531.964 388.428C536.605 389.005 535.72 393.805 538.944 396.035C542.544 398.525 546.48 396.138 550.049 399.199C548.965 400.786 548.337 401.675 546.544 402.438C544.507 402.498 542.523 402.391 540.492 402.255Z"/>
	<path d="M547.211 384.731C548.46 384.744 549.452 384.795 550.602 385.323C553.657 386.726 558.102 386.985 560.517 389.445C560.829 391.047 560.578 391.228 559.884 392.643C558.264 392.914 556.71 392.942 555.081 392.69C552.382 392.271 548.773 390.984 547.361 388.486C546.537 387.03 546.851 386.229 547.211 384.731Z"/>
	<path fill="#FEFEFE" d="M411.395 374.627C419.215 378.236 506.818 403.104 512.108 401.682C512.267 401.639 512.411 401.553 512.562 401.489C513.284 403.429 513.959 405.405 514.744 407.319C515.445 408.691 515.509 408.998 516.894 409.791C518.575 409.708 519.292 409.112 520.514 408.076C519.802 406.56 519.239 404.954 518.626 403.394C521.796 405.467 524.893 407.223 528.799 407.401C533.462 407.615 537.119 405.196 540.492 402.255C542.523 402.391 544.507 402.498 546.544 402.438C548.337 401.675 548.965 400.786 550.049 399.199C555.641 398.722 561.571 395.174 566.835 395.304C564.479 399.319 561.561 403.254 558.489 406.75C550.945 415.338 542.262 421.011 530.659 421.618C520.602 422.145 510.006 420.311 500.174 418.282C487.481 415.664 410.59 394.163 403.991 387.517C403.201 386.721 402.77 385.694 402.815 384.579C402.924 381.87 405.352 380.051 407.174 378.335L411.395 374.627Z"/>
	<path fill="#FE8F9F" d="M411.395 374.627C419.215 378.236 506.818 403.104 512.108 401.682C512.267 401.639 512.411 401.553 512.562 401.489C513.284 403.429 513.959 405.405 514.744 407.319C509.911 405.621 504.445 404.793 499.438 403.638C490.616 401.608 481.827 399.432 473.077 397.11C451.01 391.257 429.261 384 407.174 378.335L411.395 374.627Z"/>
	<path fill="#FE8F9F" d="M540.492 402.255C542.523 402.391 544.507 402.498 546.544 402.438C541.218 407.14 537.261 409.607 529.888 409.149C526.753 408.954 523.625 408.498 520.514 408.076C519.802 406.56 519.239 404.954 518.626 403.394C521.796 405.467 524.893 407.223 528.799 407.401C533.462 407.615 537.119 405.196 540.492 402.255Z"/>
	<path fill="#FEFEFE" d="M658.769 329.302C666.42 335.779 674.641 341.754 682.559 347.91L727.605 382.933L731.784 386.203C733.435 387.41 735.318 388.608 736.801 390.007C737.972 391.112 738.154 391.836 738.304 393.391C737.261 395.562 735.351 396.775 733.343 397.979C714.683 409.163 661.748 432.497 640.128 426.379C628.322 423.038 618.934 407.559 613.179 397.433C609.516 390.987 591.425 353.511 592.624 349.162C598.31 347.306 605.798 347.307 611.789 346.641C627.805 344.861 644.053 343.565 659.967 341.061C659.727 337.113 659.278 333.224 658.769 329.302Z"/>
	<path fill="#FE8F9F" d="M731.784 386.203C714.156 394.971 661.445 422.868 642.311 416.629C631.315 413.043 623 397.201 618.021 387.537C615.234 382.127 601.45 354.002 602.78 349.832C603.881 349.135 604.497 348.613 605.835 348.504C612.353 366.775 621.41 389.284 633.682 404.392C637.061 408.553 641.248 412.743 646.838 413.239C663.154 414.685 696.697 398.488 711.776 391.376C716.68 389.063 723.234 386.712 727.318 383.193C727.416 383.109 727.509 383.02 727.605 382.933L731.784 386.203Z"/>
	<path fill="#FE8F9F" d="M602.688 389.702L603.316 389.177C605.474 390.709 607.448 396.034 608.812 398.479C622.186 422.452 632.189 435.21 661.138 430.305C662.833 430.018 664.523 429.724 666.198 429.339C667.384 439.5 669.022 449.866 669.648 460.065C665.381 465.407 661.016 470.698 656.911 476.165C632.073 473.264 607.064 471.137 582.288 467.794C589.692 467.03 608.48 467.226 614.217 464.411L614.616 463.852C614.095 462.616 613.627 462.22 612.375 461.685C611.36 461.251 610.177 461.075 609.079 461.138C603.549 461.452 597.933 462.329 592.39 462.793L537.751 467.301C527.981 468.102 518.103 469.231 508.317 469.611L586.474 403.367C587.658 402.094 589.049 401.069 590.413 399.999C592.995 397.787 595.543 395.536 598.057 393.247L602.688 389.702Z"/>
	<path fill="#241A18" d="M598.057 393.247L602.688 389.702C602.536 394.004 602.192 398.232 598.887 401.437C596.748 403.511 593.585 404.32 590.672 404.13C589.242 404.036 587.859 403.722 586.474 403.367C587.658 402.094 589.049 401.069 590.413 399.999C592.995 397.787 595.543 395.536 598.057 393.247Z"/>
	<path fill="#FEFEFE" d="M598.057 393.247C597.93 395.155 597.59 396.772 596.139 398.138C594.506 399.676 592.56 399.95 590.413 399.999C592.995 397.787 595.543 395.536 598.057 393.247Z"/>
	<path fill="#241A18" d="M590.508 416.619C596.581 416.164 601.909 420.635 602.515 426.694C603.121 432.753 598.783 438.19 592.74 438.946C588.695 439.452 584.693 437.725 582.287 434.435C579.88 431.146 579.446 426.81 581.154 423.109C582.862 419.408 586.442 416.924 590.508 416.619Z"/>
	<path fill="#FEFEFE" d="M589.723 421.037C593.384 420.17 597.07 422.376 598.036 426.012C599.001 429.649 596.894 433.392 593.285 434.454C590.862 435.168 588.243 434.51 586.446 432.736C584.648 430.962 583.955 428.353 584.636 425.921C585.317 423.49 587.265 421.619 589.723 421.037Z"/>
	<path fill="#763E3D" d="M386.361 126.931L387.217 127.087C386.723 130.092 385.38 132.886 384.816 135.869C383.96 140.396 385.416 146.479 387.548 150.503C392.147 159.185 400.76 163.399 409.787 166.109C403.572 168.126 398.373 170.595 393.157 174.563C381.753 174.103 372.042 175.234 362.016 181.124C347.229 189.812 336.51 206.734 332.462 223.162C328.97 237.333 331.015 252.769 338.737 265.235C345.18 275.637 354.341 282.568 366.24 285.324L366 285.971L362.948 286.622C350.101 289.109 335.897 288.459 324.67 281.111C312.807 273.347 306.157 259.307 303.386 245.797C298.273 220.867 305.902 190.854 320.083 169.81C335.162 147.433 360.083 132.08 386.361 126.931Z"/>
	<path fill="#763E3D" d="M593.452 365.909C596.026 368.924 599.743 380.227 601.867 384.66C590.9 393.433 580.326 402.834 569.609 411.919L508.324 463.91L485.177 483.548C480.448 487.559 475.731 491.95 470.623 495.468C468.533 496.907 466.876 497.348 464.368 497.648C461.49 497.012 458.988 495.759 457.116 493.427C455.632 491.578 454.912 489.444 455.186 487.071C455.473 484.581 456.797 482.703 458.435 480.895C465.277 473.344 474.509 466.765 482.335 460.13C495.78 448.732 509.042 436.878 522.886 425.98C528.245 425.919 533.679 426.023 538.92 424.748C555.192 420.788 566.754 405.288 574.328 391.299C577.005 386.354 578.897 380.618 582.242 376.094C585.102 372.225 589.765 369.018 593.452 365.909Z"/>
	<path fill="#FEFEFE" d="M615.107 288.713C620.084 285.769 625.705 283.527 630.882 280.919C636.751 277.963 642.175 274.486 647.615 270.811C648.603 282.19 650.327 293.606 651.676 304.956C652.229 309.613 653.216 314.57 653.068 319.242C652.081 320.206 651.477 320.857 650.999 322.198C651.543 324.044 652.117 324.135 653.655 325.21C655.029 328.931 655.099 333.568 655.541 337.513C639.242 339.151 622.98 341.234 606.684 342.934C604.766 343.237 602.855 343.452 600.921 343.634L593.192 344.468C600.037 325.727 607.718 307.248 615.107 288.713Z"/>
	<path fill="#FE8F9F" d="M600.921 343.634C603.487 336.875 623.795 289.241 626.354 286.117C627.243 285.032 627.965 285.151 629.262 285C629.516 285.279 629.901 285.482 630.023 285.839C631.416 289.908 605.881 336.899 606.684 342.934C604.766 343.237 602.855 343.452 600.921 343.634Z"/>
	<path fill="#FEBDC2" d="M460.703 246.138C467.249 244.83 470.768 243.02 475.797 238.666C476.417 238.129 477.587 236.76 478.247 236.518C479.321 236.125 480.585 236.97 481.438 237.493C483.207 241.962 482.721 248.622 483.192 253.495C483.75 259.259 484.593 265.37 486.165 270.949C486.984 273.823 487.69 276.812 488.705 279.619C489.614 282.185 490.453 284.804 491.547 287.298L494.701 294.133C497.855 299.675 501.272 304.841 505.344 309.77L505.817 310.088C510.818 315.574 519.01 323.69 526.377 325.556L527.232 325.37C528.172 323.23 527.226 321.277 526.413 319.203C526.265 318.825 526.114 318.449 525.961 318.074L527.116 316.891C530.715 320.876 534.409 325.979 533.955 331.642C533.708 334.711 532.094 337.229 529.712 339.106C525.877 342.128 519.972 343.624 515.147 343.934L514.653 344.181C511.16 344.25 507.28 343.572 504.52 341.306C499.745 337.384 499.466 330.811 499.046 325.148C501.915 325.874 505.617 327.208 508.498 326.421C509.61 325.459 509.658 325.475 509.897 324.033C507.372 320.562 494.383 318.524 489.727 316.58C483.98 314.182 477.057 310.372 474.74 304.218C472.564 298.437 474.545 292.978 477.078 287.761C478.153 287.9 479.229 288.029 480.306 288.149C482.845 288.456 484.559 288.486 486.761 287.019C487.613 286.451 487.56 286.432 487.762 285.439C484.506 282.402 474.093 282.12 469.519 281.047C465.914 280.201 462.342 279.073 458.996 277.474C454.554 275.35 450.146 272.238 448.558 267.348C446.214 260.128 449.769 252.255 453.136 246.005C455.327 246.204 457.517 246.161 459.714 246.157L460.703 246.138Z"/>
	<path fill="#FEE6E0" d="M460.703 246.138C467.249 244.83 470.768 243.02 475.797 238.666C476.417 238.129 477.587 236.76 478.247 236.518C479.321 236.125 480.585 236.97 481.438 237.493C483.207 241.962 482.721 248.622 483.192 253.495C483.75 259.259 484.593 265.37 486.165 270.949C486.984 273.823 487.69 276.812 488.705 279.619C485.995 281.119 484.162 281.24 481.14 280.971C472.784 280.225 462.491 276.358 457.088 269.659C454.11 266.032 452.749 261.344 453.321 256.688C453.911 252.191 456.203 248.833 459.714 246.157L460.703 246.138Z"/>
	<path fill="#FEBDC2" d="M460.703 246.138C467.249 244.83 470.768 243.02 475.797 238.666C476.417 238.129 477.587 236.76 478.247 236.518C479.321 236.125 480.585 236.97 481.438 237.493C483.207 241.962 482.721 248.622 483.192 253.495C483.75 259.259 484.593 265.37 486.165 270.949C482.063 270.096 477.852 269.314 473.875 267.987C457.165 262.41 469.023 254.748 465.832 249.042C464.849 247.283 462.542 246.574 460.703 246.138Z"/>
	<path fill="#FEE6E0" d="M505.817 310.088C506.002 311.729 506.411 313.743 505.698 315.282C505.15 316.466 504.219 317.419 502.967 317.854C499.943 318.903 496.497 317.882 493.705 316.608C489.061 314.489 484.628 310.796 482.916 305.862C481.379 301.435 482.262 296.528 484.479 292.488C486.184 289.381 488.203 288.205 491.547 287.298L494.701 294.133C497.855 299.675 501.272 304.841 505.344 309.77L505.817 310.088Z"/>
	<path fill="#FEBDC2" d="M494.701 294.133C497.855 299.675 501.272 304.841 505.344 309.77C502.524 308.996 499.529 308.126 496.856 306.939C494.931 306.085 493.323 304.725 492.654 302.669C491.675 299.662 493.481 296.814 494.701 294.133Z"/>
	<path fill="#FEE6E0" d="M514.653 344.181C510.629 342.454 505.824 340.79 503.952 336.435C503.041 334.317 502.812 331.234 503.776 329.093C504.193 328.166 505.218 326.931 506.168 326.52C506.785 326.253 507.201 326.223 507.817 326.501C511.205 328.033 511.126 332.977 514.746 335.137C516.169 335.986 517.705 336.637 518.403 338.216C518.397 340.332 517.354 341.815 515.869 343.266C515.634 343.495 515.391 343.715 515.147 343.934L514.653 344.181Z"/>
	<path fill="#FEBDC2" d="M491.353 234.871C492.573 236.495 495.627 237.29 497.571 237.837C500.201 241.671 507.87 246.887 511.568 251.205C515.066 255.289 519.19 260.892 518.554 266.564C517.896 272.437 513.158 277.477 508.544 280.779C506.997 281.886 504.885 282.964 503.545 284.274C502.461 285.333 502.691 285.745 502.785 287.158C503.23 287.748 503.345 288.241 504.138 288.353C507.873 288.882 513.708 283.456 516.547 281.212C521.643 284.937 526.439 289.529 527.766 295.976C529.396 303.89 525.042 310.583 520.803 316.791C509.696 308.251 501.653 298.153 496.181 285.187C491.173 273.321 488.982 261.039 487.581 248.326C487.291 245.693 486.593 242.162 487.163 239.563C487.522 237.924 490.003 238.159 491.353 234.871Z"/>
	<path fill="#FE8F9F" d="M466.512 414.043C469.414 414.836 472.117 415.949 474.887 417.113C481.201 416.971 487.251 419.625 493.323 420.958C500.765 423.342 509.029 424.199 516.74 425.314L465.398 468.937L458.709 460.015C461.403 444.709 463.631 429.316 466.512 414.043Z"/>
	<path fill="#241A18" d="M474.887 417.113C481.201 416.971 487.251 419.625 493.323 420.958C491.335 421.998 489.059 425.599 487.577 427.406C483.152 424.44 478.995 420.522 474.887 417.113Z"/>
	<path fill="#763E3D" d="M688.437 569.21C706.489 590.636 725.143 611.597 743.534 632.735C751.469 641.854 760.596 650.971 767.746 660.667C768.736 662.008 769.502 663.136 769.402 664.867C769.312 666.416 768.639 667.828 767.453 668.838C766.358 669.77 765.069 670.286 763.621 670.134C762.455 670.011 761.379 669.456 760.485 668.715C754.934 664.11 749.818 657.833 744.651 652.696L717.738 625.644C712.465 620.342 706.367 615.009 701.922 609.015C700.475 607.064 699.788 605.114 699.154 602.791C697.822 600.081 697.182 596.34 696.328 593.399C693.813 585.299 691.182 577.235 688.437 569.21Z"/>
	<path fill="#650005" d="M696.328 593.399C702.605 599.148 764.202 662.392 765.574 665.749C765.033 666.949 764.922 667.059 763.816 667.777C762.453 667.65 761.783 667.204 760.748 666.321C755.767 662.076 751.289 656.315 746.706 651.549L713.812 617.422C709.156 612.594 704.443 606.899 699.154 602.791C697.822 600.081 697.182 596.34 696.328 593.399Z"/>
	<defs>
		<linearGradient id="gradient_0" gradientUnits="userSpaceOnUse" x1="570.00714" y1="287.04852" x2="568.23682" y2="310.81625">
			<stop offset="0" stop-color="#FFDAC2"/>
			<stop offset="1" stop-color="#FFECEA"/>
		</linearGradient>
	</defs>
	<path fill="url(#gradient_0)" d="M534.809 283.069C557.279 291.054 578.604 293.73 602.305 290.727C602.27 295.515 602.894 299.099 604.51 303.623L602.968 307.456C602.452 308.959 602.002 310.052 601.002 311.296C595.872 312.084 590.126 311.591 584.914 311.566L557.296 311.47C551.047 305.534 544.86 299.451 538.829 293.294C535.283 289.674 534.751 288.063 534.809 283.069Z"/>
	<path fill="#FEFEFE" d="M532.467 305.264C533.27 300.824 533.245 297.137 532.405 292.712L564.649 325.13C570.626 331.089 577.632 337.017 582.657 343.754L568.891 341.57C566.14 341.21 563.415 340.69 560.685 340.197C553.278 338.929 545.851 337.78 538.407 336.749C541.695 322.512 530.109 315.694 530.398 310.424C531.422 308.851 531.89 307.037 532.467 305.264Z"/>
	<path fill="#FEFEFE" d="M530.398 310.424C534.342 312.153 557.235 335.843 560.685 340.197C553.278 338.929 545.851 337.78 538.407 336.749C541.695 322.512 530.109 315.694 530.398 310.424Z"/>
	<path fill="#FE8F9F" d="M530.398 310.424C531.422 308.851 531.89 307.037 532.467 305.264C539.787 312.835 547.192 320.322 554.683 327.724C559.317 332.358 563.866 337.37 568.891 341.57C566.14 341.21 563.415 340.69 560.685 340.197C557.235 335.843 534.342 312.153 530.398 310.424Z"/>
	<path fill="#FE8F9F" d="M561.238 315.558C574.053 315.286 586.925 315.529 599.747 315.521C597.22 322.152 594.493 328.72 591.861 335.311L588.687 343.224L561.238 315.558Z"/>
	<path fill="#FEBDC2" d="M417.942 324.485C419.845 324.247 421.668 324.18 423.545 324.645C431.77 326.681 437.529 334.167 441.723 341.025L433.398 348.611C430.783 348.872 427.387 347.945 424.891 347.161C419.807 345.564 414.367 342.183 412.006 337.262C410.994 335.154 410.622 332.828 411.457 330.595C412.597 327.547 415.146 325.854 417.942 324.485Z"/>
	<path fill="#FEBDC2" d="M448.003 307.885C449.005 307.792 450.013 307.698 451.02 307.696C454.086 307.689 456.603 309.417 458.593 311.634C460.522 313.785 461.667 316.603 461.434 319.513C460.974 325.272 454.379 329.603 450.326 333.164L445.253 337.907C442.564 331.482 439.572 323.67 441.277 316.602C442.274 312.472 444.466 310.057 448.003 307.885Z"/>
	<path fill="#A38969" d="M452.259 279.496C455.017 281.358 457.885 282.673 460.919 284.02C455.023 289.675 450.997 296.712 446.965 303.725C445.79 304.27 444.63 304.879 443.555 305.604C437.689 309.561 436.808 316.805 435.437 323.169L435.095 324.742L434.241 325.135C432.54 324.383 431.139 323.246 429.665 322.133C434.281 306.463 439.965 290.869 452.259 279.496Z"/>
	<path fill="#FEE6E0" d="M672.512 204.359C673.354 204.59 674.187 204.846 674.995 205.178C678.272 206.525 680.922 209.331 682.193 212.617C684.713 219.13 682.581 226.659 679.999 232.79C678.89 234.298 677.569 235.692 676.345 237.111C675.927 226.157 673.847 215.23 672.512 204.359Z"/>
	<path fill="#5E0037" d="M511.739 349.275C518.937 348.913 528.54 347.571 533.9 342.218C534.364 341.755 534.749 341.3 535.299 340.936C536.369 340.228 536.597 340.49 537.792 340.79L537.66 341.444C537.744 341.551 537.83 341.657 537.912 341.766C538.831 342.987 539.442 344.144 539.193 345.718C539.005 346.91 538.37 347.947 537.371 348.632C536.474 349.248 535.477 349.749 534.515 350.254C529.514 352.571 523.797 352.885 519.752 354.753L516.997 354.746C516.765 354.66 516.534 354.57 516.3 354.488C515.523 354.214 514.562 353.99 513.87 353.54C512.4 352.586 512.15 350.863 511.739 349.275Z"/>
	<path fill="#A38969" d="M444.413 271.131C445.872 272.504 447.082 274.721 448.256 276.376C441.911 280.956 436.312 285.84 430.818 291.394C430.226 292.024 430.281 292.196 429.383 292.313C429.378 291.862 429.357 291.529 429.406 291.092C430.344 282.631 438.271 276.117 444.413 271.131Z"/>
	<path fill="#763E3D" d="M441.563 241.076L447.486 244.571C445.329 249.928 443.603 254.892 443.028 260.695C442.855 262.443 443.126 264.291 442.908 266C442.724 267.438 441.12 268.167 440.056 268.975L435.485 272.743C439.033 262.391 441.179 252.026 441.563 241.076Z"/>
	<path fill="#FE8F9F" d="M385.96 284.733L396.485 287.963C397.44 291.63 398.215 295.256 398.822 298.996L387.797 295.664C387.006 292.058 386.518 288.381 385.96 284.733Z"/>
	<path fill="#FEFEFE" d="M482.604 318.904C485.959 320.837 489.973 321.705 493.156 323.979C494.354 324.835 494.317 325.985 494.526 327.306C494.2 328.133 493.92 328.56 493.279 329.176C489.166 328.641 485.07 327.843 480.981 327.139L482.604 318.904Z"/>
	<path fill="#A38969" d="M462.159 288.848C462.989 292.404 462.452 297.159 462.541 300.87L452.776 303.481C452.684 299.63 459.575 291.833 462.159 288.848Z"/>
	<path fill="#FEBDC2" d="M425.46 354.914L425.768 354.976L425.872 355.532L411.213 369.013L410.767 369.113L410.257 368.485C410.427 366.797 410.743 365.363 411.534 363.845C414.323 358.487 420.125 356.662 425.46 354.914Z"/>
	<path d="M467.492 287.126L470.358 287.638C470.422 299.365 465.671 299.934 473.469 312.158C473.208 312.45 472.646 312.724 472.309 312.937C471.9 312.718 471.694 312.646 471.362 312.247C465.808 305.572 466.656 295.073 467.492 287.126Z"/>
	<path fill="#FEE6E0" d="M669.75 222.433C670.606 226.691 672.649 234.596 671.131 238.686C670.561 240.22 669.027 240.386 667.641 240.926L666.517 240.62C665.494 237.924 668.763 225.69 669.75 222.433Z"/>
	<path fill="#A38969" d="M436.144 292.268C436.147 294.729 429.066 309.265 427.633 313.486C426.946 309.932 427.411 305.886 427.561 302.27C430.052 298.618 433.106 295.458 436.144 292.268Z"/>
	<path fill="#A38969" d="M463.263 305.128C464.469 306.704 466.956 313.308 468.208 315.726C467.444 316.981 466.687 317.171 465.4 317.839C464.851 313.377 460.43 307.164 460.565 305.812L463.263 305.128Z"/>
	<path fill="#FE8F9F" d="M589.477 354.758C590.741 356.609 591.409 359.39 592.196 361.514L587.33 365.495L586.286 366.146C585.525 363.991 588.708 357 589.477 354.758Z"/>
	<path fill="#241A18" fill-opacity="0.98039216" d="M482.074 208.8L483.157 209.544C484.195 212.569 483.013 227.578 482.071 230.806L481.23 230.336C481.971 224.236 483.532 214.723 482.074 208.8Z"/>
	<path fill="#763E3D" d="M659.107 320.814C660.64 321.35 661.367 321.842 662.262 323.26C663.074 324.547 663.245 325.81 663.001 327.271C661.581 326.221 659.158 324.818 658.54 323.095C658.239 322.257 658.787 321.587 659.107 320.814Z"/>
	<path fill="#241A18" d="M345.005 496.642C348.021 497.957 350.217 500.284 352.34 502.716C361.205 510.728 369.787 519.041 378.55 527.164C382.283 529.834 385.819 532.767 389.133 535.942C386.971 536.493 381.657 536.146 380.146 537.098C379.226 537.677 377.881 539.655 377.079 540.542C372.63 545.459 368.841 548.22 362.743 550.842C361.059 559.306 351.176 569.377 345.9 576.549C343.501 579.811 340.579 582.74 336.339 583.226C333.709 583.527 331.21 582.648 329.22 580.929C326.671 578.742 325.156 575.586 325.043 572.229C324.891 567.174 327.129 564.057 330.319 560.478C329.633 560.494 328.946 560.5 328.26 560.494C319.35 560.409 313.515 556.984 307.386 550.78C301.971 550.745 294.409 553.049 289.457 550.603C285.619 548.707 284.583 545.166 283.265 541.419C280.691 540.867 277.868 540.4 275.764 538.714C273.276 536.721 271.303 531.836 271.081 528.761C270.892 526.151 271.75 523.79 273.538 521.884C280.12 514.867 299.811 515.997 309.152 515.464C318.88 507.769 330.233 506.72 341.044 501.54C343.676 500.278 344.061 499.33 345.005 496.642Z"/>
	<path fill="#FEE6E0" d="M352.34 502.716C361.205 510.728 369.787 519.041 378.55 527.164C378.175 528.923 377.55 530.74 376.838 532.396C373.729 539.624 368.143 543.546 361.091 546.48C360.172 545.405 359.235 544.292 358.106 543.427C344.132 532.725 340.8 554.743 329.246 556.232C322.939 557.044 317.232 553.474 312.411 549.905C318.277 549.664 323.958 549.423 328.338 544.926C330.073 543.145 331.3 540.755 331.165 538.217C330.591 527.431 322.259 529.103 319.071 525.997C317.602 524.565 317.026 520.666 313.523 517.365C313.952 517.08 314.384 516.808 314.818 516.531C323.564 510.944 341.903 505.979 352.34 502.716Z"/>
	<path fill="#FEE6E0" d="M316.058 531.142C318.493 530.78 320.882 530.76 322.987 532.19C324.783 533.411 326.179 535.464 326.501 537.625C326.746 539.266 326.317 540.901 325.239 542.173C321.051 547.114 306.045 546.224 299.735 546.878C296.245 547.166 293.215 547.807 290.308 545.436C288.864 544.258 287.869 542.687 287.694 540.805C287.51 538.814 288.243 536.793 289.557 535.297C293.755 530.52 310.039 531.461 316.058 531.142Z"/>
	<path fill="#FEE6E0" d="M348.916 545.321C351.26 545.153 353.845 545.281 355.756 546.833C356.843 547.716 357.382 549.042 357.424 550.42C357.615 556.593 342.612 573.896 338.003 578.771C337.49 578.755 336.976 578.746 336.465 578.7C334.223 578.498 331.825 577.671 330.437 575.799C329.217 574.153 329.159 572.118 329.619 570.182C330.887 564.848 344.111 548.199 348.916 545.321Z"/>
	<path fill="#FEE6E0" d="M304.442 520.086C305.442 519.934 306.375 519.881 307.387 519.937C309.31 520.044 311.258 520.86 312.501 522.37C313.505 523.59 313.934 524.257 313.87 525.808C310.471 528.75 299.394 527.521 294.723 528.403C289.841 529.325 287.267 530.994 284.492 535.063C284.184 535.724 283.863 535.902 283.297 536.34C281.66 536.561 280.489 536.472 279.132 535.429C277.352 534.061 276.094 532.106 275.874 529.851C275.67 527.766 276.142 525.779 277.615 524.24C282.238 519.407 297.961 520.423 304.442 520.086Z"/>
	<path fill="#241A18" d="M796.316 517.195C797.475 516.039 798.759 515.053 800.04 514.036C809.524 516.649 821.632 519.791 829.172 526.277L829.788 526.403C838.331 528.086 856.887 525.182 861.985 533.211C864.377 536.977 863.679 541.318 862.721 545.407C860.107 548.433 857.915 549.914 854.156 551.434C853.582 554.848 852.867 557.905 849.842 560.044C845.066 563.42 836.668 561.904 831.121 561.587C826.687 567.186 821.261 571.016 813.973 571.742C812.108 571.928 810.221 571.984 808.348 572.046C810.989 575.373 813.888 578.894 813.519 583.434C813.256 586.67 811.001 590.092 808.498 592.07C806.269 593.831 803.603 594.448 800.81 594.013C792.826 592.771 782.418 577.153 777.933 570.719C775.937 567.854 776.217 564.285 774.573 561.768C773.465 560.071 766.421 557.837 764.359 556.497C762.227 555.111 760.472 553.083 758.759 551.219L762.344 548.308C774.34 538.8 784.548 527.016 796.316 517.195Z"/>
	<path fill="#FEE6E0" d="M796.316 517.195C805.465 520.323 814.884 523.162 823.727 527.084C821.001 528.695 818.129 530.419 817.135 533.653C816.862 534.541 816.776 535.455 816.603 536.361C816.558 536.592 816.5 536.821 816.449 537.051C812.157 539.169 808.558 541.487 807.018 546.365C806.237 548.836 806.514 551.393 807.735 553.678C809.554 557.083 813.004 559.216 816.682 560.116C819.619 560.835 823.054 560.717 826.072 560.827C821.821 564.739 816.614 568.266 810.542 567.956C806.289 567.739 803.23 565.445 800.588 562.294C797.089 558.121 793.51 551.901 787.489 551.503C784.236 551.288 781.065 552.934 778.732 555.093C777.998 555.783 777.285 556.496 776.596 557.232C770.865 555.411 765.92 553.461 762.344 548.308C774.34 538.8 784.548 527.016 796.316 517.195Z"/>
	<path fill="#FEE6E0" d="M815.52 541.981C823.791 541.731 833.048 542.176 841.276 543.253C844.133 543.627 847.481 544.591 849.182 547.112C850.187 548.601 850.126 550.71 849.748 552.397C849.171 554.97 847.689 556.046 845.595 557.474C844.709 557.545 843.816 557.608 842.926 557.611C836.102 557.638 816.923 557.801 812.156 552.584C811.248 551.592 810.743 550.345 810.873 548.984C811.146 546.11 813.366 543.669 815.52 541.981Z"/>
	<path fill="#FEE6E0" d="M785.299 555.737C786.062 555.726 786.823 555.715 787.58 555.836C792.149 556.567 803.563 572.562 806.515 576.946C807.857 578.938 809.53 581.455 808.914 583.953C808.225 586.749 805.755 588.253 803.521 589.742C802.537 589.755 801.488 589.794 800.521 589.571C796.216 588.578 785.457 573.721 782.564 569.427C781.13 567.298 778.984 563.926 779.661 561.286C780.314 558.737 783.24 557.079 785.299 555.737Z"/>
	<path fill="#FEE6E0" d="M824.967 530.98C832.839 530.676 841.3 531.39 849.168 532.111C852.383 532.405 856.252 533.143 858.341 535.849C859.484 537.329 859.55 539.156 859.236 540.94C858.713 543.909 857.127 545.007 854.725 546.606C852.857 545.695 851.756 543.113 850.261 541.613C846.45 537.793 835.329 538.818 830.163 538.562C827.646 538.438 823.599 538.527 821.669 536.771C821.043 536.202 821.302 535.602 821.317 534.831C822.303 533.116 823.42 532.191 824.967 530.98Z"/>
</svg>
