<?xml version="1.0" encoding="UTF-8"?>
<svg id="_图层_1" data-name="图层 1" xmlns="http://www.w3.org/2000/svg" xmlns:xlink="http://www.w3.org/1999/xlink" viewBox="0 0 1134 950">
  <defs>
    <style>
      .cls-1 {
        fill: #221816;
      }

      .cls-2 {
        fill: url(#_未命名的渐变);
      }

      .cls-3 {
        fill: #650005;
      }

      .cls-4 {
        fill: #fe8f9f;
      }

      .cls-5 {
        fill: #fea5a7;
      }

      .cls-6 {
        fill: #763e3d;
      }

      .cls-7 {
        fill: #fec3ca;
      }

      .cls-8 {
        fill: #8d6669;
      }

      .cls-9 {
        fill: #5f0037;
      }

      .cls-10 {
        fill: #feddc8;
      }

      .cls-11 {
        fill: #fe6365;
      }

      .cls-12 {
        fill: #a48969;
      }

      .cls-13 {
        fill: #fee5df;
      }

      .cls-14 {
        fill: #fefefe;
      }
    </style>
    <linearGradient id="_未命名的渐变" data-name="未命名的渐变" x1="567.03" y1="634.1" x2="567.68" y2="612.49" gradientTransform="translate(0 950) scale(1 -1)" gradientUnits="userSpaceOnUse">
      <stop offset="0" stop-color="#ffd9c1"/>
      <stop offset="1" stop-color="#ffebe9"/>
    </linearGradient>
  </defs>
  <path d="m412.79,154.99c7.4-31.81,33.65-63.97,61.16-81.13,26.79-16.7,59.09-20.7,89.62-13.63,8.83,2.05,17.05,5.58,25.72,8.05,6.44,1.83,13.1,2.64,19.51,4.67,22.9,7.17,42.43,22.38,55.01,42.81,14.43,23.23,23.61,57.91,17.19,84.84-2.25,9.45-6.58,16.99-11.81,25.04,5.04,4.9,7.83,10.02,7.96,17.15.13,7.31-2.47,15.29-7.66,20.57-1.31,1.31-2.64,2.59-4,3.84,2.19,25.02,3.54,50.08-7.36,73.47l51.61,37.69c8.5,6.21,17.95,12.07,25.92,18.88,2,1.71,4.04,3.77,4.93,6.29-.33,3.35-2.22,5.33-4.75,7.4-3.93,3.21-9.16,5.66-13.64,8.04-17.74,9.44-36.09,17.44-55.4,23.08,1.9,14.04,4.9,27.99,6.55,42.05-4.04,6.18-8.61,11.95-12.76,18.04,4.15,15.09,10.54,30.1,15.9,44.83,3.44,9.45,8.73,27.32,13.65,35.2,4.43,7.09,18.21,19.99,24.47,26.58l54.44,57.22c5.38,5.62,16.49,13.79,11.32,22.48-1.33,2.23-3.37,3.84-5.91,4.45-2.85.69-5.56-.23-7.94-1.81-6.66-4.43-12.82-11.35-18.69-16.82-12.53-11.67-24.98-23.51-37.76-34.91l13.35,36.9c2.74,7.5,6.18,15.25,7.86,23.06.66,3.05,1.33,8.08-.15,10.92-.79,1.53-3.01,2.12-4.59,2.53-6.31,1.63-13.4,1.89-19.89,2.59-13.67,1.49-27.37,2.81-41.07,3.96-8.02.66-16.45.79-24.37,2.13-1.26,37.85-3.27,75.7-5.03,113.53-.49,10.57.52,21.33-.28,31.8,19.49,11.2,47.96,17.28,54.65,41.93,1.39,5.1,1.65,10.36-1.03,15.15-1.52,2.72-4.3,5.4-7.37,6.23-8.41,2.28-40.8,1.03-51.83,1.03-16.58,0-33.73.88-50.25-.23-2.24-.15-4.41-.35-6.38-1.55-3.86-2.37-6.02-5.7-6.98-10.1-1.83-8.33-.58-36.81-.33-46.82-.79-10.05.45-19.06,1.32-28.99.45-5.16.49-10.39.72-15.56l4.63-103.3-15.78.31c-9.66,28.05-22.89,54.95-35.26,81.89-3.64,7.94-6.06,16.62-10.39,24.18-5.27,9.21-13.71,14.43-23.73,17.23-3.32,15.4-1.78,32.3-7.55,47.06-3.58,9.17-9.64,17.11-18.9,21.02-4.25,1.79-9,2.49-13.33.51-3.38-1.54-4.85-3.56-6.55-6.73-5.02-9.35-7.89-20.91-11.4-30.96-6.67-19.12-13.56-38.21-19.97-57.42-1.85-5.54-2.97-11.12.02-16.57,1.48-2.69,4.27-4.65,6.93-6.07,8.09-4.32,29.94-10.66,39.62-13.8,9.93-19.6,19.41-40.2,27.58-60.6-14.24-.63-46.89-1.02-59.32-4.62-2.25-.65-4.14-1.59-5.78-3.3-1.26-1.31-2.23-2.93-3.2-4.47-.46-9.54,6.76-32.25,9.29-42.92,9.98-42.91,20.52-85.68,31.63-128.32-3.27-2.64-6.13-5.98-6.68-10.33-.57-4.55,1.37-8.75,4.26-12.14,3.17-3.72,7.18-6.64,10.33-10.41-3.55-5.44-8.29-9.96-11.81-15.33,4.46-19.81,4.94-40.37,8.26-60.39-13.54-3.05-18.39,5.99-29.01-7.93-7.5-2.62-32.7-8.43-35.96-14.74-1.16-2.24-.92-4.68,0-6.96,2.87-7.14,11.96-14.08,17.72-18.95-5.52-2.59-10.36-5.77-12.42-11.9-1.18-3.5-1-7.46.73-10.74,1.72-3.27,4.95-5.54,8.47-6.49,2.08-.56,4.3-.51,6.45-.44-3.44-17.06-.12-31.55,4.81-47.84,2.17-7.17,4.32-14.58,4.51-22.12.24-9.15-3.75-15.75-5.39-24.35-.98-5.1-.36-10.65-.44-15.83-7.33,6.34-14.98,11.67-25.17,10.83-6.71-.51-12.93-3.69-17.26-8.84-4.35-5.22-6.38-12.27-5.7-19.01.49-4.81,2.3-8.8,4.82-12.86-14.35.7-25.77,4.8-35.65,15.73-10.29,11.38-17.88,29.57-17.04,44.97.7,12.8,6.2,25.59,15.94,34.1,6.36,5.57,14.73,9.37,23.32,8.81,10.27-.68,17.26-3.21,26.88,2.27,2.45,3.54,5.59,10.35,4.65,14.73-.23,1.1-.93,2.04-1.91,2.59-3.69,2.05-11.82-1.26-15.51-2.56-.54-.19-1.06-.4-1.58-.63-1.05-4.03-1.68-8.65-3.51-12.38-17.99,6.58-36.77,11.65-55.14,3.13-13.18-6.11-21.25-17.86-26.06-31.21-3.2-8.89-5.62-20.52-5.56-30.02.1-14.78,6-36.03,12.5-49.56,11.69-24.34,35.67-44.11,61.1-52.79,5.66-1.93,11.83-2.7,17.37-4.77,3.51-1.31,6.82-3.63,10.13-5.4,7.06-3.79,15.4-1.25,22.11,2.09,1.09.55,2.17,1.1,3.26,1.67Zm233.17,132.4c1.93,15.4,5.13,30.46,6.6,45.95.25,1.17.28,2.64,1.16,3.45,7.37-7.23,8.32-33.03,8.41-43.37.04-4.26-.2-22.41-1.93-24.77l-.67.02c-1.75.32-4.06.42-5.41,1.64l-8.17,17.08Zm-186.19,43.46l.09-.68c.4-2.83,1.78-5.71,1.59-8.5-.9-.84-1.47-.81-2.66-1.05-.05,3.44-.18,6.83.4,10.23l.44.13.14-.14Z"/>
  <path class="cls-9" d="m487.92,848.2c-3.32,15.4-1.78,32.3-7.55,47.06-3.58,9.17-9.64,17.11-18.9,21.02-4.25,1.79-9,2.49-13.33.51-3.38-1.54-4.85-3.56-6.55-6.73-5.02-9.35-7.89-20.91-11.4-30.96-6.67-19.12-13.56-38.21-19.97-57.42-1.85-5.54-2.97-11.12.02-16.57,1.48-2.69,4.27-4.65,6.93-6.07,8.09-4.32,29.94-10.66,39.62-13.8-.98,2.22-2.03,3.95-3.46,5.89-5.74,9.76-8.82,20.16-5.86,31.41,2.36,9.06,8.28,16.78,16.42,21.42,5.96,3.38,12.69,4.78,19.51,4.69l4.52-.43Z"/>
  <path class="cls-9" d="m425.51,800.54c4.81-2.42,22.45-8.41,27.83-9.43-5.74,9.76-8.82,20.16-5.86,31.41,2.36,9.06,8.28,16.78,16.42,21.42,5.96,3.38,12.69,4.78,19.51,4.69-.98,4.83-1.23,9.69-1.96,14.54l-.72,5.74c-.52,6.52-1.08,13.2-2.63,19.56-.57,1.64-1.21,3.27-1.67,4.95-2.61,5.38-6.78,13.99-12.53,16.68-3.59-9.07-6.5-18.55-9.72-27.77l-18.84-54.08c-3.2-9.21-6.05-18.73-9.83-27.71Z"/>
  <path class="cls-14" d="m476.42,893.43l-.66-.09c-2.83-.41-6.7-.82-8.38-3.43-2.47-3.85-1.2-17.98.11-22.31,2.15-7.12,5.8.12,13.36-4.08l.59-.34-.72,5.74c-.52,6.52-1.08,13.2-2.63,19.56-.57,1.64-1.21,3.27-1.67,4.95Z"/>
  <path class="cls-9" d="m480.72,868.91c-.52,6.52-1.08,13.2-2.63,19.56-1.17.11-2.46.3-3.64.23-1.31-.08-2.39-.85-3.09-1.92-2.75-4.18-.64-12.85.11-17.48,3.3.49,6.03.53,9.25-.38Z"/>
  <path class="cls-1" d="m487.92,848.2c-3.32,15.4-1.78,32.3-7.55,47.06-3.58,9.17-9.64,17.11-18.9,21.02-4.25,1.79-9,2.49-13.33.51-3.38-1.54-4.85-3.56-6.55-6.73-5.02-9.35-7.89-20.91-11.4-30.96-6.67-19.12-13.56-38.21-19.97-57.42-1.85-5.54-2.97-11.12.02-16.57,1.48-2.69,4.27-4.65,6.93-6.07,8.09-4.32,29.94-10.66,39.62-13.8-.98,2.22-2.03,3.95-3.46,5.89-5.38,1.02-23.02,7.01-27.83,9.43l-3.85,1.44c-2.96.7-5.56,2.46-7.16,5.08-1.98,3.26-2.02,6.1-1.04,9.64,4.54,16.35,11.51,33.42,17.13,49.6,4.3,12.38,9.58,30.79,15.02,41.87.82,1.67,2.18,2.95,3.78,3.89,2.57,1.51,5.66,1.76,8.5.96.73-.21,1.45-.45,2.17-.71l3.83-2.21c5.75-2.7,9.92-11.3,12.53-16.68.46-1.67,1.09-3.31,1.67-4.95,1.55-6.37,2.12-13.04,2.63-19.56l.72-5.74c.73-4.85.97-9.72,1.96-14.54l4.52-.43Z"/>
  <path class="cls-14" d="m425.51,800.54c3.78,8.98,6.63,18.5,9.83,27.71l18.84,54.08c3.21,9.22,6.13,18.7,9.72,27.77l-3.83,2.21c-2.57-4.19-8.08-22.99-10.2-29.08l-28.2-81.25,3.85-1.44Z"/>
  <path class="cls-9" d="m635.09,871.17l.84-4.36c19.49,11.2,47.96,17.28,54.65,41.93,1.39,5.1,1.65,10.36-1.03,15.15-1.52,2.72-4.3,5.4-7.37,6.23-8.41,2.28-40.8,1.03-51.83,1.03-16.58,0-33.73.88-50.25-.23-2.24-.15-4.41-.35-6.38-1.55-3.86-2.37-6.02-5.7-6.98-10.1-1.83-8.33-.58-36.81-.33-46.82,1.6,3.13,2.96,6.37,4.6,9.48,4.82,7.41,11.82,12.92,20.38,15.32,9.06,2.51,18.74,1.32,26.92-3.3,8.89-5.05,14.19-13.03,16.79-22.76Z"/>
  <path class="cls-9" d="m635.09,871.17c4.03,2.56,8.3,4.63,12.68,6.52l5.32,2.71c5.48,2.49,12.91,5.05,17.64,8.78,1.26,1.06,2.5,2.25,3.83,3.21,5.58,5.21,9.4,10.11,11.91,17.39h-76.95c-12.97-.01-26.14-.48-39.09.08.43-8.9-1.3-19.31.58-27.94,4.82,7.41,11.82,12.92,20.38,15.32,9.06,2.51,18.74,1.32,26.92-3.3,8.89-5.05,14.19-13.03,16.79-22.76Z"/>
  <path class="cls-14" d="m647.77,877.69l5.32,2.71c5.48,2.49,12.91,5.05,17.64,8.78,1.26,1.06,2.5,2.25,3.83,3.21-.64,1.73-1.53,3.66-2.75,5.04-1.28,1.45-3.15,2.01-5.02,2.15-7.4.53-17.6-5.51-23.05-10.12,1.19-1.3,2.53-2.62,3.5-4.09,1.67-2.51,1.1-4.94.55-7.68Z"/>
  <path class="cls-9" d="m653.09,880.4c5.48,2.49,12.91,5.05,17.64,8.78-.27,1.08-.51,2.25-.93,3.27-.53,1.28-1.59,2.09-2.9,2.46-4.84,1.39-12.43-3.58-16.68-5.82,1.78-2.87,2.47-5.4,2.87-8.7Z"/>
  <path class="cls-1" d="m635.09,871.17l.84-4.36c19.49,11.2,47.96,17.28,54.65,41.93,1.39,5.1,1.65,10.36-1.03,15.15-1.52,2.72-4.3,5.4-7.37,6.23-8.41,2.28-40.8,1.03-51.83,1.03-16.58,0-33.73.88-50.25-.23-2.24-.15-4.41-.35-6.38-1.55-3.86-2.37-6.02-5.7-6.98-10.1-1.83-8.33-.58-36.81-.33-46.82,1.6,3.13,2.96,6.37,4.6,9.48-1.88,8.62-.16,19.04-.58,27.94l-.16,4.23c.21,3.81.82,7.36,3.94,9.96,1.74,1.45,3.69,2.18,5.93,2.42,6.13.66,12.51.35,18.68.35h31.61s28.77-.03,28.77-.03c6.13,0,12.46.33,18.55-.48,3.1-.41,5.28-1.15,7.17-3.79,1.71-2.38,2.25-5.23,2.35-8.1l-.8-4.64c-2.51-7.28-6.33-12.18-11.91-17.39-1.33-.96-2.57-2.15-3.83-3.21-4.73-3.72-12.16-6.29-17.64-8.78l-5.32-2.71c-4.38-1.89-8.65-3.96-12.68-6.52Z"/>
  <path class="cls-14" d="m686.46,909.78l.8,4.64c-39-.47-78-.58-117.01-.33l.16-4.23c12.95-.56,26.12-.09,39.09-.09h76.95Z"/>
  <path class="cls-7" d="m524.97,62.22c4.19-.57,8.93-.46,13.15-.34,11.78.4,23.44,2.44,34.65,6.07,4.78,1.56,9.45,3.55,14.26,5.02,5.2,1.59,10.71,2.22,15.98,3.62,17.12,4.39,32.64,13.57,44.72,26.47,19.65,20.95,31.16,53.89,30.06,82.65-.68,17.77-7.04,31.48-19.93,43.54.87-2.92,3.71-9.74,3.11-12.59-.38-1.8-1.47-2.47-1.1-4.49,1.28-.27,2.4-.58,3.62-1.06l.46-1.14c-.39-1.27-.32-1.47-1.53-2.13-4.83-2.63-10.55-4.31-15.61-6.58-11.08-4.97-22.06-10.64-32.35-17.1-14.31-8.9-26.38-20.97-35.27-35.29,3.69-7.98,11.19-22.52,10.94-31.09-1.08-1.53-1.96-1.61-3.68-2.28-2.53,5.43-3.61,11.88-5.84,17.52-13.46,33.96-36.04,61.14-69.98,75.72-5.74-4.79-11.18-7.16-18.32-9.34,5.57-2,10.83-4.2,15.32-8.16,5.13-4.53,8.47-10.73,8.84-17.62.32-6.91-2.13-13.66-6.79-18.77-4.54-5.02-10.93-7.97-17.7-8.19-10.06-.29-17.92,5.43-24.9,12.02,1.11-6.36,1.8-12.62.18-18.97-1.65-6.42-5.52-12.18-11.33-15.51-7.39-4.24-15.34-3.77-23.29-1.68,3.2-4.57,6.38-9.18,9.89-13.52,21.36-26.4,48.15-43.24,82.42-46.82Z"/>
  <path class="cls-13" d="m531.75,69.98c7.06-.84,15.16-.25,22.19.63,7.93.99,33.34,6.29,38.08,12.32.23,1.04.46,1.48.17,2.53-.47,1.64-1.92,3.51-3.46,4.28-3.73,1.86-11.9-2.92-15.75-4.15-27.2-8.65-52.87-6.75-78.27,6.25-6.86,4.01-13.19,8.47-19.18,13.72-4.27,3.74-11.88,14.73-16.26,15.96-1.42.4-2.82.28-4.09-.5-1.1-.67-2.43-2.14-2.53-3.5-.25-3.18,3.71-7.24,5.66-9.52,18.46-21.92,44.88-35.6,73.44-38.02Z"/>
  <path class="cls-13" d="m606.4,84.64c1.15-.02,2.21,0,3.32.32,4.36,1.23,8.55,4.07,12.24,6.6,15.12,10.25,27.51,24.03,36.1,40.16,7.11,13.53,11.04,27.91,12.88,43.04.42,3.42,1.37,7.49.15,10.84-.78,2.15-2.34,2.96-4.32,3.87-.41,0-.82,0-1.22-.03-1.96-.13-4.15-.59-5.2-2.43-2.61-4.58-1.62-13.91-2.65-19.31-1.51-7.92-3.6-15.52-6.77-22.96-6.75-15.86-19.24-32.68-33.94-41.97-3.99-2.52-11.88-5.14-14.64-8.8-.9-1.2-1.08-2.98-.72-4.4.57-2.25,2.96-3.78,4.77-4.92Z"/>
  <path class="cls-1" d="m549.57,173.93c.85-.15,1.14.12,1.92.45.81,1.22.84,1.3.76,2.76-3.1,3.51-9.19,3.56-13.27,5.31-4.78,2.05-6.89,7.72-8.49,12.24-.49-.04-.72-.04-1.23-.15-1.44-.3-1.78-.7-2.61-1.88-.34-2.57.48-4.41,1.82-6.59,4.95-8.08,12.37-10.12,21.09-12.14Z"/>
  <path class="cls-1" d="m624.6,173.34c4.28-.2,8.11-.12,12.21,1.2,4.79,1.53,10.42,4.81,12.63,9.5,1.16,2.46,1.4,4.25.49,6.72-3.99-.53-6.55-8.32-10.28-10.81-4.38-2.92-10.22-.99-14.79-3.11-.84-1.56-.59-1.82-.27-3.5Z"/>
  <path class="cls-7" d="m549.49,569.54c4.17,2.38,7.7,3.38,12.46,4.09.82,17.23,2.83,34.57,4.29,51.77,1.13,13.38,1.56,27.32,3.69,40.55,8.93.48,18.44-.61,27.39-1,16.56-.66,33.12-1.43,49.68-2.34.42-10.61-.83-21.69-1.5-32.29-.73-11.58-1.05-23.45-2.48-34.97.16-.84.35-1.44.66-2.23,4.96-.87,8.05-1.33,11.66-5.09l17.32,47.27c2.8,7.6,5.21,16.4,9,23.55,10,0,20.15-1.35,30.13-2.01,4.36,12.08,8.26,24.66,13.3,36.45l1.23,3.74c.87,3.47,2.01,7.13.92,10.66-2.84,3.26-74.46,8.42-84.42,9.11-40.67,2.96-81.44,4.34-122.21,4.12-25.34-.11-50.83-.59-76.08-2.9-5.99-.55-16.74.22-21.45-3.83-1.65-1.41-2.47-3.26-2.57-5.42-.14-2.89,1.01-6.33,1.67-9.15l1.19-4.09c2.37-10.46,5.17-20.84,7.8-31.24l56.07.22c9.92.06,21.3,1.22,31.08-.34,1.79-1.14,2.92-4.26,3.69-6.2,4.63-11.76,7.85-24.34,11.45-36.46,5.13-17.4,10.48-34.73,16.04-52Z"/>
  <path class="cls-7" d="m423.38,695.56c11.52,4.55,26.42,5.14,38.69,5.96,37.66,2.53,75.72,1.54,113.41.18,49.92-1.86,99.81-4.67,149.62-8.41l1.23,3.74c.87,3.47,2.01,7.13.92,10.66-2.84,3.26-74.46,8.42-84.42,9.11-40.67,2.96-81.44,4.34-122.21,4.12-25.34-.11-50.83-.59-76.08-2.9-5.99-.55-16.74.22-21.45-3.83-1.65-1.41-2.47-3.26-2.57-5.42-.14-2.89,1.01-6.33,1.67-9.15l1.19-4.09Z"/>
  <path class="cls-14" d="m423.38,695.56c11.52,4.55,26.42,5.14,38.69,5.96,37.66,2.53,75.72,1.54,113.41.18,49.92-1.86,99.81-4.67,149.62-8.41l1.23,3.74c-5.7,1.47-12.47,1.36-18.36,1.76l-32.77,2.15c-50.63,3.17-212.56,13.77-253-1.31l1.19-4.09Z"/>
  <path class="cls-13" d="m514.13,212.92c27.77-12.63,47.56-32.06,62.22-58.68,14.12,20.54,31.65,33.13,53.5,44.52,8.82,4.59,17.78,8.96,27.2,12.18-1.58,12.02-2.71,24.05-3.96,36.11-1.47,9.73-2.53,24.13-8.65,32.08-.95.12-1.48.04-2.41-.14-3.4,1.69-6.58,3.75-9.79,5.77-9.01,5-17.79,10.59-26.65,15.87l-3.24,8.72c-8.17,2.58-16.63,4.16-25.18,4.7-11.12.72-36.49-.54-45.89-6.17-5.99-3.58-13.46-11.55-18.12-16.86-5.56-6.32-10.23-13.34-16.98-18.56-6.91-5.35-16.08-2.52-18.77-5.39-3.39-3.61-1.6-15.36-1.33-20.11,2.62,1.48,5.35,2.92,8.22,3.85,6.67,2.15,13.79,1.89,20.08-1.32,5.98-3.05,10.57-8.68,12.57-15.06,2.41-7.69.86-14.57-2.83-21.5Z"/>
  <path class="cls-10" d="m632.25,284.76c-1.48-9.11-5.17-13.55-1.04-23.22,2.55-5.96,7.6-11.98,13.8-14.3,3.05-1.15,5.17-1.58,8.08-.19-1.47,9.73-2.53,24.13-8.65,32.08-.95.12-1.48.04-2.41-.14-3.4,1.69-6.58,3.75-9.79,5.77Z"/>
  <path d="m546.05,203.77c1.68.07,3.23.19,4.79.85,3.71,1.59,6.29,5.14,7.7,8.81,2.47,6.41,2.6,14.77-.24,21.08-1.93,4.28-4.41,6.39-8.68,8-1.3-.02-2.55-.07-3.79-.51-3.89-1.38-6.75-4.84-8.34-8.54-2.7-6.29-3-14.56-.35-20.91,1.89-4.53,4.46-6.95,8.91-8.77Z"/>
  <path d="m622.47,200.48c1.53.13,3.1.23,4.52.84,3.82,1.64,6.45,5.38,7.84,9.18,2.34,6.38,2.39,14.82-.57,21-2.09,4.37-4.64,6.33-9.08,7.82-1.3-.12-2.53-.28-3.73-.8-3.81-1.64-6.51-5.2-8.05-8.95-2.61-6.38-2.76-14.8.14-21.12,1.95-4.24,4.55-6.48,8.92-7.98Z"/>
  <path class="cls-1" d="m604.92,260.04c1.25.06,2.09.07,3.24.62,1.04,1.52,1.21,2.8.97,4.62-.61,4.6-3.77,9.17-7.5,11.85-4.25,3.06-9.95,4.17-15.07,3.13-5.86-1.18-9.87-4.91-13.05-9.71-.68-1.4-1.53-2.94-1.44-4.55.09-1.46.15-2.26,1.2-3.25.15,0,.3,0,.44.03,2.51.51,3.6,3.43,4.72,5.44,2.11,3.77,5.07,6.24,9.35,7.3,3.34.82,6.85.11,9.74-1.71,5.14-3.25,6.25-8.19,7.4-13.76Z"/>
  <path class="cls-5" d="m440.55,125.28c3.05-.16,5.93.08,8.85.98,5.17,1.58,9.55,4.52,11.98,9.5,7.23,14.79-1.48,27.71-5.88,40.95l.63,1.12c1.21.48,1.43.85,2.57.04,1.95-1.38,3.36-4.38,4.62-6.4,5.09-8.13,11.71-16.4,21.23-19.38,5.57-1.74,11.24-1.38,16.43,1.41,5.11,2.75,8.65,7.22,10.26,12.8,1.57,5.47,1.18,11.07-1.73,16.07-5.13,8.8-17,13.53-26.68,14.7-3.89.47-7.8.16-11.61,1.21-1.08.98-.87,1.28-.96,2.69,1.95,1.86,5.35,1.2,7.89,1.22,10.4.11,22.7,2.87,30.19,10.61,3.73,3.85,5.9,8.86,5.63,14.28-.3,5.88-3.19,11.99-7.62,15.86-4.39,3.83-9.79,5.43-15.57,4.94-14.36-1.21-22.32-14.9-30.6-24.88-1.32-.5-1.32-.48-2.65-.02-.49,1.04-.7,1.31-.32,2.46.61,1.87,2.21,3.74,3.15,5.51,2.85,5.39,5.19,11.36,6.26,17.37,1.21,6.78.73,14.25-3.44,19.99-3.72,5.13-9.1,7.33-15.13,8.31-4.7.14-9.23-.5-13.34-2.96-11.89-7.13-10.86-23.02-7.14-34.39,1.56-4.77,6.33-10.97,5.13-15.92l-.89-.45c-3.88,1.76-12.03,18.72-22.28,24.63-5.52,3.18-12.44,4.15-18.58,2.26-5.1-1.57-9.38-5.99-11.81-10.64-2.61-5-3.23-11-1.35-16.36,4.05-11.6,17.98-16.69,29.1-18.12,3.43-.44,7.92-.07,11.02-1.6.79-1.08.84-1.06.73-2.38-10.68-2.58-20.79-1.08-31.02-6.48-5.31-2.81-10.38-7.33-12.05-13.29-1.58-5.64-.11-12.02,2.82-16.98,2.71-4.58,7.13-8.17,12.33-9.47,13.83-3.44,24.84,7.09,32.48,17.22,1.51,2,4,6.37,6.05,7.4.71.35,1.23-.03,1.92-.25.59-.98.88-1.2.57-2.38-.48-1.76-2.18-3.88-3.06-5.56-2.87-5.46-5.27-11.29-6.4-17.38-1.25-6.8-.72-14.28,3.43-20.05,3.65-5.08,8.91-7.24,14.83-8.24Z"/>
  <path d="m442.1,178.57c4.05.82,14.61,17.09,17.6,21.25-1.94,3.45-11.21,21.17-13.28,22.32-.54.3-1.15.42-1.72.63-6.47-6.65-13.36-14.51-18.69-22.09,5.17-7.44,10.26-15.18,16.1-22.1Z"/>
  <path class="cls-11" d="m442.69,184.71c4.43,4.23,8.21,10.45,11.91,15.4-2.22,3.84-6.9,13.98-9.95,16.26l-13.41-15.89c4.08-5,7.69-10.52,11.45-15.77Z"/>
  <path class="cls-4" d="m522.68,502.35l2.53-.3c.34.18.78.24,1.03.54,1.72,2.05,10.57,45.95,13.3,53.37,1.54,4.19,3.6,7.37,6.36,10.85-10.41,30.97-19.75,62.41-29.5,93.6l-59.86-.26-24.46-.09c10.08-39.05,19.35-78.35,29.02-117.51,2.65.03,5.32.19,7.81-.87,9.5-4.05,34.4-29.82,44.76-38.2l9.02-1.13Z"/>
  <path class="cls-4" d="m563.75,420.2c2.98-3.98,4.97-8.71,8.21-12.47,22.28,33.18,43.91,68.42,60.41,104.86l1.53,3.96c1.61,4.76,5.56,13.61,3.29,18.37-5.55,11.64-40.49,21.46-52.32,25.75-6.21,2.25-12.38,5.26-18.68,7.15-4.88,1.46-9.03,1.27-13.56-1.31-4.6-2.62-8.29-7.58-9.81-12.62l-1.23-4c-.6-7.62-5.33-22.95-7.28-31.11l-18-75.44c4.81.13,9.68.3,14.47-.25,11.7-1.33,21-7.5,28.2-16.65,1.37-2.12,3.34-4.04,4.78-6.23Z"/>
  <path class="cls-4" d="m541.58,549.87c6.89-3.54,15.7-5.45,23.06-8.07,22.95-8.19,46.92-16.38,67.73-29.21l1.53,3.96c1.61,4.76,5.56,13.61,3.29,18.37-5.55,11.64-40.49,21.46-52.32,25.75-6.21,2.25-12.38,5.26-18.68,7.15-4.88,1.46-9.03,1.27-13.56-1.31-4.6-2.62-8.29-7.58-9.81-12.62l-1.23-4Z"/>
  <path class="cls-14" d="m541.58,549.87c6.89-3.54,15.7-5.45,23.06-8.07,22.95-8.19,46.92-16.38,67.73-29.21l1.53,3.96c-14.48,11.7-70.91,31.49-91.09,37.33l-1.23-4Z"/>
  <path class="cls-14" d="m654.93,343.9c7.77,5.06,15.17,10.77,22.65,16.25,15.65,11.43,31.18,23.08,47.01,34.26l4.01,2.98c2.98,2.14,5.81,4.2,8.35,6.87-12.94,12.84-60.01,31.53-78.81,35.38-6.57,1.34-14.54,2.57-21.05.3-19.23-6.7-35.06-42.08-42.68-59.54-1.72-3.93-3.03-10.81-6.61-13.1-.77-.49-1.13-.62-1.65-1.38,2.45-2.6,9.02-2.57,12.52-2.98.76-.33,1.92-.35,2.75-.47,17.87-2.5,36.45-4.26,54.1-7.92-.3-3.53-.7-7.09-.61-10.64Z"/>
  <path class="cls-14" d="m598.69,362.93c.76-.33,1.92-.35,2.75-.47,5.88,15.84,22.98,55.93,38.4,63.34,8.74,4.2,22.95-2,31.43-5.27,11.57-4.45,44.53-18.95,53.33-26.12l4.01,2.98c2.98,2.14,5.81,4.2,8.35,6.87-12.94,12.84-60.01,31.53-78.81,35.38-6.57,1.34-14.54,2.57-21.05.3-19.23-6.7-35.06-42.08-42.68-59.54-1.72-3.93-3.03-10.81-6.61-13.1-.77-.49-1.13-.62-1.65-1.38,2.45-2.6,9.02-2.57,12.52-2.98Z"/>
  <path class="cls-4" d="m598.69,362.93c.76-.33,1.92-.35,2.75-.47,5.88,15.84,22.98,55.93,38.4,63.34,8.74,4.2,22.95-2,31.43-5.27,11.57-4.45,44.53-18.95,53.33-26.12l4.01,2.98c-19.53,11.46-56.76,31.15-78.93,33.82-6.31.76-11.44-.51-16.45-4.56-13.74-11.09-24.66-35.73-31.48-51.69-1.12-2.63-3.65-6.9-3.73-9.62-.02-.81.65-1.24,1.15-1.82l-.48-.58Z"/>
  <path class="cls-1" d="m636.16,542.85c-.73,5.66.32,12.03.76,17.73,1.32,1.84,2.47,2.7,4.49,3.72,2.19,2.25,4.68,4.2,7.39,5.79l.6.47c1.15.91,2.45,2.82,4.05,2.67.3-.03.58-.18.88-.27,2.02,3.36,3.21,6.73,4.05,10.55-1.77.95-2.29,2.76-3.02,4.53-3.61,3.75-6.7,4.22-11.66,5.09-.31.79-.51,1.38-.66,2.23-.21-1.45-.47-2.28-1.19-3.55-1.18-.63-1.71-.74-3.05-.6.86,22.5,2.73,45.06,4.07,67.55-22.98.4-46.05,1.97-69.03,2.9-1.87-11.96-2.31-24.46-3.33-36.54-1.46-17.39-3.3-34.85-4.23-52.28,2.77-.94,5.31-2.15,7.92-3.45,1.31-.52,2.65-.98,3.97-1.47,12.6-5,30.53-8.77,41.46-15.32,1.29-.62,2.58-1.22,3.89-1.81,4.55-2.28,8.76-4.63,12.66-7.93Z"/>
  <path class="cls-4" d="m574.19,569.38c4.41,12.65,7.15,27.76,15.56,38.35.37,8.51-.75,29.39,5.74,35.33,2.34,2.14,5.06,2.58,8.13,2.39,2.9-.18,6.48-1.09,8.4-3.42,1.75-2.13,1.59-6.47,3.08-7.96,1.64-1.64,4.58-1.92,6.63-2.89,6.13-2.9,3.34-15.57,2.81-20.93,7.21-7.13,10.09-13.03,10.26-23.21,1.47,1.3,2.96,2.47,3.99,4.17.86,22.5,2.73,45.06,4.07,67.55-22.98.4-46.05,1.97-69.03,2.9-1.87-11.96-2.31-24.46-3.33-36.54-1.46-17.39-3.3-34.85-4.23-52.28,2.77-.94,5.31-2.15,7.92-3.45Z"/>
  <path class="cls-13" d="m619.62,552.59c.49,1.23,1.34,2.4.81,3.7-2.14,5.19-6.55,6.89-4.32,13.4,4.08,11.89,20.54,10.18,12.9,27.41-1.3,2.92-2.99,5.41-4.9,7.97-.16-6.12-.31-11.73-5.08-16.26-1.75-1.66-4.07-2.97-6.54-2.9-3.18.09-7.04,2.44-9,4.88-1.5,1.87-1.54,5.54-2.88,7.06-.75.86-6.71,3.25-9.15,5.48-6.74-10.28-8.98-23.92-13.3-35.42,12.6-5,30.53-8.77,41.46-15.32Z"/>
  <path class="cls-4" d="m636.16,542.85c-.73,5.66.32,12.03.76,17.73-1.49-.46-2.94-2.09-4.37-2.88-1.9-1.05-3.92-1.83-5.9-2.71-2.13-.95-2.33-2.14-3.15-4.2,4.55-2.28,8.76-4.63,12.66-7.93Z"/>
  <path class="cls-13" d="m610.71,590.66c1.28,0,2.69.2,3.91.59,1.6.51,3.21,1.98,3.91,3.49,1.41,3.01,3.62,28.5,2.32,31.02-1.09,2.12-3.27,2.8-5.33,3.65-.82.03-1.56.02-2.38-.13-1.96-.36-4.08-1.2-5.18-2.98-2.19-3.55-3.47-26.47-2.27-30.81.66-2.36,3.07-3.63,5.01-4.82Z"/>
  <path class="cls-13" d="m624.03,559.55c.37-.02.75-.03,1.12-.03,1.18,0,2.2.06,3.25.62,5.06,2.72,19.2,13.92,23.13,18.16,1.08,1.16,1.79,2.22,1.6,3.86-.31,2.66-2.48,4.55-4.47,6.07-.85.16-1.7.26-2.57.27-4.37.03-19.5-12.54-22.8-16.05-1.72-1.82-3.48-4.56-3.28-7.18.21-2.72,2.05-4.11,4.03-5.73Z"/>
  <path class="cls-13" d="m599.35,602.77l1.23.23c3.08,4.43.07,16.84,2.16,22.38,1.39,3.7,5.23,5.69,7.05,9.04.56,1.03.62,1.96.17,3.05-.81,1.96-3.02,2.85-4.81,3.66-.76.09-1.47.13-2.24.1-2.12-.1-4.32-.76-5.7-2.48-2.47-3.08-3.73-26.25-2.84-30.54.57-2.74,2.81-4.04,4.99-5.43Z"/>
  <path class="cls-6" d="m373.03,162.28l.82.13c-.57,1.96-1.29,3.84-1.95,5.76-1.97,5.71-1.31,12.68,1.4,18.11,4.71,9.44,13.91,13.12,23.35,16.23-5.87,1.88-10.36,4.31-15.43,7.81-13.37-.38-24.17,1.57-35.08,9.88-13.43,10.24-23.01,28.38-25.12,45.02-1.8,14.24,1.86,29.21,10.82,40.54,4.32,5.46,13.94,14.31,21.15,15.02l4.33.46.81,1.09-3.15,1.09c-13.06,2.57-26.27,3.06-38.15-3.81-12.34-7.14-19.65-20.62-23.1-34.06-6.3-24.58-.16-54.92,12.95-76.57,14.67-24.23,39.2-40.11,66.35-46.7Z"/>
  <path class="cls-13" d="m626.09,722.23l10.19-.52-5.32,118.67c-3.95-5.24-8.04-9.55-13.95-12.6-9.19-4.74-19.12-4.6-28.77-1.45-6.32,2.86-10.73,6.26-15.21,11.55,1.43-37.77,2.98-75.61,5.05-113.35,15.94-1.21,32.03-1.24,48-2.3Z"/>
  <path class="cls-14" d="m462.28,342.99c6.15,7.88,14.06,11.38,23.35,14.43.15,6.33.99,13.46,5.11,18.56,3.53,4.37,8.21,5.65,13.51,6.25.26,1.48.39,2.98,1.65,3.98.91.72,2.57,1.04,3.67,1.32-5.36,9.24-6.53,20.58-6.29,31.07l.59,4.66c.73,5.1,2.22,9.93,3.87,14.79-9.29-1.39-18.52-3.14-27.67-5.24-11.86-2.74-73.6-18.89-79.08-24.05-.81-.77-1.25-1.88-1.24-2.97.02-2.67,2.62-4.69,4.38-6.42l3.93-3.7,54.22-52.69Z"/>
  <path class="cls-14" d="m404.13,399.38l3.93-3.7c8.98,3.56,19.38,5.43,28.78,7.84,16.55,4.25,33.16,8.25,49.83,11.98,5.13,1.1,11.39,2.99,16.61,3.11l.59,4.66c.73,5.1,2.22,9.93,3.87,14.79-9.29-1.39-18.52-3.14-27.67-5.24-11.86-2.74-73.6-18.89-79.08-24.05-.81-.77-1.25-1.88-1.24-2.97.02-2.67,2.62-4.69,4.38-6.42Z"/>
  <path class="cls-4" d="m404.13,399.38l3.93-3.7c8.98,3.56,19.38,5.43,28.78,7.84,16.55,4.25,33.16,8.25,49.83,11.98,5.13,1.1,11.39,2.99,16.61,3.11l.59,4.66c-33.64-6.34-66.63-15.3-99.74-23.9Z"/>
  <path class="cls-4" d="m632.06,502.52c8.05.4,16.1.9,24.13,1.47,19.33,49.02,35.52,99.37,54.07,148.7-8.6.56-17.21,1.19-25.8,1.88-8.86-23.63-17.56-47.32-26.1-71.06-.84-3.82-2.02-7.2-4.05-10.55-2.37-6.52-8.39-25.82-11.41-30.48-.89-.37-1.58-.64-2.51-.86-.88-.2-1.3-.64-1.95-1.23.03-.03.07-.06.09-.1,4.21-6.89,3.59-11.17,1.33-18.63-2-6.6-4.94-12.89-7.8-19.15Z"/>
  <path class="cls-13" d="m489.92,724.71c20.67.61,41.34.73,62.01.37-8.57,25.48-20.81,50.19-32.12,74.54l-1.73,3.68-.72.13c-1.64-2.06-.87-4.92-1.94-7.31-3.71-8.32-11.11-15.48-19.59-18.79-10.56-4.12-20.49-2.3-30.55,2.17,8.01-18.35,16.6-36.44,24.64-54.79Z"/>
  <path class="cls-4" d="m608.41,417.84c2.26,1.78,4.11,5.62,5.83,8.01,3.84,5.31,8.77,10.75,14.2,14.46,10.72,7.3,22.22,5.08,34.14,2.81l6.46,39.93c-4.02,5.49-7.85,11.86-12.5,16.78-8.82-.71-17.65-1.3-26.49-1.76-11.45-22.61-24.36-44.36-37.68-65.9,5.44-4.65,10.7-9.55,16.02-14.33Z"/>
  <path class="cls-14" d="m595.75,829.4c6.83-.65,13.06-.23,19.24,2.96,7.07,3.7,12.38,10.07,14.73,17.7,2.71,8.71,1.89,19.75-2.48,27.81-4.4,8.08-11.39,12.52-20.02,15.01-7.53,1.21-14.66.51-21.36-3.37-6.98-4.07-12.02-10.77-13.99-18.6-2.28-8.92-1.13-19.84,3.71-27.75,4.66-7.62,11.68-11.7,20.18-13.77Z"/>
  <path class="cls-14" d="m478.6,780.68c17.23-1.96,32.77,10.47,34.63,27.72,1.85,17.24-10.68,32.7-27.94,34.44-17.1,1.73-32.39-10.67-34.23-27.76-1.84-17.09,10.47-32.45,27.54-34.4Z"/>
  <path class="cls-14" d="m640.97,284.62c1.68,8.66,2.71,17.53,4.02,26.26,1.64,10.97,3.49,21.94,4.75,32.96-2.89,3.23-6.57,5.66-9.49,8.95l.62-.12c-12.44,1-25.11,3.49-37.5,5.25-2.36.38-4.72.73-7.09,1.05l-7.59,1.08c6.44-18.9,13.59-37.58,20.34-56.37,10.62-6.41,21.27-12.77,31.95-19.06Z"/>
  <path class="cls-4" d="m596.27,358.97c4.94-9.09,20.5-56.34,26.54-60.07l.69.27c.62,1.93-.05,4.22-.64,6.11-1.3,4.15-3.49,8.08-5.12,12.12l-11.38,28.58c-1.44,3.54-3.72,7.63-4.35,11.35l1.36.58c-2.36.38-4.72.73-7.09,1.05Z"/>
  <path class="cls-7" d="m451.18,280.58c2.37-.63,4.82-1.22,6.97-2.45,3.05-1.74,8.35-8.84,11.69-6.97.52.29.68.52,1.06.92,1.11,11.06,2.45,21.91,5.23,32.7.92,2.85,1.78,5.75,2.79,8.57,1.03,2.62,2,5.32,3.19,7.88l3.3,6.46c3.36,5.71,7.69,10.34,11.26,15.78,5.22,4.26,14.6,14.7,21.66,14.21.92-.63,1.48-1.19,2.15-2.08.04-.96.51-1.75.9-2.62,2.53,3.57,5.28,7.91,4.37,12.5-.68,3.44-3.11,5.81-6.02,7.57-3.67,2.22-7.95,3.13-12.12,3.87l-3.12.23c-2.82-.24-5.5-.79-7.8-2.53-4.93-3.71-5.44-10.48-6.17-16.1,2.37.53,5.43,1.52,7.83,1.36,1.56-.1,2.18-.48,3.24-1.54l-.22-1.35c-2.75-3.43-15.14-4.72-19.91-6.51-5.91-2.22-12.95-5.68-15.56-11.83-2.46-5.79-.69-11.3,1.68-16.71,4.11.39,7.13.95,10.56-1.78l.04-.93c-2.76-2.17-21.76-4.01-28.15-6.68-4.72-1.97-9.58-5.04-11.46-10.05-2.7-7.18.68-15.21,3.8-21.64,2.26.16,4.56.02,6.82-.04l2-.26Z"/>
  <path class="cls-13" d="m451.18,280.58c2.37-.63,4.82-1.22,6.97-2.45,3.05-1.74,8.35-8.84,11.69-6.97.52.29.68.52,1.06.92,1.11,11.06,2.45,21.91,5.23,32.7.92,2.85,1.78,5.75,2.79,8.57-.42.34-.54.46-.95.73-3.08,2.02-9.16.9-12.6.1-7.57-1.77-15.98-5.25-20.09-12.28-2.4-4.19-2.96-9.18-1.55-13.8.98-3.23,2.48-5.61,5.45-7.27l2-.26Z"/>
  <path class="cls-7" d="m451.18,280.58c2.37-.63,4.82-1.22,6.97-2.45,3.05-1.74,8.35-8.84,11.69-6.97.52.29.68.52,1.06.92,1.11,11.06,2.45,21.91,5.23,32.7-8.94-1.65-17.01-2.36-22.95-10.04.82-2.95,3.44-6.79,2.63-9.87-.59-2.26-2.75-3.24-4.62-4.29Z"/>
  <path class="cls-13" d="m496.67,343.48c.45,1.97,1.05,4.11-.12,5.94-.81,1.26-2.03,1.88-3.47,2.15-4.09.79-8.78-1.17-12.17-3.4-3.8-2.49-6.82-6.15-7.66-10.71-.79-4.28.62-9.74,3.3-13.21,1.5-1.95,3.2-2.64,5.56-3.01l3.3,6.46c3.36,5.71,7.69,10.34,11.26,15.78Z"/>
  <path class="cls-7" d="m485.41,327.7c3.36,5.71,7.69,10.34,11.26,15.78-2.8-1.01-5.65-1.91-8.43-2.97-1.96-.75-3.82-2.04-4.62-4.07-1.17-2.98.64-6.03,1.79-8.74Z"/>
  <path class="cls-13" d="m504.49,377.16c-4.29-2.48-7.96-4.93-9.17-10.12-.36-1.57-.42-3.87.5-5.28.51-.78.98-1.08,1.78-1.52,1.81-.19,3.17.15,4.54,1.42,1.14,1.06.97,3.45,1.93,4.74,1.53,2.05,6.47,2.45,6.22,5.49-.15,1.87-1.53,3.64-2.68,5.04l-3.12.23Z"/>
  <path class="cls-4" d="m465.36,433.6c15.57,4.24,31.2,6.49,46.98,9.64,1.39,6.32,3,12.62,4.51,18.91-8.48,7.83-17.16,15.47-25.75,23.18-7.16,6.54-14.42,14.24-22.41,19.68-3.57-4.1-6.97-8.37-10.44-12.54,1.51-19.59,4.72-39.35,7.12-58.88Z"/>
  <path class="cls-7" d="m504.25,382.24c9.37-.51,16.72-2.75,23.56-9.32,1.43.71,3.03,1.46,3.61,3.08.38,1.04.29,1.96-.2,2.96-.76,1.54-2.43,2.51-3.86,3.34l.66.6c-1.07,6.03,3.3,13.23,6.68,17.99,4.77,6.71,10.94,10.18,19.02,11.47,3.35.53,6.84.76,10.23.78.02,2.31.26,4.81-.21,7.08-1.44,2.19-3.4,4.11-4.78,6.23-5.4,2.39-10.47,4.74-15.41,8.02-3.99,2.13-7.65,3.61-12.13,4.34-6.49,1.76-11.57,1.1-18.03-.15-5.47-12.89-6.56-25.77-3.1-39.34.71-2.8,2.97-6.4,3.04-9.08.04-1.38-.58-1.74-1.42-2.69h-2.36c-1.1-.26-2.76-.58-3.67-1.31-1.26-1.01-1.39-2.5-1.65-3.98Z"/>
  <path class="cls-9" d="m504.25,382.24c9.37-.51,16.72-2.75,23.56-9.32,1.43.71,3.03,1.46,3.61,3.08.38,1.04.29,1.96-.2,2.96-.76,1.54-2.43,2.51-3.86,3.34-3.42,1.84-6.72,3.14-10.5,4.07-1.58.39-3.47.52-4.94,1.17h-2.36c-1.1-.26-2.76-.58-3.67-1.31-1.26-1.01-1.39-2.5-1.65-3.98Z"/>
  <path d="m533.37,434.08c-4.07-1.65-7.01-4.1-8.67-8.24-.69-1.7-.73-2.43-.05-4.14l1.17-.77c4.25,1.17,4.74,6.73,8.4,8.23,2.61,1.07,5.51-.62,8.04.79.75,1.56.6,2.41.16,4.08l1.15.42c-3.99,2.13-7.65,3.61-12.13,4.34l-.8-.7c.16-1.65,1.65-2.86,2.74-4.02Z"/>
  <path class="cls-14" d="m542.41,434.03l1.15.42c-3.99,2.13-7.65,3.61-12.13,4.34l-.8-.7c.16-1.65,1.65-2.86,2.74-4.02,3.12.56,5.91.55,9.04-.05Z"/>
  <path d="m540.44,416.78c1.29-.03,2.17.01,3.39.46,3.21,1.19,7.43,1.55,10.18,3.65.59,1.62.23,1.84-.42,3.38-1.48.31-3.07.43-4.58.25-2.75-.33-6.34-1.45-7.99-3.86-1-1.45-.8-2.27-.57-3.88Z"/>
  <path class="cls-14" d="m529.98,357.48l34.93,4.73c1.64.19,3.71.19,5.27.66,4.15.59,8.38,1.04,12.5,1.82-2.81,9.94-11.36,38.38-17.89,45.41-.54-.44-1.4-1.58-1.92-1.89-1.34-.82-8.84-.82-10.97-1.2l-4.33-1.36c-12.1-6.54-12.59-19.62-16.56-22.64-.7-.54-2.13-.18-2.98-.13l-.66-.6c1.42-.83,3.1-1.8,3.86-3.34.49-.99.58-1.92.2-2.96-.59-1.62-2.18-2.36-3.61-3.08.46-.56.42-.49.91-1.22,3.08-4.67,2.26-9.09,1.26-14.22Z"/>
  <path class="cls-14" d="m564.91,362.21c1.64.19,3.71.19,5.27.66,4.15.59,8.38,1.04,12.5,1.82-2.81,9.94-11.36,38.38-17.89,45.41-.54-.44-1.4-1.58-1.92-1.89-1.34-.82-8.84-.82-10.97-1.2l-4.33-1.36c8.06-12.77,12.64-29.16,17.34-43.45Z"/>
  <path class="cls-4" d="m564.91,362.21c1.64.19,3.71.19,5.27.66-.38.27-.88.42-1.14.8-1.82,2.63-5.8,16.64-7.25,20.52-2.89,7.77-6.2,15.39-9.89,22.82l-4.33-1.36c8.06-12.77,12.64-29.16,17.34-43.45Z"/>
  <path class="cls-7" d="m480.63,269.63c5.71,1.11,10.22,4.99,14.51,8.75,5.77,5.08,12.68,12.42,12.99,20.59.41,10.77-8.42,12.02-14,18.49-.98,1.13-.92,1.33-.78,2.74.55.67.85,1.51,1.8,1.54,3.57.09,9.07-5.35,11.64-7.55,6.1,4.08,10.08,8.42,12.09,15.57.4,8.02-2.51,13.36-6.79,19.87-19.3-14.3-29.28-33.81-33.61-57.12-.64-3.45-3.64-17.62-1.72-20.41,1.59-.47,2.46-.9,3.59-2.14.1-.11.19-.22.28-.33Z"/>
  <path class="cls-6" d="m517.63,467.22c1.59,1.86,4.6,17.86,5.44,21.53l-33.74,30.51c-6.29,5.72-12.55,12.38-19.44,17.26-2.97,2.11-5.33,1.99-8.77,1.4-1.33-.67-2.54-1.42-3.63-2.44-1.84-1.74-2.98-4.06-2.95-6.62.03-2.11.66-4.23,1.98-5.88,5.63-7.07,13.91-13.19,20.65-19.23,13.55-12.11,27.04-24.29,40.47-36.54Z"/>
  <path class="cls-6" d="m692.51,591.43c19.3,21.38,39.62,41.98,59.46,62.88,7.65,8.06,16.45,15.98,23.36,24.62,1.14,1.42,2.23,2.86,2.08,4.78-.13,1.67-1.17,3.44-2.51,4.44-1.1.81-2.56,1.02-3.87.71-2.22-.53-62.34-55.84-64.94-60.71-.6-1.12-1.03-2.34-1.43-3.54-1.36-2.88-2.18-6.2-3.14-9.24-3.3-7.86-5.91-15.99-9-23.93Z"/>
  <path class="cls-3" d="m701.51,615.36c15.11,12.88,29.23,27.42,43.64,41.12l17.19,16.33c3.15,2.96,6.69,5.85,9.54,9.07,1.06,1.19,1.45,1.77,1.65,3.33l-.7,1c-3.16.08-5.6-2.45-7.78-4.52l-43.41-41.53c-4.04-3.85-12.56-13.34-16.99-15.57-1.36-2.88-2.18-6.2-3.14-9.24Z"/>
  <path class="cls-14" d="m513.58,297.82l40.38,38.21c8.17,7.69,17.02,15.21,24.5,23.55-4.68-.54-9.36-1.15-14.02-1.81-2.79-.27-5.58-.72-8.36-1.1l-28.35-3.75c-1.97-3.03-4.29-5.82-6.54-8.65,2.92-6.18,3.41-12.11,1.83-18.71-3.26-7.6-12.29-14.48-12.72-15.58-.23-.58.77-1.87,1.09-2.42,1.22-3.21,1.72-6.35,2.2-9.73Z"/>
  <path class="cls-14" d="m523.02,325.55c2.46.89,30.14,27.24,33.06,31.11l-28.35-3.75c-1.97-3.03-4.29-5.82-6.54-8.65,2.92-6.18,3.41-12.11,1.83-18.71Z"/>
  <path class="cls-4" d="m511.38,307.55c7.29,8.43,16.36,15.96,24.51,23.6,9.43,8.84,18.68,18.29,28.55,26.61-2.79-.27-5.58-.72-8.36-1.1-2.93-3.87-30.6-30.23-33.06-31.11-3.26-7.6-12.29-14.48-12.72-15.58-.23-.58.77-1.87,1.09-2.42Z"/>
  <path class="cls-2" d="m538.67,315.66c19.1,3.68,36.13,4.77,55.41,1.23.3,3.71.92,7.27,1.66,10.91l-1.99,5.61c-.44,1.21-.88,2.96-1.85,3.84-1.82,1.64-24.07,1.54-28.29,1.68l-24.94-23.27Z"/>
  <path class="cls-6" d="m596.44,396.27c1.91,1.33,7.9,14.25,9.89,17.6l-16.24,14.59c-3.65-5.54-7.16-11.19-10.73-16.79l17.08-15.4Z"/>
  <path class="cls-12" d="m441.75,314.12c2.99,1.65,5.88,3.13,9.08,4.31-4.58,5.46-7.92,11.67-10.98,18.07-1.2.63-2.35,1.31-3.43,2.12-5.67,4.28-6.31,10.76-7.3,17.23-.17,1.03-.35,1.65-.91,2.54-1.74.13-3.68-1.56-5.1-2.49,3.46-15.26,8.84-29.39,18.64-41.78Z"/>
  <path class="cls-7" d="m413.48,358.17c7.6.36,12.2,4.2,17.43,9.18l-10.84,10.62-2.96,2.56c-4.69-2.3-9.14-4.75-11.3-9.84-.89-2.1-1.16-4.69-.13-6.79,1.57-3.2,4.57-4.68,7.79-5.73Z"/>
  <path class="cls-4" d="m585.45,370.3c3.33,5.34,6.67,15.39,9.43,21.61l-14.22,12.73-3.76,3.34-2.96-5.41c4.69-10.43,8.53-21.22,11.5-32.27Z"/>
  <path class="cls-13" d="m665.03,229.57c.92.28,1.48.67,2.23,1.27,2.85,2.26,4.16,5.4,4.61,8.93.84,6.55-.96,14.19-5.11,19.32-.82.66-1,.8-2.02.97-1.2-8.9-2.67-17.77-4.41-26.58l4.7-3.91Z"/>
  <path class="cls-7" d="m441.8,340.54c2.71-.19,5.61.11,8.11,1.25,1.29.59,1.51,1.31,1.97,2.58-.6,5.12-7.82,10.4-11.47,13.82l-4.67,4.58c-1.13-4.86-2.44-10.31-.7-15.2,1.26-3.56,3.48-5.37,6.76-7.03Z"/>
  <path class="cls-4" d="m587.3,341.27c1.24-.12,1.92-.2,3.12.27-.81,5.54-4.08,12.04-6.04,17.37l-6.86-6.54-11.38-10.66c7.06-.03,14.1-.09,21.16-.44Z"/>
  <path class="cls-4" d="m377.85,320.31l10.55,2.8c1.28,3.6,2.09,7.33,2.96,11.03-3.7-1.09-7.49-1.95-11.23-2.89-.93-3.63-1.63-7.26-2.29-10.94Z"/>
  <path class="cls-12" d="m434.03,305.49c1.45,1.41,2.65,3.59,3.83,5.26-5.48,4.4-10.23,9.18-14.94,14.36-.32.41-.83.79-1.22,1.14-.15-.45-.25-.65-.23-1.18.31-7.81,7.39-14.53,12.57-19.58Z"/>
  <path class="cls-6" d="m431.56,276.62c1.67,1.21,3.6,2.04,5.45,2.94-2.14,4.93-3.64,9.83-4.19,15.22-.19,1.85.1,4.41-.44,6.12-.11.33-1.09,1.2-1.38,1.52l-4.28,3.89c2.91-9.86,4.41-19.41,4.84-29.68Z"/>
  <path class="cls-12" d="m454.31,320.96c.77,3.82.37,8.2.93,12.18l-9.34,3.03-.38-.39c.09-4.16,6.13-11.57,8.79-14.82Z"/>
  <path class="cls-7" d="m640.66,550.46c3.19,6.31,5.46,13.09,8.13,19.63-2.71-1.59-5.2-3.54-7.39-5.79-.28-4.61-.63-9.22-.75-13.84Z"/>
  <path class="cls-12" d="m428.42,325.45c.11,2.71-6.5,17.88-7.84,22.37-.68-3.94-.44-8.12-.31-12.1,2.48-3.64,5.29-6.93,8.15-10.28Z"/>
  <path class="cls-13" d="m658.11,249.55c.76,3.73,2.26,8.66,1.68,12.43-.23,1.49-.96,1.7-2.09,2.54l-1.52-.5c-1.41-3.02,1.11-11.17,1.93-14.47Z"/>
  <path d="m458.79,320.63c1.19.24,1.76.2,2.66,1.05.19,2.79-1.19,5.66-1.59,8.5l-.09.68-.14.14-.44-.13c-.58-3.4-.45-6.79-.4-10.23Z"/>
  <path class="cls-5" d="m520.48,355.61c-1.69-2.19-2.76-2.48-3.18-5.39l.81-.44c1.82.86,2.13,1.58,3.27,3.21-.39.87-.85,1.66-.9,2.62Z"/>
  <path class="cls-8" d="m438.42,426.26c3.37.36,6.64,1.56,9.85,2.6-4.34.32-6.27-.36-9.85-2.6Z"/>
  <path class="cls-10" d="m511.45,244.27c.21,1.42.01,2.8,1.17,3.7,9.73.54,17.58.85,24.56,8.63,4.55,5.07,6.73,11.91,6.32,18.67-.38,6.32-3.42,13.32-8.31,17.46-3.77,3.18-10.01,4.18-13.11,7.45-3.18-2.84-6.55-5.67-9.31-8.92-3.4-4-6.41-8.61-10.1-12.32-3.29-3.31-8.06-5.69-10.91-9.31-1.75-.74-3.44-.14-5.26-.15-2.71-.02-8.08.11-10.03-1.95-2.36-4.84-.86-14.57-.53-20.01,7.7,4.51,13.47,5.73,22.33,4.98,5.4-1.88,9.15-4.14,13.17-8.23Z"/>
</svg>