<?xml version="1.0" encoding="utf-8" ?>
<svg xmlns="http://www.w3.org/2000/svg" xmlns:xlink="http://www.w3.org/1999/xlink" width="1134" height="950">
	<path fill="#1A1F22" fill-opacity="0.96470588" d="M480.75 724.421C520.414 722.128 563.637 730.932 603.612 733.86C644.391 736.847 685.538 735.434 726.316 738.461C751.417 740.325 776.397 743.909 801.284 747.589C829.27 751.579 857.186 756.05 885.019 761C913.242 765.931 942.071 769.647 969.678 777.488C981.6 780.874 994.651 785.17 1004.62 792.672C1009.7 796.493 1014.33 801.679 1015.08 808.247C1015.81 814.591 1012.58 820.648 1008.63 825.368C999.476 836.309 984.827 843.187 971.672 848.184C948.764 856.886 923.794 861.154 899.839 866.06C867.704 872.642 835.22 879.607 802.49 882.396C771.757 885.015 741.041 884.299 710.244 885.298C687.997 886.019 665.719 888.179 643.548 890.119C583.67 895.48 524.365 885.744 464.678 882.203C446.588 881.13 428.457 880.772 410.351 880.015L341.675 876.548C287.017 873.727 166.692 868.582 123.104 838.862C117.244 834.867 110.658 829.186 109.427 821.798C108.591 816.786 110.577 811.986 113.516 808.025C120.69 798.358 134.012 791.149 144.467 785.426C174.83 768.454 207.886 756.828 242.189 751.057C265.086 747.406 288.484 745.916 311.531 743.353C336.984 740.522 362.377 736.984 387.862 734.456C403.671 732.887 419.531 731.7 435.31 729.86C442.839 728.982 450.281 727.521 457.787 726.628C465.168 725.749 472.627 725.696 479.98 724.546L480.75 724.421ZM215.986 758.6C191.915 764.795 125.614 790.077 113.142 811.707C111.123 815.209 110.308 819.077 111.36 823.036C112.652 827.903 116.986 832.494 121.121 835.231L121.796 835.645C127.965 841.665 138.96 845.568 147.025 848.59C170.34 857.329 196.011 861.221 220.609 864.544C259.73 869.83 298.611 872.502 338.011 874.521C373.423 876.336 408.743 878.082 444.182 879.315C468.679 880.244 493.144 881.873 517.549 884.2C542.854 886.57 568.239 889.491 593.67 890.128C627.835 890.984 661.947 886.054 696.002 884.11C726.831 882.349 757.758 883.539 788.547 881.576C827.099 879.119 864.726 871.505 902.458 863.689C928.81 858.23 956.238 853.605 980.869 842.351C992.132 837.205 1007.8 828.565 1012.22 816.228C1013.79 811.855 1013.58 807.431 1011.46 803.279C1006.49 793.544 993.185 787.308 983.285 784.328C976.179 778.216 896.346 763.784 884.576 762.929C878.848 761.47 872.668 760.777 866.833 759.769L827.115 753.085C789.589 746.776 751.054 741.235 713.023 739.381C710.506 738.711 700.704 739.575 696.949 739.208C685.279 738.587 669.331 738.163 657.978 739.972C669.206 740.808 680.539 739.465 691.709 740.327C695.498 741.407 707.981 741.719 711.31 739.968C722.962 742.778 734.555 743.897 746.327 745.863C776.658 750.929 824.24 759.884 849.538 776.742L848.037 777.441C829.637 764.641 793.164 756.574 770.828 751.893C764.704 750.61 758.146 748.817 751.901 748.556C746.115 747.577 740.27 746.743 734.605 745.189C739.991 748.297 746.7 749.474 751.648 753.202C752.414 754.664 754.579 755.783 755.794 756.992C758.18 759.368 757.824 761.659 757.759 764.781C755.01 767.777 752.274 769.789 748.572 771.479C734.942 777.698 717.906 779.671 703.207 782.471C699.874 783.106 696.612 784.216 693.296 784.779C688.487 785.596 683.445 785.553 678.831 787.245C674.578 788.805 670.292 788.248 665.991 789.267C664.18 789.696 662.541 790.581 660.685 790.882C656.577 791.549 652.321 791.335 648.202 792.013C645.597 792.442 643.352 793.566 640.65 793.788C635.173 794.237 629.635 794.069 624.147 794.418C620.978 794.619 618.351 795.43 615.052 795.404C603.821 795.315 592.474 794.836 581.257 794.216C576.856 793.973 572.722 793.264 568.208 793.198C562.991 793.122 557.687 791.478 552.456 790.808C539.271 789.118 526.153 787.752 512.92 786.515C484.439 783.852 388.528 783.524 370.827 764.378C369.155 762.569 367.563 760.195 367.743 757.624C368.063 753.048 373.174 750.418 376.103 747.676L376.782 747.031C380.223 744.671 384.601 743.105 388.363 741.234C383.924 742.305 379.458 743.264 374.971 744.11C366.951 744.297 358.283 746.864 350.444 748.531C330.532 752.765 282.447 762.478 267.625 774.742L265.836 774.314C288.76 755.94 361.711 745.51 392.596 739.188C399.443 737.787 405.842 735.759 412.554 734.033C407.548 733.939 402.168 734.862 397.198 735.498C388.45 735.93 379.744 737.31 371.04 738.259L305.114 745.971C292.766 747.365 280.406 748.652 268.035 749.832C259.24 750.691 249.062 751.117 240.555 753.515C232.433 754.136 223.774 756.283 215.986 758.6ZM469.124 732.187C450.627 732.959 431.867 734.959 413.544 737.568C406.515 738.569 399.184 739.313 392.366 741.298C385.322 743.349 376.296 747.25 371.271 752.778C369.537 754.686 368.262 756.665 368.564 759.325C368.902 762.297 371.292 764.064 373.572 765.699C397.931 783.174 482.069 782.733 514.478 785.742C516.263 785.907 517.924 786.64 519.697 786.867C525.757 787.646 532.393 786.533 538.237 788.364C543.426 789.991 549.65 789.279 555.082 789.8C557.568 790.039 559.995 790.985 562.528 791.257C588.251 794.016 612.822 795.867 638.623 792.96C643.531 792.408 648.705 792.048 653.521 790.967C665.819 790.03 678.649 786.765 690.771 784.404C700.491 782.511 710.553 781.091 720.17 778.839C723.516 778.056 726.709 776.606 730.056 775.84C732.36 775.313 734.72 775.372 737.004 774.731C740.844 773.654 744.337 771.739 748.086 770.439C749.392 769.985 750.867 770.038 752.105 769.427C753.054 768.959 753.862 768.188 754.523 767.372C756.249 765.24 757.193 762.297 756.724 759.562C756.533 758.449 756.025 757.708 755.386 756.802C754.606 756.393 753.864 756.037 753.061 755.681C750.169 754.399 747.538 752.093 744.762 750.523C739.125 747.335 730.491 745.074 724.158 744.175C686.744 738.866 645.978 743.465 607.954 741.628C561.491 739.382 515.802 729.979 469.124 732.187ZM456.939 730.527C443.2 731.513 425.616 731.075 412.726 735.602C415.45 736.183 420.116 735.202 422.946 734.798C438.501 732.92 454.238 731.084 469.901 730.518C467.957 729.716 459.481 730.24 456.939 730.527ZM643.829 738.224C652.347 737.921 661.117 737.111 669.614 737.355C662.942 735.358 646.881 736.571 639.299 736.477C627.039 736.325 614.829 736.055 602.589 735.297C567.489 733.122 532.794 726.098 497.535 725.683C490.846 725.604 483.853 725.308 477.189 726.012C471.787 726.482 454.686 726.774 451.12 728.367C458.197 728.886 465.61 728.016 472.738 727.962C486.278 727.89 499.816 728.314 513.326 729.232C535.939 730.81 558.354 734.544 580.92 736.595C602.573 738.563 622.188 738.552 643.829 738.224Z"/>
	<defs>
		<linearGradient id="gradient_0" gradientUnits="userSpaceOnUse" x1="561.04236" y1="736.55804" x2="559.75446" y2="885.56042">
			<stop offset="0" stop-color="#B6E9FA" stop-opacity="0.20784314"/>
			<stop offset="1" stop-color="#B6E9FA" stop-opacity="0.25490198"/>
		</linearGradient>
	</defs>
	<path fill="url(#gradient_0)" d="M397.198 735.498C402.168 734.862 407.548 733.939 412.554 734.033C405.842 735.759 399.443 737.787 392.596 739.188C361.711 745.51 288.76 755.94 265.836 774.314C262.991 776.725 259.788 779.992 259.367 783.881C259.003 787.25 260.783 790.41 262.91 792.873C272.082 803.497 304.084 813.637 318.288 814.944C382.513 828.583 445.602 825.781 510.552 829.626C534.336 831.034 557.783 834.94 581.5 836.891C596.135 838.095 610.578 838.093 625.236 837.688C656.357 836.829 687.149 830.336 718.214 828.374C728.039 828.314 738.031 827.241 747.845 826.621C776.877 824.788 804.273 822.779 832.127 813.633C840.212 811.959 851.08 806.11 856.147 799.434C858.435 796.419 859.825 792.779 859.188 788.961C858.262 783.408 853.797 779.86 849.538 776.742C824.24 759.884 776.658 750.929 746.327 745.863C734.555 743.897 722.962 742.778 711.31 739.968L713.023 739.381C751.054 741.235 789.589 746.776 827.115 753.085L825.324 753.42L825.28 754.046L837.041 755.989C836.184 756.761 835.465 756.854 834.381 757.145C837.956 758.533 870.83 763.706 873.781 763.111L870.903 762.613C874.623 762.738 881.317 764.375 884.576 762.929C896.346 763.784 976.179 778.216 983.285 784.328L983.421 785.234C984.554 785.774 985.631 786.295 986.84 786.642C990.953 787.822 1004.44 795.703 1006.42 799.381C1008.31 802.868 1008.93 811.93 1007.85 815.728C1005.17 825.099 984.335 835.519 975.912 838.797C970.997 840.71 965.944 842.252 961.023 844.146C957.927 845.337 954.619 847.106 951.425 847.917C946.283 849.222 940.487 849.27 935.214 850.314C926.537 852.032 918.243 854.732 909.599 856.504C899.883 858.495 889.932 859.57 880.274 861.674C873.853 863.073 855.244 871.812 849.98 869.543C849.246 869.227 848.528 868.864 847.817 868.5C846.638 868.535 845.844 868.747 844.726 869.114C840.609 870.464 835.903 870.354 831.634 871.129L832.505 871.224C826.908 871.76 821.306 872.245 815.7 872.677L817.08 873.595L816.677 874.22C813.657 873.868 810.424 873.226 807.404 873.739L807.823 874.6L810.111 874.777C809.462 875.557 807.748 875.825 806.74 875.92C805.853 876.003 805.1 875.677 804.317 875.325C802.46 874.491 798.755 875.319 796.784 875.7L798.377 875.932L797.397 875.539C798.625 876.255 800.332 876.096 801.723 876.157C791.809 879.841 740.491 879.19 726.197 879.376C720.908 879.445 715.651 880.001 710.371 880.11C704.61 880.229 696.878 878.614 691.53 880.339C684.347 882.656 673.217 881.89 665.563 882.434C660.707 882.779 655.863 883.538 650.992 883.633C647.541 883.699 641.659 882.569 638.531 883.57L641.081 883.876L640.767 884.6C634.21 886.518 597.512 886.648 588.612 886.398C579.103 886.131 536.019 883.861 529.887 881.324C529.926 881.033 529.994 880.745 530.003 880.452C530.007 880.313 529.951 880.178 529.925 880.041C526.883 880.301 523.185 881.009 520.191 880.584C520.181 880.415 520.173 880.246 520.16 880.077C520.101 879.246 520.126 879.547 519.95 878.586L519.052 878.348C518.932 878.516 518.817 878.688 518.692 878.853C518.285 879.392 518.011 879.644 517.459 879.999C513.948 880.171 508.43 880.275 505.105 879.146L505.293 878.613C507.338 878.669 512.107 879.279 513.694 878.242C509.151 877.781 505.26 879.357 500.867 879.346C492.676 879.326 484.122 877.563 475.91 876.968C471.148 876.623 465.899 877.405 461.291 876.351C456.804 875.325 451.506 875.94 446.898 875.907C442.641 875.877 438.563 874.881 434.403 874.788C429.1 874.671 423.833 875.545 418.529 875.24C392.347 873.739 366.114 872.301 339.93 871.277C336.68 871.15 333.307 870.096 330.203 870.054C327.616 870.019 325.023 870.494 322.434 870.489C318.787 870.481 314.905 869.609 311.192 869.442C295.317 868.721 279.456 867.711 263.617 866.411C248.831 865.159 233.94 862.769 219.254 860.651C202.114 858.178 184.601 856.194 167.82 851.64C161.16 849.832 153.705 847.987 147.276 845.581C141.435 843.396 136.536 839.928 130.326 838.563L130.544 839.198C130.785 839.291 131.027 839.38 131.266 839.476C132.027 839.779 132.577 840.152 133.251 840.602C138.243 843.939 143.846 843.742 148.754 847.988C145.663 846.692 122.087 835.62 121.796 835.645L121.121 835.231C120.926 833.492 118.924 832.052 117.946 830.649C116.002 827.859 112.842 821.55 113.592 818.206C114.562 813.88 119.268 805.937 122.607 803.015C129.792 796.73 136.3 794.654 144.304 790.626C161.382 782.033 178.361 773.185 196.547 767.068C200.831 765.627 213.939 763.163 216.61 761.283C215.281 760.69 213.495 761.055 212.06 761.174C213.392 760.626 214.728 760.174 216.102 759.741L215.986 758.6C223.774 756.283 232.433 754.136 240.555 753.515C244.672 755.196 260.972 752.086 265.912 751.069C271.7 749.878 278.347 754.055 283.399 750.3C286.9 747.697 322.164 745.816 329.175 744.879C332.117 744.485 334.984 743.557 337.924 743.155C347.838 741.801 357.898 740.721 367.85 739.631C375.355 738.808 392.036 737.931 398.567 735.898L397.198 735.498Z"/>
	<path fill="#B4E8FA" fill-opacity="0.54509807" d="M267.625 774.742C282.447 762.478 330.532 752.765 350.444 748.531C358.283 746.864 366.951 744.297 374.971 744.11C375.42 745.245 376.262 745.964 376.782 747.031L376.103 747.676C373.174 750.418 368.063 753.048 367.743 757.624C367.563 760.195 369.155 762.569 370.827 764.378C388.528 783.524 484.439 783.852 512.92 786.515C526.153 787.752 539.271 789.118 552.456 790.808C557.687 791.478 562.991 793.122 568.208 793.198C572.722 793.264 576.856 793.973 581.257 794.216C592.474 794.836 603.821 795.315 615.052 795.404C618.351 795.43 620.978 794.619 624.147 794.418C629.635 794.069 635.173 794.237 640.65 793.788C643.352 793.566 645.597 792.442 648.202 792.013C652.321 791.335 656.577 791.549 660.685 790.882C662.541 790.581 664.18 789.696 665.991 789.267C670.292 788.248 674.578 788.805 678.831 787.245C683.445 785.553 688.487 785.596 693.296 784.779C696.612 784.216 699.874 783.106 703.207 782.471C717.906 779.671 734.942 777.698 748.572 771.479C752.274 769.789 755.01 767.777 757.759 764.781C757.824 761.659 758.18 759.368 755.794 756.992C754.579 755.783 752.414 754.664 751.648 753.202C751.516 752.536 751.351 752.095 751.046 751.471C750.94 751.255 750.826 751.042 750.717 750.828L751.901 748.556C758.146 748.817 764.704 750.61 770.828 751.893C793.164 756.574 829.637 764.641 848.037 777.441C852.239 780.711 857.165 784.523 857.675 790.275C857.981 793.731 856.293 796.75 854.043 799.234C848.329 805.545 838.952 809.102 831.217 812.239C804.235 821.779 774.558 823.06 746.225 824.817C739.765 825.217 724.07 824.952 718.585 826.896C712.556 827.289 706.007 827.289 700.074 828.418C697.628 826.584 695.88 827.069 692.993 827.489C689.9 827.939 685.879 828.158 683.006 829.389L682.909 830.177C678.291 830.654 672.692 832.095 668.136 831.919C664.176 830.908 660.198 829.82 656.422 832.004C655.426 832.58 655.338 832.424 655.002 833.563C637.957 835.417 620.565 836.882 603.414 836.293C570.279 835.157 537.392 829.131 504.254 827.381C453.42 824.695 402.812 826.059 352.204 819.158C341.251 817.664 329.698 816.534 319.093 813.312C306.674 811.928 275.112 802.154 266.216 793.585C263.784 791.242 261.757 788.281 261.77 784.779C261.787 780.304 264.624 777.599 267.625 774.742Z"/>
	<path fill="#B4E8FA" fill-opacity="0.69803923" d="M469.124 732.187C515.802 729.979 561.491 739.382 607.954 741.628C645.978 743.465 686.744 738.866 724.158 744.175C730.491 745.074 739.125 747.335 744.762 750.523C747.538 752.093 750.169 754.399 753.061 755.681C753.864 756.037 754.606 756.393 755.386 756.802C756.025 757.708 756.533 758.449 756.724 759.562C757.193 762.297 756.249 765.24 754.523 767.372C753.862 768.188 753.054 768.959 752.105 769.427C750.867 770.038 749.392 769.985 748.086 770.439C744.337 771.739 740.844 773.654 737.004 774.731C734.72 775.372 732.36 775.313 730.056 775.84C726.709 776.606 723.516 778.056 720.17 778.839C710.553 781.091 700.491 782.511 690.771 784.404C678.649 786.765 665.819 790.03 653.521 790.967C648.705 792.048 643.531 792.408 638.623 792.96C612.822 795.867 588.251 794.016 562.528 791.257C559.995 790.985 557.568 790.039 555.082 789.8C549.65 789.279 543.426 789.991 538.237 788.364C532.393 786.533 525.757 787.646 519.697 786.867C517.924 786.64 516.263 785.907 514.478 785.742C482.069 782.733 397.931 783.174 373.572 765.699C371.292 764.064 368.902 762.297 368.564 759.325C368.262 756.665 369.537 754.686 371.271 752.778C376.296 747.25 385.322 743.349 392.366 741.298C399.184 739.313 406.515 738.569 413.544 737.568C431.867 734.959 450.627 732.959 469.124 732.187Z"/>
	<path fill="#B4E8FA" fill-opacity="0.078431375" d="M983.285 784.328C993.185 787.308 1006.49 793.544 1011.46 803.279C1013.58 807.431 1013.79 811.855 1012.22 816.228C1007.8 828.565 992.132 837.205 980.869 842.351C956.238 853.605 928.81 858.23 902.458 863.689C864.726 871.505 827.099 879.119 788.547 881.576C757.758 883.539 726.831 882.349 696.002 884.11C661.947 886.054 627.835 890.984 593.67 890.128C568.239 889.491 542.854 886.57 517.549 884.2C493.144 881.873 468.679 880.244 444.182 879.315C408.743 878.082 373.423 876.336 338.011 874.521C298.611 872.502 259.73 869.83 220.609 864.544C196.011 861.221 170.34 857.329 147.025 848.59C138.96 845.568 127.965 841.665 121.796 835.645C122.087 835.62 145.663 846.692 148.754 847.988C143.846 843.742 138.243 843.939 133.251 840.602C132.577 840.152 132.027 839.779 131.266 839.476C131.027 839.38 130.785 839.291 130.544 839.198L130.326 838.563C136.536 839.928 141.435 843.396 147.276 845.581C153.705 847.987 161.16 849.832 167.82 851.64C184.601 856.194 202.114 858.178 219.254 860.651C233.94 862.769 248.831 865.159 263.617 866.411C279.456 867.711 295.317 868.721 311.192 869.442C314.905 869.609 318.787 870.481 322.434 870.489C325.023 870.494 327.616 870.019 330.203 870.054C333.307 870.096 336.68 871.15 339.93 871.277C366.114 872.301 392.347 873.739 418.529 875.24C423.833 875.545 429.1 874.671 434.403 874.788C438.563 874.881 442.641 875.877 446.898 875.907C451.506 875.94 456.804 875.325 461.291 876.351C465.899 877.405 471.148 876.623 475.91 876.968C484.122 877.563 492.676 879.326 500.867 879.346C505.26 879.357 509.151 877.781 513.694 878.242C512.107 879.279 507.338 878.669 505.293 878.613L505.105 879.146C508.43 880.275 513.948 880.171 517.459 879.999C518.011 879.644 518.285 879.392 518.692 878.853C518.817 878.688 518.932 878.516 519.052 878.348L519.95 878.586C520.126 879.547 520.101 879.246 520.16 880.077C520.173 880.246 520.181 880.415 520.191 880.584C523.185 881.009 526.883 880.301 529.925 880.041C529.951 880.178 530.007 880.313 530.003 880.452C529.994 880.745 529.926 881.033 529.887 881.324C536.019 883.861 579.103 886.131 588.612 886.398C597.512 886.648 634.21 886.518 640.767 884.6L641.081 883.876L638.531 883.57C641.659 882.569 647.541 883.699 650.992 883.633C655.863 883.538 660.707 882.779 665.563 882.434C673.217 881.89 684.347 882.656 691.53 880.339C696.878 878.614 704.61 880.229 710.371 880.11C715.651 880.001 720.908 879.445 726.197 879.376C740.491 879.19 791.809 879.841 801.723 876.157C800.332 876.096 798.625 876.255 797.397 875.539L798.377 875.932L796.784 875.7C798.755 875.319 802.46 874.491 804.317 875.325C805.1 875.677 805.853 876.003 806.74 875.92C807.748 875.825 809.462 875.557 810.111 874.777L807.823 874.6L807.404 873.739C810.424 873.226 813.657 873.868 816.677 874.22L817.08 873.595L815.7 872.677C821.306 872.245 826.908 871.76 832.505 871.224L831.634 871.129C835.903 870.354 840.609 870.464 844.726 869.114C845.844 868.747 846.638 868.535 847.817 868.5C848.528 868.864 849.246 869.227 849.98 869.543C855.244 871.812 873.853 863.073 880.274 861.674C889.932 859.57 899.883 858.495 909.599 856.504C918.243 854.732 926.537 852.032 935.214 850.314C940.487 849.27 946.283 849.222 951.425 847.917C954.619 847.106 957.927 845.337 961.023 844.146C965.944 842.252 970.997 840.71 975.912 838.797C984.335 835.519 1005.17 825.099 1007.85 815.728C1008.93 811.93 1008.31 802.868 1006.42 799.381C1004.44 795.703 990.953 787.822 986.84 786.642C985.631 786.295 984.554 785.774 983.421 785.234L983.285 784.328Z"/>
	<path fill="#3E474B" fill-opacity="0.9137255" d="M319.093 813.312C329.698 816.534 341.251 817.664 352.204 819.158C402.812 826.059 453.42 824.695 504.254 827.381C537.392 829.131 570.279 835.157 603.414 836.293C620.565 836.882 637.957 835.417 655.002 833.563L668.136 831.919C672.692 832.095 678.291 830.654 682.909 830.177L700.074 828.418C706.007 827.289 712.556 827.289 718.585 826.896L718.214 828.374C687.149 830.336 656.357 836.829 625.236 837.688C610.578 838.093 596.135 838.095 581.5 836.891C557.783 834.94 534.336 831.034 510.552 829.626C445.602 825.781 382.513 828.583 318.288 814.944L319.093 813.312Z"/>
	<path fill="#B4E8FA" fill-opacity="0.14117648" d="M215.986 758.6L216.102 759.741C214.728 760.174 213.392 760.626 212.06 761.174C213.495 761.055 215.281 760.69 216.61 761.283C213.939 763.163 200.831 765.627 196.547 767.068C178.361 773.185 161.382 782.033 144.304 790.626C136.3 794.654 129.792 796.73 122.607 803.015C119.268 805.937 114.562 813.88 113.592 818.206C112.842 821.55 116.002 827.859 117.946 830.649C118.924 832.052 120.926 833.492 121.121 835.231C116.986 832.494 112.652 827.903 111.36 823.036C110.308 819.077 111.123 815.209 113.142 811.707C125.614 790.077 191.915 764.795 215.986 758.6Z"/>
	<path fill="#3E474B" fill-opacity="0.90196079" d="M831.217 812.239C831.549 812.663 832.029 813.098 832.127 813.633C804.273 822.779 776.877 824.788 747.845 826.621C738.031 827.241 728.039 828.314 718.214 828.374L718.585 826.896C724.07 824.952 739.765 825.217 746.225 824.817C774.558 823.06 804.235 821.779 831.217 812.239Z"/>
	<path fill="#B4E8FA" fill-opacity="0.13725491" d="M240.555 753.515C249.062 751.117 259.24 750.691 268.035 749.832C280.406 748.652 292.766 747.365 305.114 745.971L371.04 738.259C379.744 737.31 388.45 735.93 397.198 735.498L398.567 735.898C392.036 737.931 375.355 738.808 367.85 739.631C357.898 740.721 347.838 741.801 337.924 743.155C334.984 743.557 332.117 744.485 329.175 744.879C322.164 745.816 286.9 747.697 283.399 750.3C278.347 754.055 271.7 749.878 265.912 751.069C260.972 752.086 244.672 755.196 240.555 753.515Z"/>
	<path fill="#3E474B" fill-opacity="0.88235295" d="M265.836 774.314L267.625 774.742C264.624 777.599 261.787 780.304 261.77 784.779C261.757 788.281 263.784 791.242 266.216 793.585C275.112 802.154 306.674 811.928 319.093 813.312L318.288 814.944C304.084 813.637 272.082 803.497 262.91 792.873C260.783 790.41 259.003 787.25 259.367 783.881C259.788 779.992 262.991 776.725 265.836 774.314Z"/>
	<path fill="#B4E8FA" fill-opacity="0.13333334" d="M884.576 762.929C881.317 764.375 874.623 762.738 870.903 762.613L873.781 763.111C870.83 763.706 837.956 758.533 834.381 757.145C835.465 756.854 836.184 756.761 837.041 755.989L825.28 754.046L825.324 753.42L827.115 753.085L866.833 759.769C872.668 760.777 878.848 761.47 884.576 762.929Z"/>
	<path fill="#3E474B" fill-opacity="0.84705883" d="M849.538 776.742C853.797 779.86 858.262 783.408 859.188 788.961C859.825 792.779 858.435 796.419 856.147 799.434C851.08 806.11 840.212 811.959 832.127 813.633C832.029 813.098 831.549 812.663 831.217 812.239C838.952 809.102 848.329 805.545 854.043 799.234C856.293 796.75 857.981 793.731 857.675 790.275C857.165 784.523 852.239 780.711 848.037 777.441L849.538 776.742Z"/>
	<path fill="#B4E8FA" fill-opacity="0.14117648" d="M456.939 730.527C459.481 730.24 467.957 729.716 469.901 730.518C454.238 731.084 438.501 732.92 422.946 734.798C420.116 735.202 415.45 736.183 412.726 735.602C425.616 731.075 443.2 731.513 456.939 730.527Z"/>
	<path fill="#B4E8FA" fill-opacity="0.15294118" d="M657.978 739.972C669.331 738.163 685.279 738.587 696.949 739.208L696.506 740.091C694.888 740.279 693.337 740.335 691.709 740.327C680.539 739.465 669.206 740.808 657.978 739.972Z"/>
	<path fill="#B4E8FA" fill-opacity="0.21176471" d="M734.605 745.189C740.27 746.743 746.115 747.577 751.901 748.556L750.717 750.828C750.826 751.042 750.94 751.255 751.046 751.471C751.351 752.095 751.516 752.536 751.648 753.202C746.7 749.474 739.991 748.297 734.605 745.189Z"/>
	<path fill="#B4E8FA" fill-opacity="0.51764709" d="M682.909 830.177L683.006 829.389C685.879 828.158 689.9 827.939 692.993 827.489C695.88 827.069 697.628 826.584 700.074 828.418L682.909 830.177Z"/>
	<path fill="#A2C4CE" fill-opacity="0.27058825" d="M696.949 739.208C700.704 739.575 710.506 738.711 713.023 739.381L711.31 739.968C707.981 741.719 695.498 741.407 691.709 740.327C693.337 740.335 694.888 740.279 696.506 740.091L696.949 739.208Z"/>
	<path fill="#B4E8FA" fill-opacity="0.21960784" d="M388.363 741.234C384.601 743.105 380.223 744.671 376.782 747.031C376.262 745.964 375.42 745.245 374.971 744.11C379.458 743.264 383.924 742.305 388.363 741.234Z"/>
	<path fill="#B4E8FA" fill-opacity="0.52549022" d="M655.002 833.563C655.338 832.424 655.426 832.58 656.422 832.004C660.198 829.82 664.176 830.908 668.136 831.919L655.002 833.563Z"/>
</svg>
