<?xml version="1.0" encoding="utf-8" ?>
<svg xmlns="http://www.w3.org/2000/svg" xmlns:xlink="http://www.w3.org/1999/xlink" width="1134" height="950">
	<path d="M444.446 80.8692C450.902 71.7585 457.917 63.1887 465.99 55.4561C489.511 32.9293 518.42 20.0205 551.318 20.7512C564.136 21.0189 576.842 23.1975 589.017 27.215C594.388 29.014 599.579 31.3336 604.949 33.116C610.723 35.0322 616.766 36.1068 622.579 37.9103C639.265 43.0491 654.359 52.371 666.424 64.989C686.949 86.6647 698.033 120.989 697.071 150.627C696.425 170.543 690.012 185.843 675.552 199.423C677.112 200.399 678.771 201.4 680.149 202.628C684.22 206.26 686.354 211.482 686.63 216.858C687.105 226.131 683.665 233.837 677.613 240.625C678.211 260.892 679.002 285.927 669.594 304.492C666.532 310.533 661.22 315.761 657.068 321.079C657.044 322.638 658.466 323.833 659.574 324.846C665.573 330.333 672.734 334.904 679.161 339.912C692.714 350.676 706.345 361.342 720.053 371.909C725.172 375.84 737.806 383.955 740.561 388.774C741.6 390.591 741.769 392.887 741.169 394.881C740 398.768 723.712 406.232 719.492 408.466C743.817 430.934 770.672 450.72 795.212 472.939C802.224 479.289 807.764 487.326 808.125 497.064C808.362 503.468 806.039 507.963 801.781 512.512C800.571 513.554 799.349 514.578 798.218 515.706C786.263 526.618 776.74 541.185 763.66 550.731C762.096 551.72 761.025 552.48 759.942 553.994L759.908 554.286C754.363 556.844 748.674 560.366 742.414 558.01C723.551 550.908 680.44 486.936 666.937 467.461C664.202 470.94 661.322 474.369 658.738 477.959C672.339 523.576 687.121 568.939 701.42 614.347L713.416 652.333C715.839 659.946 718.731 667.687 720.391 675.498C721.224 679.42 722.381 685.206 720.127 688.811C718.928 690.726 716.199 691.068 714.119 691.391C706.689 692.546 698.819 692.642 691.309 693.097C679.325 693.823 667.275 694.667 655.27 694.916L665.248 808.835L667.38 832.751C668.275 841.861 670.83 851.907 668.85 860.969C674.418 863.661 679.901 866.501 685.501 869.133C700.479 876.175 717.327 883.428 723.137 900.452C725.047 906.049 725.352 912.383 722.62 917.773C721.131 920.711 718.655 923.226 715.403 924.097C706.827 926.395 667.974 925.122 656.823 925.12C643.316 925.118 625.357 926.092 612.296 924.859C610 924.642 607.751 924.004 605.797 922.746C602.791 920.81 600.468 917.323 599.856 913.8C598.736 907.352 598.559 867.839 600.212 862.448C600.104 860.154 599.506 857.837 599.374 855.51C598.176 834.537 596.367 813.698 594.529 792.771C593.174 777.332 592.659 761.196 590.112 745.931C588.212 744.638 586.293 743.137 585.075 741.154C581.837 735.883 580.123 729.081 578.109 723.244L568.951 696.56C561.116 695.756 553.104 695.945 545.23 695.853C532.883 750.751 519.738 805.521 508.658 860.674C527.806 871.1 556.611 878.373 563.445 901.912C565.015 907.321 565.517 912.962 562.558 918.048C560.862 920.962 557.853 923.69 554.474 924.364C547.613 925.731 539.807 925.11 532.806 925.101L501.252 925.106L469.528 925.099C463.833 925.094 457.934 925.422 452.276 924.857C449.599 924.589 447.012 923.692 444.844 922.069C441.127 919.286 439.875 914.428 439.399 910.022C438.554 902.208 439.103 893.861 439.124 885.978C439.144 878.799 438.698 871.237 439.43 864.119C440.036 858.704 438.647 853.196 439.455 847.691C440.234 842.374 442.17 837.06 443.493 831.848C445.759 822.924 447.704 813.906 449.732 804.925L475.17 692.605C469.959 691.715 464.463 691.548 459.19 691.081C449.833 690.288 440.493 689.312 431.174 688.154C426.533 687.578 421.596 687.19 417.074 685.955C411.617 684.465 408.574 682.346 405.826 677.425C405.568 666.033 412.081 650.53 415.24 639.369L437.361 563.021C438.831 558.026 443.65 545.001 443.565 540.573C442.588 540.669 441.604 540.755 440.623 540.798C427.802 541.361 403.289 523.446 393.565 514.867C379.237 502.226 363.169 484.796 362.054 464.823C360.568 438.212 392.022 412.707 408.418 394.355C405.318 393.35 401.911 392.353 399.56 389.985C397.972 388.387 396.928 386.382 396.975 384.09C397.127 376.519 412.753 365.298 418.305 359.978C416.436 357.634 415.029 355.281 414.471 352.295C413.135 345.159 416.576 339.338 420.427 333.711C418.101 334.194 415.658 334.666 413.288 334.802C408.287 335.089 402.93 333.813 399.232 330.277C396.56 327.727 395.08 324.175 395.15 320.483C395.183 316.672 396.822 313.053 399.664 310.514C405.135 305.579 412.004 305.873 418.833 306.282C416.483 303.787 414.278 301.03 412.886 297.873C410.911 293.391 410.3 288.298 412.225 283.68C413.511 280.592 415.874 278.034 419.055 276.878C424.174 275.018 428.675 276.623 433.335 278.73C433.369 278.611 433.401 278.492 433.436 278.375L433.615 277.787C435.685 270.777 439.375 264.474 442.087 257.721C444.403 251.951 445.804 246.036 448.731 240.498C443.732 238.44 439.43 234.981 436.642 230.323C431.718 222.096 432.378 212.268 434.548 203.307C429.292 208.058 423.548 212.384 416.542 214.076C409.938 215.671 403.158 214.661 397.401 211.027C391.611 207.328 387.529 201.48 386.053 194.771C384.556 188.178 385.793 181.259 389.484 175.593C394.361 168.18 402.289 164.239 410.739 162.407C405.121 160.358 400.054 158.085 395.051 154.784C388.669 163.915 384.401 173.195 383.8 184.472C383.03 198.907 389.06 215.52 402.928 222.023C410.491 225.569 417.196 226.106 423.062 232.792C424.62 234.569 426.469 236.721 426.247 239.21C425.928 242.769 425.081 250.076 422.09 252.381C421.212 253.058 420.078 253.385 418.962 253.199C414.953 252.529 409.971 246.821 407.916 243.456C405.86 240.087 408.782 233.118 409.766 229.597C395.344 228.258 381.3 225.255 369.273 216.72C358.995 209.426 352.544 199.071 350.49 186.635C347.043 165.773 355.084 143.859 367.13 127.069C387.016 99.355 410.931 86.3508 444.446 80.8692ZM662.545 245.31C659.212 253.188 655.644 259.551 649.883 265.962L655.24 311.187L655.587 313.085C656.845 313.197 657.413 312.739 658.317 311.908C671.338 299.95 673.247 270.725 673.209 253.982C673.203 250.982 673.688 246.072 672.681 243.333C669.335 244.221 665.96 244.761 662.545 245.31Z"/>
	<path fill="#5F0038" d="M668.85 860.969C674.418 863.661 679.901 866.501 685.501 869.133C700.479 876.175 717.327 883.428 723.137 900.452C725.047 906.049 725.352 912.383 722.62 917.773C721.131 920.711 718.655 923.226 715.403 924.097C706.827 926.395 667.974 925.122 656.823 925.12C643.316 925.118 625.357 926.092 612.296 924.859C610 924.642 607.751 924.004 605.797 922.746C602.791 920.81 600.468 917.323 599.856 913.8C598.736 907.352 598.559 867.839 600.212 862.448L604.282 871.345C608.55 878.01 614.104 883.097 621.527 886.054C630.296 889.518 640.088 889.333 648.72 885.541C657.958 881.506 663.894 874.323 667.571 865.117L668.85 860.969Z"/>
	<path fill="#5F0038" d="M667.571 865.117C671.957 867.374 676.316 869.691 680.849 871.643L686.273 874.5C692.177 877.064 698.116 879.677 703.575 883.113L707.659 886.49C713.435 890.825 717.164 897.135 719.583 903.824L603.545 903.898C603.712 896.917 602.189 876.467 604.282 871.345C608.55 878.01 614.104 883.097 621.527 886.054C630.296 889.518 640.088 889.333 648.72 885.541C657.958 881.506 663.894 874.323 667.571 865.117Z"/>
	<path fill="#FEFEFE" d="M680.849 871.643L686.273 874.5C692.177 877.064 698.116 879.677 703.575 883.113L707.659 886.49C707.084 888.058 706.182 889.863 705.141 891.166C703.91 892.707 702.234 893.348 700.315 893.548C692.758 894.335 682.382 888.011 676.728 883.471C677.988 882.146 679.447 880.762 680.433 879.221C682.029 876.723 681.413 874.329 680.849 871.643Z"/>
	<path fill="#5F0038" d="M686.273 874.5C692.177 877.064 698.116 879.677 703.575 883.113C703.412 884.213 703.284 885.515 702.863 886.547C702.334 887.843 701.303 888.722 699.946 889.05C695.096 890.223 687.397 885.272 683.335 883.074C685.088 880.303 685.74 877.676 686.273 874.5Z"/>
	<path fill="#231917" d="M668.85 860.969C674.418 863.661 679.901 866.501 685.501 869.133C700.479 876.175 717.327 883.428 723.137 900.452C725.047 906.049 725.352 912.383 722.62 917.773C721.131 920.711 718.655 923.226 715.403 924.097C706.827 926.395 667.974 925.122 656.823 925.12C643.316 925.118 625.357 926.092 612.296 924.859C610 924.642 607.751 924.004 605.797 922.746C602.791 920.81 600.468 917.323 599.856 913.8C598.736 907.352 598.559 867.839 600.212 862.448L604.282 871.345C602.189 876.467 603.712 896.917 603.545 903.898L603.427 908.084C603.419 909.477 603.48 910.827 603.786 912.193C604.413 914.993 606.146 917.592 608.636 919.053C610.72 920.275 613.045 920.456 615.407 920.605C632.191 921.667 649.571 920.801 666.415 920.8C675.444 920.799 706.624 921.925 713.263 920.031C715.552 919.378 717.805 916.862 718.941 914.873C720.191 912.685 720.741 909.388 720.142 906.926L719.583 903.824C717.164 897.135 713.435 890.825 707.659 886.49L703.575 883.113C698.116 879.677 692.177 877.064 686.273 874.5L680.849 871.643C676.316 869.691 671.957 867.374 667.571 865.117L668.85 860.969Z"/>
	<path fill="#FEFEFE" d="M603.545 903.898L719.583 903.824L720.142 906.926L719.494 908.267C715.32 908.598 711.02 908.181 706.83 908.126C699.337 908.027 691.834 908.09 684.34 908.087L603.427 908.084L603.545 903.898Z"/>
	<path fill="#5F0038" d="M508.658 860.674C527.806 871.1 556.611 878.373 563.445 901.912C565.015 907.321 565.517 912.962 562.558 918.048C560.862 920.962 557.853 923.69 554.474 924.364C547.613 925.731 539.807 925.11 532.806 925.101L501.252 925.106L469.528 925.099C463.833 925.094 457.934 925.422 452.276 924.857C449.599 924.589 447.012 923.692 444.844 922.069C441.127 919.286 439.875 914.428 439.399 910.022C438.554 902.208 439.103 893.861 439.124 885.978C439.144 878.799 438.698 871.237 439.43 864.119C441 866.257 443.07 869.406 443.75 871.978C447.963 878.105 453 883.063 459.885 886.094C468.481 889.822 478.203 889.995 486.926 886.575C497.175 882.553 503.225 874.864 507.443 865.006L508.658 860.674Z"/>
	<path fill="#5F0038" d="M507.443 865.006C511.86 867.333 516.237 869.686 520.841 871.629L526.27 874.459C532.142 877.013 538.225 879.572 543.584 883.1L547.655 886.468C553.46 890.767 557.132 897.168 559.606 903.815L443.448 903.852C443.429 893.416 442.627 882.309 443.75 871.978C447.963 878.105 453 883.063 459.885 886.094C468.481 889.822 478.203 889.995 486.926 886.575C497.175 882.553 503.225 874.864 507.443 865.006Z"/>
	<path fill="#FEFEFE" d="M520.841 871.629L526.27 874.459C532.142 877.013 538.225 879.572 543.584 883.1L547.655 886.468C547.022 888.156 546.197 889.824 545.076 891.247C543.709 892.981 541.559 893.53 539.443 893.594C532.269 893.812 521.936 888.087 516.783 883.337C518.016 882.058 519.441 880.73 520.42 879.244C522.066 876.746 521.426 874.325 520.841 871.629Z"/>
	<path fill="#5F0038" d="M526.27 874.459C532.142 877.013 538.225 879.572 543.584 883.1C543.418 884.189 543.296 885.438 542.902 886.465C542.421 887.715 541.433 888.656 540.139 889.01C535.28 890.336 527.415 885.286 523.34 883.073C525.106 880.282 525.749 877.661 526.27 874.459Z"/>
	<path fill="#231917" d="M508.658 860.674C527.806 871.1 556.611 878.373 563.445 901.912C565.015 907.321 565.517 912.962 562.558 918.048C560.862 920.962 557.853 923.69 554.474 924.364C547.613 925.731 539.807 925.11 532.806 925.101L501.252 925.106L469.528 925.099C463.833 925.094 457.934 925.422 452.276 924.857C449.599 924.589 447.012 923.692 444.844 922.069C441.127 919.286 439.875 914.428 439.399 910.022C438.554 902.208 439.103 893.861 439.124 885.978C439.144 878.799 438.698 871.237 439.43 864.119C441 866.257 443.07 869.406 443.75 871.978C442.627 882.309 443.429 893.416 443.448 903.852L443.428 908.095C443.446 909.143 443.461 910.213 443.609 911.252C444.089 914.608 445.917 917.189 448.643 919.12C450.136 920.178 451.685 920.4 453.453 920.528C460.894 921.063 468.482 920.792 475.943 920.796L513.159 920.799C521.996 920.796 545.672 921.867 552.866 920.169C555.322 919.589 557.457 917.321 558.728 915.237C560.152 912.901 560.804 909.6 560.128 906.928L559.606 903.815C557.132 897.168 553.46 890.767 547.655 886.468L543.584 883.1C538.225 879.572 532.142 877.013 526.27 874.459L520.841 871.629C516.237 869.686 511.86 867.333 507.443 865.006L508.658 860.674Z"/>
	<path fill="#FEFEFE" d="M443.448 903.852L559.606 903.815L560.128 906.928L559.479 908.281C555.294 908.577 551.005 908.18 546.808 908.126C539.196 908.027 531.575 908.09 523.962 908.087L443.428 908.095L443.448 903.852Z"/>
	<path fill="#FEBFC6" d="M450.959 80.4271C471.813 52.9508 498.048 31.6504 533.359 26.7512C551.844 24.3205 570.641 26.1976 588.28 32.2356C593.94 34.1456 599.343 36.7956 605.025 38.6211C609.739 40.1358 614.709 40.9502 619.498 42.2388C630.905 45.3082 641.808 50.9543 651.174 58.1145C674.887 76.2431 687.432 104.49 691.173 133.538C693.538 151.895 691.917 171.887 680.277 187.052C677.392 190.811 674.097 193.877 670.355 196.761C671.61 193.052 673.025 189.463 674.569 185.865L673.4 180.427C674.861 179.574 676.299 179.512 677.432 178.228C677.282 176.927 677.129 176.378 676.016 175.582C671.68 172.48 662.408 169.531 657.139 166.87C632.238 154.295 608.449 139.171 594.491 114.123C597.814 107.333 604.871 93.7925 606.16 86.5903C606.415 85.1632 606.098 83.6777 605.724 82.3023L604.764 81.2143C603.477 81.486 602.801 81.6883 602.133 82.9134C598.918 88.8028 597.222 96.6251 594.203 102.929C584.111 124.005 570.832 142.897 551.862 156.881C549.138 158.889 545.63 161.885 542.481 163.048C542.004 163.224 541.762 163.176 541.306 163.151C540.736 161.338 540.891 159.598 540.665 157.744C540.237 156.25 540.338 155.081 540.491 153.546C540.4 140.571 535.66 126.531 528.578 115.72C516.921 97.9275 497.84 86.9582 477.323 82.639L470.401 81.4315C463.946 80.7153 457.454 80.3799 450.959 80.4271Z"/>
	<path fill="#FEE7DF" d="M470.401 81.4315C469.572 79.9575 468.914 79.1692 469.378 77.3886C471.948 67.5314 498.276 49.1974 507.682 44.5765C536.383 30.4771 566.234 31.1749 595.844 41.5186C600.111 43.0091 606.938 44.791 609.281 48.8992C609.545 50.3968 609.694 51.4391 608.856 52.8281C607.992 54.2597 606.048 55.1058 604.467 55.3478C600.459 55.9609 590.513 50.655 585.624 49.1267C553.808 39.1808 520.301 44.6929 494.215 65.848C487.947 70.9318 483.229 77.2886 477.323 82.639L470.401 81.4315Z"/>
	<path fill="#231917" d="M540.491 153.546C544.547 146.783 548.444 141.922 556.461 139.89C559.283 139.175 562.406 138.179 565.326 138.505C566.572 139.295 566.548 139.278 566.968 140.693C565.681 143.076 562.923 143.521 560.477 144.257C557.897 145.032 554.257 145.545 552.018 147.012C548.786 149.129 545.795 157.525 542.934 158.069C542.427 158.166 541.227 157.824 540.665 157.744C540.237 156.25 540.338 155.081 540.491 153.546Z"/>
	<path fill="#FEE7DF" d="M622.969 50.8667C624.355 50.77 625.601 50.7406 626.949 51.135C630.679 52.2265 633.87 54.7503 637.024 56.9151C651.532 66.6652 663.432 79.8191 671.683 95.2277C679.436 109.527 683.579 124.779 685.306 140.899C685.733 144.882 686.527 149.525 685.217 153.395C684.481 155.567 683.07 156.278 681.118 157.292C679.189 157.326 676.902 157.161 675.355 155.863C672.399 153.382 673.17 144.306 672.93 140.504C671.268 114.21 657.434 88.5634 637.122 72.0027C631.295 67.2522 624.112 64.0638 618.532 59.1352C618.357 58.3297 618.121 57.4741 618.267 56.6432C618.717 54.0802 620.986 52.2665 622.969 50.8667Z"/>
	<path fill="#231917" d="M638.892 140.044C644.715 139.888 649.754 140.262 654.973 143.084C658.765 145.134 663.153 148.516 664.299 152.834C664.913 155.148 664.861 156.191 663.661 158.156C659.859 157 657.623 149.598 653.873 146.929C649.731 143.981 643.993 145.303 639.385 143.47C638.376 142.022 638.665 141.736 638.892 140.044Z"/>
	<path fill="#FEE7DF" d="M590.994 120.163C605.805 141.149 624.552 155.183 646.913 167.316C654.491 171.428 662.299 175.529 670.382 178.565C666.143 192.898 665.461 207.491 662.536 222.017C659.894 238.082 656.524 252.953 644.007 264.387C622.276 281.831 595.62 288.422 568.104 285.372C554.509 283.865 541.871 280.038 529.151 275.146C527.245 274.413 523.736 273.655 522.564 271.917C522.144 271.294 522.169 271.248 521.961 270.619L523.127 267.679C523.601 265.745 523.9 263.616 523.885 261.621C523.808 251.067 516.322 243.454 509.304 236.534C514.312 230.05 518.548 222.835 522.827 215.861C527.974 206.614 533.466 197.072 537.167 187.123C538.734 182.908 538.802 173.962 541.19 170.805C543.046 168.353 550.1 165.595 552.893 163.292C568.239 150.636 580.704 137.191 590.994 120.163Z"/>
	<path fill="#FFDDC7" d="M522.827 215.861C523.043 216.011 523.254 216.167 523.475 216.31C525.317 217.498 528.798 217.425 530.967 217.823C541.116 219.686 548.827 226.329 551.44 236.429C553.115 242.969 552.076 249.907 548.559 255.669C545.002 261.612 539.182 265.854 532.435 267.422C529.301 268.155 526.294 267.916 523.127 267.679C523.601 265.745 523.9 263.616 523.885 261.621C523.808 251.067 516.322 243.454 509.304 236.534C514.312 230.05 518.548 222.835 522.827 215.861Z"/>
	<path fill="#FFDDC7" d="M644.007 264.387C643.568 263.229 642.87 262.223 642.237 261.164C638.167 254.35 636.538 247.949 638.604 240.124C640.371 233.433 644.779 227.389 650.874 224.012C654.416 222.049 658.567 220.951 662.536 222.017C659.894 238.082 656.524 252.953 644.007 264.387Z"/>
	<path d="M556.044 175.002C557.749 174.898 559.471 174.751 561.118 175.303C564.424 176.413 566.985 179.133 568.501 182.202C571.497 188.267 571.671 196.524 569.598 202.895C567.99 207.836 565.456 210.901 560.846 213.201C559.34 213.333 557.835 213.462 556.361 213.039C553.065 212.093 550.346 209.475 548.754 206.51C545.577 200.589 545.199 192.604 547.077 186.228C548.638 180.931 551.264 177.642 556.044 175.002Z"/>
	<path d="M632.417 174.967C633.955 174.872 635.481 174.799 636.983 175.22C640.208 176.123 642.815 178.724 644.377 181.605C647.629 187.605 647.862 196.015 645.908 202.46C644.398 207.441 641.879 210.709 637.285 213.144C635.624 213.319 633.999 213.494 632.376 212.987C629.034 211.941 626.405 209.25 624.816 206.209C621.644 200.135 621.385 191.898 623.488 185.45C625.138 180.392 627.789 177.365 632.417 174.967Z"/>
	<path fill="#231917" d="M613.869 233.435C615.117 233.531 615.919 233.74 617.054 234.269C618.012 235.679 618.087 237.006 617.842 238.66C617.17 243.191 613.785 247.672 610.064 250.204C605.73 253.154 600.006 254.097 594.911 252.911C588.961 251.526 584.982 247.545 581.905 242.524C580.738 239.676 580.253 238.045 581.315 235.118C582.108 234.77 582.097 234.559 582.978 234.93C585.541 236.011 585.982 238.692 587.07 240.991C588.561 244.14 592.187 246.801 595.417 247.896C598.875 249.05 602.661 248.672 605.823 246.857C611.182 243.848 612.44 238.936 613.869 233.435Z"/>
	<path fill="#FE8F9F" d="M529.09 471.282C538.744 470.426 548.704 469.052 558.393 469.159C572.837 469.32 591.219 472.43 605.941 474.067C621.611 475.81 639.333 476.76 654.663 479.611L685.899 579.124C691.221 596.078 696.099 613.353 701.963 630.118C693.373 630.627 684.63 631.058 676.024 631.033L651.976 555.901C648.42 544.772 645.516 532.354 641.09 521.661C640.071 519.2 638.907 517.073 636.728 515.479C635.812 515.332 635.453 515.051 634.625 515.57C633.462 516.298 632.72 517.854 632.489 519.166C631.374 525.481 632.788 542.521 632.912 549.899L634.269 633.285L574.49 633.283C570.681 620.018 565.854 606.293 563.698 592.673C562.52 585.233 562.741 577.203 562.454 569.663L560.876 528.667C560.718 524.574 561.468 513.103 557.532 511.135C555.852 510.295 554.229 510.444 552.485 510.907C551.528 508.177 551.541 505.227 549.928 502.68C548.268 500.06 545.109 499.669 542.323 499.099C545.074 498.587 547.702 498.172 549.789 496.145C552.392 493.616 553.673 489.993 553.592 486.403C553.532 483.738 552.674 481.158 550.682 479.315C546.126 475.098 536.439 476.98 530.785 477.195L529.09 471.282Z"/>
	<path fill="#763E3D" d="M451.68 84.9362C470.803 83.5282 492.07 88.992 507.686 100.196C523.315 111.408 532.725 128.085 535.678 146.973C537.428 158.163 537.17 170.395 534.253 181.374C528.968 201.264 512.189 225.337 500.083 241.895C487.072 237.364 476.541 237.81 463.377 241.195C468.59 236.934 473.047 231.176 476.832 225.655C487.999 209.367 494.037 189.254 490.249 169.566C487.279 154.134 478.957 141.977 465.977 133.292C458.004 128.524 448.805 126.204 439.524 126.622C422.009 127.391 405.073 137.32 393.569 150.198C383.686 161.252 378.637 175.801 379.549 190.601C380.474 204.539 386.367 214.58 396.742 223.604C386.489 221.122 376.677 217.727 368.546 210.762C359.666 203.156 354.968 192.63 354.13 181.061C352.52 158.827 363.257 137.267 377.557 120.91C397.662 97.9124 421.321 87.0129 451.68 84.9362Z"/>
	<path fill="#650004" d="M499.036 171.939C500.003 172.089 500.74 172.379 501.63 172.78C502.384 173.721 502.761 174.499 502.836 175.699C503.015 178.561 502.453 181.796 502.158 184.656C500.262 203.014 493.313 220.439 481.093 234.4C479.662 233.945 479.415 233.842 478.417 232.732C478.367 231.704 478.566 231.065 479.066 230.191C480.6 227.505 482.962 225.319 484.702 222.761C486.73 219.782 488.353 216.16 489.947 212.915C493.876 204.918 497.07 195.202 497.79 186.282C498.151 181.812 497.533 176.128 499.036 171.939Z"/>
	<path fill="#FE8F9F" d="M715.518 410.24C741.069 431.333 766.105 453.12 791.415 474.506L794.875 477.625C799.81 482.963 804.027 489.336 803.922 496.908C803.884 499.702 803.318 501.856 801.808 504.197C798.3 509.634 792.582 513.981 788.131 518.651C780.473 526.687 773.333 535.316 765.173 542.856C760.549 547.128 751.918 554.719 745.141 554.66C740.091 554.617 734.143 547.948 730.732 544.627L727.38 541.078C708.334 521.683 685 487.493 669.413 464.303L672.616 460.509L668.741 427.392C684.926 423.765 700.405 416.917 715.518 410.24Z"/>
	<path fill="#FE8F9F" d="M727.38 541.078C752.099 526.339 771.891 495.599 791.415 474.506L794.875 477.625C799.81 482.963 804.027 489.336 803.922 496.908C803.884 499.702 803.318 501.856 801.808 504.197C798.3 509.634 792.582 513.981 788.131 518.651C780.473 526.687 773.333 535.316 765.173 542.856C760.549 547.128 751.918 554.719 745.141 554.66C740.091 554.617 734.143 547.948 730.732 544.627L727.38 541.078Z"/>
	<path fill="#FEFEFE" d="M727.38 541.078C752.099 526.339 771.891 495.599 791.415 474.506L794.875 477.625C785.669 492.181 745.208 537.632 730.732 544.627L727.38 541.078Z"/>
	<path fill="#FE8F9F" d="M412.967 395.985C431.649 403.092 450.819 409.019 469.984 414.664C473.858 423.927 477.129 433.977 480.086 443.581C477.402 441.228 474.327 438.862 471.226 437.095C465.264 433.7 414.316 415.554 410.926 416.733C409.937 417.077 410.094 417.14 409.65 417.953C410.583 419.674 412.59 420.5 414.318 421.268C420.041 423.81 426.438 425.473 432.399 427.428C442.606 430.74 452.748 434.249 462.819 437.952L465.965 439.397C472.129 442.552 477.404 445.307 479.688 452.39C480.977 456.388 481.115 461.018 481.34 465.183L481.257 470.921C473.175 473.624 466.979 477.974 463.086 485.764C459.495 492.95 458.881 502.112 461.491 509.723C462.214 511.831 463.192 513.917 464.24 515.882C458.75 522.807 449.635 535.241 440.309 536.013C435.741 536.391 427.782 533.798 424.283 530.725L422.004 529.933C418.995 527.542 415.249 525.638 412.006 523.525C406.034 519.627 400.379 515.263 395.095 510.473C382.274 498.792 366.939 482.025 366.226 463.899C365.307 440.544 397.755 412.22 412.967 395.985Z"/>
	<path fill="#FE8F9F" d="M465.965 439.397C472.129 442.552 477.404 445.307 479.688 452.39C480.977 456.388 481.115 461.018 481.34 465.183L481.257 470.921C473.175 473.624 466.979 477.974 463.086 485.764C459.495 492.95 458.881 502.112 461.491 509.723C462.214 511.831 463.192 513.917 464.24 515.882C458.75 522.807 449.635 535.241 440.309 536.013C435.741 536.391 427.782 533.798 424.283 530.725C430.142 526.045 456.611 467.541 460.364 457.969C462.736 451.919 464.999 445.852 465.965 439.397Z"/>
	<path fill="#FEFEFE" d="M462.819 437.952L465.965 439.397C464.999 445.852 462.736 451.919 460.364 457.969C456.611 467.541 430.142 526.045 424.283 530.725L422.004 529.933C422.557 525.29 442.401 488.563 446.37 480.061C450.548 471.114 454.733 462.082 458.13 452.807C459.863 448.075 460.702 442.984 462.646 438.35C462.702 438.217 462.761 438.085 462.819 437.952Z"/>
	<path fill="#FEBFC6" d="M638.481 637.284C638.955 599.271 636.428 561.212 636.867 523.2C645.173 548.602 653.342 574.049 661.374 599.539C664.466 609.222 668.568 626.193 673.444 634.553C676.998 636.523 697.935 634.588 703.276 634.465C707.119 646.798 710.713 659.293 715.011 671.472L715.729 674.456C716.671 677.466 718.055 682.867 716.616 685.825C716.239 686.6 715.676 686.864 714.85 687.042C706.467 688.847 694.259 688.636 685.276 689.176C653.902 691.064 622.22 692.487 590.791 692.035L586.943 678.021L585.964 674.736C582.709 662.289 579.047 649.922 575.571 637.533C596.396 637.551 617.716 638.519 638.481 637.284Z"/>
	<path fill="#FEBFC6" d="M715.729 674.456C716.671 677.466 718.055 682.867 716.616 685.825C716.239 686.6 715.676 686.864 714.85 687.042C706.467 688.847 694.259 688.636 685.276 689.176C653.902 691.064 622.22 692.487 590.791 692.035L586.943 678.021C615.688 678.265 644.596 677.445 673.344 676.852L700.788 676.166C704.846 676.049 709.354 676.294 713.355 675.694C714.747 675.485 714.885 675.583 715.729 674.456Z"/>
	<path fill="#FEFEFE" d="M585.964 674.736C586.063 674.603 586.143 674.455 586.26 674.339C587.323 673.278 592.819 673.637 594.361 673.595C610.123 673.169 625.917 673.337 641.687 673.126C666.132 672.744 690.574 672.192 715.011 671.472L715.729 674.456C714.885 675.583 714.747 675.485 713.355 675.694C709.354 676.294 704.846 676.049 700.788 676.166L673.344 676.852C644.596 677.445 615.688 678.265 586.943 678.021L585.964 674.736Z"/>
	<path fill="#FEBFC6" d="M422.322 629.96C441.569 630.325 460.868 631.633 480.099 632.536C488.247 632.918 502.901 634.878 510.321 632.934C515.256 627.421 525.555 592.56 529.215 583.625C539.888 613.624 549.693 644.082 560.945 673.855L561.821 676.662C563.895 681.615 565.475 686.93 567.265 692.004C528.589 691.639 489.943 689.67 451.43 686.101C440.526 685.015 428.374 684.506 417.843 681.732C415.066 681.001 412.198 679.982 410.807 677.261C408.861 673.453 411.089 668.284 412.213 664.472L413.422 660.511C416.533 650.37 419.5 640.185 422.322 629.96Z"/>
	<path fill="#FEBFC6" d="M413.422 660.511C438.86 670.98 499.734 672.04 529.382 672.795C539.715 673.059 550.752 672.435 560.945 673.855L561.821 676.662C563.895 681.615 565.475 686.93 567.265 692.004C528.589 691.639 489.943 689.67 451.43 686.101C440.526 685.015 428.374 684.506 417.843 681.732C415.066 681.001 412.198 679.982 410.807 677.261C408.861 673.453 411.089 668.284 412.213 664.472L413.422 660.511Z"/>
	<path fill="#FEFEFE" d="M413.422 660.511C438.86 670.98 499.734 672.04 529.382 672.795C539.715 673.059 550.752 672.435 560.945 673.855L561.821 676.662C561.235 677.315 561.55 677.133 560.691 677.393C555.892 678.844 542.034 677.481 536.688 677.342C511.622 676.693 430.93 674.999 412.213 664.472L413.422 660.511Z"/>
	<path fill="#FEFEFE" d="M654.272 326.5C663.388 332.941 672.096 340.078 680.91 346.928L726.291 382.214L730.196 385.268C731.81 386.462 733.516 387.641 735.018 388.97C736.205 390.02 737 390.906 737.132 392.54C732.513 400.486 686.676 417.725 675.871 420.993C663.735 424.663 646.175 429.944 634.36 423.47C614.655 412.673 596.855 368.268 590.716 347.509L598.788 344.699L602.614 343.633C619.71 337.879 636.914 331.335 654.272 326.5Z"/>
	<path fill="#FEFEFE" d="M602.614 343.633C609.566 360.198 624.695 404.643 641.816 411.417C655.383 416.785 693.839 398.078 706.845 391.991C713.39 388.927 720.059 385.885 726.291 382.214L730.196 385.268C731.81 386.462 733.516 387.641 735.018 388.97C736.205 390.02 737 390.906 737.132 392.54C732.513 400.486 686.676 417.725 675.871 420.993C663.735 424.663 646.175 429.944 634.36 423.47C614.655 412.673 596.855 368.268 590.716 347.509L598.788 344.699L602.614 343.633Z"/>
	<path fill="#FE8F9F" d="M602.614 343.633C609.566 360.198 624.695 404.643 641.816 411.417C655.383 416.785 693.839 398.078 706.845 391.991C713.39 388.927 720.059 385.885 726.291 382.214L730.196 385.268C711.712 394.564 692.934 403.901 673.369 410.722C663.169 414.278 648.824 419.745 638.48 414.585C621.327 406.028 604.66 362.308 598.788 344.699L602.614 343.633Z"/>
	<path fill="#FE8F9F" d="M515.977 424.533C531.017 425.548 542.066 425.152 553.983 414.8C569.507 401.315 583.103 373.472 587.879 353.526C596.274 375.533 611.433 417.84 634.066 428.218C643.383 432.49 654.93 430.501 664.574 428.414C665.762 438.649 666.86 448.905 668.162 459.125L655.291 475.171L608.618 470.068C600.295 469.152 591.822 468.536 583.558 467.227L588.748 466.171C592.902 465.955 609.976 465.765 612.168 463.47C612.376 462.171 612.595 461.877 611.968 460.744C608.45 459.509 536.914 466.251 527.92 467.027L515.977 424.533Z"/>
	<path fill="#231917" d="M586.859 416.037C592.831 414.454 598.959 417.993 600.573 423.956C602.187 429.918 598.68 436.064 592.724 437.708C586.725 439.365 580.523 435.827 578.897 429.82C577.271 423.813 580.843 417.631 586.859 416.037Z"/>
	<path fill="#FEFEFE" d="M588.931 419.985C592.735 419.553 596.169 422.281 596.61 426.082C597.051 429.884 594.331 433.325 590.53 433.775C586.716 434.226 583.26 431.495 582.818 427.681C582.376 423.867 585.115 420.418 588.931 419.985Z"/>
	<path fill="#231917" d="M587.237 381.152C591.216 380.248 595.372 381.574 598.093 384.615C600.813 387.656 601.669 391.933 600.328 395.786C598.987 399.639 595.661 402.461 591.641 403.158C585.644 404.196 579.911 400.267 578.717 394.3C577.522 388.333 581.302 382.501 587.237 381.152Z"/>
	<path fill="#FEFEFE" d="M589.385 385.157C593.122 384.98 596.327 387.794 596.635 391.521C596.943 395.249 594.242 398.55 590.527 398.988C588.006 399.285 585.523 398.183 584.053 396.113C582.582 394.044 582.359 391.337 583.47 389.054C584.581 386.772 586.849 385.277 589.385 385.157Z"/>
	<path fill="#FE8F9F" d="M466.925 519.484C469.804 522.038 472.781 524.917 476.419 526.36C483.46 529.154 507.701 528.864 511.236 532.055C516.548 546.999 521.754 561.982 526.852 577C520.992 594.665 514.252 612.1 507.877 629.588L423.703 625.576L441.26 565.677C443.409 558.308 446.315 544.43 449.8 538.284C452.509 533.507 462.609 525.1 466.925 519.484Z"/>
	<path fill="#FEE7DF" d="M480.356 692.713C500.124 694.624 520.33 695.329 540.185 695.565C529.47 742.896 519.542 790.57 507.856 837.662L505.341 832.472C504.259 830.905 503.204 829.308 502.008 827.825C496.224 820.719 487.868 816.183 478.758 815.205C467.578 814.023 458.826 817.988 450.265 824.815C453.193 813.536 455.495 802.026 458.07 790.653C465.457 758.032 472.307 725.17 480.356 692.713Z"/>
	<path fill="#FEE7DF" d="M636.297 695.589L650.366 695.277C651.062 709.686 652.791 724.159 654.055 738.541L661.847 827.813C656.191 821.223 648.748 816.438 640.113 814.951C629.895 813.191 620.811 816.082 612.465 821.917C608.62 825.215 605.881 828.669 603.187 832.956C601.74 822.843 601.242 812.426 600.348 802.243L595.385 745.567C597.667 744.441 600.191 743.043 601.464 740.75C602.552 738.79 602.573 736.702 602.377 734.526C601.604 725.938 594.729 705.797 592.035 696.362C606.792 696.373 621.549 696.115 636.297 695.589Z"/>
	<path fill="#FEBFC6" d="M442.638 130.567C445.526 130.877 448.439 131.26 451.268 131.934C462.883 134.807 472.879 142.177 479.057 152.422C488.157 167.276 488.458 183.381 484.552 199.861C480.542 194.788 477.187 189.279 473.221 184.24C471.967 183.869 471.951 184.017 470.753 184.592C470.07 185.733 469.936 185.803 470.362 187.143C471.205 189.792 472.888 192.45 474.079 194.986C476.707 200.582 478.254 205.853 479.308 211.94C475.924 221.643 468.018 231.218 460.36 237.884C455.912 237.948 451.567 237.294 447.608 235.175C442.827 232.615 439.596 228.239 438.11 223.079C434.529 210.645 440.468 197.509 446.406 186.826L446.565 186.122C446.01 184.842 445.794 184.732 444.629 183.935C442.122 184.564 432.894 198.844 429.213 202.252C423.875 207.195 416.797 210.932 409.346 210.535C403.755 210.238 398.642 207.527 394.994 203.326C391.051 198.861 389.143 192.958 389.726 187.031C391.188 173.022 405.43 166.925 417.715 165.181C421.376 164.661 429.657 165.06 432.35 162.793L432.303 161.417C429.992 158.422 418.652 159.627 414.625 158.624C408.527 157.105 403.385 155.018 398.118 151.598C409.737 140.507 421.229 133.823 437.083 130.883C439.259 133.773 440.711 137.135 443.239 139.759C444.59 139.938 444.721 139.938 445.936 139.331L446.315 138.142C445.849 135.346 444.082 132.963 442.638 130.567Z"/>
	<path d="M456.943 139.256C462.246 142.935 469.506 155.528 473.452 161.341C470.771 166.261 463.545 179.463 459.984 182.841C459.045 183.732 458.648 183.591 457.425 183.597C453.923 179.167 441.642 166.604 441.312 161.709C440.968 156.621 453.349 143.043 456.943 139.256Z"/>
	<path fill="#FF6365" d="M456.935 145.992C461.257 149.378 465.225 157.025 468.378 161.612C466.407 164.779 460.52 175.978 457.97 177.362C453.688 171.972 449.284 166.67 444.939 161.329C449.073 156.349 452.933 151.085 456.935 145.992Z"/>
	<path fill="#FEBFC6" d="M488.508 326.064C489.133 325.071 489.597 324.015 490.117 322.967C490.95 321.29 491.681 319.947 493.499 319.331C495.65 322.193 494.577 332.042 498.995 338.11C502.443 342.845 507.087 344.288 512.586 345.128C512.766 346.586 512.817 348.084 514.035 349.094C514.569 349.537 515.391 349.804 516.02 350.088C516.524 350.316 517.022 350.563 517.525 350.796L520.356 350.714C521.218 350.244 520.953 350.287 521.729 350.146C526.482 349.283 530.778 348.186 535.176 346.143C536.645 345.343 538.516 344.468 539.379 342.949C540.016 341.829 540.285 340.668 539.807 339.423C539.209 337.865 537.604 337.246 536.207 336.596C537.753 334.782 538.551 333.214 539.417 331.03C549.169 334.544 558.93 338.367 568.805 341.5L572.487 342.827L585.311 347.585C581.86 358.977 577.884 370.102 572.794 380.876C571.29 384.898 569.927 388.292 567.01 391.544C559.577 403.545 550.342 416.284 535.808 419.775C528.927 421.428 521.789 420.723 514.824 420.094C513.599 416.067 511.039 410.108 511.385 405.957C512.166 404.229 512.061 403.053 511.886 401.189C510.638 398.628 508.841 396.462 507.742 393.781C504.567 386.031 502.73 377.37 500.475 369.308L488.508 326.064Z"/>
	<path fill="#FEFEFE" d="M536.207 336.596C537.753 334.782 538.551 333.214 539.417 331.03C549.169 334.544 558.93 338.367 568.805 341.5L572.487 342.827L585.311 347.585C581.86 358.977 577.884 370.102 572.794 380.876C571.567 379.535 571.631 379.203 571.382 377.467C571.686 375.692 571.913 375.273 571.152 373.587C568.635 371.885 564.896 372.07 561.927 371.797L557.576 370.683C548.803 367.084 545.251 360.373 541.899 352.004C541.278 350.452 540.656 348.105 539.516 346.911C538.874 346.238 537.201 346.38 536.285 346.302L535.176 346.143C536.645 345.343 538.516 344.468 539.379 342.949C540.016 341.829 540.285 340.668 539.807 339.423C539.209 337.865 537.604 337.246 536.207 336.596Z"/>
	<path fill="#FEFEFE" d="M572.487 342.827L585.311 347.585C581.86 358.977 577.884 370.102 572.794 380.876C571.567 379.535 571.631 379.203 571.382 377.467C571.686 375.692 571.913 375.273 571.152 373.587C568.635 371.885 564.896 372.07 561.927 371.797C565.37 362.085 569.644 352.772 572.487 342.827Z"/>
	<path fill="#FE8F9F" d="M568.805 341.5L572.487 342.827C569.644 352.772 565.37 362.085 561.927 371.797L557.576 370.683C561.694 361.086 565.117 351.263 568.805 341.5Z"/>
	<path fill="#FEFEFE" d="M550.637 395.304C552.999 394.291 564.767 391.445 567.01 391.544C559.577 403.545 550.342 416.284 535.808 419.775C528.927 421.428 521.789 420.723 514.824 420.094C513.599 416.067 511.039 410.108 511.385 405.957C512.166 404.229 512.061 403.053 511.886 401.189L514.801 402.305C515.539 403.864 515.935 404.841 517.475 405.697C518.858 405.633 519.302 405.652 520.31 404.565C520.578 404.276 520.767 403.876 520.95 403.53C525.592 403.81 529.977 404.307 534.659 404.161C537.484 402.52 539.725 400.752 541.992 398.411C544.012 398.341 546.039 398.325 548.043 398.042C549.174 397.475 549.879 396.286 550.637 395.304Z"/>
	<path fill="#FE8F9F" d="M541.992 398.411C544.012 398.341 546.039 398.325 548.043 398.042C543.047 403.191 538.312 408.386 530.536 408.427C524.137 408.46 517.758 406.177 511.385 405.957C512.166 404.229 512.061 403.053 511.886 401.189L514.801 402.305C515.539 403.864 515.935 404.841 517.475 405.697C518.858 405.633 519.302 405.652 520.31 404.565C520.578 404.276 520.767 403.876 520.95 403.53C525.592 403.81 529.977 404.307 534.659 404.161C537.484 402.52 539.725 400.752 541.992 398.411Z"/>
	<path fill="#FEFEFE" d="M488.508 326.064C489.133 325.071 489.597 324.015 490.117 322.967C490.95 321.29 491.681 319.947 493.499 319.331C495.65 322.193 494.577 332.042 498.995 338.11C502.443 342.845 507.087 344.288 512.586 345.128C512.766 346.586 512.817 348.084 514.035 349.094C514.569 349.537 515.391 349.804 516.02 350.088C516.524 350.316 517.022 350.563 517.525 350.796C510.153 361.696 509.292 378.815 511.717 391.34C512.476 395.066 513.507 398.73 514.801 402.305L511.886 401.189C510.638 398.628 508.841 396.462 507.742 393.781C504.567 386.031 502.73 377.37 500.475 369.308L488.508 326.064Z"/>
	<path d="M520.356 350.714C521.047 351.716 521.648 352.114 521.381 353.39C520.604 357.106 518.52 360.923 517.472 364.679C513.971 377.224 514.863 391.901 520.95 403.53C520.767 403.876 520.578 404.276 520.31 404.565C519.302 405.652 518.858 405.633 517.475 405.697C515.935 404.841 515.539 403.864 514.801 402.305C513.507 398.73 512.476 395.066 511.717 391.34C509.292 378.815 510.153 361.696 517.525 350.796L520.356 350.714Z"/>
	<path d="M536.285 346.302C537.201 346.38 538.874 346.238 539.516 346.911C540.656 348.105 541.278 350.452 541.899 352.004C545.251 360.373 548.803 367.084 557.576 370.683L561.927 371.797C564.896 372.07 568.635 371.885 571.152 373.587C571.913 375.273 571.686 375.692 571.382 377.467C567.922 377.673 564.528 377.356 561.128 376.683C552.545 374.985 546.158 370.561 541.364 363.275C538.284 358.593 535.142 352 536.285 346.302Z"/>
	<path d="M541.992 398.411L541.463 398.224C538.968 397.356 537.042 396.567 535.155 394.609C533.273 392.656 531.06 389.077 531.326 386.246C531.434 385.094 531.616 384.991 532.472 384.338C537.346 384.832 536.363 389.959 539.958 392.184C543.768 394.542 546.604 391.871 550.637 395.304C549.879 396.286 549.174 397.475 548.043 398.042C546.039 398.325 544.012 398.341 541.992 398.411Z"/>
	<path d="M547.606 380.714C548.838 380.698 549.808 380.766 550.966 381.223C554.232 382.512 558.026 383.069 560.956 385.066C561.624 386.724 561.299 386.93 560.711 388.556C559.252 388.715 557.661 388.813 556.203 388.652C553.453 388.348 549.814 387.124 548.191 384.71C547.187 383.214 547.387 382.367 547.606 380.714Z"/>
	<path fill="#231917" d="M481.34 465.183C482.198 466.368 481.984 468.855 482.076 470.35L482.88 470.678C483.346 470.433 483.647 470.307 484.052 469.927C485.756 468.327 484.715 461.743 484.997 459.163L485.67 458.957C487.046 460.261 486.252 462.178 487.67 463.7C489.488 463.847 489.817 463.351 491.312 462.383C493.127 462.108 494.965 461.75 496.794 461.601L501.081 460.932L510.236 459.792L514.601 459.295C517.297 459.454 519.395 460.402 521.938 460.77C527.923 469.099 522.55 474.794 530.785 477.195C536.439 476.98 546.126 475.098 550.682 479.315C552.674 481.158 553.532 483.738 553.592 486.403C553.673 489.993 552.392 493.616 549.789 496.145C547.702 498.172 545.074 498.587 542.323 499.099C545.109 499.669 548.268 500.06 549.928 502.68C551.541 505.227 551.528 508.177 552.485 510.907C551.725 513.783 550.845 518.286 548.268 520.116C548.13 520.214 547.973 520.284 547.826 520.368C546.767 522.998 545.706 525.616 544.808 528.306C544.229 526.079 543.733 523.763 543.041 521.573L538.895 522.573L538.663 521.235C537.588 520.905 537.029 521.008 535.985 521.32C534.536 521.752 534.6 522.161 533.915 523.446C532.509 524.362 531.162 525.255 529.888 526.35C527.996 527.412 526.115 528.545 524.161 529.49L520.021 530.78L515.403 531.335C513.982 531.395 512.47 531.261 511.236 532.055C507.701 528.864 483.46 529.154 476.419 526.36C472.781 524.917 469.804 522.038 466.925 519.484L464.24 515.882C463.192 513.917 462.214 511.831 461.491 509.723C458.881 502.112 459.495 492.95 463.086 485.764C466.979 477.974 473.175 473.624 481.257 470.921L481.34 465.183Z"/>
	<path fill="#FE8F9F" d="M543.041 521.573C544.654 520.76 546.042 520.574 547.826 520.368C546.767 522.998 545.706 525.616 544.808 528.306C544.229 526.079 543.733 523.763 543.041 521.573Z"/>
	<path fill="#FEE7DF" d="M483.8 474.58C484.726 477.141 485.738 479.834 487.944 481.582C493.627 486.086 509.102 481.592 516.144 480.544C515.545 481.308 514.991 482.107 514.485 482.937C512.75 485.792 512.09 489.648 513.057 492.885C514.12 496.443 516.29 498.423 519.503 500.066C520.695 500.384 522.076 500.629 523.194 501.129C521.964 501.66 520.871 502.289 519.824 503.134C517.516 504.998 515.887 507.941 515.604 510.9C515.295 514.128 516.387 517.187 518.564 519.57C521.299 522.564 524.099 522.643 527.881 522.867C525.878 523.884 523.797 525.053 521.669 525.774C518.966 526.69 515.971 527.073 513.119 527.056C506.49 527.015 482.278 524.279 476.926 521.608C471.381 518.831 467.198 513.927 465.33 508.015C463.212 501.227 463.845 493.878 467.092 487.552C470.796 480.457 476.368 476.93 483.8 474.58Z"/>
	<path fill="#FEE7DF" d="M533.959 481.333C537.49 481.139 543.949 480.005 546.946 481.76C548.196 483.353 548.793 485.094 548.999 487.114C549.186 488.95 548.941 490.762 547.69 492.194C544.719 495.593 537.382 495.258 533.13 495.566C529.348 495.897 522.066 497.362 519.035 494.865C517.706 493.77 517.072 492.048 516.947 490.37C516.772 488.009 517.573 485.443 519.26 483.745C522.188 480.799 530.056 481.479 533.959 481.333Z"/>
	<path fill="#FEE7DF" d="M513.736 463.604C515.608 463.446 517.429 463.391 519.045 464.518C520.495 465.53 521.541 467.916 521.811 469.613C522.037 471.03 521.775 472.357 520.9 473.51C517.484 478.014 501.785 478.478 496.258 479.238C496.042 479.282 495.828 479.332 495.612 479.369C493.835 479.668 492.451 479.711 490.978 478.579C489.494 477.438 488.508 475.778 488.328 473.905C488.154 472.098 488.655 470.321 489.821 468.918C493.685 464.27 507.893 464.266 513.736 463.604Z"/>
	<path fill="#FEE7DF" d="M537.345 504.091C539.831 503.85 542.748 503.158 544.955 504.597C546.723 505.751 547.9 507.487 548.189 509.589C548.454 511.511 547.886 513.624 546.638 515.126C544.222 518.035 534.397 517.805 530.594 518.096C528.034 518.388 525.076 518.983 522.846 517.342C521.185 516.12 519.76 514.366 519.565 512.248C519.408 510.538 520.084 508.994 521.22 507.742C525.014 503.561 532.133 504.33 537.345 504.091Z"/>
	<path fill="#7B6D68" d="M519.503 500.066C524.586 499.841 533.435 498.443 538.08 499.556C536.029 501.379 526.329 500.971 523.194 501.129C522.076 500.629 520.695 500.384 519.503 500.066Z"/>
	<path fill="#763E3D" d="M533.915 523.446C534.6 522.161 534.536 521.752 535.985 521.32C537.029 521.008 537.588 520.905 538.663 521.235L538.895 522.573C552.026 567.312 564.12 612.401 576.701 657.302L590.687 707.236C593.182 716.147 596.156 725.169 598.077 734.211C598.407 735.765 598.616 736.99 597.779 738.441C597.03 739.741 595.723 740.56 594.28 740.89C592.848 741.218 591.38 741.222 590.128 740.377C589.306 739.822 588.691 739.2 588.185 738.344C585.892 732.099 583.724 725.808 581.682 719.476C578.958 713.91 577.227 707.403 575.172 701.525L562.869 666.362L532.77 580.548C527.025 564.144 521.558 547.589 515.403 531.335L520.021 530.78L524.161 529.49C526.115 528.545 527.996 527.412 529.888 526.35C531.162 525.255 532.509 524.362 533.915 523.446Z"/>
	<path fill="#650004" d="M520.021 530.78L524.161 529.49C539.44 572.874 553.658 616.71 568.406 660.284L586.932 715.394C588.983 721.54 591.75 727.776 593.536 733.934C593.989 735.496 593.839 736.631 593.232 738.104L592.04 738.797C590.761 738.414 590.391 738.299 589.618 737.122C589.4 736.789 589.234 736.348 589.081 735.977L588.185 738.344C585.892 732.099 583.724 725.808 581.682 719.476C578.958 713.91 577.227 707.403 575.172 701.525L562.869 666.362L532.77 580.548C527.025 564.144 521.558 547.589 515.403 531.335L520.021 530.78Z"/>
	<path fill="#763E3D" d="M515.403 531.335L520.021 530.78C524.02 541.004 527.239 551.664 530.753 562.073L549.948 618.933L572.196 685.013C576.099 696.677 580.382 708.353 583.822 720.159C583.037 720.053 582.414 719.767 581.682 719.476C578.958 713.91 577.227 707.403 575.172 701.525L562.869 666.362L532.77 580.548C527.025 564.144 521.558 547.589 515.403 531.335Z"/>
	<path fill="#7D4848" d="M581.682 719.476C582.414 719.767 583.037 720.053 583.822 720.159C585.573 725.317 587.832 730.695 589.081 735.977L588.185 738.344C585.892 732.099 583.724 725.808 581.682 719.476Z"/>
	<path fill="#650004" d="M533.915 523.446C533.916 523.726 533.91 524.005 533.916 524.284C534.019 528.91 537.864 538.721 539.266 543.479L556.924 603.671C558.781 610 564.576 625.855 564.584 631.64L564.557 631.523L563.538 632.96C561.237 631.927 560.194 629.538 559.335 627.285C554.873 615.578 551.369 599.67 547.714 587.28C541.772 567.14 534.7 546.761 529.888 526.35C531.162 525.255 532.509 524.362 533.915 523.446Z"/>
	<path fill="#FEBFC6" d="M456.383 278.545C459.616 278.097 463.124 278.677 465.865 280.564C467.435 281.645 468.147 283.251 468.411 285.101C469.697 294.138 462.006 302.707 455.494 307.883C453.963 309.1 451.174 310.579 450.159 312.145C449.504 313.155 449.621 313.439 449.844 314.54L450.977 315.241C454.359 315.052 461.165 310.333 464.954 308.937C470.168 307.016 476.914 305.632 482.124 308.191C484.468 309.342 486.293 311.265 487.063 313.786C487.791 316.237 487.498 318.877 486.251 321.109C478.2 335.759 457.596 320.184 450.93 322.017L450.424 323.084C452.106 327.254 460.221 329.657 463.566 332.996C467.847 337.271 472 342.707 471.743 349.088C471.655 351.268 470.991 353.254 469.291 354.706C467.139 356.542 463.668 357.28 460.905 356.967C446.656 355.353 448.597 331.062 444.509 326.963C443.857 326.309 443.716 326.502 442.862 326.498C441.266 329.378 441.754 342.432 439.478 348.413C437.492 353.634 434.62 356.839 429.522 359.106C427.61 359.208 425.837 359.173 424.062 358.363C421.664 357.268 419.693 355.44 418.894 352.888C416.248 344.439 423.652 335.705 429.72 330.747C432.06 328.834 435.854 326.89 437.339 324.291L436.817 322.849C436.526 322.653 436.283 322.354 435.945 322.262C435.614 322.171 418.955 329.567 415.328 330.139C411.507 330.742 406.187 331.125 402.996 328.598C400.921 326.953 400.059 324.471 399.776 321.92C399.461 319.074 399.762 315.858 401.743 313.627C403.483 311.668 406.086 310.996 408.593 310.67C420.709 309.095 427.609 315.765 435.399 315.535L436.043 314.739C435.765 313.449 435.644 313.115 434.662 312.21C428.752 306.767 422.307 304.773 417.367 297.562C415.467 294.789 414.232 291.704 414.981 288.31C415.603 285.494 417.373 282.855 419.859 281.371C421.8 280.213 424.028 279.696 426.22 280.391C436.466 283.637 438.502 294.195 439.977 303.388C440.309 305.458 440.507 308.642 441.566 310.452C441.945 311.1 442.294 310.982 442.965 311.129C444.048 310.397 444.791 309.89 444.994 308.494C445.206 307.036 444.884 305.266 444.902 303.755C444.959 299.081 445.57 294.679 446.886 290.189C448.521 284.612 451.338 281.285 456.383 278.545Z"/>
	<path fill="#FEFEFE" d="M473.148 820.076C480.229 819.632 487.24 821.704 492.942 825.925C499.403 830.826 503.605 838.134 504.588 846.184C505.718 855.348 503.13 865.719 497.286 872.938C491.849 879.654 484.551 883.003 476.077 883.861C468.539 884.095 461.535 882.451 455.511 877.725C449.225 872.787 445.189 865.529 444.313 857.584C443.272 848.403 445.831 838.201 451.706 830.991C457.288 824.14 464.532 821.027 473.148 820.076Z"/>
	<path fill="#FEFEFE" d="M631.178 820.362C648.371 818.623 663.721 831.141 665.472 848.33C667.223 865.519 654.711 880.874 637.52 882.635C620.315 884.398 604.94 871.875 603.188 854.671C601.436 837.468 613.97 822.104 631.178 820.362Z"/>
	<path fill="#FEFEFE" d="M613.444 287.847C624.265 281.749 635.123 275.715 646.016 269.746C646.895 280.25 648.471 290.777 649.654 301.258C650.432 308.151 650.485 315.9 652.383 322.542L606.984 337.48L600.194 339.882C597.421 340.352 594.296 341.773 591.588 342.66L613.444 287.847Z"/>
	<path fill="#FE8F9F" d="M600.194 339.882C604.443 331.438 621.846 288.492 624.777 285.295C625.761 284.222 626.311 284.155 627.714 284.143C630.869 288.177 605.799 332.151 606.984 337.48L600.194 339.882Z"/>
	<path fill="#763E3D" d="M464.802 386.277C467.696 388.366 470.547 390.515 473.353 392.722C475.447 394.066 477.828 395.34 479.693 396.981C484.427 399.797 489.212 402.551 493.851 405.52L499.218 407.75C501.927 408.523 504.543 409.211 507.334 409.617C510.367 420.199 513.334 430.8 516.233 441.42C518.002 447.836 519.47 454.59 521.938 460.77C519.395 460.402 517.297 459.454 514.601 459.295L510.236 459.792L501.081 460.932L496.794 461.601C494.965 461.75 493.127 462.108 491.312 462.383C483.38 436.824 473.505 411.606 464.802 386.277Z"/>
	<path fill="#763E3D" d="M464.802 386.277C467.696 388.366 470.547 390.515 473.353 392.722C475.447 394.066 477.828 395.34 479.693 396.981C483.958 410.671 488.71 424.229 493.289 437.818C495.864 445.461 498.104 453.45 501.081 460.932L496.794 461.601C494.965 461.75 493.127 462.108 491.312 462.383C483.38 436.824 473.505 411.606 464.802 386.277Z"/>
	<path fill="#650004" d="M473.353 392.722C475.447 394.066 477.828 395.34 479.693 396.981C483.958 410.671 488.71 424.229 493.289 437.818C495.864 445.461 498.104 453.45 501.081 460.932L496.794 461.601C488.968 438.771 482.167 415.164 473.353 392.722Z"/>
	<path fill="#763E3D" d="M499.218 407.75C501.927 408.523 504.543 409.211 507.334 409.617C510.367 420.199 513.334 430.8 516.233 441.42C518.002 447.836 519.47 454.59 521.938 460.77C519.395 460.402 517.297 459.454 514.601 459.295C509.12 442.234 504.967 424.723 499.218 407.75Z"/>
	<path fill="#650004" d="M493.851 405.52L499.218 407.75C504.967 424.723 509.12 442.234 514.601 459.295L510.236 459.792C506.203 447.662 502.949 435.137 499.361 422.859C497.673 417.082 496.219 411.052 493.851 405.52Z"/>
	<path fill="#FEFEFE" d="M421.987 362.545C426.921 363.477 431.244 363.712 435.66 360.796C440.623 357.518 442.988 351.821 445.023 346.494C447.282 351.145 450.509 356.455 451.301 361.604C451.978 366.004 448.394 373.084 450.292 376.82C451.546 379.286 456.391 381.01 458.673 382.494L460.986 388.674L462.833 393.953L468.262 409.67C459.168 407.018 406.799 391.041 402.754 387.143C401.839 386.261 401.067 384.835 401.094 383.531C401.146 381.024 404.061 378.896 405.747 377.33L409.741 373.773L421.987 362.545Z"/>
	<path fill="#FEFEFE" d="M421.987 362.545C426.921 363.477 431.244 363.712 435.66 360.796C440.623 357.518 442.988 351.821 445.023 346.494C447.282 351.145 450.509 356.455 451.301 361.604C451.978 366.004 448.394 373.084 450.292 376.82C451.546 379.286 456.391 381.01 458.673 382.494L460.986 388.674C453.286 387.174 445.579 384.573 438.039 382.41C428.644 379.714 418.868 377.269 409.741 373.773L421.987 362.545Z"/>
	<path fill="#FE8F9F" d="M405.747 377.33L409.741 373.773C418.868 377.269 428.644 379.714 438.039 382.41C445.579 384.573 453.286 387.174 460.986 388.674L462.833 393.953L405.747 377.33Z"/>
	<path fill="#FEBFC6" d="M506.254 240.898C509.517 243.462 512.749 247.097 515.008 250.585C517.756 254.829 519.627 259.948 518.385 265.033C516.46 272.921 510.618 275.114 504.831 279.474C503.613 280.392 503.369 280.94 503.253 282.415C503.959 283.658 503.953 283.7 505.276 284.222C509.702 283.753 513.711 279.837 517.162 277.215C520.981 279.808 524.614 283.188 526.756 287.33C529.472 292.583 528.934 297.389 527.341 302.815C525.504 306.22 523.703 309.513 521.375 312.62C503.913 299.52 495.893 282.473 490.738 261.751C494.737 254.483 501.185 247.519 506.254 240.898Z"/>
	<path fill="#763E3D" d="M467.972 331.19C474.026 331.54 479.102 331.35 484.739 328.915L502.379 391.754L493.935 388.055C492.07 387.593 490.218 386.915 488.383 386.338C481.177 384.252 473.87 382.53 466.49 381.178C467.363 377.111 468.253 373.099 468.635 368.949C465.244 365.856 461.292 363.448 457.469 360.931C462.371 361.566 466.653 361.659 470.884 358.587C473.685 356.553 475.375 353.457 475.873 350.056C476.648 344.77 474.512 338.992 471.216 334.874C470.183 333.604 469.101 332.375 467.972 331.19Z"/>
	<path fill="#650004" d="M488.383 386.338C486.705 378.856 477.982 357.382 480.678 351.53L482.171 351.579L480.775 351.38L482.436 351.977C487.794 363.354 488.699 376.684 493.935 388.055C492.07 387.593 490.218 386.915 488.383 386.338Z"/>
	<defs>
		<linearGradient id="gradient_0" gradientUnits="userSpaceOnUse" x1="568.33698" y1="286.30734" x2="566.67151" y2="309.68149">
			<stop offset="0" stop-color="#FFDAC2"/>
			<stop offset="1" stop-color="#FFECEA"/>
		</linearGradient>
	</defs>
	<path fill="url(#gradient_0)" d="M533.215 282.121C555.532 290.44 577.086 292.494 600.697 289.854C600.642 294.604 601.317 298.26 602.848 302.774L600.758 307.956C600.502 308.696 600.095 309.434 599.768 310.149C595.331 311.771 562.868 310.585 555.679 310.538C549.705 304.721 543.434 299.022 537.78 292.899C534.207 289.03 533.033 287.424 533.215 282.121Z"/>
	<path fill="#FEBFC6" d="M506.634 306.366C511.195 311.075 520.174 320.61 526.875 321.054C528.107 320.346 528.451 320.303 529.057 318.972C528.071 317.215 526.611 316.431 526.451 314.409L527.527 313.026C529.217 313.434 530.88 316.632 531.782 318.148C533.734 321.43 535.5 326.077 534.348 329.868C533.3 333.316 529.803 335.685 526.71 337.178C521.633 339.629 514.298 341.197 508.884 339.185C505.11 337.782 502.665 334.791 501.194 331.134C499.941 328.018 499.907 324.53 499.602 321.225C501.788 321.68 504.033 322.052 506.189 322.623L509.371 322.94C510.216 321.602 510.523 321.018 510.253 319.481C507.911 316.688 501.257 316.19 497.752 315.238C494.348 314.313 492.063 313.675 490.259 310.493C493.578 312.048 497.501 314.176 501.21 314.337C502.722 314.403 504.137 314.122 505.211 312.984C506.943 311.15 506.762 308.698 506.634 306.366Z"/>
	<path fill="#FEE7DF" d="M506.189 322.623L509.371 322.94C511.507 324.771 511.325 326.855 512.925 328.784C514.602 330.804 517.575 331.114 518.7 333.679C518.794 334.835 518.928 335.871 518.374 336.938C517.881 337.888 516.965 338.59 515.906 338.828C513.214 339.435 509.99 338.041 507.897 336.428C505.617 334.671 503.827 332.262 503.611 329.313C503.409 326.552 504.355 324.601 506.189 322.623Z"/>
	<path fill="#FEFEFE" d="M534.131 295.23C542.627 303.614 551.05 312.071 559.401 320.6C566.081 327.297 573.042 333.851 579.496 340.759C572.961 338.524 566.292 336.376 559.922 333.701C556.163 332.684 552.221 331.328 548.683 329.71L540.036 326.687C539.519 324.031 538.777 321.551 537.934 318.985C535.846 315.292 532.052 310.901 530.83 307.032L531.711 305.429C532.833 302.041 533.547 298.749 534.131 295.23Z"/>
	<path fill="#FE8F9F" d="M537.934 318.985C535.846 315.292 532.052 310.901 530.83 307.032L531.711 305.429C541.027 314.737 551.221 323.857 559.922 333.701C556.163 332.684 552.221 331.328 548.683 329.71L540.036 326.687C539.519 324.031 538.777 321.551 537.934 318.985Z"/>
	<path fill="#FEFEFE" d="M537.934 318.985L538.772 318.849C541.377 321.27 548.102 326.459 548.683 329.71L540.036 326.687C539.519 324.031 538.777 321.551 537.934 318.985Z"/>
	<path fill="#FEE7DF" d="M481.228 277.279C482.805 273.702 484.766 270.399 486.753 267.043L489.238 275.31C490.224 278.089 491.133 280.942 492.304 283.647L495.27 289.944C498.4 295.51 501.783 300.666 505.912 305.558L506.634 306.366C506.762 308.698 506.943 311.15 505.211 312.984C504.137 314.122 502.722 314.403 501.21 314.337C497.501 314.176 493.578 312.048 490.259 310.493C488.405 306.129 483.169 305.606 481.621 301.88C480.556 297.653 478.028 290.491 479.486 286.214C480.794 282.376 484.704 284.992 487.426 283.731L487.95 282.078C487.052 278.062 483.694 280.265 481.003 278.482L481.228 277.279Z"/>
	<path fill="#FEBFC6" d="M481.228 277.279C482.805 273.702 484.766 270.399 486.753 267.043L489.238 275.31C490.224 278.089 491.133 280.942 492.304 283.647C490.128 283.616 488.845 283.945 487.235 285.466C482.99 289.479 482.374 296.438 481.621 301.88C480.556 297.653 478.028 290.491 479.486 286.214C480.794 282.376 484.704 284.992 487.426 283.731L487.95 282.078C487.052 278.062 483.694 280.265 481.003 278.482L481.228 277.279Z"/>
	<path fill="#FEE7DF" d="M481.228 277.279C482.805 273.702 484.766 270.399 486.753 267.043L489.238 275.31C486.506 277.249 484.525 277.473 481.228 277.279Z"/>
	<path fill="#FEBFC6" d="M495.27 289.944C498.4 295.51 501.783 300.666 505.912 305.558C503.17 304.927 500.483 304.076 497.878 303.012C495.868 302.193 494.196 300.898 493.407 298.812C492.231 295.707 494.044 292.748 495.27 289.944Z"/>
	<path fill="#FE8F9F" d="M559.525 314.521L598.156 314.534C595.821 320.884 593.129 327.142 590.604 333.421L587.044 342.299L559.525 314.521Z"/>
	<path fill="#A38869" d="M478.321 253.68C482.512 253.3 486.909 253.565 491.124 253.566L485.316 261.29C476.071 263.86 468.969 268.449 461.19 273.87C459.894 273.976 458.597 273.988 457.303 274.134C451.368 274.803 447.93 279.253 444.541 283.608L440.867 288.352L437.47 283.342C448.488 270.529 461.66 258.212 478.321 253.68Z"/>
	<path fill="#FEBFC6" d="M554.428 515.04L555.174 515.364C557.23 518.362 557.937 568.588 558.859 577.16C558.055 574.731 557.404 572.225 556.689 569.767C552.995 558.482 549.538 546.163 547.061 534.559C549.197 528.392 551.002 520.52 554.428 515.04Z"/>
	<path fill="#A38869" d="M477.911 242.681C484.793 242.064 490.822 243.337 497.346 245.478L493.968 249.828C484.09 248.236 474.357 249.492 464.702 251.674C459.317 253.025 454.103 254.949 448.946 256.984C456.714 247.156 465.632 244.141 477.911 242.681Z"/>
	<path fill="#87D9FE" d="M473.495 387.074C482.913 388.809 494.888 391.589 502.766 397.114C505.803 399.244 507.463 401.138 508.1 404.827C498.768 405.751 480.783 392.917 473.495 387.074Z"/>
	<path fill="#5F0038" d="M512.586 345.128C520.516 344.498 528.173 343.621 534.441 338.093C535.022 337.581 535.614 337.094 536.207 336.596C537.604 337.246 539.209 337.865 539.807 339.423C540.285 340.668 540.016 341.829 539.379 342.949C538.516 344.468 536.645 345.343 535.176 346.143C530.778 348.186 526.482 349.283 521.729 350.146C520.953 350.287 521.218 350.244 520.356 350.714L517.525 350.796C517.022 350.563 516.524 350.316 516.02 350.088C515.391 349.804 514.569 349.537 514.035 349.094C512.817 348.084 512.766 346.586 512.586 345.128Z"/>
	<path fill="#FEE7DF" d="M673.576 204.097C676.252 205.792 678.591 207.792 680.06 210.652C683.296 216.953 681.207 224.287 679.048 230.555C678.478 231.598 678.074 232.63 676.974 233.203C676.36 223.42 674.953 213.792 673.576 204.097Z"/>
	<path fill="#FEE7DF" d="M669.408 211.28C671.522 216.313 671.945 231.503 672.334 237.574L666.396 239.713L665.001 239.697L664.415 239.079C666.221 229.839 667.885 220.571 669.408 211.28Z"/>
	<path fill="#FE8F9F" d="M414.012 230.586L422.27 238.367L419.788 249.19L410.981 241.136L414.012 230.586Z"/>
	<path fill="#87D9FE" d="M455.603 364.961C458.59 366.514 461.442 368.865 464.208 370.808L462.533 379.577L454.135 374.712L455.603 364.961Z"/>
	<path fill="#A38869" d="M480.439 267.347L480.964 267.984C479.274 271.303 477.716 274.686 476.293 278.127C473.564 277.528 470.766 277.123 468.012 276.646L466.717 276.021C466.759 275.895 466.784 275.762 466.844 275.644C468.418 272.528 477.292 268.856 480.439 267.347Z"/>
	<path fill="#A38869" d="M456.8 258.659L457.109 258.879C455.122 260.865 452.586 262.37 450.417 264.167C446.816 267.152 443.516 270.481 440.214 273.788C439.954 273.625 439.939 273.238 439.824 272.954C440.525 271.229 441.202 269.442 442.05 267.784C444.877 262.258 451.388 260.588 456.8 258.659Z"/>
	<path fill="#A38869" d="M471.78 281.511L473.773 281.908C475.753 283.869 474.915 291.88 475.283 294.999C474.272 294.824 473.459 294.658 472.535 294.204C472.191 292.332 472.344 290.374 472.498 288.481C472.706 285.931 472.34 283.982 471.78 281.511Z"/>
	<path fill="#A38869" d="M470.033 298.499C472.035 298.739 474.98 298.918 476.494 300.335C475.34 301.403 474.276 301.291 472.745 301.523L466.831 302.769L470.033 298.499Z"/>
	<path fill="#BD888F" d="M453.504 241.691C454.356 241.773 455.157 241.929 455.997 242.087L456.066 242.797C454.85 244.217 453.518 245.505 452.184 246.81L451.055 247.711C451.055 245.744 452.622 243.438 453.504 241.691Z"/>
	<path fill="#231917" d="M583.558 467.227C582.301 467.443 579.262 467.475 578.176 466.831C581.67 465.786 585.154 466.015 588.748 466.171L583.558 467.227Z"/>
	<path fill="#231917" d="M801.781 512.512C804.407 513.216 807.138 513.859 809.589 515.058C813.177 516.813 816.847 519.677 820.685 520.737C829.223 523.096 846.775 519.112 851.865 527.721C853.503 530.49 853.654 534.586 852.828 537.639C851.78 541.519 848.648 543.545 845.308 545.318C844.914 545.527 844.52 545.733 844.123 545.935L842.703 551.368C839.336 554.798 836.622 556.453 831.618 556.589C828.059 556.686 824.315 556.176 820.761 555.892C816.132 561.641 811.013 565.49 803.456 566.214C801.632 566.389 799.792 566.459 797.961 566.531C801.094 570.041 803.168 572.93 802.833 577.918C802.609 581.249 801.057 584.59 798.423 586.691C796.059 588.577 793.054 588.952 790.134 588.565C782.781 587.588 771.475 570.81 766.997 564.441C763.104 558.903 768.08 556.686 759.908 554.286L759.942 553.994C761.025 552.48 762.096 551.72 763.66 550.731C776.74 541.185 786.263 526.618 798.218 515.706C799.349 514.578 800.571 513.554 801.781 512.512Z"/>
	<path fill="#FEE7DF" d="M798.218 515.706C803.243 517.468 808.482 519.033 813.213 521.497C810.117 523.4 807.466 525.222 806.558 528.992C806.371 529.768 806.233 530.556 806.098 531.343C801.652 533.574 798.831 535.503 797.209 540.498C796.302 543.288 796.28 546.485 797.73 549.094C799.324 551.961 802.569 553.747 805.687 554.436C808.883 555.142 812.441 555.114 815.701 555.295C811.555 559.01 805.62 563.009 799.774 562.56C795.712 562.249 792.852 559.807 790.399 556.763C786.849 552.359 783.41 546.376 777.142 545.839C771.59 545.364 767.63 552.568 763.66 550.731C776.74 541.185 786.263 526.618 798.218 515.706Z"/>
	<path fill="#FEE7DF" d="M804.947 536.429C811.79 536.129 818.88 536.791 825.719 537.205C829.87 537.457 835.62 537.489 838.47 541.017C839.634 542.459 839.776 544.092 839.561 545.874C839.197 548.889 837.766 550.113 835.423 551.86C834.047 551.959 832.667 552.006 831.288 552.001C824.526 551.982 806.393 552.022 801.948 547.177C800.961 546.101 800.451 544.864 800.603 543.397C800.901 540.53 802.879 538.245 804.947 536.429Z"/>
	<path fill="#FEE7DF" d="M774.849 550.208C775.596 550.176 776.332 550.153 777.076 550.246C780.907 550.726 784.45 556.099 786.695 558.926C789.924 562.992 799.519 573.008 798.682 578.064C798.219 580.855 795.506 582.558 793.387 584.083C792.378 584.142 791.278 584.225 790.282 584.013C785.921 583.081 774.765 567.595 771.899 563.289C770.603 561.342 768.595 558.376 769.209 555.967C769.899 553.26 772.674 551.643 774.849 550.208Z"/>
	<path fill="#FEE7DF" d="M814.449 525.421C822.18 525.078 830.673 525.805 838.402 526.463C841.645 526.739 845.805 527.378 847.922 530.132C849.071 531.627 849.168 533.304 848.899 535.107C848.442 538.177 846.836 539.342 844.493 541.119C841.352 539.775 840.773 535.234 836.829 534.122C830.991 532.476 815.243 534.637 811.402 531.181C810.821 530.659 810.996 530.139 810.957 529.42C811.758 527.645 813.007 526.67 814.449 525.421Z"/>
</svg>
