<svg width="133" height="137" viewBox="0 0 133 137" fill="none" xmlns="http://www.w3.org/2000/svg">
<path d="M45.2945 81.3151C41.3117 82.459 34.0455 85.8735 25.2398 83.4108C22.5192 82.3651 20.6599 77.7512 18.805 72.9837C16.7837 67.7893 13.0227 64.8913 8.50257 65.6168C3.98245 66.3424 1.70106 69.7399 2.9974 72.4843C4.33637 74.6995 11.1592 74.9385 16.5449 87.6789C18.2421 90.1971 28.1053 93.2617 39.2905 89.5825C46.7146 87.1411 48.3861 85.3144 48.4586 83.7864C48.5311 82.2541 47.367 80.7218 45.2945 81.3151Z" fill="#E6E6E6"/>
<path d="M45.2905 81.3152C47.363 80.7219 48.5271 82.2542 48.4504 83.7864C48.3779 85.3187 46.7063 87.1455 39.2865 89.5868C34.2888 91.2301 29.5512 91.5288 25.6963 91.1276C31.0096 90.2484 32.9327 86.9577 32.9583 84.2516C38.2503 83.9699 42.5529 82.1048 45.2905 81.3152Z" fill="#D4D4D4"/>
<path d="M36.2117 83.8803C34.6595 85.7242 34.796 88.9808 35.1499 90.6624C34.0242 90.8844 32.9197 91.0423 31.8494 91.1404C31.133 88.8314 31.4059 86.9278 31.7257 86.1595C30.7449 86.6674 30.4507 87.3162 30.0626 88.1997C29.6319 86.7912 29.9987 85.1565 30.6682 84.2645C32.6425 84.3413 34.4932 84.1791 36.2117 83.8803Z" fill="#332525"/>
<path d="M36.2119 83.8803C36.1096 83.8974 36.0072 83.9145 35.9092 83.9315C35.8622 83.9401 35.8196 83.9444 35.7727 83.9529C35.2098 84.0425 34.6341 84.1151 34.0457 84.1706C33.9647 84.1791 33.8837 84.1833 33.8069 84.1919C33.5937 84.2089 33.3805 84.226 33.163 84.2388C33.0948 84.2431 33.0308 84.2516 32.9626 84.2516C32.9498 85.5662 32.485 87.0174 31.4019 88.2637C31.4019 89.0875 31.5213 90.0691 31.8496 91.1404C32.3571 91.0935 32.873 91.0337 33.3975 90.9569C33.4444 90.9483 33.4913 90.9441 33.5425 90.9356C34.0756 90.8587 34.6129 90.7691 35.1544 90.6624C34.7962 88.9808 34.6598 85.7242 36.2119 83.8803Z" fill="#1A1313"/>
<path d="M25.2394 83.4108C26.2714 83.6968 27.282 83.9059 28.267 84.0468C25.4398 85.9845 25.5165 89.5911 26.105 91.1661C25.0304 91.0722 24.0198 90.9185 23.0859 90.7307C21.0689 86.5522 23.5465 83.8974 24.6168 83.0992C24.8172 83.2273 25.0219 83.3297 25.2394 83.4108Z" fill="#332525"/>
<path d="M19.8625 75.647C20.6429 77.5421 21.4531 79.3048 22.3486 80.6877C17.4021 82.1432 16.5194 85.8564 16.7027 87.8924C16.643 87.8241 16.5876 87.7515 16.5407 87.6789C15.965 86.3174 15.3723 85.0967 14.771 83.9998C15.4618 80.7517 17.7858 79.3987 18.7965 79.0402C16.8775 78.5921 15.2401 79.753 14.7241 80.3804C14.8094 76.808 18.2165 75.7494 19.8625 75.647Z" fill="#332525"/>
<path d="M8.50245 65.6168C12.3787 64.9937 15.6962 67.0381 17.8326 70.9051C12.3573 70.4313 9.83289 74.7891 9.66658 77.3159C6.48544 74.4135 3.78616 73.7947 2.99728 72.4886C1.70521 69.7399 3.98233 66.3424 8.50245 65.6168Z" fill="#332525"/>
<path d="M36.118 91.1191C26.3998 93.2702 17.8585 90.7734 16.0164 88.0375L15.9567 87.9265C12.1572 78.9335 7.63284 76.3086 4.92503 74.7422C3.79927 74.0892 2.90802 73.5727 2.45174 72.8172L2.42192 72.7575C1.83345 71.5112 1.86326 70.1155 2.49438 68.818C3.4581 66.8504 5.61154 65.4291 8.40036 64.9809C13.1038 64.2255 17.2146 67.1321 19.4022 72.749C21.0524 76.9958 22.9245 81.806 25.4446 82.8005C29.2697 83.8632 33.2311 83.9144 37.5551 82.9584C39.6275 82.5017 41.4271 81.8999 43.0134 81.3706C43.7724 81.1188 44.4888 80.8798 45.1157 80.6963C46.2457 80.3719 47.2648 80.5554 48.0196 81.1956C48.7402 81.806 49.1454 82.7834 49.0942 83.812C48.9833 86.104 46.1092 88.0119 39.4868 90.1887C38.3824 90.5557 37.2481 90.8673 36.118 91.1191ZM17.108 87.3674C18.5323 89.3393 26.3188 91.9727 35.8409 89.8685C35.8409 89.8685 35.8409 89.8685 35.8452 89.8685C36.9325 89.6295 38.0242 89.3265 39.0903 88.9765C44.8854 87.0729 47.7424 85.3613 47.8192 83.7565C47.849 83.1334 47.6102 82.5316 47.1966 82.1816C46.7702 81.8188 46.1732 81.7335 45.4738 81.9341C44.8683 82.1091 44.1647 82.3438 43.4184 82.5913C41.879 83.1035 39.9687 83.7395 37.8323 84.2132C33.2866 85.2205 29.1119 85.1607 25.0694 84.0297L25.0139 84.0127C21.9522 82.8389 20.0503 77.9476 18.2124 73.2185C16.2338 68.1308 12.7329 65.5913 8.60936 66.2529C6.23843 66.6327 4.42611 67.7979 3.64576 69.39C3.19374 70.3161 3.16387 71.3106 3.56471 72.1856C3.86321 72.6508 4.61801 73.0904 5.56894 73.641C8.40467 75.28 13.1465 78.033 17.108 87.3674Z" fill="black"/>
<path d="M78.6328 91.0892C77.0891 92.9586 78.6413 96.3945 82.6924 100.919C86.7434 105.443 97.8304 112.208 103.404 111.239C106.947 109.592 111.062 101.491 109.66 99.2797C108.141 97.4786 105.566 98.0292 103.754 99.2456C99.7238 99.0535 94.8966 98.1828 93.0076 96.5823C86.9012 92.0452 81.5495 87.5551 78.6328 91.0892Z" fill="#E6E6E6"/>
<path d="M109.659 99.2882C111.062 101.499 106.947 109.596 103.404 111.243C100.589 111.73 96.3675 110.249 92.3506 108.072C94.8409 105.08 96.7727 100.641 97.084 98.3322C99.1436 98.8444 101.566 99.1474 103.753 99.2498C105.561 98.0334 108.137 97.4828 109.659 99.2882Z" fill="#EFEFEF"/>
<path d="M93.4472 96.9109C94.0484 97.3079 94.8416 97.6536 95.7542 97.9523C94.8715 101.077 92.4962 103.057 89.9761 103.573C91.1743 102.31 93.0762 99.3224 93.4472 96.9109Z" fill="#1A1313"/>
<path d="M91.2382 95.2591C91.784 95.6646 92.3298 96.0829 92.8927 96.4969C91.9759 98.298 90.6881 99.4035 89.3491 99.7876C90.2745 98.6437 91.0207 96.6847 91.2382 95.2591Z" fill="#1A1313"/>
<path d="M90.283 94.5463C89.3448 97.2651 86.4622 100.821 84.2576 102.472C83.6648 101.939 83.1361 101.418 82.6926 100.923C82.6585 100.885 82.6287 100.846 82.5945 100.812C84.6798 98.9767 86.4025 96.2664 86.411 94.4524C84.8461 96.0018 83.473 96.9365 81.6606 97.1542C82.603 96.467 84.5945 92.933 84.9356 90.9696C86.5731 91.8446 88.3726 93.125 90.283 94.5463Z" fill="#1A1313"/>
<path d="M110.201 98.9468L110.18 98.9126L110.15 98.8742C109.741 98.3834 109.186 97.9779 108.572 97.7474C107.958 97.517 107.31 97.453 106.7 97.4999C105.553 97.5938 104.517 98.012 103.592 98.5882C101.894 98.4303 100.206 98.2041 98.547 97.8755C97.6899 97.7005 96.8413 97.5042 96.0226 97.2438C95.2081 96.9877 94.4064 96.6804 93.7625 96.2536C93.0802 95.7499 92.3127 95.2207 91.592 94.7C90.8586 94.1707 90.1123 93.6628 89.3575 93.1634C87.8352 92.1903 86.2275 91.2599 84.4707 90.7349C85.9376 91.8147 87.2936 92.9586 88.6923 94.0854C90.0952 95.2164 91.4811 96.3048 92.9395 97.4487C93.7838 98.0334 94.6751 98.3919 95.5663 98.695C96.4618 98.9809 97.3615 99.2072 98.2698 99.3779C100.082 99.7151 101.903 99.8815 103.728 99.8986H103.963L104.116 99.7876C104.926 99.2456 105.873 98.8572 106.803 98.7846C107.263 98.7505 107.719 98.8017 108.12 98.9511C108.504 99.0962 108.841 99.3394 109.118 99.6553C109.242 99.8644 109.293 100.227 109.284 100.616C109.02 100.526 108.756 100.471 108.496 100.453C108.048 100.424 107.613 100.483 107.212 100.599C106.415 100.833 105.707 101.303 105.267 101.939C105.864 101.456 106.615 101.239 107.319 101.235C108.022 101.226 108.713 101.474 109.054 101.892C109.063 101.9 109.075 101.909 109.084 101.917C109.029 102.135 108.969 102.353 108.901 102.57C108.559 103.65 108.078 104.7 107.523 105.708C106.965 106.711 106.325 107.675 105.596 108.55C104.892 109.387 104.086 110.176 103.199 110.624C102.086 110.753 100.888 110.59 99.7197 110.304C98.5214 110.006 97.3402 109.574 96.1718 109.096C93.8393 108.132 91.6176 106.873 89.4642 105.52C87.3363 104.141 85.2425 102.643 83.4729 100.876C82.6029 99.9754 81.7373 99.0193 80.9058 98.059C80.0742 97.0901 79.2768 96.1085 78.5562 95.0158C78.8547 96.292 79.4773 97.4871 80.1809 98.5925C80.8973 99.7022 81.6904 100.727 82.5816 101.717C84.411 103.667 86.4919 105.276 88.6752 106.736C90.8543 108.196 93.174 109.446 95.6089 110.471C96.8285 110.983 98.0907 111.41 99.4084 111.692C100.718 111.973 102.099 112.152 103.511 111.884L103.609 111.867L103.668 111.837C104.901 111.235 105.783 110.321 106.585 109.382C107.378 108.431 108.056 107.411 108.649 106.343C109.242 105.272 109.753 104.158 110.129 102.972C110.312 102.378 110.47 101.764 110.538 101.111C110.572 100.782 110.585 100.445 110.551 100.086C110.525 99.7193 110.436 99.3267 110.201 98.9468Z" fill="black"/>
<path d="M47.8492 96.8255C50.4888 95.0244 53.0303 94.764 55.0174 96.8938C56.8681 98.8742 55.7722 102.536 54.2669 104.892C52.7659 107.253 48.6978 112.276 45.9942 114.444C43.2054 116.485 40.8089 117.185 35.1801 119.822C32.9542 122.972 29.0908 124.095 26.7753 119.199C24.464 114.304 26.1569 107.901 29.0353 106.314C31.1504 105.456 34.6428 106.126 39.5467 103.902C42.6724 101.666 45.4697 98.4474 47.8492 96.8255Z" fill="#E6E6E6"/>
<path d="M55.5973 102.046C55.3415 102.861 54.9875 103.659 54.5824 104.372C53.043 103.77 50.9023 102.639 50.4546 100.325C51.4652 101.282 53.8447 102.054 55.5973 102.046Z" fill="#1A1313"/>
<path d="M53.8531 105.515C53.2177 106.437 52.335 107.611 51.3414 108.823C49.3415 107.842 46.5953 105.742 46.1987 102.097C46.4631 103.134 50.6123 105.238 53.8531 105.515Z" fill="#1A1313"/>
<path d="M41.9216 102.003C42.2585 104.564 45.6358 109.566 49.5034 110.987C48.2839 112.353 47.0387 113.608 45.9982 114.444C45.0942 115.102 44.2371 115.623 43.2947 116.113C39.3759 114.415 38.3738 111.103 38.8812 108.234C39.9814 110.829 42.1561 112.285 44.0793 112.212C40.9067 110.3 40.1306 105.55 40.4291 103.245C40.9366 102.844 41.4312 102.43 41.9216 102.003Z" fill="#1A1313"/>
<path d="M41.781 116.852C40.1052 117.624 38.0668 118.469 35.1799 119.822C32.954 122.972 29.0906 124.095 26.7751 119.204C24.4639 114.308 26.1568 107.906 29.0394 106.318C30.7451 105.627 33.3463 105.925 36.8558 104.905C36.1735 107.744 37.2993 114.406 41.781 116.852Z" fill="#EFEFEF"/>
<path d="M55.7719 101.397C55.2943 102.502 54.7186 103.527 54.0406 104.457C53.3498 105.383 52.5822 106.292 51.8402 107.206C50.3392 109.024 48.7657 110.799 47.0984 112.434C46.6805 112.84 46.254 113.232 45.8191 113.595L45.5163 113.838L45.1624 114.086C44.9279 114.248 44.6891 114.406 44.446 114.56C43.478 115.174 42.4418 115.682 41.38 116.186C39.2394 117.172 37.0433 118.153 34.9111 119.242L34.7405 119.332L34.6553 119.46C34.0839 120.236 33.376 120.915 32.5786 121.35C31.7854 121.794 30.9027 121.952 30.1224 121.705C29.9049 121.636 29.696 121.538 29.4955 121.419C29.5126 121.41 29.5254 121.402 29.5424 121.397C29.9347 121.175 30.2673 120.889 30.5403 120.569C31.0818 119.933 31.423 119.148 31.4485 118.375C31.2055 119.11 30.698 119.703 30.1096 120.095C29.5936 120.441 28.9838 120.616 28.4977 120.544C28.374 120.394 28.2546 120.241 28.1437 120.074C27.6235 119.306 27.227 118.405 26.9455 117.483C26.3912 115.631 26.3272 113.612 26.7152 111.696C26.9114 110.74 27.2184 109.805 27.6619 108.968C28.0968 108.153 28.6811 107.411 29.3761 107.009C30.0499 106.745 30.907 106.642 31.7726 106.54C32.6639 106.442 33.5807 106.339 34.4975 106.186C36.3354 105.883 38.152 105.328 39.8406 104.534L39.9088 104.5L39.9557 104.466C41.8746 103.053 43.542 101.405 45.2136 99.8303C46.0579 99.0535 46.8724 98.2511 47.721 97.517C48.5653 96.7744 49.4523 96.1085 50.5013 95.5622C49.3115 95.6048 48.1601 96.1213 47.1495 96.7487C46.1432 97.3932 45.2434 98.1572 44.3863 98.9383C42.6849 100.475 41.0303 102.028 39.2223 103.309C37.636 104 35.9772 104.483 34.2672 104.752C33.4016 104.888 32.5232 104.973 31.6191 105.063C30.7151 105.166 29.7684 105.234 28.762 105.618L28.7194 105.635L28.6768 105.661C27.551 106.297 26.8432 107.283 26.3059 108.273C25.7771 109.276 25.4317 110.339 25.2099 111.418C24.7792 113.574 24.8475 115.823 25.4786 117.94C25.7984 118.994 26.2547 120.006 26.9114 120.936C27.5595 121.854 28.4764 122.729 29.7002 123.083C30.3015 123.262 30.9539 123.288 31.5637 123.181C32.1735 123.075 32.7449 122.848 33.2566 122.554C34.2246 121.991 34.9836 121.205 35.6019 120.347L38.7319 119.011C39.8278 118.555 40.928 118.094 42.0282 117.594C43.1284 117.104 44.2285 116.544 45.2776 115.879C45.5377 115.712 45.7978 115.541 46.0536 115.362L46.4289 115.089L46.5483 114.995L46.6378 114.918L46.8169 114.765C47.2903 114.355 47.7295 113.932 48.1644 113.501C49.0258 112.639 49.8232 111.734 50.5993 110.808C51.3669 109.882 52.1302 108.947 52.8295 107.97C53.1877 107.483 53.5289 106.988 53.853 106.476C54.1813 105.968 54.4926 105.447 54.774 104.897C55.3156 103.787 55.6866 102.6 55.7719 101.397Z" fill="black"/>
<path d="M95.9367 78.9164C93.4677 75.3141 87.7749 75.0665 83.8773 76.3085C79.9841 77.5506 74.3723 78.8267 70.4194 79.07C59.8014 77.1622 52.4285 76.825 46.3477 78.878C40.9534 81.0206 36.1646 86.5094 36.0068 93.8336C36.4588 102.745 42.3862 109.771 54.8762 110.684C70.1337 109.95 82.5384 105.567 89.3441 100.488C98.1157 93.9488 100.824 86.0485 95.9367 78.9164Z" fill="#E6E6E6"/>
<path d="M95.937 78.9164C100.828 86.0485 98.1203 93.9488 89.3487 100.492C82.543 105.571 70.1425 109.954 54.885 110.689C42.3864 109.775 36.4634 102.75 36.0156 93.8336C36.1137 89.1984 38.071 85.293 40.8641 82.5145C40.7404 87.2094 45.4738 93.4665 57.4777 92.0879C71.247 90.5087 77.8736 83.398 74.8161 78.5195C77.9333 77.9774 81.2892 77.1323 83.8862 76.3043C87.7752 75.0665 93.468 75.3141 95.937 78.9164Z" fill="#D4D4D4"/>
<path d="M98.1842 84.2516C99.1394 89.8301 95.9754 95.5494 89.3487 100.492C82.543 105.571 70.1425 109.954 54.885 110.689C48.5312 110.223 43.8789 108.179 40.7788 105.11C46.0153 107.035 54.6206 107.009 64.6501 105.464C74.1168 104.005 83.093 100.483 89.208 95.622C92.9562 92.6385 94.8112 89.5697 96.2781 85.7967C96.7003 84.6998 97.5105 84.0553 98.1842 84.2516Z" fill="#EFEFEF"/>
<path d="M70.4199 79.07C71.8569 78.9847 73.5115 78.7627 75.2257 78.4469C72.9571 81.0334 71.6821 85.2973 71.5712 89.2624C71.051 91.1318 70.3346 93.6074 69.9849 95.4213C68.8634 92.1349 68.1726 88.6008 68.4626 85.6131C67.4989 86.3985 65.9125 89.3605 65.3369 90.8074C63.6738 86.7356 64.0107 82.3736 65.8955 80.4871C65.4435 81.8444 65.597 84.4095 65.9339 85.2247C66.8166 82.7833 68.5905 80.342 70.0446 78.9975C70.164 79.0274 70.2919 79.0444 70.4199 79.07Z" fill="#332525"/>
<path d="M64.0448 78.0756C62.6418 79.5694 61.1706 82.9412 60.6206 86.535C59.5545 89.5996 59.0214 90.8971 58.2922 94.7769C57.4394 90.8374 56.7316 86.4497 57.2561 84.1108C55.9768 85.6985 54.6378 87.6149 54.19 89.7277C53.5632 85.3656 55.5376 80.5895 60.3519 77.6786C61.5331 77.7768 62.7612 77.9049 64.0448 78.0756Z" fill="#332525"/>
<path d="M56.9107 77.4994C54.0238 78.9762 51.4823 82.8602 50.3352 86.9405C49.7254 84.7253 49.8661 82.19 51.1881 79.9151C48.7617 81.0206 46.7788 83.4364 45.862 85.2845C44.8599 87.299 44.3695 89.3819 44.0284 91.7336C43.4058 89.1642 43.1201 86.185 43.9089 83.1973C44.8002 80.9096 47.0475 79.2536 49.2137 78.114H49.218C51.5505 77.6317 54.0835 77.4353 56.9107 77.4994Z" fill="#332525"/>
<path d="M71.7421 87.1198C71.6482 87.8368 71.5928 88.5581 71.5672 89.2624C71.047 91.1318 70.3306 93.6074 69.9809 95.4213C69.273 93.3385 68.7315 91.1617 68.5098 89.0831C69.7464 88.4771 70.8252 87.8197 71.7421 87.1198Z" fill="#1A1313"/>
<path d="M65.5454 90.3124C65.4601 90.4916 65.3876 90.6623 65.3279 90.8117C65.2768 90.6879 65.2256 90.5642 65.1787 90.4361C65.3024 90.3977 65.426 90.3551 65.5454 90.3124Z" fill="#1A1313"/>
<path d="M57.7466 92.0581C58.1389 92.0111 58.5227 91.9599 58.9064 91.9044C58.7018 92.7111 58.5056 93.6287 58.2924 94.7726C58.0962 93.8848 57.9129 92.9715 57.7466 92.0581Z" fill="#1A1313"/>
<path d="M44.4465 89.4502C44.276 90.1843 44.1438 90.9483 44.0329 91.7337C43.7941 90.752 43.6065 89.7105 43.5127 88.6307C43.7941 88.9167 44.1054 89.1899 44.4465 89.4502Z" fill="#1A1313"/>
<path d="M63.4645 110.509C60.6757 110.915 57.7973 111.188 54.9104 111.329H54.8337C42.9833 110.462 35.8918 104.099 35.3716 93.872V93.8251C35.5464 85.4296 41.2691 80.2097 46.1133 78.289C47.6058 77.7854 49.1153 77.4311 50.7571 77.1921C55.7206 76.475 61.6138 76.8463 70.4579 78.4298C71.2809 78.3786 72.2105 78.2762 73.2211 78.1311C76.4406 77.6659 80.4491 76.7354 83.6856 75.7025C84.4447 75.4592 85.2506 75.2757 86.0821 75.1562C89.6257 74.644 94.2141 75.2672 96.4699 78.5579C101.493 85.8863 99.037 94.0683 89.7324 101.008C83.7027 105.503 74.1294 108.968 63.4645 110.509ZM54.8891 110.048C57.7206 109.912 60.5478 109.639 63.2854 109.246C73.7457 107.735 83.1057 104.355 88.9648 99.9797C97.6425 93.5092 99.9921 85.9631 95.4123 79.2835C93.4892 76.4793 89.4253 75.9671 86.2655 76.4238C85.5022 76.5348 84.7645 76.7013 84.078 76.9232C80.7817 77.9774 76.6923 78.9249 73.4088 79.3987C72.3342 79.5524 71.3449 79.6591 70.4664 79.7145L70.3129 79.706C61.6863 78.1567 55.7121 77.7726 50.9447 78.4597C49.3797 78.6859 47.9427 79.0231 46.5568 79.4926C42.1134 81.2553 36.8257 86.0784 36.6551 93.8336C37.1413 103.313 43.785 109.225 54.8891 110.048Z" fill="black"/>
<path d="M72.7268 94.4781C70.923 96.7018 72.1511 99.9712 75.8227 104.803C81.5027 112.281 92.7518 119.477 97.9414 118.644C100.862 117.812 106.09 108.657 104.926 106.903C103.557 105.123 101.212 105.191 99.404 106.198C94.2229 104.799 90.5983 103.561 87.6517 101.354C83.2126 97.5811 76.4026 89.941 72.7268 94.4781Z" fill="#E6E6E6"/>
<path d="M104.926 106.903C106.09 108.657 100.862 117.816 97.9412 118.644C92.7516 119.477 81.5025 112.276 75.8225 104.803C72.1467 99.967 70.9229 96.7018 72.7267 94.4781C73.3322 93.7312 74.0187 93.3172 74.7649 93.155C73.8822 95.0629 74.9824 98.8829 79.3021 103.232C85.1484 109.118 91.8902 107.428 91.7452 103.693C93.8859 104.624 96.3762 105.388 99.4038 106.203C101.216 105.191 103.553 105.127 104.926 106.903Z" fill="#D4D4D4"/>
<path d="M104.926 106.903C106.09 108.657 100.862 117.816 97.9411 118.644C95.3484 119.063 91.2419 117.471 87.0757 114.841C90.4317 111.888 93.3271 106.753 93.6427 104.436C95.3313 105.055 97.2332 105.614 99.4079 106.198C101.216 105.191 103.553 105.127 104.926 106.903Z" fill="white"/>
<path d="M89.6124 102.63C90.38 103.07 91.2072 103.471 92.0899 103.838C90.5207 107.705 87.1093 109.72 83.958 109.788C85.7319 108.563 88.977 105.264 89.6124 102.63Z" fill="#332525"/>
<path d="M87.6514 101.363C88.1546 101.738 88.679 102.088 89.2249 102.413C87.7111 104.444 85.8988 105.528 84.2314 105.682C85.5406 104.632 86.854 102.639 87.4254 101.166C87.5021 101.235 87.5789 101.294 87.6514 101.363Z" fill="#332525"/>
<path d="M81.5111 95.9762C83.2637 97.3548 84.9993 98.9938 86.5301 100.377C84.8329 103.049 80.8927 106.216 78.1338 107.522C77.5453 106.898 76.9909 106.263 76.4707 105.627C79.2638 104.107 81.9503 101.474 82.4322 99.4975C80.3725 100.833 78.6711 101.55 76.6754 101.431C77.7713 100.927 80.4578 97.9951 81.5111 95.9762Z" fill="#332525"/>
<path d="M79.5453 103.467C80.2702 104.171 81.0121 104.764 81.7456 105.247C80.4962 106.198 79.2297 107.005 78.1338 107.526C77.5453 106.903 76.9909 106.267 76.4707 105.631C77.5496 105.038 78.6157 104.286 79.5453 103.467Z" fill="#1A1313"/>
<path d="M91.7488 103.693C91.8639 103.744 91.9791 103.791 92.0899 103.838C90.5207 107.705 87.1093 109.72 83.958 109.788C84.7682 109.233 85.8854 108.234 86.9216 107.069C89.7702 107.223 91.8256 105.776 91.7488 103.693Z" fill="#1A1313"/>
<path d="M77.3276 101.004C77.4342 101.141 77.545 101.282 77.6559 101.422C77.3361 101.448 77.0078 101.452 76.6709 101.435C76.8543 101.354 77.0802 101.2 77.3276 101.004Z" fill="#1A1313"/>
<path d="M105.497 106.467C105.126 105.994 104.649 105.584 104.103 105.298C103.557 105.012 102.956 104.854 102.363 104.816C101.276 104.752 100.239 105.033 99.3312 105.507C97.4336 104.909 95.5403 104.32 93.7109 103.629C91.809 102.912 89.9754 102.063 88.3465 100.919L88.1972 100.808L88.1247 100.757L88.0863 100.727L87.7878 100.479L87.1994 99.9798L86.0224 98.9597C85.2463 98.2682 84.4446 97.5938 83.6259 96.9323C82.7986 96.2835 81.9415 95.6604 81.0375 95.1056C80.1292 94.5635 79.1698 94.0684 78.1506 93.7782C79.8563 95.0117 81.3189 96.4329 82.8157 97.8585L85.0672 100.001L86.2101 101.077L86.7943 101.614L87.0885 101.875L87.1268 101.909L87.2036 101.973L87.2847 102.033L87.4467 102.157C89.1993 103.454 91.1736 104.389 93.1693 105.106C94.1714 105.464 95.1778 105.78 96.1927 106.053C97.2076 106.331 98.2182 106.595 99.2373 106.817L99.5188 106.881L99.7192 106.762C100.512 106.339 101.421 106.117 102.265 106.198C103.096 106.267 103.826 106.664 104.32 107.308C104.329 107.325 104.372 107.517 104.35 107.722C104.047 107.603 103.736 107.539 103.438 107.526C102.986 107.505 102.559 107.569 102.158 107.692C101.365 107.94 100.666 108.422 100.235 109.062C100.828 108.567 101.57 108.341 102.278 108.324C102.981 108.303 103.672 108.542 104.022 108.951C104.035 108.964 104.052 108.977 104.065 108.986C103.949 109.34 103.817 109.694 103.668 110.044C103.216 111.09 102.666 112.114 102.069 113.104C101.468 114.09 100.807 115.046 100.077 115.917C99.7107 116.352 99.3269 116.766 98.9218 117.125C98.538 117.466 98.1031 117.774 97.7577 117.88C96.6191 118.038 95.3185 117.774 94.0904 117.39C92.8282 116.988 91.5873 116.459 90.3805 115.849C87.9626 114.624 85.6727 113.109 83.5108 111.444C81.3488 109.775 79.3233 107.919 77.511 105.887C76.6027 104.88 75.7498 103.808 74.8842 102.737C74.0356 101.657 73.2126 100.569 72.4834 99.3737C72.8032 100.744 73.4386 102.028 74.1422 103.241C74.4961 103.851 74.8799 104.436 75.2765 105.012C75.6646 105.592 76.1123 106.156 76.5558 106.698C78.3681 108.866 80.432 110.795 82.6238 112.567C84.8156 114.329 87.1653 115.908 89.6812 117.219C90.9434 117.872 92.2482 118.461 93.6298 118.892C94.3206 119.105 95.0328 119.285 95.7705 119.391C96.5082 119.498 97.2801 119.541 98.0732 119.417L98.1286 119.408L98.167 119.396C98.9644 119.144 99.4761 118.713 99.9751 118.29C100.457 117.859 100.883 117.394 101.28 116.92C102.077 115.968 102.768 114.957 103.404 113.911C104.039 112.865 104.606 111.781 105.071 110.633C105.301 110.057 105.514 109.468 105.668 108.832C105.745 108.512 105.804 108.183 105.826 107.816C105.83 107.453 105.855 107.035 105.536 106.506L105.527 106.489L105.497 106.467Z" fill="black"/>
<path d="M43.9557 93.1507C46.6038 91.7593 49.4225 91.4989 51.2988 93.7226C52.9021 95.6262 52.2838 98.742 50.1304 101.687C48.4758 103.945 42.041 109.75 38.1478 111.743C32.8985 114.124 24.6472 114.103 22.8946 114.274C21.0439 116.433 16.7796 117.919 15.1677 112.746C13.5558 107.573 15.3681 100.752 18.8733 98.8657C19.6452 98.2469 28.3016 100.688 34.3739 98.678C39.8577 96.4927 41.4057 94.4866 43.9557 93.1507Z" fill="#E6E6E6"/>
<path d="M51.2991 93.7226C52.9024 95.622 52.2841 98.7462 50.1307 101.687C48.4762 103.945 42.0456 109.75 38.1481 111.743C32.8988 114.129 24.6475 114.103 22.8949 114.274C21.0442 116.433 16.7757 117.919 15.1638 112.746C13.5519 107.573 15.3642 100.752 18.8694 98.8657C19.5389 98.3365 26.0931 100.082 31.7773 99.2712C27.9395 105.883 40.1225 104.337 44.8515 100.317C48.425 97.278 48.7363 93.9701 47.8194 92.0793C49.1286 92.0964 50.3354 92.583 51.2991 93.7226Z" fill="#D4D4D4"/>
<path d="M50.1057 101.721C49.7091 102.255 49.0524 102.984 48.2294 103.808C46.8733 102.643 45.3126 100.825 45.4192 98.4303C46.1697 99.7278 48.1953 100.944 50.1057 101.721Z" fill="#1A1313"/>
<path d="M47.0524 104.948C46.0375 105.904 44.8776 106.924 43.6921 107.897C41.8627 106.215 39.5515 103.061 40.3021 98.9895C40.2466 100.15 43.7689 103.527 47.0524 104.948Z" fill="#1A1313"/>
<path d="M41.2525 109.775C40.1395 110.578 39.0692 111.269 38.1481 111.743C36.5831 112.451 34.7538 112.955 32.9031 113.305C29.078 110.211 29.0311 106.258 30.5151 103.279C30.8648 106.42 32.7282 108.678 34.8049 109.207C32.2123 106.352 32.6259 101.495 33.5513 98.9212C33.8284 98.8487 34.1013 98.7676 34.3742 98.6822C34.8433 98.4944 35.2825 98.3109 35.6961 98.1273C35.5511 101.282 37.6492 107.308 41.2525 109.775Z" fill="#1A1313"/>
<path d="M46.0155 99.1943C45.862 99.3693 45.6957 99.5358 45.5209 99.7065C45.4399 99.3053 45.3972 98.8742 45.4185 98.4303C45.5721 98.6907 45.7682 98.9468 46.0155 99.1943Z" fill="#332525"/>
<path d="M40.3014 98.9895C40.2758 99.57 41.1415 100.705 42.425 101.875C41.7939 102.191 41.1244 102.477 40.4378 102.72C40.1394 101.593 40.0498 100.343 40.3014 98.9895Z" fill="#332525"/>
<path d="M35.696 98.1231C35.632 99.5657 36.0328 101.602 36.8345 103.629C35.3079 103.855 33.8922 103.842 32.8389 103.527C32.8048 101.785 33.1246 100.108 33.5511 98.9212C33.8282 98.8487 34.1011 98.7676 34.374 98.6822C34.8388 98.4902 35.2823 98.3066 35.696 98.1231Z" fill="#332525"/>
<path d="M30.9714 113.616C27.3084 114.137 23.9439 114.171 22.8949 114.27C21.0442 116.429 16.7757 117.914 15.1638 112.741C13.5519 107.568 15.3642 100.748 18.8694 98.8614C19.4365 98.409 24.285 99.6127 29.2188 99.4761C27.8414 102.139 26.7966 110.065 30.9714 113.616Z" fill="white"/>
<path d="M52.0536 97.6707C51.4737 99.0621 50.672 100.274 49.7467 101.384C48.8214 102.451 47.7169 103.463 46.6466 104.461C45.5592 105.456 44.4291 106.412 43.2735 107.33C42.1179 108.243 40.9453 109.135 39.7257 109.933C39.1159 110.33 38.4976 110.706 37.8708 111.026L37.8238 111.051H37.8196L37.7897 111.064L37.6618 111.12L37.4187 111.222L36.9241 111.418C36.5914 111.542 36.2503 111.662 35.9092 111.768C34.5361 112.195 33.1076 112.498 31.6662 112.742C30.2249 112.972 28.7665 113.151 27.2996 113.284C25.8199 113.424 24.3829 113.48 22.8392 113.625L22.5749 113.651L22.4086 113.851C21.786 114.551 20.9501 115.106 20.076 115.379C19.2018 115.665 18.2935 115.618 17.5942 115.17C17.5814 115.162 17.5729 115.153 17.5601 115.144C17.6155 115.11 17.6752 115.08 17.7264 115.042C18.0973 114.782 18.3958 114.466 18.6346 114.12C19.1122 113.433 19.3724 112.622 19.3255 111.845C19.1591 112.601 18.7071 113.241 18.1613 113.689C17.7136 114.06 17.172 114.287 16.6987 114.295C16.4301 113.92 16.2083 113.48 16.0377 113.019C15.6966 112.101 15.5004 111.12 15.3938 110.125C15.1849 108.132 15.3896 106.07 15.9866 104.154C16.2893 103.198 16.6944 102.276 17.2275 101.457C17.7562 100.641 18.43 99.9285 19.2188 99.5017L19.2274 99.4974C19.2572 99.4932 19.2999 99.4889 19.3511 99.4889C19.4662 99.4847 19.6069 99.4889 19.7477 99.4932C20.0334 99.5102 20.3361 99.5401 20.6389 99.57L22.481 99.7749C23.7219 99.9157 24.9756 100.035 26.2378 100.099C28.7538 100.219 31.3379 100.168 33.8623 99.4761C34.0201 99.4334 34.1736 99.3865 34.3314 99.3352L34.566 99.2584L34.8218 99.156L35.6959 98.7804C36.2759 98.5201 36.8516 98.2511 37.4187 97.9566C38.553 97.3762 39.6489 96.7103 40.6894 95.9848C41.7384 95.2677 42.6893 94.4696 43.6914 93.7952C44.6935 93.1166 45.7553 92.5276 46.9579 92.1264C45.6828 92.0666 44.3993 92.4721 43.248 93.0397C42.0924 93.6287 41.0775 94.38 40.0583 95.0586C39.0392 95.7458 37.9859 96.3604 36.89 96.9024C36.3441 97.1756 35.7855 97.4274 35.2226 97.6664L34.374 98.0164L34.195 98.089L33.9818 98.153C33.841 98.1957 33.696 98.2383 33.5511 98.2725C31.2398 98.87 28.7751 98.8914 26.3402 98.7335C25.1206 98.6524 23.901 98.5158 22.6729 98.3579C22.0589 98.281 21.4448 98.1957 20.8179 98.1274C20.5024 98.0932 20.1869 98.0591 19.85 98.042C19.6794 98.0335 19.5089 98.025 19.3127 98.0335C19.2146 98.0378 19.1123 98.0463 18.9843 98.0633C18.8607 98.0932 18.7114 98.0932 18.43 98.2938L18.5408 98.2213C17.4492 98.8103 16.6347 99.7108 16.0079 100.667C15.3811 101.627 14.9247 102.669 14.5879 103.727C13.9226 105.853 13.7009 108.089 13.9269 110.296C14.0463 111.397 14.2851 112.494 14.6902 113.552C15.1038 114.602 15.752 115.691 16.8522 116.369C17.3938 116.707 18.0377 116.899 18.6688 116.937C19.2999 116.976 19.9225 116.873 20.4939 116.681C21.5472 116.318 22.4555 115.699 23.1974 114.901C23.8243 114.871 24.5023 114.867 25.159 114.837C25.9052 114.807 26.6557 114.769 27.4063 114.722C28.903 114.624 30.4083 114.483 31.9008 114.244C33.3976 114.009 34.8943 113.698 36.3612 113.228C36.7279 113.113 37.0946 112.985 37.4571 112.848L38.0029 112.631L38.2716 112.515L38.3995 112.46L38.5019 112.413L38.5658 112.379C39.2652 112.012 39.9133 111.598 40.5444 111.171C43.0646 109.447 45.3417 107.475 47.5122 105.388C48.0538 104.863 48.5868 104.329 49.0943 103.766C49.6102 103.206 50.0921 102.622 50.5356 101.96C51.3543 100.658 51.9897 99.1902 52.0536 97.6707ZM19.2018 99.5017C19.189 99.506 19.1933 99.506 19.2018 99.5017V99.5017Z" fill="black"/>
<path d="M100.892 64.8144C102.952 62.8937 105.639 59.0225 105.263 56.9098C104.982 55.3434 103.882 55.1043 101.443 53.7898C98.4917 52.1977 95.9332 49.7478 94.1422 48.1814C92.0698 47.029 90.1679 48.8131 88.8971 52.266C87.3364 56.5171 87.5923 64.3193 93.2382 67.7039C95.349 68.3826 98.0823 67.435 100.892 64.8144Z" fill="#E6E6E6"/>
<path d="M105.263 56.9098C105.122 56.6281 104.973 56.3762 104.781 56.1756C104.594 55.975 104.376 55.8256 104.137 55.6976C103.66 55.4458 103.105 55.2452 102.551 55.0147C102.001 54.7842 101.447 54.5324 100.901 54.2507C100.351 53.9562 99.822 53.6404 99.306 53.3032C98.2741 52.6331 97.2975 51.8947 96.3509 51.1264C95.4085 50.3624 94.5002 49.56 93.6133 48.7832L93.7497 48.8771C93.0418 48.4887 92.4022 48.5741 91.7498 49.1076C91.1144 49.6411 90.5856 50.4606 90.1635 51.327C89.9503 51.7624 89.7626 52.2191 89.592 52.6843C89.4343 53.1282 89.2978 53.6062 89.1912 54.08C88.9823 55.0361 88.8586 56.022 88.8202 57.0122C88.752 58.9926 89.059 60.9944 89.8053 62.8126C90.5216 64.6479 91.6645 66.2783 93.2295 67.7039C91.2125 67.0082 89.5665 65.3009 88.6283 63.3333C87.6987 61.3444 87.3192 59.1505 87.3149 56.9866C87.3149 55.8982 87.4173 54.8141 87.6476 53.7385C87.7584 53.2007 87.9034 52.6715 88.0867 52.138C88.2658 51.6258 88.4663 51.1179 88.7051 50.6185C89.1827 49.6241 89.7584 48.6253 90.7392 47.8314C91.2253 47.443 91.8521 47.1144 92.56 47.0376C93.2721 46.9565 93.9757 47.1656 94.5258 47.4814L94.6068 47.5283L94.6622 47.5796C95.5705 48.382 96.4362 49.193 97.3231 49.9698C98.2144 50.7466 99.1227 51.485 100.078 52.1508C100.555 52.4837 101.046 52.7995 101.54 53.0898C102.044 53.3885 102.56 53.6745 103.071 53.9903C103.327 54.1483 103.587 54.3105 103.839 54.4983C104.095 54.6775 104.355 54.8738 104.585 55.1171C104.82 55.3519 105.024 55.6421 105.14 55.9622C105.267 56.2738 105.293 56.6025 105.263 56.9098Z" fill="black"/>
<path d="M107.489 54.2166C107.728 53.3715 107.668 51.1777 106.32 50.2942C110.853 50.8448 112.55 53.8452 112.521 56.2397C113.395 54.9635 113.749 51.3398 112.03 49.9442C114.593 49.9911 118.678 52.9404 117.489 57.8701C119.493 57.247 120.068 53.1282 119.766 51.3398C123.791 54.1782 123.949 60.017 121.561 61.9035C123.834 64.665 124.789 70.0984 124.362 72.6934C123.207 74.1958 121.216 78.0755 122.486 79.5096C123.467 80.5809 124.733 80.3505 125.484 80.1627C126.068 79.4712 130.648 79.0999 130.951 81.251C131.254 83.4064 130.286 85.66 129.185 86.2661C128.874 88.7246 125.348 91.2044 123.953 91.1788C120.563 91.008 118.926 87.9691 117.51 87.6917C109.992 89.5185 111.301 94.1963 117.949 96.0274C118.648 97.0645 115.949 99.7791 113.207 100.646C109.873 100.385 106.355 98.2596 104.303 95.0927C99.843 94.7469 95.0116 95.6006 91.3443 96.2792C91.0629 95.464 91.0757 92.9714 91.7452 91.7635C88.7048 92.1391 84.2444 90.9227 82.3127 88.8953C84.2955 88.0929 86.4746 86.8125 87.3061 85.9759C84.3424 84.1662 77.3021 79.7273 76.0996 71.0032C77.5281 72.3178 79.1486 73.0178 80.9481 73.9397C78.2275 70.4441 77.3661 67.6997 77.1827 63.8669C80.5771 63.7431 85.8477 61.4895 91.9968 57.1488C95.9455 54.3532 102.329 52.2063 107.489 54.2166Z" fill="#E6E6E6"/>
<path d="M127.305 82.8729C128.439 83.9315 127.876 85.7155 129.173 86.2747C128.866 88.7331 125.335 91.2129 123.941 91.183C120.124 91.0849 118.644 87.3502 117.207 87.649C111.152 89.4629 110.124 93.5092 117.936 96.0316C118.636 97.0688 115.937 99.7834 113.19 100.65C109.856 100.385 106.338 98.2596 104.287 95.0969C103.835 95.0628 103.374 95.0372 102.918 95.0286C101.826 89.9965 105.933 86.9533 107.894 86.3771C106.312 86.1509 104.444 85.8777 102.653 86.5948C106.21 81.3919 112.363 81.887 113.792 81.9126C116.491 81.0504 121.109 81.8827 122.734 82.6041C123.778 82.4632 125.616 82.2583 126.823 82.4803C126.968 82.5998 127.13 82.7278 127.305 82.8729Z" fill="#F5F5F5"/>
<path d="M126.824 82.4803C125.732 81.5712 125.54 81.2426 125.476 80.1713C126.06 79.4798 130.64 79.1085 130.943 81.2639C131.246 83.415 130.282 85.6729 129.173 86.279C127.941 85.8991 128.469 84.0126 127.305 82.8773C127.131 82.7279 126.969 82.5998 126.824 82.4803Z" fill="black"/>
<path d="M91.984 57.1489C94.9861 55.0276 99.374 53.2862 103.566 53.4356C99.2759 54.1398 93.2079 57.6184 91.8731 64.7462C90.5555 71.7801 92.6322 74.9257 95.0287 77.1921C93.0885 77.9219 91.4127 78.3445 87.7582 78.1055C91.4169 82.3011 95.8219 82.587 98.7855 83.0181C96.8752 84.9601 93.5533 86.6247 92.0267 87.1753C94.291 88.7033 96.372 89.2838 98.7386 89.446C97.9924 90.7904 96.9817 91.4819 96.082 92.3056C97.5361 93.347 99.2887 94.2561 101.647 95.0159C97.9881 95.0756 94.2825 95.733 91.3316 96.2793C91.0502 95.4683 91.063 92.9714 91.7324 91.7635C88.692 92.1391 84.2316 90.927 82.2999 88.8954C84.2828 88.0972 86.4618 86.8125 87.2891 85.9802C84.3254 84.1705 77.2852 79.7316 76.0869 71.0075C77.5154 72.3221 79.1316 73.0221 80.9354 73.944C78.2148 70.4484 77.3534 67.704 77.17 63.8712C80.5643 63.7474 85.835 61.4938 91.984 57.1489Z" fill="#D4D4D4"/>
<path d="M131.603 81.3792L131.582 81.1956C131.556 81.0078 131.514 80.8456 131.445 80.6749C131.309 80.3377 131.079 80.0475 130.823 79.8384C130.567 79.6249 130.29 79.4798 130.017 79.3646C129.467 79.1427 128.921 79.053 128.384 79.0103C127.842 78.9719 127.309 78.989 126.776 79.0573C126.507 79.0957 126.239 79.1426 125.962 79.2237C125.821 79.2664 125.68 79.3091 125.527 79.3774C125.42 79.4329 125.309 79.4798 125.185 79.578C124.448 79.753 123.783 79.7274 123.284 79.3646C123.22 79.3176 123.151 79.2622 123.092 79.2109C123.066 79.1853 123.041 79.1682 122.998 79.1213L122.968 79.0914L122.964 79.0829L122.934 79.0488C122.861 78.9549 122.806 78.831 122.768 78.6859C122.695 78.3871 122.704 78.0031 122.772 77.6147C122.904 76.8336 123.211 76.0312 123.574 75.2629C123.94 74.4989 124.375 73.7391 124.87 73.0861L124.972 72.9538L124.994 72.8002C125.156 71.763 125.113 70.7728 125.023 69.7911C124.925 68.8137 124.755 67.8449 124.52 66.8931C124.286 65.9413 123.983 65.0065 123.591 64.0931C123.249 63.3078 122.836 62.5438 122.311 61.831C123.475 60.4225 124.038 58.3567 123.714 56.3336C123.134 52.7398 120.972 50.704 118.763 49.3851C119.203 52.1338 119.25 54.9123 118 57.0507C118.55 55.0788 117.744 52.7655 117.156 51.946C115.706 49.9229 113.433 49.1119 110.704 48.9071C111.872 50.132 113.13 52.4197 112.593 54.5709C112.209 52.8892 111.344 51.9588 110.73 51.3698C109.22 49.9229 106.875 49.5771 105.139 49.7223C106.056 50.4692 107.143 52.0228 106.998 53.6404C105.881 53.2307 104.7 52.9917 103.51 52.9319C102.094 52.8465 100.674 52.9874 99.2971 53.2819C97.9155 53.5722 96.5723 54.0075 95.2845 54.5751C93.9967 55.1385 92.7558 55.8257 91.5959 56.6324C89.3657 58.1775 87.063 59.6116 84.658 60.8194C83.4554 61.417 82.2231 61.9548 80.9694 62.3944C79.7157 62.8255 78.4236 63.1669 77.1572 63.2267L76.5004 63.2566L76.5388 63.8968V63.9011C76.6625 65.7577 76.9823 67.6528 77.7029 69.4112C78.1677 70.5722 78.7861 71.652 79.4897 72.6593C79.2125 72.5014 78.9353 72.3435 78.6667 72.1813C77.882 71.699 77.1529 71.1612 76.5303 70.5295L75.2681 69.2533L75.4642 71.0886V71.0972C75.7201 72.749 76.2019 74.3666 76.897 75.8818C77.5878 77.397 78.4961 78.8097 79.5451 80.0816C80.5984 81.3578 81.7966 82.4974 83.0802 83.5132C84.2443 84.4394 85.4895 85.2546 86.7559 86.0058C86.4958 86.1979 86.2187 86.3814 85.933 86.5521C85.5279 86.7912 85.1057 87.0131 84.6835 87.218C83.8307 87.632 82.9522 87.999 82.0695 88.2978L81.1826 88.5966L81.8436 89.3307L81.8521 89.3393C82.5386 90.0008 83.319 90.4703 84.1207 90.8459C84.9223 91.2215 85.7581 91.4989 86.6024 91.7123C87.4468 91.9215 88.3039 92.0666 89.1695 92.1306C89.8476 92.1818 90.5341 92.1819 91.2121 92.1178C91.1183 92.3312 91.0415 92.5489 90.9776 92.7666C90.8624 93.155 90.7814 93.5519 90.7217 93.9531C90.662 94.35 90.6279 94.7513 90.6151 95.161C90.6151 95.5793 90.5981 95.9677 90.7303 96.4799L90.8539 96.9664L91.4509 96.9024H91.4637C93.5958 96.5055 95.7237 96.1384 97.8558 95.9037C99.8899 95.6817 101.928 95.5793 103.945 95.7073C104.96 97.1884 106.278 98.4475 107.783 99.4035C109.382 100.419 111.211 101.115 113.143 101.277L113.267 101.286L113.386 101.247C114.614 100.85 115.71 100.206 116.687 99.4078C117.173 99.0023 117.629 98.5627 118.03 98.0249C118.201 97.7945 118.358 97.5469 118.486 97.2524C118.508 97.2012 118.533 97.1542 118.554 97.0987C118.593 96.992 118.623 96.8768 118.648 96.7573C118.665 96.6634 118.682 96.5695 118.687 96.4628C118.695 96.2195 118.64 95.9122 118.465 95.6604L118.405 95.5708L118.316 95.5024L118.307 95.4939C117.638 95.0287 112.926 94.0684 112.981 91.691C113.024 89.8984 116.661 87.4314 118.265 88.7246C118.853 89.1984 120.469 91.7209 123.881 91.7038L123.906 91.7081H123.932C124.307 91.7081 124.601 91.6313 124.883 91.5331C124.942 91.5118 125.002 91.4904 125.062 91.4691C125.207 91.4136 125.343 91.3538 125.48 91.2855C125.608 91.2258 125.727 91.1618 125.851 91.0977C125.851 91.0977 125.851 91.0977 125.855 91.0977C125.902 91.0721 125.949 91.0508 125.996 91.0252C126.58 90.688 127.121 90.2953 127.625 89.8514C128.128 89.4075 128.593 88.9082 128.985 88.3363C129.322 87.8412 129.607 87.2734 129.748 86.6375C130.192 86.3131 130.486 85.9119 130.733 85.5107C131.019 85.0284 131.224 84.5205 131.373 83.9955C131.518 83.4748 131.607 82.937 131.633 82.395C131.646 82.1218 131.646 81.8529 131.625 81.5755L131.603 81.3792ZM130.354 82.348C130.332 82.7919 130.26 83.2358 130.141 83.6626C130.021 84.0894 129.851 84.5035 129.633 84.8705C129.42 85.2333 129.138 85.5619 128.874 85.7071H128.87L128.571 85.9034L128.541 86.1894C128.49 86.6802 128.264 87.1924 127.957 87.6661C127.65 88.1442 127.258 88.588 126.827 88.9935C126.397 89.399 125.919 89.7618 125.42 90.0648C125.33 90.1203 125.237 90.1715 125.143 90.2227C124.981 90.3124 124.819 90.3935 124.657 90.4618C124.414 90.5642 124.149 90.641 123.97 90.6453C123.339 90.5727 121.757 90.4916 120.363 89.1429C119.399 88.2124 118.154 86.5351 115.941 87.3588C113.727 88.1826 111.037 90.3337 111.796 92.4806C112.725 95.1183 116.619 95.7756 117.412 96.4244C117.412 96.4286 117.412 96.4287 117.412 96.4329C117.412 96.4799 117.395 96.5653 117.361 96.6592C117.343 96.6976 117.318 96.7445 117.301 96.7829C117.224 96.9408 117.126 97.1073 117.007 97.2695C116.695 97.6835 116.299 98.0761 115.877 98.4261C115.054 99.1005 114.107 99.6554 113.118 99.9883C111.484 99.8304 109.881 99.2243 108.474 98.328C107.024 97.406 105.766 96.1769 104.832 94.7428L104.662 94.4781L104.346 94.4525C102.12 94.2818 99.907 94.397 97.7194 94.6361C95.7237 94.8537 93.7494 95.1866 91.7921 95.5451C91.7665 95.4043 91.7409 95.2592 91.7238 95.1183C91.6812 94.7598 91.6599 94.3927 91.6556 94.03C91.6599 93.3044 91.7238 92.5446 91.9882 91.9172L91.9925 91.9087L92.2697 91.4179L91.694 91.4648C90.8838 91.5331 90.0608 91.4861 89.2463 91.3709C88.4318 91.2557 87.6302 91.0636 86.8541 90.8118C86.078 90.5599 85.3189 90.2441 84.6196 89.86C84.1847 89.6209 83.771 89.3435 83.4 89.0405C83.9927 88.7289 84.577 88.4002 85.1398 88.0375C85.5577 87.7728 85.9671 87.4911 86.3594 87.1924C86.756 86.8893 87.144 86.5778 87.498 86.1936L87.5065 86.1851L87.7837 85.9205L87.4468 85.7071C86.0865 84.8492 84.7731 83.94 83.5578 82.9071C82.3467 81.8785 81.2295 80.7389 80.27 79.4883C79.3063 78.2378 78.5004 76.8762 77.8991 75.4336C77.494 74.4647 77.1912 73.4532 76.9738 72.4288C77.3576 72.6679 77.7499 72.8855 78.1422 73.0861C79.0121 73.5257 79.8862 73.8928 80.7391 74.2855L80.7476 74.2898L82.2998 75.122L81.2423 73.6922C80.172 72.2496 79.2381 70.7088 78.6581 69.0442C78.1379 67.5802 77.9034 66.0309 77.8266 64.4602C79.0633 64.345 80.2402 64.0291 81.383 63.6535C82.7177 63.2096 84.0013 62.6462 85.2464 62.0231C87.7325 60.7768 90.0864 59.3 92.3294 57.6952C94.4828 56.1586 96.9646 55.0532 99.536 54.4129C100.828 54.1056 102.146 53.9307 103.463 53.9264C104.781 53.9307 106.103 54.1185 107.357 54.541L107.821 54.6947C107.821 54.6947 108.461 53.0471 107.89 51.2759C108.742 51.5021 110.133 52.0911 111.156 53.7557C112.154 55.369 112.405 57.2939 112.405 57.2939C112.405 57.2939 114.376 54.3148 113.57 51.0241C114.879 51.3442 115.898 52.4752 116.41 53.5038C117.599 55.8983 117.079 58.6598 117.079 58.6598C117.079 58.6598 120.188 57.4049 120.52 53.2136C121.561 54.1996 122.166 56.1501 122.23 57.5628C122.367 60.5506 120.781 61.9719 120.781 61.9719L121.058 62.309C121.608 62.9791 122.043 63.773 122.405 64.6053C122.763 65.4376 123.049 66.3126 123.271 67.2046C123.493 68.0967 123.655 69.0058 123.744 69.9149C123.825 70.7728 123.851 71.652 123.74 72.4587C123.215 73.18 122.789 73.927 122.409 74.708C122.013 75.5489 121.672 76.4238 121.501 77.4013C121.424 77.8921 121.386 78.4171 121.518 78.9847C121.586 79.2664 121.71 79.5652 121.911 79.8255L121.987 79.9194L122.068 80.0005C122.098 80.0347 122.158 80.0944 122.213 80.1456C122.32 80.2438 122.422 80.3292 122.542 80.4103C123.002 80.7389 123.569 80.9225 124.111 80.9523C124.652 80.9865 125.168 80.8968 125.629 80.7773L125.787 80.7389L125.962 80.5725C125.91 80.6237 125.974 80.5639 126.043 80.5383C126.115 80.5042 126.209 80.4743 126.307 80.4445C126.503 80.389 126.721 80.3463 126.938 80.3164C127.382 80.2566 127.838 80.2438 128.281 80.278C128.725 80.3121 129.164 80.3932 129.531 80.5426C129.902 80.692 130.166 80.9096 130.256 81.1487C130.281 81.2084 130.298 81.281 130.307 81.3408L130.328 81.5243L130.341 81.6779C130.362 81.9041 130.367 82.1304 130.354 82.348Z" fill="black"/>
<path d="M110.474 70.7215C112.857 70.1283 117.83 70.5593 118.772 72.1599C120.26 74.6866 120.06 79.3261 119.633 81.4047C120.047 81.2084 120.397 80.9139 120.665 80.6236C120.52 81.17 119.625 82.6083 119.186 83.0138C117.757 80.82 113.356 77.8451 108.623 79.3475C110.316 76.8805 115.766 75.2159 118.593 80.3377C118.039 74.0251 114.951 71.8569 110.474 70.7215Z" fill="black"/>
<path d="M118.78 64.6395C116.26 63.8627 111.531 63.82 109.8 64.3749C108.269 65.6383 106.896 68.882 106.644 70.1113C104.162 70.171 99.2967 71.5667 97.3139 72.5099C100.593 72.6295 104.512 73.5599 105.633 74.2514C102.086 74.3282 92.4697 75.9714 90.9303 86.6248C90.0135 83.8803 89.4932 80.1243 89.6851 77.4738C91.5017 76.1891 97.5271 74.2727 99.429 74.0465C97.3821 73.3593 93.2159 73.7008 91.4676 74.055C94.056 70.9265 100.005 68.8735 104.542 68.7198C105.088 65.4163 107.531 62.642 108.495 62.2749C112.175 61.8737 115.727 62.5865 118.78 64.6395Z" fill="#332525"/>
<path d="M113.118 59.6926C109.902 59.5603 106.457 60.414 105.352 60.7896C103.971 61.7585 102.585 64.7504 102.095 65.715C100.901 65.8858 97.7535 66.5687 96.3335 67.465C97.1949 65.8303 98.9986 65.2541 99.5487 65.0663C100.052 62.7188 101.557 60.064 102.423 59.3512C106.052 58.4933 109.689 58.6213 113.118 59.6926Z" fill="#332525"/>
<path d="M101.204 55.8471C100.419 56.594 99.7537 57.8745 99.3955 59.6031C100.513 58.3952 103.66 56.3678 108.756 56.6751C106.551 55.8386 104.82 55.4246 101.204 55.8471Z" fill="#332525"/>
<path d="M124.008 85.5236C124.026 85.7668 123.804 85.9845 123.505 86.0059C123.207 86.0315 122.951 85.8522 122.93 85.6089C122.908 85.3657 123.134 85.148 123.433 85.1266C123.731 85.101 123.987 85.2803 124.008 85.5236Z" fill="#B7B7B7"/>
<path d="M124.708 86.693C124.721 86.8594 124.58 87.0045 124.393 87.0216C124.205 87.0387 124.043 86.9149 124.03 86.7485C124.017 86.582 124.158 86.4369 124.346 86.4198C124.529 86.4028 124.691 86.5265 124.708 86.693Z" fill="#B7B7B7"/>
<path d="M125.382 85.6302C125.399 85.818 125.22 85.9845 124.989 86.0058C124.759 86.0229 124.559 85.8863 124.542 85.7028C124.525 85.5193 124.704 85.3486 124.934 85.3272C125.169 85.3059 125.369 85.4424 125.382 85.6302Z" fill="#B7B7B7"/>
<path d="M129.245 81.4602C129.211 81.7803 128.691 81.9852 128.09 81.9212C127.484 81.8571 127.02 81.5456 127.058 81.2255C127.092 80.9053 127.608 80.7005 128.213 80.7645C128.815 80.8285 129.28 81.1401 129.245 81.4602Z" fill="#F5F5F5"/>
<path d="M95.029 77.192C93.4597 77.781 92.061 78.1695 89.6475 78.1695C89.6517 77.9304 89.6646 77.6957 89.6816 77.4738C90.4534 76.9317 91.9843 76.2702 93.6345 75.6769C94.0695 76.2403 94.5428 76.7311 95.029 77.192Z" fill="#1A1313"/>
<path d="M92.24 73.2483C92.3253 73.466 92.419 73.6836 92.5171 73.8885C92.1163 73.944 91.7581 74.0038 91.4639 74.0593C91.6941 73.7776 91.9543 73.5086 92.24 73.2483Z" fill="#1A1313"/>
<path d="M92.5257 81.5925C91.7752 82.9968 91.2123 84.6528 90.9309 86.6247C90.2742 84.6571 89.8179 82.1645 89.6899 79.9365C90.6238 80.6621 91.579 81.1913 92.5257 81.5925Z" fill="#1A1313"/>
<path d="M93.7834 66.6711C95.6896 64.4559 98.069 60.1152 97.5317 57.9043C97.1266 56.261 96.0179 56.1031 93.4806 54.908C90.4146 53.4654 87.677 51.0752 85.7709 49.5643C83.6174 48.5143 81.852 50.5716 80.8542 54.3489C79.6261 58.997 80.4832 67.2686 86.3721 70.3929C88.5341 70.9264 91.1822 69.6929 93.7834 66.6711Z" fill="#E6E6E6"/>
<path d="M85.4301 53.5166C87.8692 57.4092 90.9011 59.2274 93.1953 60.7896C93.6089 61.5066 91.3659 66.7778 88.0867 67.2985C85.6944 65.6297 84.5857 63.5511 83.9887 60.4823C83.396 57.4263 84.2318 53.2179 85.4301 53.5166Z" fill="#DAB5B5"/>
<path d="M97.5273 57.9C97.2544 57.3281 96.8749 56.8884 96.3674 56.6537C95.8728 56.3933 95.2928 56.2311 94.7172 56.0263C94.133 55.8385 93.5616 55.608 92.9816 55.3775C92.3932 55.1257 91.8345 54.8397 91.2887 54.5239C89.1182 53.2605 87.1651 51.6898 85.2633 50.196L85.4126 50.2899C85.0373 50.1106 84.6919 50.0594 84.3721 50.1405C84.048 50.2173 83.7154 50.4393 83.4169 50.7636C82.8156 51.4167 82.3807 52.3557 82.0225 53.3074C81.8476 53.7898 81.6941 54.2848 81.5619 54.7928C81.4425 55.2708 81.3444 55.7872 81.2762 56.2994C81.1398 57.3238 81.0971 58.3695 81.1312 59.4109C81.208 61.4981 81.6557 63.5766 82.5086 65.4631C83.3529 67.3582 84.6152 69.0527 86.3635 70.3971C85.3145 70.06 84.3337 69.4582 83.4937 68.6942C82.6579 67.9259 81.9585 67.0039 81.4212 66.0009C80.3424 63.9906 79.8264 61.737 79.6473 59.492C79.5577 58.3652 79.5748 57.2299 79.7113 56.0988C79.7795 55.5312 79.869 54.9763 80.0055 54.3958C80.1377 53.8453 80.2912 53.2989 80.4788 52.7568C80.8583 51.6727 81.3487 50.5886 82.2229 49.6368C82.6621 49.1716 83.2506 48.732 83.9925 48.557C84.7345 48.3735 85.5192 48.5399 86.1119 48.8387L86.2015 48.8814L86.2612 48.9326C87.2249 49.7094 88.1374 50.5033 89.0841 51.246C90.0265 51.9929 90.9945 52.6971 92.0008 53.3288C92.504 53.6447 93.0157 53.9477 93.5232 54.2337C94.0391 54.5324 94.585 54.7928 95.118 55.1001C95.6553 55.3989 96.2139 55.7019 96.7171 56.1543C96.9602 56.3848 97.1819 56.6622 97.3141 56.9696C97.4633 57.2683 97.523 57.5884 97.5273 57.9Z" fill="black"/>
<path d="M83.9886 60.4823C83.6475 59.2531 83.5281 57.9555 83.5665 56.6537C83.592 56.0007 83.656 55.3477 83.8181 54.6818C83.9034 54.3489 84.0057 54.0118 84.1976 53.6618C84.2999 53.4868 84.415 53.3033 84.6325 53.1283C84.7391 53.0429 84.8798 52.9618 85.0504 52.9106C85.221 52.8594 85.4171 52.8551 85.5834 52.8935H85.5877L85.8393 52.949L85.9758 53.1709C86.8755 54.652 87.98 56.0007 89.2635 57.1745C90.5428 58.361 91.9969 59.347 93.4766 60.3713L93.5789 60.4438L93.6301 60.5378L93.6344 60.542C93.7538 60.7981 93.7325 60.9347 93.7325 61.0627C93.724 61.1908 93.7069 61.3017 93.6855 61.4084C93.6386 61.6176 93.579 61.8096 93.5107 61.9932C93.3743 62.3645 93.2122 62.7103 93.0331 63.0474C92.6749 63.7218 92.257 64.3492 91.7794 64.9339C91.3018 65.5144 90.7603 66.0479 90.1462 66.479C89.5322 66.9058 88.8286 67.2259 88.0951 67.2985C88.8158 67.1406 89.4512 66.7565 89.9927 66.2827C90.5343 65.8047 90.9863 65.2413 91.3786 64.6395C91.7667 64.0376 92.095 63.3931 92.3551 62.7358C92.483 62.4072 92.5939 62.07 92.6749 61.7414C92.7133 61.5749 92.7474 61.4127 92.7602 61.2591C92.7688 61.1822 92.7688 61.1097 92.7645 61.0585C92.7688 61.0073 92.7304 60.956 92.7688 61.0457L92.918 61.2078C91.434 60.239 89.8861 59.2488 88.5045 58.0366C87.1144 56.8288 85.8905 55.416 84.8926 53.8624L85.2764 54.144C85.3191 54.1483 85.383 54.1014 85.3319 54.1099C85.2892 54.1227 85.2082 54.191 85.1357 54.2806C84.9822 54.4642 84.8457 54.7203 84.7306 54.9892C84.5003 55.5312 84.3298 56.1288 84.2061 56.7348C83.9588 57.947 83.8607 59.2189 83.9886 60.4823Z" fill="#D4D4D4"/>
</svg>
