<svg width="133" height="137" viewBox="0 0 133 137" fill="none" xmlns="http://www.w3.org/2000/svg">
<path d="M47.5149 82.448C47.8234 80.8044 46.4688 79.8824 43.2012 78.7978C37.3661 76.8538 33.9735 73.0533 31.8478 64.5139C29.0428 56.7462 16.2057 51.7234 8.56596 57.9559C4.10214 62.0901 8.44506 68.2183 10.9291 67.3548C14.7302 66.0365 24.1205 64.8476 26.2628 71.1719C29.0428 79.3693 33.119 82.7317 40.1669 84.2919C45.0642 85.3766 47.1315 84.4755 47.5149 82.448Z" fill="#E6E6E6"/>
<path d="M47.5151 82.448C47.1317 84.4796 45.0644 85.3765 40.163 84.2919C34.8822 83.1196 31.2687 80.942 28.6221 76.4741C32.3357 77.7632 35.124 76.3948 36.4952 74.5551C38.2791 76.57 40.4714 77.8925 43.2014 78.7977C46.4648 79.8824 47.8236 80.8043 47.5151 82.448Z" fill="#D4D4D4"/>
<path d="M35.432 73.1952C36.3907 74.576 37.4868 75.6857 38.7497 76.5909C36.3656 77.2375 34.2442 80.2036 33.5065 81.6804C32.5645 81.0755 31.7101 80.3663 30.9141 79.5362C31.8643 77.4795 33.5023 75.84 34.1775 75.4771C33.123 75.2602 32.502 75.5689 31.6601 76.0027C32.2228 74.6261 34.1733 73.4496 35.432 73.1952Z" fill="#332525"/>
<path d="M38.0036 76.0111C37.9619 75.9735 37.9161 75.9402 37.8702 75.9026C37.6618 75.7232 37.4576 75.5355 37.2575 75.3436C37.2075 75.2936 37.1575 75.2477 37.1075 75.1976C36.9116 75.0015 36.7199 74.8013 36.5365 74.5927C36.524 74.576 36.5073 74.5635 36.4948 74.5468C35.6821 75.6398 34.3692 76.5576 32.6603 76.8621C32.0477 77.5755 31.3975 78.4974 30.9224 79.5278C30.9599 79.5654 30.9974 79.6029 31.0349 79.6405C31.1891 79.799 31.3433 79.9533 31.5017 80.1035C31.5559 80.1536 31.61 80.2036 31.6684 80.2537C31.8226 80.3914 31.9768 80.5332 32.1352 80.6625C32.1894 80.7084 32.2477 80.7501 32.3019 80.796C32.4686 80.9295 32.6354 81.063 32.8063 81.1882C32.8354 81.209 32.8688 81.2299 32.8979 81.2507C33.098 81.3967 33.3022 81.5386 33.5106 81.6721C34.2442 80.1953 36.3698 77.2292 38.7538 76.5826C38.7496 76.5784 38.7413 76.5743 38.7372 76.5701C38.6788 76.5284 38.6246 76.4867 38.5704 76.4449C38.3746 76.3114 38.187 76.1654 38.0036 76.0111Z" fill="#1A1313"/>
<path d="M32.5812 67.117C33.0522 68.5938 33.5773 69.8995 34.165 71.0593C30.6348 70.6922 28.5383 73.5539 27.9673 75.2935C27.463 74.3048 26.9921 73.216 26.5586 72.0188C27.3797 68.0473 30.7974 67.2171 32.5812 67.117Z" fill="#332525"/>
<path d="M29.9344 61.2015C26.0124 63.5377 25.1246 67.3298 25.408 69.4949C24.7412 68.5479 23.8534 67.8554 22.8322 67.359C22.5405 63.8506 24.5453 61.8982 25.4622 61.2933C23.5366 61.3183 22.2571 62.8035 21.9112 63.5168C21.2193 60.3964 23.5658 58.1478 25.1162 57.2968C27.0085 58.3189 28.6757 59.6538 29.9344 61.2015Z" fill="#332525"/>
<path d="M19.3313 55.3403C15.005 58.4607 15.7927 64.1843 17.2056 66.3077C14.7674 66.3369 12.4167 66.8333 10.9246 67.3548C8.4364 68.2183 4.0976 62.0901 8.56142 57.9559C11.6373 55.4404 15.5635 54.7562 19.3313 55.3403Z" fill="#332525"/>
<path d="M37.6788 84.2794C31.6062 82.3687 28.126 78.6309 25.667 71.3721C25.0209 69.4698 23.5913 68.1599 21.4157 67.4758C17.7104 66.3118 13.0674 67.2713 11.1293 67.9472C10.675 68.1057 10.1623 68.1015 9.64136 67.9388C8.08673 67.4507 6.62381 65.6068 6.16117 63.5543C5.65269 61.2975 6.35706 59.1449 8.13675 57.497C11.817 54.4892 16.9019 53.7175 22.1076 55.357C27.0465 56.9088 31.0019 60.338 32.4314 64.3011L32.4481 64.3637C34.4403 72.365 37.5079 76.2447 43.393 78.2054C46.148 79.1232 48.5821 80.1452 48.1236 82.569C47.9527 83.4784 47.4984 84.1834 46.7773 84.659C45.4478 85.5392 43.2388 85.6185 40.0253 84.9051C39.1876 84.7132 38.4165 84.513 37.6788 84.2794ZM21.7908 66.2826C24.3707 67.092 26.0712 68.6689 26.8506 70.9716C29.1638 77.8007 32.4106 81.3091 38.0539 83.0863C38.7458 83.3032 39.5044 83.5034 40.2963 83.6787C43.1221 84.3044 45.0727 84.2794 46.0897 83.6077C46.5273 83.3199 46.7898 82.9027 46.8982 82.3312C47.0858 81.33 46.5231 80.5624 43.0012 79.3901C36.7369 77.3043 33.3317 73.045 31.2477 64.6974C29.939 61.1056 26.2963 57.9851 21.7366 56.5501C16.9394 55.0399 12.2838 55.7324 8.96199 58.4398C7.04892 60.2128 7.15311 62.2319 7.38651 63.279C7.79913 65.1229 9.0537 66.4412 10.0207 66.7457C10.2874 66.8291 10.5208 66.8375 10.7208 66.7666C13.605 65.7612 18.3023 65.1855 21.7908 66.2826Z" fill="black"/>
<path d="M73.4353 90.149C71.8265 91.8886 73.1185 95.3094 76.7613 99.9233C80.4082 104.537 90.7321 111.696 96.192 111.045C99.7306 109.631 104.215 101.967 102.99 99.7439C101.631 97.9125 99.1012 98.313 97.2715 99.4018C93.3745 99.0055 88.7565 97.9042 87.0226 96.248C81.3918 91.509 76.4779 86.8659 73.4353 90.149Z" fill="#E6E6E6"/>
<path d="M102.994 99.748C104.219 101.972 99.7302 109.631 96.1958 111.045C93.4366 111.37 89.4355 109.706 85.6802 107.382C88.2768 104.6 90.4232 100.386 90.865 98.1586C92.8281 98.7635 95.1538 99.1849 97.2711 99.3976C99.1008 98.313 101.631 97.9125 102.994 99.748Z" fill="#EFEFEF"/>
<path d="M87.4309 96.5859C87.9894 97.0031 88.7354 97.3827 89.6023 97.7165C88.5562 100.708 86.1305 102.51 83.6548 102.881C84.8927 101.721 86.9224 98.9096 87.4309 96.5859Z" fill="#1A1313"/>
<path d="M85.3882 94.8672C85.8925 95.2927 86.3969 95.7224 86.9137 96.1562C85.9134 97.8583 84.6005 98.8678 83.2793 99.1724C84.2504 98.1086 85.0923 96.2396 85.3882 94.8672Z" fill="#1A1313"/>
<path d="M84.5089 94.1246C83.4336 96.7194 80.4202 100.028 78.1821 101.517C77.6402 100.966 77.1567 100.432 76.7608 99.9274C76.7316 99.8899 76.7025 99.8523 76.6733 99.8148C78.8073 98.1378 80.6411 95.593 80.762 93.8326C79.149 95.2593 77.7611 96.0936 75.9897 96.2146C76.9442 95.5972 79.0948 92.264 79.5408 90.3742C81.0829 91.2962 82.7459 92.6395 84.5089 94.1246Z" fill="#1A1313"/>
<path d="M103.54 99.4435L103.523 99.4102L103.494 99.3726C103.127 98.872 102.619 98.4507 102.035 98.1962C101.456 97.9376 100.831 97.8458 100.235 97.8583C99.1177 97.8917 98.084 98.2421 97.1587 98.7552C95.5249 98.5133 93.8995 98.2045 92.3157 97.7957C91.4946 97.583 90.6818 97.3452 89.9108 97.049C89.1397 96.757 88.377 96.4149 87.781 95.9643C87.1516 95.4387 86.4389 94.8839 85.7721 94.3374C85.0969 93.7867 84.405 93.2527 83.7006 92.7271C82.2836 91.7009 80.7873 90.7122 79.116 90.1073C80.4705 91.2378 81.7167 92.4184 83.0004 93.5865C84.2883 94.7587 85.5637 95.8892 86.9099 97.0782C87.6935 97.6914 88.5354 98.0877 89.3815 98.4256C90.2317 98.751 91.0903 99.018 91.9572 99.2308C93.6911 99.6563 95.4499 99.9108 97.2171 100.023L97.4422 100.04L97.5964 99.94C98.4175 99.4561 99.3594 99.1307 100.264 99.1056C100.714 99.0973 101.152 99.1682 101.531 99.3392C101.898 99.5019 102.206 99.7522 102.456 100.078C102.565 100.29 102.59 100.645 102.556 101.02C102.306 100.916 102.052 100.849 101.802 100.82C101.368 100.766 100.947 100.804 100.551 100.895C99.7637 101.083 99.051 101.504 98.5842 102.097C99.1927 101.659 99.9304 101.488 100.618 101.517C101.297 101.546 101.952 101.821 102.256 102.243C102.264 102.251 102.277 102.259 102.285 102.272C102.219 102.481 102.148 102.689 102.069 102.898C101.673 103.928 101.139 104.929 100.539 105.876C99.9346 106.823 99.2552 107.729 98.4967 108.538C97.7631 109.314 96.9337 110.04 96.046 110.432C94.9581 110.499 93.8078 110.277 92.6949 109.935C91.5529 109.581 90.4318 109.101 89.3315 108.575C87.1308 107.516 85.0552 106.173 83.0504 104.746C81.0707 103.294 79.1409 101.725 77.5321 99.9149C76.7444 98.993 75.965 98.0168 75.2189 97.0406C74.477 96.0561 73.7602 95.0591 73.1309 93.9578C73.3434 95.2176 73.8727 96.4065 74.4854 97.5204C75.1106 98.6384 75.8191 99.6772 76.6152 100.687C78.2699 102.677 80.1871 104.354 82.2085 105.885C84.2299 107.42 86.4014 108.755 88.6979 109.881C89.8483 110.44 91.0445 110.924 92.3032 111.27C93.5536 111.612 94.8831 111.859 96.2668 111.671L96.3669 111.658L96.4252 111.629C97.6589 111.108 98.5675 110.265 99.4011 109.393C100.226 108.509 100.947 107.553 101.589 106.544C102.227 105.534 102.794 104.479 103.231 103.344C103.448 102.777 103.636 102.189 103.744 101.554C103.798 101.237 103.832 100.912 103.819 100.557C103.807 100.211 103.744 99.8273 103.54 99.4435Z" fill="black"/>
<path d="M47.4987 99.3935C50.2537 97.9834 52.7252 98.0543 54.3882 100.361C55.9345 102.51 54.4549 105.914 52.7294 108.004C51.008 110.098 46.5067 114.445 43.6475 116.197C40.73 117.82 38.3376 118.191 32.6109 120.035C30.1018 122.797 26.2507 123.397 24.596 118.375C22.9456 113.348 25.3254 107.37 28.2805 106.198C30.4186 105.634 33.6988 106.723 38.6794 105.192C41.947 103.423 45.0188 100.666 47.4987 99.3935Z" fill="#E6E6E6"/>
<path d="M54.342 105.417C54.0002 106.172 53.5667 106.903 53.0958 107.537C51.687 106.761 49.7573 105.397 49.5947 103.102C50.4575 104.158 52.6581 105.205 54.342 105.417Z" fill="#1A1313"/>
<path d="M52.2578 108.559C51.5367 109.372 50.5531 110.394 49.4528 111.441C47.6439 110.24 45.2432 107.862 45.2932 104.287C45.4266 105.321 49.1735 107.883 52.2578 108.559Z" fill="#1A1313"/>
<path d="M41.1884 103.653C41.2092 106.173 43.8766 111.437 47.4319 113.298C46.0981 114.466 44.7519 115.521 43.6515 116.201C42.7054 116.727 41.8177 117.119 40.8549 117.474C37.283 115.338 36.7079 112.009 37.5289 109.297C38.2833 111.946 40.2047 113.627 42.0636 113.798C39.2336 111.55 39.0419 106.857 39.6045 104.662C40.1422 104.345 40.6674 104.007 41.1884 103.653Z" fill="#1A1313"/>
<path d="M39.3129 117.995C37.6082 118.533 35.5492 119.092 32.6109 120.035C30.1018 122.801 26.2507 123.402 24.596 118.375C22.9455 113.348 25.3254 107.37 28.2846 106.198C30.0059 105.743 32.4733 106.36 35.9744 105.818C34.9824 108.479 35.2867 115.067 39.3129 117.995Z" fill="#EFEFEF"/>
<path d="M54.588 104.817C54.0003 105.826 53.3251 106.744 52.5624 107.562C51.7913 108.371 50.9453 109.155 50.1242 109.94C48.4654 111.508 46.7482 113.031 44.9518 114.395C44.5017 114.733 44.0474 115.058 43.5848 115.354L43.2639 115.55L42.8929 115.747C42.647 115.876 42.4011 115.997 42.1468 116.114C41.1465 116.585 40.0879 116.944 39.0043 117.298C36.8286 117.983 34.5988 118.654 32.4231 119.438L32.2481 119.501L32.1522 119.614L32.1481 119.618C31.5062 120.298 30.7477 120.861 29.9266 121.186C29.1097 121.516 28.2427 121.558 27.5217 121.22C27.3175 121.128 27.1299 121.007 26.9507 120.861C26.9674 120.857 26.984 120.849 27.0007 120.844C27.405 120.682 27.7551 120.444 28.0594 120.169C28.6554 119.622 29.0722 118.905 29.193 118.162C28.8721 118.842 28.3136 119.351 27.7009 119.66C27.1674 119.931 26.5547 120.023 26.0963 119.889C25.9921 119.731 25.8962 119.564 25.8087 119.393C25.3961 118.583 25.121 117.661 24.9584 116.735C24.6417 114.875 24.8209 112.914 25.4127 111.112C25.7128 110.211 26.1171 109.347 26.6464 108.592C27.1591 107.858 27.8093 107.215 28.522 106.911C29.2014 106.74 30.0391 106.748 30.8852 106.757C31.7521 106.773 32.6482 106.794 33.5485 106.757C35.3532 106.694 37.1662 106.389 38.8834 105.83L38.9543 105.805L39.0043 105.776C41.0174 104.65 42.8137 103.269 44.6101 101.959C45.5145 101.312 46.3897 100.641 47.2942 100.036C48.1944 99.4268 49.1281 98.8928 50.1992 98.4965C49.0489 98.3881 47.8819 98.7427 46.8357 99.2224C45.7896 99.7188 44.8393 100.345 43.9224 100.991C42.1052 102.259 40.3338 103.557 38.4416 104.571C36.8328 105.038 35.1823 105.296 33.5026 105.338C32.6524 105.363 31.798 105.334 30.9185 105.305C30.0349 105.288 29.118 105.234 28.101 105.48L28.0594 105.488L28.0135 105.505C26.859 105.976 26.0588 106.844 25.4252 107.733C24.7959 108.638 24.3416 109.622 23.9998 110.636C23.333 112.668 23.1329 114.85 23.4955 116.977C23.6789 118.037 23.9998 119.071 24.5208 120.056C25.0376 121.024 25.817 121.987 26.9507 122.484C27.5092 122.734 28.1344 122.838 28.7304 122.813C29.3306 122.788 29.9057 122.642 30.4309 122.421C31.427 122 32.2523 121.337 32.9483 120.582L36.1159 119.685C37.2246 119.38 38.3374 119.076 39.4502 118.729C40.5672 118.391 41.6925 117.991 42.7804 117.482C43.0513 117.353 43.3222 117.219 43.5848 117.081L43.9765 116.865L44.1058 116.789L44.2016 116.727L44.3933 116.602C44.8977 116.268 45.3728 115.909 45.8354 115.546C46.7649 114.82 47.6401 114.044 48.4945 113.248C49.3448 112.447 50.1867 111.642 50.9745 110.782C51.3746 110.357 51.7622 109.923 52.1332 109.468C52.5083 109.022 52.8708 108.555 53.2043 108.058C53.867 107.074 54.3671 105.968 54.588 104.817Z" fill="black"/>
<path d="M94.3412 83.6453C92.4323 79.824 86.9515 78.8228 83.0129 79.507C79.0742 80.187 73.4725 80.675 69.6131 80.3788C59.5893 77.1082 52.4955 75.7983 46.3312 76.9706C40.8212 78.318 35.4488 82.9945 34.3235 90.0655C33.5691 98.7552 38.3663 106.352 50.3407 108.909C65.2118 110.24 77.8071 107.662 85.076 103.653C94.4412 98.4924 98.1173 91.2044 94.3412 83.6453Z" fill="#E6E6E6"/>
<path d="M94.341 83.6453C98.1212 91.2044 94.4452 98.4924 85.0757 103.653C77.8069 107.662 65.2157 110.24 50.3447 108.909C38.3661 106.352 33.573 98.7552 34.3274 90.0614C35.0401 85.5851 37.4575 82.0642 40.5334 79.7531C39.7874 84.2836 43.5301 90.975 55.3378 91.2461C68.8793 91.5632 76.2481 85.5643 73.9391 80.4331C77.0317 80.3288 80.391 79.9617 83.0168 79.507C86.9555 78.827 92.4321 79.8282 94.341 83.6453Z" fill="#D4D4D4"/>
<path d="M95.804 89.1102C95.9832 94.6419 92.1571 99.7523 85.0758 103.653C77.807 107.662 65.2158 110.24 50.3448 108.909C44.2555 107.608 40.025 105.004 37.4326 101.617C42.2465 104.183 50.5823 105.313 60.4936 105.159C69.8547 105.013 79.0157 102.81 85.5885 98.9179C89.6147 96.5317 91.8195 93.8076 93.7493 90.3534C94.3078 89.348 95.1746 88.8307 95.804 89.1102Z" fill="#EFEFEF"/>
<path d="M69.6175 80.3747C71.0179 80.4831 72.6517 80.4915 74.3522 80.4164C71.8098 82.619 70.0051 86.5738 69.3674 90.3951C68.6172 92.1347 67.5877 94.4375 67.0042 96.1479C66.3582 92.8147 66.1623 89.3021 66.8417 86.4487C65.8039 87.0786 63.8742 89.7318 63.1198 91.0584C62.0528 86.895 62.9656 82.715 65.037 81.1381C64.4201 82.3938 64.2242 84.8968 64.441 85.7311C65.6246 83.4868 67.6669 81.3592 69.2549 80.2537C69.3758 80.2996 69.4966 80.3371 69.6175 80.3747Z" fill="#332525"/>
<path d="M63.5737 78.5558C62.0149 79.8115 60.1393 82.8819 59.1265 86.2902C57.6844 89.1144 56.9967 90.2992 55.7672 93.9578C55.4671 90.0322 55.3713 85.6895 56.1924 83.491C54.7419 84.8551 53.1873 86.5321 52.4704 88.5179C52.4454 84.2085 54.9962 79.8491 60.0477 77.6798C61.1813 77.9343 62.3567 78.2221 63.5737 78.5558Z" fill="#332525"/>
<path d="M56.7467 77.0457C53.7542 78.0886 50.7741 81.5094 49.1195 85.3057C48.8277 83.078 49.2987 80.6459 50.8825 78.6184C48.386 79.3651 46.1436 81.4385 45.0099 83.103C43.7721 84.9219 43.0135 86.87 42.3717 89.1019C42.1133 86.528 42.2341 83.6078 43.3969 80.8169C44.5681 78.7185 46.9647 77.4211 49.2154 76.6035H49.2195C51.5369 76.4533 54.0168 76.6035 56.7467 77.0457Z" fill="#332525"/>
<path d="M69.8169 88.3468C69.6294 89.0268 69.4793 89.7151 69.3626 90.3993C68.6124 92.1389 67.5829 94.4417 66.9994 96.1521C66.591 94.0412 66.3617 91.8594 66.4243 89.8194C67.7038 89.3939 68.8375 88.9016 69.8169 88.3468Z" fill="#1A1313"/>
<path d="M63.3938 90.6079C63.2855 90.7706 63.1938 90.9249 63.1188 91.0626C63.0855 90.9333 63.0563 90.8081 63.0229 90.6788C63.148 90.6579 63.2688 90.6329 63.3938 90.6079Z" fill="#1A1313"/>
<path d="M55.6089 91.2545C55.9965 91.2587 56.3758 91.2629 56.7509 91.2587C56.4466 92.0096 56.1299 92.8773 55.7714 93.9536C55.7006 93.0692 55.6464 92.1598 55.6089 91.2545Z" fill="#1A1313"/>
<path d="M43.0756 86.9451C42.813 87.6334 42.5838 88.3552 42.367 89.1019C42.2712 88.1174 42.2253 87.087 42.2754 86.0273C42.5171 86.3402 42.7838 86.6489 43.0756 86.9451Z" fill="#1A1313"/>
<path d="M58.6765 109.885C55.9215 109.902 53.0957 109.781 50.2823 109.531L50.2073 109.518C38.8498 107.094 32.8355 99.9817 33.6983 90.0113L33.7024 89.9654C34.9945 81.864 41.2338 77.5713 46.1811 76.3615C47.6899 76.0737 49.1987 75.9318 50.8242 75.9193C55.7256 75.8901 61.3815 77.0373 69.7339 79.7573C70.5383 79.8157 71.4511 79.8449 72.4472 79.8365C75.6274 79.8157 79.6327 79.4527 82.9003 78.8854C83.6672 78.7519 84.4716 78.681 85.2927 78.6768C88.7896 78.6559 93.1492 79.8741 94.8955 83.3616C98.7758 91.1293 95.3082 98.7218 85.3719 104.195C78.9408 107.745 69.2088 109.819 58.6765 109.885ZM50.4366 108.288C53.1999 108.534 55.9674 108.651 58.6723 108.634C69.0004 108.571 78.5157 106.556 84.7759 103.102C94.0411 98.0001 97.3254 91.0084 93.7827 83.9248C92.2989 80.9504 88.4311 79.9116 85.3094 79.9325C84.555 79.9367 83.8214 79.9992 83.1212 80.1202C79.7869 80.6959 75.7023 81.0672 72.4597 81.088C71.3969 81.0964 70.4258 81.063 69.5672 81.0004L69.4213 80.9712C61.2773 78.3139 55.5464 77.1416 50.8367 77.1708C49.2904 77.1792 47.8566 77.3168 46.4521 77.5838C41.9132 78.6977 36.1532 82.6566 34.9445 90.1407C34.1526 99.3893 39.7959 106.001 50.4366 108.288Z" fill="black"/>
<path d="M70.722 94.133C68.6547 96.0227 69.3466 99.3392 72.1516 104.508C76.4904 112.501 86.2182 121.007 91.3239 120.932C94.254 120.54 100.643 112.455 99.7889 110.607C98.7386 108.705 96.4796 108.438 94.5916 109.159C89.8235 107.086 86.5267 105.384 84.0301 102.852C80.3332 98.5883 74.9316 90.2783 70.722 94.133Z" fill="#E6E6E6"/>
<path d="M99.7889 110.607C100.643 112.459 94.254 120.544 91.3239 120.932C86.2182 121.007 76.4904 112.501 72.1516 104.508C69.3466 99.3395 68.6547 96.023 70.722 94.1332C71.4139 93.4991 72.1391 93.1946 72.881 93.1445C71.7473 94.8591 72.2308 98.6887 75.7318 103.482C80.4666 109.965 87.1936 109.285 87.6145 105.668C89.5318 106.865 91.8116 107.95 94.5958 109.16C96.4796 108.438 98.7386 108.705 99.7889 110.607Z" fill="#D4D4D4"/>
<path d="M99.7892 110.607C100.644 112.459 94.2542 120.544 91.3241 120.932C88.7692 120.974 85.0682 118.863 81.4546 115.751C85.1182 113.377 88.6692 108.838 89.3152 106.652C90.8449 107.487 92.587 108.288 94.5876 109.159C96.4799 108.438 98.7389 108.705 99.7892 110.607Z" fill="white"/>
<path d="M85.7221 104.349C86.3973 104.879 87.1267 105.38 87.9228 105.86C85.8388 109.364 82.2628 110.824 79.2202 110.448C81.1083 109.518 84.7218 106.794 85.7221 104.349Z" fill="#332525"/>
<path d="M84.0299 102.852C84.455 103.286 84.9093 103.694 85.3845 104.082C83.6256 105.826 81.7251 106.615 80.0996 106.531C81.5125 105.705 83.0713 103.97 83.8424 102.631C83.9049 102.706 83.9674 102.777 84.0299 102.852Z" fill="#332525"/>
<path d="M78.937 96.807C80.4166 98.3798 81.8337 100.203 83.1008 101.746C81.0668 104.078 76.8155 106.577 73.9689 107.449C73.4979 106.765 73.0603 106.077 72.6519 105.392C75.5652 104.324 78.5369 102.164 79.2913 100.328C77.1115 101.325 75.3693 101.776 73.4729 101.383C74.6066 101.05 77.6241 98.605 78.937 96.807Z" fill="#332525"/>
<path d="M75.9278 103.74C76.5197 104.52 77.1407 105.196 77.7783 105.764C76.4363 106.506 75.0942 107.107 73.9689 107.449C73.4979 106.765 73.0603 106.077 72.6519 105.392C73.7772 104.979 74.915 104.404 75.9278 103.74Z" fill="#1A1313"/>
<path d="M87.6144 105.672C87.7186 105.734 87.8186 105.797 87.9228 105.864C85.8388 109.368 82.2628 110.828 79.2202 110.453C80.083 110.031 81.3041 109.226 82.4711 108.25C85.1886 108.788 87.3768 107.687 87.6144 105.672Z" fill="#1A1313"/>
<path d="M74.165 101.062C74.2442 101.208 74.3317 101.358 74.4193 101.509C74.1067 101.492 73.7899 101.446 73.4731 101.383C73.6607 101.329 73.8983 101.217 74.165 101.062Z" fill="#1A1313"/>
<path d="M100.406 110.269C100.122 109.76 99.7223 109.297 99.243 108.947C98.7637 108.596 98.2094 108.358 97.6467 108.237C96.6089 108.021 95.5753 108.15 94.6291 108.479C92.8953 107.637 91.1656 106.802 89.511 105.885C87.7896 104.925 86.1558 103.853 84.7637 102.522L84.6345 102.397L84.572 102.339L84.5387 102.301L84.2927 102.022L83.8051 101.463L82.8298 100.315C82.1838 99.5436 81.5211 98.776 80.8292 98.0293C80.129 97.2909 79.3996 96.5692 78.6119 95.9101C77.82 95.2593 76.9739 94.6502 76.0403 94.2289C77.4908 95.6556 78.6827 97.2283 79.9123 98.8094L81.7545 101.187L82.6923 102.385L83.1716 102.981L83.4175 103.273L83.4467 103.311L83.5133 103.382L83.5842 103.453L83.7217 103.594C85.2097 105.092 86.9685 106.264 88.7774 107.236C89.6818 107.72 90.6029 108.167 91.5365 108.571C92.466 108.98 93.3996 109.376 94.3499 109.735L94.6083 109.835L94.8209 109.748C95.6461 109.451 96.5506 109.364 97.3466 109.56C98.1344 109.743 98.7762 110.223 99.1555 110.916C99.1638 110.937 99.1722 111.124 99.1222 111.32C98.8471 111.166 98.5595 111.058 98.2719 111.003C97.8426 110.916 97.4216 110.92 97.0173 110.982C96.2171 111.112 95.4752 111.475 94.9667 112.034C95.6086 111.642 96.3588 111.525 97.0382 111.608C97.7176 111.687 98.3469 112.013 98.6178 112.455C98.6261 112.472 98.6428 112.48 98.6554 112.497C98.4886 112.818 98.3136 113.143 98.1177 113.46C97.5258 114.403 96.8465 115.313 96.1254 116.18C95.4002 117.044 94.625 117.874 93.7914 118.608C93.3746 118.975 92.9453 119.322 92.5035 119.61C92.0867 119.885 91.6199 120.118 91.2698 120.173C90.1528 120.164 88.9441 119.731 87.8188 119.188C86.6685 118.625 85.5515 117.941 84.4845 117.186C82.3464 115.667 80.3749 113.886 78.5452 111.984C76.7155 110.073 75.0525 108.004 73.6146 105.793C72.8935 104.696 72.2309 103.544 71.564 102.393C70.9096 101.237 70.2844 100.069 69.7593 98.8178C69.8635 100.182 70.2803 101.504 70.7763 102.773C71.0222 103.407 71.3056 104.028 71.6015 104.637C71.8891 105.251 72.235 105.855 72.5768 106.439C73.9939 108.78 75.686 110.928 77.5241 112.939C79.3663 114.946 81.3877 116.794 83.6092 118.408C84.722 119.213 85.8849 119.964 87.1519 120.573C87.7854 120.878 88.4398 121.149 89.1358 121.357C89.8277 121.566 90.5613 121.712 91.3448 121.704H91.399L91.4365 121.7C92.2409 121.57 92.7953 121.224 93.3371 120.886C93.8664 120.536 94.3416 120.152 94.7959 119.747C95.7045 118.942 96.5172 118.066 97.2841 117.148C98.0468 116.23 98.7554 115.267 99.3764 114.224C99.6848 113.702 99.9766 113.164 100.218 112.572C100.339 112.276 100.448 111.967 100.518 111.617C100.577 111.266 100.664 110.866 100.435 110.315L100.427 110.298L100.406 110.269Z" fill="black"/>
<path d="M42.2423 95.4679C44.9598 94.4667 47.7023 94.5835 49.236 96.978C50.5448 99.0263 49.5736 101.959 47.1479 104.525C45.2849 106.494 38.3912 111.262 34.4025 112.684C29.0676 114.303 21.1319 113.21 19.4231 113.143C17.385 114.987 13.0962 115.868 12.1751 110.657C11.2499 105.447 13.8214 99.0931 17.4225 97.7248C18.2394 97.2283 26.2709 100.716 32.3519 99.5603C37.8952 98.167 39.6249 96.4315 42.2423 95.4679Z" fill="#E6E6E6"/>
<path d="M49.2358 96.9822C50.5445 99.0263 49.5734 101.963 47.1477 104.529C45.2847 106.498 38.391 111.27 34.4023 112.685C29.0674 114.307 21.1317 113.21 19.427 113.143C17.3847 114.987 13.1001 115.868 12.179 110.657C11.2538 105.451 13.8254 99.0931 17.4265 97.7248C18.135 97.2993 24.2284 99.844 29.7926 99.7981C25.2996 105.689 37.2031 105.785 42.2421 102.51C46.0474 100.036 46.7476 96.8779 46.0933 94.9339C47.3478 95.1258 48.4481 95.7557 49.2358 96.9822Z" fill="#D4D4D4"/>
<path d="M47.1186 104.558C46.6727 105.025 45.9516 105.643 45.0597 106.331C43.8968 105.029 42.6173 103.069 43.0091 100.77C43.5759 102.118 45.3764 103.557 47.1186 104.558Z" fill="#1A1313"/>
<path d="M43.7888 107.282C42.6969 108.075 41.4548 108.909 40.2003 109.693C38.6457 107.829 36.8035 104.483 38.0163 100.641C37.8288 101.755 40.8088 105.476 43.7888 107.282Z" fill="#1A1313"/>
<path d="M37.6285 111.191C36.4615 111.821 35.3486 112.351 34.4025 112.685C32.8104 113.164 30.989 113.41 29.1676 113.511C25.8625 110.023 26.296 106.193 28.084 103.511C28.0381 106.594 29.5594 109.018 31.4933 109.798C29.3469 106.698 30.3347 102.059 31.535 99.6938C31.8101 99.6605 32.0852 99.6187 32.3561 99.5687C32.8312 99.4477 33.2772 99.3267 33.694 99.2057C33.1772 102.234 34.4609 108.338 37.6285 111.191Z" fill="#1A1313"/>
<path d="M43.4926 101.584C43.3217 101.73 43.1425 101.871 42.955 102.013C42.9258 101.613 42.9383 101.191 43.0133 100.766C43.1258 101.037 43.2883 101.312 43.4926 101.584Z" fill="#332525"/>
<path d="M38.0203 100.641C37.9286 101.2 38.6246 102.41 39.7166 103.711C39.0706 103.932 38.3913 104.124 37.6994 104.266C37.5493 103.135 37.6118 101.913 38.0203 100.641Z" fill="#332525"/>
<path d="M33.6938 99.2057C33.4562 100.591 33.5937 102.61 34.1188 104.675C32.6226 104.696 31.2597 104.495 30.2886 104.057C30.4678 102.372 30.9763 100.791 31.5306 99.698C31.8057 99.6646 32.0808 99.6229 32.3517 99.5729C32.831 99.4477 33.2728 99.3267 33.6938 99.2057Z" fill="#332525"/>
<path d="M27.2752 113.565C23.6908 113.594 20.4481 113.185 19.427 113.148C17.3847 114.991 13.1001 115.872 12.179 110.661C11.2538 105.455 13.8254 99.0973 17.4265 97.729C18.0266 97.3619 22.5446 99.1599 27.3044 99.673C25.6539 102.059 23.6866 109.589 27.2752 113.565Z" fill="white"/>
<path d="M49.4863 100.899C48.7611 102.172 47.8442 103.236 46.8148 104.187C45.7978 105.096 44.6141 105.935 43.4596 106.761C42.2926 107.578 41.0922 108.358 39.8669 109.093C38.6457 109.827 37.4078 110.536 36.1366 111.145C35.5031 111.45 34.8612 111.733 34.2193 111.963L34.1693 111.979H34.1651L34.1318 111.988L34.0026 112.025L33.7567 112.092L33.2566 112.217C32.919 112.297 32.5814 112.363 32.2355 112.422C30.8642 112.655 29.4554 112.764 28.0384 112.81C26.6213 112.847 25.2 112.831 23.7704 112.768C22.3325 112.71 20.9446 112.576 19.44 112.518L19.1816 112.505L18.9982 112.676C18.3188 113.269 17.4436 113.698 16.5683 113.848C15.693 114.011 14.8261 113.848 14.2051 113.323C14.1926 113.314 14.1843 113.302 14.1759 113.294C14.2343 113.269 14.2926 113.244 14.3468 113.214C14.7344 113.01 15.0595 112.743 15.3346 112.443C15.8764 111.838 16.2224 111.087 16.2724 110.336C16.0182 111.045 15.5097 111.604 14.9303 111.967C14.4552 112.267 13.905 112.413 13.4507 112.363C13.2382 111.963 13.0798 111.512 12.9672 111.045C12.7505 110.115 12.6796 109.143 12.7005 108.162C12.7422 106.21 13.1882 104.245 13.9967 102.468C14.401 101.584 14.9053 100.745 15.518 100.019C16.1265 99.3017 16.8601 98.6968 17.6686 98.3881H17.677C17.7061 98.3881 17.7478 98.3881 17.7979 98.3964C17.9104 98.4048 18.0437 98.4298 18.1813 98.4548C18.4564 98.5049 18.7398 98.5758 19.0274 98.6467L20.7779 99.0847C21.9532 99.3809 23.1453 99.6604 24.3498 99.8857C26.7547 100.332 29.2471 100.616 31.7561 100.278C31.9145 100.257 32.0687 100.232 32.2229 100.203L32.4563 100.161L32.7106 100.094L33.5983 99.844C34.186 99.6688 34.7737 99.4811 35.353 99.2725C36.5117 98.8595 37.6496 98.3589 38.7374 97.7915C39.8335 97.2325 40.8463 96.5859 41.8883 96.0644C42.9344 95.5346 44.0264 95.1091 45.2309 94.8755C44.0139 94.6502 42.7302 94.8755 41.5549 95.276C40.3712 95.6932 39.3042 96.2897 38.2414 96.8112C37.1786 97.341 36.0907 97.7999 34.9696 98.1795C34.4111 98.3714 33.8443 98.5424 33.2691 98.7009L32.4105 98.9262L32.2271 98.9721L32.0145 99.0097C31.8728 99.0305 31.7311 99.0514 31.5894 99.0681C29.2929 99.3434 26.9172 99.043 24.5998 98.5758C23.437 98.338 22.2783 98.046 21.1197 97.7331C20.5362 97.5788 19.9568 97.4161 19.3608 97.2659C19.0607 97.1908 18.7606 97.1199 18.4397 97.0573C18.2771 97.0281 18.1146 96.9989 17.927 96.978C17.8353 96.9697 17.7311 96.9614 17.6103 96.9655C17.4852 96.978 17.3435 96.9572 17.0476 97.1157L17.1643 97.0573C16.0432 97.487 15.1512 98.2504 14.4302 99.0931C13.7091 99.9399 13.1465 100.883 12.6964 101.867C11.8003 103.836 11.3168 105.968 11.2626 108.129C11.2459 109.205 11.3418 110.302 11.6044 111.375C11.8711 112.447 12.3671 113.581 13.3423 114.378C13.8258 114.775 14.4177 115.042 15.0179 115.162C15.6222 115.283 16.2307 115.263 16.8059 115.154C17.8604 114.941 18.8107 114.462 19.6192 113.786C20.2277 113.84 20.8779 113.923 21.5156 113.982C22.2366 114.049 22.9619 114.111 23.6913 114.161C25.1459 114.261 26.6046 114.324 28.0759 114.286C29.543 114.257 31.0184 114.149 32.4897 113.886C32.8565 113.819 33.2233 113.748 33.59 113.661L34.1402 113.523L34.4153 113.448L34.5444 113.41L34.6486 113.377L34.7153 113.352C35.4322 113.089 36.1033 112.772 36.766 112.443C39.3959 111.103 41.8257 109.497 44.1723 107.758C44.7558 107.32 45.3351 106.873 45.8894 106.394C46.4521 105.918 46.9898 105.417 47.4941 104.838C48.4486 103.694 49.2363 102.355 49.4863 100.899ZM17.6645 98.3881C17.6561 98.3881 17.652 98.3922 17.6645 98.3881Z" fill="black"/>
<path d="M99.4764 66.9376C101.506 65.077 104.161 61.3141 103.811 59.245C103.548 57.7098 102.473 57.472 100.102 56.1663C97.2299 54.5852 94.75 52.1739 93.012 50.6262C90.9948 49.4832 89.1192 51.2103 87.8522 54.5768C86.2934 58.7193 86.4809 66.3494 91.9742 69.6993C94.0332 70.3793 96.709 69.474 99.4764 66.9376Z" fill="#E6E6E6"/>
<path d="M103.811 59.245C103.678 58.9696 103.532 58.7193 103.348 58.5233C103.165 58.323 102.952 58.1812 102.723 58.0477C102.256 57.7974 101.719 57.5972 101.181 57.3719C100.643 57.1424 100.106 56.8921 99.5765 56.6126C99.0388 56.3206 98.5262 56.0077 98.026 55.674C97.0216 55.0107 96.0713 54.2807 95.1585 53.5256C94.2416 52.7747 93.3621 51.9779 92.4994 51.2103L92.6327 51.3062C91.945 50.9183 91.3199 51.0017 90.678 51.5148C90.0528 52.0279 89.5318 52.8289 89.1067 53.6716C88.8941 54.0971 88.7066 54.5393 88.5399 54.994C88.3815 55.4279 88.244 55.8909 88.1356 56.3582C87.923 57.2926 87.7938 58.2563 87.7521 59.2241C87.6729 61.1598 87.9522 63.1205 88.6691 64.9018C89.3568 66.6998 90.4613 68.3059 91.9742 69.7118C90.007 69.0151 88.4107 67.3339 87.5104 65.4024C86.6185 63.4501 86.2642 61.3058 86.2767 59.1907C86.285 58.1311 86.3934 57.0673 86.6268 56.0202C86.7394 55.4946 86.8852 54.9815 87.0686 54.46C87.2478 53.9594 87.4479 53.4672 87.6813 52.9791C88.1564 52.0112 88.7274 51.0392 89.6902 50.2716C90.1654 49.8962 90.7822 49.5791 91.4782 49.5124C92.1743 49.4373 92.862 49.6459 93.3955 49.9588L93.4705 50.0047L93.5247 50.0547C94.4083 50.8473 95.246 51.6441 96.1088 52.4117C96.9715 53.1752 97.8593 53.9052 98.7846 54.5643C99.2472 54.8939 99.7265 55.2068 100.206 55.4904C100.698 55.7866 101.198 56.0703 101.698 56.3832C101.948 56.5417 102.198 56.7002 102.444 56.8838C102.69 57.0632 102.944 57.2551 103.169 57.4929C103.398 57.7265 103.594 58.0102 103.707 58.323C103.819 58.6234 103.84 58.9446 103.811 59.245Z" fill="black"/>
<path d="M106.662 57.1675C106.316 56.1829 105.34 54.8981 103.919 54.2014C107.879 54.5476 110.204 56.6335 111.401 59.537C111.351 57.4345 109.821 54.6853 108.641 53.7842C111.134 54.0345 115.694 56.7378 116.11 61.5227C117.081 59.4828 117.048 57.0173 116.423 55.1734C120.245 57.6764 121.041 62.403 119.757 65.7779C121.754 68.648 122.25 74.017 121.629 76.5117C120.382 77.8842 118.136 81.5052 119.261 83.0028C120.132 84.125 121.383 83.9999 122.129 83.8747C122.754 83.249 127.243 83.249 127.368 85.3724C127.493 87.4958 126.372 89.615 125.246 90.1156C124.746 92.4893 121.112 94.621 119.757 94.4834C117.886 94.1079 114.893 92.4851 114.022 88.9892C110.655 90.7372 110.905 96.4774 113.522 98.726C114.122 99.7898 111.276 102.222 108.533 102.843C105.307 102.322 102.048 99.9733 100.301 96.7277C95.9835 96.0352 91.2071 96.4858 87.5811 96.8529C87.3727 96.0352 87.5811 93.6073 88.3271 92.4851C85.3346 92.6103 81.0875 91.0709 79.3661 88.9392C81.3626 88.3134 83.5882 87.2413 84.4593 86.4945C81.7168 84.4963 75.2108 79.6112 74.7314 71.0175C76.0193 72.4109 77.5406 73.2244 79.2203 74.2631C76.8487 70.6421 76.2277 67.8971 76.3528 64.1509C79.6662 64.3011 84.9803 62.5239 91.3196 58.7819C95.4042 56.379 101.798 54.7938 106.662 57.1675Z" fill="#E6E6E6"/>
<path d="M123.254 86.2359C122.262 85.2639 122.103 84.926 122.124 83.8789C122.749 83.2532 127.238 83.2532 127.363 85.3766C127.488 87.4958 126.367 89.6192 125.242 90.1198C124.071 89.6526 124.738 87.8546 123.691 86.6573C123.529 86.5029 123.383 86.3653 123.254 86.2359Z" fill="black"/>
<path d="M123.692 86.6573C124.713 87.7794 124.021 89.4732 125.242 90.1198C124.746 92.4893 121.112 94.6252 119.757 94.4875C117.886 94.1121 114.893 92.4893 114.018 88.9934C110.654 90.7414 110.9 96.4858 113.522 98.7302C114.122 99.794 111.275 102.226 108.533 102.852C105.307 102.33 102.048 99.9775 100.301 96.7319C99.8638 96.661 99.4179 96.6026 98.9719 96.5567C98.3092 91.5673 102.552 88.9308 104.507 88.5262C102.986 88.1799 101.185 87.7669 99.3845 88.3218C103.261 83.5368 109.217 84.5088 110.604 84.6465C113.305 84.0207 117.736 85.2013 119.261 86.0315C120.291 85.9773 122.095 85.923 123.254 86.2359C123.383 86.3652 123.529 86.5029 123.692 86.6573Z" fill="#F5F5F5"/>
<path d="M91.3238 58.7861C94.4164 56.9589 98.8302 55.6115 102.902 56.0912C98.6676 56.4375 92.4825 59.341 90.6153 66.1784C88.773 72.924 90.5444 76.1571 92.6992 78.5558C90.7528 79.1107 89.0856 79.3902 85.5429 78.8687C88.773 83.249 93.0452 83.8748 95.896 84.5339C93.8787 86.2735 90.511 87.6293 88.9814 88.0465C91.0654 89.7151 93.0451 90.4452 95.3375 90.7914C94.5039 92.0429 93.4619 92.6353 92.5241 93.3654C93.8579 94.4959 95.4917 95.5221 97.7298 96.4483C94.1621 96.2147 90.4985 96.5609 87.581 96.8571C87.3726 96.0436 87.581 93.6115 88.3313 92.4893C85.3387 92.6145 81.0916 91.0751 79.3703 88.9434C81.3667 88.3218 83.5923 87.2455 84.4634 86.4988C81.721 84.5005 75.2149 79.6154 74.7397 71.0217C76.0276 72.4151 77.5447 73.2286 79.2286 74.2673C76.857 70.6463 76.236 67.9013 76.3611 64.1551C79.6745 64.3053 84.9886 62.5281 91.3238 58.7861Z" fill="#D4D4D4"/>
<path d="M127.993 85.5434L127.985 85.364C127.976 85.1805 127.947 85.0178 127.893 84.8467C127.789 84.5088 127.584 84.2085 127.355 83.9832C127.122 83.7579 126.868 83.5911 126.609 83.4576C126.092 83.1989 125.567 83.0654 125.046 82.982C124.525 82.9027 124.004 82.8735 123.475 82.9027C123.212 82.9194 122.946 82.9444 122.666 82.9987C122.529 83.0279 122.387 83.0613 122.233 83.1155C122.124 83.1614 122.016 83.1989 121.883 83.2824C121.149 83.395 120.503 83.3157 120.049 82.9236C119.986 82.8735 119.928 82.8151 119.874 82.7567C119.849 82.7317 119.828 82.7108 119.79 82.6608L119.765 82.6274L119.761 82.6191L119.736 82.5857C119.674 82.4897 119.628 82.3646 119.603 82.2186C119.553 81.9224 119.599 81.5469 119.69 81.1756C119.882 80.4247 120.245 79.6655 120.657 78.948C121.074 78.2346 121.562 77.5296 122.091 76.933L122.199 76.812L122.233 76.666C122.47 75.669 122.512 74.7012 122.5 73.7375C122.483 72.778 122.395 71.8227 122.241 70.8757C122.087 69.9287 121.866 68.9943 121.553 68.0765C121.283 67.2839 120.941 66.5079 120.486 65.7737C121.316 63.4501 121.108 60.8761 120.482 59.0698C119.624 56.5835 117.948 54.6895 115.135 53.438C116.002 55.211 116.523 57.8892 116.248 60.459C115.968 58.8946 115.76 57.6431 113.747 55.6615C111.871 53.8176 109.162 53.2294 107.358 53.2628C108.816 54.3057 110.275 56.0078 110.9 58.1979C108.887 54.3725 105.932 53.7842 102.948 53.9928C102.948 53.9928 104.857 54.8605 106.22 56.5668C105.165 56.0787 104.032 55.7533 102.877 55.5989C101.502 55.4029 100.11 55.4279 98.7426 55.6031C97.3755 55.7741 96.0293 56.0954 94.7289 56.5459C93.4285 56.9965 92.1656 57.5596 90.9736 58.2563C88.6812 59.5829 86.3222 60.7969 83.884 61.7814C82.6628 62.2695 81.4208 62.695 80.1663 63.0246C78.9117 63.3458 77.628 63.5711 76.3859 63.5293L75.7441 63.5085L75.7316 64.1342V64.1384C75.7066 65.9573 75.865 67.8304 76.4276 69.5992C76.7902 70.7672 77.3071 71.8644 77.9072 72.9073C77.6488 72.7321 77.3904 72.5569 77.1445 72.3734C76.4193 71.8394 75.7524 71.2595 75.1939 70.592L74.0645 69.2487L74.1103 71.0509V71.0593C74.227 72.6904 74.5687 74.3049 75.1272 75.8359C75.6816 77.3669 76.4485 78.8145 77.3737 80.1369C78.299 81.4635 79.3743 82.6691 80.5455 83.7621C81.6083 84.755 82.7545 85.6477 83.9298 86.4821C83.6589 86.6489 83.3755 86.8074 83.0838 86.9493C82.667 87.1495 82.2419 87.3289 81.8126 87.5C80.9498 87.8379 80.0662 88.1257 79.1784 88.3468L78.2948 88.5679L78.8825 89.3355L78.8909 89.348C79.5077 90.0489 80.2329 90.562 80.9832 90.9958C81.7375 91.4255 82.5253 91.7634 83.3297 92.0346C84.1341 92.3058 84.9593 92.5143 85.797 92.6478C86.4556 92.7521 87.1183 92.8064 87.7893 92.8022C87.6809 93.0024 87.5893 93.211 87.5101 93.4154C87.3684 93.7867 87.2558 94.1663 87.1683 94.5501C87.0808 94.9339 87.0099 95.3219 86.9682 95.7182C86.9349 96.127 86.8891 96.5025 86.9766 97.0114L87.0558 97.4954L87.6434 97.4787H87.656C89.7649 97.2617 91.8655 97.074 93.962 97.0156C95.9584 96.9614 97.9548 97.024 99.9096 97.3076C100.781 98.8303 101.964 100.161 103.356 101.217C104.836 102.33 106.562 103.156 108.429 103.465L108.55 103.486L108.666 103.457C109.896 103.169 111.013 102.627 112.026 101.926C112.53 101.571 113.013 101.175 113.447 100.687C113.664 100.441 113.868 100.169 114.03 99.8273C114.11 99.6521 114.185 99.4602 114.214 99.2183C114.243 98.9847 114.21 98.6801 114.064 98.4215L114.01 98.3297L113.926 98.2546L113.918 98.2463C113.305 97.7415 112.834 97.0114 112.522 96.2188C112.209 95.422 112.047 94.5543 112.042 93.6866C112.038 92.823 112.192 91.9512 112.547 91.1836C112.826 90.5745 113.243 90.0405 113.768 89.6442C113.93 90.1657 114.147 90.6746 114.422 91.1544C114.789 91.7968 115.252 92.385 115.781 92.8981C116.314 93.4113 116.915 93.8493 117.565 94.2039C118.215 94.5585 118.903 94.838 119.649 95.0007L119.674 95.0048L119.699 95.009C120.141 95.0466 120.482 94.959 120.816 94.8672C121.145 94.7712 121.458 94.6461 121.758 94.5084C122.354 94.2289 122.912 93.8868 123.437 93.4947C123.963 93.1025 124.454 92.652 124.879 92.1264C125.246 91.6717 125.567 91.1418 125.759 90.5328C126.217 90.2533 126.538 89.8862 126.809 89.5149C127.126 89.0685 127.364 88.5888 127.551 88.0923C127.734 87.5959 127.864 87.0786 127.935 86.553C127.968 86.2902 127.989 86.0232 127.989 85.7562L127.993 85.5434ZM126.701 86.3903C126.647 86.82 126.538 87.2455 126.388 87.6543C126.238 88.059 126.038 88.4511 125.801 88.789C125.563 89.1227 125.263 89.4231 124.996 89.5441H124.992L124.688 89.711L124.634 89.9863C124.542 90.4577 124.283 90.9416 123.95 91.3796C123.612 91.8218 123.196 92.2223 122.745 92.5811C122.295 92.9399 121.799 93.2569 121.291 93.5155C121.037 93.6449 120.774 93.7533 120.516 93.8368C120.27 93.916 120.007 93.9703 119.832 93.9619C119.224 93.8409 118.615 93.6198 118.044 93.3278C117.465 93.0316 116.919 92.652 116.435 92.214C115.468 91.3338 114.764 90.1782 114.426 88.9016L114.422 88.8933L114.297 88.3969L113.83 88.6263C112.905 89.0769 112.167 89.8737 111.713 90.7789C111.255 91.6842 111.042 92.6854 111.009 93.6782C110.98 94.6711 111.125 95.6723 111.455 96.6193C111.767 97.512 112.255 98.3756 112.976 99.0723C112.976 99.0764 112.976 99.0764 112.976 99.0806C112.972 99.1265 112.947 99.2099 112.905 99.2975C112.822 99.4769 112.676 99.6772 112.513 99.8649C112.18 100.245 111.763 100.595 111.321 100.904C110.467 101.496 109.5 101.959 108.512 102.205C106.932 101.922 105.42 101.2 104.119 100.219C102.781 99.2058 101.652 97.9084 100.856 96.4357L100.71 96.1646L100.406 96.1145C98.2507 95.7724 96.0834 95.7057 93.937 95.7641C91.9739 95.8183 90.0275 95.9852 88.0894 96.1771C88.0727 96.0394 88.0644 95.8934 88.0561 95.7558C88.0436 95.4053 88.0519 95.0466 88.0769 94.6878C88.1394 93.9828 88.2603 93.2486 88.5687 92.6562L88.5729 92.6478L88.8813 92.1931H88.3186C87.5226 92.1973 86.7224 92.0847 85.943 91.9053C85.1594 91.7259 84.3925 91.4756 83.6548 91.1711C82.9171 90.8623 82.2043 90.4994 81.55 90.0655C81.1457 89.7986 80.7664 89.4982 80.4288 89.1728C81.0331 88.9142 81.625 88.643 82.2043 88.3385C82.6294 88.1132 83.0504 87.8712 83.463 87.6126C83.8715 87.3498 84.2758 87.0786 84.6509 86.7282L84.6592 86.7198L84.951 86.4821L84.6384 86.2484C83.3797 85.3056 82.1752 84.3128 81.0748 83.2114C79.9745 82.1143 78.9784 80.9128 78.1406 79.6196C77.3029 78.3264 76.6235 76.933 76.1526 75.4813C75.8358 74.5051 75.619 73.4955 75.4898 72.4776C75.8441 72.7405 76.2109 72.9866 76.5777 73.2119C77.3904 73.7083 78.2115 74.138 79.0117 74.5885L79.0159 74.5927L80.4622 75.5272L79.5452 74.0504C78.6158 72.5569 77.8281 70.9842 77.3946 69.3197C77.0028 67.8512 76.8986 66.3244 76.9486 64.785C78.1615 64.7683 79.3327 64.5556 80.4747 64.2844C81.8126 63.959 83.1046 63.5127 84.3675 63.0037C86.8891 61.99 89.2981 60.7385 91.6113 59.3493C93.8328 58.0227 96.3377 57.1466 98.8926 56.7253C100.172 56.5292 101.473 56.4625 102.76 56.5626C104.044 56.6752 105.315 56.9589 106.507 57.4679L106.945 57.6556C106.945 57.6556 106.832 56.1746 105.582 54.8522C108.729 55.6824 110.584 58.2939 111.517 60.6926C111.517 60.6926 112.251 57.3928 110.167 54.7145C111.938 55.5489 115.377 57.3218 115.723 62.3863C116.94 61.0764 117.498 58.6443 117.394 56.767C118.54 58.0185 119.269 59.5162 119.549 60.8678C120.103 63.5794 119.003 65.7779 119.003 65.7779L119.244 66.1283C119.724 66.825 120.091 67.6343 120.374 68.4686C120.657 69.3071 120.866 70.1832 121.012 71.0718C121.158 71.9562 121.241 72.8573 121.253 73.75C121.266 74.5927 121.22 75.4521 121.045 76.228C120.474 76.8871 120.003 77.5796 119.574 78.3139C119.124 79.1023 118.715 79.9283 118.473 80.8669C118.361 81.3383 118.277 81.8473 118.365 82.4105C118.411 82.69 118.507 82.9903 118.682 83.2573L118.748 83.3574L118.819 83.4451C118.849 83.4826 118.903 83.541 118.949 83.5952C119.044 83.6995 119.14 83.7913 119.249 83.8789C119.67 84.2335 120.211 84.4588 120.737 84.5339C121.262 84.6131 121.774 84.5631 122.229 84.488L122.387 84.463L122.57 84.3128C122.516 84.3587 122.583 84.3044 122.654 84.2877C122.725 84.2627 122.821 84.2377 122.916 84.2168C123.112 84.1793 123.325 84.1542 123.542 84.1417C123.975 84.1209 124.425 84.1417 124.854 84.2085C125.284 84.2752 125.705 84.3879 126.046 84.5631C126.397 84.7383 126.634 84.9719 126.705 85.2097C126.726 85.2681 126.738 85.3432 126.738 85.4016L126.747 85.581V85.7311C126.742 85.9606 126.73 86.1775 126.701 86.3903Z" fill="black"/>
<path d="M108.016 73.5164C110.204 72.5777 113.384 71.1719 116.835 75.5647C117.394 75.3936 118.227 74.4008 118.29 72.6528C118.019 73.3579 117.811 73.725 117.527 73.9711C116.556 71.8227 113.855 70.3667 112.401 70.4377C111.017 70.713 109.316 71.7976 108.016 73.5164Z" fill="black"/>
<path d="M116.836 68.2183C114.443 67.2588 109.838 66.8417 108.108 67.2463C106.516 68.356 104.924 71.4055 104.578 72.5819C102.152 72.4443 97.3048 73.4163 95.2958 74.1755C98.4801 74.5551 102.223 75.7691 103.261 76.5325C99.7972 76.3239 90.3027 77.1625 87.9562 87.4165C87.281 84.6715 87.0726 80.9712 87.4727 78.4056C89.3441 77.296 95.3667 75.911 97.2381 75.84C95.3 75.0099 91.2113 75.0099 89.4816 75.2143C92.2533 72.3733 98.2092 70.8465 102.64 71.0551C103.432 67.8804 106.032 65.3691 107.003 65.0937C110.621 65.0019 114.022 65.974 116.836 68.2183Z" fill="#332525"/>
<path d="M111.709 62.9495C108.587 62.5657 105.161 63.1247 104.057 63.4C102.631 64.2343 101.047 67.0377 100.493 67.9388C99.3136 68.0097 96.2002 68.4227 94.7456 69.1862C95.7167 67.6593 97.5172 67.2463 98.0716 67.1087C98.7468 64.8601 100.426 62.3946 101.327 61.7689C104.924 61.2182 108.454 61.6312 111.709 62.9495Z" fill="#332525"/>
<path d="M100.406 58.2563C99.5806 58.9238 98.8346 60.1169 98.3428 61.773C99.5265 60.6884 102.752 58.9613 107.691 59.6622C105.616 58.6735 103.965 58.127 100.406 58.2563Z" fill="#332525"/>
<path d="M114.964 84.7883C115.827 82.6983 116.243 78.9646 115.672 77.1166C114.656 75.11 111.75 74.6887 109.837 77.7882C108.47 80.0034 109.004 83.6453 109.767 84.5839C111.017 84.3003 112.859 84.1042 114.964 84.7883Z" fill="white"/>
<path d="M115.673 77.1166C116.223 78.877 115.868 82.3562 115.085 84.488C114.885 84.5714 114.681 84.6215 114.468 84.6382C114.097 84.538 113.739 84.4671 113.389 84.4171C112.276 83.8372 111.58 82.2144 111.767 80.3955C111.988 78.2054 113.401 76.5534 114.918 76.7077C115.135 76.7286 115.339 76.787 115.535 76.8746C115.585 76.9539 115.627 77.0331 115.673 77.1166Z" fill="black"/>
<path d="M115.873 77.054L115.86 77.0206C115.619 76.4282 115.189 75.8859 114.61 75.5271C114.035 75.16 113.318 74.989 112.609 75.0557C111.901 75.1183 111.23 75.4103 110.671 75.815C110.113 76.2238 109.663 76.7369 109.296 77.2876C108.525 78.4598 108.283 79.8282 108.304 81.1089C108.312 81.7555 108.396 82.3938 108.554 83.0237C108.637 83.3366 108.733 83.6494 108.867 83.954C108.975 84.1959 109.096 84.4379 109.279 84.6757C109.554 84.5338 109.838 84.4129 110.134 84.3294L110.121 84.3044C109.938 83.9248 109.817 83.3366 109.759 82.7984C109.692 82.2478 109.684 81.6846 109.709 81.1297C109.742 80.5791 109.804 80.0284 109.942 79.5111C110.009 79.2525 110.079 78.998 110.18 78.7602C110.23 78.6434 110.284 78.5224 110.334 78.4223C110.355 78.3764 110.396 78.3055 110.434 78.2429L110.53 78.0761C111.092 77.1666 111.83 76.3782 112.793 76.0987C113.268 75.961 113.797 75.9693 114.285 76.1654C114.768 76.3615 115.198 76.7286 115.494 77.2042C115.798 78.0051 115.894 78.9146 115.94 79.8031C116.019 78.902 116.069 77.9843 115.873 77.054Z" fill="black"/>
<path d="M120.266 88.9767C120.266 89.2145 120.028 89.4064 119.736 89.4064C119.445 89.4064 119.207 89.2145 119.207 88.9767C119.207 88.739 119.445 88.5471 119.736 88.5471C120.028 88.5471 120.266 88.739 120.266 88.9767Z" fill="#B7B7B7"/>
<path d="M120.853 90.174C120.853 90.3367 120.703 90.4702 120.52 90.4702C120.337 90.4702 120.187 90.3367 120.187 90.174C120.187 90.0113 120.337 89.8778 120.52 89.8778C120.703 89.8778 120.853 90.0113 120.853 90.174Z" fill="#B7B7B7"/>
<path d="M121.595 89.1936C121.595 89.3772 121.412 89.5274 121.183 89.5274C120.958 89.5274 120.77 89.3772 120.77 89.1936C120.77 89.0101 120.953 88.8599 121.183 88.8599C121.412 88.8599 121.595 89.0101 121.595 89.1936Z" fill="#B7B7B7"/>
<path d="M125.688 85.4349C125.629 85.7437 125.108 85.9022 124.525 85.7895C123.941 85.6769 123.516 85.339 123.575 85.0303C123.633 84.7216 124.154 84.5631 124.738 84.6757C125.321 84.7883 125.746 85.1262 125.688 85.4349Z" fill="#F5F5F5"/>
<path d="M114.939 79.6863C114.468 80.4998 113.639 80.9045 113.089 80.5832C112.543 80.2662 112.48 79.3443 112.951 78.5308C113.426 77.7173 114.251 77.3126 114.802 77.6339C115.352 77.9551 115.414 78.8728 114.939 79.6863Z" fill="white"/>
<path d="M108.016 85.4057C109.842 84.8843 113.226 84.5213 116.627 85.7561C114.526 84.0499 112.422 83.712 110.725 83.9456C109.633 84.0958 108.533 84.6757 108.016 85.4057Z" fill="#E6E6E6"/>
<path d="M92.6991 78.5558C91.1236 79.0063 89.7316 79.2733 87.3809 79.0814C87.4059 78.8478 87.435 78.6225 87.4684 78.4056C88.2644 77.9384 89.8066 77.4169 91.4612 76.9706C91.8405 77.5504 92.2615 78.0677 92.6991 78.5558Z" fill="#1A1313"/>
<path d="M90.2939 74.4884C90.3606 74.7095 90.4357 74.9264 90.5149 75.135C90.1189 75.1559 89.7646 75.1851 89.4771 75.2185C89.723 74.964 89.998 74.722 90.2939 74.4884Z" fill="#1A1313"/>
<path d="M89.911 82.6441C89.0691 83.9498 88.3897 85.5226 87.9563 87.4207C87.4728 85.4517 87.2269 82.9862 87.2769 80.8044C88.1313 81.5845 89.019 82.1769 89.911 82.6441Z" fill="#1A1313"/>
<path d="M92.4112 68.2308C94.3201 66.1033 96.7333 61.9107 96.254 59.7372C95.8914 58.1228 94.8077 57.9476 92.357 56.7294C89.3895 55.2527 86.7637 52.8664 84.934 51.3479C82.85 50.2758 81.087 52.249 80.0325 55.9201C78.7363 60.4381 79.4032 68.5395 85.0965 71.71C87.193 72.2857 89.8062 71.1302 92.4112 68.2308Z" fill="#E6E6E6"/>
<path d="M84.5218 55.2068C86.8267 59.0614 89.7483 60.9011 91.9573 62.4739C92.3491 63.1831 90.0443 68.2851 86.8308 68.7314C84.526 67.0502 83.4882 64.9978 82.9672 61.9858C82.4504 58.9863 83.3548 54.8897 84.5218 55.2068Z" fill="#DAB5B5"/>
<path d="M96.2543 59.7372C96.0001 59.1699 95.6374 58.736 95.1456 58.4941C94.6663 58.2313 94.1037 58.0561 93.5493 57.8475C92.9825 57.6514 92.4282 57.4136 91.8655 57.1758C91.2987 56.9172 90.7568 56.6252 90.2317 56.3081C88.1352 55.0316 86.2597 53.4547 84.4342 51.957L84.5759 52.053C84.2132 51.8694 83.8756 51.811 83.563 51.8819C83.2463 51.9487 82.917 52.1614 82.6169 52.4701C82.0126 53.0959 81.5708 54.0053 81.204 54.9273C81.0207 55.3945 80.8623 55.8743 80.7247 56.3665C80.5955 56.8337 80.4913 57.3343 80.4121 57.8308C80.2579 58.8278 80.1954 59.8499 80.2079 60.8678C80.2371 62.9077 80.6372 64.9477 81.4291 66.8125C82.2126 68.6814 83.413 70.3626 85.0927 71.7142C84.0715 71.3596 83.1296 70.7547 82.3252 69.9913C81.5249 69.2237 80.8581 68.3101 80.3538 67.3172C79.341 65.3273 78.8825 63.1163 78.7533 60.922C78.6908 59.8207 78.7283 58.711 78.8867 57.6055C78.9659 57.0507 79.0659 56.5083 79.2076 55.9493C79.3451 55.4154 79.5118 54.8856 79.7036 54.3558C80.0953 53.3045 80.5955 52.2574 81.4707 51.3438C81.9084 50.8974 82.4919 50.4802 83.2213 50.3259C83.9507 50.1632 84.7134 50.3384 85.2885 50.6471L85.3719 50.693L85.4302 50.7431C86.3555 51.5232 87.2308 52.3158 88.1394 53.0625C89.048 53.8093 89.9775 54.5226 90.9486 55.1567C91.4321 55.4779 91.9238 55.7825 92.4198 56.0703C92.92 56.3749 93.4451 56.6418 93.962 56.9506C94.4788 57.2551 95.0206 57.5638 95.5041 58.0143C95.7375 58.2438 95.9459 58.5191 96.0709 58.8236C96.2043 59.1198 96.2543 59.4327 96.2543 59.7372Z" fill="black"/>
<path d="M82.9673 61.9858C82.6589 60.776 82.5671 59.5078 82.6338 58.2354C82.6713 57.5971 82.7464 56.9589 82.9173 56.3123C83.0048 55.9869 83.1131 55.6615 83.309 55.3236C83.4132 55.1567 83.5299 54.9773 83.7467 54.8104C83.855 54.727 83.9884 54.6519 84.1593 54.606C84.326 54.5601 84.5177 54.5601 84.6844 54.5977H84.6886L84.9303 54.6603L85.0596 54.8814C85.9057 56.3456 86.9601 57.6848 88.1897 58.8612C89.415 60.0459 90.8154 61.043 92.2408 62.0692L92.3367 62.1401L92.3825 62.2319L92.3867 62.2361C92.4992 62.4864 92.4742 62.6199 92.4742 62.7492C92.4659 62.8744 92.445 62.9828 92.42 63.0829C92.37 63.2874 92.3075 63.4709 92.2367 63.6545C92.095 64.0132 91.9282 64.3511 91.749 64.6765C91.3864 65.3273 90.9613 65.9322 90.482 66.4912C90.0027 67.0502 89.465 67.5592 88.8523 67.968C88.2438 68.3727 87.552 68.6689 86.8309 68.7273C87.5395 68.5854 88.1688 68.2225 88.7065 67.7719C89.2441 67.3172 89.6984 66.7749 90.0944 66.195C90.4862 65.6152 90.8196 64.9936 91.0905 64.3553C91.2239 64.0341 91.3405 63.7087 91.4239 63.3875C91.4656 63.2248 91.499 63.0662 91.5198 62.9161C91.5281 62.841 91.5323 62.7701 91.5281 62.7158C91.5323 62.6658 91.4989 62.6157 91.5323 62.7033L91.674 62.866C90.2444 61.8898 88.7523 60.8928 87.4269 59.6747C86.0973 58.469 84.9262 57.0632 83.98 55.5238L84.351 55.8075C84.3927 55.8117 84.4552 55.7658 84.4052 55.7783C84.3635 55.7866 84.2802 55.8534 84.2093 55.941C84.0593 56.1162 83.9176 56.3665 83.8009 56.6251C83.5633 57.1508 83.3882 57.7306 83.2507 58.323C82.9923 59.5078 82.8672 60.7468 82.9673 61.9858Z" fill="#D4D4D4"/>
</svg>
