<svg width="132" height="137" viewBox="0 0 132 137" fill="none" xmlns="http://www.w3.org/2000/svg">
<path d="M73.6391 93.7955C71.6594 95.097 72.0929 98.7264 74.5227 104.083C76.9568 109.435 85.2592 118.872 90.715 119.552C94.487 119.026 100.68 112.668 100.026 110.215C99.1467 108.113 96.5917 107.892 94.5578 108.509C90.8734 107.187 86.6513 105.009 85.3676 102.982C81.0372 97.0285 77.3819 91.3383 73.6391 93.7955Z" fill="#E6E6E6"/>
<path d="M100.03 110.219C100.684 112.672 94.4908 119.03 90.7189 119.552C87.9639 119.205 84.4795 116.627 81.3911 113.469C84.5796 111.392 87.6721 107.817 88.6391 105.764C90.3979 106.824 92.5569 107.792 94.5617 108.509C96.5956 107.892 99.1463 108.113 100.03 110.219Z" fill="#EFEFEF"/>
<path d="M85.6839 103.411C86.1257 103.949 86.7591 104.496 87.5177 105.034C85.7839 107.687 82.9997 108.851 80.5073 108.618C81.9869 107.783 84.6336 105.543 85.6839 103.411Z" fill="#1A1313"/>
<path d="M84.1126 101.246C84.496 101.78 84.8836 102.318 85.2837 102.865C83.9042 104.275 82.3871 104.942 81.0283 104.917C82.2287 104.12 83.4957 102.51 84.1126 101.246Z" fill="#1A1313"/>
<path d="M83.4374 100.316C81.7702 102.577 78.0524 105.063 75.5225 105.968C75.1266 105.301 74.789 104.667 74.5222 104.083C74.5014 104.041 74.4847 103.995 74.4639 103.954C76.9354 102.84 79.3278 100.812 79.8696 99.1269C77.9649 100.124 76.4144 100.599 74.6681 100.291C75.7434 99.9195 78.6276 97.2037 79.5195 95.4725C80.7866 96.749 82.0828 98.4511 83.4374 100.316Z" fill="#1A1313"/>
<path d="M100.635 110.057L100.626 110.019L100.61 109.977C100.372 109.406 99.9802 108.872 99.4759 108.484C98.9758 108.096 98.3923 107.854 97.8088 107.721C96.7168 107.483 95.6289 107.575 94.6078 107.85C93.0782 107.224 91.5777 106.532 90.1356 105.756C89.3896 105.351 88.6602 104.926 87.9809 104.45C87.3015 103.983 86.6471 103.465 86.172 102.886C85.6843 102.226 85.13 101.513 84.6132 100.825C84.0922 100.128 83.5462 99.4439 82.9877 98.764C81.8582 97.429 80.6412 96.1066 79.1658 95.1179C80.2077 96.5404 81.133 97.9838 82.0999 99.4273C83.0669 100.875 84.0339 102.281 85.055 103.757C85.6677 104.542 86.3929 105.126 87.1306 105.66C87.8767 106.181 88.6477 106.644 89.4396 107.061C91.0193 107.892 92.6656 108.563 94.3536 109.097L94.5703 109.164L94.7454 109.106C95.6581 108.83 96.6501 108.743 97.5337 108.939C97.9755 109.039 98.3798 109.214 98.709 109.469C99.0258 109.715 99.2634 110.036 99.4301 110.407C99.4843 110.641 99.4259 110.987 99.3009 111.346C99.0841 111.187 98.8507 111.058 98.6173 110.97C98.2089 110.812 97.7921 110.745 97.3836 110.741C96.5751 110.733 95.779 110.97 95.1871 111.433C95.8832 111.154 96.6418 111.166 97.3003 111.363C97.9547 111.554 98.5215 111.98 98.7174 112.464C98.7216 112.476 98.734 112.485 98.7382 112.497C98.6257 112.685 98.5048 112.868 98.3798 113.052C97.7462 113.957 96.9918 114.8 96.1791 115.576C95.3664 116.352 94.487 117.065 93.5575 117.67C92.6573 118.246 91.6778 118.751 90.7233 118.917C89.6522 118.721 88.5894 118.229 87.5891 117.633C86.5638 117.011 85.5968 116.277 84.6507 115.505C82.771 113.945 81.0747 112.147 79.4742 110.278C77.9029 108.392 76.4024 106.407 75.2771 104.262C74.7353 103.178 74.2101 102.043 73.7225 100.917C73.2348 99.7819 72.7805 98.6388 72.4346 97.4207C72.3387 98.693 72.568 99.9779 72.8931 101.204C73.2307 102.439 73.6683 103.616 74.2018 104.788C75.3271 107.12 76.7859 109.206 78.3864 111.179C79.9827 113.156 81.7707 114.975 83.7296 116.619C84.7132 117.441 85.7593 118.192 86.893 118.834C88.0267 119.468 89.2562 120.023 90.6483 120.173L90.7483 120.186L90.815 120.173C92.1362 119.965 93.2241 119.364 94.241 118.721C95.2538 118.062 96.1833 117.307 97.0461 116.481C97.9088 115.655 98.709 114.767 99.4092 113.77C99.7552 113.269 100.076 112.743 100.334 112.155C100.464 111.859 100.576 111.55 100.647 111.208C100.705 110.866 100.739 110.478 100.635 110.057Z" fill="black"/>
<path d="M43.801 95.4891C45.9558 93.2656 48.319 92.5356 50.6363 94.1876C52.7911 95.7228 52.4827 99.4231 51.5241 101.959C50.5655 104.496 47.7022 110.061 45.564 112.643C43.3217 115.121 41.1794 116.243 36.3488 119.835C34.8609 123.26 31.4099 125.071 28.2256 120.845C25.0455 116.619 25.3747 110.19 27.7963 108.129C29.6385 106.907 33.0978 106.882 37.3199 103.824C39.8415 101.096 41.863 97.4957 43.801 95.4891Z" fill="#E6E6E6"/>
<path d="M52.22 98.9892C52.1408 99.8152 51.9658 100.645 51.7199 101.4C50.1361 101.121 47.8687 100.449 46.981 98.3301C48.1355 99.0476 50.5528 99.3313 52.22 98.9892Z" fill="#1A1313"/>
<path d="M51.2576 102.631C50.8366 103.632 50.2323 104.917 49.528 106.265C47.4315 105.71 44.3931 104.229 43.2886 100.829C43.747 101.772 48.1192 102.986 51.2576 102.631Z" fill="#1A1313"/>
<path d="M39.1956 101.555C40.025 103.933 44.2471 108.058 48.2066 108.672C47.3188 110.207 46.3853 111.642 45.5642 112.639C44.8348 113.44 44.1221 114.099 43.326 114.746C39.2581 113.874 37.641 110.908 37.5493 108.079C39.1123 110.345 41.4754 111.317 43.2926 110.879C39.8916 109.66 38.1995 105.28 38.0244 103.023C38.4287 102.552 38.8163 102.06 39.1956 101.555Z" fill="#1A1313"/>
<path d="M42.0379 115.743C40.6 116.798 38.8287 117.991 36.3488 119.835C34.8608 123.26 31.4098 125.071 28.2255 120.845C25.0454 116.619 25.3747 110.19 27.8004 108.125C29.2842 107.141 31.8182 106.932 34.9567 105.288C34.8775 108.125 37.2823 114.266 42.0379 115.743Z" fill="#EFEFEF"/>
<path d="M52.2536 98.3384C52.0202 99.4856 51.6784 100.57 51.2199 101.588C50.749 102.606 50.203 103.616 49.6736 104.629C48.6067 106.648 47.4688 108.643 46.2101 110.516C45.8933 110.983 45.5682 111.438 45.2223 111.867L44.9848 112.155L44.6972 112.46C44.5054 112.66 44.3096 112.856 44.1095 113.048C43.3134 113.815 42.4298 114.5 41.517 115.184C39.679 116.531 37.7826 117.887 35.9738 119.33L35.8279 119.447L35.7737 119.585V119.589C35.3861 120.44 34.8484 121.22 34.1774 121.788C33.5105 122.363 32.702 122.684 31.9101 122.593C31.6892 122.572 31.4682 122.518 31.2557 122.438C31.2682 122.426 31.2807 122.417 31.2974 122.405C31.6267 122.117 31.8851 121.783 32.081 121.425C32.4686 120.715 32.6353 119.902 32.5102 119.159C32.4269 119.906 32.0601 120.569 31.5766 121.058C31.1557 121.487 30.6097 121.771 30.1304 121.792C29.9803 121.675 29.8386 121.55 29.6969 121.412C29.0467 120.778 28.4882 119.994 28.0381 119.172C27.1378 117.512 26.6752 115.597 26.6585 113.699C26.6502 112.752 26.7585 111.8 27.0128 110.916C27.2629 110.057 27.6713 109.235 28.2506 108.722C28.8383 108.338 29.6344 108.079 30.4388 107.817C31.264 107.55 32.1226 107.283 32.9604 106.957C34.6484 106.315 36.2655 105.443 37.7159 104.362L37.7785 104.316L37.8159 104.275C39.3581 102.56 40.6126 100.675 41.8922 98.8515C42.5424 97.9463 43.155 97.0327 43.8136 96.1691C44.4679 95.3014 45.1806 94.4963 46.0684 93.7746C44.9431 94.0457 43.9511 94.7549 43.1176 95.5434C42.2881 96.3527 41.5879 97.2496 40.9294 98.159C39.6165 99.9487 38.3578 101.747 36.8907 103.311C35.5194 104.275 34.0398 105.051 32.4644 105.626C31.6683 105.923 30.8514 106.169 30.0053 106.427C29.1676 106.699 28.2798 106.94 27.3962 107.504L27.3587 107.525L27.3212 107.558C26.3793 108.38 25.8999 109.456 25.5873 110.499C25.2831 111.559 25.1664 112.635 25.1747 113.707C25.1997 115.847 25.7124 117.975 26.7377 119.873C27.2545 120.82 27.888 121.696 28.7008 122.459C29.501 123.21 30.5471 123.869 31.785 123.974C32.3935 124.028 33.0187 123.928 33.5772 123.711C34.1357 123.494 34.6317 123.168 35.061 122.793C35.8695 122.071 36.4364 121.178 36.8532 120.24L39.5665 118.371C40.5168 117.724 41.4712 117.078 42.4173 116.389C43.3676 115.709 44.3012 114.967 45.1681 114.137C45.3849 113.928 45.5974 113.715 45.8017 113.498L46.1059 113.169L46.2018 113.056L46.2726 112.969L46.4143 112.789C46.7811 112.309 47.1187 111.821 47.4397 111.325C48.0857 110.336 48.665 109.323 49.2152 108.292C49.7612 107.262 50.2988 106.227 50.7698 105.159C51.0115 104.629 51.2408 104.091 51.445 103.541C51.6576 102.994 51.8493 102.439 52.0035 101.859C52.3036 100.708 52.4203 99.5023 52.2536 98.3384Z" fill="black"/>
<path d="M45.9639 76.4996C46.2723 74.8517 44.5135 73.8213 41.3459 73.2289C27.0083 70.5465 27.2125 66.9046 25.4203 59.358C23.203 50.0301 16.2968 44.6361 9.43642 47.3143C6.90234 49.5295 6.31886 54.936 12.379 58.0481C17.9681 60.9182 17.5638 65.1025 20.7272 71.6353C24.0949 77.0752 35.2316 78.7356 39.7287 78.8691C44.2259 79.0026 45.5304 78.8232 45.9639 76.4996Z" fill="#E6E6E6"/>
<path d="M45.9682 76.4954C45.5347 78.819 44.2302 79.0026 39.7288 78.8691C35.8444 78.7481 27.0167 77.4966 22.5112 73.6586C28.8881 76.4161 32.6559 74.0466 33.948 71.3392C35.8485 72.0358 38.2617 72.6533 41.346 73.2331C44.5094 73.8213 46.2724 74.8517 45.9682 76.4954Z" fill="#D4D4D4"/>
<path d="M37.0786 72.2987C34.8113 73.2832 33.5567 76.4579 33.2191 78.0765C32.1772 77.8679 31.106 77.6176 30.0432 77.3089C30.3475 74.906 31.4603 73.0746 32.0688 72.5156C30.9935 72.5657 30.4641 73.0162 29.7598 73.6461C29.9473 72.2486 30.9018 70.9679 31.8521 70.4423C33.1983 71.1222 34.903 71.7313 37.0786 72.2987Z" fill="#332525"/>
<path d="M35.499 71.8523C35.4281 71.8314 35.3573 71.8064 35.2864 71.7855C35.1072 71.7313 34.9238 71.6729 34.7529 71.6145C34.6571 71.5811 34.5654 71.5519 34.4695 71.5185C34.3278 71.4685 34.1861 71.4226 34.0486 71.3725C34.0152 71.36 33.9777 71.3475 33.9444 71.335C33.3942 72.4905 32.3898 73.5793 30.9268 74.2426C30.5392 75.0686 30.1891 76.1157 30.0391 77.3047C30.0432 77.3047 30.0474 77.3088 30.0516 77.3088C30.5392 77.4507 31.0268 77.5758 31.5145 77.6968C31.602 77.7177 31.6937 77.7385 31.7812 77.7594C32.248 77.8679 32.7149 77.9721 33.1775 78.0639C33.19 78.0681 33.2067 78.0681 33.2192 78.0723C33.5609 76.4495 34.8155 73.279 37.0786 72.2945C36.8411 72.2319 36.6077 72.1693 36.3826 72.1067C36.3576 72.0984 36.3284 72.0942 36.3034 72.0859C36.0283 72.0108 35.7616 71.9315 35.499 71.8523Z" fill="#1A1313"/>
<path d="M27.6552 66.7002C28.2554 67.7473 29.0681 68.6693 30.2476 69.4953C26.2589 69.587 24.5793 73.4918 24.5668 75.0854C23.6457 74.5597 22.8079 73.9673 22.1035 73.2957L22.141 73.2581C22.141 68.7485 25.5296 66.9172 27.6552 66.7002Z" fill="#332525"/>
<path d="M25.4213 59.358C25.7422 60.7138 26.0006 61.9403 26.2882 63.0583C21.7077 62.9707 19.6863 65.4988 18.9902 67.4678C18.5526 66.2831 18.1816 65.1942 17.7773 64.1972C19.307 61.2937 21.8869 60.6554 22.9414 60.5929C21.2659 59.6417 19.4111 60.2842 18.7568 60.7305C19.8363 57.3348 23.4499 57.3473 24.9711 57.7311C25.1379 58.2609 25.2879 58.8032 25.4213 59.358Z" fill="#332525"/>
<path d="M22.7533 52.8376C17.0099 52.4121 14.6801 57.097 14.7134 59.6C14.0715 59.041 13.3088 58.5279 12.3794 58.0523C6.31926 54.936 6.90691 49.5295 9.441 47.3185C14.48 45.3494 19.5398 47.7357 22.7533 52.8376Z" fill="#332525"/>
<path d="M33.6146 78.7898C29.7302 78.064 22.8198 76.2117 20.194 71.9649L20.1648 71.9065C19.2146 69.9458 18.581 68.1895 18.0225 66.6377C16.693 62.9499 15.8136 60.5136 12.0958 58.603C9.15325 57.0928 7.36106 54.8443 7.04847 52.2787C6.79423 50.2095 7.55278 48.1278 9.02822 46.8388L9.11156 46.7678L9.21163 46.7303C11.058 46.0086 12.946 45.8209 14.8133 46.1713C20.0523 47.1516 24.3494 52.1493 26.0291 59.212C26.1541 59.7418 26.2708 60.255 26.3834 60.7472C27.8588 67.2342 28.5298 70.192 41.4587 72.6115C45.2181 73.3166 46.9436 74.6598 46.5768 76.608C46.0266 79.5449 43.9594 79.6158 39.7081 79.4907C37.9409 79.4406 35.7194 79.1862 33.6146 78.7898ZM21.2735 71.335C23.6617 75.1563 30.172 76.875 33.8439 77.5634C36.7448 78.1057 38.937 78.2225 39.7456 78.2433C44.2886 78.381 45.0222 78.1349 45.3515 76.3828C45.564 75.2481 44.1761 74.3929 41.2336 73.8422C27.4962 71.2724 26.6668 67.6347 25.1663 61.0267C25.0538 60.5386 24.9413 60.0297 24.8162 59.504C23.2533 52.9294 19.3354 48.2905 14.5882 47.4019C12.9877 47.1016 11.3664 47.2559 9.77429 47.8566C8.66146 48.8829 8.09461 50.5099 8.29467 52.1326C8.55724 54.2727 10.1119 56.1792 12.671 57.4933C16.8264 59.6292 17.8767 62.5327 19.2021 66.2163C19.7439 67.7265 20.3607 69.441 21.2735 71.335Z" fill="black"/>
<path d="M90.0354 88.222C88.9351 84.1004 83.8878 82.0395 79.9908 81.9311C76.0938 81.8226 70.6422 81.1927 67.012 80.1456C58.0468 74.9643 51.5157 72.2778 45.3972 72.2152C39.8706 72.4488 33.848 75.9739 31.4223 82.6862C29.0466 91.0546 32.1892 99.4481 43.1549 104.316C57.1215 108.555 69.6544 108.505 77.3692 106.01C87.3054 102.794 92.2111 96.3777 90.0354 88.222Z" fill="#E6E6E6"/>
<path d="M90.0354 88.2179C92.2111 96.3777 87.3096 102.794 77.3692 106.006C69.6544 108.501 57.1215 108.551 43.1549 104.312C32.1892 99.4439 29.0466 91.0505 31.4223 82.6779C32.9561 78.4311 35.9403 75.4566 39.3163 73.7963C37.7408 78.0932 40.0498 85.3895 51.2865 87.9843C64.1778 90.9629 72.3635 86.5367 71.1298 81.0467C74.1099 81.5515 77.39 81.856 79.9866 81.9269C83.8878 82.0396 88.9393 84.1004 90.0354 88.2179Z" fill="#D4D4D4"/>
<path d="M90.3939 93.8664C89.5145 99.3229 84.8798 103.582 77.3692 106.01C69.6544 108.505 57.1216 108.555 43.155 104.316C37.5783 101.838 34.0272 98.4552 32.1934 94.6214C36.3071 98.084 44.0636 100.837 53.5747 102.639C62.5524 104.342 71.7343 103.987 78.7613 101.467C83.0668 99.9237 85.6925 97.6835 88.1933 94.6798C88.9185 93.8038 89.8479 93.4659 90.3939 93.8664Z" fill="#EFEFEF"/>
<path d="M67.0167 80.1415C68.3338 80.5253 69.8967 80.8548 71.5347 81.1176C68.6838 82.7738 66.2039 86.2989 64.866 89.9199C63.8157 91.4802 62.3945 93.5326 61.5151 95.0928C61.5318 91.6971 62.011 88.2179 63.2031 85.5522C62.0902 85.9693 59.7395 88.1887 58.7642 89.3401C58.535 85.0474 60.2022 81.1302 62.4862 79.9913C61.6568 81.101 60.9941 83.5164 61.0441 84.3757C62.6029 82.4109 64.9577 80.7255 66.6874 79.9537C66.7958 80.0163 66.9083 80.0789 67.0167 80.1415Z" fill="#332525"/>
<path d="M61.5816 77.167C59.8519 78.0931 57.4762 80.7296 55.8591 83.8709C53.9418 86.3573 53.0583 87.3835 51.1911 90.7251C51.6495 86.8162 52.3831 82.5402 53.5876 80.5503C51.9413 81.6015 50.1365 82.9407 49.0737 84.747C49.8698 80.5169 53.1375 76.7498 58.3807 75.6151C59.4143 76.0824 60.4813 76.5997 61.5816 77.167Z" fill="#332525"/>
<path d="M55.3423 74.3386C52.283 74.7725 48.7778 77.5341 46.4771 80.9341C46.6188 78.6939 47.5358 76.3994 49.4363 74.7266C46.9064 74.9644 44.3682 76.558 42.9678 77.9638C41.4382 79.5032 40.342 81.2636 39.3042 83.3245C39.5459 80.7505 40.217 77.9096 41.8591 75.4066C43.3762 73.5794 45.9187 72.7784 48.2235 72.4238H48.2277C50.4742 72.7325 52.8165 73.3666 55.3423 74.3386Z" fill="#332525"/>
<path d="M65.6908 87.9967C65.3824 88.6267 65.1073 89.2733 64.8656 89.9157C63.8153 91.4759 62.3941 93.5284 61.5146 95.0886C61.5272 92.936 61.7189 90.7542 62.169 88.7643C63.4694 88.6058 64.6489 88.343 65.6908 87.9967Z" fill="#1A1313"/>
<path d="M59.1182 88.9437C58.9849 89.0814 58.8681 89.2191 58.7681 89.3359C58.7598 89.2024 58.7556 89.073 58.7515 88.9437C58.8723 88.9437 58.9932 88.9437 59.1182 88.9437Z" fill="#1A1313"/>
<path d="M51.5494 88.0426C51.9203 88.1261 52.2829 88.2012 52.6413 88.2721C52.2079 88.9479 51.7411 89.7363 51.1909 90.725C51.2951 89.8406 51.4118 88.9395 51.5494 88.0426Z" fill="#1A1313"/>
<path d="M40.3837 81.3512C40.0003 81.977 39.646 82.6361 39.2959 83.3286C39.3876 82.3441 39.5418 81.3262 39.796 80.2958C39.9669 80.6462 40.1628 81.0008 40.3837 81.3512Z" fill="#1A1313"/>
<path d="M50.9404 106.915C48.3021 106.39 45.6263 105.714 42.9796 104.913L42.9088 104.888C32.5099 100.27 28.1086 92.1143 30.8344 82.5068L30.8469 82.4651C33.6269 74.7767 40.4039 71.7981 45.3679 71.5853C46.8683 71.602 48.3354 71.7605 49.8901 72.0692C54.5831 73.0078 59.7763 75.2481 67.241 79.5616C67.9996 79.7785 68.8665 79.9829 69.8209 80.1748C72.8635 80.7839 76.7647 81.2136 79.9989 81.3054C80.7575 81.3262 81.541 81.418 82.3246 81.5724C85.6756 82.2398 89.6101 84.2965 90.6146 88.0552C92.8486 96.4361 88.0847 103.198 77.544 106.603C70.7254 108.814 61.0225 108.926 50.9404 106.915ZM43.3631 103.724C45.9555 104.508 48.5855 105.172 51.1737 105.689C61.0642 107.662 70.5462 107.562 77.1898 105.414C87.0219 102.239 91.4898 96.0315 89.4517 88.3889C88.5973 85.1809 85.0963 83.3996 82.1079 82.803C81.3868 82.6612 80.67 82.5777 79.9781 82.5569C76.6813 82.4651 72.7051 82.0229 69.6 81.4055C68.583 81.2011 67.6578 80.98 66.8492 80.7464L66.7159 80.688C59.4345 76.4787 54.1746 74.201 49.665 73.2999C48.1854 73.0037 46.785 72.8535 45.3929 72.8368C40.8374 73.0329 34.5772 75.782 32.0014 82.8781C29.484 91.793 33.6227 99.3855 43.3631 103.724Z" fill="black"/>
<path d="M68.5251 96.9076C66.0411 98.1966 65.8493 101.58 67.2164 107.299C69.3337 116.143 76.5233 126.885 81.4748 128.141C84.4048 128.525 92.6739 122.376 92.328 120.369C91.807 118.258 89.6939 117.416 87.685 117.62C83.6213 114.379 80.8746 111.88 79.12 108.784C76.6526 103.707 73.5891 94.2794 68.5251 96.9076Z" fill="#E6E6E6"/>
<path d="M92.3234 120.369C92.6694 122.38 84.4003 128.525 81.4703 128.141C76.5188 126.885 69.3292 116.143 67.2119 107.299C65.8406 101.576 66.0365 98.1966 68.5206 96.9075C69.3542 96.4737 70.1294 96.3694 70.8588 96.5154C69.3208 97.8754 68.7957 101.701 70.9296 107.241C73.8222 114.733 80.495 115.822 81.8371 112.439C83.3792 114.091 85.2964 115.73 87.6721 117.624C89.6894 117.416 91.8025 118.258 92.3234 120.369Z" fill="#D4D4D4"/>
<path d="M92.3231 120.369C92.669 122.38 84.4 128.525 81.4699 128.141C78.9942 127.515 75.9641 124.52 73.2842 120.574C77.4396 119.235 82.0451 115.776 83.2371 113.832C84.5 115.034 85.9712 116.26 87.6801 117.62C89.689 117.416 91.8021 118.258 92.3231 120.369Z" fill="white"/>
<path d="M80.3619 110.67C80.8745 111.358 81.4539 112.03 82.0916 112.702C79.1699 115.543 75.3354 116.026 72.4971 114.875C74.5643 114.462 78.7614 112.768 80.3619 110.67Z" fill="#332525"/>
<path d="M79.1152 108.784C79.4153 109.314 79.7445 109.823 80.103 110.324C77.9482 111.554 75.9101 111.817 74.3638 111.317C75.9434 110.887 77.8981 109.615 78.986 108.522C79.0318 108.613 79.0777 108.697 79.1152 108.784Z" fill="#332525"/>
<path d="M75.7646 101.622C76.7857 103.524 77.6819 105.651 78.5029 107.474C75.9355 109.202 71.1799 110.507 68.204 110.612C67.9248 109.831 67.6789 109.051 67.4663 108.284C70.5547 108.008 73.9849 106.694 75.1936 105.117C72.8304 105.514 71.0299 105.497 69.3002 104.625C70.4797 104.596 74.0308 103.019 75.7646 101.622Z" fill="#332525"/>
<path d="M71.0588 107.537C71.4255 108.442 71.8548 109.256 72.3217 109.969C70.8337 110.336 69.3833 110.57 68.2079 110.607C67.9287 109.827 67.6828 109.047 67.4702 108.28C68.6622 108.175 69.9084 107.913 71.0588 107.537Z" fill="#1A1313"/>
<path d="M81.8451 112.439C81.9285 112.526 82.0077 112.614 82.0911 112.702C79.1694 115.543 75.3349 116.026 72.4966 114.875C73.4385 114.692 74.8264 114.233 76.206 113.594C78.6943 114.817 81.0949 114.32 81.8451 112.439Z" fill="#1A1313"/>
<path d="M70.054 104.492C70.0956 104.654 70.1373 104.821 70.1831 104.992C69.8872 104.892 69.5913 104.771 69.3037 104.625C69.4954 104.621 69.7539 104.571 70.054 104.492Z" fill="#1A1313"/>
<path d="M93.0032 120.202C92.8615 119.639 92.5947 119.089 92.2196 118.625C91.8445 118.162 91.3735 117.791 90.8609 117.528C89.9148 117.049 88.8811 116.907 87.885 116.978C86.4304 115.714 84.9758 114.462 83.6171 113.14C82.2041 111.767 80.9038 110.307 79.9035 108.659L79.8118 108.505L79.7701 108.434L79.7493 108.392L79.5826 108.059L79.2533 107.391L78.6073 106.031C78.1863 105.117 77.7403 104.204 77.2694 103.303C76.7859 102.406 76.2691 101.521 75.6814 100.679C75.0854 99.8444 74.4269 99.0393 73.635 98.3885C74.6686 100.145 75.4105 101.972 76.1857 103.82L77.3486 106.594L77.9404 107.992L78.2488 108.693L78.4072 109.039L78.428 109.081L78.4739 109.168L78.5239 109.256L78.6239 109.427C79.6742 111.258 81.0663 112.848 82.5626 114.258C83.3128 114.963 84.0839 115.63 84.8799 116.264C85.6718 116.903 86.4721 117.528 87.2932 118.117L87.5182 118.279L87.7433 118.25C88.6144 118.179 89.5146 118.329 90.2315 118.726C90.9442 119.105 91.4402 119.739 91.6278 120.503C91.6278 120.524 91.5903 120.707 91.4902 120.882C91.2652 120.661 91.0151 120.482 90.7525 120.353C90.3607 120.156 89.9523 120.052 89.548 120.006C88.7436 119.923 87.9309 120.081 87.2932 120.486C88.0142 120.273 88.7686 120.357 89.4021 120.615C90.0356 120.866 90.5608 121.345 90.7067 121.846C90.7108 121.863 90.7234 121.879 90.7317 121.896C90.49 122.167 90.2316 122.43 89.9606 122.685C89.1437 123.44 88.2518 124.14 87.3307 124.795C86.4054 125.442 85.4426 126.039 84.4465 126.535C83.9505 126.781 83.442 127.002 82.9419 127.165C82.4667 127.323 81.9583 127.424 81.604 127.39C80.5287 127.094 79.4742 126.356 78.5281 125.542C77.5611 124.699 76.6609 123.752 75.8273 122.739C74.156 120.715 72.718 118.484 71.4385 116.172C70.1673 113.853 69.0961 111.421 68.2834 108.914C67.8708 107.666 67.5332 106.386 67.1872 105.101C66.8538 103.812 66.5537 102.527 66.3703 101.179C66.1161 102.523 66.1786 103.912 66.3245 105.259C66.3995 105.935 66.512 106.611 66.637 107.274C66.7537 107.942 66.933 108.613 67.1122 109.268C67.8749 111.896 68.9503 114.412 70.2048 116.827C71.4635 119.243 72.9347 121.554 74.6603 123.69C75.5272 124.754 76.4566 125.784 77.5194 126.702C78.0529 127.161 78.6156 127.59 79.2325 127.974C79.8493 128.354 80.5162 128.688 81.2789 128.884L81.3289 128.896L81.3664 128.9C82.1792 128.984 82.8043 128.796 83.4128 128.608C84.013 128.408 84.5757 128.162 85.1175 127.891C86.2012 127.348 87.2182 126.714 88.1935 126.03C89.1687 125.342 90.1023 124.595 90.9692 123.752C91.4027 123.327 91.8237 122.885 92.2113 122.376C92.403 122.121 92.5906 121.85 92.7489 121.529C92.8948 121.208 93.0824 120.845 93.0073 120.252L93.0032 120.236V120.202Z" fill="black"/>
<path d="M36.0113 93.3866C38.2911 91.6011 40.9377 90.8669 43.13 92.6774C45.0056 94.2252 44.9806 97.3164 43.4551 100.499C42.2839 102.944 37.1866 109.602 33.8273 112.18C29.2426 115.359 21.3569 116.757 19.7106 117.22C18.3352 119.602 14.5257 121.754 12.05 117.082C9.57428 112.41 10.0702 105.568 13.0795 103.161C13.7047 102.439 22.4198 103.29 27.8547 100.324C32.702 97.2872 33.8189 95.1054 36.0113 93.3866Z" fill="#E6E6E6"/>
<path d="M43.1302 92.6775C45.0058 94.221 44.9808 97.3164 43.4553 100.499C42.2842 102.944 37.1868 109.602 33.8275 112.176C29.247 115.359 21.3572 116.748 19.715 117.215C18.3396 119.597 14.526 121.754 12.0544 117.078C9.57867 112.405 10.0746 105.564 13.0839 103.157C13.6257 102.535 20.2068 103.086 25.4917 101.334C23.0201 108.321 34.3777 104.755 38.1705 100.095C41.0338 96.5738 40.7337 93.3491 39.5125 91.7013C40.7671 91.4885 42.0049 91.7513 43.1302 92.6775Z" fill="#D4D4D4"/>
<path d="M43.4386 100.537C43.1593 101.117 42.6592 101.926 42.0215 102.856C40.5169 101.976 38.6996 100.499 38.3662 98.1924C39.3207 99.3021 41.4755 100.12 43.4386 100.537Z" fill="#1A1313"/>
<path d="M41.1043 104.15C40.3083 105.238 39.383 106.415 38.4286 107.545C36.378 106.248 33.598 103.628 33.5771 99.5983C33.7397 100.725 37.7117 103.353 41.1043 104.15Z" fill="#1A1313"/>
<path d="M36.4405 109.765C35.5235 110.724 34.6233 111.567 33.8272 112.18C32.4601 113.127 30.8013 113.92 29.0966 114.575C24.8787 112.272 24.1243 108.492 24.9996 105.389C25.8998 108.334 28.0921 110.178 30.1719 110.328C27.1794 108.038 26.6959 103.319 27.1169 100.7C27.3711 100.583 27.617 100.458 27.8588 100.328C28.2714 100.07 28.659 99.8152 29.0216 99.5691C29.455 102.61 32.5476 108.021 36.4405 109.765Z" fill="#1A1313"/>
<path d="M39.0745 98.8182C38.9578 99.0101 38.8286 99.202 38.6911 99.3939C38.5411 99.0226 38.4243 98.6179 38.3618 98.1882C38.5577 98.4135 38.7953 98.6263 39.0745 98.8182Z" fill="#332525"/>
<path d="M33.5767 99.6025C33.66 100.161 34.6937 101.1 36.1316 102.001C35.5856 102.41 34.9979 102.798 34.381 103.148C33.8934 102.122 33.5808 100.942 33.5767 99.6025Z" fill="#332525"/>
<path d="M29.0217 99.5649C29.2218 100.954 29.972 102.836 31.1057 104.638C29.6886 105.117 28.3299 105.347 27.2712 105.226C26.9253 103.566 26.9253 101.905 27.117 100.695C27.3712 100.579 27.6172 100.453 27.8589 100.324C28.2715 100.061 28.6591 99.811 29.0217 99.5649Z" fill="#332525"/>
<path d="M27.3131 115.205C23.9079 116.331 20.6986 116.94 19.715 117.215C18.3396 119.597 14.526 121.754 12.0544 117.078C9.57867 112.405 10.0746 105.564 13.0839 103.157C13.5423 102.623 18.3938 102.948 23.0826 101.972C22.2449 104.75 22.6784 112.522 27.3131 115.205Z" fill="white"/>
<path d="M44.5679 96.3277C44.2678 97.7586 43.7218 99.056 43.0341 100.278C42.3422 101.455 41.4711 102.619 40.6292 103.757C39.7664 104.896 38.8662 106.006 37.9284 107.082C36.9906 108.154 36.0278 109.21 35.0109 110.182C34.5024 110.666 33.9772 111.133 33.4396 111.546L33.3979 111.579L33.3937 111.584L33.3646 111.6L33.252 111.675L33.0395 111.817L32.6019 112.088C32.3059 112.264 32.0017 112.435 31.6932 112.597C30.4595 113.24 29.1508 113.778 27.8171 114.253C26.4792 114.725 25.1205 115.146 23.7409 115.522C22.353 115.91 20.9901 116.206 19.5396 116.61L19.2896 116.681L19.1645 116.903C18.6977 117.678 17.9975 118.354 17.214 118.763C16.4304 119.184 15.5551 119.297 14.8049 118.988C14.7924 118.984 14.7799 118.976 14.7674 118.972C14.8133 118.93 14.8633 118.888 14.9049 118.847C15.2134 118.534 15.4426 118.179 15.6093 117.808C15.9428 117.065 16.0428 116.248 15.8552 115.513C15.8302 116.264 15.5176 116.957 15.0758 117.478C14.7174 117.908 14.2381 118.221 13.788 118.308C13.4629 117.996 13.1711 117.612 12.9252 117.199C12.4375 116.381 12.0666 115.476 11.7874 114.537C11.2289 112.664 11.0496 110.657 11.2747 108.718C11.3914 107.75 11.6123 106.799 11.9708 105.923C12.3292 105.051 12.8419 104.254 13.5212 103.712L13.5254 103.707C13.5504 103.699 13.592 103.687 13.6421 103.674C13.7504 103.649 13.888 103.628 14.0213 103.611C14.2964 103.578 14.5924 103.553 14.8841 103.532L16.6846 103.411C17.8975 103.332 19.1145 103.232 20.3316 103.077C22.7573 102.76 25.2163 102.268 27.5045 101.175C27.6462 101.108 27.7879 101.033 27.9254 100.962L28.1338 100.85L28.3589 100.708L29.13 100.199C29.6385 99.8528 30.1386 99.494 30.6262 99.1185C31.6015 98.3676 32.531 97.5416 33.3937 96.6698C34.2648 95.802 35.0317 94.8759 35.8653 94.0583C36.6989 93.2364 37.6075 92.4939 38.6828 91.9015C37.4533 92.06 36.303 92.6691 35.3068 93.4116C34.3065 94.1751 33.4729 95.0678 32.6227 95.8938C31.7724 96.724 30.8805 97.4957 29.9302 98.2008C29.4551 98.5554 28.9716 98.8933 28.4756 99.2187L27.7254 99.6984L27.567 99.7985L27.3753 99.8986C27.2461 99.9612 27.1169 100.028 26.9877 100.086C24.8871 101.054 22.5364 101.496 20.1815 101.763C18.9978 101.893 17.81 101.972 16.6096 102.03C16.0095 102.064 15.4051 102.085 14.7924 102.126C14.484 102.147 14.1755 102.172 13.8546 102.21C13.6921 102.231 13.5254 102.251 13.342 102.293C13.2503 102.314 13.1503 102.339 13.0336 102.381C12.921 102.431 12.7752 102.456 12.5459 102.698L12.6376 102.606C11.704 103.361 11.0872 104.362 10.6579 105.38C10.2327 106.407 9.98683 107.479 9.85762 108.555C9.60755 110.703 9.79925 112.881 10.4119 114.954C10.7245 115.985 11.1538 116.998 11.7332 117.937C12.3167 118.872 13.1336 119.802 14.309 120.261C14.8883 120.49 15.5343 120.561 16.1428 120.49C16.7555 120.419 17.3307 120.215 17.8433 119.931C18.7811 119.401 19.5396 118.655 20.1023 117.762C20.6983 117.624 21.3444 117.503 21.9654 117.366C22.6739 117.207 23.3825 117.044 24.091 116.869C25.5039 116.519 26.9168 116.127 28.3006 115.643C29.6885 115.163 31.0597 114.608 32.381 113.907C32.7102 113.732 33.0395 113.548 33.3604 113.352L33.8397 113.052L34.0773 112.894L34.1898 112.818L34.2815 112.756L34.3398 112.714C34.94 112.243 35.486 111.734 36.0112 111.216C38.1076 109.135 39.9248 106.857 41.6212 104.483C42.0421 103.887 42.4589 103.286 42.8382 102.656C43.23 102.035 43.5843 101.392 43.8885 100.683C44.4387 99.3063 44.7804 97.7919 44.5679 96.3277ZM13.5129 103.712C13.5045 103.716 13.5004 103.716 13.5129 103.712Z" fill="black"/>
<path d="M96.3875 67.9142C98.3339 65.966 100.818 62.0905 100.38 60.038C100.047 58.5154 98.9674 58.3235 96.5375 57.122C93.5991 55.6703 91.0151 53.3675 89.2104 51.9032C87.1473 50.8478 85.3467 52.6583 84.2297 56.0791C82.8543 60.2842 83.3795 67.8975 89.0103 71.0054C91.1026 71.5978 93.7325 70.5757 96.3875 67.9142Z" fill="#E6E6E6"/>
<path d="M100.381 60.0422C100.235 59.7752 100.08 59.5291 99.8845 59.3413C99.6928 59.1494 99.4761 59.016 99.2386 58.895C98.7592 58.6655 98.2132 58.4903 97.6672 58.2859C97.1213 58.0815 96.5711 57.8562 96.0292 57.5976C95.4791 57.3264 94.9539 57.0386 94.4371 56.7299C93.4035 56.1124 92.424 55.4241 91.4779 54.7066C90.5276 53.9932 89.6148 53.2423 88.7187 52.5123L88.8563 52.5999C88.1519 52.2453 87.5309 52.3537 86.914 52.8961C86.3097 53.4384 85.8262 54.2602 85.4386 55.1196C85.2469 55.5534 85.076 56.004 84.9301 56.467C84.7926 56.9092 84.6759 57.3765 84.5884 57.8479C84.4175 58.7907 84.33 59.7585 84.33 60.7264C84.3341 62.662 84.7009 64.6102 85.497 66.3582C86.2638 68.127 87.435 69.6788 89.0105 71.0179C87.0141 70.4089 85.3469 68.8028 84.3633 66.913C83.388 65.0024 82.9379 62.8748 82.8545 60.7597C82.817 59.7001 82.8754 58.6322 83.0629 57.5767C83.1546 57.0469 83.2755 56.5254 83.4339 55.9998C83.5922 55.4909 83.7714 54.9903 83.984 54.4938C84.4133 53.5093 84.9426 52.5123 85.8721 51.6988C86.3305 51.3025 86.9307 50.9562 87.6267 50.8603C88.3186 50.756 89.0147 50.9354 89.5648 51.2232L89.644 51.2649L89.7024 51.3108C90.6193 52.0617 91.4904 52.8251 92.3865 53.551C93.2826 54.2769 94.1995 54.9652 95.154 55.5826C95.6291 55.8913 96.1209 56.1834 96.6128 56.4462C97.1171 56.7173 97.6297 56.9843 98.1424 57.2722C98.3966 57.4182 98.655 57.5684 98.9134 57.7394C99.1677 57.9063 99.4302 58.0857 99.6636 58.3151C99.9012 58.5362 100.114 58.8157 100.239 59.1202C100.36 59.4206 100.397 59.7418 100.381 60.0422Z" fill="black"/>
<path d="M103.669 58.1232C103.735 57.1262 103.043 55.5951 101.797 54.6273C106.169 55.5284 107.349 57.9605 108.407 60.4927C108.945 58.4444 108.599 55.8747 107.036 54.377C109.529 54.6273 113.392 57.2638 113.117 62.4785C114.647 60.6721 114.922 57.8896 114.768 56.125C118.465 59.212 118.811 63.6591 116.764 66.7336C118.761 69.6037 119.256 74.9727 118.635 77.4674C117.389 78.8399 115.143 82.4609 116.268 83.9586C117.139 85.0808 118.39 84.9556 119.136 84.8305C119.761 84.2047 124.25 84.2047 124.375 86.3281C124.5 88.4515 123.379 90.5707 122.253 91.0713C121.753 93.4409 118.119 95.5768 116.764 95.4391C114.893 95.0636 111.9 93.4409 111.029 89.945C107.661 91.6929 107.911 97.4332 110.529 99.6817C111.129 100.746 108.282 103.178 105.54 103.803C102.314 103.282 99.0547 100.933 97.3084 97.6876C92.9904 96.9951 88.214 97.4415 84.5879 97.8128C84.3795 96.9951 84.5879 94.5672 85.334 93.445C82.3414 93.5702 78.0943 92.0308 76.373 89.8991C78.3694 89.2733 80.5951 88.2012 81.4662 87.4545C78.7237 85.4562 72.2176 80.5711 71.7383 71.9774C73.0262 73.375 74.5475 74.1843 76.2271 75.223C73.8556 71.602 73.2346 68.857 73.3596 65.1108C76.6731 65.261 81.9872 63.4838 88.3265 59.7418C92.4111 57.3348 98.8004 55.7495 103.669 58.1232Z" fill="#E6E6E6"/>
<path d="M120.257 87.1959C119.265 86.2239 119.106 85.886 119.127 84.8389C119.752 84.2131 124.241 84.2131 124.366 86.3365C124.491 88.4557 123.37 90.5791 122.245 91.0797C121.074 90.6125 121.74 88.8145 120.694 87.6172C120.532 87.4629 120.386 87.3252 120.257 87.1959Z" fill="black"/>
<path d="M120.695 87.6172C121.716 88.7394 121.024 90.4331 122.245 91.0797C121.749 93.4492 118.115 95.5851 116.76 95.4475C114.889 95.072 111.896 93.4492 111.021 89.9533C107.657 91.7013 107.903 97.4457 110.525 99.6901C111.125 100.754 108.278 103.186 105.536 103.812C102.31 103.29 99.0508 100.937 97.3044 97.6919C96.8668 97.6209 96.4208 97.5625 95.9748 97.5166C95.3121 92.5273 99.5551 89.8908 101.51 89.4861C99.9885 89.1399 98.188 88.7269 96.3874 89.2817C100.264 84.4968 106.22 85.4688 107.607 85.6064C110.308 84.9807 114.739 86.1613 116.264 86.9914C117.294 86.9372 119.098 86.883 120.257 87.1958C120.386 87.3252 120.532 87.4628 120.695 87.6172Z" fill="#F5F5F5"/>
<path d="M88.3268 59.7461C91.4193 57.9188 95.8332 56.5714 99.9052 57.0511C95.6706 57.3974 89.4855 60.3009 87.6182 67.1383C85.776 73.884 87.5474 77.117 89.7022 79.5158C87.7558 80.0706 86.0886 80.3501 82.5459 79.8286C85.776 84.2089 90.0481 84.8347 92.8989 85.4938C90.8817 87.2334 87.514 88.5892 85.9844 89.0064C88.0684 90.6751 90.0481 91.4051 92.3404 91.7514C91.5069 93.0029 90.4649 93.5953 89.5271 94.3253C90.8608 95.4558 92.4947 96.4821 94.7328 97.4082C91.1651 97.1746 87.5015 97.5208 84.584 97.817C84.3756 97.0035 84.584 94.5714 85.3342 93.4493C82.3416 93.5744 78.0945 92.035 76.3732 89.9033C78.3696 89.2817 80.5953 88.2054 81.4664 87.4587C78.7239 85.4604 72.2178 80.5754 71.7427 71.9817C73.0306 73.375 74.5477 74.1885 76.2315 75.2272C73.86 71.6062 73.239 68.8612 73.364 65.115C76.6775 65.2652 81.9916 63.4881 88.3268 59.7461Z" fill="#D4D4D4"/>
<path d="M125 86.4992L124.992 86.3198C124.983 86.1362 124.954 85.9735 124.9 85.8025C124.796 85.4646 124.592 85.1642 124.362 84.9389C124.129 84.7137 123.875 84.5468 123.616 84.4133C123.099 84.1547 122.574 84.0212 122.053 83.9377C121.532 83.8543 121.011 83.8293 120.482 83.8543C120.219 83.871 119.953 83.896 119.673 83.9502C119.536 83.9794 119.394 84.0128 119.24 84.0671C119.132 84.1129 119.023 84.1505 118.89 84.2339C118.156 84.3466 117.51 84.2673 117.056 83.8752C116.993 83.8251 116.935 83.7667 116.881 83.7083C116.856 83.6833 116.835 83.6624 116.798 83.6123L116.773 83.579L116.768 83.5706L116.743 83.5331C116.681 83.4371 116.635 83.312 116.61 83.166C116.56 82.8698 116.606 82.4943 116.698 82.123C116.889 81.3721 117.252 80.6129 117.664 79.8953C118.081 79.182 118.569 78.477 119.098 77.8804L119.207 77.7594L119.24 77.6134C119.478 76.6164 119.519 75.6485 119.507 74.6849C119.49 73.7212 119.402 72.7701 119.248 71.8231C119.094 70.8761 118.873 69.9417 118.561 69.0239C118.29 68.2313 117.948 67.4553 117.494 66.7211C118.523 64.9982 118.877 62.8873 118.461 60.9266C118.244 59.8795 117.827 58.8783 117.256 57.9897C116.685 57.097 115.968 56.3085 115.168 55.6411L114.03 54.6899C114.03 54.6899 114.468 57.097 114.08 59.358C113.959 60.0506 113.751 60.7305 113.442 61.3605C113.422 60.7764 113.355 60.1924 113.217 59.6167C112.992 58.6697 112.588 57.7519 112.025 56.9426C111.463 56.1291 110.762 55.3949 109.916 54.8693C108.216 53.818 105.394 53.526 105.394 53.526C105.394 53.526 107.486 55.0695 108.024 57.3431C108.153 57.8896 108.208 58.4611 108.199 59.0327C108.07 58.7448 107.932 58.457 107.778 58.1775C107.391 57.4683 106.899 56.7883 106.299 56.2084C104.311 54.2894 100.818 54.1851 100.818 54.1851C100.818 54.1851 102.743 55.3866 103.223 57.5267C102.168 57.0386 101.035 56.7132 99.8801 56.5588C98.5088 56.3628 97.1126 56.3878 95.7455 56.563C94.3785 56.734 93.0322 57.0553 91.7319 57.5058C90.4315 57.9564 89.1686 58.5195 87.9766 59.2162C85.6842 60.5428 83.3252 61.7568 80.887 62.7413C79.6658 63.2294 78.4237 63.6549 77.1692 63.9845C75.9147 64.3057 74.631 64.531 73.3889 64.4892L72.7471 64.4684L72.7345 65.0941V65.0983C72.7095 66.9172 72.8679 68.7903 73.4306 70.5591C73.7932 71.7271 74.31 72.8243 74.9102 73.8672C74.6518 73.692 74.3934 73.5168 74.1475 73.3333C73.4181 72.7993 72.7554 72.2194 72.1969 71.5519L71.0674 70.2086L71.1132 72.0108V72.0192C71.2299 73.6503 71.5717 75.2648 72.1302 76.7958C72.6845 78.3268 73.4514 79.7744 74.3767 81.0968C75.302 82.4234 76.3773 83.629 77.5485 84.722C78.6113 85.7149 79.7575 86.6076 80.9328 87.442C80.6619 87.6088 80.3785 87.7674 80.0867 87.9092C79.6699 88.1094 79.2448 88.293 78.8155 88.4599C77.9528 88.7936 77.0692 89.0814 76.1814 89.3067L75.2978 89.5278L75.8855 90.2954L75.8938 90.3079C76.5107 91.0088 77.2359 91.5261 77.9861 91.9557C78.7405 92.3854 79.5282 92.7233 80.3326 92.9945C81.137 93.2657 81.9623 93.4742 82.8 93.6077C83.4586 93.712 84.1213 93.7663 84.7923 93.7621C84.6839 93.9623 84.5922 94.1668 84.513 94.3753C84.3713 94.7466 84.2588 95.1262 84.1713 95.51C84.0838 95.8938 84.0129 96.2818 83.9712 96.6781C83.9379 97.0869 83.892 97.4624 83.9795 97.9713L84.0587 98.4553L84.6464 98.4386H84.6589C86.7678 98.2216 88.8685 98.0339 90.9649 97.9755C92.9613 97.9213 94.9578 97.9839 96.9125 98.2675C97.7836 99.7902 98.9673 101.121 100.359 102.176C101.839 103.29 103.565 104.12 105.432 104.425L105.553 104.446L105.669 104.417C106.899 104.129 108.016 103.586 109.029 102.886C109.533 102.531 110.016 102.135 110.45 101.647C110.667 101.4 110.871 101.129 111.033 100.787C111.113 100.612 111.188 100.42 111.217 100.178C111.246 99.9446 111.213 99.64 111.067 99.3814L111.013 99.2896L110.929 99.2145L110.921 99.2062C110.308 98.6972 109.837 97.9713 109.525 97.1787C109.212 96.3819 109.049 95.5142 109.045 94.6507C109.041 93.7871 109.195 92.9152 109.55 92.1476C109.829 91.5386 110.246 91.0046 110.771 90.6083C110.933 91.1297 111.15 91.6387 111.425 92.1184C111.792 92.7609 112.255 93.3491 112.784 93.8622C113.317 94.3753 113.918 94.8134 114.568 95.168C115.218 95.5226 115.906 95.8021 116.652 95.9648L116.677 95.9689H116.702C117.143 96.0065 117.485 95.9189 117.819 95.8271C118.148 95.7311 118.461 95.606 118.761 95.4683C119.357 95.1888 119.915 94.8467 120.44 94.4546C120.965 94.0583 121.457 93.6119 121.882 93.0863C122.249 92.6316 122.57 92.1018 122.762 91.4927C123.22 91.2132 123.541 90.8461 123.812 90.4748C124.129 90.0284 124.366 89.5487 124.554 89.0522C124.737 88.5558 124.867 88.0385 124.937 87.5129C124.971 87.2501 124.992 86.9831 124.992 86.7161L125 86.4992ZM123.708 87.3502C123.654 87.7799 123.545 88.2054 123.395 88.6142C123.245 89.023 123.045 89.411 122.808 89.7531C122.57 90.0868 122.27 90.3872 122.003 90.5082H121.999L121.695 90.675L121.641 90.9504C121.549 91.4218 121.291 91.9057 120.957 92.3437C120.62 92.7859 120.203 93.1864 119.753 93.5452C119.302 93.9039 118.807 94.221 118.298 94.4796C118.044 94.609 117.781 94.7174 117.523 94.8008C117.277 94.8843 117.014 94.9343 116.839 94.926C116.231 94.805 115.622 94.5839 115.051 94.2919C114.472 93.9915 113.926 93.6161 113.442 93.1781C112.475 92.2978 111.771 91.1423 111.433 89.8657V89.8574L111.308 89.3609L110.842 89.5904C109.916 90.0409 109.179 90.8377 108.724 91.743C108.266 92.6482 108.053 93.6495 108.02 94.6423C107.991 95.6352 108.137 96.6364 108.466 97.5834C108.779 98.4761 109.266 99.3397 109.987 100.036C109.987 100.041 109.987 100.041 109.987 100.045C109.983 100.091 109.958 100.174 109.916 100.262C109.833 100.441 109.687 100.641 109.525 100.829C109.191 101.209 108.774 101.559 108.333 101.868C107.478 102.46 106.511 102.923 105.523 103.169C103.944 102.886 102.431 102.164 101.13 101.179C99.7925 100.166 98.6631 98.8683 97.867 97.3956L97.7211 97.1203L97.4168 97.0703C95.262 96.7282 93.0948 96.6614 90.9483 96.7198C88.9852 96.7741 87.0388 96.9409 85.1007 97.1328C85.084 96.9952 85.0757 96.8492 85.0674 96.7115C85.0549 96.3611 85.0632 96.0023 85.0882 95.6435C85.1507 94.9343 85.2716 94.2043 85.58 93.6119L85.5842 93.6036L85.8926 93.1489H85.3299C84.5338 93.153 83.7336 93.0404 82.9542 92.861C82.1707 92.6816 81.4038 92.4313 80.6661 92.1268C79.9283 91.8181 79.2156 91.4551 78.5613 91.0213C78.157 90.7543 77.7777 90.4539 77.4401 90.1285C78.0445 89.8699 78.6363 89.5987 79.2156 89.2942C79.6408 89.0689 80.0617 88.827 80.4744 88.5683C80.8828 88.3055 81.2871 88.0343 81.6622 87.6839L81.6705 87.6756L81.9623 87.4378L81.6497 87.2042C80.391 86.2614 79.1865 85.2685 78.0862 84.1672C76.9858 83.07 75.9897 81.8686 75.1519 80.5753C74.3142 79.2821 73.6348 77.8888 73.1638 76.437C72.8471 75.4567 72.6304 74.4513 72.5012 73.4334C72.8554 73.6962 73.2222 73.9423 73.589 74.1676C74.4017 74.664 75.2228 75.0937 76.023 75.5443L76.0272 75.5484L77.4734 76.4829L76.5565 75.0061C75.6271 73.5126 74.8393 71.9399 74.4059 70.2754C74.0141 68.807 73.9099 67.2801 73.9599 65.7408C75.1728 65.7241 76.344 65.5155 77.486 65.2401C78.8239 64.9148 80.1159 64.4684 81.3788 63.9594C83.9003 62.9457 86.3094 61.6942 88.6226 60.305C90.8441 58.9784 93.349 58.1024 95.9039 57.681C97.1835 57.485 98.4838 57.4182 99.7717 57.5183C101.055 57.631 102.327 57.9146 103.519 58.4236L103.956 58.6113L104.015 58.1274C104.06 57.7436 104.015 57.3431 103.927 56.9802C103.84 56.6131 103.71 56.2585 103.544 55.9247C103.502 55.8413 103.456 55.762 103.41 55.6828C104.223 55.9706 104.982 56.3753 105.628 56.9301C106.174 57.3973 106.636 57.9689 107.028 58.5988C107.42 59.2287 107.745 59.9212 108.062 60.6262L108.52 61.6483L108.758 60.5804C109.087 59.479 109.174 58.3026 108.995 57.1429C108.899 56.5421 108.724 55.9331 108.453 55.3616C108.754 55.4825 109.049 55.6202 109.333 55.7829C110.075 56.2209 110.737 56.8008 111.275 57.485C111.813 58.1691 112.217 58.9617 112.471 59.8086C112.726 60.6554 112.83 61.5524 112.809 62.4535L112.73 63.3379L113.347 62.6662C114.155 61.7901 114.668 60.6888 114.985 59.5583C115.168 58.895 115.28 58.2192 115.343 57.5308C116.281 58.5738 116.964 59.8211 117.239 61.1727C117.619 62.9541 117.256 64.8689 116.243 66.3749L116.006 66.7253L116.247 67.0799C116.727 67.7765 117.093 68.5817 117.377 69.4202C117.66 70.2587 117.869 71.1348 118.015 72.0192C118.16 72.9036 118.244 73.8047 118.256 74.6974C118.269 75.5401 118.223 76.3995 118.048 77.1754C117.477 77.8345 117.006 78.527 116.577 79.2612C116.127 80.0497 115.718 80.8757 115.476 81.8143C115.364 82.2857 115.28 82.7947 115.368 83.3579C115.414 83.6374 115.51 83.9377 115.685 84.2047L115.751 84.3048L115.822 84.3924C115.851 84.43 115.906 84.4884 115.951 84.5426C116.047 84.6469 116.143 84.7387 116.252 84.8263C116.673 85.1809 117.214 85.4062 117.739 85.4813C118.265 85.5605 118.777 85.5105 119.232 85.4354L119.39 85.4103L119.573 85.2602C119.519 85.306 119.586 85.2518 119.657 85.2351C119.728 85.2101 119.823 85.1851 119.919 85.1642C120.115 85.1267 120.328 85.1016 120.545 85.0891C120.978 85.0683 121.428 85.0891 121.857 85.1559C122.287 85.2226 122.708 85.3394 123.049 85.5105C123.399 85.6857 123.637 85.9193 123.708 86.1571C123.729 86.2155 123.741 86.2906 123.741 86.349L123.75 86.5284V86.6785C123.75 86.9163 123.733 87.1333 123.708 87.3502Z" fill="black"/>
<path d="M105.019 74.4721C107.207 73.5335 110.387 72.1276 113.838 76.5204C114.397 76.3494 115.23 75.3565 115.293 73.6086C115.022 74.3136 114.814 74.6807 114.53 74.9268C113.559 72.7784 110.858 71.3225 109.404 71.3934C108.024 71.6729 106.324 72.7534 105.019 74.4721Z" fill="black"/>
<path d="M113.843 69.1741C111.45 68.2146 106.845 67.7974 105.115 68.2021C103.523 69.3117 101.931 72.3613 101.585 73.5377C99.1593 73.4 94.3121 74.3679 92.3032 75.1313C95.4874 75.5109 99.2302 76.7249 100.268 77.4883C96.8045 77.2797 87.31 78.1182 84.9635 88.3723C84.2883 85.6273 84.0799 81.927 84.48 79.3614C86.3514 78.2517 92.374 76.8667 94.2454 76.7958C92.3073 75.9656 88.2186 75.9656 86.4889 76.17C89.2606 73.3291 95.2165 71.8023 99.647 72.0108C100.439 68.8362 103.04 66.3248 104.011 66.0495C107.624 65.9577 111.029 66.9297 113.843 69.1741Z" fill="#332525"/>
<path d="M108.716 63.9052C105.594 63.5214 102.168 64.0763 101.064 64.3558C99.6381 65.1901 98.0543 67.9935 97.5 68.8946C96.3205 68.9655 93.207 69.3785 91.7524 70.1419C92.7236 68.6151 94.5241 68.2021 95.0784 68.0644C95.7536 65.8159 97.4333 63.3504 98.3336 62.7246C101.926 62.174 105.461 62.5911 108.716 63.9052Z" fill="#332525"/>
<path d="M97.4127 59.212C96.5875 59.8795 95.8414 61.0726 95.3496 62.7288C96.5333 61.6441 99.7593 59.9171 104.698 60.6179C102.623 59.6292 100.968 59.0827 97.4127 59.212Z" fill="#332525"/>
<path d="M111.971 85.7441C112.834 83.6541 113.251 79.9204 112.68 78.0723C111.663 76.0657 108.758 75.6444 106.845 78.744C105.478 80.955 106.011 84.601 106.774 85.5397C108.024 85.256 109.866 85.0599 111.971 85.7441Z" fill="white"/>
<path d="M112.676 78.0723C113.226 79.8328 112.871 83.312 112.088 85.4437C111.888 85.5272 111.684 85.5772 111.471 85.5939C111.1 85.4938 110.742 85.4229 110.391 85.3728C109.279 84.7929 108.583 83.1702 108.77 81.3513C108.991 79.1611 110.404 77.5091 111.921 77.6635C112.138 77.6844 112.342 77.7428 112.538 77.8304C112.588 77.9096 112.634 77.9889 112.676 78.0723Z" fill="black"/>
<path d="M112.88 78.0097L112.867 77.9764C112.625 77.384 112.196 76.8416 111.617 76.4829C111.042 76.1158 110.325 75.9447 109.616 76.0115C108.908 76.0741 108.237 76.3661 107.678 76.7707C107.12 77.1796 106.67 77.6927 106.303 78.2433C105.532 79.4156 105.29 80.7839 105.311 82.0646C105.319 82.7112 105.402 83.3495 105.561 83.9794C105.644 84.2923 105.74 84.6052 105.873 84.9097C105.982 85.1517 106.103 85.3936 106.286 85.6314C106.561 85.4896 106.845 85.3686 107.141 85.2852L107.128 85.2602C106.945 84.8805 106.824 84.2923 106.765 83.7542C106.699 83.2035 106.69 82.6403 106.715 82.0855C106.749 81.5306 106.811 80.9842 106.949 80.4669C107.015 80.2082 107.086 79.9537 107.186 79.716C107.236 79.595 107.291 79.474 107.341 79.378C107.361 79.3322 107.403 79.2612 107.441 79.1987L107.536 79.0318C108.099 78.1224 108.837 77.3339 109.8 77.0544C110.275 76.9167 110.804 76.9251 111.292 77.1212C111.775 77.3172 112.204 77.6843 112.5 78.1599C112.805 78.9609 112.901 79.8703 112.946 80.7589C113.026 79.8578 113.076 78.9442 112.88 78.0097Z" fill="black"/>
<path d="M117.272 89.9325C117.272 90.1703 117.035 90.3622 116.743 90.3622C116.451 90.3622 116.214 90.1703 116.214 89.9325C116.214 89.6947 116.451 89.5028 116.743 89.5028C117.035 89.5028 117.272 89.6947 117.272 89.9325Z" fill="#B7B7B7"/>
<path d="M117.86 91.1297C117.86 91.2924 117.71 91.4218 117.527 91.4218C117.343 91.4218 117.193 91.2883 117.193 91.1297C117.193 90.967 117.343 90.8336 117.527 90.8336C117.71 90.8336 117.86 90.967 117.86 91.1297Z" fill="#B7B7B7"/>
<path d="M118.603 90.1494C118.603 90.3329 118.419 90.4831 118.19 90.4831C117.961 90.4831 117.777 90.3329 117.777 90.1494C117.777 89.9658 117.961 89.8156 118.19 89.8156C118.419 89.8156 118.603 89.9658 118.603 90.1494Z" fill="#B7B7B7"/>
<path d="M122.695 86.3907C122.637 86.6994 122.116 86.8579 121.532 86.7453C120.949 86.6326 120.524 86.2947 120.582 85.986C120.64 85.6773 121.161 85.5188 121.745 85.6314C122.328 85.7441 122.753 86.082 122.695 86.3907Z" fill="#F5F5F5"/>
<path d="M111.946 80.6463C111.475 81.4597 110.646 81.8644 110.095 81.5432C109.549 81.2261 109.487 80.3042 109.958 79.4907C110.433 78.6772 111.258 78.2726 111.808 78.5938C112.359 78.9108 112.421 79.8286 111.946 80.6463Z" fill="white"/>
<path d="M105.019 86.3615C106.845 85.84 110.229 85.4771 113.63 86.7119C111.529 85.0057 109.425 84.6678 107.728 84.9014C106.64 85.0557 105.54 85.6314 105.019 86.3615Z" fill="#E6E6E6"/>
<path d="M89.702 79.5157C88.1266 79.9663 86.7345 80.2333 84.3838 80.0414C84.4088 79.8078 84.438 79.5825 84.4713 79.3655C85.2674 78.8983 86.8095 78.3769 88.4641 77.9305C88.8434 78.5103 89.2644 79.0276 89.702 79.5157Z" fill="#1A1313"/>
<path d="M87.2969 75.4483C87.3636 75.6694 87.4386 75.8864 87.5178 76.0949C87.1218 76.1158 86.7676 76.145 86.48 76.1784C86.7259 75.9239 87.001 75.6819 87.2969 75.4483Z" fill="#1A1313"/>
<path d="M86.9139 83.604C86.072 84.9098 85.3926 86.4825 84.9592 88.3806C84.4757 86.4116 84.2298 83.9461 84.2798 81.7643C85.1342 82.5444 86.022 83.1368 86.9139 83.604Z" fill="#1A1313"/>
<path d="M89.3645 69.1991C91.1401 66.9589 93.2948 62.6287 92.6822 60.4886C92.2237 58.8992 91.1318 58.7907 88.6102 57.7228C85.5593 56.4337 82.7918 54.2102 80.8745 52.8043C78.7281 51.8615 77.0901 53.939 76.2607 57.6685C75.2396 62.2574 76.4024 70.3004 82.2749 73.1205C84.4006 73.5627 86.9388 72.2528 89.3645 69.1991Z" fill="#E6E6E6"/>
<path d="M80.6914 56.6798C83.2254 60.3843 86.2555 62.0446 88.5562 63.4797C88.9896 64.1639 87.0015 69.3993 83.8214 70.0376C81.4207 68.4983 80.2537 66.5125 79.5535 63.5423C78.8574 60.5762 79.5077 56.4337 80.6914 56.6798Z" fill="#DAB5B5"/>
<path d="M92.6823 60.4886C92.3947 59.9379 92.003 59.5249 91.5028 59.3163C91.011 59.0827 90.4358 58.945 89.869 58.7657C89.2938 58.6071 88.7228 58.4027 88.1477 58.1983C87.5641 57.973 87.0099 57.7186 86.4639 57.4307C84.2924 56.2835 82.3251 54.8276 80.4121 53.4384L80.5621 53.5218C80.1912 53.3633 79.8494 53.3258 79.541 53.4134C79.2284 53.501 78.9158 53.7304 78.6365 54.06C78.0739 54.7191 77.6862 55.6536 77.3736 56.5964C77.2194 57.0719 77.0903 57.5642 76.9819 58.0648C76.8819 58.5362 76.8068 59.0452 76.761 59.5458C76.6693 60.5511 76.6651 61.5732 76.7443 62.5911C76.8985 64.6269 77.4195 66.6377 78.3239 68.4482C79.22 70.267 80.5204 71.8731 82.2793 73.1163C81.2415 72.8243 80.262 72.2778 79.4118 71.5686C78.5657 70.8511 77.8488 69.9792 77.282 69.0197C76.1525 67.0965 75.5564 64.9189 75.2939 62.7329C75.1647 61.6358 75.1355 60.5261 75.223 59.4164C75.2647 58.8574 75.3355 58.3109 75.4439 57.7436C75.5481 57.2013 75.6815 56.6631 75.8441 56.125C76.1733 55.0528 76.6067 53.9765 77.4237 53.0087C77.8363 52.5373 78.3906 52.0826 79.1075 51.8865C79.8244 51.6779 80.5996 51.8073 81.1915 52.0784L81.279 52.1201L81.3415 52.166C82.3126 52.8877 83.2337 53.6261 84.1881 54.3144C85.1384 55.0069 86.1096 55.6577 87.1182 56.2334C87.6183 56.5213 88.131 56.8008 88.6395 57.0553C89.1563 57.3306 89.6981 57.56 90.2316 57.8395C90.7693 58.1107 91.3236 58.386 91.8363 58.8074C92.0822 59.0243 92.3114 59.2829 92.4531 59.5791C92.5948 59.8712 92.6615 60.184 92.6823 60.4886Z" fill="black"/>
<path d="M79.5573 63.5422C79.178 62.3533 79.0071 61.0935 78.9946 59.8211C78.9946 59.1828 79.0322 58.5404 79.1614 57.8854C79.2322 57.5559 79.3156 57.2263 79.4906 56.8759C79.5823 56.7006 79.6907 56.5171 79.8949 56.3377C79.9991 56.2501 80.1283 56.1625 80.295 56.1083C80.4576 56.054 80.6493 56.0415 80.816 56.0707H80.8202L81.0661 56.1166L81.2078 56.3294C82.1456 57.7394 83.2792 59.0118 84.5754 60.1089C85.8717 61.2186 87.3305 62.1239 88.8184 63.0667L88.9184 63.1334L88.9684 63.221L88.9726 63.2252C89.1018 63.4672 89.0809 63.6048 89.0893 63.73C89.0893 63.8551 89.0726 63.9636 89.0559 64.0679C89.0184 64.2723 88.9684 64.4642 88.9101 64.6477C88.7934 65.0149 88.6475 65.3611 88.4849 65.6948C88.164 66.3665 87.7764 66.9964 87.3346 67.5846C86.8886 68.1687 86.3843 68.711 85.8008 69.1574C85.2173 69.5996 84.5463 69.9375 83.8294 70.0418C84.5296 69.8582 85.1339 69.4577 85.6424 68.9738C86.1509 68.4857 86.5719 67.9184 86.9303 67.3135C87.2888 66.7086 87.5805 66.0703 87.8097 65.4153C87.9223 65.0899 88.0182 64.7562 88.0848 64.4308C88.1182 64.2681 88.1432 64.1054 88.1515 63.9552C88.1557 63.8801 88.1557 63.8092 88.1473 63.755C88.1473 63.7049 88.1098 63.6549 88.1473 63.7425L88.3015 63.8968C86.8136 63.0083 85.2673 62.103 83.8669 60.9725C82.4623 59.8503 81.2119 58.5153 80.1741 57.0386L80.5618 57.2972C80.6034 57.2972 80.666 57.2513 80.6118 57.2638C80.5701 57.2763 80.4951 57.3473 80.4242 57.439C80.2825 57.6268 80.1617 57.8812 80.0575 58.1482C79.8491 58.6864 79.7115 59.2788 79.6115 59.8753C79.4281 61.0642 79.3822 62.3116 79.5573 63.5422Z" fill="#D4D4D4"/>
</svg>
