<svg width="133" height="137" viewBox="0 0 133 137" fill="none" xmlns="http://www.w3.org/2000/svg">
<path d="M77.9314 91.4021C76.0892 92.8914 76.877 96.4624 79.8237 101.552C82.7704 106.641 91.9606 115.21 97.458 115.352C101.163 114.459 106.698 107.522 105.806 105.148C104.727 103.141 102.159 103.175 100.196 103.984C96.3994 103.033 91.9814 101.281 90.506 99.3909C85.6087 93.8968 81.4158 88.5904 77.9314 91.4021Z" fill="#E6E6E6"/>
<path d="M105.806 105.152C106.698 107.526 101.159 114.463 97.458 115.356C94.6822 115.281 90.9602 113.062 87.5801 110.221C90.5476 107.843 93.2776 103.98 94.0361 101.84C95.8909 102.72 98.1332 103.471 100.196 103.988C102.159 103.175 104.723 103.141 105.806 105.152Z" fill="#EFEFEF"/>
<path d="M90.8598 99.7872C91.3517 100.279 92.0394 100.763 92.8438 101.218C91.3808 104.03 88.7217 105.461 86.2168 105.473C87.613 104.501 90.0221 102.015 90.8598 99.7872Z" fill="#1A1313"/>
<path d="M89.0888 97.789C89.5264 98.2813 89.964 98.7819 90.4141 99.2825C89.1804 100.822 87.7342 101.635 86.3838 101.744C87.4924 100.834 88.5928 99.1073 89.0888 97.789Z" fill="#1A1313"/>
<path d="M88.3218 96.9296C86.8839 99.345 83.4287 102.186 81.003 103.333C80.5445 102.707 80.1444 102.111 79.8235 101.552C79.7985 101.51 79.7776 101.468 79.7526 101.431C82.1033 100.079 84.2831 97.8265 84.6582 96.0953C82.8577 97.2759 81.3656 97.9016 79.5942 97.764C80.6279 97.2884 83.2328 94.3015 83.9497 92.4909C85.3334 93.6423 86.7922 95.2067 88.3218 96.9296Z" fill="#1A1313"/>
<path d="M106.39 104.931L106.377 104.898L106.356 104.856C106.065 104.309 105.623 103.817 105.085 103.479C104.548 103.141 103.943 102.958 103.351 102.887C102.243 102.757 101.172 102.958 100.175 103.329C98.5958 102.853 97.0328 102.315 95.5199 101.685C94.7405 101.356 93.9694 101.005 93.2442 100.601C92.5232 100.2 91.8188 99.7539 91.2895 99.2241C90.7435 98.615 90.1183 97.96 89.5348 97.3259C88.9471 96.6835 88.3386 96.0536 87.7176 95.4362C86.463 94.218 85.121 93.0249 83.558 92.1864C84.7375 93.4963 85.8004 94.8479 86.9007 96.1871C88.0093 97.5345 89.1055 98.8361 90.2683 100.204C90.956 100.926 91.7313 101.435 92.519 101.894C93.3109 102.34 94.1236 102.724 94.953 103.062C96.6077 103.73 98.3082 104.238 100.042 104.601L100.263 104.647L100.43 104.572C101.313 104.209 102.289 104.022 103.189 104.134C103.635 104.188 104.056 104.322 104.41 104.547C104.748 104.76 105.019 105.056 105.219 105.411C105.294 105.636 105.269 105.991 105.181 106.358C104.952 106.22 104.706 106.116 104.464 106.049C104.043 105.932 103.618 105.907 103.214 105.941C102.405 106.011 101.643 106.328 101.092 106.846C101.759 106.5 102.514 106.437 103.185 106.566C103.856 106.691 104.46 107.059 104.702 107.522C104.706 107.534 104.718 107.542 104.727 107.555C104.631 107.751 104.531 107.947 104.422 108.139C103.881 109.103 103.214 110.016 102.48 110.867C101.747 111.718 100.942 112.515 100.075 113.208C99.2377 113.871 98.3124 114.467 97.3788 114.726C96.2951 114.639 95.1865 114.251 94.132 113.754C93.0525 113.237 92.0147 112.603 90.9977 111.927C88.9721 110.559 87.1091 108.936 85.3335 107.234C83.583 105.511 81.895 103.684 80.5654 101.66C79.9194 100.634 79.2859 99.5578 78.6899 98.4857C78.0939 97.4052 77.5313 96.3122 77.0645 95.1316C77.0936 96.4082 77.4479 97.6638 77.8939 98.8528C78.3523 100.05 78.9025 101.176 79.5485 102.29C80.8989 104.497 82.5536 106.433 84.3374 108.239C86.1171 110.05 88.076 111.681 90.1892 113.128C91.2478 113.85 92.3606 114.497 93.5568 115.022C94.7447 115.54 96.0242 115.973 97.4246 115.986H97.5246L97.5872 115.969C98.8834 115.631 99.9045 114.926 100.855 114.188C101.797 113.433 102.647 112.59 103.426 111.685C104.202 110.78 104.914 109.812 105.51 108.752C105.806 108.218 106.073 107.668 106.273 107.054C106.369 106.746 106.452 106.429 106.49 106.078C106.544 105.728 106.54 105.34 106.39 104.931Z" fill="black"/>
<path d="M50.6693 98.5941C52.1406 95.87 54.2162 94.5225 56.892 95.482C59.3844 96.3748 60.0888 100.017 59.8554 102.72C59.622 105.419 58.3758 111.556 57.017 114.622C55.5291 117.613 53.7702 119.277 50.0983 124.046C49.594 127.746 46.764 130.424 42.5544 127.225C38.349 124.021 36.9236 117.746 38.695 115.102C40.1371 113.425 43.4589 112.461 46.6932 108.373C48.3812 105.064 49.3481 101.051 50.6693 98.5941Z" fill="#E6E6E6"/>
<path d="M59.7216 99.6746C59.8716 100.492 59.9258 101.339 59.8967 102.132C58.2962 102.294 55.933 102.265 54.5034 100.467C55.808 100.843 58.2128 100.459 59.7216 99.6746Z" fill="#1A1313"/>
<path d="M59.7843 103.442C59.6509 104.518 59.4175 105.92 59.1049 107.409C56.9334 107.446 53.6075 106.846 51.6235 103.876C52.3196 104.656 56.8584 104.635 59.7843 103.442Z" fill="#1A1313"/>
<path d="M47.8849 105.686C49.3312 107.751 54.5077 110.571 58.488 110.087C58.0504 111.806 57.5419 113.441 57.0209 114.622C56.5374 115.59 56.029 116.42 55.4372 117.258C51.2859 117.525 48.9269 115.106 48.0683 112.411C50.1897 114.167 52.7238 114.463 54.3535 113.546C50.7482 113.299 47.9349 109.545 47.1514 107.417C47.4139 106.85 47.6557 106.27 47.8849 105.686Z" fill="#1A1313"/>
<path d="M54.466 118.564C53.3656 119.974 51.9861 121.601 50.1022 124.046C49.5979 127.746 46.7679 130.424 42.5625 127.225C38.3529 124.021 36.9316 117.746 38.703 115.102C39.8658 113.75 42.2457 112.857 44.8214 110.425C45.505 113.183 49.4853 118.435 54.466 118.564Z" fill="#EFEFEF"/>
<path d="M59.5801 99.0405C59.6677 100.204 59.6301 101.343 59.4634 102.449C59.2842 103.554 59.0341 104.676 58.8007 105.795C58.3256 108.026 57.7671 110.258 57.0627 112.402C56.8835 112.936 56.6918 113.462 56.4792 113.971L56.3292 114.313L56.1374 114.684C56.0082 114.931 55.8749 115.172 55.7332 115.41C55.1747 116.366 54.5078 117.263 53.8159 118.168C52.4114 119.966 50.9526 121.785 49.6064 123.666L49.498 123.816L49.4813 123.962V123.966C49.3396 124.888 49.0312 125.785 48.5394 126.515C48.0517 127.25 47.364 127.779 46.5763 127.909C46.3554 127.946 46.1303 127.955 45.9011 127.938C45.9094 127.925 45.9219 127.909 45.9303 127.896C46.172 127.529 46.3262 127.137 46.4179 126.741C46.6013 125.952 46.5388 125.126 46.2137 124.442C46.3346 125.185 46.1637 125.923 45.8302 126.524C45.5427 127.049 45.0925 127.471 44.6382 127.625C44.4632 127.554 44.2881 127.471 44.1172 127.379C43.3212 126.945 42.5709 126.344 41.9124 125.673C40.5995 124.321 39.6326 122.602 39.0991 120.779C38.8365 119.87 38.6823 118.927 38.6865 118.005C38.6906 117.108 38.8657 116.211 39.2825 115.556C39.7451 115.026 40.4411 114.559 41.1414 114.092C41.8666 113.612 42.6168 113.12 43.3378 112.578C44.7883 111.501 46.1095 110.221 47.2098 108.79L47.2557 108.731L47.2807 108.681C48.3018 106.612 48.9978 104.455 49.7356 102.357C50.1148 101.31 50.4566 100.263 50.8567 99.2533C51.2527 98.2395 51.7195 97.2717 52.378 96.3372C51.3694 96.9004 50.6067 97.8558 50.019 98.8403C49.4397 99.8457 49.0062 100.897 48.6186 101.952C47.8434 104.03 47.1139 106.103 46.1303 108.01C45.0717 109.307 43.8547 110.458 42.4959 111.443C41.8082 111.944 41.0913 112.407 40.3494 112.882C39.6159 113.37 38.8282 113.846 38.128 114.626L38.0988 114.659L38.0738 114.701C37.3902 115.748 37.2194 116.912 37.2027 118.005C37.1985 119.106 37.3778 120.179 37.6737 121.205C38.278 123.257 39.3492 125.168 40.8496 126.716C41.5998 127.487 42.4542 128.155 43.442 128.672C44.4132 129.177 45.601 129.527 46.8222 129.294C47.4224 129.181 47.9975 128.914 48.4768 128.555C48.9562 128.192 49.348 127.746 49.6564 127.266C50.2357 126.353 50.54 125.339 50.6858 124.321L52.7906 121.785C53.5325 120.904 54.2744 120.024 54.9996 119.106C55.729 118.197 56.4292 117.225 57.0377 116.19C57.1878 115.932 57.3337 115.669 57.4754 115.402L57.6754 115.001L57.738 114.864L57.7838 114.759L57.8713 114.551C58.0964 113.988 58.2881 113.429 58.4632 112.866C58.8174 111.739 59.1009 110.604 59.3509 109.461C59.5968 108.318 59.8344 107.18 59.9969 106.024C60.0844 105.448 60.1595 104.868 60.2053 104.284C60.2595 103.7 60.2929 103.116 60.2887 102.516C60.2637 101.306 60.0511 100.117 59.5801 99.0405Z" fill="black"/>
<path d="M48.9602 81.7864C48.7643 80.126 47.1931 79.6546 43.7504 79.5962C37.6027 79.4919 33.2264 76.8846 28.6417 69.3755C23.6403 62.8051 9.88619 61.8665 4.46792 70.1056C1.4462 75.3911 7.42298 79.9341 9.5361 78.3656C12.7662 75.9668 21.3688 72.0162 25.3074 77.4061C30.4131 84.3937 35.3104 86.3752 42.5 85.7495C47.4973 85.3156 49.202 83.8388 48.9602 81.7864Z" fill="#E6E6E6"/>
<path d="M48.9602 81.7864C49.2019 83.8388 47.5014 85.3156 42.5 85.7495C37.1109 86.2167 33.0096 85.2238 29.146 81.753C33.0763 81.8698 35.327 79.7255 36.0814 77.5604C38.3862 78.9496 40.8745 79.5503 43.7503 79.5962C47.193 79.6546 48.7643 80.126 48.9602 81.7864Z" fill="#D4D4D4"/>
<path d="M34.6644 76.5842C35.994 77.6146 37.3694 78.3447 38.8448 78.8286C36.7651 80.1594 35.6272 83.6261 35.3688 85.2572C34.2893 84.961 33.2599 84.5438 32.2554 83.989C32.5472 81.7405 33.6183 79.688 34.1518 79.1373C33.0806 79.2458 32.5805 79.7255 31.9053 80.393C32.0303 78.912 33.5391 77.2058 34.6644 76.5842Z" fill="#332525"/>
<path d="M37.9612 78.4991C37.907 78.4782 37.857 78.4573 37.8028 78.4365C37.5486 78.328 37.2985 78.2112 37.0526 78.0902C36.9901 78.0569 36.9276 78.0277 36.865 77.9943C36.6191 77.8691 36.3774 77.7356 36.1357 77.5896C36.119 77.5771 36.0981 77.5688 36.0815 77.5604C35.6355 78.8453 34.6561 80.1177 33.1139 80.9186C32.743 81.7822 32.4012 82.8585 32.2554 83.9848C32.3012 84.0099 32.347 84.0349 32.3929 84.0599C32.5846 84.1642 32.7805 84.2685 32.9764 84.3603C33.0431 84.3937 33.1098 84.4229 33.1806 84.4521C33.3682 84.5397 33.5599 84.6231 33.7475 84.7024C33.8141 84.7274 33.8808 84.7524 33.9475 84.7775C34.1476 84.8567 34.3477 84.9318 34.5477 85.0027C34.5811 85.0153 34.6186 85.0236 34.6561 85.0361C34.8895 85.1154 35.127 85.1905 35.3688 85.253C35.6272 83.6219 36.765 80.1552 38.8448 78.8245C38.8365 78.8203 38.8323 78.8203 38.824 78.8161C38.7573 78.7952 38.6947 78.7702 38.6281 78.7452C38.403 78.6743 38.1779 78.5908 37.9612 78.4991Z" fill="#1A1313"/>
<path d="M30.1254 71.6408C31.0174 72.909 31.9093 73.9978 32.8179 74.9281C29.3419 75.6373 28.1957 78.9955 28.1748 80.8269C27.3954 80.0342 26.6202 79.1373 25.8492 78.1236C25.4407 74.0896 28.4541 72.2707 30.1254 71.6408Z" fill="#332525"/>
<path d="M25.8285 66.7933C22.786 70.1974 23.0736 74.0812 23.9947 76.0628C23.0736 75.3578 22.0191 74.9656 20.8979 74.7988C19.5684 71.5407 20.8979 69.0752 21.5898 68.2241C19.7601 68.8249 18.9849 70.627 18.8682 71.4113C17.2719 68.6413 18.839 65.792 20.0644 64.5155C22.1733 64.9202 24.1614 65.6919 25.8285 66.7933Z" fill="#332525"/>
<path d="M13.9582 64.382C10.7656 68.658 13.233 73.881 15.2169 75.4829C12.8996 76.2421 10.8073 77.4227 9.5361 78.3655C7.42298 79.9341 1.4462 75.3911 4.46792 70.1056C6.64774 66.7849 10.1863 64.9535 13.9582 64.382Z" fill="#332525"/>
<path d="M40.1244 86.4837C33.76 86.4837 29.3212 83.9598 24.799 77.7732C23.6153 76.1546 21.8565 75.3327 19.5766 75.3327C15.6921 75.3327 11.5534 77.6439 9.90295 78.8662C9.5195 79.154 9.02767 79.3042 8.48168 79.3042C6.85203 79.3042 4.90563 77.9818 3.85115 76.1629C2.69248 74.1605 2.71745 71.8994 3.92197 69.7927C6.53525 65.8171 11.1491 63.5602 16.6091 63.5602C21.7856 63.5602 26.587 65.6419 29.1378 68.9959L29.1753 69.0501C33.4682 76.0836 37.5611 78.8662 43.7629 78.9705C46.6638 79.0205 49.2937 79.2666 49.5813 81.7113C49.6897 82.629 49.4688 83.4384 48.9228 84.11C47.9183 85.3448 45.8344 86.0874 42.5542 86.3711C41.6957 86.4461 40.8996 86.4837 40.1244 86.4837ZM19.5808 74.0812C22.2816 74.0812 24.378 75.0741 25.8118 77.0348C30.0672 82.8543 34.2143 85.228 40.1244 85.2322C40.8496 85.2322 41.6331 85.1946 42.4417 85.1279C45.3259 84.8776 47.1764 84.2685 47.9475 83.3215C48.2767 82.9169 48.406 82.4371 48.3351 81.8614C48.2142 80.8477 47.4473 80.2845 43.7337 80.222C37.1318 80.1093 32.6055 77.0682 28.1208 69.7301C25.7951 66.6973 21.3855 64.8117 16.6049 64.8117C11.5743 64.8117 7.33967 66.8683 4.98481 70.4477C3.69276 72.7129 4.39714 74.611 4.9348 75.5371C5.88091 77.1724 7.46889 78.0527 8.48585 78.0527C8.7651 78.0527 8.99017 77.9901 9.16105 77.8608C11.6159 76.0419 15.9214 74.0812 19.5808 74.0812Z" fill="black"/>
<path d="M96.4911 75.4912C93.9904 72.0287 88.4221 71.9286 84.6459 73.2343C80.8698 74.5442 75.4182 75.9292 71.5629 76.2588C61.1432 74.6527 53.9327 74.5025 48.0393 76.6551C42.8169 78.8786 38.2739 84.3561 38.2989 91.5189C38.9575 100.213 44.9134 106.938 57.142 107.526C72.0339 106.437 84.0457 101.856 90.5727 96.7252C98.9835 90.1255 101.438 82.3411 96.4911 75.4912Z" fill="#E6E6E6"/>
<path d="M96.4872 75.4912C101.439 82.3411 98.9838 90.1255 90.573 96.7335C84.046 101.865 72.0342 106.445 57.1423 107.534C44.9095 106.942 38.9536 100.221 38.295 91.5231C38.2784 86.9884 40.0955 83.1254 42.7547 80.3471C42.7463 84.9401 47.5227 90.9348 59.2179 89.2995C72.6343 87.4223 78.9362 80.3137 75.8311 75.6205C78.8653 75.0156 82.1246 74.1104 84.6379 73.2385C88.4223 71.9286 93.9907 72.0287 96.4872 75.4912Z" fill="#D4D4D4"/>
<path d="M98.8128 80.6475C99.884 86.0749 96.9289 91.74 90.5729 96.7336C84.046 101.865 72.0341 106.445 57.1422 107.534C50.9237 107.234 46.3307 105.348 43.2256 102.424C48.3896 104.176 56.7963 103.946 66.5575 102.194C75.7727 100.538 84.4544 96.8837 90.3145 91.982C93.903 88.9784 95.6411 85.933 96.9831 82.2119C97.3791 81.123 98.1501 80.4723 98.8128 80.6475Z" fill="#EFEFEF"/>
<path d="M71.5634 76.2588C72.9638 76.1379 74.5768 75.8834 76.244 75.533C74.0892 78.1152 72.9472 82.312 72.9305 86.1875C72.4679 88.0272 71.826 90.4635 71.5259 92.2448C70.3506 89.0576 69.592 85.6243 69.8004 82.6999C68.8793 83.4926 67.3997 86.4211 66.8704 87.852C65.1449 83.9139 65.37 79.6421 67.1663 77.7523C66.7579 79.0914 66.9746 81.5944 67.3164 82.3829C68.1208 79.9758 69.792 77.5479 71.1841 76.2004C71.3133 76.2213 71.4384 76.238 71.5634 76.2588Z" fill="#332525"/>
<path d="M65.3068 75.4412C63.9689 76.9347 62.6143 80.2637 62.1684 83.7888C61.2014 86.8091 60.7138 88.0898 60.0928 91.8986C59.1633 88.0689 58.3673 83.8013 58.8216 81.5027C57.6087 83.0837 56.35 84.9902 55.9624 87.0677C55.2414 82.8209 57.0586 78.1069 61.6933 75.145C62.8436 75.2117 64.0481 75.3077 65.3068 75.4412Z" fill="#332525"/>
<path d="M58.3257 75.0532C55.5416 76.5675 53.1492 80.4222 52.1322 84.4395C51.4862 82.2911 51.5571 79.8089 52.7949 77.5562C50.4526 78.6951 48.5729 81.1063 47.7226 82.9294C46.7932 84.9234 46.3639 86.9676 46.0846 89.2745C45.4136 86.7757 45.0635 83.8763 45.7595 80.9353C46.5764 78.6742 48.7312 77.0056 50.8193 75.8375H50.8235C53.0867 75.3077 55.5583 75.0574 58.3257 75.0532Z" fill="#332525"/>
<path d="M73.0466 84.0933C72.9715 84.7941 72.934 85.4992 72.9299 86.1917C72.4672 88.0314 71.8254 90.4677 71.5253 92.249C70.7792 90.2299 70.204 88.1148 69.9331 86.0915C71.1293 85.47 72.1713 84.7941 73.0466 84.0933Z" fill="#1A1313"/>
<path d="M67.0696 87.3597C66.9904 87.5391 66.9237 87.706 66.8695 87.8562C66.8154 87.7352 66.7653 87.6142 66.7153 87.4932C66.8362 87.4515 66.9529 87.4056 67.0696 87.3597Z" fill="#1A1313"/>
<path d="M59.4927 89.2579C59.8761 89.1995 60.2512 89.1411 60.6222 89.0785C60.4429 89.8711 60.272 90.7764 60.0887 91.8986C59.8761 91.035 59.6761 90.1464 59.4927 89.2579Z" fill="#1A1313"/>
<path d="M46.4307 87.0301C46.2848 87.7519 46.1723 88.4986 46.0806 89.2745C45.8263 88.3192 45.6138 87.3097 45.4971 86.2542C45.7847 86.5254 46.0931 86.784 46.4307 87.0301Z" fill="#1A1313"/>
<path d="M65.528 107.146C62.8105 107.609 60.0055 107.947 57.188 108.151H57.113C45.5138 107.592 38.4283 101.548 37.6739 91.5648V91.5189C37.6448 83.3132 43.1047 78.0735 47.7936 76.0753C49.2398 75.5455 50.7028 75.1617 52.3033 74.8905C57.1338 74.0687 62.9064 74.2898 71.584 75.6247C72.3884 75.5538 73.2928 75.4328 74.2764 75.266C77.4107 74.732 81.3035 73.7266 84.4419 72.6419C85.1755 72.3875 85.959 72.1872 86.7676 72.0496C90.2186 71.4614 94.7158 71.962 96.9998 75.1199C102.085 82.1576 99.884 90.2132 90.9605 97.2175C85.1796 101.765 75.9102 105.381 65.528 107.146ZM57.1338 106.9C59.8972 106.696 62.6521 106.366 65.3154 105.911C75.4976 104.18 84.5628 100.655 90.1853 96.2371C98.5086 89.7042 100.617 82.2744 95.9828 75.8583C94.0364 73.1634 90.056 72.7629 86.976 73.2886C86.2341 73.4137 85.5172 73.5973 84.8504 73.8267C81.6536 74.9364 77.6816 75.9626 74.4848 76.505C73.4387 76.6843 72.4717 76.8095 71.6173 76.8846L71.4672 76.8804C63.0022 75.5747 57.1547 75.3452 52.5116 76.1337C50.9862 76.3923 49.5941 76.7553 48.2521 77.2475C43.9508 79.0789 38.9035 83.9181 38.9243 91.498C39.6329 100.755 46.2681 106.366 57.1338 106.9Z" fill="black"/>
<path d="M75.5184 93.5756C73.0718 94.9398 72.9843 98.3272 74.5264 104.005C76.9105 112.782 84.421 123.303 89.4058 124.404C92.3442 124.697 100.422 118.305 100.017 116.307C99.4338 114.213 97.2957 113.433 95.2951 113.7C91.1314 110.584 88.3138 108.168 86.4675 105.127C83.8458 100.125 80.5032 90.7931 75.5184 93.5756Z" fill="#E6E6E6"/>
<path d="M100.017 116.303C100.421 118.301 92.3439 124.697 89.4055 124.4C84.4165 123.299 76.9059 112.778 74.5261 104.001C72.9839 98.323 73.0756 94.9356 75.518 93.5714C76.3349 93.1167 77.1102 92.9874 77.8438 93.1084C76.3475 94.5184 75.939 98.3564 78.2397 103.825C81.3573 111.226 88.0593 112.11 89.3013 108.69C90.8934 110.296 92.8607 111.877 95.2906 113.696C97.2953 113.433 99.4293 114.209 100.017 116.303Z" fill="#D4D4D4"/>
<path d="M100.017 116.303C100.421 118.301 92.3438 124.697 89.4055 124.4C86.9131 123.85 83.7913 120.946 80.9946 117.083C85.1042 115.619 89.6055 112.019 90.7392 110.041C92.0354 111.205 93.5484 112.386 95.2947 113.696C97.2953 113.433 99.4292 114.209 100.017 116.303Z" fill="white"/>
<path d="M87.7671 106.971C88.3006 107.643 88.8966 108.298 89.5593 108.948C86.7251 111.877 82.9073 112.478 80.0356 111.41C82.0863 110.938 86.2291 109.119 87.7671 106.971Z" fill="#332525"/>
<path d="M86.4627 105.123C86.7795 105.644 87.1254 106.145 87.4964 106.633C85.3832 107.926 83.3535 108.256 81.7905 107.801C83.3577 107.321 85.2707 105.995 86.3294 104.868C86.3752 104.956 86.421 105.039 86.4627 105.123Z" fill="#332525"/>
<path d="M82.8993 98.0685C83.9746 99.9375 84.9373 102.04 85.8126 103.834C83.2994 105.636 78.5854 107.084 75.6137 107.28C75.3095 106.508 75.0427 105.736 74.8052 104.973C77.8853 104.601 81.2738 103.187 82.4324 101.573C80.0818 102.04 78.2854 102.082 76.5265 101.26C77.706 101.201 81.2071 99.5161 82.8993 98.0685Z" fill="#332525"/>
<path d="M78.3729 104.126C78.7688 105.023 79.219 105.82 79.7066 106.52C78.2312 106.933 76.7891 107.209 75.6137 107.284C75.3095 106.512 75.0427 105.74 74.8052 104.977C75.9972 104.831 77.235 104.535 78.3729 104.126Z" fill="#1A1313"/>
<path d="M89.3011 108.694C89.3887 108.777 89.472 108.865 89.5554 108.948C86.7212 111.877 82.9034 112.478 80.0317 111.41C80.9653 111.197 82.3407 110.696 83.7036 110.016C86.2252 111.172 88.6093 110.6 89.3011 108.694Z" fill="#1A1313"/>
<path d="M77.2768 101.11C77.3226 101.272 77.3727 101.435 77.4227 101.606C77.1226 101.519 76.8267 101.402 76.5308 101.264C76.7225 101.256 76.9809 101.201 77.2768 101.11Z" fill="#1A1313"/>
<path d="M100.692 116.115C100.534 115.556 100.25 115.014 99.8627 114.563C99.4751 114.113 98.9916 113.754 98.4748 113.508C97.5162 113.057 96.4784 112.945 95.4864 113.049C93.9943 111.831 92.5022 110.621 91.1018 109.345C89.6472 108.014 88.3051 106.595 87.2548 104.981L87.159 104.827L87.1131 104.756L87.0923 104.714L86.9172 104.384L86.5713 103.725L85.8877 102.386C85.4376 101.485 84.9666 100.588 84.4665 99.6996C83.958 98.8194 83.412 97.9475 82.7993 97.1257C82.1783 96.3122 81.4948 95.5238 80.682 94.898C81.7657 96.6209 82.5659 98.4273 83.3953 100.25L84.6415 102.991L85.2751 104.372L85.6044 105.064L85.7752 105.407L85.7961 105.448L85.8419 105.536L85.8919 105.619L85.9961 105.786C87.1006 107.584 88.5427 109.132 90.0807 110.492C90.8517 111.172 91.6436 111.818 92.4605 112.428C93.2733 113.041 94.0902 113.641 94.9279 114.205L95.1571 114.363L95.3822 114.326C96.2533 114.226 97.1536 114.351 97.883 114.726C98.6082 115.085 99.1208 115.702 99.3292 116.462C99.3292 116.482 99.3001 116.666 99.2042 116.845C98.975 116.633 98.7165 116.462 98.4498 116.341C98.0538 116.157 97.6412 116.065 97.2327 116.032C96.4242 115.973 95.6198 116.157 94.9946 116.583C95.7115 116.349 96.4659 116.407 97.1077 116.645C97.7496 116.879 98.2872 117.338 98.4498 117.834C98.454 117.851 98.4665 117.867 98.4748 117.884C98.2414 118.159 97.9913 118.435 97.7288 118.698C96.9369 119.478 96.0658 120.208 95.1655 120.888C94.2611 121.564 93.3149 122.189 92.3355 122.711C91.8478 122.974 91.3477 123.207 90.8517 123.387C90.3807 123.558 89.8764 123.679 89.5221 123.654C88.4385 123.391 87.359 122.686 86.3921 121.901C85.4001 121.088 84.4707 120.166 83.6079 119.182C81.8782 117.212 80.3695 115.022 79.0232 112.749C77.6853 110.471 76.5392 108.068 75.6514 105.586C75.2013 104.351 74.822 103.083 74.4385 101.806C74.0676 100.53 73.7258 99.2491 73.5049 97.91C73.2924 99.2616 73.3924 100.647 73.5841 101.99C73.68 102.666 73.8092 103.333 73.9592 103.996C74.0968 104.66 74.2927 105.327 74.4969 105.978C75.3388 108.581 76.4933 111.063 77.8187 113.441C79.1524 115.819 80.6904 118.08 82.4826 120.166C83.3829 121.205 84.3415 122.202 85.4293 123.086C85.9753 123.528 86.5504 123.941 87.1798 124.304C87.805 124.663 88.4844 124.98 89.2513 125.151L89.3013 125.164L89.3388 125.168C90.1515 125.226 90.7725 125.018 91.3727 124.813C91.9687 124.596 92.5189 124.329 93.0566 124.046C94.1235 123.47 95.1197 122.807 96.0741 122.089C97.0286 121.372 97.9413 120.6 98.7832 119.728C99.2042 119.29 99.6127 118.835 99.9836 118.314C100.167 118.055 100.346 117.776 100.496 117.454C100.634 117.129 100.809 116.758 100.717 116.17L100.713 116.153L100.692 116.115Z" fill="black"/>
<path d="M44.6967 96.6001C46.7265 94.5351 49.2564 93.4672 51.6654 94.9815C53.7244 96.2747 54.0953 99.3409 52.995 102.699C52.1489 105.273 47.9477 112.536 44.9509 115.523C40.8164 119.269 33.1724 121.668 31.6012 122.34C30.5425 124.88 27.0415 127.504 23.9864 123.191C20.9313 118.873 20.5437 112.027 23.2195 109.253C23.7447 108.456 32.4973 108.177 37.5071 104.535C41.9209 100.897 42.742 98.5858 44.6967 96.6001Z" fill="#E6E6E6"/>
<path d="M51.6647 94.9773C53.7194 96.2664 54.0946 99.3367 52.9942 102.695C52.1482 105.273 47.9511 112.532 44.946 115.519C40.8114 119.265 33.1717 121.66 31.6004 122.331C30.5417 124.872 27.0407 127.5 23.9856 123.182C20.9306 118.869 20.543 112.023 23.2146 109.245C23.673 108.556 30.2666 108.256 35.2848 105.836C33.7343 113.082 44.5375 108.081 47.701 102.97C50.0892 99.1073 49.3765 95.9535 47.9552 94.4725C49.1681 94.1054 50.431 94.2055 51.6647 94.9773Z" fill="#D4D4D4"/>
<path d="M52.9821 102.733C52.7779 103.342 52.3903 104.209 51.8776 105.215C50.273 104.535 48.2766 103.308 47.6514 101.06C48.7392 102.04 50.9815 102.574 52.9821 102.733Z" fill="#1A1313"/>
<path d="M51.1354 106.616C50.4852 107.797 49.7225 109.086 48.9181 110.329C46.7174 109.307 43.6248 107.067 43.083 103.075C43.3873 104.168 47.6677 106.262 51.1354 106.616Z" fill="#1A1313"/>
<path d="M47.2267 112.786C46.4389 113.858 45.6595 114.81 44.9468 115.515C43.7131 116.628 42.171 117.63 40.5664 118.497C36.09 116.758 34.8522 113.108 35.3232 109.916C36.5944 112.724 39.0034 114.267 41.0874 114.146C37.8239 112.261 36.7402 107.643 36.8194 104.989C37.057 104.843 37.2821 104.685 37.5071 104.526C37.8823 104.213 38.2365 103.917 38.5616 103.625C39.3827 106.591 43.1463 111.56 47.2267 112.786Z" fill="#1A1313"/>
<path d="M48.4354 101.594C48.3437 101.798 48.2437 102.002 48.1312 102.215C47.9311 101.865 47.7644 101.481 47.6519 101.064C47.8686 101.256 48.1353 101.435 48.4354 101.594Z" fill="#332525"/>
<path d="M43.084 103.079C43.2382 103.625 44.3843 104.422 45.9265 105.131C45.4388 105.607 44.9054 106.07 44.3427 106.495C43.7258 105.536 43.259 104.405 43.084 103.079Z" fill="#332525"/>
<path d="M38.5613 103.625C38.9406 104.977 39.9242 106.746 41.2788 108.389C39.9325 109.048 38.6197 109.449 37.5527 109.466C36.9942 107.864 36.7816 106.216 36.8191 104.989C37.0567 104.843 37.2818 104.685 37.5068 104.526C37.8819 104.218 38.2321 103.917 38.5613 103.625Z" fill="#332525"/>
<path d="M38.8778 119.357C35.6477 120.913 32.5426 121.931 31.6048 122.331C30.5461 124.872 27.0451 127.5 23.99 123.182C20.935 118.869 20.5473 112.023 23.219 109.245C23.6066 108.656 28.4539 108.352 32.9802 106.779C32.5051 109.645 33.9388 117.292 38.8778 119.357Z" fill="white"/>
<path d="M53.5616 98.4148C53.4491 99.8749 53.0739 101.231 52.5488 102.532C52.0153 103.788 51.3026 105.052 50.6107 106.291C49.9021 107.53 49.152 108.748 48.3601 109.937C47.5682 111.122 46.7512 112.294 45.8634 113.387C45.4216 113.934 44.959 114.463 44.4797 114.943L44.4422 114.981L44.438 114.985L44.413 115.006L44.313 115.093L44.1171 115.26L43.717 115.586C43.4461 115.798 43.1668 116.007 42.8834 116.207C41.7414 117.004 40.5119 117.705 39.2532 118.351C37.9903 118.99 36.6941 119.582 35.377 120.137C34.0517 120.7 32.7388 121.171 31.355 121.76L31.1174 121.86L31.0216 122.093C30.659 122.919 30.0505 123.683 29.3252 124.192C28.6042 124.713 27.7498 124.934 26.962 124.726C26.9495 124.722 26.937 124.717 26.9245 124.713C26.9662 124.663 27.0079 124.617 27.0454 124.571C27.308 124.221 27.4914 123.841 27.6081 123.449C27.8415 122.673 27.8331 121.843 27.5581 121.142C27.6289 121.889 27.408 122.615 27.0371 123.191C26.737 123.662 26.2993 124.033 25.8659 124.179C25.5033 123.908 25.1657 123.57 24.8656 123.191C24.2737 122.444 23.7945 121.593 23.3943 120.7C22.5983 118.915 22.1648 116.946 22.1356 114.997C22.1231 114.021 22.2231 113.049 22.469 112.136C22.7149 111.226 23.1192 110.367 23.7194 109.741L23.7236 109.737C23.7486 109.724 23.7861 109.708 23.8361 109.691C23.9403 109.653 24.0737 109.616 24.2071 109.578C24.478 109.507 24.7656 109.449 25.0532 109.391L26.8203 109.04C28.0124 108.802 29.2044 108.548 30.3922 108.239C32.7596 107.613 35.1311 106.808 37.2568 105.427C37.3901 105.34 37.5193 105.252 37.6485 105.16L37.8402 105.023L38.0445 104.856L38.7405 104.251C39.199 103.842 39.6491 103.421 40.0826 102.987C40.9537 102.115 41.7664 101.181 42.5125 100.204C43.2669 99.2325 43.9045 98.2146 44.6256 97.2968C45.3466 96.3707 46.1552 95.5196 47.143 94.7938C45.9468 95.1108 44.8798 95.8617 43.9879 96.7253C43.096 97.6097 42.3832 98.6025 41.6455 99.5328C40.912 100.467 40.1201 101.343 39.2698 102.169C38.8447 102.582 38.4071 102.979 37.9569 103.367L37.2776 103.938L37.1317 104.059L36.9566 104.18C36.8358 104.259 36.7191 104.339 36.5982 104.418C34.6393 105.649 32.3637 106.391 30.063 106.958C28.9085 107.238 27.7373 107.472 26.5536 107.684C25.9617 107.793 25.3657 107.893 24.7655 108.014C24.4655 108.076 24.1612 108.139 23.8444 108.218C23.6861 108.26 23.5235 108.306 23.3485 108.368C23.261 108.402 23.1651 108.439 23.0567 108.494C22.9525 108.56 22.8108 108.602 22.6149 108.869L22.6983 108.769C21.8689 109.637 21.3854 110.709 21.0936 111.777C20.8061 112.853 20.6977 113.946 20.706 115.027C20.7352 117.192 21.2062 119.323 22.0814 121.301C22.5232 122.285 23.0775 123.232 23.7736 124.092C24.4738 124.943 25.4033 125.76 26.6286 126.065C27.233 126.215 27.8831 126.207 28.4792 126.057C29.0793 125.906 29.6212 125.627 30.0921 125.285C30.9549 124.638 31.6092 123.8 32.0552 122.844C32.6304 122.632 33.2556 122.431 33.8516 122.21C34.5351 121.964 35.2145 121.71 35.8939 121.447C37.2526 120.917 38.5988 120.35 39.9117 119.686C41.2288 119.031 42.5166 118.301 43.7336 117.438C44.0379 117.221 44.338 116.996 44.6339 116.762L45.0716 116.403L45.2883 116.215L45.3883 116.124L45.4675 116.049L45.5175 115.999C46.0552 115.456 46.5262 114.881 46.9846 114.301C48.7935 111.964 50.3065 109.474 51.6819 106.9C52.0236 106.258 52.357 105.603 52.6571 104.935C52.9656 104.268 53.2365 103.584 53.4449 102.841C53.8158 101.385 53.9617 99.8373 53.5616 98.4148ZM23.7153 109.737C23.7069 109.741 23.7028 109.745 23.7153 109.737Z" fill="black"/>
<path d="M103.106 62.3963C105.377 60.8402 108.533 57.4862 108.474 55.392C108.428 53.8359 107.399 53.448 105.232 51.821C102.61 49.852 100.493 47.1153 98.9922 45.3424C97.1583 43.924 95.0577 45.3757 93.328 48.5295C91.2024 52.4134 90.3188 59.9892 95.2828 64.0817C97.2333 65.0411 100.009 64.5197 103.106 62.3963Z" fill="#E6E6E6"/>
<path d="M108.478 55.3878C108.386 55.0958 108.274 54.8288 108.12 54.6077C107.965 54.3866 107.778 54.2114 107.569 54.0487C107.14 53.7358 106.636 53.4605 106.136 53.1601C105.636 52.8556 105.135 52.5344 104.652 52.1798C104.16 51.8127 103.698 51.433 103.247 51.0325C102.347 50.2358 101.509 49.3764 100.709 48.5003C99.9047 47.6243 99.1462 46.7148 98.4001 45.8346L98.5168 45.9472C97.8916 45.4675 97.2581 45.4592 96.5537 45.8805C95.8618 46.3018 95.2325 47.0235 94.6949 47.7953C94.4239 48.1874 94.1781 48.6004 93.9447 49.0218C93.7279 49.4306 93.5279 49.8686 93.3528 50.315C93.011 51.2119 92.7485 52.1464 92.5692 53.0975C92.2191 54.9998 92.2191 56.9814 92.6818 58.8462C93.1111 60.7234 93.978 62.4672 95.2784 64.0733C93.4278 63.1096 92.0857 61.2199 91.4647 59.1799C90.8562 57.1232 90.8062 54.9498 91.1146 52.8556C91.273 51.8043 91.5273 50.7697 91.9066 49.7644C92.0941 49.2596 92.3066 48.7715 92.5609 48.2834C92.8068 47.812 93.0777 47.3531 93.3778 46.9026C93.9821 46.014 94.6865 45.1296 95.7452 44.5038C96.2703 44.1993 96.9247 43.9699 97.6207 44.0032C98.3209 44.0283 98.9711 44.3328 99.4588 44.7166L99.5296 44.7708L99.5796 44.8292C100.342 45.7387 101.059 46.6481 101.805 47.5283C102.551 48.4085 103.327 49.2554 104.152 50.0355C104.564 50.4277 104.994 50.8031 105.427 51.1535C105.873 51.5123 106.327 51.8711 106.778 52.2465C107.003 52.4384 107.228 52.6303 107.449 52.8472C107.67 53.06 107.89 53.2853 108.078 53.5523C108.27 53.8151 108.428 54.1238 108.495 54.4492C108.574 54.7746 108.549 55.0958 108.478 55.3878Z" fill="black"/>
<path d="M110.387 52.6011C110.687 51.796 110.804 49.6559 109.557 48.688C113.93 49.5891 115.342 52.6428 115.126 54.9748C116.076 53.8026 116.71 50.2983 115.147 48.8007C117.639 49.051 121.382 52.2465 119.835 56.9564C121.836 56.51 122.724 52.5427 122.57 50.7781C126.266 53.8651 125.958 59.5637 123.482 61.2157C125.479 64.0858 125.975 69.4548 125.354 71.9495C124.108 73.322 121.861 76.943 122.986 78.4406C123.857 79.5628 125.108 79.4377 125.854 79.3125C126.479 78.6868 130.968 78.6868 131.093 80.8102C131.218 82.9336 130.097 85.0528 128.971 85.5534C128.471 87.9271 124.837 90.0588 123.482 89.9212C121.611 89.5457 118.618 87.9229 117.747 84.4312C114.38 86.1792 114.63 91.9194 117.247 94.168C117.847 95.2318 115.001 97.6639 112.258 98.2854C109.032 97.764 105.773 95.4153 104.027 92.1697C99.7086 91.4772 94.9322 91.9278 91.3062 92.2949C91.0978 91.4772 91.3062 89.0493 92.0522 87.9271C89.0597 88.0522 84.8126 86.5129 83.0912 84.3811C85.0877 83.7554 87.3133 82.6833 88.1844 81.9365C85.4419 79.9383 78.9359 75.0532 78.4565 66.4595C79.7444 67.857 81.2657 68.6663 82.9454 69.7051C80.5738 66.0841 79.9528 63.3391 80.0779 59.5929C83.3913 59.7431 88.7054 57.9659 95.0447 54.2239C99.1293 51.8127 105.523 50.2316 110.387 52.6011Z" fill="#E6E6E6"/>
<path d="M126.979 81.6737C125.987 80.7017 125.829 80.3638 125.85 79.3167C126.475 78.6909 130.964 78.691 131.089 80.8144C131.214 82.9336 130.093 85.057 128.967 85.5576C127.796 85.0903 128.463 83.2923 127.417 82.0951C127.254 81.9407 127.109 81.803 126.979 81.6737Z" fill="black"/>
<path d="M127.417 82.095C128.438 83.2172 127.746 84.9109 128.967 85.5575C128.471 87.9271 124.837 90.063 123.482 89.9253C121.611 89.5499 118.618 87.9271 117.743 84.4312C114.38 86.1791 114.625 91.9236 117.247 94.1679C117.847 95.2317 115.001 97.6638 112.258 98.2896C109.032 97.7681 105.773 95.4153 104.027 92.1697C103.589 92.0988 103.143 92.0404 102.697 91.9945C102.034 87.0051 106.277 84.3686 108.232 83.9639C106.711 83.6177 104.91 83.2047 103.11 83.7595C106.986 78.9746 112.942 79.9466 114.33 80.0843C117.03 79.4585 121.461 80.6391 122.986 81.4693C124.016 81.415 125.82 81.3608 126.979 81.6737C127.108 81.803 127.254 81.9407 127.417 82.095Z" fill="#F5F5F5"/>
<path d="M95.0494 54.2239C98.1419 52.3967 102.556 51.0492 106.628 51.529C102.393 51.8752 96.2081 54.7787 94.3408 61.6162C92.4986 68.3618 94.27 71.5949 96.4248 73.9936C94.4784 74.5484 92.8112 74.8279 89.2685 74.3065C92.4986 78.6868 96.7707 79.3125 99.6216 79.9717C97.6043 81.7113 94.2366 83.0671 92.707 83.4842C94.791 85.1529 96.7707 85.883 99.0631 86.2292C98.2295 87.4807 97.1875 88.0731 96.2497 88.8032C97.5834 89.9337 99.2173 90.9599 101.455 91.886C97.8877 91.6524 94.2241 91.9987 91.3066 92.2949C91.0982 91.4814 91.3066 89.0493 92.0568 87.9271C89.0643 88.0522 84.8172 86.5129 83.0959 84.3811C85.0923 83.7596 87.3179 82.6833 88.189 81.9365C85.4465 79.9383 78.9405 75.0532 78.4653 66.4595C79.7532 67.8529 81.2703 68.6663 82.9542 69.7051C80.5826 66.0841 79.9616 63.3391 80.0867 59.5929C83.4001 59.7431 88.7142 57.9659 95.0494 54.2239Z" fill="#D4D4D4"/>
<path d="M131.719 80.9812L131.71 80.8018C131.702 80.6183 131.673 80.4556 131.618 80.2845C131.514 79.9466 131.31 79.6463 131.081 79.421C130.847 79.1957 130.593 79.0289 130.335 78.8954C129.818 78.6367 129.293 78.5032 128.772 78.4198C128.251 78.3405 127.73 78.3113 127.2 78.3405C126.938 78.3572 126.671 78.3822 126.392 78.4365C126.254 78.4657 126.113 78.499 125.958 78.5533C125.85 78.5992 125.742 78.6367 125.608 78.7201C124.875 78.8328 124.229 78.7535 123.774 78.3614C123.712 78.3113 123.654 78.2529 123.599 78.1945C123.574 78.1695 123.554 78.1486 123.516 78.0986L123.491 78.0652L123.487 78.0568L123.462 78.0193C123.399 77.9233 123.354 77.7982 123.329 77.6522C123.279 77.356 123.324 76.9805 123.416 76.6093C123.608 75.8584 123.97 75.0991 124.383 74.3816C124.8 73.6682 125.287 72.9632 125.817 72.3666L125.925 72.2457L125.958 72.0996C126.196 71.1026 126.238 70.1348 126.225 69.1711C126.209 68.2116 126.121 67.2563 125.967 66.3093C125.813 65.3623 125.592 64.4279 125.279 63.5101C125.008 62.7175 124.666 61.9416 124.212 61.2073C125.458 59.9266 126.171 57.9617 126.013 55.9635C125.733 52.4176 123.791 50.2608 121.741 48.8007C121.949 51.5123 121.774 54.2239 120.386 56.2055C121.082 54.3282 120.478 52.0129 119.969 51.166C118.719 49.0802 116.564 48.1082 113.926 47.691C114.968 48.9759 116.01 51.3079 115.314 53.3562C115.072 51.6875 114.305 50.7155 113.751 50.0897C112.396 48.5587 110.137 48.0373 108.437 48.0373C109.27 48.8382 110.208 50.436 109.937 52.0046C108.883 51.5165 107.749 51.1911 106.594 51.0367C105.223 50.8406 103.827 50.8657 102.46 51.0409C101.093 51.2119 99.7465 51.5331 98.4462 51.9837C97.1458 52.4342 95.8829 52.9974 94.6909 53.6941C92.3985 55.0207 90.0395 56.2347 87.6013 57.2192C86.3801 57.7073 85.1381 58.1328 83.8835 58.4623C82.629 58.7836 81.3453 59.0088 80.1032 58.9671L79.4614 58.9463L79.4489 59.572V59.5762C79.4239 61.3951 79.5822 63.2682 80.1449 65.037C80.5075 66.205 81.0244 67.3022 81.6245 68.3451C81.3661 68.1699 81.1077 67.9947 80.8618 67.8111C80.1324 67.2772 79.4697 66.6973 78.9112 66.0298L77.7817 64.6865L77.8276 66.4887V66.4971C77.9443 68.1282 78.286 69.7426 78.8445 71.2737C79.3989 72.8047 80.1658 74.2522 81.091 75.5747C82.0163 76.9013 83.0916 78.1069 84.2628 79.1999C85.3256 80.1928 86.4718 81.0855 87.6471 81.9198C87.3762 82.0867 87.0928 82.2452 86.8011 82.3871C86.3843 82.5873 85.9591 82.7709 85.5298 82.9377C84.6671 83.2756 83.7835 83.5635 82.8958 83.7846L82.0122 84.0057L82.5998 84.7733L82.6081 84.7858C83.225 85.4866 83.9502 86.0039 84.7004 86.4336C85.4548 86.8633 86.2426 87.2012 87.047 87.4724C87.8514 87.7435 88.6766 87.9521 89.5144 88.0856C90.1729 88.1899 90.8356 88.2483 91.5066 88.24C91.3982 88.4402 91.3066 88.6488 91.2274 88.8532C91.0857 89.2245 90.9731 89.6041 90.8856 89.9879C90.7981 90.3717 90.7272 90.7597 90.6855 91.156C90.6522 91.5648 90.6064 91.9403 90.6939 92.4492L90.773 92.9331L91.3607 92.9165H91.3732C93.4822 92.6995 95.5828 92.5118 97.6793 92.4534C99.6757 92.3992 101.672 92.4617 103.627 92.7454C104.498 94.2681 105.682 95.5989 107.074 96.6543C108.553 97.7681 110.279 98.5983 112.146 98.9028L112.267 98.9237L112.384 98.8945C113.613 98.6067 114.73 98.0643 115.743 97.3635C116.247 97.0089 116.731 96.6126 117.164 96.1245C117.381 95.8784 117.585 95.6072 117.748 95.2651C117.827 95.0899 117.902 94.898 117.931 94.6561C117.96 94.4224 117.927 94.1179 117.781 93.8593L117.727 93.7675L117.644 93.6924L117.635 93.684C117.022 93.1751 116.552 92.4492 116.239 91.6566C115.926 90.8598 115.764 89.9921 115.76 89.1244C115.755 88.2608 115.91 87.3889 116.264 86.6214C116.543 86.0123 116.96 85.4783 117.485 85.082C117.648 85.6035 117.864 86.1124 118.139 86.5921C118.506 87.2346 118.969 87.8228 119.498 88.3359C120.032 88.849 120.632 89.2871 121.282 89.6417C121.932 89.9963 122.62 90.2758 123.366 90.4385L123.391 90.4426L123.416 90.4468C123.858 90.4844 124.2 90.3967 124.533 90.305C124.862 90.209 125.175 90.0839 125.475 89.9462C126.071 89.6667 126.629 89.3246 127.155 88.9325C127.68 88.5403 128.172 88.0898 128.597 87.5642C128.963 87.1094 129.284 86.5796 129.476 85.9706C129.935 85.6911 130.256 85.324 130.526 84.9527C130.843 84.5063 131.081 84.0266 131.268 83.5301C131.452 83.0337 131.581 82.5164 131.652 81.9908C131.685 81.7279 131.706 81.461 131.706 81.194L131.719 80.9812ZM130.426 81.8281C130.372 82.2578 130.264 82.6833 130.114 83.0921C129.964 83.5009 129.764 83.8889 129.526 84.2268C129.289 84.5647 128.989 84.8609 128.722 84.9819H128.718L128.413 85.1487L128.359 85.4241C128.267 85.8955 128.009 86.3794 127.676 86.8174C127.338 87.2555 126.921 87.6601 126.471 88.0189C126.021 88.3776 125.525 88.6947 125.017 88.9533C124.762 89.0785 124.5 89.1911 124.241 89.2746C123.995 89.3538 123.733 89.4081 123.558 89.3955C122.949 89.2746 122.341 89.0535 121.77 88.7614C121.19 88.4652 120.644 88.0856 120.161 87.6476C119.194 86.7674 118.49 85.6118 118.152 84.3353V84.3269L118.027 83.8305L117.56 84.0599C116.635 84.5105 115.897 85.3073 115.443 86.2125C114.984 87.1178 114.772 88.119 114.738 89.1119C114.709 90.1047 114.855 91.1059 115.184 92.0529C115.497 92.9457 115.985 93.8092 116.706 94.5059C116.706 94.51 116.706 94.51 116.706 94.5142C116.702 94.5601 116.677 94.6435 116.635 94.7311C116.552 94.9105 116.406 95.1108 116.243 95.2985C115.91 95.6781 115.493 96.0285 115.051 96.3373C114.197 96.9296 113.23 97.3927 112.242 97.6388C110.662 97.3551 109.149 96.6334 107.849 95.6531C106.511 94.6394 105.382 93.342 104.585 91.8694L104.44 91.5982L104.135 91.5481C101.981 91.2061 99.8132 91.1393 97.6668 91.1977C95.7037 91.2519 93.7573 91.4188 91.8192 91.6107C91.8025 91.473 91.7942 91.327 91.7859 91.1894C91.7734 90.8389 91.7817 90.4802 91.8067 90.1214C91.8692 89.4164 91.9901 88.6822 92.2985 88.0898L92.3027 88.0815L92.6111 87.6267H92.0484C91.2524 87.6309 90.4522 87.5183 89.6728 87.3389C88.8892 87.1595 88.1223 86.9092 87.3845 86.6047C86.6468 86.296 85.9341 85.933 85.2798 85.4992C84.8755 85.2322 84.4962 84.9318 84.1586 84.6064C84.7629 84.3478 85.3548 84.0766 85.9341 83.7679C86.3592 83.5426 86.7802 83.3007 87.1928 83.042C87.6013 82.7792 88.0056 82.508 88.3807 82.1576L88.389 82.1493L88.6808 81.9115L88.3682 81.6779C87.1095 80.7351 85.905 79.7422 84.8046 78.6409C83.7043 77.5396 82.7082 76.3423 81.8704 75.049C81.0327 73.7558 80.3533 72.3625 79.8823 70.9107C79.5656 69.9345 79.3488 68.925 79.2196 67.9071C79.5739 68.1699 79.9407 68.416 80.3075 68.6413C81.1202 69.1377 81.9413 69.5674 82.7415 70.018L82.7457 70.0221L84.192 70.9566L83.275 69.4798C82.3456 67.9863 81.5579 66.4136 81.1244 64.7491C80.7326 63.2807 80.6284 61.7538 80.6784 60.2145C81.8913 60.1978 83.0625 59.985 84.2045 59.7139C85.5424 59.3885 86.8344 58.9421 88.0973 58.4331C90.6189 57.4194 93.0279 56.1679 95.3411 54.7787C97.5626 53.4521 100.067 52.5761 102.622 52.1547C103.902 51.9587 105.202 51.8919 106.49 51.992C107.774 52.1047 109.045 52.3883 110.237 52.8973L110.675 53.085C110.675 53.085 111.429 51.5331 111.012 49.7602C111.825 50.048 113.13 50.7322 114.001 52.4384C114.843 54.0904 114.939 55.9844 114.939 55.9844C114.939 55.9844 117.093 53.2394 116.572 49.9688C117.823 50.3859 118.727 51.5665 119.144 52.6094C120.115 55.0374 119.386 57.6864 119.386 57.6864C119.386 57.6864 122.512 56.7144 123.17 52.6553C124.108 53.6983 124.541 55.6465 124.491 57.0273C124.387 59.9475 122.728 61.2073 122.728 61.2073L122.97 61.5578C123.449 62.2544 123.816 63.0637 124.1 63.8981C124.383 64.7366 124.591 65.6126 124.737 66.5012C124.883 67.3856 124.967 68.2867 124.979 69.1795C124.992 70.0221 124.946 70.8815 124.771 71.6574C124.2 72.3166 123.729 73.0091 123.299 73.7433C122.849 74.5318 122.441 75.3578 122.199 76.2964C122.086 76.7678 122.003 77.2767 122.091 77.8441C122.136 78.1236 122.232 78.424 122.407 78.6909L122.474 78.7911L122.545 78.8787C122.574 78.9162 122.628 78.9746 122.674 79.0288C122.77 79.1331 122.866 79.2249 122.974 79.3125C123.395 79.6671 123.937 79.8924 124.462 79.9675C124.987 80.0467 125.5 79.9967 125.954 79.9216L126.113 79.8966L126.296 79.7464C126.242 79.7923 126.309 79.738 126.379 79.7214C126.45 79.6963 126.546 79.6713 126.642 79.6504C126.838 79.6129 127.05 79.5879 127.267 79.5753C127.701 79.5545 128.151 79.5753 128.58 79.6421C129.009 79.7088 129.43 79.8215 129.772 79.9967C130.122 80.1719 130.36 80.4055 130.431 80.6433C130.451 80.7017 130.464 80.7768 130.464 80.8352L130.472 81.0146V81.1648C130.468 81.3942 130.456 81.6111 130.426 81.8281Z" fill="black"/>
<path d="M111.742 68.9542C113.93 68.0156 117.11 66.6097 120.561 71.0025C121.119 70.8315 121.953 69.8386 122.016 68.0906C121.745 68.7957 121.536 69.1586 121.253 69.4089C120.282 67.2605 117.581 65.8045 116.126 65.8755C114.743 66.1508 113.042 67.2313 111.742 68.9542Z" fill="black"/>
<path d="M120.561 63.6561C118.168 62.6966 113.563 62.2795 111.833 62.6841C110.241 63.7938 108.649 66.8433 108.303 68.0239C105.877 67.8862 101.03 68.8582 99.0209 69.6175C102.205 69.9971 105.948 71.2111 106.986 71.9745C103.522 71.7659 94.0278 72.6044 91.6813 82.8585C91.0061 80.1135 90.7977 76.409 91.1978 73.8476C93.0692 72.7379 99.0918 71.3529 100.963 71.282C99.0251 70.4518 94.9364 70.4518 93.2067 70.6562C95.9784 67.8153 101.934 66.2885 106.365 66.497C107.157 63.3224 109.757 60.811 110.729 60.5357C114.346 60.4356 117.747 61.4076 120.561 63.6561Z" fill="#332525"/>
<path d="M115.435 58.3873C112.313 58.0035 108.887 58.5625 107.782 58.8378C106.357 59.6722 104.773 62.4755 104.219 63.3766C103.039 63.4475 99.9258 63.8605 98.4712 64.624C99.4423 63.0971 101.243 62.6841 101.797 62.5465C102.472 60.2979 104.152 57.8324 105.052 57.2067C108.649 56.6518 112.179 57.069 115.435 58.3873Z" fill="#332525"/>
<path d="M104.131 53.6899C103.306 54.3574 102.56 55.5505 102.068 57.2067C103.252 56.122 106.477 54.3949 111.416 55.0958C109.341 54.1071 107.69 53.5648 104.131 53.6899Z" fill="#332525"/>
<path d="M118.69 80.222C119.552 78.1319 119.969 74.3983 119.398 72.5502C118.381 70.5436 115.476 70.1223 113.563 73.2219C112.196 75.437 112.729 79.0789 113.492 80.0176C114.743 79.7381 116.585 79.5378 118.69 80.222Z" fill="white"/>
<path d="M119.398 72.5544C119.948 74.3148 119.594 77.794 118.81 79.9258C118.61 80.0092 118.406 80.0592 118.194 80.0759C117.823 79.9758 117.464 79.9049 117.114 79.8548C116.001 79.275 115.305 77.6522 115.493 75.8333C115.714 73.6432 117.127 71.9912 118.644 72.1455C118.86 72.1664 119.065 72.2248 119.261 72.3124C119.311 72.3917 119.352 72.4709 119.398 72.5544Z" fill="black"/>
<path d="M119.598 72.4876L119.585 72.4543C119.344 71.8619 118.914 71.3196 118.335 70.9566C117.76 70.5895 117.043 70.4185 116.335 70.4852C115.626 70.5478 114.955 70.8398 114.396 71.2486C113.838 71.6575 113.388 72.1706 113.021 72.7212C112.25 73.8935 112.008 75.2618 112.029 76.5425C112.037 77.1891 112.121 77.8274 112.279 78.4573C112.363 78.7702 112.458 79.0831 112.592 79.3876C112.7 79.6296 112.821 79.8715 113.004 80.1093C113.279 79.9675 113.563 79.8465 113.859 79.7631L113.846 79.7381C113.663 79.3584 113.542 78.7702 113.484 78.2321C113.417 77.6814 113.409 77.1182 113.434 76.5634C113.467 76.0127 113.53 75.4621 113.667 74.9448C113.734 74.6861 113.805 74.4316 113.905 74.1939C113.955 74.077 114.009 73.9519 114.059 73.8559C114.08 73.8101 114.121 73.7391 114.159 73.6766L114.255 73.5097C114.817 72.6003 115.555 71.8118 116.518 71.5323C116.993 71.3946 117.522 71.403 118.01 71.5991C118.494 71.7951 118.923 72.1622 119.219 72.6378C119.523 73.4388 119.619 74.3482 119.665 75.2368C119.744 74.3357 119.794 73.4221 119.598 72.4876Z" fill="black"/>
<path d="M123.991 84.4103C123.991 84.6481 123.754 84.84 123.462 84.84C123.17 84.84 122.933 84.6481 122.933 84.4103C122.933 84.1725 123.17 83.9807 123.462 83.9807C123.754 83.9807 123.991 84.1725 123.991 84.4103Z" fill="#B7B7B7"/>
<path d="M124.579 85.6076C124.579 85.7703 124.428 85.9038 124.245 85.9038C124.062 85.9038 123.912 85.7703 123.912 85.6076C123.912 85.4449 124.062 85.3156 124.245 85.3156C124.428 85.3156 124.579 85.4449 124.579 85.6076Z" fill="#B7B7B7"/>
<path d="M125.32 84.6273C125.32 84.8108 125.137 84.961 124.908 84.961C124.679 84.961 124.495 84.8108 124.495 84.6273C124.495 84.4437 124.679 84.2935 124.908 84.2935C125.137 84.2935 125.32 84.4437 125.32 84.6273Z" fill="#B7B7B7"/>
<path d="M129.413 80.8728C129.355 81.1815 128.834 81.34 128.251 81.2274C127.667 81.1147 127.242 80.7768 127.3 80.4681C127.359 80.1594 127.88 80.0009 128.463 80.1135C129.047 80.222 129.472 80.5641 129.413 80.8728Z" fill="#F5F5F5"/>
<path d="M118.664 75.1241C118.193 75.9376 117.364 76.3423 116.814 76.021C116.268 75.704 116.205 74.7821 116.676 73.9686C117.151 73.1551 117.977 72.7504 118.527 73.0675C119.077 73.3887 119.139 74.3106 118.664 75.1241Z" fill="white"/>
<path d="M111.742 80.8436C113.567 80.3221 116.952 79.9592 120.353 81.194C118.252 79.4878 116.147 79.1498 114.451 79.3835C113.359 79.5336 112.259 80.1135 111.742 80.8436Z" fill="#E6E6E6"/>
<path d="M96.4242 73.9936C94.8487 74.4441 93.4567 74.7111 91.106 74.5192C91.131 74.2856 91.1601 74.0604 91.1935 73.8434C91.9895 73.3762 93.5317 72.8547 95.1863 72.4084C95.5656 72.9882 95.9866 73.5055 96.4242 73.9936Z" fill="#1A1313"/>
<path d="M94.0195 69.9262C94.0862 70.1473 94.1612 70.3642 94.2404 70.5728C93.8445 70.5937 93.4902 70.6229 93.2026 70.6562C93.4485 70.4018 93.7236 70.1598 94.0195 69.9262Z" fill="#1A1313"/>
<path d="M93.6361 78.0819C92.7942 79.3876 92.1148 80.9604 91.6814 82.8585C91.1979 80.8894 90.952 78.424 91.002 76.2422C91.8564 77.0223 92.7441 77.6146 93.6361 78.0819Z" fill="#1A1313"/>
<path d="M96.0451 63.6395C98.1791 61.7413 101.047 57.845 100.809 55.6298C100.63 53.9861 99.5712 53.6899 97.2705 52.2048C94.4864 50.4068 92.144 47.7411 90.4935 46.0265C88.5429 44.7291 86.5673 46.4938 85.1127 50.023C83.3205 54.3699 83.083 62.4922 88.3845 66.2801C90.406 67.0853 93.1318 66.2301 96.0451 63.6395Z" fill="#E6E6E6"/>
<path d="M89.6561 49.8186C91.515 53.9027 94.2158 56.0636 96.2372 57.87C96.5456 58.6167 93.6906 63.4309 90.448 63.5143C88.3474 61.587 87.5388 59.4302 87.3596 56.3807C87.1762 53.3395 88.5308 49.3722 89.6561 49.8186Z" fill="#DAB5B5"/>
<path d="M100.809 55.6298C100.621 55.0374 100.305 54.566 99.8462 54.2698C99.4003 53.9569 98.8584 53.7191 98.3333 53.448C97.7914 53.1893 97.2663 52.8931 96.7328 52.5928C96.1951 52.2716 95.6908 51.9211 95.2032 51.5457C93.2609 50.0397 91.573 48.2667 89.9266 46.573L90.06 46.6815C89.7224 46.4604 89.3931 46.3644 89.0722 46.402C88.7513 46.4354 88.4012 46.6064 88.0677 46.8817C87.4009 47.4366 86.8549 48.2876 86.3881 49.1636C86.1547 49.6058 85.9421 50.0689 85.7504 50.5403C85.5712 50.9909 85.4086 51.4789 85.2794 51.9629C85.0169 52.939 84.8376 53.9444 84.7376 54.9581C84.5417 56.9898 84.7084 59.0589 85.2878 60.9988C85.8588 62.9428 86.8632 64.7491 88.3845 66.2801C87.4092 65.8171 86.5423 65.1079 85.8254 64.261C85.1169 63.41 84.5584 62.4255 84.1666 61.3826C83.383 59.2925 83.1746 57.044 83.2913 54.8455C83.3539 53.7442 83.5164 52.6428 83.7915 51.5665C83.929 51.0242 84.0916 50.4986 84.2958 49.9563C84.4917 49.4432 84.7168 48.93 84.9668 48.4294C85.4712 47.4282 86.088 46.4437 87.0591 45.6344C87.5468 45.2422 88.1719 44.8918 88.9138 44.8167C89.6557 44.7333 90.3976 44.9961 90.9311 45.3674L91.0103 45.4216L91.0645 45.4759C91.8981 46.3561 92.6774 47.2405 93.4985 48.0832C94.3154 48.9259 95.1615 49.7393 96.0576 50.4777C96.5036 50.849 96.9579 51.2078 97.4163 51.5499C97.879 51.9086 98.3708 52.2298 98.8501 52.597C99.3336 52.9557 99.8337 53.3228 100.263 53.8234C100.471 54.0779 100.646 54.3741 100.734 54.6912C100.83 55.0082 100.842 55.3294 100.809 55.6298Z" fill="black"/>
<path d="M87.3551 56.3807C87.1842 55.1459 87.2342 53.8735 87.4426 52.6178C87.5509 51.9879 87.6968 51.3621 87.9386 50.7405C88.0636 50.4277 88.2053 50.1148 88.4387 49.8019C88.5596 49.6476 88.6971 49.4849 88.9305 49.343C89.0472 49.2721 89.189 49.2137 89.3598 49.1887C89.5307 49.1636 89.7224 49.1845 89.8808 49.2387H89.8849L90.1225 49.3263L90.2267 49.56C90.9061 51.1118 91.8064 52.5594 92.8942 53.8652C93.9779 55.1792 95.2615 56.3265 96.5619 57.507L96.6495 57.5863L96.687 57.6823V57.6864C96.7703 57.9492 96.7328 58.0786 96.7161 58.2037C96.6911 58.3289 96.662 58.4332 96.6245 58.5333C96.5536 58.7294 96.4703 58.9087 96.3786 59.0798C96.1993 59.4219 95.9951 59.7347 95.7784 60.0393C95.3449 60.6442 94.8573 61.199 94.3196 61.7038C93.7819 62.2044 93.1901 62.6508 92.5358 62.9887C91.8856 63.3224 91.1645 63.5393 90.4435 63.5185C91.1645 63.4601 91.8314 63.168 92.4149 62.7801C92.9984 62.3879 93.5152 61.8999 93.9695 61.37C94.4238 60.8361 94.8239 60.2562 95.1615 59.6513C95.3282 59.3468 95.4825 59.0381 95.6033 58.7294C95.6617 58.575 95.7159 58.4207 95.7492 58.2746C95.7659 58.2037 95.7784 58.1328 95.7784 58.0786C95.7867 58.0285 95.7617 57.9743 95.7825 58.0661L95.9076 58.2413C94.5947 57.1107 93.2235 55.951 92.0439 54.5952C90.8561 53.2477 89.8516 51.7209 89.0847 50.0856L89.4223 50.4068C89.464 50.4152 89.5307 50.3776 89.4807 50.3818C89.439 50.386 89.3515 50.4444 89.2681 50.5194C89.0972 50.678 88.9305 50.9116 88.7847 51.1535C88.4887 51.6458 88.2512 52.2048 88.0511 52.7763C87.6552 53.9194 87.3926 55.1375 87.3551 56.3807Z" fill="#D4D4D4"/>
</svg>
