<svg width="133" height="137" viewBox="0 0 133 137" fill="none" xmlns="http://www.w3.org/2000/svg">
<path d="M85.2333 94.2535C82.8846 93.9872 80.9058 97.0829 79.3677 102.804C77.8296 108.525 78.2037 121.187 81.9534 125.231C85.1834 127.253 93.9839 126.309 95.0398 123.987C95.7049 121.79 93.88 119.972 91.9303 119.14C89.9432 115.74 88.0851 111.334 88.3927 108.933C88.8541 101.523 89.6689 94.757 85.2333 94.2535Z" fill="#E6E6E6"/>
<path d="M95.0397 123.983C93.9838 126.305 85.1833 127.249 81.9533 125.227C80.0576 123.184 79.0225 118.94 78.665 114.5C82.4313 114.941 87.0831 114.163 89.1325 113.194C89.8101 115.149 90.8493 117.288 91.9302 119.135C93.884 119.968 95.7048 121.782 95.0397 123.983Z" fill="#EFEFEF"/>
<path d="M88.3598 109.466C88.3557 110.169 88.4928 111.001 88.7381 111.904C85.7201 112.844 82.8392 111.954 81.0767 110.169C82.7395 110.477 86.194 110.443 88.3598 109.466Z" fill="#1A1313"/>
<path d="M88.5297 106.778C88.4882 107.439 88.4383 108.109 88.4009 108.787C86.4429 108.991 84.8549 108.534 83.8281 107.639C85.2581 107.793 87.2535 107.36 88.5297 106.778Z" fill="#1A1313"/>
<path d="M88.6046 105.621C85.8859 106.299 81.4503 105.837 78.9312 104.909C79.0517 104.14 79.1972 103.428 79.3635 102.804C79.3759 102.758 79.3926 102.713 79.4009 102.667C82.0074 103.395 85.1335 103.362 86.6217 102.405C84.5265 101.951 83.0342 101.323 81.8868 99.958C82.9469 100.362 86.8919 100.112 88.6753 99.3464C88.8416 101.148 88.7501 103.299 88.6046 105.621Z" fill="#1A1313"/>
<path d="M95.6095 124.249L95.6261 124.216L95.6386 124.17C95.8215 123.575 95.8589 122.905 95.7217 122.281C95.5845 121.657 95.2894 121.095 94.9277 120.617C94.2418 119.73 93.348 119.102 92.3878 118.653C91.6146 117.184 90.8995 115.682 90.2885 114.151C89.9725 113.356 89.6815 112.557 89.4612 111.75C89.2367 110.951 89.0621 110.127 89.0663 109.374C89.112 108.55 89.1411 107.639 89.1785 106.773C89.2201 105.896 89.2409 105.013 89.245 104.131C89.2284 102.367 89.1328 100.561 88.6298 98.8429C88.5259 100.615 88.318 102.334 88.1392 104.073C87.9605 105.821 87.8108 107.531 87.6529 109.337C87.6238 110.339 87.8067 111.259 88.0353 112.149C88.2764 113.036 88.5716 113.889 88.9166 114.721C89.6025 116.381 90.4381 117.962 91.3942 119.464L91.5189 119.655L91.6894 119.722C92.5665 120.097 93.3813 120.667 93.9342 121.386C94.2085 121.748 94.4081 122.144 94.4996 122.556C94.5869 122.947 94.5661 123.35 94.458 123.75C94.3499 123.962 94.0838 124.199 93.7596 124.395C93.6931 124.133 93.5975 123.883 93.4728 123.662C93.2607 123.28 92.9822 122.955 92.6704 122.693C92.0552 122.164 91.2945 121.84 90.542 121.815C91.257 122.048 91.8307 122.543 92.209 123.117C92.5915 123.687 92.7536 124.382 92.5956 124.882C92.5915 124.894 92.5915 124.911 92.5915 124.923C92.3836 124.994 92.1757 125.06 91.9637 125.123C90.9037 125.418 89.7855 125.585 88.6714 125.664C87.5531 125.743 86.4266 125.73 85.3291 125.597C84.2732 125.464 83.2007 125.227 82.361 124.74C81.6626 123.9 81.1596 122.83 80.773 121.723C80.3822 120.583 80.1037 119.385 79.8709 118.183C79.4178 115.761 79.264 113.273 79.2224 110.793C79.2141 108.317 79.3263 105.812 79.8252 103.424C80.0995 102.234 80.4196 101.015 80.7605 99.829C81.1097 98.6349 81.488 97.4574 81.9951 96.2882C81.1138 97.2119 80.4695 98.3561 79.9416 99.517C79.4136 100.69 79.0021 101.889 78.6653 103.141C78.0459 105.675 77.8381 108.234 77.809 110.793C77.7757 113.352 77.9919 115.915 78.4492 118.453C78.682 119.722 79.0062 120.983 79.4718 122.21C79.9374 123.429 80.5277 124.657 81.5005 125.668L81.5711 125.739L81.6293 125.772C82.7767 126.458 83.9905 126.696 85.1836 126.854C86.3808 126.995 87.5739 127.008 88.7628 126.924C89.9517 126.837 91.1323 126.667 92.3046 126.342C92.8908 126.176 93.4686 125.976 94.0423 125.689C94.3291 125.539 94.6118 125.377 94.8862 125.152C95.1481 124.923 95.4224 124.644 95.6095 124.249Z" fill="black"/>
<path d="M47.417 97.6779C47.4212 94.5573 48.6059 92.3728 51.4119 91.9401C54.0225 91.5407 56.363 94.4366 57.4355 96.9456C58.508 99.4546 60.3122 105.492 60.5657 108.862C60.6738 112.228 59.9172 114.546 58.9445 120.533C60.254 124.058 59.0318 127.79 53.823 126.962C48.6142 126.134 44.399 121.245 44.7024 118.054C45.1763 115.877 47.6373 113.431 48.5435 108.255C48.4646 104.514 47.4128 100.491 47.417 97.6779Z" fill="#E6E6E6"/>
<path d="M55.8722 94.3076C56.3877 94.9609 56.8367 95.6848 57.1859 96.4005C55.8556 97.3076 53.7688 98.4144 51.6611 97.5031C52.9872 97.2119 54.9161 95.7223 55.8722 94.3076Z" fill="#1A1313"/>
<path d="M57.7096 97.6196C58.1004 98.639 58.5577 99.9955 58.9858 101.464C57.0985 102.534 53.8935 103.595 50.7466 101.905C51.7318 102.267 55.7059 100.079 57.7096 97.6196Z" fill="#1A1313"/>
<path d="M48.3188 105.301C50.5637 106.441 56.4459 106.47 59.7133 104.136C60.1415 105.871 60.4658 107.564 60.5655 108.862C60.5988 109.952 60.5447 110.93 60.42 111.958C56.9031 114.18 53.6856 113.165 51.657 111.18C54.3466 111.721 56.7161 110.772 57.7138 109.178C54.4339 110.685 50.1854 108.7 48.4934 107.185C48.456 106.557 48.3937 105.929 48.3188 105.301Z" fill="#1A1313"/>
<path d="M60.1876 113.581C59.8883 115.357 59.4476 117.463 58.9446 120.533C60.2541 124.058 59.0319 127.79 53.8232 126.962C48.6144 126.13 44.3991 121.245 44.7068 118.054C45.0892 116.302 46.7603 114.367 47.8703 110.98C49.7742 113.09 55.7562 115.848 60.1876 113.581Z" fill="#EFEFEF"/>
<path d="M55.4482 93.8083C56.0759 94.8028 56.5789 95.8263 56.9572 96.8874C57.323 97.9525 57.6306 99.0718 57.9549 100.17C58.5909 102.38 59.1563 104.622 59.5512 106.865C59.6468 107.423 59.7299 107.984 59.7798 108.534L59.8089 108.912L59.8131 109.332C59.8172 109.611 59.8131 109.89 59.8006 110.169C59.7632 111.284 59.6011 112.399 59.4223 113.535C59.0399 115.798 58.62 118.112 58.3248 120.425L58.2999 120.612L58.354 120.75V120.754C58.6657 121.64 58.8195 122.585 58.7322 123.467C58.6532 124.349 58.2957 125.148 57.6639 125.639C57.4893 125.78 57.2939 125.893 57.0861 125.988C57.0861 125.972 57.0902 125.955 57.0944 125.938C57.1318 125.501 57.0819 125.077 56.978 124.678C56.766 123.891 56.3211 123.188 55.7142 122.735C56.1715 123.334 56.371 124.07 56.3627 124.761C56.3586 125.364 56.1632 125.955 55.8389 126.309C55.6519 126.325 55.4606 126.338 55.2653 126.338C54.359 126.334 53.4154 126.159 52.5216 125.88C50.7299 125.31 49.0713 124.249 47.741 122.884C47.08 122.202 46.4981 121.44 46.0657 120.617C45.6459 119.818 45.3756 118.94 45.4297 118.158C45.5876 117.467 45.9743 116.718 46.3692 115.965C46.7766 115.195 47.2047 114.4 47.583 113.572C48.3479 111.925 48.9008 110.156 49.1918 108.359L49.2043 108.284L49.2001 108.226C49.1211 105.904 48.7137 103.657 48.3646 101.439C48.2024 100.328 48.0071 99.2341 47.8823 98.1481C47.7535 97.0579 47.6994 95.9761 47.8408 94.8319C47.2214 95.8139 47.0011 97.0247 46.9512 98.1814C46.9179 99.3464 47.0343 100.491 47.1923 101.61C47.4916 103.823 47.8324 106.012 47.8699 108.176C47.5539 109.836 47.0302 111.438 46.3027 112.961C45.9369 113.735 45.5211 114.488 45.0971 115.266C44.6814 116.048 44.2158 116.847 43.9705 117.875L43.9623 117.916L43.9581 117.966C43.85 119.223 44.2532 120.338 44.7521 121.311C45.2675 122.289 45.9327 123.155 46.681 123.925C48.1816 125.456 50.0232 126.642 52.0768 127.295C53.1036 127.619 54.1636 127.807 55.2736 127.79C56.3669 127.773 57.5766 127.515 58.5369 126.725C59.0108 126.338 59.389 125.826 59.6385 125.277C59.8879 124.728 60.0209 124.145 60.0625 123.571C60.1415 122.481 59.9295 121.436 59.5761 120.467L60.2246 117.209C60.4574 116.073 60.6944 114.937 60.8981 113.776C61.1059 112.619 61.2639 111.425 61.3054 110.215C61.3179 109.911 61.3221 109.611 61.3179 109.307L61.3054 108.858L61.293 108.708L61.2805 108.596L61.2556 108.367C61.1891 107.76 61.0893 107.173 60.977 106.586C60.7567 105.417 60.4699 104.277 60.1498 103.141C59.8255 102.009 59.4971 100.886 59.0939 99.7833C58.8985 99.2299 58.6907 98.6807 58.4537 98.1397C58.2292 97.5988 57.9798 97.0579 57.6888 96.5295C57.1234 95.4935 56.3752 94.5365 55.4482 93.8083Z" fill="black"/>
<path d="M49.3248 76.2329C48.3811 74.8598 46.7765 75.1719 43.7086 76.7197C38.2337 79.4867 33.1621 79.2204 25.6296 74.7225C18.1677 71.2482 5.58846 76.8113 4.62819 86.6017C4.41202 92.6724 11.7991 93.904 12.934 91.5365C14.6716 87.9166 20.4333 80.4312 26.4111 83.3604C34.1598 87.1551 39.4019 86.6267 45.4587 82.7322C49.6698 80.0234 50.4887 77.9305 49.3248 76.2329Z" fill="#E6E6E6"/>
<path d="M49.3247 76.2329C50.4886 77.9305 49.6739 80.0276 45.4628 82.7321C40.9233 85.6489 36.8411 86.6808 31.8193 85.4117C35.3404 83.6891 36.3339 80.7474 35.9972 78.4881C38.6743 78.642 41.1519 78.0179 43.7126 76.7197C46.7764 75.1719 48.381 74.8557 49.3247 76.2329Z" fill="#D4D4D4"/>
<path d="M34.2885 78.2842C35.9388 78.5755 37.4936 78.5796 39.0192 78.3216C37.8012 80.4645 38.404 84.0511 38.9319 85.6114C37.8428 85.8528 36.7412 85.961 35.5938 85.9402C34.8081 83.8181 34.7998 81.5089 35.016 80.7765C34.1222 81.3715 33.9019 82.0248 33.6151 82.9277C33.0455 81.563 33.5859 79.3577 34.2885 78.2842Z" fill="#332525"/>
<path d="M38.0886 78.4465C38.0345 78.4506 37.9763 78.4589 37.9181 78.4631C37.6437 78.4881 37.3694 78.5006 37.095 78.5047C37.0243 78.5047 36.9578 78.5089 36.8872 78.5089C36.6128 78.5089 36.3384 78.5047 36.0599 78.4922C36.0391 78.4922 36.0183 78.4922 35.9975 78.4922C36.1971 79.832 35.9269 81.4132 34.9375 82.8362C35.0082 83.7724 35.2077 84.8791 35.6026 85.9443C35.6567 85.9443 35.7065 85.9443 35.7606 85.9443C35.9809 85.9485 36.1971 85.9443 36.4174 85.936C36.4922 85.9318 36.5629 85.9277 36.6377 85.9235C36.8456 85.911 37.0493 85.9027 37.2571 85.8819C37.3278 85.8777 37.3985 85.8652 37.4692 85.8569C37.6812 85.832 37.8932 85.807 38.1052 85.7737C38.1426 85.7696 38.18 85.7612 38.2174 85.7529C38.4627 85.7113 38.7038 85.6697 38.9449 85.6156C38.417 84.0553 37.8142 80.4645 39.0322 78.3258C39.0239 78.3258 39.0156 78.33 39.0114 78.33C38.9407 78.3424 38.8742 78.3508 38.8077 78.3591C38.5624 78.3924 38.3255 78.4215 38.0886 78.4465Z" fill="#1A1313"/>
<path d="M27.9906 76.0332C29.3666 76.7364 30.6594 77.2856 31.8899 77.6809C29.1504 79.9236 29.6992 83.4187 30.5264 85.0456C29.4705 84.7086 28.3689 84.2758 27.2216 83.7391C24.9934 80.3688 26.8058 77.3647 27.9906 76.0332Z" fill="#332525"/>
<path d="M21.9509 73.7489C20.8451 78.1677 22.8987 81.4631 24.6322 82.7821C23.4931 82.5907 22.3791 82.7321 21.3107 83.1066C18.6252 80.8473 18.6543 78.0554 18.8705 76.9819C17.5361 78.3633 17.6857 80.3147 17.9476 81.0595C15.2539 79.3577 15.3162 76.1122 15.8026 74.4188C17.852 73.7946 19.9638 73.5533 21.9509 73.7489Z" fill="#332525"/>
<path d="M10.3527 77.14C9.52128 82.3993 14.119 85.8611 16.6132 86.3521C14.9213 88.0996 13.6201 90.1135 12.9384 91.5365C11.7994 93.904 4.41642 92.6724 4.63258 86.6017C5.01503 82.6572 7.28894 79.3951 10.3527 77.14Z" fill="#332525"/>
<path d="M43.7045 84.4839C38.0842 87.4422 32.9959 87.28 26.1368 83.9222C24.341 83.0401 22.4079 83.1316 20.3959 84.1926C16.9664 85.9984 14.3848 89.9637 13.4994 91.807C13.2915 92.2397 12.9299 92.6017 12.4476 92.8555C11.0093 93.6128 8.67719 93.3548 6.90213 92.2355C4.94832 91.0081 3.92154 88.9984 4.00468 86.5809C4.46611 81.8584 7.49244 77.7183 12.3105 75.1802C16.8791 72.7752 22.0837 72.38 25.8915 74.1566L25.9497 74.1858C33.0042 78.3966 37.9054 78.9541 43.426 76.1622C46.0075 74.8557 48.4435 73.8529 49.832 75.8792C50.3558 76.6407 50.5345 77.4562 50.3641 78.305C50.0523 79.8653 48.5558 81.4839 45.7913 83.2606C45.0722 83.7224 44.3904 84.126 43.7045 84.4839ZM19.8139 83.09C22.2001 81.8334 24.5114 81.7377 26.6855 82.8029C33.1414 85.9651 37.9054 86.1316 43.1225 83.3812C43.7627 83.0442 44.4361 82.6489 45.1179 82.2079C47.5456 80.6476 48.9008 79.2495 49.1419 78.0554C49.2458 77.5436 49.1336 77.0651 48.8052 76.5866C48.2274 75.7461 47.292 75.6088 43.9872 77.2773C38.1091 80.2481 32.7049 79.6656 25.3345 75.2759C21.8717 73.6781 17.1077 74.0651 12.8883 76.287C8.44856 78.6254 5.66334 82.4076 5.24763 86.6641C5.15618 89.2647 6.66103 90.6128 7.56311 91.1787C9.15526 92.1814 10.9677 92.2189 11.8615 91.7487C12.1068 91.6197 12.2772 91.4575 12.3687 91.2661C13.6948 88.5199 16.5839 84.7876 19.8139 83.09Z" fill="black"/>
<path d="M97.2513 79.3743C95.1977 75.6421 89.6979 74.8598 85.7986 75.6962C81.8993 76.5325 76.3372 77.2357 72.4795 77.0942C62.3612 74.2315 55.2402 73.2038 49.1418 74.6185C43.7044 76.1788 38.5372 81.0512 37.6891 88.1454C37.2817 96.8333 42.3616 104.215 54.3963 106.291C69.2702 107.031 81.7164 103.961 88.8042 99.6793C97.9331 94.1703 101.313 86.7598 97.2513 79.3743Z" fill="#E6E6E6"/>
<path d="M97.2472 79.3744C101.313 86.7599 97.9372 94.1662 88.8042 99.6793C81.7164 103.961 69.2702 107.031 54.3963 106.291C42.3575 104.215 37.2817 96.8333 37.6891 88.1413C38.2254 83.6517 40.4951 80.0484 43.4674 77.6226C42.9021 82.1663 46.897 88.6863 58.6739 88.4908C72.1843 88.2702 79.2887 82.004 76.7862 76.9777C79.8624 76.7489 83.2005 76.2496 85.7945 75.6962C89.698 74.864 95.1978 75.6462 97.2472 79.3744Z" fill="#D4D4D4"/>
<path d="M98.922 84.7626C99.3211 90.2674 95.7044 95.5143 88.8037 99.6793C81.716 103.961 69.2698 107.031 54.3958 106.291C48.2767 105.234 43.9575 102.808 41.2388 99.5336C46.1358 101.901 54.4873 102.696 64.3644 102.151C73.6887 101.635 82.7303 99.0759 89.128 94.9401C93.0481 92.4019 95.1391 89.5975 96.9225 86.0816C97.4421 85.0622 98.286 84.5088 98.922 84.7626Z" fill="#EFEFEF"/>
<path d="M72.4791 77.0942C73.88 77.1483 75.5096 77.09 77.2015 76.9486C74.7572 79.2453 73.111 83.2606 72.6246 87.0927C71.9428 88.8569 71.0117 91.1911 70.5003 92.9179C69.723 89.6225 69.3904 86.1274 69.9558 83.2606C68.9456 83.9305 67.129 86.6517 66.4264 88.0039C65.2001 83.893 65.9442 79.6947 67.9479 78.0429C67.3826 79.3202 67.2869 81.8209 67.5322 82.6448C68.6214 80.3646 70.5752 78.1594 72.1133 76.9943C72.2338 77.0276 72.3544 77.0609 72.4791 77.0942Z" fill="#332525"/>
<path d="M66.3847 75.5214C64.8799 76.8362 63.1339 79.9693 62.2609 83.402C60.9348 86.273 60.2946 87.4838 59.2179 91.1787C58.7648 87.2758 58.4946 82.9527 59.2263 80.7308C57.8336 82.1496 56.3537 83.8805 55.7177 85.8902C55.5223 81.5962 57.8918 77.1525 62.8429 74.7891C63.9778 74.993 65.1584 75.2343 66.3847 75.5214Z" fill="#332525"/>
<path d="M59.5219 74.2856C56.5828 75.4465 53.7436 78.9707 52.247 82.8195C51.8687 80.6143 52.2429 78.1677 53.7394 76.0873C51.2826 76.9278 49.1292 79.0831 48.0609 80.789C46.8969 82.6489 46.2235 84.6212 45.6664 86.8722C45.3089 84.3174 45.3131 81.4048 46.3606 78.5755C47.4456 76.4409 49.7819 75.0512 51.9893 74.1483H51.9935C54.3048 73.8987 56.7824 73.9528 59.5219 74.2856Z" fill="#332525"/>
<path d="M72.9946 85.0289C72.8366 85.7155 72.7119 86.4103 72.6246 87.0927C71.9428 88.8569 71.0117 91.1911 70.5003 92.9179C70.0098 90.8291 69.6939 88.6655 69.6772 86.6267C70.9285 86.1607 72.0384 85.6198 72.9946 85.0289Z" fill="#1A1313"/>
<path d="M66.6798 87.5338C66.58 87.7002 66.4927 87.8583 66.4221 87.9998C66.3846 87.8708 66.3472 87.7501 66.314 87.6211C66.4387 87.5962 66.5592 87.567 66.6798 87.5338Z" fill="#1A1313"/>
<path d="M58.9478 88.4907C59.3344 88.4824 59.7126 88.4699 60.0868 88.4491C59.8124 89.2106 59.5339 90.0843 59.2179 91.1745C59.114 90.2966 59.0226 89.3895 58.9478 88.4907Z" fill="#1A1313"/>
<path d="M46.2895 84.6919C46.0567 85.3909 45.8572 86.1149 45.6701 86.868C45.5329 85.8902 45.4498 84.8667 45.4581 83.8098C45.7075 84.1094 45.986 84.409 46.2895 84.6919Z" fill="#1A1313"/>
<path d="M62.7437 106.936C60.0001 107.061 57.1816 107.056 54.3631 106.915L54.2883 106.907C42.873 104.939 36.5959 98.0898 37.0656 88.1163L37.0698 88.0705C38.0384 79.9444 44.0869 75.4215 48.9672 74.0193C50.4596 73.6698 51.9603 73.4701 53.5774 73.3952C58.462 73.1705 64.1446 74.0901 72.5751 76.4742C73.3816 76.5034 74.292 76.4909 75.2855 76.4451C78.4532 76.2995 82.4315 75.7794 85.6657 75.0845C86.4223 74.9222 87.2246 74.8224 88.0393 74.7849C91.5271 74.6268 95.917 75.667 97.7918 79.0706C101.97 86.66 98.8103 94.3659 89.1243 100.208C82.8513 104.002 73.2361 106.453 62.7437 106.936ZM54.4629 105.671C57.2273 105.808 59.9917 105.812 62.6855 105.692C72.9784 105.222 82.3816 102.833 88.4842 99.1467C97.5174 93.696 100.515 86.5976 96.7026 79.6781C95.1063 76.7738 91.2112 75.8917 88.0975 76.0332C87.3493 76.0665 86.6176 76.158 85.9276 76.3078C82.6269 77.0151 78.5737 77.5477 75.3396 77.6934C74.2837 77.7433 73.3109 77.7516 72.4546 77.7183L72.3091 77.6934C64.0864 75.3674 58.3289 74.4271 53.6356 74.6393C52.0933 74.71 50.6716 74.9014 49.2832 75.2218C44.8019 76.5075 39.219 80.685 38.3127 88.1912C37.8846 97.449 43.7709 103.815 54.4629 105.671Z" fill="black"/>
<path d="M78.2788 93.5337C75.5019 93.2715 73.519 96.0385 71.5859 101.635C68.6012 110.289 68.8506 123.317 72.3342 127.078C74.5874 129.001 84.8345 128.289 85.6285 126.4C86.3268 124.328 85.0091 122.46 83.2132 121.54C81.5462 116.576 80.586 112.965 80.7814 109.378C81.4423 103.728 83.949 94.0663 78.2788 93.5337Z" fill="#E6E6E6"/>
<path d="M85.6285 126.4C84.8345 128.293 74.5874 129.001 72.3342 127.078C68.8506 123.317 68.6012 110.289 71.5859 101.635C73.5148 96.0385 75.5019 93.2757 78.2788 93.5337C79.21 93.6211 79.9167 93.9539 80.4529 94.474C78.4285 94.7903 75.9301 97.7486 74.7412 103.607C73.1365 111.538 78.1499 116.094 81.0973 113.959C81.5005 116.202 82.228 118.636 83.2049 121.532C85.0091 122.46 86.3268 124.324 85.6285 126.4Z" fill="#D4D4D4"/>
<path d="M85.6281 126.4C84.8341 128.293 74.587 129.001 72.3338 127.078C70.592 125.198 69.665 121.008 69.5361 116.202C73.7431 117.33 79.4715 116.905 81.5168 115.907C81.9283 117.613 82.5061 119.456 83.2045 121.54C85.0087 122.46 86.3265 124.324 85.6281 126.4Z" fill="white"/>
<path d="M80.8059 111.654C80.8641 112.515 80.9888 113.402 81.1676 114.321C77.1851 115.141 73.7099 113.46 71.9473 110.939C73.9011 111.712 78.3325 112.565 80.8059 111.654Z" fill="#332525"/>
<path d="M80.7764 109.378C80.7431 109.99 80.7473 110.606 80.7764 111.221C78.3071 111.092 76.4531 110.206 75.4263 108.937C76.9852 109.432 79.3089 109.42 80.8138 109.087C80.7972 109.187 80.7889 109.282 80.7764 109.378Z" fill="#332525"/>
<path d="M81.8202 101.477C81.6539 103.645 81.2589 105.941 80.968 107.93C77.8834 107.997 73.1901 106.511 70.6377 104.98C70.8248 104.165 71.0368 103.37 71.2737 102.604C74.0174 104.052 77.6007 104.81 79.4631 104.127C77.264 103.174 75.7633 102.184 74.7823 100.499C75.7841 101.119 79.6128 101.714 81.8202 101.477Z" fill="#332525"/>
<path d="M74.6867 103.932C74.5079 104.901 74.4289 105.825 74.4372 106.682C72.9906 106.183 71.6479 105.588 70.6377 104.984C70.8248 104.169 71.0368 103.374 71.2737 102.609C72.3338 103.166 73.5185 103.624 74.6867 103.932Z" fill="#1A1313"/>
<path d="M81.1011 113.963C81.1219 114.084 81.1427 114.201 81.1676 114.321C77.1851 115.141 73.7099 113.46 71.9473 110.939C72.8369 111.296 74.2503 111.667 75.751 111.871C77.1727 114.267 79.459 115.153 81.1011 113.963Z" fill="#1A1313"/>
<path d="M75.4811 100.803C75.4271 100.961 75.3772 101.127 75.3232 101.298C75.1278 101.052 74.9448 100.786 74.7827 100.507C74.9448 100.607 75.186 100.707 75.4811 100.803Z" fill="#1A1313"/>
<path d="M86.2894 126.625C86.4723 126.067 86.5471 125.456 86.4806 124.861C86.4182 124.262 86.2187 123.692 85.9318 123.192C85.3956 122.273 84.6058 121.586 83.7328 121.103C83.1924 119.239 82.6436 117.384 82.2154 115.524C81.7665 113.589 81.463 111.642 81.5088 109.703L81.5171 109.52L81.5212 109.436L81.5254 109.391L81.5669 109.016L81.6542 108.271L81.8455 106.765C81.9827 105.758 82.099 104.747 82.1905 103.724C82.2695 102.7 82.3111 101.668 82.2695 100.632C82.2196 99.6002 82.0991 98.5558 81.7831 97.5739C81.7041 99.6252 81.3425 101.581 81.0016 103.57L80.482 106.557L80.2284 108.063L80.1078 108.825L80.0538 109.203L80.0455 109.253L80.0372 109.353L80.033 109.453L80.0205 109.653C79.9166 111.779 80.2284 113.884 80.7272 115.894C80.9767 116.901 81.2676 117.887 81.5919 118.861C81.9161 119.834 82.2487 120.8 82.6187 121.748L82.7226 122.011L82.9305 122.11C83.7037 122.526 84.373 123.142 84.7637 123.87C85.1586 124.582 85.2335 125.389 84.9757 126.138C84.9674 126.155 84.8344 126.292 84.6556 126.388C84.585 126.076 84.4686 125.789 84.3231 125.539C84.0986 125.16 83.8118 124.848 83.4958 124.59C82.8639 124.078 82.0949 123.775 81.3466 123.771C82.0658 123.983 82.6519 124.465 83.0469 125.027C83.4418 125.585 83.6247 126.275 83.4792 126.779C83.475 126.795 83.475 126.816 83.4709 126.833C83.1217 126.929 82.7642 127.016 82.3984 127.083C81.305 127.278 80.1785 127.386 79.0561 127.44C77.9295 127.486 76.7988 127.465 75.7014 127.345C75.1526 127.282 74.6081 127.195 74.0967 127.062C73.6145 126.937 73.1281 126.746 72.8538 126.525C72.1097 125.685 71.6233 124.486 71.2658 123.284C70.9083 122.044 70.663 120.746 70.5092 119.435C70.1933 116.809 70.1891 114.134 70.3637 111.475C70.5466 108.816 70.954 106.17 71.6233 103.599C71.9475 102.317 72.3549 101.044 72.754 99.7666C73.1697 98.4934 73.6104 97.2369 74.1799 95.9969C73.2445 96.9955 72.5462 98.2063 71.9476 99.4338C71.6441 100.05 71.378 100.678 71.1244 101.314C70.8625 101.943 70.6505 102.613 70.451 103.266C69.6736 105.908 69.2247 108.629 68.9794 111.363C68.7341 114.097 68.73 116.859 69.0251 119.61C69.1789 120.987 69.4076 122.364 69.8067 123.721C70.0062 124.399 70.2473 125.073 70.5591 125.73C70.8709 126.388 71.2533 127.037 71.7854 127.615L71.8228 127.653L71.8519 127.678C72.4879 128.189 73.1157 128.372 73.7268 128.543C74.3378 128.701 74.9406 128.797 75.5434 128.863C76.7448 128.992 77.9378 129.009 79.1268 128.959C80.3157 128.909 81.5004 128.784 82.6852 128.539C83.2755 128.414 83.87 128.268 84.4686 128.048C84.7679 127.936 85.0672 127.807 85.3748 127.624C85.67 127.432 86.0275 127.224 86.2769 126.679L86.2852 126.662L86.2894 126.625Z" fill="black"/>
<path d="M41.8672 93.9747C42.2122 91.0788 43.5591 88.6655 46.3817 88.3867C48.7928 88.1495 50.9586 90.3631 52.1309 93.7209C53.033 96.2965 54.1388 104.676 53.59 108.908C52.6048 114.446 48.0362 121.07 47.2048 122.572C47.9157 125.252 46.7517 129.504 41.7133 127.944C36.6708 126.388 32.1937 121.166 32.6177 117.305C32.547 116.343 39.2856 110.726 41.0191 104.735C42.2912 99.1134 41.5346 96.7667 41.8672 93.9747Z" fill="#E6E6E6"/>
<path d="M46.382 88.3867C48.7889 88.1454 50.9589 90.3673 52.1312 93.7209C53.0332 96.2965 54.1432 104.676 53.5903 108.908C52.6092 114.446 48.0365 121.066 47.2051 122.572C47.9159 125.252 46.7519 129.504 41.7094 127.944C36.6669 126.388 32.1898 121.166 32.6138 117.305C32.5556 116.472 37.5773 112.166 40.0633 107.144C43.2517 113.88 48.7349 103.228 48.1155 97.2035C47.6457 92.6516 45.1598 90.5753 43.1395 90.2716C43.8753 89.2314 44.9353 88.5323 46.382 88.3867Z" fill="#D4D4D4"/>
<path d="M52.1434 93.7584C52.3554 94.37 52.5757 95.302 52.7836 96.4213C51.1 96.8707 48.7803 97.1204 46.918 95.714C48.3688 95.8222 50.4639 94.8652 52.1434 93.7584Z" fill="#1A1313"/>
<path d="M53.0498 97.9983C53.2576 99.3422 53.4364 100.84 53.5611 102.326C51.1999 102.866 47.3962 102.987 44.5361 100.137C45.4424 100.819 50.0983 99.8499 53.0498 97.9983Z" fill="#1A1313"/>
<path d="M53.7232 105.326C53.7523 106.665 53.719 107.905 53.586 108.908C53.2908 110.56 52.6839 112.307 51.9439 113.988C47.3504 115.361 44.1495 113.214 42.5781 110.377C45.2927 111.829 48.1361 111.575 49.7033 110.198C45.9827 110.706 42.3079 107.693 40.7573 105.529C40.8529 105.267 40.9361 105.001 41.0192 104.735C41.1273 104.252 41.2229 103.798 41.3019 103.366C43.7587 105.221 49.7573 106.861 53.7232 105.326Z" fill="#1A1313"/>
<path d="M47.8577 95.6516C47.9118 95.8721 47.9575 96.0968 47.9949 96.334C47.6249 96.18 47.2591 95.972 46.9141 95.7098C47.2051 95.7306 47.5252 95.714 47.8577 95.6516Z" fill="#332525"/>
<path d="M44.54 100.137C44.9932 100.478 46.3816 100.407 48.032 100.02C47.9364 100.699 47.795 101.398 47.6121 102.084C46.5396 101.701 45.4837 101.086 44.54 100.137Z" fill="#332525"/>
<path d="M41.3019 103.366C42.4243 104.21 44.2784 105.013 46.3486 105.488C45.6876 106.84 44.8936 107.972 44.0622 108.646C42.6446 107.714 41.4765 106.532 40.7573 105.529C40.8529 105.267 40.9361 105.001 41.0192 104.735C41.1273 104.252 41.2229 103.798 41.3019 103.366Z" fill="#332525"/>
<path d="M51.1374 115.711C49.5369 118.944 47.7037 121.669 47.209 122.568C47.9198 125.248 46.7558 129.5 41.7133 127.94C36.6708 126.384 32.1937 121.162 32.6177 117.3C32.5678 116.593 36.2094 113.36 38.8242 109.316C40.1919 111.896 45.9826 117.113 51.1374 115.711Z" fill="white"/>
<path d="M49.9691 89.9554C50.7673 91.187 51.2994 92.5018 51.6777 93.8624C52.0227 95.1939 52.2264 96.6419 52.4384 98.0566C52.6338 99.4796 52.7835 100.915 52.8791 102.351C52.9788 103.786 53.0454 105.222 53.0121 106.64C52.9955 107.348 52.9539 108.055 52.8666 108.737L52.8625 108.787V108.792L52.8583 108.825L52.8333 108.958L52.7835 109.212L52.6671 109.715C52.5839 110.052 52.4883 110.389 52.3844 110.726C51.9687 112.066 51.4241 113.381 50.8255 114.675C50.2144 115.965 49.5535 117.234 48.8509 118.486C48.1484 119.751 47.4001 120.937 46.6643 122.26L46.5396 122.485L46.6061 122.73C46.8223 123.612 46.8098 124.594 46.5479 125.447C46.2943 126.309 45.758 127.012 45.0098 127.328C44.9973 127.332 44.9849 127.336 44.9724 127.345C44.9765 127.282 44.9807 127.216 44.9807 127.153C44.9765 126.712 44.8851 126.296 44.7437 125.913C44.4528 125.152 43.9456 124.495 43.2971 124.103C43.8126 124.657 44.0786 125.372 44.1368 126.059C44.1867 126.621 44.0703 127.187 43.8167 127.569C43.3636 127.578 42.8939 127.515 42.4283 127.399C41.5054 127.166 40.6075 126.783 39.747 126.317C38.0343 125.385 36.492 124.083 35.2781 122.543C34.6754 121.773 34.1599 120.937 33.7941 120.055C33.4324 119.177 33.2287 118.245 33.3243 117.375V117.367C33.3368 117.342 33.3576 117.305 33.3867 117.263C33.4449 117.167 33.528 117.055 33.6112 116.947C33.7816 116.726 33.9728 116.497 34.1641 116.273L35.3446 114.904C36.1386 113.984 36.9285 113.04 37.6768 112.062C39.165 110.102 40.5451 107.997 41.3848 105.588C41.4389 105.438 41.4846 105.284 41.5303 105.134L41.5969 104.905L41.655 104.643L41.8379 103.732C41.9502 103.124 42.05 102.509 42.1289 101.893C42.2869 100.661 42.3576 99.413 42.3493 98.173C42.3493 96.9331 42.237 95.7265 42.2454 94.5489C42.2537 93.3673 42.3701 92.1898 42.7068 90.9998C41.9544 91.99 41.5719 93.2466 41.3932 94.4865C41.2269 95.7431 41.2684 96.9747 41.2518 98.1689C41.2393 99.3672 41.152 100.553 40.9816 101.735C40.8985 102.326 40.7945 102.912 40.674 103.499L40.4828 104.377L40.4412 104.56L40.3788 104.768C40.3331 104.905 40.2874 105.043 40.2375 105.18C39.4393 107.369 38.0966 109.366 36.6292 111.234C35.8892 112.17 35.1035 113.077 34.3054 113.976C33.9063 114.429 33.4948 114.875 33.0957 115.341C32.8962 115.574 32.6925 115.811 32.4929 116.073C32.3931 116.206 32.2934 116.339 32.1895 116.497C32.1396 116.576 32.0855 116.668 32.0356 116.776C31.9899 116.893 31.9068 117.013 31.9151 117.35L31.9192 117.217C31.7904 118.42 32.0647 119.572 32.4846 120.604C32.9086 121.64 33.4948 122.576 34.1599 123.434C35.5026 125.139 37.1737 126.554 39.0652 127.59C40.013 128.102 41.0273 128.514 42.0998 128.772C43.1724 129.022 44.4029 129.101 45.5544 128.585C46.1239 128.335 46.631 127.923 47.0093 127.436C47.3918 126.949 47.6495 126.392 47.8117 125.826C48.0985 124.777 48.1068 123.708 47.874 122.672C48.1982 122.148 48.5682 121.603 48.9049 121.058C49.2915 120.442 49.6781 119.818 50.0523 119.189C50.8006 117.929 51.5197 116.643 52.1516 115.307C52.7918 113.976 53.3655 112.599 53.7978 111.159C53.9059 110.797 54.0057 110.435 54.0971 110.065L54.2218 109.507L54.28 109.224L54.305 109.091L54.3216 108.983L54.3299 108.912C54.4214 108.151 54.4463 107.398 54.4546 106.653C54.4588 103.674 54.1345 100.757 53.6565 97.8527C53.5359 97.1287 53.3987 96.4047 53.2283 95.6849C53.062 94.9609 52.8625 94.2494 52.5756 93.5296C51.9812 92.169 51.1497 90.8458 49.9691 89.9554ZM33.3077 117.392C33.3035 117.404 33.3035 117.4 33.3077 117.392Z" fill="black"/>
<path d="M102.265 65.552C104.588 64.0874 107.864 60.8711 107.889 58.7823C107.906 57.2303 106.896 56.8018 104.796 55.0958C102.261 53.032 100.257 50.2193 98.831 48.3927C97.0559 46.9073 94.9067 48.272 93.061 51.3469C90.7912 55.1333 89.6148 62.6519 94.4037 66.9251C96.3076 67.957 99.0929 67.5492 102.265 65.552Z" fill="#E6E6E6"/>
<path d="M107.889 58.7823C107.806 58.4869 107.711 58.2164 107.565 57.9918C107.424 57.7629 107.241 57.584 107.037 57.4134C106.626 57.0847 106.131 56.7934 105.645 56.4731C105.158 56.1527 104.672 55.8115 104.206 55.437C103.732 55.0542 103.283 54.6548 102.851 54.2387C101.986 53.4065 101.184 52.5203 100.419 51.6132C99.6542 50.7103 98.935 49.7741 98.2242 48.867L98.3364 48.9835C97.7295 48.4801 97.1018 48.4468 96.3826 48.8421C95.6759 49.2332 95.0232 49.928 94.4579 50.677C94.1752 51.0556 93.9092 51.4592 93.6639 51.8712C93.4311 52.2706 93.2149 52.6992 93.0237 53.1361C92.6495 54.014 92.3503 54.9377 92.1341 55.8781C91.7101 57.7629 91.6352 59.7352 92.0218 61.6117C92.3752 63.5007 93.1692 65.2732 94.408 66.9209C92.6038 65.8849 91.3359 63.9543 90.7997 61.8946C90.2717 59.8184 90.3091 57.6506 90.6957 55.5785C90.8911 54.5383 91.1904 53.5147 91.6061 52.5286C91.814 52.0334 92.0426 51.5549 92.317 51.0764C92.5831 50.6187 92.8699 50.1694 93.1858 49.7325C93.8218 48.867 94.5576 48.0182 95.6385 47.4357C96.1747 47.1528 96.8316 46.9489 97.5299 47.0113C98.2242 47.0654 98.8643 47.3899 99.3341 47.7935L99.4006 47.8518L99.4463 47.91C100.17 48.8462 100.851 49.7782 101.558 50.6853C102.269 51.5882 103.009 52.4662 103.799 53.2775C104.194 53.6853 104.605 54.0764 105.029 54.4426C105.457 54.817 105.898 55.1915 106.335 55.5868C106.551 55.7865 106.771 55.9904 106.979 56.2109C107.191 56.4314 107.403 56.6644 107.582 56.9391C107.765 57.2095 107.906 57.5258 107.96 57.8461C108.01 58.1748 107.972 58.4911 107.889 58.7823Z" fill="black"/>
<path d="M109.523 55.7782C109.178 54.7962 108.205 53.5147 106.787 52.8198C110.737 53.1652 113.056 55.2456 114.249 58.1415C114.199 56.0445 112.674 53.3025 111.497 52.4037C113.983 52.6534 118.531 55.3496 118.947 60.1221C119.915 58.0875 119.882 55.6284 119.258 53.7893C123.071 56.2858 123.865 61 122.584 64.3662C124.575 67.2288 125.07 72.5838 124.451 75.072C123.208 76.4409 120.967 80.0526 122.089 81.5463C122.958 82.6656 124.205 82.5407 124.949 82.4201C125.573 81.796 130.05 81.796 130.175 83.9138C130.3 86.0317 129.181 88.1454 128.059 88.6447C127.56 91.008 123.935 93.1384 122.584 93.0011C120.718 92.6266 117.733 91.0081 116.864 87.5213C113.505 89.2647 113.755 94.99 116.365 97.2327C116.964 98.2937 114.125 100.719 111.389 101.339C108.172 100.819 104.921 98.4768 103.179 95.2396C98.8723 94.5489 94.1083 94.9941 90.4917 95.3645C90.2839 94.5489 90.4917 92.1273 91.24 91.0081C88.2552 91.1329 84.0192 89.5975 82.3023 87.4713C84.2936 86.8472 86.5134 85.7779 87.3822 85.0289C84.6469 83.0359 78.1577 78.1635 77.6797 69.5922C78.9642 70.9861 80.4815 71.7933 82.1568 72.8293C79.7915 69.2177 79.1721 66.4799 79.2968 62.7434C82.6016 62.8932 87.9019 61.1207 94.2247 57.3884C98.2986 54.9918 104.671 53.4107 109.523 55.7782Z" fill="#E6E6E6"/>
<path d="M126.072 84.7709C125.082 83.8015 124.924 83.4644 124.945 82.4201C125.569 81.7959 130.046 81.7959 130.17 83.9138C130.295 86.0275 129.177 88.1454 128.055 88.6447C126.886 88.1787 127.552 86.3854 126.508 85.1912C126.346 85.0372 126.201 84.8999 126.072 84.7709Z" fill="black"/>
<path d="M126.508 85.1912C127.526 86.3105 126.836 87.9998 128.054 88.6447C127.56 91.0081 123.935 93.1384 122.584 93.0011C120.717 92.6266 117.732 91.0081 116.859 87.5213C113.505 89.2647 113.75 94.9941 116.365 97.2327C116.963 98.2937 114.124 100.719 111.389 101.344C108.171 100.823 104.92 98.4768 103.179 95.2396C102.742 95.1689 102.297 95.1107 101.853 95.0649C101.192 90.0885 105.423 87.4589 107.373 87.0553C105.856 86.7099 104.06 86.298 102.264 86.8514C106.13 82.0789 112.071 83.0484 113.455 83.1857C116.149 82.5616 120.568 83.7391 122.089 84.5671C123.116 84.513 124.916 84.4589 126.072 84.771C126.2 84.8999 126.346 85.0373 126.508 85.1912Z" fill="#F5F5F5"/>
<path d="M94.2245 57.3926C97.309 55.5701 101.711 54.2262 105.773 54.7047C101.549 55.05 95.3801 57.946 93.5178 64.7656C91.6804 71.4937 93.4471 74.7184 95.5963 77.1108C93.655 77.6642 91.9921 77.943 88.4587 77.4229C91.6804 81.7918 95.9414 82.4159 98.7848 83.0733C96.7728 84.8084 93.4139 86.1607 91.8882 86.5768C93.9667 88.2411 95.9413 88.9693 98.2277 89.3146C97.3963 90.5629 96.357 91.1537 95.4217 91.8818C96.752 93.0094 98.3815 94.033 100.614 94.9567C97.0554 94.7237 93.4014 95.0691 90.4915 95.3645C90.2836 94.5531 90.4915 92.1273 91.2397 91.0081C88.255 91.1329 84.0189 89.5975 82.3021 87.4713C84.2933 86.8514 86.5131 85.7779 87.382 85.0331C84.6466 83.0401 78.1575 78.1677 77.6836 69.5964C78.9681 70.9861 80.4813 71.7974 82.1607 72.8335C79.7954 69.2219 79.176 66.484 79.3007 62.7476C82.6055 62.8974 87.9058 61.1249 94.2245 57.3926Z" fill="#D4D4D4"/>
<path d="M130.803 84.0803L130.794 83.9013C130.786 83.7183 130.757 83.556 130.703 83.3854C130.599 83.0484 130.395 82.7488 130.167 82.5241C129.934 82.2994 129.68 82.133 129.423 81.9998C128.907 81.7419 128.383 81.6087 127.864 81.5255C127.344 81.4464 126.824 81.4173 126.296 81.4464C126.035 81.4631 125.769 81.488 125.49 81.5421C125.353 81.5713 125.211 81.6045 125.058 81.6586C124.95 81.7044 124.841 81.7418 124.708 81.8251C123.977 81.9374 123.332 81.8584 122.879 81.4672C122.817 81.4173 122.759 81.3591 122.705 81.3008C122.68 81.2758 122.659 81.255 122.622 81.2051L122.597 81.1718L122.593 81.1635L122.568 81.126C122.505 81.0303 122.46 80.9055 122.435 80.7599C122.385 80.4645 122.43 80.09 122.522 79.7197C122.713 78.9707 123.075 78.2135 123.486 77.4978C123.902 76.7863 124.388 76.0831 124.916 75.4881L125.024 75.3674L125.058 75.2218C125.295 74.2274 125.336 73.2621 125.324 72.3009C125.307 71.3397 125.22 70.3911 125.066 69.4466C124.912 68.502 124.692 67.57 124.38 66.6546C124.11 65.8641 123.769 65.0902 123.316 64.3578C124.143 62.0403 123.935 59.473 123.312 57.6714C122.455 55.1915 120.784 53.3025 117.978 52.0542C118.843 53.8226 119.362 56.4938 119.088 59.0569C118.81 57.4966 118.602 56.2484 116.594 54.272C114.723 52.4329 112.021 51.8462 110.221 51.8795C111.676 52.9197 113.131 54.6173 113.755 56.8018C111.747 52.9863 108.799 52.3996 105.823 52.6076C105.823 52.6076 107.727 53.4731 109.086 55.1749C108.035 54.688 106.904 54.3635 105.752 54.2095C104.385 54.014 102.992 54.0389 101.629 54.2137C100.265 54.3843 98.9223 54.7047 97.6253 55.1541C96.3283 55.6034 95.0687 56.1651 93.8798 56.86C91.5934 58.1831 89.2405 59.394 86.8087 60.3759C85.5906 60.8627 84.3518 61.2871 83.1005 61.6159C81.8493 61.9362 80.5689 62.1609 79.3301 62.1193L78.6899 62.0985L78.6775 62.7226V62.7268C78.6525 64.5409 78.8105 66.4091 79.3717 68.1733C79.7334 69.3384 80.2488 70.4327 80.8474 71.4687C80.5897 71.294 80.332 71.1192 80.0867 70.9361C79.3592 70.4036 78.6982 69.8252 78.1412 69.1595L77.0146 67.8197L77.0604 69.6213V69.6296C77.1768 71.2565 77.5176 72.8668 78.0747 74.3938C78.6276 75.9208 79.3925 77.3646 80.3153 78.6836C81.2382 80.0068 82.3107 81.2093 83.4789 82.2994C84.5389 83.2897 85.6821 84.1801 86.8544 85.0123C86.5842 85.1787 86.3015 85.3368 86.0105 85.4783C85.5948 85.678 85.1708 85.8611 84.7426 86.0275C83.8821 86.3604 83.0008 86.6475 82.1153 86.8722L81.234 87.0927L81.8202 87.8583L81.8285 87.8708C82.4437 88.5698 83.1671 89.0857 83.9153 89.5143C84.6678 89.9429 85.4534 90.2799 86.2558 90.5504C87.0581 90.8208 87.8812 91.0289 88.7167 91.162C89.3735 91.266 90.0345 91.3243 90.7038 91.316C90.5957 91.5157 90.5043 91.7196 90.4253 91.9276C90.2839 92.2979 90.1717 92.6766 90.0844 93.0594C89.9971 93.4422 89.9264 93.8291 89.8849 94.2244C89.8516 94.6322 89.8059 95.0066 89.8932 95.5142L89.9722 95.9969L90.5583 95.9803H90.5708C92.6742 95.7639 94.7694 95.5767 96.8604 95.5184C98.8516 95.4643 100.843 95.5267 102.792 95.8097C103.661 97.3284 104.842 98.6557 106.23 99.7084C107.706 100.819 109.427 101.647 111.289 101.951L111.41 101.972L111.526 101.943C112.753 101.656 113.867 101.115 114.877 100.42C115.38 100.066 115.862 99.6709 116.295 99.1841C116.511 98.9386 116.714 98.6682 116.877 98.327C116.956 98.1522 117.03 97.9608 117.059 97.7195C117.089 97.4865 117.055 97.1828 116.91 96.9248L116.856 96.8333L116.773 96.7583L116.764 96.75C116.153 96.2424 115.684 95.5184 115.372 94.7279C115.06 93.9331 114.898 93.0677 114.894 92.2064C114.89 91.3451 115.043 90.4755 115.397 89.7099C115.675 89.1024 116.091 88.5698 116.615 88.1745C116.777 88.6946 116.993 89.2023 117.267 89.6808C117.633 90.3215 118.095 90.9082 118.623 91.42C119.155 91.9318 119.753 92.3687 120.402 92.7223C121.05 93.076 121.736 93.3548 122.48 93.517L122.505 93.5212H122.53C122.971 93.5587 123.312 93.4713 123.644 93.3797C123.973 93.284 124.284 93.1592 124.584 93.0219C125.178 92.7431 125.735 92.4019 126.259 92.0108C126.783 91.6155 127.273 91.1703 127.697 90.6461C128.063 90.1925 128.383 89.6641 128.575 89.0566C129.032 88.7779 129.352 88.4117 129.622 88.0414C129.938 87.5962 130.175 87.1177 130.362 86.6225C130.545 86.1274 130.674 85.6114 130.745 85.0872C130.778 84.825 130.799 84.5588 130.799 84.2925L130.803 84.0803ZM129.514 84.9249C129.46 85.3535 129.352 85.7779 129.202 86.1856C129.053 86.5934 128.853 86.9804 128.616 87.3216C128.379 87.6586 128.08 87.954 127.814 88.0747L127.81 88.0788L127.506 88.2453L127.452 88.5199C127.361 88.99 127.103 89.4727 126.77 89.9096C126.434 90.3465 126.018 90.7501 125.569 91.1079C125.12 91.4658 124.625 91.782 124.118 92.0399C123.865 92.1689 123.603 92.2771 123.345 92.3603C123.1 92.4394 122.838 92.4935 122.663 92.4852C122.056 92.3645 121.449 92.144 120.88 91.8527C120.302 91.5531 119.757 91.1787 119.275 90.7418C118.311 89.8638 117.608 88.7113 117.271 87.4381V87.4297L117.147 86.9346L116.681 87.1634C115.758 87.6128 115.023 88.4075 114.569 89.3104C114.112 90.2133 113.9 91.2119 113.867 92.2022C113.838 93.1925 113.983 94.1911 114.312 95.1356C114.623 96.026 115.11 96.8873 115.829 97.5822C115.829 97.5864 115.829 97.5863 115.829 97.5905C115.825 97.6363 115.8 97.7195 115.758 97.8069C115.675 97.9858 115.53 98.1855 115.368 98.3727C115.035 98.7514 114.619 99.1009 114.179 99.4088C113.326 99.9997 112.362 100.462 111.377 100.707C109.801 100.424 108.292 99.7042 106.995 98.7264C105.661 97.7153 104.534 96.4213 103.74 94.9525L103.595 94.6779L103.291 94.628C101.142 94.2868 98.9805 94.2202 96.8396 94.2785C94.8816 94.3326 92.9403 94.499 91.0073 94.6904C90.9906 94.5531 90.9823 94.4075 90.974 94.2702C90.9615 93.9206 90.9698 93.5628 90.9948 93.205C91.0571 92.4976 91.1777 91.7695 91.4853 91.1787L91.4895 91.1703L91.7971 90.7168H91.2359C90.4419 90.721 89.6437 90.6086 88.8664 90.4297C88.0848 90.2508 87.32 90.0011 86.5842 89.6974C85.8484 89.3895 85.1375 89.0275 84.4849 88.5948C84.0816 88.3285 83.7033 88.0289 83.3666 87.7043C83.9694 87.4464 84.5597 87.1759 85.1375 86.8722C85.5615 86.6475 85.9814 86.4062 86.393 86.1482C86.8003 85.8861 87.2036 85.6156 87.5777 85.2661L87.586 85.2578L87.877 85.0248L87.5652 84.7918C86.3098 83.8514 85.1084 82.8611 84.0109 81.7627C82.9135 80.6642 81.92 79.47 81.0844 78.1802C80.2488 76.8903 79.5712 75.5006 79.1015 74.0526C78.7855 73.079 78.5694 72.0721 78.4405 71.0568C78.7939 71.3189 79.1597 71.5644 79.5255 71.7891C80.3361 72.2843 81.155 72.7128 81.9532 73.1622L81.9574 73.1664L83.3999 74.0984L82.4853 72.6254C81.5583 71.1359 80.7726 69.5672 80.3403 67.907C79.9495 66.4424 79.8456 64.9196 79.8955 63.3842C81.1052 63.3676 82.2733 63.1554 83.4123 62.8849C84.7467 62.5604 86.0354 62.1151 87.295 61.6075C89.81 60.5964 92.2128 59.3482 94.52 57.9626C96.7357 56.6395 99.2341 55.7657 101.782 55.3455C103.059 55.1499 104.356 55.0833 105.64 55.1832C106.92 55.2955 108.188 55.5785 109.377 56.0861L109.814 56.2733C109.814 56.2733 109.702 54.7962 108.454 53.4772C111.593 54.3052 113.443 56.9099 114.374 59.3024C114.374 59.3024 115.106 56.0112 113.027 53.3399C114.794 54.1721 118.223 55.9405 118.568 60.9917C119.782 59.6852 120.339 57.2594 120.235 55.3871C121.379 56.6353 122.106 58.1291 122.385 59.4772C122.938 62.1817 121.84 64.3745 121.84 64.3745L122.081 64.724C122.559 65.4189 122.925 66.2219 123.208 67.0582C123.49 67.8946 123.698 68.7683 123.844 69.6546C123.989 70.5367 124.072 71.4354 124.085 72.3259C124.097 73.1664 124.052 74.0235 123.877 74.7974C123.308 75.4548 122.838 76.1455 122.41 76.8778C121.961 77.6642 121.553 78.4881 121.312 79.4243C121.2 79.8944 121.117 80.4021 121.204 80.9679C121.25 81.2467 121.345 81.5463 121.52 81.8126L121.587 81.9125L121.657 81.9998C121.686 82.0373 121.74 82.0955 121.786 82.1496C121.882 82.2536 121.977 82.3452 122.085 82.4326C122.505 82.7862 123.046 83.0109 123.569 83.0858C124.093 83.1649 124.605 83.1149 125.058 83.04L125.216 83.0151L125.399 82.8653C125.345 82.911 125.411 82.857 125.482 82.8403C125.552 82.8153 125.648 82.7904 125.744 82.7696C125.939 82.7321 126.151 82.7072 126.367 82.6947C126.799 82.6739 127.248 82.6947 127.677 82.7613C128.105 82.8278 128.525 82.9402 128.866 83.1149C129.215 83.2897 129.452 83.5227 129.522 83.7599C129.543 83.8181 129.556 83.893 129.556 83.9513L129.564 84.1302V84.28C129.556 84.4922 129.539 84.7127 129.514 84.9249Z" fill="black"/>
<path d="M110.874 72.0845C113.056 71.1484 116.228 69.7461 119.67 74.1275C120.227 73.9569 121.058 72.9666 121.121 71.2233C120.85 71.9264 120.643 72.2926 120.36 72.5381C119.391 70.3952 116.698 68.9431 115.247 69.0138C113.871 69.2885 112.175 70.3661 110.874 72.0845Z" fill="black"/>
<path d="M119.67 66.8003C117.284 65.8433 112.69 65.4272 110.965 65.8308C109.377 66.9376 107.789 69.9792 107.444 71.1567C105.025 71.0194 100.19 71.9847 98.1866 72.7461C101.363 73.1248 105.096 74.3356 106.131 75.097C102.676 74.889 93.2064 75.7253 90.866 85.9526C90.1925 83.2148 89.9847 79.5241 90.3838 76.9652C92.2503 75.8584 98.2572 74.477 100.124 74.4063C98.1907 73.5783 94.1127 73.5783 92.3875 73.7822C95.1519 70.9486 101.092 69.4258 105.511 69.6338C106.301 66.4674 108.895 63.9626 109.864 63.688C113.472 63.5881 116.868 64.5617 119.67 66.8003Z" fill="#332525"/>
<path d="M114.561 61.5451C111.448 61.1623 108.031 61.7199 106.929 61.9945C105.507 62.8267 103.928 65.6227 103.375 66.5215C102.198 66.5922 99.0929 67.0041 97.6421 67.7656C98.6107 66.2427 100.407 65.8308 100.959 65.6893C101.633 63.4466 103.308 60.9876 104.206 60.3634C107.789 59.8142 111.315 60.2303 114.561 61.5451Z" fill="#332525"/>
<path d="M103.287 56.8642C102.464 57.5299 101.72 58.7199 101.229 60.3718C102.41 59.2899 105.628 57.5674 110.554 58.2664C108.484 57.2803 106.833 56.7352 103.287 56.8642Z" fill="#332525"/>
<path d="M117.808 83.323C118.668 81.2384 119.084 77.5144 118.514 75.6712C117.5 73.6698 114.603 73.2496 112.695 76.3411C111.331 78.5505 111.863 82.1829 112.624 83.1191C113.871 82.8403 115.708 82.6406 117.808 83.323Z" fill="white"/>
<path d="M118.51 75.6754C119.059 77.4312 118.706 80.9014 117.924 83.0276C117.725 83.1108 117.521 83.1607 117.309 83.1774C116.939 83.0775 116.582 83.0068 116.232 82.9568C115.122 82.3785 114.428 80.7599 114.615 78.9458C114.836 76.7613 116.245 75.1136 117.758 75.2676C117.974 75.2884 118.178 75.3467 118.373 75.434C118.423 75.5131 118.469 75.5921 118.51 75.6754Z" fill="black"/>
<path d="M118.71 75.6129L118.698 75.5797C118.457 74.9888 118.028 74.4479 117.451 74.0901C116.877 73.7239 116.162 73.5533 115.455 73.6199C114.748 73.6823 114.079 73.9736 113.522 74.3813C112.965 74.7891 112.516 75.3009 112.15 75.8501C111.381 77.0193 111.14 78.3841 111.161 79.6614C111.169 80.3064 111.252 80.943 111.41 81.5713C111.493 81.8833 111.589 82.1954 111.722 82.4991C111.83 82.7405 111.951 82.9818 112.134 83.219C112.408 83.0775 112.691 82.9568 112.986 82.8736L112.973 82.8487C112.79 82.47 112.67 81.8833 112.612 81.3466C112.545 80.7974 112.537 80.2356 112.562 79.6822C112.595 79.1289 112.657 78.5838 112.795 78.0678C112.861 77.8099 112.932 77.5561 113.032 77.3189C113.081 77.1982 113.135 77.0776 113.185 76.9819C113.206 76.9361 113.248 76.8654 113.285 76.8029L113.381 76.6365C113.942 75.7294 114.678 74.943 115.638 74.6643C116.112 74.527 116.64 74.5353 117.126 74.7308C117.608 74.9222 118.037 75.2926 118.332 75.7627C118.635 76.5616 118.731 77.4687 118.777 78.3549C118.86 77.4562 118.91 76.5408 118.71 75.6129Z" fill="black"/>
<path d="M123.095 87.5046C123.095 87.7418 122.858 87.9332 122.568 87.9332C122.277 87.9332 122.04 87.7418 122.04 87.5046C122.04 87.2675 122.277 87.0761 122.568 87.0761C122.858 87.0761 123.095 87.2675 123.095 87.5046Z" fill="#B7B7B7"/>
<path d="M123.35 88.9859C123.533 88.9859 123.682 88.8555 123.682 88.6946C123.682 88.5338 123.533 88.4034 123.35 88.4034C123.166 88.4034 123.017 88.5338 123.017 88.6946C123.017 88.8555 123.166 88.9859 123.35 88.9859Z" fill="#B7B7B7"/>
<path d="M124.422 87.7168C124.422 87.8999 124.239 88.0497 124.01 88.0497C123.782 88.0497 123.599 87.8999 123.599 87.7168C123.599 87.5338 123.782 87.384 124.01 87.384C124.239 87.384 124.422 87.5338 124.422 87.7168Z" fill="#B7B7B7"/>
<path d="M128.504 83.9721C128.445 84.28 127.926 84.4381 127.344 84.3257C126.762 84.2134 126.338 83.8764 126.396 83.5685C126.454 83.2606 126.974 83.1025 127.556 83.2148C128.138 83.323 128.562 83.6642 128.504 83.9721Z" fill="#F5F5F5"/>
<path d="M117.783 78.2384C117.313 79.0498 116.486 79.4534 115.937 79.133C115.392 78.8168 115.33 77.8972 115.8 77.0859C116.274 76.2745 117.097 75.8709 117.646 76.1871C118.194 76.5075 118.252 77.4271 117.783 78.2384Z" fill="white"/>
<path d="M110.874 83.9429C112.694 83.4228 116.07 83.0608 119.462 84.2925C117.367 82.5907 115.268 82.2536 113.576 82.4867C112.491 82.6364 111.393 83.2148 110.874 83.9429Z" fill="#E6E6E6"/>
<path d="M95.5964 77.1108C94.025 77.5602 92.6366 77.8265 90.292 77.6351C90.3169 77.4021 90.346 77.1774 90.3793 76.9611C91.1733 76.495 92.7114 75.9749 94.3618 75.5297C94.74 76.1081 95.1599 76.624 95.5964 77.1108Z" fill="#1A1313"/>
<path d="M93.1976 73.054C93.2641 73.2745 93.3389 73.4909 93.4179 73.6989C93.023 73.7197 92.6696 73.7489 92.3828 73.7822C92.6281 73.5284 92.9025 73.287 93.1976 73.054Z" fill="#1A1313"/>
<path d="M92.8153 81.1885C91.9755 82.4908 91.2979 84.0594 90.8656 85.9526C90.3834 83.9887 90.1381 81.5297 90.188 79.3535C91.0402 80.1316 91.9256 80.7224 92.8153 81.1885Z" fill="#1A1313"/>
<path d="M95.2184 66.7795C97.4133 64.9612 100.406 61.179 100.253 58.9654C100.132 57.3219 99.0886 56.989 96.8479 55.4245C94.1375 53.5355 91.8969 50.7935 90.3131 49.0251C88.4133 47.6604 86.3847 49.3497 84.805 52.8198C82.8636 57.0847 82.3357 65.1775 87.4863 69.1387C89.4775 70.0124 92.2253 69.2552 95.2184 66.7795Z" fill="#E6E6E6"/>
<path d="M89.3402 52.7699C91.0488 56.9099 93.6635 59.1568 95.6132 61.0292C95.8959 61.7823 92.8737 66.484 89.6395 66.4508C87.6109 64.4536 86.8875 62.2774 86.8169 59.2275C86.7462 56.1943 88.2386 52.2872 89.3402 52.7699Z" fill="#DAB5B5"/>
<path d="M100.253 58.9654C100.086 58.3704 99.7912 57.8877 99.3422 57.5757C98.9099 57.247 98.3778 56.9932 97.8623 56.7019C97.3344 56.4273 96.8189 56.1111 96.2993 55.7907C95.7755 55.4536 95.285 55.0875 94.811 54.6964C92.9279 53.1277 91.3108 51.297 89.727 49.5494L89.8558 49.6617C89.5274 49.4287 89.2032 49.3206 88.8831 49.3455C88.563 49.3663 88.2055 49.5244 87.8646 49.7866C87.1787 50.315 86.6092 51.1472 86.1103 52.0001C85.8651 52.4329 85.6364 52.8864 85.4286 53.3524C85.2332 53.7935 85.0586 54.272 84.909 54.7505C84.6138 55.7116 84.3976 56.7102 84.2605 57.7171C83.9902 59.7352 84.0859 61.8031 84.593 63.7587C85.0919 65.7185 86.0313 67.5534 87.4905 69.1303C86.5343 68.631 85.6946 67.8946 85.0129 67.025C84.3353 66.1512 83.8156 65.1484 83.4623 64.0999C82.7556 61.9903 82.6267 59.7393 82.8221 57.5549C82.9219 56.4564 83.1214 55.3704 83.4373 54.3053C83.5953 53.7685 83.7741 53.2484 83.9986 52.72C84.2147 52.2123 84.4558 51.713 84.7219 51.2221C85.2623 50.2443 85.9108 49.2831 86.9085 48.5092C87.4073 48.1347 88.0434 47.806 88.7875 47.7602C89.5316 47.7061 90.2591 47.9933 90.7787 48.3802L90.8577 48.4385L90.9076 48.4967C91.7057 49.4038 92.454 50.315 93.2438 51.1846C94.0295 52.0542 94.8443 52.8906 95.709 53.6603C96.1371 54.0473 96.5819 54.4217 97.0267 54.7796C97.4757 55.1541 97.9579 55.4911 98.4194 55.8739C98.885 56.2484 99.3755 56.6353 99.787 57.1471C99.9824 57.4092 100.153 57.7088 100.228 58.0292C100.294 58.3454 100.298 58.6617 100.253 58.9654Z" fill="black"/>
<path d="M86.8172 59.2317C86.6925 57.9959 86.7882 56.7268 87.0376 55.4828C87.1706 54.8586 87.3369 54.2428 87.5988 53.627C87.736 53.3191 87.8856 53.0154 88.1267 52.7075C88.2514 52.5577 88.3969 52.3996 88.6339 52.2664C88.7503 52.1999 88.8958 52.1458 89.0704 52.125C89.2408 52.1042 89.432 52.1333 89.5859 52.1957H89.59L89.8228 52.2914L89.9184 52.5286C90.542 54.0972 91.3858 55.5743 92.4251 56.9141C93.4602 58.2622 94.6949 59.448 95.9545 60.6755L96.0417 60.7587L96.075 60.8544V60.8586C96.1498 61.1207 96.1041 61.2497 96.0833 61.3745C96.0542 61.4952 96.021 61.5992 95.9794 61.6991C95.9004 61.8946 95.8131 62.0652 95.7175 62.2358C95.5263 62.5687 95.3143 62.8766 95.0856 63.172C94.6325 63.7587 94.1253 64.2954 93.5725 64.7781C93.0196 65.2566 92.4126 65.681 91.7517 65.9931C91.0907 66.3051 90.3632 66.4924 89.644 66.4466C90.3632 66.4133 91.0408 66.147 91.6353 65.7808C92.2339 65.4105 92.7618 64.9445 93.2357 64.4286C93.7096 63.9126 94.1295 63.3509 94.487 62.7601C94.6658 62.4647 94.8279 62.1609 94.9568 61.853C95.0233 61.6991 95.0773 61.5493 95.1189 61.4036C95.1397 61.3329 95.1521 61.2622 95.1563 61.2081C95.1688 61.1582 95.1397 61.1041 95.1605 61.1956L95.281 61.3745C94.0131 60.2012 92.687 58.9987 91.5605 57.6048C90.4256 56.2192 89.4778 54.6589 88.7711 53.0029L89.0953 53.3358C89.1369 53.3441 89.2076 53.3108 89.1535 53.315C89.1119 53.3191 89.0205 53.3732 88.9374 53.4439C88.7628 53.5979 88.5882 53.8226 88.4343 54.0598C88.1226 54.5424 87.8648 55.0916 87.6445 55.6534C87.2039 56.7893 86.9004 57.9917 86.8172 59.2317Z" fill="#D4D4D4"/>
</svg>
