<svg width="132" height="137" viewBox="0 0 132 137" fill="none" xmlns="http://www.w3.org/2000/svg">
<path d="M81.5014 86.0482C80.2563 88.1311 82.3074 91.2938 86.9895 95.1565C91.6717 99.0191 103.65 104.043 109.014 102.25C112.272 100.09 115.125 91.4602 113.402 89.4883C111.633 87.9347 109.168 88.8695 107.56 90.342C103.548 90.7603 98.6437 90.6237 96.5372 89.3219C89.821 85.7494 83.8553 82.1173 81.5014 86.0482Z" fill="#E6E6E6"/>
<path d="M113.407 89.4884C115.126 91.4603 112.277 100.09 109.015 102.25C106.307 103.155 101.906 102.323 97.6123 100.778C99.625 97.4443 100.866 92.7663 100.832 90.4359C102.943 90.6322 105.382 90.5682 107.565 90.342C109.168 88.8695 111.633 87.9348 113.407 89.4884Z" fill="#EFEFEF"/>
<path d="M97.0238 89.578C97.6762 89.881 98.512 90.103 99.4586 90.2609C99.0578 93.4834 97.0024 95.7967 94.5889 96.6888C95.5824 95.2589 97.0195 92.0151 97.0238 89.578Z" fill="#1A1313"/>
<path d="M94.5891 88.2762C95.1904 88.5963 95.7917 88.925 96.41 89.2494C95.7703 91.1658 94.6659 92.4547 93.3994 93.0352C94.1457 91.7676 94.5891 89.7188 94.5891 88.2762Z" fill="#1A1313"/>
<path d="M93.5396 87.7171C93.0194 90.5469 90.7039 94.4949 88.7722 96.4583C88.1027 96.0186 87.5015 95.5833 86.9898 95.1608C86.9514 95.1309 86.913 95.0968 86.8789 95.0669C88.6656 92.9371 89.9577 90.0006 89.6976 88.2079C88.3842 89.975 87.1646 91.1061 85.4077 91.5969C86.235 90.7774 87.6763 86.983 87.7147 84.9897C89.4673 85.6001 91.4374 86.5988 93.5396 87.7171Z" fill="#1A1313"/>
<path d="M113.893 89.0701L113.867 89.0403L113.829 89.0061C113.351 88.5835 112.741 88.2635 112.102 88.1312C111.462 87.9946 110.81 88.033 110.213 88.1695C109.091 88.4342 108.128 89.0061 107.305 89.7146C105.603 89.8128 103.897 89.8427 102.213 89.7658C101.339 89.7232 100.469 89.6549 99.6246 89.5183C98.7803 89.3903 97.9402 89.2025 97.2409 88.8781C96.4904 88.4854 95.6503 88.0714 94.8614 87.6659C94.0597 87.2561 93.2453 86.8635 92.4223 86.4836C90.772 85.7495 89.045 85.0751 87.2284 84.8148C88.8403 85.6642 90.3541 86.5903 91.902 87.4909C93.4585 88.3958 94.9893 89.2664 96.6055 90.1756C97.5308 90.628 98.4647 90.8457 99.3901 91.0122C100.32 91.1615 101.241 91.2469 102.162 91.281C104.004 91.3451 105.829 91.2341 107.637 90.9737L107.867 90.9396L108.004 90.8072C108.725 90.1499 109.603 89.625 110.511 89.4116C110.963 89.3092 111.42 89.2878 111.842 89.3774C112.247 89.4628 112.614 89.6506 112.938 89.9238C113.091 90.1158 113.198 90.4658 113.245 90.85C112.972 90.7987 112.699 90.7859 112.443 90.8072C111.995 90.8457 111.577 90.9694 111.198 91.1444C110.443 91.4987 109.816 92.0706 109.475 92.7621C109.995 92.1944 110.703 91.8658 111.398 91.7548C112.093 91.6396 112.81 91.7804 113.211 92.1432C113.219 92.1517 113.236 92.156 113.245 92.1645C113.223 92.3865 113.198 92.6127 113.164 92.8346C112.989 93.9529 112.669 95.0669 112.272 96.1424C111.872 97.218 111.381 98.268 110.793 99.2411C110.221 100.172 109.543 101.076 108.733 101.653C107.654 101.947 106.443 101.964 105.245 101.857C104.013 101.742 102.78 101.49 101.556 101.196C99.1044 100.59 96.7164 99.685 94.3881 98.6692C92.0769 97.6278 89.7827 96.4583 87.77 94.9815C86.7721 94.2218 85.7743 93.4066 84.8106 92.5828C83.8468 91.7505 82.9044 90.8969 82.0303 89.928C82.5207 91.1444 83.3138 92.2328 84.1752 93.2188C85.0494 94.209 85.9875 95.101 87.0152 95.9461C89.1175 97.5979 91.4159 98.8783 93.7911 99.9923C96.1663 101.111 98.6481 101.994 101.207 102.643C102.49 102.963 103.804 103.198 105.143 103.279C106.482 103.36 107.872 103.33 109.228 102.848L109.322 102.814L109.377 102.775C110.507 101.994 111.24 100.957 111.893 99.9112C112.533 98.8527 113.048 97.743 113.475 96.5949C113.897 95.4467 114.238 94.2688 114.434 93.0395C114.528 92.4249 114.588 91.7932 114.562 91.1359C114.545 90.8072 114.511 90.4701 114.417 90.1201C114.328 89.7829 114.183 89.4116 113.893 89.0701Z" fill="black"/>
<path d="M52.091 91.7334C55.2252 91.106 57.6643 91.8572 58.6622 94.5973C59.5918 97.1454 57.1569 100.086 54.8542 101.67C52.5515 103.257 46.8502 106.296 43.5155 107.231C40.1553 108.021 37.6735 107.726 31.4605 107.961C28.1855 109.988 24.1857 109.515 23.9682 104.107C23.7464 98.6948 27.8018 93.462 31.0724 93.1249C33.3538 93.1633 36.3089 95.1437 41.6947 95.0114C45.4387 94.1663 49.268 92.2968 52.091 91.7334Z" fill="#E6E6E6"/>
<path d="M57.1908 99.5612C56.6365 100.214 56.0011 100.812 55.3529 101.307C54.1717 100.15 52.6366 98.2722 53.127 95.9717C53.6856 97.2479 55.5747 98.8868 57.1908 99.5612Z" fill="#1A1313"/>
<path d="M54.2314 102.079C53.2848 102.681 52.0183 103.415 50.6281 104.145C49.1697 102.459 47.4598 99.4503 48.5173 95.9418C48.3553 97.0003 51.3573 100.56 54.2314 102.079Z" fill="#1A1313"/>
<path d="M44.6155 94.1833C43.9247 96.6717 45.0846 102.6 48.0909 105.413C46.4363 106.194 44.7989 106.864 43.5153 107.227C42.4279 107.483 41.4344 107.624 40.3726 107.705C37.426 104.61 37.797 101.17 39.379 98.7289C39.379 101.546 40.8118 103.74 42.6156 104.418C40.4408 101.422 41.5751 96.7443 42.752 94.734C43.3789 94.576 44.0015 94.3882 44.6155 94.1833Z" fill="#1A1313"/>
<path d="M38.6969 107.803C36.8548 107.859 34.6459 107.841 31.4605 107.961C28.1855 109.993 24.1899 109.519 23.9682 104.107C23.7464 98.6948 27.806 93.4663 31.0767 93.1249C32.9146 93.1548 35.196 94.448 38.8248 94.8791C37.085 97.2223 35.5243 103.8 38.6969 107.803Z" fill="#EFEFEF"/>
<path d="M57.6045 99.0361C56.7346 99.8684 55.805 100.585 54.8157 101.179C53.8179 101.764 52.7561 102.301 51.7156 102.848C49.6261 103.936 47.4855 104.956 45.3149 105.81C44.7734 106.019 44.2276 106.215 43.6817 106.377L43.3065 106.484L42.8843 106.574C42.6029 106.633 42.3214 106.685 42.04 106.732C40.9142 106.919 39.7586 106.979 38.5817 107.03C36.2278 107.103 33.8185 107.146 31.4348 107.321L31.2429 107.333L31.115 107.415H31.1107C30.2834 107.91 29.3666 108.255 28.4626 108.345C27.5586 108.443 26.6844 108.247 26.0618 107.709C25.887 107.564 25.7335 107.389 25.5928 107.201C25.6098 107.201 25.6269 107.201 25.6439 107.197C26.0917 107.146 26.5096 107.009 26.8848 106.821C27.6311 106.446 28.2494 105.857 28.5777 105.157C28.066 105.741 27.3667 106.087 26.6716 106.219C26.0618 106.339 25.4307 106.262 25.0128 106.002C24.9574 105.814 24.9062 105.626 24.8678 105.43C24.6887 104.521 24.6759 103.535 24.774 102.574C24.983 100.654 25.7164 98.7715 26.8166 97.1581C27.3667 96.3557 28.0191 95.6131 28.7526 95.0156C29.469 94.4308 30.3005 93.9784 31.0936 93.8802C31.8186 93.8973 32.6501 94.1406 33.4859 94.3839C34.343 94.6399 35.23 94.9089 36.134 95.1223C37.942 95.5576 39.8311 95.7582 41.6989 95.6857L41.7756 95.6814L41.831 95.6686C44.1508 95.118 46.3256 94.2516 48.479 93.4577C49.5621 93.0693 50.6197 92.6553 51.6857 92.3053C52.7518 91.9553 53.8307 91.6821 55.0076 91.5925C53.8946 91.17 52.6324 91.1913 51.4597 91.3748C50.2785 91.5754 49.157 91.9254 48.0654 92.3138C45.9034 93.065 43.7713 93.8503 41.605 94.3241C39.8738 94.3412 38.1595 94.1363 36.4794 93.7138C35.6266 93.5004 34.7865 93.2357 33.9208 92.9668C33.0509 92.7065 32.1512 92.3992 31.0723 92.3608H31.0297L30.9785 92.365C29.695 92.5101 28.6588 93.1419 27.7761 93.8418C26.8976 94.5589 26.1642 95.4039 25.5416 96.3131C24.3049 98.1313 23.4905 100.227 23.2474 102.425C23.128 103.522 23.1579 104.632 23.3967 105.746C23.6355 106.843 24.1386 108.008 25.128 108.814C25.6141 109.216 26.2025 109.493 26.8038 109.634C27.4051 109.775 28.0191 109.788 28.6033 109.719C29.712 109.578 30.7227 109.152 31.6267 108.601L35.0296 108.593C36.2193 108.601 37.409 108.605 38.6158 108.575C39.8226 108.554 41.0507 108.469 42.2788 108.268C42.5858 108.217 42.8886 108.161 43.1913 108.097L43.6434 107.995L43.7926 107.952L43.9035 107.918L44.1295 107.846C44.7222 107.654 45.2979 107.436 45.8608 107.205C46.9908 106.749 48.0782 106.224 49.1528 105.677C50.2231 105.123 51.2892 104.563 52.3126 103.936C52.8286 103.629 53.3403 103.304 53.8349 102.959C54.3339 102.621 54.8242 102.263 55.2976 101.866C56.2528 101.059 57.0587 100.112 57.6045 99.0361Z" fill="black"/>
<path d="M48.637 81.635C48.2915 79.9576 46.6498 79.6162 43.1318 79.8637C36.8548 80.2991 32.1641 78.0327 26.8295 70.7811C21.1495 64.5283 7.04765 64.7886 2.25463 73.6621C-0.359361 79.3174 6.1351 83.4191 8.1521 81.6307C11.2309 78.8991 19.6528 74.1145 24.1431 79.2576C29.9638 85.9288 35.1321 87.5165 42.4026 86.2403C47.46 85.3568 49.0634 83.7008 48.637 81.635Z" fill="#E6E6E6"/>
<path d="M48.6368 81.635C49.0632 83.705 47.4599 85.3611 42.4025 86.2446C36.9527 87.1964 32.6842 86.5476 28.437 83.3508C32.4539 83.1203 34.5605 80.7387 35.1362 78.4638C37.6094 79.6759 40.1978 80.0686 43.1316 79.8595C46.6454 79.6162 48.2914 79.9576 48.6368 81.635Z" fill="#D4D4D4"/>
<path d="M33.6056 77.593C35.0512 78.5235 36.5181 79.1467 38.066 79.5137C36.0618 81.0545 35.209 84.6867 35.0896 86.3727C33.9638 86.1678 32.8764 85.8306 31.8061 85.3568C31.9042 83.0392 32.8167 80.8539 33.3114 80.2436C32.2283 80.4484 31.7635 80.982 31.1324 81.7246C31.1238 80.2009 32.514 78.3272 33.6056 77.593Z" fill="#332525"/>
<path d="M37.1361 79.2576C37.0807 79.2405 37.0252 79.2235 36.9698 79.2064C36.7012 79.121 36.4368 79.0228 36.1724 78.9161C36.1084 78.8905 36.0402 78.8649 35.9762 78.8351C35.7161 78.7284 35.456 78.6131 35.2001 78.4893C35.1788 78.4808 35.1618 78.4723 35.1404 78.4637C34.795 79.8125 33.9123 81.1954 32.4156 82.1514C32.1128 83.0648 31.857 84.1916 31.8101 85.3525C31.8612 85.3739 31.9081 85.3952 31.9593 85.4165C32.1683 85.5062 32.3729 85.5916 32.5819 85.6727C32.6544 85.6983 32.7226 85.7238 32.7951 85.7495C32.9955 85.822 33.1959 85.8903 33.3964 85.9543C33.4646 85.9757 33.5371 85.9927 33.6053 86.0141C33.8143 86.0738 34.0232 86.1379 34.2364 86.1891C34.2748 86.1976 34.3132 86.2061 34.3473 86.2147C34.5946 86.2744 34.8419 86.3257 35.0935 86.3726C35.2129 84.6867 36.0658 81.0545 38.07 79.5137C38.0615 79.5094 38.0529 79.5094 38.0487 79.5051C37.9804 79.4881 37.9122 79.471 37.844 79.4539C37.6009 79.3942 37.3664 79.3302 37.1361 79.2576Z" fill="#1A1313"/>
<path d="M28.5439 72.9578C29.5673 74.17 30.5694 75.2029 31.58 76.0693C28.1004 77.0979 27.2262 80.6234 27.3669 82.4929C26.5013 81.7545 25.6356 80.9094 24.7572 79.9448C23.9854 75.8687 26.8936 73.7474 28.5439 72.9578Z" fill="#332525"/>
<path d="M23.7336 68.3951C20.932 72.134 21.5673 76.0693 22.6846 78.007C21.6825 77.3711 20.5738 77.0638 19.4139 76.9912C17.7722 73.7901 18.9107 71.1567 19.5376 70.2262C17.7253 70.9987 17.0941 72.9066 17.043 73.7176C15.171 71.0329 16.5185 67.9939 17.6528 66.5812C19.8446 66.8117 21.9383 67.422 23.7336 68.3951Z" fill="#332525"/>
<path d="M11.4228 66.9867C8.54441 71.6262 11.5209 76.7352 13.6871 78.1906C11.3929 79.168 9.36315 80.5594 8.1521 81.6307C6.13511 83.4148 -0.355095 79.3131 2.25463 73.6578C4.18208 70.0854 7.6276 67.9043 11.4228 66.9867Z" fill="#332525"/>
<path d="M40.0488 87.2049C33.5586 87.7683 28.8125 85.5873 23.6612 79.6844C22.3095 78.1394 20.4502 77.4564 18.122 77.6571C14.1605 78.0028 10.1478 80.7216 8.57429 82.113C8.20756 82.4374 7.71717 82.638 7.16282 82.6849C5.50402 82.8301 3.40175 81.6563 2.16511 79.8936C0.804813 77.9558 0.629978 75.6468 1.67046 73.3932C3.98168 69.1122 8.489 66.4019 14.0496 65.9154C19.3245 65.4587 24.4032 67.1574 27.2986 70.3457L27.3413 70.3969C32.339 77.1876 36.7525 79.6588 43.0849 79.2192C46.0443 79.0143 48.7479 79.0314 49.2596 81.4984C49.4515 82.4246 49.2979 83.2697 48.799 84.0038C47.8822 85.3525 45.8268 86.2915 42.5092 86.872C41.6436 87.0299 40.8377 87.1323 40.0488 87.2049ZM18.0111 76.3766C20.7658 76.1376 22.9917 76.9656 24.625 78.8393C29.4777 84.3965 33.9125 86.4494 39.9379 85.9245C40.6799 85.8604 41.4688 85.7537 42.2918 85.6129C45.2085 85.1007 47.0421 84.3196 47.7458 83.2867C48.0443 82.8428 48.1338 82.3435 48.0144 81.763C47.8012 80.7387 46.9697 80.235 43.183 80.4997C36.4455 80.9692 31.5629 78.2717 26.3392 71.1865C23.6996 68.3013 19.0388 66.769 14.169 67.1915C9.04335 67.6354 4.90703 70.1067 2.82181 73.9651C1.70457 76.3851 2.59154 78.2589 3.21838 79.1552C4.32709 80.7387 6.02426 81.4941 7.06048 81.4045C7.34192 81.3789 7.56792 81.2935 7.72997 81.1484C10.0625 79.0826 14.2799 76.701 18.0111 76.3766Z" fill="black"/>
<path d="M96.3924 70.6104C93.5994 67.2513 87.9066 67.533 84.1455 69.1293C80.3802 70.7256 74.9134 72.5182 71.0031 73.1243C60.2571 72.2067 52.8842 72.5567 47.0166 75.1645C41.8398 77.7937 37.5798 83.7051 38.1043 91.0122C39.3793 99.843 45.925 106.292 58.4491 106.045C73.5744 103.902 85.5186 98.3918 91.8254 92.7023C99.9488 85.3782 101.919 77.2602 96.3924 70.6104Z" fill="#E6E6E6"/>
<path d="M96.3925 70.6104C101.919 77.2602 99.9531 85.3782 91.8255 92.7023C85.5186 98.3918 73.5744 103.902 58.4491 106.045C45.9207 106.292 39.3751 99.843 38.1044 91.0079C37.7717 86.3812 39.3623 82.3136 41.8825 79.2918C42.1938 83.9782 47.4857 89.7701 59.3105 87.286C72.8751 84.4392 78.8152 76.748 75.3228 72.1725C78.3803 71.3445 81.6424 70.1964 84.1498 69.1293C87.9109 67.533 93.5994 67.2513 96.3925 70.6104Z" fill="#D4D4D4"/>
<path d="M99.122 75.7108C100.589 81.1783 97.9664 87.1666 91.8216 92.7024C85.5147 98.3918 73.5706 103.902 58.4452 106.045C52.0744 106.168 47.2558 104.564 43.8828 101.793C49.2771 103.228 57.8397 102.404 67.6816 99.9411C76.9734 97.6107 85.583 93.2786 91.2246 87.8666C94.6829 84.5502 96.2436 81.3192 97.3566 77.4309C97.6892 76.2998 98.4312 75.5785 99.122 75.7108Z" fill="#EFEFEF"/>
<path d="M70.9994 73.1243C72.4194 72.9067 74.0483 72.5311 75.7242 72.0616C73.7072 74.8487 72.8287 79.2107 73.0803 83.1673C72.7349 85.0752 72.2488 87.6062 72.0697 89.4458C70.6497 86.2745 69.6348 82.8216 69.6476 79.8211C68.7606 80.6918 67.4558 83.7862 67.0123 85.2843C64.9782 81.3832 64.9143 77.0084 66.6114 74.9554C66.2874 76.3511 66.6797 78.8906 67.0848 79.6717C67.7415 77.162 69.2809 74.5627 70.6028 73.0902C70.7435 73.103 70.8714 73.1115 70.9994 73.1243Z" fill="#332525"/>
<path d="M64.5563 72.7231C63.294 74.3407 62.1427 77.8364 61.9295 81.4643C61.1534 84.6142 60.7397 85.9544 60.3688 89.8854C59.1534 86.044 58.0447 81.7375 58.3518 79.3601C57.226 81.0588 56.0704 83.0947 55.8188 85.2374C54.7911 80.9521 56.3177 76.0138 60.8421 72.6719C62.0276 72.6591 63.2642 72.6719 64.5563 72.7231Z" fill="#332525"/>
<path d="M57.4051 72.8127C54.6674 74.5499 52.4926 78.6516 51.7336 82.8215C50.9234 80.6704 50.8253 78.1351 51.934 75.7492C49.6228 77.0724 47.8702 79.6631 47.1282 81.588C46.318 83.688 46.0195 85.805 45.8958 88.1781C45.0387 85.677 44.4801 82.7362 44.9876 79.6887C45.6656 77.3242 47.7508 75.4718 49.8019 74.1359H49.8062C52.0748 73.4359 54.5821 73.0091 57.4051 72.8127Z" fill="#332525"/>
<path d="M73.0586 81.0161C73.0288 81.7375 73.0416 82.4588 73.0842 83.1673C72.7388 85.0752 72.2527 87.6062 72.0736 89.4457C71.1738 87.4354 70.4361 85.3185 70.0225 83.2697C71.1951 82.557 72.21 81.7972 73.0586 81.0161Z" fill="#1A1313"/>
<path d="M67.1825 84.7679C67.1143 84.9557 67.0589 85.1306 67.012 85.2886C66.948 85.169 66.8883 85.0496 66.8286 84.93C66.9523 84.8746 67.0674 84.8233 67.1825 84.7679Z" fill="#1A1313"/>
<path d="M59.5791 87.2305C59.9671 87.1452 60.3424 87.0598 60.7177 86.9702C60.5897 87.7897 60.4789 88.7287 60.3723 89.8854C60.0951 89.0147 59.8264 88.1226 59.5791 87.2305Z" fill="#1A1313"/>
<path d="M46.0918 85.8648C45.9895 86.6117 45.9298 87.3842 45.8914 88.1781C45.563 87.222 45.2816 86.2062 45.0854 85.1349C45.3967 85.391 45.7336 85.6343 46.0918 85.8648Z" fill="#1A1313"/>
<path d="M66.9774 105.071C64.2355 105.733 61.3955 106.271 58.5342 106.676L58.4575 106.681C46.5772 106.915 38.9272 101.234 37.4688 91.0975L37.4645 91.0506C36.8633 82.6765 42.0785 76.9486 46.7265 74.584C48.1636 73.9438 49.6347 73.4487 51.2466 73.0603C56.1206 71.8866 62.0266 71.7073 70.9773 72.4713C71.7918 72.3433 72.7086 72.1555 73.7022 71.9165C76.862 71.1567 80.7681 69.8592 83.8938 68.5318C84.6272 68.2203 85.4118 67.9642 86.2263 67.7678C89.7059 66.9313 94.3327 67.1276 96.8827 70.1922C102.558 77.0255 100.87 85.3996 92.2474 93.1676C86.6655 98.2125 77.4547 102.549 66.9774 105.071ZM58.3935 105.404C61.2036 105.003 63.9882 104.474 66.6789 103.825C76.9515 101.35 85.9619 97.1242 91.3946 92.2243C99.437 84.977 101.079 77.2474 95.9019 71.0159C93.7314 68.4038 89.6377 68.2672 86.5291 69.0184C85.7786 69.1977 85.0622 69.4324 84.3969 69.7184C81.2115 71.0714 77.2287 72.3945 74.0007 73.1713C72.9431 73.4274 71.9709 73.6237 71.101 73.7603L70.9475 73.7646C62.2143 73.0177 56.2315 73.1884 51.5451 74.3152C50.0057 74.6865 48.6113 75.156 47.2723 75.7493C43.0081 77.9175 38.1937 83.21 38.7353 90.9439C40.0998 100.342 47.2638 105.614 58.3935 105.404Z" fill="black"/>
<path d="M76.6959 88.097C73.971 88.9805 73.2248 92.3907 73.6768 98.4472C74.3761 107.812 79.8941 119.984 84.6999 122.114C87.6039 123.006 96.9682 118.175 96.9468 116.07C96.7635 113.834 94.7635 112.609 92.6996 112.472C89.1134 108.477 86.7467 105.46 85.476 102.007C83.8087 96.4156 82.2522 86.2958 76.6959 88.097Z" fill="#E6E6E6"/>
<path d="M96.9468 116.07C96.9682 118.175 87.6039 123.006 84.6999 122.114C79.8941 119.984 74.3719 107.816 73.6768 98.4515C73.2248 92.395 73.971 88.9848 76.6959 88.1013C77.6084 87.8068 78.4101 87.8324 79.1265 88.1055C77.3483 89.2281 76.1927 93.0267 77.4507 99.032C79.1521 107.154 85.7276 109.412 87.638 106.198C88.9258 108.145 90.6016 110.146 92.6954 112.477C94.7635 112.613 96.7635 113.834 96.9468 116.07Z" fill="#D4D4D4"/>
<path d="M96.9466 116.071C96.968 118.175 87.6037 123.006 84.6997 122.114C82.2947 121.052 79.719 117.479 77.6509 113.002C82.0729 112.353 87.2966 109.626 88.819 107.854C89.8978 109.293 91.1899 110.799 92.6952 112.477C94.7633 112.613 96.7633 113.834 96.9466 116.071Z" fill="white"/>
<path d="M86.427 104.141C86.8321 104.931 87.3097 105.712 87.847 106.506C84.427 108.896 80.4698 108.725 77.7876 107.065C79.9453 107.005 84.4654 106.002 86.427 104.141Z" fill="#332525"/>
<path d="M85.4759 102.007C85.6934 102.596 85.945 103.172 86.2264 103.744C83.847 104.623 81.7447 104.542 80.2607 103.765C81.9281 103.599 84.1156 102.643 85.3949 101.717C85.4162 101.819 85.4461 101.913 85.4759 102.007Z" fill="#332525"/>
<path d="M83.2499 94.1451C83.9706 96.2578 84.5335 98.5754 85.0665 100.569C82.1881 101.883 77.1649 102.395 74.1372 101.99C73.9837 101.145 73.8601 100.313 73.7705 99.4931C76.9389 99.7406 80.6274 98.9979 82.1029 97.6022C79.6467 97.598 77.8301 97.2736 76.2225 96.087C77.4207 96.2578 81.2671 95.2633 83.2499 94.1451Z" fill="#332525"/>
<path d="M77.5273 99.3564C77.7491 100.342 78.0518 101.243 78.4058 102.05C76.8408 102.169 75.3355 102.152 74.1372 101.994C73.9837 101.149 73.8601 100.317 73.7705 99.4973C74.9986 99.587 76.3035 99.54 77.5273 99.3564Z" fill="#1A1313"/>
<path d="M87.638 106.194C87.7063 106.296 87.7745 106.403 87.847 106.506C84.427 108.896 80.4698 108.725 77.7876 107.065C78.7684 107.039 80.2481 106.813 81.7491 106.399C84.0646 108.076 86.5762 107.987 87.638 106.194Z" fill="#1A1313"/>
<path d="M77.0074 96.0828C77.0202 96.2536 77.0373 96.4328 77.0586 96.6121C76.7771 96.4627 76.4957 96.2834 76.2271 96.087C76.4232 96.1169 76.6919 96.1127 77.0074 96.0828Z" fill="#1A1313"/>
<path d="M97.6634 116.019C97.6123 115.422 97.4332 114.816 97.1304 114.278C96.8276 113.74 96.4098 113.283 95.9364 112.929C95.058 112.28 94.0388 111.956 93.0154 111.858C91.7489 110.321 90.4824 108.798 89.3226 107.218C88.1158 105.579 87.0412 103.868 86.2992 102.02L86.231 101.845L86.1969 101.764L86.1841 101.717L86.0689 101.345L85.8472 100.607L85.4165 99.1132C85.1393 98.1101 84.8366 97.1071 84.5082 96.1084C84.1671 95.1139 83.7876 94.1237 83.327 93.1676C82.8579 92.2158 82.3249 91.2811 81.6298 90.4829C82.3889 92.4463 82.8409 94.4395 83.3227 96.4498L84.0434 99.4759L84.4144 101L84.6106 101.768L84.7172 102.148L84.73 102.195L84.7598 102.293L84.7939 102.387L84.8664 102.579C85.6297 104.623 86.7811 106.48 88.0646 108.17C88.7085 109.015 89.3823 109.83 90.0816 110.612C90.7809 111.397 91.4845 112.169 92.2222 112.912L92.4227 113.117L92.6572 113.125C93.5527 113.202 94.4354 113.51 95.0964 114.039C95.7573 114.551 96.1539 115.277 96.2179 116.092C96.2179 116.113 96.1496 116.292 96.0174 116.455C95.8255 116.19 95.5995 115.968 95.3565 115.789C94.9898 115.524 94.5932 115.345 94.1923 115.23C93.3907 115.003 92.5421 115.029 91.8342 115.332C92.5975 115.242 93.348 115.456 93.945 115.827C94.5463 116.194 94.9983 116.77 95.0665 117.304C95.0708 117.321 95.0793 117.338 95.0836 117.355C94.7936 117.59 94.4908 117.816 94.1753 118.025C93.2286 118.657 92.2095 119.216 91.169 119.72C90.1285 120.219 89.0539 120.659 87.9665 120.992C87.425 121.158 86.8749 121.295 86.3418 121.376C85.8344 121.453 85.3014 121.47 84.9517 121.376C83.9112 120.889 82.9646 119.959 82.1416 118.964C81.3015 117.94 80.5467 116.817 79.8687 115.648C78.5084 113.305 77.4167 110.782 76.4999 108.209C75.5916 105.631 74.9051 102.967 74.4915 100.278C74.2783 98.9381 74.1418 97.5766 74.0011 96.2065C73.8774 94.8407 73.7793 93.4749 73.8135 92.075C73.3359 93.3981 73.1738 94.8194 73.1056 96.2193C73.0715 96.9236 73.0715 97.6236 73.0928 98.3236C73.1013 99.0235 73.1738 99.7406 73.2506 100.436C73.5917 103.24 74.274 105.989 75.1482 108.665C76.0266 111.341 77.1396 113.945 78.5382 116.416C79.2419 117.65 80.0137 118.853 80.939 119.972C81.4038 120.531 81.9028 121.069 82.4614 121.559C83.02 122.05 83.6426 122.507 84.3803 122.836L84.4315 122.857L84.4698 122.865C85.2758 123.092 85.941 123.006 86.5849 122.921C87.2245 122.823 87.8343 122.665 88.4271 122.481C89.6125 122.114 90.7426 121.645 91.8427 121.115C92.9429 120.582 94.009 119.984 95.0239 119.276C95.5313 118.922 96.0302 118.542 96.5036 118.089C96.7381 117.863 96.9726 117.62 97.1858 117.321C97.3863 117.018 97.6379 116.681 97.6549 116.066V116.049L97.6634 116.019Z" fill="black"/>
<path d="M43.3454 92.7579C44.1342 89.8683 45.8655 87.6275 48.7695 87.7726C51.2513 87.8964 53.1105 90.4744 53.7971 94.0554C54.3216 96.8041 54.1766 105.473 52.9783 109.685C51.1447 115.153 45.5031 121.184 44.4327 122.584C44.7483 125.409 42.9275 129.545 38.0449 127.202C33.1666 124.859 29.414 118.879 30.4289 115.029C30.5014 114.043 38.1899 109.365 40.855 103.548C43 98.0376 42.5863 95.5407 43.3454 92.7579Z" fill="#E6E6E6"/>
<path d="M48.7738 87.7726C51.2556 87.8964 53.1148 90.4744 53.7971 94.0554C54.3216 96.8084 54.1766 105.473 52.9784 109.685C51.1448 115.153 45.5031 121.179 44.4328 122.579C44.7484 125.405 42.9275 129.545 38.045 127.198C33.1666 124.854 29.4141 118.879 30.4247 115.025C30.493 114.171 36.2369 110.565 39.5204 105.848C41.7378 113.164 48.9103 103.194 49.196 96.9876C49.4092 92.3012 47.2046 89.8128 45.1961 89.2025C46.1044 88.2507 47.2813 87.7001 48.7738 87.7726Z" fill="#D4D4D4"/>
<path d="M53.8055 94.098C53.9249 94.751 54.0102 95.7284 54.0528 96.8936C52.2789 97.0942 49.8867 96.9961 48.2065 95.2845C49.6649 95.6174 51.9378 94.9645 53.8055 94.098Z" fill="#1A1313"/>
<path d="M54.0871 98.5327C54.0957 99.9283 54.0488 101.473 53.9507 103.001C51.4731 103.193 47.5927 102.737 45.1279 99.4119C45.9381 100.244 50.8079 99.9668 54.0871 98.5327Z" fill="#1A1313"/>
<path d="M53.6607 106.07C53.4901 107.432 53.2641 108.687 52.9827 109.685C52.4326 111.316 51.5541 112.997 50.5478 114.594C45.678 115.289 42.757 112.626 41.5886 109.51C44.1215 111.397 47.0425 111.572 48.8463 110.407C44.9914 110.36 41.725 106.745 40.4756 104.312C40.612 104.06 40.74 103.804 40.8594 103.543C41.0427 103.074 41.209 102.626 41.354 102.199C43.5672 104.453 49.4007 107.03 53.6607 106.07Z" fill="#1A1313"/>
<path d="M49.1703 95.3699C49.1916 95.6004 49.2001 95.8394 49.2086 96.0827C48.859 95.8693 48.5178 95.6046 48.2065 95.2888C48.4965 95.3528 48.8249 95.3827 49.1703 95.3699Z" fill="#332525"/>
<path d="M45.1235 99.4161C45.5329 99.8301 46.9529 99.9667 48.6842 99.8258C48.4838 100.5 48.2364 101.187 47.9465 101.857C46.9188 101.307 45.9423 100.522 45.1235 99.4161Z" fill="#332525"/>
<path d="M41.3539 102.199C42.3645 103.228 44.1257 104.324 46.1512 105.118C45.277 106.39 44.3005 107.419 43.3538 107.974C42.0575 106.813 41.0511 105.434 40.4712 104.312C40.6076 104.06 40.7356 103.804 40.855 103.543C41.0426 103.074 41.2089 102.626 41.3539 102.199Z" fill="#332525"/>
<path d="M49.4604 116.22C47.3453 119.259 45.0767 121.747 44.4328 122.579C44.7484 125.405 42.9275 129.545 38.045 127.197C33.1666 124.854 29.4141 118.879 30.4247 115.025C30.4802 114.299 34.6634 111.572 37.9298 107.863C38.9362 110.688 44.0192 116.856 49.4604 116.22Z" fill="white"/>
<path d="M52.1765 89.911C52.7991 91.2853 53.1403 92.6981 53.3194 94.1322C53.4686 95.5364 53.4558 97.0345 53.4558 98.5028C53.4388 99.9796 53.3705 101.456 53.2554 102.929C53.136 104.397 52.9867 105.865 52.7394 107.304C52.6158 108.021 52.4665 108.729 52.2746 109.408L52.2618 109.459V109.463L52.249 109.498L52.2021 109.63L52.1126 109.877L51.9164 110.373C51.78 110.701 51.635 111.03 51.4772 111.354C50.8504 112.652 50.1041 113.902 49.2982 115.123C48.4837 116.339 47.6223 117.526 46.7183 118.691C45.8143 119.869 44.8761 120.958 43.9295 122.191L43.7674 122.4L43.8015 122.661C43.8868 123.591 43.7248 124.585 43.3282 125.409C42.9402 126.246 42.2877 126.877 41.4818 127.082C41.469 127.087 41.4562 127.087 41.4391 127.091C41.4519 127.027 41.469 126.963 41.4775 126.899C41.5415 126.451 41.5116 126.015 41.4221 125.601C41.243 124.782 40.8293 124.039 40.2281 123.548C40.6673 124.184 40.8293 124.953 40.7824 125.657C40.7483 126.237 40.5436 126.788 40.2281 127.142C39.7675 127.082 39.2985 126.946 38.8422 126.758C37.9424 126.382 37.0896 125.857 36.2879 125.256C34.6888 124.048 33.32 122.494 32.3264 120.753C31.8318 119.878 31.4352 118.952 31.2007 118.004C30.9661 117.061 30.9022 116.079 31.1282 115.213V115.204C31.1452 115.178 31.1708 115.144 31.2049 115.106C31.2817 115.016 31.3798 114.918 31.4821 114.82C31.6868 114.624 31.9171 114.419 32.1431 114.222L33.5503 113.01C34.4969 112.195 35.4393 111.358 36.3476 110.479C38.1514 108.721 39.8742 106.792 41.0895 104.474C41.1662 104.329 41.2387 104.184 41.3069 104.034L41.4093 103.812L41.5074 103.556L41.8314 102.66C42.0361 102.058 42.2323 101.452 42.4029 100.837C42.7483 99.6125 43.0126 98.3534 43.1917 97.0985C43.3794 95.8394 43.4476 94.6017 43.6352 93.4066C43.8229 92.2073 44.1171 91.0293 44.6416 89.8769C43.729 90.7689 43.1491 91.9853 42.7824 93.2145C42.4242 94.4608 42.2792 95.72 42.083 96.9279C41.8912 98.14 41.6225 99.3308 41.2686 100.505C41.0937 101.089 40.9018 101.67 40.6886 102.25L40.3645 103.112L40.292 103.292L40.194 103.492C40.1257 103.625 40.0618 103.757 39.9893 103.889C38.8507 105.989 37.1834 107.812 35.4095 109.485C34.5182 110.321 33.5844 111.124 32.6334 111.913C32.1601 112.31 31.6783 112.703 31.1964 113.117C30.9576 113.326 30.7188 113.535 30.4757 113.766C30.3521 113.885 30.2327 114.005 30.1047 114.15C30.0408 114.222 29.9768 114.303 29.9043 114.41C29.8404 114.521 29.738 114.632 29.6954 114.974L29.7167 114.841C29.4054 116.041 29.5077 117.253 29.7764 118.362C30.0536 119.476 30.5013 120.518 31.0471 121.487C32.1473 123.424 33.6313 125.11 35.3967 126.451C36.2836 127.112 37.2474 127.684 38.2964 128.111C39.3454 128.525 40.582 128.794 41.8314 128.448C42.4455 128.277 43.0212 127.94 43.4817 127.505C43.9423 127.07 44.2877 126.54 44.5393 125.994C44.9913 124.978 45.1576 123.89 45.0808 122.801C45.4902 122.319 45.9465 121.82 46.3729 121.32C46.859 120.753 47.3451 120.181 47.8185 119.596C48.7694 118.431 49.6905 117.236 50.5348 115.977C51.3834 114.722 52.1765 113.411 52.8332 112.016C52.9995 111.666 53.1531 111.312 53.3023 110.953L53.5155 110.407L53.6136 110.129L53.6562 109.997L53.6903 109.89L53.7117 109.818C53.9206 109.058 54.0571 108.298 54.1807 107.543C54.637 104.521 54.7479 101.512 54.701 98.4942C54.6882 97.7388 54.6583 96.9833 54.5944 96.2279C54.5347 95.4681 54.4409 94.717 54.2575 93.9444C53.8822 92.4591 53.2383 90.9908 52.1765 89.911ZM31.1196 115.217C31.1154 115.225 31.1154 115.23 31.1196 115.217V115.217Z" fill="black"/>
<path d="M94.205 52.6201C95.7358 50.2555 97.3946 45.8423 96.5162 43.8875C95.8595 42.4363 94.738 42.4747 92.0473 41.7961C88.7979 40.9723 85.7191 39.2224 83.604 38.1426C81.3141 37.528 79.9027 39.726 79.5146 43.3881C79.037 47.891 81.1905 55.3944 87.4888 57.3023C89.7019 57.4346 92.1198 55.8468 94.205 52.6201Z" fill="#E6E6E6"/>
<path d="M96.5162 43.8874C96.3115 43.6484 96.1025 43.4393 95.8722 43.2899C95.642 43.1405 95.3947 43.0509 95.1303 42.9826C94.6015 42.8545 94.0173 42.7948 93.4288 42.7094C92.8361 42.6198 92.2391 42.5131 91.6421 42.3679C91.0366 42.2143 90.4481 42.0393 89.8639 41.8387C88.6998 41.4418 87.5697 40.9637 86.4696 40.4515C85.3651 39.9436 84.2948 39.3845 83.2415 38.8467L83.395 38.9065C82.6147 38.7016 82.0134 38.9406 81.5145 39.6193C81.0284 40.2894 80.7171 41.2155 80.5167 42.1588C80.4186 42.6326 80.3418 43.1234 80.2949 43.6143C80.248 44.0838 80.231 44.5789 80.248 45.0697C80.2779 46.0471 80.3973 47.0373 80.6062 48.0062C81.0241 49.9439 81.8087 51.8134 82.9771 53.3883C84.12 54.9932 85.6252 56.2949 87.4887 57.2979C85.3609 57.1144 83.3481 55.8639 81.9622 54.1822C80.5764 52.4792 79.6723 50.4476 79.1393 48.3476C78.8749 47.2934 78.7086 46.2136 78.6702 45.1209C78.6489 44.5703 78.6574 44.024 78.7044 43.4606C78.7513 42.9186 78.8238 42.3765 78.9304 41.8344C79.1521 40.7546 79.4677 39.6449 80.2224 38.6376C80.5977 38.1425 81.1265 37.6687 81.7959 37.4254C82.4654 37.1736 83.2032 37.2035 83.8129 37.3742L83.9025 37.3998L83.9707 37.434C85.0496 37.9888 86.0858 38.5651 87.1348 39.1028C88.1881 39.6364 89.2499 40.1314 90.3372 40.5454C90.8788 40.7546 91.4332 40.9381 91.9833 41.096C92.5461 41.2625 93.1133 41.4162 93.689 41.5954C93.9747 41.6851 94.2646 41.7832 94.5589 41.8985C94.8488 42.0137 95.1473 42.1375 95.433 42.3167C95.7187 42.4874 95.9874 42.7179 96.1793 42.9996C96.3669 43.2685 96.4692 43.5801 96.5162 43.8874Z" fill="black"/>
<path d="M96.7379 40.3834C95.9917 39.6194 94.5333 38.8468 92.9129 38.8169C96.7379 37.4298 99.7954 38.3645 102.154 40.5413C101.203 38.6121 98.6014 36.7213 97.1132 36.3926C99.5353 35.5475 104.93 36.0939 107.373 40.3535C107.399 38.0444 106.303 35.7652 104.93 34.3268C109.552 35.0012 112.328 39.0432 112.588 42.7309C115.675 44.5363 118.452 49.2995 118.946 51.886C118.379 53.7 117.855 58.0236 119.543 58.9327C120.835 59.5986 121.94 58.9455 122.579 58.5059C122.891 57.6566 127.053 55.7231 128.084 57.6352C129.116 59.5516 128.988 62.0015 128.161 62.9533C128.72 65.3691 126.268 68.9159 124.95 69.3726C121.739 70.4141 119.164 68.1605 117.616 68.2928C111.445 72.7274 113.961 76.462 120.989 76.0011C122.004 76.7309 120.409 80.2137 118.132 81.9765C114.912 82.8856 110.878 82.1088 107.859 79.851C103.556 81.0717 99.3178 83.5472 96.1111 85.455C95.5652 84.7892 94.7124 82.446 94.9256 81.0802C92.2008 82.4887 87.5996 82.8899 85.0837 81.6564C86.6658 80.218 88.2691 78.2589 88.7595 77.1876C85.3524 76.5175 77.2119 74.7889 73.067 67.0209C74.8623 67.7593 76.6234 67.8574 78.6319 68.0965C74.8751 65.7618 73.1139 63.4783 71.6172 59.9528C74.7557 58.6596 78.9219 54.7201 83.1904 48.5184C85.9579 44.5064 91.2029 40.2809 96.7379 40.3834Z" fill="#E6E6E6"/>
<path d="M125.24 60.4052C126.673 61.0028 126.758 62.8765 128.17 62.9491C128.728 65.3606 126.276 68.9117 124.959 69.3684C121.347 70.5976 118.665 67.6099 117.42 68.3824C112.366 72.1854 112.801 76.334 121.002 75.9925C122.016 76.7224 120.422 80.2052 118.149 81.9679C114.929 82.8771 110.891 82.096 107.876 79.8381C107.437 79.9619 107.002 80.0985 106.567 80.2479C103.804 75.9029 106.605 71.6262 108.247 70.4098C106.686 70.747 104.836 71.1397 103.407 72.4286C104.942 66.3166 110.887 64.6478 112.234 64.1783C114.469 62.4327 119.091 61.6174 120.865 61.7284C121.799 61.2333 123.449 60.4052 124.66 60.1961C124.827 60.2644 125.023 60.3284 125.24 60.4052Z" fill="#F5F5F5"/>
<path d="M124.652 60.2003C123.313 59.7266 123.019 59.479 122.588 58.5016C122.899 57.6523 127.065 55.7145 128.093 57.6309C129.121 59.543 128.997 61.9973 128.166 62.9491C126.878 63.0216 126.724 61.0625 125.236 60.4052C125.023 60.3284 124.827 60.2644 124.652 60.2003Z" fill="black"/>
<path d="M83.2029 48.5056C85.2839 45.4752 88.8019 42.3211 92.7847 41.0107C89.0066 43.1576 84.5163 48.5227 85.7274 55.6718C86.9214 62.7271 89.9575 64.9636 92.9894 66.2569C91.4202 67.6099 89.9959 68.5915 86.4822 69.6329C91.3647 72.3048 95.5991 71.0414 98.5287 70.4225C97.4072 72.9066 94.8657 75.6169 93.6248 76.6626C96.2772 77.3114 98.4263 77.1363 100.703 76.4662C100.469 77.9857 99.7568 78.9845 99.2024 80.0686C100.925 80.5424 102.887 80.7899 105.36 80.6832C101.949 82.0063 98.6993 83.9056 96.1194 85.4422C95.5736 84.7764 94.7207 82.4289 94.9339 81.0673C92.2133 82.4758 87.6079 82.877 85.092 81.6435C86.6783 80.2052 88.2774 78.2461 88.7678 77.1791C85.3607 76.5089 77.2202 74.7803 73.0796 67.0123C74.8749 67.7507 76.6317 67.8489 78.6402 68.0879C74.8791 65.7489 73.1222 63.4697 71.6255 59.94C74.7725 58.651 78.9387 54.7072 83.2029 48.5056Z" fill="#D4D4D4"/>
<path d="M128.754 57.5114L128.669 57.345C128.58 57.1785 128.482 57.0376 128.362 56.9053C128.119 56.6364 127.799 56.4443 127.488 56.3376C127.172 56.2267 126.865 56.184 126.567 56.1755C125.974 56.1584 125.433 56.2608 124.912 56.4102C124.392 56.5596 123.897 56.7602 123.42 57.012C123.181 57.1401 122.947 57.2809 122.712 57.4517C122.593 57.537 122.477 57.6309 122.358 57.7461C122.277 57.8315 122.192 57.9168 122.106 58.0534C121.475 58.4717 120.844 58.6809 120.252 58.5144C120.175 58.4974 120.089 58.4632 120.017 58.4376C119.983 58.4248 119.957 58.412 119.898 58.3864L119.859 58.3693L119.851 58.365L119.812 58.3437C119.714 58.2797 119.616 58.1857 119.531 58.0577C119.356 57.8016 119.237 57.4388 119.164 57.0547C119.019 56.2736 119.028 55.4157 119.104 54.5707C119.185 53.7256 119.33 52.8634 119.569 52.0823L119.616 51.9201L119.586 51.7665C119.377 50.7378 118.998 49.8244 118.576 48.9324C118.145 48.0489 117.655 47.1995 117.104 46.3886C116.554 45.5776 115.945 44.8051 115.262 44.0838C114.674 43.4649 114.017 42.893 113.279 42.4064C113.049 39.8925 111.749 37.5962 110.388 36.1877C108.521 34.25 106.15 33.2171 102.998 33.2683C104.568 34.5402 106.205 36.7981 107.054 39.3035C106.124 37.9718 105.391 36.9005 102.666 35.9316C100.133 35.0268 97.3652 35.6499 95.7022 36.4609C97.506 36.798 99.5912 37.7499 101.114 39.5126C97.5955 36.8322 94.602 37.5578 91.9241 39.0388C91.9241 39.0388 94.069 39.0217 96.0689 40.0162C94.8792 40.0162 93.6852 40.204 92.5509 40.5583C91.1906 40.968 89.9071 41.5912 88.7173 42.3467C87.5233 43.0936 86.4104 43.9728 85.3997 44.9502C84.3891 45.9276 83.4595 46.9989 82.6536 48.1599C81.0971 50.3793 79.434 52.5219 77.5919 54.4895C76.6708 55.4669 75.7028 56.3974 74.6751 57.2467C73.6517 58.0833 72.5558 58.8516 71.3874 59.3467L70.7861 59.6028L71.042 60.1875V60.1918C71.801 61.8905 72.7562 63.5594 74.0398 64.9593C74.8798 65.8855 75.8307 66.6836 76.8371 67.3879C76.5216 67.3367 76.206 67.2854 75.899 67.2214C74.995 67.0379 74.125 66.7861 73.3234 66.4105L71.6987 65.6508L72.5174 67.3068L72.5217 67.3153C73.3319 68.7793 74.3425 70.1281 75.5195 71.3103C76.6921 72.4926 78.0311 73.5041 79.4596 74.3322C80.8882 75.1645 82.4062 75.8175 83.9627 76.3297C85.3742 76.7949 86.824 77.1278 88.2738 77.3924C88.0947 77.6656 87.8986 77.9302 87.6896 78.1906C87.3911 78.5534 87.0713 78.9076 86.7472 79.2491C86.0905 79.932 85.3955 80.5807 84.6663 81.1698L83.9414 81.7588L84.8155 82.2197L84.8283 82.224C85.7025 82.6081 86.598 82.7746 87.4807 82.8514C88.3634 82.924 89.2418 82.8983 90.1075 82.8044C90.9731 82.7105 91.826 82.5441 92.6618 82.3094C93.3142 82.1216 93.9581 81.8868 94.5764 81.5923C94.5636 81.8228 94.5679 82.0533 94.5807 82.2837C94.6063 82.6892 94.6702 83.0904 94.7513 83.4831C94.8365 83.8758 94.9389 84.2684 95.0711 84.6569C95.2118 85.0495 95.3355 85.4166 95.634 85.8562L95.9154 86.2702L96.4527 86.0013L96.4612 85.9971C98.3247 84.8873 100.192 83.8032 102.116 82.8472C103.945 81.9338 105.826 81.1314 107.762 80.5552C109.228 81.5923 110.896 82.3179 112.644 82.6935C114.495 83.0904 116.452 83.1117 118.32 82.591L118.439 82.5569L118.537 82.4801C119.552 81.6819 120.354 80.7002 120.998 79.6119C121.313 79.0655 121.59 78.4893 121.782 77.8491C121.838 77.6528 121.889 77.4437 121.919 77.226C121.936 77.0894 121.953 76.9486 121.953 76.7992C121.953 76.6199 121.936 76.4236 121.872 76.2102C121.868 76.2016 121.868 76.1931 121.868 76.1845C121.863 76.1717 121.863 76.1632 121.859 76.1504C121.787 75.9199 121.625 75.651 121.377 75.4761L121.288 75.4163L121.177 75.3822L121.168 75.3779C120.379 75.173 115.625 75.9071 114.857 73.6578C114.277 71.9591 116.836 68.3824 118.789 69.0439C119.505 69.2872 121.893 71.0926 125.091 69.8933L125.117 69.889L125.143 69.8805C125.561 69.7269 125.833 69.5092 126.098 69.2872C126.106 69.283 126.115 69.2744 126.119 69.2701C126.384 69.0397 126.618 68.7879 126.836 68.5318C127.27 68.0153 127.641 67.4562 127.961 66.8672C128.277 66.2739 128.541 65.6465 128.712 64.9721C128.857 64.3917 128.925 63.7643 128.84 63.1112C129.142 62.6545 129.283 62.1765 129.377 61.7113C129.479 61.1607 129.492 60.6101 129.454 60.068C129.411 59.526 129.309 58.9924 129.147 58.476C129.066 58.2156 128.968 57.9638 128.857 57.712L128.754 57.5114ZM127.919 58.8558C128.051 59.2784 128.136 59.7223 128.17 60.1662C128.204 60.6101 128.192 61.0582 128.115 61.4765C128.042 61.8905 127.889 62.296 127.693 62.5222L127.688 62.5264L127.475 62.8124L127.548 63.0941C127.667 63.5722 127.637 64.1313 127.514 64.6819C127.39 65.2367 127.177 65.7873 126.912 66.3166C126.648 66.8458 126.328 67.3495 125.961 67.8104C125.778 68.0409 125.582 68.2544 125.381 68.4464C125.343 68.4806 125.305 68.5147 125.262 68.5489C125.1 68.6854 124.934 68.8007 124.801 68.8561C124.183 69.0098 122.669 69.4793 120.9 68.6982C119.676 68.1604 117.927 67.0165 116.132 68.5573C114.341 70.0981 112.559 73.0432 114.013 74.7974C115.795 76.9485 119.676 76.2187 120.644 76.5516C120.644 76.5559 120.644 76.5559 120.648 76.5601C120.665 76.6071 120.678 76.6925 120.678 76.7906C120.678 76.7949 120.678 76.7992 120.678 76.8034C120.678 76.8845 120.665 76.9784 120.648 77.0723C120.644 77.1108 120.64 77.1449 120.631 77.179C120.61 77.2815 120.588 77.3839 120.559 77.4863C120.414 77.9814 120.175 78.4851 119.898 78.9631C119.36 79.8808 118.661 80.7301 117.851 81.3832C116.264 81.8014 114.55 81.7844 112.917 81.4344C111.241 81.0716 109.634 80.3546 108.26 79.3302L108.005 79.1424L107.702 79.2277C105.557 79.8381 103.514 80.7131 101.548 81.6947C99.749 82.591 98.0134 83.5855 96.3034 84.6014C96.231 84.4776 96.1585 84.3495 96.0945 84.2258C95.9282 83.9057 95.7832 83.5684 95.6553 83.227C95.408 82.5441 95.2033 81.8143 95.2374 81.1271V81.1143L95.3269 80.5594L94.8067 80.8027C94.069 81.1484 93.2801 81.3917 92.4784 81.5624C91.6767 81.7332 90.858 81.8356 90.0392 81.8697C89.2205 81.9039 88.406 81.8697 87.6129 81.7502C87.1225 81.6734 86.6406 81.5624 86.1886 81.4045C86.6364 80.9051 87.0713 80.393 87.4764 79.8637C87.7749 79.4711 88.0606 79.0655 88.3293 78.6473C88.5979 78.2247 88.8538 77.8022 89.0542 77.3156L89.0585 77.3028L89.229 76.9571L88.841 76.876C87.2675 76.5431 85.7196 76.1419 84.2271 75.5956C82.7346 75.0493 81.2933 74.3663 79.9585 73.5255C78.6238 72.6847 77.3957 71.6902 76.3339 70.542C75.6175 69.7695 74.9822 68.9287 74.4235 68.0409C74.867 68.1305 75.3105 68.2031 75.7497 68.2543C76.7177 68.3653 77.6644 68.408 78.6025 68.4805H78.611L80.3551 68.7238L78.8669 67.7507C77.3616 66.7648 75.9544 65.6422 74.8329 64.285C73.8351 63.0899 73.0846 61.7198 72.4663 60.2729C73.5835 59.7351 74.5813 59.0309 75.5237 58.2839C76.6239 57.4047 77.6303 56.4316 78.5855 55.42C80.4916 53.3884 82.1845 51.1903 83.7367 48.9025C85.2249 46.713 87.1737 44.8222 89.3612 43.3283C90.4657 42.5942 91.6426 41.971 92.8792 41.5101C94.1201 41.0576 95.4207 40.776 96.7469 40.7376L97.233 40.7247C97.233 40.7247 96.4911 39.3974 94.7598 38.7102C98.039 38.1255 100.883 39.7473 102.781 41.5656C102.781 41.5656 102.039 38.1852 98.9515 36.6017C100.956 36.6102 104.909 36.7724 107.408 41.3223C107.975 39.5809 107.442 37.084 106.538 35.3896C108.141 36.0554 109.463 37.131 110.303 38.2663C111.987 40.5412 111.906 43.0551 111.906 43.0551L112.286 43.2771C113.032 43.7167 113.719 44.31 114.341 44.963C114.968 45.6203 115.535 46.3417 116.051 47.1014C116.567 47.8611 117.032 48.6592 117.429 49.483C117.804 50.2598 118.128 51.075 118.303 51.8732C118.06 52.7311 117.919 53.5762 117.834 54.4469C117.753 55.3731 117.731 56.3121 117.915 57.2895C118.013 57.776 118.153 58.2797 118.478 58.7705C118.64 59.0138 118.857 59.2485 119.134 59.4193L119.241 59.4833L119.343 59.5345C119.386 59.5559 119.463 59.59 119.531 59.6199C119.663 59.6753 119.791 59.718 119.927 59.7521C120.473 59.9015 121.07 59.8759 121.59 59.718C122.111 59.5644 122.567 59.2997 122.955 59.0309L123.087 58.9412L123.194 58.7236C123.164 58.7876 123.202 58.7107 123.258 58.6638C123.313 58.6083 123.39 58.5443 123.471 58.4845C123.637 58.365 123.825 58.2498 124.021 58.1474C124.413 57.9382 124.84 57.7675 125.266 57.6437C125.693 57.5199 126.132 57.4473 126.528 57.4601C126.929 57.473 127.249 57.584 127.42 57.776C127.462 57.823 127.505 57.887 127.535 57.9382L127.62 58.1046L127.684 58.2455C127.774 58.4376 127.855 58.6467 127.919 58.8558Z" fill="black"/>
<path d="M105.245 54.8353C107.279 53.4524 112.094 52.1335 113.531 53.3073C115.803 55.1639 117.219 59.5857 117.535 61.6814C117.855 61.357 118.081 60.9558 118.234 60.593C118.289 61.1564 117.944 62.8167 117.671 63.3503C115.573 61.7838 110.418 60.5205 106.495 63.5679C107.228 60.6699 111.765 57.2169 116.191 61.0412C113.484 55.3133 109.842 54.3445 105.245 54.8353Z" fill="black"/>
<path d="M110.938 46.2521C108.302 46.3972 103.855 47.9935 102.422 49.116C101.42 50.8318 101.258 54.3487 101.441 55.5908C99.1342 56.5084 95.0533 59.5004 93.5139 61.0754C96.6311 60.0553 100.627 59.5687 101.919 59.8291C98.6183 61.1308 90.1665 66.0051 92.401 76.5303C90.5929 74.2725 88.8062 70.9305 88.0728 68.3782C89.3307 66.5429 94.3242 62.6546 96.0299 61.7838C93.8722 61.8479 90.0812 63.6107 88.5631 64.5497C89.9107 60.7169 94.7804 56.7304 98.985 55.0146C98.3539 51.7238 99.6886 48.2752 100.469 47.6008C103.787 45.9447 107.364 45.3814 110.938 46.2521Z" fill="#332525"/>
<path d="M103.915 43.5716C100.853 44.5618 97.9148 46.555 97.0065 47.2891C96.0428 48.6763 95.7784 51.967 95.6547 53.0383C94.5929 53.6103 91.8808 55.3431 90.8574 56.6748C91.1005 54.8438 92.593 53.6786 93.045 53.3115C92.7039 50.9341 93.2028 47.9208 93.7656 46.9562C96.87 44.8904 100.328 43.7551 103.915 43.5716Z" fill="#332525"/>
<path d="M91.4081 44.0924C90.9305 45.0655 90.7514 46.4953 91.0072 48.2453C91.6383 46.7258 93.8899 43.7338 98.7725 42.2571C96.4228 42.2314 94.6489 42.4406 91.4081 44.0924Z" fill="#332525"/>
<path d="M123.061 64.0331C123.163 64.255 123.027 64.5367 122.758 64.6605C122.485 64.7843 122.183 64.7075 122.08 64.4898C121.978 64.2679 122.114 63.9861 122.387 63.8624C122.656 63.7343 122.959 63.8112 123.061 64.0331Z" fill="#B7B7B7"/>
<path d="M124.119 64.8867C124.187 65.0361 124.106 65.2239 123.936 65.3007C123.765 65.3818 123.569 65.3221 123.501 65.1727C123.432 65.0233 123.514 64.8356 123.684 64.7587C123.855 64.6776 124.051 64.7374 124.119 64.8867Z" fill="#B7B7B7"/>
<path d="M124.387 63.6576C124.468 63.8283 124.362 64.046 124.148 64.1441C123.935 64.2423 123.701 64.1826 123.624 64.0119C123.543 63.8411 123.649 63.6235 123.863 63.5253C124.076 63.4271 124.31 63.4868 124.387 63.6576Z" fill="#B7B7B7"/>
<path d="M126.571 58.4077C126.648 58.7193 126.234 59.0906 125.646 59.24C125.057 59.3894 124.515 59.2571 124.434 58.9455C124.358 58.6339 124.771 58.2626 125.36 58.1132C125.948 57.9638 126.49 58.0961 126.571 58.4077Z" fill="#F5F5F5"/>
<path d="M92.9943 66.2569C91.7278 67.3538 90.5509 68.2031 88.2866 69.0397C88.2098 68.8134 88.1373 68.5915 88.0776 68.3739C88.6149 67.597 89.8217 66.4489 91.165 65.3178C91.762 65.6934 92.376 65.9922 92.9943 66.2569Z" fill="#1A1313"/>
<path d="M89.0114 63.5167C89.1691 63.6917 89.3312 63.8624 89.4932 64.0203C89.135 64.2124 88.8195 64.3917 88.5679 64.5454C88.6873 64.2082 88.8365 63.8624 89.0114 63.5167Z" fill="#1A1313"/>
<path d="M92.1667 71.2506C91.9493 72.8255 91.9962 74.5797 92.4098 76.526C91.1135 74.9084 89.8257 72.7274 88.9302 70.6786C90.0602 71.0372 91.1391 71.2036 92.1667 71.2506Z" fill="#1A1313"/>
<path d="M88.1797 56.8072C89.4376 54.1695 90.589 49.355 89.4888 47.3618C88.6658 45.885 87.5528 46.0258 84.7939 45.5393C81.4549 44.9545 78.1885 43.371 75.9498 42.4149C73.5917 41.9668 72.436 44.4167 72.4659 48.3264C72.5 53.1366 75.502 60.8918 82.005 62.3515C84.2352 62.296 86.4654 60.4052 88.1797 56.8072Z" fill="#E6E6E6"/>
<path d="M76.6659 46.3161C80.0432 49.4276 83.4461 50.3879 86.0686 51.2885C86.657 51.8689 85.8767 57.5456 82.8533 58.9157C80.1071 57.934 78.491 56.2225 77.1094 53.4183C75.7278 50.6226 75.4293 46.3417 76.6659 46.3161Z" fill="#DAB5B5"/>
<path d="M89.4886 47.3576C89.0749 46.8753 88.5931 46.5551 88.043 46.457C87.4972 46.3375 86.8959 46.3289 86.2861 46.2862C85.6763 46.2606 85.058 46.1881 84.4397 46.1155C83.8086 46.0259 83.1945 45.8978 82.5847 45.7399C80.1584 45.0954 77.8599 44.0924 75.634 43.1492L75.8003 43.2004C75.3952 43.1278 75.0455 43.1662 74.7598 43.3284C74.4698 43.4863 74.2055 43.7893 74.005 44.1777C73.5957 44.9674 73.4208 45.9875 73.327 46.999C73.2844 47.5112 73.2673 48.0276 73.2759 48.5526C73.2844 49.0477 73.327 49.5685 73.3953 50.0806C73.536 51.105 73.7662 52.1251 74.0733 53.1196C74.6958 55.1128 75.6766 56.9993 76.9943 58.5956C78.3077 60.2004 79.9665 61.5065 82.009 62.343C80.9046 62.2918 79.8044 61.9717 78.7938 61.4553C77.7874 60.9346 76.8706 60.2303 76.086 59.4023C74.5167 57.7462 73.4251 55.7103 72.6618 53.589C72.2823 52.5263 71.9966 51.4251 71.8303 50.2983C71.745 49.7307 71.6895 49.1715 71.6682 48.5782C71.6512 48.0148 71.6554 47.4472 71.6938 46.871C71.7748 45.7271 71.9625 44.5534 72.5552 43.401C72.858 42.8376 73.31 42.2571 73.9795 41.8943C74.6489 41.523 75.4464 41.4761 76.0988 41.6084L76.1969 41.6254L76.2694 41.6553C77.4037 42.1504 78.491 42.6754 79.5997 43.1449C80.7085 43.6144 81.8257 44.0412 82.9642 44.3827C83.5314 44.5577 84.1028 44.7156 84.6699 44.8522C85.2499 45.0058 85.8426 45.1125 86.4396 45.2704C87.0366 45.4155 87.6549 45.5649 88.2605 45.8637C88.5589 46.0216 88.8404 46.2307 89.0493 46.4911C89.2626 46.7643 89.399 47.0588 89.4886 47.3576Z" fill="black"/>
<path d="M77.1054 53.4182C76.453 52.3213 75.9967 51.1006 75.6939 49.8373C75.549 49.2013 75.4381 48.5526 75.4168 47.8696C75.4082 47.5239 75.421 47.174 75.5148 46.7856C75.566 46.5892 75.6342 46.3801 75.7963 46.1581C75.8773 46.0471 75.9882 45.9319 76.1417 45.838C76.2909 45.7441 76.4786 45.6886 76.6534 45.6801H76.6577L76.9135 45.6715L77.1011 45.8508C78.3591 47.0416 79.7791 48.0489 81.327 48.8471C82.8707 49.6538 84.5337 50.2257 86.2352 50.819L86.3503 50.8616L86.4228 50.9385L86.4271 50.9427C86.6104 51.1562 86.6232 51.2927 86.6616 51.4208C86.6872 51.5446 86.7 51.6598 86.7043 51.7665C86.717 51.9799 86.7085 52.1805 86.6915 52.3768C86.6573 52.7695 86.5934 53.1493 86.5081 53.5207C86.3375 54.2633 86.0987 54.9804 85.7917 55.6676C85.4847 56.3547 85.1009 57.012 84.6233 57.5882C84.1457 58.1602 83.5487 58.6553 82.8579 58.9199C83.5146 58.5784 84.0263 58.0364 84.4229 57.4389C84.8194 56.8371 85.1094 56.1712 85.3269 55.4883C85.5444 54.8054 85.6936 54.1012 85.7704 53.3927C85.8088 53.0427 85.8258 52.6884 85.8173 52.3469C85.813 52.1762 85.8002 52.0097 85.7746 51.8604C85.7618 51.7878 85.7448 51.7153 85.7277 51.664C85.7149 51.6128 85.668 51.5744 85.7277 51.6512L85.9154 51.7665C84.2267 51.2244 82.4784 50.6781 80.8238 49.8672C79.1693 49.069 77.6129 48.0276 76.2398 46.7941L76.6875 46.9648C76.7302 46.9563 76.7813 46.8922 76.7302 46.9179C76.6918 46.9392 76.6321 47.0288 76.5852 47.1355C76.4871 47.3532 76.4231 47.6392 76.3805 47.9251C76.2995 48.5099 76.2952 49.133 76.3336 49.7476C76.4103 50.9811 76.6491 52.2317 77.1054 53.4182Z" fill="#D4D4D4"/>
</svg>
