<svg width="132" height="137" viewBox="0 0 132 137" fill="none" xmlns="http://www.w3.org/2000/svg">
<path d="M80.6464 93.195C78.2874 93.3869 76.9286 96.7869 76.5077 102.652C76.0867 108.518 78.875 120.778 83.3389 123.991C86.9024 125.338 95.3799 122.714 95.9759 120.249C96.2093 117.979 94.0712 116.565 91.9914 116.131C89.3865 113.207 86.719 109.273 86.5606 106.878C85.5937 99.5736 85.1019 92.8279 80.6464 93.195Z" fill="#E6E6E6"/>
<path d="M95.9718 120.248C95.3758 122.714 86.8982 125.334 83.3347 123.991C81.0799 122.368 79.2502 118.438 78.0498 114.183C81.8426 113.887 86.2647 112.226 88.0986 110.883C89.1406 112.656 90.5702 114.537 91.9873 116.127C94.067 116.561 96.2052 117.975 95.9718 120.248Z" fill="#EFEFEF"/>
<path d="M86.6274 107.404C86.7566 108.088 87.0525 108.872 87.4652 109.707C84.6768 111.204 81.6718 110.896 79.5962 109.498C81.2925 109.473 84.681 108.772 86.6274 107.404Z" fill="#1A1313"/>
<path d="M86.2814 104.755C86.3648 105.41 86.4481 106.069 86.5398 106.736C84.6518 107.316 83.0013 107.174 81.8218 106.503C83.2555 106.373 85.1353 105.564 86.2814 104.755Z" fill="#1A1313"/>
<path d="M86.1313 103.612C83.5889 104.801 79.1334 105.205 76.4784 104.788C76.4493 104.016 76.4576 103.295 76.5035 102.652C76.5076 102.602 76.5118 102.556 76.5118 102.51C79.2168 102.715 82.2843 102.081 83.5639 100.863C81.4132 100.825 79.8253 100.504 78.4415 99.3942C79.5627 99.5819 83.3972 98.5765 85.0018 97.4835C85.5103 99.2106 85.8312 101.326 86.1313 103.612Z" fill="#1A1313"/>
<path d="M96.5802 120.395L96.5885 120.357L96.5927 120.311C96.6594 119.694 96.5677 119.039 96.3134 118.459C96.0592 117.879 95.6632 117.387 95.2131 116.99C94.367 116.26 93.3709 115.822 92.3372 115.572C91.2953 114.291 90.3033 112.965 89.4114 111.592C88.9488 110.879 88.5111 110.157 88.1402 109.415C87.7651 108.68 87.4358 107.913 87.2983 107.174C87.1857 106.361 87.0399 105.472 86.9148 104.617C86.7898 103.754 86.6398 102.894 86.473 102.031C86.1229 100.316 85.6811 98.5765 84.86 96.9996C85.0976 98.7476 85.2185 100.458 85.3769 102.189C85.5353 103.925 85.7145 105.623 85.9062 107.408C86.0687 108.393 86.423 109.248 86.819 110.074C87.2232 110.887 87.6817 111.663 88.1777 112.406C89.1697 113.891 90.295 115.268 91.5204 116.544L91.6787 116.707L91.858 116.74C92.7916 116.936 93.7043 117.333 94.3879 117.929C94.7255 118.225 95.0005 118.576 95.1673 118.955C95.3256 119.322 95.384 119.719 95.3507 120.123C95.2881 120.353 95.0672 120.632 94.788 120.887C94.6754 120.641 94.5296 120.42 94.367 120.228C94.0836 119.894 93.7502 119.635 93.3959 119.435C92.6874 119.039 91.8788 118.868 91.1327 118.993C91.8788 119.08 92.5373 119.456 93.0208 119.94C93.5043 120.42 93.8002 121.066 93.7377 121.583C93.7377 121.596 93.7418 121.609 93.7377 121.625C93.5501 121.734 93.3542 121.842 93.1583 121.938C92.1705 122.43 91.1035 122.81 90.0199 123.102C88.9362 123.394 87.8234 123.598 86.7189 123.686C85.6519 123.761 84.5516 123.736 83.6347 123.423C82.7886 122.739 82.0884 121.796 81.4966 120.795C80.8922 119.76 80.3921 118.651 79.9336 117.52C79.025 115.251 78.3998 112.856 77.883 110.453C77.4037 108.046 77.0369 105.581 77.0703 103.161C77.1119 101.947 77.1953 100.7 77.3037 99.4776C77.4204 98.247 77.5662 97.0288 77.8455 95.7898C77.1536 96.862 76.741 98.0968 76.4409 99.3316C76.1491 100.579 75.9699 101.822 75.8782 103.107C75.7532 105.693 76.0366 108.226 76.4992 110.725C76.9535 113.223 77.6579 115.676 78.5915 118.058C79.0625 119.247 79.621 120.411 80.3129 121.517C81.0047 122.614 81.8216 123.694 82.9678 124.491L83.0512 124.55L83.1137 124.57C84.3766 125.017 85.6144 125.013 86.819 124.933C88.0235 124.842 89.1988 124.62 90.3533 124.312C91.5037 123.999 92.6373 123.598 93.7252 123.06C94.267 122.785 94.8005 122.48 95.309 122.088C95.5632 121.888 95.8091 121.671 96.0342 121.404C96.2593 121.141 96.4718 120.816 96.5802 120.395Z" fill="black"/>
<path d="M48.3119 98.247C48.8495 95.1975 50.4 93.266 53.2425 93.3327C55.8891 93.3953 57.7063 96.6325 58.3315 99.269C58.9567 101.906 59.7069 108.121 59.3776 111.459C58.9067 114.767 57.7605 116.903 55.7724 122.585C56.4601 126.256 54.6137 129.693 49.6122 127.979C44.6108 126.264 41.2848 120.757 42.135 117.687C42.977 115.643 45.8236 113.678 47.6116 108.781C48.1701 105.109 47.8242 100.996 48.3119 98.247Z" fill="#E6E6E6"/>
<path d="M57.2393 96.4239C57.6352 97.154 57.9561 97.9382 58.177 98.6975C56.7099 99.3566 54.4551 100.07 52.5337 98.8143C53.8924 98.7601 56.0514 97.6421 57.2393 96.4239Z" fill="#1A1313"/>
<path d="M58.4814 99.9782C58.694 101.042 58.9107 102.448 59.0858 103.958C57.0352 104.676 53.6925 105.155 50.875 102.957C51.7836 103.482 56.0807 102.035 58.4814 99.9782Z" fill="#1A1313"/>
<path d="M47.8947 105.856C49.9161 107.358 55.7178 108.409 59.3439 106.695C59.4689 108.463 59.4981 110.178 59.3772 111.463C59.223 112.535 59.0021 113.482 58.702 114.467C54.8467 116.027 51.8459 114.475 50.1829 112.185C52.7461 113.182 55.2469 112.664 56.5056 111.279C53.0087 112.18 49.1534 109.502 47.7446 107.729C47.8155 107.108 47.8613 106.482 47.8947 105.856Z" fill="#1A1313"/>
<path d="M58.1895 116.006C57.5893 117.687 56.7932 119.669 55.7679 122.585C56.4556 126.256 54.6093 129.693 49.6078 127.979C44.6063 126.264 41.2845 120.757 42.1306 117.687C42.8099 116.039 44.7897 114.442 46.4693 111.321C47.9948 113.72 53.4256 117.453 58.1895 116.006Z" fill="#EFEFEF"/>
<path d="M56.9061 95.8649C57.3562 96.9454 57.6771 98.0342 57.8688 99.1355C58.0481 100.241 58.1606 101.388 58.2898 102.519C58.5398 104.788 58.7149 107.078 58.7191 109.335C58.7191 109.899 58.7024 110.462 58.6607 111.008L58.6232 111.384L58.5565 111.797C58.5107 112.068 58.4565 112.343 58.3981 112.614C58.1689 113.699 57.8188 114.759 57.4479 115.835C56.681 117.983 55.8682 120.169 55.1805 122.38L55.1264 122.56L55.1555 122.706V122.71C55.3097 123.632 55.3014 124.579 55.0638 125.43C54.8346 126.281 54.3428 126.998 53.6384 127.37C53.4425 127.474 53.23 127.553 53.0091 127.612C53.0132 127.595 53.0216 127.578 53.0257 127.562C53.1383 127.14 53.1633 126.715 53.1258 126.31C53.0507 125.501 52.7298 124.737 52.2088 124.191C52.5589 124.858 52.6256 125.613 52.5006 126.285C52.3922 126.877 52.1005 127.416 51.717 127.703C51.5295 127.687 51.3377 127.666 51.146 127.632C50.2541 127.47 49.3538 127.136 48.5161 126.706C46.8447 125.834 45.386 124.512 44.3107 122.948C43.773 122.168 43.3312 121.321 43.0478 120.445C42.7727 119.594 42.6518 118.684 42.8435 117.933C43.1186 117.287 43.6313 116.623 44.1481 115.956C44.6858 115.272 45.2401 114.571 45.7569 113.828C46.7947 112.351 47.645 110.72 48.241 109.01L48.266 108.939L48.2743 108.881C48.5953 106.595 48.5744 104.329 48.6161 102.102C48.6453 100.988 48.6411 99.8864 48.7036 98.8018C48.762 97.7172 48.8953 96.6492 49.2288 95.552C48.4494 96.4072 48.0243 97.5503 47.7783 98.6725C47.5449 99.8072 47.4657 100.942 47.4282 102.064C47.3449 104.279 47.3074 106.478 46.9698 108.597C46.3738 110.166 45.5819 111.638 44.6024 113.002C44.1106 113.695 43.5688 114.358 43.0186 115.046C42.4768 115.739 41.8766 116.44 41.4598 117.399L41.4431 117.437L41.4306 117.483C41.1097 118.692 41.3181 119.852 41.6432 120.891C41.985 121.938 42.4935 122.898 43.0978 123.778C44.3148 125.538 45.932 127.011 47.845 128.008C48.8036 128.504 49.8206 128.871 50.9209 129.047C52.0046 129.218 53.2425 129.18 54.3261 128.571C54.8638 128.275 55.3222 127.841 55.664 127.349C56.0058 126.852 56.235 126.306 56.3767 125.755C56.6393 124.704 56.6101 123.644 56.4309 122.635L57.6313 119.564C58.0564 118.496 58.4857 117.424 58.8858 116.327C59.2901 115.234 59.6485 114.091 59.9028 112.915C59.9653 112.623 60.0195 112.326 60.0695 112.03L60.1362 111.588L60.1528 111.442L60.1612 111.329L60.1778 111.104C60.2154 110.499 60.2195 109.907 60.207 109.314C60.1904 108.134 60.1028 106.966 59.982 105.806C59.8569 104.646 59.7235 103.487 59.5151 102.339C59.4193 101.764 59.3068 101.192 59.1692 100.621C59.04 100.049 58.8858 99.4818 58.6899 98.9144C58.2689 97.8006 57.6938 96.7368 56.9061 95.8649Z" fill="black"/>
<path d="M49.1872 77.1381C48.6037 75.5696 46.5656 75.5904 43.5438 76.7126C29.869 81.7979 28.1768 78.569 22.7585 73.0248C16.0649 66.1707 7.36648 65.1028 2.86098 70.9306C1.82734 74.1345 4.1072 79.0738 10.905 78.6191C17.1736 78.2019 18.9783 81.994 25.0467 85.9696C30.7276 88.8982 41.1306 84.5846 45.0568 82.382C48.9829 80.1793 50.0083 79.3533 49.1872 77.1381Z" fill="#E6E6E6"/>
<path d="M49.1868 77.1382C50.0121 79.3533 48.9826 80.1835 45.0564 82.3862C41.6679 84.2843 33.453 87.7593 27.6138 86.7873C34.4991 85.8695 36.5081 81.8939 36.2247 78.907C38.2127 78.5232 40.5968 77.814 43.5393 76.7168C46.5652 75.5946 48.6033 75.5696 49.1868 77.1382Z" fill="#D4D4D4"/>
<path d="M39.4092 78.1143C37.9713 80.1251 38.5298 83.4916 39.0716 85.0602C38.0713 85.419 37.021 85.7569 35.954 86.0364C34.9787 83.817 34.9912 81.677 35.2246 80.8802C34.3244 81.4767 34.1077 82.1358 33.8242 83.0369C33.2657 81.7395 33.4283 80.1543 33.9701 79.2115C35.4747 79.103 37.2502 78.7526 39.4092 78.1143Z" fill="#332525"/>
<path d="M37.8253 78.5482C37.7503 78.5649 37.6836 78.5815 37.6085 78.5982C37.4252 78.6441 37.2418 78.6858 37.0626 78.7275C36.9625 78.7484 36.8708 78.7693 36.7708 78.7901C36.6249 78.8235 36.479 78.8527 36.3332 78.8819C36.2998 78.8902 36.2623 78.8986 36.2248 78.9028C36.3457 80.1751 36.0456 81.6311 35.1328 82.9493C35.2245 83.8546 35.4621 84.935 35.9456 86.0322C35.9497 86.0322 35.9539 86.0322 35.9581 86.028C36.4499 85.8987 36.9334 85.7569 37.4127 85.6067C37.5002 85.5817 37.5877 85.5525 37.6752 85.5233C38.1337 85.3772 38.588 85.2271 39.0298 85.0685C39.0423 85.0644 39.0548 85.0602 39.0715 85.0519C38.5297 83.4875 37.9753 80.1209 39.4091 78.1101C39.1715 78.1811 38.9423 78.2436 38.713 78.3104C38.688 78.3187 38.6589 78.3271 38.6339 78.3312C38.3588 78.4105 38.0879 78.4814 37.8253 78.5482Z" fill="#1A1313"/>
<path d="M28.4519 78.1727C29.5064 78.7609 30.6776 79.1322 32.1113 79.2323C28.7353 81.3641 29.3063 85.5775 30.1149 86.9542C29.0563 86.9792 28.031 86.8999 27.0807 86.6913L27.0932 86.6371C24.7717 82.7658 26.7389 79.4493 28.4519 78.1727Z" fill="#332525"/>
<path d="M22.7585 73.0248C23.7296 74.0219 24.5841 74.9397 25.4051 75.7531C21.4331 78.0351 20.9955 81.2473 21.4165 83.2956C20.4328 82.503 19.5534 81.7646 18.6948 81.118C18.5156 77.839 20.3953 75.9617 21.2664 75.3652C19.3409 75.4152 18.0821 76.917 17.7487 77.6387C16.9276 74.1721 20.0327 72.3198 21.5373 71.8651C21.9541 72.2322 22.3584 72.616 22.7585 73.0248Z" fill="#332525"/>
<path d="M17.1152 68.8072C11.972 71.402 12.3805 76.6167 13.7017 78.7484C12.8639 78.6024 11.9428 78.5523 10.905 78.6233C4.1072 79.0738 1.83151 74.1345 2.86515 70.9348C6.17446 66.6505 11.7386 66.0873 17.1152 68.8072Z" fill="#332525"/>
<path d="M39.7758 85.4649C36.0705 86.8415 29.1935 88.8147 24.7588 86.5245L24.7046 86.4911C22.8791 85.298 21.4328 84.1174 20.1575 83.0787C17.1191 80.6007 15.1143 78.9654 10.9464 79.2449C7.6496 79.466 4.95714 78.4606 3.36918 76.4248C2.08963 74.7811 1.66867 72.6035 2.26884 70.7429L2.30219 70.6386L2.36887 70.551C3.58173 68.9825 5.10302 67.8478 6.88271 67.1845C11.88 65.3239 18.136 67.3972 23.2042 72.5868C23.5835 72.979 23.9502 73.3544 24.3003 73.7215C28.8975 78.5232 30.9982 80.7133 43.3268 76.1286C46.9112 74.7937 49.0827 75.0606 49.7704 76.9212C50.8124 79.7204 49.0743 80.8468 45.3607 82.9285C43.8186 83.7962 41.7847 84.7181 39.7758 85.4649ZM25.359 85.4273C29.3685 87.4715 35.8371 85.5942 39.3381 84.2926C42.1056 83.2622 44.0437 82.2318 44.7481 81.8355C48.7117 79.612 49.216 79.0238 48.5992 77.3551C48.1991 76.2746 46.5694 76.2579 43.7603 77.3008C30.6606 82.1734 28.0806 79.4785 23.3959 74.5892C23.05 74.2263 22.6874 73.8508 22.3081 73.4629C17.5859 68.6279 11.8425 66.6713 7.31616 68.3567C5.78654 68.9241 4.47784 69.8919 3.42336 71.2268C2.99407 72.6786 3.34833 74.364 4.35279 75.653C5.67818 77.3551 7.99137 78.1852 10.863 77.9975C15.5228 77.6888 17.9151 79.6412 20.9494 82.1108C22.1956 83.1287 23.6043 84.2759 25.359 85.4273Z" fill="black"/>
<path d="M95.8965 78.4856C93.7458 74.7978 88.2109 74.1512 84.3264 75.0856C80.4419 76.0201 74.8819 76.867 71.0141 76.8211C60.8028 74.2054 53.6381 73.3544 47.5613 74.9229C42.1472 76.625 37.0916 81.6352 36.4206 88.7688C36.2288 97.4877 41.5054 104.759 53.6173 106.536C68.5426 106.903 80.9462 103.516 87.9399 99.0479C96.9551 93.2951 100.156 85.7819 95.8965 78.4856Z" fill="#E6E6E6"/>
<path d="M95.8964 78.4856C100.156 85.7861 96.9551 93.2951 87.9441 99.0479C80.9462 103.516 68.5467 106.907 53.6214 106.536C41.5054 104.755 36.2288 97.4835 36.4247 88.7647C36.8498 84.2509 39.0338 80.584 41.9513 78.0768C41.497 82.6448 45.6691 89.0817 57.4642 88.5895C71.0016 88.0304 77.9619 81.5685 75.332 76.5958C78.4121 76.2913 81.7422 75.7072 84.3305 75.0856C88.215 74.1512 93.7458 74.7978 95.8964 78.4856Z" fill="#D4D4D4"/>
<path d="M97.7052 83.8421C98.2428 89.3487 94.7501 94.701 87.9398 99.0479C80.9419 103.516 68.5424 106.907 53.6171 106.536C47.457 105.631 43.0682 103.307 40.2632 100.095C45.2313 102.344 53.6213 102.932 63.5076 102.139C72.8395 101.388 81.838 98.5974 88.1482 94.2922C92.016 91.6515 94.0374 88.7897 95.7379 85.2187C96.2297 84.1758 97.0633 83.6043 97.7052 83.8421Z" fill="#EFEFEF"/>
<path d="M71.0141 76.8169C72.4187 76.8336 74.0525 76.7335 75.7405 76.5541C73.344 78.9153 71.7977 82.9827 71.4101 86.8373C70.7724 88.6228 69.893 90.984 69.4261 92.7278C68.5676 89.4446 68.1424 85.9529 68.6384 83.0619C67.6423 83.7586 65.8876 86.5328 65.2207 87.9053C63.887 83.817 64.5289 79.5911 66.4961 77.8807C65.9584 79.1739 65.9293 81.6853 66.196 82.5029C67.2297 80.1876 69.1302 77.9307 70.6473 76.7251C70.764 76.7543 70.8891 76.7835 71.0141 76.8169Z" fill="#332525"/>
<path d="M64.8667 75.3944C63.3913 76.7502 61.7199 79.9332 60.928 83.3999C59.6735 86.3117 59.0608 87.5382 58.073 91.2677C57.5229 87.3672 57.1436 83.0411 57.8188 80.7967C56.4601 82.2526 55.018 84.0256 54.4303 86.0572C54.126 81.7604 56.3934 77.2466 61.2948 74.7519C62.4368 74.9271 63.6288 75.1399 64.8667 75.3944Z" fill="#332525"/>
<path d="M57.952 74.3264C55.0345 75.5612 52.2795 79.1656 50.875 83.0619C50.4373 80.8593 50.7541 78.398 52.2045 76.2746C49.7621 77.1798 47.6574 79.395 46.632 81.1263C45.5109 83.0202 44.8857 85.0143 44.3855 87.2837C43.9646 84.7348 43.8938 81.8104 44.8732 78.9528C45.9068 76.7835 48.2158 75.3318 50.4082 74.3723H50.4123C52.7172 74.0719 55.2012 74.0636 57.952 74.3264Z" fill="#332525"/>
<path d="M71.7265 84.7599C71.5848 85.4524 71.4764 86.1491 71.4055 86.8374C70.7678 88.6229 69.8884 90.9841 69.4216 92.7278C68.8756 90.6462 68.5088 88.4852 68.438 86.4453C69.6842 85.9405 70.7845 85.3731 71.7265 84.7599Z" fill="#1A1313"/>
<path d="M65.4627 87.4298C65.3668 87.6008 65.2835 87.7593 65.2168 87.9012C65.1751 87.776 65.1376 87.6509 65.1001 87.5257C65.221 87.4965 65.3377 87.4632 65.4627 87.4298Z" fill="#1A1313"/>
<path d="M57.7354 88.577C58.123 88.5603 58.5022 88.5353 58.8774 88.5103C58.6231 89.282 58.3647 90.1664 58.073 91.2636C57.9437 90.3833 57.8312 89.4781 57.7354 88.577Z" fill="#1A1313"/>
<path d="M44.9521 85.0894C44.7353 85.7944 44.552 86.5287 44.3852 87.2879C44.2227 86.3117 44.1143 85.2855 44.0977 84.2259C44.3561 84.5221 44.6395 84.8099 44.9521 85.0894Z" fill="#1A1313"/>
<path d="M61.9991 106.97C59.2525 107.166 56.4266 107.229 53.6008 107.158L53.5258 107.149C42.0349 105.464 35.5746 98.7559 35.7955 88.748L35.7997 88.7021C36.5666 80.5339 42.5142 75.8491 47.374 74.3222C48.8619 73.9342 50.3582 73.6965 51.9795 73.5838C56.8684 73.2376 62.5909 74.0177 71.0976 76.1911C71.9062 76.1995 72.819 76.1661 73.8109 76.0952C76.9827 75.8699 80.9547 75.2483 84.1807 74.4724C84.9351 74.2888 85.7353 74.1679 86.5563 74.1095C90.0449 73.8633 94.4754 74.7978 96.4384 78.1644C100.815 85.6651 97.8388 93.4662 88.2777 99.5694C82.0842 103.528 72.5064 106.227 61.9991 106.97ZM53.6716 105.91C56.4433 105.977 59.2149 105.915 61.9116 105.723C72.2146 104.993 81.5799 102.364 87.6025 98.5181C96.5218 92.8279 99.3435 85.6401 95.3548 78.7985C93.6793 75.9283 89.7573 75.1399 86.6397 75.361C85.8895 75.4152 85.1601 75.5237 84.4682 75.6905C81.1798 76.4832 77.1286 77.1173 73.8943 77.3467C72.8356 77.4218 71.8603 77.4552 71.0017 77.4427L70.8559 77.4218C62.5576 75.2984 56.7601 74.4974 52.0628 74.8312C50.5207 74.9396 49.0994 75.1691 47.7157 75.5237C43.2561 76.9254 37.7628 81.2514 37.0459 88.798C36.85 98.0842 42.906 104.317 53.6716 105.91Z" fill="black"/>
<path d="M77.0448 93.8041C74.2607 93.5455 72.2684 96.2863 70.3345 101.843C67.342 110.433 67.592 123.356 71.0847 127.09C73.3437 128.997 83.6176 128.292 84.4137 126.414C85.1139 124.358 83.7927 122.505 81.9921 121.592C80.3208 116.669 79.358 113.082 79.5539 109.523C80.2124 103.92 82.7257 94.3339 77.0448 93.8041Z" fill="#E6E6E6"/>
<path d="M84.4098 126.414C83.6137 128.292 73.3398 128.997 71.0808 127.09C67.5881 123.356 67.3381 110.428 70.3306 101.843C72.2645 96.2863 74.2568 93.5455 77.0409 93.8041C77.9745 93.8917 78.6831 94.2213 79.2207 94.7386C77.191 95.0514 74.6861 97.9883 73.494 103.804C71.8852 111.672 76.9117 116.194 79.8668 114.074C80.271 116.298 81.0004 118.718 81.9799 121.592C83.7887 122.505 85.11 124.358 84.4098 126.414Z" fill="#D4D4D4"/>
<path d="M84.4093 126.414C83.6133 128.292 73.3394 128.997 71.0804 127.09C69.334 125.225 68.4046 121.066 68.2754 116.294C72.4933 117.412 78.2367 116.99 80.2873 116.002C80.6999 117.695 81.2792 119.527 81.9794 121.592C83.7883 122.505 85.1095 124.358 84.4093 126.414Z" fill="white"/>
<path d="M79.5786 111.784C79.6369 112.639 79.762 113.52 79.9412 114.429C75.9483 115.242 72.464 113.578 70.6968 111.071C72.6515 111.843 77.0987 112.685 79.5786 111.784Z" fill="#332525"/>
<path d="M79.5452 109.527C79.5119 110.136 79.5161 110.745 79.5452 111.359C77.0695 111.229 75.2106 110.349 74.1812 109.093C75.7441 109.586 78.074 109.573 79.5828 109.244C79.5703 109.335 79.5577 109.431 79.5452 109.527Z" fill="#332525"/>
<path d="M80.5915 101.689C80.4248 103.841 80.0289 106.119 79.7371 108.092C76.6445 108.155 71.939 106.682 69.3799 105.164C69.5674 104.354 69.78 103.566 70.0176 102.807C72.7684 104.242 76.3611 104.993 78.2283 104.317C76.0235 103.374 74.5189 102.389 73.5353 100.717C74.5397 101.334 78.3784 101.922 80.5915 101.689Z" fill="#332525"/>
<path d="M73.4394 104.121C73.2602 105.084 73.181 105.998 73.1893 106.849C71.7389 106.353 70.3927 105.764 69.3799 105.164C69.5674 104.354 69.78 103.566 70.0176 102.807C71.0804 103.361 72.2682 103.816 73.4394 104.121Z" fill="#1A1313"/>
<path d="M79.8706 114.074C79.8914 114.191 79.9123 114.312 79.9373 114.429C75.9444 115.242 72.4601 113.578 70.6929 111.071C71.5848 111.425 73.0019 111.792 74.5065 111.997C75.9361 114.375 78.2243 115.259 79.8706 114.074Z" fill="#1A1313"/>
<path d="M74.2354 101.017C74.1812 101.176 74.1312 101.338 74.077 101.505C73.8811 101.263 73.6977 101 73.5352 100.717C73.6977 100.821 73.9436 100.921 74.2354 101.017Z" fill="#1A1313"/>
<path d="M85.0723 126.644C85.2557 126.093 85.3307 125.484 85.264 124.892C85.2015 124.299 85.0014 123.732 84.7139 123.235C84.1762 122.322 83.3843 121.642 82.5091 121.166C81.9672 119.314 81.4171 117.474 80.9878 115.63C80.5376 113.711 80.2334 111.78 80.2792 109.853L80.2876 109.673L80.2917 109.59L80.2959 109.544L80.3376 109.173L80.4251 108.434L80.6168 106.941C80.7544 105.944 80.8711 104.938 80.9628 103.92C81.0419 102.907 81.0836 101.881 81.0419 100.854C80.9919 99.8322 80.8711 98.7935 80.5543 97.8173C80.4751 99.8531 80.1125 101.793 79.7707 103.766L79.2498 106.732L78.9955 108.23L78.8746 108.989L78.8204 109.365L78.8121 109.41L78.8038 109.506L78.7996 109.607L78.7871 109.803C78.6829 111.913 78.9955 114.003 79.4956 115.998C79.7457 116.995 80.0375 117.975 80.3626 118.939C80.6877 119.902 81.0211 120.862 81.3921 121.805L81.4963 122.063L81.7046 122.159C82.4799 122.572 83.1509 123.181 83.5427 123.907C83.9386 124.612 84.0137 125.413 83.7552 126.16C83.7469 126.177 83.6135 126.314 83.4343 126.406C83.3635 126.097 83.2468 125.814 83.1009 125.563C82.8758 125.188 82.5882 124.875 82.2715 124.62C81.638 124.116 80.8669 123.811 80.1167 123.807C80.8377 124.02 81.4254 124.495 81.8213 125.054C82.2173 125.609 82.4007 126.293 82.2548 126.794C82.2506 126.811 82.2506 126.831 82.2465 126.848C81.8964 126.944 81.5379 127.028 81.1711 127.098C80.075 127.295 78.9455 127.403 77.8202 127.453C76.6948 127.499 75.557 127.478 74.4567 127.357C73.9065 127.295 73.3605 127.207 72.8479 127.073C72.3644 126.948 71.8767 126.761 71.6016 126.539C70.8556 125.705 70.368 124.516 70.0095 123.323C69.6511 122.092 69.4052 120.808 69.251 119.506C68.9342 116.903 68.93 114.245 69.1051 111.605C69.2885 108.968 69.6969 106.34 70.368 103.791C70.6931 102.519 71.1015 101.255 71.5016 99.9866C71.9184 98.7225 72.3602 97.4752 72.9312 96.2445C71.9934 97.2374 71.2932 98.4389 70.693 99.657C70.3888 100.266 70.1221 100.892 69.8678 101.522C69.6052 102.147 69.3927 102.811 69.1926 103.457C68.4132 106.081 67.9631 108.781 67.7172 111.492C67.4713 114.208 67.4671 116.945 67.763 119.677C67.9172 121.041 68.1465 122.409 68.5466 123.757C68.7467 124.429 68.9884 125.1 69.301 125.751C69.6136 126.402 69.997 127.048 70.5305 127.62L70.568 127.657L70.5972 127.683C71.2349 128.191 71.8642 128.371 72.4769 128.542C73.0896 128.7 73.6939 128.792 74.2983 128.859C75.5028 128.988 76.699 129.005 77.891 128.955C79.083 128.905 80.2709 128.78 81.4587 128.538C82.0506 128.417 82.6466 128.271 83.2468 128.05C83.5468 127.937 83.847 127.812 84.1554 127.628C84.4513 127.436 84.8097 127.232 85.0598 126.694L85.0681 126.677L85.0723 126.644Z" fill="black"/>
<path d="M41.889 95.7731C43.2852 93.2367 45.4359 91.5263 48.1617 92.3315C50.4915 93.0198 51.6794 95.8733 51.5252 99.4025C51.4043 102.11 49.3203 110.236 47.2364 113.924C44.2647 118.647 37.5544 123.023 36.2206 124.095C35.8872 126.827 33.2239 130.302 29.1185 126.973C25.009 123.644 22.7917 117.157 24.6172 113.762C24.909 112.852 33.2573 110.216 37.1001 105.356C40.3719 100.667 40.5427 98.2177 41.889 95.7731Z" fill="#E6E6E6"/>
<path d="M48.1621 92.3315C50.4919 93.0157 51.6798 95.8733 51.5214 99.4025C51.4005 102.114 49.3166 110.236 47.2327 113.924C44.2609 118.647 37.5506 123.023 36.2211 124.095C35.8876 126.827 33.2243 130.302 29.119 126.973C25.0136 123.644 22.7921 117.157 24.6176 113.762C24.8719 112.977 31.1404 110.9 35.3166 107.216C35.7793 114.613 44.8319 106.878 46.4949 101.1C47.7495 96.7368 46.2115 93.8917 44.4443 92.853C45.5196 92.1688 46.7617 91.9227 48.1621 92.3315Z" fill="#D4D4D4"/>
<path d="M51.521 99.4401C51.4877 100.083 51.3501 101.021 51.1251 102.131C49.3954 101.91 47.1447 101.267 45.936 99.2732C47.2489 99.924 49.5496 99.828 51.521 99.4401Z" fill="#1A1313"/>
<path d="M50.7917 103.683C50.4833 104.997 50.0957 106.44 49.658 107.859C47.2615 107.471 43.6813 106.148 42.085 102.452C42.6685 103.42 47.3573 104.279 50.7917 103.683Z" fill="#1A1313"/>
<path d="M48.691 110.679C48.2201 111.922 47.7283 113.052 47.2323 113.924C46.3445 115.33 45.1317 116.711 43.8188 117.983C39.0382 117.516 36.8626 114.337 36.4541 111.138C38.438 113.495 41.1722 114.333 43.1477 113.653C39.4967 112.719 37.2043 108.568 36.5666 105.99C36.7542 105.781 36.9334 105.572 37.1043 105.356C37.3835 104.955 37.6419 104.571 37.8753 104.204C39.4675 106.832 44.4315 110.599 48.691 110.679Z" fill="#1A1313"/>
<path d="M46.836 99.5736C46.8027 99.7947 46.761 100.02 46.711 100.254C46.4276 99.9699 46.1608 99.6445 45.9399 99.2732C46.1984 99.4025 46.5026 99.5068 46.836 99.5736Z" fill="#332525"/>
<path d="M42.0806 102.452C42.3765 102.936 43.6935 103.391 45.369 103.658C45.0273 104.246 44.6396 104.838 44.2104 105.401C43.3601 104.642 42.6099 103.679 42.0806 102.452Z" fill="#332525"/>
<path d="M37.8749 104.204C38.6043 105.406 40.0297 106.841 41.776 108.055C40.659 109.052 39.5004 109.794 38.4792 110.099C37.5081 108.71 36.8621 107.179 36.562 105.99C36.7496 105.781 36.9288 105.572 37.0997 105.356C37.3789 104.955 37.6373 104.571 37.8749 104.204Z" fill="#332525"/>
<path d="M42.4268 119.264C39.7385 121.638 37.021 123.457 36.225 124.095C35.8915 126.827 33.2282 130.302 29.1229 126.973C25.0175 123.644 22.796 117.157 24.6215 113.762C24.8383 113.09 29.423 111.488 33.3575 108.751C33.6701 111.634 37.1127 118.609 42.4268 119.264Z" fill="white"/>
<path d="M50.9126 95.1265C51.196 96.5616 51.2002 97.9716 51.0501 99.365C50.8751 100.721 50.5291 102.127 50.1999 103.512C49.8539 104.897 49.458 106.273 49.0162 107.629C48.5744 108.985 48.1034 110.332 47.5449 111.626C47.2657 112.272 46.9656 112.906 46.6322 113.499L46.6072 113.545L46.603 113.549L46.5863 113.578L46.5113 113.691L46.3696 113.903L46.0737 114.325C45.8694 114.604 45.6569 114.88 45.436 115.147C44.5524 116.223 43.5563 117.228 42.5184 118.192C41.4723 119.147 40.3845 120.069 39.2675 120.958C38.1422 121.859 37.0085 122.668 35.829 123.607L35.6289 123.769L35.5997 124.02V124.024C35.4747 124.921 35.0954 125.814 34.5327 126.502C33.9784 127.199 33.2157 127.645 32.403 127.653C32.3904 127.653 32.3738 127.653 32.3613 127.653C32.3863 127.595 32.4155 127.541 32.4405 127.482C32.5989 127.073 32.6697 126.656 32.6822 126.252C32.6989 125.442 32.4696 124.646 32.0112 124.045C32.2821 124.746 32.2654 125.505 32.0654 126.16C31.9028 126.698 31.5819 127.169 31.2068 127.428C30.7858 127.265 30.369 127.028 29.9772 126.748C29.2062 126.185 28.5143 125.497 27.8891 124.746C26.6429 123.244 25.6926 121.467 25.1383 119.594C24.8632 118.659 24.6965 117.695 24.684 116.748C24.6757 115.806 24.8341 114.871 25.2425 114.104L25.2467 114.099C25.2675 114.079 25.3009 114.054 25.3425 114.024C25.4342 113.958 25.5509 113.887 25.6676 113.816C25.9094 113.678 26.1678 113.54 26.4304 113.403L28.0392 112.585C29.1228 112.034 30.2023 111.467 31.2651 110.85C33.3741 109.607 35.4455 108.188 37.1168 106.286C37.221 106.169 37.3211 106.044 37.4211 105.923L37.5712 105.735L37.7212 105.518L38.2297 104.746C38.5631 104.229 38.8799 103.704 39.18 103.165C39.7843 102.093 40.3136 100.967 40.7679 99.8281C41.2306 98.6892 41.5723 97.5336 42.0183 96.4573C42.4643 95.3727 43.0103 94.3339 43.7646 93.3661C42.6977 93.9918 41.8766 95.0056 41.2472 96.0777C40.6262 97.1707 40.2094 98.3179 39.751 99.4109C39.2967 100.508 38.7715 101.568 38.1755 102.59C37.8796 103.103 37.5628 103.603 37.2336 104.1L36.7334 104.834L36.625 104.988L36.4875 105.155C36.3958 105.264 36.2999 105.376 36.2041 105.481C34.6494 107.195 32.6614 108.526 30.5983 109.694C29.5605 110.278 28.4976 110.816 27.4182 111.342C26.8763 111.609 26.3345 111.863 25.7843 112.143C25.5092 112.285 25.2342 112.427 24.9549 112.589C24.8132 112.673 24.6715 112.76 24.5173 112.869C24.4423 112.923 24.3589 112.986 24.2672 113.069C24.1839 113.161 24.0588 113.24 23.9421 113.549L23.9921 113.428C23.4253 114.487 23.2502 115.651 23.2586 116.757C23.2711 117.871 23.4628 118.951 23.7629 119.99C24.3756 122.067 25.4051 123.995 26.7805 125.659C27.4723 126.485 28.2642 127.249 29.1603 127.887C30.0648 128.521 31.1776 129.055 32.4405 129.017C33.0615 129.001 33.6867 128.817 34.2201 128.509C34.7578 128.204 35.2038 127.787 35.5664 127.328C36.2249 126.473 36.6292 125.488 36.7959 124.449C37.2919 124.091 37.8379 123.728 38.3547 123.352C38.9466 122.931 39.5342 122.501 40.1136 122.063C41.2764 121.187 42.4226 120.274 43.5062 119.285C44.5941 118.3 45.6402 117.249 46.578 116.089C46.8114 115.797 47.0406 115.501 47.2615 115.197L47.5866 114.729L47.745 114.492L47.8159 114.379L47.8742 114.287L47.9075 114.225C48.2785 113.557 48.5786 112.877 48.862 112.193C49.9748 109.456 50.7542 106.649 51.3877 103.8C51.5461 103.086 51.6878 102.369 51.7962 101.643C51.9129 100.917 51.9879 100.187 51.9879 99.4151C51.9587 97.9216 51.6795 96.3906 50.9126 95.1265ZM25.2342 114.099C25.2258 114.104 25.2217 114.112 25.2342 114.099Z" fill="black"/>
<path d="M101.09 63.4049C103.036 61.4567 105.52 57.5812 105.082 55.5287C104.749 54.006 103.67 53.8141 101.24 52.6127C98.3013 51.1609 95.7172 48.8581 93.9125 47.3939C91.8494 46.3384 90.0489 48.1489 88.9319 51.5697C87.5565 55.7748 88.0817 63.3882 93.7125 66.4961C95.8048 67.0843 98.4347 66.0622 101.09 63.4049Z" fill="#E6E6E6"/>
<path d="M105.083 55.5287C104.937 55.2617 104.783 55.0156 104.587 54.8279C104.395 54.636 104.178 54.5025 103.941 54.3815C103.461 54.152 102.915 53.9768 102.369 53.7724C101.823 53.568 101.273 53.3427 100.731 53.0841C100.181 52.8129 99.6561 52.5251 99.1392 52.2164C98.1056 51.599 97.1262 50.9106 96.1801 50.1931C95.2298 49.4797 94.317 48.7288 93.4209 47.9988L93.5585 48.0864C92.8541 47.7318 92.233 47.8403 91.6162 48.3826C91.0119 48.9249 90.5284 49.7467 90.1408 50.6061C89.949 51.04 89.7782 51.4905 89.6323 51.9536C89.4906 52.3958 89.378 52.863 89.2905 53.3344C89.1196 54.2772 89.0321 55.245 89.0321 56.2129C89.0363 58.1485 89.4031 60.0967 90.1991 61.8447C90.966 63.6135 92.1372 65.1653 93.7127 66.5045C91.7162 65.8954 90.0491 64.2893 89.0654 62.3995C88.0902 60.4889 87.64 58.3613 87.5567 56.2462C87.5192 55.1866 87.5775 54.1187 87.7651 53.0632C87.8568 52.5334 87.9776 52.012 88.136 51.4863C88.2944 50.9774 88.4736 50.4768 88.6862 49.9803C89.1155 48.9958 89.6448 47.9988 90.5742 47.1853C91.0327 46.789 91.6329 46.4427 92.3289 46.3468C93.0208 46.2425 93.7168 46.4219 94.267 46.7097L94.3462 46.7514L94.4045 46.7973C95.3215 47.5482 96.1926 48.3117 97.0886 49.0375C97.9847 49.7634 98.9017 50.4517 99.8561 51.0692C100.331 51.3779 100.823 51.6699 101.315 51.9327C101.819 52.2039 102.332 52.4708 102.845 52.7587C103.099 52.9047 103.357 53.0549 103.616 53.2259C103.87 53.3928 104.132 53.5722 104.366 53.8016C104.603 54.0227 104.816 54.3022 104.941 54.6068C105.062 54.9071 105.099 55.2283 105.083 55.5287Z" fill="black"/>
<path d="M108.371 53.6097C108.438 52.6127 107.746 51.0817 106.5 50.1138C110.872 51.0149 112.051 53.447 113.11 55.9792C113.648 53.9309 113.302 51.3612 111.739 49.8635C114.231 50.1138 118.095 52.7503 117.82 57.965C119.349 56.1586 119.625 53.3761 119.47 51.6115C123.167 54.6985 123.513 59.1456 121.467 62.2201C123.463 65.0902 123.959 70.4592 123.338 72.9539C122.092 74.3264 119.845 77.9474 120.971 79.4451C121.842 80.5673 123.092 80.4421 123.838 80.317C124.463 79.6912 128.952 79.6912 129.077 81.8146C129.202 83.938 128.081 86.0572 126.956 86.5578C126.456 88.9315 122.821 91.0633 121.467 90.9256C119.595 90.5502 116.603 88.9274 115.732 85.4356C112.364 87.1836 112.614 92.9239 115.232 95.1724C115.832 96.2362 112.985 98.6683 110.243 99.2899C107.017 98.7684 103.757 96.4197 102.011 93.1742C97.693 92.4817 92.9166 92.9322 89.2905 93.2993C89.0821 92.4817 89.2905 90.0537 90.0366 88.9315C87.044 89.0567 82.797 87.5173 81.0756 85.3856C83.072 84.7598 85.2977 83.6877 86.1688 82.941C83.4263 80.9427 76.9202 76.0577 76.4409 67.4639C77.7288 68.8573 79.2501 69.6708 80.9297 70.7095C78.5582 67.0885 77.9372 64.3435 78.0622 60.5973C81.3757 60.7475 86.6898 58.9704 93.0291 55.2283C97.1137 52.8213 103.507 51.2402 108.371 53.6097Z" fill="#E6E6E6"/>
<path d="M124.963 82.6823C123.971 81.7103 123.812 81.3724 123.833 80.3253C124.458 79.6996 128.947 79.6996 129.072 81.823C129.197 83.9422 128.076 86.0656 126.951 86.5662C125.78 86.099 126.447 84.3009 125.4 83.1037C125.238 82.9493 125.092 82.8116 124.963 82.6823Z" fill="black"/>
<path d="M125.401 83.1036C126.422 84.2258 125.73 85.9195 126.951 86.5661C126.455 88.9357 122.821 91.0716 121.466 90.9339C119.595 90.5585 116.602 88.9357 115.727 85.4398C112.364 87.1877 112.609 92.9322 115.231 95.1765C115.831 96.2403 112.985 98.6724 110.242 99.2982C107.016 98.7767 103.757 96.4239 102.01 93.1783C101.573 93.1074 101.127 93.049 100.681 93.0031C100.018 88.0137 104.261 85.3772 106.216 84.9726C104.695 84.6263 102.894 84.2133 101.093 84.7681C104.97 79.9832 110.926 80.9552 112.313 81.0929C115.014 80.4671 119.445 81.6477 120.97 82.4779C122 82.4236 123.804 82.3694 124.963 82.6823C125.092 82.8116 125.238 82.9493 125.401 83.1036Z" fill="#F5F5F5"/>
<path d="M93.0328 55.2325C96.1254 53.4053 100.539 52.0578 104.611 52.5376C100.377 52.8838 94.1915 55.7873 92.3243 62.6248C90.4821 69.3704 92.2534 72.6035 94.4082 75.0022C92.4618 75.557 90.7947 75.8366 87.2519 75.3151C90.4821 79.6954 94.7541 80.3211 97.605 80.9803C95.5877 82.7199 92.2201 84.0757 90.6905 84.4928C92.7744 86.1615 94.7542 86.8916 97.0465 87.2378C96.2129 88.4893 95.1709 89.0817 94.2332 89.8118C95.5669 90.9423 97.2007 91.9685 99.4389 92.8946C95.8711 92.661 92.2076 93.0073 89.29 93.3035C89.0816 92.49 89.29 90.0579 90.0403 88.9357C87.0477 89.0608 82.8006 87.5215 81.0793 85.3898C83.0757 84.7682 85.3014 83.6919 86.1724 82.9451C83.43 80.9469 76.9239 76.0618 76.4487 67.4681C77.7366 68.8615 79.2537 69.6749 80.9376 70.7137C78.566 67.0927 77.945 64.3477 78.07 60.6015C81.3835 60.7517 86.6976 58.9745 93.0328 55.2325Z" fill="#D4D4D4"/>
<path d="M129.702 81.9898L129.694 81.8104C129.685 81.6269 129.656 81.4642 129.602 81.2932C129.498 80.9552 129.294 80.6549 129.064 80.4296C128.831 80.2043 128.577 80.0375 128.318 79.904C127.802 79.6453 127.276 79.5118 126.755 79.4284C126.234 79.3491 125.713 79.3199 125.184 79.3491C124.922 79.3658 124.655 79.3909 124.376 79.4451C124.238 79.4743 124.096 79.5077 123.942 79.5619C123.834 79.6078 123.725 79.6453 123.592 79.7288C122.858 79.8414 122.212 79.7621 121.758 79.37C121.696 79.3199 121.637 79.2615 121.583 79.2031C121.558 79.1781 121.537 79.1572 121.5 79.1072L121.475 79.0738L121.471 79.0655L121.446 79.0279C121.383 78.932 121.337 78.8068 121.312 78.6608C121.262 78.3646 121.308 77.9892 121.4 77.6179C121.591 76.867 121.954 76.1077 122.367 75.3902C122.783 74.6768 123.271 73.9718 123.8 73.3753L123.909 73.2543L123.942 73.1083C124.18 72.1112 124.221 71.1434 124.209 70.1797C124.192 69.2202 124.105 68.2649 123.95 67.3179C123.796 66.371 123.575 65.4365 123.263 64.5187C122.992 63.7261 122.65 62.9502 122.196 62.2159C123.225 60.493 123.579 58.3821 123.163 56.4214C122.946 55.3743 122.529 54.3731 121.958 53.4846C121.387 52.5918 120.67 51.8034 119.87 51.1359L118.732 50.1847C118.732 50.1847 119.17 52.5918 118.782 54.8529C118.661 55.5454 118.453 56.2254 118.145 56.8553C118.124 56.2713 118.057 55.6872 117.919 55.1115C117.694 54.1646 117.29 53.2468 116.727 52.4375C116.165 51.624 115.465 50.8898 114.619 50.3641C112.918 49.3129 110.096 49.0208 110.096 49.0208C110.096 49.0208 112.189 50.5644 112.726 52.838C112.856 53.3844 112.91 53.956 112.901 54.5275C112.772 54.2396 112.635 53.9518 112.48 53.6723C112.093 52.9631 111.601 52.2831 111.001 51.7032C109.013 49.7843 105.52 49.68 105.52 49.68C105.52 49.68 107.446 50.8814 107.925 53.0215C106.87 52.5334 105.737 52.208 104.582 52.0537C103.207 51.8576 101.815 51.8826 100.448 52.0578C99.0806 52.2289 97.7344 52.5501 96.434 53.0007C95.1336 53.4512 93.8707 54.0144 92.6787 54.711C90.3864 56.0377 88.0273 57.2516 85.5891 58.2361C84.3679 58.7242 83.1259 59.1497 81.8713 59.4793C80.6168 59.8005 79.3331 60.0258 78.0911 59.9841L77.4492 59.9632L77.4367 60.589V60.5931C77.4117 62.412 77.5701 64.2851 78.1327 66.0539C78.4954 67.222 79.0122 68.3191 79.6123 69.3579C79.3539 69.1827 79.0955 69.0075 78.8496 68.8239C78.1202 68.2899 77.4575 67.7101 76.899 67.0426L75.7695 65.6993L75.8154 67.5057V67.514C75.9321 69.1451 76.2739 70.7596 76.8324 72.2906C77.3867 73.8216 78.1536 75.2692 79.0788 76.5916C80.0041 77.9182 81.0795 79.1239 82.2506 80.2169C83.3134 81.2097 84.4596 82.1025 85.635 82.9368C85.3641 83.1037 85.0806 83.2622 84.7889 83.404C84.3721 83.6043 83.947 83.7878 83.5177 83.9547C82.6549 84.2926 81.7713 84.5805 80.8835 84.8016L80 85.0227L80.5876 85.7902L80.596 85.8028C81.2128 86.5036 81.938 87.0209 82.6883 87.4506C83.4426 87.8803 84.2304 88.2182 85.0348 88.4893C85.8392 88.7605 86.6644 88.9691 87.5022 89.1026C88.1607 89.2069 88.8234 89.2653 89.4944 89.2569C89.3861 89.4572 89.2944 89.6658 89.2152 89.8702C89.0735 90.2415 88.9609 90.6211 88.8734 91.0049C88.7859 91.3887 88.715 91.7766 88.6734 92.173C88.64 92.5818 88.5942 92.9572 88.6817 93.4662L88.7609 93.9501L89.3485 93.9334H89.3611C91.47 93.7165 93.5706 93.5288 95.6671 93.4704C97.6635 93.4161 99.6599 93.4787 101.615 93.7624C102.486 95.285 103.669 96.6158 105.062 97.6713C106.541 98.7851 108.267 99.6153 110.134 99.9198L110.255 99.9407L110.371 99.9115C111.601 99.6236 112.718 99.0813 113.731 98.3804C114.235 98.0259 114.719 97.6295 115.152 97.1415C115.369 96.8953 115.573 96.6242 115.736 96.2821C115.815 96.1069 115.89 95.915 115.919 95.673C115.948 95.4394 115.915 95.1349 115.769 94.8762L115.715 94.7844L115.631 94.7094L115.623 94.701C115.01 94.1921 114.539 93.4662 114.227 92.6736C113.914 91.8768 113.752 91.009 113.747 90.1413C113.743 89.2778 113.897 88.4059 114.252 87.6383C114.531 87.0292 114.948 86.4953 115.473 86.099C115.635 86.6204 115.852 87.1294 116.127 87.6091C116.494 88.2516 116.957 88.8398 117.486 89.3529C118.02 89.866 118.62 90.304 119.27 90.6586C119.92 91.0132 120.608 91.2927 121.354 91.4554L121.379 91.4596L121.404 91.4638C121.846 91.5013 122.187 91.4137 122.521 91.3219C122.85 91.226 123.163 91.1008 123.463 90.9632C124.059 90.6837 124.617 90.3416 125.142 89.9494C125.668 89.5573 126.159 89.1068 126.585 88.5811C126.951 88.1264 127.272 87.5966 127.464 86.9875C127.922 86.708 128.243 86.3409 128.514 85.9696C128.831 85.5233 129.069 85.0435 129.256 84.5471C129.44 84.0506 129.569 83.5334 129.64 83.0077C129.673 82.7449 129.694 82.4779 129.694 82.2109L129.702 81.9898ZM128.41 82.8367C128.356 83.2664 128.248 83.6919 128.098 84.1007C127.947 84.5095 127.747 84.8975 127.51 85.2354C127.272 85.5733 126.972 85.8695 126.705 85.9905H126.701L126.397 86.1574L126.343 86.4327C126.251 86.9041 125.993 87.388 125.659 87.826C125.322 88.2641 124.905 88.6687 124.455 89.0275C124.005 89.3863 123.509 89.7033 123 89.962C122.746 90.0871 122.483 90.1997 122.225 90.2832C121.979 90.3624 121.716 90.4167 121.541 90.4042C120.933 90.2832 120.324 90.0621 119.753 89.7701C119.174 89.4739 118.628 89.0942 118.145 88.6562C117.178 87.776 116.473 86.6204 116.136 85.3439V85.3355L116.011 84.8391L115.544 85.0685C114.619 85.5191 113.881 86.3159 113.427 87.2211C112.968 88.1264 112.755 89.1276 112.722 90.1205C112.693 91.1133 112.839 92.1145 113.168 93.0615C113.481 93.9543 113.968 94.8178 114.689 95.5145C114.689 95.5187 114.689 95.5187 114.689 95.5228C114.685 95.5687 114.66 95.6522 114.619 95.7398C114.535 95.9191 114.389 96.1194 114.227 96.3071C113.893 96.6867 113.477 97.0372 113.035 97.3459C112.18 97.9383 111.213 98.4013 110.226 98.6474C108.646 98.3638 107.133 97.6421 105.833 96.6617C104.495 95.648 103.365 94.3506 102.569 92.878L102.423 92.6068L102.119 92.5568C99.9642 92.2147 97.7969 92.1479 95.6504 92.2063C93.6873 92.2606 91.7409 92.4274 89.8029 92.6193C89.7862 92.4817 89.7778 92.3357 89.7695 92.198C89.757 91.8476 89.7653 91.4888 89.7903 91.13C89.8529 90.425 89.9737 89.6908 90.2822 89.0984L90.2863 89.0901L90.5947 88.6353H90.0321C89.236 88.6395 88.4358 88.5269 87.6564 88.3475C86.8728 88.1681 86.1059 87.9178 85.3682 87.6133C84.6305 87.3046 83.9178 86.9416 83.2634 86.5078C82.8591 86.2408 82.4799 85.9404 82.1423 85.615C82.7466 85.3564 83.3385 85.0852 83.9178 84.7765C84.3429 84.5512 84.7639 84.3093 85.1765 84.0506C85.5849 83.7878 85.9892 83.5167 86.3643 83.1662L86.3727 83.1579L86.6644 82.9201L86.3518 82.6865C85.0931 81.7437 83.8886 80.7508 82.7883 79.6495C81.688 78.5482 80.6918 77.3509 79.8541 76.0577C79.0163 74.7644 78.337 73.3711 77.866 71.9193C77.5492 70.9432 77.3325 69.9336 77.2033 68.9157C77.5576 69.1785 77.9244 69.4246 78.2911 69.6499C79.1039 70.1464 79.9249 70.576 80.7252 71.0266L80.7293 71.0308L82.1756 71.9652L81.2587 70.4884C80.3292 68.995 79.5415 67.4222 79.108 65.7577C78.7162 64.2893 78.612 62.7624 78.6621 61.2231C79.8749 61.2064 81.0461 60.9936 82.1881 60.7225C83.526 60.3971 84.8181 59.9507 86.0809 59.4418C88.6025 58.428 91.0116 57.1765 93.3247 55.7873C95.5462 54.4607 98.0511 53.5847 100.606 53.1633C101.886 52.9673 103.186 52.9005 104.474 53.0007C105.758 53.1133 107.029 53.397 108.221 53.9059L108.658 54.0936L108.717 53.6097C108.763 53.2259 108.717 52.8254 108.629 52.4625C108.542 52.0954 108.413 51.7408 108.246 51.4071C108.204 51.3236 108.158 51.2444 108.112 51.1651C108.925 51.4529 109.684 51.8576 110.33 52.4124C110.876 52.8797 111.338 53.4512 111.73 54.0811C112.122 54.711 112.447 55.4036 112.764 56.1086L113.222 57.1306L113.46 56.0627C113.789 54.9572 113.877 53.7849 113.697 52.6252C113.602 52.0245 113.426 51.4154 113.156 50.8439C113.456 50.9649 113.752 51.1025 114.035 51.2652C114.777 51.7032 115.44 52.2789 115.977 52.9673C116.515 53.6514 116.919 54.4441 117.173 55.2909C117.428 56.1378 117.532 57.0347 117.511 57.9358L117.432 58.8202L118.049 58.1485C118.857 57.2725 119.37 56.1711 119.687 55.0406C119.87 54.3773 119.983 53.7015 120.045 53.0132C120.983 54.0561 121.666 55.3034 121.942 56.6551C122.321 58.4364 121.958 60.3512 120.945 61.8572L120.708 62.2076L120.95 62.558C121.429 63.2547 121.796 64.064 122.079 64.8984C122.362 65.7369 122.571 66.6129 122.717 67.5015C122.863 68.3859 122.946 69.287 122.958 70.1797C122.971 71.0224 122.925 71.8818 122.75 72.6577C122.179 73.3169 121.708 74.0094 121.279 74.7436C120.829 75.532 120.42 76.358 120.179 77.2967C120.066 77.7681 119.983 78.277 120.07 78.8444C120.116 79.1239 120.212 79.4242 120.387 79.6912L120.454 79.7913L120.524 79.8789C120.554 79.9165 120.608 79.9749 120.654 80.0291C120.749 80.1334 120.845 80.2252 120.954 80.3128C121.375 80.6674 121.917 80.8927 122.442 80.9678C122.967 81.047 123.479 80.997 123.934 80.9219L124.092 80.8968L124.276 80.7467C124.221 80.7925 124.288 80.7383 124.359 80.7216C124.43 80.6966 124.526 80.6716 124.621 80.6507C124.817 80.6132 125.03 80.5881 125.247 80.5756C125.68 80.5548 126.13 80.5756 126.56 80.6424C126.989 80.7091 127.41 80.8217 127.752 80.997C128.102 81.1722 128.339 81.4058 128.41 81.6436C128.431 81.702 128.443 81.7771 128.443 81.8355L128.452 82.0149V82.165C128.452 82.4028 128.439 82.6198 128.41 82.8367Z" fill="black"/>
<path d="M109.725 69.9628C111.913 69.0242 115.093 67.6183 118.544 72.0111C119.103 71.8401 119.936 70.8472 119.999 69.0993C119.728 69.8043 119.52 70.1672 119.236 70.4175C118.265 68.2691 115.564 66.8132 114.11 66.8841C112.726 67.1594 111.025 68.2399 109.725 69.9628Z" fill="black"/>
<path d="M118.545 64.6647C116.153 63.7052 111.547 63.2881 109.817 63.6927C108.225 64.8024 106.633 67.8519 106.287 69.0325C103.861 68.8948 99.0142 69.8668 97.0053 70.6261C100.19 71.0057 103.932 72.2197 104.97 72.9831C101.507 72.7745 92.0122 73.613 89.6656 83.8671C88.9904 81.1221 88.782 77.4176 89.1822 74.8562C91.0535 73.7465 97.0762 72.3615 98.9475 72.2906C97.0095 71.4604 92.9207 71.4604 91.1911 71.6648C93.9627 68.8239 99.9186 67.2971 104.349 67.5056C105.141 64.331 107.742 61.8196 108.713 61.5443C112.331 61.4442 115.732 62.4162 118.545 64.6647Z" fill="#332525"/>
<path d="M113.418 59.3959C110.296 59.0121 106.87 59.5711 105.766 59.8464C104.34 60.6808 102.756 63.4841 102.202 64.3852C101.023 64.4562 97.9092 64.8691 96.4546 65.6326C97.4257 64.1057 99.2263 63.6927 99.7806 63.5509C100.456 61.3023 102.135 58.8369 103.036 58.2153C106.633 57.6604 110.163 58.0776 113.418 59.3959Z" fill="#332525"/>
<path d="M102.115 54.6985C101.29 55.366 100.544 56.5591 100.052 58.2153C101.235 57.1306 104.461 55.4035 109.4 56.1044C107.325 55.1157 105.674 54.5734 102.115 54.6985Z" fill="#332525"/>
<path d="M116.673 81.2305C117.536 79.1405 117.953 75.4068 117.382 73.5588C116.365 71.5522 113.46 71.1308 111.547 74.2304C110.18 76.4456 110.713 80.0875 111.476 81.0261C112.726 80.7466 114.569 80.5464 116.673 81.2305Z" fill="white"/>
<path d="M117.382 73.563C117.932 75.3234 117.578 78.8026 116.794 80.9344C116.594 81.0178 116.39 81.0679 116.178 81.0845C115.807 80.9844 115.448 80.9135 115.098 80.8634C113.985 80.2836 113.289 78.6608 113.477 76.8419C113.698 74.6518 115.111 72.9998 116.628 73.1541C116.844 73.175 117.049 73.2334 117.245 73.321C117.295 73.4003 117.336 73.4795 117.382 73.563Z" fill="black"/>
<path d="M117.582 73.4962L117.569 73.4628C117.328 72.8704 116.898 72.3281 116.319 71.9652C115.744 71.5981 115.027 71.427 114.318 71.4938C113.61 71.5564 112.939 71.8484 112.38 72.2572C111.822 72.666 111.372 73.1792 111.005 73.7298C110.234 74.9021 109.992 76.2704 110.013 77.5511C110.021 78.1977 110.105 78.836 110.263 79.4659C110.346 79.7788 110.442 80.0917 110.576 80.3962C110.684 80.6382 110.805 80.8801 110.988 81.1179C111.263 80.9761 111.547 80.8551 111.843 80.7717L111.83 80.7466C111.647 80.367 111.526 79.7788 111.468 79.2406C111.401 78.69 111.393 78.1268 111.418 77.572C111.451 77.0213 111.513 76.4706 111.651 75.9533C111.718 75.6947 111.788 75.4402 111.888 75.2024C111.939 75.0856 111.993 74.9605 112.043 74.8645C112.064 74.8186 112.105 74.7477 112.143 74.6851L112.239 74.5183C112.801 73.6088 113.539 72.8204 114.502 72.5409C114.977 72.4032 115.506 72.4116 115.994 72.6076C116.477 72.8037 116.907 73.1708 117.203 73.6464C117.507 74.4474 117.603 75.3568 117.649 76.2454C117.728 75.3443 117.778 74.4307 117.582 73.4962Z" fill="black"/>
<path d="M121.975 85.419C121.975 85.6568 121.737 85.8487 121.445 85.8487C121.154 85.8487 120.916 85.6568 120.916 85.419C120.916 85.1812 121.154 84.9893 121.445 84.9893C121.737 84.9893 121.975 85.1812 121.975 85.419Z" fill="#B7B7B7"/>
<path d="M122.562 86.6162C122.562 86.7789 122.412 86.9124 122.229 86.9124C122.046 86.9124 121.896 86.7789 121.896 86.6162C121.896 86.4535 122.046 86.3242 122.229 86.3242C122.412 86.3242 122.562 86.4535 122.562 86.6162Z" fill="#B7B7B7"/>
<path d="M123.305 85.6359C123.305 85.8194 123.121 85.9696 122.892 85.9696C122.667 85.9696 122.479 85.8194 122.479 85.6359C122.479 85.4523 122.663 85.3022 122.892 85.3022C123.121 85.3022 123.305 85.4523 123.305 85.6359Z" fill="#B7B7B7"/>
<path d="M127.397 81.8814C127.339 82.1901 126.818 82.3486 126.234 82.2359C125.651 82.1233 125.226 81.7854 125.284 81.4767C125.343 81.168 125.863 81.0095 126.447 81.1221C127.031 81.2306 127.456 81.5727 127.397 81.8814Z" fill="#F5F5F5"/>
<path d="M116.649 76.1327C116.178 76.9462 115.348 77.3508 114.798 77.0296C114.252 76.7126 114.19 75.7906 114.661 74.9771C115.136 74.1637 115.961 73.759 116.511 74.0761C117.061 74.3973 117.124 75.3192 116.649 76.1327Z" fill="white"/>
<path d="M109.725 81.8522C111.551 81.3307 114.935 80.9678 118.336 82.2026C116.235 80.4964 114.131 80.1585 112.434 80.3921C111.342 80.5423 110.242 81.1221 109.725 81.8522Z" fill="#E6E6E6"/>
<path d="M94.4081 75.0022C92.8326 75.4528 91.4405 75.7197 89.0898 75.5278C89.1149 75.2942 89.144 75.069 89.1774 74.852C89.9734 74.3848 91.5156 73.8633 93.1702 73.417C93.5495 73.9968 93.9705 74.5141 94.4081 75.0022Z" fill="#1A1313"/>
<path d="M92.0029 70.9348C92.0696 71.1559 92.1446 71.3728 92.2238 71.5814C91.8279 71.6023 91.4736 71.6315 91.186 71.6648C91.4319 71.4104 91.707 71.1684 92.0029 70.9348Z" fill="#1A1313"/>
<path d="M91.62 79.0905C90.7781 80.3962 90.0987 81.969 89.6652 83.8671C89.1818 81.898 88.9359 79.4326 88.9859 77.2508C89.8403 78.0309 90.7281 78.6233 91.62 79.0905Z" fill="#1A1313"/>
<path d="M94.0662 64.6856C95.8417 62.4454 97.9966 58.1152 97.3839 55.9751C96.9254 54.3857 95.8334 54.2772 93.3118 53.2092C90.2609 51.9202 87.4934 49.6967 85.5762 48.2908C83.4297 47.348 81.7918 49.4255 80.9623 53.155C79.9412 57.7439 81.1041 65.7869 86.9766 68.607C89.1064 69.0492 91.6405 67.7393 94.0662 64.6856Z" fill="#E6E6E6"/>
<path d="M85.397 52.1663C87.9311 55.8708 90.9611 57.5311 93.2618 58.9662C93.6953 59.6504 91.7072 64.8858 88.5271 65.5241C86.1264 63.9848 84.9594 61.999 84.2591 59.0288C83.5589 56.0669 84.2091 51.9202 85.397 52.1663Z" fill="#DAB5B5"/>
<path d="M97.3843 55.9751C97.0967 55.4244 96.7049 55.0114 96.2047 54.8028C95.7129 54.5692 95.1378 54.4316 94.5709 54.2522C93.9958 54.0936 93.4248 53.8892 92.8496 53.6848C92.2661 53.4595 91.7117 53.2051 91.1657 52.9172C88.9943 51.77 87.027 50.3141 85.114 48.9249L85.264 49.0083C84.8931 48.8498 84.5513 48.8123 84.2429 48.8999C83.9303 48.9875 83.6177 49.2169 83.3384 49.5465C82.7758 50.2056 82.3881 51.1401 82.0756 52.0829C81.9213 52.5585 81.7921 53.0507 81.6838 53.5513C81.5837 54.0227 81.5087 54.5317 81.4629 55.0323C81.3712 56.0377 81.367 57.0597 81.4421 58.0776C81.5963 60.1134 82.1172 62.1242 83.0217 63.9347C83.9178 65.7536 85.2182 67.3597 86.977 68.6028C85.9392 68.315 84.9597 67.7643 84.1095 67.0551C83.2634 66.3376 82.5465 65.4657 81.9797 64.5062C80.8502 62.5831 80.2542 60.4054 79.9916 58.2195C79.8624 57.1223 79.8332 56.0126 79.9208 54.903C79.9624 54.3439 80.0333 53.7975 80.1417 53.2301C80.2459 52.6878 80.3792 52.1496 80.5418 51.6115C80.871 50.5394 81.3045 49.4631 82.1214 48.4952C82.534 48.0238 83.0884 47.5691 83.8052 47.373C84.5221 47.1644 85.2973 47.2938 85.8892 47.5649L85.9767 47.6066L86.0392 47.6525C87.0103 48.3742 87.9315 49.1126 88.8859 49.801C89.8362 50.4935 90.8073 51.1443 91.8159 51.7199C92.3161 52.0078 92.8287 52.2873 93.3372 52.5418C93.854 52.8171 94.3959 53.0465 94.9294 53.3261C95.467 53.5972 96.0213 53.8725 96.534 54.2939C96.7799 54.5108 97.0091 54.7695 97.1509 55.0657C97.2967 55.3577 97.3634 55.6705 97.3843 55.9751Z" fill="black"/>
<path d="M84.259 59.0288C83.8797 57.8398 83.7088 56.58 83.6963 55.3076C83.6963 54.6693 83.7338 54.0269 83.863 53.3719C83.9339 53.0424 84.0172 52.7128 84.1923 52.3624C84.284 52.1872 84.3923 52.0036 84.5966 51.8242C84.7008 51.7366 84.83 51.649 84.9925 51.5948C85.155 51.5405 85.3468 51.528 85.5135 51.5572H85.5177L85.7636 51.6031L85.9053 51.8159C86.843 53.2259 87.9767 54.4983 89.2729 55.5996C90.5692 56.7093 92.0279 57.6145 93.5159 58.5574L93.6159 58.6241L93.6659 58.7117L93.6701 58.7159C93.7993 58.9578 93.7784 59.0955 93.7868 59.2207C93.7868 59.3458 93.7701 59.4543 93.7534 59.5586C93.7159 59.763 93.6659 59.9549 93.6076 60.1384C93.4909 60.5055 93.345 60.8518 93.1824 61.1855C92.8615 61.8572 92.4739 62.4871 92.0321 63.0753C91.5861 63.6593 91.0818 64.2017 90.4983 64.648C89.9148 65.0902 89.2438 65.4281 88.5269 65.5283C89.2271 65.3447 89.8314 64.9442 90.3399 64.4603C90.8484 63.9722 91.2694 63.4049 91.6278 62.8C91.9863 62.1951 92.278 61.5568 92.5072 60.9018C92.6198 60.5765 92.7156 60.2427 92.7823 59.9173C92.8156 59.7546 92.8407 59.5919 92.849 59.4418C92.8532 59.3667 92.8532 59.2957 92.8448 59.2415C92.8448 59.1915 92.8073 59.1414 92.8448 59.229L92.999 59.3833C91.5111 58.4948 89.9648 57.5895 88.5644 56.459C87.1598 55.3368 85.9094 54.0018 84.8716 52.5251L85.2593 52.7837C85.3009 52.7837 85.3634 52.7378 85.3093 52.7503C85.2676 52.7629 85.1926 52.8338 85.1217 52.9256C84.98 53.1133 84.8591 53.3678 84.7549 53.6347C84.5465 54.1729 84.409 54.7653 84.309 55.3618C84.1298 56.5549 84.0839 57.7981 84.259 59.0288Z" fill="#D4D4D4"/>
</svg>
