<svg width="132" height="137" viewBox="0 0 132 137" fill="none" xmlns="http://www.w3.org/2000/svg">
<path d="M84.2338 94.2535C81.8851 93.9872 79.9063 97.0829 78.3682 102.804C76.8301 108.525 77.2042 121.187 80.9539 125.231C84.1839 127.253 92.9844 126.309 94.0403 123.987C94.7054 121.79 92.8805 119.972 90.9308 119.14C88.9437 115.74 87.0855 111.334 87.3931 108.933C87.8504 101.523 88.6652 94.757 84.2338 94.2535Z" fill="#E6E6E6"/>
<path d="M94.0397 123.983C92.9838 126.305 84.1833 127.249 80.9533 125.227C79.0577 123.184 78.0225 118.94 77.665 114.5C81.4313 114.941 86.0831 114.163 88.1325 113.194C88.8101 115.149 89.8494 117.288 90.9302 119.135C92.8799 119.968 94.7048 121.782 94.0397 123.983Z" fill="#EFEFEF"/>
<path d="M87.3598 109.466C87.3557 110.169 87.4928 111.001 87.7381 111.904C84.7201 112.844 81.8392 111.954 80.0767 110.169C81.7395 110.477 85.194 110.443 87.3598 109.466Z" fill="#1A1313"/>
<path d="M87.5297 106.778C87.4882 107.439 87.4383 108.109 87.4009 108.787C85.4429 108.991 83.8549 108.534 82.8281 107.639C84.254 107.793 86.2493 107.36 87.5297 106.778Z" fill="#1A1313"/>
<path d="M87.6046 105.621C84.8859 106.299 80.4503 105.837 77.9312 104.909C78.0517 104.14 78.1972 103.428 78.3635 102.804C78.376 102.758 78.3926 102.713 78.4009 102.667C81.0074 103.395 84.1335 103.362 85.6217 102.405C83.5265 101.951 82.0342 101.323 80.8868 99.958C81.9469 100.362 85.8919 100.112 87.6753 99.3464C87.8374 101.148 87.7501 103.299 87.6046 105.621Z" fill="#1A1313"/>
<path d="M94.6055 124.249L94.6222 124.216L94.6347 124.17C94.8176 123.575 94.855 122.905 94.7178 122.281C94.5806 121.657 94.2855 121.095 93.9238 120.617C93.2379 119.73 92.3441 119.102 91.3838 118.653C90.6106 117.184 89.8956 115.682 89.2846 114.151C88.9686 113.356 88.6776 112.557 88.4573 111.75C88.2328 110.951 88.0582 110.127 88.0624 109.374C88.1081 108.55 88.1372 107.639 88.1746 106.773C88.2162 105.896 88.237 105.013 88.2411 104.131C88.2245 102.367 88.1289 100.561 87.6259 98.8429C87.522 100.615 87.3141 102.334 87.1353 104.073C86.9566 105.821 86.8069 107.531 86.649 109.337C86.6199 110.339 86.8028 111.259 87.0314 112.149C87.2725 113.036 87.5677 113.889 87.9127 114.721C88.5986 116.381 89.4342 117.962 90.3903 119.464L90.515 119.655L90.6855 119.722C91.5626 120.097 92.3774 120.667 92.9302 121.386C93.2046 121.748 93.4042 122.144 93.4956 122.556C93.5829 122.947 93.5621 123.35 93.454 123.75C93.346 123.962 93.0799 124.199 92.7557 124.395C92.6892 124.133 92.5935 123.883 92.4688 123.662C92.2568 123.28 91.9783 122.955 91.6665 122.693C91.0513 122.164 90.2906 121.84 89.5381 121.815C90.2531 122.048 90.8268 122.543 91.2051 123.117C91.5876 123.687 91.7497 124.382 91.5917 124.882C91.5875 124.894 91.5875 124.911 91.5875 124.923C91.3797 124.994 91.1718 125.06 90.9598 125.123C89.8998 125.418 88.7815 125.585 87.6675 125.664C86.5492 125.743 85.4226 125.73 84.3252 125.597C83.2693 125.464 82.1968 125.227 81.357 124.74C80.6587 123.9 80.1557 122.83 79.7691 121.723C79.3783 120.583 79.0998 119.385 78.867 118.183C78.4138 115.761 78.2601 113.273 78.2185 110.793C78.2102 108.317 78.3224 105.812 78.8212 103.424C79.0956 102.234 79.4157 101.015 79.7566 99.829C80.1058 98.6349 80.4841 97.4574 80.9912 96.2882C80.1099 97.2119 79.4656 98.3561 78.9377 99.517C78.4097 100.69 77.9981 101.889 77.6614 103.141C77.042 105.675 76.8342 108.234 76.8051 110.793C76.7718 113.352 76.988 115.915 77.4452 118.453C77.678 119.722 78.0023 120.983 78.4679 122.21C78.9335 123.429 79.5238 124.657 80.4965 125.668L80.5672 125.739L80.6254 125.772C81.7727 126.458 82.9866 126.696 84.1797 126.854C85.3769 126.995 86.57 127.008 87.7589 126.924C88.9478 126.837 90.1284 126.667 91.3007 126.342C91.8869 126.176 92.4647 125.976 93.0383 125.689C93.3252 125.539 93.6079 125.377 93.8822 125.152C94.1483 124.923 94.4185 124.644 94.6055 124.249Z" fill="black"/>
<path d="M46.4131 97.6779C46.4172 94.5573 47.602 92.3728 50.408 91.9401C53.0186 91.5407 55.359 94.4366 56.4316 96.9456C57.5041 99.4546 59.3083 105.492 59.5618 108.862C59.6699 112.228 58.9133 114.546 57.9406 120.533C59.25 124.058 58.0278 127.79 52.8191 126.962C47.6103 126.134 43.3951 121.245 43.6985 118.054C44.1724 115.877 46.6334 113.431 47.5396 108.255C47.4607 104.514 46.4131 100.491 46.4131 97.6779Z" fill="#E6E6E6"/>
<path d="M54.8722 94.3076C55.3877 94.9609 55.8367 95.6848 56.1859 96.4005C54.8556 97.3076 52.7688 98.4144 50.6611 97.5031C51.9872 97.2119 53.9161 95.7223 54.8722 94.3076Z" fill="#1A1313"/>
<path d="M56.7052 97.6196C57.096 98.639 57.5533 99.9955 57.9814 101.464C56.0941 102.534 52.8891 103.595 49.7422 101.905C50.7274 102.267 54.7015 100.079 56.7052 97.6196Z" fill="#1A1313"/>
<path d="M47.3188 105.301C49.5637 106.441 55.4459 106.47 58.7133 104.136C59.1415 105.871 59.4658 107.564 59.5655 108.862C59.5988 109.952 59.5447 110.93 59.42 111.958C55.9031 114.18 52.6856 113.165 50.657 111.18C53.3466 111.721 55.7161 110.772 56.7138 109.178C53.4339 110.685 49.1854 108.7 47.4935 107.185C47.456 106.557 47.3937 105.929 47.3188 105.301Z" fill="#1A1313"/>
<path d="M59.1827 113.581C58.8834 115.357 58.4428 117.463 57.9398 120.533C59.2492 124.058 58.027 127.79 52.8182 126.962C47.6095 126.13 43.3942 121.245 43.7019 118.054C44.0843 116.302 45.7554 114.367 46.8654 110.98C48.7735 113.09 54.7513 115.848 59.1827 113.581Z" fill="#EFEFEF"/>
<path d="M54.4482 93.8083C55.0759 94.8028 55.5789 95.8263 55.9572 96.8874C56.323 97.9525 56.6306 99.0718 56.9549 100.17C57.5909 102.38 58.1563 104.622 58.5512 106.865C58.6468 107.423 58.73 107.984 58.7798 108.534L58.8089 108.912L58.8131 109.332C58.8172 109.611 58.8131 109.89 58.8006 110.169C58.7632 111.284 58.6011 112.399 58.4223 113.535C58.0399 115.798 57.62 118.112 57.3249 120.425L57.2999 120.612L57.3539 120.75V120.754C57.6657 121.64 57.8196 122.585 57.7323 123.467C57.6533 124.349 57.2957 125.148 56.6639 125.639C56.4893 125.78 56.2939 125.893 56.0861 125.988C56.0861 125.972 56.0902 125.955 56.0944 125.938C56.1318 125.501 56.0819 125.077 55.978 124.678C55.766 123.891 55.3212 123.188 54.7142 122.735C55.1715 123.334 55.371 124.07 55.3627 124.761C55.3586 125.364 55.1632 125.955 54.839 126.309C54.6519 126.325 54.4607 126.338 54.2653 126.338C53.3591 126.334 52.4154 126.159 51.5216 125.88C49.7299 125.31 48.0712 124.249 46.741 122.884C46.08 122.202 45.4981 121.44 45.0657 120.617C44.6459 119.818 44.3715 118.94 44.4297 118.158C44.5877 117.467 44.9743 116.718 45.3692 115.965C45.7766 115.195 46.2047 114.4 46.583 113.572C47.3479 111.925 47.9008 110.156 48.1918 108.359L48.2043 108.284L48.2001 108.226C48.1211 105.904 47.7137 103.657 47.3646 101.439C47.2024 100.328 47.0071 99.2341 46.8824 98.1481C46.7535 97.0579 46.6994 95.9761 46.8408 94.8319C46.2214 95.8139 46.0011 97.0247 45.9512 98.1814C45.9179 99.3464 46.0343 100.491 46.1923 101.61C46.4916 103.823 46.8325 106.012 46.8699 108.176C46.554 109.836 46.0302 111.438 45.3027 112.961C44.9369 113.735 44.5211 114.488 44.0971 115.266C43.6814 116.048 43.2158 116.847 42.9706 117.875L42.9623 117.916L42.9581 117.966C42.85 119.223 43.2533 120.338 43.7521 121.311C44.2676 122.289 44.9327 123.155 45.681 123.925C47.1817 125.456 49.0232 126.642 51.0768 127.295C52.1036 127.619 53.1636 127.807 54.2736 127.79C55.3669 127.773 56.5766 127.515 57.5369 126.725C58.0108 126.338 58.389 125.826 58.6385 125.277C58.8879 124.728 59.0209 124.145 59.0625 123.571C59.1415 122.481 58.9295 121.436 58.5761 120.467L59.2246 117.209C59.4574 116.073 59.6944 114.937 59.8981 113.776C60.1059 112.619 60.2639 111.425 60.3054 110.215C60.3179 109.911 60.3221 109.611 60.3179 109.307L60.3054 108.858L60.293 108.708L60.2805 108.596L60.2556 108.367C60.189 107.76 60.0893 107.173 59.9771 106.586C59.7567 105.417 59.4699 104.277 59.1498 103.141C58.8256 102.009 58.4972 100.886 58.0939 99.7833C57.8985 99.2299 57.6907 98.6807 57.4537 98.1397C57.2292 97.5988 56.9798 97.0579 56.6888 96.5295C56.1193 95.4935 55.371 94.5365 54.4482 93.8083Z" fill="black"/>
<path d="M48.3209 76.2329C47.3772 74.8598 45.7726 75.1719 42.7047 76.7197C37.2299 79.4867 32.1583 79.2204 24.6257 74.7225C17.1638 71.2482 4.58456 76.8113 3.62428 86.6017C3.40811 92.6724 10.7952 93.904 11.9301 91.5365C13.6677 87.9166 19.4294 80.4312 25.4072 83.3604C33.156 87.1551 38.398 86.6267 44.4548 82.7322C48.6701 80.0234 49.489 77.9305 48.3209 76.2329Z" fill="#E6E6E6"/>
<path d="M48.3203 76.2329C49.4842 77.9305 48.6694 80.0276 44.4584 82.7321C39.9189 85.6489 35.8367 86.6808 30.8149 85.4117C34.336 83.6891 35.3295 80.7474 34.9927 78.4881C37.6699 78.642 40.1475 78.0179 42.7083 76.7197C45.772 75.1719 47.3766 74.8557 48.3203 76.2329Z" fill="#D4D4D4"/>
<path d="M33.2886 78.2842C34.939 78.5755 36.4937 78.5796 38.0194 78.3216C36.8013 80.4645 37.4041 84.0511 37.9321 85.6114C36.8429 85.8528 35.7413 85.961 34.594 85.9402C33.8083 83.8181 33.8 81.5089 34.0161 80.7765C33.1224 81.3715 32.902 82.0248 32.6152 82.9277C32.0415 81.563 32.5819 79.3577 33.2886 78.2842Z" fill="#332525"/>
<path d="M37.088 78.4465C37.034 78.4506 36.9758 78.4589 36.9176 78.4631C36.6432 78.4881 36.3689 78.5006 36.0945 78.5047C36.0238 78.5047 35.9573 78.5089 35.8866 78.5089C35.6123 78.5089 35.3379 78.5047 35.0594 78.4922C35.0386 78.4922 35.0178 78.4922 34.997 78.4922C35.1966 79.832 34.9264 81.4132 33.937 82.8362C34.0077 83.7724 34.2072 84.8791 34.6021 85.9443C34.6562 85.9443 34.7061 85.9443 34.7601 85.9443C34.9804 85.9485 35.1966 85.9443 35.4169 85.936C35.4917 85.9318 35.5624 85.9277 35.6372 85.9235C35.8451 85.911 36.0488 85.9027 36.2566 85.8819C36.3273 85.8777 36.398 85.8652 36.4686 85.8569C36.6806 85.832 36.8927 85.807 37.1047 85.7737C37.1421 85.7696 37.1795 85.7612 37.2169 85.7529C37.4622 85.7113 37.7033 85.6697 37.9444 85.6156C37.4165 84.0553 36.8137 80.4645 38.0317 78.3258C38.0234 78.3258 38.015 78.33 38.0109 78.33C37.9402 78.3424 37.8737 78.3508 37.8072 78.3591C37.5578 78.3924 37.325 78.4215 37.088 78.4465Z" fill="#1A1313"/>
<path d="M26.991 76.0332C28.367 76.7364 29.6598 77.2856 30.8903 77.6809C28.1508 79.9236 28.6996 83.4187 29.5268 85.0456C28.4709 84.7086 27.3693 84.2758 26.2219 83.7391C23.9896 80.3688 25.8062 77.3647 26.991 76.0332Z" fill="#332525"/>
<path d="M20.9465 73.7489C19.8407 78.1677 21.8943 81.4631 23.6278 82.7821C22.4887 82.5907 21.3747 82.7321 20.3063 83.1066C17.6208 80.8473 17.6499 78.0554 17.8661 76.9819C16.5317 78.3633 16.6814 80.3147 16.9433 81.0595C14.2495 79.3577 14.3118 76.1122 14.7982 74.4188C16.8518 73.7946 18.9636 73.5533 20.9465 73.7489Z" fill="#332525"/>
<path d="M9.34829 77.14C8.51688 82.3993 13.1146 85.8611 15.6088 86.3521C13.9169 88.0996 12.6157 90.1135 11.934 91.5365C10.7949 93.904 3.41202 92.6724 3.62819 86.6017C4.01064 82.6572 6.28455 79.3951 9.34829 77.14Z" fill="#332525"/>
<path d="M42.7045 84.4839C37.0842 87.4422 31.9959 87.28 25.1368 83.9222C23.341 83.0401 21.408 83.1316 19.3959 84.1926C15.9664 85.9984 13.3848 89.9637 12.4994 91.807C12.2915 92.2397 11.9299 92.6017 11.4477 92.8555C10.0093 93.6128 7.67719 93.3548 5.90213 92.2355C3.94832 91.0081 2.92154 88.9984 3.00468 86.5809C3.46611 81.8584 6.49244 77.7183 11.3105 75.1802C15.8791 72.7752 21.0837 72.38 24.8916 74.1566L24.9498 74.1858C32.0043 78.3966 36.9054 78.9541 42.426 76.1622C45.0075 74.8557 47.4435 73.8529 48.8361 75.8792C49.3599 76.6407 49.5387 77.4562 49.3683 78.305C49.0565 79.8653 47.5599 81.4839 44.7955 83.2606C44.0722 83.7224 43.3863 84.126 42.7045 84.4839ZM18.814 83.09C21.2001 81.8334 23.5114 81.7377 25.6856 82.8029C32.1415 85.9651 36.9054 86.1316 42.1225 83.3812C42.7627 83.0442 43.4362 82.6489 44.1179 82.2079C46.5456 80.6476 47.9008 79.2495 48.1419 78.0554C48.2458 77.5436 48.1336 77.0651 47.8052 76.5866C47.2274 75.7461 46.2921 75.6088 42.9872 77.2773C37.1091 80.2481 31.705 79.6656 24.3345 75.2759C20.8717 73.6781 16.1077 74.0651 11.8883 76.287C7.44856 78.6254 4.66334 82.4076 4.24763 86.6641C4.15618 89.2647 5.66106 90.6128 6.56314 91.1787C8.15529 92.1814 9.96775 92.2189 10.8615 91.7487C11.1068 91.6197 11.2772 91.4575 11.3687 91.2661C12.6906 88.5199 15.5839 84.7876 18.814 83.09Z" fill="black"/>
<path d="M96.2474 79.3743C94.1938 75.6421 88.694 74.8598 84.7947 75.6962C80.8954 76.5325 75.3333 77.2357 71.4755 77.0942C61.3573 74.2315 54.2362 73.2038 48.1378 74.6185C42.7004 76.1788 37.5332 81.0512 36.6852 88.1454C36.2778 96.8333 41.3577 104.215 53.3924 106.291C68.2663 107.031 80.7125 103.961 87.8003 99.6793C96.9333 94.1703 100.313 86.7598 96.2474 79.3743Z" fill="#E6E6E6"/>
<path d="M96.2472 79.3744C100.313 86.7599 96.9372 94.1662 87.8042 99.6793C80.7164 103.961 68.2702 107.031 53.3963 106.291C41.3575 104.215 36.2817 96.8333 36.6891 88.1413C37.2254 83.6517 39.4951 80.0484 42.4674 77.6226C41.9021 82.1663 45.897 88.6863 57.6739 88.4908C71.1843 88.2702 78.2887 82.004 75.7861 76.9777C78.8624 76.7489 82.2005 76.2496 84.7945 75.6962C88.6938 74.864 94.1936 75.6462 96.2472 79.3744Z" fill="#D4D4D4"/>
<path d="M97.918 84.7626C98.3171 90.2674 94.7005 95.5143 87.7998 99.6793C80.712 103.961 68.2658 107.031 53.3919 106.291C47.2727 105.234 42.9536 102.808 40.2349 99.5336C45.1319 101.901 53.4834 102.696 63.3605 102.151C72.6848 101.635 81.7263 99.0759 88.124 94.9401C92.0441 92.4019 94.1351 89.5975 95.9185 86.0816C96.4381 85.0622 97.282 84.5088 97.918 84.7626Z" fill="#EFEFEF"/>
<path d="M71.4751 77.0942C72.876 77.1483 74.5055 77.09 76.1975 76.9486C73.7531 79.2453 72.107 83.2606 71.6206 87.0927C70.9388 88.8569 70.0076 91.1911 69.4963 92.9179C68.7189 89.6225 68.3864 86.1274 68.9518 83.2606C67.9416 83.9305 66.125 86.6517 65.4224 88.0039C64.1919 83.893 64.9402 79.6947 66.9439 78.0429C66.3786 79.3202 66.2829 81.8209 66.5282 82.6448C67.6174 80.3646 69.5711 78.1594 71.1092 76.9943C71.2339 77.0276 71.3545 77.0609 71.4751 77.0942Z" fill="#332525"/>
<path d="M65.3847 75.5214C63.8799 76.8362 62.1339 79.9693 61.2609 83.402C59.9348 86.273 59.2946 87.4838 58.2179 91.1787C57.7648 87.2758 57.4946 82.9527 58.2262 80.7308C56.8336 82.1496 55.3537 83.8805 54.7177 85.8902C54.5223 81.5962 56.8918 77.1525 61.8429 74.7891C62.9736 74.993 64.1542 75.2343 65.3847 75.5214Z" fill="#332525"/>
<path d="M58.518 74.2856C55.5789 75.4465 52.7397 78.9707 51.2431 82.8195C50.8649 80.6143 51.239 78.1677 52.7355 76.0873C50.2787 76.9278 48.1253 79.0831 47.057 80.789C45.893 82.6489 45.2195 84.6212 44.6625 86.8722C44.305 84.3174 44.3092 81.4048 45.3567 78.5755C46.4417 76.4409 48.778 75.0512 50.9854 74.1483H50.9896C53.305 73.8987 55.7826 73.9528 58.518 74.2856Z" fill="#332525"/>
<path d="M71.9946 85.0289C71.8366 85.7155 71.7119 86.4103 71.6246 87.0927C70.9428 88.8569 70.0117 91.1911 69.5003 92.9179C69.0098 90.8291 68.6939 88.6655 68.6772 86.6267C69.9285 86.1607 71.0384 85.6198 71.9946 85.0289Z" fill="#1A1313"/>
<path d="M65.6803 87.5338C65.5805 87.7002 65.4932 87.8583 65.4225 87.9998C65.3851 87.8708 65.3477 87.7501 65.3145 87.6211C65.435 87.5962 65.5556 87.567 65.6803 87.5338Z" fill="#1A1313"/>
<path d="M57.9438 88.4907C58.3305 88.4824 58.7087 88.4699 59.0829 88.4491C58.8085 89.2106 58.53 90.0843 58.2141 91.1745C58.1101 90.2966 58.0187 89.3895 57.9438 88.4907Z" fill="#1A1313"/>
<path d="M45.2856 84.6919C45.0528 85.3909 44.8533 86.1149 44.6662 86.868C44.529 85.8902 44.4459 84.8667 44.4542 83.8098C44.7078 84.1094 44.9821 84.409 45.2856 84.6919Z" fill="#1A1313"/>
<path d="M61.7398 106.936C58.9962 107.061 56.1777 107.056 53.3592 106.915L53.2843 106.907C41.8691 104.939 35.592 98.0898 36.0617 88.1163L36.0659 88.0705C37.0345 79.9444 43.083 75.4215 47.9633 74.0193C49.4557 73.6698 50.9564 73.4701 52.5735 73.3952C57.458 73.1705 63.1407 74.0901 71.5712 76.4742C72.3777 76.5034 73.2881 76.4909 74.2816 76.4451C77.4493 76.2995 81.4276 75.7794 84.6618 75.0845C85.4184 74.9222 86.2207 74.8224 87.0354 74.7849C90.5232 74.6268 94.913 75.667 96.7879 79.0706C100.966 86.66 97.8063 94.3659 88.1204 100.208C81.8516 104.002 72.2322 106.453 61.7398 106.936ZM53.4631 105.671C56.2275 105.808 58.992 105.812 61.6858 105.692C71.9786 105.222 81.3818 102.833 87.4844 99.1467C96.5176 93.696 99.5149 86.5976 95.7029 79.6781C94.1066 76.7738 90.2114 75.8917 87.0978 76.0332C86.3495 76.0665 85.6179 76.158 84.9278 76.3078C81.6271 77.0151 77.574 77.5477 74.3398 77.6934C73.2839 77.7433 72.3112 77.7516 71.4548 77.7183L71.3093 77.6934C63.0867 75.3674 57.3292 74.4271 52.6359 74.6393C51.0936 74.71 49.6719 74.9014 48.2834 75.2218C43.8021 76.5075 38.2192 80.685 37.313 88.1912C36.8848 97.449 42.7712 103.815 53.4631 105.671Z" fill="black"/>
<path d="M77.2788 93.5337C74.5019 93.2715 72.5148 96.0385 70.5859 101.635C67.6012 110.289 67.8506 123.317 71.3342 127.078C73.5874 129.001 83.8345 128.289 84.6285 126.4C85.3268 124.328 84.0091 122.46 82.2132 121.54C80.5463 116.576 79.586 112.965 79.7814 109.378C80.4382 103.728 82.9449 94.0663 77.2788 93.5337Z" fill="#E6E6E6"/>
<path d="M84.624 126.4C83.83 128.293 73.5829 129.001 71.3298 127.078C67.8462 123.317 67.5968 110.289 70.5816 101.635C72.5104 96.0385 74.4975 93.2757 77.2744 93.5337C78.2056 93.6211 78.9123 93.9539 79.4485 94.474C77.4241 94.7903 74.9257 97.7486 73.7368 103.607C72.1321 111.538 77.1456 116.094 80.0929 113.959C80.4961 116.202 81.2236 118.636 82.2005 121.532C84.0047 122.46 85.3224 124.324 84.624 126.4Z" fill="#D4D4D4"/>
<path d="M84.6241 126.4C83.8301 128.293 73.583 129.001 71.3299 127.078C69.5881 125.198 68.6611 121.008 68.5322 116.202C72.7392 117.33 78.4676 116.905 80.5128 115.907C80.9244 117.613 81.5022 119.456 82.2006 121.54C84.0048 122.46 85.3225 124.324 84.6241 126.4Z" fill="white"/>
<path d="M79.8059 111.654C79.8641 112.515 79.9888 113.402 80.1676 114.321C76.1851 115.141 72.7099 113.46 70.9473 110.939C72.8969 111.712 77.3325 112.565 79.8059 111.654Z" fill="#332525"/>
<path d="M79.7774 109.378C79.7441 109.99 79.7483 110.606 79.7774 111.221C77.3081 111.092 75.454 110.206 74.4272 108.937C75.9861 109.432 78.3099 109.42 79.8148 109.087C79.7981 109.187 79.7898 109.282 79.7774 109.378Z" fill="#332525"/>
<path d="M80.8163 101.477C80.65 103.645 80.255 105.941 79.964 107.93C76.8795 107.997 72.1862 106.511 69.6338 104.98C69.8209 104.165 70.0329 103.37 70.2698 102.604C73.0135 104.052 76.5968 104.81 78.4592 104.127C76.2601 103.174 74.7594 102.184 73.7784 100.499C74.7844 101.119 78.6089 101.714 80.8163 101.477Z" fill="#332525"/>
<path d="M73.6828 103.932C73.504 104.901 73.425 105.825 73.4333 106.682C71.9867 106.183 70.644 105.588 69.6338 104.984C69.8209 104.169 70.0329 103.374 70.2698 102.609C71.3299 103.166 72.5146 103.624 73.6828 103.932Z" fill="#1A1313"/>
<path d="M80.101 113.963C80.1218 114.084 80.1426 114.201 80.1676 114.321C76.1851 115.141 72.7099 113.46 70.9473 110.939C71.8369 111.296 73.2502 111.667 74.7509 111.871C76.1726 114.267 78.4549 115.153 80.101 113.963Z" fill="#1A1313"/>
<path d="M74.4772 100.803C74.4232 100.961 74.3733 101.127 74.3192 101.298C74.1239 101.052 73.9409 100.786 73.7788 100.507C73.9409 100.607 74.1862 100.707 74.4772 100.803Z" fill="#1A1313"/>
<path d="M85.2894 126.625C85.4723 126.067 85.5471 125.456 85.4806 124.861C85.4182 124.262 85.2187 123.692 84.9318 123.192C84.3956 122.273 83.6058 121.586 82.7328 121.103C82.1924 119.239 81.6436 117.384 81.2154 115.524C80.7665 113.589 80.463 111.642 80.5088 109.703L80.517 109.52L80.5212 109.436L80.5254 109.391L80.5669 109.016L80.6542 108.271L80.8455 106.765C80.9826 105.758 81.099 104.747 81.1905 103.724C81.2695 102.7 81.3111 101.668 81.2695 100.632C81.2196 99.6002 81.099 98.5558 80.7831 97.5739C80.7041 99.6252 80.3424 101.581 80.0016 103.57L79.4819 106.557L79.2284 108.063L79.1078 108.825L79.0538 109.203L79.0455 109.253L79.0372 109.353L79.033 109.453L79.0205 109.653C78.9166 111.779 79.2284 113.884 79.7272 115.894C79.9767 116.901 80.2676 117.887 80.5919 118.861C80.9161 119.834 81.2487 120.8 81.6187 121.748L81.7226 122.011L81.9304 122.11C82.7037 122.526 83.373 123.142 83.7637 123.87C84.1586 124.582 84.2335 125.389 83.9757 126.138C83.9674 126.155 83.8344 126.292 83.6556 126.388C83.585 126.076 83.4685 125.789 83.323 125.539C83.0986 125.16 82.8117 124.848 82.4958 124.59C81.8639 124.078 81.0949 123.775 80.3466 123.771C81.0658 123.983 81.6519 124.465 82.0469 125.027C82.4418 125.585 82.6247 126.275 82.4792 126.779C82.475 126.795 82.475 126.816 82.4709 126.833C82.1217 126.929 81.7641 127.016 81.3983 127.083C80.305 127.278 79.1785 127.386 78.0561 127.44C76.9295 127.486 75.7988 127.465 74.7013 127.345C74.1526 127.282 73.608 127.195 73.0967 127.062C72.6145 126.937 72.1281 126.746 71.8538 126.525C71.1096 125.685 70.6233 124.486 70.2658 123.284C69.9083 122.044 69.663 120.746 69.5092 119.435C69.1932 116.809 69.1891 114.134 69.3637 111.475C69.5466 108.816 69.954 106.17 70.6233 103.599C70.9475 102.317 71.3549 101.044 71.754 99.7666C72.1697 98.4934 72.6104 97.2369 73.1799 95.9969C72.2445 96.9955 71.5462 98.2063 70.9476 99.4338C70.6441 100.05 70.378 100.678 70.1244 101.314C69.8625 101.943 69.6505 102.613 69.451 103.266C68.6736 105.908 68.2247 108.629 67.9794 111.363C67.7341 114.097 67.73 116.859 68.0251 119.61C68.1789 120.987 68.4076 122.364 68.8067 123.721C69.0062 124.399 69.2473 125.073 69.5591 125.73C69.8708 126.388 70.2533 127.037 70.7854 127.615L70.8228 127.653L70.8519 127.678C71.4879 128.189 72.1156 128.372 72.7267 128.543C73.3378 128.701 73.9406 128.797 74.5434 128.863C75.7447 128.992 76.9378 129.009 78.1267 128.959C79.3156 128.909 80.5004 128.784 81.6852 128.539C82.2755 128.414 82.87 128.268 83.4686 128.048C83.7679 127.936 84.0672 127.807 84.3748 127.624C84.6699 127.432 85.0275 127.224 85.2769 126.679L85.2852 126.662L85.2894 126.625Z" fill="black"/>
<path d="M40.8628 93.9747C41.2078 91.0788 42.5547 88.6655 45.3774 88.3867C47.7884 88.1495 49.9542 90.3631 51.1265 93.7209C52.0286 96.2965 53.1344 104.676 52.5857 108.908C51.6004 114.446 47.0319 121.07 46.2004 122.572C46.9113 125.252 45.7473 129.504 40.7089 127.944C35.6664 126.388 31.1893 121.166 31.6133 117.305C31.5427 116.343 38.2813 110.726 40.0148 104.735C41.2868 99.1134 40.5302 96.7667 40.8628 93.9747Z" fill="#E6E6E6"/>
<path d="M45.3776 88.3867C47.7845 88.1454 49.9545 90.3673 51.1267 93.7209C52.0288 96.2965 53.1388 104.676 52.5859 108.908C51.6048 114.446 47.0321 121.066 46.2006 122.572C46.9115 125.252 45.7475 129.504 40.705 127.944C35.6625 126.388 31.1854 121.166 31.6094 117.305C31.5512 116.472 36.5729 112.166 39.0588 107.144C42.2473 113.88 47.7304 103.228 47.111 97.2035C46.6413 92.6516 44.1554 90.5753 42.135 90.2716C42.875 89.2314 43.9309 88.5323 45.3776 88.3867Z" fill="#D4D4D4"/>
<path d="M51.139 93.7584C51.351 94.37 51.5713 95.302 51.7792 96.4213C50.0956 96.8707 47.7759 97.1204 45.9136 95.714C47.3685 95.8222 49.4637 94.8652 51.139 93.7584Z" fill="#1A1313"/>
<path d="M52.0493 97.9983C52.2571 99.3422 52.4359 100.84 52.5606 102.326C50.1994 102.866 46.3957 102.987 43.5356 100.137C44.4419 100.819 49.0936 99.8499 52.0493 97.9983Z" fill="#1A1313"/>
<path d="M52.7226 105.326C52.7517 106.665 52.7185 107.905 52.5855 108.908C52.2903 110.56 51.6834 112.307 50.9434 113.988C46.3499 115.361 43.149 113.214 41.5776 110.377C44.2922 111.829 47.1356 111.575 48.7028 110.198C44.9781 110.706 41.3074 107.693 39.7568 105.529C39.8524 105.267 39.9356 105.001 40.0187 104.735C40.1268 104.252 40.2224 103.798 40.3014 103.366C42.7582 105.221 48.7527 106.861 52.7226 105.326Z" fill="#1A1313"/>
<path d="M46.8572 95.6516C46.9113 95.8721 46.957 96.0968 46.9944 96.334C46.6244 96.18 46.2586 95.972 45.9136 95.7098C46.2046 95.7306 46.5205 95.714 46.8572 95.6516Z" fill="#332525"/>
<path d="M43.5356 100.137C43.9888 100.478 45.3772 100.407 47.0276 100.02C46.932 100.699 46.7906 101.398 46.6077 102.084C45.5393 101.701 44.4835 101.086 43.5356 100.137Z" fill="#332525"/>
<path d="M40.3014 103.366C41.4238 104.21 43.2778 105.013 45.348 105.488C44.6871 106.84 43.8931 107.972 43.0617 108.646C41.6441 107.714 40.476 106.532 39.7568 105.529C39.8524 105.267 39.9356 105.001 40.0187 104.735C40.1227 104.252 40.2182 103.798 40.3014 103.366Z" fill="#332525"/>
<path d="M50.1332 115.711C48.5327 118.944 46.6995 121.669 46.2006 122.568C46.9115 125.248 45.7475 129.5 40.705 127.94C35.6625 126.384 31.1854 121.162 31.6094 117.3C31.5595 116.593 35.2011 113.36 37.8159 109.316C39.1877 111.896 44.9785 117.113 50.1332 115.711Z" fill="white"/>
<path d="M48.9648 89.9554C49.7629 91.187 50.295 92.5018 50.6733 93.8624C51.0183 95.1939 51.222 96.6419 51.434 98.0566C51.6294 99.4796 51.7791 100.915 51.8747 102.351C51.9745 103.786 52.041 105.222 52.0077 106.64C51.9911 107.348 51.9495 108.055 51.8622 108.737L51.8581 108.787V108.792L51.8539 108.825L51.8289 108.958L51.779 109.212L51.6627 109.715C51.5795 110.052 51.4839 110.389 51.38 110.726C50.9643 112.066 50.4197 113.381 49.8211 114.675C49.21 115.965 48.549 117.234 47.8465 118.486C47.144 119.751 46.3957 120.937 45.6599 122.26L45.5352 122.485L45.6017 122.73C45.8178 123.612 45.8054 124.594 45.5435 125.447C45.2899 126.309 44.7537 127.012 44.0054 127.328C43.9929 127.332 43.9805 127.336 43.968 127.345C43.9721 127.282 43.9763 127.216 43.9763 127.153C43.9722 126.712 43.8807 126.296 43.7393 125.913C43.4483 125.152 42.9412 124.495 42.2927 124.103C42.8082 124.657 43.0742 125.372 43.1324 126.059C43.1823 126.621 43.0659 127.187 42.8123 127.569C42.3592 127.578 41.8895 127.515 41.4239 127.399C40.501 127.166 39.6031 126.783 38.7425 126.317C37.0298 125.385 35.4876 124.083 34.2737 122.543C33.6709 121.773 33.1555 120.937 32.7897 120.055C32.428 119.177 32.2243 118.245 32.3199 117.375V117.367C32.3324 117.342 32.3532 117.305 32.3823 117.263C32.4405 117.167 32.5236 117.055 32.6067 116.947C32.7772 116.726 32.9684 116.497 33.1597 116.273L34.3402 114.904C35.1342 113.984 35.9241 113.04 36.6723 112.062C38.1606 110.102 39.5407 107.997 40.3805 105.588C40.4345 105.438 40.4802 105.284 40.5259 105.134L40.5925 104.905L40.6507 104.643L40.8336 103.732C40.9458 103.124 41.0455 102.509 41.1245 101.893C41.2825 100.661 41.3532 99.413 41.3449 98.173C41.3449 96.9331 41.2326 95.7265 41.2409 94.5489C41.2493 93.3673 41.3656 92.1898 41.7024 90.9998C40.9499 91.99 40.5675 93.2466 40.3888 94.4865C40.2225 95.7431 40.264 96.9747 40.2474 98.1689C40.2349 99.3672 40.1477 100.553 39.9772 101.735C39.8941 102.326 39.7901 102.912 39.6696 103.499L39.4784 104.377L39.4368 104.56L39.3744 104.768C39.3287 104.905 39.283 105.043 39.2331 105.18C38.4349 107.369 37.0922 109.366 35.6248 111.234C34.8848 112.17 34.0991 113.077 33.301 113.976C32.9019 114.429 32.4903 114.875 32.0913 115.341C31.8917 115.574 31.6881 115.811 31.4885 116.073C31.3887 116.206 31.289 116.339 31.1851 116.497C31.1352 116.576 31.0811 116.668 31.0313 116.776C30.9855 116.893 30.9024 117.013 30.9107 117.35L30.9148 117.217C30.786 118.42 31.0603 119.572 31.4802 120.604C31.9042 121.64 32.4904 122.576 33.1555 123.434C34.4982 125.139 36.1693 126.554 38.0608 127.59C39.0086 128.102 40.0229 128.514 41.0955 128.772C42.168 129.022 43.3985 129.101 44.55 128.585C45.1195 128.335 45.6267 127.923 46.005 127.436C46.3874 126.949 46.6451 126.392 46.8072 125.826C47.0941 124.777 47.1024 123.708 46.8696 122.672C47.1938 122.148 47.5638 121.603 47.9005 121.058C48.2871 120.442 48.6738 119.818 49.0479 119.189C49.7962 117.929 50.5153 116.643 51.1472 115.307C51.7874 113.976 52.3611 112.599 52.7934 111.159C52.9015 110.797 53.0012 110.435 53.0927 110.065L53.2174 109.507L53.2756 109.224L53.3005 109.091L53.3172 108.983L53.3255 108.912C53.417 108.151 53.4419 107.398 53.4502 106.653C53.4543 103.674 53.1301 100.757 52.6521 97.8527C52.5315 97.1287 52.3943 96.4047 52.2239 95.6849C52.0576 94.9609 51.858 94.2494 51.5712 93.5296C50.9767 92.169 50.1495 90.8458 48.9648 89.9554ZM32.3074 117.392C32.3033 117.404 32.3033 117.4 32.3074 117.392Z" fill="black"/>
<path d="M101.26 65.552C103.584 64.0874 106.86 60.8711 106.885 58.7823C106.901 57.2303 105.891 56.8018 103.792 55.0958C101.256 53.032 99.2524 50.2193 97.8266 48.3927C96.0515 46.9073 93.9023 48.272 92.0566 51.3469C89.7868 55.1333 88.6104 62.6519 93.3993 66.9251C95.3074 67.957 98.0926 67.5492 101.26 65.552Z" fill="#E6E6E6"/>
<path d="M106.889 58.7823C106.806 58.4869 106.71 58.2164 106.565 57.9918C106.423 57.7629 106.241 57.584 106.037 57.4134C105.625 57.0847 105.131 56.7934 104.644 56.4731C104.158 56.1527 103.672 55.8115 103.206 55.437C102.732 55.0542 102.283 54.6548 101.851 54.2387C100.986 53.4065 100.184 52.5203 99.4189 51.6132C98.654 50.7103 97.9348 49.7741 97.2239 48.867L97.3362 48.9835C96.7292 48.4801 96.1015 48.4468 95.3782 48.8421C94.6715 49.2332 94.0188 49.928 93.4534 50.677C93.1708 51.0556 92.9048 51.4592 92.6595 51.8712C92.4267 52.2706 92.2105 52.6992 92.0193 53.1361C91.6452 54.014 91.3458 54.9377 91.1297 55.8781C90.7057 57.7629 90.6308 59.7352 91.0174 61.6117C91.3708 63.5007 92.1648 65.2732 93.4036 66.9209C91.5994 65.8849 90.3315 63.9543 89.7953 61.8946C89.2673 59.8184 89.3047 57.6506 89.6914 55.5785C89.8867 54.5383 90.186 53.5147 90.6017 52.5286C90.8096 52.0334 91.0382 51.5549 91.3126 51.0764C91.5787 50.6187 91.8655 50.1694 92.1814 49.7325C92.8174 48.867 93.5533 48.0182 94.6341 47.4357C95.1703 47.1528 95.8271 46.9489 96.5255 47.0113C97.2197 47.0654 97.86 47.3899 98.3297 47.7935L98.3962 47.8518L98.4419 47.91C99.1652 48.8462 99.847 49.7782 100.554 50.6853C101.265 51.5882 102.005 52.4662 102.794 53.2775C103.189 53.6853 103.601 54.0764 104.025 54.4426C104.453 54.817 104.894 55.1915 105.33 55.5868C105.546 55.7865 105.767 55.9904 105.974 56.2109C106.186 56.4314 106.399 56.6644 106.577 56.9391C106.76 57.2095 106.902 57.5258 106.956 57.8461C107.01 58.1748 106.972 58.4911 106.889 58.7823Z" fill="black"/>
<path d="M108.523 55.7782C108.178 54.7962 107.205 53.5147 105.788 52.8198C109.737 53.1652 112.056 55.2456 113.249 58.1415C113.2 56.0445 111.674 53.3025 110.498 52.4037C112.983 52.6534 117.531 55.3496 117.947 60.1221C118.916 58.0875 118.882 55.6284 118.259 53.7893C122.071 56.2858 122.865 61 121.584 64.3662C123.576 67.2288 124.07 72.5838 123.451 75.072C122.208 76.4409 119.967 80.0526 121.09 81.5463C121.959 82.6656 123.206 82.5407 123.95 82.4201C124.573 81.796 129.05 81.796 129.175 83.9138C129.3 86.0317 128.182 88.1454 127.059 88.6447C126.56 91.008 122.935 93.1384 121.584 93.0011C119.718 92.6266 116.733 91.0081 115.864 87.5213C112.505 89.2647 112.755 94.99 115.365 97.2327C115.964 98.2937 113.125 100.719 110.389 101.339C107.172 100.819 103.921 98.4768 102.179 95.2396C97.8726 94.5489 93.1086 94.9941 89.492 95.3645C89.2841 94.5489 89.492 92.1273 90.2361 91.0081C87.2513 91.1329 83.0153 89.5975 81.2984 87.4713C83.2896 86.8472 85.5095 85.7779 86.3784 85.0289C83.643 83.0359 77.1538 78.1635 76.6758 69.5922C77.9603 70.9861 79.4776 71.7933 81.1529 72.8293C78.7876 69.2177 78.1682 66.4799 78.2929 62.7434C81.5977 62.8932 86.898 61.1207 93.2209 57.3884C97.2989 54.9918 103.672 53.4107 108.523 55.7782Z" fill="#E6E6E6"/>
<path d="M125.072 84.7709C124.082 83.8015 123.924 83.4644 123.945 82.4201C124.569 81.7959 129.046 81.7959 129.17 83.9138C129.295 86.0275 128.177 88.1454 127.055 88.6447C125.886 88.1787 126.552 86.3854 125.508 85.1912C125.346 85.0372 125.2 84.8999 125.072 84.7709Z" fill="black"/>
<path d="M125.508 85.1912C126.527 86.3105 125.836 87.9998 127.054 88.6447C126.56 91.0081 122.935 93.1384 121.584 93.0011C119.717 92.6266 116.732 91.0081 115.859 87.5213C112.505 89.2647 112.75 94.9941 115.365 97.2327C115.963 98.2937 113.124 100.719 110.389 101.344C107.171 100.823 103.92 98.4768 102.179 95.2396C101.742 95.1689 101.297 95.1107 100.853 95.0649C100.192 90.0885 104.423 87.4589 106.373 87.0553C104.856 86.7099 103.06 86.298 101.264 86.8514C105.13 82.0789 111.071 83.0484 112.455 83.1857C115.149 82.5616 119.568 83.7391 121.089 84.5671C122.116 84.513 123.916 84.4589 125.072 84.771C125.2 84.8999 125.346 85.0373 125.508 85.1912Z" fill="#F5F5F5"/>
<path d="M93.2245 57.3926C96.309 55.5701 100.711 54.2262 104.773 54.7047C100.549 55.05 94.3801 57.946 92.5178 64.7656C90.6804 71.4937 92.4471 74.7184 94.5963 77.1108C92.655 77.6642 90.9922 77.943 87.4587 77.4229C90.6804 81.7918 94.9414 82.4159 97.7848 83.0733C95.7728 84.8084 92.4139 86.1607 90.8882 86.5768C92.9668 88.2411 94.9414 88.9693 97.2277 89.3146C96.3963 90.5629 95.3571 91.1537 94.4217 91.8818C95.752 93.0094 97.3816 94.033 99.6139 94.9567C96.0555 94.7237 92.4014 95.0691 89.4915 95.3645C89.2836 94.5531 89.4915 92.1273 90.2397 91.0081C87.255 91.1329 83.0189 89.5975 81.3021 87.4713C83.2933 86.8514 85.5131 85.7779 86.382 85.0331C83.6466 83.0401 77.1575 78.1677 76.6836 69.5964C77.9681 70.9861 79.4813 71.7974 81.1607 72.8335C78.7954 69.2219 78.176 66.484 78.3007 62.7476C81.6055 62.8974 86.9058 61.1249 93.2245 57.3926Z" fill="#D4D4D4"/>
<path d="M129.803 84.0803L129.794 83.9013C129.786 83.7183 129.757 83.556 129.703 83.3854C129.599 83.0484 129.395 82.7488 129.167 82.5241C128.934 82.2994 128.68 82.133 128.423 81.9998C127.907 81.7419 127.383 81.6087 126.864 81.5255C126.344 81.4464 125.824 81.4173 125.296 81.4464C125.035 81.4631 124.769 81.488 124.49 81.5421C124.353 81.5713 124.211 81.6045 124.058 81.6586C123.95 81.7044 123.841 81.7418 123.708 81.8251C122.977 81.9374 122.332 81.8584 121.879 81.4672C121.817 81.4173 121.759 81.3591 121.705 81.3008C121.68 81.2758 121.659 81.255 121.622 81.2051L121.597 81.1718L121.593 81.1635L121.568 81.126C121.505 81.0303 121.46 80.9055 121.435 80.7599C121.385 80.4645 121.43 80.09 121.522 79.7197C121.713 78.9707 122.075 78.2135 122.486 77.4978C122.902 76.7863 123.388 76.0831 123.916 75.4881L124.024 75.3674L124.058 75.2218C124.295 74.2274 124.336 73.2621 124.324 72.3009C124.307 71.3397 124.22 70.3911 124.066 69.4466C123.912 68.502 123.692 67.57 123.38 66.6546C123.11 65.8641 122.769 65.0902 122.316 64.3578C123.143 62.0403 122.935 59.473 122.312 57.6714C121.455 55.1915 119.784 53.3025 116.978 52.0542C117.843 53.8226 118.362 56.4938 118.088 59.0569C117.81 57.4966 117.602 56.2484 115.594 54.272C113.723 52.4329 111.021 51.8462 109.221 51.8795C110.676 52.9197 112.131 54.6173 112.755 56.8018C110.747 52.9863 107.799 52.3996 104.823 52.6076C104.823 52.6076 106.727 53.4731 108.086 55.1749C107.035 54.688 105.904 54.3635 104.752 54.2095C103.385 54.014 101.992 54.0389 100.629 54.2137C99.265 54.3843 97.9223 54.7047 96.6253 55.1541C95.3283 55.6034 94.0687 56.1651 92.8798 56.86C90.5934 58.1831 88.2406 59.394 85.8087 60.3759C84.5907 60.8627 83.3518 61.2871 82.1006 61.6159C80.8493 61.9362 79.5689 62.1609 78.3301 62.1193L77.69 62.0985L77.6775 62.7226V62.7268C77.6525 64.5409 77.8105 66.4091 78.3717 68.1733C78.7334 69.3384 79.2488 70.4327 79.8474 71.4687C79.5897 71.294 79.332 71.1192 79.0867 70.9361C78.3592 70.4036 77.6982 69.8252 77.1412 69.1595L76.0146 67.8197L76.0604 69.6213V69.6296C76.1768 71.2565 76.5177 72.8668 77.0747 74.3938C77.6276 75.9208 78.3925 77.3646 79.3153 78.6836C80.2382 80.0068 81.3107 81.2093 82.4789 82.2994C83.5389 83.2897 84.6821 84.1801 85.8544 85.0123C85.5842 85.1787 85.3015 85.3368 85.0105 85.4783C84.5948 85.678 84.1708 85.8611 83.7426 86.0275C82.8821 86.3604 82.0008 86.6475 81.1154 86.8722L80.2341 87.0927L80.8202 87.8583L80.8285 87.8708C81.4437 88.5698 82.1671 89.0857 82.9153 89.5143C83.6678 89.9429 84.4534 90.2799 85.2558 90.5504C86.0581 90.8208 86.8812 91.0289 87.7168 91.162C88.3736 91.266 89.0345 91.3243 89.7038 91.316C89.5958 91.5157 89.5043 91.7196 89.4253 91.9276C89.284 92.2979 89.1717 92.6766 89.0844 93.0594C88.9971 93.4422 88.9264 93.8291 88.8849 94.2244C88.8516 94.6322 88.8059 95.0066 88.8932 95.5142L88.9722 95.9969L89.5583 95.9803H89.5708C91.6742 95.7639 93.7694 95.5767 95.8604 95.5184C97.8516 95.4643 99.8429 95.5267 101.793 95.8097C102.661 97.3284 103.842 98.6557 105.23 99.7084C106.706 100.819 108.427 101.647 110.289 101.951L110.41 101.972L110.526 101.943C111.753 101.656 112.867 101.115 113.877 100.42C114.38 100.066 114.862 99.6709 115.295 99.1841C115.511 98.9386 115.714 98.6682 115.877 98.327C115.956 98.1522 116.03 97.9608 116.059 97.7195C116.089 97.4865 116.055 97.1828 115.91 96.9248L115.856 96.8333L115.773 96.7583L115.764 96.75C115.153 96.2424 114.684 95.5184 114.372 94.7279C114.06 93.9331 113.898 93.0677 113.894 92.2064C113.89 91.3451 114.043 90.4755 114.397 89.7099C114.675 89.1024 115.091 88.5698 115.615 88.1745C115.777 88.6946 115.993 89.2023 116.267 89.6808C116.633 90.3215 117.095 90.9082 117.623 91.42C118.155 91.9318 118.753 92.3687 119.402 92.7223C120.05 93.076 120.736 93.3548 121.48 93.517L121.505 93.5212H121.53C121.971 93.5587 122.312 93.4713 122.644 93.3797C122.973 93.284 123.284 93.1592 123.584 93.0219C124.178 92.7431 124.735 92.4019 125.259 92.0108C125.783 91.6155 126.273 91.1703 126.697 90.6461C127.063 90.1925 127.383 89.6641 127.575 89.0566C128.032 88.7779 128.352 88.4117 128.622 88.0414C128.938 87.5962 129.175 87.1177 129.362 86.6225C129.545 86.1274 129.674 85.6114 129.745 85.0872C129.778 84.825 129.799 84.5588 129.799 84.2925L129.803 84.0803ZM128.51 84.9249C128.456 85.3535 128.348 85.7779 128.198 86.1856C128.048 86.5934 127.849 86.9804 127.612 87.3216C127.375 87.6586 127.076 87.954 126.81 88.0747L126.805 88.0788L126.502 88.2453L126.448 88.5199C126.356 88.99 126.099 89.4727 125.766 89.9096C125.43 90.3465 125.014 90.7501 124.565 91.1079C124.116 91.4658 123.621 91.782 123.114 92.0399C122.86 92.1689 122.599 92.2771 122.341 92.3603C122.096 92.4394 121.834 92.4935 121.659 92.4852C121.052 92.3645 120.445 92.144 119.876 91.8527C119.298 91.5531 118.753 91.1787 118.271 90.7418C117.307 89.8638 116.604 88.7113 116.267 87.4381V87.4297L116.143 86.9346L115.677 87.1634C114.754 87.6128 114.018 88.4075 113.565 89.3104C113.108 90.2133 112.896 91.2119 112.863 92.2022C112.834 93.1925 112.979 94.1911 113.308 95.1356C113.619 96.026 114.106 96.8873 114.825 97.5822C114.825 97.5864 114.825 97.5863 114.825 97.5905C114.821 97.6363 114.796 97.7195 114.754 97.8069C114.671 97.9858 114.526 98.1855 114.363 98.3727C114.031 98.7514 113.615 99.1009 113.175 99.4088C112.322 99.9997 111.358 100.462 110.373 100.707C108.797 100.424 107.288 99.7042 105.991 98.7264C104.657 97.7153 103.53 96.4213 102.736 94.9525L102.591 94.6779L102.287 94.628C100.138 94.2868 97.9764 94.2202 95.8355 94.2785C93.8775 94.3326 91.9362 94.499 90.0031 94.6904C89.9865 94.5531 89.9782 94.4075 89.9698 94.2702C89.9574 93.9206 89.9657 93.5628 89.9906 93.205C90.053 92.4976 90.1736 91.7695 90.4812 91.1787L90.4854 91.1703L90.793 90.7168H90.2317C89.4377 90.721 88.6396 90.6086 87.8622 90.4297C87.0807 90.2508 86.3158 90.0011 85.58 89.6974C84.8442 89.3895 84.1333 89.0275 83.4807 88.5948C83.0775 88.3285 82.6992 88.0289 82.3625 87.7043C82.9652 87.4464 83.5555 87.1759 84.1334 86.8722C84.5574 86.6475 84.9773 86.4062 85.3888 86.1482C85.7962 85.8861 86.1994 85.6156 86.5736 85.2661L86.5819 85.2578L86.8729 85.0248L86.5611 84.7918C85.3057 83.8514 84.1042 82.8611 83.0068 81.7627C81.9093 80.6642 80.9158 79.47 80.0803 78.1802C79.2447 76.8903 78.5671 75.5006 78.0973 74.0526C77.7814 73.079 77.5652 72.0721 77.4364 71.0568C77.7897 71.3189 78.1555 71.5644 78.5214 71.7891C79.332 72.2843 80.1509 72.7128 80.9491 73.1622L80.9532 73.1664L82.3957 74.0984L81.4812 72.6254C80.5542 71.1359 79.7685 69.5672 79.3361 67.907C78.9454 66.4424 78.8415 64.9196 78.8913 63.3842C80.101 63.3676 81.2692 63.1554 82.4082 62.8849C83.7426 62.5604 85.0313 62.1151 86.2909 61.6075C88.8059 60.5964 91.2087 59.3482 93.5158 57.9626C95.7315 56.6395 98.2299 55.7657 100.778 55.3455C102.054 55.1499 103.351 55.0833 104.636 55.1832C105.916 55.2955 107.184 55.5785 108.373 56.0861L108.81 56.2733C108.81 56.2733 108.697 54.7962 107.45 53.4772C110.589 54.3052 112.439 56.9099 113.37 59.3024C113.37 59.3024 114.102 56.0112 112.023 53.3399C113.79 54.1721 117.219 55.9405 117.564 60.9917C118.778 59.6852 119.335 57.2594 119.231 55.3871C120.375 56.6353 121.102 58.1291 121.381 59.4772C121.933 62.1817 120.836 64.3745 120.836 64.3745L121.077 64.724C121.555 65.4189 121.921 66.2219 122.204 67.0582C122.486 67.8946 122.694 68.7683 122.84 69.6546C122.985 70.5367 123.068 71.4354 123.081 72.3259C123.093 73.1664 123.047 74.0235 122.873 74.7974C122.303 75.4548 121.834 76.1455 121.405 76.8778C120.956 77.6642 120.549 78.4881 120.308 79.4243C120.196 79.8944 120.113 80.4021 120.2 80.9679C120.246 81.2467 120.341 81.5463 120.516 81.8126L120.582 81.9125L120.653 81.9998C120.682 82.0373 120.736 82.0955 120.782 82.1496C120.877 82.2536 120.973 82.3452 121.081 82.4326C121.501 82.7862 122.041 83.0109 122.565 83.0858C123.089 83.1649 123.6 83.1149 124.054 83.04L124.211 83.0151L124.394 82.8653C124.34 82.911 124.407 82.857 124.478 82.8403C124.548 82.8153 124.644 82.7904 124.739 82.7696C124.935 82.7321 125.147 82.7072 125.363 82.6947C125.795 82.6739 126.244 82.6947 126.672 82.7613C127.101 82.8278 127.52 82.9402 127.861 83.1149C128.211 83.2897 128.448 83.5227 128.518 83.7599C128.539 83.8181 128.551 83.893 128.551 83.9513L128.56 84.1302V84.28C128.551 84.4922 128.539 84.7127 128.51 84.9249Z" fill="black"/>
<path d="M109.874 72.0845C112.056 71.1484 115.228 69.7461 118.67 74.1275C119.227 73.9569 120.058 72.9666 120.121 71.2233C119.85 71.9264 119.643 72.2926 119.36 72.5381C118.391 70.3952 115.698 68.9431 114.247 69.0138C112.867 69.2885 111.171 70.3661 109.874 72.0845Z" fill="black"/>
<path d="M109.217 78.9915C110.979 81.7086 115.095 83.0525 118.491 81.3799C116.188 85.0331 109.849 84.3049 109.217 78.9915Z" fill="black"/>
<path d="M118.67 66.8003C116.284 65.8433 111.691 65.4272 109.965 65.8308C108.377 66.9376 106.789 69.9792 106.444 71.1567C104.025 71.0194 99.1903 71.9847 97.1866 72.7461C100.363 73.1248 104.096 74.3356 105.131 75.097C101.676 74.889 92.2064 75.7253 89.866 85.9526C89.1925 83.2148 88.9847 79.5241 89.3838 76.9652C91.2503 75.8584 97.2572 74.477 99.1237 74.4063C97.1907 73.5783 93.1126 73.5783 91.3875 73.7822C94.1519 70.9486 100.092 69.4258 104.511 69.6338C105.301 66.4674 107.895 63.9626 108.864 63.688C112.472 63.5881 115.864 64.5617 118.67 66.8003Z" fill="#332525"/>
<path d="M113.557 61.5451C110.443 61.1623 107.026 61.7199 105.925 61.9945C104.503 62.8267 102.923 65.6227 102.37 66.5215C101.194 66.5922 98.0885 67.0041 96.6377 67.7656C97.6063 66.2427 99.4021 65.8308 99.955 65.6893C100.628 63.4466 102.304 60.9876 103.202 60.3634C106.789 59.8142 110.31 60.2303 113.557 61.5451Z" fill="#332525"/>
<path d="M102.287 56.8642C101.464 57.5299 100.72 58.7199 100.229 60.3718C101.41 59.2899 104.628 57.5674 109.554 58.2664C107.484 57.2803 105.833 56.7352 102.287 56.8642Z" fill="#332525"/>
<path d="M122.091 87.5046C122.091 87.7418 121.854 87.9332 121.563 87.9332C121.272 87.9332 121.035 87.7418 121.035 87.5046C121.035 87.2675 121.272 87.0761 121.563 87.0761C121.854 87.0761 122.091 87.2675 122.091 87.5046Z" fill="#B7B7B7"/>
<path d="M122.677 88.6946C122.677 88.8569 122.528 88.9859 122.345 88.9859C122.162 88.9859 122.012 88.8569 122.012 88.6946C122.012 88.5324 122.162 88.4034 122.345 88.4034C122.528 88.4034 122.677 88.5324 122.677 88.6946Z" fill="#B7B7B7"/>
<path d="M123.422 87.7168C123.422 87.8999 123.239 88.0497 123.01 88.0497C122.782 88.0497 122.599 87.8999 122.599 87.7168C122.599 87.5338 122.782 87.384 123.01 87.384C123.239 87.384 123.422 87.5338 123.422 87.7168Z" fill="#B7B7B7"/>
<path d="M127.504 83.9721C127.445 84.28 126.926 84.4381 126.344 84.3257C125.762 84.2134 125.338 83.8764 125.396 83.5685C125.454 83.2606 125.974 83.1025 126.556 83.2148C127.134 83.323 127.562 83.6642 127.504 83.9721Z" fill="#F5F5F5"/>
<path d="M94.5964 77.1108C93.025 77.5602 91.6366 77.8265 89.292 77.6351C89.3169 77.4021 89.3461 77.1774 89.3793 76.9611C90.1733 76.495 91.7114 75.9749 93.3618 75.5297C93.74 76.1081 94.1599 76.624 94.5964 77.1108Z" fill="#1A1313"/>
<path d="M92.1976 73.054C92.2641 73.2745 92.3389 73.4909 92.4179 73.6989C92.023 73.7197 91.6696 73.7489 91.3828 73.7822C91.6281 73.5284 91.9025 73.287 92.1976 73.054Z" fill="#1A1313"/>
<path d="M91.8153 81.1885C90.9756 82.4908 90.2979 84.0594 89.8656 85.9526C89.3834 83.9887 89.1381 81.5297 89.188 79.3535C90.0402 80.1316 90.9257 80.7224 91.8153 81.1885Z" fill="#1A1313"/>
<path d="M94.2184 66.7795C96.4133 64.9612 99.4064 61.179 99.2526 58.9654C99.132 57.3219 98.0886 56.989 95.8479 55.4245C93.1375 53.5355 90.8969 50.7935 89.3131 49.0251C87.4133 47.6604 85.3847 49.3497 83.805 52.8198C81.8636 57.0847 81.3357 65.1775 86.4863 69.1387C88.4733 70.0124 91.2212 69.2552 94.2184 66.7795Z" fill="#E6E6E6"/>
<path d="M88.3405 52.7699C90.0491 56.9099 92.6638 59.1568 94.6135 61.0292C94.8962 61.7823 91.874 66.484 88.6398 66.4508C86.6112 64.4536 85.8878 62.2774 85.8172 59.2275C85.7423 56.1943 87.2347 52.2872 88.3405 52.7699Z" fill="#DAB5B5"/>
<path d="M99.2526 58.9654C99.0863 58.3704 98.7912 57.8877 98.3422 57.5757C97.9099 57.247 97.3778 56.9932 96.8623 56.7019C96.3344 56.4273 95.8189 56.1111 95.2993 55.7907C94.7755 55.4536 94.285 55.0875 93.8111 54.6964C91.9279 53.1277 90.3108 51.297 88.727 49.5494L88.8558 49.6617C88.5274 49.4287 88.2032 49.3206 87.8831 49.3455C87.563 49.3663 87.2055 49.5244 86.8646 49.7866C86.1787 50.315 85.6092 51.1472 85.1103 52.0001C84.8651 52.4329 84.6364 52.8864 84.4286 53.3524C84.2332 53.7935 84.0586 54.272 83.909 54.7505C83.6138 55.7116 83.3977 56.7102 83.2605 57.7171C82.9903 59.7352 83.0859 61.8031 83.593 63.7587C84.0919 65.7185 85.0313 67.5534 86.4905 69.1303C85.5343 68.631 84.6946 67.8946 84.0129 67.025C83.3353 66.1512 82.8157 65.1484 82.4623 64.0999C81.7556 61.9903 81.6267 59.7393 81.8221 57.5549C81.9219 56.4564 82.1214 55.3704 82.4373 54.3053C82.5953 53.7685 82.7741 53.2484 82.9986 52.72C83.2147 52.2123 83.4559 51.713 83.7219 51.2221C84.2623 50.2443 84.9108 49.2831 85.9085 48.5092C86.4074 48.1347 87.0433 47.806 87.7875 47.7602C88.5316 47.7061 89.2591 47.9933 89.7787 48.3802L89.8577 48.4385L89.9076 48.4967C90.7057 49.4038 91.454 50.315 92.2439 51.1846C93.0295 52.0542 93.8443 52.8906 94.709 53.6603C95.1371 54.0473 95.582 54.4217 96.0268 54.7796C96.4757 55.1541 96.9579 55.4911 97.4194 55.8739C97.8849 56.2484 98.3755 56.6353 98.787 57.1471C98.9824 57.4092 99.1528 57.7088 99.2277 58.0292C99.2942 58.3454 99.2942 58.6617 99.2526 58.9654Z" fill="black"/>
<path d="M85.8172 59.2317C85.6925 57.9959 85.7882 56.7268 86.0376 55.4828C86.1706 54.8586 86.3369 54.2428 86.5988 53.627C86.736 53.3191 86.8856 53.0154 87.1267 52.7075C87.2514 52.5577 87.3969 52.3996 87.6339 52.2664C87.7503 52.1999 87.8958 52.1458 88.0704 52.125C88.2408 52.1042 88.432 52.1333 88.5859 52.1957H88.59L88.8228 52.2914L88.9184 52.5286C89.542 54.0972 90.3858 55.5743 91.4251 56.9141C92.4602 58.2622 93.6949 59.448 94.9545 60.6755L95.0418 60.7587L95.075 60.8544V60.8586C95.1498 61.1207 95.1041 61.2497 95.0833 61.3745C95.0542 61.4952 95.021 61.5992 94.9794 61.6991C94.9004 61.8946 94.8131 62.0652 94.7175 62.2358C94.5263 62.5687 94.3143 62.8766 94.0856 63.172C93.6325 63.7587 93.1253 64.2954 92.5725 64.7781C92.0196 65.2566 91.4126 65.681 90.7517 65.9931C90.0907 66.3051 89.3632 66.4924 88.6441 66.4466C89.3632 66.4133 90.0408 66.147 90.6353 65.7808C91.2339 65.4105 91.7619 64.9445 92.2358 64.4286C92.7097 63.9126 93.1295 63.3509 93.487 62.7601C93.6658 62.4647 93.8279 62.1609 93.9568 61.853C94.0233 61.6991 94.0773 61.5493 94.1189 61.4036C94.1397 61.3329 94.1522 61.2622 94.1563 61.2081C94.1688 61.1582 94.1397 61.1041 94.1605 61.1956L94.281 61.3745C93.0131 60.2012 91.687 58.9987 90.5605 57.6048C89.4256 56.2192 88.4778 54.6589 87.7711 53.0029L88.0954 53.3358C88.1369 53.3441 88.2076 53.3108 88.1535 53.315C88.1119 53.3191 88.0205 53.3732 87.9374 53.4439C87.7628 53.5979 87.5882 53.8226 87.4343 54.0598C87.1226 54.5424 86.8648 55.0916 86.6445 55.6534C86.1997 56.7893 85.8962 57.9917 85.8172 59.2317Z" fill="#D4D4D4"/>
</svg>
