<svg width="133" height="137" viewBox="0 0 133 137" fill="none" xmlns="http://www.w3.org/2000/svg">
<path d="M86.2099 94.6891C83.8611 94.427 81.8824 97.4603 80.3443 103.061C78.8062 108.661 79.1803 121.069 82.93 125.026C86.16 127.006 94.9604 126.083 96.0163 123.807C96.6815 121.656 94.8565 119.875 92.9069 119.059C90.9198 115.731 89.0616 111.412 89.3692 109.065C89.8265 101.808 90.6413 95.1843 86.2099 94.6891Z" fill="#E6E6E6"/>
<path d="M96.0157 123.811C94.9598 126.087 86.1594 127.011 82.9293 125.026C81.0337 123.025 79.9986 118.868 79.6411 114.52C83.4074 114.952 88.0591 114.191 90.1086 113.238C90.7862 115.152 91.8254 117.249 92.9062 119.059C94.8559 119.879 96.6808 121.656 96.0157 123.811Z" fill="#EFEFEF"/>
<path d="M89.3359 109.589C89.3317 110.28 89.4689 111.095 89.7142 111.977C86.6962 112.897 83.8153 112.027 82.0527 110.276C83.7156 110.579 87.17 110.546 89.3359 109.589Z" fill="#1A1313"/>
<path d="M89.5058 106.959C89.4642 107.609 89.4144 108.262 89.377 108.928C87.419 109.127 85.831 108.678 84.8042 107.804C86.2301 107.95 88.2254 107.525 89.5058 106.959Z" fill="#1A1313"/>
<path d="M89.5807 105.824C86.862 106.489 82.4264 106.032 79.9072 105.125C80.0278 104.371 80.1733 103.677 80.3396 103.061C80.352 103.015 80.3687 102.969 80.377 102.928C82.9834 103.639 86.1095 103.61 87.5978 102.674C85.5026 102.229 84.0103 101.613 82.8629 100.277C83.923 100.672 87.868 100.431 89.6514 99.678C89.8135 101.442 89.7262 103.552 89.5807 105.824Z" fill="#1A1313"/>
<path d="M96.5816 124.069L96.5983 124.036L96.6107 123.99C96.7936 123.403 96.8311 122.75 96.6939 122.142C96.5567 121.531 96.2616 120.977 95.8999 120.511C95.214 119.642 94.3202 119.026 93.3599 118.589C92.5867 117.149 91.8717 115.676 91.2606 114.179C90.9447 113.4 90.6537 112.618 90.4334 111.828C90.2089 111.045 90.0343 110.238 90.0384 109.498C90.0842 108.69 90.1133 107.796 90.1507 106.947C90.1923 106.086 90.2131 105.224 90.2172 104.359C90.2006 102.632 90.1049 100.864 89.6019 99.1787C89.498 100.918 89.2902 102.599 89.1114 104.305C88.9327 106.015 88.783 107.692 88.6251 109.46C88.596 110.446 88.7789 111.341 89.0075 112.215C89.2486 113.08 89.5437 113.921 89.8888 114.732C90.5747 116.359 91.4103 117.907 92.3664 119.375L92.4911 119.563L92.6615 119.629C93.5387 120 94.3535 120.553 94.9063 121.26C95.1807 121.614 95.3802 122.001 95.4717 122.405C95.559 122.787 95.5382 123.183 95.4301 123.574C95.3221 123.782 95.056 124.011 94.7318 124.206C94.6652 123.948 94.5696 123.707 94.4449 123.491C94.2329 123.112 93.9544 122.8 93.6426 122.538C93.0274 122.022 92.2666 121.701 91.5142 121.676C92.2292 121.905 92.8029 122.392 93.1812 122.954C93.5636 123.511 93.7258 124.194 93.5678 124.685C93.5636 124.697 93.5636 124.71 93.5636 124.722C93.3558 124.793 93.1479 124.859 92.9359 124.918C91.8759 125.205 90.7576 125.371 89.6435 125.446C88.5253 125.521 87.3987 125.513 86.3012 125.384C85.2454 125.255 84.1728 125.022 83.3331 124.543C82.6347 123.719 82.1317 122.671 81.7451 121.589C81.3544 120.474 81.0758 119.301 80.843 118.119C80.3899 115.747 80.2361 113.313 80.1945 110.883C80.1862 108.457 80.2985 106.002 80.7973 103.668C81.0717 102.503 81.3918 101.309 81.7327 100.144C82.0818 98.9748 82.4602 97.8223 82.9673 96.6739C82.086 97.5809 81.4417 98.7002 80.9137 99.8361C80.3858 100.985 79.9742 102.158 79.6375 103.385C79.0181 105.865 78.8103 108.374 78.7812 110.879C78.7479 113.388 78.9641 115.893 79.4213 118.381C79.6541 119.625 79.9784 120.857 80.444 122.059C80.9096 123.253 81.4999 124.452 82.4726 125.446L82.5433 125.517L82.6015 125.55C83.7488 126.224 84.9627 126.453 86.1558 126.607C87.353 126.744 88.5461 126.757 89.735 126.678C90.9239 126.594 92.1045 126.424 93.2768 126.108C93.8629 125.945 94.4408 125.75 95.0144 125.467C95.3013 125.321 95.5839 125.159 95.8583 124.943C96.1244 124.73 96.3946 124.456 96.5816 124.069Z" fill="black"/>
<path d="M48.3896 98.0428C48.3938 94.9887 49.5786 92.8459 52.3846 92.4215C54.9952 92.0304 57.3356 94.8639 58.4081 97.323C59.4806 99.782 61.2848 105.695 61.5384 108.994C61.6465 112.294 60.8899 114.561 59.9171 120.424C61.2266 123.877 60.0044 127.531 54.7957 126.719C49.5869 125.908 45.3716 121.123 45.6751 117.994C46.149 115.864 48.61 113.467 49.5162 108.399C49.4372 104.738 48.3896 100.797 48.3896 98.0428Z" fill="#E6E6E6"/>
<path d="M56.8488 94.7432C57.3643 95.384 57.8132 96.0913 58.1624 96.7945C56.8321 97.6849 54.7453 98.7668 52.6377 97.8764C53.9638 97.5893 55.8927 96.1288 56.8488 94.7432Z" fill="#1A1313"/>
<path d="M58.6818 97.9887C59.0726 98.9873 59.5298 100.315 59.958 101.754C58.0707 102.803 54.8656 103.839 51.7188 102.187C52.704 102.536 56.6781 100.394 58.6818 97.9887Z" fill="#1A1313"/>
<path d="M49.2954 105.511C51.5402 106.627 57.4224 106.656 60.6899 104.367C61.118 106.065 61.4423 107.725 61.5421 108.994C61.5753 110.063 61.5213 111.02 61.3966 112.027C57.8797 114.204 54.6621 113.209 52.6335 111.266C55.3231 111.799 57.6926 110.867 58.6903 109.306C55.4104 110.779 51.1619 108.836 49.47 107.355C49.4326 106.743 49.3702 106.127 49.2954 105.511Z" fill="#1A1313"/>
<path d="M61.1593 113.617C60.86 115.356 60.4193 117.416 59.9163 120.428C61.2258 123.882 60.0036 127.535 54.7948 126.724C49.5861 125.908 45.3708 121.123 45.6784 117.994C46.0609 116.276 47.732 114.387 48.8419 111.062C50.75 113.138 56.7279 115.839 61.1593 113.617Z" fill="#EFEFEF"/>
<path d="M56.4247 94.2564C57.0525 95.2301 57.5555 96.2328 57.9338 97.273C58.2996 98.3174 58.6072 99.4117 58.9315 100.489C59.5675 102.653 60.1328 104.85 60.5277 107.047C60.6234 107.596 60.7065 108.141 60.7564 108.682L60.7855 109.052L60.7896 109.464C60.7938 109.739 60.7897 110.009 60.7772 110.284C60.7398 111.374 60.5776 112.468 60.3989 113.579C60.0164 115.797 59.5966 118.065 59.3014 120.332L59.2765 120.516L59.3305 120.649V120.653C59.6423 121.522 59.7961 122.446 59.7088 123.312C59.6298 124.177 59.2723 124.959 58.6405 125.442C58.4659 125.579 58.2705 125.692 58.0626 125.783C58.0626 125.767 58.0668 125.75 58.0709 125.733C58.1084 125.3 58.0585 124.889 57.9545 124.502C57.7425 123.732 57.2977 123.041 56.6908 122.6C57.1481 123.187 57.3476 123.911 57.3393 124.585C57.3351 125.176 57.1398 125.754 56.8155 126.099C56.6284 126.116 56.4372 126.128 56.2418 126.128C55.3356 126.124 54.392 125.954 53.4982 125.679C51.7065 125.122 50.0478 124.081 48.7176 122.746C48.0566 122.076 47.4746 121.331 47.0423 120.528C46.6224 119.746 46.3481 118.884 46.4063 118.119C46.5642 117.441 46.9508 116.713 47.3458 115.972C47.7532 115.215 48.1813 114.437 48.5596 113.629C49.3245 112.015 49.8774 110.284 50.1684 108.52L50.1808 108.445L50.1767 108.387C50.0977 106.111 49.6903 103.91 49.3411 101.742C49.179 100.656 48.9836 99.5823 48.8589 98.5171C48.73 97.4519 48.676 96.3909 48.8173 95.2717C48.1979 96.237 47.9776 97.4187 47.9277 98.5546C47.8945 99.6988 48.0109 100.814 48.1688 101.912C48.4682 104.08 48.809 106.223 48.8464 108.345C48.5305 109.972 48.0067 111.536 47.2792 113.03C46.9134 113.787 46.4977 114.524 46.0737 115.289C45.658 116.059 45.1924 116.841 44.9471 117.844L44.9388 117.886L44.9347 117.932C44.8266 119.163 45.2298 120.253 45.7287 121.21C46.2441 122.167 46.9093 123.016 47.6575 123.769C49.1582 125.271 50.9998 126.428 53.0534 127.069C54.0802 127.385 55.1402 127.568 56.2502 127.556C57.3435 127.539 58.5531 127.289 59.5134 126.511C59.9873 126.133 60.3656 125.633 60.6151 125.097C60.8645 124.56 60.9975 123.986 61.0391 123.424C61.1181 122.359 60.906 121.331 60.5527 120.382L61.2012 117.195C61.434 116.084 61.6709 114.969 61.8746 113.833C62.0825 112.701 62.2405 111.528 62.282 110.342C62.2945 110.047 62.2986 109.751 62.2945 109.452L62.282 109.011L62.2696 108.865L62.2571 108.753L62.2322 108.528C62.1656 107.933 62.0659 107.359 61.9536 106.785C61.7333 105.64 61.4465 104.521 61.1264 103.41C60.8021 102.303 60.4737 101.201 60.0705 100.119C59.8751 99.5782 59.6672 99.0372 59.4303 98.5088C59.2058 97.9762 58.9564 97.4519 58.6654 96.9318C58.0959 95.9041 57.3476 94.9679 56.4247 94.2564Z" fill="black"/>
<path d="M50.2432 76.6976C49.1707 75.4161 47.2626 76.1193 44.8016 78.1831C33.6483 87.5325 30.9753 85.0651 24.033 81.6615C15.4529 77.4549 6.92261 79.3606 4.63623 86.3425C4.73184 89.7003 8.52307 93.5782 14.7586 90.882C20.512 88.3938 23.4718 91.3563 30.5014 93.0622C36.8201 93.9152 45.1591 86.3841 48.1106 83.0055C51.0663 79.6227 51.7564 78.5035 50.2432 76.6976Z" fill="#E6E6E6"/>
<path d="M50.2431 76.6935C51.7563 78.5035 51.0662 79.6227 48.1147 83.0055C45.5623 85.9222 39.0025 91.9305 33.1909 92.9707C39.3558 89.8085 39.9212 85.398 38.6574 82.6851C40.3992 81.6615 42.4029 80.1969 44.8057 78.1831C47.2625 76.1193 49.1706 75.4161 50.2431 76.6935Z" fill="#D4D4D4"/>
<path d="M41.3758 80.8793C40.6982 83.251 42.3444 86.2301 43.3754 87.52C42.5564 88.1899 41.6835 88.8598 40.7731 89.4798C39.1144 87.7197 38.416 85.7017 38.3703 84.8779C37.7259 85.7392 37.7426 86.434 37.7758 87.3744C36.8197 86.3425 36.4414 84.7947 36.6368 83.7336C38.0128 83.1262 39.5633 82.1983 41.3758 80.8793Z" fill="#332525"/>
<path d="M40.0332 81.8155C39.9709 81.8571 39.9085 81.8946 39.8461 81.9362C39.6882 82.0402 39.5302 82.1442 39.3764 82.2399C39.2891 82.294 39.2101 82.3439 39.1228 82.3938C38.994 82.4729 38.8692 82.552 38.7445 82.6269C38.7113 82.6435 38.6822 82.6643 38.6489 82.6851C39.1893 83.8418 39.393 85.3064 38.9732 86.8543C39.3598 87.674 39.9459 88.6102 40.7649 89.4798C40.769 89.4798 40.7732 89.4756 40.7732 89.4714C41.1889 89.1843 41.5963 88.8889 41.9995 88.5893C42.0743 88.5353 42.145 88.4812 42.2157 88.4229C42.5981 88.1316 42.9723 87.8362 43.3339 87.5408C43.3464 87.5325 43.3547 87.5242 43.3672 87.5159C42.3362 86.226 40.69 83.2468 41.3676 80.8751C41.1681 81.0208 40.9727 81.1581 40.7815 81.2954C40.7607 81.312 40.7358 81.3287 40.715 81.3411C40.4905 81.5076 40.2577 81.6657 40.0332 81.8155Z" fill="#1A1313"/>
<path d="M31.0958 84.5949C32.2806 84.7947 33.5069 84.7572 34.8912 84.3661C32.4302 87.4992 34.3674 91.2648 35.5896 92.2883C34.6044 92.6628 33.615 92.9333 32.6505 93.0539L32.6422 92.9998C29.1711 90.1455 29.9152 86.3675 31.0958 84.5949Z" fill="#332525"/>
<path d="M24.0331 81.6615C25.2761 82.2732 26.386 82.8515 27.4294 83.3425C24.4571 86.8168 25.1181 89.9791 26.1948 91.7641C25.0058 91.348 23.9333 90.9486 22.9107 90.624C21.647 87.6032 22.7901 85.2107 23.4137 84.3578C21.622 85.0485 20.9403 86.8834 20.8654 87.6698C18.9366 84.6823 21.2396 81.907 22.4992 80.975C23.0105 81.183 23.5218 81.4119 24.0331 81.6615Z" fill="#332525"/>
<path d="M17.3235 79.5853C13.3577 83.742 15.4778 88.5061 17.4316 90.0706C16.5961 90.2121 15.7148 90.4742 14.7586 90.8861C8.52307 93.5782 4.73184 89.7003 4.63623 86.3466C6.31568 81.2122 11.3623 78.8238 17.3235 79.5853Z" fill="#332525"/>
<path d="M44.1737 87.6657C41.1516 90.1996 35.3483 94.348 30.4139 93.6822L30.3515 93.6698C28.2397 93.158 26.4855 92.5338 24.9391 91.9804C21.2601 90.6698 18.8282 89.8002 14.9995 91.4562C11.9732 92.7627 9.10901 92.7211 6.93488 91.3355C5.18476 90.2204 4.06236 88.3147 4.00416 86.3591L4 86.251L4.03325 86.1469C4.64849 84.2662 5.70023 82.6934 7.1552 81.4743C11.2333 78.0582 17.8014 77.9126 24.2989 81.0998C24.7852 81.3412 25.255 81.5742 25.7039 81.7988C31.6277 84.7739 34.3298 86.1344 44.3899 77.7046C47.3164 75.2538 49.4407 74.7795 50.7128 76.2941C52.625 78.5784 51.3654 80.2177 48.5719 83.4133C47.4162 84.7447 45.8116 86.2967 44.1737 87.6657ZM30.6134 92.4506C35.0656 93.0331 40.5155 89.1053 43.3756 86.7128C45.6328 84.8196 47.1086 83.2052 47.6407 82.5977C50.6255 79.1817 50.904 78.4619 49.7649 77.1013C49.025 76.2192 47.491 76.7476 45.2005 78.6657C34.5127 87.624 31.1913 85.9555 25.1552 82.9223C24.7063 82.6976 24.2448 82.4646 23.7585 82.2274C17.7099 79.2607 11.6573 79.344 7.96583 82.4396C6.71871 83.484 5.81248 84.8279 5.26375 86.4382C5.34689 87.9444 6.23649 89.4132 7.61248 90.287C9.42911 91.4437 11.8776 91.452 14.5132 90.3119C18.7908 88.4645 21.6924 89.4964 25.3631 90.8071C26.8679 91.3438 28.5806 91.9555 30.6134 92.4506Z" fill="black"/>
<path d="M98.224 79.9306C96.1704 76.1983 90.6706 75.4161 86.7713 76.2524C82.872 77.0888 77.3099 77.7919 73.4521 77.6505C63.3339 74.7878 56.2128 73.7601 50.1144 75.1748C44.677 76.7351 39.5098 81.6075 38.6618 88.7017C38.2544 97.3895 43.3343 104.771 55.369 106.847C70.2429 107.588 82.6891 104.517 89.7768 100.236C98.9099 94.7266 102.29 87.3161 98.224 79.9306Z" fill="#E6E6E6"/>
<path d="M98.2237 79.9306C102.289 87.3161 98.9138 94.7224 89.7808 100.236C82.693 104.517 70.2468 107.588 55.3729 106.847C43.3341 104.771 38.2583 97.3895 38.6657 88.6975C39.202 84.208 41.4717 80.6047 44.444 78.1789C43.8786 82.7226 47.8736 89.2426 59.6505 89.047C73.1609 88.8265 80.2653 82.5603 77.7627 77.534C80.839 77.3051 84.1771 76.8058 86.7711 76.2524C90.6704 75.4203 96.1701 76.2025 98.2237 79.9306Z" fill="#D4D4D4"/>
<path d="M99.8946 85.3189C100.294 90.8237 96.6771 96.0705 89.7764 100.236C82.6886 104.517 70.2424 107.588 55.3685 106.847C49.2493 105.79 44.9301 103.365 42.2114 100.09C47.1084 102.457 55.4599 103.252 65.3371 102.707C74.6614 102.191 83.7029 99.6322 90.1006 95.4963C94.0207 92.9582 96.1117 90.1538 97.8951 86.6379C98.4147 85.6185 99.2586 85.0651 99.8946 85.3189Z" fill="#EFEFEF"/>
<path d="M73.4517 77.6505C74.8526 77.7046 76.4821 77.6463 78.1741 77.5048C75.7297 79.8016 74.0835 83.8168 73.5971 87.649C72.9154 89.4132 71.9842 91.7474 71.4729 93.4742C70.6955 90.1788 70.363 86.6837 70.9283 83.8169C69.9182 84.4867 68.1015 87.2079 67.399 88.5602C66.1685 84.4493 66.9168 80.251 68.9205 78.5991C68.3551 79.8765 68.2595 82.3772 68.5048 83.201C69.5939 80.9209 71.5477 78.7157 73.0858 77.5506C73.2105 77.5839 73.3311 77.6172 73.4517 77.6505Z" fill="#332525"/>
<path d="M67.3617 76.0777C65.8569 77.3925 64.1109 80.5256 63.2379 83.9583C61.9118 86.8293 61.2717 88.0401 60.195 91.7349C59.7419 87.8321 59.4717 83.509 60.2033 81.2871C58.8107 82.7059 57.3308 84.4368 56.6948 86.4465C56.4994 82.1525 58.8689 77.7087 63.8199 75.3454C64.9507 75.5493 66.1312 75.7906 67.3617 76.0777Z" fill="#332525"/>
<path d="M60.4945 74.8419C57.5555 76.0028 54.7162 79.527 53.2197 83.3758C52.8414 81.1706 53.2155 78.724 54.7121 76.6436C52.2552 77.484 50.1019 79.6394 49.0335 81.3453C47.8696 83.2052 47.1961 85.1774 46.6391 87.4285C46.2816 84.8737 46.2857 81.9611 47.3333 79.1317C48.4183 76.9972 50.7545 75.6075 52.9661 74.7046H52.9703C55.2816 74.455 57.7592 74.509 60.4945 74.8419Z" fill="#332525"/>
<path d="M73.9712 85.5852C73.8132 86.2718 73.6885 86.9666 73.6012 87.649C72.9194 89.4132 71.9882 91.7474 71.4769 93.4742C70.9864 91.3854 70.6704 89.2218 70.6538 87.183C71.9051 86.717 73.015 86.1761 73.9712 85.5852Z" fill="#1A1313"/>
<path d="M67.6568 88.09C67.5571 88.2565 67.4698 88.4146 67.3991 88.5561C67.3617 88.4271 67.3243 88.3064 67.291 88.1774C67.4116 88.1525 67.5321 88.1233 67.6568 88.09Z" fill="#1A1313"/>
<path d="M59.9204 89.047C60.307 89.0387 60.6853 89.0262 61.0594 89.0054C60.7851 89.7669 60.5065 90.6406 60.1906 91.7308C60.0867 90.8528 59.9952 89.9458 59.9204 89.047Z" fill="#1A1313"/>
<path d="M47.2622 85.2482C47.0294 85.9472 46.8298 86.6712 46.6428 87.4243C46.5056 86.4465 46.4224 85.4229 46.4307 84.3661C46.6843 84.6657 46.9587 84.9652 47.2622 85.2482Z" fill="#1A1313"/>
<path d="M63.7164 107.492C60.9727 107.617 58.1542 107.613 55.3357 107.471L55.2609 107.463C43.8457 105.495 37.5685 98.6461 38.0383 88.6726L38.0424 88.6268C39.011 80.5007 45.0595 75.9778 49.9399 74.5756C51.4323 74.2261 52.933 74.0264 54.5501 73.9515C59.4346 73.7268 65.1173 74.6464 73.5478 77.0305C74.3542 77.0596 75.2646 77.0472 76.2582 77.0014C79.4258 76.8558 83.4041 76.3357 86.6383 75.6408C87.3949 75.4785 88.1972 75.3787 89.012 75.3412C92.4998 75.1831 96.8896 76.2233 98.7644 79.6269C102.942 87.2163 99.7829 94.9222 90.097 100.764C83.8282 104.559 74.2088 107.009 63.7164 107.492ZM55.4397 106.227C58.2041 106.364 60.9686 106.369 63.6623 106.248C73.9552 105.778 83.3584 103.389 89.461 99.703C98.4942 94.2523 101.491 87.1539 97.6794 80.2344C96.0831 77.3301 92.188 76.448 89.0744 76.5895C88.3261 76.6228 87.5944 76.7143 86.9044 76.8641C83.6037 77.5714 79.5506 78.104 76.3164 78.2496C75.2605 78.2996 74.2877 78.3079 73.4314 78.2746L73.2859 78.2496C65.0632 75.9237 59.3057 74.9834 54.6124 75.1956C53.0702 75.2663 51.6484 75.4577 50.26 75.7781C45.7787 77.0638 40.1958 81.2413 39.2895 88.7475C38.8614 98.0053 44.7477 104.371 55.4397 106.227Z" fill="black"/>
<path d="M79.2554 93.9859C76.4784 93.7321 74.4914 96.4367 72.5625 101.921C69.5778 110.396 69.8272 123.158 73.3108 126.844C75.5639 128.725 85.811 128.03 86.605 126.178C87.3034 124.148 85.9856 122.317 84.1898 121.418C82.5228 116.559 81.5625 113.018 81.7579 109.506C82.4147 103.968 84.9214 94.506 79.2554 93.9859Z" fill="#E6E6E6"/>
<path d="M86.6006 126.174C85.8066 128.03 75.5595 128.721 73.3064 126.84C69.8228 123.158 69.5734 110.396 72.5581 101.921C74.487 96.4367 76.4741 93.7321 79.251 93.9859C80.1822 94.0733 80.8889 94.3979 81.4251 94.9097C79.4006 95.2217 76.9022 98.1177 75.7133 103.855C74.1087 111.624 79.1221 116.088 82.0694 113.995C82.4727 116.192 83.2002 118.577 84.1771 121.414C85.9812 122.317 87.299 124.144 86.6006 126.174Z" fill="#D4D4D4"/>
<path d="M86.6007 126.174C85.8067 128.03 75.5596 128.721 73.3065 126.84C71.5647 125.001 70.6377 120.894 70.5088 116.184C74.7157 117.287 80.4441 116.871 82.4894 115.893C82.901 117.565 83.4788 119.371 84.1772 121.41C85.9813 122.317 87.2991 124.144 86.6007 126.174Z" fill="white"/>
<path d="M81.7825 111.732C81.8407 112.577 81.9654 113.446 82.1442 114.345C78.1617 115.148 74.6864 113.504 72.9238 111.029C74.8735 111.79 79.3091 112.622 81.7825 111.732Z" fill="#332525"/>
<path d="M81.7539 109.502C81.7207 110.101 81.7248 110.7 81.7539 111.308C79.2846 111.179 77.4306 110.313 76.4038 109.069C77.9627 109.556 80.2865 109.543 81.7914 109.215C81.7747 109.315 81.7664 109.41 81.7539 109.502Z" fill="#332525"/>
<path d="M82.7928 101.767C82.6265 103.889 82.2316 106.14 81.9406 108.087C78.8561 108.149 74.1628 106.697 71.6104 105.199C71.7974 104.401 72.0094 103.622 72.2464 102.869C74.99 104.288 78.5734 105.029 80.4358 104.363C78.2367 103.431 76.736 102.457 75.7549 100.81C76.7609 101.417 80.5854 102 82.7928 101.767Z" fill="#332525"/>
<path d="M75.6593 104.168C75.4806 105.116 75.4016 106.019 75.4099 106.86C73.9632 106.369 72.6205 105.79 71.6104 105.195C71.7974 104.396 72.0094 103.618 72.2464 102.865C73.3064 103.419 74.4912 103.868 75.6593 104.168Z" fill="#1A1313"/>
<path d="M82.0777 113.995C82.0984 114.112 82.1192 114.228 82.1442 114.345C78.1617 115.148 74.6864 113.504 72.9238 111.029C73.8134 111.378 75.2268 111.74 76.7275 111.944C78.1492 114.291 80.4315 115.161 82.0777 113.995Z" fill="#1A1313"/>
<path d="M76.4538 101.101C76.3997 101.259 76.3498 101.417 76.2958 101.584C76.1004 101.342 75.9175 101.084 75.7554 100.806C75.9175 100.91 76.1628 101.009 76.4538 101.101Z" fill="#1A1313"/>
<path d="M87.2659 126.399C87.4488 125.854 87.5237 125.255 87.4572 124.672C87.3948 124.086 87.1953 123.528 86.9084 123.037C86.3722 122.138 85.5823 121.464 84.7093 120.994C84.1689 119.167 83.6202 117.349 83.192 115.527C82.7431 113.633 82.4396 111.724 82.4853 109.822L82.4936 109.643L82.4978 109.56L82.5019 109.514L82.5435 109.148L82.6308 108.416L82.822 106.943C82.9592 105.957 83.0756 104.962 83.1671 103.964C83.2461 102.961 83.2876 101.95 83.2461 100.935C83.1962 99.9235 83.0756 98.8999 82.7597 97.9388C82.6807 99.9484 82.319 101.862 81.9782 103.81L81.4585 106.735L81.2049 108.212L81.0844 108.961L81.0303 109.331L81.022 109.377L81.0137 109.473L81.0096 109.568L80.9971 109.764C80.8932 111.844 81.2049 113.912 81.7038 115.876C81.9532 116.862 82.2442 117.828 82.5685 118.78C82.8927 119.733 83.2253 120.678 83.5952 121.606L83.6992 121.864L83.907 121.959C84.6802 122.367 85.3495 122.97 85.7403 123.682C86.1352 124.381 86.21 125.167 85.9523 125.904C85.944 125.92 85.811 126.054 85.6322 126.145C85.5615 125.841 85.4451 125.558 85.2996 125.313C85.0752 124.943 84.7883 124.635 84.4724 124.381C83.8405 123.882 83.0714 123.582 82.3232 123.578C83.0424 123.786 83.6285 124.256 84.0234 124.809C84.4183 125.359 84.6012 126.033 84.4557 126.528C84.4516 126.545 84.4516 126.565 84.4475 126.582C84.0983 126.678 83.7407 126.761 83.3749 126.828C82.2816 127.019 81.1551 127.127 80.0327 127.177C78.9061 127.223 77.7754 127.202 76.6779 127.081C76.1292 127.019 75.5846 126.936 75.0733 126.803C74.5911 126.678 74.1047 126.495 73.8303 126.278C73.0862 125.454 72.5998 124.281 72.2423 123.104C71.8848 121.889 71.6396 120.62 71.4858 119.334C71.1698 116.762 71.1657 114.141 71.3403 111.536C71.5232 108.932 71.9306 106.34 72.5999 103.822C72.9241 102.566 73.3315 101.322 73.7306 100.069C74.1463 98.8209 74.5869 97.5893 75.1564 96.3743C74.2211 97.3521 73.5227 98.5379 72.9241 99.7404C72.6206 100.344 72.3546 100.96 72.101 101.584C71.8391 102.199 71.6271 102.857 71.4276 103.493C70.6502 106.082 70.2012 108.749 69.956 111.424C69.7107 114.104 69.7066 116.808 70.0017 119.504C70.1555 120.853 70.3842 122.201 70.7832 123.532C70.9828 124.198 71.2239 124.855 71.5357 125.5C71.8474 126.145 72.2299 126.778 72.762 127.348L72.7994 127.385L72.8285 127.41C73.4645 127.913 74.0922 128.088 74.7033 128.259C75.3144 128.413 75.9172 128.504 76.52 128.571C77.7213 128.7 78.9144 128.717 80.1033 128.667C81.2922 128.617 82.477 128.496 83.6618 128.255C84.2521 128.134 84.8465 127.988 85.4451 127.776C85.7444 127.668 86.0437 127.543 86.3514 127.36C86.6465 127.169 87.004 126.969 87.2535 126.436L87.2618 126.42L87.2659 126.399Z" fill="black"/>
<path d="M42.8393 94.4145C43.1844 91.5768 44.5312 89.2135 47.3539 88.9389C49.765 88.7058 51.9308 90.8778 53.1031 94.1607C54.0052 96.6822 55.1109 104.892 54.5622 109.036C53.577 114.457 49.0084 120.948 48.177 122.421C48.8878 125.042 47.7239 129.208 42.6855 127.685C37.643 126.158 33.1659 121.044 33.5899 117.262C33.5192 116.321 40.2578 110.817 41.9913 104.95C43.2675 99.4533 42.5068 97.1482 42.8393 94.4145Z" fill="#E6E6E6"/>
<path d="M47.3541 88.943C49.7611 88.71 51.931 90.8819 53.1033 94.169C54.0054 96.6905 55.1153 104.9 54.5625 109.044C53.5814 114.466 49.0086 120.957 48.1772 122.429C48.8881 125.055 47.7241 129.22 42.6816 127.693C37.6391 126.17 33.162 121.052 33.586 117.27C33.5278 116.455 38.5495 112.235 41.0354 107.317C44.2239 113.916 49.707 103.481 49.0876 97.5809C48.6179 93.1246 46.132 91.09 44.1116 90.7904C44.8516 89.771 45.9075 89.0845 47.3541 88.943Z" fill="#D4D4D4"/>
<path d="M53.1156 94.2023C53.3276 94.8015 53.5479 95.7127 53.7557 96.8112C52.0721 97.2522 49.7525 97.4977 47.8901 96.1163C49.3451 96.2245 51.4403 95.2883 53.1156 94.2023Z" fill="#1A1313"/>
<path d="M54.0258 98.3548C54.2337 99.6697 54.4125 101.138 54.5372 102.595C52.176 103.127 48.3723 103.244 45.5122 100.452C46.4184 101.122 51.0702 100.173 54.0258 98.3548Z" fill="#1A1313"/>
<path d="M54.6997 105.532C54.7288 106.843 54.6956 108.058 54.5625 109.04C54.2674 110.654 53.6604 112.369 52.9205 114.016C48.327 115.36 45.126 113.259 43.5547 110.48C46.2692 111.903 49.1126 111.657 50.6798 110.301C46.9551 110.8 43.2845 107.85 41.7339 105.728C41.8295 105.47 41.9126 105.208 41.9958 104.95C42.1039 104.48 42.1995 104.034 42.2785 103.61C44.7353 105.432 50.7297 107.039 54.6997 105.532Z" fill="#1A1313"/>
<path d="M48.8343 96.0581C48.8883 96.2744 48.934 96.4949 48.9714 96.7238C48.6015 96.5698 48.2357 96.3701 47.8906 96.1122C48.1816 96.1371 48.4975 96.1205 48.8343 96.0581Z" fill="#332525"/>
<path d="M45.5127 100.452C45.9658 100.785 47.3543 100.714 49.0046 100.335C48.909 101.001 48.7677 101.688 48.5848 102.358C47.5164 101.983 46.4605 101.38 45.5127 100.452Z" fill="#332525"/>
<path d="M42.2785 103.614C43.4009 104.442 45.2549 105.229 47.3251 105.695C46.6641 107.022 45.8701 108.129 45.0387 108.786C43.6212 107.871 42.4531 106.714 41.7339 105.736C41.8295 105.478 41.9126 105.216 41.9958 104.958C42.0997 104.484 42.1953 104.039 42.2785 103.614Z" fill="#332525"/>
<path d="M52.1098 115.71C50.5093 118.876 48.6761 121.547 48.1772 122.425C48.8881 125.051 47.7241 129.216 42.6816 127.689C37.6391 126.166 33.162 121.048 33.586 117.266C33.5361 116.575 37.1777 113.405 39.7925 109.444C41.1643 111.969 46.955 117.079 52.1098 115.71Z" fill="white"/>
<path d="M50.9413 90.4784C51.7395 91.685 52.2716 92.9749 52.6498 94.3063C52.9949 95.6087 53.1986 97.0275 53.4106 98.4131C53.606 99.8111 53.7556 101.213 53.8512 102.62C53.951 104.026 54.0175 105.432 53.9843 106.822C53.9676 107.517 53.9261 108.208 53.8388 108.873L53.8346 108.923V108.928L53.8305 108.961L53.8055 109.094L53.7556 109.339L53.6392 109.835C53.5561 110.163 53.4605 110.496 53.3565 110.825C52.9408 112.136 52.3963 113.425 51.7977 114.69C51.1866 115.951 50.5256 117.199 49.8231 118.427C49.1205 119.667 48.3722 120.828 47.6364 122.126L47.5117 122.35L47.5783 122.592C47.7944 123.457 47.782 124.418 47.5201 125.255C47.2665 126.099 46.7302 126.79 45.9819 127.098C45.9695 127.102 45.957 127.106 45.9445 127.11C45.9487 127.048 45.9528 126.986 45.9528 126.923C45.9487 126.49 45.8572 126.083 45.7159 125.708C45.4249 124.959 44.9177 124.319 44.2692 123.936C44.7847 124.477 45.0508 125.176 45.109 125.85C45.1589 126.403 45.0425 126.952 44.7889 127.331C44.3358 127.339 43.866 127.277 43.4004 127.16C42.4775 126.932 41.5796 126.557 40.7191 126.104C39.0064 125.188 37.46 123.915 36.2503 122.409C35.6475 121.656 35.1321 120.836 34.7662 119.97C34.4046 119.113 34.2009 118.198 34.2965 117.345V117.337C34.309 117.312 34.3297 117.274 34.3588 117.233C34.417 117.137 34.5002 117.029 34.5833 116.921C34.7538 116.704 34.945 116.484 35.1362 116.263L36.3168 114.919C37.1108 114.016 37.9007 113.097 38.6489 112.136C40.1371 110.217 41.5173 108.154 42.357 105.794C42.4111 105.649 42.4568 105.499 42.5025 105.349L42.569 105.125L42.6272 104.871L42.8101 103.976C42.9224 103.381 43.0221 102.778 43.1011 102.175C43.2591 100.968 43.3297 99.7446 43.3214 98.5338C43.3214 97.3188 43.2092 96.1371 43.2175 94.9846C43.2258 93.8279 43.3422 92.6711 43.679 91.5061C42.9265 92.4756 42.5441 93.7072 42.3653 94.9221C42.199 96.1538 42.2406 97.3563 42.224 98.5296C42.2115 99.703 42.1242 100.864 41.9538 102.021C41.8706 102.599 41.7667 103.173 41.6461 103.751L41.4549 104.609L41.4134 104.792L41.351 104.996C41.3053 105.129 41.2595 105.266 41.2097 105.399C40.4115 107.542 39.0688 109.498 37.6013 111.328C36.8614 112.248 36.0757 113.134 35.2775 114.016C34.8785 114.457 34.4669 114.894 34.0678 115.356C33.8683 115.585 33.6646 115.818 33.4651 116.072C33.3653 116.201 33.2655 116.33 33.1616 116.488C33.1117 116.567 33.0577 116.654 33.0078 116.762C32.9621 116.879 32.8789 116.995 32.8872 117.324L32.8914 117.195C32.7625 118.373 33.0369 119.504 33.4568 120.511C33.8808 121.527 34.4669 122.442 35.132 123.282C36.4748 124.955 38.1459 126.341 40.0374 127.356C40.9852 127.855 41.9995 128.259 43.072 128.513C44.1445 128.758 45.375 128.833 46.5265 128.33C47.096 128.084 47.6032 127.685 47.9815 127.206C48.3639 126.728 48.6217 126.183 48.7838 125.629C49.0706 124.606 49.079 123.553 48.8462 122.538C49.1704 122.026 49.5404 121.489 49.8771 120.957C50.2637 120.353 50.6503 119.742 51.0244 119.126C51.7727 117.894 52.4919 116.633 53.1238 115.327C53.7639 114.02 54.3376 112.672 54.77 111.262C54.878 110.908 54.9778 110.554 55.0692 110.192L55.194 109.647L55.2522 109.369L55.2771 109.235L55.2979 109.127L55.3062 109.057C55.3977 108.308 55.4226 107.575 55.4309 106.843C55.4351 103.926 55.1108 101.068 54.6328 98.2259C54.5122 97.5144 54.375 96.807 54.2046 96.0997C54.0383 95.3923 53.8388 94.6933 53.5519 93.9901C52.9533 92.6462 52.1261 91.3521 50.9413 90.4784ZM34.284 117.353C34.2799 117.366 34.2799 117.362 34.284 117.353Z" fill="black"/>
<path d="M103.25 66.1041C105.403 64.4024 108.321 60.8532 108.122 58.7727C107.972 57.2291 106.92 56.9087 104.655 55.4357C101.915 53.6549 99.6206 51.071 98.0077 49.4067C96.0871 48.121 94.0959 49.7021 92.5868 52.96C90.7328 56.9669 90.3628 64.5688 95.5799 68.3052C97.5836 69.1291 100.311 68.4259 103.25 66.1041Z" fill="#E6E6E6"/>
<path d="M108.122 58.7686C108.01 58.4856 107.881 58.2277 107.714 58.0155C107.548 57.8033 107.349 57.6451 107.128 57.4995C106.683 57.2166 106.16 56.9794 105.644 56.7131C105.125 56.4468 104.609 56.1556 104.102 55.8393C103.591 55.5065 103.104 55.1611 102.626 54.7908C101.674 54.0585 100.785 53.2596 99.9282 52.4399C99.0719 51.6244 98.2529 50.7714 97.4506 49.9434L97.5753 50.0474C96.9185 49.6147 96.2908 49.648 95.6174 50.114C94.9564 50.58 94.3786 51.3373 93.8963 52.1445C93.6552 52.5523 93.4349 52.9808 93.2354 53.4177C93.0441 53.838 92.8737 54.2873 92.7365 54.745C92.458 55.6604 92.2584 56.6091 92.1462 57.5661C91.9259 59.4842 92.0631 61.4565 92.6451 63.2789C93.1979 65.118 94.179 66.7948 95.5841 68.3052C93.676 67.4689 92.2127 65.6797 91.4603 63.695C90.7162 61.6895 90.5208 59.53 90.6871 57.4246C90.7702 56.3678 90.9573 55.3192 91.2649 54.2957C91.4187 53.7839 91.5975 53.2804 91.8178 52.777C92.034 52.2901 92.2709 51.8158 92.537 51.3498C93.0774 50.4219 93.7217 49.4982 94.7319 48.8034C95.2349 48.4622 95.8668 48.1917 96.5652 48.1792C97.2635 48.1584 97.9328 48.4164 98.44 48.7659L98.5148 48.8158L98.5647 48.8699C99.3836 49.7229 100.161 50.58 100.963 51.4039C101.766 52.2277 102.593 53.0183 103.466 53.7423C103.902 54.1043 104.355 54.4496 104.813 54.77C105.278 55.0987 105.756 55.4233 106.23 55.7686C106.467 55.9434 106.704 56.1223 106.937 56.322C107.17 56.5176 107.407 56.7256 107.61 56.9794C107.822 57.2291 107.997 57.5245 108.084 57.8449C108.176 58.1528 108.176 58.4731 108.122 58.7686Z" fill="black"/>
<path d="M110.499 56.3345C110.799 55.5314 110.915 53.3969 109.672 52.4316C114.033 53.3303 115.442 56.3761 115.226 58.702C116.174 57.5328 116.806 54.0377 115.247 52.5439C117.733 52.7936 121.466 55.9808 119.924 60.6784C121.919 60.2332 122.804 56.2762 122.651 54.5162C126.338 57.5952 126.03 63.2789 123.561 64.9266C125.552 67.7893 126.047 73.1443 125.427 75.6325C124.184 77.0014 121.944 80.613 123.066 82.1068C123.935 83.226 125.182 83.1012 125.926 82.9805C126.55 82.3564 131.027 82.3564 131.152 84.4743C131.276 86.5921 130.158 88.7058 129.036 89.2051C128.537 91.5685 124.916 93.6989 123.561 93.5616C121.694 93.1871 118.71 91.5685 117.841 88.0817C114.482 89.8251 114.731 95.5504 117.342 97.7931C117.941 98.8541 115.101 101.28 112.366 101.9C109.148 101.38 105.898 99.0372 104.156 95.8001C99.8491 95.1094 95.0851 95.5546 91.4685 95.9249C91.2607 95.1094 91.4685 92.6878 92.2126 91.5685C89.2279 91.6933 84.9918 90.158 83.275 88.0318C85.2662 87.4077 87.4861 86.3383 88.3549 85.5894C85.6195 83.5963 79.1304 78.724 78.6523 70.1526C79.9369 71.5465 81.4542 72.3537 83.1295 73.3898C80.7641 69.7782 80.1447 67.0403 80.2694 63.3039C83.5743 63.4537 88.8745 61.6812 95.1974 57.9489C99.2755 55.5481 105.648 53.967 110.499 56.3345Z" fill="#E6E6E6"/>
<path d="M127.048 85.3272C126.059 84.3578 125.901 84.0207 125.922 82.9764C126.545 82.3522 131.022 82.3522 131.147 84.4701C131.272 86.5838 130.154 88.7017 129.031 89.201C127.863 88.735 128.528 86.9416 127.485 85.7475C127.323 85.5935 127.177 85.4562 127.048 85.3272Z" fill="black"/>
<path d="M127.485 85.7475C128.503 86.8668 127.813 88.5561 129.031 89.201C128.536 91.5643 124.911 93.6947 123.56 93.5574C121.694 93.1829 118.709 91.5644 117.836 88.0776C114.481 89.821 114.727 95.5504 117.341 97.789C117.94 98.85 115.101 101.276 112.365 101.9C109.148 101.38 105.897 99.0331 104.155 95.7959C103.719 95.7252 103.274 95.667 102.829 95.6212C102.168 90.6448 106.4 88.0152 108.35 87.6116C106.832 87.2662 105.037 86.8543 103.241 87.4077C107.107 82.6352 113.047 83.6047 114.431 83.742C117.125 83.1178 121.544 84.2954 123.066 85.1234C124.092 85.0693 125.892 85.0152 127.048 85.3273C127.177 85.4562 127.322 85.5935 127.485 85.7475Z" fill="#F5F5F5"/>
<path d="M95.2011 57.9489C98.2856 56.1264 102.688 54.7825 106.749 55.261C102.526 55.6063 96.3567 58.5023 94.4944 65.3219C92.6569 72.05 94.4237 75.2746 96.5729 77.6671C94.6315 78.2205 92.9687 78.4993 89.4352 77.9792C92.657 82.3481 96.9179 82.9722 99.7613 83.6296C97.7493 85.3647 94.3904 86.717 92.8648 87.133C94.9433 88.7974 96.9179 89.5255 99.2043 89.8709C98.3729 91.1191 97.3336 91.71 96.3983 92.4381C97.7286 93.5657 99.3581 94.5893 101.59 95.513C98.032 95.28 94.378 95.6253 91.468 95.9208C91.2602 95.1094 91.468 92.6836 92.2163 91.5644C89.2315 91.6892 84.9955 90.1538 83.2787 88.0276C85.2699 87.4077 87.4897 86.3342 88.3586 85.5894C85.6232 83.5963 79.1341 78.724 78.6602 70.1526C79.9447 71.5424 81.4579 72.3537 83.1373 73.3898C80.7719 69.7782 80.1525 67.0403 80.2773 63.3039C83.5821 63.4537 88.8824 61.6812 95.2011 57.9489Z" fill="#D4D4D4"/>
<path d="M131.779 84.6365L131.771 84.4576C131.763 84.2746 131.734 84.1123 131.68 83.9417C131.576 83.6047 131.372 83.3051 131.143 83.0804C130.91 82.8557 130.657 82.6893 130.399 82.5561C129.884 82.2982 129.36 82.165 128.84 82.0818C128.321 82.0027 127.801 81.9736 127.273 82.0027C127.011 82.0194 126.745 82.0443 126.467 82.0984C126.325 82.1276 126.188 82.1608 126.034 82.2149C125.926 82.2607 125.818 82.2981 125.685 82.3814C124.953 82.4937 124.309 82.4147 123.856 82.0235C123.794 81.9736 123.735 81.9154 123.681 81.8571C123.656 81.8321 123.636 81.8113 123.598 81.7614L123.573 81.7281L123.569 81.7198L123.544 81.6823C123.482 81.5866 123.436 81.4618 123.411 81.3162C123.361 81.0208 123.407 80.6463 123.498 80.276C123.69 79.527 124.051 78.7698 124.463 78.0541C124.879 77.3426 125.365 76.6394 125.893 76.0444L126.001 75.9237L126.034 75.7781C126.271 74.7837 126.313 73.8183 126.3 72.8572C126.284 71.896 126.196 70.9474 126.043 70.0028C125.889 69.0583 125.668 68.1263 125.357 67.2109C125.086 66.4204 124.746 65.6465 124.292 64.9141C125.535 63.6368 126.246 61.677 126.088 59.684C125.81 56.1472 123.873 53.9961 121.827 52.5398C122.035 55.2443 121.861 57.9489 120.476 59.9253C121.171 58.0529 120.568 55.7436 120.061 54.899C118.813 52.8186 116.664 51.8491 114.033 51.433C115.072 52.7145 116.111 55.0405 115.417 57.0834C115.176 55.4191 114.411 54.4496 113.858 53.8255C112.507 52.2985 110.254 51.7784 108.558 51.7784C109.389 52.5772 110.325 54.1708 110.055 55.7353C109.003 55.2485 107.872 54.924 106.721 54.77C105.353 54.5744 103.96 54.5994 102.597 54.7742C101.233 54.9448 99.8906 55.2651 98.5936 55.7145C97.2966 56.1639 96.037 56.7256 94.8481 57.4205C92.5617 58.7436 90.2088 59.9544 87.7769 60.9364C86.5589 61.4232 85.3201 61.8476 84.0688 62.1763C82.8176 62.4967 81.5372 62.7214 80.2984 62.6798L79.6582 62.659L79.6457 63.2831V63.2873C79.6208 65.1014 79.7788 66.9696 80.34 68.7338C80.7016 69.8988 81.2171 70.9931 81.8157 72.0292C81.558 71.8544 81.3002 71.6797 81.055 71.4966C80.3275 70.964 79.6665 70.3856 79.1095 69.7199L77.9829 68.3801L78.0287 70.1818V70.1901C78.1451 71.817 78.4859 73.4272 79.043 74.9543C79.5959 76.4813 80.3607 77.9251 81.2836 79.2441C82.2065 80.5672 83.279 81.7697 84.4471 82.8599C85.5072 83.8502 86.6504 84.7406 87.8227 85.5727C87.5525 85.7392 87.2698 85.8973 86.9788 86.0387C86.5631 86.2385 86.1391 86.4216 85.7109 86.588C84.8504 86.9209 83.9691 87.2079 83.0836 87.4326L82.2023 87.6532L82.7885 88.4188L82.7968 88.4312C83.412 89.1303 84.1354 89.6462 84.8836 90.0748C85.6361 90.5033 86.4217 90.8404 87.224 91.1108C88.0264 91.3813 88.8494 91.5893 89.685 91.7225C90.3418 91.8265 91.0028 91.8847 91.6721 91.8764C91.564 92.0761 91.4725 92.28 91.3936 92.4881C91.2522 92.8584 91.14 93.237 91.0527 93.6198C90.9654 94.0026 90.8947 94.3896 90.8531 94.7849C90.8199 95.1926 90.7742 95.5671 90.8615 96.0747L90.9405 96.5574L91.5266 96.5407H91.5391C93.6425 96.3244 95.7377 96.1371 97.8287 96.0789C99.8199 96.0248 101.811 96.0872 103.761 96.3701C104.63 97.8888 105.81 99.2162 107.199 100.269C108.674 101.38 110.395 102.208 112.258 102.512L112.378 102.532L112.495 102.503C113.721 102.216 114.835 101.675 115.845 100.98C116.348 100.627 116.831 100.231 117.263 99.7446C117.479 99.4991 117.683 99.2286 117.845 98.8874C117.924 98.7127 117.999 98.5213 118.028 98.2799C118.057 98.0469 118.024 97.7432 117.878 97.4852L117.824 97.3937L117.741 97.3188L117.733 97.3105C117.122 96.8029 116.652 96.0789 116.34 95.2883C116.028 94.4936 115.866 93.6281 115.862 92.7668C115.858 91.9055 116.012 91.0359 116.365 90.2703C116.643 89.6628 117.059 89.1302 117.583 88.735C117.745 89.2551 117.961 89.7627 118.236 90.2412C118.601 90.882 119.063 91.4687 119.591 91.9804C120.123 92.4922 120.722 92.9291 121.37 93.2828C122.019 93.6365 122.704 93.9152 123.449 94.0775L123.474 94.0817H123.498C123.939 94.1191 124.28 94.0317 124.613 93.9402C124.941 93.8445 125.253 93.7197 125.552 93.5824C126.147 93.3036 126.704 92.9624 127.227 92.5713C127.751 92.176 128.242 91.7308 128.666 91.2065C129.031 90.753 129.352 90.2245 129.543 89.6171C130 89.3383 130.32 88.9722 130.59 88.6018C130.906 88.1566 131.143 87.6781 131.33 87.183C131.513 86.6878 131.642 86.1719 131.709 85.6476C131.742 85.3855 131.763 85.1192 131.763 84.8529L131.779 84.6365ZM130.486 85.4812C130.432 85.9098 130.324 86.3342 130.175 86.7419C130.025 87.1497 129.825 87.5366 129.589 87.8778C129.352 88.2149 129.052 88.5103 128.786 88.6309L128.782 88.6351L128.479 88.8016L128.425 89.0762C128.333 89.5463 128.075 90.029 127.743 90.4659C127.406 90.9028 126.99 91.3064 126.541 91.6642C126.092 92.0221 125.598 92.3383 125.091 92.5962C124.837 92.7252 124.575 92.8334 124.317 92.9166C124.072 92.9957 123.81 93.0498 123.636 93.0415C123.029 92.9208 122.422 92.7003 121.852 92.409C121.274 92.1094 120.73 91.735 120.248 91.2981C119.283 90.4201 118.581 89.2676 118.244 87.9944V87.986L118.119 87.4909L117.654 87.7197C116.731 88.1691 115.995 88.9638 115.542 89.8667C115.085 90.7696 114.873 91.7682 114.839 92.7585C114.81 93.7488 114.956 94.7474 115.284 95.6919C115.596 96.5823 116.082 97.4436 116.801 98.1385C116.801 98.1427 116.801 98.1426 116.801 98.1468C116.797 98.1926 116.772 98.2758 116.731 98.3632C116.648 98.5421 116.502 98.7418 116.34 98.929C116.007 99.3077 115.592 99.6572 115.151 99.9651C114.299 100.556 113.334 101.018 112.349 101.263C110.774 100.98 109.265 100.261 107.968 99.2827C106.633 98.2716 105.507 96.9776 104.713 95.5088L104.567 95.2342L104.264 95.1843C102.115 94.8431 99.9529 94.7765 97.812 94.8348C95.8541 94.8889 93.9127 95.0553 91.9797 95.2467C91.9631 95.1094 91.9548 94.9638 91.9464 94.8265C91.934 94.4769 91.9423 94.1191 91.9672 93.7613C92.0296 93.0539 92.1501 92.3258 92.4578 91.7349L92.4619 91.7266L92.7695 91.2731H92.2083C91.4143 91.2773 90.6162 91.1649 89.8388 90.986C89.0573 90.8071 88.2924 90.5574 87.5566 90.2537C86.8208 89.9458 86.11 89.5838 85.4573 89.1511C85.0541 88.8848 84.6758 88.5852 84.3391 88.2607C84.9418 88.0027 85.5321 87.7322 86.11 87.4285C86.534 87.2038 86.9538 86.9625 87.3654 86.7045C87.7728 86.4424 88.176 86.1719 88.5501 85.8224L88.5584 85.8141L88.8494 85.5811L88.5377 85.348C87.2822 84.4077 86.0809 83.4174 84.9834 82.319C83.8859 81.2205 82.8924 80.0263 82.0568 78.7365C81.2213 77.4466 80.5437 76.0569 80.0739 74.6089C79.758 73.6353 79.5418 72.6284 79.4129 71.6131C79.7663 71.8752 80.1321 72.1207 80.4979 72.3454C81.3086 72.8405 82.1275 73.2691 82.9256 73.7185L82.9298 73.7226L84.3723 74.6547L83.4578 73.1817C82.5307 71.6922 81.745 70.1235 81.3127 68.4633C80.9219 66.9987 80.818 65.4759 80.8679 63.9405C82.0776 63.9239 83.2457 63.7117 84.3848 63.4412C85.7192 63.1167 87.0079 62.6714 88.2675 62.1638C90.7825 61.1527 93.1852 59.9045 95.4924 58.5189C97.7081 57.1958 100.207 56.322 102.755 55.9018C104.031 55.7062 105.328 55.6396 106.613 55.7395C107.893 55.8518 109.161 56.1348 110.35 56.6424L110.786 56.8296C110.786 56.8296 111.539 55.2818 111.123 53.5134C111.934 53.8005 113.235 54.4829 114.104 56.1847C114.943 57.8324 115.039 59.7214 115.039 59.7214C115.039 59.7214 117.188 56.9836 116.668 53.7215C117.916 54.1376 118.818 55.3151 119.233 56.3553C120.202 58.7769 119.474 61.419 119.474 61.419C119.474 61.419 122.592 60.4496 123.249 56.4011C124.184 57.4413 124.617 59.3844 124.567 60.7616C124.463 63.6742 122.808 64.9308 122.808 64.9308L123.049 65.2803C123.528 65.9752 123.893 66.7782 124.176 67.6145C124.459 68.4509 124.667 69.3246 124.812 70.2109C124.958 71.093 125.041 71.9917 125.053 72.8822C125.066 73.7226 125.02 74.5798 124.845 75.3537C124.276 76.0111 123.806 76.7018 123.378 77.4341C122.925 78.2205 122.522 79.0444 122.28 79.9806C122.168 80.4507 122.085 80.9584 122.172 81.5242C122.218 81.803 122.314 82.1026 122.488 82.3689L122.555 82.4687L122.625 82.5561C122.655 82.5936 122.709 82.6518 122.754 82.7059C122.85 82.8099 122.946 82.9015 123.054 82.9889C123.474 83.3425 124.014 83.5672 124.538 83.6421C125.062 83.7212 125.573 83.6712 126.026 83.5963L126.184 83.5714L126.367 83.4216C126.313 83.4673 126.379 83.4133 126.45 83.3966C126.521 83.3716 126.616 83.3467 126.712 83.3259C126.907 83.2884 127.119 83.2635 127.335 83.251C127.768 83.2302 128.217 83.251 128.645 83.3176C129.073 83.3841 129.493 83.4965 129.834 83.6712C130.183 83.846 130.42 84.079 130.491 84.3162C130.511 84.3744 130.524 84.4493 130.524 84.5076L130.532 84.6865V84.8363C130.528 85.0485 130.516 85.269 130.486 85.4812Z" fill="black"/>
<path d="M111.85 72.6408C114.033 71.7046 117.204 70.3024 120.646 74.6838C121.203 74.5132 122.035 73.5229 122.097 71.7795C121.827 72.4827 121.619 72.8489 121.336 73.0944C120.368 70.9515 117.674 69.4994 116.223 69.5701C114.843 69.8447 113.147 70.9224 111.85 72.6408Z" fill="black"/>
<path d="M120.647 67.3566C118.261 66.3996 113.667 65.9835 111.942 66.3871C110.354 67.4939 108.766 70.5354 108.421 71.713C106.001 71.5757 101.167 72.541 99.1631 73.3024C102.339 73.681 106.072 74.8918 107.107 75.6533C103.653 75.4452 94.183 76.2816 91.8426 86.5089C91.1691 83.7711 90.9613 80.0804 91.3603 77.5215C93.2269 76.4147 99.2338 75.0333 101.1 74.9626C99.1673 74.1346 95.0892 74.1346 93.364 74.3385C96.1285 71.5049 102.069 69.982 106.488 70.1901C107.278 67.0237 109.872 64.5189 110.84 64.2442C114.449 64.1444 117.841 65.118 120.647 67.3566Z" fill="#332525"/>
<path d="M115.533 62.1014C112.42 61.7186 109.007 62.2762 107.901 62.5508C106.479 63.3829 104.9 66.179 104.347 67.0778C103.17 67.1485 100.065 67.5604 98.6143 68.3219C99.5829 66.799 101.379 66.3871 101.932 66.2456C102.605 64.0029 104.28 61.5438 105.178 60.9197C108.766 60.3705 112.287 60.7866 115.533 62.1014Z" fill="#332525"/>
<path d="M104.264 57.4205C103.441 58.0862 102.697 59.2762 102.206 60.928C103.387 59.8462 106.604 58.1236 111.53 58.8227C109.46 57.8365 107.81 57.2915 104.264 57.4205Z" fill="#332525"/>
<path d="M118.78 83.8793C119.641 81.7947 120.057 78.0707 119.487 76.2275C118.473 74.2261 115.575 73.8059 113.667 76.8974C112.304 79.1068 112.836 82.7392 113.597 83.6754C114.844 83.3966 116.681 83.1969 118.78 83.8793Z" fill="white"/>
<path d="M119.487 76.2316C120.036 77.9875 119.682 81.4577 118.901 83.5839C118.701 83.6671 118.498 83.717 118.286 83.7336C117.916 83.6338 117.558 83.563 117.209 83.5131C116.099 82.9348 115.405 81.3162 115.592 79.5021C115.812 77.3176 117.221 75.6699 118.735 75.8239C118.951 75.8447 119.154 75.9029 119.35 75.9903C119.4 76.0694 119.445 76.1484 119.487 76.2316Z" fill="black"/>
<path d="M119.687 76.1692L119.674 76.1359C119.433 75.5451 119.005 75.0042 118.427 74.6464C117.853 74.2802 117.138 74.1096 116.432 74.1762C115.725 74.2386 115.056 74.5299 114.499 74.9376C113.942 75.3454 113.493 75.8572 113.127 76.4064C112.358 77.5756 112.117 78.9403 112.137 80.2177C112.146 80.8627 112.229 81.4993 112.387 82.1276C112.47 82.4396 112.566 82.7517 112.699 83.0554C112.807 83.2968 112.927 83.5381 113.11 83.7752C113.385 83.6338 113.667 83.5131 113.962 83.4299L113.95 83.4049C113.767 83.0263 113.646 82.4396 113.588 81.9029C113.522 81.3536 113.513 80.7919 113.538 80.2385C113.572 79.6851 113.634 79.1401 113.771 78.6241C113.838 78.3661 113.908 78.1123 114.008 77.8752C114.058 77.7545 114.112 77.6338 114.162 77.5381C114.183 77.4924 114.224 77.4216 114.262 77.3592L114.357 77.1928C114.919 76.2857 115.654 75.4993 116.615 75.2205C117.089 75.0832 117.616 75.0916 118.103 75.2871C118.585 75.4785 119.013 75.8488 119.308 76.319C119.612 77.1179 119.707 78.025 119.753 78.9112C119.832 78.0125 119.886 77.0971 119.687 76.1692Z" fill="black"/>
<path d="M124.068 88.0609C124.068 88.2981 123.831 88.4895 123.54 88.4895C123.249 88.4895 123.012 88.2981 123.012 88.0609C123.012 87.8237 123.249 87.6324 123.54 87.6324C123.831 87.6324 124.068 87.8237 124.068 88.0609Z" fill="#B7B7B7"/>
<path d="M124.654 89.2509C124.654 89.4132 124.504 89.5422 124.321 89.5422C124.138 89.5422 123.989 89.4132 123.989 89.2509C123.989 89.0887 124.138 88.9597 124.321 88.9597C124.504 88.9597 124.654 89.0887 124.654 89.2509Z" fill="#B7B7B7"/>
<path d="M125.398 88.2731C125.398 88.4562 125.215 88.606 124.987 88.606C124.762 88.606 124.575 88.4562 124.575 88.2731C124.575 88.09 124.758 87.9403 124.987 87.9403C125.211 87.9444 125.398 88.09 125.398 88.2731Z" fill="#B7B7B7"/>
<path d="M129.48 84.5284C129.422 84.8363 128.902 84.9944 128.32 84.882C127.738 84.7697 127.314 84.4327 127.373 84.1248C127.431 83.8168 127.95 83.6587 128.532 83.7711C129.11 83.8793 129.538 84.2205 129.48 84.5284Z" fill="#F5F5F5"/>
<path d="M118.759 78.7947C118.29 79.6061 117.462 80.0097 116.914 79.6893C116.369 79.3731 116.307 78.4535 116.776 77.6422C117.25 76.8308 118.073 76.4272 118.622 76.7434C119.167 77.0638 119.229 77.9834 118.759 78.7947Z" fill="white"/>
<path d="M111.85 84.4992C113.671 83.9791 117.046 83.6171 120.439 84.8487C118.343 83.147 116.244 82.8099 114.552 83.0429C113.467 83.1927 112.37 83.7711 111.85 84.4992Z" fill="#E6E6E6"/>
<path d="M96.573 77.6671C95.0016 78.1165 93.6131 78.3828 91.2686 78.1914C91.2935 77.9584 91.3226 77.7337 91.3559 77.5173C92.1499 77.0513 93.6879 76.5312 95.3383 76.086C95.7166 76.6644 96.1365 77.1803 96.573 77.6671Z" fill="#1A1313"/>
<path d="M94.1741 73.6103C94.2407 73.8308 94.3155 74.0472 94.3945 74.2552C93.9996 74.276 93.6462 74.3052 93.3594 74.3385C93.6046 74.0846 93.879 73.8433 94.1741 73.6103Z" fill="#1A1313"/>
<path d="M93.7918 81.7448C92.9521 83.0471 92.2745 84.6157 91.8422 86.5089C91.3599 84.545 91.1147 82.086 91.1646 79.9098C92.0168 80.6879 92.9022 81.2787 93.7918 81.7448Z" fill="#1A1313"/>
<path d="M96.1948 67.3441C98.2235 65.3427 100.88 61.315 100.531 59.1222C100.269 57.4953 99.2004 57.254 96.8309 55.8893C93.9666 54.2416 91.4932 51.7076 89.7639 50.0849C87.7519 48.8907 85.877 50.7506 84.6091 54.3414C83.0461 58.7603 83.2248 66.8656 88.6997 70.3649C90.7574 71.0639 93.4262 70.0736 96.1948 67.3441Z" fill="#E6E6E6"/>
<path d="M89.1239 53.9004C91.1857 57.874 93.9876 59.8837 96.091 61.5855C96.4361 62.3136 93.8379 67.2567 90.6121 67.5063C88.4171 65.6922 87.5068 63.5868 87.17 60.5577C86.8333 57.537 87.9807 53.5134 89.1239 53.9004Z" fill="#DAB5B5"/>
<path d="M100.531 59.1181C100.31 58.5397 99.9778 58.0862 99.5039 57.8116C99.0425 57.5203 98.4938 57.3123 97.9534 57.0709C97.4005 56.8421 96.8642 56.5716 96.3155 56.3012C95.7668 56.0099 95.243 55.6854 94.7399 55.34C92.7279 53.942 90.9571 52.261 89.2277 50.6549L89.3649 50.7589C89.0157 50.5551 88.6831 50.476 88.3672 50.5301C88.0471 50.58 87.7062 50.7673 87.3903 51.0585C86.7543 51.6452 86.2554 52.5231 85.8356 53.4177C85.6277 53.8713 85.4406 54.3414 85.2744 54.8241C85.1206 55.2818 84.9834 55.7728 84.8794 56.2637C84.6674 57.2499 84.5427 58.2609 84.4928 59.2762C84.4014 61.3108 84.6757 63.3621 85.3492 65.2678C86.0185 67.1776 87.1118 68.921 88.7039 70.369C87.7104 69.9571 86.8083 69.2955 86.0517 68.4883C85.3035 67.6769 84.6965 66.7241 84.2517 65.7089C83.3663 63.6659 83.0379 61.4398 83.042 59.2429C83.0462 58.1403 83.1501 57.0377 83.3704 55.9517C83.4827 55.4024 83.6157 54.8699 83.7903 54.3206C83.9607 53.7964 84.1561 53.2804 84.3806 52.7645C84.8337 51.7409 85.3949 50.7298 86.3219 49.8727C86.7875 49.4566 87.3903 49.0738 88.1261 48.9656C88.8619 48.8449 89.6101 49.0696 90.1672 49.4108L90.2503 49.4608L90.3044 49.5148C91.1774 50.347 92.0005 51.1917 92.8651 51.9864C93.7256 52.7853 94.6069 53.5509 95.534 54.2416C95.9954 54.5869 96.4693 54.9239 96.9432 55.2402C97.4213 55.573 97.9326 55.8685 98.4273 56.2096C98.9261 56.5425 99.4457 56.8837 99.8989 57.3622C100.119 57.6035 100.31 57.8906 100.414 58.2027C100.518 58.4981 100.547 58.8185 100.531 59.1181Z" fill="black"/>
<path d="M87.1701 60.5577C86.9373 59.3344 86.9207 58.0654 87.0662 56.8046C87.141 56.1722 87.2574 55.5398 87.4652 54.9073C87.5733 54.5911 87.698 54.2707 87.9142 53.9461C88.0265 53.7839 88.1553 53.6174 88.3798 53.4635C88.492 53.3886 88.6334 53.3179 88.7997 53.2846C88.9659 53.2513 89.1572 53.2596 89.3193 53.3095H89.3235L89.5646 53.3844L89.6768 53.6133C90.4334 55.1237 91.402 56.5217 92.5535 57.7658C93.7008 59.0182 95.0352 60.0959 96.3946 61.2068L96.486 61.2817L96.5276 61.3733V61.3774C96.6232 61.6354 96.59 61.7644 96.5817 61.8934C96.565 62.0182 96.5359 62.1222 96.5068 62.2262C96.4445 62.426 96.3697 62.609 96.2907 62.7838C96.1286 63.1333 95.9456 63.4578 95.7461 63.7699C95.347 64.394 94.8856 64.9724 94.3784 65.5008C93.8671 66.0251 93.3017 66.5036 92.6699 66.8697C92.0422 67.2359 91.3313 67.4897 90.6121 67.5063C91.3271 67.4106 91.9756 67.0861 92.5368 66.67C93.098 66.2498 93.5844 65.738 94.0126 65.1846C94.4408 64.6312 94.8066 64.032 95.1142 63.4121C95.2639 63.1042 95.4011 62.7838 95.505 62.4676C95.559 62.3095 95.6006 62.1513 95.6255 62.0057C95.638 61.935 95.6463 61.8642 95.6463 61.8102C95.6547 61.7602 95.6214 61.7061 95.6505 61.7977L95.7835 61.9683C94.4158 60.9072 92.9941 59.8254 91.747 58.5356C90.4958 57.254 89.4149 55.7852 88.5669 54.1958L88.9202 54.4995C88.9618 54.5079 89.0283 54.4663 88.9743 54.4704C88.9327 54.4787 88.8454 54.537 88.7706 54.6202C88.6084 54.7866 88.4546 55.028 88.3216 55.2776C88.0514 55.7852 87.8435 56.3553 87.6731 56.9336C87.3405 58.0904 87.1452 59.3136 87.1701 60.5577Z" fill="#D4D4D4"/>
</svg>
