<svg width="132" height="137" viewBox="0 0 132 137" fill="none" xmlns="http://www.w3.org/2000/svg">
<path d="M85.8774 95.0677C83.5286 94.8056 81.5499 97.868 80.0118 103.527C78.4737 109.19 78.8478 121.722 82.5974 125.725C85.8275 127.726 94.628 126.794 95.6838 124.493C96.349 122.317 94.524 120.52 92.5744 119.696C90.5873 116.334 88.7291 111.969 89.0367 109.597C89.494 102.266 90.3088 95.567 85.8774 95.0677Z" fill="#E6E6E6"/>
<path d="M95.6842 124.497C94.6283 126.798 85.8278 127.73 82.5978 125.729C80.7022 123.707 79.6671 119.509 79.3096 115.115C83.0759 115.552 87.7276 114.782 89.777 113.821C90.4546 115.755 91.4939 117.873 92.5747 119.7C94.5244 120.52 96.3452 122.317 95.6842 124.497Z" fill="#EFEFEF"/>
<path d="M88.9995 110.126C88.9953 110.821 89.1325 111.645 89.3777 112.539C86.3597 113.471 83.4789 112.589 81.7163 110.821C83.3833 111.124 86.8378 111.095 88.9995 110.126Z" fill="#1A1313"/>
<path d="M89.1743 107.467C89.1327 108.12 89.0828 108.786 89.0454 109.456C87.0874 109.66 85.4994 109.202 84.4727 108.32C85.8985 108.47 87.8939 108.041 89.1743 107.467Z" fill="#1A1313"/>
<path d="M89.2452 106.319C86.5265 106.993 82.0909 106.531 79.5718 105.616C79.6923 104.854 79.8378 104.151 80.0041 103.531C80.0166 103.485 80.0332 103.439 80.0415 103.394C82.648 104.113 85.7741 104.08 87.2623 103.136C85.1672 102.686 83.6748 102.062 82.5274 100.714C83.5875 101.113 87.5325 100.868 89.3159 100.107C89.4822 101.892 89.3907 104.026 89.2452 106.319Z" fill="#1A1313"/>
<path d="M96.2494 124.755L96.266 124.722L96.2785 124.676C96.4614 124.085 96.4988 123.424 96.3616 122.808C96.2244 122.188 95.9293 121.631 95.5676 121.16C94.8817 120.282 93.9879 119.663 93.0277 119.217C92.2544 117.761 91.5394 116.276 90.9284 114.761C90.6124 113.975 90.3214 113.184 90.1011 112.385C89.8766 111.595 89.702 110.779 89.7062 110.03C89.7519 109.215 89.781 108.312 89.8184 107.455C89.86 106.585 89.8766 105.715 89.8808 104.837C89.8641 103.094 89.7685 101.305 89.2655 99.6031C89.1616 101.359 88.9538 103.057 88.775 104.779C88.5963 106.51 88.4466 108.204 88.2886 109.989C88.2595 110.983 88.4424 111.89 88.6711 112.772C88.9122 113.646 89.2115 114.495 89.5524 115.319C90.2383 116.962 91.0738 118.527 92.03 120.012L92.1547 120.203L92.3251 120.27C93.2023 120.64 94.0212 121.206 94.5741 121.918C94.8484 122.276 95.048 122.667 95.1394 123.074C95.2267 123.461 95.206 123.861 95.0979 124.256C94.9898 124.468 94.7237 124.701 94.3995 124.897C94.333 124.635 94.2374 124.393 94.1168 124.173C93.9048 123.794 93.6263 123.474 93.3145 123.212C92.6951 122.687 91.9385 122.367 91.1861 122.342C91.9011 122.571 92.4748 123.066 92.8531 123.632C93.2355 124.198 93.3976 124.884 93.2397 125.38C93.2355 125.392 93.2355 125.404 93.2314 125.421C93.0235 125.492 92.8157 125.558 92.6036 125.617C91.5436 125.908 90.4253 126.074 89.3113 126.153C88.193 126.228 87.0665 126.22 85.9648 126.091C84.9089 125.962 83.8364 125.725 82.9967 125.242C82.2983 124.41 81.7953 123.353 81.4087 122.259C81.0179 121.131 80.7394 119.945 80.5066 118.751C80.0535 116.355 79.8997 113.891 79.8581 111.441C79.8498 108.99 79.9621 106.51 80.4609 104.147C80.7353 102.969 81.0554 101.763 81.3962 100.589C81.7454 99.4075 82.1237 98.2425 82.6309 97.0858C81.7496 98.0011 81.1052 99.1329 80.5773 100.281C80.0494 101.442 79.6378 102.628 79.3011 103.868C78.6817 106.377 78.4738 108.907 78.4447 111.441C78.4115 113.975 78.6276 116.509 79.0849 119.022C79.3177 120.278 79.642 121.522 80.1076 122.737C80.5731 123.944 81.1634 125.159 82.1362 126.158L82.2069 126.228L82.2651 126.262C83.4124 126.944 84.6263 127.173 85.8193 127.331C87.0166 127.472 88.2096 127.481 89.3986 127.402C90.5875 127.318 91.7681 127.144 92.9404 126.823C93.5223 126.661 94.1043 126.461 94.678 126.174C94.9648 126.029 95.2475 125.862 95.5219 125.642C95.7921 125.425 96.0623 125.147 96.2494 124.755Z" fill="black"/>
<path d="M48.0566 98.4588C48.0608 95.3715 49.2497 93.2078 52.0516 92.7793C54.6622 92.384 57.0026 95.2467 58.0751 97.7307C59.1476 100.215 60.9518 106.19 61.2054 109.527C61.3135 112.86 60.5569 115.152 59.5841 121.077C60.8894 124.564 59.6714 128.259 54.4626 127.439C49.2539 126.619 45.0386 121.785 45.3421 118.622C45.816 116.467 48.277 114.045 49.1874 108.928C49.1042 105.224 48.0566 101.242 48.0566 98.4588Z" fill="#E6E6E6"/>
<path d="M56.5168 95.1218C57.0322 95.7709 57.4812 96.4866 57.8304 97.1939C56.5001 98.0927 54.4133 99.187 52.3057 98.2841C53.6318 97.997 55.5606 96.524 56.5168 95.1218Z" fill="#1A1313"/>
<path d="M58.3498 98.4006C58.7405 99.4075 59.1978 100.751 59.626 102.204C57.7387 103.26 54.5336 104.313 51.3867 102.64C52.3719 102.998 56.3461 100.835 58.3498 98.4006Z" fill="#1A1313"/>
<path d="M48.959 106.002C51.2038 107.13 57.086 107.159 60.3493 104.846C60.7775 106.56 61.1017 108.241 61.2015 109.523C61.2347 110.6 61.1807 111.57 61.056 112.589C57.5391 114.79 54.3216 113.783 52.2929 111.819C54.9825 112.356 57.3521 111.416 58.3498 109.839C55.0698 111.328 50.8213 109.364 49.1294 107.867C49.1003 107.247 49.038 106.627 48.959 106.002Z" fill="#1A1313"/>
<path d="M60.8271 114.195C60.5278 115.951 60.0871 118.036 59.5841 121.077C60.8936 124.564 59.6714 128.259 54.4626 127.439C49.2539 126.615 45.0386 121.78 45.3421 118.618C45.7245 116.883 47.3957 114.969 48.5056 111.615C50.4178 113.712 56.3957 116.442 60.8271 114.195Z" fill="#EFEFEF"/>
<path d="M56.0922 94.6309C56.7199 95.6128 57.2229 96.6281 57.6012 97.6808C57.967 98.7376 58.2747 99.8402 58.5989 100.93C59.2349 103.119 59.8003 105.337 60.1952 107.554C60.2908 108.108 60.374 108.661 60.4239 109.206L60.4529 109.581L60.4571 109.997C60.4571 110.271 60.453 110.55 60.4446 110.825C60.4072 111.927 60.2451 113.03 60.0663 114.154C59.6839 116.396 59.264 118.685 58.9689 120.977L58.9439 121.16L58.998 121.298V121.302C59.3098 122.18 59.4636 123.112 59.3763 123.986C59.2973 124.859 58.9398 125.65 58.3079 126.137C58.1333 126.274 57.9379 126.386 57.7301 126.482C57.7301 126.465 57.7342 126.449 57.7384 126.432C57.7758 125.999 57.7259 125.579 57.622 125.184C57.4058 124.406 56.9652 123.707 56.3583 123.262C56.8155 123.857 57.0151 124.585 57.0068 125.267C57.0026 125.866 56.8072 126.449 56.483 126.798C56.2959 126.815 56.1047 126.827 55.9093 126.827C55.0072 126.823 54.0636 126.649 53.1656 126.374C51.374 125.808 49.7153 124.76 48.385 123.411C47.7241 122.737 47.1421 121.98 46.7097 121.169C46.2899 120.378 46.0197 119.509 46.0737 118.735C46.2317 118.052 46.6183 117.312 47.0132 116.567C47.4206 115.801 47.8488 115.015 48.2271 114.199C48.992 112.568 49.5449 110.821 49.8359 109.04L49.8483 108.965L49.8442 108.907C49.7652 106.606 49.3536 104.384 49.0086 102.191C48.8465 101.093 48.6511 100.011 48.5264 98.9332C48.3934 97.8555 48.3435 96.7862 48.4848 95.6503C47.8654 96.6239 47.6451 97.8222 47.5952 98.9665C47.5619 100.123 47.6783 101.251 47.8363 102.362C48.1356 104.554 48.4765 106.718 48.5139 108.861C48.198 110.504 47.6742 112.086 46.9467 113.596C46.5809 114.362 46.1652 115.106 45.7412 115.876C45.3255 116.654 44.8599 117.445 44.6146 118.46L44.6063 118.502L44.6021 118.547C44.494 119.791 44.8973 120.894 45.4003 121.859C45.9158 122.829 46.5809 123.682 47.3292 124.447C48.8298 125.966 50.6714 127.135 52.725 127.784C53.7476 128.105 54.8118 128.288 55.9259 128.275C57.0192 128.259 58.2289 128.005 59.1892 127.223C59.6631 126.84 60.0414 126.332 60.2908 125.791C60.5402 125.246 60.6733 124.668 60.719 124.102C60.798 123.024 60.586 121.988 60.2326 121.027L60.8811 117.803C61.1139 116.679 61.3509 115.552 61.5546 114.403C61.7624 113.259 61.9204 112.077 61.9661 110.879C61.9786 110.579 61.9786 110.28 61.9786 109.98L61.9661 109.535L61.9578 109.385L61.9453 109.273L61.9204 109.048C61.8539 108.449 61.7541 107.867 61.6419 107.288C61.4215 106.131 61.1306 105 60.8146 103.88C60.4904 102.761 60.162 101.646 59.7587 100.556C59.5633 100.007 59.3555 99.4658 59.1185 98.929C58.8941 98.3923 58.6446 97.8597 58.3536 97.3354C57.7633 96.2952 57.0151 95.3507 56.0922 94.6309Z" fill="black"/>
<path d="M49.9398 77.0346C48.992 75.6574 47.0299 76.1817 44.3818 78.0083C32.4054 86.2759 29.9735 83.5672 23.3804 79.5311C15.2326 74.5423 6.56101 75.6408 3.63029 82.3813C3.41412 85.7308 6.8229 89.9499 13.2871 87.8487C19.2483 85.9097 21.9171 89.1385 28.7555 91.4936C34.9661 92.9332 43.9703 86.2135 47.2294 83.1261C50.4844 80.0263 51.2784 78.9777 49.9398 77.0346Z" fill="#E6E6E6"/>
<path d="M49.9403 77.0346C51.2788 78.9778 50.489 80.0263 47.2299 83.122C44.4156 85.7891 37.3236 91.1566 31.4414 91.6475C37.8724 89.072 38.8451 84.7364 37.8433 81.9195C39.6724 81.0623 41.8049 79.7933 44.3823 78.0124C47.0262 76.1817 48.9925 75.6616 49.9403 77.0346Z" fill="#D4D4D4"/>
<path d="M40.724 80.3717C39.826 82.6684 41.1896 85.7891 42.0916 87.1705C41.2103 87.7613 40.2792 88.3438 39.3147 88.8806C37.8307 86.9749 37.3193 84.8986 37.3526 84.0748C36.6293 84.8737 36.5794 85.5644 36.5295 86.5047C35.6732 85.3855 35.4404 83.8127 35.7355 82.7725C37.1614 82.294 38.7951 81.5159 40.724 80.3717Z" fill="#332525"/>
<path d="M39.2978 81.1789C39.2313 81.2163 39.169 81.2496 39.1025 81.2829C38.9362 81.3703 38.7699 81.4576 38.6078 81.5408C38.5163 81.5866 38.429 81.6282 38.3417 81.674C38.2087 81.7406 38.0757 81.8071 37.9426 81.8695C37.9094 81.8862 37.8761 81.9028 37.8429 81.9195C38.2711 83.122 38.3376 84.5991 37.7764 86.1011C38.084 86.9541 38.5828 87.9402 39.3186 88.8847C39.3228 88.8847 39.3269 88.8806 39.3311 88.8806C39.7717 88.6351 40.2082 88.3771 40.6323 88.1191C40.7112 88.0734 40.7861 88.0234 40.8651 87.9735C41.2724 87.7197 41.6715 87.4617 42.0623 87.1996C42.0748 87.1913 42.0831 87.1829 42.0955 87.1746C41.1893 85.7932 39.8299 82.6768 40.7279 80.38C40.5159 80.5048 40.308 80.6255 40.1043 80.742C40.0794 80.7544 40.0586 80.7711 40.0336 80.7836C39.7801 80.9167 39.5348 81.0499 39.2978 81.1789Z" fill="#1A1313"/>
<path d="M30.1401 83.1095C31.304 83.4215 32.5262 83.4964 33.9396 83.2385C31.1959 86.1261 32.7756 90.0623 33.8939 91.194C32.8754 91.4769 31.8652 91.6517 30.8966 91.6808V91.6267C27.7082 88.4562 28.7973 84.7655 30.1401 83.1095Z" fill="#332525"/>
<path d="M23.3809 79.527C24.5615 80.251 25.6132 80.9334 26.6068 81.5159C23.3227 84.6948 23.6885 87.9069 24.5947 89.7835C23.4516 89.2592 22.4206 88.7599 21.4312 88.3438C20.4543 85.219 21.8178 82.9431 22.5162 82.1525C20.6663 82.6726 19.8183 84.4368 19.6728 85.2107C18.0308 82.0568 20.5832 79.5104 21.9218 78.699C22.4081 78.957 22.8945 79.2316 23.3809 79.527Z" fill="#332525"/>
<path d="M16.8955 76.8349C12.5556 80.6005 14.2267 85.5436 16.0226 87.2828C15.1745 87.3452 14.2766 87.5242 13.2872 87.8487C6.82716 89.9458 3.41422 85.7308 3.63455 82.3813C5.78374 77.4258 11.0299 75.5201 16.8955 76.8349Z" fill="#332525"/>
<path d="M42.8771 87.391C39.6346 89.6295 33.4656 93.2203 28.6185 92.0928L28.5561 92.0761C26.5025 91.3687 24.8148 90.5823 23.3265 89.8875C19.7847 88.2356 17.4443 87.1455 13.4826 88.4354C10.3482 89.4548 7.50065 89.1469 5.4637 87.5616C3.82582 86.2884 2.88632 84.2828 3.01104 82.3356L3.01935 82.2274L3.06508 82.1275C3.85492 80.3134 5.04799 78.8446 6.60688 77.767C10.9843 74.7462 17.5358 75.2164 23.709 78.9944C24.1746 79.2773 24.6152 79.5561 25.0434 79.8224C30.6637 83.3383 33.2286 84.9444 44.0286 77.4882C47.1714 75.3204 49.333 75.0458 50.4554 76.6768C52.1474 79.1317 50.7423 80.6421 47.6619 83.5672C46.3774 84.7863 44.6356 86.1802 42.8771 87.391ZM28.9302 90.8861C33.3076 91.8805 39.1025 88.4811 42.1704 86.3633C44.594 84.6906 46.2152 83.2177 46.8014 82.6643C50.0896 79.5436 50.4347 78.8529 49.4286 77.3883C48.776 76.4396 47.1963 76.8224 44.7353 78.5201C33.2619 86.4382 30.1067 84.4659 24.3824 80.8834C23.9584 80.6171 23.5178 80.3425 23.0563 80.0596C17.3113 76.5437 11.2794 76.0568 7.31358 78.7947C5.97501 79.7184 4.94406 80.9708 4.24983 82.5228C4.19164 84.0332 4.94406 85.5769 6.22859 86.5755C7.92882 87.8945 10.3649 88.1358 13.096 87.2454C17.5275 85.8057 20.3168 87.1081 23.8545 88.7557C25.3011 89.434 26.9473 90.2037 28.9302 90.8861Z" fill="black"/>
<path d="M97.8919 80.251C95.8384 76.5187 90.3386 75.7365 86.4393 76.5728C82.5399 77.4091 76.9778 78.1123 73.1201 77.9708C63.0018 75.1082 55.8808 74.0804 49.7824 75.4951C44.345 77.0555 39.1778 81.9278 38.3297 89.022C37.9223 97.7099 43.0023 105.091 55.0369 107.167C69.9108 107.908 82.3612 104.837 89.4448 100.556C98.5778 95.0469 101.958 87.6365 97.8919 80.251Z" fill="#E6E6E6"/>
<path d="M97.8878 80.251C101.953 87.6365 98.5779 95.0428 89.4448 100.556C82.3571 104.837 69.9108 107.908 55.0369 107.167C42.9981 105.091 37.9224 97.7099 38.3298 89.0179C38.866 84.5283 41.1358 80.925 44.1081 78.4993C43.5427 83.0429 47.5418 89.5629 59.3145 89.3674C72.8249 89.1469 79.9293 82.8806 77.4268 77.8543C80.503 77.6255 83.8411 77.1262 86.4351 76.5728C90.3386 75.7406 95.8384 76.5229 97.8878 80.251Z" fill="#D4D4D4"/>
<path d="M99.5628 85.6393C99.9619 91.1441 96.3453 96.3909 89.4487 100.556C82.361 104.837 69.9148 107.908 55.0409 107.167C48.9217 106.111 44.6025 103.685 41.8838 100.41C46.7808 102.778 55.1323 103.573 65.0095 103.027C74.3337 102.511 83.3753 99.9526 89.773 95.8167C93.6931 93.2786 95.7841 90.4742 97.5675 86.9583C98.0829 85.9388 98.9268 85.3855 99.5628 85.6393Z" fill="#EFEFEF"/>
<path d="M73.12 77.9708C74.5209 78.0249 76.1505 77.9667 77.8424 77.8252C75.398 80.122 73.7518 84.1372 73.2655 87.9693C72.5837 89.7335 71.6525 92.0678 71.1371 93.7945C70.3639 90.4991 70.0271 87.004 70.5925 84.1372C69.5823 84.8071 67.7657 87.5283 67.0632 88.8806C65.8368 84.7696 66.5809 80.5714 68.5846 78.9195C68.0193 80.1969 67.9237 82.6975 68.1689 83.5214C69.2581 81.2413 71.2077 79.036 72.75 77.871C72.8747 77.9043 72.9994 77.9375 73.12 77.9708Z" fill="#332525"/>
<path d="M67.0258 76.398C65.5209 77.7129 63.775 80.846 62.902 84.2787C61.5759 87.1497 60.9357 88.3605 59.859 92.0553C59.4059 88.1524 59.1357 83.8293 59.8674 81.6074C58.4747 83.0263 56.9948 84.7572 56.3588 86.7669C56.1634 82.4729 58.5371 78.0291 63.484 75.6657C64.6189 75.8696 65.7995 76.1109 67.0258 76.398Z" fill="#332525"/>
<path d="M60.1625 75.1623C57.2235 76.3231 54.3842 79.8474 52.8876 83.6962C52.5094 81.4909 52.8835 79.0443 54.38 76.9639C51.9232 77.8044 49.7699 79.9597 48.7015 81.6657C47.5375 83.5256 46.8641 85.4978 46.307 87.7488C45.9495 85.1941 45.9537 82.2815 47.0013 79.4521C48.0863 77.3176 50.4225 75.9279 52.6341 75.025H52.6382C54.9454 74.7753 57.4271 74.8294 60.1625 75.1623Z" fill="#332525"/>
<path d="M73.6398 85.9056C73.4819 86.5921 73.3572 87.287 73.2699 87.9693C72.5881 89.7335 71.6569 92.0678 71.1415 93.7945C70.6509 91.7058 70.335 89.5421 70.3184 87.5033C71.5738 87.0373 72.6837 86.4964 73.6398 85.9056Z" fill="#1A1313"/>
<path d="M67.3253 88.4104C67.2255 88.5768 67.1382 88.7349 67.0676 88.8764C67.0301 88.7474 66.9927 88.6268 66.9595 88.4978C67.08 88.4728 67.2006 88.4437 67.3253 88.4104Z" fill="#1A1313"/>
<path d="M59.5889 89.3674C59.9755 89.3591 60.3538 89.3466 60.7279 89.3258C60.4535 90.0872 60.175 90.961 59.8591 92.0511C59.7551 91.1732 59.6637 90.2661 59.5889 89.3674Z" fill="#1A1313"/>
<path d="M46.9306 85.5685C46.6978 86.2676 46.4983 86.9915 46.3112 87.7447C46.174 86.7669 46.0909 85.7433 46.0992 84.6864C46.3528 84.986 46.6271 85.2856 46.9306 85.5685Z" fill="#1A1313"/>
<path d="M63.3838 107.812C60.636 107.937 57.8175 107.933 55.0032 107.792L54.9284 107.783C43.5131 105.815 37.236 98.9665 37.7057 88.9929L37.7099 88.9471C38.6785 80.821 44.727 76.2982 49.6074 74.896C51.0998 74.5465 52.6004 74.3467 54.2175 74.2718C59.1021 74.0472 64.7848 74.9667 73.2153 77.3509C74.0217 77.38 74.9321 77.3675 75.9256 77.3217C79.0933 77.1761 83.0716 76.656 86.3058 75.9611C87.0624 75.7989 87.8647 75.699 88.6795 75.6616C92.1631 75.5034 96.5571 76.5437 98.4319 79.9472C102.61 87.5366 99.4504 95.2425 89.7645 101.084C83.4956 104.879 73.8762 107.33 63.3838 107.812ZM55.1071 106.548C57.8674 106.685 60.636 106.689 63.3298 106.568C73.6226 106.098 83.0217 103.71 89.1284 100.023C98.1617 94.5726 101.159 87.4742 97.3511 80.5547C95.7506 77.6504 91.8596 76.7683 88.746 76.9098C87.9977 76.9431 87.2661 77.0346 86.576 77.1844C83.2753 77.8918 79.2222 78.4244 75.9922 78.57C74.9363 78.6199 73.9635 78.6282 73.1072 78.5949L72.9617 78.57C64.739 76.2441 58.9815 75.3037 54.2882 75.5159C52.746 75.5867 51.3242 75.7781 49.9358 76.0984C45.4545 77.3841 39.8716 81.5616 38.9653 89.0678C38.5288 98.3257 44.4152 104.692 55.1071 106.548Z" fill="black"/>
<path d="M78.9233 94.3562C76.1464 94.0983 74.1594 96.8361 72.2305 102.374C69.2457 110.941 69.4951 123.832 72.9788 127.556C75.2319 129.457 85.479 128.754 86.273 126.882C86.9714 124.83 85.6536 122.979 83.8577 122.072C82.1908 117.162 81.2305 113.584 81.4259 110.034C82.0827 104.446 84.5894 94.8847 78.9233 94.3562Z" fill="#E6E6E6"/>
<path d="M86.2686 126.886C85.4746 128.758 75.2275 129.461 72.9744 127.56C69.4907 123.836 69.2413 110.941 72.2261 102.378C74.155 96.8361 76.142 94.1024 78.9189 94.3604C79.8501 94.4478 80.5568 94.7765 81.0931 95.2924C79.0686 95.6045 76.5702 98.5337 75.3813 104.334C73.7767 112.181 78.7901 116.692 81.7374 114.578C82.1406 116.796 82.8681 119.209 83.845 122.076C85.6492 122.987 86.967 124.83 86.2686 126.886Z" fill="#D4D4D4"/>
<path d="M86.2687 126.886C85.4747 128.758 75.2276 129.461 72.9745 127.56C71.2327 125.7 70.3056 121.552 70.1768 116.792C74.3837 117.907 80.1121 117.486 82.1574 116.496C82.5689 118.185 83.1468 120.012 83.8451 122.072C85.6493 122.987 86.9671 124.83 86.2687 126.886Z" fill="white"/>
<path d="M81.4505 112.294C81.5087 113.147 81.6334 114.025 81.8121 114.932C77.8297 115.743 74.3544 114.079 72.5918 111.582C74.5415 112.352 78.977 113.192 81.4505 112.294Z" fill="#332525"/>
<path d="M81.417 110.038C81.3838 110.646 81.3879 111.253 81.417 111.865C78.9477 111.736 77.0937 110.858 76.0669 109.606C77.6258 110.097 79.9496 110.084 81.4544 109.756C81.442 109.847 81.4336 109.943 81.417 110.038Z" fill="#332525"/>
<path d="M82.4608 102.22C82.2945 104.367 81.8996 106.639 81.6086 108.607C78.5241 108.67 73.8307 107.201 71.2783 105.686C71.4654 104.879 71.6774 104.093 71.9143 103.335C74.658 104.767 78.2414 105.516 80.1037 104.846C77.9047 103.905 76.404 102.923 75.4229 101.255C76.4247 101.867 80.2534 102.457 82.4608 102.22Z" fill="#332525"/>
<path d="M75.3273 104.65C75.1485 105.611 75.0695 106.523 75.0779 107.371C73.6312 106.876 72.2885 106.29 71.2783 105.69C71.4654 104.883 71.6774 104.097 71.9143 103.34C72.9744 103.889 74.1592 104.342 75.3273 104.65Z" fill="#1A1313"/>
<path d="M81.7417 114.578C81.7625 114.694 81.7833 114.815 81.8082 114.932C77.8258 115.743 74.3505 114.079 72.5879 111.582C73.4775 111.936 74.8909 112.302 76.3916 112.506C77.8175 114.878 80.0997 115.755 81.7417 114.578Z" fill="#1A1313"/>
<path d="M76.1212 101.55C76.0672 101.708 76.0173 101.871 75.9633 102.037C75.7679 101.796 75.585 101.534 75.4229 101.255C75.585 101.359 75.8302 101.455 76.1212 101.55Z" fill="#1A1313"/>
<path d="M86.9339 127.11C87.1168 126.561 87.1916 125.954 87.1251 125.363C87.0628 124.772 86.8632 124.206 86.5764 123.711C86.0401 122.8 85.2503 122.122 84.3773 121.647C83.8369 119.8 83.2882 117.965 82.86 116.126C82.411 114.212 82.1076 112.285 82.1533 110.363L82.1616 110.184L82.1658 110.101L82.1699 110.055L82.2115 109.685L82.2988 108.948L82.49 107.459C82.6272 106.464 82.7436 105.457 82.835 104.446C82.914 103.435 82.9556 102.412 82.914 101.388C82.8641 100.369 82.7436 99.3326 82.4276 98.359C82.3487 100.389 81.987 102.324 81.6461 104.292L81.1265 107.251L80.8729 108.744L80.7524 109.502L80.6983 109.876L80.69 109.922L80.6817 110.022L80.6775 110.122L80.6651 110.317C80.5611 112.423 80.8729 114.507 81.3718 116.492C81.6212 117.486 81.9122 118.464 82.2364 119.425C82.5607 120.386 82.8932 121.343 83.2632 122.284L83.3671 122.542L83.575 122.638C84.3482 123.049 85.0175 123.657 85.4083 124.381C85.8032 125.084 85.878 125.883 85.6203 126.628C85.6119 126.644 85.4789 126.782 85.3002 126.873C85.2295 126.565 85.1131 126.282 84.9676 126.033C84.7431 125.658 84.4563 125.346 84.1403 125.092C83.5085 124.589 82.7394 124.285 81.9912 124.281C82.7103 124.493 83.2965 124.968 83.6914 125.525C84.0863 126.079 84.2692 126.761 84.1237 127.26C84.1196 127.277 84.1196 127.298 84.1154 127.314C83.7662 127.41 83.4087 127.493 83.0429 127.564C81.9496 127.76 80.823 127.864 79.7006 127.918C78.5741 127.963 77.4433 127.943 76.3459 127.822C75.7972 127.76 75.2526 127.672 74.7413 127.539C74.259 127.414 73.7727 127.227 73.4983 127.006C72.7542 126.174 72.2678 124.988 71.9103 123.798C71.5528 122.571 71.3075 121.289 71.1537 119.991C70.8378 117.395 70.8336 114.744 71.0082 112.111C71.1911 109.477 71.5985 106.86 72.2678 104.317C72.5921 103.048 72.9995 101.787 73.3985 100.523C73.8142 99.2619 74.2549 98.0178 74.8244 96.7903C73.8891 97.7806 73.1907 98.9789 72.5921 100.194C72.2886 100.801 72.0226 101.426 71.769 102.054C71.5071 102.678 71.2951 103.339 71.0955 103.984C70.3182 106.602 69.8692 109.294 69.6239 111.998C69.3787 114.707 69.3745 117.436 69.6697 120.162C69.8235 121.522 70.0521 122.887 70.4512 124.231C70.6507 124.901 70.8918 125.571 71.2036 126.22C71.5154 126.869 71.8978 127.514 72.4299 128.084L72.4674 128.121L72.4965 128.142C73.1325 128.65 73.7602 128.829 74.3713 128.999C74.9824 129.158 75.5851 129.249 76.1879 129.316C77.3893 129.445 78.5824 129.461 79.7713 129.411C80.9602 129.361 82.145 129.237 83.3297 128.995C83.92 128.875 84.5145 128.729 85.1131 128.508C85.4124 128.396 85.7117 128.271 86.0193 128.088C86.3145 127.897 86.672 127.693 86.9214 127.156L86.9297 127.14L86.9339 127.11Z" fill="black"/>
<path d="M42.5068 94.7931C42.8518 91.9263 44.1987 89.538 47.0214 89.2633C49.4324 89.0262 51.5983 91.2231 52.7706 94.5435C53.6726 97.0941 54.7784 105.387 54.2297 109.572C53.2445 115.052 48.6759 121.61 47.8445 123.099C48.5553 125.75 47.3955 129.956 42.353 128.417C37.3105 126.877 32.8333 121.71 33.2574 117.886C33.1867 116.933 39.9253 111.374 41.6588 105.445C42.9308 99.8818 42.1742 97.5559 42.5068 94.7931Z" fill="#E6E6E6"/>
<path d="M47.0221 89.2633C49.429 89.0262 51.599 91.2231 52.7713 94.5435C53.6733 97.0941 54.7791 105.387 54.2304 109.572C53.2493 115.052 48.6766 121.61 47.8452 123.095C48.556 125.746 47.392 129.956 42.3495 128.413C37.3112 126.873 32.8341 121.705 33.2539 117.882C33.1957 117.058 38.2174 112.797 40.7033 107.825C43.8918 114.491 49.3749 103.951 48.7597 97.9886C48.29 93.4825 45.804 91.427 43.7837 91.1274C44.5195 90.0997 45.5754 89.4048 47.0221 89.2633Z" fill="#D4D4D4"/>
<path d="M52.7835 94.5768C52.9955 95.1843 53.2158 96.1038 53.4237 97.2106C51.7401 97.6558 49.4205 97.9013 47.5581 96.5116C49.0131 96.6239 51.1082 95.6752 52.7835 94.5768Z" fill="#1A1313"/>
<path d="M53.6938 98.7751C53.9017 100.102 54.0804 101.588 54.2051 103.061C51.8481 103.597 48.0402 103.718 45.1802 100.897C46.0864 101.567 50.7381 100.61 53.6938 98.7751Z" fill="#1A1313"/>
<path d="M54.3675 106.027C54.3966 107.355 54.3633 108.582 54.2303 109.572C53.9351 111.208 53.3282 112.939 52.5882 114.603C47.9947 115.959 44.7938 113.837 43.2224 111.029C45.937 112.468 48.7804 112.215 50.3476 110.85C46.6229 111.353 42.9522 108.37 41.3975 106.227C41.4931 105.965 41.5804 105.703 41.6594 105.441C41.7674 104.966 41.863 104.513 41.942 104.084C44.403 105.923 50.3975 107.55 54.3675 106.027Z" fill="#1A1313"/>
<path d="M48.5018 96.4533C48.5558 96.6697 48.6015 96.8944 48.6389 97.1274C48.269 96.9734 47.9031 96.7695 47.5581 96.5116C47.8491 96.5324 48.165 96.5157 48.5018 96.4533Z" fill="#332525"/>
<path d="M45.1802 100.893C45.6333 101.23 47.0217 101.159 48.6721 100.776C48.5765 101.451 48.4351 102.141 48.2522 102.819C47.1839 102.441 46.128 101.833 45.1802 100.893Z" fill="#332525"/>
<path d="M41.9459 104.088C43.0683 104.925 44.9224 105.72 46.9926 106.19C46.3316 107.529 45.5376 108.649 44.7062 109.314C43.2887 108.391 42.1205 107.222 41.4014 106.231C41.497 105.969 41.5843 105.707 41.6633 105.445C41.7672 104.966 41.8628 104.517 41.9459 104.088Z" fill="#332525"/>
<path d="M51.7775 116.309C50.177 119.509 48.3437 122.209 47.8491 123.095C48.5599 125.746 47.3959 129.956 42.3534 128.413C37.3151 126.873 32.838 121.705 33.2578 117.882C33.2079 117.183 36.8454 113.979 39.4643 109.98C40.832 112.531 46.6227 117.694 51.7775 116.309Z" fill="white"/>
<path d="M50.6091 90.8154C51.4072 92.0345 51.9393 93.3368 52.3176 94.6808C52.6627 95.9998 52.8664 97.4311 53.0784 98.8333C53.2737 100.244 53.4234 101.663 53.519 103.086C53.6188 104.505 53.6853 105.928 53.652 107.334C53.6354 108.037 53.5938 108.732 53.5065 109.406L53.5024 109.456V109.46L53.4941 109.493L53.4691 109.627L53.4192 109.876L53.3028 110.376C53.2197 110.708 53.1241 111.041 53.0202 111.374C52.6045 112.701 52.0599 114.004 51.4613 115.281C50.8502 116.554 50.1892 117.815 49.4867 119.055C48.7841 120.307 48.0359 121.481 47.3001 122.791L47.1754 123.016L47.2419 123.257C47.458 124.131 47.4456 125.105 47.1837 125.95C46.9301 126.803 46.3938 127.497 45.6456 127.809C45.6331 127.814 45.6206 127.818 45.6081 127.826C45.6123 127.764 45.6165 127.701 45.6165 127.639C45.6123 127.202 45.5208 126.79 45.3795 126.411C45.0885 125.654 44.5814 125.005 43.9329 124.622C44.4483 125.167 44.7144 125.875 44.7726 126.557C44.8225 127.115 44.7061 127.672 44.4483 128.051C43.9952 128.059 43.5255 127.997 43.0599 127.88C42.137 127.651 41.2391 127.273 40.3827 126.811C38.67 125.887 37.1236 124.601 35.9139 123.079C35.3111 122.317 34.7957 121.489 34.4298 120.615C34.0682 119.746 33.8645 118.822 33.9601 117.961V117.952C33.9726 117.927 33.9933 117.89 34.0224 117.848C34.0848 117.753 34.1638 117.644 34.2469 117.536C34.4174 117.316 34.6086 117.095 34.7998 116.871L35.9804 115.514C36.7744 114.603 37.5643 113.671 38.3125 112.701C39.8007 110.762 41.185 108.678 42.0206 106.294C42.0746 106.144 42.1204 105.994 42.1661 105.844L42.2326 105.616L42.2908 105.358L42.4737 104.455C42.586 103.851 42.6857 103.244 42.7647 102.636C42.9227 101.417 42.9934 100.181 42.985 98.954C42.985 97.7265 42.8728 96.5324 42.8811 95.3673C42.8894 94.1981 43.0058 93.0331 43.3426 91.8556C42.5901 92.8334 42.2077 94.0775 42.0289 95.3049C41.8626 96.549 41.9042 97.764 41.8876 98.9498C41.8751 100.136 41.7878 101.309 41.6174 102.478C41.5342 103.061 41.4303 103.643 41.3098 104.226L41.1185 105.091L41.077 105.274L41.0104 105.478C40.9647 105.615 40.919 105.749 40.8691 105.886C40.0709 108.054 38.7282 110.026 37.2608 111.878C36.5208 112.805 35.7352 113.7 34.937 114.595C34.5379 115.044 34.1264 115.485 33.7273 115.947C33.5278 116.18 33.3241 116.413 33.1245 116.671C33.0248 116.8 32.925 116.933 32.8211 117.091C32.7712 117.17 32.7171 117.258 32.6672 117.37C32.6215 117.486 32.5384 117.603 32.5467 117.936V117.807C32.422 118.997 32.6922 120.141 33.1121 121.16C33.5402 122.184 34.1222 123.112 34.7873 123.961C36.1301 125.65 37.8012 127.048 39.6968 128.076C40.6446 128.579 41.6589 128.991 42.7315 129.245C43.804 129.49 45.0345 129.569 46.186 129.062C46.7555 128.812 47.2626 128.409 47.6409 127.926C48.0234 127.443 48.2811 126.894 48.4432 126.332C48.7301 125.296 48.7384 124.235 48.5056 123.208C48.8299 122.692 49.1998 122.151 49.5366 121.61C49.9232 120.998 50.3098 120.382 50.6839 119.758C51.4322 118.514 52.1472 117.241 52.7832 115.918C53.4234 114.599 53.9971 113.238 54.4294 111.811C54.5375 111.453 54.6373 111.095 54.7287 110.729L54.8534 110.176L54.9116 109.897L54.9366 109.764L54.9532 109.656L54.9615 109.585C55.053 108.828 55.0779 108.087 55.0862 107.351C55.0904 104.405 54.7661 101.513 54.2881 98.6419C54.1675 97.9221 54.0303 97.2064 53.8599 96.4949C53.6936 95.7792 53.4941 95.0761 53.2072 94.3604C52.6211 93.0081 51.7938 91.6975 50.6091 90.8154ZM33.9518 117.969C33.9476 117.982 33.9476 117.977 33.9518 117.969Z" fill="black"/>
<path d="M102.905 66.4203C105.17 64.8683 108.317 61.523 108.259 59.4343C108.213 57.8823 107.186 57.4953 105.025 55.8726C102.41 53.9087 100.298 51.1791 98.8016 49.4108C96.9725 47.9961 94.8774 49.4441 93.1522 52.5897C91.0321 56.4634 90.1508 64.0195 95.1019 68.1013C97.0474 69.0583 99.8159 68.5382 102.905 66.4203Z" fill="#E6E6E6"/>
<path d="M108.263 59.4343C108.172 59.143 108.06 58.8767 107.906 58.6562C107.752 58.4357 107.565 58.2609 107.357 58.0986C106.929 57.7866 106.426 57.512 105.927 57.2124C105.428 56.9086 104.93 56.5882 104.447 56.2346C103.957 55.8684 103.495 55.4898 103.046 55.0903C102.148 54.2956 101.313 53.4385 100.515 52.5647C99.7124 51.6909 98.9558 50.7839 98.2117 49.9059L98.3281 50.0183C97.7046 49.5398 97.0727 49.5314 96.3702 49.9517C95.6801 50.3719 95.0524 51.0918 94.5161 51.8615C94.2459 52.2526 94.0006 52.6646 93.7678 53.0848C93.5517 53.4926 93.3521 53.9295 93.1775 54.3747C92.8367 55.2693 92.5748 56.2013 92.396 57.15C92.0468 59.0473 92.0468 61.0237 92.5083 62.8836C92.9364 64.756 93.8011 66.4952 95.0981 68.0971C93.2524 67.136 91.9138 65.2511 91.2944 63.2165C90.6875 61.1652 90.6376 58.9974 90.9452 56.9086C91.1032 55.8601 91.3568 54.8282 91.735 53.8254C91.9221 53.322 92.1341 52.8352 92.3877 52.3483C92.633 51.8782 92.9032 51.4205 93.2025 50.9711C93.8053 50.0848 94.5078 49.2027 95.5637 48.5786C96.0875 48.2749 96.7401 48.046 97.4344 48.0793C98.1327 48.1043 98.7812 48.408 99.2676 48.7908L99.3383 48.8449L99.3882 48.9032C100.149 49.8102 100.864 50.7173 101.608 51.5952C102.352 52.4732 103.125 53.3178 103.948 54.0959C104.36 54.487 104.788 54.8615 105.221 55.211C105.665 55.5688 106.118 55.9267 106.567 56.3011C106.792 56.4925 107.016 56.6839 107.237 56.9003C107.457 57.1125 107.677 57.3372 107.864 57.6035C108.056 57.8656 108.214 58.1735 108.28 58.4981C108.359 58.8226 108.334 59.143 108.263 59.4343Z" fill="black"/>
<path d="M110.167 56.6548C110.234 55.6604 109.544 54.1333 108.301 53.168C112.662 54.0668 113.838 56.4925 114.894 59.0182C115.434 56.9752 115.085 54.4121 113.526 52.9184C116.012 53.168 119.866 55.7977 119.591 60.9987C121.117 59.1971 121.391 56.4218 121.238 54.6618C124.925 57.7408 125.27 62.1763 123.229 65.2428C125.22 68.1055 125.715 73.4605 125.095 75.9487C123.852 77.3176 121.612 80.9292 122.734 82.4229C123.603 83.5422 124.85 83.4174 125.594 83.2967C126.218 82.6726 130.695 82.6726 130.82 84.7905C130.944 86.9083 129.826 89.022 128.704 89.5213C128.205 91.8847 124.58 94.015 123.229 93.8777C121.362 93.5033 118.378 91.8847 117.509 88.3979C114.15 90.1413 114.399 95.8666 117.01 98.1093C117.609 99.1703 114.769 101.596 112.034 102.216C108.816 101.696 105.566 99.3534 103.824 96.1163C99.5171 95.4256 94.7531 95.8708 91.1365 96.2411C90.9286 95.4256 91.1365 93.004 91.8806 91.8847C88.8958 92.0095 84.6598 90.4742 82.9429 88.348C84.9342 87.7238 87.154 86.6545 88.0229 85.9056C85.2875 83.9125 78.7984 79.0402 78.3203 70.4688C79.6048 71.8627 81.1222 72.6699 82.7974 73.706C80.4321 70.0943 79.8127 67.3565 79.9374 63.6201C83.2423 63.7699 88.5425 61.9973 94.8654 58.2651C98.9434 55.8684 105.316 54.2873 110.167 56.6548Z" fill="#E6E6E6"/>
<path d="M126.717 85.6476C125.727 84.6781 125.569 84.3411 125.59 83.2967C126.214 82.6726 130.691 82.6726 130.815 84.7904C130.94 86.9042 129.822 89.022 128.7 89.5213C127.531 89.0553 128.197 87.262 127.153 86.0678C126.991 85.9139 126.846 85.7766 126.717 85.6476Z" fill="black"/>
<path d="M127.153 86.0678C128.171 87.1871 127.481 88.8764 128.699 89.5213C128.204 91.8847 124.579 94.015 123.228 93.8777C121.362 93.5033 118.377 91.8847 117.504 88.3979C114.149 90.1413 114.395 95.8708 117.009 98.1093C117.608 99.1703 114.769 101.596 112.033 102.22C108.816 101.7 105.565 99.3534 103.823 96.1163C103.387 96.0455 102.942 95.9873 102.497 95.9415C101.836 90.9652 106.068 88.3355 108.018 87.9319C106.5 87.5865 104.704 87.1746 102.909 87.728C106.775 82.9555 112.715 83.925 114.099 84.0623C116.793 83.4382 121.212 84.6157 122.734 85.4437C123.76 85.3896 125.56 85.3355 126.716 85.6476C126.845 85.7766 126.99 85.9139 127.153 86.0678Z" fill="#F5F5F5"/>
<path d="M94.869 58.2692C97.9535 56.4468 102.356 55.1028 106.417 55.5813C102.194 55.9267 96.0247 58.8226 94.1623 65.6422C92.3249 72.3703 94.0917 75.595 96.2409 77.9875C94.2995 78.5409 92.6367 78.8196 89.1032 78.2995C92.3249 82.6684 96.5859 83.2925 99.4293 83.95C97.4173 85.685 94.0584 87.0373 92.5328 87.4534C94.6113 89.1177 96.5859 89.8459 98.8723 90.1912C98.0408 91.4395 97.0016 92.0303 96.0663 92.7585C97.3965 93.8861 99.0261 94.9096 101.258 95.8333C97.7 95.6003 94.0459 95.9457 91.136 96.2411C90.9281 95.4297 91.136 93.004 91.8843 91.8847C88.8995 92.0095 84.6635 90.4742 82.9466 88.348C84.9378 87.728 87.1577 86.6545 88.0265 85.9097C85.2912 83.9167 78.802 79.0443 78.3281 70.473C79.6127 71.8627 81.1258 72.6741 82.8053 73.7101C80.4399 70.0985 79.8205 67.3607 79.9452 63.6242C83.2501 63.774 88.5503 62.0015 94.869 58.2692Z" fill="#D4D4D4"/>
<path d="M131.443 84.9569L131.435 84.778C131.426 84.5949 131.397 84.4326 131.343 84.262C131.239 83.925 131.036 83.6254 130.807 83.4007C130.574 83.1761 130.321 83.0096 130.063 82.8765C129.547 82.6185 129.024 82.4853 128.504 82.4021C127.984 82.3231 127.465 82.294 126.937 82.3231C126.675 82.3397 126.409 82.3647 126.13 82.4188C125.993 82.4479 125.852 82.4812 125.698 82.5353C125.59 82.581 125.482 82.6185 125.349 82.7017C124.617 82.814 123.973 82.735 123.52 82.3439C123.457 82.2939 123.399 82.2357 123.345 82.1774C123.32 82.1525 123.299 82.1317 123.262 82.0817L123.237 82.0485L123.233 82.0401L123.208 82.0027C123.146 81.907 123.1 81.7822 123.075 81.6365C123.025 81.3411 123.071 80.9666 123.162 80.5963C123.353 79.8474 123.715 79.0901 124.127 78.3744C124.542 77.6629 125.029 76.9597 125.557 76.3647L125.665 76.2441L125.698 76.0984C125.935 75.104 125.977 74.1387 125.964 73.1775C125.947 72.2164 125.86 71.2677 125.706 70.3232C125.553 69.3787 125.332 68.4467 125.02 67.5313C124.75 66.7407 124.409 65.9668 123.956 65.2345C124.983 63.5161 125.336 61.4107 124.921 59.4551C124.705 58.4107 124.289 57.4121 123.719 56.5258C123.15 55.6354 122.435 54.849 121.637 54.1833L120.502 53.2346C120.502 53.2346 120.938 55.6354 120.552 57.8906C120.431 58.5813 120.223 59.2595 119.916 59.8878C119.895 59.3053 119.828 58.7228 119.691 58.1486C119.467 57.2041 119.063 56.2887 118.502 55.4815C117.941 54.6701 117.243 53.9378 116.399 53.4135C114.703 52.365 111.888 52.0737 111.888 52.0737C111.888 52.0737 113.975 53.6132 114.511 55.8809C114.64 56.426 114.694 56.996 114.686 57.5661C114.557 57.279 114.42 56.9918 114.266 56.7131C113.88 56.0057 113.389 55.3275 112.79 54.7492C110.807 52.8352 107.324 52.7311 107.324 52.7311C107.324 52.7311 109.244 53.9295 109.723 56.064C108.671 55.5772 107.54 55.2526 106.389 55.0987C105.021 54.9031 103.628 54.9281 102.265 55.1028C100.901 55.2734 99.5585 55.5938 98.2615 56.0432C96.9645 56.4926 95.7049 57.0543 94.516 57.7491C92.2297 59.0723 89.8768 60.2831 87.4449 61.265C86.2269 61.7519 84.9881 62.1763 83.7368 62.505C82.4855 62.8254 81.2052 63.05 79.9664 63.0084L79.3262 62.9876L79.3137 63.6118V63.6159C79.2888 65.43 79.4467 67.2983 80.0079 69.0625C80.3696 70.2275 80.8851 71.3218 81.4837 72.3579C81.2259 72.1831 80.9682 72.0083 80.7229 71.8253C79.9955 71.2927 79.3345 70.7143 78.7774 70.0486L77.6509 68.7088L77.6966 70.5104V70.5188C77.813 72.1456 78.1539 73.7559 78.7109 75.2829C79.2638 76.81 80.0287 78.2538 80.9516 79.5728C81.8744 80.8959 82.947 82.0984 84.1151 83.1885C85.1751 84.1788 86.3183 85.0692 87.4906 85.9014C87.2204 86.0678 86.9377 86.226 86.6467 86.3674C86.231 86.5671 85.807 86.7502 85.3788 86.9166C84.5183 87.2495 83.637 87.5366 82.7516 87.7613L81.8703 87.9818L82.4564 88.7474L82.4647 88.7599C83.08 89.4589 83.8033 89.9749 84.5516 90.4034C85.304 90.832 86.0897 91.169 86.892 91.4395C87.6943 91.7099 88.5174 91.918 89.353 92.0511C90.0098 92.1551 90.6708 92.2134 91.34 92.2051C91.232 92.4048 91.1405 92.6087 91.0615 92.8167C90.9202 93.187 90.8079 93.5657 90.7206 93.9485C90.6333 94.3313 90.5627 94.7182 90.5211 95.1135C90.4878 95.5213 90.4421 95.8958 90.5294 96.4034L90.6084 96.886L91.1945 96.8694H91.207C93.3105 96.653 95.4056 96.4658 97.4966 96.4075C99.4879 96.3535 101.479 96.4158 103.429 96.6988C104.298 98.2175 105.478 99.5448 106.867 100.598C108.342 101.708 110.063 102.536 111.926 102.84L112.046 102.861L112.163 102.832C113.389 102.545 114.503 102.004 115.513 101.309C116.016 100.955 116.498 100.56 116.931 100.073C117.147 99.8278 117.351 99.5573 117.513 99.2161C117.592 99.0414 117.667 98.85 117.696 98.6086C117.725 98.3756 117.692 98.0719 117.546 97.8139L117.492 97.7224L117.409 97.6475L117.401 97.6391C116.789 97.1315 116.32 96.4075 116.008 95.617C115.696 94.8223 115.534 93.9568 115.53 93.0955C115.526 92.2342 115.68 91.3646 116.033 90.599C116.311 89.9915 116.727 89.4589 117.251 89.0636C117.413 89.5837 117.629 90.0914 117.904 90.5699C118.269 91.2106 118.731 91.7973 119.259 92.3091C119.791 92.8209 120.389 93.2578 121.038 93.6114C121.686 93.9651 122.372 94.2439 123.117 94.4062L123.141 94.4103H123.166C123.607 94.4478 123.948 94.3604 124.28 94.2689C124.609 94.1732 124.921 94.0483 125.22 93.911C125.814 93.6323 126.371 93.2911 126.895 92.9C127.419 92.5047 127.91 92.0595 128.334 91.5352C128.699 91.0817 129.02 90.5532 129.211 89.9457C129.668 89.667 129.988 89.3008 130.258 88.9305C130.574 88.4853 130.811 88.0068 130.998 87.5117C131.181 87.0165 131.31 86.5006 131.381 85.9763C131.414 85.7142 131.435 85.4479 131.435 85.1816L131.443 84.9569ZM130.154 85.8015C130.1 86.2301 129.992 86.6545 129.843 87.0623C129.693 87.47 129.493 87.857 129.256 88.1982C129.02 88.5352 128.72 88.8306 128.454 88.9513L128.45 88.9555L128.147 89.1219L128.093 89.3965C128.001 89.8667 127.743 90.3493 127.411 90.7862C127.074 91.2231 126.658 91.6267 126.209 91.9846C125.76 92.3424 125.266 92.6586 124.759 92.9166C124.505 93.0456 124.243 93.1538 123.985 93.237C123.74 93.316 123.478 93.3701 123.304 93.3618C122.697 93.2411 122.09 93.0206 121.52 92.7293C120.942 92.4298 120.398 92.0553 119.916 91.6184C118.951 90.7405 118.249 89.5879 117.912 88.3147V88.3064L117.787 87.8112L117.322 88.0401C116.399 88.4894 115.663 89.2842 115.21 90.1871C114.753 91.09 114.541 92.0886 114.507 93.0789C114.478 94.0691 114.624 95.0677 114.952 96.0123C115.264 96.9027 115.75 97.764 116.469 98.4588C116.469 98.463 116.469 98.463 116.469 98.4671C116.465 98.5129 116.44 98.5961 116.399 98.6835C116.316 98.8624 116.17 99.0621 116.008 99.2494C115.675 99.628 115.26 99.9776 114.819 100.285C113.967 100.876 113.002 101.338 112.017 101.584C110.442 101.301 108.933 100.581 107.636 99.6031C106.301 98.592 105.175 97.298 104.381 95.8292L104.235 95.5546L103.932 95.5046C101.783 95.1634 99.6209 95.0969 97.48 95.1551C95.522 95.2092 93.5807 95.3756 91.6477 95.567C91.631 95.4297 91.6227 95.2841 91.6144 95.1468C91.6019 94.7973 91.6102 94.4395 91.6352 94.0816C91.6975 93.3743 91.8181 92.6461 92.1257 92.0553L92.1299 92.047L92.4375 91.5934H91.8763C91.0823 91.5976 90.2841 91.4853 89.5068 91.3063C88.7253 91.1274 87.9604 90.8778 87.2246 90.574C86.4888 90.2661 85.7779 89.9041 85.1253 89.4714C84.722 89.2051 84.3437 88.9055 84.007 88.581C84.6098 88.323 85.2001 88.0526 85.7779 87.7488C86.2019 87.5241 86.6218 87.2828 87.0333 87.0248C87.4407 86.7627 87.844 86.4922 88.2181 86.1427L88.2264 86.1344L88.5174 85.9014L88.2056 85.6684C86.9502 84.728 85.7488 83.7378 84.6513 82.6393C83.5539 81.5408 82.5604 80.3467 81.7248 79.0568C80.8892 77.767 80.2116 76.3772 79.7419 74.9293C79.4259 73.9556 79.2098 72.9487 79.0809 71.9334C79.4343 72.1956 79.8001 72.4411 80.1659 72.6657C80.9765 73.1609 81.7955 73.5895 82.5936 74.0388L82.5978 74.043L84.0403 74.975L83.1257 73.5021C82.1987 72.0125 81.413 70.4439 80.9807 68.7837C80.5899 67.3191 80.486 65.7962 80.5359 64.2608C81.7456 64.2442 82.9137 64.032 84.0527 63.7615C85.3871 63.437 86.6758 62.9918 87.9354 62.4842C90.4504 61.4731 92.8532 60.2248 95.1604 58.8393C97.3761 57.5161 99.8745 56.6423 102.423 56.2221C103.699 56.0265 104.996 55.96 106.28 56.0598C107.561 56.1722 108.829 56.4551 110.018 56.9627L110.454 57.15L110.512 56.6673C110.558 56.2845 110.512 55.8851 110.425 55.5231C110.338 55.1569 110.209 54.8032 110.043 54.4704C110.001 54.3872 109.955 54.3081 109.91 54.229C110.72 54.5161 111.477 54.9198 112.121 55.4731C112.666 55.9392 113.127 56.5092 113.518 57.1375C113.909 57.7658 114.233 58.4565 114.549 59.1596L115.006 60.1791L115.243 59.1139C115.571 58.0113 115.659 56.8421 115.48 55.6853C115.384 55.0862 115.21 54.4787 114.94 53.9087C115.239 54.0293 115.534 54.1666 115.817 54.3289C116.557 54.7658 117.218 55.34 117.754 56.0265C118.29 56.7089 118.693 57.4995 118.947 58.3441C119.201 59.1888 119.305 60.0834 119.284 60.9821L119.205 61.8642L119.82 61.1943C120.626 60.3205 121.138 59.2221 121.454 58.0945C121.637 57.4329 121.749 56.7588 121.811 56.0723C122.747 57.1125 123.428 58.3566 123.703 59.7047C124.081 61.4814 123.719 63.3912 122.709 64.8933L122.472 65.2428L122.713 65.5923C123.191 66.2872 123.557 67.0902 123.84 67.9266C124.123 68.7629 124.33 69.6367 124.476 70.5229C124.621 71.405 124.705 72.3038 124.717 73.1942C124.729 74.0347 124.684 74.8918 124.509 75.6657C123.94 76.3231 123.47 77.0138 123.042 77.7462C122.593 78.5326 122.185 79.3564 121.944 80.2926C121.832 80.7628 121.749 81.2704 121.836 81.8363C121.882 82.115 121.977 82.4146 122.152 82.6809L122.219 82.7808L122.289 82.8682C122.318 82.9056 122.372 82.9638 122.418 83.0179C122.514 83.122 122.609 83.2135 122.717 83.3009C123.137 83.6545 123.678 83.8792 124.202 83.9541C124.725 84.0332 125.237 83.9833 125.69 83.9084L125.848 83.8834L126.031 83.7336C125.977 83.7794 126.043 83.7253 126.114 83.7086C126.184 83.6837 126.28 83.6587 126.376 83.6379C126.571 83.6004 126.783 83.5755 126.999 83.563C127.432 83.5422 127.88 83.563 128.309 83.6296C128.737 83.6962 129.157 83.8085 129.498 83.9833C129.847 84.158 130.084 84.391 130.154 84.6282C130.175 84.6864 130.188 84.7613 130.188 84.8196L130.196 84.9985V85.1483C130.196 85.3688 130.183 85.5893 130.154 85.8015Z" fill="black"/>
<path d="M111.518 72.9612C113.701 72.025 116.872 70.6228 120.314 75.0041C120.871 74.8336 121.703 73.8433 121.765 72.0999C121.495 72.8031 121.287 73.1692 121.004 73.4147C120.036 71.2719 117.342 69.8197 115.891 69.8905C114.511 70.1651 112.815 71.2428 111.518 72.9612Z" fill="black"/>
<path d="M120.315 67.6769C117.929 66.7199 113.335 66.3038 111.61 66.7074C110.022 67.8142 108.434 70.8558 108.089 72.0333C105.669 71.896 100.835 72.8613 98.8311 73.6228C102.007 74.0014 105.74 75.2122 106.775 75.9736C103.321 75.7656 93.8509 76.6019 91.5105 86.8293C90.8371 84.0914 90.6292 80.4008 91.0283 77.8418C92.8948 76.7351 98.9018 75.3537 100.768 75.2829C98.8352 74.4549 94.7572 74.4549 93.032 74.6588C95.7964 71.8253 101.737 70.3024 106.156 70.5104C106.946 67.344 109.54 64.8392 110.508 64.5646C114.117 64.4647 117.509 65.4384 120.315 67.6769Z" fill="#332525"/>
<path d="M115.201 62.4217C112.088 62.0389 108.671 62.5965 107.569 62.8711C106.147 63.7033 104.568 66.4994 104.015 67.3981C102.838 67.4688 99.733 67.8808 98.2822 68.6422C99.2508 67.1193 101.047 66.7074 101.6 66.5659C102.273 64.3233 103.948 61.8642 104.846 61.2401C108.434 60.6908 111.955 61.1069 115.201 62.4217Z" fill="#332525"/>
<path d="M103.932 57.7408C103.109 58.4065 102.365 59.5965 101.874 61.2484C103.055 60.1666 106.272 58.444 111.198 59.143C109.128 58.1569 107.478 57.6118 103.932 57.7408Z" fill="#332525"/>
<path d="M118.448 84.1996C119.309 82.115 119.725 78.3911 119.155 76.5478C118.141 74.5465 115.243 74.1262 113.335 77.2177C111.972 79.4271 112.504 83.0595 113.265 83.9957C114.512 83.717 116.349 83.5172 118.448 84.1996Z" fill="white"/>
<path d="M119.155 76.552C119.704 78.3079 119.35 81.778 118.569 83.9042C118.369 83.9874 118.166 84.0373 117.954 84.054C117.584 83.9541 117.226 83.8834 116.877 83.8335C115.767 83.2551 115.073 81.6365 115.26 79.8224C115.48 77.638 116.889 75.9903 118.403 76.1442C118.619 76.165 118.822 76.2233 119.018 76.3107C119.068 76.3897 119.113 76.4688 119.155 76.552Z" fill="black"/>
<path d="M119.354 76.4896L119.342 76.4563C119.101 75.8655 118.672 75.3245 118.095 74.9667C117.521 74.6005 116.806 74.43 116.099 74.4965C115.392 74.5589 114.723 74.8502 114.166 75.258C113.609 75.6657 113.16 76.1775 112.794 76.7267C112.025 77.8959 111.784 79.2607 111.805 80.5381C111.813 81.183 111.896 81.8196 112.054 82.4479C112.137 82.76 112.233 83.072 112.366 83.3758C112.474 83.6171 112.595 83.8584 112.778 84.0956C113.052 83.9541 113.335 83.8335 113.63 83.7503L113.617 83.7253C113.434 83.3467 113.314 82.76 113.256 82.2232C113.189 81.674 113.181 81.1123 113.206 80.5589C113.239 80.0055 113.301 79.4604 113.439 78.9445C113.505 78.6865 113.576 78.4327 113.676 78.1955C113.725 78.0749 113.78 77.9542 113.829 77.8585C113.85 77.8127 113.892 77.742 113.929 77.6796L114.025 77.5131C114.586 76.6061 115.322 75.8197 116.282 75.5409C116.756 75.4036 117.284 75.4119 117.77 75.6075C118.253 75.7989 118.681 76.1692 118.976 76.6394C119.279 77.4383 119.375 78.3453 119.421 79.2316C119.5 78.3328 119.554 77.4174 119.354 76.4896Z" fill="black"/>
<path d="M123.736 88.3813C123.736 88.6184 123.499 88.8098 123.208 88.8098C122.917 88.8098 122.68 88.6184 122.68 88.3813C122.68 88.1441 122.917 87.9527 123.208 87.9527C123.499 87.9527 123.736 88.1441 123.736 88.3813Z" fill="#B7B7B7"/>
<path d="M124.322 89.5713C124.322 89.7336 124.172 89.8625 123.989 89.8625C123.806 89.8625 123.657 89.7336 123.657 89.5713C123.657 89.409 123.806 89.28 123.989 89.28C124.172 89.28 124.322 89.409 124.322 89.5713Z" fill="#B7B7B7"/>
<path d="M125.062 88.5935C125.062 88.7765 124.879 88.9263 124.651 88.9263C124.426 88.9263 124.239 88.7765 124.239 88.5935C124.239 88.4104 124.422 88.2606 124.651 88.2606C124.879 88.2648 125.062 88.4104 125.062 88.5935Z" fill="#B7B7B7"/>
<path d="M129.144 84.8487C129.086 85.1566 128.566 85.3147 127.984 85.2024C127.402 85.09 126.978 84.753 127.037 84.4451C127.095 84.1372 127.614 83.9791 128.196 84.0914C128.778 84.1996 129.202 84.5408 129.144 84.8487Z" fill="#F5F5F5"/>
<path d="M118.423 79.1151C117.954 79.9264 117.126 80.33 116.578 80.0096C116.033 79.6934 115.971 78.7739 116.44 77.9625C116.914 77.1512 117.737 76.7476 118.286 77.0638C118.835 77.3842 118.897 78.3037 118.423 79.1151Z" fill="white"/>
<path d="M111.518 84.8196C113.339 84.2995 116.714 83.9375 120.107 85.1691C118.011 83.4673 115.912 83.1303 114.22 83.3633C113.131 83.5131 112.038 84.0914 111.518 84.8196Z" fill="#E6E6E6"/>
<path d="M96.2409 77.9875C94.6696 78.4368 93.2811 78.7031 90.9365 78.5117C90.9615 78.2787 90.9906 78.0541 91.0238 77.8377C91.8178 77.3717 93.3559 76.8516 95.0063 76.4064C95.3846 76.9847 95.8044 77.5007 96.2409 77.9875Z" fill="#1A1313"/>
<path d="M93.8421 73.9306C93.9086 74.1512 93.9835 74.3675 94.0625 74.5756C93.6675 74.5964 93.3142 74.6255 93.0273 74.6588C93.2726 74.405 93.547 74.1637 93.8421 73.9306Z" fill="#1A1313"/>
<path d="M93.4598 82.0651C92.6201 83.3674 91.9425 84.9361 91.5101 86.8293C91.0279 84.8653 90.7826 82.4063 90.8325 80.2302C91.6847 81.0082 92.5702 81.5991 93.4598 82.0651Z" fill="#1A1313"/>
<path d="M95.8633 67.6644C97.9917 65.7712 100.852 61.885 100.615 59.6756C100.436 58.0362 99.3802 57.7408 97.0855 56.2595C94.3086 54.4662 91.9723 51.8074 90.3261 50.0973C88.3806 48.8033 86.4102 50.5633 84.9593 54.0834C83.1718 58.419 82.9349 66.5202 88.2226 70.2982C90.2388 71.1013 92.9575 70.2483 95.8633 67.6644Z" fill="#E6E6E6"/>
<path d="M89.4904 53.8754C91.3444 57.9488 94.0382 60.1042 96.0544 61.9058C96.362 62.6506 93.5144 67.4522 90.2802 67.5354C88.1851 65.6131 87.3786 63.462 87.1999 60.4204C87.0169 57.3871 88.368 53.4302 89.4904 53.8754Z" fill="#DAB5B5"/>
<path d="M100.614 59.6756C100.427 59.0848 100.111 58.6146 99.6541 58.3192C99.2093 58.0071 98.6689 57.7699 98.1451 57.4995C97.6047 57.2415 97.0809 56.9461 96.5488 56.6465C96.0126 56.3261 95.5096 55.9766 95.0232 55.6021C93.086 54.1001 91.4024 52.3317 89.7604 50.6424L89.8934 50.7506C89.5567 50.5301 89.2282 50.4344 88.9082 50.4718C88.5881 50.5051 88.2389 50.6757 87.9063 50.9503C87.2412 51.5037 86.6966 52.3525 86.231 53.2263C85.9982 53.6673 85.7862 54.1292 85.595 54.5994C85.4162 55.0487 85.2541 55.5356 85.1253 56.0182C84.8634 56.9919 84.6846 57.9946 84.5848 59.0057C84.3894 61.032 84.5557 63.0958 85.1336 65.0306C85.7031 66.9696 86.7049 68.7712 88.2222 70.2941C87.2495 69.8322 86.3848 69.1249 85.6698 68.2802C84.9631 67.4314 84.4061 66.4495 84.0153 65.4092C83.2338 63.3247 83.0259 61.082 83.1423 58.8892C83.2047 57.7907 83.3668 56.6923 83.6412 55.6188C83.7784 55.0779 83.9405 54.5536 84.1442 54.0127C84.3396 53.5009 84.5641 52.9891 84.8135 52.4898C85.3165 51.4912 85.9317 50.5093 86.9003 49.7021C87.3867 49.3109 88.0102 48.9614 88.7502 48.8865C89.4901 48.8033 90.2301 49.0654 90.7622 49.4358L90.8412 49.4899L90.8952 49.544C91.7266 50.4219 92.504 51.304 93.3229 52.1445C94.1377 52.985 94.9816 53.7963 95.8754 54.5328C96.3202 54.9031 96.7733 55.261 97.2306 55.6021C97.692 55.96 98.1825 56.2803 98.6606 56.6465C99.1428 57.0043 99.6417 57.3705 100.07 57.8698C100.278 58.1236 100.452 58.419 100.54 58.7353C100.635 59.0556 100.648 59.3719 100.614 59.6756Z" fill="black"/>
<path d="M87.1951 60.4204C87.0247 59.1888 87.0746 57.9197 87.2824 56.6673C87.3905 56.039 87.536 55.4149 87.7771 54.7949C87.9018 54.4829 88.0432 54.1708 88.276 53.8588C88.3965 53.7048 88.5337 53.5425 88.7665 53.4011C88.8829 53.3303 89.0242 53.2721 89.1947 53.2471C89.3651 53.2221 89.5563 53.2429 89.7143 53.297H89.7184L89.9554 53.3844L90.0593 53.6174C90.7369 55.1653 91.6348 56.6091 92.7198 57.9114C93.8007 59.2221 95.081 60.3663 96.378 61.5438L96.4653 61.6229L96.5028 61.7186V61.7227C96.5859 61.9849 96.5485 62.1139 96.5318 62.2387C96.5069 62.3635 96.4778 62.4675 96.4404 62.5674C96.3697 62.763 96.2866 62.9419 96.1951 63.1125C96.0164 63.4537 95.8127 63.7657 95.5965 64.0695C95.1642 64.6728 94.6778 65.2262 94.1415 65.7296C93.6053 66.2289 93.015 66.6741 92.3623 67.0112C91.7138 67.344 90.9947 67.5604 90.2755 67.5396C90.9947 67.4814 91.6598 67.1901 92.2418 66.8031C92.8238 66.412 93.3392 65.9252 93.7923 65.3968C94.2455 64.8642 94.6446 64.2858 94.9813 63.6825C95.1476 63.3788 95.3014 63.0709 95.4219 62.763C95.4801 62.609 95.5342 62.4551 95.5674 62.3094C95.584 62.2387 95.5965 62.168 95.5965 62.1139C95.6048 62.0639 95.5799 62.0098 95.6007 62.1014L95.7254 62.2761C94.4159 61.1485 93.0482 59.9918 91.8718 58.6396C90.687 57.2956 89.6852 55.7727 88.9203 54.1417L89.257 54.4621C89.2986 54.4704 89.3651 54.4329 89.3152 54.4371C89.2736 54.4413 89.1863 54.4995 89.1032 54.5744C88.9328 54.7325 88.7665 54.9655 88.621 55.2069C88.3258 55.6978 88.0889 56.2554 87.8893 56.8254C87.4944 57.9655 87.2325 59.1805 87.1951 60.4204Z" fill="#D4D4D4"/>
</svg>
