<svg width="135" height="137" viewBox="0 0 135 137" fill="none" xmlns="http://www.w3.org/2000/svg">
<path d="M50.4812 110.536C53.5983 110.817 55.6792 112.226 55.8541 115.132C56.0161 117.838 52.9074 119.973 50.302 120.848C47.6965 121.718 41.4964 123.029 38.102 122.99C34.7247 122.802 32.4774 121.821 26.58 120.293C22.9383 121.317 19.318 119.738 20.6186 114.484C21.9191 109.23 27.1897 105.354 30.3538 105.952C32.4859 106.63 34.7076 109.362 39.7992 110.753C43.5517 110.997 47.671 110.28 50.4812 110.536Z" fill="#E6E6E6"/>
<path d="M53.0816 119.482C52.3822 119.951 51.6147 120.344 50.8684 120.638C50.0795 119.196 49.167 116.964 50.2672 114.893C50.4378 116.272 51.7511 118.381 53.0816 119.482Z" fill="#1A1313"/>
<path d="M49.6025 121.065C48.5492 121.377 47.1506 121.723 45.641 122.03C44.7412 120.002 43.9737 116.635 45.948 113.566C45.5003 114.535 47.3297 118.795 49.6025 121.065Z" fill="#1A1313"/>
<path d="M42.7753 110.779C41.432 112.973 40.8692 118.987 42.9075 122.533C41.1335 122.815 39.4108 122.999 38.1059 122.986C37.01 122.922 36.0378 122.781 35.0229 122.563C33.121 118.765 34.4259 115.568 36.5964 113.673C35.8117 116.374 36.5451 118.884 38.0462 120.045C36.8394 116.558 39.2104 112.388 40.8777 110.796C41.5045 110.809 42.1399 110.8 42.7753 110.779Z" fill="#1A1313"/>
<path d="M33.4199 122.179C31.6715 121.714 29.6076 121.078 26.58 120.288C22.9383 121.313 19.318 119.734 20.6186 114.479C21.9234 109.225 27.1897 105.35 30.3538 105.947C32.0723 106.494 33.8548 108.376 37.1425 109.81C34.8569 111.577 31.5564 117.446 33.4199 122.179Z" fill="#EFEFEF"/>
<path d="M53.6144 119.093C52.5654 119.648 51.4908 120.071 50.3992 120.365C49.299 120.647 48.1519 120.86 47.0262 121.095C44.7576 121.548 42.4634 121.927 40.1863 122.132C39.6192 122.179 39.052 122.213 38.4977 122.218L38.1182 122.213L37.696 122.179C37.4189 122.158 37.1373 122.128 36.8602 122.094C35.7514 121.957 34.6471 121.693 33.5299 121.407C31.2996 120.813 29.0267 120.177 26.7368 119.67L26.5535 119.631L26.4085 119.674H26.4042C25.4916 119.913 24.5322 119.99 23.658 119.819C22.7796 119.657 22.0163 119.221 21.5814 118.534C21.4577 118.342 21.3596 118.133 21.2828 117.915C21.2999 117.92 21.317 117.924 21.334 117.928C21.769 118.005 22.1997 117.992 22.6048 117.92C23.4107 117.77 24.157 117.378 24.6602 116.801C24.0163 117.215 23.2614 117.352 22.5749 117.284C21.9694 117.228 21.398 116.972 21.0781 116.609C21.0781 116.413 21.0824 116.217 21.0995 116.02C21.1848 115.094 21.4492 114.147 21.8074 113.254C22.5409 111.47 23.7518 109.87 25.2358 108.632C25.9778 108.017 26.7923 107.488 27.6537 107.121C28.4895 106.763 29.3935 106.562 30.1696 106.69C30.8476 106.912 31.5597 107.377 32.2761 107.847C33.0095 108.333 33.7686 108.841 34.5575 109.298C36.1353 110.228 37.8537 110.95 39.6234 111.406L39.6959 111.423L39.7556 111.428C42.0839 111.552 44.3696 111.334 46.6168 111.176C47.7383 111.108 48.8513 111.009 49.9515 110.975C51.0517 110.937 52.139 110.984 53.269 111.227C52.3394 110.506 51.1497 110.177 49.9984 110.019C48.8342 109.883 47.6828 109.9 46.5485 109.964C44.3055 110.075 42.0882 110.228 39.922 110.07C38.293 109.601 36.7408 108.922 35.2824 108.043C34.5404 107.599 33.8283 107.108 33.0864 106.605C32.3401 106.114 31.5853 105.563 30.5789 105.222L30.5363 105.209L30.4894 105.2C29.2442 104.979 28.0929 105.294 27.0694 105.717C26.0418 106.157 25.1207 106.763 24.2806 107.454C22.6133 108.85 21.2616 110.63 20.4215 112.67C20.0036 113.69 19.7222 114.761 19.6369 115.896C19.5558 117.015 19.7009 118.274 20.4045 119.328C20.7499 119.849 21.2232 120.28 21.7519 120.587C22.2764 120.89 22.8521 121.078 23.4192 121.176C24.5023 121.355 25.5684 121.227 26.5663 120.954L29.7645 121.906C30.8774 122.247 31.9946 122.589 33.1375 122.901C34.276 123.216 35.4572 123.481 36.664 123.635C36.9668 123.673 37.2696 123.703 37.5724 123.729L38.0243 123.754L38.1736 123.758H38.2887L38.519 123.754C39.1288 123.737 39.7301 123.69 40.3228 123.63C41.5125 123.507 42.6809 123.315 43.8408 123.088C45.0007 122.858 46.1562 122.623 47.2948 122.307C47.8662 122.158 48.4334 121.991 48.9963 121.799C49.5592 121.616 50.1178 121.411 50.6764 121.163C51.7809 120.655 52.8042 119.973 53.6144 119.093Z" fill="black"/>
<path d="M47.2828 92.8613C46.1655 91.5637 44.221 92.3106 41.7221 94.466C30.4133 104.219 27.6415 101.722 20.4733 98.333C11.6122 94.1417 2.89179 96.216 0.644531 103.416C0.789516 106.857 4.73395 110.783 11.092 107.928C16.9553 105.294 20.0341 108.291 27.2705 109.938C33.7607 110.723 42.2082 102.879 45.1889 99.3702C48.1697 95.8532 48.8605 94.6923 47.2828 92.8613Z" fill="#E6E6E6"/>
<path d="M47.2829 92.857C48.8607 94.6881 48.1698 95.849 45.1891 99.3617C42.6135 102.388 35.9698 108.645 30.0254 109.797C36.3024 106.464 36.8184 101.935 35.4837 99.1696C37.2533 98.094 39.2917 96.5617 41.7223 94.4661C44.2212 92.3149 46.17 91.5638 47.2829 92.857Z" fill="#D4D4D4"/>
<path d="M38.2509 97.2788C37.5899 99.7202 39.3212 102.751 40.3958 104.061C39.5643 104.761 38.6773 105.457 37.752 106.11C36.0292 104.33 35.2788 102.268 35.2233 101.423C34.5752 102.315 34.6007 103.024 34.6476 103.993C33.6498 102.947 33.2447 101.368 33.4281 100.275C34.831 99.6306 36.4087 98.6574 38.2509 97.2788Z" fill="#332525"/>
<path d="M36.8862 98.2605C36.8223 98.3031 36.7626 98.3458 36.6944 98.3885C36.5323 98.4952 36.3745 98.6062 36.2167 98.7086C36.1272 98.7641 36.0462 98.8153 35.9567 98.8708C35.8287 98.9519 35.6965 99.0373 35.5728 99.1141C35.543 99.1312 35.5089 99.1525 35.479 99.1738C36.0504 100.352 36.2808 101.854 35.8714 103.446C36.2808 104.283 36.8948 105.235 37.7476 106.114C37.7519 106.114 37.7562 106.11 37.7604 106.105C38.1826 105.807 38.5962 105.495 39.0056 105.183C39.078 105.128 39.1548 105.068 39.2273 105.013C39.6153 104.71 39.9949 104.402 40.3617 104.091C40.3745 104.082 40.3829 104.074 40.3957 104.061C39.3211 102.751 37.5898 99.7202 38.2508 97.2788C38.0504 97.4282 37.85 97.5733 37.6538 97.7184C37.6325 97.7355 37.6069 97.7526 37.5856 97.7697C37.3511 97.9404 37.1165 98.1025 36.8862 98.2605Z" fill="#1A1313"/>
<path d="M27.7607 101.24C28.9802 101.428 30.2381 101.368 31.6496 100.949C29.1721 104.198 31.2104 108.035 32.4811 109.067C31.4747 109.469 30.4642 109.759 29.4792 109.895L29.4706 109.84C25.8673 106.959 26.5709 103.075 27.7607 101.24Z" fill="#332525"/>
<path d="M20.4734 98.3287C21.7569 98.9391 22.904 99.5196 23.9786 100.002C20.9808 103.608 21.7057 106.844 22.8358 108.658C21.6119 108.248 20.5032 107.851 19.45 107.539C18.111 104.458 19.2495 101.991 19.8721 101.107C18.0428 101.841 17.369 103.732 17.305 104.543C15.2838 101.509 17.6078 98.6275 18.8828 97.6544C19.4158 97.855 19.9446 98.0812 20.4734 98.3287Z" fill="#332525"/>
<path d="M13.561 96.2971C9.55258 100.616 11.7955 105.474 13.821 107.049C12.9639 107.207 12.0642 107.484 11.092 107.924C4.73395 110.775 0.79378 106.852 0.644531 103.412C2.2948 98.1239 7.43751 95.6014 13.561 96.2971Z" fill="#332525"/>
<path d="M41.2183 104.202C38.1565 106.844 32.2591 111.184 27.1932 110.57L27.1293 110.557C24.9545 110.062 23.1464 109.447 21.5516 108.901C17.7606 107.608 15.2533 106.754 11.3515 108.504C8.26418 109.891 5.32604 109.887 3.07878 108.495C1.26647 107.377 0.0895536 105.435 0.00426842 103.433L0 103.322L0.0341474 103.216C0.639672 101.278 1.69288 99.6476 3.16831 98.3799C7.30038 94.816 14.038 94.5727 20.7457 97.7482C21.2489 97.9873 21.7349 98.222 22.1997 98.4482C28.319 101.415 31.1078 102.768 41.3079 93.9795C44.2758 91.4229 46.4463 90.9064 47.7725 92.4429C49.7682 94.7605 48.5017 96.4593 45.6788 99.7756C44.5018 101.158 42.8771 102.772 41.2183 104.202ZM27.3765 109.302C31.9521 109.836 37.4871 105.73 40.3825 103.233C42.6724 101.261 44.1649 99.5792 44.698 98.9476C47.7085 95.4007 47.9857 94.6581 46.7959 93.2795C46.0241 92.3875 44.4592 92.9465 42.1351 94.9526C31.3039 104.296 27.8712 102.631 21.6368 99.6049C21.1763 99.3829 20.6945 99.1482 20.1956 98.9134C13.9484 95.9599 7.74394 96.1306 3.99993 99.3573C2.73771 100.446 1.82511 101.841 1.28355 103.497C1.39015 105.042 2.32404 106.536 3.7483 107.411C5.62457 108.572 8.14052 108.547 10.827 107.339C15.1893 105.38 18.1785 106.4 21.9652 107.693C23.5216 108.222 25.2828 108.824 27.3765 109.302Z" fill="black"/>
<path d="M98.569 102.132C97.0125 98.0514 91.5329 96.4721 87.4563 96.7666C83.3797 97.0611 77.6229 96.9843 73.7254 96.2929C63.8536 91.9479 56.7622 89.8907 50.3701 90.4583C44.6218 91.2736 38.6817 95.4862 36.814 102.571C35.168 111.338 39.2787 119.563 51.2101 123.379C66.216 126.243 79.2987 124.894 87.1023 121.552C97.166 117.258 101.652 110.211 98.569 102.132Z" fill="#E6E6E6"/>
<path d="M98.5688 102.132C101.652 110.211 97.1701 117.258 87.1107 121.56C79.3028 124.902 66.2201 126.251 51.2185 123.387C39.2828 119.567 35.1721 111.347 36.8223 102.576C38.0035 98.0897 40.8222 94.752 44.1867 92.7118C42.9671 97.2489 46.1013 104.441 58.0967 105.918C71.8532 107.616 79.9595 102.255 78.1301 96.7965C81.29 97.0013 84.7483 96.9672 87.4647 96.7751C91.537 96.4763 97.0123 98.0513 98.5688 102.132Z" fill="#D4D4D4"/>
<path d="M99.5024 107.842C99.1272 113.489 94.7094 118.308 87.1105 121.556C79.3026 124.898 66.2199 126.247 51.2182 123.383C45.1502 121.441 41.1076 118.359 38.8135 114.65C43.453 117.749 51.8237 119.746 61.9343 120.596C71.4777 121.398 81.0297 120.083 88.1126 116.788C92.4579 114.77 94.9781 112.217 97.285 108.897C97.9588 107.932 98.8926 107.492 99.5024 107.842Z" fill="#EFEFEF"/>
<path d="M73.7295 96.2928C75.1452 96.5446 76.8082 96.7196 78.5438 96.8178C75.7336 98.8025 73.4949 102.648 72.4544 106.472C71.512 108.167 70.2327 110.408 69.4694 112.089C69.1496 108.632 69.3074 105.034 70.2839 102.2C69.1624 102.738 66.928 105.243 66.0282 106.515C65.363 102.166 66.7147 98.0043 68.9876 96.6086C68.2328 97.8251 67.7808 100.356 67.913 101.223C69.3458 99.0586 71.64 97.0995 73.367 96.1349C73.4907 96.1904 73.6101 96.2373 73.7295 96.2928Z" fill="#332525"/>
<path d="M67.7635 93.8259C66.0493 94.9484 63.8319 97.8806 62.4545 101.248C60.7019 103.98 59.879 105.115 58.2586 108.713C58.3524 104.684 58.6935 100.254 59.751 98.1026C58.1349 99.3446 56.3865 100.894 55.4526 102.844C55.862 98.4526 58.9024 94.2783 64.2668 92.5796C65.3883 92.9509 66.5524 93.3649 67.7635 93.8259Z" fill="#332525"/>
<path d="M60.9624 91.5979C57.8111 92.3576 54.4296 95.5331 52.3614 99.2336C52.289 96.9373 53.0182 94.5045 54.8347 92.6052C52.2165 93.1131 49.7261 94.9953 48.3999 96.5746C46.9544 98.2989 45.9864 100.207 45.1079 102.413C45.1037 99.7672 45.5215 96.8051 46.9884 94.0862C48.3914 92.0717 50.9628 90.9918 53.338 90.39H53.3422C55.7217 90.4626 58.229 90.868 60.9624 91.5979Z" fill="#332525"/>
<path d="M73.1283 104.428C72.8682 105.102 72.6464 105.789 72.4588 106.468C71.5164 108.163 70.2371 110.403 69.4738 112.085C69.2734 109.891 69.2564 107.65 69.5293 105.58C70.8682 105.282 72.075 104.893 73.1283 104.428Z" fill="#1A1313"/>
<path d="M66.357 106.075C66.2333 106.229 66.1224 106.378 66.0286 106.511C66.0073 106.374 65.9902 106.246 65.9731 106.11C66.1011 106.105 66.2291 106.088 66.357 106.075Z" fill="#1A1313"/>
<path d="M58.3658 105.947C58.7581 105.994 59.1461 106.033 59.5256 106.071C59.1418 106.805 58.7325 107.655 58.2549 108.717C58.2762 107.804 58.3146 106.869 58.3658 105.947Z" fill="#1A1313"/>
<path d="M46.0416 100.288C45.7048 100.962 45.3977 101.671 45.1035 102.413C45.1035 101.402 45.1632 100.348 45.3253 99.272C45.5385 99.6135 45.7772 99.9549 46.0416 100.288Z" fill="#1A1313"/>
<path d="M59.6058 125.222C56.7999 124.958 53.9386 124.552 51.0943 124.01L51.0176 123.993C39.7003 120.37 34.2974 112.52 36.1865 102.456L36.195 102.413C38.3314 94.2954 45.1159 90.5607 50.2756 89.8309C51.8449 89.69 53.3928 89.6986 55.0473 89.8522C60.0407 90.3175 65.6866 92.0632 73.9081 95.6783C74.7226 95.8191 75.6479 95.9386 76.6628 96.0368C79.8994 96.3398 84.0143 96.374 87.4044 96.1307C88.1976 96.0752 89.0248 96.0838 89.8606 96.1606C93.4256 96.4935 97.741 98.1794 99.161 101.905C102.325 110.207 98.0225 117.587 87.3533 122.149C80.4495 125.107 70.3304 126.225 59.6058 125.222ZM51.3715 122.76C54.1603 123.289 56.9662 123.69 59.7209 123.951C70.2451 124.932 80.1339 123.848 86.8543 120.971C96.8028 116.716 100.854 109.934 97.967 102.362C96.7559 99.1867 92.9266 97.7355 89.7455 97.4368C88.9779 97.3642 88.2231 97.3556 87.4982 97.4068C84.0484 97.6544 79.8482 97.6203 76.5476 97.3087C75.4645 97.2063 74.4795 97.0782 73.6139 96.9245L73.4689 96.8776C65.4478 93.3478 59.7294 91.5723 54.9322 91.1241C53.3544 90.979 51.8832 90.9662 50.4291 91.0986C45.6957 91.7687 39.4273 95.2173 37.4444 102.716C35.6961 112.051 40.7748 119.354 51.3715 122.76Z" fill="black"/>
<path d="M47.7092 112.209C50.6089 111.795 53.3039 112.503 54.3273 115.231C55.1972 117.561 53.6237 120.284 50.6814 122.32C48.4213 123.882 40.5921 127.16 36.3449 127.719C30.7161 128.184 23.0788 125.376 21.3986 124.941C18.9936 126.345 14.5588 126.294 14.7294 120.89C14.9 115.487 18.7762 109.686 22.6311 109.102C23.5436 108.781 30.7801 114.001 37.0528 114.164C42.8394 113.967 44.9161 112.606 47.7092 112.209Z" fill="#E6E6E6"/>
<path d="M54.3272 115.235C55.1971 117.561 53.6236 120.288 50.6812 122.324C48.4212 123.891 40.592 127.164 36.3448 127.719C30.7159 128.184 23.0786 125.376 21.4028 124.941C18.9935 126.345 14.5587 126.294 14.7335 120.89C14.9041 115.487 18.7761 109.686 22.6352 109.102C23.4241 108.828 28.9378 112.687 34.4643 113.848C28.78 118.765 40.5621 121.432 46.2421 119.251C50.5319 117.604 51.8838 114.599 51.6407 112.516C52.8432 112.969 53.8027 113.835 54.3272 115.235Z" fill="#D4D4D4"/>
<path d="M50.6472 122.346C50.1099 122.713 49.2656 123.174 48.238 123.673C47.3553 122.119 46.4981 119.883 47.368 117.672C47.6452 119.14 49.1291 120.971 50.6472 122.346Z" fill="#1A1313"/>
<path d="M46.7798 124.347C45.5346 124.902 44.1274 125.47 42.7159 125.982C41.5646 123.784 40.4346 120.041 42.443 116.464C42.0209 117.54 44.1999 121.902 46.7798 124.347Z" fill="#1A1313"/>
<path d="M39.8536 126.921C38.5615 127.301 37.3505 127.587 36.3441 127.719C34.664 127.856 32.8091 127.711 30.9798 127.412C28.4297 123.212 29.662 119.477 31.9946 117.181C31.3038 120.25 32.3059 123.003 34.0628 124.202C32.5831 120.643 34.5275 116.221 36.2162 114.117C36.4976 114.142 36.7749 114.159 37.0563 114.168C37.551 114.151 38.02 114.125 38.4592 114.095C37.3078 117.01 37.3078 123.387 39.8536 126.921Z" fill="#1A1313"/>
<path d="M47.6748 118.59C47.4787 118.701 47.2655 118.803 47.0522 118.906C47.1034 118.5 47.21 118.082 47.3678 117.672C47.4232 117.962 47.5256 118.274 47.6748 118.59Z" fill="#332525"/>
<path d="M42.4428 116.464C42.2338 117.002 42.673 118.359 43.4832 119.896C42.7967 119.977 42.0846 120.02 41.3682 120.015C41.4577 118.854 41.7733 117.651 42.4428 116.464Z" fill="#332525"/>
<path d="M38.4558 114.095C37.9356 115.427 37.6457 117.476 37.7395 119.652C36.2512 119.349 34.9422 118.859 34.0723 118.206C34.601 116.558 35.4367 115.09 36.2171 114.117C36.4985 114.142 36.7758 114.159 37.0572 114.168C37.5476 114.151 38.0123 114.125 38.4558 114.095Z" fill="#332525"/>
<path d="M29.0911 127.058C25.5305 126.311 22.4005 125.201 21.3984 124.941C18.9891 126.345 14.5543 126.294 14.7291 120.89C14.8997 115.487 18.7717 109.686 22.6308 109.102C23.3003 108.867 27.4068 111.637 32.0207 113.178C29.8886 115.209 26.3663 122.307 29.0911 127.058Z" fill="white"/>
<path d="M53.7557 119.2C52.7707 120.314 51.6364 121.181 50.4211 121.91C49.2228 122.598 47.8753 123.178 46.5576 123.754C45.2272 124.322 43.8754 124.838 42.5108 125.312C41.1463 125.782 39.769 126.221 38.3831 126.558C37.6923 126.725 36.9971 126.87 36.3149 126.96L36.2638 126.968H36.2595L36.2253 126.972L36.089 126.981L35.8288 126.994L35.3086 127.011C34.9589 127.015 34.6092 127.011 34.2553 126.994C32.8481 126.93 31.4281 126.733 30.0124 126.473C28.6009 126.204 27.1937 125.88 25.7907 125.508C24.375 125.141 23.0275 124.706 21.5478 124.322L21.2919 124.254L21.0744 124.386C20.2727 124.834 19.3176 125.073 18.4221 125.035C17.518 125.005 16.695 124.659 16.1876 123.998C16.1791 123.985 16.1706 123.976 16.1621 123.963C16.2261 123.951 16.2857 123.938 16.3497 123.925C16.7761 123.805 17.1556 123.609 17.4925 123.366C18.1534 122.879 18.6566 122.205 18.8613 121.462C18.4605 122.115 17.8422 122.563 17.1897 122.802C16.6567 122.999 16.081 123.029 15.6418 122.875C15.5138 122.431 15.4499 121.945 15.4414 121.454C15.4243 120.476 15.5522 119.49 15.7782 118.517C16.226 116.575 17.0789 114.706 18.2515 113.105C18.84 112.307 19.5138 111.577 20.2728 110.988C21.0276 110.399 21.8804 109.96 22.7461 109.823H22.7546C22.7845 109.827 22.8229 109.84 22.874 109.857C22.9849 109.891 23.1128 109.942 23.2407 109.998C23.5008 110.109 23.7695 110.241 24.0424 110.374L25.6841 111.189C26.7885 111.739 27.9101 112.277 29.0572 112.764C31.3514 113.728 33.7606 114.552 36.3191 114.757C36.4812 114.77 36.639 114.778 36.8011 114.783L37.0399 114.791L37.3085 114.783L38.2423 114.727C38.8649 114.68 39.4833 114.62 40.1016 114.535C41.3382 114.373 42.5706 114.117 43.7646 113.788C44.9671 113.468 46.1057 113.041 47.2485 112.742C48.3956 112.439 49.5682 112.252 50.8133 112.277C49.6535 111.786 48.3358 111.735 47.0864 111.88C45.8242 112.042 44.643 112.405 43.4788 112.7C42.3147 112.998 41.142 113.22 39.9523 113.361C39.3553 113.43 38.7583 113.481 38.1571 113.515L37.2574 113.553L37.0654 113.558L36.8479 113.549C36.7029 113.541 36.558 113.532 36.413 113.515C34.0805 113.293 31.7863 112.482 29.586 111.509C28.4815 111.018 27.3941 110.476 26.3067 109.917C25.7608 109.635 25.2193 109.349 24.6607 109.072C24.3793 108.931 24.0978 108.794 23.7908 108.666C23.6373 108.602 23.4795 108.538 23.2962 108.479C23.2066 108.449 23.1043 108.423 22.9849 108.397C22.8612 108.385 22.7205 108.333 22.3964 108.427L22.5243 108.393C21.3218 108.581 20.277 109.149 19.3901 109.836C18.4988 110.527 17.7441 111.351 17.0917 112.234C15.7911 114.01 14.8657 116.033 14.3625 118.184C14.1194 119.26 13.9873 120.374 14.0214 121.501C14.0641 122.627 14.3156 123.869 15.1173 124.877C15.5138 125.376 16.0426 125.773 16.614 126.021C17.1897 126.272 17.7996 126.383 18.388 126.396C19.4797 126.409 20.5201 126.136 21.4625 125.636C22.0553 125.82 22.6821 126.046 23.3005 126.243C23.9998 126.469 24.7076 126.686 25.4155 126.896C26.8355 127.31 28.2725 127.685 29.7351 127.967C31.1978 128.253 32.6817 128.466 34.1955 128.522C34.5751 128.535 34.9547 128.539 35.3342 128.535L35.9098 128.513L36.1998 128.496L36.3362 128.483L36.4471 128.475L36.5196 128.466C37.2829 128.36 38.0164 128.189 38.7413 128.001C41.6325 127.233 44.3744 126.149 47.0609 124.919C47.7304 124.608 48.3998 124.288 49.048 123.929C49.7047 123.579 50.3443 123.191 50.9626 122.721C52.1438 121.77 53.2099 120.604 53.7557 119.2ZM22.7333 109.814C22.7205 109.81 22.7205 109.814 22.7333 109.814V109.814Z" fill="black"/>
<path d="M103.639 90.8467C105.715 88.9431 108.432 85.0932 108.073 82.9762C107.805 81.4056 106.705 81.1623 104.278 79.8263C101.34 78.2087 98.803 75.7417 97.0248 74.1582C94.9609 72.9888 93.042 74.7558 91.7457 78.2002C90.1466 82.4384 90.3427 90.2449 95.963 93.6722C98.0695 94.3722 100.807 93.446 103.639 90.8467Z" fill="#E6E6E6"/>
<path d="M108.074 82.9763C107.937 82.6946 107.788 82.4385 107.6 82.2379C107.413 82.0373 107.195 81.8879 106.961 81.7513C106.483 81.4952 105.933 81.2903 105.383 81.0599C104.833 80.8251 104.278 80.569 103.741 80.283C103.191 79.9843 102.667 79.6641 102.155 79.3227C101.127 78.6441 100.159 77.8972 99.221 77.1204C98.2829 76.3521 97.3832 75.5369 96.5005 74.7515L96.637 74.8497C95.9334 74.4527 95.2937 74.5381 94.637 75.0631C93.9973 75.5881 93.4643 76.4076 93.0293 77.2697C92.8119 77.7051 92.62 78.1575 92.4452 78.6227C92.2831 79.0666 92.1424 79.5404 92.0316 80.0184C91.8141 80.9745 91.6819 81.9604 91.6393 82.9506C91.5583 84.931 91.8439 86.9371 92.5774 88.7596C93.281 90.5991 94.4067 92.2424 95.9589 93.6808C93.9462 92.968 92.313 91.2479 91.3919 89.2718C90.4794 87.2743 90.1169 85.0804 90.1297 82.9165C90.1382 81.8324 90.2491 80.744 90.4879 79.6727C90.603 79.1349 90.7523 78.6099 90.9399 78.0764C91.1233 77.5642 91.3279 77.0606 91.571 76.5612C92.0529 75.571 92.6413 74.5765 93.6264 73.7912C94.1125 73.4071 94.7436 73.0827 95.4558 73.0144C96.1679 72.9418 96.8714 73.151 97.4215 73.4711L97.4984 73.518L97.5538 73.5692C98.4578 74.3802 99.3149 75.1954 100.198 75.9807C101.08 76.7618 101.989 77.5088 102.935 78.1831C103.409 78.5203 103.899 78.8404 104.389 79.1306C104.893 79.4337 105.404 79.7239 105.916 80.044C106.172 80.2062 106.428 80.3684 106.679 80.5562C106.931 80.7397 107.191 80.9361 107.421 81.1794C107.656 81.4184 107.856 81.7086 107.971 82.0287C108.082 82.3403 108.103 82.6732 108.074 82.9763Z" fill="black"/>
<path d="M110.321 80.3044C110.569 79.4593 110.526 77.2698 109.183 76.3735C113.711 76.9625 115.383 79.9758 115.336 82.3659C116.219 81.0983 116.603 77.4746 114.893 76.0661C117.455 76.1344 121.515 79.1136 120.287 84.0391C122.295 83.433 122.905 79.3185 122.615 77.5259C126.619 80.3983 126.73 86.2372 124.329 88.1066C126.581 90.8852 127.493 96.3271 127.041 98.9178C125.873 100.412 123.852 104.274 125.11 105.721C126.086 106.801 127.348 106.579 128.103 106.396C128.692 105.713 133.271 105.376 133.557 107.531C133.843 109.686 132.858 111.936 131.749 112.529C131.417 114.987 127.869 117.437 126.479 117.399C123.089 117.203 121.472 114.147 120.065 113.861C112.534 115.628 113.805 120.314 120.436 122.201C121.127 123.242 118.406 125.935 115.656 126.78C112.325 126.49 108.825 124.339 106.799 121.159C102.343 120.779 97.5029 121.595 93.8314 122.243C93.5585 121.428 93.5884 118.931 94.2664 117.728C91.2217 118.078 86.7741 116.827 84.8594 114.783C86.8465 113.997 89.0384 112.734 89.8742 111.902C86.9233 110.071 79.9214 105.572 78.7871 96.8392C80.2071 98.1666 81.819 98.8794 83.61 99.8141C80.9193 96.2972 80.0791 93.5442 79.9256 89.7114C83.32 89.6133 88.6077 87.4023 94.7951 83.1086C98.778 80.3471 105.179 78.2514 110.321 80.3044Z" fill="#E6E6E6"/>
<path d="M129.907 109.119C131.033 110.186 130.453 111.966 131.749 112.533C131.421 114.987 127.873 117.442 126.478 117.403C122.666 117.275 121.212 113.528 119.775 113.814C113.703 115.581 112.649 119.618 120.436 122.201C121.127 123.242 118.406 125.935 115.656 126.78C112.325 126.49 108.82 124.335 106.799 121.155C106.347 121.116 105.886 121.091 105.43 121.078C104.381 116.037 108.513 113.028 110.475 112.469C108.897 112.23 107.029 111.944 105.234 112.644C108.829 107.471 114.982 108.013 116.406 108.052C119.114 107.211 123.724 108.082 125.344 108.816C126.389 108.683 128.227 108.491 129.434 108.726C129.574 108.846 129.732 108.974 129.907 109.119Z" fill="#F5F5F5"/>
<path d="M129.429 108.722C128.346 107.804 128.158 107.471 128.099 106.4C128.687 105.713 133.271 105.376 133.557 107.535C133.843 109.686 132.857 111.94 131.749 112.533C130.521 112.145 131.067 110.258 129.907 109.119C129.732 108.974 129.574 108.845 129.429 108.722Z" fill="black"/>
<path d="M94.7908 83.1128C97.8098 81.0171 102.211 79.3099 106.402 79.4934C102.108 80.1635 96.0146 83.5908 94.6202 90.7101C93.2471 97.7312 95.2982 100.898 97.6734 103.182C95.7289 103.894 94.0487 104.304 90.3943 104.04C94.0189 108.265 98.4239 108.585 101.383 109.042C99.4558 110.967 96.1212 112.606 94.5903 113.143C96.8419 114.689 98.9185 115.286 101.281 115.465C100.522 116.806 99.507 117.488 98.603 118.304C100.049 119.358 101.793 120.28 104.147 121.057C100.488 121.087 96.7779 121.714 93.8228 122.235C93.5498 121.419 93.5797 118.923 94.262 117.723C91.2173 118.078 86.7697 116.823 84.8507 114.778C86.8422 113.993 89.0297 112.73 89.8655 111.901C86.9189 110.07 79.9127 105.572 78.7827 96.8392C80.2027 98.1623 81.8104 98.8793 83.6056 99.8141C80.9149 96.2971 80.0748 93.5442 79.9212 89.7114C83.3199 89.6175 88.6076 87.4065 94.7908 83.1128Z" fill="#D4D4D4"/>
<path d="M134.218 107.659L134.197 107.475C134.171 107.288 134.133 107.125 134.065 106.955C133.933 106.617 133.702 106.327 133.451 106.114C133.195 105.9 132.922 105.751 132.649 105.636C132.099 105.41 131.557 105.316 131.016 105.269C130.478 105.226 129.945 105.239 129.408 105.303C129.139 105.337 128.871 105.384 128.589 105.461C128.449 105.499 128.308 105.546 128.154 105.614C128.048 105.666 127.937 105.713 127.809 105.811C127.071 105.981 126.406 105.947 125.911 105.585C125.843 105.538 125.779 105.482 125.72 105.427C125.694 105.401 125.673 105.384 125.63 105.337L125.6 105.307L125.592 105.299L125.562 105.264C125.489 105.171 125.438 105.047 125.4 104.897C125.327 104.599 125.344 104.214 125.413 103.826C125.553 103.045 125.864 102.243 126.235 101.479C126.606 100.719 127.05 99.9634 127.549 99.3147L127.651 99.1823L127.677 99.0287C127.843 97.9915 127.813 97.0056 127.732 96.0239C127.643 95.0422 127.481 94.0776 127.255 93.1258C127.024 92.174 126.73 91.235 126.346 90.3174C126.014 89.532 125.604 88.7638 125.084 88.0467C126.261 86.6468 126.837 84.5853 126.53 82.5622C125.98 78.9641 123.835 76.9111 121.634 75.5752C122.048 78.3282 122.078 81.1067 120.807 83.2322C121.374 81.2646 120.585 78.947 120.005 78.119C118.573 76.0831 116.304 75.2551 113.579 75.0246C114.739 76.2581 115.976 78.5586 115.421 80.7012C115.05 79.0153 114.193 78.0806 113.583 77.4831C112.087 76.0233 109.741 75.6606 108.006 75.7886C108.918 76.5398 109.993 78.1019 109.835 79.7238C108.722 79.3013 107.541 79.058 106.351 78.9855C104.936 78.8916 103.516 79.0196 102.134 79.3013C100.752 79.5787 99.4005 80.0055 98.1085 80.5646C96.8164 81.1195 95.5713 81.7939 94.4029 82.592C92.1641 84.1158 89.8486 85.5328 87.435 86.7236C86.2282 87.3126 84.9916 87.8419 83.7337 88.2687C82.48 88.6912 81.1836 89.0199 79.9171 89.0711L79.2605 89.0967L79.2945 89.7369V89.7412C79.4054 91.5978 79.7082 93.4972 80.4118 95.2642C80.8681 96.4294 81.4778 97.5092 82.1686 98.525C81.8957 98.3628 81.6186 98.2049 81.3499 98.0385C80.5696 97.5476 79.8446 97.0056 79.2263 96.3696L77.9727 95.0806L78.156 96.9202V96.9287C78.3991 98.5848 78.8681 100.207 79.5504 101.726C80.2327 103.25 81.1239 104.667 82.1644 105.947C83.2091 107.232 84.3945 108.38 85.6738 109.409C86.8294 110.344 88.0704 111.167 89.3326 111.931C89.0725 112.123 88.7953 112.303 88.5054 112.469C88.096 112.704 87.6738 112.922 87.2474 113.126C86.3903 113.536 85.5118 113.895 84.6248 114.189L83.7379 114.484L84.3945 115.222L84.4031 115.235C85.0811 115.905 85.8615 116.374 86.6589 116.759C87.4606 117.138 88.2921 117.424 89.1322 117.642C89.9765 117.86 90.8294 118.009 91.695 118.082C92.373 118.137 93.0596 118.146 93.7376 118.086C93.6438 118.299 93.567 118.517 93.4988 118.735C93.3836 119.123 93.2984 119.52 93.2344 119.917C93.1747 120.314 93.1321 120.715 93.1193 121.125C93.115 121.543 93.098 121.932 93.2216 122.444L93.3411 122.93L93.938 122.871H93.9508C96.0872 122.491 98.2151 122.141 100.351 121.923C102.386 121.718 104.428 121.629 106.445 121.774C107.451 123.263 108.756 124.531 110.253 125.504C111.844 126.533 113.669 127.245 115.6 127.42L115.724 127.433L115.843 127.395C117.076 127.006 118.176 126.37 119.157 125.581C119.647 125.18 120.108 124.74 120.513 124.211C120.683 123.98 120.845 123.733 120.978 123.442C120.999 123.391 121.025 123.344 121.046 123.289C121.084 123.182 121.118 123.071 121.144 122.947C121.161 122.858 121.182 122.76 121.187 122.653C121.199 122.41 121.144 122.102 120.973 121.85L120.914 121.761L120.82 121.688L120.811 121.684C120.146 121.215 115.438 120.216 115.515 117.843C115.571 116.05 119.229 113.609 120.824 114.919C121.408 115.397 123.007 117.932 126.419 117.941L126.444 117.945H126.47C126.845 117.949 127.144 117.873 127.421 117.779C127.481 117.757 127.54 117.74 127.6 117.719C127.745 117.663 127.886 117.604 128.022 117.54C128.15 117.48 128.27 117.42 128.393 117.352C128.44 117.326 128.487 117.305 128.534 117.279C129.122 116.951 129.668 116.558 130.176 116.118C130.679 115.679 131.148 115.184 131.544 114.612C131.886 114.121 132.171 113.557 132.321 112.917C132.768 112.597 133.067 112.2 133.314 111.799C133.604 111.317 133.813 110.809 133.962 110.288C134.112 109.767 134.205 109.234 134.235 108.688C134.252 108.414 134.252 108.145 134.231 107.868L134.218 107.659ZM132.96 108.619C132.935 109.063 132.858 109.507 132.734 109.934C132.611 110.361 132.436 110.775 132.218 111.137C132.001 111.5 131.719 111.825 131.455 111.965L131.451 111.97L131.152 112.162L131.118 112.448C131.063 112.939 130.832 113.451 130.525 113.92C130.214 114.394 129.822 114.838 129.387 115.235C128.952 115.636 128.474 115.995 127.971 116.298C127.877 116.353 127.783 116.4 127.69 116.451C127.528 116.537 127.366 116.618 127.199 116.686C126.952 116.788 126.687 116.861 126.513 116.861C125.882 116.784 124.3 116.69 122.918 115.333C121.963 114.394 120.73 112.708 118.509 113.515C116.287 114.321 113.583 116.447 114.321 118.602C115.229 121.244 119.114 121.936 119.903 122.589C119.903 122.593 119.903 122.593 119.903 122.597C119.903 122.644 119.882 122.73 119.848 122.824C119.831 122.862 119.805 122.905 119.788 122.947C119.711 123.105 119.613 123.272 119.489 123.43C119.178 123.844 118.777 124.228 118.351 124.578C117.524 125.248 116.568 125.794 115.583 126.119C113.95 125.948 112.355 125.325 110.952 124.42C109.511 123.485 108.262 122.247 107.341 120.805L107.17 120.536L106.854 120.51C104.633 120.322 102.415 120.421 100.228 120.638C98.2279 120.839 96.2535 121.159 94.292 121.5C94.2664 121.36 94.245 121.215 94.2279 121.074C94.1853 120.715 94.1683 120.348 94.1726 119.985C94.1854 119.26 94.2492 118.504 94.5222 117.873L94.5264 117.864L94.8079 117.377L94.2322 117.42C93.422 117.484 92.5947 117.429 91.7845 117.305C90.9743 117.181 90.1727 116.985 89.3966 116.729C88.6205 116.473 87.8657 116.152 87.1663 115.76C86.7314 115.517 86.3221 115.239 85.9553 114.932C86.5523 114.625 87.1365 114.3 87.7036 113.946C88.1215 113.681 88.5309 113.408 88.9318 113.114C89.3326 112.815 89.7206 112.508 90.0788 112.123L90.0874 112.115L90.3688 111.85L90.032 111.637C88.676 110.77 87.3711 109.848 86.1685 108.803C84.966 107.766 83.8573 106.617 82.9063 105.358C81.9511 104.099 81.158 102.733 80.5695 101.282C80.1729 100.309 79.8745 99.2976 79.6656 98.2689C80.0493 98.5122 80.4374 98.7342 80.8297 98.9348C81.6953 99.3787 82.5653 99.7585 83.4181 100.155L83.4267 100.16L84.9703 101.005L83.9213 99.5665C82.8595 98.1153 81.9427 96.5659 81.3755 94.9014C80.8638 93.4331 80.6463 91.8838 80.5781 90.3088C81.8147 90.2021 82.9959 89.8991 84.1388 89.532C85.4777 89.101 86.7613 88.5461 88.015 87.9358C90.5139 86.7108 92.8762 85.2511 95.132 83.6633C97.2983 82.1439 99.7886 81.0597 102.364 80.4409C103.656 80.1464 104.978 79.9799 106.296 79.9885C107.613 80.0055 108.931 80.2019 110.185 80.633L110.645 80.7909C110.645 80.7909 111.298 79.1519 110.739 77.3721C111.588 77.6068 112.974 78.2086 113.989 79.8775C114.969 81.4994 115.212 83.4243 115.212 83.4243C115.212 83.4243 117.204 80.458 116.428 77.1629C117.733 77.4959 118.743 78.6312 119.246 79.6641C120.419 82.067 119.873 84.8243 119.873 84.8243C119.873 84.8243 122.99 83.595 123.357 79.4037C124.389 80.3939 124.978 82.353 125.033 83.7658C125.144 86.7535 123.549 88.162 123.549 88.162L123.822 88.5034C124.364 89.1778 124.798 89.9759 125.152 90.8082C125.506 91.6448 125.783 92.5197 125.997 93.416C126.21 94.3081 126.363 95.2215 126.444 96.1306C126.521 96.9927 126.534 97.8678 126.419 98.6744C125.886 99.3915 125.459 100.134 125.071 100.915C124.671 101.752 124.317 102.627 124.142 103.604C124.061 104.095 124.018 104.616 124.146 105.188C124.214 105.469 124.334 105.768 124.534 106.028L124.611 106.122L124.688 106.208C124.722 106.242 124.777 106.302 124.833 106.353C124.939 106.451 125.041 106.536 125.157 106.617C125.613 106.95 126.184 107.134 126.726 107.172C127.267 107.211 127.783 107.125 128.244 107.01L128.402 106.972L128.577 106.805C128.525 106.856 128.589 106.797 128.658 106.771C128.73 106.737 128.824 106.707 128.922 106.681C129.118 106.626 129.336 106.588 129.557 106.558C130.001 106.502 130.457 106.494 130.901 106.528C131.344 106.566 131.779 106.652 132.146 106.801C132.517 106.955 132.777 107.172 132.866 107.411C132.892 107.471 132.909 107.544 132.918 107.603L132.939 107.787L132.952 107.941C132.973 108.175 132.973 108.397 132.96 108.619Z" fill="black"/>
<path d="M118.759 102.425L121.213 101.058C121.485 100.906 121.581 100.566 121.431 100.294C121.28 100.022 120.939 99.9265 120.667 100.076L118.215 101.443L116.848 98.9908C116.696 98.7189 116.356 98.6234 116.084 98.7728C115.812 98.9247 115.716 99.2652 115.866 99.5371L117.233 101.989L114.781 103.356C114.509 103.508 114.413 103.848 114.563 104.12C114.639 104.255 114.761 104.348 114.901 104.387C115.038 104.426 115.192 104.414 115.327 104.338L117.782 102.971L119.148 105.423C119.224 105.558 119.347 105.651 119.486 105.69C119.624 105.73 119.778 105.717 119.913 105.641C120.185 105.489 120.28 105.149 120.131 104.877L118.759 102.425Z" fill="black"/>
<path d="M121.532 90.8169C119.02 90.0187 114.291 89.9376 112.556 90.484C111.012 91.7345 109.617 94.9655 109.353 96.1948C106.871 96.2332 101.997 97.5904 100.002 98.5209C103.281 98.6703 107.187 99.6264 108.304 100.326C104.756 100.373 95.1276 101.944 93.5029 112.58C92.6074 109.832 92.1213 106.067 92.3345 103.421C94.1596 102.149 100.202 100.279 102.104 100.07C100.061 99.366 95.8952 99.6733 94.1425 100.015C96.7565 96.9075 102.718 94.9015 107.259 94.782C107.831 91.4827 110.296 88.7255 111.263 88.3713C114.948 87.9999 118.491 88.7383 121.532 90.8169Z" fill="#332525"/>
<path d="M115.907 85.8274C112.692 85.6695 109.242 86.4975 108.129 86.8603C106.739 87.8206 105.332 90.7998 104.833 91.7601C103.639 91.9223 100.488 92.5796 99.0591 93.4674C99.9333 91.837 101.741 91.2779 102.296 91.0943C102.816 88.7469 104.347 86.1091 105.217 85.4049C108.85 84.5683 112.483 84.7262 115.907 85.8274Z" fill="#332525"/>
<path d="M104.023 81.8878C103.234 82.6305 102.56 83.9024 102.185 85.631C103.311 84.4316 106.475 82.4299 111.566 82.7756C109.37 81.922 107.643 81.4866 104.023 81.8878Z" fill="#332525"/>
<path d="M126.589 111.739C126.606 111.983 126.38 112.196 126.081 112.217C125.783 112.239 125.527 112.059 125.51 111.816C125.493 111.573 125.719 111.359 126.017 111.338C126.316 111.317 126.572 111.496 126.589 111.739Z" fill="#B7B7B7"/>
<path d="M127.276 112.917C127.289 113.084 127.148 113.229 126.956 113.242C126.768 113.255 126.606 113.131 126.594 112.969C126.581 112.802 126.722 112.657 126.913 112.644C127.105 112.627 127.267 112.751 127.276 112.917Z" fill="#B7B7B7"/>
<path d="M127.962 111.859C127.975 112.047 127.8 112.213 127.566 112.23C127.335 112.247 127.135 112.106 127.122 111.923C127.109 111.735 127.284 111.569 127.519 111.551C127.749 111.534 127.949 111.671 127.962 111.859Z" fill="#B7B7B7"/>
<path d="M131.856 107.719C131.822 108.039 131.301 108.239 130.696 108.171C130.09 108.103 129.63 107.787 129.668 107.467C129.707 107.147 130.223 106.946 130.828 107.014C131.434 107.083 131.894 107.403 131.856 107.719Z" fill="#F5F5F5"/>
<path d="M99.601 115.252C99.3836 115.854 99.2087 116.468 99.0893 117.074C98.8463 116.669 98.6245 115.913 98.4497 114.983C98.825 115.09 99.2087 115.179 99.601 115.252Z" fill="#1A1313"/>
<path d="M97.6773 103.182C96.1038 103.762 94.7051 104.138 92.2915 104.116C92.3 103.877 92.3129 103.643 92.3299 103.421C93.106 102.883 94.6412 102.238 96.2957 101.658C96.7264 102.217 97.1955 102.716 97.6773 103.182Z" fill="#1A1313"/>
<path d="M94.9186 99.2123C95.0039 99.4342 95.0976 99.6476 95.1914 99.8567C94.7906 99.9079 94.4282 99.9634 94.1382 100.019C94.3727 99.7372 94.6329 99.4726 94.9186 99.2123Z" fill="#1A1313"/>
<path d="M95.1402 107.561C94.3769 108.956 93.8055 110.613 93.5027 112.58C92.8631 110.608 92.4281 108.111 92.313 105.879C93.2426 106.613 94.1936 107.151 95.1402 107.561Z" fill="#1A1313"/>
<path d="M96.5138 92.6436C98.4369 90.4413 100.85 86.1218 100.335 83.9067C99.9422 82.2634 98.8335 82.0927 96.3091 80.8806C93.2559 79.4123 90.5353 77.0051 88.642 75.4728C86.497 74.4015 84.7188 76.446 83.6868 80.219C82.4204 84.8585 83.2093 93.1344 89.0769 96.3057C91.2304 96.8605 93.8912 95.6484 96.5138 92.6436Z" fill="#E6E6E6"/>
<path d="M88.2703 79.4293C90.6796 83.339 93.6944 85.1871 95.9758 86.7663C96.3852 87.4834 94.0995 92.7375 90.816 93.2369C88.4366 91.5467 87.3449 89.4595 86.7735 86.3907C86.2021 83.3177 87.072 79.1178 88.2703 79.4293Z" fill="#DAB5B5"/>
<path d="M100.334 83.9066C100.065 83.3304 99.6901 82.8908 99.1827 82.6475C98.688 82.3829 98.1123 82.2164 97.5409 82.0073C96.961 81.8152 96.3853 81.5804 95.8096 81.3414C95.2254 81.0853 94.6668 80.7951 94.1252 80.475C91.9633 79.1946 90.023 77.6111 88.1339 76.1002L88.279 76.1941C87.908 76.0105 87.5626 75.955 87.2428 76.0361C86.9187 76.1087 86.5861 76.3306 86.2833 76.6507C85.6735 77.2995 85.2343 78.2342 84.8676 79.1818C84.6885 79.6641 84.5306 80.1549 84.3984 80.6628C84.2748 81.1408 84.1725 81.6573 84.1 82.1652C83.955 83.1895 83.9039 84.2353 83.9337 85.2767C83.9891 87.3638 84.424 89.4424 85.2598 91.3417C86.0871 93.2453 87.3366 94.9483 89.0764 96.3056C88.0274 95.9599 87.0551 95.3495 86.2236 94.5812C85.3963 93.8087 84.7013 92.8782 84.1725 91.871C83.1107 89.8479 82.6118 87.5943 82.4498 85.3492C82.373 84.2224 82.3986 83.0871 82.5393 81.9561C82.6118 81.3884 82.7056 80.8335 82.8463 80.2573C82.9828 79.711 83.1448 79.1647 83.3324 78.6226C83.7204 77.5428 84.2194 76.463 85.1021 75.5154C85.5456 75.0545 86.1383 74.6191 86.8803 74.4484C87.6265 74.2691 88.4069 74.4441 88.9996 74.7471L89.0849 74.7941L89.1446 74.8453C90.0998 75.6306 91.0081 76.433 91.9505 77.18C92.8887 77.9312 93.8523 78.6482 94.8501 79.2842C95.3491 79.6043 95.8565 79.9116 96.364 80.2019C96.88 80.5049 97.4215 80.7738 97.9545 81.0811C98.4876 81.3841 99.0462 81.6914 99.5451 82.1481C99.7882 82.3786 100.006 82.6603 100.134 82.9676C100.274 83.2749 100.33 83.595 100.334 83.9066Z" fill="black"/>
<path d="M86.7693 86.3822C86.4409 85.1487 86.3301 83.8512 86.377 82.5494C86.4068 81.8964 86.475 81.2434 86.6413 80.5776C86.7266 80.2446 86.8333 79.9117 87.0294 79.5617C87.1318 79.3867 87.2512 79.2075 87.4686 79.0325C87.5753 78.9471 87.716 78.866 87.8865 78.8191C88.0571 78.7721 88.2533 78.7678 88.4238 78.8063H88.4281L88.6796 78.866L88.8118 79.0922C89.6988 80.5818 90.7947 81.9348 92.0697 83.1214C93.3362 84.3164 94.7861 85.3152 96.2572 86.3524L96.3596 86.4249L96.4108 86.5188V86.5231C96.5302 86.7791 96.5046 86.9158 96.5046 87.0481C96.4961 87.1761 96.4789 87.2871 96.4534 87.3938C96.4065 87.6029 96.3425 87.795 96.2743 87.9785C96.1378 88.3498 95.9716 88.6913 95.7882 89.0285C95.4258 89.6986 94.9993 90.326 94.5175 90.9022C94.0356 91.4784 93.4897 92.0077 92.8714 92.4302C92.2531 92.8528 91.5495 93.1643 90.8118 93.2326C91.5324 93.079 92.1763 92.6991 92.7179 92.2296C93.2637 91.7558 93.72 91.1967 94.1166 90.5992C94.5089 90.0016 94.8458 89.3614 95.1102 88.7041C95.2424 88.3754 95.3575 88.0425 95.4385 87.7096C95.4812 87.5432 95.511 87.381 95.5281 87.2273C95.5366 87.1505 95.5366 87.0779 95.5323 87.0224C95.5366 86.9712 95.5025 86.92 95.5366 87.0096L95.6859 87.1718C94.2104 86.1901 92.671 85.1914 91.2979 83.9622C89.9206 82.7457 88.7052 81.3202 87.7202 79.7623L88.104 80.044C88.1467 80.0483 88.2106 80.0013 88.1594 80.0099C88.1168 80.0184 88.0358 80.091 87.959 80.1763C87.8055 80.3598 87.669 80.6159 87.5496 80.8806C87.3108 81.4184 87.1403 82.0159 87.0081 82.622C86.7607 83.8469 86.6499 85.1146 86.7693 86.3822Z" fill="#D4D4D4"/>
<path d="M73.5843 114.304C72.804 117.062 75.1579 119.571 80.3176 122.55C88.2961 127.156 101.2 129.303 105.566 126.481C107.886 124.561 109.114 114.087 107.396 112.939C105.481 111.85 103.391 112.84 102.146 114.484C96.9354 115.252 93.1871 115.555 89.6905 114.701C84.2407 112.994 75.1749 108.683 73.5843 114.304Z" fill="#E6E6E6"/>
<path d="M107.4 112.939C109.119 114.087 107.89 124.561 105.571 126.481C101.204 129.303 88.3004 127.156 80.322 122.551C75.1623 119.571 72.8084 117.062 73.5887 114.304C73.8489 113.383 74.3136 112.725 74.9277 112.281C74.8594 114.386 77.3072 117.45 82.8678 119.729C90.3899 122.811 95.8311 118.585 94.2789 115.218C96.5688 115.222 99.1103 114.936 102.151 114.488C103.396 112.84 105.481 111.855 107.4 112.939Z" fill="#D4D4D4"/>
<path d="M107.4 112.939C109.118 114.087 107.89 124.561 105.571 126.481C103.387 127.894 99.076 128.061 94.3086 127.301C96.2105 123.263 96.8672 117.403 96.2702 115.154C98.0313 115.051 99.9588 114.808 102.146 114.488C103.396 112.84 105.481 111.855 107.4 112.939Z" fill="white"/>
<path d="M91.9421 115.09C92.8035 115.188 93.6989 115.226 94.6413 115.218C94.701 119.388 92.3898 122.589 89.5669 123.904C90.7012 122.072 92.3728 117.753 91.9421 115.09Z" fill="#332525"/>
<path d="M89.691 114.701C90.288 114.847 90.8935 114.958 91.5119 115.039C90.9191 117.506 89.6952 119.213 88.2539 120.02C89.0343 118.539 89.4607 116.191 89.4138 114.612C89.5033 114.646 89.5972 114.672 89.691 114.701Z" fill="#332525"/>
<path d="M82.0917 112.196C84.2025 112.764 86.3901 113.583 88.3005 114.245C87.7845 117.369 85.4391 121.833 83.4477 124.13C82.6802 123.793 81.9339 123.43 81.2218 123.05C83.1663 120.549 84.5864 117.07 84.2665 115.064C82.9148 117.109 81.6526 118.44 79.8062 119.123C80.6036 118.223 81.9126 114.467 82.0917 112.196Z" fill="#332525"/>
<path d="M83.1708 119.849C84.0919 120.212 84.9874 120.459 85.836 120.609C85.0727 121.979 84.2326 123.221 83.4437 124.13C82.6761 123.793 81.9299 123.43 81.2178 123.05C81.9725 122.081 82.6463 120.971 83.1708 119.849Z" fill="#1A1313"/>
<path d="M94.2747 115.218C94.3983 115.218 94.5177 115.218 94.6413 115.218C94.701 119.388 92.3898 122.589 89.5669 123.904C90.0871 123.071 90.7183 121.714 91.2044 120.233C93.8355 119.238 95.1403 117.096 94.2747 115.218Z" fill="#1A1313"/>
<path d="M80.2326 118.47C80.3818 118.556 80.5353 118.637 80.6888 118.722C80.4116 118.876 80.1132 119.008 79.8062 119.123C79.9383 118.974 80.0833 118.748 80.2326 118.47Z" fill="#1A1313"/>
<path d="M107.75 112.316C107.234 112.03 106.645 111.837 106.044 111.795C105.443 111.748 104.841 111.842 104.291 112.042C103.281 112.414 102.458 113.084 101.818 113.878C99.8778 114.083 97.9418 114.292 96.0271 114.381C94.0357 114.475 92.0571 114.424 90.151 114.023L89.9719 113.984L89.8866 113.967L89.8397 113.954L89.4773 113.843L88.7567 113.622L87.3068 113.152C86.3388 112.828 85.3623 112.525 84.3687 112.243C83.3752 111.978 82.3602 111.744 81.3325 111.594C80.3048 111.458 79.2516 111.385 78.2239 111.522C80.2323 111.978 82.0958 112.704 83.9934 113.417L86.842 114.492L88.2833 115.026L89.0125 115.286L89.3792 115.41L89.4261 115.427L89.5199 115.457L89.6179 115.482L89.8142 115.529C91.8909 116.025 94.0315 116.097 96.104 115.965C97.1444 115.897 98.1721 115.786 99.1913 115.636C100.21 115.491 101.225 115.329 102.232 115.128L102.509 115.073L102.645 114.881C103.2 114.176 103.933 113.613 104.726 113.353C105.502 113.088 106.313 113.161 107.003 113.558C107.02 113.57 107.127 113.728 107.187 113.929C106.867 113.942 106.56 114.006 106.283 114.108C105.869 114.266 105.502 114.497 105.191 114.765C104.568 115.307 104.121 116.029 103.976 116.784C104.321 116.097 104.905 115.593 105.536 115.299C106.163 115 106.88 114.945 107.349 115.184C107.366 115.192 107.383 115.192 107.4 115.201C107.43 115.572 107.447 115.948 107.447 116.328C107.438 117.467 107.332 118.624 107.17 119.768C107.003 120.912 106.769 122.047 106.441 123.135C106.274 123.677 106.087 124.211 105.861 124.702C105.643 125.167 105.366 125.619 105.097 125.858C104.129 126.452 102.854 126.729 101.596 126.866C100.304 126.998 98.9823 127.006 97.6561 126.921C95.008 126.755 92.3642 126.268 89.7715 125.602C87.1831 124.928 84.6459 124.027 82.2366 122.879C81.0341 122.316 79.8528 121.671 78.6674 121.031C77.4904 120.378 76.3306 119.704 75.2134 118.897C76.0236 120.028 77.0896 120.95 78.1856 121.787C78.7356 122.205 79.307 122.593 79.887 122.965C80.4584 123.344 81.0767 123.682 81.6865 124.006C84.1512 125.278 86.7482 126.23 89.4006 126.985C92.0529 127.736 94.7777 128.248 97.5495 128.458C98.9354 128.556 100.338 128.581 101.754 128.428C102.462 128.351 103.17 128.231 103.878 128.039C104.586 127.843 105.298 127.578 105.967 127.147L106.014 127.117L106.044 127.092C106.666 126.546 106.965 125.944 107.251 125.359C107.524 124.77 107.728 124.177 107.907 123.583C108.261 122.393 108.504 121.193 108.675 119.981C108.85 118.769 108.948 117.553 108.931 116.31C108.922 115.692 108.884 115.064 108.782 114.424C108.73 114.1 108.658 113.775 108.534 113.429C108.398 113.097 108.261 112.7 107.775 112.345L107.758 112.333L107.75 112.316Z" fill="black"/>
</svg>
