<svg width="400" height="300" viewBox="0 0 400 300" fill="none" xmlns="http://www.w3.org/2000/svg">
<g clip-path="url(#clip0_206_2598)">
<path d="M406.496 82.1951H-6.34448V328.145H406.496V82.1951Z" fill="#C8E569"/>
<path d="M375.36 236.54C376.43 238.18 376.91 240.72 377.59 242.6C378.3 244.57 379.11 246.5 380.03 248.38C380.94 250.28 381.99 252.11 383.16 253.86C383.56 254.45 384.55 255.35 384.73 255.93L383.97 256.21L384.18 255.73L384.08 255.71L383.81 256.22C369.1 256.88 354.45 255.97 339.75 255.8C341.93 254.12 344.8 245.69 345.69 242.89C346.4 240.66 349.25 231.73 348.39 230.06C348.58 229.89 348.74 229.71 348.86 229.49C349.64 228.06 351.82 211.89 351.38 210.49C349.75 209.72 338.9 211.88 335.92 211.72C334.85 212.22 332.86 212.27 331.66 212.22C328.6 213.06 316.05 213.78 312.43 213.8C309.89 214.7 301.67 214.53 298.53 214.71L289.91 215.1L289.5 214.96C288.79 213.73 291.9 181.08 292.26 176.81C292.82 174.36 294.1 163.69 293.53 161.72C294.32 159.96 294.61 158.39 294.51 156.46C294.38 153.94 295 150.86 295.29 148.32C296.16 140.68 297.39 133.08 298.08 125.42C296.38 122.36 294.53 119.37 292.97 116.23C289.59 109.43 287.56 102.43 285.82 95.08C285.84 94 285.65 92.85 285.56 91.77C284.99 86.68 284.89 81.94 285.33 76.83C286.6 67.71 289.59 60.03 293.44 51.76C295.66 48.2 298.24 44.78 300.28 41.12C301.26 39.36 304.47 31.36 303.96 29.55C304.58 29.02 309.05 19.2 309.94 17.6C312.11 13.64 314.7 9.91 317.66 6.49C319.45 4.43 321.46 2.52 323.15 0.38L323.27 0.23L323.21 0H399.56C399.79 0.36 399.92 0.69 399.95 1.11C400.43 6.69 400.01 14.05 400.01 19.79C400.01 22.48 400.4 28.11 399.92 30.5C399.87 30.78 399.78 31.02 399.65 31.27V32.21C400.27 33.63 400.28 47.52 399.79 48.79C399.76 48.87 399.72 48.95 399.69 49.03L399.67 49.79C399.83 50.16 399.94 50.52 399.96 50.92C400.16 55.09 400.34 95.21 399.79 96.72C399.74 96.85 399.72 96.88 399.67 97C400.15 98.16 400.28 100.83 399.76 102.02C399.73 102.1 399.69 102.17 399.65 102.25C400.16 103.43 400.26 106.58 399.78 107.78C399.75 107.86 399.71 107.93 399.68 108.01C400.22 109.37 400.32 120.83 399.74 122C399.7 122.07 399.66 122.14 399.62 122.22C400.1 123.42 400.11 124.3 399.64 125.51C400.28 126.95 400.26 149.1 399.76 150.29C399.72 150.37 399.69 150.45 399.65 150.53C400.12 151.62 400.29 177.23 399.77 178.51C399.74 178.58 399.7 178.66 399.67 178.73C400.26 180.3 400.24 201.04 399.71 202.18C399.64 202.33 399.61 202.37 399.53 202.5C399.75 202.86 399.89 203.19 399.92 203.62C400.13 206.07 371.18 213.58 371.18 216.04" fill="#2F354F"/>
<path d="M386.95 108.99C390.53 107.68 397.6 100.25 399.69 97C400.17 98.16 400.3 100.83 399.78 102.02C399.75 102.1 399.71 102.17 399.67 102.25C397.85 104.8 387.14 117.17 384.83 118.44C384.61 118.56 384.4 118.68 384.18 118.8C384.5 118.42 384.84 118 385.03 117.53C385.5 116.39 387.29 109.73 387.13 108.79C387.11 108.68 387.04 108.53 387 108.44L386.52 108.46C386.95 107.04 387.32 105.43 388 104.12L388.13 104.35C388.13 106.02 387.71 107.51 386.95 108.99Z" fill="#BD894E"/>
<path d="M399.7 108C400.24 109.36 400.34 120.82 399.76 121.99C399.72 122.06 399.68 122.13 399.64 122.21C394.44 124.86 386.37 129.51 380.91 131C384.24 128.77 396.99 112.2 399.7 108Z" fill="#BD894E"/>
<path d="M377.43 51.55L377.27 51.3C377.54 50.41 397.36 33.74 399.66 32.21C400.28 33.63 400.3 47.52 399.81 48.79C399.78 48.87 399.74 48.95 399.71 49.03C397.75 49.63 395.25 49.62 393.19 49.86C387.95 50.47 382.71 51.15 377.44 51.55H377.43Z" fill="#F1BA57"/>
<path d="M349.04 174.48C350.47 175.24 352.8 180.35 353.33 182.02C354.05 184.31 352.55 208.49 351.74 210.04C351.65 210.21 351.53 210.36 351.4 210.5C349.77 209.73 338.92 211.89 335.94 211.73C336.09 211.63 336.22 211.55 336.34 211.4C337.22 210.31 344.24 191.86 343.99 190.81C345.89 189.39 348.58 177.15 349.05 174.48H349.04Z" fill="#586F55"/>
<path d="M362.74 116.21C362.74 116.21 362.83 116.24 362.87 116.26C363.05 116.34 363.23 116.4 363.43 116.45C367.05 117.29 382.35 112.09 385.66 109.98C386.3 111.66 383.7 118.68 382.87 120.57C381.78 123.06 366.15 139.59 363.92 140.46C364.15 140.03 364.27 139.62 364.28 139.14C364.32 137.21 363.31 117.65 363.02 116.68C362.97 116.49 362.87 116.37 362.75 116.21H362.74Z" fill="#BD894E"/>
<path d="M399.66 125.5C400.3 126.94 400.28 149.09 399.78 150.28C399.74 150.36 399.71 150.44 399.67 150.52C397 151.4 367.38 151.85 364.96 151.26C368.38 147.49 371.95 143.59 376.07 140.58C381.42 136.67 387.47 133.33 393.11 129.8C395.3 128.43 397.64 127.11 399.66 125.5Z" fill="#BD894E"/>
<path d="M328.21 112.48C331.53 112.28 335.52 113.99 338.83 114.57C344.58 115.55 350.37 116.27 356.19 116.72C356.31 116.96 356.4 117.2 356.44 117.46C356.69 118.93 353.26 146.31 352.63 149.95C352.49 150.73 352.35 151.51 351.9 152.18L351.28 152.26C348.37 150.87 335.31 126.01 333.02 121.65C331.51 118.76 330.16 115.21 328.29 112.59C328.27 112.55 328.23 112.52 328.21 112.48Z" fill="#BD894E"/>
<path d="M291.35 80.8201C292.33 83.0401 293.78 85.1401 295.11 87.1701C301 96.2201 308.97 105.01 319.27 109.01C320.24 109.39 321.32 110.15 322.35 110.16L322.45 109.77C322.71 109.98 322.94 110.21 323.09 110.5C323.93 112.06 328.96 125.65 329.06 127.02C329.08 127.32 329.05 127.58 328.96 127.87C328.11 126.21 320.28 119.08 318.36 117.29C318.33 117.75 319.25 118.71 319.59 119.1C322.88 122.94 327.86 126.52 330.42 130.76C332.14 133.63 333.17 137.1 334.4 140.21C335.26 142.37 336.69 144.74 337.12 147C337.01 147.31 336.94 147.52 336.7 147.76C333.13 147.91 325.79 146.01 322.19 145.01L321.45 144.84C312.74 142.02 308.77 138.62 302.67 131.84C301.49 130.52 299.73 129.06 298.8 127.59C298.7 126.71 298.55 126.18 298.08 125.43C296.38 122.37 294.53 119.38 292.97 116.24C289.59 109.44 287.56 102.44 285.82 95.0901C285.84 94.0101 285.65 92.8601 285.56 91.7801C287.73 89.7501 290.54 83.7101 291.35 80.8301V80.8201Z" fill="#BD894E"/>
<path d="M399.7 49.03L399.68 49.79C399.84 50.16 399.95 50.52 399.97 50.92C400.17 55.09 400.35 95.21 399.8 96.72C399.75 96.85 399.73 96.88 399.68 97C397.59 100.25 390.53 107.68 386.94 108.99C387.71 107.51 388.12 106.03 388.12 104.35L387.99 104.12C387.31 105.44 386.94 107.04 386.51 108.46C386.4 109.3 386.22 109.4 385.64 109.98C382.34 112.09 367.03 117.29 363.41 116.45C363.21 116.4 363.03 116.34 362.85 116.26C362.81 116.24 362.77 116.23 362.72 116.21C363.35 114.26 362.45 102.56 362.42 99.7C362.36 92.9 362.35 86.05 362.76 79.26C362.97 75.85 364.79 63.58 364.43 61.64C367.91 59.75 370.4 55.74 373.96 53.87C374.83 53.41 375.78 53.49 376.66 53.14C376.74 53.11 376.82 53.07 376.9 53.04L376.59 52.86L376.94 52.84L377.06 52.41L376.87 52.48L376.82 52.05L377.41 51.55C382.68 51.15 387.92 50.47 393.16 49.86C395.22 49.62 397.72 49.63 399.68 49.03H399.7Z" fill="#F1BA57"/>
<path d="M399.7 49.03L399.68 49.79C394.98 50.66 390.19 51.25 385.45 51.93C382.69 52.33 379.7 53 376.91 53.04L376.6 52.86L376.95 52.84L377.07 52.41L376.88 52.48L376.83 52.05L377.42 51.55C382.69 51.15 387.93 50.47 393.17 49.86C395.23 49.62 397.73 49.63 399.69 49.03H399.7Z" fill="#393031"/>
<path d="M370.96 216.03C370.5 213.57 370.44 210.21 369.32 207.97C369.73 206.12 368.8 199.16 368.05 197.28C368.47 195.62 366.98 185.94 366.73 183.32C366.1 176.61 365.55 169.9 365.09 163.19C364.81 159.23 364.74 155.19 364.2 151.26C366.82 151.84 398.83 151.4 401.72 150.52C402.23 151.61 402.41 177.22 401.85 178.5C401.82 178.57 401.78 178.65 401.74 178.72C402.38 180.29 402.36 201.03 401.78 202.17C401.7 202.32 401.67 202.36 401.59 202.49C401.83 202.85 401.98 203.18 402.01 203.61C402.23 206.06 402.07 208.64 402.07 211.11" fill="#515D92"/>
<path d="M391.92 184.77C392.05 185.04 392.18 185.33 392.19 185.64C392.23 186.7 391.48 203.84 391.42 204.04C390.07 204.88 387.22 204.98 385.62 205.17C385.86 204.32 385.76 204.09 385.51 203.28C385.73 203.15 385.91 203 386.08 202.8C387.23 201.37 392.08 186.37 391.92 184.77Z" fill="#586F55"/>
<path d="M368.53 197.28C369.35 197.63 370.2 197.79 371.01 198.13C374.58 199.61 381.94 203.59 385.52 203.27C385.77 204.08 385.87 204.31 385.63 205.16C380.42 206.48 374.88 206.64 369.71 207.97C370.09 206.12 369.23 199.16 368.54 197.28H368.53Z" fill="#3C596A"/>
<path d="M391.99 184.77C392.12 184.65 392.26 184.51 392.35 184.37C392.54 184.08 396.16 171.27 396.25 170.7C396.31 170.34 396.25 169.99 396.14 169.63C398.78 171.79 399.28 175.93 400.94 178.72C401.62 180.29 401.6 201.03 400.98 202.17C400.9 202.32 400.87 202.36 400.78 202.49C397.9 203.07 394.34 204.13 391.42 204.02C391.49 203.82 392.35 186.68 392.3 185.62C392.29 185.32 392.14 185.02 391.99 184.75V184.77Z" fill="#678154"/>
<path d="M298.09 125.42C298.56 126.17 298.71 126.71 298.81 127.58C299.73 129.05 301.49 130.52 302.68 131.83C308.78 138.6 312.75 142 321.46 144.83L322.2 145C325.8 146 333.13 147.9 336.71 147.75L336.36 148.24C336.8 148.25 337.26 148.14 337.57 148.47C338.89 149.86 340.99 155.29 341.42 157.25C341.29 157.53 341.18 157.78 340.99 158.03C341.96 158.48 342.72 159.49 343.12 160.48C343.37 161.09 343.53 161.87 343.17 162.45C343.09 162.58 343.06 162.6 342.96 162.69C343.76 162.89 343.98 162.86 344.43 163.6C345.29 165.03 349.21 173.33 349.04 174.5C348.58 177.17 345.89 189.41 343.98 190.83C344.24 191.87 337.21 210.33 336.33 211.42C336.21 211.57 336.08 211.65 335.93 211.75C334.86 212.25 332.87 212.3 331.67 212.25C328.61 213.09 316.06 213.81 312.44 213.83C309.9 214.73 301.68 214.56 298.54 214.74L289.92 215.13L289.51 214.99C288.8 213.76 291.91 181.11 292.27 176.84C292.83 174.39 294.11 163.72 293.54 161.75C294.33 159.99 294.62 158.42 294.52 156.49C294.39 153.97 295.01 150.89 295.3 148.35C296.17 140.71 297.4 133.11 298.09 125.45V125.42Z" fill="#83A155"/>
<path d="M336.36 148.24C336.8 148.25 337.26 148.14 337.57 148.47C338.89 149.86 340.99 155.29 341.42 157.25C341.29 157.53 341.18 157.78 340.99 158.03C338.66 157.01 336.45 156.5 333.97 156.08C334.83 154.63 336.42 149.81 336.37 148.25L336.36 148.24Z" fill="#515D92"/>
<path d="M342.95 162.68C343.75 162.88 343.97 162.85 344.42 163.59C345.28 165.02 349.2 173.32 349.03 174.49C348.57 177.16 345.88 189.4 343.97 190.82C341.42 189.84 321.79 185.33 319.46 185.47C319.16 183.86 317.51 181.67 316.8 180.1C316.25 178.88 315.96 177.62 315.69 176.32C322.48 174.88 331.25 176.99 336.43 175.46C337.55 175.13 338.79 174.28 339.32 173.21C339.59 172.66 339.63 172.03 339.38 171.46C338.44 169.3 335.28 168.16 333.22 167.4C335.42 166.75 337.69 166.01 339.8 165.1C340.95 164.6 342.46 163.94 342.95 162.7V162.68Z" fill="#515D92"/>
<path d="M312.44 177.05C313.54 176.84 314.61 176.59 315.7 176.3C315.97 177.6 316.27 178.86 316.81 180.08C317.52 181.65 319.17 183.84 319.47 185.45C321.8 185.31 341.43 189.82 343.98 190.8C344.24 191.84 337.21 210.3 336.33 211.39C336.21 211.54 336.08 211.62 335.93 211.72C334.86 212.22 332.87 212.27 331.67 212.22C328.61 213.06 316.06 213.78 312.44 213.8C312.14 213.76 311.86 213.67 311.57 213.59C311.1 212.61 312.41 188.55 312.53 184.86C312.6 182.59 313.14 179.16 312.43 177.05H312.44Z" fill="#586F55"/>
<path d="M319.47 185.46C321.8 185.32 341.43 189.83 343.98 190.81C344.24 191.85 337.21 210.31 336.33 211.4C336.21 211.55 336.08 211.63 335.93 211.73C334.86 212.23 332.87 212.28 331.67 212.23C331.68 212.17 331.69 212.1 331.7 212.04C331.75 211.56 331.5 210.92 331.3 210.49C328.95 205.14 326.27 199.9 323.79 194.6C322.57 191.98 321.08 187.6 319.45 185.47L319.47 185.46Z" fill="#3A5B6B"/>
<path d="M298.09 125.42C298.56 126.17 298.71 126.71 298.81 127.58C299.73 129.05 301.49 130.52 302.68 131.83C308.78 138.6 312.75 142 321.46 144.83L322.2 145C322.2 145.16 322.24 145.46 322.2 145.6C321.89 146.67 312.59 161.21 311.41 162.4C311.24 162.57 311.06 162.72 310.88 162.87C310.71 163.01 310.54 163.15 310.36 163.29C312.62 162.63 324.5 154.91 326.14 153.08C325.99 153.81 325.59 154.1 325.03 154.54C320.66 158.01 312.04 163.12 308.81 166.78C306.14 169.8 304.1 175.07 301.63 177.53C302.61 178.06 304.04 177.93 305.14 177.95C307.54 177.52 310.06 177.75 312.43 177.05C313.14 179.16 312.6 182.58 312.53 184.86C312.41 188.55 311.1 212.61 311.57 213.59C311.86 213.67 312.14 213.77 312.44 213.8C309.9 214.7 301.68 214.53 298.54 214.71L289.92 215.1L289.51 214.96C288.8 213.73 291.91 181.08 292.27 176.81C292.83 174.36 294.11 163.69 293.54 161.72C294.33 159.96 294.62 158.39 294.52 156.46C294.39 153.94 295.01 150.86 295.3 148.32C296.17 140.68 297.4 133.08 298.09 125.42Z" fill="#2B3A46"/>
<path d="M305.14 177.96C307.54 177.53 310.06 177.76 312.43 177.06C313.14 179.17 312.6 182.59 312.53 184.87C312.41 188.56 311.1 212.62 311.57 213.6C311.86 213.68 312.14 213.78 312.44 213.81C309.9 214.71 301.68 214.54 298.54 214.72C299.26 213.73 298.26 197.47 298.83 194.47C298.68 194.09 298.6 193.71 298.53 193.3C297.98 189.95 297.45 184.29 299.51 181.43C300.22 180.14 301.04 178.89 301.63 177.54C302.61 178.07 304.04 177.94 305.14 177.96Z" fill="#678154"/>
<path d="M299.51 181.43C300.22 180.14 301.04 178.89 301.63 177.54C302.61 178.07 304.04 177.94 305.14 177.96L305.98 178.15C306.23 178.88 306.17 179.42 305.83 180.13C305.43 180.97 305.02 181.8 304.22 182.3C302.92 181.68 300.96 181.83 299.51 181.42V181.43Z" fill="#515D92"/>
<path d="M298.83 194.46C298.68 194.08 298.6 193.7 298.53 193.29C297.98 189.94 297.45 184.28 299.51 181.42C300.96 181.82 302.92 181.68 304.22 182.3C304.45 183.89 299.87 192.69 298.82 194.46H298.83Z" fill="#48507E"/>
<path d="M298.81 127.58C299.73 129.05 301.49 130.52 302.68 131.83C308.78 138.6 312.75 142 321.46 144.83C321.42 145.26 299.77 172.79 298.22 174.27C298.11 164.56 298.16 154.85 298.36 145.14C298.46 139.3 298.36 133.4 298.81 127.58Z" fill="#83A155"/>
<path d="M323.21 0H399.56C399.79 0.36 399.92 0.69 399.95 1.11C400.43 6.69 400.01 14.05 400.01 19.79C400.01 22.48 400.4 28.11 399.92 30.5C399.87 30.78 399.78 31.02 399.65 31.27C397.52 33.78 367.47 56.96 364.77 57.94C365.65 56.89 367.94 43.21 368.42 40.93C370.22 32.67 372.16 24.45 374.24 16.26C375.01 13.16 377.91 3.95 377.79 1.54C377.77 1.22 377.64 0.87 377.51 0.59C377.29 4.14 374.11 12.55 373.01 16.55C369.77 28.5 366.78 40.51 364.05 52.58C363.35 55.79 360.81 71.58 359.87 72.98C359.91 72.59 359.88 72.26 359.73 71.89C358.71 69.36 357.32 66.91 356.16 64.43C354.03 59.88 352.04 55.19 350.22 50.5C347.66 43.9 345.55 37 343.42 30.26C342.51 27.37 341.81 24.32 340.66 21.53L340.51 21.57C341.04 26.39 343 31.4 344.41 36.03C347.62 46.61 350.97 57.22 354.77 67.6C355.74 70.25 359.13 77.22 359.41 79.5C359.81 82.81 358.45 91.9 358.09 95.62C357.89 97.72 357.99 102.34 356.76 103.99C356.46 102.43 352.99 99.23 351.76 97.82C346.76 92.1 342.25 85.9 337.97 79.64C334.44 74.46 331.07 69.18 327.86 63.8C326.29 61.14 319.43 47.76 318.23 46.64C319.93 51.87 323.13 57.14 325.58 62.07C331.36 73.67 337.01 85.31 343.93 96.3C345.93 99.47 347.92 102.71 350.26 105.65C351.18 106.82 356.64 112.67 356.76 113.4C356.92 114.34 357 115.66 356.42 116.47C356.31 116.62 356.31 116.62 356.19 116.73C350.37 116.27 344.58 115.55 338.83 114.58C335.51 114.01 331.52 112.3 328.21 112.49C328.11 111.37 323.53 103.04 322.75 101.43C319.2 94.2 315.87 86.86 312.76 79.42C312.13 77.87 309.64 70.83 308.64 69.94C308.4 69.73 308.42 69.54 308.34 69.22C307.83 71.19 312.21 77.64 311.78 80.44C311.78 80.5 311.76 80.56 311.75 80.62C310.87 78.86 303.51 73.78 301.59 72.36C300.93 71.87 299.84 71.3 299.33 70.67C299.3 70.63 299.27 70.59 299.24 70.55L298.98 70.62L298.92 70.86C302.83 74.44 307.36 78.1 311.68 81.17C312.2 81.54 312.49 81.95 312.81 82.49C314.01 84.51 322.24 106.9 322.53 109.04C322.57 109.33 322.51 109.52 322.44 109.79L322.34 110.18C321.31 110.18 320.22 109.4 319.26 109.03C308.96 105.02 300.99 96.24 295.1 87.19C293.78 85.16 292.32 83.06 291.34 80.84C290.54 83.73 287.72 89.77 285.55 91.79C284.98 86.7 284.88 81.96 285.32 76.85C286.59 67.73 289.58 60.05 293.43 51.78C295.65 48.22 298.23 44.8 300.27 41.14C301.25 39.38 304.46 31.38 303.95 29.57C304.57 29.04 309.04 19.22 309.93 17.62C312.1 13.66 314.69 9.93 317.65 6.51C319.44 4.45 321.45 2.54 323.14 0.4L323.26 0.25L323.21 0Z" fill="#F1BA57"/>
<path d="M229.23 43.5801C231 43.9401 239.93 50.0601 242.39 51.4301C249.28 55.7501 256.31 59.8501 263.16 64.2301C265.33 65.5101 267.71 67.3401 270 68.2801C271.69 69.5501 283.08 76.7301 284.4 76.9401C284.64 76.9801 285.08 76.8701 285.33 76.8401C284.89 81.9501 285 86.6901 285.56 91.7801C285.66 92.8601 285.85 94.0101 285.82 95.0901C287.56 102.44 289.59 109.44 292.97 116.24C294.53 119.38 296.37 122.37 298.08 125.43C297.39 133.09 296.16 140.69 295.29 148.33C295 150.87 294.38 153.95 294.51 156.47C294.61 158.4 294.32 159.97 293.53 161.73C294.1 163.7 292.82 174.37 292.26 176.82C291.91 181.09 288.8 213.75 289.5 214.97L289.91 215.11C285.52 215.63 280.93 215.53 276.51 215.66C274.65 215.71 272.62 215.64 270.8 215.99C265.52 216.42 259.87 216.05 254.56 216.06H254.33C250.13 216.55 245.69 216.3 241.46 216.3L219.97 216.26C212.26 216.45 204.5 216.26 196.78 216.26C188.75 216.61 180.5 216.33 172.46 216.26L157.89 216.21C153.88 216.35 149.79 216.18 145.77 216.16L120.78 216.05L109.24 216.07L85.21 216.05C85.54 208.51 84.63 199 84.39 191.24C83.7 173.36 83.14 155.48 82.72 137.6L83.55 137.06C85.54 137.04 92.87 133.15 95.41 132.26C97.45 131.55 99.43 131.18 101.58 131.02C100.7 129 99.69 125.66 100.14 123.45C112.4 125.53 140.26 110.33 151.15 103.68C155.15 101.24 158.9 98.4901 162.77 95.8601C164.63 94.1301 166.92 92.7501 168.87 91.1101C171.12 89.7001 173.22 87.7501 175.29 86.0801L187.53 76.2401C198.11 67.7501 208.92 59.5601 219.57 51.1701C220.91 50.5901 228.1 44.8201 229.22 43.6301L229.23 43.5801Z" fill="#5D70A9"/>
<path d="M229.23 43.5801C230.22 52.0801 231.58 60.3801 233.69 68.6801C234.74 72.8301 236.5 76.9701 237.23 81.1601C237.44 82.3801 237.58 83.6501 236.75 84.6801C235.24 86.5701 232.8 88.0101 230.67 89.1301C224.43 92.3901 191.52 105.6 185.88 106.06C179.67 106.56 167.8 100.36 163.32 96.4301C163.11 96.2501 162.93 96.0501 162.76 95.8301C164.62 94.1001 166.91 92.7201 168.86 91.0801C171.11 89.6701 173.21 87.7201 175.28 86.0501L187.52 76.2101C198.1 67.7201 208.91 59.5301 219.56 51.1401C220.9 50.5601 228.09 44.7901 229.21 43.6001L229.23 43.5801Z" fill="#6D83C0"/>
<path d="M154.6 107.07L155.33 103.79C158.73 114.18 162.16 124.52 165.19 135.02C167.57 143.29 169.55 151.79 172.29 159.95C172.35 160.7 172.53 161.32 172.06 161.98C171.25 163.11 168.8 162.86 168.99 164.55C169.31 167.49 174.72 173.64 175.89 177.27C177.21 181.36 172.43 184.66 177.23 188.19C177.68 188.52 178.27 188.62 178.71 188.94C178.12 190.86 176.64 194.22 177.19 196.13C178.62 198.25 184.14 199.59 183.9 202.16C183.45 202.69 183.32 202.98 182.57 203.02C180.58 203.12 177.46 201.67 175.54 201.04C173.98 204.29 172.43 212.43 172.46 216.21L157.89 216.16C153.88 216.3 149.79 216.13 145.77 216.11L120.78 216C121.63 212.55 124.18 202.92 126.71 200.79C128.49 199.29 130.94 198.51 132.53 196.77C133.01 196.24 133.21 195.85 133.18 195.14C131.92 194.37 128.74 195.08 127.29 195.24C128.91 190.86 130.05 186.23 131.25 181.73C132.27 181.69 133.44 181.77 134.43 181.57C135.09 181.43 136.01 180.96 136.37 180.36C136.62 179.94 136.63 179.57 136.44 179.12C135.83 177.71 133.62 177.19 132.29 176.72C133.54 172.49 135.03 167.64 137.37 163.91C138.6 161.95 140.2 160.22 141.41 158.25C141.85 157.54 142.21 157.08 142.01 156.22C140.87 155.46 139.1 155.16 137.78 154.78C138.35 152.76 139.09 150.8 139.81 148.83C144.31 138.22 148.22 126.16 151.78 115.16C152.66 112.44 153.75 109.8 154.6 107.07Z" fill="#586F55"/>
<path d="M154.6 107.07L155.33 103.79C158.73 114.18 162.16 124.52 165.19 135.02C167.57 143.29 169.55 151.79 172.29 159.95C172.35 160.7 172.53 161.32 172.06 161.98C171.25 163.11 168.8 162.86 168.99 164.55C169.31 167.49 174.72 173.64 175.89 177.27C177.21 181.36 172.43 184.66 177.23 188.19C177.68 188.52 178.27 188.62 178.71 188.94C178.12 190.86 176.64 194.22 177.19 196.13C178.62 198.25 184.14 199.59 183.9 202.16C183.45 202.69 183.32 202.98 182.57 203.02C180.58 203.12 177.46 201.67 175.54 201.04C173.98 204.29 172.43 212.43 172.46 216.21L157.89 216.16C156.9 215.88 155.77 215.94 154.74 215.92C155.16 190.71 154.74 165.42 154.74 140.2L154.77 118.8C154.79 114.92 155.24 110.89 154.59 107.06L154.6 107.07Z" fill="#3F5645"/>
<path d="M101.57 130.98C110.06 135.12 118.61 139.15 127.22 143.05C130.8 144.68 136.65 146.83 139.8 148.83C139.08 150.8 138.34 152.76 137.77 154.78C139.09 155.16 140.86 155.46 142 156.22C142.2 157.08 141.84 157.54 141.4 158.25C140.19 160.22 138.59 161.95 137.36 163.91C135.02 167.64 133.53 172.49 132.28 176.72C133.61 177.19 135.83 177.71 136.43 179.12C136.63 179.57 136.61 179.94 136.36 180.36C136.01 180.96 135.09 181.43 134.42 181.57C133.43 181.78 132.26 181.7 131.24 181.73C130.04 186.24 128.9 190.86 127.28 195.24C128.73 195.08 131.91 194.37 133.17 195.14C133.2 195.85 133 196.24 132.52 196.77C130.93 198.52 128.48 199.3 126.7 200.79C124.17 202.92 121.61 212.55 120.77 216L109.23 216.02L85.2 216C85.53 208.46 84.62 198.95 84.38 191.19C83.69 173.31 83.13 155.43 82.71 137.55L83.54 137.01C85.53 136.99 92.86 133.1 95.4 132.21C97.44 131.5 99.42 131.13 101.57 130.97V130.98Z" fill="#48507E"/>
<path d="M83.54 137.02C85.78 143.59 104.75 192.37 103.76 195.71C101.6 197.34 93.96 195.56 92.95 197.8C94.29 201.23 103.96 203.81 106.74 208.17C107.7 209.67 108.11 211.37 108.53 213.07C108.76 214.03 109.14 215.05 109.23 216.03L85.2 216.01C85.53 208.47 84.62 198.96 84.38 191.2C83.69 173.32 83.13 155.44 82.71 137.56L83.54 137.02Z" fill="#3F5645"/>
<path d="M263.16 64.22C265.33 65.5 267.71 67.33 270 68.27C271.69 69.54 283.08 76.72 284.4 76.93C284.64 76.97 285.08 76.86 285.33 76.83C284.89 81.94 285 86.68 285.56 91.77C285.66 92.85 285.85 94 285.82 95.08C287.56 102.43 289.59 109.43 292.97 116.23C294.53 119.37 296.37 122.36 298.08 125.42C297.39 133.08 296.16 140.68 295.29 148.32C295 150.86 294.38 153.94 294.51 156.46C294.61 158.39 294.32 159.96 293.53 161.72C294.1 163.69 292.82 174.36 292.26 176.81C291.91 181.08 288.8 213.74 289.5 214.96L289.91 215.1C285.52 215.62 280.93 215.52 276.51 215.65C274.65 215.7 272.62 215.63 270.8 215.98C265.52 216.41 259.87 216.04 254.56 216.05H254.33C250.13 216.54 245.69 216.29 241.46 216.29L219.97 216.25C212.26 216.44 204.5 216.25 196.78 216.25C188.75 216.6 180.5 216.32 172.46 216.25C172.43 212.47 173.98 204.33 175.54 201.08C177.46 201.71 180.58 203.16 182.57 203.06C183.32 203.02 183.45 202.73 183.9 202.2C184.14 199.63 178.63 198.29 177.19 196.17C176.64 194.25 178.12 190.89 178.71 188.98C178.27 188.67 177.68 188.57 177.23 188.23C172.43 184.7 177.21 181.4 175.89 177.31C174.72 173.68 169.3 167.53 168.99 164.59C168.81 162.9 171.26 163.14 172.06 162.02C172.53 161.36 172.35 160.74 172.29 159.99L174.32 159.54C177.5 158.26 180.96 157 183.53 154.65C189.89 148.8 188.13 134.04 195.27 126.19C200.24 120.72 208.51 118.04 215.09 114.97C220.75 112.33 226.7 109.19 231.36 104.98C236.5 100.34 238.85 93.69 241.81 87.63C244.24 82.63 250.72 71.46 254.58 67.87C257.25 65.39 260.91 66.11 263.02 64.39C263.07 64.35 263.11 64.31 263.15 64.27L263.16 64.22Z" fill="#515D92"/>
<path d="M196.03 136.53C196.36 135.59 196.66 134.63 197.1 133.73C200.58 145.6 204.24 157.54 207.35 169.51C208.95 175.53 210.61 181.53 212.35 187.5L217.27 205.5C218.23 209.02 219.42 212.63 219.99 216.23C212.28 216.42 204.52 216.23 196.8 216.23C188.77 216.58 180.52 216.3 172.48 216.23C172.45 212.45 174 204.31 175.56 201.06C177.48 201.69 180.6 203.14 182.59 203.04C183.34 203 183.47 202.71 183.92 202.18C184.16 199.61 178.65 198.27 177.21 196.15C176.66 194.23 178.14 190.87 178.73 188.96C178.29 188.65 177.7 188.55 177.25 188.21C172.45 184.68 177.23 181.38 175.91 177.29C174.74 173.66 169.32 167.51 169.01 164.57C168.83 162.88 171.28 163.12 172.08 162C172.55 161.34 172.37 160.72 172.31 159.97L174.34 159.52C176.33 161.1 184.02 162.97 186.69 163.07C189.82 154.24 193.17 145.47 196.04 136.55L196.03 136.53Z" fill="#AACA62"/>
<path d="M174.32 159.5C176.31 161.08 184 162.95 186.67 163.05C184.59 168.84 181.8 175.13 180.48 181.11C182.69 183.14 183.51 184.34 184.2 187.28C182.79 186.54 181.41 185.76 180.04 184.95L178.71 188.95C178.27 188.64 177.68 188.54 177.23 188.2C172.43 184.67 177.21 181.37 175.89 177.28C174.72 173.65 169.3 167.5 168.99 164.56C168.81 162.87 171.26 163.11 172.06 161.99C172.53 161.33 172.35 160.71 172.29 159.96L174.32 159.51V159.5Z" fill="#48507E"/>
<path d="M196.03 136.53C196.36 135.59 196.66 134.63 197.1 133.73C200.58 145.6 204.24 157.54 207.35 169.51C208.95 175.53 210.61 181.53 212.35 187.5L217.27 205.5C218.23 209.02 219.42 212.63 219.99 216.23C212.28 216.42 204.52 216.23 196.8 216.23C196.63 214.08 196.77 211.8 196.77 209.64V196.32L196.79 156.93L196.86 144.19C196.86 142.28 197.03 140.24 196.84 138.34C196.77 137.6 196.47 137.12 196.03 136.54V136.53Z" fill="#83A155"/>
<path d="M265.3 105.99C264.99 105.63 264.69 105.27 264.39 104.9C262.66 102.76 261.54 100.29 261.87 97.5C262.16 95.05 263.28 92.75 265.25 91.21C266.96 89.87 269.09 89.32 271.24 89.61C275.84 90.24 280.43 93.83 283.18 97.45C284.02 96.58 284.9 95.83 285.84 95.08C287.58 102.43 289.61 109.43 292.99 116.23C294.55 119.37 296.39 122.36 298.1 125.42C297.41 133.08 296.18 140.68 295.31 148.32C295.02 150.86 294.4 153.94 294.53 156.46C294.63 158.39 294.34 159.96 293.55 161.72C294.12 163.69 292.84 174.36 292.28 176.81C284.93 176.42 266.94 177.14 261.14 174.84C258.13 173.65 256.16 171.73 254.9 168.77C254.46 167.31 254.11 166.18 254.39 164.65C253.27 164.51 252.22 164.05 251.26 163.47C249.18 162.21 248.24 160.39 247.67 158.11C248.27 155.62 249.04 154.48 251.13 152.98C249.03 151.62 247.25 150.17 246.42 147.72C244.13 140.99 250.94 136.88 251.06 135.99C251.25 134.6 250.26 132.54 250.72 130.34C251.51 126.5 254.62 123.8 257.98 122.18C258.96 121.71 260.46 121.17 261.17 120.32C261.57 119.84 262.25 116.27 262.81 115.11C261.2 114.37 259.64 113.46 258.63 111.97C257.94 110.94 257.56 109.7 257.85 108.47C258.08 107.5 258.67 106.75 259.5 106.23C261.28 105.12 263.41 105.53 265.31 106.01L265.3 105.99Z" fill="#AACA62"/>
<path d="M286.2 154.47C282.4 145.99 277.31 138.1 273.19 129.78C278.29 135.59 287.55 156.47 294.14 158.17L294.52 156.46C294.62 158.39 294.33 159.96 293.54 161.72C292.94 161.35 292.46 160.92 291.95 160.44C286.63 155.06 278.59 151.78 271.97 148.19C270.51 147.4 268.16 146.44 267.05 145.25C268.47 145.28 283.41 153.19 286.19 154.48L286.2 154.47Z" fill="#293540"/>
<path d="M291.96 160.44C292.47 160.92 292.95 161.35 293.55 161.72C294.12 163.69 292.84 174.36 292.28 176.81C284.93 176.42 266.94 177.14 261.14 174.84C258.13 173.65 256.16 171.73 254.9 168.77C254.46 167.31 254.11 166.18 254.39 164.65C256.65 165.51 259.03 169.5 261.16 171.16C264.35 173.65 268.59 174.42 272.54 173.91C280.51 172.88 287.27 166.55 291.96 160.45V160.44Z" fill="#83A155"/>
<path d="M230.48 129.71C230.5 129.07 230.43 128.7 230.79 128.13C232.36 129.33 241.14 165.65 243.45 171.13C245.94 170.65 252.37 171.02 254.21 169.96C254.68 169.69 254.72 169.24 254.89 168.76C256.15 171.72 258.13 173.64 261.13 174.83C266.93 177.13 284.92 176.42 292.27 176.8C291.92 181.07 288.81 213.73 289.51 214.95L289.92 215.09C285.53 215.61 280.94 215.51 276.52 215.64C274.66 215.69 272.63 215.62 270.81 215.97C265.53 216.4 259.88 216.03 254.57 216.04H254.34C250.14 216.53 245.7 216.28 241.47 216.28L219.98 216.24C219.41 212.64 218.22 209.03 217.26 205.51L212.34 187.51C210.6 181.53 208.94 175.53 207.34 169.52C209.35 170.8 213.68 169.84 216.14 170.34C219.55 161.46 222.59 152.35 225.75 143.37L228.89 134.21C229.42 132.69 230.11 131.31 230.47 129.72L230.48 129.71Z" fill="#586F55"/>
<path d="M207.35 169.51C209.36 170.79 213.69 169.83 216.15 170.33C215.6 171.94 214.98 173.55 214.65 175.23L216.99 177.25C216.11 178.81 215.28 180.34 214.57 181.99C216.72 182.01 222.93 181.32 224.48 182.43C224.68 183.02 224.81 183.32 224.55 183.94C224.17 184.82 222.57 185.33 221.72 185.58C218.68 186.49 215.44 186.78 212.35 187.5C210.61 181.52 208.95 175.52 207.35 169.51Z" fill="#48507E"/>
<path d="M230.48 129.71C230.5 129.07 230.43 128.7 230.79 128.13C232.36 129.33 241.14 165.65 243.45 171.13C245.32 179.48 247.69 187.77 249.89 196.03C251.01 200.25 255 212.21 254.6 215.74C254.59 215.83 254.58 215.93 254.57 216.02H254.34C251.73 215.73 248.89 215.98 246.25 216.02C241.74 216.08 237.23 216.1 232.72 216.08C232.61 206.93 232.12 197.78 231.82 188.63L231.06 156.36C230.85 147.49 230.51 138.58 230.48 129.7V129.71Z" fill="#3F5645"/>
<path d="M254.89 168.76C256.15 171.72 258.13 173.64 261.13 174.83C266.93 177.13 284.92 176.42 292.27 176.8C291.92 181.07 288.81 213.73 289.51 214.95L289.92 215.09C285.53 215.61 280.94 215.51 276.52 215.64C274.66 215.69 272.63 215.62 270.81 215.97C265.53 216.4 259.88 216.03 254.57 216.04C254.57 215.95 254.59 215.85 254.6 215.76C255.01 212.23 251.02 200.27 249.89 196.05C247.69 187.78 245.32 179.49 243.45 171.15C245.94 170.67 252.37 171.04 254.21 169.98C254.68 169.71 254.72 169.26 254.89 168.78V168.76Z" fill="#395B6B"/>
<path d="M0 0H323.21L323.26 0.25L323.14 0.4C321.45 2.53 319.44 4.45 317.65 6.51C314.69 9.93 312.11 13.65 309.93 17.62C309.04 19.22 304.57 29.04 303.95 29.57C304.46 31.38 301.25 39.38 300.27 41.14C298.23 44.8 295.65 48.22 293.43 51.78C289.58 60.05 286.59 67.73 285.32 76.85C285.06 76.88 284.63 76.99 284.39 76.95C283.07 76.74 271.68 69.56 269.99 68.29C267.69 67.35 265.31 65.52 263.15 64.24C256.3 59.86 249.27 55.76 242.38 51.44C239.92 50.07 230.99 43.95 229.22 43.59C228.1 44.79 220.9 50.56 219.57 51.13C208.92 59.53 198.11 67.72 187.53 76.2L175.29 86.04C173.21 87.71 171.12 89.66 168.87 91.07C166.92 92.71 164.62 94.09 162.77 95.82C158.9 98.46 155.15 101.2 151.15 103.64C140.26 110.29 112.4 125.49 100.14 123.41C99.7 125.62 100.71 128.96 101.58 130.98C99.43 131.14 97.45 131.51 95.41 132.22C92.87 133.11 85.55 137 83.55 137.02L82.72 137.56C83.14 155.45 83.7 173.33 84.39 191.2C84.64 198.96 85.54 208.47 85.21 216.01H53.95L50.22 215.97L27.63 215.95C24.47 216.15 21.22 215.92 18.05 215.89C12.03 215.8 6.02 215.8 0 215.88L0 0Z" fill="#89AEFA"/>
<path d="M0 24.51C4.8 26.02 9.34 28.01 14.34 28.8C22.94 30.16 32.23 29.46 40.94 29.45H85.63L234.67 29.43H282.05H295.77C298.47 29.43 301.28 29.29 303.96 29.54C304.47 31.35 301.26 39.35 300.28 41.11C298.24 44.77 295.66 48.19 293.44 51.75C289.59 60.02 286.6 67.7 285.33 76.82C285.07 76.85 284.64 76.96 284.4 76.92C283.08 76.71 271.69 69.53 270 68.26C267.7 67.32 265.32 65.49 263.16 64.21C256.31 59.83 249.28 55.73 242.39 51.41C239.93 50.04 231 43.92 229.23 43.56C228.11 44.76 220.91 50.53 219.58 51.1C219.04 50.66 218.52 50.69 217.87 50.68C203.54 50.45 189.15 50.7 174.81 50.71L85.66 50.73H36.47L20.94 50.71C18.11 50.71 15.16 50.56 12.34 50.79C11.76 50.84 11.46 50.92 11.04 51.32C7.24 48.7 3.66 45.54 0.01 42.71V24.5L0 24.51Z" fill="#A6C4F9"/>
<path d="M293.17 51.71L293.44 51.77C289.59 60.04 286.6 67.72 285.33 76.84C285.07 76.87 284.64 76.98 284.4 76.94C283.08 76.73 271.69 69.55 270 68.28C272.64 66.15 275.55 64.25 278.31 62.27C283.23 58.7 288.18 55.18 293.17 51.71Z" fill="#5D70A9"/>
<path d="M11.03 51.34C11.45 50.94 11.74 50.86 12.33 50.81C15.15 50.58 18.1 50.72 20.93 50.73H36.46L85.65 50.75L174.8 50.73C189.14 50.73 203.52 50.47 217.86 50.7C218.52 50.71 219.04 50.68 219.57 51.12C208.92 59.52 198.11 67.71 187.53 76.19L175.29 86.03C173.21 87.7 171.12 89.65 168.87 91.06C166.92 92.7 164.62 94.08 162.77 95.81C158.9 98.45 155.15 101.19 151.15 103.63C140.26 110.28 112.4 125.48 100.14 123.4C96.15 120.7 92.31 117.26 88.6 114.18C82.7 109.72 76.98 104.91 71.29 100.19C68.74 98.31 66.29 96.26 63.8 94.29C57.25 88.85 50.68 83.45 44.07 78.08C40.45 75.12 36.71 72.24 33.23 69.11C31.75 68.42 16.56 55.91 14.44 53.91C13.26 53.1 12.15 52.21 11.03 51.32V51.34Z" fill="#CFE3F5"/>
<path d="M14.4401 53.93L14.7801 53.43C17.2301 53.13 22.3101 54.59 25.1301 54.95C32.3201 55.9 39.5401 56.64 46.7801 57.18C61.0201 58.16 75.4201 57.85 89.6801 57.58C97.6601 57.43 105.83 56.99 113.79 57.6C116.14 57.78 118.89 58.1 120.99 59.21C121.36 59.41 121.72 59.64 122.06 59.9C122.71 60.4 123.77 61.33 123.87 62.18C123.94 62.81 123.73 63.3 123.29 63.74C122.33 64.7 120.64 65.19 119.36 65.45C115.13 66.31 110.49 66.33 106.18 66.54C93.4501 67.14 80.68 66.74 67.9501 67.2C60.3501 67.47 52.8301 68.34 45.2501 68.7C42.8901 68.81 34.8101 68.38 33.3101 69.07L33.2201 69.11C31.7401 68.42 16.5501 55.91 14.4301 53.91L14.4401 53.93Z" fill="#A6C4F9"/>
<path d="M151.95 77.6499C155.99 80.7199 160 83.8099 163.99 86.9499C165.6 88.2399 167.5 89.5399 168.87 91.0699C166.92 92.7099 164.62 94.0899 162.77 95.8199C158.9 98.4599 155.15 101.2 151.15 103.64C140.26 110.29 112.4 125.49 100.14 123.41C96.15 120.71 92.31 117.27 88.6 114.19C82.7 109.73 76.98 104.92 71.29 100.2C73.51 97.9699 86.58 91.2699 90.15 89.4699L95.89 86.0299C98.44 88.5699 101.25 90.8699 103.95 93.2499C109.55 98.0999 115.08 103.04 120.52 108.07C130.85 97.7699 141.33 87.6299 151.95 77.6399V77.6499Z" fill="#89AEFA"/>
<path d="M71.28 100.21C73.5 97.98 86.57 91.28 90.14 89.48C91.52 92.64 97.12 105.22 96.21 107.99C95.37 110.56 90.5 112.38 88.59 114.19C82.69 109.73 76.97 104.92 71.28 100.2V100.21Z" fill="#A6C4F9"/>
<path d="M0 42.73C3.66 45.57 7.24 48.72 11.03 51.34C12.15 52.23 13.26 53.11 14.44 53.93C16.56 55.94 31.75 68.44 33.23 69.13C36.71 72.26 40.45 75.14 44.07 78.1C50.67 83.47 57.25 88.87 63.8 94.31C66.28 96.28 68.74 98.32 71.29 100.21C76.98 104.93 82.7 109.74 88.6 114.2C92.31 117.27 96.15 120.72 100.14 123.42C99.7 125.63 100.71 128.97 101.58 130.99C99.43 131.15 97.45 131.52 95.41 132.23C92.87 133.12 85.55 137.01 83.55 137.03L82.72 137.57C83.14 155.46 83.7 173.34 84.39 191.21C84.64 198.97 85.54 208.48 85.21 216.02H53.95L50.22 215.98L27.63 215.96C24.47 216.16 21.22 215.93 18.05 215.9C12.03 215.81 6.02 215.81 0 215.89L0 42.73Z" fill="#515D92"/>
<path d="M0 42.73C3.66 45.57 7.24 48.72 11.03 51.34C12.15 52.23 13.26 53.11 14.44 53.93C16.56 55.94 31.75 68.44 33.23 69.13C36.71 72.26 40.45 75.14 44.07 78.1C50.67 83.47 57.25 88.87 63.8 94.31C61.95 95.62 59.7 95.93 57.89 97.49C54.7 100.23 52.87 104.24 49.63 106.99C39.35 115.71 22.84 113.58 10.57 111.47C7.04 110.86 3.48 110.18 0.01 109.3V42.73H0Z" fill="#5D70A9"/>
<path d="M0 69.6599C1.73 72.0899 3.55 82.7899 3.06 85.8499C2.71 88.0499 1.67 90.0599 0 91.5399V69.6599Z" fill="#6D83C0"/>
<path d="M82.35 137.82L82.71 137.56C83.13 155.45 83.69 173.33 84.38 191.2C84.63 198.96 85.53 208.47 85.2 216.01H53.94L50.21 215.97L27.62 215.95C24.46 216.15 21.21 215.92 18.04 215.89C12.02 215.8 6.00999 215.8 -0.0100098 215.88V160.02C5.17999 159.97 15.08 159.78 19.89 158.57C21.31 154.6 22.64 150.6 24.02 146.61C24.22 145.92 24.34 145.43 24.88 144.92C26.2 145.59 29.93 155.8 30.95 157.91C35.31 157.08 39.7 156.78 43.99 155.52C50.32 153.66 56.34 150.28 62.27 147.41L82.34 137.82H82.35Z" fill="#48507E"/>
<path d="M82.3499 137.82L82.7099 137.56C83.1299 155.45 83.6899 173.33 84.3799 191.2C84.6299 198.96 85.5299 208.47 85.1999 216.01H53.9399C54.7299 215.14 59.7999 198.47 60.9599 195.44C63.0699 196.1 67.3399 197.6 69.4899 196.89C70.0999 196.69 70.4299 196.32 70.6199 195.7C71.3699 193.38 64.8399 190.31 63.7099 188.31C63.3699 187.7 63.7599 186.58 63.9499 185.95C65.5599 180.45 68.0799 175.01 70.1599 169.67C72.7599 163 75.1199 156.24 77.7499 149.59C79.2899 145.7 81.1399 141.81 82.3399 137.81L82.3499 137.82Z" fill="#586F55"/>
<path d="M24.02 146.61C24.22 145.92 24.34 145.43 24.88 144.92C26.2 145.59 29.93 155.8 30.95 157.91C38.01 176.77 45.69 196.31 50.21 215.98L27.62 215.96C24.46 216.16 21.21 215.93 18.04 215.9C12.02 215.81 6.00999 215.81 -0.0100098 215.89V160.03C5.17999 159.98 15.08 159.79 19.89 158.58C21.31 154.61 22.64 150.61 24.02 146.62V146.61Z" fill="#83A155"/>
<path d="M0 160.02C5.19 159.97 15.09 159.78 19.9 158.57C15.56 171.78 10.94 184.91 6.04 197.93C4.49 202.05 2.16 209.2 0 212.79V160.03L0 160.02Z" fill="#48507E"/>
<path d="M24.02 146.61C24.22 145.92 24.34 145.43 24.88 144.92C26.2 145.59 29.93 155.8 30.95 157.91C38.01 176.77 45.69 196.31 50.21 215.98L27.62 215.96C26.63 215.78 25.59 215.83 24.59 215.81C24.39 200.76 24.5 185.68 24.6 170.64C24.65 163.27 25.14 155.67 24.69 148.33C24.64 147.6 24.51 147.18 24.02 146.61Z" fill="#678154"/>
</g>
<defs>
<clipPath id="clip0_206_2598">
<rect width="400" height="300" fill="white"/>
</clipPath>
</defs>
</svg>
