<svg width="400" height="300" viewBox="0 0 400 300" fill="none" xmlns="http://www.w3.org/2000/svg">
<g clip-path="url(#clip0_206_2512)">
<path d="M400.23 177.73H-0.320068V300.56H400.23V177.73Z" fill="#9DBC49"/>
<path d="M400.27 0H-0.0400391V183.35H400.27V0Z" fill="#455C96"/>
<path d="M0 0H399.37C400.1 1.16 400.1 8.8 399.67 10.28C399.63 10.44 399.55 10.6 399.47 10.75C399.67 11.21 399.77 11.61 399.79 12.11C400 18 400.06 72.11 399.64 73.27C399.58 73.44 399.48 73.6 399.38 73.75C399.6 74.11 399.73 74.45 399.77 74.87C400.02 77.68 400.17 94.96 399.68 96.79C399.63 96.96 399.56 97.13 399.48 97.29C400.02 98.5 400.11 133.36 399.61 134.75C399.56 134.89 399.54 134.92 399.49 135.04C399.65 135.42 399.77 135.77 399.79 136.18C399.97 139.67 400.1 176.53 399.65 177.76C399.59 177.93 399.5 178.08 399.4 178.22C400 179.27 400.07 181.58 399.73 182.75C399.65 183.02 399.54 183.26 399.38 183.5C399.61 183.87 399.74 184.2 399.77 184.63C400.02 187.66 400.08 215.7 399.71 217.04C399.64 217.3 399.52 217.54 399.38 217.77C400.25 219.16 400.07 224.2 399.7 225.81C399.66 225.98 399.6 226.14 399.53 226.3C400.22 228.1 399.95 292.33 399.56 293.17C399.49 293.31 399.46 293.35 399.39 293.48C400.07 294.65 400.05 297.94 399.72 299.25C399.65 299.53 399.54 299.77 399.37 300.01H0V0Z" fill="#5E85CA"/>
<path d="M116.125 0H122.462C123.591 1.53 125.6 3.64 125.78 5.54C122.532 4.24 119.013 2 116.125 0Z" fill="#CCDFF3"/>
<path d="M122.462 0H128.469C129.758 4.01 137.065 9.5 137.735 11.73L137.425 12.02L136.875 11.89C134.956 10.32 128.519 7.37 125.77 5.54C125.59 3.64 123.581 1.53 122.452 0H122.462Z" fill="#FEFDFD"/>
<path d="M311.812 127.77C312.052 127.55 312.282 127.3 312.392 126.99C313.111 124.96 315.07 115.27 315.28 112.93C315.32 112.52 315.19 112.1 315.08 111.71C315.37 112.1 315.66 112.53 315.81 113C316.43 114.94 321.817 136.44 321.787 136.74C321.947 137.24 321.937 137.61 321.827 138.12C321.147 141.37 320.128 144.57 319.368 147.81C318.549 151.32 313.941 172.78 312.861 174.74C312.701 175.03 312.481 175.28 312.252 175.51C315.99 175.56 319.728 175.7 323.466 175.65C326.265 175.61 329.443 175.26 332.192 175.59C333.262 175.54 335.71 175.17 336.59 175.72C337.05 176.91 337.13 179.02 336.76 180.25C335.391 180.42 333.831 180.22 332.442 180.17C302.776 179.02 273.09 178.38 243.394 178.25L243.464 178.02C244.504 177.82 245.683 177.89 246.743 177.87C246.243 175.13 245.763 172.33 245.583 169.54C246.563 164.81 247.872 159.91 248.392 155.11C250.031 149.8 250.501 143.99 251.8 138.56C252.72 134.15 253.589 129.73 254.409 125.31L258.037 140.87C260.926 140.67 265.104 144.53 267.253 144.06C269.292 136.53 270.971 128.67 272.371 120.98C272.7 122.21 272.95 123.46 273.23 124.7C274.539 129.57 275.669 134.5 276.868 139.41C277.488 141.95 278.338 144.6 278.718 147.18C280.237 147.16 281.676 147.16 283.175 147.46C284.455 141.55 285.674 135.63 286.834 129.69C287.563 125.92 288.133 122.11 289.083 118.38C291.052 128.05 292.791 137.95 295.23 147.51C297.119 147.89 300.657 147.1 302.746 146.96C302.906 146.79 303.046 146.65 303.136 146.43C303.776 144.76 305.455 131.15 305.465 128.72C305.465 128.16 305.325 127.61 305.145 127.08C305.195 127.14 305.245 127.2 305.305 127.25C305.605 127.54 305.875 127.75 306.065 128.13C306.944 129.95 309.563 139.36 309.063 141.01C309.103 140.95 309.133 140.9 309.173 140.84C309.403 140.51 309.623 140.2 309.763 139.82C310.392 138.14 312.392 129 311.822 127.73V127.77H311.812Z" fill="#3B5488"/>
<path d="M332.202 175.59C333.272 175.54 335.721 175.17 336.6 175.72C337.06 176.91 337.14 179.02 336.77 180.25C335.401 180.42 333.841 180.22 332.452 180.17C332.572 179.98 332.682 179.82 332.732 179.6C332.972 178.56 332.792 176.47 332.202 175.59Z" fill="#2E4166"/>
<path d="M278.738 147.2C280.257 147.18 281.696 147.18 283.195 147.48C282.696 150.87 281.796 154.27 281.066 157.62L278.738 147.19V147.2Z" fill="#5777BE"/>
<path d="M295.24 147.54C297.129 147.92 300.667 147.13 302.756 146.99C303.186 147.92 301.707 160.86 301.127 162.27C301.047 162.46 300.957 162.64 300.847 162.82L300.747 163C300.667 163.14 300.567 163.28 300.477 163.42C300.917 161.45 299.598 158.07 299.128 156.04C298.768 159.25 299.098 162.59 298.588 165.75C297.699 161.46 296.919 157.17 296.159 152.85C295.859 151.14 295.33 149.26 295.25 147.54H295.24Z" fill="#4D6CAA"/>
<path d="M258.067 140.88C260.956 140.68 265.134 144.54 267.283 144.07C266.673 146.7 263.765 161.11 262.725 162.34C260.946 155.3 259.297 148.04 258.077 140.88H258.067Z" fill="#5777BE"/>
<path d="M272.401 121C272.73 122.23 272.98 123.48 273.26 124.72C272.8 125.81 273.39 126.42 273.42 127.47C273.44 128.26 272.471 128.7 272.471 129.74C272.471 131.26 272.69 132.79 272.73 134.32C272.96 143.4 273.38 152.47 273.74 161.55C273.96 167.07 274.29 172.65 274.16 178.17C270.961 178.27 267.733 178.37 264.544 178.17C264.344 172.97 263.735 167.45 262.735 162.34C263.775 161.11 266.683 146.7 267.293 144.07C269.332 136.54 271.011 128.68 272.411 120.99H272.401V121Z" fill="#455C96"/>
<path d="M136.885 11.89L137.435 12.02C141.723 14.75 146.78 16.82 151.368 19.04C166.301 26.08 181.454 32.66 196.797 38.78C200.505 40.3 213.099 44.65 215.618 46.66C218.736 49.15 223.844 58.02 226.612 61.74C229.241 65.7 233.779 73.11 237.307 75.9C240.696 78.58 246.513 81.14 250.391 83.23C255.289 86.34 302.286 111.15 302.856 112.29C304.775 111.42 331.223 92.56 331.772 91.75C332.012 92.18 332.112 92.55 332.042 93.05C331.283 98.55 329.563 104.45 328.374 109.95C326.545 118.31 325.026 126.91 322.737 135.14C322.537 135.85 322.447 136.31 321.807 136.74C321.837 136.45 316.45 114.95 315.83 113C315.68 112.53 315.39 112.1 315.1 111.71C315.21 112.1 315.34 112.52 315.3 112.93C315.08 115.27 313.131 124.96 312.412 126.99C312.302 127.3 312.072 127.55 311.832 127.77L311.782 127.5C307.574 125.15 303.576 122.4 299.508 119.79L275.299 104.34C271.001 101.62 266.743 98.67 262.295 96.21C255.639 97.68 248.822 98.78 242.105 100.01C235.228 101.27 228.322 102.67 221.405 103.67C216.977 99.37 212.849 94.64 208.621 90.14L177.086 56.23C168.93 47.59 160.544 39.14 152.308 30.57C148.01 26.11 143.562 21.71 139.584 16.97C138.304 15.45 137.505 13.77 136.895 11.89H136.885Z" fill="#5777BE"/>
<path d="M128.469 -9.76585e-06H285.824C280.257 4.94999 274.25 9.48999 269.242 15.03C266.823 17.7 264.864 20.8 262.665 23.64C259.267 28.03 255.549 32.4 251.89 36.58C250.091 38.64 246.343 41.21 245.114 43.5C240.056 47.11 235.558 52.67 231.28 57.16C229.901 58.61 228.262 60.63 226.602 61.73C223.834 58.02 218.726 49.14 215.608 46.65C213.089 44.64 200.505 40.28 196.787 38.77C181.444 32.66 166.301 26.07 151.358 19.03C146.77 16.81 141.713 14.74 137.425 12.01L137.735 11.72C137.065 9.48999 129.758 3.99999 128.469 -0.0100098V-9.76585e-06Z" fill="#A7CDFB"/>
<path d="M270.981 -9.76585e-06H274.79C268.562 10.15 262.845 21.3 254.909 30.23C256.488 25.63 258.557 20.92 260.596 16.5C260.816 15.52 261.516 14.33 261.906 13.36C263.195 10.15 264.604 7.10999 266.913 4.48999C268.203 3.02999 269.672 1.67999 270.871 0.13999L270.981 -0.0100098V-9.76585e-06Z" fill="#FEFDFD"/>
<path d="M154.327 0H162.403C164.262 2.15 169.769 4.98 172.338 6.78C179.275 11.62 185.642 17.36 191.669 23.27C193.578 25.14 195.667 26.97 197.206 29.15C190.05 25.29 183.203 20.54 176.416 16.07C169.469 11.5 159.944 5.96 154.327 0Z" fill="#CCDFF3"/>
<path d="M166.841 -9.76585e-06H217.897V8.68999C217.897 11.62 217.687 14.69 218.016 17.6C218.586 22.76 221.545 28.44 223.804 33.12C221.725 30.9 213.149 21.9 212.199 19.77L212.099 19.64C211.03 19.2 207.202 20.6 205.912 20.91C202.234 19.56 198.756 17.64 195.267 15.86C188.7 12.5 182.303 9.01999 175.896 5.35999C172.938 3.66999 169.5 2.07999 166.831 -0.0100098H166.841V-9.76585e-06Z" fill="#CCDFF3"/>
<path d="M181.214 0H209.151C205.422 2.2 201.534 4.13 197.856 6.4C196.766 6.73 195.517 7.66 194.508 8.23C190.29 5.22 185.462 3.02 181.214 0Z" fill="#6C94E1"/>
<path d="M209.151 -9.76585e-06H217.906V8.68999C217.906 11.62 217.697 14.69 218.026 17.6C218.596 22.76 221.555 28.44 223.814 33.12C221.735 30.9 213.159 21.9 212.209 19.77C212.889 17.29 212.879 8.64999 213.219 5.21999C209.281 6.25999 205.182 7.87999 201.584 9.79999C200.415 8.59999 199.105 7.50999 197.856 6.38999C201.534 4.11999 205.422 2.18999 209.151 -0.0100098V-9.76585e-06Z" fill="#FEFDFD"/>
<path d="M217.906 0H270.991L270.881 0.15C269.682 1.69 268.213 3.04 266.923 4.5C264.614 7.13 263.205 10.16 261.916 13.37C261.526 14.33 260.826 15.53 260.606 16.51C258.387 15.4 256.048 16.59 254.119 15.65C254.339 15.19 254.569 14.94 254.459 14.44C252.39 14.83 242.865 24.37 239.876 26.26C241.265 23.52 242.765 20.83 244.104 18.06C241.315 21.74 237.357 25.08 234.109 28.38C232.52 26.35 218.916 8.88 218.396 8.54L217.906 8.7V0Z" fill="#CCDFF3"/>
<path d="M262.545 0H264.704C262.325 4.15 255.789 10.5 251.091 11.87C250.861 11.94 250.661 11.95 250.431 11.97L249.911 11.66C254.389 8 258.497 4.12 262.545 0.01V0Z" fill="#FEFDFD"/>
<path d="M223.824 -9.76585e-06H262.545C258.497 4.10999 254.379 7.98999 249.911 11.65C247.702 12.88 245.423 14.87 243.434 16.44C241.765 14.71 239.696 13.18 237.827 11.65C233.159 7.81999 228.232 4.11999 223.824 -0.0100098V-9.76585e-06Z" fill="#6C94E1"/>
<path d="M369.415 64.96C375.622 66.11 382.838 68.62 388.875 70.64C392.274 71.78 395.802 73.25 399.37 73.73C399.59 74.09 399.72 74.43 399.76 74.85C400.01 77.66 400.16 94.94 399.67 96.77C399.62 96.94 399.55 97.11 399.47 97.27C400.01 98.48 400.1 133.34 399.6 134.73C399.55 134.87 399.53 134.9 399.48 135.02C399.64 135.4 399.76 135.75 399.78 136.16C399.96 139.65 400.09 176.51 399.64 177.74C399.58 177.91 399.49 178.06 399.39 178.2C397.391 178.23 395.212 178.09 393.253 178.47L388.486 178.49C388.855 179.47 389.085 181.33 388.605 182.3C388.525 182.47 388.466 182.55 388.356 182.72C386.806 182.74 385.327 182.66 383.788 182.49C378.01 182.59 372.123 181.97 366.346 181.66C358.7 181.25 351.023 181.07 343.397 180.5C341.288 180.69 338.869 180.52 336.76 180.24C337.13 179.01 337.05 176.9 336.59 175.71C335.711 175.16 333.262 175.54 332.192 175.58C329.444 175.25 326.265 175.61 323.466 175.64C319.728 175.69 315.99 175.55 312.252 175.5C312.482 175.27 312.702 175.02 312.861 174.73C313.941 172.77 318.549 151.32 319.368 147.8C320.128 144.56 321.148 141.36 321.827 138.11C321.937 137.6 321.937 137.23 321.787 136.73C322.437 136.3 322.527 135.84 322.717 135.13C325.006 126.9 326.525 118.29 328.354 109.94C329.554 104.45 331.263 98.54 332.022 93.04C332.092 92.54 331.992 92.17 331.752 91.74C332.002 91.53 332.232 91.29 332.382 90.99C333.302 89.13 335.731 78.46 335.051 76.7C335.151 76.83 335.251 76.95 335.341 77.08L335.461 77.25C336.54 78.74 337.61 84.82 337.35 86.7C337.75 86.7 338.089 86.65 338.429 86.45C343.027 83.75 347.855 79.85 352.283 76.76C357.93 72.81 363.907 69.1 369.405 64.96H369.415Z" fill="#51716D"/>
<path d="M391.084 109.01C391.644 107.21 390.084 104.32 391.164 102.71L391.404 103.04C392.174 104.22 392.684 106.81 392.454 108.22L391.954 107.79C391.844 108.39 391.844 108.56 391.294 108.9C391.224 108.94 391.154 108.97 391.084 109.01Z" fill="#4C6759"/>
<path d="M383.758 178.32C384.837 178.3 387.616 177.93 388.486 178.5C388.855 179.48 389.085 181.34 388.606 182.31C388.526 182.48 388.466 182.56 388.356 182.73C386.806 182.75 385.327 182.67 383.788 182.5C384.138 181.24 384.547 179.92 384.308 178.62L383.748 178.32H383.758Z" fill="#455C96"/>
<path d="M399.48 97.29C400.02 98.5 400.11 133.36 399.61 134.75C399.56 134.89 399.54 134.92 399.49 135.04C399.65 135.42 399.77 135.77 399.79 136.18C399.97 139.67 400.1 176.53 399.65 177.76C399.59 177.93 399.5 178.08 399.4 178.22C397.401 178.25 395.222 178.11 393.263 178.49L388.495 178.51C389.795 178.16 391.374 178.27 392.723 178.23C393.243 176.31 392.424 166.62 392.374 163.95L391.634 126.32C391.544 121.47 391.664 116.6 391.504 111.75C391.474 110.8 391.424 109.93 391.084 109.03C391.154 108.99 391.224 108.96 391.294 108.92C391.844 108.58 391.844 108.41 391.954 107.81L392.454 108.24C392.683 106.83 392.184 104.24 391.404 103.06L391.474 102.33L391.014 102.03C393.353 101.62 397.401 98.66 399.49 97.31V97.29H399.48Z" fill="#436365"/>
<path d="M399.48 97.29C400.02 98.5 400.11 133.36 399.61 134.75C399.56 134.89 399.54 134.92 399.49 135.04C398.73 133.69 398.451 131.67 398.061 130.15C397.211 126.84 393.413 109.86 392.453 108.23C392.683 106.82 392.184 104.23 391.404 103.05L391.474 102.32L391.014 102.02C393.353 101.61 397.401 98.65 399.49 97.3H399.48V97.29Z" fill="#4D6CAA"/>
<path d="M367.805 117.23C368.115 117.23 368.355 117.22 368.645 117.06C370.834 115.8 372.933 114.11 375.062 112.73C380.08 109.49 385.267 106.35 390.065 102.82L390.225 103.03L390.125 103.36C390.355 103.51 390.415 103.47 390.475 103.76C390.884 105.47 388.715 113.22 388.276 115.48C385.437 130.34 383.008 145.17 379.1 159.81C378.69 161.34 378.34 163.9 377.441 165.2C377.281 165.43 377.061 165.6 376.831 165.75C377.121 162.48 376.361 158.53 375.852 155.28C374.532 146.78 372.553 138.29 370.784 129.87C370.124 126.73 369.145 119.77 367.795 117.24L367.805 117.23Z" fill="#4D6CAA"/>
<path d="M349.624 104.91C349.784 105.12 349.934 105.33 350.084 105.54C350.244 105.76 350.404 105.96 350.513 106.21C351.143 107.64 351.883 111.07 351.283 112.52C351.983 113.19 353.992 124.59 353.962 125.8C353.962 126.02 353.892 126.25 353.822 126.46C354.102 126.55 354.352 126.68 354.652 126.62C355.331 126.46 365.706 119.48 365.996 119.02C366.716 118.33 366.986 116.66 367.276 115.7L367.535 115.57C367.805 116.12 367.795 116.62 367.795 117.23C369.145 119.76 370.124 126.73 370.784 129.86C372.543 138.28 374.522 146.77 375.851 155.27C376.361 158.52 377.121 162.47 376.831 165.74C377.311 167.36 375.272 176.02 374.412 177.55C374.272 177.8 374.112 178.02 373.922 178.24C377.201 178.21 380.479 178.24 383.758 178.31L384.317 178.61C384.557 179.92 384.148 181.24 383.798 182.49C378.02 182.59 372.133 181.97 366.356 181.66C358.71 181.25 351.033 181.07 343.407 180.5C341.298 180.69 338.879 180.52 336.77 180.24C337.14 179.01 337.06 176.9 336.6 175.71C337.969 175.24 339.819 175.44 341.258 175.42C343.837 175.28 354.102 175.72 355.681 175.28C355.971 173.65 347.555 132.73 346.265 129.5L347.185 129.16C347.225 129.08 347.295 128.92 347.325 128.83C347.965 126.75 350.104 108.54 350.034 106.28C350.014 105.78 349.864 105.33 349.634 104.9L349.624 104.91Z" fill="#3B5488"/>
<path d="M336.6 175.72C337.969 175.25 339.819 175.45 341.258 175.43C342.018 175.46 343.417 175.32 344.027 175.73C344.097 177.02 344.107 179.43 343.397 180.52C341.288 180.71 338.869 180.54 336.76 180.26C337.13 179.03 337.05 176.92 336.59 175.73H336.6V175.72Z" fill="#455C96"/>
<path d="M366.006 119.02C366.206 119.42 366.276 119.71 366.226 120.15C366.006 122.49 365.456 124.88 365.067 127.2C364.337 131.52 363.637 135.84 362.968 140.17L361.189 151.61C360.909 153.43 360.779 155.5 360.299 157.27C360.199 157.65 359.969 157.86 359.629 158.03C359.719 155.91 354.622 127.53 353.832 126.47C354.112 126.56 354.362 126.69 354.662 126.63C355.341 126.47 365.716 119.49 366.006 119.03V119.02Z" fill="#4D6CAA"/>
<path d="M349.624 104.91C349.784 105.12 349.934 105.33 350.084 105.54C350.244 105.76 350.404 105.96 350.514 106.21C351.143 107.64 351.883 111.07 351.283 112.52C351.983 113.19 353.992 124.59 353.962 125.8C353.962 126.02 353.892 126.25 353.822 126.46C354.622 127.52 359.719 155.91 359.619 158.02C360.069 158.61 362.628 173.63 362.498 174.64C362.468 174.88 362.368 175.09 362.258 175.3C360.379 175.41 358.52 175.43 356.641 175.43L355.661 175.28C355.951 173.65 347.535 132.73 346.246 129.5L347.165 129.16C347.205 129.08 347.275 128.92 347.305 128.83C347.945 126.75 350.084 108.54 350.014 106.28C349.994 105.78 349.844 105.33 349.614 104.9H349.624V104.91Z" fill="#436365"/>
<path d="M349.624 104.91C349.784 105.12 349.934 105.33 350.084 105.54C350.244 105.76 350.404 105.96 350.514 106.21C351.143 107.64 351.883 111.07 351.283 112.52L351.303 133.04C351.313 137.73 351.173 142.48 351.633 147.15C352.223 153.15 353.712 159.19 354.931 165.1C355.241 166.58 357.23 174.75 356.651 175.44L355.671 175.29C355.961 173.66 347.545 132.74 346.256 129.51L347.175 129.17C347.215 129.09 347.285 128.93 347.315 128.84C347.955 126.76 350.094 108.55 350.024 106.29C350.004 105.79 349.854 105.34 349.624 104.91Z" fill="#51716D"/>
<path d="M335.061 76.72C335.161 76.85 335.261 76.97 335.351 77.1L335.471 77.27C336.55 78.76 337.62 84.84 337.36 86.72C337.65 87.1 337.79 87.43 337.91 87.89C338.779 91.42 346.525 128.15 346.326 129.23C346.306 129.33 346.286 129.42 346.266 129.52C347.565 132.75 355.971 173.67 355.681 175.3C354.102 175.73 343.837 175.3 341.258 175.44C339.819 175.46 337.97 175.27 336.6 175.73C335.721 175.18 333.272 175.56 332.202 175.6C329.454 175.27 326.275 175.63 323.476 175.66C319.738 175.71 316 175.57 312.262 175.52C312.492 175.29 312.711 175.04 312.871 174.75C313.951 172.79 318.559 151.34 319.378 147.82C320.138 144.58 321.157 141.38 321.837 138.13C321.947 137.62 321.947 137.25 321.797 136.75C322.447 136.32 322.537 135.86 322.727 135.15C325.016 126.92 326.535 118.31 328.364 109.96C329.563 104.47 331.273 98.56 332.032 93.06C332.102 92.56 332.002 92.19 331.762 91.76C332.012 91.55 332.242 91.31 332.392 91.01C333.312 89.15 335.741 78.48 335.061 76.72Z" fill="#3C5B5D"/>
<path d="M369.415 64.96C375.622 66.11 382.838 68.62 388.875 70.64C392.274 71.78 395.802 73.25 399.37 73.73C399.59 74.09 399.72 74.43 399.76 74.85C400.01 77.66 400.16 94.94 399.67 96.77C399.62 96.94 399.55 97.11 399.47 97.27C397.391 98.62 393.333 101.59 390.994 101.99C390.694 102.42 390.525 102.56 390.055 102.8C385.247 106.34 380.06 109.48 375.052 112.71C372.923 114.09 370.824 115.78 368.635 117.04C368.355 117.2 368.115 117.21 367.795 117.21C367.795 116.6 367.805 116.11 367.535 115.55L367.276 115.68C366.986 116.64 366.716 118.31 365.996 119C365.706 119.46 355.331 126.45 354.652 126.6C354.352 126.67 354.102 126.53 353.822 126.44C353.892 126.23 353.962 126 353.962 125.78C353.992 124.57 351.983 113.17 351.283 112.5C351.883 111.05 351.143 107.62 350.514 106.19C350.404 105.94 350.244 105.74 350.084 105.52C349.924 105.31 349.784 105.09 349.624 104.89C349.854 105.33 350.014 105.77 350.024 106.27C350.094 108.52 347.955 126.74 347.315 128.82C347.285 128.92 347.215 129.07 347.175 129.15L346.256 129.49C346.276 129.39 346.296 129.3 346.316 129.2C346.516 128.12 338.769 91.39 337.9 87.86C337.79 87.4 337.64 87.07 337.35 86.69C337.75 86.69 338.089 86.64 338.429 86.44C343.027 83.74 347.855 79.84 352.283 76.75C357.93 72.8 363.907 69.09 369.405 64.95H369.415V64.96Z" fill="#5777BE"/>
<path d="M0 0H103.311C91.0867 9.92 81.3114 20.34 79.6322 36.72C79.0824 41.76 79.4623 46.85 80.7516 51.75C81.1215 53.18 82.011 54.95 82.181 56.35C84.4499 58.28 92.9059 62.12 96.1843 63.88C107.189 69.79 118.224 75.63 129.309 81.38C134.836 84.24 140.383 87.43 146.141 89.79C152.408 92.35 159.074 94.27 165.501 96.42C168.38 97.38 171.309 98.26 174.057 99.56C177.796 101.32 181.194 104.01 184.622 106.29C189.31 109.37 194.078 112.32 198.926 115.15C204.113 118.13 209.421 120.91 214.828 123.47C218.216 125.08 221.875 126.49 225.113 128.34C225.253 127.69 225.403 127.08 225.633 126.46L225.963 126.29C226.372 127.18 226.552 128.12 226.762 129.07C229.971 129.74 233.689 132.43 236.897 132.27L237.287 132.2C237.537 132.53 237.687 132.73 237.797 133.14C242.545 134.7 247.173 136.77 251.83 138.58C250.531 144.01 250.061 149.82 248.422 155.13C247.902 159.93 246.593 164.83 245.613 169.56C245.793 172.35 246.273 175.14 246.773 177.89C245.703 177.91 244.534 177.84 243.494 178.04C239.986 178.21 236.408 178.04 232.899 178.04C228.761 177.85 224.563 177.99 220.425 177.99C213.349 177.99 206.282 178.01 199.205 178.09C196.916 178.07 194.638 178.03 192.349 177.97C191.939 174.87 191.399 171.83 190.789 168.76C190.949 168.65 190.919 168.68 191.079 168.51C191.629 167.91 196.197 139.47 195.987 137.24C193.448 136.68 189.02 134.02 186.491 132.78L164.142 121.81C128.309 104.4 92.1662 87.63 57.0329 68.81C46.7678 63.32 36.4727 57.79 26.4674 51.84C21.7497 54.96 17.2318 58.66 12.8339 62.22C11.0448 63.67 9.2556 65.42 7.34651 66.69C7.04665 66.89 6.68682 66.96 6.33699 67.01C4.88768 59.89 3.51833 52.76 2.22894 45.61L1.90909 44.44C1.51928 42.1 1.29938 37.95 0.0199905 35.99V0H0Z" fill="#5777BE"/>
<path d="M225.113 128.34C225.253 127.69 225.403 127.08 225.633 126.46L225.963 126.29C226.372 127.18 226.552 128.12 226.762 129.07C229.971 129.74 233.689 132.43 236.897 132.27L237.287 132.2C237.537 132.53 237.687 132.73 237.797 133.14C242.545 134.7 247.173 136.77 251.83 138.58C250.531 144.01 250.061 149.82 248.422 155.13C247.902 159.93 246.593 164.83 245.613 169.56C245.793 172.35 246.273 175.14 246.773 177.89C245.703 177.91 244.534 177.84 243.494 178.04C239.986 178.21 236.408 178.04 232.899 178.04C228.761 177.85 224.563 177.99 220.425 177.99C213.349 177.99 206.282 178.01 199.205 178.09C196.916 178.07 194.637 178.03 192.349 177.97C191.939 174.87 191.399 171.83 190.789 168.76C190.949 168.65 190.919 168.68 191.079 168.51C191.629 167.91 196.197 139.47 195.987 137.24L196.846 137.9C201.154 139.55 205.192 141.87 209.47 143.55C210.58 139.3 211.599 135.03 212.509 130.73C213.259 135.69 213.898 140.71 214.888 145.63C217.027 145.82 218.996 146.71 220.945 147.55C222.074 141.14 223.584 134.68 225.113 128.35V128.34Z" fill="#3B5488"/>
<path d="M214.878 145.62C217.017 145.81 218.986 146.7 220.935 147.54C219.616 151.09 218.326 160.17 217.527 164.42C216.567 158.22 215.388 151.86 214.878 145.62Z" fill="#4D6CAA"/>
<path d="M226.762 129.07C229.971 129.74 233.689 132.43 236.897 132.27C236.488 133.49 236.108 134.79 235.948 136.07C234.119 142.26 233.129 148.77 231.63 155.06C230.86 151.91 230.44 148.65 229.851 145.46C228.791 140 227.762 134.54 226.762 129.08V129.07Z" fill="#5777BE"/>
<path d="M196.836 137.89C201.144 139.54 205.182 141.86 209.46 143.54C207.411 152.5 205.642 161.56 203.923 170.59C202.764 166.84 202.034 162.9 201.154 159.08C199.855 153.4 198.486 147.71 197.546 141.95C197.456 140.6 196.946 139.26 196.826 137.88L196.836 137.89Z" fill="#4D6CAA"/>
<path d="M195.977 137.23L196.836 137.89C196.956 139.27 197.466 140.6 197.556 141.96C197.186 142.46 197.046 142.87 197.036 143.48C196.986 146.83 197.666 150.36 197.886 153.72C198.406 161.83 198.785 169.97 199.175 178.09C196.886 178.07 194.607 178.03 192.319 177.97C191.909 174.87 191.369 171.83 190.759 168.76C190.919 168.65 190.889 168.68 191.049 168.51C191.599 167.91 196.167 139.47 195.957 137.24H195.977V137.23Z" fill="#455C96"/>
<path d="M236.898 132.27L237.287 132.2C237.537 132.53 237.687 132.73 237.797 133.14C242.545 134.7 247.173 136.77 251.83 138.58C250.531 144.01 250.061 149.82 248.422 155.13C247.902 159.93 246.593 164.83 245.613 169.56C245.793 172.35 246.273 175.14 246.773 177.89C245.703 177.91 244.534 177.84 243.494 178.04C239.986 178.21 236.408 178.04 232.899 178.04C232.939 169.88 235.298 159.24 236.228 150.93C236.538 148.13 236.358 145.27 236.468 142.46C236.548 140.46 236.977 138.21 236.348 136.28L235.968 136.09C236.128 134.81 236.498 133.51 236.918 132.29L236.898 132.27Z" fill="#455C96"/>
<path d="M241.865 153.98C244.084 153.98 246.283 154.58 248.422 155.12C247.902 159.92 246.593 164.82 245.613 169.55C244.204 167.55 242.515 157.07 241.865 153.98Z" fill="#4D6CAA"/>
<path d="M237.797 133.13C242.545 134.69 247.173 136.76 251.83 138.57C250.531 144 250.061 149.81 248.422 155.12C246.283 154.58 244.084 153.97 241.865 153.98C240.846 149.98 240.086 145.93 239.296 141.88C238.727 139 238.017 136.06 237.807 133.13H237.797Z" fill="#5777BE"/>
<path d="M0 0H103.311C91.0867 9.92 81.3114 20.34 79.6322 36.72C79.0824 41.76 79.4623 46.85 80.7516 51.75C81.1215 53.18 82.011 54.95 82.181 56.35C78.4927 54.8 74.8944 52.64 71.3661 50.77C62.0705 45.85 52.8149 40.51 43.3294 35.99C37.7621 39.05 32.4146 42.75 27.0172 46.11C24.7682 47.51 22.3594 49.29 19.8906 50.24C15.9724 49.29 12.0843 48.15 8.18611 47.11C6.21705 46.59 4.12804 46.25 2.20895 45.59L1.8891 44.42C1.49929 42.08 1.27939 37.93 0 35.97V0Z" fill="#6C94E1"/>
<path d="M0 0H47.2076C40.9006 9.22 34.2637 18.23 27.7868 27.33C20.6502 25.03 13.3936 23.06 6.27702 20.73C4.18801 20.08 2.099 19.46 0 18.85V0Z" fill="#A7CDFB"/>
<path d="M16.5022 0H25.8777C23.2789 2.24 3.13851 12.1 0 12.68V11.5C5.17754 8.49 11.4646 3.58 16.5022 0Z" fill="#FEFDFD"/>
<path d="M0 0H16.5022C11.4646 3.58 5.17754 8.49 0 11.5V0Z" fill="#6C94E1"/>
<path d="M285.824 0H399.37C400.1 1.16 400.1 8.8 399.67 10.28C399.63 10.44 399.55 10.6 399.47 10.75C399.67 11.21 399.77 11.61 399.79 12.11C400 18 400.06 72.11 399.64 73.27C399.58 73.44 399.48 73.6 399.38 73.75C395.812 73.27 392.284 71.8 388.885 70.66C382.838 68.64 375.622 66.13 369.424 64.98C363.927 69.12 357.96 72.84 352.303 76.78C347.875 79.87 343.047 83.76 338.449 86.47C338.099 86.67 337.77 86.73 337.37 86.72C337.63 84.84 336.55 78.76 335.481 77.27L335.361 77.1C335.271 76.97 335.171 76.85 335.071 76.72C335.74 78.48 333.322 89.14 332.402 91.01C332.252 91.31 332.022 91.55 331.772 91.76C331.223 92.56 304.785 111.43 302.856 112.3C302.286 111.16 255.289 86.35 250.391 83.24C246.513 81.16 240.696 78.59 237.307 75.91C233.779 73.12 229.241 65.71 226.612 61.75C228.272 60.65 229.911 58.63 231.29 57.18C235.558 52.69 240.056 47.13 245.124 43.52C246.353 41.23 250.101 38.66 251.9 36.6C255.559 32.42 259.267 28.05 262.675 23.66C264.884 20.82 266.843 17.72 269.252 15.05C274.26 9.51 280.267 4.97 285.834 0.02V0H285.824Z" fill="#6C94E1"/>
<path d="M378.45 0H399.37C400.1 1.16 400.1 8.8 399.67 10.28C399.63 10.44 399.55 10.6 399.47 10.75C396.732 12.95 377.551 28.43 375.522 28.55L375.072 28.27C369.904 33.01 340.608 64.1 338.579 64.9C328.064 62.67 317.699 60.14 307.324 57.38C305.865 56.99 303.526 56.81 302.316 56.06C304.425 55.93 306.824 55.61 308.743 54.68C310.972 53.61 313.101 51.98 315.19 50.63L327.604 42.61L349.794 28.24C353.392 25.9 357.69 23.66 360.799 20.72C363.347 18.31 377.511 2.98 378.43 0.64C378.48 0.51 378.44 0.16 378.45 0.01V0Z" fill="#5E85CA"/>
<path d="M391.374 0H399.37C400.1 1.16 400.1 8.8 399.67 10.28C399.63 10.44 399.55 10.6 399.47 10.75C396.731 12.95 377.551 28.43 375.522 28.55L375.072 28.27C375.072 28.27 375.142 28.24 375.182 28.22C376.301 27.63 387.836 14.59 389.225 12.74C389.845 11.9 390.295 11.19 390.584 10.18C391.124 8.28 392.184 1.48 391.374 0Z" fill="#81ADFD"/>
<path d="M285.824 -9.76585e-06H378.45C378.45 0.14999 378.49 0.50999 378.43 0.62999C377.511 2.97999 363.347 18.3 360.799 20.71C357.69 23.66 353.392 25.89 349.794 28.23L327.604 42.6L315.19 50.62C313.111 51.97 310.972 53.59 308.743 54.67C306.824 55.6 304.425 55.92 302.316 56.05C297.958 56.3 293.58 57.01 289.233 57.43C285.134 57.82 281.056 57.93 276.958 58.24C279.607 55.82 282.236 53.38 284.845 50.93C283.165 49.03 281.816 46.71 280.956 44.32C281.486 41.96 282.136 39.75 283.035 37.5C277.418 44.5 271.071 50.52 266.034 58.03C261.446 64.87 257.927 72.27 253.25 79.08C252.32 80.44 251.45 81.95 250.381 83.21C246.503 81.13 240.686 78.56 237.297 75.88C233.769 73.09 229.231 65.68 226.602 61.72C228.262 60.62 229.901 58.6 231.28 57.15C235.548 52.66 240.046 47.1 245.113 43.49C246.343 41.2 250.091 38.63 251.89 36.57C255.549 32.39 259.257 28.02 262.665 23.63C264.874 20.79 266.833 17.69 269.242 15.02C274.25 9.47999 280.257 4.93999 285.824 -0.0100098V-9.76585e-06Z" fill="#81ADFD"/>
<path d="M347.995 0H352.273C352.273 0.12 352.323 0.51 352.273 0.6C351.623 2.06 345.726 9.11 344.336 10.62C344.157 10.82 343.947 10.99 343.727 11.16C343.717 11.21 343.707 11.27 343.687 11.32C343.037 13.04 338.039 18.16 336.28 18.98C336.32 18.94 336.37 18.9 336.41 18.85C338.759 16.6 340.128 12.56 341.768 9.73C342.777 7.98 343.987 6.34 345.166 4.69C346.016 3.5 347.955 1.4 347.995 0Z" fill="#FEFDFD"/>
<path d="M293.211 0H298.298C289.692 7.7 280.407 14.71 271.301 21.8C269.532 23.18 265.694 26.68 263.935 27.35C263.755 27.42 263.345 27.39 263.135 27.41L293.211 0Z" fill="#FEFDFD"/>
<path d="M352.273 0H371.004L370.934 0.63C364.697 5.34 356.091 8.79 348.555 10.72C347.455 11 345.886 11.53 344.756 11.38C344.546 11.35 344.546 11.34 344.347 11.3C344.137 11.26 343.947 11.22 343.737 11.16C343.957 11 344.157 10.83 344.347 10.62C345.736 9.12 351.623 2.06 352.283 0.6C352.323 0.51 352.283 0.12 352.283 0L352.273 0Z" fill="#A7CDFB"/>
<path d="M316.999 -9.76585e-06H322.737C322.737 0.14999 322.757 0.50999 322.707 0.62999C322.697 0.65999 308.573 17.73 307.524 18.72C307.514 18.76 307.504 18.8 307.494 18.83C306.624 21.12 292.011 31.7 289.223 33.27C292.461 29.69 316.89 1.96999 316.999 -0.0100098V-9.76585e-06Z" fill="#FEFDFD"/>
<path d="M301.497 0H310.253L310.143 0.55C305.445 5.25 299.828 9.42 294.77 13.74C287.653 19.82 279.517 27.63 271.661 32.56C273.78 29.9 276.439 27.48 278.758 24.98L294.99 7.5C296.379 6.02 300.547 2.06 301.397 0.61C301.457 0.51 301.467 0.13 301.477 0L301.497 0Z" fill="#FEFDFD"/>
<path d="M285.824 0H293.211L263.145 27.41C260.536 29.28 246.363 43.42 245.163 43.52C245.143 43.52 245.124 43.52 245.104 43.52C246.333 41.23 250.081 38.66 251.88 36.6C255.539 32.42 259.247 28.05 262.655 23.66C264.864 20.82 266.823 17.72 269.232 15.05C274.24 9.51 280.247 4.97 285.814 0.02L285.824 0Z" fill="#6C94E1"/>
<path d="M322.737 0H344.706C344.636 0.81 344.316 1.09 343.697 1.61C340.768 4.09 334.471 5.09 330.743 6.46C328.924 7.13 327.125 8.16 325.445 9.12C321.977 11.09 310.732 18.96 307.524 18.72C308.573 17.72 322.697 0.65 322.707 0.63C322.757 0.51 322.727 0.15 322.737 0Z" fill="#A7CDFB"/>
<path d="M-1.45137e-05 35.97C1.28937 37.94 1.49927 42.08 1.88909 44.42L2.20894 45.59C3.49832 52.74 4.86767 59.87 6.31699 66.99C6.66682 66.94 7.02665 66.87 7.32651 66.67C9.24559 65.4 11.0247 63.65 12.8139 62.2C17.2118 58.64 21.7297 54.94 26.4474 51.82C36.4527 57.77 46.7478 63.3 57.0129 68.79C92.1462 87.61 128.289 104.38 164.122 121.79L186.471 132.76C189 134 193.428 136.66 195.967 137.22C196.177 139.45 191.609 167.89 191.059 168.49C190.899 168.67 190.929 168.63 190.769 168.74C188.93 162.12 187.701 155.23 186.361 148.49C185.102 154.24 184.912 160.45 183.113 166.05C182.343 169.8 180.894 174.66 180.514 178.33H178.425C172.808 178.47 167.201 178.53 161.583 178.53L159.194 178.59C156.476 178.78 153.757 178.75 151.038 178.77C148.659 178.87 146.28 178.94 143.902 178.98L123.941 179.54H122.492C118.864 179.85 114.905 180.19 111.277 180.03C107.849 180.47 104.19 180.5 100.732 180.51L97.6536 180.63C86.0191 181.26 74.3747 181.55 62.7402 182.09C60.6712 182.22 58.6221 182.28 56.5531 182.3C53.4546 182.69 50.2661 182.67 47.1476 182.84C40.3208 183.2 33.5041 183.62 26.6773 184.11C26.8672 183.81 27.0172 183.5 27.0771 183.14C27.5969 180.25 27.367 169.39 25.9177 167.18C17.8815 167.9 9.6454 166.78 1.58923 167.36L0.219881 167.28L-0.0100098 167.31V35.97H-1.45137e-05Z" fill="#3F5789"/>
<path d="M61.251 176.47H62.8802L62.7403 182.1C60.6713 182.23 58.6222 182.29 56.5532 182.31C56.8531 182.17 57.083 182.05 57.3129 181.81C58.0925 180.98 57.6927 177.67 57.6627 176.5L61.241 176.48H61.251V176.47Z" fill="#2E4166"/>
<path d="M151.118 144.89L151.358 144.02L151.708 143.85C152.518 145.01 155.846 164.26 157.285 168.05L159.204 178.6C156.486 178.79 153.767 178.76 151.048 178.78C148.669 178.88 146.29 178.95 143.912 178.99C144.911 173.43 146.74 167.6 147 161.98C147.74 160.78 150.938 146.67 151.118 144.9V144.89Z" fill="#436365"/>
<path d="M147 161.97C147.74 160.77 150.938 146.66 151.118 144.89L151.088 168.51C151.088 171.88 151.318 175.43 151.038 178.78C148.659 178.88 146.28 178.95 143.902 178.99C144.901 173.43 146.73 167.6 146.99 161.98H147V161.97Z" fill="#51716D"/>
<path d="M108.558 130.7C109.618 134.09 110.108 137.67 110.877 141.14C112.447 148.29 114.086 155.57 115.955 162.64C116.355 164.51 119.293 178.92 119.693 179.35C120.633 179.47 121.552 179.54 122.502 179.55C118.874 179.85 114.915 180.19 111.287 180.03C107.859 180.47 104.201 180.5 100.742 180.51C101.372 179 104.87 155.24 104.97 152.58C105.92 150.21 105.97 147.34 106.519 144.83C107.009 142.61 107.829 140.48 108.169 138.23C108.169 135.7 108.329 133.23 108.558 130.71V130.7Z" fill="#436365"/>
<path d="M108.169 138.22C108.798 142.45 108.439 147.04 108.419 151.32L108.389 171.69C108.389 174.02 107.909 177.64 108.548 179.82C109.468 179.97 110.358 180.01 111.287 180.02C107.859 180.46 104.201 180.49 100.742 180.5C101.372 178.99 104.87 155.23 104.97 152.57C105.92 150.2 105.97 147.33 106.519 144.82C107.009 142.6 107.829 140.47 108.169 138.22Z" fill="#51716D"/>
<path d="M157.285 168.05C157.935 167.02 163.652 131.35 164.632 126.04C165.442 129.61 165.941 133.3 166.571 136.92L169.53 153.75C169.68 153.82 169.949 153.83 170.119 153.86C171.059 152.05 171.069 148.85 171.429 146.77C172.268 141.88 173.278 135.29 174.577 130.55L174.827 130.44C175.117 130.99 175.177 131.32 175.127 131.94L180.165 154.43C180.914 157.74 181.624 163.26 183.133 166.06C182.363 169.81 180.914 174.67 180.534 178.34H178.445C172.828 178.48 167.221 178.54 161.603 178.54L159.214 178.6L157.295 168.05H157.285Z" fill="#455C96"/>
<path d="M178.435 178.33C177.166 178.29 175.886 178.26 174.617 178.23L174.757 178.1L173.877 178.16C174.587 166.82 174.577 155.33 174.787 143.96C174.847 140.86 174.587 137.66 174.787 134.58C174.837 133.7 175.067 132.83 175.117 131.94L180.154 154.43C180.904 157.74 181.614 163.26 183.123 166.06C182.353 169.81 180.904 174.67 180.524 178.34H178.435H178.445L178.435 178.33Z" fill="#3B5488"/>
<path d="M157.285 168.05C157.935 167.02 163.652 131.35 164.632 126.04C165.442 129.61 165.941 133.3 166.571 136.92L169.53 153.75C169.57 155.68 167.68 168.13 166.981 169.62L166.541 169.9C166.431 165.4 166.471 160.82 166.631 156.32C166.791 151.89 167.241 147.32 166.631 142.9C165.491 149.37 164.712 155.91 163.822 162.42C163.083 167.8 162.203 173.15 161.593 178.55L159.204 178.61L157.285 168.06H157.275L157.285 168.05Z" fill="#3B5488"/>
<path d="M115.955 162.65C116.265 162.34 116.485 162.05 116.614 161.63C117.684 158.2 118.234 152.83 118.863 149.14C120.103 141.96 121.502 134.83 122.892 127.67C123.101 126.58 123.261 123.49 123.851 122.71C124.261 123.24 124.261 123.76 124.311 124.4C125.5 131.06 127.189 137.55 128.659 144.15C129.658 148.61 130.368 153.27 131.647 157.65C134.476 147.32 135.725 136.54 138.534 126.2L143.622 147.66C144.701 152.38 145.531 157.35 146.98 161.97C146.72 167.6 144.891 173.43 143.892 178.98L123.931 179.54H122.482C121.532 179.54 120.613 179.47 119.673 179.35C119.273 178.92 116.345 164.52 115.935 162.64H115.955V162.65Z" fill="#3B5488"/>
<path d="M115.955 162.65C116.265 162.34 116.485 162.05 116.614 161.63C117.684 158.2 118.234 152.83 118.863 149.14C120.103 141.96 121.502 134.83 122.892 127.67C123.101 126.58 123.261 123.49 123.851 122.71C124.261 123.24 124.261 123.76 124.311 124.4L123.951 124.18C123.451 125 124.171 131.62 124.191 133.17C124.321 144.38 124.211 155.63 124.211 166.84C124.211 169.44 124.671 177.38 123.931 179.54H122.482C121.532 179.54 120.613 179.47 119.673 179.35C119.273 178.92 116.345 164.52 115.935 162.64H115.955V162.65Z" fill="#455C96"/>
<path d="M82.211 109.98C85.9092 125.75 87.8983 141.97 91.6565 157.72C94.5051 146.91 96.2743 135.82 99.4928 125.1C100.262 129.19 100.922 133.31 101.452 137.43C102.891 142.39 103.311 147.71 104.96 152.57C104.86 155.24 101.362 178.99 100.732 180.5L97.6536 180.62C86.0192 181.25 74.3747 181.54 62.7402 182.08L62.8802 176.45C68.8173 176.22 74.7945 176.36 80.7417 176.36C78.7826 169.23 76.5837 162.06 75.2443 154.79C76.1139 150.84 76.4637 146.6 77.0634 142.59C78.6627 131.75 80.042 120.71 82.211 109.98Z" fill="#3B5488"/>
<path d="M101.452 137.44C102.891 142.4 103.311 147.72 104.96 152.58C104.86 155.25 101.362 179 100.732 180.51L97.6535 180.63C97.3637 177.81 97.8435 174.6 98.0833 171.78L99.4527 156.38C99.9425 150.79 100.052 144.99 100.812 139.44C100.912 138.7 101.112 138.09 101.452 137.43V137.44Z" fill="#455C96"/>
<path d="M61.211 100.9L61.3809 100.24L61.6308 100.2C62.5004 102.09 62.8602 106.22 63.4399 108.53C66.0587 118.7 68.5875 128.9 71.0263 139.12C71.9759 142.99 73.5351 151.56 75.2343 154.79C76.5737 162.07 78.7726 169.23 80.7317 176.36C74.7845 176.36 68.8074 176.22 62.8702 176.45H61.241L57.6627 176.48C52.3552 176.57 47.0377 176.48 41.7402 176.48C42.5399 174.31 43.0396 172.03 43.5794 169.79L48.3171 151.52C49.2767 147.79 50.5261 143.88 50.9559 140.05C52.4052 137.7 53.1648 131.61 53.8545 128.68C55.0439 123.71 56.2933 118.76 57.5927 113.82C58.4923 110.54 60.6213 105.8 60.9311 102.68C60.9911 102.08 61.101 101.49 61.201 100.9H61.211Z" fill="#51716D"/>
<path d="M61.211 100.9L61.3809 100.24L61.6308 100.2C62.5003 102.09 62.8602 106.22 63.4399 108.53C66.0586 118.7 68.5874 128.9 71.0263 139.12C71.9758 142.99 73.5351 151.56 75.2343 154.79C76.5736 162.07 78.7726 169.23 80.7317 176.36C74.7845 176.36 68.8073 176.22 62.8702 176.45H61.2409C61.141 162.66 61.161 148.86 61.3009 135.07C61.4209 123.64 61.6707 112.32 61.201 100.9H61.211Z" fill="#436365"/>
<path d="M-2.90275e-05 35.97C1.28936 37.94 1.49926 42.08 1.88907 44.42L2.20892 45.59C3.49831 52.74 4.86766 59.87 6.31697 66.99L19.4207 134.75L23.5688 155.99C24.2984 159.68 24.8282 163.59 25.9077 167.19C17.8715 167.91 9.6354 166.79 1.57922 167.37L0.209871 167.29L-0.0200195 167.32V35.97H-2.90275e-05Z" fill="#C1D352"/>
<path d="M0 149.18L0.14 149.25L0.28 150.99C1.19 154.93 1.74 163.23 1.6 167.37L0.23 167.29L0 167.32V149.18Z" fill="#9DBC49"/>
<path d="M0 35.97C1.29 37.94 1.5 42.08 1.89 44.42C1.81 44.37 1.72 44.32 1.64 44.26C1.14 43.91 0.69 43.06 0.62 42.46C0.56 41.93 0.72 41.35 0.85 40.83L0.67 40.6C0.29 41.25 0.28 41.95 0.26 42.69C0.18 44.85 0.34 47.03 0.32 49.2C0.23 56.31 0.2 63.43 0.23 70.54C0.21 96.76 0.63 123.03 0.14 149.23L0 149.16V35.97Z" fill="#9DBC49"/>
<path d="M186.371 148.5C187.711 155.24 188.94 162.14 190.779 168.75C191.389 171.82 191.919 174.86 192.339 177.96C194.618 178.02 196.906 178.06 199.195 178.08C206.272 178 213.339 177.96 220.415 177.98C224.553 177.98 228.761 177.83 232.889 178.03C236.398 178.05 239.986 178.2 243.484 178.03L243.414 178.26C273.1 178.39 302.786 179.03 332.462 180.18C333.851 180.23 335.411 180.43 336.78 180.26C338.889 180.54 341.298 180.71 343.417 180.52C351.043 181.09 358.73 181.27 366.366 181.68C372.143 181.99 378.03 182.61 383.808 182.51C385.347 182.69 386.826 182.76 388.376 182.74C388.485 182.57 388.545 182.49 388.625 182.32C389.095 181.34 388.875 179.49 388.505 178.51L393.273 178.49C395.232 178.12 397.411 178.25 399.41 178.22C400.01 179.27 400.08 181.58 399.74 182.75C399.66 183.02 399.55 183.26 399.39 183.5C399.62 183.87 399.75 184.2 399.78 184.63C400.03 187.66 400.09 215.7 399.72 217.04C399.65 217.3 399.53 217.54 399.39 217.77C400.26 219.16 400.08 224.2 399.71 225.81C399.67 225.98 399.61 226.14 399.54 226.3C400.23 228.1 399.96 292.33 399.57 293.17C399.5 293.31 399.47 293.35 399.4 293.48C400.08 294.65 400.06 297.94 399.73 299.25C399.66 299.53 399.55 299.77 399.38 300.01H0V167.33L0.229891 167.3L1.59924 167.38C9.65541 166.8 17.8915 167.92 25.9277 167.2C27.367 169.41 27.5969 180.27 27.0871 183.16C27.0272 183.51 26.8772 183.82 26.6873 184.13C33.5041 183.64 40.3308 183.22 47.1576 182.86C50.2761 182.69 53.4746 182.71 56.5631 182.32C58.6322 182.32 60.6812 182.25 62.7502 182.11C74.3847 181.57 86.0391 181.28 97.6636 180.65L100.742 180.53C104.201 180.53 107.859 180.5 111.287 180.05C114.915 180.21 118.874 179.87 122.502 179.57H123.951L143.912 179C146.291 178.96 148.669 178.89 151.048 178.79C153.767 178.79 156.496 178.79 159.204 178.61L161.593 178.55C167.211 178.55 172.828 178.48 178.435 178.35H180.524C180.904 174.69 182.353 169.83 183.123 166.08C184.922 160.48 185.112 154.27 186.371 148.52V148.5Z" fill="#9DBC49"/>
<path d="M388.156 178.5L393.553 178.48C394.143 179.72 394.103 181.42 393.903 182.74L393.633 183.04C391.744 183.04 389.885 182.88 388.016 182.73C388.136 182.56 388.206 182.48 388.295 182.31C388.825 181.33 388.575 179.48 388.156 178.5Z" fill="#2E4166"/>
<path d="M393.253 178.48C395.262 178.11 397.491 178.24 399.54 178.21C400.15 179.26 400.23 181.57 399.88 182.74C399.8 183.01 399.69 183.25 399.52 183.49C397.451 183.34 395.372 183.35 393.333 183.04L393.583 182.74C393.763 181.42 393.783 179.71 393.263 178.48H393.253Z" fill="#3B5488"/>
<path d="M186.371 148.5C187.711 155.24 188.94 162.14 190.779 168.75C191.389 171.82 191.919 174.86 192.339 177.96C194.617 178.02 196.906 178.06 199.195 178.08C206.272 178 213.339 177.96 220.415 177.98C224.553 177.98 228.761 177.83 232.889 178.03C236.398 178.05 239.986 178.2 243.484 178.03L243.414 178.26L180.534 178.34C180.914 174.67 182.363 169.82 183.133 166.06C184.932 160.46 185.122 154.25 186.381 148.5H186.371Z" fill="#436365"/>
<path d="M25.9277 167.18C27.367 169.39 27.5969 180.25 27.0871 183.14C27.0272 183.49 26.8772 183.8 26.6873 184.11L0.379834 186.04L0.0100098 186.01V167.31L0.239901 167.28L1.60925 167.36C9.66542 166.78 17.9015 167.9 25.9377 167.18H25.9277Z" fill="#455C96"/>
<path d="M0 167.51C0.93 168.58 0.31 183.59 0.37 186.04L0 186.01V167.51Z" fill="#2E4166"/>
<path d="M0.239886 198.81C10.7649 198.5 21.2799 198.1 31.7949 197.61L92.636 195.52C96.874 195.39 101.132 195.37 105.37 195.17C108.359 195.03 111.387 194.64 114.386 194.62C114.925 194.62 115.305 194.58 115.755 194.91C113.416 195.91 105.78 196.46 102.921 196.9C95.5346 198.04 88.1481 199.37 80.8016 200.71L120.893 202.94C134.626 203.65 148.33 204.35 162.003 205.88C169.29 206.7 177.316 207.46 184.173 210.13C167.76 212.23 151.208 212.45 134.686 212.59C119.413 212.76 104.141 212.81 88.8678 212.76L29.6259 212.78C19.7806 212.78 9.83533 213.1 0 212.78V198.78L0.239886 198.83V198.81Z" fill="#C1D352"/>
<path d="M0 198.95C0.56 200.43 0.6 210.99 0 212.56V198.95Z" fill="#9DBC49"/>
<path d="M25.9276 167.18L25.8677 184.13L26.7573 184.11L33.694 171.04L25.9276 167.18Z" fill="#455C96"/>
</g>
<defs>
<clipPath id="clip0_206_2512">
<rect width="400" height="300" fill="white"/>
</clipPath>
</defs>
</svg>
