<svg width="400" height="300" viewBox="0 0 400 300" fill="none" xmlns="http://www.w3.org/2000/svg">
<g clip-path="url(#clip0_206_2659)">
<path d="M0 0H399.56C399.79 0.36 399.92 0.69 399.95 1.11C400.14 3.39 400 5.8 400.01 8.09V21.56C400.01 24.36 400.41 30.78 399.93 33.24C399.88 33.51 399.79 33.74 399.67 33.98C399.91 34.53 399.97 34.98 399.99 35.58C400.19 43.23 400.32 121.66 399.82 122.99C399.75 123.17 399.67 123.34 399.57 123.5C400.37 124.79 400.3 129.31 399.9 130.81C399.83 131.05 399.71 131.28 399.57 131.49C399.8 131.86 399.93 132.19 399.96 132.62C400.15 135.01 400.01 137.5 400.02 139.9V154.17C400.02 157.11 400.43 163.51 399.94 166.12C399.88 166.43 399.75 166.71 399.58 166.97C399.8 167.34 399.93 167.68 399.96 168.12C400.18 170.77 400.34 191.15 399.89 192.8C399.82 193.06 399.71 193.29 399.57 193.52C400 194.41 400.19 195.16 399.86 196.13C399.78 196.36 399.68 196.56 399.58 196.78C399.8 197.13 399.93 197.45 399.96 197.87C400.15 200.25 400.01 202.74 400.01 205.13V289.51C400.01 291.84 400.4 297.4 399.89 299.31C399.82 299.57 399.7 299.8 399.56 300.02H0V0Z" fill="#2B4778"/>
<path d="M208.335 155.411C216.485 154.541 224.485 153.101 232.565 151.801C242.105 150.261 251.795 148.821 261.405 147.791C289.195 144.711 317.115 142.921 345.065 142.451C363.545 142.291 382.035 142.601 400.495 143.401C400.725 143.771 400.855 144.101 400.885 144.531C401.075 146.921 400.935 149.411 400.945 151.811V166.081C400.945 169.021 401.355 175.421 400.865 178.031C400.805 178.341 400.675 178.621 400.505 178.881C397.385 178.801 393.985 179.471 390.865 179.811C383.545 180.611 376.255 181.541 368.935 182.301C364.815 182.721 360.575 183.301 356.425 183.151C338.565 182.341 320.725 181.231 302.905 179.831C295.825 179.311 288.675 179.171 281.615 178.511C277.455 178.121 273.305 177.411 269.155 176.891C261.345 175.921 253.525 175.021 245.695 174.201C216.785 171.301 187.825 168.861 158.835 166.881L159.065 166.361C162.735 165.141 166.835 164.571 170.635 163.801L196.175 158.911C198.885 158.371 201.595 157.851 204.225 156.991C205.665 156.521 206.815 155.781 208.325 155.421L208.335 155.411Z" fill="#A3C34D"/>
<path d="M-2.92975e-05 0H52.16L52.27 1.19C53.34 6.74 54.05 12.39 54.82 17.99C55.2 20.77 55.28 24.12 56.28 26.74C56.87 30.67 57.34 34.69 58.12 38.58C58.7 43.43 59.62 48.26 60.35 53.09L65.23 85.36C65.94 90.2 66.95 95.18 67.36 100.04C58.5 100.1 49.2 100.57 40.38 100.17C39.75 102.34 39.38 107.35 37.21 108.44C36.59 108.75 35.7 108.76 35.01 108.77C33.74 108.96 32.49 109.05 31.2 109.1C31.76 113.46 31.63 118.12 31.64 122.52C31.64 124.05 31.45 125.85 31.64 127.36C31.69 127.77 31.95 128.03 32.27 128.28L31.7 128.44C31.28 129.24 31.47 130.41 31.51 131.3C31.98 143.34 31.99 155.44 32.18 167.49C27.61 167.67 23.05 167.96 18.48 168.07C12.43 168.95 6.07997 168.48 -0.0300293 169.03V0H-2.92975e-05Z" fill="#464448"/>
<path d="M31.24 100.11C33.97 100.16 37.77 99.77 40.4 100.17C39.77 102.34 39.4 107.35 37.23 108.44C36.61 108.75 35.72 108.76 35.03 108.77L31.53 108.75C31.18 105.87 31.13 103 31.24 100.11Z" fill="#3E5017"/>
<path d="M0 108.5C5.89 108.61 11.77 108.63 17.66 108.54L20.71 108.94C20.42 114.43 21.03 120.71 20.37 126.01C19.72 126.18 19.12 126.26 18.45 126.29C16.9 126.15 15.34 126.04 13.78 125.98C12.94 126.02 12.05 125.94 11.39 126.53C11.35 126.57 11.31 126.6 11.26 126.64C11.16 126.72 11.07 126.81 10.99 126.9C9.69 126.63 8.33 126.41 7.07 126.02C6.53 125.85 6.21 125.79 5.94 125.27L6.43 124.89C4.59 124.22 2.12 124.14 0.17 123.9L0.01 123.71V108.51L0 108.5Z" fill="#2B4778"/>
<path d="M6.41993 124.88L13.7699 125.98C12.9299 126.02 12.0399 125.94 11.3799 126.53C11.3399 126.57 11.2999 126.6 11.2499 126.64C11.1499 126.72 11.0599 126.81 10.9799 126.9C9.67993 126.63 8.31993 126.41 7.05993 126.02C6.51993 125.85 6.19993 125.79 5.92993 125.27L6.41993 124.89V124.88Z" fill="#8FB03B"/>
<path d="M0 123.7L0.16 123.89C2.1 124.13 4.58 124.21 6.42 124.88L5.93 125.26C6.19 125.78 6.51 125.84 7.06 126.01C8.32 126.4 9.69 126.62 10.98 126.89C11.07 126.8 11.16 126.71 11.25 126.63C11.29 126.59 11.33 126.56 11.38 126.52C12.03 125.93 12.93 126.01 13.77 125.97C15.33 126.04 16.89 126.14 18.44 126.28C19.22 126.42 19.73 126.37 20.31 126.95C20.35 127.63 20.34 128.28 20.31 128.97C19.77 142.01 18.84 155.03 18.52 168.08C12.47 168.96 6.12 168.49 0.01 169.04V123.69H0L0 123.7Z" fill="#A3C34D"/>
<path d="M13.76 125.97C15.32 126.04 16.88 126.14 18.43 126.28C19.21 126.42 19.72 126.37 20.3 126.95C20.34 127.63 20.33 128.28 20.3 128.97C17.18 128.39 14.04 127.75 10.98 126.89C11.07 126.8 11.16 126.71 11.25 126.63C11.29 126.59 11.33 126.56 11.38 126.52C12.03 125.93 12.93 126.01 13.77 125.97H13.76Z" fill="#A3C34D"/>
<path d="M-9.76585e-06 0H26.01C25.25 9.26 25.08 18.61 24.62 27.89L21.22 100.04C21.08 102.63 21.5 105.65 20.21 107.97C19.34 108.57 18.67 108.49 17.65 108.55C11.76 108.63 5.87999 108.62 -0.0100098 108.51V0H-9.76585e-06Z" fill="#5F7B2C"/>
<path d="M0 80.33L0.21 80.59C1.36 82.81 3.13 96.82 3.34 99.95H0.16L0 100.01V80.33Z" fill="#77972F"/>
<path d="M0 0H3.8C2.93 3.92 1.59 18.4 0 20.58V0Z" fill="#5178D3"/>
<path d="M-9.76585e-06 100.24C7.04999 99.96 14.17 100.15 21.22 100.04C21.08 102.63 21.5 105.65 20.21 107.97C19.34 108.57 18.67 108.49 17.65 108.55C11.76 108.63 5.87999 108.62 -0.0100098 108.51V100.25H-9.76585e-06V100.24Z" fill="#3E5017"/>
<path d="M29.55 0H52.17L52.28 1.19C53.35 6.74 54.0601 12.39 54.8301 17.99C55.2101 20.77 55.2901 24.12 56.2901 26.74C56.8801 30.67 57.35 34.69 58.1301 38.58C58.7101 43.43 59.6301 48.26 60.3601 53.09L65.24 85.36C65.95 90.2 66.9601 95.18 67.3701 100.04C58.5101 100.1 49.21 100.57 40.39 100.17C37.76 99.76 33.96 100.16 31.23 100.11C30.73 75.28 30.38 50.44 30.18 25.61C29.82 22.77 29.89 19.69 29.83 16.81L29.55 0Z" fill="#77972F"/>
<path d="M29.55 0H52.17L52.28 1.19C49.5 1.94 33.89 19.68 30.49 23.14C30.2 23.95 30.2201 24.76 30.2001 25.61C29.8401 22.77 29.91 19.69 29.85 16.81L29.55 0Z" fill="#5F7B2C"/>
<path d="M31.0076 128.59C32.3576 129.27 35.8276 129.58 37.4376 129.92C44.0176 131.27 50.5976 132.65 57.1676 134.07L107.048 145.25C114.048 146.76 121.048 148.49 128.118 149.64C133.888 150.58 139.858 150.89 145.678 151.4C149.448 151.73 153.618 152.39 157.388 152.23C186.378 154.21 215.338 156.65 244.248 159.55C252.078 160.37 259.898 161.27 267.708 162.24C271.858 162.76 276.008 163.47 280.168 163.86C287.238 164.52 294.378 164.67 301.458 165.18C319.278 166.58 337.118 167.69 354.978 168.5C359.118 168.65 363.368 168.07 367.488 167.65C374.808 166.9 382.108 165.96 389.418 165.16C392.538 164.82 395.938 164.15 399.058 164.23C399.278 164.6 399.408 164.94 399.438 165.38C399.658 168.03 399.818 188.41 399.368 190.06C399.298 190.32 399.188 190.55 399.048 190.78C382.228 190.15 365.448 189.4 348.608 189.28C319.788 189.25 290.978 189.83 262.188 191.03L216.608 192.75C206.598 193.21 196.148 194.36 186.138 193.65C178.418 193.11 171.368 190.48 164.418 187.23C169.888 185.04 176.138 184.03 181.928 183.03C193.468 181.02 205.108 179.59 216.788 178.74C222.908 178.24 229.118 178.16 235.208 177.42C255.808 174.92 276.308 170.99 296.988 169.16C283.078 164.2 253.128 163.45 237.728 162.88C216.128 162.03 194.508 161.58 172.888 161.53C145.878 161.76 118.868 162.23 91.8576 162.96L52.3876 164.07C45.4876 164.29 38.5776 164.75 31.6776 164.77C31.4876 152.72 31.4776 140.63 31.0076 128.58V128.59Z" fill="#A3C34D"/>
<path d="M52.1599 0H399.56C399.79 0.36 399.92 0.69 399.95 1.11C400.14 3.39 400 5.8 400.01 8.09V21.56C400.01 24.36 400.41 30.78 399.93 33.24C399.88 33.51 399.79 33.74 399.67 33.98C399.91 34.53 399.97 34.98 399.99 35.58C400.19 43.23 400.32 121.66 399.82 122.99C399.75 123.17 399.67 123.34 399.57 123.5C386.86 123.51 373.95 122.7 361.27 121.88C355.12 121.48 348.93 120.92 342.77 120.74C334.98 120.52 326.63 121.46 318.67 121.48C303.07 121.43 287.5 120.34 272.04 118.22C249.58 115.31 228.37 109.92 206.63 103.77C169.39 93.24 132.2 80.4 97.9799 62.16C90.0999 57.96 82.2199 53.58 74.8099 48.6C69.2399 45.39 64.0599 41.14 58.1499 38.58C57.3599 34.68 56.8999 30.67 56.3099 26.74C55.3099 24.13 55.2299 20.77 54.8499 17.99C54.0799 12.39 53.3699 6.74 52.2999 1.19L52.1599 0Z" fill="#5178D3"/>
<path d="M158.81 48.46C159.36 50.51 159.58 52.79 160.37 54.74C159.95 54.88 159.58 54.77 159.15 54.67C158.28 54.46 157.76 54.27 157.3 53.5C157.81 51.84 158.42 50.15 158.81 48.46Z" fill="#2B4778"/>
<path d="M203.87 63.51C204.51 66.12 205.02 69.07 206.2 71.49C204.62 71.37 203.21 70.77 201.55 70.74C202.56 68.43 203.21 65.94 203.87 63.51Z" fill="#2B4778"/>
<path d="M211.38 64.38C212.1 67.13 212.67 70.07 213.6 72.74C211.49 71.97 209.59 71.75 207.36 71.94C208.74 69.45 209.98 66.85 211.38 64.38Z" fill="#2B4778"/>
<path d="M150.81 52.21C152.04 49.16 152.87 45.87 153.89 42.73C154.5 46.53 155.63 50.23 156.41 54C155.98 54.03 155.63 53.96 155.21 53.88C153.86 53.6 151.57 53.39 150.81 52.22V52.21Z" fill="#2B4778"/>
<path d="M147.22 39.56C148.2 43.66 149.87 48.05 150.35 52.2C150.19 52.24 150.06 52.25 149.89 52.23C148.67 52.08 144.09 51.49 143.48 50.73C144.51 46.96 145.9 43.23 147.22 39.56Z" fill="#2B4778"/>
<path d="M197.53 53.63C198.52 59.05 199.95 64.37 200.93 69.79L200.75 70.22L200.38 70.34C198.77 69.98 195.62 69.7 194.27 69C195.16 63.91 196.18 58.61 197.53 53.63Z" fill="#2B4778"/>
<path d="M333.7 45.73C334.53 43.76 337.6 31 337.26 29.56C337.4 29.77 337.52 29.98 337.63 30.2C338.36 31.71 340.87 42.36 340.47 43.51L340.57 44.26C338.47 45.04 336.34 45.53 334.16 46.03L333.7 45.73Z" fill="#2B4778"/>
<path d="M370.9 38.46C371.06 38.2 371.2 37.93 371.29 37.64C371.96 35.61 374.37 25.54 374.39 23.71C374.39 23.33 374.27 22.97 374.11 22.63C374.43 23 374.78 23.41 374.98 23.85C375.67 25.41 378.38 36.36 377.95 37.51C376.76 38.41 372.43 38.58 370.9 38.46Z" fill="#2B4778"/>
<path d="M86.5901 46.99C87.9101 41.03 88.9001 34.85 90.5501 28.99C91.3001 34.12 93.1001 41.47 94.4801 46.49C93.2701 46.92 87.8201 47.62 86.8201 47.14C86.7401 47.1 86.6701 47.04 86.5901 46.99Z" fill="#2B4778"/>
<path d="M360.49 40.21C360.67 40 360.79 39.86 360.9 39.6C361.56 37.96 364.4 25.18 364.59 22.88C364.63 22.41 364.51 21.96 364.33 21.54C364.46 21.7 364.58 21.86 364.7 22.03C365.7 23.42 368.99 37.27 368.74 38.89C367.75 39.46 361.76 40.59 360.73 40.29C360.65 40.27 360.57 40.24 360.49 40.21Z" fill="#2B4778"/>
<path d="M347.74 42.51C347.82 42.35 347.89 42.2 347.96 42.03C348.73 40.12 348.98 37.43 349.41 35.38C350.25 31.35 351.44 27.11 351.9 23.02C351.96 22.53 351.91 22.14 351.72 21.68C351.76 21.74 351.8 21.81 351.84 21.87C351.93 22.01 352.03 22.15 352.11 22.3C352.99 23.74 356.81 39.3 356.5 40.52L356.54 41.05C355.04 41.65 349.2 42.91 347.74 42.52V42.51Z" fill="#2B4778"/>
<path d="M325.64 28.66C325.78 28.83 325.92 29 326.06 29.18C326.18 29.32 326.31 29.46 326.41 29.63C327.3 31.2 330.83 45.36 330.47 46.75C329.77 47.48 323.21 49.22 321.97 49.27C321.84 49.27 321.63 49.25 321.5 49.24L321.11 48.5C321.25 48.26 321.37 48.01 321.48 47.75C322.49 45.13 325.71 32.43 325.91 29.9C325.94 29.47 325.82 29.05 325.65 28.66H325.64Z" fill="#2B4778"/>
<path d="M388.45 35.78C388.76 35.42 389.14 35.02 389.34 34.58C390.15 32.81 392.56 22.7 391.97 21.16C392.17 21.5 392.37 21.86 392.54 22.22C393.26 23.78 396.17 33.83 395.69 35.18C394.78 35.74 384.28 36.98 382.67 36.91C382.48 36.69 382.28 36.48 382.12 36.24C382.28 36 382.41 35.76 382.51 35.49C383.37 33.39 385.4 25.02 385.48 22.83C385.5 22.37 385.31 21.9 385.14 21.48C385.46 21.84 385.76 22.22 385.97 22.66C386.95 24.68 389.19 33.82 388.46 35.77H388.45V35.78Z" fill="#2B4778"/>
<path d="M138.27 28.7C139.3 33.17 140.27 37.65 141.19 42.14C141.74 44.86 142.09 47.88 142.96 50.49C142.82 50.55 142.8 50.57 142.63 50.59C141.63 50.71 134.17 49.5 133.34 48.97C134.81 42.18 136.75 35.49 138.27 28.7Z" fill="#2B4778"/>
<path d="M178.69 45.86C179.96 51.47 181.04 57.12 181.94 62.8C183 59.27 183.1 55.55 184.12 52C184.77 56.86 185.5 63.03 188.68 67C188.4 66.98 188.13 66.95 187.85 66.91C186.31 66.64 174.79 62.51 174.25 61.74C176.11 56.58 177.34 51.16 178.69 45.86Z" fill="#2B4778"/>
<path d="M161.53 56.23C164.87 50.38 165.09 42.49 167.81 36.34C168.15 36.56 168.32 37.75 168.42 38.2C170.06 45.86 171.57 53.6 173.06 61.29C169.25 60.43 165.67 56.85 161.54 56.22L161.53 56.23Z" fill="#2B4778"/>
<path d="M124.78 24.55C126.26 29.83 127.52 35.19 128.76 40.53C129.36 43.13 129.77 45.99 130.64 48.51C127.09 48.34 122.75 48.2 119.3 47.39C117.54 47.31 114.82 47.46 113.25 46.72L113.04 46.04C114.14 41.23 115.47 36.48 116.38 31.63C117.36 36.54 118.3 41.46 119.49 46.32C120.89 43.6 121.24 39.54 121.9 36.53C122.78 32.53 123.72 28.51 124.78 24.56V24.55Z" fill="#2B4778"/>
<path d="M95.74 46.67C97.66 37.77 98.46 28.46 101.09 19.73C101.33 23.85 102.48 28.08 103.23 32.14C104.02 36.45 104.51 41.1 105.81 45.28C106.72 39.71 107.92 34.16 109.05 28.63C110.06 34.55 111.41 40.39 112.45 46.29L112.24 46.69C110.69 47.03 108.68 46.65 107.08 46.6C103.34 46.48 99.46 46.28 95.73 46.67H95.74Z" fill="#2B4778"/>
<path d="M72.31 12.94C74.17 24.38 76.75 35.73 78.3601 47.2C79.5601 41.54 81.0401 35.92 81.93 30.2C83.34 35.83 83.93 41.71 85.42 47.29C82.44 48.16 77.2601 47.15 74.8001 48.6C69.2301 45.39 64.05 41.14 58.14 38.58C57.35 34.68 56.89 30.67 56.3 26.74C57.93 23.3 58.3901 19.19 59.6101 15.57C61.0801 22.36 62.08 29.42 64.02 36.08L63.8801 36.23L64.25 36.34C65.33 34.3 65.6301 31.27 66.1101 29.01C66.72 31.6 67.0601 34.06 67.25 36.7C69.83 29.02 70.13 20.74 72.32 12.96V12.94H72.31Z" fill="#2B4778"/>
<path d="M293.29 57.26C295.42 48.64 297.26 39.94 299.3 31.29C299.89 34.24 304.85 53.19 304.31 54.7C306.27 54.19 308.17 53.61 310.08 52.96L310.23 53.36C307.84 54.45 305.31 55.13 302.88 56.11C291.21 60.83 279.29 64.48 267.13 67.68C258.69 69.91 250.21 72.02 241.52 73.02C235.52 73.71 229.42 73.64 223.4 73.36C220.69 73.23 217.31 73.58 214.73 72.72L214.52 72.3C216.38 65.75 217.44 58.96 219.34 52.39C221.09 59.14 222.1 66.35 224.4 72.92C225.79 65.77 228.2 58.77 229.12 51.54C230.49 56.98 230.98 63.84 233.05 68.92C233.97 63.09 235.55 57.36 236.28 51.5C237.46 56.97 238.6 62.45 239.71 67.93C241.3 59.58 242.8 51.22 244.2 42.84L244.42 42.76V42.09L244.56 42.23C244.46 43.22 245.14 45.03 245.36 46.04C246.3 50.38 247.26 54.73 248.06 59.09C248.7 62.59 249.17 66.13 249.99 69.59C250.74 67.26 251.11 64.69 251.58 62.29C252.49 57.54 253.47 52.79 254.51 48.07C255.58 54.85 257.36 61.6 258.62 68.36L262.49 48.42C263.98 54.5 265.07 60.69 266.41 66.81C267.95 60.57 269.39 54.31 270.73 48.03C272.45 53.51 273.35 59.34 274.6 64.95C275.87 59.15 277.24 52.97 277.74 47.06C279.22 52.02 280.21 57.14 281.5 62.15C283.87 52.65 285.43 42.92 287.99 33.48C289.67 41.42 291.54 49.33 293.29 57.26Z" fill="#2B4778"/>
<path d="M395.68 35.18C396.48 35.4 397.11 35.43 397.92 35.22C398.68 35.02 399.25 34.68 399.66 33.98C399.9 34.53 399.96 34.98 399.98 35.58C400.18 43.23 400.31 121.66 399.81 122.99C399.74 123.17 399.66 123.34 399.56 123.5C386.85 123.51 373.94 122.7 361.26 121.88C355.11 121.48 348.92 120.92 342.76 120.74C334.97 120.52 326.62 121.46 318.66 121.48C303.06 121.43 287.49 120.34 272.03 118.22C249.57 115.31 228.36 109.92 206.62 103.77C169.38 93.24 132.19 80.4 97.97 62.16C90.09 57.96 82.21 53.58 74.8 48.6C77.26 47.15 82.44 48.16 85.42 47.29C85.91 47.29 86.15 47.2 86.59 46.99C86.67 47.04 86.74 47.1 86.82 47.14C87.82 47.62 93.2701 46.92 94.48 46.49C94.93 46.63 95.27 46.71 95.74 46.68C99.47 46.29 103.34 46.49 107.09 46.61C108.69 46.66 110.69 47.03 112.25 46.7L112.46 46.3L113.05 46.05L113.26 46.73C114.84 47.48 117.55 47.33 119.31 47.4C122.76 48.21 127.1 48.35 130.65 48.52C131.27 48.78 132.49 49.44 133.14 49.1C133.21 49.06 133.27 49.02 133.34 48.97C134.17 49.5 141.64 50.71 142.63 50.59C142.8 50.57 142.82 50.55 142.96 50.49L143.48 50.73C144.09 51.49 148.67 52.09 149.89 52.23C150.06 52.25 150.19 52.23 150.35 52.2H150.81C151.57 53.37 153.86 53.58 155.21 53.87C155.63 53.96 155.98 54.03 156.41 53.99C156.8 53.97 157.02 53.73 157.3 53.49C157.77 54.26 158.28 54.44 159.15 54.66C159.58 54.76 159.94 54.87 160.37 54.73C160.77 55.22 161.15 55.72 161.53 56.23C165.66 56.86 169.25 60.44 173.05 61.3C173.48 61.54 173.76 61.81 174.25 61.74C174.79 62.51 186.31 66.64 187.85 66.91C188.12 66.96 188.4 66.99 188.68 67C190.44 67.92 192.38 68.42 194.28 69C195.63 69.7 198.78 69.98 200.39 70.34L200.76 70.22L200.94 69.79C201.09 70.19 201.17 70.49 201.55 70.72C203.21 70.75 204.62 71.36 206.2 71.47C206.59 71.67 206.91 71.9 207.36 71.93C209.59 71.74 211.49 71.96 213.6 72.73H214.25L214.51 72.29L214.72 72.71C217.3 73.56 220.68 73.22 223.39 73.35C229.41 73.63 235.52 73.7 241.51 73.01C250.2 72.01 258.68 69.9 267.12 67.67C279.28 64.46 291.2 60.81 302.87 56.1C305.3 55.12 307.83 54.44 310.22 53.35L310.07 52.95C312.48 52.19 319.63 50.86 321.16 49.22L321.09 48.49L321.48 49.23C321.6 49.23 321.81 49.27 321.95 49.26C323.19 49.21 329.75 47.47 330.45 46.74C331.02 46.93 331.48 46.95 332.07 46.82C332.81 46.65 333.3 46.37 333.69 45.74L334.15 46.04C336.32 45.54 338.46 45.05 340.56 44.27L340.46 43.52L341.01 44.05C342.03 44.37 343.54 43.91 344.58 43.66C345.45 43.45 347.29 43.26 347.74 42.51C349.2 42.9 355.04 41.65 356.54 41.04L356.5 40.51L357.27 41C358.25 41.05 359.02 41 359.97 40.72C360.36 40.61 360.3 40.54 360.49 40.2C360.57 40.23 360.65 40.26 360.73 40.28C361.77 40.59 367.75 39.46 368.74 38.88C369.17 38.97 369.67 39.1 370.11 39.04C370.61 38.96 370.63 38.86 370.9 38.45C372.44 38.57 376.77 38.39 377.95 37.5C378.61 37.8 379.27 37.76 379.97 37.7C380.77 37.63 381.63 37.51 382.17 36.87L382.1 36.25C382.26 36.49 382.46 36.7 382.65 36.92C384.26 36.99 394.76 35.75 395.67 35.19H395.68V35.18Z" fill="#476893"/>
<path d="M412.09 158.85H-46.8201V312.48H412.09V158.85Z" fill="#A3C34D"/>
<path d="M143.69 288.24C142.15 292.27 139.89 296.09 138.05 300H134.13C137.29 296.11 140.95 292.43 143.69 288.24Z" fill="#5F7B2C"/>
<path d="M151.65 300C155.57 295.32 160.92 291.6 165.69 287.81C162.28 291.74 159.17 295.86 156.02 300H151.65Z" fill="#5F7B2C"/>
<path d="M18.3801 300C21.7601 293.1 25.4801 286.14 28.4101 279.05C28.5701 280.18 22.1301 297.54 21.2301 300H18.3701H18.3801Z" fill="#5F7B2C"/>
<path d="M83.3801 285.84C81.6001 289.64 79.9801 294.05 78.9801 298.13C83.9801 295.55 91.2001 291.08 95.8701 287.82C93.6001 291.73 92.1001 296.04 89.9501 300H69.3601C73.9401 295.24 79.0001 290.77 83.3801 285.84Z" fill="#5F7B2C"/>
<path d="M26.23 256.59C26.26 256.78 26.33 256.97 26.33 257.16C26.31 257.73 23.75 262.34 23.38 263.14C20.98 268.34 18.94 273.72 16.59 278.95C15.15 282.16 13.36 285.25 11.97 288.46C11.69 289.11 11.5 289.72 11.54 290.44C12.74 289.84 22.06 273.4 24.04 272.84C23.88 274.19 20.63 278.22 19.7 279.68C17.14 283.68 14.78 287.8 12.61 292.02C11.28 294.57 10.07 297.7 8.38 300H0V287.12C1.59 285.25 3.01 283.2 4.46 281.23C4.77 281.81 4.86 281.86 4.67 282.52C4.24 284.06 2.69 285.07 3.26 286.79L3.77 287.11C4.12 286.94 4.19 287 4.35 286.62C4.68 285.83 5.44 284.17 6.28 283.84C6.36 283.81 6.44 283.79 6.52 283.76L6.94 284.02C6.41 285.06 5.96 286.15 5.49 287.23C5.63 287.11 5.77 286.99 5.91 286.87C7.85 285.16 10 280.76 11.59 278.42C15.31 272.91 19.27 267.55 22.85 261.95C23.81 260.44 24.83 258.9 25.49 257.23L26.23 256.6V256.59Z" fill="#5F7B2C"/>
<path d="M35.46 300C37.85 298.3 42.54 295.25 45.26 294.46C45.59 294.89 45.54 295.32 45.58 295.85C46.59 295.84 48.54 293.49 49.32 292.69C50.71 291.26 52.12 289.84 53.36 288.29C56.1 284.84 74.87 259.12 76.39 258.28L75.91 258.98L76.07 259.1C74.72 262.06 73.88 265.09 72.82 268.15C71.42 272.09 69.99 276.02 68.55 279.95L63.58 293.6C62.83 295.65 61.79 297.9 61.3 300.01H35.46V300Z" fill="#5F7B2C"/>
<path d="M400.15 118.7H399.48V123.55H400.15V118.7Z" fill="#476893"/>
<path d="M400.06 123.3H399.39V131.49H400.06V123.3Z" fill="#2B4778"/>
<path d="M400.06 131.49H399.39V136.89H400.06V131.49Z" fill="#A3C34D"/>
<path d="M400.02 -1.77002H399.29V35.86H400.02V-1.77002Z" fill="#5178D3"/>
</g>
<defs>
<clipPath id="clip0_206_2659">
<rect width="400" height="300" fill="white"/>
</clipPath>
</defs>
</svg>
