<?xml version="1.0" encoding="UTF-8"?>
<svg id="_图层_1" data-name="图层 1" xmlns="http://www.w3.org/2000/svg" xmlns:xlink="http://www.w3.org/1999/xlink" viewBox="0 0 1134 950">
  <defs>
    <style>
      .cls-1 {
        fill: url(#_未命名的渐变);
      }

      .cls-2 {
        fill: #650005;
      }

      .cls-3 {
        fill: #7b6e69;
      }

      .cls-4 {
        fill: #febfc6;
      }

      .cls-5 {
        fill: #fe8f9f;
      }

      .cls-6 {
        fill: #763e3d;
      }

      .cls-7 {
        fill: #5f0038;
      }

      .cls-8 {
        fill: #feddc8;
      }

      .cls-9 {
        fill: #a48969;
      }

      .cls-10 {
        fill: #fee7e0;
      }

      .cls-11 {
        fill: #88dafe;
      }

      .cls-12 {
        fill: #ff6365;
      }

      .cls-13 {
        fill: #221917;
      }

      .cls-14 {
        fill: #fefefe;
      }
    </style>
    <linearGradient id="_未命名的渐变" data-name="未命名的渐变" x1="552.12" y1="670.83" x2="550.43" y2="647.48" gradientTransform="translate(0 950) scale(1 -1)" gradientUnits="userSpaceOnUse">
      <stop offset="0" stop-color="#ffdac3"/>
      <stop offset="1" stop-color="#ffecea"/>
    </linearGradient>
  </defs>
  <path d="m427.81,73.79c7.9-9.6,14.78-19.05,24-27.56,23.6-21.79,52.67-33.98,85.06-32.64,20.81.86,33.09,5.93,52.27,12.49,5.72,1.96,11.76,3.02,17.55,4.82,16.98,5.26,32.28,14.9,44.36,27.95,20.52,22.48,31.14,57.03,29.49,87.18-1.02,18.67-7.48,33.74-21.45,46.23,1.68.97,3.47,2.05,4.91,3.36,4.16,3.79,6.16,9.15,6.32,14.7.25,9.16-2.98,16.56-9.15,23.14.81,18.83,1.13,48.41-8.56,64.86-3.5,5.93-8.63,10.44-12.25,16.19,3.33,5.22,16.67,13.79,22.07,18.02,19.27,15.09,39.01,29.75,57.98,45.19,2.17,1.77,5.28,4.1,5.45,7.14.43,7.9-17.65,11.64-22.1,16.45.4,2.78,68.63,58.44,78.44,67.62,6.88,6.44,12.24,14.82,12.46,24.5.14,6.15-2.03,10.28-6.17,14.57-1.24,1.13-2.56,2.24-3.68,3.49-11.45,11.07-21.2,25.4-34.01,34.79-1.59,1.08-2.96,2.07-4.25,3.49-4.78,3.08-9.67,5.76-15.6,4.64-18.14-3.42-68.58-77.28-80.05-94.56-2.83,3.64-5.76,7.24-8.49,10.96l42.29,134.92,12.46,39.42c2.38,7.51,5.25,15.16,6.94,22.85.83,3.76,1.87,9.59,0,13.14-1.01,1.92-2.65,2.32-4.65,2.79-5.6,1.3-12.01,1.18-17.76,1.54-13.08.82-26.21,1.32-39.27,2.3l18.86,115.27c1.55,9.51,2.96,19.05,4.7,28.52,1.02,5.57,2.54,11.15,3.17,16.77.47,4.15.61,8.54-.3,12.64,5.57,2.7,11.07,5.54,16.67,8.18,14.98,7.04,31.83,14.29,37.64,31.32,1.91,5.6,2.21,11.93-.52,17.32-1.49,2.94-3.96,5.45-7.22,6.32-8.57,2.3-47.43,1.03-58.58,1.02-13.51,0-31.46.97-44.53-.26-2.3-.22-4.55-.85-6.5-2.11-3.01-1.94-5.33-5.42-5.94-8.95-1.12-6.44-1.3-45.96.35-51.35-1.14-6.66-1.57-13.45-2.57-20.14-1.69-11.33-15.84-101.66-17.07-103.62-.15-.24-.44-.37-.66-.55-2.68.27-5.43.43-7.89-.88-1.67-.89-2.85-2.24-3.78-3.88-2.9-5.13-4.52-11.41-6.46-16.99-3.17-9.01-6.25-18.06-9.24-27.13-6.83-.34-13.66-.52-20.49-.55-3.29,19.61-5.58,39.51-8.33,59.22l-12.61,90.05c-1,7.55-1.41,15.16-2.48,22.7,18.96,10.29,47.8,17.68,54.72,40.88,1.63,5.47,2.12,11.57-.89,16.69-1.83,3.1-4.58,5.21-8.07,6.04-7.49,1.8-16.73.83-24.45.81l-38.55-.07c-12.14-.01-25.04,1.05-37.11.01-3.21-.28-6.58-1.02-9.27-2.87-3.36-2.32-4.81-6.61-5.41-10.49-1.08-6.99-1.12-40.48-.19-47.57.71-4.9-.99-10.14-.26-15.14l23.5-163.43c-12.13-.94-61.37-3.78-69.05-9.71-2.81-2.17-4.27-5.68-4.15-9.18.27-8.01,5.92-22.55,8.31-30.69,2.95-10.05,29.5-101.08,29.28-102.61-.68.17-1.29.31-2,.31-15.1.07-37.67-16.83-48.75-26.74-14.1-12.61-29.74-29.87-30.71-49.65-1.29-26.17,30.17-52.04,46.45-70.05-2.95-.99-6.15-1.92-8.5-4.06-1.78-1.63-2.97-3.73-2.95-6.19.07-7.55,15.95-18.96,21.44-24.23-2.02-2.31-3.35-4.59-3.91-7.66-1.32-7.17,2.01-12.81,5.81-18.49-2.23.39-4.52.84-6.78.97-5.15.3-10.83-1.07-14.61-4.73-2.54-2.44-3.97-5.8-3.97-9.32,0-3.82,1.66-7.45,4.53-9.97,5.57-4.98,12.47-4.88,19.44-4.43-2.38-2.43-4.58-5.2-5.99-8.31-2.02-4.49-2.65-9.55-.75-14.21,1.29-3.18,3.69-5.74,6.94-6.93,5.03-1.85,9.64-.23,14.19,1.94,1.65-7.19,5.83-13.09,8.51-19.83,2.45-6.18,3.86-12.49,6.83-18.51-4.43-1.97-8.28-4.7-11.09-8.7-6.02-8.56-4.91-18.62-3.28-28.32-5.14,4.82-10.95,9.08-17.92,10.71-6.5,1.52-13.14.5-18.82-3.04-5.86-3.69-9.99-9.57-11.48-16.33-1.48-6.55-.28-13.43,3.34-19.09,4.87-7.51,12.95-11.48,21.47-13.26-5.63-2.05-10.7-4.31-15.72-7.6-3.69,4.94-6.69,9.94-8.69,15.8-5.87,17.16-2.63,39.41,13.64,49.85,8.7,5.58,20.9,5.32,25.73,16.39,1.34,3.06-.95,11.09-2.41,13.99-.87,1.73-1.6,2.4-3.37,3.04-4.58-1.07-10.29-7.92-13.46-11.35.75-4.42,2.07-8.7,3.31-13-14.59-.99-29.65-4.69-41.57-13.52-10.24-7.58-16.38-18.14-18.11-30.74-2.98-21.82,5.98-44.09,19.12-61.14,18.91-24.54,44-39.2,74.86-43.14Zm218.31,164.4c-3.25,7.98-6.86,14.23-12.63,20.7,2.28,15.3,3.12,30.86,5.56,46.11l.35,1.46c2.38-.51,5.62-5.39,6.92-7.39,10.93-16.89,10.86-42.83,10.16-62.37l-.82-.43-.84.27c-2.89.56-5.79,1.2-8.71,1.65Zm-56.11,49.02c.66-1.68,1.32-3.36,1.89-5.08l-.47-.89c-.93-.02-1.86-.06-2.79-.06-.01,2.24-.22,4.61.41,6.78l.61.02.35-.77Z"/>
  <path class="cls-7" d="m668.83,860.95c5.57,2.7,11.07,5.54,16.67,8.18,14.98,7.04,31.83,14.29,37.64,31.32,1.91,5.6,2.21,11.93-.52,17.32-1.49,2.94-3.96,5.45-7.22,6.32-8.57,2.3-47.43,1.03-58.58,1.02-13.51,0-31.46.97-44.53-.26-2.3-.22-4.55-.85-6.5-2.11-3.01-1.94-5.33-5.42-5.94-8.95-1.12-6.44-1.3-45.96.35-51.35l4.07,8.91c4.14,6.4,9.33,11.3,16.4,14.34,8.73,3.73,18.6,3.77,27.37.12,9.6-3.94,15.68-11.26,19.53-20.69l1.25-4.18Z"/>
  <path class="cls-7" d="m667.57,865.14c4.39,2.23,8.75,4.57,13.28,6.51l5.42,2.86c5.9,2.57,11.84,5.17,17.3,8.61l4.08,3.38c5.77,4.22,9.53,10.73,11.93,17.33-38.66-.18-77.38-.34-116.04.08.17-6.96-1.35-27.44.74-32.54,4.14,6.4,9.33,11.3,16.4,14.34,8.73,3.73,18.6,3.77,27.37.12,9.6-3.94,15.68-11.26,19.53-20.69Z"/>
  <path class="cls-14" d="m680.85,871.64l5.42,2.86c5.9,2.57,11.84,5.17,17.3,8.61l4.08,3.38c-.57,1.57-1.48,3.37-2.52,4.68-1.23,1.54-2.91,2.18-4.83,2.38-7.56.79-17.93-5.54-23.59-10.08,1.26-1.33,2.72-2.71,3.7-4.25,1.6-2.5.98-4.89.42-7.58Z"/>
  <path class="cls-7" d="m686.27,874.5c5.9,2.57,11.84,5.17,17.3,8.61-.16,1.1-.29,2.4-.71,3.43-.53,1.3-1.56,2.18-2.92,2.5-4.85,1.17-12.55-3.78-16.61-5.98,1.75-2.77,2.4-5.4,2.94-8.57Z"/>
  <path class="cls-13" d="m668.83,860.95c5.57,2.7,11.07,5.54,16.67,8.18,14.98,7.04,31.83,14.29,37.64,31.32,1.91,5.6,2.21,11.93-.52,17.32-1.49,2.94-3.96,5.45-7.22,6.32-8.57,2.3-47.43,1.03-58.58,1.02-13.51,0-31.46.97-44.53-.26-2.3-.22-4.55-.85-6.5-2.11-3.01-1.94-5.33-5.42-5.94-8.95-1.12-6.44-1.3-45.96.35-51.35l4.07,8.91c-2.09,5.1-.57,25.58-.74,32.54l-.12,4.18c0,1.39.05,2.74.36,4.11.63,2.8,2.36,5.4,4.85,6.86,2.08,1.22,4.41,1.4,6.77,1.55,16.78,1.06,34.16.2,51.01.2,9.03,0,40.21,1.12,46.85-.77,2.29-.65,4.54-3.17,5.68-5.16,1.25-2.19,1.8-5.49,1.2-7.95l-.56-3.1c-2.39-6.6-6.16-13.11-11.93-17.33l-4.08-3.38c-5.46-3.44-11.4-6.05-17.3-8.61l-5.42-2.86c-4.53-1.94-8.89-4.27-13.28-6.51l1.25-4.18Z"/>
  <path class="cls-14" d="m603.54,903.9c38.66-.42,77.38-.26,116.04-.08l.56,3.1-.65,1.34c-4.17.33-8.47-.09-12.66-.14-7.49-.1-15-.04-22.49-.04h-80.91s.12-4.19.12-4.19Z"/>
  <path class="cls-7" d="m508.64,860.67c18.96,10.29,47.8,17.68,54.72,40.88,1.63,5.47,2.12,11.57-.89,16.69-1.83,3.1-4.58,5.21-8.07,6.04-7.49,1.8-16.73.83-24.45.81l-38.55-.07c-12.14-.01-25.04,1.05-37.11.01-3.21-.28-6.58-1.02-9.27-2.87-3.36-2.32-4.81-6.61-5.41-10.49-1.08-6.99-1.12-40.48-.19-47.57,1.55,2.12,3.66,5.31,4.31,7.86,4.32,6.29,9.56,11.36,16.68,14.35,8.69,3.59,18.46,3.59,27.15,0,9.88-4.11,15.82-11.67,19.83-21.33l1.23-4.31Z"/>
  <path class="cls-7" d="m507.41,864.98c4.43,2.34,8.82,4.7,13.43,6.64l5.43,2.83c5.87,2.55,11.95,5.11,17.31,8.64l4.07,3.37c5.8,4.3,9.48,10.7,11.95,17.35l-116.16.04c-.02-10.44-.81-21.54.3-31.88,4.32,6.29,9.56,11.36,16.68,14.35,8.69,3.59,18.46,3.59,27.15,0,9.88-4.11,15.82-11.67,19.83-21.33Z"/>
  <path class="cls-14" d="m520.84,871.63l5.43,2.83c5.87,2.55,11.95,5.11,17.31,8.64l4.07,3.37c-.63,1.69-1.46,3.36-2.58,4.78-1.37,1.73-3.52,2.28-5.63,2.35-7.17.22-17.51-5.51-22.66-10.26,1.23-1.28,2.66-2.61,3.64-4.09,1.65-2.5,1.01-4.92.42-7.61Z"/>
  <path class="cls-7" d="m526.27,874.46c5.87,2.55,11.95,5.11,17.31,8.64-.17,1.09-.29,2.34-.68,3.36-.48,1.25-1.47,2.19-2.76,2.54-4.86,1.33-12.72-3.72-16.8-5.94,1.76-2.79,2.41-5.41,2.93-8.61Z"/>
  <path class="cls-13" d="m508.64,860.67c18.96,10.29,47.8,17.68,54.72,40.88,1.63,5.47,2.12,11.57-.89,16.69-1.83,3.1-4.58,5.21-8.07,6.04-7.49,1.8-16.73.83-24.45.81l-38.55-.07c-12.14-.01-25.04,1.05-37.11.01-3.21-.28-6.58-1.02-9.27-2.87-3.36-2.32-4.81-6.61-5.41-10.49-1.08-6.99-1.12-40.48-.19-47.57,1.55,2.12,3.66,5.31,4.31,7.86-1.11,10.34-.32,21.43-.3,31.88l-.02,4.24c.02,1.2.04,2.53.28,3.71.69,3.45,2.63,5.81,5.54,7.68,1.46.94,3.44.99,5.14,1.09,19.97,1.17,40.51.23,60.54.22,9.39,0,29.77,1.14,37.95-.63,2.42-.53,4.62-2.9,5.86-4.93,1.43-2.33,2.08-5.64,1.4-8.31l-.52-3.11c-2.47-6.65-6.15-13.05-11.95-17.35l-4.07-3.37c-5.36-3.53-11.44-6.09-17.31-8.64l-5.43-2.83c-4.62-1.95-9.01-4.31-13.43-6.64l1.23-4.31Z"/>
  <path class="cls-14" d="m443.45,903.85l116.16-.04.52,3.11-.65,1.35c-4.18.3-8.47-.1-12.67-.16-7.61-.1-15.23-.04-22.85-.04h-80.53s.02-4.23.02-4.23Z"/>
  <path class="cls-4" d="m434.37,73.41c21.65-27.94,47.71-49.52,84.14-54.06,18.44-2.14,37.12-.06,54.63,6.09,5.59,1.91,10.96,4.52,16.58,6.28,4.41,1.39,9.03,2.14,13.49,3.37,11.87,3.31,22.95,8.95,32.6,16.6,23.31,18.32,35.84,47.11,39.18,76.08,2.12,18.38.08,38.12-11.86,53.03-2.65,3.31-5.66,6.07-8.9,8.78,1.06-3.76,2.39-7.21,4-10.77l-1.24-5.93.6-.15c1.31-.33,2.39-.5,3.4-1.46.21-1.13.2-1.21-.28-2.25-5.53-2.83-11.34-5.07-16.91-7.81-26.1-12.85-51.09-28.26-65.72-54.33,2.54-5.17,13.12-26.28,11.76-31.05-.17-.6-.39-.93-.68-1.45l-1.01-.25c-1.4.88-2.13,1.85-2.9,3.32-2.59,4.97-4.18,10.7-6.32,15.9-3.56,8.66-8.4,16.98-13.64,24.74-10.82,16.03-24.19,28.82-40.73,38.84l-.03-6.18c-.44-2.38-.95-4.68-.75-7.12.64-11.12-5.55-25.86-11.53-35.02-12.02-18.43-31.5-29.05-52.63-33.46l-6.02-1c-6.36-.6-12.84-1.16-19.23-.73Z"/>
  <path class="cls-10" d="m453.59,74.14c-.76-1.79-1.23-2.75-.39-4.67,1.76-4.02,5.4-7.52,8.48-10.53,12.2-11.9,26.51-21.32,42.65-26.93,22.2-7.72,45.24-6.73,67.57-.2,5.09,1.49,10.56,3.1,15.33,5.42,2.06,1,4.53,2.48,5.36,4.75.41,1.14.21,2.41-.31,3.47-.63,1.3-2.03,2.25-3.39,2.66-3.96,1.21-17.94-5.72-22.78-7.15-4.27-1.21-8.6-2.16-12.98-2.85-11.14-1.8-22.51-1.58-33.57.67-13.55,2.91-26.34,8.64-37.53,16.81-4.13,2.98-8.02,6.29-11.61,9.9-2.57,2.6-5.68,7.01-8.61,8.92-.8.53-1.28.6-2.2.71l-6.02-1Z"/>
  <path class="cls-13" d="m523.77,143.63l.93,1.71.39-.7c3.96-6.98,10.73-11.29,18.46-13.25,1.73-.44,4.05-.88,5.62.22.73.51.88,1,1.3,1.76-.56,1.37-1.04,1.81-2.41,2.43-4,1.77-9.77,1.53-12.92,4.55-.19.19-.39.36-.58.55-2.65,2.61-4.8,6.1-6.68,9.3-1.46.8-1.77.68-3.37.54-.44-2.38-.95-4.68-.75-7.12Z"/>
  <path class="cls-10" d="m606.31,43.74c1.01-.1,2.07-.2,3.08-.06,11.6,1.6,33.29,24.89,39.82,34.44,11.32,16.57,17.69,35.53,19.61,55.43.35,3.6,1.17,8.09.38,11.61-.56,2.47-1.92,3.57-3.96,4.9-1.92.04-4.43.1-5.96-1.25-3.24-2.87-2.55-10.49-2.82-14.57-1.86-27.47-15.06-52.93-36.44-70.29-5.02-4-11.92-6.31-16.51-10.67-.99-.94-1.49-2.31-1.41-3.67.15-2.64,2.37-4.33,4.23-5.88Z"/>
  <path class="cls-13" d="m622.3,132.84c2.86-.13,5.93-.21,8.75.34,5.46,1.06,11.85,4.01,14.91,8.87,1.58,2.51,2.84,5.63,2.11,8.6-4.81.03-5.76-7.42-10.38-10.8-3.8-2.78-9.84-2.17-14.31-3.38-1.27-1.37-1.02-1.81-1.08-3.62Z"/>
  <path class="cls-10" d="m574.63,112.79c14.11,21.46,34.98,36.08,57.24,48.03,7.19,3.86,14.65,7.82,22.36,10.56-.64,1.78-1.29,3.53-1.68,5.38-3.17,12.32-4.21,25.03-6.19,37.57-2.93,15.86-5.87,32.05-18.85,43.02-21.7,17.41-48.25,23.86-75.7,20.87-13.38-1.46-25.84-5.24-38.4-9.93-2.02-.76-5.63-1.65-7.12-3.25-.41-.44-.54-.79-.78-1.3.33-1.03.69-1.97,1.15-2.95.53-2.12.88-4.21.89-6.41.06-10.29-7.72-18.34-14.6-24.99,4.96-6.82,9.4-14.04,13.8-21.23,5.73-10.07,11.82-20.93,15.01-32.1,1.18-4.12,1.73-8.38,2.62-12.57,16.64-7.66,32.47-25.24,43.32-39.81,2.34-3.59,4.84-7.15,6.93-10.89Z"/>
  <path class="cls-8" d="m506.75,208.15c.21.2.41.42.63.61,2.21,1.9,7.83,1.67,10.7,2.4,9.06,2.29,16.07,11.56,17.41,20.5,1.05,7-.77,13.82-5,19.47-3.88,5.18-9.66,8.59-16.07,9.47-2.54.36-5.2.18-7.76.18.53-2.12.88-4.21.89-6.41.06-10.29-7.72-18.34-14.6-24.99,4.96-6.82,9.4-14.04,13.8-21.23Z"/>
  <path class="cls-8" d="m627.51,257.35c-2.71-8.07-7.15-9.69-6.14-20.15.64-6.91,4.03-13.27,9.4-17.67,4.38-3.57,9.91-5.79,15.6-5.2-2.93,15.86-5.87,32.05-18.85,43.02Z"/>
  <path class="cls-13" d="m597.6,226.17c1.26.15,2.01.27,3.14.9.98,1.46,1.05,2.77.77,4.47-.77,4.57-4,8.94-7.8,11.52-4.33,2.95-10.09,3.85-15.17,2.67-5.91-1.37-9.84-5.26-12.9-10.28-.52-1.18-1.06-2.43-1.19-3.73-.16-1.62.16-3.03,1.16-4.26.23,0,.46-.01.68.02,2.45.38,3.88,5.08,4.91,7,1.73,3.25,5.72,5.77,9.2,6.73,3.11.85,6.39.19,9.12-1.46,5.21-3.16,6.57-8.13,8.07-13.58Z"/>
  <path d="m539.35,181.2c2.54-.18,5.31-.18,7.82.35,2.2.46,5.46,1.86,6.6,3.94.71,1.29.41,1.99-.02,3.31-2.33,2.45-5.11,2.88-8.28,3.52-2.71.19-5.28.24-7.97-.26-2.94-.55-5.48-1.88-7.2-4.35-.23-1.4-.42-1.86.38-3.12,1.51-2.38,6.11-2.93,8.67-3.39Z"/>
  <path d="m615.95,181.17c2.43-.14,4.93-.1,7.33.35,2.85.54,5.14,1.84,6.75,4.26.2,1.39.39,2.15-.48,3.34-1.73,2.36-5.82,2.8-8.51,3.26-3.66.25-7.87.17-11.18-1.6-1.35-.72-2.97-1.78-3.4-3.35-.28-1.04-.13-1.93.48-2.83,1.74-2.57,6.19-3,9.01-3.45Z"/>
  <path class="cls-5" d="m514.15,469.48c-.44-1.62-1.25-3.46-.9-5.11,6.01-2.15,23.75-2.61,30.56-2.33,16.4.67,33.19,3.48,49.52,5.29,14.82,1.64,30.33,2.41,44.97,5.07,15.81,50.18,32.34,100.26,47.28,150.7-8.58.27-17.2.74-25.78.75-9.05-26.03-16.92-52.58-25.3-78.83-3.35-10.49-6.21-21.62-10.25-31.85-.6-1.51-1.25-3.5-2.8-4.24-1.24-.59-1.77-.48-3.1-.34-1.49,1.15-1.91,2.55-2.19,4.38-1.1,7.25.23,20.74.36,28.8.46,28.04,1.74,56.31,1.39,84.34h-59.82c-3.58-12.48-8.27-25.48-10.44-38.28-1.37-8.08-1.22-16.59-1.54-24.77l-1.57-40.6c-.16-4.12.68-16.18-3.15-18.37-1.66-.95-3.31-.81-5.13-.54-1.27-2.11-.93-5.1-2-7.36-1.44-3.05-4.8-3.2-7.6-4.26,1.62-.27,3.23-.69,4.71-1.43,2.56-1.28,4.46-3.86,5.28-6.56.96-3.14.71-6.77-.85-9.68-5.04-9.37-14.57-1.87-21.17-4.52-.17-.07-.32-.18-.48-.27Z"/>
  <path class="cls-6" d="m435.12,77.73c19.38-1.1,39.89,3.7,55.83,15.02,15.76,11.19,25.12,27.76,28.22,46.7,1.82,11.09,1.63,22.86-1.15,33.79-5.3,20.85-21.85,44.14-34.28,61.54-12.7-4.67-23.6-4.17-36.49-.76,5.2-5.09,9.84-10.55,13.88-16.62,10.84-16.31,16.53-36.33,12.53-55.8-3.06-14.89-11.2-26.97-23.84-35.35-7.83-4.79-16.89-7.17-26.06-6.85-17.5.57-33.98,10.15-45.74,22.72-10.28,10.87-15.65,25.48-14.88,40.41.64,14.53,6.69,24.32,17.1,33.93-10.03-2.64-19.64-5.84-27.73-12.61-8.95-7.49-13.79-17.84-14.73-29.39-1.79-22.03,8.53-43.52,22.62-59.84,20.27-23.49,43.71-34.59,74.73-36.87Z"/>
  <path class="cls-2" d="m482.55,164.54c1.07.23,1.8.28,2.63,1.04,1.09,1.01,1.21,3.38,1.27,4.77.8,18.22-9.77,43.68-21.79,56.9-.91-.16-1.46-.51-2.26-.95-1.26-3.11,4.43-8.76,6.2-11.46,7-10.7,11.26-23.53,12.64-36.21.49-4.5.41-9.04,1.2-13.51.04-.2.08-.4.11-.6Z"/>
  <path class="cls-5" d="m699.04,403.12c26.59,21.45,52.26,44.32,78.29,66.46l3.75,3.27c5.2,5.72,9.69,12.55,9.26,20.63-.15,2.88-.98,4.79-2.61,7.13-3.57,5.1-8.76,9.23-13.02,13.76-8.35,8.87-16.1,18.55-25.3,26.58-3.8,3.32-11.64,9.74-17.03,9.53-5.77-.23-11.16-6.37-15.01-10.14l-3.52-3.56c-22.28-24.94-41.47-52.45-60.53-79.86l3.1-3.69c-2.01-10.76-2.91-22.16-3.89-33.07,16.09-3.48,31.55-10.35,46.51-17.04Z"/>
  <path class="cls-5" d="m777.33,469.58l3.75,3.27c5.2,5.72,9.69,12.55,9.26,20.63-.15,2.88-.98,4.79-2.61,7.13-3.57,5.1-8.76,9.23-13.02,13.76-8.35,8.87-16.1,18.55-25.3,26.58-3.8,3.32-11.64,9.74-17.03,9.53-5.77-.23-11.16-6.37-15.01-10.14l-3.52-3.56c22.03-13.78,47.03-46.33,63.48-67.2Z"/>
  <path class="cls-14" d="m777.33,469.58l3.75,3.27c-10.31,15.94-47.94,59.1-63.71,67.49l-3.52-3.56c22.03-13.78,47.03-46.33,63.48-67.2Z"/>
  <path class="cls-5" d="m396.54,388.8c18.7,7.18,37.98,13.04,57.16,18.76l10.15,29.07c-2.84-2.65-6.32-5.36-9.78-7.15-12.54-6.46-27.29-10.12-40.66-14.64-5.31-1.8-11.52-4.76-17.02-5.58-1.38-.21-1.75.24-2.85.98v1.09c1.13,1.29,2.33,2.08,3.92,2.73,5.58,2.3,11.67,3.92,17.42,5.8,10.54,3.38,21,7.01,31.38,10.87l3.59,1.53c6.15,3.37,11.62,6.32,13.69,13.57,1.58,5.54,1.57,12.27,1.56,18.03-7.23,1.73-12.9,5.82-16.84,12.15-4.46,7.23-5.84,15.94-3.82,24.19.76,3,1.98,5.65,3.66,8.24-5.43,6.88-14.27,19.06-23.35,20.29-4.99.68-12.76-2.07-16.79-5.11l-2.43-1.09c-9.62-5.67-18.65-11.9-26.95-19.4-12.75-11.51-27.96-28.57-28.68-46.44-.95-23.26,31.61-51.62,46.65-67.91Z"/>
  <path class="cls-5" d="m446.26,430.74l3.59,1.53c6.15,3.37,11.62,6.32,13.69,13.57,1.58,5.54,1.57,12.27,1.56,18.03-7.23,1.73-12.9,5.82-16.84,12.15-4.46,7.23-5.84,15.94-3.82,24.19.76,3,1.98,5.65,3.66,8.24-5.43,6.88-14.27,19.06-23.35,20.29-4.99.68-12.76-2.07-16.79-5.11l-2.43-1.09c.62-4.14,18.84-37.79,22.16-44.72,7.42-15.48,13.88-30.56,18.57-47.09Z"/>
  <path class="cls-14" d="m446.26,430.74l3.59,1.53c-1.64,7.31-4.07,14.09-6.85,21.04-4.46,11.13-28.71,64.19-35.05,70.33l-2.43-1.09c.62-4.14,18.84-37.79,22.16-44.72,7.42-15.48,13.88-30.56,18.57-47.09Z"/>
  <path class="cls-4" d="m622.08,630.23c.6-9.98-.05-20.23-.23-30.23l-1.01-53.2c-.2-9.84-.77-19.98.02-29.78,8.78,25.48,16.55,51.38,24.75,77.05,2.89,9.05,6.88,25.46,11.39,33.23,4.08,2.11,24.16.13,29.88-.03,4.04,12.28,7.81,24.66,11.67,36.99l1.28,3.97c.61,3.43,1.89,7.56.2,10.83-5.09,3.94-112.43,5.88-125.55,5.77l-3.93-13.98-1.24-4.17c-2.42-12.09-6.72-24.4-10.06-36.29,20.93,0,41.91.29,62.84-.15Z"/>
  <path class="cls-4" d="m569.3,666.68c43.07-1.12,86.16-1.15,129.24-2.41l1.28,3.97c.61,3.43,1.89,7.56.2,10.83-5.09,3.94-112.43,5.88-125.55,5.77l-3.93-13.98-1.24-4.17Z"/>
  <path class="cls-14" d="m569.3,666.68c43.07-1.12,86.16-1.15,129.24-2.41l1.28,3.97c-13.01,1.8-27.21,1.09-40.37,1.38l-88.91,1.24-1.24-4.17Z"/>
  <path class="cls-4" d="m512.77,576.45c10.98,29.85,20.37,60.37,31.72,90.07l1.32,3.87c1.58,4.85,3.4,9.63,5.13,14.43-35.48-.37-70.94-2.03-106.31-4.98-13.67-1.2-28.3-2.05-41.68-4.92-3.09-.66-6.61-1.62-8.3-4.54-2.27-3.93.1-9.24,1.31-13.18l1.09-3.88c3.3-10.07,6.11-20.36,8.98-30.57,18.93.52,37.88,1.67,56.8,2.56,7.99.37,24.13,2.33,31.17.48,4.35-5.26,16.08-40.7,18.77-49.36Z"/>
  <path class="cls-4" d="m397.05,653.33c10.7,4.82,24.16,6.18,35.73,7.51,24.01,2.76,48.33,3.95,72.48,4.63,13.02.37,26.23.11,39.22,1.05l1.32,3.87c1.58,4.85,3.4,9.63,5.13,14.43-35.48-.37-70.94-2.03-106.31-4.98-13.67-1.2-28.3-2.05-41.68-4.92-3.09-.66-6.61-1.62-8.3-4.54-2.27-3.93.1-9.24,1.31-13.18l1.09-3.88Z"/>
  <path class="cls-14" d="m397.05,653.33c10.7,4.82,24.16,6.18,35.73,7.51,24.01,2.76,48.33,3.95,72.48,4.63,13.02.37,26.23.11,39.22,1.05l1.32,3.87c-23.54.95-133.3-2.23-149.84-13.18l1.09-3.88Z"/>
  <path class="cls-14" d="m586.3,336.33c17.29-5.41,34.31-11.95,51.69-17.01,12.93,9.54,25.51,19.62,38.2,29.49,11.24,8.74,22.7,17.3,33.76,26.26l3.84,3c1.97,1.43,5.32,3.34,6.44,5.53.34.66.62,1.46.26,2.16-3.7,7.27-51.74,25.28-61.84,28.32-11.9,3.58-29.07,8.58-40.62,2.23-20.1-11.05-37.55-54.9-43.65-75.98l8.29-2.84,3.63-1.16Z"/>
  <path class="cls-14" d="m582.67,337.49l3.63-1.16c6.34,16.48,22.38,60.8,38.9,67.86,11.25,4.81,40.22-8.14,51.3-12.97,11.2-4.89,22.96-9.93,33.45-16.15l3.84,3c1.97,1.43,5.32,3.34,6.44,5.53.34.66.62,1.46.26,2.16-3.7,7.27-51.74,25.28-61.84,28.32-11.9,3.58-29.07,8.58-40.62,2.23-20.1-11.05-37.55-54.9-43.65-75.98l8.29-2.84Z"/>
  <path class="cls-5" d="m582.67,337.49l3.63-1.16c6.34,16.48,22.38,60.8,38.9,67.86,11.25,4.81,40.22-8.14,51.3-12.97,11.2-4.89,22.96-9.93,33.45-16.15l3.84,3c-20.99,11.4-47.67,24.07-70.74,29.71-7.28,1.78-15.5,3.24-22.27-.94-14.72-9.1-34.17-52.68-38.11-69.35Z"/>
  <path class="cls-5" d="m571.37,346.84c3.23,4.63,4.94,12.12,7.1,17.48,6.99,17.38,18.82,42.97,34.37,53.93,10.87,7.66,23.15,5.25,35.4,3.1,1.14,10.15,2.35,20.29,3.63,30.43l-12.92,16.16c-8.49-.45-17.1-1.77-25.56-2.7l-47.9-5.24c4.32-.79,8.76-1.06,13.12-1.48,3.93-.2,14.34.27,17.13-2.39.65-.62.49-.95.57-1.8l-.72-.83c-6.27-1.14-26.04,1.58-33.7,2.21-16.64,1.36-33.75,2.01-50.27,4.3-4.42-14.07-8.04-28.48-12.01-42.68,10.39.91,20.54,1.27,29.95-3.93,21.59-11.94,35.29-43.76,41.82-66.55Z"/>
  <path class="cls-13" d="m570.59,408.85c5.91-1.52,11.96,1.96,13.61,7.84,1.65,5.88-1.7,11.99-7.54,13.77-3.89,1.19-8.13.17-11.06-2.65-2.93-2.82-4.11-7.01-3.08-10.95,1.04-3.94,4.12-7.01,8.07-8.02Z"/>
  <path class="cls-14" d="m572.6,412.81c3.74-.41,7.14,2.23,7.64,5.97.51,3.73-2.05,7.19-5.77,7.79-2.49.4-5.01-.57-6.57-2.56-1.56-1.98-1.93-4.66-.95-6.98.98-2.33,3.14-3.94,5.65-4.22Z"/>
  <path class="cls-13" d="m570.96,373.98c6.09-1.34,12.11,2.55,13.4,8.65,1.28,6.11-2.66,12.09-8.78,13.31-6.04,1.21-11.92-2.67-13.19-8.7-1.27-6.03,2.56-11.95,8.57-13.27Z"/>
  <path class="cls-14" d="m570.97,378.42c2.35-.86,4.98-.4,6.89,1.22,1.91,1.62,2.8,4.14,2.33,6.59-.47,2.46-2.22,4.47-4.59,5.27-3.6,1.22-7.51-.68-8.77-4.27-1.26-3.58.59-7.51,4.15-8.82Z"/>
  <path class="cls-5" d="m450.7,512.2c10.08,10.16,22.27,9.13,35.61,10.71,2.63.31,5.84.45,8.3,1.35,5.33,15.19,11.08,30.36,15.83,45.74-5.68,17.62-12.53,34.99-18.86,52.4-28.03-1.37-56.1-2.4-84.12-4.02,4.92-18.24,10.6-36.34,15.89-54.48,2.46-8.42,6.53-26.76,10.61-33.54,2.35-3.92,7.05-7.36,10.3-10.62,2.34-2.36,4.4-4.91,6.44-7.52Z"/>
  <path class="cls-10" d="m467.64,685.87c19.71,1.45,39.46,1.94,59.2,2.88-.7,7.88-2.1,15.8-3.2,23.63l-6.31,45.14c-3.58,25.65-6.26,51.84-11.01,77.28-1.13-2.14-2.51-4.14-3.83-6.17-.99-1.18-1.99-2.37-3.07-3.47-6.51-6.54-15.34-10.26-24.57-10.32-10.66-.08-19.29,4.44-26.68,11.84,1.57-15.31,4.1-30.6,6.23-45.85l13.22-94.95Z"/>
  <path class="cls-10" d="m620.93,688.42l16.38-.57c3.11,16.1,5.35,32.5,8,48.7l14.52,89.09c-5.65-5.34-11.95-9.34-19.71-10.76-10.14-1.85-19.22.88-27.59,6.58-4.8,3.81-7.93,8.38-10.93,13.66-3.59-20.11-6.61-40.37-9.91-60.53-1.94-11.86-4.45-23.84-6-35.74-.5-3.88.88-7.74.3-11.57-.93-6.12-3.07-12.27-4.57-18.29-1.62-6.53-2.65-13.17-3.64-19.81,14.36.1,28.79-.33,43.15-.77Z"/>
  <path class="cls-4" d="m426.39,123.31c3.14.4,6.26.83,9.32,1.63,11.8,3.19,21.82,11.01,27.77,21.69,8.05,14.19,8.91,30.3,4.56,45.79-4.12-4.95-7.35-10.18-11.11-15.35-1.44-.37-1.37-.37-2.66.36-.43,1.23-.55,1.52-.12,2.82.84,2.56,2.39,5.12,3.56,7.56,2.75,5.74,4.33,11.17,5.18,17.47-3.86,9.23-11.23,19.39-19.15,25.5-4.38-.18-8.23-.61-12.18-2.63-4.77-2.44-8.07-6.63-9.64-11.71-4.03-13.06,2.55-26.59,8.61-37.86-1.17-1.05-1.49-1.45-3.06-1.81-2.75,1.76-8.78,12.05-11.89,15.38-5.47,5.85-12.78,11.35-21.15,11.41-5.61.04-10.79-2.49-14.75-6.35-4.14-4.03-6.53-9.3-6.51-15.12.05-13.44,12.72-21.17,24.48-23.57,3.62-.74,16.44-.79,18.38-2.71v-1.55c-2.33-2.6-16.96-2.54-21.54-3.79-4.64-1.25-8.7-3.44-12.73-6.01,11.05-11.2,23.41-17.99,38.87-20.74,2.25,2.73,3.74,5.94,6.05,8.67,1.34.39,1.46.4,2.79-.03l.5-1.16c-.41-2.88-2.17-5.39-3.58-7.89Z"/>
  <path d="m440.54,132.07c4.57,2.97,13.67,17.12,16.42,22.34-2.51,4.18-11.16,20.81-15.28,22.5-5.9-6.14-13.94-15.64-18.19-22.88,4.97-7.46,10.9-15.46,17.05-21.96Z"/>
  <path class="cls-12" d="m440.48,138.69c4.24,3.49,8.26,10.99,11.49,15.62-3.23,5.23-6.29,11.47-10.26,16.11l-13.04-16.31,11.8-15.42Z"/>
  <path class="cls-4" d="m472.16,319.04c.99-1.8,1.64-4.02,2.94-5.61.67-.82.96-.91,1.94-1.05,2.81,4.27.97,12.4,5.69,18.68,3.42,4.55,7.85,6.05,13.24,6.82,9.1-.12,17.14-2.11,23.81-8.52,1.58-1.74,2.42-3.39,3.34-5.51,9.79,3.54,19.55,7.28,29.44,10.52l3.59,1.32,12.8,4.74c-3.62,11.85-7.72,23.35-13.19,34.48-.85,3.28-2.61,6.88-5.03,9.32-7.52,12.11-16.84,25.08-31.59,28.46-6.8,1.56-13.91.87-20.78.2-1.07-3.62-4.01-10.58-3.13-14.15.29-1.36.35-2.72.47-4.11-.55-1.59-1.45-2.93-2.42-4.31-4.39-6.25-18.28-60.47-21.12-71.3Z"/>
  <path class="cls-14" d="m519.78,329.36c1.58-1.74,2.42-3.39,3.34-5.51,9.79,3.54,19.55,7.28,29.44,10.52l3.59,1.32,12.8,4.74c-3.62,11.85-7.72,23.35-13.19,34.48-.76-1.63-.9-2.75-.82-4.54.31-1.83.55-2.3-.23-4.04-2.48-1.61-6.23-1.44-9.15-1.78l-4.57-1.09-.8-.4c-7.42-3.56-11.38-9.65-14.3-17.15-.69-1.77-1.33-4.47-2.44-5.92-.79-1.04-2.05-.89-3.25-1.06l-.59-.44c1.21-.66,2.66-1.44,3.38-2.68.69-1.18.83-2.31.41-3.61-.49-1.51-2.32-2.26-3.63-2.85Z"/>
  <path class="cls-14" d="m556.16,335.69l12.8,4.74c-3.62,11.85-7.72,23.35-13.19,34.48-.76-1.63-.9-2.75-.82-4.54.31-1.83.55-2.3-.23-4.04-2.48-1.61-6.23-1.44-9.15-1.78,3.86-9.52,7.65-19.02,10.6-28.86Z"/>
  <path class="cls-5" d="m552.57,334.37l3.59,1.32c-2.95,9.84-6.74,19.35-10.6,28.86l-4.57-1.09c5.42-8.25,7.68-19.93,11.57-29.09Z"/>
  <path class="cls-14" d="m533.86,388.83l.54-.78c3.17-.66,14.45-4.42,16.34-3.81-7.52,12.11-16.84,25.08-31.59,28.46-6.8,1.56-13.91.87-20.78.2-1.07-3.62-4.01-10.58-3.13-14.15.29-1.36.35-2.72.47-4.11l2.44-.42c.71,1.85,1.17,2.94,2.74,4.18,1.41.29,1.38.2,2.63-.55l.85-1.5c4.7.51,10.79,1.75,15.23-.22,0-.2-.02-.41,0-.61.18-2.17,2.43-3.7,3.94-5.05l1.88.6c2.22.08,4.25-.02,6.45-.34l2-1.91Z"/>
  <path class="cls-5" d="m523.53,390.48l1.88.6c2.22.08,4.25-.02,6.45-.34-4.98,5.17-9.64,10.28-17.38,10.55-6.33.22-12.97-1.84-19.25-2.54.29-1.36.35-2.72.47-4.11l2.44-.42c.71,1.85,1.17,2.94,2.74,4.18,1.41.29,1.38.2,2.63-.55l.85-1.5c4.7.51,10.79,1.75,15.23-.22,0-.2-.02-.41,0-.61.18-2.17,2.43-3.7,3.94-5.05Z"/>
  <path class="cls-10" d="m523.53,390.48l1.88.6c-1.83,1.97-3.61,3.53-5.82,5.06,0-.2-.02-.41,0-.61.18-2.17,2.43-3.7,3.94-5.05Z"/>
  <path class="cls-14" d="m472.16,319.04c.99-1.8,1.64-4.02,2.94-5.61.67-.82.96-.91,1.94-1.05,2.81,4.27.97,12.4,5.69,18.68,3.42,4.55,7.85,6.05,13.24,6.82.41,1.59.65,3.53,2.22,4.38.94.51,2.1.83,3.12,1.16-7.18,10.11-8.29,26.85-6.35,38.69.7,4.12,1.76,8.17,3.18,12.1l-2.44.42c-.55-1.59-1.45-2.93-2.42-4.31-4.39-6.25-18.28-60.47-21.12-71.3Z"/>
  <path d="m503.86,343.49c.76,1.02,1.24,1.35,1.11,2.68-.29,2.98-2.65,6.49-3.52,9.5-3.91,13.48-2.88,27.91,2.91,40.69l-.85,1.5c-1.25.74-1.22.83-2.63.55-1.58-1.25-2.03-2.33-2.74-4.18-1.42-3.93-2.48-7.98-3.18-12.1-1.95-11.85-.84-28.58,6.35-38.69l2.56.06Z"/>
  <path d="m520.2,338.94c1.2.17,2.46.02,3.25,1.06,1.11,1.45,1.75,4.15,2.44,5.92,2.91,7.51,6.88,13.59,14.3,17.15l.8.4,4.57,1.09c2.92.34,6.68.17,9.15,1.78.78,1.74.54,2.2.23,4.04-5.34.06-10.87-.56-15.91-2.42-8.69-3.21-13.46-10.01-17.19-18.14-1.67-3.65-3.12-6.89-1.64-10.87Z"/>
  <path class="cls-7" d="m495.97,337.89c9.1-.12,17.14-2.11,23.81-8.52,1.31.59,3.14,1.33,3.63,2.85.42,1.29.27,2.43-.41,3.61-.72,1.24-2.17,2.02-3.38,2.68-4.26,2-7.96,3.67-12.66,4.16-.81.08-2.68.11-3.08.83l-2.56-.06c-1.01-.33-2.18-.65-3.12-1.16-1.56-.86-1.81-2.79-2.22-4.38Z"/>
  <path d="m523.53,390.48c-.88-.32-1.69-.72-2.5-1.2-2.69-1.6-5.08-4.34-5.83-7.42-.39-1.59-.63-3.15.3-4.58l1.23-.22c4.06,1.75,3.39,4.25,5.84,7.13,1.85,2.18,6.41,1.9,9.02,1.88,1.39.86,1.52,1.34,2.26,2.76l-2,1.91c-2.2.32-4.23.42-6.45.34l-1.88-.6Z"/>
  <path d="m530.94,373.61c3.95-.12,9.81,2.15,13.38,3.97.94,1.54.79,1.71.58,3.42-.94.26-1.88.41-2.85.48-3.25.24-6.78-.65-9.19-2.93-1.63-1.54-1.89-2.75-1.91-4.95Z"/>
  <path class="cls-13" d="m498.06,452.09c2.51.15,4.9,1.1,7.3,1.21,1.27,1.51,2.49,3.06,3.06,4.99.93,3.13.25,11.26,4.79,11.33.49,0,.55-.03.94-.13.16.09.31.2.48.27,6.6,2.65,16.13-4.85,21.17,4.52,1.56,2.91,1.81,6.54.85,9.68-.83,2.7-2.72,5.28-5.28,6.56-1.48.74-3.09,1.16-4.71,1.43,2.8,1.06,6.16,1.21,7.6,4.26,1.07,2.27.74,5.25,2,7.36-1.23,4.96-4.44,11.26-7.53,15.35-3.64-2.09,1.83-3.31-6.5-4.39l-.62-.58c-1.79.2-3,.38-4.22,1.87-.13.16-.25.34-.38.51l-3.49,2.89c-1.86,1.02-3.71,2.08-5.59,3.06l-4.24,1.27c-1.5.22-3.17.32-4.63.72-1.44-.2-2.99-.05-4.45,0-2.46-.9-5.68-1.04-8.3-1.35-13.34-1.58-25.53-.54-35.61-10.71l-2.61-3.74c-1.68-2.59-2.9-5.24-3.66-8.24-2.02-8.25-.64-16.96,3.82-24.19,3.94-6.34,9.61-10.42,16.84-12.15,6.89-1.86,1.64-6.24,3.95-10.09l.55-.02c.66,1.12,1.26,1.74,2.22,2.57,1.59.05,1.85-.36,3.13-1.23,1.84-.28,3.67-.53,5.52-.71l4.29-.67,8.97-1.13,4.33-.5Z"/>
  <path class="cls-10" d="m511.74,515.66c-1.98.98-4.02,2.09-6.12,2.8-7.85,2.69-38.21-.57-45.31-4.22-5.37-2.73-9.42-7.5-11.24-13.25-2.19-6.86-1.57-14.31,1.74-20.71,3.75-7.09,9.23-10.56,16.69-12.92.98,2.65,1.98,5.44,4.34,7.2,5.82,4.34,20.87-.31,28.02-1.14-.71.87-1.42,1.8-1.99,2.77-1.53,2.61-2.01,6.3-1.2,9.22.96,3.48,3.13,5.62,6.17,7.38l3.51.79.22.54c-1.21.51-2.23,1.11-3.24,1.96-2.22,1.87-3.92,4.77-4.12,7.7-.23,3.37.97,6.43,3.29,8.85,2.7,2.82,5.57,2.85,9.22,3.01Z"/>
  <path class="cls-10" d="m518.07,474.13c3.45-.19,9.65-1.23,12.58.43,1.24,1.73,2,3.76,2.2,5.88.15,1.66-.21,3.28-1.37,4.52-3.12,3.36-10.64,3.12-15,3.45-4.49.38-10.03,1.53-13.92-1.36-1.33-.99-2.24-2.54-2.34-4.2-.13-2.25,1.04-4.56,2.61-6.1,3.2-3.14,10.92-2.49,15.24-2.62Z"/>
  <path class="cls-10" d="m497.55,456.4c1.58-.11,3-.19,4.46.53,1.88.94,3.14,3.37,3.61,5.34.31,1.32.13,2.67-.65,3.8-3.29,4.75-18.77,5-24.48,5.95-1,.2-2.07.45-3.09.45-1.46,0-3.09-1.1-4.02-2.15-1.22-1.39-1.5-3.33-1.23-5.11.45-3,2.05-4.32,4.4-6.03,6.9-1.29,14.03-1.91,21-2.78Z"/>
  <path class="cls-10" d="m522.48,496.84c2.25-.26,4.71-.91,6.59.71,1.6,1.39,2.78,3.82,2.92,5.93.1,1.57-.34,3.13-1.42,4.3-2.8,3.04-11.64,2.72-15.52,3.06-3.43.36-6.53,1.02-9.38-1.39-1.39-1.18-2.36-2.78-2.4-4.63-.04-1.81.8-3.45,2.05-4.71,3.83-3.83,12.05-3.09,17.17-3.27Z"/>
  <path class="cls-3" d="m502.85,492.81c6.2-.06,12.72-1.01,18.87-.6-.48.75-1.08.77-1.95.94-4.14.81-8.92.56-13.18.98l-.22-.54-3.51-.79Z"/>
  <path class="cls-6" d="m517.02,516.32c.13-.17.24-.35.38-.51,1.23-1.49,2.43-1.67,4.22-1.87l.62.58c14.01,47.82,26.91,96.01,40.36,144l13.67,48.82c1.82,6.52,4.62,13.73,5.76,20.35.2,1.14-.08,2.22-.62,3.22-.79,1.46-2.28,2.61-3.9,2.99-1.36.32-2.8.07-3.93-.77-1.52-1.13-2.22-3.24-2.91-4.94-6.83-16.89-12.26-34.72-18.29-51.94l-34.67-99.07c-6.17-17.63-11.98-35.49-18.63-52.93,1.46-.4,3.13-.51,4.63-.72l4.24-1.27c1.88-.98,3.73-2.04,5.59-3.06l3.49-2.89Z"/>
  <path class="cls-2" d="m503.69,523.54l4.24-1.27c5.05,18,11.92,35.85,17.91,53.58l34.8,103.02,12.44,37.3c1.16,3.45,2.89,6.82,3.79,10.34.37,1.44.59,2.61.32,4.08-1.06.76-1.07.81-2.36.73-1.25-1.21-1.89-2.5-2.52-4.1-1.94-4.88-3.27-10.09-4.92-15.08l-10.56-31.37-35.74-105.79c-5.77-17.08-10.96-34.62-17.38-51.45Z"/>
  <path class="cls-2" d="m513.52,519.21l3.49-2.89c3.18,10.84,31.39,103.5,31.15,107.58-.77,1.24-.73,1.2-2.14,1.58-1.57-.7-1.64-1.4-2.26-3.01-2.25-5.82-3.7-12.2-5.4-18.22-2.7-9.45-5.46-18.89-8.28-28.3l-10.87-36.68c-1.95-6.57-4.35-13.34-5.7-20.06Z"/>
  <path class="cls-4" d="m440.24,271.3c1.67-.22,3.3-.35,4.94.13,2.44.72,4.66,2.4,5.86,4.65,1.37,2.57,1.33,5.48.61,8.23-3.23,12.31-16.74,15.91-18.78,23.01l.7.77c3.63.12,14.67-7.41,22.71-8.41,4.05-.5,8.29.35,11.47,3.01,1.9,1.59,3.4,3.87,3.59,6.4.19,2.55-.89,4.76-2.64,6.57-11.17,11.45-25.46-1.9-32.82-1.29-.99.08-.93.29-1.56.95.05.5-.03,1.03.15,1.49.55,1.43,12.98,9.23,15.57,11.89,3.07,3.16,5.5,7.02,5.3,11.59-.12,2.81-1.05,5.73-3.34,7.52-2.01,1.57-5.45,2.55-7.98,2.21-6.99-.93-11.25-11.59-12.57-17.62-.8-3.64-.83-9.93-3.01-12.94l-1.72.03c-2.05,2.2-1.83,17.34-3.5,22.05-1.71,4.82-4.95,8.01-9.49,10.16-1.89.34-3.93.33-5.74-.39-2.49-.99-4.63-3.44-5.55-5.92-2.89-7.8,5.14-16.96,10.68-21.57,2.03-1.68,6.59-4.22,7.61-6.64.35-.84.12-.94-.17-1.74-.43-.21-.81-.56-1.28-.63-1.15-.17-14.05,6.67-17.06,7.56-4.78,1.41-9.49,1.95-14.01-.67-2.49-1.45-4.45-3.69-5.05-6.56-.53-2.46.02-5.03,1.5-7.06,9.26-12.8,28.06,1.66,34.07.3.64-.15.81-.68,1.15-1.18-1.53-4.51-16.24-8.89-20.23-20.08-1.09-3.05-1.19-6.44.34-9.36,1.16-2.25,3.22-3.9,5.67-4.55,2.77-.73,5.53.02,7.89,1.54,7.11,4.59,8.52,13.3,10.01,20.96.53,2.74.84,6.3,3.29,7.95.32-.18.75-.24.96-.55.66-.99,1.42-16.47,2.91-20.82,1.78-5.22,4.63-8.58,9.55-11.02Z"/>
  <path class="cls-14" d="m629.78,820.39c17.24-2.43,33.17,9.65,35.47,26.9,2.3,17.26-9.91,33.09-27.19,35.25-17.09,2.14-32.7-9.9-34.98-26.97-2.27-17.07,9.65-32.77,26.7-35.18Z"/>
  <path class="cls-14" d="m470.85,820.02c6.91-.62,13.71.62,19.63,4.34,6.81,4.3,11.62,11.15,13.34,19.02,1.93,8.85.23,19.6-4.76,27.21-4.71,7.17-11.71,11.26-19.99,12.96-7.55.86-14.78-.06-21.27-4.26-6.78-4.36-11.51-11.28-13.1-19.18-1.83-9.05-.1-19.58,5.15-27.25,5.08-7.43,12.35-11.18,21.01-12.84Z"/>
  <path class="cls-14" d="m597.01,280.73c10.77-6.09,21.54-12.35,32.53-18.01,2.99,17.41,3.71,35.27,6.33,52.76-15.1,4.75-30.1,9.87-45.13,14.84-2.19.77-4.46,1.75-6.73,2.23l-8.78,2.95c7.37-18.21,14.63-36.47,21.78-54.77Z"/>
  <path class="cls-5" d="m584,332.54c5.89-12.02,10.95-24.55,16.31-36.82,2.38-5.46,4.63-12.65,8.25-17.33.76-.98,1.19-1.57,2.47-1.68,3.54,5.6-21.09,46.32-20.3,53.61-2.19.77-4.46,1.75-6.73,2.23Z"/>
  <path class="cls-6" d="m448.26,379.06c2.96,2.05,5.86,4.09,8.6,6.44,2.29,1.37,4.48,2.77,6.64,4.35,4.73,2.9,9.5,5.76,14.31,8.55l5.16,2.23c2.67.74,5.14,1.36,7.92,1.57,4.74,17.01,9.01,34.33,14.48,51.11-2.4-.11-4.79-1.06-7.3-1.21l-4.33.5-8.97,1.13-4.29.67c-1.85.17-3.68.43-5.52.71l-26.69-76.05Z"/>
  <path class="cls-6" d="m448.26,379.06c2.96,2.05,5.86,4.09,8.6,6.44,2.29,1.37,4.48,2.77,6.64,4.35,1.91,10.3,8.08,25.24,11.55,35.5,3.02,8.92,5.8,20,9.73,28.39l-4.29.67c-1.85.17-3.68.43-5.52.71l-26.69-76.05Z"/>
  <path class="cls-2" d="m456.85,385.5c2.29,1.37,4.48,2.77,6.64,4.35,1.91,10.3,8.08,25.24,11.55,35.5,3.02,8.92,5.8,20,9.73,28.39l-4.29.67c-9.1-21.83-14.47-46.96-23.62-68.9Z"/>
  <path class="cls-6" d="m482.96,400.62c2.67.74,5.14,1.36,7.92,1.57,4.74,17.01,9.01,34.33,14.48,51.11-2.4-.11-4.79-1.06-7.3-1.21-1.2-5.73-3.34-11.58-5-17.22l-10.1-34.25Z"/>
  <path class="cls-2" d="m477.79,398.39l5.16,2.23,10.1,34.25c1.66,5.64,3.8,11.49,5,17.22l-4.33.5c-1.47-6.25-3.62-12.5-5.43-18.67l-10.5-35.53Z"/>
  <path class="cls-14" d="m405.73,355.36c4.82.93,9.12,1.14,13.45-1.68,5.04-3.28,7.35-8.92,9.43-14.29,2.25,4.53,5.3,9.57,6.09,14.6,1.94,12.31-6.89,13.52,7.41,21.06.84,2.12,1.72,4.23,2.42,6.4l1.93,5.2c1.76,5.29,3.55,10.57,5.37,15.83-11.15-3.26-59.57-17.79-65.55-22.7-.96-.79-1.5-1.89-1.53-3.14-.06-2.64,2.67-4.71,4.4-6.4l4.18-3.61,12.39-11.28Z"/>
  <path class="cls-14" d="m405.73,355.36c4.82.93,9.12,1.14,13.45-1.68,5.04-3.28,7.35-8.92,9.43-14.29,2.25,4.53,5.3,9.57,6.09,14.6,1.94,12.31-6.89,13.52,7.41,21.06.84,2.12,1.72,4.23,2.42,6.4-5.76-.44-12.71-3.27-18.31-4.87-10.84-3.11-22.4-5.81-32.89-9.94l12.39-11.28Z"/>
  <path class="cls-5" d="m393.33,366.64c10.49,4.14,22.05,6.84,32.89,9.94,5.6,1.6,12.55,4.43,18.31,4.87l1.93,5.2c-4.92-.94-9.95-2.7-14.79-4.06-14.21-3.98-28.26-8.56-42.52-12.35l4.18-3.61Z"/>
  <path class="cls-4" d="m490.01,233.6c2.19,2.21,4.41,4.42,6.35,6.86,3.57,4.49,6.88,10.1,6,16.08-.71,4.85-4.59,9.72-8.58,12.49-1.83,1.27-4.03,2.16-5.73,3.59-1.16.97-1.11,1.18-1.21,2.61.84,1.26.92,1.27,2.36,1.77,4.34-.54,8.26-4.44,11.61-7.08,3.8,2.77,7.5,6.07,9.64,10.34,2.66,5.3,2.1,10.18.4,15.59-1.82,3.36-3.65,6.59-5.89,9.69-17.27-13.78-25.5-29.89-30.56-51.11,4.39-7.28,10.43-14.07,15.63-20.82Z"/>
  <path class="cls-6" d="m468.18,321.82c7.04,20.44,11.65,42.03,17.81,62.79-2.83-1.29-5.69-2.74-8.63-3.77l-5.49-1.71c-7.11-2.16-14.35-3.87-21.68-5.11.71-3.98,1.54-7.96,2.1-11.96-3.04-3.39-7.32-5.84-11.13-8.3,4.74.62,9.17.78,13.27-2.21,2.98-2.17,4.65-5.56,5.03-9.18.78-7.46-3.09-12.96-7.64-18.34,5.9.33,10.86.18,16.36-2.21Z"/>
  <path class="cls-2" d="m471.87,379.14c-.02-.15-.04-.3-.07-.44-1.28-7.92-9.5-27.25-8.61-33.1l.83-.87c1.19.17,1.38.26,2.14,1.27,3.8,5.01,8.37,27.27,11.2,34.84l-5.49-1.71Z"/>
  <path class="cls-1" d="m516.73,274.97c22.59,7.84,43.67,10.7,67.48,7.68.1,4.7.6,8.32,2.42,12.67l-2.49,6.09-.66,1.3c-3.31,1.77-37.76.66-44.17.64-5.53-5.38-11.15-10.69-16.54-16.2-4.02-4.1-6.1-6.32-6.04-12.19Z"/>
  <path class="cls-4" d="m490.08,298.95c4.78,5.06,13.09,13.73,20.22,14.92,1.55-.51,1.48-.6,2.33-2.02-.63-3.18-4.03-2.29-1.62-6.03,1.42.3,2.2,1.76,2.99,2.95,2.61,3.9,5.17,8.08,3.99,12.97-.81,3.35-3.35,5.92-6.27,7.59-5.01,2.87-12.57,4.52-18.19,2.95-3.65-1.02-6.43-3.49-8.12-6.84-1.81-3.59-1.89-7.54-2.08-11.46,2.22.44,4.46.97,6.7,1.31l1.7.49,1.61-.87c.7-1.1.75-1.1.6-2.38-2.58-3.25-12.25-4.12-16.33-5.8-2.15-.89-2.83-1.53-3.75-3.67,3.37,1.92,7.67,4.16,11.62,4.14,1.43,0,2.75-.36,3.69-1.52,1.58-1.94,1.24-4.43.92-6.72Z"/>
  <path class="cls-10" d="m490.02,315.29l1.7.49c.89.2,1.61.63,2.42,1.05,1.38,1.63,1.68,3.74,2.19,5.77,1.11.35,2.4.65,3.44,1.17,1.23.61,2.28,1.43,2.59,2.84.31,1.41-.21,2.55-.95,3.7-.89.65-1.57,1.13-2.69,1.26-2.79.31-5.83-1.06-7.91-2.84-2-1.71-3.43-4.01-3.56-6.68-.15-2.99.88-4.56,2.78-6.75Z"/>
  <path class="cls-14" d="m517.57,287.68c15.02,15.46,30.91,30.26,45.57,46.04-6.37-2.29-13.01-4.33-19.21-7.03-3.99-1.08-8.12-2.57-11.9-4.23l-8.2-2.84c-.69-2.89-1.6-5.66-2.57-8.46-2.02-2.49-4.15-6.36-5.81-9.2-1.02-1.74-.87-2.11-.35-3.94,1.8-3.25,2.1-6.72,2.47-10.34Z"/>
  <path class="cls-5" d="m521.26,311.16c-2.02-2.49-4.15-6.36-5.81-9.2-1.02-1.74-.87-2.11-.35-3.94,9.61,9.55,19.05,19.3,28.84,28.67-3.99-1.08-8.12-2.57-11.9-4.23l-8.2-2.84c-.69-2.89-1.6-5.66-2.57-8.46Z"/>
  <path class="cls-14" d="m521.26,311.16c3.95,2.42,7.81,6.76,10.84,10.26,0,.35.08.73-.07,1.05l-8.2-2.84c-.69-2.89-1.6-5.66-2.57-8.46Z"/>
  <path class="cls-10" d="m470.3,259.87l2.49,8.12c.92,2.55,1.74,5.22,2.81,7.7l3.49,7.45c3.07,5.34,6.33,10.37,10.31,15.1l.67.71c.32,2.29.66,4.78-.92,6.72-.95,1.16-2.26,1.51-3.69,1.52-3.95.02-8.25-2.22-11.62-4.14-1.69-2.71-3.35-4.4-6.29-5.71l-1.54-1.19c-3.01-5.85-3.39-13.02-3.08-19.47,2.86.32,5.74.89,8.52-.08l.58-2.07c-2.37-1.47-4.94-2.11-7.21-3.45l.35-1.57c1.34-3.4,3.29-6.52,5.15-9.66Z"/>
  <path class="cls-4" d="m470.3,259.87l2.49,8.12c.92,2.55,1.74,5.22,2.81,7.7-3.44,1.19-5.79,3.08-7.49,6.35-2.49,4.78-2.1,10.33-.55,15.3l-1.54-1.19c-3.01-5.85-3.39-13.02-3.08-19.47,2.86.32,5.74.89,8.52-.08l.58-2.07c-2.37-1.47-4.94-2.11-7.21-3.45l.35-1.57c1.34-3.4,3.29-6.52,5.15-9.66Z"/>
  <path class="cls-10" d="m470.3,259.87l2.49,8.12c-1.63,1.48-3.29,2.53-5.58,2.38-1.11-.07-1.19-.26-2.05-.85,1.34-3.4,3.29-6.52,5.15-9.66Z"/>
  <path class="cls-4" d="m479.09,283.14c3.07,5.34,6.33,10.37,10.31,15.1-2.71-.44-5.76-1.45-8.26-2.61-1.97-.91-3.76-2.37-4.39-4.53-.88-2.98.94-5.48,2.34-7.96Z"/>
  <path class="cls-5" d="m543.14,307.39h38.72l-7.65,19.15-3.45,8.68c-9.14-9.34-18.35-18.62-27.62-27.83Z"/>
  <path class="cls-9" d="m462.33,246.45c4.04-.32,8.22-.1,12.28-.1l-5.83,7.91c-8.96,1.67-16.68,7.36-23.99,12.47-1.33-.06-2.65.01-3.97.21-5.95.85-9.32,5.09-12.71,9.55l-3.74,4.73-3.19-5.03c10.28-12.95,24.89-25.67,41.14-29.75Z"/>
  <path class="cls-4" d="m538.03,507.85l1.03.5c1.76,4.29,2.67,51,3.1,59.75-.87-1.77-1.4-3.76-2.02-5.63-2.77-11.6-6.41-23.13-9.61-34.63,2.31-6.61,4.34-13.75,7.49-19.99Z"/>
  <path class="cls-9" d="m461.83,235.5c6.66-.76,12.85.75,19.15,2.75l-3.38,4.39c-9.65-1.31-18.68-.46-28.13,1.61-5.8,1.24-11.41,3.45-16.95,5.53,7.91-9.84,16.91-12.9,29.31-14.28Z"/>
  <path class="cls-11" d="m457.39,380.27c7.73-.18,24.6,5.89,30.52,10.83,2.43,2.03,3.3,3.62,3.51,6.77-10.44,0-25.55-11.67-34.04-17.6Z"/>
  <path class="cls-10" d="m657.12,197.06c2.63,1.31,5.07,3.48,6.47,6.08,3.29,6.12,1.34,13.24-.55,19.45-.56,1.17-1.21,2.2-1.94,3.26l-.4-.27c-.8-9.55-2-19.07-3.58-28.52Z"/>
  <path class="cls-10" d="m653.14,204.88c2.02,8.05,2.2,17.18,2.95,25.47l-5.6,2.11c-1.16.02-1.54.31-2.43-.49,1.83-8.99,3-18.17,5.08-27.09Z"/>
  <path class="cls-5" d="m397.61,223.42c2.83,2.44,5.48,5.07,8.17,7.66-.62,3.65-1.59,7.22-2.49,10.81l-8.67-7.99,2.99-10.48Z"/>
  <path class="cls-11" d="m439.27,357.79c2.94,1.47,5.78,3.83,8.5,5.71-.5,2.95-1.14,5.89-1.73,8.82l-8.27-4.76c.37-3.27.97-6.53,1.5-9.78Z"/>
  <path class="cls-9" d="m464.02,260.11l.7.36c-1.75,3.45-3.39,6.86-4.8,10.47-2.42-.62-4.95-.91-7.42-1.29l-1.61-.49-.19-.83c3.25-3.7,8.95-5.98,13.31-8.21Z"/>
  <path class="cls-9" d="m440.43,251.38l.47.17c-.96,1.67-4.26,3.36-5.84,4.63-4.07,3.28-7.77,6.99-11.49,10.67l-.13.13-.23-.64c1.23-3.35,2.82-6.29,4.63-9.37,4.05-2.27,8.26-3.92,12.58-5.59Z"/>
  <path class="cls-9" d="m455.27,274.38l2.18.39c2.03,1.93,1.05,9.98,1.41,13.1-.42-.08-1.19-.22-1.57-.36-.05-.02-1.01-.51-1.1-.65-.1-.14-.04-9.64-.91-12.48Z"/>
  <path class="cls-9" d="m453.61,291.25c2.29.35,4.73.55,6.7,1.84l-.43.66-2.1.42-7.24,1.41,3.07-4.33Z"/>
  <path d="m588.64,281.17c.93,0,1.86.04,2.79.06l.47.89c-.57,1.72-1.23,3.4-1.89,5.08l-.35.77-.61-.02c-.62-2.17-.42-4.54-.41-6.78Z"/>
  <path class="cls-5" d="m437.11,234.55c.85.06,1.62.2,2.46.36-.1,1.65-2.9,3.78-4.12,4.98l-1.01,1.01c.34-2.25,1.65-4.33,2.67-6.35Z"/>
  <path class="cls-13" d="m788.47,507.99c6.39,2.22,11.77,4.16,17.13,8.43,8.12.85,26.72-.67,31.92,6.03,2.1,2.71,2.4,6.35,1.86,9.63-.51,3.1-2.18,5.56-4.83,7.25-1.16.73-2.49,1.3-3.74,1.87-1.04,3.82-2.15,7.33-5.88,9.36-4.76,2.6-12.42,1.28-17.69.98-5.34,6.2-10.51,9.66-18.85,10.29-1.4.1-2.79.17-4.19.21,3.11,3.26,5.21,6.13,5,10.91-.14,3.28-1.64,6.64-4.17,8.77-2.37,2-5.33,2.65-8.36,2.22-1.59-.22-3.24-.67-4.6-1.56-5.71-3.79-14.51-16.79-18.54-22.52-1.25-1.78-1.78-2.99-2.02-5.17-.06-.5-.15-1-.23-1.5-.2-1.31-.36-1.38-1.28-2.38-1.16-.37-2.31-.76-3.48-1.07,1.3-1.42,2.67-2.41,4.25-3.49,12.82-9.4,22.56-23.72,34.01-34.79,1.13-1.25,2.44-2.35,3.68-3.49Z"/>
  <path class="cls-10" d="m784.79,511.48c5.07,1.67,10,3.35,14.88,5.54-7.55,4.51-4.28,6.86-7.86,10.24-3.5,3.3-6.78,2.48-8.26,8.13-.86,3.29-.41,7,1.33,9.93,1.56,2.62,4.11,4.01,7.03,4.64,3.29.71,6.96.67,10.32.84-4.26,3.68-10.08,7.69-16,7.3-3.91-.26-6.68-2.49-9.1-5.39-3.64-4.37-7.17-10.97-13.56-11.37-5.64-.35-10.12,6.66-12.79,4.92,12.82-9.4,22.56-23.72,34.01-34.79Z"/>
  <path class="cls-10" d="m791.31,531.99c1.43-.06,2.87-.09,4.31-.08,6.32.05,24.92-.11,28.99,4.39,1.26,1.39,1.62,3.02,1.41,4.85-.34,2.98-1.74,4.34-4.01,6.12-1.27.24-2.53.26-3.82.26-6.89,0-25.32.07-29.84-4.87-1.03-1.12-1.58-2.44-1.4-3.98.31-2.68,2.38-5.05,4.37-6.69Z"/>
  <path class="cls-10" d="m761.04,545.8c.82-.08,1.64-.16,2.47-.05,4.61.62,15.42,15.89,18.47,20.27,1.48,2.12,3.66,5.21,3.03,7.9-.61,2.64-3.3,4.32-5.39,5.75-.81.03-1.63.06-2.44-.05-4.7-.62-14.68-14.92-17.83-19.25-1.55-2.14-4.39-5.94-3.8-8.69.6-2.78,3.32-4.39,5.5-5.88Z"/>
  <path class="cls-10" d="m800.88,520.99c.96-.06,1.93-.09,2.9-.09,6.98.04,25.99-.2,30.78,5,.97,1.06,1.51,2.28,1.35,3.74-.32,2.9-2.72,5.28-4.91,6.93l-.94-.3c-1.86-2.58-3.88-5.26-6.86-6.62-5.74-2.63-21.28,1.1-25.55-3.01-.57-.55-.36-1.09-.35-1.82.99-1.71,2.03-2.62,3.58-3.82Z"/>
</svg>