<?xml version="1.0" encoding="utf-8" ?>
<svg xmlns="http://www.w3.org/2000/svg" xmlns:xlink="http://www.w3.org/1999/xlink" width="1134" height="950">
	<path d="M555.549 425.492C556.699 425.902 557.394 426.647 558.236 427.483C570.55 439.699 581.748 454.007 592.481 467.64C635.243 521.962 681.151 594.882 681.129 666.227C681.12 695.058 672.217 724.571 651.275 745.29C627.225 769.084 589.317 781.088 556.048 780.775C520.46 779.427 484.039 764.046 457.941 739.763C438.224 721.417 429.466 697.816 428.538 671.295C425.793 592.791 502.24 482.412 555.549 425.492Z"/>
	<path fill="#B6EBFD" d="M555.83 438.755C556.511 439.132 556.392 438.997 556.848 439.448C568.651 451.139 579.298 465.351 589.42 478.551C628.746 529.831 672.288 598.62 671.918 665.64C671.771 692.286 664.017 719.995 644.43 739.096C622.079 760.893 586.535 771.674 555.875 771.417C523.454 770.388 491.019 756.289 466.644 735.09C449.19 719.91 439.853 699.73 438.215 676.778C432.487 596.476 504.746 497.84 555.83 438.755Z"/>
	<path d="M551.465 801.786C556.674 801.264 562.106 801.74 567.297 802.356C571.866 802.898 583.422 804.138 586.219 808.208C586.763 809 586.572 809.087 586.458 809.97C585.296 811.3 584.325 811.809 582.711 812.496C580.218 812.784 577.696 812.782 575.189 812.754C569.609 812.691 552.229 811.424 548.479 806.871C547.559 805.753 547.623 805.011 547.757 803.645C548.694 802.387 550.033 802.197 551.465 801.786Z"/>
	<path fill="#B6EBFD" d="M555.415 805.737C561.978 805.22 572.402 805.948 578.405 808.595C571.832 809.302 561.599 808.281 555.415 805.737Z"/>
	<path d="M556.457 792.328C562.25 792.026 570.009 792.739 575.464 794.684C577.198 795.302 578.128 795.762 578.939 797.39C578.396 798.775 577.816 798.836 576.548 799.55C570.384 799.546 560.03 799.681 554.696 796.097C553.62 795.373 553.616 795.13 553.392 793.934C554.372 792.758 555.015 792.757 556.457 792.328Z"/>
	<path fill="#69899E" d="M558.961 794.693C563.718 794.748 569.446 794.835 573.744 797.097C570.63 797.3 567.41 797.011 564.325 796.581C562.6 796.341 560.032 796.103 558.961 794.693Z"/>
</svg>
