<?xml version="1.0" encoding="UTF-8"?>
<svg id="_图层_1" data-name="图层 1" xmlns="http://www.w3.org/2000/svg" xmlns:xlink="http://www.w3.org/1999/xlink" viewBox="0 0 1134 950">
  <defs>
    <style>
      .cls-1 {
        fill: url(#_未命名的渐变);
      }

      .cls-2 {
        fill: #febfc6;
      }

      .cls-3 {
        fill: #ffddc8;
      }

      .cls-4 {
        fill: #fe8f9f;
      }

      .cls-5 {
        fill: #fee7de;
      }

      .cls-6 {
        fill: #763e3d;
      }

      .cls-7 {
        fill: #5f0038;
      }

      .cls-8 {
        fill: #a5896a;
      }

      .cls-9 {
        fill: #650004;
      }

      .cls-10 {
        fill: #feddc8;
      }

      .cls-11 {
        fill: #766861;
      }

      .cls-12 {
        fill: url(#_未命名的渐变_2);
      }

      .cls-13 {
        fill: #88dafe;
      }

      .cls-14 {
        fill: #ff6365;
      }

      .cls-15 {
        fill: #221917;
      }

      .cls-16 {
        fill: #fefefe;
      }
    </style>
    <linearGradient id="_未命名的渐变" data-name="未命名的渐变" x1="562.1" y1="667.44" x2="560.36" y2="643.64" gradientTransform="translate(0 950) scale(1 -1)" gradientUnits="userSpaceOnUse">
      <stop offset="0" stop-color="#ffdac2"/>
      <stop offset="1" stop-color="#ffecea"/>
    </linearGradient>
    <linearGradient id="_未命名的渐变_2" data-name="未命名的渐变 2" x1="441.88" y1="687.61" x2="439.81" y2="689.9" gradientTransform="translate(0 950) scale(1 -1)" gradientUnits="userSpaceOnUse">
      <stop offset="0" stop-color="#897157"/>
      <stop offset="1" stop-color="#ab8c6c"/>
    </linearGradient>
  </defs>
  <path d="m437.97,77.27c8.69-11.98,17.99-22.88,29.38-32.41,24.53-20.52,54.22-30.11,86.13-27.25,18.39,1.65,28.51,6.32,45.52,12.12,5.87,2,12.09,2.99,18.02,4.87,17.8,5.63,34.61,16.36,46.55,30.81,19.24,23.3,29.52,57.81,26.62,87.96-1.63,16.96-8.07,31.48-21.37,42.37,1.97,1.08,4,2.4,5.61,3.99,4.04,3.98,5.82,9.41,5.85,15,.04,8.74-3.01,16.16-9.17,22.27,1.15,16.99.57,49.51-8.17,64.28-3.59,6.08-9.38,10.79-12.66,16.77,2.94,5.04,14.37,12.09,19.34,15.89,12.24,9.36,24.19,19.08,36.37,28.51,8.12,6.28,16.88,12.25,24.53,19.05,1.62,1.44,3.39,3.23,4.31,5.2.62,1.33.76,2.21.24,3.62-2.38,6.33-16.42,11.58-22.4,14.56,17.76,15.65,36.07,30.79,54.14,46.09,8.17,6.92,17.1,13.62,24.67,21.15,6.48,6.44,11.42,14.45,11.31,23.87-.07,5.88-2.22,10.01-6.34,13.99-1.18,1.12-2.41,2.57-3.72,3.5-9.64,9.73-23.72,27.76-34.23,34.92-1.71.92-2.84,1.95-4.2,3.33-4.84,3.05-10.17,5.98-16.12,4.43-18.12-4.7-64.76-73.76-77.58-92.39-2.73,3.48-5.77,6.93-8.19,10.64,4.76,18.05,11.12,35.97,16.75,53.8l29.14,92.87,10.43,32.99c1.95,6.15,4.32,12.38,5.64,18.7.76,3.65,1.31,8.94-.6,12.3-1,1.76-2.4,2.09-4.3,2.47-6.26,1.26-13.17,1.24-19.55,1.65-13.23.83-26.46,1.55-39.7,2.16l12.55,106.85c1.32,11.23,2.5,22.51,4.01,33.71.87,6.46,2.25,12.93,2.63,19.45.18,3.1.14,6.48-.58,9.52,18.92,9.97,47.23,17.58,54.38,40.12,1.65,5.21,2.26,11.38-.24,16.43-1.29,2.59-3.95,5.58-6.81,6.42-2.59.76-5.44,1.03-8.13,1.17-17.42.86-35.25.09-52.72.09-13.98,0-28.72.96-42.59-.2-2.42-.2-4.64-.83-6.74-2.08-3.52-2.09-5.04-5.37-5.9-9.24-1.01-4.52-1.43-45.72-.36-50.01l.66-.25c-1.08-8.75-1.52-17.51-2.54-26.26l-11.12-94.91c-1.79-.26-3.56-.72-5.16-1.6-1.73-.96-2.84-2.58-3.74-4.29-2.58-4.93-4.11-10.64-5.93-15.9l-9.4-27.49c-7.41-.6-14.84-.05-22.26-.8-4.48,18.54-7.35,37.83-10.93,56.58-6.05,31.71-12.46,63.4-18.12,95.18-.99,5.59-1.54,11.24-2.51,16.83,18.95,10.31,47.79,17.67,54.71,40.88,1.63,5.47,2.12,11.57-.89,16.69-1.83,3.1-4.58,5.21-8.07,6.05-7.49,1.79-16.73.83-24.45.81l-38.55-.07c-12.14-.01-25.04,1.05-37.11.01-3.21-.28-6.58-1.02-9.27-2.87-3.36-2.32-4.81-6.61-5.41-10.49-1.08-6.97-1.12-40.5-.18-47.57.77-4.93-.95-10.3-.18-15.39.9-5.93,2.65-11.79,3.92-17.66,1.87-8.67,3.42-17.43,5.08-26.14l22.21-115.97c-14.39-1.04-28.75-2.42-43.08-4.14-5.98-.73-12.51-1.18-18.29-2.92-3.82-1.15-6.82-2.75-8.63-6.49-1.21-2.49-1.17-4.98-.71-7.64,2.08-11.93,6.88-23.7,10.11-35.39,6.19-22.85,12.78-45.58,19.76-68.2,2.73-9.08,5.08-18.27,8.12-27.26-17.2.68-36.21-13.32-48.84-24.16-14.94-12.81-31.95-30.84-33.33-51.37-1.79-26.61,30.33-52.23,46.42-70.68-2.77-.89-5.86-1.87-8.17-3.69-1.75-1.38-3.19-3.18-3.42-5.46-.87-8.75,15.6-18.3,20.58-24.86-1.02-2.51-2.37-5.26-3.01-7.89-1.6-6.58,2.5-13.36,5.77-18.65-2.71.58-5.63.97-8.4.97-4.71,0-9.6-1.42-12.93-4.9-2.65-2.76-3.88-6.34-3.64-10.14.24-3.82,2.09-7.36,5.1-9.73,5.46-4.37,12.09-4.32,18.65-3.63-2.86-3.07-5.32-6.2-6.74-10.2-1.58-4.48-1.65-9.42.57-13.71,1.43-2.76,3.71-4.89,6.7-5.82,4.89-1.53,9.43-.07,13.71,2.31,2.15-7.89,6.57-14.28,9.55-21.74,2.23-5.59,3.3-11.2,5.91-16.76-4.41-2.01-8.22-4.69-11.06-8.66-6.09-8.53-4.92-18.71-3.3-28.42-4.95,4.9-11.06,9.15-17.93,10.74-6.48,1.55-13.32.43-18.97-3.11-5.8-3.68-9.87-9.53-11.32-16.25-1.51-6.6-.29-13.52,3.36-19.22,4.76-7.31,13.06-11.51,21.4-13.22-5.5-2-10.77-4.11-15.65-7.39-6.02,7.48-9.84,16.48-11.06,26-2.06,15.67,3.68,32.97,18.21,40.82,11.14,6.02,14.11,1.98,23.84,14.96l.42.56c-.71,4.17-1.14,11.01-3.72,14.33-.79,1.02-1.82,1.66-3.13,1.66-4.13-.01-10.44-7.83-13.17-10.71.75-4.4,2.07-8.68,3.29-12.97-14.06-1.2-27.98-4.32-39.83-12.36-10.46-7.1-17.27-17.39-19.48-29.86-3.67-20.75,4.12-42.65,16-59.48,20.32-28.78,43.45-41.09,77.86-47Zm218.19,164.33c-3.3,8.03-6.93,14.31-12.7,20.88,1.89,15.07,4.11,30.28,5.19,45.42l.67,1.85c2.38-.43,5.01-4.2,6.34-6.14,11.7-17.03,11.32-43.38,10.78-63.37-.9-.48-.5-.45-1.15-.4-3.05.75-6.03,1.37-9.14,1.77Zm-56.59,50.2c.89-2.24,2.07-4.54,2.06-6.98l-1.26-.7c-1.46,1.36-1.77,1.96-1.88,3.99-.08,1.46-.05,2.57.87,3.68h.21Z"/>
  <path class="cls-7" d="m668.81,860.86c18.92,9.97,47.23,17.58,54.38,40.12,1.65,5.21,2.26,11.38-.24,16.43-1.29,2.59-3.95,5.58-6.81,6.42-2.59.76-5.44,1.03-8.13,1.17-17.42.86-35.25.09-52.72.09-13.98,0-28.72.96-42.59-.2-2.42-.2-4.64-.83-6.74-2.08-3.52-2.09-5.04-5.37-5.9-9.24-1.01-4.52-1.43-45.72-.36-50.01,1.93,1.33,3.86,5.49,4.59,7.77,4.25,6.57,9.64,11.58,16.95,14.58,8.84,3.59,18.76,3.45,27.49-.39,9.26-4.03,15.17-11.24,18.86-20.45l1.23-4.22Z"/>
  <path class="cls-7" d="m667.58,865.09c4.38,2.31,8.74,4.55,13.27,6.56l5.42,2.86c5.9,2.56,11.84,5.17,17.3,8.61l4.08,3.38c5.78,4.34,9.51,10.64,11.92,17.33l-116.04.07c.17-7.01-1.36-27.38.73-32.54,4.25,6.57,9.64,11.58,16.95,14.58,8.84,3.59,18.76,3.45,27.49-.39,9.26-4.03,15.17-11.24,18.86-20.45Z"/>
  <path class="cls-16" d="m680.85,871.64l5.42,2.86c5.9,2.56,11.84,5.17,17.3,8.61l4.08,3.38c-.57,1.57-1.48,3.37-2.52,4.68-1.23,1.54-2.91,2.18-4.83,2.38-7.56.79-17.93-5.54-23.59-10.08,1.26-1.33,2.72-2.71,3.7-4.25,1.6-2.5.98-4.89.42-7.58Z"/>
  <path class="cls-7" d="m686.27,874.5c5.9,2.56,11.84,5.17,17.3,8.61-.16,1.1-.29,2.4-.71,3.43-.53,1.3-1.56,2.18-2.92,2.5-4.85,1.17-12.55-3.78-16.61-5.98,1.75-2.77,2.4-5.4,2.94-8.57Z"/>
  <path class="cls-15" d="m668.81,860.86c18.92,9.97,47.23,17.58,54.38,40.12,1.65,5.21,2.26,11.38-.24,16.43-1.29,2.59-3.95,5.58-6.81,6.42-2.59.76-5.44,1.03-8.13,1.17-17.42.86-35.25.09-52.72.09-13.98,0-28.72.96-42.59-.2-2.42-.2-4.64-.83-6.74-2.08-3.52-2.09-5.04-5.37-5.9-9.24-1.01-4.52-1.43-45.72-.36-50.01,1.93,1.33,3.86,5.49,4.59,7.77-2.1,5.16-.56,25.53-.73,32.54l-.12,4.19c0,1.39.05,2.74.36,4.11.63,2.8,2.36,5.4,4.85,6.86,2.09,1.22,4.41,1.4,6.77,1.55,16.78,1.06,34.16.2,51.01.2,9.03,0,40.21,1.12,46.85-.77,2.29-.65,4.54-3.17,5.68-5.16,1.25-2.19,1.8-5.48,1.2-7.95l-.56-3.1c-2.42-6.69-6.15-13-11.92-17.33l-4.08-3.38c-5.46-3.44-11.4-6.05-17.3-8.61l-5.42-2.86c-4.53-2-8.89-4.25-13.27-6.56l1.23-4.22Z"/>
  <path class="cls-16" d="m603.54,903.9l116.04-.07.56,3.1-.66,1.34c-4.05.39-8.3-.08-12.38-.14-7.36-.1-14.74-.04-22.1-.04h-81.58s.12-4.19.12-4.19Z"/>
  <path class="cls-7" d="m508.65,860.68c18.95,10.31,47.79,17.67,54.71,40.88,1.63,5.47,2.12,11.57-.89,16.69-1.83,3.1-4.58,5.21-8.07,6.05-7.49,1.79-16.73.83-24.45.81l-38.55-.07c-12.14-.01-25.04,1.05-37.11.01-3.21-.28-6.58-1.02-9.27-2.87-3.36-2.32-4.81-6.61-5.41-10.49-1.08-6.97-1.12-40.5-.18-47.57,1.55,2.12,3.66,5.3,4.31,7.86,4.35,6.3,9.53,11.35,16.68,14.35,8.69,3.6,18.46,3.59,27.15-.01,9.9-4.12,15.8-11.66,19.84-21.31l1.24-4.32Z"/>
  <path class="cls-7" d="m507.42,865c4.42,2.32,8.81,4.7,13.42,6.63l5.43,2.83c5.87,2.56,11.95,5.11,17.31,8.64l4.07,3.37c5.81,4.3,9.48,10.7,11.95,17.35l-116.16.04c-.02-10.44-.81-21.54.3-31.88,4.35,6.3,9.53,11.35,16.68,14.35,8.69,3.6,18.46,3.59,27.15-.01,9.9-4.12,15.8-11.66,19.84-21.31Z"/>
  <path class="cls-16" d="m520.84,871.63l5.43,2.83c5.87,2.56,11.95,5.11,17.31,8.64l4.07,3.37c-.63,1.69-1.46,3.35-2.58,4.78-1.37,1.73-3.52,2.28-5.63,2.35-7.17.22-17.51-5.51-22.66-10.26,1.23-1.28,2.66-2.61,3.64-4.09,1.65-2.5,1.01-4.92.42-7.61Z"/>
  <path class="cls-7" d="m526.27,874.46c5.87,2.56,11.95,5.11,17.31,8.64-.16,1.08-.28,2.35-.68,3.37-.5,1.25-1.46,2.19-2.76,2.54-4.86,1.33-12.72-3.72-16.8-5.94,1.76-2.79,2.41-5.41,2.93-8.62Z"/>
  <path class="cls-15" d="m508.65,860.68c18.95,10.31,47.79,17.67,54.71,40.88,1.63,5.47,2.12,11.57-.89,16.69-1.83,3.1-4.58,5.21-8.07,6.05-7.49,1.79-16.73.83-24.45.81l-38.55-.07c-12.14-.01-25.04,1.05-37.11.01-3.21-.28-6.58-1.02-9.27-2.87-3.36-2.32-4.81-6.61-5.41-10.49-1.08-6.97-1.12-40.5-.18-47.57,1.55,2.12,3.66,5.3,4.31,7.86-1.11,10.34-.32,21.43-.3,31.88l-.02,4.24c.02,1.2.04,2.53.28,3.71.69,3.45,2.63,5.81,5.54,7.68,1.46.94,3.44.99,5.14,1.09,20.04,1.17,40.65.23,60.74.22,9.36,0,29.58,1.12,37.74-.63,2.43-.52,4.62-2.9,5.86-4.93,1.42-2.34,2.08-5.64,1.4-8.31l-.52-3.11c-2.47-6.65-6.15-13.05-11.95-17.35l-4.07-3.37c-5.36-3.53-11.44-6.09-17.31-8.64l-5.43-2.83c-4.61-1.93-9-4.31-13.42-6.63l1.24-4.32Z"/>
  <path class="cls-16" d="m443.45,903.85l116.16-.04.52,3.11-.65,1.35c-4.18.3-8.47-.1-12.67-.16-7.58-.1-15.17-.04-22.76-.04h-80.62s.02-4.23.02-4.23Z"/>
  <path class="cls-2" d="m444.36,76.93c21.65-27.97,47.64-49.41,84.11-54.03,18.12-2.12,36.49-.14,53.74,5.81,5.62,1.92,11,4.55,16.63,6.37,4.58,1.48,9.42,2.21,14.06,3.46,11.88,3.31,22.98,8.95,32.67,16.59,23.42,18.27,35.84,46.86,39.3,75.82,2.18,18.24.29,38.05-11.38,52.97-2.71,3.46-5.77,6.33-9.28,8.95,1.1-3.63,2.41-7.03,3.95-10.49-.45-2.04-.93-4.07-1.24-6.13.17-.02.33-.03.5-.05,1.32-.15,2.1-.2,3.12-1.15.41-1.3.25-1.33-.32-2.59-5.22-3.89-13.01-6.01-18.95-8.99-24.41-12.25-50.26-28.03-63.25-53.11,2.71-5.43,13.37-26.11,11.66-31.17-.26-.77-.77-.82-1.43-1.18l-1.87.2c-3.63,5.74-5.07,13.72-8.02,19.98-12.23,25.99-29.1,47.33-53.86,62.31l-.08-6.55c-.24-2.33-.82-4.3-.73-6.68.81-10.18-5.58-25.68-10.95-34.2-11.63-18.45-30.67-29.31-51.55-34.05l-8.12-1.37c-6.26-.61-12.43-.78-18.72-.72Z"/>
  <path class="cls-5" d="m463.08,77.65c-.64-2.13-.68-3.24.35-5.23,2.1-4.04,5.49-7.21,8.72-10.35,13.33-12.94,29.07-22.86,47.01-28.1,22.29-6.51,46.16-4.46,67.9,3.07,3.93,1.36,8.27,2.65,11.91,4.65,1.61.89,3.25,1.82,3.85,3.67.51,1.56.19,2.72-.48,4.14-1.64,1.52-3.02,2.09-5.3,2.05-5.26-.1-16.49-5.75-22.51-7.43-31.73-9-65.86-.97-90.25,21.23-4.72,4.23-8.95,8.88-13.09,13.67l-8.12-1.37Z"/>
  <path class="cls-15" d="m533.7,147.27l.91,1.55c1.73-2.28,3.1-5.06,4.98-7.17,2.99-3.36,11.67-6.24,16.07-6.87,1.43-.21,2.44-.12,3.79.36.83,1.06.89,1.02.8,2.35-3.51,4.26-10.72,2.82-14.8,5.97-3.53,2.73-5.34,9.25-8.88,10.93l-2.13-.43c-.24-2.33-.82-4.3-.73-6.68Z"/>
  <path class="cls-5" d="m616.96,47.06c1-.04,1.95-.04,2.93.18,3.76.85,7.2,3.51,10.29,5.66,13.17,9.15,24.04,20.27,32.36,34.07,9.22,15.3,14.12,31.86,16.17,49.54.47,4.05,1.41,8.73.24,12.73-.68,2.32-2.09,3.25-4.12,4.37-1,0-2.01-.03-3-.21-2.07-.38-3.48-1.23-4.2-3.28-1.65-4.71-.93-10.9-1.32-15.88-.73-9.39-3.96-20.01-7.63-28.56-6.01-13.98-15.56-27.34-27.37-37.06-3.43-2.82-17.19-9.76-18.61-12.66-.58-1.18-.87-2.57-.51-3.86.67-2.42,2.77-3.78,4.77-5.05Z"/>
  <path class="cls-15" d="m632.8,136.27c4.02-.17,7.78.06,11.62,1.34,4.94,1.65,10.34,4.95,12.58,9.84,1.08,2.36,1.68,4.45.74,6.92-.86-.09-2.02-.17-2.65-.87-3.23-3.59-4.24-8.21-8.8-10.97-4.02-2.43-9.5-.56-13.47-2.75-.68-1.59-.43-1.89-.02-3.51Z"/>
  <path class="cls-5" d="m584.56,116.54c2.11,3.21,4.87,6.18,7.33,9.14,14.17,17.05,30.46,28.25,49.93,38.68,7.2,3.86,14.53,7.69,22.23,10.45-4.46,13.81-5.73,28.9-7.73,43.21-3.1,16.61-5.98,30.88-18.8,42.88-7.89,6.5-18.48,12.26-28.03,15.88-31.02,11.75-65.41,4.56-94.59-8.73,1.72-3.4,2.6-6.67,2.54-10.51-.15-10.25-7.67-17.86-14.51-24.57,13.97-20.14,27.23-41.15,31.25-65.67,21.14-11.19,37.94-30.65,50.38-50.75Z"/>
  <path class="cls-10" d="m637.52,260.9c-.54-1.71-1.7-3.27-2.56-4.84-2.97-5.38-4.35-10.79-3.37-16.92,1.09-6.94,4.95-13.14,10.69-17.19,3.97-2.79,9.18-4.73,14.04-3.93-3.1,16.61-5.98,30.88-18.8,42.88Z"/>
  <path d="m627.61,171.09c1.64.15,3.2.4,4.69,1.15,3.4,1.71,5.7,5.09,6.94,8.6,2.29,6.5,2.1,15.01-.96,21.23-2.17,4.41-4.73,6.37-9.21,7.93-1.52-.15-2.97-.3-4.35-1-3.77-1.92-6.25-5.66-7.58-9.58-2.2-6.51-1.9-14.75,1.32-20.89,2.13-4.06,4.79-6.18,9.15-7.44Z"/>
  <path d="m551.18,171.09c1.6.11,3.07.3,4.55.97,3.55,1.62,5.96,5.08,7.26,8.66,2.33,6.41,2.16,15.01-.82,21.19-2.07,4.29-4.59,6.51-9.08,8.03-1.43-.09-2.86-.17-4.18-.76-3.86-1.73-6.48-5.48-7.84-9.37-2.21-6.35-2.13-14.69.94-20.77,2.16-4.29,4.71-6.44,9.17-7.95Z"/>
  <path class="cls-15" d="m607.29,229.98c1.11.06,2.07.28,3.15.55,1,1.43,1.28,2.46,1.05,4.25-.56,4.43-3.8,8.89-7.34,11.49-4.25,3.12-9.96,4.22-15.11,3.18-6-1.22-10.12-5.09-13.28-10.08-1.02-2.37-1.81-4.28-1.08-6.86.31-1.1.28-.87,1.15-1.36,3.68,1.3,3.9,4.42,5.6,7.52,1.52,2.77,5.24,4.97,8.22,5.8,3.58.99,7.42.41,10.54-1.61,4.84-3.09,5.97-7.65,7.1-12.87Z"/>
  <path class="cls-4" d="m522.6,467.65c9.51-.83,19.48-2.3,29.01-2.11,10.77.22,21.83,2.04,32.55,3.24,21.33,2.38,42.67,4.95,64.03,7.02l31.15,99.14c5.4,17.22,11.15,34.39,16.17,51.72-8.61.35-17.23.58-25.85.68l-24.34-75.99c-3.67-11.49-6.81-24.53-11.53-35.54-.7-1.63-1.19-2.86-2.87-3.66-1.06-.51-1.32-.34-2.44-.23-1.9,1.63-2.29,3.62-2.49,6.05-.79,9.42.38,19.79.53,29.3.45,27.41,1.68,54.97,1.35,82.37h-59.83c-3.73-12.82-8.58-26.29-10.65-39.45-1.21-7.7-1.05-15.92-1.34-23.72l-1.58-41.45c-.16-4.16.6-15.51-3.37-17.5-1.62-.81-3.32-.68-5.03-.36-1.4-2.4-.74-5.74-2.32-8.25-1.38-2.19-4.12-2.08-6.44-2.58l-.63-.98c.71-.42,1.27-.63,2.09-.79,1.15-.24,2.41-.4,3.45-.95,2.39-1.28,3.91-3.78,4.46-6.36.75-3.47.59-7.35-1.54-10.33-4.8-6.73-13.71-2.39-20.32-3.56-.24-.04-.47-.09-.71-.14l-1.52-5.58Z"/>
  <path class="cls-6" d="m440.75,81.6c19.98-2.82,43.75,3.06,60.15,14.68,15.46,10.97,24.94,27.45,28.09,46.02,2,11.74,1.76,24.44-1.38,35.97-5.36,19.66-22.02,43.35-33.94,60.01-12.33-5.02-24.1-4.07-36.69-.76,4.3-3.76,8.03-8.11,11.4-12.72,11.87-16.18,19.03-36.62,15.72-56.79-2.51-15.34-10.11-28.14-22.75-37.2-9.03-5.65-18.45-8.51-29.16-7.84-17.48,1.09-34.51,11.32-45.79,24.41-9.69,11.19-14.46,25.81-13.23,40.56,1.03,13.52,6.97,23.26,17.09,31.95-9.73-2.2-19.27-5.62-27.13-11.92-9.03-7.25-14.15-17.4-15.31-28.86-2.15-21.26,7.3-42.39,20.5-58.56,18.87-23.11,42.6-35.91,72.43-38.95Z"/>
  <path class="cls-9" d="m492.17,168.43c1.65.24,2.11.17,3.39,1.3.56,1.4.79,2.62.86,4.14.87,17.88-9.85,43.6-21.56,56.64-.89.23-1.3.03-2.17-.21-1.73-2.91,2.63-7.42,4.38-9.89,11.28-15.94,13.99-32.98,15.1-51.99Z"/>
  <path class="cls-4" d="m709.03,406.69l76.68,65.21,3.67,3.15c5.03,5.62,9.51,12.19,9.1,20.1-.11,2.27-.48,4.33-1.69,6.28-3.52,5.65-9.52,10.24-14.1,15.05-8.17,8.57-15.72,17.87-24.6,25.73-4.13,3.66-12.57,10.69-18.55,10.15-5.15-.46-10.7-6.69-14.17-10.09l-3.28-3.35c-21.74-24.04-41.02-51.31-59.02-78.25l3.24-3.98c-1.91-10.77-2.72-21.97-3.91-32.85,16.19-4.21,31.35-10.43,46.61-17.15Z"/>
  <path class="cls-4" d="m785.72,471.9l3.67,3.15c5.03,5.62,9.51,12.19,9.1,20.1-.11,2.27-.48,4.33-1.69,6.28-3.52,5.65-9.52,10.24-14.1,15.05-8.17,8.57-15.72,17.87-24.6,25.73-4.13,3.66-12.57,10.69-18.55,10.15-5.15-.46-10.7-6.69-14.17-10.09l-3.28-3.35c23.87-16.39,45.57-44.27,63.6-67.03Z"/>
  <path class="cls-16" d="m785.72,471.9l3.67,3.15c-3.65,5.93-8.64,11.33-13.08,16.69-13.17,15.88-32.98,40.63-50.91,50.54l-3.28-3.35c23.87-16.39,45.57-44.27,63.6-67.03Z"/>
  <path class="cls-4" d="m406.46,392.39c18.8,6.87,37.83,13.09,57.05,18.67,3.86,9.41,6.91,19.37,10.23,28.99-2.94-2.49-5.91-4.72-9.29-6.58-14.68-8.08-32.61-12.02-48.41-17.43-2.48-.85-7.87-3.66-10.17-3.59-.43.01-.84.24-1.25.36-.79,1.17-.84,1.17-.7,2.56.97,1.25,2.28,1.79,3.7,2.37,6.25,2.54,12.96,4.3,19.38,6.38,9.74,3.13,19.41,6.51,28.97,10.14l3.74,1.52c6.33,3.46,11.73,6.36,13.84,13.83,1.54,5.46,1.51,12.15,1.48,17.83-7.27,1.75-12.92,5.91-16.87,12.28-4.22,6.8-5.85,15.59-4,23.42.68,2.88,1.98,6.56,3.85,8.88-5.2,6.79-14.13,18.8-23.01,20.24-5.28.86-12.93-1.87-17.22-5-.14-.1-.25-.23-.37-.34l-2.1-.82c-9.28-5.6-18.08-11.67-26.19-18.89-12.88-11.46-28.36-28.63-29.26-46.55-1.18-23.78,31.21-51.42,46.6-68.28Z"/>
  <path class="cls-4" d="m455.96,434.25l3.74,1.52c6.33,3.46,11.73,6.36,13.84,13.83,1.54,5.46,1.51,12.15,1.48,17.83-7.27,1.75-12.92,5.91-16.87,12.28-4.22,6.8-5.85,15.59-4,23.42.68,2.88,1.98,6.56,3.85,8.88-5.2,6.79-14.13,18.8-23.01,20.24-5.28.86-12.93-1.87-17.22-5-.14-.1-.25-.23-.37-.34l-2.1-.82c2.09-7.24,7.37-14.85,10.82-21.59,10.99-21.45,24.88-46.7,29.84-70.26Z"/>
  <path class="cls-16" d="m455.96,434.25l3.74,1.52c-1.46,7.73-4.22,14.87-7.15,22.14-3.47,8.61-29.36,65.01-33.76,68.3-.64.47-.73.46-1.39.71l-2.1-.82c2.09-7.24,7.37-14.85,10.82-21.59,10.99-21.45,24.88-46.7,29.84-70.26Z"/>
  <path class="cls-2" d="m631.97,633.84c.57-9.07.02-18.28-.15-27.36l-.97-51.45c-.22-11.37-.8-22.97-.09-34.32,3.79,9.66,6.59,19.87,9.75,29.77l17.41,54.54c2.84,8.9,5.37,18.13,8.87,26.79,9.96.12,20.11-.61,30.09-.89,4.07,12.26,7.62,24.7,11.73,36.95l1.19,4.09c.6,3.49,1.8,7.5.15,10.82-4.99,3.62-111.75,5.89-125.47,5.69-1.34-4.71-2.84-9.44-3.96-14.21l-1.29-3.88c-.56-4.05-2.2-8.43-3.31-12.39l-6.73-24.1c20.93.09,41.86.07,62.78-.06Z"/>
  <path class="cls-2" d="m709.8,671.97c.6,3.49,1.8,7.5.15,10.82-4.99,3.62-111.75,5.89-125.47,5.69-1.34-4.71-2.84-9.44-3.96-14.21,15.54.24,31.08-.16,46.61-.37,27.56-.25,55.12-.9,82.67-1.93Z"/>
  <path class="cls-16" d="m708.61,667.88l1.19,4.09c-27.55,1.03-55.1,1.68-82.67,1.93-15.54.21-31.07.61-46.61.37l-1.29-3.88c12.96-.57,25.86-.43,38.82-.62,30.19-.29,60.38-.92,90.56-1.89Z"/>
  <path class="cls-2" d="m522.76,579.92l20.72,59.09c3.6,10.28,6.87,20.87,10.93,30.97l1.38,4c1.38,4.87,3.39,9.73,5.08,14.51-10.53-.87-21.4-.45-31.98-.8-27.06-.8-54.08-2.43-81.04-4.89-11.43-1.09-23.43-1.94-34.66-4.23-3.12-.64-6.82-1.62-8.54-4.54-2.33-3.96.12-9.48,1.33-13.49l.99-3.44c3.19-10.22,6.29-20.54,9.03-30.88l55.7,2.62c10.84.51,21.78,1.35,32.63,1.25,7.23-16.14,12.74-33.43,18.44-50.17Z"/>
  <path class="cls-2" d="m406.96,657.11c38.56,12.9,106.18,11.26,147.45,12.88l1.38,4c1.38,4.87,3.39,9.73,5.08,14.51-10.53-.87-21.4-.45-31.98-.8-27.06-.8-54.08-2.43-81.04-4.89-11.43-1.09-23.43-1.94-34.66-4.23-3.12-.64-6.82-1.62-8.54-4.54-2.33-3.96.12-9.48,1.33-13.49l.99-3.44Z"/>
  <path class="cls-16" d="m406.96,657.11c38.56,12.9,106.18,11.26,147.45,12.88l1.38,4c-.29.03-.59.06-.88.09-7.35.67-15.38-.17-22.8-.33-20.76-.47-113.75-2.85-126.14-13.19l.99-3.44Z"/>
  <path class="cls-16" d="m596.41,339.83c17.23-5.43,34.22-11.61,51.45-17.01,24.33,18.04,47.92,37.17,71.9,55.67l3.99,3.15c1.91,1.39,4.6,3,5.97,4.92.77,1.09.84,1.68.63,2.96-5.57,7.13-42.8,21.94-53.62,25.61-13.27,4.51-34.87,11.78-48.04,5.14-20.8-10.48-37.44-55.38-44.51-76.4l8.34-2.76,3.89-1.28Z"/>
  <path class="cls-16" d="m592.53,341.1l3.89-1.28c5.42,16.19,22.22,59.54,37.82,67.55,8.34,4.28,23.43-1.57,31.79-4.5,11.37-3.98,44.96-17.74,53.74-24.39l3.99,3.15c1.91,1.39,4.6,3,5.97,4.92.77,1.09.84,1.68.63,2.96-5.57,7.13-42.8,21.94-53.62,25.61-13.27,4.51-34.87,11.78-48.04,5.14-20.8-10.48-37.44-55.38-44.51-76.4l8.34-2.76Z"/>
  <path class="cls-4" d="m592.53,341.1l3.89-1.28c5.42,16.19,22.22,59.54,37.82,67.55,8.34,4.28,23.43-1.57,31.79-4.5,11.37-3.98,44.96-17.74,53.74-24.39l3.99,3.15c-20.6,11.07-42.97,21.56-65.39,28.23-8.46,2.52-18.78,5.38-27.04.81-16.01-8.86-33.84-52.43-38.8-69.57Z"/>
  <path class="cls-4" d="m581.45,350.23c2.96,5.08,4.74,11.99,6.99,17.52,7.1,17.51,18.76,43.4,34.64,54.27,10.68,7.31,23.16,5.13,35.09,2.8,1.16,10.21,2.38,20.41,3.65,30.61-4.39,5.35-8.64,10.81-12.95,16.22-24.86-3.26-49.98-4.82-74.79-8.47,5.07-.28,10.14-.67,15.2-1.02,4.59-.44,11.51.16,15.65-1.72,1.1-.5,1.32-.64,1.71-1.71l-.49-.7c-1.5-.86-2.76-1.36-4.52-1.35-7.62.04-15.93,1.48-23.57,2.11l-56.58,4.65c-4.06-14.12-8.04-28.27-11.93-42.44,10.16.91,20.25,1.01,29.5-3.88,22.45-11.87,35.25-43.8,42.4-66.88Z"/>
  <path class="cls-15" d="m581.88,412.16c3.25-.43,6.51.58,8.95,2.77,2.44,2.18,3.81,5.32,3.74,8.59-.11,5.49-4.17,10.1-9.6,10.9-6.17.91-11.9-3.39-12.76-9.57s3.48-11.87,9.66-12.69Z"/>
  <path class="cls-16" d="m581.32,416.63c3.63-1.09,7.47.93,8.62,4.55,1.15,3.62-.81,7.48-4.41,8.69-2.38.8-5,.25-6.86-1.43-1.86-1.68-2.68-4.23-2.13-6.68.55-2.45,2.38-4.41,4.78-5.13Z"/>
  <path class="cls-15" d="m582.39,377.32c6.15-.52,11.56,4.02,12.12,10.16s-3.94,11.59-10.08,12.19c-6.2.61-11.71-3.94-12.28-10.15-.57-6.2,4.03-11.68,10.23-12.21Z"/>
  <path class="cls-16" d="m581.61,381.75c3.62-.92,7.32,1.19,8.37,4.78,1.05,3.59-.92,7.36-4.47,8.55-2.41.81-5.07.23-6.94-1.5-1.86-1.73-2.63-4.35-2-6.81.63-2.46,2.56-4.39,5.02-5.01Z"/>
  <path class="cls-4" d="m460.65,515.82c11.15,10.7,23.73,8.87,38.04,10.87,1.86.26,4.36.4,5.97,1.47,5.3,15.1,10.82,30.16,15.74,45.38-5.21,17.7-12.6,35.25-18.91,52.62-10.01-1.3-20.52-1.19-30.62-1.65-17.83-.82-35.67-1.77-53.51-2.37l17.74-60.81c1.93-6.58,5.19-21.51,8.4-26.82,3.17-5.23,12.35-12.67,17.14-18.69Z"/>
  <path class="cls-5" d="m475.39,689.29c19.72,1.75,39.88,2.57,59.68,2.77-3.48,15.9-6.16,32.05-9.22,48.05l-18.47,96.35-3.07-5.56c-1.17-1.53-2.33-3.07-3.61-4.51-6.15-6.79-14.73-10.9-23.88-11.42-10.89-.63-19.6,3.63-27.54,10.72,3.47-15.18,5.94-30.75,8.87-46.06l17.23-90.34Z"/>
  <path class="cls-5" d="m640.05,691.72c1.7-.17,3.12-.35,4.78.13,2.07,5.46,3.86,29.27,4.68,36.26,3.87,32.88,8.11,65.77,11.46,98.7-.22-.24-.45-.49-.68-.72-7.01-7.22-16.07-11.7-26.24-11.71-10.38-.01-18.81,4.35-26.05,11.53-2.15,2.43-3.8,5.23-5.54,7.97-4.06-30.87-7.25-61.91-10.96-92.83,1.15-1.08,2.27-2.15,3.14-3.47,1.02-1.52,1.53-3.06,1.5-4.91-.11-8.27-7.99-28.95-9.98-39.11l-.17-.89c18.02.02,36.05-.31,54.06-.96Z"/>
  <path class="cls-2" d="m436.52,127c3.32.33,6.55.77,9.77,1.67,11.83,3.3,21.54,11.41,27.44,22.1,7.77,14.08,8.55,29.98,4.24,45.25-2.36-2.8-9.35-14.32-11.75-15.47-.67-.32-1.13.07-1.76.3-.66,1.27-.79,1.44-.35,2.88.83,2.74,2.52,5.5,3.74,8.1,2.59,5.51,4.09,10.77,5.01,16.77-2.38,6.57-12.67,22.64-19.29,25.31-2.93,1.18-8.71-.58-11.45-1.97-4.92-2.49-8.63-6.61-10.32-11.9-4.18-13.1,2.89-26.99,8.84-38.32-1.16-.79-1.76-1.18-3.2-1.35-2.54,1.76-4.36,5.51-6.13,8.06-5.57,8-13.75,16.74-23.88,18.35-5.61.89-11.58-.88-16.06-4.33-4.39-3.38-7.2-9.05-7.93-14.48-.71-5.28.37-10.45,3.68-14.72,8.86-11.44,25-11.44,37.93-13.22.98-.96.87-1.02.96-2.4-3.18-2.91-14-1.81-18.55-2.93-5.81-1.42-10.69-3.56-15.75-6.72,11.33-11.22,23.23-17.82,38.86-20.75,1.62,2.14,2.86,4.71,4.74,6.64,1.08,1.11,2.51,2.36,4.08,2.39.8-3.3-1.38-6.47-2.86-9.28Z"/>
  <path d="m450.09,135.82c4.07,1.15,13.8,17.32,16.74,21.66-1.99,5.03-10.93,20.42-14.95,23.2-5.93-5.68-13.95-16.04-18.48-22.96,5-7.56,10.96-14.87,16.68-21.9Z"/>
  <path class="cls-14" d="m450.52,142.13c4.31,4.3,7.88,10.75,11.39,15.8-1.64,2.68-8.3,14.87-10.52,15.68-4.19-5.36-8.55-10.61-12.83-15.91,4.08-5.11,7.98-10.37,11.96-15.57Z"/>
  <path class="cls-2" d="m481.99,322.3c1.71-2.3,2.29-5.69,4.52-7.3,2.54,1.05,1.42,12.81,5.4,18.69,3.39,5,8.19,6.7,13.84,7.82,9.29-.25,17.31-2.2,24.14-8.73,1.37-1.72,2.3-3.29,3.16-5.32,9.74,3.49,19.76,6.67,29.35,10.55l4,1.36,12.48,4.6c-3.34,11.7-7.63,23.11-12.85,34.11-1.34,3.52-2.61,6.76-5.25,9.55-7.39,12.11-16.79,25.08-31.42,28.57-6.88,1.64-14.02.92-20.99.39-1.23-4.13-3.65-9.84-3.35-14.12.57-1.31.53-2.89.64-4.3-.51-1.4-1.26-2.65-2.13-3.86-5.12-7.11-18.17-59.76-21.54-72Z"/>
  <path class="cls-16" d="m529.9,332.77c1.37-1.72,2.3-3.29,3.16-5.32,9.74,3.49,19.76,6.67,29.35,10.55l4,1.36,12.48,4.6c-3.34,11.7-7.63,23.11-12.85,34.11-1.11-1.59-1.06-2.2-1.25-4.09.17-.48.26-.68.36-1.22.26-1.35.12-1.91-.61-3.03-2.43-1.39-6.15-1.24-8.98-1.7l-4.55-1.03-.85-.4c-7.05-3.24-11.14-9.25-13.99-16.3-.79-1.96-1.38-4.65-2.47-6.41-.9-1.46-1.82-1.24-3.35-1.45l-1.36-.15c1.28-.68,2.94-1.51,3.8-2.73.76-1.08,1-2.19.67-3.47-.41-1.61-2.24-2.58-3.56-3.33Z"/>
  <path class="cls-16" d="m555.55,368.05c3.89-9.47,7-19.22,10.85-28.68l12.48,4.6c-3.34,11.7-7.63,23.11-12.85,34.11-1.11-1.59-1.06-2.2-1.25-4.09.17-.48.26-.68.36-1.22.26-1.35.12-1.91-.61-3.03-2.43-1.39-6.15-1.24-8.98-1.7Z"/>
  <path class="cls-4" d="m562.4,338.01l4,1.36c-3.86,9.46-6.97,19.2-10.85,28.68l-4.55-1.03c4.8-7.4,8.29-20.48,11.41-29.01Z"/>
  <path class="cls-16" d="m543.82,392.32l.51-.67c4.58-1.02,12.3-4.03,16.45-4.01-7.39,12.11-16.79,25.08-31.42,28.57-6.88,1.64-14.02.92-20.99.39-1.23-4.13-3.65-9.84-3.35-14.12.57-1.31.53-2.89.64-4.3l2.5-.2c.69,1.82,1.1,2.82,2.69,3.98,1.46.29,1.4.19,2.67-.6l.74-1.81-.72-1.78c2.01-1.37,7.01,1.38,9.75,1.44,4.7.1,7.14-2.18,10.3-5.24l1.71.59c2.07.16,4.05.19,6.12.05.96-.56,1.65-1.46,2.4-2.27Z"/>
  <path class="cls-4" d="m533.59,393.94l1.71.59c2.07.16,4.05.19,6.12.05-4.83,5.1-9.07,9.85-16.69,10.12-6.65.24-13.16-2.28-19.7-2.25.57-1.31.53-2.89.64-4.3l2.5-.2c.69,1.82,1.1,2.82,2.69,3.98,1.46.29,1.4.19,2.67-.6l.74-1.81-.72-1.78c2.01-1.37,7.01,1.38,9.75,1.44,4.7.1,7.14-2.18,10.3-5.24Z"/>
  <path class="cls-5" d="m533.59,393.94l1.71.59c-2.04,3.01-4.8,5.19-8.41,5.88-4.09.78-8.6-.02-12.63-.9l-.72-1.78c2.01-1.37,7.01,1.38,9.75,1.44,4.7.1,7.14-2.18,10.3-5.24Z"/>
  <path class="cls-16" d="m481.99,322.3c1.71-2.3,2.29-5.69,4.52-7.3,2.54,1.05,1.42,12.81,5.4,18.69,3.39,5,8.19,6.7,13.84,7.82.52,1.52,1.01,3.72,2.53,4.49.86.43,1.92.68,2.85.94-7.48,12.62-8.69,29.66-5.22,43.71.61,2.46,1.4,4.92,2.24,7.31l-2.5.2c-.51-1.4-1.26-2.65-2.13-3.86-5.12-7.11-18.17-59.76-21.54-72Z"/>
  <path d="m511.14,346.94l3.21.09c1.24,4.4-2.6,11.15-3.72,15.72-2.64,10.77-2.28,24.97,2.91,35l.72,1.78-.74,1.81c-1.27.8-1.22.89-2.67.6-1.59-1.16-2-2.16-2.69-3.98-.84-2.39-1.63-4.85-2.24-7.31-3.47-14.05-2.26-31.09,5.22-43.71Z"/>
  <path d="m530.33,342.45c1.53.21,2.45,0,3.35,1.45,1.09,1.76,1.67,4.45,2.47,6.41,2.85,7.05,6.94,13.06,13.99,16.3l.85.4,4.55,1.03c2.83.46,6.55.32,8.98,1.7.73,1.12.87,1.69.61,3.03-.1.53-.19.74-.36,1.22-5.88.12-12.66-.91-18.01-3.44-8.17-3.86-13.74-12.44-16.51-20.8-.87-2.64-1.13-4.75.07-7.31Z"/>
  <path class="cls-7" d="m529.9,332.77c1.32.75,3.14,1.72,3.56,3.33.33,1.28.08,2.39-.67,3.47-.86,1.22-2.52,2.05-3.8,2.73-4.36,2.16-8.77,3.25-13.5,4.27-.78.17-.48.05-1.13.45l-3.21-.09c-.93-.26-1.99-.51-2.85-.94-1.53-.77-2.01-2.97-2.53-4.49,9.29-.25,17.31-2.2,24.14-8.73Z"/>
  <path d="m533.59,393.94c-3.31-1.02-6.06-3.35-7.63-6.43-.96-1.86-1.64-3.69-1.02-5.75,1.1-.9,1.27-.88,2.7-1.01,2.33,1.52,2.9,4.7,4.63,6.8,2.3,2.79,5.99,1.45,8.99,2.08,1.53.32,1.9,1.46,2.57,2.69-.75.81-1.44,1.71-2.4,2.27-2.08.14-4.05.1-6.12-.05l-1.71-.59Z"/>
  <path d="m542,376.84c2.62.34,10.92,3.09,12.77,4.94.27,1.68-.11,1.88-.96,3.29-1.86.23-3.52.16-5.35-.28-2.99-.73-5.67-1.93-7.26-4.67-.12-1.68-.05-1.82.8-3.28Z"/>
  <path class="cls-15" d="m508.13,455.52c2.3.18,4.19.68,6.36,1.39l.73-.23c1.16,1.51,2.59,3.2,3.12,5.05,1.29,4.55-.34,10.68,5.77,11.49.24.05.47.1.71.14,6.61,1.17,15.52-3.17,20.32,3.56,2.13,2.98,2.29,6.87,1.54,10.33-.55,2.58-2.07,5.08-4.46,6.36-1.04.56-2.3.72-3.45.95-.81.17-1.37.38-2.09.79l.63.98c2.32.5,5.06.38,6.44,2.58,1.58,2.51.91,5.84,2.32,8.25-1.01,5.37-4.39,10.36-7.14,15.01l-.73.34c-.51-1.33-.9-2.82-1.87-3.89-1.42-.24-2.83-.51-4.23-.82-1.19-.34-1.81-.27-3.01,0-.82.65-1.54,1.22-2.21,2.03l-3.48,2.88c-1.83,1.08-3.65,2.27-5.62,3.06l-4.27,1.26c-1.49.26-3.05.39-4.39,1.12-.18-.09-.35-.2-.53-.26-1.56-.53-2.44-.3-3.94.25-1.61-1.07-4.11-1.21-5.97-1.47-14.31-2-26.89-.17-38.04-10.87-.97-1.18-1.79-2.54-2.64-3.81-1.87-2.32-3.17-6-3.85-8.88-1.85-7.83-.22-16.61,4-23.42,3.95-6.37,9.6-10.53,16.87-12.28.57-.18,1.22-.36,1.76-.64,3.65-1.97,1.04-5.98,2.15-9.18l.6-.24c.8,1.18,1.46,2.04,2.62,2.89,1.45-.39,1.66-.76,2.66-1.83,1.59.52,3.79-.2,5.41-.51l4.38-.58c3.02-.51,6.09-.83,9.13-1.21l4.4-.61Z"/>
  <path class="cls-5" d="m521.62,519.04c-2.24,1.22-4.49,2.46-6.92,3.26-7.42,2.42-37.69-.99-44.67-4.63-5.35-2.77-9.35-7.59-11.1-13.35-2.11-6.88-1.4-14.31,1.96-20.67,3.72-6.93,9.17-10.42,16.5-12.67,1.05,2.71,2.19,5.66,4.71,7.34,5.91,3.93,20.48-.33,27.44-1.48-1.93,3.01-3.16,5.53-3.13,9.24.02,2.96.8,5.95,3.01,8.04,2.23,2.1,4.61,2.54,7.57,2.42l-.41,1.05c-1.27.56-2.34,1.25-3.39,2.17-2.36,2.06-3.79,4.98-3.95,8.11-.18,3,.88,5.95,2.94,8.14,2.78,2.97,5.67,2.99,9.45,3.05Z"/>
  <path class="cls-5" d="m533.02,477.47c2.1-.14,5.14-.65,6.88.73,1.72,1.36,2.95,3.22,3.16,5.44.16,1.75-.34,3.6-1.56,4.89-3.6,3.83-14.91,3.44-19.98,3.73l-.49.05c-3.01.32-5.62.73-8.07-1.38-1.6-1.38-2.67-3.27-2.76-5.4-.07-1.76.69-3.49,1.91-4.74,4.17-4.27,15.33-3.04,20.91-3.34Z"/>
  <path class="cls-5" d="m504.84,460.26c2.07-.49,5.08-.71,6.94.46,1.93,1.21,3.53,3.54,3.9,5.79.23,1.39-.16,2.69-1.03,3.78-2.97,3.72-18.54,4.38-23.37,5.05-2.23.46-4.35,1.1-6.37-.32-1.53-1.07-2.64-2.71-2.95-4.56-.31-1.8.16-3.66,1.3-5.09,3.63-4.51,16.05-4.47,21.57-5.11Z"/>
  <path class="cls-5" d="m536.37,500.19c1.2-.23,1.61.03,2.78.46,1.34,1.43,1.93,2.73,2.18,4.69.33,2.57.02,4.68-1.53,6.77-4.72,2.88-14.43,2.08-20.08,2.88-1.3-.18-2.74-.37-3.83-1.16-1.57-1.14-2.07-3.03-2.32-4.86-.25-1.85.1-3.59,1.37-5,4.06-4.56,15.8-3.58,21.43-3.77Z"/>
  <path class="cls-11" d="m516.98,496.53c4.42-1.23,9.57-.99,14.12-.67-2.01,1.79-11.46,1.36-14.53,1.72l.41-1.05Z"/>
  <path class="cls-6" d="m526.9,519.85c.67-.81,1.39-1.38,2.21-2.03,1.2-.28,1.82-.34,3.01,0l39.61,141.35,11.95,42.82c2.58,8.97,5.8,18.17,7.66,27.29.37,1.81.67,3.78-.31,5.45-.8,1.36-2.09,2.26-3.62,2.61-1.3.3-2.62.24-3.74-.58-1.39-1.02-2.29-2.71-2.95-4.27-2.31-5.49-3.93-11.49-5.91-17.12l-13.62-38.86-33.48-95.51c-6.16-17.6-12.07-35.34-18.58-52.82,1.33-.72,2.9-.85,4.39-1.12l4.27-1.26c1.97-.79,3.79-1.99,5.62-3.06l3.48-2.88Z"/>
  <path class="cls-9" d="m513.52,527.05l4.27-1.26c15.88,50.33,33.73,100.21,50.63,150.22,5.5,15.85,10.82,31.76,15.94,47.73.76,2.36,1.93,4.6,2.61,6.98.36,1.26.59,2.36.02,3.6l-1.31.82c-2.22-.98-2.86-2.91-3.71-5.1-1.89-4.9-3.1-10.08-4.79-15.05l-12.03-35.46-33.46-98.97c-6.02-17.81-11.6-35.91-18.18-53.51Z"/>
  <path class="cls-9" d="m526.9,519.85c4.1,13.65,31.4,102.97,31.06,108.05l-.72.97c-.86.03-.96.21-1.67-.38-1.34-1.12-2.05-3.14-2.62-4.75-2.3-6.61-3.96-13.55-5.88-20.29l-9.12-31.05-9.4-31.78c-1.74-5.89-3.82-11.88-5.12-17.87l3.48-2.88Z"/>
  <path class="cls-2" d="m450.83,274.64c2.24-.12,4.17.03,6.19,1.11,2.3,1.22,3.93,3.24,4.63,5.75,3.95,14.27-14.62,21.05-18.14,27.45-.43.78-.15,1.01.07,1.83.38.32.67.79,1.13.97,1.79.69,17.79-11.14,27.92-8.31,3.33.93,6.68,3.71,8.22,6.81.85,1.71,1.04,3.5.37,5.31-1.04,2.79-3.79,4.93-6.4,6.15-7.97,3.74-14.98.81-22.63-1.74-2.06-.69-5.83-2.16-7.83-1.15.43,2.75,16.07,11.58,19.86,19.98,1.28,2.83,1.7,5.79.52,8.73-.97,2.39-2.87,4.46-5.28,5.43-2.6,1.06-5.5.59-7.97-.62-6.77-3.33-10.06-13.35-11.12-20.29-.42-2.76-.2-5.4-1.05-8.11-1-1.09-.92-1.12-2.39-1.23-.34.2-.79.28-1.03.59-.44.57-1.09,17.85-3.33,23-2.02,4.64-5.05,7.37-9.69,9.17-.56.02-1.13,0-1.69-.03-2.5-.12-5.05-.92-6.7-2.92-2.33-2.83-2.98-5.59-2.44-9.2,1.01-6.76,7.23-12.99,12.4-16.91,2.32-1.76,5.78-3.77,6.21-6.81-.53-.52-.9-1.24-1.71-1.17-1.68.14-3.79,1.65-5.29,2.43-6.56,3.45-15.53,7.89-23.17,5.69-3.01-.87-5.1-2.88-6.59-5.57-1.26-2.28-1.28-4.54-.48-6.99.91-2.77,3.59-5.05,6.16-6.26,7.96-3.75,17.1.85,24.55,3.56,2.01.73,3.38,1.12,5.38.19.32-1.14.4-1.62-.4-2.67-.55-.71-3.11-1.83-3.97-2.37-6.17-3.81-13.01-8.89-15.82-15.86-1.1-2.74-1.32-5.67,0-8.38,1.13-2.3,3.21-4.44,5.69-5.22,2.68-.84,5.94-.1,8.34,1.21,9.44,5.15,9.03,19.12,11.49,28.12.95.93,1.04.82,2.39.88.88-.76,1.07-.98,1.27-2.19.3-1.86,0-3.9,0-5.78,0-4.63.66-9.52,2.27-13.88,1.94-5.25,4.99-8.46,10.04-10.73Z"/>
  <path class="cls-16" d="m630.78,819.51c7.12-.41,13.85.9,19.86,4.9,7.17,4.77,11.58,12.19,13.18,20.57,1.7,8.9.57,18.12-4.66,25.68-5.2,7.52-12.59,11.2-21.39,12.75-7.25.54-14.25-1.01-20.29-5.15-6.98-4.78-11.32-12.29-12.8-20.54-1.59-8.85-.4-18.14,4.84-25.61,5.24-7.48,12.5-10.99,21.27-12.6Z"/>
  <path class="cls-16" d="m472.06,820.04c6.6-.53,13.4.96,18.97,4.59,6.79,4.41,11.51,11.39,13.09,19.33,1.77,8.98-.23,19.58-5.42,27.15-4.87,7.1-11.94,11.02-20.29,12.54-8.04.69-15.4-.48-22.05-5.33-6.51-4.75-10.82-11.93-11.95-19.9-1.29-9.04.95-19.34,6.5-26.67,5.33-7.04,12.6-10.45,21.16-11.71Z"/>
  <path class="cls-16" d="m607.14,284.15l32.28-18c3.26,17.35,3.83,35.38,6.4,52.86l-45.95,15.2-5.76,1.94-8.8,2.8,21.83-54.8Z"/>
  <path class="cls-4" d="m594.11,336.15c6.65-16.46,14.82-32.34,21.42-48.82,1.15-2.86,2.03-6.13,5.04-7.42l.94.43c.53,1.27.83,2.05.37,3.42-1.56,4.67-4.12,9.39-6.13,13.91-5.38,12.09-11.16,24.18-15.87,36.55l-5.76,1.94Z"/>
  <path class="cls-6" d="m458.24,382.5c2.98,2.15,5.93,4.29,8.74,6.67,2.03,1.26,4.23,2.46,6.09,3.97,4.86,2.99,9.75,5.94,14.66,8.83,1.89.8,3.78,1.67,5.72,2.36,2.47.65,4.94,1.33,7.45,1.8l9.15,32.76c1.64,5.86,3.01,12.11,5.18,17.79l-.73.23c-2.17-.71-4.06-1.21-6.36-1.39l-4.4.61c-3.04.38-6.11.7-9.13,1.21l-4.38.58c-1.62.3-3.83,1.02-5.41.51l-26.56-75.92Z"/>
  <path class="cls-6" d="m458.24,382.5c2.98,2.15,5.93,4.29,8.74,6.67,2.03,1.26,4.23,2.46,6.09,3.97,4.49,13.77,9.08,27.52,13.76,41.23,2.57,7.63,4.86,15.49,7.78,22.97l-4.38.58c-1.62.3-3.83,1.02-5.41.51l-26.56-75.92Z"/>
  <path class="cls-9" d="m466.98,389.17c2.03,1.26,4.23,2.46,6.09,3.97,4.49,13.77,9.08,27.52,13.76,41.23,2.57,7.63,4.86,15.49,7.78,22.97l-4.38.58c-7.62-22.96-15.37-45.87-23.24-68.75Z"/>
  <path class="cls-6" d="m508.13,455.52c-1.97-5.01-15.14-49.24-14.69-51.19,2.47.65,4.94,1.33,7.45,1.8l9.15,32.76c1.64,5.86,3.01,12.11,5.18,17.79l-.73.23c-2.17-.71-4.06-1.21-6.36-1.39Z"/>
  <path class="cls-9" d="m487.73,401.97c1.89.8,3.78,1.67,5.72,2.36-.45,1.95,12.72,46.18,14.69,51.19l-4.4.61-16-54.16Z"/>
  <path class="cls-16" d="m438.55,342.9c2.3,4.67,5.33,9.75,6.12,14.94,1.88,12.39-7.25,12.7,7.48,20.9l2.3,6.14,1.99,5.58c1.82,5.17,3.68,10.32,5.22,15.58-10.19-3.04-61.59-18.49-65.79-23.06-.74-.8-1.12-1.86-1.1-2.93.07-2.62,2.62-4.49,4.37-6.16l3.98-3.52,12.45-11.39c4.95.88,9.15,1.16,13.58-1.78,4.97-3.29,7.39-8.94,9.38-14.32Z"/>
  <path class="cls-16" d="m438.55,342.9c2.3,4.67,5.33,9.75,6.12,14.94,1.88,12.39-7.25,12.7,7.48,20.9l2.3,6.14c-6.86-.23-41.76-11.66-51.33-14.51l12.45-11.39c4.95.88,9.15,1.16,13.58-1.78,4.97-3.29,7.39-8.94,9.38-14.32Z"/>
  <path class="cls-4" d="m399.15,373.9l3.98-3.52c9.57,2.85,44.46,14.28,51.33,14.51l1.99,5.58c-8.14-3.05-17.03-4.95-25.39-7.4-10.48-3.08-21.24-6.96-31.91-9.17Z"/>
  <path class="cls-2" d="m499.81,237.26c1.72,1.3,3.38,3.07,4.83,4.66,4.17,4.56,8.17,10.74,7.68,17.18-.4,5.27-4.24,10.68-8.66,13.51-1.88,1.2-4.33,2.25-5.93,3.76-1.07,1.01-.88,1.31-.83,2.69.88,1.08,1.01,1.5,2.51,1.54,3.24.1,8.75-5.09,11.28-7.1,3.86,2.6,7.62,6.22,9.72,10.42,2.61,5.23,2.16,10.14.39,15.45-1.8,3.3-3.49,6.66-5.92,9.55-17.52-13.25-25.54-30.18-30.61-51.1,4.83-7.05,10.36-13.76,15.54-20.57Z"/>
  <path class="cls-6" d="m478.18,325.43c6.31,20.78,11.42,41.91,17.74,62.68-2.84-1.28-5.78-2.84-8.78-3.7l-4.97-1.63c-7.31-2.22-14.52-3.92-22.08-5.05.87-4.18,2.92-9.82.25-13.62-1.98-2.8-6.59-5.1-9.45-6.98,5.03.7,9.68.93,13.93-2.44,2.92-2.31,4.46-5.77,4.7-9.45.44-6.72-3.15-12.56-7.53-17.29l-.26-.28c6.23.13,10.6-.26,16.45-2.24Z"/>
  <path class="cls-9" d="m482.18,382.78c-1.5-5.01-10.11-30.28-8.88-33.84l.96-.81c1.66.64,2.21,1.76,2.97,3.36,3.61,7.65,7.32,24.12,9.92,32.92l-4.97-1.63Z"/>
  <path class="cls-1" d="m526.75,278.49c21.9,8.25,44.24,10.77,67.41,7.72.07,4.69.69,8.33,2.39,12.72l-2.38,5.92-.72,1.44c-3.08,1.86-37.56.72-44.2.67-5.85-5.73-11.91-11.35-17.54-17.29-3.67-3.88-5.11-5.77-4.98-11.17Z"/>
  <path class="cls-2" d="m499.83,302.48c5.3,5.18,13.5,14.29,21.15,15.01l.94-.62c.08-2.52-1.84-4.79-1.25-7.17l.58-.51c3.29,2.75,6.55,9.02,6.97,13.28.26,2.64-.54,5.13-2.27,7.14-3.64,4.22-10.32,5.74-15.59,6.55l-4.93.23c-2.6-.51-5.12-1.39-7.12-3.18-4.49-4.01-4.75-10.28-5.06-15.85,2.79.74,6.99,2.32,9.61.59.72-.48.55-.73.66-1.51-2.33-3.39-6.53-3.55-10.29-4.34,2.07-.7,4.84-1.52,6.16-3.42,1.33-1.92.87-4.09.46-6.23Z"/>
  <path class="cls-5" d="m505.42,336.4c-3.79-3.43-8.05-6.73-8.21-12.38-.04-1.31.19-2.69,1.13-3.66.68-.7,1.15-.69,2.06-.94,1.69.29,3.17.7,4.21,2.19.86,1.24,1.15,2.98,1.49,4.42,2.01.66,4.78,1.25,5.78,3.32.66,1.36.53,2.64-.04,3.99-.4.97-.88,1.95-1.49,2.81l-4.93.23Z"/>
  <path class="cls-16" d="m527.61,291.61c6.45,5.63,12.27,12.27,18.32,18.33,9.06,9.09,18.48,17.95,27.15,27.42l-19.33-7.12c-3.62-1.16-7.17-2.4-10.7-3.8l-9.35-3.3c-.58-2.78-1.47-5.43-2.37-8.12-1.91-3.39-5.11-7.13-6.53-10.61-.48-1.18-.07-1.66.36-2.8,1.51-3.15,2.04-6.56,2.46-10Z"/>
  <path class="cls-4" d="m531.32,315.01c-1.91-3.39-5.11-7.13-6.53-10.61-.48-1.18-.07-1.66.36-2.8l28.59,28.63c-3.62-1.16-7.17-2.4-10.7-3.8l-9.35-3.3c-.58-2.78-1.47-5.43-2.37-8.12Z"/>
  <path class="cls-16" d="m531.32,315.01c2.93.67,9.88,8.47,11.45,10.93.1.16.18.32.27.48l-9.35-3.3c-.58-2.78-1.47-5.43-2.37-8.12Z"/>
  <path class="cls-5" d="m480.32,263.45l2.34,7.97c.97,2.65,1.86,5.37,2.95,7.97l3.21,6.93c3.16,5.58,6.68,10.76,10.62,15.82l.39.33c.41,2.14.87,4.3-.46,6.23-1.32,1.9-4.09,2.72-6.16,3.42l-7.78-2.51c-2.27-4.4-4.21-7.01-8.77-9.19-.13-.1-.27-.19-.39-.31-3.56-3.67-3.66-15.07-3.36-19.86,2.32.29,4.53.41,6.87.43,1.36-.78,1.28-1.14,1.79-2.58-.82-3.2-4.74-1.69-6.9-3.51l.55-1.6c1.38-3.41,3.16-6.41,5.09-9.54Z"/>
  <path class="cls-2" d="m480.32,263.45l2.34,7.97c.97,2.65,1.86,5.37,2.95,7.97-3.52,1.24-5.84,2.91-7.58,6.31-2.47,4.84-1.41,9.62-1.37,14.71-.13-.1-.27-.19-.39-.31-3.56-3.67-3.66-15.07-3.36-19.86,2.32.29,4.53.41,6.87.43,1.36-.78,1.28-1.14,1.79-2.58-.82-3.2-4.74-1.69-6.9-3.51l.55-1.6c1.38-3.41,3.16-6.41,5.09-9.54Z"/>
  <path class="cls-5" d="m480.32,263.45l2.34,7.97c-1.12,1.47-2.81,2.19-4.63,2.43-1.4.19-1.63.09-2.7-.76-.04-.03-.07-.07-.1-.11,1.38-3.41,3.16-6.41,5.09-9.54Z"/>
  <path class="cls-2" d="m488.82,286.33c3.16,5.58,6.68,10.76,10.62,15.82-2.83-.97-5.75-1.86-8.51-3.01-1.71-.71-3.15-1.57-3.82-3.38-.8-2.15-.48-4.04.39-6.11.46-1.1.89-2.21,1.32-3.32Z"/>
  <path class="cls-4" d="m553.28,310.99c12.83.18,25.67.05,38.5.07l-7.63,19.11-3.45,8.7c-8.81-9.54-18.33-18.57-27.42-27.87Z"/>
  <path class="cls-8" d="m473.72,249.86l10.98-.04-5.96,7.91c-9.06,2.02-16.43,7.21-23.89,12.45-1.28.01-2.56.11-3.83.29-6.48.92-9.92,5.59-13.61,10.41l-3.08,3.9-3.25-5.09c10.9-12.65,25.55-27.19,42.65-29.82Z"/>
  <path class="cls-2" d="m548.31,511.25c.19.16.4.29.56.48,1.81,2.18,2.89,53.03,3.27,60.39-.66-1.76-1.21-3.57-1.81-5.35-3.35-11.82-6.63-23.66-9.84-35.53,2.19-6.15,4.13-14.69,7.82-19.99Z"/>
  <path class="cls-8" d="m474.11,238.83c5.95.09,11.02,1.05,16.66,2.93l-3.08,4.26c-10.7-.92-20.4-.08-30.85,2.31-4.85,1.46-9.54,3.13-14.26,4.94.82-1.04,1.66-2.06,2.51-3.07,7.08-8.35,18.67-10.5,29.03-11.37Z"/>
  <path class="cls-13" d="m467.25,383.54c8.08.51,24.48,5.9,30.5,11.01,2.42,2.06,3.41,3.62,3.67,6.79-8.94.72-27.1-12.13-34.17-17.81Z"/>
  <path class="cls-5" d="m667.12,200.67c2.74,1.28,5.21,3.59,6.56,6.3,3.09,6.16,1.15,13.38-.82,19.54-.53,1.05-1.22,2.01-1.87,2.98-.45-.7-.39-.43-.46-1.19-.88-9.27-1.98-18.43-3.41-27.63Z"/>
  <path class="cls-5" d="m663.12,208.56c1.76,8.23,2.16,17.02,2.85,25.39-1.89.8-3.88,1.38-5.82,2.03l-1.74.16c-.78-1.82,3.85-24.06,4.71-27.58Z"/>
  <path class="cls-4" d="m407.52,227.15c2.96,2.18,5.55,4.96,8.19,7.53-.59,3.64-1.58,7.23-2.48,10.81l-8.71-7.98,3-10.36Z"/>
  <path class="cls-13" d="m449.28,361.23c2.87,1.82,5.63,3.95,8.42,5.91-.48,2.92-1.11,5.81-1.74,8.7-2.81-1.28-5.58-3.2-8.26-4.76.44-3.3,1.02-6.57,1.58-9.85Z"/>
  <path class="cls-8" d="m474.21,263.55c.25,2.57-3.21,8.21-4.36,10.81-2.7-.42-5.41-.82-8.11-1.2-.49-.2-.86-.54-1.28-.86.04-.13.07-.27.13-.39,1.62-3.2,10.43-6.82,13.62-8.36Z"/>
  <path class="cls-12" d="m450.46,254.72l.28.13s-14.52,12.9-17.19,15.57l-.15-.07c-.29-.84-.35-.48-.09-1.08,4.24-9.77,7.94-10.9,17.14-14.55Z"/>
  <path class="cls-8" d="m465.18,277.85c1.36.36,1.97.37,2.95,1.41.36,2.29,1.27,10,.1,11.99-1.21-.16-1.56.03-2.45-.87-.01-1.25-.01-2.49.13-3.74.37-3.33.29-5.57-.73-8.79Z"/>
  <path class="cls-8" d="m463.54,294.9c2.32.19,4.51.41,6.52,1.66l-.35.74-2.47.45c-1.83.4-3.79,1.02-5.66.86-.12-1.26,1.23-2.64,1.97-3.7Z"/>
  <path d="m600.37,284.11l1.26.7c0,2.44-1.17,4.74-2.06,6.98h-.21c-.92-1.12-.95-2.23-.87-3.69.11-2.03.42-2.63,1.88-3.99Z"/>
  <path class="cls-4" d="m447.31,237.77c.75.17,1.5.39,2.24.59-.05,1.65-2.61,3.64-3.82,4.87-.5.52-.17.29-1.05.55.31-2.14,1.63-4.12,2.63-6.01Z"/>
  <path class="cls-15" d="m796.45,509.96c6.57,2.25,11.93,4.37,17.53,8.6,8.08.7,26.69-.43,31.79,5.98,2.12,2.67,2.34,6.05,1.85,9.3-.47,3.08-1.98,5.49-4.54,7.27-1.33.93-2.87,1.62-4.33,2.32-.73,3.5-1.72,6.61-4.9,8.69-4.99,3.28-12.85,1.53-18.55,1.48-5.52,6.56-10.76,9.66-19.41,10.37-1.15.09-2.31.17-3.46.23,3.07,3.23,5.15,6.01,5.03,10.72-.09,3.22-1.51,6.59-3.99,8.7-2.34,1.99-5.18,2.71-8.21,2.41-7.57-.73-12.71-9.72-17.02-15.28-4.93-6.37-7.68-9.2-9.46-17.37-1.48-.69-2.92-1.22-4.48-1.68,1.36-1.38,2.49-2.41,4.2-3.33,10.5-7.16,24.59-25.18,34.23-34.92,1.31-.93,2.54-2.38,3.72-3.5Z"/>
  <path class="cls-5" d="m792.73,513.46c5.11,1.66,10.21,3.27,15.03,5.67-4.69,2.99-6.16,5.35-7.71,10.65-3.45,1.16-5.71,2.57-7.37,5.92-1.49,3.02-2.16,6.53-.93,9.77,1.07,2.82,3.56,4.85,6.31,5.94,3.73,1.47,8.34,1.24,12.32,1.36-4.02,3.67-9.74,7.63-15.43,7.48-3.62-.1-6.69-2.05-9.01-4.71-3.87-4.44-7.52-11.69-14.15-12.05-6.37-.34-9.49,6.61-13.29,4.88,10.5-7.16,24.59-25.18,34.23-34.92Z"/>
  <path class="cls-5" d="m800.66,533.89c6.8,0,22.09.05,28.09,2.03,1.99.66,3.93,1.87,4.84,3.83.86,1.86.8,4.21-.02,6.07-.98,2.22-2.84,3.02-4.96,3.89-7.12-.03-21.13.07-27.54-2.04-2.07-.68-3.96-1.92-4.92-3.93-.83-1.74-.79-4.05-.04-5.81.89-2.08,2.57-3.16,4.55-4.05Z"/>
  <path class="cls-5" d="m770.34,547.49c.71.14,1.41.28,2.1.48,4.31,1.24,17.37,18.82,19.81,23.44.88,1.67,1.47,3.28.77,5.13-1.06,2.8-3.74,4.3-6.32,5.44-.48-.08-.96-.17-1.44-.28-5-1.16-16.32-16.82-19.37-21.62-1.25-1.97-2.64-4.3-2.02-6.7.76-2.93,4.02-4.58,6.48-5.89Z"/>
  <path class="cls-5" d="m808.86,523.12c7.31-.36,20.95-.15,27.95,1.48,2.3.54,4.83,1.65,6.08,3.78.91,1.55.84,3.7.41,5.39-.63,2.5-2.4,3.58-4.47,4.88-3.12-1.58-3.79-5.91-8.11-7.17-6.03-1.76-19.8.98-24.47-2.45-.8-.59-.63-.84-.81-1.76.71-1.87,1.95-2.85,3.41-4.15Z"/>
  <path class="cls-3" d="m502.93,232.97c4.9-6.5,9.1-13.6,13.4-20.5.2.1.3.1.5.2,2.8,1,5.7,1.1,8.7,1.7,7.7,1.5,14.2,6.3,17.8,13.4,3,6.1,3.5,13.2,1.3,19.7-2.2,6.3-6.8,11.5-12.8,14.5-5,2.4-9.6,2.4-15,2.7.5-2.2.9-4.4.8-6.7-.3-10.5-7.7-18.1-14.7-25Z"/>
</svg>