<?xml version="1.0" encoding="UTF-8"?>
<svg id="_图层_1" data-name="图层 1" xmlns="http://www.w3.org/2000/svg" xmlns:xlink="http://www.w3.org/1999/xlink" viewBox="0 0 1134 950">
  <defs>
    <style>
      .cls-1 {
        fill: url(#_未命名的渐变);
      }

      .cls-2 {
        fill: #febdc2;
      }

      .cls-3 {
        fill: #221817;
      }

      .cls-4 {
        fill: #ffddc8;
      }

      .cls-5 {
        fill: #fe8f9f;
      }

      .cls-6 {
        fill: #fee6e1;
      }

      .cls-7 {
        fill: #763e3d;
      }

      .cls-8 {
        fill: #5f0037;
      }

      .cls-9 {
        fill: #feddc8;
      }

      .cls-10 {
        fill: #a48969;
      }

      .cls-11 {
        fill: #926a6b;
      }

      .cls-12 {
        fill: #ff6365;
      }

      .cls-13 {
        fill: #fefefe;
      }

      .cls-14 {
        fill: #660105;
      }
    </style>
    <linearGradient id="_未命名的渐变" data-name="未命名的渐变" x1="582.81" y1="660.57" x2="581.5" y2="639.25" gradientTransform="translate(0 950) scale(1 -1)" gradientUnits="userSpaceOnUse">
      <stop offset="0" stop-color="#ffd9c1"/>
      <stop offset="1" stop-color="#ffebea"/>
    </linearGradient>
  </defs>
  <path d="m442.6,115.66c9.34-30.17,38.83-60.4,66.55-75.05,28.12-14.85,60.51-16.37,90.6-6.97,9.01,2.82,17.17,7.18,25.95,10.49,6.29,2.37,12.85,3.76,19.09,6.34,21.82,8.88,39.77,25.22,50.65,46.12,12.94,24.7,19.12,60.08,10.49,87.02-3.01,9.37-7.61,16.56-14.05,23.91,4.7,4.94,6.88,10.11,6.69,16.95-.19,7.14-2.91,14.96-8.27,19.87-1.51,1.38-3.43,2.49-5.15,3.59-.55,26.52-.76,49.36-13.63,73.53,16.39,13.89,32.39,28.17,48.64,42.22,8.29,7.17,18.53,14.59,25.85,22.54,1.06,1.15,1.63,1.97,1.81,3.59.21,1.88-.09,3.86-1.4,5.3-6.45,7.1-32.38,15.4-42.04,19.26-2.66,1.06-5.86,1.59-8.15,3.34,3.06,6.21,9.88,12,14.65,17.08,9.73,10.35,51.6,53.02,55.44,61.21,2.53,5.32,2.9,11.41,1.02,16.99-3.1,8.92-11.09,12.46-18.66,17.08,7.25,7.62,15.08,15.11,21.8,23.19,2.1,2.52,2.98,6.23,5.38,8.41,6.21,5.65,15.34,7.86,21.31,13.73,2.13,2.1,3.35,4.73,3.35,7.74,0,3.33-1.51,6.69-3.95,8.95-4.11,3.8-10.73,2.71-16.6,7.08-1.58,1.18-2.58,2.05-4.68,1.67-5.45-.99-10.27-4.94-15.08-7.46-8.7,2.79-15.39,3.46-23.72-.81-.58-.3-1.15-.6-1.72-.9,1.14,4.45,1.74,8.32-.6,12.57-1.37,2.48-3.79,4.43-6.58,5.04-3.99.88-7.69-.26-11.01-2.46,9.91,14.65,22.16,28.32,33.26,42.11,5.48,6.81,13.42,14.51,16.4,22.72.03.08.06.17.09.25-.78,3.69-1.82,6.82-5.18,9.01-2.09,1.36-4.39,1.63-6.79,1.05-1.73-.42-3.17-1.21-4.52-2.36-6.52-5.57-12.27-12.96-18.05-19.32-11.13-12.27-22.24-24.59-33.57-36.67,3.34,13.07,6.83,26.11,10.46,39.11,1.84,6.75,4.21,13.72,5.23,20.64.5,3.38,1.07,8.68-.66,11.74-.71,1.26-1.92,2.35-3.35,2.7-7.67,1.86-17.82.96-25.8,1.12-26.15.52-52.69,1.18-78.8-.2,8.61,30.29,17.04,60.62,25.29,91,2.8,10.27,7.2,19.55,8.66,30.17,20.63,7.21,51.24,8.09,61.98,30.57,2.33,4.87,3.47,10.67,1.58,15.89-1.15,3.19-3.41,5.92-6.54,7.31-9.35,4.16-40.89,9-52.84,11.35-14.02,2.76-32.54,7.45-46.22,8.8-2.73.27-5.71.17-8.27-.89-3.82-1.58-6.6-5.72-8.01-9.45-2.82-7.45-3.65-16.47-5.15-24.3-1.39-7.29-3.3-14.58-4.19-21.95-.23-3-1.29-5.66-1.93-8.57-1.82-8.32-2.85-16.46-6.11-24.4-5.69,14.91-11.66,29.83-16.91,44.89-1.85,5.29-2.76,11.02-4.8,16.2,12.4,9.9,30.45,20.27,39.04,33.33,4.79,7.28,7.77,16.17,5.86,24.91-.93,4.26-3.04,8.34-6.88,10.65-3.19,1.93-6.3,1.83-9.88,1.57-12.6-.91-27.32-4.94-39.9-7.41-17.91-3.53-36.28-6.36-53.99-10.73-4.86-1.2-8.59-3.09-11.11-7.71-1.43-2.62-1.38-6.15-1.18-9.06.49-7.08,2.57-14.44,3.94-21.41,1.38-7.02,2.3-14.12,4.09-21.05,1.33-5.19,1.71-10.47,3.34-15.65,1.88-5.99,5.11-11.6,7.51-17.39,4.16-10.02,7.79-20.33,11.63-30.48l37.67-99.65c-34.33-2.13-68.55-5.8-102.55-11.01-7.06-1.15-15.57-1.79-22.15-4.5-3.7-1.53-6.29-4.09-7.77-7.82-.88-2.21-.06-4.98.52-7.21,2.91-11.35,7.63-22.54,11.25-33.71,3.34-10.52,6.75-21.02,10.21-31.51,1.96-5.97,3.69-12.15,6.18-17.92-3.77-.3-7.51-1.1-11.22-1.79-4.91,2.72-10.56,8.24-16.42,7.95-4.06-.2-6.51-2.96-9.07-5.74-1.25.64-2.6,1.33-3.95,1.73-3.53,1.06-6.91-1.05-9.95-2.59-2.39-3.51-4.1-7.11-3.23-11.47,1.7-8.59,20.4-17.68,27.71-22.35,5.57-11.8,15.51-21.22,24.71-30.33l-.59-.35c-9.19-5.46-20.03-7.14-23.09-19.15-1.71-6.71.14-13.73,3.68-19.52,4.55-7.43,10.38-14.4,15.55-21.43l29.45-40.25c4.79-6.55,10.39-13.14,14.27-20.24-1.72-.64-3.47-1.25-5.17-1.96-4.62,1-9.95,2.36-14.29-.33-3.3-2.05-4.54-6.39-7.68-8.31-7.49-4.57-32.33-10.08-34.07-18.79-.56-2.81.8-5.7,2.46-7.88,4.48-5.91,11.85-10.66,17.94-14.81-4.88-2.84-9.53-6.31-11.2-12.01-.97-3.31-1.04-7.77.65-10.88,1.69-3.11,4.82-5.01,8.13-5.99,2.34-.69,4.94-.95,7.37-1.19,1.86-7.23-.58-15.01,1.55-23.13,4.51-17.25,14.34-33.9,15.27-51.85.28-5.42-3.08-9.96-4.04-15.16-1.14-6.21.2-12.52.69-18.73-7.85,5.8-15.82,10.43-25.96,8.84-6.7-1.05-12.67-4.8-16.53-10.38-3.92-5.6-5.43-12.54-4.19-19.27.9-4.74,3.03-8.62,5.97-12.37-13.92-.81-24.97,2.1-35.59,11.5-11.94,10.58-21.04,27.41-21.9,43.47-.69,12.92,3.46,26.01,12.28,35.6,5.82,6.34,13.88,11.04,22.62,11.43,8.5.38,20.59-2.4,27.41,4.77,2.45,2.58,3.33,11.07,2.95,14.53-.15,1.34-.4,2.2-1.36,3.19-4.58,1.13-13.26-2.91-17.34-5.08-.75-4.31-1.4-8.6-1.9-12.95-17.7,5.45-37.49,8.62-54.59-.54-12.83-6.87-20.14-18.68-24.11-32.38-7.68-26.5-1.2-54.79,12.09-78.42,13.36-23.75,38.2-41.76,64.4-48.85,6.53-1.77,13.23-2.2,19.75-3.78,3.58-.87,6.99-3.14,10.38-4.62,6.39-2.8,14.65-.27,20.4,3.04,1.59.93,3.16,1.89,4.71,2.88Zm272.01,488.75c-2.97-7.11-6.1-23.95-5.9-31.66.06-2.18.64-4.12,1.32-6.17-2.18-2.33-4.37-4.55-5.99-7.32-5.77,2.21-11.74,4.36-17.79,1.64-2.61-1.18-4.67-3.11-6.59-5.17.83,2.72,1.57,5.74,2.97,8.23,3.39,6.01,27.01,35.97,31.98,40.46Zm-50.89-337.33c.2,7.36,1.14,14.63,1.52,21.98.48,9.32.29,19.09,1.81,28.3,1.61-.51,2.23-2,3-3.46,8.03-15.32,9.65-36.04,10.09-53.08.08-3.02.67-7.77-.38-10.59-.06-.15-.14-.29-.21-.43-1.37-.03-2.65,0-4.01.13-1.84.49-2.09.68-3.06,2.29-2.99,4.99-5.43,10.03-8.75,14.86Zm-189.14,27.86l.14-.66c.61-2.89,2.15-5.55,2.34-8.44-.76-1.06-1.35-.92-2.57-1.2-.33,3.02-1.35,8.69-.12,11.44l.22-1.15Z"/>
  <path class="cls-5" d="m522.54,471.1c12.12-.59,24.9-1.98,37-1.4,12.94.62,26.48,3.71,39.33,5.69,19.02,2.94,38.17,5.33,57.11,8.71l26.68,98.8c4.84,17.89,9.98,35.76,14.44,53.75-8.62-.16-17.23-.25-25.85-.25l-20.48-74.29c-3.43-12.53-6.25-25.94-10.61-38.14-.61-1.7-1.13-3.45-2.77-4.42-.77-.46-1.37-.53-2.26-.51-1.79,1.18-2.4,2.28-2.84,4.38-1.74,8.26-.5,18.32-.76,26.8l-2.06,86.68-69.12-2.73c-.15-26.27-.17-52.55-.07-78.82.02-12.47.91-25.66-.14-38.05-.16-1.9-.36-3.86-1.79-5.27-.87-.87-2.07-1.33-3.3-1.27-1.4.05-2.93.78-3.88,1.82-3.02,3.32-42.27,101.3-47.78,115.38l-54.12-4.7c-9.91-.87-20.09-1.31-29.92-2.72,4.43-13.13,8.26-26.95,13.5-39.74-2.13-.17-3.26-.15-5.19.81-3.77-.3-7.51-1.1-11.22-1.79-4.91,2.72-10.56,8.24-16.42,7.95-4.06-.2-6.51-2.96-9.07-5.74-1.25.64-2.6,1.33-3.95,1.73-3.53,1.06-6.91-1.05-9.95-2.59-2.39-3.51-4.1-7.11-3.23-11.47,1.7-8.59,20.4-17.68,27.71-22.35,5.57-11.8,15.51-21.22,24.71-30.33,1.22.56,2.76,1.47,4.05,1.74,3.51,1.91,7.14,3.77,10.38,6.11,3.84,2.78,7.65,6.56,11.88,8.67,5.12,2.55,10.96,2.37,16.06,4.66,1.26.46,2.89,1.29,4.21,1.22,5.09,1.82,11.36,2.94,16.42.47,13.28-6.46,28.32-54.24,33.29-68.78Z"/>
  <path class="cls-3" d="m426.24,517.02c1.22.56,2.76,1.47,4.05,1.74,3.51,1.91,7.14,3.77,10.38,6.11,3.84,2.78,7.65,6.56,11.88,8.67,5.12,2.55,10.96,2.37,16.06,4.66,1.26.46,2.89,1.29,4.21,1.22-2.03,5.26-4.21,9.25-7.75,13.63.76,1.75,1.42,3.38,1.48,5.31.1,3.57-3.83,28.02-4.98,30.73-1.11,2.62-3.27,4.91-5.95,5.94-2.62,1.01-5.64.62-8.09-.67-3.26-1.72-5.48-4.84-6.36-8.39-.73-2.95-.08-5.95.4-8.89-2.87,1.39-5.68,2.72-8.71,3.71-2.13-.17-3.26-.15-5.19.81-3.77-.3-7.51-1.1-11.22-1.79-4.91,2.72-10.56,8.24-16.42,7.95-4.06-.2-6.51-2.96-9.07-5.74-1.25.64-2.6,1.33-3.95,1.73-3.53,1.06-6.91-1.05-9.95-2.59-2.39-3.51-4.1-7.11-3.23-11.47,1.7-8.59,20.4-17.68,27.71-22.35,5.57-11.8,15.51-21.22,24.71-30.33Z"/>
  <path class="cls-6" d="m430.29,518.76c3.51,1.91,7.14,3.77,10.38,6.11,3.84,2.78,7.65,6.56,11.88,8.67,5.12,2.55,10.96,2.37,16.06,4.66-1.57,4.62-3.57,7.99-6.55,11.85-1.18-.49-2.4-.92-3.64-1.22-2.73-.66-6.1-.28-8.47,1.3-5.91,3.96-6.25,13.97-7.3,20.35-.45.49-.43.48-1.02,1.01-6.08,5.47-12.7,5.54-20.38,5.2,3.6-3.88,9.24-5.16,10.98-10.81.96-3.11.42-6.51-1.23-9.29-5.18-8.74-10.18-3.56-15.46-4.46-.78-.13-5.58-4.04-9.29-5.05,5.84-10.4,16.07-19.41,24.04-28.31Z"/>
  <path class="cls-6" d="m420.08,555.33c.81.01,1.59.12,2.38.28,2.35.47,3.86,1.6,5.14,3.62.85,1.34,1.1,2.7.68,4.24-1.79,6.61-20.2,16.31-26.2,20.1-.59.01-1.17.03-1.75-.07-2.49-.44-4.35-2.11-5.64-4.21-1-1.63-1.19-3.27-.61-5.1,1.87-5.94,20.02-16,26-18.85Z"/>
  <path class="cls-6" d="m455.21,552.52c1.03.15,2.07.3,3.04.68,1.58.6,2.98,1.64,3.62,3.26,1.31,3.33-3.21,28.77-4.89,32.58-1.4,1.34-2.6,1.64-4.45,2.11-.94-.18-1.91-.35-2.81-.67-1.92-.68-3.46-2.04-4.24-3.93-1.63-3.92,2.59-25.41,4.48-29.67,1.13-2.56,2.71-3.43,5.25-4.35Z"/>
  <path class="cls-6" d="m404.03,551.44c2.2.01,4.6.47,6.29,1.93.96,4.85-15.25,11.02-18.26,14.87-2.13,2.72-1.86,5.7-2.95,8.77-.63,1.77-2.24,2.14-3.79,2.9-2.69-.61-4.85-1.85-6.35-4.24-1.01-1.61-1.35-3.3-.84-5.15,1.7-6.19,19.85-15.94,25.89-19.08Z"/>
  <path class="cls-8" d="m639.25,819.89c20.63,7.21,51.24,8.09,61.98,30.57,2.33,4.87,3.47,10.67,1.58,15.89-1.15,3.19-3.41,5.92-6.54,7.31-9.35,4.16-40.89,9-52.84,11.35-14.02,2.76-32.54,7.45-46.22,8.8-2.73.27-5.71.17-8.27-.89-3.82-1.58-6.6-5.72-8.01-9.45-2.82-7.45-3.65-16.47-5.15-24.3-1.39-7.29-3.3-14.58-4.19-21.95,2.54,1.2,4.54,5.48,6.33,7.79,5.58,5.56,11.67,9.57,19.53,11.05,9.39,1.79,19.1-.3,26.93-5.78,9.05-6.41,12.99-15.12,14.77-25.77-.08-1.52.06-3.1.1-4.63Z"/>
  <path class="cls-8" d="m639.16,824.52c4.67,1.56,9.32,2.83,14.1,3.99l5.61,1.64c3.41.68,16.88,3.28,19.03,5.3l4.55,2.33c6.1,3.65,11.73,8.26,14.9,14.79l-114.04,22.4c-1.44-8.78-5.45-21.62-5.38-29.94,5.58,5.56,11.67,9.57,19.53,11.05,9.39,1.79,19.1-.3,26.93-5.78,9.05-6.41,12.99-15.12,14.77-25.77Z"/>
  <path class="cls-13" d="m653.26,828.51l5.61,1.64c3.41.68,16.88,3.28,19.03,5.3l4.55,2.33c-.25,1.2-.57,2.32-1,3.46-.68,1.79-1.75,4.32-3.7,5.04-5.11,1.89-16.62-1.05-21.53-3.15-.83-.35-3.24-1.46-3.56-2.4-.58-1.71,3.23-5.95.85-11.64l-.25-.59Z"/>
  <path class="cls-8" d="m658.87,830.15c3.41.68,16.88,3.28,19.03,5.3-.04,1.19-.04,2.44-.24,3.61-.19,1.1-1,2.01-1.96,2.53-4.67,2.54-13.3-.98-17.91-2.48,1.35-3.16,1.52-5.61,1.09-8.97Z"/>
  <path class="cls-3" d="m639.25,819.89c20.63,7.21,51.24,8.09,61.98,30.57,2.33,4.87,3.47,10.67,1.58,15.89-1.15,3.19-3.41,5.92-6.54,7.31-9.35,4.16-40.89,9-52.84,11.35-14.02,2.76-32.54,7.45-46.22,8.8-2.73.27-5.71.17-8.27-.89-3.82-1.58-6.6-5.72-8.01-9.45-2.82-7.45-3.65-16.47-5.15-24.3-1.39-7.29-3.3-14.58-4.19-21.95,2.54,1.2,4.54,5.48,6.33,7.79-.07,8.32,3.94,21.16,5.38,29.94l.91,4.37c.66,2.94,1.81,5.68,4.14,7.69,2.06,1.78,4.62,2.63,7.31,2.46,5.56-.34,11.2-1.79,16.66-2.86l27.29-5.36,32.47-6.4c6.46-1.28,13.19-2.29,19.49-4.23,2.34-.72,3.91-1.43,5.5-3.38,2.56-3.12,2.38-6.62,2.07-10.38l-1.8-4.3c-3.17-6.52-8.8-11.14-14.9-14.79l-4.55-2.33c-2.15-2.02-15.62-4.62-19.03-5.3l-5.61-1.64c-4.78-1.16-9.43-2.43-14.1-3.99-.08-1.52.06-3.1.1-4.63Z"/>
  <path class="cls-13" d="m697.35,852.57l1.8,4.3c-24.57,4.51-49.1,9.25-73.59,14.21-13.62,2.68-27.99,4.62-41.35,8.25l-.91-4.37,114.04-22.4Z"/>
  <path class="cls-8" d="m471.82,858.43c1.75,2.18,2.66,6.09,3.17,8.87,4.64,9.81,10.92,17.18,21.44,20.85,8.87,3.02,18.57,2.43,27-1.65,7.57-3.7,12.96-9.78,16.67-17.25l1.73-3.9c12.4,9.9,30.45,20.27,39.04,33.33,4.79,7.28,7.77,16.17,5.86,24.91-.93,4.26-3.04,8.34-6.88,10.65-3.19,1.93-6.3,1.83-9.88,1.57-12.6-.91-27.32-4.94-39.9-7.41-17.91-3.53-36.28-6.36-53.99-10.73-4.86-1.2-8.59-3.09-11.11-7.71-1.43-2.62-1.38-6.15-1.18-9.06.49-7.08,2.57-14.44,3.94-21.41,1.38-7.02,2.3-14.12,4.09-21.05Z"/>
  <path class="cls-8" d="m474.99,867.3c4.64,9.81,10.92,17.18,21.44,20.85,8.87,3.02,18.57,2.43,27-1.65,7.57-3.7,12.96-9.78,16.67-17.25,3.42,3.3,7.23,6.08,11.02,8.93,1.62,1.16,3.27,2.27,4.73,3.62,5.3,3.58,11.03,7.36,15.48,11.98l3.33,4c4.66,5.83,7.16,11.95,8.41,19.27-37.75-8.28-76-15.05-113.94-22.45,2.01-8.88,2.76-18.77,5.86-27.3Z"/>
  <path class="cls-13" d="m551.12,878.18c1.62,1.16,3.27,2.27,4.73,3.62,5.3,3.58,11.03,7.36,15.48,11.98l3.33,4c-1.83,2.75-4.13,4.56-6.8,6.41-.72-.21-1.43-.45-2.14-.7-5.96-2.11-16.72-7.79-19.51-13.69.04-2.05,1-2.81,2.41-4.22,2.62-2.64,2.52-3.84,2.51-7.4Z"/>
  <path class="cls-8" d="m555.86,881.8c5.3,3.58,11.03,7.36,15.48,11.98-.38,1.09-.94,2.45-1.65,3.36-.84,1.08-2.1,1.49-3.43,1.51-5.01.05-11.34-6-14.89-9.09,2.41-2.36,3.45-4.63,4.49-7.76Z"/>
  <path class="cls-3" d="m471.82,858.43c1.75,2.18,2.66,6.09,3.17,8.87-3.1,8.54-3.85,18.42-5.86,27.3l-1.02,3.99c-.47,3.7-.72,7.1,1.7,10.23,1.32,1.71,3.28,3.36,5.37,4.01,12.33,3.83,28.83,5.92,41.83,8.48l33.49,6.6c7.04,1.38,14.17,3.08,21.32,3.76,2.58.24,5.07-.72,7.01-2.41,2.3-2.01,3.41-4.73,4-7.66l.24-4.57c-1.25-7.31-3.75-13.44-8.41-19.27l-3.33-4c-4.44-4.62-10.17-8.4-15.48-11.98-1.47-1.34-3.12-2.46-4.73-3.62-3.78-2.85-7.6-5.63-11.02-8.93l1.73-3.9c12.4,9.9,30.45,20.27,39.04,33.33,4.79,7.28,7.77,16.17,5.86,24.91-.93,4.26-3.04,8.34-6.88,10.65-3.19,1.93-6.3,1.83-9.88,1.57-12.6-.91-27.32-4.94-39.9-7.41-17.91-3.53-36.28-6.36-53.99-10.73-4.86-1.2-8.59-3.09-11.11-7.71-1.43-2.62-1.38-6.15-1.18-9.06.49-7.08,2.57-14.44,3.94-21.41,1.38-7.02,2.3-14.12,4.09-21.05Z"/>
  <path class="cls-13" d="m469.14,894.6c37.94,7.4,76.19,14.16,113.94,22.45l-.24,4.57c-23.94-4.35-47.83-9.66-71.72-14.36-13.42-2.64-30.17-4.74-43-8.67l1.02-3.99Z"/>
  <path class="cls-3" d="m748.69,530.06c7.25,7.62,15.08,15.11,21.8,23.19,2.1,2.52,2.98,6.23,5.38,8.41,6.21,5.65,15.34,7.86,21.31,13.73,2.13,2.1,3.35,4.73,3.35,7.74,0,3.33-1.51,6.69-3.95,8.95-4.11,3.8-10.73,2.71-16.6,7.08-1.58,1.18-2.58,2.05-4.68,1.67-5.45-.99-10.27-4.94-15.08-7.46-8.7,2.79-15.39,3.46-23.72-.81-.58-.3-1.15-.6-1.72-.9,1.14,4.45,1.74,8.32-.6,12.57-1.37,2.48-3.79,4.43-6.58,5.04-3.99.88-7.69-.26-11.01-2.46-.54-1.11-1.07-1.6-1.98-2.4-2.97-7.11-6.1-23.95-5.9-31.66.06-2.18.64-4.12,1.32-6.17-2.18-2.33-4.37-4.55-5.99-7.32l4.18-2.14c11.9-4.85,26.04-16.93,36.86-24.43l3.62-2.64Z"/>
  <path class="cls-6" d="m745.07,532.7c8.01,8.38,17.56,16.85,24.26,26.29-9.22.79-6.9,4.01-11.78,5.64-5.9,1.97-6.29-2.23-12.23,4.75-1.8,2.12-3.03,4.47-2.65,7.32,1.08,7.99,9.86,8.97,11.43,13.47-1.54,1.4-5.43,1.23-7.53,1.11-4.93-.3-9.41-2.95-12.89-6.3-1.18-6.22-1.62-16.8-7.11-20.79-2.43-1.77-5.77-2.11-8.66-1.52-1.05.22-2.07.61-3.07.98l-.66.23c-.13.05-.26.1-.39.15-1.75-1.87-4.82-4.45-5.58-6.92,11.9-4.85,26.04-16.93,36.86-24.43Z"/>
  <path class="cls-6" d="m752.99,568.51c.2,0,.39,0,.59,0,4.69.33,24.22,12.13,27.23,16.12,1.2,1.59,2.02,3.68,1.6,5.68-.59,2.8-2.66,4.28-4.89,5.8-.73-.01-1.45-.02-2.17-.12-4.76-.64-23.57-12.33-26.19-16.11-.97-1.4-1.74-3.38-1.41-5.11.58-3.07,2.8-4.64,5.24-6.27Z"/>
  <path class="cls-6" d="m717.56,566.95c1.45-.12,2.98-.25,4.43-.02,1.29.21,2.87,1.1,3.57,2.22,1.82,2.9,6.78,28.04,5.7,31.22-.78,2.32-2.66,3.28-4.66,4.44-1.14.11-2.32.24-3.46.18-1.83-.1-3.45-1.18-4.47-2.66-2.06-3-6.48-27.42-5.55-30.79.65-2.35,2.48-3.36,4.44-4.58Z"/>
  <path class="cls-6" d="m765.5,563.54c1.27-.11,2.62-.24,3.86.16,5.4,1.73,19.87,10.74,24.33,14.61,1.55,1.35,2.39,2.84,2.44,4.93.07,2.88-2.06,4.98-3.89,6.92-1.49.37-2.78.43-4.32.43l-.66-.68c-1.14-15.59-19.45-14.43-24.52-23.13.44-1.77,1.36-2.12,2.76-3.25Z"/>
  <path class="cls-2" d="m555.19,32.9c7.05-.79,14.81-.18,21.82.74,11.11,1.53,21.99,4.48,32.35,8.77,4.65,1.95,9.11,4.35,13.77,6.24,5.33,2.16,11.1,3.28,16.52,5.25,16.96,6.13,31.77,17.04,42.65,31.42,17.06,22.5,25.64,56.87,21.53,84.95-2.43,16.63-9.78,29.83-23.27,39.86,1.92-4.75,5.02-9.63,3.33-14.74-.3-.91-.14-.99.12-1.88.56-.07,1.12-.14,1.68-.23,1.41-.24,1.79-.18,2.63-1.39-.32-1.47-.23-1.77-1.52-2.65-4.71-3.23-10.8-5.43-15.87-8.19-9.08-4.94-18.01-10.76-26.4-16.81-14.94-10.78-27.53-24.06-35.58-40.79,4.55-7.93,8.51-15.75,11.97-24.22.74-1.83,1.91-3.89,1.13-5.86-.51-1.28-1.02-1.71-2.28-2.11-1.96.98-6.56,13.29-7.92,16.13-16.04,33.55-40.94,57.72-76.2,70.16-5.5-5.34-10.56-8.08-17.74-10.76,5.98-1.64,11.6-3.5,16.56-7.35,5.34-4.13,9.06-9.99,9.88-16.75.81-6.91-1.16-13.87-5.47-19.33-4.11-5.2-10.15-8.54-16.74-9.25-10.08-1.12-18.22,3.81-25.74,9.92,1.6-5.85,2.7-12,1.87-18.08-.89-6.56-4.03-12.69-9.36-16.71-7.11-5.36-15.04-5.55-23.49-4.31,1.71-2.3,3.5-4.54,5.38-6.7,21.99-25.55,50.24-42.74,84.38-45.35Z"/>
  <path class="cls-6" d="m559.91,41.2c19.81-1.72,39.81,3.71,57.87,11.42,2.76,1.18,8.36,3.31,9.25,6.45.37,1.32.2,2.32-.46,3.51-1.89,3.43-5.3,3.61-8.57,2.24-3.78-1.59-7.3-3.82-11.11-5.36-23.02-9.33-45.15-9.97-68.88-3.12-10.22,3.91-19.75,8.56-28.57,15.1-4.68,3.46-12.83,13.77-17.8,14.88-1.38.31-2.74-.02-3.89-.82-1.18-.81-2.04-2.15-2.18-3.58-.17-1.77.79-3.29,1.88-4.59,17.43-20.74,45.84-33.99,72.45-36.12Z"/>
  <path class="cls-6" d="m640.71,61.98c1.2-.03,2.48-.07,3.64.27,3.51,1.04,6.85,3.84,9.69,6.07,12.45,9.78,22.5,21.09,30.12,35.03,8.81,16.13,12.99,33.53,13.95,51.8.2,3.83.8,8.21-.44,11.92-.79,2.37-2.12,3.19-4.28,4.27-.49,0-.97,0-1.46-.03-2.07-.14-4.26-.81-5.26-2.79-2.28-4.54-.63-15.16-1.17-20.63-.64-6.53-1.94-13.26-3.84-19.53-5.55-18.37-16.88-36.41-32.07-48.32-3.78-2.96-9.66-5.07-12.67-8.75-.94-1.15-1.17-2.73-.9-4.15.43-2.33,2.89-3.95,4.69-5.15Z"/>
  <path class="cls-3" d="m575.62,146.34l2.46-.24c1.18.67,1.28.85,1.93,2.05l-.45,1.17c-3.28,2.27-8.1,2.55-11.85,4-5.67,2.19-8.36,5.48-10.69,10.89-.78.4-1.39.48-2.25.62-1.16-.65-1.52-.7-1.8-2.1-.43-2.19,1.71-5.6,2.97-7.21,4.89-6.29,12.14-8.28,19.68-9.18Z"/>
  <path class="cls-3" d="m653.09,151.91c5.63.21,10.42,1.13,15.2,4.26,3.48,2.28,7.66,6.05,8.42,10.31.39,2.19.12,2.95-1.14,4.62-3.24-1.21-3.51-4.05-5.22-6.83-4.39-7.15-9.16-6.24-16.4-8.34-1.44-.42-1.8-.55-2.5-1.89.41-1.26.58-1.32,1.65-2.13Z"/>
  <path class="cls-2" d="m418.01,624.84c8.51.71,85.7,8.26,87.61,6.75,3.95-3.12,35.94-85.65,40.73-97.36,1.65-4.05,5.6-16.04,8.07-18.41l.76.09c.64,1.48.81,2.78.88,4.37.39,8.49-.21,17.2-.17,25.72.14,30.64-.59,61.39.16,92.01,10.29,1.29,20.99,1.04,31.36,1.45,15.28.6,30.64,1.61,45.93,1.72,1.33-14.26,1.12-28.85,1.37-43.17.34-23.3.91-46.59,1.73-69.88,7.25,24.29,14.13,48.7,20.63,73.2,2.38,8.67,7.51,31.94,11.58,38.51,6.8,2.61,21.73.6,29.7,1.04,3.27,12.31,5.92,25.41,10.21,37.39l.94,4.12c.43,2.23,1.24,5.79.71,8.02-.33,1.36-1.35,2.56-2.59,3.17-4.17,2.05-12.71.63-17.54.84-33.01,1.47-66.35.74-99.36-.36-50.39-1.67-101.61-4.87-151.46-12.65-8.65-1.35-21.35-2.26-29.32-5.24-2.34-.88-4.62-2.16-5.62-4.57-1.74-4.17.83-9.34,2.29-13.23l.92-3.09c3.72-10.06,7.16-20.27,10.52-30.45Z"/>
  <path class="cls-2" d="m407.49,655.29c30.55,12.34,94.82,15.68,128.86,17.68,57.34,3.12,114.75,4.9,172.18,5.32l.94,4.12c.43,2.23,1.24,5.79.71,8.02-.33,1.36-1.35,2.56-2.59,3.17-4.17,2.05-12.71.63-17.54.84-33.01,1.47-66.35.74-99.36-.36-50.39-1.67-101.61-4.87-151.46-12.65-8.65-1.35-21.35-2.26-29.32-5.24-2.34-.88-4.62-2.16-5.62-4.57-1.74-4.17.83-9.34,2.29-13.23l.92-3.09Z"/>
  <path class="cls-13" d="m407.49,655.29c30.55,12.34,94.82,15.68,128.86,17.68,57.34,3.12,114.75,4.9,172.18,5.32l.94,4.12c-12.89.53-25.99-.14-38.9-.38-22.45-.35-44.89-.93-67.33-1.74-41.46-1.14-82.87-3.62-124.17-7.44-21.03-2.13-42.81-4.32-63.21-9.96-2.8-.77-7.78-1.82-9.29-4.5l.92-3.09Z"/>
  <path class="cls-6" d="m538.78,181.88c29.3-10.19,49.43-28.17,66.93-53.2,15.73,29.3,46.11,49.7,75.65,63.39-3.25,11.38-4.73,23.4-7.05,35.01-1.47,6.93-5.88,27.78-11.41,31.74-.15.11-.32.18-.47.27l-1.53-.74c-3.69,1.45-7.22,3.41-10.76,5.2l-27.66,13.39c-1.3,2.82-2.61,5.64-3.94,8.45-4.87,1.2-9.83,1.96-14.83,2.29-11.8.78-23.66-.13-35.2-2.71-6.1-1.32-12.94-2.85-18.42-5.84-11.58-6.32-19.57-21.75-27.54-31.83-3.62-4.58-7.92-8.46-12.32-12.26-1.94.45-3.76.6-5.75.46-2.56-.17-5.02-.81-6.68-2.9-3.42-4.29-.57-14.74.18-19.96,2.32,1.65,4.73,3.19,7.33,4.36,6.26,2.83,13.53,3.3,19.98.83,6.29-2.42,11.43-7.53,14.14-13.68,3.35-7.63,2.34-14.74-.64-22.25Z"/>
  <path class="cls-4" d="m650.14,263.54c-1.24-7.67-2.92-13.96.18-21.45,2.56-6.18,7.58-11.68,13.86-14.19,3.16-1.26,6.9-2.2,10.13-.82-1.47,6.93-5.88,27.78-11.41,31.74-.15.11-.32.18-.47.27l-1.53-.74c-3.69,1.45-7.22,3.41-10.76,5.2Z"/>
  <path d="m646.28,178.81c1.63-.04,3.13,0,4.68.56,3.15,1.12,5.62,3.85,7,6.83,2.95,6.37,2.76,15.18.16,21.63-1.96,4.86-4.61,7.52-9.35,9.52-1.38.02-2.72.02-4.05-.41-3.42-1.12-6.07-4.12-7.52-7.33-2.89-6.41-2.85-14.57-.26-21.07,1.91-4.82,4.65-7.67,9.34-9.73Z"/>
  <path d="m571.04,175.59c1.58.13,3.07.32,4.53.98,3.58,1.61,5.89,5.12,7.11,8.72,2.19,6.43,1.64,15.15-1.48,21.2-2.3,4.45-4.97,6.49-9.61,7.99-1.57-.14-2.93-.44-4.35-1.17-3.58-1.85-5.93-5.62-7.12-9.37-2.05-6.45-1.58-14.61,1.64-20.62,2.22-4.16,4.81-6.31,9.29-7.73Z"/>
  <path class="cls-3" d="m592.81,236.6c5.33.93,5.22,9.51,11.63,12.86,3.49,1.83,8.93,1.78,12.59.37,4.07-1.57,5.04-5.59,6.58-9.22.74-1.75,1.66-3.67,3.52-4.41.72.23.69.09,1.14.78,1.18,1.8.79,3.33.55,5.32-.37,1.08-.79,2.14-1.27,3.18-2.09,4.45-5.53,7.74-10.26,9.27-5.34,1.73-11.5.93-16.39-1.76-4.05-2.22-7.52-5.64-8.68-10.21-.64-2.53-.7-3.87.6-6.18Z"/>
  <path class="cls-2" d="m469.54,88.7c5.91-.66,11.91.29,16.71,4,10.74,8.32,9.09,23.47,4.25,34.54-2.07,4.74-7.33,10.22-6.63,15.56.92.51,1.02.72,1.97,0,2.56-1.96,4.61-5.2,6.62-7.71,5.77-7.18,13.27-14.44,22.55-16.58,5.13-1.18,10.29-.22,14.71,2.59,5.22,3.32,9.09,8.59,10.24,14.71,1.03,5.35-.2,10.88-3.39,15.3-6.87,9.68-19.33,12-30.43,12.47-2.94.12-5.96-.52-8.84-.04-1.05.94-.99,1.06-1.25,2.47.43,1.05.42,1.16,1.56,1.53,2.66.86,5.93.92,8.7,1.21,6.58.69,12.96,2.58,18.71,5.92,5.6,3.25,10.26,8.12,11.83,14.57,1.37,5.65-.1,11.21-3.08,16.07-2.93,4.78-7.33,8.44-12.93,9.58-13.62,2.78-25.1-8.89-31.79-19.26-1.79-2.78-3.01-6.88-5.78-8.76-1.39,0-1.33.07-2.36,1.01-.55,3.23,3.23,8.83,4.38,12.06,3.12,8.78,5.05,19.7.82,28.45-2.85,5.89-7.41,8.79-13.42,10.82-2.3.48-4.65.66-6.99.55-5.6-.32-10.86-2.74-14.49-7.09-7.25-8.68-5.75-22.48-1.03-32.01,1.84-3.71,6.37-9.34,6.54-13.45.04-1.03-.19-.99-.81-1.71-.45,0-.91-.14-1.34-.02-1.58.44-8.44,10.11-10.03,11.88-2.43,2.72-5.13,5.17-8.07,7.32-5.54,3.97-12.45,6.29-19.29,5.03-5.3-.98-9.75-4.15-12.78-8.53-3.39-4.9-5.06-11.43-3.78-17.3,2.85-13.03,18.3-17.87,29.86-18.9,3.4-.3,11.56.46,13.95-1.15.17-1.48.18-1.55-.57-2.83-4.29-1.4-9.44-1.2-13.92-2-8.63-1.54-18.36-6.08-23.4-13.52-3-4.43-4.17-9.74-3.04-14.99,1.3-5.93,4.89-11.1,9.99-14.38,4.59-2.91,10.22-3.7,15.49-2.48,13.34,3.08,20.57,16.67,27.39,27.2,1.37.57,1.34.56,2.75.09.48-1.03.6-1.35.32-2.51-.45-1.89-1.69-3.72-2.46-5.51-1.35-3.18-2.47-6.45-3.37-9.79-2.2-8.12-2.86-17.62,1.7-25.08,3.35-5.48,8.21-7.79,14.19-9.3Z"/>
  <path d="m469.99,141.39c4,1.92,12.75,18.23,15.51,22.88-2.71,4.27-12.31,20.34-16.69,21.81-3.56-4.76-15.06-17.59-15.42-22.82-.37-5.32,12.64-17.57,16.6-21.87Z"/>
  <path class="cls-12" d="m469.92,147.87c4.08,4.32,7.35,11.2,10.5,16.28-1.98,2.88-8.8,14.12-11.35,15.11l-11.9-16.57,12.75-14.82Z"/>
  <path class="cls-5" d="m469.95,397.15c21.48,7.84,42.96,14.04,65.81,15.89-10.24,36.11-20.49,72.91-36.41,107.01l-1.76,3.41c-2.5,4.31-6.28,12.1-11.42,13.51-11.57,3.16-42.42-15.67-53.65-21.58-5.47-2.88-11.23-5.29-16.61-8.32-4.65-2.63-8.12-5.5-9.46-10.95-1.35-5.51-.06-10.86,2.83-15.59l1.95-3.02c19.85-26.54,39.4-53.4,58.72-80.34Z"/>
  <path class="cls-5" d="m411.23,477.48c8.74,4.32,17.16,9.36,25.78,13.94,20.3,10.79,40.68,20.81,62.34,28.62l-1.76,3.41c-2.5,4.31-6.28,12.1-11.42,13.51-11.57,3.16-42.42-15.67-53.65-21.58-5.47-2.88-11.23-5.29-16.61-8.32-4.65-2.63-8.12-5.5-9.46-10.95-1.35-5.51-.06-10.86,2.83-15.59l1.95-3.02Z"/>
  <path class="cls-13" d="m411.23,477.48c8.74,4.32,17.16,9.36,25.78,13.94,20.3,10.79,40.68,20.81,62.34,28.62l-1.76,3.41c-6.77-1.37-13.51-4.42-19.84-7.16-10.4-4.52-63.45-30.04-68.47-35.78l1.95-3.02Z"/>
  <path class="cls-5" d="m671.49,422.96c6.42-1.11,12.7-2.69,19.01-4.3,22.69,23.1,44.4,47.39,66.52,71.06l2.84,3.1c3.33,5.1,5.55,10.2,4.29,16.44-.51,2.52-1.47,5-3.27,6.87-5.25,5.45-12.85,9.2-19.07,13.51-9,6.24-17.74,12.98-27.03,18.79-5.61,3.51-18.31,11.21-25.07,9.77-4.19-.89-8.3-6.49-10.81-9.75l-2.08-3.76c-5.73-20.67-11.53-41.39-16.71-62.21l14.52-16.77c-.6-14.24-2.17-28.54-3.15-42.77Z"/>
  <path class="cls-5" d="m757.03,489.73l2.84,3.1c3.33,5.1,5.55,10.2,4.29,16.44-.51,2.52-1.47,5-3.27,6.87-5.25,5.45-12.85,9.2-19.07,13.51-9,6.24-17.74,12.98-27.03,18.79-5.61,3.51-18.31,11.21-25.07,9.77-4.19-.89-8.3-6.49-10.81-9.75l-2.08-3.76c22.32-8.02,60.48-39.39,80.19-54.98Z"/>
  <path class="cls-13" d="m757.03,489.73l2.84,3.1c-13.96,13.29-64.36,49.95-80.95,55.63l-2.08-3.76c22.32-8.02,60.48-39.39,80.19-54.98Z"/>
  <path class="cls-13" d="m667.71,334.95c-.08-3.02-.44-6.37.44-9.27l.76-.48c9.39,7,18.11,15.32,26.96,23.01,12.42,10.78,25.09,21.37,37.3,32.37l3.63,3.25c1.63,1.32,3.38,2.64,4.88,4.1,1.14,1.11,1.61,1.96,1.66,3.57-2.01,4.5-24.43,12.71-29.85,14.79-16.79,6.43-54.94,19.89-71.92,11.9-17.36-8.17-29.64-41.28-35.58-58.68-1.67-4.9-2.88-10.1-4.67-14.92-.92-2.47-1.85-2.54-4.17-3.58l.44-.85c2.88-1.81,7.05-1.44,10.35-1.54l5.01-.39c11.01-.34,22.03-1.15,33.03-1.8,7.17-.42,14.63-.48,21.73-1.49Z"/>
  <path class="cls-13" d="m607.95,338.62l5.01-.39c4.54,15.48,18.52,58.49,33.4,66.56,10.05,5.45,30.49-2.28,40.73-5.65,13.33-4.39,34.11-11.65,46.09-18.56l3.63,3.25c1.63,1.32,3.38,2.64,4.88,4.1,1.14,1.11,1.61,1.96,1.66,3.57-2.01,4.5-24.43,12.71-29.85,14.79-16.79,6.43-54.94,19.89-71.92,11.9-17.36-8.17-29.64-41.28-35.58-58.68-1.67-4.9-2.88-10.1-4.67-14.92-.92-2.47-1.85-2.54-4.17-3.58l.44-.85c2.88-1.81,7.05-1.44,10.35-1.54Z"/>
  <path class="cls-5" d="m607.95,338.62l5.01-.39c4.54,15.48,18.52,58.49,33.4,66.56,10.05,5.45,30.49-2.28,40.73-5.65,13.33-4.39,34.11-11.65,46.09-18.56l3.63,3.25c-17.64,8.69-71.05,31.52-88.9,26.28-10.23-3-16.65-15-21.15-23.8-3.4-6.64-18.95-40.99-16.35-46.76.1-.21.22-.41.33-.62l-2.8-.31Z"/>
  <path class="cls-5" d="m594.93,467.86c4.66-.05,15.88.93,19.48-2.35.12-.11.22-.25.32-.38-.49-1.07-.12-.78-1.22-1.2-5.28-2-64,1.73-72.82,2.09-4.49.18-12.37,1.48-16.51.02.19-2.4,3.35-5.03,5.14-6.55,8.43-7.18,17.77-13.63,26.6-20.33,19.89-15.1,39.97-29.99,59.68-45.32,6.4,11.53,14.23,25.6,27.76,29.57,7.68,2.26,15.99,1.23,23.84.53,1.2,13.35,2.57,26.9,3,40.29l-13.32,15.48c-15.53-2.23-31.05-4.56-46.55-6.97-7.78-1.18-15.84-2.87-23.68-3.42-1.82-.12-4.35-.21-5.99-1.01,4.43-.9,9.79-.65,14.3-.45Z"/>
  <path class="cls-3" d="m586.62,469.32c-1.82-.12-4.35-.21-5.99-1.01,4.43-.9,9.79-.65,14.3-.45-1.75.2-7.37.21-8.28,1.35-.02.03-.02.07-.03.1Z"/>
  <path class="cls-3" d="m591.9,417.69c3.23-.39,6.47.63,8.89,2.81,2.41,2.18,3.77,5.3,3.7,8.55-.1,5.46-4.13,10.06-9.53,10.88-4.01.61-8.03-.98-10.53-4.17s-3.09-7.47-1.54-11.22c1.55-3.74,4.99-6.36,9.01-6.85Z"/>
  <path class="cls-13" d="m591.39,422.13c3.64-1.01,7.41,1.08,8.49,4.69,1.08,3.61-.92,7.43-4.51,8.59-2.39.77-5.02.19-6.86-1.52-1.84-1.71-2.61-4.29-2.02-6.73.6-2.44,2.47-4.37,4.89-5.04Z"/>
  <path class="cls-7" d="m401.62,119.76l1.2-.06.13.82c-.74,1.33-1.46,2.67-2.06,4.08-2.64,6.2-2.86,12.77-.24,19.02,4.05,9.64,12.48,14.19,21.69,17.92-5.7,1.46-10.46,3.61-15.62,6.4-9.15-.78-17.89-1.15-26.61,2.29-16.46,6.5-27.98,20.64-34.74,36.63-5.88,13.91-6.49,29.56-.68,43.62,4.01,9.68,11.38,18.92,20.81,23.77,2.73,1.4,5.79,2.25,8.64,3.42l-2.72.83c-13.34,1.88-27.45,1.02-38.73-7.09-11.29-8.13-17.56-22.19-19.73-35.61-4.09-25.34,4.38-54.78,19.47-75.44,16.54-22.65,41.89-36.22,69.17-40.6Z"/>
  <path class="cls-13" d="m476.16,307.14c5.36,8.54,13.11,12.51,22.07,16.44-.62,5.86-.25,13.02,2.94,18.15,3.19,5.12,7.92,6.94,13.5,8.14.21,1.51.12,3.26,1.47,4.26.93.68,2.14,1.2,3.17,1.72-6.34,7.76-8.12,20.62-8.77,30.27l.16,4.69c.41,5.1,1.43,9.95,2.61,14.9-29.43-6.77-58.04-18.06-85.92-29.55-5.11-2.11-14.1-4.64-17.96-8.61-.8-.82-1.14-1.89-1.03-3.01.26-2.65,3.03-4.47,4.9-6.09l4.22-3.25,58.61-48.06Z"/>
  <path class="cls-13" d="m417.55,355.21c14.44,6.25,30.06,10.9,44.97,15.94,15.57,5.26,31.98,11.53,48.03,14.98l.16,4.69c.41,5.1,1.43,9.95,2.61,14.9-29.43-6.77-58.04-18.06-85.92-29.55-5.11-2.11-14.1-4.64-17.96-8.61-.8-.82-1.14-1.89-1.03-3.01.26-2.65,3.03-4.47,4.9-6.09l4.22-3.25Z"/>
  <path class="cls-5" d="m417.55,355.21c14.44,6.25,30.06,10.9,44.97,15.94,15.57,5.26,31.98,11.53,48.03,14.98l.16,4.69c-32.79-10.11-65.01-20.98-97.38-32.36l4.22-3.25Z"/>
  <path class="cls-6" d="m538.85,695.78c20.36,1.34,40.74,2.31,61.13,2.91,3.77,11.66,6.81,23.63,10.09,35.44l15.68,56.87c-4.94-3.77-9.89-6.1-15.92-7.54-6.32-1.07-12.54-.76-18.61,1.39-10.67,3.78-16.7,11.51-21.45,21.39-10.09-36.88-20.4-73.7-30.92-110.46Z"/>
  <path class="cls-6" d="m534.97,701.74c3.19,5.9,5.86,18.98,7.86,26.05l18.7,67.44c-5.11,15.52-11.29,31.41-17.66,46.47-2.8-8.51-6.53-14.34-13.59-19.93-3.9-2.52-7.72-4.48-12.26-5.59-10.18-2.49-19.55-.07-28.31,5.27,5.71-16.26,12.14-32.32,18.23-48.44l27.03-71.27Z"/>
  <path class="cls-13" d="m504.5,820.56c7.28-.71,14.03.01,20.45,3.73,6.9,4.04,11.89,10.68,13.86,18.42,2.38,9.26-.08,19.65-5.02,27.68-4.79,7.79-11.77,12.16-20.56,14.19-6.99.87-13.59.17-19.85-3.26-7.01-3.89-12.16-10.43-14.28-18.17-2.54-9.15-.3-19.34,4.35-27.44,4.83-8.4,11.86-12.73,21.04-15.16Z"/>
  <path class="cls-13" d="m599.47,788.75c17.05-2.28,32.73,9.64,35.12,26.66,2.38,17.03-9.43,32.79-26.44,35.28-17.17,2.52-33.11-9.42-35.51-26.61-2.41-17.18,9.64-33.04,26.84-35.34Z"/>
  <path class="cls-13" d="m625.67,280.34c10.97-5.68,22.23-11.08,33.44-16.27,1.26,19.85,3.34,39.89,3.67,59.76-2.65,2.51-7.06,3.89-8.02,7.46-7.73,2.06-31.75,2.24-41.32,2.74-1.64.13-3.29.3-4.93.37l-7.85.38c7.8-18.34,16.63-36.34,25.01-54.43Z"/>
  <path class="cls-5" d="m608.52,334.39c5.66-11.42,11.41-22.81,17.24-34.15,3.48-6.86,6.57-16.14,11.79-21.74.86-.92,1.49-1.64,2.75-1.65.44,1.87-.41,4.13-1.1,5.89-2.39,6.15-5.96,12.2-8.96,18.1l-16.79,33.17c-1.64.13-3.29.3-4.93.37Z"/>
  <path class="cls-2" d="m461.42,243.63c8.48,1.15,15.59-.05,22.42-5.42,1.29-1.01,2.9-2.6,4.55-2.9.94-.17.92.04,1.66.51,1.58,5.08.77,12.58,1.08,18.01.31,5.47.99,10.84,1.93,16.23l1.79,7.99c.86,2.89,1.67,5.82,2.61,8.69l2.94,7.12c5.32,11.21,16.58,27.93,28.73,32.44,1.01.38,1.29.35,2.35.2.94-2.42-2.43-6.39-.1-8.01,2.85,1.95,5.43,8.24,6.09,11.57.56,2.83.29,5.65-1.48,8.01-3.82,5.11-11.96,6.05-17.8,6.93l-3.73-.28c-2.41-.49-4.76-1.34-6.64-2.98-4.76-4.12-4.63-10.92-4.87-16.68,3.11.96,7.17,2.92,10.28,1.49.64-1.29.63-1.38.39-2.8-.37-.48-.65-.91-1.23-1.18-2.08-1-4.9-1.48-7.14-2.15-4.43-1.3-8.71-3.05-12.79-5.2-5.34-2.88-11.06-7.1-12.73-13.25-1.56-5.72.71-10.6,3.52-15.4,2.87.56,6.18,1.62,9.02.76.99-1.11.96-1.14,1.03-2.64-.28-.36-.5-.78-.84-1.08-1.33-1.17-6.31-1.68-8.17-2.07-6.54-1.4-12.99-3.04-18.91-6.24-4.21-2.28-8.2-5.43-9.5-10.26-2.03-7.54,1.85-15.09,5.53-21.4Z"/>
  <path class="cls-6" d="m494.85,278.05l-.29,1.22c-.78.64-1.37,1.08-2.39,1.21-7.16.97-18.26-4.31-23.75-8.62-3.46-2.71-7.2-6.86-7.56-11.42-.35-4.5,1.38-11.07,4.53-14.37,1.08-1.13,2.57-2.1,4.22-1.85,2.18.33,3.65,2.28,4.87,3.92.45,2.53-1.58,5.58-2.12,8.1-.42,1.94-.12,3.75.99,5.41,3.47,5.23,13.97,7.24,19.71,8.39l1.79,7.99Z"/>
  <path class="cls-6" d="m500.4,293.86c-1.29,2.43-3.27,5.17-2.65,8.04,1.17,5.42,8.05,5.98,11.82,8.78,1.25.93,1.33,1.62,1.5,3.09-.68,1.69-1.66,3.61-3.43,4.38-2.65,1.15-5.89.18-8.35-.98-4.79-2.26-9.32-6.6-11.04-11.65-1.31-3.82-1.06-8.56.86-12.14,1.91-3.57,4.53-5.56,8.35-6.65l2.94,7.12Z"/>
  <path class="cls-6" d="m514.47,344.72c-3.62-3.02-7.12-5.87-7.63-10.92-.2-1.99.31-3.37,1.43-4.98,1.16-.7,2.04-1.36,3.49-.93,1.32.38,2.39,1.34,2.92,2.6.53,1.26.79,2.77,1.1,4.1,2.04.86,4.41,1.55,5.31,3.78.45,1.11.58,2.06.04,3.16-.63,1.27-1.73,2.71-2.93,3.47l-3.73-.28Z"/>
  <path class="cls-2" d="m514.67,349.87c8.92.29,17.16-1.39,24.02-7.28,1.63.83,2.45,1.36,3.44,2.91.22,1.67.18,2.79-1,4.14-1.03,1.19-2.67,1.85-4.06,2.52l.67.55c-.38,8.04,3.77,17.24,9.17,23.1,6.09,6.61,15.7,9.3,24.44,9.7.04,4.07.19,7.27-2.79,10.45-3.61,3.86-9.03,4.23-13.62,6.23-1.47.64-2.88,1.72-4.36,2.27-4.04,2.24-7.91,3.2-12.44,3.96-7.36.89-12.24.43-19.28-1.85-4.03-13.13-4.42-25.68.05-38.79,1.01-2.97,2.94-5.58,3.88-8.54.51-1.61.03-2.15-.78-3.45l-2.71.05c-1.03-.51-2.25-1.03-3.17-1.72-1.35-1-1.26-2.75-1.47-4.26Z"/>
  <path class="cls-8" d="m514.67,349.87c8.92.29,17.16-1.39,24.02-7.28,1.63.83,2.45,1.36,3.44,2.91.22,1.67.18,2.79-1,4.14-1.03,1.19-2.67,1.85-4.06,2.52-4.59,1.89-9.06,2.54-13.93,3.28-.73.11-.45.04-1.12.35l-2.71.05c-1.03-.51-2.25-1.03-3.17-1.72-1.35-1-1.26-2.75-1.47-4.26Z"/>
  <path d="m538.74,403.78c-1.01-.57-1.97-1.21-2.88-1.93-2.56-2.04-4.86-5.42-4.96-8.81-.04-1.3.47-1.99,1.29-2.91,3.02.36,5.99,6.4,8.03,8.75,1.32.66,2.07.8,3.56.76,1.37-.03,2.46.04,3.8.29,1.41,1.36,1.36,2.02,1.79,3.89l1.23.63c-4.04,2.24-7.91,3.2-12.44,3.96l-1.57-.64c-.15-1.64,1.17-2.73,2.15-4.01Z"/>
  <path class="cls-13" d="m549.36,403.83l1.23.63c-4.04,2.24-7.91,3.2-12.44,3.96l-1.57-.64c-.15-1.64,1.17-2.73,2.15-4.01,3.71,1.21,6.93,1.28,10.63.05Z"/>
  <path d="m547.62,387.35c1.26.05,2.35.1,3.49.65,1.39.68,2.82,1.14,4.26,1.69,2.36.9,4.83,1.51,5.9,3.9l-.84,2.12c-.95.14-1.92.18-2.88.15-3.14-.1-6.78-1.27-8.85-3.76-1.36-1.64-1.27-2.78-1.08-4.75Z"/>
  <path class="cls-13" d="m542.21,327.34c11.51,2.38,22.97,5.07,34.45,7.6l4.18.8c4.42,1.05,8.99,1.91,13.33,3.24-4.38,11.73-13.11,34.81-21.6,43.66-.5-.56-1.24-1.68-1.83-2.07-1.34-.87-8.54-1.5-10.82-2.25l-4.09-1.58c-9.22-5.85-10.09-14.37-14.05-23.57-1.44-.79-2.41-.51-4.04-.44l-.67-.55c1.39-.67,3.03-1.33,4.06-2.52,1.17-1.35,1.22-2.47,1-4.14-.99-1.56-1.81-2.08-3.44-2.91.59-.6,1.18-1.21,1.69-1.89,2.94-3.95,2.51-8.8,1.84-13.37Z"/>
  <path class="cls-13" d="m576.66,334.94l4.18.8c4.42,1.05,8.99,1.91,13.33,3.24-4.38,11.73-13.11,34.81-21.6,43.66-.5-.56-1.24-1.68-1.83-2.07-1.34-.87-8.54-1.5-10.82-2.25l-4.09-1.58c9.09-11.97,15.03-27.99,20.83-41.79Z"/>
  <path class="cls-5" d="m576.66,334.94l4.18.8c-5.74,14.79-12.44,29.15-20.92,42.58l-4.09-1.58c9.09-11.97,15.03-27.99,20.83-41.79Z"/>
  <path class="cls-7" d="m605.43,371.34c2.32,3.19,6.05,13.97,8.29,18.58l-80.58,61-5.58,4.22c3.39-10.34,6.3-20.87,9.43-31.29,6.52-6.47,15.14-11.98,22.48-17.53,15.41-11.55,30.73-23.21,45.97-34.98Z"/>
  <path class="cls-2" d="m500.4,236.09l.61-.19c1.8.31,3.23.63,4.68,1.81,7.85,6.41,18.9,16.79,19.75,27.49,1.06,13.34-11.27,14.07-16.52,20.28-.1,1.38.03,1.6.67,2.85l1.49.45c4.34-.71,8.24-4.02,11.78-6.49,5.77,4.44,9.44,9.16,10.69,16.45-.08,8-3.54,13.06-8.27,19.19-6.29-5.21-11.65-11.01-15.89-18.01-9.17-15.11-12.42-32.31-13.47-49.69-.24-3.9-.82-8.41.12-12.2,1.29-.34,2.48-.65,3.6-1.39.26-.17.52-.35.77-.53Z"/>
  <path class="cls-7" d="m684.56,574.23l51.35,64.25c7.22,9.01,18.39,21.1,24.21,30.44.88,1.4,1.5,2.91,1.29,4.6-.17,1.37-.9,2.5-1.99,3.32-1.09.81-1.87,1.28-3.28,1.03-1.93-.35-3.84-1.96-5.25-3.27-9.25-8.64-17.59-19.29-26.15-28.66-7.29-7.97-23.98-24.18-28.89-32.46-.91-1.53-1.39-3.2-1.83-4.91-1.3-3.09-1.84-6.87-2.64-10.15-2.15-8.09-4.42-16.15-6.82-24.18Z"/>
  <path class="cls-14" d="m691.38,598.41c14.56,15.65,28.53,31.91,42.77,47.85,5.7,6.38,20.1,20.77,23.39,27.22-.23,1.19-.04,1.32-1,2.16-2.76-.16-4.89-2.92-6.62-4.86-6.23-6.99-52.32-60.53-55.9-62.23-1.3-3.09-1.84-6.87-2.64-10.15Z"/>
  <path class="cls-13" d="m530.88,266.4l36.7,41.06c7.64,8.54,16,16.93,22.86,26.1l-13.55-2.92c-2.93-.58-5.81-1.28-8.71-2.01-9.3-1.91-18.57-3.97-27.8-6.16-1.69-3.12-3.67-6.01-5.66-8.93,3.47-6.42,4.29-11.91,3.22-19.08-.77-2.21-1.57-4.36-2.87-6.33-1.68-2.54-8.11-8.44-8.38-10.41l1.28-1.63c1.46-3.18,2.29-6.25,2.91-9.68Z"/>
  <path class="cls-13" d="m537.94,294.46c5.06,4.28,27.07,28.8,30.24,34.18-9.3-1.91-18.57-3.97-27.8-6.16-1.69-3.12-3.67-6.01-5.66-8.93,3.47-6.42,4.29-11.91,3.22-19.08Z"/>
  <path class="cls-5" d="m527.97,276.08c9.42,11.55,19.73,22.46,29.69,33.55,6.26,6.97,12.31,14.7,19.23,21.01-2.93-.58-5.81-1.28-8.71-2.01-3.17-5.37-25.18-29.89-30.24-34.18-.77-2.21-1.57-4.36-2.87-6.33-1.68-2.54-8.11-8.44-8.38-10.41l1.28-1.63Z"/>
  <path class="cls-1" d="m554.6,286.59c5.25.89,10.49,2.72,15.73,3.82,13.18,2.75,25.95,2.94,39.32,1.89-.02,3.55.11,6.85.74,10.34-.94,2.43-2.06,4.8-3.13,7.19-.32.89-.75,1.53-1.31,2.3-5.24,2.1-22.14-.1-28.6-.48-7.88-8.01-15.06-16.84-22.75-25.06Z"/>
  <path class="cls-5" d="m596.49,344.72c3.3,6.78,5.09,15.16,7.55,22.38-9,6.75-17.95,13.56-26.86,20.42l-6.31,4.78c11.29-13.58,20.02-30.89,25.62-47.57Z"/>
  <path class="cls-2" d="m424.82,318.37c.64-.05,1.27-.05,1.91,0,7.03.5,11.74,5.57,16.05,10.54l-10.12,8.26c-1.53,1.27-3.15,2.4-4.75,3.56-4.2-2.31-8.09-5.03-10.1-9.58-.99-2.25-1.24-4.88-.15-7.15,1.47-3.07,4.17-4.45,7.17-5.62Z"/>
  <path class="cls-10" d="m458.29,276.62c2.62,2.13,5.46,3.65,8.43,5.24-5.12,5.05-8.9,11.08-12.7,17.13-1.05.45-2.11.94-3.1,1.5-5.76,3.3-7.1,9.29-8.59,15.21-.33,1.4-.59,2.57-1.39,3.8-1.93.09-3.45-1.7-4.97-2.86,4.84-14.7,11.14-29,22.32-40.03Z"/>
  <path class="cls-6" d="m687.4,211.37c.87.2,1.38.41,2.07,1,2.45,2.12,3.64,4.77,3.96,7.97.67,6.65-1.34,14.24-5.52,19.47-.78.72-1.59,1.27-2.47,1.87l-.49-.32c-1-8.8-1.1-17.68-2.4-26.45l4.84-3.53Z"/>
  <path class="cls-2" d="m456.36,302.91c.9.05,1.81.13,2.7.26,3.7.58,5.62,3.14,7.62,5.99-4.45,3.99-9.26,7.68-13.89,11.47l-4.77,4.07c-.83-5.18-1.62-11.2.94-16.05,1.69-3.2,4.06-4.68,7.4-5.75Z"/>
  <path class="cls-5" d="m579.79,314.84c8.18.49,16.37.91,24.55,1.27l-4.93,10.66-2.97,6.45c-5.64-6.04-11.06-12.3-16.66-18.38Z"/>
  <path class="cls-5" d="m393.86,277.51c3.53,1.23,7.02,2.58,10.52,3.89.69,3.66,1.26,7.26,1.63,10.97l-10.96-3.91-1.19-10.95Z"/>
  <path class="cls-10" d="m451.2,267.42c1.1,1.87,2.23,3.72,3.39,5.56-5.83,3.8-10.93,8.14-16.01,12.86-.84.87-.35.59-1.45.89-.07-.68-.11-.74,0-1.53.94-6.96,8.9-13.81,14.08-17.79Z"/>
  <path class="cls-7" d="m450.89,238.49l5.26,3.43c-2.11,4.09-3.67,7.78-4.79,12.27-.53,2.15-.78,7.61-2.12,9.24-.53.65-1.75,1.32-2.44,1.85l-3.12,2.34c3.92-9.27,6.35-19.11,7.2-29.14Z"/>
  <path class="cls-10" d="m469.99,284.59c.44,3.87-.3,8.37-.28,12.35-3.28.51-6.56,1.41-9.8,2.15,0-.05-.02-.1-.02-.15-.06-3.93,7.45-11.53,10.09-14.35Z"/>
  <path class="cls-10" d="m444,286.83l.35.29c-4.02,6.37-6.87,13.18-9.81,20.08l-.4-.47c-.06-3.51.17-6.76.68-10.23,2.68-3.57,5.94-6.61,9.18-9.66Z"/>
  <path class="cls-6" d="m678.98,230.68c.77,3.07,1.85,10.65.24,13.35-.45.76-2.09,1.02-2.93,1.29l-.72-1.22c.8-4.55,2.17-8.98,3.41-13.42Z"/>
  <path d="m474.48,284.65c1.22.28,1.81.14,2.57,1.2-.19,2.89-1.73,5.55-2.34,8.44l-.14.66-.22,1.15c-1.23-2.75-.2-8.43.12-11.44Z"/>
  <path class="cls-11" d="m445.44,388.11c3.17.76,6.25,2.12,9.29,3.3-4.05.18-6.2-.7-9.29-3.3Z"/>
  <path class="cls-9" d="m533.8,212.56c.09,1.43-.22,2.79.86,3.79,9.65,1.34,17.45,2.3,23.77,10.63,4.12,5.43,5.72,12.42,4.76,19.13-.9,6.27-4.5,12.99-9.73,16.71-4.02,2.86-10.32,3.34-13.68,6.34-2.94-3.09-6.05-6.19-8.54-9.66-3.06-4.27-5.67-9.1-9.05-13.12-3-3.57-7.57-6.33-10.1-10.18-1.68-.88-3.41-.42-5.23-.58-2.7-.24-8.06-.56-9.84-2.77-1.95-5.02.34-14.59,1.12-19.98,7.3,5.13,12.95,6.82,21.85,6.81,5.54-1.43,9.46-3.37,13.81-7.11Z"/>
</svg>