<?xml version="1.0" encoding="UTF-8"?>
<svg width="200" height="200" viewBox="0 0 200 200" xmlns="http://www.w3.org/2000/svg">
  <defs>
    <radialGradient id="blueGlow" cx="50%" cy="50%" r="50%">
      <stop offset="0%" style="stop-color:#87CEEB;stop-opacity:1" />
      <stop offset="40%" style="stop-color:#4682B4;stop-opacity:0.8" />
      <stop offset="70%" style="stop-color:#1E90FF;stop-opacity:0.5" />
      <stop offset="100%" style="stop-color:#000080;stop-opacity:0" />
    </radialGradient>
    <filter id="blur4">
      <feGaussianBlur in="SourceGraphic" stdDeviation="3" />
    </filter>
  </defs>
  
  <!-- Shield shape -->
  <path d="M 100,30 L 150,60 L 150,120 Q 150,160 100,170 Q 50,160 50,120 L 50,60 Z" 
        fill="url(#blueGlow)" opacity="0.7" filter="url(#blur4)"/>
  
  <!-- Shield detail -->
  <path d="M 100,40 L 140,65 L 140,115 Q 140,145 100,155 Q 60,145 60,115 L 60,65 Z" 
        fill="none" stroke="#ADD8E6" stroke-width="2" opacity="0.9"/>
  
  <!-- Energy waves -->
  <g opacity="0.6">
    <circle cx="100" cy="100" r="50" fill="none" stroke="#87CEEB" stroke-width="2"/>
    <circle cx="100" cy="100" r="60" fill="none" stroke="#4682B4" stroke-width="1.5"/>
    <circle cx="100" cy="100" r="70" fill="none" stroke="#1E90FF" stroke-width="1"/>
  </g>
  
  <!-- Sparkles -->
  <g opacity="0.9">
    <circle cx="100" cy="50" r="2.5" fill="#FFFFFF"/>
    <circle cx="130" cy="70" r="2" fill="#ADD8E6"/>
    <circle cx="140" cy="100" r="2.5" fill="#87CEEB"/>
    <circle cx="130" cy="130" r="2" fill="#4682B4"/>
    <circle cx="70" cy="70" r="2" fill="#ADD8E6"/>
    <circle cx="60" cy="100" r="2.5" fill="#87CEEB"/>
    <circle cx="70" cy="130" r="2" fill="#4682B4"/>
  </g>
  
  <!-- Core energy -->
  <circle cx="100" cy="100" r="20" fill="#4682B4" opacity="0.8"/>
  <circle cx="100" cy="100" r="10" fill="#87CEEB"/>
</svg>
