<?xml version="1.0" encoding="UTF-8"?>
<svg width="200" height="200" viewBox="0 0 200 200" xmlns="http://www.w3.org/2000/svg">
  <defs>
    <radialGradient id="healGlow" cx="50%" cy="50%" r="50%">
      <stop offset="0%" style="stop-color:#FFFFFF;stop-opacity:1" />
      <stop offset="30%" style="stop-color:#F0E68C;stop-opacity:0.9" />
      <stop offset="60%" style="stop-color:#FFD700;stop-opacity:0.6" />
      <stop offset="100%" style="stop-color:#FFA500;stop-opacity:0" />
    </radialGradient>
    <filter id="blur6">
      <feGaussianBlur in="SourceGraphic" stdDeviation="2" />
    </filter>
  </defs>
  
  <!-- Soft outer glow -->
  <circle cx="100" cy="100" r="80" fill="url(#healGlow)" opacity="0.6" filter="url(#blur6)"/>
  
  <!-- Cross pattern -->
  <g opacity="0.8">
    <rect x="95" y="50" width="10" height="100" fill="#FFFACD" rx="5"/>
    <rect x="50" y="95" width="100" height="10" fill="#FFFACD" rx="5"/>
  </g>
  
  <!-- Floating sparkles -->
  <g>
    <polygon points="50,50 52,55 57,55 53,58 55,63 50,59 45,63 47,58 43,55 48,55" fill="#FFFFFF" opacity="0.9"/>
    <polygon points="150,50 152,55 157,55 153,58 155,63 150,59 145,63 147,58 143,55 148,55" fill="#FFFFFF" opacity="0.9"/>
    <polygon points="50,150 52,155 57,155 53,158 55,163 50,159 45,163 47,158 43,155 48,155" fill="#FFFFFF" opacity="0.9"/>
    <polygon points="150,150 152,155 157,155 153,158 155,163 150,159 145,163 147,158 143,155 148,155" fill="#FFFFFF" opacity="0.9"/>
    
    <circle cx="75" cy="75" r="3" fill="#FFFACD" opacity="0.95"/>
    <circle cx="125" cy="75" r="3" fill="#F0E68C" opacity="0.95"/>
    <circle cx="75" cy="125" r="3" fill="#FFD700" opacity="0.95"/>
    <circle cx="125" cy="125" r="3" fill="#F0E68C" opacity="0.95"/>
  </g>
  
  <!-- Inner glow -->
  <circle cx="100" cy="100" r="35" fill="#FFFACD" opacity="0.8"/>
  <circle cx="100" cy="100" r="20" fill="#FFFFFF" opacity="0.9"/>
  
  <!-- Center star -->
  <polygon points="100,90 102,96 108,96 103,100 105,106 100,102 95,106 97,100 92,96 98,96" fill="#FFD700"/>
</svg>
