<?xml version="1.0" encoding="UTF-8"?>
<svg width="200" height="200" viewBox="0 0 200 200" xmlns="http://www.w3.org/2000/svg">
  <defs>
    <radialGradient id="redGlow" cx="50%" cy="50%" r="50%">
      <stop offset="0%" style="stop-color:#FF6B6B;stop-opacity:1" />
      <stop offset="40%" style="stop-color:#DC143C;stop-opacity:0.8" />
      <stop offset="70%" style="stop-color:#8B0000;stop-opacity:0.5" />
      <stop offset="100%" style="stop-color:#4A0000;stop-opacity:0" />
    </radialGradient>
    <filter id="blur5">
      <feGaussianBlur in="SourceGraphic" stdDeviation="4" />
    </filter>
  </defs>
  
  <!-- Danger aura -->
  <circle cx="100" cy="100" r="85" fill="url(#redGlow)" opacity="0.7" filter="url(#blur5)"/>
  
  <!-- Pulsing rings -->
  <g opacity="0.6">
    <circle cx="100" cy="100" r="70" fill="none" stroke="#FF0000" stroke-width="3"/>
    <circle cx="100" cy="100" r="55" fill="none" stroke="#DC143C" stroke-width="2"/>
    <circle cx="100" cy="100" r="40" fill="none" stroke="#8B0000" stroke-width="2"/>
  </g>
  
  <!-- Lightning bolts -->
  <g opacity="0.8" stroke="#FF4500" stroke-width="2" fill="none">
    <path d="M 100,60 L 95,75 L 100,75 L 95,90"/>
    <path d="M 130,80 L 125,92 L 130,92 L 125,104"/>
    <path d="M 70,80 L 65,92 L 70,92 L 65,104"/>
    <path d="M 100,140 L 105,125 L 100,125 L 105,110"/>
  </g>
  
  <!-- Warning particles -->
  <g opacity="0.9">
    <circle cx="100" cy="50" r="3" fill="#FF6347"/>
    <circle cx="150" cy="80" r="2.5" fill="#FF0000"/>
    <circle cx="140" cy="120" r="2" fill="#DC143C"/>
    <circle cx="50" cy="80" r="2.5" fill="#FF4500"/>
    <circle cx="60" cy="120" r="2" fill="#8B0000"/>
    <circle cx="100" cy="150" r="3" fill="#FF1493"/>
  </g>
  
  <!-- Core -->
  <circle cx="100" cy="100" r="30" fill="#DC143C" opacity="0.9"/>
  <circle cx="100" cy="100" r="18" fill="#FF0000" opacity="0.85"/>
  <circle cx="100" cy="100" r="8" fill="#FF6347"/>
</svg>
