<svg width="257" height="256" viewBox="0 0 257 256" fill="none" xmlns="http://www.w3.org/2000/svg">
<path d="M233.924 141.41C235.229 140.064 236.92 138.878 238.614 138.075C236.536 142.958 233.687 148.34 230.1 152.279C229.848 152.497 229.615 152.709 229.317 152.865C229.096 153.036 229.217 153.007 228.962 152.981C228.579 152.416 228.411 151.687 228.198 151.043C227.826 150.578 227.49 150.237 227.009 149.885C227.637 149.404 228.106 148.906 228.606 148.301L228.622 148.089C230.674 146.088 231.548 143.154 233.924 141.41Z" fill="#85AE44"/>
<path d="M228.622 148.089C230.674 146.088 231.548 143.155 233.924 141.411C233.414 143.04 232.522 144.659 231.83 146.228C231.213 147.627 230.553 149.026 230.04 150.467C229.757 151.258 229.577 152.071 229.317 152.865C229.096 153.037 229.217 153.007 228.962 152.981C228.579 152.416 228.411 151.687 228.198 151.043C227.826 150.578 227.49 150.237 227.009 149.885C227.637 149.404 228.106 148.907 228.606 148.301L228.622 148.089Z" fill="#B4DC56"/>
<path d="M228.606 148.301C228.544 149.223 228.321 150.128 228.198 151.043C227.826 150.578 227.49 150.237 227.009 149.885C227.637 149.404 228.106 148.906 228.606 148.301Z" fill="#FEFEFE"/>
<path d="M25.7963 147.503C25.1344 147.342 24.4994 147.118 23.9636 146.683C23.3871 146.215 22.9839 145.566 22.9105 144.819C22.8492 144.195 22.9768 143.518 23.3913 143.029C23.747 142.61 24.2435 142.375 24.7886 142.329C27.7053 142.082 30.3257 145.696 32.2688 147.377L32.5482 147.32C33.2417 148.263 33.8049 149.279 34.4773 150.228C34.7733 150.806 35.0841 151.377 35.326 151.98C34.9906 152.471 34.6721 152.886 34.2294 153.292C34.0442 153.3 34.1049 153.332 34.0236 153.274C33.1401 153.219 32.7388 152.127 32.0242 151.633C29.9923 150.134 27.9711 148.786 25.7963 147.503Z" fill="#CAF263"/>
<path d="M25.7964 147.503C27.4613 147.155 28.9598 147.274 30.4262 148.236C32.2573 149.439 33.4024 151.196 34.0237 153.274C33.1402 153.219 32.7389 152.127 32.0243 151.633C29.9924 150.134 27.9712 148.786 25.7964 147.503Z" fill="#759E44"/>
<path d="M242.069 99.1726C242.877 100.881 243.473 102.665 242.88 104.557C242.624 104.666 242.713 104.581 242.6 104.768C241.823 106.048 240.895 107.237 240.068 108.485C238.368 111.048 232.873 120.019 229.962 120.651C229.223 120.812 228.487 120.776 227.792 121.124C225.645 122.205 221.928 128.028 221.103 128.287C223.737 121.571 228.797 116.681 233.818 111.731C235.588 109.986 237.494 108.24 238.917 106.192C240.537 103.864 240.854 101.741 241.999 99.3195L242.069 99.1726Z" fill="#85AE44"/>
<path d="M223.224 130.731C223.233 130.735 223.243 130.742 223.252 130.742C223.511 130.738 223.456 130.674 223.572 130.476C224.929 128.155 226.506 125.863 228.541 124.083C229.899 122.896 233.046 121.144 234.808 121.255C232.088 125.909 228.559 130.845 225.493 135.336C224.483 136.815 222.634 139.065 221.928 140.56C220.668 142.796 219.106 144.858 217.736 147.026C216.358 149.211 215.14 151.517 213.714 153.668C213.532 153.943 213.358 154.182 213.073 154.357C212.9 154.34 212.803 154.378 212.683 154.232C212.358 153.835 212.31 153.017 212.396 152.533C212.544 151.694 212.848 150.723 213.147 149.923C213.476 148.904 214.164 148.05 214.545 147.053C215.298 145.085 215.651 142.78 216.71 140.963C217.785 139.119 219.269 137.431 220.488 135.672C221.566 134.115 222.383 132.423 223.224 130.731Z" fill="#85AE44"/>
<path d="M225.72 142.774C227.458 141.214 229.171 139.632 231.072 138.267C230.67 138.974 230.247 139.669 229.801 140.349C229.151 141.475 228.35 143.721 227.548 144.569C228.1 145.637 228.422 146.496 228.568 147.689C228.584 147.823 228.604 147.955 228.621 148.089L228.606 148.301C228.106 148.907 227.637 149.404 227.009 149.885C225.744 150.63 224.194 151.216 223.02 152.06C222.297 152.581 221.894 153.432 221.206 153.98C219.797 155.103 210.992 160.591 209.577 160.35C209.204 159.632 210.73 155.128 211.038 154.15C211.351 153.161 212.146 150.551 212.723 149.859C212.927 149.85 212.954 149.83 213.147 149.923C212.847 150.723 212.544 151.694 212.396 152.533C212.31 153.017 212.358 153.835 212.683 154.232C212.802 154.378 212.9 154.34 213.073 154.357C213.358 154.182 213.532 153.943 213.713 153.668C215.14 151.517 216.358 149.211 217.736 147.026C219.105 144.858 220.668 142.796 221.927 140.56C223.259 141.209 224.491 141.951 225.72 142.774Z" fill="#7EA64E"/>
<path d="M225.995 144.163C225.353 144.625 224.301 145.782 223.596 145.95C223.946 145.293 228.46 141.808 229.446 140.448C229.475 140.409 229.501 140.369 229.528 140.329L229.802 140.349C229.151 141.474 228.35 143.721 227.548 144.569L227.431 144.577C227.285 144.799 227.188 144.826 226.958 144.942C226.548 144.826 226.292 144.462 225.995 144.163Z" fill="#90BA49"/>
<path d="M221.103 128.287C221.928 128.028 225.645 122.205 227.792 121.124C228.487 120.776 229.223 120.812 229.962 120.651C232.873 120.019 238.368 111.048 240.068 108.485C240.895 107.237 241.824 106.048 242.6 104.768C242.713 104.581 242.624 104.666 242.88 104.557C242.177 108.933 237.312 117.65 234.809 121.256C233.046 121.144 229.899 122.896 228.541 124.084C226.506 125.863 224.929 128.156 223.572 130.477C223.456 130.674 223.511 130.738 223.252 130.742C223.243 130.742 223.233 130.735 223.224 130.731C223.405 130.103 223.589 129.477 223.743 128.84C220.948 131.689 217.713 134.102 215.351 137.359C214.663 138.306 214.266 139.406 213.762 140.455C212.728 142.609 211.715 144.835 210.581 146.932C209.354 149.201 207.914 151.363 206.157 153.259C205.002 154.504 203.713 155.658 202.604 156.941C201.899 157.756 201.457 159.399 200.346 159.614C199.769 159.473 199.359 159.121 198.912 158.745L198.801 158.795C198.622 158.873 198.688 158.845 198.475 158.918C198.249 157.54 199.224 155.356 199.084 153.909C199.885 148.129 201.506 142.666 203.674 137.245C204.149 136.058 204.631 134.85 205.171 133.69C205.509 132.967 206.072 132.254 206.276 131.486L206.072 131.242C206.253 131.09 206.379 131.022 206.606 130.954C207.154 130.049 207.497 128.973 207.997 128.031C209.453 125.28 211.863 123.731 214.393 122.06C217.153 120.609 222.079 117.753 225.082 117.328C225.039 117.617 224.795 117.759 224.59 117.959C221.258 121.509 217.363 124.579 214.691 128.716C214.616 129.766 214.184 131.028 213.554 131.878C214.425 132.123 215.336 132.333 216.17 132.686C217.439 132.122 218.691 131.291 219.922 130.628C220.382 129.907 220.726 129.058 221.103 128.287Z" fill="#759E44"/>
<path d="M210.245 136.902C210.252 137.605 210.098 138.343 209.703 138.939C209.318 139.343 209.24 139.752 209.117 140.283L208.816 140.06C208.969 139.141 209.545 138.361 209.713 137.46L210.245 136.902Z" fill="#90BA49"/>
<path d="M208.816 140.06L209.117 140.282C208.946 141.995 208.621 143.534 208.134 145.178C208.127 143.674 208.342 141.5 208.816 140.06Z" fill="#9BC74E"/>
<path d="M212.736 131.784C212.99 131.803 213.319 131.787 213.554 131.878C214.424 132.123 215.335 132.333 216.17 132.686C213.435 134.989 212.215 136.68 210.622 139.865C210.14 140.829 209.697 141.828 209.128 142.745C209.223 141.484 209.384 140.164 209.703 138.939C210.098 138.343 210.252 137.605 210.244 136.901C211.177 135.224 211.639 133.393 212.736 131.784Z" fill="#9BC74E"/>
<path d="M214.392 122.06C217.153 120.609 222.079 117.753 225.081 117.328C225.039 117.617 224.795 117.759 224.59 117.959C221.258 121.509 217.363 124.579 214.691 128.716C214.616 129.766 214.184 131.027 213.554 131.878C213.319 131.787 212.99 131.803 212.736 131.784C211.639 133.393 211.177 135.224 210.245 136.901L209.713 137.459L209.589 137.527C208.464 139.373 206.317 144.865 205.727 146.984C205.925 147.182 206.099 147.343 206.205 147.608C206.304 147.859 206.218 148.209 206.075 148.43C205.894 148.711 205.61 148.908 205.284 148.98C204.977 149.048 204.66 148.999 204.412 148.792C204.002 148.449 203.942 147.888 203.984 147.39C204.051 146.605 204.379 145.8 204.586 145.042C205.427 141.973 206.298 138.824 207.515 135.883C207.992 134.727 210.374 129.873 210.371 129.093C209.007 129.51 207.954 130.503 206.606 130.954C207.154 130.049 207.497 128.973 207.997 128.031C209.453 125.28 211.863 123.73 214.392 122.06Z" fill="#85AE44"/>
<path d="M212.736 131.784C213.317 130.704 213.934 129.684 214.691 128.716C214.617 129.765 214.184 131.027 213.554 131.878C213.319 131.786 212.99 131.803 212.736 131.784Z" fill="#D5F3F9"/>
<path d="M214.392 122.06C217.153 120.609 222.079 117.753 225.081 117.328C225.039 117.617 224.795 117.759 224.59 117.959C223.893 118.003 222.567 119.264 221.939 119.707C218.34 122.251 214.38 124.672 211.437 127.997C211.12 128.356 210.786 128.866 210.371 129.093C209.006 129.51 207.954 130.503 206.606 130.954C207.153 130.049 207.497 128.973 207.997 128.031C209.453 125.28 211.863 123.73 214.392 122.06Z" fill="#B4DC56"/>
<path d="M199.084 153.909C199.224 155.356 198.249 157.54 198.475 158.918C198.688 158.845 198.622 158.873 198.801 158.795L198.912 158.745C199.359 159.121 199.769 159.473 200.346 159.614C201.457 159.399 201.899 157.756 202.604 156.941C203.713 155.658 205.002 154.504 206.157 153.258C207.914 151.363 209.354 149.201 210.581 146.932C211.715 144.835 212.728 142.609 213.762 140.455C214.266 139.406 214.663 138.305 215.351 137.359C217.713 134.102 220.948 131.689 223.743 128.84C223.589 129.477 223.405 130.103 223.224 130.731C222.383 132.423 221.566 134.115 220.488 135.672C219.269 137.431 217.784 139.119 216.71 140.963C215.651 142.78 215.298 145.085 214.545 147.053C214.164 148.05 213.475 148.904 213.147 149.923C212.954 149.83 212.927 149.85 212.723 149.859C212.146 150.551 211.351 153.161 211.038 154.151C210.73 155.128 209.204 159.633 209.578 160.351C210.992 160.591 219.797 155.103 221.206 153.98C221.894 153.433 222.297 152.581 223.02 152.061C224.194 151.216 225.744 150.631 227.009 149.885C227.49 150.237 227.825 150.579 228.197 151.043C228.411 151.687 228.579 152.416 228.962 152.981C229.216 153.007 229.095 153.037 229.317 152.865C229.614 152.71 229.848 152.498 230.1 152.28C231.26 153.548 232.556 154.625 233.644 155.981C237.909 161.308 239.282 167.863 238.532 174.561C238.153 177.948 237.211 181.623 234.413 183.836C232.56 185.302 230.234 185.998 227.972 186.547C214.819 189.736 201.112 186.844 187.823 186.564C184.651 186.497 181.354 186.67 178.219 187.171C173.837 187.87 170.645 190.779 166.839 192.779C156.95 197.978 145 199.642 133.951 199.563C129.968 199.552 125.989 199.316 122.032 198.858C116.139 198.125 109.445 196.685 104.058 194.122C98.465 191.463 93.9846 186.888 87.5641 186.144C80.1557 185.285 72.5355 187.45 65.2482 188.566C57.2111 189.832 49.0387 189.995 40.9576 189.049C34.8502 188.286 27.3019 186.919 23.3346 181.755C21.0039 178.72 20.48 174.926 20.9921 171.211C21.9399 164.336 26.3655 155.889 32.0242 151.633C32.7388 152.127 33.1401 153.219 34.0236 153.274C34.1049 153.332 34.0442 153.3 34.2294 153.292C34.6721 152.886 34.9906 152.471 35.326 151.98C35.0841 151.377 34.7733 150.806 34.4773 150.228C33.8049 149.279 33.2417 148.263 32.5482 147.32C32.6212 147.109 32.5681 147.192 32.7178 147.032C33.5785 146.119 34.3425 145.079 35.1911 144.142C32.3891 142.531 29.6628 140.793 27.0206 138.932C25.9618 138.174 25.0545 137.076 23.909 136.471C23.7047 136.416 23.6012 136.339 23.4294 136.219L23.4768 135.995C24.18 135.615 25.1103 135.543 25.8934 135.449C26.8633 135.334 27.9362 135.201 28.9126 135.267C33.576 135.582 37.7678 138.796 41.3045 141.58C40.3981 140.006 39.5992 138.373 38.6655 136.813C37.3599 134.63 35.9093 132.491 34.7449 130.23C35.8088 130.584 45.3803 140.36 46.4492 141.752C47.7693 143.47 48.8522 145.402 50.0331 147.217C51.2448 149.08 52.5658 150.864 53.7589 152.741C54.8888 154.433 56.3924 157.61 58.556 158.037C58.6996 158.064 58.8256 158.041 58.9674 158.019L59.0649 157.839L59.3278 157.596L59.498 157.646C59.1731 158.445 58.8295 159.174 58.2575 159.834C57.1807 160.104 56.1327 159.649 55.1261 159.289C55.0508 159.296 54.9757 159.304 54.9002 159.31C53.4054 159.431 51.6453 158.832 50.1282 158.717C44.8235 158.313 36.8519 158.065 32.0278 160.423C30.3808 161.228 29.0102 162.414 27.7928 163.772C25.6899 166.118 23.4758 169.132 23.727 172.46C23.9008 174.762 25.2301 176.783 26.9693 178.233C33.7609 183.899 50.5958 183.213 58.9894 182.399C62.704 182.025 66.4147 181.613 70.121 181.163C74.32 180.692 78.7228 180.174 82.9465 180.628C86.2481 180.957 89.4952 181.7 92.6112 182.84C95.4439 183.903 98.1706 185.246 101.016 186.269C111.285 189.957 119.754 191.677 130.686 192.15C140.207 192.562 149.667 191.58 158.695 188.473C166.673 185.728 173.347 182.622 181.875 181.624C185.928 181.128 190.018 181.01 194.093 181.27C198.573 181.597 202.987 182.413 207.449 182.868C214.564 183.595 223.072 183.425 229.702 180.455C231.01 179.868 232.269 179.156 233.179 178.021C234.887 175.892 235.569 171.105 235.183 168.44C234.985 167.081 234.239 166.125 233.151 165.338C231.048 163.82 227.949 163.881 225.47 163.559C221.262 163.014 217.232 162.064 212.953 162.143C206.388 162.264 199.706 163.718 193.157 163.116C191.709 162.982 190.266 162.694 188.829 162.484C185.171 161.95 181.584 161.367 177.962 160.627C174.801 159.98 171.713 159.224 168.494 158.898C167.737 160.322 166.915 161.765 166.454 163.317C166.224 164.088 166.169 164.992 165.895 165.726C165.796 165.991 165.555 166.209 165.355 166.402L165.211 166.375L165.204 165.656L165.185 165.837C165.177 165.813 165.101 165.566 165.086 165.555C164.948 165.763 164.838 165.96 164.735 166.188C164.71 166.097 164.674 165.969 164.664 165.876C164.602 165.244 164.574 164.622 164.653 163.988L164.67 164.08C164.869 163.635 164.935 163.193 165.101 162.741C165.823 161.911 166.046 160.6 166.66 159.668C167.465 158.45 168.568 157.429 169.368 156.207C169.579 155.884 169.651 155.682 169.571 155.306C169.472 155.23 169.408 155.171 169.281 155.13C168.366 154.84 166.997 155.495 166.208 155.918C166.429 154.416 166.625 152.909 166.793 151.4C167.9 152.357 169.238 152.866 170.539 153.507C171.466 153.09 172.812 152.296 173.347 151.411C174.207 149.987 171.59 144.178 171.129 142.496L171.081 142.315C172.248 144.361 173.197 146.009 175.261 147.297C176.129 147.838 178.047 148.742 179.066 148.4C179.384 148.293 179.564 148.147 179.712 147.849C180.027 147.211 179.753 146.678 179.552 146.048C179.805 143.546 179.755 140.917 179.887 138.392C181.732 138.726 183.543 139.027 185.409 139.207C186.242 139.096 186.879 138.841 187.599 138.422C187.779 138.816 187.939 139.291 188.2 139.637C188.322 139.341 188.192 139.422 188.222 139.183C188.248 138.971 188.768 137.855 188.878 137.12C188.867 137.967 188.654 139.604 189.242 140.246L189.312 140.352C189.481 140.611 189.609 140.836 189.714 141.129C189.852 141.517 190.132 141.93 190.512 142.12C191.189 142.46 191.992 142.667 192.697 142.977C193.915 143.936 194.604 144.962 195.334 146.303C195.724 147.525 196.038 148.748 196.186 150.025C196.293 150.946 196.1 152.23 196.423 153.068L196.564 153.109C197.158 152.148 197.364 149.552 197.602 148.372C197.97 146.541 198.325 144.695 198.969 142.936C199.823 140.675 200.902 138.506 202.191 136.462C202.868 135.385 203.644 134.352 204.258 133.239C204.164 133.036 204.192 133.111 204.126 132.915L204.085 132.786C204.224 132.957 204.131 132.899 204.372 132.937C205.029 132.481 205.54 131.833 206.072 131.242L206.276 131.486C206.072 132.254 205.509 132.967 205.171 133.69C204.631 134.849 204.149 136.058 203.674 137.245C201.506 142.665 199.885 148.128 199.084 153.909Z" fill="#9BC74E"/>
<path d="M23.9087 136.471C25.2984 136.04 32.371 138.908 33.8437 139.687C35.4911 140.558 39.9321 143.21 40.5368 144.98L40.4054 145.016L39.7806 144.561C38.4885 145.775 37.2522 147.098 36.1 148.445C35.8091 148.785 34.9849 150.019 34.6861 150.19C34.6247 150.225 34.5467 150.216 34.4771 150.228C33.8046 149.279 33.2415 148.263 32.5479 147.32C32.6209 147.109 32.5678 147.192 32.7176 147.032C33.5782 146.119 34.3423 145.079 35.1908 144.142C32.3888 142.531 29.6625 140.793 27.0204 138.932C25.9615 138.174 25.0542 137.076 23.9087 136.471Z" fill="#85AE44"/>
<path d="M185.41 139.207C186.242 139.096 186.879 138.841 187.599 138.421C187.779 138.816 187.939 139.291 188.2 139.637C188.38 140.157 188.597 140.922 188.453 141.463C188.193 141.509 187.932 141.547 187.67 141.582L187.688 141.708C188.082 141.823 188.344 141.839 188.627 142.144C188.953 144.243 189.362 146.357 189.565 148.471C189.912 152.084 189.896 155.851 189.852 159.479C189.747 160.003 189.357 160.603 189.012 161.009C188.862 161.186 188.829 161.254 188.591 161.276L188.554 160.795C188.315 160.593 188.067 160.392 187.857 160.16C187.315 159.557 187.24 158.767 187.122 157.999C186.607 154.642 186.644 151.194 186.28 147.814C186.069 145.859 185.861 143.89 185.575 141.945C185.455 141.125 185.042 140.126 185.097 139.324L185.41 139.207Z" fill="#85AE44"/>
<path d="M46.9811 148.928C46.2769 148.339 45.6299 147.699 44.9774 147.053L44.9991 146.884L44.7842 146.767C45.883 147.53 46.916 148.358 48.049 149.078C49.4175 149.949 51.1873 150.672 52.3432 151.79C52.7255 152.16 53.1891 152.759 53.6835 152.953L53.7588 152.74C54.8887 154.432 56.3923 157.61 58.5559 158.036C58.6995 158.063 58.8255 158.041 58.9673 158.018L59.0648 157.838L59.3277 157.595L59.498 157.645C59.173 158.445 58.8294 159.174 58.2574 159.833C57.1807 160.104 56.1326 159.649 55.126 159.288C51.1187 157.472 47.4411 153.545 43.6897 151.083C42.3772 150.232 41.0215 149.45 39.628 148.739C38.9069 148.367 38.0832 148.111 37.4385 147.621L37.4907 147.409C37.6725 147.272 37.839 147.212 38.057 147.159C41.2264 146.378 44.2611 147.359 46.9811 148.928Z" fill="#759E44"/>
<path d="M206.072 131.241L206.276 131.486C206.072 132.253 205.509 132.966 205.171 133.689C204.631 134.849 204.149 136.058 203.674 137.245C201.506 142.665 199.885 148.128 199.084 153.908C198.385 150.186 203.902 135.511 205.87 131.997C202.746 135.016 200.253 139.615 198.891 143.698C198.328 145.383 197.201 152.433 196.818 153.065C196.762 153.159 196.665 153.22 196.588 153.297L196.182 153.284C195.629 153.959 196.1 155.156 195.575 156.092C195.122 156.901 194.843 157.553 194.61 158.45C194.561 158.643 194.576 158.579 194.424 158.766L194.391 158.645L194.447 158.59L194.448 158.375L194.359 158.428C194.28 157.66 194.212 156.89 194.155 156.119C193.819 157.877 193.294 161.294 191.65 162.359C191.469 162.476 191.372 162.464 191.166 162.487C190.679 162.273 190.396 161.894 190.22 161.399C190.016 160.823 189.875 160.092 189.852 159.479C189.896 155.85 189.912 152.084 189.564 148.47C189.362 146.357 188.953 144.243 188.627 142.144C188.344 141.839 188.082 141.823 187.688 141.708L187.67 141.582C187.932 141.547 188.192 141.509 188.453 141.462C188.596 140.922 188.38 140.157 188.2 139.637C188.322 139.341 188.192 139.421 188.222 139.183C188.248 138.971 188.768 137.855 188.878 137.119C188.867 137.966 188.654 139.604 189.242 140.246L189.312 140.351C189.481 140.611 189.609 140.836 189.714 141.128C189.852 141.517 190.132 141.929 190.512 142.12C191.189 142.46 191.992 142.666 192.697 142.977C193.915 143.935 194.604 144.961 195.334 146.302C195.724 147.525 196.038 148.748 196.186 150.025C196.293 150.945 196.1 152.23 196.423 153.067L196.564 153.109C197.158 152.148 197.364 149.552 197.602 148.372C197.97 146.54 198.325 144.695 198.969 142.935C199.823 140.675 200.902 138.506 202.19 136.462C202.868 135.385 203.644 134.351 204.258 133.239C204.164 133.035 204.192 133.111 204.126 132.914L204.085 132.785C204.224 132.957 204.131 132.899 204.372 132.937C205.029 132.481 205.54 131.833 206.072 131.241Z" fill="#B4DC56"/>
<path d="M192.223 145.768C193.506 147.795 193.77 150.778 193.24 153.083C193.202 153.244 193.155 153.398 193.105 153.556C192.581 153.931 192.173 154.219 192.044 154.881C191.96 155.311 191.94 155.766 191.903 156.204C191.502 154.624 191.55 153.063 191.262 151.494C191.312 151.456 191.366 151.424 191.413 151.382C192.419 150.469 192.023 147.261 192.208 145.876L192.223 145.768Z" fill="#9BC74E"/>
<path d="M191.262 151.494C190.373 148.617 190.082 145.401 189.664 142.425C190.952 143.265 191.823 144.247 192.223 145.768L192.208 145.876C192.023 147.261 192.419 150.469 191.413 151.381C191.367 151.424 191.312 151.456 191.262 151.494Z" fill="#759E44"/>
<path d="M114.23 107.234C114.742 108.459 115.519 110.001 115.776 111.295C116.311 112.325 116.434 113.738 116.728 114.869C117.379 117.377 118.081 119.871 118.707 122.386C119.214 122.051 119.815 122.078 120.32 121.751C121.086 124.464 121.411 127.24 121.974 129.99C122.447 132.305 123.191 134.746 123.442 137.085C123.57 138.285 123.341 139.564 123.359 140.779C123.39 142.779 123.886 149.308 124.717 150.971C124.837 151.213 124.949 151.277 125.17 151.409C125.438 151.302 125.49 151.233 125.596 150.963C126.858 147.746 125.327 143.697 125.261 140.324C125.188 136.542 126.102 132.891 126.536 129.16C127.015 129.086 127.518 129.093 128.003 129.073C127.904 130.484 127.812 131.893 127.805 133.308C127.794 135.645 128.183 147.089 127.37 148.781C126.653 150.274 128.351 157.604 128.96 159.233C129.139 159.71 129.293 160.141 129.768 160.373C130.236 160.318 130.505 160.04 130.78 159.677C131.335 158.941 131.774 157.983 132.147 157.139L132.271 157.125C132.312 157.162 132.354 157.196 132.392 157.235C132.44 157.286 132.482 157.341 132.527 157.393C133.403 156.991 133.941 155.081 134.314 154.891C134.503 154.793 134.637 154.926 134.881 154.765L134.866 154.497L134.521 154.49L134.439 154.209C134.872 153.963 135.143 153.675 135.388 153.238C136.016 152.118 136.345 150.787 136.852 149.605C138.035 146.851 139.74 143.333 141.33 140.849C142.599 138.865 144.112 137.37 145.837 135.792C148.793 136.421 151.869 136.434 154.879 136.465C155.698 136.439 156.514 136.42 157.33 136.336C156.13 137.316 155.082 138.477 154.152 139.714C153.063 141.406 152.294 143.134 151.674 145.046C151.59 145.578 151.501 146.11 151.519 146.652C151.55 147.618 151.636 148.812 152.423 149.487C152.902 149.897 153.532 150.011 154.145 149.939C157.154 149.586 160.175 146.453 161.998 144.262C162.901 144.732 163.086 145.707 163.732 146.414L163.986 146.173C164.816 147.986 165.732 149.71 166.793 151.399C166.625 152.909 166.43 154.415 166.208 155.918C166.997 155.495 168.367 154.84 169.281 155.13C169.408 155.17 169.472 155.229 169.572 155.305C169.651 155.682 169.579 155.883 169.368 156.207C168.568 157.428 167.465 158.45 166.661 159.668C166.046 160.6 165.823 161.91 165.101 162.741C164.935 163.192 164.869 163.634 164.67 164.08L164.654 163.987C164.574 164.621 164.603 165.243 164.664 165.876C164.674 165.968 164.71 166.096 164.735 166.187C164.838 165.96 164.949 165.762 165.086 165.555C165.101 165.565 165.177 165.813 165.185 165.837L165.204 165.655L165.212 166.375L165.355 166.402C165.555 166.209 165.796 165.991 165.895 165.725C166.169 164.992 166.225 164.088 166.454 163.317C166.915 161.765 167.737 160.322 168.495 158.897C171.714 159.223 174.801 159.979 177.962 160.626C181.584 161.367 185.171 161.949 188.829 162.484C190.266 162.693 191.709 162.981 193.157 163.115C199.706 163.717 206.388 162.263 212.953 162.143C217.232 162.063 221.262 163.013 225.47 163.558C227.949 163.881 231.048 163.819 233.151 165.338C234.239 166.125 234.985 167.081 235.183 168.44C235.569 171.104 234.887 175.892 233.179 178.021C232.27 179.156 231.01 179.868 229.702 180.454C223.072 183.425 214.564 183.594 207.449 182.868C202.987 182.413 198.574 181.596 194.093 181.27C190.018 181.009 185.928 181.128 181.875 181.624C173.347 182.621 166.674 185.728 158.695 188.473C149.667 191.579 140.207 192.562 130.686 192.149C119.754 191.677 111.285 189.956 101.017 186.268C98.1707 185.246 95.444 183.902 92.6113 182.839C89.4953 181.699 86.2482 180.956 82.9466 180.627C78.7229 180.174 74.3201 180.691 70.1211 181.163C66.4148 181.612 62.7041 182.024 58.9895 182.399C50.5959 183.213 33.761 183.899 26.9694 178.233C25.2302 176.783 23.9009 174.762 23.7271 172.46C23.4759 169.132 25.69 166.117 27.7928 163.772C29.0103 162.414 30.3809 161.228 32.0279 160.422C36.852 158.065 44.8236 158.312 50.1283 158.716C51.6454 158.831 53.4055 159.431 54.9003 159.31C54.9757 159.304 55.0509 159.296 55.1262 159.288C56.1328 159.649 57.1808 160.104 58.2576 159.833C62.9905 160.113 67.777 159.451 72.5067 159.284C73.8837 159.235 75.3594 159.596 76.7106 159.319C78.5831 158.934 80.5763 158.54 82.4051 157.997C83.5731 157.65 84.7061 157.187 85.8698 156.823C88.3051 156.081 90.8288 155.668 93.3737 155.597C93.3278 154.907 93.3245 154.232 93.3384 153.541C93.3457 153.577 93.3538 153.611 93.3604 153.647C93.5271 154.53 93.1378 156.385 93.9752 156.928C94.3273 157.158 94.852 157.082 95.2293 156.962C95.8872 156.751 96.69 156.13 97.3442 156.164C97.2474 156.305 97.2084 156.415 97.1533 156.575L97.282 156.785L97.4902 156.778C97.7609 156.45 97.7231 156.319 97.7539 155.904L97.8811 155.459C98.1602 155.213 98.4452 155.06 98.7914 154.921C99.5205 154.63 100.337 154.511 101.069 154.818C100.799 153.763 100.781 152.882 100.855 151.801C101.244 148.937 105.016 143.172 106.788 140.755C107.629 139.608 108.631 138.585 109.434 137.409L109.519 137.283L110.06 136.544C110.844 135.512 111.623 134.446 112.516 133.507C112.938 133.065 113.781 132.553 114.039 132.042L113.916 131.911C114.479 131.647 115.377 131.798 115.771 131.357C115.516 126.951 114.793 122.556 114.632 118.145C114.617 118.112 114.597 118.08 114.587 118.045C114.325 117.13 114.587 115.355 114.93 114.486C115.575 113.007 114.385 109.045 114.23 107.234Z" fill="#B4DC56"/>
<path d="M116.326 144.656C116.747 145.194 117.021 145.818 117.323 146.427C116.853 146.51 116.381 146.606 115.908 146.676C115.984 145.969 116.128 145.337 116.326 144.656Z" fill="#85AE44"/>
<path d="M219.813 173.865C220.636 173.852 221.494 173.942 222.205 174.398C222.498 174.587 222.745 174.869 222.775 175.23C222.806 175.602 222.581 175.876 222.377 176.159C222.033 176.38 221.635 176.588 221.212 176.562C220.895 176.543 220.606 176.397 220.389 176.167C219.799 175.542 219.78 174.668 219.813 173.865Z" fill="#9BC74E"/>
<path d="M114.632 118.145C114.72 118.28 114.792 118.383 114.832 118.541C115.215 120.057 115.237 122.159 115.441 123.75C115.721 125.933 116.979 132.604 116.712 134.497C116.706 134.539 116.695 134.579 116.686 134.62L116.593 134.578C116.569 133.342 115.9 132.515 115.771 131.358C115.516 126.951 114.793 122.556 114.632 118.145Z" fill="#85AE44"/>
<path d="M135.415 166.385C135.516 166.394 135.618 166.407 135.719 166.422C136.16 166.495 136.64 166.713 136.872 167.117C137.025 167.382 137.026 167.659 136.962 167.947C136.791 168.717 136.226 169.073 135.602 169.474C135.442 169.489 135.251 169.516 135.089 169.502C134.705 169.467 134.319 169.294 134.109 168.955C133.915 168.644 133.929 168.281 134.018 167.94C134.224 167.139 134.726 166.773 135.415 166.385Z" fill="#9BC74E"/>
<path d="M108.552 152.384C110.465 150.873 114.191 148.459 116.549 147.993C115.645 148.403 114.444 148.878 113.682 149.506L113.812 149.641L113.697 149.736C113.174 150.164 112.562 150.507 112.012 150.903C110.518 151.978 109.105 153.142 107.936 154.571C106.863 155.881 106.167 157.45 105.014 158.683C104.941 158.762 104.873 158.842 104.802 158.921C104.748 158.685 104.709 158.445 104.722 158.202C104.819 156.341 107.225 153.571 108.552 152.384Z" fill="#90BA49"/>
<path d="M126.825 167.676C127.166 167.655 127.419 167.658 127.717 167.846C127.919 167.973 128.066 168.044 128.302 168.104C128.624 167.929 128.887 167.765 129.262 167.747C129.462 167.814 129.633 167.863 129.776 168.03C130.017 168.31 130.024 168.701 129.979 169.048C129.865 169.92 129.614 170.415 128.913 170.932C128.439 171.171 127.864 171.429 127.324 171.436C126.883 171.441 126.396 171.261 126.095 170.934C125.781 170.593 125.655 170.125 125.685 169.669C125.743 168.8 126.191 168.221 126.825 167.676Z" fill="#9BC74E"/>
<path d="M121.068 173.829C121.325 173.96 121.716 174.449 121.785 174.737C121.91 175.256 121.715 175.732 121.426 176.157C120.881 176.961 119.901 177.625 118.935 177.772C118.32 177.866 117.966 177.667 117.472 177.323C117.386 177.198 117.35 177.151 117.282 177.029C116.937 176.416 117.033 175.419 117.233 174.77C117.331 174.454 117.47 174.29 117.761 174.129C118.566 174.047 119.333 174.738 119.97 175.163C120.382 174.751 120.718 174.294 121.068 173.829Z" fill="#9BC74E"/>
<path d="M149.63 159.669C152.387 162.149 153.84 164.567 154.851 168.151C153.859 168.027 153.355 167.642 152.73 166.86C151.672 165.536 149.467 161.296 149.63 159.669Z" fill="#85AE44"/>
<path d="M158.394 176.001C158.746 175.989 159.227 175.933 159.559 176.035C159.971 176.163 160.481 176.577 160.686 176.957C160.886 177.325 160.92 177.81 160.775 178.203C160.418 179.167 159.416 179.526 158.56 179.924C158.065 180.143 157.627 180.28 157.076 180.228C156.707 180.193 156.328 180.077 156.105 179.757C155.821 179.347 155.844 178.805 155.979 178.347C156.332 177.151 157.387 176.576 158.394 176.001Z" fill="#9BC74E"/>
<path d="M185.75 173.634C186.1 173.617 186.443 173.615 186.791 173.665C187.394 173.752 188.018 174.034 188.375 174.549C188.648 174.94 188.733 175.418 188.638 175.883C188.447 176.823 187.733 177.419 186.971 177.923C186.453 178.108 185.778 178.25 185.233 178.128C185.053 178.089 184.882 178.014 184.731 177.907C184.58 177.801 184.452 177.665 184.355 177.508C184.035 176.986 184.051 176.284 184.195 175.71C184.438 174.745 184.918 174.148 185.75 173.634Z" fill="#9BC74E"/>
<path d="M34.6372 168.177C34.857 168.14 34.9676 168.139 35.1794 168.208C35.6037 168.348 36.1927 168.867 36.3726 169.271C36.7941 170.218 35.4947 171.08 35.1757 171.94C35.2071 172.251 35.3639 172.294 35.5912 172.488C35.7781 173.031 35.3146 174.042 35.2794 174.674C35.2651 174.929 35.2413 175.184 35.2208 175.438C34.977 175.014 34.822 174.482 34.5128 174.102C33.9332 173.389 32.8714 172.898 32.5532 172.001C32.1973 170.998 32.9252 169.71 33.3307 168.805L34.6372 168.177Z" fill="#9BC74E"/>
<path d="M98.4992 168.112C101.282 167.962 104.877 168.241 107.335 169.687C107.894 170.017 108.681 170.541 108.852 171.206L108.748 171.373C107.495 171.806 105.173 170.353 103.924 169.93C100.921 169.034 96.4285 169.02 93.6118 170.459L93.4318 170.551L93.3208 170.385C93.329 170.201 93.2957 170.095 93.4188 169.942C94.4104 168.714 97.0101 168.236 98.4992 168.112Z" fill="#9BC74E"/>
<path d="M136.609 179.112C137.067 179.11 137.494 179.13 137.947 179.207C138.252 179.552 137.831 179.551 137.953 179.975C138.45 180.229 138.947 180.48 139.446 180.728C138.216 182.412 136.237 183.079 134.347 183.734C133.766 183.913 132.893 184.229 132.3 183.97C132.005 183.841 131.887 183.656 131.81 183.354C131.697 182.905 132.026 182.232 132.251 181.866C133.237 180.256 134.858 179.532 136.609 179.112Z" fill="#9BC74E"/>
<path d="M66.6447 160.57C67.0429 160.889 67.2771 161.388 67.7312 161.665C68.025 161.844 68.3846 161.932 68.7082 162.041C69.5841 162.337 69.6759 162.888 70.1285 163.615L70.4215 163.654C70.8316 163.478 70.9364 163.127 71.1954 162.796C71.3944 162.543 71.5154 162.525 71.8251 162.491C72.3291 162.698 72.6403 162.975 72.8769 163.474C73.1024 163.952 73.1853 164.557 72.9909 165.058C72.7906 165.575 72.3889 165.735 71.9183 165.953L70.3307 166.352C70.0119 165.938 69.6621 165.39 69.2469 165.075C67.9937 164.125 65.3873 164.607 64.4556 163.312C64.3251 163.131 64.3052 162.907 64.3771 162.696C64.7055 161.731 65.8301 161.076 66.6447 160.57Z" fill="#9BC74E"/>
<path d="M222.847 163.805C224.189 163.761 227.164 164.931 228.245 165.777C228.544 166.01 228.668 166.171 228.72 166.547C228.125 167.267 226.76 166.641 225.896 167.529C225.864 167.561 225.835 167.594 225.804 167.627C225.65 167.773 225.491 167.897 225.311 168.011C224.519 168.515 223.413 168.87 222.483 168.63C221.935 168.487 221.519 168.126 221.265 167.621C220.944 166.98 220.894 166.187 221.127 165.508C221.438 164.601 222.021 164.204 222.847 163.805Z" fill="#9BC74E"/>
<path d="M76.5351 172.103C77.5694 172.029 79.1953 171.99 80.0878 172.6C80.2973 172.743 80.2949 172.755 80.3497 173.013C80.016 173.575 79.0664 173.915 78.4784 174.223C79.0298 174.135 79.5259 173.972 80.0478 174.232C80.141 174.374 80.2481 174.459 80.2273 174.639C80.1398 175.398 79.0716 176.205 78.4774 176.615C78.1977 176.752 77.9155 176.887 77.622 176.993C76.7461 177.308 75.5836 177.656 74.704 177.194C74.2985 176.981 74.0322 176.63 73.9111 176.192C73.6713 175.32 73.957 174.152 74.4131 173.393C74.9391 172.519 75.5772 172.32 76.5351 172.103Z" fill="#9BC74E"/>
<path d="M147.634 154.257C148.808 156.301 151.176 157.694 152.859 159.36C154.563 161.556 157.367 165.189 157.051 168.072C156.973 168.781 156.689 169.864 156.056 170.286C155.904 170.386 155.803 170.348 155.631 170.344C154.879 169.782 155.141 168.954 154.851 168.151C153.84 164.567 152.386 162.149 149.629 159.669L149.209 159.289C148.068 157.783 147.891 156.07 147.634 154.257Z" fill="#CAF263"/>
<path d="M141.067 171.382C142.009 171.292 142.667 171.506 143.385 172.122C144.061 172.703 144.658 173.611 144.707 174.524C144.739 175.156 144.497 175.57 144.089 176.025C143.04 176.512 141.211 175.924 140.036 175.896C138.538 175.86 136.827 176.001 135.704 177.096C135.672 177.127 135.64 177.16 135.608 177.192C135.294 177.624 135.037 178.031 134.495 178.189C134.108 178.304 133.673 178.295 133.322 178.072C133.037 177.891 132.832 177.582 132.744 177.258C132.601 176.73 132.732 176.172 133.011 175.71C134.297 173.571 137.096 173.552 139.214 172.984L139.343 172.948C139.901 172.382 140.374 171.794 141.067 171.382Z" fill="#9BC74E"/>
<path d="M206.059 165.621C207.863 165.422 210.182 165.371 211.831 166.143C212.565 166.485 213.519 166.997 213.807 167.794C213.774 167.978 213.788 168.102 213.651 168.242C212.493 169.422 208.378 169.487 206.706 169.638C205.066 169.892 202.351 170.555 200.846 169.727C200.058 169.294 199.725 168.562 199.506 167.733C199.442 167.489 199.295 166.961 199.468 166.74C200.113 165.912 204.93 165.714 206.059 165.621Z" fill="#9BC74E"/>
<path d="M49.4299 164.67C50.8104 164.582 52.1961 164.623 53.5691 164.791C57.6663 165.291 61.9093 167.01 64.5236 170.326C64.3646 170.511 64.1304 170.732 64.0181 170.946C63.8714 171.224 64.0934 171.479 64.2164 171.726L64.1238 171.844C63.5769 171.619 63.1292 170.943 62.6395 170.583C61.6982 169.89 60.6039 169.282 59.5317 168.82C59.2582 168.703 58.9611 168.576 58.6634 168.545C57.6581 168.44 56.6034 168.592 55.5875 168.535C54.0963 168.451 52.4226 168.037 50.9409 168.22C50.2321 168.306 49.1984 168.978 48.4969 169.254C46.8756 169.751 45.1407 170.313 43.8604 171.45C45.3794 171.094 47.1082 170.867 48.6659 171.023C49.3274 171.089 50.5656 171.126 51.0126 171.676L50.928 171.825C50.1316 171.96 49.2532 171.811 48.443 171.783C47.2675 171.74 46.0904 171.778 44.9202 171.898C44.1316 171.984 41.7334 172.761 41.5533 172.748C41.2417 172.52 41.1152 172.338 41.0528 171.949C40.8963 170.973 41.2146 170.213 41.8032 169.449C43.0158 167.875 45.398 165.131 47.4659 164.842L47.3826 165.224C47.5859 165.32 49.0348 164.74 49.4299 164.67Z" fill="#9BC74E"/>
<path d="M174.541 164.072C176.512 163.745 179.352 164.002 181.142 164.953C181.727 165.264 182.361 165.762 182.518 166.445C182.674 167.127 182.545 168.955 182.162 169.524C181.849 169.628 181.777 169.568 181.457 169.471C181.601 169.748 181.868 169.979 182.08 170.209C182.121 170.535 182.138 170.612 182.014 170.911C181.052 171.154 177.14 170.871 175.815 170.881C174.363 170.898 168.097 171.993 167.495 171.687C167.127 171.501 166.919 171.096 166.853 170.706C166.671 169.647 167.145 168.658 167.777 167.838C169.422 165.703 171.909 164.425 174.541 164.072Z" fill="#9BC74E"/>
<path d="M115.771 131.358C115.9 132.515 116.569 133.342 116.593 134.578L116.686 134.621C116.623 136.597 116.581 138.586 116.442 140.559C116.363 141.679 116.172 142.825 116.164 143.947C116.163 144.22 116.226 144.407 116.327 144.656C116.128 145.337 115.984 145.968 115.908 146.676C113.643 147.497 111.645 148.497 109.75 150.001C108.982 150.72 108.084 151.415 107.56 152.342C107.523 152.374 107.485 152.404 107.45 152.438C107.071 152.815 106.761 153.339 106.485 153.796C106.284 154.129 106.118 154.284 105.72 154.358C105.141 154.465 103.732 154.151 103.199 153.885C102.824 154.223 101.796 154.937 101.313 154.967C101.164 154.976 101.19 154.942 101.069 154.818C100.799 153.763 100.781 152.883 100.855 151.801C101.244 148.937 105.016 143.172 106.788 140.755C107.629 139.608 108.631 138.585 109.434 137.409L109.519 137.283L110.06 136.545C110.844 135.513 111.623 134.446 112.516 133.507C112.938 133.065 113.78 132.553 114.039 132.042L113.916 131.911C114.479 131.647 115.376 131.798 115.771 131.358Z" fill="#759E44"/>
<path d="M104.016 152.178C104.349 151.514 104.905 150.887 105.321 150.262C106.366 148.69 107.363 147.084 108.497 145.574C108.816 147.062 109.276 148.556 109.75 150.001C108.982 150.72 108.085 151.415 107.56 152.342C107.523 152.374 107.485 152.404 107.451 152.438C107.071 152.815 106.761 153.339 106.485 153.796C106.284 154.129 106.118 154.284 105.721 154.358C105.142 154.465 103.732 154.151 103.199 153.885L103.035 153.795C103.536 153.438 103.803 152.739 104.016 152.178Z" fill="#9BC74E"/>
<path d="M115.771 131.358C115.9 132.515 116.569 133.342 116.593 134.578C114.98 135.663 114.042 137.316 112.518 138.469L112.39 138.662C111.261 140.328 109.68 141.723 108.513 143.397C107.241 145.219 106.534 147.261 105.487 149.185C105.036 150.013 103.997 151.22 104.016 152.178C103.802 152.739 103.536 153.438 103.034 153.795L103.199 153.885C102.824 154.223 101.796 154.937 101.313 154.967C101.164 154.976 101.19 154.942 101.069 154.818C100.799 153.763 100.781 152.883 100.855 151.801C101.244 148.937 105.016 143.172 106.788 140.755C107.629 139.608 108.631 138.585 109.434 137.409L109.519 137.283L110.06 136.545C110.844 135.513 111.623 134.446 112.516 133.507C112.938 133.065 113.78 132.553 114.039 132.042L113.916 131.911C114.479 131.647 115.376 131.798 115.771 131.358Z" fill="#CAF263"/>
<path d="M103.034 153.795C103.017 153.743 102.997 153.691 102.982 153.639C102.554 152.139 104.063 149.61 104.754 148.332C106.08 145.876 109.897 139.25 112.517 138.469L112.389 138.662C111.261 140.328 109.68 141.723 108.513 143.397C107.241 145.22 106.534 147.261 105.487 149.185C105.036 150.013 103.997 151.22 104.016 152.178C103.802 152.739 103.536 153.438 103.034 153.795Z" fill="#82AA49"/>
<path d="M161.998 144.262C162.901 144.732 163.086 145.707 163.732 146.414L163.986 146.173C164.816 147.986 165.731 149.71 166.793 151.399C166.624 152.909 166.429 154.415 166.208 155.918C166.997 155.495 168.366 154.84 169.281 155.13C169.408 155.17 169.472 155.229 169.571 155.305C169.651 155.682 169.578 155.883 169.367 156.207C168.568 157.428 167.465 158.45 166.66 159.668C166.045 160.6 165.823 161.91 165.101 162.741C164.935 163.192 164.869 163.634 164.67 164.08L164.653 163.987C164.574 164.621 164.602 165.243 164.664 165.876C164.673 165.968 164.71 166.096 164.735 166.187C164.517 166.653 164.299 167.326 163.916 167.671L163.842 167.687C163.679 167.932 163.67 167.898 163.414 168.002C161.87 167.927 160.328 162.198 158.841 160.677C158.333 160.605 156.583 159.042 156.033 158.657C154.981 158.915 153.918 159.131 152.859 159.36C151.175 157.694 148.808 156.3 147.634 154.257C147.891 156.069 148.068 157.783 149.209 159.288C147.82 159.531 146.339 159.479 144.928 159.549C142.303 159.679 139.631 159.826 137.024 160.173C140.171 154.917 141.85 150.332 147.527 147.073C148.863 146.308 150.293 145.723 151.674 145.046C151.59 145.578 151.501 146.11 151.519 146.652C151.55 147.618 151.636 148.811 152.423 149.487C152.902 149.897 153.532 150.01 154.144 149.939C157.154 149.586 160.175 146.453 161.998 144.262Z" fill="#9BC74E"/>
<path d="M163.986 146.173C164.816 147.986 165.731 149.71 166.793 151.399C166.624 152.909 166.429 154.415 166.208 155.918C165.069 157.179 163.841 158.43 163.145 160.004C163.088 159.496 163.307 158.932 163.35 158.417C163.444 157.285 163.255 156.134 163.361 155.006C163.451 154.039 163.765 153.07 163.937 152.111C164.192 150.691 164.327 147.689 163.732 146.414L163.986 146.173Z" fill="#648C3F"/>
<path d="M153.983 155.401C154.957 155.026 155.93 154.306 157.002 154.654C159.606 155.502 161.1 160.477 162.254 162.73C162.513 161.812 162.851 160.912 163.145 160.004C163.841 158.43 165.069 157.179 166.208 155.918C166.997 155.495 168.367 154.84 169.281 155.13C169.408 155.17 169.472 155.23 169.571 155.305C169.651 155.682 169.579 155.884 169.368 156.207C168.568 157.429 167.465 158.45 166.66 159.668C166.046 160.6 165.823 161.911 165.101 162.741C164.935 163.192 164.869 163.634 164.67 164.08L164.653 163.987C164.574 164.621 164.602 165.243 164.664 165.876C164.674 165.968 164.71 166.096 164.735 166.188C164.517 166.653 164.299 167.326 163.917 167.671L163.842 167.687C163.68 167.933 163.67 167.898 163.414 168.003C161.87 167.927 160.328 162.198 158.841 160.677C157.275 158.855 155.251 157.471 153.983 155.401Z" fill="#CAF263"/>
<path d="M163.842 167.688C164.123 165.21 164.368 162.342 165.626 160.147C165.409 161.007 165.249 161.867 165.101 162.741C164.935 163.193 164.869 163.635 164.67 164.08L164.653 163.988C164.574 164.622 164.602 165.244 164.664 165.876C164.674 165.969 164.71 166.097 164.735 166.188C164.517 166.653 164.299 167.326 163.916 167.671L163.842 167.688Z" fill="#85AE44"/>
<path d="M114.23 107.234C114.742 108.459 115.519 110.001 115.776 111.295C116.311 112.325 116.434 113.738 116.728 114.869C117.379 117.377 118.081 119.871 118.707 122.386C119.214 122.051 119.814 122.078 120.319 121.751C121.086 124.464 121.411 127.24 121.974 129.99C122.447 132.305 123.191 134.746 123.442 137.085C123.57 138.285 123.341 139.564 123.359 140.779C123.39 142.779 123.886 149.308 124.716 150.971C124.837 151.213 124.949 151.277 125.17 151.409C125.438 151.302 125.49 151.233 125.596 150.963C126.858 147.746 125.327 143.697 125.261 140.324C125.187 136.542 126.102 132.891 126.536 129.16C127.014 129.086 127.518 129.093 128.003 129.073C127.904 130.484 127.812 131.893 127.805 133.308C127.794 135.645 128.183 147.089 127.37 148.781C126.653 150.274 128.351 157.604 128.96 159.233C129.139 159.71 129.293 160.141 129.768 160.373C130.236 160.318 130.505 160.04 130.78 159.677C131.335 158.941 131.774 157.983 132.147 157.139L132.271 157.125C132.312 157.162 132.354 157.196 132.392 157.235C132.439 157.286 132.482 157.341 132.527 157.393C133.403 156.991 133.941 155.081 134.314 154.891C134.503 154.793 134.637 154.926 134.881 154.765L134.866 154.497L134.521 154.49L134.439 154.209C134.872 153.963 135.143 153.675 135.388 153.238C136.016 152.118 136.345 150.787 136.852 149.605C138.035 146.851 139.74 143.333 141.33 140.849C142.599 138.865 144.112 137.37 145.837 135.792C148.793 136.421 151.869 136.434 154.879 136.465C155.698 136.439 156.514 136.42 157.33 136.336C156.13 137.316 155.082 138.477 154.152 139.714C153.063 141.406 152.294 143.134 151.674 145.046C150.293 145.723 148.863 146.308 147.528 147.073C141.85 150.332 140.171 154.917 137.025 160.173L136.726 160.232C131.988 160.759 127.305 161.04 122.536 160.957C120.269 160.9 118.004 160.781 115.743 160.6C113.962 160.448 111.909 160.015 110.136 160.264C109.013 160.42 107.869 160.903 106.777 161.217C105.835 161.487 104.523 161.819 103.621 161.317C103.603 161.259 103.555 161.202 103.567 161.143C103.618 160.891 104.586 159.92 104.771 159.252C104.78 159.219 104.788 159.185 104.796 159.152L104.802 158.921C104.873 158.842 104.941 158.761 105.014 158.683C106.167 157.45 106.863 155.881 107.936 154.571C109.105 153.142 110.518 151.977 112.012 150.903C112.562 150.507 113.175 150.163 113.697 149.736L113.812 149.641C114.537 149.291 115.264 148.941 116.03 148.688C117.312 148.265 118.689 148.017 119.881 147.367C119.967 142.607 120.122 137.627 119.562 132.897C118.855 126.925 117.196 121.19 115.854 115.35C115.763 114.957 115.664 114.585 115.307 114.357L114.93 114.486C115.575 113.007 114.384 109.045 114.23 107.234Z" fill="#9BC74E"/>
<path d="M157.33 136.336C156.13 137.316 155.082 138.477 154.151 139.714C151.169 140.425 148.398 142.049 145.895 143.774C145.095 144.324 144.199 145.123 143.32 145.504C144.871 142.311 148.895 138.865 151.598 136.502C152.674 136.541 153.813 136.632 154.879 136.465C155.698 136.439 156.514 136.42 157.33 136.336Z" fill="#90BA49"/>
<path d="M143.321 145.504C144.2 145.124 145.095 144.324 145.895 143.774C148.398 142.049 151.17 140.425 154.152 139.714C153.063 141.406 152.294 143.135 151.674 145.047C150.293 145.723 148.863 146.309 147.528 147.074C141.85 150.332 140.171 154.917 137.025 160.174L136.726 160.232C138.401 154.891 139.634 149.906 143.321 145.504Z" fill="#759E44"/>
<path d="M114.23 107.234C114.742 108.459 115.519 110.001 115.776 111.295C116.311 112.325 116.434 113.738 116.728 114.869C117.379 117.377 118.081 119.871 118.707 122.386C119.451 125.4 119.946 128.537 120.379 131.612C120.87 135.107 121.114 138.604 121.456 142.112C121.58 143.383 121.875 144.633 121.975 145.908C122.134 147.931 122.558 156.06 121.66 157.526C121.572 157.67 121.567 157.665 121.465 157.766L121.309 157.78C120.48 156.483 120.234 154.501 119.81 153.023C119.414 151.649 118.972 150.281 118.521 148.922C118.861 148.617 119.346 148.283 119.557 147.883C119.297 147.931 119.286 147.957 119.081 148.104C118.06 148.835 116.752 149.129 115.675 149.836C112.42 151.974 107.774 156.06 105.086 158.909C104.939 159.065 105.001 159.004 104.796 159.152L104.802 158.921C104.873 158.842 104.942 158.761 105.014 158.683C106.167 157.45 106.863 155.881 107.936 154.571C109.105 153.142 110.518 151.977 112.012 150.903C112.562 150.507 113.175 150.163 113.697 149.736L113.812 149.641C114.537 149.291 115.264 148.941 116.03 148.688C117.313 148.265 118.689 148.017 119.881 147.367C119.967 142.607 120.122 137.627 119.562 132.897C118.855 126.925 117.196 121.19 115.854 115.35C115.764 114.957 115.664 114.585 115.307 114.357L114.93 114.486C115.575 113.007 114.385 109.045 114.23 107.234Z" fill="#759E44"/>
<path d="M164.619 108.634C165.68 109.751 165.866 111.949 166.614 113.313C166.339 114.09 166.055 114.836 165.965 115.661C165.251 113.473 164.996 110.912 164.619 108.634Z" fill="#85AE44"/>
<path d="M174.466 95.2742C175.002 96.0964 175.097 97.7181 175.319 98.6927C176.175 102.45 176.934 106.234 177.834 109.98C178.194 111.475 178.505 113.038 179.002 114.493L178.199 114.471C177.139 114.611 176.256 114.893 175.29 115.351C175.107 115.437 175.19 115.409 175.011 115.447C174.842 112.986 174.605 110.54 174.598 108.071C174.248 104.123 174.491 99.3195 174.466 95.2742Z" fill="#90BA49"/>
<path d="M174.599 108.071C175.028 108.21 175.132 108.383 175.338 108.779C176.193 110.423 177.133 113.076 178.199 114.471C177.139 114.611 176.256 114.893 175.291 115.351C175.107 115.437 175.19 115.409 175.011 115.446C174.843 112.986 174.606 110.54 174.599 108.071Z" fill="#759E44"/>
<path d="M145.766 91.8159C146.524 91.983 147.286 92.1095 148.064 92.1302C147.204 96.5913 146.507 101.082 145.973 105.594C145.824 106.929 145.559 108.446 145.624 109.787C145.015 110.697 143.9 111.359 143.186 112.23C143.261 111.186 143.343 110.153 143.304 109.106C143.61 107.332 143.645 105.454 143.851 103.66C144.311 99.6725 144.894 95.7351 145.766 91.8159Z" fill="#648C3F"/>
<path d="M161.49 82.7559C162.533 83.8222 163.436 85.1647 164.285 86.3911C169.451 93.8463 170.012 100.478 171.615 109.032C172.102 111.635 172.954 114.374 173.122 117.003C173.07 117.212 173.1 117.256 172.922 117.393L172.908 117.282L171.146 119.964C171.079 118.746 171.151 117.519 171.082 116.295C170.947 113.864 170.374 111.583 169.673 109.265C169.102 106.043 168.742 102.794 167.956 99.6122C167.299 96.955 166.477 94.2364 165.421 91.7127C164.94 90.5654 164.287 89.4913 163.812 88.3457C163.426 87.4163 163.338 86.3513 162.921 85.4459C162.529 84.5943 161.957 83.8232 161.58 82.9655L161.49 82.7559Z" fill="#85AE44"/>
<path d="M105.523 80.9226C106.361 80.9664 107.201 80.9882 108.04 80.9878C107.764 83.9583 107.281 86.9296 106.88 89.8866C106.108 95.5917 105.348 101.288 104.883 107.028C104.72 107.74 104.302 108.314 103.912 108.917C103.317 107.964 102.412 106.789 102.413 105.636C102.763 100.942 103.382 96.2394 103.98 91.5713C104.434 88.0327 104.827 84.4211 105.523 80.9226Z" fill="#648C3F"/>
<path d="M164.619 108.634C164.084 107.329 163.832 104.589 163.604 103.112C162.861 98.3128 162.273 93.4761 161.446 88.6927C161.077 86.5534 160.222 84.4419 159.961 82.3086C159.94 82.1494 159.953 82.045 160.008 81.8955L160.263 81.8501C160.792 82.0482 161.205 82.2417 161.49 82.7554L161.58 82.965C161.957 83.8227 162.529 84.5938 162.921 85.4454C163.338 86.3508 163.426 87.4158 163.812 88.3453C164.287 89.4908 164.94 90.5649 165.421 91.7123C166.477 94.2359 167.299 96.9545 167.955 99.6117C168.742 102.794 169.102 106.043 169.673 109.264C169.076 109.256 168.763 109.316 168.325 109.736C167.486 110.541 166.844 112.189 166.614 113.312C165.865 111.949 165.679 109.751 164.619 108.634Z" fill="#B4DC56"/>
<path d="M104.882 107.028L105.107 107.054C105.928 106.307 106.609 105.376 107.343 104.542C109.939 101.594 112.73 98.6047 116.525 97.2666C112.771 102.865 109.875 109.618 108.154 116.126C110.175 119.645 111.504 123.459 112.641 127.34C113.062 128.776 113.242 130.596 113.915 131.911L114.039 132.042C113.78 132.553 112.938 133.065 112.516 133.507C111.623 134.446 110.844 135.513 110.06 136.545L109.519 137.283C108.175 134.574 107.43 131.013 106.66 128.075C105.469 123.526 104.322 118.977 102.662 114.569C102.367 113.785 102.06 112.596 101.471 112.001C101.243 111.379 101.203 110.486 101.091 109.828C100.839 108.355 100.567 106.896 100.235 105.438C99.801 104.094 99.3896 102.754 98.7334 101.496C99.3638 102.133 101.968 105.517 102.413 105.636C102.412 106.789 103.317 107.964 103.912 108.917C104.302 108.314 104.72 107.74 104.882 107.028Z" fill="#759E44"/>
<path d="M100.236 105.438C101.699 106.133 105.231 114.091 105.925 116.02C107.604 120.684 108.317 126.497 109.199 131.432C109.494 133.084 110.014 134.875 110.06 136.545L109.519 137.283C108.175 134.574 107.43 131.013 106.66 128.075C105.469 123.526 104.322 118.977 102.663 114.57C102.367 113.785 102.061 112.596 101.471 112.001C101.244 111.379 101.203 110.486 101.091 109.828C100.84 108.355 100.567 106.896 100.236 105.438Z" fill="#9BC74E"/>
<path d="M177.885 87.8647C178.543 86.2332 178.256 84.3527 178.05 82.6501C177.257 76.115 174.041 70.6081 169.915 65.6255C169.4 65.003 168.164 64.1942 167.997 63.4531C174.295 68.557 178.654 73.8234 179.543 82.225C179.722 83.9117 179.69 85.6054 179.783 87.2968C179.921 89.8029 180.203 92.3889 180.569 94.8723C181.302 99.8416 182.264 104.994 183.551 109.855C184.563 113.679 185.852 117.432 186.81 121.269C187.307 123.295 187.725 125.34 188.062 127.398C188.263 128.61 188.374 129.88 188.669 131.07C188.709 129.27 188.568 127.481 188.59 125.681C188.662 119.577 188.911 113.539 189.568 107.468C190.671 108.25 191.087 109.432 191.311 110.721C191.554 112.122 191.446 116.785 192.023 117.717C192.602 118.656 192.634 124.595 192.604 126.007C192.563 127.584 192.71 129.171 192.73 130.75C192.785 134.825 192.773 138.902 192.697 142.977C191.992 142.666 191.189 142.46 190.512 142.12C190.132 141.929 189.853 141.517 189.714 141.128C189.61 140.836 189.482 140.611 189.312 140.351L189.242 140.246C188.655 139.604 188.867 137.966 188.879 137.119C188.768 137.855 188.248 138.971 188.222 139.183C188.193 139.421 188.322 139.341 188.2 139.637C187.939 139.291 187.779 138.816 187.599 138.421C188.007 138.015 188.42 137.47 188.449 136.873C188.5 135.764 187.282 134.699 186.593 133.935L185.462 132.814C185.547 130.669 185.065 128.318 184.815 126.183C184.345 122.15 183.903 118.126 183.174 114.129C182.518 110.525 181.589 106.949 180.857 103.357C180.24 100.338 179.789 97.2801 179.231 94.2497C178.837 92.1133 178.342 89.9886 177.885 87.8647Z" fill="#85AE44"/>
<path d="M188.057 132.078C188.503 134.807 189.068 137.48 189.242 140.246C188.654 139.604 188.866 137.967 188.878 137.12C188.768 137.855 188.248 138.971 188.222 139.183C188.192 139.422 188.321 139.341 188.199 139.637C187.939 139.291 187.779 138.816 187.599 138.422C188.006 138.015 188.42 137.47 188.448 136.873C188.499 135.764 187.281 134.699 186.593 133.935C187.051 133.277 187.518 132.671 188.057 132.078Z" fill="#90BA49"/>
<path d="M166.336 62.1516C166.901 62.5711 167.455 63.0051 167.997 63.4532C168.164 64.1943 169.4 65.0031 169.915 65.6256C174.04 70.6082 177.257 76.1151 178.05 82.6502C178.256 84.3528 178.543 86.2333 177.885 87.8648C178.342 89.9886 178.836 92.1134 179.231 94.2498C179.789 97.2802 180.24 100.338 180.856 103.357C181.589 106.949 182.518 110.525 183.174 114.129C183.903 118.126 184.344 122.15 184.815 126.183C185.065 128.318 185.547 130.669 185.462 132.814C184.558 132.133 183.593 131.541 182.638 130.936C182.035 129.611 181.904 128.014 181.572 126.597C181.128 124.704 180.602 122.831 180.12 120.947C180.733 119.804 181.233 118.626 181.68 117.409C181.803 117.206 181.905 117.002 181.943 116.765C182.001 116.384 181.905 115.995 181.678 115.684C181.066 114.84 179.963 114.626 179.002 114.493C178.505 113.038 178.194 111.475 177.834 109.98C176.934 106.233 176.175 102.449 175.319 98.6924C175.097 97.7178 175.003 96.0961 174.466 95.2739C174.132 94.0689 174.29 89.0402 174.25 87.3806C174.03 78.3692 171.698 69.5356 166.336 62.1516Z" fill="#B4DC56"/>
<path d="M145.766 91.8158C142.919 90.8723 140.738 89.3914 139.369 86.6429C138.271 84.4339 138.005 81.9296 138.795 79.5756C139.598 77.1779 141.44 75.1502 143.705 74.0439C146.036 72.9057 148.858 72.7798 151.305 73.6239C153.644 74.4314 155.733 76.2005 156.82 78.4346C157.359 79.5641 157.671 80.789 157.737 82.0391C157.803 83.2892 157.621 84.54 157.204 85.7201C156.792 86.907 156.149 88.0001 155.311 88.9356C154.472 89.8711 153.456 90.6302 152.321 91.1686C150.953 91.815 149.555 91.9868 148.064 92.1301C147.286 92.1094 146.524 91.9829 145.766 91.8158Z" fill="#FE9958"/>
<path d="M146.357 77.9377C147.003 77.9751 147.589 78.0477 148.152 78.3917C148.966 78.8898 149.491 79.7194 149.693 80.643C149.955 81.8353 149.672 83.1673 148.976 84.1669C148.333 85.0916 147.514 85.4921 146.433 85.6888C145.77 85.7352 145.138 85.5569 144.578 85.2031C143.78 84.699 143.3 83.8044 143.121 82.8961C142.889 81.7217 143.145 80.3932 143.833 79.4084C144.486 78.476 145.26 78.1117 146.357 77.9377Z" fill="#FDAE6C"/>
<path d="M105.524 80.9227C102.092 80.3203 98.6588 78.9269 96.6078 75.9598C95.1983 73.9208 94.9481 71.5481 95.4076 69.1554C96.1079 65.5089 98.4411 61.9435 101.546 59.8949C104.062 58.2353 106.903 57.8278 109.837 58.4368C113.342 59.1645 116.674 61.2665 118.636 64.2904C120.056 66.4796 120.657 68.9686 120.106 71.5466C119.467 74.5338 117.335 77.0952 114.806 78.723C112.736 80.0553 110.473 80.7341 108.04 80.9878C107.201 80.9882 106.362 80.9665 105.524 80.9227Z" fill="#FE9958"/>
<path d="M105.275 63.4714C106.196 63.5136 107.069 63.6489 107.862 64.1582C108.724 64.7125 109.239 65.614 109.408 66.6123C109.519 67.3036 109.49 68.0101 109.323 68.69C109.156 69.3699 108.853 70.0092 108.434 70.57C107.501 71.8393 106.255 72.529 104.728 72.782C103.876 72.8286 103.061 72.7023 102.318 72.2608C101.419 71.727 100.884 70.8298 100.668 69.8232C100.361 68.3848 100.763 66.892 101.601 65.7033C102.519 64.4024 103.741 63.7519 105.275 63.4714Z" fill="#FDAE6C"/>
<path d="M115.776 111.295L115.86 111.27C116.198 110.98 116.345 110.572 116.462 110.152C116.798 108.942 116.902 107.625 117.105 106.385C117.528 103.795 118.042 101.202 118.943 98.7317C121.615 91.4028 128.188 79.8129 135.469 76.4128C135.007 77.5936 134.571 78.7938 134.042 79.9464C133.147 82.2778 132.159 84.5612 131.31 86.9149C128.126 95.7584 126.598 103.808 126.575 113.246C126.578 115.656 126.608 118.066 126.664 120.475C126.758 123.412 126.946 126.228 126.536 129.16C126.102 132.891 125.187 136.542 125.261 140.324C125.327 143.697 126.858 147.747 125.595 150.963C125.489 151.234 125.438 151.302 125.17 151.409C124.949 151.277 124.837 151.213 124.716 150.972C123.886 149.308 123.39 142.779 123.359 140.779C123.341 139.565 123.57 138.285 123.441 137.085C123.191 134.746 122.447 132.306 121.974 129.991C121.411 127.241 121.085 124.465 120.319 121.752C119.814 122.079 119.213 122.052 118.707 122.387C118.081 119.872 117.379 117.378 116.728 114.869C116.434 113.738 116.311 112.326 115.776 111.295Z" fill="#85AE44"/>
<path d="M115.776 111.295L115.86 111.27C116.198 110.98 116.345 110.572 116.462 110.152C116.798 108.942 116.902 107.625 117.105 106.385C117.528 103.795 118.042 101.202 118.943 98.7317C121.615 91.4028 128.188 79.8129 135.469 76.4128C135.007 77.5936 134.571 78.7938 134.042 79.9464C133.188 80.7435 132.437 81.7423 131.647 82.6142C130.028 84.4012 128.387 86.1527 127.095 88.2011C122.393 95.6506 120.76 106.204 120.458 114.854C120.362 117.152 120.316 119.452 120.319 121.752C119.814 122.079 119.213 122.052 118.707 122.387C118.081 119.872 117.379 117.378 116.728 114.869C116.434 113.738 116.311 112.326 115.776 111.295Z" fill="#B4DC56"/>
<path d="M101.471 112.001C102.06 112.595 102.367 113.785 102.663 114.569C104.322 118.977 105.469 123.526 106.66 128.075C107.43 131.013 108.175 134.574 109.519 137.283L109.434 137.409C108.631 138.585 107.629 139.608 106.788 140.755C105.016 143.172 101.244 148.937 100.855 151.801C100.781 152.882 100.799 153.763 101.069 154.818C100.337 154.511 99.5205 154.63 98.7914 154.921C98.4452 155.06 98.1602 155.213 97.8811 155.459L97.7539 155.904C97.7231 156.319 97.7609 156.45 97.4902 156.778L97.282 156.785L97.1533 156.575C97.2084 156.415 97.2474 156.305 97.3442 156.164C96.69 156.13 95.8872 156.751 95.2293 156.962C94.852 157.082 94.3273 157.158 93.9752 156.928C93.1378 156.385 93.5271 154.53 93.3604 153.647C93.3538 153.611 93.3457 153.577 93.3384 153.541C93.3033 151.295 93.1287 148.214 92.0652 146.217C91.7295 144.753 91.3794 142.972 91.4764 141.467C91.6294 141.352 91.542 141.43 91.7139 141.21C92.0074 138.508 93.0854 126.964 92.4357 124.786C92.7584 123.658 93.085 121.935 93.9417 121.094C93.8989 122.674 93.6456 124.295 93.5069 125.874C96.2821 122.667 98.8979 119.396 101.811 116.3C102.084 115.063 101.638 113.261 101.471 112.001Z" fill="#85AE44"/>
<path d="M103.176 125.264L103.34 125.193C104.026 127.175 103.945 129.512 104.461 131.563L102.812 131.793C102.998 129.617 103.197 127.449 103.176 125.264Z" fill="#D5F3F9"/>
<path d="M102.812 131.793L104.461 131.563C104.757 132.538 104.835 133.4 104.806 134.413C104.066 134.508 103.371 135.141 102.683 135.448L102.659 134.783C102.794 133.792 102.791 132.79 102.812 131.793Z" fill="#9BC74E"/>
<path d="M103.349 138.449C102.936 140.226 100.48 151.05 100.855 151.801C100.781 152.883 100.799 153.763 101.069 154.819C100.337 154.512 99.5204 154.63 98.7913 154.922C98.4451 155.06 98.16 155.213 97.881 155.46L97.7538 155.904C97.6167 149.624 99.5866 143.479 103.349 138.449Z" fill="#9BC74E"/>
<path d="M102.683 135.448C103.371 135.141 104.066 134.508 104.806 134.413C104.768 134.931 104.136 135.448 103.793 135.84C102.05 137.834 100.216 140.297 99.191 142.73C97.8178 145.991 97.6741 149.332 97.4885 152.809C97.4298 153.909 97.2974 155.065 97.3442 156.165C96.69 156.13 95.8872 156.751 95.2293 156.962C94.852 157.083 94.3273 157.159 93.9752 156.929C93.1378 156.385 93.5271 154.531 93.3604 153.647C93.3538 153.611 93.3457 153.577 93.3384 153.541C93.3033 151.295 93.1287 148.215 92.0652 146.217C91.7295 144.753 91.3794 142.972 91.4764 141.467C91.6756 141.632 91.8867 141.791 92.0751 141.967C92.5025 141.162 93.0879 139.667 94.0635 139.451C94.5261 139.348 94.9434 139.601 95.2825 139.886C96.1798 140.639 96.7349 141.632 97.5087 142.47C98.0839 141.35 98.8328 140.251 99.5337 139.205C100.596 137.951 101.691 136.76 102.683 135.448Z" fill="#CAF263"/>
<path d="M92.0752 141.967C92.5027 141.162 93.0881 139.667 94.0636 139.451C94.5263 139.348 94.9435 139.601 95.2826 139.886C96.18 140.639 96.735 141.632 97.5088 142.47C96.5872 144.106 96.1418 145.71 95.7591 147.533C95.1408 146.042 94.4047 144.801 93.3839 143.547C92.9509 143.014 92.4522 142.543 92.0752 141.967Z" fill="#9BC74E"/>
<path d="M101.81 116.301C102.187 117.42 103.209 123.528 103.089 124.783L103.176 125.265C103.197 127.449 102.998 129.617 102.812 131.793C102.791 132.79 102.794 133.792 102.658 134.783L102.683 135.448C101.691 136.76 100.596 137.951 99.5333 139.205C98.8324 140.251 98.0835 141.35 97.5083 142.47C96.7346 141.632 96.1795 140.639 95.2822 139.886C94.9431 139.601 94.5258 139.348 94.0631 139.451C93.0876 139.667 92.5022 141.162 92.0747 141.967C91.8864 141.791 91.6752 141.632 91.4761 141.467C91.629 141.353 91.5417 141.431 91.7136 141.21C92.0071 138.508 93.0851 126.965 92.4354 124.786C92.7581 123.658 93.0846 121.935 93.9413 121.094C93.8986 122.675 93.6453 124.295 93.5065 125.875C96.2817 122.668 98.8976 119.396 101.81 116.301Z" fill="#85AE44"/>
<path d="M99.9155 137.365C100.053 136.142 100.067 134.911 100.262 133.695C100.756 130.62 101.957 127.666 103.089 124.783L103.176 125.264C103.197 127.449 102.998 129.617 102.812 131.793C102.791 132.79 102.794 133.792 102.659 134.783C101.744 135.426 100.63 137.009 99.9155 137.365Z" fill="#648C3F"/>
<path d="M189.568 107.468C190.052 100.723 192.3 88.8352 195.242 82.784C199.412 74.2049 207.727 62.5858 217.025 59.3882C216.146 60.8678 215.517 62.4979 214.609 63.9615C213.16 67.0198 211.586 70.0187 210.278 73.1423C206.306 82.7965 203.566 92.9124 202.122 103.251C201.809 105.35 201.638 107.458 201.366 109.56C200.907 110.482 199.974 111.371 199.358 112.231C197.565 114.735 194.098 120.228 193.905 123.114L193.752 123.21L193.643 123.178C193.39 123.825 193.61 125.834 192.988 126.114L192.603 126.007C192.634 124.595 192.602 118.656 192.023 117.717C191.446 116.785 191.554 112.122 191.311 110.721C191.087 109.432 190.671 108.25 189.568 107.468Z" fill="#85AE44"/>
<path d="M189.568 107.468C190.052 100.723 192.3 88.8352 195.242 82.784C199.412 74.2049 207.727 62.5858 217.025 59.3882C216.146 60.8678 215.517 62.4979 214.609 63.9615C212.33 65.9621 209.955 67.6347 207.903 69.9112C198.188 80.6873 194.685 96.3098 193.756 110.404C193.474 114.68 193.761 118.912 193.643 123.178C193.39 123.825 193.61 125.834 192.988 126.114L192.603 126.007C192.634 124.595 192.602 118.656 192.023 117.717C191.446 116.785 191.554 112.122 191.311 110.721C191.087 109.432 190.671 108.25 189.568 107.468Z" fill="#B4DC56"/>
<path d="M220.09 98.5609C222.208 98.1401 224.283 97.879 226.44 98.1526C225.68 98.7019 224.926 99.2552 224.117 99.7315C219.128 103.054 214.339 106.831 211.195 112.042C212.674 114.357 213.69 116.745 214.069 119.483C214.177 120.266 214.125 121.339 214.392 122.06C211.863 123.73 209.453 125.28 207.997 128.031C207.497 128.973 207.153 130.049 206.606 130.954C206.378 131.021 206.253 131.09 206.072 131.242C205.54 131.833 205.029 132.481 204.371 132.937C204.131 132.899 204.223 132.957 204.085 132.785L204.126 132.915C204.191 133.111 204.164 133.035 204.258 133.239C203.644 134.352 202.868 135.385 202.19 136.462C200.902 138.506 199.823 140.675 198.969 142.935C198.324 144.695 197.97 146.541 197.602 148.372C197.364 149.552 197.157 152.148 196.564 153.109L196.423 153.067C196.099 152.23 196.293 150.946 196.186 150.025C196.038 148.748 195.724 147.525 195.334 146.302C194.604 144.961 193.915 143.935 192.697 142.977C192.773 138.902 192.784 134.825 192.73 130.75C192.71 129.171 192.563 127.584 192.603 126.007L192.988 126.114C193.61 125.834 193.39 123.825 193.643 123.178L193.752 123.21L193.905 123.114C194.098 120.228 197.565 114.735 199.358 112.231C199.974 111.371 200.907 110.482 201.366 109.56C202.696 108.569 203.829 107.155 205.121 106.077C209.368 102.537 214.679 99.7718 220.09 98.5609Z" fill="#759E44"/>
<path d="M220.09 98.5609C222.208 98.1401 224.283 97.879 226.44 98.1526C225.68 98.7019 224.926 99.2552 224.117 99.7315C223.304 99.754 222.302 100.263 221.531 100.541C216.329 102.411 213.09 104.416 209.248 108.49C207.555 110.288 206.269 112.355 204.659 114.198L203.949 113.305C203.023 114.033 202.213 114.739 201.541 115.714C198.971 119.447 197.789 126.49 197.246 130.99C196.731 135.265 196.583 139.258 195.842 143.542C195.686 144.442 195.589 145.429 195.334 146.302C194.604 144.961 193.915 143.935 192.697 142.977C192.773 138.902 192.784 134.825 192.73 130.75C192.71 129.171 192.563 127.584 192.603 126.007L192.988 126.114C193.61 125.834 193.39 123.825 193.643 123.178L193.752 123.21L193.905 123.114C194.098 120.228 197.565 114.735 199.358 112.231C199.974 111.371 200.907 110.482 201.366 109.56C202.696 108.569 203.829 107.155 205.121 106.077C209.368 102.537 214.679 99.7718 220.09 98.5609Z" fill="#90BA49"/>
<path d="M42.7422 82.1541C42.9891 82.5872 43.22 83.0302 43.4562 83.4693C44.5487 85.1938 45.6149 86.9444 46.852 88.5703C48.1032 90.2143 49.4972 91.7688 50.8323 93.3453C54.8548 98.0949 58.4687 102.685 60.884 108.481C61.6027 110.206 62.3107 111.997 62.7585 113.814C64.254 119.274 65.0352 124.755 65.9667 130.325C66.2278 131.886 66.6173 133.423 66.8756 134.987C67.5743 139.216 68.0324 143.383 68.2908 147.659C68.3966 149.41 68.5747 151.212 68.4537 152.963C67.4774 152.418 66.8609 151.395 65.7735 150.986C65.7878 151.523 65.8774 152.178 65.4904 152.607C65.4458 152.656 65.3982 152.703 65.3522 152.751L65.0742 153.005C64.4734 152.834 64.1087 152.481 63.642 152.087C63.1693 151.399 62.845 150.531 62.3985 149.806C61.7899 148.817 60.8065 147.802 60.373 146.742C60.017 145.871 59.8556 144.883 59.5347 143.985C59.2156 141.896 58.5749 139.746 58.1157 137.679C57.4931 134.875 57.0451 131.871 56.0829 129.171C55.3827 126.845 54.7896 124.491 54.0253 122.183C54.0891 122.05 54.1255 121.948 54.1233 121.794C54.1114 120.919 51.0526 110.586 50.515 109.296C49.9167 107.859 48.9626 106.513 48.2812 105.099C46.6185 101.648 45.1448 97.7764 44.1306 94.0736C43.0569 90.1529 43.0704 86.1697 42.7422 82.1541Z" fill="#648C3F"/>
<path d="M42.7422 82.1541C42.9891 82.5872 43.22 83.0302 43.4562 83.4693C43.586 84.4625 44.3543 85.6574 44.7165 86.6211C45.6283 89.0473 46.3128 91.5885 47.3714 93.9547C48.1719 95.7437 49.3199 97.3959 50.3404 99.0657C51.3574 100.72 52.2476 102.449 53.0032 104.238C55.1112 109.318 56.7799 114.613 58.3953 119.866C59.1242 122.235 59.9755 124.609 60.555 127.019C61.4195 130.613 62.0356 134.245 62.7667 137.867C63.6569 142.265 64.6595 146.639 65.7735 150.986C65.7878 151.523 65.8774 152.178 65.4904 152.607C65.4458 152.656 65.3982 152.703 65.3522 152.751L65.0742 153.005C64.4734 152.834 64.1087 152.481 63.642 152.087C63.1693 151.399 62.845 150.531 62.3985 149.806C61.7899 148.817 60.8065 147.802 60.373 146.742C60.017 145.871 59.8556 144.883 59.5347 143.985C59.2156 141.896 58.5749 139.746 58.1157 137.679C57.4931 134.875 57.0451 131.871 56.0829 129.171C55.3827 126.845 54.7896 124.491 54.0253 122.183C54.0891 122.05 54.1255 121.948 54.1233 121.794C54.1114 120.919 51.0526 110.586 50.515 109.296C49.9167 107.859 48.9626 106.513 48.2812 105.099C46.6185 101.648 45.1448 97.7764 44.1306 94.0736C43.0569 90.1529 43.0704 86.1697 42.7422 82.1541Z" fill="#B4DC56"/>
<path d="M63.6421 152.086C64.0481 151.902 64.3791 151.775 64.8226 151.716C65.071 151.825 65.2054 151.846 65.2988 152.129C65.3565 152.304 65.3438 152.565 65.3523 152.751L65.0742 153.005C64.4734 152.834 64.1088 152.481 63.6421 152.086Z" fill="#9BC74E"/>
<path d="M145.623 109.787C146.424 109.207 147.17 108.573 148.007 108.044C151.874 105.595 156.087 105.001 160.553 104.667C159.994 105.219 159.45 105.796 158.804 106.249C153.653 110.787 148.652 115.079 145.344 121.227C145.299 121.259 145.255 121.291 145.21 121.322C144.161 122.043 142.204 122.716 141.968 124.17C141.797 125.235 142.673 126.561 143.285 127.372C143.743 129.249 142.649 130.693 142.753 132.445C142.453 132.706 142.157 132.905 142.051 133.308C142.076 133.787 142.197 134.06 142.562 134.379C143.428 135.14 144.748 135.488 145.837 135.792C144.112 137.37 142.599 138.866 141.33 140.849C139.74 143.333 138.035 146.851 136.851 149.606C136.344 150.787 136.016 152.118 135.388 153.238C135.143 153.675 134.872 153.963 134.439 154.21L134.521 154.49L134.866 154.498L134.881 154.765C134.637 154.926 134.503 154.794 134.314 154.891C133.94 155.082 133.403 156.991 132.527 157.393C132.482 157.341 132.439 157.286 132.392 157.236C132.354 157.196 132.311 157.162 132.271 157.125L132.147 157.14C131.774 157.983 131.335 158.942 130.779 159.677C130.505 160.04 130.236 160.318 129.768 160.373C129.293 160.142 129.139 159.71 128.96 159.233C128.351 157.604 126.653 150.274 127.37 148.781C128.182 147.089 127.794 135.645 127.805 133.308C127.812 131.893 127.904 130.485 128.002 129.074C128.278 126.991 128.629 124.936 129.217 122.915C130.721 117.742 133.871 113.012 138.672 110.38C139.554 109.637 141.399 109.13 142.525 108.953C142.851 108.902 142.919 108.845 143.191 109.043L143.304 109.105C143.343 110.153 143.261 111.186 143.185 112.23C143.9 111.359 145.015 110.697 145.623 109.787Z" fill="#759E44"/>
<path d="M133.608 150.028C134.018 149.855 134.123 149.667 134.289 149.258C134.396 148.995 134.481 148.729 134.607 148.474C134.532 149.987 133.949 152.694 134.269 154.045L134.44 154.209L134.521 154.49L134.866 154.497L134.882 154.765C134.638 154.926 134.504 154.793 134.314 154.891C133.941 155.081 133.403 156.991 132.527 157.393C132.482 157.341 132.44 157.286 132.392 157.235C132.354 157.196 132.312 157.162 132.272 157.125L132.147 157.139C131.786 155.941 131.768 154.412 131.843 153.162C131.958 152.974 131.946 153.027 131.992 152.861C132.104 152.454 132.224 152.058 132.375 151.662C132.604 151.053 132.991 150.31 133.608 150.028Z" fill="#85AE44"/>
<path d="M145.624 109.787C146.424 109.207 147.17 108.573 148.007 108.044C151.874 105.595 156.087 105.001 160.553 104.667C159.994 105.219 159.45 105.796 158.804 106.249C158.093 106.327 157.323 106.72 156.661 107.005C152.005 109 148.119 112.756 144.987 116.674C140.037 122.868 137.325 132.086 135.433 139.723C134.502 143.483 133.745 146.088 133.608 150.029C132.99 150.311 132.604 151.053 132.374 151.662C132.224 152.058 132.104 152.454 131.992 152.861C131.945 153.027 131.957 152.974 131.842 153.162C131.759 151.425 132.037 149.593 132.199 147.865C132.43 145.396 132.584 143.032 132.521 140.549C132.541 138.349 132.403 136.073 132.719 133.891C133.34 129.621 137.029 121.388 139.31 117.691C139.995 116.582 142.523 113.562 142.78 112.741L143.185 112.23C143.9 111.359 145.015 110.697 145.624 109.787Z" fill="#9BC74E"/>
<path d="M138.672 110.38C139.554 109.637 141.399 109.13 142.525 108.953C142.851 108.902 142.919 108.845 143.191 109.043L143.304 109.105C143.343 110.153 143.261 111.186 143.185 112.23L142.78 112.741C142.523 113.562 139.995 116.582 139.31 117.691C137.029 121.388 133.34 129.621 132.719 133.891C132.403 136.073 132.541 138.349 132.521 140.549C132.584 143.032 132.43 145.396 132.199 147.865C132.037 149.593 131.759 151.425 131.842 153.162C131.768 154.412 131.785 155.942 132.147 157.139C131.774 157.983 131.335 158.942 130.779 159.677C130.505 160.04 130.236 160.318 129.768 160.373C129.293 160.142 129.139 159.71 128.96 159.233C128.351 157.604 126.653 150.274 127.37 148.781C128.182 147.089 127.794 135.645 127.805 133.308C127.812 131.893 127.904 130.485 128.002 129.073C128.278 126.991 128.629 124.936 129.217 122.915C130.721 117.742 133.871 113.012 138.672 110.38Z" fill="#759E44"/>
<path d="M138.673 110.38C139.554 109.637 141.399 109.13 142.526 108.953C142.851 108.902 142.919 108.845 143.191 109.043L143.304 109.105C143.343 110.153 143.261 111.186 143.185 112.23L142.78 112.741C142.523 113.562 139.995 116.582 139.31 117.691C137.029 121.388 133.34 129.621 132.719 133.891C132.403 136.073 132.541 138.349 132.521 140.549C131.814 141.323 131.724 142.506 131.562 143.497C131.402 142.175 131.409 140.815 131.326 139.484C131.201 137.515 130.98 135.522 131.055 133.551C131.273 127.792 133.287 121.708 135.776 116.556C136.341 115.386 138.668 111.446 138.673 110.38Z" fill="#90BA49"/>
<path d="M143.191 109.042L143.304 109.105C143.343 110.153 143.261 111.186 143.185 112.23L142.78 112.741L142.615 112.578C142.305 111.872 142.98 109.813 143.191 109.042Z" fill="#FEFEFE"/>
<path d="M96.7039 77.4927C97.9163 79.5223 98.17 81.916 98.4345 84.2266C99.3778 92.4694 98.8445 101.237 96.8094 109.284C96.0306 112.365 94.6738 115.942 94.1381 118.98C94.0159 119.674 94.0019 120.393 93.9415 121.094C93.0848 121.935 92.7582 123.658 92.4355 124.786C93.0852 126.965 92.0072 138.508 91.7137 141.21C91.5418 141.431 91.6292 141.353 91.4762 141.467C91.3792 142.972 91.7293 144.753 92.065 146.217C91.6619 146.058 91.0622 145.172 90.7613 144.816C90.4508 146.819 90.4728 148.856 90.1359 150.857C88.8775 152.374 87.6669 153.712 86.2176 155.051L85.2336 154.081C84.6786 154.626 84.0093 155.143 83.3702 155.588C82.85 155.95 82.1964 156.285 81.5426 156.14C80.4159 155.886 79.4544 154.201 78.8605 153.29C78.3688 154.562 78.0196 155.886 77.5358 157.155L77.3594 157.189L77.1301 157.026C76.0715 154.919 77.0534 144.63 77.3687 141.887C77.7799 138.306 78.4197 134.741 78.8937 131.167C79.1694 129.088 79.2222 126.892 79.6625 124.849C81.1422 121.556 82.3915 116.844 83.5724 113.322C85.2793 108.23 87.2132 103.216 88.9082 98.1193C90.1232 94.4656 90.7825 90.6719 92.9197 87.3809C93.7656 85.9189 94.0437 84.2427 94.5731 82.6521C95.1617 80.8841 95.9088 79.1759 96.7039 77.4927Z" fill="#85AE44"/>
<path d="M92.9197 87.3806C93.0927 88.853 92.7377 90.5915 92.5004 92.0568C91.4416 98.5974 89.6092 104.954 87.8688 111.336C87.1823 113.853 86.5821 116.408 85.8256 118.903C85.1719 121.061 84.3185 123.157 83.6399 125.307C82.6087 128.658 81.7393 132.056 81.0347 135.49C80.6922 137.086 80.1627 139.059 80.3319 140.679C80.3732 141.074 80.5534 141.42 80.7283 141.77L80.8916 141.887L81.3098 141.573C82.3887 141.753 84.1701 142.58 84.7978 143.447C85.1871 143.985 85.7235 145.312 86.2644 145.557C86.5715 145.499 86.7564 145.412 87.0293 145.258C87.4038 145.046 87.7284 144.975 88.1495 144.915C88.6204 139.573 89.2654 133.867 90.8287 128.719C91.242 127.358 92.0247 126.149 92.4355 124.786C93.0852 126.964 92.0072 138.508 91.7137 141.21C91.5418 141.43 91.6292 141.352 91.4762 141.467C91.3792 142.972 91.7293 144.753 92.065 146.217C91.6619 146.058 91.0622 145.172 90.7613 144.815C90.4508 146.819 90.4728 148.855 90.1359 150.856C88.8775 152.374 87.6669 153.712 86.2176 155.051L85.2336 154.08C84.6786 154.625 84.0093 155.143 83.3702 155.587C82.85 155.95 82.1964 156.285 81.5426 156.139C80.4159 155.886 79.4544 154.201 78.8605 153.29C78.3688 154.561 78.0196 155.886 77.5358 157.155L77.3594 157.189L77.1301 157.026C76.0715 154.919 77.0534 144.629 77.3687 141.887C77.7799 138.306 78.4197 134.741 78.8937 131.167C79.1694 129.088 79.2222 126.892 79.6625 124.848C81.1422 121.556 82.3915 116.844 83.5724 113.322C85.2793 108.23 87.2132 103.216 88.9082 98.119C90.1232 94.4653 90.7825 90.6717 92.9197 87.3806Z" fill="#759E44"/>
<path d="M166.614 113.312C166.844 112.189 167.486 110.541 168.325 109.736C168.763 109.316 169.076 109.256 169.673 109.264C170.374 111.583 170.947 113.863 171.082 116.295C171.151 117.518 171.078 118.746 171.146 119.964L172.908 117.281L172.922 117.393C173.1 117.255 173.07 117.212 173.122 117.003L173.205 117.066C173.783 116.708 174.667 116.032 175.011 115.446C175.19 115.408 175.107 115.437 175.29 115.35C176.256 114.893 177.139 114.611 178.199 114.471L179.002 114.493C179.963 114.626 181.066 114.84 181.677 115.684C181.905 115.995 182.001 116.384 181.943 116.765C181.905 117.002 181.803 117.206 181.68 117.409C181.233 118.626 180.733 119.804 180.119 120.947C180.602 122.831 181.128 124.704 181.572 126.597C181.904 128.014 182.035 129.611 182.638 130.936C183.593 131.541 184.558 132.133 185.462 132.814L186.593 133.935C187.281 134.699 188.499 135.764 188.448 136.873C188.42 137.47 188.006 138.015 187.599 138.421C186.879 138.841 186.242 139.095 185.409 139.207C183.543 139.027 181.732 138.726 179.887 138.392C179.755 140.916 179.806 143.545 179.552 146.048C179.753 146.678 180.027 147.211 179.712 147.849C179.564 148.147 179.384 148.293 179.066 148.399C178.047 148.742 176.129 147.838 175.261 147.296C173.197 146.009 172.248 144.361 171.081 142.314L171.129 142.496C171.59 144.178 174.207 149.987 173.347 151.411C172.812 152.296 171.466 153.09 170.539 153.507C169.239 152.866 167.9 152.357 166.793 151.399C165.732 149.71 164.816 147.986 163.986 146.173L163.732 146.414C163.086 145.708 162.901 144.733 161.998 144.262C160.175 146.453 157.154 149.587 154.145 149.94C153.532 150.011 152.902 149.897 152.423 149.487C151.636 148.812 151.55 147.619 151.519 146.652C151.501 146.111 151.59 145.579 151.674 145.047C152.294 143.134 153.063 141.406 154.152 139.714C155.082 138.477 156.13 137.316 157.33 136.336C156.514 136.42 155.698 136.439 154.879 136.465C151.869 136.434 148.793 136.421 145.837 135.792C144.748 135.488 143.428 135.14 142.562 134.379C142.197 134.06 142.076 133.787 142.052 133.308C142.157 132.905 142.453 132.706 142.753 132.445C142.649 130.693 143.743 129.249 143.285 127.372C142.674 126.561 141.797 125.235 141.969 124.17C142.204 122.716 144.162 122.043 145.21 121.322C145.255 121.291 145.299 121.259 145.344 121.227C145.811 121.12 146.26 121.051 146.74 121.042C150.99 120.957 155.547 123.494 158.551 126.33C158.22 125.632 157.9 124.929 157.591 124.222C155.964 120.497 154.097 115.2 155.74 111.213C156.017 110.543 156.426 109.859 157.143 109.602C157.74 109.387 158.445 109.493 159.004 109.768C161.546 111.013 163.774 119.541 164.678 122.338C164.999 120.224 166.086 117.746 165.965 115.661C166.055 114.836 166.339 114.09 166.614 113.312Z" fill="#FE9958"/>
<path d="M171.096 130.356C172.171 129.43 173.295 128.586 174.435 127.743C174.545 128.288 174.596 128.976 174.8 129.484C173.546 129.686 172.308 129.977 171.096 130.356Z" fill="#90BA49"/>
<path d="M163.661 141.72C163.558 143.287 163.513 144.656 163.987 146.173L163.732 146.414C163.086 145.708 162.901 144.733 161.999 144.262C162.566 143.425 163.143 142.592 163.661 141.72Z" fill="#759E44"/>
<path d="M143.285 127.372C145.253 128.899 147.628 130.48 150.132 130.779C147.595 130.91 145.1 131.473 142.753 132.445C142.649 130.693 143.744 129.249 143.285 127.372Z" fill="#90BA49"/>
<path d="M174.435 127.743C176.25 126.243 177.616 124.549 179 122.662C178.994 123.639 179.178 129.132 178.96 129.565L178.895 129.614C177.515 129.443 176.189 129.403 174.8 129.485C174.596 128.976 174.545 128.288 174.435 127.743Z" fill="#759E44"/>
<path d="M172.079 136.677C174.586 137.582 177.267 137.956 179.887 138.392C179.755 140.916 179.806 143.545 179.552 146.048C178.141 142.061 175.869 138.73 172.079 136.677Z" fill="#85AE44"/>
<path d="M180.12 120.947C180.602 122.831 181.128 124.704 181.572 126.597C181.904 128.014 182.035 129.612 182.638 130.936C181.415 130.326 180.218 129.955 178.895 129.614L178.96 129.565C179.178 129.132 178.994 123.639 179 122.662C179.389 122.099 179.756 121.525 180.12 120.947Z" fill="#90BA49"/>
<path d="M179.002 114.493C179.963 114.626 181.066 114.84 181.677 115.684C181.905 115.995 182.001 116.384 181.943 116.765C181.905 117.002 181.803 117.206 181.68 117.409C178.343 117.653 172.991 122.374 170.805 124.903C170.051 125.777 169.511 126.815 168.814 127.73L167.504 127.048C168.144 126.007 168.634 124.864 169.209 123.786C169.852 122.579 170.803 121.29 171.146 119.964L172.908 117.281L172.922 117.393C173.1 117.255 173.07 117.212 173.122 117.003L173.205 117.066C173.783 116.708 174.667 116.032 175.011 115.446C175.19 115.408 175.107 115.437 175.29 115.35C176.256 114.893 177.138 114.611 178.199 114.471L179.002 114.493Z" fill="#FDAE6C"/>
<path d="M168.814 127.73C169.241 128.083 169.658 128.457 170.01 128.887C171.21 130.354 171.863 132.075 171.62 133.995C171.402 135.73 170.403 137.31 168.993 138.33C167.547 139.377 165.771 139.716 164.026 139.388C163.177 139.23 162.369 138.9 161.653 138.417C160.937 137.934 160.329 137.309 159.865 136.58C159.39 135.852 159.067 135.036 158.914 134.181C158.762 133.325 158.783 132.448 158.977 131.601C159.172 130.749 159.539 129.946 160.057 129.242C160.574 128.538 161.231 127.947 161.985 127.507C163.731 126.506 165.629 126.524 167.504 127.048L168.814 127.73Z" fill="#F4663B"/>
<path d="M57.3133 45.7042C56.9984 45.0719 56.8004 44.3007 56.5606 43.6318C56.1002 42.3481 55.6244 41.1021 55.0799 39.8511C54.9598 39.5754 54.7742 39.2178 54.8857 38.9292L55.1989 39.1548C57.0633 40.4031 58.6432 41.676 60.1752 43.3298C61.5609 44.9551 64.233 48.14 64.9637 50.0559C67.3623 53.7253 70.2094 57.1772 72.1501 61.1282C73.1472 63.1581 73.8004 65.3292 74.5085 67.4704C75.5686 70.6756 76.5686 73.8978 77.275 77.2021C78.2783 81.8954 78.7676 86.8039 79.1462 91.5818C79.6021 97.3335 79.8689 103.019 79.7974 108.793L79.7044 119.735C79.6851 121.184 79.314 123.523 79.6628 124.849C79.2225 126.892 79.1697 129.088 78.894 131.167C78.42 134.742 77.7802 138.307 77.3689 141.887C77.0537 144.63 76.0717 154.919 77.1303 157.026L77.3597 157.189L77.5361 157.155C78.0199 155.886 78.3691 154.562 78.8608 153.29C79.4547 154.201 80.4162 155.886 81.5429 156.14C82.1966 156.285 82.8503 155.95 83.3705 155.588C84.0096 155.143 84.6789 154.626 85.2339 154.081L86.2179 155.051C87.6672 153.712 88.8778 152.375 90.1361 150.857C90.4731 148.856 90.4511 146.819 90.7616 144.816C91.0625 145.172 91.6621 146.059 92.0653 146.217C93.1288 148.215 93.3034 151.295 93.3385 153.542C93.3246 154.232 93.3279 154.908 93.3738 155.597C90.8289 155.669 88.3051 156.081 85.8699 156.823C84.7062 157.187 83.5732 157.65 82.4052 157.997C80.5764 158.54 78.5832 158.935 76.7107 159.32C75.3595 159.597 73.8838 159.236 72.5068 159.284C67.777 159.451 62.9906 160.113 58.2576 159.834C58.8297 159.174 59.1732 158.445 59.4982 157.646L59.328 157.596L59.0651 157.839L58.9676 158.019C58.8257 158.041 58.6998 158.064 58.5562 158.037C56.3926 157.61 54.889 154.432 53.7591 152.741C52.566 150.864 51.245 149.08 50.0333 147.217C48.8523 145.402 47.7695 143.47 46.4494 141.752C45.3805 140.36 35.809 130.584 34.745 130.23C32.5269 126.652 30.4692 123.215 29.3087 119.124C28.3397 115.708 28.3454 112.201 27.616 108.754C27.1459 106.53 26.1172 104.422 25.3042 102.306C25.771 102.805 26.2084 103.336 26.6546 103.853C30.4809 107.651 32.7533 112.144 35.3981 116.757C38.5727 122.293 42.6334 128.576 47.8357 132.405C46.6728 128.428 45.6115 124.332 43.8273 120.578C41.7307 116.166 39.0305 111.98 36.4842 107.817C35.4095 106.059 34.2532 104.313 33.3192 102.477L36.8997 104.544C40.9072 107.26 45.5824 109.756 48.5918 113.63C50.0961 115.566 52.573 121.164 53.8427 122.187L54.0254 122.183C54.7897 124.491 55.3828 126.845 56.083 129.171C57.0451 131.871 57.4931 134.875 58.1157 137.679C58.5749 139.746 59.2157 141.896 59.5347 143.985C59.8557 144.883 60.017 145.871 60.3731 146.742C60.8066 147.803 61.7899 148.817 62.3985 149.806C62.8451 150.531 63.1693 151.399 63.6421 152.087C64.1087 152.481 64.4734 152.834 65.0742 153.005L65.3523 152.751C65.3983 152.703 65.4459 152.657 65.4904 152.607C65.8775 152.178 65.7878 151.523 65.7736 150.986C66.861 151.395 67.4774 152.418 68.4538 152.963C68.5747 151.212 68.3967 149.41 68.2909 147.659C68.0325 143.383 67.5743 139.216 66.8757 134.987C66.6174 133.423 66.2278 131.886 65.9667 130.325C65.0352 124.755 64.254 119.274 62.7586 113.814C63.3375 112.304 63.4756 110.373 63.7992 108.771C64.3645 105.971 65.0285 103.191 65.5755 100.387C65.8321 97.6925 65.4471 94.963 65.3113 92.2678C65.1813 89.6869 65.1405 87.0992 64.9152 84.5241C64.5675 80.5503 63.9526 76.5672 63.336 72.6264C61.9175 63.5595 60.0874 54.4612 57.3133 45.7042Z" fill="#9BC74E"/>
<path d="M58.0591 154.295C58.9057 154.961 59.3488 155.858 59.482 156.925C59.5096 157.147 59.5469 157.426 59.498 157.645L59.3277 157.596L59.0648 157.839C58.7603 156.649 58.3608 155.487 58.0591 154.295Z" fill="#90BA49"/>
<path d="M65.7734 150.986C66.8608 151.395 67.4772 152.418 68.4536 152.963C68.5808 153.559 68.7147 154.148 68.3787 154.704C68.0471 155.254 67.3295 155.51 66.732 155.623C66.2626 155.711 65.7679 155.735 65.2913 155.773L65.109 155.616C64.9381 155.015 64.4952 153.641 64.6903 153.042L65.074 153.005L65.3521 152.751C65.398 152.703 65.4457 152.657 65.4902 152.607C65.8773 152.178 65.7876 151.523 65.7734 150.986Z" fill="#85AE44"/>
<path d="M59.5344 143.985C59.8553 144.883 60.0167 145.871 60.3727 146.742C60.8062 147.802 61.7896 148.817 62.3982 149.806C62.8447 150.531 63.169 151.399 63.6417 152.087C64.1084 152.481 64.4731 152.834 65.0739 153.005L64.6901 153.041C64.4951 153.641 64.938 155.015 65.1088 155.616L65.2912 155.772C65.2916 156.051 65.3133 156.333 65.206 156.596C65.1365 156.765 65.0177 156.776 64.8639 156.853C64.6252 156.858 64.4699 156.843 64.2441 156.752C62.8585 156.191 60.477 151.204 59.8531 149.677C59.856 149.368 59.7245 149.062 59.6973 148.75C59.6462 148.166 59.4733 144.319 59.5344 143.985Z" fill="#85AE44"/>
<path d="M53.8427 122.186L54.0254 122.183C54.7897 124.491 55.3828 126.845 56.083 129.171C57.0451 131.871 57.4931 134.875 58.1157 137.678C58.5749 139.746 59.2156 141.896 59.5347 143.985C59.4737 144.319 59.6465 148.166 59.6976 148.75C59.7249 149.062 59.8564 149.367 59.8534 149.677C58.7782 147.83 56.9874 146.126 56.1551 144.227C55.5064 142.746 55.4775 141.018 55.0956 139.453C54.4155 136.665 53.277 134.001 52.5866 131.205C51.8995 128.422 51.8072 125.458 50.8501 122.763C51.7035 123.037 52.4487 123.301 53.0961 123.954C53.2462 123.293 53.3836 122.703 53.8427 122.186Z" fill="#648C3F"/>
<path d="M53.8423 122.186L54.025 122.183C54.7893 124.491 55.3824 126.845 56.0826 129.171C55.9224 129.421 55.8768 129.636 55.8033 129.919L55.7176 129.885C55.3322 128.897 55.18 127.748 54.7188 126.812C54.2346 125.828 53.4732 124.997 53.0957 123.954C53.2458 123.293 53.3832 122.703 53.8423 122.186Z" fill="#85AE44"/>
<path d="M25.3042 102.306C25.771 102.805 26.2084 103.335 26.6546 103.853C26.7256 105.354 28.7883 107.985 29.4735 109.524C30.3116 111.405 30.9974 113.354 31.8036 115.25C33.0083 118.122 34.5005 120.865 36.2576 123.436C38.3708 126.558 40.8527 129.424 43.1344 132.424C44.1139 133.711 44.8834 135.2 45.9057 136.432C47.8608 138.787 50.3044 140.777 52.2924 143.115C53.2051 144.189 57.5409 152.739 58.0593 154.295C58.3611 155.487 58.7606 156.649 59.0651 157.838L58.9676 158.019C58.8257 158.041 58.6998 158.064 58.5562 158.036C56.3926 157.61 54.889 154.432 53.7591 152.74C52.566 150.864 51.245 149.079 50.0333 147.217C48.8523 145.402 47.7695 143.47 46.4494 141.752C45.3805 140.36 35.809 130.584 34.745 130.23C32.5269 126.652 30.4692 123.215 29.3087 119.124C28.3397 115.708 28.3454 112.201 27.616 108.753C27.1459 106.53 26.1172 104.422 25.3042 102.306Z" fill="#648C3F"/>
<path d="M57.313 45.7042C56.9981 45.0719 56.8001 44.3007 56.5603 43.6318C56.0999 42.3481 55.6241 41.1021 55.0796 39.8511C54.9595 39.5754 54.7739 39.2178 54.8854 38.9292L55.1986 39.1548C57.063 40.4031 58.6429 41.676 60.1749 43.3298C61.5606 44.9551 64.2327 48.14 64.9634 50.0559C64.9261 50.523 68.2226 56.4991 68.746 57.6192C69.9638 60.2258 70.91 63.0317 71.7105 65.7941C74.9755 77.0594 76.4616 88.957 77.778 100.593C78.1619 103.986 78.8179 107.606 78.7676 111.012C78.7396 112.918 78.4691 114.839 78.2717 116.734C77.8263 121.017 77.245 125.253 76.6111 129.51C76.3513 131.255 75.2355 140.195 74.6122 140.96C74.5166 141.891 74.7053 142.822 74.6504 143.757C74.5295 145.813 74.0598 147.84 73.62 149.847C72.6886 149.249 71.6571 149.103 70.8275 148.314C69.9163 146.036 70.1791 138.702 70.0929 135.755C70.0299 133.282 69.9049 130.811 69.718 128.345C69.5342 125.755 69.4329 123.068 69.0025 120.51C68.1684 115.555 66.7466 110.697 65.9213 105.744C65.6399 104.057 66.4023 101.945 65.5752 100.387C65.8318 97.6925 65.4468 94.963 65.311 92.2678C65.181 89.6869 65.1402 87.0992 64.9149 84.5241C64.5672 80.5503 63.9523 76.5672 63.3358 72.6264C61.9172 63.5595 60.0871 54.4612 57.313 45.7042Z" fill="#628A3C"/>
<path d="M74.6124 140.96C74.5728 139.039 74.3603 137.104 74.2009 135.189C73.9319 131.826 73.63 128.466 73.2951 125.109L71.5827 105.96C71.016 100.067 70.5345 94.1673 70.1382 88.2612C69.8521 83.793 69.7617 79.2016 69.1558 74.7652C68.7117 71.5139 67.947 68.3217 67.1509 65.1419C65.2322 57.4771 62.8745 49.5319 58.1731 43.0496C57.3532 41.9193 56.3959 41.088 55.4922 40.0633C55.2032 39.7358 55.1975 39.5845 55.1988 39.1545C57.0632 40.4028 58.6431 41.6757 60.1751 43.3296C61.5608 44.9548 64.233 48.1397 64.9636 50.0556C64.9263 50.5228 68.2228 56.4989 68.7462 57.619C69.964 60.2256 70.9102 63.0315 71.7107 65.7939C74.9757 77.0591 76.4618 88.9567 77.7782 100.593C78.1621 103.986 78.8181 107.605 78.7678 111.012C78.7398 112.918 78.4693 114.838 78.2719 116.734C77.8265 121.017 77.2452 125.253 76.6113 129.509C76.3515 131.255 75.2357 140.195 74.6124 140.96Z" fill="#B4DC56"/>
</svg>
