<?xml version="1.0" encoding="UTF-8"?>
<svg id="_图层_1" data-name="图层 1" xmlns="http://www.w3.org/2000/svg" xmlns:xlink="http://www.w3.org/1999/xlink" viewBox="0 0 256 256">
  <defs>
    <style>
      .cls-1 {
        fill: #ffef76;
      }

      .cls-2 {
        fill: #fff86b;
      }

      .cls-3 {
        fill: #ffeb6c;
      }

      .cls-4 {
        fill: #fefa97;
      }

      .cls-5 {
        fill: #ffcb68;
      }

      .cls-6 {
        fill: #fedc69;
      }

      .cls-7 {
        fill: #feee92;
      }

      .cls-8 {
        fill: #fdde79;
      }

      .cls-9 {
        fill: #99321b;
      }

      .cls-10 {
        fill: url(#_未命名的渐变_24);
      }

      .cls-11 {
        fill: url(#_未命名的渐变_23);
      }
    </style>
    <linearGradient id="_未命名的渐变_23" data-name="未命名的渐变 23" x1="4721.5" y1="1757.45" x2="5161.01" y2="2435.04" gradientTransform="translate(-1110 645) scale(.25 -.25)" gradientUnits="userSpaceOnUse">
      <stop offset="0" stop-color="#ff8200"/>
      <stop offset="1" stop-color="#ffc300"/>
    </linearGradient>
    <linearGradient id="_未命名的渐变_24" data-name="未命名的渐变 24" x1="4746.47" y1="1784.6" x2="5133.06" y2="2396.81" gradientTransform="translate(-1110 645) scale(.25 -.25)" gradientUnits="userSpaceOnUse">
      <stop offset="0" stop-color="#ff8700"/>
      <stop offset="1" stop-color="#fff701"/>
    </linearGradient>
  </defs>
  <path class="cls-9" d="m78.29,25.94c12.5-.79,25.4-.18,37.95-.18h70.55l-.17,10.97c5.38.16,10.79.1,16.17.14-.8,10.73,1.18,22.1-1.22,32.63-2.13,9.34-7.42,18.23-10.05,27.64-17.27-.95-34.95-.27-52.27-.31-.35,20.51-.01,41.09.07,61.6,15.83.24,31.65.34,47.48.31l-.15,10.77c5.36.22,10.72.25,16.08.11-.36,6.88-.17,13.84-.19,20.72-.13,13.1-.06,26.19.2,39.29-23.01-.15-46.02-.18-69.03-.08-12.5.02-25.39.7-37.83-.32-4.01-.33-8.53-.88-12.04-2.95-8.22-4.85-26.56-17.81-28.63-27.03-2.56-11.38-1.49-24.13-1.49-35.74v-51.93c0-18.96-1.37-40.77.38-59.31.52-5.51,1.34-10.44,4.56-15.12,4.77-6.94,11.72-9.7,19.64-11.21Z"/>
  <path class="cls-9" d="m181.11,166.23c.52.67,1.25,1.22,1.56,2.01,1.02,2.62.7,34.24.17,38.38-.2,1.51-.63,2.7-1.27,4.07-1.46,1.02-2.03,1.27-3.92.87-.27-.06-.5-.22-.74-.34l2.62-.8c3.25-6.13.02-34.64,1.59-44.2Z"/>
  <path class="cls-9" d="m80.64,32.89c.19-.26.35-.54.58-.77.03-.03,1.47-1.12,1.58-1.16,6.5-2.05,68.14-2,77.33-.83,1.26.85,2.51,1.69,3.83,2.46-27.6,0-55.79-1.19-83.33.29Z"/>
  <path class="cls-11" d="m178.7,30.02l1.53,2.88c3.27,20.41-4.15,27.64-8.75,45.42l-54.51-.12c.3,29.26-.61,58.62.22,87.85,21.27-.06,42.66-.47,63.92.18-1.58,9.55,1.66,38.07-1.59,44.2l-2.62.8c-6.37-1.35-14.08-.61-20.62-.59-15.1.04-73.84,2.39-84.76-2.45-4.61-2.04-9.11-8.39-10.62-13.08-1.8-5.58-1.43-129.14-.68-141.05.23-3.62.65-6.41,2.51-9.61,4.21-7.26,10.28-9.49,17.92-11.55,27.54-1.48,55.73-.28,83.33-.29l4.72-.15c3.43-1.74,6.25-2.08,10.01-2.43Z"/>
  <path class="cls-9" d="m180.22,28.46l1.76,4.44-13.29-.69c3.96-2.69,7.21-3.21,11.53-3.75Z"/>
  <path class="cls-7" d="m74.24,41.69c3.67-2.59,7-3.18,11.41-2.79-1.15,2.07-2.24,3.62-3.9,5.31-2.85-.69-5.47-.32-7.5-2.52Z"/>
  <path class="cls-1" d="m74.24,41.69c2.04,2.2,4.65,1.83,7.5,2.52-.88,2.05-.92,2.76-2.87,3.96-2.02-.36-3.8-.87-5.74-1.54-1.78.92-1.62,1.29-2.33,3.2,2.22,8.06-2.72,9.42-2.01,16.96l-.76.41c-.18,2.14-.23,4.31-.9,6.37-.12-7.68-1.46-17.58.59-24.96,1.02-3.67,3.4-5.12,6.5-6.93Z"/>
  <path class="cls-10" d="m85.65,38.9c2.59-.03,5.2-.16,7.77.18,4.31.03,8.62-.02,12.93-.15,2.44-.04,5.08-.28,7.48.12,4.65-.04,9.3-.13,13.95-.03,2.18-.16,4.24-.35,6.42-.05,4.81,0,9.63.1,14.44.05,2.14-.14,4.2-.27,6.34-.08,4.65-.02,9.3.11,13.95.07,1.96-.12,2.31-.41,3.85.76,2.36,8.18.21,21.52-3.99,28.96-.8,1.43-1.43,2.68-3.13,3.15-2.41.67-36.86.44-38.07-.12-3.76,1.21-7.14-.76-10.77.05-1.44.32-1.51.08-2.84-.45-2.36-.33-2.42.04-4.44,1.38-1.17,3.79,2.85,11.36.39,20.84-.3,1.17-.12,1.99.05,3.11,1.93,12.14-1.06,72.11,1.65,75.73,12.16,2.93,54.55-1.98,61.2,2.14,1.29,9.89,0,20.61.18,30.64-15.55-.6-77.57,1.48-86.59-1.96-2.16,1.28-2.84,2.28-5.41,1.51-3.19-.95-10.98-4.74-12.28-7.75-1.21-2.78-1.48-6.3-1.58-9.31-.65-21.16.19-42.63.2-63.82,0-13.39-1.18-27.57.06-40.84-.64-2.89-.14-6.43-.26-9.43.67-2.05.72-4.23.9-6.37l.76-.41c-.71-7.54,4.23-8.9,2.01-16.96.71-1.91.54-2.29,2.33-3.2,1.94.67,3.72,1.17,5.74,1.54,1.95-1.2,1.98-1.91,2.87-3.96,1.67-1.69,2.75-3.24,3.9-5.31Z"/>
  <path class="cls-8" d="m128.91,178.35l2,.55c1.55,1.87,1.08,2.61.95,4.97l-2.26-.75c-1.37-1.82-.89-2.56-.69-4.77Z"/>
  <path class="cls-8" d="m74.34,81.18c1.36,1.6,2,3.15,1.86,5.28-.1,1.54-.13,1.89-1.2,2.95-1.01-.81-1.3-1.44-1.9-2.56-.25-2.51.19-3.48,1.24-5.68Z"/>
  <path class="cls-8" d="m107.87,178.44c1.42.32,2.08.63,3.31,1.34.64,2.05.13,2.83-.47,4.86-1.13-.38-2-.89-3.03-1.47-.73-2.02-.32-2.68.19-4.72Z"/>
  <path class="cls-5" d="m85.94,177.7c1.16.28,2.12.69,3.21,1.16,1.06,2.25.68,3.32.42,5.75-1.35-.23-2.32-.67-3.53-1.28-.89-2.21-.46-3.3-.1-5.62Z"/>
  <path class="cls-4" d="m162.3,60.84c1.15.8,1.72,1.45,2.6,2.52-.19,2.32-1.05,2.91-2.48,4.69-1.31-.98-2.03-1.74-2.88-3.14.4-2.24,1.14-2.54,2.77-4.07Z"/>
  <path class="cls-1" d="m94.89,44.78c1.99-.91,3.35-1.98,5.61-1.35.54.15,1.27.56,1.78.83-.93,2.02-1.16,2.87-2.98,4.22-2.29-.82-2.86-1.87-4.41-3.7Z"/>
  <path class="cls-8" d="m97.18,145.46c1.82.68,2.65,1.24,3.96,2.68.29,2.45-.06,2.82-1.13,4.95-2.17-.51-2.34-.57-3.84-2.21-.39-2.26.13-3.41,1.01-5.41Z"/>
  <path class="cls-4" d="m138.14,60.81c1.99.14,3.04.34,4.74,1.39.81,2.1.69,2.68.39,4.94-2.26.06-2.9.25-4.89-.93-.86-1.95-.54-3.39-.24-5.41Z"/>
  <path class="cls-5" d="m75.54,166.7c1.87.48,2.75.86,4.16,2.18.11,2.45-.49,3.12-1.64,5.23-.22.02-.44.09-.65.07-1.64-.16-1.91-.91-2.8-2.14-.3-2.38-.14-3.2.93-5.35Z"/>
  <path class="cls-5" d="m86.57,155.49c2.27.53,3.19.84,4.75,2.66.26,2.58-.05,2.91-1.21,5.12-1.17.31-1.74.42-2.96.13-1.28-.31-1.25-.79-1.93-1.82-.07-2.57.27-3.75,1.35-6.09Z"/>
  <path class="cls-8" d="m97.13,123.14c2.05.8,3.3,1.3,4.71,3.11.6,2.32.04,3.49-.85,5.59-.6.03-1.79.11-2.36.02-1.65-.26-1.93-1.14-2.74-2.42-.08-2.4.42-4.05,1.23-6.29Z"/>
  <path class="cls-2" d="m149.81,48.77c.59.09.94.11,1.53.32,1.71.6,2.41,1.27,3.3,2.8.34,2.57-.18,3.76-1.35,6.05-2.29-.43-3.05-.85-4.59-2.51-.51-2.61.18-4.22,1.11-6.66Z"/>
  <path class="cls-4" d="m67.15,73.58c.67-2.05.72-4.23.9-6.37l.76-.41c1.16,3.26,3.58,7.58,2.08,11-.84,1.91-2.17,3.6-3.47,5.21-.64-2.89-.14-6.43-.26-9.43Z"/>
  <path class="cls-5" d="m76.54,144.41c2.15.99,3.37,2.01,4.26,4.21-.44,2.74-1.08,3.19-2.84,5.24-.26-.06-.54-.07-.78-.19-1.82-.88-2.26-1.61-3.07-3.32.13-2.69.85-3.81,2.44-5.94Z"/>
  <path class="cls-8" d="m86.2,135.29c2.14-.58,2.36-.49,4.48.21,1.32,1.8,1.3,1.85,1.23,4.09-.95,1.71-2.09,2.84-4,3.42-.86.26-.98.23-1.77.29-.45-1.02-1.06-2.22-1.26-3.32-.37-2.01.26-3.07,1.33-4.7Z"/>
  <path class="cls-5" d="m86.2,135.29l1.97.57c.47,2.28-.45,4.67-1.53,6.68-.14.27-.33.51-.5.76-.45-1.02-1.06-2.22-1.26-3.32-.37-2.01.26-3.07,1.33-4.7Z"/>
  <path class="cls-6" d="m74.34,81.18c2.13-.64,2.99-.82,5.22-.19,1.3,1.15,2.05,1.7,2.15,3.6.08,1.55-.76,3.67-1.97,4.67-1.02.85-2.39,1.42-3.68.84-.38-.17-.7-.46-1.05-.69,1.07-1.06,1.1-1.41,1.2-2.95.14-2.13-.5-3.68-1.86-5.28Z"/>
  <path class="cls-4" d="m93.42,39.07c4.31.03,8.62-.02,12.93-.15-.55,2.47-2.28,3.71-4.06,5.34-.51-.27-1.24-.68-1.78-.83-2.26-.64-3.61.44-5.61,1.35-.94-1.9-1.18-3.65-1.48-5.71Z"/>
  <path class="cls-6" d="m97.08,101.57c2.67.85,3.91,1.64,5.3,4.04.03,2.49-.64,3.66-1.88,5.7-.7-.06-1.95-.12-2.6-.34-1.75-.58-2.12-1.51-2.9-3.01.05-2.68.74-4.08,2.07-6.39Z"/>
  <path class="cls-3" d="m129.68,48.37c2.39,1.36,3.9,2.56,4.84,5.14-.35,2.29-1.55,3.29-3.1,4.86-1.07-.14-2.13-.51-3.16-.79-1.17-1.23-1.88-1.76-1.75-3.63.16-2.25,1.78-3.97,3.18-5.57Z"/>
  <path class="cls-6" d="m76.43,122.67c.83.31,1.3.45,2.09.95,1.77,1.11,2.25,2.31,2.7,4.24-.46,2.48-1.52,3.5-3.2,5.23-.67-.23-1.97-.57-2.57-1.03-1.44-1.12-2.13-2.31-2.03-4.18.11-2.12,1.68-3.74,3.02-5.21Z"/>
  <path class="cls-3" d="m96.46,81.08c.99.03,2.45-.06,3.37.27,1.83.64,2,1.47,2.74,3.08-.16,2.59-.7,4.18-1.84,6.49-.98-.21-2.2-.39-3.13-.81-1.79-.82-2.4-1.94-3.2-3.64,0-2.41.76-3.49,2.06-5.39Z"/>
  <path class="cls-8" d="m86.15,112.9c2.54.02,3.58.21,5.77,1.49,1.04,1.84,1.03,1.93.76,4.03-1.3,1.98-1.96,2.44-4.05,3.32-1.25-.06-2,0-3.13-.58-.43-.94-1.13-2.19-1.27-3.21-.33-2.41.65-3.24,1.92-5.06Z"/>
  <path class="cls-8" d="m85.5,121.16c-.43-.94-1.13-2.19-1.27-3.21-.33-2.41.65-3.24,1.92-5.06,1.15,1.87,1.79,2.67,1.58,4.95-.72,1.21-1.29,2.26-2.23,3.31Z"/>
  <path class="cls-4" d="m154.97,38.94c4.65-.02,9.3.11,13.95.07-.92,3.7-4.44,5.84-7.26,8.16-2.39-2.66-4.69-5.25-6.69-8.23Z"/>
  <path class="cls-8" d="m75.52,101.56c.86.15,2.33.28,3.15.67,1.91.9,2.17,1.54,2.99,3.34-.14,2.66-.99,4.14-2.34,6.4-1.05-.1-2.42-.2-3.36-.69-1.44-.74-2.34-2.13-2.51-3.72-.24-2.27.93-4.16,2.07-6Z"/>
  <path class="cls-3" d="m97.42,58.67c1.1.25,2.15.7,3.2,1.1.88,1.05,1.64,1.58,1.84,2.99.42,3.02-1,4.87-2.84,7.08-.89-.28-1.43-.41-2.3-.86-1.87-.97-2.45-2.12-3.1-4.01.26-2.76,1.53-4.16,3.2-6.3Z"/>
  <path class="cls-4" d="m134.2,38.96c4.81,0,9.63.1,14.44.05-1.64,3.37-5.43,6.47-7.98,9.24-2.07-3.17-4.48-6.05-6.46-9.29Z"/>
  <path class="cls-4" d="m113.83,39.04c4.65-.04,9.3-.13,13.95-.03-1.37,2.3-3.42,5.36-5.45,7.09-1.28,1.09-1.74.9-3.33.83-2.54-1.8-3.78-5.17-5.17-7.89Z"/>
  <path class="cls-1" d="m113.98,71.35c1.01-1.21,2.23-2.18,2.44-3.76.33-2.48.59-4.25,1.87-6.4,1.59-.64,2.05-.53,3.78-.32l1.28.98c-.05,3-1.76,5.05-3.49,7.44.34.04.68.07,1.02.11,2.84.35,4.45.57,6.71,2.35-3.76,1.21-7.14-.76-10.77.05-1.44.32-1.51.08-2.84-.45Z"/>
  <path class="cls-6" d="m86.39,91.29c1.66-.02,3.73.21,5.08,1.35,1.66,1.41,1.64,2.04,1.88,4.07-.64,2.23-1.89,2.96-3.67,4.25-.82-.03-2.4.04-3.22-.26-2.06-.75-2.24-1.33-2.98-3.2.14-2.69,1.35-4.09,2.91-6.21Z"/>
  <path class="cls-3" d="m76.54,57.82c.97.55,2.18,1.15,2.99,1.91,1.39,1.29,2.26,2.91,2.14,4.85-.17,2.51-1.67,4.07-3.29,5.82-1.02-.38-2.7-.8-3.52-1.54-.98-.88-1.72-1.82-1.89-3.14-.43-3.33,1.64-5.48,3.58-7.89Z"/>
  <path class="cls-1" d="m105.47,50.89c1.32-1.51,2.12-1.91,4.03-2.49,1.89.46,2.93.56,4.06,2.35,1.07,1.7,1.05,3.23.63,5.09-1.23,1.36-2.16,2.34-4.16,2.27-1-.03-1.69-.22-2.64-.43l-1.86-1.32c-.87-2.1-.54-3.36-.07-5.48Z"/>
  <path class="cls-1" d="m105.47,50.89c1.6,1.24,2.11,1.84,2.7,3.79-.18,1.13-.28,1.97-.78,3l-1.86-1.32c-.87-2.1-.54-3.36-.07-5.48Z"/>
  <path class="cls-3" d="m87.46,69.52c1.4.26,3.67,1.16,4.67,2.23,1.17,1.26,1.51,2.48,1.01,4.14-.71,2.32-3.05,3.5-4.98,4.66-2.13-.68-3.22-1.29-4.93-2.73-.89-2.02-.92-2.22-.53-4.39,1.41-1.93,2.7-2.76,4.78-3.91Z"/>
  <path class="cls-3" d="m85.36,48.68c2.19-.16,4.74-.54,6.63.84,1.35.98,2.05,2.18,2,3.87-.06,2.2-1.73,3.86-3.11,5.38-2.04.19-3.86.32-5.71-.84-1.49-.93-2.36-2.26-2.52-4.03-.19-2.22,1.33-3.74,2.7-5.23Z"/>
</svg>