<svg width="200" height="200" viewBox="0 0 200 200" fill="none" xmlns="http://www.w3.org/2000/svg">
<path d="M84.1986 34.6442C84.3669 32.6865 84.5462 30.8684 84.2001 28.9162C83.5431 25.2094 81.0763 21.3215 82.5853 17.5123C82.8525 16.8381 83.1849 16.2256 83.7419 15.7441C84.5091 15.0811 85.4673 14.9059 86.4564 14.9929C87.5646 15.0903 88.5173 15.7888 89.1896 16.643C89.29 16.7719 89.3876 16.9028 89.483 17.0357L89.6357 17.0826C90.7654 16.0449 91.7826 15.277 93.4068 15.3133C94.3501 15.3258 95.2447 15.7349 95.8712 16.4403C96.5962 17.2412 96.9834 18.4153 97.4373 19.3864C98.7685 19.0376 100.004 18.8888 101.264 19.6169C101.946 20.0111 102.426 20.6372 102.615 21.4027C102.874 22.4423 102.572 23.5715 102.26 24.5689C103.735 25.074 104.883 25.6733 105.585 27.1582C106.003 28.0425 106.206 29.0555 105.875 30.0025C105.519 31.0234 104.602 31.6795 103.65 32.1021C102.53 32.5995 101.285 32.7478 100.102 33.0357C97.0798 33.7708 94.8212 35.8738 92.749 38.1025C95.6798 41.2136 97.365 43.6163 98.6306 47.7609C100.692 47.0234 102.137 46.4855 104.264 47.4953C107.463 49.0136 109.392 52.7695 110.498 55.9609C111.449 58.7078 112.253 62.0816 112.192 65.0042C113.976 60.7003 115.997 56.7273 119.64 53.6667C120.768 52.7191 122.011 51.8542 123.381 51.296C125.041 50.6199 126.93 50.314 128.626 51.0495C130.51 51.8667 131.67 53.7128 132.357 55.5675C134.177 60.4859 133.647 67.2328 132.253 72.2117C132.96 71.2265 133.621 70.2035 134.374 69.2538C137.268 65.6074 141.219 62.0765 145.961 61.3042C147.637 61.0312 149.338 61.2429 150.742 62.2663C152.428 63.496 153.222 65.8324 153.493 67.8265C154.147 72.6281 152.736 79.0363 150.367 83.2609C151.647 82.4031 152.808 81.3859 154.085 80.5273C157.326 78.3492 161.812 76.4081 165.801 77.1691C167.351 77.4652 168.77 78.1617 169.651 79.5273C171.072 81.7312 170.814 84.7706 170.231 87.1976C169.2 91.4894 166.743 96.1589 163.522 99.2003C167.626 97.9464 172.92 97.2679 176.868 99.3949C178.176 100.099 179.211 101.289 179.639 102.724C180.45 105.442 178.853 108.975 177.549 111.287C175.689 114.582 172.571 117.178 169.387 119.16C168.322 119.823 167.155 120.357 166.236 121.224C169.756 120.296 174.558 121.306 177.659 123.125C179.108 123.976 180.539 125.354 180.981 127.018C181.461 128.825 180.767 130.763 179.824 132.303C176.497 137.738 168.238 141.526 162.184 142.948C161.874 143.018 161.56 143.071 161.244 143.109C163.784 143.86 166.444 145.585 167.744 147.958C168.576 149.484 168.767 151.278 168.276 152.945C167.502 155.582 164.991 157.655 162.652 158.899C155.483 162.711 146.952 162.26 139.394 159.926C135.06 158.587 130.792 156.421 127.093 153.793C126.451 153.335 125.704 152.88 125.19 152.278C124.4 153.505 123.438 154.647 122.504 155.765C118.288 160.809 113.82 164.064 107.78 166.591C107.483 166.716 105.979 167.258 105.873 167.561C105.831 167.682 105.969 168.257 106.001 168.41C106.324 169.95 106.841 171.455 107.22 172.984C107.576 174.422 107.801 175.912 108.217 177.33C111.329 177.599 117.961 178.156 120.085 180.616C120.387 180.966 120.631 181.436 120.602 181.911C120.583 182.231 120.42 182.526 120.177 182.733C119.771 183.078 119.304 183.272 118.807 183.443C119.523 184.146 119.875 184.793 120.202 185.743C120.035 186.112 119.878 186.492 119.679 186.844C117.938 188 117.533 187.171 116.133 187.536C116.003 187.57 115.917 187.559 115.894 187.709C115.79 188.36 116.254 189.016 115.586 189.528C114.992 189.982 113.571 189.715 112.876 189.544C109.817 188.794 105.989 186.23 104.346 183.524C103.849 182.708 103.485 181.818 103.267 180.887C102.127 181.675 101.01 182.704 99.7353 183.252C99.4169 181.931 99.2783 180.674 100.006 179.441C100.719 178.234 101.958 177.66 103.189 177.128C102.401 174.312 101.757 171.57 101.217 168.7C97.9232 168.935 94.5834 169.319 91.283 168.984C91.3751 170.355 91.8677 176.071 92.6119 176.72C92.974 177.035 93.6459 177.196 94.0908 177.393C95.9837 178.228 97.1834 179.855 97.4341 181.913C97.4759 182.258 97.4841 182.773 97.2716 183.074C97.1908 183.189 97.1345 183.229 96.9935 183.234C96.0333 183.268 93.956 181.426 93.1216 180.789C92.7291 184.202 91.1314 186.123 88.4666 188.238C87.2615 189.194 85.5638 190.081 83.9775 189.904C83.6685 189.869 83.3744 189.816 83.1615 189.571C82.8068 189.164 82.7451 187.62 82.5248 187.562C81.3904 187.264 79.3501 188.7 78.1888 187.321C78.0541 187.16 77.9462 186.975 77.8341 186.798L77.7728 186.703C77.89 186.06 77.9865 185.402 78.174 184.776C77.331 184.839 76.1005 185.005 75.4103 184.415C75.2451 183.998 75.3486 183.585 75.5212 183.175C76.3982 181.093 79.4568 179.632 81.4419 178.882C83.2177 178.21 85.0505 177.793 86.8658 177.254C86.0494 174.216 85.5548 171.107 84.7076 168.076C84.6724 168.054 84.6373 168.031 84.6013 168.01C83.7634 167.507 82.7517 167.246 81.8318 166.919C80.6447 166.497 79.4603 166.049 78.3275 165.495C74.4599 163.602 70.8447 160.709 68.1658 157.333C67.1728 156.081 66.3978 154.679 65.3517 153.461C58.0962 158.157 50.2548 160.935 41.5228 159.071C37.9615 158.311 33.6543 156.738 31.573 153.546C30.4461 151.818 29.8293 149.814 30.2696 147.765C30.824 145.186 32.6247 143.258 34.7898 141.874C35.8507 141.196 36.9064 140.75 38.0977 140.359L37.9156 140.307C36.1289 139.816 34.2541 139.659 32.4459 139.245C27.5037 138.113 22.0279 135.383 19.3764 130.861C18.2575 128.952 17.7207 126.951 18.3178 124.776C18.8598 122.801 20.1473 121.428 21.9009 120.435C24.8772 118.75 29.0519 118.61 32.3714 119.068C31.0541 118.085 29.5934 117.316 28.2784 116.338C24.3229 113.398 20.5822 109.073 19.8264 104.049C19.5518 102.223 19.6294 99.7718 20.8101 98.2542C22.1177 96.5734 24.5766 95.8382 26.6089 95.6335C29.7484 95.3179 32.9214 95.8335 35.9105 96.7835C37.0596 97.1488 38.1913 97.5968 39.3482 97.93C39.5962 98.0749 39.8517 98.2808 40.1498 98.2558C40.0912 97.966 39.9064 97.8347 39.7123 97.6195C35.8494 94.0199 32.9284 88.6792 31.7127 83.5863C31.6135 83.3913 31.5948 83.0913 31.5525 82.8738C31.3946 80.082 31.001 76.9968 32.994 74.6878C34.0102 73.5109 35.4498 72.9749 36.964 72.8785C42.2638 72.5406 46.7771 75.3437 50.5857 78.723C50.8099 78.9523 50.9767 79.1296 51.2837 79.2492C51.306 78.9933 51.1408 78.8304 51.0095 78.6152C50.5931 77.8636 50.3056 77.021 49.9705 76.2292C48.1783 71.9956 46.3705 66.4343 47.6873 61.8652C48.1033 60.4214 48.8896 59.2867 50.2416 58.5699C51.5994 57.8503 53.8334 57.5624 55.3095 58.041C55.4955 58.1011 55.6763 58.1796 55.8548 58.2589C56.4705 57.6081 57.0341 56.907 57.7029 56.3101C59.4724 54.7308 61.8103 54.2191 63.9119 53.2449C62.9912 50.6781 63.7326 47.5175 64.858 45.1394C65.6779 43.407 66.8716 41.8007 68.622 40.9324C69.3166 40.5878 70.0845 40.3402 70.7513 39.9484C71.4705 39.5257 72.1208 38.9096 72.8021 38.4213C73.6896 37.7857 74.6927 37.2302 75.5166 36.5186C74.197 35.9837 72.9779 35.8529 71.6255 36.4357C70.9373 36.7324 70.3154 37.1424 69.6423 37.4633C70.5298 35.8881 72.2236 34.1972 73.9908 33.6617C74.6353 33.4664 75.2748 33.4804 75.8681 33.821C76.822 34.3688 77.5556 36.1627 78.6634 35.8638C79.3779 35.6711 80.0576 35.3262 80.7662 35.1074C81.8244 34.7806 83.0958 34.7186 84.1986 34.6442ZM91.0212 115.193C89.5384 111.552 87.183 105.026 86.8794 101.196C86.9412 100.86 86.9814 100.518 87.0267 100.179L86.7126 100.128L86.7103 101.36C86.5029 102.557 86.9791 104.045 87.2181 105.228C87.9423 108.815 88.6185 112.635 90.1552 115.98C90.4673 115.744 90.7404 115.465 91.0212 115.193ZM95.9283 99.2945C96.0814 99.8054 96.2252 100.312 96.4541 100.796L96.5287 100.805C96.572 100.218 96.3458 99.6749 96.1439 99.132C95.9119 98.2855 95.6056 97.5222 95.1865 96.7511L94.606 97.0589C95.2294 97.7644 95.5923 98.4179 95.9283 99.2945ZM64.4103 49.9917L64.5767 49.9507C64.7822 49.7824 64.899 49.6382 65.0072 49.3929C65.1673 49.0304 65.265 48.5031 65.0888 48.1308C65.0252 47.9956 64.9091 47.9859 64.7806 47.9296C64.5884 48.6175 64.4447 49.2745 64.4103 49.9917ZM145 126.85C144.754 126.979 144.572 127.042 144.412 127.277C144.652 127.266 144.811 127.218 145.033 127.125L145 126.85ZM73.3447 47.6386C73.1791 47.432 73.0818 47.2339 72.9763 46.9945C72.9841 47.364 72.9466 47.7921 73.0951 48.1355C73.2666 48.0324 73.2822 47.8253 73.3447 47.6386ZM42.0923 139.085C41.8162 139.201 41.5841 139.249 41.2869 139.284C41.8431 139.379 42.358 139.401 42.9185 139.333L42.8744 139.318L42.806 139.204C42.5701 139.15 42.3322 139.119 42.0923 139.085ZM95.0896 84.1988L94.8419 84.4679C95.0134 85.2285 95.163 85.9464 95.4861 86.6609L95.0896 84.1988Z" fill="black"/>
<path d="M76.2921 36.9068C76.9386 37.0977 77.5285 37.3822 78.1628 37.6014L78.266 37.4923C78.1839 37.2231 78.0632 36.9562 78.1339 36.6739C78.3652 36.4639 78.5847 36.3397 78.8761 36.2241C81.3367 35.2484 85.03 35.6005 87.4332 36.6079C91.4539 38.2939 94.6949 42.0117 96.3023 45.9906C97.0308 47.7937 97.4136 49.6566 97.6867 51.5726C98.6402 58.2695 97.1699 63.6434 93.3613 69.1914C91.5726 71.7969 89.3707 74.0555 88.1324 77.0062C87.0535 79.5766 86.3117 82.3035 85.7566 85.0301C83.9328 93.9871 84.7035 101.632 86.9468 110.396C88.1671 115.116 89.7074 119.748 91.5574 124.258C95.3906 133.63 102.906 145.789 112.706 149.824C116.971 151.58 120.63 151.146 124.789 149.431L125.916 148.918C125.627 149.37 125.35 149.859 125.025 150.284C121.301 155.725 116.268 160.143 110.389 163.129C102.256 167.267 92.3832 167.846 83.739 165.018C75.841 162.434 69.348 157.24 65.6 149.742C63.6058 145.752 62.5894 141.3 62.4144 136.853C62.0504 127.589 64.4074 117.271 66.5519 108.266C67.3613 104.866 68.0996 101.43 68.9914 98.0527C71.4328 88.8043 74.3714 79.6644 77.3597 70.5801C77.5957 70.6117 77.8328 70.6375 78.0703 70.6562C81.364 70.9348 84.6316 70.5851 87.2414 68.3851C86.1933 68.7492 85.2035 69.2262 84.1211 69.5C80.1464 70.5055 76.0007 69.3504 72.2781 67.9617C72.3429 67.9402 72.4078 67.9184 72.4722 67.8957C75.6449 66.7766 78.6425 63.675 80.0695 60.6601C82.1925 60.8957 84.2253 60.9769 86.2109 60.0703C88.5828 58.9871 90.3609 56.6484 91.2421 54.2379C91.9964 52.1742 92.2453 49.4433 91.2519 47.4144C90.5109 45.9004 89.0785 44.7891 87.5089 44.2344C85.4765 43.5156 83.2535 43.8176 81.3382 44.7363C77.8984 46.3871 76.6421 49.8754 75.4621 53.2559C74.3281 52.0672 72.7074 51.6363 71.1394 51.4125C72.3441 50.4387 73.3546 49.0504 73.9089 47.6C74.4992 46.0555 74.7605 43.7004 74.0449 42.1668C73.5019 41.0023 72.5918 40.4363 71.4238 40.034C72.8765 38.7479 74.5183 37.6931 76.2921 36.9068Z" fill="#0B8DCB"/>
<path d="M124.789 149.431L125.916 148.918C125.627 149.37 125.35 149.859 125.025 150.284C125.041 150.203 125.069 150.073 125.075 149.994C125.1 149.68 124.99 149.641 124.789 149.431Z" fill="#0B8DCB"/>
<path d="M87.6289 38.0998C88.1109 38.0576 88.6031 38.0806 89.0867 38.0841C89.9383 38.6083 90.7133 39.136 91.3281 39.9387C91.9578 40.7614 92.9887 42.7094 92.7832 43.7602C92.7473 43.9442 92.7789 43.8755 92.6113 43.9934C92.2891 43.863 92.1274 43.5692 91.9297 43.2985C91.3895 42.5938 90.8543 41.9493 90.0848 41.4805C89.1559 40.9145 85.9957 40.395 85.6606 39.9379C85.5715 39.8161 85.6188 39.6997 85.6301 39.5587C86.0652 38.8162 86.8566 38.4091 87.6289 38.0998Z" fill="black"/>
<path d="M103.488 111.957C108.063 111.698 112.617 112.75 116.615 114.989C121.641 117.849 125.422 122.624 127.517 127.973C128.072 129.39 128.47 130.852 128.874 132.317C127.457 133.169 125.97 133.977 124.304 134.18C120.617 134.631 117.696 132.568 115.939 129.443C115.585 128.814 115.009 127.405 114.525 127.022C114.389 127.183 114.368 127.227 114.372 127.449C114.412 129.341 116.084 132.162 117.482 133.417C119.212 134.955 121.482 135.744 123.793 135.61C126.216 135.464 127.352 134.51 128.907 132.771C129.103 134.82 129.348 136.957 129.204 139.014C129.125 141.544 128.465 144.413 127.182 146.612C126.079 148.502 124.107 149.375 122.071 149.903C117.874 150.992 113.866 150.118 110.173 147.929C107.676 146.449 105.265 144.468 103.291 142.334C97.3723 135.935 92.3012 125.279 90.1777 116.847C93.6172 113.73 98.9383 112.23 103.488 111.957Z" fill="#8EBA7C"/>
<path d="M104.525 115.601L104.69 115.64L104.788 115.812C104.265 116.879 102.8 117.64 101.786 118.147C102.191 119.155 102.618 120.18 103.192 121.105C104.181 122.702 105.672 124.12 107.55 124.54C109.846 125.054 111.706 124.272 113.619 123.076C113.419 123.469 113.225 123.829 112.911 124.144C111.675 125.385 110.031 125.773 108.337 125.785C106.837 125.554 105.572 125.145 104.397 124.149C102.606 122.63 101.69 120.487 101.501 118.171C100.644 118.312 99.6634 118.381 98.8454 118.051C97.6708 117.576 97.1521 116.461 96.6665 115.378C97.6278 116.192 98.3735 117.127 99.6974 117.353C101.577 117.674 103.09 116.642 104.525 115.601Z" fill="black"/>
<path d="M101.731 129.929C101.841 130.016 101.906 130.086 101.966 130.219C102.211 130.762 102.336 131.422 102.509 131.996C102.901 133.296 103.417 134.513 104.151 135.659C105.64 137.981 108.114 139.882 110.982 139.914C111.735 139.923 112.67 139.523 113.386 139.677C113.405 139.986 113.323 140.134 113.178 140.392C112.128 140.825 111.06 141.037 109.921 140.942C107.767 140.763 105.756 139.583 104.393 137.93C102.558 135.708 101.435 132.824 101.731 129.929Z" fill="black"/>
<path d="M111.014 115.478C111.585 115.686 112.18 117.108 112.53 117.665C113.346 118.963 114.517 120.04 115.802 120.863C116.942 121.593 118.259 122.231 119.603 122.457C120.25 122.567 122.58 122.338 122.788 122.467C122.7 122.74 122.571 122.809 122.357 122.995C121.852 123.347 121.353 123.577 120.741 123.677C118.909 123.975 116.895 123.122 115.427 122.086C113.181 120.502 111.47 118.212 111.014 115.478Z" fill="black"/>
<path d="M113.724 138.62C114.409 139.114 115.274 141.249 116.224 142.159C117.814 143.682 120.624 144.272 122.705 143.586C123.268 143.401 124.111 142.823 124.651 142.812L124.665 142.936L124.353 143.238C124.27 143.308 124.185 143.373 124.096 143.437C122.533 144.553 120.908 144.912 119.017 144.573C117.244 144.252 115.667 143.247 114.628 141.775C114.037 140.925 113.529 139.666 113.724 138.62Z" fill="black"/>
<path d="M120.381 61.8379C121.481 61.7348 122.736 61.9039 123.751 62.3461C125.697 63.193 127.043 65.007 127.787 66.9402C128.465 68.7019 128.747 70.5281 128.846 72.4039C129.145 78.1516 127.326 83.1262 125.039 88.2793C124.115 87.8066 123.181 87.5476 122.143 87.4879C119.522 87.3371 117.392 88.5492 115.501 90.2566C114.242 91.4004 113.595 92.791 112.89 94.3035C112.914 93.8781 112.933 93.4523 112.947 93.0266C113.07 89.5824 112.403 84.6051 109.95 81.9707C109.989 76.5031 111.291 70.2723 114.441 65.7555C115.92 63.634 117.819 62.3059 120.381 61.8379Z" fill="#3B773B"/>
<path d="M120.709 68.9548C121.364 68.9212 122.027 69.0087 122.615 69.3126C123.447 69.7426 124.039 70.5106 124.292 71.4075C124.564 72.4032 124.429 73.4665 123.917 74.363C123.446 75.1735 122.791 75.6169 121.902 75.8626C121.19 75.8985 120.571 75.9122 119.908 75.5923C119.128 75.2161 118.59 74.518 118.324 73.704C117.995 72.695 118.004 71.461 118.526 70.5176C119.014 69.6364 119.776 69.2231 120.709 68.9548Z" fill="black"/>
<path d="M120.771 69.4398C121.241 69.4105 121.801 69.4843 122.233 69.6738C122.937 69.9808 123.483 70.5628 123.745 71.2839C123.978 71.923 123.979 72.6472 123.683 73.2668C123.293 74.0851 122.634 74.4214 121.812 74.6976C121.421 74.73 121.043 74.7207 120.67 74.5898C119.891 74.3222 119.264 73.7351 118.944 72.9761C118.676 72.3507 118.623 71.6562 118.891 71.021C119.249 70.1738 119.968 69.7769 120.771 69.4398Z" fill="#EA6F1C"/>
<path d="M140.126 71.5211C141.051 71.5617 141.937 71.727 142.789 72.0961C144.392 72.7918 145.586 74.1817 146.212 75.7957C146.765 77.2203 146.895 78.7426 146.889 80.2578C146.862 86.1438 144.608 89.3504 142.393 94.4008C140.691 93.6789 139.173 93.4059 137.353 93.8614C132.272 95.1324 128.935 99.7664 126.361 104.008C125.873 104.755 124.88 106.746 124.195 107.195C124.144 106.667 126.174 103.059 126.573 102.083C127.042 100.936 127.401 99.7461 127.645 98.5301C128.327 95.1696 128.245 92.259 126.302 89.3465C126.674 88.2145 127.205 87.1196 127.65 86.0133C128.387 84.1805 129.038 82.2328 130.011 80.5125C130.714 79.268 131.658 78.0606 132.522 76.9192C134.329 74.5317 137.029 71.9422 140.126 71.5211Z" fill="#3B773B"/>
<path d="M138.833 77.2993C140.049 77.2157 141.216 77.7914 141.889 78.8075C142.563 79.8231 142.639 81.1223 142.089 82.2098C141.538 83.2973 140.446 84.0055 139.229 84.0645C137.373 84.1543 135.791 82.7329 135.683 80.8782C135.574 79.0235 136.979 77.427 138.833 77.2993Z" fill="black"/>
<path d="M138.758 77.746C139.26 77.7159 139.68 77.7163 140.147 77.9316C140.869 78.2585 141.428 78.8636 141.697 79.6089C141.925 80.2448 141.92 80.9757 141.601 81.5808C141.18 82.3804 140.483 82.6839 139.65 82.9124C139.086 82.9237 138.572 82.8819 138.053 82.6409C137.355 82.3175 136.81 81.7331 136.572 80.9983C136.369 80.3737 136.41 79.6909 136.734 79.1155C137.172 78.3378 137.933 77.9749 138.758 77.746Z" fill="#EA6F1C"/>
<path d="M133.862 132.946C138.61 130.788 143.46 128.866 148.397 127.187C151.278 126.199 154.229 125.183 157.23 124.631C159.544 124.205 162.454 123.876 164.701 124.711C166.276 125.296 167.828 126.532 168.517 128.09C169.103 129.416 169.113 131.02 168.565 132.355C167.247 135.569 163.32 137.766 160.269 139.012C155.496 140.959 150.471 141.593 145.339 141.217C145.935 139.824 146.02 138.611 145.47 137.175C144.873 135.615 143.678 134.597 142.179 133.959C139.733 132.916 136.979 132.932 134.38 133.162C134.182 133.118 134.044 133.037 133.862 132.946Z" fill="#3B773B"/>
<path d="M159.222 128.007C161.097 127.934 162.685 129.376 162.794 131.25C162.903 133.123 161.493 134.739 159.622 134.885C158.379 134.982 157.18 134.399 156.488 133.362C155.796 132.325 155.719 130.994 156.286 129.884C156.853 128.773 157.976 128.055 159.222 128.007Z" fill="black"/>
<path d="M159.005 128.707C160.412 128.477 161.747 129.407 162.018 130.807C162.288 132.207 161.397 133.568 160.005 133.878C159.069 134.087 158.093 133.771 157.458 133.052C156.823 132.334 156.628 131.327 156.95 130.423C157.271 129.52 158.059 128.862 159.005 128.707Z" fill="#EA6F1C"/>
<path d="M61.9989 68.7903C63.0625 68.6836 64.129 68.7751 65.1477 69.109C65.9102 69.359 66.6282 69.7348 67.3407 70.0997C67.9805 70.427 68.677 70.7547 69.2286 71.2211C71.1 72.8047 71.9407 76.3372 73.0583 78.4797L73.109 78.575C72.3313 80.886 71.4422 83.1481 70.7547 85.4911C70.0176 88.0024 69.3043 90.5391 68.6192 93.0645C68.2457 94.4395 67.7375 97.1485 67.0629 98.3063L66.9282 98.3254L66.7708 98.0985C65.5969 96.2848 63.8536 95.1543 62.4645 93.559C61.6743 92.6512 61.0637 91.4985 60.4344 90.4723C58.0977 86.661 55.745 82.5438 55.1954 78.0243C54.9028 75.6172 55.195 73.4098 56.7368 71.4707C58.0387 69.8329 59.954 69.0133 61.9989 68.7903Z" fill="#3B773B"/>
<path d="M62.8898 75.3488C64.7312 75.0465 66.4664 76.3039 66.7527 78.1481C67.039 79.9922 65.7672 81.7164 63.9207 81.9871C62.0965 82.2543 60.3976 81.0012 60.1144 79.1789C59.8316 77.357 61.0703 75.6477 62.8898 75.3488Z" fill="black"/>
<path d="M63.071 75.9011C64.4671 75.6918 65.7683 76.6558 65.9745 78.0523C66.1812 79.4488 65.2148 80.748 63.8179 80.9519C62.4245 81.155 61.13 80.1921 60.9238 78.7992C60.7179 77.4062 61.6788 76.1097 63.071 75.9011Z" fill="#EA6F1C"/>
<path d="M37.6123 122.015C37.6209 122.014 37.6295 122.013 37.6381 122.012C39.7565 121.876 45.9769 122.607 47.7288 123.952C48.3995 124.467 48.9245 125.236 49.5218 125.839C50.9433 127.273 52.7276 128.43 54.5132 129.353C55.446 129.835 56.405 130.295 57.3862 130.669C57.9612 130.889 60.4753 131.579 60.7097 131.812C60.8347 131.937 60.7878 132.209 60.7913 132.381C60.7265 132.502 60.7093 132.617 60.5706 132.665C60.2269 132.785 59.6687 132.721 59.2976 132.724C57.3511 132.74 55.2491 132.727 53.6655 134.043C52.3151 135.164 52.0421 136.605 51.8702 138.248L51.8827 139.527C46.4456 139.7 41.7718 139.176 36.8308 136.763C35.5764 136.15 34.3372 135.495 33.237 134.628C31.488 133.25 29.9544 131.225 29.7175 128.948C29.568 127.511 30.0962 126.123 31.0228 125.036C32.6887 123.082 35.1134 122.225 37.6123 122.015Z" fill="#3B773B"/>
<path d="M38.4696 126.613C40.1822 126.2 41.9053 127.253 42.3201 128.965C42.7346 130.677 41.6846 132.402 39.9732 132.819C38.2583 133.238 36.5291 132.184 36.1135 130.469C35.6978 128.753 36.7533 127.025 38.4696 126.613Z" fill="black"/>
<path d="M39.0929 127.083C40.512 127.045 41.6909 128.168 41.7233 129.588C41.7554 131.006 40.6284 132.182 39.2093 132.209C37.7972 132.236 36.6293 131.115 36.5974 129.704C36.5654 128.291 37.6813 127.12 39.0929 127.083Z" fill="#EA6F1C"/>
<path d="M36.9896 101.411C37.1563 101.411 37.323 101.412 37.4897 101.415C42.8069 101.484 47.8909 104.595 52.2346 107.399C53.535 108.238 54.9362 109.051 56.101 110.072C57.1963 111.031 57.9452 112.27 58.9213 113.336C60.1084 114.632 61.4604 115.803 62.6909 117.063L62.5803 117.105L62.7299 117.088L62.7034 117.204L62.8534 117.313C62.0319 117.172 61.0647 116.331 60.3584 115.9C57.7018 114.279 54.319 112.926 51.1635 113.075C50.0498 113.231 48.9741 113.553 48.0592 114.227C46.3674 115.473 45.5041 117.836 45.9444 119.898C46.0752 120.511 46.4709 121.231 46.3784 121.869C45.4694 121.803 44.5694 121.424 43.7245 121.105C40.6748 119.955 37.9043 118.403 35.4243 116.278C33.0395 114.235 30.6251 111.179 30.4055 107.916C30.3011 106.364 30.763 104.89 31.8087 103.722C33.1348 102.243 35.0421 101.529 36.9896 101.411Z" fill="#3B773B"/>
<path d="M38.3063 105.706C40.0589 105.466 41.6808 106.673 41.9539 108.421C42.2269 110.169 41.0503 111.813 39.3078 112.119C38.1513 112.322 36.9752 111.884 36.2324 110.975C35.4896 110.066 35.296 108.826 35.7261 107.733C36.1561 106.64 37.1428 105.865 38.3063 105.706Z" fill="black"/>
<path d="M38.3707 106.318C39.7263 106.142 40.9735 107.084 41.1735 108.436C41.3739 109.789 40.4536 111.052 39.1048 111.276C38.2114 111.424 37.3073 111.079 36.7403 110.372C36.1733 109.666 36.0315 108.709 36.3695 107.868C36.7075 107.028 37.4725 106.436 38.3707 106.318Z" fill="#EA6F1C"/>
<path d="M154.157 86.2534C155.158 86.1218 156.347 86.1687 157.329 86.412C158.899 86.7925 160.246 87.798 161.056 89.1956C161.931 90.7152 161.987 92.6722 161.555 94.3437C161.117 96.0378 160.185 97.5034 159.126 98.873C155.553 103.491 151.316 105.757 146.37 108.618C144.5 109.698 142.665 110.835 140.799 111.921C139.352 112.766 137.873 113.748 136.319 114.377C139.626 111.628 142.999 107.265 144.194 103.109C144.95 100.477 144.859 97.9484 143.507 95.5148C144.24 94.3695 144.858 93.1574 145.617 92.0238C147.635 89.0081 150.572 86.9644 154.157 86.2534Z" fill="#3B773B"/>
<path d="M153.459 90.7656C155.272 90.3645 157.067 91.5051 157.474 93.3164C157.88 95.1277 156.745 96.9266 154.934 97.3383C153.117 97.752 151.309 96.6105 150.901 94.7918C150.493 92.973 151.639 91.1684 153.459 90.7656Z" fill="black"/>
<path d="M153.567 91.2973C154.501 91.0562 155.493 91.3371 156.162 92.0316C156.832 92.7262 157.076 93.7277 156.801 94.6527C156.527 95.5777 155.776 96.2832 154.835 96.4996C153.407 96.8281 151.981 95.9481 151.633 94.5246C151.287 93.1012 152.148 91.6629 153.567 91.2973Z" fill="#EA6F1C"/>
<path d="M142.385 112.535C144.868 111.038 147.395 109.646 149.897 108.185C152.54 106.642 155.247 104.695 158.17 103.739C159.926 103.165 161.996 102.915 163.81 103.358C165.489 103.767 167.075 104.86 167.991 106.337C168.816 107.666 168.995 109.332 168.617 110.836C167.489 115.323 162.489 118.544 158.704 120.724C154.438 123.181 149.727 125.6 145.033 127.125L145 126.85C145.039 126.816 145.079 126.781 145.118 126.747C145.759 126.198 146.594 125.837 147.275 125.326C149.46 123.687 151.88 120.888 152.14 118.052C152.266 116.678 151.925 115.343 151.031 114.273C149.934 112.957 148.44 112.365 146.778 112.222C145.306 112.095 143.823 112.201 142.385 112.535Z" fill="#3B773B"/>
<path d="M159.175 108.331C161.025 108.311 162.547 109.784 162.588 111.634C162.63 113.485 161.174 115.024 159.325 115.087C158.109 115.128 156.965 114.512 156.329 113.475C155.694 112.437 155.665 111.139 156.254 110.074C156.843 109.009 157.958 108.344 159.175 108.331Z" fill="black"/>
<path d="M159.192 108.841C160.633 108.783 161.85 109.901 161.915 111.343C161.978 112.784 160.865 114.005 159.424 114.074C157.975 114.144 156.745 113.023 156.681 111.574C156.617 110.125 157.743 108.9 159.192 108.841Z" fill="#EA6F1C"/>
<path d="M145.142 142.607C146.868 142.538 149.018 142.48 150.701 142.866C152.931 143.378 155.269 144.856 156.478 146.827C157.244 148.06 157.477 149.551 157.124 150.959C156.657 152.789 155.204 154.259 153.633 155.218C149.547 157.713 144.805 157.106 140.373 156.061C135.566 154.561 131.138 152.328 127.179 149.208C127.528 148.688 127.856 148.187 128.312 147.752C129.529 147.523 130.799 147.501 132.03 147.339C134.672 146.992 137.492 146.401 140.005 145.5C141.935 144.808 142.905 143.732 144.527 142.767C144.711 142.657 144.932 142.631 145.142 142.607Z" fill="#3B773B"/>
<path d="M147.346 146.63C149.288 146.417 151.034 147.821 151.243 149.763C151.451 151.705 150.043 153.448 148.1 153.651C146.164 153.854 144.429 152.452 144.222 150.517C144.014 148.582 145.412 146.843 147.346 146.63Z" fill="black"/>
<path d="M147.279 147.416C148.723 147.052 150.188 147.929 150.549 149.373C150.911 150.818 150.03 152.281 148.586 152.639C147.145 152.996 145.687 152.12 145.326 150.68C144.966 149.239 145.84 147.78 147.279 147.416Z" fill="#EA6F1C"/>
<path d="M101.093 59.8774C101.409 59.8512 101.736 59.8263 102.053 59.8399C103.789 59.9165 105.276 60.7673 106.424 62.0356C111.127 67.2333 108.803 74.3778 108.483 80.5798C107.051 79.8794 105.467 79.5059 103.887 79.8848C101.476 80.463 99.8952 82.2009 98.655 84.2466C97.871 85.7794 97.5175 87.3716 97.0562 89.0196C96.4425 86.8634 96.3128 84.6263 95.919 82.427C95.2671 78.7852 94.4597 75.1825 93.7651 71.5505C94.7069 69.8934 95.9163 68.4102 96.7933 66.7098C97.7729 64.8098 98.2745 62.7942 99.0647 60.8294C99.719 60.329 100.309 60.0852 101.093 59.8774Z" fill="#3B773B"/>
<path d="M101.22 66.4265C101.908 66.405 102.409 66.4664 103.008 66.8265C103.814 67.3113 104.381 68.1675 104.603 69.0722C104.838 70.0281 104.732 71.1504 104.184 71.9855C103.641 72.8148 102.889 73.141 101.946 73.3113C101.417 73.3062 100.865 73.2175 100.375 73.0132C99.6394 72.7066 99.1117 72.1308 98.8199 71.3949C98.4253 70.3996 98.4519 69.1515 98.9222 68.1859C99.4257 67.1515 100.191 66.7789 101.22 66.4265Z" fill="black"/>
<path d="M101.218 66.9942C101.815 66.9719 102.296 67.0524 102.811 67.3782C103.462 67.7844 103.918 68.4403 104.071 69.1926C104.212 69.8575 104.113 70.5965 103.726 71.1637C103.29 71.8016 102.713 72.018 101.982 72.1649C101.466 72.1672 100.974 72.0852 100.52 71.8243C99.601 71.2953 99.308 70.3332 99.0654 69.3727C99.1291 69.1422 99.1924 68.9086 99.2768 68.6844C99.6428 67.7149 100.322 67.3696 101.218 66.9942Z" fill="#EA6F1C"/>
<path d="M46.3815 82.164C46.8804 82.0714 47.4616 82.0918 47.9667 82.1226C49.553 82.2199 51.785 82.6418 53.1229 83.5214C54.9663 84.7328 58.5811 90.755 60.4807 92.8914C59.0389 92.5664 57.5186 92.4847 56.1288 93.0695C54.6682 93.6835 53.5909 94.9777 53.0382 96.4386C51.7913 99.7336 52.9143 103.185 54.2929 106.225C54.5354 106.796 54.8347 107.344 55.1186 107.896C53.6772 106.746 52.1261 105.734 50.6706 104.601C47.1229 101.838 43.7847 98.2808 41.7546 94.2496C41.1022 92.9539 40.4339 91.5843 40.2081 90.1402C39.9202 88.2964 40.1327 86.5398 41.2593 85.005C42.4999 83.3144 44.3538 82.4828 46.3815 82.164Z" fill="#3B773B"/>
<path d="M47.794 87.961C49.637 87.5583 51.4546 88.7368 51.839 90.5841C52.2237 92.4309 51.0273 94.2368 49.1769 94.6032C47.3515 94.9649 45.5753 93.7884 45.1964 91.9669C44.8171 90.145 45.9761 88.3579 47.794 87.961Z" fill="black"/>
<path d="M47.8605 88.4969C48.3609 88.4454 48.8269 88.4337 49.3082 88.6047C50.0429 88.8626 50.6429 89.4055 50.9726 90.111C51.275 90.7653 51.314 91.5505 51.0371 92.2204C50.707 93.0184 50.0902 93.4508 49.3144 93.7637C48.7929 93.8696 48.3007 93.8997 47.7902 93.7176C47.0738 93.4622 46.5386 92.895 46.2476 92.2008C45.9535 91.5001 45.898 90.6719 46.1996 89.9641C46.5414 89.1618 47.0898 88.8247 47.8605 88.4969Z" fill="#EA6F1C"/>
<path d="M51.9186 140.869L52.1858 140.862C52.7502 141.176 53.2569 142.061 53.6944 142.559C55.8697 145.032 58.9862 145.272 62.0651 145.462C62.2553 146.209 63.9729 150.566 63.8768 150.838C60.2084 152.833 56.8795 154.139 52.7565 154.881C52.6186 154.898 52.4807 154.915 52.3424 154.93C49.235 155.284 45.349 155.255 42.7865 153.179C41.669 152.273 40.9334 151.07 40.7912 149.62C40.628 147.952 41.1725 146.46 42.242 145.194C44.5533 142.457 48.4471 141.161 51.9186 140.869Z" fill="#3B773B"/>
<path d="M49.2193 145.535C49.9267 145.488 50.5576 145.575 51.1927 145.909C52.0689 146.368 52.7587 147.177 53.0169 148.138C53.2326 148.94 53.1505 149.828 52.715 150.544C52.2142 151.367 51.4154 151.724 50.5119 151.936C49.6462 152.004 48.8849 151.897 48.1419 151.416C47.3494 150.896 46.8044 150.074 46.6337 149.142C46.4755 148.314 46.6091 147.415 47.108 146.722C47.6365 145.986 48.354 145.687 49.2193 145.535Z" fill="black"/>
<path d="M48.9342 146.124C49.4565 146.044 49.9292 146.018 50.4342 146.205C51.2362 146.502 51.9436 147.104 52.2967 147.891C52.5424 148.438 52.5854 149.058 52.3526 149.618C52.0323 150.388 51.378 150.778 50.6428 151.091C50.0276 151.23 49.4198 151.16 48.8421 150.902C48.1569 150.594 47.5905 149.985 47.3245 149.285C47.0885 148.665 47.1077 147.947 47.4057 147.352C47.735 146.694 48.2534 146.346 48.9342 146.124Z" fill="#EA6F1C"/>
<path d="M151.599 142.612C155.047 142.76 158.82 143.21 161.983 144.643C164.061 145.585 166.329 147.303 167.111 149.534C167.561 150.804 167.481 152.202 166.888 153.412C165.416 156.468 161.824 158.22 158.765 159.248C149.686 162.299 140.687 159.808 132.448 155.7C130.058 154.542 127.952 152.897 125.719 151.477L126.96 149.711C131.249 153.112 136.944 155.964 142.327 156.976C146.461 157.753 150.922 157.743 154.503 155.261C156.13 154.134 157.42 152.644 157.745 150.634C158.228 147.645 156.3 145.034 153.743 143.705C153.184 143.414 151.938 143.084 151.599 142.612Z" fill="#8EBA7C"/>
<path d="M65.0208 152.782C58.7005 156.294 52.5919 158.854 45.1661 158.425C40.92 158.18 36.1009 156.98 33.1782 153.664C32.0152 152.345 31.0449 150.514 31.1908 148.708C31.3451 146.798 32.6067 144.982 34.0403 143.781C37.733 140.689 42.3852 140.312 46.9946 140.695L48.9235 140.756C48.3762 140.929 47.8208 141.09 47.2798 141.28C46.9063 141.427 46.5376 141.586 46.1743 141.756C43.8255 142.862 41.4981 144.512 40.6036 147.062C40.0919 148.52 40.1016 150.093 40.7958 151.497C41.6606 153.247 43.3063 154.309 45.1145 154.905C51.6122 157.048 58.4684 154.045 64.2055 151.141C64.4555 151.696 64.7469 152.238 65.0208 152.782Z" fill="#8EBA7C"/>
<path d="M46.9943 140.695L48.9232 140.756C48.376 140.929 47.8205 141.09 47.2795 141.28L47.2088 141.041C46.899 140.797 46.6936 140.825 46.3072 140.782L46.251 140.888L46.2928 140.74L46.9943 140.695Z" fill="#8EBA7C"/>
<path d="M27.7153 96.7218C33.9424 96.2886 41.1041 99.3953 45.8905 103.199C43.4893 102.212 41.0869 101.126 38.4612 100.949C36.1964 100.796 33.6546 101.322 31.9218 102.871C30.6631 103.997 29.9976 105.541 29.9188 107.216C29.7594 110.603 31.8176 113.294 33.9786 115.656C35.9526 117.594 38.3151 118.958 40.6385 120.421C39.8819 120.324 39.1112 120.089 38.3727 119.893C34.2821 118.809 30.4907 116.812 27.2836 114.051C23.9847 111.245 21.1777 107.066 20.8433 102.655C20.7367 101.248 20.9333 99.7906 21.9123 98.7004C23.3335 97.1179 25.7258 96.8699 27.7153 96.7218Z" fill="#8EBA7C"/>
<path d="M46.6398 102.063C45.7629 101.236 44.6738 100.536 43.734 99.7707C41.9711 98.3242 40.3465 96.7175 38.8807 94.9711C35.3531 90.7468 31.9687 84.6382 32.505 78.9738C32.6421 77.5257 33.1183 76.0625 34.3054 75.1328C35.8172 73.9492 37.8901 73.8691 39.718 74.0843C44.85 74.6886 49.8617 79.0589 52.9355 82.9996C51.2351 82.291 49.6898 81.7211 47.8269 81.6718C45.5746 81.6117 43.2168 82.3152 41.5707 83.9023C40.2597 85.1668 39.6344 86.8785 39.6242 88.6836C39.598 93.316 43.741 98.7691 46.9133 101.946L46.6398 102.063Z" fill="#8EBA7C"/>
<path d="M130.032 79.5438C130.678 77.923 131.241 76.2473 132.068 74.7074C134.304 70.5426 139.093 65.0617 143.439 63.2184C145.186 62.4773 147.325 61.9719 149.142 62.7277C150.442 63.2684 151.282 64.3426 151.79 65.6227C153.652 70.3082 151.957 77.1539 149.987 81.6441C148.889 84.1473 147.355 86.6316 145.887 88.9414L145.575 88.7191C147.042 84.5555 148.304 79.1969 146.302 75.0066C145.484 73.2941 144.132 72.0926 142.344 71.4633C140.632 70.8605 138.908 71.0961 137.302 71.8879C134.089 73.4727 132.004 76.6867 130.032 79.5438Z" fill="#8EBA7C"/>
<path d="M158.489 103.098C160.103 102.1 161.731 101.169 163.502 100.473C166.565 99.2703 170.561 98.7043 173.783 99.4606C175.364 99.8313 177.204 100.667 178.118 102.078C178.886 103.265 178.731 104.868 178.42 106.182C177.147 111.561 173.07 115.586 168.492 118.383C166.526 119.584 164.458 120.655 162.271 121.388C160.407 122.012 158.479 122.443 156.601 123.026L156.134 122.778C160.782 120.405 167.294 116.609 168.995 111.41C169.517 109.813 169.483 108.111 168.696 106.602C167.794 104.873 166.171 103.585 164.32 103.012C162.369 102.408 160.437 102.583 158.489 103.098Z" fill="#8EBA7C"/>
<path d="M159.504 123.452C164.92 122.032 171.9 121.114 176.959 124.038C178.181 124.745 179.492 125.882 179.87 127.288C180.249 128.702 179.736 130.212 178.999 131.418C176.01 136.309 168.758 140.077 163.26 141.37C160.131 142.106 157.283 141.784 154.168 141.238C158.699 140.6 165.27 137.95 168.077 134.23C169.113 132.857 169.642 131.19 169.395 129.47C169.15 127.756 168.134 126.256 166.753 125.238C164.914 123.884 162.819 123.685 160.611 123.704C159.717 123.775 158.834 123.829 157.936 123.836C158.456 123.693 158.972 123.549 159.504 123.452Z" fill="#8EBA7C"/>
<path d="M157.936 123.836C158.456 123.693 158.972 123.549 159.504 123.452C159.853 123.67 160.086 123.647 160.489 123.621L160.611 123.704C159.717 123.775 158.834 123.829 157.936 123.836Z" fill="#8EBA7C"/>
<path d="M162.958 78.2621C164.07 78.0863 165.494 78.1554 166.565 78.5347C167.656 78.9219 168.55 79.7019 169.037 80.7566C170.181 83.2273 169.219 86.9894 168.34 89.4012C166.051 95.6594 161.361 100.746 155.309 103.535C156.075 102.693 156.991 101.98 157.787 101.164C158.797 100.129 159.668 98.9539 160.53 97.7957C161.2 96.8269 161.696 95.7476 161.993 94.6078C162.513 92.6734 162.452 90.6445 161.409 88.8906C160.486 87.3375 159.024 86.3086 157.275 85.8918C153.392 84.9672 150.834 86.8465 147.725 88.7719C148.203 88.0426 148.775 87.3535 149.316 86.6703C152.704 82.3894 157.418 78.9023 162.958 78.2621Z" fill="#8EBA7C"/>
<path d="M41.2869 139.284C39.4404 139.107 37.5844 138.958 35.7434 138.733C30.3127 138.068 24.5949 135.749 21.1747 131.303C19.9916 129.766 19.0224 127.766 19.3206 125.779C19.5591 124.189 20.4887 122.827 21.7824 121.901C22.9388 121.074 24.3042 120.654 25.6854 120.382C30.4149 119.45 34.762 120.508 39.3982 121.285C38.7189 121.487 37.9658 121.494 37.261 121.567C35.7523 121.722 34.2118 122.134 32.884 122.88C31.2433 123.803 29.9702 125.123 29.4777 126.973C28.9912 128.801 29.3957 130.52 30.3476 132.111C32.7162 136.071 37.8184 138.032 42.0924 139.085C41.8162 139.201 41.5841 139.249 41.2869 139.284Z" fill="#8EBA7C"/>
<path d="M112.65 67.6813C113.973 62.4153 117.537 55.9125 122.231 53.0821C123.849 52.1067 125.796 51.4473 127.684 51.9496C128.979 52.2942 129.92 53.302 130.559 54.4371C133.417 59.5129 132.418 67.0672 130.888 72.4028C130.495 73.775 130.07 75.1532 129.581 76.4946C129.434 77.1032 129.211 77.6903 128.914 78.2418C129.189 76.6176 129.38 75.0602 129.404 73.411C129.17 69.8586 128.614 65.5532 125.754 63.0614C124.321 61.8137 122.544 61.2161 120.648 61.352C118.424 61.5118 116.339 62.7301 114.91 64.4094C114.044 65.4278 113.416 66.5946 112.65 67.6813Z" fill="#8EBA7C"/>
<path d="M129.404 73.4109C129.574 73.3398 129.493 73.3531 129.643 73.3523C129.964 74.3554 129.097 75.6418 129.581 76.4945C129.434 77.1031 129.211 77.6902 128.915 78.2418C129.189 76.6176 129.381 75.0601 129.404 73.4109Z" fill="#8EBA7C"/>
<path d="M84.812 44.6699C84.9604 44.6523 85.103 44.6363 85.253 44.6394C86.7128 44.6703 88.3088 45.4226 89.3268 46.4543C90.6151 47.7597 90.9854 49.4953 90.9639 51.2664C90.9346 53.6683 89.8186 56.0429 88.0956 57.7C86.4167 59.3144 84.6194 59.8445 82.3335 59.8004C81.9436 59.7789 81.5553 59.7375 81.1698 59.6758C78.9725 59.3367 77.2217 58.5265 75.885 56.7105C75.8014 53.4367 76.8456 50.2933 78.9717 47.7703C80.5026 45.9539 82.4432 44.8754 84.812 44.6699Z" fill="white"/>
<path d="M84.7935 47.8793C85.6896 47.8383 86.4103 47.9254 87.1927 48.3973C88.1767 48.9907 88.8146 49.9532 89.092 51.0571C89.4349 52.4211 89.3326 53.952 88.5841 55.1669C87.8435 56.3692 86.7588 57.0266 85.4091 57.3196C84.6142 57.3532 83.933 57.3075 83.2088 56.9438C82.181 56.427 81.5013 55.4434 81.1681 54.3622C80.7373 52.9926 80.8974 51.5051 81.6103 50.2586C82.3673 48.945 83.3752 48.2821 84.7935 47.8793Z" fill="black"/>
<path d="M86.5091 49.5078C86.6185 49.5246 86.7274 49.5426 86.8349 49.5684C87.2474 49.6672 87.6497 49.9305 87.854 50.3098C88.0337 50.643 88.0407 51.0418 87.9368 51.3996C87.7778 51.9457 87.3896 52.2148 86.9196 52.4863C86.7243 52.4719 86.5216 52.4605 86.3298 52.4184C85.9798 52.3418 85.6517 52.0316 85.4853 51.7238C85.2685 51.3227 85.2935 50.8516 85.4466 50.432C85.6427 49.8945 86.0302 49.7426 86.5091 49.5078Z" fill="white"/>
<path d="M58.36 87.9575C57.4795 86.8961 56.7147 85.734 55.9385 84.5954C52.2069 79.1188 47.7022 70.7895 48.3725 63.968C48.5139 62.5274 49.0159 60.8817 50.1951 59.9543C51.3819 59.0211 52.9432 58.8684 54.3901 59.0739C54.6397 59.1094 54.885 59.15 55.1295 59.2133C54.4612 60.6536 53.8518 62.0496 53.5346 63.6168C53.3694 64.434 53.3487 65.2825 53.1346 66.0852C55.4764 64.4157 57.1061 62.6422 60.0596 61.9868C60.1049 62.034 60.1514 62.0809 60.1959 62.1289C61.1866 63.1903 61.6983 64.5758 62.826 65.575C64.5432 67.0965 67.1866 67.4895 68.3264 69.518C68.6022 69.8942 68.8354 70.3227 69.083 70.7196C67.9866 69.8809 66.9709 69.1461 65.692 68.6071C63.2381 67.9297 60.7694 68.0832 58.5229 69.3555C56.7893 70.3372 55.433 72.0989 54.912 74.0227C53.5412 79.0789 56.6662 83.4731 58.36 87.9575Z" fill="#8EBA7C"/>
<path d="M65.6919 68.6071C66.7192 68.4966 67.461 69.7559 68.3263 69.518C68.602 69.8942 68.8353 70.3227 69.0829 70.7196C67.9864 69.8809 66.9708 69.1462 65.6919 68.6071Z" fill="#8EBA7C"/>
<path d="M70.7648 52.3946C72.4563 52.3938 73.7094 53.0086 74.993 54.052C74.7004 55.3117 74.1973 56.6578 74.9504 57.8633C75.7551 59.1504 77.7152 59.7617 79.1102 60.1028C75.7145 62.2512 71.9578 62.975 68.0266 61.9899C66.0422 61.4922 64.2492 60.884 62.1836 60.7192C61.7973 60.6813 61.4066 60.6403 61.018 60.6465C58.4176 60.6863 56.1039 62.0176 54.3574 63.8418C55.2039 61.4285 56.0875 59.2735 57.9262 57.418C58.5387 56.8 59.2383 56.311 60.0121 55.916C62.1164 54.8418 64.4527 54.2988 66.6754 53.5403C67.6621 53.2031 68.6926 52.6578 69.7082 52.4531C70.048 52.3848 70.4195 52.3957 70.7648 52.3946Z" fill="#F2BA22"/>
<path d="M63.3279 115.735C59.8154 112.741 56.2204 108.501 54.6564 104.146C53.7864 101.723 53.1892 98.6411 54.3896 96.2184C54.9056 95.177 55.7759 94.3372 56.8919 93.9747C58.3821 93.4903 59.879 93.9446 61.2095 94.645C63.7841 96.0001 66.0193 98.3399 66.9036 101.147C65.7896 100.201 65.0486 99.1711 63.7154 98.4809C62.3407 97.7688 60.8544 97.3739 59.3322 97.8969C58.122 98.3126 57.3091 99.1501 56.7521 100.277L56.9806 100.579C57.5392 99.5294 58.2798 98.7282 59.4396 98.3532C60.7083 97.943 62.0224 98.1399 63.1821 98.7637C64.4259 99.4321 65.7064 100.547 66.3821 101.798L66.0427 103.661C65.0114 102.904 63.6388 102.203 62.322 102.412C61.7177 102.508 61.2224 102.854 60.8716 103.348C60.0321 104.528 59.9814 106.19 60.2486 107.566C60.4603 108.656 60.9161 109.715 61.4954 110.66C61.904 111.325 63.3544 112.611 63.3556 113.322C63.0607 113.396 62.8845 113.301 62.6118 113.166L62.4427 113.342L63.6333 114.26C63.5236 114.75 63.4286 115.244 63.3279 115.735Z" fill="#F2BA22"/>
<path d="M56.9808 100.579C57.5394 99.5292 58.28 98.7281 59.4398 98.3531C60.7085 97.9429 62.0226 98.1398 63.1824 98.7636C64.4261 99.432 65.7066 100.547 66.3824 101.798L66.0429 103.66C65.0117 102.904 63.639 102.203 62.3222 102.412C61.7179 102.508 61.2226 102.854 60.8718 103.348C60.0324 104.528 59.9816 106.189 60.2488 107.566C60.4605 108.656 60.9164 109.715 61.4957 110.66C61.9042 111.325 63.3546 112.611 63.3558 113.322C63.0609 113.396 62.8847 113.301 62.6121 113.166C61.6917 112.858 58.5386 108.277 58.0242 107.31C56.8675 105.135 56.255 102.99 56.9808 100.579Z" fill="#0B8DCB"/>
<path d="M62.443 113.342C59.909 111.195 57.5403 108.005 56.5758 104.809C56.1282 103.325 55.9879 101.688 56.7524 100.277L56.9809 100.579C56.2551 102.99 56.8676 105.135 58.0243 107.31C58.5387 108.277 61.6919 112.858 62.6122 113.166L62.443 113.342Z" fill="black"/>
<path d="M98.7832 48.9919C100.152 48.2427 101.586 47.8079 103.144 48.2696C105.461 48.956 107.023 51.2126 108.071 53.2497C110.34 57.656 112.141 65.7411 110.523 70.536L110.473 70.6802C110.373 71.0642 110.22 71.9458 109.914 72.1489C109.778 71.4935 109.856 70.7329 109.866 70.0614C109.63 66.5798 108.713 63.2692 105.958 60.8939C104.688 59.7993 103.057 59.2333 101.38 59.3759C100.564 59.4454 99.8145 59.6942 99.0949 60.079C99.7363 56.5028 99.6715 52.5212 98.7832 48.9919Z" fill="#8EBA7C"/>
<path d="M109.866 70.0613C109.924 70.3789 109.982 70.6945 110.055 71.0089L110.192 71.041L110.474 70.68C110.373 71.064 110.22 71.9457 109.914 72.1488C109.778 71.4933 109.856 70.7328 109.866 70.0613Z" fill="#8EBA7C"/>
<path d="M86.1381 168.283C87.4646 168.54 88.7936 168.705 90.1354 168.864C90.1717 170.279 90.2709 171.675 90.5361 173.067C90.8201 174.557 91.3037 176.146 91.3545 177.661L91.9443 177.828C94.1713 178.462 95.3561 179.641 96.4572 181.623C94.9244 180.583 93.4721 179.536 91.7709 178.784C91.7936 181.128 91.8877 182.614 90.4162 184.574C88.9326 186.55 86.5846 188.571 84.0686 188.935L84.0014 187.653C84.9252 185.989 86.1373 184.718 87.2424 183.2C88.1033 182.018 88.7475 180.712 89.3686 179.394C88.3377 180.598 87.3178 181.813 86.3092 183.037C84.8639 184.638 83.0049 186.391 80.7896 186.77C80.2045 186.87 79.6104 186.889 79.1072 186.542C78.9607 186.299 78.8986 186.136 78.9803 185.852C79.4311 184.289 82.3686 182.371 83.7303 181.682C84.7615 181.161 85.8775 180.817 86.8619 180.202L86.9893 180.12C84.2135 180.699 81.5885 182.198 78.9537 183.212C78.0479 183.561 77.099 183.772 76.1631 184.022C76.31 183.834 76.4584 183.646 76.6088 183.461C79.1771 180.298 84.4322 178.782 88.3459 178.386C87.5627 175.03 86.9561 171.629 86.1381 168.283Z" fill="#F2BA22"/>
<path d="M104.422 167.888L104.602 167.947C105.036 168.826 105.228 169.956 105.482 170.909C106.162 173.459 106.801 175.956 107.308 178.548C110.732 178.503 115.448 179.156 118.452 180.891C118.767 181.073 119.198 181.325 119.294 181.68C119.229 181.761 119.223 181.778 119.125 181.848C117.555 182.981 114.267 181.383 112.648 180.829C111.607 180.473 110.539 180.13 109.469 179.879C111.909 181.131 114.494 182.097 116.851 183.507C117.573 183.94 118.782 184.686 118.927 185.577C118.962 185.791 118.874 186.033 118.72 186.182C118.5 186.396 118.101 186.457 117.81 186.485C114.83 186.766 111.938 183.994 109.833 182.197C108.724 181.252 107.669 180.17 106.497 179.309C108.576 182.536 111.119 184.023 113.583 186.65C114.01 187.106 114.805 187.935 114.787 188.583L114.614 188.733C114.342 188.765 114.101 188.718 113.833 188.661C110.466 187.947 106.17 184.914 104.817 181.672C104.511 180.937 104.44 179.471 104.138 178.998C103.424 178.952 101.09 180.976 100.423 181.479C101.394 178.919 102.233 178.889 104.504 177.849C104.431 176.768 103.951 175.545 103.67 174.493C103.136 172.493 102.641 170.491 102.387 168.435L104.422 167.888Z" fill="#F2BA22"/>
<path d="M91.6444 96.396C92.3776 96.3738 92.8886 96.3867 93.5304 96.8003C96.9308 98.991 97.0069 107.948 97.7769 111.789C96.5995 112.13 95.5101 112.541 94.4151 113.094C93.8808 113.378 93.378 113.691 92.873 114.023C91.5007 109.938 88.0128 102.888 89.5843 98.6062C89.9812 97.5249 90.6249 96.8773 91.6444 96.396Z" fill="#8EBA7C"/>
<path d="M131.748 106.566C131.806 106.567 131.863 106.567 131.921 106.569C132.732 106.597 133.53 107.005 134.062 107.611C134.73 108.373 135.04 109.435 134.937 110.439C134.543 114.25 127.794 118.75 124.891 121.02C123.984 119.555 122.661 118.213 121.439 117.005C122.243 116.114 122.842 115.089 123.532 114.113C125.441 111.409 128.382 107.343 131.748 106.566Z" fill="#8EBA7C"/>
<path d="M104.293 94.6422C104.456 94.6231 104.621 94.6051 104.785 94.6051C105.554 94.6047 106.401 95.1239 106.897 95.6832C109.47 98.584 107.678 107.239 107.461 110.941C106.753 110.884 106.047 110.858 105.337 110.837C104.181 110.832 103.025 110.845 101.87 110.876C101.748 106.488 100.348 101.571 101.916 97.2953C102.376 96.0395 103.078 95.2067 104.293 94.6422Z" fill="#8EBA7C"/>
<path d="M99.8603 109.843C99.0482 106.004 98.4986 102.058 98.1068 98.1539C97.9294 96.384 97.7279 94.593 97.7603 92.8121C97.7822 91.3707 97.9701 89.9367 98.3197 88.5383C98.9622 85.9805 100.253 83.0973 102.619 81.7016C103.809 80.9996 105.221 80.7707 106.558 81.1543C108.098 81.5965 109.142 82.743 109.886 84.102C112.364 88.6313 111.689 94.0152 111.193 98.9313C111.056 100.29 111.053 101.925 110.666 103.225C110.573 104.745 109.794 109.611 109.24 110.889L109.097 110.973C108.956 110.738 109.72 104.113 109.801 103.402C110.015 98.5035 112.055 92.982 109.356 88.3379C108.571 86.9879 107.447 86.0055 105.926 85.593L105.797 85.7059L106.016 85.7871L105.88 85.9817C104.511 85.7836 103.277 85.9809 102.129 86.8137C100.849 87.7422 99.8919 89.1723 99.5728 90.7164L99.349 90.4238L99.2576 90.502C98.4747 94.309 99.165 98.8153 99.5435 102.676C99.7388 104.664 99.8806 106.667 100.143 108.646L100.066 109.082C100.076 109.473 100.046 109.521 99.8603 109.843Z" fill="#F2BA22"/>
<path d="M100.065 109.082C99.5909 107.341 99.567 105.104 99.419 103.296C99.3491 102.443 99.1893 101.597 99.1366 100.742C99.0612 99.5184 99.1182 98.111 98.8065 96.927C98.7721 97.0754 98.7389 97.202 98.6823 97.3442C98.6522 97.2637 98.5944 97.1231 98.5881 97.0395C98.5721 96.8106 98.653 96.7446 98.81 96.6184C98.6581 96.386 98.6479 96.0969 98.6018 95.8258L98.6838 95.9055L98.612 95.6411C99.1432 94.179 98.4065 92.4497 98.6053 90.9684C98.653 90.6145 98.9045 90.35 99.1721 90.1438L99.246 90.1665L99.2573 90.502C98.4745 94.309 99.1647 98.8153 99.5432 102.676C99.7385 104.664 99.8803 106.667 100.142 108.647L100.065 109.082Z" fill="#F2BA22"/>
<path d="M99.3486 90.4239C99.3627 90.2122 99.3873 90.0286 99.4494 89.8247C99.9346 88.2337 101.203 86.7938 102.667 86.0216C103.655 85.5001 104.837 85.2493 105.925 85.593L105.797 85.7059L106.015 85.7872L105.88 85.9817C104.511 85.7837 103.276 85.9809 102.129 86.8138C100.849 87.7423 99.8916 89.1723 99.5725 90.7165L99.3486 90.4239Z" fill="black"/>
<path d="M109.801 103.402C110.247 104.043 109.584 105.24 109.704 105.94C109.813 106.575 109.547 107.108 109.524 107.743L109.643 107.828C109.984 107.353 110.397 104.329 110.46 103.582C110.479 103.364 110.52 103.376 110.666 103.225C110.573 104.745 109.794 109.611 109.24 110.889L109.097 110.974C108.956 110.738 109.72 104.113 109.801 103.402Z" fill="#F2BA22"/>
<path d="M136.203 112.006L136.264 111.935C138.054 109.854 140.471 106.051 140.195 103.201C140.07 101.913 139.412 100.586 138.376 99.7914C137.473 99.0988 136.331 98.8379 135.212 99.0101C131.034 99.6531 128.299 104.394 126.046 107.519C124.928 109.068 123.734 110.565 122.632 112.125C121.931 113.116 120.96 115.405 119.91 115.905L119.724 115.867C119.602 115.617 119.66 115.498 119.752 115.24C120.749 112.434 123.487 109.744 125.206 107.364C127.101 104.737 128.681 101.914 130.917 99.5449C132.367 98.0086 134.024 96.5644 135.966 95.6902C137.381 95.0531 139.147 94.6437 140.649 95.2093C141.652 95.5867 142.415 96.3586 142.83 97.3402C143.751 99.5125 143.164 102.31 142.272 104.393C141.119 107.085 139.106 109.85 137.045 111.95C136.64 112.061 136.569 112.519 136.206 112.557L136.087 112.3L136.203 112.006Z" fill="#F2BA22"/>
<path d="M117.058 100.494C117.394 100.481 117.739 100.509 118.056 100.626C118.847 100.917 119.443 101.457 119.788 102.225C120.931 104.758 119.701 107.799 118.838 110.213L117.47 114.019L115.681 113.187L115.596 113.15C114.273 112.577 112.905 112.13 111.542 111.662C111.95 108.995 112.596 106.168 113.735 103.719C114.457 102.167 115.416 101.095 117.058 100.494Z" fill="#8EBA7C"/>
<path d="M132.886 117.818C133.597 117.149 134.562 116.641 135.422 116.188C138.645 114.49 142.246 113.259 145.925 113.357C147.38 113.395 148.905 113.882 149.918 114.973C150.574 115.679 151.019 116.777 150.938 117.747C150.895 118.255 150.737 118.776 150.537 119.241C150.166 120.555 148.015 123.307 146.876 123.951C144.993 126.159 139.141 129.046 136.461 130.282C135.368 130.787 130.86 132.936 129.935 132.593L129.915 132.413C130.088 132.148 130.329 132.014 130.608 131.88C131.861 131.275 133.182 130.768 134.452 130.194C136.734 129.165 139.064 128.002 141.211 126.715C142.929 125.686 144.51 124.573 145.835 123.056C146.159 122.615 146.488 122.16 146.733 121.668C147.366 120.395 147.24 119.266 146.817 117.966C145.771 116.666 144.937 115.802 143.169 115.624C140.604 115.366 137.817 116.346 135.546 117.444C134.726 117.841 133.932 118.335 133.097 118.691L133.136 118.516L133.073 118.47C132.836 118.635 132.686 118.781 132.391 118.808C132.276 118.253 132.704 118.322 132.861 117.917C132.874 117.886 132.878 117.851 132.886 117.818Z" fill="#F2BA22"/>
<path d="M146.876 123.951L146.847 123.852C146.995 123.576 147.281 123.332 147.505 123.113C147.75 122.872 147.854 122.741 147.962 122.409C148.063 122.102 148.132 121.829 148.385 121.611L148.515 121.814L148.657 121.825C149.31 121.134 149.875 120.352 150.258 119.481C150.344 119.286 150.354 119.323 150.537 119.241C150.166 120.555 148.015 123.307 146.876 123.951Z" fill="#F2BA22"/>
<path d="M146.817 117.966C147.676 118.795 147.079 119.824 147.542 120.683L147.626 120.971C147.537 121.088 147.533 121.145 147.386 121.181C146.987 121.732 146.469 122.848 145.835 123.056C146.159 122.615 146.488 122.16 146.733 121.668C147.366 120.395 147.24 119.266 146.817 117.966Z" fill="#F2BA22"/>
<path d="M147.541 120.683C147.517 120.274 147.454 119.847 147.562 119.448L147.661 119.352C147.738 119.866 147.831 120.207 147.541 120.683Z" fill="#F2BA22"/>
<path d="M51.5727 122.576C52.5536 125.26 55.7227 127.73 58.2739 128.809C59.0243 129.127 60.0711 129.227 60.7114 129.713C60.9122 129.866 60.8918 129.948 60.9325 130.186C60.8586 130.316 60.8661 130.383 60.7063 130.421C59.3508 130.738 53.7493 127.584 52.4969 126.703C50.1946 125.084 47.5325 122.604 47.0579 119.686C46.8493 118.404 47.12 116.99 47.9153 115.945C48.6918 114.925 49.8836 114.419 51.1204 114.233C54.5465 113.719 59.5325 115.651 62.2141 117.743C62.5024 117.968 62.784 118.216 62.8286 118.596L62.7133 118.723C62.1543 118.832 61.6872 118.4 61.2262 118.147C59.2567 117.064 56.8465 116.08 54.5793 116.738L54.8 117.029C53.554 117.452 52.4598 118.041 51.8543 119.282C51.4114 120.19 51.4391 121.197 51.7778 122.135C51.7938 122.179 51.8114 122.223 51.8282 122.267L51.5727 122.576Z" fill="#F2BA22"/>
<path d="M51.5728 122.576C51.4923 122.411 51.4255 122.251 51.3688 122.076C51.0142 120.981 51.0427 119.896 51.6103 118.877C52.2556 117.718 53.3509 117.105 54.5794 116.738L54.8001 117.029C53.554 117.452 52.4599 118.041 51.8544 119.282C51.4114 120.19 51.4392 121.197 51.7778 122.135C51.7938 122.179 51.8114 122.223 51.8282 122.267L51.5728 122.576Z" fill="black"/>
<path d="M135.406 120.438C135.833 120.396 136.24 120.4 136.655 120.521C137.509 120.768 138.229 121.254 138.632 122.064C139.013 122.828 139.042 123.71 138.751 124.507C137.689 127.431 133.336 128.948 130.707 130.118C130.342 130.292 129.943 130.413 129.563 130.549C128.982 128.406 128.138 126.387 127.225 124.369C129.535 122.45 132.442 120.948 135.406 120.438Z" fill="#8EBA7C"/>
<path d="M99.5725 90.7164C99.8916 89.1723 100.849 87.7422 102.129 86.8137C103.276 85.9809 104.511 85.7836 105.88 85.9817C107.592 86.7074 108.754 87.7789 109.449 89.5293C110.542 92.2801 110.206 96.4328 109.748 99.3125C109.803 99.5695 109.869 99.7871 109.714 100.027C109.612 100.185 109.433 100.333 109.298 100.466L109.261 100.503C109.231 99.9215 109.188 99.341 109.131 98.7617L108.781 99.1203C108.734 99.1031 108.676 99.0969 108.642 99.0586C108.61 98.518 108.476 97.984 108.369 97.4543C108.47 97.3258 108.449 97.3695 108.504 97.2485C108.615 97.0067 108.727 96.807 108.877 96.5867L108.665 95.8078C108.735 95.8242 108.81 95.8055 108.881 95.8004L108.985 95.4903C108.967 95.4461 108.951 95.402 108.933 95.3586C108.39 94.0129 107.303 92.8485 105.942 92.3192C105.065 91.9785 104.134 92.0094 103.287 92.4199C101.188 93.4379 100.414 95.7555 99.7232 97.8C99.3475 95.3828 99.1076 93.1445 99.5725 90.7164Z" fill="#0B8DCB"/>
<path d="M108.985 95.4902C109.403 96.6137 109.575 97.9762 109.598 99.1695C109.7 99.3109 109.639 99.2785 109.749 99.3125C109.804 99.5695 109.87 99.7871 109.714 100.027C109.612 100.185 109.433 100.333 109.298 100.466L109.261 100.503C109.231 99.9215 109.188 99.341 109.132 98.7617L108.782 99.1203C108.734 99.1031 108.676 99.0969 108.642 99.0586C108.61 98.518 108.477 97.984 108.37 97.4543C108.47 97.3258 108.449 97.3695 108.505 97.2484C108.616 97.0066 108.727 96.807 108.877 96.5867L108.666 95.8078C108.736 95.8242 108.81 95.8055 108.882 95.8004L108.985 95.4902Z" fill="black"/>
<path d="M108.877 96.5867C108.979 97.3093 109.093 98.0324 109.132 98.7617L108.782 99.1203C108.734 99.1031 108.676 99.0968 108.642 99.0585C108.61 98.5179 108.477 97.9839 108.37 97.4543C108.47 97.3257 108.449 97.3695 108.505 97.2484C108.616 97.0066 108.727 96.807 108.877 96.5867Z" fill="#F2BA22"/>
<path d="M89.7574 19.4135C90.2715 18.4153 90.8352 17.3289 91.9512 16.9043C92.6715 16.6302 93.2055 16.3704 93.9785 16.6767C94.4418 16.8604 94.782 17.1828 95.1328 17.5258C95.1164 17.6707 95.0918 17.7247 95.0266 17.8506C95.2488 18.0754 95.4398 18.172 95.7301 18.2927C96.0004 18.7372 96.0484 19.1337 95.9219 19.643C95.7484 20.343 95.4516 20.7759 94.9348 21.264C94.2793 21.9646 93.7398 22.7839 93.2129 23.5837C91.3148 26.4645 90.3031 29.1274 89.4187 32.4336C89.1332 33.5002 88.8234 34.5632 88.7227 35.6665C88.2406 35.3674 87.7645 35.0539 87.2461 34.8209C87.5031 33.7833 87.5488 32.6574 87.6625 31.5954L88.2289 26.2285C88.3254 25.3254 88.3609 23.9539 88.7398 23.1396C88.9133 21.8582 89.2555 20.6053 89.7574 19.4135Z" fill="#FA3948"/>
<path d="M89.7575 19.4135C90.2716 18.4153 90.8353 17.3289 91.9513 16.9043C92.6716 16.6302 93.2056 16.3704 93.9786 16.6767C94.4419 16.8604 94.7821 17.1828 95.1329 17.5258C95.339 17.7274 95.4779 17.8777 95.7302 18.2927C96.0005 18.7372 96.0485 19.1337 95.922 19.643C95.7485 20.343 95.4517 20.7759 94.9349 21.264C94.6696 20.7634 95.0505 19.693 94.8536 18.9742C94.7333 18.5346 94.4665 18.1225 94.0481 17.9165C93.554 17.6734 92.9024 17.7929 92.404 17.9569C91.2278 18.344 90.4575 19.2396 89.8966 20.2984L89.6274 20.6722L89.561 20.6095C89.6704 20.2334 89.756 19.9007 89.7583 19.5066C89.7587 19.4756 89.7579 19.4445 89.7575 19.4135Z" fill="white"/>
<path d="M89.7573 19.4135C89.7577 19.4445 89.7585 19.4756 89.7581 19.5066C89.7558 19.9007 89.6702 20.2334 89.5608 20.6095L89.6272 20.6722L89.8964 20.2984C89.687 21.0496 89.4413 22.7351 88.7397 23.1396C88.9132 21.8581 89.2554 20.6052 89.7573 19.4135Z" fill="white"/>
<path d="M96.1916 21.5861C97.0631 20.809 97.9795 20.1707 99.2088 20.2352C99.9518 20.2742 100.688 20.5924 101.169 21.1713C101.524 21.6005 101.692 22.1261 101.635 22.6812C101.575 23.2816 101.328 23.7881 100.915 24.224C100.895 24.2447 100.875 24.2657 100.854 24.2861C99.7861 25.3541 98.2951 26.0629 97.0775 26.9522C93.89 29.28 91.8783 32.9686 90.6221 36.6299L89.1123 35.6625C90.0951 32.1766 91.0311 28.4234 93.1596 25.4371C93.3584 25.1577 93.6127 24.7007 93.8678 24.4904C94.4885 23.2865 95.1775 22.4885 96.1916 21.5861Z" fill="#FA3948"/>
<path d="M96.1919 21.5861C97.0634 20.809 97.9798 20.1707 99.2091 20.2352C99.9521 20.2742 100.689 20.5924 101.169 21.1713C101.525 21.6005 101.692 22.1261 101.636 22.6812C101.575 23.2816 101.328 23.7881 100.915 24.224C100.743 23.9437 100.826 22.8657 100.366 22.0369C100.15 21.6461 99.8177 21.3525 99.3774 21.2493C98.3993 21.0197 97.4142 21.584 96.5997 22.0541C96.481 21.8874 96.329 21.7383 96.1919 21.5861Z" fill="white"/>
<path d="M93.8677 24.4904C94.4884 23.2866 95.1774 22.4886 96.1915 21.5862C96.3286 21.7384 96.4806 21.8875 96.5993 22.0542C96.0841 22.5031 95.5028 22.9252 95.0337 23.4197C94.679 23.7937 94.4974 24.3557 94.0817 24.658C93.9024 24.5703 93.9696 24.631 93.8677 24.4904Z" fill="#FA3948"/>
<path d="M111.924 100.457C112.697 96.5301 114.368 92.2719 117.813 89.9359C119.202 88.9941 120.961 88.4187 122.642 88.7742C123.98 89.057 125.099 89.9023 125.824 91.052C127.168 93.182 126.874 96.1141 126.307 98.4445C125.859 100.284 124.976 103.324 123.886 104.808C123.584 104.895 123.433 105.38 123.133 105.256C124.315 102.382 125.663 98.9633 124.484 95.8832C123.978 94.5594 123.07 93.4707 121.741 92.9102C120.47 92.3738 119.118 92.3609 117.85 92.9047C114.79 94.2164 113.585 97.7547 112.444 100.603L112.384 100.573L112.216 100.63L111.924 100.457Z" fill="#F2BA22"/>
<path d="M99.4411 26.5062C100.597 26.0522 101.712 25.6571 102.935 26.1669C103.683 26.4784 104.377 27.0941 104.664 27.8651C104.879 28.4497 104.838 29.0978 104.552 29.6508C104.228 30.2912 103.68 30.7724 103.019 31.0393C101.834 31.4588 100.598 31.7162 99.4157 32.1501C96.5942 33.1857 93.7981 35.3398 92.1157 37.8321C91.7767 37.5481 91.4524 37.2506 91.1274 36.951C91.8767 34.4282 93.9188 30.6068 96.0138 28.9715C97.0634 27.9553 98.1169 27.1325 99.4411 26.5062Z" fill="#FA3948"/>
<path d="M99.4409 26.5062C100.596 26.0522 101.712 25.6571 102.935 26.1669C103.683 26.4784 104.377 27.0941 104.664 27.8651C104.879 28.4497 104.838 29.0978 104.551 29.6508C104.228 30.2912 103.68 30.7724 103.019 31.0393C102.838 30.2421 104.266 29.1386 103.878 28.0409C103.726 27.611 103.301 27.3125 102.914 27.1102C101.727 26.4879 100.909 26.611 99.6741 27.0054C99.5241 26.9554 99.6077 26.9951 99.439 26.859L99.4409 26.5062Z" fill="white"/>
<path d="M96.0137 28.9715C97.0633 27.9552 98.1168 27.1325 99.441 26.5061L99.4391 26.859C99.6078 26.9951 99.5242 26.9554 99.6742 27.0054C98.6 27.4787 96.8055 28.9045 96.1969 29.0925L96.0137 28.9715Z" fill="#FA3948"/>
<path d="M112.691 101.875C113.041 99.0676 114.768 95.6469 117.026 93.8953C117.966 93.1656 118.995 92.7785 120.195 92.916C121.406 93.0547 122.591 93.6402 123.323 94.6332C124.383 96.0715 124.657 98.1832 124.35 99.9109C124.072 101.479 123.408 102.995 122.81 104.464C122.689 104.595 122.599 104.682 122.45 104.784L122.33 104.705L122.219 104.171C122.351 102.54 122.117 100.898 120.989 99.6219C120.165 98.6988 118.998 98.1543 117.762 98.1156C116.412 98.0828 115.16 98.793 114.23 99.7258C113.589 100.368 113.132 101.089 112.691 101.875Z" fill="#0B8DCB"/>
<path d="M83.6541 17.8526C83.8306 17.6126 83.9099 17.5543 84.174 17.4091C84.6009 17.1742 84.9927 16.7883 85.1701 16.336C85.7834 16.0629 86.4216 16.0675 87.0498 16.3033C87.7521 16.567 88.3486 17.0898 88.6392 17.7874C88.8916 18.3933 88.8193 19.0604 88.5666 19.6549C88.2888 20.5364 88.1818 21.5505 88.017 22.4655C87.6306 24.6084 87.3025 26.7305 87.1607 28.9046C87.0334 30.8529 87.0724 32.8662 86.7951 34.7968C86.2775 34.7703 85.7599 34.7492 85.242 34.7335C85.7287 31.7132 85.4732 28.6198 84.497 25.7203C84.0623 24.388 83.5224 23.0676 83.3404 21.6702C83.1564 20.2684 83.3681 19.2058 83.6541 17.8526Z" fill="#FA3948"/>
<path d="M83.6538 17.8526C84.0973 17.2499 84.6612 16.6208 85.1698 16.3359C85.6784 16.051 86.4214 16.0674 87.0495 16.3033C87.7519 16.567 88.3483 17.0897 88.639 17.7874C88.8913 18.3933 88.819 19.0604 88.5663 19.6549C88.2565 19.1558 88.1245 18.5862 87.7565 18.1082C87.2202 17.4112 86.4886 17.3711 85.6784 17.2888C85.1022 17.5443 84.6651 17.8118 84.2452 18.2888C84.0405 18.1498 83.8472 18.0063 83.6538 17.8526Z" fill="white"/>
<path d="M83.3404 21.6702C83.1564 20.2684 83.3681 19.2058 83.6541 17.8525C83.8474 18.0063 84.0408 18.1498 84.2455 18.2888C84.0767 18.5932 83.9201 18.8914 83.8365 19.2315C83.7302 19.6641 83.642 21.4637 83.4216 21.6529L83.3404 21.6702Z" fill="#FA3948"/>
<path d="M127.089 106.972C127.342 106.235 127.843 105.611 128.293 104.983C129.75 102.956 131.344 101.027 133.635 99.9181C134.683 99.4106 135.948 99.088 137.081 99.4966C138.171 99.8895 138.932 100.948 139.383 101.975C140.07 103.537 139.608 105.195 138.982 106.691C138.635 107.52 137.754 109.353 137.066 109.847C136.903 109.84 136.701 109.796 136.559 109.875L136.5 108.304C136.603 108.153 136.685 107.976 136.773 107.814C136.271 106.465 135.534 105.454 134.193 104.821C132.946 104.233 131.514 104.307 130.248 104.791C129.085 105.235 128.068 106.211 127.089 106.972Z" fill="#0B8DCB"/>
<path d="M136.773 107.814C136.891 108.484 136.929 109.187 137.067 109.846C136.904 109.84 136.701 109.796 136.559 109.875L136.5 108.304C136.604 108.153 136.685 107.976 136.773 107.814Z" fill="black"/>
<path d="M86.3272 90.1715C87.6097 89.1125 88.7538 88.1426 90.5475 88.2879C91.8362 88.3926 92.8069 89.1668 93.5893 90.1379C95.1905 92.1258 95.4542 94.5559 96.0636 96.9497C95.0772 95.6348 94.0651 94.4133 92.3346 94.1395C91.319 93.9727 90.2796 94.2364 89.4667 94.8676C88.2815 95.7743 87.6284 97.302 87.2554 98.7079C87.1901 99.2008 87.1304 99.6922 87.0268 100.179L86.7128 100.128L86.6171 98.9321C86.221 96.0688 86.021 93.0547 86.3272 90.1715Z" fill="#0B8DCB"/>
<path d="M135.143 118.12C137.656 116.973 141.603 115.243 144.381 116.318C145.342 116.689 146.095 117.517 146.493 118.455C146.845 119.285 146.825 120.145 146.477 120.972C145.323 123.716 142.145 125.796 139.583 127.048C140.809 125.64 141.824 124.243 141.658 122.268C141.568 121.194 141.035 120.224 140.213 119.534C138.999 118.516 137.669 118.43 136.17 118.461C136.012 118.463 135.842 118.474 135.686 118.457C135.353 118.419 135.349 118.372 135.143 118.12Z" fill="#0B8DCB"/>
<path d="M133.081 145.203C135.415 144.629 138.674 144.133 140.069 141.905C140.635 141.002 140.731 139.947 140.451 138.929C140.134 137.775 139.434 136.909 138.383 136.345C137.36 135.796 136.025 135.5 134.87 135.466C133.873 135.436 130.631 136.104 130.057 135.451C130.185 135.167 130.467 135.061 130.743 134.955C133.451 133.919 139.006 133.922 141.667 135.136C142.819 135.662 143.837 136.493 144.285 137.714C144.652 138.714 144.618 139.763 144.143 140.722C143.059 142.915 139.513 144.175 137.352 144.853C136.314 145.175 135.26 145.441 134.194 145.65C133.192 145.861 132.147 146.032 131.127 146.135C130.571 146.313 129.973 146.364 129.394 146.424L129.394 146.05C129.859 145.968 130.322 145.824 130.779 145.706C131.55 145.554 132.317 145.386 133.081 145.203Z" fill="#F2BA22"/>
<path d="M130.779 145.706C131.55 145.554 132.317 145.386 133.081 145.203C133.237 145.243 133.508 145.27 133.619 145.379C133.165 145.419 132.54 145.401 132.163 145.671C132.704 145.78 133.458 145.623 134.001 145.527L134.194 145.65C133.192 145.861 132.147 146.032 131.127 146.135C130.571 146.313 129.973 146.364 129.394 146.424L129.394 146.05C129.859 145.968 130.322 145.824 130.779 145.706Z" fill="#F2BA22"/>
<path d="M129.394 146.05C129.859 145.968 130.322 145.824 130.779 145.706L131.309 145.822L131.36 145.906L131.237 145.938C131.071 145.984 131.137 145.962 130.989 146.022L131.127 146.135C130.571 146.313 129.973 146.364 129.394 146.424L129.394 146.05Z" fill="#F2BA22"/>
<path d="M54.7998 117.029C56.9608 116.88 58.6081 117.312 60.4963 118.34C61.0108 118.62 61.569 118.894 62.0178 119.273C62.2268 119.449 62.376 119.62 62.3999 119.904C62.4198 120.146 62.4077 120.298 62.2393 120.478C60.3092 120.176 59.187 118.581 57.0202 120.12C56.3522 120.595 55.8561 121.339 55.7448 122.158C55.535 123.701 56.212 125.243 57.1592 126.423C57.7213 127.124 58.3788 127.727 59.0655 128.301L58.8706 128.55L58.6159 128.425C55.9522 127.102 52.8346 125.248 51.828 122.267C51.8112 122.223 51.7936 122.179 51.7776 122.135C51.4389 121.197 51.4112 120.19 51.8541 119.282C52.4596 118.041 53.5538 117.452 54.7998 117.029Z" fill="#0B8DCB"/>
<path d="M87.2608 84.4582C88.5651 83.9699 89.7998 83.5918 91.1572 84.1801C93.4627 85.1797 94.8709 87.9949 95.6854 90.2156C96.5264 92.5082 96.7897 94.9457 97.149 97.3476C97.2631 98.1086 97.4799 99.0254 97.4451 99.791C97.6463 101.014 99.0432 110.818 98.7307 111.541L98.5537 111.668C98.1744 111.378 98.144 110.776 98.083 110.322C97.9861 109.6 97.9147 108.869 97.8522 108.144C97.2529 105.994 97.2092 102.761 96.9979 100.442C96.7471 97.691 95.7959 91.9121 94.0303 89.8308C93.1029 88.7379 91.8197 88.0187 90.3764 87.9215C88.9444 87.8246 87.9569 88.2933 86.9022 89.1949C86.7022 89.3582 86.6389 89.4625 86.3721 89.4879C86.2471 89.2289 86.3569 88.8199 86.3951 88.5367C86.6029 87.1605 86.7361 85.7574 87.2608 84.4582Z" fill="#F2BA22"/>
<path d="M97.445 99.791C97.6462 101.014 99.0431 110.818 98.7306 111.541L98.5536 111.668C98.1743 111.379 98.1438 110.776 98.0829 110.322C97.986 109.6 97.9145 108.869 97.852 108.144C97.9517 107.87 97.9712 107.572 98.0091 107.284L98.0309 108.031L97.8915 108.01C98.2329 108.178 98.0884 109.505 98.3313 109.912C98.8282 109.539 97.1036 101.198 97.445 99.791Z" fill="#F2BA22"/>
<path d="M86.3951 88.5367C86.5951 88.7426 86.7983 88.9211 86.9022 89.1949C86.7022 89.3582 86.6389 89.4625 86.3721 89.4879C86.2471 89.2289 86.3569 88.8199 86.3951 88.5367Z" fill="#F2BA22"/>
<path d="M65.7828 45.1961C67.0109 42.8695 68.5039 41.6098 71.0027 40.8457C71.8371 41.0852 72.5738 41.4172 73.0937 42.1457C74.1406 43.6113 73.6054 45.9887 73.3449 47.6387C73.1793 47.432 73.082 47.234 72.9765 46.9945C72.9066 46.0781 72.6496 45.1301 71.9289 44.5039C71.416 44.0621 70.7394 43.859 70.0679 43.9453C69.141 44.0578 68.2875 44.6453 67.7328 45.3789C67.0304 46.3086 66.6976 47.6937 66.8808 48.8437C67.0949 50.1848 68.1097 51.0523 69.1648 51.7828C68.1148 52.2051 66.0703 53.2199 64.95 52.748C64.6422 52.6184 64.4539 52.4062 64.339 52.1004C63.7914 50.6399 65.1523 46.3905 65.7828 45.1961Z" fill="white"/>
<path d="M61.792 61.8606C67.8857 63.0211 71.6053 65.3086 77.7115 62.0747C77.1154 62.7977 76.485 63.4907 75.8596 64.1879C75.0475 65.0797 73.9893 65.8219 72.8889 66.3129C70.9729 67.168 68.7314 67.2774 66.7709 66.5008C64.7014 65.6809 62.6783 63.9024 61.792 61.8606Z" fill="#F2BA22"/>
<path d="M58.3354 133.436C58.9768 133.418 60.0729 133.262 60.6565 133.544C60.7432 133.791 60.8046 134.084 60.7202 134.343C60.5342 134.916 58.7839 134.922 58.2241 135.198C57.3569 135.626 56.5475 136.638 56.2467 137.549C55.8925 138.619 55.9819 139.786 56.4956 140.79C57.1292 142.025 58.3729 142.722 59.6483 143.159C60.1362 143.325 60.6651 143.356 61.1573 143.53C61.4655 143.639 61.5948 143.75 61.7339 144.042L61.6675 144.18L61.3444 144.166C59.1925 144.121 56.828 143.618 55.0948 142.271C53.9428 141.376 53.0358 140.08 52.8698 138.604C52.728 137.448 53.0702 136.284 53.8159 135.389C54.9635 134.007 56.6339 133.595 58.3354 133.436Z" fill="#F2BA22"/>
<path d="M110.666 109.778C111.239 106.772 112.733 101.32 115.319 99.4902C116.251 98.8184 117.421 98.5621 118.549 98.7828C119.53 98.9828 120.383 99.5383 120.929 100.377C121.821 101.494 121.792 102.801 121.77 104.153C121.786 104.43 121.805 104.705 121.835 104.982C121.925 105.012 122.021 105.052 122.114 105.072L122.219 104.171L122.33 104.705L122.451 104.784C122.599 104.682 122.689 104.595 122.81 104.464C122.576 105.175 122.335 105.866 122.028 106.549C122.007 106.611 121.99 106.673 121.967 106.734C121.905 106.905 121.789 107.016 121.801 107.206L122.043 107.268L121.809 107.431L121.828 107.276L122.09 107.272L122.075 107.309L122.301 107.002C122.146 107.48 121.869 108.06 121.955 108.566C121.862 108.413 121.821 108.242 121.767 108.071L121.492 108.225C121.508 108.791 120.896 110.781 120.486 111.171C120.467 111.189 120.444 111.202 120.423 111.218C120.284 111.039 120.323 111.139 120.303 110.919L120.065 110.6C119.45 112.061 118.92 113.593 118.064 114.935C118.391 112.582 119.373 110.28 120.095 108.021C120.736 106.014 121.28 103.882 120.204 101.905C119.76 101.09 118.987 100.306 118.067 100.07C117.21 99.8508 116.361 100.104 115.631 100.568C112.8 102.366 111.988 106.997 111.272 109.998C111.113 110.052 110.929 110.039 110.762 110.045L110.666 109.778Z" fill="#F2BA22"/>
<path d="M122.114 105.072L122.219 104.172L122.33 104.706L122.45 104.784C122.599 104.682 122.689 104.595 122.81 104.464C122.576 105.175 122.334 105.866 122.027 106.549C122.007 106.611 121.989 106.673 121.967 106.734C121.905 106.905 121.788 107.016 121.801 107.206L122.043 107.268L121.809 107.431L121.827 107.276L122.09 107.272L122.074 107.309L122.3 107.002C122.146 107.48 121.869 108.06 121.954 108.566C121.861 108.413 121.82 108.242 121.766 108.072L121.492 108.225C121.508 108.791 120.896 110.781 120.486 111.172C120.467 111.189 120.444 111.202 120.423 111.218C120.284 111.039 120.322 111.139 120.303 110.919L120.064 110.6C120.712 108.745 121.347 106.923 121.625 104.968L121.77 104.153C121.786 104.43 121.804 104.706 121.835 104.982C121.925 105.012 122.021 105.052 122.114 105.072Z" fill="black"/>
<path d="M120.303 110.919C120.508 110.199 120.726 109.471 121.034 108.786C121.165 108.495 121.195 108.341 121.492 108.225C121.508 108.791 120.896 110.781 120.486 111.172C120.467 111.189 120.444 111.202 120.423 111.218C120.284 111.039 120.322 111.139 120.303 110.919Z" fill="black"/>
<path d="M122.114 105.072L122.219 104.172L122.33 104.705L122.451 104.784C122.599 104.682 122.689 104.595 122.81 104.464C122.576 105.175 122.335 105.866 122.028 106.549C121.826 106.102 122.022 105.538 122.114 105.072Z" fill="#0B8DCB"/>
<path d="M120.929 100.377C121.821 101.494 121.792 102.801 121.77 104.153L121.625 104.968C120.723 103.481 121.68 102.773 121.451 101.725C121.351 101.269 120.829 100.839 120.929 100.377Z" fill="#F2BA22"/>
<path d="M131.162 136.089C133.446 135.783 136.813 135.652 138.754 137.159C139.511 137.748 139.975 138.559 140.085 139.513C140.192 140.447 139.961 141.364 139.348 142.086C138.252 143.379 136.068 144.08 134.464 144.404C134.249 144.239 134.225 144.084 134.148 143.834C135.127 143.214 136.083 142.232 136.313 141.061C136.478 140.22 136.204 139.405 135.704 138.729C134.598 137.236 132.884 136.583 131.162 136.089Z" fill="#0B8DCB"/>
<path d="M59.8221 135.196C60.1217 135.169 60.3717 135.145 60.6689 135.217C60.8842 135.965 60.7104 137.053 60.7693 137.856C60.8979 139.609 61.1303 141.437 61.4592 143.163C60.6045 142.955 59.7619 142.744 58.942 142.423C58.6275 142.275 58.3236 142.115 58.0404 141.913C57.1979 141.31 56.5721 140.375 56.4244 139.342C56.2916 138.413 56.5615 137.48 57.1361 136.742C57.8002 135.902 58.7619 135.348 59.8221 135.196Z" fill="#0B8DCB"/>
<path d="M89.7752 75.7321C90.2182 76.5992 90.7814 77.4121 91.2631 78.2594C92.0705 79.7074 92.6971 81.2492 93.1287 82.85C93.3033 83.3633 93.467 83.8805 93.6201 84.4008C93.217 84.1051 92.8166 83.8078 92.3967 83.5356C90.2045 82.7157 89.6498 82.511 87.2783 83.0914C87.9619 80.55 88.7549 78.1571 89.7752 75.7321Z" fill="#8EBA7C"/>
<path d="M92.397 83.5355C92.6036 83.5492 92.7392 83.5472 92.936 83.4816C92.97 83.2914 92.9942 83.1293 93.0759 82.9519C93.0919 82.9172 93.111 82.884 93.129 82.85C93.3036 83.3633 93.4673 83.8804 93.6204 84.4008C93.2173 84.1051 92.8169 83.8078 92.397 83.5355Z" fill="#8EBA7C"/>
<path d="M68.9419 68.0726C70.7657 67.9668 72.0189 68.8129 73.5903 69.5535C73.6376 70.6332 73.6814 71.7246 73.7966 72.7996C73.9126 73.8812 74.1716 75.0687 74.12 76.1504C74.1071 76.4222 74.0153 76.6601 73.9048 76.9054L73.6946 77L73.4946 76.9109C72.5325 75.4015 71.8427 73.641 71.0157 72.0468C70.3423 70.7484 69.4278 69.45 68.9419 68.0726Z" fill="#8EBA7C"/>
<path d="M122.794 113.101C123.257 112.362 123.894 111.653 124.443 110.974C126.062 108.969 127.971 106.392 130.404 105.349C131.514 104.874 132.862 104.783 133.986 105.266C134.942 105.678 135.798 106.441 136.179 107.42C136.158 107.626 136.163 107.763 136.207 107.96C136.34 108.555 135.967 109.14 136.147 109.767L135.969 110.628L135.971 110.522L135.925 110.592L135.796 110.45C135.283 111.195 135.21 113.228 134.081 113.902L133.914 113.851C134.769 112.561 135.504 111.385 135.469 109.773C135.447 108.733 135.06 107.706 134.279 107C133.579 106.374 132.655 106.059 131.719 106.129C128.294 106.36 125.535 111.053 123.454 113.41C123.263 113.156 123.083 113.162 122.794 113.101Z" fill="#F2BA22"/>
<path d="M132.596 120.088C134.495 119.311 136.996 118.502 139.004 119.373C139.898 119.757 140.603 120.481 140.963 121.385C141.37 122.438 141.225 123.626 140.755 124.633C140.09 126.053 138.794 127.226 137.393 127.899C137.52 127.611 137.846 127.349 138.087 127.15L138.203 127.056L138.164 127.015C138.038 127.059 137.902 127.101 137.779 127.154C137.607 127.23 137.521 127.284 137.328 127.304C137.282 127.309 137.237 127.31 137.191 127.313C137.858 126.739 138.439 126.18 138.887 125.412C139.425 124.49 139.657 123.352 139.345 122.313C139.093 121.475 138.491 120.838 137.721 120.443C136.232 119.679 134.715 120.015 133.211 120.483C133.067 120.25 132.837 120.188 132.596 120.088Z" fill="#F2BA22"/>
<path d="M130.198 137.728C131.374 137.957 132.765 138.333 133.516 139.341C133.814 139.74 133.961 140.238 133.878 140.734C133.713 141.708 132.905 142.284 132.146 142.801C131.24 143.299 130.273 143.648 129.299 143.988C129.851 141.947 130.059 139.831 130.198 137.728Z" fill="#8EBA7C"/>
<path d="M100.251 102.921C100.009 100.649 100.163 98.314 100.937 96.1472C101.418 94.8035 102.277 93.5035 103.621 92.9058C104.4 92.5593 105.271 92.5027 106.067 92.8269C107.334 93.3429 108.175 94.5859 108.666 95.8078L108.877 96.5867C108.727 96.807 108.616 97.0066 108.505 97.2484C108.449 97.3695 108.47 97.3258 108.37 97.4543C107.797 96.025 107.117 94.9789 105.642 94.348C105.001 94.0738 104.356 94.0984 103.72 94.3883C102.577 94.9109 101.826 96.0523 101.435 97.209C100.848 98.9422 100.853 100.796 100.768 102.604C100.513 102.718 100.46 102.993 100.251 102.921Z" fill="#F2BA22"/>
<path d="M59.2791 121.686C60.2666 121.666 61.1822 121.941 62.0423 122.407C61.8615 123.278 61.613 127.018 61.0712 127.514L60.808 127.478C59.8505 126.779 58.8072 125.99 58.1947 124.954C57.8685 124.401 57.6427 123.702 57.8373 123.065C58.0564 122.348 58.6482 121.998 59.2791 121.686Z" fill="#8EBA7C"/>
<path d="M90.4282 74.9097C91.1528 74.005 91.9888 73.1995 92.747 72.3234C93.1044 74.0605 93.5642 75.7773 93.913 77.5199C94.3563 79.7366 94.679 81.9757 95.0899 84.1988L94.8423 84.4679C94.1173 81.7202 92.1634 77.1573 90.4282 74.9097Z" fill="#8EBA7C"/>
<path d="M63.1398 104.909C63.6312 104.837 64.155 104.799 64.6421 104.915C64.9359 104.985 65.3253 105.185 65.4402 105.485C65.689 106.137 64.248 110.727 63.9468 111.602C63.9328 111.692 63.8836 111.77 63.8437 111.852L63.6957 111.808C62.6757 110.513 61.8324 108.535 62.0121 106.857C62.1086 105.961 62.4617 105.468 63.1398 104.909Z" fill="#8EBA7C"/>
<path d="M88.1965 103.778C87.9442 102.305 87.6825 100.582 87.8415 99.0894C87.9903 97.6941 88.6551 96.1988 89.7794 95.3308C90.518 94.7605 91.4516 94.4566 92.384 94.6074C93.7102 94.8218 94.4555 95.7261 95.1868 96.7511L94.6063 97.0589C93.9055 96.4011 93.1239 95.8957 92.1235 95.9101C91.2797 95.9218 90.5317 96.3191 89.9743 96.9406C88.5809 98.4949 88.586 100.591 88.7376 102.541C88.7493 102.693 88.7696 102.848 88.7723 103.001C88.7672 103.037 88.7618 103.072 88.7575 103.107C88.6715 103.82 88.9309 104.464 88.879 105.169L88.7915 105.138C88.6809 104.882 88.5864 104.638 88.5129 104.369C88.4438 104.116 88.3586 103.981 88.1965 103.778Z" fill="#F2BA22"/>
<path d="M59.4298 127.909C59.0798 127.686 58.7497 127.443 58.4458 127.159C57.2809 126.073 56.1723 124.375 56.1602 122.737C56.1548 121.973 56.4282 121.236 56.9958 120.713C57.5731 120.179 58.3489 119.95 59.1259 119.985C59.8403 120.016 61.7169 120.482 62.1477 121.095C62.3059 121.32 62.247 121.428 62.1766 121.664C61.768 121.904 60.0188 121.129 59.1501 121.234C58.6376 121.296 58.1813 121.527 57.8634 121.939C57.4388 122.489 57.3364 123.255 57.4169 123.929C57.6059 125.506 58.788 126.552 59.9688 127.462L59.4298 127.909Z" fill="#F2BA22"/>
<path d="M62.315 102.879C63.3783 102.88 64.8158 103.11 65.6162 103.892C65.8393 104.11 65.8643 104.294 65.8647 104.594L65.7752 104.753C65.4322 104.768 65.1522 104.646 64.8315 104.544C63.408 104.09 62.9381 104.439 61.8545 105.344L61.7682 105.759C61.4307 107.344 61.5635 109.059 62.4147 110.477C62.7799 111.086 63.2221 111.66 63.519 112.305L63.4483 112.4C63.2088 112.3 63.0494 112.146 62.8756 111.959C61.3026 110.268 60.4428 107.363 60.567 105.092C60.8522 104.172 61.1803 103.471 62.0748 102.996C62.1533 102.954 62.2342 102.917 62.315 102.879Z" fill="#F2BA22"/>
<path d="M62.3149 102.879C63.3782 102.88 64.8157 103.11 65.6161 103.892C65.8392 104.11 65.8642 104.294 65.8645 104.594L65.7751 104.753C65.4321 104.768 65.152 104.646 64.8313 104.544C63.4079 104.09 62.938 104.439 61.8544 105.344L61.8161 105.314C61.8192 105.007 62.2099 104.691 62.4208 104.457C62.2278 104.117 62.1075 103.771 61.9524 103.415C61.7431 103.4 61.7341 103.465 61.5755 103.59L61.706 103.592L61.5571 103.643L61.7325 103.734L61.729 103.897C61.529 104.016 61.3212 104.106 61.1087 104.199C60.8778 104.527 60.8438 105.05 60.7696 105.441L60.6778 105.45L60.5669 105.092C60.8521 104.172 61.1802 103.471 62.0747 102.996C62.1532 102.954 62.2341 102.917 62.3149 102.879Z" fill="#F2BA22"/>
<path d="M130.797 144.05C132.139 143.447 133.677 142.599 134.262 141.164C134.488 140.607 134.521 140.025 134.266 139.472C133.866 138.606 133.044 138.119 132.177 137.829C131.441 137.583 130.854 137.433 130.255 136.895L130.218 136.754C130.757 136.488 132.114 136.909 132.682 137.104C133.833 137.497 135.092 138.227 135.645 139.354C135.947 139.969 135.991 140.649 135.76 141.296C135.327 142.511 134.136 143.334 132.997 143.83C132.499 144.047 131.99 144.238 131.472 144.4C131.286 144.183 131.058 144.134 130.797 144.05Z" fill="#F2BA22"/>
<path d="M136.179 107.42C136.29 107.713 136.407 108.005 136.501 108.304L136.559 109.875C136.482 110.598 136.256 111.231 135.956 111.888L136.203 112.006L136.087 112.3L136.206 112.557C136.569 112.519 136.64 112.061 137.045 111.95C136.457 112.754 135.698 113.473 134.984 114.167L134.875 114.165L134.456 114.194C133.852 114.877 133.252 115.547 132.589 116.174C131.463 117.24 126.504 121.571 125.299 121.86L125.234 121.703C125.441 121.243 130.734 117.177 131.702 116.304C132.523 115.564 133.175 114.668 133.914 113.851L134.081 113.902C135.21 113.228 135.283 111.195 135.796 110.45L135.925 110.593L135.971 110.522L135.969 110.628L136.147 109.768C135.967 109.14 136.34 108.556 136.207 107.961C136.163 107.763 136.158 107.626 136.179 107.42Z" fill="#F2BA22"/>
<path d="M136.087 112.3L136.206 112.557C136.568 112.519 136.64 112.061 137.045 111.95C136.456 112.754 135.697 113.473 134.984 114.167L134.875 114.165L134.456 114.194L135.098 113.203C135.433 112.823 135.688 112.32 135.956 111.888L136.202 112.006L136.087 112.3Z" fill="#F2BA22"/>
<path d="M135.098 113.203C135.433 112.823 135.688 112.32 135.956 111.888L136.202 112.006L136.087 112.3C135.8 112.677 134.854 113.734 134.871 114.143C134.871 114.151 134.873 114.158 134.875 114.165L134.456 114.194L135.098 113.203Z" fill="#F2BA22"/>
<path d="M136.178 107.42C136.29 107.713 136.407 108.005 136.5 108.304L136.559 109.875C136.482 110.598 136.255 111.231 135.956 111.888C135.687 112.32 135.433 112.823 135.098 113.203L134.984 113.192C135.019 113.004 134.987 113.047 135.082 112.92C135.194 112.77 135.302 112.664 135.371 112.486C135.755 111.487 136.408 110.922 136.146 109.768C135.966 109.14 136.34 108.556 136.207 107.961C136.162 107.763 136.158 107.626 136.178 107.42Z" fill="#F2BA22"/>
<path d="M86.8799 101.197C87.1834 105.026 89.5388 111.552 91.0216 115.193C90.7408 115.465 90.4677 115.744 90.1556 115.98C88.6189 112.635 87.9427 108.815 87.2185 105.228C86.9795 104.045 86.5033 102.557 86.7107 101.361L86.8799 101.197Z" fill="#8EBA7C"/>
<path d="M88.7726 103.001C89.3218 106.075 90.4608 108.904 91.4597 111.845C91.837 112.518 92.3511 113.391 92.2011 114.181L92.0522 114.298C91.7073 114.18 91.521 113.816 91.371 113.505C91.1378 113.022 90.955 112.492 90.7948 111.981C90.1214 110.856 88.4729 105.24 88.1968 103.778C88.3589 103.981 88.444 104.116 88.5132 104.369C88.5866 104.638 88.6812 104.882 88.7917 105.138L88.8792 105.17C88.9312 104.464 88.6718 103.82 88.7577 103.107C88.762 103.072 88.7675 103.037 88.7726 103.001Z" fill="#F2BA22"/>
<path d="M91.4593 111.845C91.8366 112.518 92.3507 113.391 92.2007 114.181L92.0519 114.298C91.7069 114.18 91.5206 113.816 91.3706 113.505C91.1374 113.022 90.9546 112.492 90.7944 111.98C91.0565 112.163 91.1776 112.636 91.3784 112.706L91.5507 112.551C91.5097 112.398 91.4644 112.266 91.3999 112.12C91.3784 112.072 91.3558 112.024 91.3335 111.976L91.4593 111.845Z" fill="#F2BA22"/>
<path d="M109.132 98.7617C109.188 99.341 109.231 99.9215 109.261 100.503C109.105 103.035 108.926 108.909 108.091 111.043C107.959 109.512 108.277 107.869 108.409 106.337C108.62 103.892 108.744 101.514 108.642 99.0586C108.676 99.0969 108.734 99.1031 108.782 99.1203L109.132 98.7617Z" fill="#F2BA22"/>
<path d="M137.191 127.313C137.237 127.31 137.283 127.309 137.328 127.304C137.521 127.284 137.607 127.23 137.779 127.154C137.902 127.101 138.038 127.059 138.164 127.015L138.203 127.056L138.087 127.15C137.846 127.348 137.52 127.611 137.393 127.899C137.333 127.945 137.274 127.991 137.212 128.033C136.645 128.414 130.564 131.427 130.075 131.443C129.999 131.445 129.925 131.411 129.85 131.396L129.788 131.204C130.065 130.634 132.229 130.022 132.867 129.742C134.424 129.06 135.769 128.219 137.191 127.313Z" fill="#F2BA22"/>
<path d="M69.075 45.3902C69.5187 45.371 69.9785 45.3937 70.323 45.714C70.5191 45.896 70.5875 46.1207 70.6019 46.3808C70.6344 46.9765 70.2336 47.3472 69.8418 47.7293C69.4293 47.716 69.0375 47.5468 68.7449 47.2558C68.5246 47.0351 68.4176 46.7359 68.4285 46.4265C68.4457 45.9324 68.7262 45.6925 69.075 45.3902Z" fill="white"/>
<path d="M126.574 122.789C127.748 120.982 131.068 119.132 132.886 117.818C132.878 117.851 132.874 117.886 132.861 117.917C132.704 118.322 132.276 118.253 132.391 118.808C132.686 118.781 132.836 118.635 133.073 118.47L133.136 118.516L133.097 118.691C132.281 119.182 131.392 119.543 130.579 120.056C129.212 120.918 127.937 121.919 126.574 122.789Z" fill="#F2BA22"/>
<path d="M100.251 102.921C100.46 102.993 100.513 102.718 100.768 102.604C100.855 104.325 100.961 106.045 101.086 107.763C101.148 108.656 101.305 109.63 101.217 110.521L101.138 110.556C100.59 109.577 100.328 104.404 100.251 102.921Z" fill="#F2BA22"/>
<path d="M131.95 120.956C131.24 121.371 130.482 121.706 129.768 122.116C128.778 122.684 127.773 123.669 126.66 123.939L126.625 123.826C127.601 122.441 130.057 121.246 131.576 120.534C131.703 120.67 131.842 120.804 131.95 120.956Z" fill="#F2BA22"/>
<path d="M74.6069 70.0101L76.2683 70.4125C75.9351 71.1406 75.639 71.891 75.3265 72.6289L74.9558 73.3832C74.7917 72.264 74.7054 71.1363 74.6069 70.0101Z" fill="#8EBA7C"/>
<path d="M122.794 113.102C123.083 113.162 123.263 113.156 123.454 113.411C122.892 114.152 121.713 116.193 120.977 116.575C120.966 116.516 120.948 116.459 120.946 116.4C120.923 115.623 122.336 113.728 122.794 113.102Z" fill="#F2BA22"/>
<path d="M123.133 105.256C123.433 105.381 123.585 104.895 123.886 104.808C123.325 106.011 122.755 107.524 121.955 108.566C121.869 108.06 122.146 107.48 122.301 107.002C122.612 106.437 122.868 105.844 123.133 105.256Z" fill="#F2BA22"/>
<path d="M130.982 145.203C132.02 144.718 133.097 144.292 134.148 143.834C134.225 144.084 134.249 144.239 134.464 144.404C133.33 144.832 132.192 145.12 130.982 145.203Z" fill="#0B8DCB"/>
<path d="M111.925 100.457L112.216 100.63L112.384 100.573L112.444 100.603C112.21 101.727 111.985 102.654 111.431 103.661C111.537 102.596 111.758 101.516 111.925 100.457Z" fill="#F2BA22"/>
<path d="M95.1869 96.7512C95.6061 97.5223 95.9123 98.2856 96.1443 99.1321L95.9287 99.2946C95.5928 98.418 95.2299 97.7645 94.6064 97.059L95.1869 96.7512Z" fill="#F2BA22"/>
<path d="M131.472 144.4C130.813 144.613 129.918 144.988 129.22 144.892L129.163 144.763C129.441 144.419 130.356 144.218 130.797 144.05C131.058 144.134 131.286 144.183 131.472 144.4Z" fill="#F2BA22"/>
<path d="M59.9688 127.462C60.3223 127.708 60.6895 127.917 60.9172 128.292L60.8926 128.464C60.3648 128.566 59.8613 128.17 59.4297 127.909L59.9688 127.462Z" fill="#F2BA22"/>
<path d="M110.665 109.778L110.762 110.045C110.929 110.039 111.113 110.052 111.272 109.998C111.247 110.143 111.221 110.286 111.194 110.43C111.135 110.732 111.079 111.123 110.806 111.307L110.663 111.181C110.521 110.711 110.611 110.257 110.665 109.778Z" fill="#F2BA22"/>
<path d="M133.382 119.108C133.949 118.709 134.508 118.397 135.144 118.12C135.349 118.372 135.354 118.419 135.686 118.457C135.843 118.474 136.013 118.463 136.171 118.461C135.233 118.607 134.303 118.88 133.382 119.108Z" fill="#0B8DCB"/>
<path d="M131.577 120.534L132.596 120.088C132.837 120.188 133.067 120.25 133.211 120.483C132.792 120.645 132.372 120.803 131.95 120.956C131.842 120.804 131.704 120.67 131.577 120.534Z" fill="#F2BA22"/>
<path d="M100.143 108.646C100.264 109.666 100.417 110.69 100.4 111.719C100.192 111.098 100.02 110.477 99.8604 109.843C100.046 109.521 100.076 109.473 100.066 109.082L100.143 108.646Z" fill="#F2BA22"/>
<path d="M96.1443 99.1321C96.3463 99.675 96.5725 100.218 96.5291 100.806L96.4545 100.796C96.2256 100.313 96.0818 99.8055 95.9287 99.2946L96.1443 99.1321Z" fill="#F2BA22"/>
<path d="M154.534 123.511C155.061 123.249 155.581 122.984 156.134 122.778L156.601 123.026C155.932 123.258 155.231 123.396 154.534 123.511Z" fill="#8EBA7C"/>
<path d="M95.0899 84.1989L95.4864 86.661C95.1634 85.9465 95.0138 85.2285 94.8423 84.468L95.0899 84.1989Z" fill="#8EBA7C"/>
<path d="M145.575 88.7192L145.887 88.9415C145.603 89.4985 145.251 90.02 144.917 90.5478C145.115 89.9317 145.351 89.3263 145.575 88.7192Z" fill="#8EBA7C"/>
<path d="M42.0926 139.085C42.3324 139.12 42.5703 139.15 42.8062 139.204L42.8746 139.318L42.9188 139.333C42.3582 139.401 41.8434 139.379 41.2871 139.284C41.5844 139.249 41.8164 139.201 42.0926 139.085Z" fill="#8EBA7C"/>
<path d="M132.457 133.429C132.921 133.255 133.389 133.094 133.862 132.946C134.043 133.037 134.182 133.118 134.38 133.162C133.74 133.27 133.101 133.353 132.457 133.429Z" fill="#3B773B"/>
<path d="M86.7128 100.128L87.0269 100.179C86.9815 100.518 86.9413 100.86 86.8796 101.197L86.7104 101.361L86.7128 100.128Z" fill="#0B8DCB"/>
<path d="M72.9766 46.9945C73.082 47.234 73.1793 47.432 73.3449 47.6386C73.2824 47.8254 73.2668 48.0324 73.0953 48.1355C72.9469 47.7922 72.9844 47.364 72.9766 46.9945Z" fill="white"/>
<path d="M59.0655 128.301C59.3069 128.438 59.5206 128.505 59.6612 128.75C59.3683 128.797 59.1354 128.68 58.8706 128.55L59.0655 128.301Z" fill="#0B8DCB"/>
<path d="M46.9131 101.946C47.0811 102.12 47.2994 102.265 47.3361 102.507C47.0346 102.434 46.8646 102.262 46.6396 102.063L46.9131 101.946Z" fill="#8EBA7C"/>
<path d="M129.394 146.424C129.175 146.466 129.048 146.482 128.833 146.421C128.981 146.186 129.145 146.161 129.395 146.05L129.394 146.424Z" fill="#F2BA22"/>
<path d="M145 126.85L145.033 127.125C144.811 127.218 144.652 127.266 144.412 127.277C144.572 127.042 144.755 126.979 145 126.85Z" fill="#3B773B"/>
</svg>
