<svg width="200" height="200" viewBox="0 0 200 200" fill="none" xmlns="http://www.w3.org/2000/svg">
<path fill-rule="evenodd" clip-rule="evenodd" d="M123.587 12.8282C124.661 12.5221 125.757 12.8202 126.701 13.3644C127.738 13.9627 128.43 14.8138 129.157 15.7452C129.84 14.8733 130.8 14.2405 131.912 14.0958C133.097 13.9419 134.391 14.3789 135.303 15.1368C136.37 16.0241 136.96 17.3361 137.052 18.7071C137.269 21.9354 134.705 24.7198 133.616 27.6036C133.025 29.1692 132.796 30.7309 132.821 32.3986C132.83 32.9945 132.795 33.8924 133.154 34.3868C134.138 34.7398 135.159 34.9218 136.161 35.2062C137.245 35.5133 138.311 35.9893 139.317 36.4904C140.31 36.9849 141.085 37.8903 142.067 38.339C143.179 38.8466 144.357 38.7552 145.314 39.6437C146.357 40.6132 146.816 41.9542 147.702 43.0284C148.016 43.4088 148.479 43.6936 148.848 44.0216C149.484 44.5875 150.04 45.6935 150.406 46.4669C151.696 49.1934 151.94 52.2227 150.896 55.0675C150.715 55.5619 150.517 56.0211 150.242 56.4718L150.35 56.5695C151.307 57.4188 152.436 58.0605 153.456 58.8282C156.166 60.8669 158.088 63.6117 158.337 67.0616C158.41 68.073 158.358 70.3316 157.718 71.132C157.655 71.2109 157.611 71.225 157.531 71.2667C156.492 70.3767 155.107 67.1763 153.429 67.1876C153.172 67.1907 151.817 68.108 151.499 68.2882C150.485 68.8627 149.32 69.4804 148.209 69.8468C146.513 70.4064 144.785 70.5458 143.028 70.7638C141.416 70.9634 139.767 71.2027 138.175 71.5226C139.091 74.3966 140.639 77.0538 142.038 79.7111C143.913 83.2724 145.788 86.8068 147.428 90.4845C152.92 102.802 154.47 117.255 152.122 130.498C151.822 132.194 151.523 133.934 151.06 135.593C150.151 138.764 148.932 141.839 147.418 144.771C143.382 152.574 136.912 158.851 128.99 162.65C127.464 163.392 125.941 164.086 124.322 164.602C121.999 165.339 119.566 165.894 117.161 166.279C115.793 166.498 114.122 166.459 112.84 166.933C111.775 167.327 110.812 168.161 109.765 168.657C110.026 169.914 110.198 171.277 110.628 172.485C113.741 174.48 115.832 176.079 117.227 179.614C119.897 179.288 123.93 179.751 126.124 181.452C126.43 181.689 126.721 181.999 126.777 182.399C126.811 182.649 126.752 182.913 126.592 183.112C126.406 183.346 126.082 183.531 125.836 183.696C126.581 184.175 127.745 184.928 127.874 185.878C127.917 186.19 127.796 186.458 127.591 186.682C126.566 187.798 124.613 187.976 123.21 188.114C123.456 189.403 124.296 189.696 123.429 191.134C121.05 192.118 116.877 190.646 114.585 189.695C113.374 189.193 111.955 188.548 110.935 187.721C110.446 187.324 110.028 186.764 109.501 186.427C109.31 186.305 109.199 186.269 108.98 186.372C107.957 186.853 106.877 189.417 105.729 189.779C105.417 189.691 105.229 189.471 105.058 189.193C104.454 188.206 104.775 186.784 105.066 185.737C105.293 184.922 106.23 183.648 105.805 182.905C105.431 182.252 104.794 181.649 104.3 181.079C103.011 179.593 102.1 178.096 101.478 176.229C101.153 175.253 100.952 174.283 100.976 173.251C100.983 172.941 101.086 172.559 101.054 172.263C101.027 172.004 100.99 171.978 100.782 171.874C99.8262 171.894 97.3714 172.99 96.6742 172.372C96.5274 171.992 96.596 171.748 96.7611 171.382C97.3141 170.158 98.4063 169.109 99.6849 168.675C100.703 168.33 101.789 168.342 102.835 168.137L102.748 168.034C102.529 167.778 102.317 167.557 102.062 167.334C101.292 166.663 100.798 165.825 100.35 164.92C99.0243 164.253 97.6457 163.727 96.3392 163.018C92.5367 160.94 89.1768 158.137 86.4496 154.77C85.7641 153.92 85.0958 153.038 84.4759 152.14C84.1158 151.618 83.7997 150.75 83.3412 150.347C82.6682 150.609 81.944 151.748 81.3734 152.28C79.508 154.021 77.6226 155.616 75.517 157.062C66.6893 163.122 55.0908 165.161 44.5902 163.806C41.694 163.432 38.7002 162.846 36.017 161.673C33.4683 160.558 30.9046 158.706 29.8773 156.025C29.318 154.564 29.454 153.116 30.0873 151.713C31.554 148.463 35.3386 146.551 38.5101 145.377C38.9959 145.199 39.4887 145.037 39.9857 144.894C32.0996 145.017 22.9408 143.708 17.056 137.965C15.3711 136.32 13.7325 134.105 13.6898 131.645C13.6621 130.043 14.3223 128.171 15.4418 127.016C18.2244 124.145 23.9893 123.502 27.8363 123.196L27.8373 123.197C28.6678 123.162 29.5217 123.194 30.3441 123.074L30.6888 123.11C30.7932 123.121 30.9001 123.129 31.0062 123.134C31.0807 123.137 31.1555 123.141 31.2289 123.138C31.2845 123.136 31.3397 123.129 31.3939 123.122C31.4022 123.121 31.411 123.12 31.4193 123.119C31.4626 123.113 31.5054 123.104 31.5472 123.094C31.5609 123.091 31.5748 123.087 31.5882 123.083C31.6381 123.069 31.6878 123.053 31.7347 123.032C31.7213 123.011 31.704 122.99 31.6849 122.969C31.6758 122.959 31.666 122.949 31.6556 122.939C31.6442 122.928 31.6314 122.917 31.6185 122.906C31.5451 122.845 31.45 122.785 31.3402 122.73C31.1933 122.655 31.0207 122.586 30.8412 122.523C30.798 122.507 30.7541 122.492 30.7103 122.478C30.6584 122.46 30.606 122.443 30.5541 122.427C30.4039 122.38 30.2554 122.335 30.1195 122.296L29.6781 122.165L28.9994 121.847C28.3152 121.542 27.6128 121.278 26.8968 121.057C26.1258 120.508 25.2019 120.206 24.389 119.725C22.7891 118.778 21.1428 117.517 19.7455 116.298C17.074 113.968 14.3619 110.035 14.1312 106.393C14.0388 104.933 14.4758 103.401 15.4769 102.312C17.632 99.9677 22.055 99.6432 25.0433 99.7032C25.6595 99.7157 26.3494 99.9471 26.9349 99.9103C27.1348 99.8978 27.1699 99.9112 27.3021 99.753C27.0136 98.77 25.4873 98.1415 24.8548 97.3321C23.2893 95.3287 21.7995 93.3315 20.6253 91.0655C18.997 87.9227 17.6809 84.3941 18.8695 80.881C19.2839 79.6563 20.2079 78.8991 21.3382 78.3546C24.4028 76.8781 28.6408 77.6512 31.722 78.7335C33.0121 79.1866 34.2572 79.8175 35.5404 80.257C35.729 80.3216 35.6334 80.3186 35.8451 80.215C35.412 79.2701 34.7525 78.3852 34.2425 77.4747C32.4734 74.317 30.6866 70.7186 30.1019 67.1261C29.8235 65.4146 29.91 62.9979 30.9867 61.5597C31.8253 60.4403 33.2991 59.7875 34.6605 59.6144C38.6601 59.1066 43.4151 61.0427 46.7416 63.1671C48.4598 64.2643 50.0396 65.5574 51.6468 66.8058L51.8236 66.7794C51.6903 65.6967 51.2458 64.5545 50.9994 63.4796C50.3764 60.7606 49.961 57.2884 50.6839 54.5519C50.921 53.6549 51.3104 52.836 51.7103 52.003L51.7748 51.9464C53.2601 50.6591 54.5893 49.9717 56.599 50.13C59.6809 50.3737 64.3887 53.0343 66.6752 55.128C67.2485 55.8568 67.9975 56.4593 68.6107 57.1603C69.2775 57.7364 70.6005 59.567 71.1615 60.339C71.0763 59.7066 70.9834 59.0711 70.9486 58.4337C70.7681 55.1624 71.4208 50.4246 73.7123 47.9015C74.7613 46.7466 76.1564 45.9449 77.7416 45.8712C80.0282 45.7654 82.1355 46.9033 83.7757 48.4064C84.0331 48.6965 84.301 48.9552 84.5931 49.2111C84.6243 49.2387 84.6571 49.2656 84.6879 49.2941C86.6983 51.1308 88.9251 56.1356 89.8783 58.6642C90.0653 59.1614 90.5394 61.2371 90.8129 61.5099C91.4291 60.9461 91.7608 59.4606 92.1537 58.6876C92.7536 57.5062 93.4826 56.2394 94.3265 55.213C96.1526 52.9922 99.3956 50.7624 102.395 50.8644C104.06 50.921 105.553 51.7284 106.661 52.9454C109.146 55.6727 109.711 59.7139 110.188 63.2267C111.363 62.5694 112.535 61.9506 113.765 61.4015C113.815 59.15 114.184 56.7346 114.818 54.5753C115.108 53.5864 115.524 52.6355 115.799 51.6427C116.11 50.5213 116.168 49.3071 116.398 48.1622C117.139 44.4808 118.899 41.3462 121.6 38.7511C122.445 37.9391 123.415 37.1764 124.403 36.5431C122.372 32.6972 119.466 30.3739 115.327 29.0968C113.669 28.585 111.71 28.134 110.833 26.4484C110.39 25.5946 110.42 24.5998 110.721 23.7042C111.122 22.5114 112.055 21.6003 113.185 21.0792C113.582 20.8959 114.01 20.8184 114.438 20.7423C114.048 19.8108 113.796 18.7851 114.197 17.8058C114.256 17.6598 114.33 17.5198 114.399 17.378C114.512 17.1435 114.623 16.9096 114.713 16.6652C115.948 15.7607 117.022 15.0289 118.632 15.3087C119.223 15.4115 119.802 15.8173 120.372 15.8439C121.165 14.451 121.931 13.3005 123.587 12.8282ZM79.1029 108.874C79.5557 109.759 80.7921 111.357 80.7484 112.323C80.9597 112.814 81.2392 113.484 81.5687 113.897C81.6436 113.931 81.7361 113.94 81.7943 113.998C82.3849 114.595 84.4546 118.962 84.8558 119.928L85.0814 119.951L85.2005 119.785C85.1538 119.403 80.017 109.717 79.472 108.858L79.1029 108.874ZM90.3519 103.194C90.6867 105.582 91.3627 107.974 91.9408 110.313C92.1876 111.311 92.3605 112.497 92.7709 113.435C92.821 112.613 91.1862 104.251 90.8461 103.353C90.8437 103.391 90.8396 103.43 90.8392 103.469C90.8264 104.463 91.1982 105.502 91.3197 106.492L91.2591 106.535C90.7627 105.482 90.9031 104.201 90.3519 103.194ZM90.1341 106.246C90.5618 108.314 91.158 110.34 91.7865 112.355C91.7207 110.266 90.8212 107.927 90.4115 105.855L90.1341 106.246ZM98.8627 108.731L98.6371 108.707C98.5578 109.485 98.7213 110.287 98.8509 111.051C99.0883 110.251 99.0138 109.345 99.015 108.515L98.8627 108.731ZM122.947 109.186C122.695 109.028 122.374 109.084 122.087 109.092L122.159 109.275C122.428 109.28 122.703 109.318 122.947 109.186ZM63.182 107.692C63.7076 107.976 64.2155 108.352 64.7279 108.665C64.6635 108.585 64.5976 108.506 64.5296 108.429C64.1395 107.987 63.7756 107.515 63.1488 107.477L63.182 107.692ZM88.2513 103.261C88.3724 104.091 88.6529 104.876 88.8138 105.696L89.2269 105.555C88.9422 104.761 88.6567 104.004 88.2513 103.261ZM87.8148 102.646L87.8832 102.724L87.9261 102.617L87.8978 102.614L87.8148 102.646ZM87.932 102.604L87.933 102.602H87.931L87.932 102.604ZM87.1918 101.163C87.3378 101.632 87.5358 102.073 87.7318 102.523L87.8373 102.542L87.9154 102.468C87.8189 101.972 87.6181 101.47 87.4388 100.999L87.1918 101.163ZM75.4769 99.8175C75.9124 100.314 76.3215 100.842 76.7464 101.349C76.4961 100.793 76.2402 100.262 75.9261 99.7394L75.4769 99.8175ZM85.3002 92.4122C85.0625 92.491 84.8177 92.5573 84.5961 92.6739C85.4398 94.0028 86.2294 95.526 86.5619 97.0802C86.6244 97.3407 86.6912 97.4775 86.6107 97.7364L86.1283 97.8966C86.5872 98.2696 86.7862 98.901 87.2201 99.214C87.3037 98.641 86.9427 97.6495 86.8451 97.0402C86.6181 95.4679 85.9552 93.8481 85.3002 92.4122ZM97.4369 95.2491C97.2455 95.4745 97.221 95.5271 96.9408 95.6075C97.2654 96.3974 97.4259 97.2531 97.6185 98.0831C97.6455 97.1375 97.5263 96.1892 97.4369 95.2491ZM129.606 90.5929C129.47 90.9617 129.434 91.2857 129.318 91.5528C128.938 92.1325 128.696 92.8556 128.398 93.4845C127.993 94.3403 127.521 95.1748 127.058 96.0001L127.139 96.1661C128.205 95.867 129.278 95.5911 130.356 95.34C130.308 94.4676 130.252 90.7335 129.7 90.2081L129.606 90.5929ZM121.98 71.2618C121.771 73.2363 121.474 75.2001 121.088 77.1476C121.625 76.9015 122.156 76.6403 122.678 76.3634L124.43 75.6749C123.986 74.8193 122.616 71.7422 121.98 71.2618ZM108.385 72.5382C108.375 72.9868 108.327 73.4708 108.404 73.9132L108.512 73.837C108.694 73.5437 108.691 73.2223 108.72 72.8868L108.385 72.5382ZM90.4349 67.0099C90.4892 67.4333 90.6224 67.9621 90.5599 68.382L90.641 68.7023C90.9494 68.2273 90.749 67.1763 90.6849 66.6271L90.4349 67.0099ZM144.58 49.3126L144.534 49.8282C144.444 49.9019 144.372 49.9615 144.268 50.0138C144.343 50.709 144.634 51.3478 144.903 51.9845C144.866 51.0627 144.717 50.153 144.695 49.2296L144.58 49.3126ZM118.077 16.4445C117.5 16.4029 116.952 16.6497 116.472 16.9542C116.665 17.0379 116.821 17.1157 117.038 17.0978C117.473 17.0617 117.782 16.7291 118.077 16.4445Z" fill="black"/>
<path d="M117.053 50.8027C117.683 47.2097 118.741 44.2011 121.076 41.3398C123.243 38.6833 126.761 36.3138 130.236 35.9736C134.515 35.5547 138.137 36.3081 141.497 39.0718C140.992 39.571 140.499 40.191 140.468 40.9425C140.46 41.1437 140.484 41.3699 140.649 41.5066C141.233 41.9906 142.953 41.4941 143.681 41.4558C144.922 41.3902 145.616 41.7968 146.501 42.5945C145.828 42.6738 145.287 42.8097 144.764 43.264C143.631 44.2503 143.306 46.0738 143.244 47.5093C143.147 49.7476 143.899 52.4191 145.421 54.098C143.758 53.8398 142.031 54.0624 140.583 54.9531C140.101 53.0156 139.492 51.0253 138.613 49.2285C137.375 46.6937 135.483 44.798 132.785 43.8906C130.547 43.1374 128.544 43.3558 126.451 44.3882C125.809 44.8003 125.244 45.2261 124.698 45.7621C123.247 47.9324 122.689 50.2539 123.206 52.8105C123.707 55.2828 124.952 57.4921 127.096 58.8863C129.663 60.5566 131.91 60.6152 134.852 60.832C135.284 61.9449 135.568 63.0925 135.972 64.2113C136.904 66.7906 138.571 68.7929 140.935 70.1882C135.206 70.5222 130.777 70.5695 125.401 68.0214C128.412 70.8792 133.196 71.2206 137.14 71.3792C137.803 73.7812 139.101 76.0695 140.228 78.2789C142.291 82.3238 144.539 86.307 146.406 90.4464C153.725 106.678 154.706 129.613 145.745 145.417C140.877 154.001 132.135 160.325 122.683 162.912C120.091 163.649 117.428 164.108 114.739 164.283C115.659 162.952 117.351 160.699 117.251 158.997L117.112 158.881C116.591 159.243 115.426 161.386 114.965 162.079C113.079 164.916 109.564 167.903 105.902 167.299C104.192 167.017 102.739 165.723 101.786 164.333C101.388 163.755 100.999 163.138 100.767 162.473C100.518 161.758 100.476 160.653 100.044 160.056L99.9018 160.107C99.6416 160.733 99.5916 161.364 99.5057 162.031C93.6869 159.44 88.3631 155.564 85.0205 150.024C87.0178 150.403 89.0885 150.852 91.1268 150.877C96.6893 150.946 102.873 148.273 107.423 145.18C115.815 139.474 121.811 131.005 123.722 120.967C124.394 117.437 124.465 114.003 123.812 110.462C126.389 109.557 127.971 108.302 129.162 105.797C132.51 98.7581 131.498 90.88 128.937 83.8046C127.461 79.7281 125.358 75.2601 123.27 71.4554C122.671 70.3636 121.926 69.3429 121.274 68.282C119.721 65.7566 118.835 63.5746 118.01 60.7242C117.496 58.9456 117.449 56.9917 117.629 55.1578C117.722 54.2113 118.676 50.7183 118.495 50.2035C118.26 50.2074 118.115 50.3124 117.956 50.4831C117.823 50.6261 117.714 50.8062 117.606 50.9687L117.053 50.8027Z" fill="#0B8DCB"/>
<path d="M124.437 45.4289C124.593 44.4543 124.956 43.3852 125.445 42.5207C126.197 41.1902 127.536 40.0594 129.031 39.6801C130.031 39.4266 131.073 39.5762 131.942 40.1422C132.427 40.4586 132.886 40.8602 133.011 41.4449C132.729 42.6207 129.825 42.4477 128.741 42.7496C127.743 43.0273 126.893 43.4801 126.068 44.1008L126.451 44.3883C125.809 44.8004 125.244 45.2262 124.698 45.7621L124.437 45.4289Z" fill="black"/>
<path d="M126.068 44.1007L126.451 44.3882C125.809 44.8003 125.244 45.2261 124.698 45.762L124.437 45.4288C125.139 45.3202 125.635 44.6023 126.068 44.1007Z" fill="#0B8DCB"/>
<path d="M111.775 109.811C113.497 109.745 115.234 109.87 116.956 109.903C118.864 109.939 120.756 109.896 122.666 109.964C123.335 112.82 123.45 115.561 123.175 118.473C122.32 127.534 117.432 136.65 110.397 142.432C105.154 146.74 96.8673 150.944 89.9657 150.253C88.3774 150.141 86.7325 149.833 85.2142 149.354C82.8271 148.6 80.7763 147.207 79.6149 144.948C78.1634 142.125 77.8942 137.714 78.6806 134.673C78.8689 133.946 79.2907 133.313 79.5181 132.6L79.247 132.497L79.1814 132.333C80.6423 127.589 83.0411 123.502 86.4509 119.895C91.5505 114.549 98.3345 111.12 105.663 110.185C107.683 109.914 109.74 109.868 111.775 109.811Z" fill="#8EBA7C"/>
<path d="M113.733 128.483L113.831 128.577C113.985 129.116 113.72 129.977 113.582 130.512C112.844 133.371 111.4 136.402 108.746 137.948C106.866 139.034 104.633 139.338 102.531 138.795C101.234 138.447 100.314 137.789 99.6499 136.628C99.4339 136.118 99.3241 135.613 99.2104 135.073C100.012 135.909 100.52 136.611 101.612 137.117C103.306 137.9 105.313 137.861 107.045 137.213C110.845 135.792 112.192 131.865 113.733 128.483Z" fill="black"/>
<path d="M94.623 125.525L94.8003 125.7C94.8425 126.004 94.8589 126.285 94.8195 126.591C94.5062 129.024 92.5214 131.939 90.5992 133.416C88.9109 134.713 86.6632 135.545 84.5183 135.25C82.9593 135.036 81.3539 134.419 80.3937 133.132C80.2972 132.957 80.1843 132.774 80.1144 132.586C80.0269 132.352 80.0835 132.216 80.1746 131.997C80.7324 131.752 81.3277 132.508 81.7453 132.809C82.0785 133.048 82.4644 133.222 82.8484 133.363C84.7867 134.076 86.9933 133.912 88.8468 133.03C91.9097 131.572 93.5226 128.588 94.623 125.525Z" fill="black"/>
<path d="M101.077 113.395C102.386 113.494 104.32 113.642 105.452 114.323C105.851 114.563 106.101 114.951 106.2 115.402C106.433 116.473 105.877 117.714 105.298 118.6C103.987 120.604 101.84 122.233 99.4741 122.719C97.9159 123.039 96.6659 122.741 95.3495 121.883C95.1999 121.768 95.0245 121.648 94.9011 121.505C94.7374 121.318 94.7355 121.146 94.7476 120.913C95.3374 120.392 96.6136 121.415 97.271 121.594C97.9077 121.767 98.653 121.755 99.305 121.67C101.315 121.416 103.132 120.348 104.331 118.715C104.921 117.923 105.707 116.423 105.472 115.418C105.262 114.523 101.924 114.204 101.132 113.677L101.077 113.395Z" fill="black"/>
<path d="M115.71 114.443L115.73 114.695C115.455 115.309 114.247 115.78 113.656 116.093C113.216 117.81 112.413 119.179 111.146 120.426C109.931 121.622 108.163 122.622 106.418 122.576C105.53 122.553 104.292 122.222 103.673 121.553C103.614 121.293 103.576 121.212 103.656 120.961C104.177 120.734 105.011 121.279 105.595 121.366C106.426 121.475 107.223 121.38 108.014 121.11C110.424 120.285 111.968 118.404 113.057 116.192C112.626 116.241 112.192 116.262 111.759 116.255C110.694 116.233 110.049 115.784 109.341 115.053C111.773 115.824 113.454 115.463 115.71 114.443Z" fill="black"/>
<path d="M96.7228 115.391L96.8767 115.58C96.9458 116.385 96.5013 117.194 96.0896 117.863C94.6634 120.179 91.8509 122.992 89.1056 123.601C87.7239 123.907 86.6911 123.478 85.5431 122.761C85.513 122.736 85.4817 122.712 85.4532 122.686C85.2239 122.474 85.104 122.289 85.1021 121.975C85.5505 121.528 86.9806 122.357 87.5634 122.45C88.2188 122.555 88.9579 122.444 89.5962 122.27C93.0095 121.339 95.0798 118.293 96.7228 115.391Z" fill="black"/>
<path d="M96.895 139.316L96.961 139.518C96.8712 140.114 96.6235 140.627 96.2462 141.096C94.7118 143.001 92.195 144.201 89.7864 144.435C87.7974 144.628 85.7974 144.123 84.2427 142.861C84.0704 142.681 83.8884 142.539 83.8657 142.277L84.0087 142.237C84.038 142.254 84.0673 142.272 84.0966 142.289C86.456 143.658 89.3524 143.733 91.9306 143.028C93.9841 142.466 95.8415 141.188 96.895 139.316Z" fill="black"/>
<path d="M74.8252 67.3149C74.7155 67.1434 74.7412 67.2032 74.6772 67.0446C74.0709 65.5469 72.6327 63.1164 72.2823 61.8204C72.0932 61.1219 72.0881 60.3223 72.053 59.6016C71.8936 56.3602 72.1162 52.3973 73.8326 49.5469C74.5541 48.3489 75.701 47.3723 77.0873 47.0594C78.7944 46.6743 80.5705 47.3715 81.976 48.3063C85.6686 50.7633 88.5291 57.0922 89.6428 61.2993C90.1088 63.0614 90.3303 64.845 90.685 66.627L90.4354 67.0098C90.4897 67.4332 90.6221 67.9618 90.5596 68.3817L90.6408 68.7024C91.353 71.8665 91.217 76.7481 91.2213 80.1032C89.6979 80.0395 88.3541 80.1602 87.1299 81.1938C85.1623 82.8543 84.403 85.9133 84.1475 88.3555C83.278 87.0375 82.1444 86.2348 80.7522 85.5235C80.4787 84.0094 79.9651 82.5164 79.542 81.0387C78.7272 78.1922 77.9135 75.345 76.9268 72.552C76.3682 70.9707 75.5643 69.4379 75.1682 67.8082C75.0616 67.6352 74.9491 67.4758 74.8252 67.3149Z" fill="#3B773B"/>
<path d="M74.8252 67.3149C74.7155 67.1434 74.7412 67.2032 74.6772 67.0446C74.0709 65.5469 72.6327 63.1164 72.2823 61.8204C72.0932 61.1219 72.0881 60.3223 72.053 59.6016C71.8936 56.3602 72.1162 52.3973 73.8326 49.5469C74.5541 48.3489 75.701 47.3723 77.0873 47.0594C78.7944 46.6743 80.5705 47.3715 81.976 48.3063C85.6686 50.7633 88.5291 57.0922 89.6428 61.2993C90.1088 63.0614 90.3303 64.845 90.685 66.627L90.4354 67.0098C89.5909 64.0813 87.9241 60.9887 85.1647 59.4739C83.6983 58.6692 81.9502 58.3735 80.3264 58.8473C78.5373 59.3696 77.0873 60.6579 76.2022 62.2809C75.3162 63.9043 75.2135 65.5543 74.8252 67.3149Z" fill="#8EBA7C"/>
<path d="M74.8247 67.3148C75.213 65.5542 75.3157 63.9042 76.2017 62.2808C77.0868 60.6577 78.5368 59.3695 80.3259 58.8472C81.9497 58.3734 83.6978 58.6691 85.1642 59.4738C87.9235 60.9886 89.5903 64.0812 90.4349 67.0097C90.4892 67.4331 90.6216 67.9617 90.5591 68.3816C89.6692 66.4609 89.231 64.5171 88.0274 62.7101C86.872 60.9753 85.3021 59.6011 83.2091 59.1894C81.6009 58.8738 79.9329 59.2206 78.5837 60.1515C76.0876 61.8796 75.6415 65.0511 75.1677 67.8081C75.061 67.6351 74.9485 67.4757 74.8247 67.3148Z" fill="black"/>
<path d="M83.26 65.6352C83.8932 65.5672 84.326 65.6324 84.9076 65.9098C85.8381 66.3528 86.5662 67.2059 86.8924 68.1797C87.2033 69.1078 87.1725 70.2239 86.7139 71.1C86.2717 71.9449 85.6896 72.2414 84.8228 72.5039C84.2709 72.5438 83.7443 72.4285 83.2455 72.193C82.2947 71.7414 81.5631 70.9301 81.2119 69.9383C80.9002 69.0645 80.8736 68.0453 81.2853 67.1992C81.7084 66.3301 82.3947 65.9485 83.26 65.6352Z" fill="black"/>
<path d="M83.3988 66.2206C83.7261 66.1933 84.0273 66.1698 84.3421 66.2823C85.1308 66.5651 85.7698 67.1573 86.1116 67.9222C86.4152 68.5987 86.4905 69.3901 86.214 70.0886C85.9136 70.846 85.423 71.1327 84.7066 71.4358C84.3605 71.421 84.023 71.3831 83.6905 71.2784C82.9405 71.0421 82.2831 70.514 81.9245 69.8101C81.6171 69.2069 81.5316 68.4858 81.7636 67.8429C82.0511 67.0464 82.6687 66.5878 83.3988 66.2206Z" fill="#EA6F1C"/>
<path d="M91.935 69.925C91.8385 68.9351 91.7826 67.9371 91.6639 66.9504C91.5553 66.0468 91.3041 65.0765 91.3334 64.1679C91.4057 61.9504 93.8951 57.5597 95.2725 55.8949C96.9022 53.9246 99.2361 52.2558 101.85 52.0426C103.203 51.9316 104.375 52.2527 105.417 53.1508C108.204 55.5523 108.944 60.1394 109.168 63.5965C109.371 66.7383 109.012 69.7656 108.72 72.8867L108.385 72.5383C108.375 72.9871 108.326 73.4711 108.403 73.9136C108.09 74.1375 108.125 74.164 108.065 74.5261C108.063 74.5406 108.061 74.555 108.059 74.5695C107.926 75.6078 107.918 76.6801 107.798 77.7261C107.521 80.1472 107.018 82.4902 106.358 84.8336C105.678 84.864 105.011 84.9218 104.36 85.1398C101.858 85.9785 100.206 88.5222 99.0709 90.7531C98.9268 89.8945 98.7006 89.0238 98.4408 88.1929C97.4162 84.9175 95.383 81.964 92.3037 80.3656C92.3658 77.0898 92.0576 73.7832 92.2088 70.5218C92.1514 70.2175 92.1631 70.1492 91.935 69.925Z" fill="#3B773B"/>
<path d="M91.935 69.925C91.8385 68.9351 91.7826 67.9371 91.6639 66.9504C91.5553 66.0469 91.3041 65.0765 91.3334 64.1679C91.4057 61.9504 93.8951 57.5597 95.2725 55.8949C96.9022 53.9246 99.2361 52.2558 101.85 52.0426C103.203 51.9316 104.375 52.2527 105.417 53.1508C108.204 55.5523 108.944 60.1394 109.168 63.5965C109.371 66.7383 109.012 69.7656 108.72 72.8867L108.385 72.5383C108.281 70.8222 108.085 69.1605 107.556 67.5176C106.834 65.2734 105.567 63.084 103.389 61.9929C101.911 61.2468 100.192 61.1328 98.6283 61.6773C95.8744 62.6199 94.0135 64.8406 92.9018 67.4527C92.5846 68.1972 92.3842 69.066 92.0194 69.7695C91.992 69.8218 91.9631 69.873 91.935 69.925Z" fill="#8EBA7C"/>
<path d="M91.9351 69.925C91.9632 69.873 91.9921 69.8219 92.0194 69.7695C92.3843 69.066 92.5847 68.1973 92.9019 67.4527C94.0136 64.8406 95.8745 62.6199 98.6284 61.6773C100.192 61.1328 101.911 61.2469 103.389 61.993C105.567 63.084 106.834 65.2734 107.556 67.5176C108.085 69.1605 108.282 70.8223 108.385 72.5383C108.375 72.9871 108.326 73.4711 108.403 73.9137C108.091 74.1375 108.125 74.1641 108.066 74.5262C108.063 74.5406 108.061 74.5551 108.059 74.5695C107.928 72.0055 107.926 69.6344 107.041 67.1773C106.342 65.2352 105.094 63.2074 103.146 62.3242C101.686 61.6621 99.9788 61.6586 98.4905 62.2273C96.1331 63.1281 94.2995 65.1707 93.353 67.4723C92.9526 68.4461 92.6819 69.4738 92.2499 70.4332L92.2089 70.5219C92.1515 70.2176 92.1632 70.1492 91.9351 69.925Z" fill="black"/>
<path d="M101.582 68.4718C102.094 68.4398 102.581 68.4097 103.077 68.5722C103.882 68.8367 104.508 69.4589 104.87 70.2144C105.359 71.2316 105.368 72.4425 104.954 73.4871C104.573 74.4484 104.007 74.8843 103.093 75.2664C102.549 75.3164 102.059 75.291 101.551 75.0753C100.675 74.7035 100.021 73.9648 99.6895 73.0789C99.3309 72.1199 99.3441 70.9882 99.7801 70.0562C100.165 69.2336 100.748 68.7808 101.582 68.4718Z" fill="black"/>
<path d="M102.082 68.9622C102.565 68.986 102.976 69.0586 103.393 69.3172C104.057 69.729 104.48 70.425 104.626 71.1836C104.77 71.9305 104.679 72.7438 104.227 73.3723C103.815 73.9457 103.319 74.0688 102.654 74.1946C102.377 74.1653 102.114 74.1247 101.856 74.0125C101.109 73.6875 100.526 73.0192 100.269 72.2512C100.05 71.5965 100.085 70.8711 100.404 70.2543C100.757 69.5696 101.361 69.177 102.082 68.9622Z" fill="#EA6F1C"/>
<path d="M43.3787 124.625C44.4193 124.637 45.5076 124.834 46.5415 124.957C50.8482 125.446 55.1087 126.276 59.2841 127.438C60.5197 127.777 61.8013 128.094 63.0037 128.539C64.1951 128.979 65.288 129.658 66.4501 130.165C67.2329 130.507 68.0849 130.752 68.8271 131.179C69.4001 131.507 69.4462 131.907 69.6091 132.497C68.5689 132.527 67.5388 132.763 66.5579 133.102C64.6408 133.762 63.0009 134.88 62.099 136.747C61.3919 138.212 61.2283 139.947 61.7728 141.488C57.5704 141.704 53.4275 142.066 49.2087 141.998C49.0497 141.993 48.8911 141.983 48.7326 141.975C43.2564 141.684 32.3387 140.083 28.6423 135.911C27.7672 134.923 27.1522 133.645 27.2654 132.298C27.3609 131.162 28.0765 130.189 28.9195 129.464C29.8003 128.707 30.8878 128.233 31.9764 127.859C36.9806 126.139 42.3021 126.931 47.4427 127.33C46.9447 126.923 46.4462 126.511 45.9029 126.165C45.1912 125.712 43.8904 125.265 43.3787 124.625Z" fill="#3B773B"/>
<path d="M38.159 131.069C39.0484 131.023 39.796 131.071 40.6054 131.505C41.498 131.983 42.2476 132.821 42.5187 133.809C42.7187 134.528 42.6202 135.298 42.2456 135.944C41.7593 136.795 40.9421 137.284 40.0171 137.526C39.1492 137.655 38.2876 137.603 37.4777 137.239C36.5843 136.837 35.7663 136.094 35.4527 135.146C35.2087 134.4 35.2777 133.587 35.6438 132.892C36.1779 131.871 37.1115 131.405 38.159 131.069Z" fill="black"/>
<path d="M38.3753 131.656C38.928 131.638 39.403 131.638 39.9241 131.852C40.6807 132.162 41.3244 132.761 41.6291 133.527C41.8702 134.132 41.8655 134.793 41.5741 135.381C41.1604 136.217 40.4319 136.547 39.5963 136.819C38.868 136.89 38.1947 136.821 37.5388 136.475C36.8882 136.132 36.3635 135.552 36.1477 134.843C35.9511 134.213 36.0285 133.53 36.3608 132.961C36.8062 132.206 37.552 131.844 38.3753 131.656Z" fill="#EA6F1C"/>
<path d="M32.0075 104.924C32.0421 104.916 32.0763 104.906 32.1114 104.901C34.092 104.625 36.2143 105.257 38.0875 105.826C44.8552 107.881 51.1884 111.232 56.9825 115.263C56.215 116.372 55.8681 117.463 55.9786 118.824C56.2243 121.854 58.6407 124.552 60.8357 126.444L56.62 125.421C53.2439 124.53 49.6638 123.964 46.2013 123.516C44.5017 123.296 42.7814 123.229 41.1017 122.874C37.2968 122.07 32.8937 120.113 29.8715 117.71C27.8521 116.105 25.8385 113.707 25.5937 111.034C25.4667 109.647 25.8584 108.513 26.7321 107.458C28.1352 105.765 29.8733 105.139 32.0075 104.924Z" fill="#3B773B"/>
<path d="M37.0055 110.165C37.8503 110.127 38.6961 110.292 39.4451 110.697C40.3498 111.185 41.0584 112.027 41.3142 113.031C41.5154 113.797 41.4005 114.612 40.9955 115.293C40.4619 116.185 39.6017 116.607 38.635 116.859C37.7285 116.889 36.8186 116.759 36.0194 116.307C35.1818 115.833 34.5611 115.068 34.3136 114.135C34.1 113.329 34.1673 112.433 34.5943 111.708C35.1423 110.777 36.0195 110.436 37.0055 110.165Z" fill="black"/>
<path d="M36.9437 110.757C37.7335 110.71 38.4537 110.845 39.1272 111.283C40.0706 111.897 40.4444 112.734 40.6843 113.783C40.6022 114.023 40.5245 114.269 40.4159 114.498C40.0292 115.313 39.3644 115.743 38.5344 116.018C37.9453 116.048 37.4172 116.043 36.8543 115.83C36.0685 115.533 35.3942 114.936 35.0672 114.156C34.8067 113.533 34.7855 112.841 35.0671 112.223C35.4235 111.44 36.1739 111.039 36.9437 110.757Z" fill="#EA6F1C"/>
<path d="M63.7769 61.5453C65.2137 61.3613 66.6641 61.7473 67.9406 62.3992C69.4625 63.1766 70.7094 64.3762 71.8019 65.6711C75.5492 70.1105 76.8355 75.807 78.2941 81.3016C78.6269 82.5555 78.9195 83.8406 79.3324 85.0703L79.3738 85.1906C78.8469 85.1305 78.3625 85.0805 77.8359 85.1918C76.5672 85.4605 75.5644 86.1953 74.8781 87.2914C73.4832 89.5199 73.6746 92.9934 74.2457 95.4406C73.7066 95.0644 73.2043 94.3801 72.7519 93.8926C70.8887 91.8848 69.1863 90.5844 66.3887 90.2496C65.9586 89.1473 65.3019 88.0566 64.7644 86.9961C62.4875 82.5051 59.5621 77.8547 58.5082 72.9012C57.9234 70.1531 57.7535 66.818 59.4144 64.3801C60.4309 62.8883 62.0266 61.9047 63.7769 61.5453Z" fill="#3B773B"/>
<path d="M66.8262 67.9715C68.7258 67.5711 70.5875 68.7961 70.9711 70.6992C71.3551 72.6023 70.1137 74.4535 68.2075 74.8207C66.3247 75.1836 64.5008 73.9609 64.1219 72.0808C63.7426 70.2012 64.9497 68.3668 66.8262 67.9715Z" fill="black"/>
<path d="M66.6211 68.5789C67.1641 68.5207 67.6383 68.502 68.1637 68.675C68.9613 68.9375 69.6605 69.5027 70.0105 70.275C70.284 70.8777 70.3199 71.5785 70.0699 72.1953C69.7344 73.0246 69.0687 73.441 68.2766 73.7711C67.7625 73.8445 67.2539 73.8102 66.7555 73.6598C66.0238 73.4438 65.4105 72.9414 65.0539 72.2668C64.7516 71.6871 64.6641 71.0012 64.8676 70.3746C65.1617 69.4672 65.8211 69.0016 66.6211 68.5789Z" fill="#EA6F1C"/>
<path d="M35.7171 85.2828C37.0723 85.0738 38.6112 85.3265 39.9667 85.4894C41.2245 86.5226 42.3245 87.7347 43.4667 88.8906C45.5515 91.0007 47.5929 93.1183 49.562 95.3382C51.203 98.2042 52.821 100.962 54.4394 102.783C56.7733 105.409 59.5319 107.625 62.5995 109.339C63.8038 110.005 65.1597 110.519 66.2991 111.282C67.4081 112.024 68.1366 113.198 69.2167 114.003C67.355 113.046 65.6792 112.757 63.6222 112.508C61.4011 112.438 59.619 112.814 57.8273 114.151C53.7784 111.5 49.5542 109.127 45.1839 107.048C43.0745 106.067 40.6273 105.582 38.6946 104.259C35.3133 101.945 30.6761 96.7925 29.9706 92.7296C29.6664 90.9781 30.0002 89.441 31.0442 87.9914C32.1607 86.441 33.8622 85.5816 35.7171 85.2828Z" fill="#3B773B"/>
<path d="M39.0955 90.645C39.8077 90.5782 40.6846 90.7965 41.3178 91.12C42.285 91.6141 43.128 92.4899 43.4221 93.5544C43.6561 94.4024 43.5069 95.2989 43.0768 96.059C42.5522 96.9864 41.792 97.4212 40.8077 97.7063C39.869 97.7825 38.9886 97.6403 38.175 97.1462C37.273 96.5977 36.6264 95.7126 36.3779 94.6864C36.1619 93.7879 36.2798 92.8348 36.8023 92.0594C37.3494 91.2469 38.1546 90.8251 39.0955 90.645Z" fill="black"/>
<path d="M38.8758 91.3239C39.4381 91.2692 39.9331 91.2453 40.4784 91.4286C41.353 91.7227 42.1046 92.3672 42.4901 93.2098C42.7756 93.8344 42.8284 94.5512 42.567 95.1934C42.2686 95.9262 41.6487 96.3727 40.9538 96.6911C40.4549 96.7911 39.9749 96.8164 39.476 96.6969C38.6577 96.5012 37.956 95.977 37.5358 95.2477C37.1594 94.6051 36.9924 93.7989 37.2145 93.075C37.4847 92.1942 38.1042 91.7391 38.8758 91.3239Z" fill="#EA6F1C"/>
<path d="M46.2638 68.6922C47.1924 68.5598 48.4357 68.8516 49.3248 69.1289C50.8365 69.6004 52.7471 70.4625 53.9279 71.5321C54.8158 72.3364 55.4365 73.6039 56.1029 74.5926C57.5127 76.684 58.9584 78.7196 60.1717 80.9356C61.8451 83.9922 63.1806 87.1977 64.8088 90.2696C63.8756 90.4578 63.0314 90.7168 62.2529 91.2789C60.5201 92.5293 60.1389 94.5942 59.8029 96.5602C59.3989 101.906 63.8244 106.788 64.8088 108.7C64.8088 108.7 54.5504 103.923 51.031 95.2545C50.2962 94.1252 48.7775 92.2367 47.9728 91.1563C45.0556 87.2399 41.1799 81.0899 40.608 76.1977C40.3779 74.2301 40.7388 72.4145 42.0049 70.8543C43.1029 69.5016 44.5697 68.8754 46.2638 68.6922Z" fill="#3B773B"/>
<path d="M49.9795 73.9488C50.7233 73.866 51.3635 73.907 52.0502 74.241C53.0342 74.7195 53.8827 75.6551 54.2084 76.7051C54.4627 77.5254 54.3866 78.4121 53.9596 79.1617C53.4948 79.977 52.6823 80.5254 51.7858 80.7563C50.8358 80.7918 49.9885 80.634 49.1756 80.1188C48.3022 79.5645 47.6159 78.666 47.4057 77.6438C47.2374 76.8246 47.392 75.9309 47.8663 75.2375C48.3702 74.5004 49.128 74.1258 49.9795 73.9488Z" fill="black"/>
<path d="M50.3257 74.541C50.8507 74.5586 51.3367 74.6199 51.8152 74.852C52.5398 75.2031 53.1414 75.8422 53.3839 76.6176C53.5785 77.2406 53.5445 77.9332 53.2187 78.5066C52.7925 79.257 52.1449 79.5023 51.3597 79.7125C50.8117 79.6922 50.2378 79.6137 49.7417 79.3656C49.0023 78.9957 48.3804 78.359 48.155 77.5504C47.9796 76.9309 48.073 76.2664 48.4121 75.7195C48.8718 74.9945 49.5304 74.7316 50.3257 74.541Z" fill="#EA6F1C"/>
<path d="M62.0344 143.111C62.084 143.102 62.1324 143.085 62.1824 143.082C62.1902 143.081 62.4633 143.096 62.4813 143.102C62.7234 143.191 63.8152 144.536 64.1215 144.817C67.8625 148.256 75.8 148.014 80.6496 147.847C80.5582 147.984 80.4645 148.119 80.3688 148.252C79.5277 149.417 78.3668 150.365 77.2699 151.279C72.5266 155.284 66.7914 157.936 60.6676 158.955C57.4063 159.427 54.2859 159.546 51.0277 158.918C48.6524 158.46 45.6606 157.254 44.282 155.141C43.6609 154.19 43.4715 152.925 43.7086 151.817C44.475 148.233 49.9629 145.994 53.1133 145.316C54.0223 145.121 56.9442 144.807 57.5742 144.415L57.5606 144.221C57.1789 143.81 56.5399 143.611 56.0274 143.398C58.0305 143.319 60.0328 143.223 62.0344 143.111Z" fill="#3B773B"/>
<path d="M55.9727 149.237C56.8231 149.197 57.8297 149.499 58.5449 149.936C59.4344 150.479 60.1219 151.334 60.3434 152.363C60.5211 153.188 60.3922 154.043 59.9102 154.742C59.2699 155.672 58.293 156.058 57.2293 156.266C56.243 156.267 55.416 156.192 54.527 155.706C53.6176 155.209 52.8297 154.387 52.5567 153.368C52.3352 152.554 52.4727 151.684 52.9344 150.978C53.6336 149.892 54.7785 149.504 55.9727 149.237Z" fill="black"/>
<path d="M55.5146 149.918C56.2384 149.836 56.9106 149.874 57.5923 150.15C58.4442 150.496 59.2024 151.145 59.5321 152.02C59.7661 152.641 59.7606 153.346 59.461 153.944C59.0345 154.795 58.2403 155.139 57.3868 155.414C56.5692 155.507 55.8728 155.488 55.1106 155.143C54.3524 154.8 53.6446 154.182 53.3583 153.383C53.138 152.755 53.1817 152.064 53.4798 151.469C53.9087 150.603 54.6567 150.235 55.5146 149.918Z" fill="#EA6F1C"/>
<path d="M50.3745 144.263C51.5874 144.077 52.8143 143.998 54.0409 144.027C54.8467 144.037 55.6104 144.154 56.3909 144.355C55.5339 144.412 54.6776 144.481 53.8225 144.563C53.0729 144.804 52.303 144.984 51.5401 145.177C49.0335 146.078 46.3741 147.138 44.569 149.178C43.5983 150.275 42.9389 151.568 43.0487 153.074C43.1565 154.552 43.9089 155.83 45.0268 156.77C48.519 159.709 53.9538 160.155 58.3175 159.776C65.3768 159.162 72.1518 156.068 77.5667 151.553C78.8218 150.507 80.0233 149.441 81.0768 148.185C81.6499 148.579 82.28 148.905 82.8854 149.247C82.7878 149.355 82.6882 149.462 82.5878 149.568C76.6768 155.707 70.9214 159.247 62.6928 161.423C58.905 162.443 55.0065 162.997 51.0839 163.071C45.4788 163.176 36.9817 162.171 32.8221 158.111C31.7108 157.026 30.7896 155.616 30.7959 154.006C30.8019 152.497 31.7582 151.095 32.7891 150.059C36.2331 146.599 42.1409 145.363 46.8206 144.659C47.9686 144.486 49.2155 144.259 50.3745 144.263Z" fill="#8EBA7C"/>
<path d="M50.374 144.263C51.5869 144.077 52.8139 143.998 54.0404 144.027C54.8463 144.037 55.61 144.154 56.3904 144.355C55.5334 144.412 54.6772 144.481 53.8221 144.563C53.0725 144.804 52.3025 144.984 51.5397 145.177L51.3947 145.097C51.7822 144.94 52.0705 144.814 52.3264 144.468C52.0314 144.086 50.9783 144.427 50.4674 144.29C50.4361 144.281 50.4053 144.272 50.374 144.263Z" fill="#8EBA7C"/>
<path d="M54.0408 144.027C54.8467 144.037 55.6104 144.154 56.3908 144.355C55.5338 144.412 54.6775 144.481 53.8225 144.563L53.7822 144.455L54.0299 144.422L54.0373 144.252L53.4189 144.217C53.6275 144.109 53.8139 144.076 54.0408 144.027Z" fill="#8EBA7C"/>
<path d="M45.9733 143.29C45.3217 143.573 44.0197 143.548 43.2959 143.604C37.7127 144.039 32.0164 143.731 26.636 142.066C22.725 140.855 17.7872 138.118 15.8572 134.357C15.1508 132.98 14.7617 131.349 15.2898 129.847C15.8684 128.2 17.3221 126.99 18.8631 126.27C23.5798 124.067 32.0869 123.896 37.2051 124.633C39.917 125.023 42.5803 125.697 45.1502 126.646C43.9217 126.636 42.6787 126.398 41.4475 126.327C37.669 126.112 32.4132 126.437 29.2463 128.62C28.1089 129.404 26.9963 130.704 26.7777 132.098C26.5705 133.419 27.1144 134.736 27.8878 135.781C31.4696 140.623 41.5045 141.606 47.076 142.475C48.2088 142.539 49.3654 142.561 50.4842 142.756C48.9912 142.944 47.474 143.199 45.9733 143.29Z" fill="#8EBA7C"/>
<path d="M47.0759 142.475C48.2087 142.539 49.3653 142.561 50.4841 142.756C48.9911 142.944 47.4739 143.199 45.9731 143.29C46.1923 143.134 46.3032 143.092 46.5751 143.075C46.8911 143.055 47.186 143.045 47.4188 142.811C47.1587 142.641 46.8306 142.616 46.5243 142.57C46.4911 142.565 46.4571 142.562 46.4235 142.558C46.5595 142.441 46.8915 142.482 47.0759 142.475Z" fill="#8EBA7C"/>
<path d="M45.9681 89.8453C42.1942 85.8738 39.4095 83.2531 36.3256 78.6484C33.9564 75.1109 30.3069 68.3309 31.2341 64.0484C31.4801 62.9121 32.0571 61.9965 33.0504 61.3723C34.8347 60.2512 37.2549 60.6027 39.1923 61.0824C43.3841 62.1199 46.9731 64.3492 50.2739 67.0574C51.1634 67.7871 52.0919 68.5176 52.8185 69.4164C53.188 69.8738 53.4833 70.4047 53.7856 70.9082C52.095 69.8457 50.3771 68.9078 48.4103 68.4723C46.5642 68.0633 44.7751 68.2266 43.163 69.2703C41.6458 70.2527 40.5841 71.8938 40.2235 73.6574C39.2204 78.5629 43.6587 85.5586 46.2509 89.4793L45.9681 89.8453Z" fill="#8EBA7C"/>
<path d="M25.0729 78.7532C25.6218 78.7099 26.1605 78.7317 26.7088 78.7724C29.6175 78.988 35.2065 80.8302 37.5253 82.738C38.33 83.4005 39.0143 84.354 39.6991 85.1462C39.0282 84.9415 38.3698 84.845 37.6695 84.8075C35.4056 84.6864 33.2456 85.2294 31.5413 86.7837C30.276 87.938 29.4695 89.5056 29.4116 91.2274C29.2759 95.2571 32.3503 98.82 34.9334 101.599C35.8329 102.57 36.8125 103.406 37.8409 104.235C34.9576 103.149 32.1293 101.792 29.6679 99.9231C25.1632 96.502 20.4607 90.3724 19.7041 84.6673C19.5227 83.2993 19.5544 81.7364 20.4609 80.6114C21.557 79.2509 23.4298 78.8935 25.0729 78.7532Z" fill="#8EBA7C"/>
<path d="M54.9213 51.2867C56.5225 51.2043 58.0869 51.4796 59.5834 52.0488C66.6053 54.7195 70.8483 60.9007 73.8076 67.4671C73.1154 66.7261 72.549 65.8687 71.8803 65.1046C70.1822 63.1648 67.7795 61.3875 65.1455 61.0828C63.2283 60.8605 61.7065 61.6589 60.2596 62.8113C59.5717 63.4632 59.0104 64.1187 58.5834 64.9718C56.567 69.005 58.1182 73.6812 59.4506 77.6511C57.5291 75.3531 54.2447 69.9449 53.1303 67.2128C51.724 63.7664 50.485 57.2894 52.0092 53.8421C52.5979 52.5101 53.6139 51.8046 54.9213 51.2867Z" fill="#8EBA7C"/>
<path d="M129.026 44.4543C129.051 44.4519 129.075 44.4496 129.1 44.4472C131.547 44.2402 133.633 44.8265 135.519 46.4453C138.192 48.7406 139.137 52.5015 139.877 55.805C140.069 56.6621 140.369 57.6117 140.394 58.4851C140.4 58.6886 140.396 58.8265 140.251 58.9789C139.287 59.9851 136.503 59.9226 135.222 59.9359C132.781 59.8504 130.116 59.8367 127.947 58.5668C125.987 57.4183 124.617 55.3886 124.056 53.2082C123.556 51.2664 123.789 49.1652 124.828 47.4343C125.806 45.8035 127.21 44.9125 129.026 44.4543Z" fill="white"/>
<path d="M129.859 47.5743C130.861 47.502 131.806 47.5876 132.707 48.0809C133.712 48.6321 134.394 49.5391 134.714 50.6325C135.12 52.0192 135.005 53.5727 134.27 54.8309C133.617 55.9481 132.691 56.5958 131.452 56.9126C130.628 57.0446 130.002 56.9927 129.232 56.6427C128.047 56.1044 127.068 55.0145 126.638 53.7884C126.202 52.5462 126.208 50.9516 126.795 49.7641C127.422 48.4946 128.593 47.995 129.859 47.5743Z" fill="black"/>
<path d="M127.971 49.1128C128.092 49.1077 128.247 49.0921 128.369 49.114C128.709 49.1753 129.057 49.3773 129.253 49.6663C129.472 49.9894 129.495 50.3804 129.423 50.7546C129.311 51.3359 128.971 51.6417 128.508 51.9706C128.453 51.9656 128.399 51.9613 128.344 51.955C127.897 51.9058 127.424 51.7175 127.158 51.3359C126.944 51.0281 126.901 50.639 126.995 50.2804C127.144 49.7081 127.491 49.4187 127.971 49.1128Z" fill="white"/>
<path d="M132.988 49.1973C133.419 49.2992 133.788 49.5332 134.031 49.909C134.28 50.293 134.341 50.7176 134.22 51.1578C134.104 51.5773 133.832 51.7148 133.479 51.9238C133.076 51.848 132.78 51.7152 132.498 51.407C132.248 51.1336 132.152 50.8086 132.185 50.4418C132.238 49.8641 132.571 49.5602 132.988 49.1973Z" fill="white"/>
<path d="M23.5844 100.92C25.2987 100.844 27.5323 100.851 29.1737 101.411C30.3943 101.827 31.5077 102.679 32.6473 103.282C33.6314 103.803 34.6834 104.138 35.7295 104.507C33.2471 104.444 31.1719 104.158 28.8195 105.22C27.2813 105.914 25.9573 107.147 25.3825 108.761C24.8037 110.386 25.1157 112.089 25.8457 113.603C28.1294 118.34 33.4365 120.856 38.1613 122.484C38.8664 122.739 39.5646 122.998 40.2528 123.295C33.6777 123.01 26.5869 120.424 21.4996 116.204C18.6862 113.87 15.7278 110.3 15.4156 106.5C15.317 105.299 15.5438 104.06 16.3583 103.132C18.0271 101.229 21.2524 101.084 23.5844 100.92Z" fill="#8EBA7C"/>
<path d="M114.406 70.3473C115.287 70.3922 116.18 70.6938 116.879 71.2383C118.172 72.2461 118.552 73.9555 118.749 75.5C119.348 80.1793 117.727 84.0778 115.945 88.2656C115.4 89.5473 114.892 90.9922 114.146 92.1653C113.493 93.1914 112.534 94.0024 111.79 94.9699C111.632 95.1727 111.538 95.3699 111.294 95.4629C111.121 94.9914 111.226 94.2852 111.233 93.7832C111.268 91.4282 111.245 89.0434 109.919 86.9852C109.566 86.4371 108.574 85.2727 107.918 85.1403C107.666 85.0895 107.789 85.1489 107.587 84.9949C108.071 82.7551 108.501 80.5043 108.878 78.2442C109.107 76.8274 109.245 75.3801 109.527 73.9739C109.618 73.5211 109.715 72.7758 110.02 72.4219C111.032 71.2488 112.89 70.4934 114.406 70.3473Z" fill="#3B773B"/>
<path d="M114.472 75.6015C114.897 75.5831 115.236 75.6452 115.626 75.8226C116.41 76.1784 116.966 76.7945 117.236 77.6148C117.555 78.5823 117.447 79.7523 116.979 80.6542C116.582 81.4206 115.935 81.955 115.123 82.2331C114.786 82.2468 114.424 82.2628 114.1 82.1456C113.399 81.8913 112.841 81.2515 112.543 80.5851C112.088 79.5726 112.077 78.4159 112.513 77.3952C112.925 76.4101 113.516 75.9694 114.472 75.6015Z" fill="black"/>
<path d="M114.502 76.1534C114.848 76.1218 115.149 76.1339 115.475 76.2714C116.025 76.5038 116.413 76.9503 116.628 77.5015C116.921 78.2569 116.923 79.1808 116.586 79.9218C116.284 80.5851 115.811 80.9257 115.141 81.169C114.924 81.1597 114.699 81.1542 114.487 81.103C113.926 80.9675 113.399 80.5413 113.116 80.0437C112.751 79.4011 112.686 78.6362 112.904 77.9335C113.17 77.0745 113.728 76.5601 114.502 76.1534Z" fill="#EA6F1C"/>
<path d="M108.553 168.967L108.757 169.003C109.544 172.291 109.947 175.659 110.843 178.935C111.051 179.695 111.226 180.526 111.531 181.252C111.659 181.557 111.892 181.946 112.202 182.074C112.285 181.953 112.371 181.813 112.475 181.71C112.999 181.193 117.181 180.879 117.948 180.849C120.273 180.755 123.592 180.865 125.391 182.53C122.348 183.422 118.786 181.783 115.919 182.543L115.905 182.598C116.751 182.842 117.679 182.853 118.552 182.978C120.617 183.275 122.574 183.741 124.504 184.552C124.957 184.743 125.773 185.055 126.06 185.461C126.189 185.645 126.202 185.862 126.115 186.067C126.013 186.308 125.764 186.465 125.531 186.557C122.854 187.608 119.943 186.086 117.52 185.078L113.109 183.258C112.656 183.071 112.172 182.94 111.705 182.791C111.722 182.81 111.739 182.828 111.756 182.848C113.631 185.053 119.17 186.093 121.394 188.109C121.826 188.5 122.372 189.19 122.317 189.821C122.293 190.086 122.24 190.123 122.049 190.275C121.235 190.42 120.274 190.149 119.478 189.974C115.14 189.018 111.61 187.406 109.167 183.585C108.657 184.25 108.208 184.975 107.725 185.661C107.38 186.152 106.796 187.125 106.187 187.232L106.102 187.05C106.255 185.064 107.632 183.534 108.962 182.186C107.576 179.927 105.824 172.069 105.151 169.257C106.318 169.255 107.415 169.262 108.553 168.967Z" fill="#F2BA22"/>
<path d="M143.45 54.9086C143.853 54.8801 144.261 54.8481 144.663 54.902C146.634 55.1668 152.079 58.759 153.757 60.1567C154.425 60.7063 155.022 61.336 155.536 62.0317C157.201 64.2934 157.722 66.8227 157.315 69.5781C156.208 68.0414 155.276 66.9266 153.554 66.0785C149.048 64.1598 143.019 65.7789 139.004 63.3207C137.979 62.693 137.129 61.7617 136.248 60.9512C136.894 60.9313 137.55 60.9207 138.192 60.8477C139.135 60.741 140.776 60.4328 141.337 59.6055C141.917 58.75 141.116 56.8051 140.941 55.8363C141.78 55.3602 142.505 55.0938 143.45 54.9086Z" fill="#F2BA22"/>
<path d="M83.1907 122.352C81.8028 121.177 80.545 119.843 79.2664 118.552C76.877 116.138 74.4676 113.742 72.5723 110.903C71.3938 109.137 70.1223 106.991 70.6075 104.775C70.7262 104.231 70.9809 103.561 71.4852 103.261C72.0254 102.941 72.8219 102.895 73.4137 103.069C76.5434 103.989 79.2258 109.59 80.7485 112.323C80.9598 112.814 81.2391 113.484 81.5688 113.897C81.6438 113.931 81.7364 113.939 81.7946 113.998C82.3852 114.595 84.4547 118.962 84.8559 119.928L84.5696 119.952C84.591 120.013 84.6207 120.072 84.6336 120.136C84.7317 120.611 83.5016 121.936 83.1907 122.352Z" fill="#8EBA7C"/>
<path d="M81.5688 113.897C81.6438 113.931 81.7364 113.939 81.7946 113.998C82.3853 114.595 84.4548 118.962 84.856 119.928L84.5696 119.952C83.5974 117.915 82.6024 115.905 81.5688 113.897Z" fill="#8EBA7C"/>
<path d="M82.9875 98.3606C83.657 98.3 84.2094 98.4145 84.782 98.7781C87.959 100.796 89.8039 111.364 90.5793 115.168C89.7324 115.763 88.9234 116.409 88.1559 117.104C87.8789 117.348 87.6269 117.632 87.3687 117.897C85.5855 113.464 80.4656 104.98 81.5766 100.365C81.7941 99.4625 82.1934 98.8406 82.9875 98.3606Z" fill="#8EBA7C"/>
<path d="M61.9979 113.511C64.3671 113.236 66.7827 113.851 68.9585 114.746C70.4108 115.356 71.8054 116.095 73.1261 116.954C74.4792 117.838 81.3241 123.177 81.7589 124.522C81.8053 124.665 81.7397 124.704 81.6721 124.824C81.4272 124.857 81.3143 124.852 81.1073 124.702C80.5018 124.264 79.9261 123.668 79.3639 123.167C77.7331 121.712 76.153 120.169 74.396 118.865C72.9288 117.776 71.3085 116.739 69.5682 116.147C67.9136 115.583 65.6952 115.381 64.1003 116.197C63.0057 116.758 62.1913 117.746 61.8483 118.927C61.3675 120.608 62.0921 122.153 62.8651 123.601C65.9471 128.362 70.5616 129.225 75.3651 131.313C76.1257 131.644 77.1468 131.89 77.8237 132.351C78.0284 132.491 78.0761 132.575 78.1116 132.814L77.9514 133.027C76.978 132.97 75.8179 132.39 74.8839 132.058C70.7401 130.588 66.6214 129.172 62.9987 126.608C60.6616 124.954 57.6792 122.241 57.2214 119.246C57.0124 117.88 57.2925 116.782 58.1026 115.679C59.08 114.347 60.4175 113.748 61.9979 113.511Z" fill="#F2BA22"/>
<path d="M93.0636 94.157C93.7808 94.2906 94.2668 94.4531 94.8128 94.9699C95.4605 95.5824 95.8953 96.3949 96.1761 97.2332C97.3687 100.788 97.3187 107.463 97.4597 111.265C96.5515 111.656 95.6714 112.085 94.7894 112.531C94.3226 112.785 93.8734 113.073 93.4207 113.351C92.5945 109.377 89.8761 99.4769 91.2753 95.9546C91.6402 95.0367 92.1796 94.548 93.0636 94.157Z" fill="#8EBA7C"/>
<path d="M74.6893 116.479C73.6463 115.839 72.5936 115.208 71.6405 114.438C68.8096 112.151 65.7885 108.515 63.7737 105.492C61.9331 102.729 60.5788 98.7617 61.2717 95.4226C61.5491 94.0871 62.2256 92.7824 63.4069 92.0363C64.5249 91.3308 65.8944 91.2949 67.1479 91.5941C71.0284 92.5199 73.9217 96.5093 75.9264 99.7398L75.4772 99.8179C73.8827 97.8121 71.9237 95.7867 69.228 95.4812C67.9956 95.3414 66.7241 95.6765 65.7585 96.4664C64.7272 97.3097 64.2221 98.546 64.126 99.85C63.8651 103.39 66.2358 107.35 68.4823 109.902C69.6549 111.234 71.0135 112.166 72.3104 113.34C73.2487 114.19 74.0401 115.242 74.9284 116.151L74.6893 116.479Z" fill="#F2BA22"/>
<path d="M121.511 83.418C122.431 83.3415 123.371 83.3489 124.227 83.7403C125.105 84.1418 125.716 84.8762 126.046 85.7743C127.189 88.8793 125.966 92.5977 124.605 95.4133C124.07 96.5188 121.74 100.559 120.712 100.918L120.641 100.792C121.158 99.4106 121.032 97.5387 120.974 96.0704C120.926 95.4969 120.826 94.9497 120.714 94.3864C121.415 93.7219 122.055 93.204 122.439 92.2786C122.787 91.4368 122.805 90.4329 122.442 89.5926C122.168 88.9567 121.692 88.4551 121.035 88.2161C120.388 87.9801 119.664 88.0567 119.046 88.3438C117.864 88.8915 117.416 89.8993 117.021 91.0567L115.717 91.8071C117.224 89.4965 118.077 86.7469 119.164 84.2286C119.925 83.8188 120.665 83.5864 121.511 83.418Z" fill="#3B773B"/>
<path d="M78.5806 130.977C76.2658 129.805 73.756 128.878 71.6717 127.301C70.399 126.338 69.1306 124.872 68.9369 123.231C68.8584 122.566 68.9646 121.829 69.3978 121.296C69.7912 120.812 70.4017 120.61 71.0056 120.563C74.2681 120.307 77.9998 123.502 80.331 125.47L80.2642 125.084L80.5662 124.934C80.7967 125.092 81.0353 125.207 81.1201 125.489C81.0806 125.683 81.0287 125.794 80.9181 125.958C80.0287 127.599 79.3865 129.304 78.5806 130.977Z" fill="#8EBA7C"/>
<path d="M80.5666 124.934C80.7971 125.092 81.0357 125.207 81.1205 125.489C81.0811 125.683 81.0291 125.794 80.9186 125.958C80.7662 125.773 80.5053 125.673 80.3314 125.47L80.2646 125.084L80.5666 124.934Z" fill="#F2BA22"/>
<path d="M122.12 17.373C121.817 16.8166 121.744 16.3896 121.909 15.7686C122.069 15.1701 122.536 14.7074 123.07 14.422C123.897 13.9807 124.856 13.9554 125.73 14.2656C126.923 14.6888 127.781 15.6254 128.29 16.7624C128.979 18.2999 129.39 20.4905 129.306 22.1678C129.64 24.5355 129.59 26.8933 129.586 29.2775C129.585 30.2712 129.498 31.3328 129.632 32.3146C129.713 32.9122 130.003 33.778 129.85 34.3634L128.422 34.8337C128.042 32.9444 127.841 31.0194 127.536 29.1166C126.76 24.2752 125.02 21.241 122.12 17.373Z" fill="#FA3948"/>
<path d="M122.12 17.373C121.817 16.8166 121.744 16.3896 121.909 15.7686C122.069 15.1701 122.536 14.7074 123.07 14.422C123.897 13.9807 124.856 13.9554 125.73 14.2656C126.923 14.6888 127.781 15.6254 128.29 16.7624C128.979 18.2999 129.39 20.4905 129.306 22.1678C128.734 21.3744 128.522 19.3716 128.199 18.3901C127.808 17.2071 127.233 16.1245 126.058 15.561C125.401 15.246 124.552 15.0348 123.844 15.2992C122.914 15.6467 122.512 16.5457 122.12 17.373Z" fill="white"/>
<path d="M118.077 16.4446C119.877 16.5888 121.159 17.836 122.281 19.1667C122.859 19.8528 123.438 20.6415 123.792 21.4704C126.914 25.2522 126.608 30.4985 127.988 34.9221C127.51 35.051 127.033 35.1849 126.558 35.3238C126.414 34.7439 126.257 34.1674 126.087 33.5946C124.812 29.2918 122.714 25.1529 118.977 22.4946C118.037 21.8258 117.017 21.3306 116.007 20.7816C115.856 20.6454 115.71 20.4987 115.597 20.3271C115.266 19.8205 115.184 19.1595 115.305 18.5743C115.453 17.8624 115.886 17.3563 116.472 16.9547C116.665 17.0384 116.821 17.1163 117.038 17.0982C117.473 17.0621 117.782 16.7293 118.077 16.4446Z" fill="#FA3948"/>
<path d="M118.077 16.4446C119.877 16.5888 121.159 17.836 122.281 19.1667C122.859 19.8528 123.438 20.6415 123.792 21.4704C122.693 21.1255 121.191 17.8472 118.992 17.3497C118.257 17.1833 117.544 17.4302 116.941 17.8509C115.21 19.0575 116.291 19.7032 116.048 20.6793C116.039 20.7149 116.021 20.7475 116.007 20.7816C115.856 20.6454 115.71 20.4987 115.597 20.3271C115.266 19.8205 115.184 19.1595 115.305 18.5743C115.453 17.8624 115.886 17.3563 116.472 16.9547C116.665 17.0384 116.821 17.1163 117.038 17.0982C117.473 17.0621 117.782 16.7293 118.077 16.4446Z" fill="white"/>
<path d="M110.989 98.4836C111.998 96.1903 113.534 93.6895 115.993 92.7496C116.677 92.4883 117.446 92.4039 118.122 92.743C118.933 93.15 119.414 94.0883 119.664 94.92C120.422 97.4481 119.893 100.491 119.041 102.926C118.825 103.49 118.186 105.502 117.758 105.785C117.673 105.538 117.758 105.319 117.818 105.076L117.565 104.736L117.605 104.532C117.556 103.566 117.173 102.538 116.596 101.767C116.051 101.038 115.262 100.486 114.338 100.398C113.12 100.282 112.193 101.037 111.327 101.778C111.125 101.617 110.85 101.628 110.602 101.602L109.846 103C109.789 102.491 109.687 102.076 109.937 101.613C110.252 100.558 110.603 99.5145 110.989 98.4836Z" fill="#0B8DCB"/>
<path d="M110.989 98.4836C111.998 96.1903 113.534 93.6895 115.993 92.7496C116.677 92.4883 117.446 92.4039 118.122 92.743C118.933 93.15 119.414 94.0883 119.663 94.92C120.422 97.4481 119.892 100.491 119.041 102.926L118.585 102.661C118.692 101.837 118.84 101.007 118.843 100.175C118.847 98.7828 118.48 97.0789 117.431 96.0903C116.935 95.6239 116.313 95.4028 115.634 95.4614C113.838 95.6161 112.775 97.1895 111.715 98.4504C111.389 98.2914 111.324 98.3762 110.989 98.4836Z" fill="#F2BA22"/>
<path d="M111.715 98.4505C112.775 97.1895 113.838 95.6161 115.634 95.4614C116.313 95.4028 116.936 95.6239 117.431 96.0903C118.48 97.079 118.847 98.7829 118.843 100.175C118.84 101.007 118.692 101.837 118.585 102.661L119.041 102.926C118.825 103.49 118.186 105.502 117.758 105.785C117.673 105.538 117.758 105.319 117.818 105.076L117.565 104.736L117.605 104.532C117.677 104.475 117.711 104.456 117.766 104.368C118.453 103.285 118.571 99.3977 118.15 98.12C117.884 97.3094 117.436 96.5083 116.629 96.136C116.012 95.8516 115.337 95.879 114.719 96.1473C112.631 97.0548 111.404 99.6286 110.602 101.602L109.846 103C109.789 102.491 109.687 102.076 109.937 101.613C110.252 100.558 110.603 99.5145 110.989 98.4837C111.324 98.3762 111.389 98.2915 111.715 98.4505Z" fill="black"/>
<path d="M110.989 98.4836C111.324 98.3761 111.389 98.2914 111.715 98.4504C111.413 98.9418 110.231 101.538 109.937 101.613C110.252 100.558 110.603 99.5144 110.989 98.4836Z" fill="#F2BA22"/>
<path d="M118.585 102.661L119.041 102.926C118.825 103.49 118.186 105.502 117.758 105.785C117.673 105.538 117.758 105.319 117.818 105.076C117.855 104.982 117.89 104.887 117.927 104.793C118.206 104.094 118.391 103.387 118.585 102.661Z" fill="#F2BA22"/>
<path d="M71.9134 112.525C69.7134 111.202 67.4224 108.195 66.1947 105.92C65.1068 103.904 63.9908 100.932 64.7392 98.6281C65.0669 97.618 65.7744 96.827 66.7255 96.3606C67.8607 95.8039 69.1263 95.8012 70.3111 96.1906C73.1919 97.1375 75.9314 100.58 77.2361 103.19L76.6552 103.375C75.5599 102.209 74.1623 101.05 72.588 100.622C71.6865 100.377 70.69 100.44 69.8814 100.936C69.108 101.411 68.6916 102.213 68.5029 103.079C67.7267 106.642 70.1294 109.71 71.9134 112.525Z" fill="#0B8DCB"/>
<path d="M114.274 21.8934C116.013 21.7533 117.892 22.777 119.182 23.8832C119.532 24.1877 119.869 24.5065 120.194 24.8388C120.826 25.4949 121.583 26.1738 122.038 26.9672C122.845 28.1585 126.211 34.0826 125.989 35.4181C125.958 35.6034 125.895 35.6897 125.78 35.8307C125.543 35.9357 125.432 35.9541 125.176 35.9177C124.543 35.3095 124.109 34.4507 123.611 33.7285C122.343 31.8892 120.458 30.1901 118.495 29.1377C117.828 28.7801 117.128 28.4518 116.406 28.2214C115.6 27.9641 114.446 27.8095 113.739 27.3762C113.325 27.2083 112.956 27.0291 112.621 26.7276C112.089 26.2477 111.655 25.5269 111.66 24.7921C111.668 23.558 112.316 23.7871 112.75 23.3415L112.737 23.1986L112.334 23.2087C112.763 22.4867 113.502 22.1389 114.274 21.8934Z" fill="#FA3948"/>
<path d="M114.274 21.8934C116.013 21.7533 117.892 22.777 119.182 23.8832C119.532 24.1877 119.869 24.5065 120.194 24.8388L119.903 25.1466C118.543 23.8659 117.288 22.9767 115.415 22.6724C114.527 22.6667 113.998 22.837 113.345 23.4595C112.864 23.9181 112.489 24.5621 112.479 25.2406C112.463 26.3931 113.581 26.6233 113.739 27.3762C113.325 27.2083 112.956 27.0291 112.621 26.7276C112.089 26.2477 111.655 25.5269 111.66 24.7921C111.664 24.1783 111.771 24.0089 112.334 23.2087C112.763 22.4867 113.502 22.1389 114.274 21.8934Z" fill="white"/>
<path d="M120.194 24.8389C120.826 25.495 121.583 26.1739 122.038 26.9673C121.361 26.8908 120.389 25.6475 119.903 25.1467L120.194 24.8389Z" fill="white"/>
<path d="M86.9286 93.8495C86.511 92.7573 85.8712 91.712 85.5188 90.6058C84.952 88.8269 85.4938 86.064 86.2333 84.3991C86.7712 83.189 87.6649 82.0804 88.9333 81.5972C90.0556 81.1698 91.4321 81.2433 92.5145 81.755C94.8255 82.8464 96.4153 85.7855 97.2001 88.0944C97.6485 89.4136 98.027 90.7929 98.2622 92.1651C98.927 96.0394 99.1184 100.735 99.1309 104.682C99.1348 105.941 99.1919 107.266 99.0149 108.515L98.8622 108.73L98.6368 108.707C98.1899 104.9 98.4501 101.044 98.1212 97.2312C97.8079 93.5956 97.2774 89.0897 94.2415 86.621C93.322 85.8733 92.0786 85.3319 90.8731 85.4944C89.7325 85.6483 88.8216 86.3667 88.1466 87.2632C86.8669 88.9616 86.9931 91.4956 87.2595 93.489L86.9286 93.8495Z" fill="#F2BA22"/>
<path d="M113.744 62.8973C114.061 63.1923 114.27 64.5684 114.424 65.036C114.596 65.5614 114.759 65.9966 115.269 66.2567C115.547 66.2821 115.676 66.2719 115.929 66.1497C116.277 65.736 116.254 65.1813 116.303 64.6649C116.669 65.1989 117.091 66.4766 117.622 66.7626C117.758 66.836 117.872 66.8786 118.021 66.8329C118.431 66.7079 118.589 66.2817 118.765 65.9309C119.31 67.0387 120.02 68.0399 120.578 69.1325C120.77 69.5071 120.935 69.9009 120.987 70.3212C121.306 72.8657 119.905 78.1845 119.094 80.6762L119.251 78.7216C119.259 78.6716 119.267 78.6216 119.273 78.5712C119.553 76.4755 119.229 73.3333 117.864 71.6305C117.139 70.7274 116.091 70.0864 114.929 69.9665C113.021 69.7696 111.244 70.7798 109.81 71.92C110.284 69.6626 110.229 67.1243 110.303 64.8227C111.364 63.9895 112.498 63.4063 113.744 62.8973Z" fill="#8EBA7C"/>
<path d="M124.495 76.8664C124.536 76.8574 124.575 76.8395 124.617 76.8395C124.831 76.8387 124.914 76.9867 125.025 77.141C126.206 78.7864 128.731 85.0524 129.125 87.0836C129.216 87.5508 129.194 87.9754 129.118 88.4422C128.35 93.1305 123.692 100.482 119.89 103.257C120.302 102.302 120.91 101.621 121.588 100.845C123.21 99.0285 124.629 96.4875 125.589 94.2379C126.685 91.6703 127.508 88.209 126.372 85.5141C125.924 84.4535 125.115 83.6125 124.037 83.1907C122.363 82.5352 120.765 83.009 119.206 83.6907C119.665 82.0809 120.158 80.4801 120.683 78.8903C121.729 77.9379 123.159 77.2879 124.495 76.8664Z" fill="#8EBA7C"/>
<path d="M130.084 18.7857C129.918 17.8886 129.803 17.0462 130.376 16.2554C130.771 15.7095 131.416 15.3652 132.079 15.2839C132.946 15.1778 133.815 15.4695 134.492 16.0078C135.304 16.6536 135.775 17.6005 135.868 18.6273C135.998 20.0447 135.471 21.3697 134.898 22.6332C134.521 23.55 133.956 24.39 133.521 25.2813C131.896 28.6096 131.766 30.8179 131.933 34.4467C131.425 34.4687 130.919 34.4431 130.411 34.4222C129.977 31.8302 130.376 29.1646 130.393 26.5453C130.409 23.9267 130.205 21.3928 130.084 18.7857Z" fill="#FA3948"/>
<path d="M130.084 18.7857C129.918 17.8886 129.803 17.0462 130.376 16.2554C130.771 15.7095 131.416 15.3652 132.079 15.2839C132.946 15.1778 133.815 15.4695 134.492 16.0078C135.304 16.6536 135.775 17.6005 135.868 18.6273C135.998 20.0447 135.471 21.3697 134.898 22.6332C134.535 21.8602 135.575 19.441 134.956 17.8699C134.757 17.3633 134.402 17.0145 133.9 16.8065C133.25 16.5366 132.287 16.4333 131.625 16.7138C131.063 16.952 130.675 17.5501 130.446 18.0899C130.367 18.2774 130.292 18.4504 130.185 18.6245L130.084 18.7857Z" fill="white"/>
<path d="M73.4694 146.407C73.2514 146.407 73.0366 146.395 72.819 146.377C69.7436 146.133 66.0198 145.352 63.9381 142.867C63.035 141.789 62.501 140.53 62.6401 139.1C62.7897 137.563 63.4057 136.309 64.6147 135.325C66.9338 133.438 70.0315 133.436 72.858 133.721C73.7963 133.816 77.1487 134.23 77.5924 134.89C77.6764 135.015 77.6182 135.168 77.603 135.309C77.4225 135.445 77.292 135.427 77.0744 135.404C76.2924 135.322 75.5233 135.079 74.7401 134.984C72.8873 134.759 70.6053 134.993 68.9776 135.966C67.8494 136.642 67.0217 137.684 66.7334 138.98C66.4678 140.172 66.6936 141.515 67.3592 142.541C68.7463 144.681 71.3885 145.18 73.6967 145.658C74.5045 145.777 75.3057 145.88 76.1209 145.935C77.274 146.013 78.3491 145.803 79.4174 146.39L79.3877 146.485C78.251 146.613 74.3717 146.77 73.4694 146.407Z" fill="#F2BA22"/>
<path d="M73.6971 145.658C74.5049 145.777 75.3061 145.88 76.1213 145.935C77.2744 146.013 78.3494 145.803 79.4178 146.39L79.3881 146.485C78.2514 146.613 74.3721 146.77 73.4697 146.407L73.5533 146.296C74.7865 146.278 76.0553 146.48 77.2838 146.37C77.1189 146.252 76.9588 146.121 76.7498 146.107C75.6732 146.034 74.5842 146.062 73.5346 145.763L73.6971 145.658Z" fill="#F2BA22"/>
<path d="M103.443 97.2859C103.621 97.3222 103.804 97.3585 103.975 97.4203C104.617 97.6523 105.136 98.3296 105.421 98.9222C106.605 101.386 105.673 106.665 104.775 109.214C103.849 109.45 102.911 109.642 101.977 109.846C101.252 110.033 100.529 110.227 99.8071 110.427C99.9122 107.345 99.9153 101.523 101.411 98.9624C101.9 98.1242 102.495 97.5449 103.443 97.2859Z" fill="#8EBA7C"/>
<path d="M89.1354 98.7266C88.5592 97.436 88.1229 95.9829 87.8358 94.602C87.3827 92.4231 87.0823 89.5282 88.4061 87.5801C88.9772 86.7395 89.8467 86.034 90.8737 85.8762C91.9925 85.704 93.0784 86.1977 93.9409 86.8754C96.4042 88.8118 97.0932 92.3192 97.4366 95.2489C97.2448 95.4747 97.2214 95.5274 96.9409 95.6079C96.6042 94.7711 96.2186 93.9325 95.6175 93.2493C94.9366 92.4766 94.0171 91.8454 92.9592 91.7965C92.176 91.7598 91.4514 92.0364 90.8772 92.5668C89.1983 94.1176 89.2202 96.6231 89.1354 98.7266Z" fill="#0B8DCB"/>
<path d="M68.872 128.164C68.4521 127.956 68.0408 127.73 67.6396 127.489C65.1662 126.02 62.9592 123.988 62.2724 121.082C62.0146 119.992 62.081 118.858 62.7045 117.898C63.3302 116.934 64.4236 116.334 65.5396 116.141C68.9193 115.555 72.0021 117.773 74.59 119.595L74.231 119.766C72.5404 118.921 70.665 118.004 68.7326 118.635C67.8865 118.911 67.2193 119.472 66.8373 120.279C66.256 121.509 66.3955 122.889 66.867 124.125C67.292 125.239 67.9689 126.221 68.7236 127.136C68.9232 127.557 68.9119 127.691 68.872 128.164Z" fill="#0B8DCB"/>
<path d="M78.4813 145.662C77.4614 145.484 76.4075 145.479 75.3774 145.372C72.9239 145.117 69.5778 144.722 67.9591 142.64C67.2723 141.756 66.9384 140.586 67.1013 139.473C67.2786 138.262 68.022 137.181 69.0141 136.482C70.9309 135.132 73.693 135.276 75.8848 135.668L75.9204 136.369C75.7407 136.402 75.5692 136.454 75.3946 136.507C74.0712 136.907 72.9747 137.484 72.3216 138.767C71.8942 139.605 71.7591 140.577 72.0802 141.474C73.0934 144.304 76.1153 144.472 78.3727 145.606C78.4091 145.624 78.445 145.643 78.4813 145.662Z" fill="#0B8DCB"/>
<path d="M77.7553 101.498C77.556 101.222 77.4096 100.868 77.2553 100.564C75.5994 97.3012 74.1662 92.6281 75.3904 88.9977C75.733 87.9824 76.3853 87.0324 77.3822 86.5723C78.3299 86.1352 79.4752 86.2336 80.4314 86.591C82.9728 87.5406 84.2232 90.1094 85.3006 92.4121C85.0627 92.491 84.8182 92.5574 84.5963 92.6742C83.6228 91.4883 82.3748 90.3906 80.7736 90.2321C79.9435 90.1496 79.1103 90.3848 78.4685 90.9235C77.3975 91.8223 77.0471 93.2899 76.9693 94.6274C76.8467 96.7391 77.456 98.6313 78.1627 100.591C77.9818 100.747 77.9455 100.756 77.8943 100.986C78.0256 101.107 78.1541 101.231 78.2799 101.357L78.251 101.517C78.1924 101.507 78.1338 101.497 78.0752 101.488C77.8494 101.455 77.9389 101.449 77.7553 101.498Z" fill="#F2BA22"/>
<path d="M79.694 103.478C78.5385 100.529 77.1159 97.5269 77.426 94.2765C77.5287 93.2015 77.8194 91.9695 78.7096 91.2722C79.3514 90.7699 80.2143 90.5715 81.0151 90.6933C83.3006 91.0414 84.8463 93.4926 85.6287 95.4519C85.885 96.0933 86.0951 97.0613 86.503 97.6008C86.5377 97.6469 86.5744 97.691 86.6104 97.7363L86.1284 97.8965C85.7252 97.5117 85.3248 97.1121 84.8881 96.766C84.1627 96.191 83.285 95.7586 82.3366 95.9113C81.6174 96.0269 81.0522 96.4758 80.6291 97.0504C79.2783 98.8855 79.3963 101.346 79.694 103.478Z" fill="#0B8DCB"/>
<path d="M99.9367 97.9187C99.7563 95.4304 100.068 93.6577 101.766 91.7124C102.489 90.8839 103.509 90.1038 104.636 90.0113C105.527 89.9378 106.413 90.2991 107.063 90.8984C108.277 92.0167 108.577 93.6968 108.613 95.2699C108.657 97.2613 108.347 99.1292 107.808 101.04L107.7 101.245C107.734 101.545 107.743 101.757 107.663 102.05L107.497 102.177C107.277 102.119 107.204 102.043 107.054 101.874C107.092 101.296 107.074 100.704 107.077 100.125L107.221 100.214C107.384 99.9238 107.323 99.4421 107.325 99.1136C107.082 97.7601 106.67 96.4257 105.467 95.605C104.758 95.1206 103.879 94.9269 103.038 95.1214C101.885 95.3886 100.843 96.3214 100.254 97.3292C100.142 97.5226 100.037 97.7191 99.9367 97.9187Z" fill="#0B8DCB"/>
<path d="M107.325 99.1136C107.462 99.766 107.296 100.711 107.7 101.245C107.734 101.545 107.743 101.757 107.663 102.05L107.497 102.177C107.276 102.119 107.203 102.043 107.054 101.874C107.092 101.296 107.074 100.704 107.077 100.125L107.221 100.214C107.384 99.9238 107.323 99.4422 107.325 99.1136Z" fill="black"/>
<path d="M99.6389 94.8718C99.5932 94.2773 99.4772 93.5988 99.5424 93.0097C99.719 91.4207 100.872 89.4433 101.908 88.2527C102.912 87.0972 104.281 86.1359 105.845 86.0054C106.739 85.9308 107.576 86.1765 108.264 86.7601C109.685 87.9664 110.044 90.139 110.139 91.9008C110.287 94.6347 110.003 98.0414 108.948 100.567L108.848 100.488C108.797 100.563 108.744 100.636 108.69 100.709L108.446 100.401C109.044 97.6363 109.707 93.9289 108.051 91.3879C107.478 90.5078 106.648 89.8652 105.606 89.6574C104.543 89.4457 103.558 89.7629 102.689 90.3816C101.167 91.466 100.262 93.1531 99.6389 94.8718Z" fill="#F2BA22"/>
<path d="M128.741 100.897L129.162 100.913L129.282 101.043C129.362 102.342 127.678 105.71 126.84 106.765C125.043 109.03 124.375 107.934 122.165 107.689C121.36 107.6 120.486 107.757 119.685 107.85L118.41 108.207C118.633 107.293 118.925 106.51 119.37 105.679C120.327 105.319 121.486 104.694 122.141 103.892C122.131 103.689 122.12 103.543 122.195 103.352C122.441 103.425 122.73 103.533 122.982 103.445C123.461 103.278 124.02 102.794 124.478 102.541C125.746 101.84 127.325 101.216 128.741 100.897Z" fill="#0B8DCB"/>
<path d="M137.143 63.4391C138.03 63.8336 138.745 64.5832 139.689 64.9289C143.334 66.2633 148.521 65.5446 152.473 66.6383C151.853 67.0492 151.228 67.4192 150.571 67.7672C150.111 68.0281 149.605 68.2434 149.118 68.45C147.069 69.3207 144.083 70.0844 141.94 69.2028C139.388 68.1528 138.139 65.8758 137.143 63.4391Z" fill="#F2BA22"/>
<path d="M101.888 169.377C102.261 169.388 103.056 169.645 103.357 169.586C103.459 169.566 103.519 169.404 103.714 169.366C104.238 169.974 106.095 177.538 106.513 178.98C106.735 179.746 107.042 180.481 107.271 181.237C107.345 181.481 107.308 181.589 107.176 181.793L106.947 181.834C106.2 181.543 105.603 180.631 105.098 180.021C104.652 179.488 104.238 178.929 103.858 178.347C102.131 175.646 102.002 173.387 102.656 170.347C101.086 170.403 99.6329 170.747 98.1021 171.078C99.2989 169.981 100.261 169.508 101.888 169.377Z" fill="#F2BA22"/>
<path d="M113.711 102.551C113.905 102.555 114.105 102.556 114.298 102.584C114.785 102.654 115.224 103.011 115.481 103.417C116.36 104.804 115.877 107.249 115.52 108.742C114.212 108.718 112.904 108.716 111.595 108.736L109.266 108.787C109.615 107.619 110.088 106.491 110.677 105.423C111.357 104.201 112.307 102.946 113.711 102.551Z" fill="#8EBA7C"/>
<path d="M144.268 50.014C143.847 48.489 143.997 46.4683 144.635 45.018C144.875 44.473 145.251 43.8969 145.836 43.6844C146.264 43.5285 146.709 43.5969 147.116 43.784C148.534 44.4367 149.478 46.1551 150.007 47.5527C151.08 50.3824 150.873 53.2765 149.635 55.9996C149.076 55.7871 148.53 55.5094 147.986 55.2597C148.866 54.5414 149.527 53.7293 149.84 52.6098C150.233 51.2047 150.092 49.2305 149.357 47.9562C148.981 47.3023 148.382 46.8113 147.641 46.6394C147.059 46.5047 146.462 46.5801 145.959 46.9133C145.159 47.4441 144.888 48.3461 144.695 49.2297L144.581 49.3125L144.533 49.8281C144.443 49.9019 144.372 49.9617 144.268 50.014Z" fill="white"/>
<path d="M85.6178 98.8157C85.1815 98.4348 84.6647 98.1134 84.1135 97.9309C83.6061 97.7634 83.128 97.7489 82.6467 97.9927C76.769 100.973 87.3464 116.824 86.8221 118.357L86.6264 118.442L86.4995 118.35C84.4514 113.695 79.5612 105.427 79.9854 100.416C80.087 99.2204 80.4249 97.8071 81.4018 97.0247C81.9003 96.6262 82.66 96.3321 83.3042 96.4337C84.36 96.6005 85.301 97.5591 85.9042 98.395L85.4944 98.3407C85.4596 98.5477 85.5358 98.6274 85.6178 98.8157Z" fill="#F2BA22"/>
<path d="M130.033 96.6184L130.198 96.6348C130.466 97.2969 129.746 99.6169 129.549 100.321C127.502 100.669 125.761 101.447 123.867 102.268C123.676 102.152 123.601 102.097 123.513 101.889C123.591 101.477 125.473 99.0743 125.861 98.5606C126.924 97.1543 128.355 96.8508 130.033 96.6184Z" fill="#F2BA22"/>
<path d="M71.3051 128.564C69.8477 127.573 68.5864 126.457 67.7711 124.864C67.1489 123.647 66.7946 122.098 67.2614 120.776C67.5098 120.072 67.9981 119.477 68.6895 119.173C69.577 118.782 70.802 118.874 71.7024 119.207C71.7051 119.25 71.7028 119.294 71.7098 119.337C71.7153 119.37 71.7586 119.497 71.7711 119.533C71.661 119.731 71.5235 119.867 71.3676 120.029C70.436 120.127 69.4813 120.32 68.8723 121.109C68.3571 121.777 68.3286 122.693 68.4708 123.491C68.8364 125.548 70.5098 127.175 72.1446 128.334C71.8735 128.284 71.7438 128.204 71.5051 128.38C71.4465 128.423 71.3594 128.511 71.3051 128.564Z" fill="#F2BA22"/>
<path d="M69.4119 107.237C68.9904 106.3 68.7787 105.023 68.856 103.997C68.9248 103.079 69.2232 102.209 69.9623 101.616C70.574 101.125 71.3611 100.923 72.1357 101.021C74.0307 101.262 75.7197 102.933 76.8381 104.363L76.4146 104.731C75.3146 103.676 74.1021 102.388 72.4451 102.451C71.8318 102.474 71.256 102.709 70.8404 103.168C70.0947 103.991 69.9693 105.219 70.0557 106.278C70.0596 106.323 70.0643 106.368 70.0682 106.413L69.8928 106.698C69.9068 106.742 69.9213 106.787 69.935 106.831C70.008 107.07 70.1361 107.35 69.9607 107.575C69.9232 107.623 69.8689 107.655 69.8232 107.695L69.642 107.289L69.4119 107.237Z" fill="#F2BA22"/>
<path d="M90.3522 103.195C89.7408 101.275 89.519 97.8719 89.8084 95.8379C89.9729 94.6813 90.4615 93.5102 91.4432 92.8176C91.9959 92.4278 92.6963 92.1754 93.3748 92.3024C94.4151 92.4969 95.21 93.3422 95.7971 94.168C95.3776 94.1868 95.3612 94.1633 95.0209 93.9114L94.8936 94.0633C95.0166 94.2571 95.0994 94.3485 95.2967 94.4665L95.2213 94.7168C94.5893 94.2 93.851 93.6399 92.9838 93.7469C92.2983 93.8317 91.676 94.2243 91.2713 94.7774C89.6936 96.934 90.7428 100.893 90.8459 103.353C90.8436 103.392 90.8393 103.431 90.8389 103.469C90.826 104.463 91.1979 105.502 91.3194 106.492L91.2596 106.535C90.7631 105.482 90.9033 104.202 90.3522 103.195Z" fill="#F2BA22"/>
<path d="M76.34 144.282C75.8791 144.171 75.3842 143.989 74.9568 143.781C73.9256 143.279 73.0283 142.438 72.6717 141.323C72.4084 140.502 72.5162 139.632 72.9354 138.882C73.544 137.794 74.5729 137.257 75.7178 136.903C75.8518 137.198 75.8182 137.475 75.8697 137.784C75.1447 138.308 74.5404 138.812 74.3772 139.748C74.2334 140.575 74.5424 141.451 75.0479 142.101C75.54 142.734 76.16 143.157 76.8291 143.582C77.6084 143.898 78.1205 144.327 78.6943 144.93C77.9174 144.787 77.083 144.555 76.34 144.282Z" fill="#F2BA22"/>
<path d="M76.8289 143.582C77.6082 143.898 78.1203 144.327 78.6941 144.93C77.9172 144.787 77.0828 144.555 76.3398 144.282C76.6125 143.914 76.9426 144.407 77.2805 144.182C77.1824 143.918 77.0238 143.843 76.7957 143.704C76.7648 143.686 76.7336 143.668 76.7027 143.649L76.8289 143.582Z" fill="#F2BA22"/>
<path d="M113.856 100.894C114.454 100.883 115.044 101.027 115.545 101.356C116.349 101.883 116.854 102.787 117.03 103.718C117.245 104.861 117.211 107.57 116.485 108.513C116.365 108.668 116.353 108.691 116.154 108.716C115.857 107.931 116.924 105.256 116.004 103.385C115.705 102.778 115.186 102.33 114.53 102.148C113.859 101.96 113.162 102.191 112.596 102.545L112.491 102.611C110.864 103.84 109.997 105.725 109.161 107.53C108.988 107.904 108.906 108.455 108.661 108.772C108.55 108.915 108.614 108.866 108.409 108.896L108.33 108.739C108.686 107.238 109.291 105.712 110.036 104.362C110.926 102.749 112.034 101.418 113.856 100.894Z" fill="#F2BA22"/>
<path d="M116.392 52.7058C116.43 52.7425 116.45 52.7582 116.476 52.8109C116.924 53.7441 115.845 60.1421 115.704 61.6593C115.648 62.264 115.71 64.2371 115.532 64.7019C115.468 64.8687 115.441 64.8437 115.291 64.9167L114.993 64.7722C114.902 64.5687 114.831 64.364 114.771 64.1488C113.973 61.2953 114.898 55.3074 116.392 52.7058Z" fill="#FA3948"/>
<path d="M120.157 88.6944C120.601 88.6534 121.046 88.7632 121.421 89.0066C121.818 89.262 122.014 89.653 122.085 90.1116C122.215 90.9605 122.036 91.8378 121.523 92.5343C121.304 92.8323 120.982 93.1101 120.599 93.1382C120.438 93.1503 120.427 93.0956 120.314 93.0003C119.551 92.1319 118.876 91.6097 117.742 91.3269C117.903 90.7476 118.077 90.1319 118.431 89.6374C118.88 89.0097 119.424 88.8276 120.157 88.6944Z" fill="#EA6F1C"/>
<path d="M99.7622 101.051C99.8958 100.042 100.015 99.0742 100.442 98.1402C100.922 97.0941 101.8 96.0887 102.919 95.7172C103.613 95.4867 104.389 95.5215 105.033 95.8844C105.884 96.3644 106.462 97.4082 106.729 98.3254C106.702 98.6379 106.686 98.9402 106.692 99.2543C106.699 99.7168 106.604 100.265 106.403 100.684C106.284 99.9324 106.047 99.0836 105.67 98.4195C105.127 97.4633 104.458 97.0808 103.434 96.8211C103.338 96.8465 103.243 96.8734 103.148 96.9015C101.197 97.4844 100.627 99.434 99.7622 101.051Z" fill="#F2BA22"/>
<path d="M77.0247 137.783C77.0673 137.789 77.1119 137.785 77.1517 137.799C77.2107 137.821 77.2759 137.842 77.3165 137.89C77.3779 137.961 77.4587 140.812 77.4935 141.151C77.583 142.02 77.7388 142.835 78.0705 143.645L76.6548 142.865C76.0072 142.455 75.4861 142.038 75.1583 141.326C74.8763 140.714 74.8283 139.992 75.099 139.368C75.463 138.528 76.2142 138.105 77.0247 137.783Z" fill="#8EBA7C"/>
<path d="M111.009 174.144C111.665 174.355 112.49 175.144 113.014 175.606C114.026 176.497 115.671 177.847 115.765 179.294C114.731 179.312 113.71 178.566 112.95 177.925C111.581 176.77 111.166 175.916 111.009 174.144Z" fill="#F2BA22"/>
<path d="M69.4116 107.237L69.6417 107.289L69.8229 107.695C69.8686 107.655 69.9229 107.623 69.9604 107.575C70.1358 107.35 70.0077 107.07 69.9347 106.831C69.921 106.787 69.9065 106.742 69.8925 106.698L70.0679 106.413C70.946 111.481 76.8835 116.902 80.4722 120.424C81.0335 120.975 82.6206 122.3 82.9171 122.853L82.8147 122.942C82.2636 122.793 81.1081 121.442 80.6026 120.953C76.862 117.333 72.8976 113.652 70.2792 109.092C69.9343 108.491 69.6394 107.891 69.4116 107.237Z" fill="#F2BA22"/>
<path d="M78.7856 105.966C79.5743 107.105 80.3306 108.301 80.9396 109.548C81.4017 110.494 81.7731 111.481 82.2716 112.41C82.9345 113.62 83.6064 114.825 84.2868 116.026C84.6825 116.713 85.1462 117.384 85.4907 118.098C85.6513 118.43 85.8454 118.852 85.7993 119.23C85.7946 119.269 85.7817 119.307 85.7728 119.346L85.6282 119.404C85.0911 118.989 79.1868 107.427 78.6763 106.209L78.7856 105.966Z" fill="#0B8DCB"/>
<path d="M87.2596 93.489C87.8002 96.3917 88.7795 99.1152 89.524 101.963C89.858 103.241 89.9916 104.607 90.4115 105.855L90.1346 106.246C89.6736 104.472 89.1248 102.721 88.6807 100.943C88.0916 98.5828 87.6014 96.1875 86.9287 93.8496L87.2596 93.489Z" fill="#F2BA22"/>
<path d="M97.254 98.1534C97.9071 101.434 97.9462 104.825 98.1243 108.153C98.1681 108.97 98.4458 110.257 98.195 111.006L98.1044 111.101C97.8954 110.891 97.8755 110.552 97.8438 110.261C97.7352 109.255 97.7903 108.234 97.7337 107.225C97.5907 104.316 97.3228 101.414 96.9302 98.5277C97.0798 98.4199 97.1493 98.3031 97.254 98.1534Z" fill="#F2BA22"/>
<path d="M116.741 60.0406C116.773 60.0793 116.814 60.1125 116.838 60.1571C116.97 60.4067 118.157 64.6055 118.185 64.9805C118.203 65.2274 118.14 65.2961 118.04 65.5137L117.622 65.6074C117.369 65.5461 117.198 65.402 117.04 65.1992C116.178 64.0922 116.514 61.3387 116.741 60.0406Z" fill="#FA3948"/>
<path d="M89.2269 105.555C89.544 106.727 91.7304 114.04 91.3729 114.817C91.1288 114.828 91.189 114.831 91.0276 114.689C90.1319 111.747 89.6878 108.649 88.814 105.696L89.2269 105.555Z" fill="#F2BA22"/>
<path d="M79.4717 108.857C80.0166 109.716 85.1561 119.408 85.2002 119.786L85.0814 119.952L84.8557 119.928C84.4545 118.962 82.385 114.595 81.7943 113.998C81.7361 113.939 81.6435 113.931 81.5685 113.897C81.2389 113.484 80.9596 112.814 80.7482 112.323C80.792 111.357 79.5553 109.759 79.1025 108.874L79.4717 108.857Z" fill="#F2BA22"/>
<path d="M108.446 100.401L108.691 100.709C108.744 100.636 108.797 100.563 108.848 100.488L108.948 100.567C108.673 101.645 108.287 102.701 107.861 103.727C107.73 104.091 107.595 104.451 107.49 104.824C107.425 105.055 107.323 105.212 107.189 105.41L107.012 105.434L106.699 105.193L106.787 104.587C107.01 103.772 107.021 102.715 107.054 101.874C107.203 102.043 107.276 102.119 107.497 102.177L107.663 102.05C107.743 101.757 107.734 101.545 107.7 101.245L107.808 101.04C107.822 101.405 107.836 101.587 108.064 101.878C108.219 101.4 108.323 100.889 108.446 100.401Z" fill="black"/>
<path d="M108.447 100.401L108.691 100.709C108.744 100.636 108.797 100.563 108.849 100.488L108.949 100.567C108.674 101.645 108.287 102.701 107.862 103.727C107.587 103.247 107.932 102.407 108.064 101.878C108.22 101.4 108.323 100.889 108.447 100.401Z" fill="#F2BA22"/>
<path d="M71.3052 128.564C71.3595 128.511 71.4466 128.423 71.5052 128.38C71.7438 128.204 71.8735 128.284 72.1446 128.334C73.0864 128.857 77.995 131.233 78.2985 131.612C77.988 131.745 77.222 131.409 76.8997 131.281C74.9985 130.527 73.0938 129.554 71.3052 128.564Z" fill="#F2BA22"/>
<path d="M147.917 47.6488C148.274 47.7117 148.584 47.8359 148.829 48.1105C149.131 48.4488 149.28 48.8621 149.22 49.3148C149.158 49.7875 148.931 49.9965 148.565 50.2746C148.221 50.2078 147.87 50.0543 147.635 49.7875C147.379 49.4972 147.231 49.1117 147.27 48.7234C147.316 48.2523 147.558 47.9332 147.917 47.6488Z" fill="white"/>
<path d="M90.8458 103.353C91.186 104.251 92.822 112.616 92.7712 113.435C92.3606 112.497 92.1872 111.311 91.9403 110.313C91.3622 107.973 90.6868 105.582 90.3521 103.195C90.9032 104.202 90.763 105.482 91.2595 106.535L91.3192 106.492C91.1978 105.502 90.8259 104.463 90.8388 103.469C90.8392 103.431 90.8435 103.392 90.8458 103.353Z" fill="#F2BA22"/>
<path d="M73.6179 120.543C73.5866 120.372 73.2835 120.175 73.1499 120.062C73.2808 120.066 73.2269 120.051 73.3444 120.104C73.5503 120.197 73.6979 120.265 73.9292 120.261C73.9901 120.26 74.0511 120.257 74.112 120.255C76.5519 121.467 78.5499 123.131 80.5667 124.934L80.2647 125.084C79.2753 124.367 78.3952 123.48 77.4284 122.728C76.2667 121.825 74.9378 121.181 73.6179 120.543Z" fill="#F2BA22"/>
<path d="M106.729 98.3253C106.92 98.9245 107.033 99.4948 107.077 100.125C107.074 100.704 107.092 101.296 107.054 101.874C107.021 102.715 107.01 103.772 106.787 104.587C106.786 104.575 106.786 104.564 106.783 104.552C106.732 104.326 106.763 104.267 106.56 104.139C106.437 104.179 106.352 104.227 106.241 104.293C106.389 103.073 106.492 101.915 106.403 100.684C106.604 100.265 106.699 99.7167 106.692 99.2542C106.687 98.9402 106.703 98.6378 106.729 98.3253Z" fill="#F2BA22"/>
<path d="M106.241 104.293C106.351 104.227 106.437 104.179 106.56 104.139C106.762 104.267 106.732 104.326 106.783 104.552C106.785 104.564 106.785 104.575 106.786 104.587L106.699 105.193C106.542 106.244 106.408 107.516 106.001 108.494C105.904 108.727 105.77 109.079 105.531 109.177C105.283 108.446 106.072 105.211 106.241 104.293Z" fill="#F2BA22"/>
<path d="M95.2208 94.7169L95.2962 94.4665C95.0989 94.3485 95.0161 94.2571 94.8931 94.0633L95.0204 93.9114C95.3606 94.1633 95.3771 94.1868 95.7966 94.168C96.5927 95.4774 96.8017 96.7204 97.2536 98.1536C97.1489 98.3032 97.0794 98.42 96.9298 98.5278C96.5423 96.9907 96.2099 95.9836 95.2208 94.7169Z" fill="#F2BA22"/>
<path d="M85.3005 92.4121C85.9556 93.848 86.6185 95.468 86.8454 97.0402L86.5618 97.0805C86.2294 95.5262 85.4399 94.0031 84.5962 92.6742C84.8181 92.5574 85.0626 92.491 85.3005 92.4121Z" fill="#F2BA22"/>
<path d="M76.838 104.363C77.8794 105.785 78.6794 107.289 79.472 108.857L79.1028 108.874C78.3521 107.386 77.5087 105.994 76.4146 104.731L76.838 104.363Z" fill="#F2BA22"/>
<path d="M90.4112 105.855C90.821 107.928 91.7206 110.267 91.7862 112.355C91.1577 110.341 90.562 108.314 90.1343 106.246L90.4112 105.855Z" fill="#F2BA22"/>
<path d="M71.7024 119.207C72.5446 119.451 73.3392 119.845 74.1118 120.255C74.0509 120.257 73.9899 120.26 73.929 120.261C73.6978 120.265 73.5501 120.197 73.3442 120.104C73.2267 120.052 73.2806 120.066 73.1497 120.062C73.2833 120.175 73.5864 120.372 73.6177 120.543C72.8622 120.3 72.1583 120.123 71.3677 120.028C71.5235 119.867 71.661 119.73 71.7712 119.533C71.7587 119.496 71.7153 119.37 71.7099 119.337C71.7028 119.294 71.7052 119.25 71.7024 119.207Z" fill="#F2BA22"/>
<path d="M77.7554 101.498C77.939 101.449 77.8495 101.455 78.0753 101.488C78.1339 101.497 78.1925 101.507 78.2511 101.517L78.28 101.357C78.1542 101.231 78.0257 101.107 77.8944 100.986C77.9456 100.756 77.9819 100.747 78.1628 100.591C78.5022 101.479 78.8784 102.378 79.1378 103.292L78.9964 103.29L78.7397 102.711C78.6448 102.984 78.7612 103.176 78.7413 103.449C78.3538 102.837 78.0538 102.157 77.7554 101.498Z" fill="#F2BA22"/>
<path d="M85.6179 98.8156C85.5359 98.6273 85.4597 98.5476 85.4945 98.3406L85.9042 98.3949C86.5785 99.0644 87.0788 100.13 87.4386 101L87.1917 101.163C86.7515 100.291 86.2609 99.5519 85.6179 98.8156Z" fill="#F2BA22"/>
<path d="M111.938 178.386C112.296 178.609 112.75 179.002 112.997 179.343C113.253 179.696 113.235 179.905 113.165 180.312C112.948 180.397 112.927 180.417 112.704 180.36C112.255 179.77 112.125 179.091 111.938 178.386Z" fill="#F2BA22"/>
<path d="M77.2356 103.19C77.7806 104.076 78.3985 104.999 78.7853 105.966L78.6759 106.209C78.3177 105.151 77.3638 104.227 76.6548 103.375L77.2356 103.19Z" fill="#0B8DCB"/>
<path d="M78.741 103.449C78.7609 103.176 78.6445 102.984 78.7394 102.711L78.9961 103.29L79.1375 103.292C79.6625 104.181 80.1199 105.297 80.3855 106.3C79.8113 105.468 79.064 104.403 78.741 103.449Z" fill="#F2BA22"/>
<path d="M75.7178 136.903C76.1998 136.821 76.7103 136.681 77.1939 136.785L77.2982 136.913C77.0236 137.419 76.34 137.524 75.8697 137.784C75.8182 137.475 75.8518 137.198 75.7178 136.903Z" fill="#F2BA22"/>
<path d="M110.602 101.602C110.85 101.628 111.125 101.617 111.327 101.778C110.62 102.533 109.989 103.356 109.443 104.235L109.846 103L110.602 101.602Z" fill="#0B8DCB"/>
<path d="M68.7236 127.135C69.5295 128.007 70.483 128.602 71.3557 129.384C70.5158 129.002 69.6877 128.594 68.8721 128.164C68.9119 127.691 68.9232 127.557 68.7236 127.135Z" fill="#0B8DCB"/>
<path d="M86.5616 97.0805L86.8452 97.0403C86.9429 97.6497 87.303 98.6407 87.2194 99.2137C86.7854 98.9008 86.5874 98.2696 86.1284 97.8965L86.6105 97.7364C86.6909 97.4774 86.6241 97.3411 86.5616 97.0805Z" fill="#F2BA22"/>
<path d="M144.695 49.2297C144.717 50.1532 144.866 51.0625 144.903 51.9844C144.634 51.3477 144.342 50.7094 144.268 50.0141C144.372 49.9618 144.443 49.902 144.533 49.8282L144.58 49.3125L144.695 49.2297Z" fill="white"/>
<path d="M96.9409 95.6078C97.2214 95.5273 97.2448 95.4746 97.4366 95.2488C97.5261 96.189 97.6456 97.1371 97.6187 98.0828C97.4261 97.2527 97.2655 96.3976 96.9409 95.6078Z" fill="#0B8DCB"/>
<path d="M98.6365 108.707L98.8619 108.73L99.0147 108.515C99.0135 109.345 99.0881 110.251 98.8506 111.051C98.7209 110.287 98.5572 109.485 98.6365 108.707Z" fill="#F2BA22"/>
<path d="M122.158 109.275C121.399 109.271 120.669 109.442 119.907 109.382L119.919 109.282L119.958 109.264L119.947 109.384L120.015 109.243C120.722 109.032 121.349 108.932 122.087 109.092L122.158 109.275Z" fill="black"/>
<path d="M88.8139 105.696C88.6529 104.875 88.3721 104.091 88.251 103.261C88.6564 104.004 88.942 104.761 89.2268 105.555L88.8139 105.696Z" fill="#F2BA22"/>
<path d="M116.472 16.9546C116.952 16.65 117.5 16.4028 118.076 16.4446C117.782 16.7293 117.473 17.0621 117.038 17.0982C116.821 17.1162 116.665 17.0383 116.472 16.9546Z" fill="white"/>
<path d="M75.8848 135.668C76.4937 135.821 77.1043 135.969 77.716 136.112C77.1199 136.188 76.5066 136.239 75.9203 136.369L75.8848 135.668Z" fill="#0B8DCB"/>
<path d="M90.6847 66.627C90.7487 67.1762 90.9491 68.2273 90.6405 68.7023L90.5593 68.3816C90.6218 67.9617 90.4894 67.4332 90.4351 67.0098L90.6847 66.627Z" fill="#8EBA7C"/>
<path d="M87.1919 101.163L87.4388 101C87.6181 101.471 87.8188 101.973 87.9153 102.468L87.7759 102.602L87.8083 102.649L87.9329 102.602L87.8829 102.723L87.7767 102.603L87.9333 102.618L87.9294 102.56L87.7317 102.523C87.5356 102.073 87.338 101.632 87.1919 101.163Z" fill="#F2BA22"/>
<path d="M45.9683 89.8453L46.2511 89.4792C46.5933 89.9699 46.8839 90.4496 47.1476 90.9867C46.7542 90.6066 46.3573 90.2296 45.9683 89.8453Z" fill="#8EBA7C"/>
<path d="M75.9263 99.7399C76.2403 100.263 76.4958 100.793 76.7462 101.349C76.3212 100.842 75.9126 100.314 75.4771 99.818L75.9263 99.7399Z" fill="#F2BA22"/>
<path d="M117.054 50.8027L117.606 50.9688C117.554 51.082 117.504 51.2016 117.442 51.3098C117.335 51.4957 117.297 51.5926 117.076 51.6434C116.943 51.3691 117.016 51.093 117.054 50.8027Z" fill="#0B8DCB"/>
<path d="M108.385 72.5383L108.72 72.8868C108.691 73.2223 108.695 73.5438 108.512 73.8372L108.404 73.9137C108.327 73.4711 108.375 72.9872 108.385 72.5383Z" fill="#8EBA7C"/>
<path d="M74.928 116.151C75.2987 116.554 75.6753 116.953 76.0323 117.368C75.594 117.084 75.0894 116.809 74.689 116.479L74.928 116.151Z" fill="#F2BA22"/>
<path d="M74.5899 119.595C75.0239 119.885 75.3755 120.164 75.6907 120.583C75.2208 120.303 74.7399 119.967 74.231 119.766L74.5899 119.595Z" fill="#0B8DCB"/>
<path d="M122.087 109.092C122.374 109.084 122.695 109.028 122.947 109.186C122.703 109.319 122.428 109.28 122.158 109.275L122.087 109.092Z" fill="black"/>
</svg>
