<svg width="200" height="200" viewBox="0 0 200 200" fill="none" xmlns="http://www.w3.org/2000/svg">
<path d="M83.1619 16.3015C84.2103 15.1747 85.1715 14.2367 86.8071 14.1485C87.8131 14.0943 88.7359 14.5113 89.4619 15.1914C90.1379 15.8248 90.5143 16.5533 90.9287 17.365C92.3971 16.9788 93.7951 16.6134 95.2199 17.4105C95.9335 17.8097 96.4063 18.4603 96.6055 19.2494C96.8195 20.0969 96.7155 21.0093 96.5735 21.8613C98.1547 22.3379 99.6227 22.9464 100.432 24.5056C100.86 25.3306 100.996 26.4336 100.683 27.3173C100.283 28.4488 99.1847 29.1382 98.1375 29.6033C97.0507 30.0862 95.8739 30.3703 94.8067 30.8952C92.6083 31.9766 90.1731 34.8516 88.8939 36.957C89.6843 37.712 90.5443 38.3836 91.3315 39.1424C94.5455 42.2391 95.9263 45.0931 97.1351 49.3415C98.4343 47.9663 99.7615 47.0155 101.71 46.9275C103.489 46.8475 104.926 47.7507 106.169 48.9235C110.211 52.7379 111.943 59.5555 112.186 64.9699C112.9 63.5999 113.404 62.1279 114.136 60.7711C116.33 56.6995 119.941 52.3875 124.489 50.9531C125.976 50.4843 127.477 50.4963 128.883 51.2351C130.823 52.2539 131.954 54.3203 132.555 56.3487C133.899 60.8795 133.4 67.6631 132.322 72.2207C134.732 68.0339 140.4 62.7231 145.096 61.4783C146.748 61.0407 148.553 61.0403 150.059 61.9299C151.774 62.9427 152.73 64.7759 153.209 66.6563C154.486 71.6679 152.482 78.4639 150.534 83.1207C155.015 79.9603 160.108 76.2207 165.947 77.2307C167.419 77.4851 168.69 78.1871 169.551 79.4403C170.914 81.4227 170.79 84.1755 170.359 86.4415C169.594 90.4587 166.56 96.4363 163.435 99.1103C164.981 98.8523 166.514 98.4583 168.065 98.2475C171.15 97.8287 174.933 98.0299 177.554 99.8995C178.62 100.659 179.44 101.728 179.657 103.045C180.204 106.366 178.32 110.408 176.39 113C174.776 115.168 172.468 117.134 170.185 118.564C168.831 119.412 167.446 120.118 166.207 121.142C169.873 120.895 173.379 121.047 176.749 122.682C177.525 123.058 178.268 123.434 178.924 124C180.047 124.972 181.072 126.379 181.143 127.904C181.263 130.457 179.609 132.811 177.941 134.584C173.929 138.85 166.91 141.939 161.208 143.035C163.818 144.044 166.774 145.874 167.94 148.532C168.603 150.041 168.628 151.967 168.006 153.493C166.836 156.364 163.879 158.436 161.113 159.579C153.019 162.927 143.822 161.901 135.89 158.567C132.359 157.083 128.023 154.791 125.244 152.148C124.208 153.396 123.297 154.739 122.269 155.992C119.6 159.22 116.389 161.959 112.78 164.086C110.918 165.184 108.89 166.029 106.892 166.844C106.639 166.947 106.052 167.147 105.868 167.345C105.801 167.417 105.813 167.621 105.82 167.707C105.972 169.505 106.781 171.359 107.226 173.112C107.582 174.516 107.732 176.038 108.252 177.386C111.42 177.958 118.085 178.083 120.08 180.813C120.306 181.122 120.565 181.616 120.515 182.013C120.433 182.664 118.957 183.266 118.988 183.554C118.996 183.626 119.175 183.886 119.214 183.952C119.509 184.459 119.774 184.808 119.939 185.386C119.815 186.107 119.752 186.564 119.109 187.008C118.201 187.635 116.766 187.442 115.707 187.501C115.84 188.117 116.036 188.784 115.635 189.348C115.444 189.616 115.153 189.745 114.836 189.781C114.22 189.851 113.53 189.632 112.946 189.453C110.541 188.719 108.585 187.56 106.674 185.93C104.677 184.227 104.066 183.344 103.329 180.861L103.201 180.922C102.344 181.34 100.805 182.89 99.8923 182.768C99.5831 182.363 99.5747 181.648 99.6339 181.161C99.7675 180.057 100.432 178.874 101.323 178.209C101.833 177.828 102.861 177.454 103.2 176.975C102.969 175.844 102.604 174.75 102.328 173.63C101.919 171.971 101.587 170.294 101.336 168.604C97.9395 168.781 94.5863 169.019 91.1811 169.021C91.2895 171.692 91.9107 174.263 92.3591 176.886C93.9923 177.256 95.4439 177.86 96.3991 179.325C96.8843 180.069 97.4239 181.567 97.1971 182.47C97.1343 182.72 97.0675 182.775 96.8839 182.94C96.4227 183.026 96.0923 182.804 95.7223 182.554C94.8235 181.944 94.0663 181.205 93.0727 180.734C92.7751 183.838 91.0891 185.923 88.7547 187.866C87.6399 188.794 85.7515 190.006 84.2435 189.902C83.8203 189.874 83.4055 189.693 83.1395 189.353C82.7431 188.847 82.7963 188.003 82.7695 187.386C81.6011 187.62 79.6991 188.19 78.6303 187.529C78.2611 187.301 78.0807 186.936 78.0067 186.517C77.9159 186.004 78.0879 185.247 78.2099 184.738C77.4731 184.73 76.1303 184.854 75.5587 184.339C75.3827 184.18 75.2859 183.984 75.2959 183.745C75.3367 182.741 77.1107 181.308 77.8859 180.762C81.1239 178.479 83.7043 178.641 86.9779 177.246C86.1195 174.15 85.6119 170.981 84.6799 167.896C82.7371 167.115 80.7315 166.509 78.8211 165.641C73.0939 163.038 68.7651 158.521 65.4139 153.294C64.2115 154.185 62.8195 154.885 61.4983 155.583C55.6387 158.68 49.7363 160.218 43.0847 159.239C38.8688 158.619 34.3099 157.104 31.6684 153.551C30.4849 151.986 29.9758 150.012 30.2542 148.07C30.6073 145.68 32.2109 143.813 34.1054 142.425C35.1114 141.688 37.2399 140.929 37.9102 140.329C37.4541 139.956 32.524 139.163 31.4245 138.875C29.6452 138.409 27.7931 137.745 26.1689 136.876C22.7884 135.068 18.5731 131.475 18.1385 127.402C17.9517 125.652 18.3413 123.882 19.4657 122.5C21.343 120.194 24.1859 119.318 27.0509 119.025C27.9281 118.935 31.6988 119.073 32.0715 118.928C32.0826 118.72 32.118 118.792 31.9817 118.648C31.8106 118.466 31.5799 118.361 31.3607 118.249C30.2452 117.682 29.2707 116.947 28.2582 116.211C24.0455 113.148 19.8211 107.847 19.7067 102.422C19.6729 100.82 20.1437 99.0015 21.2651 97.8159C22.9223 96.0635 25.8355 95.6131 28.1297 95.5955C32.2481 95.5635 36.8622 96.6675 40.5503 98.5283C36.4665 93.5567 32.8755 89.7427 31.7162 83.0475C31.4787 81.6759 31.2907 80.2683 31.4309 78.8755C31.604 77.1551 32.2667 75.2371 33.6576 74.1239C35.3344 72.7819 37.8155 72.7055 39.8517 72.9815C43.0835 73.4191 46.4043 75.3595 48.9631 77.3215C49.4831 77.7203 50.3687 78.6839 50.9663 78.8535C50.9699 78.0763 49.8075 75.8391 49.4791 74.9959C47.9239 71.0051 45.6331 62.9327 49.0783 59.4767C49.5631 58.9903 50.1931 58.6059 50.8235 58.3363C52.4131 57.7751 53.7263 57.5747 55.3563 58.1263C56.3199 58.3355 57.1711 58.8371 58.0235 59.3135C59.4947 58.3667 60.9507 57.4595 62.4811 56.6091C61.6731 54.3499 61.7131 51.2543 62.2711 48.9295C62.5243 47.8743 62.9199 46.8395 63.4935 45.9159C64.2519 44.6951 65.3467 43.8147 66.2551 42.7263C67.4835 41.2547 68.1043 39.5633 69.8515 38.5345C70.8947 37.9204 71.7551 37.971 72.8691 38.2799C73.2263 38.0184 73.5887 37.764 73.9559 37.5168C74.1859 37.3452 74.4323 37.2005 74.6771 37.051C76.2699 35.7101 78.3067 35.5514 80.2019 34.9614C80.2147 32.9498 80.2399 31.1352 79.6147 29.1964C78.4843 25.6908 76.0359 22.985 76.0431 19.1196C76.0451 18.0047 76.2707 16.9979 77.1067 16.2028C77.9223 15.4271 79.0739 14.9337 80.2075 15.0037C81.3503 15.0744 82.2663 15.6507 83.1619 16.3015ZM94.4823 83.2691C94.7339 84.4543 94.9723 85.7835 95.5599 86.8487C95.2827 85.6027 95.2179 84.3251 94.8975 83.0823L94.8175 83.8415C94.7131 83.6431 94.6191 83.4479 94.4823 83.2691ZM109.352 96.3911C109.59 97.3219 109.67 98.3055 109.792 99.2579C110.014 98.2663 110.134 97.2927 110.128 96.2759C110.017 96.5799 109.912 96.8859 109.813 97.1943C109.682 96.9047 109.575 96.6239 109.352 96.3911ZM99.3787 95.3879C99.4603 96.3279 99.5595 97.2819 99.7579 98.2051C99.9199 97.3815 100.087 96.5799 100.349 95.7807C100.292 95.8127 100.229 95.8363 100.178 95.8775C100.019 96.0047 100.026 96.0959 99.8051 96.1847C99.7071 95.9539 99.6143 95.7239 99.4707 95.5171C99.4407 95.4735 99.4095 95.4311 99.3787 95.3879ZM131.164 133.748L131.223 133.912C131.464 133.948 131.618 133.864 131.838 133.776C131.567 133.689 131.441 133.681 131.164 133.748ZM95.5579 94.8459C95.3887 95.2043 95.2407 95.2359 94.9051 95.4319C95.3323 95.8619 95.6603 96.3967 96.0067 96.8923C95.8611 96.2095 95.7115 95.5271 95.5579 94.8459ZM38.4981 121.081L38.1674 121.444C38.5172 121.426 38.8682 121.444 39.1863 121.28C38.971 121.119 38.7581 121.12 38.4981 121.081ZM93.2011 179.455C93.9599 180.028 95.1551 181.007 96.0723 181.248L96.1623 181.136C95.8303 180.088 94.7355 179.153 93.8095 178.64C93.8331 178.684 93.8555 178.728 93.8803 178.772C94.2511 179.42 95.2991 179.61 95.3943 180.444L95.3323 180.589C94.5547 180.418 94.0791 179.48 93.2011 179.455ZM133.735 133.236L133.276 133.105C132.916 133.196 132.426 133.221 132.198 133.515C132.692 133.559 133.241 133.313 133.735 133.236ZM96.1735 99.0531L95.7619 98.9603C95.8931 99.4223 96.0411 100.267 96.3795 100.598C96.4575 100.095 96.2799 99.5447 96.1735 99.0531ZM41.0215 138.826L41.1047 138.969L41.4423 139.088L41.4111 139.15C41.0943 139.164 40.7683 139.163 40.4551 139.212C41.0631 139.367 42.4343 139.582 43.0107 139.318C42.5179 138.981 41.6123 138.921 41.0215 138.826Z" fill="black"/>
<path d="M74.6769 37.051C78.8981 35.7867 82.6245 35.3868 86.6533 37.5495C91.1789 39.9789 94.1241 44.1879 95.5825 49.0511C96.2361 51.2307 96.6153 53.6175 96.7145 55.8871C97.0921 64.5403 92.2373 69.7667 89.5489 77.4063C88.9701 79.0515 88.5929 80.7911 88.1625 82.4819C87.5773 84.7819 87.0349 87.0787 86.7077 89.4323C84.8553 102.763 87.7721 116.473 93.5089 128.523C97.3085 136.504 103.027 144.622 110.934 148.944C114.544 150.918 118.377 151.513 122.353 150.352C123.613 149.988 124.827 149.484 125.972 148.846C120.796 157.082 112.363 163.691 102.795 165.867C93.6065 167.959 83.9641 166.333 75.9709 161.343C69.4601 157.257 64.8549 150.353 63.1941 142.88C61.2461 134.117 63.2125 122.64 65.4257 114.082C65.9849 111.921 66.6905 109.795 67.3021 107.648C67.9125 105.504 68.5793 103.385 69.2137 101.25C69.6089 99.9183 69.9193 98.5595 70.3617 97.2423L74.0429 86.2667C75.0857 83.1671 76.2117 80.1059 77.0449 76.9387C77.5061 75.1851 77.8305 73.3939 78.1513 71.6103C79.9273 71.5451 81.6353 71.2867 83.3389 70.7731C83.5133 70.6035 83.6481 70.4563 83.7829 70.2507L83.7073 70.0987L83.4177 70.0215C80.1649 71.0843 76.4221 70.4807 73.1385 69.8355C76.3681 67.8043 78.3581 65.0835 79.4889 61.4027C81.2297 61.2983 82.9017 61.2131 84.4905 60.4207C86.7725 59.2823 88.4905 57.1175 89.2861 54.7131C89.8425 53.0307 90.1933 50.6787 89.7337 48.9387C89.4397 47.8251 88.8577 46.7835 88.3445 45.7595L88.5753 45.6191C88.6057 45.4927 88.6157 45.4787 88.6141 45.3275C88.6009 44.0031 87.5681 42.0887 86.5641 41.2291C85.8225 40.5943 84.9049 40.2543 83.9249 40.3387C83.2789 40.3947 82.5465 40.6063 82.1249 41.1327C81.8681 41.4531 81.7641 41.8279 81.8057 42.2339C82.2593 42.8539 83.9165 42.8403 84.6645 43.1631C84.7025 43.2011 84.7397 43.2403 84.7785 43.2775C85.1793 43.6611 85.9581 44.0443 86.4857 44.2291L86.4921 44.3287L86.3493 44.4007C85.5977 44.1279 84.8657 43.7199 84.0569 43.9179C82.0053 43.8195 80.2665 44.2535 78.5805 45.4571C75.4933 47.6603 74.5229 51.3467 73.9317 54.8963C72.7329 53.9199 71.2061 53.5483 69.6921 53.4247C70.8817 51.9183 71.6361 49.9611 71.7809 48.0495C71.9081 46.3739 71.7233 44.4915 70.5441 43.1879C69.4445 41.9723 68.4285 42.2891 67.0029 42.2351C69.5469 40.9699 70.2009 40.8483 73.0329 41.1223C73.4245 41.1603 73.8253 41.2559 74.1413 40.9959C74.3233 40.1927 73.6817 39.1477 73.3037 38.4637C73.5033 38.1379 73.7353 37.8291 73.9557 37.5168C74.1857 37.3452 74.4321 37.2005 74.6769 37.051Z" fill="#0B8DCB"/>
<path d="M83.4182 70.0216C84.929 69.5228 86.3458 68.7236 87.8642 68.2888C86.5222 69.3892 84.9882 70.2316 83.3394 70.7732C83.5138 70.6036 83.6485 70.4564 83.7833 70.2508L83.7078 70.0988L83.4182 70.0216Z" fill="black"/>
<path d="M84.6647 43.1631C86.1795 43.6359 87.0499 44.5011 88.0579 45.6795C86.7679 44.8747 85.5879 44.1463 84.0571 43.9179C84.8659 43.7199 85.5979 44.1279 86.3495 44.4007L86.4923 44.3287L86.4859 44.2291C85.9583 44.0443 85.1795 43.6611 84.7787 43.2775C84.7399 43.2403 84.7027 43.2011 84.6647 43.1631Z" fill="#0B8DCB"/>
<path d="M104.076 111.943C108.657 111.773 113.189 112.935 117.123 115.289C123.42 119.107 127.127 125.316 128.847 132.339C128.455 132.594 128.05 132.83 127.635 133.045C125.573 134.132 123.309 134.581 121.043 133.868C117.527 132.762 116.046 129.713 114.462 126.669C114.461 127.055 114.462 127.442 114.503 127.826C114.747 130.129 116.193 132.461 118.007 133.866C119.824 135.259 122.123 135.867 124.391 135.556C126.374 135.297 127.652 134.301 128.85 132.768C129.115 135.046 129.474 137.438 129.144 139.723C128.919 141.904 128.441 144.303 127.382 146.245C126.326 148.182 124.553 149.247 122.474 149.845C118.395 151.02 114.418 150.303 110.76 148.269C99.7386 142.141 93.4954 128.377 90.207 116.755C94.6094 113.562 98.5934 112.191 104.076 111.943Z" fill="#8EBA7C"/>
<path d="M101.79 130.065C102.267 130.486 102.725 132.65 102.998 133.348C103.739 135.244 104.91 137.006 106.546 138.241C107.308 138.816 108.36 139.491 109.277 139.754C110.302 140.048 113.094 139.619 113.384 139.834C113.359 140.116 113.27 140.166 113.089 140.377C111.782 141.017 110.17 141.072 108.774 140.728C106.391 140.141 104.6 138.498 103.35 136.443C102.282 134.686 101.287 132.154 101.79 130.065Z" fill="black"/>
<path d="M101.496 118.131C101.577 118.081 101.661 118.095 101.755 118.091C102.618 120.521 104.1 122.985 106.512 124.121C107.972 124.808 109.84 124.832 111.346 124.264C112.173 123.951 112.918 123.437 113.742 123.134C112.722 124.511 111.426 125.479 109.702 125.746C108 126.009 106.214 125.502 104.836 124.49C102.969 123.119 101.888 121.037 101.55 118.775C101.517 118.558 101.498 118.349 101.496 118.131Z" fill="black"/>
<path d="M111.012 115.446C111.121 115.491 111.2 115.517 111.287 115.608C111.574 115.907 111.832 116.511 112.051 116.88C112.481 117.604 112.949 118.308 113.505 118.942C114.169 119.698 114.945 120.32 115.797 120.851C116.911 121.544 118.396 122.38 119.721 122.539C120.486 122.63 122.161 122.186 122.714 122.444C122.713 122.713 122.59 122.761 122.415 122.951C121.919 123.271 121.404 123.537 120.817 123.641C119.045 123.955 117.039 123.204 115.599 122.2C113.305 120.6 111.507 118.225 111.012 115.446Z" fill="black"/>
<path d="M113.656 138.626C114.212 138.801 115.299 141.098 115.827 141.721C116.318 142.3 116.904 142.756 117.576 143.104C119.206 143.955 121.109 144.112 122.856 143.54C123.433 143.355 123.973 143.076 124.551 142.889L124.595 142.918C124.515 143.139 124.435 143.169 124.261 143.319C122.859 144.328 121.509 144.796 119.773 144.677C117.946 144.542 116.247 143.688 115.05 142.302C114.22 141.343 113.559 139.914 113.656 138.626Z" fill="black"/>
<path d="M96.6758 115.441C97.641 116.138 98.359 117.069 99.5794 117.37C101.712 117.895 103.408 116.27 105.109 115.289C105.077 115.341 105.047 115.394 105.014 115.446C104.347 116.521 103.014 117.806 101.755 118.091C101.661 118.095 101.577 118.08 101.496 118.13C100.741 118.357 99.743 118.398 98.9986 118.121C97.8198 117.683 97.1754 116.517 96.6758 115.441Z" fill="black"/>
<path d="M144.705 142.603C146.827 142.596 149.158 142.488 151.24 142.929L151.68 142.713C155.978 142.51 161.855 143.741 165.074 146.641C166.337 147.779 167.284 149.098 167.39 150.852C167.487 152.468 166.813 153.971 165.739 155.15C162.444 158.764 156.281 160.375 151.529 160.578C144.434 160.882 136.888 158.332 130.808 154.818C129.044 153.798 127.373 152.601 125.689 151.457C126.075 150.92 126.488 150.19 127.023 149.807C127.207 149.627 127.221 149.554 127.296 149.304C127.378 148.741 127.897 147.996 128.421 147.754C129.335 147.33 130.944 147.433 131.955 147.338C135.157 147.038 139.095 146.171 141.891 144.608C142.904 144.042 143.783 143.3 144.705 142.603Z" fill="#3B773B"/>
<path d="M151.24 142.929L151.68 142.713C155.978 142.511 161.855 143.741 165.074 146.641C166.337 147.779 167.284 149.098 167.39 150.852C167.487 152.468 166.813 153.971 165.739 155.15C162.444 158.764 156.281 160.375 151.529 160.579C144.434 160.882 136.888 158.332 130.808 154.818C129.044 153.798 127.373 152.601 125.689 151.457C126.075 150.92 126.488 150.19 127.023 149.807C127.207 149.627 127.221 149.554 127.296 149.304C129.722 151.23 132.304 152.693 135.085 154.041C138.573 155.731 143.998 157.142 147.815 156.934C149.058 156.854 150.283 156.599 151.454 156.176C153.705 155.386 155.787 154.065 156.842 151.843C157.423 150.621 157.478 149.27 157.013 147.999C156.013 145.27 153.716 144.067 151.24 142.929Z" fill="#8EBA7C"/>
<path d="M151.24 142.929L151.68 142.713L151.817 142.791C152.361 143.094 152.983 143.274 153.544 143.556C155.425 144.498 157.004 146.056 157.6 148.118C158.038 149.598 157.863 151.192 157.114 152.541C155.875 154.786 153.222 156.363 150.816 157.049C149.712 157.364 148.533 157.411 147.393 157.44C141.804 157.578 136.505 155.611 131.695 152.884C130.055 151.954 128.601 150.82 127.023 149.807C127.207 149.627 127.221 149.554 127.296 149.304C129.722 151.23 132.304 152.693 135.085 154.041C138.573 155.73 143.998 157.142 147.815 156.934C149.058 156.854 150.283 156.599 151.454 156.176C153.705 155.386 155.787 154.065 156.842 151.843C157.423 150.621 157.478 149.27 157.013 147.998C156.013 145.27 153.716 144.067 151.24 142.929Z" fill="black"/>
<path d="M147.77 146.734C148.484 146.77 149.147 146.866 149.767 147.247C150.525 147.712 151.026 148.467 151.209 149.334C151.411 150.286 151.242 151.311 150.688 152.118C149.991 153.13 149.041 153.419 147.9 153.633C147.08 153.558 146.367 153.425 145.669 152.951C144.866 152.399 144.322 151.543 144.164 150.581C144.022 149.726 144.209 148.836 144.741 148.144C145.498 147.158 146.599 146.862 147.77 146.734Z" fill="black"/>
<path d="M147.485 147.368C148.945 147.11 150.341 148.081 150.606 149.54C150.871 151 149.908 152.4 148.449 152.672C146.981 152.947 145.569 151.975 145.301 150.505C145.034 149.035 146.013 147.628 147.485 147.368Z" fill="#EA6F1C"/>
<path d="M120.369 61.9328C121.631 61.8224 122.828 61.9372 123.987 62.4808C125.859 63.3584 127.136 65.1924 127.823 67.09C130.311 73.9604 128.102 81.9072 125.123 88.2588C124.124 87.8108 123.011 87.4972 121.914 87.438C119.439 87.3048 117.36 88.6292 115.583 90.2236C114.337 91.28 113.619 92.7776 112.936 94.2244C113.245 89.5192 112.553 85.7176 109.895 81.756C110.135 76.0264 111.283 70.0028 114.773 65.3308C116.242 63.3648 117.946 62.2944 120.369 61.9328Z" fill="#3B773B"/>
<path d="M120.429 69.0235C121.072 68.9439 121.696 68.9391 122.31 69.1731C123.143 69.4871 123.808 70.1319 124.148 70.9539C124.542 71.9027 124.527 72.9719 124.106 73.9095C123.682 74.8483 122.965 75.4327 122.024 75.8075C121.459 75.9635 120.812 75.9419 120.26 75.7455C119.423 75.4475 118.805 74.7795 118.464 73.9711C118.06 73.0147 117.971 71.7767 118.372 70.8039C118.779 69.8135 119.484 69.3935 120.429 69.0235Z" fill="black"/>
<path d="M120.906 69.4755C121.448 69.3907 122.003 69.4799 122.492 69.7295C123.506 70.2479 124.065 71.3651 123.872 72.4875C123.679 73.6095 122.779 74.4763 121.651 74.6267C120.237 74.8147 118.935 73.8303 118.731 72.4191C118.528 71.0075 119.497 69.6951 120.906 69.4755Z" fill="#EA6F1C"/>
<path d="M140.057 71.5097C140.91 71.4433 141.969 71.7569 142.745 72.1021C144.41 72.8421 145.622 74.2417 146.27 75.9317C146.912 77.6041 147.006 79.4069 146.883 81.1781C146.512 86.5201 144.565 89.6757 142.453 94.3353C141.002 93.7537 139.49 93.4729 137.934 93.7265C134.128 94.3465 130.877 97.4221 128.698 100.441C127.922 101.518 127.255 102.672 126.481 103.752C125.598 105.136 124.724 106.526 123.859 107.921C124.195 106.596 124.936 105.524 125.553 104.323C126.46 102.556 127.326 100.352 127.737 98.4113C128.454 95.0169 128.178 92.2109 126.29 89.2825C126.64 88.2493 127.155 87.2541 127.568 86.2429C128.416 84.1705 129.11 82.0165 130.294 80.1025C132.58 76.4081 135.65 72.5553 140.057 71.5097Z" fill="#3B773B"/>
<path d="M138.847 77.2904C140.687 77.1652 142.291 78.5344 142.457 80.3724C142.622 82.2104 141.288 83.8432 139.454 84.0484C138.232 84.1852 137.031 83.6496 136.316 82.6492C135.601 81.6484 135.483 80.3392 136.008 79.2272C136.533 78.1152 137.619 77.374 138.847 77.2904Z" fill="black"/>
<path d="M138.487 77.7147C138.859 77.6927 139.307 77.6359 139.671 77.7283C140.72 77.9951 141.365 78.8963 141.888 79.7715C141.911 80.3231 141.957 80.9171 141.724 81.4311C141.35 82.2535 140.6 82.6099 139.784 82.8947C139.346 82.9023 138.909 82.9195 138.484 82.7935C137.724 82.5679 137.062 82.0847 136.689 81.3763C136.402 80.8331 136.306 80.2003 136.493 79.6083C136.79 78.6695 137.652 78.1275 138.487 77.7147Z" fill="#EA6F1C"/>
<path d="M57.5353 85.3116C56.0345 81.7204 54.0805 77.2232 55.6509 73.3468C56.3597 71.5532 57.7565 70.1172 59.5297 69.3592C60.5633 68.924 61.6645 68.7 62.7645 68.5068C64.7873 69.5608 66.5953 70.4656 68.9261 70.5148C71.4997 73.8696 72.6449 77.644 73.7961 81.6388C73.4393 82.918 72.9245 84.1444 72.4969 85.4008L70.4137 91.7016C69.5649 94.2684 68.9617 97.0996 67.8213 99.546C66.5265 96.8644 64.3777 95.708 62.5737 93.6344C60.9897 91.8136 59.3417 88.8068 58.2505 86.628L57.5353 85.3116Z" fill="#3B773B"/>
<path d="M62.9834 75.3512C64.8178 75.1048 66.5034 76.394 66.7458 78.2288C66.9878 80.0636 65.6942 81.7464 63.859 81.9844C62.0298 82.2212 60.3542 80.9332 60.1126 79.1044C59.8714 77.276 61.1554 75.5968 62.9834 75.3512Z" fill="black"/>
<path d="M63.3241 75.8724C64.7497 75.8008 65.9617 76.9036 66.0241 78.3296C66.0865 79.756 64.9757 80.9604 63.5489 81.0132C62.1357 81.0656 60.9449 79.9676 60.8829 78.5548C60.8213 77.1416 61.9117 75.9436 63.3241 75.8724Z" fill="#EA6F1C"/>
<path d="M133.276 133.105C135.681 132.302 137.998 131.145 140.343 130.177C146.115 127.793 156.275 123.838 162.39 124.271C163.48 124.348 164.491 124.606 165.469 125.096C166.914 125.82 168.25 127.092 168.75 128.659C169.21 130.102 169.022 131.633 168.294 132.954C166.313 136.548 160.964 138.998 157.153 140.074C152.721 141.325 149.808 141.215 145.313 141.255C145.836 139.792 146.086 138.398 145.416 136.912C144.685 135.288 143.14 134.269 141.51 133.692C139.704 133.054 135.575 132.673 133.735 133.236L133.276 133.105Z" fill="#3B773B"/>
<path d="M158.943 128.054C160.805 127.829 162.503 129.142 162.753 131.002C163.003 132.862 161.713 134.577 159.857 134.852C158.633 135.034 157.407 134.543 156.647 133.567C155.887 132.592 155.711 131.282 156.187 130.141C156.662 128.999 157.715 128.202 158.943 128.054Z" fill="black"/>
<path d="M158.718 128.724C160.122 128.309 161.599 129.107 162.019 130.51C162.441 131.913 161.648 133.392 160.247 133.819C158.838 134.248 157.348 133.45 156.925 132.04C156.501 130.628 157.305 129.142 158.718 128.724Z" fill="#EA6F1C"/>
<path d="M37.4468 122.039C39.3531 121.614 46.0633 122.774 47.6821 123.975C48.3737 124.488 48.9461 125.213 49.5573 125.821C50.7477 127.004 51.9585 127.924 53.4197 128.737C55.0849 129.662 56.7741 130.423 58.5625 131.083C59.2117 131.323 60.0361 131.394 60.6209 131.71C60.7649 131.912 60.8341 132.043 60.7933 132.3C60.7693 132.45 60.7061 132.704 60.5605 132.758C60.2365 132.878 59.6813 132.803 59.3285 132.799C57.3313 132.776 55.2365 132.742 53.6333 134.134C52.3093 135.283 52.0645 136.732 51.9237 138.376L51.9009 139.537C46.3797 139.858 40.8729 138.922 35.982 136.302C35.0701 135.813 34.1537 135.329 33.3318 134.696C31.4554 133.25 30.0444 131.388 29.7552 128.986C29.5743 127.482 30.1411 126.115 31.0708 124.964C32.595 123.076 35.1153 122.29 37.4468 122.039Z" fill="#3B773B"/>
<path d="M38.5324 126.648C40.2428 126.252 41.9492 127.321 42.3408 129.032C42.732 130.743 41.66 132.447 39.9479 132.835C38.2413 133.221 36.5441 132.153 36.1539 130.447C35.7636 128.742 36.8277 127.042 38.5324 126.648Z" fill="black"/>
<path d="M38.5798 127.138C39.9715 126.806 41.3675 127.671 41.6907 129.065C42.0135 130.458 41.1403 131.849 39.7445 132.163C38.3613 132.474 36.986 131.611 36.6658 130.23C36.3456 128.848 37.2005 127.468 38.5798 127.138Z" fill="#EA6F1C"/>
<path d="M36.6077 101.44C36.9564 101.399 37.3052 101.407 37.6557 101.412C42.8965 101.498 48.6105 104.952 52.8609 107.79C54.0197 108.564 55.2573 109.342 56.3065 110.261C57.3053 111.136 57.9721 112.324 58.8857 113.281C60.3105 114.773 61.8961 116.109 63.3281 117.586C62.3433 117.197 61.4693 116.523 60.5609 115.984C57.9165 114.415 54.9981 113.189 51.9005 113.046C51.1349 113.082 50.3765 113.164 49.6489 113.416C48.2081 113.932 47.0361 115.007 46.3985 116.398C45.5421 118.234 45.8857 120.113 46.5501 121.944C42.6025 120.909 39.0426 119.269 35.8724 116.663C33.26 114.515 30.8137 111.655 30.4867 108.153C30.3361 106.54 30.569 105.214 31.6355 103.933C32.9417 102.365 34.6034 101.634 36.6077 101.44Z" fill="#3B773B"/>
<path d="M38.0478 105.735C39.8064 105.355 41.5376 106.482 41.9012 108.244C42.2652 110.006 41.122 111.727 39.3564 112.074C37.6143 112.416 35.9215 111.292 35.5626 109.553C35.2036 107.814 36.3125 106.111 38.0478 105.735Z" fill="black"/>
<path d="M38.5221 106.274C39.9005 106.178 41.1004 107.207 41.216 108.584C41.3316 109.961 40.3204 111.176 38.9453 111.312C38.0376 111.401 37.152 110.995 36.6277 110.249C36.1035 109.502 36.022 108.532 36.4143 107.708C36.8067 106.885 37.6122 106.337 38.5221 106.274Z" fill="#EA6F1C"/>
<path d="M154.857 86.2395C155.688 86.1087 156.677 86.2447 157.485 86.4599C158.953 86.8511 160.192 87.7667 160.954 89.0891C161.874 90.6871 161.94 92.8043 161.47 94.5547C161.001 96.2979 160.001 97.8375 158.883 99.2319C155.413 103.565 151.315 105.742 146.609 108.462L140.407 112.114C139.093 112.996 137.668 113.784 136.264 114.515C139.767 110.995 143.173 107.449 144.367 102.441C144.945 100.012 144.833 97.7035 143.507 95.5471C144.623 93.8807 145.431 92.0919 146.72 90.5251C148.659 88.1687 151.829 86.5295 154.857 86.2395Z" fill="#3B773B"/>
<path d="M153.658 90.7444C155.492 90.4556 157.21 91.7144 157.488 93.55C157.766 95.3852 156.496 97.096 154.659 97.3628C152.838 97.6272 151.145 96.3712 150.869 94.5512C150.594 92.7312 151.84 91.0308 153.658 90.7444Z" fill="black"/>
<path d="M153.765 91.2456C154.713 91.056 155.69 91.3908 156.323 92.122C156.955 92.8536 157.145 93.8684 156.821 94.7792C156.496 95.69 155.707 96.356 154.755 96.5228C153.307 96.7764 151.924 95.818 151.653 94.3728C151.382 92.928 152.324 91.5336 153.765 91.2456Z" fill="#EA6F1C"/>
<path d="M161.668 103.145C163.069 103.038 164.527 103.439 165.741 104.129C167.156 104.94 168.193 106.278 168.625 107.85C169.146 109.802 168.522 111.634 167.53 113.318C164.86 117.854 157.627 121.434 152.969 123.709C150.144 125.088 147.218 126.56 144.155 127.34C144.767 126.871 145.382 126.509 146.065 126.154C147.54 125.477 149.933 122.914 150.813 121.547C151.822 119.978 152.515 118.09 152.065 116.213C151.746 114.883 150.858 113.822 149.7 113.131C147.467 111.797 144.494 111.976 142.063 112.568C143.288 111.978 144.449 111.23 145.641 110.575C147.141 109.752 148.692 108.996 150.157 108.117C154.039 105.792 156.986 103.48 161.668 103.145Z" fill="#3B773B"/>
<path d="M158.403 108.446C159.577 108.154 160.817 108.516 161.65 109.394C162.483 110.271 162.779 111.529 162.425 112.686C162.072 113.842 161.123 114.72 159.943 114.982C158.149 115.38 156.368 114.263 155.947 112.474C155.525 110.686 156.62 108.891 158.403 108.446Z" fill="black"/>
<path d="M158.909 108.855C160.343 108.636 161.685 109.613 161.918 111.045C162.151 112.477 161.186 113.828 159.756 114.074C158.308 114.323 156.934 113.343 156.699 111.893C156.463 110.442 157.456 109.078 158.909 108.855Z" fill="#EA6F1C"/>
<path d="M100.642 59.9096C101.043 59.8788 101.452 59.8532 101.854 59.86C103.525 59.888 105.024 60.6176 106.18 61.802C111.352 67.0988 108.606 74.1976 108.567 80.556C107.067 79.9232 105.525 79.4876 103.898 79.874C101.591 80.4216 100.017 82.0348 98.8093 83.9888C97.8617 85.5908 97.4453 87.4516 97.0105 89.2432C96.4033 87.0072 96.2901 84.6944 95.9341 82.4136C95.3757 78.8324 94.6045 75.1848 93.7065 71.6732C94.2613 70.2996 95.1605 69.1408 95.8177 67.8252C96.8297 65.7984 97.4829 63.5896 98.1205 61.4236C98.9161 60.682 99.6481 60.3128 100.642 59.9096Z" fill="#3B773B"/>
<path d="M101.307 66.5172C101.829 66.48 102.357 66.5644 102.83 66.7928C103.672 67.1988 104.248 67.9876 104.515 68.87C104.806 69.8324 104.777 70.944 104.268 71.8292C103.802 72.6384 103.126 72.984 102.259 73.2176C101.48 73.2412 100.795 73.2048 100.105 72.8028C99.4006 72.3928 98.9322 71.7396 98.7246 70.9556C98.4646 69.976 98.5054 68.774 99.0526 67.8952C99.589 67.0332 100.372 66.7452 101.307 66.5172Z" fill="black"/>
<path d="M101.039 67.0287C101.637 66.9311 102.13 66.9395 102.677 67.2335C103.358 67.6015 103.852 68.2407 104.036 68.9927C104.221 69.7291 104.156 70.5847 103.73 71.2295C103.347 71.8099 102.889 71.9795 102.234 72.1323C101.777 72.1715 101.35 72.1751 100.91 72.0227C100.226 71.7855 99.6802 71.3011 99.377 70.6419C99.091 70.0203 99.0186 69.2703 99.269 68.6255C99.6098 67.7479 100.237 67.4047 101.039 67.0287Z" fill="#EA6F1C"/>
<path d="M46.4158 82.1339C47.1914 81.9831 48.179 82.0691 48.961 82.1715C50.3766 82.3571 52.0998 82.8279 53.2798 83.6591C55.061 84.9139 58.7938 90.8355 60.413 92.9335C60.3382 92.9163 60.263 92.9007 60.1886 92.8823C58.7342 92.5251 57.0934 92.6031 55.7482 93.3051C54.3542 94.0323 53.359 95.3687 52.9018 96.8571C51.9486 99.9595 52.8994 103.577 54.3754 106.35C54.5714 106.896 54.9154 107.373 55.2286 107.857C53.991 106.83 52.5434 106.024 51.2462 105.063C47.1154 102.004 40.9902 95.2767 40.2534 90.0999C39.9973 88.3007 40.155 86.4551 41.2902 84.9627C42.5206 83.3451 44.4318 82.4139 46.4158 82.1339Z" fill="#3B773B"/>
<path d="M47.9946 87.9428C49.8302 87.6468 51.5578 88.8956 51.8526 90.7312C52.1474 92.5668 50.8978 94.2936 49.0618 94.5872C47.2278 94.8808 45.5026 93.6324 45.2082 91.7984C44.9134 89.9644 46.1606 88.2384 47.9946 87.9428Z" fill="black"/>
<path d="M47.8363 88.516C48.2811 88.484 48.7223 88.46 49.1563 88.5832C49.9043 88.7948 50.5623 89.2964 50.9343 89.9828C51.2691 90.6 51.3475 91.3232 51.1223 91.9908C50.8355 92.8424 50.1839 93.3908 49.3959 93.7656C48.8923 93.8648 48.3747 93.9124 47.8767 93.7548C47.1459 93.5232 46.5687 92.966 46.2523 92.2756C45.9311 91.5744 45.8607 90.728 46.1503 90.004C46.4831 89.1724 47.0539 88.8408 47.8363 88.516Z" fill="#EA6F1C"/>
<path d="M51.6974 140.842C51.813 140.823 51.937 140.797 52.0546 140.798C52.5542 140.798 53.1446 141.965 53.4558 142.324C55.7982 145.025 58.7082 145.135 62.035 145.403C62.2158 146.182 63.967 150.687 63.8834 150.888C60.267 152.579 56.9278 154.471 52.8218 154.758C52.659 154.807 52.7258 154.793 52.547 154.818C49.3786 155.252 45.6486 155.371 42.981 153.317C41.825 152.427 41.0222 151.27 40.8462 149.79C40.651 148.148 41.181 146.567 42.1982 145.283C44.371 142.539 48.3338 141.208 51.6974 140.842Z" fill="#3B773B"/>
<path d="M49.3259 145.52C50.0479 145.465 50.7738 145.709 51.3822 146.086C52.1842 146.584 52.8378 147.377 53.035 148.312C53.2078 149.131 53.0606 150.036 52.5798 150.728C52.0422 151.501 51.2623 151.8 50.3759 151.971C49.6583 152.03 48.8862 151.864 48.2678 151.491C47.4486 150.998 46.9015 150.181 46.7027 149.251C46.5227 148.411 46.653 147.503 47.1414 146.787C47.6794 145.998 48.4175 145.685 49.3259 145.52Z" fill="black"/>
<path d="M49.3035 146.025C49.7271 146.013 50.0839 146.062 50.4839 146.212C51.3063 146.518 52.0087 147.067 52.3607 147.888C52.5983 148.442 52.6203 149.074 52.3811 149.631C52.0139 150.486 51.2591 150.847 50.4399 151.152C49.8119 151.269 49.0899 151.1 48.5459 150.776C47.8775 150.369 47.4039 149.708 47.2339 148.944C47.0907 148.282 47.2035 147.561 47.5943 147.002C48.0295 146.379 48.5807 146.151 49.3035 146.025Z" fill="#EA6F1C"/>
<path d="M64.9866 152.79C59.6838 156.248 52.7906 158.581 46.4294 158.475C41.8418 158.398 36.6695 157.35 33.3923 153.894C32.1323 152.566 31.0831 150.72 31.1712 148.834C31.2571 146.995 32.4696 145.204 33.7895 143.991C37.7905 140.314 42.617 140.478 47.6594 140.661L47.809 141.036C46.7574 141.452 45.679 141.989 44.6946 142.544C42.8118 143.604 40.9986 145.348 40.4106 147.487C40.0174 148.918 40.1558 150.482 40.895 151.78C41.8974 153.538 43.7782 154.589 45.6774 155.1C51.8614 156.763 58.867 154.21 64.2162 151.122L64.9866 152.79Z" fill="#8EBA7C"/>
<path d="M26.8613 96.7405C27.6821 96.6089 28.6425 96.6613 29.4743 96.6977C34.1128 96.9013 39.0029 98.6301 42.9081 101.105C43.8545 101.704 44.8041 102.324 45.5657 103.153C43.4469 102.149 41.2861 101.244 38.9255 101.018C36.557 100.791 33.9521 101.168 32.0783 102.741C30.7837 103.828 30.066 105.348 29.948 107.025C29.7178 110.298 31.5231 112.883 33.5748 115.216C34.9615 116.756 36.6119 117.893 38.3519 118.99C39.122 119.476 39.9688 119.93 40.6453 120.538C39.2811 120.129 37.8837 119.825 36.5345 119.368C33.5468 118.356 30.5697 116.677 28.0657 114.749C24.6927 112.152 21.4258 107.736 20.9048 103.414C20.7193 101.874 20.767 100.11 21.7994 98.8577C23.0225 97.3741 25.0478 96.9385 26.8613 96.7405Z" fill="#8EBA7C"/>
<path d="M46.4498 101.867C43.5006 99.7385 40.8654 97.3729 38.5469 94.5641C35.1411 90.4377 31.9837 84.4601 32.5489 78.9885C32.7051 77.4753 33.117 76.0425 34.3763 75.0697C35.8595 73.9237 37.9601 73.8633 39.7433 74.0801C44.8718 74.7037 49.8958 79.0637 52.9978 83.0005C51.0794 82.1741 49.3366 81.6105 47.2206 81.6825C44.9754 81.7589 42.8618 82.4953 41.309 84.1701C40.0406 85.5381 39.5679 87.3637 39.6525 89.2009C39.8485 93.4617 43.7558 98.9945 46.8502 101.804L46.4498 101.867Z" fill="#8EBA7C"/>
<path d="M146.591 62.3363C146.781 62.3083 146.705 62.3147 146.904 62.3051C148.211 62.2439 149.341 62.5639 150.327 63.4651C152.132 65.1163 152.48 67.4667 152.577 69.8011C152.76 74.1791 151.45 78.7499 149.525 82.6555C148.884 83.9575 148.095 85.2095 147.37 86.4683C146.64 87.7363 145.907 89.2407 144.914 90.3215C145.368 89.2099 145.794 88.0867 146.191 86.9531C147.515 83.0567 147.962 78.3611 146.093 74.5695C145.546 73.7255 144.949 72.9459 144.131 72.3451C142.827 71.3883 141.105 70.9099 139.501 71.1559C135.175 71.8199 132.551 76.0703 130.187 79.3007C131.045 76.7107 132.111 74.2887 133.742 72.0771C136.973 67.6959 140.928 63.2131 146.591 62.3363Z" fill="#8EBA7C"/>
<path d="M158.725 103.027C162.66 100.252 168.231 98.4659 173.045 99.2835C174.91 99.6003 176.997 100.404 178.105 102.033C178.867 103.151 178.779 104.652 178.505 105.917C177.357 111.213 173.366 115.282 168.933 118.103C164.299 121.05 161.143 121.711 156.047 123.141L155.627 122.95C160.302 120.884 167.007 116.589 168.903 111.721C169.521 110.134 169.561 108.414 168.851 106.848C168.059 105.102 166.369 103.719 164.587 103.085C162.689 102.409 160.654 102.569 158.725 103.027Z" fill="#8EBA7C"/>
<path d="M166.726 122.241C167.746 122.097 168.893 122.141 169.916 122.208C173.024 122.411 176.93 123.206 179.042 125.726C179.761 126.584 180.071 127.593 179.964 128.708C179.693 131.54 177.249 133.917 175.153 135.589C171.341 138.63 166.056 141.168 161.181 141.728C159.714 141.896 158.253 141.834 156.788 141.672C155.909 141.605 154.989 141.387 154.115 141.247C158.65 140.449 163.799 138.661 167.108 135.36C168.505 133.965 169.49 132.332 169.477 130.308C169.465 128.549 168.774 127.12 167.527 125.894C164.713 123.125 161.539 123.798 158.008 123.816C160.798 122.969 163.824 122.5 166.726 122.241Z" fill="#8EBA7C"/>
<path d="M163.263 78.2412C164.363 78.1072 165.727 78.1816 166.768 78.588C167.841 78.9976 168.692 79.8412 169.11 80.9112C170.303 83.902 169.013 88.0604 167.774 90.8328C165.74 95.3848 162.797 98.9324 158.599 101.631C157.539 102.312 156.504 102.984 155.322 103.437C157.664 101.307 158.943 100.028 160.748 97.4472C161.381 96.44 161.861 95.472 162.105 94.3C162.509 92.3608 162.409 90.376 161.295 88.6896C160.24 87.094 158.804 86.2264 156.94 85.8468C153.215 85.0884 150.706 86.8708 147.771 88.8256C148.269 88.0304 148.819 87.2692 149.418 86.5468C152.962 82.218 157.563 78.8172 163.263 78.2412Z" fill="#8EBA7C"/>
<path d="M40.4553 139.212L38.1489 138.996C33.2136 138.502 28.6778 137.52 24.5708 134.543C23.406 133.699 22.2747 132.748 21.3673 131.625C20.1097 130.069 19.0679 127.85 19.3324 125.807C19.5322 124.264 20.414 122.925 21.6385 121.991C22.8508 121.066 24.2875 120.642 25.7674 120.367C30.3197 119.522 34.048 120.486 38.4983 121.081L38.1676 121.444C35.5474 121.564 32.6784 122.458 30.8657 124.462C29.8049 125.634 29.195 127.158 29.2753 128.748C29.3907 131.034 30.7395 133.112 32.4127 134.597C34.8047 136.72 37.9753 137.97 41.0217 138.826L41.1049 138.969L41.4425 139.088L41.4113 139.15C41.0945 139.164 40.7685 139.163 40.4553 139.212Z" fill="#8EBA7C"/>
<path d="M112.624 67.5831C114.44 62.1111 117.316 55.4975 122.774 52.7719C124.296 52.0115 126.177 51.5 127.851 52.032C129.166 52.45 130.102 53.3808 130.698 54.6012C133.651 60.6416 132.266 67.6727 130.437 73.7979C130.092 75.3619 129.441 76.9632 128.94 78.4904C129.035 76.7232 129.408 75.03 129.418 73.238C129.223 69.7732 128.518 65.4932 125.796 63.05C124.451 61.842 122.518 61.2519 120.724 61.3575C118.543 61.4859 116.51 62.6232 115.081 64.2424C114.161 65.2852 113.478 66.4923 112.624 67.5831Z" fill="#8EBA7C"/>
<path d="M129.734 72.7588C129.735 73.7232 129.449 74.8756 129.544 75.7764C130.031 75.346 129.855 74.1572 130.437 73.798C130.092 75.362 129.441 76.9632 128.939 78.4904C129.035 76.7232 129.408 75.03 129.418 73.238C129.468 73.4796 129.518 73.7188 129.581 73.9572C129.604 73.5484 129.657 73.1608 129.734 72.7588Z" fill="#8EBA7C"/>
<path d="M82.545 44.7236C83.9522 44.6388 85.3238 44.822 86.4906 45.6864C87.8498 46.712 88.7426 48.2384 88.9706 49.9256C89.3222 52.5384 88.6302 55.1844 87.0442 57.2904C85.5302 59.2948 83.635 59.9604 81.225 60.2996C79.4962 60.3588 77.597 60.196 76.087 59.2716C75.3234 58.8044 74.7022 58.1444 74.5206 57.2468C74.0006 54.6796 75.4794 50.5144 76.9074 48.3856C78.2758 46.3456 80.163 45.2068 82.545 44.7236Z" fill="white"/>
<path d="M83.3183 47.8236C84.0663 47.8184 84.7647 47.9936 85.4047 48.3896C86.5079 49.0724 87.1727 50.3036 87.4255 51.5508C87.7079 52.944 87.4951 54.4536 86.6751 55.6344C85.8971 56.7552 84.8675 57.2168 83.5683 57.4424C82.6571 57.4468 81.9407 57.358 81.1607 56.846C80.1743 56.1988 79.5219 55.122 79.3011 53.9736C79.0251 52.5388 79.3259 50.9856 80.1771 49.7924C80.9519 48.7068 82.0095 48.0296 83.3183 47.8236Z" fill="black"/>
<path d="M84.4065 49.5049C84.5709 49.4973 84.7388 49.4885 84.9032 49.5017C85.3016 49.5345 85.6864 49.7961 85.9144 50.1161C86.1392 50.4313 86.216 50.8289 86.1248 51.2049C86.006 51.7117 85.6757 51.9953 85.2613 52.2733C84.9749 52.3781 84.6948 52.4609 84.3988 52.3425C84.0296 52.1949 83.7504 51.8705 83.604 51.5061C83.4312 51.0765 83.4329 50.5653 83.6125 50.1381C83.7701 49.7645 84.0617 49.6577 84.4065 49.5049Z" fill="white"/>
<path d="M69.8595 54.4387C71.1451 54.2643 72.5843 54.9807 73.6599 55.5931C73.5647 56.1055 73.4483 56.6219 73.3771 57.1375C73.2707 57.9071 73.4003 58.7223 73.9019 59.3363C74.8111 60.4499 77.0935 60.9231 78.4591 61.0591C74.6163 64.5731 71.1543 64.9763 66.2075 64.4623C64.3655 64.2707 62.4887 64.0743 60.6499 64.3919L60.5151 64.4159C58.0299 65.1095 56.4379 66.3103 54.6343 68.1115C55.1775 65.6855 55.8111 63.3763 57.3755 61.3839C59.3475 58.8715 62.4871 57.7939 65.2399 56.4023C66.8367 55.5951 68.0239 54.6571 69.8595 54.4387Z" fill="#F2BA22"/>
<path d="M97.5547 50.1081C98.8571 48.9389 100.146 47.9217 102.015 48.0293C103.698 48.1261 105.213 49.1885 106.282 50.4325C109.752 54.4717 111.46 62.3793 111.05 67.6789C111.016 68.1133 110.967 68.5545 110.873 68.9805C110.694 70.1969 110.264 71.4893 109.797 72.6245C109.808 71.1393 109.915 69.7469 109.762 68.2565C109.317 65.4017 107.92 62.2877 105.534 60.5297C104.189 59.5357 102.495 59.1369 100.849 59.4265C99.7951 59.6121 98.8539 60.1233 98.0807 60.8553C98.3255 56.6401 98.1667 54.2657 97.5547 50.1081Z" fill="#8EBA7C"/>
<path d="M109.763 68.2563L109.85 67.8555C110.173 68.6855 110.157 69.7919 110.237 70.6847C110.382 70.0363 110.578 69.4027 110.768 68.7663C110.895 68.8695 110.854 68.8011 110.874 68.9803C110.694 70.1967 110.264 71.4891 109.797 72.6243C109.809 71.1391 109.915 69.7467 109.763 68.2563Z" fill="#8EBA7C"/>
<path d="M58.0802 87.0023C58.1402 87.1551 58.179 87.3111 58.2222 87.4691L58.103 87.4823C57.401 86.8331 56.8482 85.8859 56.3074 85.0931C54.2078 82.0135 52.3318 78.8511 50.767 75.4663C49.1626 71.9959 47.409 65.6475 48.7934 61.9883C49.2286 60.8383 49.9734 59.8895 51.1262 59.3983C53.151 58.5355 55.2886 59.1283 57.2098 59.9371C55.3086 62.2111 54.2942 64.7031 53.8998 67.6379C53.749 68.7583 53.6998 69.8803 53.5114 70.9979C54.1954 70.4291 54.7646 69.6895 55.3642 69.0331C56.7362 67.5299 58.2878 66.4855 60.1422 65.6603C60.7874 66.5271 61.6086 67.2679 62.3866 68.0135C61.2926 68.2863 60.1982 68.5807 59.1658 69.0407C57.2562 69.8911 55.8666 71.4635 55.1402 73.4207C53.6342 77.4767 55.573 81.8651 57.2746 85.5079L57.5354 85.3115L58.2506 86.6279L58.0802 87.0023Z" fill="#8EBA7C"/>
<path d="M57.5352 85.3115L58.2504 86.6279L58.08 87.0023C57.7548 86.5455 57.5256 86.0087 57.2744 85.5079L57.5352 85.3115Z" fill="black"/>
<path d="M86.1635 168.315C87.4923 168.542 88.8263 168.734 90.1651 168.89C90.1911 171.91 90.9287 174.791 91.4547 177.747C92.2675 177.834 93.1947 178.072 93.8095 178.64C93.8331 178.684 93.8555 178.728 93.8803 178.772C94.2511 179.42 95.2991 179.61 95.3943 180.444L95.3323 180.589C94.5547 180.418 94.0791 179.48 93.2011 179.455C92.7239 179.326 92.2099 179.047 91.7507 178.85C91.8299 180.721 91.8455 182.41 90.8135 184.043C89.7511 185.724 86.7155 188.562 84.6991 188.906C84.4451 188.949 84.3175 188.925 84.1079 188.785C83.9079 188.224 84.0795 187.533 84.3379 187.016C84.9183 185.854 85.9911 184.932 86.7819 183.911C87.7731 182.632 88.5847 181.116 89.2691 179.655C87.9991 181.019 86.8511 182.528 85.5439 183.846C84.0947 185.306 82.1475 186.862 79.9827 186.825C79.5631 186.818 79.3383 186.765 79.0467 186.458C78.9787 186.209 78.9891 186.047 79.0731 185.808C80.0275 183.087 84.6343 181.366 87.0011 180.205C84.3219 180.443 80.8363 182.679 78.1807 183.543C77.5839 183.737 76.9475 183.822 76.3291 183.92C76.5543 183.564 76.7787 183.17 77.0595 182.856C79.3551 180.28 84.9463 178.66 88.3367 178.442C88.0059 176.798 87.5859 175.172 87.2451 173.529C86.8855 171.794 86.6059 170.03 86.1635 168.315Z" fill="#F2BA22"/>
<path d="M104.621 167.752C105.567 171.291 106.767 174.828 107.25 178.474C110.7 178.699 114.368 178.95 117.56 180.393C118.01 180.597 118.618 180.86 118.932 181.247C119.008 181.341 119.054 181.445 119.104 181.554C119.057 181.772 119.064 181.82 118.866 181.95C118.133 182.43 116.628 182.11 115.814 181.902C113.785 181.381 111.75 180.605 109.782 179.884C112.729 182.111 116.604 182.418 119.145 185.479C118.782 186.072 118.491 186.364 117.794 186.516C116.229 186.858 114.367 185.658 113.141 184.824C111.694 183.84 110.333 182.686 109.031 181.519C108.353 180.911 107.653 180.028 106.871 179.582L106.762 179.617C106.902 180.034 107.372 180.483 107.657 180.825C108.263 181.554 108.872 182.277 109.553 182.937C110.745 184.093 114.39 186.902 114.793 188.446C114.574 188.66 114.257 188.676 113.953 188.67C111.78 188.626 107.863 185.774 106.431 184.194C104.963 182.576 104.597 180.944 104.166 178.883L103.654 178.186C103.928 178.102 104.267 178.056 104.452 177.838C103.868 174.694 102.918 171.632 102.363 168.468L104.621 167.752Z" fill="#F2BA22"/>
<path d="M91.9251 96.3296C92.5787 96.3588 93.0715 96.4468 93.6095 96.8404C96.1119 98.67 96.4419 102.78 96.8671 105.598C97.1743 107.637 97.4163 109.686 97.7379 111.721C96.5359 112.147 95.3739 112.612 94.2423 113.202C93.7935 113.452 93.3471 113.705 92.9027 113.962C91.8023 110.819 90.4971 108.138 89.7239 104.812C89.2275 102.676 88.7251 99.6452 90.0247 97.6816C90.4683 97.0116 91.1323 96.4848 91.9251 96.3296Z" fill="#8EBA7C"/>
<path d="M131.456 106.613L132.648 106.604C133.308 106.948 133.909 107.346 134.352 107.957C134.925 108.748 135.109 109.768 134.93 110.722C134.287 114.149 127.887 118.965 124.972 120.924C124.77 120.849 121.949 117.484 121.409 116.98C121.488 116.901 121.564 116.822 121.641 116.741C122.42 115.927 122.985 114.894 123.628 113.971C125.518 111.261 128.228 107.697 131.456 106.613Z" fill="#8EBA7C"/>
<path d="M104.426 94.6131C104.519 94.6111 104.611 94.6107 104.703 94.6123C105.527 94.6267 106.283 95.0327 106.837 95.6339C109.648 98.6855 107.552 106.963 107.47 110.786L107.467 110.942C106.756 110.896 106.037 110.9 105.324 110.885L101.886 110.9C101.665 106.747 100.229 100.508 102.163 96.7063C102.643 95.7619 103.403 94.9475 104.426 94.6131Z" fill="#8EBA7C"/>
<path d="M98.4112 100.986C98.034 97.6899 97.488 94.2735 97.868 90.9611C98.2264 87.8339 99.3276 84.2555 101.911 82.2351C103.056 81.3399 104.548 80.8063 106.006 81.0275C107.351 81.2315 108.458 81.9771 109.254 83.0603C110.878 85.2691 111.3 87.8335 111.569 90.4907C111.68 91.5935 111.794 92.7695 111.624 93.8703C111.581 95.4435 111.353 97.0163 111.203 98.5823C110.851 102.277 110.478 105.833 109.609 109.455C109.493 109.94 109.453 110.551 109.17 110.961L109.027 110.95C108.938 110.698 109.564 104.783 109.693 104.146C109.719 103.147 109.94 102.087 110.086 101.097C110.439 98.6907 110.785 96.3503 110.672 93.9051C110.551 91.3051 110.07 88.5423 108.029 86.7243C107.085 85.8839 105.837 85.3859 104.565 85.4891C103.089 85.6087 101.716 86.4463 100.768 87.5587C98.5452 90.1647 98.7832 93.8463 99.0408 97.0383C99.3152 100.255 99.618 103.469 99.9488 106.681C100.091 108.048 100.496 109.69 100.394 111.039L100.306 111.112C100.148 110.961 100.19 111.05 100.16 110.874C100.027 110.087 99.7476 109.319 99.5888 108.528C99.0908 106.049 98.6572 103.504 98.4112 100.986Z" fill="#F2BA22"/>
<path d="M109.693 104.146C110.054 105.252 109.411 106.582 109.559 107.739L109.693 107.82C109.787 107.684 109.787 107.722 109.806 107.592C110.008 106.249 110.189 104.798 110.487 103.476C110.979 101.297 110.865 95.5296 111.624 93.8704C111.581 95.4436 111.353 97.0164 111.203 98.5824C110.851 102.277 110.478 105.833 109.609 109.455C109.493 109.94 109.453 110.551 109.17 110.962L109.027 110.95C108.938 110.698 109.564 104.783 109.693 104.146Z" fill="#F2BA22"/>
<path d="M99.0407 97.0383C99.3151 100.255 99.6179 103.47 99.9487 106.681C100.091 108.048 100.496 109.69 100.394 111.039L100.306 111.112C100.148 110.962 100.19 111.05 100.16 110.874C100.027 110.087 99.7475 109.319 99.5887 108.528C99.0907 106.049 98.6571 103.504 98.4111 100.986C99.1791 102.112 99.2095 107.09 99.8535 108.866C99.9399 108.577 99.9227 108.22 99.9035 107.92C99.8803 107.556 99.7995 105.837 99.6703 105.6C99.6183 105.504 99.5079 105.456 99.4267 105.384C99.2887 105.054 99.3943 104.607 99.4387 104.256C99.6835 102.31 98.5331 98.9363 99.0407 97.0383Z" fill="#F2BA22"/>
<path d="M137.63 110.09C139.031 107.943 140.705 105.257 140.136 102.558C139.889 101.387 138.986 100.15 137.958 99.5323C136.928 98.9131 135.733 98.8132 134.592 99.1424C133.06 99.5848 131.542 100.76 130.431 101.871C128.893 103.407 127.754 105.245 126.489 106.997C125.395 108.511 124.225 109.966 123.149 111.494C122.433 112.511 121.806 113.575 121.122 114.611C120.886 114.969 120.196 116.07 119.734 115.952C119.619 115.668 119.6 115.56 119.731 115.262C121.186 111.925 123.164 110.103 125.25 107.317C126.449 105.716 127.439 103.983 128.586 102.353C130.599 99.4932 133.387 96.6067 136.729 95.3875C138.089 94.8915 139.608 94.678 140.96 95.3244C141.943 95.7944 142.577 96.6212 142.916 97.6424C143.758 100.18 142.924 103.304 141.725 105.591C140.905 107.154 139.871 108.73 138.675 110.025C137.573 111.462 136.245 113.444 134.548 114.211C134.851 113.626 135.309 112.562 135.834 112.192C136.205 112.107 136.226 112.006 136.458 111.717L136.674 111.44C136.984 110.982 137.331 110.559 137.63 110.09Z" fill="#F2BA22"/>
<path d="M136.457 111.717C136.461 111.893 136.44 111.947 136.531 112.103C137.327 111.922 137.898 110.455 138.675 110.025C137.572 111.462 136.245 113.444 134.548 114.211C134.851 113.626 135.309 112.562 135.834 112.192C136.204 112.107 136.225 112.006 136.457 111.717Z" fill="#F2BA22"/>
<path d="M117.037 100.518C117.596 100.531 118.029 100.587 118.525 100.865C119.351 101.329 119.805 102.076 120.062 102.969C120.281 103.741 120.341 104.55 120.24 105.346C120.025 107.149 118.274 112.428 117.393 114.022L115.528 113.136C114.263 112.474 112.789 112.054 111.445 111.579C112.275 108.892 112.623 106.062 113.875 103.51C114.573 102.089 115.497 101.04 117.037 100.518Z" fill="#8EBA7C"/>
<path d="M63.4394 115.873C59.7366 112.498 55.983 108.341 54.4318 103.487C53.6758 101.122 53.3154 98.3308 54.5146 96.0432C55.0374 95.046 55.843 94.22 56.9458 93.8984C58.3666 93.484 59.8994 93.9308 61.1658 94.6008C63.6618 95.922 66.6814 98.9948 67.511 101.738C66.935 101.346 66.5086 100.784 66.0342 100.281C64.8158 98.9896 63.3302 97.9948 61.5334 97.738C60.3074 97.5628 58.9918 97.8816 58.015 98.6528C57.0426 99.4208 56.4918 100.636 56.3382 101.848C55.9474 104.939 57.9642 108.212 59.7734 110.543L59.8514 110.346C59.8898 110.37 59.929 110.393 59.9674 110.418C60.5074 110.766 60.6398 111.307 61.3578 111.368C61.5554 111.225 61.5786 111.203 61.671 110.978C62.0854 111.461 62.3454 112.155 62.7578 112.585C63.0118 112.851 63.369 112.741 63.5446 113.086L63.4426 113.414C63.2442 113.456 63.0094 113.446 62.8282 113.521L63.7194 114.372C63.6022 114.868 63.5226 115.37 63.4394 115.873Z" fill="#F2BA22"/>
<path d="M59.8514 110.346C59.8898 110.37 59.929 110.393 59.9674 110.418C60.5074 110.766 60.6398 111.307 61.3578 111.368C61.5554 111.225 61.5786 111.203 61.671 110.978C62.0854 111.461 62.3454 112.155 62.7578 112.585C63.0118 112.851 63.369 112.741 63.5446 113.086L63.4426 113.414C63.2442 113.456 63.0094 113.446 62.8282 113.521C61.6246 112.794 60.683 111.596 59.7734 110.543L59.8514 110.346Z" fill="#0B8DCB"/>
<path d="M134.885 120.533C135.415 120.453 136.148 120.39 136.663 120.535C137.532 120.78 138.257 121.345 138.653 122.164C139.011 122.904 139.023 123.761 138.75 124.53C137.806 127.186 133.566 128.819 131.17 129.94C130.652 130.167 130.129 130.33 129.588 130.494C128.966 128.333 128.184 126.305 127.228 124.27C129.525 122.695 132.108 121.018 134.885 120.533Z" fill="#8EBA7C"/>
<path d="M51.1553 120.627C51.2233 121.623 51.5245 122.504 51.9945 123.378C53.2105 125.638 56.4065 128.296 58.8485 129.015C59.5493 129.221 60.4165 129.372 60.9105 129.946C60.9709 130.211 60.9689 130.22 60.8585 130.469C59.3637 130.591 55.3753 128.507 53.9453 127.65C51.2257 126.021 47.9441 123.354 47.1713 120.11C46.8661 118.828 46.9901 117.281 47.7189 116.158C48.4349 115.056 49.6953 114.458 50.9529 114.224C54.5361 113.554 58.9633 115.493 61.8537 117.501C62.2209 117.756 62.8685 118.14 62.9497 118.59L62.8901 118.651C62.6329 118.73 62.4057 118.724 62.1529 118.628C61.7593 118.478 61.3633 118.22 60.9857 118.029C59.6493 117.356 58.2817 116.734 56.7805 116.553C55.2485 116.368 53.8149 116.792 52.6137 117.748C52.1585 118.038 51.8893 118.478 51.5637 118.897C51.4561 119.227 51.3325 119.558 51.2545 119.896L51.1553 120.627Z" fill="#F2BA22"/>
<path d="M51.1551 120.627C51.0691 120.742 51.0498 120.92 51.0406 121.058C51.0378 121.1 51.0374 121.143 51.0358 121.185L51.0298 121.183C50.9818 120.757 50.9563 120.332 50.9315 119.904C50.8083 119.738 50.6974 119.567 50.5854 119.393C50.667 119.173 50.8714 119.454 51.1294 119.319C51.149 119.134 51.1615 119.007 51.2335 118.834L51.5634 118.897C51.4558 119.227 51.3323 119.558 51.2543 119.896L51.1551 120.627Z" fill="#F2BA22"/>
<path d="M50.9823 118.448C51.0359 118.559 51.0607 118.674 51.0927 118.792L50.9187 118.953C50.8119 118.914 50.8667 118.95 50.7847 118.811L50.9823 118.448Z" fill="#F2BA22"/>
<path d="M99.3786 95.3881C98.821 93.4445 99.283 90.5613 100.272 88.8037C101.023 87.4681 101.981 86.4597 103.509 86.0421C104.733 85.7081 105.929 85.8333 107.023 86.4909C108.583 87.4297 109.435 89.2025 109.821 90.9229C110.128 92.2917 110.38 94.9189 110.127 96.2761C110.017 96.5801 109.912 96.8861 109.813 97.1945C109.682 96.9049 109.575 96.6241 109.352 96.3913L108.973 95.4613L108.731 95.8801L108.539 95.2893C108.389 94.9637 108.185 94.6713 107.989 94.3721L108.277 94.2737C107.46 93.2409 106.466 92.2745 105.081 92.1445C103.984 92.0417 102.949 92.5421 102.141 93.2473C101.319 93.9633 100.871 94.8501 100.349 95.7809C100.292 95.8129 100.229 95.8365 100.178 95.8777C100.019 96.0049 100.026 96.0961 99.805 96.1849C99.707 95.9541 99.6142 95.7241 99.4706 95.5173C99.4406 95.4737 99.4094 95.4313 99.3786 95.3881Z" fill="#0B8DCB"/>
<path d="M108.277 94.2737C108.566 94.6029 108.863 95.0349 108.974 95.4613L108.732 95.8801L108.54 95.2893C108.389 94.9637 108.185 94.6713 107.989 94.3721L108.277 94.2737Z" fill="black"/>
<path d="M83.6242 18.7458C84.013 17.4603 84.385 16.1972 85.6854 15.542C86.3086 15.2278 87.063 15.1204 87.7342 15.3414C88.3702 15.5507 89.0114 16.1022 89.3114 16.7022C89.409 16.8982 89.4794 17.1083 89.5542 17.3138L89.6754 17.6473C89.5698 18.2316 89.4838 18.8222 89.175 19.3413C89.1582 19.3796 89.1414 19.418 89.1242 19.4561C88.583 20.6444 87.7582 21.6855 87.2094 22.8668C85.441 26.6752 84.965 31.0381 84.861 35.1849C84.3806 35.0518 83.9014 34.9112 83.4186 34.7879C83.1994 31.8072 83.083 28.8198 83.0698 25.831C83.0638 24.8019 82.9782 23.5984 83.1814 22.5885C83.2066 21.2964 83.355 20.0098 83.6242 18.7458Z" fill="#FA3948"/>
<path d="M83.624 18.7458C84.0128 17.4603 84.3848 16.1972 85.6852 15.542C86.3084 15.2278 87.0628 15.1204 87.734 15.3414C88.37 15.5507 89.0112 16.1022 89.3112 16.7022C89.4088 16.8982 89.4792 17.1083 89.554 17.3138L89.6752 17.6473C89.5696 18.2316 89.4836 18.8222 89.1748 19.3413C88.8888 18.8867 88.9672 18.2249 88.7936 17.7132C88.64 17.2608 88.2328 16.8914 87.7996 16.7068C87.296 16.4922 86.7284 16.5371 86.2288 16.7384C85.2596 17.1291 84.5568 17.968 84.1524 18.906L83.9116 18.9834L83.624 18.7458Z" fill="white"/>
<path d="M83.1812 22.5885C83.2064 21.2965 83.3548 20.0098 83.624 18.7458L83.9116 18.9835L84.1523 18.906C83.8507 20.0734 83.8 21.3714 83.3872 22.4945L83.1812 22.5885Z" fill="#FA3948"/>
<path d="M88.8329 22.0335C89.3889 20.7394 90.3905 19.4074 91.5829 18.6362C92.2577 18.1997 93.2281 17.8598 94.0369 18.062C94.6545 18.2164 95.2041 18.6701 95.5445 19.1952C95.8085 19.9753 95.7777 20.825 95.4573 21.5838C95.4401 21.6082 95.4237 21.6328 95.4057 21.6569C94.5985 22.7569 93.3205 23.5057 92.3565 24.4659C89.3041 27.5055 87.5169 31.6909 87.0109 35.9253L85.5117 35.1987C85.5325 30.9859 86.4585 25.566 88.8329 22.0335Z" fill="#FA3948"/>
<path d="M88.833 22.0335C89.389 20.7394 90.3906 19.4074 91.583 18.6362C92.2578 18.1997 93.2282 17.8598 94.037 18.062C94.6546 18.2164 95.2042 18.6701 95.5446 19.1952L95.1926 19.7052L95.2122 19.7488C94.953 19.7984 94.961 19.5955 94.7538 19.736C94.0774 19.2711 93.4938 18.9369 92.6346 19.104C91.1286 19.397 89.3618 22.1395 88.983 22.1779L88.833 22.0335Z" fill="white"/>
<path d="M94.7534 19.736C94.9606 19.5955 94.9526 19.7984 95.2118 19.7488L95.1922 19.7052L95.5442 19.1952C95.8082 19.9753 95.7774 20.825 95.457 21.5838C95.383 21.4318 95.3986 21.4863 95.3634 21.3408C95.2178 20.7411 95.1126 20.2522 94.7534 19.736Z" fill="white"/>
<path d="M112.455 98.2987C113.406 94.9423 115.136 91.3743 118.311 89.6015C119.745 88.8015 121.494 88.4355 123.095 88.9111C124.391 89.2959 125.415 90.1959 126.03 91.3927C127.364 93.9891 126.665 97.6015 125.809 100.24C125.798 100.275 125.785 100.31 125.773 100.345C125.477 102.245 124.305 104.147 123.393 105.823L123.037 105.388C123.803 103.611 124.519 101.762 124.879 99.8563C125.038 98.6275 125.029 97.4871 124.637 96.2975C124.165 94.8643 123.197 93.6619 121.832 92.9971C120.693 92.4427 119.409 92.3223 118.214 92.7691C115.609 93.7435 114.218 96.3855 113.168 98.7743L113.019 98.6775C112.995 98.7243 112.925 98.8579 112.909 98.8991C112.797 99.1915 112.666 99.3255 112.45 99.5503C112.53 99.1883 112.593 98.7995 112.494 98.4339C112.482 98.3883 112.468 98.3439 112.455 98.2987Z" fill="#F2BA22"/>
<path d="M123.037 105.388C123.803 103.611 124.518 101.762 124.879 99.8564C124.891 99.8884 124.903 99.92 124.914 99.952C125.229 100.856 124.134 102.325 124.652 102.946L124.624 102.82L124.729 102.792C124.826 102.574 124.923 102.358 125.031 102.144C125.197 101.818 125.415 100.42 125.676 100.346C125.707 100.337 125.741 100.346 125.773 100.345C125.477 102.245 124.305 104.147 123.393 105.823L123.037 105.388Z" fill="#F2BA22"/>
<path d="M94.8181 23.8308C95.6885 23.3678 96.6993 23.09 97.6729 23.3748C98.4193 23.5932 99.0437 24.1363 99.3969 24.8256C99.7209 25.4576 99.7945 26.1851 99.5557 26.8584C99.3405 27.4667 98.9309 27.9066 98.4169 28.2794C97.3941 28.9272 96.1897 29.3376 95.1001 29.8688C92.0517 31.3545 90.0569 33.8768 88.4617 36.8064C88.1585 36.5089 87.8229 36.2416 87.4985 35.9673C88.0845 32.3761 89.7929 28.2394 92.4049 25.6445C93.1433 24.9573 93.9101 24.2841 94.8181 23.8308Z" fill="#FA3948"/>
<path d="M94.8181 23.8308C95.6885 23.3678 96.6993 23.09 97.6729 23.3748C98.4193 23.5932 99.0437 24.1363 99.3969 24.8256C99.7209 25.4576 99.7945 26.1851 99.5557 26.8584C99.3405 27.4667 98.9309 27.9066 98.4169 28.2794C98.4093 27.3737 98.7533 26.5361 98.7037 25.5949C98.3733 25.063 98.0105 24.6385 97.4317 24.3676C96.6097 23.9827 95.7453 24.1375 94.9165 24.4159C94.8913 24.4047 94.8673 24.3894 94.8405 24.3824C94.6673 24.3374 94.6281 24.3633 94.4653 24.2576L94.8181 23.8308Z" fill="white"/>
<path d="M92.4048 25.6445C93.1432 24.9574 93.91 24.2841 94.818 23.8308L94.4652 24.2577C94.628 24.3633 94.6672 24.3375 94.8404 24.3825C94.8672 24.3894 94.8912 24.4048 94.9164 24.4159C94.8804 24.4338 94.8436 24.4511 94.808 24.4695C93.9852 24.8913 93.2608 25.539 92.5512 26.1275C92.4556 25.9557 92.4252 25.8398 92.4048 25.6445Z" fill="#FA3948"/>
<path d="M77.0731 19.796C77.0627 18.6505 77.1375 17.614 78.0167 16.7652C78.5683 16.2324 79.3219 15.9168 80.0927 15.9493C80.7487 15.977 81.3559 16.2516 81.7995 16.7378C82.4143 17.4116 82.5923 18.3466 82.5359 19.2307C82.0715 24.4412 82.4351 29.5997 82.9307 34.7972C82.3707 34.7862 81.8071 34.7619 81.2475 34.7767C81.2243 31.5509 80.5823 28.4428 79.1427 25.5392C78.5139 24.2712 77.5719 22.8452 77.3319 21.4424C77.2059 20.8913 77.1255 20.3588 77.0731 19.796Z" fill="#FA3948"/>
<path d="M77.0731 19.796C77.0627 18.6505 77.1375 17.614 78.0167 16.7652C78.5683 16.2324 79.3219 15.9168 80.0927 15.9493C80.7487 15.977 81.3559 16.2516 81.7995 16.7378C82.4143 17.4116 82.5923 18.3466 82.5359 19.2307C81.9679 18.4123 81.4675 17.4418 80.4023 17.232C79.8559 17.1243 79.3119 17.2775 78.8607 17.5926C78.1159 18.1125 77.7475 18.8542 77.6099 19.7311C77.5967 19.817 77.5847 19.9031 77.5739 19.9894C77.3507 19.969 77.2671 19.9037 77.0731 19.796Z" fill="white"/>
<path d="M77.0732 19.796C77.2672 19.9037 77.3508 19.969 77.574 19.9894C77.6188 20.4 77.7144 20.8399 77.5996 21.2425L77.332 21.4425C77.206 20.8913 77.1256 20.3589 77.0732 19.796Z" fill="#FA3948"/>
<path d="M112.882 101.292C113.464 98.4795 114.792 95.2867 117.287 93.6379C118.318 92.9567 119.496 92.7383 120.702 93.0179C121.866 93.2879 122.85 93.9555 123.472 94.9815C124.576 96.8051 124.593 98.8799 124.064 100.888C123.701 102.265 123.262 103.769 122.673 105.064C122.209 104.642 122.382 102.717 122.217 101.993C121.773 100.568 121.042 99.3483 119.671 98.6303C118.622 98.0807 117.362 98.0123 116.244 98.3843C114.739 98.8843 113.836 100.111 112.882 101.292Z" fill="#0B8DCB"/>
<path d="M59.8513 110.347C58.2009 107.983 56.1489 104.514 56.6893 101.504C56.8801 100.44 57.3905 99.5061 58.3073 98.9037C59.3297 98.2321 60.6765 97.9229 61.8729 98.2093C63.9821 98.7141 65.6589 100.681 67.1093 102.175L66.6969 103.933C65.1885 103.142 63.6453 102.012 61.8353 102.567C61.2169 102.756 60.7805 103.187 60.5029 103.762C59.7557 105.309 60.0557 107.335 60.6429 108.881C60.9137 109.594 61.2637 110.333 61.6709 110.979C61.5785 111.203 61.5553 111.225 61.3577 111.368C60.6397 111.307 60.5073 110.767 59.9673 110.418C59.9289 110.393 59.8897 110.37 59.8513 110.347Z" fill="#0B8DCB"/>
<path d="M137.791 115.076C140.333 113.837 144.955 112.665 147.735 113.613C148.919 114.016 150.009 114.831 150.551 115.979C151.074 117.086 150.95 118.257 150.524 119.367C149.786 121.293 148.107 123.009 146.513 124.261C146.522 124.197 146.521 124.131 146.54 124.07C146.629 123.797 147.078 123.335 147.339 123.239C147.391 123.22 147.444 123.205 147.496 123.188C147.529 122.898 147.431 122.672 147.267 122.433C147.126 122.229 147.115 122.154 146.865 122.105C146.567 122.295 146.426 122.601 146.229 122.883C146.013 123.191 145.889 123.326 145.525 123.387C145.757 123.102 145.982 122.812 146.2 122.517C146.929 121.51 147.355 120.228 147.124 118.986C146.917 117.872 146.189 116.945 145.247 116.343C143.518 115.24 141.093 115.614 139.204 116.054C136.353 116.943 133.925 118.426 131.237 119.655C131.239 119.625 131.232 119.593 131.243 119.565C131.451 119.017 131.25 119.694 131.363 119.295C131.202 119.291 131.045 119.268 130.886 119.249C132.856 117.576 135.365 115.969 137.791 115.076Z" fill="#F2BA22"/>
<path d="M130.886 119.249C132.856 117.576 135.365 115.969 137.791 115.076C137.452 115.698 132.935 117.342 132.227 118.626L132.272 118.756C133.815 118.678 137.377 115.64 139.204 116.054C136.353 116.943 133.925 118.426 131.237 119.655C131.239 119.625 131.232 119.593 131.243 119.565C131.451 119.018 131.25 119.694 131.363 119.295C131.202 119.291 131.045 119.268 130.886 119.249Z" fill="#F2BA22"/>
<path d="M127.358 106.562C129.271 103.741 131.638 99.9237 135.33 99.2589C136.22 99.0985 137.036 99.3077 137.755 99.8529C138.713 100.58 139.534 101.917 139.675 103.112C139.88 104.848 139.076 106.646 138.226 108.109C137.95 108.582 137.583 109.072 137.375 109.575C137.363 109.572 137.349 109.574 137.339 109.568C137.066 109.4 136.929 108.392 136.819 108.056L136.786 107.957C136.415 106.66 135.601 105.668 134.42 105.019C133.328 104.419 131.914 104.241 130.717 104.603C129.488 104.974 128.512 106.01 127.358 106.562Z" fill="#0B8DCB"/>
<path d="M136.182 144.431C137.769 143.827 139.57 143.085 140.284 141.417C140.695 140.458 140.682 139.322 140.278 138.364C139.778 137.177 138.753 136.434 137.582 135.995C136.434 135.564 135.197 135.472 133.979 135.478C133.08 135.483 130.71 136.078 130.074 135.539C130.138 135.298 130.242 135.185 130.452 135.045C132.032 133.995 138.353 134.14 140.285 134.672C141.777 135.084 143.327 135.845 144.097 137.258C144.56 138.107 144.701 139.131 144.42 140.061C143.97 141.552 142.586 142.582 141.254 143.261C138.672 144.577 135.97 145.321 133.14 145.868L132.883 145.796C132.7 145.652 132.691 145.473 132.64 145.257L131.574 145.377C131.647 145.281 131.721 145.185 131.796 145.09C132.029 144.797 132.097 144.695 132.483 144.649C133.198 144.202 134.002 143.873 134.733 143.436C134.954 143.837 135.135 143.976 135.57 144.141L135.732 144.116C135.901 144.276 135.96 144.351 136.182 144.431Z" fill="#F2BA22"/>
<path d="M132.483 144.649C133.198 144.202 134.002 143.873 134.733 143.436C134.955 143.837 135.135 143.976 135.57 144.141L135.732 144.116C135.901 144.276 135.961 144.351 136.183 144.431C135.011 144.744 133.829 145.019 132.64 145.257L131.574 145.377C131.647 145.281 131.721 145.185 131.796 145.09C132.03 144.797 132.097 144.695 132.483 144.649Z" fill="black"/>
<path d="M132.483 144.649C133.198 144.202 134.002 143.873 134.733 143.436C134.955 143.837 135.135 143.976 135.57 144.141C134.738 144.41 133.324 145.036 132.483 144.649Z" fill="#0B8DCB"/>
<path d="M133.859 118.766C136.684 117.13 139.859 115.912 143.15 115.981C144.123 115.975 144.818 116.296 145.524 116.971C146.229 117.644 146.778 118.55 146.783 119.549C146.785 120.033 146.66 120.541 146.452 120.976C145.011 123.664 142.705 125.464 139.95 126.68L140.415 126.109L140.527 125.975C141.348 124.972 141.826 123.49 141.666 122.203C141.527 121.05 140.914 120.006 139.974 119.323C138.114 117.976 135.952 118.446 133.859 118.766Z" fill="#0B8DCB"/>
<path d="M52.6136 117.748C52.6756 117.745 52.7372 117.744 52.7988 117.74C53.594 117.683 54.4512 117.064 55.2916 116.913C57.4236 116.53 60.6072 118.137 62.2144 119.444C62.392 119.588 62.542 119.728 62.6492 119.933L62.5968 120.177L62.4632 120.095L62.452 120.253C60.8844 120.551 60.052 118.944 57.704 119.742C57.116 119.942 56.5916 120.278 56.2376 120.796C55.69 121.598 55.6004 122.636 55.8004 123.566C56.072 124.831 56.7704 125.896 57.5452 126.908C57.5576 126.96 57.5696 127.014 57.5828 127.067C57.63 127.256 57.7096 127.402 57.8092 127.57C57.7724 127.584 57.7352 127.598 57.6984 127.612C57.5828 127.659 57.4892 127.709 57.3844 127.774C56.5648 127.418 55.736 126.852 55.0088 126.33C52.8028 124.749 51.7 122.537 51.2544 119.896C51.3324 119.558 51.456 119.227 51.5636 118.897C51.8892 118.478 52.1584 118.038 52.6136 117.748Z" fill="#0B8DCB"/>
<path d="M67.9891 43.0083C68.1411 43.0107 68.2927 43.0099 68.4427 43.0395C69.1727 43.1831 69.7791 43.6951 70.1875 44.2967C71.2651 45.8855 71.3239 48.0859 70.9943 49.9127L70.9103 49.8891C70.6759 49.1247 70.6387 48.1087 70.2407 47.4287C69.8863 46.8231 69.1283 46.2239 68.4311 46.0903C67.7359 45.9571 67.0591 46.1839 66.4935 46.5871C65.5595 47.2667 64.9383 48.2931 64.7695 49.4359C64.5707 50.7027 64.8043 51.8651 65.5519 52.9191C66.1567 53.4931 66.7487 53.8431 67.5211 54.1459C66.2283 55.2423 64.6915 55.6311 63.1891 56.3387C62.1491 53.0507 62.4107 49.7199 63.9983 46.6299C64.8863 44.9015 66.1119 43.6167 67.9891 43.0083Z" fill="white"/>
<path d="M75.5003 64.5528L77.4811 63.2456C77.0947 63.8924 76.7199 64.5516 76.2743 65.16C75.7919 65.9068 75.2091 66.6312 74.5651 67.2448C72.9575 68.7764 70.9723 69.602 68.7459 69.5248C65.5583 69.414 63.3303 67.6112 61.2383 65.3832C65.0511 65.3672 68.8467 66.5244 72.6311 65.59C73.6083 65.3484 74.5695 64.9336 75.5003 64.5528Z" fill="#F2BA22"/>
<path d="M75.5 64.5528L77.4808 63.2456C77.0944 63.8924 76.7196 64.5516 76.274 65.16C76.2852 64.874 76.394 64.704 76.3356 64.4068C76.0576 64.4584 75.7788 64.5072 75.5 64.5528Z" fill="#F2BA22"/>
<path d="M88.3691 88.5256C88.6447 88.4672 88.9215 88.412 89.1987 88.3604C90.4035 88.1356 91.4927 88.3312 92.5027 89.0532C94.2779 90.322 95.2147 92.7728 95.5579 94.846C95.3887 95.2044 95.2407 95.236 94.9051 95.432C94.5323 95.1088 94.0923 94.7832 93.6523 94.5592C92.6931 94.0708 91.6483 93.9204 90.6151 94.2696C88.9995 94.8156 88.2043 96.1448 87.5039 97.5784C87.6383 94.5728 87.7555 91.4796 88.3691 88.5256Z" fill="#0B8DCB"/>
<path d="M58.1576 143.685C58.1376 143.684 58.1176 143.686 58.0984 143.683C56.5536 143.457 54.892 142.356 53.9404 141.139C53.122 140.093 52.706 138.834 52.8928 137.504C53.0572 136.337 53.6904 135.287 54.6468 134.597C55.9748 133.626 58.2964 133.112 59.9124 133.393C60.2412 133.451 60.4476 133.547 60.6528 133.822C60.7352 134.113 60.7416 134.245 60.6768 134.541C60.3416 134.731 59.9308 134.723 59.5556 134.784C58.4156 134.968 57.4604 135.632 56.796 136.557C56.2432 137.275 55.914 138.14 56.0132 139.056C56.048 139.378 56.1344 139.678 56.2428 139.981C56.69 141.14 57.1724 141.837 58.194 142.567C58.9868 142.868 61.3356 143.424 61.8444 143.999L61.7736 144.116C60.6572 144.236 59.228 144.015 58.1576 143.685Z" fill="#F2BA22"/>
<path d="M58.1941 142.567C58.9869 142.868 61.3357 143.424 61.8445 143.999L61.7737 144.116C60.6573 144.236 59.2281 144.015 58.1577 143.685C58.8617 143.518 59.5885 143.874 60.3397 143.772L60.3521 143.646C59.7245 143.236 58.9021 143.035 58.2041 142.748L58.1941 142.567Z" fill="#F2BA22"/>
<path d="M89.1397 83.7595C90.2981 83.9035 91.1161 84.0391 92.0733 84.7515C94.0077 86.1463 95.7297 89.3751 96.1329 91.6875C96.1409 91.7323 96.1465 91.7775 96.1533 91.8227C96.5729 92.9855 96.6817 94.4163 96.8853 95.6391C97.6073 99.9787 98.2281 104.396 98.5661 108.784C98.5381 108.822 98.5077 108.858 98.4813 108.897C98.3597 109.076 98.3253 109.215 98.2701 109.42L97.9629 108.905C97.3297 105.904 97.2101 102.823 96.8729 99.7851C96.5589 97.1811 96.0469 94.6047 95.3413 92.0787C95.1537 91.8303 95.0509 91.4507 94.8961 91.1679C94.5253 90.4895 94.0821 89.8887 93.5801 89.3007C91.9053 88.0431 90.4757 87.8863 88.4429 87.9295C88.6813 86.5387 88.8677 85.1455 89.1397 83.7595Z" fill="#F2BA22"/>
<path d="M89.1397 83.7595C90.2981 83.9035 91.1161 84.0391 92.0733 84.7515L91.8785 84.8099L91.7157 84.7067C91.5537 84.6055 91.3921 84.5235 91.2173 84.4459L91.0973 84.5259C91.0449 84.8139 91.0313 84.9227 91.1557 85.2019C91.4221 85.4595 91.6677 85.4999 92.0281 85.5027C92.0745 85.5031 92.1213 85.4999 92.1681 85.4987C92.7217 86.3231 93.3281 87.1363 93.7149 88.0547C93.4865 88.2079 93.4005 87.9539 93.1213 88.2115C93.0981 88.3655 93.0625 88.5195 93.0697 88.6755L93.2365 88.6811L93.1881 88.7831C93.2253 88.8119 93.2637 88.8383 93.2989 88.8691C93.4537 89.0039 93.5013 89.1175 93.5801 89.3007C91.9053 88.0431 90.4757 87.8863 88.4429 87.9295C88.6813 86.5387 88.8677 85.1455 89.1397 83.7595Z" fill="#F2BA22"/>
<path d="M93.5801 89.3008C93.5013 89.1176 93.4537 89.004 93.2989 88.8692C93.2637 88.8384 93.2253 88.812 93.1881 88.7832L93.2365 88.6812L93.0697 88.6756C93.0625 88.5196 93.0981 88.3656 93.1213 88.2116C93.4005 87.954 93.4865 88.208 93.7149 88.0548C93.3281 87.1364 92.7217 86.3232 92.1681 85.4988C92.1213 85.5 92.0745 85.5032 92.0281 85.5028C91.6677 85.5 91.4221 85.4596 91.1557 85.202C91.0313 84.9228 91.0449 84.814 91.0973 84.526L91.2173 84.446C91.3921 84.5236 91.5537 84.6056 91.7157 84.7068L91.8785 84.81L92.0733 84.7516C94.0077 86.1464 95.7297 89.3752 96.1329 91.6876C96.1409 91.7324 96.1465 91.7776 96.1533 91.8228L96.0353 91.9472C96.2805 93.334 96.7385 94.8956 96.6417 96.2952C96.2389 95.2612 96.1125 92.6924 95.3413 92.0788C95.1537 91.8304 95.0509 91.4508 94.8961 91.168C94.5253 90.4896 94.0821 89.8888 93.5801 89.3008Z" fill="#F2BA22"/>
<path d="M111.869 105.495C112.049 104.953 112.238 104.414 112.437 103.879C113.167 101.936 114.093 99.8673 116.135 98.9985C117.15 98.5729 118.293 98.5681 119.311 98.9849C120.751 99.5901 121.247 100.725 121.777 102.079C122.192 102.686 121.956 103.397 122.145 104.084C122.201 103.449 122.009 102.65 122.188 102.079C122.197 102.05 122.208 102.022 122.217 101.993C122.382 102.717 122.209 104.642 122.673 105.064C122.732 105.775 122.042 106.136 122.373 106.922C122.624 106.431 122.822 105.897 123.037 105.388L123.393 105.823C123.013 106.653 122.63 107.805 122.047 108.497L121.768 108.508C121.42 109.001 120.925 110.906 120.467 111.095C120.474 110.848 120.483 110.605 120.511 110.359L120.328 110.079C119.687 111.781 118.913 113.481 117.963 115.032C118.45 112.613 119.36 110.339 120.14 108.009C120.777 106.104 121.2 103.837 120.214 101.962C119.779 101.134 118.953 100.376 118.039 100.123C117.281 99.9137 116.526 100.085 115.855 100.47C113.808 101.645 112.624 104.622 112.073 106.809L111.816 107.017L111.698 106.973C111.613 106.55 111.913 106.112 111.885 105.667C111.882 105.609 111.875 105.552 111.869 105.495Z" fill="#F2BA22"/>
<path d="M122.217 101.993C122.382 102.717 122.209 104.642 122.673 105.063C122.732 105.775 122.042 106.136 122.372 106.921C122.624 106.431 122.822 105.896 123.037 105.388L123.393 105.823C123.012 106.653 122.63 107.805 122.047 108.496L121.768 108.507C121.42 109.001 120.925 110.905 120.467 111.095C120.474 110.847 120.482 110.605 120.51 110.359L120.328 110.079C120.932 107.331 121.871 104.949 121.777 102.079C122.192 102.686 121.956 103.397 122.144 104.084C122.201 103.448 122.008 102.649 122.188 102.079C122.197 102.05 122.208 102.021 122.217 101.993Z" fill="black"/>
<path d="M123.037 105.388L123.393 105.823C123.012 106.653 122.63 107.805 122.047 108.496C121.861 108.08 122.239 107.436 122.352 107.001L122.372 106.922C122.624 106.431 122.822 105.896 123.037 105.388Z" fill="#F2BA22"/>
<path d="M131.314 136.235C133.376 135.706 136.389 135.701 138.267 136.809C139.126 137.315 139.816 138.063 140.047 139.053C140.248 139.913 140.126 140.847 139.648 141.596C138.795 142.932 137.16 143.602 135.732 144.116L135.57 144.141C135.135 143.975 134.954 143.837 134.733 143.435C135.532 142.735 136.251 141.894 136.326 140.783C136.389 139.851 135.969 138.957 135.348 138.28C134.323 137.165 132.761 136.559 131.314 136.235Z" fill="#0B8DCB"/>
<path d="M56.796 136.557C56.856 136.533 56.916 136.51 56.9756 136.485C58.3748 135.907 58.9872 135.168 60.6224 135.026C60.6572 136.105 60.668 137.199 60.794 138.272C60.986 139.912 61.3436 141.534 61.4852 143.18C59.9228 142.793 58.3704 142.416 57.2368 141.186C56.8844 140.804 56.6088 140.35 56.2428 139.981C56.1344 139.678 56.048 139.378 56.0132 139.056C55.914 138.14 56.2432 137.275 56.796 136.557Z" fill="#0B8DCB"/>
<path d="M136.21 119.038C136.853 118.968 137.579 118.964 138.212 119.099C139.198 119.31 140.071 119.864 140.62 120.718C141.204 121.628 141.32 122.712 141.073 123.752C140.653 125.53 139.337 126.851 137.801 127.744C136.665 128.404 130.662 131.53 129.776 131.301C129.829 131.05 129.965 130.911 130.189 130.79C130.737 130.492 131.377 130.341 131.95 130.093C133.815 129.285 135.596 128.419 137.251 127.228C138.367 126.388 139.313 125.176 139.485 123.755C139.594 122.866 139.392 121.994 138.803 121.306C135.191 117.09 127.946 124.046 126.665 123.936L126.603 123.794C126.627 123.679 126.66 123.592 126.737 123.501C127.053 123.129 127.578 122.843 127.981 122.571C130.164 121.096 133.582 119.31 136.21 119.038Z" fill="#F2BA22"/>
<path d="M123.065 112.745C123.51 111.978 124.184 111.262 124.749 110.581C126.375 108.624 128.418 105.895 130.959 105.136C132.19 104.768 133.456 104.931 134.563 105.576C135.79 106.291 136.301 107.334 136.624 108.66L136.745 108.602L136.786 107.957L136.819 108.056C136.929 108.392 137.065 109.4 137.339 109.568C137.349 109.574 137.363 109.572 137.375 109.575C137.441 109.799 137.438 109.943 137.629 110.09C137.33 110.559 136.984 110.982 136.673 111.44L136.457 111.717C136.225 112.006 136.204 112.107 135.834 112.192C135.309 112.562 134.851 113.626 134.548 114.211L134.298 114.417L134.187 114.274C134.579 113.721 135.16 113.066 135.409 112.447C135.533 112.138 135.708 111.852 135.871 111.561C135.279 111.925 135.1 112.582 134.698 113.145C134.456 113.484 134.15 113.942 133.738 114.008C134.549 112.871 135.36 111.746 135.486 110.308C135.583 109.174 135.201 108.051 134.433 107.211C133.815 106.531 133.053 106.165 132.133 106.145C129.144 106.081 126.697 109.434 125.017 111.515C124.597 112.035 124.165 112.674 123.673 113.122C123.641 113.152 123.608 113.181 123.575 113.21C122.615 114.5 121.892 115.996 120.537 116.921C121.135 115.408 122.11 114.052 123.065 112.745Z" fill="#F2BA22"/>
<path d="M123.065 112.745L123.133 112.964L123.021 113.123C122.779 113.47 122.559 113.832 122.471 114.248L122.568 114.236C122.874 113.842 123.191 113.456 123.444 113.024C123.49 113.085 123.542 113.142 123.575 113.21C122.615 114.5 121.892 115.996 120.537 116.921C121.135 115.408 122.11 114.052 123.065 112.745Z" fill="#F2BA22"/>
<path d="M136.786 107.957L136.819 108.056C136.929 108.392 137.065 109.4 137.339 109.568C137.349 109.574 137.363 109.572 137.375 109.575C137.441 109.799 137.438 109.943 137.629 110.09C137.33 110.559 136.984 110.982 136.673 111.44L136.231 111.286C136.573 110.376 136.621 109.623 136.624 108.66L136.745 108.602L136.786 107.957Z" fill="black"/>
<path d="M135.834 112.193L136.232 111.286L136.674 111.441L136.458 111.717C136.226 112.006 136.204 112.107 135.834 112.193Z" fill="black"/>
<path d="M145.525 123.387C145.889 123.326 146.014 123.191 146.229 122.883C146.426 122.601 146.567 122.295 146.866 122.105C147.115 122.154 147.126 122.229 147.267 122.433C147.432 122.672 147.529 122.898 147.496 123.188C147.444 123.205 147.391 123.22 147.339 123.24C147.078 123.336 146.629 123.797 146.54 124.07C146.521 124.132 146.522 124.198 146.513 124.262C144.019 126.816 132.871 132.673 129.52 132.726C130.756 131.454 132.826 130.942 134.421 130.22C135.384 129.784 136.306 129.259 137.255 128.793C140.322 127.289 143.094 125.865 145.525 123.387Z" fill="#F2BA22"/>
<path d="M63.4994 104.804C64.5602 104.785 65.3286 105.208 66.203 105.742C65.6298 107.766 65.0442 109.93 64.219 111.862L64.1298 112.036L63.9714 112.076C63.6034 111.558 63.2202 111.035 62.9106 110.479C62.2878 109.36 61.7394 107.51 62.1302 106.256C62.3622 105.511 62.825 105.138 63.4994 104.804Z" fill="#8EBA7C"/>
<path d="M130.212 137.649C130.417 137.688 130.621 137.743 130.822 137.797C131.89 138.082 133.131 138.611 133.675 139.633C133.895 140.043 133.943 140.524 133.806 140.97C133.511 141.924 132.67 142.436 131.853 142.896C131.179 143.39 130.062 143.706 129.267 144.004C129.924 141.955 130.055 139.781 130.212 137.649Z" fill="#8EBA7C"/>
<path d="M89.1976 107.3C88.4936 104.888 87.6328 102.296 87.762 99.7569C87.8424 98.1785 88.4448 96.4817 89.6696 95.4309C90.3896 94.8133 91.2964 94.4353 92.2552 94.5493C93.552 94.7033 94.312 95.5501 95.0608 96.5209L94.47 96.8821C93.8036 96.2961 93.0148 95.8801 92.1028 95.9197C91.2396 95.9573 90.402 96.4329 89.8508 97.0857C88.686 98.4649 88.5824 100.589 88.76 102.302C88.922 103.866 89.286 105.487 89.7848 106.982L89.1976 107.3Z" fill="#F2BA22"/>
<path d="M59.3766 121.699C60.245 121.589 61.2498 122.098 62.0582 122.402C61.945 123.166 61.5194 127.171 61.071 127.549L60.7658 127.431C59.339 126.427 58.1086 125.22 57.6318 123.508C57.9946 122.513 58.4794 122.202 59.3766 121.699Z" fill="#8EBA7C"/>
<path d="M100.231 99.4124C100.547 97.4576 100.863 95.2052 102.369 93.7604C103.055 93.1028 103.973 92.592 104.947 92.6232C106.227 92.6644 107.164 93.488 107.989 94.372C108.185 94.6712 108.389 94.9636 108.539 95.2892C108.311 95.6864 108.237 95.8544 107.831 96.076C107.108 95.216 106.172 94.312 104.995 94.206C104.203 94.1348 103.463 94.4488 102.873 94.9636C102.135 95.6068 101.752 96.3428 101.459 97.254C101.389 97.4704 101.338 97.7712 101.23 97.9616C100.99 99.4592 100.847 100.931 100.791 102.448C100.483 102.492 100.472 102.591 100.283 102.827C100.149 101.677 100.148 100.567 100.231 99.4124Z" fill="#F2BA22"/>
<path d="M100.231 99.4125C100.28 99.5633 100.267 99.6385 100.403 99.7285C100.451 99.4357 100.493 99.1417 100.563 98.8537C100.619 99.0081 100.693 99.1585 100.667 99.3269C100.628 99.5841 100.544 99.8525 100.483 100.106L100.543 100.143C100.81 99.6557 100.91 99.2545 100.874 98.7009C100.853 98.3777 101.031 98.1849 101.23 97.9617C100.99 99.4593 100.847 100.931 100.791 102.448C100.483 102.492 100.472 102.591 100.283 102.827C100.149 101.677 100.148 100.567 100.231 99.4125Z" fill="#F2BA22"/>
<path d="M69.9922 70.4272C71.3614 70.382 72.3654 70.5836 73.671 70.9492C73.8278 71.8376 73.8478 72.7596 73.9486 73.6568C74.197 75.8688 74.541 78.05 74.4534 80.2836L74.3674 80.2692C73.8938 79.876 73.7526 78.2 73.4958 77.5404C72.5202 75.036 71.3706 72.7332 69.9922 70.4272Z" fill="#8EBA7C"/>
<path d="M92.8283 72.5525C93.5535 76.0621 94.2463 79.5569 94.8975 83.0825L94.8175 83.8417C94.7131 83.6433 94.6191 83.4481 94.4823 83.2693C94.1067 82.5809 93.9691 81.6061 93.6595 80.8593C92.9715 79.1981 92.0503 77.6705 91.0947 76.1545C91.4603 74.8025 92.1459 73.7577 92.8283 72.5525Z" fill="#8EBA7C"/>
<path d="M130.164 136.708C131.324 136.576 132.747 137.051 133.78 137.57C134.693 138.029 135.533 138.76 135.828 139.77C136.037 140.483 135.924 141.196 135.551 141.833C134.623 143.419 132.202 144.261 130.523 144.707C130.231 144.829 129.76 144.972 129.444 144.904C129.271 144.867 129.336 144.896 129.222 144.736C129.54 144.465 130.057 144.33 130.449 144.169C131.862 143.592 133.384 142.753 134.18 141.386C134.445 140.93 134.588 140.435 134.443 139.914C133.912 138.005 131.858 137.994 130.473 137.191C130.227 137.049 130.24 136.969 130.164 136.708Z" fill="#F2BA22"/>
<path d="M90.5993 77.2661C91.8809 78.5857 93.0257 82.5137 93.5853 84.3505L92.7373 83.8101C91.5993 83.0801 90.5689 82.7693 89.2373 82.6273C89.5729 80.7961 90.0149 79.0349 90.5993 77.2661Z" fill="#8EBA7C"/>
<path d="M56.2291 121.646C56.4711 121.292 56.7211 120.959 57.0467 120.676C57.7939 120.028 58.6039 119.928 59.5595 120.035C60.3515 120.124 61.7447 120.581 62.2671 121.208C62.3039 121.471 62.2987 121.454 62.1439 121.672C61.3819 121.763 60.4611 121.28 59.6543 121.273C59.0499 121.268 58.4119 121.366 57.9779 121.826C57.4987 122.334 57.3375 123.182 57.3739 123.857C57.4583 125.434 58.9375 126.58 60.0299 127.54L59.8299 127.925L59.4671 128C58.7847 127.534 58.1867 127.013 57.6663 126.368C56.5547 124.991 56.0487 123.408 56.2291 121.646Z" fill="#F2BA22"/>
<path d="M61.4343 109.527C61.2783 109.236 61.1559 108.927 61.0399 108.619C60.5483 107.311 60.2251 105.415 60.8507 104.112C61.1103 103.571 61.5267 103.186 62.1067 103.016C63.0335 102.745 64.0063 102.972 64.8255 103.429C64.8927 103.805 64.9683 104.176 64.9807 104.559C64.3019 104.344 63.5079 104.225 62.8447 104.563C62.2779 104.851 61.9483 105.401 61.7743 105.995C61.4659 107.049 61.6231 108.177 61.8627 109.226C61.7223 109.348 61.6047 109.449 61.4343 109.527Z" fill="#F2BA22"/>
<path d="M74.5967 71.2932C75.4155 71.5208 76.3275 71.5696 77.1735 71.6236C76.8007 73.0352 76.4399 74.4452 75.9591 75.8248C75.7807 76.3488 75.6611 76.9068 75.5211 77.4432C75.1127 75.4028 74.9123 73.3468 74.5967 71.2932Z" fill="#8EBA7C"/>
<path d="M133.739 114.008C134.15 113.942 134.456 113.484 134.699 113.145C135.101 112.582 135.279 111.925 135.872 111.561C135.708 111.852 135.533 112.138 135.409 112.447C135.161 113.066 134.58 113.721 134.188 114.274L134.298 114.417C132.83 116.166 127.802 120.525 125.855 121.604C125.643 121.722 125.515 121.762 125.277 121.7C125.293 121.426 125.675 121.096 125.874 120.924C126.417 120.458 127.069 120.099 127.642 119.667C129.836 118.013 132.027 116.17 133.739 114.008Z" fill="#F2BA22"/>
<path d="M89.785 106.982C89.9302 107.6 90.1766 108.17 90.3406 108.776C90.643 109.365 92.3234 113.63 92.2846 113.996C92.2754 114.081 92.235 114.16 92.2102 114.241L92.0497 114.349C91.7189 114.236 91.5902 113.91 91.4434 113.605C91.053 112.796 89.871 109.982 89.8358 109.187C89.569 108.593 89.3986 107.921 89.1978 107.3L89.785 106.982Z" fill="#F2BA22"/>
<path d="M89.785 106.982C89.9302 107.6 90.1766 108.17 90.3406 108.776C90.1042 108.679 90.0334 108.564 89.9442 108.322C89.8846 108.162 89.853 107.983 89.8174 107.816L89.6982 107.7C89.567 107.979 89.7074 108.274 89.8026 108.559C89.879 108.786 89.8778 108.949 89.8358 109.187C89.569 108.593 89.3986 107.921 89.1978 107.3L89.785 106.982Z" fill="#F2BA22"/>
<path d="M88.4883 108.068C88.5471 108.132 88.5619 108.141 88.6095 108.229C88.7747 108.531 90.7659 114.507 90.8531 114.949C90.9039 115.207 90.8603 115.42 90.7819 115.667C90.5727 115.734 90.5679 115.76 90.3415 115.707C89.4903 114.501 88.5007 109.536 88.4883 108.068Z" fill="#8EBA7C"/>
<path d="M67.1502 47.4868C67.5222 47.5408 67.8578 47.7392 68.085 48.0384C68.2614 48.2728 68.2942 48.5592 68.2486 48.8416C68.163 49.372 67.7638 49.7004 67.353 49.998C67.3034 49.9844 67.2534 49.9716 67.2042 49.9572C66.8202 49.8436 66.4146 49.5624 66.2346 49.1964C66.0926 48.9076 66.0758 48.604 66.201 48.3044C66.3874 47.8592 66.729 47.6736 67.1502 47.4868Z" fill="white"/>
<path d="M100.284 102.827C100.472 102.591 100.484 102.492 100.791 102.448C100.918 104.928 101.443 108.739 101.223 111.049C100.5 108.459 100.373 105.511 100.284 102.827Z" fill="#F2BA22"/>
<path d="M100.521 181.415C100.608 181.14 100.693 180.862 100.799 180.594C101.337 179.219 102.381 178.737 103.654 178.187L104.165 178.883C102.823 179.614 101.778 180.583 100.521 181.415Z" fill="#F2BA22"/>
<path d="M126.624 122.848C127.376 121.259 129.429 120.141 130.886 119.249C131.045 119.268 131.202 119.291 131.363 119.295C131.25 119.694 131.451 119.018 131.243 119.565C131.232 119.593 131.239 119.625 131.237 119.655C130.779 120.131 129.67 120.654 129.078 121.061C128.243 121.635 127.469 122.286 126.624 122.848Z" fill="#F2BA22"/>
<path d="M131.574 145.377L132.64 145.257C132.691 145.473 132.7 145.652 132.883 145.797L133.14 145.869C131.527 146.179 129.99 146.44 128.34 146.452C129.405 146.051 130.469 145.654 131.574 145.377Z" fill="#F2BA22"/>
<path d="M108.711 99.4971C108.871 99.4311 109.03 99.3635 109.188 99.2935C109.483 100.605 109.263 101.972 109.081 103.285L108.763 103.165L108.609 103.296C108.611 102.025 108.623 100.765 108.711 99.4971Z" fill="#F2BA22"/>
<path d="M112.455 98.2988C112.468 98.344 112.482 98.3884 112.494 98.434C112.593 98.7996 112.53 99.1884 112.45 99.5504C112.666 99.3256 112.797 99.1916 112.909 98.8992C112.925 98.858 112.995 98.7244 113.019 98.6776L113.168 98.7744C112.701 99.8856 112.213 102.572 111.584 103.274C111.569 103.252 111.552 103.23 111.539 103.206C111.374 102.899 112.316 98.8788 112.455 98.2988Z" fill="#F2BA22"/>
<path d="M107.831 96.0759C108.237 95.8543 108.312 95.6863 108.54 95.2891L108.732 95.8799C108.917 96.9847 109.145 98.1755 109.188 99.2935C109.03 99.3635 108.871 99.4311 108.711 99.4971C108.583 98.2547 108.485 97.1715 107.831 96.0759Z" fill="#F2BA22"/>
<path d="M108.609 103.296L108.763 103.165L109.081 103.285C109.071 104.769 108.983 106.38 108.717 107.841C108.53 107.448 108.424 107.12 108.366 106.688C108.459 105.558 108.54 104.428 108.609 103.296Z" fill="#F2BA22"/>
<path d="M111.869 105.495C111.875 105.552 111.882 105.609 111.885 105.667C111.913 106.112 111.613 106.55 111.698 106.973L111.816 107.016L112.073 106.808C111.816 107.658 111.58 108.514 111.365 109.376C111.287 109.316 111.199 109.289 111.108 109.252L110.803 109.392C111.022 108.051 111.4 106.768 111.869 105.495Z" fill="#F2BA22"/>
<path d="M61.863 109.226C61.991 109.598 62.1206 109.966 62.3126 110.31C62.6226 110.867 63.5366 111.793 63.4802 112.41C63.2478 112.405 63.1278 112.256 62.9778 112.088C62.4986 111.552 61.529 110.226 61.4346 109.527C61.605 109.449 61.7226 109.348 61.863 109.226Z" fill="#F2BA22"/>
<path d="M108.366 106.688C108.424 107.12 108.53 107.448 108.717 107.841C108.713 109.1 108.491 110.132 108.011 111.293C107.896 109.798 108.202 108.179 108.366 106.688Z" fill="#F2BA22"/>
<path d="M93.8096 178.64C94.7356 179.153 95.8304 180.089 96.1624 181.137L96.0724 181.248C95.1552 181.007 93.96 180.028 93.2012 179.455C94.0792 179.48 94.5548 180.418 95.3324 180.589L95.3944 180.445C95.2992 179.61 94.2512 179.42 93.8804 178.772C93.8556 178.729 93.8332 178.684 93.8096 178.64Z" fill="#F2BA22"/>
<path d="M64.8257 103.429C65.4777 103.745 66.2013 104.026 66.4421 104.784C66.4553 104.826 66.4613 104.87 66.4709 104.913C66.3437 105.06 66.3981 105.056 66.2145 105.067C65.7853 105.094 65.3377 104.764 64.9809 104.559C64.9685 104.176 64.8929 103.805 64.8257 103.429Z" fill="#F2BA22"/>
<path d="M97.9629 108.905L98.2701 109.42C98.3253 109.215 98.3597 109.076 98.4813 108.897C98.5077 108.858 98.5381 108.822 98.5661 108.784C98.6497 109.621 98.8821 110.731 98.6049 111.529L98.4545 111.598C98.0745 111.278 98.0513 110.044 98.0097 109.565C97.9909 109.345 97.9753 109.125 97.9629 108.905Z" fill="#F2BA22"/>
<path d="M95.0605 96.5208C95.6021 97.3196 95.8825 98.1383 96.1733 99.0531L95.7617 98.9604C95.4549 98.136 95.0213 97.5508 94.4697 96.882L95.0605 96.5208Z" fill="#F2BA22"/>
<path d="M94.8976 83.0825C95.218 84.3253 95.2828 85.6029 95.56 86.8489C94.9724 85.7837 94.734 84.4545 94.4824 83.2693C94.6192 83.4481 94.7132 83.6433 94.8176 83.8417L94.8976 83.0825Z" fill="#8EBA7C"/>
<path d="M110.803 109.392L111.108 109.252C111.199 109.289 111.287 109.316 111.365 109.376C111.275 109.889 111.214 110.868 110.779 111.199L110.671 111.052C110.602 110.488 110.715 109.948 110.803 109.392Z" fill="#F2BA22"/>
<path d="M110.128 96.2759C110.134 97.2927 110.014 98.2663 109.792 99.2579C109.67 98.3055 109.59 97.3219 109.352 96.3911C109.575 96.6239 109.682 96.9047 109.814 97.1943C109.912 96.8859 110.017 96.5799 110.128 96.2759Z" fill="#0B8DCB"/>
<path d="M99.3789 95.3879C99.4097 95.4311 99.4409 95.4735 99.4709 95.5171C99.6145 95.7239 99.7073 95.9539 99.8053 96.1847C100.026 96.0959 100.019 96.0047 100.179 95.8775C100.229 95.8363 100.292 95.8127 100.349 95.7807C100.087 96.5799 99.9201 97.3815 99.7581 98.2051C99.5597 97.2819 99.4605 96.3279 99.3789 95.3879Z" fill="#0B8DCB"/>
<path d="M57.5451 126.908C58.2335 127.63 58.9183 128.257 59.7131 128.857C58.9539 128.568 58.0427 128.253 57.3843 127.775C57.4891 127.709 57.5827 127.659 57.6983 127.613C57.7351 127.598 57.7723 127.584 57.8091 127.57C57.7095 127.403 57.6299 127.256 57.5827 127.067C57.5695 127.014 57.5575 126.961 57.5451 126.908Z" fill="#0B8DCB"/>
<path d="M41.0215 138.826C41.6123 138.921 42.5179 138.981 43.0107 139.318C42.4343 139.582 41.0631 139.367 40.4551 139.212C40.7683 139.163 41.0943 139.164 41.4111 139.15L41.4423 139.088L41.1047 138.969L41.0215 138.826Z" fill="#8EBA7C"/>
<path d="M60.0301 127.54C60.3597 127.77 60.7309 127.966 60.9105 128.338L60.8381 128.476C60.2993 128.514 59.9205 128.254 59.4673 128L59.8301 127.925L60.0301 127.54Z" fill="#F2BA22"/>
<path d="M94.9053 95.4319C95.2409 95.2359 95.3889 95.2043 95.5581 94.8459C95.7117 95.5271 95.8613 96.2095 96.0069 96.8923C95.6605 96.3967 95.3325 95.8619 94.9053 95.4319Z" fill="#0B8DCB"/>
<path d="M95.7617 98.9604L96.1733 99.0532C96.2797 99.5448 96.4573 100.095 96.3793 100.598C96.0409 100.267 95.8929 99.4224 95.7617 98.9604Z" fill="#F2BA22"/>
<path d="M133.735 133.236C133.241 133.313 132.692 133.559 132.198 133.515C132.426 133.221 132.916 133.196 133.276 133.105L133.735 133.236Z" fill="black"/>
<path d="M38.4982 121.081C38.7582 121.12 38.9711 121.119 39.1863 121.28C38.8682 121.444 38.5173 121.426 38.1675 121.444L38.4982 121.081Z" fill="#8EBA7C"/>
<path d="M46.8506 101.804C47.1742 102.13 47.4542 102.443 47.7194 102.82C47.2922 102.508 46.859 102.202 46.4502 101.866L46.8506 101.804Z" fill="black"/>
<path d="M156.047 123.141C155.687 123.241 155.427 123.313 155.054 123.252L155.09 123.15L155.628 122.95L156.047 123.141Z" fill="#8EBA7C"/>
<path d="M47.6597 140.661C47.9577 140.654 48.2385 140.62 48.5161 140.749C48.2949 140.933 48.0821 140.963 47.8093 141.036L47.6597 140.661Z" fill="#8EBA7C"/>
<path d="M131.164 133.748C131.441 133.681 131.567 133.689 131.838 133.776C131.618 133.864 131.464 133.948 131.223 133.912L131.164 133.748Z" fill="black"/>
</svg>
