<svg width="200" height="200" viewBox="0 0 200 200" fill="none" xmlns="http://www.w3.org/2000/svg">
<path d="M78.5606 36.0627C80.0157 35.5183 81.3637 35.1418 82.9043 34.9017C83.2301 34.8508 84.4024 34.7534 84.6414 34.5414C84.6692 34.517 84.7575 34.3398 84.7786 34.2927C84.9907 33.8188 85.0239 33.1994 85.0883 32.6848C85.2743 31.2078 85.2454 29.8086 84.9485 28.3447C84.2161 24.731 80.5489 17.3881 85.7457 15.3378C86.6793 14.9695 87.6829 15.0399 88.5872 15.4649C88.9012 15.6125 89.1965 15.8001 89.5375 15.8775C89.8719 16.3142 90.1512 16.7375 90.4102 17.2236L90.5758 17.2477C91.7606 16.1791 92.8598 15.4465 94.5387 15.5588C95.4086 15.617 96.184 15.9808 96.7567 16.6418C97.2262 17.1835 98.1047 19.4842 98.1758 19.5322C99.8395 19.5384 101.139 18.8439 102.554 20.2705C103.226 20.949 103.557 21.929 103.515 22.8752C103.482 23.6052 103.242 24.2135 102.914 24.857C104.377 25.3866 105.564 25.9165 106.241 27.434C106.645 28.3387 106.827 29.5707 106.459 30.5143C106.077 31.4922 105.155 32.117 104.218 32.5027C103.089 32.9678 101.805 33.1187 100.613 33.3681C97.5543 34.008 95.3664 36.1051 93.2282 38.2508C96.3364 41.4559 97.402 43.5625 98.9735 47.6395C100.476 46.9297 101.926 46.6223 103.555 47.1914C106.405 48.1875 108.333 51.0602 109.557 53.6656C111.073 56.8922 112.221 61.3262 112.218 64.9168C112.747 63.6441 113.254 62.3234 113.884 61.0981C115.904 57.1691 119.2 53.0234 123.382 51.2961C124.982 50.6352 126.847 50.3121 128.494 51.0027C130.345 51.7781 131.537 53.4805 132.243 55.2918C134.014 59.8352 133.842 67.4965 132.231 72.1594C133.105 71.1066 133.826 69.9391 134.693 68.8809C137.666 65.2492 141.857 61.6289 146.723 61.1902C148.272 61.0508 149.804 61.477 150.991 62.5016C152.752 64.0191 153.436 66.6102 153.582 68.8449C153.848 72.916 152.637 79.9574 150.231 83.382C151.925 82.1746 153.539 80.8887 155.272 79.7324C156.164 79.393 157.066 78.8039 157.95 78.4059C159.975 77.5375 162.141 76.9738 164.357 77.0274C166.046 77.0684 167.955 77.5617 169.132 78.8481C170.359 80.1902 170.746 81.9785 170.679 83.7508C170.484 88.9961 167.418 95.5899 163.533 99.1613C166.404 98.3531 169.286 97.8957 172.274 98.1359C174.456 98.3113 177.139 99.0043 178.583 100.775C179.623 102.05 179.952 103.482 179.783 105.102C179.644 106.437 179.201 107.761 178.681 108.991C176.974 113.024 174.184 115.889 170.617 118.334C169.179 119.32 167.607 120.06 166.247 121.162C166.557 121.104 166.868 121.051 167.18 121.006C170.568 120.531 175.738 121.596 178.498 123.68C179.764 124.636 180.911 126.036 181.108 127.652C181.212 128.503 181.041 129.335 180.791 130.145C179.282 135.047 173.187 138.909 168.673 140.816C166.802 141.606 164.909 142.193 162.945 142.697C162.653 142.772 161.882 142.903 161.707 143.131C162.131 143.528 162.974 143.771 163.509 144.029C164.786 144.643 165.988 145.67 166.895 146.751C168.098 148.184 168.691 149.909 168.504 151.781C168.258 154.223 166.642 156.042 164.793 157.516C159.909 161.407 152.463 162.189 146.454 161.469C139.898 160.684 133.207 158.063 127.796 154.269C126.965 153.686 125.872 153.067 125.243 152.267C123.795 154.169 122.318 156.188 120.689 157.936C118.208 160.598 114.595 163.236 111.382 164.946C109.909 165.73 106.981 166.707 105.878 167.497C105.952 169.277 106.79 171.269 107.218 173.012C107.568 174.437 107.768 175.961 108.253 177.341C111.355 177.57 116.295 178.098 118.967 179.729C119.703 180.177 120.405 180.776 120.595 181.656C120.857 182.867 119.501 182.837 119.039 183.565C119.189 184.154 119.791 184.436 119.988 184.994C120.221 185.652 119.996 186.221 119.713 186.814C118.448 187.712 117.204 187.538 115.748 187.494C115.858 187.955 116.087 188.644 115.88 189.102C115.731 189.432 115.466 189.666 115.123 189.779C113.724 190.238 110.973 188.947 109.747 188.262C108.857 187.764 108.034 187.156 107.232 186.529C105.152 184.902 103.983 183.446 103.244 180.89L102.172 181.701C101.602 182.131 100.552 183.136 99.8196 183.034C99.7004 182.948 99.5934 182.904 99.5309 182.764C99.2036 182.034 99.5293 180.574 99.8446 179.867C100.575 178.23 101.616 177.814 103.181 177.217C102.904 175.848 102.458 174.486 102.122 173.127C101.762 171.669 101.506 170.186 101.223 168.711C97.8704 168.903 94.6442 169.2 91.2817 169.009C91.4078 171.076 91.7832 174.914 92.4622 176.808C93.2743 177.002 94.1246 177.353 94.8461 177.774C96.5375 178.761 97.0774 180.325 97.5329 182.111C97.4219 182.468 97.3153 183.016 96.9879 183.223C96.0051 183.32 93.9352 181.398 93.1422 180.775C92.9547 183.075 92.0368 184.775 90.4551 186.433C88.6559 188.319 86.7586 189.848 84.0543 189.868C83.7317 189.87 83.4543 189.853 83.2176 189.613C82.668 189.058 82.7657 188.161 82.777 187.443C81.6551 187.736 80.1922 188.148 79.0414 187.814C78.3422 187.611 78.1254 187.318 77.7735 186.709C77.8625 186.063 77.9969 185.437 78.1469 184.802C77.2965 184.846 76.5219 184.816 75.6774 184.718C75.493 184.526 75.3391 184.294 75.1778 184.082C75.3032 183.669 75.4411 183.264 75.6645 182.892C77.7071 179.487 83.3215 178.209 86.8746 177.279C86.3875 175.641 86.0778 173.927 85.7176 172.258C85.4207 170.88 85.0629 169.518 84.7684 168.139C84.7469 168.126 84.7254 168.113 84.7043 168.1C83.8465 167.543 82.8036 167.261 81.8473 166.908C80.4446 166.391 79.05 165.877 77.7168 165.193C73.9266 163.203 70.6055 160.427 67.975 157.05C67.095 155.919 66.4079 154.636 65.4332 153.577C65.4075 153.549 65.3809 153.521 65.3547 153.493C62.6914 155.231 59.7149 156.917 56.6965 157.938C50.1735 160.145 42.3575 160.41 36.0741 157.248C33.3719 155.889 31.3837 154.054 30.4413 151.132C29.8662 149.348 30.1104 147.49 30.9651 145.837C32.4287 143.006 35.2669 141.261 38.2242 140.337C36.5135 139.943 34.7634 139.761 33.0483 139.385C28.065 138.292 23.052 135.986 19.9595 131.765C18.7255 130.081 17.7686 127.851 18.103 125.727C18.3821 123.836 19.4172 122.139 20.971 121.026C24.0413 118.818 28.8014 118.531 32.4284 119.098C31.1507 118.098 29.7015 117.337 28.3795 116.398C24.8914 113.92 21.9273 110.443 20.4564 106.405C19.6507 104.194 19.2717 101.262 20.3353 99.0672C21.0497 97.5934 22.5169 96.716 24.0149 96.1992C28.9494 94.4977 35.9499 96.3016 40.5372 98.5121C35.731 93.4461 31.3015 87.1852 31.3595 79.8805C31.3745 77.9797 31.8764 75.757 33.2647 74.377L33.9303 73.8598C36.1679 72.5113 38.8586 72.707 41.3184 73.3059C43.9125 73.9371 46.6711 75.4383 48.7469 77.1207C49.7434 77.9281 50.6465 78.8516 51.6223 79.684C49.0153 75.2055 46.2829 67.2024 47.6004 62.1195C47.9805 60.6543 48.6809 59.5043 50.0176 58.7149C51.3735 57.9145 53.0536 57.7215 54.5922 57.927C54.9668 57.9774 55.6149 58.1488 55.9723 58.0594C56.5227 57.9215 58.3168 55.7734 59.0836 55.2746C60.6676 54.2445 62.4766 53.8512 64.1719 53.0848C63.5676 49.8633 64.1703 46.3578 66.0625 43.632C66.684 42.7363 67.4282 41.8387 68.3203 41.1988C69.2996 40.4965 70.4196 40.3102 71.4356 39.734C72.2403 39.2777 72.9301 38.5859 73.7051 38.0737C74.4184 37.6022 75.2262 37.2855 75.9571 36.8458C76.1493 36.7301 76.3168 36.6361 76.3801 36.415C75.5145 35.7724 73.9868 35.8854 72.9633 36.0333C71.9524 36.1794 71.2286 37.0315 70.3305 37.448C71.2563 35.7992 72.7477 34.1753 74.6317 33.6608C75.359 33.4622 75.9207 33.4959 76.6489 33.6237C77.5934 34.3099 78.0336 35.0456 78.5606 36.0627ZM39.2063 139.054C39.7825 139.155 42.4145 139.534 42.7887 139.296C41.909 138.893 40.7809 138.753 39.8375 138.498L39.7942 138.699C40.0969 138.842 40.4661 138.877 40.7954 138.937C40.4555 138.979 39.6571 138.809 39.4629 138.859C39.3586 138.886 39.2918 138.989 39.2063 139.054ZM87.7317 16.2714C87.7563 16.3182 87.7793 16.3658 87.8051 16.4119C88.1629 17.0504 89.3649 17.5747 89.3012 18.3363L88.9555 18.6823L89.3496 19.5526L89.4664 19.5905C89.5778 19.347 89.6082 19.1734 89.6348 18.9118C89.6508 18.792 89.6676 18.6749 89.6665 18.5537C89.6602 17.9136 89.2473 17.2295 88.7891 16.8067C88.5063 16.5461 88.1309 16.2565 87.7317 16.2714ZM94.6508 180.393C95.2301 180.823 95.8571 181.202 96.4465 181.622C95.9926 180.773 95.5243 179.954 94.7676 179.338C94.7715 179.379 94.7719 179.42 94.7797 179.46C94.8364 179.753 95.1391 180.012 95.3407 180.223L95.2473 180.389C95.0875 180.369 94.9297 180.348 94.7707 180.321L94.6508 180.393ZM95.7078 98.7063C96.0246 99.3879 96.1215 100.195 96.5243 100.835C96.6372 100.058 96.2301 99.2676 95.9618 98.5551L95.7078 98.7063ZM87.2028 98.8676L86.7332 99.4043C86.845 100.058 87.0352 100.707 87.1981 101.35C87.2383 100.527 87.2059 99.6918 87.2028 98.8676ZM145.312 89.3246C145.218 89.6106 145.079 89.9035 145.118 90.2047C145.32 89.9649 145.462 89.7305 145.608 89.4535L145.312 89.3246ZM62.9504 112.048C63.152 112.231 63.2454 112.372 63.518 112.419C63.5266 112.115 63.4075 112.011 63.2457 111.759L62.9504 112.048ZM109.539 98.4453C109.533 98.8645 109.502 99.1879 109.731 99.557C109.789 99.0844 109.842 98.6117 109.893 98.1383L109.539 98.4453ZM77.9786 183.541C77.8676 183.532 77.7571 183.52 77.6465 183.507C77.2317 183.455 77.1918 183.37 76.9528 183.066L76.1961 184.015C76.7883 183.836 77.3739 183.672 77.9786 183.541ZM94.8493 84.482C94.9536 84.9531 95.0293 85.6621 95.3164 86.0414C95.343 85.425 95.1965 84.8051 95.093 84.1988L94.8493 84.482Z" fill="black"/>
<path d="M82.7522 35.6909C84.2885 35.7299 85.7948 35.9347 87.2542 36.4342C91.2089 37.7878 94.4963 41.3512 96.2631 45.0515C97.5518 47.7504 98.0174 50.7219 98.1854 53.6836C98.578 60.6051 96.4198 65.2285 92.444 70.7082C91.8139 71.5762 91.1128 72.3918 90.4901 73.2648C89.2463 75.009 88.3514 76.9629 87.6436 78.9777C83.1428 91.7855 84.6264 103.506 88.6799 116.155C89.8971 119.953 91.2018 123.705 92.9354 127.302C96.4604 134.616 100.766 141.588 107.295 146.589C109.196 148.045 111.319 149.381 113.594 150.164C117.836 151.626 121.96 150.868 125.909 148.936C121.35 156.655 112.934 163.052 104.34 165.496C97.6854 167.389 90.0827 167.206 83.5319 164.978C81.1311 164.161 78.9143 163.069 76.7006 161.841C72.0339 159.067 68.4706 155.079 65.8987 150.326C61.071 141.405 62.1092 131.005 63.7866 121.398C64.3522 118.158 64.9428 114.907 65.7151 111.709C66.1003 110.112 66.587 108.539 66.9764 106.942C67.8561 103.335 68.5811 99.6773 69.5799 96.1004C71.9772 87.5172 74.8702 79.0996 77.3944 70.5597C77.9737 70.6457 78.5561 70.7109 79.1401 70.7547C81.9702 70.982 85.1792 70.4961 87.4014 68.607C83.696 69.9371 80.4874 70.2578 76.601 69.3918C75.2389 69.0883 73.9049 68.6844 72.5366 68.4043C76.4135 67.2301 78.4835 63.8828 80.2999 60.5054C82.4366 60.9262 84.4151 61.0226 86.4503 60.1156C88.7893 59.0726 90.6378 56.7086 91.5264 54.3496C92.3046 52.2844 92.5714 49.6914 91.6237 47.6351C90.8932 46.0496 89.4073 44.8 87.7749 44.2187C85.7116 43.484 83.6085 43.8312 81.6647 44.7597C78.412 46.3133 76.9354 49.8558 75.7936 53.0656C74.5928 51.864 73.1104 51.3496 71.446 51.3195C73.11 50.0816 74.3456 48.1445 74.7932 46.1199C75.1295 44.6004 75.176 42.7387 74.2807 41.393C73.6764 40.484 72.8795 40.0836 71.846 39.8887C73.5616 38.7749 75.3046 37.7715 77.1159 36.823C77.4573 36.9516 78.1065 37.2847 78.4456 37.1699L78.6409 36.6598C79.6737 35.8422 81.4991 35.7314 82.7522 35.6909Z" fill="#0B8DCB"/>
<path d="M88.4251 38.1919C89.3548 38.1548 90.1505 38.4456 90.8615 39.0507C92.481 40.4297 93.0005 42.7 93.1349 44.7215C92.7353 44.2902 92.415 43.8797 92.0982 43.3844C89.8419 40.1965 87.6591 41.3152 86.4232 40.1656C86.2169 39.9738 86.2501 39.8969 86.2662 39.6394C86.715 38.8951 87.6333 38.4735 88.4251 38.1919Z" fill="black"/>
<path d="M103.182 111.956C107.965 111.65 112.731 112.754 116.892 115.133C123.322 118.892 127.035 125.293 128.862 132.328C126.848 133.548 124.908 134.405 122.497 134.198C119.69 133.958 117.435 132.08 116.059 129.704C115.607 128.922 115.269 127.967 114.686 127.281L114.547 127.273C114.466 127.552 114.472 127.791 114.501 128.081C114.711 130.194 116.265 132.401 117.875 133.699C119.584 135.077 121.902 135.868 124.104 135.624C126.194 135.393 127.618 134.348 128.9 132.752C129.095 134.762 129.351 136.855 129.218 138.873C129.086 141.455 128.528 144.225 127.249 146.493C126.184 148.38 124.434 149.262 122.409 149.816C118.065 151.005 114.036 150.2 110.175 147.954C100.102 142.093 93.056 127.798 90.1567 116.835C93.9774 113.842 98.3646 112.289 103.182 111.956Z" fill="#8EBA7C"/>
<path d="M104.565 115.599C104.587 115.614 104.614 115.624 104.631 115.645C104.73 115.76 104.751 115.773 104.717 115.902C104.466 116.843 102.605 117.739 101.796 118.145C102.101 118.973 102.455 119.803 102.877 120.579C103.833 122.332 105.324 123.888 107.289 124.45C109.826 125.177 111.521 124.266 113.683 123.05C113.499 123.375 113.314 123.696 113.064 123.976C111.881 125.304 110.189 125.723 108.486 125.786C107.128 125.625 105.883 125.287 104.769 124.461C102.689 122.92 101.829 120.723 101.441 118.239C100.602 118.286 99.7214 118.361 98.9151 118.074C97.7241 117.649 97.1999 116.524 96.7007 115.459C97.58 116.24 98.4534 117.086 99.6519 117.32C101.555 117.691 103.096 116.627 104.565 115.599Z" fill="black"/>
<path d="M101.707 130.019C101.851 130.08 101.902 130.115 101.974 130.264C102.486 131.315 102.698 132.915 103.356 134.257C104.24 136.063 105.542 137.792 107.298 138.823C108.869 139.746 111.04 140.173 112.821 139.688C113.02 139.633 113.115 139.592 113.32 139.657C113.388 139.927 113.287 140.083 113.202 140.342C112.161 140.827 111.058 141.02 109.913 140.936C107.848 140.786 105.818 139.611 104.488 138.052C102.628 135.871 101.467 132.895 101.707 130.019Z" fill="black"/>
<path d="M111.035 115.498C111.672 115.852 112.539 117.839 113.104 118.531C113.928 119.541 114.954 120.348 116.068 121.017C117.161 121.673 118.39 122.255 119.658 122.457C120.329 122.564 122.497 122.32 122.766 122.472C122.702 122.732 122.485 122.878 122.294 123.049C121.74 123.433 121.132 123.651 120.461 123.714C118.473 123.901 116.366 122.882 114.859 121.662C112.98 120.139 111.301 117.97 111.035 115.498Z" fill="black"/>
<path d="M113.711 138.615C114.55 139.264 115.209 141.417 116.707 142.555C118.147 143.65 120.537 144.188 122.273 143.681C123.004 143.468 123.749 143.015 124.495 142.918L124.502 143.077L124.23 143.338C124.047 143.467 123.861 143.595 123.675 143.72C122.225 144.696 120.535 144.901 118.842 144.552C117.072 144.185 115.519 143.132 114.522 141.624C113.997 140.815 113.497 139.588 113.711 138.615Z" fill="black"/>
<path d="M120.364 61.8352C121.483 61.7414 122.733 61.9211 123.766 62.3726C125.726 63.2309 127.025 65.0039 127.773 66.9535C130.496 74.05 128.009 81.7113 125.049 88.2758C124.119 87.8051 123.187 87.5391 122.143 87.4879C119.523 87.3594 117.408 88.5562 115.511 90.2586C114.216 91.4012 113.547 92.7516 112.922 94.3387C112.923 93.1492 113.017 91.9621 112.956 90.7719C112.8 87.7641 111.879 84.3004 109.953 81.9246C110.005 76.6234 111.223 70.6051 114.164 66.1578C115.726 63.7965 117.568 62.4062 120.364 61.8352Z" fill="#3B773B"/>
<path d="M120.687 68.9516C121.271 68.9234 121.852 68.9766 122.395 69.207C123.251 69.5785 123.911 70.293 124.214 71.1754C124.55 72.1473 124.477 73.2141 124.011 74.1313C123.566 75.0102 122.864 75.5512 121.941 75.8594C121.244 75.898 120.63 75.907 119.977 75.6078C119.205 75.2566 118.613 74.6008 118.344 73.7965C118.001 72.7984 118.009 71.5016 118.518 70.5598C118.992 69.6828 119.773 69.2488 120.687 68.9516Z" fill="black"/>
<path d="M120.797 69.534C122.206 69.2441 123.583 70.1531 123.87 71.5633C124.157 72.973 123.244 74.3476 121.833 74.6308C120.845 74.8289 119.831 74.4383 119.231 73.6277C118.632 72.8176 118.554 71.7336 119.033 70.8465C119.398 70.1695 120.044 69.689 120.797 69.534Z" fill="#EA6F1C"/>
<path d="M126.286 89.3683C126.8 88.0031 127.39 86.6691 127.934 85.3156C128.545 83.7968 129.104 82.2187 129.882 80.7781C130.314 79.9788 130.876 79.2417 131.404 78.5038C133.139 76.0788 135.164 73.4042 137.97 72.1546C139.5 71.473 141.028 71.3835 142.597 72.005C144.206 72.6417 145.45 73.9784 146.115 75.5624C147.835 79.6632 146.596 85.0249 144.954 88.9449C144.17 90.8152 143.239 92.5948 142.341 94.4105C140.502 93.487 138.615 93.396 136.674 94.0413C132.689 95.3659 129.794 98.6909 127.545 102.097C126.791 103.24 126.118 104.473 125.301 105.57L124.913 105.546C126.977 101.437 129.136 96.4206 127.566 91.7718C127.279 90.9034 126.846 90.0906 126.286 89.3683Z" fill="#3B773B"/>
<path d="M138.673 77.2973C140.522 77.084 142.197 78.4012 142.426 80.2489C142.655 82.0961 141.352 83.7828 139.507 84.0278C137.639 84.2754 135.927 82.9532 135.696 81.0832C135.464 79.2133 136.801 77.5129 138.673 77.2973Z" fill="black"/>
<path d="M138.741 77.7536C139.289 77.7212 139.724 77.7286 140.229 77.968C140.922 78.2966 141.448 78.8704 141.698 79.5977C141.917 80.2352 141.915 80.9762 141.592 81.5794C141.154 82.3973 140.435 82.6809 139.593 82.9165C139.059 82.9204 138.554 82.8653 138.065 82.6341C137.386 82.313 136.847 81.7501 136.598 81.0372C136.385 80.4266 136.405 79.7329 136.715 79.1583C137.157 78.3407 137.893 78.002 138.741 77.7536Z" fill="#EA6F1C"/>
<path d="M160.542 124.261C160.986 124.201 161.435 124.203 161.882 124.205C163.966 124.195 165.965 125.031 167.422 126.522C168.473 127.599 168.989 128.905 168.965 130.412C168.934 132.264 167.944 133.783 166.644 135.018C163.064 138.422 157.452 140.55 152.567 141.095C150.206 141.359 147.736 141.301 145.364 141.228C145.993 139.739 145.95 138.529 145.419 137.022C145.014 136.192 144.52 135.507 143.798 134.922C140.726 132.436 136.217 133.007 132.595 133.375C135.569 132.231 138.457 130.894 141.41 129.705C144.129 128.611 146.928 127.659 149.711 126.738C153.509 125.48 156.504 124.573 160.542 124.261Z" fill="#3B773B"/>
<path d="M158.537 128.101C160.377 127.655 162.232 128.777 162.691 130.614C163.15 132.45 162.041 134.314 160.208 134.786C158.356 135.262 156.47 134.14 156.006 132.284C155.543 130.429 156.679 128.552 158.537 128.101Z" fill="black"/>
<path d="M159.086 128.703C160.503 128.51 161.814 129.484 162.038 130.896C162.262 132.308 161.316 133.64 159.909 133.895C158.972 134.064 158.016 133.713 157.411 132.977C156.807 132.241 156.647 131.235 156.995 130.348C157.342 129.461 158.143 128.832 159.086 128.703Z" fill="#EA6F1C"/>
<path d="M62.0628 68.7868C63.5163 68.5024 65.2284 69.0809 66.5381 69.661C67.4596 70.0692 68.4866 70.5579 69.235 71.2457C71.0061 72.8739 72.1936 76.5395 73.0698 78.7895C72.6475 80.6828 71.8088 82.4977 71.2295 84.3496C70.0417 88.1469 68.9694 91.9993 67.9085 95.8348C67.6928 96.6141 67.5795 97.8035 67.1897 98.486C66.9323 98.4227 66.876 98.2633 66.7182 98.0606C65.5538 96.2543 63.8663 95.1621 62.4956 93.5762C61.7381 92.7 61.1815 91.6364 60.5721 90.6547C58.167 86.7825 55.7065 82.5914 55.192 77.9696C54.9276 75.5957 55.1866 73.3672 56.7256 71.4586C58.0639 69.7985 59.9846 69.0239 62.0628 68.7868Z" fill="#3B773B"/>
<path d="M62.8751 75.3672C64.7083 75.0621 66.4387 76.3094 66.729 78.1449C67.0196 79.9805 65.7583 81.7012 63.9204 81.9766C62.1032 82.2492 60.4063 81.0055 60.1192 79.1903C59.8321 77.3754 61.0626 75.6684 62.8751 75.3672Z" fill="black"/>
<path d="M63.0842 75.9097C64.4783 75.7011 65.7768 76.6652 65.9803 78.0601C66.1838 79.455 65.2151 80.75 63.8197 80.9484C62.4311 81.1461 61.144 80.1832 60.9416 78.7953C60.7389 77.4074 61.6971 76.1171 63.0842 75.9097Z" fill="#EA6F1C"/>
<path d="M37.4758 122.013C39.3069 121.65 45.9909 122.761 47.6018 123.832C48.2995 124.295 48.7936 125.136 49.3905 125.721C50.6503 126.959 52.1846 128.032 53.7132 128.909C55.1393 129.725 56.6401 130.472 58.1995 130.995C59.0014 131.264 59.9319 131.351 60.6776 131.74C60.8042 132.012 60.7651 132.253 60.7425 132.543C59.5374 133.275 56.2417 131.966 53.7948 133.943C52.2811 135.166 52.0694 136.368 51.8639 138.159L51.8604 139.522C46.4288 139.671 41.8534 139.213 36.9002 136.819C35.6953 136.236 34.4949 135.628 33.4287 134.812C31.6382 133.44 29.9872 131.406 29.725 129.096C29.5615 127.655 29.9919 126.259 30.9084 125.142C32.524 123.172 35.0071 122.255 37.4758 122.013Z" fill="#3B773B"/>
<path d="M38.4619 126.605C40.1854 126.19 41.9178 127.257 42.3213 128.984C42.7248 130.71 41.6447 132.435 39.9155 132.825C38.2036 133.212 36.5004 132.146 36.1011 130.437C35.7018 128.728 36.756 127.017 38.4619 126.605Z" fill="black"/>
<path d="M39.0701 127.066C40.4771 127.021 41.6595 128.114 41.7244 129.52C41.7892 130.926 40.7122 132.123 39.3072 132.207C38.381 132.263 37.4968 131.816 36.9929 131.037C36.4889 130.257 36.4432 129.267 36.8733 128.446C37.3035 127.623 38.1427 127.096 39.0701 127.066Z" fill="#EA6F1C"/>
<path d="M36.122 101.494C36.7041 101.428 37.3057 101.428 37.8909 101.437C43.0618 101.518 48.2841 104.824 52.4927 107.571C53.747 108.389 55.1165 109.186 56.2368 110.183C57.2235 111.06 57.8919 112.202 58.7774 113.169C60.1743 114.694 61.7477 116.064 63.1837 117.554C62.2274 117.228 61.3204 116.539 60.4544 116.021C57.87 114.474 55.027 113.178 51.9727 113.051C51.0345 113.081 50.1528 113.194 49.2731 113.539C47.9235 114.067 46.8915 115.098 46.3317 116.427C45.5766 118.219 45.8743 120.215 46.579 121.971C43.8927 121.24 41.4075 120.336 39.0284 118.856C35.43 116.617 31.5862 113.457 30.6119 109.111C30.2675 107.575 30.3528 105.721 31.2554 104.383C32.3745 102.724 34.2238 101.879 36.122 101.494Z" fill="#3B773B"/>
<path d="M38.2954 105.725C40.0463 105.468 41.6784 106.668 41.9549 108.416C42.2319 110.164 41.0506 111.809 39.3057 112.106C38.1592 112.301 36.9965 111.864 36.2613 110.963C35.5261 110.062 35.3318 108.836 35.7528 107.751C36.1737 106.667 37.1448 105.893 38.2954 105.725Z" fill="black"/>
<path d="M38.4356 106.316C39.8032 106.172 41.0313 107.156 41.1887 108.522C41.3462 109.888 40.3743 111.126 39.01 111.297C37.6264 111.471 36.3669 110.482 36.2072 109.096C36.0474 107.711 37.0487 106.462 38.4356 106.316Z" fill="#EA6F1C"/>
<path d="M154.173 86.257C155.161 86.1992 156.164 86.1555 157.138 86.3645C158.733 86.7074 160.123 87.6774 160.996 89.0559C161.954 90.5738 161.983 92.5078 161.575 94.2074C160.653 98.0586 157.077 101.657 153.981 103.96C151.831 105.56 149.457 106.861 147.136 108.189C145.075 109.345 143.045 110.553 141.046 111.812C139.495 112.683 137.952 113.683 136.316 114.38C139.759 111.511 143.026 107.281 144.22 102.925C144.914 100.391 144.821 97.8317 143.488 95.5102C144.37 94.2684 145.022 92.8516 145.912 91.5949C147.83 88.8867 150.866 86.8188 154.173 86.257Z" fill="#3B773B"/>
<path d="M153.861 90.7023C155.067 90.5844 156.243 91.1226 156.94 92.1125C157.638 93.1023 157.75 94.3906 157.234 95.4859C156.717 96.5812 155.652 97.3148 154.445 97.4062C152.606 97.5457 150.998 96.1797 150.838 94.343C150.678 92.5059 152.027 90.8828 153.861 90.7023Z" fill="black"/>
<path d="M153.536 91.3028C154.472 91.0496 155.472 91.3223 156.151 92.0156C156.829 92.7086 157.08 93.7141 156.807 94.6449C156.533 95.5754 155.779 96.286 154.834 96.5024C153.41 96.8285 151.988 95.9555 151.635 94.5391C151.281 93.1223 152.127 91.6836 153.536 91.3028Z" fill="#EA6F1C"/>
<path d="M161.097 103.167C162.613 103.012 164.126 103.269 165.471 103.997C166.903 104.773 168.201 106.206 168.643 107.785C169.158 109.623 168.631 111.373 167.713 112.979C166.679 114.787 165.133 116.268 163.511 117.55C159.033 121.089 149.299 126 143.796 127.473C144.318 127.194 144.821 126.9 145.32 126.58C147.377 125.304 149.264 123.772 150.686 121.785C151.78 120.256 152.389 118.389 152.066 116.506C151.838 115.175 151.109 114.087 150.002 113.321C147.852 111.831 144.848 112.052 142.413 112.527L150.323 107.93C152.656 106.545 155 104.938 157.538 103.95C158.694 103.501 159.866 103.274 161.097 103.167Z" fill="#3B773B"/>
<path d="M159.063 108.321C160.911 108.244 162.476 109.668 162.574 111.514C162.672 113.361 161.266 114.942 159.421 115.061C158.209 115.139 157.047 114.56 156.381 113.544C155.715 112.528 155.646 111.232 156.201 110.151C156.756 109.07 157.85 108.371 159.063 108.321Z" fill="black"/>
<path d="M159.233 108.841C160.544 108.807 161.679 109.747 161.888 111.042C162.01 111.796 161.797 112.566 161.305 113.15C160.812 113.733 160.09 114.073 159.326 114.08C157.887 114.094 156.707 112.945 156.682 111.507C156.656 110.068 157.795 108.878 159.233 108.841Z" fill="#EA6F1C"/>
<path d="M145.467 142.622C147.066 142.523 149.07 142.52 150.633 142.861C152.839 143.343 155.241 144.792 156.453 146.734C157.226 147.971 157.464 149.559 157.114 150.976C156.65 152.854 155.093 154.388 153.477 155.349C149.504 157.713 144.527 157.124 140.254 156.013C135.376 154.529 131.231 152.215 127.143 149.218C127.54 148.654 127.893 148.111 128.457 147.698C131.759 147.413 136.357 146.868 139.452 145.674C140.613 145.225 141.789 144.71 142.828 144.019C143.378 143.654 144.08 142.944 144.669 142.71C144.9 142.618 145.219 142.63 145.467 142.622Z" fill="#3B773B"/>
<path d="M147.35 146.63C149.293 146.409 151.045 147.813 151.253 149.757C151.461 151.702 150.045 153.445 148.099 153.639C146.171 153.832 144.449 152.433 144.243 150.507C144.037 148.58 145.425 146.848 147.35 146.63Z" fill="black"/>
<path d="M147.321 147.401C148.264 147.181 149.254 147.485 149.912 148.197C150.569 148.908 150.794 149.918 150.5 150.842C150.207 151.765 149.44 152.46 148.492 152.661C147.046 152.968 145.623 152.053 145.302 150.611C144.981 149.168 145.882 147.737 147.321 147.401Z" fill="#EA6F1C"/>
<path d="M101.729 59.7985C101.787 59.7954 101.845 59.7903 101.904 59.7899C103.612 59.7778 105.274 60.72 106.377 61.9743C111.101 67.3434 108.85 74.1813 108.465 80.5352C106.84 79.7755 104.941 79.4661 103.222 80.077C100.995 80.8688 99.3759 82.7591 98.3692 84.8344C97.7509 86.1598 97.4481 87.5997 97.0915 89.0114C96.4153 86.8536 96.3267 84.5923 95.9196 82.3778C95.2532 78.7505 94.4103 75.1579 93.7544 71.5325C94.497 70.4102 95.4083 69.4098 96.1622 68.2981C96.8813 67.2384 97.4595 65.9395 97.9376 64.7583C98.4884 63.3981 98.7642 61.9364 99.336 60.5884C99.3513 60.552 99.3677 60.5157 99.3837 60.4794C100.157 60.1325 100.889 59.9133 101.729 59.7985Z" fill="#3B773B"/>
<path d="M101.231 66.4125C101.923 66.3938 102.443 66.4758 103.039 66.8453C103.845 67.3445 104.396 68.2059 104.612 69.1195C104.838 70.0781 104.718 71.1508 104.16 71.9781C103.612 72.7918 102.871 73.1305 101.936 73.3156C101.393 73.3219 100.833 73.2277 100.335 73.0078C99.6059 72.6863 99.0883 72.0856 98.8137 71.3445C98.4551 70.3785 98.4387 69.2 98.8782 68.2574C99.3739 67.1934 100.182 66.7758 101.231 66.4125Z" fill="black"/>
<path d="M101.119 67.0051C101.669 66.966 102.1 66.9918 102.6 67.2535C103.278 67.6094 103.783 68.2238 104.003 68.9574C104.214 69.6539 104.168 70.4566 103.788 71.0883C103.396 71.7398 102.86 71.9879 102.147 72.1605C101.8 72.1711 101.475 72.1679 101.138 72.0734C100.405 71.8691 99.7928 71.3644 99.4522 70.684C99.1526 70.0851 99.0553 69.3613 99.2799 68.7219C99.6049 67.7961 100.281 67.3933 101.119 67.0051Z" fill="#EA6F1C"/>
<path d="M46.3448 82.1606C46.769 82.0735 47.3057 82.1008 47.7397 82.1149C49.1991 82.1622 52.1838 82.7973 53.3217 83.6399C54.3096 84.3711 55.0659 85.5907 55.7768 86.5813C57.244 88.627 58.6748 90.9723 60.403 92.795C60.4327 92.8262 60.4631 92.8567 60.4932 92.8879C59.0159 92.5672 57.4608 92.4602 56.0409 93.0829C54.651 93.6922 53.5975 94.9809 53.0678 96.384C51.8268 99.6712 52.8979 103.19 54.2901 106.231C54.5573 106.779 54.8358 107.322 55.1252 107.86C54.0393 107.02 52.894 106.249 51.7815 105.445C47.6248 102.44 43.9217 98.4762 41.5768 93.9008C40.9725 92.7223 40.4209 91.5305 40.2186 90.211C39.9291 88.3258 40.1717 86.386 41.3412 84.8297C42.5205 83.2602 44.4545 82.4461 46.3448 82.1606Z" fill="#3B773B"/>
<path d="M47.8101 87.9684C49.6394 87.5684 51.4457 88.7297 51.8418 90.5598C52.2375 92.3899 51.0726 94.1942 49.2418 94.5863C47.4164 94.9774 45.6187 93.8164 45.2238 91.9918C44.8289 90.1668 45.9859 88.3668 47.8101 87.9684Z" fill="black"/>
<path d="M47.8692 88.4942C48.4407 88.4391 48.9153 88.429 49.4543 88.6547C50.1688 88.9501 50.7344 89.5196 51.025 90.236C51.2903 90.9055 51.2887 91.6938 50.9774 92.3481C50.6266 93.086 50.0196 93.4676 49.2727 93.7305C48.7453 93.8395 48.2606 93.8754 47.7453 93.6852C47.0422 93.4254 46.509 92.8567 46.2227 92.1711C45.9336 91.4793 45.8778 90.6524 46.1766 89.9544C46.5219 89.1477 47.0969 88.8129 47.8692 88.4942Z" fill="#EA6F1C"/>
<path d="M51.8986 140.867L52.1505 140.842C52.6412 141.004 53.2341 142.021 53.5833 142.432C55.7884 145.02 58.8986 145.222 62.0654 145.484C62.5958 147.327 63.3076 149.085 64.0279 150.861C62.8337 151.252 61.683 152.012 60.5412 152.552C58.147 153.682 55.6119 154.38 53.0146 154.853C52.7001 154.897 52.3849 154.936 52.0697 154.972C49.0248 155.307 45.256 155.213 42.7626 153.171C41.6404 152.252 40.9361 151.023 40.7994 149.566C40.6423 147.89 41.1658 146.474 42.2353 145.202C44.5521 142.448 48.4095 141.172 51.8986 140.867Z" fill="#3B773B"/>
<path d="M49.1262 145.527C49.8777 145.467 50.5441 145.56 51.216 145.919C52.0656 146.373 52.7305 147.15 53 148.079C53.2285 148.867 53.1715 149.772 52.7652 150.494C52.2765 151.362 51.4914 151.704 50.5719 151.94C49.6867 152.037 48.9019 151.912 48.148 151.416C47.3621 150.893 46.818 150.078 46.6367 149.152C46.4715 148.322 46.5976 147.439 47.0812 146.734C47.5875 145.996 48.2785 145.698 49.1262 145.527Z" fill="black"/>
<path d="M49.0902 146.112C49.5789 146.035 50.0074 146.044 50.4757 146.218C51.2675 146.511 51.9531 147.112 52.2855 147.896C52.5171 148.443 52.5531 149.047 52.3277 149.602C52.0003 150.407 51.38 150.792 50.6249 151.13C49.9453 151.213 49.3335 151.163 48.7152 150.843C48.0343 150.49 47.4925 149.864 47.271 149.127C47.0824 148.498 47.1332 147.793 47.4675 147.222C47.8492 146.571 48.3855 146.294 49.0902 146.112Z" fill="#EA6F1C"/>
<path d="M151.574 142.609C154.827 142.615 159.005 143.323 161.949 144.635C164.054 145.573 166.298 147.27 167.106 149.516C167.573 150.815 167.478 152.212 166.875 153.449C165.386 156.506 161.789 158.215 158.74 159.254C149.641 162.354 140.71 159.758 132.447 155.703C130.076 154.569 127.952 152.907 125.717 151.527C126.102 150.886 126.531 150.293 126.979 149.695C131.89 153.833 139.88 157.204 146.241 157.418C149.691 157.535 153.135 156.704 155.708 154.29C156.971 153.104 157.788 151.559 157.822 149.804C157.87 147.204 156.071 144.878 153.809 143.752C153.29 143.493 151.947 143.109 151.625 142.699C151.604 142.672 151.591 142.639 151.574 142.609Z" fill="#8EBA7C"/>
<path d="M41.9236 140.666C44.1744 140.364 46.7166 140.663 48.9861 140.776C48.5056 140.896 48.0291 141.023 47.5611 141.187C44.8814 142.13 42.0791 143.813 40.8322 146.476C40.167 147.897 40.0275 149.519 40.597 151.001C41.2482 152.697 42.6216 153.897 44.2685 154.596C49.1834 156.683 55.1154 155.243 59.8189 153.255C61.265 152.644 62.6228 151.836 64.0779 151.251L64.2177 151.196L65.0431 152.79C64.1529 153.194 63.3009 153.706 62.4451 154.178C58.5787 156.264 54.3783 157.793 49.9943 158.276C44.8314 158.845 38.6422 158.282 34.4657 154.887C32.8532 153.577 31.4095 151.645 31.2355 149.512C31.0913 147.744 31.895 146.044 33.0398 144.741C35.1931 142.289 38.7234 140.891 41.9236 140.666Z" fill="#8EBA7C"/>
<path d="M27.7817 96.7207C27.8629 96.7133 27.9444 96.7074 28.026 96.7051C33.3288 96.5356 38.9488 98.5356 43.3535 101.37C44.211 101.922 45.1086 102.493 45.85 103.195C43.3801 102.117 40.9004 101.057 38.1672 100.932C35.9478 100.83 33.4877 101.42 31.8227 102.963C30.6026 104.093 29.991 105.615 29.9302 107.264C29.8071 110.599 31.8064 113.304 33.9635 115.622C35.0044 116.616 36.0797 117.501 37.2903 118.284C38.3787 118.988 39.5817 119.628 40.5809 120.448C35.2441 119.173 31.3962 117.525 27.1692 113.954C23.9447 111.23 21.1585 107.001 20.8319 102.709C20.7228 101.275 20.9292 99.7645 21.928 98.6551C23.3486 97.0777 25.7996 96.8559 27.7817 96.7207Z" fill="#8EBA7C"/>
<path d="M46.6433 102.064C45.7734 101.272 44.7429 100.589 43.8249 99.845C41.9706 98.3434 40.1738 96.6059 38.6683 94.7551C35.2344 90.5336 31.9007 84.3942 32.5163 78.7938C32.6729 77.3696 33.1598 76.0184 34.3314 75.1114C35.8695 73.9211 37.9197 73.8555 39.7698 74.0805C44.9249 74.7067 49.8581 79.0825 52.9698 83.0293C51.2902 82.2407 49.6195 81.6942 47.748 81.6707C45.4913 81.6418 43.1257 82.3457 41.4956 83.9657C40.221 85.2321 39.6351 86.9797 39.6359 88.7535C39.639 93.3489 43.789 98.825 46.9331 101.962L46.6433 102.064Z" fill="#8EBA7C"/>
<path d="M130.261 79.2828C131.722 73.6563 136.95 66.9051 141.951 63.9645C143.853 62.8465 146.463 61.9301 148.666 62.5457C149.924 62.8973 150.863 63.7738 151.476 64.9055C153.508 68.6602 152.345 74.7281 151.151 78.616C150.28 81.4539 148.844 83.9828 147.335 86.518C146.772 87.4625 146.055 88.4566 145.608 89.4535L145.312 89.3246C145.749 88.4508 146.01 87.4508 146.28 86.5133C147.253 83.1289 147.818 79.377 146.681 75.9527C146.097 74.1961 144.969 72.6984 143.296 71.8574C141.737 71.0734 140.017 70.8848 138.355 71.4406C134.667 72.6727 132.301 76.1867 130.261 79.2828Z" fill="#8EBA7C"/>
<path d="M169.626 99.1618C171.799 98.8965 174.513 99.3657 176.406 100.495C177.437 101.11 178.313 102.016 178.581 103.22C179.134 105.705 177.627 109.006 176.335 111.056C173.531 115.508 168.366 118.991 163.524 120.933C162.138 121.489 160.708 121.833 159.278 122.245C157.71 122.697 156.153 123.198 154.563 123.565C155.113 123.216 155.72 122.953 156.306 122.672C160.344 120.694 165.447 117.565 167.874 113.736C168.971 112.005 169.672 110.012 169.196 107.958C168.795 106.23 167.545 104.7 166.046 103.782C163.717 102.357 161.126 102.446 158.565 103.059C162.068 100.711 165.455 99.5856 169.626 99.1618Z" fill="#8EBA7C"/>
<path d="M159.467 123.449C164.901 122.009 171.894 121.139 176.972 124.045C178.185 124.738 179.473 125.855 179.871 127.239C180.265 128.61 179.776 130.089 179.083 131.279C176.32 136.025 169.104 139.878 163.886 141.241C160.533 142.117 157.501 141.79 154.141 141.257C158.822 140.545 165.234 138.009 168.129 134.126C169.143 132.766 169.646 131.172 169.386 129.471C169.12 127.731 168.068 126.168 166.642 125.155C165.006 123.992 163.158 123.747 161.208 123.666C160.476 123.724 159.204 123.97 158.509 123.731C158.818 123.587 159.134 123.523 159.467 123.449Z" fill="#8EBA7C"/>
<path d="M161.208 123.666C160.476 123.724 159.204 123.97 158.509 123.731C158.819 123.587 159.135 123.523 159.467 123.449C160.06 123.821 160.695 123.373 161.208 123.666Z" fill="#8EBA7C"/>
<path d="M162.946 78.2617C164.018 78.075 165.513 78.1566 166.538 78.514C167.634 78.8933 168.529 79.7003 169.02 80.7511C170.208 83.3101 169.198 87.0769 168.28 89.5664C165.966 95.7468 161.31 100.766 155.321 103.537C156.058 102.71 156.956 102.019 157.739 101.231C158.774 100.189 159.646 98.9972 160.529 97.8285C161.196 96.8453 161.691 95.7558 161.993 94.607C162.513 92.6668 162.438 90.6253 161.393 88.8671C160.494 87.3558 159.024 86.3332 157.331 85.9062C153.457 84.93 150.859 86.866 147.745 88.757C148.165 88.0757 148.691 87.4398 149.187 86.8113C152.606 82.4761 157.335 78.9168 162.946 78.2617Z" fill="#8EBA7C"/>
<path d="M125.751 51.7921C126.51 51.7199 127.262 51.7523 127.981 52.0273C129.376 52.5617 130.336 53.8277 130.923 55.1546C134.05 62.2199 131.579 71.407 128.944 78.2933C129.038 77.2308 129.259 76.1839 129.335 75.1167C129.597 71.4355 128.918 67.7218 127.032 64.5288C126.403 63.6367 125.687 62.9078 124.748 62.3425C123.112 61.3574 121.214 61.1007 119.363 61.564C115.953 62.4183 114.289 65.0453 112.589 67.8683C113.344 64.589 115.415 60.2156 117.435 57.5148C119.417 54.8664 122.36 52.2663 125.751 51.7921Z" fill="#8EBA7C"/>
<path d="M39.206 139.054C37.9397 139.12 36.3872 138.859 35.1249 138.677C29.9821 137.934 24.2564 135.479 21.0739 131.197C19.8957 129.611 19.0193 127.616 19.3607 125.605C19.6148 124.108 20.6082 122.689 21.8568 121.843C26.3855 118.772 33.9807 120.23 39.0276 121.237L39.0662 121.404L39.2166 121.352L39.2178 121.345C38.6582 121.528 37.9234 121.483 37.3317 121.535C35.9777 121.664 34.6565 122.028 33.4275 122.611C31.6839 123.448 30.2078 124.687 29.5598 126.56C28.9854 128.22 29.2333 129.946 30.0069 131.494C31.876 135.234 36.057 137.218 39.8373 138.498L39.7939 138.699C40.0967 138.842 40.4658 138.877 40.7951 138.937C40.4553 138.979 39.6568 138.809 39.4627 138.859C39.3584 138.886 39.2916 138.989 39.206 139.054Z" fill="#8EBA7C"/>
<path d="M85.3312 44.6649C87.0152 44.7454 88.5426 45.2114 89.7351 46.47C90.9996 47.8048 91.3855 49.5364 91.3101 51.3266C91.207 53.7782 90.0375 56.2591 88.2062 57.8997C86.564 59.3712 84.5199 59.92 82.3504 59.7997C81.7992 59.7278 81.2519 59.6294 80.7105 59.504C78.7785 59.0626 77.2437 58.2801 76.1691 56.5548C76.098 53.4173 77.2512 50.3848 79.2363 47.9676C80.8387 46.0165 82.823 44.9169 85.3312 44.6649Z" fill="white"/>
<path d="M85.3216 47.8641C86.1103 47.8172 86.8166 47.9652 87.506 48.3668C88.5009 48.9465 89.1712 49.9481 89.4564 51.0512C89.7966 52.3672 89.6923 53.8465 88.9841 55.0242C88.2369 56.2684 87.133 56.9848 85.7576 57.343C84.9998 57.3672 84.3103 57.3098 83.6142 56.9844C82.6009 56.5106 81.8517 55.6082 81.513 54.5469C81.0834 53.1981 81.2712 51.5809 81.9505 50.3488C82.7095 48.9723 83.8658 48.2945 85.3216 47.8641Z" fill="black"/>
<path d="M86.8384 49.4883C86.9595 49.4859 86.9708 49.4805 87.1083 49.5078C87.5306 49.5918 87.9708 49.884 88.1904 50.2551C88.3958 50.6023 88.4255 51.0484 88.3193 51.4332C88.1759 51.9519 87.8458 52.1687 87.4033 52.4312C87.2505 52.4488 87.0681 52.4805 86.9158 52.4621C86.6119 52.4254 86.1779 52.1918 86.0056 51.9246C85.7794 51.5738 85.7529 51.2109 85.8287 50.8066C85.9494 50.1609 86.329 49.8586 86.8384 49.4883Z" fill="white"/>
<path d="M52.9809 59.02C53.8075 59.0083 54.6168 59.1083 55.4243 59.2801C53.995 61.8161 54.0899 63.2051 53.2438 65.7641L53.1864 65.9348C53.7637 65.5129 54.2895 64.9911 54.8395 64.5309C56.3266 63.2864 57.8817 62.404 59.734 61.8258C61.1411 62.9204 61.7809 64.7364 63.0817 65.979C65.2727 68.0719 67.4442 67.7567 69.0801 70.6622C67.9567 69.8668 66.8516 69.1032 65.5356 68.659C63.3071 67.9075 60.9313 68.168 58.8379 69.2208C56.9829 70.154 55.6536 71.7766 55.0001 73.7364C53.5188 78.8118 56.4868 83.4524 58.3586 87.945C57.1133 86.4817 56.018 84.7692 54.9868 83.1497C51.8614 78.2422 49.0434 72.8692 48.4063 66.9911C48.1786 64.8875 48.2168 62.1938 49.6508 60.4805C50.5211 59.4411 51.6895 59.1266 52.9809 59.02Z" fill="#8EBA7C"/>
<path d="M99.8605 109.789C99.4226 107.987 99.1804 106.139 98.9003 104.308C98.2195 99.8589 97.2292 93.9437 98.0913 89.5464C98.6339 86.7796 99.916 83.4847 102.373 81.8695C103.556 81.0789 105.015 80.8179 106.399 81.1488C107.897 81.4972 108.962 82.5148 109.719 83.8015C111.432 86.7097 111.658 89.923 111.65 93.2164C111.647 94.1648 111.682 95.3043 111.445 96.2199C111.322 98.3121 110.174 109.428 109.123 110.897C108.928 110.461 109.967 101.633 110.192 100.509C110.213 99.7273 110.366 98.9097 110.455 98.1289C110.775 95.3148 110.95 92.5753 110.028 89.8433C109.45 88.1293 108.362 86.6652 106.724 85.8468C106.52 85.9046 106.389 85.9484 106.224 86.0843C107.872 86.898 108.93 88.0546 109.52 89.8039C110.373 92.3378 110.22 95.5226 109.893 98.1382L109.539 98.4453C109.472 97.3136 109.266 96.1449 108.771 95.1183C108.187 93.9554 107.387 92.9171 106.149 92.3953C105.227 92.0062 104.213 92.0355 103.303 92.4476C101.145 93.4261 100.436 95.7296 99.7132 97.7777C99.4621 96.2257 99.2531 94.7054 99.2199 93.1289L99.1042 93.0273L99.0992 92.65L98.9425 92.6836C98.7019 95.5183 100.459 110.769 100.298 111.189C100.026 110.785 99.9456 110.262 99.8605 109.789Z" fill="#F2BA22"/>
<path d="M99.301 90.1172C99.9901 88.3175 101.157 86.6816 102.964 85.8695C104.24 85.2961 105.447 85.3554 106.724 85.8468C106.52 85.9047 106.389 85.9484 106.224 86.0843C107.872 86.898 108.93 88.0547 109.52 89.8039C110.373 92.3379 110.22 95.5226 109.892 98.1382L109.539 98.4453C109.472 97.3136 109.266 96.1449 108.771 95.1183C108.187 93.9554 107.387 92.9172 106.149 92.3953C105.226 92.0062 104.213 92.0355 103.303 92.4476C101.145 93.4261 100.436 95.7297 99.7131 97.7777C99.4619 96.2258 99.253 94.7054 99.2198 93.1289L99.1041 93.0273L99.0991 92.65L98.9424 92.6836C98.9065 91.8461 99.1604 90.9425 99.301 90.1172Z" fill="#0B8DCB"/>
<path d="M99.301 90.1172C99.9901 88.3175 101.157 86.6816 102.964 85.8695C104.24 85.2961 105.447 85.3554 106.724 85.8468C106.52 85.9047 106.389 85.9484 106.224 86.0843C105.007 85.7371 103.717 85.8554 102.606 86.4828C101.222 87.2644 100.035 88.8476 99.6268 90.3793C99.3877 91.2769 99.3424 92.2117 99.2198 93.1289L99.1041 93.0273L99.0991 92.65L98.9424 92.6836C98.9065 91.8461 99.1604 90.9425 99.301 90.1172Z" fill="black"/>
<path d="M110.192 100.509C110.442 100.97 109.854 104.323 109.77 105.093L109.87 105.207C110.895 104.575 110.491 101.228 110.848 100.063C111.101 99.234 110.974 96.6668 111.445 96.22C111.322 98.3122 110.174 109.428 109.123 110.897C108.928 110.461 109.967 101.633 110.192 100.509Z" fill="#F2BA22"/>
<path d="M99.8607 109.789C100.058 109.628 100.092 109.61 100.09 109.333C100.088 108.96 99.9376 108.527 99.8849 108.151C99.7489 107.186 99.6634 106.196 99.5415 105.225C99.4169 104.236 99.4501 103.229 99.3302 102.241C99.2724 101.768 99.0001 101.266 99.1161 100.79C99.1587 100.614 99.1853 100.783 99.0669 100.523C99.0462 100.739 99.0482 100.835 98.9314 101.023C98.4439 100.402 99.0626 98.4726 98.9927 97.63C98.9443 97.048 98.6087 96.4874 98.59 95.9058C98.5544 94.8202 99.0118 93.0214 98.7486 92.0233C98.6614 91.6929 98.7728 91.1987 98.5919 90.9327L98.5157 91.2733C98.4915 91.1909 98.4751 91.1542 98.4798 91.0585C98.4939 90.7761 98.5732 90.5046 98.7587 90.2995L99.1013 90.389L99.165 90.0327L99.3013 90.1171C99.1607 90.9425 98.9068 91.846 98.9427 92.6835C98.7021 95.5183 100.459 110.769 100.298 111.189C100.026 110.785 99.9458 110.262 99.8607 109.789Z" fill="#F2BA22"/>
<path d="M55.2903 61.7563C56.5864 58.7215 58.5478 56.2251 61.6669 54.9719C63.5192 54.2278 65.4552 53.82 67.3509 53.2223C68.4353 52.8805 69.4767 52.3196 70.6106 52.1641C71.5134 52.0333 72.4349 52.1497 73.2774 52.5005C74.0923 52.843 74.8298 53.3809 75.4653 53.9899C75.0407 55.0672 74.5235 56.193 75.038 57.343C75.6618 58.7372 77.4048 59.4348 78.7521 59.8977C78.9255 59.9587 79.1001 60.0153 79.2763 60.0684C76.3013 61.6001 73.411 62.5188 70.0189 62.1618C68.4825 62.0001 67.0243 61.5313 65.545 61.1141C61.9978 60.1141 59.0903 60.3036 55.9212 62.259L54.7134 63.1837L55.2903 61.7563Z" fill="#F2BA22"/>
<path d="M55.2903 61.7562C55.4501 62.0031 55.6751 62.1136 55.9212 62.259L54.7134 63.1836L55.2903 61.7562Z" fill="#F2BA22"/>
<path d="M63.2974 115.721C62.4427 114.977 61.6325 114.161 60.856 113.337C57.2927 109.553 53.5442 104.553 53.745 99.0918C53.8009 97.5707 54.1923 95.9421 55.3665 94.8886C56.2243 94.1136 57.3587 93.7171 58.5126 93.7886C60.6485 93.9199 63.0759 95.5707 64.4704 97.1218C65.19 97.9222 66.7607 99.6074 66.6935 100.71L66.5751 100.791C65.6665 99.9433 64.8997 99.13 63.7935 98.5406C62.4165 97.8074 60.9212 97.3855 59.3814 97.8921C58.1103 98.3105 57.2595 99.1726 56.6692 100.342C56.7353 100.517 56.7782 100.632 56.8931 100.782C57.3774 99.6933 58.1067 98.8636 59.2454 98.4351C60.4853 97.9679 61.8044 98.105 62.981 98.6796C64.2575 99.3031 65.6177 100.45 66.3595 101.667C66.2907 102.313 66.2239 102.955 66.1064 103.595C64.9778 102.939 63.4923 102.112 62.1439 102.496C61.4661 102.69 60.9614 103.18 60.6341 103.792C59.8786 105.202 59.995 107.041 60.4868 108.52C60.6704 109.072 60.8591 109.636 61.1653 110.134C61.6446 110.912 63.1286 112.527 63.295 113.234L63.1552 113.36C63.0415 113.338 62.9278 113.324 62.82 113.28L62.6056 113.48C62.9618 113.721 63.2892 114.022 63.6208 114.296C63.4712 114.766 63.3845 115.237 63.2974 115.721Z" fill="#F2BA22"/>
<path d="M56.893 100.782C57.3774 99.6934 58.1067 98.8637 59.2454 98.4352C60.4852 97.968 61.8044 98.1051 62.9809 98.6797C64.2575 99.3032 65.6176 100.45 66.3594 101.667C66.2907 102.313 66.2239 102.956 66.1063 103.595C64.9778 102.939 63.4922 102.112 62.1438 102.497C61.4661 102.69 60.9614 103.18 60.634 103.792C59.8786 105.202 59.995 107.041 60.4868 108.52C60.6704 109.072 60.859 109.636 61.1653 110.134C61.6446 110.912 63.1286 112.527 63.295 113.234L63.1551 113.36C63.0415 113.338 62.9278 113.324 62.82 113.28C61.261 112.258 59.4665 109.78 58.4837 108.182C57.077 105.897 56.2493 103.441 56.893 100.782Z" fill="#0B8DCB"/>
<path d="M56.669 100.342C56.735 100.517 56.778 100.632 56.8928 100.782C56.2491 103.441 57.0768 105.897 58.4835 108.182C59.4663 109.78 61.2608 112.258 62.8198 113.28L62.6053 113.48C60.3799 111.712 58.2245 108.907 57.0924 106.311C56.2475 104.373 55.8815 102.358 56.669 100.342Z" fill="black"/>
<path d="M99.0464 48.8993C100.355 48.1653 101.678 47.8559 103.165 48.2895C105.471 48.9621 107.009 51.2071 108.064 53.22C110.529 57.9223 112.068 65.7871 110.4 70.9141C110.369 71.0063 110.336 71.0977 110.303 71.1891C110.2 71.5614 110.114 71.9309 109.925 72.2711C109.725 71.6153 109.851 70.6836 109.86 69.993C109.619 66.5364 108.684 63.2575 105.949 60.9032C104.63 59.7684 103.024 59.2246 101.284 59.3805C100.632 59.4387 100.021 59.6129 99.3976 59.8032C99.978 56.9953 99.9112 51.5743 99.0464 48.8993Z" fill="#8EBA7C"/>
<path d="M109.86 69.993C109.945 70.3786 109.988 70.9352 110.303 71.1891C110.2 71.5614 110.113 71.9309 109.924 72.2712C109.725 71.6153 109.851 70.6837 109.86 69.993Z" fill="#8EBA7C"/>
<path d="M86.1097 168.261C87.4448 168.55 88.7706 168.735 90.1288 168.862C90.1843 170.184 90.2562 171.509 90.4796 172.816C90.7585 174.445 91.1882 176.049 91.3929 177.69C92.6093 177.999 93.8722 178.416 94.7675 179.338C94.7714 179.379 94.7718 179.42 94.7796 179.46C94.8362 179.753 95.139 180.012 95.3405 180.223L95.2472 180.389C95.0874 180.369 94.9296 180.348 94.7706 180.322L94.6507 180.393C93.7183 179.767 92.8472 179.238 91.7851 178.851C91.7765 182.301 91.6843 183.476 89.1437 185.991C88.1722 186.952 85.9683 188.883 84.4968 188.808C84.2112 188.794 84.1269 188.712 83.9382 188.511C83.7901 187.854 84.2468 187.146 84.5917 186.607C85.2632 185.557 86.1417 184.656 86.912 183.681C87.8991 182.431 88.6659 180.999 89.2597 179.526C86.8855 182.175 84.2042 186.591 80.2519 186.795C79.8128 186.817 79.4538 186.785 79.1062 186.498C78.98 186.228 78.9413 186.063 79.0444 185.774C79.6714 184.019 82.1944 182.486 83.7605 181.708C84.6991 181.242 85.7026 180.917 86.5722 180.325C86.6253 180.289 86.6796 180.255 86.7327 180.219L86.8284 180.154C83.6929 180.896 80.9624 182.727 77.9784 183.541C77.8675 183.532 77.7569 183.52 77.6464 183.507C77.2315 183.455 77.1917 183.37 76.9526 183.066C79.5429 180.262 84.6308 178.761 88.3452 178.383C87.7448 176.094 87.3241 173.745 86.8358 171.429C86.614 170.376 86.4335 169.287 86.1097 168.261Z" fill="#F2BA22"/>
<path d="M104.478 167.903C105.125 168.381 107.049 177.223 107.32 178.568C108.819 178.602 110.332 178.621 111.815 178.858C113.496 179.126 118.415 180.243 119.354 181.549C119.338 181.728 119.379 181.769 119.202 181.888C117.668 182.914 114.671 181.506 113.136 180.999C111.934 180.599 110.725 180.221 109.51 179.863C112.795 181.727 116.655 182.628 119.176 185.615C118.654 186.162 118.126 186.437 117.357 186.493C114.687 186.686 111.714 183.772 109.831 182.193C108.661 181.34 107.576 180.231 106.507 179.253C107.736 181.522 109.927 183.352 111.831 185.042C112.679 185.795 113.545 186.514 114.239 187.42C114.464 187.715 114.781 188.09 114.727 188.483L114.561 188.605C112.392 188.834 109.512 186.886 107.922 185.6C105.49 183.632 104.571 181.902 104.232 178.808C102.849 179.513 101.701 180.498 100.455 181.412C100.631 180.916 100.797 180.419 101.102 179.984C101.853 178.909 102.982 178.312 104.249 178.096C104.463 178.059 104.418 178.064 104.548 177.915C103.749 174.755 102.934 171.64 102.335 168.432L104.478 167.903Z" fill="#F2BA22"/>
<path d="M91.6245 96.398C92.462 96.3679 93.0065 96.4347 93.6936 96.9469C96.2584 98.8578 96.537 103.214 96.9541 106.104C97.2284 108.007 97.4678 109.917 97.7881 111.813C96.612 112.156 95.5163 112.539 94.4233 113.096C93.8963 113.38 93.3967 113.711 92.892 114.032C91.3452 110.31 88.083 102.471 89.5983 98.5886C90.003 97.5519 90.6088 96.8574 91.6245 96.398Z" fill="#8EBA7C"/>
<path d="M131.434 106.652C131.749 106.636 132.082 106.608 132.395 106.653C133.089 106.752 133.695 107.141 134.117 107.691C134.775 108.55 135.071 109.568 134.891 110.64C134.273 114.323 127.935 118.774 124.969 120.915C124.854 120.877 121.886 117.486 121.4 117.043C122.171 116.213 122.763 115.186 123.416 114.259C125.367 111.49 128.061 107.646 131.434 106.652Z" fill="#8EBA7C"/>
<path d="M104.474 94.6297C104.595 94.6234 104.716 94.618 104.838 94.6203C105.565 94.6336 106.346 95.0965 106.833 95.6144C109.569 98.5203 107.621 107.145 107.471 110.944C106.677 110.87 105.888 110.846 105.092 110.83C104.015 110.825 102.94 110.837 101.864 110.87C101.842 106.489 100.134 100.685 102.221 96.6059C102.725 95.6215 103.417 94.9672 104.474 94.6297Z" fill="#8EBA7C"/>
<path d="M136.247 112.02C138.055 109.608 140.664 106.12 140.149 102.899C139.96 101.712 139.244 100.377 138.249 99.6798C137.317 99.0384 136.167 98.7954 135.054 99.004C130.858 99.797 128.021 104.809 125.713 107.962C124.635 109.434 123.421 110.867 122.437 112.4C121.664 113.606 121.084 115.097 119.848 115.912L119.707 115.874C119.541 113.873 124.39 108.517 125.646 106.752C127.075 104.745 128.302 102.574 129.89 100.685C132.021 98.1505 135.225 95.1989 138.72 94.938C139.796 94.8575 140.966 95.1548 141.798 95.8657C142.834 96.7505 143.219 98.2099 143.281 99.5259C143.514 104.427 139.665 109.139 136.523 112.542C136.278 112.807 136.029 113.068 135.776 113.326L135.581 113.281L135.578 113.02L135.36 112.866C135.532 112.587 135.709 112.312 135.89 112.039L136.247 112.02Z" fill="#F2BA22"/>
<path d="M135.89 112.039L136.247 112.02C136.032 112.352 135.829 112.715 135.578 113.02L135.36 112.866C135.532 112.587 135.709 112.312 135.89 112.039Z" fill="black"/>
<path d="M117.165 100.51C117.423 100.531 117.697 100.545 117.947 100.612C118.718 100.818 119.408 101.475 119.756 102.176C121.315 105.323 118.53 110.9 117.479 114.047C116.905 113.725 116.282 113.468 115.684 113.192C114.347 112.599 112.942 112.15 111.559 111.672C111.934 108.82 112.713 105.295 114.203 102.834C114.884 101.71 115.864 100.828 117.165 100.51Z" fill="#8EBA7C"/>
<path d="M51.6776 122.865C52.7705 125.471 55.6631 127.589 58.1487 128.737C58.8467 129.06 60.4897 129.327 60.8862 129.904C60.9049 130.164 60.9108 130.22 60.8006 130.453C60.6963 130.489 60.6666 130.508 60.5409 130.503C60.126 130.486 59.4998 130.194 59.1077 130.055C56.0655 128.975 53.0541 127.439 50.6608 125.246C48.8838 123.616 47.0416 121.474 46.985 118.936C46.958 117.719 47.4241 116.392 48.2952 115.529C49.4112 114.423 51.0955 114.108 52.6123 114.14C55.5092 114.2 58.4764 115.51 60.942 116.942C61.4885 117.259 62.1221 117.585 62.5495 118.057C62.7088 118.234 62.8576 118.428 62.8366 118.67L62.7346 118.735C61.9319 118.815 60.5366 117.723 59.7077 117.377C57.5182 116.462 55.7201 116.221 53.492 117.136C53.8213 117.216 54.0565 117.235 54.394 117.199C53.3034 117.627 52.367 118.214 51.8662 119.327C51.3752 120.42 51.5569 121.491 51.9049 122.585L51.6776 122.865Z" fill="#F2BA22"/>
<path d="M51.6773 122.865C51.6534 122.824 51.6284 122.784 51.6054 122.742C51.0765 121.784 51.0288 120.494 51.3632 119.472C51.7304 118.35 52.4601 117.655 53.4917 117.136C53.821 117.216 54.0562 117.235 54.3937 117.199C53.303 117.627 52.3667 118.214 51.8659 119.327C51.3749 120.42 51.5565 121.491 51.9046 122.585L51.6773 122.865Z" fill="black"/>
<path d="M135.498 120.44C136.001 120.378 136.454 120.455 136.929 120.632C137.723 120.929 138.345 121.469 138.691 122.252C139.047 123.058 139.008 123.938 138.664 124.74C137.504 127.441 133.075 129.141 130.504 130.173C130.203 130.316 129.834 130.398 129.515 130.501C128.986 128.352 128.127 126.402 127.205 124.401C129.507 122.402 132.479 120.902 135.498 120.44Z" fill="#8EBA7C"/>
<path d="M91.4356 18.826L91.6571 18.637C91.6181 18.4933 91.5798 18.4144 91.5063 18.2884C91.6294 17.7805 92.3395 17.2858 92.7731 17.0186C92.9634 16.9015 93.1075 16.8211 93.3372 16.8437L93.4032 17.0915C93.5341 17.0997 93.5798 17.1376 93.6829 17.0434C93.7864 16.9487 93.8356 16.8569 93.9009 16.7354C94.3989 16.6054 94.9528 16.9294 95.3688 17.176C95.7153 17.3812 96.1845 17.6914 96.3052 18.1004C96.4134 18.4675 95.9829 18.5032 96.4657 18.8376C96.5509 18.8968 96.6407 18.9494 96.7294 19.004C96.9157 19.4004 96.8352 19.6735 96.6872 20.0631C96.4868 20.5918 96.2431 20.9866 95.8399 21.3822L95.7911 21.457C95.1337 22.4491 94.3341 23.3606 93.6278 24.3202C92.361 26.042 91.4181 28.0241 90.7497 30.0489C90.1548 31.8514 90.0102 34.1152 89.1489 35.7543C88.7032 35.4618 88.2989 35.2842 87.7993 35.1114C88.0692 34.0629 88.1747 32.9793 88.3188 31.9077C88.6825 29.2009 88.9614 25.9124 89.7032 23.3344C89.8724 22.1234 90.2075 20.7649 90.7099 19.6486C90.902 19.221 90.9974 18.9905 91.4356 18.826Z" fill="#FA3948"/>
<path d="M91.5078 18.1759C91.6742 17.7259 92.3047 17.2945 92.7383 17.0274C93.2424 16.6338 93.7226 16.6847 94.135 16.6846C94.5474 16.6845 94.9529 16.9294 95.3689 17.176C95.7154 17.3813 96.1643 17.7011 96.3246 18.067C96.485 18.433 96.5406 18.6253 96.7295 19.0041C96.9184 19.3829 96.8354 19.6736 96.6873 20.0631C96.4869 20.5918 96.2432 20.9867 95.84 21.3822C95.7338 20.8794 95.9123 20.3749 96.0248 19.8834C95.8732 19.3714 95.7037 18.898 95.2947 18.5314C94.8764 18.1567 94.3443 18.0118 93.7904 18.067C92.7268 18.1729 92.0518 18.8521 91.4068 19.6245C91.3971 19.5595 90.6135 20.1199 90.7307 19.6245C90.8478 19.129 91.3414 18.6258 91.5078 18.1759Z" fill="white"/>
<path d="M89.7031 23.3345C89.8723 22.1235 90.2074 20.765 90.7098 19.6487C90.902 19.2211 90.9973 18.9906 91.4355 18.826C91.482 19.1035 91.3891 19.1924 91.377 19.4295C91.3738 19.4952 91.3969 19.5595 91.4066 19.6245C91.123 20.1476 89.9254 23.3158 89.8559 23.3778L89.7031 23.3345Z" fill="white"/>
<path d="M111.943 100.566C112.571 96.6926 114.34 92.4188 117.629 90.0582C119.036 89.0481 120.808 88.4317 122.55 88.7555C123.875 89.0024 125.01 89.8258 125.75 90.9403C127.066 92.9246 126.929 95.6614 126.432 97.8864C126.045 99.6188 125.412 102.324 124.387 103.742C123.794 104.121 123.763 104.966 123.225 105.469C123.086 105.413 123.131 105.452 123.068 105.381C123.608 104.034 124.152 102.652 124.535 101.251C125.105 99.1606 125.177 96.8047 124.033 94.8828C123.325 93.691 122.236 93.0043 120.92 92.6656C119.604 92.334 118.384 92.5071 117.22 93.2102C114.623 94.7781 113.455 97.9211 112.441 100.629L112.279 100.723L111.943 100.566Z" fill="#F2BA22"/>
<path d="M95.2529 23.7792C96.3377 22.384 97.61 20.8467 99.4728 20.5689C100.219 20.4577 101.034 20.6171 101.632 21.0918C102.051 21.4245 102.337 21.9076 102.393 22.4429C102.474 23.1998 102.147 23.9641 101.663 24.532C101.609 24.5957 101.553 24.6585 101.496 24.7203L101.419 24.7862C100.413 25.6319 99.2049 26.1376 98.1447 26.8955C94.6479 29.3959 92.6982 32.8576 91.2006 36.7898C90.7607 36.503 90.3252 36.1886 89.8506 35.9632C90.4104 32.7395 91.8846 28.5144 93.7771 25.8634C93.9686 25.5949 94.2018 25.168 94.4596 24.9855C94.6811 24.5568 94.974 24.172 95.2529 23.7792Z" fill="#FA3948"/>
<path d="M95.2534 23.7792C96.3382 22.384 97.6104 20.8467 99.4733 20.5689C100.219 20.4577 101.035 20.6171 101.632 21.0918C102.051 21.4245 102.337 21.9076 102.394 22.4429C102.474 23.1998 102.147 23.9641 101.664 24.532C101.609 24.5957 101.553 24.6585 101.497 24.7203C101.359 24.2642 101.756 23.7945 101.765 23.3074C101.774 22.8322 101.464 22.2559 101.131 21.9286C100.733 21.5378 100.207 21.4398 99.6663 21.4715C97.953 21.5721 96.6034 22.8265 95.5249 24.0376L95.2534 23.7792Z" fill="white"/>
<path d="M95.2533 23.7791L95.5248 24.0375C95.2865 24.3862 95.0873 24.728 94.7287 24.9651L94.46 24.9854C94.6814 24.5567 94.9744 24.1719 95.2533 23.7791Z" fill="white"/>
<path d="M96.8141 29.1831C98.3277 27.7684 100.387 26.1804 102.593 26.2932C103.445 26.3367 104.273 26.7201 104.828 27.3752C105.266 27.8936 105.498 28.5569 105.417 29.2366C105.324 30.0131 104.84 30.6546 104.218 31.1001C103.998 31.2569 103.773 31.3978 103.528 31.5104C102.53 31.9767 101.246 32.0685 100.18 32.3751C96.9875 33.2935 94.793 35.4551 92.5961 37.8136C92.3113 37.5878 92.0379 37.347 91.7617 37.1106C91.7898 37.0023 91.8203 36.8954 91.8504 36.7876C92.5129 34.4138 94.8394 30.6863 96.8141 29.1831Z" fill="#FA3948"/>
<path d="M96.814 29.1831C98.3276 27.7684 100.387 26.1804 102.593 26.2932C103.445 26.3367 104.273 26.7201 104.828 27.3752C105.266 27.8936 105.498 28.5569 105.417 29.2366C105.324 30.0131 104.84 30.6546 104.217 31.1001C103.998 31.2569 103.773 31.3978 103.528 31.5104C103.825 30.5778 104.673 29.8444 104.475 28.7655C104.335 28.0054 103.608 27.4697 103.002 27.0734C100.405 26.779 99.471 27.8234 97.4534 29.066C97.2003 29.2219 97.0995 29.2571 96.814 29.1831Z" fill="white"/>
<path d="M122.238 104.168C122.299 103.535 122.307 102.911 122.196 102.284C121.951 100.909 121.273 99.6785 120.098 98.8852C118.299 97.6719 116.065 97.9508 114.522 99.4414C114.16 99.7906 113.223 101.252 112.822 101.323C112.782 101.142 112.764 100.984 112.797 100.801C112.898 100.226 113.245 99.5887 113.479 99.052C114.402 96.9402 115.378 94.9867 117.342 93.6547C118.457 92.8996 119.507 92.7672 120.798 93.0184C122.092 93.4922 123.156 94.0942 123.774 95.4016C125.446 98.9418 123.624 101.929 122.555 105.274C122.401 105.273 122.267 105.231 122.118 105.195L122.238 104.168Z" fill="#0B8DCB"/>
<path d="M131.796 118.628C135.773 115.605 141.604 112.715 146.757 113.429C148.053 113.609 149.392 114.24 150.18 115.309C150.797 116.146 151.035 117.145 150.871 118.171C150.392 121.16 147.269 123.896 144.923 125.528C144.801 125.613 144.676 125.684 144.544 125.75C144.748 125.117 145.741 124.669 146.23 124.261C146.542 124.001 146.827 123.696 147.106 123.402C146.99 123.402 146.874 123.403 146.757 123.406C146.667 123.221 146.568 123.076 146.439 122.914C145.73 122.984 144.63 125.118 143.639 125.251C143.585 125.259 143.53 125.26 143.476 125.264C144.902 124.125 146.383 122.803 146.99 121.021C147.33 120.025 147.3 118.991 146.811 118.05C146.247 116.966 145.199 116.126 144.025 115.796C140.314 114.751 135.65 117.319 132.467 119.026L131.796 118.628Z" fill="#F2BA22"/>
<path d="M85.4786 17.4822C85.5087 17.4565 85.5376 17.4299 85.5684 17.4053C86.0083 17.0542 87.2094 16.2151 87.7317 16.2714C87.7563 16.3182 87.7794 16.3658 87.8051 16.4119C88.163 17.0504 89.3649 17.5747 89.3012 18.3363L88.9555 18.6823L89.3497 19.5526L89.4665 19.5905C89.5778 19.347 89.6083 19.1734 89.6348 18.9118C89.7309 20.2223 88.6516 24.0578 88.3997 25.7031C87.9301 28.7677 87.659 31.9152 87.4571 35.009C86.9028 34.8645 86.3743 34.7642 85.8048 34.7043C86.1712 31.8285 86.3805 29.1913 85.5536 26.3625C85.2075 25.1776 84.6633 23.862 84.5219 22.638C84.2821 21.7125 84.1645 20.6799 84.1837 19.7239C84.1969 19.0731 84.2567 18.3339 84.7473 17.8577C85.0028 17.7879 85.1778 17.6827 85.395 17.5385L85.4786 17.4822Z" fill="#FA3948"/>
<path d="M84.7401 18.3363C83.9717 18.3363 85.3206 17.0759 85.8716 16.7397C86.3114 16.3886 87.2095 16.215 87.7317 16.2713C87.7563 16.3181 87.7794 16.3658 87.8052 16.4118C88.163 17.0503 89.3649 17.5747 89.3012 18.3363L88.9555 18.6822C88.9329 18.6524 88.9095 18.6232 88.8876 18.5926C88.4638 17.9958 88.095 17.7257 87.4485 17.4047C86.6466 17.4871 86.1497 17.5967 85.4614 18.0593C85.4415 17.8471 83.8817 18.7508 84.7401 18.3363Z" fill="white"/>
<path d="M84.5219 22.638C84.2821 21.7125 84.1645 20.6799 84.1837 19.7239C84.1969 19.073 84.2567 18.3339 84.7473 17.8577C85.0028 17.7878 85.1778 17.6827 85.395 17.5385L85.4786 17.4822C85.4567 17.6928 85.4415 17.8471 85.4614 18.0594C84.0825 19.9799 85.1251 21.1801 84.5219 22.638Z" fill="white"/>
<path d="M128.046 105.445C129.731 102.907 132.002 100.018 135.183 99.398C136.125 99.2144 137.071 99.332 137.858 99.9094C138.764 100.574 139.589 101.946 139.738 103.06C140.058 105.459 138.207 108.192 137.011 110.144C136.922 108.402 136.726 106.862 135.346 105.622C134.35 104.727 133.114 104.286 131.778 104.399C130.678 104.493 129.778 104.885 128.886 105.524C128.579 105.532 128.346 105.513 128.046 105.445Z" fill="#0B8DCB"/>
<path d="M86.6045 90.1848C87.2267 89.4907 87.8947 88.8571 88.7853 88.527C89.7517 88.1578 90.8279 88.2036 91.7599 88.6532C93.2455 89.3797 94.5049 91.1086 95.001 92.6618C95.356 93.7731 95.4974 94.9481 95.8795 96.052C95.8912 96.086 95.9037 96.12 95.9158 96.1539C95.9357 96.3621 95.9709 96.5797 95.9709 96.7883C94.8115 95.4879 93.8752 94.2188 91.9767 94.0649C90.9267 93.9797 89.976 94.3887 89.2099 95.0907C88.1377 96.0735 87.54 97.4782 87.2029 98.8676L86.7334 99.4043C86.276 96.3727 86.3135 93.2313 86.6045 90.1848Z" fill="#0B8DCB"/>
<path d="M135.062 118.139C137.576 117.024 141.558 115.237 144.333 116.314C145.297 116.688 146.108 117.552 146.506 118.498C146.854 119.325 146.802 120.165 146.462 120.986C145.542 123.206 143.237 124.932 141.264 126.153L140.682 125.811C140.704 125.785 140.727 125.76 140.747 125.732C141.419 124.821 141.784 123.22 141.637 122.115C141.485 120.979 140.808 119.977 139.888 119.311C138.499 118.306 136.855 118.373 135.247 118.615L135.062 118.139Z" fill="#0B8DCB"/>
<path d="M133.079 145.217C135.425 144.639 138.679 144.16 140.063 141.914C140.618 141.013 140.736 139.828 140.446 138.816C140.135 137.734 139.35 136.859 138.36 136.345C136.306 135.279 134.184 135.453 131.96 135.663C131.531 135.704 130.874 135.843 130.454 135.749C130.2 135.691 130.17 135.668 130.063 135.455C130.173 135.177 130.323 135.081 130.599 134.97C133.217 133.912 139.035 133.95 141.652 135.138C142.787 135.653 143.789 136.441 144.254 137.635C144.625 138.587 144.647 139.632 144.224 140.571C143.262 142.71 140.198 143.861 138.134 144.581C136.82 145.044 135.474 145.411 134.107 145.679C132.213 146.131 130.112 146.36 128.167 146.477C129.729 145.82 131.436 145.584 133.079 145.217Z" fill="#F2BA22"/>
<path d="M128.167 146.477C129.729 145.82 131.436 145.584 133.079 145.217L133.52 145.362L133.33 145.412L133.403 145.352L133.306 145.521L133.163 145.416C132.772 145.429 132.57 145.461 132.238 145.674C132.785 145.845 133.488 145.548 134.107 145.679C132.213 146.131 130.112 146.36 128.167 146.477Z" fill="#F2BA22"/>
<path d="M54.3938 117.199C56.2199 116.636 58.3352 117.205 59.9781 118.072C60.6715 118.438 62.2449 119.131 62.4645 119.942C62.5141 120.126 62.4512 120.207 62.3926 120.379L62.2445 120.509C61.8707 120.448 61.5367 120.19 61.1848 120.047C59.7914 119.48 58.1856 119.23 56.902 120.195C56.2664 120.673 55.8176 121.31 55.7043 122.107C55.5102 123.474 56.2133 125.205 57.0445 126.28C57.6274 127.035 58.3668 127.707 59.093 128.321L58.8465 128.551C56.0235 127.001 53.3551 125.612 51.9047 122.585C51.5567 121.491 51.375 120.42 51.866 119.327C52.3668 118.214 53.3031 117.627 54.3938 117.199Z" fill="#0B8DCB"/>
<path d="M71.0658 40.7309C71.3771 40.7161 71.6943 40.6938 71.9994 40.7719C72.733 40.9594 73.3123 41.459 73.6685 42.118C74.6717 43.9751 74.1197 46.436 73.5338 48.3364C73.5166 47.4141 73.5568 46.3918 73.2701 45.5051C73.0404 44.7946 72.6017 44.0895 71.9072 43.7583C71.3517 43.4934 70.6721 43.5012 70.0975 43.7012C69.0631 44.061 68.2377 44.952 67.8021 45.9387C67.2572 47.1739 67.2455 48.4536 67.7092 49.7083C68.2189 50.4899 68.8764 50.995 69.6514 51.4856C68.126 52.2118 66.6049 52.5137 65.0158 53.0278C64.5119 50.3333 64.8592 48.143 66.0174 45.6493C67.1135 43.2895 68.6099 41.6368 71.0658 40.7309Z" fill="white"/>
<path d="M77.9193 62.0132L77.9482 62.2042C77.2334 63.2335 76.4986 64.2706 75.6236 65.1714C74.1381 66.7007 72.0514 67.7003 69.9025 67.7089C67.3658 67.7194 65.3904 66.4956 63.6377 64.7679C63.0111 64.1468 62.4912 63.4546 62.0283 62.7062C63.7127 63.2808 65.5779 63.678 67.3279 64.0015C71.4518 64.7636 74.4604 64.4038 77.9193 62.0132Z" fill="#F2BA22"/>
<path d="M60.0845 144.052C58.097 143.946 55.9201 143.179 54.492 141.756C53.4963 140.764 52.8349 139.466 52.8611 138.035C52.8759 136.831 53.397 135.688 54.2974 134.887C55.6924 133.634 57.5275 133.426 59.3201 133.405C59.613 133.402 60.0576 133.335 60.333 133.401C60.4736 133.435 60.5927 133.485 60.6599 133.617C60.7771 133.848 60.7931 134.228 60.7033 134.472C60.6025 134.744 58.8506 134.934 58.4404 135.123C57.4216 135.592 56.6384 136.458 56.2728 137.518C55.8947 138.594 55.9728 139.779 56.488 140.796C57.2482 142.262 58.6673 142.814 60.14 143.29C60.0443 143.553 60.0681 143.78 60.0845 144.052Z" fill="#F2BA22"/>
<path d="M87.4187 84.4914C87.9683 84.2473 88.5241 83.9973 89.1163 83.8769C90.1339 83.6703 91.1452 84.0684 91.9694 84.6473C94.2729 86.2656 95.8882 89.8477 96.3714 92.5348C96.2077 93.1059 95.8722 93.7637 95.8753 94.3445C95.4972 92.5762 94.9909 90.8141 93.6804 89.5008C92.6968 88.5152 91.4128 87.8496 89.9948 87.8758C88.5366 87.9023 87.5858 88.6035 86.605 89.5851C86.6358 87.8894 86.8308 86.0891 87.4187 84.4914Z" fill="#F2BA22"/>
<path d="M131.134 136.023C133.593 135.851 136.98 135.625 138.988 137.32C139.669 137.894 140.017 138.635 140.075 139.519C140.14 140.509 139.891 141.396 139.223 142.139C138.157 143.324 136.592 143.87 135.087 144.226C134.907 144.208 134.715 144.249 134.536 144.221C134.246 144.174 134.224 144.06 134.066 143.83C135.036 143.196 135.981 142.415 136.261 141.228C136.456 140.398 136.273 139.593 135.8 138.893C134.712 137.286 132.877 136.643 131.134 136.023Z" fill="#0B8DCB"/>
<path d="M111.696 105.89C112.301 104.419 112.652 102.881 113.506 101.514C114.277 100.278 115.449 99.0578 116.927 98.7586C117.935 98.5543 119.067 98.7828 119.921 99.357C120.842 99.9754 121.443 100.941 121.663 102.016C121.881 102.966 121.745 103.92 121.649 104.877C121.72 104.9 121.814 104.898 121.889 104.905C121.955 104.586 121.987 104.4 122.238 104.168L122.118 105.195C122.267 105.231 122.4 105.273 122.554 105.274C122.384 105.738 122.222 106.21 122.033 106.667L121.997 106.772C121.904 107.027 121.807 107.281 121.707 107.533L121.943 107.722L121.856 107.522C121.971 107.342 122.085 107.164 122.192 106.979L122.317 106.946C122.133 107.463 121.849 108.026 121.883 108.58L121.658 108.634C121.642 108.663 121.625 108.693 121.609 108.722C121.202 109.485 121.001 110.473 120.495 111.158L120.354 111.127L120.332 110.942L120.129 110.447C119.534 111.912 119 113.609 118.078 114.901C118.263 113.485 118.724 112.18 119.184 110.837C120.146 108.028 121.675 104.774 120.182 101.878C119.736 101.013 118.996 100.363 118.053 100.094C117.275 99.8711 116.513 100.003 115.818 100.406C113.702 101.632 112.605 104.714 112.048 106.944C111.884 106.861 111.847 106.84 111.733 106.686C111.731 106.419 111.715 106.156 111.696 105.89Z" fill="#F2BA22"/>
<path d="M121.649 104.877C121.72 104.9 121.814 104.898 121.889 104.905C121.955 104.586 121.987 104.4 122.238 104.168L122.118 105.195C122.267 105.231 122.4 105.273 122.554 105.274C122.384 105.738 122.222 106.21 122.033 106.667L121.997 106.772C121.904 107.027 121.807 107.281 121.707 107.533L121.943 107.722L121.856 107.522C121.971 107.342 122.085 107.164 122.192 106.979L122.317 106.946C122.133 107.463 121.849 108.026 121.883 108.58L121.658 108.634C121.642 108.663 121.625 108.693 121.609 108.722C121.202 109.485 121.001 110.473 120.495 111.158L120.354 111.127L120.332 110.942L120.129 110.447C120.598 108.892 121.178 107.49 121.444 105.872C121.501 105.536 121.561 105.207 121.649 104.877Z" fill="black"/>
<path d="M120.332 110.942C120.462 110.116 120.805 109.019 121.356 108.377L121.515 108.365L121.658 108.634C121.642 108.663 121.625 108.693 121.609 108.722C121.202 109.485 121.001 110.473 120.495 111.158L120.354 111.127L120.332 110.942Z" fill="black"/>
<path d="M122.033 106.667C121.817 106.203 121.967 105.66 122.118 105.195C122.267 105.231 122.401 105.273 122.554 105.274C122.384 105.738 122.222 106.21 122.033 106.667Z" fill="#0B8DCB"/>
<path d="M121.444 105.872C121.191 104.65 121.301 103.345 121.461 102.12L121.663 102.016C121.881 102.966 121.744 103.92 121.648 104.877C121.561 105.207 121.501 105.536 121.444 105.872Z" fill="#F2BA22"/>
<path d="M60.5589 135.107L60.6101 135.126C60.6995 135.311 60.6925 135.407 60.6976 135.605L60.6992 135.692L60.7929 135.782L60.7195 135.839C60.7472 138.348 61.1175 140.763 61.4593 143.243C60.3874 142.944 59.3511 142.638 58.3456 142.154C58.2355 142.088 58.2257 142.086 58.1054 141.996C57.214 141.337 56.53 140.394 56.4011 139.273C56.2917 138.322 56.5812 137.425 57.1956 136.696C58.0847 135.643 59.223 135.2 60.5589 135.107Z" fill="#0B8DCB"/>
<path d="M89.944 76.0477C91.7948 78.3813 92.7515 81.5755 93.6335 84.3735C93.0628 83.9704 92.4886 83.6028 91.8831 83.254C90.2608 82.645 89.1897 82.6278 87.5112 83.0516C88.2417 80.6661 88.73 78.2657 89.944 76.0477Z" fill="#8EBA7C"/>
<path d="M90.7157 111.781C89.3399 108.186 87.2399 102.758 87.8395 98.9019C88.0598 97.4859 88.7505 96.0379 89.9512 95.2054C90.6817 94.6988 91.5602 94.4699 92.4407 94.6336C93.7509 94.8765 94.4895 95.798 95.2145 96.8168L94.6919 97.1664C93.968 96.4687 93.1196 95.8586 92.0653 95.8722C91.2505 95.8828 90.4563 96.3703 89.927 96.966C88.7165 98.3285 88.5345 100.462 88.6782 102.197C88.7841 103.474 89.0868 104.67 89.4376 105.896C89.5903 106.43 89.8434 107.041 89.9114 107.587C90.3286 108.712 90.6884 109.865 91.1208 110.982C91.468 111.88 91.9403 112.756 92.2219 113.676C92.2938 113.911 92.3536 114.136 92.2665 114.373L92.0844 114.435C91.4305 114.09 90.9356 112.467 90.7157 111.781Z" fill="#F2BA22"/>
<path d="M89.9113 107.587C90.3285 108.712 90.6883 109.865 91.1207 110.982C91.4679 111.881 91.9402 112.756 92.2219 113.676C92.2937 113.911 92.3535 114.136 92.2664 114.373L92.0843 114.435C91.4304 114.09 90.9355 112.467 90.7156 111.781L90.9164 111.883C91.1781 112.301 91.5355 112.84 91.6515 113.319C91.6656 113.377 91.6765 113.436 91.689 113.495L91.784 113.54C91.9133 112.606 89.8094 109.204 89.9113 107.587Z" fill="#F2BA22"/>
<path d="M123.149 112.586C124.954 110.303 127.444 106.725 130.106 105.485C131.276 104.94 132.656 104.75 133.881 105.23C134.938 105.641 135.779 106.469 136.207 107.518C136.835 109.082 136.502 110.552 135.89 112.039C135.709 112.312 135.532 112.587 135.36 112.866L135.578 113.02L135.581 113.28L135.776 113.326C135.383 113.746 135.073 114.212 134.46 114.252L134.184 114.488L134.145 114.287C134.361 113.908 134.658 113.605 134.894 113.244C135.047 113.008 135.076 112.923 135.029 112.647C134.689 113.134 134.096 114.227 133.529 114.347C134.519 113.034 135.511 111.563 135.491 109.848C135.487 108.802 135.062 107.802 134.314 107.071C133.649 106.424 132.752 106.04 131.819 106.064C128.424 106.151 125.786 110.896 123.734 113.087L123.623 113.205C123.304 112.975 123.25 112.983 123.149 112.586Z" fill="#F2BA22"/>
<path d="M135.36 112.866L135.578 113.02L135.581 113.28L135.775 113.326C135.383 113.746 135.073 114.212 134.459 114.252C134.687 113.744 135.031 113.311 135.36 112.866Z" fill="#F2BA22"/>
<path d="M69.1299 68.5562C69.8209 68.5539 70.6061 68.4929 71.2791 68.6468C71.3295 68.6582 71.3791 68.6726 71.4295 68.6847C72.1932 68.8687 72.8865 69.2777 73.5787 69.6402C73.6857 70.6519 73.6732 71.6804 73.7689 72.6957C73.8818 73.8925 74.1725 75.1843 74.0924 76.3843C74.0682 76.7441 73.8951 77.0796 73.7451 77.4015L73.6674 77.5429L73.5295 77.5117C73.0279 76.532 72.6939 75.4589 72.2186 74.4613C71.2615 72.4523 70.1783 70.5179 69.1299 68.5562Z" fill="#8EBA7C"/>
<path d="M130.198 137.752C131.322 137.903 132.715 138.356 133.455 139.252C133.782 139.649 133.972 140.155 133.896 140.672C133.747 141.671 132.885 142.273 132.117 142.806C131.216 143.314 130.267 143.609 129.28 143.904C129.87 141.882 130.036 139.84 130.198 137.752Z" fill="#8EBA7C"/>
<path d="M132.634 120.074C134.488 119.321 136.965 118.558 138.929 119.354C139.814 119.707 140.521 120.398 140.894 121.274C141.341 122.344 141.229 123.568 140.764 124.612C140.337 125.571 139.416 126.739 138.467 127.234C138.253 127.245 138.012 127.202 137.796 127.184C137.773 126.962 138.08 126.798 138.148 126.5C138.379 126.203 138.608 125.905 138.799 125.58C139.377 124.598 139.653 123.432 139.329 122.315C139.09 121.489 138.54 120.834 137.78 120.436C136.262 119.642 134.668 120.013 133.136 120.505L132.634 120.074Z" fill="#F2BA22"/>
<path d="M100.269 102.852C99.8136 101.527 100.321 98.3976 100.657 97.0683C101.048 95.5203 101.775 93.9719 103.222 93.1445C104.031 92.682 104.993 92.5312 105.893 92.798C107.06 93.1441 107.821 94.134 108.368 95.1621L108.833 96.3926C108.521 96.8359 108.597 97.4394 108.617 97.9566C108.623 98.1023 108.615 98.2324 108.592 98.3762C108.23 96.8828 107.673 95.5371 106.314 94.6715C105.66 94.2554 104.893 94.0433 104.125 94.2238C103.164 94.4496 102.453 95.2453 101.975 96.0668C100.859 97.9875 100.804 100.434 100.767 102.598L100.626 102.564C100.61 102.6 100.595 102.635 100.578 102.67C100.499 102.827 100.535 102.77 100.397 102.899L100.348 102.814L100.269 102.852Z" fill="#F2BA22"/>
<path d="M59.4029 121.688C60.2994 121.731 61.19 121.901 61.9611 122.375C61.8486 123.64 61.7147 126.12 61.2752 127.217C61.1936 127.42 61.1955 127.437 60.9865 127.52L60.699 127.39C59.6447 126.678 58.5018 125.751 57.9975 124.548C57.7725 124.012 57.6428 123.357 57.9022 122.809C58.1928 122.194 58.801 121.912 59.4029 121.688Z" fill="#8EBA7C"/>
<path d="M143.476 125.264C143.531 125.26 143.585 125.259 143.64 125.251C144.631 125.118 145.73 122.984 146.44 122.915C146.568 123.076 146.667 123.221 146.758 123.406C146.874 123.404 146.99 123.402 147.106 123.402C146.827 123.697 146.542 124.001 146.231 124.261C145.742 124.67 144.748 125.117 144.544 125.75C143.54 127.166 133.731 131.523 131.829 132.245C131.309 132.441 130.572 132.746 130.043 132.509L130.076 132.328C130.627 131.744 131.467 131.492 132.193 131.192C136.14 129.592 139.919 127.606 143.476 125.264Z" fill="#F2BA22"/>
<path d="M63.1401 104.893C64.0998 104.834 64.7377 104.853 65.601 105.311C65.3073 107.401 64.6889 109.602 64.001 111.594C63.9436 111.737 63.9905 111.666 63.8307 111.784C63.7237 111.734 63.6584 111.683 63.5838 111.589C62.6244 110.388 61.8889 108.357 62.0534 106.811C62.1459 105.943 62.483 105.439 63.1401 104.893Z" fill="#8EBA7C"/>
<path d="M90.5083 75.1934C91.1778 74.2309 91.9645 73.3566 92.7599 72.498C93.2466 74.5168 93.7134 76.5117 94.0942 78.5555C94.4442 80.4336 94.7063 82.3281 95.0931 84.1988L94.8493 84.482C94.0767 81.6762 92.3942 77.4297 90.5083 75.1934Z" fill="#8EBA7C"/>
<path d="M59.4483 127.917C59.1323 127.708 58.8171 127.498 58.537 127.241C57.3678 126.168 56.2018 124.426 56.1569 122.794C56.137 122.055 56.3768 121.268 56.9151 120.744C57.4718 120.203 58.2983 119.98 59.0585 119.986C59.9346 119.993 61.4464 120.405 62.0718 121.084C62.2303 121.257 62.2233 121.304 62.2217 121.525C62.1635 121.582 62.1194 121.657 62.0471 121.695C61.9651 121.738 59.7116 121.232 59.1272 121.297C58.6053 121.355 58.0604 121.5 57.7292 121.938C57.335 122.459 57.337 123.359 57.4182 123.974C57.6268 125.552 58.7499 126.556 59.9456 127.457L59.4483 127.917Z" fill="#F2BA22"/>
<path d="M95.8755 94.3444C95.8724 93.7636 96.2079 93.1058 96.3716 92.5347C96.9099 94.8206 97.0997 97.2831 97.4263 99.6097C97.8122 102.208 98.1482 104.813 98.4337 107.424C98.5755 108.702 98.799 110.035 98.7189 111.321L98.5107 111.612L98.6243 111.758C97.7302 110.972 97.1724 101.91 96.9689 100.142C96.8427 99.048 96.64 97.962 96.4376 96.88C96.2872 96.8366 96.1247 96.8167 95.9708 96.7882C95.9708 96.5796 95.9357 96.362 95.9157 96.1538C96.0341 95.8718 96.0755 95.6003 96.1224 95.3011L95.8755 94.3444Z" fill="#F2BA22"/>
<path d="M96.1222 95.3011C96.2288 95.823 96.3612 96.3539 96.4374 96.8801C96.287 96.8367 96.1245 96.8168 95.9706 96.7883C95.9706 96.5797 95.9354 96.3621 95.9155 96.1539C96.0339 95.8719 96.0753 95.6004 96.1222 95.3011Z" fill="black"/>
<path d="M131.737 143.625C132.824 142.93 134.104 142.123 134.398 140.764C134.524 140.178 134.4 139.593 134.051 139.107C133.211 137.938 130.305 137.338 130.059 136.788C130.749 136.473 132.125 136.903 132.813 137.156C133.931 137.568 135.11 138.343 135.637 139.442C135.934 140.062 135.963 140.738 135.716 141.38C135.227 142.657 133.938 143.413 132.734 143.91C132.55 143.986 132.365 144.058 132.179 144.126C132.048 143.943 131.891 143.788 131.737 143.625Z" fill="#F2BA22"/>
<path d="M60.8694 107.893C60.858 107.865 60.8451 107.837 60.8354 107.807C60.4725 106.744 60.3889 105.273 60.8936 104.257C61.1983 103.645 61.7158 103.14 62.385 102.957C63.2014 102.732 64.1678 102.971 64.8791 103.397C65.2697 103.632 65.8592 104.06 65.9678 104.522L65.8779 104.666C65.4365 104.798 64.7682 104.426 64.2959 104.356C63.6858 104.265 63.0342 104.347 62.5303 104.727C61.8428 105.244 61.6674 105.956 61.5514 106.758L61.3834 106.582L61.2944 106.646L61.2346 107.065L61.1717 106.985C61.0916 106.885 61.0084 106.79 60.9237 106.694L60.8576 106.757C60.908 107.097 61.058 107.602 60.8694 107.893Z" fill="#F2BA22"/>
<path d="M87.1059 103.365C88.2102 107.361 89.5086 111.301 90.9973 115.171C90.7188 115.451 90.4441 115.738 90.1602 116.013C88.6895 112.239 87.7375 108.113 86.9844 104.134L87.1059 103.365Z" fill="#8EBA7C"/>
<path d="M108.771 95.1183C109.266 96.1448 109.472 97.3136 109.539 98.4452C109.533 98.8644 109.501 99.1878 109.731 99.557C109.748 99.8159 109.736 99.8765 109.573 100.098C109.496 100.204 109.362 100.312 109.268 100.399C109.211 102.662 108.868 109.136 108.055 111.047C107.963 109.753 108.21 108.429 108.328 107.143C108.594 104.238 108.867 101.29 108.592 98.3761C108.615 98.2323 108.623 98.1023 108.617 97.9566C108.597 97.4394 108.521 96.8359 108.833 96.3925L108.368 95.162L108.635 95.3644L108.771 95.1183Z" fill="#F2BA22"/>
<path d="M108.771 95.1183C109.266 96.1448 109.472 97.3136 109.539 98.4452C109.533 98.8644 109.501 99.1878 109.731 99.557C109.748 99.8159 109.736 99.8765 109.573 100.098C109.496 100.204 109.362 100.312 109.268 100.399C109.178 99.0609 109.075 97.7124 108.833 96.3925L108.368 95.162L108.635 95.3644L108.771 95.1183Z" fill="black"/>
<path d="M133.529 114.347C134.096 114.227 134.689 113.134 135.029 112.647C135.076 112.923 135.047 113.008 134.893 113.244C134.657 113.605 134.361 113.908 134.145 114.287L134.184 114.488C132.903 116.244 126.996 121.195 124.961 122.037C125.93 120.501 127.992 119.462 129.387 118.305C130.848 117.095 132.28 115.776 133.529 114.347Z" fill="#F2BA22"/>
<path d="M138.147 126.5C138.079 126.798 137.772 126.962 137.795 127.184C138.011 127.201 138.252 127.245 138.467 127.233C137.861 127.725 137.095 128.145 136.412 128.517C135.508 129.008 130.441 131.537 129.797 131.344L129.771 131.188C129.979 130.788 134.579 128.945 135.376 128.509C136.391 127.952 137.269 127.248 138.147 126.5Z" fill="#F2BA22"/>
<path d="M69.9872 44.9031C70.345 44.9332 70.8146 45.1273 71.0603 45.3964C71.2341 45.5871 71.2677 45.8019 71.2411 46.0511C71.1728 46.6886 70.6626 47.0343 70.2017 47.3972C70.172 47.3968 70.1419 47.4003 70.1122 47.3964C69.7806 47.3515 69.3681 47.0457 69.1833 46.7707C68.9978 46.4953 68.9997 46.1238 69.0759 45.8124C69.1958 45.3207 69.5833 45.1343 69.9872 44.9031Z" fill="white"/>
<path d="M132.634 120.074L133.136 120.505C132.395 120.721 131.675 121.059 130.999 121.428C130.229 121.849 127.12 123.985 126.673 123.985L126.566 123.831C126.576 123.805 126.582 123.777 126.595 123.752C127.134 122.72 131.374 120.607 132.634 120.074Z" fill="#F2BA22"/>
<path d="M74.6216 69.8755C75.2032 70.0794 75.8095 70.2356 76.4021 70.4079C76.0259 71.1985 75.752 72.0548 75.4489 72.8763L74.9071 74.3063C74.8919 72.8349 74.7521 71.3415 74.6216 69.8755Z" fill="#8EBA7C"/>
<path d="M100.269 102.852L100.347 102.814L100.397 102.899C100.535 102.77 100.499 102.827 100.578 102.67C100.595 102.635 100.61 102.6 100.626 102.564L100.767 102.598C100.849 104.283 100.953 105.966 101.078 107.649C101.162 108.809 101.308 109.993 101.202 111.155C100.567 108.498 100.355 105.582 100.269 102.852Z" fill="#F2BA22"/>
<path d="M60.8696 107.893C61.0583 107.602 60.9083 107.097 60.8579 106.757L60.9239 106.695C61.0087 106.79 61.0919 106.886 61.172 106.985L61.2349 107.065L61.2946 106.646L61.3837 106.582L61.5517 106.758C61.5356 108.723 62.1575 110.152 63.2458 111.759L62.9505 112.048C62.0747 111.018 61.0341 109.254 60.8696 107.893Z" fill="#F2BA22"/>
<path d="M126.521 122.799C127.862 120.992 129.998 119.919 131.796 118.628L132.467 119.026C130.32 120.074 128.55 121.575 126.521 122.799Z" fill="#F2BA22"/>
<path d="M123.149 112.586C123.25 112.983 123.304 112.975 123.623 113.205C122.88 114.18 121.963 115.896 120.952 116.54L120.843 116.493C121.116 115.183 122.378 113.686 123.149 112.586Z" fill="#F2BA22"/>
<path d="M111.696 105.89C111.715 106.156 111.731 106.419 111.733 106.686C111.847 106.84 111.884 106.861 112.048 106.944C111.763 108.012 111.496 109.084 111.247 110.161L110.905 110.022L110.622 110.147C110.836 108.686 111.272 107.3 111.696 105.89Z" fill="#F2BA22"/>
<path d="M123.068 105.381C123.131 105.452 123.086 105.413 123.225 105.469C123.763 104.966 123.794 104.121 124.386 103.742C123.772 105.106 122.834 107.49 121.882 108.58C121.848 108.026 122.133 107.463 122.316 106.946C122.619 106.48 122.819 105.884 123.068 105.381Z" fill="#F2BA22"/>
<path d="M87.7314 16.2714C88.1307 16.2566 88.5061 16.5461 88.7889 16.8067C89.2471 17.2295 89.66 17.9137 89.6662 18.5537C89.6674 18.675 89.6506 18.792 89.6346 18.9119C89.608 19.1735 89.5775 19.3471 89.4662 19.5906L89.3494 19.5527L88.9553 18.6824L89.301 18.3364C89.3646 17.5748 88.1627 17.0504 87.8049 16.412C87.7791 16.3659 87.7561 16.3183 87.7314 16.2714Z" fill="white"/>
<path d="M130.937 143.984L131.738 143.625C131.892 143.788 132.049 143.943 132.179 144.126L131.424 144.42C130.711 144.615 129.87 144.986 129.122 144.831C129.347 144.394 130.459 144.159 130.937 143.984Z" fill="#F2BA22"/>
<path d="M130.937 143.984L131.737 143.625C131.891 143.788 132.048 143.943 132.178 144.126L131.424 144.42C131.267 144.267 131.102 144.127 130.937 143.984Z" fill="#F2BA22"/>
<path d="M135.087 144.226C134.443 144.437 132.252 145.187 131.697 145.007C132.502 144.663 133.282 144.224 134.066 143.83C134.224 144.06 134.246 144.174 134.536 144.221C134.715 144.249 134.907 144.208 135.087 144.226Z" fill="#0B8DCB"/>
<path d="M39.8378 138.498C40.7812 138.753 41.9093 138.893 42.789 139.296C42.4147 139.534 39.7827 139.155 39.2065 139.054C39.2921 138.989 39.3589 138.886 39.4632 138.859C39.6573 138.809 40.4558 138.979 40.7956 138.937C40.4663 138.877 40.0972 138.842 39.7944 138.699L39.8378 138.498Z" fill="#8EBA7C"/>
<path d="M111.943 100.566L112.279 100.723L112.441 100.629C112.235 101.745 111.985 102.653 111.482 103.67C111.553 102.639 111.779 101.589 111.943 100.566Z" fill="#F2BA22"/>
<path d="M60.14 143.29C60.6427 143.413 61.1248 143.497 61.5498 143.808L61.5982 143.975C61.3013 144.217 60.8584 144.134 60.5045 144.098C60.3642 144.084 60.2244 144.069 60.0845 144.052C60.0681 143.78 60.0443 143.553 60.14 143.29Z" fill="#F2BA22"/>
<path d="M94.7677 179.338C95.5243 179.954 95.9927 180.773 96.4466 181.622C95.8571 181.202 95.2302 180.823 94.6509 180.393L94.7708 180.322C94.9298 180.348 95.0876 180.369 95.2474 180.389L95.3407 180.223C95.1392 180.012 94.8364 179.753 94.7798 179.46C94.772 179.42 94.7716 179.379 94.7677 179.338Z" fill="#F2BA22"/>
<path d="M95.2145 96.8168C95.5142 97.3902 95.7653 97.9383 95.9618 98.5551L95.7079 98.7062C95.4208 98.1398 95.0903 97.657 94.6919 97.1664L95.2145 96.8168Z" fill="#F2BA22"/>
<path d="M59.9455 127.457C60.2998 127.704 60.6818 127.917 60.9068 128.295L60.8834 128.463C60.3717 128.574 59.8646 128.174 59.4482 127.918L59.9455 127.457Z" fill="#F2BA22"/>
<path d="M128.886 105.524C128.448 105.901 127.9 106.439 127.341 106.598L127.301 106.461C127.48 106.037 127.733 105.77 128.047 105.445C128.346 105.513 128.579 105.532 128.886 105.524Z" fill="#0B8DCB"/>
<path d="M110.622 110.146L110.905 110.022L111.248 110.161C111.175 110.555 111.142 110.938 110.897 111.268L110.738 111.322C110.479 110.951 110.564 110.575 110.622 110.146Z" fill="#F2BA22"/>
<path d="M125.301 105.57C125.007 106.176 124.506 106.922 124.023 107.39C124.063 106.799 124.594 106.043 124.912 105.547L125.301 105.57Z" fill="#3B773B"/>
<path d="M95.9619 98.5551C96.2303 99.2676 96.6373 100.058 96.5244 100.835C96.1217 100.195 96.0248 99.3879 95.708 98.7062L95.9619 98.5551Z" fill="#F2BA22"/>
<path d="M140.682 125.811L141.264 126.153C140.71 126.485 140.144 126.746 139.553 127.004C139.909 126.586 140.296 126.2 140.682 125.811Z" fill="#0B8DCB"/>
<path d="M135.062 118.139L135.248 118.614C134.682 118.804 134.073 118.93 133.495 119.083C133.977 118.671 134.46 118.351 135.062 118.139Z" fill="#0B8DCB"/>
<path d="M86.7334 99.4043L87.2029 98.8676C87.2061 99.6918 87.2385 100.527 87.1982 101.35C87.0354 100.707 86.8451 100.058 86.7334 99.4043Z" fill="#0B8DCB"/>
<path d="M76.9529 183.066C77.192 183.369 77.2318 183.455 77.6467 183.507C77.7572 183.52 77.8678 183.532 77.9787 183.541C77.374 183.671 76.7885 183.836 76.1963 184.015L76.9529 183.066Z" fill="#F2BA22"/>
<path d="M95.0929 84.1989C95.1964 84.8051 95.3429 85.425 95.3163 86.0414C95.0292 85.6621 94.9534 84.9532 94.8491 84.4821L95.0929 84.1989Z" fill="#8EBA7C"/>
<path d="M61.3452 61.2141C61.5972 61.2227 61.7687 61.2649 62.0034 61.3555C62.1929 61.6001 62.1886 61.6797 62.2269 61.9774C62.0979 61.9762 62.0647 61.9872 61.9483 61.9481C61.6085 61.8344 61.4847 61.5118 61.3452 61.2141Z" fill="black"/>
<path d="M109.539 98.4452L109.892 98.1382C109.842 98.6116 109.789 99.0843 109.731 99.5569C109.501 99.1878 109.533 98.8644 109.539 98.4452Z" fill="#0B8DCB"/>
<path d="M63.2455 111.759C63.4072 112.011 63.5264 112.115 63.5178 112.419C63.2451 112.372 63.1518 112.231 62.9502 112.048L63.2455 111.759Z" fill="#F2BA22"/>
<path d="M86.9846 104.134C86.8905 103.695 86.8487 103.314 86.867 102.865L86.9248 102.821L87.1061 103.365L86.9846 104.134Z" fill="#8EBA7C"/>
<path d="M145.312 89.3246L145.608 89.4535C145.462 89.7304 145.32 89.9648 145.117 90.2047C145.079 89.9035 145.218 89.6105 145.312 89.3246Z" fill="#8EBA7C"/>
<path d="M59.0932 128.321C59.3053 128.444 59.4834 128.494 59.5939 128.719C59.3061 128.786 59.1037 128.664 58.8467 128.551L59.0932 128.321Z" fill="#0B8DCB"/>
<path d="M46.9334 101.962C47.0807 102.121 47.2744 102.244 47.2748 102.466C47.0076 102.359 46.8572 102.248 46.6436 102.064L46.9334 101.962Z" fill="#8EBA7C"/>
</svg>
