<svg width="200" height="200" viewBox="0 0 200 200" fill="none" xmlns="http://www.w3.org/2000/svg">
<path d="M51.1929 79.1289L51.5417 79.0222C53.7112 82.9035 55.3874 87.0332 57.2069 91.0816C56.6249 90.7699 56.0468 90.4542 55.4452 90.1812C54.0964 86.4554 52.6976 82.7937 51.1929 79.1289Z" fill="white"/>
<path d="M47.8104 71.3008C48.6144 73.0086 49.4331 74.7008 50.2702 76.3934C50.6901 77.2426 51.2499 78.1266 51.5413 79.0223L51.1925 79.1289C50.7249 78.034 50.28 76.9043 49.7218 75.8523C49.0784 74.6398 47.7198 72.7039 47.3979 71.4562C47.5687 71.4434 47.6612 71.3793 47.8104 71.3008Z" fill="white"/>
<path fill-rule="evenodd" clip-rule="evenodd" d="M101.707 13.095C102.661 12.4969 103.826 12.2202 104.935 12.4779C106.167 12.7644 107.531 13.7405 108.174 14.8411C108.237 14.9498 108.291 15.0626 108.347 15.1751L108.415 15.3099C108.429 15.3371 108.441 15.3655 108.454 15.3929C109.37 14.4651 110.366 13.5829 111.755 13.5814C112.838 13.5802 114.184 14.1066 114.947 14.8704C115.941 15.8645 116.541 17.4135 116.503 18.805C116.462 20.2906 115.916 21.6152 115.244 22.9173C113.01 27.2512 112.047 29.0361 112.713 34.1156C115.194 34.5847 117.498 35.0551 119.713 36.3411C120.469 36.7805 121.127 37.3898 121.893 37.8011C122.371 38.0581 122.911 38.1411 123.434 38.2601C124.706 38.5495 125.564 39.5411 126.269 40.5823C126.721 41.2511 127.136 42.0845 127.678 42.6751C128.091 43.1261 128.678 43.2903 129.046 43.8206C131.078 46.7522 131.912 49.6274 131.287 53.1878C131.11 54.1705 130.801 55.1254 130.368 56.0257C134.328 58.6846 137.257 60.2633 138.237 65.3968C138.558 67.081 138.505 68.8325 137.707 70.3792C136.939 69.4001 136.172 68.3303 135.211 67.5335C134.687 67.0988 134.092 66.767 133.562 66.3402C131.271 68.0569 128.876 69.3525 126.026 69.8431C125.118 69.9993 124.193 70.0337 123.285 70.1927C121.735 70.4646 120.21 70.8513 118.647 71.056C121.92 78.5592 125.79 85.8488 128.576 93.5521C133.602 107.449 136.09 128.286 130.566 142.319C129.616 144.733 128.491 147.155 127.115 149.36C122.851 156.193 116.135 161.629 108.783 164.82C107.06 165.568 105.322 166.01 103.555 166.615C101.481 167.324 97.429 167.14 96.3506 169.443C96.1073 169.963 96.1991 170.67 96.415 171.184C96.9296 172.402 104.136 174.805 105.628 178.56C105.827 179.06 105.865 179.646 105.932 180.177C108.047 180.834 112.023 180.702 113.225 183.023C113.348 183.261 113.359 183.391 113.309 183.65C113.08 184.007 112.503 184.16 112.378 184.488C112.93 185.068 114.639 185.463 114.503 186.515C114.423 187.13 113.658 187.626 113.168 187.918C112.05 188.584 110.736 188.604 109.477 188.654C109.947 189.289 110.473 189.961 110.367 190.806C110.327 191.131 110.168 191.41 109.9 191.601C108.8 192.383 106.083 191.764 104.863 191.504C101.824 190.857 99.1398 189.685 96.6621 187.796C96.3269 187.541 95.7794 186.959 95.3662 187.239C94.4494 187.861 93.1351 190.663 92.1934 190.72C91.8938 190.54 91.5231 190.141 91.4258 189.798C91.3868 189.66 91.3892 189.507 91.3818 189.365C91.2905 187.628 91.5525 185.497 92.6934 184.121C93.0092 183.74 93.3684 183.402 93.3242 182.88C91.7434 180.863 89.8999 178.675 89.3975 176.107C89.1971 175.084 89.255 174.012 89.0039 173.005C88.5725 173.095 88.1289 173.18 87.7119 173.325C87.0827 173.542 85.7868 174.294 85.168 174.005C84.9254 173.628 84.8532 173.219 84.9629 172.783C85.276 171.542 86.5174 170.425 87.5977 169.814C87.8959 169.645 88.2109 169.514 88.5303 169.391C87.8885 168.818 87.2252 168.306 86.8271 167.526C86.7909 167.508 86.755 167.489 86.7188 167.472C85.811 167.043 84.7851 166.837 83.8262 166.543C83.0654 166.311 82.327 165.992 81.5947 165.682C74.4839 162.671 69.5182 158.155 65.749 151.435C64.3791 153.138 62.6322 154.52 60.8818 155.814C54.5789 160.471 47.4744 163.231 39.6758 164.079C33.0983 164.795 23.7195 164.077 18.3945 159.826C16.9448 158.668 15.6633 156.707 15.4346 154.843C15.2148 153.051 15.898 151.028 17.0342 149.644C17.8424 148.659 19.0218 147.622 20.1787 147.006L20.4102 146.889C21.5249 146.293 22.597 145.785 23.8047 145.406L23.8037 145.405C24.0667 145.311 24.3271 145.248 24.5195 145.035C24.2648 144.889 24.038 144.927 23.752 144.927C23.3263 144.913 22.9004 144.891 22.4746 144.868L21.1973 144.797C16.7692 144.257 14.1047 143.69 10.1123 142.228L9.29492 141.923L9.2002 141.838C8.68166 141.41 7.53732 140.958 6.96777 140.604C4.47729 139.054 1.92086 136.85 0.665039 134.143C0.515866 133.821 0.401543 133.497 0.298828 133.169L0 132.172V130.28C0.0630755 130.172 0.102507 130.081 0.129883 129.959C0.408602 128.716 0.934844 127.498 1.83984 126.586C5.74342 122.657 13.4623 122.693 18.6602 122.667C17.2883 121.829 15.7329 121.248 14.2832 120.553C10.4827 118.73 6.76205 116.145 4.34473 112.627C2.63306 110.136 1.02629 106.71 1.6748 103.602C1.97453 102.166 2.75969 101.021 3.98828 100.224C7.36496 98.0337 13.046 98.4939 16.8193 99.2747C16.0071 98.2979 15.1113 97.3925 14.3096 96.4095C11.8255 93.3642 9.75347 89.6549 8.84863 85.8148C8.35389 83.7149 8.1086 81.0473 9.34277 79.1361C10.108 77.951 11.5687 77.2765 12.9121 76.9905C14.1605 76.7246 15.5171 76.7435 16.7812 76.8704C21.2761 77.322 24.7929 79.3959 28.4785 81.8001C25.5474 76.9346 22.098 69.6931 23.0342 63.8714C23.2666 62.4265 23.8593 61.1048 25.0811 60.2298C26.6413 59.1119 28.5529 59.0009 30.3877 59.3138C35.5591 60.1966 39.8432 63.5435 43.4893 67.095C44.8747 68.4442 46.2747 69.8787 47.3984 71.4564C47.5688 71.4434 47.6615 71.3795 47.8105 71.3011C46.0946 66.3312 45.1046 60.7061 46.2881 55.5081C46.7076 53.6669 47.4265 52.0097 49.1113 50.9847C50.4234 50.1866 51.8244 50.1058 53.2764 50.4925C58.4732 51.8773 62.5149 56.6658 65.1152 61.1204C65.159 58.0994 65.677 54.6688 67.1426 51.9993C68.0101 50.4194 69.317 49.1267 71.0996 48.6517C72.7753 48.205 74.4925 48.5891 75.96 49.4652C79.9211 51.8307 82.4738 57.1561 83.5605 61.5072C85.5632 58.3155 86.4128 57.7172 89.3135 55.556L89.375 55.5257C91.1594 54.7945 92.4969 54.4562 94.4395 54.4866C94.9019 53.2975 95.4453 52.0885 95.7734 50.8548C96.0527 49.8049 96.1467 48.7096 96.3799 47.6488C97.0342 44.6755 98.4845 41.9071 100.424 39.5716C101.25 38.577 102.276 37.8243 103.149 36.887C103.377 36.6427 103.652 36.52 103.952 36.3841C104.053 36.2101 104.089 36.2297 104.035 36.0169C103.873 35.3797 103.29 34.8102 102.885 34.3128C101.547 32.6697 100.341 31.2948 98.4414 30.2611C97.6326 29.8212 96.7662 29.4684 95.8926 29.181C93.924 28.5334 90.996 28.0233 90.3379 25.7044C90.0629 24.7341 90.294 23.5617 90.7861 22.6956C91.3542 21.6962 92.4916 20.8683 93.6133 20.6048C93.7366 20.5764 93.8605 20.5517 93.9854 20.5306C93.5201 19.4683 93.345 18.5841 93.7812 17.4515C94.1684 16.461 94.9402 15.6695 95.9209 15.2581C97.4336 14.6109 98.6599 15.1255 100.086 15.6536C100.35 14.5256 100.672 13.7443 101.707 13.095ZM55.8232 134.322C56.249 134.405 56.8362 134.594 57.2451 134.442C56.9225 134.271 56.6064 134.211 56.251 134.138L55.8232 134.322ZM63.2998 104.477C63.2018 104.53 63.1042 104.582 63.0039 104.631C63.796 105.526 64.4877 106.452 65.0713 107.496C65.6956 108.615 69.6795 117.651 69.6973 118.361L70.1221 118.345C70.0728 117.306 65.8375 107.997 65.1582 106.723C64.6492 105.768 64.0728 104.886 63.3896 104.047L63.2998 104.477ZM70.1777 108.733C70.2121 109.244 70.3756 109.727 70.625 110.173L70.8086 110.297C70.6879 109.82 70.61 109.001 70.1777 108.733ZM77.1748 101.091C77.8146 102.674 78.3369 104.188 78.7197 105.855L78.9824 105.794C78.7625 105.292 78.7074 104.615 78.5664 104.076C78.2676 102.894 77.8648 101.742 77.3633 100.632L77.1748 101.091ZM64.3105 102.609C64.5041 103.288 65.1086 104.126 65.6104 104.607C65.3143 103.796 64.8631 103.039 64.4521 102.282L64.3105 102.609ZM69.2998 102.602C69.451 103.214 69.6071 103.811 69.8223 104.405C69.8297 103.748 69.8153 103.08 69.8691 102.425L69.2998 102.602ZM77.3027 94.9808C77.2813 95.1419 77.2751 95.2982 77.2451 95.4593C77.2377 95.4998 77.226 95.5398 77.2217 95.5804C77.2202 95.5957 77.2255 95.6113 77.2275 95.6263L77.0371 95.223L76.8809 95.1507C77.1851 96.2635 77.3227 97.4616 77.6426 98.5521C77.6438 98.8542 77.6913 99.0271 77.5107 99.2816C77.5053 99.2889 77.4968 99.2943 77.4902 99.3001L77.3896 99.348C77.7161 99.6532 77.9422 100.733 78.0918 101.187C78.0762 100.336 78.0548 99.4757 77.9736 98.6282C77.8256 97.3631 77.6562 96.0995 77.3242 94.8675C77.3168 94.9052 77.3078 94.9426 77.3027 94.9808ZM110.52 91.9544C110.034 92.347 109.324 92.9571 109.237 93.6146C109.214 93.7914 109.225 93.9118 109.265 94.0823L109.374 94.2015C109.722 94.187 110.244 94.2368 110.537 94.0384C110.766 93.4462 110.731 92.8124 110.695 92.1878C110.64 92.0912 110.609 92.0238 110.52 91.9544ZM95.9795 16.7181C95.51 17.1118 95.0887 17.7223 94.8398 18.2825L95.292 18.2239C95.4833 17.9269 95.8546 17.6518 95.9844 17.3265C96.0898 17.0628 96.0587 16.9727 95.9795 16.7181Z" fill="black"/>
<path d="M96.8055 51.7816C97.5984 45.8969 99.2645 41.8359 104.09 38.1687C107.16 35.8357 110.682 35.0621 114.5 35.5901C117.609 36.0201 118.938 37.0453 121.49 38.5893C120.793 38.9422 120.585 39.2039 120.347 39.9601C120.254 40.2582 120.189 40.5515 120.349 40.8398C120.444 41.0113 120.632 41.1121 120.821 41.1535C122.18 41.4512 123.026 40.4723 125.053 41.2215C125.386 41.3445 125.779 41.5055 126.007 41.7906C126.109 41.9183 126.071 41.9988 126.068 42.1515C125.783 42.3453 125.355 42.366 125.025 42.4734C123.91 42.8355 123.432 44.2238 123.226 45.2812C122.658 48.2015 123.499 51.0457 125.093 53.5207C123.391 53.5289 121.972 53.5582 120.445 54.3906C119.16 50.2289 118.075 46.3125 113.93 44.1219C112.044 43.1254 109.916 42.7754 107.852 43.4113C107.285 43.5859 106.752 43.8223 106.225 44.0918L105.867 43.8047C106.66 43.1969 107.471 42.7308 108.428 42.4305C109.338 42.1449 112.482 42.0871 112.623 41.0652C112.664 40.7644 112.55 40.5445 112.36 40.3234C111.779 39.6465 110.714 39.234 109.837 39.1984C108.546 39.1465 107.211 39.741 106.295 40.6324C104.157 42.7144 105.041 43.668 104.312 45.7621C103.525 48.0234 102.838 48.1742 102.87 50.9367C102.899 53.4273 104.011 56.0031 105.813 57.7304C108.195 60.0148 111.643 60.4965 114.806 60.5598C115.924 63.275 116.333 65.268 118.416 67.5121C119.249 68.4101 120.147 69.1719 121.204 69.7933C117.574 70.0855 114.106 70.248 110.499 69.5043C109.93 69.3867 106.395 68.132 106.24 68.2926C107.879 70.1039 112.887 70.8332 115.195 70.95C115.978 70.9867 116.761 71.0117 117.544 71.0246C118.292 72.1351 118.758 73.6527 119.301 74.8863C120.107 76.718 120.983 78.5211 121.827 80.3359C122.85 82.5375 123.958 84.7242 124.927 86.948C126.055 89.5371 127.099 92.2715 128.016 94.9402C132.143 106.945 134.036 122.062 131.589 134.582C129.619 144.655 124.632 153.03 116.036 158.805C112.236 161.358 104.601 164.825 99.9965 164.977C100.846 163.592 102.19 161.026 102.096 159.385L101.987 159.278C101.127 159.836 99.8184 163.326 99.1543 164.382C97.4996 167.014 94.202 168.907 91.0703 168.221C89.2859 167.831 87.591 166.496 86.6324 164.964C86.2863 164.411 85.9441 163.725 85.7902 163.091C85.6668 162.583 85.6375 161.811 85.3863 161.373C85.1668 161.482 85.1309 161.509 85.048 161.761C84.7871 162.551 85.1035 163.852 85.2273 164.647C79.2809 162.399 75.352 160.424 70.8598 155.784C69.3637 154.239 67.9312 152.528 66.9238 150.618C74.493 152.798 79.4625 151.489 86.2379 147.752C94.8344 143.01 101.071 134.69 103.77 125.334C104.813 121.717 105.291 117.702 104.962 113.946C104.855 112.723 104.614 111.521 104.426 110.309C106.611 109.537 108.324 107.889 109.314 105.812C111.893 100.409 112.099 94.9527 111.182 89.1332C110.863 87.1062 110.473 85.1277 109.774 83.1902C108.398 79.3734 106.53 75.6722 104.441 72.1992C103.582 70.7723 102.495 69.5187 101.579 68.1348C98.5773 63.6 96.1816 57.7543 98.0266 52.3043C98.234 51.691 98.3703 50.941 98.3422 50.2922L98.2398 50.1543C97.6898 50.307 97.1602 51.3379 96.8055 51.7816Z" fill="#0B8DCB"/>
<path d="M94.6152 109.905C95.9155 109.816 97.2566 109.964 98.5632 109.963C100.141 109.962 101.724 109.835 103.3 109.917C104.084 113.183 104.369 116.393 103.997 119.742C102.982 129.406 98.121 138.255 90.5089 144.296C85.1105 148.624 78.0058 151.772 70.9894 151.009C68.6175 150.884 65.6722 149.923 63.8624 148.336C61.8304 146.554 60.9714 143.578 60.8265 140.962C60.7394 139.394 60.7464 137.558 61.1222 136.025C61.2765 135.396 61.564 134.804 61.7112 134.174C61.9089 133.329 61.989 132.471 62.2441 131.637C62.928 129.398 64.6077 126.128 65.9726 124.247C66.8159 123.085 68.3323 121.426 69.3163 120.34C70.1792 119.387 71.1589 118.538 72.1339 117.703C78.748 112.032 86.1523 110.346 94.6152 109.905Z" fill="#8EBA7C"/>
<path d="M95.3466 128.492C95.3716 128.52 95.4016 128.544 95.422 128.575C95.6536 128.936 95.3993 130.065 95.3098 130.489C94.6407 133.664 93.3407 136.595 90.5192 138.399C88.7747 139.497 86.6649 139.856 84.6552 139.398C83.3044 139.095 82.4356 138.425 81.7165 137.269C81.5704 136.963 81.3223 136.512 81.4075 136.169C82.0399 136.361 82.5087 137.248 83.1239 137.571C84.6059 138.348 87.1059 138.327 88.6552 137.756C92.8923 136.194 93.6782 132.126 95.3466 128.492Z" fill="black"/>
<path d="M76.5495 126.098C76.5968 126.125 76.6495 126.144 76.6909 126.179C76.8936 126.35 76.8683 126.816 76.8526 127.052C76.6913 129.504 74.8581 132.503 73.0589 134.113C71.4753 135.53 69.2827 136.432 67.1382 136.291C65.4917 136.183 63.9179 135.563 62.8249 134.307L62.7218 134.146C62.639 134.021 62.5362 133.887 62.4956 133.74C62.4288 133.497 62.4601 133.202 62.5882 132.987C62.7292 132.932 62.914 132.891 63.0632 132.972C63.2382 133.067 63.4655 133.439 63.6386 133.59C64.3585 134.218 65.5573 134.679 66.4929 134.823C68.4968 135.13 70.7167 134.343 72.3081 133.144C74.3776 131.585 76.2026 128.673 76.5495 126.098Z" fill="black"/>
<path d="M96.6435 114.858L96.8063 114.888L96.8032 115.047C96.3056 115.566 95.5079 115.921 94.8938 116.303C94.6036 117.731 93.9599 118.937 93.0431 120.061C91.8731 121.497 90.2263 122.87 88.3032 123.025C87.4282 123.095 86.3888 122.945 85.727 122.32C85.5075 122.113 85.4122 121.938 85.4067 121.638L85.5813 121.48C85.888 121.416 86.1114 121.531 86.3938 121.636L86.5274 121.688C87.586 121.971 88.5423 121.904 89.5618 121.478C91.661 120.602 93.4052 118.577 94.2544 116.506C92.7704 116.568 91.8806 116.392 90.6177 115.573C93.3614 115.611 93.9927 115.701 96.6435 114.858Z" fill="black"/>
<path d="M82.7252 114.091C83.969 114.095 85.9139 114.283 87.0073 114.915C87.3635 115.121 87.5768 115.404 87.6787 115.803C87.9377 116.817 87.4299 118.197 86.9166 119.081C85.7389 121.109 83.5756 122.842 81.292 123.428C79.835 123.802 78.6534 123.488 77.3983 122.732C77.2037 122.576 76.9619 122.412 76.8233 122.203C76.7018 122.02 76.7131 121.975 76.758 121.775C77.3256 121.493 79.3276 122.376 80.133 122.457C81.6323 122.609 83.4494 121.739 84.5721 120.803C85.8194 119.764 86.926 118.059 87.0412 116.405C87.1655 114.627 83.6053 115.333 82.8026 114.213C82.7748 114.174 82.751 114.132 82.7252 114.091Z" fill="black"/>
<path d="M78.4264 116.147C78.5514 116.239 78.6295 116.255 78.6705 116.416C78.8279 117.028 78.3908 117.83 78.0928 118.358C76.7787 120.689 73.8389 123.878 71.1658 124.572C69.9494 124.887 68.9728 124.559 67.9439 123.931C67.6557 123.682 67.4803 123.515 67.4502 123.119C67.824 122.716 69.4162 123.427 70.0561 123.451C70.8592 123.482 71.6018 123.269 72.3209 122.927C75.0756 121.617 77.4178 119.027 78.4264 116.147Z" fill="black"/>
<path d="M78.9689 140.095L79.1076 140.284C79.0432 140.917 78.7404 141.449 78.3771 141.96C77.0936 143.764 74.642 145.051 72.4854 145.394C70.3772 145.729 68.3725 145.208 66.6631 143.952C66.3826 143.693 66.1385 143.392 65.8857 143.106C68.5857 144.351 71.1088 144.879 74.0178 143.963C76.1807 143.282 77.8994 142.121 78.9689 140.095Z" fill="black"/>
<path d="M61.9329 121.441C58.2208 118.316 54.1856 115.931 49.4235 114.816C48.1794 114.525 46.7536 114.71 45.5598 114.264C44.0883 113.716 42.2551 112.145 40.8805 111.263C39.2782 110.236 37.6118 109.319 35.9561 108.381C34.4054 107.506 32.8192 106.696 31.2017 105.952C29.984 105.383 28.506 104.867 27.4332 104.054C24.3219 101.696 20.0303 96.4886 19.4195 92.5484C19.1333 90.7027 19.4697 89.0086 20.5934 87.4988C21.678 86.0418 23.3199 85.2738 25.0894 85.0406C26.6366 84.8363 29.884 85.0754 31.12 86.0679C32.1577 86.9011 40.2786 96.0043 40.3618 96.6156C43.2969 101.111 43.9342 102.46 46.0462 104.642C46.9665 105.591 47.9337 106.59 48.9481 107.437C49.8973 108.228 50.9587 108.888 51.8235 109.778C53.3805 111.38 54.6536 113.328 56.1485 115.007C58.0645 117.158 60.2704 119.113 62.3083 121.156L61.9329 121.441Z" fill="#3B773B"/>
<path d="M28.0487 90.5465C28.8264 90.4929 29.4245 90.5371 30.153 90.8594C31.1433 91.298 32.0722 92.1183 32.4383 93.1594C32.717 93.9519 32.6547 94.875 32.2885 95.6293C31.8367 96.5605 30.9611 97.0976 30.0125 97.4226C29.2514 97.598 28.4548 97.5336 27.7316 97.239C26.8414 96.8711 26.1724 96.1418 25.8093 95.2566C25.4355 94.3453 25.3708 93.2511 25.7901 92.3429C26.2445 91.359 27.0733 90.8929 28.0487 90.5465Z" fill="black"/>
<path d="M28.7524 91.1476C29.2003 91.1792 29.5923 91.2601 30.001 91.4554C30.7763 91.8257 31.3983 92.4445 31.6816 93.2663C31.904 93.9109 31.8809 94.6046 31.5602 95.2124C31.1066 96.0722 30.3398 96.3714 29.4642 96.6261C28.7929 96.6175 28.2276 96.4718 27.6689 96.0866C26.9702 95.6046 26.4532 94.8394 26.3157 93.9972C26.2075 93.3339 26.3526 92.6488 26.7731 92.1171C27.2839 91.4718 27.9671 91.2523 28.7524 91.1476Z" fill="#EA6F1C"/>
<path d="M31.9292 125.536C34.0471 125.598 40.4306 126.491 42.1728 127.508C42.9353 127.954 43.6291 128.566 44.3494 129.08C45.5181 129.908 46.7482 130.647 48.0287 131.29C50.5764 132.547 53.5455 133.27 56.2514 134.138L55.8236 134.322C54.3736 134.141 52.7963 134.135 51.3486 134.304C49.1576 134.56 46.9275 135.404 45.5346 137.19C44.3697 138.684 44.1467 140.463 44.374 142.291C40.542 142.602 35.776 142.667 31.9573 142.215C26.7674 141.601 18.307 140.129 14.9042 135.767C14.0401 134.659 13.5311 133.292 13.7386 131.87C13.9299 130.559 14.7381 129.551 15.7792 128.79C20.1921 125.562 28.2813 126.395 33.3794 127.198C32.9283 126.593 32.4669 126.067 31.9292 125.536Z" fill="#3B773B"/>
<path d="M24.5888 130.873C25.3873 130.833 26.1105 130.933 26.8375 131.289C27.7236 131.723 28.5154 132.497 28.7964 133.463C29.0117 134.226 28.9103 135.044 28.5152 135.732C27.9787 136.683 27.1085 137.135 26.0905 137.397C25.2517 137.43 24.5395 137.398 23.756 137.04C22.888 136.642 22.1587 135.929 21.8332 135.022C21.5539 134.266 21.6034 133.428 21.9696 132.711C22.5237 131.642 23.5116 131.231 24.5888 130.873Z" fill="black"/>
<path d="M24.5423 131.46C25.2038 131.438 25.7634 131.443 26.3837 131.722C27.0805 132.035 27.6788 132.591 27.9429 133.319C28.1638 133.928 28.1364 134.624 27.8369 135.203C27.41 136.027 26.6754 136.313 25.8475 136.582C25.2069 136.649 24.7166 136.653 24.1108 136.41C23.3965 136.124 22.7908 135.562 22.5133 134.837C22.2684 134.209 22.3047 133.505 22.613 132.905C23.0018 132.157 23.7565 131.695 24.5423 131.46Z" fill="#EA6F1C"/>
<path d="M58.3978 63.0219C59.8662 62.8387 61.0322 63.3996 62.233 64.1605C64.2627 65.4457 65.7123 67.3359 66.8443 69.4297C68.851 73.141 69.8131 76.8769 70.549 81.0051C70.8154 82.498 71.024 84.0008 71.3537 85.4816C70.3459 85.3746 69.6342 85.4043 68.7221 85.9422C67.1756 86.8539 66.3486 88.6137 65.8908 90.282C64.9631 93.6656 65.5154 97.0844 66.3623 100.417C66.7674 102.012 67.156 103.449 67.9795 104.886L67.899 104.968L67.7428 104.923C66.781 103.456 65.8006 101.968 64.9346 100.443C64.0572 98.8976 63.3045 97.3078 62.3002 95.8344C61.7885 95.084 61.2342 94.3457 60.6244 93.6715C59.8662 92.8336 58.9416 92.0469 58.39 91.0508C57.6088 89.6387 57.1068 87.9437 56.533 86.4379C55.181 82.8879 53.4201 78.7598 52.8389 75.0012C52.3756 72.0043 52.2631 68.0625 54.1596 65.4937C55.1943 64.0922 56.6924 63.2824 58.3978 63.0219Z" fill="#3B773B"/>
<path d="M61.0234 69.8317C61.7081 69.8024 62.2734 69.8629 62.898 70.1707C63.9081 70.677 64.6644 71.5778 64.9878 72.6606C65.2542 73.5766 65.1789 74.5891 64.7007 75.4231C64.2015 76.2938 63.4581 76.7145 62.5183 76.9727C61.866 77.0157 61.2136 76.8918 60.6226 76.6125C59.6792 76.1703 58.9039 75.336 58.564 74.3477C58.2421 73.4118 58.3121 72.2996 58.7886 71.4278C59.2956 70.5 60.0628 70.1289 61.0234 69.8317Z" fill="black"/>
<path d="M60.8382 70.5211C61.3175 70.4887 61.7878 70.4769 62.2487 70.6336C63.0886 70.9183 63.819 71.5558 64.1726 72.3738C64.4413 72.9949 64.4757 73.7199 64.2093 74.348C63.864 75.1625 63.2593 75.5223 62.4862 75.8488C61.9694 75.9058 61.5132 75.8683 61.0241 75.6777C60.2354 75.3703 59.564 74.7488 59.2296 73.9672C58.9593 73.3367 58.9335 72.6305 59.205 71.9953C59.5147 71.2699 60.1304 70.8144 60.8382 70.5211Z" fill="#EA6F1C"/>
<path d="M20.1151 104.045C26.0885 103.337 38.7122 111.41 43.764 114.748C42.8394 114.939 41.98 115.157 41.1769 115.676C39.9105 116.493 39.1515 117.813 38.8655 119.267C38.3855 121.708 39.423 123.627 40.7503 125.587C40.1074 125.42 39.4437 125.309 38.7916 125.179C35.929 124.63 32.9826 124.243 30.1551 123.551C26.0588 122.548 21.0941 120.399 17.8243 117.696C15.6201 115.874 13.2503 113.197 13.0179 110.203C12.9123 108.843 13.435 107.466 14.3134 106.438C15.8265 104.666 17.9006 104.24 20.1151 104.045Z" fill="#3B773B"/>
<path d="M23.6837 109.589C24.5273 109.542 25.2749 109.557 26.069 109.884C26.9669 110.254 27.7347 110.924 28.1087 111.832C28.4319 112.611 28.4297 113.488 28.1024 114.266C27.6926 115.23 26.9633 115.744 26.0328 116.127C25.1929 116.244 24.426 116.273 23.6229 115.937C22.6731 115.54 21.8684 114.694 21.5057 113.733C21.2106 112.951 21.2139 112.065 21.5745 111.304C21.9978 110.412 22.7771 109.901 23.6837 109.589Z" fill="black"/>
<path d="M23.8439 110.183C24.4026 110.148 24.9535 110.134 25.4904 110.319C26.2831 110.592 26.9761 111.173 27.3282 111.94C27.6026 112.538 27.6611 113.231 27.3951 113.843C27.0463 114.645 26.3513 114.994 25.5912 115.309C24.8711 115.41 24.2994 115.412 23.6419 115.059C22.9033 114.663 22.3104 113.957 22.0886 113.144C21.924 112.54 21.9651 111.863 22.2869 111.316C22.6301 110.733 23.2072 110.364 23.8439 110.183Z" fill="#EA6F1C"/>
<path d="M37.9476 69.3605C39.0565 69.2777 40.2371 69.4765 41.2903 69.8172C43.3946 70.4976 45.9414 72.225 47.3297 73.9301C49.5551 76.6633 51.3977 82.0055 52.5942 85.3754C53.1239 86.8672 53.602 88.5148 54.3364 89.916C54.3516 89.9453 54.3676 89.9742 54.3836 90.0031C53.2469 89.8914 52.1305 89.9222 51.084 90.4394C49.0848 91.4269 48.3413 93.921 47.8485 95.2824C47.5922 95.9902 47.3083 98.2189 49.6386 106.113C46.3097 104.068 42.4576 97.5531 41.1395 95.3797C39.8214 93.2062 33.4084 84.1113 32.4883 78.4375C32.116 76.1418 32.1908 73.8574 33.6014 71.9133C34.7136 70.3801 36.1103 69.6586 37.9476 69.3605Z" fill="#3B773B"/>
<path d="M40.8203 75.3195C41.4605 75.2461 42.0472 75.236 42.666 75.4426C43.7019 75.7977 44.5453 76.5641 44.9968 77.5617C45.3566 78.3449 45.43 79.2074 45.1218 80.0199C44.7257 81.0637 43.9347 81.6625 42.955 82.1043C42.3019 82.1867 41.741 82.1403 41.1101 81.9371C40.1132 81.6164 39.2886 80.9254 38.8344 79.9781C38.4614 79.2004 38.3705 78.316 38.6639 77.4965C39.0416 76.4414 39.8535 75.8012 40.8203 75.3195Z" fill="black"/>
<path d="M41.4615 75.9027C42.0256 75.9242 42.5111 76.023 43.001 76.3179C43.7306 76.7566 44.315 77.4886 44.5049 78.3269C44.6459 78.95 44.5568 79.6066 44.1865 80.1355C43.7404 80.7726 43.1283 81.0047 42.3935 81.1535C41.8584 81.1379 41.3459 81.0531 40.8677 80.7992C40.142 80.414 39.5615 79.7344 39.3439 78.9367C39.181 78.3398 39.247 77.7148 39.5607 77.1781C39.9666 76.4836 40.701 76.0824 41.4615 75.9027Z" fill="#EA6F1C"/>
<path d="M44.6999 143.807C44.8417 143.763 44.919 143.773 45.0331 143.886C45.3628 144.216 45.6967 145.052 46.196 145.552C47.3893 146.75 49.0694 147.583 50.6803 148.046C52.5436 148.581 54.5436 148.736 56.4768 148.8C57.776 148.843 62.1292 148.593 63.0643 148.991C63.2635 149.077 63.1971 149.019 63.2842 149.217C63.2643 149.257 63.2456 149.297 63.2245 149.335C62.8323 150.048 61.8467 150.701 61.212 151.22C56.9655 154.694 52.1807 157.236 46.8522 158.564C45.9483 158.868 44.9854 159.061 44.0436 159.199C39.9901 159.795 34.4984 159.847 31.1045 157.263C29.8776 156.329 29.0242 155.021 28.8424 153.466C28.3426 149.193 34.3309 146.398 37.6746 145.544C38.8798 145.236 41.0444 145.11 42.0346 144.702C42.4546 144.528 42.2171 144.292 42.453 144.001C43.1674 143.834 43.9659 143.848 44.6999 143.807Z" fill="#3B773B"/>
<path d="M39.9346 149.427C40.6939 149.392 41.4232 149.457 42.1322 149.755C43.0705 150.149 43.808 150.891 44.1561 151.852C44.4615 152.694 44.4729 153.67 44.0521 154.475C43.4986 155.536 42.5186 156.03 41.4232 156.354C40.4795 156.379 39.5994 156.256 38.7571 155.802C37.9177 155.35 37.2145 154.635 36.9501 153.701C36.7164 152.876 36.7969 151.927 37.2227 151.176C37.8143 150.132 38.8311 149.713 39.9346 149.427Z" fill="black"/>
<path d="M40.2705 150.023C40.9264 149.981 41.5471 150.105 42.1252 150.425C42.8049 150.802 43.3346 151.439 43.5412 152.191C43.7213 152.848 43.6666 153.565 43.3185 154.158C42.815 155.015 41.9482 155.32 41.0392 155.55C40.231 155.591 39.4596 155.434 38.7882 154.962C38.1737 154.53 37.7168 153.873 37.6033 153.124C37.4996 152.439 37.6874 151.75 38.0976 151.195C38.6405 150.461 39.3986 150.161 40.2705 150.023Z" fill="#EA6F1C"/>
<path d="M35.5918 144.461C37.4811 144.179 39.3873 144.002 41.2795 144.343C39.6069 144.518 38.0094 144.884 36.3988 145.359C35.9853 145.612 35.4201 145.747 34.9684 145.939C33.8087 146.432 32.6613 146.991 31.6172 147.7C30.1137 148.72 28.651 150.357 28.3303 152.199C28.0823 153.623 28.4784 155.017 29.3154 156.174C30.8136 158.245 33.5789 159.366 36.0246 159.762C43.7514 161.013 52.0209 158.179 58.3604 153.847C59.5444 153.041 60.6959 152.189 61.8123 151.293C62.5244 150.711 63.1952 150.056 63.9444 149.524L64.0213 149.471C64.5276 149.753 64.9756 150.07 65.4362 150.421C65.0194 150.911 64.5748 151.377 64.1053 151.816C56.0834 159.465 44.7963 163.429 33.7776 163.14C28.6857 163.006 22.094 161.978 18.4576 158.091C17.4053 156.966 16.5048 155.414 16.5946 153.827C16.6908 152.127 17.7555 150.5 18.9866 149.382C22.5611 146.139 27.9461 145.209 32.5948 144.714C33.5629 144.611 34.6205 144.418 35.5918 144.461Z" fill="#8EBA7C"/>
<path d="M35.5913 144.461C37.4806 144.179 39.3869 144.002 41.279 144.343C39.6064 144.518 38.0089 144.884 36.3983 145.359L36.2662 145.289C37.1322 144.811 38.215 144.709 39.163 144.465L39.1552 144.362C38.3165 144.348 36.3673 144.714 35.7377 144.513C35.6884 144.497 35.6401 144.478 35.5913 144.461Z" fill="#8EBA7C"/>
<path d="M91.0801 65.6465C91.4832 65.6129 91.8816 65.5965 92.2832 65.6625C94.1016 65.9629 95.6949 67.311 96.7285 68.7813C99.5727 72.8297 99.0945 78.9665 98.2348 83.6004C98.0148 84.786 97.6262 85.9372 97.4281 87.1239L97.4117 87.2294C96.709 87.1727 96.0129 87.1532 95.3129 87.254C93.1801 87.5618 91.8019 88.8141 90.5641 90.4797C90.0973 91.2028 89.6523 91.9504 89.0617 92.5813C88.084 89.3602 87.2035 86.9028 84.9199 84.3321C85.2328 83.0067 85.0602 81.3622 85.068 79.9895C85.0785 78.1043 85.1738 76.2165 85.152 74.3317C85.1344 72.8352 85.0191 71.3356 84.934 69.8415C87.2367 67.4403 87.4902 66.302 91.0801 65.6465Z" fill="#3B773B"/>
<path d="M92.9144 72.4797C93.3508 72.4825 93.6875 72.5614 94.0785 72.7602C95.0148 73.236 95.693 74.0567 96.0012 75.061C96.3117 76.0758 96.1926 77.1735 95.6719 78.0981C95.2472 78.8512 94.7222 79.2805 93.8965 79.5024C93.391 79.4993 92.9344 79.4071 92.4801 79.1797C91.6234 78.7516 91.0051 77.9551 90.7082 77.0543C90.3922 76.0954 90.3789 74.927 90.8601 74.0188C91.3051 73.1793 92.0277 72.7438 92.9144 72.4797Z" fill="black"/>
<path d="M92.7796 73.1677C93.1444 73.1345 93.5112 73.0872 93.8635 73.2142C94.5397 73.4579 95.0592 74.0548 95.3249 74.7091C95.6296 75.4599 95.6714 76.3634 95.3214 77.1067C95.0432 77.6981 94.6007 78.0497 94.0007 78.2778C93.6389 78.2669 93.2456 78.2665 92.9038 78.1353C92.2534 77.8856 91.726 77.2997 91.4409 76.6763C91.1331 76.0028 91.0448 75.1997 91.3342 74.5044C91.6167 73.8271 92.1264 73.4528 92.7796 73.1677Z" fill="#EA6F1C"/>
<path d="M74.8841 61.941C75.2048 61.8996 75.5559 61.8875 75.8798 61.893C77.488 61.9211 78.8915 62.7433 79.9891 63.8664C85.1169 69.1125 83.9954 76.7301 83.8864 83.3777C82.7395 82.6062 81.4743 82.2351 80.0934 82.1988C78.5403 82.1582 77.5138 82.85 76.4333 83.8703C75.57 84.7433 74.9618 85.734 74.7227 86.9453C74.1755 86.4078 73.477 86.0004 72.8325 85.5887C72.4259 84.4168 72.2583 83.1699 72.0087 81.9562C71.611 80.0492 71.1927 78.1465 70.754 76.2484C70.4681 75.0648 70.1446 73.8902 69.7841 72.7269C69.5095 71.8672 69.1411 70.982 68.9583 70.0992C68.611 68.423 69.5575 66.3828 70.4638 65.0004C71.5591 63.3293 72.9247 62.3535 74.8841 61.941Z" fill="#3B773B"/>
<path d="M76.9583 68.4785C77.4372 68.4625 77.9321 68.5434 78.3629 68.757C79.2762 69.2102 79.9274 70.0434 80.2379 71.0055C80.5528 71.9813 80.5305 73.0848 80.0504 74.0039C79.609 74.8488 79.0036 75.2137 78.1227 75.4957C77.4473 75.4977 76.8122 75.3469 76.2403 74.9762C75.343 74.3949 74.7969 73.4293 74.5739 72.3996C74.3758 71.4863 74.4762 70.4668 75.0012 69.6754C75.4856 68.9449 76.1215 68.6402 76.9583 68.4785Z" fill="black"/>
<path d="M76.9252 69.1551C77.306 69.1293 77.6478 69.1414 78.0048 69.2926C78.7209 69.5961 79.2556 70.2172 79.5314 70.9351C79.8045 71.6465 79.815 72.4808 79.4873 73.1762C79.1904 73.8054 78.7951 74.098 78.1595 74.3402C77.7115 74.3426 77.2552 74.3238 76.8388 74.1426C76.0931 73.8183 75.5279 73.1379 75.2689 72.3769C75.0412 71.7094 75.0521 70.9172 75.4052 70.293C75.7416 69.6988 76.2759 69.3254 76.9252 69.1551Z" fill="#EA6F1C"/>
<path d="M13.4433 123.968C14.6266 123.782 15.9708 123.878 17.1729 123.89C21.9594 123.937 26.8131 124.239 31.1797 126.414C30.0558 126.393 28.9002 126.13 27.7685 126.055C23.9734 125.802 19.0503 126.05 15.7924 128.183C14.5076 129.025 13.5089 130.248 13.2204 131.786C12.9612 133.169 13.476 134.604 14.2519 135.736C17.3312 140.229 24.6687 141.545 29.6896 142.452C31.4806 142.791 33.2868 142.835 35.0972 142.991C34.043 143.248 32.9133 143.352 31.8358 143.476C23.1413 144.479 12.7343 143.691 5.66099 138.027C3.64344 136.412 1.60588 134.039 1.36363 131.354C1.23449 129.923 1.83517 128.585 2.75201 127.52C5.14857 124.737 9.98275 124.223 13.4433 123.968Z" fill="#8EBA7C"/>
<path d="M27.9569 60.3813C29.1642 60.2461 30.4689 60.4215 31.634 60.7461C37.3491 62.3379 44.4445 68.282 47.3785 73.4914C46.0859 72.5192 45.0562 71.3203 43.664 70.4438C41.7324 69.2281 39.2621 68.5348 36.9968 69.0789C35.2323 69.5031 33.8512 70.6242 32.9298 72.1707C31.4172 74.709 31.7022 77.3606 32.4069 80.1004C33.5161 84.1602 35.5223 87.6535 37.5663 91.2903C36.5252 90.352 35.6368 89.2149 34.7223 88.1563C30.0181 82.7121 25.5701 76.0453 24.2784 68.8465C23.8967 66.7192 23.5741 63.9477 24.9377 62.0793C25.6876 61.052 26.7299 60.559 27.9569 60.3813Z" fill="#8EBA7C"/>
<path d="M51.1288 75.6195C50.1514 74.6703 48.4229 69.5293 47.9889 68.1441C46.783 64.2922 46.1241 57.4437 48.0737 53.7863C48.6327 52.7375 49.5553 51.8359 50.7233 51.516C52.4479 51.0433 54.6311 52.082 56.1088 52.9074C62.353 56.3949 66.4526 64.7754 68.3506 71.4293C67.9108 70.7922 67.5905 70.0621 67.2342 69.3754C66.4057 67.7781 65.4717 66.3039 64.126 65.0922C62.5819 63.7016 60.6795 62.4125 58.5077 62.5601C56.8518 62.673 55.253 63.5168 54.1651 64.7601C51.728 67.5457 52.0987 71.4769 52.3291 74.8961C52.8799 77.7359 53.7881 80.3902 54.7409 83.1133C53.6862 81.7109 53.1237 79.9617 52.4069 78.3687C51.9948 77.4535 51.5014 76.5488 51.1288 75.6195Z" fill="#8EBA7C"/>
<path d="M51.1284 75.6196L51.1628 75.6004C51.5292 75.7086 52.2401 77.8547 52.6667 78.2504C52.7179 78.1379 52.7972 78.0344 52.8202 77.9129C52.8694 77.6547 52.2108 75.5114 52.1874 74.8645L52.3288 74.8961C52.8796 77.736 53.7878 80.3903 54.7405 83.1133C53.6858 81.711 53.1233 79.9618 52.4065 78.3688C51.9944 77.4536 51.5011 76.5489 51.1284 75.6196Z" fill="#8EBA7C"/>
<path d="M14.0005 77.9589C14.8594 77.8347 15.8609 77.8757 16.7248 77.9574C21.4422 78.4038 27.8802 81.8656 30.9315 85.5183C30.1213 85.1773 29.3139 84.889 28.4474 84.7269C26.1439 84.2964 23.6008 84.5007 21.6373 85.8824C20.2498 86.8589 19.182 88.4191 18.9154 90.1031C18.3777 93.4992 20.2288 96.4132 22.1441 99.0331C23.4944 100.805 24.8213 102.403 26.502 103.877C24.4156 103.07 22.1289 101.773 20.3258 100.464C15.3446 96.8488 10.7749 90.5726 9.80951 84.4171C9.5642 82.8527 9.45158 81.121 10.4695 79.7839C11.2885 78.7081 12.6969 78.1503 14.0005 77.9589Z" fill="#8EBA7C"/>
<path d="M9.72584 99.847C11.3348 99.6348 17.0546 100.095 18.5065 100.79C19.2724 101.156 19.9934 101.85 20.7149 102.318C21.6533 102.927 22.6915 103.404 23.6927 103.901C21.2513 103.499 18.8155 103.302 16.4706 104.276C14.9033 104.927 13.5769 106.142 12.9401 107.733C12.2773 109.389 12.5194 111.141 13.2065 112.745C15.0658 117.086 19.7721 120.131 23.9977 121.836C25.1723 122.318 26.3997 122.762 27.5176 123.363C20.871 122.423 14.4588 120.303 9.21322 115.982C6.10802 113.424 3.21082 109.77 2.82518 105.631C2.69985 104.285 2.84653 103.041 3.76836 101.981C5.21052 100.324 7.66759 100.004 9.72584 99.847Z" fill="#8EBA7C"/>
<path d="M109.233 44.0724C110.995 43.8145 113.054 44.5192 114.49 45.5067C118.511 48.27 119.552 53.9856 120.404 58.4626C118.752 59.5477 116.701 59.5442 114.795 59.5692C112.23 59.5899 109.34 59.4579 107.182 57.8974C105.25 56.5001 104.103 54.3442 103.739 52.0157C103.442 50.1216 103.832 48.0618 104.989 46.5063C106.056 45.0724 107.485 44.3372 109.233 44.0724Z" fill="white"/>
<path d="M109.994 47.2801C110.834 47.1781 111.681 47.2985 112.447 47.6696C113.486 48.1723 114.192 49.0578 114.529 50.1528C114.96 51.5531 114.889 53.1531 114.171 54.4469C113.521 55.6196 112.566 56.2625 111.31 56.6301C110.332 56.8 109.443 56.6055 108.594 56.0875C107.5 55.4196 106.759 54.375 106.452 53.136C106.137 51.8668 106.141 50.3 106.852 49.1684C107.562 48.0363 108.752 47.5668 109.994 47.2801Z" fill="black"/>
<path d="M107.691 48.7957C107.742 48.7992 107.794 48.8015 107.845 48.8058C108.316 48.846 108.799 49.0855 109.087 49.4644C109.307 49.7542 109.4 50.1175 109.335 50.4769C109.235 51.0203 108.876 51.3425 108.444 51.6441C108.34 51.6671 108.237 51.6925 108.132 51.707C107.813 51.7503 107.471 51.6687 107.224 51.4562C106.919 51.1929 106.849 50.7863 106.871 50.405C106.911 49.725 107.207 49.2503 107.691 48.7957Z" fill="white"/>
<path d="M112.733 48.9031C112.845 48.9109 112.957 48.9171 113.067 48.9378C113.392 48.9996 113.67 49.3011 113.845 49.5667C114.097 49.9476 114.172 50.4187 114.051 50.8589C113.946 51.2386 113.697 51.3624 113.376 51.5343C113.273 51.5265 113.201 51.5253 113.103 51.5062C112.761 51.4394 112.435 51.1675 112.243 50.8859C112.024 50.5656 111.959 50.1441 112.033 49.766C112.123 49.3042 112.356 49.1386 112.733 48.9031Z" fill="white"/>
<path d="M71.9353 49.6445C73.9399 49.607 75.5177 50.1667 77.0103 51.5163C81.6978 55.755 83.6274 64.3929 83.9462 70.4605C82.8657 67.212 81.7544 64.4409 78.8638 62.3839C78.3247 62.0859 77.7532 61.8011 77.1603 61.6284C75.6665 61.189 74.0579 61.3816 72.7099 62.1613C70.404 63.471 69.1505 66.1925 68.4681 68.6402C67.9899 66.9167 66.4767 64.1909 66.2591 62.8011C65.7915 59.8163 66.7325 54.2745 68.5536 51.8066C69.3903 50.6726 70.5274 49.8691 71.9353 49.6445Z" fill="#8EBA7C"/>
<path d="M104.271 74.2137L104.524 74.2282C105.262 74.9591 106.498 77.9563 107.026 79.0493C106.158 79.1009 105.49 79.3653 104.869 79.9977C104.258 80.6087 103.918 81.4403 103.928 82.3048C103.935 83.2348 104.306 84.2067 105.002 84.838C105.807 85.5677 106.604 85.5872 107.621 85.5434C108.206 85.1165 108.711 84.5821 109.225 84.0747C109.274 85.2555 109.888 86.4188 109.794 87.588C109.667 89.1583 106.9 94.0802 105.874 95.4657C104.6 97.188 103.125 98.6305 102.056 100.526C101.779 101.108 99.8813 105.061 99.6778 105.281C99.6142 105.101 99.6224 105.018 99.6638 104.833C99.7856 104.293 100.092 103.768 100.261 103.235C100.711 101.809 101.088 100.277 101.336 98.8036C101.706 96.6024 101.849 93.9868 101.349 91.7958C100.958 90.0813 100.072 88.6559 98.5688 87.7177C98.811 86.1372 99.2087 84.5798 99.4919 83.0063C99.811 81.2344 99.9169 79.2251 100.525 77.5399C101.063 76.0501 102.887 74.8423 104.271 74.2137Z" fill="#3B773B"/>
<path d="M91.4868 170.425C92.7915 170.421 93.9192 170.209 95.1196 169.693C95.5036 171.538 95.7415 173.418 96.1005 175.269C96.4583 177.114 96.9458 178.905 97.4646 180.711C97.638 181.314 97.8321 182.469 98.3196 182.884L98.538 182.859C98.6626 182.709 98.8157 182.491 98.9962 182.41C99.3646 182.244 99.9337 182.212 100.336 182.124C103.438 181.446 107.719 181.025 110.703 182.369C111.025 182.514 111.436 182.697 111.563 183.05L111.442 183.237C111.005 183.426 110.604 183.472 110.129 183.486C109.085 183.516 108.006 183.357 106.961 183.275C105.644 183.164 104.32 183.132 102.999 183.18L102.822 183.48L103.217 183.519C104.212 183.618 105.214 183.709 106.197 183.894C107.508 184.141 112.197 185.288 112.9 186.265C113.002 186.407 112.956 186.466 112.937 186.628C112.49 187.11 111.77 187.249 111.143 187.353C108.497 187.792 106.566 186.784 104.175 185.834C102.904 185.329 101.614 184.875 100.342 184.374C99.7884 184.155 99.1802 183.759 98.5759 183.788L98.4739 183.905C99.179 185.404 107.634 187.324 109.001 189.934C109.146 190.211 109.108 190.355 109.01 190.626C108.746 190.807 108.504 190.826 108.192 190.823C105.047 190.795 100.437 189.073 97.9517 187.131C97.0493 186.426 96.3255 185.568 95.5438 184.74C94.4239 185.834 93.831 187.255 92.4829 188.516C92.7302 186.27 93.5294 184.801 95.236 183.327C94.8896 182.075 94.2782 180.9 93.9021 179.653C92.9837 176.609 92.2626 173.507 91.4868 170.425Z" fill="#F2BA22"/>
<path d="M102.822 183.48C102.621 183.448 102.484 183.411 102.305 183.312C102.542 183.166 102.727 183.195 102.999 183.18L102.822 183.48Z" fill="black"/>
<path d="M122.95 54.5144C123.294 54.4781 123.639 54.4535 123.985 54.4554C126.577 54.4722 132.811 58.3964 134.626 60.2593C136.994 62.6886 137.529 65.4738 137.504 68.7586C136.455 67.1898 135.245 66.1765 133.531 65.4125C128.975 63.5843 122.733 65.3546 118.72 62.748C117.803 62.1519 117.097 61.3578 116.366 60.557C117.396 60.5586 118.471 60.4164 119.474 60.1882C120.126 60.0402 120.81 59.8304 121.165 59.2144C121.773 58.1613 121.042 56.4347 120.736 55.3539C121.453 54.9586 122.149 54.6839 122.95 54.5144Z" fill="#F2BA22"/>
<path d="M67.302 121.418C64.0254 118.096 59.4832 113.088 57.8164 108.731C57.2809 107.332 57.0672 105.842 57.7243 104.431C57.9625 103.919 58.2508 103.541 58.7946 103.353C59.8547 102.986 60.8797 103.435 61.7258 104.078C62.9028 104.971 63.9328 106.23 64.6938 107.489C66.3422 110.218 67.4368 113.452 68.6805 116.385C68.8618 116.812 69.202 117.963 69.4504 118.243C69.5114 118.311 69.6153 118.321 69.6973 118.361L70.1223 118.345C69.2071 118.634 67.7961 120.604 67.302 121.418Z" fill="#8EBA7C"/>
<path d="M63.1738 120.244C62.43 119.786 61.4691 118.626 60.8093 117.976C57.3308 114.548 54.6671 111.548 52.0644 107.385C51.1265 105.884 50.2327 104.354 49.6148 102.689C48.6449 100.078 48.2964 96.6128 49.5128 94.0222C50.0566 92.864 50.9816 91.7753 52.2222 91.3546C53.6128 90.8831 55.239 91.2976 56.521 91.914C60.1902 93.6773 63.123 98.5526 64.4523 102.281L64.3101 102.608C62.8042 99.8452 60.9406 96.6831 57.7531 95.6648C56.4562 95.2507 55.0616 95.3421 53.8597 95.9991C52.596 96.6898 52.0077 97.8323 51.6023 99.1468L51.7296 99.2913L51.8058 99.0534L51.8867 99.2034L51.8113 99.255L51.9249 99.3644L51.9585 99.5105C51.6847 101.715 52.2464 103.414 52.8835 105.493L52.6519 105.774C53.5288 107.956 54.973 110.121 56.6507 111.772C57.3066 112.417 58.0562 112.986 58.6769 113.664C59.6015 114.673 60.3941 115.837 61.2788 116.888C61.8648 117.584 62.6253 118.274 63.1046 119.039C63.8808 119.868 65.9116 121.718 66.2226 122.689L66.1667 122.829C65.6695 122.844 65.1058 122.171 64.757 121.842C64.2167 121.335 63.6663 120.798 63.1738 120.244Z" fill="#F2BA22"/>
<path d="M51.6027 99.1468L51.73 99.2914L51.8062 99.0535L51.887 99.2035L51.8117 99.255L51.9253 99.3644L51.9589 99.5105C51.6851 101.715 52.2468 103.414 52.8839 105.493L52.6523 105.774C52.637 105.75 52.6199 105.727 52.6066 105.701C51.7031 103.938 50.9691 101.099 51.6027 99.1468Z" fill="black"/>
<path d="M63.1045 119.039C63.8807 119.868 65.9115 121.718 66.2225 122.689L66.1666 122.829C65.6693 122.844 65.1057 122.171 64.7568 121.843C64.2166 121.335 63.6662 120.798 63.1736 120.244C63.7443 120.27 64.7807 121.525 65.2076 121.938L65.3459 121.939L65.4432 122.118L65.3506 122.058L65.4244 122.052C64.9811 120.959 63.3318 120.171 63.1045 119.039Z" fill="#F2BA22"/>
<path d="M45.3878 115.468C46.769 115.298 48.2983 115.505 49.6452 115.819C54.5558 116.966 58.698 119.909 62.3788 123.241C63.0124 123.814 63.9468 124.45 64.3937 125.169C64.3394 125.427 64.355 125.456 64.1538 125.618C63.8894 125.616 63.7276 125.552 63.5116 125.409C62.8198 124.95 62.178 124.309 61.5335 123.777C60.071 122.569 58.5694 121.345 56.9921 120.29C55.3788 119.211 53.4401 118.087 51.5179 117.692C49.8105 117.341 47.6605 117.411 46.1862 118.428C45.2538 119.068 44.6257 120.063 44.4483 121.18C44.153 122.982 44.8093 124.576 45.8144 126.031C47.3202 128.093 49.8034 129.519 52.1112 130.502C53.2331 130.98 60.18 132.975 60.6132 133.618C60.696 133.741 60.6382 133.789 60.5972 133.915C60.4886 133.966 60.4894 133.973 60.3503 133.998C59.1151 134.224 50.2003 130.95 48.612 130.188C47.2405 129.531 45.9397 128.736 44.7292 127.816C42.6054 126.205 40.1866 123.726 39.8585 120.944C39.7151 119.727 40.0511 118.441 40.8167 117.478C41.9476 116.054 43.6831 115.67 45.3878 115.468Z" fill="#F2BA22"/>
<path d="M73.9771 99.1148C74.5314 99.1031 75.074 99.2777 75.5174 99.6109C78.4721 101.805 78.3752 108.857 78.8029 112.281C77.74 112.751 76.7115 113.295 75.7252 113.909C75.2143 114.258 74.7256 114.618 74.2447 115.006C73.8182 113.918 73.5088 112.773 73.1678 111.655C72.1916 108.456 70.8158 104.135 72.2166 100.883C72.5951 100.003 73.0994 99.4804 73.9771 99.1148Z" fill="#8EBA7C"/>
<path d="M92.511 55.6852C93.0231 55.6169 93.5216 55.6571 94.0349 55.6872C94.0056 55.7641 93.9774 55.8419 93.9501 55.9196C93.0435 58.5145 92.613 63.159 93.8544 65.7145C92.9813 65.2879 92.1438 65.0805 91.1649 65.1434C89.0743 65.2774 87.3231 66.4258 85.9575 67.9407L84.8728 69.2133C84.7747 67.1942 84.4649 65.2801 83.9966 63.3192C84.3274 62.5629 84.7239 61.8368 85.1806 61.1493C86.9513 58.4356 89.2911 56.3708 92.511 55.6852Z" fill="#8EBA7C"/>
<path d="M82.8698 96.312C82.8999 96.3113 82.93 96.3105 82.96 96.3101C83.6487 96.3011 84.0804 96.5226 84.5624 97.0144C86.7866 99.2855 86.8296 106.587 86.8018 109.713C85.8604 109.823 84.9261 110.094 84.0202 110.364C83.2452 110.56 82.4772 110.814 81.7104 111.041C81.5159 109.551 81.1933 108.078 80.939 106.597C80.5733 104.469 79.9737 99.0163 81.2999 97.2503C81.7179 96.6941 82.1925 96.4269 82.8698 96.312Z" fill="#8EBA7C"/>
<path d="M101.707 17.2198C101.386 16.6312 101.176 15.9818 101.367 15.3124C101.527 14.7499 101.963 14.3196 102.472 14.0548C103.294 13.6324 104.251 13.5534 105.131 13.8352C106.259 14.2045 107.125 15.169 107.628 16.2179C107.877 16.7314 108.066 17.2715 108.192 17.8278C108.576 19.0156 108.876 20.3666 108.887 21.6181C109.69 25.7097 109.015 30.0284 109.522 34.1737C109.06 34.242 108.59 34.2634 108.124 34.2969C107.24 29.5661 107.149 25.7911 104.592 21.4487C103.74 20.0024 102.585 18.7474 101.754 17.3039C101.738 17.276 101.722 17.2478 101.707 17.2198Z" fill="#FA3948"/>
<path d="M101.707 17.2198C101.386 16.6312 101.176 15.9818 101.367 15.3124C101.527 14.7499 101.963 14.3196 102.472 14.0548C103.294 13.6324 104.251 13.5534 105.131 13.8352C106.259 14.2045 107.125 15.169 107.628 16.2179C107.877 16.7314 108.066 17.2715 108.192 17.8278C108.167 18.0688 108.141 18.3084 108.105 18.5481C107.97 18.4126 107.838 18.2739 107.709 18.1322C107.603 17.8787 107.481 17.6305 107.356 17.3864C106.794 16.2935 105.947 15.2586 104.728 14.8952C104.169 14.7289 103.615 14.7708 103.114 15.0782C102.528 15.4374 102.042 16.0072 101.895 16.6833C101.86 16.8441 101.836 16.9568 101.765 17.1102C101.747 17.1477 101.726 17.1833 101.707 17.2198Z" fill="white"/>
<path d="M108.192 17.8278C108.577 19.0155 108.876 20.3665 108.888 21.618C108.219 20.738 108.03 19.1946 107.709 18.1321C107.838 18.2739 107.97 18.4125 108.105 18.548C108.141 18.3083 108.167 18.0687 108.192 17.8278Z" fill="white"/>
<path d="M95.9793 16.7183C96.557 16.2932 97.1813 16.0722 97.9059 16.1857C99.8234 16.486 101.454 18.3973 102.488 19.899C102.793 20.3406 103.07 20.7778 103.29 21.2683C103.468 21.5373 103.643 21.808 103.816 22.0802C105.826 25.2474 106.554 28.6446 107.248 32.2641C107.353 32.8085 107.685 33.7583 107.52 34.2733C107.443 34.5135 107.267 34.7457 107.025 34.8427C106.81 34.9285 106.657 34.9037 106.452 34.8235C105.808 34.0616 105.689 33.0275 105.368 32.1068C103.576 26.9574 100.757 23.072 95.798 20.686C95.6645 20.6093 95.5402 20.5368 95.4297 20.4278C94.8602 19.8663 94.8469 19.0293 94.8398 18.2825L95.2922 18.2235C95.4836 17.9263 95.8551 17.6518 95.9848 17.3263C96.0902 17.0625 96.0586 16.973 95.9793 16.7183Z" fill="#FA3948"/>
<path d="M95.9794 16.7183C96.5572 16.2932 97.1814 16.0722 97.906 16.1857C99.8236 16.486 101.454 18.3973 102.488 19.899C102.793 20.3406 103.07 20.7778 103.29 21.2683C102.519 21.0222 101.616 19.4393 101.036 18.8242C100.269 18.0093 99.1462 17.0521 97.9763 17.0422C97.0044 17.0341 96.5841 17.5132 95.956 18.1648C95.9009 18.0608 95.9423 18.122 95.8033 18.0041C95.6681 18.0896 95.5626 18.1537 95.4064 18.1968C95.3689 18.2072 94.8036 18.7563 94.8439 18.2969C94.8842 17.8374 95.0469 17.6367 95.1452 17.4849C95.2436 17.3331 95.6148 16.9865 95.9794 16.7183Z" fill="white"/>
<path d="M95.2922 18.2234C95.3301 18.2146 95.3688 18.2072 95.4063 18.1968C95.5625 18.1536 95.668 18.0896 95.8031 18.004C95.9422 18.122 95.9008 18.0607 95.9559 18.1648C95.7711 18.5669 95.593 18.9554 95.4723 19.3832C95.6004 19.7516 95.9059 20.312 95.798 20.6859C95.6645 20.6092 95.5402 20.5367 95.4297 20.4278C94.8602 19.8663 94.8469 19.0292 94.8398 18.2825L95.2922 18.2234Z" fill="white"/>
<path d="M51.9588 99.5105C52.2943 98.2562 52.8541 97.1257 54.015 96.4374C55.0416 95.8288 56.3412 95.778 57.4709 96.0863C60.5916 96.9382 62.6314 100.316 64.0822 102.963C64.5564 103.829 64.9756 104.628 65.2166 105.594C63.8803 103.712 61.6416 101.082 59.2111 100.672C58.3764 100.532 57.5701 100.729 56.9014 101.251C55.9502 101.994 55.4174 103.104 55.3033 104.289C55.1279 106.113 55.6412 107.694 56.3877 109.331C56.5654 109.721 56.9006 110.232 56.983 110.637C57.4971 111.228 57.9232 111.978 58.2982 112.666C57.385 111.979 56.4682 111.278 55.8771 110.28C54.8346 109.358 53.4228 106.767 52.8838 105.493C52.2467 103.414 51.685 101.715 51.9588 99.5105Z" fill="#0B8DCB"/>
<path d="M55.877 110.28C55.9227 110.301 55.9691 110.321 56.0141 110.344C56.4273 110.555 56.6164 111.047 57.0211 111.284L57.1168 111.192L56.9828 110.637C57.4969 111.228 57.923 111.978 58.298 112.666C57.3848 111.979 56.468 111.278 55.877 110.28Z" fill="#0B8DCB"/>
<path d="M53.7015 122.188C56.0828 122.124 58.8308 123.591 60.7371 124.896C61.5992 125.486 62.4394 126.197 63.3699 126.673C63.4015 126.689 63.4336 126.704 63.4656 126.72C62.5082 128.33 61.8484 130.143 61.1714 131.883C60.3121 132.004 57.5832 130.544 56.6945 130.092C54.6957 129.076 52.3652 127.758 51.6722 125.449C51.4597 124.742 51.4699 123.971 51.8632 123.326C52.2757 122.651 52.9687 122.374 53.7015 122.188Z" fill="#8EBA7C"/>
<path d="M93.1729 27.1127C92.869 26.978 92.5858 26.8312 92.3319 26.613C91.7968 26.1536 91.4042 25.5227 91.3479 24.81C91.2874 24.0401 91.619 23.2752 92.1405 22.7197C92.7233 22.091 93.5386 21.7287 94.3956 21.7171C95.6093 21.7118 97.6069 22.5862 98.4514 23.458C99.6616 24.1533 101.158 25.8179 101.82 27.0291C102.61 28.1269 105.976 33.9765 105.771 35.1623C105.722 35.4407 105.656 35.4599 105.434 35.5982C105.083 35.6163 104.921 35.5873 104.659 35.3424C103.735 34.4786 103.177 33.1633 102.298 32.2088C100.523 30.2824 98.5143 28.765 95.9971 27.9705C95.0866 27.6832 94.0436 27.4911 93.1729 27.1127Z" fill="#FA3948"/>
<path d="M93.1729 27.1127C92.869 26.978 92.5858 26.8312 92.3319 26.613C91.7968 26.1536 91.4042 25.5227 91.3479 24.81C91.2874 24.0401 91.619 23.2752 92.1405 22.7197C92.7233 22.091 93.5386 21.7287 94.3956 21.7171C95.6093 21.7118 97.6069 22.5862 98.4514 23.458C98.7073 23.9068 99.2495 24.1807 99.446 24.614L99.3905 24.7598C98.153 23.6862 96.3714 22.3261 94.6323 22.4127C93.9964 22.4444 93.4499 22.7205 93.0331 23.1995C92.6475 23.6429 92.1733 24.4996 92.2128 25.1099C92.2721 26.0217 93.2432 26.7396 93.1729 27.1127Z" fill="white"/>
<path d="M98.4517 23.458C99.6618 24.1533 101.158 25.8179 101.82 27.0291C101.133 26.9684 99.886 25.3148 99.3907 24.7598L99.4462 24.614C99.2497 24.1807 98.7075 23.9068 98.4517 23.458Z" fill="white"/>
<path d="M109.585 18.5051C109.43 17.5568 109.233 16.6228 109.824 15.7706C110.205 15.2226 110.817 14.8998 111.472 14.8185C112.406 14.7027 113.365 15.0731 114.069 15.6763C114.887 16.3766 115.284 17.3846 115.334 18.445C115.396 19.7537 114.952 20.9945 114.374 22.1488C112.053 26.7455 111.276 28.8628 111.62 34.0954L109.996 34.1006C109.84 31.7641 110.047 29.4107 110.035 27.0724C110.025 25.386 110.051 23.6658 109.94 21.9837C109.863 20.8215 109.663 19.668 109.585 18.5051Z" fill="#FA3948"/>
<path d="M109.585 18.5051C109.43 17.5568 109.233 16.6228 109.824 15.7706C110.205 15.2226 110.817 14.8998 111.472 14.8185C112.406 14.7027 113.365 15.0731 114.069 15.6763C114.887 16.3766 115.284 17.3846 115.334 18.445C115.396 19.7537 114.952 20.9945 114.374 22.1488C114.156 21.7412 114.336 21.1908 114.411 20.7532C114.22 19.8058 114.235 18.4237 114.306 17.4496C113.954 16.8182 113.552 16.3859 112.842 16.1718C112.2 15.9786 111.462 16.0279 110.88 16.3757C109.955 16.9287 110.17 17.8267 109.585 18.5051Z" fill="white"/>
<path d="M114.411 20.7532C114.22 19.8058 114.235 18.4236 114.306 17.4496C114.752 18.6253 114.611 19.5507 114.411 20.7532Z" fill="#FA3948"/>
<path d="M51.9505 135.195C53.0939 135.035 59.2513 135.27 60.047 135.929C60.1525 136.016 60.1134 136.186 60.1185 136.313C60.0759 136.392 60.0665 136.501 59.9915 136.55C59.4654 136.898 53.9896 135.487 51.0837 137.75C50.0962 138.519 49.3923 139.596 49.2447 140.855C49.1021 142.069 49.4814 143.416 50.2587 144.362C51.9911 146.471 55.6568 146.699 58.1677 146.963C59.0201 147.012 61.2224 146.809 61.8244 147.353C61.6275 147.574 61.4298 147.584 61.1431 147.627C60.0286 147.797 58.8314 147.691 57.7079 147.639C54.3013 147.482 50.5947 147.263 47.7435 145.165C46.5255 144.269 45.588 142.929 45.3888 141.407C45.229 140.092 45.6162 138.769 46.4603 137.748C47.8392 136.056 49.8595 135.433 51.9505 135.195Z" fill="#F2BA22"/>
<path d="M79.9957 83.3301C80.748 83.3336 81.4473 83.4324 82.1437 83.7316C84.4 84.7012 86.0012 87.3566 86.8563 89.5461C88.7367 94.3594 88.7262 101.452 88.6086 106.604C88.5918 107.333 88.768 108.704 88.4504 109.321C88.3734 109.471 88.3344 109.449 88.1875 109.503L88.0547 109.373C87.7703 107.335 87.9023 105.07 87.9066 103.003C87.9414 99.9391 87.9074 96.6504 87.0395 93.6949C86.3133 91.223 85.3531 89.3156 83.0309 88.0531C81.9664 87.4746 81.0969 87.4461 79.9531 87.8117C78.491 88.2793 77.7945 89.2621 77.1242 90.5602C76.7301 89.4672 76.3102 88.5707 75.5508 87.6754C75.9133 86.8227 76.316 85.959 76.8746 85.2152C77.6766 84.1477 78.6797 83.5262 79.9957 83.3301Z" fill="#F2BA22"/>
<path d="M80.3795 88.0059C80.6572 87.9691 80.9369 87.9512 81.217 87.9512C82.408 87.9543 83.576 88.6289 84.3889 89.4613C86.8373 91.9684 87.4377 96.7383 87.3713 100.101C86.8244 98.3297 86.3021 96.3098 84.9549 94.9562C84.3107 94.4617 83.6209 93.9898 82.7967 93.8824C82.0213 93.7816 81.2604 94.0684 80.6697 94.5641C79.4951 95.55 79.1447 97.0395 78.9857 98.4871C78.8084 97.3039 78.7006 96.1254 78.4389 94.9531C78.1236 93.5398 77.6338 92.1637 77.2803 90.7574C78.299 89.3824 78.6994 88.6605 80.3795 88.0059Z" fill="#0B8DCB"/>
<path d="M68.5173 103.736C67.8044 101.739 67.1259 99.641 66.7666 97.5488C66.2427 94.5008 66.2861 90.7765 68.1587 88.1601C68.7431 87.3437 69.5267 86.7715 70.5349 86.63C71.6662 86.4718 72.7837 86.8121 73.6791 87.5082C75.5595 88.9703 77.0158 92.5543 77.3244 94.8672C77.3169 94.905 77.3072 94.9422 77.3021 94.9804C77.2806 95.1418 77.2748 95.298 77.2447 95.4593C77.2373 95.5 77.2255 95.5394 77.2212 95.58C77.2197 95.5957 77.2255 95.6113 77.2275 95.6265L77.0365 95.2226L76.8806 95.1504C76.1341 93.3937 75.263 91.5855 73.3478 90.8488C72.5654 90.5476 71.7189 90.5691 70.9603 90.9304C69.7466 91.509 68.9533 92.7441 68.5466 93.9883C67.5959 96.8984 68.2427 100.212 68.981 103.095C68.7576 103.309 68.649 103.456 68.5173 103.736Z" fill="#F2BA22"/>
<path d="M54.0349 130.689C52.5321 130.151 51.0626 129.558 49.686 128.739C47.5333 127.457 45.5395 125.598 44.9169 123.08C44.6474 121.99 44.72 120.775 45.3438 119.814C45.9263 118.916 46.9274 118.392 47.9513 118.172C50.8829 117.539 53.6376 118.743 56.052 120.282C55.9458 120.449 55.8462 120.629 55.7224 120.782C54.6915 120.275 53.4247 119.97 52.2778 120.116C51.3313 120.236 50.4864 120.711 49.9224 121.486C49.2016 122.475 49.1419 123.679 49.3071 124.85C49.7224 127.789 51.8583 129.032 54.0349 130.689Z" fill="#0B8DCB"/>
<path d="M69.3002 102.602C69.2545 102.441 69.2124 102.279 69.1737 102.116C68.5014 99.2855 67.9104 95.2812 69.5995 92.6723C70.0756 91.9367 70.7854 91.3211 71.6616 91.1414C72.4971 90.9707 73.3362 91.2226 74.0288 91.6953C76.4381 93.3387 76.967 96.6633 77.4909 99.3L77.3901 99.348C77.3522 99.3152 77.3135 99.2832 77.2764 99.25C76.0909 98.1848 75.6397 96.523 73.6463 96.5617C72.867 96.5769 72.2217 97.0215 71.7073 97.5746C70.4862 98.8859 70.019 100.684 69.869 102.425L69.3002 102.602Z" fill="#0B8DCB"/>
<path d="M92.9676 99.7137C93.3543 99.711 93.8047 99.6758 94.1758 99.795C94.8129 99.9993 95.3113 100.507 95.6102 101.092C96.7418 103.307 95.9781 106.657 95.2801 108.887C94.357 108.872 93.4492 108.887 92.5289 108.964C91.5387 109.022 90.543 109.144 89.5547 109.238C89.6359 107.611 89.8508 106.049 90.2035 104.459C90.6516 102.44 91.125 100.884 92.9676 99.7137Z" fill="#8EBA7C"/>
<path d="M55.6412 136.858C57.2181 136.809 58.7251 136.91 60.2646 137.256C58.731 137.612 56.8583 137.9 55.6755 139.026C54.9232 139.741 54.4869 140.671 54.4966 141.715C54.5036 142.452 54.7708 143.149 55.1919 143.748C56.8111 146.053 59.599 145.716 60.4411 146.555L60.3685 146.652L60.0353 146.646C57.4009 146.374 53.229 146.331 51.1408 144.58C50.2822 143.86 49.7576 142.771 49.6697 141.658C49.5802 140.527 50.0204 139.451 50.7771 138.619C52.088 137.179 53.8165 136.96 55.6412 136.858Z" fill="#0B8DCB"/>
<path d="M94.2809 92.2867C94.8758 92.2434 95.4773 92.2809 96.0477 92.4656C97.0848 92.802 97.8016 93.5492 98.2914 94.502C99.7203 97.282 98.6699 101.56 97.7762 104.38C97.7805 102.216 97.832 99.9609 96.2293 98.3129C95.7824 97.9676 95.3234 97.6477 94.7855 97.4598C93.9551 97.1695 93.0664 97.2172 92.2797 97.6176C90.9758 98.2805 89.9855 99.9727 89.5449 101.321C89.5621 99.1012 89.7141 97.5363 90.7512 95.523C91.4629 94.1422 92.7723 92.7699 94.2809 92.2867Z" fill="#0B8DCB"/>
<path d="M89.6858 94.4723C90.3464 92.2883 91.9018 90.0535 93.9362 88.9539C94.946 88.4082 96.1901 88.0899 97.3194 88.4098C98.3725 88.7078 99.1202 89.536 99.6182 90.477C100.778 92.6695 100.736 97.291 100.085 99.6524C100.068 99.7141 100.044 99.7734 100.023 99.834C99.7061 101.758 98.9186 105.104 97.8975 106.659L97.8011 106.318C98.3913 104.23 98.9221 102.153 99.2725 100.011C99.3846 99.152 99.4624 98.2891 99.4202 97.4223C99.3397 95.7649 98.8034 93.9086 97.5151 92.7817C96.7448 92.1082 95.7456 91.7598 94.7229 91.8547C93.0335 92.0117 91.8999 93.2387 90.8667 94.4551C90.3018 95.3645 89.8956 96.3938 89.4452 97.3645C89.421 96.375 89.3417 95.4215 89.6858 94.4723Z" fill="#F2BA22"/>
<path d="M99.2728 100.011L99.3845 100.219C99.3884 100.96 99.2364 101.778 99.0157 102.484L98.9731 102.618L99.0653 102.69C99.6669 102.28 99.3556 100.547 99.9337 99.9082C99.9599 99.8797 99.9935 99.8586 100.024 99.834C99.7063 101.758 98.9188 105.104 97.8978 106.659L97.8013 106.318C98.3915 104.23 98.9224 102.153 99.2728 100.011Z" fill="#F2BA22"/>
<path d="M89.6858 94.4722C89.7003 94.4968 89.7182 94.5191 89.7292 94.5453C89.8007 94.7156 89.7557 94.8941 89.735 95.0714L89.8065 95.1628L90.0761 94.7921L90.4151 94.8503C90.5343 94.6601 90.5819 94.5257 90.7823 94.4128L90.8667 94.455C90.3018 95.3644 89.8956 96.3937 89.4452 97.3644C89.421 96.375 89.3417 95.4214 89.6858 94.4722Z" fill="#F2BA22"/>
<path d="M116.972 62.6617C117.707 63.1344 118.251 63.8235 119.061 64.2106C122.621 65.9121 128.403 65.1278 132.464 66.0121C131.796 66.4973 131.138 66.9688 130.42 67.3785C129.919 67.6512 129.394 67.8867 128.867 68.1012C126.783 68.9473 124.067 69.5512 121.923 68.6133C119.444 67.5289 117.933 65.0883 116.972 62.6617Z" fill="#F2BA22"/>
<path d="M125.66 42.9773C126.064 43.0136 126.458 43.0589 126.837 43.2144C128.276 43.8066 129.1 45.0621 129.69 46.432C131.022 49.5214 130.908 52.4132 129.672 55.5035L127.84 54.6957C127.9 54.6554 127.96 54.614 128.019 54.5718C129.276 53.6664 129.721 52.5718 129.95 51.098C129.988 50.7851 130.002 50.4464 129.989 50.1316C129.938 48.8898 129.562 47.5253 128.591 46.6894C128.081 46.2503 127.386 45.9582 126.705 46.016C126.138 46.0648 125.664 46.3773 125.327 46.8269C124.338 48.1445 124.646 49.9101 124.879 51.4152C124.823 51.3167 124.769 51.2171 124.715 51.1167C123.776 49.3398 123.581 46.7273 124.198 44.8117C124.467 43.9765 124.875 43.3765 125.66 42.9773Z" fill="white"/>
<path d="M107.568 98.7457C108.516 98.7938 109.236 99.1656 110.068 99.5766C109.566 101.193 109.045 102.819 108.465 104.409C107.999 103.849 107.377 103.55 106.667 103.397C105.61 103.167 104.76 103.397 103.875 103.98C103.136 104.514 102.544 105.325 101.892 105.969C102.235 105.069 102.598 104.186 103.05 103.334C104.074 101.398 105.385 99.4278 107.568 98.7457Z" fill="#0B8DCB"/>
<path d="M95.583 64.2727C95.7772 64.795 95.8768 65.3555 96.0002 65.8981C96.0709 66.0641 96.1408 66.2325 96.2275 66.3907C96.3471 66.6098 96.5314 66.7844 96.7885 66.8243C97.0256 66.861 97.2471 66.809 97.4186 66.6387C97.6744 66.3844 97.8529 66.1024 97.8877 65.7438C97.9881 65.8641 97.9975 65.9379 98.1619 65.9559C98.3068 65.9715 98.3865 65.9528 98.5225 65.9114C98.9389 66.3938 99.4502 66.8188 99.8322 67.3251C100.506 68.2168 100.285 69.8524 100.208 70.9032C100.028 73.2356 99.7596 75.561 99.4021 77.8731C99.3959 77.8344 99.3893 77.7958 99.3834 77.7567C99.2072 76.5887 99.2521 75.3922 99.1018 74.2161C98.7889 71.7735 97.6041 68.4098 95.6299 66.8C95.4385 66.6442 95.2045 66.5668 94.9721 66.4946L94.915 66.3641C95.0338 66.2223 95.1522 66.1426 95.3088 66.045C95.3775 65.4473 95.467 64.8633 95.583 64.2727Z" fill="#8EBA7C"/>
<path d="M95.5828 64.2727C95.777 64.795 95.8766 65.3555 96 65.8981C95.8141 65.8661 95.6293 65.834 95.4426 65.8075L95.3086 66.045C95.3773 65.4473 95.4668 64.8633 95.5828 64.2727Z" fill="#8EBA7C"/>
<path d="M70.4534 105.251C70.3917 104.628 70.3296 104.004 70.3206 103.377C70.2941 101.582 70.6753 99.2516 72.0171 97.9383C72.5487 97.418 73.2765 97.1223 74.0237 97.1699C74.9519 97.2289 75.6378 97.8656 76.2054 98.5414C76.1378 98.8281 76.1616 99.1414 76.0421 99.4047C75.3816 98.9242 74.7495 98.5367 73.8909 98.6648C73.1972 98.7684 72.6616 99.2332 72.2659 99.7883C71.8835 100.325 71.6441 100.95 71.4359 101.57C71.1839 103.01 71.0925 104.393 71.2831 105.847C71.5624 107.979 72.1937 110.076 72.7948 112.136C73.0706 113.081 73.4679 114.11 73.5765 115.09C73.6073 115.365 73.5847 115.46 73.4323 115.688L73.2609 115.717C72.3972 114.945 70.6761 106.679 70.4534 105.251Z" fill="#F2BA22"/>
<path d="M70.4536 105.251C70.7813 104.648 70.481 103.541 70.5396 102.831C70.6595 102.946 70.5747 103.404 70.6544 103.611C70.6786 103.52 70.6552 103.568 70.7489 103.48C70.9196 104.012 70.7915 104.819 70.8028 105.39L70.8813 105.411C71.0462 105.071 70.9571 102.596 71.229 101.657L71.436 101.57C71.1841 103.01 71.0927 104.393 71.2833 105.847C71.5626 107.979 72.1938 110.076 72.795 112.136C73.0708 113.081 73.4681 114.11 73.5767 115.09C73.6075 115.365 73.5849 115.46 73.4325 115.688L73.261 115.717C72.3974 114.945 70.6763 106.679 70.4536 105.251Z" fill="#F2BA22"/>
<path d="M102.84 101.46C103.568 100.008 104.485 98.5671 105.627 97.4038C107.067 95.9374 108.546 95.4651 110.58 95.4526C110.523 96.6776 110.31 97.8968 110.217 99.121C109.468 98.6995 108.645 98.2972 107.765 98.2995C106.221 98.3038 105.042 99.978 104.06 100.986C103.258 102.175 102.548 103.419 101.824 104.656C101.703 104.463 101.6 104.265 101.494 104.064C101.961 103.205 102.409 102.337 102.84 101.46Z" fill="#F2BA22"/>
<path d="M102.84 101.46L103.148 101.34L103.214 101.42C103.076 101.66 102.948 101.89 102.846 102.148L102.997 102.17C103.334 101.978 103.572 101.294 103.853 100.973L104.06 100.986C103.258 102.175 102.548 103.419 101.824 104.656C101.703 104.463 101.6 104.265 101.494 104.064C101.961 103.205 102.409 102.337 102.84 101.46Z" fill="#F2BA22"/>
<path d="M96.8945 173.255C98.5008 173.639 100.527 175.147 101.904 176.126C103.039 176.933 104.454 177.866 104.701 179.332C104.66 179.343 104.619 179.356 104.577 179.364C103.679 179.541 102.527 178.905 101.794 178.418C101.03 177.91 97.8375 175.682 97.4551 175.134C97.0949 174.619 97.0148 173.86 96.8945 173.255Z" fill="#F2BA22"/>
<path d="M106.307 79.5832C106.55 79.5742 106.832 79.5425 107.052 79.6707C107.997 80.2183 108.468 82.414 108.689 83.4226C108.156 83.9972 107.799 84.4402 107.015 84.6492C106.965 84.6367 106.914 84.625 106.864 84.6121C106.021 84.3937 105.29 83.9543 104.854 83.1761C104.557 82.6488 104.473 82.0441 104.638 81.4605C104.889 80.5765 105.55 80.0281 106.307 79.5832Z" fill="#EA6F1C"/>
<path d="M96.3377 52.198C96.4248 52.2492 96.481 52.3242 96.549 52.3976C96.9635 55.1941 95.4881 57.85 95.0869 60.5503C94.9131 61.7183 94.9471 64.598 94.6025 65.4761L94.433 65.5035C94.0814 64.6046 93.9385 63.8078 93.9213 62.8464C93.8728 60.1652 94.44 54.1785 96.3377 52.198Z" fill="#FA3948"/>
<path d="M59.2338 138.015C59.5197 137.982 59.7088 137.962 59.9861 138.07C59.9881 138.502 58.0166 139.189 57.4408 139.911C56.9647 140.504 56.7576 141.269 56.8686 142.021C57.2104 144.318 59.4428 144.413 60.719 145.498C60.8838 145.638 60.8897 145.684 60.91 145.886C60.6779 145.98 60.4186 145.845 60.1791 145.78C59.1053 145.585 57.8818 145.191 56.9611 144.599C56.1014 144.046 55.3272 143.176 55.1268 142.148C54.9713 141.352 55.1897 140.544 55.6635 139.893C56.5342 138.699 57.844 138.254 59.2338 138.015Z" fill="#F2BA22"/>
<path d="M56.0388 106.812C55.8763 106.065 55.7556 105.299 55.8189 104.532C55.9044 103.498 56.2708 102.486 57.1013 101.818C57.7029 101.334 58.4439 101.126 59.2095 101.221C60.8564 101.426 62.3806 102.818 63.39 104.047L63.3001 104.477C63.2021 104.53 63.1044 104.582 63.004 104.631C62.5833 104.213 62.1521 103.807 61.6599 103.474C60.8826 102.946 59.9099 102.51 58.9533 102.731C58.1658 102.913 57.8146 103.345 57.3982 103.991C57.0693 104.919 56.7423 105.807 56.8701 106.812L56.7068 106.718C56.456 106.973 56.4025 107.243 56.3009 107.578L56.263 107.7C56.1732 107.406 56.104 107.112 56.0388 106.812Z" fill="#F2BA22"/>
<path d="M56.0386 106.812C56.2222 106.282 56.6374 104.509 56.9183 104.171C57.0819 103.973 57.1558 104.006 57.3979 103.991C57.069 104.919 56.7421 105.807 56.8698 106.812L56.7065 106.718C56.4558 106.973 56.4022 107.243 56.3007 107.578L56.2628 107.7C56.173 107.406 56.1038 107.112 56.0386 106.812Z" fill="#F2BA22"/>
<path d="M50.8341 127.167C50.6646 126.968 50.5411 126.742 50.4177 126.512C49.8259 125.414 49.4708 123.853 49.8751 122.644C50.1423 121.845 50.7521 121.227 51.5173 120.89C52.8505 120.302 54.2513 120.694 55.5341 121.187C55.3638 121.409 55.2064 121.622 55.0712 121.868C54.0986 121.707 53.0482 121.671 52.1978 122.254C51.6302 122.642 51.29 123.242 51.1724 123.913C51.0259 124.747 51.2099 125.467 51.4142 126.263C51.4177 126.295 51.4212 126.326 51.4251 126.357C51.4638 126.667 51.5279 126.868 51.6708 127.144C51.6521 127.413 51.7064 127.478 51.5064 127.675C51.2876 127.569 51.1822 127.359 51.0517 127.163C50.8728 127.133 50.9427 127.114 50.8341 127.167Z" fill="#F2BA22"/>
<path d="M91.2529 99.2726C91.7057 98.6015 92.2916 98.0613 93.1021 97.8816C93.9385 97.6964 94.7967 97.8789 95.5037 98.3562C96.2979 98.8921 96.8584 99.7765 97.0248 100.72C97.0299 100.748 97.0318 100.775 97.0354 100.803C97.3346 101.932 97.3596 103.256 97.1729 104.406L96.9529 104.224C96.6643 104.362 96.9041 104.638 96.5564 104.597C96.5951 104.025 96.5787 103.444 96.5811 102.87C96.4232 102.103 96.2205 101.334 95.835 100.645C95.4635 99.982 94.9006 99.4285 94.1416 99.2519C93.2127 99.0363 92.5607 99.3441 91.8041 99.8257L90.9029 100.899C90.7947 100.676 90.6627 100.617 90.4639 100.484C90.7041 100.055 90.9623 99.6687 91.2529 99.2726Z" fill="#F2BA22"/>
<path d="M96.5813 102.87C96.5895 102.632 96.5898 102.405 96.657 102.174C96.716 102.348 96.6891 102.38 96.8547 102.478C97.309 101.978 96.7187 101.396 97.0355 100.803C97.3348 101.932 97.3598 103.256 97.173 104.406L96.9531 104.224C96.6645 104.362 96.9043 104.638 96.5566 104.597C96.5953 104.025 96.5789 103.444 96.5813 102.87Z" fill="#F2BA22"/>
<path d="M91.2529 99.2726L91.4674 99.657L91.6865 99.6476L91.8041 99.8257L90.9029 100.899C90.7947 100.676 90.6627 100.617 90.4639 100.484C90.7041 100.055 90.9623 99.6687 91.2529 99.2726Z" fill="#F2BA22"/>
<path d="M105.208 105.465C106.057 105.402 106.848 105.848 107.58 106.227C107.524 106.32 107.467 106.412 107.408 106.503C106.616 107.749 105.312 108.552 103.887 108.87C103.476 108.973 102.946 109.054 102.521 109.025C102.271 109.007 102.171 108.946 102.014 108.759C102.006 108.625 101.997 108.605 102.028 108.457C102.235 107.481 104.396 105.973 105.208 105.465Z" fill="#8EBA7C"/>
<path d="M59.6394 139.064C59.8691 139.269 59.8191 139.882 59.8347 140.182C59.9187 141.787 60.1285 143.288 60.5632 144.839C60.0375 144.594 59.5257 144.305 59.0125 144.034C58.3273 143.589 57.7257 143.066 57.4562 142.267C57.2601 141.687 57.3277 141.084 57.6199 140.549C58.03 139.799 58.8433 139.306 59.6394 139.064Z" fill="#8EBA7C"/>
<path d="M97.4365 175.881C97.5061 175.912 97.5838 175.943 97.6498 175.984C98.1709 176.3 102.1 180.06 102.206 180.438L102.03 180.529C100.93 180.794 99.8916 180.944 98.7588 180.979C98.3803 179.264 97.7834 177.6 97.4365 175.881Z" fill="#F2BA22"/>
<path d="M101.383 69.877C102.321 70.3687 103.566 72.6066 104.156 73.5242C103.451 74.0082 102.725 74.4637 102.006 74.9281C101.335 75.3793 100.959 75.8492 100.509 76.5047C100.795 74.2891 101.204 72.1121 101.383 69.877Z" fill="#8EBA7C"/>
<path d="M68.0182 107.817C69.5912 109.864 71.4826 113.746 72.465 116.17L71.551 117.043C71.0814 115.986 70.7209 114.896 70.2818 113.828C69.499 111.923 68.6518 110.045 67.8643 108.142L68.0182 107.817Z" fill="#F2BA22"/>
<path d="M82.6036 94.2758C83.6907 94.5492 84.4915 94.9761 85.1739 95.8832C85.0302 96.1656 84.8849 96.3293 84.6505 96.5406C84.0235 96.0566 83.3712 95.7832 82.563 95.8851C81.8692 95.973 81.2798 96.3695 80.8825 96.9367C80.6646 97.2476 80.5005 97.5746 80.3528 97.923C80.2466 97.741 80.1681 97.6355 79.9825 97.5285C79.9356 97.5012 79.8825 97.4844 79.8388 97.4519C79.6704 97.3285 79.7431 97.3476 79.5337 97.3418C79.6224 96.9683 79.7747 96.5926 79.9548 96.2539C80.5751 95.0875 81.3849 94.6371 82.6036 94.2758Z" fill="#F2BA22"/>
<path d="M65.5499 104.868C65.571 104.893 65.5948 104.915 65.6136 104.942C65.923 105.372 66.0792 106.128 66.3073 106.632C66.6999 107.499 67.1823 108.325 67.5847 109.187C68.264 110.644 68.8155 112.177 69.4413 113.659C69.9277 114.809 70.5948 116.058 70.9167 117.26C70.9687 117.454 70.9538 117.623 70.9312 117.819C70.7878 117.82 70.7284 117.861 70.6241 117.746C70.1366 117.208 66.273 108.018 65.8945 106.865C65.671 106.185 65.5085 105.594 65.5499 104.868Z" fill="#0B8DCB"/>
<path d="M56.2632 107.7L56.3011 107.579C56.4026 107.243 56.4562 106.973 56.7069 106.718L56.8702 106.812C57.4464 111.393 61.4726 115.729 64.471 119.051C65.3726 120.05 66.494 121.082 67.1468 122.262C65.9761 121.498 65.0483 120.306 64.1218 119.27C61.7335 116.6 57.1585 111.213 56.2632 107.7Z" fill="#F2BA22"/>
<path d="M96.4923 59.0396C96.5946 59.1239 96.6384 59.1899 96.6857 59.3196C96.8911 59.8856 96.9599 60.5806 97.1009 61.1731C97.329 62.1306 97.6239 63.0677 97.9165 64.0067C97.5915 64.6794 97.2798 65.3333 97.0579 66.0478L96.9333 66.106C96.8556 66.0356 96.8247 66.0145 96.7614 65.9149C95.4798 63.8958 96.013 61.1985 96.4923 59.0396Z" fill="#FA3948"/>
<path d="M63.3898 104.047C64.073 104.886 64.6492 105.768 65.1582 106.723C65.8371 107.996 70.0742 117.309 70.1223 118.345L69.6973 118.361C69.6813 117.655 65.6949 108.613 65.0711 107.496C64.4875 106.451 63.7961 105.526 63.0039 104.631C63.1043 104.582 63.202 104.53 63.3 104.477L63.3898 104.047Z" fill="#F2BA22"/>
<path d="M79.5334 97.3418C79.7428 97.3477 79.6702 97.3285 79.8385 97.452C79.8823 97.4844 79.9354 97.5012 79.9823 97.5285C80.1678 97.6355 80.2463 97.741 80.3526 97.923C79.6245 100.337 80.0936 104.227 80.5241 106.704C80.8065 108.332 81.2065 109.978 81.144 111.637C80.2385 109.317 79.4264 102.252 79.3694 99.684C79.3518 98.8891 79.4221 98.1281 79.5334 97.3418Z" fill="#F2BA22"/>
<path d="M90.573 171.66C90.9077 172.071 91.8675 176.997 92.1956 178.054C92.4363 178.831 93.0812 179.802 93.1304 180.582C92.696 180.1 92.321 179.505 91.9687 178.959C90.4523 176.604 89.9839 174.426 90.573 171.66Z" fill="#F2BA22"/>
<path d="M51.4141 126.263C53.2895 129.431 56.7938 131.019 60.157 132.192L59.6563 132.514C56.6074 131.256 52.743 130.033 50.834 127.167C50.9426 127.114 50.8727 127.133 51.0516 127.163C51.182 127.359 51.2875 127.569 51.5063 127.675C51.7063 127.478 51.652 127.413 51.6707 127.144C51.5277 126.867 51.4637 126.667 51.425 126.357C51.4211 126.326 51.4176 126.295 51.4141 126.263Z" fill="#F2BA22"/>
<path d="M96.5568 104.597C96.9045 104.638 96.6647 104.362 96.9533 104.224L97.1733 104.406C97.1631 104.752 97.1643 105.101 97.1404 105.445C97.1998 105.424 97.26 105.405 97.3178 105.381C97.3651 105.361 97.41 105.336 97.4557 105.314C97.59 105.475 97.6217 105.506 97.5858 105.732C97.5615 105.885 97.4861 106.053 97.4342 106.2C97.4705 106.341 97.4315 106.265 97.6182 106.382L97.8014 106.318L97.8979 106.659C97.6881 107.197 97.3842 108.427 96.8248 108.661C96.7057 108.711 96.5795 108.748 96.4565 108.787L96.1479 108.948L95.9744 108.89C95.8479 108.43 96.0807 107.706 96.1623 107.223C96.3619 106.357 96.3568 105.459 96.5568 104.597Z" fill="black"/>
<path d="M96.5566 104.597C96.9043 104.638 96.6645 104.362 96.9531 104.224L97.173 104.406C97.1629 104.752 97.1641 105.101 97.1402 105.445C97.0012 106.032 96.9813 106.649 96.7734 107.216L96.6066 107.211C96.5816 107.356 96.5922 107.44 96.4961 107.554L96.3328 107.435L96.4965 107.396L96.2523 107.365L96.1621 107.223C96.3617 106.357 96.3566 105.459 96.5566 104.597Z" fill="#F2BA22"/>
<path d="M96.1623 107.223L96.2526 107.365L96.4967 107.396L96.333 107.435L96.4963 107.554C96.5924 107.44 96.5819 107.355 96.6069 107.211L96.7736 107.216C96.7264 107.752 96.5865 108.266 96.4565 108.787L96.1479 108.948L95.9744 108.89C95.8479 108.43 96.0807 107.706 96.1623 107.223Z" fill="#F2BA22"/>
<path d="M104.021 104.449C104.807 103.943 105.663 103.688 106.598 103.874C107.274 104.008 107.699 104.293 108.216 104.72C108.131 105.051 108.128 105.292 107.874 105.527C106.623 105.692 106.171 104.397 104.54 105.294C104.278 105.018 104.133 104.815 104.021 104.449Z" fill="#F2BA22"/>
<path d="M86.1639 98.7176C86.1663 98.6844 86.1671 98.6512 86.1714 98.618C86.178 98.5609 86.1882 98.5043 86.1968 98.4477L86.135 98.4504C86.1268 98.3465 86.0972 98.2832 86.155 98.1934C86.1733 98.2176 86.1932 98.2406 86.2097 98.2664C86.2448 98.3207 86.2764 98.377 86.3097 98.4324L86.4628 98.4234C87.3725 100.973 87.8061 106.771 87.3667 109.456L87.2979 109.525C86.9772 107.031 87.0143 104.477 86.755 101.968C86.6495 100.947 86.1772 99.6418 86.1639 98.7176Z" fill="#F2BA22"/>
<path d="M127.648 47.1469C128.125 47.1691 128.467 47.3004 128.784 47.6738C129.082 48.0261 129.19 48.4551 129.122 48.9086C129.063 49.298 128.891 49.4777 128.59 49.7113C128.186 49.7199 127.888 49.6429 127.579 49.3664C127.293 49.1105 127.16 48.7476 127.152 48.3687C127.142 47.8746 127.326 47.507 127.648 47.1469Z" fill="white"/>
<path d="M104.021 104.449C104.133 104.815 104.278 105.018 104.54 105.294L103.92 105.71L103.075 106.434C102.252 107.162 101.735 108.369 100.781 108.9L100.68 108.834C100.851 107.708 101.874 106.701 102.579 105.852C102.784 105.571 103.033 105.323 103.27 105.069L104.021 104.449Z" fill="#F2BA22"/>
<path d="M104.021 104.449C104.133 104.815 104.278 105.018 104.54 105.294L103.92 105.71C103.776 105.336 103.614 105.233 103.27 105.069L104.021 104.449Z" fill="#F2BA22"/>
<path d="M103.269 105.07C103.614 105.234 103.776 105.336 103.92 105.71L103.075 106.434C103.175 106.227 103.223 106.067 103.255 105.84C103.007 105.695 102.851 105.795 102.579 105.852C102.784 105.572 103.032 105.323 103.269 105.07Z" fill="#F2BA22"/>
<path d="M56.8905 121.797C59.0964 122.782 62.4585 124.855 64.0483 126.661C63.1647 126.314 62.4218 125.704 61.6565 125.154C60.1284 124.055 58.5304 122.944 56.728 122.343C56.7761 122.159 56.8354 121.978 56.8905 121.797Z" fill="#F2BA22"/>
<path d="M89.2704 170.529C89.4935 170.503 89.713 170.493 89.9337 170.548C90.1896 170.611 90.3032 170.737 90.4345 170.95L90.3673 171.235C89.5095 171.642 88.4466 171.786 87.5407 172.126L86.2446 172.573C87.1849 171.443 87.797 170.837 89.2704 170.529Z" fill="#F2BA22"/>
<path d="M101.494 104.064C101.599 104.265 101.703 104.463 101.824 104.656C101.249 105.974 100.645 107.425 99.8658 108.638C99.7088 108.882 99.6244 108.925 99.3443 108.982L99.2412 108.819C99.3389 107.707 100.916 105.212 101.494 104.064Z" fill="#F2BA22"/>
<path d="M78.7199 105.855L78.982 105.794C79.1718 106.963 79.9531 111.101 79.3519 111.997C79.032 111.402 78.6921 106.773 78.7199 105.855Z" fill="#F2BA22"/>
<path d="M90.4642 100.484C90.663 100.617 90.795 100.676 90.9032 100.899C89.954 102.611 90.0032 104.549 89.2368 106.287C89.5606 104.168 89.3419 102.44 90.4642 100.484Z" fill="#F2BA22"/>
<path d="M77.3631 100.632C77.8647 101.742 78.267 102.894 78.5658 104.076C78.7068 104.615 78.7619 105.291 78.9818 105.794L78.7197 105.855C78.3369 104.188 77.8146 102.674 77.1748 101.091L77.3631 100.632Z" fill="#F2BA22"/>
<path d="M85.1738 95.8832C85.6891 96.6476 86.2215 97.5265 86.4629 98.4234L86.3098 98.4324C86.2766 98.3769 86.2449 98.3207 86.2098 98.2664C86.1934 98.2406 86.1734 98.2176 86.1551 98.1933C86.0973 98.2832 86.127 98.3465 86.1352 98.4504L86.1969 98.4476C86.1883 98.5043 86.1781 98.5609 86.1715 98.6179C86.1672 98.6512 86.1664 98.6843 86.1641 98.7176C85.6918 97.9476 85.2563 97.2168 84.6504 96.5406C84.8848 96.3293 85.0301 96.1656 85.1738 95.8832Z" fill="#F2BA22"/>
<path d="M76.8809 95.1504L77.0367 95.2227L77.2277 95.6266C77.2258 95.6113 77.2199 95.5957 77.2215 95.5801C77.2258 95.5395 77.2375 95.5 77.2449 95.4594C77.275 95.298 77.2809 95.1418 77.3023 94.9805C77.3074 94.9422 77.3172 94.9051 77.3246 94.8672C77.6566 96.0992 77.8258 97.3625 77.9738 98.6277L77.6422 98.552C77.3223 97.4613 77.1852 96.2633 76.8809 95.1504Z" fill="#F2BA22"/>
<path d="M68.5176 103.736C68.6492 103.456 68.7578 103.309 68.9812 103.094C69.2574 104.084 69.5238 105.077 69.7813 106.072L69.5109 106.178C69.1184 105.398 68.8324 104.55 68.5176 103.736Z" fill="#F2BA22"/>
<path d="M76.2053 98.5415C76.7111 99.1833 77.049 99.8825 77.3631 100.632L77.1748 101.092C76.9045 100.452 76.4697 99.9446 76.042 99.4048C76.1615 99.1415 76.1377 98.8282 76.2053 98.5415Z" fill="#F2BA22"/>
<path d="M55.5342 121.188C55.9631 121.378 56.4924 121.556 56.8904 121.797C56.8354 121.978 56.776 122.159 56.7279 122.343C56.194 122.123 55.6307 122.005 55.0713 121.868C55.2064 121.622 55.3639 121.409 55.5342 121.188Z" fill="#F2BA22"/>
<path d="M56.0519 120.282C56.7187 120.742 57.4218 121.182 58.0249 121.724C57.2538 121.432 56.4526 121.166 55.7222 120.782C55.846 120.628 55.9456 120.449 56.0519 120.282Z" fill="#0B8DCB"/>
<path d="M77.6425 98.552L77.9741 98.6278C78.0554 99.4754 78.0765 100.336 78.0921 101.187C77.9425 100.733 77.7167 99.6532 77.3901 99.3481L77.4909 99.3C77.4976 99.2942 77.5054 99.2891 77.5108 99.2817C77.6917 99.027 77.6437 98.8543 77.6425 98.552Z" fill="#F2BA22"/>
<path d="M97.8872 65.7437L98.2646 64.0316C98.4739 64.6769 98.7349 65.2355 98.522 65.9113C98.386 65.9527 98.3064 65.9715 98.1614 65.9558C97.997 65.9379 97.9876 65.864 97.8872 65.7437Z" fill="#8EBA7C"/>
<path d="M61.9326 121.441L62.308 121.156C62.8658 121.752 63.4131 122.357 63.9502 122.972C63.2103 122.573 62.5748 121.979 61.9326 121.441Z" fill="#3B773B"/>
<path d="M64.4522 102.281C64.8632 103.039 65.3144 103.795 65.6104 104.606C65.1085 104.126 64.5034 103.288 64.3101 102.608L64.4522 102.281Z" fill="#F2BA22"/>
<path d="M49.572 105.21C49.8645 105.748 50.1548 106.276 50.4985 106.784C50.006 106.422 49.5188 106.053 49.0376 105.676C49.2126 105.517 49.3907 105.362 49.572 105.21Z" fill="black"/>
<path d="M105.867 43.8047L106.225 44.0918C105.564 44.5398 105.016 45.1984 104.445 45.7574C104.873 45.0863 105.3 44.3672 105.867 43.8047Z" fill="#0B8DCB"/>
<path d="M69.3003 102.602L69.869 102.425C69.8151 103.08 69.8296 103.747 69.8222 104.404C69.6069 103.811 69.4515 103.214 69.3003 102.602Z" fill="#0B8DCB"/>
<path d="M60.157 132.192C60.4527 132.263 60.7082 132.299 60.9324 132.522L60.8766 132.654C60.4391 132.786 60.0777 132.645 59.6562 132.514L60.157 132.192Z" fill="#F2BA22"/>
<path d="M66.8555 106.258C67.3172 106.738 67.6559 107.261 68.018 107.817L67.8641 108.142C67.4898 107.514 67.1535 106.929 66.8555 106.258Z" fill="#F2BA22"/>
<path d="M70.1782 108.732C70.6106 109 70.6876 109.82 70.8083 110.297L70.6255 110.173C70.3759 109.727 70.2126 109.244 70.1782 108.732Z" fill="black"/>
<path d="M56.2515 134.138C56.6069 134.211 56.9226 134.272 57.2452 134.442C56.8362 134.594 56.2495 134.405 55.8237 134.322L56.2515 134.138Z" fill="black"/>
<path d="M69.7815 106.072C69.9577 106.541 70.062 106.986 70.1507 107.476C69.9198 107.048 69.6909 106.63 69.5112 106.178L69.7815 106.072Z" fill="#F2BA22"/>
</svg>
