<svg width="200" height="200" viewBox="0 0 200 200" fill="none" xmlns="http://www.w3.org/2000/svg">
<path d="M74.5411 16.7636C75.1348 16.9813 76.3878 15.84 77.0421 15.8658C77.1042 16.1467 79.1262 16.5124 79.0086 16.7636C78.8215 17.0604 75.4556 18.0004 75.1286 18.1466L74.8606 18.4647C74.6032 18.409 74.3618 18.2997 74.1177 18.2024C74.2353 18.0448 74.4094 16.9092 74.5411 16.7636Z" fill="white"/>
<path d="M79.8931 16.7224C80.5951 15.398 81.2306 14.5568 82.7412 14.1082C83.8232 13.7869 84.9498 13.8813 85.938 14.4388C86.9443 15.0065 87.463 15.8441 87.8447 16.8937C89.1806 16.3447 90.5978 15.8517 92.024 16.436C92.7716 16.7421 93.3205 17.3136 93.6259 18.0578C94.0255 19.0321 93.9341 20.0746 93.8021 21.091C95.3099 21.3665 96.7126 21.7057 97.6201 23.0722C98.1998 23.9454 98.4951 25.2167 98.24 26.2415C97.9189 27.534 96.7755 28.2934 95.6861 28.9144C94.6779 29.489 93.5626 29.8618 92.5654 30.446C90.1998 31.832 88.738 34.4541 87.1572 36.6003C88.4068 37.5753 89.7267 38.5057 90.8876 39.5864C93.7681 42.2676 95.5392 46.1008 96.4826 49.8731C98.2986 48.2063 99.4587 46.7555 102.183 46.9172C104.266 47.041 105.996 48.4594 107.29 49.9844C110.201 53.4164 112.266 60.409 112.207 64.9246C112.734 63.693 113.228 62.4227 113.835 61.2289C115.867 57.2348 119.142 52.9957 123.42 51.286C125.046 50.6356 126.975 50.3309 128.635 51.0379C130.46 51.8149 131.629 53.6692 132.304 55.452C134.042 60.041 133.762 67.5563 132.255 72.1821C133.023 71.166 133.703 70.0832 134.502 69.091C137.459 65.4223 141.497 61.8969 146.328 61.2531C147.872 61.0477 149.443 61.3133 150.711 62.268C152.474 63.5953 153.254 65.9606 153.517 68.0684C154.102 72.7547 152.713 79.2418 150.304 83.3379C151.653 82.3469 152.95 81.2574 154.348 80.3403C157.443 78.3102 161.697 76.5098 165.47 77.0985C166.993 77.3363 168.472 77.9465 169.419 79.2172C170.965 81.2899 170.817 83.8098 170.427 86.2324C169.726 90.591 167.003 95.6727 163.915 98.8199C163.806 98.9332 163.697 99.0473 163.59 99.1621C167.754 97.9645 172.998 97.2707 176.974 99.45C178.283 100.159 179.252 101.364 179.664 102.793C180.456 105.605 178.726 109.297 177.336 111.653C175.663 114.488 172.805 117.004 170.027 118.743C168.737 119.551 167.394 120.213 166.223 121.199C169.883 120.368 174.795 121.315 177.967 123.309C179.332 124.168 180.701 125.578 181.033 127.202C181.436 129.179 180.543 131.295 179.441 132.899C176.249 137.547 169.505 140.83 164.213 142.376C163.398 142.614 162.558 142.902 161.721 143.047C161.578 143.072 161.434 143.093 161.29 143.112C163.827 143.888 166.488 145.605 167.772 148.001C168.594 149.545 168.767 151.354 168.253 153.027C167.43 155.671 164.906 157.715 162.537 158.943C155.189 162.754 146.601 162.248 138.916 159.77C134.69 158.37 130.697 156.345 127.073 153.759C126.43 153.296 125.75 152.851 125.203 152.274C121.706 157.363 117.605 161.341 112.245 164.446C111.26 165.015 110.245 165.533 109.208 166C108.508 166.312 106.389 166.995 105.96 167.356C105.744 167.538 105.865 167.789 105.91 168.035C106.214 169.707 106.806 171.345 107.219 172.995C107.578 174.427 107.776 175.94 108.239 177.337C111.342 177.578 118.07 178.204 120.118 180.655C120.413 181.007 120.647 181.508 120.577 181.977C120.505 182.452 120.154 182.763 119.78 183.024C119.56 183.178 119.097 183.364 119.035 183.611C119.498 184.351 119.895 184.902 120.206 185.727C120.029 186.101 119.863 186.486 119.672 186.853C119.247 187.136 118.87 187.343 118.363 187.437C117.796 187.543 116.182 187.281 115.869 187.657C115.932 188.169 116.1 188.874 115.747 189.314C115.445 189.69 114.882 189.777 114.431 189.777C111.247 189.779 107.543 187.154 105.438 184.971C104.334 183.826 103.661 182.411 103.271 180.879C102.5 181.425 100.812 182.953 99.9982 183.075C99.7533 183.004 99.6935 182.988 99.558 182.75C99.1689 182.068 99.5935 180.35 99.897 179.692C100.635 178.089 101.794 177.868 103.213 177.134C102.77 175.562 102.309 173.989 101.947 172.396C101.669 171.172 101.471 169.933 101.204 168.708C97.9005 168.939 94.5962 169.275 91.2849 169.004C91.4181 171.114 91.7599 174.899 92.4873 176.836C94.1283 177.244 95.6802 178.025 96.5876 179.511C97.0978 180.346 97.6341 181.567 97.4244 182.552C97.3728 182.795 97.2767 182.935 97.1048 183.116C96.806 183.227 96.6333 183.25 96.3337 183.117C95.1919 182.611 94.1677 181.51 93.1205 180.807C92.7193 184.16 91.0404 186.212 88.4244 188.293C87.2005 189.266 85.3033 190.13 83.7017 189.904C83.4177 189.863 83.208 189.732 83.0478 189.493C82.6669 188.923 82.7669 188.089 82.7802 187.437C81.5275 187.76 79.6177 188.306 78.4365 187.539C78.1619 187.361 77.9513 187.03 77.7584 186.77C77.8732 186.111 77.9623 185.436 78.1697 184.799C77.2763 184.866 76.5107 184.859 75.6259 184.68C75.3986 184.375 75.2134 184.156 75.2779 183.75C75.4728 182.52 77.0197 181.257 77.9908 180.614C80.7677 178.773 83.7626 178.214 86.8826 177.266C86.0603 174.411 85.3955 171.054 84.7408 168.126C84.7064 168.102 84.6728 168.078 84.6376 168.055C83.831 167.53 82.8123 167.268 81.9099 166.938C80.4794 166.413 79.063 165.887 77.7107 165.177C73.9435 163.221 70.6415 160.477 68.0283 157.131C67.1189 155.955 66.4052 154.575 65.3712 153.502C63.0134 154.927 60.6658 156.319 58.1205 157.394C52.831 159.628 46.4509 160.293 40.8505 158.931C37.4267 158.098 33.3163 156.49 31.4209 153.311C30.3497 151.515 29.8027 149.527 30.3373 147.467C31.039 144.764 33.1051 142.814 35.4586 141.464C36.3181 140.971 37.2154 140.644 38.1564 140.343C36.3058 139.895 34.409 139.713 32.5568 139.283C27.6141 138.135 22.2023 135.533 19.4765 131.046C18.4003 129.274 17.7114 127.213 18.2137 125.144C18.6942 123.165 19.9564 121.573 21.6921 120.532C24.7754 118.681 28.8847 118.773 32.3408 119.017C31.0085 118.08 29.5699 117.286 28.2608 116.322C24.3881 113.471 20.7496 109.204 19.8773 104.358C19.5456 102.516 19.5871 100.07 20.6803 98.4715C21.7954 96.8418 23.9295 96.0465 25.8036 95.7406C30.4537 94.9824 34.9609 96.3801 39.29 97.9195L40.5513 98.5469L39.6931 97.6047C35.9074 93.7235 33.0391 89.0059 31.7382 83.7125L31.6984 83.6153C31.5701 82.916 31.491 82.2028 31.4336 81.4942C31.2508 79.2418 31.421 76.4446 33.0092 74.6696C34.0715 73.4824 35.5715 72.9551 37.1279 72.8774C43.0744 72.5789 47.4771 75.9035 51.6248 79.6879C49.1302 75.5742 46.6154 67.7797 47.4443 63.0184C47.7314 61.3684 48.3091 59.8379 49.7591 58.8617C51.699 57.5555 54.6048 57.4981 56.6798 58.5094C57.306 58.8149 58.4201 59.6246 59.0673 59.6473C59.9072 59.677 61.2833 58.7449 61.9162 58.2235L62.0146 58.1406C61.8236 57.3883 61.5451 56.659 61.3607 55.9024C60.9009 54.0156 61.0427 51.9051 61.465 50.0246C61.8599 48.2668 62.5005 46.4199 63.8681 45.1617C64.3861 44.6848 65.0541 44.4035 65.5181 43.8574C66.3685 42.8567 66.8634 41.586 67.915 40.7496C68.7353 40.0973 69.7263 39.8711 70.5568 39.3149C70.6037 39.2836 70.6494 39.2504 70.6959 39.218C71.9947 38.4375 73.1048 37.3623 74.4478 36.6287C75.6232 35.9868 76.9541 35.7064 78.206 35.2505C78.2857 33.195 77.9396 31.1453 77.1888 29.23C76.6216 28.4112 76.2185 27.447 75.7392 26.5725C74.3443 24.0285 72.5685 21.2359 73.1595 18.1873C73.3634 17.1339 73.9146 16.3004 74.8193 15.7171C75.7033 15.1473 76.6962 14.9466 77.7216 15.2049C78.658 15.4408 79.3595 15.9316 79.8931 16.7224ZM78.1533 183.5C77.9365 183.468 77.7263 183.439 77.5072 183.43L77.3232 183.423L77.1685 183.244L77.2244 182.827C76.8345 183.207 76.4818 183.62 76.1244 184.03C76.7966 183.838 77.4732 183.662 78.1533 183.5ZM74.8607 18.4648L75.1287 18.1466C75.4556 18.0004 76.1169 17.7924 76.3041 17.4956C76.5494 17.5574 76.8708 17.421 77.1169 17.3544C77.6111 16.9551 77.9427 17.1607 78.4033 16.6727C77.4439 16.412 76.3978 16.1718 75.4744 16.6935C75.0228 16.9486 74.756 17.3216 74.4974 17.7582C74.3658 17.9038 74.2353 18.0448 74.1177 18.2024C74.3619 18.2997 74.6033 18.409 74.8607 18.4648ZM95.7142 98.7379C95.9552 99.3883 96.1337 100.063 96.4498 100.683L96.5107 100.63C96.4728 99.8938 96.2072 99.2344 95.979 98.5406L95.7142 98.7379ZM69.8341 49.9602C69.8232 50.2403 69.8626 50.6489 69.9908 50.8992L70.097 50.8203C70.2701 50.3375 70.2017 49.8875 70.163 49.3867C70.0865 49.616 70.0478 49.8207 69.8341 49.9602ZM62.8193 111.852C62.9439 111.997 63.0666 112.15 63.2201 112.265C63.3849 112.388 63.3818 112.412 63.5931 112.379C63.5767 112.066 63.3462 111.836 63.1662 111.594L62.8193 111.852ZM63.5455 57.3903L63.4103 57.3074C63.4177 57.2434 63.4212 57.1789 63.4322 57.1153C63.4599 56.9567 63.4802 57.041 63.4794 56.8598C63.4787 56.6653 63.3849 56.4039 63.2548 56.2625L63.0904 56.2867C63.0005 56.4469 62.9158 56.5871 62.799 56.7301C62.7673 56.7688 62.7341 56.8063 62.7017 56.8442C62.3935 56.3746 62.3322 55.8375 61.9919 55.3754C62.0361 56.1559 62.2033 56.8598 62.7962 57.4035C62.9048 57.5032 63.0337 57.4832 63.1767 57.5008L63.5455 57.3903ZM84.113 15.2381C83.5451 15.0782 83.2794 15.0827 82.7611 15.366C82.9177 15.4785 83.0556 15.5338 83.2501 15.5531C83.613 15.5891 83.8341 15.4485 84.113 15.2381ZM96.4943 181.663C96.0037 180.801 95.5216 179.966 94.7439 179.33C94.7462 179.366 94.7435 179.404 94.7509 179.439C94.8205 179.76 95.2345 180.135 95.4509 180.385C95.2357 180.418 95.2115 180.405 95.0138 180.343C94.8166 180.28 94.6415 180.24 94.4345 180.221C95.029 180.76 95.8353 181.186 96.4943 181.663ZM40.2087 138.59L40.0935 138.732C40.3138 138.813 40.533 138.88 40.758 138.945C40.4544 138.959 40.1615 138.966 39.858 138.947C39.6017 138.931 39.4466 138.967 39.206 139.053C39.9173 139.21 42.3099 139.521 42.9533 139.333C42.7837 139.111 40.6498 138.715 40.2087 138.59ZM86.3048 18.5738L86.6603 16.9588C86.2646 16.259 85.8583 15.7001 85.0619 15.4644C85.0884 15.5191 85.1138 15.5742 85.1412 15.6284C85.4275 16.1928 85.9564 16.2705 85.7619 16.9817C85.7544 17.4637 85.9216 18.0324 85.9775 18.5284L86.0872 18.6223L86.3048 18.5738Z" fill="black"/>
<path d="M85.3653 15.0474C85.5192 15.0374 86.6685 15.9411 86.6207 16.0724C86.9071 16.6368 86.8153 17.5611 86.6207 18.2723C86.5863 18.2645 86.552 18.9125 86.0333 18.6926C85.5151 17.6561 84.3388 15.8511 82.9384 16.5452C82.2017 16.9102 81.5759 17.6481 81.338 18.4332C81.256 18.7034 81.1989 18.9794 81.1501 19.2571L80.6392 19.2712C80.7899 18.3206 80.9388 17.3151 81.4231 16.4668C81.7227 15.9424 82.1688 15.5212 82.761 15.366C83.0273 15.0877 84.5692 14.78 85.3653 15.0474Z" fill="white"/>
<path d="M72.7795 43.2144C72.767 42.1632 72.7424 41.032 71.9045 40.2589C71.5498 39.932 70.8076 39.8851 70.5877 39.6144C70.9451 39.3722 71.3643 39.2312 71.735 38.9933C72.5908 38.4442 73.4412 37.7478 74.3487 37.2971C76.56 36.1985 79.7787 36.067 82.1643 36.535C86.0885 37.3046 89.7549 40.0136 91.9432 43.3121C95.283 48.3468 97.2549 55.2703 96.0283 61.2832C94.9389 66.6238 92.0479 71.5121 90.5026 76.7375C88.9592 81.9578 87.5975 87.3043 87.0244 92.7269C86.8033 94.8164 86.7971 96.8949 86.7885 98.9933C86.7819 100.539 86.7537 102.094 86.8522 103.638C87.6865 115.368 91.5455 126.683 98.053 136.478C101.816 142.241 108.365 149.177 115.334 150.648C118.547 151.327 121.83 150.844 124.793 149.446L125.921 148.905L125.189 150.067C123.028 153.248 120.283 156.273 117.294 158.696C109.664 164.882 100.405 167.557 90.6635 166.544C82.653 165.711 74.3862 161.784 69.3026 155.461C66.8073 152.357 64.8119 148.748 63.6854 144.921C60.8334 135.234 63.1217 122.479 65.819 112.934C66.3776 110.957 67.0881 109.012 67.7057 107.051C69.0463 102.795 70.2561 98.4839 71.7787 94.2886L74.8108 85.9707C76.4701 81.4429 78.0737 76.9996 78.5877 72.1711C82.1104 71.6949 85.4666 70.8707 88.035 68.2433C86.7162 68.898 85.4369 69.6261 84.0541 70.1429C80.5475 71.4539 76.8686 71.0839 73.2143 71.2984C73.4979 71.1574 73.7842 71.0164 74.0569 70.8543C77.0682 69.0668 78.5354 64.9027 79.3537 61.7101C82.0162 61.3781 83.6795 61.3957 85.7772 59.4933C87.9264 57.5445 89.1104 54.4996 89.2303 51.6289C89.3475 48.8238 88.1213 47.4171 86.8487 45.1152C86.3838 44.2738 86.0326 43.3269 85.3576 42.6269C84.6588 41.9019 83.6307 41.4086 82.6123 41.4312C81.8076 41.4492 80.958 41.8105 80.4244 42.4214C80.1963 42.6832 80.0158 43.0531 80.0916 43.4086C80.1658 43.7566 80.4299 43.9316 80.717 44.0921C80.7428 44.1066 80.7694 44.1207 80.7955 44.1347L80.6588 44.3027C78.3658 44.9058 76.5287 46.3128 75.3455 48.3578C73.9944 50.6925 73.9873 52.9859 73.2815 55.4488C71.8389 54.8257 70.5065 54.4601 68.928 54.4695C70.3639 52.9523 70.9365 50.3523 70.8787 48.3046C70.8389 46.8875 70.4143 45.4925 69.3393 44.5105C68.694 43.9211 68.0026 43.6367 67.183 43.3742C69.0932 42.9046 70.8428 43.1464 72.7795 43.2144Z" fill="#0B8DCB"/>
<path d="M124.792 149.446L125.92 148.905L125.189 150.067C125.131 149.707 125.079 149.67 124.792 149.446Z" fill="#0B8DCB"/>
<path d="M103.272 111.955C107.718 111.476 113.367 113.025 117.161 115.292C123.413 119.029 127.094 125.436 128.857 132.325C127.145 133.318 125.597 134.166 123.561 134.237C119.997 134.36 117.525 132.208 115.819 129.267C115.456 128.641 115.108 127.559 114.599 127.09L114.476 127.215C114.417 127.407 114.385 127.565 114.403 127.768C114.578 129.85 116.142 132.289 117.719 133.602C119.451 135.046 121.771 135.835 124.03 135.607C126.204 135.387 127.533 134.41 128.886 132.773C129.095 134.751 129.373 136.862 129.223 138.848C129.084 141.539 128.497 144.46 127.069 146.784C125.922 148.649 123.903 149.482 121.851 149.96C117.512 150.971 113.463 150.001 109.71 147.666C107.415 146.237 105.165 144.374 103.325 142.389C97.4476 136.045 92.2624 125.256 90.2671 116.822C93.8097 113.691 98.6382 112.284 103.272 111.955Z" fill="#8EBA7C"/>
<path d="M104.561 115.6L104.654 115.656C104.741 115.85 104.753 115.775 104.689 115.951C104.339 116.898 102.673 117.717 101.814 118.143C102.123 119.027 102.505 119.923 102.966 120.739C103.909 122.413 105.407 123.943 107.303 124.465C109.884 125.175 111.474 124.29 113.656 123.071C113.447 123.45 113.235 123.815 112.933 124.129C111.71 125.395 110.034 125.766 108.341 125.785C106.935 125.586 105.704 125.211 104.579 124.314C102.655 122.779 101.75 120.631 101.489 118.232C100.617 118.284 99.7073 118.375 98.8706 118.061C97.6886 117.616 97.1491 116.459 96.644 115.395C97.6347 116.188 98.419 117.123 99.7479 117.345C101.623 117.66 103.119 116.624 104.561 115.6Z" fill="black"/>
<path d="M101.696 129.943C102.036 130.208 102.997 133.5 103.386 134.298C104.954 137.505 107.657 139.916 111.38 139.894C111.88 139.891 112.93 139.52 113.317 139.651C113.407 139.898 113.318 140.082 113.24 140.319C112.291 140.814 111.203 141.004 110.137 140.954C108.031 140.855 106 139.759 104.611 138.198C102.577 135.945 101.528 132.973 101.696 129.943Z" fill="black"/>
<path d="M111.045 115.495C111.545 115.681 112.536 117.747 112.982 118.309C113.55 119.034 114.207 119.685 114.936 120.247C116.529 121.482 118.641 122.566 120.704 122.565C121.207 122.565 121.693 122.432 122.191 122.389C122.42 122.369 122.583 122.34 122.763 122.497C122.664 122.767 122.424 122.902 122.203 123.068C121.686 123.406 121.16 123.625 120.543 123.701C118.567 123.946 116.471 122.934 114.965 121.736C113.008 120.178 111.336 118.04 111.045 115.495Z" fill="black"/>
<path d="M113.734 138.627C114.479 139.2 115.246 141.318 116.465 142.363C118.094 143.759 120.743 144.23 122.766 143.558C123.346 143.366 124.04 142.869 124.622 142.824L124.649 142.946L124.358 143.23C124.174 143.387 123.982 143.523 123.78 143.656C122.272 144.657 120.583 144.905 118.826 144.537C117.081 144.173 115.448 143.08 114.486 141.573C113.976 140.775 113.526 139.586 113.734 138.627Z" fill="black"/>
<path d="M120.356 61.8398C121.449 61.725 122.687 61.8843 123.701 62.316C125.704 63.1691 127.027 65.0152 127.791 66.9914C128.46 68.723 128.752 70.5246 128.85 72.3703C129.157 78.0941 127.314 83.1433 125.041 88.2793C124.113 87.8109 123.183 87.5496 122.143 87.491C119.504 87.3429 117.403 88.5429 115.499 90.2617C114.257 91.4339 113.55 92.7347 112.959 94.3265C112.892 93.1125 113.017 91.8894 112.956 90.6718C112.817 87.9066 111.893 84.0492 109.949 81.9632C109.988 76.591 111.309 70.2582 114.391 65.8199C115.899 63.65 117.731 62.3203 120.356 61.8398Z" fill="#3B773B"/>
<path d="M120.688 68.9563C121.384 68.9114 122.088 69.0071 122.704 69.3496C123.515 69.8012 124.085 70.6043 124.312 71.4981C124.565 72.4895 124.386 73.6121 123.847 74.4805C123.382 75.2313 122.735 75.6715 121.885 75.8657C121.23 75.9032 120.635 75.9059 120.021 75.6442C119.245 75.3133 118.663 74.6735 118.369 73.8864C118.001 72.9043 117.982 71.6125 118.461 70.6633C118.939 69.7161 119.73 69.2891 120.688 68.9563Z" fill="black"/>
<path d="M120.759 69.4349C121.191 69.4063 121.657 69.4704 122.065 69.6138C122.769 69.863 123.342 70.3849 123.656 71.0614C123.942 71.6841 123.994 72.4145 123.752 73.0599C123.42 73.9497 122.791 74.3067 121.969 74.6532C121.519 74.7208 121.106 74.7435 120.666 74.602C119.921 74.3622 119.338 73.8352 119.01 73.1259C118.711 72.4802 118.613 71.6899 118.893 71.0204C119.252 70.1614 119.955 69.7915 120.759 69.4349Z" fill="#EA6F1C"/>
<path d="M139.642 71.6032C140.671 71.4638 141.733 71.6544 142.683 72.0587C144.306 72.7481 145.56 74.1188 146.201 75.7536C146.752 77.1587 146.89 78.679 146.888 80.1755C146.878 85.8888 144.589 89.445 142.392 94.3845C140.84 93.6997 139.25 93.4274 137.581 93.804C132.492 94.952 129.195 99.4579 126.555 103.611C126.215 104.173 124.492 107.251 124.043 107.374C124.281 106.337 124.967 105.449 125.455 104.522C126.434 102.663 127.221 100.703 127.637 98.6395C128.33 95.2059 128.277 92.3282 126.311 89.3509C126.769 87.954 127.393 86.5903 127.952 85.2309C128.653 83.5294 129.303 81.6903 130.266 80.1177C132.367 76.6849 135.559 72.5774 139.642 71.6032Z" fill="#3B773B"/>
<path d="M138.725 77.3012C140.587 77.1153 142.249 78.4727 142.437 80.3348C142.626 82.1969 141.271 83.8598 139.409 84.0512C137.544 84.243 135.877 82.8848 135.687 81.0188C135.498 79.1532 136.859 77.4879 138.725 77.3012Z" fill="black"/>
<path d="M138.762 77.7501C139.317 77.7258 139.777 77.7524 140.286 78.0028C140.97 78.3325 141.488 78.9301 141.716 79.6544C141.922 80.2973 141.894 81.0297 141.56 81.6251C141.128 82.3934 140.455 82.6754 139.658 82.9212C139.099 82.9278 138.595 82.8739 138.084 82.6297C137.38 82.293 136.816 81.6891 136.577 80.9407C136.382 80.3325 136.421 79.6766 136.733 79.1141C137.166 78.3333 137.933 77.9665 138.762 77.7501Z" fill="#EA6F1C"/>
<path d="M60.9446 68.863C61.1075 68.8477 61.2544 68.8255 61.4091 68.8981C62.6079 69.4638 63.7052 70.8501 65.0927 71.4095C66.6583 72.0403 68.297 72.1739 69.9649 72.1614C72.0341 75.5716 73.0329 78.9606 73.9927 82.7724C73.5497 84.3411 72.927 85.8856 72.3876 87.4247C71.6524 89.5224 70.9614 91.6325 70.2145 93.7263C69.4833 95.7759 68.9048 97.8895 68.0591 99.8954L67.9317 99.8509C67.0845 98.3145 65.9673 96.8145 64.6798 95.6216C63.9602 94.9552 63.1563 94.3399 62.5075 93.6044C61.7595 92.7563 61.2009 91.6942 60.6075 90.7337C58.5669 87.4313 56.6841 84.1759 55.672 80.3899C54.8134 77.177 54.8407 74.3739 56.552 71.4716C57.5548 69.77 59.1606 69.3384 60.9446 68.863Z" fill="#3B773B"/>
<path d="M62.8767 75.3418C64.0705 75.1414 65.2798 75.5977 66.0439 76.5367C66.8076 77.4758 67.0083 78.7531 66.5693 79.8812C66.1302 81.009 65.1189 81.8144 63.9212 81.9898C62.0958 82.257 60.3954 81.0051 60.1091 79.1828C59.8228 77.3601 61.0572 75.6469 62.8767 75.3418Z" fill="black"/>
<path d="M63.1232 75.8984C64.5126 75.7167 65.788 76.6906 65.979 78.0788C66.1704 79.4671 65.2052 80.7492 63.8185 80.9499C62.4177 81.1523 61.1204 80.1757 60.9275 78.7742C60.7345 77.3722 61.72 76.0816 63.1232 75.8984Z" fill="#EA6F1C"/>
<path d="M160.615 124.261C161.058 124.144 161.717 124.191 162.178 124.207C164.113 124.275 166.138 125.121 167.46 126.543C168.525 127.689 169.025 129.099 168.946 130.659C168.853 132.501 167.734 134.062 166.408 135.26C162.888 138.435 157.704 140.405 153.027 141.025C150.533 141.356 147.881 141.333 145.369 141.208C145.973 139.689 145.977 138.596 145.412 137.062C145.022 136.216 144.549 135.509 143.818 134.921C140.722 132.433 136.163 133.002 132.522 133.406C135.31 132.433 138.015 131.13 140.74 129.993C145.32 128.081 152.639 125.433 157.456 124.581C158.494 124.398 159.565 124.345 160.615 124.261Z" fill="#3B773B"/>
<path d="M159.147 128.006C161.039 127.89 162.671 129.321 162.801 131.213C162.932 133.104 161.512 134.746 159.622 134.89C157.712 135.036 156.049 133.599 155.917 131.688C155.785 129.777 157.235 128.124 159.147 128.006Z" fill="black"/>
<path d="M159.026 128.706C160.446 128.488 161.778 129.449 162.019 130.865C162.26 132.281 161.32 133.629 159.909 133.893C158.975 134.067 158.019 133.725 157.409 132.997C156.798 132.268 156.628 131.268 156.963 130.379C157.298 129.489 158.087 128.85 159.026 128.706Z" fill="#EA6F1C"/>
<path d="M37.529 122.013C37.9078 121.952 38.3287 121.968 38.7126 121.963C40.9516 121.938 45.1161 122.678 47.1969 123.626C48.2094 124.087 48.8255 125.218 49.6282 125.959C50.7126 126.948 51.8876 127.831 53.138 128.598C54.361 129.333 55.6833 130.004 57.0102 130.532C57.6743 130.796 60.5548 131.61 60.7989 131.848C60.8079 131.95 60.838 132.129 60.8153 132.235C60.7676 132.456 60.6911 132.626 60.4594 132.695C60.0876 132.806 59.5251 132.728 59.1301 132.727C57.3055 132.721 55.3044 132.767 53.7926 133.934C52.3899 135.016 52.0665 136.47 51.8594 138.128L51.8544 139.52C46.3032 139.674 41.6442 139.193 36.6153 136.669C35.3653 136.041 34.133 135.376 33.0451 134.488C31.3591 133.112 29.8795 131.082 29.7044 128.849C29.5948 127.452 30.0964 126.128 30.9864 125.065C32.6055 123.129 35.0755 122.243 37.529 122.013Z" fill="#3B773B"/>
<path d="M38.3974 126.613C40.1142 126.158 41.8724 127.189 42.3138 128.909C42.7552 130.63 41.7099 132.38 39.9865 132.807C38.2822 133.23 36.5559 132.199 36.1196 130.498C35.6833 128.798 36.7002 127.063 38.3974 126.613Z" fill="black"/>
<path d="M39.0474 127.075C39.9713 127.034 40.8467 127.492 41.3377 128.276C41.8292 129.06 41.8604 130.048 41.4198 130.861C40.9792 131.675 40.1346 132.188 39.2096 132.204C37.8065 132.229 36.6434 131.123 36.599 129.72C36.5546 128.317 37.6454 127.139 39.0474 127.075Z" fill="#EA6F1C"/>
<path d="M36.1012 101.484C36.1764 101.475 36.2518 101.468 36.3274 101.463C37.9292 101.373 39.5117 101.467 41.0707 101.868C45.2816 102.95 49.2527 105.457 52.8601 107.805C54.0078 108.553 55.225 109.28 56.2496 110.193C57.2429 111.079 57.9191 112.249 58.8129 113.226C60.207 114.75 61.7941 116.196 63.3144 117.596C62.2996 117.225 61.3554 116.522 60.4316 115.965C57.9047 114.442 55.0121 113.176 52.0265 113.046C51.0793 113.054 50.1343 113.192 49.2507 113.543C47.8797 114.087 46.8609 115.102 46.3007 116.468C45.5644 118.264 45.8832 120.254 46.6019 121.999C43.8695 121.207 41.3093 120.298 38.8804 118.777C35.223 116.485 31.5294 113.307 30.5598 108.888C30.2286 107.379 30.3949 105.727 31.2647 104.42C32.3933 102.724 34.1763 101.905 36.1012 101.484Z" fill="#3B773B"/>
<path d="M38.3964 105.706C40.1544 105.511 41.7435 106.763 41.9657 108.518C42.1876 110.273 40.961 111.881 39.2103 112.131C38.0526 112.296 36.8958 111.825 36.1837 110.898C35.4715 109.97 35.3146 108.731 35.773 107.655C36.2315 106.58 37.2342 105.834 38.3964 105.706Z" fill="black"/>
<path d="M38.3385 106.325C39.6981 106.129 40.9618 107.064 41.1719 108.421C41.3821 109.779 40.4606 111.052 39.1055 111.277C38.2159 111.425 37.3157 111.083 36.7481 110.382C36.1806 109.682 36.0333 108.73 36.3623 107.891C36.6913 107.051 37.446 106.453 38.3385 106.325Z" fill="#EA6F1C"/>
<path d="M154.259 86.2597C155.252 86.1191 156.454 86.1921 157.429 86.4398C158.969 86.8367 160.287 87.8332 161.088 89.207C161.998 90.7519 161.984 92.8222 161.52 94.5124C161.085 96.1011 160.196 97.4835 159.204 98.7796C155.612 103.471 151.162 105.847 146.167 108.731C144.365 109.772 142.604 110.881 140.804 111.923C139.298 112.711 137.906 113.741 136.319 114.37C139.891 111.422 143.403 106.773 144.42 102.215C144.902 100.052 144.727 97.4703 143.51 95.5585C144.271 94.0992 145.133 92.6941 146.089 91.3546C147.967 88.7523 151.07 86.7621 154.259 86.2597Z" fill="#3B773B"/>
<path d="M153.877 90.6996C155.736 90.5297 157.378 91.9063 157.535 93.766C157.692 95.6262 156.305 97.259 154.444 97.4035C152.6 97.5473 150.986 96.1758 150.831 94.3332C150.675 92.4906 152.035 90.8676 153.877 90.6996Z" fill="black"/>
<path d="M153.567 91.2965C154.993 90.9293 156.448 91.7832 156.823 93.2074C157.198 94.6312 156.353 96.091 154.931 96.4742C153.497 96.8605 152.023 96.0066 151.645 94.5711C151.267 93.1355 152.129 91.6664 153.567 91.2965Z" fill="#EA6F1C"/>
<path d="M161.059 103.167C162.471 102.923 164.013 103.307 165.28 103.918C166.632 104.57 167.992 105.847 168.466 107.295C169.093 109.209 168.755 111.027 167.825 112.775C164.518 118.991 150.558 125.397 143.944 127.439C144.421 127.146 144.893 126.848 145.362 126.544C147.368 125.336 149.206 123.812 150.585 121.9C151.718 120.329 152.396 118.459 152.052 116.509C151.818 115.182 151.112 114.092 150.008 113.323C147.85 111.82 144.939 112.054 142.486 112.503C144.941 111 147.444 109.618 149.93 108.173C153.436 106.135 156.896 103.541 161.059 103.167Z" fill="#3B773B"/>
<path d="M158.933 108.328C160.786 108.176 162.414 109.55 162.575 111.403C162.736 113.255 161.369 114.89 159.517 115.059C157.653 115.23 156.006 113.852 155.843 111.987C155.682 110.122 157.067 108.481 158.933 108.328Z" fill="black"/>
<path d="M159.176 108.844C160.506 108.781 161.671 109.727 161.883 111.042C162.001 111.778 161.801 112.529 161.331 113.107C160.861 113.686 160.168 114.037 159.424 114.073C157.979 114.141 156.753 113.026 156.684 111.582C156.616 110.138 157.731 108.912 159.176 108.844Z" fill="#EA6F1C"/>
<path d="M145.482 142.622C147.168 142.58 149.099 142.512 150.745 142.888C152.936 143.389 155.281 144.849 156.478 146.786C157.252 148.055 157.475 149.584 157.095 151.021C156.597 152.919 155.022 154.438 153.37 155.392C149.413 157.677 144.504 157.125 140.267 156.017C134.955 154.385 131.633 152.398 127.153 149.232C127.548 148.624 127.884 148.116 128.486 147.693C132.322 147.363 136.416 146.841 140.033 145.46C140.948 145.111 141.887 144.641 142.699 144.094C143.292 143.694 144.065 142.941 144.715 142.701C144.943 142.617 145.24 142.629 145.482 142.622Z" fill="#3B773B"/>
<path d="M147.366 146.628C149.307 146.419 151.048 147.827 151.251 149.768C151.453 151.71 150.041 153.446 148.099 153.643C146.165 153.839 144.437 152.434 144.235 150.501C144.034 148.568 145.434 146.835 147.366 146.628Z" fill="black"/>
<path d="M147.318 147.409C148.261 147.186 149.252 147.487 149.911 148.198C150.57 148.909 150.796 149.919 150.502 150.843C150.208 151.767 149.441 152.461 148.492 152.661C147.051 152.963 145.634 152.052 145.312 150.615C144.991 149.177 145.885 147.749 147.318 147.409Z" fill="#EA6F1C"/>
<path d="M101.228 59.8785C101.552 59.8598 101.878 59.841 102.202 59.8613C103.937 59.9715 105.387 60.841 106.503 62.132C110.997 67.3297 108.948 74.3563 108.479 80.5109C106.888 79.8891 105.252 79.4785 103.562 79.9695C101.226 80.6481 99.6526 82.4715 98.5073 84.5266C97.8437 86.0106 97.4917 87.4992 97.1186 89.0742C96.33 86.9348 96.3085 84.5094 95.9058 82.2731C95.2667 78.7219 94.4214 75.2156 93.7593 71.6719C94.5718 70.091 95.4311 68.507 96.0823 66.8508C96.7815 65.0727 97.2464 63.2168 97.7331 61.3731C98.8394 60.7184 99.9644 60.1445 101.228 59.8785Z" fill="#3B773B"/>
<path d="M101.232 66.4156C101.907 66.391 102.415 66.4746 103.002 66.8277C103.823 67.3219 104.394 68.1949 104.614 69.1187C104.84 70.0726 104.733 71.1527 104.176 71.9785C103.635 72.7808 102.884 73.1265 101.963 73.3097C101.391 73.3012 100.771 73.2 100.252 72.957C99.4925 72.6012 98.9784 71.9445 98.7253 71.1535C98.4147 70.1836 98.4577 69.016 98.9323 68.1051C99.4503 67.1105 100.223 66.7461 101.232 66.4156Z" fill="black"/>
<path d="M101.224 66.9949C101.782 66.9726 102.209 67.0402 102.706 67.3176C103.366 67.6875 103.847 68.3109 104.037 69.0437C104.221 69.7383 104.157 70.525 103.762 71.1367C103.338 71.7957 102.766 72.0105 102.029 72.1691C101.499 72.1734 100.99 72.0886 100.526 71.8191C99.6109 71.2879 99.3164 70.3347 99.0625 69.3785C99.1422 69.0933 99.2203 68.8 99.3406 68.5289C99.7355 67.6426 100.377 67.3359 101.224 66.9949Z" fill="#EA6F1C"/>
<path d="M46.3913 82.1644C46.8499 82.0843 47.3741 82.0995 47.8389 82.1206C49.3612 82.1901 51.9096 82.7042 53.1635 83.5523C55.0913 84.8554 58.5108 90.7226 60.5042 92.9136C59.0632 92.5495 57.5721 92.4546 56.1698 93.0394C54.7417 93.6351 53.6471 94.8948 53.0936 96.323C51.7632 99.7546 52.9522 103.245 54.3604 106.42C54.5913 106.933 54.8948 107.419 55.1729 107.908C53.8272 106.873 52.4061 105.936 51.06 104.901C47.3467 102.044 43.8788 98.4276 41.7464 94.2304C41.0921 92.9425 40.4432 91.6257 40.2186 90.1851C39.9303 88.3355 40.1382 86.4679 41.2792 84.9351C42.5061 83.287 44.4046 82.4542 46.3913 82.1644Z" fill="#3B773B"/>
<path d="M47.7156 87.9718C48.9089 87.6796 50.1675 88.0562 51.0046 88.9558C51.8413 89.8554 52.1265 91.1379 51.7492 92.307C51.3714 93.4765 50.391 94.3504 49.1859 94.5914C47.3773 94.9527 45.6113 93.8019 45.2113 92.0011C44.8113 90.2007 45.9238 88.4105 47.7156 87.9718Z" fill="black"/>
<path d="M47.8523 88.5004C48.4195 88.4258 48.9136 88.4277 49.45 88.6531C50.1695 88.95 50.7398 89.523 51.0328 90.2437C51.3035 90.9226 51.2949 91.707 50.971 92.3664C50.6085 93.1051 50.0011 93.4902 49.2468 93.7527C48.7484 93.8637 48.2375 93.8742 47.7523 93.6953C47.0828 93.4484 46.5773 92.9344 46.2843 92.2898C45.964 91.5855 45.8836 90.7305 46.1793 90.0043C46.5132 89.184 47.0804 88.8371 47.8523 88.5004Z" fill="#EA6F1C"/>
<path d="M51.8281 140.865C51.9344 140.838 52.0808 140.852 52.1918 140.851C52.7586 141.159 53.2781 142.086 53.7144 142.584C55.8738 145.045 59.0144 145.267 62.0699 145.477C62.5437 147.284 63.2637 149.128 64.0324 150.83C62.8125 151.371 61.6437 152.039 60.4293 152.597C58.0086 153.707 55.4761 154.419 52.8547 154.865C52.6484 154.894 52.4422 154.92 52.2351 154.944C49.166 155.299 45.3488 155.239 42.8136 153.204C41.6758 152.291 40.9554 151.084 40.8101 149.615C40.6465 147.963 41.1273 146.527 42.1781 145.259C44.4633 142.5 48.3601 141.2 51.8281 140.865Z" fill="#3B773B"/>
<path d="M49.1328 145.527C49.8426 145.477 50.4864 145.547 51.1321 145.868C52.0055 146.3 52.6707 147.062 52.9809 147.986C53.2418 148.784 53.1953 149.701 52.7856 150.442C52.2953 151.327 51.4864 151.7 50.5543 151.948C49.6887 152.003 48.9778 151.924 48.2231 151.457C47.4219 150.955 46.8567 150.152 46.6555 149.229C46.4688 148.406 46.5805 147.525 47.0399 146.809C47.5399 146.03 48.2625 145.718 49.1328 145.527Z" fill="black"/>
<path d="M49.1086 146.107C49.6165 146.028 50.0715 146.045 50.5543 146.238C51.3516 146.555 52.0196 147.167 52.3379 147.972C52.5508 148.511 52.5575 149.114 52.3254 149.648C51.9825 150.436 51.3715 150.802 50.6172 151.123C49.9868 151.21 49.3645 151.148 48.7856 150.868C48.0879 150.532 47.5161 149.914 47.2801 149.171C47.077 148.532 47.1266 147.802 47.4688 147.219C47.8551 146.56 48.3922 146.28 49.1086 146.107Z" fill="#EA6F1C"/>
<path d="M151.595 142.611C154.829 142.599 159.272 143.395 162.172 144.738C164.22 145.686 166.346 147.367 167.111 149.568C167.556 150.813 167.484 152.184 166.91 153.375C165.452 156.408 161.913 158.17 158.888 159.201C149.701 162.335 140.837 159.812 132.486 155.723C130.078 154.509 128.03 152.814 125.701 151.499C126.096 150.879 126.543 150.299 126.988 149.713C131.191 153.231 137.736 156.274 143.122 157.113C147.161 157.742 151.385 157.571 154.787 155.056C156.33 153.916 157.501 152.431 157.773 150.484C158.177 147.585 156.267 145.032 153.798 143.736C153.216 143.43 151.96 143.1 151.595 142.611Z" fill="#8EBA7C"/>
<path d="M41.9897 140.667C44.2042 140.4 46.653 140.668 48.8815 140.754C47.9593 141.057 47.0499 141.356 46.1655 141.762C43.8159 142.839 41.5108 144.504 40.61 147.031C40.0936 148.479 40.1139 150.062 40.7921 151.459C41.6386 153.203 43.2124 154.259 45.0073 154.865C51.6136 157.095 58.3468 154.032 64.2034 151.165L65.037 152.786C64.2046 153.166 63.4054 153.648 62.6038 154.09C58.6655 156.262 54.2331 157.847 49.7448 158.308C44.7218 158.823 38.4657 158.21 34.4286 154.874C32.8162 153.542 31.381 151.612 31.2195 149.463C31.0897 147.738 31.8835 146.085 32.987 144.803C35.1563 142.284 38.7367 140.895 41.9897 140.667Z" fill="#8EBA7C"/>
<path d="M40.5575 120.452C36.6248 119.497 33.4081 118.348 30.0067 116.098C25.8879 113.374 22.0318 109.169 21.0504 104.193C20.7151 102.493 20.5986 100.525 21.6466 99.0364C22.5183 97.7981 23.8698 97.277 25.298 97.0094C30.378 96.0575 36.1823 97.4844 40.7289 99.82C42.1621 100.556 43.4938 101.466 44.8223 102.373L44.3856 102.56C42.0387 101.626 39.7387 100.786 37.172 100.927C35.0743 101.043 32.8472 101.743 31.4245 103.365C30.2718 104.68 29.8091 106.39 29.9362 108.116C30.2396 112.24 33.6166 115.77 36.843 117.993C38.0047 118.793 39.4387 119.463 40.4883 120.389C40.5118 120.41 40.5344 120.431 40.5575 120.452Z" fill="#8EBA7C"/>
<path d="M46.0855 101.607C43.4824 99.6523 41.0663 97.5617 38.9566 95.0722C35.3613 90.8293 32.0191 84.7551 32.5083 79.0468C32.6332 77.5886 33.0383 76.1543 34.2236 75.1926C35.7959 73.9172 37.9232 73.8601 39.839 74.1082C44.9179 74.7652 49.8804 79.0359 52.9113 82.9902C51.2929 82.273 49.7441 81.75 47.9605 81.6828C45.6808 81.5972 43.2945 82.2648 41.6128 83.8617C40.2956 85.1129 39.6628 86.7769 39.6292 88.5789C39.5464 93.0148 43.3882 98.3269 46.3953 101.444L46.0855 101.607Z" fill="#8EBA7C"/>
<path d="M130.138 79.4699C130.669 77.8742 131.244 76.268 132.037 74.7816C134.194 70.7355 138.699 65.557 142.765 63.523C144.531 62.6398 146.914 61.9531 148.849 62.6105C150.132 63.0469 151.06 63.9785 151.63 65.193C153.571 69.3305 152.194 75.8781 150.651 80.018C149.47 83.1902 147.613 86.2098 145.806 89.068L145.43 89.141C146.945 84.8289 148.373 79.4203 146.308 75.0531C145.514 73.373 144.157 72.0574 142.386 71.4516C140.638 70.8531 138.916 71.0953 137.285 71.9043C134.154 73.4566 131.963 76.5898 130.138 79.4699Z" fill="#8EBA7C"/>
<path d="M159.547 102.464C163.519 99.964 168.995 98.3695 173.681 99.441C175.292 99.8093 177.295 100.703 178.185 102.173C178.963 103.457 178.682 105.267 178.309 106.642C176.765 112.321 172.151 116.354 167.197 119.146C163.606 121.169 160.41 121.896 156.532 123.04L156.148 122.749C160.162 120.757 164.711 118.057 167.413 114.425C168.666 112.741 169.6 110.551 169.275 108.417C169 106.617 167.902 105.085 166.436 104.038C164.518 102.669 162.065 102.387 159.791 102.778L159.547 102.464Z" fill="#8EBA7C"/>
<path d="M159.469 123.451C164.891 121.981 171.988 121.14 177.036 124.078C178.281 124.802 179.522 125.915 179.878 127.359C180.236 128.817 179.672 130.378 178.892 131.601C175.786 136.464 168.325 140.306 162.76 141.492C159.85 142.112 157.04 141.714 154.145 141.25C156.095 140.959 157.889 140.383 159.727 139.691C163.049 138.44 166.027 136.96 168.209 134.026C169.204 132.688 169.633 131.084 169.377 129.43C169.11 127.708 168.073 126.183 166.677 125.162C164.869 123.84 162.546 123.612 160.377 123.702C160.024 123.669 159.762 123.663 159.469 123.451Z" fill="#8EBA7C"/>
<path d="M162.888 78.2625C163.973 78.1059 165.379 78.1485 166.433 78.4758C167.527 78.8153 168.43 79.5422 168.939 80.5743C170.186 83.1012 169.266 86.8176 168.367 89.3118C166.099 95.6028 161.403 100.722 155.331 103.523C156.126 102.647 157.069 101.904 157.896 101.056C158.874 100.053 159.708 98.9184 160.536 97.7911C161.231 96.8051 161.737 95.6993 162.03 94.5289C162.516 92.6223 162.433 90.6133 161.403 88.8942C160.503 87.3918 159.037 86.3145 157.334 85.9055C153.43 84.9278 150.885 86.8629 147.746 88.7555C148.084 88.1727 148.538 87.6356 148.952 87.1039C152.43 82.6399 157.133 78.9832 162.888 78.2625Z" fill="#8EBA7C"/>
<path d="M39.2059 139.053C38.4346 139.092 37.5613 138.936 36.7852 138.861C32.3844 138.434 28.1674 137.167 24.5775 134.518C22.2208 132.779 19.7539 130.295 19.3266 127.253C19.1253 125.835 19.5005 124.395 20.3682 123.256C21.9792 121.146 24.6462 120.483 27.1532 120.16C28.4064 120.009 29.6698 119.961 30.9308 120.016C32.2099 120.072 38.2688 120.776 39.0637 121.389C38.6176 121.553 37.9069 121.495 37.4216 121.535C35.931 121.661 34.4789 122.075 33.1457 122.753C31.4593 123.618 30.1348 124.863 29.5501 126.705C29.0052 128.422 29.2928 130.105 30.1108 131.678C32.0482 135.404 36.3773 137.401 40.2086 138.59L40.0934 138.732C40.3137 138.813 40.5328 138.88 40.7578 138.945C40.4543 138.959 40.1614 138.966 39.8578 138.947C39.6016 138.931 39.4465 138.967 39.2059 139.053Z" fill="#8EBA7C"/>
<path d="M125.84 51.7938C126.535 51.6848 127.367 51.8091 128.015 52.0606C129.497 52.6368 130.438 53.9794 131.03 55.3946C133.553 61.4231 132.146 68.5169 130.243 74.4962C129.839 75.7653 129.451 77.0485 128.952 78.2837C129.033 77.195 129.27 76.1227 129.348 75.0309C129.609 71.3348 128.886 67.7774 127.068 64.5497C126.508 63.7282 125.836 63.0372 125.002 62.4911C123.382 61.4298 121.506 61.086 119.611 61.4977C116.077 62.2649 114.442 64.8942 112.629 67.7376C113.492 64.2747 115.515 60.0005 117.704 57.1926C119.673 54.6661 122.542 52.1907 125.84 51.7938Z" fill="#8EBA7C"/>
<path d="M81.5475 45.0493C83.0904 44.9594 84.6393 45.4754 85.8693 46.402C87.2244 47.4223 88.0404 49.0434 88.2576 50.7082C88.5572 53.0082 87.7533 55.8243 86.317 57.6418C84.8822 59.4571 83.0307 60.2582 80.785 60.5278C78.9564 60.6004 76.926 60.718 75.3385 59.6286C74.6092 59.1282 74.2064 58.45 74.0631 57.5805C73.5951 54.743 74.8611 50.5438 76.5412 48.2418C77.7826 46.5414 79.4557 45.3821 81.5475 45.0493Z" fill="white"/>
<path d="M82.2184 48.0633C83.1626 48.0317 83.8626 48.1508 84.6782 48.6832C85.8118 49.4235 86.5485 50.5922 86.8176 51.9071C87.0805 53.1914 86.8836 54.5192 86.1442 55.6137C85.4075 56.7047 84.4036 57.3461 83.1286 57.602C82.2622 57.6465 81.493 57.5344 80.7243 57.1063C79.6454 56.5055 78.8883 55.4086 78.5899 54.2219C78.2411 52.8364 78.5922 51.2219 79.3501 50.0203C80.0325 48.9383 80.9817 48.3293 82.2184 48.0633Z" fill="black"/>
<path d="M83.8376 49.5117C83.9567 49.5246 84.0762 49.5375 84.1938 49.5602C84.5657 49.6313 84.9137 49.8766 85.1067 50.2039C85.327 50.5777 85.3212 51.0281 85.1868 51.4305C85.0083 51.966 84.6302 52.2242 84.1532 52.4793C84.0442 52.473 83.8977 52.4738 83.7911 52.4395C83.4196 52.3203 83.0387 51.9594 82.8692 51.6121C82.6844 51.2332 82.6903 50.7598 82.8329 50.3668C83.0048 49.8937 83.42 49.7285 83.8376 49.5117Z" fill="white"/>
<path d="M96.978 50.779C98.3444 49.3793 99.598 48.1184 101.71 48.0875C103.342 48.0637 104.737 48.8758 105.848 50.0118C109.461 53.704 111.205 61.5286 111.119 66.6176C111.095 68.0239 110.935 69.5633 110.406 70.8801C110.341 71.1833 110.149 72.02 109.937 72.209C109.797 71.4774 109.85 70.6993 109.87 69.9571C109.614 66.543 108.683 63.2622 105.998 60.9184C104.731 59.8129 103.113 59.2528 101.432 59.3915C100.033 59.5067 98.8729 60.1665 97.6815 60.8489C97.7667 57.0708 97.5679 54.5028 96.978 50.779Z" fill="#8EBA7C"/>
<path d="M109.869 69.957C109.933 70.334 109.931 70.8383 110.145 71.1512L110.259 70.8434L110.338 70.8211L110.406 70.8801C110.341 71.1832 110.148 72.0199 109.937 72.209C109.796 71.4773 109.849 70.6992 109.869 69.957Z" fill="#8EBA7C"/>
<path d="M69.3917 55.4055C69.462 55.3985 69.5327 55.3906 69.6034 55.3883C70.8663 55.3469 72.2202 55.6656 73.1628 56.5383C72.9784 57.6606 72.6917 58.8567 73.4245 59.857C74.4272 61.2262 76.5839 61.3914 78.1315 61.6219C75.5577 64.1012 72.5022 65.6238 68.8972 65.7992C67.8812 65.8488 66.844 65.7496 65.8296 65.6992C64.1167 65.6141 62.4694 65.552 60.8171 66.0879C58.4101 66.9485 56.8374 68.2516 55.1909 70.1317C55.4101 67.7723 56.0026 65.1949 57.4526 63.2711C58.1554 62.3539 58.9659 61.525 59.8675 60.8024C61.4597 59.5313 63.314 58.6559 65.0397 57.5899C65.9425 57.0324 66.7905 56.2797 67.7487 55.8285C68.2913 55.5727 68.8054 55.4902 69.3917 55.4055Z" fill="#F2BA22"/>
<path d="M63.4105 115.764C60.6882 113.427 58.0449 110.5 56.2019 107.418C54.4335 104.459 53.1308 100.519 54.0386 97.0715C54.3417 95.9195 55.1328 94.873 56.1722 94.2879C57.2347 93.6895 58.5507 93.6695 59.6984 94.016C62.5191 94.8676 64.5667 97.0227 66.2078 99.3566C66.6386 99.9695 67.1062 100.606 67.4347 101.279C67.5359 101.486 67.605 101.587 67.5218 101.813C67.141 101.618 66.7847 101.143 66.4957 100.825C65.3652 99.5844 64.4054 98.7117 62.8199 98.084C61.5273 97.5723 60.2023 97.4848 58.9089 98.0676C57.6679 98.6266 56.9429 99.6383 56.4874 100.884L56.8523 100.962C57.2488 99.8938 57.8703 99.0895 58.9132 98.591C60.0312 98.0563 61.2812 97.9859 62.4417 98.4262C64.4441 99.1855 65.9339 101.046 67.3507 102.572C67.157 103.053 67.0503 103.455 66.9585 103.966C66.9499 104.014 66.9398 104.062 66.93 104.111C65.5761 103.278 63.8343 102.081 62.1648 102.485C61.4796 102.65 60.9675 103.068 60.6347 103.686C59.8574 105.128 60.0089 107.096 60.5089 108.602C60.9347 109.886 61.7343 111.076 62.607 112.098C62.8558 112.389 63.3867 112.813 63.5394 113.148C63.5722 113.22 63.5578 113.305 63.5671 113.384L63.4496 113.517C63.13 113.496 62.8246 113.393 62.5113 113.388C62.9425 113.707 63.3613 114.048 63.7843 114.378C63.7804 114.39 63.7765 114.402 63.7718 114.413C63.5808 114.88 63.4839 115.269 63.4105 115.764Z" fill="#F2BA22"/>
<path d="M56.8526 100.962C57.2491 99.8938 57.8705 99.0895 58.9135 98.5911C60.0315 98.0563 61.2815 97.986 62.442 98.4262C64.4444 99.1856 65.9342 101.047 67.351 102.572C67.1573 103.053 67.0506 103.455 66.9588 103.966C66.9502 104.014 66.9401 104.063 66.9303 104.111C65.5764 103.278 63.8346 102.081 62.1651 102.485C61.4799 102.65 60.9678 103.068 60.635 103.686C59.8577 105.128 60.0092 107.096 60.5092 108.602C60.935 109.886 61.7346 111.076 62.6073 112.098C62.8561 112.389 63.387 112.813 63.5397 113.148C63.5725 113.22 63.558 113.306 63.5674 113.384L63.4498 113.517C63.1303 113.496 62.8248 113.393 62.5116 113.388C62.3889 113.303 62.2834 113.193 62.1741 113.091C61.8514 112.498 61.3627 111.997 60.9428 111.47C60.0073 110.296 59.0385 109.11 58.2803 107.812C57.0584 105.719 56.2307 103.372 56.8526 100.962Z" fill="#0B8DCB"/>
<path d="M56.4875 100.884L56.8524 100.962C56.2305 103.372 57.0582 105.719 58.2801 107.812C59.0383 109.11 60.007 110.296 60.9426 111.469C61.3625 111.996 61.8512 112.498 62.1738 113.091C60.4 111.8 58.2547 108.719 57.3258 106.77C56.4762 104.989 55.7938 102.825 56.4875 100.884Z" fill="black"/>
<path d="M58.3572 87.9679C57.542 86.973 56.8287 85.8828 56.0998 84.8242C52.6432 79.8031 49.6287 74.2379 48.5959 68.1676C48.2049 65.8687 47.9908 62.6906 49.4697 60.6996C50.1889 59.7316 51.2834 59.2195 52.4576 59.0605C54.6127 58.7683 56.4889 59.4152 58.1896 60.7129C55.267 64.3996 54.3619 66.6738 54.3533 71.441C54.3521 72.0484 54.4154 72.5093 54.8525 72.9515C54.9904 73.016 55.0584 73.039 55.1564 73.159C53.415 78.6922 56.4166 83.0511 58.3572 87.9679Z" fill="#8EBA7C"/>
<path d="M86.1153 168.27C87.4407 168.556 88.7903 168.707 90.1353 168.867C90.1868 170.286 90.2689 171.696 90.5329 173.095C90.8185 174.607 91.2993 176.181 91.3583 177.72C92.5802 177.981 93.8603 178.404 94.7439 179.33C94.7462 179.366 94.7435 179.403 94.7509 179.439C94.8204 179.76 95.2345 180.135 95.4509 180.385C95.2356 180.418 95.2114 180.405 95.0138 180.343C94.8165 180.28 94.6415 180.24 94.4345 180.221L94.3063 180.153C93.436 179.683 92.6981 179.189 91.7665 178.818C91.8024 181.96 91.7263 183.37 89.431 185.719C88.4063 186.768 85.9419 188.868 84.386 188.9C84.1392 188.905 84.1048 188.877 83.9341 188.723C83.772 188.05 84.2595 187.178 84.6103 186.607C85.2528 185.561 86.1013 184.649 86.8685 183.694C87.9169 182.389 88.6747 181.005 89.2864 179.453C87.1017 182.079 84.0407 186.545 80.3403 186.834C80.0329 186.858 79.5974 186.847 79.3431 186.649C79.1493 186.498 79.0673 186.294 79.0642 186.054C79.0528 185.249 79.986 184.345 80.5603 183.847C81.5661 182.975 82.7876 182.123 83.9954 181.561C84.9825 181.102 85.9978 180.751 86.931 180.182C83.8333 180.691 81.1173 182.586 78.1532 183.5C77.9364 183.468 77.7263 183.439 77.5071 183.43L77.3231 183.423L77.1685 183.244L77.2243 182.827C79.3884 180.277 85.0724 178.702 88.3247 178.371C87.8419 176.272 87.4075 174.17 86.9673 172.062C86.7044 170.801 86.4837 169.503 86.1153 168.27Z" fill="#F2BA22"/>
<path d="M104.44 167.887L104.59 167.964C105.003 168.75 105.177 169.831 105.412 170.691C106.123 173.303 106.797 175.88 107.321 178.538C110.269 178.653 116.802 179.226 118.955 181.281C119.155 181.472 119.193 181.572 119.204 181.842C119.132 181.93 119.13 181.943 119.021 182.014C117.725 182.86 114.133 181.303 112.805 180.868C111.707 180.507 110.594 180.158 109.473 179.873C111.677 181.025 117.984 183.376 118.98 185.485C118.971 185.625 118.991 185.702 118.9 185.819C118.557 186.265 117.895 186.469 117.354 186.503C114.691 186.665 111.8 183.85 109.921 182.263C108.779 181.296 107.658 180.295 106.537 179.303C107.48 181 108.975 182.482 110.412 183.771C112.005 185.199 114.053 186.562 114.852 188.621C112.137 188.577 109.619 187.057 107.601 185.319C105.51 183.52 104.436 181.572 104.23 178.805C102.87 179.56 101.689 180.486 100.461 181.434C100.666 180.818 100.873 180.252 101.286 179.74C102.114 178.715 103.33 178.198 104.61 178.044C103.667 174.893 102.916 171.687 102.363 168.444L104.44 167.887Z" fill="#F2BA22"/>
<path d="M91.7721 96.3906C92.5229 96.3938 93.0393 96.4445 93.6627 96.8926C96.1725 98.6957 96.4866 102.97 96.9018 105.755C97.2018 107.771 97.435 109.801 97.787 111.807C96.6225 112.146 95.5256 112.555 94.4381 113.094C93.9002 113.383 93.3897 113.694 92.8792 114.029C92.1729 112.125 91.3815 110.262 90.7217 108.336C89.7346 105.455 88.3577 100.9 89.8452 98.0164C90.2936 97.1469 90.862 96.7 91.7721 96.3906Z" fill="#8EBA7C"/>
<path d="M131.857 106.576C132.15 106.597 132.422 106.638 132.704 106.724C133.471 106.96 134.089 107.489 134.464 108.196C135.004 109.214 135.074 110.228 134.734 111.323C133.901 114.001 127.444 119.614 124.855 120.956C123.934 119.55 122.646 118.173 121.422 117.026C122.304 116.038 122.971 114.866 123.749 113.795C125.612 111.23 128.576 107.102 131.857 106.576Z" fill="#8EBA7C"/>
<path d="M104.449 94.6348C104.588 94.6286 104.727 94.6231 104.867 94.6274C105.627 94.6508 106.436 95.1637 106.924 95.7235C109.451 98.6204 107.672 107.239 107.446 110.931C106.697 110.857 105.948 110.847 105.196 110.832C104.084 110.824 102.972 110.836 101.86 110.869C101.847 106.604 100.211 100.813 102.125 96.7762C102.635 95.7016 103.333 95.0352 104.449 94.6348Z" fill="#8EBA7C"/>
<path d="M99.8319 109.8C99.7213 108.99 99.5174 108.181 99.385 107.372C98.583 102.465 97.1553 94.4235 98.0827 89.5903C98.6131 86.8243 99.8885 83.5262 102.33 81.8997C103.505 81.1165 104.883 80.8145 106.273 81.1102C107.723 81.4188 108.817 82.3622 109.587 83.5891C111.531 86.6852 111.719 90.3434 111.634 93.8954C111.607 95.0094 111.591 96.2516 111.34 97.3364C110.955 101.243 110.432 107.145 109.253 110.784L109.151 110.857C109.013 110.052 109.64 103.752 109.871 102.783C109.832 101.987 110.106 101.013 110.21 100.213C110.63 96.9684 111.115 93.6891 110.221 90.477C109.728 88.7098 108.664 86.8618 107.001 85.9696C105.87 85.3633 104.674 85.313 103.462 85.6868C101.521 86.2856 100.383 87.8192 99.485 89.5352C99.2889 90.4012 99.0288 91.304 98.9479 92.188C98.7635 94.2016 98.9815 96.2001 99.1483 98.2059C99.3092 100.3 99.5057 102.392 99.737 104.48C99.9385 106.823 100.445 109.447 100.38 111.762C100.159 111.117 99.9963 110.461 99.8319 109.8Z" fill="#F2BA22"/>
<path d="M109.87 102.783C110.16 103.877 109.463 105.086 109.817 106.136L109.993 106.131C110.413 105.476 110.869 99.9738 110.988 98.9113C111.026 98.5793 111.013 97.8508 111.14 97.5758C111.184 97.4812 111.273 97.416 111.34 97.3363C110.954 101.243 110.432 107.145 109.253 110.784L109.15 110.857C109.013 110.052 109.639 103.752 109.87 102.783Z" fill="#F2BA22"/>
<path d="M99.5716 104.459C99.1888 102.712 99.0853 96.9719 98.6388 96.1196C98.5614 95.9719 98.5005 95.8563 98.4415 95.6977L98.6896 95.5488C98.961 94.7262 98.6657 92.1571 98.6165 91.2008C98.5083 91.2871 98.4251 91.3516 98.2993 91.4114C98.3435 91.0906 98.4599 90.7008 98.6907 90.4633C98.8083 90.3422 98.9399 90.3766 99.0978 90.3649C99.1126 90.3055 99.1317 90.2473 99.1423 90.1875C99.1966 89.8735 99.2103 89.7301 99.3614 89.4391L99.4849 89.5352C99.2888 90.4012 99.0286 91.3039 98.9478 92.1879C98.7634 94.2016 98.9813 96.2 99.1481 98.2059C99.3091 100.3 99.5056 102.392 99.7368 104.48L99.5716 104.459Z" fill="#F2BA22"/>
<path d="M99.5716 104.459L99.7368 104.48C99.9384 106.823 100.445 109.447 100.379 111.762C100.159 111.117 99.9962 110.461 99.8317 109.8C99.8962 109.723 99.9259 109.693 99.9825 109.605C100.191 109.282 99.711 105.88 99.5665 105.429C99.4388 105.03 99.4306 104.865 99.5716 104.459Z" fill="#F2BA22"/>
<path d="M136.501 111.669C138.238 109.346 140.64 105.946 140.144 102.859C139.949 101.646 139.246 100.402 138.234 99.6906C137.293 99.0301 136.145 98.8262 135.023 99.0273C131.006 99.748 128.199 104.547 125.981 107.59C124.88 109.101 123.674 110.571 122.633 112.12C121.835 113.309 121.119 115.179 119.85 115.903L119.713 115.891C119.575 115.472 120.031 114.645 120.227 114.259C121.549 111.666 123.448 109.736 125.154 107.441C128.424 103.043 131.291 97.1535 136.906 95.339C138.274 94.8972 139.895 94.718 141.202 95.4359C142.184 95.9758 142.768 96.9336 143.048 97.9957C143.81 100.889 142.653 104.043 141.186 106.515C140.343 107.935 139.349 109.208 138.297 110.475C137.84 111.024 137.31 111.57 136.899 112.151C136.65 112.304 136.475 112.5 136.181 112.575C136.074 112.331 136.126 112.298 136.183 112.049L136.501 111.669Z" fill="#F2BA22"/>
<path d="M117.06 100.498C117.365 100.488 117.714 100.521 118.004 100.618C118.79 100.878 119.432 101.454 119.775 102.208C121.229 105.342 118.56 111.011 117.473 114.023C116.853 113.693 116.191 113.422 115.551 113.131C114.26 112.563 112.893 112.131 111.562 111.662C111.983 108.895 112.618 105.989 113.853 103.469C114.552 102.043 115.519 101.019 117.06 100.498Z" fill="#8EBA7C"/>
<path d="M133.881 117.141C136.731 114.899 143.052 112.937 146.626 113.395C147.954 113.565 149.325 114.198 150.155 115.274C150.791 116.088 151.053 117.132 150.877 118.149C150.371 121.238 147.076 124.068 144.648 125.735C143.403 126.583 142.121 127.374 140.805 128.106C139.173 129.004 131.609 132.8 130.024 132.622L129.905 132.515C129.954 132.265 130.104 132.204 130.307 132.068C131.438 131.309 132.899 130.943 134.142 130.376C135.39 129.806 136.614 129.149 137.838 128.529C141.193 126.831 146.238 124.418 147.152 120.413C147.368 119.465 147.12 118.528 146.604 117.718C145.952 116.694 144.859 115.928 143.667 115.693C141.21 115.208 138.273 116.195 136.068 117.2C135.408 117.502 134.649 117.993 133.972 118.201C133.452 118.51 132.652 119.105 132.056 119.21C131.819 119.09 131.572 119.053 131.313 118.997C132.138 118.351 132.968 117.656 133.881 117.141Z" fill="#F2BA22"/>
<path d="M133.881 117.141L133.909 117.336C133.865 117.36 133.82 117.385 133.776 117.41C133.423 117.614 133.046 117.901 132.748 118.179L132.654 118.18L132.579 118.328C133.008 118.318 133.409 118.29 133.806 118.11L133.972 118.201C133.452 118.51 132.652 119.105 132.056 119.21C131.819 119.09 131.572 119.053 131.313 118.997C132.138 118.351 132.968 117.656 133.881 117.141Z" fill="#F2BA22"/>
<path d="M52.7627 124.616C54.1131 126.421 56.3874 128.025 58.4569 128.889C59.0885 129.153 59.7885 129.254 60.41 129.529C60.6147 129.619 60.7737 129.717 60.8975 129.907C60.912 130.195 60.9362 130.242 60.7823 130.48C60.1088 130.63 57.7491 129.536 57.0085 129.222C53.544 127.749 48.8631 124.679 47.4221 121.016C46.8741 119.623 46.8292 118.134 47.4604 116.751C47.9604 115.655 48.8206 114.912 49.9518 114.517C52.9135 113.481 56.5585 114.702 59.2413 115.99C60.2323 116.466 62.5022 117.532 62.8729 118.579C62.8182 118.83 62.8206 118.775 62.6276 118.911C61.7444 118.424 60.8616 117.926 59.9506 117.493C57.735 116.44 55.8432 116.261 53.5346 117.091L54.0194 117.309C52.9377 117.876 52.06 118.533 51.6983 119.764C51.3346 121.003 51.7401 122.346 52.3565 123.437C52.5358 123.754 52.751 124.058 52.9659 124.352L52.7627 124.616Z" fill="#F2BA22"/>
<path d="M52.7629 124.616C52.4472 124.266 52.1918 123.851 51.9519 123.445C51.2804 122.31 50.9496 120.891 51.3219 119.602C51.6785 118.368 52.4562 117.687 53.5347 117.091L54.0195 117.309C52.9379 117.876 52.0601 118.533 51.6984 119.764C51.3347 121.003 51.7402 122.346 52.3566 123.437C52.5359 123.754 52.7511 124.058 52.966 124.352L52.7629 124.616Z" fill="black"/>
<path d="M135.477 120.442C135.989 120.369 136.496 120.455 136.977 120.63C137.774 120.92 138.369 121.476 138.697 122.262C139.036 123.076 138.989 123.936 138.651 124.742C137.497 127.492 133.118 129.068 130.506 130.157L129.545 130.539C128.955 128.421 128.2 126.415 127.227 124.442C127.235 124.434 127.243 124.426 127.251 124.417C129.097 122.491 132.856 120.806 135.477 120.442Z" fill="#8EBA7C"/>
<path d="M99.7287 97.789C99.2631 94.6573 98.6659 90.9503 100.714 88.2222C101.583 87.0652 102.789 86.1491 104.257 85.9488C105.424 85.7898 106.554 86.1054 107.487 86.8198C109.076 88.0366 109.776 90.0659 109.989 91.9886C110.258 94.4046 110.099 96.8237 109.748 99.2218C109.517 98.8956 109.543 98.223 109.514 97.8234C109.173 95.8347 108.624 93.9968 106.867 92.7866C106.09 92.2507 105.143 91.9394 104.197 92.1187C102.819 92.38 101.731 93.4925 101.003 94.6331C100.403 95.5734 100.089 96.7386 99.7287 97.789Z" fill="#0B8DCB"/>
<path d="M87.4229 19.1049C88.1175 18.2468 88.9897 17.5588 90.1292 17.4507C90.8421 17.3831 91.6628 17.5865 92.2038 18.0725C92.589 18.4182 92.7839 18.8875 92.7976 19.4016C92.8108 19.8907 92.7284 20.3823 92.5354 20.8309C92.5183 20.8635 92.5015 20.8964 92.4835 20.9288C91.8276 22.1311 90.5913 22.9743 89.6878 23.9887C86.4886 27.5791 85.7956 31.217 85.2229 35.8293C84.6386 35.6598 84.0519 35.4961 83.4761 35.3001C83.5218 31.36 83.8999 26.1595 85.4675 22.5627C85.9913 21.3105 86.6729 20.2282 87.4229 19.1049Z" fill="#FA3948"/>
<path d="M87.4233 19.1049C88.1179 18.2468 88.9901 17.5588 90.1296 17.4507C90.8425 17.3831 91.6632 17.5865 92.2042 18.0725C92.5894 18.4182 92.7843 18.8875 92.798 19.4016C92.8112 19.8907 92.7288 20.3823 92.5358 20.8309C92.0874 20.4193 92.5628 19.6848 92.178 19.1569C91.8413 18.6949 91.2647 18.4647 90.7101 18.4281C89.5823 18.3537 88.6202 18.8479 87.8108 19.5921L87.4233 19.1049Z" fill="white"/>
<path d="M87.4232 19.1049L87.8107 19.5921C87.6861 19.7513 87.5627 19.9105 87.4354 20.0677C86.7725 20.8861 86.2287 21.8711 85.749 22.8058L85.5998 22.7807L85.4678 22.5627C85.9916 21.3105 86.6732 20.2282 87.4232 19.1049Z" fill="white"/>
<path d="M111.853 100.895C112.466 96.9266 114.242 92.5426 117.582 90.098C118.958 89.091 120.729 88.4504 122.446 88.7469C123.77 88.9754 124.922 89.7547 125.687 90.8512C126.975 92.6949 126.961 95.2672 126.533 97.389C126.119 99.4445 125.528 102.043 124.376 103.792C123.699 105.3 122.971 107.161 121.989 108.487C121.817 108.069 122.229 107.253 122.373 106.837C122.64 106.386 122.828 105.852 123.067 105.381C123.291 104.843 123.501 104.299 123.697 103.75C124.685 101.043 125.617 98.2207 124.296 95.4461C123.674 94.1383 122.657 93.1812 121.269 92.7277C120.03 92.3226 118.76 92.4082 117.597 93.0008C114.763 94.4441 113.259 98.0668 112.37 100.952C112.286 100.856 112.225 100.836 112.111 100.785L111.853 100.895Z" fill="#F2BA22"/>
<path d="M123.068 105.381L123.154 105.475C123.651 105.295 123.966 104.159 124.247 103.7L124.376 103.792C123.699 105.3 122.972 107.161 121.99 108.487C121.817 108.069 122.229 107.253 122.374 106.837C122.64 106.386 122.829 105.852 123.068 105.381Z" fill="#F2BA22"/>
<path d="M85.3397 15.6904C86.4124 16.6853 86.5116 17.6602 86.4211 18.0954C86.3306 18.5305 86.2753 18.6842 86.2597 18.7392C85.8499 20.1917 84.9269 21.3447 84.4151 22.7326C83.1105 26.2688 82.7437 31.3631 83.0089 35.1517C82.4179 35.0276 81.8577 34.9521 81.255 34.9199C81.3511 32.4085 80.8858 29.9253 80.653 27.4342C80.4921 25.7118 80.5042 23.9941 80.4722 22.2674C80.4569 21.266 80.5128 20.2648 80.639 19.2712C80.7898 18.3206 80.9386 17.3151 81.423 16.4668C81.7226 15.9424 82.1687 15.5212 82.7608 15.366C83.3586 15.366 84.2669 14.6955 85.3397 15.6904Z" fill="#FA3948"/>
<path d="M81.1499 19.2571C81.0624 20.055 81.0749 21.7587 80.6523 22.4066C80.5956 22.3658 80.5159 22.3216 80.4722 22.2674C80.4569 21.2659 80.5128 20.2647 80.639 19.2712L81.1499 19.2571Z" fill="#FA3948"/>
<path d="M91.4208 23.674C92.2661 22.9584 93.252 22.4315 94.3946 22.5399C95.2716 22.6232 96.1794 23.0741 96.711 23.788C97.0599 24.2565 97.2036 24.8467 97.1095 25.4232C96.9876 26.1686 96.4536 26.8444 95.8407 27.2611C95.8071 27.284 95.7716 27.3036 95.7368 27.3248C94.9224 28.0369 93.8837 28.4208 92.9271 28.8993C90.3177 30.2044 87.6915 33.686 86.8001 36.4076C86.4415 36.2313 86.0646 36.0871 85.6958 35.9335C85.6989 35.8122 85.7052 35.691 85.7146 35.5699C85.8731 33.5235 87.4724 27.5765 88.8884 26.3542C89.4993 25.2862 90.4052 24.3599 91.4208 23.674Z" fill="#FA3948"/>
<path d="M91.4206 23.674C92.2659 22.9584 93.2519 22.4315 94.3944 22.5399C95.2714 22.6232 96.1792 23.0741 96.7108 23.788C97.0597 24.2565 97.2034 24.8467 97.1093 25.4232C96.9874 26.1686 96.4534 26.8444 95.8405 27.2611C95.8069 27.284 95.7714 27.3036 95.7366 27.3248C95.6284 26.5536 96.2167 25.9166 96.3261 25.1695C96.3679 24.8837 96.3108 24.6548 96.1327 24.4219C95.689 23.841 94.8034 23.3249 94.0765 23.2332C92.7562 23.0667 91.5968 24.1034 90.644 24.8763L90.5249 24.6752C90.8593 24.3702 91.23 24.0931 91.4206 23.674Z" fill="white"/>
<path d="M91.4206 23.6741C91.23 24.0931 90.8593 24.3702 90.5249 24.6753L90.644 24.8763C90.3253 25.2383 89.5608 26.3289 89.121 26.3559C88.9561 26.366 89.0222 26.3679 88.8882 26.3543C89.4991 25.2863 90.405 24.36 91.4206 23.6741Z" fill="white"/>
<path d="M113.814 98.4184C114.619 96.3461 116.08 94.0852 118.21 93.1801C119.305 92.7149 120.471 92.8168 121.546 93.2856C122.709 93.7926 123.491 94.6309 123.937 95.8149C125.371 99.6168 123.287 102.917 122.126 106.473C121.812 106.063 122.152 105.007 122.182 104.479L122.187 104.367C122.293 104.055 122.282 103.591 122.284 103.258C122.294 101.821 121.829 100.44 120.774 99.4254C119.898 98.5817 118.659 98.0445 117.432 98.1156C115.876 98.2055 114.708 99.1801 113.715 100.277C113.478 100.62 113.099 101.327 112.716 101.468C112.628 100.556 113.385 99.2195 113.814 98.4184Z" fill="#0B8DCB"/>
<path d="M113.814 98.4183C113.782 99.1476 113.337 99.5914 113.715 100.277C113.478 100.62 113.099 101.327 112.716 101.468C112.628 100.556 113.385 99.2195 113.814 98.4183Z" fill="#0B8DCB"/>
<path d="M78.4033 16.6727C79.049 17.2281 79.6143 17.9059 79.6623 18.7981C79.6728 18.9925 79.6439 19.1892 79.6139 19.3807C79.6701 21.9173 79.6107 24.4842 79.8791 27.0098C80.1643 29.691 80.8146 32.2136 80.7584 34.9438L79.2244 34.9778C78.9334 32.3307 78.6924 29.7819 77.4361 27.3788C76.7092 25.9878 75.8283 24.6326 75.2385 23.1747C74.7076 22.2269 74.3752 21.2056 74.1709 20.1424C74.0756 19.5026 74.1115 18.8474 74.1178 18.2024C74.3619 18.2997 74.6033 18.409 74.8607 18.4648L75.1287 18.1466C75.4427 17.869 75.9253 17.6155 76.1713 17.5106C76.4173 17.4056 76.753 17.3544 77.117 17.3544C77.6111 16.9551 77.9428 17.1607 78.4033 16.6727Z" fill="#FA3948"/>
<path d="M74.1178 18.2024C74.3619 18.2997 74.6033 18.409 74.8607 18.4647L74.7623 19.1377C74.7686 19.9407 74.7869 20.5661 75.1291 21.3126C75.2623 21.8458 75.5264 22.37 75.5002 22.9215C75.4139 23.0194 75.3439 23.0959 75.2385 23.1747C74.7076 22.2269 74.3752 21.2056 74.1709 20.1424C74.0756 19.5026 74.1115 18.8474 74.1178 18.2024Z" fill="white"/>
<path d="M74.1178 18.2024C74.3619 18.2997 74.6033 18.409 74.8607 18.4647L74.7623 19.1377C74.7283 19.3469 74.7111 19.8665 74.558 19.972C74.4314 20.059 74.315 20.0963 74.1709 20.1424C74.0756 19.5026 74.1115 18.8474 74.1178 18.2024Z" fill="white"/>
<path d="M78.403 16.6727C79.0487 17.2281 79.614 17.9059 79.662 18.7981C79.6726 18.9925 79.6437 19.1892 79.6136 19.3807C79.1019 18.9824 78.8706 18.2516 78.405 17.7896C78.037 17.4245 77.6132 17.3613 77.1167 17.3544C77.6108 16.9551 77.9425 17.1607 78.403 16.6727Z" fill="white"/>
<path d="M127.07 106.932C128.358 104.276 131.421 100.661 134.268 99.6739C135.315 99.311 136.489 99.2165 137.51 99.7141C138.539 100.215 139.203 101.252 139.525 102.321C140.09 104.19 139.229 106.414 138.314 108.046C138.014 108.581 137.628 109.339 137.166 109.738L137.059 109.761L136.669 109.823L136.557 110.029L136.428 110.592C136.203 110.316 136.201 110.215 136.198 109.863C136.203 109.815 136.217 109.766 136.212 109.717C136.188 109.443 136.106 109.256 136.133 108.963C136.153 108.734 136.261 108.534 136.257 108.304C136.254 108.17 136.282 108.123 136.347 108.008L136.716 107.653C136.168 106.329 135.351 105.347 134.01 104.764C132.808 104.241 131.346 104.29 130.14 104.795C129.027 105.262 128.043 106.223 127.07 106.932Z" fill="#0B8DCB"/>
<path d="M136.716 107.653C136.88 108.343 136.877 109.097 137.059 109.761L136.67 109.823L136.557 110.028L136.428 110.592C136.203 110.316 136.201 110.214 136.198 109.863C136.203 109.814 136.217 109.766 136.212 109.717C136.188 109.443 136.106 109.255 136.133 108.963C136.153 108.734 136.261 108.534 136.257 108.304C136.254 108.17 136.282 108.123 136.347 108.008L136.716 107.653Z" fill="black"/>
<path d="M136.198 109.863C136.203 109.814 136.217 109.766 136.212 109.717C136.188 109.443 136.106 109.255 136.133 108.963C136.153 108.734 136.261 108.534 136.257 108.304C136.254 108.17 136.282 108.123 136.347 108.008C136.594 108.692 136.482 109.331 136.557 110.029L136.428 110.592C136.203 110.316 136.201 110.214 136.198 109.863Z" fill="#F2BA22"/>
<path d="M135.053 118.149C137.603 117.015 141.403 115.255 144.255 116.315C145.2 116.666 146.065 117.453 146.483 118.373C146.879 119.248 146.801 120.17 146.431 121.037C145.34 123.593 142.182 125.946 139.684 126.968C140.06 126.444 140.524 126.002 140.897 125.486C141.516 124.63 141.784 122.925 141.603 121.918C141.404 120.805 140.688 119.814 139.752 119.194C138.442 118.326 136.831 118.377 135.34 118.598L135.053 118.149Z" fill="#0B8DCB"/>
<path d="M133.193 145.208C135.681 144.425 138.965 144.164 140.28 141.528C140.734 140.62 140.755 139.568 140.396 138.625C139.94 137.429 138.966 136.579 137.808 136.085C136.721 135.621 135.515 135.449 134.339 135.446C133.397 135.443 130.743 136.141 130.094 135.506C130.114 135.324 130.078 135.321 130.23 135.191C131.516 134.086 137.103 134.186 138.899 134.408C140.635 134.623 142.55 135.212 143.68 136.636C144.307 137.425 144.651 138.507 144.524 139.512C144.364 140.774 143.613 141.668 142.626 142.399C140.126 144.252 136.732 145.147 133.708 145.751C131.87 146.055 130.046 146.376 128.185 146.499C129.798 145.866 131.497 145.534 133.193 145.208Z" fill="#F2BA22"/>
<path d="M128.185 146.499C129.798 145.866 131.497 145.534 133.193 145.208L133.303 145.385C133.256 145.387 133.209 145.388 133.162 145.392C132.782 145.424 132.451 145.538 132.102 145.684C132.651 145.832 133.18 145.464 133.708 145.751C131.87 146.055 130.046 146.376 128.185 146.499Z" fill="#F2BA22"/>
<path d="M54.0196 117.309C56.5931 116.572 58.7356 117.343 60.9849 118.604C61.422 118.848 62.2036 119.232 62.386 119.729C62.4571 119.923 62.4321 120.128 62.42 120.328L62.3212 120.462C60.5376 120.245 58.8548 118.643 57.0614 120.032C56.3892 120.553 55.7587 121.437 55.6962 122.307C55.5716 124.043 56.4196 125.626 57.5591 126.867C58.2841 127.657 59.1157 128.321 59.9735 128.959C57.4017 128.105 54.7454 126.405 52.9661 124.352C52.7513 124.058 52.536 123.754 52.3567 123.437C51.7403 122.346 51.3349 121.004 51.6985 119.764C52.0602 118.533 52.938 117.876 54.0196 117.309Z" fill="#0B8DCB"/>
<path d="M61.992 55.3755C61.3912 52.9684 62.2237 49.4009 63.426 47.2805C64.2721 45.788 65.4237 44.913 67.0795 44.4442C67.7049 44.613 68.2158 44.7848 68.6987 45.2325C69.8334 46.2837 70.1131 47.9173 70.1631 49.3868C70.0866 49.6161 70.0479 49.8208 69.8342 49.9602C69.5772 49.029 69.0854 48.0559 68.2014 47.5759C67.5619 47.2286 66.7354 47.2009 66.0557 47.4434C65.2487 47.7317 64.6619 48.4126 64.3366 49.1872C63.8534 50.3384 63.6955 51.9911 64.1905 53.1512C64.6557 54.2415 65.6237 54.9102 66.7045 55.3087C66.776 55.3348 66.8483 55.3602 66.9205 55.3848C65.8393 56.1399 64.7885 56.918 63.5455 57.3903L63.4104 57.3075C63.4178 57.2434 63.4213 57.179 63.4323 57.1153C63.46 56.9567 63.4803 57.0411 63.4795 56.8598C63.4787 56.6653 63.385 56.404 63.2549 56.2626L63.0905 56.2868C63.0006 56.4469 62.9158 56.5872 62.7991 56.7302C62.7674 56.7688 62.7342 56.8063 62.7018 56.8442C62.3936 56.3747 62.3323 55.8376 61.992 55.3755Z" fill="white"/>
<path d="M61.8413 67.4671C63.6276 67.5261 65.4116 67.6515 67.1976 67.7202C70.6374 67.8531 73.762 67.1784 76.3483 64.7921L76.9292 65.0398C76.3479 66.337 75.6831 67.6066 74.6976 68.6456C73.1968 70.2273 71.4292 71.0796 69.2421 71.1105C66.13 71.1542 63.9737 69.5312 61.8413 67.4671Z" fill="#F2BA22"/>
<path d="M89.5954 88.2921C90.5504 88.2503 91.3504 88.3523 92.1805 88.8609C94.9196 90.541 95.3629 94.1167 96.0954 96.9468C95.5735 96.3011 95.0668 95.6507 94.4504 95.0906C93.5821 94.4226 92.5133 93.9831 91.4024 94.0792C90.0262 94.198 89.1078 95.0355 88.2735 96.0453C88.27 94.9027 88.5141 89.3007 89.0575 88.4874C89.1465 88.3538 89.4414 88.3308 89.5954 88.2921Z" fill="#0B8DCB"/>
<path d="M59.8579 144.052C58.1446 143.811 56.4817 143.342 55.0927 142.266C53.9329 141.369 53.0442 140.101 52.8759 138.616C52.7427 137.468 53.0767 136.316 53.8024 135.417C54.8208 134.151 56.4056 133.616 57.9724 133.47C58.6825 133.404 60.227 133.145 60.7665 133.737C60.9497 133.937 60.904 134.033 60.8571 134.272C60.2872 135.009 59.0841 134.791 58.2669 135.184C57.3774 135.611 56.5997 136.604 56.2755 137.52C55.8923 138.595 55.9673 139.78 56.4829 140.798C57.2618 142.305 58.72 142.811 60.2227 143.306L60.0302 143.384C59.9829 143.616 59.9419 143.83 59.8579 144.052Z" fill="#F2BA22"/>
<path d="M89.1792 87.8918C89.3327 86.9883 89.3796 84.8773 89.8831 84.2093C90.0284 84.0164 90.2073 83.9093 90.4534 83.8964C91.0284 83.8656 92.0851 84.7148 92.5187 85.0863C96.2925 88.3234 96.7636 94.7781 97.4062 99.3789C97.7382 101.757 98.1261 104.159 98.3046 106.553C98.4069 107.344 99.0386 111.078 98.6464 111.631L98.4624 111.661C98.037 111.137 97.8882 108.691 97.8159 107.89C97.4968 107.179 97.4565 105.552 97.3718 104.75C96.9581 100.836 96.5601 92.3207 93.7132 89.4957C92.3999 88.1922 90.9815 87.88 89.1792 87.8918Z" fill="#F2BA22"/>
<path d="M97.8159 107.89C97.8558 107.929 97.8972 107.965 97.9354 108.005C98.2065 108.292 98.2054 108.809 98.1886 109.179C98.1776 109.413 98.1714 109.548 98.2714 109.769C98.7519 109.073 97.8425 107.339 98.3046 106.553C98.4069 107.344 99.0386 111.078 98.6464 111.631L98.4624 111.661C98.037 111.137 97.8882 108.691 97.8159 107.89Z" fill="#F2BA22"/>
<path d="M111.153 107.791C111.494 105.634 113.113 101.528 114.682 100.028C115.562 99.1886 116.657 98.6375 117.897 98.7007C118.966 98.755 119.949 99.2035 120.658 100.007C121.91 101.422 121.815 102.925 121.68 104.674C121.938 105.334 121.337 106.223 121.574 106.756L121.685 106.69L121.475 106.645C121.564 106.591 121.66 106.547 121.74 106.482C121.855 106.39 121.757 106.187 121.766 106.039C121.8 105.489 121.804 105.016 122.089 104.529C122.12 104.474 122.154 104.421 122.187 104.367L122.181 104.479C122.152 105.007 121.812 106.063 122.126 106.473C122.087 106.655 122.065 106.71 121.983 106.864C121.965 106.896 121.919 107.082 121.908 107.121L122.064 107.143C122.17 107.043 122.279 106.949 122.373 106.837C122.229 107.253 121.817 108.069 121.989 108.487C121.805 108.546 121.668 108.587 121.52 108.716C121.258 109.405 120.933 110.752 120.416 111.252C120.336 111.061 120.28 110.879 120.23 110.678L120.081 110.545C119.546 111.839 119.145 113.314 118.267 114.425L118.168 114.421C118.776 110.834 121.945 105.648 120.373 102.193C119.95 101.262 119.194 100.477 118.211 100.151C117.44 99.8953 116.652 99.9898 115.933 100.355C113.149 101.768 112.501 105.726 111.627 108.392C111.439 109.309 111.315 110.592 110.765 111.358L110.662 111.281C110.537 110.098 110.773 108.908 111.153 107.791Z" fill="#F2BA22"/>
<path d="M121.68 104.674C121.939 105.334 121.338 106.223 121.575 106.756L121.686 106.69L121.476 106.645C121.564 106.591 121.66 106.547 121.741 106.482C121.856 106.39 121.758 106.187 121.767 106.039C121.801 105.489 121.805 105.016 122.089 104.529C122.121 104.474 122.155 104.421 122.187 104.367L122.182 104.479C122.153 105.007 121.812 106.063 122.126 106.473C122.087 106.655 122.066 106.711 121.983 106.864C121.966 106.897 121.919 107.082 121.908 107.122L122.064 107.143C122.171 107.043 122.279 106.949 122.374 106.837C122.229 107.253 121.817 108.069 121.99 108.488C121.805 108.547 121.668 108.587 121.52 108.716C121.259 109.406 120.934 110.752 120.416 111.252C120.336 111.061 120.28 110.879 120.23 110.679L120.082 110.545C120.25 110.011 120.453 109.493 120.656 108.973C121.123 107.559 121.414 106.138 121.68 104.674Z" fill="black"/>
<path d="M120.656 108.973C121.093 108.859 121.193 108.368 121.491 108.068C121.595 108.31 121.556 108.463 121.52 108.716C121.259 109.405 120.934 110.752 120.416 111.252C120.336 111.061 120.28 110.879 120.23 110.679L120.082 110.545C120.25 110.011 120.453 109.493 120.656 108.973Z" fill="black"/>
<path d="M111.153 107.791C111.174 107.836 111.198 107.88 111.217 107.926C111.396 108.348 111.058 109.079 111.094 109.564C111.231 109.446 111.189 109.523 111.211 109.342C111.255 108.982 111.292 108.743 111.485 108.435L111.627 108.392C111.439 109.309 111.315 110.592 110.765 111.358L110.662 111.281C110.537 110.098 110.773 108.908 111.153 107.791Z" fill="#F2BA22"/>
<path d="M131.079 136.002C133.512 135.881 137.056 135.564 138.963 137.337C139.716 138.038 140.083 138.959 140.081 139.984C140.079 140.868 139.8 141.665 139.161 142.29C137.963 143.46 136.045 144.047 134.456 144.41L134.075 143.877C135.072 143.236 136.062 142.257 136.306 141.055C136.46 140.296 136.249 139.544 135.819 138.912C134.711 137.28 132.856 136.623 131.079 136.002Z" fill="#0B8DCB"/>
<path d="M59.8699 135.191C60.1472 135.165 60.3726 135.156 60.6484 135.193C60.9047 135.887 60.7515 137.429 60.8207 138.25C60.9582 139.875 61.1496 141.607 61.4832 143.201C60.6261 142.972 59.7625 142.759 58.9379 142.428C58.6101 142.274 58.2933 142.112 58.0008 141.897C57.173 141.29 56.5695 140.37 56.4351 139.343C56.3129 138.407 56.5906 137.474 57.1703 136.734C57.8297 135.882 58.8011 135.327 59.8699 135.191Z" fill="#0B8DCB"/>
<path d="M64.1108 104.82C65.0061 104.88 65.626 105.32 66.3498 105.798C65.7526 107.937 65.0471 110.096 64.2475 112.167L64.0959 112.163C63.0006 111.061 62.2631 109.497 62.0643 107.958C61.9553 107.114 61.985 106.127 62.5545 105.441C62.9948 104.912 63.4608 104.86 64.1108 104.82Z" fill="#8EBA7C"/>
<path d="M100.265 102.799C100.216 102.675 100.227 102.727 100.212 102.586C99.9371 99.9121 100.282 96.2301 102.093 94.0914C102.783 93.2762 103.725 92.7106 104.806 92.6461C105.686 92.5938 106.483 92.9188 107.134 93.5024C108.633 94.8442 108.981 96.7418 109.125 98.6504L108.905 98.8789C108.656 98.7758 108.698 98.7285 108.594 98.4934C108.282 96.9903 107.722 95.6238 106.394 94.7274C105.747 94.2903 104.966 94.0473 104.187 94.2078C103.251 94.4008 102.544 95.1508 102.057 95.932C100.875 97.8309 100.868 100.223 100.762 102.386L100.629 102.436L100.559 102.792L100.317 102.734L100.265 102.799Z" fill="#F2BA22"/>
<path d="M130.196 137.747C130.87 137.829 131.669 138.048 132.28 138.35C133.178 138.795 133.67 139.378 133.99 140.317C133.728 141.522 133.182 142.052 132.219 142.758C131.296 143.282 130.314 143.62 129.308 143.95C129.896 141.95 130.06 139.819 130.196 137.747Z" fill="#8EBA7C"/>
<path d="M123.213 112.546C123.22 112.532 123.227 112.518 123.235 112.506C124.84 110.184 128.374 105.805 131.142 105.11C132.358 104.804 133.596 104.968 134.654 105.648C135.544 106.22 136.113 106.974 136.347 108.008C136.282 108.123 136.254 108.17 136.257 108.304C136.261 108.534 136.154 108.734 136.133 108.963C136.106 109.255 136.188 109.443 136.213 109.717C136.217 109.766 136.203 109.814 136.198 109.863C136.173 109.899 136.145 109.933 136.122 109.969C136.022 110.128 136.012 110.234 135.993 110.415L135.889 110.48C135.76 110.293 135.661 110.124 135.573 109.914L135.483 109.903C135.432 108.812 135.102 107.808 134.289 107.037C133.619 106.401 132.691 106.024 131.765 106.059C129.78 106.132 127.894 108.069 126.668 109.458C126.009 110.204 124.266 112.666 123.684 113.113C123.541 113.052 123.396 112.994 123.251 112.936C123.282 112.752 123.279 112.721 123.213 112.546Z" fill="#F2BA22"/>
<path d="M59.3942 121.688C60.3353 121.726 61.2126 121.964 62.0446 122.396C61.836 123.391 61.6376 127.02 61.031 127.528L60.7731 127.457C60.7313 127.427 60.6899 127.397 60.6485 127.366C59.0071 126.165 58.0856 125.417 57.7583 123.294C57.8153 123.157 57.8751 123.022 57.9372 122.888C58.2646 122.187 58.6919 121.946 59.3942 121.688Z" fill="#8EBA7C"/>
<path d="M88.2007 103.7C87.9882 102.263 87.8792 100.218 88.0136 98.7734C88.1374 97.4437 88.6538 96.2011 89.7249 95.3578C90.4538 94.7843 91.3831 94.4839 92.3097 94.6136C93.6624 94.8031 94.4195 95.7089 95.1698 96.7414L94.6077 97.0566C93.873 96.3925 92.973 95.7964 91.9382 95.8484C91.1562 95.8878 90.4816 96.3175 89.9874 96.9054C88.7558 98.3707 88.6784 100.221 88.6792 102.036C88.6534 102.34 88.6351 102.626 88.657 102.931C88.6749 103.178 88.6488 103.292 88.5417 103.513C88.4308 103.595 88.3257 103.643 88.2007 103.7Z" fill="#F2BA22"/>
<path d="M59.1065 127.669C59.0244 127.627 59.0135 127.624 58.9256 127.563C57.6877 126.707 56.4717 124.845 56.1932 123.372C56.0502 122.617 56.1322 121.853 56.5768 121.21C57.0416 120.538 57.815 120.105 58.6186 119.998C59.8053 119.84 61.1994 120.366 62.1412 121.088C62.2193 121.331 62.2307 121.352 62.1568 121.593C61.5725 121.975 60.2322 121.176 59.5225 121.193C58.9279 121.208 58.3264 121.447 57.9295 121.897C57.4709 122.417 57.3397 123.134 57.3975 123.808C57.533 125.393 58.5752 126.311 59.6893 127.293L59.7647 127.586L59.6549 127.684C59.4104 127.628 59.3416 127.561 59.1065 127.669Z" fill="#F2BA22"/>
<path d="M62.3073 102.88C62.9792 102.861 63.6034 102.908 64.2444 103.123C65.0237 103.385 66.3839 104.093 66.7136 104.855C66.7855 105.021 66.7679 104.952 66.6983 105.149C66.2093 105.291 65.187 104.606 64.6304 104.472C63.9511 104.309 63.0644 104.316 62.464 104.717C61.9417 105.067 61.7288 105.705 61.63 106.296C61.3003 108.264 62.0304 110.03 63.1659 111.594L62.819 111.852C62.3694 111.266 61.9749 110.619 61.6429 109.96C60.8933 108.473 60.1663 106.202 60.7448 104.563C61.0339 103.745 61.5491 103.263 62.3073 102.88Z" fill="#F2BA22"/>
<path d="M131.626 143.701C132.754 143.006 134.203 142.063 134.49 140.665C134.598 140.143 134.43 139.643 134.123 139.219C133.065 137.758 130.732 137.658 130.177 136.894L130.206 136.715C130.865 136.451 132.383 136.971 133.039 137.25C134.074 137.689 135.258 138.434 135.709 139.504C135.969 140.122 135.962 140.797 135.697 141.413C135.05 142.92 133.465 143.648 132.037 144.216L131.48 144.404C131.319 144.247 131.131 144.124 130.95 143.993L131.626 143.701Z" fill="#F2BA22"/>
<path d="M130.95 143.993L131.626 143.701L132.229 143.87C132.21 144.077 132.172 144.07 132.038 144.216L131.48 144.404C131.319 144.247 131.132 144.124 130.95 143.993Z" fill="#F2BA22"/>
<path d="M94.0824 82.0512C93.757 81.2567 93.4433 80.4466 93.0566 79.6798C92.6312 78.8364 91.7312 77.8669 91.5898 76.9403C91.5078 76.402 91.6848 75.8458 91.8945 75.3563C92.2176 74.6028 92.6137 73.8704 92.9785 73.1356C93.793 76.0712 94.2441 79.2067 94.7207 82.2134L94.3844 82.3567L94.0824 82.0512Z" fill="#8EBA7C"/>
<path d="M70.7876 71.9836C71.7587 71.9476 72.7075 71.914 73.6774 72.0117C73.8314 73.3547 74.122 74.7093 74.1899 76.0566C74.5763 77.9109 74.6103 79.8691 74.613 81.7566C74.4438 81.2746 74.2634 80.7984 74.1571 80.2976C73.5673 77.4769 72.4981 74.3097 70.7876 71.9836Z" fill="#8EBA7C"/>
<path d="M74.19 76.0566C74.5764 77.9109 74.6103 79.8691 74.6131 81.7566C74.4439 81.2746 74.2635 80.7984 74.1572 80.2977C74.8529 79.7043 73.9854 77.0254 74.19 76.0566Z" fill="#8EBA7C"/>
<path d="M135.483 109.903L135.573 109.914C135.661 110.124 135.76 110.293 135.889 110.48L135.994 110.415C136.012 110.234 136.022 110.128 136.122 109.97C136.145 109.933 136.173 109.899 136.199 109.863C136.201 110.214 136.204 110.316 136.428 110.592C136.342 110.862 136.263 111.138 136.164 111.404L136.501 111.669L136.183 112.049C136.126 112.298 136.074 112.331 136.181 112.575C136.475 112.5 136.65 112.304 136.899 112.151C136.273 112.882 135.658 113.568 134.921 114.188C134.72 114.202 134.706 114.199 134.539 114.115C134.282 114.423 134.017 114.723 133.743 115.016C132.712 116.12 126.32 121.808 125.304 121.84L125.257 121.671C125.535 121.173 130.304 117.544 131.28 116.664C133.25 114.889 135.337 112.693 135.483 109.903Z" fill="#F2BA22"/>
<path d="M134.539 114.115C134.823 113.45 135.41 112.659 135.865 112.095L136.183 112.049C136.126 112.298 136.073 112.331 136.18 112.575C136.475 112.5 136.65 112.304 136.898 112.151C136.273 112.882 135.658 113.568 134.92 114.188C134.72 114.202 134.706 114.199 134.539 114.115Z" fill="#F2BA22"/>
<path d="M136.164 111.404L136.501 111.669L136.183 112.049L135.865 112.095L136.164 111.404Z" fill="black"/>
<path d="M91.0295 78.0941C91.8904 79.7066 92.6072 81.1152 93.1498 82.8758L93.6455 84.4289L92.6947 83.7039C91.7854 83.2004 91.0307 82.9058 90.0049 82.734C90.2865 81.1613 90.6232 79.6386 91.0295 78.0941Z" fill="#8EBA7C"/>
<path d="M93.1494 82.8759L93.6451 84.429L92.6943 83.704C92.9752 83.4669 93.0189 83.2149 93.1494 82.8759Z" fill="#8EBA7C"/>
<path d="M74.7568 72.1562C75.6342 72.2582 76.5037 72.3566 77.3873 72.3887C77.0834 74.1309 76.5916 75.8301 76.1264 77.5344L75.7279 79.2219C75.199 76.9117 74.9783 74.5129 74.7568 72.1562Z" fill="#8EBA7C"/>
<path d="M88.6792 102.036C89.0464 104.923 89.8847 107.711 90.9245 110.425C91.3237 111.469 91.8686 112.506 92.1862 113.572C92.2847 113.903 92.3269 114.136 92.1413 114.437C91.7198 114.287 91.4659 113.657 91.2753 113.261C90.3491 111.341 88.4601 105.779 88.2007 103.7C88.3257 103.643 88.4308 103.595 88.5417 103.513C88.6487 103.292 88.6749 103.178 88.6569 102.931C88.6351 102.626 88.6534 102.34 88.6792 102.036Z" fill="#F2BA22"/>
<path d="M109.514 97.8235C109.543 98.2231 109.517 98.8958 109.748 99.2219C109.79 99.5098 109.798 99.6485 109.698 99.9317C109.558 100.079 109.437 100.211 109.262 100.315C109.268 102.398 108.77 109.288 108.088 111.038C107.941 109.608 108.255 108.054 108.375 106.624C108.603 103.906 108.774 101.224 108.594 98.4934C108.698 98.7286 108.656 98.7758 108.905 98.879L109.125 98.6504L109.272 98.6047C109.482 98.3954 109.476 98.1032 109.514 97.8235Z" fill="#F2BA22"/>
<path d="M109.513 97.8235C109.543 98.2231 109.516 98.8958 109.748 99.2219C109.789 99.5098 109.798 99.6485 109.698 99.9317C109.558 100.079 109.437 100.211 109.261 100.315C109.208 99.7606 109.162 99.2059 109.125 98.6504L109.271 98.6047C109.482 98.3954 109.476 98.1032 109.513 97.8235Z" fill="black"/>
<path d="M66.0651 48.6965C66.3713 48.7442 66.6717 48.8895 66.9334 49.054C67.1506 49.1899 67.308 49.3813 67.3588 49.636C67.4877 50.2782 66.9787 50.8059 66.6237 51.2739C66.2229 51.2258 65.7748 50.9817 65.5178 50.6672C65.3186 50.4239 65.2533 50.1055 65.2908 49.7977C65.3518 49.2954 65.6932 48.9969 66.0651 48.6965Z" fill="white"/>
<path d="M132.847 119.977C134.568 119.216 137.007 118.651 138.771 119.278C139.685 119.597 140.428 120.276 140.829 121.157C141.299 122.194 141.232 123.412 140.817 124.455C140.5 125.255 139.662 126.528 138.864 126.922C138.445 127.312 137.907 127.624 137.421 127.923C136.475 128.505 130.538 131.542 129.803 131.365L129.791 131.159C130.06 130.778 134.314 129.071 135.171 128.613C136.361 127.976 137.351 127.2 138.347 126.294L138.505 126.056C139.202 124.97 139.716 123.88 139.396 122.552C139.175 121.639 138.573 120.882 137.755 120.428C136.378 119.664 134.937 119.965 133.533 120.379L132.935 120.561C131.51 121.069 130.069 121.871 128.803 122.704C128.27 123.055 127.772 123.485 127.219 123.801C127.005 123.923 126.874 124.014 126.627 123.948L126.619 123.781C127.221 122.617 131.295 120.635 132.513 120.131L132.847 119.977Z" fill="#F2BA22"/>
<path d="M100.265 102.799L100.317 102.734L100.56 102.792L100.63 102.435L100.763 102.385C100.801 103.627 101.389 109.84 101.136 110.453C100.632 109.793 100.317 103.973 100.265 102.799Z" fill="#F2BA22"/>
<path d="M89.186 110.864L89.4337 110.746C89.8126 112.068 91.1814 114.384 90.6524 115.683L90.5079 115.802C90.2813 115.711 90.2294 115.605 90.1353 115.389C89.7169 114.426 89.4407 112.003 89.186 110.864Z" fill="#8EBA7C"/>
<path d="M123.213 112.546C123.279 112.721 123.282 112.752 123.251 112.936C123.397 112.994 123.541 113.052 123.685 113.113C122.868 114.189 122.052 115.768 121.009 116.597L120.892 116.539C120.86 115.595 122.588 113.331 123.213 112.546Z" fill="#F2BA22"/>
<path d="M131.313 118.997C131.571 119.053 131.819 119.09 132.056 119.21C130.121 120.22 128.396 121.58 126.593 122.802C127.656 121.127 129.681 120.042 131.313 118.997Z" fill="#F2BA22"/>
<path d="M60.3814 67.2246C60.6143 67.6066 60.8564 67.9855 61.0721 68.3773C60.1006 68.7535 59.0459 69.0449 58.1154 69.5039C57.8768 69.3602 57.8986 69.2984 57.8115 69.0285C58.7178 68.5004 59.6658 68.0082 60.3814 67.2246Z" fill="#8EBA7C"/>
<path d="M57.8119 69.0284C57.899 69.2984 57.8772 69.3601 58.1158 69.5038C56.6678 70.562 56.1697 71.7597 55.1564 73.1589C55.0584 73.039 54.9904 73.0159 54.8525 72.9515L55.0592 72.8179C55.6811 71.3816 56.4131 69.8359 57.8119 69.0284Z" fill="#8EBA7C"/>
<path d="M94.0825 82.0511L94.3845 82.3566L94.7208 82.2133C94.931 83.5527 95.4813 85.1414 95.3325 86.4871C94.9829 84.9886 94.5997 83.5015 94.0825 82.0511Z" fill="#8EBA7C"/>
<path d="M131.38 145.203C132.181 144.633 133.176 144.264 134.075 143.877L134.456 144.41C133.417 144.655 132.446 145.043 131.38 145.203Z" fill="#0B8DCB"/>
<path d="M39.2061 139.053C39.4467 138.967 39.6018 138.931 39.858 138.947C40.1615 138.966 40.4545 138.959 40.758 138.945C40.533 138.88 40.3139 138.812 40.0936 138.732L40.2088 138.59C40.6498 138.715 42.7838 139.111 42.9533 139.333C42.31 139.521 39.9174 139.21 39.2061 139.053Z" fill="#8EBA7C"/>
<path d="M59.8579 144.052C59.9419 143.83 59.9829 143.616 60.0302 143.384L60.2228 143.306C60.7087 143.422 61.1384 143.509 61.5657 143.783L61.6497 143.952C61.4247 144.153 61.0935 144.159 60.8067 144.142C60.4899 144.122 60.1731 144.087 59.8579 144.052Z" fill="#F2BA22"/>
<path d="M131.479 144.404C130.944 144.568 130.284 144.887 129.722 144.871C129.501 144.865 129.343 144.864 129.185 144.697C129.498 144.375 130.496 144.159 130.95 143.993C131.131 144.124 131.319 144.247 131.479 144.404Z" fill="#F2BA22"/>
<path d="M59.6893 127.293C60.1025 127.561 60.551 127.802 60.8529 128.199L60.8963 128.412C60.6639 128.511 60.5104 128.477 60.2783 128.391C59.8705 128.24 59.465 127.917 59.1064 127.669C59.3416 127.561 59.4103 127.628 59.6549 127.684L59.7646 127.586L59.6893 127.293Z" fill="#F2BA22"/>
<path d="M111.853 100.895L112.111 100.785C112.225 100.836 112.286 100.856 112.37 100.952C112.182 101.952 111.89 102.795 111.449 103.713C111.545 102.772 111.728 101.833 111.853 100.895Z" fill="#F2BA22"/>
<path d="M94.7439 179.33C95.5217 179.966 96.0037 180.801 96.4943 181.663C95.8353 181.186 95.0291 180.76 94.4346 180.221C94.6416 180.24 94.8166 180.28 95.0139 180.343C95.2115 180.405 95.2357 180.418 95.451 180.385C95.2346 180.135 94.8205 179.76 94.751 179.439C94.7436 179.404 94.7463 179.366 94.7439 179.33Z" fill="#F2BA22"/>
<path d="M94.6079 97.0567L95.17 96.7415C95.4911 97.3317 95.7485 97.9094 95.979 98.5407L95.7142 98.7379C95.4368 98.0879 95.0669 97.584 94.6079 97.0567Z" fill="#F2BA22"/>
<path d="M61.9917 55.3754C62.3319 55.8375 62.3933 56.3746 62.7015 56.8441L62.8241 56.9398C62.9522 57.0379 63.0808 57.1258 63.2163 57.2121C63.2093 57.3133 63.2089 57.4043 63.1765 57.5008C63.0335 57.4832 62.9046 57.5031 62.796 57.4035C62.203 56.8597 62.0358 56.1558 61.9917 55.3754Z" fill="white"/>
<path d="M77.224 182.827L77.1682 183.244L77.3229 183.424L77.5068 183.43C77.726 183.439 77.9361 183.468 78.1529 183.5C77.4729 183.662 76.7963 183.838 76.124 184.03C76.4814 183.62 76.8342 183.207 77.224 182.827Z" fill="#F2BA22"/>
<path d="M95.9787 98.5405C96.2068 99.2343 96.4725 99.8936 96.5104 100.63L96.4494 100.683C96.1334 100.063 95.9549 99.3882 95.7139 98.7378L95.9787 98.5405Z" fill="#F2BA22"/>
<path d="M133.487 119.036C133.997 118.685 134.488 118.402 135.053 118.149L135.34 118.598C134.727 118.778 134.113 118.91 133.487 119.036Z" fill="#0B8DCB"/>
<path d="M62.7017 56.8441C62.7341 56.8062 62.7673 56.7687 62.7989 56.73C62.9157 56.5871 63.0005 56.4468 63.0903 56.2867L63.2548 56.2625C63.3849 56.4039 63.4786 56.6652 63.4794 56.8597C63.4802 57.041 63.4599 56.9566 63.4321 57.1152C63.4212 57.1789 63.4177 57.2433 63.4103 57.3074L63.5454 57.3902L63.1767 57.5007C63.2091 57.4042 63.2095 57.3132 63.2165 57.2121C63.081 57.1257 62.9524 57.0378 62.8243 56.9398L62.7017 56.8441Z" fill="white"/>
<path d="M80.7954 44.1348C81.438 44.1867 82.0868 44.2094 82.7052 44.4051L82.7024 44.4645C82.0274 44.4832 81.3021 44.543 80.6587 44.3027L80.7954 44.1348Z" fill="black"/>
<path d="M76.3486 64.7922C76.7318 64.3555 77.1174 63.9723 77.5639 63.5996L76.9295 65.0398L76.3486 64.7922Z" fill="#F2BA22"/>
<path d="M154.55 123.577C155.053 123.252 155.61 123.01 156.149 122.749L156.532 123.04C155.891 123.272 155.212 123.414 154.55 123.577Z" fill="#8EBA7C"/>
<path d="M70.1627 49.3867C70.2013 49.8875 70.2697 50.3375 70.0967 50.8203L69.9904 50.8992C69.8623 50.6488 69.8228 50.2402 69.8338 49.9602C70.0474 49.8207 70.0861 49.616 70.1627 49.3867Z" fill="white"/>
<path d="M46.3952 101.444C46.8511 101.866 47.2519 102.311 47.655 102.783C47.1112 102.411 46.5905 102.031 46.0854 101.607L46.3952 101.444Z" fill="#8EBA7C"/>
<path d="M160.377 123.702C159.787 123.765 159.195 123.809 158.602 123.834L158.451 123.704L158.355 123.796C158.664 123.574 159.099 123.533 159.469 123.451C159.762 123.663 160.025 123.669 160.377 123.702Z" fill="#8EBA7C"/>
<path d="M89.1858 110.864C89.085 110.373 88.8822 109.845 88.9412 109.344C89.2307 109.678 89.319 110.314 89.4334 110.746L89.1858 110.864Z" fill="black"/>
<path d="M63.1662 111.594C63.3463 111.836 63.5768 112.066 63.5932 112.379C63.3818 112.412 63.385 112.388 63.2201 112.265C63.0666 112.15 62.9439 111.997 62.8193 111.852L63.1662 111.594Z" fill="#F2BA22"/>
<path d="M158.12 103.185L159.547 102.464L159.791 102.778L158.12 103.185Z" fill="#8EBA7C"/>
<path d="M144.824 90.746C145.013 90.2065 145.185 89.6573 145.43 89.1409L145.806 89.0679C145.524 89.6487 145.162 90.196 144.824 90.746Z" fill="#8EBA7C"/>
<path d="M44.8225 102.373C45.1768 102.621 45.5092 102.872 45.8303 103.162C45.349 102.962 44.8623 102.77 44.3857 102.56L44.8225 102.373Z" fill="#8EBA7C"/>
</svg>
