<svg width="200" height="200" viewBox="0 0 200 200" fill="none" xmlns="http://www.w3.org/2000/svg">
<path fill-rule="evenodd" clip-rule="evenodd" d="M122.278 10.7553C122.669 10.7291 123.038 10.7165 123.424 10.7954C125.279 11.1744 126.147 12.3174 127.145 13.77C127.93 12.9875 128.827 12.2336 129.941 11.9946C131.022 11.7628 131.983 12.1518 132.867 12.7543C133.668 13.3004 134.35 14.1004 134.743 14.9877C136.398 18.727 132.758 22.5366 131.65 25.934C130.97 28.0227 130.873 30.3406 131.296 32.4926L131.326 32.6401C132.174 32.835 133.05 32.8926 133.903 33.0795C136.488 33.6458 138.631 34.9898 140.698 36.5854C141.165 36.6086 141.685 36.6025 142.127 36.7651C144.134 37.5029 144.723 39.328 145.884 40.9018C146.159 41.2756 146.635 41.4919 146.982 41.7934C147.764 42.4719 148.504 43.8336 148.926 44.7875C150.342 47.9886 150.085 51.3031 148.841 54.5112C149.924 55.2279 151.069 55.9134 152.099 56.7016C154.61 58.6204 156.376 61.3508 156.777 64.5083C156.933 65.7332 156.908 68.0717 156.091 69.0483C155.964 69.1991 155.953 69.2161 155.752 69.229C155.756 69.1244 155.774 68.9622 155.749 68.8559C155.686 68.5899 155.383 68.2497 155.225 68.0258C154.297 66.7084 153.376 65.9301 152.101 64.9653C149.616 66.5402 147.197 67.9165 144.253 68.4477C143.218 68.6344 142.159 68.6952 141.118 68.851C139.647 69.0713 138.198 69.3881 136.717 69.5424C138.065 73.4791 140.243 77.1892 142.161 80.8715C145.398 87.087 148.215 93.4176 149.804 100.273C153.392 115.749 151.545 133.718 143.037 147.329C138.354 154.819 130.545 160.984 122.22 163.919C120.62 164.483 118.927 164.816 117.277 165.198C116.845 165.297 116.042 165.393 115.792 165.793C115.684 166.652 115.484 176.522 115.553 176.667C115.793 176.817 116.007 176.847 116.282 176.877C117.203 176.982 118.147 176.945 119.073 176.994C121.066 177.099 123.238 177.355 125.175 177.834C126.973 178.28 128.24 178.897 129.229 180.524C128.882 181.254 128.588 181.509 127.912 181.907C128.379 182.234 128.883 182.56 129.233 183.017C129.51 183.378 129.7 183.821 129.629 184.284C129.558 184.736 129.254 185.093 128.889 185.349C127.863 186.07 126.232 186.116 125.03 185.897C125.307 186.362 125.615 186.807 125.668 187.359C125.708 187.783 125.649 188.169 125.356 188.497C125.065 188.823 124.512 188.912 124.099 188.911C120.468 188.9 114.96 186.332 112.443 183.716C112.022 183.28 111.649 182.8 111.329 182.286C111.116 181.937 110.978 181.475 110.688 181.191C109.565 181.287 108.69 183.353 107.47 183.655C107.327 183.618 107.219 183.624 107.122 183.501C106.812 183.112 106.727 182.362 106.735 181.874C106.758 180.482 107.459 178.994 108.501 178.076C108.918 177.708 109.447 177.407 109.822 177.003C110.024 176.786 110.01 176.576 110.004 176.291C109.974 174.944 109.701 173.53 109.545 172.19C109.306 170.148 109.149 168.128 109.056 166.076C103.949 165.535 101.188 165.708 96.1482 163.767C95.1846 163.396 94.1687 163.047 93.2801 162.516C93.8898 163.718 94.4799 165.832 95.5515 166.665C96.3972 167.323 97.3654 167.792 98.199 168.488C100.595 170.489 101.642 173.658 101.9 176.669C102.027 178.141 102.089 180.354 101.038 181.526C100.781 181.812 100.529 181.939 100.143 181.946C99.7629 181.825 99.5167 181.538 99.2371 181.267C99.1254 181.773 99.0062 182.281 98.8406 182.772C98.4793 183.843 97.7867 184.242 96.8328 184.708C95.2296 183.94 94.5929 181.977 93.9715 180.413C93.1078 181.54 91.8558 182.499 90.5027 182.967C90.1813 183.079 89.7509 183.178 89.4451 182.971C89.1118 182.745 89.0469 182.264 89.0613 181.895C89.1091 180.651 89.6473 179.263 89.8523 178.019C90.139 176.276 90 174.417 90.032 172.657C90.05 171.689 90.1734 170.692 90.0769 169.728C89.2911 169.015 87.526 170.601 86.5193 170.479C86.2916 170.451 86.1504 170.355 86.0398 170.158C85.9329 169.966 85.9217 169.62 85.9217 169.406C85.9222 167.11 88.6519 166.637 88.8582 165.606C88.5856 164.794 85.4093 158.246 85.0535 157.84C84.1238 156.781 82.5021 155.813 81.4158 154.815C79.9256 153.445 78.648 151.862 77.2332 150.419C75.7867 151.554 74.4175 152.778 72.9305 153.861C68.5439 157.055 63.5443 159.269 58.325 160.697C49.9395 162.922 39.541 163.019 31.3758 159.862C28.3531 158.693 25.475 156.949 24.1424 153.869C23.4992 152.382 23.5086 150.803 24.1219 149.313C25.3877 146.237 28.9666 144.614 31.8279 143.393C31.7068 143.391 31.5856 143.388 31.4646 143.383C29.9265 143.327 28.3604 143.095 26.8357 142.889C20.4337 142.023 14.4572 140.165 9.95877 135.268C8.53885 133.723 7.54076 131.741 7.64236 129.6C7.72141 127.938 8.38908 126.35 9.6492 125.24C13.1988 122.113 20.6346 121.64 25.1971 121.91C23.7351 121.043 22.1036 120.491 20.5652 119.782C16.8245 118.058 13.1849 115.377 10.8084 111.987C9.26166 109.781 7.90744 106.915 8.41678 104.154C8.67126 102.774 9.3634 101.669 10.534 100.883C14.2533 98.3872 20.8185 99.0921 24.992 99.9428C24.077 98.9557 23.0761 98.0518 22.1668 97.06C19.3533 93.9916 17.1219 90.3407 15.9822 86.3129C15.3629 84.1243 15.0309 81.1782 16.2429 79.1166C16.9528 77.9089 18.2414 77.1659 19.5652 76.8159C23.9562 75.6554 29.1427 77.5426 32.8836 79.8227C34.1254 80.5797 35.2376 81.5507 36.5017 82.267L36.6219 82.3344C33.1004 77.7664 29.9596 69.6454 30.4295 63.8383C30.5716 62.0826 31.0845 60.2255 32.4949 59.0639C33.9288 57.8827 35.6122 57.6909 37.3943 57.853C42.8762 58.3514 48.4455 62.4024 51.8885 66.5278C50.7396 62.6274 50.1181 58.4489 50.7478 54.3989C51.0678 52.3428 51.6508 50.2015 53.4295 48.9243C54.5904 48.0903 55.8776 47.762 57.2967 47.9956C61.4235 48.6752 65.1881 51.9767 67.7888 55.104C68.6068 56.0875 69.3293 57.193 70.0828 58.229C70.1179 54.9294 70.3584 50.9877 72.0564 48.0874C72.8365 46.7546 74.1188 45.5922 75.6453 45.227C77.2644 44.8404 79.114 45.3259 80.5154 46.1665C84.758 48.7106 87.1922 54.3696 88.3484 58.9497C89.0586 58.0567 89.6262 57.0567 90.3465 56.1684C91.8875 54.2686 94.4131 52.4014 96.9246 52.1831C98.4362 52.052 99.9841 52.7095 101.13 53.6665C103.881 55.9649 104.689 60.3428 105.01 63.7143C105.724 63.2858 106.448 62.9069 107.243 62.6459C109.102 62.0333 111.129 62.1838 112.878 63.0649C111.779 59.7721 112.322 55.9534 113.255 52.6762C113.567 51.579 114.001 50.501 114.273 49.3959C114.526 48.3675 114.483 47.2711 114.741 46.2387C115.928 41.4852 118.381 37.1413 122.675 34.5707C120.861 31.4559 118.27 28.6422 114.728 27.5239C113.387 27.1001 111.947 26.8663 110.702 26.184C109.826 25.7041 109.109 24.9608 108.845 23.979C108.578 22.986 108.755 21.8679 109.282 20.9897C110.04 19.7266 111.126 19.1598 112.511 18.8442C112.481 18.7778 112.451 18.7114 112.425 18.644C112.014 17.6158 111.989 16.5755 112.456 15.5512C112.892 14.593 113.724 13.928 114.71 13.5893C116.155 13.0929 117.2 13.4434 118.509 14.0747C118.683 13.6357 118.849 13.1561 119.088 12.7495C119.785 11.5586 121.013 11.0831 122.278 10.7553ZM86.034 155.357C86.0414 156.029 86.1287 156.636 86.2478 157.296L86.5135 156.823C86.401 156.299 86.246 155.847 86.034 155.357ZM64.9207 130.782C65.2359 131.07 65.6095 131.135 66.031 131.098C66.0466 131.096 66.0612 131.089 66.076 131.084L66.0769 130.908C65.6927 130.813 65.3175 130.765 64.9207 130.782ZM88.7078 107.541C88.7 107.836 88.738 108.167 88.5701 108.42L88.4246 108.513C88.5476 109.255 88.6949 109.998 88.7918 110.743C88.8691 111.336 88.8535 112.014 89.0027 112.587C89.055 112.787 89.1053 112.84 89.2508 112.975L89.3592 112.895C89.335 112.778 89.314 112.659 89.2879 112.541C88.9607 111.079 89.1365 108.761 88.7078 107.541ZM95.6609 106.219C95.484 106.957 95.423 107.731 95.3914 108.488C95.3793 108.787 95.3115 109.136 95.4763 109.399L95.614 109.495C95.6483 109.479 95.6855 109.468 95.7166 109.448C96.0606 109.222 95.8809 106.873 95.9578 106.347L95.6609 106.219ZM97.6336 97.8813C97.1477 98.6282 97.1339 107.571 96.6433 108.223C96.3598 106.613 97.4564 100.194 96.865 99.4428C96.6471 100.469 96.7234 101.761 96.6629 102.823C96.5703 104.448 96.3676 106.1 96.3777 107.726C96.3804 108.144 96.3676 108.655 96.5535 109.032L96.6648 108.934C97.3612 106.919 97.6672 100.219 97.6336 97.8813ZM85.4129 100.598C85.7706 101.621 86.2516 102.609 86.6062 103.618L86.8972 103.509C86.4637 102.5 85.9758 101.455 85.7234 100.382L85.4129 100.598ZM83.9226 91.894C84.7788 93.6158 85.2762 95.5933 85.5301 97.4956C85.4976 97.5823 85.4467 97.6639 85.4334 97.7553C85.426 97.8148 86.3396 100.61 86.4441 101.029L86.4724 101.008L86.4285 100.929C86.5593 100.471 85.9128 97.5997 85.8074 96.978C85.5934 95.5034 85.5173 93.7863 84.9119 92.4125C84.6299 92.6727 85.2803 93.7692 85.1287 94.268C84.6361 93.6438 84.7322 92.4237 84.0486 91.9702C84.0077 91.9433 83.9647 91.9197 83.9226 91.894ZM72.4187 99.0864C72.7922 99.5735 73.0785 100.116 73.4637 100.601C73.2465 99.9592 73.0123 99.3473 72.7224 98.7348L72.4187 99.0864ZM96.2801 96.7436C96.3238 96.9982 96.3772 97.2153 96.4666 97.4594C96.6267 97.2723 96.589 96.9604 96.6082 96.7163L96.2801 96.7436ZM114.937 63.2993C114.778 63.7161 114.613 64.1061 114.401 64.4995C116.598 69.1892 115.781 72.1818 115.448 77.0395C117.477 76.497 119.874 76.1103 121.803 77.229C122.238 77.4816 122.897 77.9822 123.134 78.4262C123.309 78.8195 123.48 79.2188 123.673 79.604C123.902 80.3132 124.082 81.0767 124.138 81.8207C124.092 82.9391 124.024 84.0469 123.928 85.1625C123.345 89.4113 122.144 93.0514 119.921 96.7377C123.002 96.2311 125.257 95.8523 128.173 97.2319C128.686 94.0491 128.716 90.5643 128.055 87.4116C127.974 87.0211 127.898 86.5291 127.737 86.1401L127.663 85.9809L127.571 85.6772C127.366 84.9633 127.23 84.2163 127.039 83.5004C126.683 82.1661 126.203 80.7952 125.675 79.5209C125.539 78.7913 125.045 77.9707 124.72 77.3032C123.626 74.6946 122.34 72.0664 120.833 69.6684C120.084 68.4767 119.216 67.3601 118.428 66.1938C118.025 65.5962 117.762 64.8666 117.282 64.3374C116.88 64.4721 116.752 65.37 116.213 65.0913C115.641 64.7959 115.223 63.8516 114.937 63.2993ZM61.4539 86.018C61.6243 86.5733 62.0872 88.622 62.614 88.8657C62.6908 88.9006 62.7564 88.9104 62.8367 88.9272C62.541 87.9926 62.0323 86.8083 61.4539 86.018ZM124.19 42.3334C123.842 42.7221 123.49 43.1073 123.159 43.5112L123.243 43.6684C123.678 43.2423 124.092 42.8672 124.581 42.5043L124.19 42.3334Z" fill="black"/>
<path d="M115.395 49.9762C115.363 46.4684 116.753 42.7293 118.885 39.9652C121.374 36.7387 124.933 34.4521 128.999 33.9696C133.069 33.4865 136.717 34.5459 139.906 37.0812C139.545 37.3423 139.151 37.5968 138.945 38.0065C138.773 38.3475 138.726 38.8377 138.892 39.1902C139.274 40.0008 141.403 39.4914 142.137 39.4801C142.606 39.4723 143.053 39.5535 143.505 39.6644L143.635 39.6973C143.886 39.9148 144.118 40.157 144.355 40.3906L144.353 40.5301C144.044 40.6773 143.695 40.7328 143.399 40.9047C142.476 41.4406 142.123 42.5922 141.879 43.5641C141.106 46.6504 141.978 49.2855 143.572 51.9359C141.937 51.6484 140.454 52.0816 139.023 52.8445C138.467 50.8863 137.785 48.7668 136.851 46.957C135.701 44.7269 133.529 42.6246 131.106 41.8602C128.894 41.1621 126.616 41.4473 124.58 42.5043L124.19 42.3336C123.842 42.7223 123.49 43.107 123.159 43.5109L123.243 43.6687C122.133 45.0453 121.465 46.7254 121.327 48.4883C121.121 50.8394 121.976 53.4508 123.516 55.2441C126.167 58.3312 129.435 58.5328 133.209 58.8016C135.307 64.0293 134.778 64.7766 139.495 68.2391C134.002 68.6074 129.312 68.5934 124.159 66.2277C124.232 66.3199 124.307 66.4105 124.388 66.4957C126.652 68.8594 132.351 69.3519 135.535 69.468C137.931 75.4785 141.431 81.0273 144.105 86.9121C145.98 91.0375 147.589 95.2219 148.679 99.6305C151.609 111.492 151.063 125.61 146.735 137.082C142.713 147.742 136.049 155.636 125.538 160.358C117.156 164.124 106.151 164.879 97.5478 161.607C100.337 161.294 103.031 161.441 105.394 159.705C105.031 159.766 104.667 159.824 104.303 159.878C100.172 160.491 93.2771 161.208 89.7947 158.534C88.7889 157.761 88.242 156.735 88.0939 155.481C87.7662 152.709 89.2486 152.072 90.7018 150.185L90.7666 150.099C88.6119 150.684 88.3373 151.985 87.101 152.443C86.6807 152.599 85.7764 152.529 85.2389 152.654L85.0721 152.694C84.6924 153.093 84.3678 153.505 84.0424 153.948C83.065 153.148 82.0674 152.349 81.1682 151.461C80.2557 150.559 79.4334 149.576 78.4639 148.733C78.751 148.25 79.3311 147.71 79.4541 147.186C79.4936 147.018 79.4936 146.988 79.585 146.825C80.417 146.996 81.2088 147.542 82.015 147.833C84.9697 148.9 88.2955 149.507 91.4287 149.167C99.8826 148.25 109.09 142.479 114.359 135.891C119.257 129.766 122.719 122.148 122.888 114.202C122.931 112.227 122.67 110.287 122.446 108.329C122.884 108.188 123.319 108.009 123.736 107.815C126.187 106.668 127.363 103.846 128.213 101.44C131.885 91.0394 127.308 79.2051 122.184 70.1059C121.531 68.9473 120.667 67.8898 119.928 66.782C118.337 64.3941 117.242 61.9488 116.44 59.2074C115.949 57.5301 115.82 55.9449 115.897 54.2023C115.924 53.5285 115.993 52.8574 116.101 52.1918C116.235 51.3687 116.978 49.0476 116.67 48.4019C116.642 48.4074 116.612 48.409 116.585 48.4187C116.104 48.5898 115.646 49.557 115.395 49.9762Z" fill="#0B8DCB"/>
<path d="M123.159 43.5109C123.031 43.4043 122.973 43.3976 122.935 43.2254C122.747 42.3828 123.627 40.4242 124.138 39.7472C125.037 38.5798 126.364 37.8197 127.826 37.6355C128.748 37.5272 129.97 37.6809 130.693 38.3171C131.023 38.6069 131.261 39.0533 131.261 39.498C131.261 39.6535 131.228 39.8961 131.082 39.9918C130.776 40.1914 130.002 40.1941 129.635 40.2343C127.673 40.4492 125.668 40.9422 124.191 42.3336C123.842 42.7222 123.49 43.107 123.159 43.5109Z" fill="black"/>
<path d="M110.209 107.855C111.745 107.668 113.398 107.854 114.941 107.893C117.056 107.946 119.178 107.911 121.293 107.899C121.897 110.079 122.061 112.474 122 114.734C121.762 123.532 116.823 133.345 110.475 139.313C104.824 144.624 96.5661 148.877 88.6961 148.648C85.7325 148.624 81.7383 147.693 79.5024 145.614C77.3973 143.656 76.6996 140.599 76.5911 137.83C76.5082 135.726 76.8657 133.847 77.3547 131.816C77.6196 130.717 77.8442 129.579 78.2063 128.509C79.3946 124.998 81.625 121.601 84.1188 118.892C85.5793 117.305 87.2047 115.7 88.9282 114.404C93.4789 110.981 99.2262 108.915 104.861 108.207C106.631 107.985 108.428 107.931 110.209 107.855Z" fill="#8EBA7C"/>
<path d="M112.345 126.628L112.472 126.807C112.447 127.306 112.357 127.78 112.252 128.267C111.603 131.293 110.189 134.293 107.5 136.007C105.608 137.229 103.305 137.64 101.107 137.149C99.7902 136.852 98.8531 136.205 98.1418 135.07C97.875 134.483 97.7559 133.899 97.6289 133.27C98.2105 134.075 98.7398 134.752 99.6297 135.247C101.116 136.073 103.239 136.154 104.853 135.702C107.781 134.883 109.752 132.425 110.97 129.746C111.423 128.75 111.748 127.667 112.291 126.718C112.309 126.687 112.327 126.658 112.345 126.628Z" fill="black"/>
<path d="M93.144 123.584C93.2803 123.653 93.2768 123.691 93.3498 123.819C93.0584 126.452 91.7569 129.061 89.8659 130.914C88.1733 132.572 85.9643 133.586 83.5682 133.539C81.6674 133.502 80.0084 132.758 78.7033 131.388C78.5772 131.221 78.3963 131.015 78.3783 130.798C78.3573 130.54 78.4373 130.355 78.576 130.148C78.8014 130.069 78.8576 130.056 79.085 130.186C79.8561 130.626 80.0612 131.133 81.1862 131.599C82.9873 132.344 85.1405 132.172 86.9139 131.421C90.2955 129.989 91.8604 126.802 93.144 123.584Z" fill="black"/>
<path d="M99.5373 111.522C100.395 111.423 103.296 111.928 104.023 112.406C104.412 112.661 104.644 113.053 104.724 113.508C104.921 114.616 104.341 115.852 103.737 116.76C102.431 118.722 100.442 120.422 98.0803 120.891C96.5315 121.199 95.1088 120.867 93.7995 120.007C93.6561 119.891 93.4858 119.766 93.3713 119.622C93.2088 119.416 93.1823 119.241 93.2217 118.994C93.3967 118.908 93.5182 118.877 93.7092 118.932C94.6854 119.213 95.412 119.747 96.4729 119.874C98.2139 120.082 99.8967 119.495 101.249 118.415C102.483 117.429 103.813 115.79 103.95 114.151C104.128 112.013 100.558 112.889 99.6323 111.659C99.5987 111.615 99.569 111.568 99.5373 111.522Z" fill="black"/>
<path d="M114.165 112.605C114.228 112.65 114.271 112.73 114.316 112.794C114.107 113.316 112.824 113.794 112.316 114.041C111.823 116.029 110.575 117.88 108.985 119.165C107.688 120.213 106.087 120.889 104.393 120.677C103.615 120.579 102.753 120.304 102.299 119.608C102.143 119.368 102.112 119.252 102.177 118.979L102.145 119.02C102.377 118.883 102.45 118.895 102.724 118.894C103.073 119.13 103.377 119.302 103.779 119.431C104.739 119.677 105.721 119.557 106.637 119.205C108.869 118.348 110.713 116.43 111.667 114.267C110.882 114.311 109.892 114.357 109.155 114.056C108.841 113.927 108.386 113.652 108.245 113.334C108.67 113.232 109.268 113.415 109.713 113.46C111.356 113.626 112.654 113.206 114.165 112.605Z" fill="black"/>
<path d="M95.1572 113.51C95.2932 113.589 95.3283 113.642 95.4186 113.766C95.4213 114.659 94.6494 115.832 94.1514 116.543C92.6826 118.639 89.9057 121.449 87.2494 121.848C86.0111 122.033 84.9947 121.687 84.0119 120.947C83.7623 120.686 83.574 120.496 83.5303 120.121C83.6947 119.924 83.7041 119.939 83.9607 119.992C84.2889 120.06 84.6424 120.289 84.9678 120.4C86.0279 120.76 87.2018 120.716 88.26 120.374C91.4354 119.35 93.6814 116.34 95.1572 113.51Z" fill="black"/>
<path d="M95.1693 137.66L95.2791 137.778C95.3041 138.222 95.1393 138.645 94.8932 139.01C93.5584 140.99 91.1018 142.31 88.792 142.705C86.6428 143.073 84.5264 142.653 82.7408 141.398C82.4037 141.074 82.0916 140.718 81.7725 140.376C84.6123 141.765 87.4916 142.168 90.5393 141.2C92.4518 140.592 94.2225 139.468 95.1693 137.66Z" fill="black"/>
<path d="M37.4914 123.367C44.0645 123.963 52.0559 125.17 58.2423 127.492C59.9727 128.142 61.638 129 63.3028 129.801C63.2653 130.261 63.2587 130.725 63.2407 131.185C62.5587 131.259 61.8598 131.418 61.2044 131.618C59.3298 132.191 57.4907 133.281 56.5536 135.064C55.729 136.632 55.6423 138.455 56.1567 140.132C54.4466 140.12 52.7169 140.306 51.0071 140.384C48.3344 140.515 45.6583 140.553 42.9829 140.497C37.4815 140.181 27.1078 138.745 23.1122 134.818C22.1501 133.873 21.3192 132.587 21.3352 131.194C21.347 130.168 21.8371 129.123 22.5809 128.428C25.6003 125.604 31.8351 125.413 35.7598 125.616C37.6582 125.714 39.5387 125.981 41.4426 126.01C41.1028 125.682 40.7391 125.361 40.3387 125.108C39.6352 124.664 37.8499 124.041 37.4914 123.367Z" fill="#3B773B"/>
<path d="M32.8219 129.721C33.6556 129.785 34.4047 129.939 35.1139 130.407C35.9025 130.927 36.4791 131.705 36.6451 132.644C36.7888 133.457 36.6172 134.325 36.1098 134.985C35.4927 135.787 34.6091 136.108 33.6447 136.246C32.7523 136.241 31.9313 136.024 31.1746 135.538C30.357 135.013 29.7331 134.243 29.5476 133.274C29.4053 132.532 29.5425 131.776 29.9826 131.155C30.655 130.206 31.7311 129.888 32.8219 129.721Z" fill="black"/>
<path d="M32.1439 130.4C32.6574 130.333 33.1917 130.298 33.6998 130.421C34.4911 130.614 35.2147 131.112 35.617 131.828C35.9342 132.392 36.0277 133.062 35.8186 133.68C35.5167 134.573 34.7836 135.003 33.9888 135.394C33.3456 135.477 32.7693 135.528 32.1489 135.298C31.3594 135.006 30.6883 134.431 30.3603 133.645C30.13 133.094 30.1092 132.468 30.3461 131.915C30.6918 131.108 31.3754 130.722 32.1439 130.4Z" fill="#EA6F1C"/>
<path d="M26.7155 104.238C26.7355 104.234 26.7551 104.227 26.7754 104.225C34.7201 103.271 45.4705 109.867 51.8705 114.025C51.3029 115.181 51.0342 116.288 51.1584 117.575C51.449 120.595 54.3666 123.88 56.5983 125.728C55.0572 125.16 53.5268 124.709 51.9295 124.331C50.6561 123.88 49.1338 123.662 47.8045 123.406C45.4795 122.967 43.1424 122.597 40.7955 122.296C38.8092 122.061 36.7793 121.981 34.8103 121.627C31.7549 121.076 28.0141 119.451 25.494 117.627C23.1772 115.952 20.4613 113.56 20.0415 110.546C19.8558 109.213 20.1809 107.987 20.9946 106.921C22.4306 105.039 24.4752 104.52 26.7155 104.238Z" fill="#3B773B"/>
<path d="M31.5824 109.302C32.4648 109.273 33.3346 109.518 34.0731 110.002C34.8679 110.533 35.4885 111.338 35.6684 112.29C35.8247 113.117 35.6593 114.017 35.1732 114.71C34.6423 115.466 33.9189 115.779 33.0343 115.913C32.0489 115.946 31.1692 115.837 30.308 115.316C29.4779 114.814 28.8932 114.039 28.6994 113.083C28.5327 112.26 28.6498 111.374 29.1345 110.675C29.713 109.841 30.6111 109.459 31.5824 109.302Z" fill="black"/>
<path d="M31.0595 109.98C31.5205 109.932 32.0307 109.9 32.4851 109.999C33.361 110.19 34.1871 110.765 34.633 111.547C34.9558 112.114 35.0924 112.797 34.8818 113.427C34.6259 114.192 33.986 114.642 33.2998 114.995C32.7144 115.142 32.178 115.213 31.5842 115.052C30.7629 114.834 30.0741 114.275 29.6912 113.516C29.3763 112.894 29.2652 112.137 29.4954 111.468C29.763 110.692 30.3513 110.315 31.0595 109.98Z" fill="#EA6F1C"/>
<path d="M32.2851 84.6977C32.8569 84.6032 33.5216 84.6129 34.1002 84.6403C35.6848 84.7149 37.7352 85.2137 39.0573 86.1223C39.934 86.7254 40.6415 87.8032 41.3395 88.6008C43.361 90.911 45.3168 93.2778 47.377 95.5528C49.6391 97.7257 51.1785 101.386 52.6567 102.327C54.4493 104.949 57.3829 107.253 60.1008 108.899C61.0625 109.482 62.1512 109.938 63.0496 110.613C63.9454 111.286 64.6454 112.26 65.4332 113.058C63.6094 112.094 61.6336 111.449 59.5922 111.152C56.9164 110.898 54.7911 111.29 52.6825 113.005C51.793 112.316 50.7743 111.742 49.8184 111.147C47.2305 109.534 44.5118 107.913 41.7157 106.688C39.4883 105.711 36.7238 104.908 34.7476 103.511C31.6172 101.298 27.1607 95.9055 26.545 92.0872C26.2694 90.3778 26.5821 88.8395 27.6092 87.4379C28.8133 85.7946 30.3032 85.018 32.2851 84.6977Z" fill="#3B773B"/>
<path d="M35.5786 90.1567C36.3857 90.0883 37.1727 90.25 37.88 90.6536C38.7686 91.1602 39.4932 92.0407 39.7377 93.0418C39.9577 93.9438 39.7768 94.9516 39.2756 95.7309C38.7393 96.5657 37.9782 96.9578 37.0336 97.1614C36.207 97.1996 35.4878 97.1129 34.7604 96.6891C33.8269 96.145 33.0644 95.1825 32.8297 94.12C32.6303 93.2172 32.7934 92.1985 33.3263 91.4356C33.8738 90.652 34.6659 90.3172 35.5786 90.1567Z" fill="black"/>
<path d="M35.7546 90.7391C36.3053 90.7188 36.7572 90.7708 37.261 91.0075C38.018 91.3637 38.6314 92.0239 38.8994 92.8196C39.1344 93.5172 39.0863 94.3036 38.7253 94.9508C38.3173 95.6821 37.7555 95.959 36.9857 96.2004C36.3405 96.2407 35.7748 96.1508 35.199 95.8391C34.4553 95.4454 33.9054 94.7641 33.6773 93.954C33.4897 93.2649 33.5512 92.4872 33.9301 91.8723C34.3623 91.1708 34.9802 90.904 35.7546 90.7391Z" fill="#EA6F1C"/>
<path d="M63.4335 60.4762C64.957 60.3332 66.4871 60.8578 67.7453 61.7047C70.4062 63.4961 72.721 67.193 73.8742 70.1609C75.4238 74.1496 76.3582 79.6227 77.1937 83.8652C75.7582 84.391 74.7984 85.1476 74.0601 86.4961C71.9898 90.2769 72.8421 94.8055 73.9753 98.7457C73.7699 98.4383 73.5769 98.1219 73.3793 97.8094C72.7949 97.05 72.3519 96.1422 71.821 95.3394C69.9242 92.4695 67.4566 89.7367 63.9671 89.0172C62.0183 83.5172 59.0457 78.2586 57.9488 72.4875C57.4019 69.6117 57.3265 65.6851 59.0886 63.1723C60.1304 61.6867 61.6644 60.7867 63.4335 60.4762Z" fill="#3B773B"/>
<path d="M66.1871 67.3942C66.9648 67.3551 67.6168 67.42 68.323 67.7711C69.2824 68.2418 70.0074 69.0848 70.3293 70.1036C70.6121 71.0282 70.5133 72.0274 70.0543 72.8786C69.5789 73.7461 68.9093 74.1399 68.0039 74.4293C67.3273 74.4836 66.7703 74.4563 66.1293 74.2C65.0648 73.7672 64.2238 72.9176 63.8019 71.8485C63.4695 70.9852 63.4593 70.0258 63.8722 69.1875C64.3625 68.1918 65.1972 67.7571 66.1871 67.3942Z" fill="black"/>
<path d="M66.3323 68.0801C66.9491 68.0531 67.4424 68.0614 68.0088 68.3309C68.7733 68.6942 69.4006 69.3504 69.6538 70.1656C69.8545 70.8121 69.7999 71.5551 69.4678 72.1489C69.0526 72.8918 68.4327 73.1746 67.6479 73.3985C67.1807 73.4031 66.6897 73.3742 66.2526 73.1953C65.4682 72.8742 64.7979 72.211 64.4784 71.425C64.228 70.809 64.2116 70.1176 64.4959 69.5098C64.851 68.7496 65.5655 68.3352 66.3323 68.0801Z" fill="#EA6F1C"/>
<path d="M45.2706 68.1938C46.7866 68.0411 48.1237 68.2067 49.528 68.8203C51.3784 69.6289 53.3706 71.2016 54.5831 72.8075C55.4932 74.0129 56.1343 75.4684 56.7737 76.8309C58.6421 80.8094 60.1503 84.9754 61.7553 89.0668C60.9503 89.2731 60.155 89.4454 59.4409 89.8903C57.5839 91.0465 57.1206 93.5094 56.7069 95.4852C56.7737 100.361 60.631 106.279 61.464 107.918C61.464 107.918 54.6546 105.005 48.1053 94.2055C47.2319 93.234 46.3468 92.2496 45.5983 91.1766C43.1944 87.7309 40.1401 81.5411 39.5112 77.4332C39.1671 75.1848 39.3675 72.8946 40.7589 71.0184C41.8823 69.5032 43.3889 68.4672 45.2706 68.1938Z" fill="#3B773B"/>
<path d="M48.5197 74.1472C49.3439 74.1765 50.0357 74.2703 50.7552 74.7195C51.5599 75.2128 52.1333 76.0089 52.3462 76.9285C52.5529 77.8476 52.381 78.8113 51.8689 79.6019C51.3392 80.425 50.647 80.8546 49.7083 81.0644C48.8599 81.0906 48.1259 80.9796 47.3927 80.521C46.524 79.9773 45.854 79.0605 45.6396 78.0542C45.4509 77.1707 45.6169 76.2117 46.1451 75.4718C46.7259 74.6578 47.5646 74.3101 48.5197 74.1472Z" fill="black"/>
<path d="M48.1836 74.8875C49.5836 74.4422 51.0785 75.223 51.5117 76.6269C51.9453 78.0305 51.1515 79.5184 49.7445 79.9398C48.3539 80.3566 46.8875 79.5742 46.4594 78.1875C46.0308 76.8004 46.8004 75.3277 48.1836 74.8875Z" fill="#EA6F1C"/>
<path d="M56.654 141.557L56.8029 141.52C57.2138 141.741 57.6236 142.449 57.9798 142.801C62.09 146.856 70.4661 146.704 75.9107 146.674C70.3974 152.463 62.9646 155.844 55.1986 157.301C50.3493 157.9 44.3275 158.048 40.1931 155.047C38.9753 154.163 37.7812 152.832 37.5782 151.289C37.4254 150.127 37.8549 149.041 38.542 148.125C41.5193 144.153 47.4865 143.52 52.0224 142.848C51.429 142.516 50.813 142.217 50.2083 141.905C52.3486 141.916 54.5181 141.699 56.654 141.557Z" fill="#3B773B"/>
<path d="M49.6936 147.587C50.669 147.456 51.9217 147.818 52.7155 148.372C53.5565 148.96 54.1749 149.886 54.3213 150.909C54.4448 151.729 54.2323 152.563 53.7323 153.223C53.0432 154.124 52.0917 154.419 51.0194 154.561C50.096 154.573 49.0756 154.297 48.2901 153.822C47.4131 153.292 46.6862 152.425 46.4631 151.409C46.2897 150.621 46.4838 149.804 46.946 149.148C47.596 148.225 48.6092 147.77 49.6936 147.587Z" fill="black"/>
<path d="M49.9178 148.171C50.6783 148.15 51.5072 148.352 52.1463 148.767C52.8627 149.232 53.4529 149.987 53.6123 150.838C53.7291 151.446 53.5951 152.077 53.2408 152.584C52.7127 153.341 51.9338 153.633 51.0631 153.8C50.2232 153.818 49.4314 153.645 48.7111 153.199C47.9959 152.755 47.4303 152.07 47.2662 151.231C47.1287 150.56 47.2842 149.863 47.6928 149.314C48.2408 148.586 49.0537 148.309 49.9178 148.171Z" fill="#EA6F1C"/>
<path d="M45.914 142.439C47.4714 142.307 49.0093 142.491 50.5504 142.715C49.5808 142.863 48.5992 142.875 47.6269 143.036C44.7632 143.509 41.366 144.684 39.1714 146.65C38.0403 147.663 37.0574 149.023 36.9977 150.592C36.9442 151.996 37.6057 153.255 38.5405 154.257C41.0687 156.968 45.3742 157.988 48.9429 158.109C59.5398 158.471 68.8968 153.898 76.5121 146.802C77.3746 146.705 78.2586 146.767 79.1246 146.791C78.1406 148.605 75.1593 150.887 73.4879 152.173C66.2371 157.216 59.5254 159.8 50.7472 160.845C43.7785 161.674 33.4857 160.939 27.8338 156.43C26.4376 155.316 25.0677 153.782 24.8994 151.923C24.7801 150.606 25.2956 149.402 26.1241 148.406C30.3877 143.281 39.7554 143.034 45.914 142.439Z" fill="#8EBA7C"/>
<path d="M80.0911 58.8169C80.406 58.7841 80.7224 58.7732 81.0384 58.7845C82.5029 58.8255 84.0763 59.7618 85.063 60.8048C89.6607 65.6618 89.3169 73.9806 89.1173 80.2142C86.9529 81.3001 85.5169 83.0599 84.8372 85.4071C84.6564 86.0314 84.5911 86.8349 84.2298 87.3728L84.0892 87.3817L83.8622 87.0017C83.6986 86.679 83.3888 86.3587 83.1556 86.0802C82.0411 84.7489 80.2993 83.9091 78.5845 83.7653C77.697 80.1716 76.9947 76.5274 76.0513 72.9438C75.5989 71.2247 74.7103 69.5028 74.4185 67.7657C74.0685 65.6837 75.0579 62.84 76.2689 61.1603C77.2185 59.8427 78.4786 59.0696 80.0911 58.8169Z" fill="#3B773B"/>
<path d="M82.1918 65.5316C82.6731 65.5402 83.1555 65.6136 83.5985 65.8094C84.5336 66.2234 85.236 67.0433 85.5602 68.0066C85.9075 69.039 85.8614 70.3484 85.3415 71.3172C84.9297 72.0847 84.4297 72.4332 83.6106 72.6738C83.1149 72.6808 82.6922 72.6343 82.2325 72.4312C81.2575 72 80.5567 71.1281 80.1957 70.141C79.8465 69.1855 79.7469 68.0633 80.2036 67.1254C80.6165 66.2781 81.3176 65.8117 82.1918 65.5316Z" fill="black"/>
<path d="M82.236 66.2175C82.6317 66.1785 83.0009 66.1914 83.37 66.3515C84.0692 66.6543 84.5782 67.2414 84.8524 67.9441C85.1493 68.7054 85.2063 69.63 84.8571 70.3843C84.5372 71.0753 84.0501 71.3527 83.3595 71.605C83.1911 71.5933 83.0376 71.555 82.8767 71.5066C82.0356 71.2562 81.3337 70.6734 80.9329 69.8929C80.5856 69.2238 80.4602 68.4164 80.7161 67.6941C80.9798 66.9496 81.5388 66.5285 82.236 66.2175Z" fill="#EA6F1C"/>
<path d="M39.751 141.718C39.0352 142.038 37.6315 142 36.8333 142.043C31.4933 142.33 26.0953 142.001 20.9531 140.44C16.8357 139.191 11.8102 136.606 9.72553 132.633C9.02284 131.294 8.75158 129.758 9.23975 128.295C9.77619 126.686 11.0262 125.634 12.4994 124.909C17.5233 122.435 27.457 122.574 32.9514 123.581C34.6767 123.897 36.3106 124.411 37.9631 124.983L37.7486 125.339C33.1823 124.857 26.2919 124.832 22.5606 127.84C21.7125 128.524 20.8958 129.838 20.8264 130.927C20.7393 132.296 21.6333 133.919 22.5346 134.905C25.5112 138.159 31.7964 139.572 36.0623 140.22C36.8253 140.336 39.0299 140.488 39.6131 140.795C40.9928 140.939 42.3745 141.064 43.7577 141.171C42.4768 141.486 41.0678 141.656 39.751 141.718Z" fill="#8EBA7C"/>
<path d="M39.613 140.795C40.9927 140.939 42.3743 141.064 43.7575 141.171C42.4767 141.486 41.0677 141.656 39.7509 141.718L39.7489 141.598C40.4622 141.492 41.1767 141.396 41.8927 141.31L41.9376 141.238C41.1368 141.08 40.3099 141.129 39.5239 140.883L39.613 140.795Z" fill="#8EBA7C"/>
<path d="M96.2458 63.4125C96.586 63.3621 96.9278 63.3863 97.2676 63.4379C98.7165 63.6578 99.7993 64.5996 100.655 65.7254C103.819 69.8863 103.32 76.7949 102.486 81.6879C102.25 83.0746 101.819 84.468 101.638 85.8508C101.634 85.882 101.631 85.9129 101.627 85.9441C100.313 87.0207 99.2016 88.0031 98.4004 89.5234L98.0735 87.9176C97.6833 85.7453 96.3626 83.1113 94.7223 81.6121C93.4001 80.4035 91.9594 79.9234 90.1805 79.9976C90.4461 77.3687 90.3274 74.518 90.2098 71.8793C90.1622 70.8078 89.8797 69.4605 90.0723 68.4121C90.1758 67.8461 90.5481 67.2918 90.8879 66.8351C92.2969 64.9422 93.8837 63.7586 96.2458 63.4125Z" fill="#3B773B"/>
<path d="M98.0211 70.4238C98.3836 70.4547 98.7238 70.4887 99.0508 70.6605C99.9332 71.1242 100.55 72.0449 100.819 72.9863C101.121 74.0453 101.01 75.2816 100.439 76.234C100.007 76.9543 99.4602 77.3379 98.6559 77.543C98.1914 77.5191 97.816 77.3961 97.4121 77.1637C96.5586 76.673 96.0269 75.8434 95.8051 74.8961C95.5535 73.8246 95.6086 72.5727 96.2266 71.6324C96.666 70.9637 97.2445 70.5844 98.0211 70.4238Z" fill="black"/>
<path d="M98.1925 71.0082C98.4394 71.05 98.6976 71.1078 98.9211 71.2258C99.6125 71.5902 100.077 72.2785 100.3 73.0121C100.536 73.7902 100.529 74.7191 100.103 75.4332C99.7754 75.9832 99.3175 76.2586 98.7164 76.43C98.4105 76.3551 98.0949 76.2715 97.8152 76.123C97.141 75.7648 96.6191 74.9957 96.4125 74.2746C96.2129 73.5761 96.264 72.7824 96.6355 72.1484C96.9949 71.5355 97.5179 71.1863 98.1925 71.0082Z" fill="#EA6F1C"/>
<path d="M36.0414 58.9226C37.0749 58.8214 38.2132 59.0355 39.2122 59.291C44.0669 60.5324 49.2309 64.5113 52.2309 68.4695C53.1665 69.7035 53.911 71.1394 54.6962 72.4753C53.3251 71.298 52.3575 69.9292 50.7602 68.9773C48.9176 67.8785 46.627 67.316 44.5149 67.8691C42.4946 68.398 40.9278 69.7706 39.9012 71.5597C38.4094 74.1585 38.7894 76.8078 39.5606 79.5769C40.6837 83.5234 42.6563 87.2214 44.7485 90.7238C43.5329 89.7003 42.5391 88.3199 41.5258 87.1003C37.0391 81.7011 32.9402 75.4984 31.7758 68.4363C31.3808 66.0406 31.1214 62.8046 32.6701 60.7292C33.5116 59.6015 34.6868 59.1007 36.0414 58.9226Z" fill="#8EBA7C"/>
<path d="M56.1863 49.0609C58.7746 49.1625 61.2328 50.5695 63.2496 52.0941C67.6132 55.3922 70.0859 60.0906 72.2379 64.9765C72.6925 66.009 73.4203 67.2851 73.5718 68.4015C73.3836 68.4121 72.9699 67.498 72.8562 67.2847C71.5273 64.7945 69.9023 62.434 67.3988 61.0129C65.8558 60.1371 64.2007 59.7308 62.4547 60.2328C60.5941 60.7676 59.1816 62.1359 58.2582 63.7945C55.8847 69.4918 57.9562 75.1644 59.9543 80.6109C58.5668 78.889 57.7617 76.525 56.7976 74.5422C55.4683 71.8086 53.9695 69.2125 52.9398 66.332C52.4925 65.0808 52.2316 63.723 52.0097 62.4136C51.459 59.1597 51.0074 53.6144 53.08 50.8242C53.8379 49.8035 54.9386 49.2195 56.1863 49.0609Z" fill="#8EBA7C"/>
<path d="M21.3076 77.6715C21.5364 77.641 21.7632 77.6348 21.9935 77.6285C27.9822 77.4629 34.4922 81.4668 38.7427 85.4695C37.5501 84.9883 36.3504 84.4887 35.0731 84.2844C32.9276 83.9414 30.666 84.2508 28.8808 85.548C27.4085 86.618 26.3181 88.1996 26.0487 90.016C25.5873 93.1269 27.4349 96.0215 29.1819 98.4117C30.6565 100.27 32.1308 101.969 33.9176 103.538C31.7904 102.701 29.4969 101.521 27.609 100.25C22.8081 97.0183 17.9894 90.5691 16.8994 84.8535C16.5734 83.1437 16.3973 81.0031 17.4773 79.5078C18.3758 78.2637 19.8807 77.8957 21.3076 77.6715Z" fill="#8EBA7C"/>
<path d="M18.2371 100.238C20.4944 100.024 24.856 100.665 26.9917 101.538C27.8669 101.895 28.702 102.386 29.5529 102.799C30.5025 103.261 31.4872 103.639 32.4774 104.003C31.642 104.015 30.7893 103.88 29.9571 103.804C27.8529 103.61 25.7842 103.662 23.78 104.398C22.1198 105.008 20.6826 106.09 19.9445 107.734C19.3259 109.111 19.3898 110.523 19.9202 111.906C21.5269 116.095 25.8372 118.736 29.7595 120.464L33.0797 121.799C26.7948 121.746 20.2379 119.17 15.4164 115.136C12.6348 112.808 9.85506 109.443 9.55904 105.664C9.46873 104.511 9.73049 103.412 10.5062 102.53C12.3174 100.47 15.7085 100.396 18.2371 100.238Z" fill="#8EBA7C"/>
<path d="M127.643 42.4011C129.833 42.2664 131.829 42.884 133.539 44.2769C136.506 46.6945 137.661 50.6781 138.431 54.2734C138.576 54.9484 138.836 55.641 138.883 56.3312C138.898 56.5535 138.874 56.7215 138.72 56.8894C137.752 57.9437 134.922 57.8949 133.584 57.914C131.11 57.9035 128.459 57.8844 126.267 56.5972C124.245 55.4094 122.94 53.3953 122.359 51.1472C121.858 49.207 122.108 47.223 123.143 45.4996C124.204 43.7347 125.687 42.8851 127.643 42.4011Z" fill="white"/>
<path d="M128.623 45.634C129.436 45.5492 130.29 45.6856 131.013 46.0785C132.026 46.6293 132.786 47.6324 133.107 48.7344C133.488 50.0477 133.267 51.7125 132.572 52.893C131.885 54.0613 130.922 54.6676 129.644 55.0039C128.57 55.0391 127.701 54.8371 126.808 54.2082C125.675 53.4106 125.012 52.3024 124.789 50.9453C124.581 49.677 124.676 48.3102 125.481 47.2539C126.257 46.2348 127.403 45.8227 128.623 45.634Z" fill="black"/>
<path d="M126.293 47.1586C126.407 47.1629 126.483 47.1625 126.59 47.1765C126.958 47.2242 127.31 47.4933 127.512 47.7969C127.749 48.1551 127.8 48.6074 127.695 49.0199C127.563 49.5422 127.244 49.7961 126.791 50.0453C126.634 50.0422 126.472 50.0394 126.316 50.0129C125.975 49.9547 125.634 49.7578 125.444 49.464C125.261 49.1812 125.228 48.848 125.288 48.5222C125.403 47.8879 125.779 47.5062 126.293 47.1586Z" fill="white"/>
<path d="M131.216 47.2406C131.73 47.4113 132.104 47.65 132.421 48.1031C132.625 48.3949 132.736 48.7554 132.647 49.1097C132.544 49.5261 132.255 49.716 131.916 49.9304C131.446 49.8867 131.078 49.7578 130.779 49.3699C130.552 49.0726 130.455 48.6961 130.511 48.3261C130.584 47.839 130.839 47.534 131.216 47.2406Z" fill="white"/>
<path d="M76.2561 46.316C78.3592 46.2347 79.8971 46.7773 81.4643 48.1812C85.7049 51.9796 87.5002 58.416 88.392 63.8394C88.5858 65.0195 88.8213 66.2086 88.8854 67.4039C87.7163 64.107 86.6659 60.8914 83.4467 59.0664C82.3639 58.5664 81.3416 58.2371 80.1256 58.3714C78.5018 58.5507 77.0209 59.4582 76.0264 60.7382C75.2284 61.7648 73.8674 64.7468 74.0616 66.0429C74.0858 66.2062 74.0913 66.291 74.0635 66.4511L73.9256 66.4394C73.4018 65.6117 73.1557 64.4367 72.7643 63.5164C72.2948 62.4121 71.4991 61.2843 71.2362 60.1218C70.5983 57.3035 71.676 50.8082 73.2194 48.4054C73.967 47.2414 74.9174 46.6058 76.2561 46.316Z" fill="#8EBA7C"/>
<path d="M97.3285 53.3613C97.398 53.3582 97.4676 53.3543 97.5367 53.3558C98.891 53.3832 100.014 53.9531 100.931 54.939C104.114 58.3636 104.4 64.2992 104.145 68.7437C104.029 70.7695 103.734 72.7773 103.664 74.8062C103.369 73.9289 103.365 72.9539 103.286 72.0382C103.059 69.441 102.355 67.4988 100.904 65.3332C100.527 64.8539 100.109 64.3953 99.6273 64.0179C98.5254 63.1547 97.1895 62.7644 95.7965 62.9507C93.0242 63.3211 91.3609 65.4797 89.7852 67.5531C89.8027 65.3976 89.4125 63.1 88.8691 61.0175C89.5727 59.4703 90.3758 58.0355 91.459 56.7152C92.9617 54.8832 94.9402 53.5941 97.3285 53.3613Z" fill="#8EBA7C"/>
<path d="M114.38 165.773L114.503 165.791C114.811 166.648 114.265 176.397 114.334 178.234C116.664 177.95 119.372 178.142 121.693 178.453C123.104 178.642 126.679 179.137 127.511 180.23C127.502 180.482 127.501 180.466 127.316 180.639C124.624 181.366 120.243 179.53 117.247 179.4L117.364 179.445C118.757 180.003 120.246 180.316 121.686 180.733C123.018 181.118 127.72 182.411 128.214 183.729C128.267 183.872 128.271 184.014 128.196 184.146C127.991 184.503 127.515 184.626 127.137 184.698C126.244 184.866 125.12 184.84 124.245 184.587C122.386 184.05 117.297 181.22 115.671 180.064C115.234 179.758 114.722 179.292 114.215 179.132L114.105 179.251C114.412 179.811 115.022 180.321 115.507 180.729C117.771 182.632 122.516 184.4 123.954 186.428C124.22 186.801 124.38 187.29 124.549 187.715C121.9 187.722 119.037 186.586 116.75 185.317C113.821 183.694 112.142 181.898 111.228 178.68C110.024 179.627 109.135 180.914 107.889 181.799C108.037 181.029 108.219 180.317 108.667 179.661C109.334 178.685 110.368 178.107 111.507 177.871C111.204 176.43 111.098 174.869 110.946 173.402C110.695 170.944 110.462 168.484 110.252 166.023C111.62 166.029 113.016 165.878 114.38 165.773Z" fill="#F2BA22"/>
<path d="M139.422 53.7387C140.217 53.2391 141.092 52.8844 142.032 52.7922C142.637 52.7328 143.219 52.7922 143.797 52.9762C145.869 53.6344 150.162 56.2551 151.832 57.6379C154.211 59.607 155.519 61.857 155.823 64.9305C155.909 65.8215 155.867 66.707 155.838 67.5996C155.553 67.1301 155.277 66.6633 154.933 66.234C154.29 65.5488 153.675 64.9176 152.872 64.4219C148.367 61.6422 142.241 64.0582 137.675 61.4129C136.587 60.7824 135.682 59.7524 134.79 58.8793C135.375 58.8859 135.965 58.8914 136.547 58.8223C137.572 58.7004 139.097 58.4356 139.735 57.5481C140.398 56.6254 139.577 54.8016 139.422 53.7387Z" fill="#F2BA22"/>
<path d="M154.933 66.2339L155.04 66.1832C155.165 66.2531 155.26 66.2937 155.4 66.3406C155.461 65.7808 155.496 65.3953 155.823 64.9304C155.909 65.8214 155.867 66.707 155.838 67.5996C155.553 67.13 155.277 66.6632 154.933 66.2339Z" fill="#F2BA22"/>
<path d="M115.208 78.707C116.538 77.8582 118.408 77.3231 119.983 77.6492C120.921 77.8434 122.017 78.7356 122.517 79.5441C123.862 81.7227 123.011 86.3531 122.399 88.6613C121.936 90.4098 120.191 95.4313 118.822 96.3461C118.79 96.3672 118.755 96.3813 118.722 96.3984C118.522 96.1871 118.535 95.8688 118.499 95.582L118.432 95.4492C118.443 95.3277 118.464 95.1883 118.46 95.0649C118.451 94.7852 118.415 94.7746 118.222 94.5836C116.833 93.1867 117.346 93.2996 115.35 92.8664C115.324 92.8606 114.979 92.7793 114.971 92.7656C114.812 92.5 115.099 91.0852 114.419 90.1301C114.204 89.8293 113.918 89.6246 113.548 89.5668C112.655 89.4266 111.944 89.9586 111.263 90.4414C111.71 89.666 112.095 88.8918 112.411 88.0527C112.747 87.1598 113.12 85.0793 113.652 84.468C113.694 84.2969 113.641 84.141 113.592 83.9781C114.248 82.2484 114.617 80.45 115.208 78.707Z" fill="#8EBA7C"/>
<path d="M113.652 84.4679C115.024 84.1351 116.471 84.0187 117.729 84.7945C118.595 85.3289 119.063 86.18 119.268 87.1578C119.793 89.6675 119.177 92.2625 118.222 94.5835C116.833 93.1867 117.346 93.2996 115.35 92.8664C115.324 92.8605 114.979 92.7792 114.971 92.7656C114.812 92.4999 115.099 91.0851 114.419 90.13C114.204 89.8292 113.918 89.6246 113.548 89.5667C112.655 89.4265 111.944 89.9585 111.263 90.4414C111.71 89.666 112.095 88.8917 112.411 88.0527C112.747 87.1597 113.12 85.0792 113.652 84.4679Z" fill="#3B773B"/>
<path d="M113.592 83.9782C115.218 83.7083 116.684 83.5602 118.115 84.5926C119.112 85.3126 119.603 86.3934 119.767 87.5852C120.023 89.4415 119.772 91.4462 119.184 93.2161C118.933 93.9719 118.556 94.7868 118.499 95.5821L118.432 95.4493C118.443 95.3278 118.464 95.1883 118.46 95.0649C118.451 94.7852 118.415 94.7747 118.222 94.5837C119.177 92.2626 119.793 89.6676 119.268 87.1579C119.063 86.1801 118.595 85.329 117.729 84.7946C116.471 84.0188 115.024 84.1352 113.652 84.468C113.694 84.2969 113.641 84.1411 113.592 83.9782Z" fill="black"/>
<path d="M86.5128 156.823C87.212 158.616 88.4511 159.802 90.1987 160.568C90.6589 160.765 91.1222 160.953 91.5886 161.134C92.039 161.964 92.3288 162.855 92.7241 163.71C93.2667 164.883 93.9218 166 94.405 167.202C95.1878 167.784 96.0425 168.262 96.8093 168.866C98.9956 170.588 100.267 173.093 100.676 175.815C100.905 177.332 100.912 178.864 100.274 180.286C98.0554 177.763 99.7038 174.416 96.6694 171.642C97.9054 174.791 99.0702 178.839 97.6312 182.133C97.5183 182.391 97.4112 182.579 97.2245 182.789C96.9874 182.875 96.8694 182.886 96.6347 182.771C95.9101 182.416 95.4476 180.824 95.2616 180.089C94.6644 177.73 95.564 170.702 94.4972 169.293L94.2882 169.243C93.7351 169.948 95.4019 177.4 92.2991 180.49C91.8511 180.936 91.3729 181.32 90.7378 181.43L90.5144 181.361C90.2151 180.455 91.0034 179.027 91.1054 178.048C91.2831 176.339 91.1569 174.594 91.1901 172.878C91.2245 171.139 91.4585 169.468 91.7253 167.753C90.1159 167.84 88.6331 168.282 87.0983 168.749C87.8729 167.671 88.9358 166.976 90.2589 166.754C90.6284 166.693 91.0073 166.672 91.3812 166.65C89.564 164.833 86.989 159.779 86.2476 157.296L86.5128 156.823Z" fill="#F2BA22"/>
<path d="M107.702 72.4793C108.621 72.4184 109.458 72.5352 110.266 73.0086C111.456 73.7051 112.065 74.9629 112.398 76.25C112.965 78.4458 112.819 82.1 112.262 84.3204C111.749 86.3704 110.406 89.4751 109.326 91.3208L109.064 89.7543C109.064 89.7348 109.066 89.7153 109.063 89.6961C108.909 88.4649 108.105 87.1954 107.158 86.4133C105.646 85.1649 104.721 85.4043 102.998 85.5938L102.935 85.479C103.856 83.0172 103.959 75.4922 104.92 73.9954C105.457 73.159 106.78 72.7137 107.702 72.4793Z" fill="#3B773B"/>
<path d="M108.174 78.1418C108.528 78.0958 108.9 78.0645 109.249 78.1571C109.972 78.3489 110.556 78.836 110.905 79.4926C111.4 80.4254 111.416 81.5606 111.105 82.5547C110.8 83.527 110.285 84.1547 109.391 84.6278C108.986 84.7301 108.634 84.7715 108.226 84.643C107.548 84.429 107.059 83.9192 106.751 83.2915C106.25 82.2774 106.184 81.1036 106.566 80.0395C106.863 79.2071 107.359 78.509 108.174 78.1418Z" fill="black"/>
<path d="M108.73 78.6321C108.93 78.6442 109.143 78.652 109.333 78.7157C109.855 78.8907 110.296 79.3864 110.502 79.8825C110.828 80.6676 110.795 81.6325 110.457 82.4075C110.132 83.152 109.728 83.4379 108.992 83.7391C108.748 83.7317 108.479 83.7082 108.26 83.5918C107.609 83.2457 107.178 82.5305 107.013 81.8313C106.829 81.0504 106.992 80.1653 107.44 79.4997C107.803 78.9598 108.099 78.7563 108.73 78.6321Z" fill="#EA6F1C"/>
<path d="M80.0653 122.72C78.5946 121.215 77.1775 119.651 75.7427 118.112C73.0485 115.221 70.2435 112.291 68.2958 108.821C67.488 107.381 66.7282 105.398 67.2337 103.741C67.4153 103.146 67.7587 102.377 68.363 102.106C68.9446 101.845 69.7204 101.958 70.2923 102.186C73.7849 103.577 76.3946 109.836 77.8919 113.123C78.1915 114.228 79.1208 115.686 79.6114 116.79C80.011 117.702 80.6923 119.963 81.5161 120.404C81.3485 121.132 80.4958 122.099 80.0653 122.72Z" fill="#8EBA7C"/>
<path d="M81.548 97.364C82.0558 97.3984 82.5546 97.4816 82.9871 97.7644C86.6835 100.181 86.623 110.422 87.4503 114.509C86.5304 115.312 85.5906 116.061 84.7511 116.953L84.0187 117.711C83.4246 116.301 82.9621 114.837 82.4347 113.401C81.1164 109.808 78.5285 103.613 79.6386 99.8808C79.9597 98.8011 80.5406 97.9035 81.548 97.364Z" fill="#8EBA7C"/>
<path d="M56.9244 119.487C56.9564 119.787 57.0513 120.118 57.133 120.409C58.0849 123.814 61.5193 126.402 64.5794 127.817C65.6083 128.293 66.7044 128.61 67.7459 129.058C69.4064 129.774 71.0279 130.581 72.7033 131.265C73.6615 131.657 74.9126 131.803 75.765 132.364C75.9791 132.506 76.0005 132.529 76.0474 132.763L75.9275 132.934C75.822 132.969 75.8107 132.98 75.6818 132.977C75.149 132.961 72.7013 131.968 71.9966 131.714C66.2408 129.647 59.7439 127.576 55.4552 122.987C53.9189 121.343 52.1193 118.992 52.2591 116.599C52.3302 115.379 53.1076 114.21 54.0224 113.436C55.4146 112.257 57.3564 112.003 59.1189 112.137C65.1666 112.597 70.3091 116.939 74.6361 120.787C75.8158 121.836 77.5431 123.28 78.5185 124.484C78.7322 124.748 78.8162 124.895 78.7751 125.233C78.3974 125.339 77.8072 124.758 77.5181 124.511C73.738 121.271 69.4013 116.421 64.6455 114.857C62.9076 114.286 60.6517 114.062 58.9779 114.953C57.824 115.568 57.2865 116.611 56.9419 117.817C56.8919 118.389 56.8697 118.915 56.9244 119.487Z" fill="#F2BA22"/>
<path d="M109.33 63.5153C110.282 63.3535 111.574 63.552 112.385 64.059C113.71 64.8867 114.418 66.4953 114.73 67.9719C115.522 71.7196 114.759 76.5653 113.72 80.2125C113.544 80.8305 113.394 81.7149 113.044 82.2465C112.894 81.17 113.207 79.8754 113.179 78.7535C113.116 77.2969 112.856 75.7399 112.162 74.4403C111.568 73.3282 110.609 72.4809 109.382 72.1407C107.743 71.6867 106.13 72.4098 104.741 73.234C104.949 70.5356 105.262 67.8653 105.236 65.1524C106.596 64.2801 107.697 63.6739 109.33 63.5153Z" fill="#8EBA7C"/>
<path d="M76.4796 130.866C73.4749 129.963 69.2605 128.141 66.7972 126.184C65.5245 125.172 64.2734 123.625 64.1253 121.95C64.0675 121.298 64.1874 120.607 64.6402 120.108C65.0613 119.644 65.6745 119.462 66.2847 119.439C69.3597 119.321 72.8054 121.928 74.9698 123.881C75.9409 124.733 76.9023 125.773 77.9464 126.516C77.6882 127.663 76.8702 129.592 76.4796 130.866Z" fill="#8EBA7C"/>
<path d="M71.7501 116.603C67.2357 113.056 63.4806 109.259 60.4896 104.317C58.7396 101.425 57.4263 97.3425 58.2943 93.9628C58.6361 92.6324 59.3615 91.28 60.5986 90.5945C61.7009 89.9835 63.0583 90.0015 64.2458 90.3332C68.0751 91.4039 70.8501 95.4421 72.7224 98.7347L72.4189 99.0863C70.8173 96.9445 69.0845 94.7644 66.2548 94.3406C65.0286 94.157 63.7384 94.3675 62.7423 95.1417C61.613 96.0195 61.0845 97.4253 60.9458 98.8105C60.7634 100.634 61.2935 102.458 62.056 104.101C62.974 106.587 65.5505 110.306 67.89 111.643C69.0935 112.66 70.1861 114 71.1372 115.257C71.2033 115.783 72.0708 116.166 71.7501 116.603Z" fill="#F2BA22"/>
<path d="M90.5609 112.227C90.3343 108.69 89.9093 105.171 89.7683 101.629C89.6945 99.7661 89.7152 96.6079 91.1144 95.17C91.525 94.7481 92.1234 94.4712 92.7171 94.4739C93.1984 94.4762 93.6003 94.6973 93.921 95.0458C96.2152 97.538 95.3347 104.171 95.2093 107.417C95.2292 107.761 95.25 108.103 95.2925 108.446L95.3906 108.488C95.3785 108.786 95.3113 109.136 95.4761 109.399L95.6132 109.495C95.4125 109.558 95.2046 109.606 95.023 109.714C94.6136 110.165 92.7871 110.875 92.1367 111.231C91.589 111.531 91.0722 111.869 90.5609 112.227Z" fill="#8EBA7C"/>
<path d="M95.2093 107.417C95.2292 107.761 95.2499 108.103 95.2925 108.446L95.3905 108.488C95.3784 108.786 95.3112 109.136 95.4761 109.399L95.6132 109.495C95.4124 109.558 95.2046 109.606 95.0229 109.714C95.0554 108.946 95.1179 108.18 95.2093 107.417Z" fill="black"/>
<path d="M62.3755 103.823C61.6466 101.777 60.9833 99.7383 61.5989 97.559C61.886 96.5415 62.5161 95.6997 63.4614 95.2079C64.588 94.6215 65.8845 94.6067 67.0818 94.9692C70.0997 95.8833 72.5169 99.609 73.9185 102.264L73.24 102.38C72.0013 101.015 70.3669 99.504 68.413 99.4407C67.5739 99.4133 66.7111 99.661 66.0982 100.254C65.2321 101.091 64.9857 102.457 64.9958 103.62C65.0212 106.501 66.6224 109.065 68.2251 111.346C68.1048 111.44 67.9814 111.52 67.8896 111.643C65.5501 110.306 62.9736 106.587 62.0556 104.101L62.3755 103.823Z" fill="#0B8DCB"/>
<path d="M62.3756 103.823C63.0916 105.61 66.0748 110.45 67.8377 111.255C67.9756 111.318 68.0799 111.334 68.2252 111.346C68.1049 111.44 67.9814 111.52 67.8896 111.643C65.5502 110.306 62.9736 106.587 62.0557 104.101L62.3756 103.823Z" fill="black"/>
<path d="M114.041 18.8405C113.612 18.4492 113.4 17.9271 113.369 17.3481C113.331 16.6263 113.646 15.9165 114.143 15.403C114.665 14.8633 115.4 14.5114 116.157 14.502C117.623 14.4838 118.907 15.6297 119.866 16.6168C120.637 17.526 121.443 18.507 121.924 19.6092C124.228 22.1043 125.782 29.4663 125.922 32.881L124.907 33.4209C124.202 32.0764 123.908 30.3986 123.401 28.9583C122.278 25.7676 119.76 22.2688 116.937 20.3733C116.055 19.7809 115.045 19.4358 114.134 18.8966L114.041 18.8405Z" fill="#FA3948"/>
<path d="M114.041 18.8405C113.612 18.4492 113.4 17.9271 113.369 17.3481C113.331 16.6263 113.646 15.9165 114.143 15.403C114.665 14.8633 115.4 14.5114 116.157 14.502C117.623 14.4838 118.907 15.6297 119.866 16.6168C119.935 16.8948 119.985 17.0758 119.9 17.3613C118.95 16.4706 117.599 15.3813 116.219 15.4362C115.658 15.4586 115.142 15.6811 114.765 16.101C114.131 16.8068 114.028 17.5511 114.103 18.4614C114.109 18.5313 114.116 18.6012 114.124 18.671L114.041 18.8405Z" fill="white"/>
<path d="M119.866 16.6168C120.637 17.526 121.443 18.507 121.924 19.6092C121.325 19.5321 120.299 17.8587 119.9 17.3613C119.985 17.0758 119.935 16.8948 119.866 16.6168Z" fill="white"/>
<path d="M120.351 15.652C120.03 15.1938 119.806 14.7094 119.892 14.1362C119.99 13.4777 120.436 12.9491 120.974 12.5865C121.681 12.1095 122.551 11.963 123.384 12.1272C124.442 12.3358 125.289 12.9812 125.872 13.8755C126.808 15.3121 127.309 17.4594 127.375 19.1516C127.52 19.6972 127.462 20.4567 127.507 21.0281C127.804 24.8521 127.544 28.684 127.859 32.4971C127.409 32.5902 126.981 32.6453 126.523 32.6696C125.561 25.0344 125.318 22.0469 120.351 15.652Z" fill="#FA3948"/>
<path d="M120.351 15.652C120.03 15.1938 119.806 14.7094 119.892 14.1362C119.99 13.4777 120.436 12.9491 120.974 12.5865C121.681 12.1095 122.551 11.963 123.384 12.1272C124.442 12.3358 125.289 12.9812 125.872 13.8755C126.808 15.3121 127.309 17.4594 127.375 19.1516C127.365 19.6667 127.365 20.182 127.374 20.6971C126.756 18.8254 126.731 16.8314 125.675 15.1009C125.175 14.2827 124.461 13.5612 123.495 13.3498C122.84 13.2064 121.864 13.2289 121.296 13.632C120.874 13.9311 120.553 14.5161 120.49 15.0224C120.468 15.19 120.45 15.3373 120.4 15.4995L120.351 15.652Z" fill="white"/>
<path d="M71.6572 145.418C68.2591 145.4 63.14 144.643 60.2357 142.915C58.8009 142.061 57.4603 140.759 57.0767 139.081C56.79 137.825 57.063 136.255 57.7716 135.173C58.729 133.712 60.3888 132.832 62.0657 132.491C65.6864 131.757 69.6341 132.776 73.0997 133.795C73.8353 134.012 74.8794 134.197 75.5036 134.648C75.6751 134.772 75.6232 134.704 75.6568 134.921C74.965 135.325 70.3056 133.908 69.197 133.801C66.9939 133.587 64.3849 133.739 62.6228 135.245C61.7314 136.006 61.1693 137.069 61.0837 138.242C61.0005 139.518 61.4286 140.774 62.2732 141.734C63.924 143.63 67.8404 144.542 70.2427 144.663L70.3868 144.67C70.8603 144.723 71.3798 144.713 71.838 144.83L72.547 144.745C72.597 144.757 72.6466 144.77 72.6966 144.782C74.4118 145.183 76.4376 144.7 78.0595 145.358L78.1048 145.477C77.3302 145.804 72.5669 145.57 71.6572 145.418Z" fill="#F2BA22"/>
<path d="M71.8381 144.83L72.5471 144.745C72.5971 144.757 72.6467 144.77 72.6967 144.782C74.4119 145.183 76.4377 144.7 78.0596 145.358L78.1049 145.477C77.3303 145.804 72.567 145.57 71.6572 145.418C72.1229 145.381 72.5928 145.266 73.0576 145.263C73.985 145.259 74.8955 145.448 75.8252 145.348L75.8029 145.285C74.56 145.047 73.1002 145.289 71.9342 144.868C71.9018 144.856 71.8701 144.842 71.8381 144.83Z" fill="#F2BA22"/>
<path d="M110.814 24.8629C110.343 24.3714 110.048 23.9655 109.936 23.2806C109.813 22.5484 110.003 21.7982 110.46 21.2125C110.959 20.5586 111.709 20.1428 112.528 20.0653C114.422 19.8715 116.282 21.1296 117.691 22.2375C118.582 23.1018 119.454 23.9849 120.203 24.9776C120.698 25.653 121.164 26.3437 121.571 27.0763C122.126 28.0765 124.376 32.6479 124.223 33.5153C124.193 33.6897 124.137 33.728 124.032 33.8616C123.81 33.9379 123.759 33.9654 123.532 33.9182C122.884 33.3441 122.412 32.5553 121.903 31.8607C120.455 29.8848 118.82 28.2684 116.639 27.1028C115.823 26.6668 114.93 26.2732 114.034 26.0361C113.358 25.8573 112.38 25.7913 111.784 25.4604C111.402 25.2995 111.123 25.1413 110.814 24.8629Z" fill="#FA3948"/>
<path d="M110.814 24.8629C110.343 24.3714 110.048 23.9655 109.936 23.2806C109.813 22.5484 110.003 21.7982 110.46 21.2125C110.959 20.5586 111.709 20.1428 112.528 20.0653C114.422 19.8715 116.282 21.1296 117.691 22.2375L117.749 22.9666L116.914 22.2989C115.809 21.3618 114.404 20.6563 112.916 20.7732C112.752 20.7861 112.589 20.8071 112.425 20.8281C111.639 21.3944 110.84 22.1655 110.695 23.1718C110.635 23.5909 110.742 23.9237 110.934 24.2901C110.836 24.5073 110.784 24.6236 110.814 24.8629Z" fill="white"/>
<path d="M117.691 22.2375C118.582 23.1018 119.454 23.9849 120.203 24.9776C120.17 24.9924 120.138 25.0132 120.103 25.0219C119.81 25.0946 119.621 24.8385 119.407 24.6691C118.886 24.0739 118.309 23.5249 117.749 22.9667L117.691 22.2375Z" fill="white"/>
<path d="M116.915 22.299L117.749 22.9667C118.309 23.525 118.886 24.074 119.407 24.6691C119.313 24.6488 119.296 24.652 119.206 24.6009C118.817 24.3818 117.009 22.6138 116.915 22.299Z" fill="white"/>
<path d="M110.934 24.29C111.189 24.5584 111.772 25.0313 111.832 25.3893L111.784 25.4603C111.402 25.2994 111.123 25.1412 110.814 24.8628C110.784 24.6235 110.836 24.5072 110.934 24.29Z" fill="#FA3948"/>
<path d="M86.1628 93.5737C85.9495 92.3073 85.5456 91.0323 85.394 89.7671C85.1515 87.7421 85.928 85.0472 87.0944 83.3878C87.8261 82.3468 88.8905 81.4944 90.1632 81.2554C91.3378 81.0382 92.5499 81.3241 93.5038 82.0429C95.9433 83.8452 97.0815 87.846 97.4476 90.7011C97.7507 93.0651 97.7573 95.5046 97.6335 97.8815C97.1476 98.6284 97.1335 107.571 96.6429 108.223C96.3593 106.613 97.4558 100.194 96.8644 99.4429C96.8808 95.5319 97.4538 90.7671 94.9167 87.4452C94.1647 86.4604 93.1386 85.6632 91.8753 85.514C90.8296 85.3905 89.8167 85.7214 89.0097 86.3905C87.4089 87.7179 87.0144 89.6155 86.8022 91.58C86.7952 92.7362 86.844 93.8487 87.0136 94.9956C87.1284 95.771 87.4218 96.7393 87.4011 97.5026L87.2081 97.485L87.1702 97.4343C87.1167 97.6811 87.1358 97.5136 87.1507 97.7636C87.1659 98.0171 87.0933 98.1573 86.9565 98.3628C86.7104 96.7632 86.4753 95.1616 86.1628 93.5737Z" fill="#F2BA22"/>
<path d="M86.1631 93.5738L86.3291 93.4199L86.4451 93.4867C86.5576 94.2641 86.6631 95.0148 86.6889 95.8016L86.783 95.8766C87.1412 95.4348 86.2162 92.7566 86.8025 91.5801C86.7955 92.7363 86.8443 93.8488 87.0139 94.9957C87.1287 95.7711 87.4221 96.7394 87.4014 97.5027L87.2084 97.4852L87.1705 97.4344C87.117 97.6812 87.1361 97.5137 87.151 97.7637C87.1662 98.0172 87.0936 98.1574 86.9568 98.3629C86.7107 96.7633 86.4756 95.1617 86.1631 93.5738Z" fill="#F2BA22"/>
<path d="M128.158 16.8841C128 15.9357 127.87 15.0224 128.48 14.1894C128.884 13.6365 129.497 13.3143 130.171 13.227C131.038 13.1148 131.916 13.4093 132.596 13.9441C133.409 14.5834 133.897 15.5495 133.988 16.5742C134.114 17.985 133.533 19.7294 132.784 20.9162C132.627 21.7 131.823 22.8386 131.471 23.6208C130.072 26.7287 130.014 29.0833 130.075 32.3991L128.613 32.4411C128.239 29.3336 128.645 26.0914 128.619 22.9636C128.603 20.9447 128.251 18.9847 128.162 16.9799L128.158 16.8841Z" fill="#FA3948"/>
<path d="M128.158 16.8841C128 15.9357 127.87 15.0224 128.48 14.1894C128.884 13.6365 129.497 13.3143 130.171 13.227C131.038 13.1148 131.916 13.4093 132.596 13.9441C133.409 14.5834 133.897 15.5495 133.988 16.5742C134.114 17.985 133.533 19.7294 132.784 20.9162C132.643 20.249 132.975 19.4593 133.061 18.7782C132.936 18.1607 133.006 17.422 132.955 16.785C132.925 16.4072 132.798 16.068 132.752 15.6976L132.731 15.5238C132.267 14.9619 131.736 14.5361 130.988 14.4559C130.308 14.3829 129.646 14.6246 129.131 15.0656C128.369 15.7177 128.583 16.1834 128.158 16.8841Z" fill="white"/>
<path d="M133.061 18.7782C132.937 18.1606 133.007 17.422 132.956 16.785C132.926 16.4072 132.799 16.068 132.752 15.6976L132.731 15.5238C133.374 16.4447 133.306 17.3959 133.121 18.4521C133.102 18.561 133.082 18.6697 133.061 18.7782Z" fill="#FA3948"/>
<path d="M88.0463 98.5093C87.6991 96.9995 87.3967 95.5374 87.2854 93.9894C87.1182 91.6695 87.1174 89.0034 88.7725 87.1632C89.4287 86.4335 90.2912 85.9394 91.285 85.8949C92.2967 85.8491 93.2131 86.2714 93.9416 86.955C96.5096 89.364 96.4721 93.4495 96.6073 96.7163L96.2799 96.7433C96.053 95.7355 95.6983 94.7574 95.1631 93.8699C94.651 93.0199 93.8725 92.1882 92.8674 91.9659C92.0659 91.7886 91.2506 92.0288 90.5873 92.489C88.6334 93.8449 88.4346 96.3667 88.0463 98.5093Z" fill="#0B8DCB"/>
<path d="M76.2867 102.059C75.7675 100.646 75.2472 99.2308 74.8175 97.7887C73.8781 94.6355 73.3406 90.2285 74.9999 87.2144C75.5476 86.2199 76.3945 85.3746 77.514 85.0715C78.6222 84.7715 79.7952 85.0246 80.7765 85.5879C83.1945 86.9761 84.2308 89.8715 84.9113 92.4125C84.6292 92.6726 85.28 93.7687 85.1285 94.2676C84.6359 93.6433 84.732 92.4238 84.0484 91.9703C84.0074 91.9433 83.9644 91.9195 83.9222 91.8937C83.0249 90.5367 82.0257 89.3742 80.3554 89.0234C79.5175 88.8472 78.7105 89.007 78.0062 89.4953C76.689 90.409 76.0499 91.9754 75.7995 93.5047C75.5015 95.3261 75.6949 96.957 76.1214 98.7293C76.2703 99.3476 76.4925 100.009 76.5468 100.642C76.5421 100.885 76.5468 101.116 76.5675 101.358C76.5964 101.7 76.5007 101.758 76.307 102.023C76.2988 102.034 76.2937 102.046 76.2867 102.059Z" fill="#F2BA22"/>
<path d="M64.0399 126.966C63.0469 126.528 62.1118 125.969 61.2547 125.303C59.386 123.845 57.5668 121.629 57.3208 119.186C57.211 118.1 57.4583 116.899 58.1934 116.062C58.9442 115.206 60.0915 114.875 61.1942 114.816C64.2817 114.65 67.4008 116.292 69.6524 118.285L69.5723 118.646C67.8071 117.758 65.9594 116.718 63.9227 117.421C63.0782 117.714 62.4301 118.282 62.054 119.095C61.4477 120.405 61.6118 121.834 62.1317 123.135C62.5793 124.257 63.2688 125.255 64.0719 126.152C64.0981 126.446 64.1 126.677 64.0399 126.966Z" fill="#0B8DCB"/>
<path d="M70.1729 144.238C67.687 143.877 64.0288 143.376 62.4214 141.203C61.7503 140.295 61.4014 139.116 61.5819 137.992C61.7639 136.859 62.4526 135.894 63.3807 135.241C65.3858 133.828 68.3417 134.107 70.6131 134.539C71.3745 134.691 72.1319 134.864 72.8835 135.059C70.9272 135.205 68.7803 135.19 67.401 136.839C66.7635 137.601 66.4225 138.631 66.5522 139.623C66.6987 140.742 67.4448 141.664 68.3284 142.316C69.6725 143.31 71.2975 143.779 72.8628 144.3L73.0405 144.339L73.0288 144.459C72.5924 144.594 72.087 144.612 71.6307 144.609C71.946 144.625 72.2612 144.604 72.5471 144.744L71.8381 144.83C71.3799 144.713 70.8604 144.723 70.387 144.669C70.3432 144.448 70.3198 144.41 70.1729 144.238Z" fill="#0B8DCB"/>
<path d="M72.8627 144.3L73.0404 144.339L73.0287 144.459C72.5924 144.594 72.0869 144.612 71.6307 144.609C71.9459 144.625 72.2611 144.604 72.5471 144.745L71.8381 144.83C71.3799 144.713 70.8604 144.723 70.3869 144.67C70.3432 144.448 70.3197 144.411 70.1729 144.238C70.8865 144.276 72.2299 144.571 72.8627 144.3Z" fill="black"/>
<path d="M79.4918 89.3824C80.3371 89.4586 81.084 89.6668 81.7914 90.152C84.2305 91.8258 84.809 95.2606 85.3125 97.9496C84.6723 97.236 84.1645 96.4184 83.4262 95.7906C82.7969 95.2551 82.0164 94.8274 81.1625 94.9278C80.166 95.0446 79.4391 95.7653 78.8317 96.5008C78.0102 97.7684 77.5024 99.4633 77.5375 100.981C77.5473 101.401 77.6738 101.918 77.5684 102.322C77.1274 101.655 76.6301 99.136 76.4711 98.3008C76.0106 95.8817 75.6547 92.9692 77.1789 90.8262C77.7719 89.9926 78.4945 89.5563 79.4918 89.3824Z" fill="#0B8DCB"/>
<path d="M101.106 97.8613C101.36 97.8507 101.63 97.8308 101.876 97.905C102.52 98.0996 102.993 98.6601 103.27 99.2484C104.399 101.65 103.682 105.028 102.774 107.402C101.763 107.662 100.748 107.909 99.7303 108.143C99.0447 108.328 98.3658 108.557 97.6865 108.767C97.8713 106.756 98.2854 102.078 98.8553 100.318C99.2459 99.1093 100.008 98.414 101.106 97.8613Z" fill="#8EBA7C"/>
<path d="M102.458 90.4484C103.013 90.409 103.459 90.4558 103.986 90.6515C104.983 91.0222 105.688 91.7379 106.104 92.7129C107.127 95.109 106.487 99.9265 105.487 102.302C105.351 101.168 105.282 100.025 105.148 98.8882C104.941 98.1476 104.726 97.4589 104.238 96.8437C103.67 96.125 102.821 95.5968 101.896 95.5226C100.674 95.4242 99.6791 96.0976 98.8057 96.8636C98.8389 95.7308 98.8873 94.598 98.951 93.4664C99.9365 92.0465 100.828 91.1156 102.458 90.4484Z" fill="#0B8DCB"/>
<path d="M98.8503 92.7231C98.6901 91.216 98.9847 90.202 99.9464 89.0125C100.944 87.7778 102.331 86.6973 103.966 86.5684C104.933 86.4922 105.852 86.7461 106.585 87.3957C107.982 88.6324 108.224 90.6946 108.292 92.4512C108.383 94.8129 107.903 98.9805 106.939 101.091C106.787 101.189 106.635 101.362 106.535 101.511C106.512 101.546 106.492 101.583 106.471 101.618C106.443 101.426 106.427 101.266 106.346 101.088C106.331 101.053 106.311 101.021 106.294 100.987C106.9 98.2067 107.81 94.5531 106.166 91.952C105.588 91.0375 104.725 90.3676 103.657 90.1391C102.597 89.9121 101.646 90.2629 100.778 90.8641C100.037 91.3774 99.4108 92.0211 98.8503 92.7231Z" fill="#F2BA22"/>
<path d="M135.542 61.2985C136.506 61.7785 137.251 62.6063 138.415 63.0582C142.191 64.525 147.125 63.4239 151.008 64.566C150.353 65.0668 149.593 65.4407 148.873 65.8383C148.39 66.0949 147.897 66.3418 147.395 66.5582C145.363 67.4356 142.657 68.1016 140.531 67.2184C137.979 66.1594 136.545 63.7582 135.542 61.2985Z" fill="#F2BA22"/>
<path d="M118.534 102.139C118.738 101.263 118.873 99.4168 119.304 98.7032C119.443 98.4742 119.715 98.2789 119.941 98.1457C121.665 97.1313 124.8 97.159 126.669 97.7254C127.067 97.8457 127.457 98.0063 127.842 98.159C127.283 100.325 126.583 102.347 125.438 104.286C125.377 104.209 125.331 104.103 125.283 104.017C124.897 103.003 124.294 102.175 123.286 101.701C121.709 100.959 120.057 101.605 118.534 102.139Z" fill="#F2BA22"/>
<path d="M72.3286 136.657C73.3419 136.574 74.4927 136.769 75.4849 136.976C75.5622 139.264 75.8419 141.601 76.8419 143.684C76.0665 143.525 75.3024 143.327 74.5364 143.13C73.6704 142.877 72.7884 142.565 71.988 142.147C70.6942 141.471 69.9192 140.596 69.4868 139.195C69.6036 138.665 69.7364 138.22 70.0688 137.777C70.6396 137.014 71.4302 136.777 72.3286 136.657Z" fill="#8EBA7C"/>
<path d="M108.562 102.309C109.39 100.557 110.857 98.082 112.821 97.4293C113.454 97.2184 114.103 97.2644 114.686 97.5965C115.51 98.0648 115.982 98.9496 116.201 99.8434C116.634 101.608 116.251 104.193 115.537 105.832L115.414 105.893C115.159 105.612 115.165 105.033 115.062 104.664C114.66 103.232 113.612 101.804 112.017 101.689C110.906 101.609 110.061 102.175 109.197 102.78C108.926 102.706 108.756 102.498 108.562 102.309Z" fill="#0B8DCB"/>
<path d="M118.471 102.787C119.117 102.466 119.781 102.189 120.481 102.007C121.946 101.624 123.496 101.847 124.407 103.184C124.617 103.491 124.769 103.972 125.095 104.162L125.283 104.017C125.331 104.103 125.378 104.209 125.439 104.286C125.226 104.639 125.014 104.999 124.757 105.321C122.946 107.582 119.607 106.519 117.152 106.81C117.115 106.814 117.079 106.82 117.043 106.824C117.616 105.509 117.949 104.122 118.471 102.787Z" fill="#0B8DCB"/>
<path d="M108.741 99.7738C109.901 97.5085 111.309 95.2207 113.855 94.3597C114.651 94.0902 115.548 93.9968 116.317 94.4035C117.063 94.7984 117.458 95.5425 117.679 96.3292C118.03 97.5812 118.052 101.248 117.492 102.308C117.14 104.013 116.619 105.913 115.149 106.979C115.93 105.715 116.467 104.407 116.617 102.915C116.691 102.34 116.756 101.755 116.754 101.175C116.747 99.8484 116.385 98.4886 115.392 97.5496C114.89 97.0746 114.267 96.8105 113.572 96.8496C111.736 96.9523 110.382 98.7843 109.281 100.064L108.741 99.7738Z" fill="#F2BA22"/>
<path d="M116.617 102.915C116.736 102.893 116.764 102.837 116.85 102.756L116.865 102.757C116.879 102.993 116.895 102.898 116.818 103.129C116.744 103.35 116.763 103.306 116.843 103.506L116.986 103.563L117.074 103.222C117.156 102.891 117.24 102.67 117.437 102.387C117.455 102.36 117.474 102.334 117.492 102.308C117.14 104.013 116.62 105.913 115.149 106.979C115.931 105.715 116.467 104.407 116.617 102.915Z" fill="#F2BA22"/>
<path d="M144.242 41.5043C144.616 41.5168 144.947 41.5465 145.295 41.6941C146.825 42.3433 147.73 43.9375 148.293 45.4226C149.366 48.2543 149.248 51.2711 148.001 54.0219C147.515 53.6683 146.964 53.4258 146.425 53.1648C147.581 52.1554 148.123 51.025 148.377 49.5238C148.384 49.3594 148.388 49.1945 148.388 49.0301C148.391 47.8281 148.063 46.1543 147.164 45.3121C146.4 44.5953 145.536 44.6101 144.559 44.6426C144.215 44.8672 143.889 45.075 143.658 45.4238C143.118 46.2394 142.882 47.3597 143.105 48.3164C143.189 48.6742 143.316 49.0804 143.174 49.4269C142.942 49.3426 142.868 49.2679 142.759 49.0418C142.128 47.7301 142.35 44.4773 142.876 43.1027C143.17 42.334 143.476 41.8453 144.242 41.5043Z" fill="white"/>
<path d="M71.7018 143.325C70.8311 143.132 69.9998 142.791 69.2448 142.316C68.3076 141.721 67.3858 140.824 67.1709 139.693C67.0131 138.864 67.2639 137.964 67.7674 137.294C68.5545 136.248 69.7553 135.828 71.0061 135.679C70.9522 135.952 70.8807 136.225 70.8897 136.504C70.078 136.941 69.3127 137.485 69.0541 138.423C68.8506 139.161 69.0174 139.932 69.4084 140.578C70.0436 141.628 71.0369 142.176 72.0698 142.748C72.6475 142.997 73.2256 143.238 73.8291 143.419C74.3905 143.587 77.0198 143.96 77.2299 144.442C76.0471 144.666 72.8158 143.915 71.7018 143.325Z" fill="#F2BA22"/>
<path d="M72.0696 142.748C72.6474 142.997 73.2255 143.238 73.829 143.419C74.3903 143.587 77.0196 143.961 77.2298 144.443C76.047 144.666 72.8157 143.915 71.7017 143.325L71.8052 143.241C72.7239 143.294 73.6392 143.809 74.5563 143.982L74.5513 143.911C74.377 143.737 72.4907 143.145 72.0579 142.948L72.0696 142.748Z" fill="#F2BA22"/>
<path d="M65.5363 126.738C64.359 125.972 63.2418 124.513 62.7078 123.216C62.225 122.044 61.9863 120.622 62.5101 119.427C62.8156 118.729 63.3551 118.17 64.0738 117.902C65.5301 117.36 67.132 118.044 68.4433 118.666L67.9336 119.154C66.8855 118.89 65.7019 118.71 64.7183 119.288C64.1711 119.61 63.8543 120.143 63.709 120.75C63.4015 122.031 63.8437 123.364 64.5347 124.444C65.0676 125.276 65.7316 125.928 66.4668 126.58L66.2371 126.879C66.0262 126.863 65.8582 126.805 65.6551 126.757C65.616 126.748 65.5758 126.745 65.5363 126.738Z" fill="#F2BA22"/>
<path d="M88.8518 103.2C88.5088 100.962 88.5342 96.3543 89.6432 94.3281C90.0967 93.5 90.8389 92.7492 91.7745 92.5039C92.433 92.3312 93.1049 92.4402 93.6764 92.8113C94.7182 93.4883 95.3452 94.891 95.6014 96.0746C95.5842 96.3746 95.5854 96.6566 95.6084 96.9562L95.5393 97.0316L95.4901 96.7832L95.3334 96.7262C94.96 95.7422 94.4627 94.7156 93.4612 94.2348C92.8916 93.9613 92.1635 93.9477 91.5772 94.1777C90.7709 94.4941 90.2604 95.2801 89.9499 96.0523C89.2178 97.8699 89.3315 100.063 89.3373 101.991C89.2002 102.406 89.0264 102.8 88.8518 103.2Z" fill="#F2BA22"/>
<path d="M114.776 50.5261C114.88 50.6097 114.912 50.6796 114.976 50.7937C115.031 54.323 114.15 57.8144 114.074 61.3378C114.06 61.9664 114.194 62.7035 113.906 63.2773C113.7 63.3886 113.701 63.3703 113.472 63.3113C113.388 63.1124 113.313 62.9105 113.246 62.7058C112.225 59.5179 113.279 53.5019 114.776 50.5261Z" fill="#FA3948"/>
<path d="M66.6579 107.815C66.0946 106.841 65.7165 105.659 65.5521 104.547C65.3688 103.305 65.5247 101.909 66.3228 100.895C66.7431 100.361 67.338 99.996 68.0189 99.919C69.4618 99.7569 70.856 100.79 71.8985 101.667C71.8544 101.932 71.8204 102.208 71.6802 102.442C70.8954 101.832 69.9595 101.315 68.9298 101.421C68.2614 101.49 67.7114 101.844 67.3188 102.382C66.7005 103.229 66.4685 104.555 66.636 105.588C66.7603 106.354 67.1427 107.076 67.2653 107.817C67.2189 107.869 67.2552 107.833 67.1317 107.894C66.9688 107.459 66.8028 107.12 66.4892 106.774C66.4356 107.006 66.5489 107.18 66.6419 107.387C66.7134 107.547 66.6751 107.644 66.6579 107.815Z" fill="#F2BA22"/>
<path d="M98.5063 99.391C98.7692 98.2386 98.9708 97.2671 100.026 96.5695C100.663 96.1484 101.434 95.9554 102.189 96.1078C103.015 96.2742 103.687 96.8386 104.113 97.5504C105.529 99.9172 104.834 103.529 104.283 106.045C104.106 105.934 103.941 105.78 103.777 105.65C104.225 103.443 104.727 100.468 103.35 98.464C102.974 97.9168 102.412 97.5039 101.744 97.4148C100.961 97.3109 100.217 97.6445 99.6181 98.1269C99.1837 98.4769 98.8399 98.9472 98.5063 99.391Z" fill="#F2BA22"/>
<path d="M78.2678 103.506C78.0662 102.746 78.0201 101.908 78.0162 101.125C78.0072 99.4004 78.4987 97.4781 79.7666 96.2375C80.2479 95.766 80.8455 95.4156 81.5393 95.4535C82.5655 95.509 83.317 96.2172 83.9655 96.9367C83.9311 97.2359 83.8901 97.4539 83.7557 97.725C83.1229 97.232 82.5526 97.0004 81.7905 96.8023C80.7061 97.1836 79.9553 97.7472 79.449 98.8176C78.9588 99.8547 78.8506 101.083 78.8381 102.216C78.7963 102.637 78.7115 102.824 78.4791 103.169C78.4057 103.278 78.3377 103.395 78.2678 103.506Z" fill="#F2BA22"/>
<path d="M111.295 103.814C111.604 103.801 111.872 103.802 112.163 103.919C112.789 104.168 113.315 104.811 113.578 105.417C113.721 105.746 113.791 106.035 113.659 106.383C113.583 106.46 113.523 106.558 113.43 106.614C113.136 106.794 110.906 106.69 110.423 106.706C109.584 106.725 108.754 106.748 107.918 106.842C108.938 105.581 109.778 104.498 111.295 103.814Z" fill="#8EBA7C"/>
<path d="M71.8985 101.667C72.6665 102.374 73.3942 103.168 73.9567 104.052C76.4817 108.018 78.5634 113.03 80.5231 117.333C80.831 118.009 81.6294 119.363 81.7114 120.061C81.7251 120.177 81.7173 120.188 81.6997 120.286L81.5161 120.404C80.6923 119.963 80.011 117.702 79.6114 116.79C79.1208 115.686 78.1915 114.228 77.8919 113.123C77.8966 113.089 77.9227 112.911 77.9227 112.886C77.9196 111.812 74.6321 105.998 73.904 104.965C73.2454 104.031 72.5177 103.218 71.6802 102.442C71.8204 102.208 71.8544 101.932 71.8985 101.667Z" fill="#F2BA22"/>
<path d="M79.6113 116.79L79.7992 116.761C80.4242 117.672 80.9121 119.664 81.6996 120.286L81.516 120.404C80.6922 119.963 80.0109 117.702 79.6113 116.79Z" fill="black"/>
<path d="M112.83 90.0364C112.999 90.0345 113.167 90.0509 113.33 90.0966C113.774 90.22 114.12 90.6278 114.338 91.0149C114.58 91.4466 114.724 91.9848 114.558 92.4692C114.272 93.3028 112.842 93.5005 112.112 93.888L111.995 93.9516C111.726 94.1231 111.531 94.261 111.201 94.2837C111.047 94.2243 110.953 94.2255 110.861 94.0763C110.622 93.6884 110.736 93.1145 110.844 92.6989C111.147 91.5321 111.808 90.6595 112.83 90.0364Z" fill="#EA6F1C"/>
<path d="M78.8384 102.216C79.1603 106.574 81.0087 110.922 82.4509 115.002C82.7364 115.809 83.2028 116.65 83.4177 117.462C83.4978 117.765 83.4626 118.066 83.3798 118.362L83.2489 118.39C82.3478 117.292 79.756 109.418 79.2524 107.668C78.8595 106.297 78.531 104.908 78.2681 103.506C78.338 103.395 78.406 103.279 78.4794 103.169C78.7118 102.824 78.7966 102.638 78.8384 102.216Z" fill="#F2BA22"/>
<path d="M111.307 102.256C111.702 102.237 112.099 102.206 112.484 102.319C113.345 102.573 114.031 103.261 114.408 104.06C114.681 104.637 115.085 105.975 114.774 106.569C114.652 106.801 114.546 106.799 114.316 106.835C114.082 106.588 114.095 106.052 114.023 105.711C113.853 104.907 113.472 104.08 112.743 103.64C112.204 103.314 111.588 103.28 110.991 103.441C110.959 103.45 110.928 103.46 110.896 103.469C108.988 104.393 108.343 106.027 106.853 107.35C107.001 106.836 107.175 106.353 107.418 105.876C108.269 104.205 109.486 102.839 111.307 102.256Z" fill="#F2BA22"/>
<path d="M75.3374 105.189L75.5558 105.093C77.1101 107.218 77.9378 109.656 79.0733 111.995C80.0323 113.97 81.4038 116.454 82.1948 118.439C82.3597 118.853 82.5058 119.327 82.4819 119.775C82.0577 119.518 81.771 118.996 81.5405 118.566C80.6038 116.819 79.9249 114.898 79.0749 113.103C77.8358 110.485 76.4026 107.881 75.3374 105.189Z" fill="#0B8DCB"/>
<path d="M66.6576 107.815C66.6748 107.644 66.7131 107.547 66.6416 107.387C66.5486 107.18 66.4354 107.006 66.4889 106.774C66.8025 107.12 66.9686 107.459 67.1315 107.894C67.2549 107.833 67.2186 107.869 67.265 107.817C67.7514 108.596 68.11 109.47 68.5936 110.26C69.4748 111.7 70.5881 113.054 71.6709 114.348C73.615 116.671 75.7213 118.85 77.8107 121.042C78.3604 121.619 78.9584 122.153 79.4928 122.742C79.6529 122.918 79.7674 123.043 79.8416 123.273C79.7611 123.258 79.7318 123.256 79.6494 123.215C78.8959 122.839 77.8389 121.511 77.2193 120.873C74.6334 118.208 67.8166 111.064 66.6576 107.815Z" fill="#F2BA22"/>
<path d="M68.4434 118.667C69.5492 119.196 70.6437 119.766 71.6645 120.447C72.609 121.078 77.9734 125.276 78.2355 126.042C78.2691 126.14 78.243 126.152 78.2109 126.263C78.1234 126.341 78.0121 126.419 77.9465 126.516C76.9023 125.774 75.941 124.733 74.9699 123.881L75.1742 123.702C73.132 121.699 70.6605 120.041 67.9336 119.154L68.4434 118.667Z" fill="#F2BA22"/>
<path d="M75.174 123.702C75.792 124.232 77.5885 126.162 78.2107 126.263C78.1232 126.341 78.0119 126.419 77.9463 126.516C76.9021 125.773 75.9408 124.733 74.9697 123.881L75.174 123.702Z" fill="black"/>
<path d="M86.9565 98.363C87.0933 98.1575 87.1659 98.0173 87.1507 97.7637C87.1358 97.5137 87.1167 97.6813 87.1702 97.4344L87.2081 97.4852L87.4011 97.5028C87.8581 99.4716 88.0405 101.581 88.2589 103.589C88.4022 104.909 88.5933 106.217 88.7073 107.541C88.6995 107.836 88.7374 108.166 88.5694 108.42L88.4237 108.513C88.3437 107.465 88.1179 106.413 87.9679 105.372L86.9565 98.363Z" fill="#F2BA22"/>
<path d="M66.4666 126.58C67.8963 127.671 69.4615 128.558 71.0908 129.316C72.342 129.899 75.4432 130.813 76.2674 131.592C74.9021 131.885 67.7783 128.241 66.3654 127.323C66.0869 127.143 65.7893 126.952 65.5361 126.738C65.5756 126.745 65.6158 126.748 65.6549 126.757C65.858 126.805 66.026 126.863 66.2369 126.879L66.4666 126.58Z" fill="#F2BA22"/>
<path d="M86.6064 103.618L86.8967 103.509C87.2572 105.032 88.3525 112.881 88.0943 114.087L87.9893 114.05C87.2889 112.51 86.7807 105.682 86.6064 103.618Z" fill="#F2BA22"/>
<path d="M96.8643 99.4429C97.4557 100.194 96.3593 106.613 96.6428 108.223C97.1335 107.571 97.1475 98.6285 97.6335 97.8816C97.6671 100.219 97.3604 106.919 96.6639 108.934L96.5526 109.032C96.3667 108.655 96.3796 108.143 96.3768 107.726C96.3667 106.1 96.5698 104.448 96.6624 102.823C96.7229 101.761 96.6464 100.469 96.8643 99.4429Z" fill="#F2BA22"/>
<path d="M115.063 58.9359L115.266 59.0902C115.702 60.375 116.778 62.6566 116.41 63.9398C116.047 63.8937 115.787 63.6742 115.56 63.3961C114.7 62.3371 114.955 60.2047 115.063 58.9359Z" fill="#FA3948"/>
<path d="M88.8522 103.2C89.0268 102.8 89.2006 102.406 89.3377 101.991C89.3619 103.37 90.1811 112.092 89.983 112.548C89.9385 112.501 89.8818 112.465 89.8498 112.41C89.726 112.197 88.8412 103.946 88.8522 103.2Z" fill="#F2BA22"/>
<path d="M95.6015 96.0746C96.344 98.1875 96.4073 104.175 95.9569 106.347L95.6608 106.219C95.9542 103.259 95.9218 99.6406 95.3335 96.7261L95.4901 96.7832L95.5394 97.0316L95.6085 96.9562C95.5854 96.6566 95.5843 96.3746 95.6015 96.0746Z" fill="#F2BA22"/>
<path d="M146.124 45.6852C146.491 45.6641 146.728 45.7 147.005 45.9512C147.336 46.2516 147.509 46.6766 147.522 47.1191C147.535 47.5742 147.435 47.8063 147.118 48.1254C146.675 48.1551 146.335 48.1461 145.988 47.8289C145.712 47.5762 145.57 47.2324 145.576 46.8606C145.586 46.3301 145.753 46.05 146.124 45.6852Z" fill="white"/>
<path d="M83.9224 91.8938C83.9646 91.9196 84.0075 91.9434 84.0485 91.9704C84.7321 92.4239 84.636 93.6434 85.1286 94.2676C85.2802 93.7688 84.6294 92.6727 84.9114 92.4125C85.5169 93.7864 85.5935 95.5036 85.8075 96.9782C85.7755 97.2001 85.7419 97.4196 85.6985 97.6399C85.5427 97.5329 85.5868 97.5926 85.5294 97.4954C85.2755 95.593 84.7786 93.6157 83.9224 91.8938Z" fill="#F2BA22"/>
<path d="M109.926 93.2386L110.01 93.3246C110.131 93.9297 110.214 94.5758 110.54 95.1086C110.221 95.5515 109.883 95.9312 109.503 96.3203C109.448 96.3672 109.373 96.3832 109.307 96.4117C109.084 95.8761 109.78 93.9113 109.926 93.2386Z" fill="#3B773B"/>
<path d="M71.0058 135.679C71.9961 135.591 73.0094 135.564 73.9961 135.718C73.8765 135.888 73.7652 136.019 73.7152 136.224C72.725 136.214 71.8441 136.18 70.8894 136.504C70.8805 136.225 70.9519 135.952 71.0058 135.679Z" fill="#F2BA22"/>
<path d="M83.7559 97.725C83.8902 97.454 83.9313 97.236 83.9656 96.9368C84.8438 98.1231 85.0969 99.1067 85.7227 100.382L85.4125 100.598C85.1121 99.5059 84.5074 98.5582 83.7559 97.725Z" fill="#F2BA22"/>
<path d="M88.7074 107.541C89.1363 108.761 88.9598 111.079 89.2871 112.542C89.3133 112.659 89.3344 112.778 89.3586 112.895L89.2504 112.975C89.1047 112.841 89.0543 112.787 89.002 112.587C88.8527 112.014 88.8687 111.336 88.7914 110.743C88.6945 109.998 88.5469 109.255 88.4238 108.513L88.5695 108.42C88.7375 108.166 88.6996 107.836 88.7074 107.541Z" fill="#F2BA22"/>
<path d="M108.562 102.309C108.757 102.498 108.927 102.706 109.197 102.78C108.322 103.549 107.644 104.492 106.988 105.446C107.233 104.598 107.544 103.667 108.103 102.971C108.275 102.757 108.418 102.543 108.562 102.309Z" fill="#0B8DCB"/>
<path d="M106.294 100.987C106.311 101.021 106.331 101.053 106.346 101.088C106.427 101.266 106.443 101.426 106.471 101.618C106.492 101.583 106.512 101.546 106.535 101.511C106.635 101.362 106.787 101.189 106.939 101.091C106.666 102.311 106.008 103.622 105.439 104.731C105.55 103.464 105.958 102.209 106.294 100.987Z" fill="#F2BA22"/>
<path d="M73.2402 102.38L73.9187 102.264C74.4637 103.125 75.232 104.139 75.5559 105.093L75.3375 105.189C74.7086 104.204 73.9629 103.296 73.2402 102.38Z" fill="#0B8DCB"/>
<path d="M95.6608 106.219L95.9569 106.347C95.8799 106.873 96.0604 109.224 95.7159 109.448C95.6846 109.468 95.6475 109.479 95.6131 109.495L95.476 109.398C95.3112 109.136 95.3784 108.786 95.3905 108.487C95.4221 107.73 95.4838 106.957 95.6608 106.219Z" fill="#F2BA22"/>
<path d="M85.7228 100.382C85.9751 101.455 86.463 102.5 86.8966 103.509L86.6063 103.618C86.2517 102.609 85.7704 101.621 85.4126 100.598L85.7228 100.382Z" fill="#F2BA22"/>
<path d="M85.8073 96.978C85.9128 97.5999 86.5589 100.472 86.4276 100.929L86.4721 101.008L86.4436 101.029C86.3393 100.611 85.4241 97.8108 85.4327 97.755C85.446 97.6636 85.4967 97.5819 85.5292 97.4952C85.5866 97.5925 85.5424 97.5327 85.6983 97.6397C85.7417 97.4194 85.7753 97.1999 85.8073 96.978Z" fill="#F2BA22"/>
<path d="M108.741 99.7738L109.281 100.064C108.925 100.548 108.345 102.227 107.955 102.443C107.962 101.53 108.414 100.616 108.741 99.7738Z" fill="#F2BA22"/>
<path d="M76.5468 100.642L77.2327 103.119L76.8007 103.451L76.2866 102.059C76.2937 102.047 76.2987 102.034 76.3069 102.023C76.5007 101.758 76.5964 101.7 76.5675 101.358C76.5468 101.116 76.5421 100.885 76.5468 100.642Z" fill="#F2BA22"/>
<path d="M64.0721 126.152C64.8482 126.936 65.7861 127.5 66.6217 128.214C65.7514 127.82 64.8686 127.444 64.04 126.966C64.1002 126.677 64.0982 126.446 64.0721 126.152Z" fill="#0B8DCB"/>
<path d="M73.9962 135.718C74.6009 135.778 75.0794 135.829 75.6122 136.152L75.6071 136.304C74.9646 136.534 74.3606 136.355 73.7153 136.224C73.7653 136.019 73.8767 135.888 73.9962 135.718Z" fill="#F2BA22"/>
<path d="M71.1372 115.257C71.9806 116.096 72.8864 117.038 73.5298 118.042C72.9638 117.615 72.1966 117.144 71.7501 116.604C72.0708 116.166 71.2032 115.783 71.1372 115.257Z" fill="#F2BA22"/>
<path d="M77.2328 103.119C77.5055 103.952 77.7602 104.792 77.9965 105.637C77.4117 105.042 77.1133 104.209 76.8008 103.451L77.2328 103.119Z" fill="#F2BA22"/>
<path d="M103.777 105.65C103.941 105.78 104.106 105.934 104.282 106.045C104.19 106.58 104.055 106.957 103.739 107.404L103.53 107.396C103.351 106.87 103.636 106.169 103.777 105.65Z" fill="#F2BA22"/>
<path d="M61.4531 86.0176C62.0316 86.8078 62.5406 87.9922 62.8363 88.927C62.7559 88.9102 62.6902 88.9004 62.6133 88.8652C62.0863 88.6215 61.6234 86.5723 61.4531 86.0176Z" fill="#3B773B"/>
<path d="M72.7225 98.7347C73.0123 99.3472 73.2463 99.959 73.4635 100.601C73.0783 100.116 72.7924 99.5734 72.4189 99.0863L72.7225 98.7347Z" fill="#F2BA22"/>
<path d="M123.159 43.511C123.49 43.1071 123.842 42.7223 124.19 42.3336L124.58 42.5043C124.091 42.8672 123.678 43.2426 123.243 43.6688L123.159 43.511Z" fill="#0B8DCB"/>
<path d="M86.0342 155.357C86.2463 155.848 86.4006 156.3 86.5131 156.823L86.2479 157.296C86.1287 156.636 86.0416 156.029 86.0342 155.357Z" fill="#F2BA22"/>
<path d="M69.6523 118.285C70.1633 118.63 70.6 119.006 71.05 119.426C70.5547 119.174 70.0461 118.936 69.5723 118.647L69.6523 118.285Z" fill="#0B8DCB"/>
<path d="M37.963 124.983C38.4324 125.164 38.9059 125.332 39.3502 125.568C38.8147 125.505 38.2755 125.456 37.7485 125.339L37.963 124.983Z" fill="#8EBA7C"/>
<path d="M64.9204 130.782C65.3173 130.766 65.6923 130.812 66.0767 130.907L66.0751 131.084C66.0603 131.089 66.0458 131.096 66.0302 131.098C65.6087 131.135 65.2356 131.07 64.9204 130.782Z" fill="#3B773B"/>
<path d="M96.6076 96.7164C96.5885 96.9606 96.6268 97.2723 96.4666 97.4594C96.3771 97.2153 96.324 96.9981 96.2803 96.7434L96.6076 96.7164Z" fill="#0B8DCB"/>
</svg>
