<svg width="200" height="200" viewBox="0 0 200 200" fill="none" xmlns="http://www.w3.org/2000/svg">
<path fill-rule="evenodd" clip-rule="evenodd" d="M112.338 11.6917C113.487 11.0532 114.841 10.8913 116.109 11.2406C117.139 11.519 117.823 12.1019 118.471 12.9212C118.57 13.0456 118.759 13.3644 118.876 13.4456C119.022 13.5463 119.161 13.4435 119.288 13.3704C120.648 12.5883 121.254 11.3907 123.264 11.8529C124.623 12.1656 125.698 12.9453 126.404 14.14C127.259 15.5882 127.339 17.1814 126.918 18.7796C126.568 20.1124 125.959 21.3579 125.4 22.6116C123.965 25.8255 123.372 28.8293 124.107 32.3314C126.623 32.7868 128.853 33.2636 131.145 34.4564C131.951 34.8755 132.676 35.5117 133.503 35.8695C134.383 36.2495 135.33 36.1029 136.146 36.7181C137.481 37.7242 138.102 39.1944 139.156 40.4173C139.415 40.7176 139.824 40.882 140.126 41.137C140.442 41.4042 140.693 41.7928 140.93 42.1302C142.758 44.7364 143.572 47.8477 142.995 51.0042C142.833 51.8854 142.458 52.8061 142.426 53.6927C143.175 54.7347 144.529 55.2215 145.547 55.9613C148.859 58.3679 151.161 62.355 150.496 66.5345C150.437 66.9016 150.336 67.2396 150.222 67.5931L150.036 68.179C148.644 66.6792 147.448 64.8882 145.483 64.1195C141.294 67.638 137.921 67.6919 132.895 68.762C132.212 68.9073 131.507 68.9998 130.837 69.1907C133.316 75.8618 136.44 82.2508 138.673 89.0257C143.695 104.262 146.764 127.77 139.899 142.738C136.042 151.145 130.478 157.221 122.394 161.777C121.369 162.356 120.314 162.881 119.235 163.351C118.239 163.783 117.172 164.139 116.253 164.721C116.708 166.248 116.654 168.057 116.553 169.636C120.267 169.44 126.788 169.773 129.601 172.366C130.128 172.851 130.77 173.712 130.801 174.461C130.813 174.733 130.746 174.912 130.548 175.1C130.233 175.399 129.639 175.414 129.23 175.43C129.163 175.695 129.402 176.015 129.534 176.253C129.853 176.835 130.269 178.418 130.06 179.056C129.979 179.305 129.797 179.499 129.559 179.604C128.787 179.944 127.66 179.705 126.852 179.617C126.934 180.246 126.982 181.423 126.572 181.949C126.453 182.1 126.362 182.122 126.17 182.158C125.659 182.252 124.766 181.912 124.262 181.776C121.392 181.003 119.525 180.256 116.948 178.761C115.917 178.163 114.885 177.545 113.987 176.755C113.195 176.058 112.668 175.104 112.254 174.142C111.872 174.345 111.458 174.544 111.117 174.812C110.41 175.366 109.652 176.617 108.66 176.387C108.183 175.992 108.069 175.394 108.026 174.797C107.944 173.678 108.327 172.573 109.084 171.745C109.587 171.203 111.086 170.476 111.334 169.973C111.275 168.934 110.874 167.683 110.513 166.704C110.318 166.533 110.122 166.371 109.949 166.176C107.084 166.79 102.589 166.965 99.6899 166.599C98.349 166.429 96.94 165.973 95.601 165.926C94.3152 165.881 92.9856 166.124 91.7065 166.259C91.6502 167.973 91.5319 169.69 91.56 171.406C91.5846 172.919 91.7463 174.422 91.8041 175.933C95.397 176.736 100.179 178.237 102.265 181.553C102.687 182.223 103.16 183.279 103.023 184.083C102.999 184.223 102.869 184.344 102.753 184.42C102.315 184.711 101.688 184.74 101.182 184.697C101.139 184.906 101.176 185.006 101.297 185.178C101.7 185.749 102.171 185.946 102.108 186.758C102.086 187.034 101.965 187.322 101.868 187.578C100.876 188.213 100.057 188.325 98.8998 188.068C98.0088 187.87 97.1243 187.556 96.2524 187.285C96.4273 188.03 96.6502 188.747 96.228 189.456C95.9398 189.939 95.3995 190.295 94.9574 190.631C92.1348 189.703 88.6889 186.084 87.3842 183.462C86.8492 182.387 86.5968 181.208 86.1977 180.083C84.9397 180.849 83.4978 181.935 82.0668 182.278C81.9262 181.892 81.7781 181.507 81.6547 181.116C81.6698 181.086 81.6849 181.057 81.6996 181.028C82.5796 179.267 82.5894 178.028 84.4653 176.849C85.1023 176.449 85.8474 176.116 86.436 175.656C86.2516 173.547 85.9813 171.387 85.934 169.271C85.9044 167.936 86.1392 164.112 85.9311 163.243C85.6286 161.981 82.027 159.186 80.9067 158.112C80.202 157.436 79.5359 156.697 78.8949 155.96C77.345 154.179 76.2296 152.133 74.7563 150.313C73.7884 151.511 72.6734 152.591 71.5512 153.643C64.5083 160.248 55.5308 163.439 46.0707 164.441C39.9923 165.084 28.9554 164.22 24.0297 160.21C22.5823 159.032 21.2527 157.22 21.0942 155.306C20.9504 153.568 21.8002 151.722 22.9311 150.44C23.875 149.37 25.014 148.577 26.1918 147.821L27.3774 147.067C28.3009 146.765 29.2079 146.243 30.0815 145.817C29.3767 145.862 27.9752 145.895 27.9584 145.896C27.9584 145.896 24.7129 145.778 23.0932 145.627C17.0619 145.064 10.6792 143.603 6.21233 139.215C4.55965 137.592 3.07644 135.611 3.0512 133.194C3.0329 131.432 3.62071 129.59 4.87151 128.318C8.29325 124.837 16.2374 123.869 20.9594 123.649C21.4093 123.628 22.7096 123.709 22.8676 123.183C22.2588 122.37 18.17 121.11 16.9291 120.493C14.1697 119.123 11.312 117.251 9.09514 115.106C8.44451 114.476 7.89695 113.722 7.35881 112.995C5.4912 110.473 3.79941 107.45 4.28264 104.189C4.4941 102.762 5.148 101.519 6.31877 100.648C8.86965 98.7508 14.7213 98.4781 17.8246 98.9847C18.4977 99.0949 19.7953 99.5552 20.4184 99.3431C20.3512 98.985 19.6763 98.4882 19.4115 98.2308C18.2167 97.0679 17.051 95.8692 16.0239 94.554C13.235 90.9822 10.4378 85.3749 11.1313 80.7464C11.2617 79.8761 11.4717 78.9854 11.9711 78.2464C12.8518 76.9437 14.438 76.4124 15.9194 76.1624C17.2038 75.9458 18.4606 76.0226 19.7465 76.1917C24.0861 76.7632 25.9301 78.1385 29.5951 80.056C29.8293 80.1787 30.1699 80.5401 30.4115 80.514C30.3007 79.8637 28.4788 76.7927 28.0434 75.9564C25.9951 72.022 22.8679 63.9654 25.7455 59.9564C26.5538 58.8303 27.8431 58.1599 29.1987 57.97C33.2595 57.4025 38.6422 60.0519 41.7953 62.4564C42.6498 63.1078 43.5385 63.7503 44.3442 64.4603C45.2854 65.2891 46.1345 66.2362 47.0571 67.0892C45.7641 62.6477 44.3192 55.1745 46.5551 50.9593C47.2126 49.7204 48.4693 48.8819 49.8012 48.514C52.0986 47.88 54.5041 48.9045 56.4653 50.0462C59.6272 51.8869 63.9939 56.1617 65.7201 59.4193C65.5858 55.7552 65.8027 49.9947 68.3569 47.1644C69.3967 46.0122 71.0017 45.2861 72.5551 45.2474C74.6522 45.1956 76.6663 46.3811 78.1147 47.8118C81.0543 50.7165 82.8725 55.1241 83.9936 59.0404C84.6895 58.026 85.2193 56.9088 85.9086 55.8929C87.3586 53.7563 89.7333 51.8566 92.3168 51.3714C93.9853 51.0583 95.5311 51.334 96.9301 52.3118C99.7951 54.3153 100.788 58.1519 101.324 61.4056C101.371 61.6812 101.4 61.9601 101.412 62.2396C103.002 61.4495 104.451 60.9358 106.219 60.7698C105.668 58.4543 106.087 55.4434 106.703 53.1673C106.979 52.1444 107.382 51.1171 107.551 50.0716C107.854 48.201 107.801 46.4769 108.39 44.6282C108.975 42.7924 109.857 41.0989 110.868 39.4642C111.946 37.7199 113.792 35.6986 115.543 34.6077C113.998 32.5349 112.447 30.6946 110.144 29.4144C109.279 28.9337 108.312 28.5399 107.366 28.2562C104.989 27.5444 100.353 26.8926 100.946 23.346C101.137 22.2045 101.731 21.0898 102.698 20.432C103.278 20.0377 103.92 19.7834 104.574 19.5404C104.325 18.8958 104.094 18.2327 103.797 17.6087C104.387 16.128 105 14.7354 106.594 14.0921C107.949 13.5456 109.203 13.9152 110.514 14.3568C110.694 13.4822 111.054 12.8908 111.516 12.1478L112.338 11.6917ZM71.7973 108.084L72.7934 110.314C73.6418 111.609 74.6678 113.642 75.3627 115.038C75.9326 116.183 76.673 118.189 77.5385 119.065L77.5981 118.875C77.5135 118.316 72.7976 109.134 72.0463 107.805L71.7973 108.084ZM87.1352 81.348C86.0314 80.8434 84.7675 80.8183 83.6449 81.2786C82.2225 81.87 81.2957 83.1152 80.7133 84.4935C79.3567 87.7047 79.6665 90.827 80.6176 94.0706C80.8074 94.7178 80.9524 95.3841 81.2035 96.0111C81.3563 96.7704 81.6166 97.4926 81.808 98.2405L83.3901 104.692C83.6744 105.864 84.0594 107.112 84.2172 108.303C84.4871 109.37 84.7651 110.436 85.0522 111.498C85.2088 111.857 85.3681 112.294 85.7406 112.472C85.9415 112.36 85.8604 112.44 85.978 112.223C85.988 112.207 85.9962 112.19 86.0082 112.176C86.1736 111.986 86.2833 111.903 86.5287 111.858C87.3764 111.649 90.2075 110.134 91.2738 109.669C91.357 108.367 91.1786 107.076 91.1996 105.774C91.2726 105.228 91.1241 104.354 91.4135 103.896C91.5213 105.727 91.4753 107.693 91.7631 109.496L91.934 109.543L92.2113 109.298C92.4522 109.254 92.6042 109.225 92.8129 109.087C92.9831 108.714 92.8957 108.39 92.8598 107.99C92.8032 107.383 92.9033 106.691 92.9291 106.076L93.0903 102.043C93.1551 100.307 93.0389 98.5729 92.9467 96.8392C92.7756 93.6178 92.6683 90.4788 91.602 87.3968C90.8477 85.2168 89.3455 82.3562 87.1352 81.348ZM100.543 98.5452C100.456 98.7308 100.415 98.7273 100.471 98.9339C100.536 99.1708 100.609 99.3266 100.497 99.5501C100.334 99.6012 100.262 99.6397 100.09 99.6048L100.039 99.6849C100.341 101.025 100.376 102.364 100.228 103.729C100.158 104.372 99.3814 107.324 99.4643 107.634L99.6332 107.684C99.8677 107.579 99.9739 107.492 100.1 107.262C100.997 105.629 101.145 100.341 100.543 98.5452ZM80.0102 95.8275L79.8451 95.8861C79.9764 96.3766 80.1012 96.8674 80.268 97.347L80.2074 97.6458L80.0229 97.6917L79.8442 97.9046C81.3885 99.7002 81.1831 101.625 81.8959 103.728L81.9692 103.699L82.1469 103.857L82.3363 103.658C82.0528 102.654 81.8184 101.638 81.5356 100.635C81.2344 99.5673 80.8666 98.5202 80.6225 97.4368C80.4893 96.751 80.2953 96.0651 80.1313 95.3851L80.0102 95.8275ZM68.9321 100.08C69.2257 100.58 69.508 101.032 69.891 101.47C69.7231 100.971 69.5171 100.498 69.3012 100.018L68.9321 100.08ZM121.304 85.0794C120.906 87.2608 120.272 89.3927 119.415 91.4378C119.202 91.9405 117.773 94.5587 117.77 94.8157C117.937 94.8216 118.023 94.8161 118.19 94.7728C119.389 94.5119 120.546 94.3972 121.77 94.3382C122.016 92.4808 122.176 86.7966 121.502 85.181L121.304 85.0794ZM111.281 65.2513C111.314 65.3895 111.362 65.5228 111.413 65.6536C111.427 65.6911 111.441 65.7289 111.456 65.7659C111.512 65.8972 111.573 66.0262 111.637 66.1536C111.808 66.4919 111.996 66.8224 112.138 67.1722L112.24 67.4554C112.908 70.0009 112.576 73.389 112.06 75.9661C114.185 75.255 116.204 74.6691 118.365 75.5872C116.692 72.2502 115.462 70.329 113.112 67.6077L112.626 67.0521C112.5 66.8933 112.378 66.7169 112.255 66.5345C111.949 66.0786 111.642 65.5866 111.281 65.2513Z" fill="black"/>
<path d="M123.034 33.83C123.063 33.8266 123.093 33.8224 123.123 33.8201C126.536 33.5561 130.08 34.2821 132.783 36.502C132.669 36.6145 132.562 36.7293 132.459 36.8528C132.076 37.3148 131.647 38.1406 131.809 38.768C132.063 39.7534 135.566 38.2611 137.195 39.3441C137.367 39.4589 137.327 39.455 137.361 39.639C137.106 40.0675 136.602 40.3331 136.229 40.6558C135.174 41.5667 134.823 43.4757 134.752 44.7921C134.631 47.0015 135.757 49.9058 137.216 51.5335C135.319 51.3323 133.855 51.7511 132.191 52.6359C131.58 49.9898 130.784 47.4163 129.06 45.264C127.463 43.2706 125.411 41.8718 122.83 41.5941C120.752 41.371 118.75 41.6898 117.105 43.0538C115.6 44.3015 114.843 46.4433 114.695 48.3437C114.496 50.8937 115.275 53.4878 116.971 55.4194C119.579 58.3894 123.11 58.5062 126.764 58.762C128.556 63.3558 129.01 64.9534 133.253 67.9046C130.631 68.5554 125.177 68.3734 122.495 67.8273C120.866 67.4956 119.335 66.9691 117.828 66.2765C120.977 69.3628 125.741 68.7808 129.747 69.2187C130.69 70.9491 131.227 72.8495 131.988 74.6605C134.018 79.4937 136.109 84.3402 137.74 89.3288C142.92 105.173 145.925 128.656 138.05 143.985C137.051 145.929 135.837 148.015 134.482 149.729C129.971 155.433 122.777 160.192 115.895 162.382C110.036 164.334 104.833 164.639 98.7148 164.152C100.424 163.399 102.179 162.393 103.502 161.057C103.768 160.788 104.095 160.486 104.095 160.091C103.54 160.019 99.3242 162.93 98.2527 163.403C96.4363 164.204 93.9762 164.675 91.9949 164.428C90.1539 164.199 88.4789 163.475 87.3324 161.969C86.2473 160.545 85.7395 158.622 86.1578 156.862C86.3121 156.212 86.6922 155.655 86.7813 154.985L86.6508 154.842L86.4289 154.892C85.3387 155.866 85.0004 157.456 84.6898 158.813C81.0742 155.966 78.2121 152.765 75.7461 148.883C78.9508 149.805 81.8777 150.586 85.2469 150.175C94.2137 149.081 102.525 143.134 107.954 136.101C112.854 129.754 115.637 121.275 115.417 113.258C115.371 111.591 115.046 109.932 114.832 108.279C115.226 108.163 115.614 108.039 115.995 107.885C118.744 106.781 119.899 104.417 120.997 101.818C121.661 100.248 122.047 98.6128 122.378 96.9476C124.161 87.9941 121.775 78.855 116.962 71.2214C114.691 67.6195 112.11 65.3105 110.638 61.0687C110.083 59.4698 109.574 57.8597 109.48 56.1589C109.436 55.2523 109.445 54.3441 109.506 53.4386C109.587 52.3589 110.28 49.8503 109.929 48.978L109.782 48.9898C109.318 49.4718 109.026 50.1132 108.683 50.687C108.609 46.6933 110.05 42.3655 112.649 39.3081C115.483 35.9754 118.702 34.1963 123.034 33.83Z" fill="#0B8DCB"/>
<path d="M120.715 37.6163C121.027 37.5787 121.336 37.5462 121.65 37.5729C122.423 37.6387 123.242 37.9933 123.742 38.5996C124.011 38.9254 124.242 39.2766 124.192 39.7129C123.78 40.1941 121.077 40.3758 120.324 40.6234C119.511 40.8914 118.784 41.3144 118.069 41.7773C117.37 42.2539 116.912 43.125 116.17 43.5062L116.069 43.3836C115.99 42.2289 116.418 41.0363 117.038 40.0742C117.888 38.758 119.201 37.9412 120.715 37.6163Z" fill="black"/>
<path d="M72.2384 131.25C72.7634 129.33 73.6005 127.53 74.5442 125.784C77.5587 120.204 81.7856 115.781 87.3087 112.612C90.8708 110.568 95.0833 109.076 99.1637 108.575C100.93 108.358 102.738 108.343 104.516 108.248C107.579 108.084 110.645 108.007 113.712 108.017C114.032 109.668 114.371 111.309 114.471 112.991C114.911 120.393 112.542 128.305 108.416 134.434C107.392 135.956 106.328 137.454 105.087 138.809C100.693 143.612 93.7317 148.074 87.3555 149.3C83.4454 150.051 78.3223 149.866 74.9216 147.54C72.861 146.131 71.8817 143.614 71.4622 141.249C71.1028 139.225 71.0087 137.007 71.4454 134.986C71.6173 134.19 71.9657 133.368 72.0477 132.564C72.0786 132.125 72.1696 131.684 72.2384 131.25Z" fill="#8EBA7C"/>
<path d="M72.9549 131.679L73.099 131.566C73.3096 131.663 73.3545 131.721 73.5139 131.882C74.5643 132.941 76.2537 133.518 77.7318 133.511C79.8377 133.494 81.8529 132.652 83.3443 131.165C85.3006 129.184 86.0482 126.666 87.1361 124.2C87.2186 127.148 85.86 130.131 83.8482 132.264C82.3795 133.823 80.2006 134.909 78.0412 134.945C76.5201 134.97 74.5311 134.45 73.4369 133.355C73.1088 133.026 72.8729 132.641 72.6807 132.22L72.9549 131.679Z" fill="#8EBA7C"/>
<path d="M72.2385 131.25C72.5029 131.362 72.7775 131.441 72.9553 131.679L72.6811 132.22C72.6299 132.35 72.6264 132.488 72.4865 132.54C72.3318 132.598 72.2076 132.577 72.0479 132.564C72.0787 132.125 72.1697 131.684 72.2385 131.25Z" fill="#8EBA7C"/>
<path d="M105.565 126.798L105.708 126.911C105.946 127.554 105.565 128.871 105.423 129.551C104.864 132.218 103.324 135.124 100.98 136.627C99.2374 137.743 96.9299 138.202 94.903 137.743C93.6202 137.452 92.7491 136.827 92.0467 135.729C91.8846 135.372 91.6889 134.974 91.769 134.58C92.2999 134.73 93.244 135.888 94.0237 136.223C95.5686 136.889 97.6678 136.711 99.1846 136.052C103.027 134.383 104.161 130.37 105.565 126.798Z" fill="black"/>
<path d="M92.938 112.338C94.1919 112.478 95.9962 112.52 97.1048 113.122C97.4923 113.332 97.7454 113.662 97.8438 114.092C98.1267 115.325 97.3606 116.937 96.6876 117.945C95.4356 119.821 93.4813 121.421 91.2259 121.861C89.7794 122.143 88.5247 121.803 87.3263 120.989C87.0677 120.703 86.9372 120.482 86.8384 120.108L86.9396 119.943C87.4282 119.778 89.0185 120.791 90.0396 120.869C91.72 120.996 93.3743 120.336 94.6356 119.25C95.8032 118.245 97.1271 116.464 97.2075 114.868C97.3134 112.771 93.904 113.683 92.9208 112.593L92.938 112.338Z" fill="black"/>
<path d="M106.706 112.981C106.775 112.965 106.894 112.976 106.966 112.975L107.021 113.127C106.762 113.647 105.682 114.044 105.176 114.297C104.505 116.576 103.42 118.661 101.468 120.109C100.275 120.994 98.8491 121.431 97.3628 121.187C96.7894 121.093 95.9906 120.859 95.6425 120.349C95.5113 120.156 95.5152 120.12 95.5558 119.906L95.8015 119.774C96.1894 119.735 96.5027 119.925 96.8449 120.084C97.7644 120.242 98.5859 120.215 99.4769 119.909C102.003 119.041 103.381 116.91 104.53 114.645C104.097 114.658 103.661 114.673 103.228 114.657C102.616 114.635 101.861 114.578 101.435 114.081C101.288 113.909 101.323 113.997 101.346 113.767C103.84 113.802 104.371 114.053 106.706 112.981Z" fill="black"/>
<path d="M88.4824 114.486C88.5004 114.49 88.5195 114.493 88.5367 114.5C88.6684 114.555 88.7906 114.586 88.843 114.727C89.0348 115.243 88.6926 115.989 88.4601 116.441C87.2633 118.771 84.1809 122.337 81.577 123.099C80.3629 123.455 79.3531 123.242 78.2652 122.674C78.1117 122.57 77.8973 122.448 77.7773 122.309C77.6043 122.107 77.6129 121.897 77.6234 121.648L77.7672 121.518C78 121.527 77.9207 121.505 78.1207 121.578C78.3144 121.648 78.5047 121.729 78.7012 121.793C80.1617 122.267 81.5641 122.028 82.9059 121.345C85.5727 119.988 87.5637 117.282 88.4824 114.486Z" fill="black"/>
<path d="M89.3353 138.652L89.4369 138.781C89.4279 139.301 89.1709 139.789 88.8838 140.212C87.5783 142.133 85.2861 143.479 83.0299 143.915C81.0385 144.3 78.9752 143.879 77.2947 142.743C76.9103 142.458 76.6213 142.158 76.3096 141.799C78.9986 142.937 81.3479 143.417 84.2037 142.556C86.4252 141.886 88.2166 140.711 89.3353 138.652Z" fill="black"/>
<path d="M31.669 124.048C33.409 123.987 35.2655 124.333 36.986 124.579C41.2944 125.195 45.4475 125.98 49.6784 126.998C51.5701 127.454 53.5389 127.881 55.3709 128.534C56.6033 128.973 57.7936 129.579 58.9877 130.114C59.7983 130.477 60.7635 130.822 61.4416 131.405C61.6842 131.614 61.8612 131.937 62.0268 132.208C60.6479 132.323 59.2991 132.533 57.994 133.01C56.1807 133.671 54.5362 134.981 53.7166 136.76C53.0412 138.225 53.0362 139.983 53.5944 141.482C52.0537 141.557 50.5213 141.759 48.9854 141.899C46.583 142.118 44.1217 142.274 41.71 142.292C35.9198 142.419 23.4048 141.481 19.1704 137.596C18.1245 136.636 17.2379 135.23 17.2191 133.778C17.2032 132.56 17.8084 131.427 18.6623 130.591C21.6708 127.645 27.7523 127.067 31.8128 127.107C33.7207 127.125 35.6214 127.344 37.5304 127.362C36.313 126.234 35.0539 125.565 33.5342 124.929C32.9323 124.677 32.1741 124.464 31.669 124.048Z" fill="#3B773B"/>
<path d="M28.7922 131.756C29.6422 131.684 30.4041 131.824 31.1587 132.23C32.0313 132.7 32.7959 133.493 33.047 134.471C33.2555 135.283 33.1432 136.173 32.6905 136.883C32.1275 137.766 31.2931 138.073 30.3232 138.283C29.2912 138.32 28.3914 138.263 27.4705 137.72C26.6838 137.255 26.0473 136.511 25.8345 135.611C25.6583 134.865 25.7661 134.059 26.1729 133.406C26.7395 132.496 27.7859 132.005 28.7922 131.756Z" fill="black"/>
<path d="M28.6441 132.347C29.3578 132.288 29.9262 132.304 30.5855 132.611C31.3014 132.943 31.9198 133.533 32.1888 134.286C32.4107 134.907 32.38 135.615 32.0771 136.204C31.6647 137.006 30.9597 137.355 30.1305 137.596C29.5398 137.616 28.9751 137.625 28.4074 137.424C27.624 137.148 26.9248 136.582 26.5915 135.81C26.3358 135.218 26.3239 134.545 26.5896 133.954C26.9919 133.059 27.7903 132.693 28.6441 132.347Z" fill="#EA6F1C"/>
<path d="M69.3618 66.9254C68.97 66.0332 68.6614 65.1094 68.2524 64.2242C67.784 63.2098 66.9649 62.0957 66.7012 61.025C66.5231 60.3 66.6329 59.4426 66.6586 58.7012C66.759 55.8164 66.9293 52.8367 67.9954 50.1188C68.5579 48.6852 69.4922 47.2906 70.9575 46.6645C72.2649 46.1059 73.7993 46.4477 75.0571 46.9965C78.5411 48.5168 80.7977 52.9887 82.0977 56.3477C83.4243 59.7746 84.0024 63.3434 84.604 66.9508L84.5375 67.0106L84.154 67.2309C85.2899 70.4832 84.9258 76.3801 84.8547 79.875C83.5024 79.8824 82.4739 80.2512 81.4852 81.2149C79.6454 83.0086 78.6165 86.3246 78.595 88.8402C77.3485 87.0805 76.4067 85.8449 74.4657 84.8184C73.7036 81.0852 72.6977 77.3188 71.5778 73.6762C70.9165 71.5246 70.0938 69.4141 69.5454 67.2301L69.3618 66.9254Z" fill="#3B773B"/>
<path d="M69.3618 66.9254C68.97 66.0332 68.6614 65.1094 68.2524 64.2242C67.784 63.2098 66.9649 62.0957 66.7012 61.025C66.5231 60.3 66.6329 59.4426 66.6586 58.7012C66.759 55.8164 66.9293 52.8367 67.9954 50.1188C68.5579 48.6852 69.4922 47.2906 70.9575 46.6645C72.2649 46.1059 73.7993 46.4477 75.0571 46.9965C78.5411 48.5168 80.7977 52.9887 82.0977 56.3477C83.4243 59.7746 84.0024 63.3434 84.604 66.9508L84.5375 67.0106L84.154 67.2309C83.9454 66.5942 83.7403 65.9535 83.5016 65.3274C82.5942 62.9469 80.9856 60.2746 78.559 59.2024C77.1489 58.5625 75.536 58.5375 74.1063 59.1332C71.6536 60.1484 70.636 62.5969 70.0793 65.0086C69.9309 65.6527 69.8864 66.4945 69.6141 67.0875C69.5918 67.1356 69.568 67.1824 69.5454 67.2301L69.3618 66.9254Z" fill="#8EBA7C"/>
<path d="M69.3618 66.9254C69.6196 64.2879 70.4634 61.2211 72.6372 59.4977C73.8481 58.5407 75.397 58.1192 76.9259 58.3309C78.963 58.5969 80.5763 59.7731 81.7864 61.3821C82.4548 62.2813 83.0153 63.2563 83.4563 64.2864C83.7329 64.9188 84.1888 66.6036 84.5376 67.0106L84.154 67.2309C83.9454 66.5942 83.7403 65.9536 83.5017 65.3274C82.5942 62.9469 80.9856 60.2747 78.5591 59.2024C77.1489 58.5625 75.536 58.5375 74.1064 59.1332C71.6536 60.1485 70.636 62.5969 70.0794 65.0086C69.931 65.6528 69.8864 66.4946 69.6142 67.0875C69.5919 67.1356 69.5681 67.1825 69.5454 67.2301L69.3618 66.9254Z" fill="black"/>
<path d="M77.5646 65.4465C78.2857 65.4082 78.8263 65.4883 79.4501 65.8742C80.3825 66.4516 81.0419 67.4773 81.2427 68.5488C81.4228 69.507 81.2954 70.6855 80.6935 71.4836C80.2544 72.0656 79.7157 72.3148 79.0122 72.4234C78.6154 72.4113 78.2185 72.3508 77.8439 72.2168C76.8603 71.8586 76.0677 71.1102 75.6544 70.1484C75.2548 69.2344 75.1243 68.1234 75.5372 67.1906C75.9365 66.2883 76.6833 65.8035 77.5646 65.4465Z" fill="black"/>
<path d="M78.1252 66.0344C78.5943 66.0727 79.0185 66.2375 79.3978 66.5165C80.0779 67.0161 80.5154 67.8399 80.6306 68.6684C80.7248 69.343 80.6053 70.0637 80.1635 70.6012C79.715 71.1469 79.2357 71.2903 78.5541 71.3461C78.2115 71.2422 77.8767 71.1211 77.5697 70.9329C76.8076 70.4649 76.1541 69.6317 75.9767 68.7457C75.8595 68.161 75.9525 67.5583 76.3033 67.068C76.7447 66.4508 77.406 66.177 78.1252 66.0344Z" fill="#EA6F1C"/>
<path d="M27.8813 84.2043C28.3051 84.1398 28.7981 84.1543 29.2269 84.1668C30.7217 84.2102 32.6632 84.5074 33.9611 85.2961C35.0249 85.9422 35.9429 87.2516 36.7683 88.1844C38.9668 90.6684 41.0561 93.3035 43.3366 95.7074C46.3416 98.8751 46.2257 100.258 48.264 102.672C50.5311 105.358 53.2237 107.654 56.2335 109.468C57.2944 110.098 58.5026 110.55 59.5085 111.259C60.6558 112.066 61.3878 113.297 62.5354 114.143C60.5515 113.441 58.6608 112.824 56.5655 112.53C56.2823 112.492 55.9979 112.455 55.7124 112.436C53.5683 112.291 51.2757 112.808 49.6269 114.246C49.6019 114.222 49.5768 114.198 49.5522 114.173C47.5851 112.193 39.5882 107.927 36.692 106.568C34.7344 105.648 32.541 104.839 30.76 103.615C27.6969 101.509 22.87 95.3379 22.2071 91.6137C21.9127 89.9598 22.1473 88.3449 23.1452 86.9504C24.2426 85.4172 26.049 84.5004 27.8813 84.2043Z" fill="#3B773B"/>
<path d="M31.5031 89.6884C32.2738 89.7403 33.0014 89.9294 33.668 90.3298C34.5636 90.8673 35.2875 91.7223 35.5195 92.7559C35.7196 93.6794 35.5297 94.6442 34.9947 95.4231C34.4183 96.2532 33.6781 96.5848 32.7286 96.7782C31.6992 96.779 30.8484 96.7337 29.9958 96.0719C29.1134 95.3868 28.5449 94.2966 28.4181 93.1934C28.3213 92.3505 28.4819 91.5255 29.0294 90.8606C29.6689 90.0837 30.5425 89.7997 31.5031 89.6884Z" fill="black"/>
<path d="M31.5107 90.361C32.1569 90.375 32.7516 90.5231 33.3049 90.8649C34.0229 91.3082 34.5617 92.0391 34.7295 92.8707C34.8614 93.5238 34.75 94.2121 34.3507 94.7543C33.8581 95.4235 33.184 95.6473 32.4003 95.7832C31.7458 95.7594 31.1883 95.6371 30.6394 95.2656C29.881 94.7524 29.3072 93.8797 29.1708 92.9703C29.0852 92.3996 29.2166 91.8301 29.5664 91.3684C30.0394 90.7438 30.7615 90.4672 31.5107 90.361Z" fill="#EA6F1C"/>
<path d="M22.6141 104.141C22.6473 104.134 22.6801 104.125 22.7137 104.121C30.1211 103.135 42.961 111.088 48.8188 115.204C48.0227 116.512 47.7653 117.966 48.0083 119.474C48.4899 122.463 50.8212 124.854 53.1677 126.567C51.6196 126.102 50.0567 125.687 48.4817 125.324C44.8028 124.276 40.7938 123.708 36.9997 123.229C34.9802 122.975 32.877 122.852 30.8994 122.364C27.7708 121.594 23.7602 119.639 21.2403 117.659C19.1187 115.991 16.5099 113.175 16.2217 110.354C16.0803 108.968 16.4413 107.716 17.3178 106.632C18.6584 104.974 20.56 104.34 22.6141 104.141Z" fill="#3B773B"/>
<path d="M27.5236 109.68C28.441 109.633 29.2034 109.698 30.0449 110.123C30.9622 110.586 31.7629 111.363 32.0474 112.373C32.2921 113.242 32.1442 114.226 31.6724 114.994C31.2881 115.619 30.579 116.143 29.8663 116.312C28.9317 116.475 27.9667 116.398 27.1129 115.963C26.1763 115.485 25.5172 114.67 25.2091 113.668C24.9598 112.857 24.9438 111.945 25.369 111.188C25.8363 110.356 26.6324 109.922 27.5236 109.68Z" fill="black"/>
<path d="M27.5801 110.277C28.1322 110.25 28.6329 110.248 29.1614 110.431C30.0248 110.73 30.7736 111.358 31.1433 112.202C31.4086 112.807 31.4623 113.511 31.1836 114.122C30.8516 114.85 30.1747 115.239 29.4587 115.512C28.8479 115.552 28.3093 115.584 27.7261 115.348C26.8637 114.999 26.1443 114.27 25.8239 113.395C25.6004 112.784 25.589 112.099 25.894 111.513C26.2295 110.869 26.9042 110.469 27.5801 110.277Z" fill="#EA6F1C"/>
<path d="M59.7134 89.9984C59.5372 87.7359 58.2619 85.9148 57.372 83.8922C56.8337 82.6683 56.429 81.3953 55.9329 80.1562C55.4915 79.0531 54.9415 78.009 54.5439 76.8843C53.1997 73.0797 51.8095 67.8535 53.6693 64.0211C54.4076 62.4996 55.6966 61.2492 57.3236 60.7238C58.9037 60.2132 60.6497 60.6734 62.0763 61.4297C63.8849 62.3882 65.3544 64.0062 66.5138 65.664C67.2986 66.7855 68.0673 67.9711 68.665 69.2027C70.3029 72.5757 71.1951 76.6211 72.0509 80.2558C72.3814 81.659 72.6474 83.0914 73.0607 84.4722C72.9341 84.4675 72.8076 84.4664 72.681 84.4683C71.4279 84.4918 70.0931 84.8715 69.2255 85.8207C67.2048 88.0297 67.2947 91.2761 67.4525 94.0433C67.5154 94.6066 67.647 95.1203 67.7994 95.6636C67.4638 95.2457 67.1204 94.8316 66.7939 94.4062C66.5876 94.1504 66.3744 93.9004 66.154 93.6566C64.4958 91.8246 62.2572 90.1324 59.7134 89.9984Z" fill="#3B773B"/>
<path d="M66.7939 94.4062L67.1385 94.2898C67.2537 94.1461 67.2752 94.1195 67.4525 94.0433C67.5154 94.6066 67.6471 95.1203 67.7994 95.6636C67.4639 95.2457 67.1205 94.8316 66.7939 94.4062Z" fill="#3B773B"/>
<path d="M61.4645 67.302C62.3329 67.2294 63.2411 67.4911 63.9516 67.9887C64.795 68.5794 65.4669 69.52 65.6391 70.5458C65.7915 71.4536 65.5548 72.4856 65.0091 73.229C64.5102 73.9079 63.8657 74.252 63.0497 74.3911C62.2403 74.4544 61.4309 74.2653 60.7333 73.8504C59.7591 73.2817 59.0712 72.3266 58.8395 71.2223C58.6438 70.3118 58.7387 69.3254 59.2848 68.5497C59.8239 67.784 60.5759 67.4723 61.4645 67.302Z" fill="black"/>
<path d="M61.2061 67.9953C61.701 67.9453 62.2205 67.9071 62.6987 68.0719C63.5178 68.3547 64.2397 68.9817 64.6143 69.7653C64.8994 70.3621 64.9631 71.0274 64.735 71.6543C64.4803 72.3551 63.8705 72.9164 63.2096 73.2293C62.6904 73.293 62.2209 73.3141 61.7158 73.1516C60.8623 72.8774 60.1006 72.2477 59.7174 71.4321C59.4295 70.8199 59.3553 70.0899 59.61 69.4535C59.9045 68.7168 60.5061 68.3055 61.2061 67.9953Z" fill="#EA6F1C"/>
<path d="M39.4381 67.8957C40.3072 67.809 41.1846 67.848 42.0424 68.0125C43.6377 68.3258 45.0584 69.0703 46.4119 69.9496C47.4514 70.6246 48.6006 71.4105 49.4143 72.3492C51.9236 75.2437 54.269 81.9777 55.8377 85.6703C56.4178 87.0363 56.976 88.5668 57.8182 89.7953C57.8408 89.8285 57.8643 89.8605 57.8873 89.8933C57.0975 90.1539 56.3295 90.4234 55.6424 90.9066C53.9092 92.1258 52.9935 95.0751 52.9928 96.2765C52.9904 99.9272 55.9804 104.838 57.1853 108.29C55.7657 107.165 52.9286 106.101 50.6948 103.422C48.4611 100.744 46.6441 98.6639 44.2989 94.9491C43.4589 93.6185 42.0604 92.0777 41.1572 90.7844C38.7547 87.343 35.745 81.7785 34.7665 77.6629C34.2382 75.4414 34.05 72.7629 35.3257 70.7473C36.3189 69.1781 37.6447 68.309 39.4381 67.8957Z" fill="#3B773B"/>
<path d="M43.2104 73.4531C43.9557 73.4055 44.6077 73.3926 45.3186 73.677C46.3409 74.0863 47.2788 74.9301 47.6866 75.966C48.0174 76.8066 48.0041 77.8133 47.6081 78.6297C47.2452 79.3773 46.5213 79.9691 45.7467 80.2434C44.9729 80.3656 44.3416 80.3461 43.5983 80.0641C42.5545 79.668 41.6502 78.8367 41.2354 77.7926C40.8874 76.9176 40.8874 75.8941 41.2913 75.0375C41.6827 74.2078 42.3709 73.7488 43.2104 73.4531Z" fill="black"/>
<path d="M43.2746 74.1426C43.93 74.0699 44.5328 74.0313 45.1531 74.2949C45.9554 74.636 46.5644 75.2942 46.8836 76.1024C47.1211 76.7035 47.1785 77.3887 46.8988 77.9856C46.5824 78.6602 46.0175 78.9883 45.3464 79.2414C44.9074 79.3012 44.4277 79.2613 43.9988 79.1485C43.1695 78.9231 42.4644 78.3754 42.0406 77.6274C41.7125 77.0403 41.6039 76.3551 41.8047 75.7071C42.0441 74.9344 42.5851 74.5028 43.2746 74.1426Z" fill="#EA6F1C"/>
<path d="M54.1431 143.03C54.4892 143.127 54.8201 143.682 55.083 143.95C58.9818 147.93 67.6029 147.559 72.8412 147.564C71.9623 148.771 70.7427 149.841 69.6091 150.814C64.6482 155.13 58.6294 158.05 52.1693 159.275C47.5388 159.714 42.2435 160.201 38.1507 157.48C36.9236 156.664 35.7123 155.398 35.4417 153.905C35.2117 152.635 35.6394 151.423 36.3763 150.399C38.2189 147.837 41.7306 146.206 44.7189 145.49C46.3255 145.105 48.0154 144.91 49.6474 144.647C49.0333 144.217 48.3966 143.863 47.7353 143.511C49.8705 143.334 52.0091 143.225 54.1431 143.03Z" fill="#3B773B"/>
<path d="M48.0068 149.55C48.8795 149.596 49.7486 149.804 50.4971 150.269C51.3678 150.811 52.0338 151.669 52.2244 152.688C52.3818 153.529 52.2193 154.407 51.7014 155.097C50.9475 156.1 49.9186 156.382 48.7385 156.528C47.6545 156.455 46.6967 156.281 45.8018 155.608C45.0299 155.027 44.4791 154.175 44.3475 153.211C44.2342 152.381 44.4346 151.511 44.967 150.857C45.7299 149.92 46.8721 149.685 48.0068 149.55Z" fill="black"/>
<path d="M47.7913 150.11C47.9218 150.103 48.0487 150.104 48.1792 150.114C49.2003 150.194 50.1847 150.544 50.8405 151.364C51.5194 152.214 51.553 153.03 51.4444 154.053C50.8292 155.011 50.1011 155.488 49.0128 155.755C48.1815 155.778 47.5022 155.705 46.753 155.294C46.0167 154.89 45.3643 154.242 45.1491 153.409C44.98 152.748 45.1022 152.047 45.485 151.484C46.028 150.672 46.8776 150.317 47.7913 150.11Z" fill="#EA6F1C"/>
<path d="M42.19 144.473C43.6967 144.278 46.2185 143.73 47.6193 144.408C47.3924 144.561 47.1506 144.544 46.883 144.568C43.5545 144.933 39.3681 146.634 36.9365 148.975C35.7935 150.075 34.7735 151.607 34.7841 153.247C34.7932 154.666 35.543 155.867 36.5359 156.82C39.3947 159.564 44.09 160.246 47.8861 160.151C57.9275 159.9 66.6775 154.747 73.4615 147.63C74.0107 147.902 74.5037 148.182 74.9986 148.544C74.8455 148.782 74.6846 149.016 74.5162 149.244C73.6771 150.369 72.5545 151.397 71.5263 152.353C65.2912 158.152 57.1471 161.653 48.7803 162.928C42.2271 163.928 30.9409 163.758 25.5366 159.742C24.1476 158.71 22.6337 157.04 22.4139 155.258C22.236 153.816 22.9574 152.431 23.8174 151.325C27.3368 146.802 36.6971 145.174 42.19 144.473Z" fill="#8EBA7C"/>
<path d="M42.1899 144.473C43.6966 144.278 46.2185 143.73 47.6192 144.408C47.3923 144.561 47.1505 144.544 46.8829 144.568C45.4825 144.045 42.9028 144.86 42.1899 144.473Z" fill="#8EBA7C"/>
<path d="M81.2033 96.0113C80.9521 95.3844 80.8076 94.7184 80.6178 94.0711C79.6666 90.8274 79.3568 87.7055 80.7135 84.4941C81.2959 83.1156 82.2225 81.8707 83.6451 81.2793C84.7678 80.8188 86.0314 80.8438 87.1353 81.3484C89.3459 82.3566 90.8475 85.2172 91.6018 87.3973C92.6682 90.4793 92.7756 93.6176 92.9467 96.8391C93.0389 98.5731 93.1549 100.307 93.09 102.044L92.9291 106.077C92.9033 106.691 92.8037 107.383 92.8603 107.989C92.8963 108.39 92.9838 108.714 92.8135 109.088C92.6045 109.226 92.4525 109.254 92.2111 109.298C92.0404 108.43 91.9826 107.527 91.8893 106.646C91.9271 103.595 91.9283 98.9149 90.9689 96.0852L90.4853 96.2086C91.185 97.9793 91.6596 102.036 91.4135 103.896C91.124 104.355 91.2725 105.228 91.1994 105.774C91.1783 107.077 91.3572 108.367 91.274 109.669C90.2076 110.134 87.3764 111.649 86.5291 111.858C86.2834 111.903 86.1736 111.986 86.008 112.176C85.9959 112.19 85.9881 112.207 85.9779 112.223L85.8799 112.107C85.8475 112.095 85.8143 112.083 85.7826 112.068C85.451 111.915 85.3795 111.759 85.2635 111.435C85.1756 110.425 84.8725 109.348 84.6158 108.37L84.217 108.304C84.0592 107.112 83.6748 105.865 83.3904 104.692L81.808 98.2406C81.6166 97.4926 81.356 96.7707 81.2033 96.0113ZM83.2857 99.0594C83.3014 98.4582 83.2955 97.8477 83.3381 97.2481L82.6967 97.2594C82.8779 97.8633 83.0443 98.4758 83.2857 99.0594ZM91.7299 95.9977L91.6385 96.0262C91.4615 95.8981 91.3267 95.7367 91.1826 95.5742C91.3951 96.2074 91.6018 96.8422 91.8498 97.4629C91.8471 96.9625 91.8517 96.4875 91.7299 95.9977Z" fill="black"/>
<path d="M84.7837 102.723C84.5419 100.897 84.4185 98.8434 84.7485 97.0242C84.9431 95.9524 85.3669 94.7047 86.3251 94.0879C86.8595 93.7438 87.5497 93.6516 88.1603 93.8239C89.295 94.1442 89.9618 95.2367 90.4856 96.2086C91.1853 97.9793 91.6599 102.036 91.4138 103.897C91.1243 104.355 91.2728 105.228 91.1997 105.774C91.1786 107.077 91.3575 108.367 91.2743 109.669C90.2079 110.134 87.3767 111.649 86.5294 111.858C86.2837 111.903 86.1739 111.986 86.0083 112.176C85.9962 112.19 85.9884 112.207 85.9782 112.223L85.8802 112.107C85.8903 111.917 85.8778 111.723 85.8751 111.532C85.0841 108.982 84.8212 106.128 84.3521 103.5C84.7013 103.9 84.7192 104.49 84.8032 105C84.8509 104.282 84.7153 103.587 84.7716 102.864L84.7837 102.723Z" fill="#8EBA7C"/>
<path d="M84.7837 102.723C84.5419 100.897 84.4185 98.8434 84.7485 97.0242C84.9431 95.9524 85.3669 94.7047 86.3251 94.0879C86.8595 93.7438 87.5497 93.6516 88.1603 93.8239C89.295 94.1442 89.9618 95.2367 90.4856 96.2086C91.1853 97.9793 91.6599 102.036 91.4138 103.897C91.1243 104.355 91.2728 105.228 91.1997 105.774L91.188 105.656C90.8966 102.569 91.5509 96.9742 88.8981 94.766C88.4903 94.4266 87.9735 94.1739 87.4302 94.2305C86.797 94.2961 86.3345 94.7809 85.9771 95.2703C83.5556 98.5875 86.4552 107.754 86.5294 111.858C86.2837 111.903 86.1739 111.986 86.0083 112.176C85.9962 112.19 85.9884 112.207 85.9782 112.223L85.8802 112.107C85.8903 111.917 85.8778 111.723 85.8751 111.532C85.0841 108.982 84.8212 106.128 84.3521 103.5C84.7013 103.9 84.7192 104.49 84.8032 105C84.8509 104.282 84.7153 103.587 84.7716 102.864L84.7837 102.723Z" fill="black"/>
<path d="M84.7837 102.723C84.9794 103.989 86.2376 110.8 85.8751 111.532C85.0841 108.982 84.8212 106.128 84.3521 103.5C84.7013 103.9 84.7192 104.49 84.8032 105C84.8509 104.282 84.7153 103.587 84.7716 102.864L84.7837 102.723Z" fill="#F2BA22"/>
<path d="M81.2033 96.0113C80.9521 95.3844 80.8076 94.7184 80.6178 94.0711C79.6666 90.8274 79.3568 87.7055 80.7135 84.4941C81.2959 83.1156 82.2225 81.8707 83.6451 81.2793C84.7678 80.8188 86.0314 80.8438 87.1353 81.3484C89.3459 82.3566 90.8475 85.2172 91.6018 87.3973C92.6682 90.4793 92.7756 93.6176 92.9467 96.8391C93.0389 98.5731 93.1549 100.307 93.09 102.044L92.9291 106.077C92.9033 106.691 92.8037 107.383 92.8603 107.989C92.8963 108.39 92.9838 108.714 92.8135 109.088C92.6045 109.226 92.4525 109.254 92.2111 109.298C92.0404 108.43 91.9826 107.527 91.8893 106.646L92.0674 106.683C92.2725 106.242 92.0822 105.7 92.2873 105.205C92.41 104.543 92.3471 103.728 92.3553 103.046C92.3947 99.8281 92.3916 96.4992 91.9545 93.309C91.5939 90.6789 90.7865 87.8602 88.56 86.1941C87.6635 85.5234 86.6318 85.0758 85.4928 85.2649C84.235 85.4734 83.2217 86.1832 82.508 87.225C81.0584 89.341 81.3287 92.8043 81.7326 95.2047C81.7232 95.2688 81.7135 95.3324 81.7049 95.3969C81.674 95.6258 81.692 95.8273 81.7107 96.0555C81.7225 96.1992 81.7228 96.141 81.6885 96.2953L81.5135 96.3551C81.3971 96.2445 81.3041 96.1356 81.2033 96.0113Z" fill="#F2BA22"/>
<path d="M91.8892 106.646L92.0673 106.683C92.2724 106.242 92.0821 105.7 92.2872 105.205C92.3345 106.001 92.2856 108.175 92.6657 108.795C92.8392 108.577 92.8228 108.264 92.8603 107.989C92.8962 108.39 92.9837 108.714 92.8134 109.088C92.6044 109.226 92.4524 109.254 92.211 109.298C92.0403 108.43 91.9825 107.527 91.8892 106.646Z" fill="black"/>
<path d="M84.3522 103.5C84.3463 103.488 84.3389 103.476 84.335 103.463C83.7455 101.531 83.6318 96.7101 84.3404 94.8539C84.7018 93.9078 85.3365 92.7976 86.3127 92.4004C86.9576 92.1375 87.699 92.1867 88.3252 92.4808C89.7432 93.1468 90.458 94.7011 90.9693 96.0851L90.4858 96.2086C89.9619 95.2367 89.2951 94.1441 88.1604 93.8238C87.5498 93.6515 86.8596 93.7437 86.3252 94.0879C85.367 94.7046 84.9432 95.9523 84.7486 97.0242C84.4186 98.8433 84.542 100.896 84.7838 102.723L84.7717 102.864C84.7154 103.587 84.851 104.282 84.8033 105C84.7193 104.49 84.7014 103.9 84.3522 103.5Z" fill="#F2BA22"/>
<path d="M82.2812 97.3914C83.2694 101.033 84.0546 104.637 84.6159 108.37L84.2171 108.303C84.0593 107.112 83.6749 105.865 83.3905 104.692L81.8081 98.2406L81.9226 98.064C81.903 97.7894 81.9038 97.6125 81.9819 97.3422L82.0855 97.3148L82.1702 97.5156L82.2812 97.3914Z" fill="#F2BA22"/>
<path d="M81.7329 95.2047C81.9243 95.9317 82.1165 96.6578 82.2813 97.3914L82.1704 97.5156L82.0856 97.3149L81.9821 97.3422C81.904 97.6125 81.9032 97.7895 81.9228 98.0641L81.8083 98.2407C81.6169 97.4926 81.3563 96.7707 81.2036 96.0114C81.3044 96.1356 81.3974 96.2446 81.5138 96.3551L81.6888 96.2953C81.7231 96.141 81.7228 96.1992 81.711 96.0555C81.6923 95.8274 81.6743 95.6258 81.7052 95.3969C81.7138 95.3324 81.7235 95.2688 81.7329 95.2047Z" fill="#F2BA22"/>
<path d="M82.6966 97.2594C82.3001 95.9551 82.0696 94.6137 81.9415 93.2575C81.7442 91.1731 81.7032 88.6743 83.1524 86.9954C83.8353 86.2048 84.8149 85.6415 85.8708 85.5837C86.9759 85.5231 87.931 86.1075 88.7149 86.8317C91.1837 89.1118 91.6024 92.836 91.7298 95.9977L91.6384 96.0262C91.4614 95.8981 91.3267 95.7368 91.1825 95.5743C90.5356 94.1301 89.7532 92.4985 88.1673 91.8919C87.5009 91.6372 86.7731 91.6446 86.1192 91.9368C84.9778 92.4473 84.2552 93.6712 83.856 94.8106C83.581 95.5946 83.4392 96.4255 83.338 97.2481L82.6966 97.2594Z" fill="#0B8DCB"/>
<path d="M82.6968 97.2594L83.3382 97.248C83.2956 97.8477 83.3015 98.4582 83.2858 99.0594C83.0444 98.4758 82.878 97.8633 82.6968 97.2594Z" fill="#0B8DCB"/>
<path d="M91.1831 95.5742C91.3272 95.7367 91.462 95.898 91.639 96.0262L91.7304 95.9977C91.8522 96.4875 91.8476 96.9625 91.8503 97.4629C91.6022 96.8422 91.3956 96.2074 91.1831 95.5742Z" fill="#0B8DCB"/>
<path d="M37.969 143.707C36.9199 144.113 35.521 144.216 34.3906 144.36C27.8815 145.189 20.1288 144.937 13.9732 142.535C10.7434 141.275 6.31174 138.657 4.89123 135.304C4.27475 133.885 4.26717 132.275 4.87022 130.85C5.82073 128.654 8.08823 127.392 10.2345 126.593C14.5867 124.973 22.914 124.303 27.5309 124.813C30.0928 125.097 32.6989 125.723 35.0512 126.791C33.9496 126.763 32.8554 126.624 31.7506 126.616C27.7639 126.588 22.8861 127.188 19.4919 129.351C18.2315 130.154 17.1299 131.381 16.8345 132.886C16.5696 134.235 17.0737 135.588 17.8407 136.686C21.0128 141.229 29.2453 141.943 34.351 142.493C35.4721 142.614 36.6689 142.61 37.7711 142.821L37.9306 142.853C39.2138 142.893 40.5427 142.876 41.8119 143.08C40.5291 143.277 39.2478 143.486 37.969 143.707Z" fill="#8EBA7C"/>
<path d="M37.9305 142.853C39.2137 142.893 40.5426 142.876 41.8117 143.08C40.5289 143.277 39.2477 143.486 37.9688 143.707C37.906 143.67 37.9497 143.7 37.8623 143.589C38.3002 143.498 38.7996 143.44 39.2023 143.243L39.0253 143.093C38.7129 143.083 38.292 143.106 38.025 142.929C37.9914 142.906 37.962 142.878 37.9305 142.853Z" fill="#8EBA7C"/>
<path d="M92.5233 62.4411C92.837 62.4239 93.1913 62.4743 93.5022 62.525C94.9698 62.7629 96.2011 63.6079 97.0593 64.8C100.314 69.3192 99.805 76.1512 98.9608 81.3887C98.7608 82.6297 98.4233 83.8411 98.2237 85.0786C96.8378 85.536 95.6386 86.5532 94.6815 87.6321C94.3538 88.0012 93.7233 89.268 93.2952 89.3813L93.2421 89.1391C92.8655 86.6793 91.5913 84.1524 90.0163 82.2411C88.9667 80.9672 87.7589 79.9844 86.0675 79.8266C85.9726 79.6301 85.9519 71.6567 85.9093 70.7649C85.8683 69.9055 85.7769 69.0653 85.6265 68.218C86.0808 67.2508 86.6163 66.2774 87.2843 65.4395C88.7003 63.6629 90.2616 62.6954 92.5233 62.4411Z" fill="#3B773B"/>
<path d="M93.9524 69.4445C94.5169 69.4226 94.9868 69.4503 95.4946 69.7246C96.3407 70.1808 96.8649 71.0293 97.1118 71.9371C97.4032 73.0082 97.2559 74.2574 96.6735 75.2097C96.2809 75.8515 95.8594 76.1879 95.1356 76.3742C94.809 76.3847 94.5008 76.3843 94.184 76.2914C93.3618 76.05 92.6962 75.4668 92.3059 74.7093C91.8016 73.7304 91.6844 72.4347 92.0372 71.3886C92.3817 70.3679 93.0247 69.8859 93.9524 69.4445Z" fill="black"/>
<path d="M94.0442 70.0312C94.434 70.0125 94.7981 69.9765 95.1598 70.1465C95.8454 70.4687 96.3086 71.1043 96.5512 71.8074C96.8219 72.5906 96.818 73.5008 96.4114 74.2371C96.102 74.798 95.6708 75.1039 95.0692 75.2894C94.8114 75.291 94.5399 75.2457 94.2942 75.1668C93.5758 74.9359 93.009 74.2597 92.7129 73.5906C92.4075 72.8988 92.3387 72.1074 92.6258 71.3972C92.9067 70.7019 93.3794 70.3316 94.0442 70.0312Z" fill="#EA6F1C"/>
<path d="M29.7319 59.1074C30.9485 59.0296 32.1695 59.1546 33.3453 59.4765C37.8019 60.6648 41.5492 63.2968 44.8805 66.3925C45.8235 67.2691 46.7738 68.1468 47.5672 69.1652C48.0899 69.8359 48.5094 70.5808 48.936 71.3144C47.536 70.2663 46.1613 69.1765 44.5664 68.4347C42.6 67.5206 40.3223 66.9687 38.2193 67.7488C36.6091 68.3531 35.3088 69.5781 34.6099 71.1495C33.427 73.7976 33.887 76.9245 34.9082 79.5425C36.1424 83.2015 37.9855 86.5066 39.9082 89.8425C38.8229 88.8691 37.8962 87.6949 36.9261 86.607C31.9651 81.0433 27.501 74.5648 26.0796 67.1003C25.7136 65.1781 25.4937 62.4495 26.6976 60.7718C27.4328 59.7472 28.5243 59.2952 29.7319 59.1074Z" fill="#8EBA7C"/>
<path d="M54.0757 78.2488C52.0683 74.2941 49.4663 70.468 47.9925 66.2625C46.7018 62.5801 45.6897 55.2726 47.4792 51.7375C47.9901 50.7277 48.8694 49.9015 49.9722 49.5898C51.8515 49.0582 54.1186 50.0539 55.7448 50.9242C59.2933 52.8242 62.4194 56.1629 64.5421 59.5531C65.2499 60.6836 65.8405 61.9051 66.4554 63.0879C67.3976 64.9 68.2831 66.7262 68.8788 68.6855C67.3202 66.059 65.7522 63.4683 63.2104 61.6648C61.7124 60.6016 59.7589 59.8109 57.8995 60.1699C56.2503 60.4883 54.8108 61.5887 53.871 62.9539C51.796 65.9676 52.1659 70.3101 53.0394 73.6773C53.4097 75.1055 53.9718 76.4957 54.2362 77.948L54.2667 78.1195L54.0757 78.2488Z" fill="#8EBA7C"/>
<path d="M17.0609 77.2864C17.7853 77.2297 18.5316 77.2739 19.254 77.3407C24.0527 77.784 30.7349 81.1024 33.8774 84.859C32.9338 84.4168 32.0337 84.0848 31.0034 83.9055C28.676 83.5004 26.3292 83.7336 24.365 85.1422C22.9699 86.1422 21.9584 87.6516 21.6971 89.3606C21.1781 92.7555 23.3581 95.9231 25.2773 98.5008C26.6108 100.252 28.0166 101.814 29.5605 103.379C27.1856 102.261 24.7054 100.953 22.6186 99.3696C17.8076 95.7188 13.0681 89.3055 12.2817 83.2551C12.0992 81.8508 12.0901 80.1067 13.0297 78.9543C13.9907 77.7762 15.63 77.4465 17.0609 77.2864Z" fill="#8EBA7C"/>
<path d="M13.3475 100.042C15.6193 99.7945 20.5534 100.25 22.6167 101.12C23.5677 101.521 24.4565 102.108 25.3636 102.602C26.3172 103.121 27.3096 103.553 28.3128 103.966C25.4609 103.778 23.2625 103.175 20.388 104.109C18.6133 104.686 16.9428 105.853 16.1153 107.571C15.4851 108.879 15.5159 110.359 16.0038 111.704C17.6836 116.335 22.1729 119.267 26.4408 121.239C27.6783 121.768 28.9242 122.276 30.178 122.765C23.9397 122.76 16.609 119.901 11.8396 115.887C8.71727 113.259 5.86446 109.673 5.54223 105.467C5.45411 104.317 5.59247 103.178 6.38899 102.283C7.98684 100.487 11.109 100.169 13.3475 100.042Z" fill="#8EBA7C"/>
<path d="M121.076 42.3187C122.645 42.148 124.544 42.7066 125.878 43.5297C130.307 46.2633 131.192 51.8941 132.27 56.5324C130.499 57.6031 128.789 57.6347 126.775 57.7804C123.832 57.8422 121.312 57.7965 118.825 56.0379C117.062 54.7918 115.877 52.8074 115.528 50.6828C115.207 48.7308 115.552 46.5203 116.744 44.9039C117.818 43.448 119.297 42.5824 121.076 42.3187Z" fill="white"/>
<path d="M121.626 45.614C122.439 45.5316 123.214 45.6351 123.968 45.9542C125.006 46.3933 125.871 47.189 126.271 48.2538C126.767 49.5745 126.722 51.2238 126.109 52.4886C125.45 53.8511 124.382 54.4726 123.008 54.9413C122.186 55.0261 121.523 54.9726 120.77 54.6023C119.556 54.0058 118.67 52.8769 118.253 51.6038C117.851 50.3777 117.784 48.687 118.424 47.5359C119.115 46.2906 120.36 45.9953 121.626 45.614Z" fill="black"/>
<path d="M119.447 47.0417C119.508 47.0425 119.57 47.0421 119.632 47.0441C120.03 47.0609 120.402 47.2476 120.653 47.5566C120.956 47.9257 121.051 48.4109 120.972 48.8757C120.872 49.4566 120.597 49.7703 120.118 50.0871C119.642 50.0898 119.257 50.0296 118.917 49.6628C118.625 49.3464 118.53 48.882 118.579 48.464C118.659 47.7953 118.924 47.4394 119.447 47.0417Z" fill="white"/>
<path d="M124.338 47.0297C124.857 47.1609 125.291 47.4168 125.615 47.8515C125.854 48.1742 125.996 48.5285 125.915 48.9336C125.848 49.2718 125.696 49.4406 125.423 49.6336C124.976 49.6398 124.598 49.6633 124.214 49.3988C123.95 49.2164 123.756 48.9367 123.717 48.6125C123.643 47.9894 123.969 47.4926 124.338 47.0297Z" fill="white"/>
<path d="M92.5184 52.4551C93.0641 52.4051 93.6457 52.3766 94.1926 52.4269C95.632 52.5598 96.7898 53.4648 97.7 54.5262C101.604 59.0785 100.541 68.3062 100.087 73.9117C99.8598 73.0086 99.8375 72.0199 99.7324 71.093C99.4395 68.5074 98.618 66.0594 96.9707 64.0195C96.4699 63.509 95.9395 63.0363 95.3176 62.6769C94.0293 61.9332 92.5477 61.7715 91.1238 62.1738C88.4277 62.9363 86.7754 65.1699 85.4586 67.4891C85.4 65.1848 84.9172 63.0383 84.4961 60.7918C85.0285 59.7543 85.5457 58.6984 86.143 57.6965C87.6492 55.1687 89.609 53.1996 92.5184 52.4551Z" fill="#8EBA7C"/>
<path d="M111.914 77.4317C113.48 76.6664 115.935 75.7758 117.675 76.4071C118.76 76.8008 119.361 77.8613 119.791 78.8676C121.362 82.5481 120.303 87.0758 118.825 90.6168C118.356 91.7406 116.048 96.1395 115.164 96.5274C114.987 96.2563 115.042 95.8832 115.047 95.5703C114.878 95.3356 114.814 95.2063 114.762 94.9121C114.694 94.493 114.504 94.0332 114.274 93.6774C113.636 92.6914 112.643 92.1637 111.533 91.9012L111.656 91.7356C111.826 91.8379 111.729 91.8082 111.952 91.8035C112.19 91.6082 112.25 91.4102 112.3 91.116C112.434 90.3317 112.343 89.3055 111.862 88.6418C111.584 88.2582 111.191 88.0207 110.722 87.9489C109.597 87.7754 108.715 88.4047 107.854 89.0211C108.868 87.7086 109.322 86.2586 109.856 84.711C110.038 84.186 110.187 83.6274 110.481 83.1539C110.431 82.9473 110.422 82.8309 110.47 82.6238C111 80.9211 111.281 79.093 111.914 77.4317Z" fill="#8EBA7C"/>
<path d="M110.481 83.1539C111.795 82.6535 113.145 82.5062 114.472 83.0996C115.537 83.5762 116.347 84.4101 116.732 85.5176C117.817 88.6383 116.093 92.1746 114.762 94.9121C114.694 94.493 114.504 94.0332 114.274 93.6773C113.636 92.6914 112.643 92.1637 111.533 91.9012L111.656 91.7355C111.826 91.8379 111.729 91.8082 111.952 91.8035C112.19 91.6082 112.25 91.4101 112.3 91.116C112.434 90.3316 112.343 89.3054 111.862 88.6418C111.584 88.2582 111.191 88.0207 110.722 87.9488C109.597 87.7754 108.715 88.4047 107.854 89.0211C108.868 87.7086 109.322 86.2586 109.856 84.7109C110.038 84.1859 110.187 83.6273 110.481 83.1539Z" fill="#3B773B"/>
<path d="M110.47 82.6239C110.521 82.6172 110.572 82.6114 110.624 82.6043C111.02 82.55 111.396 82.4016 111.792 82.3395C113.087 82.136 114.45 82.3641 115.515 83.1664C116.592 83.977 117.224 85.2692 117.372 86.5907C117.772 90.1637 116.16 92.4024 115.047 95.5703C114.878 95.3356 114.814 95.2063 114.762 94.9121C116.093 92.1746 117.817 88.6383 116.732 85.5176C116.347 84.4102 115.537 83.5762 114.472 83.0996C113.146 82.5063 111.795 82.6535 110.481 83.1539C110.431 82.9473 110.422 82.8309 110.47 82.6239Z" fill="black"/>
<path d="M135.61 52.2715C135.875 52.2422 136.14 52.2266 136.406 52.2488C138.437 52.4195 143.602 55.641 145.357 56.9668C146.092 57.5148 146.762 58.1441 147.354 58.8426C149.198 61.0344 149.96 63.6195 149.72 66.4613C148.255 64.9535 147.322 63.809 145.296 63.064C144.216 62.7726 143.151 62.5574 142.034 62.4664C138.885 62.2109 134.477 62.664 131.66 61.2883C130.348 60.6476 129.317 59.7148 128.278 58.7113C129.15 58.7098 130.057 58.5906 130.907 58.4019C131.711 58.223 132.715 57.9074 133.149 57.1508C133.688 56.2125 132.838 54.5719 132.545 53.6187C133.449 52.7687 134.431 52.4937 135.61 52.2715Z" fill="#F2BA22"/>
<path d="M104.748 70.725C105.515 70.6832 106.254 70.786 106.936 71.1571C107.996 71.7344 108.635 72.7696 108.981 73.8969C109.816 76.62 109.79 80.1715 109.011 82.9129C108.476 84.7957 107.632 86.6035 106.835 88.3871C106.273 89.6426 105.742 90.9696 105.103 92.184L105.016 92.1418L105.037 91.8301L105.04 91.7114C105.055 89.761 104.377 87.495 102.961 86.0985C101.929 85.0801 100.856 84.7813 99.4541 84.7719C99.8135 83.2688 100.094 81.7477 100.294 80.2153C100.563 78.016 100.708 74.3258 101.492 72.3625C102.46 71.5407 103.484 70.9289 104.748 70.725Z" fill="#3B773B"/>
<path d="M105.678 76.3024C106.137 76.3473 106.471 76.3989 106.853 76.6668C107.502 77.1215 107.888 77.8364 108.022 78.6082C108.205 79.6543 107.949 80.9586 107.301 81.8114C106.897 82.3426 106.495 82.6184 105.835 82.7008C105.335 82.6571 104.863 82.6145 104.431 82.3317C103.689 81.8442 103.297 81.0254 103.155 80.1703C102.997 79.2149 103.092 78.0574 103.702 77.2657C104.238 76.5684 104.845 76.4172 105.678 76.3024Z" fill="black"/>
<path d="M105.102 76.8621C105.436 76.8398 105.822 76.7941 106.145 76.8961C106.611 77.0433 107.009 77.4285 107.233 77.8547C107.615 78.5781 107.631 79.5285 107.354 80.2883C107.105 80.9699 106.701 81.4066 106.055 81.7211C105.881 81.7179 105.714 81.7121 105.542 81.6785C104.937 81.5597 104.422 81.1562 104.09 80.6433C103.678 80.0199 103.551 79.2512 103.74 78.5285C103.945 77.7711 104.431 77.2359 105.102 76.8621Z" fill="#EA6F1C"/>
<path d="M86.9467 164.484C88.1271 165.12 89.2346 165.739 90.5365 166.097C90.4072 169.875 90.5725 173.544 90.7307 177.313C93.515 177.189 97.3439 178.663 99.5232 180.4C100.184 180.927 101.646 182.044 101.742 182.919C101.689 183.045 101.683 183.135 101.556 183.207C100.284 183.934 97.4123 181.121 96.2603 180.522C95.2877 180.016 94.2244 179.7 93.1834 179.368C94.1166 180.132 95.2783 180.612 96.2689 181.303C97.3666 182.068 100.436 184.883 100.552 186.19C100.574 186.434 100.479 186.617 100.305 186.783C100.071 187.005 99.7029 187.093 99.3896 187.064C98.8814 187.016 98.3662 186.731 97.9154 186.505C96.2998 185.699 95.1225 184.82 93.9646 183.439C93.1658 182.484 92.4709 181.445 91.7877 180.406C91.4557 179.901 91.1353 179.307 90.7385 178.855C90.5916 178.688 90.5162 178.641 90.3119 178.577L90.2369 178.7C90.3998 180.554 93.9119 184.559 94.7787 186.462C95.1006 187.169 95.3596 188.153 95.0787 188.905C94.8908 189.076 94.851 189.136 94.5814 189.13C93.3385 189.103 90.8057 185.966 90.0029 184.973C89.0475 183.79 87.6658 181.975 87.4912 180.415C87.4088 179.679 87.5443 178.878 87.6217 178.145C85.6869 178.525 84.558 179.692 82.9365 180.686C83.2287 180.052 83.5365 179.409 83.9346 178.832C84.9037 177.429 86.0139 177.117 87.6049 176.822C87.3119 172.751 86.7061 168.57 86.9467 164.484Z" fill="#F2BA22"/>
<path d="M65.3715 102.674C65.7778 102.75 66.193 102.828 66.5785 102.982C69.484 104.143 71.3266 107.457 72.5094 110.17L72.7934 110.314C73.6418 111.609 74.6684 113.641 75.3633 115.038C75.9332 116.183 76.6735 118.189 77.5391 119.065L77.5367 119.57C77.4852 119.726 77.5246 119.646 77.3922 119.811C76.8082 120.54 76.2703 121.289 75.7785 122.083C72.4352 118.863 69.177 115.752 66.4094 112.001C65.6184 110.929 64.811 109.826 64.2539 108.611C63.6668 107.33 63.1738 105.609 63.7301 104.246C64.052 103.459 64.6106 103.003 65.3715 102.674Z" fill="#8EBA7C"/>
<path d="M72.5093 110.17L72.7933 110.314C73.6417 111.609 74.6683 113.641 75.3632 115.038C75.9331 116.183 76.6733 118.189 77.539 119.065L77.5366 119.57C76.3499 118.149 75.4995 115.874 74.664 114.2C73.9851 112.838 73.2347 111.507 72.5093 110.17Z" fill="black"/>
<path d="M111.565 165.919C112.758 165.745 113.933 165.467 115.078 165.088C115.253 165.774 115.338 166.416 115.362 167.123C115.384 167.747 115.049 170.67 115.521 170.962C116.146 171.349 117.498 171.158 118.214 171.131C122.297 170.977 126.338 171.267 129.568 174.025C126.585 174.471 123.276 172.945 120.29 172.515C120.238 172.586 120.176 172.653 120.147 172.737C122.455 173.486 127.973 175.086 129.074 177.447C129.179 177.673 129.165 177.772 129.074 177.995C128.51 178.383 127.733 178.163 127.114 178.03C126.258 177.847 125.371 177.655 124.573 177.286C122.949 176.536 120.9 175.405 119.385 174.452C118.415 173.841 117.483 173.124 116.474 172.582C116.19 172.43 115.888 172.259 115.559 172.261C115.705 173.111 119.21 175.295 120.129 175.8C121.322 176.454 122.624 176.94 123.757 177.696C124.574 178.241 125.232 179.148 126.004 179.791C125.756 180.055 125.446 180.475 125.087 180.574C124.721 180.675 124.181 180.519 123.835 180.401C122.962 180.103 122.149 179.568 121.312 179.179C119.784 178.468 118.161 177.924 116.735 177.014C114.96 175.882 113.409 174.164 112.94 172.05C113.052 171.764 112.98 171.545 112.916 171.258C112.578 169.541 112.356 167.489 111.565 165.919Z" fill="#F2BA22"/>
<path d="M120.147 172.737C119.953 172.694 119.779 172.615 119.596 172.54L119.554 172.407C119.828 172.329 120.033 172.427 120.29 172.515C120.238 172.586 120.176 172.653 120.147 172.737Z" fill="black"/>
<path d="M76.3368 97.9602C77.0493 97.875 77.5548 97.9785 78.1634 98.3809C79.0583 98.9727 79.6009 99.8981 80.0915 100.823C82.2857 104.955 82.6095 109.489 83.6201 113.973C82.7411 114.647 81.863 115.3 81.038 116.042C80.6802 116.352 80.3474 116.686 80.0118 117.019C79.5083 115.791 79.0294 114.555 78.5036 113.336C77.0033 109.854 74.0724 103.941 74.8806 100.11C75.0861 99.1367 75.5197 98.5098 76.3368 97.9602Z" fill="#8EBA7C"/>
<path d="M54.3702 113.412C56.7429 113.164 59.1331 113.806 61.3073 114.707C62.6987 115.283 64.0437 116.023 65.3065 116.844C66.4858 117.611 74.0163 123.439 74.3023 124.36C74.3421 124.488 74.2698 124.564 74.2175 124.677C73.894 124.716 73.6694 124.601 73.398 124.426C72.6773 123.961 72.021 123.314 71.3706 122.753C69.7148 121.328 68.0948 119.815 66.3198 118.538C64.8237 117.461 63.0233 116.342 61.2226 115.873C59.4347 115.407 57.2183 115.338 55.5925 116.338C54.6605 116.911 54.0382 117.768 53.8026 118.838C53.3753 120.781 54.1167 122.39 55.1237 123.993C57.5038 127.427 61.053 128.596 64.7495 130.014C65.9401 130.471 67.1077 131.011 68.2886 131.496C69.0487 131.808 70.1804 132.106 70.7679 132.691C70.9034 132.827 70.862 132.761 70.8722 132.971C69.8202 133.161 60.7944 129.599 59.3632 128.951C58.0667 128.364 56.7706 127.705 55.5804 126.925C53.1144 125.308 49.669 122.416 49.0987 119.34C48.8679 118.094 49.1339 116.845 49.8792 115.816C50.9546 114.329 52.6112 113.661 54.3702 113.412Z" fill="#F2BA22"/>
<path d="M105.268 62.143C105.512 62.1133 105.716 62.1106 105.96 62.1367C106.729 62.6055 106.791 63.9192 107.271 64.6469C107.473 64.9527 107.673 65.1418 108.042 65.2082C109.036 64.7656 108.337 64 108.71 63.4031C109.193 63.7414 109.275 64.5805 109.528 65.0922C109.787 65.6176 110.462 65.702 110.966 65.8785C112.56 69.5902 111.205 77.2723 109.836 80.9785C109.878 80.2371 109.948 79.5078 110.044 78.7715C110.116 76.6637 109.799 73.7477 108.515 71.9953C107.833 71.0641 106.843 70.4016 105.685 70.2645C103.902 70.0539 102.56 70.9356 101.235 71.9746C101.486 69.3106 101.578 66.634 101.512 63.9586C102.557 62.9957 103.864 62.3641 105.268 62.143Z" fill="#8EBA7C"/>
<path d="M67.706 116.859C63.4044 113.612 59.2786 109.41 56.6185 104.69C54.9712 101.767 53.6946 97.9367 54.6638 94.5895C55.0282 93.3305 55.7634 92.1899 56.9474 91.5629C58.0896 90.9582 59.4196 90.9805 60.6341 91.3379C64.5134 92.4789 67.4513 96.6254 69.3017 100.018L68.9325 100.081C67.2638 97.8574 65.4349 95.6453 62.4911 95.2301C61.22 95.0504 59.9907 95.3516 58.9669 96.1328C57.9251 96.9274 57.3923 98.0711 57.2501 99.3547C56.8481 102.989 59.1849 106.959 61.3755 109.67C62.5778 111.157 64.0431 112.094 65.3911 113.387C66.3583 114.315 67.1435 115.457 68.0829 116.424L67.706 116.859Z" fill="#F2BA22"/>
<path d="M71.3061 130.969C68.8295 129.846 66.0354 128.954 63.8717 127.255C62.5721 126.235 61.0842 124.619 60.9264 122.902C60.8709 122.3 60.9983 121.696 61.3963 121.228C61.8131 120.737 62.4295 120.487 63.0596 120.431C65.6342 120.2 69.1823 122.488 71.0971 124.029L71.2569 123.85C71.9233 124.376 72.6694 125.396 73.4084 125.723L73.3049 125.957C72.6612 127.639 71.9026 129.266 71.3061 130.969Z" fill="#8EBA7C"/>
<path d="M71.2569 123.85C71.9233 124.376 72.6694 125.396 73.4085 125.723L73.305 125.957C72.5206 125.415 71.8097 124.668 71.0972 124.029L71.2569 123.85Z" fill="black"/>
<path d="M112.169 15.817C111.85 15.2676 111.747 14.6 111.924 13.9801C112.109 13.3297 112.656 12.8488 113.244 12.5588C114.039 12.1671 114.923 12.1534 115.75 12.4509C116.919 12.8711 117.864 13.797 118.366 14.9282C118.588 15.4299 118.85 16.0393 118.928 16.5843C119.323 17.5765 119.592 18.687 119.672 19.7535C120.234 21.9044 120.151 24.3081 120.246 26.5131C120.333 28.5237 120.511 30.4807 120.842 32.4657C120.353 32.6021 119.842 32.6552 119.34 32.7279C118.856 30.9186 118.707 29.0452 118.315 27.2159C117.384 22.8729 114.958 19.1893 112.169 15.817Z" fill="#FA3948"/>
<path d="M112.169 15.817C111.85 15.2676 111.747 14.6 111.924 13.9801C112.109 13.3297 112.656 12.8488 113.244 12.5588C114.039 12.1671 114.923 12.1534 115.75 12.4509C116.919 12.8711 117.864 13.797 118.366 14.9282C118.588 15.4299 118.85 16.0393 118.928 16.5843L118.887 17.1042C118.708 17.0149 118.643 16.9272 118.514 16.7781C118.343 16.4 118.154 16.0304 117.948 15.6704C117.368 14.6609 116.401 13.6747 115.246 13.3897C114.646 13.2415 114.045 13.3336 113.519 13.6597C112.899 14.0429 112.482 14.5541 112.341 15.2708C112.309 15.4315 112.287 15.549 112.223 15.7039C112.207 15.7424 112.187 15.7793 112.169 15.817Z" fill="white"/>
<path d="M118.928 16.5844C119.324 17.5765 119.592 18.687 119.672 19.7535L119.617 19.8537L119.483 19.8267C119.016 18.957 118.808 17.7372 118.515 16.7781C118.643 16.9272 118.708 17.0149 118.887 17.1042L118.928 16.5844Z" fill="white"/>
<path d="M107.379 15.0544C108.225 15.0103 108.877 15.029 109.646 15.4113C111.274 16.1232 113.313 18.3225 114.037 19.9223C114.349 20.4763 114.747 20.9987 115.078 21.5458C115.877 22.8601 116.543 24.2507 117.065 25.6972C117.914 28.0712 118.213 30.6007 118.989 32.9985C118.587 33.1013 118.182 33.1857 117.777 33.2726C116.94 32.0401 116.466 30.3766 115.831 29.0118C113.529 24.064 110.813 22.0271 106.309 19.3221C106.081 19.1891 105.871 19.0519 105.73 18.8232C105.418 18.3189 105.404 17.7209 105.568 17.1655C105.866 16.1544 106.499 15.5596 107.379 15.0544Z" fill="#FA3948"/>
<path d="M107.379 15.0544C108.225 15.0103 108.877 15.029 109.646 15.4113C109.511 15.4729 109.498 15.5068 109.352 15.4771C109.206 15.4471 109.126 15.478 108.988 15.5222L108.765 15.7516C109.002 15.9365 109.32 15.7567 109.506 15.9879L109.482 16.1165C108.993 16.0427 108.497 15.9452 108.002 15.9321C107.279 16.2972 106.671 16.6954 106.426 17.5175C106.243 18.1291 106.293 18.6986 106.309 19.3221C106.081 19.1891 105.871 19.0519 105.73 18.8232C105.418 18.3189 105.404 17.7209 105.568 17.1655C105.866 16.1544 106.499 15.5596 107.379 15.0544Z" fill="white"/>
<path d="M109.646 15.4113C111.273 16.1232 113.313 18.3224 114.037 19.9222C112.672 19.2639 111.687 17.1138 109.482 16.1164L109.506 15.9878C109.32 15.7566 109.002 15.9365 108.765 15.7515L108.988 15.5221C109.126 15.4779 109.206 15.447 109.352 15.477C109.498 15.5068 109.511 15.4728 109.646 15.4113Z" fill="white"/>
<path d="M64.9301 112.62C63.302 111.494 61.8286 109.751 60.7126 108.128C58.9012 105.495 57.084 101.973 57.7469 98.6738C57.9606 97.6085 58.4251 96.9902 59.3387 96.398C60.4848 95.655 61.7227 95.4777 63.0458 95.7918C66.2547 96.5535 68.5145 100.056 70.1016 102.712C69.9348 102.955 69.8344 103.078 69.5739 103.235C68.6235 102.168 67.4469 101.104 66.0895 100.594C65.1551 100.243 64.129 100.2 63.2204 100.653C62.3727 101.076 61.8415 101.839 61.5794 102.734C60.511 106.378 63.2891 109.682 64.9301 112.62Z" fill="#0B8DCB"/>
<path d="M102.56 25.1319C102.397 24.8611 102.263 24.5898 102.21 24.2751C102.065 23.4516 102.257 22.6043 102.744 21.9242C103.242 21.2353 104.01 20.83 104.847 20.7303C106.745 20.5041 108.835 21.9938 110.234 23.115C110.949 23.6764 111.638 24.2712 112.223 24.9704C114.645 27.4121 115.625 30.7255 117.324 33.615L116.335 34.1823C115.778 33.5585 115.299 32.877 114.751 32.2462C112.861 30.0684 110.56 28.0977 107.8 27.1453C106.869 26.824 104.906 26.5468 104.179 26.1186C103.47 25.9292 103.053 25.6757 102.56 25.1319Z" fill="#FA3948"/>
<path d="M102.56 25.1319C102.397 24.8611 102.263 24.5898 102.21 24.2751C102.065 23.4516 102.257 22.6043 102.744 21.9242C103.242 21.2353 104.01 20.83 104.847 20.7303C106.745 20.5041 108.835 21.9938 110.234 23.115C110.176 23.2738 110.137 23.383 110.036 23.5207C108.704 22.5398 106.936 21.2008 105.176 21.414C104.535 21.4918 104.001 21.8309 103.612 22.34C103.12 22.9818 102.811 23.9187 102.949 24.7298C102.965 24.8255 102.981 24.8679 103.009 24.9673L102.56 25.1319Z" fill="white"/>
<path d="M110.234 23.115C110.949 23.6764 111.638 24.2712 112.223 24.9704L111.936 25.0387C111.258 24.6388 110.65 24.0209 110.036 23.5207C110.137 23.383 110.176 23.2738 110.234 23.115Z" fill="white"/>
<path d="M103.009 24.9673C103.348 25.2404 104.093 25.6856 104.179 26.1186C103.47 25.9292 103.053 25.6756 102.56 25.1319L103.009 24.9673Z" fill="white"/>
<path d="M66.8898 146.198C63.973 146.242 60.4503 145.686 57.8558 144.316C56.3952 143.544 54.9495 142.284 54.4773 140.65C54.0984 139.338 54.305 137.738 55.0027 136.573C55.9355 135.014 57.7562 133.984 59.4898 133.587C62.312 132.94 65.5183 133.485 68.3034 134.11C68.912 134.246 69.796 134.381 70.3152 134.74C70.5155 134.879 70.4925 134.941 70.5245 135.169L70.3804 135.327C69.7128 135.488 68.7195 135.09 68.0429 134.977C65.6261 134.574 62.4788 134.472 60.3999 135.996C59.3753 136.747 58.6792 137.847 58.4878 139.107C58.2987 140.351 58.6046 141.578 59.3878 142.566C61.3519 145.045 65.073 145.272 67.9585 145.593C68.7933 145.598 71.6792 145.434 72.232 145.93C72.3437 146.03 72.3546 146.058 72.432 146.17L72.3722 146.323C71.5331 146.53 67.7566 146.407 66.8898 146.198Z" fill="#F2BA22"/>
<path d="M67.9579 145.593C68.7927 145.598 71.6786 145.434 72.2313 145.93C72.3431 146.03 72.354 146.058 72.4313 146.17L72.3716 146.323C71.5325 146.53 67.756 146.407 66.8892 146.198C67.0161 146.186 67.1438 146.177 67.2708 146.163C68.1013 146.072 69.9899 146.319 70.6118 145.995C70.5907 145.984 70.5692 145.975 70.5485 145.964C69.8708 145.613 68.6864 146.077 68.086 145.687C68.0415 145.659 68.0005 145.625 67.9579 145.593Z" fill="#F2BA22"/>
<path d="M120.151 16.6049C120.04 15.6394 119.935 14.7319 120.582 13.9094C120.993 13.386 121.594 13.0994 122.251 13.0459C123.183 12.9701 124.137 13.3191 124.84 13.9272C125.654 14.6318 126.025 15.5931 126.078 16.6522C126.152 18.1433 125.76 19.439 125.138 20.7754C124.898 21.6488 124.255 22.5292 123.909 23.3874C122.703 26.3776 122.677 29.1108 122.889 32.2638C122.379 32.2599 121.867 32.2877 121.358 32.3032C120.95 29.1738 121.173 26.0709 121.002 22.9304C120.886 20.795 120.405 18.7227 120.151 16.6049Z" fill="#FA3948"/>
<path d="M120.151 16.6049C120.04 15.6394 119.935 14.7319 120.582 13.9094C120.993 13.386 121.594 13.0994 122.251 13.0459C123.183 12.9701 124.137 13.3191 124.84 13.9272C125.654 14.6318 126.025 15.5931 126.078 16.6522C126.152 18.1433 125.76 19.439 125.138 20.7754C124.877 20.1861 125.219 18.8831 125.287 18.2167C125.389 17.2117 125.461 15.9494 124.752 15.1384C124.115 14.4089 123.133 14.2258 122.216 14.1859C121.287 14.6458 120.721 15.4308 120.386 16.3965L120.342 16.5272L120.151 16.6049Z" fill="white"/>
<path d="M96.6914 97.4686C97.0516 97.4276 97.384 97.4104 97.7328 97.5308C98.5051 97.7968 99.0105 98.3905 99.3367 99.1202C100.367 101.424 99.8535 105.323 98.941 107.616C97.977 107.82 96.9867 107.958 96.0168 108.138C95.1711 108.345 94.3152 108.532 93.498 108.836C94.1242 106.364 93.8543 103.637 94.2652 101.116C94.523 99.5339 95.4203 98.3737 96.6914 97.4686Z" fill="#8EBA7C"/>
<path d="M60.9891 128.048C59.936 127.562 58.8961 126.948 57.9516 126.276C56.1906 125.023 54.4621 122.853 54.1473 120.66C53.9871 119.542 54.2258 118.393 54.9336 117.498C55.659 116.58 56.7414 116.11 57.8824 115.978C61.1086 115.606 63.9067 117.348 66.3348 119.255L65.8817 119.457C64.284 118.623 62.6539 118.014 60.8352 118.576C60.0071 118.832 59.2738 119.365 58.8754 120.147C58.2453 121.384 58.5469 122.952 58.9973 124.203C59.4844 125.557 60.3449 126.176 61.0586 127.298C61.0653 127.338 61.0707 127.379 61.0789 127.419C61.1082 127.566 61.1485 127.648 61.2246 127.773L60.9891 128.048Z" fill="#0B8DCB"/>
<path d="M71.6771 102.78C71.2619 101.867 70.824 100.961 70.4439 100.033C68.9924 96.4895 67.5545 91.8547 69.135 88.1254C69.5342 87.1828 70.1623 86.3367 71.1459 85.959C72.1928 85.5567 73.415 85.6559 74.415 86.1438C77.5529 87.6754 79.1279 92.2731 80.1322 95.3856L80.0111 95.8281L79.8455 95.8863C79.0143 93.575 77.8768 91.0406 75.51 89.9469C74.7279 89.5852 73.8764 89.4535 73.0553 89.7676C72.0213 90.1633 71.2166 91.1402 70.8174 92.1492C69.6568 95.0797 71.0303 99.5926 72.156 102.341C71.9928 102.483 71.8228 102.62 71.6771 102.78Z" fill="#F2BA22"/>
<path d="M68.4759 145.159C65.929 145.062 61.8982 144.657 60.0884 142.695C59.2716 141.809 58.7372 140.566 58.8236 139.349C58.9056 138.188 59.5665 137.171 60.4568 136.452C62.4744 134.822 65.5935 135.097 67.9994 135.391L68.1947 136.061C66.7318 136.414 65.1099 136.934 64.3087 138.319C63.8357 139.136 63.6923 140.166 63.9509 141.077C64.2935 142.282 65.3935 143.228 66.4665 143.804C67.108 144.148 67.7779 144.379 68.4771 144.574C68.4833 144.77 68.4962 144.963 68.4759 145.159Z" fill="#0B8DCB"/>
<path d="M72.9952 103.266C72.7592 102.788 72.546 102.3 72.3553 101.803C71.3835 99.2784 70.0854 94.528 71.2854 91.9757C71.6702 91.157 72.3796 90.4046 73.2573 90.1249C74.0237 89.8804 74.8077 90.0659 75.5018 90.4312C78.1612 91.8304 79.2159 95.007 80.0237 97.6921L79.8452 97.905C79.3971 97.3347 78.9483 96.8081 78.371 96.3663C77.6389 95.8058 76.6667 95.3179 75.7194 95.4784C75.0245 95.5964 74.476 96.1003 74.0831 96.6589C72.6866 98.6445 72.6256 100.965 72.9952 103.266Z" fill="#0B8DCB"/>
<path d="M98.1084 89.9598C98.7107 89.9219 99.2576 90.0008 99.8177 90.2332C100.756 90.6223 101.37 91.3824 101.758 92.3027C102.676 94.4824 102.549 96.998 102.074 99.2644C101.97 99.7633 101.886 100.323 101.684 100.788C101.586 101.013 101.659 100.946 101.46 101.027C100.884 99.7926 101.17 98.2691 100.456 96.9586C100.437 96.923 100.417 96.8883 100.397 96.8527C100.008 96.3363 99.5224 95.8488 98.9673 95.5129C98.233 95.068 97.4021 94.9348 96.5724 95.1703C95.3302 95.5226 94.6896 96.391 94.1189 97.4707C93.9408 96.214 94.0087 94.9019 94.056 93.6359C95.1525 91.9426 96.0662 90.5754 98.1084 89.9598Z" fill="#0B8DCB"/>
<path d="M93.9996 93.2149C93.7785 91.2739 94.059 90.1196 95.2847 88.5973C96.3054 87.3297 97.8312 86.1746 99.5012 86.0434C100.466 85.9672 101.373 86.2563 102.086 86.9188C103.744 88.4602 103.975 91.0797 104.008 93.2004C104.059 96.4247 103.252 99.6532 102.23 102.683C102.062 102.584 101.928 102.475 101.776 102.353C102.646 99.045 103.735 94.7871 101.883 91.6282C101.319 90.6645 100.488 89.9528 99.3972 89.6661C98.4086 89.4067 97.4785 89.6332 96.6203 90.1582C95.4012 90.9032 94.6316 91.9586 93.9996 93.2149Z" fill="#F2BA22"/>
<path d="M128.995 60.9187C130.013 61.3769 130.841 62.1906 131.931 62.6027C135.164 63.825 140.881 63.164 144.596 63.6851C143.914 64.1812 143.216 64.6109 142.484 65.0304C141.976 65.3136 141.461 65.5859 140.941 65.8476C138.924 66.8574 136.461 67.5101 134.256 66.7515C131.542 65.8183 130.174 63.3707 128.995 60.9187Z" fill="#F2BA22"/>
<path d="M104.536 102.225C105.572 100.209 106.92 97.2031 109.275 96.4551C109.402 96.4149 109.528 96.3809 109.656 96.3473C110.671 96.6172 111.44 97.0028 112.002 97.9434C113.036 99.6735 112.74 101.86 112.236 103.701C112.053 104.352 111.861 105.001 111.661 105.647C111.464 104.18 111.166 102.421 109.881 101.485C109.272 101.041 108.518 100.888 107.78 101.025C106.699 101.225 105.814 101.95 104.969 102.605L104.536 102.225Z" fill="#0B8DCB"/>
<path d="M105.016 99.0003C105.575 97.0925 107.583 94.6437 109.334 93.7125C109.991 93.3628 110.661 93.2171 111.388 93.1082C112.496 93.5558 113.265 94.091 113.766 95.2316C114.741 97.4546 114.171 100.477 113.4 102.673C113.397 102.685 113.39 102.696 113.385 102.708C113.143 102.846 113.094 103.041 112.986 103.286L112.924 103.429C112.925 103.119 112.919 102.815 112.899 102.506C112.912 101.964 113.058 101.405 113.076 100.852C113.124 99.4316 112.915 98.1082 111.881 97.0406C111.312 96.4535 110.522 95.9703 109.679 95.9957C108.392 96.0343 107.326 97.3117 106.496 98.1617C105.378 99.6359 104.75 101.658 103.62 102.893C104.014 101.666 104.347 100.101 105.016 99.0003Z" fill="#F2BA22"/>
<path d="M105.016 99.0004C105.037 99.0391 105.066 99.075 105.08 99.1172C105.146 99.3145 105.113 99.3992 105.255 99.5778L105.268 99.5262L105.407 99.5789C105.439 99.5246 105.475 99.4731 105.502 99.4168C105.602 99.2117 105.656 98.9926 105.773 98.791C105.945 98.4953 106.17 98.2512 106.496 98.1617C105.378 99.636 104.75 101.658 103.62 102.893C104.014 101.666 104.347 100.101 105.016 99.0004Z" fill="#F2BA22"/>
<path d="M119.964 99.4176C120.069 99.4879 120.155 99.5629 120.279 99.593C119.582 101.691 118.751 104.334 116.899 105.702C116.168 106.242 115.283 106.62 114.479 107.041C113.883 107.025 113.298 106.89 112.714 106.777C113.965 105.4 114.41 102.886 114.866 101.104C115.954 100.677 117.141 100.318 118.276 100.038C118.746 99.9211 119.288 99.8863 119.737 99.7117C119.912 99.6438 119.891 99.5813 119.964 99.4176Z" fill="#0B8DCB"/>
<path d="M137.532 40.8207C137.926 40.8082 138.215 40.8613 138.566 41.041C140.39 41.9742 141.44 44.3109 142.032 46.1613C142.792 48.5355 142.463 51.1023 141.326 53.2941C140.717 53.0305 140.133 52.6957 139.547 52.3836C139.847 52.2074 140.131 52.0211 140.4 51.7984C141.291 51.0598 141.629 50.2758 141.739 49.1492C141.736 47.6859 141.679 46.141 140.665 44.9711C140.126 44.3488 139.362 43.9711 138.534 43.9563C137.988 43.9441 137.461 44.1523 137.071 44.5336C135.634 45.9227 136.52 47.4813 136.473 49.1234C136.472 49.1543 136.47 49.1852 136.469 49.216C136.334 48.9379 136.205 48.6566 136.082 48.373C135.356 46.6605 135.344 43.9285 136.075 42.2266C136.395 41.4789 136.789 41.125 137.532 40.8207Z" fill="white"/>
<path d="M78.8065 98.2727C78.3002 97.852 77.7635 97.5204 77.0994 97.4407C76.4932 97.368 75.9424 97.5512 75.476 97.9418C71.8487 100.98 77.0619 111.17 78.4717 114.574C78.7803 115.319 79.5545 116.79 79.4229 117.601C79.392 117.79 79.4158 117.718 79.2389 117.853C79.1748 117.793 79.1455 117.771 79.0932 117.687C78.4479 116.647 78.0342 115.195 77.5471 114.056C75.9475 110.319 72.5616 103.497 73.3924 99.4793C73.6158 98.4004 74.1666 96.9606 75.1268 96.3582C75.692 96.0036 76.3248 95.9403 76.9631 96.109C78.1178 96.4145 78.8576 97.227 79.4588 98.2102C79.4229 98.2028 79.3869 98.1961 79.3514 98.1871C79.2233 98.1551 79.1561 98.118 79.0502 98.0442L78.8065 98.2727Z" fill="#F2BA22"/>
<path d="M114.948 100.493C115.462 98.882 116.365 96.7996 117.971 96.0086C119.089 95.4578 120.431 95.4824 121.646 95.489C121.341 96.9121 121.053 98.3355 120.279 99.5929C120.155 99.5629 120.069 99.4879 119.964 99.4176C118.312 98.9961 116.531 100.063 114.948 100.493Z" fill="#F2BA22"/>
<path d="M107.728 103.036C107.755 103.039 107.782 103.041 107.809 103.045C108.535 103.15 109.183 103.395 109.606 104.027C110.177 104.88 110.111 106.062 109.924 107.026L106.47 107.035C105.597 107.038 104.738 107.046 103.868 107.135C104.945 105.455 105.836 103.877 107.728 103.036Z" fill="#8EBA7C"/>
<path d="M64.7409 129.107C62.9069 128.428 61.0737 126.805 60.0557 125.148C59.2795 123.884 58.826 122.284 59.2073 120.814C59.3795 120.15 59.7826 119.622 60.3752 119.279C61.6674 118.53 63.0108 118.859 64.3467 119.244C64.2424 119.493 64.1338 119.741 64.0209 119.988C63.0631 119.891 62.2256 119.853 61.4248 120.499C60.8162 120.99 60.5127 121.707 60.467 122.477C60.3717 124.076 61.3159 125.491 62.3553 126.618C63.1565 127.486 64.1073 128.157 65.1217 128.752C64.8967 128.734 64.6979 128.716 64.4721 128.743C64.5955 128.871 64.6975 128.931 64.7409 129.107Z" fill="#F2BA22"/>
<path d="M69.4265 137.513C69.6495 137.489 69.8378 137.494 70.0605 137.52C70.1359 137.702 70.1288 137.637 70.1355 137.813C70.2117 139.848 70.421 141.786 70.9449 143.759C70.3495 143.539 69.7761 143.272 69.1992 143.009L69.0691 142.929C68.1492 142.377 67.2581 141.686 66.9495 140.603C66.7902 140.044 66.8402 139.43 67.1335 138.923C67.6257 138.071 68.5277 137.745 69.4265 137.513Z" fill="#8EBA7C"/>
<path d="M68.2357 143.977C66.9865 143.539 65.7193 143.045 64.9424 141.901C64.472 141.209 64.2763 140.38 64.4494 139.557C64.6494 138.603 65.3162 137.823 66.1158 137.3C67.2392 136.564 68.8709 136.159 70.1967 136.419L70.2888 136.603C70.0279 137.22 67.6326 137.046 66.6697 138.516C66.2763 139.118 66.2013 139.855 66.3482 140.547C66.6138 141.8 67.433 142.541 68.4674 143.185L68.2357 143.977Z" fill="#F2BA22"/>
<path d="M108.127 51.4114C108.206 51.4786 108.237 51.4856 108.273 51.577C108.445 52.0129 107.963 63.3672 107.666 64.0254L107.528 64.0485L107.411 63.8387C107.293 63.5774 107.183 63.3079 107.093 63.0356C106.238 60.436 106.917 53.8231 108.127 51.4114Z" fill="#FA3948"/>
<path d="M108.252 92.5824C108.087 91.9812 107.966 91.4144 108.057 90.7879C108.174 89.9824 108.592 89.2007 109.268 88.7308C109.686 88.4402 110.212 88.2843 110.716 88.4113C111.105 88.5089 111.414 88.7671 111.609 89.1136C112.055 89.9062 111.868 90.9003 111.656 91.7355L111.533 91.9011C110.435 91.8793 109.295 92.2851 108.252 92.5824Z" fill="#EA6F1C"/>
<path d="M102.931 107.004C103.847 105.018 105.139 102.421 107.358 101.622C108.008 101.388 108.674 101.427 109.293 101.734C110.175 102.172 110.735 102.94 111.01 103.872C111.207 104.541 111.451 106.2 111.017 106.785C110.945 106.882 110.873 106.931 110.782 107.002L110.618 106.971C110.04 105.835 111.042 103.507 108.775 102.762C108.131 102.552 107.43 102.61 106.83 102.924C105.117 103.811 103.962 106.77 103.329 107.078L102.931 107.004Z" fill="#F2BA22"/>
<path d="M61.9038 104.254C61.8187 103.579 62.0608 102.729 62.4249 102.161C62.8362 101.52 63.4831 101.032 64.2355 100.879C65.1718 100.688 65.9968 100.987 66.7827 101.477L66.6081 101.536L66.7226 101.59C67.5437 101.988 68.0972 102.598 68.73 103.238L68.6046 103.366C68.4534 103.312 68.3073 103.256 68.1612 103.189L67.9862 103.24C67.1366 102.683 66.2023 102.14 65.1409 102.33C64.5128 102.443 64.0011 102.816 63.6483 103.341C63.2292 103.964 63.0941 104.664 62.9991 105.396L62.7378 104.923C62.6608 104.909 62.5401 104.89 62.4679 104.87C62.1378 104.776 62.0745 104.532 61.9038 104.254Z" fill="#F2BA22"/>
<path d="M93.8755 100.19C93.9731 99.3477 94.0731 98.5309 94.4489 97.7578C94.8927 96.8453 95.6642 96.0719 96.645 95.7602C97.3677 95.5301 98.1528 95.5809 98.8169 95.9582C99.7665 96.4981 100.271 97.5317 100.544 98.5457C100.456 98.7313 100.415 98.7274 100.472 98.934C100.536 99.1711 100.609 99.327 100.498 99.5508C100.334 99.602 100.262 99.6399 100.09 99.6047L100.04 99.6856C99.6665 98.7496 99.2274 97.777 98.3118 97.2551C97.8001 96.9629 97.2013 96.8829 96.6356 97.0563C95.2645 97.4766 94.4653 98.9989 93.8755 100.19Z" fill="#F2BA22"/>
<path d="M61.9038 104.253C62.0745 104.532 62.1378 104.776 62.4679 104.87C62.5401 104.89 62.6608 104.909 62.7378 104.923L62.9991 105.396C63.2694 110.189 67.8562 114.746 70.9601 118.164L70.7624 118.466C68.1175 115.849 64.1261 111.117 62.6745 107.707C62.203 106.599 61.9296 105.459 61.9038 104.253Z" fill="#F2BA22"/>
<path d="M71.8732 105.863C73.4744 108.379 74.6166 111.022 75.9771 113.662C76.658 114.983 77.5498 116.28 78.1576 117.62C78.2936 117.919 78.5143 118.393 78.4158 118.729C78.4076 118.757 78.3916 118.782 78.3795 118.809C78.1619 118.794 78.1471 118.76 78.0139 118.594C77.3463 117.761 76.4271 115.491 75.8932 114.425C74.5014 111.65 72.9346 108.944 71.7588 106.064L71.8732 105.863Z" fill="#0B8DCB"/>
<path d="M81.8965 103.728L81.9699 103.698L82.1473 103.857L82.3371 103.657C83.0145 105.812 83.9629 109.132 84.148 111.324C84.3055 112.041 84.5402 112.745 84.3352 113.472L84.2012 113.523C83.7402 112.991 83.7422 112.163 83.6543 111.493C83.3316 110.694 83.2488 109.658 83.0621 108.806C82.6906 107.109 82.2504 105.429 81.8965 103.728Z" fill="#F2BA22"/>
<path d="M83.6543 111.493L83.7414 111.426L83.7773 110.659L83.952 111.254L84.148 111.324C84.3055 112.041 84.5402 112.745 84.3352 113.472L84.2012 113.523C83.7402 112.991 83.7422 112.163 83.6543 111.493Z" fill="#F2BA22"/>
<path d="M90.9689 96.0852C91.9283 98.9149 91.9271 103.595 91.8893 106.646C91.9826 107.527 92.0404 108.43 92.2111 109.298L91.9338 109.544L91.7635 109.497C91.4756 107.694 91.5213 105.728 91.4135 103.897C91.6596 102.036 91.185 97.9793 90.4854 96.2086L90.9689 96.0852Z" fill="#F2BA22"/>
<path d="M100.544 98.5458C101.146 100.342 100.997 105.63 100.1 107.263C99.9742 107.493 99.8683 107.58 99.6336 107.684L99.4648 107.635C99.3808 107.328 100.159 104.372 100.228 103.729C100.376 102.365 100.341 101.026 100.04 99.6856L100.09 99.6048C100.262 99.6399 100.334 99.602 100.498 99.5509C100.61 99.327 100.536 99.1712 100.472 98.9341C100.416 98.7274 100.457 98.7313 100.544 98.5458Z" fill="#F2BA22"/>
<path d="M72.0462 107.805C72.7974 109.134 77.5146 118.317 77.5985 118.875L77.5388 119.065C76.6731 118.189 75.9329 116.183 75.363 115.038C74.6681 113.641 73.6415 111.609 72.7931 110.314L71.7974 108.084L72.0462 107.805Z" fill="#F2BA22"/>
<path d="M64.3463 119.244C65.5291 119.766 66.7307 120.286 67.8518 120.933C68.8604 121.515 73.0736 124.556 73.4951 125.531L73.4084 125.723C72.6693 125.396 71.9232 124.376 71.2568 123.85C69.4158 122.003 66.5643 120.507 64.0205 119.988C64.1334 119.741 64.242 119.493 64.3463 119.244Z" fill="#F2BA22"/>
<path d="M112.916 171.258C112.98 171.545 113.052 171.764 112.94 172.05C111.781 172.27 110.166 174.293 109.42 174.232C109.374 174.154 109.333 174.097 109.314 174.005C109.257 173.726 109.386 173.45 109.54 173.227C110.397 171.99 111.471 171.484 112.916 171.258Z" fill="#F2BA22"/>
<path d="M108.79 59.3395C108.864 59.393 108.886 59.4016 108.948 59.4867C109.511 60.2696 110.478 63.2473 110.432 64.2219C110.392 64.2262 110.353 64.234 110.314 64.234C109.977 64.234 109.77 64.0594 109.546 63.8168C108.539 62.7235 108.77 60.7227 108.79 59.3395Z" fill="#FA3948"/>
<path d="M139.386 44.9937C139.678 44.9836 139.929 45.0082 140.162 45.2008C140.511 45.4879 140.706 45.9281 140.734 46.3738C140.765 46.8855 140.684 47.1703 140.341 47.5484C139.959 47.4937 139.596 47.4019 139.31 47.1242C139.039 46.8617 138.861 46.5219 138.854 46.141C138.846 45.6297 139.034 45.3449 139.386 44.9937Z" fill="white"/>
<path d="M64.7404 129.107C64.6971 128.931 64.5951 128.871 64.4717 128.743C64.6975 128.716 64.8963 128.734 65.1213 128.752C66.0432 129.111 66.9088 129.636 67.8014 130.063C68.8326 130.557 70.2885 130.897 71.135 131.668L71.1049 131.726L70.9916 131.724L71.0588 131.616L70.8947 131.714C69.3033 131.366 66.09 130.011 64.7404 129.107Z" fill="#F2BA22"/>
<path d="M66.783 101.477C69.16 102.668 70.9869 105.45 72.0467 107.805L71.7979 108.084C71.0709 106.214 69.5053 104.503 67.9865 103.24L68.1615 103.189C68.3076 103.255 68.4537 103.312 68.6049 103.366L68.7303 103.237C68.0975 102.598 67.5439 101.988 66.7229 101.59L66.6084 101.536L66.783 101.477Z" fill="#F2BA22"/>
<path d="M80.2682 97.3473C80.3662 97.3688 80.5385 97.3864 80.6229 97.4367C80.867 98.5203 81.2342 99.5676 81.5354 100.636C81.8182 101.639 82.0533 102.654 82.3369 103.657L82.1471 103.857L81.9697 103.698L81.8963 103.728C81.1834 101.625 81.3893 99.7008 79.8447 97.9051L80.0232 97.6922L80.208 97.6461L80.2682 97.3473Z" fill="#F2BA22"/>
<path d="M107.795 89.6884L107.607 90.4833C107.404 91.361 107.55 93.7423 107.157 94.3255C107.061 94.4677 106.883 94.5735 106.742 94.6657C106.717 94.6825 106.69 94.6985 106.665 94.7149C106.431 94.1071 106.529 93.4231 106.293 92.7864C106.912 91.8122 107.232 90.6923 107.795 89.6884Z" fill="#3B773B"/>
<path d="M70.9599 118.164C71.6673 118.871 75.1345 122.015 75.4915 122.605C74.5064 122.298 71.4587 119.345 70.7622 118.466L70.9599 118.164Z" fill="#F2BA22"/>
<path d="M106.294 92.7864C106.53 93.4231 106.431 94.1071 106.665 94.7149C105.946 95.4165 105.352 96.2028 104.766 97.0149C105.268 95.6024 105.816 94.2083 106.294 92.7864Z" fill="#3B773B"/>
<path d="M68.467 143.185C69.2459 143.577 70.8029 144.004 71.3275 144.664C70.7021 144.83 68.933 144.171 68.2354 143.977L68.467 143.185Z" fill="#F2BA22"/>
<path d="M78.8062 98.2726L79.0499 98.0441C79.1558 98.1179 79.223 98.155 79.3511 98.187C79.3866 98.196 79.4226 98.2027 79.4585 98.2101C79.9983 98.8597 81.0968 100.806 81.1159 101.6C81.1171 101.647 81.1003 101.693 81.0925 101.739L80.9456 101.708C80.2003 100.494 79.8448 99.3179 78.8062 98.2726Z" fill="#F2BA22"/>
<path d="M113.385 102.708C113.17 103.446 112.586 105.559 112.001 106.032C111.975 106.052 111.945 106.065 111.918 106.082L112.061 105.998L111.962 106.123L111.896 106.047C112.03 104.892 112.567 103.636 112.899 102.506C112.919 102.815 112.925 103.12 112.924 103.429L112.986 103.286C113.094 103.041 113.143 102.846 113.385 102.708Z" fill="#F2BA22"/>
<path d="M70.1015 102.712C70.7644 103.714 71.1976 104.896 71.8733 105.862L71.7589 106.064C71.1472 104.979 70.4097 104.148 69.5737 103.235C69.8343 103.078 69.9347 102.955 70.1015 102.712Z" fill="#0B8DCB"/>
<path d="M72.1562 102.341C72.3937 103.081 72.7116 103.788 73.0194 104.5L72.6522 104.689L71.6772 102.78C71.8229 102.619 71.9929 102.483 72.1562 102.341Z" fill="#F2BA22"/>
<path d="M84.6161 108.37C84.8728 109.348 85.1759 110.425 85.2638 111.435L85.0528 111.499C84.7657 110.436 84.4872 109.371 84.2173 108.304L84.6161 108.37Z" fill="#F2BA22"/>
<path d="M57.6572 87.2282L57.8799 87.1379C58.149 87.7829 58.8666 89.1532 58.6244 89.8208C58.6146 89.8465 58.5994 89.87 58.5869 89.895C58.0174 89.1438 58.0041 88.0758 57.6572 87.2282Z" fill="#8EBA7C"/>
<path d="M68.083 116.424C68.7869 117.139 69.5314 117.839 70.1572 118.624C69.3162 118.061 68.508 117.476 67.7061 116.859L68.083 116.424Z" fill="#F2BA22"/>
<path d="M104.535 102.225L104.969 102.605C104.291 103.191 103.874 103.967 103.357 104.686C103.638 103.687 103.814 102.994 104.535 102.225Z" fill="#0B8DCB"/>
<path d="M68.4768 144.574C69.408 144.811 70.3447 145.037 71.2717 145.289C70.542 145.341 69.1541 145.408 68.4756 145.158C68.4959 144.963 68.483 144.77 68.4768 144.574Z" fill="#0B8DCB"/>
<path d="M61.0583 127.298C61.8333 127.995 62.7122 128.531 63.5876 129.089C62.6911 128.823 61.8212 128.474 60.9888 128.048L61.2243 127.773C61.1481 127.648 61.1079 127.566 61.0786 127.42C61.0704 127.379 61.0649 127.338 61.0583 127.298Z" fill="#0B8DCB"/>
<path d="M101.29 104.805C101.406 103.975 101.586 103.168 101.776 102.353C101.928 102.475 102.062 102.584 102.23 102.683C102.017 103.431 101.7 104.145 101.29 104.805Z" fill="#F2BA22"/>
<path d="M102.779 105.04C102.726 105.592 102.536 106.402 102.71 106.917L102.931 107.004L103.329 107.079C103.058 107.106 102.78 107.105 102.506 107.115C102.262 106.983 102.268 106.979 102.165 106.72C102.201 106.143 102.544 105.563 102.779 105.04Z" fill="#8EBA7C"/>
<path d="M80.1319 95.3855C80.296 96.0656 80.4897 96.7507 80.6229 97.4367C80.5386 97.3863 80.3663 97.3687 80.2683 97.3472C80.1015 96.8675 79.9765 96.3769 79.8452 95.8863L80.0108 95.8281L80.1319 95.3855Z" fill="#F2BA22"/>
<path d="M67.999 135.391C68.7291 135.557 69.4732 135.657 70.1994 135.826C69.535 135.897 68.851 135.941 68.1943 136.061L67.999 135.391Z" fill="#0B8DCB"/>
<path d="M73.019 104.5C73.2108 104.985 73.4554 105.477 73.4878 106.002L73.4605 106.018C73.1296 105.655 72.853 105.137 72.6519 104.689L73.019 104.5Z" fill="#F2BA22"/>
<path d="M66.335 119.255L67.6354 120.194C67.0162 120.009 66.4408 119.787 65.8818 119.457L66.335 119.255Z" fill="#0B8DCB"/>
<path d="M57.6572 87.2281C57.4506 86.7531 57.1975 86.2777 57.1436 85.7586L57.2416 85.8023L57.1643 85.7188C57.4791 86.1555 57.6686 86.6465 57.8799 87.1379L57.6572 87.2281Z" fill="#8EBA7C"/>
<path d="M69.3013 100.018C69.5173 100.498 69.7231 100.971 69.8911 101.471C69.5079 101.032 69.2259 100.58 68.9321 100.081L69.3013 100.018Z" fill="#F2BA22"/>
<path d="M85.2637 111.435C85.3797 111.759 85.4512 111.915 85.7828 112.068C85.8145 112.083 85.8477 112.094 85.8801 112.107L85.9781 112.223C85.8605 112.44 85.9426 112.36 85.7414 112.472C85.3688 112.294 85.2094 111.857 85.0527 111.498L85.2637 111.435Z" fill="#F2BA22"/>
<path d="M54.2667 78.1196C54.3128 78.3856 54.3651 78.5696 54.2343 78.8224C54.0722 78.6259 54.1003 78.4946 54.0757 78.2489L54.2667 78.1196Z" fill="#8EBA7C"/>
</svg>
