<svg width="200" height="200" viewBox="0 0 200 200" fill="none" xmlns="http://www.w3.org/2000/svg">
<path fill-rule="evenodd" clip-rule="evenodd" d="M119.234 12.6628C120.498 12.477 121.821 12.8901 122.823 13.6618C123.481 14.1684 124.003 14.8144 124.546 15.4363C125.599 14.5164 126.702 13.7223 128.181 13.8484C129.459 13.9574 130.539 14.4123 131.364 15.4226C132.279 16.5429 132.746 18.0372 132.589 19.4783C132.453 20.7301 131.866 21.8813 131.29 22.9812C128.924 27.4995 128.091 29.2525 128.688 34.4333C131.3 34.6376 133.554 35.2938 135.817 36.6609C136.527 37.0902 137.2 37.6431 137.941 38.0115C139.348 38.7114 140.309 38.3425 141.499 39.7507C142.207 40.5893 142.63 41.6357 143.312 42.488C143.806 43.1056 144.486 43.5458 144.983 44.1618C146.945 46.5911 147.459 49.654 147.133 52.697C147.007 53.8781 146.665 55.0211 146.311 56.1511C149.912 58.7327 153.274 60.543 154.067 65.3464C154.272 66.5878 154.447 69.5904 153.651 70.6423C153.58 70.7367 153.565 70.7392 153.482 70.7986C152.712 70.3743 151.009 66.6098 149.387 66.6355C148.417 67.2233 147.526 67.9398 146.529 68.4831C143.531 70.1182 140.86 70.028 137.66 70.6599C136.642 70.8611 135.425 70.9109 134.462 71.2585C134.373 72.6675 139.342 81.9777 140.242 83.8679C141.25 85.9862 142.235 88.1559 143.125 90.3269C144.397 93.4312 145.552 96.6574 146.388 99.9109C150.383 115.449 150.336 135.391 141.34 149.235C139.379 152.253 136.82 154.999 134.123 157.371C130.289 160.762 125.85 163.401 121.039 165.148C119.414 165.736 117.668 166.102 116.079 166.751C116.286 167.783 116.356 168.855 116.489 169.9C116.792 172.295 117.067 174.656 117.195 177.069C120.852 176.92 128.166 176.204 131.058 178.838C131.357 179.11 131.664 179.497 131.625 179.928C131.577 180.445 130.9 180.772 130.955 181.182C131.515 181.865 132.537 182.407 132.498 183.384C132.486 183.669 132.281 184.004 132.148 184.254C130.994 185.031 129.762 185.35 128.377 185.417C128.687 186.025 129.082 186.714 128.838 187.416C128.71 187.787 128.409 188.031 128.051 188.172C126.041 188.965 120.714 187.147 118.751 186.216C116.269 185.037 114.399 183.893 112.828 181.542C112.446 182.058 110.864 184.411 110.348 184.506C110.051 184.56 109.943 184.495 109.689 184.365C109.188 183.708 109.234 182.663 109.335 181.872C109.48 180.729 110.016 179.076 110.954 178.342C111.056 178.261 111.08 178.25 111.181 178.19C111.443 177.993 111.638 177.751 111.849 177.502C111.176 175.316 110.767 173.023 110.215 170.802C109.965 169.758 109.435 168.413 109.45 167.37C105.482 167.562 101.198 167.401 97.3912 166.143C95.0206 165.36 92.7552 164.13 90.2359 163.957C90.2632 165.537 90.3996 169.983 91.523 170.998C92.146 171.561 93.0063 171.834 93.6617 172.366C96.1578 174.391 99.0164 178.07 99.3062 181.379C99.3527 181.907 99.4355 182.778 99.0757 183.203C98.8316 183.491 98.4155 183.608 98.0503 183.617C97.464 183.631 97.4497 183.142 96.9683 183.025C96.8656 183.232 96.8777 183.334 96.9585 183.546C96.9707 183.577 97.0391 183.707 97.0523 183.734C97.2863 184.226 97.215 185.102 97.024 185.608C96.8712 186.013 96.556 186.441 96.146 186.61C95.8496 186.732 95.5226 186.812 95.2144 186.9C93.4731 186.26 92.8612 185.097 91.6871 183.797C91.3234 185.207 90.6829 186.048 89.4283 186.797C89.0808 187.004 88.7242 187.137 88.3365 187.245C87.9709 186.957 87.6355 186.694 87.398 186.285C86.6586 185.011 85.5432 180.004 85.358 178.468C85.2572 177.634 85.3956 174.817 85.1705 174.288C84.8802 174.135 84.6862 174.156 84.3726 174.248C83.4477 174.519 82.1345 175.354 81.1841 175.188C80.9826 175.018 80.905 174.941 80.8902 174.668C80.8343 173.633 81.479 172.622 82.1783 171.919C83.0857 171.007 84.3882 170.339 85.5552 169.838C84.8604 167.546 84.5562 165.076 84.3589 162.695C84.2781 161.721 84.294 160.742 84.1656 159.772C83.3265 159.203 82.6337 158.522 81.9029 157.828C80.9877 156.958 80.0405 156.099 79.1968 155.159C78.2399 154.093 77.3955 152.928 76.439 151.868C74.4734 153.505 72.6541 155.149 70.5142 156.571C61.7373 162.405 51.4201 163.923 41.0855 162.981C36.3988 162.554 28.4043 160.777 25.315 157.026C24.22 155.697 23.2489 153.851 23.4253 152.086C23.6371 149.967 24.8678 148.402 26.4937 147.129C27.9651 145.976 29.6928 145.188 31.3707 144.386C29.5819 144.477 27.7753 144.259 26.0025 144.034C20.3707 143.321 14.559 141.819 10.2515 137.896C8.43392 136.24 6.70552 134.032 6.59428 131.476C6.52475 129.878 7.12786 128.154 8.21733 126.979C11.3158 123.638 18.2921 123.136 22.647 122.994C23.4482 122.968 24.2307 123.006 25.0289 123.074C24.9958 123.054 24.9624 123.035 24.9292 123.015C23.0957 121.947 21.0069 121.268 19.1001 120.34C13.9753 117.843 9.05116 113.625 7.51518 107.946C7.08547 106.357 7.06421 104.645 7.92436 103.184C8.90106 101.525 10.6057 100.757 12.4019 100.315C15.9199 99.4488 19.735 99.6843 23.2349 100.491C21.8681 99.1183 20.4044 97.7653 19.1607 96.281C16.3914 92.9763 13.5252 87.6617 13.5386 83.3074C13.543 81.8775 13.8729 80.1711 14.9097 79.1179C16.3442 77.6613 18.5164 77.2029 20.4957 77.2302C23.8574 77.2767 27.4475 78.4127 30.3902 79.9997C31.2165 80.4376 32.0053 80.9431 32.7496 81.5095C33.0348 81.7294 33.295 82.0103 33.5874 82.2146C33.7469 82.3259 33.7848 82.3611 33.9468 82.2732C33.7726 81.8204 33.385 81.4138 33.1343 80.9919C32.7523 80.3498 32.4197 79.6726 32.0767 79.0085C29.6805 74.3702 26.1797 66.5419 28.3931 61.4021C28.8899 60.2486 29.7716 59.4853 30.938 59.0466C34.0136 57.8908 37.2382 58.8894 40.1089 60.2077C44.1199 62.0492 46.4927 64.507 49.7271 67.3132C48.1087 63.4195 47.5802 55.8101 49.2408 51.8503C49.7951 50.5298 50.723 49.4624 52.0728 48.9187C53.8539 48.2008 55.6495 48.6344 57.3248 49.3913C60.2915 50.7319 63.0166 53.039 65.0982 55.5359C65.815 56.3952 66.4423 57.3257 67.1724 58.1745C66.6224 55.243 67.3027 50.8322 69.0044 48.3396C69.8372 47.1287 71.1082 46.2873 72.5484 45.9939C74.4724 45.6123 76.4711 46.5473 78.0132 47.6238C80.8421 49.5992 84.5935 55.6525 85.1958 59.1052C85.2161 59.2239 85.232 59.3434 85.2437 59.4636C86.8425 56.4812 89.2704 53.6072 92.6343 52.6208C94.0807 52.1967 95.5754 52.3939 96.8824 53.1296C99.273 54.4753 100.634 57.2589 101.329 59.8015C101.652 60.9843 101.904 62.1853 102.208 63.3728C104.772 62.0303 106.266 61.9312 109.09 62.1355C109.255 59.4587 109.499 57.123 110.366 54.5583C110.775 53.3479 111.361 52.1688 111.7 50.9392C111.997 49.8557 112.039 48.6916 112.278 47.5906C113.016 44.1867 114.801 40.7071 117.436 38.3904C118.243 37.6812 119.127 36.9889 120.07 36.4704C118.63 34.2352 117.48 32.3828 115.19 30.8884C114.383 30.3559 113.514 29.9238 112.602 29.6013C110.021 28.7003 105.266 28.103 106.072 24.2019C106.313 23.0349 106.982 22.0132 107.994 21.3757C108.588 21.0016 109.141 20.9124 109.827 20.8533C109.379 19.968 109.186 18.9436 109.484 17.9763C109.825 16.8997 110.595 16.0113 111.612 15.5202C112.64 15.022 113.483 15.0133 114.53 15.4031C114.932 15.5528 115.328 15.7194 115.736 15.8533C116.028 15.4616 116.201 14.9973 116.438 14.572C116.998 13.5688 118.101 12.8294 119.234 12.6628ZM98.0103 163.694L97.9449 163.775C98.1816 163.871 98.3935 163.937 98.6431 163.99L98.5396 163.662L98.0103 163.694ZM70.7134 145.443C70.573 145.527 70.4932 145.554 70.3296 145.563C71.1832 145.784 72.3601 145.708 73.2496 145.711C72.4195 145.506 71.6117 145.282 70.8042 145.002L70.7134 145.443ZM86.9615 107.643C86.8386 107.747 86.7304 107.844 86.5904 107.925C86.7369 109.083 87.3816 112.972 87.98 113.854C87.9863 113.815 87.0615 108.176 86.9615 107.643ZM93.5533 96.4724C93.4365 96.7285 93.4437 96.7952 93.1968 96.9197C93.3765 97.5163 93.6341 98.1474 93.731 98.7605C94.1513 101.418 93.7097 104.425 94.0582 107.147C94.0476 108.364 93.8218 110.062 94.2398 111.21L94.3863 111.284C94.5464 111.1 94.5382 111.088 94.5132 110.834C94.4016 109.695 94.4702 108.55 94.3374 107.409C94.6948 106.186 94.3503 100.279 94.148 98.8113C94.0398 98.0255 93.7755 97.2335 93.5533 96.4724ZM58.1001 106.165C58.4001 106.532 58.766 106.833 59.1207 107.146C58.9406 106.739 58.729 106.371 58.4986 105.992L58.1001 106.165ZM104.961 102.181C104.729 102.439 104.606 102.676 104.478 102.996L104.364 103.001C104.35 102.842 104.333 102.683 104.315 102.525C103.954 103.479 103.806 104.49 103.713 105.501C104.209 104.41 104.679 103.263 105.024 102.115C105.003 102.137 104.982 102.159 104.961 102.181ZM82.5376 99.5574C83.1122 100.312 83.4316 101.198 83.7964 102.066C83.9632 102.639 84.1766 103.041 84.563 103.491L84.7007 104.526L85.0992 104.11C85.0347 103.828 84.8794 103.589 84.7388 103.34C84.3104 102.946 84.21 102.404 84.0386 101.866C83.7218 100.939 83.4179 100.114 82.8804 99.2898L82.5376 99.5574ZM83.2417 95.7195C83.1874 95.9917 83.1599 96.2269 83.0181 96.4695L83.0923 97.1667L83.066 97.5554C83.1519 97.8296 83.0851 98.1187 82.9605 98.3796C83.7873 99.8388 84.5417 101.098 84.896 102.758C85.3244 101.788 84.2011 100.353 83.9322 99.4167C83.7517 98.7891 83.7001 98.1178 83.5552 97.4792C83.4384 96.8956 83.3437 96.3062 83.2417 95.7195ZM86.1734 97.3806C85.9794 97.4548 85.8012 97.526 85.6236 97.6345L86.1138 99.032C86.1029 98.4757 86.1304 97.9349 86.1734 97.3806ZM70.6392 97.2605C70.729 97.6799 70.9483 98.0169 71.1607 98.3835L70.854 96.9988L70.6392 97.2605ZM94.3882 95.2077C94.1309 95.6096 94.2308 95.8223 94.148 96.2683L94.0113 95.7937C93.9067 95.7789 93.8163 95.763 93.7105 95.7712C93.9796 96.527 94.1344 97.3662 94.4605 98.0896C94.6369 97.2249 94.4379 96.0967 94.3882 95.2077ZM114.371 65.4812C113.97 65.6538 113.305 66.5728 113.152 66.9743C112.913 67.6022 113.422 69.1426 113.46 69.8679C113.551 71.5844 113.548 74.7422 113.362 76.4226C115.914 75.8028 117.153 75.6962 119.662 76.5876C120.816 77.3028 121.405 77.8571 121.802 79.1863C122.751 82.3608 121.957 87.4587 120.902 90.5857C120.275 92.4434 119.401 94.2723 118.476 95.9988C120.893 95.2321 123.764 94.7919 126.163 95.8562C126.124 94.5954 126.203 93.333 126.111 92.073C125.778 87.5386 124.384 83.3146 122.589 79.1755C122.022 77.8667 121.497 76.3909 120.584 75.28L120.585 75.279L120.519 75.1863C119.764 74.0902 119.141 72.6995 118.417 71.5378C117.527 70.1121 116.476 68.7898 115.537 67.3972C115.118 66.7758 114.79 66.1022 114.371 65.4812ZM70.48 67.9783C70.664 68.3992 70.886 68.7714 71.1304 69.1579C70.9934 68.6413 70.8965 68.1412 70.6275 67.6726L70.48 67.9783ZM113.217 16.4822C112.836 16.3974 112.412 16.6592 112.08 16.8327C112.159 17.0305 112.185 17.0497 112.358 17.1765C112.695 17.1498 112.971 16.8503 113.223 16.6394L113.217 16.4822Z" fill="black"/>
<path d="M112.981 50.475C113.153 47.5293 114.275 44.5293 116.026 42.1629C118.335 39.0424 122.037 36.352 125.938 35.7893C130.105 35.1882 134.061 36.2533 137.404 38.7636C137.124 38.947 136.829 39.1266 136.632 39.4036C136.199 40.0118 136.387 40.7481 136.486 41.4297C137.861 41.3313 139.048 40.7485 140.455 41.1739C140.975 41.3313 141.844 41.7915 142.119 42.2875C141.545 42.5008 140.919 42.6192 140.387 42.9278C139.742 43.3016 139.465 44.0004 139.292 44.6958C138.501 47.886 139.406 50.9493 141.018 53.7133C139.23 53.4133 137.849 53.8188 136.253 54.6016C136.235 52.5079 135.202 50.1477 134.091 48.4102C132.514 45.9442 130.21 43.8028 127.261 43.1918C125.354 42.7969 123.416 43.3497 121.821 44.4024C121.39 44.7559 120.9 45.1051 120.514 45.5036C118.999 47.8106 118.395 50.1387 118.98 52.8836C119.518 55.4118 120.906 57.4422 123.076 58.8375C125.7 60.525 127.739 60.2973 130.701 60.5926C131.019 61.4833 131.236 62.4012 131.544 63.293C132.549 66.1981 134.24 68.1227 136.733 69.8583C132.765 70.4086 128.556 70.2407 124.696 69.1125C123.549 68.777 122.468 68.2708 121.336 67.9016C124.217 69.9481 126.728 70.7028 130.257 70.97C131.249 71.0454 132.294 71.036 133.272 71.1903C134.283 73.3633 135.158 75.6024 136.193 77.7637C138.84 83.2922 141.647 88.6633 143.705 94.4536C148.466 107.849 149.713 126.101 144.784 139.575C143.565 142.906 142.024 146.127 139.971 149.03C136.359 154.137 130.375 158.773 124.726 161.381C122.532 162.395 120.336 163.295 117.996 163.917C111.904 165.536 104.723 165.629 98.6428 163.99L98.5389 163.662C100.109 163.448 101.958 163.12 103.297 162.216C103.534 162.055 103.89 161.827 103.949 161.529C103.512 161.29 100.598 162.291 99.8905 162.434C97.6569 162.885 94.8084 162.972 92.5467 162.652C90.6092 162.377 88.5166 161.583 87.333 159.939C86.2748 158.468 85.994 156.169 86.9983 154.611C87.4209 153.955 88.2678 153.436 88.3877 152.638L88.267 152.545C86.6233 152.958 86.2373 154.788 84.9756 155.672C84.5354 155.981 83.9846 156.136 83.4795 156.308C81.9748 155.201 78.7115 152.152 78.0311 150.478C77.9084 150.175 77.8233 149.851 77.985 149.546C78.0604 149.404 78.0541 149.416 78.2358 149.4C78.7221 149.358 81.4905 150.476 82.1873 150.675C85.4612 151.612 89.0572 151.536 92.3455 150.702C101.083 148.484 110.036 141.777 114.612 134.026C115.624 132.313 116.606 130.549 117.389 128.718C117.831 127.684 118.155 126.606 118.492 125.534C120.014 120.701 120.873 115.443 119.585 110.439C120.555 110.12 121.389 109.676 122.189 109.036C124.762 106.975 126.04 103.127 126.641 100.01C127.089 97.6836 127.344 95.3954 127.222 93.0184C126.871 86.1883 123.481 77.6364 119.84 71.8977C117.678 68.4903 115.476 66.2708 114.274 62.2083C113.475 59.5043 113.063 56.8028 113.621 53.9997C113.872 52.7383 114.25 51.4997 114.377 50.2165L114.394 50.0379C114.077 50.3325 113.822 50.6415 113.564 50.9879C113.433 51.2301 113.328 51.4129 113.117 51.5997L112.978 51.5723C112.849 51.2079 112.932 50.8489 112.981 50.475Z" fill="#0B8DCB"/>
<path d="M120.395 45.3161C120.164 44.384 120.654 42.9563 121.128 42.145C121.941 40.7602 123.282 39.7649 124.842 39.3883C125.849 39.1508 126.876 39.2672 127.751 39.8415C128.189 40.1294 128.763 40.6126 128.812 41.1762C128.829 41.3754 128.763 41.6778 128.598 41.8106C127.867 42.3973 124.289 41.5766 121.445 44.3368L121.821 44.4024C121.39 44.7559 120.9 45.1051 120.514 45.5036L120.395 45.3161Z" fill="black"/>
<path d="M121.445 44.3367L121.821 44.4023C121.39 44.7558 120.9 45.105 120.514 45.5035L120.396 45.316C120.781 45.0699 121.119 44.6597 121.445 44.3367Z" fill="#0B8DCB"/>
<path d="M112.982 50.475L113.564 50.9879C113.434 51.2301 113.328 51.4129 113.118 51.5996L112.978 51.5722C112.849 51.2078 112.933 50.8488 112.982 50.475Z" fill="#0B8DCB"/>
<path d="M106.762 109.909C109.172 109.819 111.573 109.931 113.981 109.946C115.5 109.956 117.021 109.873 118.542 109.87C118.89 111.793 119.216 113.691 119.224 115.653C119.261 124.846 115.064 134.249 108.605 140.718C103.239 146.093 95.0179 150.728 87.2804 150.728C83.9604 150.675 79.8296 150.107 77.2515 147.793C75.2198 145.969 74.5897 142.595 74.4444 139.994C74.3315 137.972 74.7089 136.027 75.2018 134.078C76.6741 128.255 78.7015 124.756 82.7401 120.303C83.8847 119.041 85.2272 117.976 86.5565 116.918C87.7132 115.997 88.914 114.977 90.1823 114.219C91.1077 113.666 92.1386 113.253 93.1284 112.828C97.7104 110.86 101.82 110.153 106.762 109.909Z" fill="#8EBA7C"/>
<path d="M109.765 128.562L109.905 128.7C110.109 129.478 109.602 130.837 109.386 131.594C108.573 134.444 107.055 136.949 104.382 138.409C102.502 139.428 100.293 139.651 98.2474 139.029C97.0482 138.658 96.2525 138.087 95.6716 136.982C95.5513 136.63 95.4056 136.273 95.4451 135.898C95.8568 135.864 96.5693 137.004 97.0177 137.228C98.7564 138.087 100.761 138.235 102.608 137.64C105.406 136.75 107.296 134.321 108.435 131.721C108.863 130.743 109.174 129.66 109.676 128.723L109.765 128.562Z" fill="black"/>
<path d="M90.7875 125.735C91.0203 126.025 90.9883 126.311 90.9547 126.679C90.7238 129.193 88.7727 132.136 86.8922 133.747C85.2816 135.126 83.0457 136.006 80.9102 135.828C79.159 135.681 77.7109 135.013 76.5586 133.663C76.4785 133.536 76.3848 133.4 76.3309 133.259C76.2387 133.021 76.2523 132.867 76.334 132.634C76.4047 132.61 76.4715 132.56 76.5465 132.562C76.9031 132.573 78.652 133.805 79.2484 134.04C81.0234 134.739 82.8996 134.386 84.5922 133.629C87.9274 132.136 89.5379 128.966 90.7875 125.735Z" fill="black"/>
<path d="M111.553 114.65L111.651 114.695L111.666 114.864C111.134 115.366 110.376 115.716 109.746 116.093C109.526 116.634 109.321 117.193 109.07 117.721C108.135 119.687 106.37 121.637 104.269 122.351C103.208 122.711 101.475 122.893 100.454 122.359C100.015 122.129 99.6375 121.843 99.4766 121.361L99.5699 121.176C100.196 120.953 100.716 121.309 101.272 121.571C102.087 121.63 102.82 121.598 103.608 121.356C106.085 120.595 107.871 118.509 109.057 116.302C108.049 116.314 107.091 116.244 106.1 116.05L105.302 115.1C107.703 115.732 109.258 115.454 111.553 114.65Z" fill="black"/>
<path d="M96.9589 113.589C97.9492 113.539 100.162 113.927 101.055 114.411C101.524 114.665 101.871 115.041 102.006 115.564C102.258 116.543 101.805 117.748 101.318 118.602C100.206 120.551 97.7449 122.401 95.5742 122.963C94.1168 123.34 92.8418 123.171 91.55 122.418C91.3746 122.314 91.1894 122.201 91.0562 122.043C90.8507 121.798 90.725 121.479 90.7562 121.168C91.3605 120.927 92.5765 121.833 93.266 121.964C95.0117 122.297 96.9894 121.66 98.4324 120.683C99.7003 119.825 100.865 118.416 101.129 116.875C101.2 116.461 101.277 115.884 101.125 115.49C100.621 114.182 97.6976 114.85 97.0363 113.732C97.0086 113.686 96.9847 113.637 96.9589 113.589Z" fill="black"/>
<path d="M92.7528 115.858C92.9423 115.95 92.9235 115.951 93.0313 116.109C92.956 116.722 92.581 117.326 92.2563 117.843C90.7294 120.275 87.8755 123.488 84.9216 124.114C83.7446 124.364 82.838 124.074 81.8532 123.455C81.5485 123.168 81.3896 122.98 81.3696 122.551C81.5153 122.389 81.5419 122.384 81.7657 122.434C81.9981 122.487 82.2548 122.65 82.4821 122.736C83.2837 123.041 84.0817 123.108 84.9235 122.932C88.4696 122.19 90.8806 118.679 92.7528 115.858Z" fill="black"/>
<path d="M92.958 139.796C93.0818 139.866 93.1006 139.834 93.1178 139.954C93.1658 140.291 92.924 140.723 92.749 140.995C91.5299 142.888 89.042 144.376 86.8674 144.845C84.6064 145.332 82.6217 144.883 80.6959 143.635C80.3654 143.337 80.0662 143.006 79.7607 142.683C82.2365 143.835 84.4998 144.286 87.1885 143.657C89.5326 143.109 91.6709 141.872 92.958 139.796Z" fill="black"/>
<path d="M36.1513 124.432C38.182 124.155 45.1442 125.479 47.5895 125.969C50.3383 126.52 53.8578 127.257 56.4368 128.19C58.1618 128.814 59.7383 129.635 61.4036 130.374C62.1141 130.689 63.55 130.937 63.909 131.699C63.9711 131.832 63.9911 131.975 63.9254 132.106C63.5844 132.786 61.7004 132.899 60.9989 133.109C59.1438 133.665 57.543 134.74 56.625 136.482C55.8743 137.884 55.7223 139.531 56.2036 141.047L56.2477 141.182C52.1254 141.201 48.0192 141.758 43.8895 141.639C43.6317 141.633 43.3739 141.625 43.1164 141.614C37.4369 141.38 25.9837 140.031 22.1453 135.818C21.2699 134.857 20.3155 133.531 20.4075 132.175C20.4827 131.068 21.186 130.158 21.9962 129.456C25.0387 126.816 30.9409 126.468 34.8582 126.653C36.7227 126.741 38.5906 126.996 40.4539 127.137C39.5325 126.208 38.6348 125.702 37.4634 125.143C37.0139 124.929 36.5412 124.746 36.1513 124.432Z" fill="#3B773B"/>
<path d="M32.0747 130.886C32.8792 130.943 33.604 131.109 34.3036 131.528C35.1056 132.009 35.7701 132.761 35.9683 133.693C36.1316 134.472 35.9608 135.284 35.4973 135.931C34.8741 136.809 33.9645 137.166 32.9396 137.335C32.0154 137.312 31.3158 137.215 30.5014 136.716C29.6513 136.196 28.9568 135.364 28.7628 134.37C28.6201 133.639 28.7687 132.885 29.2134 132.283C29.9147 131.333 30.9805 131.078 32.0747 130.886Z" fill="black"/>
<path d="M32.0144 131.473C32.6842 131.484 33.2779 131.621 33.8606 131.964C34.501 132.342 35.0283 132.976 35.1831 133.712C35.3018 134.297 35.1736 134.905 34.829 135.392C34.3309 136.105 33.5376 136.429 32.7075 136.569C31.9856 136.618 31.3416 136.492 30.7202 136.107C30.0699 135.705 29.582 135.063 29.4285 134.309C29.3109 133.731 29.4142 133.121 29.7529 132.633C30.2999 131.846 31.1307 131.64 32.0144 131.473Z" fill="#EA6F1C"/>
<path d="M71.1107 66.223C70.615 65.0191 70.2135 63.7351 69.6541 62.5636C69.2975 61.8171 68.5689 61.1015 68.3412 60.3187C68.1283 59.5863 68.1287 58.7695 68.1061 58.014C68.0303 55.4609 68.1732 52.9832 69.1838 50.5992C69.7561 49.2488 70.7709 47.8613 72.19 47.3359C73.4924 46.8539 75.0584 47.2054 76.2713 47.7992C80.2908 49.7664 82.9205 55.5203 84.2604 59.5363C84.9908 61.7261 85.9537 65.5457 85.9104 67.8644C85.7689 67.8613 85.6131 67.8472 85.4713 67.8589C86.7361 71.5199 86.4416 76.7566 86.4162 80.6265C85.9408 80.9046 85.4498 81.2125 85.0236 81.5609C82.8666 83.3242 82.0674 86.1167 81.776 88.7718C81.7236 88.6847 81.6717 88.5976 81.6166 88.5124C80.3826 86.6207 78.4533 85.2914 76.2459 84.8124C75.7088 83.0734 75.3764 81.2175 74.9525 79.4445C74.5096 77.5917 74.1158 75.714 73.6076 73.8789C73.1412 72.1945 72.5709 70.5687 72.0275 68.9117C71.7779 68.1496 71.6389 67.3503 71.3639 66.598C71.2467 66.4792 71.1842 66.3726 71.1107 66.223Z" fill="#3B773B"/>
<path d="M71.1107 66.223C70.615 65.0191 70.2135 63.7351 69.6541 62.5636C69.2975 61.8171 68.5689 61.1015 68.3412 60.3187C68.1283 59.5863 68.1287 58.7695 68.1061 58.014C68.0303 55.4609 68.1732 52.9832 69.1838 50.5992C69.7561 49.2488 70.7709 47.8613 72.19 47.3359C73.4924 46.8539 75.0584 47.2054 76.2713 47.7992C80.2908 49.7664 82.9205 55.5203 84.2604 59.5363C84.9908 61.7261 85.9537 65.5457 85.9104 67.8644C85.7689 67.8613 85.6131 67.8472 85.4713 67.8589C84.5576 65.0144 83.2611 61.7718 80.4912 60.2582C79.1502 59.5253 77.4537 59.3218 75.99 59.7929C73.7658 60.5093 72.6373 62.6011 72.0002 64.6886C71.8307 65.2429 71.7338 65.9546 71.4486 66.4554C71.4213 66.5035 71.392 66.5507 71.3639 66.598C71.2467 66.4792 71.1842 66.3726 71.1107 66.223Z" fill="#8EBA7C"/>
<path d="M71.1108 66.223C71.7069 63.7695 72.4659 61.3133 74.7362 59.8949C76.0558 59.0703 77.6042 58.9234 79.0936 59.2933C81.4046 59.8672 82.9933 61.5957 84.1706 63.5801C84.6437 64.3781 85.0593 65.2609 85.3476 66.1429C85.5249 66.6855 85.6198 67.3828 85.9104 67.8644C85.769 67.8613 85.6132 67.8472 85.4714 67.859C84.5577 65.0144 83.2612 61.7718 80.4913 60.2582C79.1503 59.5254 77.4538 59.3219 75.9901 59.7929C73.7659 60.5094 72.6374 62.6011 72.0003 64.6886C71.8308 65.2429 71.7339 65.9547 71.4487 66.4554C71.4214 66.5035 71.3921 66.5508 71.364 66.598C71.2468 66.4793 71.1843 66.3726 71.1108 66.223Z" fill="black"/>
<path d="M79.1215 66.225C79.6473 66.2059 80.0903 66.2438 80.5856 66.4332C81.484 66.7778 82.1938 67.5016 82.5766 68.3785C83.02 69.3949 83.0024 70.684 82.586 71.7094C82.2559 72.5219 81.7422 72.9856 80.9516 73.3352C80.4485 73.3364 80.0555 73.2707 79.584 73.075C78.5907 72.6649 77.804 71.8727 77.4004 70.8762C77.0219 69.9313 76.9606 68.743 77.3774 67.8C77.7321 66.9969 78.3247 66.5403 79.1215 66.225Z" fill="black"/>
<path d="M79.2924 66.9082C79.803 66.8761 80.1795 66.8421 80.6444 67.0816C81.3491 67.4437 81.8569 68.0988 82.0854 68.8527C82.3159 69.6144 82.3155 70.5441 81.9002 71.2449C81.5791 71.7863 81.2412 72.0246 80.6401 72.1836C80.4709 72.1836 80.3116 72.1668 80.1467 72.1296C79.3455 71.9484 78.6162 71.4093 78.1897 70.7113C77.7998 70.073 77.6432 69.2816 77.8494 68.5543C78.0748 67.7609 78.5987 67.3039 79.2924 66.9082Z" fill="#EA6F1C"/>
<path d="M26.1379 104.925C27.0643 104.834 28.0942 104.951 29.0138 105.066C36.661 106.028 45.2497 111.223 51.588 115.428C50.9579 116.722 50.7172 117.973 50.9145 119.403C51.302 122.204 53.8712 125.224 56.0559 126.876C54.3872 126.228 52.6356 125.747 50.9141 125.261C47.8665 124.63 44.8344 124.05 41.7508 123.614C39.37 123.277 36.9106 123.182 34.5541 122.756C30.9936 122.11 25.8942 119.714 23.1648 117.381C21.2023 115.703 19.1845 113.453 19.0128 110.734C18.9315 109.43 19.3834 108.148 20.265 107.183C21.8163 105.454 23.9126 105.043 26.1379 104.925Z" fill="#3B773B"/>
<path d="M30.3366 110.171C31.2054 110.125 32.0249 110.235 32.8024 110.648C33.7144 111.131 34.4715 111.971 34.734 112.982C34.945 113.797 34.8143 114.663 34.3722 115.379C33.9058 116.133 33.1457 116.596 32.2987 116.785C31.4662 116.832 30.767 116.853 29.9877 116.484C29.073 116.051 28.3168 115.236 27.9852 114.278C27.7178 113.505 27.7144 112.599 28.0845 111.858C28.555 110.914 29.3867 110.491 30.3366 110.171Z" fill="black"/>
<path d="M30.6521 110.765C31.317 110.767 31.8973 110.847 32.4866 111.176C33.2131 111.583 33.7803 112.279 33.989 113.09C34.137 113.664 34.0915 114.268 33.7825 114.782C33.3492 115.503 32.6284 115.793 31.8581 116.007C31.188 116.086 30.6188 116.027 30.0354 115.672C29.26 115.192 28.717 114.413 28.5345 113.52C28.4077 112.887 28.4985 112.229 28.8893 111.703C29.333 111.106 29.9459 110.89 30.6521 110.765Z" fill="#EA6F1C"/>
<path d="M30.5241 85.2731C30.8801 85.2266 31.2635 85.2332 31.6226 85.2285C33.0022 85.2102 36.5381 85.8746 37.4812 86.8348C40.4363 89.8438 42.9875 93.2574 45.8711 96.3426C47.8772 99.0439 49.0334 100.729 51.1441 103.163C52.4117 105.225 56.023 108.259 58.1242 109.458C59.3793 110.175 60.8414 110.764 62.0023 111.612C62.9297 112.289 63.6582 113.268 64.4621 114.087C62.5773 113.295 60.5793 112.807 58.5418 112.638C58.5078 112.634 58.4738 112.628 58.4394 112.625C56.191 112.43 54.0941 112.904 52.3469 114.363C48.7558 111.972 44.9894 109.644 41.0855 107.805C38.6442 106.654 35.6807 105.823 33.4392 104.392C30.3557 102.422 25.7264 96.6195 24.9628 93.0375C24.5992 91.332 24.8208 89.8094 25.7878 88.3441C26.9299 86.6137 28.5165 85.6746 30.5241 85.2731Z" fill="#3B773B"/>
<path d="M33.8997 90.8403C34.5013 90.809 35.011 90.8106 35.5946 91.002C36.6558 91.3504 37.6198 92.1356 38.0887 93.161C38.4783 94.0126 38.4492 94.9985 38.0833 95.854C37.636 96.8993 36.8593 97.4165 35.8453 97.8118C34.8092 97.9172 33.8797 97.8856 32.9715 97.3001C32.0681 96.7172 31.5068 95.7848 31.3154 94.7364C31.1494 93.827 31.2388 92.8395 31.7817 92.0665C32.3019 91.3258 33.0378 91.0067 33.8997 90.8403Z" fill="black"/>
<path d="M33.7948 91.5261C34.3695 91.4722 34.9236 91.4124 35.4838 91.5999C36.264 91.8581 36.904 92.4253 37.2543 93.1691C37.5621 93.8284 37.6245 94.6198 37.3496 95.3011C37.0312 96.0898 36.457 96.4991 35.6963 96.8136C35.1151 96.9081 34.5102 96.9308 33.947 96.7339C33.2243 96.4812 32.6543 95.9335 32.3288 95.2464C31.9915 94.5339 31.8872 93.6284 32.1965 92.8886C32.5053 92.1495 33.0746 91.7995 33.7948 91.5261Z" fill="#EA6F1C"/>
<path d="M62.3244 90.2969C61.1463 88.818 60.5221 86.5383 59.8006 84.7852C58.8354 82.4399 57.8143 80.143 57.0158 77.7309C55.6647 73.6493 54.3893 68.609 56.469 64.5579C57.2385 63.0582 58.5092 61.8071 60.1529 61.3211C61.7232 60.8567 63.3127 61.2493 64.7068 62.0215C70.7533 65.3692 72.5709 74.1235 73.9131 80.309C74.2303 81.7703 74.4389 83.2797 74.8596 84.7141L74.8951 84.8317C73.8154 85.1309 72.9315 85.6106 72.2291 86.5106C69.9311 89.4567 70.4846 93.5555 70.8537 96.9989L70.6393 97.261C70.3205 96.27 69.8174 95.4922 69.1842 94.6711C67.3369 92.2754 65.3826 90.6801 62.3244 90.2969Z" fill="#3B773B"/>
<path d="M64.0529 68.084C64.8994 67.9532 65.758 68.17 66.4666 68.6477C67.3264 69.2278 67.9463 70.136 68.1127 71.1657C68.2725 72.1532 68.0119 73.3274 67.3998 74.1258C66.8768 74.8083 66.2908 75.0712 65.4529 75.1594C64.8076 75.245 64.0291 75.0262 63.4635 74.72C62.4678 74.1712 61.7397 73.2391 61.4483 72.1399C61.2166 71.2969 61.2287 70.395 61.6811 69.6262C62.2049 68.7356 63.0811 68.3114 64.0529 68.084Z" fill="black"/>
<path d="M64.2296 68.6626C64.9225 68.6501 65.48 68.7594 66.0604 69.1614C66.7499 69.6348 67.2183 70.3669 67.3593 71.1915C67.4679 71.8587 67.3272 72.579 66.9268 73.1297C66.4679 73.7602 65.9089 73.9786 65.1655 74.1047C64.6909 74.104 64.2643 74.0559 63.8265 73.8571C63.0612 73.5098 62.4456 72.8778 62.1612 72.0817C61.9284 71.4294 61.9397 70.6922 62.2636 70.0719C62.6765 69.2801 63.4073 68.9098 64.2296 68.6626Z" fill="#EA6F1C"/>
<path d="M43.2427 68.5933C44.2446 68.5093 45.1673 68.6523 46.1141 68.9823C48.2509 69.7265 50.6169 71.2409 52.1122 72.9612C53.0009 73.9839 53.6544 75.2882 54.277 76.4866C55.6364 79.1398 56.8458 81.8671 57.8985 84.6558C58.6282 86.5343 59.2809 88.5023 60.1579 90.3159C59.4325 90.5401 58.7177 90.8253 58.113 91.2933C56.4856 92.5534 55.9208 94.7655 55.6813 96.7093C55.6813 100.795 58.124 104.986 60.1579 108.756C60.1579 108.756 53.7902 106.675 46.5692 95.0866C42.9493 91.2683 38.1461 82.7155 37.4118 77.428C37.102 75.1976 37.2926 73.1054 38.6975 71.271C39.9048 69.6944 41.2602 68.8507 43.2427 68.5933Z" fill="#3B773B"/>
<path d="M46.1658 74.5164C46.8642 74.4758 47.4849 74.4601 48.1494 74.7129C49.1126 75.0793 49.9263 75.7973 50.3154 76.7621C50.6869 77.6828 50.6869 78.8094 50.2587 79.7113C49.8318 80.6113 49.1673 81.0449 48.2724 81.3808C47.5271 81.4859 46.6974 81.3918 46.0083 81.0855C45.0466 80.6582 44.3056 79.8508 43.9623 78.8558C43.6513 77.9609 43.6763 76.9207 44.1134 76.0711C44.5537 75.2156 45.2693 74.7777 46.1658 74.5164Z" fill="black"/>
<path d="M46.6725 75.1187C47.2385 75.0848 47.7826 75.1594 48.2877 75.4328C48.9682 75.8062 49.4686 76.4398 49.6736 77.1887C49.8686 77.8773 49.8076 78.6523 49.4377 79.273C49.0592 79.9074 48.5178 80.2152 47.8221 80.3969C47.1221 80.3695 46.4963 80.2852 45.8865 79.9113C44.99 79.3617 44.6299 78.507 44.3818 77.5348C44.501 77.0324 44.6439 76.5367 44.9463 76.1098C45.3861 75.4883 45.9482 75.2625 46.6725 75.1187Z" fill="#EA6F1C"/>
<path d="M55.0395 142.83L56.886 142.736C57.2794 143.304 57.6704 143.85 58.1641 144.336C62.086 148.196 70.0872 148.105 75.2536 148.041C74.2536 148.84 73.4727 149.913 72.4743 150.738C67.5462 154.809 62.2395 157.076 55.9833 158.275C51.4212 159.095 44.8884 158.734 40.9219 156.181C39.6048 155.334 38.0865 153.848 37.7732 152.256C37.5528 151.136 37.93 149.912 38.5715 148.994C41.3075 145.08 47.6598 144.65 51.9618 143.871C51.3973 143.556 50.8098 143.332 50.2079 143.102C51.8188 143.024 53.427 142.901 55.0395 142.83Z" fill="#3B773B"/>
<path d="M50.2576 148.576C51.1361 148.517 52.14 148.758 52.8857 149.22C53.7595 149.761 54.4498 150.625 54.6642 151.641C54.847 152.486 54.6712 153.368 54.1794 154.078C53.5158 155.024 52.5654 155.316 51.4857 155.497C50.3751 155.412 49.308 155.187 48.3794 154.53C47.5564 153.948 46.8486 153.043 46.7017 152.024C46.5904 151.281 46.7935 150.525 47.2626 149.938C48.0103 149.002 49.1166 148.689 50.2576 148.576Z" fill="black"/>
<path d="M50.2413 149.157C50.9901 149.185 51.6979 149.303 52.3604 149.673C53.3019 150.2 53.8429 151.048 54.1085 152.073C54.0229 152.542 53.9292 152.974 53.6714 153.384C53.1534 154.208 52.3565 154.527 51.4456 154.73C50.5089 154.706 49.678 154.503 48.8925 153.965C48.2081 153.496 47.6358 152.801 47.5089 151.961C47.4132 151.356 47.5749 150.739 47.9538 150.259C48.5202 149.538 49.369 149.268 50.2413 149.157Z" fill="#EA6F1C"/>
<path d="M46.3581 143.5C47.3159 143.418 49.0241 143.37 49.9316 143.705L49.9456 143.814C49.0476 143.881 48.1526 143.985 47.2632 144.127C44.1085 144.658 39.9671 146.099 38.0456 148.835C37.3486 149.827 36.9762 150.99 37.2071 152.204C37.5392 153.949 38.7792 155.337 40.2077 156.31C42.1214 157.613 44.3632 158.3 46.6237 158.699C54.3956 160.071 62.8839 157.854 69.3874 153.497C70.6968 152.62 72.0769 151.684 73.2405 150.622C73.9593 149.966 74.5886 149.137 75.3526 148.544C75.5456 148.394 75.7573 148.306 75.9987 148.27C76.6257 148.177 77.1413 148.742 77.5964 149.101C75.9663 150.985 74.1276 152.68 72.1163 154.151C66.2081 158.718 58.5534 161.207 51.1722 161.828C44.1566 162.419 32.9652 161.883 27.3912 157.13C26.0529 155.988 24.8621 154.472 24.7448 152.651C24.6587 151.494 25.0446 150.353 25.8144 149.486C29.2802 145.556 34.3896 144.739 39.3226 144.161C41.6616 143.881 44.0077 143.661 46.3581 143.5Z" fill="#8EBA7C"/>
<path d="M22.3308 124.165C27.7985 123.966 33.1387 124.211 38.1751 126.559C36.9973 126.441 35.8328 126.257 34.648 126.205C30.6295 126.031 25.3201 126.406 22.0092 128.851C21.0139 129.585 20.1402 130.601 19.9809 131.871C19.82 133.153 20.411 134.474 21.1667 135.479C24.7987 140.312 34.264 141.173 39.9311 141.966C41.0608 142.148 42.2409 142.093 43.3839 142.222C41.5382 142.756 38.0996 143.032 36.1045 143.133C27.6368 143.561 17.6414 142.814 11.0662 136.804C9.50362 135.376 8.03948 133.51 7.97413 131.3C7.9344 129.955 8.50081 128.738 9.40655 127.769C12.2625 124.715 18.3397 124.321 22.3308 124.165Z" fill="#8EBA7C"/>
<path d="M93.5268 63.6167C93.5623 63.614 93.5982 63.6089 93.6342 63.6089C95.2463 63.6069 96.6201 64.5022 97.6666 65.6569C101.234 69.5913 100.605 77.2796 99.999 82.1409C99.8318 83.4831 99.4607 84.8495 99.4092 86.1956C99.4076 86.2308 99.4072 86.2655 99.4064 86.3007C98.0494 87.5245 97.1295 88.6589 96.1838 90.2089C96.0639 89.5858 95.8756 88.9687 95.7107 88.3558C94.9857 86.2487 94.0088 83.8308 92.3686 82.255C90.9389 80.8812 89.3936 80.4292 87.4396 80.4776C87.8408 77.9671 87.4092 71.4776 87.1182 68.8312C87.5057 67.9765 87.9994 67.1741 88.5877 66.4429C89.9006 64.812 91.424 63.8339 93.5268 63.6167Z" fill="#3B773B"/>
<path d="M95.1469 70.5137C95.5766 70.5105 95.9352 70.5656 96.3255 70.7551C97.1981 71.1781 97.8169 71.9902 98.1231 72.8984C98.4856 73.9785 98.4008 75.1586 97.8876 76.1758C97.495 76.9355 96.9669 77.35 96.1676 77.6117C95.9012 77.6039 95.6661 77.5711 95.4122 77.4852C94.5071 77.1723 93.7727 76.4977 93.3837 75.623C92.929 74.6203 92.8508 73.3352 93.2723 72.3082C93.6422 71.4059 94.2618 70.877 95.1469 70.5137Z" fill="black"/>
<path d="M95.3671 71.0938C95.5776 71.1086 95.7929 71.1375 95.9948 71.202C96.6464 71.4098 97.1562 71.9875 97.4448 72.5875C97.8112 73.3488 97.9366 74.2906 97.6417 75.0957C97.3983 75.7598 96.962 76.1418 96.3269 76.4191C95.939 76.3855 95.5663 76.3535 95.2132 76.175C94.5273 75.8281 94.014 75.1473 93.78 74.4246C93.5565 73.7348 93.5745 72.9492 93.9116 72.298C94.23 71.6824 94.7151 71.302 95.3671 71.0938Z" fill="#EA6F1C"/>
<path d="M42.0825 90.3766C41.4896 89.7063 40.954 88.9781 40.3681 88.2992C37.773 85.2926 35.2509 82.3066 33.252 78.8481C30.9629 74.8879 27.936 67.3332 29.1664 62.8504C29.4556 61.7969 30.0621 60.8945 31.0339 60.3633C32.9322 59.325 34.7311 59.6293 36.7158 60.1746C42.1072 61.6563 48.7923 66.702 51.5595 71.5582L51.2466 71.709C49.1372 69.857 46.281 67.9465 43.3392 68.1258C41.5575 68.2344 40.0146 69.0184 38.8492 70.3641C37.2798 72.1762 36.6726 74.1816 36.8534 76.5535C37.1554 80.5168 40.0888 86.8227 42.3197 90.091L42.0825 90.3766Z" fill="#8EBA7C"/>
<path d="M57.8339 81.3117C56.4808 79.7203 55.821 77.4586 54.8956 75.5973C53.5112 72.8125 51.8753 70.1488 50.8019 67.2137C49.3921 63.3594 48.4784 56.0617 50.3112 52.2406C50.8155 51.189 51.6233 50.2824 52.7581 49.9133C54.3519 49.3949 56.3464 50.0551 57.7769 50.7933C61.0081 52.4598 64.0792 55.4285 66.0929 58.4508C67.1253 60.0004 67.9694 61.7031 68.7792 63.3773C69.4601 64.7851 70.1464 66.1805 70.6272 67.6722L70.4792 67.9781C69.1874 65.3605 67.2526 62.8543 64.6124 61.5023C63.1327 60.7445 61.5913 60.3894 59.9628 60.9324C58.1554 61.5348 56.7577 62.9195 55.9382 64.6125C53.9694 68.6816 55.1179 73.7922 56.5206 77.8656C56.9206 79.0281 57.4288 80.1496 57.8339 81.3117Z" fill="#8EBA7C"/>
<path d="M19.527 78.4532C20.2177 78.3508 20.9786 78.3711 21.6746 78.4102C26.4593 78.6778 33.5799 82.3914 36.8008 86.0082C35.5679 85.6258 34.486 85.093 33.1818 84.9207C30.9995 84.6328 28.7637 84.9352 26.9914 86.3231C25.5983 87.4145 24.5778 89.0618 24.3736 90.8317C24.0163 93.927 26.0152 97.0614 27.8501 99.3696C29.2422 101.209 30.653 102.797 32.464 104.23C30.4935 103.627 27.0513 101.671 25.3727 100.45C20.6475 97.0118 15.7799 90.5399 14.8751 84.7149C14.6393 83.1973 14.6442 81.5168 15.6215 80.2352C16.5469 79.0215 18.1015 78.6715 19.527 78.4532Z" fill="#8EBA7C"/>
<path d="M16.8639 100.923C19.4989 100.963 23.0011 101.116 25.4401 102.192C26.3226 102.581 27.1539 103.109 28.0167 103.543C29.1144 104.094 30.2356 104.489 31.4047 104.852C30.5481 104.863 29.702 104.717 28.8544 104.61C26.6301 104.329 24.5387 104.32 22.4227 105.157C20.8303 105.788 19.4969 107.005 18.8485 108.61C18.2221 110.161 18.5172 111.688 19.1777 113.157C20.9476 117.093 25.2528 119.948 29.1735 121.455C30.3734 121.978 31.6311 122.35 32.8322 122.873C26.3244 122.795 18.7557 119.829 13.8891 115.493C11.2978 113.184 8.68072 109.758 8.49108 106.143C8.4308 104.994 8.74686 103.897 9.541 103.045C11.2286 101.233 14.551 101.047 16.8639 100.923Z" fill="#8EBA7C"/>
<path d="M125.442 44.177C125.463 44.1739 125.483 44.1696 125.504 44.168C127.525 44.0149 129.412 44.7829 130.968 46.0407C134.472 48.8731 135.829 54.3001 136.279 58.5872C134.425 59.6954 132.52 59.5778 130.429 59.6294C127.618 59.5516 125.017 59.4915 122.7 57.7094C120.98 56.386 119.862 54.2395 119.609 52.0946C119.38 50.1559 119.784 48.1161 121.011 46.5653C122.168 45.102 123.605 44.3852 125.442 44.177Z" fill="white"/>
<path d="M125.96 47.2883C126.86 47.2367 127.65 47.4043 128.437 47.8547C129.448 48.4336 130.226 49.3035 130.522 50.4434C130.883 51.8356 130.708 53.4465 129.975 54.6867C129.274 55.8731 128.268 56.3801 126.985 56.7113L126.804 56.7336C125.956 56.8418 125.285 56.6797 124.557 56.2199C123.394 55.4863 122.628 54.1723 122.315 52.8524C122.038 51.6797 122.108 50.2668 122.773 49.2324C123.477 48.1371 124.739 47.5813 125.96 47.2883Z" fill="black"/>
<path d="M123.763 48.8969C124.21 48.9386 124.589 49.1047 124.889 49.4511C125.15 49.7527 125.233 50.1312 125.192 50.5218C125.131 51.1086 124.765 51.4176 124.323 51.757C124.143 51.7707 123.957 51.7883 123.778 51.7758C123.426 51.7515 123.115 51.5383 122.919 51.2554C122.733 50.9875 122.715 50.5847 122.77 50.2754C122.895 49.5828 123.202 49.2801 123.763 48.8969Z" fill="white"/>
<path d="M128.672 48.8781C129.108 48.9738 129.493 49.2058 129.75 49.5753C130 49.9351 130.113 50.3765 130.013 50.8073C129.916 51.2238 129.705 51.4054 129.348 51.6156C128.97 51.5823 128.69 51.5253 128.374 51.3089C128.099 51.1218 127.97 50.907 127.927 50.5781C127.842 49.923 128.319 49.3726 128.672 48.8781Z" fill="white"/>
<path d="M93.3857 53.6277C93.7646 53.5926 94.1455 53.5836 94.5256 53.6019C95.9533 53.6648 97.2268 54.4699 98.158 55.5101C102.242 60.0711 101.334 69.0039 101.023 74.6523C100.769 73.7348 100.679 72.7914 100.551 71.8508C100.215 69.3824 99.6189 67.3566 98.0271 65.4062C97.6537 64.9457 97.1393 64.5269 96.6615 64.1793C95.4978 63.3324 94.0678 62.9648 92.6436 63.2305C89.9604 63.7308 88.3436 65.8851 86.9357 68.0191C86.8982 65.7488 86.2686 63.5211 85.8506 61.3047C86.1361 60.55 86.5135 59.8246 86.9271 59.1328C88.4783 56.5371 90.3643 54.4039 93.3857 53.6277Z" fill="#8EBA7C"/>
<path d="M112.949 78.214C114.44 77.2855 116.272 76.7738 118.022 77.1745C119.058 77.4117 120 77.9714 120.551 78.8992C122.013 81.3593 121.176 86.3007 120.444 88.8917C119.67 91.5581 118.48 94.0859 116.92 96.382C116.873 95.9714 116.811 95.557 116.788 95.1445C116.666 94.982 116.564 94.8124 116.458 94.6386C115.503 92.6984 114.386 93.3601 113.488 92.6788C113.157 92.4281 113.3 90.8824 113.223 90.412C113.15 89.9718 112.99 89.5628 112.611 89.3019C112.125 88.9671 111.326 88.9234 110.764 89.012L109.627 89.7058C109.8 89.3484 109.957 88.982 110.119 88.6195C110.534 87.4757 111.131 84.6472 111.658 83.8054C111.656 83.7804 111.659 83.7546 111.653 83.7304C111.6 83.5273 111.554 83.5296 111.588 83.3015C112.206 81.5867 112.394 79.8456 112.949 78.214Z" fill="#8EBA7C"/>
<path d="M111.658 83.8055C113.423 83.5305 114.418 83.1871 116.029 84.3582C116.983 85.0519 117.452 86.0492 117.612 87.1953C117.901 89.2594 117.403 91.2644 116.864 93.2414C116.743 93.684 116.648 94.2234 116.458 94.6387C115.503 92.6984 114.386 93.3601 113.488 92.6789C113.157 92.4281 113.3 90.8824 113.223 90.4121C113.15 89.9719 112.99 89.5629 112.611 89.3019C112.125 88.9672 111.326 88.9234 110.764 89.0121L109.627 89.7059C109.8 89.3484 109.957 88.982 110.119 88.6195C110.534 87.4758 111.131 84.6473 111.658 83.8055Z" fill="#3B773B"/>
<path d="M110.119 88.6195L110.764 89.0121L109.627 89.7058C109.8 89.3484 109.957 88.982 110.119 88.6195Z" fill="#3B773B"/>
<path d="M111.588 83.3016C111.617 83.3094 111.645 83.3203 111.675 83.325C112.005 83.3758 112.49 83.191 112.833 83.1488C114.471 82.9485 115.967 83.468 117.044 84.7711C118.168 86.1317 118.244 88.2266 118.039 89.9055C117.819 91.7149 117.152 93.3758 116.788 95.1446C116.666 94.982 116.564 94.8125 116.458 94.6387C116.649 94.2235 116.744 93.684 116.864 93.2414C117.403 91.2645 117.901 89.2594 117.612 87.1953C117.452 86.0492 116.983 85.052 116.029 84.3582C114.418 83.1871 113.424 83.5305 111.658 83.8055C111.656 83.7805 111.66 83.7547 111.653 83.7305C111.6 83.5274 111.554 83.5297 111.588 83.3016Z" fill="black"/>
<path d="M139.179 54.5043C139.435 54.4808 139.692 54.4593 139.949 54.4597C142.387 54.4648 148.97 58.7691 150.746 60.589C153.231 63.1359 153.361 65.8589 153.314 69.25C151.916 67.5234 151.688 66.6152 149.546 65.6074C145.052 64.0277 138.909 65.2804 135.235 63.2273C134.053 62.5668 133.165 61.6824 132.258 60.6914C132.847 60.6687 133.441 60.6519 134.025 60.5687C135.039 60.4242 136.536 60.1187 137.155 59.2304C137.782 58.3293 136.965 56.6375 136.772 55.6386C137.489 55.0234 138.292 54.7617 139.179 54.5043Z" fill="#F2BA22"/>
<path d="M110.58 167.401C112.071 167.38 113.538 167.146 114.999 166.865C115.307 170.751 115.822 174.655 116.279 178.527C120.141 177.929 125.782 177.65 129.391 179.131C129.636 179.231 129.741 179.281 129.85 179.524C129.785 179.628 129.783 179.644 129.677 179.735C128.628 180.636 124.087 179.707 122.687 179.539L122.248 179.67C122.214 179.758 122.172 179.846 122.152 179.938C124.402 180.398 126.832 180.87 128.991 181.653C129.724 181.919 130.658 182.325 131.003 183.061C130.994 183.314 131.006 183.433 130.81 183.624C130.546 183.879 130.026 183.977 129.68 184.036C127.054 184.487 124.867 183.275 122.521 182.327C121.256 181.817 119.919 181.333 118.706 180.713C118.01 180.357 117.105 179.471 116.34 179.46L116.251 179.619C117.308 181.314 123.991 183.642 126.07 185.072C126.649 185.471 127.392 186.007 127.53 186.731C127.448 186.955 127.427 187.055 127.183 187.152C125.538 187.804 118.865 185.058 117.213 184.08C115.406 183.01 113.915 181.301 113.377 179.262C112.443 180.41 111.433 181.648 110.304 182.604C110.432 181.684 110.584 180.857 111.122 180.068C111.574 179.404 112.321 178.727 113.129 178.575C113.287 178.545 113.208 178.588 113.331 178.467C113.242 177.372 112.854 176.202 112.592 175.132C111.945 172.549 111.274 169.972 110.58 167.401Z" fill="#F2BA22"/>
<path d="M122.152 179.938C121.623 179.857 120.605 179.802 120.209 179.45C120.804 179.153 122.022 179.45 122.687 179.539L122.248 179.67C122.214 179.758 122.172 179.846 122.152 179.938Z" fill="black"/>
<path d="M83.9944 95.1903C83.6183 93.8508 83.0944 92.4176 82.8937 91.0457C82.5952 89.0071 83.1776 86.2914 84.1812 84.495C84.8519 83.2942 85.8948 82.2176 87.2523 81.8383C88.3847 81.5305 89.5933 81.6907 90.6066 82.2832C92.9784 83.6684 94.1929 87.1938 94.796 89.7063C95.996 94.7036 95.7198 101.407 95.4702 106.577C95.3941 108.152 95.3991 109.817 95.0886 111.364C94.5866 108.941 94.8308 105.223 94.8644 102.703C94.8757 101.848 94.964 100.888 94.8394 100.047C94.7374 99.477 94.8816 98.8844 94.7073 98.3328L94.5073 98.2661L94.4601 98.0899C94.6366 97.225 94.437 96.0965 94.3874 95.2075C94.13 95.6094 94.23 95.8223 94.1472 96.2684L94.0112 95.7938C93.9066 95.7789 93.8163 95.7629 93.7105 95.7711C93.1132 94.5204 92.3921 93.1055 90.9858 92.6196C90.2757 92.3743 89.503 92.4485 88.8401 92.7973C87.7464 93.3727 86.8206 94.7883 86.4784 95.961C86.3441 96.4215 86.3151 96.9368 86.173 97.3809C85.9788 97.4551 85.8007 97.5262 85.623 97.6348C85.0409 95.4317 84.7171 92.8961 85.0819 90.6395C85.3054 89.2582 85.83 87.8536 87.0276 87.0247C87.9105 86.4133 88.971 86.2754 90.0073 86.4762L90.2257 86.1907C89.2089 85.8582 88.2562 85.8848 87.289 86.3868C86.1253 86.9907 85.2253 88.2016 84.8722 89.4539C84.6366 90.2891 84.6819 91.2954 84.3944 92.0875C84.4597 93.6399 84.7284 95.1461 85.0069 96.6704C84.7355 97.0618 84.7581 97.4254 84.5987 97.8485C84.3808 96.9696 84.1421 96.0836 83.9944 95.1903Z" fill="#F2BA22"/>
<path d="M85.6229 97.6348C85.0409 95.4317 84.7171 92.8961 85.0819 90.6395C85.3053 89.2582 85.8299 87.8535 87.0276 87.0246C87.9104 86.4133 88.971 86.2754 90.0073 86.4762C91.7799 87.2902 92.8264 88.6527 93.5014 90.4473C94.0589 91.9301 94.2764 93.6348 94.3874 95.2074C94.1299 95.6094 94.2299 95.8223 94.1471 96.2684L94.0112 95.7938C93.9065 95.7789 93.8163 95.7629 93.7104 95.7711C93.1131 94.5203 92.3921 93.1055 90.9858 92.6195C90.2756 92.3742 89.503 92.4484 88.8401 92.7973C87.7464 93.3727 86.8206 94.7883 86.4784 95.9609C86.344 96.4215 86.3151 96.9367 86.1729 97.3809C85.9788 97.4551 85.8007 97.5262 85.6229 97.6348Z" fill="#0B8DCB"/>
<path d="M90.2257 86.1906C92.0534 87.0624 93.1663 88.5062 93.8472 90.3913C94.7526 92.8988 95.2038 97.3183 94.8394 100.046C94.7374 99.4769 94.8815 98.8843 94.7073 98.3327L94.5073 98.2659L94.4601 98.0898C94.6366 97.2249 94.437 96.0964 94.3874 95.2074C94.2765 93.6347 94.0589 91.93 93.5015 90.4472C92.8265 88.6527 91.78 87.2902 90.0073 86.4761L90.2257 86.1906Z" fill="black"/>
<path d="M83.9946 95.1902C84.3403 94.141 84.0724 93.1148 84.3056 92.0769L84.3946 92.0875C84.4599 93.6398 84.7286 95.146 85.0071 96.6703C84.7356 97.0617 84.7583 97.4253 84.5989 97.8484C84.381 96.9695 84.1423 96.0835 83.9946 95.1902Z" fill="#F2BA22"/>
<path d="M85.2795 160.596C85.8834 160.95 86.392 161.718 86.9147 162.205C87.6025 162.845 88.4338 163.228 89.2709 163.63C89.1939 166.489 89.9689 169.023 90.1564 171.793C92.9025 173.075 95.4553 175.129 96.9959 177.769C97.4439 178.537 98.4568 180.65 98.1193 181.54C98.0428 181.741 97.8736 181.883 97.6647 181.935C96.5522 182.212 94.9275 178.459 94.3389 177.656C93.7303 176.821 92.9857 176.094 92.1361 175.507L92.035 175.439C92.4147 176.152 92.9717 176.802 93.4248 177.473C94.6443 179.28 95.5275 181.466 95.774 183.641C95.8283 184.121 95.9537 184.86 95.6373 185.257C95.467 185.305 95.41 185.343 95.2299 185.303C93.7182 184.973 92.5678 183.135 91.7947 181.928C90.7412 179.805 90.4303 174.683 89.5217 173.359L89.4076 173.385C89.2443 174.116 89.3775 174.903 89.4607 175.639C89.5709 176.61 89.6682 177.597 89.8389 178.56C90.2018 180.607 91.0482 183.01 89.8041 184.932C89.6135 185.227 89.3119 185.473 88.9557 185.523C88.726 185.555 88.4967 185.465 88.333 185.304C87.8287 184.81 86.7693 179 86.642 177.997C86.5209 177.047 86.4963 176.097 86.4596 175.141C86.4291 174.355 86.8627 173.708 86.908 172.946C86.9275 172.617 86.8252 172.475 86.6104 172.24C85.8107 171.977 82.826 173.129 81.917 173.39C83.7771 171.614 85.0775 171.263 87.5197 170.698C87.226 170.36 86.901 170.022 86.7225 169.607C86.0678 168.086 85.1768 162.286 85.2795 160.596Z" fill="#F2BA22"/>
<path d="M105.515 72.1805C106.24 72.1219 106.951 72.1457 107.638 72.4078C108.621 72.7828 109.333 73.5621 109.758 74.5105C110.337 75.8055 110.498 77.3305 110.562 78.7328C110.829 84.5727 109.383 85.7156 107.471 90.8191L107.426 90.9391C107.291 90.4457 107.128 89.9688 106.956 89.4871C106.667 88.3734 106.003 87.1652 105.063 86.4894C103.825 85.5996 102.102 85.7156 100.673 85.9734C100.897 84.6055 101.085 83.2316 101.237 81.8535C101.417 80.1547 101.592 75.0828 102.345 73.8266C102.934 72.8445 104.476 72.4461 105.515 72.1805Z" fill="#3B773B"/>
<path d="M106.236 77.741C106.546 77.7262 106.817 77.7371 107.12 77.816C107.864 78.0105 108.465 78.5402 108.814 79.2176C109.307 80.1726 109.275 81.2883 108.948 82.291C108.652 83.2004 108.17 83.9234 107.316 84.3668C106.831 84.391 106.349 84.4055 105.903 84.1851C105.175 83.8266 104.727 83.1137 104.486 82.3633C104.133 81.2648 104.146 79.9254 104.726 78.9027C105.102 78.239 105.516 77.9508 106.236 77.741Z" fill="black"/>
<path d="M106.468 78.2457C106.706 78.2528 106.968 78.2578 107.196 78.3321C107.662 78.4836 108.065 78.8696 108.284 79.3012C108.651 80.0231 108.636 81.0133 108.373 81.7653C108.091 82.5688 107.659 82.9946 106.895 83.3426C106.709 83.3227 106.518 83.3094 106.344 83.2332C105.691 82.9461 105.201 82.1942 105.002 81.5348C104.767 80.7559 104.841 79.8438 105.269 79.1426C105.577 78.6379 105.898 78.3871 106.468 78.2457Z" fill="#EA6F1C"/>
<path d="M78.9953 123.392C77.866 122.308 76.8257 121.14 75.7312 120.023C73.2398 117.479 70.823 115.034 68.7254 112.146C67.3101 110.198 65.5851 107.63 66.05 105.08C66.1839 104.345 66.5808 103.688 67.2199 103.282C67.7066 102.973 68.2707 102.921 68.8195 103.077C71.6277 103.871 73.8148 108.196 75.166 110.582C75.2054 109.618 72.982 106.193 72.2828 105.273L72.7441 104.952C73.9054 106.696 74.8093 108.575 75.7531 110.44C76.5863 112.087 77.4382 113.712 78.2078 115.391C78.8543 116.802 79.43 118.327 80.1625 119.686C80.2832 119.91 80.3636 120.106 80.598 120.211L80.7148 120.137C80.8062 120.387 80.7289 120.539 80.6734 120.793C80.5867 120.579 80.4781 120.455 80.3218 120.287L79.9863 120.444L80.4472 121.383C79.9707 122.058 79.48 122.723 78.9953 123.392Z" fill="#8EBA7C"/>
<path d="M72.2827 105.273L72.744 104.952C73.9054 106.696 74.8093 108.575 75.753 110.44C76.5862 112.087 77.4382 113.712 78.2077 115.391C78.8542 116.802 79.43 118.327 80.1624 119.686C80.2831 119.91 80.3636 120.106 80.5979 120.211L80.7147 120.137C80.8062 120.388 80.7288 120.539 80.6733 120.793C80.5866 120.579 80.478 120.455 80.3218 120.287L79.9862 120.444C79.0417 119.086 78.5241 117.383 77.7624 115.914C76.9394 114.118 75.9593 112.389 75.1659 110.582C75.2054 109.618 72.9819 106.193 72.2827 105.273Z" fill="#F2BA22"/>
<path d="M77.7622 115.914L77.8978 115.836C78.5286 116.893 79.5224 119.605 80.3216 120.287L79.986 120.444C79.0415 119.086 78.5239 117.383 77.7622 115.914Z" fill="black"/>
<path d="M79.2617 98.2437C79.9242 98.239 80.4281 98.3215 80.991 98.6929C84.1176 100.756 84.7078 107.278 85.3062 110.673C85.6125 112.411 85.9898 114.138 86.3504 115.865C85.5437 116.611 84.6789 117.304 83.8593 118.037C83.5754 118.269 83.307 118.528 83.0336 118.773C81.2937 114.491 76.6433 105.33 77.5922 100.913C77.8195 99.8558 78.3379 98.8488 79.2617 98.2437Z" fill="#8EBA7C"/>
<path d="M56.8782 113.603C57.9973 113.495 59.1262 113.541 60.2329 113.739C65.6543 114.678 70.7083 118.869 74.6387 122.512C75.5653 123.37 76.7391 124.324 77.4653 125.355C77.4977 125.621 77.5184 125.664 77.3969 125.898C77.1598 125.94 77.1942 125.934 77.0176 125.798C76.1965 125.171 75.4333 124.381 74.6629 123.688C72.6137 121.845 70.5387 119.906 68.2868 118.316C67.0063 117.412 65.5551 116.594 64.0571 116.115C62.4102 115.587 60.3672 115.514 58.8079 116.358C57.7668 116.921 57.0637 117.82 56.7594 118.959C56.2903 120.714 56.8817 122.253 57.7438 123.754C59.3485 126.198 61.75 128.062 64.4415 129.196C65.418 129.607 66.4477 129.893 67.4321 130.288C68.7313 130.809 69.977 131.464 71.2754 131.99C71.9829 132.276 72.7485 132.448 73.434 132.779C73.7563 132.935 74.0899 133.107 74.2165 133.461C74.1094 133.601 74.1528 133.606 73.9973 133.623C73.0954 133.724 63.3618 129.842 62.004 129.191C60.661 128.548 59.3692 127.803 58.1403 126.963C55.6586 125.249 52.6305 122.424 52.0954 119.295C51.8797 118.033 52.1563 116.774 52.9157 115.737C53.9004 114.393 55.2965 113.843 56.8782 113.603Z" fill="#F2BA22"/>
<path d="M102.25 65.0976C102.73 64.6851 103.249 64.3094 103.815 64.0234C105.349 63.2484 107.242 62.8367 108.906 63.3723C109.293 64.1508 109.542 65.6953 110.229 66.2109C110.558 66.457 110.813 66.4391 111.192 66.3836C111.431 66.4531 111.65 66.5227 111.899 66.5469C112.054 67.5809 112.363 68.5676 112.469 69.6203C112.857 73.4445 112.324 78.2762 110.954 81.8883C111.129 79.5309 111.106 76.7477 110.22 74.5285C109.758 73.3738 109.009 72.4211 107.825 71.9543C105.748 71.1355 103.899 72.1461 102.034 72.9734C102.257 70.3422 102.347 67.7371 102.25 65.0976Z" fill="#8EBA7C"/>
<path d="M90.2675 94.9082C90.835 94.9703 91.2714 95.1391 91.7038 95.518C92.4143 96.141 92.8413 97.077 93.0811 97.9777C93.4307 99.2918 93.469 100.707 93.5323 102.059C93.6807 105.217 93.5573 108.372 93.6901 111.525C92.5686 111.873 91.5249 112.439 90.4936 112.991C90.0628 113.216 89.6561 113.48 89.2452 113.739C88.9518 112.316 88.853 110.853 88.6616 109.413C88.2061 105.984 87.0804 100.304 88.2229 97.0523C88.594 95.9965 89.278 95.3676 90.2675 94.9082Z" fill="#8EBA7C"/>
<path d="M70.5893 117.361C66.8162 114.477 64.299 112.132 61.3584 108.364C58.7858 105.067 56.4432 100.58 57.0131 96.2661C57.2127 94.7536 57.8076 93.086 59.0748 92.1512C60.0354 91.4426 61.1947 91.2805 62.3545 91.4504C66.4818 92.0563 68.9881 96.1079 71.2861 99.1793L70.9209 99.4551C69.369 97.6223 67.3568 95.7102 64.8346 95.5032C63.5545 95.3981 62.3092 95.7625 61.3303 96.6051C60.2447 97.5391 59.8272 98.8235 59.7615 100.211C59.5838 103.959 62.1143 108.027 64.5584 110.67C65.4768 111.664 66.5467 112.42 67.5279 113.333C68.5549 114.29 70.0768 116.036 71.0053 117.142L70.5893 117.361Z" fill="#F2BA22"/>
<path d="M74.8001 131.71C72.0188 130.738 68.4099 129.109 66.1364 127.243C64.9606 126.278 63.8091 124.819 63.702 123.246C63.6579 122.594 63.847 121.974 64.304 121.499C64.7923 120.992 65.461 120.772 66.1536 120.755C69.4052 120.673 72.8786 123.592 75.095 125.671C75.5224 126.059 75.9278 126.537 76.4227 126.834C76.6181 126.725 76.5282 126.794 76.6888 126.623L76.9044 126.632C76.0981 128.318 75.3923 129.938 74.8001 131.71Z" fill="#8EBA7C"/>
<path d="M113.217 16.482C114.11 16.2905 114.893 16.6643 115.63 17.1374C116.319 17.58 117.256 18.2723 117.697 18.9704C118.173 19.5088 118.59 20.1453 118.917 20.7849C119.319 21.2625 119.642 21.8512 119.967 22.3844C121.728 25.2736 122.305 28.1439 122.888 31.4249C123.049 32.328 123.374 33.5188 123.296 34.4283C123.282 34.5866 123.284 34.6938 123.161 34.8C122.961 34.9718 122.705 35.0405 122.46 35.1262C122.194 35.2062 121.939 35.2627 121.704 35.413C121.167 33.6855 120.63 31.9703 119.803 30.3562C120.562 30.7811 120.733 32.0737 121.156 32.8047C121.177 31.7416 120.458 31.073 120.464 30.2104C120.465 30.1582 120.468 30.106 120.47 30.0538C120.338 29.541 120.019 28.9909 119.779 28.5122C118.441 25.8494 116.544 23.6565 114 22.086C113.224 21.6068 112.295 21.3986 111.56 20.8499C111.536 20.8321 111.512 20.8132 111.489 20.7948C111.278 20.6578 111.111 20.4901 110.981 20.2734C110.644 19.7132 110.67 18.9288 110.866 18.3265C111.067 17.7083 111.499 17.1333 112.08 16.8325C112.159 17.0305 112.185 17.0495 112.358 17.1764C112.696 17.1496 112.971 16.8499 113.224 16.639L113.217 16.482Z" fill="#FA3948"/>
<path d="M113.224 16.6389L113.343 16.7599L113.19 17.0225C113.553 17.1245 114.027 16.9842 114.346 17.1359C114.179 17.167 114.013 17.1995 113.846 17.2257C113.246 17.2141 112.791 17.3038 112.339 17.725C111.813 18.2163 111.487 19.214 111.465 19.9225C111.455 20.2131 111.507 20.5059 111.489 20.7947C111.278 20.6577 111.111 20.49 110.981 20.2734C110.644 19.7131 110.67 18.9288 110.866 18.3265C111.067 17.7083 111.499 17.1333 112.08 16.8324C112.159 17.0305 112.185 17.0494 112.358 17.1763C112.696 17.1496 112.971 16.8499 113.224 16.6389Z" fill="white"/>
<path d="M113.217 16.482C114.109 16.2905 114.893 16.6643 115.63 17.1374C116.318 17.58 117.256 18.2723 117.697 18.9704C117.745 19.3012 117.962 19.5905 117.924 19.9166C116.778 18.6387 115.593 17.5394 113.845 17.2257C114.013 17.1996 114.179 17.1671 114.346 17.1359C114.027 16.9843 113.553 17.1246 113.189 17.0226L113.343 16.76L113.223 16.639L113.217 16.482Z" fill="white"/>
<path d="M120.47 30.0538C121.054 31.1189 121.816 34.6027 122.459 35.1262C122.194 35.2062 121.939 35.2627 121.704 35.413C121.167 33.6855 120.63 31.9703 119.803 30.3562C120.562 30.7811 120.733 32.0738 121.156 32.8047C121.177 31.7416 120.458 31.073 120.464 30.2104C120.464 30.1582 120.468 30.106 120.47 30.0538Z" fill="black"/>
<path d="M117.697 18.9703C118.173 19.5087 118.59 20.1452 118.917 20.7848L118.76 20.8344C118.405 20.6715 118.132 20.2359 117.924 19.9165C117.962 19.5904 117.745 19.3011 117.697 18.9703Z" fill="white"/>
<path d="M67.2351 112.694C65.1523 110.986 63.1237 108.636 61.8433 106.276C60.7362 104.236 59.7124 100.94 60.4405 98.6293C60.748 97.6535 61.5023 96.8094 62.4167 96.3582C63.6468 95.7516 65.1452 95.8758 66.4015 96.341C68.2644 97.0312 70.6968 99.3746 71.7069 101.043C72.2718 101.975 72.6714 103.093 73.1241 104.091C73.0245 104.32 73.0374 104.203 73.0796 104.441L73.0066 104.577C71.8878 103.199 70.5452 101.613 68.8706 100.903C67.9421 100.509 66.8382 100.378 65.8976 100.808C65.0327 101.204 64.464 102.02 64.1741 102.904C62.98 106.546 65.6616 109.701 67.2351 112.694Z" fill="#0B8DCB"/>
<path d="M117.826 17.4732C117.425 16.9689 117.177 16.544 117.267 15.8779C117.346 15.2922 117.752 14.7989 118.231 14.4785C119.003 13.9614 120.015 13.826 120.913 14.0336C121.946 14.2727 122.841 14.9737 123.374 15.8841C123.67 16.3903 123.904 17.0662 124.001 17.647C124.488 18.9157 125.025 20.7976 124.815 22.1681C125.189 26.2444 125.151 30.3058 125.268 34.3948L124.061 34.6457C123.627 32.9069 123.538 31.0596 123.237 29.2884C122.418 24.4719 120.557 21.3639 117.826 17.4732Z" fill="#FA3948"/>
<path d="M117.826 17.4732C117.425 16.9689 117.177 16.544 117.267 15.8779C117.346 15.2922 117.752 14.7989 118.231 14.4785C119.003 13.9614 120.015 13.826 120.913 14.0336C121.946 14.2727 122.841 14.9737 123.374 15.8841C123.67 16.3903 123.904 17.0662 124.001 17.647C123.998 17.8803 123.997 18.1136 123.999 18.3469C123.77 18.3125 123.715 18.1751 123.567 18.0073C123.535 17.9282 123.502 17.8494 123.47 17.7708C123.05 16.7716 122.52 15.6384 121.435 15.2331C120.716 14.9646 119.611 15.0135 118.918 15.3448C118.034 15.768 118.168 16.5743 117.875 17.349C117.86 17.3906 117.843 17.4317 117.826 17.4732Z" fill="white"/>
<path d="M124.001 17.6471C124.488 18.9158 125.025 20.7977 124.815 22.1682C124.304 21.5637 123.861 18.9472 123.567 18.0074C123.715 18.1752 123.77 18.3126 123.999 18.347C123.998 18.1137 123.999 17.8804 124.001 17.6471Z" fill="white"/>
<path d="M108.593 27.0212C107.97 26.6372 107.489 26.1731 107.264 25.4567C107.057 24.7987 107.185 24.0741 107.52 23.4812C107.936 22.7434 108.671 22.2062 109.485 21.9893C110.856 21.6244 112.197 22.1864 113.352 22.8867C114.723 23.6348 116.567 24.983 117.357 26.3491C118.355 27.5561 119.004 29.0198 119.803 30.3561C120.63 31.9702 121.167 33.6855 121.704 35.4129C121.558 35.5734 121.309 35.8097 121.088 35.8652C120.854 35.924 120.75 35.8546 120.578 35.7012C120.049 35.2297 119.633 34.3541 119.247 33.7505C118.657 32.8263 117.977 31.8236 117.198 31.0491C115.571 29.4326 113.312 28.5016 111.136 27.9082C110.291 27.6777 109.333 27.5093 108.593 27.0212Z" fill="#FA3948"/>
<path d="M108.593 27.0212C107.97 26.6372 107.489 26.1731 107.264 25.4567C107.057 24.7987 107.185 24.0741 107.52 23.4812C107.936 22.7434 108.671 22.2062 109.485 21.9893C110.856 21.6244 112.197 22.1864 113.352 22.8867C113.917 23.5397 114.837 23.838 115.265 24.61C115.219 24.6389 115.176 24.6825 115.122 24.6893C113.924 23.7437 112.173 22.3197 110.543 22.4649C109.769 22.5338 109.136 23.0172 108.669 23.6114C108.28 24.1065 107.927 24.8312 107.999 25.4806C108.056 26.0021 108.698 26.5766 108.593 27.0212Z" fill="white"/>
<path d="M113.352 22.8867C114.723 23.6349 116.567 24.9831 117.357 26.3491L117.2 26.4165C116.741 26.2972 115.53 25.087 115.122 24.6893C115.176 24.6825 115.219 24.6389 115.265 24.61C114.838 23.838 113.917 23.5397 113.352 22.8867Z" fill="white"/>
<path d="M68.5416 146.548C66.4279 146.404 64.3322 146.04 62.3392 145.306C60.3459 144.572 58.4482 143.366 57.558 141.349C57.0236 140.137 57.006 138.647 57.4912 137.414C58.0752 135.93 59.3642 134.902 60.8006 134.301C63.9377 132.988 68.0709 133.735 71.2599 134.561C71.9283 134.734 72.6924 134.884 73.3185 135.169C73.5658 135.281 73.6795 135.352 73.7779 135.604L73.6158 135.796C72.9091 136.109 71.0916 135.447 70.2873 135.311C67.9705 134.92 65.1689 134.791 63.1767 136.258C62.0877 137.06 61.3881 138.222 61.217 139.57C61.0677 140.744 61.4447 142.145 62.1857 143.078C63.5279 144.77 67.2427 145.648 69.3123 145.875C70.5381 146.034 74.556 145.936 75.3541 146.615L75.3658 146.771C74.7857 147.122 69.558 146.64 68.5416 146.548Z" fill="#F2BA22"/>
<path d="M69.3122 145.875C70.538 146.034 74.556 145.936 75.354 146.615L75.3657 146.771C74.7856 147.122 69.5579 146.64 68.5415 146.548C69.222 146.048 72.8485 146.915 74.1032 146.532L74.061 146.41L74.154 146.48L73.9907 146.569L73.8962 146.368C72.3962 146.159 70.6657 146.471 69.2099 146.028L69.3122 145.875Z" fill="#F2BA22"/>
<path d="M125.522 18.8494C125.395 17.8158 125.175 16.8026 125.9 15.9266C126.342 15.3931 126.994 15.1248 127.675 15.0795C128.609 15.0173 129.547 15.3907 130.24 16.0087C131.021 16.7055 131.437 17.6774 131.456 18.7184C131.471 19.4999 131.266 20.1833 131.013 20.9091C130.825 21.4176 130.614 21.8884 130.361 22.3676C129.928 23.5289 129.182 24.6641 128.664 25.8025C127.335 28.728 127.434 31.2045 127.313 34.3159C126.895 34.3615 126.469 34.3715 126.049 34.3944C125.752 31.7599 126.018 29.0699 126.017 26.4273C126.016 23.8915 125.772 21.3696 125.522 18.8494Z" fill="#FA3948"/>
<path d="M125.522 18.8494C125.395 17.8158 125.175 16.8026 125.9 15.9266C126.342 15.3931 126.994 15.1248 127.675 15.0795C128.609 15.0173 129.547 15.3907 130.24 16.0087C131.021 16.7055 131.437 17.6774 131.456 18.7184C131.471 19.4999 131.266 20.1833 131.013 20.9091C130.801 20.7675 130.726 20.6569 130.608 20.4331C130.711 19.5865 130.934 18.5356 130.604 17.7155C130.356 17.1011 129.657 16.6715 129.064 16.4539C128.448 16.2279 127.682 16.1397 127.072 16.4355C126.345 16.7886 125.951 18.0542 125.716 18.7751L125.522 18.8494Z" fill="white"/>
<path d="M130.608 20.4331C130.727 20.6569 130.802 20.7675 131.013 20.9091C130.825 21.4176 130.614 21.8884 130.361 22.3676C130.22 21.7541 130.472 21.0337 130.608 20.4331Z" fill="white"/>
<path d="M99.0886 98.3578C99.3972 98.3184 99.766 98.2762 100.073 98.3328C100.618 98.4332 101.13 98.8734 101.42 99.3285C103.035 101.862 101.666 106.579 101.096 109.327C100.275 109.434 99.4867 109.619 98.6831 109.817C97.8468 110.07 97.0074 110.313 96.1652 110.546C96.0054 108.887 96.4242 103.016 96.8398 101.305C97.157 100 97.9527 99.0457 99.0886 98.3578Z" fill="#8EBA7C"/>
<path d="M74.4858 103.107C73.56 101.167 72.7956 99.0231 72.2089 96.9532C71.4526 94.2832 71.235 90.4399 72.6475 87.9379C73.1429 87.0606 73.8686 86.3688 74.8647 86.12C76.1038 85.8098 77.3116 86.1496 78.3651 86.818C80.9921 88.4836 82.6011 92.8008 83.2413 95.7196C83.187 95.9918 83.1597 96.227 83.0179 96.4696C82.287 94.209 81.3827 91.5887 79.1292 90.4153C78.2698 89.968 77.2964 89.7907 76.3636 90.1133C75.3034 90.4797 74.4886 91.3426 74.0432 92.3551C72.6893 95.4328 73.9554 99.6313 74.9671 102.63C74.8065 102.785 74.6296 102.936 74.4858 103.107Z" fill="#F2BA22"/>
<path d="M63.5713 128.2C62.7865 127.8 61.9998 127.357 61.2783 126.851C59.3533 125.501 57.524 123.335 57.1443 120.948C56.9658 119.822 57.1119 118.659 57.8025 117.722C58.44 116.857 59.381 116.402 60.4248 116.234C62.831 115.845 65.3556 116.845 67.2814 118.224C67.9576 118.589 68.5623 119.154 69.1599 119.638L68.9173 119.845C68.3631 119.566 67.8142 119.276 67.2631 118.991C65.9236 118.551 64.5205 118.291 63.1998 118.973C62.3693 119.401 61.8029 120.14 61.5431 121.032C61.0966 122.566 61.5869 124.297 62.3705 125.639C62.7459 126.283 63.224 126.908 63.7209 127.463C63.6767 127.707 63.6486 127.965 63.5713 128.2Z" fill="#0B8DCB"/>
<path d="M67.2814 118.224C67.9576 118.589 68.5623 119.154 69.16 119.638L68.9174 119.845C68.3631 119.566 67.8143 119.276 67.2631 118.991C67.2342 118.77 67.1295 118.76 66.96 118.627L67.0201 118.434L67.2471 118.422L67.2814 118.224Z" fill="#0B8DCB"/>
<path d="M70.3298 145.563C69.2642 145.472 68.206 145.31 67.1618 145.079C65.4396 144.689 63.2478 143.941 62.2978 142.342C61.7021 141.341 61.4446 139.944 61.7603 138.809C62.0677 137.703 62.9021 136.852 63.8907 136.309C66.3665 134.951 69.6056 135.534 72.1825 136.244C71.1552 136.459 70.0556 136.516 69.0775 136.91C68.1263 137.294 67.2564 138.104 66.8626 139.053C66.4993 139.928 66.4681 140.962 66.8388 141.839C67.5517 143.527 69.206 144.365 70.8044 145.002L70.7138 145.443C70.5732 145.527 70.4935 145.554 70.3298 145.563Z" fill="#0B8DCB"/>
<path d="M74.9371 100.801C74.0653 98.6597 73.6438 95.4304 74.2598 93.1628C74.5231 92.1929 75.0758 91.18 75.9903 90.6894C76.7067 90.3054 77.5614 90.2827 78.3219 90.5468C81.3055 91.5823 81.8688 94.9882 83.0278 97.4773L83.0653 97.5558C83.1512 97.83 83.0848 98.1183 82.9602 98.3792C82.0477 97.3546 80.841 95.9249 79.3524 95.848C78.575 95.8077 77.8434 96.1866 77.3008 96.7214C76.2371 97.7698 75.7176 99.4546 75.6715 100.918C75.6598 101.615 75.6746 102.314 75.6789 103.01C75.3828 102.3 75.0778 101.561 74.9371 100.801Z" fill="#0B8DCB"/>
<path d="M74.937 100.802L75.1046 100.887L75.1655 101.098L75.3304 101.082L75.3936 100.858C75.6089 100.883 75.5179 100.856 75.6714 100.918C75.6597 101.615 75.6745 102.314 75.6788 103.01C75.3827 102.3 75.0776 101.561 74.937 100.802Z" fill="#0B8DCB"/>
<path d="M116.906 102.147C117.889 101.605 119.078 101.096 120.198 100.938C121.339 100.778 122.453 101.22 123.187 102.113C123.43 102.408 123.603 102.82 123.916 103.045C123.958 103.074 124.001 103.102 124.043 103.13L124.326 103.275C123.945 104.227 123.575 105.427 122.73 106.068C121.67 106.178 120.915 105.478 120.062 106.566C119.604 107.151 119.669 107.947 119.328 108.587C119.007 108.731 118.791 108.679 118.464 108.603C117.292 108.563 116.09 108.518 114.925 108.685C115.609 106.511 116.321 104.35 116.906 102.147Z" fill="#0B8DCB"/>
<path d="M118.464 108.603C118.647 108.398 118.773 108.229 119.048 108.15L119.23 108.22C119.283 108.354 119.312 108.441 119.328 108.587C119.007 108.731 118.791 108.679 118.464 108.603Z" fill="#0B8DCB"/>
<path d="M100.963 90.8324C101.179 90.8523 101.398 90.8738 101.61 90.9199C102.661 91.1496 103.538 91.7359 104.085 92.6687C105.773 95.5496 104.593 99.7058 103.818 102.716C103.466 101.312 103.502 99.8468 103.129 98.4332C102.843 97.7101 102.457 97.1367 101.825 96.6679C101.135 96.1566 100.254 95.9051 99.4009 96.0355C98.2438 96.2121 97.445 96.9238 96.7817 97.8324C96.7321 96.5652 96.7684 95.2957 96.8915 94.0332C98.0087 92.5086 99.0473 91.3031 100.963 90.8324Z" fill="#0B8DCB"/>
<path d="M96.7248 93.5164C96.6345 92.8492 96.4842 92.1254 96.6967 91.4691C97.224 89.8414 98.9064 88.1344 100.426 87.393C101.395 86.9207 102.567 86.7344 103.599 87.116C104.608 87.4895 105.301 88.341 105.725 89.3039C107.097 92.4227 106.225 99.0184 105.023 102.115C105.003 102.137 104.982 102.159 104.961 102.181C104.729 102.439 104.606 102.676 104.478 102.996L104.363 103C104.349 102.842 104.333 102.684 104.314 102.525C104.926 100.416 105.363 98.1516 105.317 95.9512C105.282 94.2902 104.882 92.6793 103.607 91.516C102.878 90.8504 101.88 90.3891 100.877 90.4719C99.0756 90.6203 97.8021 92.2426 96.7248 93.5164Z" fill="#F2BA22"/>
<path d="M132.85 62.8679C133.938 63.323 134.683 64.3398 136.001 64.7906C139.618 66.0277 144.408 65.2082 148.19 66.1703C147.605 66.7511 146.937 67.1449 146.223 67.5449C146.182 67.5664 146.141 67.5882 146.1 67.6089C143.726 68.8093 140.436 69.7519 137.827 68.8257C134.981 67.816 134.068 65.3777 132.85 62.8679Z" fill="#F2BA22"/>
<path d="M116.934 101.552C117.154 100.311 117.161 98.2195 118.244 97.443C119.775 96.3461 122.911 96.1461 124.729 96.4949C125.136 96.573 125.525 96.7258 125.922 96.8437C125.633 99.0633 124.986 101.146 124.326 103.275L124.043 103.13C123.987 102.318 123.709 101.96 123.108 101.437C122.331 100.761 121.443 100.359 120.397 100.426C119.198 100.503 118.011 101.062 116.934 101.552Z" fill="#F2BA22"/>
<path d="M106.828 102.992C107.768 101.009 109.059 98.3985 111.275 97.5895C111.828 97.3871 112.399 97.3821 112.928 97.6594C113.793 98.1121 114.363 99.1414 114.6 100.054C114.974 101.504 114.6 104.476 114.022 105.794L113.885 105.87C113.59 105.423 113.489 104.851 113.301 104.352C112.921 103.339 112.01 102.218 110.904 101.989C109.937 101.788 109 102.203 108.22 102.743C107.951 102.928 107.692 103.126 107.442 103.335C107.232 103.232 107.031 103.107 106.828 102.992Z" fill="#0B8DCB"/>
<path d="M107.223 99.825C108.246 97.6933 109.821 95.2453 112.162 94.4046C112.891 94.1429 113.706 94.0574 114.423 94.4007C115.226 94.7847 115.669 95.5492 115.934 96.366C116.465 98.0015 116.403 100.303 115.963 101.95C115.859 102.047 115.793 102.069 115.764 102.212C115.684 102.601 115.565 102.774 115.337 103.095C115.342 103.043 115.348 102.991 115.352 102.939C115.367 102.714 115.373 102.802 115.296 102.584L115.095 102.532C115.205 101.961 115.218 101.27 115.161 100.689C115.054 99.5855 114.639 98.4437 113.752 97.7293C113.161 97.2531 112.424 97.0328 111.67 97.148C110.025 97.4 108.803 98.8703 107.88 100.131C107.663 100.024 107.444 99.9222 107.223 99.825Z" fill="#F2BA22"/>
<path d="M141.847 43.1492C142.072 43.1738 142.309 43.2183 142.525 43.2832C143.988 43.7183 144.926 45.314 145.567 46.5968C147.054 49.5757 146.644 52.6496 145.621 55.68C145.044 55.4625 144.486 55.1527 143.933 54.8773C145.066 53.7531 145.666 52.5246 145.833 50.93C145.864 49.8941 145.81 48.7039 145.317 47.773C144.943 47.0664 144.227 46.4878 143.45 46.291C142.828 46.1335 142.079 46.2363 141.541 46.5941C140.629 47.2 140.369 48.6394 140.516 49.6527C140.58 50.096 140.785 50.6578 140.709 51.0968L140.561 51.0824C140.497 50.9878 140.47 50.9554 140.42 50.8617C139.612 49.348 139.685 46.4562 140.2 44.8648C140.489 43.9675 141.025 43.5535 141.847 43.1492Z" fill="white"/>
<path d="M79.2642 96.2754C80.1986 96.4508 80.8611 96.7188 81.4947 97.4609C81.5389 97.7688 81.6053 97.9398 81.4267 98.2254C81.4002 98.268 81.3615 98.3016 81.3287 98.3395C81.1533 98.225 80.9748 98.1063 80.7857 98.0156C80.2439 97.7547 79.4842 97.6883 78.9228 97.923C78.1994 98.2258 77.6978 99.0633 77.4178 99.7594C75.5318 104.45 80.5529 113.853 82.3646 118.334C82.5162 118.709 82.683 119.052 82.5166 119.444L82.3459 119.486C81.9928 119.286 81.7295 118.349 81.5455 117.959C79.8209 114.305 78.2447 110.577 77.0549 106.709C76.2517 104.099 75.4045 100.746 76.8224 98.1879C77.3826 97.1773 78.1822 96.6051 79.2642 96.2754Z" fill="#F2BA22"/>
<path d="M109.61 104.108C109.807 104.082 110.006 104.061 110.205 104.079C110.733 104.126 111.219 104.346 111.555 104.762C112.381 105.788 112.237 107.455 112.138 108.687C111.087 108.639 110.06 108.628 109.008 108.667C108.009 108.702 107.01 108.75 106.011 108.811C106.901 106.784 107.633 105.274 109.61 104.108Z" fill="#8EBA7C"/>
<path d="M72.4521 138.027C72.7677 137.985 73.1048 137.989 73.4236 137.972C73.3372 140.19 73.5431 142.345 74.2025 144.467C73.5075 144.234 72.8197 143.995 72.1392 143.722C71.7818 143.55 71.4224 143.341 71.0978 143.112C70.2986 142.547 69.5771 141.749 69.4372 140.746C69.3575 140.173 69.4868 139.592 69.8408 139.13C70.4943 138.275 71.4611 138.141 72.4521 138.027Z" fill="#8EBA7C"/>
<path d="M69.7307 130.602C66.8018 129.133 63.5842 127.695 62.3412 124.402C61.8842 123.192 61.7397 121.784 62.3065 120.584C62.5967 119.969 63.0811 119.47 63.7299 119.244C64.992 118.805 66.4221 119.2 67.5791 119.74L67.1912 119.808C67.201 120.007 67.2409 120.194 67.2791 120.389C66.2385 120.201 65.2998 120.087 64.3733 120.731C63.7643 121.153 63.3866 121.823 63.2772 122.55C63.078 123.873 63.6608 125.21 64.4643 126.234C65.9342 128.107 68.0877 129.226 70.1596 130.307L69.7307 130.602Z" fill="#F2BA22"/>
<path d="M70.8842 144.478C70.3905 144.325 69.8854 144.101 69.4354 143.846C68.4393 143.283 67.5331 142.455 67.2413 141.31C67.0299 140.48 67.1956 139.612 67.6311 138.882C68.2452 137.853 69.2487 137.241 70.4026 136.986C71.119 136.827 72.9932 136.547 73.5803 136.92L73.5928 137.116C73.1163 137.66 71.9151 137.503 71.21 137.671C70.4858 137.845 69.7385 138.197 69.344 138.859C68.926 139.561 68.8479 140.547 69.0463 141.329C69.3831 142.655 70.5456 143.336 71.6436 143.979C72.5706 144.367 73.8971 144.526 74.6264 145.211L74.5866 145.356C74.0401 145.459 71.5225 144.698 70.8842 144.478Z" fill="#F2BA22"/>
<path d="M71.6437 143.979C72.5706 144.367 73.8972 144.526 74.6265 145.211L74.5866 145.356C74.0401 145.459 71.5226 144.698 70.8843 144.478C71.1394 144.411 71.3046 144.375 71.5565 144.468C71.8585 144.58 72.1409 144.691 72.464 144.603C72.2819 144.468 72.137 144.389 71.9218 144.314C71.7464 144.253 71.6909 144.23 71.5362 144.112L71.6437 143.979Z" fill="#8EBA7C"/>
<path d="M86.9709 104.319C86.4244 102.54 86.4182 97.4773 87.0264 95.6961C87.3654 94.7031 88.3166 93.6117 89.2803 93.173C89.8303 92.9226 90.4221 92.8863 90.9881 93.1101C92.3436 93.6464 93.0314 95.2226 93.5525 96.4722C93.4357 96.7285 93.4432 96.7949 93.1959 96.9195C92.685 95.9558 92.1002 94.9636 90.9885 94.6148C90.4205 94.4367 89.8193 94.5113 89.2971 94.7914C88.4029 95.2707 87.9092 96.2507 87.6584 97.1945C87.1049 99.2808 87.1928 101.85 87.4572 103.992C87.3861 104.132 87.2857 104.238 87.3166 104.396C87.3721 104.68 87.3787 104.88 87.335 105.166C87.1447 104.954 87.2147 104.575 87.0397 104.303L86.9709 104.319Z" fill="#F2BA22"/>
<path d="M112.27 52.3871L112.401 52.4621C112.892 53.389 111.404 59.3761 111.232 60.7758C111.077 62.0418 111.179 63.7031 110.883 64.8656C110.832 65.0656 110.832 65.1058 110.65 65.2117L110.485 65.107C110.111 64.3629 109.928 63.7082 109.872 62.8832C109.702 60.3629 110.567 54.3211 112.27 52.3871Z" fill="#FA3948"/>
<path d="M64.6114 106.061C64.4466 105.571 64.4118 104.852 64.4399 104.341C64.495 103.35 64.8731 102.317 65.6454 101.661C66.2165 101.176 66.9376 100.972 67.679 101.069C69.8446 101.354 71.5114 103.336 72.7442 104.952L72.2829 105.273C71.2798 104.144 69.9286 102.619 68.3024 102.547C67.6146 102.517 66.9622 102.746 66.4767 103.241C65.7665 103.965 65.5864 105.02 65.4872 105.989L65.3884 106.052C65.4372 106.527 65.5493 106.986 65.4399 107.457L65.3263 107.466C65.0177 107.028 64.9485 106.449 64.6114 106.061Z" fill="#F2BA22"/>
<path d="M111.092 89.4421C111.572 89.5078 112.002 89.6691 112.324 90.05C112.954 90.796 112.799 91.9476 112.713 92.8453C111.945 93.1445 111.203 93.4605 110.467 93.8308C110.229 93.9804 110.047 94.0945 109.765 94.1433C109.5 94.066 109.365 93.9945 109.208 93.7605C108.864 93.2499 109.002 92.2265 109.172 91.6757C109.484 90.6656 110.16 89.914 111.092 89.4421Z" fill="#EA6F1C"/>
<path d="M109.554 102.559C110.191 102.478 110.744 102.476 111.337 102.752C112.192 103.148 112.794 103.943 113.1 104.818C113.414 105.715 113.6 107.511 113.118 108.364C113.005 108.564 112.924 108.636 112.698 108.7L112.608 108.523C112.726 107.429 112.723 106.319 112.303 105.281C112.044 104.641 111.551 103.916 110.871 103.675C110.398 103.508 109.644 103.575 109.207 103.814C109.157 103.841 109.109 103.871 109.06 103.899C107.139 105.033 106.681 106.595 105.649 108.431C105.51 108.679 105.425 108.792 105.155 108.879L104.992 108.72C104.946 108.467 104.963 108.287 105.05 108.049C105.846 105.861 107.399 103.558 109.554 102.559Z" fill="#F2BA22"/>
<path d="M96.5151 100.355C96.6831 99.5625 96.8202 98.7617 97.255 98.0629C97.7112 97.3289 98.4538 96.7258 99.3085 96.5391C100.056 96.3816 100.835 96.5496 101.452 97.0008C102.54 97.7852 102.866 99.0785 103.092 100.323C102.961 100.694 102.713 100.907 102.538 101.252C102.299 100.174 101.887 98.8406 100.925 98.1965C100.435 97.8633 99.8284 97.748 99.2499 97.8777C97.9948 98.1539 97.1815 99.3566 96.5151 100.355Z" fill="#F2BA22"/>
<path d="M74.3677 106.955L74.6751 106.752C76.545 109.696 77.9813 112.967 79.5399 116.088C80.1962 117.403 81.0032 118.649 81.5958 119.993C81.4224 120.306 81.2423 120.756 80.9497 120.968L80.7747 120.943L80.6731 120.793C80.7286 120.539 80.806 120.387 80.7146 120.137C80.2278 118.641 79.4306 117.202 78.7638 115.777C77.3841 112.829 75.9911 109.777 74.3677 106.955Z" fill="#0B8DCB"/>
<path d="M64.6113 106.061C64.9484 106.449 65.0176 107.028 65.3262 107.466L65.4398 107.457C65.5492 106.986 65.4371 106.527 65.3883 106.052L65.4871 105.989C66.1453 111.28 71.2961 116.275 74.9223 119.913C76.1504 121.145 77.3301 122.414 78.5984 123.607C78.7422 123.741 78.7051 123.655 78.6699 123.879C78.1117 123.801 72.9648 118.478 72.2496 117.694C70.8977 116.213 69.5547 114.687 68.3445 113.088C66.8902 111.165 64.8273 108.518 64.6113 106.061Z" fill="#F2BA22"/>
<path d="M112.439 59.4434C112.999 59.907 113.626 63.7926 113.718 64.65C113.526 65.0273 113.367 65.4223 113.198 65.8105L113.048 65.8402C112.812 65.7426 112.837 65.7254 112.734 65.4781C112.51 64.9375 112.247 64.4965 111.927 64.0074C111.878 62.625 111.868 60.7027 112.439 59.4434Z" fill="#FA3948"/>
<path d="M67.5793 119.74C70.1391 120.896 72.2645 122.304 74.3516 124.18C75.2043 124.947 75.9969 125.765 76.898 126.476L76.9043 126.632L76.6887 126.623C76.5281 126.794 76.618 126.725 76.4227 126.834C75.9277 126.537 75.5223 126.059 75.0949 125.671L75.1578 125.473C74.2219 124.116 71.0863 121.986 69.6121 121.247C68.8512 120.864 68.1027 120.6 67.2793 120.389C67.241 120.194 67.2012 120.007 67.1914 119.808L67.5793 119.74Z" fill="#F2BA22"/>
<path d="M103.092 100.323C103.266 102.159 103.194 107.633 101.992 109.078C101.87 109.225 101.852 109.263 101.658 109.299C101.514 108.984 102.406 105.038 102.495 104.305C102.624 103.292 102.638 102.268 102.538 101.252C102.713 100.907 102.961 100.694 103.092 100.323Z" fill="#F2BA22"/>
<path d="M84.7007 104.526L85.0991 104.11C85.5894 105.409 85.7366 106.877 85.9476 108.242C86.1835 109.791 86.4362 111.339 86.7065 112.883C86.4585 113.074 86.4046 113.203 86.2921 113.484C85.705 110.505 85.2058 107.519 84.7007 104.526Z" fill="#F2BA22"/>
<path d="M93.5529 96.4723C93.7752 97.2336 94.0393 98.0258 94.1475 98.8117C94.3498 100.28 94.6943 106.187 94.3369 107.409L94.0584 107.147C93.71 104.425 94.1514 101.419 93.7311 98.761C93.6342 98.1477 93.376 97.5164 93.1963 96.9196C93.4436 96.7949 93.4361 96.7285 93.5529 96.4723Z" fill="#F2BA22"/>
<path d="M86.9712 104.32L87.0399 104.303C87.2149 104.575 87.145 104.954 87.3353 105.166C87.379 104.88 87.3724 104.68 87.3169 104.396C87.286 104.238 87.3864 104.132 87.4575 103.992C87.8138 106.601 88.1513 109.213 88.4708 111.828C88.5509 112.442 88.7798 113.058 88.8407 113.656L88.6692 113.855L88.7853 113.936L88.7173 113.941C88.1997 113.326 87.1036 105.676 86.9712 104.32Z" fill="#F2BA22"/>
<path d="M143.416 47.2585C143.907 47.2621 144.247 47.3519 144.603 47.7093C144.894 48.0019 145.041 48.3683 145.037 48.78C145.034 49.2617 144.825 49.5027 144.5 49.8343L144.09 49.9222C143.902 49.8785 143.793 49.8371 143.636 49.716C143.284 49.4445 143.13 48.9285 143.091 48.505C143.043 47.9687 143.073 47.6777 143.416 47.2585Z" fill="white"/>
<path d="M85.5554 102.714C85.6249 102.427 85.6616 102.21 85.5995 101.917C85.5214 101.548 85.4284 101.168 85.5765 100.805C85.598 100.848 85.6284 100.888 85.6413 100.934C85.7046 101.162 85.7011 101.381 85.7847 101.618L85.8948 101.495C86.3788 102.742 86.7866 106.169 86.9616 107.643C86.8386 107.748 86.73 107.844 86.5897 107.925C86.2159 106.2 85.9007 104.446 85.5554 102.714Z" fill="#F2BA22"/>
<path d="M84.5991 97.8484C84.7585 97.4254 84.7358 97.0617 85.0073 96.6703C85.3354 98.2726 85.6312 99.8812 85.8952 101.495L85.7851 101.618C85.7015 101.381 85.705 101.162 85.6417 100.934C85.6288 100.888 85.5983 100.848 85.5769 100.805C85.4288 101.168 85.5218 101.548 85.5999 101.917C85.662 102.21 85.6253 102.427 85.5558 102.714C85.2019 101.099 84.8827 99.4769 84.5991 97.8484Z" fill="#F2BA22"/>
<path d="M108.149 92.7227C108.542 92.9781 108.802 94.7254 108.96 95.2684C108.6 95.6582 108.217 96.0285 107.841 96.4031L107.586 96.6109C107.17 96.0879 108.092 93.4855 108.149 92.7227Z" fill="#3B773B"/>
<path d="M115.095 102.532L115.297 102.584C115.374 102.801 115.367 102.714 115.352 102.939C115.349 102.991 115.342 103.043 115.337 103.095C115.565 102.774 115.684 102.601 115.764 102.212C115.793 102.069 115.859 102.047 115.963 101.95C115.538 104.143 114.592 106.14 113.647 108.145C113.908 106.216 114.854 104.484 115.095 102.532Z" fill="#F2BA22"/>
<path d="M70.1599 130.307C71.5696 130.988 73.2872 131.442 74.5853 132.277L74.5915 132.384C73.4837 132.452 70.7692 131.119 69.731 130.602L70.1599 130.307Z" fill="#F2BA22"/>
<path d="M83.092 97.1665L83.3338 97.6146L83.4713 97.6431L83.5545 97.479C83.6994 98.1177 83.751 98.7888 83.9314 99.4165C84.2002 100.353 85.3244 101.788 84.8959 102.758C84.5416 101.098 83.7869 99.8388 82.96 98.3794C83.0846 98.1185 83.151 97.8302 83.065 97.556L83.092 97.1665Z" fill="#0B8DCB"/>
<path d="M86.9617 107.643C87.0617 108.176 87.9863 113.814 87.9801 113.854C87.3816 112.972 86.7363 109.083 86.5898 107.925C86.7301 107.844 86.8387 107.748 86.9617 107.643Z" fill="#F2BA22"/>
<path d="M120.657 107.294C120.673 106.978 120.638 106.832 120.83 106.574C121.162 106.429 121.527 106.297 121.886 106.443C122.054 106.512 122.129 106.622 122.229 106.763C122.211 107.07 122.043 107.182 121.849 107.414C121.584 107.622 121.225 108.004 120.882 108.006C120.668 107.771 120.696 107.604 120.657 107.294Z" fill="#F2BA22"/>
<path d="M94.0583 107.147L94.3368 107.409C94.4696 108.55 94.4016 109.695 94.5134 110.834C94.5384 111.089 94.5462 111.1 94.386 111.284L94.2395 111.209C93.8216 110.062 94.0477 108.364 94.0583 107.147Z" fill="#F2BA22"/>
<path d="M74.9671 102.63C75.4265 103.91 75.946 105.198 76.2679 106.521C75.6222 105.406 75.0226 104.279 74.4858 103.107C74.6296 102.936 74.8065 102.785 74.9671 102.63Z" fill="#F2BA22"/>
<path d="M86.2925 113.484C86.405 113.203 86.4589 113.074 86.7069 112.883C86.8843 113.567 87.3104 114.7 87.0319 115.364C86.8046 115.268 86.7151 115.064 86.6311 114.833C86.4784 114.411 86.4093 113.922 86.2925 113.484Z" fill="#F2BA22"/>
<path d="M105.545 105.705C105.81 104.616 106.282 103.949 106.827 102.992C107.031 103.107 107.232 103.232 107.442 103.335C106.689 104.056 106.124 104.839 105.545 105.705Z" fill="#0B8DCB"/>
<path d="M81.4946 97.4609C82.0317 98.0137 82.4751 98.6355 82.8802 99.2898L82.5372 99.5574C82.1532 99.1332 81.7497 98.7266 81.3286 98.3395C81.3614 98.3016 81.4001 98.268 81.4267 98.2254C81.6052 97.9398 81.5388 97.7687 81.4946 97.4609Z" fill="#F2BA22"/>
<path d="M111.192 66.3836C111.253 65.8016 111.279 65.2156 111.496 64.6676L111.641 64.5582C112.021 64.9817 111.907 66.0114 111.899 66.5469C111.65 66.5227 111.431 66.4532 111.192 66.3836Z" fill="#8EBA7C"/>
<path d="M82.8801 99.2899C83.4176 100.114 83.7215 100.939 84.0383 101.866L83.7961 102.066C83.4313 101.198 83.1117 100.312 82.5371 99.5575L82.8801 99.2899Z" fill="#F2BA22"/>
<path d="M104.315 102.525C104.333 102.684 104.349 102.842 104.363 103L104.478 102.996C104.606 102.676 104.729 102.439 104.962 102.181C104.982 102.159 105.003 102.137 105.024 102.115C104.678 103.263 104.209 104.41 103.713 105.5C103.806 104.49 103.954 103.48 104.315 102.525Z" fill="#F2BA22"/>
<path d="M63.7209 127.463C64.4756 128.224 65.3072 128.796 66.199 129.384C65.2596 129.109 64.4232 128.676 63.5713 128.2C63.6486 127.965 63.6768 127.707 63.7209 127.463Z" fill="#0B8DCB"/>
<path d="M106.791 100.963C106.987 100.985 107.112 101.008 107.286 101.105C106.851 102.005 106.482 102.913 105.949 103.763C106.15 102.818 106.438 101.863 106.791 100.963Z" fill="#F2BA22"/>
<path d="M93.7104 95.7711C93.8163 95.7629 93.9065 95.7789 94.0112 95.7937L94.1472 96.2683C94.23 95.8222 94.13 95.6094 94.3874 95.2074C94.437 96.0965 94.6366 97.225 94.4601 98.0898C94.1339 97.3664 93.9796 96.5269 93.7104 95.7711Z" fill="#0B8DCB"/>
<path d="M73.1244 104.091C73.6236 104.989 74.0971 105.901 74.6756 106.752L74.3682 106.955C74.0826 106.07 73.451 105.377 73.0068 104.577L73.0799 104.441C73.0377 104.203 73.0248 104.32 73.1244 104.091Z" fill="#0B8DCB"/>
<path d="M70.8042 145.002C71.6116 145.282 72.419 145.506 73.2491 145.711C72.3597 145.708 71.1831 145.784 70.3296 145.563C70.4933 145.554 70.5729 145.527 70.7136 145.443L70.8042 145.002Z" fill="#0B8DCB"/>
<path d="M107.223 99.825C107.444 99.9222 107.663 100.024 107.88 100.131C107.679 100.45 107.455 100.768 107.285 101.105C107.112 101.008 106.987 100.985 106.791 100.963L107.223 99.825Z" fill="#F2BA22"/>
<path d="M83.2415 95.7195C83.3435 96.3062 83.438 96.8953 83.5548 97.4789L83.4716 97.6429L83.3341 97.6144L83.0923 97.1664L83.0181 96.4695C83.1599 96.2269 83.1872 95.9917 83.2415 95.7195Z" fill="#F2BA22"/>
<path d="M84.0381 101.866C84.2096 102.403 84.3096 102.946 84.7381 103.34L84.5631 103.491C84.1764 103.041 83.9627 102.639 83.7959 102.066L84.0381 101.866Z" fill="#F2BA22"/>
<path d="M104.925 106.911C104.994 107.51 104.683 108.228 104.405 108.743C104.356 108.618 104.34 108.598 104.326 108.446C104.276 107.928 104.63 107.307 104.925 106.911Z" fill="#0B8DCB"/>
<path d="M112.079 16.8324C112.412 16.6588 112.836 16.3971 113.217 16.4819L113.223 16.6389C112.971 16.8498 112.695 17.1496 112.358 17.1763C112.184 17.0494 112.158 17.0305 112.079 16.8324Z" fill="white"/>
<path d="M71.2861 99.1793L72.2037 100.467C71.7334 100.162 71.2932 99.8828 70.9209 99.4551L71.2861 99.1793Z" fill="#F2BA22"/>
<path d="M85.623 97.6348C85.8008 97.5262 85.9789 97.4551 86.173 97.3809C86.1301 97.9352 86.1027 98.4758 86.1137 99.032L85.623 97.6348Z" fill="#0B8DCB"/>
<path d="M71.0049 117.142C71.2236 117.402 71.4475 117.658 71.6525 117.929L71.2678 117.896L70.5889 117.361L71.0049 117.142Z" fill="#F2BA22"/>
<path d="M84.7385 103.34C84.8791 103.589 85.035 103.828 85.0994 104.11L84.701 104.526L84.5635 103.491L84.7385 103.34Z" fill="#F2BA22"/>
<path d="M70.627 67.6722C70.8962 68.141 70.9927 68.6414 71.1298 69.1582C70.8853 68.7715 70.663 68.3992 70.479 67.9781L70.627 67.6722Z" fill="#8EBA7C"/>
<path d="M42.3196 90.0911C42.5927 90.5399 42.8735 90.9836 43.1048 91.4559C42.7603 91.0997 42.4192 90.7399 42.0825 90.3766L42.3196 90.0911Z" fill="#8EBA7C"/>
<path d="M70.8536 96.9988L71.1606 98.3839C70.9481 98.0171 70.729 97.6804 70.6392 97.2609L70.8536 96.9988Z" fill="#3B773B"/>
<path d="M51.5595 71.5582C51.7146 71.7645 51.8173 71.8508 51.8446 72.111C51.5853 72.102 51.4263 71.8918 51.2466 71.709L51.5595 71.5582Z" fill="#8EBA7C"/>
<path d="M69.1601 119.637C69.3605 119.784 69.5362 119.846 69.6069 120.092C69.3308 120.103 69.1487 119.975 68.9175 119.844L69.1601 119.637Z" fill="#0B8DCB"/>
<path d="M71.6528 117.929C71.8903 118.127 72.0927 118.489 72.279 118.743L71.2681 117.896L71.6528 117.929Z" fill="#F2BA22"/>
<path d="M98.6429 163.99C98.3933 163.937 98.1815 163.871 97.9448 163.775L98.0097 163.695L98.539 163.662L98.6429 163.99Z" fill="#0B8DCB"/>
</svg>
