<svg width="200" height="200" viewBox="0 0 200 200" fill="none" xmlns="http://www.w3.org/2000/svg">
<path d="M79.4703 34.9443C79.3187 33.169 79.3812 31.3583 78.7812 29.6525C77.5296 26.0942 72.5503 20.1109 75.6992 16.4363C76.3847 15.6364 77.3468 15.0754 78.407 15.0033C80.7476 14.8442 80.5152 15.9071 81.7433 16.4383C81.8691 16.4927 81.9531 16.4203 82.0457 16.3264C82.2886 16.0799 82.4507 15.689 82.6581 15.4048C83.2457 14.6007 84.2949 14.2138 85.2492 14.0763C86.2625 13.9302 87.3226 14.1925 88.121 14.8403C88.9386 15.5034 89.2257 16.2549 89.389 17.2571C90.7191 16.7265 92.2777 16.2088 93.6863 16.7847C94.4515 17.0976 95.0769 17.7022 95.375 18.4773C95.7468 19.4376 95.7132 20.5076 95.2816 21.4426L95.2351 21.5404C96.7902 21.671 98.023 22.1177 99.0507 23.3673C99.6988 24.1551 100.173 25.1488 100.042 26.1916C99.9105 27.235 99.1753 28.063 98.35 28.6565C97.0394 29.5985 95.4351 29.9714 94.0328 30.7427C92.2953 31.6983 90.9171 33.2557 89.7757 34.8478C89.3105 35.4969 88.8925 36.1661 88.3507 36.7556C89.3335 37.5911 90.3941 38.3524 91.3335 39.2328C94.6324 42.3254 95.4894 45.3445 97.0156 49.3379C98.5363 47.9062 99.9253 46.8027 102.132 46.9101C104.176 47.0093 105.909 48.3961 107.194 49.8765C110.377 53.5449 112.159 60.1867 112.214 65.0023C114.323 59.6168 117.614 53.8402 123.153 51.3929C124.771 50.6781 126.742 50.3133 128.441 50.9617C130.188 51.6289 131.382 53.2531 132.095 54.9164C134.065 59.5117 133.836 67.4531 132.232 72.1578L132.312 72.0605C133.13 71.0582 133.807 69.9484 134.625 68.9457C137.589 65.3133 141.697 61.7523 146.53 61.216C148.068 61.0453 149.63 61.3953 150.844 62.3945C152.622 63.859 153.377 66.3109 153.567 68.5289C153.928 72.7379 152.682 79.7465 150.298 83.3152C151.627 82.4504 152.807 81.3824 154.12 80.4965C157.385 78.2949 161.943 76.3433 165.961 77.1968C167.421 77.5074 168.821 78.2265 169.65 79.5129C171.084 81.739 170.797 84.6277 170.246 87.089C169.315 91.25 166.957 95.764 163.929 98.7941L163.546 99.1785C167.661 97.8883 172.929 97.3508 176.884 99.4031C178.191 100.082 179.175 101.205 179.621 102.617C180.46 105.273 178.945 108.74 177.692 111.025C175.962 114.18 173.091 116.778 170.078 118.705C168.778 119.537 167.413 120.207 166.217 121.196C169.91 120.373 174.838 121.308 178.024 123.346C179.387 124.218 180.664 125.59 181.035 127.198C181.462 129.052 180.624 131.082 179.626 132.616C176.302 137.728 167.959 141.709 162.09 142.962C161.817 143.021 161.541 143.062 161.267 143.121C163.808 143.882 166.509 145.61 167.783 148.01C168.569 149.493 168.764 151.366 168.271 152.973C167.438 155.69 164.851 157.752 162.421 159.007C155.296 162.687 146.676 162.286 139.205 159.877C134.855 158.454 130.746 156.38 127.017 153.726C126.405 153.284 125.711 152.858 125.212 152.288C123.698 154.308 122.137 156.422 120.388 158.243C117.696 161.044 114.156 163.53 110.684 165.284C109.084 166.092 107.399 166.683 105.786 167.453C106.024 169.225 106.71 170.993 107.155 172.727C107.548 174.252 107.791 175.825 108.224 177.336C111.293 177.569 118.045 178.202 120.084 180.619C120.352 180.937 120.669 181.477 120.618 181.914C120.547 182.515 119.926 182.912 119.471 183.227C119.323 183.329 119.175 183.429 119.024 183.528C119.385 184.205 119.836 184.716 120.087 185.457C120.122 185.562 120.157 185.666 120.189 185.771L119.713 186.813C118.463 187.704 117.631 187.371 116.253 187.492C116.103 187.505 115.913 187.5 115.894 187.672C115.82 188.341 116.134 188.827 115.728 189.462C115.27 189.83 114.337 189.785 113.779 189.719C110.638 189.35 106.741 186.712 104.83 184.23C104.059 183.23 103.566 182.093 103.278 180.868C102.487 181.435 100.853 182.937 100.006 183.064C99.7699 183.001 99.6437 182.998 99.5273 182.754C99.1652 181.997 99.5968 180.346 99.9421 179.648C100.7 178.115 101.773 177.8 103.211 177.14C102.423 174.329 101.745 171.566 101.211 168.695C97.8933 168.942 94.6062 169.261 91.2777 169.009C91.3992 170.467 91.8105 175.828 92.6328 176.707C93.0253 177.127 93.9753 177.364 94.4972 177.605C96.1238 178.354 97.3292 180.139 97.4519 181.941C97.4847 182.418 97.3714 182.855 97.0843 183.239C96.6738 183.337 96.2785 183.08 95.941 182.871C94.9746 182.275 94.0687 181.511 93.1742 180.809C92.6832 184.157 90.9136 186.449 88.2062 188.458C87.0699 189.302 85.1679 190.162 83.7187 189.903C83.416 189.848 83.1867 189.7 83.0085 189.446C82.6726 188.968 82.7531 188.003 82.7773 187.437C81.5421 187.763 79.6808 188.282 78.4945 187.58C78.1773 187.393 77.9949 187.059 77.8226 186.745C77.8718 186.075 77.996 185.449 78.1582 184.798C77.3789 184.836 76.0601 185 75.4472 184.405C75.2675 184.23 75.2183 184.012 75.2304 183.77C75.2792 182.773 76.905 181.394 77.6699 180.85C80.5328 178.816 83.605 178.25 86.88 177.258C86.041 174.269 85.4488 171.162 84.7515 168.134C84.7175 168.111 84.6843 168.087 84.6503 168.064C83.7789 167.492 82.6304 167.205 81.65 166.845C80.3085 166.351 78.9781 165.839 77.7046 165.185C73.8855 163.2 70.5476 160.402 67.9273 156.988C67.0562 155.857 66.3507 154.535 65.3781 153.49C63.03 154.93 60.6535 156.345 58.1062 157.412C52.8722 159.604 46.5707 160.273 41.0332 158.962C37.5771 158.143 33.3625 156.522 31.414 153.336C30.361 151.614 29.8295 149.636 30.3147 147.645C30.983 144.901 32.8826 143.009 35.2384 141.598C36.1577 141.047 37.1128 140.682 38.1323 140.365L37.9452 140.311C36.2253 139.83 34.4189 139.698 32.6765 139.306C27.5621 138.157 21.9794 135.431 19.2866 130.712C18.2265 128.855 17.7301 126.914 18.318 124.815C18.8701 122.844 20.145 121.395 21.9249 120.416C25.0414 118.704 28.8878 118.769 32.3268 119.027C31.0232 118.065 29.5782 117.306 28.2816 116.341C24.3688 113.432 20.5529 109.026 19.8285 104.053C19.5608 102.215 19.6295 99.8699 20.7859 98.3269C22.0421 96.6504 24.3149 95.9164 26.3102 95.6637C30.8299 95.0914 35.214 96.4418 39.4101 97.9562C39.7582 98.1855 40.1582 98.3426 40.5371 98.5148L39.6378 97.5406C35.1843 92.9926 31.2716 86.4172 31.3706 79.8859C31.3991 78.0082 31.8449 75.8019 33.2357 74.439C34.5573 73.1441 36.3007 72.807 38.0801 72.8672C43.7335 73.0582 47.6234 76.0133 51.6117 79.6777C49.0312 75.3515 46.3472 67.107 47.6039 62.1699C47.9664 60.7445 48.6183 59.5547 49.9136 58.7668C51.5281 57.7847 53.6863 57.5965 55.4914 58.082C56.482 58.3484 57.6281 58.8179 58.4125 59.4836C59.7652 58.7258 61.3433 58.0199 62.4957 56.9824C61.4578 54.5344 61.1808 53.1301 61.7253 50.5187C61.9324 49.525 62.1726 48.5148 62.5539 47.5711C63.105 46.2062 63.991 44.9101 65.2128 44.0711C65.6882 43.7445 66.2371 43.4558 66.6359 43.0355C67.3109 42.3238 67.78 41.4281 68.5457 40.8004C69.2914 40.189 70.2718 39.8738 71.08 39.3457C72.7464 38.2563 74.1632 36.8595 76.0269 36.086C77.1425 35.6228 78.3363 35.3607 79.4703 34.9443ZM84.2304 16.8898C84.3125 16.6808 84.3253 16.4531 84.4273 16.2469C84.7371 15.6203 85.4484 15.7011 85.9406 15.3146C85.9863 15.2786 86.03 15.2401 86.075 15.2029C85.6652 15.0217 85.191 15.1312 84.7808 15.2796C83.8636 15.6117 83.2898 16.5274 82.9242 17.3791C82.8644 17.5169 82.8074 17.656 82.7535 17.7961C82.975 17.9615 82.9742 17.9515 83.2519 17.9346C83.4558 17.5682 83.9066 17.1554 84.2304 16.8898ZM88.3226 18.1487C88.3769 17.8731 88.4562 17.5546 88.4285 17.2722C88.3636 16.614 87.7839 16.2239 87.3238 15.8262L87.1578 16.0186C87.2789 16.7631 87.9976 16.8171 87.7171 17.7481C87.6984 18.1219 87.6484 18.492 87.7773 18.8503C87.9488 18.8403 87.9078 18.878 88.0066 18.7531C88.1507 18.5701 88.2312 18.3609 88.3226 18.1487ZM63.1675 111.595L62.816 111.853C62.964 112.032 63.1023 112.204 63.3011 112.329C63.4687 112.434 63.3871 112.418 63.5726 112.38C63.5503 112.063 63.3464 111.844 63.1675 111.595ZM95.7097 98.7316C95.9343 99.3898 96.1355 100.046 96.4968 100.645L96.4714 100.57L96.5828 100.714C96.3882 99.9754 96.1917 99.2476 95.9687 98.5156L95.7097 98.7316ZM76.666 18.4442C76.8667 18.0851 77.1453 17.8194 77.4675 17.571C77.5992 17.167 77.6953 16.7646 77.7832 16.349C76.905 16.7421 76.4515 17.3098 76.0859 18.1829C76.3023 18.3982 76.3746 18.3879 76.666 18.4442ZM96.4566 181.641C96.021 180.866 95.6164 180.114 94.9457 179.512L94.9035 179.712C95.0992 179.955 95.2949 180.124 95.305 180.452C95.1777 180.41 95.05 180.369 94.9222 180.329L94.7363 180.424C95.2831 180.855 95.8984 181.216 96.4566 181.641ZM37.2776 138.866C38.2413 138.996 42.1789 139.531 42.8828 139.326C42.3289 139.039 41.5972 138.955 40.9906 138.802C40.9285 138.882 40.8312 139.008 40.7171 139.027C39.7929 139.177 38.415 138.633 37.2776 138.866Z" fill="black"/>
<path d="M70.7953 40.0891C72.1633 39.0464 73.5543 37.7806 75.1406 37.0993C78.4074 35.6964 82.2301 35.8825 85.4859 37.2058C89.9035 39.0013 92.9887 43.1071 94.7695 47.3946C96.7895 52.2575 97.3141 57.7723 95.8453 62.8614C95.2441 64.9446 94.332 66.9305 93.4465 68.9047C92.7606 70.4332 91.8988 71.8848 91.2668 73.4348C89.1309 78.6743 87.341 85.1829 86.6801 90.8079C85.3328 102.274 87.4008 114.446 91.8992 125.047C95.3508 133.18 100.306 141.259 107.411 146.666C109.109 147.958 110.912 149.126 112.903 149.917C116.984 151.539 120.859 151.132 124.827 149.436L125.912 148.911L125.273 149.908C123.146 153.164 120.329 156.244 117.308 158.699C109.839 164.852 100.181 167.684 90.5723 166.539C82.5957 165.668 74.3246 161.748 69.2723 155.43C66.8426 152.391 64.8051 148.723 63.698 144.984C60.9133 135.577 63.0437 123.022 65.5051 113.722C66.0406 111.698 66.718 109.713 67.3105 107.706C68.8254 102.572 70.2887 97.4305 72.0602 92.375C73.2969 88.9262 74.4848 85.4598 75.6234 81.9774C76.7125 78.6625 77.8711 75.2563 78.2543 71.7704C81.8629 71.6981 85.1574 70.7125 87.8441 68.2473C86.4969 68.7739 85.2527 69.5121 83.8812 69.9965C80.8477 71.0672 76.3711 70.9653 73.2687 70.118C73.9211 69.7559 74.5254 69.3872 75.1016 68.9098C77.5051 66.9172 79.2234 63.8672 79.518 60.7504C78.3176 60.4289 76.9781 60.245 75.8891 59.6227C75.1484 59.1993 74.6449 58.575 74.4301 57.7461C74.2766 57.1524 74.0059 55.8735 74.3301 55.3282C75.0059 55.1786 76.1508 55.7332 76.8492 55.8641C77.4934 55.9852 78.152 56.0676 78.8043 56.1317C80.7742 56.3262 82.8512 56.3082 84.8063 56.0106C86.0809 55.8164 88.8324 55.3567 89.6316 54.2641C89.5262 53.7817 89.6109 53.2957 89.6508 52.8086C89.8059 50.9204 89.7832 49.4778 88.9371 47.7403C88.6012 47.0508 88.0871 46.4477 87.6582 45.8145C86.7594 44.4887 86.1391 42.9598 84.4699 42.4309C83.2313 42.0387 82.0785 42.1161 81.318 43.2668C81.1586 43.5079 80.9703 43.8989 80.7281 44.0594C80.1805 44.4219 79.4461 44.5973 78.8621 44.9278C76.5703 46.2247 75.0891 49.2168 74.3918 51.6457C74.0949 52.6793 73.9461 53.7579 73.6742 54.8008C72.3102 54.1676 70.8141 53.8704 69.3113 53.9344L69.282 53.8383C69.5004 53.7079 69.7398 53.5782 69.9297 53.4075C70.9504 52.4875 71.3301 50.1051 71.4328 48.7711C71.5297 47.5114 71.5102 45.9344 70.8328 44.825C70.582 44.4145 70.2379 44.0836 69.9375 43.7122C69.7855 43.5243 69.6359 43.4043 69.6641 43.1543C70.3793 42.8961 72.8176 43.468 73.6703 43.5946C73.7109 42.6184 73.7637 41.6493 73.0441 40.8735C72.4242 40.2051 71.6504 40.109 70.7953 40.0891Z" fill="#0B8DCB"/>
<path d="M124.827 149.436L125.912 148.911L125.274 149.908C125.141 149.671 125.065 149.57 124.827 149.436Z" fill="#0B8DCB"/>
<path d="M103.233 111.955C108.062 111.65 112.872 112.791 117.049 115.233C123.386 119.014 127.064 125.348 128.856 132.332C126.496 133.705 123.969 134.77 121.193 133.994C120.632 133.837 120.136 133.557 119.63 133.275C117.117 131.878 116.215 129.748 114.829 127.392C114.73 127.223 114.731 127.146 114.531 127.096C114.42 127.262 114.404 127.392 114.426 127.591C114.687 129.991 116.056 132.226 117.886 133.757C119.482 135.092 121.907 135.834 123.982 135.635C126.102 135.432 127.552 134.375 128.885 132.785C129.098 134.791 129.335 136.858 129.212 138.876C129.156 141.487 128.453 144.507 127.084 146.751C125.939 148.628 123.967 149.445 121.917 149.947C117.628 150.996 113.535 150.02 109.813 147.729C107.456 146.278 105.148 144.373 103.277 142.33C97.3471 135.858 92.3221 125.363 90.2568 116.82C93.6834 113.693 98.6982 112.28 103.233 111.955Z" fill="#8EBA7C"/>
<path d="M104.566 115.601C104.727 115.686 104.691 115.691 104.742 115.854C104.333 116.907 102.772 117.671 101.812 118.149C102.131 119.047 102.521 119.956 102.993 120.784C103.951 122.464 105.453 123.967 107.366 124.47C109.734 125.093 111.658 124.263 113.66 123.072C113.445 123.459 113.224 123.829 112.914 124.15C111.711 125.396 110.046 125.759 108.382 125.78C106.89 125.563 105.613 125.179 104.441 124.194C102.633 122.674 101.7 120.572 101.506 118.246C100.645 118.287 99.7405 118.372 98.9132 118.075C97.7097 117.643 97.169 116.49 96.6499 115.419C97.6538 116.219 98.469 117.151 99.8147 117.359C101.657 117.643 103.145 116.596 104.566 115.601Z" fill="black"/>
<path d="M101.711 130.021C101.741 130.034 101.772 130.042 101.8 130.058C101.869 130.095 101.925 130.151 101.964 130.219C102.231 130.7 102.345 131.432 102.507 131.968C102.795 132.918 103.137 133.826 103.601 134.704C104.468 136.342 105.671 137.837 107.276 138.797C109.006 139.847 111.089 140.149 113.046 139.635C113.248 139.582 113.144 139.577 113.348 139.656C113.413 139.918 113.303 140.118 113.209 140.357C112.164 140.84 111.011 141.037 109.865 140.93C107.779 140.744 105.772 139.593 104.437 138.001C102.604 135.817 101.445 132.889 101.711 130.021Z" fill="black"/>
<path d="M111.015 115.483C111.525 115.725 112.809 118.15 113.446 118.857C114.519 120.047 115.853 120.987 117.294 121.679C117.929 121.983 118.678 122.334 119.377 122.437C120.284 122.572 122.056 122.245 122.692 122.488L122.704 122.649L122.366 122.967C121.876 123.313 121.381 123.55 120.787 123.659C118.971 123.995 116.991 123.168 115.524 122.153C113.201 120.546 111.515 118.277 111.015 115.483Z" fill="black"/>
<path d="M113.776 138.663C114.512 139.212 115.25 141.452 116.727 142.567C118.242 143.711 120.63 144.19 122.438 143.633C123.137 143.417 123.853 142.984 124.572 142.882L124.594 143.004L124.355 143.232C123.938 143.558 123.511 143.876 123.04 144.12C121.571 144.88 119.615 144.863 118.069 144.339C116.383 143.768 114.873 142.492 114.102 140.877C113.802 140.249 113.533 139.34 113.776 138.663Z" fill="black"/>
<path d="M120.353 61.8398C121.542 61.7547 122.747 61.8882 123.84 62.3847C125.817 63.2832 127.074 65.1078 127.819 67.0863C130.455 74.0945 128.006 81.7925 125.043 88.2574C124.136 87.7964 123.209 87.5441 122.192 87.4855C119.533 87.332 117.431 88.5394 115.499 90.2554C114.265 91.4144 113.544 92.757 112.943 94.325C112.89 93.1269 113.016 91.9234 112.952 90.7222C112.805 87.9601 111.917 84.0355 109.948 81.9633C110 76.5824 111.242 70.4781 114.275 65.9879C115.801 63.7293 117.648 62.3523 120.353 61.8398Z" fill="#3B773B"/>
<path d="M120.679 68.9606C121.389 68.9215 122.063 68.9993 122.694 69.3481C123.508 69.7965 124.085 70.6051 124.313 71.4985C124.568 72.4918 124.387 73.609 123.846 74.4782C123.385 75.2188 122.741 75.6758 121.898 75.868C121.237 75.904 120.64 75.9067 120.02 75.6422C119.248 75.3129 118.646 74.6778 118.36 73.8883C117.993 72.9086 117.982 71.6118 118.46 70.6661C118.94 69.7157 119.721 69.295 120.679 68.9606Z" fill="black"/>
<path d="M120.77 69.53C122.184 69.2277 123.574 70.1351 123.866 71.5515C124.158 72.9679 123.24 74.3507 121.822 74.632C120.418 74.9105 119.052 74.0047 118.764 72.6031C118.475 71.2011 119.371 69.8293 120.77 69.53Z" fill="#EA6F1C"/>
<path d="M126.311 89.3622C126.899 87.7219 127.599 86.1149 128.263 84.504C128.817 83.1594 129.33 81.7477 130.034 80.4739C130.435 79.7504 130.961 79.093 131.442 78.4215C133.15 76.0387 135.104 73.5309 137.814 72.2383C139.31 71.5243 140.808 71.3758 142.388 71.936C144.017 72.5141 145.294 73.7465 146.016 75.309C147.668 78.8821 146.857 84.0087 145.52 87.5524C144.622 89.9313 143.389 92.1196 142.359 94.4325C140.646 93.4989 138.794 93.4083 136.946 93.9571C131.404 95.6028 128.116 101.047 125.273 105.685L124.84 105.673C126.983 101.771 129.018 96.5981 127.689 92.1192C127.392 91.1169 126.926 90.2047 126.311 89.3622Z" fill="#3B773B"/>
<path d="M138.646 77.3039C140.5 77.0742 142.192 78.3875 142.429 80.241C142.666 82.0949 141.36 83.7914 139.508 84.0363C137.644 84.2828 135.935 82.9676 135.696 81.1031C135.458 79.2383 136.78 77.5348 138.646 77.3039Z" fill="black"/>
<path d="M138.768 77.7519C139.292 77.7238 139.755 77.7445 140.236 77.9769C140.937 78.307 141.474 78.909 141.722 79.6433C141.942 80.2926 141.916 81.0113 141.578 81.616C141.151 82.3801 140.442 82.691 139.634 82.9121C138.995 82.9141 138.449 82.8422 137.884 82.5234C137.226 82.1519 136.726 81.5375 136.535 80.8031C136.374 80.1875 136.457 79.534 136.799 78.9941C137.258 78.2707 137.967 77.9519 138.768 77.7519Z" fill="#EA6F1C"/>
<path d="M61.653 68.6645C62.6678 68.6098 64.6522 70.0219 65.805 70.4399C66.8901 70.8336 67.9385 71.0032 69.0843 71.12C71.428 73.2211 73.1272 78.9762 73.8042 82.0922L69.628 94.2836C69.0792 95.8993 68.7237 97.827 67.9155 99.3247L67.7593 99.37L67.6632 99.2594C66.8003 98.0774 65.9389 96.8493 64.9022 95.8118C64.1206 95.0294 63.178 94.3883 62.4526 93.5528C61.7378 92.7297 61.21 91.7004 60.6421 90.7715C58.6764 87.5571 56.8241 84.429 55.7717 80.7727C54.9557 77.9379 54.6698 74.9188 56.1639 72.2606C57.4057 70.0508 59.3175 69.32 61.653 68.6645Z" fill="#3B773B"/>
<path d="M62.8752 75.3425C64.0662 75.1421 65.2732 75.5968 66.0357 76.5331C66.7986 77.4699 66.999 78.7441 66.5615 79.8699C66.1236 80.9956 65.1146 81.7992 63.9197 81.9745C62.099 82.2413 60.4029 80.9929 60.1166 79.1753C59.8302 77.3577 61.0603 75.6484 62.8752 75.3425Z" fill="black"/>
<path d="M63.1092 75.9027C64.4982 75.7125 65.7795 76.6816 65.9748 78.0699C66.1705 79.4586 65.206 80.7434 63.8185 80.9441C62.4232 81.1461 61.1299 80.1754 60.9334 78.7793C60.7369 77.3836 61.7123 76.0938 63.1092 75.9027Z" fill="#EA6F1C"/>
<path d="M160.613 124.261C160.99 124.164 161.518 124.195 161.911 124.196C163.873 124.207 166.013 125.028 167.386 126.448C168.462 127.562 168.992 128.968 168.95 130.509C168.903 132.23 167.953 133.88 166.7 135.026C163.047 138.367 157.635 140.475 152.743 141.061C150.333 141.351 147.803 141.31 145.38 141.224C145.998 139.741 145.972 138.552 145.418 137.055C145.006 136.162 144.466 135.407 143.673 134.807C140.556 132.452 136.016 132.948 132.403 133.436C135.35 132.469 138.197 131.052 141.055 129.853C143.402 128.868 145.838 128.047 148.246 127.225C151.221 126.211 154.311 125.148 157.409 124.582C158.459 124.391 159.549 124.343 160.613 124.261Z" fill="#3B773B"/>
<path d="M159.162 128.004C161.05 127.9 162.671 129.334 162.797 131.221C162.923 133.108 161.507 134.745 159.622 134.893C158.383 134.989 157.187 134.413 156.492 133.384C155.796 132.354 155.708 131.029 156.26 129.916C156.813 128.803 157.921 128.073 159.162 128.004Z" fill="black"/>
<path d="M159.003 128.709C160.426 128.477 161.769 129.433 162.017 130.852C162.265 132.272 161.324 133.626 159.908 133.89C158.977 134.063 158.026 133.723 157.415 132.999C156.806 132.275 156.632 131.279 156.96 130.392C157.289 129.504 158.069 128.861 159.003 128.709Z" fill="#EA6F1C"/>
<path d="M37.5648 122.013C40.3415 121.476 44.8118 122.91 47.5462 123.696C48.3813 124.47 49.0587 125.415 49.9118 126.191C52.0973 128.178 54.793 129.727 57.5645 130.74C58.62 131.126 59.7083 131.404 60.763 131.795C60.8286 131.991 60.8134 132.071 60.7891 132.272C60.6345 132.486 60.5485 132.574 60.2923 132.656C59.8196 132.808 59.2071 132.737 58.7145 132.735C57.0321 132.727 55.2419 132.844 53.8481 133.898C52.3899 135.002 52.0727 136.434 51.8594 138.141L51.8571 139.512C46.4278 139.702 41.5391 139.134 36.6296 136.678C35.4434 136.085 34.2855 135.457 33.2338 134.641C31.5045 133.3 29.9564 131.28 29.7189 129.042C29.5687 127.626 30.0303 126.25 30.9162 125.146C32.5416 123.122 35.0602 122.267 37.5648 122.013Z" fill="#3B773B"/>
<path d="M38.4666 126.602C39.5863 126.332 40.7644 126.686 41.5507 127.527C42.3366 128.369 42.6093 129.568 42.2636 130.667C41.9183 131.766 41.0081 132.593 39.882 132.834C38.172 133.198 36.4863 132.121 36.0991 130.416C35.7118 128.711 36.7668 127.011 38.4666 126.602Z" fill="black"/>
<path d="M39.076 127.076C40.4982 127.028 41.6873 128.148 41.7244 129.571C41.7615 130.993 40.6326 132.174 39.2096 132.2C37.8019 132.226 36.6367 131.112 36.6 129.704C36.5633 128.297 37.6688 127.123 39.076 127.076Z" fill="#EA6F1C"/>
<path d="M36.1025 101.484C36.5661 101.451 37.0306 101.435 37.4953 101.434C42.7614 101.387 48.095 104.7 52.3794 107.498C53.7661 108.404 55.2189 109.287 56.4536 110.396C57.3376 111.191 57.954 112.26 58.7505 113.138C60.1653 114.7 61.7786 116.119 63.2829 117.598C62.2696 117.216 61.3099 116.508 60.3814 115.95C57.8747 114.443 54.9915 113.169 52.0321 113.043C51.7564 113.051 51.481 113.065 51.206 113.085C49.6587 113.209 48.0806 113.889 47.0915 115.11C45.9068 116.572 45.6607 118.488 46.0333 120.291C46.1458 120.835 46.3716 121.31 46.4376 121.869C45.3568 122.13 40.2153 119.599 39.0775 118.903C35.43 116.67 31.6255 113.452 30.6154 109.092C30.2502 107.515 30.3711 105.769 31.2804 104.392C32.4048 102.688 34.1808 101.907 36.1025 101.484Z" fill="#3B773B"/>
<path d="M37.8411 105.82C39.5494 105.319 41.3416 106.292 41.8525 107.997C42.3638 109.703 41.4017 111.5 39.6994 112.021C37.9827 112.547 36.1665 111.575 35.6512 109.855C35.136 108.136 36.1185 106.325 37.8411 105.82Z" fill="black"/>
<path d="M38.3857 106.325C39.739 106.153 40.9801 107.097 41.1765 108.447C41.3726 109.797 40.4515 111.055 39.1054 111.275C38.2128 111.422 37.3106 111.075 36.7459 110.368C36.1813 109.661 36.0422 108.705 36.3822 107.866C36.7222 107.028 37.4882 106.438 38.3857 106.325Z" fill="#EA6F1C"/>
<path d="M154.235 86.2617C155.171 86.1179 156.337 86.182 157.259 86.3968C158.849 86.7586 160.221 87.7558 161.055 89.1562C161.992 90.7293 161.996 92.8168 161.517 94.5426C161.077 96.1277 160.199 97.4824 159.21 98.7773C155.65 103.439 151.269 105.781 146.307 108.649C144.478 109.706 142.693 110.841 140.86 111.887C139.412 112.734 137.909 113.752 136.341 114.353C139.925 111.423 143.522 106.559 144.47 101.993C144.897 99.9363 144.691 97.3601 143.511 95.564C144.332 94.0324 145.217 92.5301 146.252 91.132C148.062 88.6875 151.208 86.7035 154.235 86.2617Z" fill="#3B773B"/>
<path d="M153.861 90.6973C155.715 90.5227 157.359 91.8841 157.534 93.738C157.709 95.5919 156.348 97.2368 154.494 97.4118C152.64 97.5868 150.995 96.2255 150.82 94.3712C150.645 92.5169 152.006 90.8719 153.861 90.6973Z" fill="black"/>
<path d="M153.558 91.2981C154.494 91.0547 155.487 91.334 156.159 92.0285C156.83 92.7235 157.076 93.7258 156.801 94.6524C156.527 95.5785 155.775 96.2856 154.833 96.502C153.406 96.8305 151.979 95.9512 151.63 94.5285C151.282 93.1055 152.14 91.6664 153.558 91.2981Z" fill="#EA6F1C"/>
<path d="M161.103 103.167C162.646 102.95 164.166 103.324 165.525 104.048C166.874 104.768 168.118 106.054 168.546 107.545C169.117 109.536 168.606 111.452 167.588 113.193C166.37 115.279 164.316 116.988 162.378 118.387C157.993 121.552 149.047 126.098 143.793 127.461C144.332 127.174 144.851 126.879 145.362 126.545C147.384 125.312 149.307 123.766 150.676 121.808C151.779 120.23 152.412 118.291 152.031 116.366C151.771 115.053 151.006 113.981 149.894 113.246C147.746 111.826 144.775 112.04 142.374 112.541C143.818 111.736 145.211 110.837 146.64 110.004C147.89 109.274 149.178 108.611 150.429 107.883C153.821 105.906 157.063 103.513 161.103 103.167Z" fill="#3B773B"/>
<path d="M158.93 108.327C160.784 108.173 162.414 109.546 162.577 111.4C162.739 113.253 161.373 114.889 159.52 115.059C157.656 115.23 156.007 113.854 155.844 111.989C155.681 110.124 157.065 108.482 158.93 108.327Z" fill="black"/>
<path d="M159.151 108.845C160.594 108.766 161.828 109.874 161.903 111.318C161.979 112.761 160.867 113.991 159.423 114.063C157.985 114.134 156.761 113.028 156.686 111.59C156.61 110.152 157.713 108.924 159.151 108.845Z" fill="#EA6F1C"/>
<path d="M145.757 142.621C147.33 142.6 149.13 142.511 150.669 142.854C152.856 143.342 155.275 144.834 156.469 146.764C157.236 148.018 157.467 149.528 157.11 150.954C156.609 152.925 154.987 154.478 153.264 155.446C149.219 157.721 144.153 157.134 139.867 155.908C135.181 154.416 131.08 152.133 127.146 149.215C127.539 148.603 127.874 148.12 128.487 147.705C133.776 147.225 140.513 146.442 144.537 142.682L145.757 142.621Z" fill="#3B773B"/>
<path d="M147.382 146.629C149.303 146.428 151.028 147.81 151.25 149.728C151.473 151.647 150.112 153.387 148.196 153.632C146.937 153.793 145.689 153.265 144.927 152.249C144.166 151.234 144.01 149.887 144.518 148.724C145.026 147.561 146.12 146.761 147.382 146.629Z" fill="black"/>
<path d="M147.337 147.407C148.792 147.078 150.237 147.995 150.557 149.452C150.877 150.909 149.95 152.347 148.491 152.658C147.046 152.966 145.623 152.05 145.305 150.606C144.988 149.163 145.896 147.734 147.337 147.407Z" fill="#EA6F1C"/>
<path d="M101.219 59.8746C101.569 59.8547 101.915 59.8418 102.265 59.8699C104.089 60.0172 105.477 60.9461 106.642 62.3129C110.983 67.4047 108.941 74.5422 108.473 80.5547C106.919 79.8828 105.295 79.4711 103.617 79.9441C101.249 80.6117 99.6756 82.4402 98.517 84.514C97.8404 85.948 97.4912 87.5004 97.0955 89.0285C96.4318 87.0136 96.3588 84.8785 95.9947 82.8015C95.3412 79.0765 94.5689 75.373 93.6787 71.6968C95.0221 69.5769 96.358 67.05 97.1576 64.6785C97.5283 63.5793 97.7572 62.441 98.0768 61.3265C99.0439 60.6519 100.065 60.134 101.219 59.8746Z" fill="#3B773B"/>
<path d="M101.24 66.4136C101.871 66.3882 102.367 66.4644 102.925 66.7792C103.759 67.2495 104.345 68.0925 104.585 69.0112C104.833 69.9624 104.754 71.0608 104.22 71.9042C103.681 72.7538 102.932 73.0917 101.985 73.3065C101.417 73.3187 100.731 73.1894 100.222 72.9386C99.4611 72.564 98.9537 71.8901 98.7127 71.0855C98.4162 70.096 98.4732 68.9312 98.972 68.0151C99.49 67.064 100.259 66.7179 101.24 66.4136Z" fill="black"/>
<path d="M101.227 66.9937C101.803 66.973 102.264 67.057 102.768 67.3581C103.429 67.7519 103.898 68.4019 104.063 69.1538C104.212 69.8269 104.144 70.5515 103.767 71.1398C103.353 71.7851 102.799 72.0035 102.078 72.1749C101.512 72.166 100.991 72.0921 100.497 71.7964C99.6139 71.2679 99.3213 70.3363 99.0732 69.4023C99.1607 69.0691 99.2498 68.7132 99.4014 68.4019C99.7943 67.5949 100.435 67.2925 101.227 66.9937Z" fill="#EA6F1C"/>
<path d="M46.305 82.1629C46.9363 82.0938 47.573 82.0871 48.2058 82.1426C49.7101 82.2731 51.8464 82.7063 53.1253 83.5195C54.7163 84.5313 58.6937 90.8141 60.4316 92.8602C58.8992 92.5707 57.3831 92.4477 55.9257 93.1414C54.5152 93.8125 53.4812 95.1606 52.9855 96.6215C51.8925 99.8434 52.8933 103.372 54.3257 106.313C54.539 106.857 54.8593 107.377 55.1394 107.891C49.6792 103.826 44.9917 100.533 41.7574 94.2363C41.1218 92.9992 40.4906 91.7324 40.248 90.3504C39.921 88.4863 40.1054 86.5606 41.2327 84.9906C42.423 83.3328 44.3343 82.4656 46.305 82.1629Z" fill="#3B773B"/>
<path d="M47.7619 87.9649C49.5888 87.5423 51.4119 88.6837 51.8298 90.5118C52.2482 92.3399 51.1021 94.1598 49.2728 94.5735C47.4501 94.9852 45.638 93.8446 45.2212 92.0227C44.8048 90.2012 45.9411 88.386 47.7619 87.9649Z" fill="black"/>
<path d="M47.8697 88.4992C48.4412 88.4367 48.9095 88.4285 49.4482 88.6566C50.165 88.9555 50.733 89.5289 51.0248 90.2484C51.2908 90.9195 51.2857 91.7082 50.9708 92.3617C50.6146 93.1015 50.0185 93.473 49.2677 93.734C48.7646 93.8496 48.256 93.8722 47.7638 93.6926C47.0876 93.4457 46.5798 92.943 46.2833 92.2914C45.9634 91.5879 45.8837 90.7293 46.1802 90.0043C46.5181 89.1777 47.0912 88.8363 47.8697 88.4992Z" fill="#EA6F1C"/>
<path d="M52.0763 140.869L52.1653 140.868C52.722 141.094 53.3446 142.147 53.7563 142.611C55.9313 145.063 59.013 145.265 62.0755 145.475C62.5462 147.306 63.263 149.108 64.0434 150.828C62.7473 151.408 61.5071 152.118 60.2095 152.699C57.7731 153.787 55.2708 154.448 52.6505 154.899C52.4602 154.922 52.27 154.943 52.0794 154.961C48.9606 155.266 45.2462 155.235 42.7013 153.115C41.5919 152.191 40.9188 151.003 40.7989 149.555C40.6575 147.855 41.2009 146.425 42.2923 145.142C44.6341 142.387 48.5723 141.152 52.0763 140.869Z" fill="#3B773B"/>
<path d="M49.1299 145.529C49.844 145.48 50.4737 145.543 51.124 145.865C52.0147 146.305 52.7342 147.128 53.0119 148.087C53.2404 148.877 53.1854 149.772 52.7709 150.492C52.2803 151.345 51.4799 151.707 50.5697 151.942C49.6936 152.01 48.9826 151.948 48.2182 151.47C47.4162 150.961 46.851 150.153 46.6483 149.225C46.4627 148.403 46.5819 147.524 47.0397 146.81C47.5389 146.032 48.2592 145.718 49.1299 145.529Z" fill="black"/>
<path d="M49.1073 146.108C49.498 146.044 49.8843 146.03 50.2691 146.142C51.0886 146.379 51.8105 146.942 52.2097 147.698C52.5089 148.266 52.596 148.919 52.3741 149.529C52.0663 150.376 51.4116 150.784 50.6269 151.123C49.9749 151.21 49.362 151.146 48.7652 150.851C48.0827 150.514 47.5152 149.9 47.2808 149.171C47.0753 148.532 47.1237 147.802 47.4675 147.218C47.8538 146.562 48.3925 146.282 49.1073 146.108Z" fill="#EA6F1C"/>
<path d="M151.607 142.612C155.13 142.819 158.834 143.222 162.078 144.694C164.134 145.628 166.33 147.332 167.111 149.532C167.568 150.821 167.475 152.183 166.886 153.412C165.457 156.395 161.939 158.159 158.969 159.177C149.756 162.332 140.948 159.84 132.566 155.758C130.143 154.522 128.04 152.878 125.713 151.499C126.107 150.879 126.547 150.298 126.989 149.712C131.164 153.119 137.227 156.07 142.519 157.01C146.72 157.756 151.064 157.68 154.668 155.141C156.239 154.034 157.442 152.523 157.753 150.584C158.221 147.662 156.316 145.084 153.846 143.756C153.277 143.45 151.945 143.093 151.607 142.612Z" fill="#8EBA7C"/>
<path d="M41.8388 140.674C44.1263 140.38 46.6728 140.66 48.9751 140.787C48.1767 140.984 47.4146 141.223 46.6564 141.544C44.1634 142.598 41.6876 144.257 40.6544 146.869C40.099 148.273 40.074 149.835 40.6783 151.229C41.4005 152.895 42.8232 154.027 44.4857 154.68C49.3876 156.608 55.2033 155.236 59.8685 153.247C61.3443 152.618 62.7439 151.829 64.2142 151.187L65.0576 152.784C64.1951 153.177 63.3724 153.666 62.5447 154.127C58.6189 156.196 54.4806 157.77 50.0439 158.273C44.874 158.858 38.6558 158.265 34.4689 154.884C32.8678 153.591 31.4106 151.679 31.2362 149.564C31.0917 147.812 31.837 146.172 32.9441 144.857C35.0672 142.336 38.6169 140.933 41.8388 140.674Z" fill="#8EBA7C"/>
<path d="M40.6618 120.444C36.7029 119.712 32.9452 118.146 29.6381 115.85C25.6574 113.131 21.9305 108.942 21.0259 104.075C20.715 102.402 20.6127 100.456 21.6574 99.0036C22.6046 97.6864 24.1964 97.1766 25.7279 96.9317C32.3478 95.8731 39.5091 98.5692 44.8212 102.382L44.404 102.573C41.4735 101.406 38.6553 100.463 35.4741 101.151C33.6315 101.55 31.8997 102.474 30.8703 104.099C29.9065 105.621 29.7171 107.527 30.1126 109.262C31.3493 114.684 36.3102 117.683 40.6618 120.444Z" fill="#8EBA7C"/>
<path d="M46.6429 102.061C45.787 101.247 44.7214 100.575 43.7999 99.8258C42.0542 98.3883 40.4362 96.8023 38.9643 95.0855C35.3705 90.8637 32.0143 84.7273 32.499 79.0398C32.6242 77.5707 33.0576 76.1387 34.2563 75.1816C35.7727 73.9707 37.6912 73.8695 39.5436 74.0664C44.8464 74.6289 49.7347 78.9949 52.9495 83.009C51.2132 82.2238 49.4894 81.6703 47.5644 81.6629C45.3644 81.6547 43.0726 82.4035 41.4956 83.9816C40.2163 85.2617 39.621 86.9613 39.63 88.7527C39.653 93.3875 43.7183 98.7723 46.9163 101.947L46.6429 102.061Z" fill="#8EBA7C"/>
<path d="M130.186 79.3538C130.729 77.7913 131.28 76.2144 132.059 74.7511C134.213 70.7031 138.818 65.4058 142.947 63.4339C144.77 62.5632 147.108 61.9488 149.065 62.68C150.3 63.1414 151.152 64.1339 151.673 65.3164C153.56 69.5957 152.189 76.1749 150.505 80.4105C149.304 83.4331 147.555 86.3277 145.806 89.0671L145.425 89.1386C146.946 84.8507 148.381 79.4007 146.32 75.0558C145.525 73.3796 144.175 72.0999 142.417 71.4812C140.686 70.8722 138.971 71.0835 137.341 71.873C134.144 73.4214 132.109 76.496 130.186 79.3538Z" fill="#8EBA7C"/>
<path d="M158.492 103.083C160.043 102.153 161.583 101.247 163.263 100.563C166.438 99.2684 170.624 98.661 173.972 99.5176C175.501 99.909 177.345 100.759 178.186 102.171C178.974 103.495 178.675 105.416 178.272 106.822C176.631 112.546 171.789 116.657 166.731 119.409C163.149 121.359 159.605 122.084 155.781 123.296L155.653 122.991C160.447 120.65 167.172 116.785 168.964 111.503C169.511 109.893 169.507 108.181 168.726 106.642C167.839 104.893 166.172 103.605 164.322 103.02C162.374 102.403 160.441 102.566 158.492 103.083Z" fill="#8EBA7C"/>
<path d="M159.511 123.451C164.969 122.025 171.948 121.124 177.044 124.082C178.235 124.774 179.511 125.896 179.878 127.271C180.261 128.708 179.72 130.243 178.966 131.465C175.958 136.339 168.608 140.152 163.097 141.421C160.039 142.126 157.165 141.711 154.114 141.258C156.046 140.955 157.828 140.4 159.651 139.716C162.999 138.461 166.057 136.952 168.239 133.987C169.214 132.664 169.628 131.059 169.374 129.429C169.102 127.682 168.031 126.111 166.594 125.098C164.792 123.828 162.514 123.615 160.377 123.705C160.024 123.68 159.822 123.621 159.511 123.451Z" fill="#8EBA7C"/>
<path d="M162.866 78.2621C164.086 78.1352 165.462 78.118 166.63 78.5426C167.706 78.9352 168.575 79.75 169.035 80.7981C170.199 83.3918 169.18 87.2199 168.229 89.7266C165.908 95.8274 161.285 100.773 155.354 103.501C156.113 102.633 157.057 101.902 157.871 101.082C158.857 100.09 159.7 98.9567 160.529 97.8328C161.247 96.7945 161.765 95.6309 162.055 94.402C162.516 92.5028 162.4 90.509 161.353 88.8168C160.406 87.2856 158.911 86.2578 157.162 85.8625C153.43 85.0195 150.718 86.9078 147.721 88.7785C148.089 88.1766 148.548 87.6172 148.984 87.0617C152.443 82.6477 157.154 78.9559 162.866 78.2621Z" fill="#8EBA7C"/>
<path d="M37.2774 138.866C31.8221 138.764 25.8868 136.308 22.102 132.377C20.5977 130.814 19.2038 128.574 19.2814 126.327C19.3352 124.772 20.025 123.407 21.1735 122.384C23.7333 120.104 28.1327 119.841 31.3794 120.048C34.1561 120.225 36.8129 120.977 39.5567 121.29C39.5153 121.299 39.4735 121.308 39.4317 121.316C38.5288 121.496 37.61 121.495 36.702 121.634C34.3612 121.991 31.681 123.082 30.3027 125.109C29.4158 126.414 29.0499 128.136 29.3684 129.682C29.9122 132.321 31.9267 134.447 34.1249 135.861C36.077 137.117 38.6934 138.379 40.9903 138.802C40.9282 138.882 40.831 139.008 40.7169 139.027C39.7927 139.177 38.4147 138.633 37.2774 138.866Z" fill="#8EBA7C"/>
<path d="M125.824 51.7934C126.583 51.7164 127.34 51.7816 128.051 52.0688C129.5 52.6543 130.423 53.9859 131.01 55.3766C133.564 61.4316 132.156 68.5215 130.23 74.5301C129.828 75.7844 129.45 77.0574 128.954 78.2785C129.034 77.1758 129.271 76.0887 129.347 74.9824C129.599 71.298 128.88 67.7672 127.068 64.55C126.507 63.7492 125.888 63.0824 125.07 62.5375C123.462 61.4668 121.602 61.0937 119.708 61.4793C116.038 62.2254 114.499 64.8977 112.604 67.7797C113.681 64.0465 115.429 60.0828 117.84 57.0191C119.761 54.5766 122.633 52.1777 125.824 51.7934Z" fill="#8EBA7C"/>
<path d="M55.2101 67.4172C55.8511 64.1082 57.328 61.5469 60.1241 59.6469C61.921 58.4258 63.8812 57.525 65.7796 56.4856C66.6987 55.9821 67.6647 55.2469 68.6765 54.9617C69.4519 54.7434 70.3972 54.734 71.1792 54.8949C72.1058 55.0864 72.7882 55.4969 73.4659 56.1379C73.2593 57.2563 73.0339 58.368 73.7265 59.3789C74.5491 60.5801 76.223 60.9664 77.5776 61.177C77.8148 61.2137 78.0523 61.2461 78.2901 61.2738C76.023 63.6297 72.6519 65.0547 69.3855 65.1176C65.7077 65.1887 62.3608 63.9875 58.8351 65.7184C57.7706 66.241 56.8507 66.8871 56.0272 67.741C55.9569 67.8141 55.8866 67.8879 55.8171 67.9621L54.9312 69.0473C55.0343 68.5063 55.1183 67.9602 55.2101 67.4172Z" fill="#F2BA22"/>
<path d="M55.2101 67.4171C55.4026 67.6695 55.5472 67.7941 55.8171 67.962L54.9312 69.0472C55.0343 68.5062 55.1183 67.9601 55.2101 67.4171Z" fill="#F2BA22"/>
<path d="M97.4067 50.4629C98.4603 49.1985 99.5532 48.2758 101.279 48.1254C102.837 47.9899 104.152 48.5356 105.322 49.5235C109.066 52.686 110.677 59.8227 111.05 64.5743C111.181 66.2489 111.243 69.1407 110.474 70.6825C110.345 71.1626 110.215 71.6223 110.017 72.0801L109.911 72.1169C109.797 71.5161 109.856 70.8661 109.868 70.2547C109.657 66.7083 108.774 63.3505 105.986 60.9059C104.763 59.8145 103.15 59.2637 101.515 59.3782C100.072 59.4719 99.163 60.1024 97.9595 60.7887C98.1165 58.7555 98.2435 56.6379 98.0442 54.6055C97.9067 53.2079 97.6087 51.8489 97.4067 50.4629Z" fill="#8EBA7C"/>
<path d="M109.868 70.2548L110.054 71.02L110.186 71.0532L110.474 70.6825C110.345 71.1626 110.215 71.6223 110.017 72.0801L109.911 72.1169C109.797 71.5161 109.856 70.8661 109.868 70.2548Z" fill="#8EBA7C"/>
<path d="M63.4149 115.761C59.1606 112.26 54.8664 106.799 53.9086 101.311C53.586 99.4626 53.643 97.0692 54.8051 95.502C55.4957 94.5708 56.5032 93.9907 57.6496 93.8415C59.675 93.577 61.6297 94.7325 63.1633 95.9364C64.1407 96.704 67.3258 100.357 67.4684 101.513L67.3536 101.575C66.6153 101.287 65.877 100.081 65.2668 99.5341C64.4969 98.8434 63.5399 98.3395 62.5696 97.9938C61.2766 97.5333 59.9493 97.5407 58.709 98.17C57.5746 98.745 56.9 99.7067 56.4934 100.886C56.727 100.906 56.7305 100.899 56.9286 100.772C57.3895 99.7223 58.1184 98.8551 59.209 98.4274C60.3844 97.9669 61.6899 98.0716 62.8188 98.6059C64.5758 99.4368 65.9145 100.956 67.1411 102.419C66.902 102.921 66.7536 103.394 66.6204 103.932C65.3411 103.15 63.7938 102.116 62.2161 102.47C61.5563 102.618 61.0305 103.023 60.695 103.608C59.9129 104.973 59.9946 106.907 60.4368 108.371C60.7403 109.376 61.2618 110.285 61.8676 111.138C62.2321 111.65 63.4301 112.824 63.5547 113.338L63.4625 113.5C63.07 113.5 62.7735 113.279 62.3969 113.291L63.743 114.35C63.5645 114.826 63.4813 115.262 63.4149 115.761Z" fill="#F2BA22"/>
<path d="M56.9283 100.772C57.3892 99.7223 58.1181 98.8551 59.2087 98.4273C60.3841 97.9668 61.6896 98.0715 62.8185 98.6058C64.5755 99.4367 65.9142 100.956 67.1408 102.419C66.9017 102.921 66.7533 103.394 66.6201 103.932C65.3408 103.15 63.7935 102.116 62.2158 102.47C61.556 102.618 61.0302 103.023 60.6947 103.608C59.9126 104.973 59.9943 106.907 60.4365 108.371C60.74 109.376 61.2615 110.285 61.8673 111.137C62.2318 111.65 63.4298 112.824 63.5544 113.338L63.4622 113.5C63.0697 113.5 62.7732 113.279 62.3966 113.291L62.1779 113.093C61.8962 112.615 61.4607 112.197 61.1173 111.757C60.0427 110.38 58.9048 108.987 58.0673 107.45C56.9122 105.33 56.2345 103.143 56.9283 100.772Z" fill="#0B8DCB"/>
<path d="M56.4932 100.886C56.7268 100.906 56.7303 100.899 56.9284 100.772C56.2346 103.143 56.9123 105.33 58.0674 107.45C58.9049 108.987 60.0428 110.38 61.1174 111.757C61.4608 112.197 61.8963 112.615 62.178 113.093C60.3936 111.834 58.1225 108.544 57.233 106.593C56.4424 104.857 55.7975 102.754 56.4932 100.886Z" fill="black"/>
<path d="M52.6586 59.0153C54.5961 58.868 56.0273 59.3301 57.6773 60.3117C57.3992 60.5895 57.1254 60.8711 56.8554 61.1571C54.1589 64.0449 53.9941 68.1887 54.1078 71.8957C56.0527 69.3477 57.4632 67.7141 60.3019 66.1496C60.7699 66.836 61.3058 67.4614 61.8656 68.0739C59.7144 68.65 57.5957 69.4266 56.2308 71.284C54.5933 73.5129 54.4222 76.1723 54.8097 78.8321C55.3925 82.0762 57.1714 84.8239 58.2964 87.8598C57.3886 86.8024 56.6062 85.5746 55.8246 84.4223C52.4511 79.4469 49.4984 73.9156 48.5527 67.9137C48.2015 65.6856 48.0359 62.5844 49.4918 60.6785C50.2902 59.6336 51.3992 59.2047 52.6586 59.0153Z" fill="#8EBA7C"/>
<path d="M86.1181 168.269C87.4454 168.557 88.7876 168.718 90.1356 168.87C90.1837 170.268 90.2665 171.653 90.5212 173.032C90.806 174.575 91.3017 176.164 91.3528 177.736C92.6962 178.031 93.9985 178.447 94.9458 179.513L94.9036 179.712C95.0993 179.955 95.295 180.124 95.3052 180.452C95.1778 180.41 95.0501 180.369 94.9224 180.329L94.7364 180.424C94.3892 180.293 93.995 179.956 93.6724 179.757C93.0528 179.375 92.4462 179.088 91.7646 178.835C91.7735 179.534 91.7954 180.239 91.7657 180.938C91.6677 183.243 90.3829 184.888 88.7392 186.379C87.6657 187.353 85.7985 188.916 84.263 188.836C84.129 188.764 84.0216 188.749 83.9646 188.596C83.4649 187.246 86.6962 184.113 87.4673 182.959C88.1892 181.879 88.7708 180.685 89.2657 179.487C87.5372 181.384 86.0735 183.77 83.9716 185.275C82.8192 186.1 80.8653 187.118 79.3974 186.79C79.1333 186.731 79.0681 186.645 78.9243 186.427C78.9212 186.263 78.9228 186.125 78.9774 185.968C79.6544 184.02 82.356 182.375 84.081 181.529C84.8294 181.161 85.6216 180.896 86.37 180.519L86.4274 180.291C84.502 180.561 81.0427 182.383 79.0786 183.153C78.1302 183.524 77.1431 183.754 76.1587 184.007C76.7935 183.25 77.4259 182.538 78.2122 181.932C80.9282 179.841 84.9778 178.792 88.3294 178.381C87.572 175.036 87.0454 171.563 86.1181 168.269Z" fill="#F2BA22"/>
<path d="M104.441 167.887L104.612 168C104.988 168.83 105.152 169.807 105.395 170.687C106.119 173.306 106.798 175.857 107.304 178.53C111.014 178.729 114.844 179.035 118.228 180.743C118.644 180.953 119.071 181.157 119.222 181.623C119.09 181.872 118.986 181.97 118.724 182.088C118.062 182.386 116.909 182.216 116.215 182.049C115.531 181.884 114.876 181.563 114.206 181.341C112.642 180.822 111.064 180.34 109.494 179.839C111.816 181.355 117.312 182.893 118.807 185.147C118.954 185.369 118.997 185.487 118.956 185.746C118.525 186.23 118.049 186.47 117.395 186.508C114.701 186.665 111.821 183.883 109.912 182.254C108.766 181.356 107.757 180.133 106.538 179.352C107.52 181.007 108.97 182.464 110.391 183.75C112.006 185.213 114.028 186.544 114.871 188.628C112.196 188.623 109.6 187.032 107.613 185.332C105.49 183.515 104.455 181.602 104.228 178.805C102.878 179.532 101.707 180.502 100.472 181.4C100.685 180.766 100.902 180.194 101.337 179.675C102.153 178.702 103.372 178.179 104.615 178.06C103.751 174.869 102.956 171.698 102.337 168.448C103.041 168.271 103.74 168.075 104.441 167.887Z" fill="#F2BA22"/>
<path d="M91.7879 96.3906C92.4629 96.3871 92.9801 96.4504 93.5477 96.834C96.1356 98.5817 96.477 102.887 96.8895 105.682C97.1907 107.721 97.4215 109.778 97.7871 111.806C96.6446 112.135 95.5676 112.547 94.4922 113.055C93.9367 113.357 93.4075 113.68 92.8789 114.028C92.1063 111.891 91.2047 109.818 90.5071 107.648C89.6313 104.926 88.3926 100.664 89.8657 97.9449C90.318 97.1102 90.8946 96.666 91.7879 96.3906Z" fill="#8EBA7C"/>
<path d="M131.913 106.574C132.592 106.641 133.227 106.836 133.747 107.295C134.494 107.966 134.928 108.918 134.944 109.923C134.982 111.95 133.386 113.768 132.063 115.136C131.219 116.007 125.654 120.879 124.829 120.897C123.878 119.514 122.648 118.173 121.421 117.031C122.401 115.919 123.144 114.592 124.032 113.404C125.885 110.925 128.681 107.043 131.913 106.574Z" fill="#8EBA7C"/>
<path d="M104.44 94.6347C104.574 94.6265 104.708 94.6226 104.842 94.6273C105.592 94.6534 106.369 95.1152 106.865 95.6605C109.483 98.537 107.662 107.295 107.436 110.93C106.664 110.86 105.892 110.847 105.118 110.832C104.033 110.819 102.945 110.843 101.86 110.853C101.852 106.484 100.22 101.059 102.098 96.8659C102.596 95.7558 103.308 95.0648 104.44 94.6347Z" fill="#8EBA7C"/>
<path d="M100.001 110.277C99.4517 108.466 99.2439 106.527 98.9599 104.661C98.4006 100.984 97.7412 96.8747 97.7541 93.1582C97.7471 91.561 97.9459 89.9696 98.3459 88.4231C99.0127 85.8969 100.337 83.0164 102.703 81.6676C103.881 80.9926 105.28 80.8204 106.586 81.1903C108.041 81.6051 109.047 82.6415 109.778 83.918C111.579 87.0668 111.745 90.6868 111.626 94.2258C111.594 95.1629 111.59 96.2668 111.35 97.1704C111.172 99.3137 110.053 109.565 109.172 110.858C108.982 110.369 109.674 103.736 109.862 102.891C109.82 102.054 110.092 100.997 110.203 100.156C110.679 96.5262 111.268 92.6207 109.756 89.1426C109.095 87.6215 107.976 86.311 106.394 85.7145C105.224 85.2735 104.048 85.4098 102.927 85.8993C101.198 86.6375 100.252 87.984 99.4783 89.6231C99.2053 90.6883 98.9099 91.8079 98.9213 92.9172C98.6678 97.2282 99.6685 101.581 99.849 105.879L100.253 109.547C100.182 109.802 100.129 110.045 100.001 110.277Z" fill="#F2BA22"/>
<path d="M109.862 102.891C110.175 104.103 109.639 105.608 109.715 106.876L109.906 106.812C110.134 106.433 110.096 105.941 110.162 105.51C110.435 103.705 110.659 101.905 110.863 100.091C110.967 99.1664 110.951 98.0418 111.24 97.1637L111.35 97.1703C111.172 99.3137 110.053 109.565 109.172 110.858C108.982 110.369 109.674 103.736 109.862 102.891Z" fill="#F2BA22"/>
<path d="M99.8489 105.879L99.7466 106.084C99.5044 105.248 99.5193 104.374 99.4306 103.514C99.2443 101.704 99.1189 99.9164 98.9728 98.1035C98.947 97.7813 98.9689 96.9055 98.7525 96.7215C98.7384 96.9297 98.722 97.109 98.6591 97.3086L98.5857 97.1688C98.6493 96.6762 98.7071 96.1902 98.654 95.6941L98.5142 96.0258L98.4087 95.9031C98.3821 95.6539 98.3911 95.484 98.4509 95.2406L98.6966 95.3449C98.8693 94.3398 98.4228 90.9176 98.6626 90.4625C98.8712 90.4039 98.9833 90.368 99.1376 90.2129C99.1724 89.909 99.2134 89.7414 99.3618 89.4746L99.4782 89.623C99.2052 90.6883 98.9099 91.8078 98.9212 92.9172C98.6677 97.2281 99.6685 101.581 99.8489 105.879Z" fill="#F2BA22"/>
<path d="M136.516 111.655C138.272 109.307 140.652 105.935 140.136 102.815C139.936 101.6 139.254 100.391 138.229 99.6874C137.256 99.0194 136.068 98.8198 134.92 99.0569C130.787 99.9112 128.09 104.703 125.797 107.853C124.722 109.33 123.515 110.747 122.528 112.282C121.925 113.221 120.889 115.431 119.89 115.905L119.757 115.858C119.549 115.015 120.704 113.385 121.149 112.65C122.332 110.697 123.931 109.099 125.281 107.276C128.57 102.835 131.621 96.628 137.479 95.1843C138.785 94.8624 140.132 94.7929 141.327 95.5241C142.334 96.1405 142.889 97.2109 143.137 98.3351C143.827 101.462 142.308 104.816 140.646 107.376C139.544 109.073 138.199 110.605 136.899 112.151C136.649 112.305 136.473 112.5 136.179 112.576C136.078 112.33 136.13 112.301 136.194 112.053L136.516 111.655Z" fill="#F2BA22"/>
<path d="M117.057 100.499C117.349 100.504 117.672 100.524 117.952 100.606C118.757 100.845 119.423 101.474 119.772 102.225C121.224 105.354 118.557 111.017 117.466 114.024C116.843 113.702 116.19 113.424 115.551 113.13C114.26 112.557 112.894 112.122 111.562 111.65C111.991 108.884 112.628 105.965 113.866 103.445C114.559 102.036 115.541 101.018 117.057 100.499Z" fill="#8EBA7C"/>
<path d="M80.9376 44.6106C81.8087 44.9465 82.7224 44.9454 83.6169 45.1743C84.7712 45.4692 87.2536 46.6883 87.9794 47.595C89.2192 49.1434 89.0497 51.6293 88.8368 53.4707C86.7696 51.9469 84.6892 51.4567 82.1368 51.4407C79.1642 51.436 76.7185 51.877 74.5063 54.018C74.6868 52.8715 74.9837 51.8239 75.4021 50.7415C76.5212 47.8473 78.0622 45.8762 80.9376 44.6106Z" fill="#0B8DCB"/>
<path d="M132.379 118.185C136.096 115.355 141.98 112.75 146.751 113.408C148.019 113.582 149.455 114.316 150.23 115.343C150.853 116.166 151.051 117.202 150.869 118.209C150.273 121.501 146.726 124.351 144.116 126.092C140.969 128.19 137.642 129.767 134.177 131.251C132.913 131.791 131.528 132.552 130.121 132.552L129.98 132.45C130.369 131.688 133.303 130.743 134.185 130.344C137.85 128.686 148.741 123.785 147.081 118.666C146.717 117.544 145.727 116.512 144.66 116.024C142.401 114.993 139.176 115.923 137.003 116.79C135.583 117.357 134.31 118.182 132.921 118.78L132.917 118.703L132.823 118.624L132.481 118.837L132.487 118.623L132.74 118.526L132.76 118.424L132.379 118.185Z" fill="#F2BA22"/>
<path d="M135.333 120.445C135.833 120.387 136.306 120.417 136.785 120.578C137.619 120.859 138.295 121.344 138.67 122.159C139.026 122.935 139.023 123.805 138.718 124.596C137.608 127.472 133.441 128.917 130.835 130.03C130.4 130.221 129.95 130.344 129.494 130.475C129.061 128.361 127.989 126.551 127.41 124.517C127.437 124.342 127.474 124.252 127.583 124.107C128.278 123.186 131.844 121.454 132.985 121.041C133.755 120.763 134.525 120.573 135.333 120.445Z" fill="#8EBA7C"/>
<path d="M99.4787 89.6231C100.253 87.9841 101.198 86.6376 102.928 85.8993C103.297 85.9282 103.662 85.9009 104.028 85.9231C105.737 85.9145 106.693 85.9938 107.988 87.2622C110.014 89.2466 110.145 92.4364 110.123 95.0919C110.112 96.4368 109.96 97.779 109.76 99.1083L109.626 99.0212C109.592 98.5923 109.549 98.168 109.489 97.7419C109.37 96.9036 109.223 96.095 108.883 95.3138C108.32 94.0169 107.311 92.811 105.955 92.3153C105.073 91.9848 104.095 92.0321 103.25 92.4462C101.139 93.47 100.408 95.8079 99.7186 97.8532C99.5209 96.4372 99.3322 95.0192 99.2467 93.5919C99.2221 93.3122 99.2389 93.0915 99.0768 92.8544L98.9217 92.9173C98.9104 91.8079 99.2057 90.6884 99.4787 89.6231Z" fill="#0B8DCB"/>
<path d="M99.4787 89.6231C100.253 87.9841 101.198 86.6376 102.928 85.8993C103.297 85.9282 103.662 85.9009 104.028 85.9231C102.26 86.4973 100.974 87.5313 100.122 89.1966C99.4342 90.5384 99.3088 92.1095 99.2467 93.5919C99.2221 93.3122 99.2389 93.0915 99.0768 92.8544L98.9217 92.9173C98.9104 91.8079 99.2057 90.6884 99.4787 89.6231Z" fill="black"/>
<path d="M52.7623 124.622C54.2529 126.439 56.1595 127.87 58.3209 128.793C59.1318 129.136 59.9709 129.392 60.7724 129.762C60.9115 130.018 60.9154 130.046 60.8904 130.337C60.7283 130.435 60.733 130.458 60.5252 130.454C59.7732 130.436 58.8849 129.983 58.1947 129.702C54.7775 128.314 51.7119 126.565 49.2341 123.774C47.9357 122.311 46.8533 120.505 47.0103 118.471C47.1044 117.257 47.6396 116.061 48.5892 115.28C49.863 114.232 51.7201 114.007 53.3158 114.163C56.0334 114.429 58.8224 115.677 61.1576 117.04C61.6451 117.324 62.2599 117.632 62.6021 118.088C62.7853 118.333 62.781 118.52 62.7275 118.807L62.5572 118.863C61.8869 118.639 61.3072 118.157 60.6826 117.824C59.017 116.938 56.6459 116.14 54.7689 116.705C53.5763 116.966 52.5181 117.476 51.8185 118.52C51.1744 119.48 51.0451 120.638 51.2755 121.754C51.4873 122.778 52.0619 123.848 52.7623 124.622Z" fill="#F2BA22"/>
<path d="M89.46 19.1094C90.1729 18.3366 90.9295 17.8052 92.0244 17.7658C92.7076 17.7412 93.401 17.944 93.8998 18.4261C94.3803 18.8904 94.5709 19.5285 94.5455 20.1846C94.5276 20.6468 94.3912 21.0709 94.2049 21.49C94.1791 21.5231 94.1537 21.5565 94.1276 21.5893C93.2659 22.665 92.1209 23.4853 91.1834 24.4922C88.053 27.8547 87.0815 31.3941 86.2534 35.7708C85.7588 35.5856 85.2659 35.3924 84.7666 35.2199C84.7002 31.0873 85.1748 26.4251 87.2241 22.768C87.7819 21.4182 88.5662 20.256 89.46 19.1094Z" fill="#FA3948"/>
<path d="M89.46 19.1094C90.1729 18.3366 90.9295 17.8052 92.0244 17.7658C92.7076 17.7412 93.401 17.944 93.8998 18.4261C94.3803 18.8904 94.5709 19.5285 94.5455 20.1846C94.5275 20.6468 94.3912 21.0709 94.2049 21.49C93.8193 20.9985 94.0221 20.2377 93.5682 19.5286C93.3225 19.1446 92.9717 18.8614 92.5193 18.7702C91.6193 18.5887 90.6736 19.1087 89.958 19.6002C89.7678 19.4607 89.6197 19.282 89.46 19.1094Z" fill="white"/>
<path d="M89.4601 19.1095C89.6198 19.2821 89.7679 19.4609 89.9581 19.6003C88.953 20.5711 88.3706 22.1227 87.53 22.8701C87.3011 22.8448 87.4019 22.8829 87.2241 22.7681C87.7819 21.4183 88.5663 20.2561 89.4601 19.1095Z" fill="white"/>
<path d="M111.931 100.537C112.627 96.5858 114.366 92.3612 117.759 89.9761C119.128 89.0132 120.861 88.4401 122.538 88.7581C123.869 89.0105 124.991 89.8241 125.737 90.9425C127.102 92.9878 126.907 95.7726 126.397 98.0628C125.96 100.023 125.042 103.216 123.888 104.808C123.612 104.851 123.674 105.05 123.413 105.11L123.299 104.842C124.354 102.04 125.612 99.0382 124.557 96.0421C124.075 94.6726 123.161 93.5554 121.823 92.9429C120.598 92.3819 119.212 92.3124 117.962 92.8312C114.818 94.1347 113.643 97.6835 112.442 100.561L112.372 100.47C112.318 100.539 112.26 100.606 112.203 100.673L111.931 100.537Z" fill="#F2BA22"/>
<path d="M92.7375 24.2023C93.5543 23.4155 94.5527 22.8781 95.7145 22.9214C96.6391 22.961 97.5078 23.3758 98.1199 24.0702C98.5648 24.5825 98.8047 25.2061 98.7277 25.888C98.6363 26.7026 98.0918 27.3619 97.4547 27.8345L97.366 27.8993C96.5133 28.5915 95.4254 28.9365 94.4492 29.4161C91.4437 30.8925 89.4312 33.4847 87.9609 36.424C87.5617 36.2491 87.1398 36.122 86.7266 35.9835C87.1645 33.449 88.5492 28.4597 90.3437 26.6418C90.8887 25.8362 91.868 24.6451 92.7375 24.2023Z" fill="#FA3948"/>
<path d="M92.7373 24.2023C93.5541 23.4155 94.5526 22.8781 95.7143 22.9214C96.6389 22.961 97.5076 23.3758 98.1198 24.0702C98.5647 24.5825 98.8045 25.2061 98.7276 25.888C98.6362 26.7026 98.0916 27.3619 97.4545 27.8345L97.3658 27.8993C97.2592 27.2684 97.7596 26.6497 97.8721 26.0292C97.9502 25.5979 97.7619 25.2247 97.5131 24.8846C97.0694 24.277 96.4182 23.7991 95.6596 23.7024C94.328 23.5328 93.2158 24.4862 92.2369 25.2429C92.0615 24.8711 92.6198 24.5375 92.7373 24.2023Z" fill="white"/>
<path d="M92.7375 24.2024C92.6199 24.5376 92.0617 24.8711 92.2371 25.2429C91.809 25.8044 91.2621 26.3638 90.6883 26.7765L90.4883 26.795L90.3438 26.6419C90.8887 25.8363 91.868 24.6452 92.7375 24.2024Z" fill="white"/>
<path d="M86.0752 15.2029C86.5369 15.2047 86.9705 15.4738 87.2951 15.7892C87.3064 15.8001 87.3142 15.8139 87.324 15.8262L87.158 16.0187C87.2791 16.7632 87.9978 16.8171 87.7173 17.7481C87.6986 18.1219 87.6486 18.492 87.7775 18.8503C87.949 18.8403 87.908 18.878 88.0068 18.7531C88.1509 18.5701 88.2314 18.3609 88.3228 18.1487C88.165 19.8601 86.1209 22.6594 85.4533 24.5239C84.2478 27.8919 84.2966 31.5832 84.1841 35.1145L82.6107 34.8604C82.4209 31.168 82.0474 27.4451 82.0505 23.7494C82.0513 23.0148 81.988 22.1841 82.1126 21.4648C82.1431 20.197 82.2923 18.9855 82.7537 17.7962C82.9751 17.9616 82.9744 17.9515 83.2521 17.9346C83.456 17.5682 83.9068 17.1554 84.2306 16.8898C84.3127 16.6808 84.3255 16.4531 84.4275 16.2469C84.7373 15.6203 85.4486 15.7012 85.9408 15.3146C85.9865 15.2787 86.0302 15.2401 86.0752 15.2029Z" fill="#FA3948"/>
<path d="M86.1214 15.1462C86.8834 15.3133 88.0469 15.8335 88.4111 16.8217C88.7753 17.81 88.2139 19.0748 87.7935 19.8739C87.606 19.4928 87.9931 17.1348 87.3124 16.6026C86.6318 16.0705 84.6641 15.9839 83.2592 17.8857C83.199 18.1784 82.6494 18.0096 82.7513 17.8034C83.574 15.073 85.4033 14.9887 86.1214 15.1462Z" fill="white"/>
<path d="M82.7533 17.7961C82.9748 17.9615 82.974 17.9515 83.2518 17.9346C83.1373 18.5095 82.924 19.0548 82.8115 19.6328C82.5822 20.813 82.4561 22.013 82.1479 23.1764L82.1123 21.4648C82.1428 20.197 82.292 18.9855 82.7533 17.7961Z" fill="white"/>
<path d="M77.7831 16.3491C78.1768 16.1115 78.9889 16.0438 79.442 16.1502C80.0975 16.3043 80.6167 16.8261 80.9428 17.394C81.3413 18.0877 81.3975 18.6524 81.3229 19.4348C81.1893 22.8524 81.3522 26.1559 81.619 29.5646C81.7542 31.2921 81.8686 33.0961 82.1585 34.8043C81.5682 34.7866 80.9764 34.7616 80.3858 34.7563C80.2545 32.1935 80.0991 29.6689 78.992 27.3061C78.1854 25.584 76.6784 23.7598 76.3733 21.8662C76.0198 20.7532 75.7913 19.3306 76.0858 18.1829C76.3022 18.3982 76.3745 18.3879 76.6659 18.4442C76.8667 18.0851 77.1452 17.8194 77.4674 17.571C77.5991 17.167 77.6952 16.7646 77.7831 16.3491Z" fill="#FA3948"/>
<path d="M76.082 18.2148C76.9293 15.8673 78.989 16.0439 79.4422 16.1503C80.0976 16.3043 80.6168 16.8262 80.943 17.3941C81.3414 18.0878 81.3976 18.6524 81.323 19.4349C81.148 19.3123 81.1898 19.3699 81.0918 19.2112C80.8109 18.7562 80.5726 18.0596 80.2367 17.6885C79.3156 17.211 77.6068 18.3241 76.6482 18.461C76.2615 18.461 75.9941 18.6304 76.082 18.2148Z" fill="white"/>
<path d="M76.0858 18.1829C76.3022 18.3982 76.3745 18.3879 76.6659 18.4442C76.7276 18.86 76.5506 19.3374 76.5233 19.7627C76.4866 20.3368 76.576 20.9683 76.5135 21.5264C76.4995 21.6517 76.437 21.7604 76.3733 21.8662C76.0198 20.7531 75.7913 19.3306 76.0858 18.1829Z" fill="white"/>
<path d="M122.227 104.248C122.337 102.608 122.199 101.052 121.084 99.7309C120.285 98.7875 119.139 98.2055 117.906 98.1161C116.608 98.0309 115.371 98.6629 114.44 99.5289C113.89 100.041 113.452 100.613 113.033 101.234C112.955 101.348 112.986 101.309 112.851 101.384C112.538 100.404 113.814 98.3137 114.285 97.4032C115.2 95.634 116.585 93.6688 118.575 93.0188C119.689 92.6547 120.848 92.8922 121.86 93.4348C123.102 94.1016 123.773 95.1746 124.141 96.4977C124.767 98.7477 124.32 100.519 123.514 102.654C123.304 103.209 123.121 103.83 122.86 104.359C122.666 104.456 122.602 104.512 122.497 104.7C122.479 104.733 122.462 104.766 122.445 104.8L122.244 104.451L122.227 104.248Z" fill="#0B8DCB"/>
<path d="M127.056 106.928C127.401 106.191 127.901 105.548 128.377 104.892C129.906 102.783 131.669 100.638 134.193 99.7056C135.268 99.3087 136.462 99.2005 137.517 99.722C138.53 100.224 139.219 101.257 139.534 102.318C140.106 104.246 139.212 106.454 138.259 108.121C137.899 108.751 137.491 109.357 137.091 109.963L136.552 109.855C136.537 109.277 136.508 108.721 136.425 108.149L136.629 107.47C136.111 106.211 135.271 105.309 134.013 104.765C132.822 104.25 131.375 104.285 130.177 104.778C129.042 105.245 128.062 106.227 127.056 106.928Z" fill="#0B8DCB"/>
<path d="M136.628 107.47C136.936 108.301 136.892 109.123 137.09 109.963L136.551 109.855C136.537 109.277 136.508 108.721 136.425 108.149L136.628 107.47Z" fill="black"/>
<path d="M52.7627 124.622C52.0623 123.848 51.4877 122.778 51.276 121.753C51.0456 120.638 51.1748 119.48 51.819 118.519C52.5186 117.476 53.5768 116.966 54.7694 116.705L54.9495 116.907C55.2674 116.889 55.6561 116.781 55.9405 116.932C57.8702 117.205 59.2393 117.617 60.9248 118.601C61.408 118.883 61.9569 119.15 62.3116 119.596C62.4588 119.781 62.4991 119.927 62.5081 120.158L62.3655 120.441C61.6717 120.585 58.0506 118.148 56.2873 120.732C55.6713 121.635 55.6362 122.831 55.8651 123.866C56.3573 126.091 58.1998 127.626 59.9385 128.944C57.3651 128.055 54.7409 126.404 52.951 124.336L52.7627 124.622Z" fill="#0B8DCB"/>
<path d="M52.7627 124.622C52.0623 123.848 51.4877 122.778 51.276 121.753C51.0456 120.638 51.1748 119.48 51.819 118.519C52.5186 117.476 53.5768 116.966 54.7694 116.705L54.9495 116.907C55.2674 116.889 55.6561 116.781 55.9405 116.932L55.7819 116.966C54.3498 117.267 53.0991 117.405 52.1795 118.73C51.5819 119.592 51.4592 120.676 51.685 121.683C51.9084 122.68 52.3928 123.497 52.951 124.336L52.7627 124.622Z" fill="black"/>
<path d="M133.075 145.225C135.458 144.591 138.827 144.093 140.183 141.767C140.702 140.876 140.742 139.846 140.445 138.871C140.082 137.675 139.242 136.728 138.123 136.18C136.55 135.411 134.544 135.408 132.844 135.581C132.16 135.65 131.438 135.78 130.753 135.76C130.476 135.753 130.346 135.726 130.136 135.548C130.15 135.294 130.147 135.245 130.367 135.076C130.807 134.737 131.743 134.636 132.288 134.557C134.9 134.176 137.793 134.014 140.376 134.696C141.766 135.062 143.275 135.811 144.018 137.096C144.536 137.994 144.675 139.14 144.387 140.136C143.936 141.702 142.365 142.685 140.998 143.399C138.788 144.554 136.175 145.289 133.724 145.752C131.929 146.071 130.091 146.403 128.266 146.452C129.179 146.101 130.14 145.86 131.088 145.626C131.244 145.282 131.317 145.094 131.655 144.899C131.867 145.087 131.904 145.077 132.2 145.057C132.281 145.052 132.35 145.036 132.427 145.021L132.787 145.248L133.075 145.225Z" fill="#F2BA22"/>
<path d="M131.088 145.626C131.244 145.282 131.317 145.094 131.655 144.899C131.867 145.087 131.904 145.077 132.2 145.057C132.281 145.052 132.35 145.036 132.427 145.021L132.787 145.248L133.075 145.225L133.159 145.374C132.611 145.506 132.062 145.65 131.51 145.764C132.152 146.077 133.118 145.346 133.724 145.752C131.929 146.071 130.091 146.403 128.266 146.452C129.179 146.101 130.14 145.86 131.088 145.626Z" fill="#F2BA22"/>
<path d="M131.088 145.626C131.244 145.282 131.317 145.094 131.655 144.899C131.867 145.087 131.904 145.077 132.2 145.057C132.28 145.052 132.35 145.036 132.427 145.021L132.787 145.248C132.226 145.428 131.667 145.527 131.088 145.626Z" fill="black"/>
<path d="M135.135 118.105C137.7 116.979 141.451 115.23 144.281 116.324C145.223 116.689 146.105 117.479 146.506 118.414C146.891 119.312 146.784 120.227 146.408 121.105C145.464 123.314 143.274 124.82 141.345 126.103C141.084 126.029 140.952 125.935 140.743 125.771C141.384 124.792 141.789 123.313 141.648 122.151C141.513 121.035 140.855 120.019 139.962 119.351C138.568 118.307 136.979 118.391 135.351 118.607L135.135 118.105Z" fill="#0B8DCB"/>
<path d="M68.1811 43.5364C68.3097 43.5465 68.439 43.5583 68.5651 43.586C69.2331 43.7329 69.8288 44.3141 70.1581 44.8907C71.2241 46.7586 70.9124 49.1696 70.394 51.1473C70.3565 51.1157 70.3198 51.0836 70.2823 51.0524C68.7479 49.7965 66.9171 49.7641 65.0507 49.9844C64.0335 50.0965 63.3729 50.3157 62.5386 50.8989C62.7534 48.4625 63.4624 46.4629 65.3132 44.7836C65.6054 44.5184 66.1315 44.0547 66.5331 44.0739L66.9714 44.6528L66.9655 44.6094C67.3577 44.4946 67.8136 43.8161 68.1811 43.5364Z" fill="#0B8DCB"/>
<path d="M88.4332 88.577C89.6559 88.2911 90.8059 88.1102 91.9676 88.7426C94.77 90.2676 95.0813 93.4883 95.9165 96.2012C95.9407 96.393 95.9684 96.5704 95.9559 96.7645C95.1739 95.9544 94.6403 95.1516 93.6262 94.5899C92.7149 94.0852 91.659 93.8989 90.6504 94.2055C89.2793 94.6227 88.3567 95.7731 87.6965 96.977C87.5684 94.1442 88.0055 91.3673 88.4332 88.577Z" fill="#0B8DCB"/>
<path d="M76.7333 64.0824L77.0364 64.3941C76.3259 65.5402 75.6829 66.6199 74.6997 67.5672C73.1122 69.0969 71.122 70.0648 68.8864 69.9976C65.9196 69.909 63.5079 68.1777 61.5513 66.1004C63.6013 66.1136 65.5841 66.3203 67.6239 66.4672C70.7321 66.691 74.311 66.1812 76.7333 64.0824Z" fill="#F2BA22"/>
<path d="M60.0086 144.059C58.2621 143.974 56.3047 143.267 54.9527 142.15C53.8258 141.219 52.9742 139.916 52.8688 138.428C52.7859 137.257 53.1578 136.07 53.9621 135.205C55.107 133.975 56.9629 133.507 58.5922 133.422C59.2531 133.387 60.2852 133.237 60.8074 133.705C60.8777 133.93 60.9113 134.042 60.8012 134.274C60.5473 134.806 58.966 134.914 58.3746 135.201C57.3938 135.675 56.5375 136.521 56.2121 137.577C55.8941 138.61 56.0008 139.901 56.5141 140.856C57.2746 142.271 58.7047 142.825 60.1422 143.283C59.9352 143.519 60.0082 143.751 60.0086 144.059Z" fill="#F2BA22"/>
<path d="M131.111 136.008C133.558 135.872 136.978 135.592 138.953 137.309C139.694 137.954 140.012 138.792 140.05 139.759C140.088 140.72 139.842 141.584 139.158 142.279C137.973 143.482 136.132 143.975 134.557 144.416C134.303 144.317 134.203 144.085 134.068 143.865C135.074 143.239 135.91 142.409 136.212 141.223C136.412 140.437 136.317 139.67 135.889 138.976C134.86 137.308 132.847 136.644 131.111 136.008Z" fill="#0B8DCB"/>
<path d="M59.7807 135.188C60.0546 135.172 60.3292 135.172 60.6034 135.168C60.7878 135.305 60.7178 135.431 60.7202 135.652C60.7581 138.2 61.0159 140.739 61.4905 143.242C60.6049 142.984 59.7147 142.739 58.8565 142.398C58.5991 142.273 58.3448 142.139 58.1065 141.979C57.2479 141.403 56.6053 140.459 56.4491 139.432C56.2991 138.486 56.5467 137.519 57.1339 136.761C57.7667 135.938 58.7542 135.338 59.7807 135.188Z" fill="#0B8DCB"/>
<path d="M89.2229 83.7539C90.0593 83.8406 90.7437 83.9504 91.4952 84.3551C93.9624 85.6836 95.3585 88.9887 96.105 91.5293L95.9456 91.5758C96.144 92.2539 96.3671 92.9359 96.0237 93.6164L95.912 93.568L95.7515 92.9266C95.6808 93.0828 95.6585 93.1539 95.6362 93.316C95.2101 91.7578 94.7339 90.373 93.4858 89.2687C91.9636 87.9219 90.4007 87.8801 88.4897 87.9871C88.7542 86.5801 88.953 85.1613 89.2229 83.7539Z" fill="#F2BA22"/>
<path d="M89.4032 107.888C88.3731 106.047 87.536 101.048 87.8278 99.0031C88.0263 97.6117 88.7641 96.1016 89.9134 95.2531C90.6278 94.7262 91.5083 94.473 92.3911 94.6148C93.6946 94.8246 94.4321 95.7184 95.1434 96.7301L94.6489 97.1145C93.9298 96.4188 93.0891 95.8488 92.0427 95.8922C91.1977 95.9269 90.3825 96.3785 89.8462 97.0207C88.6645 98.4355 88.4934 100.583 88.6891 102.339C88.8731 103.993 89.2891 105.674 89.8594 107.238C90.3102 108.677 92.2477 113.351 92.2743 114.354L92.1282 114.443C91.8774 114.367 91.7598 114.175 91.6368 113.958C90.7196 112.345 89.8137 109.716 89.4032 107.888Z" fill="#F2BA22"/>
<path d="M89.8596 107.238C90.3104 108.677 92.2479 113.351 92.2744 114.354L92.1283 114.443C91.8775 114.367 91.76 114.175 91.6369 113.958C90.7197 112.345 89.8139 109.716 89.4033 107.888C89.69 108.19 91.1721 112.083 91.2439 112.604C91.2475 112.631 91.2498 112.658 91.2525 112.684L91.3475 112.744C91.8272 111.768 89.3373 108.452 89.8596 107.238Z" fill="#F2BA22"/>
<path d="M61.9791 51.8074C62.1448 51.8492 62.3065 51.9324 62.4627 52.0035C64.476 52.9179 67.6409 52.9953 69.7951 52.5183C69.1393 53.3019 68.5452 53.8898 67.6741 54.4281C66.242 55.43 64.8213 56.2371 63.1424 56.7457C62.4944 55.0589 61.9694 53.6382 61.9791 51.8074Z" fill="#0B8DCB"/>
<path d="M122.72 113.214C123.219 112.37 123.937 111.583 124.556 110.823C126.21 108.79 128.287 105.984 130.889 105.177C131.991 104.834 133.196 104.877 134.228 105.415C135.428 106.041 136.029 106.879 136.425 108.149C136.508 108.721 136.537 109.277 136.551 109.855C136.517 110.418 136.346 110.914 136.164 111.443L136.516 111.655L136.194 112.054L135.866 112.095L135.51 112.516L135.424 112.35C135.443 112.324 135.464 112.299 135.483 112.272C136.197 111.243 136.449 109.275 136.217 108.036L136.106 108.075C136.003 108.325 135.887 108.472 135.714 108.675L135.554 108.641C135.547 108.627 135.539 108.614 135.532 108.6C135.132 107.723 134.567 106.772 133.692 106.288C133.323 106.083 132.818 105.916 132.401 106.033C129.943 106.159 128.4 107.511 126.81 109.283C124.961 111.343 123.439 113.629 121.744 115.801C121.557 116.102 121.265 116.525 120.906 116.614C120.898 116.588 120.885 116.564 120.881 116.537C120.753 115.793 122.262 113.828 122.72 113.214Z" fill="#F2BA22"/>
<path d="M122.72 113.214C122.787 113.406 122.839 113.494 122.731 113.692C122.371 114.352 121.253 115.189 121.267 115.962C121.505 115.888 121.528 115.839 121.692 115.644L121.744 115.801C121.557 116.102 121.265 116.525 120.906 116.614C120.898 116.588 120.885 116.564 120.881 116.537C120.753 115.793 122.262 113.828 122.72 113.214Z" fill="#F2BA22"/>
<path d="M136.164 111.443L136.516 111.655L136.194 112.054L135.866 112.095L136.164 111.443Z" fill="black"/>
<path d="M63.2199 104.895L63.3418 104.885C64.6097 104.792 65.2148 104.995 66.1683 105.811C65.6132 107.733 64.9793 109.647 64.3312 111.539C64.2902 111.737 64.2238 111.891 64.1359 112.073L63.9925 112.063C63.7687 111.854 63.5648 111.639 63.3894 111.387C62.4726 110.068 61.7601 108.043 62.1078 106.434C62.2695 105.686 62.5804 105.292 63.2199 104.895Z" fill="#8EBA7C"/>
<path d="M112.333 104.182C112.504 103.154 113.175 101.88 113.793 101.041C114.619 99.9203 115.785 98.9426 117.207 98.7511C118.28 98.6066 119.439 98.9199 120.282 99.5992C121.027 100.2 121.567 101.188 121.669 102.143C121.822 102.782 121.775 103.473 121.748 104.127C121.582 104.7 121.568 105.306 121.441 105.888C121.406 106.059 121.388 106.268 121.328 106.429L121.158 106.432L121.106 106.525C120.835 106.661 120.762 106.718 120.654 107.004C120.439 107.574 120.423 108.065 119.987 108.535C120.405 106.35 121.304 104.9 120.508 102.596C120.164 101.598 119.497 100.707 118.524 100.254C117.825 99.9281 117.051 99.8941 116.331 100.173C114.35 100.941 113.463 103.104 112.644 104.89L112.532 104.912C112.217 105.262 112.089 105.983 111.912 106.434L111.837 106.404C111.842 105.675 112.401 105.005 112.35 104.324C112.346 104.277 112.338 104.23 112.333 104.182Z" fill="#F2BA22"/>
<path d="M121.441 105.888C121.136 104.778 121.34 103.353 121.464 102.219L121.67 102.143C121.822 102.782 121.775 103.473 121.748 104.127C121.582 104.7 121.568 105.306 121.441 105.888Z" fill="#F2BA22"/>
<path d="M100.261 102.954C100.252 102.902 100.242 102.852 100.235 102.8C99.8776 100.095 100.261 96.2531 102.103 94.1035C102.788 93.3035 103.729 92.7305 104.796 92.6613C105.687 92.6035 106.473 92.9113 107.134 93.4996C108.608 94.8117 108.968 96.6844 109.112 98.5516L109.117 98.6246C109.103 98.668 109.088 98.7109 109.075 98.7551C108.936 99.2258 109.157 99.7973 109.075 100.3L108.967 100.313C108.863 99.9453 109.003 99.3164 108.792 99.0246L108.687 99.0035L108.646 98.9519C108.441 97.3664 107.931 95.8828 106.599 94.8703C105.933 94.3641 105.111 94.0601 104.27 94.2027C103.336 94.3605 102.662 94.9879 102.157 95.7555C100.866 97.7191 100.838 100.359 100.766 102.628C100.54 102.7 100.511 102.792 100.338 102.923C100.316 102.94 100.287 102.943 100.261 102.954Z" fill="#F2BA22"/>
<path d="M132.513 120.131C134.313 119.3 136.863 118.567 138.81 119.3C139.714 119.639 140.446 120.323 140.846 121.2C141.303 122.213 141.241 123.395 140.829 124.412C140.225 125.904 138.945 127.097 137.522 127.804L137.453 127.735C137.26 127.77 137.23 127.779 137.037 127.709C137.233 127.51 137.303 127.458 137.375 127.193C137.81 126.616 138.478 126.243 138.855 125.58C139.408 124.611 139.654 123.37 139.31 122.293C139.044 121.459 138.451 120.768 137.666 120.38C136.086 119.581 134.507 120.069 132.935 120.56C132.81 120.383 132.675 120.27 132.513 120.131Z" fill="#F2BA22"/>
<path d="M130.195 137.751C130.772 137.807 131.427 138.009 131.966 138.224C133.007 138.638 133.551 139.268 133.997 140.257C133.756 141.484 133.206 142.024 132.234 142.746C131.294 143.273 130.354 143.597 129.319 143.894C129.9 141.885 130.056 139.827 130.195 137.751Z" fill="#8EBA7C"/>
<path d="M59.4011 121.688C60.3136 121.711 61.2078 121.952 62.0082 122.39C61.8449 123.523 61.7211 124.661 61.5589 125.794C61.4925 126.258 61.4132 127.25 61.0304 127.536L60.7601 127.456C59.698 126.727 58.4875 125.762 57.9957 124.534C57.7828 124.002 57.6613 123.36 57.9105 122.819C58.1937 122.205 58.7968 121.904 59.4011 121.688Z" fill="#8EBA7C"/>
<path d="M70.3477 70.8714C71.4652 70.7992 72.4453 70.8867 73.5473 71.0847C73.6547 71.8746 73.7098 72.6675 73.8348 73.4554C74.0484 74.8046 74.3668 76.2191 74.398 77.5863C74.5039 78.2535 74.8031 79.8163 74.4754 80.3867C74.2551 80.2046 74.2356 80.0085 74.1434 79.7449C74.0699 79.2488 73.8391 78.7054 73.6797 78.2269C72.818 75.6406 71.7148 73.2324 70.3477 70.8714Z" fill="#8EBA7C"/>
<path d="M74.1436 79.745C74.6541 79.2493 74.1412 78.2599 74.3982 77.5864C74.5041 78.2536 74.8033 79.8165 74.4756 80.3868C74.2553 80.2048 74.2357 80.0087 74.1436 79.745Z" fill="#8EBA7C"/>
<path d="M92.8309 72.7301C93.7984 75.7031 94.218 79.0492 94.7035 82.1414L94.2629 82.568C93.4801 80.3528 92.3945 78.0746 91.1133 76.1024C91.5891 74.9157 92.1727 73.8235 92.8309 72.7301Z" fill="#8EBA7C"/>
<path d="M59.3685 127.856C58.0084 127.039 56.7861 125.402 56.333 123.878C56.0994 123.092 55.9962 122.166 56.431 121.427C56.8388 120.734 57.615 120.187 58.3978 120.019C59.3779 119.81 60.6587 120.141 61.4919 120.69C61.7982 120.891 62.0427 121.095 62.1244 121.465L62.0205 121.622C61.2337 121.806 60.458 121.224 59.6626 121.221C59.0173 121.219 58.3693 121.397 57.9224 121.886C57.4623 122.389 57.3314 123.097 57.3837 123.758C57.5123 125.37 58.5443 126.293 59.6791 127.287L59.6326 127.681L59.3685 127.856Z" fill="#F2BA22"/>
<path d="M60.6334 106.416C60.5525 106.016 60.5264 105.619 60.585 105.213C60.6795 104.559 61.1108 103.533 61.6983 103.168C62.3514 102.762 63.3893 102.891 64.0877 103.092C64.7822 103.293 66.074 103.816 66.3729 104.503C66.4674 104.721 66.4979 104.864 66.4236 105.087C65.8666 105.186 64.6553 104.111 63.3326 104.398C62.6006 104.557 62.1565 105.005 61.7869 105.629L61.726 105.734C61.3752 107.899 61.7264 109.588 63.0088 111.378C63.0611 111.451 63.1139 111.523 63.1674 111.595L62.8158 111.853C61.6393 110.282 60.7022 108.405 60.6334 106.416Z" fill="#F2BA22"/>
<path d="M60.6338 106.416L60.8311 106.093L60.8361 105.911C60.8389 105.829 60.8443 105.747 60.8443 105.665C60.8443 105.59 60.8385 105.514 60.8404 105.439C60.8572 104.83 61.2502 103.77 61.6912 103.356L61.8775 103.37C62.0697 103.59 62.1154 103.793 62.1854 104.068L62.2135 104.182C62.3885 104.276 62.3064 104.223 62.4603 104.338C62.3475 104.744 61.9529 104.884 61.7432 105.238C61.6131 105.458 61.6549 105.509 61.7264 105.734C61.3756 107.899 61.7268 109.588 63.0092 111.378C63.0615 111.451 63.1143 111.523 63.1678 111.595L62.8162 111.853C61.6397 110.282 60.7025 108.405 60.6338 106.416Z" fill="#F2BA22"/>
<path d="M90.7433 77.5055C91.9151 78.5723 93.0847 82.7059 93.621 84.3367C93.3839 84.1906 93.1558 84.0149 92.9272 83.8551C91.8323 83.1301 90.7351 82.768 89.437 82.6215C89.8132 80.8809 90.1124 79.1824 90.7433 77.5055Z" fill="#8EBA7C"/>
<path d="M131.354 143.82C132.598 143.144 133.937 142.336 134.377 140.889C134.537 140.362 134.523 139.821 134.25 139.334C133.469 137.939 130.218 137.382 130.097 136.811C130.657 136.511 131.706 136.81 132.294 136.985C133.571 137.366 134.963 138.105 135.597 139.33C135.917 139.946 135.974 140.627 135.741 141.283C135.332 142.437 134.207 143.27 133.125 143.759C132.56 144.014 131.969 144.241 131.367 144.393L131.563 144.178C131.733 144.135 131.797 144.107 131.939 144.017L131.927 143.92L131.354 143.82Z" fill="#F2BA22"/>
<path d="M132.402 106.033C132.818 105.916 133.323 106.083 133.693 106.288C134.567 106.772 135.133 107.723 135.532 108.6C135.539 108.614 135.547 108.627 135.554 108.641L135.715 108.675C135.887 108.472 136.003 108.325 136.106 108.075L136.217 108.036C136.449 109.275 136.197 111.243 135.483 112.272C135.464 112.299 135.443 112.324 135.424 112.35L135.511 112.516C135.23 113.084 134.809 113.552 134.533 114.112C133.14 115.834 127.419 120.927 125.395 121.836L125.27 121.73C125.317 121.529 125.347 121.457 125.493 121.312C126.104 120.704 126.952 120.175 127.639 119.648C128.987 118.614 130.308 117.566 131.558 116.416C132.573 115.481 133.363 114.509 134.232 113.449C134.576 112.902 134.888 112.345 135.114 111.738C135.547 110.573 135.658 109.291 135.098 108.146C134.527 106.978 133.577 106.438 132.402 106.033Z" fill="#F2BA22"/>
<path d="M132.402 106.033C132.819 105.916 133.323 106.083 133.693 106.288C134.567 106.772 135.133 107.723 135.532 108.6C135.539 108.614 135.547 108.627 135.555 108.641C135.601 108.682 135.643 108.73 135.696 108.762C135.732 108.784 135.861 108.809 135.907 108.819C136.039 109.095 136.04 109.42 135.959 109.71L136.037 109.875L135.919 109.818L135.759 110.242L135.856 109.741C135.506 111.105 135.376 112.23 134.512 113.398L134.308 113.485L134.232 113.449C134.576 112.902 134.889 112.345 135.114 111.738C135.547 110.573 135.659 109.291 135.098 108.146C134.527 106.978 133.577 106.438 132.402 106.033Z" fill="#F2BA22"/>
<path d="M74.6851 71.4567C75.5405 71.5594 76.3925 71.6531 77.2522 71.7141C76.8733 73.2098 76.4233 74.6879 75.9897 76.1684L75.6003 77.5567C75.1046 75.577 74.9093 73.4801 74.6851 71.4567Z" fill="#8EBA7C"/>
<path d="M78.5911 52.4508C78.8028 52.7563 78.9962 54.8907 79.281 55.6324C78.2001 55.4477 77.1239 55.2387 76.0524 55.0047C75.6028 54.8778 75.131 54.8063 74.6724 54.7164C75.7735 53.493 77.0712 52.9789 78.5911 52.4508Z" fill="white"/>
<path d="M96.6992 98.0211C96.7578 97.857 96.7918 97.7484 96.7852 97.5711C96.7762 97.3398 96.7879 97.1211 96.8035 96.8906C96.9004 97.0469 96.9144 97.3016 96.9496 97.484L97.1262 97.5273C97.3156 98.827 97.482 100.135 97.7027 101.43L98.3879 106.98C98.4703 107.703 98.6426 108.517 98.6094 109.241C98.5043 109.407 98.4031 109.565 98.2746 109.714C98.0703 109.642 98.1566 109.694 98.0094 109.569C97.7344 107.22 97.291 104.881 97.1695 102.516C97.1016 101.002 96.8207 99.527 96.6992 98.0211Z" fill="#F2BA22"/>
<path d="M109.489 97.7418C109.549 98.168 109.592 98.5922 109.626 99.0211L109.76 99.1082C109.797 99.4508 109.831 99.7762 109.601 100.067C109.505 100.189 109.39 100.267 109.262 100.349C109.188 102.812 108.877 108.934 108.089 111.023C107.906 109.352 108.308 107.478 108.451 105.799C108.645 103.494 108.722 101.266 108.646 98.952L108.687 99.0035L108.793 99.0246C109.003 99.3164 108.864 99.9453 108.968 100.313L109.075 100.3C109.157 99.7973 108.936 99.2258 109.075 98.7551C109.088 98.711 109.104 98.668 109.118 98.6246L109.112 98.5516L109.27 98.5774C109.48 98.325 109.451 98.0633 109.489 97.7418Z" fill="#F2BA22"/>
<path d="M109.489 97.7418C109.549 98.168 109.592 98.5922 109.626 99.0211L109.76 99.1082C109.797 99.4508 109.831 99.7762 109.601 100.067C109.505 100.189 109.39 100.267 109.262 100.349C109.208 99.775 109.165 99.1992 109.118 98.6246L109.112 98.5516L109.27 98.5774C109.48 98.325 109.451 98.0633 109.489 97.7418Z" fill="black"/>
<path d="M121.441 105.888C121.568 105.306 121.582 104.7 121.748 104.127C121.744 104.439 121.741 104.691 121.849 104.991C121.994 104.804 122.014 104.655 122.104 104.445C122.134 104.375 122.183 104.311 122.227 104.248L122.243 104.451L122.444 104.8C122.462 104.766 122.478 104.733 122.496 104.7C122.602 104.512 122.666 104.456 122.859 104.359C122.597 105.122 122.36 105.905 122.044 106.647C122.02 106.775 121.992 106.845 121.933 106.962C121.504 107.811 121.305 110.755 120.415 111.232C120.291 111.03 120.209 110.8 120.06 110.619C120.543 109.259 121.126 107.865 121.328 106.429C121.388 106.268 121.406 106.059 121.441 105.888Z" fill="black"/>
<path d="M122.243 104.451L122.444 104.8C122.462 104.766 122.478 104.733 122.496 104.7C122.602 104.512 122.666 104.456 122.859 104.359C122.597 105.121 122.36 105.905 122.044 106.646C121.887 105.974 122.122 105.121 122.243 104.451Z" fill="#0B8DCB"/>
<path d="M119.987 108.535C120.423 108.065 120.439 107.574 120.654 107.004C120.762 106.718 120.835 106.661 121.106 106.525L121.158 106.432L121.328 106.429C121.126 107.865 120.543 109.259 120.06 110.619C119.69 111.534 118.913 113.985 118.215 114.49L118.147 114.366C118.468 112.962 118.928 111.677 119.386 110.319C119.587 109.722 119.721 109.107 119.987 108.535Z" fill="#F2BA22"/>
<path d="M88.4688 108.369C88.5734 108.466 88.6281 108.552 88.6879 108.686C89.0316 109.452 89.252 110.341 89.5387 111.135C89.9676 112.324 90.6504 113.721 90.8727 114.962C90.9238 115.249 90.8449 115.366 90.7391 115.62C90.5984 115.704 90.4844 115.741 90.3254 115.777C89.5492 114.889 88.5438 109.642 88.4688 108.369Z" fill="#8EBA7C"/>
<path d="M137.375 127.193C137.303 127.458 137.234 127.51 137.038 127.709C137.23 127.779 137.26 127.77 137.453 127.735L137.522 127.804C137.241 128.151 136.433 128.498 136.027 128.709C135.324 129.074 130.494 131.431 130.027 131.436C129.958 131.437 129.895 131.394 129.83 131.373L129.793 131.165C129.922 130.966 130.049 130.863 130.259 130.764C130.705 130.553 131.202 130.453 131.658 130.265C132.8 129.793 133.952 129.242 135.05 128.676C135.876 128.25 136.624 127.739 137.375 127.193Z" fill="#F2BA22"/>
<path d="M112.644 104.89C112.187 106.244 111.839 107.637 111.505 109.025C111.309 109.839 111.167 110.707 110.86 111.484L110.757 111.471C110.21 109.698 111.583 105.904 112.333 104.182C112.338 104.23 112.346 104.277 112.349 104.324C112.401 105.005 111.842 105.675 111.837 106.404L111.912 106.434C112.089 105.983 112.217 105.262 112.532 104.912L112.644 104.89Z" fill="#F2BA22"/>
<path d="M132.935 120.56C131.74 120.987 130.588 121.633 129.496 122.278C128.572 122.823 127.679 123.755 126.59 123.928L126.585 123.81C127.944 122.253 130.626 120.922 132.513 120.13C132.675 120.27 132.81 120.383 132.935 120.56Z" fill="#F2BA22"/>
<path d="M95.6362 93.316C95.6585 93.1539 95.6808 93.0828 95.7515 92.9266L95.912 93.568L96.0237 93.6164C96.3671 92.9359 96.144 92.2539 95.9456 91.5758L96.105 91.5293C96.6507 93.0762 96.9909 95.8547 97.1261 97.5273L96.9495 97.484C96.9144 97.3016 96.9003 97.0469 96.8034 96.8906C96.7878 97.1211 96.7761 97.3398 96.7851 97.5711C96.7917 97.7484 96.7577 97.857 96.6991 98.0211C96.5823 97.6559 96.5159 97.2812 96.4425 96.9055L95.9558 96.7645C95.9683 96.5703 95.9405 96.393 95.9163 96.2012C96.044 95.9152 96.0659 95.6055 96.1077 95.298L95.6362 93.316Z" fill="#F2BA22"/>
<path d="M96.1079 95.298C96.2239 95.8238 96.3802 96.3726 96.4427 96.9054L95.956 96.7644C95.9685 96.5702 95.9407 96.3929 95.9165 96.2011C96.0442 95.9152 96.0661 95.6054 96.1079 95.298Z" fill="black"/>
<path d="M132.379 118.185L132.76 118.424L132.74 118.526L132.487 118.623L132.481 118.837L132.824 118.624L132.918 118.703L132.921 118.78C132.186 119.359 131.137 119.688 130.33 120.194C129.038 121.003 127.853 121.983 126.569 122.812C127.96 120.769 130.472 119.675 132.379 118.185Z" fill="#F2BA22"/>
<path d="M100.261 102.954C100.287 102.943 100.316 102.94 100.338 102.923C100.511 102.792 100.54 102.7 100.766 102.628C100.893 105.466 101.232 108.309 101.252 111.148C100.501 108.806 100.396 105.456 100.261 102.954Z" fill="#F2BA22"/>
<path d="M123.299 104.843L123.413 105.111C123.674 105.05 123.612 104.851 123.888 104.808C123.301 106.168 122.609 107.683 121.726 108.873C122.127 107.464 122.694 106.172 123.299 104.843Z" fill="#F2BA22"/>
<path d="M135.51 112.516L135.866 112.095L136.194 112.053C136.13 112.302 136.078 112.33 136.179 112.576C136.473 112.5 136.649 112.305 136.899 112.151C136.582 112.516 135.169 114.243 134.735 114.2C134.694 114.196 134.573 114.133 134.532 114.112C134.809 113.552 135.23 113.084 135.51 112.516Z" fill="#F2BA22"/>
<path d="M37.2778 138.866C38.4151 138.633 39.7931 139.177 40.7173 139.027C40.8314 139.008 40.9287 138.882 40.9908 138.802C41.5974 138.955 42.329 139.039 42.8829 139.326C42.179 139.531 38.2415 138.996 37.2778 138.866Z" fill="#8EBA7C"/>
<path d="M131.655 144.899C132.476 144.598 133.27 144.224 134.068 143.865C134.204 144.085 134.304 144.317 134.557 144.416C133.834 144.586 133.134 144.793 132.427 145.022C132.35 145.036 132.281 145.052 132.2 145.057C131.904 145.077 131.867 145.087 131.655 144.899Z" fill="#0B8DCB"/>
<path d="M131.367 144.393C131.027 144.545 130.679 144.641 130.32 144.732C129.981 144.82 129.477 145.005 129.165 144.82L129.202 144.704C129.826 144.309 130.662 144.087 131.354 143.82L131.927 143.92L131.939 144.017C131.797 144.107 131.733 144.135 131.563 144.178L131.367 144.393Z" fill="#F2BA22"/>
<path d="M98.0093 109.569C98.1565 109.694 98.0702 109.642 98.2745 109.714C98.403 109.565 98.5042 109.407 98.6093 109.241C98.7069 109.927 98.9304 110.771 98.605 111.422L98.4444 111.42C98.0659 110.863 98.0679 110.219 98.0093 109.569Z" fill="#F2BA22"/>
<path d="M94.2627 82.5679L94.7033 82.1414C94.9568 83.5367 95.3127 84.9972 95.3775 86.4117C94.917 85.1597 94.699 83.8312 94.2627 82.5679Z" fill="#8EBA7C"/>
<path d="M111.93 100.537L112.203 100.673C112.26 100.606 112.318 100.54 112.372 100.47L112.441 100.561C112.252 101.686 112.022 102.648 111.42 103.636C111.604 102.605 111.774 101.572 111.93 100.537Z" fill="#F2BA22"/>
<path d="M63.9282 50.6348C64.1497 50.7016 64.2747 50.7215 64.3712 50.9625C64.4735 51.2184 64.3849 51.3758 64.2954 51.6121C64.056 51.8012 64.0028 51.7949 63.6946 51.825C63.438 51.7258 63.263 51.6605 63.0767 51.4457C63.1403 51.1375 63.6716 50.8371 63.9282 50.6348Z" fill="white"/>
<path d="M60.142 143.284C60.644 143.408 61.1198 143.493 61.5428 143.807L61.6084 143.974C61.2041 144.292 60.4862 144.112 60.0084 144.059C60.008 143.752 59.935 143.519 60.142 143.284Z" fill="#F2BA22"/>
<path d="M59.3682 127.856L59.6322 127.681L59.6787 127.287C60.1029 127.56 60.5514 127.797 60.8443 128.217L60.8811 128.436C60.6451 128.539 60.5107 128.507 60.2799 128.404C59.9674 128.263 59.6592 128.039 59.3682 127.856Z" fill="#F2BA22"/>
<path d="M94.6489 97.1144L95.1435 96.73C95.4735 97.312 95.7294 97.8913 95.9688 98.5155L95.7099 98.7315C95.4274 98.1206 95.0825 97.6222 94.6489 97.1144Z" fill="#F2BA22"/>
<path d="M94.9457 179.512C95.6164 180.114 96.0211 180.866 96.4566 181.641C95.8984 181.216 95.2832 180.855 94.7363 180.424L94.9223 180.329C95.05 180.369 95.1777 180.41 95.3051 180.452C95.2949 180.124 95.0992 179.955 94.9035 179.712L94.9457 179.512Z" fill="#F2BA22"/>
<path d="M139.597 127.032C139.918 126.572 140.303 126.12 140.743 125.771C140.952 125.935 141.084 126.029 141.345 126.103C140.791 126.463 140.189 126.741 139.597 127.032Z" fill="#0B8DCB"/>
<path d="M133.563 119C134.063 118.625 134.568 118.357 135.135 118.105L135.351 118.607C134.756 118.765 134.171 118.898 133.563 119Z" fill="#0B8DCB"/>
<path d="M124.841 105.673L125.273 105.685C124.796 106.437 124.328 107.197 123.808 107.921C124.03 107.089 124.418 106.416 124.841 105.673Z" fill="#3B773B"/>
<path d="M95.9689 98.5156C96.192 99.2477 96.3885 99.9754 96.583 100.714L96.4717 100.57L96.4971 100.645C96.1357 100.046 95.9346 99.3898 95.71 98.7316L95.9689 98.5156Z" fill="#F2BA22"/>
<path d="M87.7663 53.5011C87.8495 53.5613 88.03 53.6718 88.0936 53.7624C88.278 54.0265 88.2112 54.2179 88.1796 54.5113C87.9003 54.4605 87.9007 54.4702 87.7225 54.2515C87.678 53.9577 87.7018 53.7839 87.7663 53.5011Z" fill="white"/>
<path d="M100.253 109.547C100.325 110.081 100.388 110.547 100.288 111.085L100.206 111.117C100.112 110.833 100.04 110.574 100.001 110.277C100.129 110.045 100.182 109.802 100.253 109.547Z" fill="#F2BA22"/>
<path d="M160.377 123.705C159.767 123.758 159.075 123.879 158.472 123.78C158.622 123.575 159.255 123.491 159.511 123.451C159.822 123.621 160.024 123.68 160.377 123.705Z" fill="#8EBA7C"/>
<path d="M63.1675 111.595C63.3464 111.844 63.5503 112.063 63.5726 112.38C63.387 112.418 63.4686 112.434 63.3011 112.329C63.1022 112.204 62.964 112.032 62.8159 111.853L63.1675 111.595Z" fill="#F2BA22"/>
<path d="M44.821 102.382C45.194 102.619 45.5116 102.875 45.8366 103.175L44.4038 102.573L44.821 102.382Z" fill="#8EBA7C"/>
<path d="M144.905 90.596C145.063 90.1027 145.211 89.6113 145.425 89.1386L145.806 89.0671C145.542 89.6011 145.225 90.0949 144.905 90.596Z" fill="#8EBA7C"/>
<path d="M76.7334 64.0824C77.0264 63.8308 77.3158 63.5734 77.6228 63.3386C77.4311 63.6871 77.2529 64.0613 77.0365 64.3941L76.7334 64.0824Z" fill="#F2BA22"/>
<path d="M155.781 123.296C155.543 123.364 155.398 123.396 155.152 123.353L155.195 123.216L155.653 122.991L155.781 123.296Z" fill="#8EBA7C"/>
<path d="M46.9165 101.947C47.0622 102.105 47.2786 102.247 47.2728 102.465C47.0028 102.359 46.8567 102.248 46.6431 102.061L46.9165 101.947Z" fill="#8EBA7C"/>
</svg>
