<svg width="200" height="200" viewBox="0 0 200 200" fill="none" xmlns="http://www.w3.org/2000/svg">
<path d="M116.366 69.2085C116.477 73.4961 115.211 77.1808 112.466 80.3027C111.103 81.8514 109.313 82.863 107.463 83.7516C104.267 85.2875 100.883 85.9691 97.3585 85.6847C93.3202 85.359 89.7152 83.8017 86.4043 81.5128C83.6915 79.6369 81.653 77.2723 80.7306 74.0505C80.0836 71.793 80.0277 69.5128 80.3261 67.1939C81.095 61.2146 83.7188 55.9583 86.75 50.8762C90.0093 45.4113 93.8395 40.3549 98.0987 35.6215C98.2967 35.4015 98.4043 35.2429 98.6855 35.5501C105.256 42.7224 110.949 50.4719 114.464 59.6201C115.661 62.7362 116.465 65.9652 116.366 69.2085Z" fill="black"/>
<path d="M115.085 69.3899C115.052 72.8189 114.165 75.965 112.037 78.7096C110.34 80.897 107.994 82.1657 105.481 83.133C100.038 85.2247 94.7617 84.6789 89.6777 81.9443C87.9505 81.0156 86.3108 79.9426 84.9193 78.5482C82.0028 75.6221 81.1823 72.0045 81.5739 68.0426C82.0975 62.7548 84.2579 58.0271 86.8114 53.4594C89.9718 47.8073 93.8106 42.6295 98.0354 37.7275C98.2376 37.4918 98.3696 37.1603 98.767 37.6103C103.924 43.4596 108.505 49.699 111.82 56.7884C113.451 60.2745 114.665 63.8892 114.99 67.754C115.036 68.2955 115.055 68.8427 115.085 69.3899Z" fill="#B6EAFE"/>
</svg>
