<svg width="200" height="200" viewBox="0 0 200 200" fill="none" xmlns="http://www.w3.org/2000/svg">
<path d="M73.2415 160.186C69.7496 160.076 66.2592 159.951 62.7673 159.857C57.4667 159.714 52.1818 159.396 46.9282 158.651C46.6242 158.609 46.3144 158.603 46.0075 158.58C45.9361 158.513 45.9346 158.443 46.0017 158.37C46.1274 158.244 46.283 158.179 46.4529 158.141C47.7905 158.111 49.0953 158.417 50.4173 158.547C52.8285 158.783 55.2382 158.98 57.6594 159.104C62.1906 159.336 66.7232 159.401 71.2572 159.533C74.8147 159.636 78.3723 159.823 81.9298 159.956C82.6407 159.983 83.346 160.103 84.0612 160.1C84.2953 160.099 84.5437 160.123 84.6808 160.371C84.4438 160.759 84.0141 160.499 83.71 160.659C80.2153 160.557 76.7305 160.321 73.2415 160.186Z" fill="#2A2B2B"/>
<path d="M142.805 159.766C140.048 160.264 137.272 160.626 134.482 160.874C131.07 161.179 127.65 161.081 124.231 161.08C120.666 161.079 117.108 161.26 113.554 161.536C113.153 161.567 112.75 161.577 112.349 161.596C112.228 161.364 111.786 161.774 111.779 161.311C112.549 160.916 113.4 161.026 114.212 160.954C120.283 160.419 126.372 160.559 132.456 160.483C135.236 160.449 137.994 159.973 140.748 159.583C141.286 159.507 141.821 159.351 142.375 159.447C142.559 159.499 142.719 159.583 142.805 159.766Z" fill="#323333"/>
<path d="M77.9312 134.024C79.0718 133.692 80.2567 133.629 81.4245 133.477C84.4652 133.08 87.5231 132.929 90.591 133.024C93.3676 133.11 96.12 133.443 98.8738 133.794C102.096 134.206 105.319 134.567 108.581 134.532C111.896 134.496 115.214 134.41 118.527 134.613C118.713 134.624 118.913 134.599 119.057 134.764C119.063 134.866 119.026 134.969 118.931 134.992C117.744 135.266 116.553 135.422 115.351 135.074C115.324 134.749 115.577 134.846 115.734 134.839C116.033 134.824 116.336 134.827 116.634 134.814C114.482 135.03 112.325 134.929 110.169 134.987C105.926 135.102 101.732 134.624 97.5391 134.066C94.5968 133.673 91.6388 133.369 88.6695 133.433C85.9028 133.493 83.1261 133.567 80.3866 134.053C79.8027 134.093 79.236 134.286 78.6421 134.243C78.3894 134.22 78.1182 134.26 77.9312 134.024Z" fill="#828687"/>
<path d="M83.7988 160.607C84.0572 160.314 84.4184 160.519 84.7153 160.417C85.4405 160.057 86.2114 160.207 86.9538 160.267C90.3614 160.547 93.7734 160.77 97.1753 161.112C99.5908 161.353 102.012 161.35 104.43 161.443C105.535 161.486 106.659 161.37 107.775 161.369C108.131 161.369 108.489 161.354 108.84 161.432C109.051 161.503 109.277 161.553 109.408 161.762C107.206 161.996 104.997 161.996 102.787 161.95C97.408 161.837 92.066 161.183 86.704 160.827C85.8046 160.767 84.9009 160.752 84.0001 160.714C83.9216 160.702 83.8459 160.68 83.7988 160.607Z" fill="#292A2A"/>
<path d="M46.2589 158.298C46.1847 158.434 46.0476 158.454 45.9148 158.481C45.6964 158.532 45.478 158.557 45.2624 158.464C38.9925 157.437 32.7839 156.188 27.065 153.247C25.6688 152.53 24.3426 151.691 23.2505 150.54C22.7637 150.027 22.284 149.498 22.1227 148.771C22.0499 148.611 22.0313 148.47 22.2526 148.418C22.3725 148.454 22.4653 148.531 22.521 148.638C23.5246 150.57 25.2363 151.718 27.0736 152.708C31.2664 154.968 35.8104 156.171 40.4415 157.104C42.1203 157.442 43.8034 157.754 45.5023 157.975C45.7849 158.012 46.0776 158.025 46.2589 158.298Z" fill="#282929"/>
<path d="M27.9801 143.16C30.1586 142.354 32.4199 141.816 34.627 141.103C38.2773 139.923 41.9248 138.733 45.5751 137.549C45.7307 137.499 45.8963 137.481 46.0576 137.449C46.2132 137.401 46.3674 137.353 46.4388 137.57C46.3346 137.901 46.0234 137.939 45.7621 138.019C41.0525 139.477 36.4286 141.204 31.6747 142.526C30.5369 142.841 29.4391 143.304 28.2571 143.467C28.1043 143.419 27.933 143.387 27.9801 143.16Z" fill="#292A2B"/>
<path d="M115.33 135.019C116.576 135.001 117.836 135.179 119.056 134.761C122.692 134.993 126.329 135.219 129.948 135.664C130.439 135.724 130.937 135.736 131.431 135.77C131.764 135.926 132.144 135.72 132.474 135.9C132.505 135.94 132.541 135.944 132.579 135.911C133.002 136.094 133.477 135.827 133.894 136.063L133.877 136.059C133.938 136.129 133.937 136.196 133.873 136.263C133.753 136.381 133.606 136.446 133.443 136.483C132.321 136.541 131.227 136.263 130.115 136.186C128.79 136.094 127.481 135.843 126.152 135.776C125.149 135.629 124.132 135.696 123.123 135.551C121.074 135.257 119.007 135.394 116.947 135.387C115.955 135.384 114.968 135.599 113.972 135.527C113.204 135.519 112.437 135.549 111.672 135.607C111.292 135.414 110.778 135.691 110.467 135.264C110.567 135.03 110.786 134.981 110.994 134.986C112.332 135.011 113.667 134.873 115.004 134.906C115.123 134.911 115.233 134.946 115.33 135.019Z" fill="#262828"/>
<path d="M161.656 138.87C162.492 139.006 163.328 139.137 164.162 139.284C164.266 139.303 164.353 139.409 164.449 139.474C164.492 139.556 164.476 139.624 164.4 139.679C163.474 139.863 162.621 139.479 161.736 139.33C161.469 139.216 161.19 139.233 160.91 139.249C158.881 139.003 156.85 138.802 154.814 138.639C152.567 138.459 150.317 138.319 148.071 138.116C146.937 138.013 145.799 137.953 144.667 137.812C144.477 137.787 144.288 137.756 144.168 137.58C144.273 137.152 144.67 137.419 144.894 137.276C145.132 137.266 145.373 137.204 145.605 137.319C147.002 137.593 148.427 137.606 149.839 137.716C153.385 137.992 156.938 138.183 160.466 138.662C160.606 138.68 160.741 138.72 160.88 138.75C161.118 138.917 161.408 138.762 161.656 138.87Z" fill="#2B2C2D"/>
<path d="M164.443 139.627C164.444 139.576 164.446 139.526 164.449 139.474C164.707 139.434 164.963 139.414 165.224 139.473C168.519 140.213 171.754 141.129 174.75 142.733C175.989 143.396 177.18 144.136 178.071 145.259C178.305 145.554 178.547 145.852 178.599 146.247C178.633 146.393 178.7 146.546 178.506 146.636C178.376 146.629 178.275 146.559 178.221 146.453C177.176 144.367 175.18 143.462 173.241 142.542C170.619 141.299 167.835 140.516 164.991 139.952C164.781 139.909 164.489 139.963 164.443 139.627Z" fill="#292A2A"/>
<path d="M46.4017 137.61C46.3231 137.479 46.1875 137.469 46.0576 137.449C48.0677 136.792 50.1391 136.417 52.2334 136.189C53.9978 135.996 55.7709 135.879 57.5397 135.727C57.8323 135.62 58.1521 135.757 58.4419 135.629C58.6161 135.622 58.7903 135.614 58.9658 135.607C59.327 135.479 59.6996 135.566 60.0679 135.552C60.402 135.723 60.8403 135.427 61.1329 135.786C61.043 136.08 60.7832 136.086 60.5533 136.094C58.3249 136.18 56.1078 136.41 53.8822 136.552C51.7223 136.689 49.5995 137.096 47.4923 137.589C47.1369 137.673 46.77 137.88 46.4017 137.61Z" fill="#2F3030"/>
<path d="M61.1328 135.771C60.8002 135.653 60.4119 135.896 60.105 135.613C61.4855 135.294 62.9016 135.327 64.3007 135.201C66.8403 135.096 69.3586 134.733 71.8911 134.547C73.0717 134.46 74.2466 134.263 75.4373 134.316C75.6757 134.296 75.9426 134.114 76.1254 134.43C75.9897 134.797 75.6671 134.784 75.3616 134.808C74.6421 134.848 73.914 134.717 73.2017 134.911C69.6198 135.308 66.0266 135.593 62.4391 135.934C61.998 135.977 61.5354 136.077 61.1328 135.771Z" fill="#191A1A"/>
<path d="M76.0923 134.485C75.9195 134.25 75.6583 134.36 75.437 134.315C76.2536 134.095 77.1044 134.16 77.931 134.023C78.7519 133.975 79.5713 133.93 80.3922 133.883C80.8019 133.747 81.2387 133.907 81.6484 133.773C82.1581 133.725 82.6806 133.821 83.176 133.624C85.2645 133.507 87.3545 133.538 89.4431 133.533C90.5123 133.53 91.5716 133.708 92.6423 133.71C92.9706 133.71 93.3047 133.78 93.5945 133.97C93.6759 134.038 93.6858 134.117 93.6259 134.205C93.219 134.504 92.7451 134.414 92.3168 134.348C91.7715 134.264 91.2304 134.243 90.6865 134.255C89.1661 134.29 87.6557 134.041 86.1353 134.101C85.7799 134.115 85.4216 134.074 85.0761 134.197C83.8326 134.308 82.5835 134.254 81.3344 134.355C79.8825 134.473 78.4207 134.501 76.9688 134.65C76.6647 134.681 76.3492 134.724 76.0923 134.485Z" fill="#1E2020"/>
<path d="M178.443 146.603C178.572 146.518 178.583 146.381 178.598 146.247C179.002 147.18 178.718 148.014 178.188 148.786C177.587 149.66 176.762 150.301 175.892 150.891C173.864 152.27 171.634 153.27 169.44 154.336C169.258 154.45 169.051 154.507 168.856 154.589C168.766 154.624 168.675 154.66 168.585 154.696C168.473 154.603 168.368 154.507 168.413 154.339C168.903 153.861 169.568 153.714 170.159 153.434C172.279 152.431 174.399 151.433 176.278 149.997C177.339 149.186 178.276 148.308 178.299 146.837C178.302 146.741 178.366 146.664 178.443 146.603Z" fill="#2B2C2C"/>
<path d="M167.605 155.031C165.135 156.113 162.543 156.794 159.909 157.316C158.196 157.654 156.463 157.894 154.738 158.178C154.558 158.271 154.37 158.228 154.183 158.217C154.047 158.156 153.869 158.141 153.859 157.936C153.982 157.714 154.204 157.711 154.414 157.686C158.658 157.147 162.843 156.351 166.861 154.83C166.973 154.788 167.091 154.771 167.211 154.778C167.381 154.804 167.518 154.878 167.605 155.031Z" fill="#2B2C2D"/>
<path d="M153.829 157.993C153.956 158.027 154.096 158.039 154.172 158.173C154.076 158.256 153.946 158.237 153.84 158.293L153.789 158.27L153.743 158.305C153.411 158.485 153.031 158.287 152.695 158.436C149.616 158.733 146.567 159.243 143.508 159.687C143.275 159.722 143.041 159.742 142.807 159.769C142.684 159.729 142.541 159.726 142.467 159.592C142.677 159.269 143.029 159.266 143.35 159.212C146.537 158.682 149.743 158.295 152.942 157.853C153.247 157.81 153.561 157.776 153.829 157.993Z" fill="#222323"/>
<path d="M144.892 137.33C144.677 137.57 144.375 137.414 144.126 137.497C143.787 137.754 143.402 137.681 143.031 137.636C140.138 137.277 137.243 136.958 134.342 136.677C134.06 136.65 133.763 136.647 133.617 136.333C133.69 136.203 133.82 136.184 133.948 136.163C134.218 136.091 134.488 136.087 134.756 136.166C137.502 136.463 140.247 136.76 142.992 137.057C143.617 137.191 144.293 137.001 144.892 137.33Z" fill="#242526"/>
<path d="M22.274 148.459C22.1512 148.529 22.147 148.655 22.1227 148.772C21.6701 147.669 22.0056 146.73 22.7751 145.92C23.8601 144.777 25.2462 144.129 26.7067 143.617C26.8194 143.676 27.0079 143.623 27.0207 143.83C26.9051 144.109 26.6267 144.147 26.3969 144.259C25.5018 144.695 24.5824 145.083 23.783 145.696C23.0135 146.286 22.4696 146.993 22.4482 148.01C22.4453 148.177 22.4211 148.345 22.274 148.459Z" fill="#363737"/>
<path d="M83.7987 160.607C83.8658 160.643 83.9329 160.68 84 160.716C82.127 160.766 80.264 160.546 78.3981 160.484C76.9292 160.436 75.463 160.303 73.9926 160.306C73.7414 160.306 73.4644 160.392 73.2417 160.186C76.5066 160.22 79.7643 160.427 83.0221 160.6C83.2805 160.613 83.5403 160.606 83.7987 160.607Z" fill="#EFFAFE"/>
<path d="M109.408 161.763C109.238 161.72 109.034 161.768 108.921 161.578C109.828 160.993 110.776 161.173 111.728 161.422C111.932 161.492 112.186 161.383 112.349 161.598C111.377 161.775 110.392 161.752 109.408 161.763Z" fill="#252626"/>
<path d="M64.3007 135.202C62.9016 135.339 61.5026 135.476 60.105 135.613C59.7253 135.612 59.3455 135.609 58.9644 135.607C59.5754 135.273 60.262 135.454 60.9044 135.379C62.0237 135.244 63.16 135.069 64.3007 135.202Z" fill="#EFFAFE"/>
<path d="M167.605 155.031C167.488 155.016 167.371 155 167.303 154.884C167.524 154.364 167.948 154.348 168.415 154.44C168.529 154.487 168.576 154.58 168.586 154.697C168.259 154.808 167.932 154.92 167.605 155.031Z" fill="#232424"/>
<path d="M144.892 137.33C144.258 137.238 143.625 137.147 142.991 137.057C143.876 136.998 144.748 137.081 145.603 137.32C145.366 137.321 145.129 137.325 144.892 137.33Z" fill="#EFFAFE"/>
<path d="M27.0392 143.776C26.9164 143.75 26.7837 143.743 26.708 143.619C26.9507 143.421 27.2405 143.35 27.5417 143.311C27.7002 143.223 27.8258 143.231 27.8872 143.429C27.703 143.786 27.4104 143.88 27.0392 143.776Z" fill="#292A2B"/>
<path d="M133.894 136.063C133.45 136.063 133.007 136.043 132.579 135.911C133.017 135.953 133.487 135.736 133.894 136.063Z" fill="#EFFAFE"/>
<path d="M152.694 158.433C153.031 158.294 153.386 158.3 153.742 158.301C153.422 158.583 153.046 158.416 152.694 158.433Z" fill="#EFFAFE"/>
<path d="M132.474 135.901C132.12 135.914 131.769 135.901 131.432 135.771C131.781 135.793 132.155 135.623 132.474 135.901Z" fill="#EFFAFE"/>
<path d="M27.846 143.474C27.7875 143.338 27.6604 143.331 27.5405 143.313C27.6619 143.19 27.8132 143.153 27.9802 143.161C28.0445 143.298 28.1744 143.313 28.3014 143.334C28.2229 143.618 28.0473 143.587 27.846 143.474Z" fill="#363737"/>
<path d="M134.755 136.164C134.485 136.163 134.215 136.162 133.947 136.162C133.914 136.134 133.891 136.1 133.877 136.06C134.174 136.063 134.484 135.943 134.755 136.164Z" fill="#EFFAFE"/>
<path d="M153.839 158.292C153.949 158.252 154.06 158.212 154.17 158.172C154.36 158.175 154.548 158.176 154.738 158.179C154.464 158.416 154.143 158.283 153.839 158.292Z" fill="#EFFAFE"/>
<path d="M58.4403 135.628C58.1491 135.747 57.8436 135.743 57.5381 135.727C57.8193 135.516 58.1377 135.634 58.4403 135.628Z" fill="#EFFAFE"/>
<path d="M161.656 138.87C161.391 138.874 161.107 138.99 160.88 138.75C161.147 138.736 161.414 138.727 161.656 138.87Z" fill="#414242"/>
<path d="M45.2622 158.465C45.4792 158.47 45.6976 158.476 45.9146 158.482C45.946 158.513 45.9774 158.546 46.0074 158.58C45.7533 158.576 45.4821 158.683 45.2622 158.465Z" fill="#EFFAFE"/>
<path d="M168.857 154.59C169.035 154.47 169.215 154.349 169.441 154.337C169.315 154.58 169.101 154.619 168.857 154.59Z" fill="#EFFAFE"/>
<path d="M27.846 143.475C28.0187 143.497 28.1715 143.455 28.3 143.333C32.7483 142.065 37.161 140.68 41.5394 139.186C43.1511 138.636 44.78 138.135 46.4003 137.61C48.6688 137.107 50.9358 136.583 53.2584 136.395C55.6011 136.205 57.9481 136.056 60.2922 135.887C60.5734 135.867 60.8646 135.902 61.1316 135.772C64.7006 135.572 68.2524 135.177 71.8114 134.85C72.2825 134.807 72.755 134.773 73.2261 134.735C73.426 134.689 73.6315 134.607 73.8243 134.82C73.6458 135.136 73.3118 135.137 73.0305 135.219C70.7664 135.877 68.4266 136.135 66.1067 136.496C63.6927 136.872 61.2886 137.309 58.8803 137.716C56.6989 138.085 54.5361 138.509 52.4476 139.252C50.9814 139.773 49.6352 140.527 48.4261 141.509C47.9207 141.92 47.5781 142.469 47.3068 143.055C46.92 143.886 47.1084 144.632 47.7109 145.283C48.5274 146.166 49.6038 146.635 50.6988 147.03C53.5682 148.069 56.5605 148.6 59.5541 149.13C62.662 149.679 65.7984 150.012 68.9305 150.353C70.4794 150.522 72.0469 150.615 73.6087 150.71C77.88 150.972 82.1556 150.903 86.427 151.015C88.5569 151.07 90.6969 151.043 92.824 151.262C95.3922 151.525 97.9619 151.773 100.529 152.06C103.831 152.43 107.147 152.519 110.478 152.303C112.822 152.152 115.147 151.835 117.487 151.656C119.567 151.497 121.65 151.387 123.728 151.226C125.252 151.107 126.768 151.193 128.284 151.112C130.958 150.969 133.629 150.839 136.29 150.469C139.006 150.092 141.666 149.503 144.261 148.653C146.176 148.026 148.09 147.357 149.722 146.1C151.112 145.027 151.194 143.783 149.927 142.57C149.336 142.005 148.64 141.595 147.895 141.273C143.7 139.467 139.276 138.5 134.815 137.64C132.16 137.127 129.462 136.852 126.842 136.156C126.596 136.09 126.309 136.105 126.151 135.845C126.125 135.759 126.14 135.682 126.192 135.61C128.348 135.719 130.481 136.049 132.627 136.26C132.956 136.293 133.286 136.309 133.616 136.332C135.683 136.573 137.75 136.823 139.819 137.055C141.252 137.215 142.69 137.35 144.124 137.497C146.143 137.807 148.18 137.927 150.213 138.077C153.81 138.342 157.408 138.599 160.988 139.055C161.222 139.187 161.501 139.037 161.735 139.169C162.637 139.322 163.539 139.475 164.442 139.627C167.103 140.217 169.747 140.869 172.275 141.92C173.504 142.432 174.705 143 175.824 143.727C176.947 144.457 177.984 145.269 178.443 146.603C178.616 147.977 177.854 148.902 176.909 149.716C175.421 150.999 173.692 151.902 171.945 152.766C170.777 153.343 169.591 153.883 168.413 154.44C168.042 154.589 167.672 154.736 167.301 154.885C163.665 156.24 159.915 157.133 156.075 157.657C155.324 157.76 154.576 157.88 153.828 157.992C151.378 158.199 148.957 158.612 146.524 158.947C145.166 159.135 143.817 159.373 142.464 159.589C140.582 159.832 138.699 160.066 136.819 160.319C133.61 160.75 130.382 160.819 127.153 160.775C122.114 160.705 117.087 160.907 112.069 161.342C111.954 161.352 111.841 161.395 111.727 161.422C110.789 161.44 109.849 161.425 108.92 161.577C106.614 161.59 104.312 161.697 102.003 161.616C98.2931 161.485 94.6042 161.079 90.9053 160.816C88.8439 160.669 86.7882 160.402 84.7153 160.419C82.7824 160.156 80.8308 160.146 78.8879 160.072C73.2632 159.856 67.6371 159.7 62.011 159.525C57.0958 159.37 52.1935 159.066 47.3183 158.395C46.9671 158.346 46.6116 158.332 46.2576 158.3C43.0255 157.799 39.7977 157.28 36.6299 156.449C32.4442 155.35 28.3499 154.022 24.7695 151.48C23.6717 150.7 22.7309 149.777 22.2727 148.46C22.1057 147.217 22.6867 146.335 23.6161 145.6C24.6482 144.785 25.8702 144.335 27.0365 143.776C27.3078 143.676 27.5776 143.575 27.846 143.475Z" fill="#EFFAFE"/>
<path d="M81.6388 133.87C81.2234 133.874 80.808 133.88 80.3911 133.884C82.3569 133.577 84.3341 133.409 86.3213 133.291C89.5576 133.1 92.774 133.313 95.9861 133.651C98.0118 133.864 100.028 134.166 102.052 134.391C104.914 134.71 107.779 134.81 110.656 134.771C112.839 134.741 115.023 134.766 117.207 134.807C116.59 134.989 115.937 134.77 115.33 135.02C113.704 135.119 112.072 135.106 110.453 135.306C109.935 135.72 109.324 135.446 108.762 135.53C107.026 135.59 105.294 135.456 103.561 135.403C101.057 135.101 98.5443 134.861 96.0474 134.491C95.7819 134.41 95.5093 134.366 95.2294 134.374C95.0724 134.37 94.9154 134.354 94.7626 134.317C94.4057 134.159 93.966 134.35 93.6434 134.053C90.1358 133.674 86.6182 133.659 83.0978 133.779C82.6181 133.91 82.1199 133.746 81.6388 133.87Z" fill="#EDF8FC"/>
<path d="M126.159 135.799C129.003 136.564 131.934 136.87 134.818 137.433C139.226 138.294 143.616 139.206 147.76 141.009C148.724 141.427 149.65 141.914 150.373 142.706C151.285 143.704 151.285 144.75 150.366 145.753C149.576 146.613 148.568 147.152 147.519 147.613C143.724 149.279 139.742 150.237 135.644 150.764C132.409 151.18 129.156 151.274 125.9 151.344C121.451 151.44 117.024 151.856 112.605 152.339C108.352 152.803 104.105 152.729 99.8676 152.176C93.5819 151.356 87.262 151.234 80.935 151.166C72.004 151.07 63.1415 150.254 54.4047 148.319C52.5503 147.909 50.7101 147.416 49.0184 146.502C46.3588 145.064 46.1647 143.113 48.5088 141.204C50.7115 139.41 53.3383 138.594 56.0578 138.047C60.5976 137.133 65.1701 136.402 69.7527 135.733C71.0946 135.537 72.3851 135.136 73.7856 134.823C73.5458 134.786 73.3859 134.76 73.226 134.736C73.9298 134.487 74.6564 134.63 75.3745 134.612C75.3317 135.03 74.9834 134.854 74.7664 134.912C74.4937 134.983 74.2182 135.056 74.0283 135.062C77.7543 134.353 81.6259 134.254 85.4932 134.109C85.5903 134.143 85.5104 133.977 85.5089 134.073C85.5089 134.103 85.4918 134.122 85.459 134.116C85.3248 134.094 85.1692 134.154 85.0664 134.012C86.0757 133.792 87.0978 133.887 88.1129 133.923C89.9602 133.987 91.8046 134.097 93.6505 134.189C93.6876 134.189 93.7247 134.187 93.7618 134.187C94.0645 134.196 94.3671 134.16 94.6683 134.222C95.966 134.439 97.2723 134.573 98.5742 134.756C100.062 134.964 101.559 135.087 103.048 135.287C103.025 135.81 102.543 135.596 102.295 135.76C100.533 135.703 98.7969 135.413 97.0538 135.184C93.2764 134.689 89.4819 134.419 85.6774 134.567C82.2598 134.7 78.8535 135.046 75.4559 135.452C73.5658 135.677 71.6828 135.922 69.8198 136.307C69.4614 136.264 69.1031 136.19 68.7477 136.334C64.7147 137.012 60.6704 137.617 56.656 138.417C54.2791 138.89 51.9992 139.576 49.8978 140.803C49.1483 141.24 48.5031 141.799 47.9477 142.456C47.1597 143.387 47.2139 144.312 48.0634 145.187C48.6044 145.746 49.2625 146.109 49.9692 146.413C52.9486 147.692 56.1178 148.257 59.2785 148.81C63.1901 149.493 67.1359 149.962 71.0975 150.264C74.5094 150.526 77.9256 150.69 81.3504 150.686C84.3412 150.682 87.3334 150.772 90.3228 150.853C93.6947 150.946 97.051 151.354 100.402 151.756C102.48 152.006 104.57 152.2 106.654 152.184C109.43 152.163 112.202 151.933 114.967 151.617C117.844 151.287 120.73 151.052 123.631 150.943C129.063 150.74 134.525 150.809 139.871 149.556C142.774 148.876 145.627 148.064 148.288 146.679C148.862 146.38 149.399 146.037 149.847 145.564C150.812 144.549 150.74 143.499 149.62 142.646C148.588 141.86 147.428 141.304 146.223 140.854C142.892 139.613 139.447 138.777 135.96 138.122C134.278 137.806 132.596 137.48 130.909 137.189C130.461 137.03 129.99 137.13 129.531 137.079C126.287 136.436 123.016 136.062 119.707 135.966C117.545 135.903 115.385 135.936 113.231 136.009C110.976 136.086 108.721 136.116 106.466 136.114C106.112 136.114 105.686 136.227 105.471 135.777C106.036 135.38 106.699 135.53 107.315 135.486C108.233 135.42 109.158 135.494 110.078 135.453C110.298 135.382 110.525 135.407 110.75 135.4C110.974 135.427 111.194 135.499 111.425 135.466C111.487 135.459 111.547 135.444 111.607 135.424C112.388 135.386 113.166 135.269 113.949 135.354C115.298 135.51 116.646 135.312 117.995 135.314C120.251 135.319 122.495 135.403 124.729 135.724C124.996 135.763 125.247 135.686 125.506 135.664C125.74 135.643 125.978 135.574 126.159 135.799Z" fill="#6D797E"/>
<path d="M126.159 135.799C122.313 135.797 118.483 135.252 114.63 135.475C114.405 135.487 114.152 135.52 113.948 135.353C116.999 135.217 120.054 135.046 123.099 135.36C124.129 135.467 125.169 135.432 126.192 135.609C126.181 135.673 126.171 135.736 126.159 135.799Z" fill="#C6D7DD"/>
<path d="M110.943 135.491C110.699 135.488 110.455 135.487 110.21 135.484C109.731 135.493 109.227 135.738 108.787 135.343C109.342 135.33 109.898 135.317 110.453 135.304C110.829 135.43 111.238 135.218 111.605 135.424L111.595 135.464L111.629 135.488C111.401 135.567 111.171 135.564 110.943 135.491Z" fill="#0D0E0E"/>
<path d="M161.735 139.168C161.477 139.191 161.23 139.147 160.988 139.054C161.245 139.043 161.514 138.948 161.735 139.168Z" fill="#414242"/>
<path d="M85.0664 134.012C85.3462 134.04 85.6246 134.067 85.9044 134.096C81.7501 134.27 77.6201 134.689 73.4858 135.109C74.1154 134.943 74.7464 134.777 75.376 134.61C75.6144 134.569 75.8542 134.527 76.0926 134.486C79.082 134.283 82.0699 134.067 85.0664 134.012Z" fill="#D2E5EC"/>
<path d="M81.6387 133.87C82.1141 133.669 82.6066 133.747 83.0977 133.777C82.6194 133.93 82.1298 133.916 81.6387 133.87Z" fill="#828687"/>
<path d="M93.643 134.051C94.0385 134.02 94.4325 133.994 94.8065 134.17C94.7151 134.283 94.5881 134.247 94.4696 134.256C94.1941 134.223 93.9071 134.33 93.6416 134.183L93.6502 134.19C93.6516 134.143 93.6487 134.097 93.643 134.051Z" fill="#6D797E"/>
<path d="M108.787 135.343C109.239 135.626 109.74 135.4 110.211 135.485C109.987 135.673 109.717 135.603 109.465 135.599C108.129 135.577 106.799 135.67 105.468 135.779C104.408 136.147 103.377 136.009 102.362 135.592C102.542 135.369 102.876 135.586 103.051 135.35C103.156 135.177 103.374 135.327 103.492 135.195C105.258 135.245 107.023 135.293 108.787 135.343Z" fill="#474E51"/>
<path d="M103.493 135.194C103.386 135.361 103.204 135.31 103.052 135.35C100.602 135.21 98.1813 134.828 95.7544 134.497C95.3347 134.44 94.9007 134.49 94.501 134.306C94.501 134.278 94.501 134.251 94.501 134.223C94.6023 134.206 94.7051 134.187 94.8065 134.17C94.9421 134.183 95.0763 134.196 95.2119 134.208C95.4489 134.327 95.7159 134.198 95.9543 134.304C98.4668 134.6 100.979 134.897 103.493 135.194Z" fill="#232627"/>
<path d="M95.9533 134.303C95.6949 134.353 95.4436 134.35 95.2109 134.207C95.4679 134.167 95.722 134.153 95.9533 134.303Z" fill="#6D797E"/>
<path d="M130.908 137.023C136.645 138.002 142.385 138.965 147.775 141.312C148.54 141.645 149.266 142.057 149.897 142.607C151.031 143.595 151.068 144.69 149.99 145.73C148.795 146.882 147.271 147.462 145.759 148.032C141.683 149.57 137.452 150.399 133.116 150.742C129.536 151.024 125.945 151.014 122.361 151.189C119.583 151.323 116.817 151.607 114.054 151.916C109.886 152.382 105.721 152.533 101.536 152.067C96.577 151.514 91.6176 150.98 86.6125 150.979C82.6923 150.977 78.7665 150.909 74.8534 150.702C67.3715 150.306 59.9394 149.479 52.6673 147.576C51.2868 147.215 49.9335 146.747 48.7129 145.986C46.8042 144.793 46.6458 143.37 48.2561 141.813C49.9135 140.21 51.9935 139.38 54.162 138.799C57.6525 137.863 61.2357 137.374 64.7961 136.782C66.1309 136.56 67.47 136.362 68.8076 136.153C69.1017 136.549 68.6806 136.59 68.5078 136.669C68.0096 136.896 67.5199 137.129 67.0631 137.436C65.6155 138.413 65.6812 139.659 67.2187 140.52C68.308 141.13 69.4829 141.525 70.6777 141.827C73.2103 142.47 75.8014 142.736 78.3967 143.017C80.875 143.286 83.3661 143.283 85.8416 143.54C86.1485 143.572 86.4597 143.556 86.7681 143.555C89.6418 143.546 92.4941 143.819 95.3521 144.085C97.8062 144.313 100.244 144.679 102.704 144.862C103.932 144.953 105.165 145.177 106.389 145.1C108.562 144.963 110.74 144.95 112.907 144.615C116.56 144.05 120.212 143.459 123.884 143.022C126.098 142.759 128.309 142.512 130.482 141.995C131.297 141.8 132.084 141.529 132.812 141.127C134.081 140.427 134.128 139.353 132.96 138.506C132.398 138.099 131.744 137.859 131.153 137.507C130.989 137.412 130.634 137.357 130.908 137.023Z" fill="#E3F7FE"/>
<path d="M102.363 135.592C103.4 135.644 104.428 135.833 105.47 135.779C105.901 135.963 106.358 135.889 106.803 135.897C110.433 135.959 114.057 135.673 117.684 135.686C120.766 135.697 123.843 135.903 126.893 136.393C127.804 136.539 128.731 136.597 129.61 136.91C130.878 137.126 131.969 137.76 133.016 138.439C134.226 139.222 134.188 140.319 132.984 141.094C131.924 141.777 130.709 142.029 129.505 142.299C127.35 142.782 125.148 142.942 122.968 143.244C119.941 143.664 116.92 144.114 113.9 144.572C112.007 144.859 110.095 145.032 108.174 145.123C104.717 145.287 101.321 144.8 97.9078 144.42C94.7057 144.064 91.4993 143.766 88.273 143.659C84.8867 143.547 81.5019 143.423 78.1257 143.069C75.3405 142.777 72.571 142.45 69.8714 141.682C68.9092 141.407 67.9856 141.03 67.119 140.53C65.5858 139.646 65.5458 138.312 67.0405 137.376C67.8599 136.863 68.6936 136.353 69.6701 136.172C72.4296 135.41 75.2819 135.274 78.1029 134.95C81.9045 134.514 85.7219 134.239 89.5535 134.356C92.4729 134.444 95.3766 134.737 98.2704 135.133C99.628 135.319 100.997 135.44 102.363 135.592Z" fill="#DAF4FE"/>
<path d="M69.667 136.171C68.8661 136.623 67.9667 136.877 67.2044 137.411C66.8304 137.673 66.4692 137.946 66.2365 138.338C65.8667 138.961 66.048 139.634 66.7518 140.131C68.0324 141.038 69.4942 141.531 71.0061 141.873C74.388 142.636 77.8185 143.008 81.2775 143.198C83.219 143.306 85.1606 143.401 87.1035 143.488C90.4869 143.64 93.8674 143.833 97.2351 144.26C101.02 144.74 104.816 145.23 108.649 145.003C110.54 144.89 112.42 144.673 114.295 144.376C116.773 143.981 119.264 143.674 121.745 143.3C124.902 142.823 128.111 142.67 131.196 141.754C131.91 141.543 132.581 141.247 133.179 140.81C133.955 140.243 134.013 139.494 133.31 138.821C132.448 137.997 131.333 137.62 130.257 137.184C130.04 137.096 129.825 137.001 129.61 136.91C130.044 136.934 130.494 136.781 130.909 137.023C130.9 137.351 131.209 137.311 131.38 137.398C132.058 137.743 132.766 138.031 133.343 138.544C134.329 139.42 134.281 140.407 133.183 141.133C131.844 142.018 130.289 142.326 128.75 142.586C124.735 143.264 120.67 143.597 116.655 144.288C113.432 144.843 110.18 145.237 106.903 145.3C104.761 145.341 102.639 145.088 100.519 144.86C98.3757 144.628 96.2343 144.388 94.0901 144.16C90.4255 143.768 86.7423 143.826 83.0734 143.593C78.9377 143.331 74.7963 143.064 70.7519 142.054C69.5299 141.75 68.3336 141.357 67.2201 140.75C66.926 140.588 66.6562 140.401 66.4149 140.167C65.5741 139.353 65.5741 138.423 66.4578 137.651C66.996 137.181 67.6141 136.828 68.2808 136.553C68.4735 136.473 68.7961 136.497 68.8076 136.153C69.0959 136.006 69.3843 135.958 69.667 136.171Z" fill="#97ACB5"/>
<path d="M94.5015 134.222C94.5029 134.249 94.5029 134.277 94.5015 134.304C94.2117 134.286 93.899 134.427 93.6406 134.182C93.9276 134.196 94.2145 134.209 94.5015 134.222Z" fill="#191C1C"/>
<path d="M110.943 135.491C111.171 135.49 111.4 135.49 111.63 135.489C111.401 135.616 111.173 135.624 110.943 135.491Z" fill="#EDF8FC"/>
</svg>
