<svg width="257" height="257" viewBox="0 0 257 257" fill="none" xmlns="http://www.w3.org/2000/svg">
<path d="M203.399 102.216C207.092 104.239 210.794 107.301 211.987 111.509C212.007 111.577 212.022 111.647 212.037 111.717L211.299 111.483C209.958 109.943 208.613 108.375 207.177 106.925C206.21 105.95 204.898 105.013 204.102 103.905C203.755 103.421 203.575 102.779 203.399 102.216Z" fill="#FE9B53"/>
<path d="M208.6 116.656C209.976 116.033 211.469 116.17 212.943 116.18C215.669 116.355 219.367 117.168 221.428 119.097C223.549 120.143 224.96 121.898 225.711 124.113C226.303 125.861 226.363 127.472 226.218 129.293L225.309 128.768C224.804 125.611 223.22 123.312 220.923 121.192C219.229 119.707 217.504 118.727 215.491 117.747C213.249 117.12 211.487 116.961 209.198 117.271L208.6 116.656Z" fill="#FE9B53"/>
<path d="M220.924 121.191C223.221 123.312 224.805 125.611 225.309 128.767C223.911 130.686 221.792 131.904 219.684 132.923C219.081 132.954 219.021 132.922 218.564 133.305C218.476 131.597 217.188 130.157 217.693 128.522L216.859 128.182C217.582 127.738 218.356 127.179 218.971 126.587C220.562 125.054 220.899 123.314 220.924 121.191Z" fill="#FEAC42"/>
<path d="M217.693 128.522C218.572 129.088 218.973 129.415 219.189 130.467C219.357 131.292 219.475 132.106 219.684 132.923C219.081 132.954 219.021 132.922 218.564 133.305C218.476 131.597 217.188 130.157 217.693 128.522Z" fill="#FE925E"/>
<path d="M209.198 117.271C211.487 116.961 213.25 117.12 215.491 117.747C217.505 118.727 219.229 119.707 220.924 121.192C220.899 123.315 220.562 125.054 218.971 126.588C218.356 127.18 217.583 127.739 216.86 128.182C216.749 128.267 216.624 128.334 216.531 128.436C216.137 128.866 215.983 129.273 215.491 129.661C212.356 128.833 209.313 127.803 206.673 125.888C206.467 125.434 206.271 124.976 206.083 124.514C205.427 122.923 204.747 121.429 205.44 119.751C206.64 118.797 207.782 117.888 209.198 117.271Z" fill="#FEBB5D"/>
<path d="M211.593 121.388C212.687 121.46 213.456 121.735 214.374 122.346C215.115 122.84 215.78 123.545 215.84 124.489C215.886 125.238 215.394 125.82 214.969 126.378C213.654 126.34 212.502 126.318 211.374 125.567C210.817 125.195 210.383 124.681 210.33 123.983C210.25 122.907 210.94 122.141 211.593 121.388Z" fill="#FEFEFD"/>
<path d="M33.2222 116.166C31.9444 114.38 30.9528 112.228 30.5662 110.067C30.2344 108.213 30.2741 106.312 30.6831 104.473C31.092 102.635 31.8621 100.896 32.9485 99.3573C35.6773 95.4304 39.9223 93.2235 44.5715 92.4586C48.2316 91.8559 52.3209 91.7542 55.4312 94.0851C59.9574 97.4813 61.4385 103.319 62.1364 108.62C61.6519 109.683 61.0143 110.808 60.6678 111.917C56.3776 116.269 52.5569 119.447 46.1279 119.454C41.0344 119.46 37.8111 117.71 33.2222 116.166Z" fill="#FE925E"/>
<path d="M52.3237 95.1726C53.5764 95.2527 54.2542 95.6476 55.0726 96.611C55.6098 97.2434 56.2323 98.1368 56.5838 98.8857C56.4131 99.5898 56.27 100.298 56.0089 100.976C55.7152 100.533 55.3161 100.138 54.9646 99.7379C54.4626 97.7761 53.6191 96.6602 52.3237 95.1726Z" fill="#FFA33A"/>
<path d="M40.5 95.6152C41.9058 94.8222 43.3593 94.052 44.9308 93.6478C47.7725 92.9176 49.9289 93.6955 52.3238 95.1731C53.6191 96.6607 54.4626 97.7766 54.9647 99.7384C55.3161 100.138 55.7153 100.533 56.009 100.976C56.27 100.299 56.4131 99.5903 56.5838 98.8862C58.2281 101.476 60.0883 104.159 59.285 107.399C58.68 109.83 56.7872 111.569 54.681 112.77C51.6485 114.501 47.3006 115.492 43.9116 114.472C43.0807 114.222 42.3928 113.758 41.6874 113.271L41.1502 112.982C40.4774 112.173 40.3996 111.204 40.2189 110.201C39.9854 110.175 39.8072 110.172 39.5862 110.061C38.8206 109.678 38.2056 108.714 37.8591 107.966C36.8901 105.869 35.3915 100.525 36.3881 98.3876C37.096 96.8684 39.0666 96.244 40.5 95.6152Z" fill="#FEAC42"/>
<path d="M40.2188 110.201C40.9543 110.052 41.3359 109.958 42.0739 110.199C42.5609 110.692 42.6714 110.824 42.6914 111.565C42.7216 112.56 42.1618 112.616 41.6873 113.271L41.1501 112.982C40.4773 112.173 40.3995 111.204 40.2188 110.201Z" fill="#FFA33A"/>
<path d="M54.9645 99.7383C55.3159 100.138 55.7151 100.533 56.0088 100.976C56.0264 103.656 55.8481 105.772 55.0172 108.325C53.2599 109.179 51.4224 110.431 49.4367 110.468L49.1154 110.425C48.4777 110.216 48.0183 109.917 47.697 109.308C47.5137 108.962 47.2703 108.234 47.0217 107.952C46.128 106.934 43.7784 107.759 42.5809 106.963C42.0939 106.287 42.1542 105.796 42.1843 105.007C42.7918 105.076 43.3189 105.117 43.934 105.068C43.9967 105.084 44.0595 105.104 44.1248 105.115C45.5582 105.373 52.3161 105.443 53.3127 104.616C54.3746 103.736 54.7436 101.057 54.9645 99.7383Z" fill="#FEBB5D"/>
<path d="M49.1155 110.425C48.9046 109.497 48.6912 108.643 49.1908 107.783C49.8485 107.666 49.8234 107.737 50.3882 108.114C50.6342 108.656 50.8074 108.981 50.5614 109.591C50.338 110.138 49.9263 110.257 49.4368 110.467L49.1155 110.425Z" fill="#DFE0C5"/>
<path d="M40.5 95.6152C41.9058 94.8222 43.3593 94.052 44.9308 93.6478C47.7725 92.9176 49.9289 93.6955 52.3238 95.1731C53.6191 96.6607 54.4626 97.7766 54.9646 99.7384C54.7437 101.057 54.3747 103.736 53.3128 104.617C52.3162 105.443 45.5583 105.373 44.1249 105.115C44.0597 105.104 43.9969 105.084 43.9341 105.068C43.3191 105.118 42.7919 105.076 42.1844 105.007L42.1317 104.565C41.9334 103.779 41.5518 103.217 41.1853 102.511C39.9879 100.213 40.0481 98.0906 40.5 95.6152Z" fill="#FDC878"/>
<path d="M42.1313 104.565L42.2343 103.669L42.7037 103.304C43.3489 103.528 43.4041 103.623 43.8309 104.165L43.9338 105.068C43.3187 105.117 42.7916 105.076 42.1841 105.007L42.1313 104.565Z" fill="#FEFEFD"/>
<path d="M46.0955 95.9334C47.2001 95.8849 48.2896 95.85 49.359 96.1902C50.4058 96.5241 51.4401 97.2548 51.8894 98.2858C52.2007 98.9998 52.1681 99.7835 51.8568 100.49C51.2091 101.958 49.8912 102.457 48.513 103.042C47.7197 103.207 46.8813 103.256 46.1106 102.969C44.7625 102.464 43.3718 101.575 42.7844 100.204C42.4831 99.5046 42.453 98.6724 42.7944 97.9791C43.4195 96.7061 44.8529 96.3207 46.0955 95.9334Z" fill="#FEFEFD"/>
<path d="M67.2725 226.446C71.5777 226.487 75.785 227.807 80.1857 227.704C86.7879 227.551 93.3098 225.798 99.9246 226.171C104.832 226.448 109.321 228.796 114.306 228.691C123.447 228.498 132.019 225.176 141.33 225.926C147.629 226.433 153.003 229.654 158.928 231.404C163.007 232.61 167.307 232.773 171.532 232.933C179.749 233.244 187.932 233.388 196.121 232.505C198.574 232.241 204.333 230.176 205.831 230.386L206.306 230.955C204.553 233.021 202.53 234.406 200.04 235.446C187.832 240.545 165.292 238.875 152.702 235.268C145.231 233.127 138.102 229.707 130.197 229.443C124.325 229.247 118.622 231.359 112.911 232.441C103.273 234.267 81.4585 235.8 72.7024 231.95C69.9485 230.738 68.382 229.195 67.2725 226.446Z" fill="#50595A"/>
<path d="M141.097 57.7247C141.037 57.9956 140.901 58.2029 140.723 58.4191C138.963 60.5677 133.041 61.8791 130.27 62.1716C127.119 62.5037 123.545 61.5435 121.135 59.4488C116.099 55.0733 112.371 42.2778 111.831 35.8179C111.472 31.5347 112.143 26.9727 115.062 23.6243C117.475 20.86 120.894 19.6773 124.453 19.401C133.98 18.6618 139.844 21.7282 146.871 27.7102C151.226 30.9671 154.791 34.5981 157.585 39.2985C151.666 42.2554 152.256 45.0751 148.43 49.6494C147.955 49.2292 147.873 49.2267 147.24 49.1348C145.405 50.1339 144.609 53.4014 143.248 55.0261L142.508 56.395L142.076 57.0791C141.755 57.2831 141.391 57.4815 141.097 57.7247Z" fill="#FE9B53"/>
<path d="M146.638 32.2351C146.474 31.1258 146.035 29.5767 146.246 28.4872C147.348 29.3379 147.689 30.9998 148.603 32.0667C147.888 33.364 148.332 39.6989 148.056 41.7735C147.416 46.5456 144.895 50.5976 143.249 55.0261L142.508 56.395L142.076 57.0791C141.755 57.2832 141.391 57.4815 141.097 57.7247C140.836 57.3886 140.447 56.9538 140.309 56.5421C139.684 54.6789 142.729 50.275 143.474 48.3955C141.692 47.7526 139.722 47.5982 137.984 46.8173C137.327 46.5218 137.121 46.3177 136.865 45.6592C139.235 46.0355 141.589 46.637 143.904 47.2598C144.577 45.3093 145.628 42.8263 145.636 40.7447C145.646 38.2552 141.464 39.2732 140.173 38.0463C140.304 37.725 140.294 37.5081 140.64 37.358C142.252 36.6556 144.732 37.4057 146.324 37.9698C146.494 36.4781 146.547 35.0118 146.575 33.5116C144.516 32.4919 142.649 31.1015 140.47 30.3376L140.593 29.3776C142.563 29.3964 145.018 31.2021 146.638 32.2351Z" fill="#F47028"/>
<path d="M146.871 27.7103C151.226 30.9673 154.791 34.5982 157.585 39.2986C151.666 42.2555 152.256 45.0752 148.43 49.6495C147.955 49.2293 147.873 49.2268 147.24 49.1349C145.405 50.134 144.609 53.4015 143.249 55.0262C144.895 50.5977 147.416 46.5457 148.056 41.7736C148.332 39.699 147.888 33.3641 148.603 32.0668C148.304 30.5664 147.378 29.1676 146.871 27.7103Z" fill="#C0D34E"/>
<path d="M119.616 26.2323C123.065 23.5528 126.793 24.1457 130.822 23.6332L131.043 23.6034C131.741 23.8426 132.464 24.0596 133.149 24.3333C135.349 24.3292 137.593 25.8129 139.134 27.3063C139.777 27.9291 140.216 28.5712 140.593 29.3778L140.47 30.3378C139.606 35.6195 138.66 40.462 136.616 45.441C135.617 48.0646 134.623 50.7012 133.147 53.1029C132.088 54.8262 130.569 56.8169 128.463 57.2304C127.303 57.4586 126.198 57.0898 125.247 56.4261C121.484 53.8038 118.66 47.3527 117.892 42.9435C117.066 40.9857 116.531 39.0693 116.142 36.9822C115.893 35.0196 115.386 32.7655 115.813 30.8172C116.315 28.5115 117.764 27.4504 119.616 26.2323Z" fill="#FEAC42"/>
<path d="M131.043 23.6034C131.741 23.8426 132.464 24.0596 133.149 24.3333C132.855 24.8175 132.7 25.173 132.188 25.4539C131.806 25.6637 131.896 25.5839 131.417 25.4571C131.008 24.7369 131.056 24.4173 131.043 23.6034Z" fill="#FEFEFD"/>
<path d="M133.22 37.2152C133.508 37.3641 133.734 37.3671 133.817 37.7158C134.176 39.1888 132.798 41.9686 132.15 43.3003C131.869 43.1627 132.047 43.2687 131.681 42.8976C131.894 40.9551 132.579 39.053 133.22 37.2152Z" fill="#FDC878"/>
<path d="M125.043 25.7663C126.929 25.7272 128.593 25.8848 130.39 26.5315C132.713 30.1597 132.841 34.2373 131.957 38.3562C131.327 41.2916 130.273 43.6119 128.247 45.8617C126.381 45.9523 124.416 46.2008 122.644 45.4834C125.342 43.7216 127.519 41.3328 128.5 38.2131C129.324 35.5868 129.316 32.3121 127.965 29.8537C126.964 28.0344 125.47 27.0873 123.52 26.5521L125.043 25.7663Z" fill="#FDC878"/>
<path d="M119.616 26.2322C119.671 26.3034 119.714 26.3858 119.782 26.446C120.412 27.0171 124.014 25.8446 125.044 25.7665L123.52 26.5522C125.47 27.0874 126.964 28.0346 127.966 29.8538C129.316 32.3122 129.324 35.587 128.5 38.2133C127.519 41.3329 125.342 43.7218 122.644 45.4835C120.512 45.0746 119.435 44.4058 117.892 42.9433C117.066 40.9855 116.531 39.0691 116.142 36.982C115.893 35.0194 115.386 32.7653 115.813 30.8171C116.315 28.5113 117.764 27.4502 119.616 26.2322Z" fill="#FEFEFD"/>
<path d="M119.616 26.2322C119.671 26.3034 119.714 26.3858 119.782 26.446C120.412 27.0171 124.014 25.8446 125.044 25.7665L123.52 26.5522C121.082 27.046 119.551 27.8654 118.163 30.0519C116.852 32.1174 116.245 34.5612 116.142 36.982C115.893 35.0194 115.386 32.7653 115.813 30.8171C116.315 28.5113 117.764 27.4502 119.616 26.2322Z" fill="#FEBB5D"/>
<path d="M164.034 107.457C164.358 106.829 164.684 106.196 165.056 105.594C167.561 101.527 172.193 98.2308 176.817 97.1049C184.958 95.1229 196.367 97.8627 203.399 102.216C203.574 102.78 203.755 103.421 204.102 103.905C204.897 105.013 206.21 105.951 207.177 106.925C208.613 108.375 209.958 109.944 211.299 111.483L212.037 111.717C212.589 113.176 212.928 114.614 212.943 116.18C211.469 116.17 209.976 116.033 208.6 116.655L209.198 117.271C207.782 117.888 206.64 118.797 205.44 119.751C204.747 121.429 205.427 122.923 206.082 124.514C206.27 124.976 206.467 125.434 206.672 125.888C209.313 127.803 212.356 128.832 215.491 129.661C215.983 129.273 216.136 128.866 216.53 128.436C216.623 128.334 216.749 128.267 216.859 128.182L217.693 128.523C217.188 130.158 218.476 131.597 218.564 133.306C219.021 132.923 219.081 132.955 219.683 132.923C221.792 131.905 223.911 130.687 225.309 128.768L226.218 129.293C225.583 130.888 224.759 132.101 223.655 133.402C218.305 135.99 214.156 137.872 208.086 136.918C206.502 136.669 204.963 136.093 203.374 135.921C202.041 135.246 200.708 134.452 199.628 133.409C197.341 131.205 196.894 128.815 196.822 125.8C195.571 126.366 194.351 126.828 193.044 127.234C190.955 126.727 188.841 126.333 186.733 125.917C184.533 125.274 182.349 124.819 180.098 124.404C178.868 124.336 176.952 124.083 175.795 124.477C176.288 126.231 176.74 127.995 177.151 129.77C173.47 129.82 170.892 129.238 167.518 127.803C166.411 126.824 165.437 125.864 164.702 124.558C161.923 119.629 162.693 112.69 164.034 107.457Z" fill="#FEAC42"/>
<path d="M206.176 112.299C206.934 112.454 207.29 112.506 207.812 113.086C207.85 113.831 207.421 114.276 207.007 114.848C206.374 114.641 206.161 114.505 205.764 113.969C205.658 113.223 205.844 112.94 206.176 112.299Z" fill="#FEFEFD"/>
<path d="M180.126 115.051C180.372 115.075 180.791 115.106 181.019 115.173C181.617 115.35 181.76 115.568 182.066 116.057C182.061 116.833 181.853 117.136 181.459 117.774C180.748 117.45 180.206 117.228 179.699 116.599C179.603 115.788 179.691 115.758 180.126 115.051Z" fill="#DFE0C5"/>
<path d="M190.588 103.275C190.533 103.174 190.473 103.075 190.423 102.971C190.019 102.131 189.986 101.588 190.297 100.718C190.902 100.301 190.92 100.321 191.658 100.368C192.378 100.779 192.529 101.059 192.89 101.77C192.182 102.474 191.64 102.866 190.709 103.227C190.669 103.242 190.629 103.259 190.588 103.275Z" fill="#DFE0C5"/>
<path d="M208.601 116.656L209.198 117.271C207.782 117.888 206.64 118.797 205.44 119.751L204.747 119.578L204.057 119.997L204.017 119.77C204.202 119.455 204.358 119.154 204.509 118.817C204.986 117.742 207.338 117.294 208.39 116.764L208.601 116.656Z" fill="#FFA33A"/>
<path d="M182.538 109.211C183.519 109.11 184.197 109.053 185.061 109.609C185.289 109.978 185.51 110.166 185.487 110.622C185.435 111.685 184.747 112.297 183.971 112.923C183.853 112.928 183.735 112.939 183.62 112.938C182.821 112.935 181.938 112.75 181.413 112.087C181.062 111.641 180.976 111.147 181.112 110.599C181.293 109.856 181.93 109.548 182.538 109.211Z" fill="#FEFEFD"/>
<path d="M165.282 108.941C166.103 108.908 167.31 108.863 167.993 109.407C168.57 109.866 168.563 110.069 168.661 110.753C168.405 111.538 168.031 111.951 167.468 112.544C166.517 112.632 165.201 112.765 164.448 112.017C164.011 111.585 163.848 111.222 163.959 110.604C164.089 109.876 164.752 109.388 165.282 108.941Z" fill="#FEFEFD"/>
<path d="M179.267 99.9749C180.406 99.9407 181.787 99.9397 182.846 100.422C183.509 100.722 184.104 101.263 184.282 101.991C184.44 102.646 184.232 103.27 183.878 103.816C182.821 105.449 181.082 105.766 179.314 106.105C178.139 106.236 176.794 106.303 175.694 105.819C174.997 105.513 174.376 104.971 174.208 104.194C174.055 103.488 174.314 102.793 174.705 102.219C175.78 100.641 177.522 100.321 179.267 99.9749Z" fill="#FEFEFD"/>
<path d="M197.123 111.315C196.061 110.561 194.841 109.917 194.136 108.801C194.093 108.097 194.046 107.931 194.538 107.36C195.863 105.815 199.649 105.161 201.614 105.016C202.734 105.505 203.881 105.963 204.336 107.197C204.614 107.951 204.496 108.762 204.112 109.45C203.479 110.586 202.237 111.409 200.992 111.725C199.626 112.072 198.404 111.827 197.123 111.315Z" fill="#FEFEFD"/>
<path d="M192.891 101.771C193.952 101.274 195.017 101.77 196.061 102.158C197.394 102.652 198.79 103.265 200.035 103.954C200.595 104.262 201.027 104.815 201.614 105.016C199.648 105.162 195.863 105.815 194.537 107.361C194.045 107.932 194.093 108.097 194.136 108.802C194.841 109.918 196.061 110.562 197.123 111.315C197.018 111.32 196.915 111.339 196.812 111.331C195.803 111.26 194.54 110.284 193.947 109.496C193.598 109.031 193.463 108.466 193.659 107.904C194.176 106.432 196.626 105.504 197.959 105.105C198.687 104.887 199.38 104.78 200.133 104.741L200.299 104.491C198.991 103.76 197.663 103.181 196.232 102.752C195.835 102.633 195.486 102.464 195.11 102.293C194.349 101.948 193.95 101.839 193.157 102.174C191.884 102.714 190.942 103.921 190.458 105.185C189.82 106.846 189.537 108.912 189.973 110.647C191.239 112.335 194.628 112.135 195.933 114.032C196.079 114.707 196.182 114.865 195.785 115.472C195.672 115.645 195.444 115.899 195.3 116.061L195.295 116.503C195.895 116.854 196.337 117.036 197.01 117.196C197.54 117.69 197.906 118.155 198.315 118.752C199.661 119.453 201.162 118.492 202.585 118.865L202.041 118.784L201.983 118.982C200.663 119.074 199.309 119.243 197.989 119.113L197.633 118.509C197.105 118.897 196.694 119.076 196.064 119.26C195.22 119.073 195.157 118.975 194.55 118.343C193.704 118.042 192.652 118.268 191.756 118.229C191.108 118.201 190.85 118.192 190.393 117.727C190.571 115.477 190.312 113.739 189.672 111.583C189.409 111.287 189.499 111.461 189.444 110.939C189.251 109.134 189.492 104.571 190.589 103.276C190.629 103.259 190.669 103.243 190.709 103.227C191.64 102.866 192.183 102.474 192.891 101.771Z" fill="#FEBB5D"/>
<path d="M194.55 118.343C195.102 117.73 195.275 117.438 196.074 117.173C196.862 117.43 197.198 117.795 197.632 118.508C197.105 118.897 196.694 119.076 196.064 119.259C195.22 119.072 195.157 118.975 194.55 118.343Z" fill="#DFE0C5"/>
<path d="M191.289 114.158C191.997 113.633 192.507 113.219 193.428 113.264C194.204 113.301 195.014 113.818 195.665 114.197C195.647 114.423 195.635 114.74 195.552 114.948C195.301 115.578 194.977 115.734 194.419 116.016C193.129 116.025 192.466 115.637 191.518 114.77C191.209 114.487 191.314 114.66 191.289 114.158Z" fill="#FEFEFD"/>
<path d="M204.057 119.996L204.747 119.578L205.44 119.751C204.747 121.429 205.427 122.923 206.083 124.514C206.27 124.975 206.467 125.433 206.672 125.887C209.313 127.803 212.356 128.832 215.491 129.661C215.983 129.273 216.136 128.866 216.531 128.436C216.623 128.334 216.749 128.267 216.859 128.182L217.693 128.523C217.188 130.158 218.476 131.597 218.564 133.305C219.021 132.922 219.081 132.955 219.684 132.923C221.792 131.905 223.911 130.687 225.309 128.768L226.218 129.293C225.583 130.888 224.76 132.101 223.655 133.402C218.305 135.99 214.156 137.872 208.086 136.917C206.502 136.669 204.963 136.093 203.374 135.921C202.041 135.246 200.708 134.451 199.628 133.408C197.341 131.205 196.895 128.814 196.822 125.8C195.572 126.366 194.352 126.828 193.044 127.234C190.955 126.727 188.841 126.332 186.733 125.917C184.534 125.274 182.35 124.819 180.098 124.404C178.868 124.336 176.952 124.083 175.795 124.477C175.238 123.984 175.12 124.057 174.369 124.105C172.14 124.249 169.81 126.208 168.008 126.163C167.822 125.612 167.664 125.174 167.95 124.618C168.626 123.297 171.003 122.694 172.366 122.423C178.777 121.146 186.871 123.197 193.232 124.338C194.284 124.526 196.31 124.567 197.186 125.047C197.266 125.091 197.331 125.152 197.404 125.204C198.433 124.978 199.428 123.184 200.118 122.419L200.459 122.045C200.836 121.81 201.345 121.653 201.76 121.476C202.357 121.541 202.952 121.588 203.552 121.628C204.044 121.102 203.966 120.688 204.057 119.996Z" fill="#F47028"/>
<path d="M204.056 119.996L204.747 119.578L205.44 119.751C204.747 121.429 205.427 122.923 206.082 124.514C206.27 124.975 206.467 125.433 206.672 125.887C209.313 127.803 212.356 128.832 215.491 129.661C215.983 129.273 216.136 128.866 216.53 128.436C216.623 128.334 216.749 128.267 216.859 128.182L217.693 128.523C217.188 130.158 218.476 131.597 218.564 133.305C217.522 134.353 215.499 134.629 214.055 134.765C211.304 135.024 207.9 134.856 205.686 133.059L204.842 133.022C203.21 132.118 201.905 131.25 200.637 129.883C200.113 127.805 199.877 125.244 200.281 123.134C200.351 122.772 200.404 122.41 200.459 122.045C200.836 121.81 201.345 121.653 201.759 121.476C202.357 121.541 202.952 121.588 203.552 121.628C204.044 121.102 203.966 120.688 204.056 119.996Z" fill="#FE9B53"/>
<path d="M204.842 133.022C204.892 131.81 204.749 130.388 205.661 129.46C205.962 129.152 206.118 129.198 206.519 129.13C207.066 129.531 207.082 129.587 207.307 130.232C207.172 131.227 206.045 131.974 205.686 133.059L204.842 133.022Z" fill="#FE925E"/>
<path d="M101.581 82.5702C104.275 78.3064 108.179 76.0172 113.044 74.9279C120.668 73.2207 129.381 74.8971 135.915 79.1514C139.171 81.2726 141.787 84.1133 142.643 88.0229C143.173 90.4507 143.188 95.4435 141.634 97.5181C141.594 97.5711 141.546 97.6162 141.501 97.6654C139.834 101.371 135.913 102.577 134.793 104.802C127.373 107.943 114.678 111.148 106.863 108.055C106.288 107.828 105.475 107.546 105.206 106.943C105.081 106.66 105.01 106.303 104.935 106.007L104.662 105.488L104.069 105.416C99.3522 107.506 94.8988 111.008 89.4739 110.817C84.8398 110.653 80.9965 107.922 77.979 104.618C76.5381 102.088 75.0921 99.6431 73.7993 97.0323C73.832 91.8628 74.7206 88.1527 78.4962 84.4854C82.1638 80.9229 87.3175 79.0068 92.4161 79.1014C95.8653 79.1654 98.9907 80.2361 101.581 82.5702Z" fill="#FE925E"/>
<path d="M81.5339 89.5762C81.3557 92.7683 84.097 97.1632 86.2157 99.5204C86.7253 100.09 87.2726 100.616 87.7019 101.251C88.834 101.577 89.911 102.283 90.7319 103.124L90.7921 104.236C91.0833 104.67 91.141 105.019 91.2264 105.529L90.9503 105.788C88.8616 105.573 87.0893 104.252 85.5806 102.873L84.6995 102.12C82.887 99.6936 79.8972 95.3615 79.8721 92.2462C79.8671 91.7391 79.847 91.6143 80.2035 91.237C80.6101 91.5644 80.4922 91.4426 80.8009 91.7783C80.8637 91.848 80.9264 91.9196 80.9892 91.9904C81.4687 91.3543 81.436 90.3722 81.5339 89.5762Z" fill="#FFA33A"/>
<path d="M84.6992 102.12C84.9503 101.682 85.2164 101.278 85.4975 100.858C86.2331 100.657 86.2607 100.777 86.9535 101.128C86.7075 101.927 86.5895 102.391 85.7837 102.79C85.7184 102.822 85.6481 102.845 85.5804 102.873L84.6992 102.12Z" fill="#DFE0C5"/>
<path d="M87.7019 101.251C88.8341 101.577 89.911 102.282 90.7319 103.124L90.7921 104.236C89.9662 103.672 89.0148 103.327 88.1864 102.773C87.4533 102.283 87.3053 102.043 87.1069 101.194L87.7019 101.251Z" fill="#FE9B53"/>
<path d="M81.5341 89.5762C81.976 88.1064 82.7944 87.3831 84.1223 86.6383C87.6418 84.6642 94.1135 84.1375 97.9393 85.3262C98.602 85.5318 99.2321 85.8071 99.8472 86.125C102.144 89.4544 105.473 93.6555 104.619 97.9615C104.165 100.257 102.486 102.009 100.575 103.234C98.5468 104.534 96.285 105.435 94.1863 106.604C93.255 105.225 92.0851 104.09 90.7321 103.124C89.9112 102.283 88.8343 101.577 87.7021 101.251C87.2728 100.616 86.7256 100.09 86.216 99.5204C84.0972 97.1632 81.3559 92.7683 81.5341 89.5762Z" fill="#FEAC42"/>
<path d="M84.1776 90.4987C84.3082 90.2472 84.4763 89.8691 84.6822 89.6592C85.3123 89.0208 86.2562 88.9855 87.0972 88.8662L87.4335 88.9892C87.3005 90.4548 87.2227 91.7566 87.4009 93.2244L87.4436 93.5892C88.2469 94.8549 88.9523 95.7767 90.4836 96.1204C91.558 96.3611 92.6827 96.3021 93.7722 96.2286L93.5487 96.9056C93.7922 97.5367 94.1763 97.6261 94.7311 97.973L94.6985 98.5024C93.7421 99.5081 91.4702 99.5033 90.1497 99.6557C89.246 99.006 88.4603 98.264 87.6921 97.4642C85.8847 95.5854 84.1324 93.2003 84.1776 90.4987Z" fill="#FEBB5D"/>
<path d="M84.1772 90.4987C84.3078 90.2472 84.476 89.8691 84.6818 89.6592C85.3119 89.0208 86.2558 88.9855 87.0968 88.8662C86.9462 89.7516 86.8909 90.6021 86.3311 91.3371C85.8014 91.5478 85.6634 91.6022 85.1136 91.3005C84.7873 91.1205 84.4534 90.755 84.1772 90.4987Z" fill="#FEFEFD"/>
<path d="M87.4335 88.9892C88.6736 87.5005 90.4032 86.0568 92.409 85.845C93.5688 85.7225 94.7913 86.0014 95.7101 86.7414C96.8774 87.6808 97.4096 89.1955 97.4925 90.6508C97.5828 92.223 97.1109 93.7621 96.0289 94.9262C95.3888 95.6125 94.6382 95.9167 93.7721 96.2285C92.6826 96.3021 91.558 96.3611 90.4836 96.1203C88.9522 95.7767 88.2468 94.8549 87.4435 93.5891L87.4008 93.2244C87.2226 91.7566 87.3004 90.4547 87.4335 88.9892Z" fill="#FEFEFD"/>
<path d="M115.938 79.4043C119.315 79.0644 122.418 79.1121 125.759 79.7716C127.494 80.1378 130.114 80.4007 131.515 81.4872C132.411 81.3458 133.082 81.1955 133.95 81.5168C134.41 81.9277 134.726 82.2345 135.045 82.7742C137.789 85.0293 141.599 87.5803 141.873 91.4917C142.054 94.0648 140.58 96.1519 139.245 98.1976C139.368 98.1313 139.496 98.0693 139.616 97.9982C140.816 97.2948 141.647 95.4081 142.013 94.1167L142.177 94.5387L142.192 94.4233C142.202 95.4934 141.808 96.2011 141.338 97.145C141.383 97.6021 141.283 97.451 141.501 97.6656C139.834 101.371 135.913 102.577 134.794 104.803C127.373 107.943 114.678 111.148 106.863 108.055C106.289 107.828 105.475 107.546 105.207 106.943C105.081 106.66 105.011 106.303 104.936 106.008L104.662 105.488L104.069 105.416C106.987 103.816 107.775 100.262 108.673 97.3011L107.945 96.42C107.546 96.3474 107.453 96.2932 107.132 96.0718C106.186 93.154 103.341 89.02 103.229 86.1112C103.482 85.7548 103.703 85.4196 103.901 85.0285C103.957 84.9211 104.007 84.8116 104.059 84.7034C104.313 83.8326 104.501 83.0049 105.023 82.2533C105.842 82.0625 106.311 82.3437 107.022 82.7484L107.411 82.9738C108.121 82.3148 108.563 81.4944 109.374 80.9196C110.75 79.9423 113.124 79.4573 114.779 79.7277L115.938 79.4043Z" fill="#FEAC42"/>
<path d="M126.605 97.3182C127.3 97.3033 127.842 97.281 128.505 97.5501C128.859 98.2387 128.751 98.5226 128.681 99.2797C127.995 99.41 127.642 99.5029 126.964 99.2511C126.507 98.6958 126.61 98.0002 126.605 97.3182Z" fill="#FEFEFD"/>
<path d="M108.967 94.1663C109.622 94.7228 109.738 94.7246 109.911 95.6067C109.68 96.344 109.301 96.8556 108.673 97.3014L107.945 96.4203C107.945 96.3021 107.938 96.1836 107.943 96.0653C107.978 95.0933 108.287 94.78 108.967 94.1663Z" fill="#DFE0C5"/>
<path d="M131.515 81.4872C132.411 81.3459 133.081 81.1955 133.95 81.5168C134.409 81.9278 134.726 82.2345 135.044 82.7743C134.859 83.075 134.821 83.1591 134.562 83.4438C134.131 83.918 133.307 84.2624 132.67 84.2283C131.934 84.1888 131.726 83.8964 131.264 83.4013C131.108 82.5164 131.221 82.3086 131.515 81.4872Z" fill="#FEFEFD"/>
<path d="M122.375 90.6323C122.443 90.5472 122.508 90.4573 122.581 90.377C123.321 89.5709 124.152 89.5204 125.179 89.417C125.453 91.6269 126.555 93.006 128.101 94.5446C126.437 94.6536 124.481 94.1063 123.231 92.9759C122.42 92.2439 122.42 91.6542 122.375 90.6323Z" fill="#FDC878"/>
<path d="M107.945 96.4202C107.546 96.3476 107.453 96.2934 107.132 96.072C106.186 93.1542 103.341 89.0202 103.229 86.1114C103.482 85.7549 103.703 85.4198 103.901 85.0287C103.957 84.9213 104.007 84.8118 104.059 84.7036C104.456 85.9166 104.818 87.1914 105.347 88.3512C106.191 90.3115 107.712 92.4312 108.967 94.1661C108.287 94.7799 107.978 95.0932 107.943 96.0652C107.938 96.1834 107.945 96.3019 107.945 96.4202Z" fill="#FE9B53"/>
<path d="M127.019 87.5796C128.804 87.7056 130.327 88.1354 131.547 89.5244C132.165 90.2275 132.737 91.2675 132.622 92.2418C132.534 92.9977 132.21 93.5803 131.563 93.997C130.536 94.6593 129.273 94.665 128.101 94.5448C126.554 93.0062 125.452 91.627 125.179 89.4172C125.598 88.712 126.203 88.3633 126.783 87.8115C126.863 87.7355 126.941 87.6569 127.019 87.5796Z" fill="#FEFEFD"/>
<path d="M139.244 98.1973C139.367 98.131 139.495 98.069 139.616 97.998C140.816 97.2946 141.647 95.4078 142.013 94.1165L142.176 94.5384L142.191 94.423C142.201 95.4931 141.807 96.2008 141.338 97.1447C141.383 97.6018 141.283 97.4507 141.501 97.6653C139.834 101.371 135.913 102.577 134.793 104.802C127.373 107.943 114.678 111.148 106.863 108.055C106.288 107.827 105.475 107.546 105.206 106.943C105.081 106.66 105.011 106.303 104.935 106.007L104.662 105.488C105.723 105.25 110.159 106.694 112.067 106.732C121.973 106.931 131.824 105.259 139.244 98.1973Z" fill="#F47028"/>
<path d="M115.938 79.4043C119.315 79.0644 122.418 79.1121 125.759 79.7716C125.601 83.8456 128.99 84.3685 128.44 86.4981C127.955 86.7807 127.551 86.9384 127.007 87.0767C126.934 87.4781 126.896 87.3149 127.019 87.5793C126.941 87.6566 126.863 87.7352 126.783 87.8112C126.203 88.363 125.598 88.7117 125.179 89.4169C124.152 89.5203 123.321 89.5707 122.581 90.3768C122.508 90.4571 122.443 90.547 122.375 90.6321C122.011 90.313 122.229 90.4499 121.702 90.2588C120.809 91.4691 119.995 92.1742 118.471 92.4064C118.24 92.4421 118.004 92.4627 117.768 92.4858C115.702 93.1395 113.93 92.907 111.857 92.5149C111.224 90.0294 109.678 88.1674 108.721 85.8383C109.818 85.756 110.212 86.4592 111.262 86.3811C111.229 85.7432 111.186 85.0855 111.304 84.4539C111.696 82.3357 113.119 80.9615 114.779 79.7277L115.938 79.4043Z" fill="#FEBB5D"/>
<path d="M117.769 92.4857C117.495 92.1423 117.186 91.8099 117.098 91.3631C116.985 90.794 117.234 90.1235 117.595 89.6894C118.263 88.8942 119.094 88.6248 120.083 88.5344C120.578 88.8846 121.057 89.2479 121.582 89.5456L121.702 90.2588C120.809 91.469 119.995 92.1742 118.471 92.4064C118.241 92.442 118.005 92.4626 117.769 92.4857Z" fill="#FEFEFD"/>
<path d="M115.938 79.4041C117.271 79.517 118.333 79.5956 119.229 80.6858C119.872 81.4645 120.05 82.4955 119.879 83.4721C119.578 85.1673 118.34 86.7378 116.904 87.6387C115.963 88.2277 114.703 88.6082 113.596 88.3278C112.541 88.0597 111.894 87.2014 111.261 86.3808C111.229 85.7429 111.186 85.0852 111.304 84.4536C111.695 82.3354 113.119 80.9612 114.778 79.7274L115.938 79.4041Z" fill="#FEFEFD"/>
<path d="M62.1364 108.62C63.6677 119.132 63.4443 129.74 72.8255 136.767C74.5953 138.093 79.9649 141.532 82.0108 141.67C83.261 142.505 84.6291 143.637 85.9872 144.253C86.1228 145.033 86.1102 145.316 86.6951 145.924C89.3586 148.683 92.8882 150.943 95.7676 153.532C98.0695 155.6 100.171 158.355 102.643 160.138C104.629 162.596 106.68 165.016 108.641 167.494C110.24 169.517 111.279 171.734 113.385 173.302C113.624 173.48 113.86 173.662 114.101 173.838C116.36 174.098 118.085 174.363 119.987 172.871C120.502 173.354 120.889 173.833 121.574 174.05C123.868 175.176 126.959 181.634 128.693 183.946L128.769 184.128C130.21 185.948 130.915 187.87 131.731 190.017L132.389 191.58C133.224 190.492 132.891 189.438 133.531 188.292C133.925 189.446 134.354 190.553 134.467 191.775C134.984 195.309 134.67 198.961 135.311 202.452L134.158 202.483L132.479 202.699C131.809 202.8 131.146 202.912 130.466 202.953C129.489 203.21 128.472 203.551 127.466 203.654C123.344 204.104 119.149 203.496 115.019 203.454C112.466 203.429 109.863 203.8 107.323 203.513C103.439 203.076 100.497 200.661 98.1022 197.747C94.7383 193.803 90.9125 190.485 88.5653 185.747C85.7563 180.072 86.5144 173.031 82.2543 168.1C77.7482 162.88 70.3904 161.138 64.7471 157.515C60.4369 154.748 57.7257 151.158 54.4873 147.302C51.3343 143.547 48.0609 139.855 45.2166 135.857C41.9632 131.288 39.1867 126.373 36.3149 121.561C35.0848 119.902 34.161 117.998 33.2222 116.166C37.8111 117.71 41.0344 119.46 46.1279 119.454C52.5569 119.447 56.3776 116.269 60.6678 111.917C61.0142 110.808 61.6519 109.683 62.1364 108.62Z" fill="#CBDC4A"/>
<path d="M74.9043 153.55C77.3745 154.239 81.8831 155.697 83.2638 158.032C83.4395 158.327 83.3566 158.654 83.3466 158.984C80.9593 158.023 76.2775 155.8 74.9043 153.55Z" fill="#C0D34E"/>
<path d="M33.2222 116.166C37.8111 117.709 41.0344 119.46 46.1279 119.454C52.5569 119.447 56.3776 116.268 60.6678 111.916C60.2787 115.153 58.529 119.182 55.976 121.261C52.8205 123.828 48.1286 124.293 44.22 123.799C41.318 123.433 39.0286 122.453 36.3149 121.561C35.0848 119.901 34.161 117.998 33.2222 116.166Z" fill="#C0D34E"/>
<path d="M119.987 172.871C120.502 173.354 120.889 173.833 121.574 174.05C122.036 177.621 123.74 181.254 124.955 184.63C127.109 190.616 129.286 196.698 130.466 202.953C129.489 203.21 128.472 203.551 127.466 203.655C126.956 200.866 125.769 198.197 124.855 195.52C122.011 187.181 120.309 180.538 114.101 173.838C116.36 174.098 118.085 174.363 119.987 172.871Z" fill="#A2C544"/>
<path d="M121.574 174.049C123.869 175.175 126.959 181.634 128.694 183.946L128.769 184.128C130.21 185.948 130.915 187.87 131.731 190.017L132.389 191.58C133.225 190.492 132.891 189.437 133.531 188.291C133.925 189.445 134.354 190.553 134.467 191.775C134.985 195.309 134.671 198.961 135.311 202.451L134.159 202.483L132.479 202.698C131.809 202.8 131.146 202.911 130.466 202.952C129.286 196.698 127.11 190.615 124.956 184.63C123.741 181.253 122.036 177.62 121.574 174.049Z" fill="#5D992B"/>
<path d="M130.473 194.835C131.367 195.362 131.799 196.242 132.336 197.1C132.71 199.102 132.818 200.665 132.479 202.699C132.248 202.204 132.273 202.385 132.238 201.9C132.045 199.331 130.656 197.288 130.473 194.835Z" fill="#69A52D"/>
<path d="M128.693 183.946L128.769 184.128C130.21 185.948 130.915 187.87 131.731 190.017L132.389 191.58C133.225 190.492 132.891 189.437 133.531 188.291C133.925 189.445 134.354 190.553 134.467 191.775C134.984 195.309 134.671 198.961 135.311 202.452L134.159 202.483L132.479 202.698C132.818 200.665 132.71 199.101 132.336 197.1C131.799 196.242 131.367 195.362 130.473 194.835L130.421 194.604C130.373 194.53 130.32 194.459 130.275 194.384C129.256 192.658 127.054 187.641 127.534 185.739C128.377 185.313 128.407 184.778 128.693 183.946Z" fill="#69A52D"/>
<path d="M133.531 188.292C133.925 189.446 134.354 190.553 134.467 191.775C133.94 192.26 133.985 192.416 133.9 193.101C133.827 193.666 133.827 193.951 133.468 194.437C133.117 193.481 132.757 192.529 132.389 191.58C133.225 190.492 132.891 189.437 133.531 188.292Z" fill="#92BF40"/>
<path d="M130.38 190.438C131.6 192.405 132.19 194.797 132.989 196.966L132.336 197.099C131.799 196.242 131.367 195.362 130.473 194.835L130.421 194.604C130.89 193.555 130.481 191.603 130.38 190.438Z" fill="#A2C544"/>
<path d="M132.989 196.966C134.01 197.936 134.066 201.119 134.158 202.484L132.479 202.699C132.818 200.665 132.71 199.102 132.336 197.1L132.989 196.966Z" fill="#79B437"/>
<path d="M127.534 185.739C128.975 186.551 129.547 189.028 130.38 190.438C130.481 191.603 130.89 193.555 130.421 194.604C130.373 194.531 130.32 194.459 130.275 194.384C129.256 192.658 127.054 187.641 127.534 185.739Z" fill="#C0D34E"/>
<path d="M91.6756 172.397C87.9628 163.714 83.6024 159.769 75.2002 155.52C72.3635 154.085 69.6072 152.788 67.0792 150.821C65.7488 149.788 64.1396 148.575 63.1229 147.231C62.4376 146.326 61.2803 144.841 61.4209 143.699C61.6167 143.73 72.4413 152.266 74.6304 153.411L74.904 153.55C76.2771 155.8 80.9589 158.024 83.3463 158.984C84.1622 159.525 85.1513 160.358 86.1654 160.24C86.6474 159.499 86.9687 158.735 87.3076 157.922L87.6139 157.92C87.8549 158.565 88.1335 159.175 88.1511 159.873C88.7737 164.349 91.52 168.107 92.6195 172.444L92.6572 172.596C93.8195 177.449 96.0186 186.744 100.811 189.338C101.702 189.822 102.32 189.024 103.316 189.599L103.66 190.477C105.897 191.331 109.579 191.853 111.952 191.55L112.311 191.481L112.527 191.912C114.319 195.405 115.012 198.202 114.274 202.107C112.409 199.671 110.132 198.357 107.764 196.5C95.5466 186.914 95.7901 187.265 91.6756 172.397Z" fill="#A2C544"/>
<path d="M88.1514 159.874C88.3673 159.636 88.5053 159.65 88.8066 159.566C89.1957 159.767 89.3664 159.983 89.6074 160.337C89.9639 160.862 89.7229 160.718 90.2325 160.852L90.7069 159.295C90.7747 159.384 90.845 159.47 90.9102 159.561C91.9219 160.976 91.0835 163.36 92.906 164.234C94.1687 164.104 95.2908 162.434 96.4205 163.149C96.7167 163.338 97.0255 163.745 97.269 164C97.6556 164.401 98.0648 164.734 98.4991 165.083L98.4865 165.275C99.7894 166.243 100.826 168.045 101.768 169.382C105.882 175.232 111.114 183.431 112.326 190.523C112.389 190.897 112.399 191.122 112.311 191.481L111.952 191.55C109.58 191.853 105.897 191.331 103.66 190.477L103.316 189.599C102.32 189.024 101.702 189.822 100.811 189.338C96.0188 186.744 93.8198 177.449 92.6575 172.596L92.6198 172.444C91.5203 168.107 88.7739 164.349 88.1514 159.874Z" fill="#C0D34E"/>
<path d="M92.7275 169.027C93.192 169.119 93.6489 169.194 94.0656 169.426C94.9367 169.908 95.4739 170.682 95.6998 171.64C94.8814 171.833 94.5902 171.875 93.812 171.534C93.1493 170.816 92.9886 169.946 92.7275 169.027Z" fill="#92BF40"/>
<path d="M157.585 39.2983C166.954 54.443 171.929 72.6732 167.78 90.3127C167.119 93.1177 163.09 105.692 164.034 107.456C162.694 112.69 161.923 119.629 164.702 124.557C165.437 125.864 166.411 126.824 167.518 127.802C166.913 129.861 167.378 133.166 167.247 135.374C167.004 139.529 166.399 143.871 165.402 147.917C163.906 153.988 161.885 159.919 160.058 165.894L154.663 184.111C153.207 188.858 151.146 193.52 150.353 198.456C149.215 198.317 148.033 198.332 146.883 198.288C145.294 198.473 143.868 198.729 142.35 199.253C140.874 199.822 139.264 200.047 137.823 200.657C137.146 201.223 136.174 202.286 135.311 202.452C134.67 198.961 134.984 195.309 134.467 191.775C134.354 190.553 133.925 189.445 133.531 188.291C133.488 187.616 133.33 186.902 133.227 186.23C133.563 185.885 133.842 185.536 134.136 185.156L134.507 184.592L135.68 184.111C136.244 184.429 136.182 184.615 136.413 185.199C136.689 184.879 137.178 184.681 137.547 184.473C137.748 183.339 135.863 178.356 135.539 176.749C134.924 173.715 134.698 170.399 135.168 167.327C136.784 156.75 146.529 154.647 148.934 143.945C151.598 132.095 145.55 122.019 145.955 110.462C146.098 106.437 147.561 97.6999 148.651 93.8174C149.647 90.2625 151.041 86.8471 151.497 83.1589C152.612 74.1977 147.378 63.9728 142.076 57.0789L142.508 56.3948L143.248 55.0259C144.609 53.4012 145.405 50.1338 147.24 49.1346C147.872 49.2265 147.955 49.229 148.43 49.6493C152.255 45.0749 151.666 42.2553 157.585 39.2983Z" fill="#92BF40"/>
<path d="M142.508 56.3948L143.771 56.6591C150.127 64.461 154.761 75.2523 153.749 85.4624C152.888 94.1228 148.337 101.899 148.357 110.697C148.38 121.154 154.299 131.998 152.989 142.137C151.111 156.641 140.231 158.858 139.224 170.426C138.629 177.25 140.459 183.242 141.546 189.847C142.056 192.951 142.156 196.117 142.35 199.253C140.874 199.822 139.264 200.047 137.823 200.657C137.146 201.223 136.174 202.286 135.311 202.451C134.67 198.961 134.984 195.309 134.467 191.775C134.354 190.553 133.925 189.445 133.531 188.291C133.488 187.616 133.33 186.902 133.227 186.23C133.563 185.885 133.842 185.536 134.136 185.156L134.507 184.592L135.68 184.111C136.244 184.429 136.182 184.615 136.413 185.199C136.689 184.879 137.178 184.681 137.547 184.473C137.748 183.339 135.863 178.356 135.539 176.749C134.924 173.715 134.698 170.399 135.168 167.327C136.784 156.75 146.529 154.647 148.934 143.945C151.598 132.095 145.55 122.019 145.955 110.462C146.098 106.437 147.561 97.6998 148.651 93.8173C149.647 90.2624 151.041 86.8471 151.497 83.1589C152.612 74.1977 147.378 63.9728 142.076 57.0788L142.508 56.3948Z" fill="#5D992B"/>
<path d="M134.507 184.592L135.68 184.112C136.244 184.43 136.182 184.616 136.413 185.199C137.47 188.838 139.749 196.871 137.972 200.386C137.926 200.478 137.871 200.567 137.823 200.658C137.146 201.224 136.174 202.286 135.311 202.452C134.67 198.962 134.984 195.309 134.467 191.775C134.354 190.553 133.925 189.446 133.531 188.292C133.488 187.617 133.33 186.902 133.227 186.231C133.563 185.886 133.842 185.537 134.136 185.157L134.507 184.592Z" fill="#CBDC4A"/>
<path d="M157.585 39.2983C166.953 54.443 171.929 72.6732 167.779 90.3127C167.119 93.1177 163.09 105.692 164.034 107.456C162.693 112.69 161.923 119.629 164.702 124.557C165.437 125.864 166.411 126.824 167.518 127.802C166.913 129.861 167.378 133.166 167.247 135.374C167.004 139.529 166.399 143.871 165.402 147.917C163.906 153.988 161.885 159.919 160.058 165.894L154.663 184.111C153.207 188.858 151.146 193.52 150.352 198.456C149.215 198.317 148.033 198.332 146.883 198.288C146.057 189.254 143.59 175.301 148.281 167.357C150.137 164.216 152.988 161.669 154.944 158.525C162.455 146.446 160.796 137.121 157.55 124.111C156.342 119.268 155.318 114.519 155.622 109.488C155.843 105.827 157.105 102.636 158.554 99.3083C162.046 91.2709 162.59 85.3364 160.954 76.6767C159.593 69.4682 155.102 62.3248 151.472 56.0323C150.588 54.5003 148.658 51.9839 148.334 50.2997C148.312 50.1852 148.297 50.0698 148.276 49.9548L148.43 49.6493C152.255 45.0749 151.665 42.2553 157.585 39.2983Z" fill="#CBDC4A"/>
<path d="M73.7996 97.0325C75.0924 99.6432 76.5384 102.088 77.9793 104.618C80.9967 107.922 84.8401 110.654 89.4742 110.817C94.8991 111.008 99.3524 107.506 104.069 105.416L104.662 105.488L104.935 106.007C105.011 106.303 105.081 106.66 105.207 106.943C105.475 107.546 106.289 107.828 106.863 108.055C114.678 111.148 127.373 107.943 134.794 104.803C133.586 107.655 132.005 110.73 131.595 113.816C131.046 117.955 132.861 122.907 133.641 126.953C134.417 130.958 134.902 135.017 135.953 138.965C136.852 142.329 138.283 145.983 138.343 149.486C138.449 155.66 134.821 161.353 133.862 167.403C133.36 171.729 133.912 175.889 134.982 180.102C135.336 180.998 136.305 184.083 137.131 184.418C137.261 184.471 137.409 184.455 137.547 184.473C137.178 184.681 136.689 184.879 136.413 185.199C136.182 184.616 136.245 184.429 135.68 184.111L134.507 184.592L134.136 185.157C133.842 185.536 133.563 185.885 133.227 186.23C133.33 186.902 133.488 187.616 133.531 188.291C132.891 189.437 133.225 190.492 132.389 191.58L131.731 190.017C130.915 187.87 130.21 185.948 128.769 184.128L128.693 183.946C126.959 181.634 123.869 175.176 121.574 174.05C120.889 173.833 120.502 173.354 119.988 172.871C118.085 174.363 116.36 174.098 114.101 173.838C113.86 173.662 113.624 173.48 113.385 173.301C111.279 171.733 110.24 169.517 108.641 167.494C106.68 165.016 104.629 162.596 102.643 160.138C100.171 158.355 98.0697 155.6 95.7677 153.532C92.8883 150.943 89.3587 148.683 86.6953 145.924C86.1103 145.316 86.1229 145.033 85.9873 144.253C84.6292 143.637 83.2611 142.505 82.0109 141.67C75.1426 129.091 69.9587 111.159 73.7996 97.0325Z" fill="#9DBC3F"/>
<path d="M117.675 130.138C118.029 130.315 118.305 130.54 118.619 130.781C118.976 131.55 118.732 132.2 118.551 132.983C118.087 132.847 117.916 132.727 117.595 132.366C117.356 131.544 117.507 130.949 117.675 130.138Z" fill="#69A52D"/>
<path d="M122.194 135.377C122.739 135.628 123.053 135.888 123.474 136.313C123.771 137.089 123.507 137.749 123.311 138.517C122.576 138.204 122.317 138.083 121.885 137.367C121.782 136.531 121.885 136.162 122.194 135.377Z" fill="#69A52D"/>
<path d="M122.109 124.809C123.111 125.53 123.941 126.231 124.79 127.131C124.863 128.393 124.976 129.58 124.637 130.817C123.537 129.048 122.844 126.77 122.109 124.809Z" fill="#529024"/>
<path d="M124.79 127.132C125.791 128.766 128.987 137.088 129.414 137.418L129.592 137.453L129.806 137.96L129.065 137.976C127.446 136.874 125.525 132.669 124.637 130.817C124.976 129.58 124.863 128.394 124.79 127.132Z" fill="#69A52D"/>
<path d="M128.816 172.914C128.49 171.482 128.42 169.984 128.339 168.521C128.048 163.108 129.095 158.66 130.403 153.469C130.795 151.912 130.702 150.692 131.796 149.472C132.256 151.308 132.996 153.419 133.102 155.305C133.247 157.919 131.56 165.78 133.104 167.622C133.614 167.702 133.353 167.742 133.862 167.403C133.36 171.729 133.912 175.889 134.982 180.102C135.336 180.998 136.305 184.083 137.131 184.418C137.261 184.471 137.409 184.455 137.547 184.473C137.178 184.681 136.689 184.879 136.413 185.199C136.182 184.616 136.245 184.429 135.68 184.111L134.507 184.592L134.136 185.157L133.727 184.045L133.237 183.861L131.874 184.136L131.535 183.89L131.558 183.114L131.41 182.751C130.634 181.975 130.393 181.148 130.044 180.135C129.258 178.375 129.178 176.665 128.174 174.881C126.464 172.317 125.43 169.173 123.896 166.469C121.953 163.041 119.375 159.89 117.58 156.395C117.209 155.668 116.962 155.125 116.988 154.303C118.205 154.881 124.441 165.254 125.402 167.016C126.492 169.011 127.441 171.101 128.422 173.152L128.816 172.914Z" fill="#92BF40"/>
<path d="M130.476 176.273C131.241 176.557 131.399 177.123 131.741 177.853C131.843 178.074 131.943 178.296 132.04 178.519L133.656 179.922C133.737 180.687 133.832 180.882 133.453 181.575L132.509 182.113L132.697 182.724L133.237 183.861L131.874 184.136L131.535 183.89L131.558 183.114L131.409 182.751C131.332 180.604 130.825 178.395 130.476 176.273Z" fill="#5D992B"/>
<path d="M131.974 180.23L132.509 182.113L132.697 182.723L133.237 183.861L131.874 184.136L131.535 183.89L131.558 183.114C131.666 182.051 131.46 181.223 131.974 180.23Z" fill="#529024"/>
<path d="M132.04 178.519L133.657 179.922C133.737 180.688 133.832 180.882 133.453 181.575L132.509 182.113L131.975 180.231C132.073 179.674 132.035 179.085 132.04 178.519Z" fill="#69A52D"/>
<path d="M133.656 179.922L134.982 180.102C135.336 180.998 136.305 184.083 137.131 184.418C137.261 184.471 137.409 184.455 137.548 184.473C137.179 184.681 136.689 184.879 136.413 185.199C136.182 184.615 136.245 184.429 135.68 184.111L134.508 184.592L134.136 185.156L133.727 184.045L133.237 183.861L132.698 182.723L132.509 182.113L133.453 181.575C133.832 180.882 133.737 180.687 133.656 179.922Z" fill="#79B437"/>
<path d="M132.697 182.724C133.039 182.129 132.978 182.076 133.629 181.898C134.096 182.232 134.389 182.572 134.48 183.172C134.527 183.48 134.47 183.827 134.442 184.135C134.417 184.452 134.397 184.317 134.507 184.592L134.136 185.157L133.727 184.045L133.237 183.862L132.697 182.724Z" fill="#92BF40"/>
<path d="M134.793 104.802C133.586 107.655 132.004 110.73 131.595 113.816C131.046 117.955 132.861 122.907 133.641 126.953C134.417 130.958 134.901 135.017 135.953 138.965C136.852 142.329 138.283 145.983 138.343 149.486C138.449 155.66 134.821 161.353 133.862 167.403C133.353 167.741 133.614 167.702 133.104 167.622C131.56 165.78 133.247 157.918 133.102 155.305C132.996 153.419 132.256 151.308 131.796 149.472C132.263 147.464 132.346 145.397 132.333 143.345C130.855 141.56 130.252 140.231 129.805 137.96L129.592 137.453C129.612 134.633 128.139 132.209 127.431 129.517C128.046 128.524 128.513 127.674 128.447 126.472C128.282 123.494 125.352 118.904 123.02 117.055C121.694 116.003 120.251 116.065 118.762 115.477C116.681 114.654 114.52 112.858 112.153 113.258C110.403 113.553 109.08 115.016 108.066 116.363C107.654 119.242 108.076 121.493 108.141 124.321L108.146 124.737C106.75 121.855 105.4 118.952 103.733 116.214C102.867 114.355 103.429 110.865 103.818 108.89L104.935 106.007C105.011 106.303 105.081 106.66 105.206 106.943C105.475 107.546 106.288 107.828 106.863 108.055C114.678 111.148 127.373 107.943 134.793 104.802Z" fill="#5D992B"/>
<path d="M95.4663 112.03L95.6973 111.974C96.114 112.271 96.011 112.146 96.2746 112.499C96.3299 112.572 96.3801 112.649 96.4303 112.723C99.0009 112.713 102.252 108.705 103.818 108.89C103.429 110.866 102.867 114.355 103.733 116.214C105.4 118.952 106.75 121.855 108.146 124.737C111.573 133.135 116.659 141.753 117.417 150.95C117.477 151.704 117.655 152.91 117.424 153.611C117.316 153.933 117.271 153.955 117.085 154.182L116.988 154.304C116.962 155.125 117.208 155.668 117.58 156.395C119.375 159.89 121.953 163.042 123.896 166.469C125.43 169.173 126.464 172.317 128.174 174.882C129.178 176.665 129.258 178.375 130.044 180.135C130.393 181.148 130.634 181.975 131.41 182.751L131.558 183.114L131.535 183.89L131.874 184.136L133.237 183.862L133.727 184.045L134.136 185.157C133.842 185.537 133.563 185.885 133.227 186.23C133.33 186.902 133.488 187.616 133.531 188.292C132.891 189.438 133.225 190.492 132.389 191.58L131.731 190.017C130.915 187.87 130.21 185.948 128.769 184.128L128.693 183.946C126.959 181.634 123.868 175.176 121.574 174.05C120.889 173.833 120.502 173.354 119.987 172.871C116.975 169.017 114.826 165.364 112.906 160.862L111.924 157.61C111.517 153.529 103.899 147.71 101.132 144.43C95.5291 137.789 90.0038 127.631 90.7845 118.659C90.9477 118.283 91.1234 117.916 91.2991 117.546C92.3259 115.386 94.8663 114.242 95.4663 112.03Z" fill="#CBDC4A"/>
<path d="M130.044 180.135C130.393 181.147 130.634 181.975 131.409 182.751L131.558 183.114L131.535 183.889L131.874 184.135L133.237 183.861L133.726 184.045L134.136 185.156C133.842 185.536 133.563 185.885 133.227 186.23C133.33 186.902 133.488 187.616 133.531 188.291C132.891 189.437 133.224 190.492 132.388 191.58L131.731 190.017C130.915 187.87 130.209 185.948 128.769 184.128C130.97 184.963 130.656 186.979 131.668 188.637C132.356 186.817 130.388 185.912 130.046 184.434C129.803 183.382 130.102 181.321 130.044 180.135Z" fill="#C0D34E"/>
<path d="M131.731 190.017C132.843 189.039 131.907 187.228 132.384 185.906L132.748 185.814L133.227 186.23C133.33 186.902 133.488 187.616 133.531 188.292C132.891 189.438 133.225 190.492 132.389 191.58L131.731 190.017Z" fill="#A2C544"/>
<path d="M73.7996 97.0325C75.0924 99.6432 76.5384 102.088 77.9793 104.618C80.9967 107.922 84.8401 110.654 89.4742 110.817C94.8991 111.008 99.3524 107.506 104.069 105.416L104.662 105.488L104.935 106.007L103.818 108.89C102.252 108.705 99.001 112.713 96.4304 112.723C96.3802 112.648 96.33 112.572 96.2747 112.499C96.0111 112.146 96.1141 112.271 95.6974 111.974L95.4664 112.03C94.8664 114.241 92.326 115.386 91.2992 117.546C91.1235 117.916 90.9478 118.283 90.7846 118.659C90.0039 127.631 95.5292 137.789 101.132 144.429C103.899 147.709 111.518 153.529 111.924 157.61L112.906 160.861C114.826 165.364 116.975 169.017 119.988 172.871C118.085 174.363 116.36 174.098 114.101 173.838C113.86 173.662 113.624 173.48 113.385 173.301C111.279 171.733 110.24 169.517 108.641 167.494C106.68 165.016 104.629 162.596 102.643 160.138C100.171 158.355 98.0697 155.6 95.7677 153.532C92.8883 150.943 89.3587 148.683 86.6953 145.924C86.1103 145.316 86.1229 145.033 85.9873 144.253C84.6292 143.637 83.2611 142.505 82.0109 141.67C75.1426 129.091 69.9587 111.159 73.7996 97.0325Z" fill="#5D992B"/>
<path d="M111.924 157.61L112.906 160.862C111.219 160.81 109.454 161.276 108.106 160.158C108.031 159.719 107.903 159.404 107.692 159.017L107.446 158.569C108.42 158.995 109.705 159.546 110.757 159.169C111.477 158.91 111.653 158.259 111.924 157.61Z" fill="#69A52D"/>
<path d="M85.9873 144.253C90.4231 147.279 101.373 155.251 102.643 160.138C100.171 158.355 98.0696 155.6 95.7677 153.532C92.8883 150.944 89.3587 148.683 86.6952 145.925C86.1103 145.317 86.1229 145.033 85.9873 144.253Z" fill="#A2C544"/>
<path d="M77.9791 104.618C80.9966 107.922 84.8399 110.654 89.474 110.817C94.8989 111.008 99.3523 107.507 104.069 105.416L104.662 105.488L104.935 106.008L103.818 108.89C102.252 108.705 99.0008 112.713 96.4302 112.723C96.38 112.649 96.3298 112.572 96.2746 112.499C96.011 112.146 96.1139 112.271 95.6972 111.974L95.4662 112.03C94.8663 114.242 92.3258 115.386 91.2991 117.546C91.1233 117.916 90.9476 118.283 90.7844 118.659C90.0037 127.631 95.529 137.789 101.132 144.43C103.899 147.71 111.517 153.529 111.924 157.61C111.653 158.259 111.477 158.91 110.757 159.169C109.705 159.546 108.42 158.995 107.446 158.569C106.386 157.818 105.45 156.814 104.539 155.895C100.146 151.472 95.6846 146.763 92.1099 141.638C86.3311 133.348 77.9415 114.683 77.9791 104.618Z" fill="#C4BB3D"/>
<path d="M91.2916 113.218C92.6774 112.52 93.93 112.2 95.4664 112.03C94.8664 114.242 92.3259 115.386 91.2992 117.546C91.1235 117.916 90.9477 118.283 90.7845 118.66C90.4682 116.686 90.6892 115.089 91.2916 113.218Z" fill="#C0D34E"/>
<path d="M175.795 124.476C176.952 124.082 178.868 124.336 180.098 124.404C182.349 124.818 184.533 125.273 186.733 125.917C188.841 126.332 190.955 126.727 193.044 127.234C194.351 126.827 195.571 126.365 196.822 125.799C196.894 128.814 197.341 131.204 199.628 133.408C200.708 134.451 202.041 135.245 203.374 135.92C204.963 136.093 206.502 136.668 208.086 136.917C214.156 137.871 218.305 135.989 223.655 133.401C223.21 134.82 222.829 136.357 222.204 137.703C221.097 142.063 220.002 146.38 219.289 150.825C216.802 166.314 215.93 176.287 201.313 185.004C194.206 189.241 186.502 192.158 178.785 195.052C178.315 195.227 177.916 195.388 177.766 195.913C175.275 196.584 172.542 196.915 170.144 197.815C167.626 198.76 165.595 201.049 162.842 200.971C161.032 199.845 158.785 199.185 156.884 198.147C156.274 198.084 155.68 198.111 155.069 198.124L154.241 198.012C153.192 198.123 152.057 198.339 151.005 198.274L150.353 198.456C151.146 193.52 153.207 188.858 154.663 184.111L160.058 165.894C161.885 159.919 163.906 153.988 165.402 147.917C166.399 143.871 167.004 139.528 167.247 135.374C167.378 133.166 166.913 129.861 167.518 127.802C170.892 129.237 173.47 129.819 177.151 129.769C176.74 127.995 176.288 126.23 175.795 124.476Z" fill="#CBDC4A"/>
<path d="M174.909 192.235C173.746 192.769 172.559 194.023 171.208 193.784C171.251 193.62 171.276 193.45 171.339 193.292C171.716 192.351 173.287 191.138 174.203 190.831L174.909 192.235Z" fill="#C0D34E"/>
<path d="M223.655 133.401C223.211 134.82 222.829 136.357 222.204 137.703C218.617 139.868 215.08 140.955 211.043 141.944C212.72 151.019 212.032 166.311 206.665 174.11C202.849 179.652 195.888 182.623 190.067 185.528L174.909 192.235L174.204 190.831C174.497 190.708 174.794 190.589 175.082 190.459C179.741 188.359 184.722 187.345 189.381 185.098C194.618 181.524 197.738 180.365 201.991 175.266C202.051 173.16 202.435 171.926 203.371 170.081C203.336 168.688 203.547 166.927 202.909 165.669C205.372 156.278 203.936 145.506 203.374 135.92C204.963 136.093 206.502 136.668 208.086 136.917C214.156 137.872 218.305 135.99 223.655 133.401Z" fill="#A2C544"/>
<path d="M175.795 124.476C176.952 124.082 178.868 124.336 180.098 124.404C182.349 124.818 184.533 125.273 186.733 125.917C188.922 129.113 187.747 146.451 186.901 150.847C186.738 151.691 186.416 152.473 186.077 153.26C184.953 160.153 182.498 168.934 178.898 174.96C177.492 178.233 175.408 181.365 173.152 184.113C169.677 188.345 166.261 191.443 164.137 196.626C163.577 197.997 163.017 199.339 162.859 200.823C162.854 200.872 162.847 200.922 162.842 200.971C161.032 199.845 158.785 199.185 156.884 198.147C156.274 198.084 155.68 198.111 155.069 198.124L154.241 198.012C153.192 198.123 152.057 198.339 151.005 198.273L150.353 198.456C151.146 193.52 153.207 188.858 154.663 184.111L160.058 165.894C161.885 159.919 163.906 153.988 165.402 147.917C166.399 143.871 167.004 139.528 167.247 135.374C167.378 133.166 166.913 129.861 167.518 127.802C170.892 129.237 173.47 129.819 177.151 129.769C176.74 127.995 176.288 126.23 175.795 124.476Z" fill="#A2C544"/>
<path d="M156.335 193.566L157.452 193.016C157.683 194.576 157.331 196.483 156.827 197.97C156.086 196.934 156.538 195.431 156.079 194.215L156.335 193.566Z" fill="#529024"/>
<path d="M185.643 149.717C185.995 146.238 186.002 142.676 185.947 139.181C185.924 137.716 185.703 136.088 185.859 134.644C185.909 134.165 185.927 134.017 186.256 133.653C187.066 134.67 186.793 147.031 186.587 148.891C186.544 149.286 186.454 149.678 186.356 150.062L185.643 149.717Z" fill="#92BF40"/>
<path d="M185.643 149.717L186.356 150.062C186.271 151.127 186.143 152.194 186.078 153.26C184.953 160.153 182.498 168.934 178.898 174.96C178.25 173.902 179.729 171.934 179.566 170.65C179.478 169.972 179.189 169.025 179.4 168.361C179.704 167.394 180.344 166.876 181.27 166.574C181.361 166.545 181.454 166.52 181.546 166.493C183.941 162.21 185.543 154.655 185.643 149.717Z" fill="#79B437"/>
<path d="M175.795 124.476C176.952 124.082 178.868 124.336 180.098 124.404C182.98 136.086 184.001 146.344 181.689 158.237C181.22 160.656 180.738 163.583 179.433 165.707C178.208 167.703 174.766 172.062 173.049 173.535C172.567 173.95 171.914 174.184 171.339 174.444C165.995 176.851 162.382 184.004 159.957 189.091C159.543 189.961 158.848 192.093 158.195 192.661C158.002 192.83 157.685 192.927 157.452 193.015L156.335 193.565L156.079 194.214C156.538 195.431 156.086 196.933 156.827 197.969L156.885 198.147C156.275 198.084 155.68 198.111 155.07 198.124L154.241 198.012C153.192 198.123 152.057 198.339 151.005 198.274C151.164 197.497 151.455 196.705 151.676 195.943C152.675 193.569 153.209 191.017 154.251 188.648C156.019 183.35 160.469 175.397 164.531 171.612C167.511 168.835 170.91 166.417 173.282 163.056C179.367 154.431 178.813 139.681 177.151 129.769C176.74 127.995 176.288 126.23 175.795 124.476Z" fill="#5D992B"/>
<path d="M163.665 176.075C161.313 182.296 156.493 186.523 156.335 193.566L156.079 194.215L154.894 193.516C155.361 190.178 156.212 187.019 157.676 183.982C160.005 181.751 161.672 178.612 163.665 176.075Z" fill="#92BF40"/>
<path d="M155.082 188.386C155.499 187.047 156.573 184.87 157.675 183.981C156.212 187.019 155.361 190.178 154.894 193.516L156.079 194.215C156.538 195.431 156.086 196.933 156.827 197.969L156.885 198.148C156.275 198.085 155.68 198.111 155.07 198.124L154.241 198.012C153.192 198.123 152.057 198.34 151.005 198.274C151.164 197.497 151.455 196.706 151.676 195.943C152.675 193.569 153.209 191.017 154.251 188.648L155.082 188.386Z" fill="#69A52D"/>
<path d="M154.736 193.627L154.894 193.517L156.079 194.215C156.538 195.431 156.086 196.934 156.827 197.97L156.885 198.148C156.275 198.085 155.68 198.112 155.07 198.125L154.241 198.012C154.256 196.541 154.332 195.045 154.736 193.627Z" fill="#5D992B"/>
<path d="M154.736 193.626C155.403 194.957 155.158 196.674 155.07 198.124L154.241 198.012C154.256 196.54 154.332 195.045 154.736 193.626Z" fill="#529024"/>
<path d="M162.841 200.972C165.595 201.05 167.626 198.761 170.144 197.815C172.541 196.915 175.275 196.585 177.765 195.913C180.836 196.801 183.795 197.846 186.667 199.256C189.393 200.593 191.811 202.321 194.319 204.007C199.377 207.407 204.488 210.499 207.521 216.001C209.308 219.246 209.875 222.619 208.793 226.211C208.299 227.857 207.398 229.634 206.306 230.955L205.831 230.386C204.332 230.176 198.574 232.241 196.121 232.505C187.932 233.388 179.749 233.244 171.532 232.933C167.307 232.773 163.007 232.61 158.928 231.404C153.003 229.654 147.629 226.433 141.33 225.926C132.019 225.176 123.446 228.498 114.306 228.691C109.321 228.796 104.832 226.448 99.9245 226.171C93.3097 225.798 86.7878 227.551 80.1856 227.704C75.7849 227.807 71.5776 226.487 67.2724 226.446C67.2422 225.118 67.305 223.792 67.8221 222.55C70.3074 216.57 77.8108 213.846 82.3495 209.689C84.8573 207.389 86.4665 204.38 89.2781 202.339C91.9541 200.393 95.0845 199.058 98.102 197.746C100.497 200.661 103.439 203.076 107.322 203.513C109.863 203.799 112.466 203.428 115.019 203.454C119.149 203.496 123.344 204.104 127.466 203.654C128.472 203.551 129.489 203.209 130.465 202.953C131.146 202.911 131.808 202.8 132.479 202.698L134.158 202.483L135.31 202.452C136.174 202.286 137.145 201.223 137.823 200.657C139.264 200.047 140.873 199.822 142.349 199.253C143.868 198.729 145.294 198.473 146.883 198.288C148.033 198.332 149.215 198.317 150.352 198.456L151.005 198.274C152.057 198.34 153.192 198.123 154.241 198.012L155.069 198.124C155.679 198.111 156.274 198.085 156.884 198.148C158.785 199.185 161.031 199.846 162.841 200.972Z" fill="#657070"/>
<path d="M96.0513 212.152C97.555 212.04 99.2946 211.82 100.748 212.292C102.021 212.705 103.565 213.525 104.072 214.861C104.29 215.436 104.335 215.992 104.072 216.562C103.522 217.755 102.302 218.706 101.12 219.186C99.9197 219.21 98.5943 219.264 97.4269 218.972C95.8655 218.581 93.4079 217.27 92.6623 215.764C92.4012 215.241 92.341 214.708 92.6096 214.17C93.1794 213.034 94.9417 212.489 96.0513 212.152Z" fill="#50595A"/>
<path d="M170.154 201.408C172.946 200.921 179.917 200.877 182.457 201.775C183.692 202.212 184.9 203.014 185.402 204.272C185.721 205.068 185.731 205.867 185.389 206.655C184.646 208.367 182.638 209.445 180.989 210.048C177.037 210.645 176.746 208.507 173.774 206.835C172.554 206.149 170.849 206.038 169.489 205.752C168.224 205.487 166.253 205.211 165.512 204.068C165.417 203.37 165.41 203.314 165.726 202.689C167.016 201.663 168.575 201.577 170.154 201.408Z" fill="#50595A"/>
<path d="M136.722 205.435C136.968 205.421 137.214 205.415 137.46 205.42C138.539 205.439 139.47 205.399 140.224 206.283C140.886 207.064 140.936 208.337 140.806 209.298C140.399 212.296 138.444 216.24 135.946 217.99C133.566 219.657 122.586 221.681 119.368 221.831C117.251 221.93 115.271 221.733 113.202 221.303C111.231 220.782 109.592 220.04 107.87 218.964C108.515 216.723 109.371 214.585 110.943 212.814C112.183 211.418 113.772 210.409 115.514 209.759C118.793 208.538 122.387 208.606 125.792 207.934C129.494 207.202 132.916 205.607 136.722 205.435Z" fill="#50595A"/>
<path d="M193.096 212.701C193.716 212.725 194.339 212.752 194.949 212.864C196.184 213.091 197.607 213.623 198.29 214.752C198.875 215.719 198.8 216.921 198.509 217.971C197.552 221.417 194.374 223.729 191.417 225.425C183.15 230.168 175.765 230.912 166.647 228.475C164.065 227.56 161.499 226.596 158.953 225.583C159.207 223.849 159.756 222.392 160.889 221.03C164.047 217.233 171.038 215.702 175.732 215.255C178.546 214.987 181.433 215.085 184.225 214.656C187.242 214.194 190.029 212.943 193.096 212.701Z" fill="#50595A"/>
</svg>
