<?xml version="1.0" encoding="UTF-8"?>
<svg id="_图层_1" data-name="图层 1" xmlns="http://www.w3.org/2000/svg" xmlns:xlink="http://www.w3.org/1999/xlink" viewBox="0 0 256 256">
  <defs>
    <style>
      .cls-1 {
        fill: #ffef76;
      }

      .cls-2 {
        fill: #ffdb03;
      }

      .cls-3 {
        fill: #ffeb6c;
      }

      .cls-4 {
        fill: #fefa97;
      }

      .cls-5 {
        fill: #ffcb68;
      }

      .cls-6 {
        fill: #fedc69;
      }

      .cls-7 {
        fill: #ffad04;
      }

      .cls-8 {
        fill: #fdde79;
      }

      .cls-9 {
        fill: #99321b;
      }

      .cls-10 {
        fill: url(#_未命名的渐变_33);
      }

      .cls-11 {
        fill: url(#_未命名的渐变_32);
      }
    </style>
    <linearGradient id="_未命名的渐变_32" data-name="未命名的渐变 32" x1="3038.13" y1="1708.77" x2="3529.7" y2="2411.55" gradientTransform="translate(-696 645) scale(.25 -.25)" gradientUnits="userSpaceOnUse">
      <stop offset="0" stop-color="#ff8300"/>
      <stop offset="1" stop-color="#ffc200"/>
    </linearGradient>
    <linearGradient id="_未命名的渐变_33" data-name="未命名的渐变 33" x1="3067.46" y1="1746.83" x2="3500.85" y2="2375.47" gradientTransform="translate(-696 645) scale(.25 -.25)" gradientUnits="userSpaceOnUse">
      <stop offset="0" stop-color="#ff8700"/>
      <stop offset="1" stop-color="#fff801"/>
    </linearGradient>
  </defs>
  <path class="cls-9" d="m65.58,18.6c18.08,2.19,43.25.65,62.05.61,15.66,0,31.33-.17,46.99-.01l.82,10.96c5.19.37,10.3.53,15.51.48,1.47,20.64,5.85,40.78,9.38,61.11,2.88,16.62,4.6,33.44,7.16,50.1,2.54,16.53,6.39,32.71,8.21,49.37,1.38,12.66,1.11,25.57,1.19,38.29-23.72.01-47.68.74-71.36-.25-.32-3.83-.71-7.67-.91-11.51-5.5-.01-11.26.31-16.71-.44-1.73,2.56-1.05,9.04-1.13,12.21-23.89-.02-47.87.39-71.75-.27l.09-11.52h-15.76c-.11-10.24-.56-20.69.22-30.91,1.31-17.22,5.06-33.87,8.02-50.83l9.34-56.32c3.35-20.24,4.73-40.98,8.66-61.09Z"/>
  <path class="cls-11" d="m72.5,26.28c32.03-.04,64.3-.94,96.3.21,4.62,32.23,9.67,64.36,14.88,96.51,4.76,29.39,10.85,57.15,10.18,87.16-19.15-.47-38.39-.12-57.55-.13-.53-11.85-2.58-23.66-4.16-35.41-3.41-2.82-19.78-1.17-24.79-1.13-.37,9.09-1.2,18.15-1.96,27.22l-.8,9.35-57.54.02c-.03-32.24,4.95-53.1,9.99-84.11l15.44-99.69Z"/>
  <path class="cls-10" d="m112.74,33.58c1.73-.82,45.41-1.4,49.39-.7,1.14,2.52,1.09,5.1,1.65,7.76,2.58,12.23,5.13,24.12,6.25,36.61,3.74,11.87,3.9,26.41,5.85,38.85,1.13,7.24,2.98,14.35,4.22,21.57,1.92,11.22,3.34,22.54,5.08,33.79,1.13,7.34,3.12,14.56,2.69,22.02-.21,3.63-.08,7.31-.1,10.95-7.93-.24-40.26,1.8-45.06-1.62-4.7-9.96-1.55-29.71-4.5-35.97-2.49.2-.61-.18-2.4.68-5.74,2.76-29.91-3.04-35.62,1.43l.47,1.35c.77,2.25.9,4.11.83,6.48-.02,2.53.32,3.9-1.07,6.05l-2.48.58c-.04.22-.12.43-.11.65.34,6.79.58,13.47.62,20.29-6.99-.03-39.23.78-42.7-2.3-1.81-3.51-2.08-8.07-2.01-11.97.17-10.92,2.85-23.15,4.57-33.98,2.27-14.25,4.14-28.8,6-43.1,1.49-5.97,5.22-15.32,4.53-21.32-.3-2.6-.15.83-.25-2.58-.01-.42-.01-.83-.02-1.25.33-2.96,1.42-5.73,1.96-8.66,1.65-9.07,3.17-19.08,3.65-28.27.09-4.83.63-10.48,2.67-14.86l.28-2.53c3.6-1.18,8.89-.48,12.64-.08,7.41-1.06,15.52-.4,22.98.14Z"/>
  <path class="cls-1" d="m81.19,61.26c.18-1.8.52-3.26,1.12-4.97,1.8-1.05,2.06-.89,4.17-.68-1.43,2.95-2.32,4.08-5.29,5.65Z"/>
  <path class="cls-8" d="m114.51,133.23l2.05-.17c2.08.77,3.38,1.18,4.7,3.11-2.82.71-4.24,1.03-6.96-.17l.21-2.77Z"/>
  <path class="cls-5" d="m62.89,165.33c1.06.75,1.53,1.36,2.3,2.39-.09,2.31-.38,2.63-1.69,4.57l-2.33-2.71c-.1-2.09.57-2.55,1.71-4.25Z"/>
  <path class="cls-6" d="m127.59,132.25c2-.25,3.26-.76,5.05.44.46.31,1.13.96,1.55,1.36-2.47,2.29-3.77,2.05-7.1,1.95l.51-3.75Z"/>
  <path class="cls-3" d="m93.58,110.35l3.66.97c1.47,1.87,1.13,2.54,1.09,4.86-1.74.17-2.69.04-4.33-.56-.94-2.06-.62-3.06-.41-5.28Z"/>
  <path class="cls-4" d="m93.81,66.71c1.38.25,2.33.72,3.55,1.39.99,2.24.64,3.43.42,5.84-1.59-.21-2.5-.54-3.88-1.36-.85-2.23-.41-3.53-.09-5.87Z"/>
  <path class="cls-8" d="m83.48,121.09c1.41.35,2.22.91,3.37,1.78.62,2.35.23,2.98-.46,5.25-2.08-.51-2.68-.56-4.19-2.01-.18-2.22.38-3.01,1.29-5.01Z"/>
  <path class="cls-5" d="m106.18,133.64c.78-.5,1.39-.93,2.25-1.32,2.01-.89,4.16.21,6.07.91l-.21,2.77c-1.23.19-2.83.59-4.06.47-2.19-.21-2.7-1.29-4.06-2.83Z"/>
  <path class="cls-6" d="m116.56,133.06c3.48.38,7.39-.83,11.03-.81l-.51,3.75-5.83.17c-1.31-1.93-2.62-2.33-4.7-3.11Z"/>
  <path class="cls-3" d="m86.48,55.61c1.73,1.87,2.38,2.01,2.44,4.64-.91,1.56-1.4,2.55-3.38,2.95-2.21.45-2.9-.59-4.35-1.94,2.97-1.56,3.86-2.69,5.29-5.65Z"/>
  <path class="cls-1" d="m139.24,43.94c1.59,1,2.53,1.8,3.66,3.3-.25,2.59-1.04,3.12-2.65,5.11-2.11-1.1-2.87-1.24-4.06-3.36.24-2.37,1.49-3.41,3.04-5.05Z"/>
  <path class="cls-5" d="m97.94,183.41c-1.85-1.38-3.55-2.18-4.13-4.49,1.66-1.57,5.42-1.75,7.68-2.14-.02,2.53.32,3.9-1.07,6.05l-2.48.58Z"/>
  <path class="cls-6" d="m83.27,98.87c2.26.35,3.7.67,5.28,2.37.26,2.5-.11,2.89-1.22,5.06-.43.01-.86.06-1.29.04-1.99-.12-2.41-.39-3.75-1.72-.38-2.41.06-3.6.98-5.75Z"/>
  <path class="cls-1" d="m116.16,43.85c2.17.66,3.31,1.07,5.03,2.65.56,2.41.16,2.85-.72,5.08-2.46,0-3.64.15-5.47-1.5-.44-2.31.4-4.1,1.16-6.24Z"/>
  <path class="cls-1" d="m93.94,43.09c2.29.66,3.7,1.12,5.03,3.19.31,2.35-.35,3.44-1.45,5.4-.42.06-.83.17-1.25.18-1.88.03-2.14-.5-3.22-1.84-.32-2.65.12-4.4.89-6.94Z"/>
  <path class="cls-3" d="m83.63,76.7c2.67.6,4.09,1.16,5.81,3.28-.2,2.61-.76,2.95-2.35,4.94-.61.07-1.45.19-2.04.11-1.99-.25-2.31-.78-3.39-2.27-.09-2.64.66-3.89,1.97-6.05Z"/>
  <path class="cls-2" d="m76.83,36.04c3.01,2.41,6.41,2.38,9.58,5.28-1.06.78-.95.98-2.33.9-2.13-.12-3.89-.41-5.85.62-2.18,2.83.03,5.65-2.25,7.96l-1.82.09c.09-4.83.63-10.48,2.67-14.86Z"/>
  <path class="cls-4" d="m76.83,36.04l.28-2.53c3.6-1.18,8.89-.48,12.64-.08l.61,2.12c-1.21,2.05-2.33,4-3.96,5.77-3.17-2.9-6.57-2.88-9.58-5.28Z"/>
  <path class="cls-4" d="m89.76,33.44c7.41-1.06,15.52-.4,22.98.14l1.92,1.21c-1.43,1.04-2.66,2.07-3.99,3.21-1.5,1.29-2.37,1.43-4.25,1.84-1.56-.32-2.18-.74-3.34-1.74-3.46-2.97-8.34-2.78-12.71-2.53l-.61-2.12Z"/>
  <path class="cls-8" d="m68.56,87.84c2.51.69,7.2,1.4,8.71,3.6l-.29,1.62c-2.69,1.76-6.51,3.22-7.2,6.69-.88,4.39-.89,8.57-2.22,12.95l-1.24.88-2.02-.59c1.49-5.97,5.22-15.32,4.53-21.32-.3-2.6-.15.83-.25-2.58-.01-.42-.01-.83-.02-1.25Z"/>
  <path class="cls-4" d="m112.74,33.58c1.73-.82,45.41-1.4,49.39-.7,1.14,2.52,1.09,5.1,1.65,7.76,2.58,12.23,5.13,24.12,6.25,36.61-.66-.17-1.36-.58-1.98-.87-1.49-5.22-.06-10.73-1.29-15.8-1.01-4.16-5.44-7.62-6.57-11.73-1.01-3.64,1.29-8.42.56-12.54-1.08-1.41-.8-1.59-2.66-1.96-3.17,2.22-5.6,4.76-8.2,7.58-.77-1.73-1.42-3.47-2.71-4.89-1.31-1.45-5.38-2.35-7.35-2.2-5.69.44-8.37,3.28-11.8,7.37-.8-1.9-1.64-3.69-2.61-5.51-2.29-1.53-6.96-.8-9.95-1.67-.27-.08-.54-.17-.81-.25l-1.92-1.21Z"/>
  <path class="cls-7" d="m106.18,133.64c-.86-.67-1.4-1.09-1.44-2.29-.22-5.58,2.03-12.4,2.57-18.11.4-4.27.06-8.49.31-12.75.31-5.16,1.76-10.2,2.24-15.33.35-3.67.15-7.43.73-11.08.3-1.93.99-4.45,2.35-5.93,2.22-2.4,11.37-1.64,14.62-1.33,1.08.1.88.17,2.16.75-1.14,20.39,4.28,40.05,5.99,60.14.17,2,.47,3.72-.5,5.56l-1.03.79c-.42-.4-1.08-1.05-1.55-1.36-1.79-1.2-3.05-.69-5.05-.44-3.64-.02-7.55,1.19-11.03.81l-2.05.17c-1.9-.7-4.06-1.8-6.07-.91-.87.39-1.47.81-2.25,1.32Z"/>
  <path class="cls-9" d="m118.26,72.51c1.74.23,3.09.64,4.71,1.3.68.9,1.05,1.64,1.27,2.76,1.15,5.81.7,11.98,1.2,17.88.78,9.08,2.83,18.4,2.78,27.52-.01,2.17.03,3.57-1.18,5.4l-2.81.15-11.41.17c.78-10.89,1.9-47.22,5.45-55.18Z"/>
</svg>