<svg width="200" height="200" viewBox="0 0 200 200" fill="none" xmlns="http://www.w3.org/2000/svg">
<path d="M119.345 29.7568C120.351 29.0416 121.56 28.896 122.744 29.1445C126.22 29.8737 127.512 34.105 127.655 37.246C127.704 38.3158 127.271 40.5125 127.843 41.3945C128.207 41.6755 128.567 41.8409 129.026 41.87C129.7 41.9126 130.4 41.6528 130.894 41.2011C132.477 39.4882 131.928 37.1573 132.709 35.1699C133.024 34.3682 133.626 33.7298 134.43 33.4081C135.086 33.1456 135.793 33.1654 136.439 33.4482C137.387 33.8635 138.107 34.7433 138.471 35.6991C139.082 37.3046 138.785 39.3124 138.105 40.8476C135.399 46.9641 127.798 48.6053 122.187 50.7382C120.119 51.5244 118.111 52.6475 116.136 53.6474C111.07 56.2119 106.634 58.4747 104.182 63.8847C104.616 64.2472 105.082 64.5721 105.539 64.9042C105.558 64.8796 105.577 64.8537 105.596 64.829C108.921 60.5596 114.245 57.2774 119.639 56.6572C122.009 56.3847 126.922 56.7099 128.786 58.245C129.147 58.5421 129.31 58.8292 129.352 59.2997C129.618 62.262 127.248 66.8273 125.413 69.0546C123.142 71.8111 119.945 73.7757 116.401 74.3339C115.011 74.5528 113.569 74.5622 112.165 74.7001C113.823 79.8889 116.759 87.2011 114.431 92.495C111.948 98.1385 104.724 100.86 99.4491 102.949C99.3172 104.092 99.2413 105.289 99.2489 106.439C99.2687 109.613 101.236 107.68 103.208 109.68C104.92 111.416 104.963 113.894 104.956 116.169C111.151 117.429 117.269 117.158 123.374 115.597C126.44 114.812 129.569 113.862 132.756 113.799C135.121 113.751 139.701 114.188 141.459 115.89C142.299 115.397 143.729 113.082 145.428 112.083C147.497 110.865 150.194 110.862 152.029 109.223C152.978 108.375 153.411 107.206 153.48 105.953C153.564 104.435 153.071 102.971 152.05 101.845C152.513 101.905 152.979 101.968 153.428 102.103C156.581 103.053 157.661 105.281 158.229 108.315C158.36 109.012 158.413 109.846 158.769 110.466C158.785 110.494 158.803 110.52 158.82 110.548L158.882 110.532C158.97 110.147 158.984 109.945 159.258 109.637L159.478 109.742C160.058 111.852 158.216 114.517 158.268 114.782C158.366 115.277 159.135 115.078 158.235 116.677C156.961 118.94 154.628 120.298 152.182 120.96C150.592 121.39 148.861 121.536 147.218 121.498C148.442 122.802 148.835 127.216 148.783 129.054C148.735 130.652 148.501 132.239 148.088 133.783C147.271 136.868 145.226 140.818 146.094 144.031C146.546 145.708 147.742 147.164 148.91 148.409C150.093 149.671 151.939 150.963 151.895 152.878C151.821 156.169 149.071 160.156 148.815 164.106C148.734 165.361 148.795 166.653 149.129 167.87C149.395 168.839 150.808 170.481 150.495 171.297C149.91 171.706 149.039 171.687 148.344 171.755C148.956 173.072 149.22 175.396 148.706 176.777C148.341 177.759 147.587 178.429 146.64 178.835C143.823 180.044 138.625 180.046 135.797 178.842C135.253 178.61 134.388 178.176 134.161 177.589C133.889 176.887 134.219 175.601 134.565 174.959C135.197 173.787 137.599 172.064 137.832 171.21C137.312 170.856 136.561 170.463 136.212 169.944C136.472 169.224 138.122 168.259 138.751 167.453C140.795 164.829 143.278 158.084 141.773 154.892C141.04 153.335 139.141 152.181 137.566 151.622C137.485 151.593 137.403 151.567 137.321 151.542C137.141 152.386 136.079 153.501 135.566 154.23C133.532 157.124 131.813 161.041 132.391 164.651C132.582 165.84 133.02 166.782 133.399 167.898C132.773 168.326 131.918 168.531 131.203 168.779C131.522 169.546 131.521 171.235 131.218 172.011C130.84 172.979 130.1 173.618 129.149 174.005C126.42 175.115 121.363 175.163 118.632 173.984C118.089 173.75 117.379 173.355 117.135 172.784C117.015 172.506 117.017 172.157 117.012 171.858C117.353 170.032 118.467 168.794 119.867 167.65C120.227 167.289 120.452 167.143 120.581 166.643C120.496 166.486 120.401 166.326 120.335 166.161C120.321 166.126 120.31 166.089 120.3 166.053C120.219 165.775 120.289 165.714 120.443 165.48C120.887 164.809 121.699 164.304 122.289 163.754C123.318 162.793 124.027 161.042 124.561 159.754C125.194 158.231 126.86 153.712 126.243 152.204C126.085 151.612 122.286 148.349 121.503 146.198C115.823 147.398 112.039 147.764 106.222 147.673C105.216 150.41 104.224 153.146 103.615 156.006C102.834 159.674 102.379 164.416 103.693 168.017C104.161 169.299 104.845 170.373 105.582 171.512C104.625 172.415 103.902 172.404 102.666 172.49C102.697 173.961 102.985 176.148 102.079 177.418C101.304 178.504 99.8062 178.892 98.5614 179.084C95.9712 179.484 91.2124 179.637 89.0311 177.977C88.3456 177.456 88.3669 176.924 88.2616 176.121C86.6706 175.966 85.0724 176.473 83.4715 176.435C81.4713 176.387 78.5427 176.267 77.1063 174.683C76.749 174.288 76.5585 173.772 76.62 173.237C76.8546 171.187 79.7122 169.07 81.1883 167.78C80.6292 167.414 80.0014 167.069 79.6053 166.518C79.7541 165.431 81.8916 164.151 82.6053 163.236C83.8007 161.704 84.4526 159.012 84.8846 157.139C86.3678 150.702 86.4112 143.275 82.8143 137.518C82.0178 137.423 80.6876 138.269 79.8416 138.405C79.4688 138.466 79.3464 138.47 79.036 138.24C79.0426 137.448 79.6851 136.541 79.9725 135.797C80.7535 133.776 79.1545 130.904 78.3397 129.014C77.2285 131.101 76.1481 133.377 74.3875 135.005C74.0024 135.361 73.6441 135.643 73.0936 135.617C72.795 135.281 72.8203 133.791 72.7528 133.285C72.6611 132.599 72.4551 131.684 71.869 131.237C70.9879 130.567 68.3586 130.34 66.8338 129.122C66.4264 128.796 66.3477 128.534 66.2957 128.037L66.5057 127.835C67.1021 127.744 67.7956 128.048 68.3641 128.226C68.5205 128.181 68.6769 128.133 68.8319 128.084C71.5892 127.197 74.0298 124.143 75.3036 121.634C74.5804 120.621 73.985 119.51 73.7694 118.272C73.4768 116.591 73.982 114.898 74.9647 113.528C76.7324 111.065 78.9713 110.31 81.8123 109.835C82.4504 107.638 82.8989 105.363 83.4051 103.132C78.2377 101.299 73.7025 98.9673 70.2489 94.5439C66.4405 89.6653 68.0887 86.2052 69.535 80.9443C70.1192 78.8184 70.4909 76.6186 70.7537 74.4316C69.403 74.5036 68.0481 74.4511 66.7069 74.2743C62.6644 73.7227 59.4428 71.5768 56.994 68.3417C55.3865 66.2185 53.0585 62.2541 53.4745 59.499C53.5643 58.902 53.7541 58.4036 54.2645 58.0429C56.59 56.398 61.8384 56.4421 64.5623 56.9697C69.8552 57.9948 73.665 60.6408 76.6815 65.0947L78.5721 63.8788C77.2459 61.9552 76.3996 60.0608 74.6981 58.3788C71.7179 55.4325 68.2567 54.109 64.535 52.4023C62.8557 51.6321 61.1866 50.7493 59.453 50.1103C54.9728 48.4589 50.203 47.8979 47.1034 43.8115C45.6084 41.841 44.483 38.6588 44.8592 36.1503C45.0568 34.8342 45.713 34.1513 46.7411 33.3866C47.5516 33.3149 48.5278 33.1348 49.3094 33.4033C51.429 34.1314 51.1502 37.1502 51.5321 38.9599C51.6791 39.6561 51.9736 40.2875 52.284 40.9228C52.7893 41.2844 53.3143 41.7233 53.9637 41.7382C54.8067 41.7574 55.3514 41.1069 55.8944 40.5566C55.5947 37.9588 55.4824 35.2805 56.5057 32.8124C57.1334 31.2978 58.1557 30.0369 59.7059 29.4238C60.7938 28.9938 61.9896 28.8948 63.078 29.374C63.7274 29.66 64.2392 30.0372 64.493 30.7333C65.4608 33.3857 62.8294 34.6691 61.8827 36.7001C60.9688 38.6609 60.9485 41.4169 61.7088 43.4306C62.3346 45.0874 63.3025 45.8553 64.8582 46.5507C67.6734 45.0277 68.3853 41.8162 71.5096 40.8505C72.3925 40.5776 73.2813 40.5898 74.1014 41.0449C74.798 41.4316 75.5777 42.1729 75.7782 42.9706C76.3359 45.1896 72.3021 45.9471 71.536 47.5468C71.3725 47.8883 71.4055 48.1481 71.5321 48.4921C72.9042 49.9698 74.7722 50.8461 76.4227 51.9599C77.6899 52.8149 78.9483 53.9554 80.0047 55.0605C80.8488 55.943 81.5887 57.1438 82.2078 58.1952C82.4718 58.6436 83.7498 61.3829 84.0272 61.5468C84.0578 61.5645 84.0983 61.5513 84.1336 61.5527C85.4552 61.6034 86.94 61.1359 88.2606 60.9501C91.614 60.4777 95.7397 60.766 98.95 61.8486C100.497 58.0532 102.931 54.5332 106.412 52.2734C107.72 51.424 109.214 50.8125 110.405 49.7939C110.856 49.4086 111.589 48.7502 111.597 48.1034C111.608 46.9524 109.202 45.7089 108.498 44.871C108.087 44.3819 107.816 43.7833 107.897 43.1298C108.031 42.0668 108.752 41.5396 109.526 40.9179C110.291 40.8174 111.095 40.7089 111.865 40.8085C114.63 41.1663 114.862 43.5936 116.289 45.4072C116.721 45.9562 117.428 46.5023 118.146 46.5478C118.759 46.5865 119.273 46.293 119.726 45.915C120.632 45.1607 121.253 44.0868 121.626 42.9794C123.457 37.5314 118.247 34.8424 118.72 30.9628C118.775 30.5089 118.96 30.0299 119.345 29.7568ZM94.0496 146.024C93.8359 148.163 93.3443 152.696 93.0877 153.723C92.831 154.749 92.1255 156.93 91.4842 159.495C90.8427 163.985 91.5918 167.086 91.8055 168.476C92.1261 168.476 92.4789 168.796 92.7674 168.476C95.6539 165.268 95.6537 163.023 95.9745 158.853C96.139 156.714 95.4402 149.617 95.0125 146.282L94.0496 146.024Z" fill="black"/>
<path d="M120.516 167.9C120.991 167.447 121.59 167.079 122.142 166.727C122.899 167.076 123.512 168.504 124.423 169.116L124.546 169.164C125.712 169.609 128.784 169.929 129.303 171.199C129.526 171.747 129.23 172.306 128.996 172.804C128.928 172.948 128.862 173.028 128.747 173.135C127.693 174.025 124.483 173.93 123.146 173.909C121.291 173.88 118.961 173.826 117.608 172.42C117.396 172.073 117.38 172.013 117.013 171.858C117.354 170.032 118.467 168.793 119.868 167.65L120.516 167.9Z" fill="#1E8334"/>
<path d="M117.013 171.859C117.354 170.032 118.467 168.793 119.868 167.65L120.516 167.9C119.169 169.14 117.694 170.454 117.608 172.42C117.396 172.074 117.38 172.014 117.013 171.859Z" fill="#000702"/>
<path d="M153.289 102.676C155.127 103.454 156.45 104.812 157.191 106.677C157.839 108.309 157.954 110.676 157.221 112.303C157.117 112.536 156.951 112.743 156.787 112.936C157.526 112.453 158.609 111.444 158.821 110.548L158.883 110.532C160.204 112.595 155.869 114.913 155.541 116.427L155.723 116.624C155.78 116.624 155.866 116.627 155.926 116.617C156.497 116.521 157.502 116.005 157.825 115.538C157.811 116.026 157.696 116.371 157.43 116.778C156.157 118.724 153.18 120.127 150.929 120.581C149.78 120.813 147.739 121.061 146.704 120.377C146.675 119.934 147.44 119.773 147.805 119.644C150.242 118.781 152.429 117.428 153.844 115.184C155.235 112.978 156 109.428 155.366 106.837C155.288 106.52 155.262 106.391 154.987 106.229L154.725 106.842L154.615 107.129C153.957 106.906 154.307 105.82 153.827 105.311C154.021 104.584 153.875 103.64 153.521 102.974C153.458 102.855 153.382 102.773 153.289 102.676Z" fill="#F1D8A6"/>
<path d="M153.827 105.311C154.307 105.819 153.957 106.906 154.615 107.129L154.725 106.841C154.95 107.474 155.014 108.064 154.702 108.69C154.649 108.797 154.586 108.887 154.517 108.984C154.618 109.949 152.455 113.059 151.806 113.857C150.151 115.89 147.869 116.857 145.298 117.085C144.773 117.132 144.244 117.151 143.717 117.17C143.292 116.828 142.798 116.585 142.32 116.323C143.338 115.55 143.837 114.113 145.001 113.342C147.616 111.61 152.107 111.672 153.618 108.468C154.021 107.612 154.132 106.205 153.827 105.311Z" fill="#CF7B31"/>
<path d="M143.717 117.17C144.243 117.151 144.772 117.132 145.297 117.085C147.869 116.857 150.151 115.89 151.805 113.857C152.454 113.059 154.617 109.949 154.517 108.984C154.992 110.227 154.478 112.086 153.966 113.253C152.84 115.815 150.742 117.732 148.144 118.726C147.385 119.017 146.64 119.221 145.832 119.324C145.507 118.635 144.363 117.576 143.717 117.17Z" fill="#A35A1F"/>
<path d="M122.141 166.727C122.682 166.638 122.996 166.47 123.467 166.829C124.161 167.357 124.656 168.106 125.379 168.644C127.103 168.877 128.771 168.949 130.508 168.942C130.827 169.483 130.815 170.803 130.66 171.417C130.513 171.999 130.187 172.657 129.644 172.956C129.361 173.112 129.061 173.128 128.745 173.135C128.86 173.028 128.927 172.948 128.995 172.803C129.229 172.306 129.525 171.747 129.301 171.199C128.782 169.929 125.71 169.609 124.544 169.164L124.422 169.116C123.511 168.504 122.898 167.076 122.141 166.727Z" fill="#135926"/>
<path d="M128.586 115.164C132.676 114.151 138.203 114.648 141.856 116.844C144.481 118.423 146.672 121.325 147.403 124.298C148.429 128.478 147.602 132.629 146.337 136.644C145.729 138.577 145.09 140.433 145.046 142.484C144.985 145.356 147.968 148.47 147.959 149.095C149.073 149.633 150.414 150.718 150.824 151.918C151.59 154.154 149.529 157.532 148.847 159.666C148.377 161.121 148.079 162.627 147.958 164.152C147.868 165.389 147.923 166.653 148.248 167.855C148.486 168.734 149.442 170.075 149.366 170.916C149.233 171.093 149.198 171.164 148.955 171.18C148.344 171.219 147.576 170.509 147.066 171.012C146.944 171.133 146.844 171.293 146.745 171.433L146.769 171.7C146.613 171.936 146.536 172.113 146.282 172.248C145.546 172.638 144.56 172.401 143.813 172.148C142.216 171.604 142.708 170.893 142.03 169.737C141.698 169.17 140.594 170.094 140.069 170.239C138.89 170.566 137.759 170.26 136.589 170.037C137.593 169.679 138.391 169.093 139.107 168.304C141.818 165.315 143.233 160.048 142.999 156.069C142.799 152.649 138.971 151.409 136.486 149.822C134.93 148.817 133.454 147.691 132.074 146.455C128.983 143.642 126.39 139.501 126.521 135.17C126.554 134.066 127.119 132.247 127.06 131.417C127.059 131.394 127.056 131.37 127.053 131.347L126.521 131.533L126.504 131.624C126.262 132.816 125.715 133.939 125.695 135.177C125.677 136.287 126.161 137.841 125.836 138.862C124.962 139.316 123.884 139.575 122.937 139.864C117.847 141.418 112.862 141.84 107.59 141.285C107.485 139.102 106.87 137.277 105.696 135.435C106.227 137.365 106.926 139.294 106.828 141.323C106.643 145.156 104.814 148.681 103.715 152.295C102.079 157.672 100.692 166.754 104.663 171.478C103.905 171.575 103.137 171.705 102.374 171.74L101.453 170.56C101.074 170.76 100.951 171.211 100.831 171.598C100.708 171.993 100.673 172.109 100.372 172.398C99.5901 172.675 98.5975 172.546 97.8512 172.194C97.0529 171.819 96.5547 171.177 96.2753 170.348C95.9421 169.359 96.1836 168.804 96.4606 167.849C95.832 168.641 94.8961 169.845 93.8123 169.938C93.5495 169.961 93.4517 169.867 93.229 169.743C93.1596 169.611 92.9487 169.317 92.9908 169.183C93.2068 168.487 93.99 167.819 94.4036 167.201C94.9533 166.381 95.3976 165.461 95.7242 164.528C97.6092 159.139 95.9223 150.669 95.0956 145.06L94.4925 145.206C91.1314 143.701 88.3857 142.239 85.6995 139.659C84.8691 138.726 83.6827 137.389 83.5607 136.098C83.5239 135.706 83.6137 135.581 83.8472 135.305C84.6649 135.029 85.3644 135.476 86.0833 135.827C86.5848 136.074 87.2366 136.375 87.8057 136.246C88.2944 136.135 88.5426 135.792 88.7813 135.383C88.3044 133.731 86.9866 132.704 86.1131 131.275C85.2935 129.934 85.0222 128.457 84.7641 126.934L84.6573 125.359C85.7543 125.417 86.8769 125.427 87.957 125.639L88.3875 125.529C90.5122 125.417 92.5961 125.166 94.6579 124.621C99.0754 123.455 102.397 121.17 104.7 117.191L104.965 117.083C110.999 118.211 116.738 118.014 122.705 116.632C124.671 116.177 126.596 115.503 128.586 115.164Z" fill="#CE7930"/>
<path d="M85.6995 139.659C84.8691 138.726 83.6827 137.389 83.5607 136.098C83.5239 135.706 83.6137 135.581 83.8472 135.305C84.6649 135.029 85.3644 135.476 86.0833 135.827C86.5848 136.074 87.2366 136.375 87.8057 136.246C88.2944 136.135 88.5426 135.792 88.7813 135.383C88.8578 136.813 90.5996 138.48 91.6333 139.413C92.2114 139.935 92.9407 140.693 93.7173 140.845L93.9735 140.701L94.0666 140.302L94.1961 140.279L94.4334 140.537C94.4835 141.893 94.8611 143.94 94.4925 145.206C91.1314 143.702 88.3857 142.239 85.6995 139.659Z" fill="#BDBB64"/>
<path d="M85.6995 139.659C84.8691 138.726 83.6827 137.389 83.5607 136.098C83.5239 135.706 83.6137 135.581 83.8472 135.305C84.6649 135.029 85.3644 135.476 86.0833 135.827L86.0753 135.974C85.9997 137.548 86.7573 138.156 85.6995 139.659Z" fill="#EDA64E"/>
<path d="M125.38 116.388C127.034 116.13 128.643 115.932 130.32 115.931C130.684 115.985 131.383 115.996 131.645 116.252C132.196 116.348 132.576 116.667 132.907 117.109C133.155 117.44 133.201 117.876 133.131 118.277C132.968 119.218 132.137 120.047 131.359 120.528C129.965 121.391 127.983 121.683 126.391 121.301C125.481 121.083 124.541 120.452 124.072 119.622C123.907 119.331 123.805 119.04 123.738 118.712L123.767 118.438C124.185 117.52 124.596 117.037 125.38 116.388Z" fill="#EAA34C"/>
<path d="M125.38 116.388C127.034 116.13 128.643 115.932 130.32 115.931C130.684 115.985 131.383 115.996 131.645 116.252L131.589 116.579C130.761 117.049 124.613 118.569 123.767 118.438C124.185 117.52 124.596 117.037 125.38 116.388Z" fill="#F2DAA7"/>
<path d="M84.6572 125.359C85.7543 125.417 86.8769 125.427 87.9569 125.639L88.3875 125.529C88.3794 126.229 88.3601 126.923 88.4574 127.618C88.7628 131.464 89.6939 134.421 92.0279 137.505C92.6769 138.363 93.7016 139.346 94.196 140.279L94.0665 140.302L93.9734 140.701L93.7172 140.845C92.9406 140.693 92.2113 139.935 91.6333 139.413C90.5995 138.48 88.8578 136.813 88.7812 135.383C88.3043 133.73 86.9865 132.704 86.113 131.275C85.2934 129.934 85.0221 128.457 84.7641 126.934L84.6572 125.359Z" fill="#F1D8A6"/>
<path d="M87.957 125.638L88.3876 125.529C88.3796 126.229 88.3602 126.923 88.4576 127.618C88.7629 131.464 89.6941 134.421 92.0281 137.505C92.677 138.362 93.7018 139.346 94.1962 140.279L94.0667 140.302C90.5014 137.184 88.4472 132.919 88.0709 128.203C87.9901 127.341 87.9566 126.504 87.957 125.638Z" fill="#59391E"/>
<path d="M84.6572 125.359C85.7543 125.417 86.8769 125.427 87.9569 125.639C87.9564 126.504 87.99 127.342 88.0708 128.203C87.9966 127.849 87.9479 127.614 87.7139 127.334C86.8249 126.869 85.7486 126.966 84.7641 126.934L84.6572 125.359Z" fill="#AC9179"/>
<path d="M128.586 115.163C129.09 115.113 129.457 115.075 129.941 115.276C130.175 115.53 130.247 115.582 130.32 115.931C128.643 115.931 127.034 116.13 125.38 116.388C124.596 117.037 124.185 117.52 123.767 118.437L123.739 118.712C123.365 118.521 117.341 119.505 116.189 119.544C113.988 119.617 106.783 119.461 105.26 117.944C104.93 117.615 104.977 117.534 104.965 117.083C110.999 118.211 116.738 118.013 122.705 116.632C124.671 116.176 126.596 115.503 128.586 115.163Z" fill="#EAA34C"/>
<path d="M88.388 125.529C90.5126 125.417 92.5966 125.166 94.6583 124.621C99.0758 123.455 102.397 121.17 104.701 117.19C104.368 120.141 103.415 122.142 101.048 124.029C97.6923 126.704 94.0004 127.26 89.8268 127.247C89.2785 127.246 88.673 127.028 88.4579 127.618C88.3606 126.923 88.3799 126.229 88.388 125.529Z" fill="#A35A1F"/>
<path d="M147.958 149.095C149.072 149.633 150.413 150.718 150.824 151.918C151.589 154.154 149.529 157.532 148.846 159.666C148.377 161.121 148.078 162.627 147.957 164.152C147.868 165.389 147.922 166.653 148.248 167.855C148.485 168.734 149.442 170.076 149.365 170.917C149.233 171.093 149.198 171.164 148.954 171.18C148.344 171.219 147.575 170.509 147.065 171.012C146.944 171.133 146.843 171.293 146.745 171.433C146.756 171.41 146.768 171.388 146.778 171.364C147.109 170.574 146.473 166.588 146.609 165.173C146.98 161.328 148.901 157.577 149.046 154.034C149.119 152.269 148.546 150.724 147.958 149.095Z" fill="#A35A1F"/>
<path d="M96.3795 135.897C95.1204 139.713 94.8599 140.947 95.0958 145.06L94.4927 145.206C94.8614 143.94 94.4837 141.893 94.4336 140.537C94.8538 138.758 95.3241 137.395 96.3795 135.897Z" fill="black"/>
<path d="M127.643 129.614C127.711 129.828 127.735 130.05 127.767 130.272C127.624 130.769 127.411 131.001 127.053 131.347L126.521 131.533C127.027 130.984 127.464 130.346 127.643 129.614Z" fill="#23120A"/>
<path d="M137.58 120.182C138.777 120.001 140.096 120.181 141.093 120.907C141.691 121.342 142.171 121.981 142.265 122.733C142.337 123.309 142.195 123.868 141.813 124.316C141.188 125.049 140.2 125.36 139.277 125.466C138.474 125.582 137.6 125.551 136.84 125.25C136.063 124.943 135.345 124.395 135.027 123.599C134.809 123.053 134.818 122.483 135.063 121.948C135.535 120.914 136.588 120.548 137.58 120.182Z" fill="#EAA34C"/>
<path d="M118.841 119.846C119.322 119.806 119.796 119.809 120.262 119.951C120.823 120.122 121.38 120.508 121.647 121.041C121.822 121.391 121.841 121.759 121.695 122.123C121.421 122.807 120.816 123.02 120.189 123.281C119.643 123.305 119.089 123.325 118.57 123.12C118.025 122.904 117.479 122.376 117.27 121.826C117.137 121.474 117.153 121.059 117.34 120.729C117.666 120.158 118.254 119.999 118.841 119.846Z" fill="#EAA34C"/>
<path d="M129.565 124.188C130.275 124.206 131.041 124.218 131.645 124.646C131.997 124.896 132.247 125.245 132.305 125.678C132.345 125.97 132.26 126.27 132.069 126.501C131.607 127.058 130.887 127.203 130.209 127.274C129.727 127.308 129.124 127.246 128.689 127.029C128.257 126.814 127.894 126.434 127.782 125.954C127.706 125.636 127.773 125.318 127.951 125.045C128.321 124.483 128.958 124.336 129.565 124.188Z" fill="#EAA34C"/>
<path d="M84.1174 86.8749C84.7191 85.8869 86.9661 85.3193 88.0561 85.0568C90.4289 84.4854 93.5428 84.1504 95.7023 85.4866C96.3801 85.9059 96.9658 86.483 97.5377 87.0355L98.0387 87.1089C98.942 87.4302 100.071 87.3411 101.032 87.3619C104.917 87.4449 108.557 87.3653 112.01 89.388C112.753 89.9319 113.378 90.5147 114.019 91.1709C112 95.4135 107.844 98.851 103.434 100.416C97.0457 103.39 89.3247 104.261 82.5883 102.003C77.1735 100.187 71.8419 96.4677 69.2588 91.2453C72.4327 88.2664 76.3903 87.5079 80.6178 87.5818C81.1921 87.5917 82.499 87.7751 82.9717 87.5752C83.1834 87.4856 83.4349 87.2781 83.6325 87.1511C83.8622 87.1047 83.9472 87.0246 84.1174 86.8749Z" fill="#F1D8A6"/>
<path d="M84.117 86.8749C84.7187 85.8869 86.9657 85.3193 88.0557 85.0568C90.4285 84.4854 93.5424 84.1504 95.702 85.4866C96.3798 85.9059 96.9654 86.483 97.5373 87.0355C97.8762 88.2451 97.8776 89.2591 97.2556 90.3868C96.4374 91.8703 94.7382 93.0544 93.1307 93.5111C92.7625 93.6158 92.3829 93.695 92.0062 93.7608C93.2214 94.8492 94.3946 95.7537 96.1297 95.658C97.3052 95.5931 98.408 94.9681 99.1746 94.0877C99.5423 93.666 100.196 92.2375 100.666 92.1768C100.818 92.5843 100.654 93.0818 100.478 93.4652C99.8212 94.8899 98.2628 95.5334 96.8756 96.0086C96.7721 96.0441 96.6681 96.0782 96.5636 96.1119C96.0569 97.8735 95.4359 99.3329 93.7414 100.267C92.4756 100.965 90.8628 101.092 89.4902 100.655C88.3237 100.283 87.394 99.4656 86.8523 98.3649C86.5148 97.6797 86.3314 96.869 86.1929 96.1195C84.4091 95.6693 82.5723 95.0662 81.5694 93.386C81.3094 92.9515 81.2238 92.6156 81.3316 92.1181L81.6421 91.7116C81.9976 92.0319 82.0992 93.0761 82.3535 93.5547C83.0942 94.9491 85.8985 95.7816 87.3793 95.7035C88.9367 95.6215 89.9378 94.9093 91.0429 93.8783C88.9788 93.4614 87.0267 92.7682 85.8072 90.9174C85.2495 90.0717 84.9848 88.9222 85.206 87.9267C85.2434 87.7604 85.2892 87.5984 85.3403 87.4359L85.8143 86.3404C85.1696 86.4015 84.697 86.5929 84.117 86.8749Z" fill="black"/>
<path d="M92.322 85.7439C92.8141 85.3706 93.1256 85.2208 93.7509 85.3028C94.5327 85.4051 95.1599 85.8117 95.6269 86.4423C96.0844 87.0607 96.299 87.7719 96.1615 88.539C95.9833 89.5302 95.2648 90.3722 94.4433 90.9095C92.9691 91.8742 90.8695 92.2788 89.1481 91.895C88.1985 91.6832 87.5018 91.2274 86.9899 90.3916C86.497 89.5861 86.0654 87.9112 85.3408 87.4359L85.8149 86.3405C86.2956 86.5916 86.7668 86.3338 87.2716 86.4158C88.9992 85.8666 90.4881 85.4743 92.322 85.7439Z" fill="#39291F"/>
<path d="M87.2705 86.4156C88.9981 85.8664 90.487 85.4741 92.3209 85.7437C92.3497 86.1858 92.4159 86.4459 92.1224 86.8164C91.6488 87.4139 90.538 87.6565 89.8163 87.675C88.9924 87.6963 88.1487 87.575 87.5083 87.0225L87.2705 86.4156Z" fill="#F8F8F9"/>
<path d="M89.6446 95.7405L90.1011 95.8002L90.1574 95.967C91.2365 96.0774 92.3978 95.7983 93.5038 95.83C93.9831 95.8438 94.3485 95.8651 94.6874 96.2228C94.6817 96.4422 94.6718 96.6687 94.5815 96.872C94.2951 97.5178 93.5142 97.9641 92.8918 98.2237C91.7805 98.6871 90.3484 98.9383 89.2083 98.4308C88.2838 98.0195 87.9789 97.1686 87.6504 96.2802C88.3258 96.1693 89.0528 96.1072 89.6446 95.7405Z" fill="#903922"/>
<path d="M95.4498 95.9695C95.6109 96.032 95.7371 96.1273 95.8794 96.2239C95.9692 96.485 95.9616 96.6887 95.8846 96.9493C95.5041 98.231 94.5059 99.2658 93.3346 99.8723C92.2073 100.457 90.8323 100.63 89.6166 100.228C88.4723 99.85 87.6863 99.0062 87.1621 97.9533C87.0666 97.6567 86.9536 97.3483 86.9054 97.0398C86.8558 96.7252 86.8 96.5466 86.9986 96.2836C87.5591 96.6475 87.5289 97.9614 88.7044 98.583C89.7428 99.1317 91.3688 99.1876 92.4786 98.8465C93.9732 98.3874 94.7498 97.2744 95.4498 95.9695Z" fill="#F7F7F9"/>
<path d="M91.7701 93.7537C92.1964 94.4094 92.6516 94.8709 93.2622 95.3533C92.2115 95.5234 91.157 95.6721 90.1001 95.8001L89.6436 95.7404C90.3568 95.0955 91.1263 94.4682 91.7701 93.7537Z" fill="#F1D8A6"/>
<path d="M68.8958 90.6892C68.6443 89.5582 68.52 88.5399 68.6302 87.3729C68.8296 85.2545 69.6109 83.2446 70.1115 81.1887C71.0956 77.1442 71.3801 73.1272 73.6678 69.5011C76.223 65.4504 80.5242 63.2353 85.0807 62.2171C91.5945 60.7616 98.7232 61.4202 104.426 65.0804C110.159 68.7596 112.266 76.9461 113.63 83.2294C114.141 85.5843 114.464 88.0415 114.24 90.4518C112.169 88.4518 110.13 87.5141 107.316 87.0081C109.326 85.6127 110.502 84.2311 110.95 81.7416C111.392 79.2825 110.902 75.8924 109.47 73.8204C108.542 72.4776 107.144 71.5328 105.526 71.275C103.597 70.9675 101.802 71.702 100.283 72.8533C98.3308 74.3335 97.1275 76.8651 96.8075 79.2603C96.3736 82.5078 97.2527 83.9671 99.012 86.4352C99.1098 86.5722 99.0578 86.5608 98.9926 86.7039L98.8881 86.7328C98.5686 86.8247 98.3186 86.9299 98.0387 87.109L97.5377 87.0356C96.9658 86.4831 96.3802 85.906 95.7024 85.4867C93.5428 84.1505 90.4289 84.4855 88.0561 85.0569C86.9661 85.3194 84.7191 85.887 84.1174 86.875C83.9473 87.0247 83.8622 87.1047 83.6325 87.1512C83.6311 87.1218 83.6277 87.092 83.6273 87.0621C83.6188 86.0543 84.9985 84.6281 85.4248 83.6672C86.8149 80.5334 85.6328 75.8801 83.3782 73.4982C82.1672 72.2194 80.4897 71.2428 78.6955 71.2082C77.0379 71.176 75.4237 71.9185 74.26 73.0803C72.6109 74.7263 71.8547 77.0006 71.8712 79.3057C71.8887 81.698 72.662 84.1282 74.3924 85.8302C74.8977 86.3277 75.4634 86.6873 76.0902 87.0095C73.3081 87.6714 70.8266 88.4002 68.8958 90.6892Z" fill="#CE7930"/>
<path d="M99.6631 62.1135C100.947 58.5205 103.45 55.109 106.685 53.0423C107.966 52.224 109.412 51.6023 110.628 50.6966C111.388 50.1299 112.23 49.3811 112.345 48.3846C112.582 46.3167 110.196 45.7288 109.144 44.434C108.842 44.0628 108.63 43.6143 108.699 43.125C108.768 42.6308 109.099 42.239 109.496 41.9622C110.147 41.5082 111.003 41.353 111.778 41.5017C114.056 41.9392 114.49 44.3874 115.62 46.0204C116.06 46.6564 116.645 47.1088 117.417 47.2437C118.344 47.4057 119.239 47.1653 120.003 46.6324C121.406 45.654 122.31 44.2858 122.636 42.6027C123.685 37.1886 119.112 33.168 119.585 31.2083C119.701 30.7283 120.036 30.2326 120.458 29.973C120.937 29.6776 121.52 29.6552 122.058 29.7669C123.369 30.0394 124.553 31.0816 125.244 32.1968C125.527 32.6533 125.94 33.2692 125.816 33.8245C126.466 34.2999 126.658 35.4155 126.771 36.1701C127.307 39.7565 126.344 44.5399 124.119 47.4439C123.781 47.8842 123.441 48.2646 122.908 48.4572C122.625 49.4524 120.866 50.3586 119.959 50.863C114.107 54.1188 108.219 55.6718 104.252 61.589L103.291 63.4335C102.121 62.8848 100.891 62.51 99.6631 62.1135Z" fill="#D7B894"/>
<path d="M120.37 49.5482C120.417 49.592 120.389 49.5691 120.473 49.6166C121.293 50.0803 122.097 48.6839 122.909 48.457C122.626 49.4522 120.866 50.3584 119.96 50.8628C114.108 54.1186 108.219 55.6716 104.253 61.5887C104.243 61.3158 104.207 61.0457 104.176 60.7747C106.251 55.1748 115.462 52.1462 120.37 49.5482Z" fill="#AC9179"/>
<path d="M125.816 33.8242C126.466 34.2996 126.658 35.4152 126.771 36.1698C127.307 39.7562 126.345 44.5396 124.119 47.4436C123.781 47.8839 123.441 48.2644 122.908 48.457C122.096 48.6839 121.293 50.0802 120.472 49.6166C120.388 49.5691 120.417 49.5919 120.369 49.5481C122.735 47.8479 124.294 45.9925 125.224 43.194C126.129 40.4696 125.932 38.144 125.854 35.3359C125.84 34.8023 126.065 34.3207 125.816 33.8242Z" fill="#AF977A"/>
<path d="M56.8615 35.2714C57.0108 33.8432 57.8299 31.7405 58.9483 30.8236C59.7858 30.1367 60.958 29.7676 62.0357 29.9045C62.5835 29.9741 63.1635 30.163 63.5298 30.6019C63.8611 30.9989 63.9396 31.5225 63.8777 32.0221C63.5227 34.8655 59.6913 35.6846 60.2835 41.2028C60.4471 42.7847 61.0308 44.2936 61.9742 45.5723C62.5448 46.3349 63.3677 47.1695 64.3555 47.3153C65.1832 47.4376 65.9706 47.0521 66.5978 46.5414C68.5447 44.9563 69.6602 41.166 72.6886 41.4586C73.3517 41.5227 74.0427 41.7592 74.4851 42.2849C74.747 42.5962 74.8846 42.9984 74.8207 43.4044C74.7144 44.0827 74.1756 44.645 73.6263 45.0134C72.5699 45.722 70.9879 46.0983 70.6627 47.5128C70.5209 48.1281 70.7185 48.7245 71.064 49.2302C72.0004 50.5995 73.9969 51.4205 75.3827 52.288C78.6961 54.3623 81.8497 58.2368 82.96 62.0043L80.2228 63.0429C80.1481 63.0794 80.0739 63.1173 79.9978 63.151C79.8971 63.195 79.5176 63.3613 79.4231 63.3466C79.2179 63.3144 76.5639 58.9923 76.0459 58.4351C72.837 54.9869 68.6241 53.1531 64.3617 51.419C63.4825 51.0487 62.5925 50.6075 61.8622 49.9876C61.8031 49.9516 61.7436 49.9168 61.6869 49.8769C59.0773 48.0265 57.3814 43.8837 56.844 40.8289C56.3269 39.2673 56.4625 36.8398 56.8615 35.2714Z" fill="#D7B894"/>
<path d="M65.7283 51.1157C67.0002 51.6208 68.3147 52.0073 69.571 52.5503C73.3117 54.1672 77.3392 56.893 79.0176 60.7763C79.3702 61.5922 79.6789 62.3257 80.2225 63.043C80.1478 63.0795 80.0736 63.1174 79.9975 63.1511C79.8968 63.1951 79.5173 63.3614 79.4227 63.3467C79.2176 63.3145 76.5636 58.9924 76.0455 58.4352C72.8366 54.987 68.6238 53.1532 64.3613 51.4192C64.8179 51.4366 65.2925 51.2431 65.7283 51.1157Z" fill="#AC9179"/>
<path d="M56.8438 40.8289C57.3226 41.1798 57.2398 41.5397 57.557 41.9017C57.7305 42.0992 57.9328 42.1263 58.0642 42.3857C58.6644 44.394 59.52 46.6268 60.9564 48.1832C61.0367 48.27 61.1072 48.3716 61.1785 48.4655C61.1946 49.1465 61.7372 49.3843 61.862 49.9876C61.8029 49.9516 61.7434 49.9168 61.6866 49.8768C59.0771 48.0265 57.3812 43.8836 56.8438 40.8289Z" fill="#AC9179"/>
<path d="M56.844 40.829C56.3269 39.2674 56.4625 36.8399 56.8615 35.2715C56.7561 36.8389 57.673 40.6246 58.0644 42.3858C57.933 42.1264 57.7307 42.0993 57.5572 41.9018C57.2401 41.5398 57.3228 41.1799 56.844 40.829Z" fill="#AF977A"/>
<path d="M61.1787 48.4656C62.5877 49.6707 64.1522 50.2185 65.7286 51.1156C65.2928 51.243 64.8182 51.4365 64.3616 51.4191C63.4825 51.0487 62.5924 50.6075 61.8622 49.9876C61.7374 49.3844 61.1948 49.1466 61.1787 48.4656Z" fill="#AF977A"/>
<path d="M115.667 58.5024C118.92 57.0579 123.559 56.7415 126.904 58.0728C127.472 58.2988 128.216 58.736 128.533 59.2856C128.577 59.3619 128.576 59.3937 128.587 59.4709C128.788 62.2892 126.196 66.8672 124.382 68.9614C121.818 71.927 118.168 73.7294 114.26 73.9597C113.694 73.9976 112.194 73.9872 111.781 73.5465C111.565 73.3153 111.421 72.9154 111.294 72.625C111.583 72.4762 111.877 72.3393 112.171 72.2004C111.93 72.1663 111.679 72.1322 111.445 72.064C110.638 71.8271 109.608 69.531 109.14 68.7643C109.031 68.5966 108.904 68.4085 108.856 68.2128C108.78 67.9034 108.947 67.575 109.095 67.3116C110.892 64.1024 115.699 61.0904 119.199 60.111C121.105 59.5775 124.798 58.9777 126.575 59.9788L126.833 59.9874L127.024 59.6192L126.857 59.3254C125.202 58.5394 122.611 58.7815 120.838 58.908C119.343 58.971 117.977 58.764 116.564 59.352C117.005 58.853 117.859 58.6285 118.134 58.0989C117.362 58.1364 116.63 58.4702 115.823 58.4982L115.667 58.5024Z" fill="#F26743"/>
<path d="M115.667 58.5024C118.92 57.0579 123.559 56.7415 126.904 58.0728C127.472 58.2988 128.216 58.736 128.533 59.2856C128.577 59.3619 128.576 59.3937 128.587 59.4709C128.788 62.2892 126.196 66.8672 124.382 68.9614C121.818 71.927 118.168 73.7294 114.26 73.9597C113.694 73.9976 112.194 73.9872 111.781 73.5465C111.565 73.3153 111.421 72.9154 111.294 72.625C111.583 72.4762 111.877 72.3393 112.171 72.2004C113.689 72.199 115.155 72.0905 116.627 71.6953C119.918 70.7965 122.717 68.6236 124.409 65.6556C124.862 64.8615 126.091 62.7312 125.852 61.8457L125.908 61.7964C125.931 61.7765 125.955 61.7571 125.979 61.7362C126.453 61.3027 126.559 60.5919 126.575 59.9788L126.833 59.9874L127.024 59.6192L126.857 59.3254C125.202 58.5394 122.611 58.7815 120.838 58.908C119.343 58.971 117.977 58.764 116.564 59.352C117.005 58.853 117.859 58.6285 118.134 58.0989C117.362 58.1364 116.63 58.4702 115.823 58.4982L115.667 58.5024Z" fill="url(#paint0_linear_3039_4451)"/>
<path d="M126.575 59.9788L126.833 59.9873C127.022 61.965 124.537 66.4264 123.215 68.027C120.947 70.7751 117.919 72.288 114.394 72.6102C113.368 72.704 112.322 72.6528 111.294 72.6249C111.583 72.4761 111.877 72.3392 112.171 72.2004C113.689 72.1989 115.155 72.0904 116.627 71.6953C119.918 70.7964 122.717 68.6235 124.409 65.6555C124.862 64.8614 126.091 62.7312 125.852 61.8456L125.908 61.7963C125.931 61.7764 125.955 61.757 125.979 61.7361C126.453 61.3026 126.559 60.5919 126.575 59.9788Z" fill="#23120A"/>
<path d="M109.14 68.7642C109.031 68.5965 108.904 68.4084 108.856 68.2127C108.78 67.9033 108.947 67.5749 109.095 67.3115C110.892 64.1023 115.699 61.0903 119.199 60.1109C121.105 59.5774 124.798 58.9776 126.575 59.9787C126.559 60.5918 126.453 61.3026 125.979 61.7361C125.955 61.757 125.931 61.7764 125.908 61.7963L125.852 61.8456L125.882 61.5016C123.868 60.7103 119.4 61.757 117.416 62.6288C114.883 63.7418 112.193 65.4745 110.245 67.4465C109.837 67.8592 109.528 68.3439 109.14 68.7642Z" fill="#D74832"/>
<path d="M128.237 144.221C128.419 144.219 128.607 144.256 128.788 144.279C129.782 144.933 130.552 146.325 131.491 147.157C132.748 148.271 135.911 150.084 136.675 151.135C136.526 151.834 135.823 152.618 135.416 153.21C133.569 155.896 131.65 158.826 131.462 162.19C131.387 163.518 131.565 164.967 131.952 166.247C132.095 166.722 132.373 167.162 132.37 167.669C132.37 167.693 132.368 167.717 132.367 167.742C130.154 168.547 127.368 168.309 125.172 167.646C125.024 167.502 124.884 167.352 124.741 167.204C124.226 166.672 124.435 165.742 124.008 165.363C122.89 165.777 121.82 166.055 120.647 166.266C121.312 165.703 121.985 165.138 122.592 164.512C125.082 161.945 127.165 156.797 127.054 153.208C127.037 152.653 126.961 152.014 126.686 151.522C126.05 150.388 124.734 149.311 123.867 148.318C123.22 147.578 122.768 146.642 122.064 145.982C124.142 145.79 126.309 144.993 128.237 144.221Z" fill="#A35A1F"/>
<path d="M86.9359 142.051C89.1239 143.605 91.275 144.855 93.7636 145.861C93.3278 149.18 92.8565 152.361 91.8979 155.574C91.5052 156.976 91.111 158.38 90.8491 159.814C90.5821 162.856 90.5433 165.657 91.4593 168.598C90.4899 168.601 90.0323 168.379 89.1929 167.957L89.0506 167.884L88.5028 168.062C88.3232 168.205 88.1384 168.343 87.9489 168.473C87.2574 168.944 86.347 169.416 85.4863 169.201C85.1034 169.106 84.7981 168.846 84.6199 168.494C84.1997 167.666 84.4644 166.775 84.696 165.937C83.8069 166.425 83.0483 166.72 82.0415 166.87C81.4531 166.957 81.1189 166.966 80.6363 166.609C80.616 166.497 80.5456 166.382 80.5758 166.272C80.6146 166.13 83.0355 163.836 83.4723 163.179C86.7214 158.292 86.8608 148.782 85.7949 143.192C85.9065 143.063 86.0171 142.922 86.1816 142.863C86.4751 142.757 86.6273 142.886 86.8962 142.998L86.9359 142.051Z" fill="#CE7930"/>
<path d="M86.9362 142.051C89.1241 143.605 91.2752 144.855 93.7638 145.861C93.328 149.18 92.8568 152.361 91.8982 155.574C91.5404 153.419 92.1884 151.44 92.5476 149.321C90.2094 147.563 88.7488 145.187 86.8965 142.998L86.9362 142.051Z" fill="#A35A1F"/>
<path d="M88.5025 168.062C88.3753 167.053 89.9271 161.569 90.4612 160.573C90.5954 160.322 90.7202 160.067 90.8488 159.813C90.5817 162.855 90.543 165.657 91.459 168.598C90.4896 168.6 90.032 168.379 89.1926 167.956L89.0503 167.883L88.5025 168.062Z" fill="#A35A1F"/>
<path d="M99.4467 109.917C99.6471 109.682 99.779 109.426 100.107 109.379C100.83 109.272 101.927 109.829 102.463 110.294C103.453 111.155 103.962 112.656 104.032 113.937C104.142 115.923 103.216 117.82 101.894 119.25C98.6848 122.724 92.8767 124.276 88.3046 124.393C87.2842 124.419 85.4077 124.391 84.5352 123.929C84.8684 123.432 85.2153 122.931 85.5022 122.405C86.4698 120.629 86.4102 119.011 85.8392 117.125C90.9709 115.673 96.0714 114.378 99.4467 109.917Z" fill="#F26743"/>
<path d="M99.4467 109.917C99.6471 109.682 99.779 109.426 100.107 109.379C100.83 109.272 101.927 109.829 102.463 110.294C103.453 111.155 103.962 112.656 104.032 113.937C104.142 115.923 103.216 117.82 101.894 119.25C98.6848 122.724 92.8767 124.276 88.3046 124.393C87.2842 124.419 85.4077 124.391 84.5352 123.929C87.6637 124.135 92.4537 122.93 95.2046 121.414C96.2458 120.84 97.1543 120.044 98.189 119.465L98.2627 119.424C99.2416 119.101 99.614 118.81 100.157 117.929C100.269 117.118 100.493 116.345 100.639 115.543C101.02 113.447 100.652 111.666 99.4467 109.917Z" fill="#9C3A11"/>
<path d="M98.2628 119.424C98.0014 119.331 97.7353 119.236 97.4867 119.113C96.9762 118.859 96.4822 118.465 96.3319 117.89C96.2284 117.496 96.3097 117.075 96.5186 116.73C96.8211 116.229 97.3874 115.85 97.9588 115.74C98.4268 115.65 98.9117 115.723 99.2998 116.008C99.9317 116.471 100.063 117.203 100.157 117.929C99.6141 118.81 99.2416 119.101 98.2628 119.424Z" fill="#F7F7F9"/>
<path d="M88.8908 118.255C89.069 118.257 89.2477 118.262 89.4245 118.287C89.9411 118.363 90.5456 118.695 90.842 119.125C91.0656 119.45 91.1133 119.863 91.0363 120.245C90.8793 121.018 90.2776 121.382 89.6655 121.773C89.416 121.786 89.1541 121.801 88.906 121.769C88.4423 121.708 87.9375 121.405 87.6799 121.012C87.4147 120.608 87.4076 120.072 87.5466 119.621C87.7701 118.895 88.2759 118.607 88.8908 118.255Z" fill="#F7F7F9"/>
<path d="M92.6987 104.326C92.927 104.278 93.1241 104.25 93.3581 104.255C94.9254 104.29 97.1947 103.589 98.6949 103.131C98.6699 105.221 98.831 107.553 98.573 109.613C97.3076 111.1 94.9831 113.086 93.0622 113.615L92.6122 113.655C91.4868 114.911 86.7399 115.788 85.1063 116.016C83.6685 115.008 82.7104 114.74 80.9805 114.714C82.2694 111.557 83.1306 108.346 83.8273 105.017L84.0698 103.523C86.9956 104.189 89.7049 104.45 92.6987 104.326Z" fill="#F1D8A6"/>
<path d="M92.6982 104.326C92.9265 104.278 93.1236 104.25 93.3576 104.255C94.925 104.29 97.1942 103.589 98.6944 103.131C98.6694 105.221 98.8306 107.553 98.5725 109.613C97.3072 111.1 94.9826 113.086 93.0617 113.615C93.1548 111.804 93.4677 109.972 93.6204 108.16C93.5557 107.522 93.5746 106.874 93.5741 106.233L93.5074 106.22L93.3293 107.046L93.2565 106.429C93.3179 105.831 93.5155 104.865 93.118 104.363L92.6982 104.326Z" fill="#F26743"/>
<path d="M92.6982 104.326C92.9265 104.278 93.1236 104.25 93.3576 104.255C94.925 104.29 97.1942 103.589 98.6944 103.131C98.6694 105.221 98.8306 107.553 98.5725 109.613C98.3749 108.241 98.4874 106.764 98.5196 105.379C96.9952 105.775 95.4331 106.006 93.9239 106.462C93.6516 106.886 93.6691 107.657 93.6204 108.16C93.5557 107.522 93.5746 106.874 93.5741 106.233L93.5074 106.22L93.3293 107.046L93.2565 106.429C93.3179 105.831 93.5155 104.865 93.118 104.363L92.6982 104.326Z" fill="#A5561F"/>
<path d="M84.0696 103.523C86.9954 104.188 89.7047 104.45 92.6985 104.326L93.1183 104.363C93.5158 104.865 93.3182 105.831 93.2568 106.429C90.0866 106.353 86.813 106.185 83.8271 105.017L84.0696 103.523Z" fill="#D7B894"/>
<path d="M93.3298 107.046L93.508 106.22L93.5746 106.233C93.5751 106.874 93.5562 107.522 93.621 108.16C93.4683 109.972 93.1554 111.804 93.0623 113.615L92.6123 113.655C92.8467 111.45 93.1218 109.255 93.3298 107.046Z" fill="#49110B"/>
<path d="M77.6169 86.8769C77.1698 86.7669 76.7302 86.6489 76.3076 86.4627C74.7923 85.7947 73.76 84.5831 73.1673 83.048C72.3042 80.812 72.2598 78.1359 73.2349 75.9303C73.9434 74.3278 75.1917 72.9059 76.8659 72.2999C78.2181 71.8105 79.6489 71.9664 80.9341 72.579C82.8786 73.5058 84.2252 75.2395 84.9044 77.2641C85.6815 79.581 85.6172 82.2676 84.5183 84.4713C84.1203 85.2697 83.3886 86.5196 82.4513 86.7679C82.137 86.8513 81.4389 86.8986 81.1515 86.7304C81.1113 86.7063 81.0725 86.6788 81.0333 86.6532L80.6344 86.3893C80.5895 86.3964 80.5441 86.404 80.4992 86.4101C79.5269 86.5466 78.5277 86.088 77.6051 86.3045C77.589 86.5063 77.5871 86.6764 77.6169 86.8769Z" fill="#F7F7F9"/>
<path d="M77.1882 77.469L78.3737 77.7301C78.9739 77.4619 79.7874 77.5927 80.3882 77.8201C81.3363 78.1792 82.0254 79.0312 82.422 79.9423C82.8507 80.9269 82.8956 82.0342 82.4735 83.0297C82.1233 83.8574 81.4814 84.5061 80.6439 84.8345C79.8172 85.1581 78.645 85.2566 77.8202 84.8823C76.9784 84.5004 76.3077 83.3471 76.017 82.5009C75.7835 81.821 75.7778 81.0581 75.8033 80.3455L76.0217 80.2105C75.8175 79.7092 75.6554 79.2155 75.8539 78.6763C76.0831 78.0551 76.6404 77.7552 77.1882 77.469Z" fill="black"/>
<path d="M77.1882 77.469L78.3737 77.7301C78.8354 78.3124 79.1928 78.8852 79.1072 79.6618C79.0609 80.0788 78.9012 80.4521 78.5637 80.7146C78.2371 80.9686 77.8098 81.0501 77.4061 80.9838C76.8772 80.897 76.4164 80.5526 76.0217 80.2105C75.8175 79.7092 75.6554 79.2155 75.8539 78.6763C76.0831 78.0551 76.6404 77.7552 77.1882 77.469Z" fill="#F7F7F9"/>
<path d="M77.1889 77.4692C77.6053 77.2678 77.6001 76.9802 77.8936 76.7803C78.5213 76.3534 80.0612 76.4709 80.7485 76.7083C81.8767 77.0977 82.7086 77.9904 83.2054 79.0598C83.8312 80.3893 83.8912 81.9164 83.3713 83.291C82.8088 84.7745 81.6839 85.3227 80.6346 86.3893C80.5897 86.3964 80.5443 86.4039 80.4994 86.4101C79.5271 86.5466 78.5279 86.0879 77.6053 86.3045C77.5892 86.5063 77.5873 86.6764 77.6171 86.8768C76.8802 86.0585 76.0748 85.489 75.4296 84.5509C74.6601 83.4322 74.2229 81.9648 74.4673 80.6049C74.5183 80.5921 74.5694 80.5803 74.6204 80.567C75.1389 80.431 75.251 80.2486 75.804 80.3457C75.7785 81.0584 75.7841 81.8212 76.0176 82.5011C76.3083 83.3474 76.979 84.5006 77.8208 84.8825C78.6456 85.2568 79.8178 85.1583 80.6445 84.8347C81.4821 84.5063 82.1239 83.8577 82.4742 83.0299C82.8963 82.0344 82.8514 80.9271 82.4227 79.9425C82.0261 79.0314 81.337 78.1795 80.3888 77.8203C79.7881 77.5929 78.9746 77.4621 78.3743 77.7303L77.1889 77.4692Z" fill="#59391E"/>
<path d="M74.4668 80.6047C74.6209 79.0913 75.1862 77.6239 76.4042 76.6531C77.368 75.885 78.6253 75.505 79.85 75.6775C81.1786 75.8647 82.3867 76.6597 83.1808 77.7296C84.0982 78.9663 84.5255 80.6123 84.2679 82.1361C83.9267 84.1526 82.581 85.4632 81.033 86.653L80.6341 86.389C81.6834 85.3225 82.8083 84.7743 83.3708 83.2908C83.8907 81.9162 83.8307 80.3891 83.2049 79.0596C82.7081 77.9902 81.8763 77.0975 80.748 76.7081C80.0608 76.4707 78.5208 76.3532 77.8931 76.7801C77.5996 76.98 77.6048 77.2676 77.1884 77.469C76.6406 77.7552 76.0833 78.0551 75.8541 78.6763C75.6555 79.2155 75.8177 79.7092 76.0219 80.2105L75.8035 80.3455C75.2505 80.2484 75.1385 80.4308 74.6199 80.5668C74.5689 80.5801 74.5178 80.5919 74.4668 80.6047Z" fill="#23120A"/>
<path d="M56.415 59.9913C61.5647 59.463 66.3249 59.8383 70.5009 63.2285C71.847 64.3215 73.0447 65.7184 73.9532 67.1938C73.9811 67.9178 71.9619 71.0398 71.466 71.9476C69.0696 72.167 66.6231 71.84 64.4427 70.7924C60.7527 69.0194 58.2381 65.8079 56.8943 61.9937C56.631 61.3384 56.5252 60.6864 56.415 59.9913Z" fill="#F26743"/>
<path d="M56.415 59.9913C61.5647 59.463 66.3249 59.8383 70.5009 63.2285C71.847 64.3215 73.0447 65.7184 73.9532 67.1938C72.5456 66.8607 71.7099 65.5018 70.6271 64.6148C69.8226 63.9562 68.9434 63.3948 68.008 62.9427C65.6414 61.7994 59.7974 60.5144 57.3712 61.4602C57.0427 61.5881 57.0361 61.69 56.8943 61.9937C56.631 61.3384 56.5252 60.6864 56.415 59.9913Z" fill="#D74832"/>
<path d="M120.566 141.275C121.797 140.914 125.107 140.147 125.988 139.478C126.572 140.153 127.947 142.528 127.945 143.402C123.57 145.862 111.478 147.603 106.533 146.903C106.852 145.78 107.105 144.648 107.352 143.507C107.385 143.117 107.37 142.541 107.566 142.2C107.748 141.884 108.56 142.058 108.898 142.096C112.896 142.544 116.651 142.288 120.566 141.275Z" fill="#BDBB64"/>
<path d="M107.352 143.507C107.384 143.117 107.37 142.54 107.565 142.2C107.747 141.883 108.559 142.058 108.898 142.096C112.895 142.544 116.65 142.288 120.565 141.275C120.941 141.358 121.011 141.366 121.279 141.637C120.861 142.395 119.178 142.814 118.361 143.056C115.704 143.845 109.878 144.797 107.352 143.507Z" fill="#F1D8A6"/>
<path d="M45.9931 35.342C46.3684 34.776 46.6846 34.2908 47.3993 34.1412C48.0029 34.015 48.9817 34.0049 49.5102 34.3559C50.0835 34.7364 50.2253 35.5885 50.3213 36.2195C50.612 38.1306 50.5548 41.0082 52.3476 42.2542C52.9809 42.6943 53.662 42.6404 54.3753 42.4872C55.0413 42.3444 55.5891 42.0146 56.1416 41.63C56.62 43.5784 57.2959 45.2417 58.1963 47.0304C58.7049 47.4575 59.3297 48.6425 59.7391 49.2162C58.227 48.8191 56.7254 48.3822 55.236 47.9059C51.6296 46.7223 48.3687 44.9538 46.6071 41.3827C45.6745 39.4919 45.3153 37.3644 45.9931 35.342Z" fill="#D7B894"/>
<path d="M45.9931 35.3423L46.0621 35.4853C46.5877 36.6012 46.7479 37.8808 47.1544 39.05C48.9165 44.1189 51.8811 45.1746 56.5179 46.905C56.9655 47.072 57.5114 47.3782 57.985 47.278L58.1963 47.0307C58.7049 47.4578 59.3297 48.6429 59.7391 49.2165C58.227 48.8194 56.7254 48.3825 55.236 47.9063C51.6296 46.7226 48.3687 44.9542 46.6071 41.3831C45.6745 39.4922 45.3153 37.3648 45.9931 35.3423Z" fill="#AF977A"/>
<path d="M101.301 86.1837L101.487 86.3766L101.377 86.5509C101.176 86.5542 100.976 86.5523 100.776 86.532C99.8065 86.432 99.0488 85.8411 98.4542 85.0977C97.2862 83.6374 97.0617 81.4541 97.281 79.6555C97.576 77.231 98.7931 74.8591 100.754 73.377C102.05 72.3981 103.727 71.8072 105.359 72.0446C106.871 72.2644 108.122 73.2244 109.004 74.4393C110.445 76.4203 110.897 79.1025 110.517 81.4934C110.249 83.1821 109.549 84.8575 108.115 85.8696C107.472 86.323 106.431 86.7386 105.638 86.595C106.998 85.4934 108.089 84.7755 108.639 83.0068C109.086 81.5389 108.933 79.953 108.213 78.5984C107.544 77.3267 106.387 76.3833 105.009 75.9867C103.779 75.6394 102.462 75.8095 101.36 76.4582C99.858 77.3376 99.1845 78.8107 98.7713 80.4354L98.7855 80.5392C98.821 80.8102 98.8437 80.9893 98.751 81.2475L99.0994 81.4816L99.037 81.4835L99.3523 81.0215C99.6184 81.0348 99.6382 81.0253 99.841 81.194C100.432 82.3344 100.644 83.5384 101.344 84.6666L101.196 85.1849L101.461 85.5787L101.301 86.1837Z" fill="#F7F7F9"/>
<path d="M99.8402 81.1941C100.431 82.3346 100.643 83.5385 101.343 84.6667L101.195 85.185L101.46 85.5788L101.3 86.1838C100.397 85.7034 99.8241 84.9467 99.3184 84.0792C100.008 83.1675 99.2446 82.1834 99.8402 81.1941Z" fill="#39291F"/>
<path d="M99.3188 84.0789C98.7389 82.9058 98.6146 81.7184 98.771 80.4353L98.7852 80.5391C98.8206 80.8101 98.8433 80.9892 98.7507 81.2474L99.099 81.4815L99.0366 81.4834L99.3519 81.0214C99.618 81.0347 99.6379 81.0252 99.8406 81.1939C99.2451 82.1832 100.008 83.1673 99.3188 84.0789Z" fill="#23120A"/>
<path d="M139.393 171.285C139.924 171.124 140.629 170.822 141.175 170.956C142.472 171.939 143.86 173.625 145.67 173.348C146.313 173.249 147.315 172.594 147.661 172.036C147.676 172.011 147.686 171.984 147.699 171.959C148.207 172.532 148.464 174.223 148.423 174.976C148.368 176.009 147.962 176.957 147.176 177.638C146.348 178.356 145.321 178.561 144.253 178.506C144.183 178.539 144.166 178.55 144.082 178.572C141.732 179.209 137.646 179.098 135.513 177.914C135.366 177.791 135.007 177.487 134.949 177.317C134.719 176.632 134.952 175.997 135.272 175.388C135.963 174.072 137.944 171.722 139.393 171.285Z" fill="#1E8334"/>
<path d="M139.394 171.285C139.924 171.124 140.63 170.822 141.175 170.956C142.472 171.939 143.86 173.625 145.671 173.348C146.314 173.249 147.316 172.594 147.661 172.036C147.676 172.011 147.686 171.984 147.699 171.959C148.207 172.532 148.464 174.223 148.423 174.976C148.368 176.009 147.962 176.957 147.176 177.638C146.348 178.356 145.322 178.561 144.253 178.506C144.949 177.972 145.979 177.072 146.368 176.282C146.544 175.926 146.604 175.521 146.442 175.147C145.863 173.815 143.457 173.779 142.287 173.28C141.546 172.965 140.897 172.492 140.138 172.197C140.055 171.766 139.723 171.529 139.394 171.285Z" fill="#135926"/>
<path d="M135.513 177.914C135.366 177.79 135.007 177.487 134.949 177.317C134.719 176.632 134.952 175.997 135.272 175.388C135.963 174.071 137.944 171.722 139.393 171.284C139.722 171.529 140.055 171.766 140.138 172.197C140.249 173.12 139.489 174.585 138.939 175.296C138.065 176.428 136.827 177.357 135.513 177.914Z" fill="#6AA92B"/>
<path d="M127.127 42.2588C128.375 42.6255 129.639 42.8698 130.883 42.3164C133.282 41.2499 132.72 37.5594 133.523 35.4826C133.729 34.9497 133.927 34.58 134.488 34.3575C135.082 34.1216 135.919 34.1297 136.484 34.4488C136.851 34.6557 136.936 34.829 137.064 35.1999C137.506 35.4598 137.698 35.7421 137.826 36.2353C138.262 37.9118 137.652 40.1119 136.788 41.5593C134.397 45.561 128.448 48.2324 124.115 49.2724C123.73 49.364 123.344 49.4482 122.956 49.5251C123.649 49.0513 124.611 48.3497 124.893 47.5138C125.99 46.4418 127.064 43.7933 127.127 42.2588Z" fill="#D7B894"/>
<path d="M137.064 35.1997C137.506 35.4596 137.698 35.742 137.826 36.2352C138.262 37.9116 137.652 40.1118 136.788 41.5591C134.397 45.5608 128.448 48.2322 124.115 49.2723C123.73 49.3639 123.344 49.4481 122.956 49.5249C123.649 49.0511 124.611 48.3495 124.893 47.5137L125.277 47.7977C125.403 47.8012 125.506 47.8063 125.629 47.7722C129.083 46.8111 133.745 43.5332 135.636 40.4025C136.467 39.0274 137.458 36.7948 137.064 35.1997Z" fill="#AC9179"/>
<path d="M93.387 171.361C94.0123 170.838 94.6462 170.539 95.3831 170.204L95.4738 170.164C95.9772 171.37 96.4588 172.368 97.7369 172.914C98.7092 173.329 99.8573 173.227 100.823 172.838C101.249 172.666 101.654 172.381 102.024 172.111C102.054 173.628 102.432 176.013 101.297 177.192C100.707 177.806 99.9201 177.86 99.1237 178.001C95.9763 178.639 92.1888 179.004 89.3131 177.275C89.0758 176.878 88.96 176.456 89.0933 176C89.6189 174.2 91.7795 172.258 93.387 171.361Z" fill="#1E8334"/>
<path d="M93.3867 171.361C94.0121 170.838 94.6459 170.539 95.3828 170.204L95.4735 170.164C95.9769 171.37 96.4585 172.368 97.7366 172.914C98.7089 173.329 99.857 173.227 100.823 172.838C101.249 172.666 101.654 172.381 102.024 172.111C102.054 173.628 102.432 176.013 101.297 177.192C100.706 177.806 99.9199 177.86 99.1234 178.001C99.2397 177.919 99.3508 177.832 99.4519 177.732C99.908 177.28 100.526 176.54 100.475 175.858C100.35 174.222 96.8367 173.72 95.6522 173.189C95.2183 172.995 94.8283 172.676 94.4564 172.383L93.3867 171.361Z" fill="#135926"/>
<path d="M93.387 171.361L94.4566 172.384C92.5802 173.797 91.3149 175.92 89.3131 177.275C89.0758 176.878 88.96 176.456 89.0933 176C89.6189 174.2 91.7795 172.258 93.387 171.361Z" fill="#6AA92B"/>
<path d="M81.6 168.43C82.0963 168.086 82.5401 167.726 83.1546 167.648C83.5356 167.787 83.6452 167.865 83.8111 168.263C84.1164 168.997 84.1391 169.694 84.9758 170.043C86.3748 170.628 89.1026 168.356 89.6925 169.603C90.1656 170.602 89.9373 172.266 89.5289 173.255C89.2122 174.022 88.6587 174.797 87.8595 175.101C87.4114 175.272 86.9491 175.305 86.475 175.329C84.6586 175.687 82.5812 175.655 80.7558 175.363C79.6914 175.193 78.0262 174.883 77.3508 173.955C77.2652 173.525 77.2057 173.396 77.3612 172.995C78.1377 171.288 79.8441 169.57 81.392 168.54L81.6 168.43Z" fill="#1E8334"/>
<path d="M81.5996 168.43C82.0959 168.086 82.5397 167.726 83.1542 167.648C83.5352 167.787 83.6448 167.865 83.8107 168.263C84.1161 168.997 84.1388 169.694 84.9754 170.043C86.3744 170.628 89.1022 168.356 89.6921 169.603C90.1652 170.602 89.9369 172.266 89.5285 173.255C89.2118 174.022 88.6583 174.797 87.8591 175.101C87.411 175.272 86.9487 175.305 86.4746 175.329C87.0598 174.741 87.5755 174.168 88.0217 173.464C88.2916 173.038 88.5903 172.594 88.4702 172.073C87.9654 171.326 85.6985 171.352 84.8123 170.929C83.6037 170.352 82.8857 169.064 81.5996 168.43Z" fill="#135926"/>
<path d="M81.3922 168.54C81.5406 168.959 81.5657 169.115 81.362 169.54C80.8264 170.66 78.8048 172.708 77.6728 173.152C77.5164 173.11 77.4658 173.127 77.3613 172.995C78.1379 171.287 79.8442 169.569 81.3922 168.54Z" fill="#6AA92B"/>
<path d="M83.7483 124.376C83.6362 125.638 83.7251 126.903 83.7832 128.166C84.3958 128.608 84.5702 129.555 84.7598 130.249C85.1176 132.2 86.5932 133.776 87.7938 135.279C86.3654 134.941 84.9469 134.534 83.614 133.908C82.8422 135.848 82.058 136.706 80.2501 137.786C80.8929 135.619 81.1137 134.024 80.2841 131.845C80.009 131.142 79.7694 130.42 79.5142 129.71C79.2925 129.211 79.1195 128.664 79.0027 128.13C78.8439 127.405 78.4256 125.299 78.8222 124.69L79.1337 124.664C80.7516 124.756 82.1606 124.746 83.7483 124.376Z" fill="#F26743"/>
<path d="M83.7483 124.376C83.6362 125.638 83.7251 126.903 83.7832 128.166L83.5805 128.149C82.0722 128.394 80.7818 128.833 79.5142 129.71C79.2925 129.211 79.1195 128.664 79.0027 128.13C78.8439 127.405 78.4256 125.299 78.8222 124.69L79.1337 124.664C80.7516 124.756 82.1606 124.746 83.7483 124.376Z" fill="#F26743"/>
<path d="M83.7484 124.376C83.6364 125.638 83.7252 126.903 83.7834 128.166L83.5806 128.149L83.5631 125.825C81.9173 125.636 80.557 125.616 79.1338 124.664C80.7517 124.756 82.1607 124.746 83.7484 124.376Z" fill="#9C3A11"/>
<path d="M83.58 128.149L83.7827 128.166C84.3953 128.608 84.5697 129.555 84.7593 130.249C83.1291 130.35 81.4993 130.662 80.2836 131.845C80.0085 131.142 79.7689 130.42 79.5137 129.71C80.7814 128.833 82.0717 128.394 83.58 128.149Z" fill="#F7F7F9"/>
<path d="M80.7921 115.768C81.8419 115.588 82.8199 115.509 83.7411 116.146C84.4893 116.663 84.8967 117.46 85.0376 118.348C85.2333 119.579 84.9946 121.017 84.2468 122.033C83.5988 122.914 82.6166 123.437 81.5413 123.574C80.5099 123.705 79.2409 123.589 78.4028 122.912C78.0672 122.641 77.7227 122.145 77.6277 121.725C77.2231 120.512 77.2722 119.245 77.8612 118.092C78.5021 116.837 79.4876 116.194 80.7921 115.768Z" fill="#CF7B31"/>
<path d="M77.6277 121.725C77.2231 120.512 77.2722 119.244 77.8612 118.092C78.5021 116.837 79.4876 116.194 80.7921 115.768C81.2416 115.801 81.7809 115.785 82.2049 115.937L81.9478 115.919L82.0182 115.923C81.6146 116.455 79.748 116.833 78.8963 117.942C78.071 119.018 78.477 120.827 77.6792 121.666C77.6612 121.685 77.6447 121.705 77.6277 121.725Z" fill="#D7B894"/>
<path d="M73.4657 125.571C74.2466 124.496 75.0416 123.43 75.8513 122.376L77.7282 123.796C77.7329 125.285 77.8804 126.94 77.5765 128.397C77.3406 129.044 77.1378 129.639 76.7049 130.183C75.6433 131.306 74.5647 133.506 73.5943 134.848C73.5517 133.988 73.5499 132.93 73.2488 132.122C72.4415 129.956 69.2822 129.692 67.3896 128.84C69.2841 128.579 70.5919 128.316 72.0662 126.993C72.4977 126.481 72.9798 126.03 73.4657 125.571Z" fill="#F26743"/>
<path d="M73.4658 125.571C74.2467 124.496 75.0417 123.43 75.8514 122.376L77.7283 123.796C77.733 125.285 77.8805 126.94 77.5766 128.397C77.5501 128.281 77.5331 128.199 77.4702 128.097C76.6095 126.692 74.9599 126.027 73.4658 125.571Z" fill="#F26743"/>
<path d="M73.466 125.571C74.96 126.027 76.6096 126.691 77.4704 128.097C77.5332 128.199 77.5502 128.281 77.5767 128.397C77.3409 129.044 77.1381 129.639 76.7051 130.182C75.3609 128.731 73.8361 127.823 72.0664 126.992C72.4979 126.481 72.9801 126.03 73.466 125.571Z" fill="#F7F7F9"/>
<path d="M54.2354 59.0267C55.5768 57.6095 58.5966 57.3769 60.4683 57.3233C65.2077 57.1875 69.9764 58.7523 73.442 62.0643C74.0262 62.6229 74.5655 63.2233 75.0977 63.8312C75.5647 64.2827 75.8743 64.883 76.2037 65.4379L74.4913 67.0166C73.6906 65.5379 72.49 64.0918 71.2332 62.9774C67.3664 59.5498 62.2077 58.8192 57.2566 59.1153C56.9952 59.1906 56.801 59.2304 56.5287 59.2115C55.6945 59.2029 54.9888 59.4844 54.2354 59.0267Z" fill="#A35A1F"/>
<path d="M54.2354 59.0267C55.5768 57.6095 58.5966 57.3769 60.4683 57.3233C65.2077 57.1875 69.9764 58.7523 73.442 62.0643C74.0262 62.6229 74.5655 63.2233 75.0977 63.8312L74.9233 64.1387C74.1689 64.2202 71.7064 61.7227 70.8835 61.1792C69.9939 60.5912 69.0434 60.1179 68.0664 59.6943C64.511 58.1534 60.9443 57.6432 57.2566 59.1153C56.9952 59.1906 56.801 59.2304 56.5287 59.2115C55.6945 59.2029 54.9888 59.4844 54.2354 59.0267Z" fill="#CF7B31"/>
<path d="M56.5289 59.2116C56.4112 59.2628 56.3276 59.3126 56.2364 59.4045C55.9561 59.6888 55.8937 60.0186 55.8979 60.4151C55.914 61.9839 56.9269 63.9986 57.7526 65.3196C60.0058 68.9239 63.3079 71.7118 67.6062 72.3813C68.5823 72.5334 70.533 72.3164 71.2372 73.0172C71.0127 73.3441 70.8232 73.4361 70.4493 73.5455C68.0746 74.242 64.3118 73.1338 62.1758 71.971C58.4479 69.9417 55.5874 65.6631 54.4166 61.6475C54.2129 60.9496 53.865 59.7073 54.2356 59.0269C54.989 59.4846 55.6947 59.2031 56.5289 59.2116Z" fill="#A35A1F"/>
<path d="M74.9339 114.862C75.7473 112.962 77.3255 111.566 79.2299 110.823C79.9791 110.531 80.8161 110.488 81.6107 110.415C81.0832 111.895 80.5425 113.36 79.9337 114.808C78.4722 115.749 77.5118 116.626 76.6388 118.161C76.3069 119.235 76.2639 120.325 76.2871 121.438C75.3749 120.325 74.7892 119.353 74.3993 117.954C74.2565 116.753 74.3946 115.945 74.9339 114.862Z" fill="#F26743"/>
<path d="M74.9339 114.862C75.4722 115.007 76.055 115.124 76.3589 115.646C76.4615 115.822 76.5423 116.022 76.5792 116.223C76.5764 116.842 76.5055 117.559 76.6388 118.161C76.3069 119.235 76.2639 120.325 76.2871 121.438C75.3749 120.325 74.7892 119.353 74.3993 117.954C74.2565 116.753 74.3946 115.945 74.9339 114.862Z" fill="#F7F7F9"/>
<path d="M76.5793 116.223C76.5765 116.842 76.5056 117.559 76.6389 118.161C76.3071 119.235 76.2641 120.325 76.2872 121.438C75.375 120.325 74.7894 119.353 74.3994 117.954C74.7161 118.087 75.1278 118.074 75.4412 117.933C76.1057 117.633 76.36 116.857 76.5793 116.223Z" fill="#F26743"/>
<path d="M115.666 58.5024L115.823 58.4982C116.629 58.4702 117.362 58.1365 118.134 58.0989C117.859 58.6285 117.004 58.853 116.563 59.352C117.977 58.764 119.343 58.971 120.838 58.908C115.003 60.393 112.031 62.88 108.114 67.3263L106.881 66.0802L106.593 65.7011C106.568 65.396 106.563 65.3121 106.699 65.0392C107.922 62.5896 113.081 59.3378 115.666 58.5024Z" fill="#CE7930"/>
<path d="M115.666 58.5024L115.823 58.4982C116.629 58.4702 117.362 58.1365 118.134 58.0989C117.859 58.6285 117.004 58.853 116.563 59.352C112.506 59.9878 109.85 64.3687 106.881 66.0802L106.593 65.7011C106.568 65.396 106.563 65.3121 106.699 65.0392C107.922 62.5896 113.081 59.3378 115.666 58.5024Z" fill="#CF7B31"/>
<path d="M101.851 77.5794L101.929 77.4244L101.888 77.0653C102.32 76.6142 103.102 76.4536 103.708 76.4502C104.899 76.4436 106.05 77.0596 106.863 77.9053C107.626 78.7004 108.161 79.794 108.184 80.9131C108.185 80.9581 108.18 81.0036 108.179 81.0491C108.259 82.4075 108.006 83.6039 107.097 84.6539C106.44 85.4125 105.625 85.9209 104.752 86.3909C103.406 86.3544 102.63 86.3122 101.46 85.5783L101.195 85.1846L101.343 84.6662C102.031 85.1912 102.648 85.5039 103.529 85.5267C104.503 85.5518 105.397 85.132 106.081 84.4502C107.129 83.4063 107.432 82.2351 107.443 80.8003C107.411 80.6757 107.377 80.5521 107.336 80.4294C106.993 79.3941 106.156 78.418 105.173 77.9418C104.363 77.5495 103.415 77.5552 102.576 77.8589C102.325 77.7992 102.089 77.6808 101.851 77.5794Z" fill="#59391E"/>
<path d="M102.576 77.8592C102.935 78.2453 103.367 78.8115 103.435 79.345C103.497 79.8326 103.336 80.3794 103.038 80.7684C102.747 81.1489 102.304 81.4407 101.821 81.4796C101.349 81.518 100.881 81.3062 100.53 81.001C100.046 80.5812 99.6891 79.925 99.6697 79.2778C99.6565 78.8376 99.8162 78.4206 100.145 78.1236C100.626 77.6881 101.226 77.5777 101.851 77.5796C102.088 77.681 102.325 77.7995 102.576 77.8592Z" fill="#F7F7F9"/>
<path d="M85.2383 140.45C85.7568 141.027 86.3609 141.533 86.9361 142.051L86.8964 142.998C86.6274 142.885 86.4752 142.756 86.1817 142.863C86.0172 142.922 85.9066 143.063 85.7951 143.191C85.5687 142.291 85.4179 141.362 85.2383 140.45Z" fill="#B76A33"/>
<defs>
<linearGradient id="paint0_linear_3039_4451" x1="122.512" y1="70.4498" x2="115.827" y2="59.2551" gradientUnits="userSpaceOnUse">
<stop stop-color="#9D5A30"/>
<stop offset="1" stop-color="#CE8644"/>
</linearGradient>
</defs>
</svg>
