<svg width="200" height="200" viewBox="0 0 200 200" fill="none" xmlns="http://www.w3.org/2000/svg">
<path d="M148.316 100.086C150.533 100.433 152.67 101.299 154.036 103.19C154.475 103.797 154.998 104.841 154.86 105.619C154.849 105.68 154.817 105.75 154.796 105.804C155.124 106.211 155.264 106.467 155.207 106.997C155.194 107.118 155.184 107.153 155.158 107.284L155.872 107.943L156.407 107.816C156.793 108.248 156.786 108.719 156.754 109.285C156.689 110.46 156.276 111.724 155.806 112.804C155.522 113.458 155.855 114.114 155.736 114.796C155.334 117.093 152.107 119.196 150.06 120.014C148.095 120.8 146.169 120.895 144.087 120.891C145.493 122.157 145.955 125.369 146.05 127.225C146.225 130.667 145.154 134.343 143.688 137.426C142.524 139.874 141.111 142.277 140.815 145.039C140.132 151.394 147.601 151.236 143.757 159.428C143.246 160.516 142.75 162.008 141.952 162.888C141.672 163.195 141.301 163.469 140.942 163.675C141.861 164.247 142.492 165.175 142.732 166.236C142.87 166.842 142.869 167.49 142.536 168.032L142.19 168.285C142.037 168.699 141.879 168.917 141.463 169.129C141.387 169.168 141.301 169.198 141.223 169.228C141.138 169.868 140.112 170.259 139.768 170.873C139.526 172.27 140.498 172.489 140.749 173.599C140.798 173.814 140.755 173.903 140.627 174.069C140.233 174.58 138.714 174.711 138.073 174.8C138.212 175.026 138.288 175.302 138.307 175.565C138.401 176.823 138.351 178.986 137.505 179.952C137.475 180.024 137.472 180.042 137.418 180.114C136.405 181.451 134.137 181.755 132.58 181.852C130.108 182.007 126.621 181.872 124.478 180.518C123.605 179.967 123.014 179.289 122.258 178.621C122.982 177.623 123.17 176.318 124.004 175.305C124.921 174.19 126.316 173.58 127.172 172.39C127.088 171.951 126.409 171.723 126.128 171.298C126.281 170.143 129.128 168.52 129.912 167.507C131.975 164.845 132.53 159.861 132.129 156.581C131.981 155.376 131.738 154.069 131.098 153.022C130.295 151.709 128.894 151.153 127.85 150.102C126.655 148.9 125.626 147.284 124.312 146.251C122.806 146.619 121.149 146.8 119.612 147.116C116.443 147.766 113.206 148.599 109.979 148.873C107.122 149.116 104.241 148.983 101.378 149.17C100.561 151.235 98.1352 154.98 98.3491 157.076C98.5116 158.664 101.193 161.466 102.438 162.339C103.046 162.766 103.987 163.024 104.509 163.498C104.796 163.758 104.767 163.805 104.778 164.172C104.494 164.701 103.927 164.977 103.437 165.289C104.746 166.714 106.393 168.623 106.327 170.674C106.301 171.484 106.085 172.076 105.527 172.673C103.578 174.984 100.906 176.288 97.9052 176.546C96.9204 176.63 95.5054 176.878 94.7408 176.232C94.6768 176.178 94.6128 176.123 94.5492 176.068L94.3576 176.17C94.0505 177.8 93.986 179.203 93.2239 180.721C90.2007 182.294 85.8876 182.32 82.6529 181.32C81.4843 180.959 80.2579 180.408 79.6545 179.276C79.3721 178.746 79.2887 178.216 79.4687 177.635C79.5904 177.241 79.751 176.856 79.9057 176.474C80.5456 174.899 82.1503 173.973 83.5086 173.1C83.7968 172.687 84.1601 172.701 84.3353 172.127C84.1548 171.518 83.514 171.064 83.0589 170.618C84.7777 168.633 86.4164 168.13 87.6815 165.552C90.2473 160.325 89.0088 155.443 87.2236 150.184C86.9553 149.439 86.6997 148.712 86.5221 147.939C85.5868 144.994 82.7984 143.682 80.6907 141.66C79.9882 141.005 79.4352 140.233 79.0078 139.376L79.4827 138.478C79.4439 138.417 79.4066 138.354 79.3707 138.291C79.115 137.839 78.9569 137.422 79.0942 136.907C79.9688 136.227 82.1848 137.615 83.3408 137.452C83.8041 137.267 83.9394 136.945 84.1597 136.53L84.1364 136.402C83.9336 135.245 82.3546 133.815 81.7559 132.697C80.9293 131.153 80.6683 129.579 80.4554 127.869C80.3976 127.307 80.3438 126.815 80.4733 126.258C81.4814 126.266 82.4657 126.323 83.4689 126.423C85.5383 126.315 87.5409 126.144 89.5599 125.654C94.7743 124.389 98.1303 122.133 100.908 117.559L101.19 117.41C101.436 117.131 101.695 116.871 101.963 116.612C102.499 116.458 103.345 116.574 103.898 116.682C107.734 117.404 112.069 117.019 115.875 116.233C121.727 115.026 126.721 112.387 132.934 113.241C133.716 113.349 134.689 113.406 135.405 113.746C136.534 113.83 137.716 114.487 138.732 114.962C139.648 113.887 140.257 112.51 141.389 111.621C143.345 110.088 148.207 109.236 149.276 107.034C149.483 106.608 149.665 106.142 149.512 105.672C150.003 104.714 149.822 103.071 149.513 102.075C149.275 101.307 148.912 100.628 148.316 100.086Z" fill="#CB7A27"/>
<path d="M148.315 100.086C150.533 100.433 152.67 101.299 154.036 103.19C154.474 103.797 154.997 104.841 154.86 105.619C154.849 105.68 154.817 105.75 154.795 105.804C155.123 106.211 155.264 106.467 155.207 106.997C155.194 107.118 155.184 107.153 155.158 107.284L155.871 107.943L156.407 107.816C156.793 108.248 156.785 108.719 156.754 109.285C156.688 110.46 156.276 111.724 155.806 112.804C155.521 113.458 155.854 114.114 155.736 114.796C155.334 117.093 152.107 119.196 150.06 120.014C148.095 120.8 146.168 120.895 144.086 120.891C145.493 122.157 145.955 125.369 146.049 127.225C146.225 130.667 145.154 134.343 143.687 137.426C142.523 139.874 141.111 142.277 140.815 145.039C140.132 151.394 147.601 151.236 143.756 159.428C143.246 160.516 142.749 162.008 141.951 162.888C141.671 163.195 141.301 163.469 140.942 163.675C141.861 164.247 142.491 165.175 142.732 166.236C142.87 166.842 142.869 167.49 142.535 168.032L142.19 168.285C142.037 168.699 141.879 168.917 141.462 169.129C141.387 169.168 141.3 169.198 141.223 169.228C141.138 169.868 140.111 170.259 139.767 170.873C139.526 172.27 140.498 172.489 140.749 173.599C140.798 173.814 140.755 173.903 140.627 174.069C140.233 174.58 138.714 174.711 138.073 174.8C138.212 175.026 138.287 175.302 138.307 175.565C138.401 176.823 138.35 178.986 137.504 179.952C137.475 180.024 137.471 180.042 137.417 180.114C136.405 181.451 134.137 181.755 132.58 181.852C130.108 182.007 126.621 181.872 124.478 180.518C123.604 179.967 123.014 179.289 122.258 178.621C122.982 177.623 123.17 176.318 124.003 175.305C124.921 174.19 126.316 173.58 127.171 172.39C127.088 171.951 126.408 171.723 126.128 171.298C126.28 170.143 129.127 168.52 129.912 167.507C131.975 164.845 132.53 159.861 132.128 156.581C131.981 155.376 131.738 154.069 131.098 153.022C130.295 151.709 128.894 151.153 127.85 150.102C126.655 148.9 125.626 147.284 124.312 146.251C122.806 146.619 121.149 146.8 119.612 147.116C116.442 147.766 113.206 148.599 109.979 148.873C107.121 149.116 104.24 148.983 101.378 149.17C100.561 151.235 98.1348 154.98 98.3488 157.076C98.5113 158.664 101.192 161.466 102.438 162.339C103.046 162.766 103.986 163.024 104.509 163.498C104.795 163.758 104.767 163.805 104.777 164.172C104.494 164.701 103.927 164.977 103.437 165.289C104.745 166.714 106.393 168.623 106.327 170.674C106.301 171.484 106.085 172.076 105.526 172.673L104.636 172.606C104.083 172.949 103.522 173.347 102.931 173.616C100.658 174.718 98.3866 175.658 95.8194 175.425C94.9991 175.064 94.3267 173.889 93.5918 173.296C93.7339 172.681 93.7034 171.973 93.731 171.341C93.829 169.112 93.8882 167.131 94.8972 165.077C95.7738 161.75 96.4544 158.473 97.6439 155.223C99.253 150.825 101.992 146.969 102.389 142.157C102.548 140.222 101.879 138.284 101.842 136.338C102.676 138.349 103.056 140.244 103.232 142.408C107.987 142.92 117.149 142.413 121.233 139.81C121.488 139.183 121.218 138.446 121.148 137.791C120.853 135.065 121.018 132.122 122.581 129.779C122.96 129.21 123.48 128.702 123.912 128.167C124.069 129.205 122.796 130.438 122.466 131.476C122.008 132.954 121.808 134.5 121.875 136.046C122.072 141.656 125.978 146.696 129.965 150.289C131.224 151.424 132.666 152.378 133.886 153.547C134.802 154.424 135.5 155.583 135.501 156.885C135.502 157.614 135.264 158.92 134.734 159.44C135.048 160.288 134.414 161.759 134.056 162.543C133.778 163.152 133.453 163.986 132.863 164.344C132.944 165.503 131.456 167.626 130.725 168.482C129.719 169.658 128.3 170.792 126.832 171.322C127.811 171.469 128.947 171.808 129.927 171.56C130.382 171.445 131.695 170.804 132.04 170.959C132.057 171.941 132.198 172.881 132.939 173.595C133.539 174.174 134.588 174.513 135.413 174.472C135.789 174.454 136.062 174.348 136.381 174.156C136.642 173.763 136.699 173.524 136.629 173.047C136.658 173.004 136.688 172.962 136.714 172.917C136.961 172.495 136.906 172.392 136.801 171.928C137.5 171.467 138.393 167.365 138.701 166.367C138.733 166.337 138.765 166.308 138.796 166.277C139.175 165.892 139.639 164.124 139.641 163.568C139.787 163.208 139.717 162.626 139.622 162.263C139.825 162.075 139.937 161.928 140.053 161.676C141.684 158.132 143.299 155.958 141.87 152.014C141.891 151.16 139.737 148.491 139.614 146.419C139.321 141.471 143.171 137.28 144.357 132.636C145.357 128.726 145.463 124.537 143.327 120.965C142.136 118.975 140.111 116.534 137.8 115.946C137.376 115.426 136.328 115.225 135.692 115.035C135.593 114.477 135.765 114.22 135.404 113.746C136.534 113.83 137.716 114.487 138.732 114.962C139.648 113.887 140.256 112.51 141.389 111.621C143.345 110.088 148.206 109.236 149.275 107.034C149.483 106.608 149.665 106.142 149.512 105.672C150.003 104.714 149.822 103.071 149.513 102.075C149.274 101.307 148.912 100.628 148.315 100.086Z" fill="black"/>
<path d="M148.316 100.086C150.534 100.433 152.671 101.299 154.037 103.19C154.475 103.797 154.998 104.841 154.86 105.619C154.85 105.68 154.818 105.75 154.796 105.804C155.124 106.211 155.264 106.467 155.208 106.997C155.195 107.118 155.184 107.153 155.159 107.284L155.872 107.943C156.214 108.64 156.191 109.333 155.948 110.061C155.338 111.897 153.505 114.594 152.007 115.795C153.185 115.461 154.02 115.126 154.938 114.277C154.955 115.205 154.532 115.739 153.907 116.38C151.699 118.648 148.047 120.022 144.934 120.047C144.512 120.05 144.136 120.038 143.742 119.872L143.738 119.645C147.112 118.037 150.248 116.454 151.611 112.666C151.881 111.915 152.368 110.572 152.173 109.793L152.06 109.537C151.637 109.621 151.457 109.839 151.139 110.11C151.461 109.336 151.533 108.515 151.27 107.715C151.878 106.784 151.365 105.667 151.811 104.713L151.697 104.438C151.561 104.681 151.508 104.847 151.267 104.993L150.495 104.247C150.728 104.921 150.801 105.837 150.467 106.498C150.407 106.618 150.321 106.683 150.218 106.764L150.289 106.5C149.928 106.254 149.731 106.052 149.513 105.672C150.004 104.714 149.823 103.071 149.513 102.075C149.275 101.307 148.912 100.628 148.316 100.086Z" fill="#EFD9AB"/>
<path d="M148.315 100.086C150.533 100.433 152.67 101.299 154.036 103.19C154.474 103.797 154.997 104.841 154.86 105.619C154.849 105.68 154.817 105.75 154.796 105.804C154.502 106.062 154.311 106.249 154.145 106.606C154.247 106.071 153.963 105.412 153.733 104.934C152.981 103.374 151.503 101.959 149.873 101.379C150.011 101.574 150.148 101.775 150.242 101.995C150.515 102.634 150.745 103.583 150.495 104.247C150.727 104.921 150.801 105.837 150.466 106.498C150.406 106.618 150.32 106.683 150.218 106.764L150.288 106.5C149.927 106.254 149.73 106.052 149.512 105.672C150.003 104.714 149.822 103.071 149.513 102.075C149.274 101.307 148.912 100.628 148.315 100.086Z" fill="#16110D"/>
<path d="M154.796 105.804C155.124 106.211 155.264 106.467 155.207 106.997C155.194 107.118 155.184 107.153 155.158 107.285C155.303 107.985 155.61 108.585 155.499 109.321C155.366 110.2 154.57 110.784 153.903 111.275C154.025 111.084 154.144 110.882 154.22 110.668C154.642 109.479 154.68 107.752 154.146 106.606C154.311 106.249 154.502 106.062 154.796 105.804Z" fill="black"/>
<path d="M151.268 107.715C151.877 106.784 151.364 105.667 151.81 104.713C152.492 105.591 152.614 108.129 152.449 109.165C152.413 109.397 152.325 109.615 152.172 109.794L152.058 109.537C151.635 109.621 151.456 109.839 151.138 110.111C151.459 109.336 151.532 108.515 151.268 107.715Z" fill="black"/>
<path d="M103.066 165.698L103.437 165.289C104.746 166.714 106.394 168.623 106.328 170.674C106.302 171.484 106.086 172.076 105.527 172.673L104.637 172.606C104.084 172.949 103.523 173.347 102.932 173.616C100.659 174.718 98.3875 175.658 95.8203 175.425L96.1609 175.216L95.9173 175.126C96.1696 175.091 96.4413 175.077 96.645 174.908C96.8119 174.769 96.8677 174.599 96.8686 174.384C96.8701 174.001 96.6673 173.503 96.5887 173.116C96.2768 171.575 95.7796 169.696 95.912 168.125L96.0527 168.086C96.2744 168.248 96.5004 168.403 96.7314 168.551C97.7312 169.183 98.811 168.948 99.8981 168.701C100.986 167.71 101.891 166.61 103.066 165.698Z" fill="#097230"/>
<path d="M103.067 165.698L103.438 165.289C104.747 166.714 106.394 168.623 106.328 170.674C106.302 171.484 106.086 172.076 105.528 172.673L104.637 172.606C104.084 172.949 103.523 173.347 102.932 173.616C103.411 172.823 103.807 172.077 104.049 171.178C103.604 170.317 103.395 169.378 102.854 168.562C101.916 168.092 101.029 168.673 100.045 168.698L99.8984 168.701C100.986 167.71 101.892 166.61 103.067 165.698Z" fill="#195634"/>
<path d="M103.065 165.698L103.437 165.289C104.745 166.714 106.393 168.623 106.327 170.674C106.301 171.484 106.085 172.076 105.526 172.673L104.636 172.606C104.959 172.282 105.421 171.85 105.588 171.413C106.174 169.873 103.679 167.29 103.113 165.825L103.065 165.698Z" fill="#16110D"/>
<path d="M150.494 104.247L151.266 104.993C151.507 104.847 151.56 104.681 151.696 104.438L151.811 104.713C151.364 105.667 151.877 106.784 151.269 107.715C151.27 107.864 151.309 108.136 151.272 108.271C151.031 109.138 148.054 113.623 147.339 114.357C145.504 116.241 143.447 116.449 140.964 116.458C140.787 116.459 140.611 116.458 140.434 116.457C140.177 116.247 139.854 116.081 139.823 115.716C139.561 112.56 147.855 110.5 149.703 108.144C150.025 107.734 150.279 107.305 150.217 106.764C150.32 106.683 150.406 106.618 150.466 106.498C150.801 105.837 150.727 104.921 150.494 104.247Z" fill="#E7A446"/>
<path d="M140.435 116.456C140.612 116.458 140.788 116.459 140.965 116.458C143.448 116.449 145.504 116.241 147.34 114.357C148.055 113.623 151.032 109.138 151.273 108.271C151.31 108.136 151.27 107.864 151.269 107.715C151.533 108.515 151.461 109.335 151.139 110.11C151.366 111.252 150.459 113.032 149.842 113.955C148.211 116.41 145.694 118.134 142.819 118.765C142.522 118.088 141.102 116.789 140.435 116.456Z" fill="#A0602F"/>
<path d="M141.871 152.014C142.718 152.547 143.884 154.04 144.07 155.034C144.317 156.356 141.554 161.711 140.618 162.914C140.341 163.27 140.096 163.471 139.642 163.568C139.788 163.208 139.718 162.626 139.623 162.263C139.825 162.075 139.938 161.928 140.054 161.676C141.684 158.132 143.3 155.958 141.871 152.014Z" fill="#A0602F"/>
<path d="M132.883 158.892C133.31 157.931 133.092 154.966 132.687 153.967C132.633 153.835 132.569 153.718 132.499 153.594C133.553 154.23 134.383 154.946 134.674 156.199C134.868 157.033 134.724 158.256 134.263 158.978L134.568 159.643L134.735 159.44C135.049 160.288 134.415 161.759 134.057 162.543C133.779 163.153 133.454 163.986 132.864 164.344C133.218 162.7 133.245 160.536 132.883 158.892Z" fill="#904716"/>
<path d="M132.883 158.892C133.341 159.515 133.29 160.652 133.187 161.387C133.138 161.738 133.02 162.059 132.88 162.383C133.614 161.731 134.217 160.404 134.286 159.421C134.297 159.272 134.286 159.126 134.263 158.978L134.567 159.642L134.735 159.44C135.049 160.288 134.415 161.759 134.057 162.543C133.779 163.152 133.454 163.986 132.864 164.343C133.218 162.7 133.245 160.535 132.883 158.892Z" fill="#3F1806"/>
<path d="M93.5918 173.296C93.7339 172.681 93.7034 171.973 93.731 171.341C93.829 169.112 93.8882 167.131 94.8972 165.077C94.8812 168.327 94.8875 172.017 95.9164 175.126L96.1599 175.216L95.8194 175.425C94.9991 175.064 94.3267 173.889 93.5918 173.296Z" fill="#B87433"/>
<path d="M139.548 169.987C139.892 169.297 139.766 168.127 139.902 167.319C140.034 166.537 140.303 165.762 140.4 164.98C140.425 164.774 140.384 164.572 140.328 164.374C140.973 164.994 141.743 165.839 142.108 166.663C142.345 167.198 142.397 167.73 142.189 168.285C142.036 168.699 141.878 168.917 141.462 169.129C141.386 169.168 141.3 169.198 141.222 169.228C140.68 169.528 140.124 169.759 139.548 169.987Z" fill="#195634"/>
<path d="M136.802 171.928C137.501 171.467 138.393 167.365 138.701 166.367C139.099 167.882 138.545 169.715 138.831 171.348C138.93 171.915 139.312 172.833 139.097 173.343C138.729 173.567 138.365 173.568 137.959 173.454C137.506 173.328 137.105 173.087 136.63 173.048C136.659 173.004 136.689 172.962 136.715 172.917C136.962 172.495 136.907 172.392 136.802 171.928Z" fill="#A0602F"/>
<path d="M116.384 142.458C117.851 141.851 120.426 141.498 121.575 140.449C122.212 141.231 123.381 143.773 123.334 144.767C122.45 145.337 121.19 145.614 120.176 145.923C114.226 147.768 108.002 148.562 101.78 148.271C102.258 146.926 102.902 145.231 102.863 143.791L103.065 143.404C103.733 143.188 104.703 143.382 105.406 143.435C109.12 143.716 112.751 143.16 116.384 142.458Z" fill="#C2BB67"/>
<path d="M102.862 143.791L103.065 143.404C103.733 143.188 104.703 143.382 105.406 143.435C109.12 143.716 112.75 143.16 116.384 142.458L116.503 142.632C116.5 143 116.843 143.175 116.843 143.387C114.593 144.455 106.262 145.673 103.992 144.892C103.467 144.71 103.15 144.369 102.903 143.883C102.888 143.853 102.876 143.822 102.862 143.791Z" fill="#EFD9AB"/>
<path d="M129.082 172.723C129.571 172.646 130.009 172.538 130.435 172.858C131.632 173.758 132.271 174.918 133.748 175.447C134.984 175.45 136.518 175.552 137.668 175.035C138.154 175.989 137.963 176.961 137.639 177.94C137.401 178.659 136.712 179.935 135.983 180.259C135.709 180.381 135.264 180.327 134.967 180.313C134.802 180.387 134.657 180.445 134.477 180.474C131.218 180.994 126.507 180.892 123.737 178.891C123.58 178.452 123.593 178.013 123.765 177.582C124.499 175.742 127.276 173.487 129.082 172.723Z" fill="#097230"/>
<path d="M123.737 178.891C123.58 178.452 123.593 178.013 123.765 177.581C124.499 175.741 127.276 173.487 129.082 172.722C129.429 173.197 129.49 173.562 129.387 174.153C129.117 175.699 127.618 177.087 126.386 177.927C125.521 178.516 124.782 178.801 123.737 178.891Z" fill="#549C31"/>
<path d="M133.749 175.446C134.985 175.45 136.519 175.552 137.669 175.035C138.155 175.989 137.964 176.961 137.64 177.939C137.402 178.658 136.713 179.934 135.984 180.259C135.71 180.381 135.265 180.326 134.968 180.313C135.387 180.127 135.683 180.028 135.921 179.61C136.098 178.478 136.017 177.524 135.338 176.563C134.946 176.008 134.424 175.566 133.749 175.446Z" fill="#195634"/>
<path d="M96.8301 159.588C97.0518 158.954 97.2424 158.098 97.6538 157.57C98.0016 157.849 97.9866 158.712 98.1995 159.163C99.1062 161.086 101.649 163.931 103.688 164.566C102.676 164.643 101.33 164.559 100.61 165.387C100.511 165.502 100.421 165.621 100.336 165.745C100.117 166.44 99.9552 167.089 99.2605 167.456C98.6798 167.763 97.8115 167.617 97.2191 167.385C97.0629 167.324 96.9159 167.244 96.7724 167.158C96.6385 166.992 96.4958 166.817 96.3998 166.625C95.5994 165.036 96.3581 161.268 96.8301 159.588Z" fill="#CE7E26"/>
<path d="M96.8301 159.588C97.0518 158.954 97.2424 158.098 97.6538 157.57C98.0016 157.849 97.9866 158.712 98.1995 159.163C99.1062 161.086 101.649 163.931 103.688 164.566C102.676 164.643 101.33 164.559 100.61 165.387C100.511 165.502 100.421 165.621 100.336 165.745L99.8217 164.732C99.2964 163.258 98.4086 161.697 97.6334 160.334C97.3831 159.893 97.3254 159.727 96.8301 159.588Z" fill="#904716"/>
<path d="M99.8218 164.732L100.336 165.745C100.117 166.44 99.9553 167.089 99.2606 167.456C98.6799 167.763 97.8116 167.617 97.2192 167.385C97.063 167.324 96.9161 167.243 96.7725 167.157C97.5763 166.916 98.8778 166.754 99.476 166.177C99.8645 165.802 99.8141 165.234 99.8218 164.732Z" fill="#B87433"/>
<path d="M80.691 141.66C81.3168 141.827 81.881 141.969 82.532 141.966C84.7601 143.822 86.733 144.841 89.3783 145.951C89.5505 145.979 89.6995 146.007 89.8615 146.072C90.2787 147.325 89.8717 148.796 90.1579 150.121C90.5566 156.145 91.3226 163.32 87.0556 168.205C86.0796 169.322 84.8663 170.179 83.8757 171.26C85.7759 171.356 86.7927 171.56 88.3256 170.272C88.4978 170.751 88.1093 171.291 88.0996 171.81C88.0821 172.805 89.2371 174.14 90.1011 174.533C90.7604 174.833 91.4429 174.766 92.0983 174.495C92.6911 174.25 93.151 173.745 93.5924 173.296C94.3274 173.889 94.9997 175.064 95.8201 175.425C98.3873 175.659 100.659 174.718 102.931 173.616C103.523 173.347 104.084 172.949 104.637 172.606L105.527 172.673C103.578 174.984 100.906 176.288 97.9055 176.546C96.9208 176.63 95.5057 176.878 94.7412 176.232C94.6771 176.178 94.6131 176.123 94.5496 176.068L94.358 176.17C94.0509 177.8 93.9864 179.203 93.2243 180.721C90.2011 182.294 85.8879 182.32 82.6532 181.32C81.4846 180.959 80.2583 180.408 79.6548 179.276C79.3725 178.747 79.289 178.216 79.469 177.635C79.5908 177.241 79.7513 176.856 79.9061 176.474C80.5459 174.899 82.1507 173.973 83.509 173.1C83.7971 172.687 84.1605 172.701 84.3356 172.127C84.1552 171.518 83.5143 171.064 83.0593 170.618C84.778 168.633 86.4167 168.13 87.6819 165.552C90.2476 160.325 89.0091 155.443 87.2239 150.184C86.9557 149.439 86.7 148.712 86.5225 147.939C85.5872 144.994 82.7988 143.682 80.691 141.66Z" fill="black"/>
<path d="M85.8529 172.909C85.8932 172.905 85.9339 172.903 85.9737 172.897C86.2308 172.859 86.4777 172.615 86.6766 172.458C87.0283 172.423 87.0366 172.39 87.3369 172.612C87.5862 173.206 87.8186 173.926 88.1654 174.465C88.8902 175.59 90.9446 175.787 91.9575 177.107C91.9725 177.137 91.9876 177.166 92.0026 177.195C92.3529 177.863 92.675 178.051 92.7686 178.832C92.4087 179.436 92.0472 179.98 91.584 180.51C88.6748 180.982 84.1036 181.085 81.4297 179.678C81.923 179.191 82.0181 178.265 82.4212 177.683C83.8048 175.683 85.2567 175.646 85.8529 172.909Z" fill="#097230"/>
<path d="M82.9484 174.329C83.8356 173.659 84.672 172.823 85.8527 172.909C85.2565 175.646 83.8046 175.683 82.421 177.683C82.0179 178.265 81.9229 179.191 81.4295 179.678C80.9051 179.239 80.5883 178.867 80.2613 178.264C80.1275 177.639 80.1444 177.091 79.9062 176.474C80.5461 174.899 82.1508 173.973 83.5092 173.101L83.4412 173.486C83.1313 173.7 82.815 173.891 82.5792 174.19L82.9484 174.329Z" fill="#549C31"/>
<path d="M83.5092 173.1L83.4412 173.485C83.1313 173.7 82.815 173.891 82.5792 174.19L82.9484 174.329C81.6585 175.578 80.7693 176.499 80.2613 178.264C80.1275 177.638 80.1444 177.091 79.9062 176.474C80.5461 174.899 82.1508 173.973 83.5092 173.1Z" fill="black"/>
<path d="M86.5216 147.939C86.5172 147.417 86.3916 146.711 86.7544 146.335L87.1634 146.421C87.7766 146.607 88.7904 146.814 89.0907 147.463C89.618 148.6 90.0643 154.595 90.0639 156.16C89.1407 154.254 88.724 152.285 88.2869 150.222C87.9561 150.159 87.5626 150.192 87.223 150.184C86.9548 149.439 86.6991 148.712 86.5216 147.939Z" fill="#904716"/>
<path d="M86.5216 147.939C86.5172 147.417 86.3916 146.711 86.7544 146.335L87.1634 146.421C87.1319 146.633 87.0833 146.679 87.1935 146.871C87.7678 147.878 88.0982 149.085 88.2869 150.222C87.9561 150.159 87.5626 150.192 87.223 150.184C86.9548 149.439 86.6991 148.712 86.5216 147.939Z" fill="black"/>
<path d="M91.9561 177.107C91.9823 177.053 92.0099 176.999 92.0341 176.945C92.1612 176.654 92.0982 176.309 92.0671 176.002C92.3175 175.699 92.5993 175.594 92.9922 175.54C93.3638 175.489 93.4502 175.517 93.7413 175.744C93.9794 176.647 93.1417 178.011 92.7672 178.832C92.6735 178.051 92.3514 177.863 92.0012 177.195C91.9861 177.166 91.9711 177.137 91.9561 177.107Z" fill="#195634"/>
<path d="M103.899 116.682C107.735 117.404 112.07 117.018 115.876 116.233C121.728 115.026 126.722 112.387 132.935 113.241C133.717 113.349 134.69 113.406 135.406 113.746C135.766 114.22 135.594 114.477 135.694 115.035C136.33 115.225 137.378 115.426 137.801 115.946L137.702 116.345C135.801 117.231 130.474 114.634 129.191 116.13C129.037 115.974 128.787 115.889 128.59 115.793C128.276 115.204 127.033 115.334 126.444 115.072C126.159 114.946 125.892 114.892 125.586 114.84C123.87 115.36 122.109 115.841 120.363 116.249C114.747 117.63 108.847 118.83 103.064 117.805L101.271 117.488L101.191 117.41C101.437 117.131 101.696 116.871 101.964 116.612C102.5 116.458 103.346 116.574 103.899 116.682Z" fill="black"/>
<path d="M125.585 114.84C129.131 113.869 132.15 114.173 135.693 115.035C136.329 115.225 137.377 115.426 137.8 115.946L137.701 116.345C135.799 117.232 130.472 114.635 129.19 116.13C129.036 115.974 128.786 115.889 128.589 115.793C128.274 115.204 127.032 115.335 126.443 115.073C126.158 114.946 125.891 114.892 125.585 114.84Z" fill="#DA9341"/>
<path d="M101.964 116.612C102.5 116.459 103.346 116.574 103.899 116.682L104.027 117.153C103.751 117.471 103.432 117.618 103.064 117.805L101.271 117.488L101.191 117.41C101.437 117.131 101.696 116.871 101.964 116.612Z" fill="#261812"/>
<path d="M84.1597 136.531C84.5807 137.891 87.7606 141.624 89.0064 142.345C89.1039 142.401 89.1883 142.408 89.2974 142.421C89.4915 142.091 89.5487 141.789 89.6186 141.415C89.7234 142.218 89.8936 145.209 89.5099 145.824C89.4648 145.897 89.4391 145.908 89.378 145.951C86.7327 144.841 84.7597 143.822 82.5316 141.967C81.8806 141.969 81.3164 141.828 80.6907 141.66C79.9882 141.005 79.4352 140.233 79.0078 139.376L79.4827 138.478C79.4439 138.417 79.4066 138.355 79.3707 138.291C79.115 137.839 78.9569 137.422 79.0942 136.907C79.9688 136.228 82.1848 137.616 83.3408 137.452C83.8041 137.268 83.9394 136.945 84.1597 136.531Z" fill="#C2BB67"/>
<path d="M79.4827 138.478C80.4743 139.663 81.4911 140.826 82.5316 141.967C81.8806 141.969 81.3164 141.828 80.6907 141.66C79.9882 141.005 79.4352 140.233 79.0078 139.376L79.4827 138.478Z" fill="black"/>
<path d="M120.362 116.249C122.108 115.841 123.869 115.36 125.585 114.84C125.892 114.892 126.158 114.946 126.444 115.072C127.032 115.334 128.275 115.204 128.589 115.793C128.786 115.889 129.036 115.974 129.19 116.13C129.692 116.495 129.984 117.037 130.052 117.66C130.109 118.18 129.866 118.667 129.533 119.049C128.42 120.331 126.446 120.982 124.797 121.055C123.57 121.11 122.055 120.938 121.106 120.068C120.593 119.598 120.539 118.825 120.068 118.356C120.499 118.276 120.917 118.211 121.324 118.041C121.114 118.031 120.904 117.982 120.697 117.946C120.379 117.47 120.523 116.913 120.388 116.349C120.379 116.316 120.371 116.282 120.362 116.249Z" fill="#F4B75E"/>
<path d="M120.362 116.249C122.108 115.841 123.869 115.36 125.585 114.84C125.892 114.892 126.158 114.946 126.444 115.072C127.032 115.334 128.275 115.204 128.589 115.793L128.667 116.19C128.553 116.308 128.435 116.479 128.28 116.532C127.256 116.884 126.024 116.948 124.951 117.178C123.75 117.436 122.534 117.87 121.324 118.041C121.114 118.031 120.904 117.982 120.697 117.946C120.379 117.47 120.523 116.913 120.388 116.349C120.379 116.316 120.371 116.282 120.362 116.249Z" fill="#ECD4A5"/>
<path d="M101.19 117.41L101.27 117.488L100.931 117.72C100.904 118.008 100.905 118.25 100.946 118.537C100.882 119.224 100.832 119.912 100.795 120.6C98.1263 124.271 94.8707 126.898 90.3175 127.616C89.4094 127.758 84.1096 128.297 83.5517 128.171L83.5022 127.942C83.5439 127.45 83.4872 126.918 83.4688 126.423C85.5382 126.315 87.5407 126.144 89.5598 125.654C94.7742 124.389 98.1302 122.133 100.908 117.559L101.19 117.41Z" fill="#A0602F"/>
<path d="M80.4734 126.258C81.4814 126.267 82.4657 126.323 83.4689 126.423C83.4874 126.918 83.5441 127.45 83.5024 127.942L83.5519 128.171C83.5034 129.728 83.7886 132.224 84.5881 133.586C85.6427 136.869 87.2625 138.946 89.6186 141.415C89.5488 141.789 89.4915 142.09 89.2975 142.421C89.1884 142.408 89.1039 142.401 89.0064 142.345C87.7607 141.624 84.5808 137.891 84.1597 136.53L84.1364 136.402C83.9337 135.246 82.3546 133.815 81.756 132.697C80.9294 131.153 80.6684 129.579 80.4554 127.869C80.3977 127.307 80.3439 126.815 80.4734 126.258Z" fill="#EFD9AB"/>
<path d="M80.4734 126.258C81.4814 126.267 82.4657 126.323 83.4689 126.423C83.4874 126.918 83.5441 127.45 83.5024 127.942C82.5433 127.721 81.4344 127.824 80.4554 127.869C80.3977 127.307 80.3439 126.815 80.4734 126.258Z" fill="#B5A088"/>
<path d="M103.064 117.805C108.847 118.83 114.747 117.63 120.362 116.25C120.371 116.283 120.379 116.316 120.388 116.349C120.523 116.913 120.379 117.47 120.697 117.946C120.904 117.982 121.114 118.031 121.324 118.041C120.917 118.212 120.499 118.276 120.068 118.356L119.935 118.366C118.268 118.496 116.593 119.04 114.936 119.311C110.198 120.086 105.592 119.725 100.947 118.537C100.905 118.25 100.905 118.008 100.931 117.72L101.271 117.488L103.064 117.805Z" fill="#F4B75E"/>
<path d="M84.5889 133.586C84.8499 133.768 84.9605 133.937 85.1157 134.212L85.2486 134.141L85.2962 133.754C85.5848 134.277 85.4897 134.88 85.7391 135.431C86.6913 137.537 88.2932 139.392 89.9066 141.013C90.4432 139.487 90.8589 137.912 92.42 137.146C92.5383 137.088 92.5204 137.097 92.6218 137.06L92.9415 137.405L93.021 137.261L92.7304 137.02L92.9744 137.343C91.0229 138.956 90.6401 140.202 90.398 142.729C90.1608 145.206 90.2574 147.646 90.1584 150.121C89.8722 148.796 90.2792 147.325 89.862 146.072C89.7 146.007 89.551 145.978 89.3788 145.951C89.4399 145.907 89.4657 145.896 89.5108 145.823C89.8945 145.208 89.7242 142.218 89.6194 141.415C87.2633 138.945 85.6435 136.869 84.5889 133.586Z" fill="#904716"/>
<path d="M136.802 171.928C137.331 170.598 136.695 168.931 137.015 167.527C137.449 165.622 138.81 164.17 139.554 162.429C139.578 162.374 139.6 162.319 139.623 162.263C139.717 162.626 139.788 163.208 139.642 163.568C139.64 164.124 139.175 165.892 138.796 166.277C138.765 166.308 138.733 166.337 138.701 166.367C138.393 167.365 137.5 171.467 136.802 171.928Z" fill="#B87433"/>
<path d="M134.212 119.834C135.677 119.647 137.063 119.601 138.291 120.562C138.889 121.03 139.293 121.704 139.368 122.466C139.43 123.085 139.252 123.72 138.846 124.196C138.158 125 137.184 125.251 136.174 125.316C135.436 125.477 134.457 125.386 133.756 125.098C132.968 124.773 132.295 124.22 131.966 123.414C131.701 122.766 131.735 122.127 132.005 121.489C132.414 120.523 133.318 120.207 134.212 119.834Z" fill="#F4B75E"/>
<path d="M115.275 119.918C116.02 119.895 116.722 119.965 117.387 120.334C117.859 120.596 118.385 121.083 118.515 121.622C118.591 121.935 118.506 122.232 118.325 122.493C117.936 123.051 117.245 123.074 116.625 123.18C116.081 123.254 115.391 123.315 114.867 123.117C114.389 122.937 113.928 122.54 113.723 122.069C113.581 121.741 113.593 121.407 113.733 121.08C114.033 120.382 114.617 120.161 115.275 119.918Z" fill="#F4B75E"/>
<path d="M125.989 123.471C126.61 123.406 127.435 123.442 128.019 123.676C128.587 123.904 128.987 124.282 129.225 124.847C129.202 125.131 129.227 125.298 129.048 125.53C128.605 126.104 127.931 126.194 127.26 126.279C126.806 126.453 125.919 126.43 125.468 126.239C125.012 126.047 124.635 125.666 124.469 125.196C124.354 124.87 124.41 124.541 124.569 124.24C124.857 123.698 125.444 123.617 125.989 123.471Z" fill="#F4B75E"/>
<path d="M103.779 62.135C103.804 62.1034 103.827 62.0718 103.852 62.0407C106.923 58.1832 112.231 55.6981 117.041 55.1113C118.847 54.8909 122.923 54.7672 124.344 55.8866C124.808 55.9625 125.132 55.9344 125.415 56.3747C126.173 57.557 125.568 60.1044 125.17 61.3927C124.971 62.0378 124.742 63.0504 124.182 63.4457C124.392 64.5857 123.01 66.5025 122.362 67.4466C120.177 70.6318 116.909 73.1287 113.064 73.8515C111.738 74.1009 110.208 73.8287 108.95 74.2672C108.653 75.1423 109.499 76.6862 109.777 77.5632C110.191 78.8705 110.474 80.2482 110.792 81.5841C112.244 87.6901 112.499 92.3575 107.469 96.9365C105.603 98.6346 103.57 99.9841 101.312 101.101C99.3814 102.057 97.4288 102.875 95.3191 103.335L95.3021 108.477C96.6192 108.319 98.0187 108.512 99.0898 109.374C100.243 110.302 100.744 111.877 100.882 113.303C100.973 114.243 100.834 115.453 101.16 116.328C101.426 116.436 101.684 116.541 101.963 116.612C101.695 116.871 101.436 117.131 101.19 117.41L100.908 117.559C98.1303 122.133 94.7743 124.389 89.5599 125.654C87.5409 126.144 85.5383 126.315 83.4689 126.423C82.4656 126.323 81.4814 126.266 80.4733 126.258C80.3438 126.815 80.3976 127.307 80.4554 127.869C80.6683 129.579 80.9293 131.153 81.7559 132.697C82.3546 133.815 83.9336 135.246 84.1364 136.402L84.1597 136.53C83.9394 136.945 83.8041 137.267 83.3408 137.452C82.1848 137.615 79.9688 136.228 79.0941 136.907C78.9569 137.422 79.115 137.839 79.3707 138.291C79.4066 138.354 79.4439 138.417 79.4827 138.478L79.0078 139.376C78.7643 138.987 78.5557 138.651 78.1914 138.359C77.4142 138.401 76.6075 139.098 75.8978 139.421C75.2477 139.716 74.7238 139.819 74.0296 139.564C73.4776 138.732 74.6899 137.812 74.9824 136.997C75.2084 136.366 75.1963 135.709 75.1851 135.048C74.9368 134.64 74.832 133.942 74.6991 133.471C74.3566 132.312 74.0529 131.111 73.5775 130C72.7436 131.444 71.8563 132.843 70.9482 134.241L70.1837 134.016L70.0095 133.425L68.9277 134.749C68.7012 135.109 68.5358 135.448 68.1399 135.641C67.7523 135.304 67.6407 134.58 67.4428 134.088C67.2638 133.551 67.2643 132.857 67.207 132.288C66.492 131.712 65.1909 131.452 64.3284 131.075C63.7419 130.81 63.1976 130.508 62.6461 130.176C62.6043 130.14 62.5621 130.104 62.5199 130.068C61.9058 129.539 61.2295 129.089 61.1631 128.227L61.4556 128.005C62.1163 127.845 62.86 128.176 63.4921 128.374C66.6802 127.546 67.747 125.372 69.9843 123.306L70.1027 123.198C70.2487 123.009 70.4684 122.766 70.5334 122.534C70.6581 122.088 69.8261 121.021 69.587 120.626C68.6857 119.136 69.0669 117.214 69.4546 115.616C70.0197 114.503 70.3879 113.548 71.2252 112.582C72.3841 111.244 74.0466 110.298 75.8255 110.173C76.346 110.174 76.884 110.105 77.404 110.065C77.5612 107.946 78.3679 105.838 78.7274 103.734C78.498 103.396 78.2011 103.33 77.8387 103.169C77.0169 103.124 76.0942 102.671 75.3549 102.329C70.9361 100.271 68.4785 98.3371 65.4243 94.6312C65.0619 94.1363 64.6772 93.6395 64.3585 93.1145C62.7503 90.4625 62.8241 87.7985 63.5576 84.9147C64.3978 82.7256 64.8363 80.2633 65.2817 77.9687C65.5194 76.7441 65.676 75.3795 66.1723 74.2371L66.9548 74.0582L67.4729 72.2716C67.3788 72.1068 67.2095 71.9536 67.0829 71.8102C66.8452 71.591 66.7845 71.4378 66.6982 71.1287C67.4545 70.4942 69.246 67.3022 69.3638 66.2974C69.6782 66.117 70.0561 66.066 70.3942 65.9323C70.8677 65.7446 71.0016 65.3324 71.1922 64.8968L71.5585 64.347C71.8723 64.6056 72.1527 64.8856 72.5539 64.9892C76.1311 62.487 79.538 61.487 83.7851 60.7437C87.7499 60.2736 91.6851 60.6946 95.516 61.7563C97.9726 62.6829 102.744 65.1054 104.088 67.4452C104.884 68.4432 105.471 69.5968 105.996 70.7568C106.465 70.5385 106.494 70.5657 106.677 70.0883L105.261 67.537C105.255 67.4607 105.25 67.364 105.235 67.2857C105.138 66.8088 104.87 66.6547 104.493 66.4155C103.931 65.8438 103.293 65.3509 102.673 64.8443C103.204 64.1739 103.782 63.5507 104.361 62.9226C104.162 62.6649 103.972 62.3975 103.779 62.135Z" fill="black"/>
<path d="M83.7852 60.7436C87.75 60.2735 91.6852 60.6945 95.5161 61.7562C97.9727 62.6828 102.744 65.1053 104.088 67.4451C104.111 69.1655 106.532 71.3955 106.445 73.1184L106.262 73.1777C106.233 73.1271 106.205 73.0761 106.175 73.026C106.061 72.834 105.931 72.7192 105.762 72.5758L105.588 72.5783C104.715 71.8034 103.802 71.2375 102.744 70.7552C100.683 70.3352 98.9405 70.4499 97.1339 71.622C94.7855 73.1451 93.3967 75.7153 92.8543 78.4086C92.4764 80.2865 93.1017 81.5607 93.1167 83.324C93.1982 84.3016 93.4864 85.3453 92.912 86.216C92.3018 85.6254 91.5712 85.1747 90.7703 84.8947C88.3816 84.0512 84.6535 84.1178 82.3401 85.2418C81.8724 85.4688 81.4989 85.6968 81.3174 86.2131C80.7111 86.462 80.0416 86.8125 79.3823 86.8441L79.3062 86.8631C79.2203 86.5777 79.0583 86.321 78.9157 86.06L77.7708 86.6803C77.4516 86.7449 77.2304 86.742 76.9102 86.6895C76.6056 86.4353 76.3228 86.2291 75.974 86.0376L75.875 85.9841C75.8299 86.0109 75.7867 86.0415 75.7397 86.0648C74.8883 86.4897 73.8143 85.97 72.9881 85.6832L72.8683 86.3132L72.9658 86.5111L72.4768 86.5247C72.0048 86.5038 71.6914 86.4435 71.2946 86.7697C68.6255 87.5135 66.1093 88.27 64.2945 90.5067C63.7929 88.7279 63.9205 87.3565 64.2164 85.5675C64.0379 85.1975 63.8919 85.1397 63.5576 84.9146C64.3978 82.7255 64.8364 80.2632 65.2817 77.9686C65.5194 76.744 65.6761 75.3794 66.1724 74.237L66.9548 74.0581L67.4729 72.2715C67.3788 72.1067 67.2095 71.9536 67.0829 71.8102C66.8452 71.5909 66.7846 71.4378 66.6982 71.1286C67.4545 70.4942 69.246 67.3022 69.3639 66.2973C69.6782 66.1169 70.0561 66.0659 70.3943 65.9322C70.8677 65.7446 71.0016 65.3323 71.1923 64.8967L71.5585 64.3469C71.8724 64.6055 72.1528 64.8855 72.554 64.9891C76.1311 62.4869 79.5381 61.4869 83.7852 60.7436Z" fill="#CC7C27"/>
<path d="M70.8536 85.7426C69.1475 84.4359 68.4028 82.5448 68.12 80.4519C67.8071 78.1345 68.0841 75.644 69.5472 73.7427C70.5208 72.4627 71.9674 71.6294 73.5605 71.4306C75.1551 71.2434 76.689 71.8034 77.9289 72.7962C79.799 74.294 80.8779 76.5054 81.1098 78.8749C81.3809 81.643 80.5922 83.8894 78.9156 86.0601L77.7708 86.6804C77.4516 86.745 77.2303 86.7421 76.9102 86.6896C76.6055 86.4354 76.3227 86.2292 75.9739 86.0377L75.875 85.9842C75.8298 86.011 75.7867 86.0416 75.7396 86.0649C74.8882 86.4898 73.8142 85.9701 72.9881 85.6833L72.8683 86.3133L72.9658 86.5112L72.4768 86.5248C71.8747 86.3182 71.3741 86.1126 70.8536 85.7426Z" fill="#F9F5F4"/>
<path d="M73.5951 77.1127C74.1884 76.8103 75.3047 76.9158 75.9377 77.1093C76.8522 77.3893 77.5643 78.0898 77.9902 78.9333C78.5452 80.0135 78.6359 81.2741 78.2415 82.4233C77.8544 83.5633 77.1995 84.2274 76.2303 84.9007C75.1092 85.2191 74.4135 85.2094 73.3002 84.8623C72.7059 84.0528 72.1612 83.9444 71.6426 82.8093C71.2594 81.9697 71.2462 80.7782 71.5742 79.9211C71.4388 79.3329 71.2497 78.6095 71.4985 78.0257C71.7629 77.4053 72.5221 77.1754 73.0994 76.9561L73.5951 77.1127Z" fill="black"/>
<path d="M73.1002 76.9563L73.596 77.1128C74.1708 77.6836 74.6967 78.1143 74.7166 78.9835C74.7273 79.4429 74.5997 79.9286 74.2858 80.2752C74.0287 80.5596 73.6532 80.7205 73.2715 80.7302C72.6054 80.7477 72.033 80.3719 71.575 79.9213C71.4397 79.333 71.2505 78.6097 71.4994 78.0258C71.7637 77.4055 72.5229 77.1755 73.1002 76.9563Z" fill="#F9F5F4"/>
<path d="M73.0993 76.956C73.2366 76.8587 73.3768 76.7673 73.515 76.6721C75.1528 75.5476 76.9026 77.2272 78.3298 76.5048C79.3398 77.428 80.0262 78.8573 80.0849 80.2277C80.1688 82.1844 79.4115 83.9034 78.0988 85.3215C77.734 85.7158 77.3304 86.0799 76.9336 86.4411L77.7704 86.6803C77.4512 86.7449 77.23 86.742 76.9098 86.6895C76.6052 86.4352 76.3224 86.2291 75.9736 86.0376L75.8746 85.9841C75.8295 86.0109 75.7863 86.0415 75.7393 86.0648C74.8879 86.4897 73.8139 85.97 72.9877 85.6832L72.9053 85.2014L73.3001 84.8621C74.4135 85.2092 75.1091 85.2189 76.2302 84.9005C77.1995 84.2272 77.8543 83.5631 78.2415 82.4231C78.6359 81.2739 78.5451 80.0133 77.9902 78.9331C77.5643 78.0896 76.8521 77.3891 75.9377 77.1091C75.3046 76.9156 74.1884 76.8101 73.5951 77.1125L73.0993 76.956Z" fill="#4C3A32"/>
<path d="M70.2047 83.0543C70.1174 82.7217 70.0388 82.3873 69.9932 82.046C69.7501 80.2244 70.0606 78.4242 71.2181 76.9551C72.0113 75.9483 73.1508 75.1248 74.4528 74.993C75.9004 74.8467 77.2533 75.6046 78.3293 76.5049C76.9021 77.2274 75.1523 75.5477 73.5146 76.6722C73.3763 76.7675 73.2361 76.8589 73.0989 76.9561C72.5216 77.1753 71.7624 77.4053 71.498 78.0256C71.2491 78.6095 71.4383 79.3328 71.5737 79.9211C71.2457 80.7781 71.2588 81.9697 71.6421 82.8092C72.1607 83.9444 72.7054 84.0528 73.2997 84.8622L72.9048 85.2016L72.9873 85.6833L72.8675 86.3134L72.965 86.5112L72.476 86.5248C71.874 86.3182 71.3733 86.1126 70.8528 85.7426L71.2045 85.43C70.7965 84.537 70.1669 84.1228 70.2047 83.0543Z" fill="url(#paint0_linear_3042_449)"/>
<path d="M70.2048 83.0542C70.8664 84.3945 71.6329 85.4494 72.8675 86.3133L72.965 86.5112L72.476 86.5248C71.874 86.3182 71.3734 86.1125 70.8529 85.7426L71.2046 85.43C70.7966 84.5369 70.1669 84.1227 70.2048 83.0542Z" fill="#EFD9AB"/>
<path d="M71.2951 86.7699C69.117 85.4418 68.1307 83.4758 67.5394 81.0476C66.9306 78.5478 67.1503 76.0417 68.5305 73.8225C69.5104 72.2469 71.0443 70.9261 72.8834 70.5167C74.4313 70.1725 75.957 70.5819 77.2716 71.4302C79.4459 72.8347 80.9638 75.0583 81.4824 77.5984C81.9806 80.05 81.689 82.4238 80.5262 84.6431C80.1503 85.3601 79.6472 86.0801 79.3828 86.8443L79.3067 86.8633C79.2208 86.5779 79.0588 86.3212 78.9162 86.0602C80.5927 83.8895 81.3815 81.6431 81.1103 78.875C80.8784 76.5055 79.7995 74.2941 77.9294 72.7963C76.6895 71.8035 75.1556 71.2435 73.5611 71.4307C71.968 71.6295 70.5214 72.4628 69.5477 73.7428C68.0847 75.6441 67.8077 78.1346 68.1206 80.452C68.4034 82.5449 69.148 84.436 70.8541 85.7427C71.3747 86.1127 71.8753 86.3183 72.4773 86.5249C72.0053 86.504 71.6919 86.4437 71.2951 86.7699Z" fill="#16110D"/>
<path d="M66.1724 74.2372L66.9548 74.0583C66.2097 77.8415 65.6038 81.9693 64.2164 85.5678C64.0379 85.1978 63.8919 85.14 63.5576 84.9149C64.3978 82.7258 64.8364 80.2635 65.2817 77.9689C65.5194 76.7443 65.6761 75.3797 66.1724 74.2372Z" fill="black"/>
<path d="M71.5585 64.3467C71.8724 64.6053 72.1528 64.8853 72.554 64.9889C70.1299 67.1085 68.5552 69.2071 67.473 72.2713C67.3788 72.1065 67.2095 71.9534 67.0829 71.8099C66.8452 71.5907 66.7846 71.4376 66.6982 71.1284C67.4545 70.494 69.246 67.3019 69.3639 66.2971C69.6783 66.1167 70.0562 66.0657 70.3943 65.932C70.8677 65.7443 71.0016 65.3321 71.1923 64.8965L71.5585 64.3467Z" fill="#261812"/>
<path d="M81.3177 86.2131C81.4992 85.6968 81.8727 85.4688 82.3404 85.2418C84.6538 84.1178 88.3819 84.0512 90.7706 84.8947C91.5715 85.1747 92.3021 85.6253 92.9123 86.216C93.152 86.551 93.4183 87.0249 93.7035 87.3123L93.8806 87.1018L94.2774 87.1581C100.369 87.1951 105.439 86.6764 110.309 91.0366C107.743 96.5188 102.765 99.6753 97.2147 101.681C91.9426 103.585 84.4647 104.677 79.0688 102.618C78.5686 102.729 78.2344 102.813 77.839 103.169C77.0173 103.124 76.0946 102.67 75.3553 102.329C70.9364 100.271 68.4789 98.337 65.4246 94.6311C65.0623 94.1362 64.6775 93.6394 64.3588 93.1144C62.7507 90.4625 62.8244 87.7984 63.5579 84.9146C63.8922 85.1397 64.0382 85.1975 64.2167 85.5675C63.9208 87.3565 63.7932 88.7279 64.2948 90.5067C66.1096 88.27 68.6259 87.5135 71.2949 86.7697C71.6917 86.4435 72.0051 86.5038 72.4771 86.5247L72.9661 86.5111L72.8686 86.3132L72.9884 85.6832C73.8146 85.97 74.8886 86.4897 75.74 86.0648C75.787 86.0415 75.8302 86.0109 75.8753 85.9841L75.9743 86.0376C76.3231 86.2291 76.6059 86.4353 76.9105 86.6895C77.2307 86.742 77.4519 86.7449 77.7711 86.6803L78.916 86.06C79.0586 86.321 79.2206 86.5777 79.3065 86.8631L79.3826 86.8441C80.0419 86.8125 80.7114 86.462 81.3177 86.2131Z" fill="#EFD9AB"/>
<path d="M81.317 86.2131C81.4985 85.6968 81.872 85.4688 82.3396 85.2418C84.6531 84.1178 88.3812 84.0512 90.7699 84.8947C91.5708 85.1747 92.3013 85.6253 92.9116 86.216C93.1513 86.551 93.4176 87.0249 93.7028 87.3123C93.9109 88.7444 93.7193 89.8791 92.8524 91.0706C91.8352 92.4688 89.9146 93.5081 88.2056 93.7483C88.176 93.7527 88.1464 93.7556 88.1163 93.759C87.7292 93.7692 87.2077 93.7177 86.8497 93.8659C85.4429 93.7901 83.8702 93.1299 82.7447 92.3224C81.9768 91.7891 81.2889 90.7964 80.9867 89.9131C80.5118 88.5237 80.8436 87.5505 81.4718 86.3098L81.317 86.2131Z" fill="black"/>
<path d="M81.3174 86.2131C81.4988 85.6968 81.8723 85.4688 82.34 85.2418C84.6535 84.1178 88.3815 84.0512 90.7702 84.8947C91.5711 85.1747 92.3017 85.6253 92.912 86.216C93.1516 86.551 93.4179 87.0249 93.7032 87.3123C93.9113 88.7444 93.7197 89.8791 92.8528 91.0706C91.8355 92.4688 89.915 93.5081 88.2059 93.7483C88.1763 93.7527 88.1467 93.7556 88.1167 93.759C87.7295 93.7692 87.2081 93.7177 86.85 93.8659C85.4432 93.7901 83.8705 93.1299 82.7451 92.3224C83.7094 91.565 86.5789 92.5237 88.2234 91.8275C89.7568 91.179 91.6449 89.9433 92.2842 88.321C92.472 87.8451 92.5045 87.3259 92.2716 86.8582C91.9476 86.2082 91.2194 85.7965 90.5461 85.6064C89.8063 85.3973 89.0073 85.3196 88.316 85.7041C86.3106 85.3774 84.9276 85.7133 83.0555 86.4391C82.5995 86.2753 81.9708 86.3905 81.4721 86.3098L81.3174 86.2131Z" fill="black"/>
<path d="M83.0557 86.4391C84.9277 85.7133 86.3107 85.3774 88.3162 85.7041C88.2133 86.2262 88.1779 86.5723 87.686 86.8961C86.71 87.5378 85.1353 87.6059 84.0346 87.3108C83.6485 87.2072 83.3661 87.058 83.1178 86.7371L83.0557 86.4391Z" fill="#F9F5F4"/>
<path d="M83.3807 97.0159C81.9079 96.0801 80.0169 96.0154 78.4758 94.9722C77.7796 94.5006 76.7905 93.7072 76.6716 92.8098C76.6091 92.3363 76.7696 91.9498 77.0578 91.5881C77.425 91.7875 77.4051 92.4418 77.5492 92.8429C77.9504 93.9605 78.9696 94.7529 80.0213 95.2182C81.3428 95.803 83.1663 96.1209 84.5445 95.5468C85.2712 95.2439 86.5295 94.6187 86.8502 93.8662C87.2082 93.7179 87.7297 93.7695 88.1168 93.7592C88.4059 94.4632 89.038 95.2011 89.7439 95.5006C90.9343 96.0062 92.4042 95.8472 93.5757 95.3655C94.9214 94.8117 95.6714 93.8438 96.2526 92.559C96.3908 92.2532 96.3161 92.1287 96.6523 92.2347C96.8255 92.7082 96.7643 93.1545 96.5543 93.6042C95.8975 95.0106 94.2529 95.7826 92.8684 96.259C92.6943 96.3188 92.5192 96.3771 92.3436 96.4335C92.004 96.5103 91.7857 96.5123 91.448 96.4257L90.6986 96.6382C88.6664 98.0845 86.8987 97.9406 84.526 97.7738C84.1331 97.6197 83.7552 97.416 83.3763 97.2298L83.3807 97.0159Z" fill="black"/>
<path d="M88.6609 96.335C89.3449 96.3875 90.0231 96.5216 90.6989 96.6378C88.6668 98.0841 86.899 97.9402 84.5264 97.7735C85.8318 96.7983 87.0513 96.4716 88.6609 96.335Z" fill="#ED7455"/>
<path d="M85.4508 95.8184C85.9728 96.112 86.4724 95.867 87.023 95.9C87.528 96.1849 88.0966 96.2423 88.6603 96.3351C87.0507 96.4717 85.8311 96.7984 84.5257 97.7736C84.1328 97.6195 83.7548 97.4158 83.376 97.2296L83.3803 97.0157C83.9431 96.5252 84.7954 96.1786 85.4508 95.8184Z" fill="#ED7455"/>
<path d="M87.7283 94.1238C88.1164 94.6342 88.5282 95.1388 88.8867 95.6697C88.276 95.7334 87.6186 95.7553 87.0234 95.9001C86.4728 95.8671 85.9731 96.1121 85.4512 95.8185C86.2007 95.2443 86.9414 94.6464 87.7283 94.1238Z" fill="white"/>
<path d="M63.5579 84.9146C63.8922 85.1396 64.0382 85.1975 64.2167 85.5674C63.9208 87.3564 63.7932 88.7278 64.2948 90.5066C66.1096 88.2699 68.6258 87.5135 71.2949 86.7697C71.6917 86.4435 72.0051 86.5037 72.4771 86.5247L72.9661 86.511L72.8686 86.3132L72.9884 85.6831C73.8146 85.97 74.8886 86.4897 75.74 86.0648C75.787 86.0414 75.8302 86.0108 75.8753 85.9841L75.9743 86.0375C76.3231 86.2291 76.6059 86.4352 76.9105 86.6895C77.2307 86.742 77.4519 86.7449 77.7711 86.6802L78.916 86.0599C79.0586 86.321 79.2206 86.5776 79.3065 86.863C79.0232 87.2208 78.9858 87.302 78.509 87.3545C77.4636 87.4687 76.3376 87.3511 75.2791 87.3968C71.7859 87.5465 67.3287 88.2509 64.9463 91.0433C64.8585 91.1464 64.7731 91.2514 64.6907 91.3589C65.4057 93.0817 66.5855 94.23 67.628 95.7234C67.0759 95.8912 65.9961 94.9004 65.4246 94.6311C65.0623 94.1362 64.6775 93.6393 64.3588 93.1143C62.7507 90.4624 62.8244 87.7983 63.5579 84.9146Z" fill="black"/>
<path d="M91.4478 96.4255C91.6195 96.7794 91.6418 96.813 91.5177 97.2107C91.2654 98.0186 90.3122 98.8796 89.6621 99.3779C87.9822 99.5028 86.0034 99.4532 84.3376 99.182C84.2422 99.182 82.9073 97.7205 83.3761 97.2296C83.7549 97.4158 84.1328 97.6195 84.5258 97.7736C86.8985 97.9404 88.6662 98.0843 90.6983 96.638L91.4478 96.4255Z" fill="#F9F5F4"/>
<path d="M65.4248 94.6311C65.9963 94.9004 67.0761 95.8912 67.6282 95.7235C69.8209 97.8197 71.9859 99.2922 74.6438 100.74C74.834 101.318 75.0115 101.824 75.3554 102.329C70.9366 100.271 68.479 98.337 65.4248 94.6311Z" fill="black"/>
<path d="M91.4474 96.4255C91.785 96.5121 92.0033 96.5101 92.3429 96.4333C92.3293 96.4571 92.3153 96.481 92.3012 96.5053C91.9997 98 90.4991 100 86.9991 100C82.9991 100 83 97.5 83.2043 97.2107H83.5C83.5 99 85.9997 99.5 87.4997 99.5C89.4091 99.3332 91.265 98.0186 91.5173 97.2107C91.6414 96.813 91.6191 96.7794 91.4474 96.4255Z" fill="black"/>
<path d="M74.6426 100.74C76.0916 101.477 77.544 102.061 79.0677 102.618C78.5676 102.729 78.2334 102.813 77.838 103.169C77.0162 103.124 76.0935 102.67 75.3542 102.329C75.0103 101.824 74.8327 101.318 74.6426 100.74Z" fill="black"/>
<path d="M103.78 62.135C103.805 62.1034 103.828 62.0718 103.853 62.0407C106.924 58.1832 112.232 55.6981 117.042 55.1113C118.848 54.8909 122.924 54.7672 124.345 55.8866C124.044 56.0329 123.961 56.0057 123.638 55.9753L124.477 56.7019L124.501 57.1151L124.387 57.1171L124.282 57.1132C124.004 57.102 123.801 57.084 123.545 56.9751L123.042 57.4962C123.178 57.9513 123.23 58.0198 122.987 58.4457C122.961 58.4924 122.93 58.5371 122.901 58.5823C122.836 58.4048 122.647 58.2337 122.523 58.0879C122.642 58.5123 122.715 58.91 122.472 59.3086C122.376 59.4646 122.252 59.6168 122.12 59.7427C122.491 60.997 121.099 63.5341 120.48 64.6746C118.831 67.7116 116.142 69.975 112.817 70.9444C111.098 71.4461 109.506 71.5492 107.726 71.4782C107.357 71.0251 107.002 70.5749 106.678 70.0883L105.262 67.537C105.256 67.4607 105.251 67.364 105.236 67.2857C105.139 66.8088 104.871 66.6547 104.494 66.4155C103.932 65.8438 103.294 65.3509 102.674 64.8443C103.205 64.1739 103.783 63.5507 104.362 62.9226C104.163 62.6649 103.973 62.3975 103.78 62.135Z" fill="#F47842"/>
<path d="M103.78 62.135C103.805 62.1034 103.828 62.0718 103.853 62.0407C106.924 58.1832 112.232 55.6981 117.042 55.1113C118.848 54.8909 122.924 54.7672 124.345 55.8866C124.044 56.0329 123.961 56.0057 123.638 55.9753L124.477 56.7019L124.501 57.1151L124.387 57.1171L124.282 57.1132C124.004 57.102 123.801 57.084 123.545 56.9751L123.042 57.4962C123.178 57.9513 123.23 58.0198 122.987 58.4457C122.961 58.4924 122.93 58.5371 122.901 58.5823C122.836 58.4048 122.647 58.2337 122.523 58.0879C122.642 58.5123 122.715 58.91 122.472 59.3086C122.376 59.4646 122.252 59.6168 122.12 59.7427C119.155 58.927 115.603 60.2118 113.027 61.6785C110.858 62.9119 107.584 66.1924 105.596 66.8224L105.262 67.537C105.256 67.4607 105.251 67.364 105.236 67.2857C105.139 66.8088 104.871 66.6547 104.494 66.4155C103.932 65.8438 103.294 65.3509 102.674 64.8443C103.205 64.1739 103.783 63.5507 104.362 62.9226C104.163 62.6649 103.973 62.3975 103.78 62.135Z" fill="#D19C6B"/>
<path d="M105.595 66.8226C105.627 66.7477 105.659 66.6728 105.695 66.5994C107.08 63.7472 112.485 59.8498 115.525 58.8158C117.177 58.2538 120.948 57.3151 122.523 58.088C122.641 58.5124 122.714 58.9101 122.471 59.3087C122.375 59.4648 122.251 59.6169 122.119 59.7429C119.154 58.9271 115.603 60.212 113.026 61.6787C110.857 62.912 107.583 66.1925 105.595 66.8226Z" fill="#D45936"/>
<path d="M104.493 66.4155C106.51 64.1364 108.344 62.0003 110.85 60.2142C114.138 57.8701 118.107 56.3577 122.192 57.0825C122.598 57.1545 122.797 57.1433 123.041 57.4962C123.178 57.9513 123.229 58.0198 122.986 58.4457C122.96 58.4923 122.929 58.5371 122.901 58.5823C122.835 58.4048 122.646 58.2337 122.523 58.0879C120.949 57.3149 117.177 58.2536 115.525 58.8156C112.485 59.8496 107.08 63.747 105.695 66.5992C105.659 66.6726 105.627 66.7475 105.595 66.8224L105.261 67.537C105.255 67.4607 105.25 67.3639 105.235 67.2857C105.138 66.8088 104.871 66.6547 104.493 66.4155Z" fill="black"/>
<path d="M103.779 62.135C103.804 62.1034 103.827 62.0718 103.852 62.0407C106.923 58.1832 112.231 55.6981 117.041 55.1113C118.847 54.8909 122.923 54.7672 124.344 55.8866C124.043 56.0329 123.96 56.0057 123.637 55.9753L124.476 56.7019L124.5 57.1151L124.386 57.1171C123.603 56.1287 121.781 55.9001 120.587 55.7651C115.982 55.2443 110.882 57.2746 107.335 60.1409C106.276 60.997 105.317 61.9551 104.361 62.9226C104.162 62.6649 103.972 62.3975 103.779 62.135Z" fill="black"/>
<path d="M95.6452 110.016C96.3238 109.67 96.742 109.554 97.4929 109.794C98.3943 110.083 98.9235 110.761 99.3383 111.581C100.097 113.083 100.351 114.977 99.8035 116.586C99.7099 116.857 99.6104 117.125 99.5052 117.391C99.8651 117.655 100.017 117.729 100.484 117.649C100.626 117.624 100.767 117.591 100.908 117.559C98.1304 122.133 94.7744 124.389 89.56 125.654C87.5409 126.144 85.5384 126.314 83.4689 126.423C82.4657 126.323 81.4815 126.266 80.4734 126.258C80.5403 126.123 80.6024 125.982 80.6301 125.833C80.7174 125.356 80.6131 125.021 80.3613 124.622C81.9447 122.107 82.2072 120.606 81.6178 117.718C85.7635 116.513 90.1591 115.331 93.4442 112.375C94.2485 111.651 94.8971 110.794 95.6452 110.016Z" fill="#F47842"/>
<path d="M95.6452 110.016C96.3238 109.67 96.742 109.554 97.4929 109.794C98.3943 110.083 98.9235 110.761 99.3383 111.581C100.097 113.083 100.351 114.977 99.8035 116.586C99.7099 116.857 99.6104 117.125 99.5052 117.391C99.8651 117.655 100.017 117.729 100.484 117.649C100.626 117.624 100.767 117.591 100.908 117.559C98.1304 122.133 94.7744 124.389 89.56 125.654C87.5409 126.144 85.5384 126.314 83.4689 126.423C82.4657 126.323 81.4815 126.266 80.4734 126.258C80.5403 126.123 80.6024 125.982 80.6301 125.833C80.7174 125.356 80.6131 125.021 80.3613 124.622L80.5432 124.694C84.2805 124.701 87.9572 123.746 91.2195 121.918C92.2407 121.34 93.6096 119.977 94.7235 119.86C95.0475 119.647 95.3667 119.402 95.6549 119.143C96.14 118.706 96.139 118.17 96.1671 117.562C96.2981 117.22 96.4223 116.875 96.5397 116.527C97.2785 114.312 96.6527 112.025 95.6452 110.016Z" fill="#9C4115"/>
<path d="M80.5432 124.694C81.1171 124.913 81.7366 124.828 82.3411 124.847C84.7938 124.923 86.7759 124.921 89.184 124.304C93.4151 123.221 97.2091 121.257 99.5052 117.391C99.8651 117.655 100.017 117.729 100.484 117.649C100.626 117.624 100.767 117.591 100.908 117.559C98.1304 122.133 94.7744 124.389 89.56 125.654C87.5409 126.144 85.5384 126.315 83.4689 126.423C82.4657 126.323 81.4815 126.266 80.4734 126.258C80.5403 126.123 80.6024 125.982 80.6301 125.833C80.7174 125.356 80.6131 125.021 80.3613 124.622L80.5432 124.694Z" fill="url(#paint1_linear_3042_449)"/>
<path d="M94.724 119.86C94.2029 119.819 93.744 119.744 93.257 119.544C92.7845 119.351 92.3746 119.078 92.2004 118.569C92.0559 118.148 92.1504 117.73 92.3309 117.337C92.6035 116.744 93.1866 116.232 93.7979 116.017C94.2568 115.855 94.7239 115.843 95.1635 116.074C95.7805 116.397 95.9639 116.946 96.1676 117.562C96.1395 118.169 96.1405 118.706 95.6554 119.143C95.3672 119.402 95.048 119.647 94.724 119.86Z" fill="#F9F5F4"/>
<path d="M84.1653 118.984C84.5272 118.942 84.9031 118.893 85.2675 118.902C85.7598 118.915 86.3002 119.212 86.6161 119.583C86.8863 119.901 87.0056 120.262 86.9634 120.678C86.8785 121.509 86.3769 121.894 85.7715 122.374C85.4848 122.495 85.183 122.551 84.8706 122.535C84.3593 122.507 83.7976 122.233 83.4861 121.831C83.1742 121.42 83.0456 120.899 83.1315 120.39C83.2538 119.678 83.604 119.358 84.1653 118.984Z" fill="#F9F5F4"/>
<path d="M102.745 70.7554C103.803 71.2376 104.715 71.8035 105.589 72.5784C106.703 74.295 107.284 75.9717 107.425 78.0276L107.213 78.4734L106.921 78.5093C106.897 80.8851 106.569 83.487 104.805 85.2463C104.441 85.608 104.015 85.8997 103.547 86.1073L102.59 86.5161L102.142 86.6197C101.195 86.2322 98.501 85.6274 97.5415 85.9225L97.4183 86.4544C96.2705 86.2944 95.4027 85.9143 94.6299 85.0168C93.4297 83.624 93.1241 81.4787 93.2653 79.7023C93.4627 77.2152 94.6357 74.6119 96.5621 72.995C98.1911 71.628 99.7798 71.3844 101.823 71.5585L102.575 71.4428L102.323 71.3533L102.244 71.1895L102.745 70.7554Z" fill="#F9F5F4"/>
<path d="M98.7388 77.5496C98.979 77.1904 99.2705 77.0601 99.6926 76.9653C100.444 76.7966 101.385 77.2424 101.985 77.6731C102.364 77.9444 102.719 78.29 103.019 78.6449C103.622 79.9424 103.861 81.114 103.362 82.5C102.943 83.6322 102.088 84.5486 100.989 85.0445C100.156 85.4159 99.2152 85.4898 98.3643 85.1339C97.6149 84.8208 96.8382 84.0343 96.5272 83.2861C96.5161 83.2594 96.5064 83.2316 96.4962 83.2039C96.4695 82.4353 95.9597 81.1257 96.3444 80.4728L95.6914 79.2147C95.6992 79.1792 95.7064 79.1437 95.7152 79.1087C95.9805 78.043 96.2794 77.6687 97.2137 77.1009C97.7327 77.1758 98.3275 77.1923 98.7388 77.5496Z" fill="black"/>
<path d="M97.2137 77.1006C97.7327 77.1755 98.3275 77.192 98.7388 77.5493C99.2249 78.1259 99.6096 78.5527 99.5373 79.3587C99.4927 79.8599 99.2715 80.3752 98.8829 80.7029C98.4939 81.0311 97.9379 81.173 97.4388 81.0748C97.0119 80.9907 96.6655 80.7539 96.3444 80.4725L95.6914 79.2143C95.6992 79.1788 95.7064 79.1434 95.7152 79.1084C95.9805 78.0427 96.2794 77.6684 97.2137 77.1006Z" fill="#F9F5F4"/>
<path d="M95.0964 78.9949C95.7785 77.4529 96.753 76.0854 98.3864 75.4685C99.5822 75.0168 100.859 75.1345 102.005 75.6765C103.391 76.3319 104.392 77.5083 104.875 78.958C105.452 80.6848 105.236 82.3693 104.42 83.9711C104.054 84.6896 102.226 85.8807 102.19 86.3906L102.589 86.5161L102.142 86.6196C101.194 86.2321 98.5004 85.6274 97.5408 85.9225L97.4176 86.4543C96.6643 85.2482 95.6324 84.4704 94.9785 83.1004C95.4806 83.1364 95.9938 83.1952 96.4964 83.204C96.5066 83.2317 96.5163 83.2594 96.5275 83.2861C96.8384 84.0343 97.6151 84.8209 98.3646 85.1339C99.2154 85.4898 100.156 85.4159 100.989 85.0445C102.088 84.5486 102.943 83.6323 103.363 82.5C103.861 81.114 103.623 79.9424 103.019 78.6449C102.719 78.29 102.364 77.9444 101.985 77.6731C101.385 77.2424 100.444 76.7966 99.6928 76.9653C99.2707 77.0601 98.9792 77.1904 98.7391 77.5496C98.3277 77.1923 97.733 77.1758 97.2139 77.1009C96.2796 77.6687 95.9807 78.0431 95.7154 79.1087C95.7067 79.1437 95.6994 79.1792 95.6916 79.2147L95.0964 78.9949Z" fill="url(#paint2_linear_3042_449)"/>
<path d="M97.2139 77.101L97.3444 77.0873C97.9823 77.0149 98.4325 76.7072 99.0306 76.5497C100.078 76.2735 101.799 76.364 102.708 77.0173C103.072 77.2784 103.159 77.6615 103.187 78.0951C103.202 78.3207 103.135 78.4588 103.019 78.6449C102.719 78.2901 102.364 77.9444 101.985 77.6731C101.385 77.2424 100.444 76.7966 99.6928 76.9653C99.2707 77.0601 98.9792 77.1904 98.739 77.5497C98.3277 77.1924 97.7329 77.1758 97.2139 77.101Z" fill="#4C3A32"/>
<path d="M102.745 70.7554C103.803 71.2376 104.715 71.8035 105.589 72.5784C106.703 74.295 107.285 75.9717 107.425 78.0276L107.213 78.4734L106.921 78.5093C106.715 77.1131 106.38 75.7631 105.676 74.5269C104.776 72.9464 103.567 72.0189 101.823 71.5585L102.576 71.4428L102.323 71.3533L102.244 71.1895L102.745 70.7554Z" fill="#3F1806"/>
<path d="M95.0975 78.9949L95.6927 79.2146L96.3457 80.4727C95.961 81.1256 96.4708 82.4353 96.4975 83.2039C95.9949 83.1951 95.4817 83.1363 94.9796 83.1003C94.6725 81.6142 94.7482 80.4465 95.0975 78.9949Z" fill="#16110D"/>
<path d="M63.4921 128.374C66.6802 127.547 67.747 125.373 69.9843 123.306L70.1027 123.198C70.3947 123.27 70.6518 123.333 70.9535 123.323C70.2128 124.257 69.4905 125.225 68.6939 126.11C70.5228 126.621 71.6317 127.461 72.9468 128.8C72.6354 129.574 72.3274 130.244 71.8204 130.909L70.0095 133.425L68.9277 134.749C68.7012 135.109 68.5358 135.448 68.1399 135.641C67.7523 135.304 67.6407 134.581 67.4428 134.089C67.2638 133.551 67.2643 132.857 67.207 132.288C66.492 131.712 65.1909 131.452 64.3284 131.075C63.7419 130.81 63.1976 130.508 62.6461 130.176C62.6043 130.14 62.5621 130.104 62.5199 130.068C61.9058 129.539 61.2295 129.089 61.1631 128.227L61.4556 128.005C62.1163 127.845 62.86 128.176 63.4921 128.374Z" fill="#F47842"/>
<path d="M63.4921 128.374C66.6802 127.547 67.747 125.373 69.9843 123.306L70.1027 123.198C70.3947 123.27 70.6518 123.333 70.9535 123.323C70.2128 124.257 69.4905 125.225 68.6939 126.11C68.1991 126.627 67.6742 127.133 67.2216 127.687C66.0408 128.648 64.2319 128.754 63.4101 129.475C63.5765 129.67 63.6599 129.76 63.9064 129.854C64.0597 130.249 64.2518 130.658 64.3284 131.075C63.7419 130.81 63.1976 130.508 62.6461 130.176C62.6043 130.14 62.5621 130.104 62.5199 130.068C61.9058 129.539 61.2295 129.089 61.1631 128.227L61.4556 128.005C62.1163 127.845 62.86 128.176 63.4921 128.374Z" fill="black"/>
<path d="M62.6461 130.176C62.6043 130.14 62.5621 130.104 62.5199 130.068C61.9058 129.539 61.2295 129.089 61.1631 128.227L61.4556 128.005C62.1163 127.845 62.86 128.176 63.4921 128.374C62.9357 128.972 62.7246 129.341 62.6461 130.176Z" fill="black"/>
<path d="M68.694 126.11C70.5228 126.621 71.6318 127.461 72.9469 128.8C72.6355 129.574 72.3275 130.244 71.8205 130.909C70.6087 129.415 68.8798 128.575 67.2217 127.686C67.6743 127.133 68.1992 126.627 68.694 126.11Z" fill="#F9F5F4"/>
<path d="M63.9062 129.854C65.1603 130.235 67.2651 130.595 67.9535 131.857C68.001 131.943 68.0457 132.031 68.0893 132.12L67.2069 132.288C66.4919 131.712 65.1908 131.452 64.3283 131.075C64.2516 130.658 64.0595 130.249 63.9062 129.854Z" fill="black"/>
<path d="M67.207 132.288L68.0894 132.12C68.3946 132.779 68.6012 134.335 68.9277 134.749C68.7012 135.109 68.5357 135.448 68.1399 135.641C67.7523 135.304 67.6407 134.58 67.4428 134.089C67.2638 133.551 67.2643 132.857 67.207 132.288Z" fill="black"/>
<path d="M104.088 67.4453C104.884 68.4434 105.471 69.597 105.996 70.7569C106.328 71.7482 106.869 72.6757 107.181 73.6621C109.035 77.754 110.973 85.6723 110.641 90.1593C110.147 90.0864 108.298 88.2289 107.516 87.8643C106.612 87.4433 104.338 87.3985 103.759 86.7364L103.546 86.1073C104.014 85.8998 104.44 85.6081 104.804 85.2464C106.568 83.487 106.897 80.8852 106.92 78.5094L107.212 78.4735L107.424 78.0277C107.284 75.9718 106.702 74.2951 105.588 72.5785L105.762 72.5761C105.931 72.7195 106.061 72.8342 106.175 73.0262C106.205 73.0763 106.233 73.1273 106.262 73.1779L106.444 73.1186C106.532 71.3957 104.111 69.1658 104.088 67.4453Z" fill="#CC7C27"/>
<path d="M107.424 78.0273C107.668 80.7259 107.334 83.1916 105.541 85.3452C104.999 85.9967 104.519 86.3584 103.759 86.7361L103.546 86.107C104.014 85.8994 104.44 85.6078 104.804 85.2461C106.568 83.4867 106.897 80.8849 106.92 78.5091L107.212 78.4731L107.424 78.0273Z" fill="#312410"/>
<path d="M123.042 57.4962L123.545 56.9751C123.801 57.084 124.003 57.102 124.281 57.1132L124.387 57.1171L124.501 57.1151C124.975 57.979 124.323 60.0193 124.043 60.9858C123.907 61.4539 123.794 61.9046 123.5 62.3032C123.339 64.8015 120.87 67.943 119.045 69.5584C116.315 71.9736 112.66 73.4621 108.99 73.257C108.489 73.2288 108.171 73.0917 107.766 72.7966L107.571 72.6172C107.461 72.7441 107.404 72.7665 107.383 72.9381C107.349 73.2084 107.334 73.4271 107.182 73.6619C106.87 72.6756 106.329 71.748 105.997 70.7568C106.466 70.5385 106.495 70.5657 106.678 70.0883C107.002 70.5749 107.356 71.0251 107.726 71.4782C109.506 71.5492 111.098 71.4461 112.817 70.9444C116.142 69.975 118.831 67.7116 120.479 64.6746C121.098 63.5341 122.491 60.997 122.12 59.7427C122.252 59.6168 122.376 59.4646 122.471 59.3086C122.715 58.9099 122.642 58.5123 122.523 58.0879C122.646 58.2337 122.836 58.4048 122.901 58.5823C122.93 58.5371 122.96 58.4923 122.987 58.4457C123.23 58.0198 123.178 57.9513 123.042 57.4962Z" fill="#A0602F"/>
<path d="M122.523 58.0879C122.646 58.2337 122.836 58.4049 122.901 58.5823C123.307 59.8215 122.156 62.5944 121.571 63.7524C120.104 66.6562 117.32 70.2444 114.125 71.3012C112.747 71.7568 108.215 72.2118 107.898 72.3873L107.766 72.7966L107.571 72.6172C107.461 72.7441 107.404 72.7665 107.383 72.9381C107.349 73.2084 107.334 73.4271 107.182 73.662C106.87 72.6756 106.329 71.748 105.997 70.7568C106.466 70.5385 106.495 70.5657 106.678 70.0883C107.002 70.575 107.356 71.0251 107.726 71.4782C109.506 71.5492 111.098 71.4461 112.817 70.9444C116.142 69.9751 118.831 67.7116 120.48 64.6746C121.098 63.5341 122.491 60.997 122.12 59.7427C122.252 59.6168 122.376 59.4646 122.471 59.3086C122.715 58.91 122.642 58.5123 122.523 58.0879Z" fill="black"/>
<path d="M69.4541 115.616C70.0193 114.503 70.3875 113.548 71.2248 112.582C72.3837 111.244 74.0461 110.298 75.825 110.173C75.8488 110.2 75.8726 110.228 75.8968 110.254C76.2044 110.588 76.4566 110.708 76.8695 110.865C76.9122 111.105 76.9398 111.134 76.8287 111.346C76.5022 112.462 76.2447 113.724 75.6174 114.713L75.5631 114.8C74.7175 116.138 73.1904 116.829 72.406 118.29L71.9534 117.534C72.0063 117.009 72.0519 116.607 71.8709 116.099C71.5561 115.653 71.1098 115.511 70.6247 115.314C70.3705 115.763 70.0891 116.209 69.8597 116.669L69.4541 115.616Z" fill="#F47842"/>
<path d="M69.4541 115.616C70.0193 114.503 70.3875 113.548 71.2248 112.582C72.3837 111.244 74.0461 110.298 75.825 110.173C75.8488 110.2 75.8726 110.228 75.8968 110.254C76.2044 110.588 76.4566 110.708 76.8695 110.865C76.9122 111.105 76.9398 111.134 76.8287 111.346L76.6546 111C75.8265 110.796 74.7588 111.304 74.0559 111.727C72.6039 112.601 71.4523 113.841 70.6247 115.314C70.3705 115.763 70.0891 116.209 69.8597 116.669L69.4541 115.616Z" fill="black"/>
<path d="M80.1146 131.431C79.9361 132.291 81.143 134.146 81.634 134.892C82.0415 135.511 82.5081 136.093 82.9763 136.667C81.5311 136.241 80.0797 135.834 78.6768 135.279C78.0917 136.963 76.8954 137.837 75.3906 138.684C75.5987 138.1 75.8942 137.46 76.0116 136.855C76.2478 135.621 76.0853 134.273 75.688 133.092C77.5586 131.064 78.3231 132.254 80.1146 131.431Z" fill="#F47842"/>
<path d="M74.0879 125.721C75.8692 125.848 77.325 125.756 79.067 125.345C79.133 126.505 78.9918 128.134 79.4231 129.19C78.1647 129.235 77.2076 129.358 76.0502 129.912C75.649 130.104 75.2958 130.388 74.848 130.45C74.8126 129.915 74.5114 129.267 74.3814 128.734C74.1345 127.722 74.0884 126.755 74.0879 125.721Z" fill="#F47842"/>
<path d="M70.954 123.323L71.2184 123.146C71.9484 123.461 72.665 124.137 73.2592 124.668C73.2228 126.061 73.1079 127.417 72.9473 128.8C71.6322 127.461 70.5232 126.621 68.6943 126.11C69.4909 125.225 70.2132 124.257 70.954 123.323Z" fill="#F47842"/>
<path d="M74.8486 130.45C75.2964 130.389 75.6496 130.104 76.0507 129.912C77.2082 129.358 78.1653 129.235 79.4237 129.19C79.7536 129.909 79.9243 130.667 80.1145 131.431C78.323 132.254 77.5585 131.064 75.6879 133.092C75.487 132.575 75.2178 132.078 74.9704 131.582C74.8855 131.215 74.8777 130.824 74.8486 130.45Z" fill="#F9F5F4"/>
<path d="M124.345 55.8865C124.809 55.9624 125.133 55.9343 125.416 56.3746C126.174 57.5569 125.569 60.1043 125.171 61.3926C124.972 62.0377 124.743 63.0503 124.183 63.4456C123.967 63.8422 123.825 64.2705 123.611 64.6687C123.154 65.519 122.214 67.5807 121.299 67.8549C121.219 67.5452 121.696 67.06 121.888 66.7713C122.655 65.6172 123.532 63.9463 123.792 62.588L123.5 62.3031C123.794 61.9045 123.908 61.4538 124.043 60.9857C124.323 60.0192 124.975 57.9789 124.501 57.115L124.477 56.7018L123.638 55.9752C123.961 56.0056 124.044 56.0328 124.345 55.8865Z" fill="#16110D"/>
<path d="M70.6244 115.314C71.1095 115.511 71.5558 115.653 71.8706 116.099C72.0516 116.607 72.006 117.008 71.9531 117.534C71.6965 117.998 71.4345 118.341 70.9038 118.506C70.5211 118.625 70.1689 118.58 69.7818 118.517C69.7255 117.885 69.7866 117.297 69.8594 116.669C70.0888 116.209 70.3702 115.762 70.6244 115.314Z" fill="#F9F5F4"/>
<path d="M69.7822 118.517C70.1693 118.58 70.5215 118.625 70.9043 118.506C71.435 118.341 71.697 117.998 71.9536 117.534L72.4062 118.29C71.9153 119.499 71.6407 120.654 71.5223 121.959C70.717 120.871 70.4905 119.561 69.7822 118.517Z" fill="#D9846D"/>
<path d="M93.1168 83.324C93.5408 84.2754 94.66 85.5588 94.8681 86.41C94.6983 86.6254 94.5304 86.7863 94.3175 86.9579L94.2772 87.1582L93.8804 87.1018L93.7033 87.3123C93.4181 87.025 93.1518 86.551 92.9121 86.216C93.4865 85.3454 93.1983 84.3016 93.1168 83.324Z" fill="#CC7C27"/>
<path d="M74.9709 131.582C75.2183 132.078 75.4875 132.575 75.6884 133.092C76.0857 134.273 76.2482 135.621 76.0119 136.855C75.9979 136.725 75.9818 136.596 75.9624 136.466L75.9387 136.318C75.861 135.797 75.5084 135.442 75.1853 135.048C74.9369 134.64 74.8321 133.942 74.6992 133.471C75.1358 132.779 75.0931 132.36 74.9709 131.582Z" fill="black"/>
<path d="M89.0118 104.845C90.7097 104.819 92.7656 104.302 94.398 103.835C94.4969 105.586 94.5387 107.34 94.5241 109.093C94.5425 109.797 94.0637 110.258 93.6097 110.735C92.2931 112.117 90.6602 113.159 88.9866 114.049L88.5869 113.385L88.356 114.048C87.0719 115.363 82.7762 116.273 81.0041 116.545C79.4615 115.558 78.4796 115.154 76.6328 115.16C77.9756 112.018 78.8255 108.659 79.3999 105.298C79.4445 104.89 79.5279 104.529 79.6507 104.138C80.9483 103.987 82.7107 104.698 84.0783 104.828C85.7073 104.983 87.3775 104.887 89.0118 104.845Z" fill="#EFD9AB"/>
<path d="M89.0116 104.845C90.7094 104.819 92.7653 104.302 94.3977 103.835C94.4967 105.586 94.5384 107.34 94.5238 109.093C94.5423 109.797 94.0635 110.258 93.6094 110.735C92.2928 112.117 90.66 113.159 88.9863 114.049C89.0421 112.481 89.3206 110.907 89.5364 109.354C89.5044 108.455 89.4976 107.555 89.5151 106.657L89.2061 106.516C89.126 105.927 89.2861 105.407 89.0116 104.845Z" fill="#F47842"/>
<path d="M89.0117 104.845C90.7096 104.819 92.7655 104.302 94.3979 103.835C94.4968 105.586 94.5386 107.34 94.524 109.093C94.312 108.037 94.3664 106.94 94.3654 105.868C92.8145 106.264 91.2733 106.643 89.6846 106.859C89.6603 107.672 89.7045 108.558 89.5366 109.354C89.5046 108.455 89.4978 107.555 89.5153 106.657L89.2062 106.516C89.1262 105.927 89.2863 105.407 89.0117 104.845Z" fill="#974011"/>
<path d="M79.3994 105.298C79.444 104.89 79.5275 104.529 79.6502 104.138C80.9479 103.987 82.7103 104.698 84.0778 104.828C85.7068 104.983 87.377 104.887 89.0114 104.845C89.2859 105.407 89.1258 105.927 89.2059 106.516L89.1229 107.453C89.0759 107.293 89.023 106.906 88.8726 106.839C88.536 106.689 87.8694 106.751 87.4925 106.741C84.5993 106.665 82.0015 106.859 79.3994 105.298Z" fill="#DBBF9E"/>
<path d="M89.2067 106.516L89.5157 106.657C89.4982 107.555 89.505 108.455 89.537 109.354C89.3212 110.907 89.0427 112.481 88.9869 114.049L88.5872 113.385C88.496 111.963 89.0534 109.116 89.1237 107.453L89.2067 106.516Z" fill="#5E1C09"/>
<path d="M72.9167 121.714C72.8789 121.473 72.8556 121.232 72.8575 120.986C72.8677 119.693 73.2636 118.435 74.2183 117.528C75.432 116.374 76.7573 116.224 78.3397 116.258C79.2202 116.513 79.8606 116.872 80.3229 117.696C80.8478 118.633 80.8026 120.008 80.515 121.012C80.1681 122.215 79.3536 123.227 78.2544 123.822C77.2939 124.347 76.0355 124.606 74.9673 124.287C74.1678 124.049 73.6191 123.468 73.2393 122.744C73.0661 122.414 72.9842 122.078 72.9167 121.714Z" fill="#D59447"/>
<path d="M72.9167 121.714C72.8789 121.473 72.8556 121.232 72.8575 120.986C72.8677 119.693 73.2636 118.435 74.2183 117.528C75.432 116.374 76.7573 116.224 78.3397 116.258C77.4035 117.276 75.9355 117.431 75.0216 118.465C74.113 119.493 74.2765 121.093 72.9167 121.714Z" fill="#F0B260"/>
<path d="M115.281 31.1419C115.262 29.9391 115.285 28.8944 116.169 27.9907C116.822 27.3221 117.74 27.0626 118.656 27.0655C120.077 27.07 121.265 27.6905 122.237 28.7036C125.861 32.4821 124.264 39.2118 124.771 40.0034C124.952 40.2863 125.99 40.3468 126.29 40.3568C126.975 40.3797 127.547 40.3283 128.061 39.8209C128.975 38.9174 129.297 37.1174 129.334 35.8695C129.34 35.6711 129.282 35.4767 129.212 35.2934C129.226 35.2602 129.24 35.2272 129.253 35.1938C129.732 33.974 129.629 32.3677 131.009 31.7496C131.796 31.3964 132.735 31.4911 133.52 31.7987C134.442 32.1594 135.312 32.8589 135.707 33.7855C135.951 34.3567 135.937 34.7704 135.727 35.3472C136.226 36.1222 135.976 37.2261 135.792 38.1029C135.585 39.0939 135.017 41.1065 134.099 41.672C134.004 41.7304 133.915 41.7656 133.811 41.804C133.536 42.9456 131.519 44.4303 130.503 45.056C130.257 45.2072 130.034 45.2949 129.741 45.3044C129.55 45.8158 128.208 46.391 127.692 46.6264C125.238 47.7495 122.649 48.3926 120.138 49.3429C114.045 51.6493 106.544 54.9341 102.344 60.0066C101.781 60.6852 101.108 61.4699 100.799 62.3012C100.67 62.6478 100.662 62.8986 100.752 63.2545C101.039 63.6327 101.237 63.8408 101.674 64.0518C102.589 63.8301 102.997 62.6526 103.78 62.1349C103.973 62.3974 104.162 62.6648 104.362 62.9225C103.782 63.5506 103.205 64.1738 102.673 64.8442C103.293 65.3507 103.932 65.8437 104.494 66.4154C104.871 66.6546 105.138 66.8087 105.235 67.2856C105.251 67.3639 105.256 67.4606 105.261 67.5369L106.677 70.0882C106.495 70.5656 106.466 70.5384 105.997 70.7566C105.472 69.5967 104.885 68.4431 104.088 67.445C102.745 65.1052 97.9732 62.6828 95.5166 61.7562L95.9925 61.273C95.9799 61.0858 95.9857 60.8982 96.0274 60.7144C96.7289 57.6177 100.568 53.5811 103.134 51.8677C102.755 51.7349 102.373 51.6122 101.987 51.4997C103.829 50.148 106.029 49.567 107.586 47.8369C107.769 47.5075 107.941 47.1675 107.926 46.7789C107.888 45.7789 105.842 44.5264 105.171 43.8498C104.639 43.3125 104.146 42.6276 104.18 41.8344C104.217 40.9579 104.785 40.3822 105.397 39.8349C106.006 39.155 106.981 39.2073 107.831 39.1638C108.847 39.1118 109.779 39.3354 110.546 40.0386C112.052 41.4193 112.332 43.7648 113.783 45.1413C115.056 45.1865 115.826 44.8171 116.94 44.2692C117.826 42.5256 118.892 41.0581 118.607 38.9761C118.611 38.9096 118.615 38.8429 118.616 38.7762V38.6689C118.625 37.5086 118.133 36.2732 117.716 35.2017C116.883 33.8657 116.061 32.5095 115.281 31.1419Z" fill="#DBBF9E"/>
<path d="M115.281 31.1419C115.262 29.9391 115.285 28.8944 116.169 27.9907C116.822 27.3221 117.74 27.0626 118.656 27.0655C120.077 27.07 121.265 27.6905 122.237 28.7036C125.861 32.4821 124.264 39.2118 124.771 40.0034C124.952 40.2863 125.99 40.3468 126.29 40.3568C126.975 40.3797 127.547 40.3283 128.061 39.8209C128.975 38.9174 129.297 37.1174 129.334 35.8695C129.34 35.6711 129.282 35.4767 129.212 35.2934C129.226 35.2602 129.24 35.2272 129.253 35.1938C129.732 33.974 129.629 32.3677 131.009 31.7496C131.796 31.3964 132.735 31.4911 133.52 31.7987C134.442 32.1594 135.312 32.8589 135.707 33.7855C135.951 34.3567 135.937 34.7704 135.727 35.3472C136.226 36.1222 135.976 37.2261 135.792 38.1029C135.585 39.0939 135.017 41.1065 134.099 41.672C134.004 41.7304 133.915 41.7656 133.811 41.804C133.536 42.9456 131.519 44.4303 130.503 45.056C130.257 45.2072 130.034 45.2949 129.741 45.3044C129.55 45.8158 128.208 46.391 127.692 46.6264C125.238 47.7495 122.649 48.3926 120.138 49.3429C114.045 51.6493 106.544 54.9341 102.344 60.0066C101.781 60.6852 101.108 61.4699 100.799 62.3012C100.67 62.6478 100.662 62.8986 100.752 63.2545C101.039 63.6327 101.237 63.8408 101.674 64.0518C102.589 63.8301 102.997 62.6526 103.78 62.1349C103.973 62.3974 104.162 62.6648 104.362 62.9225C103.782 63.5506 103.205 64.1738 102.673 64.8442C103.293 65.3507 103.932 65.8437 104.494 66.4154C104.871 66.6546 105.138 66.8087 105.235 67.2856C105.251 67.3639 105.256 67.4606 105.261 67.5369L106.677 70.0882C106.495 70.5656 106.466 70.5384 105.997 70.7566C105.472 69.5967 104.885 68.4431 104.088 67.445C102.745 65.1052 97.9732 62.6828 95.5166 61.7562L95.9925 61.273C96.8885 61.5253 97.7457 61.7786 98.5951 62.168C98.792 62.2948 99.021 62.3848 99.2325 62.4849C99.4683 62.3989 102.142 58.4665 102.789 57.748C105.371 55.2485 109 53.3438 112.182 51.7062C112.368 51.1484 112.905 50.627 113.227 50.1197C115.189 49.2219 118.342 48.2085 119.447 46.217C120.21 46.1277 120.459 46.0382 121.049 45.5599C121.822 45.193 122.467 43.4372 122.76 42.6371C123.055 41.83 123.626 40.4198 123.256 39.6154C123.425 38.9343 123.363 37.9712 123.313 37.2673C123.255 36.4377 123.216 35.8587 122.575 35.305C122.879 34.3911 122.076 31.3352 121.676 30.4292C121.596 29.8194 120.962 29.2005 120.493 28.8299C119.793 28.2772 118.769 27.9253 117.875 28.0329C117.43 28.0864 117.03 28.2596 116.748 28.6196C116.374 29.0959 116.331 29.7499 116.434 30.3263C116.666 31.6213 117.478 32.6994 118.171 33.785C117.891 34.2755 117.775 34.6397 117.716 35.2017C116.883 33.8657 116.061 32.5095 115.281 31.1419Z" fill="black"/>
<path d="M129.211 35.2936C129.225 35.2604 129.239 35.2274 129.252 35.194C129.731 33.9742 129.628 32.3679 131.007 31.7498C131.795 31.3967 132.733 31.4913 133.519 31.799C134.441 32.1596 135.31 32.8591 135.706 33.7857C135.95 34.3569 135.936 34.7706 135.726 35.3474C136.225 36.1224 135.975 37.2263 135.791 38.1031C135.584 39.0942 135.015 41.1067 134.098 41.6723C134.003 41.7307 133.914 41.7658 133.809 41.8042C133.535 42.9458 131.518 44.4305 130.502 45.0563C130.256 45.2074 130.032 45.2951 129.74 45.3046C128.792 45.3326 127.932 45.8441 126.977 45.7669L126.87 45.7591C126.063 46.1657 125.246 46.6363 124.332 46.7289C124.601 46.3337 124.956 45.9353 124.974 45.4434C124.284 45.7162 123.211 46.3217 122.467 46.2736C122.332 46.1095 122.235 45.9811 122.148 45.784C123.084 44.671 123.293 43.471 123.771 42.155C124.531 40.0657 125.477 42.1623 127.365 41.2572C128.431 40.7463 129.454 39.8797 129.84 38.7273C130.031 38.1576 130.155 37.4927 129.878 36.9369C129.978 36.6076 129.99 36.2852 130.011 35.9431C129.755 35.526 129.661 35.5025 129.211 35.2936Z" fill="#DBBF9E"/>
<path d="M129.212 35.2936C129.225 35.2604 129.239 35.2274 129.252 35.194C129.732 33.9742 129.629 32.3679 131.008 31.7498C131.796 31.3967 132.734 31.4913 133.52 31.799C134.442 32.1596 135.311 32.8591 135.707 33.7857C135.95 34.3569 135.936 34.7706 135.726 35.3474C136.226 36.1224 135.975 37.2263 135.792 38.1031C135.584 39.0942 135.016 41.1067 134.098 41.6723C134.004 41.7307 133.914 41.7658 133.81 41.8042C133.536 42.9458 131.518 44.4305 130.502 45.0563C130.257 45.2074 130.033 45.2951 129.741 45.3046C128.793 45.3326 127.933 45.8441 126.977 45.7669L126.871 45.7591C126.064 46.1657 125.247 46.6363 124.333 46.7289C124.601 46.3337 124.957 45.9353 124.975 45.4434C125.253 45.3822 125.503 45.2602 125.761 45.1454C127.4 44.589 130.037 42.5752 131.218 41.3031C132.595 39.818 134.174 37.1933 134.074 35.07C134.035 34.2273 133.776 33.568 133.148 32.9939C132.688 32.8223 131.968 32.6714 131.495 32.8834C130.974 33.1171 130.749 33.6744 130.594 34.187C130.363 34.9506 130.397 36.372 129.879 36.9369C129.978 36.6076 129.991 36.2852 130.012 35.9431C129.756 35.526 129.662 35.5025 129.212 35.2936Z" fill="#B5A088"/>
<path d="M129.212 35.2936C129.225 35.2604 129.24 35.2274 129.253 35.194C129.732 33.9742 129.629 32.3679 131.008 31.7498C131.796 31.3967 132.734 31.4913 133.52 31.799C134.442 32.1596 135.311 32.8591 135.707 33.7857C135.951 34.3569 135.936 34.7706 135.726 35.3474C135.76 35.7538 135.749 36.4516 135.459 36.7661C135.417 36.8106 135.372 36.851 135.329 36.8935C135.128 36.8682 134.967 36.848 134.775 36.7772C134.805 36.6965 134.834 36.6158 134.86 36.5336C135.093 35.7724 134.963 34.8463 134.577 34.1554C134.23 33.5353 133.834 33.18 133.148 32.9939C132.688 32.8223 131.968 32.6714 131.495 32.8834C130.974 33.1171 130.749 33.6744 130.594 34.187C130.364 34.9506 130.397 36.372 129.879 36.9369C129.978 36.6076 129.991 36.2852 130.012 35.9431C129.756 35.526 129.662 35.5025 129.212 35.2936Z" fill="url(#paint3_linear_3042_449)"/>
<path d="M131.453 42.6051C132.001 42.3925 132.429 41.9992 132.696 41.4788C133.117 41.5206 133.476 41.513 133.81 41.804C133.536 42.9456 131.518 44.4303 130.502 45.0561C130.256 45.2073 130.033 45.295 129.741 45.3045C128.792 45.3324 127.932 45.8439 126.977 45.7667L126.87 45.7589C128.046 45.1662 130.96 43.8642 131.453 42.6051Z" fill="#16110D"/>
<path d="M135.727 35.3474C136.226 36.1224 135.976 37.2264 135.792 38.1031C135.585 39.0942 135.017 41.1067 134.099 41.6723C134.004 41.7307 133.915 41.7659 133.811 41.8042C133.477 41.5132 133.118 41.5208 132.697 41.4789C133.181 41.0702 133.549 40.5346 133.866 39.9917C134.346 39.1705 135.029 37.7398 134.775 36.7772C134.967 36.848 135.129 36.8682 135.329 36.8935C135.372 36.851 135.418 36.8107 135.459 36.7661C135.75 36.4516 135.76 35.7538 135.727 35.3474Z" fill="#261812"/>
<path d="M125.761 45.1454C128.711 44.8741 128.68 42.9435 131.454 42.6052C130.96 43.8644 128.046 45.1664 126.871 45.7591C126.064 46.1657 125.247 46.6363 124.333 46.7289C124.601 46.3337 124.957 45.9353 124.975 45.4434C125.253 45.3822 125.503 45.2602 125.761 45.1454Z" fill="#A29280"/>
<path d="M119.447 46.2169C120.21 46.1276 120.459 46.0381 121.049 45.5598C120.92 46.5757 119.866 47.453 119.079 48.0619C117.104 49.5896 114.501 50.8184 112.183 51.7061C112.368 51.1483 112.905 50.6269 113.228 50.1196C115.189 49.2218 118.343 48.2084 119.447 46.2169Z" fill="#A29280"/>
<path d="M121.675 30.4294C122.619 30.9957 123.099 32.5418 123.359 33.5522C123.703 34.8916 124.133 38.3091 123.419 39.4166C123.361 39.5063 123.332 39.5299 123.255 39.6156C123.424 38.9346 123.362 37.9715 123.312 37.2676C123.253 36.4379 123.215 35.859 122.574 35.3053C122.877 34.3914 122.075 31.3355 121.675 30.4294Z" fill="#AA9A8B"/>
<path d="M122.149 45.7837C122.236 45.9808 122.332 46.1092 122.467 46.2733C123.211 46.3214 124.285 45.7159 124.975 45.4431C124.957 45.935 124.601 46.3334 124.333 46.7286C123.791 47.3662 121.666 47.9211 120.873 47.9963L120.79 47.8392C121.204 47.2004 121.904 46.5895 122.127 45.8668C122.135 45.8394 122.142 45.8114 122.149 45.7837Z" fill="#AA9A8B"/>
<path d="M118.17 33.7852C118.39 34.2208 118.998 35.1782 118.87 35.6478C118.863 35.6711 118.851 35.6921 118.841 35.7143C119.743 36.774 119.886 38.5 119.782 39.8368C119.631 41.7743 118.822 43.8201 117.329 45.1106C116.458 45.8632 115.45 46.211 114.301 46.1037C113.807 46.0552 113.333 45.8869 112.92 45.6131L113.782 45.1414C115.055 45.1867 115.825 44.8172 116.94 44.2693C117.825 42.5257 118.891 41.0583 118.606 38.9763C118.61 38.9097 118.614 38.8431 118.615 38.7764V38.669C118.624 37.5088 118.132 36.2734 117.715 35.2019C117.774 34.6399 117.89 34.2756 118.17 33.7852Z" fill="#312410"/>
<path d="M118.171 33.7852C118.391 34.2208 118.998 35.1782 118.871 35.6478C118.864 35.6711 118.851 35.6921 118.842 35.7143C119.004 36.6109 119.036 38.16 118.606 38.9763C118.611 38.9097 118.615 38.8431 118.616 38.7764V38.669C118.625 37.5088 118.133 36.2734 117.716 35.2019C117.775 34.6399 117.89 34.2756 118.171 33.7852Z" fill="#261812"/>
<path d="M105.396 39.835C106.005 39.1552 106.98 39.2074 107.83 39.1639C108.846 39.112 109.778 39.3355 110.545 40.0387C112.052 41.4195 112.332 43.765 113.782 45.1414L112.92 45.6131C111.477 44.1158 110.987 41.4612 109.1 40.4749C107.976 39.8876 106.81 40.1655 105.669 40.5293L105.396 39.835Z" fill="black"/>
<path d="M113.227 50.1196C112.904 50.6269 112.368 51.1484 112.182 51.7062C109 53.3437 105.371 55.2484 102.788 57.7479L102.598 57.4815C102.628 56.9127 103.05 56.5136 103.392 56.0863C106.414 53.6652 109.816 51.9077 113.227 50.1196Z" fill="#AA9A8B"/>
<path d="M105.397 39.835L105.67 40.5292C105.364 41.0548 105.021 41.5655 105.175 42.2036C105.757 44.6213 110.111 44.7563 108.729 48.1364C108.361 47.9674 107.981 47.9101 107.585 47.837C107.769 47.5076 107.941 47.1675 107.926 46.779C107.888 45.779 105.842 44.5265 105.171 43.8499C104.639 43.3126 104.145 42.6276 104.179 41.8345C104.217 40.958 104.785 40.3822 105.397 39.835Z" fill="#16110D"/>
<path d="M122.575 35.3052C123.216 35.8589 123.254 36.4378 123.313 37.2675C123.363 37.9714 123.425 38.9345 123.256 39.6156C123.625 40.42 123.055 41.8302 122.76 42.6373C122.467 43.4374 121.822 45.1932 121.049 45.5601C120.459 46.0384 120.21 46.1279 119.446 46.2172C120.458 45.5207 121.257 43.9903 121.709 42.8905C122.502 40.9636 123.412 37.3068 122.575 35.3052Z" fill="#B5A088"/>
<path d="M107.586 47.8372C107.982 47.9103 108.361 47.9676 108.73 48.1366C107.136 49.8861 105.216 50.8198 103.134 51.8679C102.755 51.7351 102.373 51.6124 101.987 51.4999C103.83 50.1482 106.03 49.5672 107.586 47.8372Z" fill="#261812"/>
<path d="M103.392 56.0864C103.05 56.5137 102.628 56.9128 102.598 57.4816L102.788 57.748C102.141 58.4665 99.4679 62.3989 99.2322 62.485C99.0206 62.3848 98.7917 62.2949 98.5947 62.168C100.363 60.1904 101.144 57.7339 103.392 56.0864Z" fill="#B5A088"/>
<path d="M48.4348 39.8845C49.08 40.0559 49.8916 40.236 50.5082 39.8676C50.8972 39.6351 51.083 39.2281 51.1664 38.7986C51.3678 37.7679 51.2106 36.546 51.198 35.496C51.1645 32.8055 51.7699 29.5161 54.1358 27.8702C55.221 27.1153 56.768 26.8378 58.0569 27.0918C58.7982 27.2377 59.4909 27.6193 59.9159 28.2592C60.336 28.8928 60.5067 29.6607 60.3534 30.4085C60.1895 31.2076 59.7495 31.9117 59.2896 32.5719C57.1308 35.6706 56.3571 36.9561 56.9868 40.8844C57.3681 42.0898 57.844 42.9661 58.6327 43.9621C59.4793 44.6567 59.9086 45.0681 61.0321 45.0483C61.2994 44.5931 61.7665 44.3753 62.2061 44.1094C63.9456 42.6699 63.1147 40.7844 66.3503 39.5904C67.2531 39.0526 68.5852 39.0319 69.5836 39.2932C70.304 39.4816 71.018 39.8747 71.3964 40.5414C71.7171 41.1066 71.7413 41.7977 71.5357 42.4049C70.8866 44.3252 67.0717 45.2309 67.2745 47.0729C68.2195 48.6237 70.4155 49.2992 71.9189 50.1926C75.7755 52.4847 78.2389 56.6163 79.6855 60.7363L82.9706 59.9585C83.006 59.9702 83.0415 59.9833 83.0769 59.9935C84.0223 60.2692 85.1507 59.7475 85.9958 60.0543C85.1352 60.1875 84.4541 60.153 83.7861 60.7436C79.539 61.4869 76.1321 62.4869 72.5549 64.9891C72.1537 64.8856 71.8733 64.6055 71.5594 64.3469L71.4333 64.2808L71.1796 63.6775L71.3736 62.7733C71.72 63.2798 71.8418 63.5754 72.403 63.8404C73.0167 63.8083 73.6226 63.2866 74.1276 62.9473C73.6532 61.6167 72.5869 60.2118 71.7084 59.1039C69.2202 56.0897 66.4323 54.0388 62.8406 52.4584C61.5643 51.8969 60.2244 51.4457 58.9704 50.8407C57.3312 50.0498 55.9855 49.0202 54.16 48.6369C52.7343 48.3449 51.3668 47.9573 50.0075 47.4327C46.3255 46.0116 42.5097 43.821 40.8637 40.0237C40.0628 38.1769 39.6291 35.0365 40.4135 33.0853C40.7322 32.2922 41.3444 31.7878 42.1119 31.4575C42.9924 31.5565 43.445 31.6095 44.0703 32.2873C44.567 32.5395 45.1821 32.7812 45.367 33.3539C45.4528 33.6202 45.5062 33.8975 45.5431 34.1744C45.9375 34.4787 46.0713 34.7337 46.263 35.1792L46.6894 35.1247C46.7224 36.3981 46.8922 37.5394 47.2371 38.7716C47.6242 39.1291 48.0933 39.4884 48.4348 39.8845Z" fill="#DBBF9E"/>
<path d="M54.16 48.6369C52.7343 48.3449 51.3668 47.9573 50.0075 47.4327C46.3255 46.0116 42.5097 43.821 40.8637 40.0237C40.0628 38.1769 39.6291 35.0365 40.4135 33.0853C40.7322 32.2922 41.3444 31.7878 42.1119 31.4575C42.9924 31.5565 43.445 31.6095 44.0703 32.2873C44.567 32.5395 45.1821 32.7812 45.367 33.3539C45.4528 33.6202 45.5062 33.8975 45.5431 34.1744C45.9375 34.4787 46.0713 34.7337 46.263 35.1792L46.6894 35.1247C46.7224 36.3981 46.8922 37.5394 47.2371 38.7716C47.6242 39.1291 48.0933 39.4884 48.4348 39.8845C48.7501 40.2689 48.9073 40.5619 49.4419 40.6355C49.8731 40.6947 50.3136 40.6492 50.7478 40.7045L51.3503 40.3254L51.5895 40.3904C51.9902 41.9806 52.4408 43.4505 53.1932 44.9133C53.4906 45.4546 53.9306 46.5344 54.4099 46.9013L54.6398 47.3273L54.9372 47.6028C54.7824 48.0336 54.4695 48.3127 54.16 48.6369Z" fill="#DBBF9E"/>
<path d="M54.16 48.6369C52.7343 48.3449 51.3668 47.9573 50.0075 47.4327C46.3255 46.0116 42.5097 43.821 40.8637 40.0237C40.0628 38.1769 39.6291 35.0365 40.4135 33.0853C40.7322 32.2922 41.3444 31.7878 42.1119 31.4575C42.9924 31.5565 43.445 31.6095 44.0703 32.2873C43.0792 32.3247 42.5752 32.395 41.7985 33.0391C42.2749 36.5282 42.7721 40.0577 45.742 42.3094C47.2172 43.4279 50.5654 45.6868 52.4627 45.3713C52.7474 45.3239 52.9856 45.0999 53.1932 44.9133C53.4906 45.4546 53.9306 46.5344 54.4099 46.9013L54.6398 47.3273L54.9372 47.6028C54.7824 48.0336 54.4695 48.3127 54.16 48.6369Z" fill="#261812"/>
<path d="M54.6387 47.3272L54.3681 47.42C52.3432 47.1199 48.684 45.7074 46.8697 44.7227C44.2045 43.2762 42.1782 40.948 41.3303 38.0081C40.8534 36.3549 40.9514 34.5457 41.7974 33.0391C42.2738 36.5282 42.771 40.0577 45.7409 42.3094C47.2161 43.4279 50.5643 45.6868 52.4616 45.3712C52.7463 45.3239 52.9845 45.0999 53.1921 44.9132C53.4895 45.4546 53.9295 46.5343 54.4088 46.9013L54.6387 47.3272Z" fill="#B5A088"/>
<path d="M45.543 34.1743C45.9374 34.4786 46.0712 34.7337 46.2629 35.1792L46.6893 35.1246C46.7223 36.398 46.8921 37.5393 47.237 38.7716C47.6241 39.129 48.0932 39.4883 48.4347 39.8844C48.75 40.2688 48.9072 40.5619 49.4418 40.6354C49.873 40.6946 50.3135 40.6492 50.7477 40.7044C50.4295 40.8544 50.134 40.9973 49.7784 41.0238C48.947 41.0857 48.0946 40.9397 47.4494 40.3803C45.7142 38.8755 45.6788 36.2798 45.543 34.1743Z" fill="#16110D"/>
<path d="M52.6237 32.9199C52.7382 34.3851 52.4811 35.8234 52.5791 37.2788C52.6242 37.9479 52.942 38.5921 53.0967 39.2452C53.3145 40.1664 53.4023 41.1304 53.673 42.0378C54.2256 43.8878 55.7522 46.3175 57.2119 47.5471C59.4186 49.4064 62.4365 49.8749 64.9741 51.0982C66.8287 51.9921 68.497 53.3118 70.1905 54.4753C70.9278 54.9821 72.1018 55.5913 72.6097 56.3177C72.9832 56.7329 73.3776 57.166 73.6512 57.6561C74.1766 58.5968 75.1381 61.6512 76.2213 61.8447L75.0095 62.3882L73.4965 59.8481C72.7601 59.7343 72.3347 59.5024 71.7069 59.1038C69.2188 56.0896 66.4309 54.0387 62.8391 52.4584C61.5628 51.8969 60.223 51.4456 58.969 50.8406C57.3298 50.0497 55.9841 49.0202 54.1586 48.6368C54.4681 48.3126 54.781 48.0335 54.9358 47.6027L54.6384 47.3272L54.4084 46.9012C54.6073 47.0113 54.8072 47.1192 55.0085 47.2249L55.1342 47.0769C54.8935 46.6295 54.7082 46.2315 54.5972 45.7328L54.569 45.6025C54.3963 44.9524 53.9088 44.2219 53.6667 43.5617C52.3918 40.0861 51.4862 36.5751 52.6237 32.9199Z" fill="#B5A088"/>
<path d="M54.5696 45.6023C57.797 49.8416 59.8228 49.451 64.0006 51.6729C66.2394 52.8635 68.2948 54.3951 70.2793 55.9649C71.5891 57.18 72.569 58.3185 73.4971 59.8479C72.7607 59.7342 72.3352 59.5023 71.7075 59.1036C69.2194 56.0895 66.4315 54.0386 62.8397 52.4582C61.5634 51.8967 60.2235 51.4455 58.9695 50.8404C57.3303 50.0496 55.9846 49.02 54.1592 48.6367C54.4687 48.3124 54.7816 48.0333 54.9363 47.6026L54.639 47.327L54.409 46.9011C54.6079 47.0112 54.8078 47.1191 55.0091 47.2247L55.1347 47.0768C54.8941 46.6294 54.7088 46.2314 54.5977 45.7326L54.5696 45.6023Z" fill="#16110D"/>
<path d="M66.3496 39.5905C67.2524 39.0527 68.5845 39.032 69.5828 39.2933C70.3032 39.4817 71.0173 39.8748 71.3957 40.5415C71.7163 41.1067 71.7406 41.7978 71.5349 42.405C70.8858 44.3253 67.0709 45.231 67.2737 47.073C68.2187 48.6238 70.4148 49.2993 71.9181 50.1927C75.7747 52.4848 78.2381 56.6164 79.6847 60.7364L82.9699 59.9586C83.0053 59.9703 83.0407 59.9834 83.0761 59.9936C84.0216 60.2692 85.15 59.7476 85.995 60.0544C85.1344 60.1876 84.4533 60.1531 83.7854 60.7437C79.5382 61.487 76.1313 62.487 72.5541 64.9892C72.1529 64.8857 71.8725 64.6056 71.5587 64.347L71.4325 64.2809L71.1788 63.6776L71.3729 62.7734C71.7192 63.2799 71.841 63.5755 72.4023 63.8404C73.0159 63.8084 73.6218 63.2867 74.1268 62.9474C73.6524 61.6168 72.5861 60.2119 71.7076 59.104C72.3353 59.5026 72.7608 59.7345 73.4972 59.8482L75.0102 62.3883L76.222 61.8448C77.0409 61.4768 77.8976 61.2279 78.7538 60.9644C77.2505 56.7739 74.2796 52.9686 70.4589 50.6648C69.2782 49.9527 67.6181 49.2411 66.7983 48.1209C66.4068 47.5858 66.1977 46.86 66.32 46.2C66.5863 44.7615 68.2842 44.2649 69.3281 43.5157C69.8458 43.1444 70.5322 42.4153 70.5846 41.7487C70.6161 41.35 70.4439 41.0556 70.1727 40.7792C69.4766 40.0693 68.3982 40.0342 67.4818 40.0227C67.1384 39.9061 66.8075 39.9189 66.4505 39.919L66.3496 39.5905Z" fill="black"/>
<path d="M48.4336 39.8845C49.0788 40.0559 49.8904 40.236 50.5069 39.8676C50.896 39.6351 51.0818 39.2281 51.1652 38.7986C51.3666 37.7679 51.2094 36.546 51.1968 35.496C51.1633 32.8055 51.7687 29.5161 54.1346 27.8702C55.2198 27.1153 56.7668 26.8378 58.0557 27.0918C58.797 27.2377 59.4897 27.6193 59.9147 28.2592C60.3348 28.8928 60.5055 29.6607 60.3522 30.4085C60.1883 31.2076 59.7483 31.9117 59.2884 32.5719C57.1296 35.6706 56.3559 36.9561 56.9856 40.8844C56.7789 41.3281 56.6635 41.926 56.419 42.319C55.3061 39.8219 55.5361 36.1843 57.0787 33.926C57.8059 32.8615 58.9561 31.7252 59.3903 30.5103C59.5693 30.0097 59.5072 29.5615 59.2617 29.0921C58.9789 28.5523 58.4676 28.2196 57.8903 28.0718C56.9337 27.8269 55.8407 28.055 55.002 28.5567C53.486 29.464 53.0382 31.3244 52.624 32.92C51.4864 36.5751 52.3921 40.0861 53.6669 43.5617C53.909 44.2219 54.3965 44.9524 54.5692 45.6025L54.5974 45.7329C54.7085 46.2316 54.8938 46.6296 55.1344 47.077L55.0088 47.2249C54.8074 47.1193 54.6076 47.0114 54.4087 46.9013C53.9294 46.5344 53.4894 45.4546 53.192 44.9133C52.4396 43.4505 51.9889 41.9806 51.5882 40.3904L51.3491 40.3254L50.7466 40.7045C50.3124 40.6492 49.8719 40.6947 49.4407 40.6354C48.9061 40.5619 48.7489 40.2688 48.4336 39.8845Z" fill="black"/>
<path d="M62.2051 44.1096C63.9447 42.67 63.1137 40.7845 66.3494 39.5906L66.4503 39.919C66.8073 39.9189 67.1382 39.9062 67.4816 40.0228C65.0207 41.0321 64.2425 43.0335 62.681 44.97L62.2051 44.1096Z" fill="#16110D"/>
<path d="M56.9856 40.8843C57.3668 42.0897 57.8427 42.966 58.6315 43.962C58.3783 44.2444 58.1649 44.4388 57.8272 44.6148C57.2543 43.9255 56.7483 43.1542 56.4189 42.3189C56.6634 41.9259 56.7789 41.328 56.9856 40.8843Z" fill="#16110D"/>
<path d="M58.6315 43.9622C59.478 44.6568 59.9073 45.0681 61.0308 45.0483C60.779 45.4492 60.7344 45.58 60.2648 45.717C60.0344 45.7844 59.7724 45.8074 59.5342 45.8414C58.8706 45.499 58.3714 45.1265 57.8271 44.615C58.1648 44.439 58.3782 44.2446 58.6315 43.9622Z" fill="black"/>
<path d="M61.0317 45.0485C61.299 44.5933 61.7662 44.3754 62.2057 44.1096L62.6816 44.9701C61.7463 45.6806 61.0409 46.0466 59.8485 45.8893C59.7438 45.8753 59.6395 45.8594 59.5352 45.8416C59.7733 45.8075 60.0353 45.7845 60.2657 45.7171C60.7353 45.5802 60.7799 45.4493 61.0317 45.0485Z" fill="#16110D"/>
<path d="M48.7979 57.5997C48.9429 56.9809 49.0879 56.677 49.6618 56.3309C52.4027 54.6794 58.6994 55.1236 61.6867 55.9325C64.301 56.6406 67.2378 58.2687 69.1297 60.2118C69.9171 61.0197 70.5812 61.9925 71.3733 62.7733L71.1793 63.6775L71.433 64.2808L71.5591 64.3469L71.1929 64.8967C71.0022 65.3323 70.8683 65.7446 70.3949 65.9322C70.0568 66.0659 69.6789 66.1169 69.3645 66.2973C69.2466 67.3022 67.4551 70.4942 66.6988 71.1286C66.7852 71.4378 66.8458 71.5909 67.0835 71.8102C67.2102 71.9536 67.3794 72.1067 67.4736 72.2715L66.9555 74.0581L66.173 74.237L65.9974 73.9623C64.9971 73.7188 63.8178 73.9375 62.7835 73.8816C59.9214 73.727 56.3583 72.13 54.4513 69.9687C52.5958 68.3892 51.2787 66.2623 50.3255 64.0523C49.1025 61.974 48.7983 59.9731 48.7979 57.5997Z" fill="black"/>
<path d="M52.4502 60.6343C52.7553 60.1866 52.9334 59.9644 53.4898 59.8477C54.0966 59.7208 54.8544 59.8356 55.4758 59.873C58.3656 60.0461 61.0405 60.4773 63.6368 61.8472C64.8496 62.487 65.8625 63.4909 67.2378 63.7548C67.8466 64.4262 68.681 65.836 69.3645 66.2974C69.2466 67.3022 67.4551 70.4942 66.6988 71.1287C63.8318 70.9361 62.3857 71.1709 59.6817 69.8345C55.7902 67.9114 53.8051 64.6211 52.4502 60.6343Z" fill="#F47842"/>
<path d="M49.6361 57.8405L49.7569 57.7374C50.2299 57.9538 50.6471 57.823 51.1307 57.7224C50.9367 61.0369 52.7428 64.7311 54.9112 67.1701C57.0335 69.5575 60.9508 71.7797 64.1588 71.9459C65.0107 71.9902 65.9624 71.8808 66.792 72.0524L67.0835 71.8103C67.2101 71.9537 67.3794 72.1068 67.4736 72.2716L66.9555 74.0582L66.173 74.2371L65.9974 73.9624C64.9971 73.7189 63.8178 73.9376 62.7835 73.8817C59.9214 73.7271 56.3583 72.1302 54.4513 69.9688C52.5958 68.3893 51.2787 66.2624 50.3255 64.0524C49.1025 61.9742 48.7983 59.9732 48.7979 57.5999L49.6361 57.8405Z" fill="#A0602F"/>
<path d="M54.4497 69.9688L54.2969 69.2478C54.5239 69.0393 54.8965 69.3772 55.2889 69.382C58.1574 71.5371 61.8481 73.3664 65.5553 72.8672C65.9405 72.8152 66.3067 72.7544 66.5531 72.4228C66.6414 72.3042 66.7181 72.1812 66.7904 72.0524L67.0819 71.8103C67.2085 71.9537 67.3778 72.1069 67.4719 72.2717L66.9538 74.0582L66.1714 74.2371L65.9957 73.9625C64.9955 73.7189 63.8162 73.9377 62.7819 73.8818C59.9198 73.7272 56.3566 72.1302 54.4497 69.9688Z" fill="black"/>
<path d="M48.7979 57.5999L49.6361 57.8405C49.7506 60.3728 50.9202 62.9484 52.0282 65.191L51.8002 65.2255C51.8404 65.3718 51.8831 65.5065 51.9414 65.647C51.9593 65.6897 51.9782 65.732 51.9962 65.7743C51.5504 65.7316 50.8295 64.5075 50.4395 64.1545L50.3255 64.0524C49.1025 61.9742 48.7983 59.9732 48.7979 57.5999Z" fill="black"/>
<path d="M50.3242 64.0522L50.4382 64.1543C50.8282 64.5073 51.5491 65.7314 51.9949 65.7742C51.977 65.7319 51.9581 65.6896 51.9401 65.6468C51.8819 65.5063 51.8392 65.3716 51.7989 65.2253L52.0269 65.1908C52.693 66.2413 53.3877 67.237 54.1862 68.1922C54.5136 68.5841 55.0206 68.9764 55.2893 69.3818C54.8969 69.377 54.5243 69.0391 54.2973 69.2477L54.4501 69.9686C52.5945 68.3891 51.2775 66.2623 50.3242 64.0522Z" fill="black"/>
<path d="M48.7979 57.5997C48.9429 56.9809 49.0879 56.677 49.6618 56.3309C52.4027 54.6794 58.6994 55.1236 61.6867 55.9325C64.301 56.6406 67.2378 58.2687 69.1297 60.2118C69.917 61.0197 70.5812 61.9925 71.3733 62.7733L71.1793 63.6775L71.433 64.2808C71.1613 64.3226 70.862 64.3158 70.586 64.3294C69.8035 63.9434 69.1297 62.6872 68.5025 62.0406C65.52 58.9692 61.4737 57.3703 57.2693 57.2837C55.3269 57.258 52.9732 57.0562 51.1307 57.7222C50.6471 57.8229 50.2299 57.9536 49.7569 57.7373L49.6361 57.8404L48.7979 57.5997Z" fill="#D19C6B"/>
<path d="M48.7979 57.5997C48.9429 56.9809 49.0879 56.677 49.6618 56.3309C52.4027 54.6794 58.6994 55.1236 61.6867 55.9325C64.301 56.6406 67.2378 58.2687 69.1297 60.2118C69.917 61.0197 70.5812 61.9925 71.3733 62.7733L71.1793 63.6775C70.1111 62.2998 68.9124 61.0052 67.5565 59.9079C63.7736 56.8472 58.7246 55.5066 53.9172 56.0289C52.3459 56.1996 50.7936 56.4447 49.7569 57.7373L49.6361 57.8404L48.7979 57.5997Z" fill="black"/>
<path d="M52.1621 58.8248C56.2928 58.0067 60.6239 58.5745 64.1681 60.9444C65.3226 61.7257 66.3569 62.6727 67.2373 63.7548C65.8621 63.4908 64.8492 62.487 63.6364 61.8472C61.0401 60.4772 58.3652 60.046 55.4754 59.873C54.854 59.8355 54.0962 59.7208 53.4894 59.8477C52.9329 59.9644 52.7549 60.1865 52.4498 60.6343L52.1621 58.8248Z" fill="#D45936"/>
<path d="M57.2686 57.2839C61.473 57.3705 65.5193 58.9694 68.5017 62.0408C69.129 62.6874 69.8028 63.9436 70.5853 64.3296C70.8613 64.316 71.1606 64.3228 71.4323 64.281L71.5584 64.3471L71.1921 64.8969C70.7521 65.1993 70.3786 65.6106 69.9959 65.9825C69.5961 65.2878 69.2032 64.5736 68.7511 63.912C66.2867 60.3068 61.4288 58.0754 57.2686 57.2839Z" fill="#CE9258"/>
<path d="M101.985 51.4998C102.371 51.6123 102.753 51.735 103.132 51.8678C100.567 53.5812 96.7274 57.6178 96.0259 60.7145C95.9842 60.8983 95.9784 61.0859 95.991 61.2731L95.5151 61.7563C91.6842 60.6946 87.749 60.2736 83.7842 60.7437C84.4522 60.153 85.1333 60.1875 85.9939 60.0543C85.1488 59.7476 84.0205 60.2692 83.075 59.9935C83.0396 59.9833 83.0042 59.9702 82.9688 59.9585C86.8045 59.1316 91.4819 59.4889 95.1362 60.926C96.2156 57.1652 98.9914 53.9032 101.985 51.4998Z" fill="#16110D"/>
<path d="M42.1113 31.4576C43.1713 31.3078 44.2182 31.3785 45.2825 31.427L46.4239 32.5105L46.6888 35.1248L46.2624 35.1793C46.0708 34.7338 45.9369 34.4788 45.5425 34.1745C45.5056 33.8976 45.4523 33.6203 45.3664 33.354C45.1816 32.7813 44.5665 32.5396 44.0697 32.2874C43.4444 31.6096 42.9918 31.5567 42.1113 31.4576Z" fill="#16110D"/>
<path d="M70.0094 133.425L70.1835 134.015L70.9481 134.241C70.264 134.957 69.1003 136.523 68.0714 136.633C67.7051 136.469 67.5809 136.376 67.4412 135.964C67.2656 135.447 67.4048 134.629 67.4427 134.088C67.6406 134.58 67.7522 135.304 68.1398 135.641C68.5356 135.448 68.701 135.109 68.9276 134.749L70.0094 133.425Z" fill="black"/>
<defs>
<linearGradient id="paint0_linear_3042_449" x1="73.4166" y1="75.3278" x2="73.45" y2="85.283" gradientUnits="userSpaceOnUse">
<stop stop-color="#030101"/>
<stop offset="1" stop-color="#4B3C39"/>
</linearGradient>
<linearGradient id="paint1_linear_3042_449" x1="91.0741" y1="124.845" x2="89.8478" y2="120.117" gradientUnits="userSpaceOnUse">
<stop stop-color="#150000"/>
<stop offset="1" stop-color="#2D0000"/>
</linearGradient>
<linearGradient id="paint2_linear_3042_449" x1="96.5309" y1="76.8219" x2="103.17" y2="84.7962" gradientUnits="userSpaceOnUse">
<stop stop-color="#1F1817"/>
<stop offset="1" stop-color="#423F3F"/>
</linearGradient>
<linearGradient id="paint3_linear_3042_449" x1="130.798" y1="35.5144" x2="134.632" y2="32.8735" gradientUnits="userSpaceOnUse">
<stop stop-color="#15130F"/>
<stop offset="1" stop-color="#302826"/>
</linearGradient>
</defs>
</svg>
