<svg width="200" height="200" viewBox="0 0 200 200" fill="none" xmlns="http://www.w3.org/2000/svg">
<path d="M116.395 27.4022C117.052 27.3159 117.693 27.1303 118.349 27.0442C118.782 26.9874 119.035 26.9375 119.389 27.2176C120.968 27.6711 122.286 28.9746 123.079 30.3928C124.166 32.3366 124.548 35.0025 124.407 37.2037C124.358 37.9655 124.129 39.0878 124.351 39.8218C124.432 40.0888 124.611 40.1493 124.855 40.2255C125.554 40.4442 126.862 40.4329 127.492 40.0929C128.118 39.7547 128.425 39.1053 128.588 38.4411C128.714 37.9261 129.327 33.2481 129.268 33.0034C129.763 32.662 130.444 31.9719 131.045 31.9603C131.814 31.948 132.59 31.912 133.356 31.9993C134.467 32.4872 135.067 33.012 135.515 34.1661C135.765 34.8116 135.936 36.0201 135.676 36.6755C135.632 36.7861 135.567 36.8704 135.5 36.9657C135.465 37.0149 135.432 37.0653 135.398 37.1151C135.702 37.7544 135.567 38.2741 135.343 38.9184C134 42.7738 130.63 45.3072 127.07 46.9854C126.261 47.3672 125.46 47.4216 124.65 47.7253L119.391 49.7447C114.489 51.6717 103.024 57.1566 101.255 62.4013C101.135 62.757 101.142 63.0654 101.341 63.397C101.565 63.7691 101.788 63.8497 102.172 63.9603C102.671 63.6485 104.299 61.5083 105.128 60.7911C109.707 56.8322 116.127 54.7211 122.101 56.1196C123.642 56.4806 125.77 56.9732 126.68 58.3956C127.13 59.1008 127.122 59.7978 126.933 60.5893C125.812 65.2866 122.848 69.9695 118.651 72.4489C115.707 74.188 112.393 74.3024 109.081 74.1503C110.769 76.7606 113.041 87.3271 112.354 90.5282C111.475 94.626 107.585 97.8845 104.224 100.021C102.021 101.421 99.076 102.89 96.4775 103.272C96.4458 104.929 96.3516 106.588 96.319 108.242C97.9439 108.371 99.6088 108.68 100.711 110.014C102.114 111.714 101.541 116.042 102.232 116.159C102.632 116.226 103.04 116.099 103.453 116.188C104.073 116.494 104.955 116.52 105.648 116.614C110.047 117.212 114.103 116.831 118.437 116.104C119.173 115.981 119.897 115.97 120.613 115.739C124.046 115.165 127.238 114.222 130.761 114.373C133.131 114.474 137.667 114.862 139.356 116.717C140.768 115.769 141.619 114.309 143.232 113.491C144.948 112.62 146.965 112.68 148.68 111.627C149.32 111.234 149.937 110.68 150.107 109.912C150.242 109.305 150.26 108.3 149.935 107.755C149.943 107.724 149.953 107.692 149.961 107.66C150.233 106.534 149.15 105.09 149.514 104.242C149.855 104.032 149.981 103.963 150.401 104.035C151.898 104.29 153.772 106.302 154.51 107.552C155.211 108.739 155.535 110.134 155.696 111.495L156.478 111.195C156.798 111.364 156.925 111.449 157.022 111.835C157.465 113.591 155.634 115.932 155.815 116.883L156.332 116.913C156.502 117.291 156.336 117.797 156.192 118.168C155.853 119.039 154.894 120.56 154.016 120.929C153.987 120.941 153.956 120.952 153.926 120.963C153.737 121.634 152.958 122.088 152.359 122.422C150.134 123.666 147.488 123.875 144.996 123.8C146.173 125.133 146.213 128.311 146.11 130.038C146.005 131.802 145.319 135.372 144.087 136.637C144.001 136.726 143.916 136.771 143.808 136.827C143.304 136.709 142.997 136.817 142.53 136.984C142.353 137.781 141.472 138.971 140.832 139.503C140.876 139.965 140.915 140.427 140.981 140.886C140.846 141.409 140.418 141.731 139.974 142.001C139.899 142.047 139.822 142.091 139.744 142.134C140.987 143.127 141.398 145.025 142.507 146.185C143.722 147.457 146.474 148.028 147.016 149.778C147.637 151.016 145.131 159.048 146.691 163.177C147.239 164.628 148.182 165.758 149.057 167.006C149.281 167.326 149.444 167.639 149.436 168.039C149.285 168.588 148.499 169.017 148.023 169.287C147.957 169.324 147.891 169.361 147.824 169.397C148.539 170.495 148.804 172.873 148.546 174.122C148.369 174.977 147.707 175.483 147.005 175.92C144.422 177.526 139.528 178.589 136.563 177.839C135.902 177.671 135.205 177.339 134.827 176.744C134.407 176.084 134.451 175.294 134.653 174.572C134.992 173.358 136.913 171.043 136.622 169.968L136.056 169.722C135.949 169.285 136.128 168.846 136.348 168.471C136.775 167.742 137.36 167.057 137.671 166.269C138.426 164.357 138.306 160.851 137.816 158.871C137.605 158.017 137.299 157.315 136.78 156.609C137.059 157.559 136.858 158.352 136.39 159.212C134.522 162.644 131.112 164.849 129.628 168.59C129.272 169.489 129.01 170.416 128.954 171.386C128.889 172.514 129.571 175.145 128.92 175.998C128.256 176.139 127.337 175.854 126.793 176.2C125.944 177.817 126.789 180.635 124.714 181.538C124.864 180.941 124.992 180.813 124.696 180.254C124.565 180.434 124.473 180.532 124.281 180.644L124.236 180.778C123.948 181.041 123.615 181.13 123.24 181.201C120.047 181.801 115.055 180.95 112.385 179.08L112.389 178.931L111.851 178.324C111.665 178.271 111.583 178.32 111.399 178.365C111.312 177.979 111.193 177.608 111.073 177.231C111.081 177.207 111.089 177.183 111.097 177.159C111.112 177.119 111.127 177.08 111.142 177.04C111.356 176.453 111.584 176.102 112.01 175.644C113.288 174.325 115.023 173.175 116.75 172.573L116.689 172.505C116.207 171.972 115.35 171.517 115.428 170.691C115.446 170.497 115.54 170.332 115.641 170.171L115.727 170.143C120.023 168.702 123.235 164.237 125.148 160.319C125.525 159.548 126.4 157.98 126.149 157.134C126.405 156.253 125.879 155.274 125.465 154.514C124.563 152.856 123.369 151.384 122.443 149.739C121.975 148.908 121.661 147.656 121.058 146.974C117.647 147.964 114.168 148.704 110.612 148.863C108.219 148.97 105.779 148.767 103.416 149.188C103.391 149.193 103.365 149.198 103.34 149.203C101.712 150.646 99.6953 151.973 98.2716 153.588C97.9055 156.696 98.2154 159.641 100.212 162.201C101.306 163.604 103.787 164.62 104.152 165.656C104.059 166.254 103.84 166.444 103.359 166.798C103.055 167.022 102.887 167.06 102.773 167.43C104.133 168.808 104.902 169.84 105.386 171.755C104.561 175.031 102.472 177.841 99.5805 179.566C98.0213 180.507 96.1369 181.024 94.3399 180.546C94.2481 180.523 94.1568 180.497 94.066 180.469C93.3275 180.064 93.1584 179.487 92.885 178.737C90.7478 179.051 88.7605 179.536 86.5849 179.295C84.5741 179.072 83.1769 178.372 81.9093 176.777C82.4307 174.397 83.2922 173.384 85.0502 171.789C85.451 171.426 85.9209 171.109 86.2298 170.662C85.6595 170.262 85.1848 169.888 84.7523 169.336L84.6438 169.196C85.4663 168.002 86.6594 166.864 87.7904 165.964C88.1902 163.978 89.1593 162.237 89.3501 160.162C89.709 156.266 86.4432 146.667 84.0038 143.783C83.0433 142.648 81.8848 141.692 80.9157 140.55C80.6683 140.259 80.0158 139.288 79.7611 139.169C79.2782 138.946 78.7406 139.661 78.1347 139.602C78.065 139.536 77.8161 139.345 77.7868 139.271C77.7047 139.06 78.0689 136.668 78.0732 136.215C78.0938 134.067 76.9585 132.478 76.2522 130.561C75.26 132.517 74.6901 134.719 73.5197 136.576C73.2218 137.05 72.9306 137.485 72.3531 137.61C71.2518 137.029 71.7284 135.225 71.1495 134.217C70.4057 132.923 66.8717 133.472 65.511 133.059C64.9743 132.897 64.6755 132.667 64.4021 132.168L64.405 132.001C64.4117 131.645 64.7528 131.521 65.0445 131.408C67.8462 130.33 68.3756 130.106 69.9752 127.381C70.3922 126.671 72.1729 123.454 72.1306 122.82C72.0965 122.311 71.6818 121.796 71.4253 121.367C70.9395 120.553 70.5239 119.809 70.2995 118.876C69.9223 117.308 70.2625 115.736 71.0769 114.363C71.9033 112.392 73.229 111.34 75.0702 110.34C76.3319 109.888 77.4798 109.715 78.8074 109.69C79.0418 107.713 79.5569 105.757 80.0811 103.841C74.2755 102.207 68.5347 98.7176 65.4471 93.3527C63.7289 90.3665 64.1647 87.6828 64.9815 84.5417L65.7743 84.6478C67.9956 77.1033 67.075 71.2302 73.3529 65.5096C75.5569 63.8604 77.7936 62.8849 80.3934 62.0446L80.5126 61.5831L80.1494 61.2496L80.171 61.0474C83.9418 60.5131 86.8698 59.6061 90.7665 60.1149C92.3958 60.3272 93.9766 60.8215 95.5944 61.0479C95.6362 60.8442 95.6886 60.6424 95.7506 60.4436C96.6462 57.4865 99.6631 53.1055 102.401 51.6527C103.235 50.0755 106.131 49.7294 107.433 48.4904C107.815 48.1268 108.081 47.6495 108.063 47.1074C108.033 46.1247 106.152 44.9302 105.432 44.3097C104.875 43.8291 104.222 43.1362 104.19 42.3537C104.17 41.8598 104.364 41.0799 104.712 40.729C105.179 40.1148 105.928 39.7302 106.572 39.324C107.987 39.3187 109.571 39.162 110.647 40.2675C110.866 40.4919 111.01 40.7858 111.094 41.0865L111.18 41.1965C112.239 42.5793 112.895 45.1299 114.87 45.3673C114.923 45.3736 114.976 45.3782 115.029 45.3837C115.129 45.2884 115.082 45.3238 115.205 45.2474L115.616 44.9911C115.817 44.8677 116.014 44.7469 116.194 44.5934C118.414 42.6984 118.218 40.7625 118.436 38.0967L118.066 36.4776C117.442 34.5383 115.772 32.9136 114.952 30.9633C115.084 29.3888 115.34 28.6058 116.395 27.4022Z" fill="black"/>
<path d="M149.935 107.755C149.944 107.724 149.954 107.692 149.961 107.66C150.234 106.534 149.15 105.09 149.515 104.242C149.855 104.032 149.982 103.963 150.402 104.035C151.898 104.29 153.773 106.302 154.511 107.552C155.212 108.739 155.535 110.134 155.696 111.495L156.479 111.195C156.799 111.364 156.925 111.449 157.023 111.835C157.466 113.591 155.634 115.932 155.816 116.883L156.333 116.913C156.502 117.291 156.336 117.797 156.192 118.168C155.854 119.039 154.894 120.56 154.017 120.929C153.987 120.942 153.957 120.952 153.926 120.963C153.737 121.634 152.958 122.088 152.36 122.422C150.134 123.666 147.489 123.875 144.997 123.8C146.173 125.133 146.213 128.311 146.111 130.038C146.006 131.802 145.32 135.372 144.087 136.637C144.002 136.726 143.916 136.771 143.808 136.827C143.305 136.709 142.997 136.817 142.53 136.984C142.354 137.781 141.472 138.972 140.832 139.503C140.82 139.528 140.809 139.552 140.796 139.576C139.373 142.244 135.978 143.177 134.523 147.184C133.713 149.415 134.654 152.455 134.232 153.6C134.762 154.556 134.532 156.474 134.248 157.485C133.895 158.742 132.957 160.794 131.911 161.624C130.434 163.547 128.609 165.332 127.555 167.548C126.818 169.098 126.359 173.448 125.537 174.201C125.541 174.255 125.55 174.309 125.549 174.363C125.542 174.785 125.443 174.897 125.161 175.17C124.856 175.279 124.592 175.341 124.267 175.324C123.425 175.281 122.413 174.816 121.86 174.175C121.273 173.493 121.022 172.639 121.109 171.748C121.127 171.575 121.103 171.592 121.011 171.454C120.137 171.606 119.26 171.77 118.373 171.807C117.813 171.83 117.182 171.85 116.744 171.449C116.721 171.346 116.669 171.245 116.676 171.139C116.682 171.013 119.935 168.997 120.473 168.547C123.019 166.421 125.199 163.049 126.534 160.038C128.574 155.435 126.346 153.585 124.013 149.851C122.986 148.208 122.177 146.427 121.484 144.618C119.695 139.948 119.345 134.593 121.848 130.112C122.353 129.208 123.798 127.968 124.021 127.466C123.625 127.383 123.53 127.402 123.177 127.614C122.291 128.149 121.461 129.249 120.919 130.114C119.363 132.594 119.103 135.374 119.177 138.224C119.2 139.079 119.324 140.025 119.149 140.865C119.142 140.899 119.133 140.933 119.125 140.967C115.819 142.505 111.193 142.514 107.616 142.452C107.805 140.974 107.629 138.617 106.759 137.376C106.537 137.061 106.404 137.044 106.054 137.006C105.975 137.337 106.235 137.764 106.362 138.079C108.238 142.732 105.018 146.587 101.658 149.416C99.9064 150.892 97.6313 152.235 96.7145 154.412C95.7603 158.329 97.3536 162.866 99.3572 166.19C99.5004 166.427 99.6426 166.61 99.8506 166.793C99.9914 167.223 100.083 167.614 99.988 168.066C99.865 168.649 99.6272 169.18 99.0871 169.486C98.5235 169.805 97.7913 169.794 97.1791 169.641C95.6041 169.247 94.857 168.055 94.0724 166.756C94.2669 167.508 94.5418 168.03 94.1891 168.793C93.9277 169.357 93.4232 170.021 92.7991 170.195C92.3835 170.312 92.1884 170.187 91.8275 170.009L91.682 169.758C91.6089 169.632 91.8655 168.929 91.9116 168.746C92.2124 167.566 92.3253 166.396 92.3085 165.182C92.2441 160.498 90.9685 158.14 89.664 153.876C89.4213 153.084 89.2493 152.313 89.4002 151.485C89.8105 149.23 94.1588 141.065 95.5066 138.837C95.9996 138.022 96.7275 137.32 97.1609 136.495L97.023 136.322C96.9807 136.33 96.9375 136.336 96.8961 136.346C95.9986 136.576 93.7932 140.743 93.2459 141.682C92.9 141.524 92.5579 141.358 92.2196 141.184C90.1046 140.078 87.7958 137.35 87.0708 135.076C86.7148 134.215 86.1742 133.681 85.4852 133.071C85.8095 132.331 84.7722 129.136 84.7184 128.002L84.7707 127.838C84.6304 127.282 84.6391 126.651 84.6045 126.078C86.5927 126.03 88.5209 125.931 90.4625 125.467C95.2918 124.313 98.8949 122.091 101.516 117.822L101.559 117.613L101.696 117.225C101.792 117.216 101.888 117.205 101.983 117.192C102.764 117.078 103 116.787 103.453 116.188C104.074 116.494 104.955 116.52 105.649 116.614C110.048 117.212 114.103 116.831 118.438 116.104C119.173 115.981 119.897 115.971 120.614 115.739C124.046 115.165 127.238 114.222 130.762 114.373C133.132 114.474 137.668 114.862 139.357 116.717C140.769 115.769 141.619 114.309 143.232 113.491C144.949 112.62 146.966 112.68 148.68 111.627C149.321 111.234 149.938 110.681 150.108 109.912C150.242 109.305 150.261 108.3 149.935 107.755Z" fill="#CB7A27"/>
<path d="M149.935 107.755C149.944 107.724 149.953 107.692 149.961 107.66C150.233 106.534 149.15 105.09 149.514 104.242C149.855 104.032 149.982 103.963 150.402 104.035C151.898 104.29 153.773 106.302 154.511 107.552C155.211 108.739 155.535 110.134 155.696 111.495L156.478 111.195C156.798 111.364 156.925 111.449 157.023 111.835C157.466 113.591 155.634 115.932 155.816 116.883L156.333 116.913C156.502 117.291 156.336 117.797 156.192 118.168C155.854 119.039 154.894 120.56 154.017 120.929C153.987 120.942 153.956 120.952 153.926 120.963C153.737 121.634 152.958 122.088 152.36 122.422C150.134 123.666 147.488 123.875 144.997 123.8C146.173 125.133 146.213 128.311 146.11 130.038C146.006 131.802 145.32 135.372 144.087 136.637C144.002 136.726 143.916 136.771 143.808 136.827C143.304 136.709 142.997 136.817 142.53 136.984C142.649 136.857 142.76 136.722 142.854 136.575C144.83 133.501 145.594 129.297 144.81 125.726C144.061 122.428 142.046 119.56 139.202 117.749C135.784 115.618 130.675 114.708 126.754 115.625C125.398 115.936 123.906 116.371 122.514 116.433L122.407 116.287C121.936 116.177 121.502 116.387 121.039 116.516L120.862 116.391L120.875 116.129L121.273 115.869L121.231 115.743L120.976 115.873L120.751 115.69L120.613 115.739C124.046 115.165 127.238 114.222 130.762 114.373C133.132 114.474 137.667 114.862 139.356 116.717C140.768 115.769 141.619 114.309 143.232 113.491C144.948 112.62 146.966 112.68 148.68 111.627C149.321 111.234 149.937 110.681 150.108 109.912C150.242 109.305 150.26 108.3 149.935 107.755Z" fill="black"/>
<path d="M149.935 107.755C149.944 107.724 149.954 107.692 149.961 107.66C150.234 106.534 149.15 105.09 149.515 104.242C149.855 104.032 149.982 103.963 150.402 104.035C151.898 104.29 153.773 106.302 154.511 107.552C155.212 108.739 155.535 110.134 155.696 111.495L155.811 112.348C155.877 112.85 155.603 113.377 155.3 113.77C155.154 113.959 154.988 114.201 154.746 114.225C154.56 114.243 154.633 114.25 154.487 114.213C154.725 114.396 154.96 114.583 155.191 114.775L155.216 115.179C155.131 116.161 153.466 118.105 152.689 118.763C152.539 118.889 152.385 119.01 152.227 119.127C153.321 118.784 154.402 118.392 155.334 117.702C155.36 118.437 155.018 118.888 154.54 119.411C153.907 120.105 153.067 120.657 152.237 121.085C150.867 122.119 148.364 122.848 146.7 122.908C146.016 122.933 145.072 122.927 144.546 122.427C144.641 122.11 145.386 121.919 145.706 121.785C148.193 120.74 150.436 119.346 151.707 116.836C152.052 116.156 152.61 114.802 152.373 114.063C152.598 113.856 152.682 113.654 152.729 113.356C152.904 112.242 152.928 109.314 152.263 108.438L152.03 108.463L151.689 109.181L151.491 109.365L150.986 109.065L150.886 109.36C150.845 109.183 150.802 109.006 150.75 108.831C150.604 108.342 150.39 108.005 149.935 107.755Z" fill="url(#paint0_linear_3039_11482)"/>
<path d="M149.935 107.755C149.944 107.724 149.953 107.692 149.961 107.66C150.233 106.534 149.15 105.09 149.514 104.242C149.855 104.032 149.982 103.963 150.402 104.035C151.898 104.29 153.773 106.302 154.511 107.552C155.211 108.739 155.535 110.134 155.696 111.495L155.811 112.348C155.877 112.85 155.602 113.377 155.3 113.77C155.154 113.959 154.987 114.201 154.746 114.225C154.559 114.243 154.633 114.25 154.486 114.213C154.511 114.156 154.535 114.099 154.555 114.04C155.133 112.41 154.737 110.044 153.976 108.533C153.17 106.933 151.887 105.706 150.176 105.159C150.25 105.246 150.321 105.335 150.383 105.432C150.941 106.301 151.209 108.079 150.985 109.065L150.885 109.36C150.845 109.183 150.802 109.006 150.75 108.831C150.604 108.342 150.389 108.005 149.935 107.755Z" fill="black"/>
<path d="M150.986 109.065L151.491 109.365L151.689 109.181C151.911 109.892 151.94 110.618 151.593 111.301C151.578 111.33 151.56 111.358 151.543 111.386C151.664 112.415 149.383 115.557 148.716 116.406C147.871 117.481 146.72 118.662 145.305 118.83C144.044 118.98 142.84 118.641 141.594 118.631C141.361 118.391 140.905 118 140.849 117.664C140.304 114.415 148.806 114.195 150.556 111.165C150.896 110.577 151.054 110.03 150.886 109.361L150.986 109.065Z" fill="#E7A446"/>
<path d="M141.593 118.631C142.84 118.641 144.043 118.98 145.304 118.83C146.719 118.662 147.87 117.481 148.715 116.405C149.382 115.557 151.663 112.415 151.543 111.386C151.81 112.111 151.86 112.681 151.569 113.416C151.778 114.129 151.096 115.676 150.76 116.312C149.683 118.352 147.696 120.16 145.475 120.832C144.896 121.006 144.301 121.069 143.701 121.124C143.476 120.436 142.221 118.982 141.593 118.631Z" fill="#A25F23"/>
<path d="M151.689 109.181L152.03 108.463L152.263 108.438C152.928 109.314 152.904 112.242 152.729 113.356C152.682 113.654 152.598 113.856 152.373 114.063C152.383 114.034 152.394 114.005 152.402 113.975C152.594 113.305 152.511 110.764 152.223 110.22C152.038 110.48 152.15 111.528 152.15 111.884C152.151 112.429 152.039 112.963 151.635 113.356C151.614 113.377 151.591 113.396 151.569 113.416C151.861 112.681 151.81 112.111 151.543 111.386C151.56 111.358 151.578 111.33 151.593 111.301C151.939 110.618 151.911 109.892 151.689 109.181Z" fill="black"/>
<path d="M155.811 112.348C156.132 112.707 156.277 112.901 156.245 113.405C156.214 113.922 155.94 114.593 155.554 114.945C155.451 115.039 155.334 115.109 155.216 115.179L155.191 114.775C154.96 114.583 154.725 114.396 154.486 114.213C154.633 114.25 154.559 114.243 154.746 114.225C154.987 114.201 155.154 113.959 155.3 113.77C155.602 113.377 155.877 112.85 155.811 112.348Z" fill="#F0D9AD"/>
<path d="M103.453 116.188C104.073 116.494 104.955 116.52 105.648 116.614C110.047 117.212 114.103 116.831 118.437 116.104C119.173 115.981 119.897 115.971 120.613 115.739L120.75 115.69L120.975 115.873L121.23 115.743L121.272 115.869L120.874 116.129L120.861 116.391L121.039 116.517C121.501 116.387 121.936 116.177 122.407 116.287L122.513 116.433C122.086 116.682 121.633 116.724 121.153 116.797C121.099 117.405 121.007 118.023 121.113 118.629L120.87 118.769C119.498 118.7 118.007 119.215 116.633 119.378C112.605 119.859 108.695 119.753 104.714 118.95C103.898 118.786 102.633 118.75 101.943 118.314C101.646 118.126 101.649 117.935 101.559 117.613L101.696 117.226C101.792 117.216 101.887 117.205 101.982 117.192C102.764 117.078 103 116.787 103.453 116.188Z" fill="#F0B260"/>
<path d="M103.453 116.188C104.074 116.494 104.955 116.52 105.649 116.614C110.048 117.212 114.103 116.831 118.438 116.104C119.173 115.981 119.897 115.971 120.614 115.739L120.751 115.69L120.976 115.873L121.231 115.743L121.273 115.869L120.875 116.129L120.862 116.391L121.04 116.517C121.502 116.387 121.937 116.177 122.408 116.287L122.514 116.433C122.087 116.682 121.634 116.724 121.154 116.797C114.546 118.175 108.355 118.282 101.696 117.226C101.792 117.216 101.888 117.205 101.983 117.192C102.764 117.078 103 116.787 103.453 116.188Z" fill="black"/>
<path d="M126.755 115.625C127.521 115.679 128.241 116.03 128.947 116.315L129.104 116.558C129.731 116.779 130.309 117.229 130.591 117.851C130.805 118.323 130.788 118.815 130.593 119.289C130.19 120.263 129.297 120.93 128.345 121.306C126.762 121.932 124.616 122.014 123.05 121.289C121.344 120.5 121.815 119.989 120.87 118.769L121.114 118.629C121.007 118.023 121.1 117.405 121.154 116.797C121.634 116.724 122.087 116.682 122.514 116.433C123.906 116.371 125.398 115.936 126.755 115.625Z" fill="#F4B75E"/>
<path d="M126.754 115.625C127.521 115.679 128.24 116.03 128.946 116.315L129.104 116.558L129.223 117.207C128.981 117.549 128.849 117.508 128.46 117.573C126.554 117.892 122.896 118.716 121.113 118.629C121.007 118.023 121.1 117.405 121.153 116.797C121.633 116.724 122.086 116.682 122.514 116.433C123.906 116.371 125.398 115.936 126.754 115.625Z" fill="#ECD4A5"/>
<path d="M84.6045 126.078C86.5927 126.03 88.5209 125.931 90.4625 125.467C95.2918 124.313 98.8949 122.091 101.516 117.822C101.174 120.896 100.129 122.697 97.7288 124.63C94.6931 127.074 91.7363 127.616 87.927 127.714C86.8954 127.741 85.7879 127.685 84.7707 127.838C84.6304 127.282 84.6391 126.651 84.6045 126.078Z" fill="#A25F23"/>
<path d="M135.11 121.204C136.325 121.078 137.501 121.193 138.524 121.92C139.218 122.413 139.739 123.131 139.86 123.989C139.947 124.605 139.8 125.249 139.411 125.74C138.768 126.548 137.747 126.855 136.764 126.933C135.958 126.991 135.215 126.902 134.479 126.549C133.621 126.136 132.82 125.448 132.512 124.518C132.31 123.91 132.358 123.286 132.661 122.721C133.182 121.751 134.121 121.488 135.11 121.204Z" fill="#F4B75E"/>
<path d="M115.978 120.05C116.635 120.039 117.23 120.081 117.83 120.376C118.337 120.625 119.083 121.207 119.215 121.782C119.295 122.128 119.228 122.424 119.02 122.707C118.695 123.149 118.153 123.22 117.652 123.315C117.139 123.358 116.575 123.404 116.066 123.312C115.529 123.216 114.836 122.754 114.536 122.292C114.358 122.019 114.308 121.681 114.399 121.368C114.607 120.664 115.377 120.339 115.978 120.05Z" fill="#F4B75E"/>
<path d="M126.208 124.186C126.872 124.104 127.556 124.076 128.212 124.238C128.835 124.392 129.375 124.721 129.705 125.285C129.708 125.597 129.758 125.751 129.529 125.993C129.103 126.442 128.444 126.602 127.852 126.631C127.57 126.659 127.282 126.687 126.998 126.672C126.347 126.637 125.445 126.325 125.052 125.773C124.831 125.463 124.895 125.237 124.947 124.89C125.212 124.45 125.75 124.341 126.208 124.186Z" fill="#F4B75E"/>
<path d="M80.1709 61.0474C83.9417 60.5131 86.8698 59.6062 90.7665 60.1149C92.3958 60.3273 93.9766 60.8215 95.5944 61.0479C95.2119 61.213 95.0341 61.3944 94.7847 61.7256C95.678 61.9775 96.7355 62.4061 97.6431 62.521C104.516 65.8765 106.196 68.8299 108.681 76.039C109.993 79.8478 111.687 86.1799 111.343 90.1363C109.385 88.0985 107.418 87.4251 104.728 86.8459C104.612 86.6625 104.593 86.3671 104.55 86.1523L103.328 86.5843L102.884 86.6596C102.005 86.315 101.282 86.2132 100.336 86.1808C99.8725 86.0886 99.4094 85.9405 98.9524 85.8154C98.9135 85.8608 98.8741 85.9062 98.8352 85.952C98.6771 86.1412 98.5844 86.3454 98.4864 86.5694C98.1635 86.6572 98.0203 86.6451 97.7065 86.5332C97.3034 86.3729 96.8984 86.2185 96.4914 86.0693C96.3237 86.1707 96.1522 86.2629 96.0033 86.3913C95.7645 86.8474 95.431 87.011 95.0019 87.2504L94.5075 87.2166C94.224 86.9777 93.9612 86.5616 93.7205 86.2692C92.0436 84.797 90.0852 84.3351 87.8894 84.4891C86.7987 84.5726 85.7219 84.784 84.6798 85.119C83.6381 85.4486 81.5307 86.5602 80.5851 86.5409C82.2615 83.7221 83.1365 81.2373 82.3869 77.8823C81.8392 75.4338 80.4285 73.2512 78.2826 71.9243C76.8556 71.042 75.2441 70.681 73.6013 71.1004C71.8283 71.5526 70.349 72.825 69.4519 74.4052C68.1503 76.6979 67.9807 79.6011 68.7023 82.1076C69.3246 84.269 70.4945 86.0732 72.4789 87.163C69.6268 87.8962 67.6256 88.7829 65.4721 90.8501C64.7422 88.6434 65.1526 86.8117 65.7743 84.6479C67.9956 77.1033 67.075 71.2302 73.3529 65.5097C75.5569 63.8604 77.7935 62.8849 80.3934 62.0446L80.5125 61.5832L80.1493 61.2496L80.1709 61.0474Z" fill="#CC7C27"/>
<path d="M94.0215 80.6789C94.0441 79.9839 94.0787 79.3009 94.2252 78.6189C94.7384 76.235 95.9492 73.9636 98.0484 72.6382C99.7104 71.5893 101.431 71.4952 103.308 71.9175C105.364 73.1039 106.716 74.8618 107.321 77.1878C107.906 79.438 107.658 82.2191 106.434 84.226C105.977 84.9746 105.227 85.6093 104.55 86.1523L103.328 86.5843L102.884 86.6596C102.005 86.315 101.282 86.2132 100.336 86.1808C99.8728 86.0886 99.4096 85.9405 98.9527 85.8154C98.9137 85.8608 98.8743 85.9062 98.8354 85.952C98.6773 86.1412 98.5846 86.3454 98.4866 86.5694C98.1637 86.6572 98.0205 86.6451 97.7068 86.5332C97.3036 86.3729 96.8986 86.2185 96.4916 86.0693C94.7033 84.5851 94.3357 82.8881 94.0215 80.6789Z" fill="#FCF9F8"/>
<path d="M99.4264 77.63C99.9324 77.2569 100.667 77.0667 101.292 77.1651C102.304 77.3249 103.076 77.9755 103.736 78.7169C104.162 80.0428 104.594 81.624 103.915 82.9403C103.423 83.8935 102.618 84.6074 101.805 85.2764L101.987 85.6919C101.768 86.0013 101.612 86.0346 101.239 86.0945C100.943 86.1427 100.636 86.1582 100.336 86.1809C99.8728 86.0887 99.4096 85.9405 98.9527 85.8155L98.8811 85.4984L99.1266 85.2657C98.6187 84.3448 97.3551 84.0127 97.0504 82.599C96.9322 82.0512 96.9265 81.264 97.2422 80.7924C96.7622 80.4125 96.4902 79.8261 96.5109 79.2126C96.5363 78.4428 97.0154 77.7617 97.7298 77.4813C98.0618 77.3505 98.4237 77.3157 98.7739 77.3804C99.005 77.4229 99.2261 77.5074 99.4264 77.63Z" fill="black"/>
<path d="M98.7739 77.3805C99.005 77.423 99.2261 77.5075 99.4264 77.6301C100.036 78.0022 100.389 78.6837 100.344 79.3986C100.299 80.1134 99.8632 80.7442 99.2121 81.0372C98.5611 81.3297 97.8024 81.2351 97.2422 80.7925C96.7622 80.4127 96.4902 79.8262 96.5109 79.2127C96.5363 78.4429 97.0154 77.7619 97.7298 77.4814C98.0618 77.3506 98.4237 77.3159 98.7739 77.3805Z" fill="#FCF9F8"/>
<path d="M99.1264 85.2656C100.109 85.5562 100.818 85.5451 101.805 85.2762L101.987 85.6918C101.768 86.0012 101.611 86.0345 101.239 86.0944C100.943 86.1426 100.636 86.1581 100.336 86.1808C99.8726 86.0886 99.4094 85.9404 98.9525 85.8154L98.8809 85.4983L99.1264 85.2656Z" fill="#61584E"/>
<path d="M97.9496 76.2935C99.2233 75.5343 100.309 75.208 101.783 75.5922C103.138 75.9455 104.357 76.85 105.054 78.0731C105.865 79.4955 106.083 81.306 105.631 82.8819C105.194 84.4047 103.026 85.986 102.936 86.4455L103.329 86.5845L102.885 86.6598C102.006 86.3151 101.283 86.2133 100.337 86.181C100.636 86.1583 100.943 86.1428 101.24 86.0946C101.612 86.0347 101.769 86.0014 101.988 85.692L101.805 85.2764C102.619 84.6075 103.424 83.8936 103.915 82.9403C104.594 81.6241 104.163 80.0429 103.736 78.717C103.076 77.9756 102.305 77.325 101.292 77.1652C100.667 77.0668 99.933 77.2569 99.427 77.63C99.2267 77.5074 99.0057 77.423 98.7746 77.3805C98.4243 77.3158 98.0625 77.3506 97.7305 77.4814C97.9885 76.9852 97.9808 76.8312 97.9496 76.2935Z" fill="url(#paint1_linear_3039_11482)"/>
<path d="M98.7744 77.3805C99.4336 76.7912 100.367 76.7009 101.219 76.7492C101.989 76.7926 102.904 77.0045 103.425 77.6223C103.744 78.0007 103.771 78.2421 103.736 78.717C103.076 77.9757 102.304 77.325 101.292 77.1653C100.667 77.0668 99.9329 77.257 99.4269 77.6301C99.2265 77.5075 99.0055 77.423 98.7744 77.3805Z" fill="#61584E"/>
<path d="M95.9508 78.8396L96.5115 79.2127C96.4909 79.8262 96.7628 80.4126 97.2428 80.7925C96.9272 81.264 96.9329 82.0513 97.0511 82.5991C97.3557 84.0128 98.6194 84.3449 99.1273 85.2658L98.8817 85.4985L98.9533 85.8156C98.9144 85.861 98.875 85.9063 98.8361 85.9522C98.678 86.1414 98.5853 86.3455 98.4873 86.5695C98.1644 86.6574 98.0212 86.6453 97.7075 86.5333C97.9655 86.4585 98.0914 86.471 98.2466 86.2437C97.3942 85.5834 96.5654 84.9135 96.056 83.939C95.1945 82.2921 95.4285 80.542 95.9508 78.8396Z" fill="url(#paint2_linear_3039_11482)"/>
<path d="M97.949 76.2935C97.9802 76.8311 97.9879 76.9851 97.7299 77.4813C97.0154 77.7617 96.5364 78.4428 96.5109 79.2126L95.9502 78.8395C96.4537 77.7612 97.0433 77.0614 97.949 76.2935Z" fill="#161211"/>
<path d="M103.65 70.9333C105.536 71.876 106.862 73.2004 107.539 75.2383C108.459 78.0112 108.515 81.5718 107.181 84.2052C106.695 85.1657 105.711 85.9795 104.902 86.6683C104.779 86.7721 104.829 86.7228 104.728 86.8459C104.613 86.6625 104.593 86.3671 104.55 86.1523C105.227 85.6093 105.977 84.9746 106.434 84.226C107.658 82.2191 107.906 79.4379 107.321 77.1877C106.716 74.8618 105.364 73.1039 103.308 71.9175C103.488 71.5854 103.583 71.3055 103.65 70.9333Z" fill="#201611"/>
<path d="M80.171 61.0474C83.9418 60.5131 86.8699 59.6062 90.7666 60.1149C92.3959 60.3273 93.9767 60.8215 95.5945 61.0479C95.212 61.213 95.0342 61.3944 94.7848 61.7256C89.6745 60.6193 85.4491 60.7303 80.3935 62.0446L80.5126 61.5832L80.1494 61.2496L80.171 61.0474Z" fill="black"/>
<path d="M93.4941 79.928C93.5028 79.2715 93.5941 78.5871 93.732 77.9466C94.2562 75.5154 95.7019 73.1011 97.831 71.7646C99.6409 70.6284 101.606 70.4783 103.65 70.9335C103.583 71.3056 103.488 71.5856 103.307 71.9176C101.431 71.4953 99.7101 71.5894 98.0481 72.6383C95.9489 73.9637 94.7381 76.2351 94.2249 78.619C94.0784 79.301 94.0438 79.984 94.0212 80.679L93.4941 79.928Z" fill="black"/>
<path d="M93.4951 79.928L94.0222 80.679C94.3364 82.8882 94.704 84.5852 96.4923 86.0694C96.3246 86.1708 96.1531 86.263 96.0042 86.3914C95.7654 86.8475 95.4319 87.0111 95.0028 87.2505L94.5084 87.2167C94.2249 86.9778 93.9621 86.5617 93.7214 86.2693C94.2451 85.5612 94.1452 84.87 94.0976 84.0369C93.6825 82.6348 93.4398 81.4006 93.4951 79.928Z" fill="#382914"/>
<path d="M94.0969 84.0369C94.649 84.911 95.2871 85.6509 96.0035 86.3913C95.7647 86.8474 95.4312 87.0111 95.0021 87.2505L94.5077 87.2167C94.2242 86.9778 93.9614 86.5617 93.7207 86.2692C94.2444 85.5611 94.1445 84.8699 94.0969 84.0369Z" fill="#CC7C27"/>
<path d="M80.5857 86.5409C81.5312 86.5602 83.6386 85.4486 84.6803 85.119C85.7225 84.784 86.7992 84.5726 87.8899 84.4891C90.0857 84.3351 92.0442 84.797 93.721 86.2692C93.9618 86.5617 94.2246 86.9777 94.5081 87.2166L95.0025 87.2504C96.1801 87.4536 97.6009 87.3281 98.8098 87.3257C103.514 87.3161 107.468 87.6684 111.046 91.0698C109.734 94.4074 106.865 97.0698 103.874 98.9261C97.3948 102.947 88.8816 104.872 81.3948 103.084C74.7228 101.491 69.378 97.6606 65.8018 91.8261C68.6496 88.7477 72.8831 87.8127 76.9374 87.7249C77.8167 87.7056 78.9184 87.9788 79.7592 87.8301C80.0999 87.7698 80.2104 87.4705 80.3915 87.2031L80.5857 86.5409Z" fill="#F0D9AD"/>
<path d="M80.5857 86.5409C81.5313 86.5602 83.6387 85.4486 84.6804 85.119C85.7225 84.784 86.7993 84.5726 87.89 84.4891C90.0858 84.3351 92.0442 84.797 93.7211 86.2692C93.9618 86.5617 94.2246 86.9777 94.5081 87.2166C94.8762 88.4358 94.8718 89.559 94.2717 90.7111C93.2565 92.6582 91.0746 93.6824 89.1022 94.3688L89.0604 94.25C88.7337 94.1501 88.5939 94.378 88.2647 94.2785C85.6101 93.4783 83.6896 92.7798 82.3193 90.1961L82.0805 90.1947C81.9508 89.9678 81.8748 89.7279 81.8114 89.475C81.5029 88.2423 82.2636 87.1944 82.8517 86.1828C82.0224 86.4946 81.2084 86.8595 80.3916 87.2031L80.5857 86.5409Z" fill="#201611"/>
<path d="M86.9983 85.8469C87.5052 85.8257 88.2624 85.7243 88.7367 85.8986C89.0567 86.0159 89.0667 86.0651 89.2061 86.3745C89.1494 86.5246 89.1095 86.6235 89.0057 86.7476C88.3552 87.5223 87.2909 87.656 86.3626 87.779C85.8595 87.8012 85.2993 87.7255 84.8106 87.6019C84.4637 87.5141 84.3311 87.431 84.1553 87.126L84.2888 86.8161C85.1258 86.1235 85.9672 86.0212 86.9983 85.8469Z" fill="#DFE9F7"/>
<path d="M82.0804 90.1948L82.3192 90.1963C83.6895 92.78 85.61 93.4784 88.2647 94.2787C88.5938 94.3781 88.7336 94.1503 89.0603 94.2502L89.1022 94.3689C89.4981 94.7613 89.8546 95.2121 90.2212 95.634C90.8886 95.7334 91.579 95.8309 92.2546 95.8242C93.9454 95.8063 95.8149 95.2228 96.7178 93.6734C96.996 93.1965 97.1367 92.6728 97.5331 92.2761L97.6903 92.4455C97.721 92.7843 97.6888 93.044 97.5716 93.3611C96.9085 95.1504 95.5098 95.6634 93.905 96.3985C93.8056 96.6471 93.6994 96.8928 93.5865 97.1351C92.9282 98.5633 91.8889 99.588 90.3951 100.116C88.8561 100.659 86.9746 100.703 85.4913 99.964C84.1681 99.3042 83.3921 98.197 82.9189 96.8252C82.8578 96.8054 82.7973 96.7847 82.7368 96.7634C81.1665 96.2031 79.1697 95.495 78.4172 93.8732C78.2058 93.4176 77.9002 92.6743 78.0737 92.1781L78.2865 92.1467C78.7747 92.7872 79.0279 93.573 79.542 94.2096C80.4304 95.3116 81.7191 96.0129 83.1231 96.1587C85.0599 96.3546 86.4547 95.5886 87.8995 94.4196C86.8107 94.0615 85.6369 93.7569 84.6236 93.2149C83.3306 92.5227 82.5133 91.6081 82.0804 90.1948Z" fill="black"/>
<path d="M88.6015 94.5142C89.0623 94.9674 89.4025 95.2126 89.5865 95.8429L89.9579 96.2223C90.5422 96.2074 90.9612 96.3449 91.5041 96.5476C91.5353 96.7803 91.5507 96.9946 91.6425 97.2123C91.6684 97.1765 91.6939 97.1408 91.7203 97.1056C92.0221 96.7064 92.2536 96.5916 92.724 96.5332L92.9393 96.7832C92.9479 97.2036 92.8514 97.5081 92.6472 97.8672C92.0778 98.8693 90.9842 99.488 89.8988 99.7646C88.4151 100.143 86.5849 100.088 85.255 99.2607C84.5501 98.8215 83.8231 98.0478 83.6357 97.2161L83.9567 96.9782C84.6587 96.885 85.3419 96.7552 86.0333 96.6036L86.6142 96.0756C87.2984 95.5924 87.9452 95.0359 88.6015 94.5142Z" fill="#ED7455"/>
<path d="M91.6425 97.2123C91.6684 97.1766 91.6939 97.1409 91.7203 97.1056C92.0221 96.7065 92.2536 96.5916 92.724 96.5332L92.9393 96.7832C92.9479 97.2036 92.8514 97.5082 92.6472 97.8673C92.0778 98.8693 90.9842 99.4881 89.8988 99.7647C88.4151 100.143 86.5849 100.089 85.255 99.2608C84.5501 98.8215 83.8231 98.0478 83.6357 97.2162L83.9567 96.9782C85.253 98.1072 86.1813 98.9958 88.0192 98.8577C88.4824 98.823 88.8893 98.7308 89.3246 98.5744C90.1808 98.3736 91.1298 97.9629 91.6425 97.2123Z" fill="#F9F5F4"/>
<path d="M88.6015 94.5142C89.0623 94.9674 89.4025 95.2126 89.5865 95.8429C88.652 95.9926 87.5507 96.2802 86.6143 96.0756C87.2985 95.5924 87.9452 95.0359 88.6015 94.5142Z" fill="white"/>
<path d="M86.6151 96.0757C87.5515 96.2803 88.6528 95.9926 89.5873 95.843L89.9587 96.2224C88.7081 96.4251 87.3002 96.7461 86.0342 96.6037L86.6151 96.0757Z" fill="#240901"/>
<path d="M91.5045 96.5476C91.5358 96.7803 91.5511 96.9946 91.6429 97.2122C91.1302 97.9628 90.1813 98.3735 89.3251 98.5743L89.2578 98.4961C89.6662 97.6631 91.0692 97.6215 91.5045 96.5476Z" fill="#ED7455"/>
<path d="M116.395 27.4022C117.052 27.3159 117.694 27.1303 118.349 27.0442C118.782 26.9874 119.035 26.9375 119.389 27.2176C119.358 27.2454 119.329 27.2747 119.296 27.3011C118.777 27.7297 117.35 27.1921 116.987 27.871L116.984 27.7669C117.693 27.9761 118.098 27.3242 118.896 27.8386L118.993 28.0186C120.053 28.8389 121.768 30.1573 122.049 31.5287C122.071 31.6368 122.055 31.7195 122.035 31.8258C122.258 32.3862 122.192 33.1167 122.268 33.7259C122.688 37.0765 122.785 40.0543 121.434 43.2162C120.513 45.3699 119.056 46.7622 117.269 48.1767C116.787 48.887 116.252 49.4855 115.673 50.1145C114.7 50.7686 113.53 51.2417 112.482 51.7705C109.819 53.1137 106.838 54.6067 104.575 56.548L103.281 56.4987C102.353 57.4682 100.242 59.4898 100.335 60.9171C100.342 61.0228 100.377 61.1096 100.411 61.2076C100.447 61.3148 100.479 61.4205 100.518 61.5276C100.26 62.0035 100.221 62.2256 99.7235 62.4616C99.2354 62.3457 98.7818 62.1546 98.3176 61.9664C97.9169 62.1199 97.8881 62.1628 97.6435 62.521C96.7359 62.4061 95.6784 61.9775 94.7852 61.7255C95.0345 61.3944 95.2123 61.2129 95.5948 61.0479C95.6366 60.8442 95.6889 60.6424 95.7509 60.4436C96.6465 57.4865 99.6635 53.1055 102.402 51.6527C103.236 50.0755 106.132 49.7294 107.433 48.4904C107.815 48.1268 108.081 47.6495 108.064 47.1074C108.033 46.1247 106.152 44.9302 105.433 44.3097C104.875 43.8291 104.222 43.1362 104.191 42.3537C104.171 41.8598 104.364 41.0799 104.712 40.729C105.179 40.1148 105.928 39.7302 106.573 39.324C107.987 39.3187 109.571 39.162 110.647 40.2675C110.866 40.4919 111.01 40.7858 111.094 41.0865L111.18 41.1965C112.239 42.5793 112.895 45.1299 114.871 45.3673C114.924 45.3736 114.977 45.3782 115.03 45.3837C115.129 45.2884 115.083 45.3238 115.205 45.2474L115.616 44.9911C115.817 44.8677 116.014 44.7469 116.194 44.5934C118.414 42.6984 118.219 40.7625 118.436 38.0967L118.066 36.4776C117.442 34.5383 115.773 32.9136 114.952 30.9633C115.084 29.3888 115.341 28.6058 116.395 27.4022Z" fill="#DABE9E"/>
<path d="M104.712 40.7291L105.124 40.8045L105.558 40.3457C105.561 40.538 105.604 40.623 105.485 40.7791C105.202 41.1506 105.133 41.3647 105.108 41.8368L105.124 41.9702C105.414 44.1852 110.809 45.7812 108.828 48.3948C107.984 49.5077 106.602 50.2386 105.389 50.8777C104.363 51.086 103.434 51.6462 102.518 52.1363C102.521 52.0976 102.526 52.059 102.528 52.0202C102.535 51.8837 102.523 51.8294 102.47 51.7087L102.401 51.6527C103.235 50.0755 106.131 49.7294 107.433 48.4905C107.815 48.1269 108.081 47.6495 108.063 47.1074C108.033 46.1247 106.152 44.9303 105.432 44.3097C104.875 43.8291 104.222 43.1362 104.19 42.3538C104.171 41.8599 104.364 41.08 104.712 40.7291Z" fill="black"/>
<path d="M103.281 56.4988C106.727 53.0461 112.989 50.5521 117.269 48.1768C116.787 48.8871 116.251 49.4856 115.673 50.1146C114.7 50.7686 113.529 51.2417 112.481 51.7706C109.819 53.1138 106.838 54.6067 104.575 56.548L103.281 56.4988Z" fill="#B49D85"/>
<path d="M102.402 51.6527L102.47 51.7087C102.523 51.8293 102.535 51.8837 102.529 52.0202C102.527 52.059 102.522 52.0976 102.518 52.1363C103.435 51.6461 104.363 51.0859 105.39 50.8777C101.15 53.3187 97.976 56.6342 96.2967 61.3302C96.9665 61.5542 97.6406 61.7665 98.3176 61.9664C97.9169 62.1199 97.8881 62.1628 97.6435 62.521C96.7359 62.4061 95.6784 61.9775 94.7852 61.7255C95.0345 61.3944 95.2123 61.2129 95.5948 61.0479C95.6366 60.8442 95.6889 60.6424 95.7509 60.4436C96.6465 57.4865 99.6635 53.1055 102.402 51.6527Z" fill="#161211"/>
<path d="M116.396 27.4022C117.052 27.3159 117.694 27.1303 118.35 27.0442C118.783 26.9874 119.036 26.9375 119.389 27.2176C119.359 27.2454 119.329 27.2747 119.297 27.3011C118.777 27.7297 117.351 27.1921 116.987 27.871L116.985 27.7669C117.693 27.9761 118.098 27.3242 118.896 27.8386L118.993 28.0186C118.076 28.038 117.173 28.0061 116.485 28.7254C116.129 29.0973 116.025 29.5667 116.054 30.0702C116.158 31.8206 118.013 33.8564 118.741 35.4722C118.478 35.7993 118.242 36.0912 118.067 36.4776C117.442 34.5383 115.773 32.9136 114.952 30.9633C115.084 29.3888 115.341 28.6058 116.396 27.4022Z" fill="#161211"/>
<path d="M106.573 39.3242C107.987 39.3189 109.571 39.1621 110.647 40.2676C110.866 40.492 111.01 40.786 111.094 41.0867C111.093 41.1136 111.091 41.1405 111.09 41.1675C111.075 41.9864 111.792 42.4399 111.694 43.308C111.577 43.1754 111.562 43.1033 111.499 42.9401C111.356 42.5702 111.14 42.2737 110.91 41.9551L110.749 42.1339C110.393 41.6757 110.03 41.2741 109.548 40.9445C108.849 40.4665 107.872 40.091 107.02 40.2785C106.045 40.493 105.612 41.0209 105.108 41.8369C105.134 41.3648 105.202 41.1507 105.485 40.7793C105.604 40.6232 105.561 40.5381 105.559 40.3458L105.124 40.8046L104.712 40.7292C105.179 40.115 105.928 39.7303 106.573 39.3242Z" fill="#161211"/>
<path d="M118.437 38.0967C119.036 40.0578 118.354 41.6168 118.789 42.8212C118.131 44.1511 117.376 45.4358 115.883 45.949C114.955 46.2682 114.239 46.2748 113.307 46.0046C113.569 46.0178 113.877 46.0551 114.137 46.0175C114.635 45.9454 114.729 45.7555 115.03 45.3837C115.13 45.2884 115.083 45.3238 115.205 45.2474L115.617 44.9911C115.818 44.8677 116.015 44.747 116.194 44.5934C118.415 42.6984 118.219 40.7625 118.437 38.0967Z" fill="#161211"/>
<path d="M118.741 35.4722C119.584 37.6814 120.02 40.1099 119.02 42.3561C118.95 42.5145 118.876 42.6709 118.789 42.8212C118.353 41.6168 119.036 40.0578 118.436 38.0967L118.066 36.4776C118.242 36.0912 118.478 35.7993 118.741 35.4722Z" fill="#201611"/>
<path d="M111.094 41.0867L111.18 41.1967C112.239 42.5795 112.895 45.1301 114.871 45.3674C114.923 45.3738 114.977 45.3784 115.03 45.3839C114.728 45.7556 114.634 45.9456 114.137 46.0176C113.877 46.0552 113.568 46.0179 113.306 46.0048C113.206 45.9192 113.109 45.8315 113.011 45.7433C111.911 44.757 111.372 43.4455 110.749 42.1339L110.909 41.9551C111.14 42.2737 111.356 42.5701 111.499 42.9401C111.562 43.1033 111.576 43.1754 111.694 43.308C111.792 42.4399 111.075 41.9864 111.09 41.1675C111.091 41.1405 111.093 41.1136 111.094 41.0867Z" fill="black"/>
<path d="M116.751 172.573C117.196 172.576 117.503 172.76 117.89 172.958L117.543 173.115C118.199 173.378 118.436 173.878 118.815 174.457C119.989 175.468 120.916 176.185 122.381 176.744C122.899 176.908 123.293 177.045 123.641 177.497C124.257 178.15 124.411 179.315 124.484 180.177L124.281 180.645L124.237 180.778C123.948 181.041 123.616 181.131 123.241 181.201C120.048 181.801 115.056 180.95 112.386 179.08L112.39 178.932L111.852 178.324C111.666 178.271 111.584 178.321 111.399 178.365C111.313 177.979 111.194 177.608 111.073 177.231C111.081 177.207 111.09 177.183 111.098 177.159C111.112 177.119 111.128 177.08 111.142 177.041C111.357 176.453 111.584 176.102 112.011 175.644C113.288 174.325 115.023 173.175 116.751 172.573Z" fill="#057830"/>
<path d="M116.751 172.573C117.196 172.576 117.503 172.76 117.89 172.958L117.543 173.115C118.199 173.378 118.436 173.878 118.815 174.457C116.218 175.967 116.146 177.763 112.39 178.932L111.852 178.324C111.666 178.271 111.584 178.321 111.399 178.365C111.313 177.979 111.194 177.608 111.073 177.231C111.081 177.207 111.09 177.183 111.098 177.159C111.112 177.119 111.128 177.08 111.142 177.041C111.357 176.453 111.584 176.102 112.011 175.644C113.288 174.325 115.023 173.175 116.751 172.573Z" fill="#5AA336"/>
<path d="M116.751 172.573C117.196 172.576 117.503 172.76 117.89 172.958L117.543 173.115C115.205 174.194 113.062 175.368 111.92 177.825L111.852 178.324C111.666 178.271 111.584 178.321 111.399 178.365C111.313 177.979 111.194 177.608 111.073 177.231C111.081 177.207 111.09 177.183 111.098 177.159C111.112 177.119 111.128 177.08 111.142 177.041C111.357 176.453 111.584 176.102 112.011 175.644C113.288 174.325 115.023 173.175 116.751 172.573Z" fill="black"/>
<path d="M112.011 175.644C111.925 176.382 111.889 177.082 111.92 177.825L111.852 178.324C111.666 178.271 111.584 178.32 111.399 178.365C111.313 177.979 111.194 177.608 111.073 177.231C111.081 177.207 111.09 177.183 111.098 177.159C111.112 177.119 111.128 177.08 111.142 177.04C111.357 176.453 111.584 176.102 112.011 175.644Z" fill="black"/>
<path d="M87.0707 135.076C87.7958 137.35 90.1045 140.078 92.2196 141.184C92.5578 141.358 92.8999 141.524 93.2459 141.682C93.0762 141.892 92.9864 142.002 92.9744 142.286L90.78 146.065C86.2693 144.197 83.6862 142.109 80.6299 138.331C81.5966 137.351 81.9978 136.653 82.3711 135.324L85.6447 136.248C86.0963 136.051 86.4581 135.792 86.8531 135.501L87.0707 135.076Z" fill="#C5BD70"/>
<path d="M87.0702 135.076C87.7952 137.35 90.104 140.078 92.219 141.184C92.5573 141.358 92.8994 141.524 93.2453 141.682C93.0757 141.892 92.9859 142.002 92.9739 142.286C90.1919 140.551 88.2022 138.532 86.8525 135.501L87.0702 135.076Z" fill="#59210A"/>
<path d="M102.061 170.871C102.869 171.486 103.657 172.148 103.916 173.179C102.331 176.282 100.14 178.678 96.7994 179.868C96.0416 179.872 95.2681 180.002 94.5762 179.643C95.1441 178.831 95.0293 174.208 95.0672 172.898L95.38 171.516C96.1646 172.015 100.036 171.355 101.091 171.116C101.417 171.043 101.74 170.961 102.061 170.871Z" fill="#057830"/>
<path d="M130.98 32.9079C131.717 32.8834 132.849 32.7023 133.426 33.2354C133.595 33.3913 133.595 33.4642 133.647 33.6869C134.153 35.3486 133.653 37.2735 132.869 38.7646C131.215 41.9096 127.981 44.1296 124.706 45.3036C124.081 45.6673 123.309 46.2749 122.565 46.1905C122.333 45.968 122.292 45.7436 122.214 45.4382C123.253 44.3276 123.215 42.7161 123.865 41.4356C123.891 41.3843 124.08 41.0702 124.121 41.0615C124.473 40.9873 125.808 41.8085 127.038 41.4317C130.446 40.3872 129.52 35.5211 130.93 32.9958L130.98 32.9079Z" fill="#DABE9E"/>
<path d="M71.0771 114.363C71.9036 112.392 73.2292 111.34 75.0704 110.34C75.5941 110.44 75.9771 110.525 76.4273 110.83C77.074 110.693 77.7039 110.572 78.3636 110.52C77.691 112.446 77.2624 114.092 75.6893 115.491C74.9935 116.11 74.2791 116.678 73.703 117.417C73.4171 116.828 73.3426 116.073 73.2215 115.429C72.8372 115.157 72.2313 115.036 71.7777 114.895L71.3323 115.524L71.0771 114.363Z" fill="#F57644"/>
<path d="M71.0771 114.363C71.9036 112.392 73.2292 111.34 75.0704 110.34C75.5941 110.44 75.9771 110.525 76.4273 110.83C74.2426 111.742 73.1163 112.947 71.7777 114.895L71.3323 115.524L71.0771 114.363Z" fill="black"/>
<path d="M133.648 33.687C134.227 34.0224 134.488 34.5032 134.65 35.135C134.801 35.7244 134.851 36.6953 134.53 37.2374C134.512 37.2678 134.488 37.2943 134.467 37.3228C134.655 38.4089 133.795 39.9136 133.19 40.7722C132.033 42.4162 129.378 44.9377 127.344 45.3042C126.845 46.0359 123.684 47.1618 122.815 47.3247C122.759 47.3352 122.704 47.3438 122.648 47.3534L122.371 47.4077C121.939 47.1774 121.845 46.8394 121.615 46.418C121.924 46.1023 122.073 45.8575 122.214 45.4383C122.293 45.7437 122.333 45.9681 122.565 46.1906C123.309 46.2751 124.081 45.6674 124.706 45.3037C127.981 44.1297 131.215 41.9097 132.869 38.7647C133.653 37.2737 134.153 35.3487 133.648 33.687Z" fill="#B49D85"/>
<path d="M96.7148 154.412C96.9286 157.751 97.6844 161.495 100.293 163.815C101.218 164.637 102.28 165.144 103.375 165.698C102.288 166.396 101.401 166.813 100.082 166.749C99.9407 166.742 99.9969 166.738 99.8508 166.793C99.6428 166.61 99.5006 166.427 99.3574 166.19C97.3538 162.866 95.7605 158.329 96.7148 154.412Z" fill="#A25F23"/>
<path d="M131.911 161.624C132.029 162.145 131.659 162.665 131.579 163.194C131.388 164.232 129.847 165.761 129.268 166.735C128.841 167.453 128.55 168.28 128.296 169.073C127.942 170.179 127.736 171.356 127.791 172.52C127.826 173.285 128.094 174.148 127.882 174.891C127.54 175.017 127.282 175.043 126.933 174.904C126.435 174.706 126.096 174.233 125.537 174.201C126.359 173.448 126.818 169.098 127.555 167.548C128.609 165.332 130.434 163.547 131.911 161.624Z" fill="#A25F23"/>
<path d="M122.035 31.8259C122.771 32.2922 123.104 33.5943 123.287 34.4042C124.067 37.8544 123.047 42.6191 121.168 45.5783C119.953 47.4901 117.818 49.3547 115.673 50.1147C116.251 49.4857 116.787 48.8871 117.269 48.1768C119.055 46.7624 120.513 45.3701 121.433 43.2163C122.785 40.0545 122.688 37.0766 122.268 33.7261C122.192 33.1169 122.258 32.3864 122.035 31.8259Z" fill="#B49D85"/>
<path d="M101.738 167.536C102.776 168.578 104.253 169.812 104.265 171.421C104.269 172.043 104.126 172.601 103.916 173.179C103.656 172.148 102.868 171.486 102.06 170.871C101.739 170.961 101.416 171.043 101.091 171.116C100.036 171.355 96.1641 172.015 95.3795 171.516C95.0576 171.294 94.6155 171.204 94.2432 171.089C96.5773 170.894 98.8937 171.477 100.584 169.408C101.051 168.837 101.407 168.193 101.738 167.536Z" fill="#0B562A"/>
<path d="M134.232 153.6C135.126 154.391 135.999 156.631 136.058 157.809C136.069 158.021 136.038 158.168 135.957 158.364C135.583 159.612 132.963 162.494 131.828 163.081C131.746 163.123 131.662 163.157 131.578 163.194C131.659 162.665 132.028 162.145 131.911 161.624C132.957 160.794 133.895 158.742 134.248 157.485C134.532 156.475 134.761 154.556 134.232 153.6Z" fill="#A25F23"/>
<path d="M93.318 173.052C93.7639 172.846 94.3064 172.629 94.8041 172.778C94.9089 172.81 94.9641 172.846 95.067 172.898C95.029 174.208 95.1438 178.831 94.5759 179.642C93.3343 178.366 93.1542 177.358 93.1162 175.639L93.318 173.052Z" fill="#5AA336"/>
<path d="M82.1289 127.875L82.2269 127.491C82.6786 127.225 83.2292 127.282 83.7174 127.415C84.2353 127.555 84.4174 127.56 84.7182 128.002C84.772 129.136 85.8094 132.331 85.4851 133.072C83.8702 131.657 82.877 129.857 82.1289 127.875Z" fill="#F0D9AD"/>
<path d="M131.046 31.9605C131.815 31.9482 132.591 31.9121 133.357 31.9995C134.468 32.4874 135.068 33.0121 135.516 34.1663C135.766 34.8118 135.937 36.0203 135.677 36.6756C135.633 36.7863 135.567 36.8705 135.5 36.9659C135.466 37.0151 135.433 37.0655 135.398 37.1153L134.467 37.3228C134.488 37.2943 134.512 37.2678 134.53 37.2374C134.851 36.6953 134.8 35.7244 134.649 35.135C134.488 34.5032 134.227 34.0224 133.648 33.687C133.595 33.4643 133.596 33.3914 133.427 33.2355C132.849 32.7024 131.718 32.8835 130.98 32.908C131.13 32.7631 131.195 32.63 131.281 32.4415L131.046 31.9605Z" fill="#161211"/>
<path d="M122.188 176.204C123.407 176.332 124.596 176.438 125.821 176.282C125.834 177.292 125.574 179.38 124.834 180.132C124.77 180.197 124.76 180.203 124.696 180.255C124.565 180.435 124.473 180.532 124.28 180.645L124.483 180.177C124.411 179.315 124.256 178.15 123.64 177.497C123.292 177.045 122.899 176.908 122.381 176.744L122.188 176.204Z" fill="#0B562A"/>
<path d="M117.89 172.958C118.498 172.876 119.063 172.842 119.676 172.868C120.698 173.902 120.936 175.136 122.188 176.203L122.381 176.744C120.916 176.185 119.989 175.467 118.815 174.457C118.436 173.877 118.199 173.378 117.543 173.114L117.89 172.958Z" fill="#0B562A"/>
<path d="M71.778 114.895C72.2316 115.036 72.8375 115.157 73.2219 115.429C73.1844 116.093 73.2502 117.153 72.713 117.619C72.3056 117.973 71.5512 117.99 71.0342 118.032C70.8449 117.136 71.0895 116.375 71.3326 115.524L71.778 114.895Z" fill="#FCF9F8"/>
<path d="M73.2218 115.429C73.3429 116.073 73.4174 116.828 73.7032 117.417C72.8619 118.896 72.7159 120.137 72.7663 121.823C72.0816 120.598 71.4488 119.379 71.0342 118.031C71.5512 117.99 72.3055 117.973 72.713 117.619C73.2502 117.153 73.1843 116.093 73.2218 115.429Z" fill="#DC9176"/>
<path d="M103.282 56.4988L104.575 56.5481C102.865 58.055 101.68 59.57 100.519 61.5277C100.479 61.4206 100.447 61.3149 100.411 61.2077C100.378 61.1097 100.342 61.0229 100.335 60.9172C100.243 59.4899 102.353 57.4683 103.282 56.4988Z" fill="#A49089"/>
<path d="M81.6436 125.8C82.63 125.865 83.6198 125.983 84.6043 126.078C84.6389 126.651 84.6302 127.282 84.7705 127.838L84.7182 128.002C84.4174 127.559 84.2353 127.555 83.7173 127.415C83.2291 127.282 82.6785 127.225 82.2269 127.49L82.1288 127.875L81.6436 125.8Z" fill="#B49D85"/>
<path d="M92.8857 178.737C93.5502 177.965 92.5662 176.542 93.1164 175.639C93.1543 177.358 93.3345 178.366 94.5761 179.642C95.268 180.002 96.0415 179.872 96.7993 179.867C96.2294 180.389 94.8716 180.045 94.0668 180.469C93.3283 180.064 93.1591 179.487 92.8857 178.737Z" fill="#0E1E03"/>
<path d="M94.2428 171.089C94.6152 171.204 95.0572 171.294 95.3791 171.516L95.0663 172.898C94.9635 172.846 94.9082 172.81 94.8035 172.778C94.3057 172.629 93.7633 172.846 93.3174 173.052C93.401 172.203 93.7018 171.717 94.2428 171.089Z" fill="#33853D"/>
<path d="M121.615 46.418C121.845 46.8394 121.938 47.1774 122.37 47.4077L122.647 47.3534C122.191 47.9712 120.465 48.1899 119.735 48.3492C120.476 47.869 121.272 47.2603 121.615 46.418Z" fill="#B49D85"/>
<path d="M103.185 64.7833C103.181 64.7462 103.172 64.709 103.173 64.6718C103.182 63.9242 104.007 63.164 104.502 62.6755C108.294 58.932 113.352 56.5814 118.738 56.6581C120.218 56.6791 123.956 57.3166 124.991 58.3798L125.109 58.8682C124.874 58.9102 124.649 58.944 124.411 58.9614L124.815 59.2578L124.856 59.5483C124.666 59.7448 124.49 59.9272 124.259 60.0788L123.79 59.9431C123.883 60.4282 123.845 60.908 123.561 61.327C123.491 61.4288 123.416 61.5133 123.332 61.604C123.528 62.6345 121.841 65.0705 121.25 65.9417C120.952 66.3814 120.634 66.7758 120.247 67.1407C119.288 68.9386 116.504 70.3422 114.607 70.9113C112.4 71.573 110.213 71.4958 107.94 71.3457C107.186 70.0854 106.465 68.8049 105.779 67.5056L105.523 67.2802C105.516 67.1643 105.518 67.1204 105.483 66.9973C105.364 66.5687 105.214 66.518 104.844 66.3337C104.309 65.7902 103.782 65.2602 103.185 64.7833Z" fill="#F57644"/>
<path d="M103.185 64.7833C103.181 64.7462 103.172 64.709 103.173 64.6718C103.182 63.9242 104.007 63.164 104.502 62.6755C108.294 58.932 113.352 56.5814 118.738 56.6581C120.218 56.6791 123.956 57.3166 124.991 58.3798L125.109 58.8682C124.874 58.9102 124.649 58.944 124.411 58.9614L124.815 59.2578L124.856 59.5483C124.666 59.7448 124.49 59.9272 124.259 60.0788L123.79 59.9431C123.883 60.4282 123.845 60.908 123.561 61.327C123.491 61.4288 123.416 61.5133 123.332 61.604L123.224 61.4013C118.355 60.3722 113.577 61.8202 109.502 64.4894C108.807 64.945 108.08 65.4089 107.476 65.9857C107.065 66.3771 106.634 67.2126 106.182 67.4867C106.136 67.5147 105.851 67.5022 105.779 67.5056L105.523 67.2802C105.516 67.1643 105.518 67.1204 105.483 66.9973C105.364 66.5687 105.214 66.518 104.844 66.3337C104.309 65.7902 103.782 65.2602 103.185 64.7833Z" fill="#D19C6B"/>
<path d="M105.523 67.2802C105.584 67.0982 105.657 66.9177 105.769 66.7608C108.142 63.4367 112.329 60.7014 116.308 59.878C118.074 59.5126 122.261 58.9363 123.79 59.9432C123.883 60.4283 123.845 60.908 123.561 61.327C123.491 61.4288 123.416 61.5133 123.332 61.604L123.224 61.4013C118.355 60.3723 113.577 61.8203 109.502 64.4894C108.807 64.945 108.08 65.4089 107.476 65.9857C107.065 66.3771 106.634 67.2126 106.182 67.4868C106.136 67.5148 105.851 67.5022 105.78 67.5056L105.523 67.2802Z" fill="#D95E40"/>
<path d="M104.845 66.3337C105.833 65.2386 106.837 64.1521 107.951 63.1834C111.884 59.7617 116.634 58.096 121.797 58.4682C122.604 58.5855 123.669 58.6318 124.411 58.9615L124.815 59.2578L124.857 59.5484C124.666 59.7448 124.49 59.9273 124.259 60.0788L123.791 59.9432C122.261 58.9364 118.074 59.5127 116.309 59.8781C112.33 60.7015 108.142 63.4368 105.769 66.7609C105.657 66.9178 105.584 67.0983 105.524 67.2802C105.516 67.1644 105.518 67.1205 105.483 66.9974C105.364 66.5688 105.214 66.5181 104.845 66.3337Z" fill="black"/>
<path d="M103.185 64.7832C105.228 64.8271 105.367 63.2483 106.887 62.2603C110.314 60.0313 115.213 57.3609 119.437 57.6787C119.957 57.7179 120.491 57.9145 121.001 58.0318C121.423 58.1291 121.558 58.0965 121.796 58.468C116.633 58.0958 111.883 59.7615 107.95 63.1832C106.836 64.1519 105.833 65.2384 104.844 66.3335C104.309 65.79 103.781 65.2601 103.185 64.7832Z" fill="#CE9258"/>
<path d="M138.648 142.866L139.109 142.894C139.896 144.135 140.726 145.877 141.763 146.893C142.807 147.914 145.425 148.868 146.07 150.001C146.5 150.758 145.287 156.208 145.222 157.582C145.115 159.815 145.266 162.147 146.021 164.267C146.558 165.772 147.874 166.562 148.569 167.899C148.583 167.925 148.595 167.951 148.608 167.978C148.56 168.045 148.548 168.068 148.474 168.126C146.817 169.41 144.001 170.173 141.969 170.073C140.864 169.503 140.705 168.943 139.965 168.08C139.93 168.04 139.895 168.001 139.86 167.962C138.941 168.918 137.529 169.368 136.288 169.726C137.266 169.08 137.961 168.336 138.478 167.272C139.929 164.289 139.484 158.398 137.623 155.582C136.928 154.529 135.755 153.892 135.359 152.632C134.435 149.697 135.426 147.064 137.206 144.743C137.656 144.157 138.276 143.587 138.614 142.934C138.626 142.912 138.636 142.888 138.648 142.866Z" fill="#A25F23"/>
<path d="M96.4016 109.995C96.7499 109.674 97.1665 109.413 97.658 109.42C98.4263 109.433 99.2917 110.262 99.7539 110.814C100.711 111.958 101.043 113.414 100.889 114.881C100.634 117.32 99.1134 119.302 97.2568 120.79C93.3601 123.911 87.1125 125.012 82.2466 124.39C82.0352 124.362 81.8257 124.324 81.6182 124.276C81.7618 123.673 82.177 123.088 82.4191 122.517C83.211 120.652 83.0543 119.264 82.7434 117.328C88.4021 115.711 92.5794 114.912 96.4016 109.995Z" fill="#F57644"/>
<path d="M96.4016 109.995C96.7499 109.674 97.1665 109.413 97.658 109.42C98.4263 109.433 99.2917 110.262 99.7539 110.814C100.711 111.958 101.043 113.414 100.889 114.881C100.634 117.32 99.1134 119.302 97.2568 120.79C93.3601 123.911 87.1125 125.012 82.2466 124.39C82.0352 124.362 81.8257 124.324 81.6182 124.276C86.8448 124.422 90.6791 122.695 94.9534 119.817C95.973 119.448 96.453 119.116 97.067 118.212C97.1699 117.34 97.5163 116.476 97.6326 115.588C97.8954 113.591 97.646 111.626 96.4016 109.995Z" fill="#9C4115"/>
<path d="M94.9543 119.817C94.6886 119.698 94.4268 119.57 94.1683 119.434C93.6719 119.168 93.2722 118.776 93.1304 118.212C93.0055 117.714 93.1189 117.199 93.4062 116.778C93.7474 116.28 94.3153 115.91 94.9106 115.816C95.3901 115.74 95.9086 115.846 96.2843 116.166C96.8662 116.661 96.9743 117.501 97.068 118.212C96.4539 119.116 95.9739 119.448 94.9543 119.817Z" fill="#FCF9F8"/>
<path d="M85.2271 118.708C86.1377 118.273 87.2269 118.654 87.6733 119.562C88.1201 120.47 87.7588 121.57 86.8622 122.033C86.2698 122.339 85.5592 122.3 85.0028 121.931C84.4464 121.563 84.1312 120.921 84.1773 120.253C84.2239 119.586 84.6251 118.995 85.2271 118.708Z" fill="#FCF9F8"/>
<path d="M70.4239 84.5301C69.1338 82.666 68.7864 79.8067 69.1626 77.5898C69.4735 75.7591 70.3792 74.0466 71.9057 72.9582C73.0934 72.1111 74.5517 71.7269 75.9941 71.9764C77.8194 72.2921 79.3853 73.4804 80.4188 74.9921C81.8751 77.1221 82.3571 79.9134 81.8828 82.4372C81.6118 83.8809 80.9632 85.6228 79.6928 86.4805C79.232 86.7923 78.6074 86.9116 78.0625 86.9594L77.9126 86.9748C77.3365 86.5172 75.1849 86.2402 74.3979 86.2445L74.0827 86.6133L73.8646 86.8768C73.6532 86.8947 73.4394 86.8985 73.2327 86.8416C72.0945 86.5269 71.0062 85.5316 70.4239 84.5301Z" fill="black"/>
<path d="M70.4239 84.5301C69.1338 82.666 68.7864 79.8067 69.1626 77.5898C69.4735 75.7591 70.3792 74.0466 71.9057 72.9582C73.0934 72.1111 74.5517 71.7269 75.9941 71.9764C77.8194 72.2921 79.3853 73.4804 80.4188 74.9921C81.8751 77.1221 82.3571 79.9134 81.8828 82.4372C81.6118 83.8809 80.9632 85.6228 79.6928 86.4805C79.232 86.7923 78.6074 86.9116 78.0625 86.9594C78.1836 86.3444 80.3919 84.52 80.8676 82.6405C81.3067 80.9043 80.7897 79.2323 79.8984 77.7337C79.6856 77.4151 79.417 77.0956 79.1383 76.834C78.2105 75.9613 76.9204 75.4 75.6399 75.4642C74.0577 75.5428 73.005 76.4039 71.9715 77.5237C70.9005 79.3134 70.6886 81.0916 71.1787 83.1159C71.2431 83.3799 71.3142 83.642 71.392 83.9026C71.4194 84.2637 71.4343 84.6136 71.4185 84.9756C71.0225 84.9457 70.777 84.6691 70.4239 84.5301Z" fill="#FCF9F8"/>
<path d="M71.392 83.9026C71.3142 83.642 71.243 83.3799 71.1787 83.1159C70.6886 81.0916 70.9005 79.3134 71.9715 77.5237C72.1468 78.0855 72.1314 78.3992 71.9926 78.9644C72.0526 78.9823 72.1536 79.0311 72.2136 79.0137C72.3496 79.5325 72.4659 80.0591 72.7066 80.5413L72.4317 80.8671C72.3453 81.4748 72.2818 82.0376 72.4207 82.6428C72.6412 83.6043 73.3019 84.4779 74.1399 84.9881C74.8981 85.4505 75.8259 85.6412 76.6955 85.4235C77.5647 85.2053 78.1817 84.5933 78.6295 83.8379C79.4718 82.4165 79.6774 81.0877 79.2623 79.5161C79.3646 79.0774 79.28 78.7062 79.1974 78.2742C79.5097 78.1714 79.676 77.9682 79.8984 77.7336C80.7897 79.2323 81.3067 80.9043 80.8675 82.6404C80.3919 84.5199 78.1836 86.3444 78.0625 86.9593L77.9126 86.9748C77.3365 86.5172 75.1849 86.2402 74.3979 86.2445L74.0827 86.6133L73.8646 86.8768C73.6531 86.8947 73.4393 86.8985 73.2327 86.8416C72.0945 86.5269 71.0062 85.5316 70.4238 84.5301C70.777 84.6691 71.0225 84.9456 71.4184 84.9756C71.4343 84.6136 71.4194 84.2636 71.392 83.9026Z" fill="url(#paint3_linear_3039_11482)"/>
<path d="M71.392 83.9026C72.044 84.9674 72.8161 86.231 74.0827 86.6132L73.8646 86.8768C73.6531 86.8946 73.4393 86.8985 73.2327 86.8415C72.0945 86.5268 71.0062 85.5316 70.4238 84.53C70.777 84.6691 71.0225 84.9456 71.4184 84.9756C71.4343 84.6136 71.4194 84.2636 71.392 83.9026Z" fill="#F0D9AD"/>
<path d="M72.2139 79.0137C72.4262 78.3776 72.8928 77.6734 73.5256 77.3852C73.7701 77.2742 74.0527 77.2834 74.2977 77.3857C74.8753 77.6266 75.2366 78.2429 75.4379 78.8105C75.619 79.3202 75.7007 79.9839 75.4999 80.5008C75.3504 80.8846 75.1506 80.984 74.8152 81.1664C73.994 81.2147 73.3742 81.0105 72.7068 80.5414C72.4661 80.0592 72.3498 79.5326 72.2139 79.0137Z" fill="#FCF9F8"/>
<path d="M79.2626 79.5163C77.3661 76.8804 77.0937 78.0924 74.6836 77.1507L74.7038 76.9871C75.2544 76.7477 75.8488 76.7965 76.435 76.8298C77.7001 76.9012 78.3626 77.3346 79.1977 78.2744C79.2804 78.7064 79.3649 79.0775 79.2626 79.5163Z" fill="#61584E"/>
<path d="M90.9049 104.847C92.38 104.269 94.0323 104.384 95.5281 103.755C95.5406 105.556 95.7851 107.81 95.5002 109.565C94.2414 111.082 91.9889 113.379 89.9896 113.723L89.5168 113.394L89.3798 113.879C88.1532 115.145 83.8332 115.944 82.1169 116.219C80.5957 115.286 79.5338 114.822 77.7383 114.793C79.2691 111.954 80.109 108.633 80.6029 105.462L80.86 104.207C83.3119 104.608 85.6129 104.953 88.1047 104.92C89.0123 104.74 89.9838 104.805 90.9049 104.847Z" fill="#F0D9AD"/>
<path d="M90.9047 104.847C92.3798 104.269 94.0322 104.384 95.5279 103.755C95.5404 105.556 95.785 107.81 95.5 109.565C94.2412 111.082 91.9887 113.379 89.9894 113.723L89.5166 113.394C89.8169 111.315 90.0226 109.224 90.1321 107.126C90.3205 106.495 90.2542 105.572 90.2921 104.901C89.5642 104.925 88.8329 104.916 88.1045 104.92C89.0121 104.74 89.9837 104.805 90.9047 104.847Z" fill="#F57644"/>
<path d="M90.905 104.847C92.3801 104.269 94.0325 104.384 95.5282 103.755C95.5407 105.556 95.7853 107.81 95.5004 109.565C95.3505 108.421 95.4019 107.2 95.3802 106.044C93.8749 106.469 92.2888 106.74 90.7402 106.954C90.8301 106.258 90.8565 105.548 90.905 104.847Z" fill="#974011"/>
<path d="M88.1045 104.919C89.0121 104.74 89.9837 104.805 90.9047 104.847C90.8562 105.547 90.8298 106.257 90.7399 106.953C90.4521 109.167 90.1254 111.499 89.9894 113.723L89.5166 113.394C89.8169 111.315 90.0226 109.223 90.1321 107.126C90.3205 106.495 90.2542 105.572 90.2921 104.901C89.5642 104.925 88.8329 104.916 88.1045 104.919Z" fill="#59210A"/>
<path d="M80.8596 104.207C83.3115 104.608 85.6125 104.953 88.1043 104.919C88.8327 104.916 89.564 104.925 90.2919 104.901C90.2539 105.572 90.3203 106.495 90.1319 107.126C89.6726 106.644 88.4762 106.853 87.8256 106.856C85.2608 106.865 83.0102 106.298 80.6025 105.461L80.8596 104.207Z" fill="#DBBF9E"/>
<path d="M115.277 142.884C116.341 142.669 118.509 142.467 119.372 141.79C119.766 142.352 120.873 145.451 120.769 146.043C120.759 146.1 120.744 146.155 120.732 146.211C119.68 146.693 118.342 146.869 117.199 147.072C114.67 147.519 112.125 147.903 109.559 148.049C107.758 148.151 105.924 148.071 104.132 148.241C104.992 147.261 106.956 145.331 106.877 143.965L107.164 143.533C108.204 143.139 110.918 143.329 112.13 143.248C113.184 143.178 114.232 143.033 115.277 142.884Z" fill="url(#paint4_linear_3039_11482)"/>
<path d="M106.877 143.965L107.163 143.533C108.204 143.139 110.918 143.329 112.13 143.248C113.184 143.178 114.231 143.033 115.277 142.884L116.128 143.064C115.218 143.227 113.72 143.176 112.961 143.647L112.939 143.898C113.519 144.316 114.558 144.094 115.249 143.979C115.586 143.923 115.905 143.83 116.225 143.713C114.507 144.616 109.214 145.239 107.349 144.796C107.025 144.503 107.006 144.391 106.877 143.965Z" fill="#F0D9AD"/>
<path d="M146.016 174.994C145.877 175.238 145.739 175.313 145.503 175.453C143.889 176.402 138.23 177.488 136.445 176.984C136.089 176.884 135.818 176.704 135.658 176.363C135.347 175.701 135.611 174.757 135.848 174.108C136.365 172.687 137.506 170.6 138.989 169.999C139.265 169.887 139.571 169.872 139.835 170.014C140.251 170.238 140.528 170.787 140.658 171.226C140.666 171.253 140.673 171.281 140.68 171.308C141.503 171.361 142.328 171.349 143.152 171.349C144.482 171.084 145.652 170.71 146.887 170.13C147.348 171.165 147.846 172.751 147.394 173.866C147.206 174.332 146.804 174.733 146.331 174.909C146.228 174.947 146.123 174.972 146.016 174.994Z" fill="#057830"/>
<path d="M143.152 171.349C144.482 171.084 145.652 170.71 146.887 170.13C147.348 171.164 147.846 172.751 147.394 173.866C147.206 174.332 146.804 174.733 146.331 174.909C146.228 174.947 146.123 174.972 146.016 174.994C146.095 174.892 146.154 174.815 146.202 174.694C146.397 174.21 146.656 173.171 146.431 172.693C145.949 171.67 144.816 171.943 143.989 171.6C143.71 171.484 143.447 171.414 143.152 171.349Z" fill="#0B562A"/>
<path d="M77.7074 115.917C78.7298 115.789 79.6985 115.749 80.5576 116.414C81.2509 116.95 81.5988 117.773 81.6982 118.629C81.852 119.951 81.4907 121.393 80.6441 122.428C79.9498 123.289 78.9326 123.824 77.8328 123.905C76.8944 123.975 75.6913 123.748 74.9667 123.109C74.5938 122.78 74.3896 122.353 74.1734 121.914C73.8563 120.528 73.8679 119.254 74.616 118C75.3059 116.843 76.4456 116.248 77.7074 115.917Z" fill="#D59447"/>
<path d="M74.1734 121.914C73.8563 120.528 73.8679 119.254 74.616 118C75.3059 116.843 76.4456 116.248 77.7074 115.917C78.1701 115.966 78.6549 115.927 79.0306 116.21C78.1167 117.086 76.559 117.301 75.7662 118.302C74.9119 119.382 75.4453 121.175 74.1734 121.914Z" fill="#F0B260"/>
<path d="M87.3195 171.169C87.7678 170.979 88.1834 170.732 88.6773 170.846C89.2568 171.676 88.6831 172.746 90.1673 172.971C90.8409 173.073 91.7188 172.965 92.3814 172.805C92.3564 174.126 92.5884 176.651 91.947 177.76C90.8722 178.591 87.4045 178.139 86.0947 177.968C85.0593 177.831 84.2247 177.661 83.3329 177.092C83.2878 177.064 83.2412 177.036 83.1955 177.008C83.1681 176.99 83.1412 176.972 83.1143 176.954C83.049 176.756 83.0062 176.534 83 176.325C82.9495 174.657 84.908 172.985 85.9857 171.925C86.4292 171.568 86.7593 171.314 87.3195 171.169Z" fill="#057830"/>
<path d="M85.9857 171.925L86.6564 171.942C86.6915 172.139 86.7328 172.33 86.7371 172.531C85.4557 173.939 84.403 175.567 83.1143 176.955C83.049 176.756 83.0062 176.534 83 176.325C82.9495 174.657 84.908 172.985 85.9857 171.925Z" fill="#33853D"/>
<path d="M71.0187 127.325C71.4079 126.378 72.0382 124.044 73.0261 123.629C73.2639 123.529 73.4614 123.526 73.6954 123.659C73.9938 123.828 74.2941 124.161 74.5473 124.397C74.7289 125.744 74.9254 127.092 75.0619 128.444C75.2863 129.408 75.3242 130.141 74.801 131.018C74.7602 131.087 74.7323 131.12 74.6823 131.187C74.3811 131.441 73.0785 135.338 72.7835 136.01C72.464 134.613 71.9282 133.709 70.8889 132.727C69.3033 132.313 67.6024 132.335 65.9727 132.278C67.4261 131.347 68.7354 130.64 69.8295 129.259C70.1903 128.59 70.6026 127.96 71.0187 127.325Z" fill="#F57644"/>
<path d="M71.0186 127.325C71.4077 126.378 72.0381 124.044 73.026 123.629C73.2638 123.529 73.4613 123.526 73.6953 123.659C73.9937 123.828 74.294 124.161 74.5472 124.397C74.7288 125.744 74.9253 127.092 75.0618 128.444C73.85 127.691 72.4134 127.447 71.0186 127.325Z" fill="#D95E40"/>
<path d="M71.0183 127.325C72.4131 127.447 73.8498 127.691 75.0615 128.444C75.2859 129.408 75.3239 130.141 74.8006 131.018C74.7598 131.087 74.7319 131.12 74.682 131.187C73.1521 130.001 71.691 129.598 69.8291 129.259C70.1899 128.59 70.6022 127.96 71.0183 127.325Z" fill="#FCF9F8"/>
<path d="M77.3053 129.624C78.2985 129.518 79.787 128.385 81.0973 128.134C81.6522 128.782 81.9381 129.523 82.1058 130.356C82.6588 132.066 84.6893 133.912 85.9564 135.107C84.5044 134.821 83.0485 134.5 81.5758 134.344C81.3217 135.996 80.6855 136.815 79.4098 137.887L79.0379 137.742L79.0831 137.808C79.136 135.823 79.1624 134.288 78.2101 132.478C77.966 132.066 77.7272 131.651 77.4946 131.233C77.1448 130.593 77.1026 130.327 77.3053 129.624Z" fill="#F57644"/>
<path d="M77.3053 129.624C78.2985 129.518 79.787 128.385 81.0973 128.134C81.6522 128.782 81.9381 129.523 82.1058 130.356C80.7196 130.523 79.5588 130.699 78.6401 131.867C78.4863 132.063 78.347 132.27 78.2101 132.478C77.966 132.066 77.7272 131.651 77.4946 131.233C77.1448 130.593 77.1026 130.327 77.3053 129.624Z" fill="#FCF9F8"/>
<path d="M124.992 58.3799C125.352 58.5082 125.953 58.6588 126.118 59.0469C126.139 59.0951 126.152 59.1468 126.168 59.197C126.293 61.5046 123.253 66.5963 121.646 68.3913C118.862 71.5016 115.739 73.0379 111.574 73.2508C110.73 73.2942 108.864 73.397 108.256 72.7812C108.215 72.7397 108.179 72.6928 108.141 72.6484L108.182 72.3376C109.189 71.6281 114.482 73.2976 119.127 69.0159C119.506 68.6664 120.375 67.9598 120.503 67.4887C120.51 67.4646 120.51 67.44 120.513 67.4154L120.247 67.1407C120.635 66.7758 120.953 66.3815 121.251 65.9418C121.842 65.0706 123.529 62.6345 123.333 61.604C123.417 61.5133 123.491 61.4288 123.561 61.327C123.845 60.908 123.883 60.4283 123.791 59.9432L124.26 60.0788C124.49 59.9273 124.666 59.7448 124.857 59.5484L124.815 59.2578L124.411 58.9614C124.649 58.9441 124.875 58.9103 125.11 58.8683L124.992 58.3799Z" fill="#A25F23"/>
<path d="M123.791 59.9431L124.26 60.0787C124.556 61.0759 123.239 63.5844 122.744 64.5096C122.287 65.363 121.398 67.0427 120.513 67.4153L120.247 67.1406C120.634 66.7757 120.952 66.3814 121.251 65.9417C121.842 65.0705 123.529 62.6345 123.333 61.604C123.416 61.5132 123.491 61.4288 123.561 61.3269C123.845 60.908 123.883 60.4282 123.791 59.9431Z" fill="black"/>
<path d="M89.8422 157.831C89.9056 157.944 89.9671 158.057 90.0262 158.172C91.8732 161.775 91.6478 166.654 90.4418 170.393C90.2986 170.677 90.1723 170.888 89.9493 171.116C89.6615 170.45 89.9176 169.614 89.6298 169.056C88.8072 169.292 87.9577 169.561 87.1078 169.666C86.6729 169.72 86.3904 169.697 86.0459 169.417C86.2059 168.585 87.5892 167.652 88.1379 166.929C90.1646 164.258 90.2775 161.009 89.8422 157.831Z" fill="#CE7F28"/>
<path d="M75.5967 125.174C76.3299 125.293 77.1534 125.462 77.8958 125.39C78.6362 125.319 79.5837 124.898 80.2967 125.006C80.4913 125.922 80.6259 127.251 81.0574 128.063C81.0703 128.087 81.0842 128.11 81.0977 128.134C79.7874 128.385 78.2989 129.518 77.3058 129.624C77.1808 129.555 77.077 129.507 76.9387 129.466C76.8973 129.454 76.8555 129.444 76.8137 129.433C75.9301 128.316 75.8259 126.549 75.5967 125.174Z" fill="#F57644"/>
<path d="M86.0391 144.922C87.4478 145.72 88.7817 146.397 90.3331 146.877C89.6696 147.847 89.2583 148.932 88.8902 150.04C88.8292 150.501 88.7466 150.908 88.6067 151.352C88.2276 151.105 86.224 145.658 86.0391 144.922Z" fill="#A25F23"/>
<path d="M90.4417 170.393C91.0428 170.562 92.1272 170.701 92.489 171.213C92.2584 171.573 92.1609 171.626 91.7193 171.723C91.2773 171.82 90.8266 171.728 90.41 171.578L89.9492 171.116C90.1722 170.888 90.2985 170.677 90.4417 170.393Z" fill="#C28451"/>
<path d="M53.0835 29.6313C54.5725 28.7884 56.2662 27.717 58.0459 28.2363C58.8036 28.4575 59.6147 28.9619 59.9928 29.6767C60.3594 30.3701 60.3042 31.1854 60.0663 31.9108C59.6627 33.1409 58.7508 34.233 58.0853 35.3351C56.6785 37.6652 56.5329 40.8952 57.7086 43.3428C58.1622 44.2875 58.8964 45.519 59.9626 45.8456C60.4834 46.005 61.0148 45.8778 61.4718 45.6011C63.496 44.3752 65.2132 38.7008 68.998 39.6133C70.0882 39.8762 70.8714 40.6599 71.5162 41.5347C71.5777 42.6007 71.6507 43.4565 70.9113 44.3075C70.0368 45.3138 67.7982 45.9805 67.5205 47.2898C67.5662 47.6967 67.6498 48.0377 67.9606 48.3256C68.2864 48.6272 68.7895 48.8616 69.1671 49.1015C73.4333 51.3142 78.4226 55.2395 79.9606 60.0363C80.0673 60.3694 80.1548 60.6961 80.1716 61.0475L80.15 61.2497L80.5132 61.5833L80.394 62.0447C77.7942 62.885 75.5575 63.8605 73.3535 65.5098C73.2214 65.4707 73.0878 65.4306 72.9605 65.377C72.7155 65.2733 72.5089 65.0869 72.4185 64.8306C72.32 64.5493 72.3527 64.5135 72.4882 64.2519L72.8399 64.1506C73.3954 64.2104 73.7528 64.1482 74.2626 63.9334C74.5384 63.5969 74.6316 63.4869 74.5547 63.0206C74.2535 61.1913 71.1948 58.1369 69.7927 57.0045C68.6103 56.1854 67.4504 55.3526 66.167 54.6971C63.7021 53.4379 61.0427 52.5783 58.5528 51.3345C58.5442 51.3133 58.5365 51.2918 58.5269 51.2709C58.5115 51.2362 58.4942 51.2025 58.4784 51.1681C58.0507 50.2438 57.0244 49.8115 56.7664 48.8154C56.0154 48.2492 55.3927 47.3128 54.82 46.5644C54.9507 47.0618 55.1068 47.5223 55.3058 47.9963C54.9488 47.7081 54.5831 47.3906 54.1795 47.1719C54.3851 47.5351 54.9752 48.283 54.9007 48.6421L54.4976 48.6648C52.6761 48.6392 51.5498 48.0469 49.5251 48.2547C47.1568 47.6403 45.3694 46.6039 43.4739 45.0856C42.9103 44.4969 42.389 43.8417 41.8816 43.2029C40.4142 41.3561 39.7867 38.4964 40.064 36.1837C40.1841 35.1795 40.5516 34.1493 41.3848 33.5234C42.3851 32.772 43.4576 32.9128 44.6194 33.0974C45.206 33.2974 45.6284 33.7615 46.0748 34.1749C46.5221 36.0339 46.5538 39.9629 48.2706 41.0035C48.986 41.4374 49.5794 41.3534 50.3337 41.1516C50.5749 41.0871 50.8152 41.0184 51.054 40.9455C50.9747 36.2217 50.7402 33.8832 53.0835 29.6313Z" fill="#DABE9E"/>
<path d="M53.0835 29.6313C54.5725 28.7884 56.2662 27.717 58.0459 28.2363C58.8036 28.4575 59.6147 28.9619 59.9928 29.6767C60.3594 30.3701 60.3042 31.1854 60.0663 31.9108C59.6627 33.1409 58.7508 34.233 58.0853 35.3351C56.6785 37.6652 56.5329 40.8952 57.7086 43.3428C58.1622 44.2875 58.8964 45.519 59.9626 45.8456C60.4834 46.005 61.0148 45.8778 61.4718 45.6011C63.496 44.3752 65.2132 38.7008 68.998 39.6133C70.0882 39.8762 70.8714 40.6599 71.5162 41.5347C71.5777 42.6007 71.6507 43.4565 70.9113 44.3075C70.0368 45.3138 67.7982 45.9805 67.5205 47.2898C67.5662 47.6967 67.6498 48.0377 67.9606 48.3256C68.2864 48.6272 68.7895 48.8616 69.1671 49.1015C73.4333 51.3142 78.4226 55.2395 79.9606 60.0363C80.0673 60.3694 80.1548 60.6961 80.1716 61.0475L80.15 61.2497L80.5132 61.5833L80.394 62.0447C77.7942 62.885 75.5575 63.8605 73.3535 65.5098C73.2214 65.4707 73.0878 65.4306 72.9605 65.377C72.7155 65.2733 72.5089 65.0869 72.4185 64.8306C72.32 64.5493 72.3527 64.5135 72.4882 64.2519L72.8399 64.1506C73.3954 64.2104 73.7528 64.1482 74.2626 63.9334C74.5384 63.5969 74.6316 63.4869 74.5547 63.0206C74.2535 61.1913 71.1948 58.1369 69.7927 57.0045C70.3294 57.1635 70.8743 57.4131 71.4124 57.1663C71.4566 57.146 71.5018 57.1269 71.546 57.1072C72.8221 58.2907 73.7187 59.5175 74.6826 60.964C74.819 61.1691 75.7449 62.7016 75.8881 62.7537C75.9962 62.7933 76.1182 62.7465 76.2336 62.7426L76.8885 62.3512C77.6784 62.023 78.4976 61.7556 79.3038 61.4698C79.2764 61.3728 79.2481 61.2763 79.2188 61.1802C77.6519 56.0754 73.1859 52.5163 68.6742 50.1413C67.8208 49.624 66.9122 49.0036 66.561 48.017C65.6375 45.4231 69.8936 44.6746 70.66 42.8046C70.7378 42.6145 70.7614 42.3038 70.6701 42.115C70.3664 41.4844 69.6711 41.0471 69.0211 40.8375C65.4698 39.6926 64.2811 45.3607 61.871 46.595C61.1666 46.9559 60.3907 47.0513 59.6339 46.7969C58.2477 46.3307 57.2594 44.9156 56.6525 43.6508C55.4336 41.1094 55.4643 37.4206 57.0326 35.0502C57.6928 34.0526 58.7124 33.0487 59.09 31.9023C59.3 31.2644 59.1722 30.4435 58.8368 29.8673C58.6086 29.4752 58.2593 29.2099 57.8191 29.1037C56.9062 28.8832 55.8016 29.2623 55.0487 29.7759C53.675 30.7135 52.887 32.1522 52.5901 33.7641C51.3086 38.1393 52.5622 42.4244 54.6917 46.3191C54.7335 46.3961 54.7912 46.4806 54.82 46.5644C54.9507 47.0618 55.1068 47.5223 55.3058 47.9963C54.9488 47.7081 54.5831 47.3906 54.1795 47.1719C54.3851 47.5351 54.9752 48.283 54.9007 48.6421L54.4976 48.6648C52.6761 48.6392 51.5498 48.0469 49.5251 48.2547C47.1568 47.6403 45.3694 46.6039 43.4739 45.0856C42.9103 44.4969 42.389 43.8417 41.8816 43.2029C40.4142 41.3561 39.7867 38.4964 40.064 36.1837C40.1841 35.1795 40.5516 34.1493 41.3848 33.5234C42.3851 32.772 43.4576 32.9128 44.6194 33.0974C45.206 33.2974 45.6284 33.7615 46.0748 34.1749C46.5221 36.0339 46.5538 39.9629 48.2706 41.0035C48.986 41.4374 49.5794 41.3534 50.3337 41.1516C50.5749 41.0871 50.8152 41.0184 51.054 40.9455C50.9747 36.2217 50.7402 33.8832 53.0835 29.6313Z" fill="black"/>
<path d="M43.4739 45.0855C42.9103 44.4968 42.389 43.8415 41.8816 43.2028C40.4142 41.356 39.7867 38.4962 40.064 36.1835C40.1841 35.1794 40.5516 34.1492 41.3848 33.5233C42.3851 32.7718 43.4576 32.9127 44.6194 33.0972L44.3369 33.3847C43.7857 33.2716 43.3307 33.1406 42.7892 33.3602C43.4571 33.718 44.3138 33.5037 44.8601 34.0638L44.9033 34.2625C46.0666 36.5954 45.2089 41.0775 48.2211 42.088C49.3526 42.4675 50.4471 42.0909 51.5124 41.6906C52.051 42.7284 52.4032 43.894 52.7852 44.9989C53.1772 45.6339 53.6558 46.6719 54.1795 47.1718C54.3851 47.5349 54.9752 48.2829 54.9007 48.642L54.4976 48.6646C52.6761 48.639 51.5498 48.0467 49.5251 48.2546C47.1568 47.6402 45.3694 46.6038 43.4739 45.0855Z" fill="#B49D85"/>
<path d="M41.7324 34.557C41.7665 34.5381 41.7997 34.5187 41.8338 34.5001C42.9341 33.9012 43.7206 33.9176 44.9036 34.2625C46.0668 36.5954 45.2092 41.0775 48.2213 42.088C49.3528 42.4675 50.4474 42.0909 51.5126 41.6906C52.0512 42.7284 52.4034 43.894 52.7854 44.9989C52.8796 45.4836 53.0842 45.8818 53.0977 46.389C52.9103 46.6582 52.9271 46.7039 52.5932 46.776C50.0726 46.144 46.9279 44.5733 45.0016 42.8134C42.7664 40.7715 41.879 37.4894 41.7324 34.557Z" fill="#DABE9E"/>
<path d="M43.4739 45.0855C42.9103 44.4968 42.389 43.8415 41.8816 43.2028C40.4142 41.356 39.7867 38.4962 40.064 36.1835C40.1841 35.1794 40.5516 34.1492 41.3848 33.5233C42.3851 32.7718 43.4576 32.9127 44.6194 33.0972L44.3369 33.3847C43.7857 33.2716 43.3307 33.1406 42.7892 33.3602C43.4571 33.718 44.3138 33.5037 44.8601 34.0638L44.9033 34.2625C43.7204 33.9176 42.9339 33.9012 41.8336 34.5001C41.7994 34.5186 41.7663 34.538 41.7322 34.557C40.8591 36.1165 40.8082 37.5476 41.2945 39.2616C41.7831 40.9818 42.6528 42.3979 43.8309 43.7183C43.867 44.3458 43.7838 44.5529 43.4739 45.0855Z" fill="black"/>
<path d="M43.8306 43.7183C46.1888 45.9296 48.7013 46.868 51.7413 47.7756C52.6422 48.0446 53.6531 48.2569 54.4973 48.6646C52.6758 48.639 51.5495 48.0467 49.5248 48.2546C47.1565 47.6402 45.3691 46.6037 43.4736 45.0855C43.7835 44.5528 43.8667 44.3458 43.8306 43.7183Z" fill="black"/>
<path d="M54.8198 46.5645C54.7909 46.4807 54.7333 46.3962 54.6915 46.3192C52.562 42.4245 51.3084 38.1393 52.5899 33.7642C52.3789 35.9706 53.4648 41.4224 54.2494 43.52C54.7439 44.8409 55.5184 46.2382 56.4034 47.3344C58.6309 50.0923 62.2384 50.5653 65.2798 51.9375C67.3075 52.8522 69.4773 54.1139 71.3281 55.3425C72.9243 56.4017 74.2528 57.9327 75.1508 59.6247C75.6693 60.6016 76.0873 61.5669 76.8882 62.3513L76.2334 62.7427C76.118 62.7466 75.996 62.7934 75.8879 62.7538C75.7447 62.7017 74.8188 61.1692 74.6824 60.9641C73.7185 59.5175 72.8219 58.2908 71.5458 57.1073C71.5016 57.127 71.4564 57.146 71.4122 57.1664C70.8741 57.4131 70.3292 57.1636 69.7925 57.0046C68.61 56.1854 67.4502 55.3527 66.1668 54.6972C63.7019 53.438 61.0425 52.5784 58.5526 51.3345C58.544 51.3133 58.5363 51.2918 58.5267 51.271C58.5113 51.2363 58.494 51.2026 58.4782 51.1682C58.0505 50.2439 57.0242 49.8115 56.7662 48.8154C56.0152 48.2492 55.3925 47.3129 54.8198 46.5645Z" fill="#B49D85"/>
<path d="M56.7666 48.8154C59.1901 50.6209 61.5162 51.2132 64.2198 52.4291C66.8533 53.6131 69.3009 55.3018 71.5462 57.1073C71.502 57.1269 71.4568 57.146 71.4126 57.1663C70.8745 57.4131 70.3296 57.1636 69.7929 57.0046C68.6104 56.1854 67.4506 55.3527 66.1672 54.6972C63.7023 53.438 61.0429 52.5784 58.553 51.3345C58.5444 51.3133 58.5367 51.2918 58.5271 51.2709C58.5117 51.2363 58.4944 51.2026 58.4786 51.1681C58.0509 50.2439 57.0246 49.8115 56.7666 48.8154Z" fill="black"/>
<path d="M49.2103 59.0618C50.8603 58.2113 52.5929 57.5325 54.3808 57.0358C58.5956 55.8972 64.2513 56.8942 67.9808 59.1009C69.3391 59.904 72.4526 62.6152 72.8399 64.1505L72.4882 64.2519C72.3527 64.5135 72.32 64.5492 72.4185 64.8306C72.5088 65.0869 72.7154 65.2732 72.9605 65.377C73.0878 65.4306 73.2214 65.4706 73.3535 65.5097C67.0756 71.2303 67.9962 77.1034 65.7749 84.6479L64.9821 84.5418C65.157 83.3949 65.7009 82.1849 65.9637 81.0275C66.4442 78.9124 66.7378 76.7308 67.14 74.5964C65.5395 74.706 64.0019 74.7065 62.4096 74.4835C58.2578 73.9019 54.88 71.7752 52.3642 68.4178C50.2275 65.5667 48.6962 62.7156 49.2103 59.0618Z" fill="black"/>
<path d="M49.888 59.7977C52.533 57.7008 57.0735 57.2645 60.335 57.6516C64.8732 58.1903 68.9059 60.1129 71.7301 63.785C72.0424 64.1914 72.3586 64.6577 72.2956 65.1968C72.2918 65.2301 72.2812 65.2625 72.274 65.2948C71.8118 65.6602 71.4087 66.0188 71.0214 66.4643C70.724 66.7032 70.4102 66.8924 70.2997 67.2752C69.3104 68.575 68.6156 70.134 67.8656 71.5825C65.1956 71.9435 62.8619 71.7162 60.323 70.7943L59.8623 71.3146C60.7257 71.6877 61.6059 72.0377 62.5313 72.2182C63.8099 72.4677 66.5501 72.1781 67.4404 72.9658L67.2645 73.2627C65.7779 73.9881 62.6663 73.4649 61.1024 73.0759C56.9453 72.0415 53.7448 69.0693 51.5869 65.4261C50.7495 64.0119 49.4714 61.4258 49.888 59.7977Z" fill="black"/>
<path d="M58.7083 61.6006C60.5288 61.95 62.2821 62.3135 63.9921 63.05C65.6685 63.7721 67.2556 65.5348 69.0487 65.6941C69.4369 66.1531 70.0659 66.7304 70.3004 67.2753C69.3111 68.5751 68.6163 70.1341 67.8663 71.5826C65.1962 71.9436 62.8625 71.7163 60.3237 70.7944C56.8056 69.177 54.0755 66.2149 52.7412 62.5664C52.7667 62.5336 52.7907 62.4993 52.8176 62.4679C53.6527 61.504 57.5004 61.6049 58.7083 61.6006Z" fill="#F57644"/>
<path d="M49.8877 59.7977C52.5327 57.7008 57.0733 57.2645 60.3348 57.6516C64.8729 58.1903 68.9056 60.1129 71.7299 63.785C72.0422 64.1914 72.3583 64.6577 72.2954 65.1968C72.2915 65.2301 72.281 65.2625 72.2738 65.2948C71.8115 65.6602 71.4084 66.0188 71.0211 66.4643C70.1486 66.0096 69.4505 64.4579 68.6985 63.7377C65.1415 60.334 59.9614 59.0341 55.1759 59.1302C54.002 59.3768 52.8229 59.609 51.6592 59.901C51.3469 59.9773 51.0423 60.1636 50.753 60.3055C50.3076 60.2427 50.2087 60.095 49.8877 59.7977Z" fill="url(#paint5_linear_3039_11482)"/>
<path d="M55.1768 59.1303C59.2306 58.012 63.2652 58.8895 66.8856 60.9644C67.7293 61.4476 68.5769 62.0321 69.3034 62.6803C70.2927 63.5631 70.9533 64.8875 72.2747 65.2949C71.8124 65.6603 71.4093 66.0189 71.022 66.4644C70.1495 66.0097 69.4514 64.458 68.6994 63.7378C65.1424 60.3341 59.9623 59.0343 55.1768 59.1303Z" fill="#CE9258"/>
<path d="M49.888 59.7979C50.2089 60.0952 50.3079 60.2429 50.7533 60.3056C51.0425 60.1637 51.3472 59.9774 51.6595 59.9011C51.2093 60.5909 51.2074 60.9398 51.3765 61.743C52.0424 64.9074 54.8576 68.4564 57.542 70.1882C58.1926 70.6077 59.1151 71.1174 59.8623 71.3148C60.7257 71.6879 61.6059 72.0378 62.5313 72.2183C63.8099 72.4678 66.5501 72.1782 67.4404 72.966L67.2645 73.2628C65.7779 73.9882 62.6663 73.465 61.1024 73.076C56.9452 72.0417 53.7448 69.0694 51.5869 65.4262C50.7495 64.012 49.4714 61.4259 49.888 59.7979Z" fill="#A25F23"/>
<path d="M54.0809 60.6068C58.5844 59.9084 62.8228 60.5614 66.5566 63.3208C67.4868 63.999 68.3243 64.7968 69.0479 65.6941C67.2547 65.5348 65.6677 63.7721 63.9913 63.0501C62.2813 62.3135 60.528 61.9501 58.7074 61.6006C57.4995 61.605 53.6518 61.5041 52.8168 62.468C52.7898 62.4993 52.7658 62.5336 52.7404 62.5664L52.2666 61.1083L54.0809 60.6068Z" fill="#D95E40"/>
<path d="M112.386 179.08C115.056 180.95 120.047 181.801 123.241 181.201C123.616 181.131 123.948 181.041 124.237 180.778L124.281 180.645C124.473 180.532 124.566 180.435 124.696 180.255C124.993 180.813 124.865 180.941 124.715 181.538L124.637 181.722C124.199 182.075 123.762 182.222 123.213 182.291C120.71 182.607 114.862 182.194 112.843 180.583C112.837 180.295 112.81 180.104 112.669 179.849C112.529 179.593 112.455 179.362 112.386 179.08Z" fill="url(#paint6_linear_3039_11482)"/>
<path d="M54.8193 46.5645C55.392 47.3128 56.0147 48.2492 56.7657 48.8154C57.0238 49.8115 58.0501 50.2439 58.4777 51.1681C58.4935 51.2025 58.5108 51.2363 58.5262 51.2709C58.5358 51.2918 58.5435 51.3133 58.5522 51.3345C57.498 51.0256 56.4722 50.4608 55.4108 50.1161C53.4591 49.4825 51.4151 49.0584 49.5244 48.2548C51.5492 48.0469 52.6754 48.6392 54.4969 48.6648L54.9 48.6421C54.9745 48.283 54.3845 47.5351 54.1788 47.172C54.5824 47.3906 54.9481 47.7081 55.3051 47.9964C55.1062 47.5224 54.95 47.0618 54.8193 46.5645Z" fill="black"/>
<path d="M142.53 136.984C142.997 136.817 143.305 136.709 143.808 136.827C143.775 137.63 141.974 140.091 141.328 140.678C141.227 140.769 141.102 140.826 140.981 140.886C140.916 140.427 140.877 139.965 140.832 139.503C141.472 138.972 142.354 137.781 142.53 136.984Z" fill="black"/>
<path d="M111.073 177.231C111.193 177.608 111.312 177.979 111.399 178.365C111.583 178.321 111.665 178.271 111.851 178.324L112.389 178.932L112.385 179.08C112.455 179.362 112.528 179.593 112.669 179.849C112.809 180.104 112.836 180.295 112.843 180.583C112.364 180.325 111.835 180.01 111.479 179.591C110.878 178.884 110.989 178.083 111.073 177.231Z" fill="black"/>
<defs>
<linearGradient id="paint0_linear_3039_11482" x1="155.274" y1="117.691" x2="147.45" y2="113.933" gradientUnits="userSpaceOnUse">
<stop stop-color="#ECDFB7"/>
<stop offset="1" stop-color="#E0CCBC"/>
</linearGradient>
<linearGradient id="paint1_linear_3039_11482" x1="97.9236" y1="76.647" x2="105.272" y2="83.3336" gradientUnits="userSpaceOnUse">
<stop stop-color="#100A08"/>
<stop offset="1" stop-color="#3A3B3D"/>
</linearGradient>
<linearGradient id="paint2_linear_3039_11482" x1="95.0108" y1="79.8034" x2="99.0926" y2="85.2" gradientUnits="userSpaceOnUse">
<stop stop-color="#121217"/>
<stop offset="1" stop-color="#312E2D"/>
</linearGradient>
<linearGradient id="paint3_linear_3039_11482" x1="74.8617" y1="77.0652" x2="77.2038" y2="86.4049" gradientUnits="userSpaceOnUse">
<stop stop-color="#0A0E15"/>
<stop offset="1" stop-color="#534239"/>
</linearGradient>
<linearGradient id="paint4_linear_3039_11482" x1="112.871" y1="147.424" x2="112.504" y2="142.808" gradientUnits="userSpaceOnUse">
<stop stop-color="#BDB355"/>
<stop offset="1" stop-color="#D6CF8A"/>
</linearGradient>
<linearGradient id="paint5_linear_3039_11482" x1="60.8102" y1="62.4712" x2="61.8953" y2="58.1273" gradientUnits="userSpaceOnUse">
<stop stop-color="#BB8462"/>
<stop offset="1" stop-color="#D4A974"/>
</linearGradient>
<linearGradient id="paint6_linear_3039_11482" x1="118.914" y1="182.229" x2="118.743" y2="180.074" gradientUnits="userSpaceOnUse">
<stop stop-color="#070B05" stop-opacity="0.980392"/>
<stop offset="1" stop-color="#001101"/>
</linearGradient>
</defs>
</svg>
