<svg width="200" height="200" viewBox="0 0 200 200" fill="none" xmlns="http://www.w3.org/2000/svg">
<path d="M73.242 160.186C69.7501 160.076 66.2597 159.951 62.7678 159.857C57.4672 159.714 52.1823 159.396 46.9287 158.651C46.6247 158.609 46.3149 158.603 46.0079 158.58C45.9366 158.513 45.9351 158.443 46.0022 158.37C46.1279 158.244 46.2835 158.179 46.4533 158.141C47.791 158.111 49.0958 158.417 50.4178 158.547C52.8289 158.783 55.2387 158.98 57.6599 159.104C62.1911 159.336 66.7236 159.401 71.2577 159.533C74.8152 159.636 78.3727 159.823 81.9303 159.956C82.6412 159.983 83.3465 160.103 84.0617 160.1C84.2958 160.099 84.5442 160.123 84.6813 160.371C84.4443 160.759 84.0146 160.499 83.7105 160.659C80.2158 160.557 76.731 160.321 73.242 160.186Z" fill="#2A2B2B"/>
<path d="M142.805 159.766C140.048 160.264 137.272 160.626 134.482 160.874C131.07 161.179 127.65 161.081 124.231 161.08C120.666 161.079 117.108 161.26 113.554 161.536C113.153 161.567 112.75 161.577 112.349 161.596C112.228 161.364 111.786 161.774 111.779 161.311C112.549 160.916 113.4 161.026 114.212 160.954C120.283 160.419 126.372 160.559 132.456 160.483C135.236 160.449 137.994 159.973 140.748 159.583C141.286 159.507 141.821 159.351 142.375 159.447C142.559 159.499 142.719 159.583 142.805 159.766Z" fill="#323333"/>
<path d="M77.9316 134.024C79.0723 133.692 80.2572 133.629 81.4249 133.477C84.4657 133.08 87.5236 132.929 90.5915 133.024C93.3681 133.11 96.1205 133.443 98.8743 133.794C102.096 134.206 105.32 134.567 108.582 134.532C111.897 134.496 115.214 134.41 118.528 134.613C118.714 134.624 118.913 134.599 119.058 134.764C119.063 134.866 119.026 134.969 118.932 134.992C117.744 135.266 116.554 135.422 115.352 135.074C115.324 134.749 115.577 134.846 115.734 134.839C116.034 134.824 116.337 134.827 116.635 134.814C114.482 135.03 112.325 134.929 110.169 134.987C105.927 135.102 101.732 134.624 97.5395 134.066C94.5973 133.673 91.6393 133.369 88.6699 133.433C85.9033 133.493 83.1266 133.567 80.3871 134.053C79.8032 134.093 79.2365 134.286 78.6426 134.243C78.3899 134.22 78.1187 134.26 77.9316 134.024Z" fill="#828687"/>
<path d="M83.7988 160.607C84.0572 160.314 84.4184 160.519 84.7153 160.417C85.4405 160.057 86.2114 160.207 86.9538 160.267C90.3614 160.547 93.7734 160.77 97.1753 161.112C99.5908 161.353 102.012 161.35 104.43 161.443C105.535 161.486 106.659 161.37 107.775 161.369C108.131 161.369 108.489 161.354 108.84 161.432C109.051 161.503 109.277 161.553 109.408 161.762C107.206 161.996 104.997 161.996 102.787 161.95C97.408 161.837 92.066 161.183 86.704 160.827C85.8046 160.767 84.9009 160.752 84.0001 160.714C83.9216 160.702 83.8459 160.68 83.7988 160.607Z" fill="#292A2A"/>
<path d="M46.2589 158.298C46.1847 158.434 46.0476 158.454 45.9148 158.481C45.6964 158.532 45.478 158.557 45.2624 158.464C38.9925 157.437 32.7839 156.188 27.065 153.247C25.6688 152.53 24.3426 151.691 23.2505 150.54C22.7637 150.027 22.284 149.498 22.1227 148.771C22.0499 148.611 22.0313 148.47 22.2526 148.418C22.3725 148.454 22.4653 148.531 22.521 148.638C23.5246 150.57 25.2363 151.718 27.0736 152.708C31.2664 154.968 35.8104 156.171 40.4415 157.104C42.1203 157.442 43.8034 157.754 45.5023 157.975C45.7849 158.012 46.0776 158.025 46.2589 158.298Z" fill="#282929"/>
<path d="M27.9796 143.16C30.1581 142.354 32.4194 141.816 34.6265 141.103C38.2768 139.923 41.9243 138.733 45.5746 137.549C45.7302 137.499 45.8958 137.481 46.0572 137.449C46.2128 137.401 46.3669 137.353 46.4383 137.57C46.3341 137.901 46.0229 137.939 45.7616 138.019C41.052 139.477 36.4281 141.204 31.6742 142.526C30.5364 142.841 29.4386 143.304 28.2566 143.467C28.1038 143.419 27.9325 143.387 27.9796 143.16Z" fill="#292A2B"/>
<path d="M115.33 135.019C116.576 135.001 117.837 135.179 119.056 134.761C122.692 134.993 126.33 135.219 129.949 135.664C130.44 135.724 130.938 135.736 131.432 135.77C131.764 135.926 132.144 135.72 132.474 135.9C132.505 135.94 132.541 135.944 132.58 135.911C133.002 136.094 133.478 135.827 133.894 136.063L133.877 136.059C133.939 136.129 133.937 136.196 133.873 136.263C133.753 136.381 133.606 136.446 133.443 136.483C132.321 136.541 131.228 136.263 130.116 136.186C128.791 136.094 127.482 135.843 126.153 135.776C125.149 135.629 124.133 135.696 123.123 135.551C121.075 135.257 119.008 135.394 116.948 135.387C115.955 135.384 114.969 135.599 113.972 135.527C113.204 135.519 112.438 135.549 111.673 135.607C111.293 135.414 110.779 135.691 110.468 135.264C110.568 135.03 110.786 134.981 110.995 134.986C112.332 135.011 113.667 134.873 115.005 134.906C115.123 134.911 115.233 134.946 115.33 135.019Z" fill="#262828"/>
<path d="M161.656 138.87C162.491 139.006 163.328 139.137 164.161 139.284C164.266 139.303 164.353 139.409 164.448 139.474C164.491 139.556 164.475 139.624 164.4 139.679C163.473 139.863 162.621 139.479 161.736 139.33C161.469 139.216 161.189 139.233 160.909 139.249C158.881 139.003 156.849 138.802 154.813 138.639C152.566 138.459 150.317 138.319 148.071 138.116C146.936 138.013 145.798 137.953 144.666 137.812C144.476 137.787 144.288 137.756 144.168 137.58C144.272 137.152 144.669 137.419 144.893 137.276C145.132 137.266 145.373 137.204 145.604 137.319C147.002 137.593 148.426 137.606 149.838 137.716C153.384 137.992 156.938 138.183 160.465 138.662C160.605 138.68 160.741 138.72 160.879 138.75C161.118 138.917 161.408 138.762 161.656 138.87Z" fill="#2B2C2D"/>
<path d="M164.443 139.627C164.445 139.576 164.446 139.526 164.449 139.474C164.707 139.434 164.963 139.414 165.224 139.473C168.519 140.213 171.754 141.129 174.751 142.733C175.99 143.396 177.18 144.136 178.071 145.259C178.305 145.554 178.548 145.852 178.599 146.247C178.634 146.393 178.701 146.546 178.507 146.636C178.377 146.629 178.275 146.559 178.221 146.453C177.176 144.367 175.18 143.462 173.242 142.542C170.619 141.299 167.835 140.516 164.992 139.952C164.782 139.909 164.489 139.963 164.443 139.627Z" fill="#292A2A"/>
<path d="M46.4017 137.61C46.3231 137.479 46.1875 137.469 46.0576 137.449C48.0677 136.792 50.1391 136.417 52.2334 136.189C53.9978 135.996 55.7709 135.879 57.5397 135.727C57.8323 135.62 58.1521 135.757 58.4419 135.629C58.6161 135.622 58.7903 135.614 58.9658 135.607C59.327 135.479 59.6996 135.566 60.0679 135.552C60.402 135.723 60.8403 135.427 61.1329 135.786C61.043 136.08 60.7832 136.086 60.5533 136.094C58.3249 136.18 56.1078 136.41 53.8822 136.552C51.7223 136.689 49.5995 137.096 47.4923 137.589C47.1369 137.673 46.77 137.88 46.4017 137.61Z" fill="#2F3030"/>
<path d="M61.1333 135.771C60.8007 135.653 60.4124 135.896 60.1055 135.613C61.4859 135.294 62.9021 135.327 64.3011 135.201C66.8408 135.096 69.3591 134.733 71.8916 134.547C73.0722 134.46 74.2471 134.263 75.4377 134.316C75.6762 134.296 75.9431 134.114 76.1258 134.43C75.9902 134.797 75.6676 134.784 75.3621 134.808C74.6426 134.848 73.9145 134.717 73.2021 134.911C69.6203 135.308 66.0271 135.593 62.4396 135.934C61.9984 135.977 61.5359 136.077 61.1333 135.771Z" fill="#191A1A"/>
<path d="M76.0928 134.485C75.92 134.25 75.6588 134.36 75.4375 134.315C76.2541 134.095 77.1049 134.16 77.9315 134.023C78.7524 133.975 79.5718 133.93 80.3927 133.883C80.8024 133.747 81.2392 133.907 81.6489 133.773C82.1586 133.725 82.6811 133.821 83.1764 133.624C85.265 133.507 87.355 133.538 89.4435 133.533C90.5128 133.53 91.5721 133.708 92.6428 133.71C92.9711 133.71 93.3052 133.78 93.595 133.97C93.6763 134.038 93.6863 134.117 93.6264 134.205C93.2195 134.504 92.7456 134.414 92.3173 134.348C91.7719 134.264 91.2309 134.243 90.687 134.255C89.1666 134.29 87.6562 134.041 86.1358 134.101C85.7804 134.115 85.422 134.074 85.0766 134.197C83.8331 134.308 82.584 134.254 81.3349 134.355C79.883 134.473 78.4212 134.501 76.9693 134.65C76.6652 134.681 76.3497 134.724 76.0928 134.485Z" fill="#1E2020"/>
<path d="M178.443 146.603C178.572 146.518 178.583 146.381 178.598 146.247C179.002 147.18 178.718 148.014 178.188 148.786C177.587 149.66 176.762 150.301 175.892 150.891C173.864 152.27 171.634 153.27 169.44 154.336C169.258 154.45 169.051 154.507 168.856 154.589C168.766 154.624 168.675 154.66 168.585 154.696C168.473 154.603 168.368 154.507 168.413 154.339C168.903 153.861 169.568 153.714 170.159 153.434C172.279 152.431 174.399 151.433 176.278 149.997C177.339 149.186 178.276 148.308 178.299 146.837C178.302 146.741 178.366 146.664 178.443 146.603Z" fill="#2B2C2C"/>
<path d="M167.606 155.031C165.136 156.113 162.543 156.794 159.909 157.316C158.196 157.654 156.463 157.894 154.739 158.178C154.559 158.271 154.37 158.228 154.183 158.217C154.048 158.156 153.869 158.141 153.859 157.936C153.982 157.714 154.205 157.711 154.415 157.686C158.659 157.147 162.843 156.351 166.862 154.83C166.973 154.788 167.092 154.771 167.212 154.778C167.381 154.804 167.519 154.878 167.606 155.031Z" fill="#2B2C2D"/>
<path d="M153.829 157.993C153.956 158.027 154.096 158.039 154.172 158.173C154.076 158.256 153.946 158.237 153.84 158.293L153.789 158.27L153.743 158.305C153.411 158.485 153.031 158.287 152.695 158.436C149.616 158.733 146.567 159.243 143.508 159.687C143.275 159.722 143.041 159.742 142.807 159.769C142.684 159.729 142.541 159.726 142.467 159.592C142.677 159.269 143.029 159.266 143.35 159.212C146.537 158.682 149.743 158.295 152.942 157.853C153.247 157.81 153.561 157.776 153.829 157.993Z" fill="#222323"/>
<path d="M144.892 137.33C144.677 137.57 144.375 137.414 144.126 137.497C143.787 137.754 143.402 137.681 143.031 137.636C140.138 137.277 137.243 136.958 134.342 136.677C134.06 136.65 133.763 136.647 133.617 136.333C133.69 136.203 133.82 136.184 133.948 136.163C134.218 136.091 134.488 136.087 134.756 136.166C137.502 136.463 140.247 136.76 142.992 137.057C143.617 137.191 144.293 137.001 144.892 137.33Z" fill="#242526"/>
<path d="M22.2745 148.459C22.1517 148.529 22.1474 148.655 22.1232 148.772C21.6706 147.669 22.0061 146.73 22.7756 145.92C23.8605 144.777 25.2467 144.129 26.7072 143.617C26.8199 143.676 27.0084 143.623 27.0212 143.83C26.9056 144.109 26.6272 144.147 26.3974 144.259C25.5023 144.695 24.5829 145.083 23.7835 145.696C23.014 146.286 22.4701 146.993 22.4487 148.01C22.4458 148.177 22.4215 148.345 22.2745 148.459Z" fill="#363737"/>
<path d="M83.7982 160.607C83.8653 160.643 83.9324 160.68 83.9995 160.716C82.1265 160.766 80.2635 160.546 78.3977 160.484C76.9287 160.436 75.4625 160.303 73.9921 160.306C73.7409 160.306 73.4639 160.392 73.2412 160.186C76.5061 160.22 79.7639 160.427 83.0216 160.6C83.28 160.613 83.5398 160.606 83.7982 160.607Z" fill="#EFFAFE"/>
<path d="M109.408 161.763C109.238 161.72 109.034 161.768 108.921 161.578C109.827 160.993 110.775 161.173 111.728 161.422C111.932 161.492 112.186 161.383 112.349 161.598C111.376 161.775 110.391 161.752 109.408 161.763Z" fill="#252626"/>
<path d="M64.3012 135.202C62.9021 135.339 61.5031 135.476 60.1055 135.613C59.7258 135.612 59.346 135.609 58.9648 135.607C59.5759 135.273 60.2625 135.454 60.9049 135.379C62.0242 135.244 63.1605 135.069 64.3012 135.202Z" fill="#EFFAFE"/>
<path d="M167.605 155.031C167.488 155.016 167.371 155 167.303 154.884C167.524 154.364 167.948 154.348 168.415 154.44C168.529 154.487 168.576 154.58 168.586 154.697C168.259 154.808 167.932 154.92 167.605 155.031Z" fill="#232424"/>
<path d="M144.892 137.33C144.258 137.238 143.624 137.147 142.99 137.057C143.875 136.998 144.748 137.081 145.603 137.32C145.366 137.321 145.129 137.325 144.892 137.33Z" fill="#EFFAFE"/>
<path d="M27.0392 143.776C26.9164 143.75 26.7837 143.743 26.708 143.619C26.9507 143.421 27.2405 143.35 27.5417 143.311C27.7002 143.223 27.8258 143.231 27.8872 143.429C27.703 143.786 27.4104 143.88 27.0392 143.776Z" fill="#292A2B"/>
<path d="M133.894 136.063C133.45 136.063 133.007 136.043 132.579 135.911C133.017 135.953 133.487 135.736 133.894 136.063Z" fill="#EFFAFE"/>
<path d="M152.694 158.433C153.031 158.294 153.387 158.3 153.742 158.301C153.422 158.583 153.047 158.416 152.694 158.433Z" fill="#EFFAFE"/>
<path d="M132.474 135.901C132.12 135.914 131.769 135.901 131.432 135.771C131.781 135.793 132.155 135.623 132.474 135.901Z" fill="#EFFAFE"/>
<path d="M27.8455 143.474C27.787 143.338 27.66 143.331 27.54 143.313C27.6614 143.19 27.8127 143.153 27.9797 143.161C28.044 143.298 28.1739 143.313 28.3009 143.334C28.2224 143.618 28.0468 143.587 27.8455 143.474Z" fill="#363737"/>
<path d="M134.755 136.164C134.485 136.163 134.215 136.162 133.947 136.162C133.914 136.134 133.891 136.1 133.877 136.06C134.174 136.063 134.484 135.943 134.755 136.164Z" fill="#EFFAFE"/>
<path d="M153.839 158.292C153.949 158.252 154.06 158.212 154.17 158.172C154.36 158.175 154.548 158.176 154.738 158.179C154.464 158.416 154.143 158.283 153.839 158.292Z" fill="#EFFAFE"/>
<path d="M58.4403 135.628C58.1491 135.747 57.8436 135.743 57.5381 135.727C57.8193 135.516 58.1377 135.634 58.4403 135.628Z" fill="#EFFAFE"/>
<path d="M161.656 138.87C161.391 138.874 161.107 138.99 160.88 138.75C161.147 138.736 161.414 138.727 161.656 138.87Z" fill="#414242"/>
<path d="M45.2627 158.465C45.4797 158.47 45.6981 158.476 45.9151 158.482C45.9465 158.513 45.9779 158.546 46.0079 158.58C45.7538 158.576 45.4825 158.683 45.2627 158.465Z" fill="#EFFAFE"/>
<path d="M168.857 154.59C169.036 154.47 169.216 154.349 169.441 154.337C169.316 154.58 169.102 154.619 168.857 154.59Z" fill="#EFFAFE"/>
<path d="M27.846 143.475C28.0187 143.497 28.1715 143.455 28.3 143.333C32.7483 142.065 37.161 140.68 41.5394 139.186C43.1511 138.636 44.78 138.135 46.4003 137.61C48.6688 137.107 50.9358 136.583 53.2584 136.395C55.6011 136.205 57.9481 136.056 60.2922 135.887C60.5734 135.867 60.8646 135.902 61.1316 135.772C64.7006 135.572 68.2524 135.177 71.8114 134.85C72.2825 134.807 72.755 134.773 73.2261 134.735C73.426 134.689 73.6315 134.607 73.8243 134.82C73.6458 135.136 73.3118 135.137 73.0305 135.219C70.7664 135.877 68.4266 136.135 66.1067 136.496C63.6927 136.872 61.2886 137.309 58.8803 137.716C56.6989 138.085 54.5361 138.509 52.4476 139.252C50.9814 139.773 49.6352 140.527 48.4261 141.509C47.9207 141.92 47.5781 142.469 47.3068 143.055C46.92 143.886 47.1084 144.632 47.7109 145.283C48.5274 146.166 49.6038 146.635 50.6988 147.03C53.5682 148.069 56.5605 148.6 59.5541 149.13C62.662 149.679 65.7984 150.012 68.9305 150.353C70.4794 150.522 72.0469 150.615 73.6087 150.71C77.88 150.972 82.1556 150.903 86.427 151.015C88.5569 151.07 90.6969 151.043 92.824 151.262C95.3922 151.525 97.9619 151.773 100.529 152.06C103.831 152.43 107.147 152.519 110.478 152.303C112.822 152.152 115.147 151.835 117.487 151.656C119.567 151.497 121.65 151.387 123.728 151.226C125.252 151.107 126.768 151.193 128.284 151.112C130.958 150.969 133.629 150.839 136.29 150.469C139.006 150.092 141.666 149.503 144.261 148.653C146.176 148.026 148.09 147.357 149.722 146.1C151.112 145.027 151.194 143.783 149.927 142.57C149.336 142.005 148.64 141.595 147.895 141.273C143.7 139.467 139.276 138.5 134.815 137.64C132.16 137.127 129.462 136.852 126.842 136.156C126.596 136.09 126.309 136.105 126.151 135.845C126.125 135.759 126.14 135.682 126.192 135.61C128.348 135.719 130.481 136.049 132.627 136.26C132.956 136.293 133.286 136.309 133.616 136.332C135.683 136.573 137.75 136.823 139.819 137.055C141.252 137.215 142.69 137.35 144.124 137.497C146.143 137.807 148.18 137.927 150.213 138.077C153.81 138.342 157.408 138.599 160.988 139.055C161.222 139.187 161.501 139.037 161.735 139.169C162.637 139.322 163.539 139.475 164.442 139.627C167.103 140.217 169.747 140.869 172.275 141.92C173.504 142.432 174.705 143 175.824 143.727C176.947 144.457 177.984 145.269 178.443 146.603C178.616 147.977 177.854 148.902 176.909 149.716C175.421 150.999 173.692 151.902 171.945 152.766C170.777 153.343 169.591 153.883 168.413 154.44C168.042 154.589 167.672 154.736 167.301 154.885C163.665 156.24 159.915 157.133 156.075 157.657C155.324 157.76 154.576 157.88 153.828 157.992C151.378 158.199 148.957 158.612 146.524 158.947C145.166 159.135 143.817 159.373 142.464 159.589C140.582 159.832 138.699 160.066 136.819 160.319C133.61 160.75 130.382 160.819 127.153 160.775C122.114 160.705 117.087 160.907 112.069 161.342C111.954 161.352 111.841 161.395 111.727 161.422C110.789 161.44 109.849 161.425 108.92 161.577C106.614 161.59 104.312 161.697 102.003 161.616C98.2931 161.485 94.6042 161.079 90.9053 160.816C88.8439 160.669 86.7882 160.402 84.7153 160.419C82.7824 160.156 80.8308 160.146 78.8879 160.072C73.2632 159.856 67.6371 159.7 62.011 159.525C57.0958 159.37 52.1935 159.066 47.3183 158.395C46.9671 158.346 46.6116 158.332 46.2576 158.3C43.0255 157.799 39.7977 157.28 36.6299 156.449C32.4442 155.35 28.3499 154.022 24.7695 151.48C23.6717 150.7 22.7309 149.777 22.2727 148.46C22.1057 147.217 22.6867 146.335 23.6161 145.6C24.6482 144.785 25.8702 144.335 27.0365 143.776C27.3078 143.676 27.5776 143.575 27.846 143.475Z" fill="#EFFAFE"/>
<path d="M81.6383 133.87C81.2229 133.874 80.8075 133.88 80.3906 133.884C82.3564 133.577 84.3336 133.409 86.3208 133.291C89.5572 133.1 92.7735 133.313 95.9856 133.651C98.0113 133.864 100.027 134.166 102.051 134.391C104.914 134.71 107.779 134.81 110.655 134.771C112.838 134.741 115.022 134.766 117.207 134.807C116.59 134.989 115.936 134.77 115.329 135.02C113.703 135.119 112.072 135.106 110.453 135.306C109.935 135.72 109.324 135.446 108.761 135.53C107.025 135.59 105.293 135.456 103.56 135.403C101.056 135.101 98.5438 134.861 96.047 134.491C95.7814 134.41 95.5088 134.366 95.229 134.374C95.0719 134.37 94.9149 134.354 94.7621 134.317C94.4052 134.159 93.9655 134.35 93.6429 134.053C90.1353 133.674 86.6177 133.659 83.0973 133.779C82.6177 133.91 82.1194 133.746 81.6383 133.87Z" fill="#EDF8FC"/>
<path d="M126.159 135.799C129.003 136.564 131.934 136.87 134.818 137.433C139.226 138.294 143.616 139.206 147.76 141.009C148.724 141.427 149.65 141.914 150.373 142.706C151.285 143.704 151.285 144.75 150.366 145.753C149.576 146.613 148.568 147.152 147.519 147.613C143.724 149.279 139.742 150.237 135.644 150.764C132.409 151.18 129.156 151.274 125.9 151.344C121.451 151.44 117.024 151.856 112.605 152.339C108.352 152.803 104.105 152.729 99.8676 152.176C93.5819 151.356 87.262 151.234 80.935 151.166C72.004 151.07 63.1415 150.254 54.4047 148.319C52.5503 147.909 50.7101 147.416 49.0184 146.502C46.3588 145.064 46.1647 143.113 48.5088 141.204C50.7115 139.41 53.3383 138.594 56.0578 138.047C60.5976 137.133 65.1701 136.402 69.7527 135.733C71.0946 135.537 72.3851 135.136 73.7856 134.823C73.5458 134.786 73.3859 134.76 73.226 134.736C73.9298 134.487 74.6564 134.63 75.3745 134.612C75.3317 135.03 74.9834 134.854 74.7664 134.912C74.4937 134.983 74.2182 135.056 74.0283 135.062C77.7543 134.353 81.6259 134.254 85.4932 134.109C85.5903 134.143 85.5104 133.977 85.5089 134.073C85.5089 134.103 85.4918 134.122 85.459 134.116C85.3248 134.094 85.1692 134.154 85.0664 134.012C86.0757 133.792 87.0978 133.887 88.1129 133.923C89.9602 133.987 91.8046 134.097 93.6505 134.189C93.6876 134.189 93.7247 134.187 93.7618 134.187C94.0645 134.196 94.3671 134.16 94.6683 134.222C95.966 134.439 97.2723 134.573 98.5742 134.756C100.062 134.964 101.559 135.087 103.048 135.287C103.025 135.81 102.543 135.596 102.295 135.76C100.533 135.703 98.7969 135.413 97.0538 135.184C93.2764 134.689 89.4819 134.419 85.6774 134.567C82.2598 134.7 78.8535 135.046 75.4559 135.452C73.5658 135.677 71.6828 135.922 69.8198 136.307C69.4614 136.264 69.1031 136.19 68.7477 136.334C64.7147 137.012 60.6704 137.617 56.656 138.417C54.2791 138.89 51.9992 139.576 49.8978 140.803C49.1483 141.24 48.5031 141.799 47.9477 142.456C47.1597 143.387 47.2139 144.312 48.0634 145.187C48.6044 145.746 49.2625 146.109 49.9692 146.413C52.9486 147.692 56.1178 148.257 59.2785 148.81C63.1901 149.493 67.1359 149.962 71.0975 150.264C74.5094 150.526 77.9256 150.69 81.3504 150.686C84.3412 150.682 87.3334 150.772 90.3228 150.853C93.6947 150.946 97.051 151.354 100.402 151.756C102.48 152.006 104.57 152.2 106.654 152.184C109.43 152.163 112.202 151.933 114.967 151.617C117.844 151.287 120.73 151.052 123.631 150.943C129.063 150.74 134.525 150.809 139.871 149.556C142.774 148.876 145.627 148.064 148.288 146.679C148.862 146.38 149.399 146.037 149.847 145.564C150.812 144.549 150.74 143.499 149.62 142.646C148.588 141.86 147.428 141.304 146.223 140.854C142.892 139.613 139.447 138.777 135.96 138.122C134.278 137.806 132.596 137.48 130.909 137.189C130.461 137.03 129.99 137.13 129.531 137.079C126.287 136.436 123.016 136.062 119.707 135.966C117.545 135.903 115.385 135.936 113.231 136.009C110.976 136.086 108.721 136.116 106.466 136.114C106.112 136.114 105.686 136.227 105.471 135.777C106.036 135.38 106.699 135.53 107.315 135.486C108.233 135.42 109.158 135.494 110.078 135.453C110.298 135.382 110.525 135.407 110.75 135.4C110.974 135.427 111.194 135.499 111.425 135.466C111.487 135.459 111.547 135.444 111.607 135.424C112.388 135.386 113.166 135.269 113.949 135.354C115.298 135.51 116.646 135.312 117.995 135.314C120.251 135.319 122.495 135.403 124.729 135.724C124.996 135.763 125.247 135.686 125.506 135.664C125.74 135.643 125.978 135.574 126.159 135.799Z" fill="#6D797E"/>
<path d="M126.16 135.799C122.314 135.797 118.484 135.252 114.631 135.475C114.405 135.487 114.152 135.52 113.948 135.353C116.999 135.217 120.054 135.046 123.099 135.36C124.13 135.467 125.169 135.432 126.193 135.609C126.181 135.673 126.171 135.736 126.16 135.799Z" fill="#C6D7DD"/>
<path d="M110.943 135.491C110.699 135.488 110.455 135.487 110.21 135.484C109.731 135.493 109.227 135.738 108.787 135.343C109.342 135.33 109.898 135.317 110.453 135.304C110.829 135.43 111.238 135.218 111.605 135.424L111.595 135.464L111.629 135.488C111.401 135.567 111.171 135.564 110.943 135.491Z" fill="#0D0E0E"/>
<path d="M161.735 139.168C161.477 139.191 161.23 139.147 160.988 139.054C161.245 139.043 161.514 138.948 161.735 139.168Z" fill="#414242"/>
<path d="M85.0659 134.012C85.3457 134.04 85.6241 134.067 85.9039 134.096C81.7496 134.27 77.6196 134.689 73.4854 135.109C74.1149 134.943 74.7459 134.777 75.3755 134.61C75.6139 134.569 75.8537 134.527 76.0921 134.486C79.0815 134.283 82.0694 134.067 85.0659 134.012Z" fill="#D2E5EC"/>
<path d="M81.6387 133.87C82.1141 133.669 82.6066 133.747 83.0977 133.777C82.6194 133.93 82.1298 133.916 81.6387 133.87Z" fill="#828687"/>
<path d="M93.643 134.051C94.0385 134.02 94.4325 133.994 94.8065 134.17C94.7151 134.283 94.5881 134.247 94.4696 134.256C94.1941 134.223 93.9071 134.33 93.6416 134.183L93.6502 134.19C93.6516 134.143 93.6487 134.097 93.643 134.051Z" fill="#6D797E"/>
<path d="M108.787 135.343C109.238 135.626 109.739 135.4 110.21 135.485C109.986 135.673 109.716 135.603 109.465 135.599C108.129 135.577 106.798 135.67 105.468 135.779C104.407 136.147 103.376 136.009 102.361 135.592C102.541 135.369 102.875 135.586 103.051 135.35C103.155 135.177 103.373 135.327 103.492 135.195C105.258 135.245 107.022 135.293 108.787 135.343Z" fill="#474E51"/>
<path d="M103.493 135.194C103.386 135.361 103.204 135.31 103.052 135.35C100.602 135.21 98.1813 134.828 95.7544 134.497C95.3347 134.44 94.9007 134.49 94.501 134.306C94.501 134.278 94.501 134.251 94.501 134.223C94.6023 134.206 94.7051 134.187 94.8065 134.17C94.9421 134.183 95.0763 134.196 95.2119 134.208C95.4489 134.327 95.7159 134.198 95.9543 134.304C98.4668 134.6 100.979 134.897 103.493 135.194Z" fill="#232627"/>
<path d="M95.9533 134.303C95.6949 134.353 95.4436 134.35 95.2109 134.207C95.4679 134.167 95.722 134.153 95.9533 134.303Z" fill="#6D797E"/>
<path d="M130.907 137.023C136.645 138.002 142.385 138.965 147.774 141.312C148.539 141.645 149.266 142.057 149.897 142.607C151.03 143.595 151.068 144.69 149.99 145.73C148.795 146.882 147.27 147.462 145.758 148.032C141.683 149.57 137.451 150.399 133.116 150.742C129.535 151.024 125.945 151.014 122.36 151.189C119.582 151.323 116.817 151.607 114.053 151.916C109.886 152.382 105.72 152.533 101.536 152.067C96.5765 151.514 91.6171 150.98 86.612 150.979C82.6918 150.977 78.766 150.909 74.8529 150.702C67.371 150.306 59.939 149.479 52.6668 147.576C51.2864 147.215 49.933 146.747 48.7124 145.986C46.8037 144.793 46.6453 143.37 48.2556 141.813C49.913 140.21 51.993 139.38 54.1615 138.799C57.652 137.863 61.2352 137.374 64.7956 136.782C66.1304 136.56 67.4695 136.362 68.8071 136.153C69.1012 136.549 68.6801 136.59 68.5073 136.669C68.0091 136.896 67.5194 137.129 67.0626 137.436C65.615 138.413 65.6807 139.659 67.2182 140.52C68.3075 141.13 69.4824 141.525 70.6773 141.827C73.2098 142.47 75.8009 142.736 78.3962 143.017C80.8745 143.286 83.3656 143.283 85.8411 143.54C86.148 143.572 86.4592 143.556 86.7676 143.555C89.6413 143.546 92.4936 143.819 95.3517 144.085C97.8057 144.313 100.244 144.679 102.704 144.862C103.931 144.953 105.165 145.177 106.388 145.1C108.561 144.963 110.74 144.95 112.907 144.615C116.56 144.05 120.212 143.459 123.883 143.022C126.098 142.759 128.309 142.512 130.482 141.995C131.297 141.8 132.083 141.529 132.812 141.127C134.081 140.427 134.128 139.353 132.96 138.506C132.398 138.099 131.744 137.859 131.153 137.507C130.988 137.412 130.633 137.357 130.907 137.023Z" fill="#E3F7FE"/>
<path d="M102.363 135.592C103.399 135.644 104.427 135.833 105.469 135.779C105.9 135.963 106.357 135.889 106.803 135.897C110.433 135.959 114.056 135.673 117.684 135.686C120.766 135.697 123.842 135.903 126.893 136.393C127.804 136.539 128.73 136.597 129.61 136.91C130.877 137.126 131.968 137.76 133.016 138.439C134.225 139.222 134.188 140.319 132.983 141.094C131.924 141.777 130.709 142.029 129.504 142.299C127.35 142.782 125.147 142.942 122.967 143.244C119.941 143.664 116.92 144.114 113.899 144.572C112.006 144.859 110.095 145.032 108.173 145.123C104.717 145.287 101.321 144.8 97.9073 144.42C94.7052 144.064 91.4988 143.766 88.2725 143.659C84.8863 143.547 81.5015 143.423 78.1252 143.069C75.34 142.777 72.5705 142.45 69.8709 141.682C68.9087 141.407 67.9851 141.03 67.1185 140.53C65.5853 139.646 65.5453 138.312 67.04 137.376C67.8594 136.863 68.6931 136.353 69.6696 136.172C72.4291 135.41 75.2815 135.274 78.1024 134.95C81.904 134.514 85.7214 134.239 89.553 134.356C92.4724 134.444 95.3762 134.737 98.2699 135.133C99.6275 135.319 100.997 135.44 102.363 135.592Z" fill="#DAF4FE"/>
<path d="M69.6665 136.171C68.8656 136.623 67.9662 136.877 67.2039 137.411C66.8299 137.673 66.4687 137.946 66.236 138.338C65.8663 138.961 66.0476 139.634 66.7514 140.131C68.0319 141.038 69.4938 141.531 71.0056 141.873C74.3875 142.636 77.818 143.008 81.277 143.198C83.2186 143.306 85.1601 143.401 87.103 143.488C90.4864 143.64 93.8669 143.833 97.2346 144.26C101.019 144.74 104.815 145.23 108.648 145.003C110.54 144.89 112.42 144.673 114.294 144.376C116.773 143.981 119.264 143.674 121.745 143.3C124.901 142.823 128.11 142.67 131.195 141.754C131.909 141.543 132.58 141.247 133.178 140.81C133.955 140.243 134.012 139.494 133.31 138.821C132.447 137.997 131.332 137.62 130.256 137.184C130.039 137.096 129.825 137.001 129.609 136.91C130.043 136.934 130.493 136.781 130.909 137.023C130.9 137.351 131.208 137.311 131.38 137.398C132.058 137.743 132.766 138.031 133.343 138.544C134.329 139.42 134.28 140.407 133.183 141.133C131.844 142.018 130.289 142.326 128.75 142.586C124.734 143.264 120.67 143.597 116.654 144.288C113.432 144.843 110.18 145.237 106.902 145.3C104.761 145.341 102.638 145.088 100.518 144.86C98.3752 144.628 96.2339 144.388 94.0896 144.16C90.425 143.768 86.7418 143.826 83.0729 143.593C78.9372 143.331 74.7958 143.064 70.7515 142.054C69.5294 141.75 68.3331 141.357 67.2196 140.75C66.9255 140.588 66.6557 140.401 66.4144 140.167C65.5736 139.353 65.5736 138.423 66.4573 137.651C66.9955 137.181 67.6136 136.828 68.2803 136.553C68.473 136.473 68.7957 136.497 68.8071 136.153C69.0955 136.006 69.3838 135.958 69.6665 136.171Z" fill="#97ACB5"/>
<path d="M94.5015 134.222C94.5029 134.249 94.5029 134.277 94.5015 134.304C94.2117 134.286 93.899 134.427 93.6406 134.182C93.9276 134.196 94.2145 134.209 94.5015 134.222Z" fill="#191C1C"/>
<path d="M110.942 135.491C111.171 135.49 111.399 135.49 111.629 135.489C111.401 135.616 111.172 135.624 110.942 135.491Z" fill="#EDF8FC"/>
</svg>
