<svg width="200" height="200" viewBox="0 0 200 200" fill="none" xmlns="http://www.w3.org/2000/svg">
<path d="M115.309 28.562C115.732 28.1478 116.201 27.7524 116.728 27.4784C117.814 26.914 118.843 26.8678 120.004 27.2409C123.32 28.3061 124.658 32.6476 124.781 35.8167C124.826 36.9806 124.461 38.7302 124.988 39.7742C125.3 40.0895 125.564 40.2605 126.022 40.2698C126.69 40.2834 127.74 39.9109 128.2 39.4212C128.816 38.766 129.527 34.2983 129.496 33.2925C129.973 32.3923 130.222 32.0223 131.219 31.7169C132.133 31.4374 133.231 31.434 134.101 31.8808C134.35 32.0094 134.647 32.2099 134.826 32.4253C135.206 32.8195 135.347 33.3843 135.524 33.8905L135.475 34.214C135.918 34.6403 135.972 35.0898 135.988 35.6733C136.021 36.8021 135.807 38.4151 135.023 39.2911C135.082 39.8298 134.989 39.932 134.667 40.3737C134.414 40.7216 134.303 41.1317 134.067 41.4903C133.416 42.4787 132.508 43.301 131.578 44.0233C127.817 46.9453 123.163 47.9519 118.822 49.6126C117.334 50.1817 115.942 51.0154 114.501 51.6949C109.283 54.1555 103.054 57.0766 100.589 62.7209C101.058 63.0517 101.523 63.4099 102.011 63.7097C106.335 58.7567 111.376 55.3477 118.126 54.9119C120.064 54.7868 124.435 55.2614 125.831 56.5768C126.17 56.8963 126.204 57.5417 126.191 57.9841C126.148 59.4525 124.802 64.565 123.79 65.4493C123.726 65.5049 123.658 65.5547 123.592 65.6069C123.081 66.2253 122.607 66.8766 121.895 67.2731C121.705 67.2431 121.562 67.2184 121.392 67.1251C121.124 67.7904 119.891 69.2177 119.219 69.4522C119.183 69.4643 119.145 69.4681 119.108 69.4764C119.217 70.2795 118.389 70.8413 118.222 71.6202C116.688 72.5345 115.351 73.2249 113.574 73.5817C112.712 73.7548 109.25 73.6954 108.873 74.0899C109.097 74.9795 109.551 75.7701 109.823 76.6423C111.291 81.3395 113.297 88.7911 110.584 93.2683C107.562 98.2575 101.088 101.155 95.8733 103.144C95.838 104.623 95.7419 106.132 95.8462 107.607C96.2396 107.987 97.0407 107.899 97.5833 107.965C101.149 108.403 101.3 113.05 101.379 115.77C102.461 115.826 103.448 116.062 104.51 116.199C107.815 116.535 111.065 116.578 114.354 116.047C118.38 115.397 126.985 112.332 130.593 113.156C133.484 113.009 136.295 113.877 138.84 115.148C138.931 115.133 139.037 115.157 139.112 115.104C139.587 114.775 140.609 112.531 142.11 111.52C144.039 110.219 147.107 109.931 148.525 107.985C148.925 107.436 149.163 106.769 149.058 106.092C149.3 105.658 149.328 105.284 149.32 104.796C149.294 103.246 148.55 101.656 147.434 100.596C148.152 100.622 148.893 100.633 149.587 100.836C151.201 101.304 152.928 102.472 153.75 103.963C154.074 104.549 154.325 105.103 154.137 105.78C154.638 106.328 154.802 106.928 154.738 107.657C154.733 107.708 154.724 107.76 154.717 107.811L155.113 108.094L155.661 107.665C155.882 107.709 155.967 107.678 156.088 107.874C156.603 108.714 156.19 110.56 155.929 111.435C155.728 112.093 155.471 112.733 155.161 113.348C155.504 113.948 155.885 113.72 155.635 114.664C155.049 116.874 153.251 118.639 151.304 119.717C149.097 120.937 146.81 121.236 144.325 121.221C145.737 122.61 146.033 125.951 146.053 127.859C146.084 130.809 144.765 135.329 143.259 137.82C142.801 138.578 142.095 139.169 141.623 139.919C141.061 140.813 140.701 141.934 139.946 142.685C139.87 142.761 139.862 142.763 139.772 142.838C140.582 142.901 141.652 142.87 142.212 143.551C142.861 144.34 142.832 145.53 142.685 146.481C142.429 148.132 141.97 149.783 141.901 151.458C141.826 153.323 143.446 156.724 142.098 158.196C142.805 158.933 145.323 161.655 145.574 162.428C145.274 163.082 144.452 163.527 143.821 163.824C144.849 164.669 145.699 166.17 145.841 167.493C145.932 168.372 145.645 169.248 145.05 169.902C144.829 170.142 144.581 170.308 144.276 170.419L144.124 170.243L143.731 170.257L143.444 169.92C142.868 170.768 141.31 171.622 140.34 171.971L140.871 172.048L140.937 172.216L140.628 172.732C139.268 173.665 137.467 174.348 135.911 174.883C135.449 174.811 135.118 174.676 134.685 174.875C133.969 176.287 134.707 178.127 133.597 179.896C133.333 180.427 132.733 180.839 132.181 181.031C129.1 182.104 123.984 181.608 121.077 180.187C121.218 179.933 121.213 179.898 121.476 179.786C121.964 179.927 122.38 179.998 122.89 179.995L123.04 179.993C122.549 179.527 120.887 179.12 120.144 178.595L119.845 178.435C119.714 177.827 119.522 177.219 119.46 176.6C119.431 176.299 119.384 176.011 119.327 175.715C119.868 175.434 120.341 174.648 120.707 174.17C120.772 174.15 120.898 174.115 120.967 174.083C121.421 173.869 123.733 172.195 123.855 171.832C123.54 171.443 123.159 171.122 122.785 170.791C122.627 170.328 122.648 170.263 122.777 169.787C123.173 169.625 123.414 169.458 123.712 169.152C124.27 168.903 124.78 168.547 125.294 168.219C127.82 166.957 130.424 162.038 131.321 159.383C131.656 158.391 132.178 156.699 131.698 155.716C130.793 153.421 127.361 150.992 125.681 149.004C124.87 148.042 124.097 146.453 123.187 145.687C120.679 147.152 110.9 148.204 107.582 148.35C105.732 148.431 103.824 148.259 101.988 148.429C101.621 149.083 101.218 149.735 100.901 150.415C101.691 154.486 102.674 158.483 104.748 162.115C105.386 163.232 108.49 164.85 107.703 166.192C107.422 166.671 106.523 166.962 106.018 167.116C106.978 168.707 107.889 170.448 107.399 172.372C107.097 173.556 106.239 174.377 105.202 174.963C102.592 176.438 97.5838 177.008 94.6851 176.17C93.9458 175.956 93.7245 175.457 93.2075 174.973C92.6953 176.343 92.4856 178.583 91.0674 179.254C88.5306 180.453 83.904 179.827 81.3483 178.882C80.9477 178.734 80.5597 178.55 80.178 178.361C79.388 178.124 78.5815 177.035 78.0278 176.439C78.1157 175.903 78.2283 175.332 78.4134 174.821C79.2382 172.54 81.5474 171.022 83.6527 170.091C83.4381 169.604 82.8037 169.275 82.363 168.972C81.6701 167.525 85.0264 166.115 85.8377 165.045C86.8708 163.683 87.6463 161.776 88.2059 160.17C89.093 157.624 89.4491 154.932 89.4951 152.246C89.5173 150.919 89.6052 149.424 89.1732 148.152C88.1489 145.135 83.1434 143.261 80.8564 140.811C79.977 139.869 79.4276 138.897 78.8719 137.752C78.6917 137.895 78.5066 138.03 78.3177 138.161C77.6702 138.601 76.3709 139.237 75.5755 139.083C75.2561 138.728 75.3325 138.537 75.475 138.103C76.9014 133.766 76.2071 133.679 74.5328 129.719C73.4615 131.508 71.952 134.892 70.3125 136.123C69.9554 136.39 69.8061 136.408 69.391 136.343C69.0373 135.921 69.077 135.688 69.019 135.15C68.8958 134.437 68.8025 133.458 68.4831 132.813C67.8941 131.623 66.2759 131.697 65.1655 131.317C64.1222 131.096 62.8659 130.389 62.2382 129.519C62.2339 129.474 62.1899 129.136 62.1986 129.123C62.3895 128.853 65.3075 128.641 65.9251 128.349C67.9318 127.396 69.2717 124.709 70.6174 123.008L71.0629 122.272C71.0895 121.449 70.2627 120.339 69.9177 119.573C69.1929 117.963 69.2978 116.499 69.9076 114.877C70.7677 112.365 72.5062 111.11 74.7497 109.919C75.733 109.818 76.755 109.629 77.72 109.414C78.5201 107.529 78.6202 105.219 79.272 103.238C78.0205 102.816 76.785 102.348 75.5673 101.835C71.2852 100.003 65.8893 95.8801 64.1406 91.4189C62.9196 88.3033 63.5564 84.7515 64.8891 81.763C65.0862 79.8319 66.0652 75.5602 66.5822 73.6514C65.4989 73.7577 64.4455 73.8206 63.3564 73.7186C61.1675 73.5126 57.0714 72.4209 55.6537 70.7025C53.7127 69.1379 52.395 67.5733 51.1604 65.4073C50.9478 65.2404 50.7555 64.9368 50.6163 64.7091C49.13 62.2819 48.5511 59.8997 49.2179 57.0838C50.181 56.5799 51.0928 56.2229 52.1263 55.8941C56.6046 54.522 62.0435 55.4129 66.1425 57.6036C68.689 58.9651 70.4725 60.9194 72.1409 63.2315C72.3347 63.4994 72.4077 63.7982 72.7812 63.7087C73.3301 63.5777 73.993 62.9535 74.4917 62.6595C74.7628 62.4913 74.9875 62.1949 75.2039 61.9619L75.3441 62.0996C75.6417 61.9904 75.9365 61.8144 76.222 61.6732C77.1372 61.3439 78.0534 61.0582 78.9888 60.7937C79.345 60.7773 79.5914 60.5331 79.8634 60.3257L80.7071 60.2411L81.4367 60.1396C83.5792 59.467 85.9116 59.54 88.131 59.5729C90.4977 59.511 92.6847 59.7059 94.9707 60.3329L95.1654 60.3832C96.8247 57.7627 97.7732 55.1374 100.097 52.9542C100.944 52.0688 102.369 50.4333 103.618 50.3347C104.759 49.714 105.84 49.0146 107.048 48.5226C107.363 48.0726 107.991 47.3427 108.016 46.7887C108.077 45.3866 104.237 43.8664 104.141 41.6401C104.114 41.0243 104.447 40.4884 104.869 40.07C105.722 39.2254 106.787 38.7946 107.987 38.8226C111.351 38.9012 111.984 42.7207 113.952 44.7597L115.507 44.8937C116.804 44.2798 117.441 43.4476 118.124 42.2052C118.114 41.723 118.251 41.2124 118.289 40.7257C118.409 39.1901 118.44 37.6279 118.18 36.1054L118.027 36.0009C117.306 34.1001 115.941 32.4256 115.059 30.5763L115.309 28.562ZM73.6132 76.6254L74.1844 77.0387L74.2105 76.6926C74.5478 76.6457 74.8261 76.5707 75.1402 76.4397C74.9768 76.1443 74.6739 76.1085 74.3656 75.9939L73.6132 76.6254Z" fill="black"/>
<path d="M147.436 100.596C148.154 100.622 148.895 100.633 149.589 100.836C151.203 101.305 152.93 102.472 153.753 103.963C154.076 104.549 154.327 105.103 154.139 105.78C154.64 106.328 154.804 106.928 154.74 107.657C154.735 107.708 154.726 107.76 154.719 107.811L155.115 108.094L155.663 107.665C155.884 107.709 155.969 107.678 156.09 107.874C156.605 108.714 156.192 110.56 155.931 111.435C155.73 112.093 155.473 112.733 155.163 113.348C155.506 113.948 155.887 113.72 155.637 114.664C155.051 116.874 153.253 118.639 151.306 119.717C149.099 120.937 146.812 121.236 144.327 121.221C145.739 122.61 146.035 125.951 146.055 127.859C146.086 130.809 144.767 135.329 143.261 137.82C142.803 138.578 142.097 139.169 141.625 139.919C141.063 140.813 140.703 141.934 139.948 142.685C139.872 142.761 139.864 142.763 139.774 142.838C140.584 142.901 141.654 142.87 142.214 143.551C142.863 144.34 142.834 145.53 142.687 146.481C142.431 148.132 141.972 149.783 141.904 151.458C141.828 153.323 143.448 156.724 142.1 158.196C142.807 158.933 145.326 161.655 145.576 162.428C145.276 163.082 144.454 163.527 143.823 163.824C144.851 164.669 145.701 166.17 145.844 167.493C145.934 168.372 145.647 169.248 145.053 169.902C144.831 170.142 144.583 170.308 144.278 170.419L144.126 170.243L143.733 170.257L143.446 169.92C142.87 170.768 141.312 171.622 140.342 171.971L140.873 172.048L140.94 172.216L140.63 172.732C139.27 173.665 137.469 174.348 135.913 174.883C135.451 174.811 135.12 174.676 134.687 174.875C133.971 176.287 134.709 178.127 133.599 179.896C133.335 180.427 132.735 180.839 132.183 181.031C129.102 182.104 123.986 181.608 121.08 180.187C121.22 179.933 121.215 179.898 121.478 179.786C121.966 179.927 122.382 179.998 122.892 179.995L123.042 179.993C122.551 179.527 120.889 179.12 120.146 178.595L119.847 178.435C119.716 177.827 119.524 177.219 119.462 176.6C119.433 176.299 119.386 176.011 119.329 175.715C119.87 175.434 120.343 174.648 120.709 174.17C120.774 174.15 120.9 174.115 120.969 174.083C121.423 173.869 123.735 172.195 123.857 171.832C123.542 171.443 123.161 171.122 122.787 170.791C122.629 170.328 122.65 170.263 122.779 169.787C123.175 169.625 123.416 169.458 123.714 169.152C124.272 168.903 124.782 168.547 125.296 168.219C125.681 168.411 126.095 168.622 126.528 168.67C128.341 167.932 130.129 164.57 130.96 162.883C131.971 160.831 133.334 158.105 132.945 155.754C132.559 153.416 128.165 150.065 126.501 147.965C124.625 145.598 123.087 143.043 122.117 140.169C121.014 136.903 120.863 133.137 122.418 129.976C122.825 129.149 123.511 128.555 123.914 127.744L123.771 127.654C123.58 127.669 123.387 127.697 123.223 127.805C121.249 129.11 120.3 133.555 120.366 135.745C120.396 136.769 120.871 138.576 120.584 139.473C120.566 139.53 120.545 139.585 120.524 139.642C119.704 140.102 118.605 140.344 117.698 140.592C113.214 141.817 108.879 142.154 104.256 141.766C104.267 140.476 104.139 137.966 103.393 136.903L103.139 136.907C102.868 138.04 103.493 139.755 103.506 140.984C103.516 142.024 103.125 143.26 102.792 144.243C101.012 149.505 96.8089 153.7 95.5275 159.178C95.5077 159.204 95.4888 159.23 95.4685 159.256C95.2859 159.489 95.1313 159.623 94.8863 159.789C93.8662 160.479 93.5019 163.344 93.298 164.515C93.0404 165.994 92.219 169.94 92.592 171.201C92.2108 171.718 91.8281 172.222 91.1922 172.439C90.436 172.696 89.4672 172.529 88.7801 172.149C86.8912 171.107 87.7127 170.137 87.2802 168.619C86.4617 168.354 85.4238 169.234 84.4052 168.982C83.9954 168.88 83.5934 168.731 83.375 168.37C83.8316 167.777 84.7231 167.35 85.3218 166.883C91.803 161.824 89.7861 152.012 90.6356 144.913L90.0069 145.093C90.1528 143.928 90.3824 142.768 90.5032 141.601C90.55 141.151 90.5234 141.038 90.249 140.701L89.8011 140.226C88.1964 138.967 86.9913 136.936 85.9674 135.204C85.7026 134.494 85.4305 133.787 85.1503 133.084C84.4636 131.25 83.978 129.363 83.98 127.399L83.8906 125.761C85.3121 125.697 86.7289 125.562 88.1365 125.353C93.6541 124.489 97.6371 122.147 100.922 117.648L100.912 117.109C101.399 116.816 101.89 116.91 102.43 116.958C102.65 116.964 102.869 116.963 103.089 116.956C103.802 116.931 104.052 116.696 104.513 116.199C107.817 116.535 111.067 116.578 114.356 116.047C118.382 115.397 126.987 112.332 130.595 113.156C133.486 113.009 136.297 113.877 138.842 115.148C138.933 115.133 139.039 115.157 139.114 115.104C139.589 114.775 140.611 112.531 142.112 111.52C144.041 110.219 147.11 109.931 148.527 107.985C148.927 107.436 149.165 106.769 149.06 106.092C149.302 105.658 149.33 105.284 149.322 104.796C149.297 103.246 148.552 101.656 147.436 100.596Z" fill="#CB7A27"/>
<path d="M147.434 100.596C148.151 100.622 148.893 100.633 149.587 100.836C151.201 101.305 152.928 102.472 153.75 103.963C154.074 104.549 154.325 105.103 154.136 105.78C154.637 106.328 154.802 106.928 154.737 107.657C154.733 107.708 154.724 107.76 154.717 107.811L155.113 108.094L155.661 107.665C155.882 107.709 155.967 107.678 156.088 107.874C156.603 108.714 156.19 110.56 155.929 111.435C155.728 112.093 155.47 112.733 155.161 113.348C155.503 113.948 155.885 113.72 155.635 114.664C155.049 116.874 153.251 118.639 151.303 119.717C149.097 120.937 146.81 121.236 144.325 121.221C145.736 122.61 146.033 125.951 146.052 127.859C146.084 130.809 144.765 135.329 143.259 137.82C142.801 138.578 142.095 139.169 141.623 139.919C141.061 140.813 140.701 141.934 139.946 142.685C139.87 142.761 139.862 142.763 139.771 142.838C140.582 142.901 141.651 142.87 142.211 143.551C142.86 144.34 142.832 145.53 142.685 146.481C142.429 148.132 141.969 149.783 141.901 151.458C141.826 153.323 143.446 156.724 142.097 158.196C142.805 158.933 145.323 161.655 145.574 162.428C145.274 163.082 144.452 163.527 143.821 163.824C144.849 164.669 145.699 166.17 145.841 167.493C145.932 168.372 145.645 169.248 145.05 169.902C144.828 170.142 144.581 170.308 144.276 170.419L144.124 170.243L143.731 170.257L143.444 169.92C142.868 170.768 141.31 171.622 140.34 171.971L140.871 172.048L140.937 172.216L140.628 172.732C139.268 173.665 137.466 174.348 135.911 174.883C135.449 174.811 135.118 174.676 134.685 174.875C133.969 176.287 134.707 178.127 133.597 179.896C133.333 180.427 132.733 180.839 132.181 181.031C129.1 182.104 123.984 181.608 121.077 180.187C121.218 179.933 121.213 179.898 121.475 179.786C121.963 179.927 122.38 179.998 122.89 179.995L123.04 179.993C122.549 179.527 120.886 179.12 120.144 178.595L119.845 178.435C119.714 177.827 119.521 177.219 119.46 176.6C119.431 176.299 119.384 176.011 119.327 175.715C119.868 175.434 120.34 174.648 120.707 174.17C120.772 174.15 120.898 174.115 120.967 174.083C121.42 173.869 123.733 172.195 123.855 171.832C124.329 171.968 124.563 172.096 124.886 172.47L125.27 172.427V172.305C125.171 172.105 125.17 171.883 125.149 171.664C125.552 171.253 126.075 171.548 126.559 171.284C126.606 171.258 126.651 171.23 126.696 171.203C127.234 171.046 127.917 170.7 128.436 170.88C129.258 172.324 128.526 173.466 130.699 174.055C131.359 174.234 132.153 174.27 132.762 173.91C133.076 173.725 133.183 173.429 133.254 173.084C133.3 172.861 133.288 172.651 133.259 172.428C133.952 170.757 133.738 168.505 134.422 166.681C135.655 163.393 139.397 159.072 139.927 156.058C140.137 154.866 139.76 153.765 139.878 152.603L139.892 152.477C139.994 151.117 137.668 148.686 138.313 145.08C138.76 142.579 140.144 140.588 141.447 138.477C143.43 135.26 144.947 131.667 145.006 127.828C145.061 124.245 143.756 120.768 141.228 118.208C138.103 115.044 133.331 114.064 129.044 114.065C129.541 113.744 130.085 113.512 130.592 113.156C133.484 113.009 136.295 113.877 138.84 115.148C138.931 115.133 139.036 115.157 139.112 115.104C139.587 114.775 140.609 112.531 142.11 111.52C144.039 110.219 147.107 109.931 148.525 107.985C148.925 107.436 149.163 106.769 149.058 106.092C149.3 105.658 149.328 105.284 149.319 104.796C149.294 103.246 148.55 101.656 147.434 100.596Z" fill="black"/>
<path d="M123.855 171.832C124.329 171.968 124.563 172.096 124.886 172.47L125.27 172.427C125.571 172.54 125.673 172.535 125.817 172.838C125.9 173.012 125.894 173.194 125.891 173.382C126.976 173.457 128.597 174.518 129.36 175.283C130.697 175.285 132.333 175.361 133.616 174.969C133.986 175.719 133.615 177.364 133.356 178.133C133.144 178.762 132.901 179.275 132.457 179.771C132.25 179.863 132.058 179.951 131.84 180.01C131.814 180.031 131.791 180.055 131.762 180.073C130.353 180.921 124.668 180.207 123.04 179.993C122.549 179.527 120.886 179.12 120.144 178.595L119.845 178.435C119.714 177.827 119.521 177.219 119.46 176.6C119.431 176.299 119.384 176.011 119.327 175.715C119.868 175.434 120.34 174.648 120.707 174.17C120.772 174.15 120.898 174.115 120.967 174.083C121.42 173.869 123.733 172.195 123.855 171.832Z" fill="#057631"/>
<path d="M123.855 171.832C124.329 171.968 124.563 172.096 124.886 172.47L125.27 172.427C125.571 172.54 125.673 172.535 125.817 172.838C125.9 173.012 125.894 173.194 125.891 173.382C125.969 174.045 125.287 174.845 124.867 175.371C123.667 176.871 121.927 177.938 120.144 178.595L119.845 178.435C119.714 177.827 119.521 177.219 119.46 176.6C119.431 176.299 119.384 176.011 119.327 175.715C119.868 175.434 120.34 174.648 120.707 174.17C120.772 174.15 120.898 174.115 120.967 174.083C121.42 173.869 123.733 172.195 123.855 171.832Z" fill="#51A53A"/>
<path d="M123.855 171.832C124.329 171.968 124.563 172.096 124.886 172.47C123.918 173.445 122.135 174.299 120.868 175.552C120.78 175.638 120.687 175.691 120.578 175.743C120.514 176.643 119.947 177.47 119.845 178.435C119.714 177.827 119.521 177.219 119.46 176.6C119.431 176.299 119.384 176.011 119.327 175.715C119.868 175.434 120.34 174.648 120.707 174.17C120.772 174.15 120.898 174.115 120.967 174.083C121.42 173.869 123.733 172.195 123.855 171.832Z" fill="black"/>
<path d="M129.361 175.284C130.698 175.285 132.334 175.361 133.617 174.969C133.987 175.719 133.616 177.364 133.357 178.133C133.145 178.762 132.902 179.275 132.458 179.771C132.251 179.863 132.06 179.951 131.841 180.01C132.367 179.595 132.634 178.587 132.988 177.95C133.425 177.162 133.415 176.354 133.173 175.511L133.034 175.483C132.962 176.308 132.885 177.078 132.642 177.876C132.586 177.722 132.538 177.599 132.45 177.459C131.685 176.247 130.753 175.583 129.361 175.284Z" fill="#0E4822"/>
<path d="M147.435 100.596C148.153 100.622 148.894 100.633 149.588 100.836C151.202 101.305 152.929 102.472 153.752 103.963C154.075 104.549 154.326 105.103 154.138 105.78C154.639 106.328 154.803 106.928 154.739 107.657C154.735 107.708 154.725 107.76 154.719 107.811L155.114 108.094C155.529 108.627 155.642 108.959 155.556 109.636C155.326 111.451 153.385 114.71 151.907 115.827C152.782 115.551 153.949 114.756 154.787 114.661L154.928 114.825C154.644 116.11 152.534 117.703 151.44 118.411C149.629 119.584 146.409 120.822 144.241 120.374C144.164 120.359 144.089 120.338 144.013 120.317L143.889 120.095C144.327 119.591 145.184 119.366 145.79 119.097C148.262 118.025 150.188 115.986 151.119 113.456C151.36 112.818 151.778 111.886 151.739 111.204C151.731 111.062 151.697 110.931 151.657 110.796C151.72 110.444 151.889 110.037 151.707 109.726C151.237 110.081 151.156 110.624 150.737 111.002C150.82 110.827 150.893 110.648 150.941 110.46C151.187 109.509 151.354 107.399 150.856 106.548C151.168 105.954 151.117 105.488 150.965 104.868C150.951 104.874 150.938 104.882 150.923 104.887C150.48 105.013 150.335 104.863 149.957 104.659C150.032 105.166 150.129 105.47 149.815 105.928C149.798 105.953 149.777 105.976 149.758 106L149.059 106.092C149.301 105.658 149.329 105.284 149.321 104.796C149.296 103.246 148.551 101.656 147.435 100.596Z" fill="#EED9AD"/>
<path d="M147.436 100.596C148.153 100.622 148.894 100.633 149.588 100.836C151.203 101.305 152.93 102.472 153.752 103.963C154.075 104.549 154.326 105.103 154.138 105.78L154.091 105.735C153.753 105.657 153.747 105.637 153.417 105.801C153.357 105.569 153.288 105.337 153.186 105.12C152.312 103.262 150.474 101.963 148.575 101.33C148.877 101.62 149.188 101.925 149.406 102.285C149.802 102.938 150.148 103.896 149.957 104.659C150.032 105.166 150.129 105.47 149.815 105.928C149.798 105.953 149.778 105.976 149.758 106L149.06 106.092C149.302 105.658 149.329 105.284 149.321 104.796C149.296 103.246 148.551 101.656 147.436 100.596Z" fill="black"/>
<path d="M153.416 105.801C153.746 105.637 153.752 105.657 154.09 105.735L154.137 105.78C154.638 106.328 154.802 106.928 154.738 107.657C154.734 107.709 154.725 107.76 154.718 107.811C155.059 108.302 155.246 108.699 155.134 109.317C154.992 110.104 154.273 110.65 153.646 111.057C153.762 110.866 153.863 110.661 153.93 110.448C154.32 109.181 154.053 106.93 153.416 105.801Z" fill="black"/>
<path d="M150.964 104.868L151.299 104.797C151.961 105.453 152.058 108.173 152.064 109.129C152.068 109.809 152.069 110.251 151.656 110.796C151.72 110.444 151.888 110.038 151.707 109.726C151.236 110.081 151.156 110.624 150.736 111.002C150.82 110.827 150.892 110.648 150.941 110.46C151.187 109.509 151.354 107.399 150.856 106.548C151.167 105.954 151.117 105.488 150.964 104.868Z" fill="black"/>
<path d="M149.956 104.659C150.334 104.863 150.48 105.013 150.923 104.887C150.937 104.883 150.951 104.874 150.964 104.868C151.117 105.488 151.167 105.954 150.856 106.548C151.354 107.399 151.187 109.509 150.941 110.46C150.892 110.648 150.82 110.827 150.736 111.002C150.95 111.887 150.227 113.483 149.769 114.231C148.406 116.461 145.797 118.54 143.208 119.132C143.138 119.148 143.068 119.163 142.997 119.177C142.745 118.48 141.439 117.175 140.811 116.787C140.627 116.609 140.393 116.405 140.263 116.186C140.083 115.885 140.239 115.309 140.351 114.992C141.084 112.923 144.17 111.881 145.98 110.992C147.363 110.314 149.311 109.347 149.814 107.778C150.007 107.176 150.059 106.569 149.758 106C149.777 105.976 149.798 105.953 149.815 105.928C150.129 105.47 150.032 105.166 149.956 104.659Z" fill="#E7A446"/>
<path d="M150.855 106.548C151.353 107.399 151.186 109.509 150.94 110.46C150.892 110.648 150.82 110.827 150.736 111.002C150.95 111.887 150.226 113.482 149.769 114.231C148.405 116.461 145.796 118.54 143.207 119.132C143.137 119.148 143.067 119.163 142.997 119.177C142.744 118.48 141.438 117.174 140.811 116.787C141.636 116.699 142.477 116.827 143.314 116.737C145.021 116.554 146.464 115.836 147.542 114.488C148.742 112.986 149.112 111.33 149.94 109.654C150.22 109.087 150.746 108.434 150.889 107.827C150.981 107.437 150.899 106.945 150.855 106.548Z" fill="#9F5F2C"/>
<path d="M140.671 166.478C142.062 166.747 143.551 166.808 144.793 167.569C144.879 168.061 144.795 168.437 144.521 168.847C144.241 169.267 143.869 169.648 143.445 169.921C142.869 170.768 141.311 171.622 140.341 171.971C139.424 172.587 138.019 172.973 136.951 173.255C137.049 172.364 136.299 170.962 136.219 169.98C136.13 168.901 136.537 167.786 136.523 166.693C136.522 166.655 136.52 166.616 136.519 166.578C136.921 166.666 137.298 166.862 137.703 166.959C138.79 167.219 139.722 167.075 140.671 166.478Z" fill="#057631"/>
<path d="M139.894 152.477C140.534 152.831 141.363 153.965 141.569 154.67C141.935 155.919 141.566 157.178 140.934 158.274C138.681 162.183 136.477 163.48 135.362 168.418C134.821 170.81 135.863 171.69 135.881 173.33C135.884 173.595 135.526 173.709 135.341 173.775C134.655 173.593 134.126 173.3 133.719 172.721C133.589 172.538 133.466 172.5 133.261 172.428C133.954 170.757 133.739 168.505 134.423 166.681C135.656 163.393 139.398 159.072 139.928 156.058C140.138 154.866 139.762 153.765 139.88 152.603L139.894 152.477Z" fill="#9F5F2C"/>
<path d="M140.671 166.478C141.349 166.025 142.715 165.339 143.182 164.723C143.921 165.187 144.666 165.965 144.906 166.829C144.95 166.986 144.965 167.146 144.968 167.307L144.792 167.569C143.55 166.808 142.061 166.747 140.671 166.478Z" fill="#0E4822"/>
<path d="M125.27 172.305C126.372 172.238 126.878 172.158 127.758 172.945C128.201 173.34 129.252 174.708 129.36 175.284C128.596 174.518 126.975 173.457 125.89 173.382C125.893 173.194 125.9 173.013 125.817 172.839C125.673 172.535 125.571 172.54 125.27 172.428V172.305Z" fill="#0E4822"/>
<path d="M141.284 159.006L141.614 159.102C142.211 160.111 144.145 161.797 144.411 162.5C144.377 162.594 144.373 162.626 144.302 162.714C143.529 163.661 141.092 165.187 139.938 165.419C139.535 165.695 138.953 165.74 138.473 165.74C138.043 165.739 137.892 165.686 137.602 165.396C137.327 163.533 140.679 160.839 141.261 159.085C141.269 159.059 141.277 159.032 141.284 159.006Z" fill="#9F5F2C"/>
<path d="M139.693 143.281C140.244 143.386 141.361 144.095 141.717 144.52C141.753 144.583 141.772 144.614 141.803 144.683C142.256 145.718 141.276 150.4 140.851 151.62C140.853 151.843 140.891 151.749 140.745 151.905C140.607 151.748 140.479 151.583 140.375 151.401C138.846 148.717 138.95 146.183 139.693 143.281Z" fill="#9F5F2C"/>
<path d="M104.51 116.199C107.815 116.535 111.065 116.578 114.354 116.047C118.38 115.398 126.985 112.332 130.593 113.157C130.085 113.512 129.541 113.744 129.044 114.066C128.197 114.143 127.341 114.191 126.518 114.421L120.102 116.014C120.119 116.043 120.136 116.073 120.153 116.103C120.45 116.635 120.472 117.186 120.942 117.579C121.217 117.591 121.507 117.621 121.781 117.603C121.308 117.859 120.739 117.783 120.22 117.882C118.818 117.919 117.256 118.466 115.851 118.684C111.756 119.317 105.635 119.552 101.721 118.041C101.187 117.835 101.132 117.59 100.91 117.109C101.397 116.816 101.888 116.91 102.428 116.958C102.648 116.964 102.867 116.963 103.086 116.956C103.8 116.931 104.05 116.696 104.51 116.199Z" fill="#F6B65C"/>
<path d="M104.512 116.199C107.816 116.535 111.066 116.578 114.356 116.047C118.381 115.398 126.986 112.332 130.594 113.157C130.086 113.512 129.542 113.744 129.046 114.066C128.198 114.143 127.342 114.191 126.52 114.421L120.103 116.014C114.526 117.21 108.055 118.355 102.43 116.958C102.649 116.964 102.868 116.963 103.088 116.956C103.801 116.931 104.051 116.696 104.512 116.199Z" fill="black"/>
<path d="M120.104 116.014L126.52 114.421C127.009 114.576 128.031 114.986 128.368 115.363C128.917 115.41 129.314 115.589 129.668 116.016C130.008 116.426 130.102 116.975 130.034 117.492C129.913 118.402 129.372 119.172 128.649 119.712C127.356 120.679 125.506 121.03 123.929 120.773C122.991 120.62 121.576 120.113 120.991 119.323C120.666 118.885 120.614 118.257 120.222 117.882C120.74 117.783 121.31 117.859 121.783 117.603C121.509 117.621 121.219 117.591 120.944 117.579C120.474 117.186 120.452 116.635 120.155 116.103C120.138 116.073 120.12 116.043 120.104 116.014Z" fill="#F4B75E"/>
<path d="M120.104 116.014L126.52 114.421C127.009 114.576 128.031 114.986 128.368 115.363C128.547 115.755 128.658 115.826 128.521 116.249C127.513 116.551 126.371 116.582 125.329 116.789C124.154 117.023 122.958 117.436 121.783 117.603C121.509 117.621 121.219 117.591 120.944 117.579C120.474 117.186 120.452 116.635 120.155 116.103C120.138 116.073 120.12 116.043 120.104 116.014Z" fill="#ECD4A5"/>
<path d="M83.8887 125.762C85.3102 125.698 86.727 125.562 88.1346 125.353C93.6522 124.489 97.6352 122.147 100.92 117.648C101.122 119.287 100.77 120.319 99.7526 121.627C97.1742 124.939 93.8059 126.643 89.6789 127.124C88.0597 127.312 86.4269 127.414 84.801 127.531C84.4149 127.559 84.3274 127.592 83.9781 127.399L83.8887 125.762Z" fill="#9F5718"/>
<path d="M89.9863 139.972L90.4376 140.442C90.8474 140.27 91.8877 137.78 92.3641 137.179C92.844 136.575 93.4315 136.155 94.0742 135.742C91.3576 139.455 91.3871 140.52 90.6333 144.913L90.0047 145.093C90.1506 143.929 90.3801 142.768 90.5009 141.601C90.5478 141.151 90.5212 141.038 90.2468 140.701L89.7988 140.226L89.9863 139.972Z" fill="#541703"/>
<path d="M123.713 169.152C124.106 169.19 124.286 169.137 124.57 169.447L124.647 169.947C124.452 170.306 124.144 170.501 123.823 170.741C124.801 171.116 125.663 171.184 126.698 171.203C126.652 171.23 126.607 171.258 126.56 171.284C126.076 171.549 125.553 171.254 125.15 171.664C125.171 171.883 125.173 172.106 125.272 172.305V172.428L124.888 172.471C124.565 172.096 124.33 171.968 123.857 171.832C123.541 171.443 123.16 171.122 122.786 170.791C122.628 170.328 122.65 170.263 122.779 169.787C123.174 169.625 123.416 169.458 123.713 169.152Z" fill="black"/>
<path d="M123.713 169.152C124.106 169.19 124.285 169.137 124.569 169.447L124.647 169.947C124.452 170.306 124.143 170.501 123.822 170.741C123.614 170.727 123.339 170.733 123.156 170.626C122.903 170.478 122.857 170.058 122.778 169.787C123.174 169.625 123.415 169.458 123.713 169.152Z" fill="black"/>
<path d="M83.9785 127.399C84.3279 127.591 84.4153 127.558 84.8014 127.53C84.4163 129.412 85.5813 131.576 85.8012 133.462L85.1488 133.084C84.4622 131.25 83.9766 129.363 83.9785 127.399Z" fill="#C47933"/>
<path d="M85.1494 133.084L85.8017 133.462C86.011 135.436 88.7372 138.48 89.9877 139.972L89.8002 140.225C88.1955 138.967 86.9904 136.936 85.9665 135.204C85.7017 134.494 85.4297 133.787 85.1494 133.084Z" fill="#7D4C21"/>
<path d="M125.295 168.219C125.68 168.411 126.094 168.622 126.527 168.67C126.408 169.083 125.914 169.377 125.554 169.58C125.269 169.74 124.966 169.874 124.647 169.947L124.569 169.447C124.285 169.137 124.106 169.19 123.713 169.152C124.271 168.903 124.781 168.547 125.295 168.219Z" fill="black"/>
<path d="M134.286 119.852C135.672 119.652 137.057 119.627 138.264 120.442C138.896 120.868 139.431 121.548 139.552 122.318C139.647 122.916 139.535 123.492 139.175 123.984C138.635 124.721 137.683 125.195 136.801 125.319C136.005 125.568 134.87 125.516 134.089 125.208C133.231 124.87 132.469 124.198 132.114 123.336C131.856 122.71 131.847 122.021 132.136 121.402C132.566 120.478 133.402 120.201 134.286 119.852Z" fill="#F4B75E"/>
<path d="M115.249 119.331C115.912 119.277 116.46 119.291 117.079 119.559C117.651 119.806 118.441 120.416 118.628 121.032C118.733 121.379 118.703 121.695 118.498 121.996C118.208 122.42 117.73 122.48 117.266 122.561C116.631 122.664 115.934 122.799 115.303 122.603C114.767 122.438 114.071 121.943 113.832 121.427C113.694 121.126 113.689 120.805 113.818 120.501C114.092 119.854 114.653 119.6 115.249 119.331Z" fill="#F4B75E"/>
<path d="M125.673 123.152C126.336 123.072 126.966 123.029 127.619 123.209C128.304 123.398 129.049 123.843 129.399 124.476C129.426 124.782 129.483 124.919 129.283 125.175C128.953 125.596 128.318 125.675 127.826 125.754C127.414 125.941 126.694 125.949 126.248 125.882C125.683 125.796 124.998 125.448 124.7 124.947C124.519 124.643 124.477 124.261 124.615 123.931C124.817 123.447 125.237 123.348 125.673 123.152Z" fill="#F4B75E"/>
<path d="M52.1263 55.8945C56.6046 54.5224 62.0435 55.4133 66.1425 57.604C68.689 58.9655 70.4725 60.9198 72.1409 63.2319C72.3347 63.4998 72.4077 63.7986 72.7812 63.7091C73.3301 63.5781 73.993 62.9539 74.4917 62.6599C74.7628 62.4917 74.9875 62.1953 75.2039 61.9623L75.3441 62.1C75.6417 61.9908 75.9365 61.8148 76.222 61.6736C77.1372 61.3443 78.0534 61.0586 78.9888 60.7941C79.345 60.7777 79.5914 60.5335 79.8634 60.3261L80.7071 60.2415L81.4367 60.14C83.5792 59.4674 85.9116 59.5404 88.131 59.5733C90.4977 59.5114 92.6847 59.7063 94.9707 60.3333C94.5769 60.6554 94.4512 60.6849 94.3734 61.2104C95.4602 61.4865 96.7348 61.7737 97.6979 62.364L97.7897 62.32C101.29 64.0751 104.562 66.3045 106.037 70.1222C106.076 70.2214 106.078 70.2576 106.093 70.3519C106.086 70.392 106.078 70.4326 106.072 70.4733C105.989 71.037 106.481 71.9508 106.166 72.2129C105.97 72.1109 105.812 72.0171 105.592 71.9735C107.258 74.2479 107.555 76.3463 107.699 79.0926C107.51 79.1835 107.611 79.1718 107.392 79.1104L107.386 77.9815C107.265 78.2522 107.21 78.4921 107.161 78.7841C106.995 81.0826 106.711 83.4726 104.838 85.0618C104.439 85.4007 104.047 85.6246 103.563 85.818L102.232 86.1057L102.079 86.0491C102.006 86.023 101.932 85.9993 101.86 85.9698C100.813 85.5414 99.5045 85.6947 98.3748 85.3998C98.3038 85.7532 98.2603 85.9616 98.5009 86.2793C98.7039 86.5466 99.0687 86.7207 99.3818 86.8169C97.7481 86.8333 96.1144 86.8043 94.4822 86.7294L94.2203 86.5814L93.9366 86.7478L93.8318 86.6109C92.5155 84.9114 91.1273 84.2621 89.0167 84.0237C86.7771 83.7714 83.271 84.1272 81.4657 85.5593L81.8837 85.6918C81.0797 85.8132 80.3423 86.2454 79.6189 86.6008C79.6165 86.1294 79.8286 85.8354 79.675 85.3524C79.1942 85.6821 78.7221 86.0332 78.194 86.2836C77.7436 86.3141 77.4938 86.3827 77.0865 86.1652L76.9091 85.5603C75.9461 85.7711 75.1614 85.891 74.2115 85.5719L73.4369 85.2591L73.233 85.539L73.2827 85.8296L73.317 86.1753C72.9194 86.2589 72.5507 86.1076 72.1694 85.9988C71.8196 86.083 71.7877 86.0685 71.55 86.3629C71.1354 86.6588 70.4439 86.755 69.9496 86.93C67.7443 87.7099 66.2928 88.5536 64.6291 90.1975C63.914 87.2825 64.6765 84.909 65.4805 82.1357L64.8891 81.7634C65.0862 79.8323 66.0652 75.5606 66.5822 73.6518C65.4989 73.7581 64.4455 73.821 63.3564 73.719C61.1675 73.513 57.0714 72.4213 55.6537 70.7029C53.7127 69.1383 52.395 67.5737 51.1604 65.4077C50.9478 65.2408 50.7555 64.9372 50.6163 64.7095C49.13 62.2823 48.5511 59.9001 49.2179 57.0842C50.181 56.5802 51.0928 56.2233 52.1263 55.8945ZM73.6132 76.6258L74.1844 77.0391L74.2105 76.693C74.5478 76.6461 74.8261 76.5711 75.1402 76.4401C74.9768 76.1447 74.6739 76.1089 74.3656 75.9943L73.6132 76.6258Z" fill="#CC7C27"/>
<path d="M52.1263 55.8945C56.6046 54.5224 62.0435 55.4133 66.1425 57.604C68.689 58.9655 70.4725 60.9198 72.1409 63.2319C72.3347 63.4998 72.4077 63.7986 72.7812 63.7091C73.3301 63.5781 73.993 62.9539 74.4917 62.6599C74.7628 62.4917 74.9875 62.1953 75.2039 61.9623L75.3441 62.1L75.677 63.0487C73.2537 64.4595 71.4635 66.0328 69.6771 68.195C69.32 68.8231 68.904 69.4584 68.6266 70.1246C68.2164 70.7696 68.0004 71.5311 67.7511 72.2491C66.7653 75.4716 66.3295 78.8682 65.4805 82.1357L64.8891 81.7634C65.0862 79.8323 66.0652 75.5606 66.5822 73.6518C65.4989 73.7581 64.4455 73.821 63.3564 73.719C61.1675 73.513 57.0714 72.4213 55.6537 70.7029C53.7127 69.1383 52.395 67.5737 51.1604 65.4077C50.9478 65.2408 50.7555 64.9372 50.6163 64.7095C49.13 62.2823 48.5511 59.9001 49.2179 57.0842C50.181 56.5802 51.0928 56.2233 52.1263 55.8945Z" fill="black"/>
<path d="M52.5703 60.6252C53.4778 59.7931 55.6522 60.014 56.8452 60.0667C59.0046 60.162 61.1249 60.7402 63.106 61.5897C64.2352 62.0742 66.4357 63.766 67.4176 63.781C67.4712 63.7814 67.5244 63.7872 67.578 63.7887C67.6099 63.7901 67.6423 63.7892 67.6742 63.7892C68.356 64.5744 69.4002 65.5912 69.6012 66.6394C68.7217 67.9603 68.0264 69.4335 67.2866 70.8376C65.8071 71.03 64.4121 71.0489 62.9422 70.7399C58.8727 69.8851 56.1044 67.398 53.9102 63.9889C53.399 62.8787 52.9255 61.7962 52.5703 60.6252Z" fill="#F57644"/>
<path d="M49.2179 57.0841C50.181 56.5801 51.0928 56.2232 52.1263 55.8943C52.6979 56.2015 53.1826 56.2259 53.8214 56.2499C52.5419 56.539 51.0415 56.8244 50.0171 57.701C50.5115 58.0027 50.7424 58.0873 51.3247 57.9708C51.1029 60.1253 52.0007 63.0103 53.3735 64.6818C53.43 64.7504 53.5145 64.8292 53.5754 64.8887C53.4793 64.4419 53.3396 64.0097 53.2034 63.5741L53.3696 63.5098L53.9098 63.9889C56.104 67.398 58.8723 69.8852 62.9418 70.74C64.4117 71.0489 65.8067 71.0301 67.2862 70.8376C68.026 69.4336 68.7213 67.9603 69.6007 66.6394C69.7723 66.2057 71.1151 65.4051 71.5355 65.0647L71.7491 65.3084C71.0948 66.139 69.7056 67.1002 69.6771 68.1948C69.32 68.8229 68.904 69.4582 68.6266 70.1245C68.2164 70.7695 68.0004 71.531 67.7511 72.249C66.7653 75.4715 66.3295 78.868 65.4805 82.1355L64.8891 81.7632C65.0862 79.8321 66.0652 75.5604 66.5822 73.6516C65.4989 73.758 64.4455 73.8208 63.3564 73.7188C61.1675 73.5128 57.0714 72.4211 55.6537 70.7027C53.7127 69.1381 52.395 67.5736 51.1604 65.4075C50.9478 65.2407 50.7555 64.937 50.6163 64.7093C49.13 62.2822 48.5511 59.9 49.2179 57.0841Z" fill="#9F5F2C"/>
<path d="M53.5762 64.8887C53.48 64.442 53.3404 64.0097 53.2041 63.5741L53.3703 63.5098L53.9105 63.9889C56.1048 67.3981 58.873 69.8852 62.9425 70.74C64.4124 71.0489 65.8074 71.0301 67.287 70.8376C68.0267 69.4336 68.7221 67.9604 69.6015 66.6394C69.773 66.2057 71.1158 65.4051 71.5362 65.0647L71.7498 65.3084C71.0955 66.139 69.7064 67.1002 69.6778 68.1949C69.3208 68.8229 68.9047 69.4582 68.6274 70.1245C68.2171 70.7695 68.0011 71.531 67.7518 72.249C66.7661 75.4715 66.3302 78.8681 65.4813 82.1355L64.8898 81.7632C65.0869 79.8321 66.0659 75.5605 66.5829 73.6516C65.4996 73.758 64.4462 73.8208 63.3571 73.7188C61.1682 73.5128 57.0721 72.4211 55.6544 70.7028C55.6438 70.6655 55.6336 70.6283 55.623 70.5911C55.6051 70.5292 55.5839 70.4683 55.5679 70.4059C55.3577 69.583 54.7407 69.1706 54.5252 68.4066L54.6068 68.4651C55.5017 69.1183 56.2589 69.964 57.1871 70.5693C59.5248 72.0933 63.4069 73.0095 66.1626 72.6256C66.4578 72.5845 66.7163 72.4733 66.9772 72.3336C66.9825 72.1692 66.9482 71.9966 66.9284 71.8327C66.0461 71.3511 64.3704 71.7224 63.3349 71.5871C62.6845 71.502 62.0085 71.2375 61.3929 71.0161C58.3197 69.9118 55.0238 67.9575 53.5762 64.8887Z" fill="black"/>
<path d="M54.5254 68.4065L54.607 68.465C55.5019 69.1182 56.2591 69.9638 57.1873 70.5692C59.5251 72.0932 63.4071 73.0094 66.1628 72.6255C66.458 72.5844 66.7165 72.4732 66.9774 72.3335L67.0267 72.5119C66.155 73.2047 64.4078 72.9364 63.3336 72.8107C62.0164 72.6564 60.0242 72.4587 58.8442 71.8877L58.6683 72.0337L58.7307 72.2155C59.2535 72.4007 59.7763 72.5694 60.2673 72.829C62.2981 73.9043 65.192 72.8629 66.8069 73.5509C67.1417 73.2763 67.3916 72.128 67.6303 72.0762L67.752 72.2488C66.7663 75.4714 66.3305 78.8679 65.4815 82.1354L64.89 81.7631C65.0872 79.832 66.0661 75.5603 66.5832 73.6515C65.4998 73.7578 64.4464 73.8207 63.3573 73.7187C61.1684 73.5127 57.0723 72.421 55.6546 70.7026C55.644 70.6654 55.6339 70.6282 55.6232 70.5909C55.6053 70.529 55.5841 70.4681 55.5681 70.4058C55.3579 69.5828 54.7409 69.1704 54.5254 68.4065Z" fill="black"/>
<path d="M49.2179 57.0841C50.181 56.5801 51.0928 56.2232 52.1263 55.8943C52.6979 56.2015 53.1826 56.2259 53.8214 56.2499C52.5419 56.539 51.0415 56.8244 50.0171 57.701C49.5083 58.7115 49.9616 60.0479 50.3051 61.0923C50.8236 62.6699 51.5407 64.0513 52.409 65.4626L51.1604 65.4075C50.9478 65.2407 50.7555 64.937 50.6163 64.7093C49.13 62.2822 48.5511 59.9 49.2179 57.0841Z" fill="black"/>
<path d="M51.1611 65.4075L52.4097 65.4626C53.0311 66.3218 54.1323 67.4585 54.5252 68.4066C54.7407 69.1705 55.3577 69.583 55.5679 70.4059C55.5839 70.4682 55.6051 70.5292 55.623 70.591C55.6336 70.6283 55.6438 70.6655 55.6544 70.7027C53.7134 69.1381 52.3957 67.5735 51.1611 65.4075Z" fill="black"/>
<path d="M52.127 55.8945C56.6052 54.5224 62.0441 55.4133 66.1431 57.604C68.6896 58.9655 70.4731 60.9198 72.1416 63.2319C72.3353 63.4998 72.4083 63.7986 72.7818 63.7091C73.3307 63.5781 73.9937 62.9539 74.4923 62.6599C74.7634 62.4917 74.9881 62.1953 75.2046 61.9623L75.3447 62.1L75.6776 63.0487C73.2544 64.4595 71.4641 66.0328 69.6777 68.195C69.7062 67.1004 71.0954 66.1392 71.7497 65.3085L71.5361 65.0649L71.4356 64.8333L71.7048 64.49L71.6468 64.1027C71.1157 62.9732 70.1566 61.6475 69.166 60.9024C68.7882 60.535 68.3987 60.1835 67.9817 59.8605C63.9397 56.7284 58.8328 55.6124 53.822 56.2501C53.1832 56.2261 52.6986 56.2016 52.127 55.8945Z" fill="black"/>
<path d="M53.8218 56.25C58.8326 55.6123 63.9395 56.7283 67.9815 59.8604C68.3985 60.1834 68.788 60.5349 69.1658 60.9023L68.354 61.2756C67.9525 60.9323 67.5031 60.6248 67.0697 60.3226C63.9391 58.1353 59.6531 56.6635 55.814 57.337C54.305 57.4361 52.7878 57.5657 51.3251 57.9709C50.7429 58.0874 50.5119 58.0028 50.0176 57.7011C51.042 56.8245 52.5423 56.5391 53.8218 56.25Z" fill="#D19C6B"/>
<path d="M52.1494 59.1423C55.9445 58.0922 60.4542 58.697 63.8728 60.6368C65.3514 61.4757 66.5285 62.5394 67.6751 63.7892C67.6432 63.7892 67.6108 63.7902 67.579 63.7887C67.5253 63.7873 67.4722 63.7815 67.4185 63.781C66.4367 63.766 64.2362 62.0743 63.1069 61.5898C61.1258 60.7403 59.0055 60.162 56.8461 60.0668C55.6531 60.0141 53.4787 59.7931 52.5712 60.6252L52.1494 59.1423Z" fill="#D35B3A"/>
<path d="M55.8145 57.3367C59.6535 56.6632 63.9395 58.135 67.0701 60.3223C67.5035 60.6245 67.9529 60.932 68.3545 61.2753L69.1662 60.902C70.1568 61.6471 71.1159 62.9729 71.647 64.1023L71.705 64.4896L71.4358 64.8329C70.9961 65.0253 70.5897 65.4131 70.2104 65.7075C69.7524 64.7014 69.0865 63.8098 68.366 62.9777C65.2934 59.4293 60.3986 57.6578 55.8145 57.3367Z" fill="#CE9258"/>
<path d="M69.1663 60.9021C70.1568 61.6472 71.116 62.9729 71.647 64.1024L71.3653 64.1971C70.3172 64.0202 69.0348 62.1133 68.3545 61.2754L69.1663 60.9021Z" fill="#D19C6B"/>
<path d="M94.4828 86.7293C94.6408 86.5049 94.8114 86.4251 95.0491 86.3052L95.1458 86.2574C95.2516 86.0954 95.3927 86.0379 95.2694 85.8653C93.629 83.5711 92.8525 82.5818 92.9279 79.6238C92.9965 76.9264 94.1731 74.1018 96.1648 72.2611C97.9725 70.5906 99.8231 70.1347 102.205 70.2256C103.648 70.5776 104.405 71.1534 105.593 71.9734C107.259 74.2478 107.555 76.3462 107.7 79.0924C107.51 79.1833 107.612 79.1717 107.393 79.1103L107.387 77.9814C107.266 78.2521 107.21 78.4919 107.161 78.784C106.996 81.0825 106.712 83.4724 104.839 85.0617C104.439 85.4006 104.048 85.6245 103.564 85.8179L102.233 86.1056L102.08 86.049C102.007 86.0229 101.933 85.9992 101.861 85.9697C100.814 85.5413 99.5052 85.6946 98.3755 85.3997C98.3044 85.7531 98.2609 85.9615 98.5016 86.2791C98.7045 86.5465 99.0693 86.7206 99.3824 86.8168C97.7487 86.8332 96.115 86.8042 94.4828 86.7293Z" fill="#F9F5F4"/>
<path d="M103.168 75.9402C104.214 76.5557 104.851 77.6861 105.152 78.8383C105.562 80.4077 105.475 82.3678 104.622 83.7888C104.142 84.5866 102.464 85.3979 102.233 86.1052L102.08 86.0487C102.007 86.0226 101.933 85.9989 101.861 85.9694C100.814 85.541 99.5056 85.6943 98.3758 85.3993L98.0163 85.3742C97.8617 85.5579 97.8371 85.5937 97.7955 85.8287C97.5781 85.6701 97.365 85.5062 97.1562 85.3365C96.0173 84.4048 95.1287 83.079 94.9905 81.5908C94.8978 80.3913 95.0548 79.4934 95.4863 78.3727C95.7269 78.5917 95.9352 78.757 96.0516 79.0679C95.9511 78.3441 96.2725 77.6266 96.8794 77.2205C97.4858 76.8139 98.271 76.7902 98.9011 77.1591L98.9228 76.9202C98.8518 76.6601 98.8581 76.6732 98.9823 76.4319C100.052 75.8976 101.354 76.1655 102.489 76.3231L102.435 75.9958L103.168 75.9402Z" fill="black"/>
<path d="M103.166 75.9402C104.213 76.5557 104.849 77.6861 105.15 78.8383C105.561 80.4077 105.474 82.3678 104.62 83.7888C104.141 84.5866 102.463 85.3979 102.232 86.1052L102.079 86.0487C102.006 86.0226 101.932 85.9989 101.86 85.9694C100.813 85.541 99.5043 85.6943 98.3746 85.3993L98.0151 85.3742C97.8604 85.5579 97.8358 85.5937 97.7942 85.8287C97.5768 85.6701 97.3637 85.5062 97.155 85.3365C96.0161 84.4048 95.1275 83.079 94.9893 81.5908L95.2458 81.6508C95.3889 81.147 95.2067 80.1684 95.4391 79.784L95.6952 79.8831C95.9001 80.456 95.7257 80.7051 95.5063 81.262C95.731 81.3254 95.8392 81.3007 96.0576 81.2611C96.1741 81.2398 96.1301 81.2446 96.261 81.2867C96.3785 82.3093 96.9588 83.3435 97.7237 84.0218C98.4393 84.6572 99.2704 85.0981 100.251 85.0091C101.294 84.9149 102.235 84.2293 102.884 83.4421C103.641 82.5249 104.017 81.3955 103.896 80.2066C103.794 79.2081 103.382 78.26 102.576 77.6339C101.919 77.1219 100.68 76.6427 99.8435 76.7679C99.5352 76.8148 99.2279 76.8656 98.9215 76.9202C98.8505 76.6601 98.8568 76.6732 98.981 76.4319C100.051 75.8976 101.353 76.1655 102.488 76.3231L102.434 75.9958L103.166 75.9402Z" fill="#383533"/>
<path d="M96.0514 79.068C95.9509 78.3442 96.2722 77.6267 96.8791 77.2206C97.4855 76.814 98.2707 76.7903 98.9008 77.1592C99.5208 77.5218 99.8841 78.2021 99.8411 78.9196C99.7981 79.6366 99.356 80.269 98.6974 80.5548C98.0388 80.841 97.2753 80.7318 96.7226 80.2734C96.3563 79.9693 96.1171 79.5394 96.0514 79.068Z" fill="#F9F5F4"/>
<path d="M94.4828 86.7293C94.6408 86.5049 94.8114 86.4251 95.0491 86.3052L95.1458 86.2574C95.2516 86.0954 95.3927 86.0379 95.2694 85.8653C93.629 83.5711 92.8525 82.5818 92.9279 79.6238C92.9965 76.9264 94.1731 74.1018 96.1648 72.2611C97.9725 70.5906 99.8231 70.1347 102.205 70.2256L102.394 70.6312C102.221 70.8701 102.001 71.0069 101.762 71.1698C99.6279 71.1205 97.9899 71.5663 96.3972 73.0874C94.6239 74.7816 93.5729 77.3963 93.5217 79.836C93.4855 81.5525 93.9962 83.7683 95.2337 85.0332C95.7333 85.5437 96.5987 85.9673 97.3255 85.9392C97.4941 85.9325 97.6405 85.8928 97.7951 85.829C97.8367 85.594 97.8613 85.5582 98.016 85.3745L98.3755 85.3997C98.3044 85.7531 98.2609 85.9615 98.5016 86.2791C98.7045 86.5465 99.0693 86.7206 99.3824 86.8168C97.7487 86.8332 96.115 86.8042 94.4828 86.7293Z" fill="#19130F"/>
<path d="M102.205 70.2256C103.649 70.5776 104.406 71.1534 105.594 71.9734C107.259 74.2478 107.556 76.3462 107.7 79.0924C107.511 79.1833 107.612 79.1717 107.393 79.1103L107.387 77.9814C107.266 78.2521 107.211 78.4919 107.162 78.784C107.043 77.1425 106.677 75.5334 105.821 74.11C104.839 72.4787 103.58 71.6301 101.763 71.1699C102.002 71.0069 102.222 70.8701 102.394 70.6312L102.205 70.2256Z" fill="url(#paint0_linear_3039_10958)"/>
<path d="M95.4863 78.3729C95.6192 78.0137 95.8294 77.6593 96.0309 77.3349C96.7422 76.1924 97.8869 75.296 99.2089 75.0001C100.663 74.6747 101.958 75.1509 103.168 75.9405L102.435 75.9961L102.489 76.3234C101.354 76.1658 100.052 75.8979 98.9823 76.4322C98.8581 76.6734 98.8518 76.6604 98.9228 76.9205L98.9011 77.1594C98.271 76.7904 97.4858 76.8141 96.8794 77.2208C96.2725 77.6269 95.9512 78.3444 96.0517 79.0682C95.9352 78.7573 95.727 78.592 95.4863 78.3729Z" fill="url(#paint1_linear_3039_10958)"/>
<path d="M72.1693 85.9989C72.1157 85.9699 72.062 85.9404 72.0089 85.9105C70.2621 84.9091 69.2508 83.5553 68.7222 81.601C68.0853 79.2474 68.1389 76.3986 69.3822 74.2587C70.209 72.8101 71.5875 71.759 73.2024 71.3461C74.7187 70.9588 76.233 71.2358 77.5613 72.0457C79.4163 73.1761 80.6727 75.1652 81.1781 77.251C81.9333 80.3686 81.2902 82.7203 79.6748 85.3525C79.1941 85.6822 78.722 86.0333 78.1938 86.2837C77.7435 86.3142 77.4937 86.3828 77.0863 86.1653L76.909 85.5604C75.946 85.7712 75.1613 85.8911 74.2113 85.572L73.4367 85.2592L73.2328 85.5391L73.2826 85.8297L73.3169 86.1754C72.9192 86.2591 72.5505 86.1077 72.1693 85.9989ZM73.6131 76.6259L74.1843 77.0393L74.2103 76.6931C74.5476 76.6462 74.8259 76.5712 75.14 76.4402C74.9767 76.1448 74.6737 76.109 74.3655 75.9944L73.6131 76.6259Z" fill="url(#paint2_linear_3039_10958)"/>
<path d="M74.3656 75.9941C74.6739 76.1087 74.9769 76.1445 75.1402 76.4399C74.8261 76.571 74.5478 76.6459 74.2105 76.6928L74.1844 77.039L73.6133 76.6256L74.3656 75.9941Z" fill="#70685B" fill-opacity="0.988235"/>
<path d="M78.4459 76.0299C79.6225 77.038 80.1965 78.4498 80.3159 79.982C80.4207 81.3218 80.1308 83.1924 79.1939 84.2252C78.789 84.6715 77.4259 85.5553 77.3167 86.0446C77.609 86.1461 77.8902 86.2259 78.1946 86.2834C77.7443 86.3139 77.4945 86.3826 77.0871 86.165L76.9098 85.5601C75.9468 85.7709 75.1621 85.8908 74.2121 85.5717L73.4375 85.2589C73.3322 84.9872 73.4226 84.7014 73.4718 84.4234C72.6374 83.7112 72.143 82.9173 71.8227 81.8517C71.6106 81.1443 71.5139 80.2523 71.8628 79.5981C71.7434 78.9609 71.5603 78.1994 71.8821 77.5911C72.2001 76.9906 73.0181 76.8132 73.6139 76.6256L74.1851 77.039L74.2111 76.6928C74.5484 76.6459 74.8267 76.571 75.1408 76.4399C74.9775 76.1445 74.6745 76.1087 74.3663 75.9941C74.5407 76.0338 74.6765 76.0425 74.8548 76.0319C75.9589 75.9685 76.8712 76.2634 77.9269 76.3142C78.2096 76.3278 78.2459 76.2165 78.4459 76.0299Z" fill="black"/>
<path d="M78.4467 76.0299C79.6233 77.038 80.1973 78.4498 80.3167 79.982C80.4215 81.3218 80.1316 83.1924 79.1947 84.2252C78.7898 84.6715 77.4266 85.5553 77.3174 86.0446C77.6098 86.1461 77.891 86.2259 78.1954 86.2834C77.7451 86.3139 77.4953 86.3826 77.0879 86.165L76.9106 85.5601C76.9739 85.05 77.0546 84.906 76.7584 84.4616C77.0101 84.275 77.2609 84.0826 77.4783 83.8558C78.3355 82.9608 78.9023 81.7492 78.87 80.4955C78.8434 79.4777 78.4235 78.4706 77.6813 77.7681C76.6216 76.7643 75.6219 76.6362 74.2119 76.6928C74.5492 76.6459 74.8275 76.571 75.1416 76.4399C74.9783 76.1445 74.6753 76.1087 74.367 75.9941C74.5415 76.0338 74.6772 76.0425 74.8555 76.0319C75.9596 75.9685 76.8719 76.2634 77.9277 76.3142C78.2104 76.3278 78.2466 76.2165 78.4467 76.0299Z" fill="url(#paint3_linear_3039_10958)"/>
<path d="M73.6153 76.6252L74.1865 77.0386C74.6648 77.5893 75.0925 78.0008 75.062 78.7812C75.0427 79.2859 74.8542 79.737 74.4537 80.0557C74.1314 80.3129 73.7086 80.4086 73.3027 80.3598C72.7262 80.2906 72.2788 79.9817 71.8642 79.5978C71.7449 78.9605 71.5617 78.199 71.8835 77.5908C72.2015 76.9903 73.0195 76.8128 73.6153 76.6252Z" fill="#F9F5F4"/>
<path d="M76.7584 84.4612C77.0546 84.9055 76.9739 85.0496 76.9106 85.5597C75.9476 85.7705 75.1629 85.8904 74.2129 85.5713C74.6439 85.0578 74.8275 85.0805 75.462 84.9229L76.7584 84.4612Z" fill="#4A3A35"/>
<path d="M73.4738 84.4233C74.1469 84.7362 74.7268 84.8479 75.4632 84.9233C74.8287 85.0809 74.6451 85.0582 74.2141 85.5716L73.4395 85.2588C73.3342 84.9871 73.4245 84.7014 73.4738 84.4233Z" fill="#383533"/>
<path d="M73.2823 85.8295C73.0895 85.7725 72.918 85.6941 72.7508 85.5805C71.4476 84.6952 70.6943 83.4967 70.3943 81.9567C70.0517 80.1992 70.3329 78.3919 71.3747 76.9134C72.1193 75.8559 73.2543 74.961 74.5565 74.7516C76.0197 74.5171 77.3031 75.1829 78.4449 76.03C78.2448 76.2166 78.2086 76.3278 77.9259 76.3143C76.8701 76.2635 75.9578 75.9686 74.8537 76.0319C74.6754 76.0426 74.5396 76.0339 74.3652 75.9942L73.6129 76.6257C73.0171 76.8133 72.199 76.9907 71.8811 77.5912C71.5593 78.1995 71.7424 78.961 71.8617 79.5982C71.5129 80.2524 71.6095 81.1444 71.8216 81.8518C72.142 82.9174 72.6363 83.7113 73.4708 84.4235C73.4215 84.7015 73.3311 84.9873 73.4365 85.259L73.2326 85.5389L73.2823 85.8295Z" fill="url(#paint4_linear_3039_10958)"/>
<path d="M88.1323 59.573C90.499 59.5111 92.686 59.7059 94.972 60.333C94.5782 60.655 94.4525 60.6845 94.3747 61.2101C95.4615 61.4862 96.7361 61.7734 97.6992 62.3637C97.5929 62.4865 97.4315 62.7549 97.2725 62.766C96.5738 62.8153 92.0593 61.975 90.8701 61.8493C84.3648 61.1608 76.0272 62.8665 71.4184 67.892C70.5573 68.831 69.8079 70.0542 69.1416 71.1426L69.044 71.0062C69.2382 70.4096 69.6465 69.9416 69.9596 69.4073L69.6692 69.0384C69.23 69.3546 69.1967 70.0837 68.7386 70.266L68.6279 70.1243C68.9053 69.4581 69.3213 68.8227 69.6784 68.1947C71.4648 66.0325 73.2551 64.4592 75.6783 63.0483L75.3454 62.0997C75.643 61.9904 75.9378 61.8144 76.2233 61.6733C77.1385 61.344 78.0547 61.0583 78.9902 60.7938C79.3463 60.7773 79.5927 60.5332 79.8647 60.3258L80.7084 60.2411L81.438 60.1396C83.5805 59.4671 85.9129 59.5401 88.1323 59.573Z" fill="#CF7F27"/>
<path d="M88.1324 59.573C90.4992 59.5111 92.6861 59.7059 94.9721 60.333C94.5783 60.655 94.4527 60.6845 94.3749 61.2101C91.5129 60.5694 88.5784 60.3103 85.6483 60.4399L83.7344 60.6657C82.5066 60.9093 81.2145 61.2652 79.9727 61.3812C80.2954 61.0718 80.4921 60.6289 80.7086 60.2411L81.4382 60.1396C83.5807 59.4671 85.9131 59.5401 88.1324 59.573Z" fill="black"/>
<path d="M79.8651 60.3258L80.7087 60.2412C80.4923 60.629 80.2956 61.0719 79.9728 61.3813C78.5232 61.8778 77.063 62.3855 75.6786 63.0484L75.3457 62.0998C75.6434 61.9905 75.9381 61.8145 76.2237 61.6733C77.1389 61.3441 78.055 61.0583 78.9905 60.7938C79.3466 60.7774 79.593 60.5332 79.8651 60.3258Z" fill="black"/>
<path d="M71.5507 86.3624C70.3393 85.6425 69.4579 84.6706 68.8018 83.4213C67.5643 81.0642 67.2067 78.0404 68.0228 75.5006C68.6563 73.5294 69.9996 71.6713 71.8754 70.7251C73.182 70.0661 74.6717 69.937 76.0614 70.4084C78.2338 71.1453 80.0487 72.9483 81.0427 74.9852C82.2806 77.5226 82.5164 80.8249 81.3471 83.4343C80.9803 84.2524 80.385 84.9419 80.0946 85.7957L80.226 85.9703C80.6967 85.9234 81.048 85.759 81.4664 85.5588L81.8844 85.6913C81.0803 85.8127 80.343 86.2449 79.6196 86.6003C79.6172 86.1289 79.8293 85.8349 79.6757 85.3519C81.291 82.7197 81.9342 80.368 81.1789 77.2504C80.6735 75.1646 79.4172 73.1755 77.5622 72.0451C76.2338 71.2352 74.7195 70.9582 73.2032 71.3455C71.5884 71.7584 70.2098 72.8095 69.383 74.258C68.1398 76.398 68.0861 79.2468 68.723 81.6004C69.2516 83.5547 70.263 84.9085 72.0097 85.9098C72.0629 85.9398 72.1165 85.9693 72.1701 85.9983C71.8203 86.0825 71.7884 86.0679 71.5507 86.3624Z" fill="#19130F"/>
<path d="M81.4672 85.5591C83.2724 84.127 86.7785 83.7711 89.0181 84.0235C91.1288 84.2619 92.517 84.9112 93.8332 86.6107L93.9381 86.7476L94.2217 86.5812L94.4836 86.7292C96.1159 86.8041 97.7496 86.8331 99.3833 86.8167C99.0701 86.7205 98.7053 86.5464 98.5024 86.279C98.2618 85.9614 98.3052 85.753 98.3763 85.3996C99.506 85.6945 100.814 85.5412 101.862 85.9696C101.934 85.9991 102.008 86.0228 102.08 86.0489L102.234 86.1055L103.564 85.8178C103.68 86.0262 103.796 86.2341 103.914 86.441L103.968 86.4023C106.034 86.8215 109.172 87.4917 110.389 89.3932C110.452 89.4924 110.503 89.5963 110.551 89.7041L110.122 90.073C110.371 90.4632 110.467 90.5817 110.351 91.0565C109.625 94.0387 105.597 97.1543 103.073 98.6348C96.3705 102.567 87.8483 104.354 80.2418 102.35C73.7326 100.636 68.4015 96.8367 65.0205 91.0125C67.9854 87.9254 72.1313 87.1039 76.2718 86.9956C77.1691 86.9724 78.3264 87.2252 79.1763 87.0459C79.4382 86.9903 79.4783 86.8162 79.6204 86.6006C80.3437 86.2452 81.0811 85.8129 81.8852 85.6916L81.4672 85.5591Z" fill="#ECD4A5"/>
<path d="M81.4674 85.5591C83.2726 84.127 86.7787 83.7711 89.0183 84.0235C91.1289 84.2619 92.5172 84.9112 93.8334 86.6107L93.9383 86.7476C94.2547 88.0723 94.2142 89.1588 93.4869 90.353C92.4186 92.1066 90.4819 93.0088 88.5873 93.5711C88.9966 94.0295 89.4203 94.4811 89.8132 94.9535C91.4599 95.3799 93.1013 95.509 94.6432 94.6232C96.2537 93.6983 96.2547 92.1366 96.9128 91.6512C97.1984 91.9621 97.2602 92.0365 97.354 92.4441C97.1936 93.4706 96.0088 94.4439 95.2115 95.0216C94.5311 95.5148 93.8184 95.7445 93.0062 95.9205L92.5065 96.1907L92.2722 95.9877L91.53 96.1762L91.0453 96.0781C90.6307 96.7714 89.6663 97.0402 88.9284 97.2244C87.9731 97.4633 85.7282 97.8308 84.8299 97.3241C84.6202 97.2056 84.44 97.0127 84.2767 96.8377L84.1206 97.1785C82.4879 95.7034 80.1352 95.5656 78.4024 94.1059C77.7699 93.5736 77.0441 92.9247 76.9688 92.0539C77.0543 91.6584 77.1572 91.4892 77.4626 91.2238C78.056 91.5666 77.9651 92.5819 78.3343 93.1452C79.1127 94.3341 80.7 95.1212 82.0631 95.3499C84.2501 95.7164 85.6939 94.8921 87.4117 93.6824C86.4859 93.4609 85.5518 93.2433 84.6676 92.8851C83.289 92.3271 82.1071 91.4205 81.5273 90.016C80.8672 88.4175 81.2586 87.1851 81.8853 85.6916L81.4674 85.5591Z" fill="#19130F"/>
<path d="M85.8748 95.4939C87.3685 96.2403 89.4414 95.6635 91.0441 96.078C90.6295 96.7713 89.665 97.0401 88.9271 97.2243C87.9719 97.4632 85.7269 97.8306 84.8286 97.3239C84.6189 97.2055 84.4387 97.0126 84.2754 96.8375C84.2797 96.81 84.2802 96.7815 84.2884 96.7549C84.4392 96.2738 85.4573 95.7579 85.8748 95.4939Z" fill="#ED7455"/>
<path d="M86.1641 94.9081C86.7714 94.3782 87.307 94.0239 88.1251 93.9766C88.5884 94.1037 88.7909 94.2923 89.0973 94.6433L89.1813 95.0209C88.7174 95.4817 88.1424 95.1401 87.5022 95.2426C87.0494 95.2842 86.5878 95.1199 86.1641 94.9081Z" fill="white"/>
<path d="M86.3976 85.2127C86.9194 85.1827 87.652 85.0913 88.1439 85.2847C88.4579 85.408 88.4758 85.4627 88.6097 85.7673C88.5618 85.9094 88.5227 86.0308 88.4246 86.1483C87.7868 86.9156 86.8175 87.0529 85.8931 87.1868C85.6288 87.2052 85.3548 87.195 85.091 87.1752C84.3778 87.1225 83.9478 87.0152 83.4844 86.4838C83.5066 86.419 83.5211 86.3591 83.5573 86.301C84.0603 85.4926 85.5501 85.3534 86.3976 85.2127Z" fill="#D9DFED"/>
<path d="M91.0446 96.0782L91.5293 96.1764L92.2715 95.9878C92.286 97.2357 91.0983 98.4014 90.3155 99.2688C88.447 99.8558 86.3513 100.404 84.4997 99.4574C83.9111 99.1566 83.6985 98.6896 83.2356 98.2781C83.1704 98.2138 83.2143 97.9883 83.1539 97.9191C82.9302 97.7565 82.4711 96.5975 82.4847 96.2465C82.9698 96.1982 83.1541 96.2465 83.4886 96.581L84.1199 97.1787L84.276 96.8378C84.4393 97.0128 84.6195 97.2057 84.8292 97.3242C85.7275 97.8309 87.9724 97.4634 88.9277 97.2246C89.6656 97.0404 90.6301 96.7715 91.0446 96.0782Z" fill="#F9F5F4"/>
<path d="M91.0452 96.0779L91.5298 96.176C90.4436 97.4491 89.2588 98.0128 87.5748 98.1424C86.2654 98.243 85.1767 98.0293 84.1055 97.2716L84.1205 97.1783L84.2765 96.8375C84.4398 97.0125 84.6201 97.2054 84.8298 97.3239C85.7281 97.8306 87.973 97.4631 88.9283 97.2242C89.6661 97.04 90.6306 96.7712 91.0452 96.0779Z" fill="#EE7443"/>
<path d="M98.3753 85.3994C99.505 85.6943 100.814 85.5411 101.861 85.9695C101.933 85.9989 102.007 86.0226 102.079 86.0487L102.233 86.1053L103.563 85.8176C103.679 86.026 103.795 86.2339 103.913 86.4409L103.967 86.4022C106.033 86.8214 109.171 87.4915 110.388 89.3931C110.451 89.4922 110.502 89.5962 110.55 89.704L110.121 90.0729C109.326 89.7988 108.565 88.9101 107.797 88.4938C105.313 87.1487 102.139 86.9336 99.3823 86.8165C99.0692 86.7203 98.7043 86.5463 98.5014 86.2789C98.2608 85.9612 98.3043 85.7529 98.3753 85.3994Z" fill="black"/>
<path d="M92.2719 95.9876L92.5063 96.1907L93.0059 95.9204C92.4782 97.2616 91.6602 99.1458 90.2328 99.7381C88.8277 100.322 85.896 100.34 84.5 99.7381C83.9385 99.4959 83.3453 99.2686 82.8199 97.9191C82.773 97.7987 82.4854 96.1148 82.4854 95.9876C82.9483 96.3991 83.1619 97.9964 84.5 99C87.5107 100.004 91.852 99.5917 92.2719 95.9876Z" fill="black"/>
<path d="M118.458 34.1691C117.67 32.8483 116.383 31.1233 116.379 29.5302C116.378 29.0547 116.495 28.5399 116.86 28.2109C117.206 27.8989 117.712 27.8118 118.165 27.828C119.286 27.8681 120.377 28.4428 121.121 29.2687C121.511 29.7007 122.033 30.297 121.995 30.9041C122.489 31.1334 122.76 31.7394 122.943 32.2269C123.111 32.6728 123.253 33.1017 123.062 33.5639C123.493 34.5895 122.911 36.9327 122.773 38.059L122.441 38.4719C122.736 39.2913 122.415 41.0121 122.033 41.7763C121.97 41.9036 121.885 42.0175 121.793 42.1252C121.872 43.2327 120.492 44.9355 119.776 45.7756C119.537 46.0567 119.29 46.2832 118.982 46.4868C118.623 47.1211 117.787 47.7081 117.204 48.141C115.987 48.7679 114.676 49.2275 113.4 49.7201C112.773 50.3528 112.061 51.0057 111.582 51.7587C108.561 53.5155 105.146 55.1995 102.656 57.6819C101.466 59.0347 100.54 60.6428 99.5979 62.1736C99.1094 62.0488 98.7064 61.8463 98.2624 61.6142C98.0623 61.8279 97.827 62.0145 97.7922 62.3196L97.7004 62.3636C96.7374 61.7732 95.4627 61.486 94.376 61.21C94.4538 60.6844 94.5794 60.6549 94.9732 60.3329L95.1679 60.3832C96.8273 57.7626 97.7758 55.1374 100.1 52.9542C100.946 52.0688 102.372 50.4333 103.62 50.3346C104.762 49.714 105.842 49.0146 107.051 48.5226C107.365 48.0726 107.994 47.3426 108.018 46.7887C108.08 45.3866 104.24 43.8663 104.143 41.6401C104.117 41.0243 104.449 40.4884 104.872 40.0699C105.724 39.2254 106.79 38.7946 107.99 38.8226C111.354 38.9011 111.986 42.7207 113.955 44.7597L115.509 44.8937C116.807 44.2798 117.444 43.4476 118.126 42.2052C118.117 41.7229 118.254 41.2123 118.292 40.7257C118.412 39.19 118.443 37.6278 118.183 36.1053C118.347 35.8085 118.174 34.8359 118.458 34.1691Z" fill="#DBBF9E"/>
<path d="M107.048 48.5228C107.363 48.0728 107.991 47.3429 108.016 46.7889C108.078 45.3868 104.238 43.8666 104.141 41.6403C104.114 41.0245 104.447 40.4886 104.869 40.0701C105.722 39.2256 106.787 38.7948 107.987 38.8228C111.351 38.9013 111.984 42.7209 113.952 44.7599L115.507 44.8939C116.804 44.28 117.442 43.4478 118.124 42.2054C118.158 42.9517 118.052 43.6075 117.903 44.3375C117.178 45.0995 115.914 46.0178 114.813 46.0468C113.991 46.0685 113.259 45.6099 112.715 45.0289C111.178 43.3893 110.526 39.9099 107.789 39.8135C107.175 39.7918 106.362 39.9419 105.905 40.3788C105.554 40.7148 105.208 41.2935 105.239 41.7884C105.386 44.1162 111.024 45.1532 108.661 48.121C107.573 49.4878 105.596 50.4386 104.032 51.1618C103.17 51.7127 102.305 52.488 101.432 52.971C99.9647 53.2402 99.3365 55.3284 98.1406 55.981C98.1822 55.2609 99.6603 53.8487 100.153 53.2756L100.098 52.9544C100.944 52.069 102.37 50.4335 103.618 50.3348C104.76 49.7142 105.84 49.0148 107.048 48.5228Z" fill="black"/>
<path d="M118.456 34.1694C119.603 36.6604 120.276 39.2334 119.293 41.9282C118.969 42.8139 118.495 43.606 117.903 44.3376C118.052 43.6076 118.158 42.9518 118.124 42.2055C118.114 41.7232 118.252 41.2126 118.29 40.726C118.41 39.1903 118.441 37.6281 118.181 36.1056C118.344 35.8088 118.172 34.8362 118.456 34.1694Z" fill="black"/>
<path d="M100.1 52.9546L100.156 53.2758C99.6627 53.8489 98.1846 55.2612 98.143 55.9812C99.3389 55.3287 99.9671 53.2404 101.434 52.9712C99.208 55.3853 97.1264 57.6306 96.0619 60.8043C96.7987 61.0654 97.5322 61.3351 98.2624 61.6146C98.0623 61.8283 97.827 62.0149 97.7922 62.32L97.7004 62.364C96.7374 61.7737 95.4627 61.4865 94.376 61.2104C94.4538 60.6848 94.5794 60.6553 94.9732 60.3333L95.1679 60.3836C96.8273 57.7631 97.7758 55.1378 100.1 52.9546Z" fill="black"/>
<path d="M102.655 57.682C102.674 57.5331 102.702 57.3856 102.721 57.2367C102.738 57.1033 102.744 56.9776 102.787 56.8485C103.413 54.9793 111.427 50.6925 113.399 49.7202C112.773 50.3529 112.06 51.0058 111.581 51.7588C108.561 53.5156 105.145 55.1996 102.655 57.682Z" fill="#AD9D8A"/>
<path d="M121.994 30.9045C122.488 31.1338 122.759 31.7398 122.942 32.2273C123.11 32.6732 123.252 33.1021 123.061 33.5643C123.492 34.5899 122.91 36.9331 122.772 38.0594L122.44 38.4723C123.12 37.0995 122.337 32.4289 121.994 30.9045Z" fill="#AD9D8A"/>
<path d="M108.017 64.9537C109.251 64.2952 110.319 63.4554 111.44 62.63C114.39 60.4572 118.69 59.2001 122.352 59.761L122.442 60.0071C122.739 60.9596 121.698 62.8718 121.236 63.7498C120.632 64.901 119.946 66.2012 118.966 67.0739C118.108 68.7052 115.602 69.8815 113.896 70.4158C111.927 71.0371 109.856 71.2624 107.8 71.0787C106.91 70.2123 106.279 68.7671 105.684 67.6894C105.953 66.7828 107.314 65.6089 108.017 64.9537Z" fill="#F57644"/>
<path d="M103.343 64.817C103.143 64.6202 103.111 64.5308 103.06 64.2668C103.286 63.674 103.717 63.1958 104.139 62.7327C107.749 58.7767 113.06 55.9744 118.449 55.7565C119.693 55.7061 122.417 55.7199 123.34 56.5711L123.357 56.9399C123.009 57.1927 122.706 57.1584 122.29 57.1923C122.765 57.3214 123.234 57.346 123.558 57.7265C123.53 58.0277 123.5 58.1694 123.339 58.4257L122.952 58.3067C123.027 58.7854 123.019 59.2824 122.72 59.691C122.638 59.8046 122.54 59.9066 122.443 60.0072L122.352 59.7611C118.69 59.2002 114.39 60.4573 111.44 62.6301C110.32 63.4555 109.251 64.2953 108.018 64.9538C107.315 65.609 105.953 66.7829 105.684 67.6895C105.484 67.366 105.436 67.0981 105.38 66.7249C105.319 66.5189 105.232 66.3521 105.134 66.1621L104.503 65.9692C104.151 65.563 103.729 65.1927 103.343 64.817Z" fill="#D19C6B"/>
<path d="M111.106 61.1152C111.64 60.5186 112.644 60.0462 113.379 59.7164C115.63 58.7064 120.566 57.4053 122.952 58.307C123.027 58.7857 123.019 59.2827 122.72 59.6913C122.638 59.8049 122.54 59.9069 122.443 60.0075L122.352 59.7614C118.69 59.2005 114.39 60.4576 111.44 62.6305C110.32 63.4558 109.251 64.2956 108.018 64.9542C107.315 65.6093 105.953 66.7832 105.684 67.6898C105.484 67.3663 105.436 67.0985 105.38 66.7252C106.424 64.5901 109.156 62.4695 111.106 61.1152Z" fill="#D35B3A"/>
<path d="M113.846 58.3943C116.819 57.263 119.116 56.8539 122.29 57.1924C122.765 57.3215 123.234 57.3461 123.558 57.7266C123.53 58.0279 123.5 58.1695 123.339 58.4258L122.952 58.3068C120.566 57.4051 115.631 58.7062 113.379 59.7162C112.644 60.046 111.64 60.5184 111.106 61.115C109.156 62.4693 106.424 64.5899 105.38 66.725C105.319 66.519 105.232 66.3522 105.134 66.1622L104.503 65.9693C104.769 65.8083 105.019 65.5772 105.266 65.3852C107.791 62.3392 110.506 60.4449 113.846 58.3943Z" fill="black"/>
<path d="M105.152 63.6136C105.308 63.4333 105.467 63.2559 105.629 63.0818C107.398 61.1884 111.193 58.4886 113.844 58.3943C110.505 60.4448 107.79 62.3391 105.265 65.3852C105.08 64.7416 105.049 64.2736 105.152 63.6136Z" fill="#CE9258"/>
<path d="M129.497 33.2931C129.973 32.3929 130.222 32.0228 131.219 31.7175C132.133 31.4379 133.232 31.4346 134.101 31.8814C134.351 32.01 134.647 32.2104 134.827 32.4259C135.206 32.8201 135.347 33.3848 135.524 33.8911L135.476 34.2145C135.918 34.6409 135.972 35.0903 135.989 35.6739C136.022 36.8026 135.808 38.4156 135.024 39.2916L134.864 39.3846C134.508 39.2288 134.312 39.2035 133.931 39.2821C133.918 40.1928 132.816 41.3305 132.191 41.9342C131.671 42.4368 131.147 42.9425 130.448 43.1827L130.191 43.1407C129.87 43.3121 129.623 43.4177 129.258 43.4531C129.085 43.2647 128.912 43.2489 128.673 43.2019L128.572 43.1828C127.612 43.9494 123.732 45.9496 122.552 45.8653C122.401 45.6519 122.336 45.5266 122.283 45.2625C123.32 44.0192 123.703 42.2474 124.17 40.7218C124.369 40.8259 124.569 40.9277 124.777 41.0113C125.715 41.3876 126.797 41.205 127.698 40.8121C128.562 40.4354 129.382 39.7516 129.711 38.8462C129.948 38.197 130.108 37.1118 129.824 36.4702C130.031 35.5394 129.768 34.7193 129.755 33.7908C129.753 33.6087 129.596 33.4457 129.497 33.2931Z" fill="#DBBF9E"/>
<path d="M129.498 33.2931C129.974 32.3929 130.223 32.0228 131.22 31.7175C132.134 31.4379 133.233 31.4346 134.102 31.8814C134.352 32.01 134.648 32.2104 134.828 32.4259C135.207 32.8201 135.348 33.3848 135.525 33.8911L135.476 34.2145C135.919 34.6409 135.973 35.0903 135.989 35.6739C136.022 36.8026 135.809 38.4156 135.024 39.2916L134.865 39.3846C134.509 39.2288 134.313 39.2035 133.932 39.2821C133.918 40.1928 132.817 41.3305 132.192 41.9342C131.672 42.4368 131.147 42.9425 130.449 43.1827L130.192 43.1407C129.871 43.3121 129.623 43.4177 129.258 43.4531C129.086 43.2647 128.912 43.2489 128.674 43.2019L128.572 43.1828C128.933 42.9746 129.283 42.755 129.615 42.5031C131.688 40.9324 133.574 38.3149 133.895 35.7014C133.988 34.9421 133.955 33.7186 133.461 33.1045C133.243 32.7958 133.158 32.7004 132.766 32.6081C132.253 32.487 131.537 32.5801 131.125 32.9122C130.06 33.7708 130.625 35.5796 129.824 36.4702C130.032 35.5394 129.769 34.7193 129.756 33.7908C129.753 33.6087 129.597 33.4457 129.498 33.2931Z" fill="#AD9D8A"/>
<path d="M129.498 33.2931C129.974 32.3929 130.223 32.0228 131.221 31.7175C132.134 31.4379 133.233 31.4346 134.102 31.8814C134.352 32.01 134.648 32.2104 134.828 32.4259C135.208 32.8201 135.349 33.3848 135.525 33.8911L135.477 34.2145C135.919 34.6409 135.973 35.0903 135.99 35.6739C136.023 36.8026 135.809 38.4156 135.025 39.2916L134.865 39.3846C134.509 39.2288 134.314 39.2035 133.932 39.2821C134.095 39.0883 134.223 38.8891 134.323 38.6571C134.637 37.9339 135.119 36.7595 134.825 35.9817C135.022 35.346 134.952 34.6576 134.633 34.0742C134.352 33.5575 134.02 33.2849 133.462 33.1045C133.244 32.7958 133.158 32.7004 132.767 32.6081C132.254 32.487 131.538 32.5801 131.125 32.9122C130.06 33.7708 130.625 35.5796 129.825 36.4702C130.032 35.5394 129.77 34.7193 129.756 33.7908C129.754 33.6087 129.598 33.4457 129.498 33.2931Z" fill="#19130F"/>
<path d="M78.0303 176.44C78.1182 175.903 78.2308 175.332 78.4159 174.821C79.2407 172.54 81.5499 171.023 83.6552 170.091C83.9659 170.505 84.1316 170.54 84.6008 170.714L84.7941 171.572C86.0997 172.838 87.3034 173.421 89.1125 173.744L89.342 173.753C90.7109 174.721 90.4891 176.185 91.4396 177.357C90.7872 178.298 89.7609 178.588 88.6636 178.779C86.034 179.236 83.5296 178.543 81.045 177.761C80.712 177.932 80.4545 178.106 80.1805 178.361C79.3905 178.124 78.584 177.035 78.0303 176.44Z" fill="#057631"/>
<path d="M78.0303 176.44C78.1182 175.903 78.2308 175.332 78.4159 174.821C79.2407 172.54 81.5499 171.023 83.6552 170.091C83.9659 170.505 84.1316 170.54 84.6008 170.714L84.7941 171.572L84.6907 172.177C83.8045 174.052 82.2032 175.196 80.5874 176.395C80.3941 176.626 80.2651 176.817 80.1477 177.094L81.045 177.761C80.712 177.932 80.4545 178.106 80.1805 178.361C79.3905 178.124 78.584 177.035 78.0303 176.44Z" fill="#51A53A"/>
<path d="M78.0303 176.44C78.1182 175.903 78.2308 175.332 78.4159 174.821C79.2407 172.54 81.5499 171.023 83.6552 170.091C83.9659 170.505 84.1316 170.54 84.6008 170.714C83.1145 170.926 81.0802 172.772 80.182 173.945C79.7635 174.492 79.2576 175.309 79.361 176.03C79.4204 176.446 79.8597 176.811 80.1477 177.094L81.045 177.761C80.712 177.932 80.4545 178.106 80.1805 178.361C79.3905 178.124 78.584 177.035 78.0303 176.44Z" fill="black"/>
<path d="M84.6893 172.177C83.8031 174.052 82.2018 175.195 80.5859 176.395C80.6961 175.502 81.1469 174.567 81.4301 173.71C82.4511 172.922 83.5402 172.692 84.6893 172.177Z" fill="#3D8E26"/>
<path d="M85.9664 135.204C86.9903 136.936 88.1954 138.967 89.8001 140.226L90.248 140.701C90.5225 141.038 90.5491 141.151 90.5022 141.601C90.3814 142.768 90.1519 143.928 90.006 145.093L89.6271 145.203C85.8277 144.319 81.6065 140.484 79.5684 137.232C79.8109 136.577 80.139 135.978 80.4719 135.366C81.1281 135.659 81.7848 135.956 82.4526 136.222C83.3402 136.575 83.995 136.717 84.8927 136.328L85.1459 135.46C85.2977 135.434 85.2281 135.462 85.3808 135.342C85.4214 135.31 85.461 135.276 85.5011 135.243L85.7127 135.326L85.7731 135.513L85.9664 135.204Z" fill="#C2BA68"/>
<path d="M85.9662 135.204C86.9901 136.936 88.1952 138.967 89.7999 140.226L90.2479 140.701C90.1435 140.801 90.0343 140.911 89.913 140.989C89.7096 141.12 89.555 141.195 89.3235 141.12C87.7715 140.62 85.6845 137.734 84.8926 136.328L85.1458 135.46C85.2975 135.434 85.2279 135.462 85.3806 135.342C85.4212 135.31 85.4608 135.276 85.5009 135.243L85.7126 135.326L85.773 135.513L85.9662 135.204Z" fill="#DBBF9E"/>
<path d="M65.1672 131.317C64.124 131.096 62.8677 130.389 62.24 129.519C62.2356 129.474 62.1917 129.136 62.2004 129.124C62.3912 128.853 65.3093 128.642 65.9268 128.349C67.9335 127.397 69.2734 124.709 70.6191 123.008L70.9815 123.675C70.5433 124.515 70.0408 125.311 69.5382 126.114C70.8646 126.279 72.6553 126.971 73.5246 128.05C73.628 128.178 73.6783 128.286 73.7425 128.436C73.5188 129.183 73.2995 129.998 72.782 130.605C71.7808 131.801 71.1357 133.427 70.2162 134.732C70.0591 134.992 70.0379 135.096 69.7272 135.179C69.5001 135.24 69.2488 135.186 69.0207 135.15C68.8975 134.437 68.8043 133.458 68.4849 132.813C67.8958 131.623 66.2776 131.697 65.1672 131.317Z" fill="#F57644"/>
<path d="M69.5379 126.114C70.8643 126.279 72.655 126.971 73.5243 128.05C73.6277 128.178 73.6779 128.286 73.7422 128.436C73.5185 129.183 73.2991 129.998 72.7816 130.605C71.4475 129.183 69.8906 128.484 68.126 127.753C68.5729 127.187 69.0595 126.653 69.5379 126.114Z" fill="#F9F5F4"/>
<path d="M65.1672 131.317C64.124 131.096 62.8677 130.389 62.24 129.519C62.2356 129.474 62.1917 129.136 62.2004 129.124C62.3912 128.853 65.3093 128.642 65.9268 128.349C67.9335 127.397 69.2734 124.709 70.6191 123.008L70.9815 123.675C70.5433 124.515 70.0408 125.311 69.5382 126.114C69.0599 126.653 68.5733 127.187 68.1263 127.752C67.4812 128.389 66.8106 128.928 65.9717 129.288C65.3185 129.482 64.4709 129.619 63.8805 129.933C64.0254 130.515 64.7686 130.876 65.1672 131.317Z" fill="black"/>
<path d="M65.9712 129.289L66.2104 130.547C67.3265 130.759 68.4959 130.886 69.1931 131.9C69.7198 132.667 69.9745 133.567 70.1272 134.472C70.1431 134.568 70.1731 134.645 70.2156 134.732C70.0586 134.992 70.0373 135.096 69.7266 135.18C69.4995 135.24 69.2482 135.186 69.0202 135.15C68.8969 134.437 68.8037 133.458 68.4843 132.813C67.8953 131.623 66.277 131.697 65.1666 131.317C64.768 130.876 64.0248 130.515 63.8799 129.933C64.4704 129.619 65.3179 129.482 65.9712 129.289Z" fill="black"/>
<path d="M65.9712 129.289L66.2104 130.547C65.4063 130.453 64.6023 130.31 63.8799 129.933C64.4704 129.619 65.3179 129.482 65.9712 129.289Z" fill="#D35B3A"/>
<path d="M123.339 56.571C123.977 56.7087 124.62 56.8697 125.016 57.4368C125.483 59.5845 123.278 64.4577 122.104 66.2805C121.908 66.5846 121.686 66.9095 121.392 67.1252C121.124 67.7905 119.891 69.2177 119.219 69.4522C119.183 69.4643 119.145 69.4682 119.108 69.4764C118.268 70.8882 115.507 71.9717 113.961 72.3682C112.611 72.7144 109.416 73.3594 108.245 72.5539C108.003 72.388 107.85 72.0776 107.715 71.8252C107.615 71.4505 107.657 71.4225 107.799 71.0787C109.855 71.2624 111.926 71.0371 113.895 70.4158C115.601 69.8816 118.107 68.7052 118.965 67.0739C119.945 66.2012 120.631 64.9011 121.235 63.7499C121.697 62.8718 122.738 60.9596 122.441 60.0071C122.539 59.9065 122.637 59.8045 122.719 59.6909C123.017 59.2824 123.026 58.7853 122.951 58.3067L123.338 58.4256C123.499 58.1693 123.529 58.0277 123.557 57.7265C123.232 57.3459 122.764 57.3213 122.289 57.1922C122.705 57.1584 123.008 57.1927 123.356 56.9398L123.339 56.571Z" fill="#9F5F2C"/>
<path d="M118.965 67.074L119.181 67.4526C118.961 68.3427 117.639 69.33 116.873 69.7907C114.735 71.0764 112.497 71.5715 110.031 71.701C109.289 71.7402 108.439 71.689 107.715 71.8253C107.615 71.4506 107.657 71.4225 107.799 71.0788C109.855 71.2625 111.926 71.0372 113.895 70.4159C115.601 69.8816 118.107 68.7053 118.965 67.074Z" fill="#1D0200"/>
<path d="M122.951 58.3066L123.338 58.4256C123.691 59.2258 122.835 61.3299 122.503 62.1804C121.972 63.5434 120.524 66.8452 119.181 67.4525L118.966 67.0739C119.945 66.2012 120.632 64.9011 121.236 63.7498C121.697 62.8718 122.738 60.9596 122.442 60.0071C122.54 59.9065 122.637 59.8045 122.72 59.6909C123.018 59.2823 123.027 58.7853 122.951 58.3066Z" fill="black"/>
<path d="M106.094 70.3516C108.078 74.3801 111.641 85.2085 110.81 89.4748L110.55 89.704C110.502 89.5962 110.451 89.4922 110.388 89.3931C109.171 87.4915 106.033 86.8214 103.967 86.4022L103.913 86.4409C103.795 86.234 103.679 86.0261 103.563 85.8177C104.048 85.6243 104.439 85.4004 104.839 85.0615C106.712 83.4722 106.996 81.0823 107.161 78.7837C107.21 78.4917 107.266 78.2519 107.387 77.9811L107.393 79.1101C107.612 79.1715 107.51 79.1831 107.7 79.0922C107.555 76.346 107.259 74.2476 105.593 71.9732C105.812 72.0167 105.971 72.1105 106.167 72.2125C106.482 71.9505 105.989 71.0367 106.072 70.4729C106.078 70.4323 106.087 70.3917 106.094 70.3516Z" fill="#CC7C27"/>
<path d="M107.161 78.7838C107.21 78.4918 107.266 78.252 107.387 77.9812L107.393 79.1102C107.612 79.1716 107.51 79.1832 107.7 79.0923C107.752 81.5276 107.113 83.5675 105.403 85.3502C105.008 85.7616 104.554 86.0092 104.088 86.322L103.967 86.4023L103.913 86.4409C103.795 86.234 103.679 86.0261 103.563 85.8177C104.048 85.6243 104.439 85.4005 104.839 85.0615C106.712 83.4723 106.996 81.0823 107.161 78.7838Z" fill="#302217"/>
<path d="M74.7513 109.919C75.4075 110.109 75.9753 110.176 76.658 110.181L77.1939 110.25C77.4804 111.03 77.0199 111.97 76.6865 112.704C75.795 114.671 74.33 115.517 72.9876 117.057L72.4697 116.402C72.4155 116.121 72.3663 115.808 72.2585 115.542C72.0599 115.052 71.4573 114.823 71.0104 114.605L70.3107 115.834L69.9092 114.877C70.7693 112.366 72.5078 111.111 74.7513 109.919Z" fill="#EE7443"/>
<path d="M74.7513 109.919C75.4075 110.109 75.9753 110.176 76.658 110.181C74.0768 110.857 72.3807 112.365 71.0104 114.605L70.3107 115.834L69.9092 114.877C70.7693 112.366 72.5078 111.111 74.7513 109.919Z" fill="black"/>
<path d="M81.0205 127.62L81.1534 127.341C81.2998 127.203 81.4046 127.131 81.6071 127.089C82.2802 126.95 83.3853 127.044 83.9786 127.399C83.9767 129.363 84.4623 131.25 85.149 133.084C85.4292 133.787 85.7013 134.494 85.9661 135.204L85.7728 135.512L85.7124 135.326L85.5007 135.243C85.4606 135.276 85.421 135.309 85.3804 135.342C85.2277 135.462 85.2973 135.434 85.1456 135.46C85.1093 135.361 85.0692 135.265 85.0291 135.167C84.7252 134.415 84.2101 133.831 83.7182 133.196C82.3242 131.398 81.5187 129.863 81.0205 127.62Z" fill="#EED9AD"/>
<path d="M92.5907 171.201C92.2177 169.94 93.0391 165.994 93.2967 164.515C93.5006 163.344 93.8649 160.479 94.8849 159.789C95.1299 159.624 95.2845 159.489 95.4672 159.256C95.4875 159.23 95.5063 159.204 95.5262 159.178C94.6216 162.694 93.7325 166.318 94.1399 169.976C94.2191 170.692 94.7603 171.747 94.7603 172.367C94.7603 172.666 94.5926 172.751 94.3906 172.917C93.9374 172.934 93.7059 172.785 93.373 172.486C92.9613 172.115 92.7864 171.71 92.5907 171.201Z" fill="#9F5F2C"/>
<path d="M70.9804 123.675C71.3394 123.254 71.4327 123.056 71.9729 122.897C72.6054 123.004 73.1891 123.602 73.681 123.998C73.7139 125.392 73.5148 127.089 73.7414 128.436C73.6772 128.286 73.6269 128.178 73.5235 128.05C72.6542 126.971 70.8635 126.279 69.5371 126.114C70.0396 125.311 70.5422 124.515 70.9804 123.675Z" fill="#F57644"/>
<path d="M128.572 43.1828L128.673 43.2018C128.912 43.2489 129.085 43.2646 129.258 43.453C129.623 43.4177 129.87 43.312 130.191 43.1406L130.448 43.1826C129.876 44.4539 124.607 46.4944 123.32 46.9827C122.26 47.385 121.24 47.7334 120.111 47.901C120.882 47.3621 122.038 46.3135 122.269 45.3668C122.277 45.3328 122.278 45.2973 122.283 45.2625C122.336 45.5266 122.401 45.6519 122.552 45.8653C123.732 45.9495 127.613 43.9494 128.572 43.1828Z" fill="#B5A08A"/>
<path d="M123.06 33.5637C123.737 34.2664 123.668 35.6212 123.653 36.551C123.634 37.7262 123.524 41.1905 122.634 41.9989C122.606 42.0246 122.575 42.0471 122.546 42.0712C122.751 42.7759 122.11 43.8932 121.771 44.5051C121.428 45.1245 120.932 46.0469 120.257 46.3533C119.829 46.5197 119.43 46.4963 118.98 46.4866C119.288 46.283 119.535 46.0566 119.775 45.7754C120.491 44.9353 121.871 43.2325 121.792 42.125C121.884 42.0173 121.968 41.9035 122.032 41.7762C122.413 41.0119 122.735 39.2911 122.439 38.4717L122.772 38.0588C122.91 36.9325 123.491 34.5894 123.06 33.5637Z" fill="#B5A08A"/>
<path d="M71.0095 114.605C71.4565 114.823 72.059 115.052 72.2576 115.542C72.3654 115.808 72.4147 116.121 72.4688 116.402C72.3755 116.895 72.3876 117.227 71.9547 117.554C71.5464 117.863 70.5969 117.793 70.1089 117.76C70.09 117.073 70.1489 116.502 70.3099 115.834L71.0095 114.605Z" fill="#F9F5F4"/>
<path d="M84.5986 170.714C84.6286 170.712 84.659 170.711 84.689 170.708C85.1345 170.666 85.3664 170.455 85.695 170.182L86.0888 170.214C87.2045 171.922 87.2746 172.61 89.1103 173.744C87.3012 173.42 86.0975 172.838 84.7919 171.572L84.5986 170.714Z" fill="#1A5D2A"/>
<path d="M72.4693 116.402L72.9873 117.057C72.2644 118.561 72.0634 119.788 71.9499 121.442C71.2173 120.319 70.68 119.159 70.1886 117.913C70.1437 117.8 70.1683 117.844 70.1094 117.76C70.5974 117.793 71.5469 117.863 71.9552 117.554C72.3881 117.227 72.3761 116.895 72.4693 116.402Z" fill="#EE7443"/>
<path d="M113.398 49.7207C114.674 49.2281 115.985 48.7685 117.202 48.1416C117.013 48.5607 116.806 48.9799 116.635 49.4065C114.976 50.2103 113.31 51.1235 111.58 51.7593C112.059 51.0063 112.771 50.3534 113.398 49.7207Z" fill="#B5A08A"/>
<path d="M80.8418 125.554C81.8575 125.6 82.8751 125.691 83.8898 125.761L83.9792 127.399C83.3858 127.044 82.2808 126.95 81.6077 127.089C81.4052 127.131 81.3004 127.202 81.1539 127.341L81.0211 127.62L80.8418 125.554Z" fill="#AD9C88"/>
<path d="M118.98 46.4868C119.43 46.4964 119.829 46.5198 120.257 46.3535C120.027 47.2953 118.356 48.4319 117.537 48.9295C117.246 49.1066 116.948 49.2712 116.635 49.4059C116.806 48.9794 117.013 48.5602 117.202 48.1411C117.786 47.7081 118.621 47.1211 118.98 46.4868Z" fill="#AD9D8A"/>
<path d="M89.3398 173.753C90.0661 173.733 90.8798 173.784 91.5916 173.653C91.3809 174.592 91.0861 175.936 91.6157 176.822L91.4374 177.357C90.487 176.185 90.7087 174.721 89.3398 173.753Z" fill="#0E4822"/>
<path d="M91.5926 173.653L92.226 173.6C92.4913 173.896 92.5411 174.068 92.5213 174.472C92.4855 175.188 92.0511 176.26 91.6167 176.822C91.0871 175.936 91.3819 174.592 91.5926 173.653Z" fill="#1A5D2A"/>
<path d="M95.8398 109.564C96.2403 109.221 96.5906 108.947 97.1565 108.987C97.9803 109.046 98.8467 109.768 99.3256 110.401C100.28 111.663 100.505 113.25 100.282 114.785C99.9344 117.187 98.393 119.146 96.4829 120.554C92.4124 123.553 86.3019 124.951 81.307 124.161C81.15 124.137 81.0282 124.093 80.8799 124.038C80.876 123.162 82.1459 121.501 82.2981 120.388C82.4532 119.255 82.1923 118.042 82.0135 116.923C87.7225 115.514 91.9944 114.251 95.8398 109.564Z" fill="#F57644"/>
<path d="M95.8397 109.564C96.2403 109.221 96.5906 108.947 97.1565 108.987C97.9803 109.046 98.8467 109.768 99.3256 110.401C100.28 111.663 100.505 113.25 100.282 114.785C99.9344 117.187 98.393 119.146 96.4829 120.554C92.4124 123.553 86.3019 124.951 81.307 124.161C81.15 124.137 81.0282 124.093 80.8799 124.038C85.9515 124.188 90.4139 122.106 94.4882 119.309C94.5114 119.304 94.5346 119.299 94.5578 119.293C95.5537 119.028 95.9847 118.605 96.4839 117.729C96.7651 116.353 97.1589 115.192 97.1492 113.753C97.1405 112.375 96.8617 110.579 95.8397 109.564Z" fill="#9C4115"/>
<path d="M94.4878 119.309C94.1443 119.183 93.7896 119.059 93.4625 118.894C93.0146 118.668 92.6208 118.246 92.5 117.752C92.3854 117.286 92.5135 116.814 92.7851 116.426C93.1281 115.938 93.7186 115.555 94.3086 115.457C94.7961 115.376 95.29 115.461 95.677 115.78C96.2612 116.261 96.4013 117.021 96.4835 117.729C95.9843 118.605 95.5533 119.028 94.5574 119.293C94.5342 119.299 94.511 119.303 94.4878 119.309Z" fill="#F9F5F4"/>
<path d="M84.6322 118.197C84.7777 118.185 84.9231 118.178 85.069 118.174C85.7035 118.163 86.365 118.378 86.8105 118.848C87.0965 119.15 87.2323 119.583 87.2125 119.996C87.1748 120.769 86.6167 121.271 86.0837 121.75C85.7938 121.822 85.4512 121.857 85.1517 121.83C84.6404 121.786 84.1007 121.528 83.7885 121.118C83.4759 120.708 83.3918 120.165 83.4923 119.666C83.6446 118.915 84.0446 118.61 84.6322 118.197Z" fill="#F9F5F4"/>
<path d="M89.4868 104.3C91.278 104.012 93.0972 103.774 94.8488 103.291C94.8445 103.959 94.8701 104.642 94.8227 105.308C94.8319 106.593 94.8435 107.872 94.9329 109.155C93.3229 110.656 91.5133 112.637 89.3853 113.352L88.8673 113.394C88.0376 114.52 82.8152 115.638 81.3985 115.86C79.8566 114.948 78.8022 114.503 76.9912 114.514C78.5162 111.639 79.2511 108.016 79.8353 104.841C79.8779 104.421 79.9122 104.067 80.1045 103.681C81.0685 103.578 82.8882 104.124 83.9599 104.227C85.8106 104.406 87.6322 104.362 89.4868 104.3Z" fill="#ECD4A5"/>
<path d="M89.4868 104.3C91.278 104.012 93.0973 103.774 94.8489 103.291C94.8445 103.959 94.8702 104.642 94.8228 105.308C94.832 106.593 94.8436 107.872 94.933 109.155C93.3229 110.656 91.5134 112.637 89.3853 113.352C89.3167 111.926 89.6424 110.368 89.7999 108.943C89.7767 108.323 89.8381 107.545 89.4897 107.013C89.3742 106.156 89.4791 105.171 89.4868 104.3Z" fill="#F57644"/>
<path d="M89.4875 104.3C91.2787 104.012 93.098 103.774 94.8496 103.291C94.8452 103.959 94.8709 104.642 94.8235 105.308C93.2217 105.846 91.6025 106.202 89.9263 106.411C89.9118 107.241 89.9596 108.128 89.8006 108.943C89.7774 108.323 89.8388 107.545 89.4904 107.013C89.3749 106.156 89.4798 105.171 89.4875 104.3Z" fill="#974011"/>
<path d="M79.8359 104.841C79.8785 104.421 79.9128 104.067 80.1051 103.681C81.0691 103.578 82.8888 104.124 83.9605 104.227C85.8112 104.406 87.6328 104.362 89.4874 104.3C89.4796 105.171 89.3748 106.156 89.4903 107.013C89.4376 107.491 89.4067 107.986 89.325 108.458C89.2216 107.742 89.3042 106.972 89.3303 106.248C86.1465 106.274 82.7139 106.447 79.8359 104.841Z" fill="#DBBF9E"/>
<path d="M89.4892 107.013C89.8376 107.545 89.7763 108.323 89.7995 108.943C89.6419 110.368 89.3163 111.926 89.3849 113.352L88.8669 113.394C88.719 111.881 89.2984 110.034 89.324 108.458C89.4057 107.986 89.4366 107.491 89.4892 107.013Z" fill="#541703"/>
<path d="M99.5663 152.322C99.7504 152.023 99.8442 151.785 100.161 151.611C100.458 152.107 100.517 152.932 100.636 153.5C101.243 156.395 101.639 159.067 103.287 161.599C103.799 162.384 104.367 163.149 105.002 163.839C105.367 164.236 106.608 165.172 106.768 165.586C106.801 165.672 106.784 165.77 106.792 165.861C106.039 166.365 103.228 165.795 103.038 166.099C102.945 166.247 102.887 166.713 102.841 166.899C102.654 167.13 102.465 167.361 102.261 167.578C101.722 168.149 101.074 168.72 100.257 168.753C99.1972 168.455 99.0904 167.05 98.4724 166.263C97.6731 166.141 96.8633 167.543 95.8273 167.508C95.5881 167.501 95.5867 167.474 95.4258 167.305C95.4229 166.341 96.1762 165.477 96.2902 164.519C96.44 163.256 96.268 161.878 96.3289 160.597C96.4593 157.84 97.9679 154.536 99.5663 152.322Z" fill="#C47933"/>
<path d="M99.5654 152.322C99.7495 152.023 99.8433 151.785 100.16 151.611C100.457 152.107 100.516 152.932 100.635 153.5C101.242 156.395 101.638 159.067 103.287 161.599C103.798 162.384 104.366 163.149 105.001 163.839C105.366 164.236 106.607 165.172 106.767 165.586C106.8 165.672 106.783 165.77 106.791 165.861C106.038 166.365 103.227 165.795 103.037 166.099C102.944 166.247 102.886 166.713 102.84 166.899C102.972 163.595 101.197 160.207 100.489 156.993C100.27 156.001 100.001 152.957 99.5654 152.322Z" fill="#9F5F2C"/>
<path d="M116.219 141.906C117.657 141.53 119.665 141.175 120.906 140.33C121.335 140.953 122.786 144.144 122.679 144.784C116.645 147.029 108.723 147.816 102.332 147.657C102.796 146.688 103.914 144.59 103.719 143.573L104.016 142.882C104.605 142.513 106.822 142.812 107.595 142.828C110.44 142.889 113.459 142.612 116.219 141.906Z" fill="#C2BA68"/>
<path d="M103.718 143.573L104.015 142.882C104.604 142.513 106.82 142.813 107.594 142.829C110.439 142.889 113.457 142.612 116.217 141.906C116.681 141.968 116.933 141.942 117.288 142.265C117.244 142.523 117.272 142.562 117.056 142.713C115.242 143.985 106.874 144.838 104.667 144.364C104.301 144.285 104.085 144.171 103.862 143.868C103.798 143.781 103.759 143.672 103.718 143.573Z" fill="#EED9AD"/>
<path d="M101.871 169.66C102.77 169.091 103.293 169.454 103.726 169.144C103.61 168.881 103.426 168.798 103.189 168.659C103.227 168.265 103.367 167.986 103.668 167.72C104.005 167.422 104.359 167.377 104.791 167.365C105.176 167.527 105.426 167.609 105.61 168.017C106.073 169.042 106.43 170.278 106.692 171.376C106.695 171.443 106.697 171.51 106.695 171.578C106.677 172.204 106.368 172.667 105.919 173.073C103.279 175.469 98.224 175.675 94.8812 175.557L93.5713 174.284C94.0873 174.123 94.6295 173.971 95.1257 173.756C95.3847 173.644 95.7196 173.493 95.8124 173.198C96.2033 171.954 94.5488 169.415 95.0909 168.05L95.3152 168.001C95.6515 168.341 95.564 168.746 95.8133 169.143C96.4415 169.256 97.4466 168.516 97.9974 168.197C98.4096 168.765 98.8159 169.424 99.4629 169.747C100.304 170.166 101.034 169.917 101.871 169.66Z" fill="#057631"/>
<path d="M101.871 169.66C102.77 169.091 103.293 169.454 103.726 169.144C103.61 168.881 103.426 168.798 103.189 168.659C103.227 168.265 103.367 167.986 103.668 167.72C104.004 167.422 104.359 167.377 104.791 167.365C105.176 167.527 105.426 167.609 105.61 168.017C106.073 169.042 106.43 170.278 106.692 171.376C106.56 171.162 106.423 170.948 106.263 170.753C104.968 169.17 103.687 169.857 101.989 169.674C101.949 169.67 101.91 169.664 101.871 169.66Z" fill="#0E4822"/>
<path d="M76.8335 115.647C77.9501 115.509 79.0446 115.455 79.9777 116.199C80.6527 116.737 80.9523 117.548 81.0247 118.387C81.1412 119.737 80.7324 121.191 79.8511 122.23C79.1325 123.095 78.0956 123.632 76.976 123.722C75.9917 123.793 74.8871 123.399 74.1556 122.74C73.4433 122.099 73.2317 121.3 73.195 120.371C73.1834 120.089 73.1979 119.856 73.2708 119.582C73.3134 118.906 73.5274 118.253 73.8927 117.683C74.5644 116.636 75.6255 115.92 76.8335 115.647Z" fill="#D59447"/>
<path d="M73.2705 119.581C73.313 118.906 73.5271 118.253 73.8924 117.683C74.564 116.635 75.6251 115.92 76.8331 115.646C77.3134 115.68 77.7831 115.606 78.1518 115.927C77.3574 117.072 75.4812 116.834 74.3041 119.29C74.2328 119.439 74.1218 119.581 73.5773 119.568L73.2705 119.581Z" fill="#F0B260"/>
<path d="M77.3184 128.816C78.2418 128.472 79.07 128.372 80.0524 128.344C80.4375 128.967 80.6071 129.634 80.8004 130.332C81.4338 132.265 82.7506 133.961 83.9774 135.557C82.5737 135.172 81.2053 134.737 79.834 134.249C79.156 136.086 78.0688 137.062 76.6081 138.281C77.2865 136.186 77.4764 134.408 76.5922 132.328C76.2684 131.743 75.7248 130.947 75.6954 130.272C75.677 129.85 75.7843 129.799 76.051 129.497C76.5067 129.366 76.9164 129.063 77.3184 128.816Z" fill="#F57644"/>
<path d="M77.3184 128.816C78.2418 128.472 79.07 128.372 80.0524 128.344C80.4375 128.967 80.6071 129.634 80.8004 130.332C79.7654 131.192 78.2573 130.362 76.5922 132.328C76.2684 131.743 75.7248 130.947 75.6954 130.272C75.677 129.85 75.7843 129.799 76.051 129.497C76.5067 129.366 76.9164 129.063 77.3184 128.816Z" fill="#F9F5F4"/>
<path d="M77.8436 125.292C78.4022 125.047 78.9584 124.795 79.5208 124.562C79.6517 125.699 79.6382 127.298 80.0528 128.343C79.0704 128.371 78.2422 128.472 77.3189 128.815C76.9168 129.062 76.5071 129.366 76.0514 129.497C76.0263 129.475 76.0012 129.454 75.976 129.432C75.9345 129.395 75.8944 129.356 75.8523 129.32C75.7842 129.262 75.7108 129.208 75.6441 129.147C74.6564 128.244 74.7734 126.183 74.7188 124.964C75.7562 125.111 76.7984 125.22 77.8436 125.292Z" fill="#F57644"/>
<path d="M47.2603 37.8187C47.3086 38.2156 47.3695 38.6795 47.5773 39.0283C47.8189 39.4346 48.2489 39.7618 48.6973 39.8939C49.4327 40.1104 50.1435 40.1284 50.8311 39.7672C51.6071 38.9859 51.1558 35.9285 51.2196 34.793C51.2752 33.9309 51.4071 33.0754 51.6144 32.2368C52.027 30.5486 52.82 28.7738 54.3812 27.8609C55.9192 26.9618 57.65 27.0915 59.2982 27.5376C59.6075 27.8731 59.9143 28.203 60.0999 28.6258C61.3373 31.4486 57.9767 33.9467 57.0248 36.3916C56.7469 38.7347 56.7184 41.3648 58.2289 43.3292C58.7208 43.9691 59.5374 44.6559 60.2796 44.9697L60.4482 44.9111C62.5579 44.1648 63.0701 42.3523 64.4733 40.8259C65.9248 39.2463 68.2877 38.3123 70.3374 39.3105C70.9023 39.5855 71.343 40.039 71.544 40.6421C71.7817 41.3576 71.6701 42.1715 71.3294 42.8352C70.4597 44.5321 67.2338 45.0784 67.3962 46.8612C68.824 48.4615 70.9086 49.2766 72.6466 50.4723C75.3434 52.3278 79.2984 57.05 79.8642 60.3257C79.5921 60.5331 79.3457 60.7773 78.9896 60.7937C78.0541 61.0582 77.138 61.344 76.2228 61.6732C75.9372 61.8144 75.6425 61.9904 75.3448 62.0997L75.2047 61.9619C74.9882 62.1949 74.7635 62.4913 74.4924 62.6596C72.967 59.9409 71.3338 57.9547 69.0888 55.8247C68.0408 55.1078 67.0135 54.3837 65.905 53.7615C65.2962 53.6016 64.5632 53.1171 63.9713 52.8503C62.7029 52.2782 61.3982 51.7837 60.1395 51.1895C58.9194 50.6134 57.7472 49.9189 56.5039 49.3968C54.7808 48.6737 52.8958 48.44 51.1694 47.7055C50.7644 47.6129 50.3648 47.4984 49.9725 47.3624C46.1997 46.0138 42.8095 44.0078 41.0599 40.2505C40.149 38.2943 39.5871 35.6608 40.3752 33.5752C40.6805 32.7669 41.2391 32.1302 42.0364 31.782C42.8559 31.424 44.2321 31.2826 45.0603 31.6579C47.3724 32.7056 46.4934 35.9024 47.2603 37.8187Z" fill="#DBBF9E"/>
<path d="M51.1694 47.7053C50.7644 47.6128 50.3648 47.4983 49.9725 47.3623C46.1997 46.0137 42.8095 44.0077 41.0599 40.2504C40.149 38.2942 39.5871 35.6607 40.3752 33.575C40.6805 32.7667 41.2391 32.1301 42.0364 31.7819C42.8559 31.4239 44.2321 31.2825 45.0603 31.6577C47.3724 32.7055 46.4934 35.9023 47.2603 37.8186C47.2791 38.3534 47.3042 38.6794 46.9099 39.093C46.823 39.1845 46.7307 39.2693 46.6365 39.3538C47.2883 40.1892 48.0537 40.9432 49.1631 41.0627C50.0474 41.1579 50.8287 40.8638 51.496 40.2996C51.5535 40.2507 51.6105 40.2011 51.6671 40.1507C52.0203 41.8161 52.5276 43.2583 53.279 44.7838C53.7989 45.6539 54.3421 46.6487 55.0074 47.413L54.904 47.6621C54.7286 47.7343 54.6097 47.8214 54.4198 47.7865C53.7231 47.6583 51.8376 47.3132 51.2472 47.6503C51.2196 47.666 51.1954 47.687 51.1694 47.7053Z" fill="black"/>
<path d="M41.835 33.2441C42.351 32.6697 42.7874 32.4918 43.5571 32.4599C44.093 32.4378 44.5549 32.5265 44.9545 32.9196C46.4196 34.3607 45.4822 37.5028 46.636 39.3538C47.2879 40.1892 48.0533 40.9431 49.1627 41.0627C50.0469 41.1579 50.8283 40.8638 51.4956 40.2996C51.5531 40.2507 51.6101 40.2011 51.6666 40.1506C52.0198 41.8161 52.5272 43.2583 53.2786 44.7838C53.239 44.9441 53.1486 45.1059 53.0814 45.2576C52.9022 45.3489 52.7128 45.4302 52.5084 45.4378C50.778 45.5028 46.9284 43.4106 45.6073 42.2539C43.1594 40.1098 42.0703 36.3878 41.835 33.2441Z" fill="#DBBF9E"/>
<path d="M55.0077 47.4133C53.2291 47.4781 48.3043 45.5749 46.6348 44.6087C44.1391 43.1646 42.0415 40.6933 41.3158 37.8798C40.8944 36.2449 40.9795 34.7114 41.8357 33.2444C42.071 36.3881 43.1602 40.1101 45.608 42.2542C46.9291 43.4109 50.7788 45.5031 52.5091 45.4381C52.7135 45.4305 52.9029 45.3492 53.0822 45.2579C53.1493 45.1062 53.2397 44.9444 53.2793 44.7841C53.7992 45.6542 54.3424 46.649 55.0077 47.4133Z" fill="#B5A08A"/>
<path d="M47.2615 37.8187C47.3098 38.2156 47.3707 38.6795 47.5785 39.0283C47.8201 39.4346 48.2501 39.7618 48.6985 39.8939C49.434 40.1104 50.1448 40.1284 50.8324 39.7672C51.6084 38.9859 51.1571 35.9285 51.2208 34.793C51.2764 33.9309 51.4083 33.0754 51.6156 32.2368C52.0283 30.5486 52.8212 28.7738 54.3824 27.8609C55.9204 26.9618 57.6513 27.0915 59.2995 27.5376C59.6087 27.8731 59.9155 28.203 60.1011 28.6258C61.3386 31.4486 57.9779 33.9467 57.026 36.3916L56.0021 36.4227C56.7313 33.9541 58.5321 32.9305 59.2531 30.8986C59.4787 30.263 59.5536 29.4427 59.2289 28.8304C59.0013 28.4014 58.5954 28.14 58.1335 28.0223C57.1657 27.7756 56.0582 28.0451 55.2314 28.5759C53.5687 29.6434 52.9299 31.5179 52.5545 33.3596C51.533 37.0059 52.6632 41.6305 54.4646 44.8898C56.1727 47.9793 58.377 49.1184 61.4797 50.4775C62.2861 51.4004 66.1739 52.536 66.3769 53.4111C66.2155 53.5174 66.0309 53.6127 65.9062 53.7615C65.2974 53.6016 64.5644 53.1171 63.9725 52.8503C62.7041 52.2782 61.3995 51.7837 60.1407 51.1895C58.9206 50.6134 57.7484 49.9189 56.5051 49.3968C54.782 48.6737 52.8971 48.44 51.1706 47.7055C51.1967 47.6871 51.2208 47.6661 51.2484 47.6504C51.8389 47.3133 53.7243 47.6584 54.4211 47.7866C54.611 47.8215 54.7298 47.7344 54.9052 47.6622L55.0086 47.4132C54.3433 46.6488 53.8002 45.654 53.2802 44.7839C52.5289 43.2584 52.0215 41.8162 51.6683 40.1508C51.6118 40.2012 51.5547 40.2509 51.4972 40.2997C50.8299 40.8639 50.0486 41.1581 49.1643 41.0628C48.0549 40.9433 47.2895 40.1893 46.6377 39.3539C46.7319 39.2695 46.8242 39.1847 46.9112 39.0931C47.3055 38.6795 47.2804 38.3536 47.2615 37.8187Z" fill="black"/>
<path d="M61.4796 50.4775C58.3769 49.1185 56.1726 47.9793 54.4645 44.8899C52.6631 41.6306 51.5329 37.0059 52.5544 33.3596C52.7786 37.9269 53.701 44.0521 57.2385 47.257C59.4497 49.2605 62.7431 49.7873 65.3611 51.1064C66.8156 51.8395 68.0999 52.8614 69.5215 53.6478C70.7121 54.3067 72.0418 54.8164 72.9478 55.8587C74.4714 57.6114 74.9589 59.7799 76.2239 61.6733C75.9384 61.8144 75.6436 61.9904 75.346 62.0997L75.2058 61.9619C74.9894 62.195 74.7647 62.4913 74.4936 62.6596C72.9681 59.9409 71.3349 57.9547 69.09 55.8247C68.0419 55.1078 67.0146 54.3838 65.9062 53.7616C66.0308 53.6127 66.2154 53.5174 66.3768 53.4111C66.1739 52.536 62.286 51.4004 61.4796 50.4775Z" fill="#B5A08A"/>
<path d="M69.0898 55.825C69.6504 55.679 69.9403 55.7895 70.4645 55.9783C70.5568 56.0116 70.6443 56.0285 70.7414 56.0415C72.7153 57.4261 74.0721 59.8779 75.2057 61.9623C74.9892 62.1953 74.7645 62.4917 74.4935 62.6599C72.968 59.9412 71.3348 57.955 69.0898 55.825Z" fill="black"/>
<path d="M61.4785 50.4775C64.8218 51.2957 68.1674 53.8407 70.7405 56.0411C70.6434 56.0282 70.5559 56.0113 70.4636 55.978C69.9393 55.7891 69.6494 55.6787 69.0889 55.8247C68.0409 55.1078 67.0136 54.3838 65.9051 53.7616C66.0298 53.6128 66.2144 53.5175 66.3757 53.4112C66.1728 52.536 62.285 51.4005 61.4785 50.4775Z" fill="black"/>
<path d="M60.2803 44.97L60.4489 44.9114C62.5586 44.1651 63.0707 42.3526 64.474 40.8262C65.9255 39.2466 68.2883 38.3127 70.3381 39.3109C70.9029 39.5858 71.3436 40.0393 71.5446 40.6425C71.7824 41.3579 71.6707 42.1719 71.3301 42.8355C70.4603 44.5324 67.2345 45.0787 67.3968 46.8615C68.8247 48.4619 70.9092 49.277 72.6473 50.4726C75.344 52.3281 79.299 57.0504 79.8648 60.3261C79.5928 60.5335 79.3464 60.7776 78.9903 60.7941C77.7098 57.0944 75.0048 53.4743 71.7915 51.2332C70.167 50.1001 67.4514 49.2591 66.5319 47.4281C65.1799 44.7375 70.0747 43.8515 70.6884 41.8797C70.7725 41.6114 70.7396 41.3199 70.598 41.077C70.2661 40.4983 69.4524 40.0251 68.8174 39.8693C65.5882 39.0774 64.1705 44.0822 61.9589 45.4235L61.8285 45.5014L61.4849 45.3422L61.8835 45.113L61.8874 44.9874L60.2803 44.97Z" fill="black"/>
<path d="M61.828 45.5011C61.3661 45.8701 60.6959 45.9638 60.1185 45.8892C59.14 45.7627 58.1238 44.9089 57.5411 44.1538C55.8436 41.9537 55.6658 39.0752 56.0011 36.4227L57.025 36.3916C56.7472 38.7347 56.7187 41.3648 58.2292 43.3292C58.7211 43.9691 59.5377 44.6559 60.2799 44.9697L61.887 44.9871L61.8831 45.1127L61.4845 45.3419L61.828 45.5011Z" fill="#19130F"/>
<path d="M121.392 67.1251C121.562 67.2184 121.705 67.2431 121.894 67.2731C122.607 66.8766 123.081 66.2253 123.591 65.6069C123.531 67.1063 120.982 69.4314 119.914 70.4177C119.372 70.9191 118.906 71.3195 118.222 71.6202C118.389 70.8413 119.217 70.2794 119.108 69.4764C119.145 69.4681 119.183 69.4643 119.219 69.4522C119.891 69.2177 121.124 67.7904 121.392 67.1251Z" fill="black"/>
<path d="M119.328 175.715C119.385 176.011 119.432 176.299 119.461 176.6C119.523 177.219 119.715 177.827 119.846 178.435L120.145 178.596C120.888 179.12 122.55 179.527 123.041 179.993L122.891 179.995C122.381 179.998 121.965 179.928 121.477 179.786C121.214 179.898 121.219 179.933 121.079 180.187C120.276 179.654 119.186 179.427 118.83 178.406C118.551 177.604 119.005 176.446 119.328 175.715Z" fill="black"/>
<path d="M140.341 171.971C141.311 171.622 142.868 170.767 143.444 169.92L143.731 170.257L144.125 170.243L144.277 170.419C143.994 171.276 142.356 172.064 141.543 172.479C141.226 172.641 140.988 172.739 140.628 172.732L140.938 172.216L140.871 172.048L140.341 171.971Z" fill="black"/>
<defs>
<linearGradient id="paint0_linear_3039_10958" x1="103.639" y1="75.2606" x2="106.693" y2="74.3673" gradientUnits="userSpaceOnUse">
<stop stop-color="#1E0F00"/>
<stop offset="1" stop-color="#462712"/>
</linearGradient>
<linearGradient id="paint1_linear_3039_10958" x1="98.6173" y1="75.2792" x2="99.05" y2="78.0599" gradientUnits="userSpaceOnUse">
<stop stop-color="#261B15"/>
<stop offset="1" stop-color="#32313C"/>
</linearGradient>
<linearGradient id="paint2_linear_3039_10958" x1="76.1997" y1="86.1667" x2="73.2696" y2="71.531" gradientUnits="userSpaceOnUse">
<stop stop-color="#F5E7DA"/>
<stop offset="1" stop-color="#FEFFFF"/>
</linearGradient>
<linearGradient id="paint3_linear_3039_10958" x1="75.3424" y1="80.8855" x2="79.9357" y2="80.7102" gradientUnits="userSpaceOnUse">
<stop stop-color="#644A3D"/>
<stop offset="1" stop-color="#393030"/>
</linearGradient>
<linearGradient id="paint4_linear_3039_10958" x1="73.3717" y1="75.1285" x2="74.784" y2="84.7062" gradientUnits="userSpaceOnUse">
<stop/>
<stop offset="1" stop-color="#463A3A"/>
</linearGradient>
</defs>
</svg>
