<svg width="200" height="200" viewBox="0 0 200 200" fill="none" xmlns="http://www.w3.org/2000/svg">
<path d="M116.362 127.238C116.468 131.122 115.362 134.66 112.888 137.729C111.106 139.938 108.674 141.236 106.095 142.282C104.688 142.852 103.231 143.258 101.717 143.452C101.505 143.48 101.191 143.415 101.143 143.827C101.113 144.09 100.798 144.008 100.595 144.021C99.7003 144.077 98.8525 143.76 97.9746 143.684C96.0754 143.521 94.1991 143.235 92.4088 142.564C88.6591 141.158 85.2465 139.224 82.7404 136.013C81.1438 133.969 80.3807 131.589 80.2014 129.01C79.8126 123.425 81.6129 118.368 84.0228 113.48C87.6793 106.07 92.548 99.4795 98.0119 93.3049C98.2687 93.0148 98.4236 92.862 98.7708 93.2434C105.266 100.384 110.915 108.076 114.408 117.158C115.58 120.201 116.452 123.673 116.362 127.238Z" fill="black"/>
<path d="M101.277 148.452C100.148 148.422 99.046 148.215 97.953 147.958C97.6775 147.894 97.4079 147.782 97.1497 147.664C96.8671 147.534 96.5429 147.375 96.5859 147.009C96.6361 146.586 97.022 146.556 97.3577 146.529C99.1637 146.382 100.925 146.636 102.652 147.145C102.989 147.245 103.405 147.395 103.37 147.826C103.329 148.309 102.866 148.338 102.49 148.381C102.087 148.428 101.681 148.431 101.277 148.452Z" fill="#030303"/>
<path d="M100.512 146.131C99.8093 146.085 98.9099 145.987 98.0506 145.674C97.8311 145.594 97.5543 145.504 97.5787 145.211C97.6059 144.892 97.9172 144.907 98.1381 144.892C99.2914 144.815 100.423 144.978 101.531 145.288C101.793 145.362 102.158 145.451 102.092 145.817C102.036 146.125 101.683 146.095 101.432 146.125C101.196 146.152 100.955 146.131 100.512 146.131Z" fill="#0C0D0D"/>
<path d="M98.8382 142.364C93.5019 142.264 88.9747 140.174 85.0858 136.658C82.6816 134.485 81.6502 131.636 81.4996 128.446C81.2902 124.035 82.5324 119.941 84.2954 115.975C87.2963 109.232 91.4864 103.237 96.1155 97.5252C96.7453 96.748 97.4209 96.008 98.0377 95.2193C98.3418 94.8307 98.5168 94.8565 98.8324 95.2136C102.518 99.3796 105.879 103.784 108.743 108.552C111.213 112.662 113.312 116.938 114.399 121.64C115.293 125.504 115.445 129.36 114.032 133.156C112.548 137.145 109.535 139.526 105.679 141.027C103.401 141.914 101.046 142.384 98.8382 142.364Z" fill="#B6EAFE"/>
<path d="M99.7762 147.584C99.4076 147.62 99.0447 147.615 98.709 147.428C99.0131 147.011 99.4162 147.278 99.7805 147.275C100.468 147.452 101.206 147.315 101.962 147.672C101.594 147.762 101.301 147.774 101.003 147.711C100.607 147.541 100.174 147.737 99.7762 147.584Z" fill="#86ACBB"/>
<path d="M99.7802 147.275C99.4274 147.352 99.0343 147.154 98.7087 147.428C98.4907 147.444 98.3027 147.361 98.0029 147.192C98.6771 147.131 99.2294 147.125 99.7802 147.275Z" fill="#86ACBA"/>
<path d="M99.7764 147.584C100.184 147.631 100.618 147.432 101.001 147.711C100.588 147.725 100.172 147.755 99.7764 147.584Z" fill="#86ACBA"/>
<path d="M100.273 145.455C100.524 145.498 100.773 145.539 101.025 145.582C100.662 145.732 100.313 145.758 99.9688 145.603C100.023 145.458 100.19 145.539 100.273 145.455Z" fill="#6F8E9A"/>
<path d="M99.3046 145.548C99.0608 145.581 98.8599 145.484 98.54 145.321C99.0321 145.259 99.3893 145.247 99.7393 145.399C99.6417 145.588 99.4294 145.439 99.3046 145.548Z" fill="#5F7983"/>
<path d="M99.3047 145.548C99.4496 145.498 99.5944 145.45 99.7393 145.4C99.9172 145.418 100.095 145.435 100.273 145.454C100.171 145.504 100.071 145.553 99.9689 145.603C99.7479 145.585 99.527 145.567 99.3047 145.548Z" fill="#9AC5D5"/>
</svg>
