<svg width="200" height="200" viewBox="0 0 200 200" fill="none" xmlns="http://www.w3.org/2000/svg">
<path d="M117.356 27.1229C118.071 26.9353 118.925 26.9949 119.656 27.0879C121.326 27.8522 122.927 29.3825 123.589 31.1161C124.2 32.7149 124.599 34.7506 124.575 36.4586C124.562 37.3465 124.408 38.3686 124.539 39.2415C124.594 39.6087 124.721 39.9502 125.071 40.1138C125.545 40.3352 126.609 40.2163 127.094 40.0149C127.377 39.8971 128.048 39.5153 128.202 39.2723C129.142 37.403 128.53 32.7623 130.691 31.904C131.794 31.5212 132.747 31.471 133.819 32.0018C134.683 32.4233 135.341 33.1782 135.646 34.0955C135.947 35.0215 135.9 36.5186 135.474 37.3934C135.751 37.9777 135.436 38.9317 135.229 39.5255C135.003 40.1729 134.298 41.6426 133.646 41.9334C133.607 41.9507 133.567 41.9646 133.527 41.9802C133.457 42.6559 132.701 43.2946 132.2 43.7064C130.883 44.7902 127.994 46.9774 126.286 47.0779C126.244 47.1162 126.203 47.1557 126.16 47.1928C125.5 47.7625 119.965 49.584 118.799 50.0443C114.62 51.6931 101.637 57.858 101.262 63.0617C101.249 63.2483 101.263 63.4237 101.294 63.6064L101.519 63.8444C102.59 63.8036 106.232 59.8435 107.647 58.9097C112.014 56.0263 118.061 54.8008 123.147 56.1252C124.154 56.3874 125.452 56.7914 126.211 57.5239C126.46 57.765 126.557 58.0366 126.546 58.3811C126.538 58.6502 126.521 58.8698 126.336 59.0773C126.574 59.7997 126.483 60.8973 126.09 61.5624C126.007 61.7023 125.928 61.7815 125.809 61.8908C126.124 62.8635 124.847 65.1271 124.393 66.023C122.613 69.5308 119.567 72.3929 115.818 73.592C113.576 74.3091 111.403 74.4918 109.065 74.3762C110.848 78.9417 113.476 88.1509 111.454 92.8792C109.499 97.4491 103.966 100.857 99.5466 102.578C98.4599 103.002 97.3307 103.459 96.1987 103.743C96.1427 105.394 96.0492 107.053 96.0839 108.706C97.6292 108.688 99.0389 109.079 100.184 110.186C101.157 111.126 101.519 112.481 101.529 113.808C101.535 114.674 101.372 115.681 101.647 116.508C102.131 116.837 102.692 116.574 103.259 116.811C109.292 117.666 115.486 116.606 121.331 115.109C124.631 114.264 127.047 113.448 130.518 113.44C132.857 113.434 135.17 113.741 137.358 114.616C137.962 114.857 138.792 115.477 139.406 115.553C139.733 115.594 139.979 115.336 140.231 115.156C141.393 114.138 142.628 113.528 144.012 112.893C145.164 112.629 146.261 112.566 147.432 112.66C149.914 112.86 153.48 114.094 155.16 111.472C155.806 110.463 155.79 107.338 156.308 107.023L156.433 107.081L156.29 107.156L156.462 106.991C156.615 107.019 156.794 107.013 156.902 107.126C156.989 107.217 157.074 107.262 157.183 107.321C158.747 109.214 159.631 111.377 159.423 113.884C159.356 114.698 159.12 116.106 158.562 116.72L158.853 117.06L159.404 116.835L159.662 116.973C159.749 117.756 159.161 118.836 158.696 119.437C157.729 120.686 156.499 120.279 156.436 122.2C155.892 123.127 154.189 123.85 153.2 124.116C150.128 124.939 147.605 124.063 144.747 123.094C146.001 124.635 146.018 127.529 145.835 129.445C145.668 131.191 145.276 132.989 144.775 134.666C143.808 137.902 142.291 140.841 144.744 143.877C146.976 146.64 151.454 147.523 151.089 151.417C150.716 155.404 148.183 159.26 148.79 163.36C148.912 164.195 149.19 165.001 149.609 165.733C150.065 166.53 152.242 168.621 151.094 169.495C150.731 169.772 150.145 169.957 149.722 170.139C149.805 170.374 149.859 170.513 149.832 170.767C150.443 171.079 150.612 171.698 150.81 172.316C151.206 173.552 151.275 174.755 150.67 175.937C149.57 178.086 146.845 179.507 144.616 180.193C142.738 180.771 139.557 181.311 137.785 180.346C137.326 180.096 136.937 179.706 136.79 179.19C135.821 175.785 138.306 173.918 138.789 171.44C138.145 171.319 137.522 171.241 136.967 170.868C136.896 170.742 136.756 170.586 136.797 170.444C137.188 169.066 138.681 167.69 139.387 166.417C140.837 163.805 142.144 156.699 140.751 153.97C139.854 152.213 138.078 151.951 136.363 151.424C135.62 151.196 134.912 150.932 134.136 150.842C135.329 151.598 137.036 152.865 137.466 154.272C137.512 154.422 137.512 154.558 137.513 154.713C137.616 156.38 135.291 161.049 135.151 163.979C135.073 165.608 134.936 167.423 135.236 169.036C135.405 169.948 136.712 172.433 136.57 173.086C135.981 173.652 134.954 173.903 134.177 174.114C134.72 175.326 134.737 177.017 134.29 178.265C134.194 178.534 134.076 178.768 133.884 178.98C133.475 179.526 132.915 179.776 132.262 179.911C132.199 179.971 132.192 179.985 132.103 180.032C130.362 180.956 123.937 180.545 122 179.893C121.337 179.67 120.384 179.305 120.078 178.611C119.6 177.526 120.077 176.385 120.489 175.355C121.221 174.563 121.969 173.782 122.657 172.95C123.049 172.733 123.473 172.564 123.692 172.153C123.483 171.635 122.938 171.669 122.815 171.115C123.247 170.122 124.286 169.939 124.918 169.167C126.865 166.788 127.629 160.913 126.513 158.067C125.793 156.232 123.654 154.989 122.325 153.617C120.606 151.842 119.398 149.923 118.523 147.609C115.382 148.403 112.146 149.158 108.895 149.177C108.662 153.897 109.169 161.042 111.016 165.391C111.548 166.645 114.248 169.624 114.338 170.38C114.379 170.729 114.228 171.044 113.969 171.269C113.566 171.619 112.594 171.725 112.065 171.837C112.604 173.548 113.115 175.545 112.269 177.25C111.612 178.574 110.142 179.221 108.814 179.644C106.138 180.497 102.248 180.782 99.7086 179.428C99.5119 179.323 99.3229 179.206 99.1354 179.085C98.8866 178.883 98.5891 178.609 98.456 178.309C98.0535 177.401 98.431 176.077 98.7964 175.221C99.2154 174.238 100.095 172.739 101.123 172.319L101.283 171.818C100.822 171.263 99.7718 171.416 99.8673 170.562C100.009 169.287 101.668 168.328 102.055 167.011C102.355 165.99 102.354 164.745 102.328 163.682C102.232 159.641 101.034 156.925 99.2443 153.374C98.5279 151.951 97.7926 150.414 96.8529 149.126C96.8356 149.102 96.8177 149.079 96.8004 149.056C94.9201 148.669 93.018 148.357 91.1237 148.048C90.7539 149.305 89.7062 150.469 89.0568 151.622C86.8703 155.502 84.9596 159.235 83.923 163.613C83.6159 164.91 83.4828 166.242 83.6863 167.567C83.8396 168.564 85.4244 171.284 84.3343 171.94C83.895 172.204 83.0706 172.256 82.559 172.359C82.5938 174.186 82.6415 175.823 82.1353 177.593C79.8745 179.616 75.0228 179.64 72.1912 179.447C71.6565 179.41 71.1522 179.302 70.6397 179.149C69.8663 178.852 69.1287 178.54 68.3896 178.163C68.244 177.691 68.068 177.19 68.0564 176.692C68.0067 174.562 69.9059 173.012 71.2563 171.615C71.5003 171.124 72.3185 170.642 72.7254 170.203C72.1415 169.942 71.3123 169.565 71.035 168.95C70.9203 168.695 71.0895 168.273 71.2202 168.053C71.7433 167.176 72.7664 166.595 73.4611 165.855C74.7489 164.485 75.8598 161.86 76.5444 160.107C77.1288 158.611 77.472 157.038 77.8182 155.472C79.2747 148.886 78.2271 145.729 77.7435 139.24C77.5024 135.999 78.2627 134.773 76.8048 131.4C76.3019 133.581 76.392 136.176 75.5059 138.222C74.5681 138.442 73.4708 136.124 72.8503 135.497C72.5649 135.209 72.1589 134.997 71.8093 134.796C70.8007 135.081 69.7993 135.357 68.7579 135.489C67.9142 135.596 66.6307 135.803 65.9176 135.243C65.84 134.978 65.7802 134.885 65.867 134.614C66.1163 133.84 66.731 134.076 67.3158 133.741C69.8789 132.274 70.6893 128.19 71.4265 125.613C71.6078 124.979 71.9265 124.385 72.1208 123.746C71.9955 123.311 71.7838 123.226 71.4453 122.96C70.8615 122.503 70.5674 121.412 70.2188 120.742C69.5621 119.677 69.4777 117.89 69.7294 116.693C70.2477 114.229 71.604 112.545 73.6444 111.221C75.0324 110.248 76.5733 110.191 78.1948 109.949C78.297 109.804 78.3886 109.653 78.4406 109.482C78.6292 108.864 79.6113 104.625 79.2854 104.255C78.7671 103.668 75.7952 102.804 74.9186 102.398C71.2207 100.686 67.0314 97.1469 65.0132 93.5443C63.5455 90.9241 63.6217 88.3627 64.3912 85.5604L66.7951 75.0534C66.8723 75.1744 66.9706 75.2176 67.0888 75.2934L67.6345 75.0048C67.974 73.318 68.7921 70.1551 70.0944 68.9658C70.7077 67.7618 71.7597 66.8504 72.7158 65.9273C73.1314 65.7188 73.5595 65.2991 73.9293 65.0051L75.6192 63.9508C75.6014 63.5928 75.585 63.2342 75.571 62.8757C75.9591 62.6536 76.3448 62.5171 76.7657 62.3786C77.5497 62.0657 78.3428 61.7757 79.1436 61.5094L79.2314 62.006C79.3582 62.091 79.496 62.2071 79.6354 62.2654L80.0495 62.2717C80.319 61.8593 80.443 61.7878 80.3542 61.2806C80.9569 60.9629 81.779 60.8249 82.4414 60.6578C86.8448 59.5486 90.9564 60.1471 95.3024 61.1494C95.5825 60.9259 95.6563 60.5358 95.7898 60.2035C96.7213 57.8915 97.8293 56.1723 99.4492 54.289C99.8321 53.8438 100.233 53.2539 100.781 53.02C102.574 50.97 105.228 50.2098 107.146 48.4036C107.595 47.9805 108.037 47.4469 108.055 46.8018C107.686 45.6808 106.189 44.9908 105.333 44.2571C104.706 43.7197 104.167 42.9094 104.152 42.0564C104.141 41.396 104.477 40.7774 104.914 40.3071C105.652 39.5129 106.736 39.1398 107.798 39.1222C111.827 39.0556 111.142 42.5545 113.291 44.6135C114.021 45.3131 114.817 45.1917 115.738 45.1618C116.629 44.4072 117.302 43.673 117.864 42.6373C120.273 35.592 115.748 34.897 115.18 30.6662C115.08 29.9235 115.264 29.0346 115.353 28.2899C115.996 27.6218 116.414 27.2411 117.356 27.1229ZM79.2738 138.137C79.591 137.234 79.6561 136.604 79.3697 135.684L79.1629 135.491C79.1055 136.269 78.8775 137.381 79.0785 138.124L79.2738 138.137Z" fill="black"/>
<path d="M103.258 116.81C109.291 117.666 115.485 116.605 121.33 115.109C124.63 114.264 127.046 113.448 130.517 113.44C132.857 113.434 135.169 113.74 137.357 114.616C137.961 114.857 138.791 115.477 139.405 115.553C139.732 115.594 139.978 115.335 140.23 115.156L140.356 115.696C140.09 116.028 139.344 116.37 138.904 116.446C138.871 116.451 138.838 116.451 138.805 116.454L138.807 116.586C139.57 116.904 141.008 117.861 141.362 118.625C143.361 120.09 144.37 123.569 144.737 125.957C145.026 127.842 144.929 129.737 144.523 131.597C143.718 135.29 141.375 139.394 142.928 143.187C143.83 145.39 146.354 146.539 146.814 147.552C147.323 148.647 148.054 149.814 148.235 151.017C148.541 153.064 147.468 155.843 147.138 157.897C147.004 158.734 147.024 159.804 146.776 160.589C146.754 160.662 146.698 160.776 146.669 160.838C146.892 161.967 146.606 163.14 146.702 164.283C146.825 165.718 148.021 168.807 147.607 169.989C147.614 170.027 147.624 170.065 147.627 170.103C147.65 170.421 147.525 170.637 147.281 170.831C146.544 171.416 145.075 171.148 144.206 171.059C144.149 170.947 144.186 170.993 144.079 170.906C143.299 170.27 142.974 169.375 142.285 168.749C141.996 169.221 141.365 169.776 140.899 170.073C140.368 170.413 139.25 170.525 138.651 170.358C138.466 170.307 138.382 170.278 138.289 170.11C138.53 169.377 139.317 168.675 139.766 168.037C141.925 164.965 142.888 158.391 142.24 154.742C142.091 153.901 141.796 153.017 141.164 152.417C139.503 150.838 136.423 150.315 134.331 149.428C132.741 148.742 131.226 147.892 129.809 146.892C125.933 144.121 122.115 138.737 123.045 133.678C123.253 132.544 124.323 130.95 124.105 129.876C124.098 129.841 124.087 129.807 124.078 129.772C123.759 131.119 122.425 132.133 122.164 133.825C121.841 135.914 122.928 138.193 122.685 139.713C120.363 141.425 111.604 142.58 108.677 142.717C108.503 141.391 108.109 139.991 107.548 138.777C106.677 136.895 105.478 135.787 103.56 135.081C108.931 140.009 107.921 144.629 107.821 151.186C107.784 153.669 108.034 156.131 108.272 158.6C108.108 161.129 108.345 163.443 108.94 165.909C109.418 167.889 110.077 169.633 110.023 171.707C109.653 172.031 109.235 172.293 108.783 172.483C108.136 172.759 107.489 172.901 106.816 172.594C105.597 172.038 105.064 170.623 104.619 169.449L104.47 169.44C103.955 170.221 103.324 170.638 102.419 170.871C101.977 170.984 101.709 170.962 101.323 170.731C101.213 170.114 101.91 169.585 102.235 169.064C103.304 167.354 103.565 165.549 103.506 163.567C103.341 158.064 100.446 153.503 97.8737 148.816C96.8646 146.978 95.8593 145.158 95.3796 143.1L95.0002 143.198L94.8034 143.616C93.0239 143.33 89.8485 140.333 88.689 138.958C87.7956 137.733 87.0801 136.37 86.3328 135.052L86.8873 135.088C87.0107 134.988 87.136 134.888 87.2508 134.777C87.5478 134.49 87.73 134.184 87.7117 133.756C87.6645 132.674 85.6607 131.616 84.8816 130.963C84.9862 130.158 84.7061 129.2 84.5518 128.407L84.4722 128.008C84.4607 127.552 84.329 127.065 84.248 126.615C86.0151 126.514 87.8019 126.372 89.5385 126.021C94.5797 125.001 98.4219 122.661 101.287 118.348L101.232 118.106L101.658 117.7L102.656 117.653C103.043 117.407 103.079 117.22 103.258 116.81Z" fill="#CB7A27"/>
<path d="M103.258 116.81C109.291 117.666 115.485 116.605 121.33 115.109C124.63 114.264 127.046 113.448 130.517 113.44C132.857 113.434 135.169 113.74 137.357 114.616C137.961 114.857 138.791 115.477 139.406 115.553C139.732 115.594 139.978 115.335 140.23 115.156L140.356 115.696C140.09 116.028 139.344 116.37 138.904 116.446C138.871 116.451 138.838 116.451 138.805 116.454L138.807 116.586C138.665 116.688 138.7 116.651 138.605 116.756C138.478 116.895 138.266 117.166 138.087 117.234C137.554 117.434 131.734 115.73 129.752 115.988C129.43 116.03 129.394 116.186 129.214 116.431C129.022 116.159 128.758 116.103 128.46 115.976L128.279 115.727C127.447 115.489 126.519 115.074 125.648 115.15C124.155 115.573 122.641 116.038 121.115 116.326L121.093 116.421C120.946 117.039 120.627 117.561 120.746 118.19C121.12 118.397 121.316 118.363 121.723 118.36C121.01 118.752 120.257 118.189 119.5 118.406C119.416 118.476 119.346 118.539 119.244 118.578C115.216 120.134 109.456 119.924 105.188 119.568C104.206 119.485 102.821 119.469 101.934 119.036C101.453 118.8 101.418 118.567 101.232 118.106L101.659 117.7L102.656 117.653C103.043 117.407 103.079 117.22 103.258 116.81Z" fill="black"/>
<path d="M101.659 117.701C107.161 118.947 115.713 118.105 121.115 116.326L121.093 116.421C120.946 117.039 120.627 117.561 120.746 118.19C121.12 118.397 121.316 118.363 121.723 118.36C121.01 118.752 120.257 118.189 119.5 118.407C119.416 118.476 119.346 118.539 119.244 118.578C115.216 120.134 109.456 119.924 105.188 119.568C104.206 119.486 102.821 119.47 101.934 119.036C101.453 118.8 101.418 118.567 101.232 118.106L101.659 117.701Z" fill="#F1B361"/>
<path d="M125.648 115.15C130.073 113.945 134.674 114.497 138.805 116.454L138.807 116.586C138.666 116.689 138.7 116.651 138.605 116.756C138.478 116.896 138.266 117.167 138.088 117.234C137.554 117.434 131.734 115.73 129.752 115.988C129.43 116.03 129.394 116.186 129.214 116.431C129.022 116.159 128.758 116.103 128.46 115.976L128.279 115.727C127.447 115.489 126.519 115.074 125.648 115.15Z" fill="#D59447"/>
<path d="M125.649 115.15C126.519 115.074 127.447 115.49 128.279 115.727L128.461 115.976C128.758 116.103 129.022 116.16 129.215 116.431C129.67 116.871 129.932 117.475 129.944 118.111C129.952 118.844 129.487 119.487 128.976 119.964C127.846 121.02 126.217 121.673 124.672 121.597C123.238 121.527 122.085 121.039 121.128 119.943C120.758 119.518 120.381 118.477 119.837 118.425C119.725 118.413 119.612 118.411 119.5 118.407C120.257 118.189 121.011 118.753 121.723 118.36C121.317 118.363 121.12 118.397 120.746 118.19C120.628 117.561 120.946 117.039 121.093 116.421L121.115 116.326C122.641 116.039 124.155 115.574 125.649 115.15Z" fill="#F4B75E"/>
<path d="M125.649 115.15C126.519 115.074 127.447 115.49 128.28 115.727L128.461 115.976L128.538 116.412C128.129 116.936 122.862 118.224 121.935 118.338C121.864 118.347 121.794 118.353 121.723 118.36C121.317 118.363 121.121 118.397 120.747 118.19C120.628 117.561 120.947 117.039 121.093 116.421L121.115 116.326C122.641 116.039 124.155 115.574 125.649 115.15Z" fill="#ECD4A5"/>
<path d="M101.287 118.348C101.18 119.32 101.137 120.337 100.704 121.225C99.3866 123.926 96.4138 126.375 93.6015 127.389C90.6445 128.455 87.501 127.71 84.5518 128.407L84.4722 128.008C84.4607 127.553 84.329 127.065 84.248 126.615C86.0151 126.514 87.8019 126.372 89.5385 126.021C94.5797 125.001 98.4219 122.661 101.287 118.348Z" fill="#9C5F32"/>
<path d="M86.333 135.052L86.8875 135.089C88.8242 138.994 90.828 141.161 94.6908 143.142C94.6113 142.314 94.4744 141.476 94.7019 140.662L94.8871 140.556C95.3229 141.24 95.3027 142.308 95.3798 143.1L95.0004 143.198L94.8037 143.616C93.0241 143.33 89.8487 140.333 88.6892 138.958C87.7958 137.733 87.0803 136.37 86.333 135.052Z" fill="#2E1C0C"/>
<path d="M134.278 119.983C134.873 119.897 135.453 119.857 136.055 119.884C136.926 119.922 137.836 120.122 138.448 120.791C138.861 121.156 139.209 121.66 139.31 122.213C139.425 122.846 139.223 123.452 138.871 123.969C138.273 124.849 137.434 125.322 136.412 125.514C135.721 125.768 134.639 125.627 133.948 125.398C133.148 125.133 132.414 124.634 132.032 123.857C131.76 123.304 131.717 122.689 131.914 122.104C132.308 120.94 133.262 120.498 134.278 119.983Z" fill="#F4B75E"/>
<path d="M115.436 119.93C116.22 119.909 116.831 119.982 117.509 120.406C117.983 120.704 118.552 121.266 118.646 121.839C118.694 122.135 118.62 122.43 118.431 122.662C118.024 123.161 117.561 123.229 116.966 123.318C116.518 123.371 115.995 123.406 115.549 123.318C115 123.209 114.444 122.85 114.147 122.367C113.962 122.064 113.9 121.735 113.984 121.387C114.166 120.641 114.819 120.267 115.436 119.93Z" fill="#F4B75E"/>
<path d="M125.951 124.406C126.723 124.318 127.621 124.194 128.324 124.604C128.822 124.894 129.138 125.308 129.27 125.871C129.249 126.141 129.22 126.382 129.05 126.602C128.642 127.132 128.075 127.285 127.451 127.365C126.994 127.509 126.179 127.536 125.716 127.398C125.271 127.262 124.902 126.947 124.693 126.528C124.516 126.174 124.524 125.784 124.673 125.421C124.929 124.801 125.378 124.637 125.951 124.406Z" fill="#F4B75E"/>
<path d="M80.3537 61.2806C80.9563 60.9629 81.7784 60.8249 82.4408 60.6578C86.8442 59.5486 90.9558 60.1471 95.3018 61.1494L95.365 61.4264L94.837 61.885C95.5954 62.1085 96.5742 62.5375 97.3514 62.5696C102.022 65.1057 104.96 67.1079 106.953 72.2783L106.821 73.3583C106.528 73.336 106.28 73.077 105.996 72.9784C107.476 74.9689 107.746 77.9952 107.932 80.4186C107.807 82.5938 107.324 84.6305 105.649 86.1536C105.353 86.4227 105.03 86.6739 104.688 86.8799L104.297 86.4524L103.277 86.8352C103.243 86.8508 103.209 86.8712 103.173 86.8824C102.541 87.0704 102.176 86.7235 101.65 86.4116C101.128 86.4543 100.588 86.5311 100.065 86.4995C99.6227 86.6462 98.9843 86.7614 98.6729 87.1209C99.0629 87.5315 100.074 87.2346 100.314 87.6029C98.5716 87.583 96.4618 87.9167 94.782 87.4824L94.0974 87.2725C92.9822 86.499 92.3487 85.557 90.95 85.1294C87.5597 84.0931 83.5155 85.3796 80.5118 86.9727L80.5581 87.2458L80.2649 87.3915C80.0952 86.1453 83.1067 83.2652 82.194 78.3421C81.695 75.7807 80.2037 73.5254 78.05 72.0752C76.7319 71.1909 75.2141 70.7993 73.6481 71.1239C71.8348 71.4995 70.3291 72.7466 69.3595 74.3047C67.9681 76.5401 67.645 79.3342 68.2511 81.8776C68.8089 84.2199 70.0388 86.1492 72.0942 87.3993C68.7819 88.2243 67.943 88.6159 65.2623 90.8367C65.1481 90.7925 65.0039 90.7755 64.9398 90.6657C64.3675 89.6838 64.6987 87.7652 64.9321 86.7177C64.8409 86.2036 64.7595 85.9515 64.3906 85.5604L66.7946 75.0534C66.8717 75.1744 66.9701 75.2176 67.0882 75.2934L67.6339 75.0048C67.9734 73.318 68.7916 70.1551 70.0938 68.9658C70.7071 67.7618 71.7591 66.8504 72.7152 65.9273C73.1308 65.7188 73.5589 65.2991 73.9287 65.0051L75.6186 63.9508C75.6008 63.5928 75.5844 63.2342 75.5704 62.8756C75.9585 62.6536 76.3442 62.5171 76.7651 62.3786C77.5491 62.0657 78.3422 61.7757 79.143 61.5094L79.2308 62.006C79.3576 62.091 79.4955 62.2071 79.6348 62.2654L80.0489 62.2717C80.3185 61.8593 80.4424 61.7878 80.3537 61.2806Z" fill="#CC7C27"/>
<path d="M94.7825 87.4823C95.066 87.321 95.3085 87.1568 95.5539 86.941C95.4117 86.2856 94.7006 85.6604 94.3452 85.0812C93.6823 84.0002 93.3896 82.48 93.2773 81.2173C93.0396 78.533 94.0246 75.732 95.742 73.6861C97.0394 72.1411 98.844 70.9542 100.885 70.8002C103.068 70.6355 104.417 71.6378 105.996 72.9783C107.476 74.9688 107.746 77.9951 107.933 80.4185C107.808 82.5937 107.324 84.6303 105.649 86.1535C105.354 86.4226 105.03 86.6738 104.688 86.8798L104.298 86.4523L103.278 86.8351C103.243 86.8507 103.21 86.8711 103.173 86.8823C102.542 87.0703 102.176 86.7234 101.651 86.4115C101.128 86.4542 100.589 86.531 100.066 86.4994C99.6232 86.6461 98.9848 86.7613 98.6734 87.1208C99.0634 87.5314 100.074 87.2345 100.315 87.6028C98.5721 87.5828 96.4623 87.9166 94.7825 87.4823Z" fill="#F9F6F5"/>
<path d="M95.1816 81.7333C95.2429 80.7849 95.4044 79.9235 95.7973 79.0519C96.4275 77.6541 97.5639 76.4278 99.0132 75.8939C100.183 75.4746 101.471 75.5431 102.59 76.0838C103.761 76.6445 104.675 77.7279 105.099 78.9484C105.735 80.4968 105.867 82.206 105.22 83.7811C104.699 85.0526 103.81 85.8348 102.742 86.6306C102.926 86.805 103.038 86.8055 103.277 86.8352C103.242 86.8507 103.209 86.8711 103.173 86.8823C102.541 87.0703 102.176 86.7234 101.65 86.4115C101.128 86.4543 100.588 86.531 100.065 86.4994L99.1882 86.2721C98.8859 86.1059 98.574 85.9791 98.3975 85.6667L98.7244 85.363C98.5677 85.1643 98.235 84.9758 98.033 84.7951C97.1733 84.0265 96.8156 83.2413 96.4381 82.1754C96.4101 82.1317 96.3875 82.0845 96.3542 82.0447C96.0292 81.6536 95.6358 81.7396 95.1816 81.7333Z" fill="black"/>
<path d="M104.341 78.9521C104.362 78.9735 104.383 78.9944 104.404 79.0163C104.81 79.4603 105.033 80.2479 105.004 80.8445C104.964 81.685 104.8 82.2734 105.029 83.1134L105.158 83.0828C105.472 81.5942 104.964 80.3582 105.099 78.9482C105.736 80.4966 105.867 82.2058 105.221 83.781C104.699 85.0524 103.811 85.8346 102.743 86.6305C102.926 86.8049 103.038 86.8054 103.278 86.835C103.243 86.8506 103.21 86.871 103.173 86.8821C102.541 87.0702 102.176 86.7233 101.65 86.4113C101.835 86.2355 101.916 86.0907 102.027 85.8667L101.861 85.5504C103.097 83.8019 104.036 83.7047 104.302 81.2662C104.362 81.2609 104.518 81.1409 104.572 81.1059C104.707 80.4048 104.48 79.6435 104.341 78.9521Z" fill="#35302F"/>
<path d="M104.301 81.2663C104.199 80.6798 104.109 80.0162 103.856 79.474C103.345 78.3755 101.964 77.395 100.747 77.3722C100.149 77.361 99.5132 77.5165 98.9404 77.3251L99.0103 77.1195C99.7273 76.7289 100.707 76.7829 101.489 76.9301C102.793 77.1744 103.603 77.8882 104.34 78.9522C104.48 79.6435 104.707 80.4049 104.572 81.1059C104.518 81.1409 104.362 81.2609 104.301 81.2663Z" fill="#5D584F"/>
<path d="M98.7243 85.363C99.7359 85.7498 100.818 85.9922 101.861 85.5506L102.027 85.8669C101.915 86.0908 101.834 86.2356 101.65 86.4115C101.128 86.4543 100.588 86.531 100.065 86.4994L99.1882 86.2721C98.8859 86.1059 98.5739 85.9791 98.3975 85.6667L98.7243 85.363Z" fill="#433732"/>
<path d="M97.8023 77.5403C98.0019 77.5374 98.2145 77.534 98.4108 77.5782C99.2429 77.7668 99.836 78.8079 100.264 79.4614C99.9073 80.3748 99.7174 81.0744 98.784 81.5131C98.4725 81.5097 98.1615 81.4995 97.8587 81.416C97.2816 81.2537 96.7951 80.8601 96.5136 80.3272C96.2783 79.8928 96.2349 79.3788 96.395 78.9109C96.6452 78.1695 97.1389 77.8416 97.8023 77.5403Z" fill="#F9F6F5"/>
<path d="M94.7825 87.4823C95.066 87.321 95.3085 87.1568 95.5539 86.941C95.4117 86.2856 94.7006 85.6604 94.3452 85.0812C93.6823 84.0002 93.3896 82.48 93.2773 81.2173C93.0396 78.533 94.0246 75.732 95.742 73.6861C97.0394 72.1411 98.844 70.9542 100.885 70.8002C103.068 70.6355 104.417 71.6378 105.996 72.9783C107.476 74.9688 107.746 77.9951 107.933 80.4185C107.808 82.5937 107.324 84.6303 105.649 86.1535C105.354 86.4226 105.03 86.6738 104.688 86.8798L104.298 86.4523C105.967 85.2717 106.827 83.8787 107.183 81.8416C107.599 79.4556 107.288 76.5259 105.879 74.4912C104.963 73.1687 103.587 72.1693 101.994 71.8885C100.402 71.6082 98.8378 72.1159 97.5519 73.0623C95.5395 74.5437 94.2695 76.9894 93.9258 79.4502C93.6616 81.3407 93.9441 83.7602 95.1311 85.3164C95.8543 86.2647 96.6595 86.6719 97.819 86.821C97.9347 86.8968 98.1059 86.9017 98.2414 86.925C98.5162 86.6918 98.7809 86.4989 99.0957 86.323L99.1888 86.272L100.066 86.4994C99.6232 86.6461 98.9848 86.7613 98.6734 87.1208C99.0634 87.5314 100.074 87.2345 100.315 87.6028C98.5721 87.5828 96.4623 87.9166 94.7825 87.4823Z" fill="#1A120D"/>
<path d="M96.4387 82.1755C96.8162 83.2415 97.174 84.0266 98.0336 84.7952C98.2356 84.976 98.5683 85.1645 98.725 85.3632L98.3981 85.6668C98.5746 85.9792 98.8865 86.106 99.1888 86.2722L99.0958 86.3232C98.7809 86.4991 98.5163 86.692 98.2414 86.9252C98.106 86.9019 97.9348 86.897 97.8191 86.8212L97.9806 86.6235C97.2425 85.9535 96.3572 85.2777 95.9219 84.3609C96.4542 83.6433 96.1311 82.9684 96.4387 82.1755Z" fill="#35302F"/>
<path d="M95.1816 81.7334C95.6358 81.7397 96.0292 81.6537 96.3542 82.0448C96.3875 82.0847 96.4101 82.1318 96.4381 82.1755C96.1305 82.9684 96.4535 83.6433 95.9212 84.3609C95.4386 83.5621 95.2858 82.6478 95.1816 81.7334Z" fill="#1A120D"/>
<path d="M80.3546 61.2806C80.9572 60.9629 81.7793 60.8249 82.4417 60.6578C86.8451 59.5486 90.9567 60.1471 95.3027 61.1494L95.3659 61.4264L94.8379 61.885L94.6002 61.9695C93.5964 62.3082 90.2856 61.2578 88.8701 61.3205C88.7254 61.6401 88.8079 61.7159 88.9086 62.0424C89.0721 62.1707 89.2023 62.2664 89.4125 62.296C90.0831 62.3922 90.7629 62.1775 91.4336 62.2193C92.1804 62.2659 92.973 62.5015 93.7218 62.6152C88.4183 62.3616 83.4629 62.0667 78.4154 64.1602C76.9198 64.7948 75.5048 65.6061 74.1991 66.5773C73.6109 67.0107 71.774 68.9031 71.2109 68.956C71.8232 68.0081 73.0073 67.2016 73.8597 66.4491C73.5189 66.3665 73.0825 66.1585 72.7682 66.3538C72.0021 66.829 70.8724 68.3103 70.3184 69.0396L70.0947 68.9658C70.708 67.7618 71.76 66.8504 72.7161 65.9273C73.1317 65.7188 73.5598 65.2991 73.9296 65.0051L75.6195 63.9508C75.6017 63.5928 75.5853 63.2342 75.5713 62.8756C75.9594 62.6536 76.3451 62.5171 76.766 62.3786C77.55 62.0657 78.3431 61.7757 79.1439 61.5094L79.2317 62.006C79.3585 62.091 79.4964 62.2071 79.6357 62.2654L80.0499 62.2717C80.3194 61.8593 80.4433 61.7878 80.3546 61.2806Z" fill="#CC7C27"/>
<path d="M80.3535 61.2806C80.9562 60.9629 81.7782 60.8249 82.4407 60.6578C86.8441 59.5486 90.9557 60.1471 95.3017 61.1494L95.3648 61.4264L94.8369 61.885L94.5992 61.9695C90.8607 60.5917 83.729 60.6422 80.0488 62.2717C80.3183 61.8593 80.4422 61.7878 80.3535 61.2806Z" fill="black"/>
<path d="M76.765 62.3787C77.549 62.0658 78.3421 61.7758 79.1429 61.5095L79.2307 62.0061C79.3575 62.0911 79.4954 62.2072 79.6347 62.2655C78.2978 62.8262 76.9053 63.279 75.6185 63.9509C75.6007 63.5928 75.5843 63.2343 75.5703 62.8757C75.9584 62.6537 76.3441 62.5172 76.765 62.3787Z" fill="black"/>
<path d="M66.7946 75.0532C66.8717 75.1742 66.9701 75.2174 67.0882 75.2932L67.6339 75.0046C67.2126 77.0685 66.85 79.1708 66.3404 81.2123C65.8848 83.0357 65.2363 84.8669 64.9321 86.7175C64.8409 86.2034 64.7595 85.9513 64.3906 85.5602L66.7946 75.0532Z" fill="black"/>
<path d="M80.5587 87.2457L80.5124 86.9726C83.5161 85.3795 87.5603 84.093 90.9506 85.1293C92.3493 85.5569 92.9829 86.4989 94.098 87.2724L94.7827 87.4823C96.4624 87.9166 98.5722 87.5828 100.315 87.6028C104.216 87.7116 107.956 88.5108 110.768 91.4181C110.751 91.4837 110.731 91.5493 110.711 91.6144C109.52 95.3433 105.606 98.3045 102.285 100.061C95.3482 103.73 86.9022 105.378 79.2854 102.957C73.4834 101.114 68.3206 97.4145 65.4736 91.9171C68.3476 88.967 72.6994 87.9565 76.7035 87.9739C77.3139 87.9769 79.1552 88.2285 79.6431 87.9263C79.8519 87.7971 80.0761 87.5547 80.2656 87.3914L80.5587 87.2457Z" fill="#EED8AA"/>
<path d="M80.5584 87.2457L80.5121 86.9726C83.5158 85.3795 87.56 84.093 90.9504 85.1293C92.3491 85.5569 92.9826 86.4989 94.0978 87.2724C94.5327 88.4894 94.591 89.4747 94.0365 90.6738C93.3047 92.2552 91.7777 93.4533 90.1616 94.0091C89.7364 94.1554 89.3087 94.2856 88.8637 94.3546C89.1024 94.8914 89.5758 95.3389 89.9659 95.7742C91.5805 96.2713 93.3206 96.3538 94.8518 95.5158C96.1039 94.8302 96.6343 93.758 97.1338 92.4758L97.356 92.4719C97.5364 93.0272 97.302 93.827 97.0518 94.341C96.5239 95.4264 95.306 96.2023 94.1942 96.5613C93.903 96.6551 93.6031 96.7046 93.3104 96.7906C92.6875 98.6096 92.0921 100.082 90.259 100.98C88.9018 101.645 87.1714 101.774 85.7419 101.274C84.5028 100.837 83.4985 99.9015 82.9691 98.6908C82.7295 98.1534 82.6191 97.5311 82.5 96.9563C80.839 96.5919 79.0045 95.8286 78.0402 94.3313C77.7066 93.8133 77.5012 93.1997 77.6198 92.5759C77.6468 92.4335 77.7148 92.3412 77.7958 92.2261C78.0325 92.2125 78.1048 92.3471 78.2794 92.4948C78.5995 93.8819 78.7306 94.5815 80.0088 95.4016C81.3814 96.2824 83.1895 96.5953 84.7713 96.211C85.7597 95.971 86.6276 95.404 87.345 94.6859C85.5914 93.5102 83.9985 93.9713 82.4908 91.9768C81.8004 91.0873 81.5299 90.1306 81.2677 89.053C81.4919 88.2344 81.9682 87.5017 82.2522 86.6996C81.6293 86.8084 81.1302 86.975 80.5584 87.2457Z" fill="black"/>
<path d="M88.6896 86.1006C89.5246 86.173 90.3934 86.0642 91.229 86.0078C91.7449 86.3095 92.2863 86.5937 92.7535 86.9688C92.8099 87.5718 92.8885 88.181 92.9203 88.7849C91.9546 90.4956 90.5636 91.8735 88.6346 92.4064C86.221 93.073 84.9024 91.8453 82.8302 91.925C82.7747 91.9269 82.7198 91.9264 82.6648 91.9298C82.5486 91.9376 82.5795 91.9318 82.4908 91.9769C81.8003 91.0873 81.5299 90.1307 81.2676 89.0531C81.4918 88.2344 81.9681 87.5018 82.2521 86.6997C82.7342 86.9246 83.2072 86.7312 83.6455 86.9241C85.3691 86.2979 86.8705 86.0515 88.6896 86.1006Z" fill="black"/>
<path d="M83.6445 86.9241C85.3682 86.2978 86.8695 86.0515 88.6886 86.1005L88.9234 86.4994C88.7957 86.9571 88.6747 87.1859 88.2465 87.4391C87.2938 88.0026 85.8464 88.1625 84.7896 87.8506C84.2337 87.6864 83.9372 87.4167 83.6445 86.9241Z" fill="#F9F6F5"/>
<path d="M87.6953 96.3511C88.6099 96.5489 90.3221 95.9073 91 96.5C92 96.9999 92 97 91.5 98C91.0637 98.6938 90.2719 99.3149 89.5 99.5C88.4417 99.7541 86.4305 100.103 85.5 99.5C84.9803 99.1634 83.6326 98.1127 83.5 97.5C83.8529 97.0113 85.5676 96.7889 86.0705 96.3847L86.1684 96.3045C86.7137 96.5528 87.1461 96.3332 87.6953 96.3511Z" fill="#ED7455"/>
<path d="M90.5599 98.96L90.9465 99.1305L91.0815 99.6586C89.8043 100.615 88.518 101.235 86.8889 101.006C86.2139 100.911 85.6488 100.614 85.0664 100.275C85.2723 99.9972 85.4589 99.7038 85.6512 99.4162C85.7457 99.4492 85.8417 99.4798 85.9381 99.508C87.4438 99.9598 89.1978 99.7135 90.5599 98.96Z" fill="#F9F5F4"/>
<path d="M88.3361 94.5991C88.7903 95.085 89.2368 95.581 89.7011 96.0567C89.0352 96.1529 88.354 96.2228 87.6949 96.3511C87.1457 96.3331 86.7133 96.5527 86.168 96.3044C86.6723 95.9133 87.1554 95.5086 87.6327 95.0845L88.3361 94.5991Z" fill="white"/>
<path d="M85.0658 100.275C84.4004 99.8942 83.4304 98.7564 83.1883 98.0091C83.0856 97.6914 83.1097 97.671 83.2611 97.3727C83.346 97.3751 83.4371 97.3489 83.5157 97.3804C83.7288 97.465 84.3074 98.4377 84.5542 98.6845C84.857 98.9862 85.2818 99.2048 85.6506 99.4161C85.4582 99.7038 85.2716 99.9972 85.0658 100.275Z" fill="#F9F5F4"/>
<path d="M90.5596 98.9598C91.0451 98.3996 91.438 97.4173 92.0113 97.0315L92.3001 97.0475C92.425 97.7399 92.074 98.3831 91.6993 98.9404C91.5195 99.2071 91.3112 99.4355 91.0812 99.6585L90.9462 99.1304L90.5596 98.9598Z" fill="#F9F5F4"/>
<path d="M115.353 28.2898C115.995 27.6217 116.413 27.241 117.356 27.1228C117.322 27.1675 117.29 27.2131 117.256 27.257C117.139 27.4065 117.046 27.4547 116.883 27.5423C116.342 27.8352 115.692 28.7862 115.447 29.3448L115.528 29.4254C115.843 29.2531 115.995 29.0434 116.264 28.8348C116.918 28.304 117.474 27.9554 118.356 28.0553C119.376 28.1707 120.344 28.5886 120.97 29.4279C121.288 29.8543 121.727 30.3899 121.756 30.9409C122.442 31.3026 122.816 32.3863 123.04 33.0904C124.142 36.5527 123.48 41.3381 121.829 44.5501C119.471 49.1364 114.928 50.4615 110.725 52.7566C107.726 54.3943 104.982 56.1453 102.502 58.5175C101.489 59.8783 100.639 61.2955 99.8232 62.7832C99.2369 62.5553 98.5879 62.2327 97.9747 62.1142C97.9346 62.1186 97.8951 62.1239 97.8551 62.1273C97.1782 62.1822 96.3884 61.9553 95.7834 61.6517C96.2395 61.9092 97.0157 62.1924 97.3513 62.5694C96.574 62.5374 95.5953 62.1084 94.8369 61.8849L95.3649 61.4262L95.3017 61.1493C95.5818 60.9258 95.6556 60.5357 95.7891 60.2034C96.7206 57.8914 97.8286 56.1721 99.4485 54.2888C99.8314 53.8437 100.232 53.2538 100.781 53.0199C102.574 50.9699 105.227 50.2097 107.145 48.4035C107.595 47.9804 108.036 47.4467 108.055 46.8016C107.685 45.6807 106.188 44.9906 105.332 44.257C104.705 43.7196 104.166 42.9093 104.152 42.0563C104.14 41.3958 104.477 40.7773 104.914 40.307C105.652 39.5128 106.736 39.1397 107.797 39.1221C111.826 39.0554 111.141 42.5544 113.29 44.6133C114.021 45.313 114.816 45.1916 115.737 45.1617C116.628 44.4071 117.302 43.6728 117.864 42.6371C120.272 35.5919 115.748 34.8969 115.179 30.666C115.079 29.9233 115.263 29.0344 115.353 28.2898Z" fill="#D7BC9E"/>
<path d="M100.78 53.0199C102.573 50.9699 105.227 50.2097 107.145 48.4034C107.594 47.9803 108.036 47.4467 108.054 46.8016C107.684 45.6806 106.187 44.9906 105.332 44.2569C104.705 43.7195 104.166 42.9092 104.151 42.0563C104.14 41.3958 104.476 40.7772 104.913 40.307C105.651 39.5128 106.735 39.1396 107.797 39.122C111.826 39.0554 111.141 42.5543 113.29 44.6133C114.02 45.313 114.816 45.1915 115.737 45.1617C116.628 44.407 117.301 43.6728 117.863 42.6371C117.786 43.457 117.645 44.1923 117.407 44.9805C116.793 45.7026 115.701 46.1596 114.766 46.2186C114.026 46.2654 113.337 46.0453 112.781 45.5461C110.994 43.9424 110.761 40.1093 107.684 40.2373C106.919 40.2692 105.693 40.6142 105.184 41.2318C105.038 41.41 105.038 41.5963 104.997 41.8185C105.578 44.1792 110.435 45.4473 108.682 48.4128C107.849 49.8222 105.399 51.0787 103.898 51.71C102.78 51.7617 101.87 52.6963 100.78 53.0199Z" fill="black"/>
<path d="M121.757 31C122.442 31.3617 122.816 32.4454 123.04 33.1494C124.143 36.6118 123.48 41.3972 121.829 44.6091C119.472 49.1955 114.929 50.5206 110.725 52.8157C107.726 54.4534 104.983 56.2044 102.503 58.5765C102.513 58.5464 102.525 58.5163 102.534 58.4857C102.503 56 111.367 51.9518 115 50C117.543 48.6337 117.753 48.601 119.684 46.2526C122.332 43.032 123.062 39.0389 122.568 34.9577C122.446 33.9525 122.091 32.9658 122.005 31.9704C121.974 31.6052 121.902 31.3364 121.757 31Z" fill="#B49E87"/>
<path d="M115.353 28.2898C115.995 27.6217 116.414 27.241 117.356 27.1228C117.322 27.1675 117.29 27.2131 117.256 27.257C117.139 27.4065 117.046 27.4547 116.883 27.5423C116.342 27.8352 115.692 28.7862 115.447 29.3448L115.528 29.4254C115.843 29.2531 115.995 29.0434 116.264 28.8348C115.918 30.0115 116.194 30.7415 116.762 31.7943C117.465 33.0957 118.348 34.284 118.93 35.6493C118.47 36.9228 118.646 41.5735 118.757 43.1431C118.417 43.8162 118.002 44.5033 117.408 44.9805C117.645 44.1924 117.787 43.457 117.864 42.6371C120.273 35.5919 115.748 34.8969 115.179 30.666C115.079 29.9233 115.263 29.0344 115.353 28.2898Z" fill="black"/>
<path d="M100.781 53.0201C101.871 52.6965 102.78 51.7619 103.898 51.7102C100.535 54.0859 97.4853 57.4153 96.2014 61.4337L97.9747 62.1143C97.9346 62.1187 97.8951 62.1241 97.8551 62.1275C97.1782 62.1824 96.3884 61.9555 95.7834 61.6518C96.2395 61.9093 97.0157 62.1926 97.3513 62.5696C96.574 62.5375 95.5953 62.1085 94.8369 61.885L95.3649 61.4264L95.3017 61.1494C95.5818 60.926 95.6556 60.5358 95.7891 60.2035C96.7206 57.8915 97.8286 56.1723 99.4485 54.289C99.8314 53.8438 100.232 53.2539 100.781 53.0201Z" fill="black"/>
<path d="M118.93 35.6494C119.686 37.8338 120.101 40.3522 119.076 42.5319C118.979 42.7403 118.872 42.9442 118.757 43.1432C118.646 41.5736 118.471 36.923 118.93 35.6494Z" fill="black"/>
<path d="M105.907 66.8343C107.019 66.8163 107.233 66.4257 108.032 65.7518C111.664 62.6856 116.968 60.1354 121.827 60.6431C122.279 60.6903 122.553 60.7578 122.844 61.1188L122.709 61.6114C122.941 62.6113 121.388 65.0585 120.851 65.9267C119.141 68.6708 116.415 70.6137 113.279 71.3245C111.479 71.7326 109.63 71.7627 107.799 71.5946L105.571 67.4086L105.907 66.8343Z" fill="#F1763F"/>
<path d="M103.261 64.3662C104.462 62.7716 106.057 61.3058 107.678 60.1514C111.273 57.5919 116.488 55.8388 120.912 56.6177C121.827 56.7787 124.317 57.1714 124.863 57.9498L124.827 58.2318L124.638 58.21L124.646 58.1026C124.467 58.2401 124.335 58.3577 124.193 58.5369L123.756 58.4437L124.084 58.8513C124.007 59.0845 123.948 59.1904 123.768 59.3571L123.453 59.3575C123.519 60.0489 123.426 60.751 122.993 61.3194C122.908 61.4307 122.812 61.5181 122.709 61.6114L122.844 61.1187C122.553 60.7578 122.279 60.6902 121.827 60.6431C116.968 60.1354 111.663 62.6856 108.031 65.7518C107.233 66.4257 107.019 66.8163 105.907 66.8343L105.571 67.4085C105.537 67.0349 105.592 66.8726 105.315 66.6088L104.796 66.638C104.273 66.1414 103.405 65.5035 103.13 64.8306C103.076 64.6999 103.207 64.4968 103.261 64.3662Z" fill="#D19C6B"/>
<path d="M105.907 66.8341C107.626 64.398 110.37 62.015 113.066 60.7479C115.818 59.454 120.505 58.2773 123.454 59.3574C123.519 60.0487 123.427 60.7508 122.993 61.3192C122.909 61.4305 122.812 61.5179 122.71 61.6112L122.845 61.1186C122.553 60.7576 122.28 60.69 121.828 60.6429C116.968 60.1352 111.664 62.6854 108.032 65.7516C107.234 66.4255 107.02 66.8161 105.907 66.8341Z" fill="#CE5633"/>
<path d="M118.707 57.959C120.3 57.9947 122.238 57.9229 123.756 58.4435L124.084 58.8511C124.007 59.0843 123.948 59.1902 123.768 59.3569L123.453 59.3574C120.505 58.2773 115.818 59.454 113.065 60.7478C110.37 62.0149 107.625 64.398 105.907 66.8341L105.571 67.4083C105.537 67.0347 105.592 66.8724 105.315 66.6086L104.796 66.6378C105.821 65.6345 106.702 64.4801 107.728 63.4735C110.757 60.501 114.59 58.7335 118.707 57.959Z" fill="black"/>
<path d="M103.261 64.3662C103.518 64.7131 103.544 64.8297 103.966 64.9584C104.875 64.7 105.977 63.2419 106.715 62.5783C108.497 60.974 113.69 58.0192 116.068 57.664C116.816 57.5521 117.908 57.913 118.707 57.9592C114.59 58.7337 110.757 60.5013 107.728 63.4737C106.702 64.4804 105.821 65.6347 104.796 66.638C104.273 66.1415 103.405 65.5035 103.13 64.8306C103.076 64.7 103.207 64.4969 103.261 64.3662Z" fill="#CE9258"/>
<path d="M83.7221 134.733C84.4371 134.787 85.1912 134.798 85.8724 135.035L86.3338 135.052C87.0812 136.37 87.7966 137.733 88.69 138.958C89.8496 140.333 93.0249 143.33 94.8045 143.616C95.3324 145.153 95.8985 146.64 96.5291 148.139C89.9373 147.014 85.2703 144.619 80.8447 139.508C82.7395 137.936 83.3981 137.183 83.7221 134.733Z" fill="#BFB86C"/>
<path d="M144.012 112.893C145.164 112.629 146.261 112.566 147.432 112.66C149.914 112.86 153.48 114.094 155.16 111.471C155.806 110.463 155.79 107.338 156.308 107.023L156.433 107.081L156.29 107.156L156.462 106.99C156.614 107.019 156.794 107.013 156.901 107.126C156.989 107.216 157.073 107.262 157.182 107.321C158.747 109.214 159.631 111.377 159.423 113.884C159.355 114.697 159.12 116.106 158.562 116.72L158.853 117.06C158.896 117.564 158.812 117.99 158.477 118.384C158.239 118.664 157.991 118.838 157.649 118.963C157.37 120.39 153.897 120.441 153.219 121.68C153.939 121.985 154.827 121.717 155.594 121.958L155.508 122.176C154.98 122.5 154.47 122.803 153.875 122.984C151.378 123.743 148.585 123.653 146.249 122.438C145.418 122.006 144.667 121.431 143.838 120.986C145.436 121.11 147.072 121.281 148.665 121.028C151.457 120.585 153.782 118.94 155.423 116.661C156.12 115.693 157.204 113.314 157.014 112.101L156.775 111.97L156.353 112.294L155.749 111.821C155.451 112.684 154.765 113.513 153.941 113.907C151.743 114.961 148.819 113.903 146.498 113.838C145.943 113.55 145.512 113.842 144.982 113.653C144.597 113.515 144.517 113.09 144.012 112.893Z" fill="#EED8AA"/>
<path d="M144.012 112.893C145.164 112.629 146.261 112.566 147.432 112.66C149.914 112.86 153.479 114.094 155.16 111.471C155.806 110.463 155.79 107.338 156.308 107.023L156.433 107.081L156.289 107.156L156.461 106.99C156.614 107.019 156.794 107.013 156.901 107.126C156.988 107.216 157.073 107.262 157.182 107.321C158.746 109.214 159.631 111.377 159.423 113.884C159.355 114.697 159.12 116.106 158.562 116.72L158.852 117.06C158.896 117.564 158.811 117.99 158.477 118.384C158.239 118.664 157.991 118.838 157.648 118.963L157.555 118.593L157.007 118.468C156.949 118.397 156.842 118.348 156.832 118.256C156.814 118.106 158.851 115.301 158.521 112.47C158.373 111.198 157.837 109.432 156.807 108.597C156.647 108.736 156.595 110.808 155.827 111.731C155.801 111.762 155.775 111.791 155.749 111.821C155.451 112.684 154.765 113.512 153.94 113.907C151.742 114.961 148.819 113.903 146.498 113.838C145.943 113.55 145.512 113.842 144.982 113.653C144.597 113.515 144.517 113.09 144.012 112.893Z" fill="black"/>
<path d="M157.007 118.468C157.334 118.378 157.629 118.289 157.897 118.071C158.333 117.715 158.498 117.265 158.562 116.72L158.852 117.06C158.895 117.564 158.811 117.989 158.476 118.384C158.239 118.664 157.99 118.838 157.648 118.963L157.555 118.593L157.007 118.468Z" fill="#BFBCBB"/>
<path d="M123.303 173.163C124.175 172.757 125.024 172.407 125.941 172.116C127.453 173.177 127.799 174.96 130.009 175.061C130.703 175.18 131.384 175.223 131.84 175.833C132.108 176.193 132.192 176.655 132.124 177.095C132.008 177.846 131.146 178.9 130.497 179.301C130.359 179.386 130.192 179.431 130.035 179.464C130.806 179.516 131.647 179.388 132.382 179.152C132.393 179.488 132.424 179.61 132.262 179.911C132.199 179.971 132.191 179.985 132.103 180.032C130.362 180.955 123.937 180.544 121.999 179.892C121.336 179.669 120.383 179.305 120.078 178.611C119.6 177.525 120.077 176.385 120.488 175.355C121.221 174.563 121.969 173.782 122.656 172.95L123.303 173.163Z" fill="#06762F"/>
<path d="M120.488 175.355C120.749 176.114 120.644 176.812 120.591 177.596C121.644 178.916 122.875 179.245 124.517 179.424C126.313 179.619 128.233 179.573 130.035 179.465C130.806 179.516 131.647 179.388 132.382 179.152C132.393 179.488 132.424 179.61 132.262 179.911C132.199 179.971 132.191 179.985 132.103 180.032C130.362 180.956 123.937 180.545 121.999 179.893C121.336 179.67 120.383 179.305 120.078 178.611C119.6 177.526 120.077 176.385 120.488 175.355Z" fill="url(#paint0_linear_3042_604)"/>
<path d="M120.487 175.355C121.22 174.563 121.968 173.782 122.655 172.95L123.302 173.163C123.078 174.151 121.12 175.759 120.59 177.596C120.643 176.812 120.748 176.114 120.487 175.355Z" fill="black"/>
<path d="M72.7246 170.203L73.3403 170.683L73.7232 170.565C74.4319 171.191 75.1512 172.353 75.6334 173.177C76.8604 173.477 79.5122 173.51 80.1655 174.645C80.2508 174.794 80.3294 174.954 80.3959 175.112C79.9331 176.259 79.2793 177.099 78.5214 178.056C76.2216 178.548 73.9565 178.652 71.6167 178.45C71.2946 178.662 70.906 178.869 70.6389 179.149C69.8656 178.852 69.1279 178.54 68.3888 178.164C68.2432 177.691 68.0672 177.19 68.0556 176.692C68.006 174.562 69.9051 173.012 71.2556 171.615C71.4995 171.124 72.3177 170.642 72.7246 170.203Z" fill="#06762F"/>
<path d="M72.7246 170.203L73.3403 170.683L72.9778 171.147C73.1166 171.561 73.1475 171.622 72.9378 172.032C72.3679 173.146 70.8255 175.201 69.6419 175.632L69.3102 175.537L69.0204 176.104C68.8767 176.765 68.7919 177.616 68.3888 178.164C68.2432 177.691 68.0672 177.19 68.0556 176.692C68.006 174.562 69.9051 173.012 71.2556 171.615C71.4995 171.124 72.3177 170.642 72.7246 170.203Z" fill="#488E3C"/>
<path d="M71.2556 171.615C71.2734 172.429 70.5738 172.981 70.3916 173.756C70.0252 174.332 69.5956 174.918 69.3102 175.537L69.0204 176.104C68.8767 176.765 68.7919 177.616 68.3888 178.163C68.2432 177.691 68.0672 177.19 68.0556 176.692C68.006 174.562 69.9051 173.012 71.2556 171.615Z" fill="black"/>
<path d="M72.7256 170.203L73.3413 170.683L72.9787 171.147C72.0733 171.982 71.2262 172.849 70.3926 173.756C70.5748 172.981 71.2744 172.429 71.2566 171.615C71.5005 171.124 72.3187 170.642 72.7256 170.203Z" fill="black"/>
<path d="M69.0203 176.104C69.1673 176.829 69.3144 177.38 69.9624 177.824C70.4218 178.138 71.078 178.327 71.6166 178.45C71.2945 178.662 70.9059 178.869 70.6388 179.149C69.8655 178.852 69.1278 178.54 68.3887 178.164C68.7917 177.616 68.8766 176.765 69.0203 176.104Z" fill="black"/>
<path d="M102.734 172.127C102.986 172.444 103.232 172.772 103.499 173.077C104.382 173.553 105.233 174.155 106.153 174.548C107.45 174.232 108.778 174.09 109.964 174.886C110.369 175.158 110.672 175.551 110.736 176.047C110.841 176.862 110.486 177.451 109.994 178.039C107.199 179.22 104.584 179.209 101.617 179.004C100.805 179.107 99.9548 179.073 99.1357 179.085C98.8869 178.882 98.5894 178.609 98.4563 178.309C98.0538 177.401 98.4313 176.077 98.7967 175.221C99.2157 174.238 100.095 172.739 101.123 172.319L101.177 172.898L101.828 172.73L102.734 172.127Z" fill="#06762F"/>
<path d="M102.734 172.127C102.986 172.444 103.232 172.772 103.499 173.077C102.968 175.035 101.158 176.894 99.8704 178.383C100.451 178.652 100.995 178.856 101.617 179.004C100.805 179.107 99.9548 179.073 99.1357 179.085C98.8869 178.882 98.5894 178.609 98.4563 178.309C98.0538 177.401 98.4313 176.077 98.7967 175.221C99.2157 174.238 100.095 172.739 101.123 172.319L101.177 172.898L101.828 172.73L102.734 172.127Z" fill="#488E3C"/>
<path d="M101.123 172.319L101.177 172.898L101.828 172.73C100.801 173.772 99.059 175.674 99.1058 177.226C99.1164 177.578 99.1564 177.807 99.4168 178.063C99.5445 178.189 99.719 178.288 99.8704 178.383C100.451 178.652 100.995 178.856 101.617 179.004C100.805 179.107 99.9548 179.073 99.1357 179.085C98.8869 178.882 98.5894 178.609 98.4563 178.309C98.0538 177.401 98.4313 176.077 98.7967 175.221C99.2157 174.238 100.095 172.739 101.123 172.319Z" fill="black"/>
<path d="M146.498 113.838C148.818 113.903 151.742 114.961 153.94 113.908C154.764 113.513 155.45 112.684 155.748 111.821L156.352 112.294C156.42 112.857 156.165 113.37 155.826 113.805C155.664 114.013 155.492 114.204 155.284 114.367C152.529 116.202 149.968 118.904 146.342 118.162C144.811 117.848 142.861 116.947 141.326 117.054C141.698 117.381 141.846 117.457 141.964 117.957L141.71 117.868C141.423 118.123 141.442 118.256 141.362 118.625C141.009 117.861 139.57 116.904 138.807 116.586L138.805 116.454C138.838 116.451 138.871 116.451 138.904 116.446C139.344 116.37 140.09 116.028 140.356 115.696L140.23 115.156C141.392 114.138 142.627 113.528 144.011 112.893C144.516 113.09 144.596 113.515 144.982 113.653C145.511 113.842 145.942 113.55 146.498 113.838Z" fill="#E7A446"/>
<path d="M144.011 112.893C144.516 113.091 144.596 113.516 144.982 113.653C145.511 113.842 145.942 113.551 146.498 113.838C144.595 113.811 143.435 114.298 141.834 115.253C141.416 115.503 141.009 115.826 140.538 115.963C140.698 116.558 141.07 116.581 141.326 117.055C141.698 117.381 141.846 117.457 141.964 117.957L141.71 117.868C141.423 118.123 141.442 118.256 141.362 118.625C141.009 117.862 139.57 116.904 138.807 116.586L138.805 116.455C138.838 116.452 138.871 116.452 138.904 116.446C139.344 116.37 140.09 116.028 140.356 115.696L140.23 115.156C141.392 114.139 142.627 113.528 144.011 112.893Z" fill="black"/>
<path d="M129.734 36.1995C130.154 35.7542 130.088 35.1261 130.196 34.5496C130.316 33.9093 130.86 33.1086 131.427 32.7748C131.798 32.5566 132.366 32.4636 132.777 32.6081C133.127 32.7312 133.362 32.966 133.514 33.29C134.127 34.9229 133.77 36.7546 133.066 38.2986C131.508 41.7127 128.734 43.4186 125.538 45.03C124.756 45.424 123.962 45.9056 123.153 46.2294C122.987 46.2956 122.81 46.3243 122.634 46.3412C122.279 46.1221 122.306 45.8927 122.211 45.5081C123.132 44.6834 123.308 43.0498 123.706 41.9307C123.762 41.7714 123.976 41.2928 124.111 41.2056C124.234 41.1251 126.83 41.4619 127.944 40.9051C128.716 40.5187 129.238 39.8377 129.506 39.0208C129.76 38.2451 130.116 36.9584 129.734 36.1995Z" fill="#D7BC9E"/>
<path d="M141.216 172.182L141.333 172.205C143.777 172.716 143.357 173.235 146.344 173.129C147.319 173.167 148.123 173.421 148.813 174.161C149.103 174.473 149.377 174.846 149.528 175.247L149.486 175.538C149.425 176.065 149.211 176.252 148.797 176.581C146.049 178.763 142.391 179.994 138.881 179.531C138.465 179.476 138.09 179.34 137.703 179.185C137.748 179.172 137.794 179.161 137.839 179.147C138.919 178.822 140.061 177.491 140.57 176.514C141.156 175.391 141.613 173.432 141.216 172.182Z" fill="#06762F"/>
<path d="M124.864 57.9497L125.425 58.1851L125.498 58.5699C125.699 59.1602 125.576 59.6713 125.308 60.2164C125.214 60.4079 125.11 60.5934 124.977 60.7606C125.229 62.5383 123.086 66.1715 122.011 67.6135C119.78 70.6068 116.578 72.7688 112.862 73.2979C111.811 73.4475 109.222 73.8799 108.409 73.1871C108.237 73.0404 108.112 72.8431 107.993 72.6527C108.115 72.281 107.928 71.9443 107.799 71.5945C109.63 71.7626 111.479 71.7325 113.279 71.3244C116.416 70.6136 119.141 68.6707 120.851 65.9266C121.388 65.0584 122.941 62.6112 122.709 61.6113C122.812 61.518 122.908 61.4306 122.993 61.3193C123.427 60.7509 123.519 60.0488 123.453 59.3575L123.769 59.357C123.948 59.1903 124.007 59.0844 124.084 58.8512L123.756 58.4436L124.193 58.5369C124.335 58.3576 124.467 58.24 124.646 58.1025L124.638 58.2099L124.827 58.2317L124.864 57.9497Z" fill="#9C5F32"/>
<path d="M123.453 59.3577L123.769 59.3572C124.13 60.2652 123.205 62.0682 122.83 62.9466C121.26 66.6313 119.152 69.9399 115.269 71.4645C113.799 72.0422 112.181 72.3405 110.606 72.3774C109.943 72.3925 109.166 72.3177 108.517 72.4211C108.317 72.4532 108.161 72.5455 107.993 72.6529C108.115 72.2812 107.928 71.9445 107.799 71.5947C109.63 71.7628 111.479 71.7327 113.279 71.3246C116.416 70.6138 119.141 68.6709 120.851 65.9268C121.388 65.0586 122.941 62.6114 122.709 61.6115C122.812 61.5182 122.908 61.4308 122.993 61.3195C123.427 60.7511 123.519 60.049 123.453 59.3577Z" fill="black"/>
<path d="M75.5455 111.269C76.4033 111.042 77.2108 110.905 78.0902 110.813C77.3531 112.593 76.8854 114.244 75.4105 115.553C74.7124 116.172 73.9709 116.702 73.3697 117.427C72.6146 118.878 72.5303 120.592 72.0505 121.403C71.659 121.249 71.4807 120.882 71.3129 120.504C71.2213 120.294 71.133 120.083 71.0487 119.87C70.7102 120.137 70.4657 120.388 70.2179 120.742C69.5613 119.677 69.4769 117.89 69.7286 116.693C70.2469 114.229 71.6031 112.545 73.6435 111.221C74.4275 111.027 74.7833 110.932 75.5455 111.269Z" fill="#F1763F"/>
<path d="M71.3082 115.106C71.8921 115.292 72.4649 115.374 72.8014 115.929C72.946 116.396 73.0675 117.05 73.3698 117.427C72.6148 118.878 72.5304 120.592 72.0507 121.403C71.6592 121.249 71.4808 120.882 71.313 120.504C71.2214 120.294 71.1332 120.083 71.0488 119.87C70.8613 119.277 70.6699 118.684 70.4736 118.094C70.4785 116.892 70.7335 116.152 71.3082 115.106Z" fill="#ED7455"/>
<path d="M71.3082 115.106C71.8921 115.292 72.4649 115.374 72.8014 115.929C72.7782 116.538 72.8342 117.308 72.3284 117.743C71.8651 118.142 71.0493 118.087 70.4736 118.094C70.4785 116.892 70.7335 116.152 71.3082 115.106Z" fill="#F9F6F5"/>
<path d="M73.6435 111.221C74.4275 111.027 74.7833 110.932 75.5455 111.269C73.4695 112.148 72.6195 113.388 71.308 115.106C70.7333 116.152 70.4783 116.892 70.4735 118.094C70.6697 118.684 70.8611 119.277 71.0487 119.87C70.7102 120.137 70.4657 120.388 70.2179 120.742C69.5613 119.677 69.4769 117.89 69.7286 116.693C70.2469 114.229 71.6031 112.545 73.6435 111.221Z" fill="black"/>
<path d="M107.933 80.4185C108.423 80.4058 108.804 80.3636 109.223 80.6701C109.597 81.2677 109.598 82.046 110.111 82.5246C110.139 82.5504 110.165 82.578 110.194 82.6038C110.21 82.6189 110.229 82.6325 110.247 82.647C111.008 85.1467 111.426 87.9311 111.12 90.5387C108.876 88.1614 105.397 87.6493 104.688 86.8797C105.03 86.6737 105.354 86.4226 105.649 86.1534C107.324 84.6303 107.808 82.5936 107.933 80.4185Z" fill="#CC7C27"/>
<path d="M133.515 33.2898C134.058 33.5365 134.312 33.6936 134.538 34.2756C134.891 35.1847 134.92 36.5589 134.522 37.4504C134.48 37.5433 134.436 37.635 134.389 37.7256C134.567 38.5652 133.78 39.9597 133.327 40.6596C132.855 41.389 132.253 42.1467 131.527 42.6345C130.528 43.7245 128.819 44.8349 127.446 45.3628C125.37 46.4671 122.296 47.9658 120.023 48.4473C120.724 47.8397 122.118 46.4638 122.211 45.5079C122.306 45.8925 122.28 46.1219 122.634 46.341C122.811 46.3241 122.988 46.2954 123.153 46.2292C123.962 45.9054 124.757 45.4238 125.538 45.0298C128.735 43.4184 131.508 41.7125 133.066 38.2984C133.771 36.7544 134.128 34.9227 133.515 33.2898Z" fill="#B49E87"/>
<path d="M141.326 117.054C142.861 116.948 144.811 117.848 146.342 118.162C149.967 118.905 152.529 116.202 155.284 114.367C155.333 115.185 154.828 116.043 154.293 116.656C152.585 118.61 149.702 119.913 147.169 120.056C146.205 120.111 144.456 120.258 143.684 119.622C143.076 119.12 142.709 118.265 141.964 117.957C141.846 117.457 141.698 117.381 141.326 117.054Z" fill="#A65D14"/>
<path d="M146.814 147.552C147.927 147.911 149.23 148.557 149.772 149.662C150.801 151.753 149.036 154.864 148.562 156.962C148.358 157.869 148.369 158.931 148.07 159.798C148.021 159.941 147.945 160.057 147.864 160.183L147.575 160.03C147.57 159.85 147.565 159.698 147.585 159.519L147.322 159.179L147.363 159.159L147.373 159.172C147.234 159.78 147.159 160.411 146.669 160.838C146.698 160.776 146.754 160.662 146.776 160.589C147.024 159.804 147.004 158.734 147.138 157.897C147.468 155.843 148.542 153.064 148.235 151.018C148.055 149.815 147.323 148.648 146.814 147.552Z" fill="#9C5F32"/>
<path d="M140.104 171.575C140.565 171.606 140.744 171.574 141.115 171.874L141.216 172.182C141.612 173.432 141.155 175.391 140.569 176.514C140.06 177.491 138.918 178.822 137.838 179.147C137.793 179.161 137.748 179.172 137.702 179.185C137.647 179.065 137.625 179.032 137.591 178.913C136.911 176.566 139.114 173.573 140.104 171.575Z" fill="#61A130"/>
<path d="M73.7236 170.565C74.0356 170.389 74.0876 170.346 74.4589 170.363C75.5278 171.435 76.1574 172.696 77.8743 172.71C78.9943 172.72 80.1211 171.741 81.1254 171.921C81.5145 172.418 81.5014 173.299 81.555 173.917C81.5771 174.906 81.7719 176.371 81.0791 177.165C80.4509 177.884 79.4022 177.932 78.5218 178.056C79.2798 177.099 79.9335 176.259 80.3964 175.112C80.3299 174.953 80.2513 174.794 80.1659 174.645C79.5126 173.51 76.8609 173.477 75.6339 173.177C75.1517 172.353 74.4324 171.191 73.7236 170.565Z" fill="#0C4E26"/>
<path d="M108.272 158.6C109.244 163.213 110.014 167.345 113.608 170.668C112.232 170.858 111.391 170.616 110.302 170.718C110.085 171.007 110.074 171.358 110.023 171.707C110.077 169.633 109.418 167.889 108.941 165.909C108.345 163.444 108.108 161.129 108.272 158.6Z" fill="#9C5F32"/>
<path d="M146.669 160.839C147.159 160.411 147.234 159.78 147.373 159.172L147.363 159.159L147.322 159.179L147.585 159.519C147.565 159.698 147.57 159.85 147.575 160.03L147.864 160.183C148.509 161.494 147.831 163.714 148.27 165.237C148.617 166.444 150.191 167.857 150.349 168.821L150.2 168.863C149.059 169.183 148.292 168.828 147.608 169.989C148.021 168.807 146.825 165.718 146.703 164.283C146.606 163.14 146.892 161.967 146.669 160.839Z" fill="#A65D14"/>
<path d="M102.733 172.127L104.218 171.368C104.875 172.115 105.514 172.927 106.268 173.574C107.704 174.004 108.717 173.888 110.053 173.175C110.512 172.93 110.939 172.62 111.349 172.3C111.629 173.749 112.148 175.661 111.27 176.99C110.949 177.476 110.486 177.754 109.993 178.04C110.485 177.451 110.841 176.862 110.735 176.047C110.671 175.552 110.369 175.158 109.964 174.886C108.777 174.09 107.449 174.232 106.152 174.548C105.232 174.155 104.381 173.553 103.498 173.077C103.231 172.772 102.986 172.445 102.733 172.127Z" fill="#0C4E26"/>
<path d="M106.952 72.2781C108.579 75.629 109.325 79.0595 110.246 82.647C110.228 82.6325 110.209 82.6189 110.193 82.6038C110.164 82.578 110.138 82.5504 110.11 82.5246C109.597 82.046 109.596 81.2677 109.222 80.6701C108.803 80.3636 108.422 80.4058 107.932 80.4185C107.745 77.995 107.475 74.9687 105.995 72.9782C106.279 73.0768 106.527 73.3358 106.82 73.3581L106.952 72.2781Z" fill="#CC7C27"/>
<path d="M130.689 31.904C131.793 31.5212 132.746 31.4711 133.818 32.0018C134.682 32.4233 135.34 33.1782 135.644 34.0955C135.946 35.0216 135.899 36.5186 135.473 37.3935C135.109 37.5504 134.778 37.6553 134.388 37.7257C134.435 37.6351 134.48 37.5434 134.521 37.4505C134.919 36.559 134.89 35.1849 134.537 34.2757C134.311 33.6937 134.058 33.5366 133.514 33.2899C133.361 32.9659 133.127 32.7311 132.777 32.608C132.365 32.4635 131.797 32.5565 131.427 32.7747C130.86 33.1085 130.315 33.9093 130.196 34.5495C130.088 35.126 130.153 35.7542 129.733 36.1994C129.985 34.8882 129.968 33.627 130.642 32.4158C130.75 32.2217 130.706 32.1192 130.689 31.904Z" fill="black"/>
<path d="M144.887 172.552C147.999 172.525 147.675 171.061 149.721 170.139C149.805 170.374 149.858 170.513 149.832 170.767C150.079 172.133 150.504 173.958 149.846 175.243L149.485 175.538L149.528 175.247C149.376 174.846 149.103 174.473 148.812 174.161C148.122 173.421 147.318 173.167 146.343 173.129L146.329 172.91C146.039 172.568 145.343 172.613 144.887 172.552Z" fill="#0C4E26"/>
<path d="M130.009 175.061C131.001 174.878 132.32 174.386 133.309 174.511C133.741 174.959 133.775 175.395 133.764 176.008C133.749 176.82 133.62 178.297 132.964 178.873C132.8 179.016 132.585 179.087 132.381 179.152C131.647 179.388 130.805 179.516 130.034 179.465C130.192 179.431 130.358 179.386 130.496 179.301C131.145 178.9 132.007 177.846 132.123 177.096C132.191 176.655 132.108 176.193 131.839 175.833C131.383 175.224 130.703 175.18 130.009 175.061Z" fill="#0C4E26"/>
<path d="M140.104 171.575C140.787 171.336 141.614 170.784 142.317 171.104C143.248 171.529 143.838 172.209 144.887 172.552C145.343 172.612 146.039 172.568 146.329 172.91L146.343 173.129C143.356 173.235 143.776 172.716 141.332 172.205L141.216 172.182L141.116 171.874C140.744 171.574 140.565 171.606 140.104 171.575Z" fill="#135320"/>
<path d="M82.2891 127.849C82.9023 127.582 83.8329 127.886 84.4727 128.008L84.5522 128.407C84.7065 129.2 84.9866 130.158 84.882 130.963C83.7514 130.183 82.9756 129.018 82.2891 127.849Z" fill="#EED8AA"/>
<path d="M81.5303 126.263C82.456 126.303 83.3388 126.45 84.2481 126.615C84.3291 127.065 84.4607 127.553 84.4723 128.008C83.8325 127.886 82.9019 127.582 82.2887 127.849C81.9627 127.469 81.739 126.732 81.5303 126.263Z" fill="#B49E87"/>
<path d="M125.498 58.5701C125.789 58.6969 126.209 58.7824 126.336 59.0773C126.574 59.7997 126.483 60.8973 126.09 61.5624C126.007 61.7023 125.928 61.7815 125.809 61.8908C125.843 61.8136 125.869 61.7704 125.872 61.6771C125.882 61.2641 125.776 60.9454 125.519 60.6417L124.978 60.7608C125.111 60.5936 125.214 60.408 125.308 60.2166C125.576 59.6715 125.699 59.1604 125.498 58.5701Z" fill="black"/>
<path d="M125.549 145.263L126.052 145.259C126.974 145.839 127.796 146.588 128.676 147.232C131.732 149.467 132.971 150.26 135.446 153.266C135.902 153.819 136.504 154.409 136.705 155.113C136.818 155.543 136.423 156.226 136.241 156.629C135.214 158.906 134.333 161.052 134.018 163.554C133.718 165.939 133.788 168.43 134.697 170.682C134.932 171.265 135.5 172.069 135.581 172.663C135.586 172.703 135.59 172.744 135.594 172.785C133.323 173.379 130.965 173.888 128.702 173.076C128.342 172.761 128 172.47 127.744 172.059L127.115 171.066C127.011 171.014 126.919 170.924 126.803 170.911C126.612 170.887 125.861 171.231 125.634 171.299C124.894 171.521 124.123 171.596 123.358 171.674C124.182 171.236 124.847 170.83 125.489 170.125C127.89 167.487 128.104 163.614 127.931 160.218C127.871 159.06 127.696 157.805 127.092 156.796C125.893 154.794 123.458 153.466 121.942 151.646C120.915 150.412 120.479 148.513 119.308 147.45C120.819 147.219 124.336 146.075 125.549 145.263Z" fill="#A65D14"/>
<path d="M78.7829 138.159C81.5711 142.76 85.4966 145.349 90.2254 147.653C87.4194 151.677 84.2392 157.266 83.0908 162.005C82.705 164.861 82.3921 167.291 83.2908 170.085C83.4364 170.537 83.5941 170.879 83.2566 171.257C82.4886 171.265 81.5918 170.61 80.9804 170.168C80.7558 170.202 80.5263 170.227 80.3035 170.272C79.8493 170.559 79.3899 170.834 78.9024 171.062C78.3311 171.328 77.5843 171.538 76.9763 171.271C75.6929 170.709 76.378 169.113 75.9633 168.175C75.6789 168.416 75.3544 168.582 75.0116 168.723C74.2701 169.028 73.031 169.335 72.2649 169.007L72.167 168.743C72.6641 167.866 73.6635 167.269 74.3106 166.485C75.6697 164.839 76.619 162.851 77.3702 160.862C80.2177 153.32 79.4395 145.985 78.7829 138.159Z" fill="#CC7C27"/>
<path d="M80.3037 170.272C81.0857 167.986 81.4285 163.566 83.0909 162.005C82.7052 164.861 82.3923 167.291 83.291 170.085C83.4366 170.537 83.5943 170.879 83.2568 171.257C82.4888 171.265 81.592 170.61 80.9806 170.168C80.756 170.202 80.5265 170.227 80.3037 170.272Z" fill="#9C5F32"/>
<path d="M96.2972 110.235C96.761 109.923 97.111 109.707 97.6958 109.853C98.637 110.089 99.5844 111.208 100.028 112.03C100.779 113.419 100.751 115.242 100.299 116.723C99.4527 119.499 97.0642 121.509 94.5832 122.805C90.9826 124.687 85.5899 125.523 81.6065 124.665L81.3408 124.48C81.3403 123.71 82.1455 122.724 82.3842 121.95C82.8157 120.549 82.5654 119.056 82.3615 117.637C86.2601 116.863 90.7478 115.61 93.8214 112.95C94.7461 112.149 95.5156 111.173 96.2972 110.235Z" fill="#F1763F"/>
<path d="M96.2971 110.235C96.7609 109.923 97.111 109.707 97.6958 109.853C98.6369 110.089 99.5843 111.208 100.028 112.03C100.779 113.419 100.751 115.242 100.299 116.723C99.4527 119.499 97.0642 121.509 94.5831 122.805C90.9825 124.687 85.5899 125.523 81.6064 124.665C86.6607 124.643 90.8692 122.997 94.9751 120.08C95.9929 119.779 96.2918 119.371 96.8207 118.474C97.0025 117.452 97.3274 116.415 97.542 115.391C97.6456 113.69 97.1307 111.707 96.2971 110.235Z" fill="#9C4115"/>
<path d="M94.1922 116.25C94.913 116.224 95.4563 116.225 96.0305 116.745C96.5151 117.185 96.7292 117.844 96.8213 118.473C96.2923 119.371 95.9934 119.778 94.9756 120.08C94.2891 119.904 93.5572 119.723 93.0832 119.148C92.8128 118.82 92.7144 118.459 92.7906 118.04C92.9439 117.194 93.5403 116.723 94.1922 116.25Z" fill="#F9F6F5"/>
<path d="M94.1914 116.25L94.1172 116.131C94.2676 116.034 94.4176 115.937 94.5728 115.849C95.3654 115.393 96.0298 115.976 96.8321 116.199C97.3075 116.03 97.3205 115.827 97.5418 115.391C97.3272 116.416 97.0023 117.452 96.8205 118.474C96.7284 117.844 96.5144 117.185 96.0298 116.745C95.4556 116.226 94.9122 116.225 94.1914 116.25Z" fill="#ED7455"/>
<path d="M85.389 118.801C86.1402 118.971 86.8798 119.226 87.3108 119.924C87.5239 120.271 87.5692 120.688 87.4545 121.077C87.198 121.946 86.4738 122.357 85.7202 122.733C85.6074 122.715 85.4951 122.694 85.3852 122.662C84.783 122.485 84.0762 121.987 83.7878 121.415C83.5849 121.013 83.5873 120.553 83.7459 120.135C84.0299 119.386 84.7237 119.128 85.389 118.801Z" fill="#F9F6F5"/>
<path d="M73.332 87.1782C71.5809 86.5821 70.4903 85.6293 69.6784 83.9376C68.5882 81.6677 68.3631 78.9256 69.1895 76.5391C69.7728 74.8547 70.8798 73.2941 72.5152 72.5197C73.8503 71.8905 75.382 71.8381 76.7561 72.3744C78.6798 73.1032 80.1585 74.8056 80.9603 76.6747C81.9497 78.9805 82.0615 81.8694 81.1358 84.216C80.7226 85.2645 79.9102 86.5651 78.8303 87.0091C78.6287 87.0922 78.4233 87.1617 78.2165 87.2302C77.4282 87.202 77.6905 87.0291 77.1548 86.7361C76.5758 86.4188 75.0951 86.7162 74.2958 86.4533C74.1386 86.7128 73.9795 86.9581 73.7948 87.1991L73.332 87.1782Z" fill="black"/>
<path d="M73.332 87.1782C71.5809 86.5821 70.4903 85.6293 69.6784 83.9376C68.5882 81.6677 68.3631 78.9256 69.1895 76.5391C69.7728 74.8547 70.8798 73.2941 72.5152 72.5197C73.8503 71.8905 75.382 71.8381 76.7561 72.3744C78.6798 73.1032 80.1585 74.8056 80.9603 76.6747C81.9497 78.9805 82.0615 81.8694 81.1358 84.216C80.7226 85.2645 79.9102 86.5651 78.8303 87.0091C78.6287 87.0922 78.4233 87.1617 78.2165 87.2302L77.7315 87.0378C77.8631 86.086 80.5091 85.4306 80.6479 81.5657C80.7024 80.0571 80.2887 78.4801 79.2545 77.3534C78.2864 76.3671 77.0309 75.5655 75.6125 75.5528C74.3613 75.5417 73.2394 76.1388 72.3716 77.0172C71.537 77.8621 71.0602 78.8367 70.6884 79.9537C70.9951 80.3127 71.3557 80.2452 71.6233 80.5833C72.3233 81.4671 72.2592 83.5747 73.3918 85.0827L73.481 85.2756C73.5229 85.3665 73.561 85.4593 73.5996 85.5516C73.7741 85.968 73.9004 86.2012 74.2958 86.4533C74.1386 86.7128 73.9795 86.9581 73.7948 87.1991L73.332 87.1782Z" fill="url(#paint1_linear_3042_604)"/>
<path d="M70.6884 79.9536C70.995 80.3127 71.3556 80.2451 71.6232 80.5833C72.3233 81.467 72.2592 83.5746 73.3917 85.0827L73.4809 85.2756C73.5228 85.3664 73.5609 85.4592 73.5995 85.5515C73.774 85.9679 73.9003 86.2011 74.2957 86.4533C74.1385 86.7127 73.9794 86.9581 73.7948 87.1991L73.3319 87.1782L73.6988 86.9605C72.8469 86.3386 72.1126 85.7954 71.5427 84.8777C70.6455 83.4323 70.3036 81.6152 70.6884 79.9536Z" fill="#35302F"/>
<path d="M79.2544 77.3533C80.2886 78.48 80.7022 80.057 80.6478 81.5656C80.5089 85.4305 77.8629 86.0859 77.7313 87.0377L78.2163 87.2301C77.4281 87.2019 77.6903 87.0289 77.1547 86.736C76.5756 86.4187 75.095 86.716 74.2956 86.4532C73.9003 86.201 73.7739 85.9678 73.5994 85.5515C73.5608 85.4592 73.5227 85.3664 73.4808 85.2755L73.3916 85.0826C74.258 85.5549 75.0077 85.6797 75.9865 85.7754C76.2748 85.6457 76.5588 85.5058 76.8374 85.3562C77.8692 84.7984 78.7645 83.8811 79.0847 82.7233C79.4598 81.3664 79.1469 80.2917 78.4868 79.1023C78.6382 79.0761 78.7076 79.0076 78.8306 78.9187C78.5987 78.5281 78.4926 78.2953 78.5235 77.8357C78.8614 77.741 79.0104 77.6025 79.2544 77.3533Z" fill="#433732"/>
<path d="M74.0062 77.6745L74.2854 77.6074C74.7849 78.2254 75.1619 78.8745 75.5457 79.5668C75.3755 79.9385 75.1952 80.3418 74.957 80.6765C74.7106 81.0229 74.2748 81.3334 73.8486 81.381C73.4417 81.4267 73.0776 81.2824 72.7826 81.0016C72.3395 80.5794 72.043 79.9128 72.042 79.2957C72.0406 78.8512 72.15 78.4776 72.4721 78.1608C72.8756 77.7639 73.4682 77.675 74.0062 77.6745Z" fill="#F9F6F5"/>
<path d="M74.0059 77.6744C74.4624 77.0928 74.8395 76.9169 75.5723 76.8397C76.5052 76.742 77.6286 76.9801 78.3436 77.6287C78.4478 77.7234 78.4521 77.738 78.524 77.8357C78.4931 78.2953 78.5992 78.528 78.8311 78.9186C78.7081 79.0075 78.6387 79.076 78.4873 79.1023C77.8953 78.3424 77.1147 77.7273 76.1702 77.4864C75.6094 77.3435 74.7893 77.2949 74.285 77.6073L74.0059 77.6744Z" fill="#5D584F"/>
<path d="M90.5967 105.246C92.1415 104.886 93.6829 104.512 95.2209 104.124C95.2469 105.941 95.4736 108.056 95.1587 109.84C93.8541 111.776 91.8122 113.099 89.7916 114.174C89.4657 114.09 89.5163 113.792 89.2077 113.579L88.9734 114.207C87.4581 115.649 83.6911 116.204 81.6975 116.531C80.2424 115.58 79.1427 115.134 77.4248 114.972C78.932 112.16 79.7174 108.938 80.267 105.812C80.3133 105.45 80.3514 105.154 80.5143 104.826C81.5181 104.336 83.7364 105.112 84.8921 105.234C86.7874 105.224 88.7034 105.161 90.5967 105.246Z" fill="#EED8AA"/>
<path d="M90.596 105.246C92.1408 104.886 93.6822 104.512 95.2202 104.124C95.2462 105.941 95.4728 108.056 95.158 109.84C93.8533 111.776 91.8115 113.099 89.7909 114.174C89.5696 113.724 90.2817 109.074 90.2156 107.928C90.1332 107.498 90.5362 105.862 90.596 105.246Z" fill="#F1763F"/>
<path d="M90.5966 105.246C92.1413 104.886 93.6827 104.512 95.2207 104.124C95.2468 105.941 95.4734 108.056 95.1585 109.84C95.0433 108.664 95.1195 107.415 95.1185 106.23C93.7767 106.854 91.0295 106.82 90.2162 107.928C90.1337 107.498 90.5368 105.862 90.5966 105.246Z" fill="#974011"/>
<path d="M80.2676 105.812C80.3139 105.45 80.352 105.154 80.5149 104.826C81.5187 104.336 83.737 105.112 84.8927 105.234C86.788 105.224 88.704 105.161 90.5973 105.246C90.5375 105.862 90.1345 107.498 90.2169 107.928C90.283 109.074 89.5709 113.724 89.7922 114.174C89.4663 114.09 89.5169 113.792 89.2083 113.579C89.1707 111.527 89.7324 109.299 89.8312 107.21C86.8941 107.322 82.8971 107.321 80.2676 105.812Z" fill="#DBBF9E"/>
<path d="M84.8926 105.234C86.7879 105.224 88.7039 105.161 90.5972 105.246C90.5374 105.862 90.1344 107.498 90.2168 107.928C90.2829 109.074 89.5708 113.724 89.7921 114.174C89.4661 114.09 89.5168 113.792 89.2082 113.579C89.1706 111.527 89.7323 109.299 89.8311 107.209L89.9675 105.305C88.295 105.354 86.5526 105.457 84.8926 105.234Z" fill="#742802"/>
<path d="M117.522 142.419C119.029 141.979 121.826 141.341 123.033 140.469C123.518 140.9 125.215 143.692 125.27 144.297C125.274 144.332 125.267 144.368 125.266 144.404C121.544 146.418 113.37 148.135 108.997 148.217C108.917 146.889 109.019 145.516 108.824 144.203L108.856 143.835C108.911 143.757 108.941 143.653 109.021 143.6C109.253 143.445 110.962 143.441 111.321 143.412C113.425 143.238 115.47 142.921 117.522 142.419Z" fill="#BFB86C"/>
<path d="M108.824 144.203L108.856 143.835C108.911 143.757 108.941 143.653 109.021 143.6C109.253 143.445 110.962 143.441 111.321 143.412C113.425 143.238 115.47 142.921 117.522 142.419C117.722 142.615 117.91 142.812 118.15 142.961C118.116 143.199 118.137 143.224 117.944 143.372C116.688 144.331 111.421 145.448 109.805 145.133C109.579 145.09 109.37 144.996 109.167 144.887C109.042 144.662 108.921 144.443 108.824 144.203Z" fill="#EED8AA"/>
<path d="M73.6658 121.992C73.4773 121.286 73.4238 120.574 73.5462 119.849C73.7453 118.673 74.3967 117.661 75.3668 116.98C76.5398 116.155 77.8117 116.013 79.1891 116.243C80.1553 116.7 80.8351 117.224 81.1967 118.275C81.5786 119.386 81.3134 120.705 80.7985 121.727C80.2373 122.84 79.2576 123.729 78.0663 124.095C77.183 124.367 76.1705 124.38 75.3402 123.934C74.4941 123.479 74.0221 122.871 73.6658 121.992Z" fill="#D59447"/>
<path d="M73.6658 121.992C73.4773 121.286 73.4238 120.574 73.5462 119.849C73.7453 118.673 74.3967 117.661 75.3668 116.98C76.5398 116.155 77.8117 116.013 79.1891 116.243C79.0898 116.391 78.9886 116.535 78.87 116.668C78.1029 117.529 76.5721 117.243 75.6932 118.218C74.7839 119.227 74.8036 121.443 73.6658 121.992Z" fill="#F0B260"/>
<path d="M75.2998 125.585C76.8349 125.663 78.2857 125.788 79.7615 125.255C80.1843 126.141 80.5724 127.085 81.1293 127.895C81.6158 128.459 82.2402 129.153 82.3303 129.923L82.1418 130.203C81.0907 130.379 80.2441 130.649 79.5956 131.559C79.3319 131.929 79.0957 132.331 78.8589 132.719C78.2403 131.97 77.7336 131.134 77.3552 130.237C76.0442 128.759 75.6783 127.483 75.2998 125.585Z" fill="#F1763F"/>
<path d="M81.1296 127.895C81.6161 128.459 82.2405 129.153 82.3306 129.923L82.1421 130.203C81.0911 130.379 80.2444 130.65 79.596 131.56C79.3322 131.929 79.096 132.332 78.8592 132.719C78.2407 131.97 77.7339 131.134 77.3555 130.237C78.4099 129.272 79.7507 128.282 81.1296 127.895Z" fill="#F9F6F5"/>
<path d="M78.8584 132.719C79.0951 132.331 79.3314 131.929 79.5951 131.559C80.2436 130.649 81.0902 130.379 82.1413 130.203C83.2777 130.723 85.549 133.03 86.9149 133.946C85.5355 133.807 84.133 133.612 82.7468 133.624C82.6017 135.738 82.1649 136.721 80.6452 138.239C80.65 135.904 80.4485 134.519 78.8584 132.719Z" fill="#ED7455"/>
<path d="M71.6712 128.545C71.9446 127.295 72.1601 125.23 73.094 124.335L73.4224 124.272C74.5009 125.03 74.7882 127.813 75.1648 129.054C75.6026 129.797 75.968 130.379 75.752 131.271C75.6966 131.502 75.6175 131.714 75.5187 131.93C73.9397 130.949 72.5039 130.762 70.7012 130.91C70.9871 130.096 71.2706 129.311 71.6712 128.545Z" fill="#F9F6F5"/>
<path d="M71.6699 128.545C71.9433 127.295 72.1588 125.23 73.0927 124.335L73.421 124.272C74.4996 125.03 74.7869 127.813 75.1635 129.054C74.0184 128.628 72.8743 128.594 71.6699 128.545Z" fill="#ED7455"/>
<path d="M67.8252 134.51C69.1352 133.425 69.9292 132.416 70.6997 130.91C72.5024 130.762 73.9382 130.949 75.5172 131.93C75.1209 132.506 75.1932 135.881 75.1667 136.802C74.7921 136.073 74.2646 135.374 73.6436 134.84C72.0506 133.469 69.7041 134.347 67.8252 134.51Z" fill="#F1763F"/>
<path d="M79.1618 135.491L79.3686 135.684C79.655 136.604 79.5899 137.234 79.2727 138.137L79.0774 138.124C78.8763 137.381 79.1044 136.269 79.1618 135.491Z" fill="#563C3B" fill-opacity="0.984314"/>
<path d="M51.2007 40.3365C51.0281 36.8362 50.5498 32.3615 53.1066 29.5554C54.1191 28.4442 55.553 27.9514 57.0215 27.8984C58.0711 27.8606 58.9322 28.1136 59.7022 28.8549C60.1559 29.2915 60.4249 29.829 60.4225 30.4722C60.4129 32.7033 58.399 33.8705 57.5244 35.647C56.2858 38.1613 56.7689 42.6466 58.6878 44.6783C59.1685 45.1873 59.8213 45.4871 60.4452 45.7802C61.0406 45.4782 61.6336 45.1508 62.2426 44.8778C63.4151 42.7809 64.6133 40.5621 67.0818 39.8605C67.9009 39.6278 68.7427 39.656 69.5836 39.7077C70.3526 40.1736 70.922 40.6699 71.5083 41.3518C71.5874 42.4824 71.6712 43.2699 70.8752 44.1825C70.0339 45.147 67.3595 45.9901 67.4275 47.3795C67.4487 47.8055 67.6362 48.0372 67.9516 48.3118C69.4496 49.6163 71.5309 50.2519 73.1678 51.3602C74.2131 52.0682 75.3075 53.3369 76.1546 54.2811C77.4569 55.7326 78.3816 57.0679 79.1892 58.847C79.4293 59.3761 79.9355 60.993 80.354 61.2806C80.4427 61.7878 80.3188 61.8592 80.0493 62.2717L79.6352 62.2654C79.4958 62.2071 79.3579 62.091 79.2311 62.006L79.1434 61.5094C78.3426 61.7757 77.5494 62.0657 76.7655 62.3786C76.3446 62.5171 75.9589 62.6536 75.5708 62.8756C75.5847 63.2342 75.6011 63.5927 75.619 63.9508L73.9291 65.0051C73.919 64.9968 73.9103 64.9857 73.8982 64.9808C73.5545 64.8462 73.2671 64.699 72.9446 64.5149C73.4474 64.083 73.9532 63.7497 74.5279 63.4227C73.9898 62.5195 73.5699 61.5153 73.0632 60.5878C72.3853 59.9936 71.7995 59.1934 71.1848 58.5249C69.8912 57.1263 68.413 55.9135 66.7911 54.9206C64.1412 53.2413 60.788 52.2843 57.9251 50.9771C55.1296 49.5357 51.949 48.9066 48.994 47.8499C47.0833 47.2009 45.4763 46.3525 43.934 45.0322C41.9013 43.3322 40.3382 40.8103 40.0817 38.1292C39.9371 36.6211 39.8705 34.7417 40.8994 33.5195C41.5262 32.7748 42.6351 32.3373 43.5888 32.2854C44.242 32.2499 44.863 32.4183 45.3514 32.8744C47.2318 34.6295 46.2477 41.1533 49.4568 41.0196C50.0802 40.9937 50.6699 40.6335 51.2007 40.3365Z" fill="#D7BC9E"/>
<path d="M51.2007 40.3365C51.0281 36.8362 50.5498 32.3615 53.1066 29.5554C54.1191 28.4442 55.553 27.9514 57.0215 27.8984C58.0711 27.8606 58.9322 28.1136 59.7022 28.8549C60.1559 29.2915 60.4249 29.829 60.4225 30.4722C60.4129 32.7033 58.399 33.8705 57.5244 35.647C56.2858 38.1613 56.7689 42.6466 58.6878 44.6783C59.1685 45.1873 59.8213 45.4871 60.4452 45.7802C61.0406 45.4782 61.6336 45.1508 62.2426 44.8778C63.4151 42.7809 64.6133 40.5621 67.0818 39.8605C67.9009 39.6278 68.7427 39.656 69.5836 39.7077C70.3526 40.1736 70.922 40.6699 71.5083 41.3518C71.5874 42.4824 71.6712 43.2699 70.8752 44.1825C70.0339 45.147 67.3595 45.9901 67.4275 47.3795C67.4487 47.8055 67.6362 48.0372 67.9516 48.3118C69.4496 49.6163 71.5309 50.2519 73.1678 51.3602C74.2131 52.0682 75.3075 53.3369 76.1546 54.2811C77.4569 55.7326 78.3816 57.0679 79.1892 58.847C79.4293 59.3761 79.9355 60.993 80.354 61.2806C80.4427 61.7878 80.3188 61.8592 80.0493 62.2717L79.6352 62.2654C79.4958 62.2071 79.3579 62.091 79.2311 62.006L79.1434 61.5094C78.8888 60.1884 78.1063 58.8023 77.372 57.6848C76.2366 55.9355 74.8451 54.3693 73.2454 53.0393C71.4668 51.5889 67.3161 49.9671 66.4984 47.9805C65.3876 45.281 69.8941 44.6375 70.586 42.7023C70.693 42.4031 70.6549 42.0631 70.505 41.7818C70.221 41.249 69.7292 40.895 69.1665 40.718C65.3109 39.5053 64.2324 45.107 61.571 46.4872C60.9374 46.8155 60.2716 46.8965 59.5918 46.6635C58.3103 46.224 57.266 44.773 56.6869 43.6078C55.5515 41.324 55.2454 37.7695 56.5693 35.5103C57.4241 34.0519 58.601 32.9331 59.1352 31.2685C59.3045 30.7414 59.331 30.1551 59.0451 29.6618C58.7596 29.1688 58.2365 28.9086 57.7013 28.7916C56.7573 28.5854 55.7622 28.8197 54.9691 29.3616C53.4412 30.4051 52.7913 32.2708 52.4625 34.0179C51.6125 38.1413 52.4668 41.6978 54.2941 45.4549C54.3558 45.5812 54.3346 45.5292 54.3722 45.6706C54.5231 47.1124 55.9464 48.6123 56.9974 49.4794C57.3214 49.7465 57.8383 49.9816 57.8985 50.4394C57.9217 50.6185 57.9255 50.7969 57.9251 50.9771C55.1296 49.5357 51.949 48.9066 48.994 47.8499C47.0833 47.2009 45.4763 46.3525 43.934 45.0322C41.9013 43.3322 40.3382 40.8103 40.0817 38.1292C39.9371 36.6211 39.8705 34.7417 40.8994 33.5195C41.5262 32.7748 42.6351 32.3373 43.5888 32.2854C44.242 32.2499 44.863 32.4183 45.3514 32.8744C47.2318 34.6295 46.2477 41.1533 49.4568 41.0196C50.0802 40.9937 50.6699 40.6335 51.2007 40.3365Z" fill="black"/>
<path d="M42.0148 33.7862C42.7337 33.5096 43.5842 33.2081 44.3363 33.5553C44.897 33.8142 45.2244 34.3894 45.4057 34.9595C46.0898 37.1161 45.5248 40.3269 47.852 41.6219C48.5603 42.0159 49.4474 42.1614 50.2246 41.9104C50.7425 41.7432 51.1706 41.3807 51.5732 41.0248C51.9864 42.6452 52.4478 44.1152 53.2168 45.6017C53.1478 45.7831 53.0466 45.9008 52.9236 46.0483C52.2356 46.2229 51.1706 45.9793 50.4879 45.7958C47.6838 45.0417 45.0181 43.2983 43.5659 40.7234C42.5028 38.8379 41.4228 35.917 42.0148 33.7862Z" fill="#D7BC9E"/>
<path d="M43.3034 42.8341C41.9153 41.2038 40.924 38.9471 40.9337 36.7807C40.939 35.6341 41.2017 34.6068 42.0151 33.7861C41.423 35.917 42.503 38.8379 43.5661 40.7233C45.0183 43.2982 47.684 45.0417 50.4882 45.7958C51.1709 45.9793 52.2359 46.2228 52.9239 46.0482C53.0468 45.9008 53.1481 45.783 53.217 45.6016C53.9369 46.5335 54.4566 47.6097 55.1962 48.5262C53.9412 48.2111 52.6761 47.9173 51.4327 47.5591C50.6005 47.6079 49.8136 47.6907 48.9935 47.8498C47.0828 47.2007 45.4759 46.3523 43.9335 45.0321C43.6924 44.3094 43.503 43.5694 43.3034 42.8341Z" fill="#B49E87"/>
<path d="M43.3037 42.8342C45.6353 45.4048 48.2538 46.436 51.433 47.5592C50.6008 47.608 49.814 47.6908 48.9939 47.8499C47.0832 47.2008 45.4762 46.3524 43.9339 45.0322C43.6928 44.3095 43.5033 43.5695 43.3037 42.8342Z" fill="black"/>
<path d="M54.3719 45.6706C54.3343 45.5292 54.3555 45.5812 54.2938 45.4548C52.4665 41.6977 51.6121 38.1412 52.4621 34.0178C52.4694 35.5539 52.7924 37.03 53.0788 38.5307C53.7244 41.9114 54.3704 45.2943 56.9002 47.8628C59.0274 50.0225 62.4385 50.4757 65.1037 51.6656C67.4918 52.7319 70.0471 54.2833 72.0653 55.9565C72.8594 56.6146 73.8454 57.3995 74.4013 58.2756C75.1635 59.4771 75.2966 61.8101 76.7652 62.3786C76.3443 62.517 75.9585 62.6535 75.5704 62.8756C75.5844 63.2341 75.6008 63.5927 75.6186 63.9508L73.9288 65.0051C73.9186 64.9968 73.91 64.9856 73.8979 64.9808C73.5541 64.8462 73.2668 64.699 72.9442 64.5148C73.4471 64.0829 73.9529 63.7496 74.5276 63.4226C73.9895 62.5195 73.5696 61.5152 73.0628 60.5877C72.385 59.9935 71.7992 59.1933 71.1844 58.5248C69.8909 57.1263 68.4126 55.9135 66.7907 54.9206C64.1409 53.2413 60.7877 52.2843 57.9247 50.9771C57.9252 50.7968 57.9214 50.6185 57.8982 50.4394C57.838 49.9815 57.3211 49.7465 56.9971 49.4793C55.9461 48.6123 54.5228 47.1123 54.3719 45.6706Z" fill="#B49E87"/>
<path d="M54.3721 45.6707C55.2428 46.881 56.0986 48.0587 57.2562 49.016C59.2064 50.6289 61.5419 51.2028 63.8277 52.1289C65.8445 52.9458 68.0691 54.2585 69.6886 55.7093C68.6635 55.772 67.91 54.9355 66.7909 54.9206C64.1411 53.2413 60.7879 52.2844 57.9249 50.9771C57.9254 50.7969 57.9216 50.6185 57.8984 50.4394C57.8381 49.9816 57.3213 49.7465 56.9973 49.4794C55.9462 48.6124 54.523 47.1124 54.3721 45.6707Z" fill="black"/>
<path d="M66.79 54.9207C67.9091 54.9355 68.6626 55.772 69.6877 55.7093C71.1104 56.7623 72.3351 57.8402 73.3731 59.2921C73.1518 59.759 73.0554 60.0592 73.0621 60.5878C72.3843 59.9936 71.7985 59.1934 71.1837 58.5249C69.8902 57.1264 68.4119 55.9136 66.79 54.9207Z" fill="black"/>
<path d="M73.3739 59.292C73.6415 59.7132 74.0084 60.1743 74.2133 60.6232C74.7355 61.3287 75.2716 62.039 75.5705 62.8756C75.5845 63.2342 75.6009 63.5927 75.6187 63.9508L73.9289 65.0051C73.9187 64.9968 73.9101 64.9856 73.898 64.9808C73.5542 64.8462 73.2669 64.699 72.9443 64.5149C73.4472 64.0829 73.953 63.7496 74.5277 63.4227C73.9896 62.5195 73.5697 61.5152 73.0629 60.5877C73.0562 60.0591 73.1526 59.7589 73.3739 59.292Z" fill="black"/>
<path d="M73.3738 59.292C73.6414 59.7132 74.0083 60.1743 74.2132 60.6232C74.1206 61.7101 74.988 62.3961 74.5276 63.4227C73.9895 62.5195 73.5696 61.5152 73.0628 60.5877C73.0561 60.0591 73.1525 59.7589 73.3738 59.292Z" fill="black"/>
<path d="M56.402 56.3563C57.4169 56.2196 58.4733 56.3333 59.4915 56.4121C63.7343 57.1463 68.8416 58.6541 71.4649 62.4379C71.9384 63.121 72.3684 63.9207 72.9446 64.5149C73.2671 64.6991 73.5545 64.8463 73.8982 64.9809C73.9103 64.9857 73.919 64.9969 73.9291 65.0051C73.5593 65.2991 73.1312 65.7189 72.7156 65.9273C71.7595 66.8504 70.7075 67.7618 70.0942 68.9658C68.7919 70.1551 67.9738 73.318 67.6343 75.0049L67.0886 75.2935C66.9704 75.2177 66.8721 75.1744 66.7949 75.0535L66.5288 74.7517C63.6611 74.9553 58.8889 74.2537 56.5611 72.4245C53.7421 70.5832 52.2552 68.1855 50.4505 65.4458C50.169 65.1334 49.9197 64.5747 49.7177 64.1967C48.7119 62.3165 48.5851 60.36 49.183 58.3515C51.3594 57.4371 54.0222 56.3766 56.402 56.3563Z" fill="#F1763F"/>
<path d="M49.183 58.3513C51.3594 57.437 54.0222 56.3765 56.402 56.3562C56.1031 56.5087 55.8013 56.6554 55.4971 56.7963L56.2005 56.962L55.5342 57.0602L55.4753 57.2791C54.1442 57.5207 52.6809 57.7003 51.4177 58.2061C51.1544 58.5471 50.6029 59.082 50.5807 59.4882C51.2393 59.3429 51.8569 59.1953 52.5343 59.1651C52.0286 59.3857 51.4172 59.5728 51.0768 60.0295C50.8247 61.7872 52.9996 65.4598 54.08 66.9139C56.4309 70.0778 60.2875 72.1577 64.161 72.6838C64.9619 72.7927 65.8432 72.8413 66.6387 72.6727C66.9323 72.6761 67.2308 72.6664 67.522 72.7038C67.6724 72.3787 67.5384 72.1441 67.4492 71.8098C68.4848 70.5806 69.1449 68.7009 70.0146 67.306C70.2181 67.273 70.384 67.2404 70.572 67.152C70.8184 67.0364 70.8299 66.7944 70.9201 66.5456C71.4924 66.3392 71.759 65.8348 72.3279 65.6288L72.7156 65.9272C71.7595 66.8503 70.7075 67.7617 70.0942 68.9657C68.7919 70.155 67.9738 73.3179 67.6343 75.0047L67.0886 75.2933C66.9704 75.2175 66.8721 75.1743 66.7949 75.0533L66.5288 74.7516C63.6611 74.9552 58.8889 74.2536 56.5611 72.4244C53.7421 70.583 52.2552 68.1854 50.4505 65.4457C50.169 65.1333 49.9197 64.5746 49.7177 64.1966C48.7119 62.3163 48.5851 60.3598 49.183 58.3513Z" fill="#9C5F32"/>
<path d="M70.9195 66.5457C71.4918 66.3392 71.7584 65.8349 72.3273 65.6289L72.715 65.9272C71.7589 66.8503 70.7069 67.7618 70.0936 68.9657C68.7914 70.1551 67.9732 73.3179 67.6338 75.0048L67.088 75.2934C66.9699 75.2176 66.8715 75.1744 66.7944 75.0534L66.5282 74.7517C63.6605 74.9552 58.8883 74.2537 56.5605 72.4245C56.7037 72.406 56.8228 72.3895 56.9554 72.3307C57.3339 72.1631 57.6994 72.0873 58.1015 72.0037C60.0999 72.8379 64.7737 74.3581 66.8382 73.4656C67.1743 73.3199 67.3532 73.0133 67.5214 72.7038C67.6719 72.3788 67.5378 72.1441 67.4486 71.8099C68.4843 70.5807 69.1443 68.7009 70.0141 67.3061C70.2175 67.273 70.3834 67.2405 70.5714 67.152C70.8178 67.0364 70.8294 66.7945 70.9195 66.5457Z" fill="black"/>
<path d="M49.183 58.3513C51.3594 57.437 54.0222 56.3765 56.402 56.3562C56.1031 56.5087 55.8013 56.6554 55.4971 56.7963L56.2005 56.962L55.5342 57.0602L55.4753 57.2791C54.1442 57.5207 52.6809 57.7003 51.4177 58.2061C50.8411 58.4286 50.2066 58.6322 49.9231 59.2404C49.398 60.3652 50.0759 61.9933 50.5233 63.048C51.0604 64.3137 51.6915 65.4573 52.4485 66.6039C51.7508 66.2527 51.1945 65.7469 50.4505 65.4457C50.169 65.1333 49.9197 64.5746 49.7177 64.1966C48.7119 62.3163 48.5851 60.3598 49.183 58.3513Z" fill="black"/>
<path d="M50.4502 65.4456C51.1941 65.7468 51.7505 66.2526 52.4482 66.6038C54.435 68.9952 55.3487 70.323 58.1017 72.0035C57.6996 72.0871 57.3341 72.1629 56.9557 72.3305C56.8231 72.3893 56.704 72.4058 56.5608 72.4243C53.7417 70.5829 52.2548 68.1853 50.4502 65.4456Z" fill="black"/>
<path d="M56.4024 56.3563C57.4173 56.2196 58.4736 56.3333 59.4919 56.4121C63.7347 57.1463 68.842 58.6541 71.4653 62.4379C71.9387 63.121 72.3688 63.9207 72.9449 64.5149C73.2675 64.6991 73.5548 64.8463 73.8986 64.9809C73.9106 64.9857 73.9193 64.9969 73.9294 65.0051C73.5596 65.2991 73.1315 65.7189 72.7159 65.9273L72.3283 65.629C71.7593 65.835 71.4927 66.3393 70.9204 66.5458C70.8303 66.7945 70.8187 67.0365 70.5723 67.1521C70.3843 67.2405 70.2185 67.2731 70.015 67.3061C69.8438 66.9247 69.5512 66.5633 69.3178 66.2164L69.799 65.5449C69.5198 64.8074 68.5845 63.8634 68.0242 63.3003C64.4208 59.6764 59.219 58.7105 54.3432 58.7154C53.7709 58.8708 53.1205 59.1181 52.5347 59.1653C51.8573 59.1954 51.2397 59.3431 50.5811 59.4883C50.6032 59.0822 51.1548 58.5473 51.418 58.2062C52.6812 57.7004 54.1445 57.5209 55.4757 57.2792L55.5345 57.0603L56.2008 56.9621L55.4974 56.7965C55.8016 56.6555 56.1034 56.5088 56.4024 56.3563Z" fill="#D19C6B"/>
<path d="M54.3428 58.7153C58.6699 57.5948 62.9692 58.6779 66.7332 60.9434C67.2062 61.2335 67.6724 61.5347 68.1314 61.8466C68.6034 61.4915 68.6926 61.7305 69.195 61.5469C70.2677 62.2543 71.0401 63.328 71.7382 64.3944C71.9759 64.7408 72.0121 64.7554 71.9759 65.1693C71.6457 65.6076 71.1361 66.0584 70.9201 66.5458C70.8299 66.7945 70.8183 67.0365 70.5719 67.1521C70.3839 67.2405 70.2181 67.2731 70.0146 67.3061C69.8435 66.9247 69.5508 66.5632 69.3174 66.2163L69.7986 65.5449C69.5194 64.8074 68.5841 63.8634 68.0239 63.3003C64.4204 59.6764 59.2186 58.7105 54.3428 58.7153Z" fill="#CE9258"/>
<path d="M69.1944 61.5469C70.2672 62.2543 71.0396 63.328 71.7377 64.3944C71.6066 64.5397 71.4537 64.5985 71.2806 64.6816C70.2995 64.5295 68.8767 62.5987 68.1309 61.8466C68.6029 61.4915 68.6921 61.7305 69.1944 61.5469Z" fill="#D19C6B"/>
<path d="M69.7976 65.5449C70.0574 65.9239 70.3405 66.4928 70.8419 66.5472C70.8674 66.5497 70.8935 66.5463 70.919 66.5458C70.8289 66.7945 70.8173 67.0365 70.5709 67.1521C70.3829 67.2405 70.217 67.2731 70.0136 67.3061C69.8424 66.9247 69.5498 66.5633 69.3164 66.2164L69.7976 65.5449Z" fill="black"/>
<path d="M59.4919 56.4121C63.7347 57.1463 68.8419 58.6541 71.4652 62.4379C71.9387 63.121 72.3688 63.9207 72.9449 64.5149C73.2675 64.6991 73.5548 64.8463 73.8986 64.9809C73.9106 64.9857 73.9193 64.9969 73.9294 65.0052C73.5596 65.2991 73.1315 65.7189 72.7159 65.9273L72.3283 65.629C71.7593 65.835 71.4927 66.3393 70.9204 66.5458C71.1364 66.0585 71.646 65.6076 71.9763 65.1694C72.0125 64.7554 71.9763 64.7409 71.7386 64.3944C71.0405 63.328 70.2681 62.2543 69.1953 61.5469C66.5706 58.7698 62.7231 57.772 59.084 57.2363C59.2508 56.9906 59.3651 56.682 59.4919 56.4121Z" fill="black"/>
<path d="M56.4023 56.3563C57.4172 56.2196 58.4735 56.3333 59.4918 56.4121C59.365 56.682 59.2507 56.9906 59.0839 57.2362C57.867 57.1746 56.6911 57.1944 55.4756 57.2792L55.5344 57.0603L56.2007 56.9621L55.4973 56.7965C55.8015 56.6555 56.1033 56.5088 56.4023 56.3563Z" fill="black"/>
<path d="M54.3428 58.7154C59.2186 58.7105 64.4204 59.6764 68.0239 63.3003C68.5841 63.8634 69.5195 64.8074 69.7986 65.5449L69.3175 66.2164C68.9457 65.8014 68.5629 65.4181 68.1531 65.0411C66.765 64.8059 65.888 63.706 64.6509 63.1487C62.6081 62.229 60.3777 61.697 58.1874 61.2865C56.7795 61.2903 53.7951 60.9949 52.7542 61.9929L52.6476 62.3825C54.2613 66.2013 56.6918 69.2733 60.6091 70.8489C62.0931 71.446 63.5796 71.7181 65.1706 71.8478C65.9266 71.8692 66.6927 71.826 67.4492 71.8099C67.5384 72.1442 67.6724 72.3788 67.522 72.7039C67.2308 72.6665 66.9323 72.6762 66.6387 72.6728C65.8432 72.8414 64.9618 72.7928 64.161 72.684C60.2875 72.1578 56.4309 70.0779 54.08 66.914C52.9996 65.4599 50.8247 61.7874 51.0768 60.0296C51.4172 59.5729 52.0286 59.3858 52.5343 59.1652C53.1201 59.1181 53.7705 58.8708 54.3428 58.7154Z" fill="black"/>
<path d="M52.2444 60.5013C56.2549 59.3629 60.8028 59.8221 64.4459 61.8879C65.8281 62.6716 67.2601 63.7035 68.1535 65.041C66.7654 64.8059 65.8884 63.7059 64.6513 63.1487C62.6084 62.229 60.3781 61.6969 58.1877 61.2864C56.7799 61.2903 53.7955 60.9949 52.7545 61.9928L52.648 62.3825C52.404 61.7951 52.0892 61.1246 52.2444 60.5013Z" fill="#CE5633"/>
<path d="M67.4483 71.8098C67.5375 72.1441 67.6715 72.3787 67.5211 72.7038C67.2299 72.6664 66.9314 72.6761 66.6378 72.6727L65.4735 72.5561L65.9754 72.4458C65.8037 72.0877 64.9547 72.2505 64.54 72.0712L65.1697 71.8477C65.9257 71.8691 66.6918 71.8258 67.4483 71.8098Z" fill="black"/>
<defs>
<linearGradient id="paint0_linear_3042_604" x1="126.083" y1="180.114" x2="126.077" y2="177.251" gradientUnits="userSpaceOnUse">
<stop/>
<stop offset="1" stop-color="#001D00"/>
</linearGradient>
<linearGradient id="paint1_linear_3042_604" x1="77.0169" y1="87.0772" x2="73.0964" y2="72.5288" gradientUnits="userSpaceOnUse">
<stop stop-color="#F6EADB"/>
<stop offset="1" stop-color="#FEFFFF"/>
</linearGradient>
</defs>
</svg>
