<svg width="200" height="200" viewBox="0 0 200 200" fill="none" xmlns="http://www.w3.org/2000/svg">
<path d="M61.9252 28.1531C62.7778 27.9318 63.8908 28.1458 64.6371 28.5994C65.3006 29.0027 65.8836 29.5717 66.0336 30.3621C66.2614 31.5593 65.467 32.7468 64.7953 33.657C63.0041 36.085 61.8879 37.8578 62.3803 41.0554C62.6266 42.6554 63.3843 44.0399 64.4076 45.2703C64.9418 45.4202 65.4744 45.5618 65.9877 45.7761C66.4245 45.5603 66.9452 45.338 67.3119 45.0134C69.255 43.2919 70.9566 38.8589 74.7153 40.198C75.4796 40.4704 76.0762 40.7962 76.435 41.5544C76.7383 42.1953 76.9176 42.9619 76.6352 43.6413C75.9139 45.3748 71.9789 45.8068 72.6733 47.9177C73.1738 49.4382 78.0629 51.8352 79.4506 53.3064C82.1669 56.1852 82.748 58.2252 84.5219 61.5056C89.9086 60.5784 94.1332 60.5681 99.477 61.9402C101.274 58.0326 103.856 54.4321 107.674 52.2996C108.873 51.6301 110.451 51.1176 111.466 50.2029C112 49.7214 112.461 49.071 112.23 48.3162C112.215 48.2669 112.198 48.2181 112.177 48.1706C111.508 46.5841 108.111 45.3904 108.806 43.3425C109.108 42.4551 110.125 41.6923 110.956 41.3464C111.788 41 112.646 41.0436 113.469 41.3953C116.689 42.7713 116.958 48.1253 119.777 47.03C121.056 46.5326 121.966 45.3367 122.493 44.1081C123.306 42.2106 123.183 40.0368 122.395 38.1531C121.562 36.1624 119.314 33.5932 120.249 31.3269C120.548 30.6054 121.152 30.2098 121.812 29.8513C123.454 29.7605 124.806 29.8884 126.111 31.033C127.913 32.6138 128.741 35.4422 128.858 37.7693C128.921 39.0284 128.441 41.7961 129.402 42.6882C129.638 42.9074 129.863 43.0014 130.191 42.9968C130.955 42.986 131.919 42.3583 132.392 41.7839C134.22 39.5627 132.234 34.9772 136.205 34.5749C137.03 34.4902 137.856 34.7411 138.495 35.2722C139.389 36.0088 139.833 37.1181 139.934 38.2517C140.12 40.3344 139.097 42.8139 137.77 44.3699C135.245 47.3306 130.921 49.2684 127.289 50.3894C125.78 50.8549 124.206 51.1654 122.72 51.6902C120.923 52.3249 119.166 53.2524 117.437 54.0554C112.429 56.3807 106.924 58.8673 104.619 64.2849C105.018 64.6322 105.439 65.0937 105.974 65.1941C107.003 64.8026 108.03 63.1083 108.977 62.3787C114.222 58.3392 121.815 55.967 128.184 58.8308C128.852 59.1312 129.658 59.5906 129.939 60.3103C130.525 61.8172 129.275 64.8917 128.578 66.3386C126.771 70.0863 123.338 73.2783 119.395 74.6267C117.148 75.3951 114.856 75.4338 112.504 75.3835C113.832 80.5078 116.654 88.8213 113.81 93.6931C110.689 99.0373 104.582 101.073 99.1928 103.179C99.129 104.906 99.2436 106.618 99.3481 108.341C100.757 108.239 101.903 108.482 102.999 109.433C104.238 110.51 104.85 112.098 104.944 113.713C104.99 114.499 104.966 115.292 104.947 116.08C108.969 116.961 113.108 117.185 117.203 116.745C124.398 115.902 130.993 112.465 138.357 114.379C139.296 114.623 140.832 115.151 141.505 115.882C141.529 115.862 141.554 115.844 141.578 115.824C142.904 114.693 143.348 113.338 145.119 112.249C148.446 110.203 153.59 111.152 153.864 105.698C153.913 104.703 152.738 102.937 153.191 102.127C154.684 102.399 156.256 103.653 157.111 104.877C158.316 106.603 158.644 110.421 158.793 110.605C159.006 110.428 159.16 110.26 159.324 110.037C159.652 110.155 159.648 110.151 159.822 110.454C159.808 113.095 158.624 113.425 157.966 115.518C158.234 115.778 158.536 115.472 158.537 115.935C158.538 116.96 157.483 118.221 156.762 118.849C154.321 120.977 150.665 121.76 147.516 121.892C149.675 126.996 148.835 131.927 147.184 137.025C146.582 138.882 145.851 140.782 145.968 142.772C146.25 147.571 151.188 149.022 151.91 152.256C152.35 154.231 150.184 158.678 149.551 160.727C149.17 161.965 148.868 163.299 148.78 164.593C148.579 167.521 150.649 169.667 150.581 171.373C149.973 171.684 149.068 171.894 148.387 171.998C149.072 172.882 148.987 175.103 148.859 176.151C148.794 176.687 148.694 177.328 148.315 177.737C147.718 178.684 146.677 178.966 145.64 179.203C142.681 179.879 137.66 180.219 135 178.485C134.559 178.197 134.107 177.749 134.033 177.202C133.885 176.111 134.517 174.812 135.202 174.007C136.026 173.036 137.029 172.228 137.765 171.184C137.741 171.155 137.717 171.125 137.692 171.096C137.291 170.64 136.612 170.634 136.248 170.067C136.281 169.682 136.39 169.503 136.68 169.239C137.268 168.703 138.073 168.284 138.593 167.691C140.459 165.561 141.884 160.942 142.118 158.128C142.195 157.197 142.267 155.813 141.773 154.977C141.574 154.061 140.326 153.213 139.574 152.73C138.872 152.28 138.127 151.831 137.327 151.584C137.318 151.61 137.309 151.635 137.299 151.661C136.965 152.532 136.22 153.413 135.701 154.193C133.829 157.005 132.522 159.675 132.272 163.104C132.172 164.471 133.499 167.427 133.396 167.977C132.769 168.376 131.929 168.65 131.222 168.879C131.508 169.949 131.444 171.884 130.897 172.855C130.41 173.721 129.303 174.07 128.398 174.301C125.614 175.01 120.834 175.384 118.275 173.845C117.714 173.508 117.197 172.997 117.063 172.334C116.943 171.742 117.128 171.061 117.336 170.51C117.77 169.338 119.456 167.784 120.493 167.098L120.64 166.71C120.511 166.471 120.178 166.056 120.241 165.802C120.5 164.764 122.088 164.005 122.701 163.129C123.794 161.564 127.012 154.097 126.302 152.424C125.93 151.614 124.891 150.914 124.274 150.264C123.165 149.096 122.172 147.784 121.491 146.318C118.742 146.682 116.061 147.441 113.292 147.68C110.92 147.887 108.508 147.635 106.129 147.745C104.028 154.26 100.99 162.869 104.395 169.471C104.768 170.194 105.234 170.883 105.632 171.595L104.544 172.373L102.677 172.497C102.709 174.053 103.069 176.473 101.925 177.679C100.454 179.231 97.458 179.284 95.4545 179.302C93.3819 179.319 90.2433 179.298 88.7006 177.715C88.1893 177.191 88.6209 176.149 87.8481 176.11C86.7827 176.058 85.6484 176.365 84.5844 176.453C82.5946 176.617 78.8266 176.41 77.3598 174.968C76.9416 174.557 76.7169 174.035 76.7182 173.447C76.721 172.043 77.896 170.648 78.8451 169.731C79.5706 169.031 80.3568 168.412 81.1655 167.811L79.2573 166.526C80.288 165.221 81.7571 164.367 82.684 162.987C85.1797 159.273 86.0975 150.644 85.5912 146.225C85.3435 144.064 84.3746 138.927 82.6537 137.53L82.436 137.486L82.3207 137.585C81.3779 138.381 79.9681 138.472 78.7739 138.535C79.834 136.313 80.5188 134.718 79.6567 132.258C79.2828 131.191 78.828 130.121 78.3393 129.101C77.2697 130.928 75.4943 134.921 73.478 135.741L73.1283 135.711C72.6855 135.142 72.7624 132.657 72.185 131.355C70.2305 130.721 67.4079 130.145 66.1293 128.354L66.1303 128.058C66.3756 127.82 66.5355 127.755 66.8725 127.705C67.3611 127.84 67.8014 128.019 68.2621 128.228C71.4604 126.953 73.789 124.672 75.2651 121.55C74.1004 120.085 73.4211 118.578 73.6352 116.654C73.8517 114.711 74.9688 112.886 76.4916 111.688C78.0642 110.451 79.7893 110.076 81.7192 109.855C82.1932 107.641 82.7073 105.405 82.852 103.139C77.1598 100.646 70.5037 97.2784 68.1186 91.0398C66.5886 87.0375 68.7423 82.9611 69.7807 79.1218C70.2349 77.4426 70.4321 75.6871 70.9057 74.0183C65.9848 74.1031 62.2324 73.2923 58.5834 69.7771C56.2363 67.5157 53.4298 63.5924 53.3989 60.2156C53.3927 59.558 53.5004 58.8235 53.9809 58.3367C55.6612 56.6344 60.162 56.4106 62.4379 56.488C67.0199 56.6438 71.6509 58.4646 74.8002 61.8689C75.6476 62.7842 76.3013 63.8349 77.1127 64.7673C77.7228 64.3491 78.3427 63.9463 78.9721 63.5583C77.3603 60.9206 76.3134 58.5698 73.8764 56.5349C70.9922 54.1266 67.4486 52.7378 64.1069 51.116C62.9537 50.5562 61.8576 49.8424 60.6733 49.3542C58.8738 48.6129 56.9434 48.1893 55.1147 47.5222C51.4275 46.177 47.8248 43.5516 46.5883 39.6609C46.1176 38.1796 45.8329 36.0232 46.2114 34.4734C46.5025 33.2823 47.1711 32.6482 48.1684 32.0076C49.0763 31.8888 49.8526 31.8922 50.7563 32.0222C51.2374 32.4326 51.6872 32.8409 52.1078 33.3142C52.5157 35.4056 52.0129 38.694 53.9643 40.0134C54.4411 40.3359 55.0881 40.599 55.6713 40.4949C55.9897 40.438 56.2693 40.279 56.4555 40.0105C57.1064 39.0703 56.8108 36.8369 56.8803 35.699C57.0783 32.4532 58.5043 29.0409 61.9252 28.1531ZM93.9848 145.704C93.771 147.842 93.2795 152.374 93.0229 153.401C92.7663 154.427 92.0608 156.609 91.4194 159.175C90.7779 163.665 91.526 166.765 91.7397 168.155C92.0603 168.155 92.4139 168.476 92.7026 168.155C95.5891 164.948 95.5889 162.702 95.9096 158.533C96.0742 156.394 95.3743 149.297 94.9467 145.962L93.9848 145.704Z" fill="black"/>
<path d="M120.672 167.712L122.14 166.713C123.129 167.2 123.328 168.4 124.243 168.986C125.516 169.8 128.779 169.805 129.363 171.395C129.503 171.777 129.336 172.08 129.182 172.426L129.115 172.581C128.975 172.895 128.873 173.062 128.597 173.266C127.868 173.819 125.831 173.855 124.911 173.894C123.137 173.97 119.356 174.123 118.034 172.746C117.595 172.288 117.742 171.785 117.787 171.22L117.337 170.509C117.771 169.338 119.457 167.783 120.493 167.098C120.543 167.288 120.575 167.545 120.672 167.712Z" fill="#1D8334"/>
<path d="M117.337 170.509C117.771 169.338 119.457 167.783 120.493 167.098C120.543 167.288 120.575 167.545 120.672 167.712C119.598 168.899 118.547 169.763 117.787 171.22L117.337 170.509Z" fill="#120B08"/>
<path d="M122.14 166.713C122.49 166.659 123.161 166.437 123.448 166.678C125.051 168.027 124.182 168.655 127.16 168.892C128.236 168.978 129.34 168.95 130.42 168.959C130.808 169.805 130.665 170.809 130.564 171.707C130.444 172.249 130.207 172.605 129.738 172.902C129.38 173.129 129.015 173.214 128.597 173.266C128.873 173.062 128.975 172.895 129.115 172.581L129.182 172.426C129.336 172.08 129.503 171.777 129.363 171.395C128.779 169.805 125.516 169.8 124.243 168.985C123.328 168.4 123.129 167.2 122.14 166.713Z" fill="#115B28"/>
<path d="M125.398 115.955C130.351 114.269 136.321 114.067 141.103 116.447C143.847 117.813 146.155 120.466 147.113 123.387C148.514 127.661 147.748 132.189 146.427 136.366C145.787 138.389 145.072 140.369 145.03 142.518C144.973 145.474 147.963 148.384 147.962 149.092C149.088 149.623 150.411 150.741 150.841 151.935C152.072 155.35 145.689 162.311 148.75 169.327C148.97 169.832 149.309 170.243 149.585 170.713C148.9 171.315 147.568 170.697 146.743 171.125C146.866 171.59 146.858 171.589 146.637 172.018C146.068 172.456 145.469 172.493 144.783 172.399C143.609 172.237 142.426 171.608 142.11 170.368C142.042 170.102 142.075 169.646 141.901 169.442C141.791 169.314 140.419 170.217 140.084 170.319C139.073 170.626 137.691 170.197 136.661 170.073C137.962 169.485 139.074 168.496 139.903 167.341C142.047 164.358 143.542 158.819 142.899 155.176C142.426 152.496 137.609 150.62 135.49 149.156C130.658 145.817 125.631 140.299 126.581 133.89C126.766 132.644 127.834 130.819 127.627 129.692C127.198 131.238 126.101 132.389 125.815 134.076C125.55 135.64 126.187 137.379 125.827 138.845C125.295 139.264 124.114 139.5 123.456 139.709C118.179 141.389 113.084 141.807 107.608 141.278C107.464 138.998 106.855 137.118 105.532 135.26C106.122 136.89 106.728 138.533 106.829 140.281C107.068 144.438 104.858 148.491 103.68 152.372C102.962 154.801 102.493 157.297 102.281 159.822C101.927 163.718 102.055 168.341 104.669 171.496C103.886 171.58 103.101 171.658 102.316 171.73C102.093 171.397 101.766 170.733 101.391 170.593C101.187 171.197 100.97 171.871 100.426 172.257C100.009 172.553 99.489 172.611 98.9951 172.537C98.0965 172.402 97.1082 171.774 96.5873 171.03C96.1912 170.464 95.937 169.794 96.066 169.102C96.1052 168.891 96.1388 168.681 96.1756 168.47C95.3041 168.638 94.8248 170.028 93.757 169.872C93.3567 169.813 93.1955 169.637 92.954 169.35C93.0003 168.844 93.5042 168.413 93.8161 168.002C98.3868 161.974 96.0939 152.318 95.1448 145.339L94.648 145.131C92.175 144.899 87.4371 141.353 85.6528 139.573C85.3625 139.262 85.0865 138.938 84.8251 138.602C84.1814 137.783 83.5097 136.681 83.6392 135.593C83.7153 135.474 83.8122 135.249 83.9436 135.203C84.6332 134.966 85.5261 135.556 86.1391 135.866C86.609 136.071 87.3118 136.365 87.8261 136.252C88.3228 136.142 88.5483 135.772 88.7903 135.368C88.2628 133.662 86.8609 132.577 85.995 131.06C85.2789 129.805 85.0336 128.382 84.7609 126.982C84.6772 126.45 84.6923 125.87 84.6682 125.33C85.7265 125.394 86.963 125.36 87.9759 125.658L88.2902 125.645C89.2029 125.269 90.7405 125.361 91.7477 125.223C92.8854 125.067 94.0548 124.792 95.1571 124.471C99.1236 123.316 102.501 121.134 104.522 117.454L104.769 117.094L105.108 117.083C112.058 118.553 118.604 117.691 125.398 115.955Z" fill="#CF7B31"/>
<path d="M88.7903 135.368C89.1013 137.178 91.3327 139.328 92.8131 140.365C93.1099 140.573 93.377 140.71 93.748 140.724C93.9196 140.614 94.0392 140.543 94.1668 140.378L94.5152 140.565C94.4958 142.078 94.4637 143.626 94.648 145.131C92.175 144.899 87.4371 141.353 85.6528 139.573C85.3625 139.262 85.0865 138.938 84.8251 138.602C84.1814 137.784 83.5097 136.681 83.6392 135.593C83.7153 135.474 83.8122 135.249 83.9436 135.203C84.6332 134.966 85.5261 135.556 86.1391 135.866C86.609 136.071 87.3118 136.365 87.8261 136.252C88.3228 136.142 88.5483 135.772 88.7903 135.368Z" fill="#BDBC65"/>
<path d="M85.6528 139.573C85.3625 139.262 85.0865 138.938 84.8251 138.602C84.1814 137.784 83.5097 136.681 83.6392 135.593C83.7153 135.474 83.8122 135.249 83.9436 135.203C84.6332 134.966 85.5261 135.556 86.1391 135.866C86.2266 137.112 86.6865 138.363 85.795 139.414C85.7487 139.468 85.7014 139.521 85.6528 139.573Z" fill="#EDA64E"/>
<path d="M125.398 115.955L125.513 115.954C126.756 115.941 130.909 115.352 131.761 116.311C131.781 116.334 131.795 116.362 131.811 116.387C132.311 116.556 132.684 116.728 132.936 117.231C133.162 117.681 133.139 118.209 132.965 118.671C132.587 119.682 131.66 120.446 130.698 120.871C129.31 121.484 127.32 121.727 125.879 121.16C125.123 120.862 124.21 120.078 123.904 119.314C123.827 119.121 123.775 118.918 123.731 118.716L123.764 118.432C124.11 117.378 125.044 116.874 125.398 115.955Z" fill="#EAA34C"/>
<path d="M125.398 115.955L125.513 115.954C126.756 115.941 130.909 115.352 131.761 116.311C131.781 116.334 131.795 116.362 131.811 116.387L131.757 116.669C131.12 116.966 124.418 118.429 123.764 118.432C124.11 117.378 125.044 116.874 125.398 115.955Z" fill="#F2DAA7"/>
<path d="M84.6689 125.33C85.7272 125.394 86.9637 125.359 87.9766 125.657L88.291 125.645C88.3855 126.275 88.317 127.037 88.4583 127.627C88.706 132.196 90.6486 136.769 94.0418 139.898C94.2181 140.061 94.4162 140.196 94.6223 140.318L94.5159 140.565L94.1676 140.378C94.04 140.543 93.9204 140.613 93.7488 140.724C93.3777 140.71 93.1107 140.573 92.8139 140.365C91.3335 139.328 89.102 137.178 88.791 135.368C88.2635 133.662 86.8616 132.577 85.9957 131.06C85.2796 129.805 85.0343 128.382 84.7616 126.982C84.6779 126.45 84.6931 125.87 84.6689 125.33Z" fill="#F2DAA7"/>
<path d="M87.9762 125.658L88.2905 125.645C88.385 126.275 88.3165 127.037 88.4578 127.627C88.7055 132.196 90.6481 136.769 94.0414 139.898C94.2177 140.061 94.4157 140.196 94.6218 140.318L94.5155 140.565L94.1671 140.378C90.0379 136.931 88.4512 132.412 87.9615 127.192C87.9592 126.681 87.9639 126.169 87.9762 125.658Z" fill="#54361F"/>
<path d="M84.6689 125.33C85.7272 125.394 86.9637 125.359 87.9766 125.657C87.9643 126.169 87.9596 126.68 87.962 127.192C86.9283 126.962 85.817 127.007 84.7616 126.982C84.6779 126.45 84.6931 125.87 84.6689 125.33Z" fill="#B0957D"/>
<path d="M88.29 125.645C89.2028 125.269 90.7403 125.361 91.7476 125.223C92.8853 125.067 94.0546 124.792 95.1569 124.471C99.1235 123.317 102.501 121.134 104.522 117.454C104.544 119.678 103.865 121.291 102.297 122.896C98.9079 126.368 94.6336 127.126 89.9883 127.214C89.4835 127.224 88.6408 127.072 88.4574 127.627C88.316 127.037 88.3846 126.275 88.29 125.645Z" fill="#A3551D"/>
<path d="M105.109 117.083C112.059 118.553 118.605 117.691 125.398 115.955C125.044 116.874 124.11 117.378 123.764 118.432L123.732 118.716C123.046 118.429 119.613 119.221 118.635 119.343C115.137 119.777 111.384 119.581 107.928 118.915C107.06 118.748 105.58 118.522 105.076 117.724C104.933 117.498 105.045 117.331 105.109 117.083Z" fill="#EAA34C"/>
<path d="M147.962 149.092C149.089 149.623 150.412 150.741 150.842 151.935C152.072 155.35 145.69 162.311 148.75 169.327C148.97 169.832 149.309 170.243 149.585 170.713C148.9 171.315 147.568 170.697 146.744 171.125C147.057 169.973 146.458 166.775 146.668 165.1C146.851 163.632 147.09 162.139 147.482 160.712C148.087 158.517 148.991 156.366 149.067 154.063C149.126 152.255 148.645 150.73 147.962 149.092Z" fill="#A3551D"/>
<path d="M96.421 135.816C95.1249 140.266 94.7024 140.447 95.1448 145.339L94.648 145.131C94.4637 143.626 94.4958 142.078 94.5152 140.565L94.6216 140.318C94.7251 138.527 95.4284 137.254 96.421 135.816Z" fill="#120B08"/>
<path d="M137.617 120.181C138.824 120.029 140.204 120.221 141.194 120.968C141.76 121.394 142.193 122.009 142.272 122.728C142.332 123.289 142.193 123.825 141.834 124.269C141.182 125.077 140.098 125.371 139.112 125.468C138.26 125.572 137.354 125.479 136.569 125.122C135.871 124.804 135.242 124.27 134.976 123.53C134.78 122.986 134.821 122.42 135.076 121.906C135.583 120.88 136.601 120.523 137.617 120.181Z" fill="#EAA34C"/>
<path d="M118.764 119.852C119.212 119.809 119.647 119.8 120.088 119.901C120.683 120.037 121.323 120.44 121.616 120.987C121.807 121.343 121.821 121.707 121.681 122.084C121.417 122.797 120.834 122.999 120.19 123.273C119.723 123.301 119.268 123.302 118.813 123.176C118.237 123.017 117.641 122.55 117.364 122.018C117.187 121.676 117.156 121.3 117.305 120.941C117.569 120.31 118.179 120.084 118.764 119.852Z" fill="#EAA34C"/>
<path d="M129.137 124.187C129.843 124.127 130.635 124.129 131.283 124.454C131.83 124.728 132.22 125.144 132.403 125.733C132.378 125.908 132.381 126.146 132.284 126.291C131.867 126.916 131.213 127.099 130.516 127.241C130.125 127.369 129.535 127.352 129.133 127.259C128.661 127.151 128.243 126.921 128.006 126.481C127.821 126.136 127.774 125.679 127.898 125.307C128.098 124.707 128.62 124.466 129.137 124.187Z" fill="#EAA34C"/>
<path d="M68.5988 90.0131C68.3176 88.9963 68.2065 88.1975 68.3232 87.1475C68.5714 84.9149 69.4463 82.769 70.0333 80.6112C71.0117 77.0149 71.4797 73.2548 73.3486 69.9608C75.5304 66.1153 79.5447 63.6605 83.7126 62.5167C90.2855 60.7133 97.6378 61.225 103.61 64.6607C108.769 67.6282 110.776 72.7482 112.252 78.2687C113.395 82.542 114.32 86.8215 113.916 91.2635C112.102 89.0091 109.834 88.2704 107.166 87.4706C109.202 86.2572 110.245 84.8959 110.848 82.5785C111.29 80.8799 111.174 79.0448 110.259 77.5177C109.365 76.0275 107.813 74.9998 106.143 74.5938C104.189 74.119 101.989 74.4881 100.283 75.5528C98.6431 76.5767 97.3726 78.2701 96.9585 80.1739C96.5294 82.1487 97.0039 84.0175 98.0972 85.6844C98.3642 86.0895 98.6445 86.4856 98.9376 86.8722C98.6034 87.111 98.1804 87.1669 97.8812 87.4081C97.6789 87.3688 97.5456 87.3171 97.3532 87.4147C96.4764 86.1989 95.4758 85.5465 94.1169 84.9807C93.8465 85.094 93.5549 85.194 93.302 85.3423C92.8071 85.438 92.3959 85.69 91.9341 85.7895C90.2113 85.5905 88.7385 85.8592 87.104 86.3936C86.5378 86.3339 86.1497 86.614 85.6383 86.2889C84.8971 86.2619 84.2571 86.5713 83.5864 86.8551L83.5122 86.586C84.9302 83.9526 86.6247 82.0061 85.687 78.7524C85.194 77.041 83.853 75.6357 82.3027 74.8174C80.4541 73.8347 78.2865 73.6475 76.2975 74.299C74.7373 74.8169 73.4185 75.8953 72.7043 77.3907C71.8947 79.085 71.9476 81.095 72.5937 82.8339C73.2025 84.4737 74.309 85.6929 75.78 86.6054C72.978 87.3176 70.7215 87.8914 68.5988 90.0131Z" fill="#CF7B31"/>
<path d="M83.5117 86.586C86.7438 85.0385 90.5837 84.1122 94.1164 84.9807C93.846 85.0939 93.5544 85.1939 93.3015 85.3422C92.8066 85.4379 92.3954 85.69 91.9336 85.7895C90.2108 85.5905 88.738 85.8591 87.1035 86.3936C86.5372 86.3339 86.1492 86.6139 85.6378 86.2889C84.8966 86.2619 84.2566 86.5713 83.5859 86.8551L83.5117 86.586Z" fill="#120B08"/>
<path d="M94.1165 84.9807C95.4754 85.5464 96.476 86.1989 97.3528 87.4147C97.5452 87.3171 97.6785 87.3687 97.8808 87.4081C102.812 88.0269 107.663 87.3 112.029 90.2874C112.62 90.7996 113.149 91.3327 113.669 91.9164C111.804 95.7922 108.074 98.6555 104.163 100.279L102.468 100.982C95.8923 103.56 88.1884 104.342 81.512 101.657C76.3997 99.6008 71.1796 95.859 68.9463 90.649C71.7307 87.9217 75.9682 87.2058 79.7391 87.3043C80.5969 87.3271 82.0532 87.5706 82.8473 87.3427C83.1148 87.2659 83.3748 87.03 83.5861 86.8551C84.2568 86.5713 84.8967 86.2619 85.6379 86.2889C86.1493 86.614 86.5374 86.3339 87.1036 86.3936C88.7381 85.8592 90.2109 85.5905 91.9338 85.7895C92.3955 85.69 92.8067 85.4379 93.3016 85.3422C93.5545 85.1939 93.8461 85.094 94.1165 84.9807Z" fill="#F2DAA7"/>
<path d="M94.1168 84.9807C95.4757 85.5464 96.4764 86.1989 97.3532 87.4147C97.5867 88.767 97.5517 89.7933 96.7529 90.9622C95.6312 92.6025 93.6536 93.5042 91.7545 93.8325L91.6666 93.8477L91.4624 94.0742L90.8058 94.25L90.6258 93.8013L90.2637 93.8197C89.8761 93.7534 89.4885 93.6525 89.1142 93.5331C87.5818 93.0427 86.0575 91.9302 85.3409 90.4585C84.8101 89.3687 84.8021 88.3917 85.1816 87.2626L85.6382 86.2889C86.1496 86.614 86.5377 86.3339 87.104 86.3936C88.7384 85.8592 90.2112 85.5905 91.9341 85.7895C92.3959 85.69 92.8071 85.4379 93.302 85.3422C93.5548 85.1939 93.8465 85.094 94.1168 84.9807Z" fill="#33231E"/>
<path d="M94.1168 84.9807C95.4757 85.5464 96.4764 86.1989 97.3532 87.4147C97.5867 88.767 97.5517 89.7933 96.7529 90.9622C95.6312 92.6025 93.6536 93.5042 91.7545 93.8325L91.6666 93.8477L91.4624 94.0742L90.8058 94.25L90.6258 93.8013L90.2637 93.8197C89.8761 93.7534 89.4885 93.6525 89.1142 93.5331C87.5818 93.0427 86.0575 91.9302 85.3409 90.4585C84.8101 89.3687 84.8021 88.3917 85.1816 87.2626C85.6793 87.6635 85.8292 88.567 86.0471 89.1631C86.4881 90.3737 87.1796 91.1569 88.356 91.6824C89.8492 92.3495 91.4236 92.1988 92.9111 91.5947C94.1211 91.1034 95.4833 90.2349 95.9834 88.9622C96.2178 88.3652 96.215 87.7511 95.9423 87.1631C95.4668 86.1397 94.2889 85.691 93.302 85.3422C93.5548 85.1939 93.8465 85.094 94.1168 84.9807Z" fill="black"/>
<path d="M87.1035 86.3936C88.738 85.8591 90.2108 85.5905 91.9336 85.7895C92.1591 86.1927 92.17 86.2074 92.0891 86.6608C91.6118 87.3024 90.9623 87.4914 90.2046 87.6089C89.3884 87.735 88.2176 87.689 87.5204 87.1887C87.2552 86.9977 87.1739 86.6964 87.1035 86.3936Z" fill="#F8F8F9"/>
<path d="M85.836 96.1379C84.7111 95.8124 83.6608 95.3386 82.6909 94.6814C82.0022 94.2147 81.0626 93.4646 80.9473 92.5734C80.8934 92.1583 81.0479 91.8797 81.2833 91.5547C81.8675 93.1756 82.1592 93.9493 83.7662 94.8117C84.9564 95.4504 86.8754 95.9455 88.1988 95.511C88.9712 95.258 90.0238 94.8164 90.4052 94.0488L90.2639 93.8195L90.626 93.801L90.806 94.2498L91.4626 94.074L91.6668 93.8475C92.0751 94.2952 92.4939 94.7525 93.0053 95.0841C93.9828 95.7176 95.2023 96.0024 96.3447 95.7356C98.2415 95.2931 99.209 93.9328 100.187 92.3848L100.34 92.4279C100.348 92.4644 100.357 92.5009 100.363 92.5383C100.446 93.0335 100.049 93.8636 99.7687 94.2621C98.9623 95.4063 97.5514 95.9067 96.2322 96.1384C95.9954 96.9206 95.7614 97.7437 95.2916 98.4226C94.4489 99.6408 93.1651 100.405 91.7126 100.634C90.3424 100.851 88.8034 100.627 87.6799 99.7664C86.5039 98.8657 86.0203 97.5636 85.836 96.1379Z" fill="#120B08"/>
<path d="M89.3526 95.593L89.847 95.6608L89.6395 95.9171C90.2739 96.3066 92.7029 95.7238 94.0405 96.3715C94.2664 96.643 94.3071 96.6264 94.2764 96.9974C93.426 98.1639 91.5874 98.5771 90.2431 98.8207C89.8712 98.6994 89.4897 98.5809 89.1319 98.4226C88.4447 98.1175 87.4625 97.3784 87.1982 96.6539C87.4289 95.8598 88.5987 96.0763 89.2586 95.657C89.2902 95.6366 89.321 95.6143 89.3526 95.593Z" fill="#903922"/>
<path d="M90.806 94.2498L91.4625 94.074C91.8255 94.5345 92.1984 94.979 92.5898 95.4163C91.6738 95.4765 90.7592 95.558 89.8469 95.6608L89.3525 95.593C89.8091 95.2391 90.5833 94.779 90.806 94.2498Z" fill="#F1D8A6"/>
<path d="M86.293 96.1802C86.9254 96.4038 87.4335 97.6997 88.2394 98.2593C92.2792 101.063 94.5702 96.3659 95.4527 96.2015C95.5798 96.5422 95.4716 96.7748 95.3638 97.1093C95.1492 97.6078 94.9592 98.1067 94.617 98.5355C93.8055 99.5519 92.5718 100.127 91.2928 100.243C90.0279 100.359 88.6714 100.078 87.6958 99.2221C86.8427 98.4744 86.3799 97.2922 86.293 96.1802Z" fill="#F7F7F9"/>
<path d="M102.468 100.982C102.426 100.734 102.428 100.57 102.468 100.321C102.995 99.7445 103.835 99.491 104.543 99.1968L104.032 99.7739C104.054 99.9663 104.069 100.108 104.163 100.279L102.468 100.982Z" fill="#F3E1BD"/>
<path d="M100.185 62.3466C101.625 58.7181 104.5 54.9668 107.972 53.0893C109.6 52.2087 111.639 51.5034 112.79 49.9906C114.806 47.3416 109.842 45.9652 109.661 43.8006C109.627 43.3992 109.802 43.0968 110.075 42.8186C110.566 42.3201 111.4 41.9345 112.094 41.9267C115.083 41.8932 115.428 45.653 117.097 47.2821C117.667 47.8384 118.327 47.9919 119.108 47.9664C120.265 47.9286 121.272 47.3736 122.037 46.52C122.912 45.5422 123.451 44.2626 123.71 42.9851C124.83 37.4719 120.935 35.6929 120.828 32.3892C120.813 31.9411 120.927 31.5201 121.254 31.1994C121.689 30.7715 122.368 30.6605 122.955 30.6965C124.03 30.7624 125.118 31.3187 125.826 32.1277C126.172 32.5236 126.642 33.1073 126.602 33.6581C127.36 34.1479 127.631 35.2788 127.804 36.1139C128.315 38.5905 128.214 42.7096 126.853 44.9071C126.741 45.0882 126.589 45.2274 126.436 45.3722C126.57 45.9932 126.121 46.6521 125.8 47.1606C124.931 48.5368 123.577 50.0347 122.148 50.8156C120.622 51.7862 118.92 52.5078 117.272 53.2423C112.905 55.1878 108.735 57.1588 105.548 60.8522C104.885 61.8055 104.358 62.8517 103.805 63.8718C102.653 63.2227 101.424 62.792 100.185 62.3466Z" fill="#DABA99"/>
<path d="M121.808 50.0823C122.16 50.157 122.269 50.0778 122.599 49.9539C122.521 50.1999 122.429 50.0957 122.288 50.2549C122.24 50.3091 122.224 50.6881 122.149 50.8156C120.623 51.7862 118.922 52.5078 117.273 53.2424C112.906 55.1878 108.736 57.1588 105.549 60.8522L105.336 60.7489C105.211 60.5376 105.146 60.484 105.222 60.2286C105.44 59.5023 106.337 58.7181 106.889 58.2255C111.213 54.3604 116.649 52.5022 121.808 50.0823Z" fill="#B0957D"/>
<path d="M126.602 33.658C127.36 34.1477 127.631 35.2786 127.804 36.1137C128.315 38.5903 128.215 42.7094 126.853 44.907C126.741 45.088 126.59 45.2272 126.437 45.3721C126.496 45.2644 126.494 45.2744 126.549 45.138C126.888 44.2929 126.981 43.5815 126.584 42.7556C127.48 41.3293 127.364 38.1855 127.137 36.55C127.038 35.8371 126.787 35.1309 126.752 34.4138C126.739 34.1373 126.693 33.9189 126.602 33.658Z" fill="#9F8A75"/>
<path d="M126.584 42.7556C126.981 43.5815 126.888 44.293 126.548 45.138C126.494 45.2745 126.496 45.2644 126.436 45.3721C126.571 45.993 126.121 46.6519 125.8 47.1605C124.931 48.5367 123.577 50.0345 122.148 50.8155C122.223 50.6879 122.239 50.3089 122.287 50.2547C122.428 50.0955 122.52 50.1997 122.598 49.9537C122.268 50.0776 122.159 50.1568 121.807 50.0821C122.917 49.2973 123.865 48.3862 124.68 47.2955C125.457 46.257 126.774 44.0901 126.584 42.7556Z" fill="#B0957D"/>
<path d="M58.0859 34.0331C58.5898 32.2622 59.2544 30.4351 60.9465 29.4694C61.7912 28.9874 62.8849 28.8273 63.8245 29.0964C64.3147 29.2367 64.7675 29.5432 65.0038 30.0056C65.3026 30.5894 65.209 31.3083 64.984 31.8998C64.5945 32.9248 63.5495 33.79 62.8721 34.6577C61.0046 37.0513 61.1597 40.8821 62.3078 43.5501C62.7975 44.6877 63.6133 45.9058 64.8115 46.3737C65.5143 46.6479 66.263 46.5657 66.9361 46.2478C69.4473 45.0618 70.7656 39.8375 74.2226 41.0025C74.8102 41.2005 75.6 41.6969 75.8732 42.2766C76.0032 42.5526 76.0325 42.7966 75.9271 43.0903C75.2686 44.9266 70.7018 45.4717 71.6499 48.0486C72.3088 49.8406 74.8059 50.8258 76.2499 51.8707C77.1962 52.5645 78.0867 53.3321 78.9129 54.1664C81.0989 56.3908 82.4706 58.8655 83.5577 61.7677C82.637 62.0875 81.703 62.3874 80.7931 62.7347C80.51 62.884 80.2623 62.9783 79.9494 63.0441C79.4323 62.7802 78.1812 60.2358 77.6953 59.517C76.9669 58.4391 76.188 57.449 75.2195 56.5801C73.5831 55.1122 71.848 53.8737 69.8997 52.8556C66.099 50.8695 62.3167 50.0001 60.0683 45.9738C58.145 42.5296 56.9965 37.9231 58.0859 34.0331Z" fill="#DABA99"/>
<path d="M80.7931 62.7351C80.51 62.8844 80.2623 62.9786 79.9494 63.0445C79.4323 62.7806 78.1812 60.2362 77.6953 59.5174C76.9669 58.4395 76.188 57.4494 75.2195 56.5805C73.5831 55.1126 71.848 53.8741 69.8997 52.856C66.099 50.8699 62.3168 50.0005 60.0683 45.9742C58.145 42.53 56.9965 37.9235 58.0859 34.0334C58.103 34.9061 58.318 35.6772 58.4168 36.5327C58.863 40.403 59.4737 45.026 62.4174 47.8959C64.5775 50.0024 68.1121 50.8601 70.7935 52.1316C72.7503 53.0596 74.8196 54.4368 76.4068 55.9058C77.2576 56.6928 77.9926 57.6234 78.6071 58.6053C79.1345 59.4487 80.2448 62.3504 80.7931 62.7351Z" fill="#B0957D"/>
<path d="M127.572 61.5787C128.427 61.3338 128.641 60.515 128.768 60.4946C128.995 60.9779 129.086 61.3475 128.916 61.8644C129.287 62.9514 128.059 65.3048 127.572 66.2932C125.915 69.6554 122.767 72.5978 119.199 73.7814C117.632 74.3011 113.596 74.9801 112.187 74.3201C111.93 74.1993 111.747 73.9894 111.661 73.7183C111.631 73.6241 111.627 73.579 111.607 73.4739C111.627 73.2696 111.581 73.0365 111.562 72.8309C110.671 72.1022 109.844 69.8658 109.287 68.7821C109.205 68.5538 109.205 68.414 109.306 68.1856C110.358 65.8298 115.159 62.8177 117.562 61.882C120.17 60.867 124.484 60.0445 127.131 61.2129C127.321 61.229 127.505 61.2674 127.69 61.2125L127.572 61.5787Z" fill="#F66945"/>
<path d="M127.573 61.5787C128.428 61.3338 128.642 60.515 128.768 60.4946C128.996 60.9779 129.087 61.3475 128.916 61.8644C129.288 62.9514 128.06 65.3048 127.573 66.2932C125.915 69.6554 122.767 72.5978 119.199 73.7814C117.633 74.3011 113.596 74.9801 112.188 74.3201C111.931 74.1993 111.747 73.9894 111.662 73.7183C111.632 73.6241 111.627 73.579 111.608 73.4739C111.627 73.2696 111.581 73.0365 111.562 72.8309C112.179 72.7854 112.853 72.8915 113.478 72.9067C115.106 72.9574 116.73 72.7262 118.279 72.2235C121.997 71.0091 124.531 68.0506 126.246 64.6419C126.484 64.1691 126.8 63.6422 126.624 63.1016C126.707 63.0262 126.778 62.9466 126.844 62.8557C127.211 62.3482 127.24 61.8066 127.132 61.2129C127.322 61.229 127.506 61.2674 127.69 61.2125L127.573 61.5787Z" fill="#A9673B"/>
<path d="M127.132 61.2129C127.322 61.229 127.506 61.2674 127.69 61.2124L127.573 61.5787C127.59 64.0127 124.98 67.8629 123.315 69.5501C120.822 72.0765 117.71 73.461 114.147 73.4729C113.402 73.4752 112.303 73.3009 111.608 73.4738C111.627 73.2696 111.581 73.0365 111.562 72.8308C112.179 72.7853 112.853 72.8915 113.478 72.9066C115.106 72.9573 116.73 72.7261 118.279 72.2234C121.997 71.009 124.531 68.0505 126.246 64.6419C126.484 64.169 126.8 63.6421 126.624 63.1015C126.707 63.0262 126.778 62.9466 126.844 62.8556C127.211 62.3481 127.24 61.8066 127.132 61.2129Z" fill="#33231E"/>
<path d="M109.287 68.7821C109.205 68.5537 109.205 68.414 109.306 68.1856C110.358 65.8298 115.159 62.8177 117.562 61.8819C120.17 60.867 124.484 60.0445 127.131 61.2129C127.24 61.8066 127.211 62.3482 126.843 62.8556C126.778 62.9466 126.706 63.0262 126.623 63.1015C126.522 62.9106 126.546 62.8466 126.331 62.7789C123.022 61.7393 118.466 63.0978 115.528 64.6775C113.824 65.5933 111.06 68.1482 109.74 68.6101C109.588 68.6637 109.438 68.7262 109.287 68.7821Z" fill="#E04532"/>
<path d="M127.691 144.373C127.996 144.305 128.283 144.233 128.599 144.264C129.222 144.327 130.115 145.674 130.512 146.157C132.252 148.273 135.534 149.615 136.709 151.078C136.606 151.877 133.95 155.309 133.383 156.304C132.588 157.697 131.943 159.213 131.619 160.79C131.271 162.482 131.41 164.36 131.871 166.023C132.02 166.56 132.338 167.07 132.283 167.639C132.28 167.666 132.275 167.693 132.272 167.72C130.015 168.497 127.716 168.339 125.436 167.788C123.894 166.649 124.696 165.972 124.034 165.335C122.873 165.626 121.969 165.997 120.749 166.121C121.395 165.58 122.06 165.038 122.651 164.437C125.008 162.039 127.086 156.721 127.042 153.358C127.034 152.759 126.961 152.087 126.662 151.557C126.504 151.278 126.292 151.035 126.081 150.796C125.188 149.787 124.247 148.816 123.41 147.758C122.942 147.167 122.63 146.498 122.082 145.967C123.776 145.756 126.244 145.3 127.691 144.373Z" fill="#A3551D"/>
<path d="M86.446 141.66C88.788 143.42 91.1031 144.704 93.7751 145.877C93.2896 149.165 92.8472 152.297 91.9189 155.495C91.4869 156.966 91.1409 158.446 90.8058 159.941C90.6016 162.197 90.5586 164.344 90.9859 166.576C91.0946 167.142 91.4472 168.197 91.0955 168.691C90.0935 168.823 89.609 167.7 88.477 168.095C88.2804 168.259 88.079 168.422 87.8625 168.561C87.1734 169.003 86.3226 169.439 85.4836 169.207C85.0875 169.098 84.776 168.799 84.5988 168.432C84.2112 167.63 84.4575 166.77 84.7004 165.97C83.6884 166.478 82.8353 166.751 81.7061 166.867C81.2698 166.911 80.9583 166.909 80.6114 166.624C80.6001 166.509 80.5476 166.39 80.5774 166.278C80.5816 166.263 83.03 163.824 83.2787 163.47C86.8539 158.379 86.7891 148.928 85.7956 143.042L85.936 142.651L86.2446 142.552L86.6724 142.79L86.446 141.66Z" fill="#CF7B31"/>
<path d="M86.4463 141.66C88.7883 143.42 91.1034 144.704 93.7754 145.877C93.29 149.165 92.8476 152.297 91.9193 155.495C91.8762 155.276 91.8403 155.056 91.7987 154.836C91.4645 153.077 92.3054 151.047 92.4694 149.252C90.1704 147.457 88.3847 145.13 86.6727 142.79L86.4463 141.66Z" fill="#A3551D"/>
<path d="M88.4768 168.094C88.2301 166.712 90.1547 161.427 90.8056 159.941C90.6014 162.197 90.5584 164.344 90.9857 166.575C91.0944 167.142 91.447 168.197 91.0953 168.69C90.0933 168.823 89.6088 167.7 88.4768 168.094Z" fill="#A3551D"/>
<path d="M99.3991 109.949C99.686 109.619 99.808 109.417 100.271 109.364C101.027 109.277 101.896 109.742 102.425 110.25C103.468 111.266 104.05 112.667 104.034 114.125C104.025 116.251 102.954 118.28 101.444 119.726C98.7738 122.284 94.4953 123.702 90.9002 124.175C88.8261 124.425 86.7814 124.428 84.7225 124.032L84.5996 123.786C84.9697 123.24 85.3682 122.682 85.6645 122.092C86.4926 120.443 86.3934 118.84 85.838 117.126C91.0193 115.679 95.9515 114.389 99.3991 109.949Z" fill="#F66945"/>
<path d="M99.3996 109.949C99.6865 109.619 99.8084 109.417 100.272 109.364C101.027 109.277 101.897 109.742 102.425 110.25C103.468 111.266 104.05 112.667 104.034 114.125C104.026 116.251 102.954 118.28 101.445 119.726C98.7743 122.284 94.4957 123.702 90.9006 124.175C90.6066 123.951 90.349 123.922 89.995 123.87L89.849 123.849L89.7705 123.72L90.2597 123.259C91.716 122.833 93.3939 122.411 94.725 121.684C95.8872 121.048 97.1819 119.759 98.4292 119.418C99.3741 119.044 99.7304 118.728 100.192 117.819C100.269 116.598 100.741 115.443 100.775 114.163C100.816 112.656 100.453 111.075 99.3996 109.949Z" fill="#9C3A11"/>
<path d="M98.4287 119.418C98.077 119.341 97.7169 119.263 97.3922 119.102C96.9266 118.87 96.4898 118.551 96.3471 118.021C96.2247 117.567 96.375 117.077 96.6264 116.695C96.9805 116.158 97.5803 115.742 98.2221 115.653C98.6353 115.595 99.054 115.709 99.3802 115.97C99.9237 116.401 100.105 117.168 100.191 117.819C99.7299 118.728 99.3736 119.043 98.4287 119.418Z" fill="#F3F3F5"/>
<path d="M84.5996 123.786C85.605 124.248 89.0332 123.454 90.2593 123.259L89.7701 123.72L89.8485 123.85L89.9946 123.87C90.3486 123.922 90.6062 123.951 90.9002 124.175C88.8261 124.425 86.7814 124.428 84.7225 124.032L84.5996 123.786Z" fill="#9C3A11"/>
<path d="M88.8808 118.268C89.0283 118.273 89.1734 118.281 89.3204 118.297C89.8673 118.358 90.5129 118.68 90.8306 119.134C91.056 119.457 91.1085 119.858 91.0319 120.239C90.8759 121.014 90.2605 121.383 89.6484 121.775C89.3568 121.794 89.0236 121.828 88.7371 121.762C88.3061 121.664 87.8651 121.36 87.6443 120.972C87.4274 120.592 87.4175 120.123 87.5247 119.706C87.7266 118.922 88.2234 118.627 88.8808 118.268Z" fill="#F3F3F5"/>
<path d="M93.3723 104.323C95.055 104.075 96.7008 103.728 98.357 103.346C98.3976 104.146 98.4491 104.946 98.5115 105.745C98.4931 107.048 98.5182 108.351 98.5862 109.651C97.0761 111.289 95.2696 112.624 93.2626 113.586C93.0443 113.666 92.8424 113.746 92.6122 113.786C90.3378 114.988 87.6138 115.654 85.0856 116.019C83.6978 114.991 82.7043 114.741 81.0107 114.712C82.2307 111.641 83.0574 108.426 83.471 105.147L83.6671 103.517C86.6851 104.121 89.9729 104.797 93.0542 104.264L93.3723 104.323Z" fill="#F2DAA7"/>
<path d="M93.3733 104.323C95.056 104.075 96.7018 103.728 98.358 103.346C98.3987 104.146 98.4502 104.946 98.5126 105.745C98.4941 107.048 98.5192 108.351 98.5873 109.651C97.0771 111.289 95.2706 112.624 93.2637 113.586C93.0453 113.666 92.8435 113.746 92.6133 113.786C92.8411 112.046 93.0321 110.191 92.9909 108.435C93.2088 107.104 93.0755 105.614 93.0552 104.264L93.3733 104.323Z" fill="#F66945"/>
<path d="M93.3733 104.323C95.056 104.075 96.7018 103.728 98.358 103.346C98.3987 104.146 98.4502 104.946 98.5126 105.745C98.2385 105.513 98.2422 105.527 97.8863 105.557C96.4026 105.681 94.9487 106.281 93.4424 106.43C93.3469 105.734 93.3715 105.024 93.3733 104.323Z" fill="#A5561F"/>
<path d="M93.0552 104.264L93.3733 104.323C93.3714 105.024 93.3469 105.734 93.4423 106.43C93.4385 107.102 93.0448 113.259 93.0746 113.329C93.1157 113.427 93.2008 113.5 93.2637 113.586C93.0453 113.666 92.8435 113.746 92.6133 113.786C92.8411 112.046 93.0321 110.191 92.9909 108.435C93.2088 107.104 93.0755 105.614 93.0552 104.264Z" fill="#491108"/>
<path d="M83.6668 103.517C86.6848 104.121 89.9726 104.797 93.0539 104.264C93.0743 105.614 93.2075 107.104 92.9896 108.436C92.9036 107.767 92.9273 107.064 92.9107 106.389C89.1275 106.433 87.1329 105.701 83.5704 105.161L83.4707 105.147L83.6668 103.517Z" fill="#D7B894"/>
<path d="M56.866 61.8612C56.6699 61.3277 56.5035 60.8761 56.5059 60.2995C56.8041 59.9053 57.2508 59.8574 57.7272 59.7906C62.3494 59.1453 66.8808 59.9967 70.6319 62.8699C71.9766 63.9 73.5416 65.4394 74.2061 67.0163C73.9816 67.9218 72.1921 70.5675 71.6817 71.5109C69.42 71.9155 66.8884 71.5573 64.8021 70.632C60.8988 68.9007 58.3942 65.7886 56.866 61.8612Z" fill="#F66945"/>
<path d="M56.866 61.8612C56.6699 61.3277 56.5035 60.8761 56.5059 60.2995C56.8041 59.9053 57.2508 59.8574 57.7272 59.7906C62.3494 59.1453 66.8808 59.9967 70.6319 62.8699C71.9766 63.9 73.5416 65.4394 74.2061 67.0163C72.7678 66.6325 71.727 65.1551 70.6054 64.2336C67.534 61.71 62.7417 60.7496 58.8668 61.1343C58.1819 61.2026 57.3241 61.2912 56.866 61.8612Z" fill="#E04532"/>
<path d="M77.3237 86.1583L77.3246 86.4516C76.8373 86.5687 76.2654 86.2408 75.8598 85.9911C74.2745 85.016 73.3302 83.7798 72.9095 81.9414C72.5493 80.3683 72.7043 78.6308 73.6052 77.2596C74.4452 75.9817 75.7445 75.0488 77.2462 74.7479C79.0815 74.3807 81.0634 74.6882 82.6218 75.75C84.0052 76.6929 84.9685 78.1253 85.2578 79.7822C85.5641 81.5372 85.1737 83.6211 84.1291 85.08C83.655 85.7423 82.8075 86.4374 81.9804 86.562C81.6065 86.6184 81.2156 86.5421 80.8483 86.4749L80.7581 86.0371C79.7305 86.3019 78.875 86.156 77.8498 85.9442C77.81 85.9361 77.4598 85.8523 77.4541 85.8556C77.4229 85.8745 77.4163 85.9181 77.3984 85.9499C77.3251 86.0783 77.3459 86.0233 77.3237 86.1583Z" fill="#F3F3F5"/>
<path d="M78.7652 77.1936C79.9582 77.3158 81.0553 77.6205 81.8484 78.5805C82.6869 79.5949 82.8986 80.6477 82.9445 81.9251C82.3707 83.1286 81.5667 84.2402 80.264 84.7078C79.5182 84.977 78.6967 84.9381 77.9792 84.6008C77.0263 84.1478 76.3386 83.1812 76.0195 82.1928C75.804 81.5252 75.7874 80.76 75.7383 80.0626L76.063 79.9095C75.8295 79.3106 75.699 78.9031 75.9841 78.2768C76.2043 77.7939 76.5588 77.4736 77.0608 77.3087C77.6894 77.1022 78.0198 77.2453 78.5785 77.522L78.7652 77.1936Z" fill="black"/>
<path d="M76.0638 79.9098C75.8303 79.3109 75.6999 78.9034 75.9849 78.277C76.2051 77.7942 76.5596 77.4739 77.0616 77.309C77.6902 77.1024 78.0206 77.2455 78.5793 77.5222C79.0113 78.1789 79.3914 78.7944 79.1867 79.6226C79.0855 80.0311 78.8393 80.367 78.4706 80.5721C78.0655 80.7972 77.5801 80.7953 77.1528 80.6399C76.7359 80.4883 76.3947 80.1964 76.0638 79.9098Z" fill="#F3F3F5"/>
<path d="M78.7664 77.1936C78.4284 77.0472 78.2195 77.0074 78.0044 76.6886C78.3372 76.3792 78.9871 76.3953 79.421 76.4085C80.632 76.4445 81.7351 76.8388 82.5708 77.7485C83.4448 78.6999 83.7945 80.1237 83.7279 81.3921C83.648 82.915 82.8974 84.1867 81.7744 85.1789C81.4407 85.4707 81.1018 85.7569 80.7582 86.0369C79.7306 86.3018 78.8751 86.1559 77.8499 85.9441C77.8102 85.936 77.4599 85.8521 77.4542 85.8555C77.423 85.8744 77.4164 85.918 77.3985 85.9498C77.3252 86.0782 77.346 86.0232 77.3238 86.1582C77.1971 86.1023 77.0988 86.0379 76.9854 85.9573C75.5456 84.9325 74.8489 83.5371 74.5625 81.8247C75.383 81.5561 74.8291 80.7468 75.2445 80.1498L75.7394 80.0626C75.7886 80.76 75.8051 81.5253 76.0207 82.1929C76.3397 83.1812 77.0274 84.1478 77.9803 84.6008C78.6978 84.9382 79.5193 84.977 80.2652 84.7079C81.5678 84.2402 82.3718 83.1287 82.9456 81.9252C82.8998 80.6478 82.688 79.5949 81.8495 78.5805C81.0564 77.6205 79.9593 77.3159 78.7664 77.1936Z" fill="#54361F"/>
<path d="M74.5619 81.825C74.4679 80.1022 74.6394 78.4619 75.8244 77.1006C76.6653 76.1426 77.8526 75.5598 79.1231 75.4816C80.3969 75.4162 81.6216 75.9369 82.5457 76.8016C83.6474 77.8327 84.3044 79.3588 84.3484 80.8641C84.3952 82.4614 83.6744 83.9619 82.5698 85.0877C82.0583 85.6089 81.4373 86.0477 80.8479 86.4751L80.7576 86.0372C81.1012 85.7572 81.4401 85.471 81.7738 85.1792C82.8968 84.187 83.6474 82.9153 83.7273 81.3924C83.794 80.124 83.4442 78.7002 82.5702 77.7488C81.7346 76.8391 80.6314 76.4449 79.4204 76.4088C78.9865 76.3956 78.3366 76.3795 78.0038 76.6889C78.2189 77.0077 78.4278 77.0475 78.7658 77.194L78.5791 77.5223C78.0204 77.2456 77.69 77.1025 77.0614 77.3091C76.5594 77.474 76.2049 77.7943 75.9846 78.2771C75.6996 78.9035 75.8301 79.311 76.0636 79.9099L75.7388 80.0629L75.244 80.1501C74.8285 80.7471 75.3825 81.5564 74.5619 81.825Z" fill="#120B08"/>
<path d="M120.051 141.409C121.379 141.025 125.027 140.21 126.002 139.491C126.526 140.123 127.928 142.488 127.889 143.282C127.887 143.33 127.88 143.377 127.876 143.424C127.104 143.939 126.05 144.193 125.164 144.482C119.529 146.325 112.405 147.582 106.526 146.905C106.85 145.79 107.113 144.675 107.352 143.539C107.386 143.141 107.371 142.548 107.569 142.2C107.748 141.888 108.453 142.046 108.779 142.08C112.791 142.508 116.084 142.385 120.051 141.409Z" fill="#BDBC65"/>
<path d="M107.353 143.539C107.387 143.141 107.371 142.548 107.569 142.2C107.748 141.887 108.454 142.045 108.779 142.08C112.791 142.508 116.084 142.385 120.051 141.409L120.382 141.62L120.364 141.768L120.522 142.014L120.922 142.04C118.013 143.42 111.037 144.909 107.941 143.811C107.736 143.739 107.543 143.643 107.353 143.539Z" fill="#F2DAA7"/>
<path d="M47.137 34.5161C47.4962 33.7851 47.8432 33.093 48.6722 32.8176C49.194 32.6442 49.7905 32.618 50.2849 32.8854C50.9282 33.2336 51.2624 33.9742 51.4198 34.6575C51.9085 36.7796 51.4945 40.0008 53.7103 41.3213C54.3399 41.6964 55.056 41.5716 55.7187 41.3676C56.2698 41.198 56.7609 40.8689 57.217 40.5241C57.6003 42.3988 58.2143 44.1721 59.1162 45.8612C59.6597 46.6171 60.13 47.4516 60.623 48.243C56.2159 47.1452 51.217 45.6648 48.5834 41.637C47.1673 39.4715 46.619 37.0489 47.137 34.5161Z" fill="#DABA99"/>
<path d="M60.623 48.2433C56.2159 47.1455 51.217 45.6651 48.5834 41.6373C47.1673 39.4718 46.619 37.0492 47.137 34.5164C47.2301 36.8746 49.6123 41.1272 51.2837 42.6768C53.2136 44.4655 56.3156 45.756 58.8675 46.3213C59.0604 46.1319 59.076 46.1267 59.1162 45.8615C59.6597 46.6174 60.13 47.4519 60.623 48.2433Z" fill="#B0957D"/>
<path d="M139.487 171.282C140.019 171.123 140.54 170.959 141.057 170.758C141.083 170.777 141.109 170.795 141.134 170.815C141.542 171.132 141.805 171.53 142.17 171.886C143.014 172.712 144.597 173.411 145.791 173.262C146.48 173.175 147.307 172.65 147.699 172.071C147.758 171.984 147.76 171.954 147.786 171.865C148.391 172.938 148.552 174.923 148.213 176.093C147.964 176.953 147.42 177.661 146.625 178.081C145.908 178.461 144.939 178.567 144.14 178.51C143.989 178.587 144.026 178.581 143.89 178.614C141.659 179.15 137.478 179.132 135.504 177.917C135.147 177.575 134.876 177.333 134.851 176.815C134.797 175.648 135.932 174.276 136.667 173.452C137.263 172.782 138.589 171.331 139.487 171.282Z" fill="#1D8334"/>
<path d="M139.487 171.282C140.019 171.123 140.54 170.959 141.057 170.758C141.083 170.777 141.109 170.795 141.134 170.815C141.542 171.132 141.805 171.53 142.17 171.886C143.014 172.712 144.597 173.411 145.791 173.262C146.48 173.175 147.307 172.65 147.699 172.071C147.758 171.984 147.76 171.954 147.786 171.865C148.391 172.938 148.552 174.923 148.213 176.093C147.964 176.953 147.42 177.661 146.625 178.081C145.907 178.461 144.939 178.567 144.14 178.51C144.351 178.442 144.489 178.373 144.65 178.218C145.316 177.574 146.572 176.395 146.577 175.423C146.557 175.295 146.563 175.289 146.504 175.153C146.383 174.876 146.063 174.648 145.811 174.504C144.655 173.845 143.106 173.558 141.854 173.044C141.256 172.799 140.763 172.406 140.15 172.182C140.089 171.818 139.735 171.539 139.487 171.282Z" fill="#115B28"/>
<path d="M135.504 177.917C135.147 177.575 134.876 177.333 134.851 176.815C134.797 175.648 135.932 174.276 136.667 173.452C137.263 172.782 138.589 171.332 139.487 171.282C139.735 171.539 140.09 171.819 140.15 172.182C140.3 172.998 139.621 174.327 139.157 174.997C138.239 176.322 136.941 177.236 135.504 177.917Z" fill="#68AB29"/>
<path d="M126.164 47.8421C127.27 46.7014 127.812 44.6961 128.375 43.2201C128.754 43.3308 129.111 43.565 129.481 43.7129C130.178 43.9916 131.104 43.7285 131.758 43.4314C134.551 42.1611 133.704 39.2338 134.606 36.8511C134.827 36.2678 135.171 35.6152 135.786 35.3785C136.31 35.177 136.907 35.3401 137.401 35.5562C137.809 35.7342 137.995 35.8729 138.157 36.2762C138.658 36.5785 138.908 36.9855 139.04 37.5465C139.437 39.2387 138.806 41.2303 137.904 42.6545C135.493 46.4581 129.409 49.2605 125.167 50.1356C124.703 50.2315 124.227 50.2876 123.756 50.3393C124.638 49.8352 125.816 48.8232 126.164 47.8421Z" fill="#DABA99"/>
<path d="M138.157 36.2761C138.658 36.5784 138.908 36.9854 139.04 37.5464C139.437 39.2387 138.806 41.2302 137.904 42.6544C135.493 46.458 129.409 49.2604 125.167 50.1355C124.703 50.2314 124.227 50.2876 123.756 50.3393C124.638 49.8351 125.816 48.8231 126.164 47.8421L126.341 48.1711C126.698 48.3625 126.822 48.3292 127.203 48.2568C130.513 47.6292 134.607 44.8515 136.498 42.0638C137.595 40.4464 138.536 38.2697 138.157 36.2761Z" fill="#B0957D"/>
<path d="M101.865 87.1401C100.319 86.8691 99.1539 86.609 98.1868 85.2316C97.3115 83.984 97.163 82.2897 97.423 80.8232C97.7477 78.99 98.8613 77.316 100.39 76.2684C101.927 75.2156 103.924 74.7901 105.752 75.1734C107.336 75.5051 108.837 76.5811 109.71 77.9438C110.609 79.3468 110.759 81.0577 110.374 82.6564C109.954 84.3986 109.119 85.6632 107.579 86.5739C107.004 86.9141 106.356 87.1709 105.681 87.1842L105.53 86.9861L105.568 86.8236C105.52 86.6838 105.454 86.5995 105.368 86.481C104.356 86.6218 103.404 86.6909 102.382 86.6635C101.932 86.4095 101.432 86.1617 101.031 85.8348C100.201 85.1586 99.3647 83.84 99.291 82.7493C99.2626 82.3285 99.3609 82.0286 99.6412 81.7197L99.9191 81.7869C100.107 82.3972 100.293 83.0151 100.535 83.6064C100.941 84.5981 101.579 85.5751 102.611 85.9906C103.312 86.273 104.04 86.174 104.719 85.8798C105.96 85.3401 106.669 84.5398 107.138 83.2908C107.52 82.2736 107.738 81.461 107.252 80.4314C106.826 79.5306 105.979 78.7924 105.039 78.4736C104.387 78.2518 103.495 78.1263 102.856 78.4371C102.624 78.2333 102.346 78.0883 102.046 78.0154C101.131 77.7927 100.19 78.2722 99.8298 79.145L99.5155 78.8839C98.7847 80.5086 98.3518 82.0883 99.0135 83.8334C99.5637 85.2828 100.652 86.2484 101.865 87.1401Z" fill="#F3F3F5"/>
<path d="M102.679 76.365C104.079 76.1115 105.382 76.2688 106.582 77.0961C107.145 77.4851 107.704 78.0239 107.985 78.6592C107.111 80.0977 109.946 82.5123 106.26 86.1446L106.245 86.3763C106.03 86.5459 105.828 86.7302 105.567 86.8236C105.519 86.6838 105.453 86.5994 105.367 86.481C104.354 86.6217 103.403 86.6909 102.381 86.6634C101.931 86.4094 101.431 86.1616 101.03 85.8347C100.2 85.1586 99.3636 83.8399 99.2898 82.7492C99.2615 82.3285 99.3598 82.0285 99.6401 81.7196L99.918 81.7869C100.106 82.3972 100.292 83.015 100.534 83.6064C100.94 84.5981 101.578 85.5751 102.61 85.9906C103.311 86.273 104.039 86.174 104.718 85.8797C105.959 85.34 106.668 84.5398 107.137 83.2908C107.518 82.2735 107.737 81.4609 107.25 80.4313C106.825 79.5306 105.978 78.7924 105.038 78.4735C104.386 78.2518 103.494 78.1262 102.855 78.437C102.623 78.2333 102.345 78.0883 102.045 78.0153C101.968 77.1146 102.329 77.3653 102.798 76.7754L102.703 76.3807L102.971 76.5925L102.679 76.365Z" fill="#54361F"/>
<path d="M107.986 78.6594C108.792 80.3178 109.089 82.0771 108.455 83.8534C108.126 84.7773 107.303 85.9287 106.377 86.3248C106.334 86.3433 106.29 86.3594 106.246 86.3765L106.261 86.1448C109.948 82.5125 107.112 80.0979 107.986 78.6594Z" fill="#33231E"/>
<path d="M99.5146 78.8838C100.357 77.6121 101.247 76.8857 102.68 76.365L102.971 76.5924L102.703 76.3806L102.798 76.7753C102.329 77.3652 101.969 77.1146 102.045 78.0153C101.13 77.7926 100.189 78.2721 99.829 79.1449L99.5146 78.8838Z" fill="#120B08"/>
<path d="M95.4654 170.169C96.0029 171.377 96.5072 172.447 97.8288 172.958C98.8006 173.333 100.024 173.183 100.957 172.761C101.294 172.609 101.622 172.435 101.949 172.261C102.031 173.716 102.436 175.857 101.408 177.038C100.718 177.83 99.6622 177.964 98.6829 178.128C95.733 178.693 91.928 178.936 89.2991 177.252C89.076 176.801 88.9801 176.441 89.1143 175.939C89.5865 174.177 91.8184 172.228 93.3711 171.348C94.021 170.847 94.6213 170.526 95.3719 170.208L95.4654 170.169Z" fill="#1D8334"/>
<path d="M95.4655 170.169C96.0029 171.377 96.5072 172.447 97.8288 172.958C98.8006 173.333 100.024 173.183 100.957 172.761C101.294 172.609 101.622 172.435 101.949 172.261C102.031 173.716 102.436 175.857 101.408 177.038C100.718 177.83 99.6622 177.964 98.6829 178.128C99.2373 177.775 99.7719 177.231 100.195 176.727C100.478 176.389 100.557 176.082 100.514 175.648C99.857 174.064 97.0919 173.844 95.6966 173.21C95.2173 172.992 94.781 172.63 94.3675 172.308C94.0895 171.952 93.7053 171.652 93.3711 171.348C94.021 170.847 94.6213 170.526 95.3719 170.208L95.4655 170.169Z" fill="#115B28"/>
<path d="M93.3711 171.348C93.7053 171.652 94.0895 171.952 94.3675 172.309C92.7004 173.987 91.2833 175.905 89.2991 177.252C89.076 176.801 88.9801 176.441 89.1143 175.939C89.5865 174.177 91.8184 172.228 93.3711 171.348Z" fill="#68AB29"/>
<path d="M81.5185 168.397C82.0905 168.108 82.5584 167.764 83.2187 167.743C83.5893 167.906 83.7353 167.951 83.8941 168.356C84.147 169.004 84.0147 169.616 84.7525 169.979C86.5481 170.861 89.0476 168.038 89.7429 169.779C90.1465 170.789 89.93 172.418 89.5013 173.394C89.1894 174.104 88.6264 174.795 87.8881 175.075C87.3843 175.265 86.8341 175.289 86.3024 175.329C83.8317 175.761 81.0383 175.699 78.6755 174.782C78.0204 174.527 77.3393 174.152 77.0557 173.493C77.1776 173.224 77.2821 173.003 77.4801 172.781C78.5025 170.965 79.9243 169.695 81.5185 168.397Z" fill="#1D8334"/>
<path d="M81.5176 168.397C82.0895 168.108 82.5574 167.764 83.2177 167.743C83.5883 167.906 83.7344 167.951 83.8932 168.356C84.146 169.004 84.0137 169.616 84.7515 169.979C86.5472 170.861 89.0466 168.038 89.7419 169.779C90.1456 170.789 89.9291 172.418 89.5004 173.394C89.1884 174.104 88.6255 174.795 87.8872 175.075C87.3833 175.265 86.8331 175.289 86.3014 175.329C87.0973 174.621 87.9415 173.795 88.4114 172.817C88.5962 172.433 88.5872 172.261 88.4463 171.885C87.5015 171.109 85.9994 171.527 84.934 171.004C83.6668 170.382 83.1842 169.1 81.7936 168.578L81.5176 168.397Z" fill="#115B28"/>
<path d="M81.5179 168.397L81.7939 168.577C81.2868 169.971 79.3938 172.254 77.9876 172.888C77.8633 172.944 77.7064 172.888 77.5811 172.84C77.5447 172.826 77.5135 172.801 77.4795 172.781C78.5019 170.965 79.9236 169.695 81.5179 168.397Z" fill="#68AB29"/>
<path d="M154.101 107.329L154.858 107.603C155.085 108.103 155.121 108.593 154.933 109.117C154.844 109.364 154.754 109.583 154.567 109.773C154.97 110.804 154.591 112.238 154.157 113.213C152.969 115.887 150.755 117.825 148.037 118.845C147.33 119.111 146.631 119.276 145.88 119.348C145.452 118.604 144.414 117.652 143.688 117.188C143.25 116.827 142.778 116.584 142.277 116.326C143.388 115.496 143.872 114.03 145.172 113.257C147.686 111.763 151.498 111.893 153.4 109.388C153.808 108.849 154.192 108.014 154.101 107.329Z" fill="#CF7B31"/>
<path d="M143.688 117.188C146.201 117.133 148.631 116.913 150.654 115.237C151.629 114.428 154.447 110.993 154.566 109.773C154.97 110.804 154.59 112.238 154.157 113.213C152.969 115.887 150.754 117.825 148.037 118.846C147.33 119.111 146.631 119.276 145.88 119.348C145.451 118.604 144.414 117.652 143.688 117.188Z" fill="#A3551D"/>
<path d="M79.1528 124.617C80.7859 124.751 82.1609 124.721 83.7613 124.343C83.6564 125.614 83.6658 126.893 83.7892 128.163C84.3947 128.672 84.5577 129.519 84.7501 130.256C85.236 132.228 86.5486 133.705 87.7822 135.255C86.3056 134.928 84.9387 134.517 83.5633 133.88C82.962 135.808 82.1613 136.67 80.3874 137.604L80.1955 137.704C80.9329 135.616 81.0269 134.092 80.3695 131.956C80.0386 131.252 79.7843 130.498 79.5036 129.773L79.1883 128.678C78.9435 127.795 78.3834 125.478 78.8243 124.695L79.1528 124.617Z" fill="#F66945"/>
<path d="M79.1528 124.617C80.7859 124.751 82.1609 124.721 83.7613 124.343C83.6564 125.614 83.6658 126.893 83.7892 128.163L83.5741 128.138C82.0796 128.402 80.7022 128.776 79.5036 129.773L79.1883 128.678C78.9435 127.795 78.3834 125.478 78.8243 124.695L79.1528 124.617Z" fill="#F66945"/>
<path d="M79.1523 124.617C80.7854 124.751 82.1604 124.721 83.7608 124.343C83.6559 125.614 83.6653 126.893 83.7887 128.163L83.5736 128.138L83.5538 126.004C82.1178 125.761 80.1591 125.717 79.1523 124.617Z" fill="#9C3A11"/>
<path d="M83.5735 128.138L83.7886 128.163C84.394 128.671 84.5571 129.519 84.7495 130.255C83.3854 130.371 81.585 130.495 80.6312 131.618C80.5385 131.728 80.453 131.839 80.3688 131.955C80.038 131.252 79.7837 130.498 79.5029 129.773C80.7016 128.776 82.0789 128.402 83.5735 128.138Z" fill="#F3F3F5"/>
<path d="M153.611 102.968C155.388 103.816 156.692 105.126 157.373 107.002C157.966 108.636 158.07 111.187 157.247 112.786C157.139 112.994 157 113.186 156.859 113.371C156.899 113.347 156.939 113.324 156.979 113.299C157.761 112.811 158.511 111.827 159.019 111.062C159.221 111.277 159.284 111.32 159.276 111.622C159.237 113.095 156.397 115.709 155.437 116.664L155.545 116.559L155.467 116.834C156.121 117.002 156.793 116.764 157.355 116.426C157.572 116.296 157.734 116.132 157.888 115.933C157.558 117.246 156.433 118.337 155.305 119.022C153.871 119.892 152.126 120.598 150.459 120.767C149.543 120.86 147.566 121.069 146.854 120.472C146.81 120.436 146.771 120.395 146.729 120.356L146.744 120.102L146.933 119.995C149.913 119.124 152.482 117.665 154.133 114.916C155.563 112.536 156.126 109.101 155.437 106.376L155.256 106.273C155.167 106.755 155.082 107.162 154.858 107.603L154.101 107.329C154.528 106.342 154.396 104.642 154.011 103.642C153.914 103.391 153.773 103.182 153.611 102.968Z" fill="#F2DAA7"/>
<path d="M80.776 115.763C81.8712 115.579 82.8562 115.476 83.802 116.171C84.5394 116.713 84.9232 117.531 85.0484 118.425C85.2252 119.682 84.969 121.102 84.1834 122.12C83.5302 122.964 82.5504 123.477 81.4959 123.593C80.4659 123.705 79.273 123.593 78.443 122.914C78.0568 122.6 77.7789 122.172 77.6479 121.69C77.6191 121.608 77.5917 121.526 77.5647 121.443C77.1989 120.302 77.3313 119.083 77.8866 118.02C78.5214 116.803 79.4961 116.156 80.776 115.763Z" fill="#CF7B31"/>
<path d="M77.6479 121.69C77.6191 121.608 77.5917 121.526 77.5647 121.444C77.1989 120.302 77.3313 119.083 77.8866 118.02C78.5214 116.803 79.4961 116.156 80.776 115.763C81.1055 115.78 81.7818 115.724 82.0428 115.893L82.2342 115.874C81.581 116.502 79.9545 116.619 79.0328 117.796C78.1669 118.902 78.5252 120.848 77.6479 121.69Z" fill="#D7B894"/>
<path d="M73.462 125.583C74.2575 124.511 75.026 123.395 75.8683 122.361L77.732 123.781C77.7169 125.223 77.845 126.844 77.5926 128.258C77.3681 128.937 77.1795 129.639 76.7054 130.191C75.8948 130.939 74.3132 133.769 73.5938 134.811C73.5754 134.01 73.5428 133.057 73.3206 132.287C72.6599 129.991 69.4013 129.822 67.5234 128.771C69.4103 128.613 70.5891 128.207 72.0681 127.001C72.5011 126.488 72.9676 126.037 73.462 125.583Z" fill="#F66945"/>
<path d="M73.4619 125.583C74.2574 124.511 75.0259 123.395 75.8682 122.361L77.7319 123.781C77.7168 125.223 77.8449 126.844 77.5925 128.258C76.6306 126.742 75.1021 126.078 73.4619 125.583Z" fill="#F66945"/>
<path d="M73.4622 125.583C75.1024 126.077 76.631 126.741 77.5928 128.258C77.3683 128.936 77.1797 129.638 76.7057 130.191C75.5453 128.708 73.725 127.795 72.0684 127C72.5013 126.487 72.9678 126.036 73.4622 125.583Z" fill="#F3F3F5"/>
<path d="M110.768 62.2541C112.126 60.9256 114.563 59.9424 116.346 59.3459C119.924 58.1487 124.82 57.9209 128.261 59.714C128.636 59.9097 129.146 60.2309 129.241 60.6716C129.345 61.1492 129.172 61.4889 128.916 61.8647C129.087 61.3477 128.995 60.9782 128.768 60.4949C128.641 60.5152 128.428 61.334 127.573 61.579L127.69 61.2127L127.708 60.8715C126.51 59.8661 123.378 59.9538 121.859 60.0921C116.217 60.6057 112.175 63.794 108.594 67.9267C108.207 67.4898 107.786 66.9018 107.27 66.6298C107.091 66.3526 107.002 66.2096 107.02 65.8755C107.671 64.4332 109.503 63.1558 110.768 62.2541Z" fill="#CF7B31"/>
<path d="M110.768 62.2539L110.801 62.5382C109.732 63.5597 108.891 63.7223 108.593 65.247C109.223 64.5609 111.155 62.6723 112.051 62.5808C112.089 62.577 112.126 62.5837 112.164 62.5856C111.52 63.1778 110.761 63.5711 110.089 64.1165C109.135 64.8902 108.513 66.2794 107.27 66.6296C107.091 66.3524 107.002 66.2093 107.02 65.8753C107.671 64.433 109.503 63.1556 110.768 62.2539Z" fill="#CF7B31"/>
<path d="M54.1172 59.3483C55.0219 57.9957 57.1167 57.6742 58.6141 57.3808C63.1587 56.4907 68.1657 57.7061 71.9588 60.3002C72.9221 60.9588 73.8801 61.7212 74.6841 62.5698C74.7059 62.5882 74.729 62.6058 74.7494 62.6261C75.2835 63.1639 76.2264 64.0476 76.2019 64.8469C76.1768 65.66 75.3785 66.1513 74.8108 66.6308C74.177 65.7344 73.5247 64.8545 72.8029 64.0263C69.3752 60.0922 64.8391 59.1303 59.8501 58.7797C58.5881 58.9389 57.275 59.2843 56.0215 59.3729C55.3811 59.2725 54.7038 59.5274 54.1172 59.3483Z" fill="#CF7B31"/>
<path d="M59.8496 58.7798C64.5876 58.3548 68.6695 58.8855 72.5378 61.8151C73.3394 62.422 73.7482 63.2104 74.6836 62.5698C74.7054 62.5883 74.7285 62.6059 74.7489 62.6262C75.283 63.164 76.2259 64.0477 76.2014 64.847C76.1763 65.6601 75.378 66.1514 74.8103 66.6309C74.1765 65.7345 73.5242 64.8546 72.8024 64.0264C69.3747 60.0923 64.8386 59.1304 59.8496 58.7798Z" fill="#A3551D"/>
<path d="M56.0215 59.3733C55.9847 59.4908 55.9568 59.5936 55.9421 59.7158C55.6609 62.0224 57.7165 65.4135 59.134 67.1581C61.2478 69.7593 64.6065 71.665 67.9312 72.1009C68.9985 72.2407 70.0951 72.1331 71.1732 72.2416L71.323 72.4293L71.1245 72.868C70.7478 73.1594 70.3768 73.2343 69.9131 73.2518C65.9323 73.3992 62.0508 72.1525 59.143 69.3755C56.5349 66.8842 54.2127 63.0122 54.1172 59.3486C54.7038 59.5277 55.3811 59.2728 56.0215 59.3733Z" fill="#A3551D"/>
<path d="M74.8797 114.932C75.9625 112.912 77.3659 111.365 79.619 110.681C80.242 110.492 80.9245 110.472 81.5721 110.433C81.0659 111.906 80.5511 113.362 79.9457 114.797C78.3448 115.819 77.441 116.697 76.559 118.413C76.2958 119.42 76.2712 120.425 76.2627 121.458C75.3878 120.362 74.8262 119.331 74.4051 117.992C74.1934 116.845 74.382 115.974 74.8797 114.932Z" fill="#F26743"/>
<path d="M74.8797 114.932C75.4251 114.997 75.8141 115.029 76.2438 115.404C76.5274 115.824 76.5519 116.232 76.464 116.721C76.4418 116.847 76.4097 116.97 76.3761 117.093C76.334 117.686 76.2797 117.872 76.559 118.412C76.2958 119.42 76.2712 120.425 76.2627 121.458C75.3878 120.362 74.8262 119.331 74.4051 117.992C74.1934 116.844 74.382 115.974 74.8797 114.932Z" fill="#F3F3F5"/>
<path d="M74.4053 117.992C74.6099 117.999 74.8141 118.005 75.0193 117.997C75.6578 117.971 75.9755 117.534 76.3763 117.093C76.3342 117.686 76.2799 117.872 76.5592 118.413C76.2959 119.42 76.2714 120.425 76.2628 121.458C75.3879 120.362 74.8264 119.331 74.4053 117.992Z" fill="#F26743"/>
<path d="M99.8292 79.1453C100.189 78.2725 101.13 77.793 102.046 78.0157C102.346 78.0887 102.624 78.2337 102.856 78.4374C103.589 79.0823 103.72 80.1763 103.161 80.977C102.602 81.7778 101.531 82.028 100.676 81.5579C99.8212 81.0884 99.4563 80.0484 99.8292 79.1453Z" fill="#F3F3F5"/>
<path d="M85.1221 140.291C85.5418 140.771 85.9889 141.215 86.446 141.66L86.6724 142.79L86.2446 142.552L85.936 142.65L85.7956 143.042C85.5229 142.15 85.3428 141.2 85.1221 140.291Z" fill="#A9673B"/>
</svg>
