<svg width="200" height="200" viewBox="0 0 200 200" fill="none" xmlns="http://www.w3.org/2000/svg">
<path d="M114.894 29.8422C114.868 29.6243 114.89 29.4622 114.958 29.2517C115.237 28.3895 115.792 27.7708 116.603 27.3863C117.466 26.9777 118.51 26.854 119.415 27.2073C119.856 27.3796 120.229 27.6242 120.417 28.0708C121.236 28.2449 121.844 29.0348 122.297 29.724C123.994 32.2998 124.683 36.5198 124.038 39.5282C123.992 39.7392 123.901 39.9361 123.804 40.1274C124.418 40.245 125.05 40.339 125.637 40.5564C126.181 40.406 126.771 40.3037 127.222 39.9517C128.317 38.97 128.568 37.4454 128.664 36.0313C128.689 35.6587 128.695 35.1983 128.519 34.8615C128.889 34.0867 129.086 33.2717 129.554 32.5319C130.352 31.9273 131.181 31.7306 132.179 31.8812C133.179 32.0321 134.212 32.5086 134.803 33.3566C135.083 33.7573 135.496 34.4382 135.373 34.9251C135.348 35.0255 135.328 35.0611 135.29 35.1484C135.647 35.5713 135.65 36.0158 135.613 36.541C135.428 39.1812 133.459 42.2816 131.515 43.9341C128.332 46.6399 124.04 47.884 120.205 49.3382C114.755 51.4042 106.962 55.1801 103.079 59.5545C102.373 60.3488 101.262 61.5891 101.131 62.6621C101.076 63.1177 101.175 63.256 101.429 63.5996C101.82 63.7712 101.886 63.8663 102.307 63.738C102.943 63.0638 103.502 62.2104 104.271 61.6938C104.981 60.4247 106.499 59.5468 107.672 58.7597C109.498 57.4669 111.742 56.5838 113.864 55.9123C116.582 55.0642 121.494 55.0289 124.072 56.3574C124.311 56.4801 124.491 56.5996 124.579 56.8686C125.199 56.9737 125.69 57.0889 126.076 57.6463C126.502 58.2623 126.505 58.8375 126.367 59.5382C126.293 59.9168 126.233 60.2412 125.934 60.5098C126.304 61.7087 125.21 64.1719 124.625 65.2897C122.829 68.7226 119.767 72.0984 115.991 73.2665C113.786 73.9484 111.366 74.0863 109.073 74.0066C110.424 76.9441 112.325 84.3731 112.429 87.5591C112.485 88.9406 112.272 90.3193 111.799 91.6182C110.153 96.1333 105.58 99.4086 101.373 101.336C99.8138 102.05 98.1398 102.707 96.5113 103.249C96.2645 104.863 96.4534 106.505 96.2243 108.098C97.9807 108.451 99.8028 108.792 100.862 110.414C101.898 112 101.72 114.303 101.732 116.129C102.536 116.114 103.348 116.071 104.145 116.194C107.637 117.004 112.762 116.379 116.286 115.755L116.332 116.021C117.168 116.198 118.33 116.024 119.071 116.283C119.72 116.308 120.343 116.133 120.972 115.989L125.927 114.861L127.201 114.558C130.938 113.795 135.899 114.666 139.109 116.736C139.202 116.796 139.272 116.856 139.344 116.94C139.524 116.885 139.58 116.836 139.696 116.689L139.565 116.656C139.745 116.364 139.829 116.189 139.85 115.843C140.9 115.233 141.678 114.172 142.794 113.564C145.014 112.354 147.471 113.13 149.766 112.489C150.279 112.346 150.756 112.08 151.026 111.607C151.901 110.828 152.246 109.696 152.304 108.546C152.359 107.443 152.138 106.132 151.366 105.292C151.328 105.251 151.288 105.212 151.25 105.172C151.919 105.283 152.747 105.326 153.376 105.561C155.13 106.653 156.295 108.524 156.768 110.521C156.994 111.48 157.057 112.503 157.157 113.482L157.279 113.632C157.569 113.294 157.628 113.024 157.695 112.588L157.802 112.504C157.99 112.729 158.078 112.869 158.1 113.168C158.353 116.565 155.973 117.836 156.056 118.675L156.427 118.908C156.545 119.454 156.195 120.011 155.909 120.459C154.761 122.253 152.843 123.119 150.829 123.535C150.047 123.696 149.313 123.812 148.511 123.788C147.585 124.158 145.929 123.639 144.968 123.446C145.989 124.653 145.839 127.386 145.713 128.911C145.517 131.28 144.72 133.838 143.513 135.885C141.642 139.057 136.03 143.549 139.334 147.546C141.09 149.669 143.909 149.602 143.659 152.994C143.404 156.458 142.111 159.593 142.841 163.162C143.194 164.88 145.921 168.783 145.809 169.431C145.246 169.907 144.307 170.326 143.617 170.587C144.369 171.516 144.557 173.233 144.427 174.391C144.355 175.024 144.145 175.791 143.614 176.198C143.569 176.233 143.521 176.264 143.474 176.297C139.804 178.156 136.228 178.229 132.222 178.255C131.993 178.916 131.612 179.672 130.957 179.996C129.338 180.793 127.383 181.038 125.595 180.973C123.549 181.147 120.365 180.459 118.596 179.39C117.666 178.828 117.455 178.464 117.191 177.422C118.052 174.702 119.313 173.63 121.602 172.038C121.979 171.848 122.248 171.801 122.424 171.395C122.147 170.833 121.001 170.258 120.433 169.993C121.555 169.161 122.915 168.429 123.934 167.492C126.389 165.236 129.855 159.601 130.299 156.353C130.376 155.789 130.35 155.215 129.987 154.746C128.647 153.007 126.905 151.588 125.455 149.947C124.352 148.701 123.596 147.295 122.656 145.942C119.925 146.495 117.237 147.464 114.495 147.898C112.81 148.165 107.232 148.137 106.258 148.608C105.33 149.056 103.6 151.326 102.984 152.225C102.39 153.092 102.153 154.069 102.37 155.106C102.866 157.486 104.828 159.883 106.832 161.184C108.129 162.026 109.712 162.183 111.003 163.022C110.8 163.491 109.596 165.091 109.592 165.277C111.297 166.628 111.934 166.303 113.048 168.618C112.972 172.379 111.368 175.042 108.739 177.593C108.517 177.808 108.225 178.049 107.927 178.144C106.284 179.141 105.334 179.265 103.443 179.05C103.15 178.778 102.864 178.497 102.586 178.208C100.868 176.391 100.839 174.005 100.903 171.667C100.964 171.222 101.032 170.904 100.839 170.478C100.134 170.071 99.2013 171.119 98.8649 169.888C98.585 168.861 98.6832 167.666 98.4925 166.606C97.927 163.465 95.9487 159.84 93.8084 157.506C93.2784 160.629 92.3678 164.174 92.9515 167.338C93.0824 168.046 94.7137 171.075 94.5728 171.397C94.5292 171.497 94.3629 171.654 94.2671 171.711C93.691 172.057 92.7656 172.032 92.1114 172.099C92.1579 173.694 92.4929 176.313 91.3087 177.575C89.9721 178.999 87.2941 179.272 85.4481 179.291C83.072 179.314 80.0461 179.14 78.2422 177.395C77.8368 177.003 77.5641 176.519 77.5962 175.937C77.6221 175.461 78.0304 174.576 78.3625 174.244C79.0191 172.444 80.8986 171.397 82.3733 170.288C82.1427 170.196 81.9161 170.089 81.6942 169.977C81.2911 169.774 80.982 169.564 80.845 169.11C80.5761 168.219 82.5357 166.736 83.0595 166.141C83.4228 165.728 83.7017 165.201 83.9524 164.715C86.7209 159.332 86.3337 153.756 84.5605 148.158C84.1934 147.112 83.7856 146.078 83.3945 145.041C82.9474 143.825 81.074 139.73 80.1084 139.198C79.7489 139 79.3028 139.28 78.846 139.058C78.6764 138.535 78.8302 137.929 78.8997 137.393C78.8968 136.357 78.802 135.431 78.4076 134.465C78.0989 133.082 77.0944 131.567 76.4767 130.269C75.8474 132.346 75.5796 134.737 74.5981 136.674C74.3628 137.138 74.1797 137.346 73.6918 137.502C72.902 137.149 72.3231 135.254 71.9737 134.409C70.6784 132.948 68.2639 134.181 66.5142 133.839C65.9722 133.734 65.492 133.497 65.1733 133.034C65.4685 132.131 67.686 131.457 68.6435 130.649C70.4656 128.77 71.3057 125.016 72.5666 122.665C71.9848 122.15 71.5745 121.763 71.1844 121.074C71.0296 120.845 70.8897 120.607 70.7641 120.36C69.9197 118.712 69.9576 116.84 70.5097 115.108C70.9137 113.499 72.164 112.17 73.4613 111.22C75.489 109.087 77.37 110.138 78.2734 109.571C79.2927 108.433 79.666 105.021 80.012 103.473C79.0574 103.278 78.1967 103.01 77.2904 102.653C75.1583 102.089 73.0856 100.77 71.3685 99.4177C69.3048 97.9511 67.4996 96.2529 66.0527 94.1559C64.7286 92.2356 63.8252 89.7272 64.2513 87.3789C64.7818 84.0344 66.3005 80.8297 66.5118 77.4256C66.7812 76.3631 67.0309 75.2958 67.2599 74.2238C64.3749 74.8211 61.2574 74.5404 58.578 73.2896C58.5402 73.2781 58.5023 73.267 58.4649 73.255C56.4037 72.5996 53.1521 69.7856 52.1241 67.8485C51.7335 67.3497 51.3669 66.8413 51.0089 66.319C50.336 65.7524 49.9919 64.7145 49.8496 63.8783C49.0996 62.1551 48.9927 60.8015 49.2381 58.9697C49.8477 58.6285 50.4865 58.3335 51.1134 58.0255C51.7963 58.0276 52.5036 57.9887 53.164 58.1843C54.4005 57.85 55.6844 57.6718 56.9472 57.4597C57.3818 57.2566 57.8922 57.3084 58.3533 57.3641C58.8584 57.4252 59.1493 57.3793 59.5494 57.0654C59.525 56.8646 59.5101 56.9299 59.5643 56.7579C59.5758 56.7212 59.5902 56.6856 59.6036 56.6494C62.9017 56.5782 67.9836 58.6842 70.3716 61.0004L70.468 61.0951C71.4581 62.1316 72.3581 63.2508 73.1584 64.4406C73.7805 64.1253 74.5238 63.8212 74.8875 63.1869C75.0117 62.7784 75.2354 62.405 75.4334 62.0288L75.9131 62.8207L76.8658 62.3296C77.6925 62.0081 78.5345 61.616 79.4226 61.5218L79.6972 61.8745L80.0624 61.8899C80.3494 61.6424 80.3394 61.6366 80.3863 61.257C80.7601 60.9428 81.3736 60.8572 81.8394 60.7294C83.2718 60.5223 84.6995 60.1946 86.1411 59.9903C88.4222 59.5487 91.5349 60.0201 93.7567 60.6304C94.3504 60.7481 94.9332 60.912 95.5179 61.0677C97.3117 56.5224 99.393 53.319 103.615 50.6543C104.631 50.013 105.703 49.8009 106.693 49.0522C106.988 48.7266 107.318 48.4129 107.577 48.0583C107.82 47.7248 107.922 47.2741 107.849 46.8679C107.675 45.8953 105.839 44.8472 105.082 44.2648C104.881 44.0603 104.657 43.8418 104.514 43.5921C104.172 43.0001 104.032 42.0406 104.239 41.3846C104.467 40.6624 104.997 40.1154 105.653 39.7625C106.665 39.2186 107.924 39.071 109.024 39.4101C110.126 39.7492 110.725 40.4281 111.237 41.4298C111.943 42.35 112.193 43.5268 112.936 44.4363C113.339 44.9289 113.872 45.3995 114.541 45.4282C115.084 45.4516 115.578 45.1425 115.974 44.799C117.273 43.6705 117.997 42.0087 118.123 40.3173C118.302 39.1422 118.202 38.148 117.941 36.9917C116.88 34.411 114.63 32.7722 114.894 29.8422Z" fill="black"/>
<path d="M59.6036 56.6495C62.9017 56.5783 67.9836 58.6843 70.3716 61.0005L70.468 61.0952C71.4581 62.1317 72.3581 63.2508 73.1584 64.4407C73.7805 64.1254 74.5238 63.8212 74.8875 63.1869C75.0117 62.7785 75.2354 62.4051 75.4334 62.0289L75.9131 62.8208L76.8658 62.3297C77.6925 62.0082 78.5345 61.6161 79.4226 61.5219L79.6972 61.8746L80.0624 61.89C80.3494 61.6425 80.3394 61.6367 80.3863 61.2571C80.7601 60.9428 81.3736 60.8573 81.8394 60.7295C83.2718 60.5224 84.6995 60.1946 86.1411 59.9904C88.4222 59.5488 91.5349 60.0202 93.7567 60.6305L93.2501 61.3652C94.5766 61.6612 95.9267 61.9226 97.2129 62.3681C101.432 64.0014 104.739 66.7097 106.561 70.8995C106.632 71.0658 106.69 71.2373 106.742 71.4113C106.662 72.0177 107.246 73.1023 106.922 73.4045L106.785 73.4252C107.466 74.8058 107.864 76.8077 107.971 78.3377L108.106 80.058C107.855 82.3069 107.344 84.4107 105.499 85.9167C105.236 86.1315 104.958 86.328 104.679 86.5198C104.993 86.9455 107.398 87.3141 108.054 87.5933C108.894 88.0214 109.824 88.4751 110.451 89.1992L109.988 89.9839L110.889 90.9205C109.058 95.6725 104.409 98.7085 99.9398 100.698C93.2007 103.699 85.4179 104.593 78.4119 101.961C78.0769 101.989 77.7553 101.946 77.5224 102.234C77.4261 102.353 77.3575 102.515 77.2904 102.653C75.1583 102.09 73.0856 100.77 71.3685 99.4178C69.3049 97.9512 67.4996 96.253 66.0527 94.1559C64.7286 92.2357 63.8252 89.7273 64.2513 87.379C64.7818 84.0344 66.3005 80.8298 66.5118 77.4257C66.7812 76.3632 67.0309 75.2959 67.2599 74.2239C64.3749 74.8212 61.2574 74.5405 58.578 73.2897C58.5402 73.2782 58.5023 73.2671 58.4649 73.2551C56.4037 72.5996 53.1521 69.7856 52.1241 67.8486C51.7335 67.3498 51.3669 66.8414 51.0089 66.3191C50.336 65.7525 49.9919 64.7146 49.8496 63.8784C49.0996 62.1552 48.9927 60.8016 49.2381 58.9698C49.8477 58.6286 50.4865 58.3335 51.1134 58.0256C51.7963 58.0277 52.5036 57.9888 53.164 58.1844C54.4005 57.8501 55.6844 57.6719 56.9472 57.4598C57.3818 57.2567 57.8922 57.3085 58.3533 57.3642C58.8584 57.4253 59.1493 57.3794 59.5494 57.0655C59.525 56.8646 59.5101 56.93 59.5643 56.758C59.5758 56.7213 59.5902 56.6856 59.6036 56.6495Z" fill="#CC7C27"/>
<path d="M81.9432 86.2901L81.9762 86.1171C83.2472 84.9153 85.7685 84.5875 87.4636 84.4722C89.6925 84.3208 91.9119 84.588 93.6424 86.1012C93.8859 86.3963 94.1389 86.7855 94.4212 87.0354C94.7207 86.9364 94.7648 86.9734 95.0562 87.0618C95.3121 86.835 95.5977 86.6394 95.8728 86.4361C95.9303 86.1382 96.0012 86.0541 96.2164 85.8408C96.7666 86.0522 97.2578 86.2425 97.8511 86.2857C97.9345 86.2151 98.0217 86.1791 98.0437 86.0695L98.4985 85.5438C99.7455 86.0589 101.496 85.7937 102.563 86.465C103.331 86.3434 103.999 86.1416 104.721 85.8566L104.679 86.5198C104.993 86.9455 107.398 87.3141 108.055 87.5933C108.895 88.0214 109.824 88.4751 110.451 89.1992L109.988 89.9839L110.889 90.9205C109.059 95.6725 104.409 98.7085 99.9401 100.698C93.201 103.699 85.4181 104.593 78.4121 101.961C78.0771 101.989 77.7556 101.946 77.5227 102.234C77.4263 102.353 77.3578 102.515 77.2907 102.653C75.1586 102.09 73.0859 100.77 71.3687 99.4178C71.2039 98.6042 70.6911 98.1218 70.3561 97.3899C69.7408 96.3356 67.8952 94.9277 67.0307 93.7456C66.5907 93.1439 65.8714 92.1425 65.9907 91.3621C66.6319 90.9147 67.1644 90.34 67.8296 89.908C70.3873 88.2478 73.7841 87.6293 76.7856 87.5313C77.665 87.5024 78.8262 87.8259 79.6193 87.7139C79.9515 87.6673 79.9941 87.4679 80.1575 87.2098C80.7944 87.1094 81.463 86.7149 81.9432 86.2901Z" fill="#ECD4A5"/>
<path d="M81.9426 86.2901L81.9757 86.1171C83.2466 84.9153 85.7679 84.5875 87.463 84.4722C89.6919 84.3208 91.9113 84.588 93.6418 86.1012C93.8853 86.3963 94.1383 86.7855 94.4206 87.0354C94.7839 88.2247 94.7465 89.3463 94.1527 90.4625C93.0198 92.5913 90.8541 93.4774 88.6994 94.1924L89.7188 95.5961C91.5955 95.9426 93.7679 95.9152 95.3992 94.7797C96.477 94.0295 96.7698 92.4856 97.366 92.0848C97.6502 92.377 97.724 92.5529 97.7652 92.958C97.5783 93.871 96.5786 94.6278 95.8411 95.1088C94.8371 95.7633 93.8422 96.079 92.6872 96.3525C91.8859 97.6206 90.9303 98.4115 89.4465 98.7647C88.0165 99.105 86.4269 98.9027 85.1775 98.1069C84.5837 97.7287 84.1759 97.2746 83.816 96.6672C82.165 96.2789 79.7137 95.8114 78.7384 94.2588C78.3555 93.6494 78.1681 92.9113 78.1719 92.1963L78.3085 92.1391C79.2445 93.9435 80.109 95.0901 82.1285 95.734C83.7551 96.2525 85.5019 96.1694 87.0326 95.3741C87.2095 95.2823 87.3566 95.1602 87.4917 95.0151C87.543 94.7907 87.6139 94.7278 87.4889 94.5163C86.9689 93.6398 84.1538 93.0233 83.1479 91.9647C82.718 91.512 82.3715 90.9786 82.0864 90.4241C81.2976 88.8898 82.0399 87.7985 82.4741 86.3708C82.4827 86.342 82.4909 86.3136 82.499 86.2848L81.9426 86.2901Z" fill="black"/>
<path d="M83.8841 86.5243C85.79 85.7809 87.313 85.509 89.3594 85.8237L91.3943 85.6262C92.0954 86.0606 92.7917 86.4326 93.0069 87.299C93.1952 88.0572 92.9633 88.7838 92.5377 89.4133C91.5701 90.8453 89.5343 92.0154 87.8498 92.2989C86.3272 92.555 84.4759 91.2994 83.1489 91.9645C82.7191 91.5118 82.3726 90.9784 82.0874 90.4239C81.2986 88.8895 82.0409 87.7982 82.4751 86.3706C82.4837 86.3417 82.4919 86.3134 82.5 86.2846C82.9606 86.3701 83.4216 86.4503 83.8841 86.5243Z" fill="black"/>
<path d="M83.8828 86.5246C85.7888 85.7813 87.3118 85.5093 89.3581 85.824C88.8961 86.7231 88.4179 87.1123 87.456 87.4266C86.5709 87.7159 85.4077 87.7606 84.5734 87.2829C84.2719 87.1104 84.062 86.8154 83.8828 86.5246Z" fill="#DBE4F3"/>
<path d="M91.516 96.5208C91.6664 96.5563 91.6861 96.6231 91.7858 96.736C91.5471 97.2949 90.9816 97.6274 90.4425 97.8538C88.9381 98.4847 87.2747 98.4285 85.7929 97.8014C85.4881 97.6563 85.2628 97.4958 85.0117 97.2699L85.0156 96.9888C86.0871 96.3204 90.1223 96.5515 91.516 96.5208Z" fill="#F9F5F4"/>
<path d="M88.2078 96.1545C88.8728 96.1545 89.4986 95.9057 89.5377 95.822C89.444 95.4078 89.0845 95.3249 88.8728 95.1571C88.2821 94.6894 88.1247 94.6923 87.5429 95.1571C87.2023 95.4632 86.8779 95.4896 86.8779 95.8221C86.8779 96.1545 87.2104 96.113 88.2078 96.1545Z" fill="white"/>
<path d="M98.4981 85.5437C99.745 86.0588 101.496 85.7936 102.563 86.4649C103.33 86.3433 103.998 86.1415 104.721 85.8565L104.678 86.5197C104.993 86.9454 107.398 87.314 108.054 87.5932C107.941 87.9613 107.78 88.1448 107.504 88.4077C104.74 87.4135 101.925 87.1593 99.0056 87.1703C97.7025 87.1756 96.3443 87.2808 95.0557 87.0617C95.3116 86.8349 95.5972 86.6393 95.8723 86.4361C95.9298 86.1381 96.0007 86.054 96.2159 85.8407C96.7661 86.0521 97.2573 86.2424 97.8506 86.2856C97.934 86.215 98.0212 86.179 98.0433 86.0694L98.4981 85.5437Z" fill="url(#paint0_linear_3039_10752)"/>
<path d="M70.3564 97.3899C72.8715 99.1664 75.4786 100.955 78.4125 101.961C78.0775 101.989 77.7559 101.946 77.523 102.234C77.4267 102.353 77.3581 102.515 77.2911 102.653C75.1589 102.09 73.0862 100.77 71.3691 99.4177C71.2042 98.6042 70.6914 98.1217 70.3564 97.3899Z" fill="#1C1714"/>
<path d="M108.055 87.5933C108.895 88.0214 109.824 88.475 110.451 89.1992L109.988 89.9839C109.205 89.3511 108.399 88.8633 107.505 88.4078C107.781 88.1449 107.942 87.9614 108.055 87.5933Z" fill="#1D0B04"/>
<path d="M59.6036 56.6495C62.9017 56.5783 67.9836 58.6843 70.3716 61.0005L70.468 61.0952C70.5902 61.6156 70.7493 62.1456 70.767 62.6819C71.2429 63.2859 72.3725 64.4358 72.3619 65.2186C71.8913 65.5949 71.4269 65.9654 71.0004 66.3926C70.7196 66.592 70.3841 66.6526 70.1728 66.9164C70.0803 67.8669 68.5582 70.7467 67.8187 71.3551C67.4751 71.6376 67.0419 71.6184 66.6149 71.6789C67.0879 71.888 67.6505 71.9605 67.8643 72.4391L67.7603 72.8356C67.5988 73.023 67.4291 73.1969 67.1952 73.2907C65.1541 74.1076 61.2742 73.2176 59.2609 72.4608L58.578 73.2897C58.5402 73.2782 58.5023 73.2671 58.4649 73.2551C56.4037 72.5996 53.1521 69.7856 52.1241 67.8486C51.7335 67.3498 51.3669 66.8414 51.0089 66.3191C50.336 65.7525 49.9919 64.7146 49.8496 63.8784C49.0996 62.1552 48.9927 60.8016 49.2381 58.9698C49.8477 58.6286 50.4865 58.3335 51.1134 58.0256C51.7963 58.0277 52.5036 57.9888 53.164 58.1844C54.4005 57.8501 55.6844 57.6719 56.9472 57.4598C57.3818 57.2567 57.8922 57.3085 58.3533 57.3642C58.8584 57.4253 59.1493 57.3794 59.5494 57.0655C59.525 56.8646 59.5101 56.93 59.5643 56.758C59.5758 56.7213 59.5902 56.6856 59.6036 56.6495Z" fill="black"/>
<path d="M52.5859 62.0852C56.9015 60.8338 61.2123 61.7257 65.12 63.7651C66.2055 64.3317 67.5382 65.2591 68.7387 65.4643C69.1959 65.9607 69.6435 66.4969 70.1726 66.9165C70.0801 67.8669 68.5581 70.7468 67.8186 71.3551C67.475 71.6377 67.0417 71.6185 66.6147 71.679C64.4572 71.668 62.5378 71.5243 60.5068 70.7127C60.3506 70.6435 60.1948 70.5728 60.0396 70.5008C56.4247 68.8189 53.9398 65.8016 52.5859 62.0852Z" fill="#F47844"/>
<path d="M59.6022 56.6495C62.9004 56.5783 67.9822 58.6843 70.3703 61.0005L70.4666 61.0952C70.5888 61.6156 70.7479 62.1456 70.7657 62.6819C71.2415 63.2859 72.3711 64.4358 72.3606 65.2186C71.89 65.5949 71.4256 65.9654 70.9991 66.3926C70.2629 66.0673 69.4104 64.5281 68.8123 63.8847C65.7078 60.5459 60.1385 59.1274 55.763 58.9256C54.4207 59.1375 53.1378 59.4027 51.8218 59.7391C51.6473 59.8102 51.4719 59.8789 51.2956 59.9457C50.7243 60.16 50.4372 60.2153 49.8799 59.9577C50.7238 58.9212 51.9488 58.6098 53.1627 58.1844C54.3991 57.8501 55.683 57.6719 56.9458 57.4598C57.3805 57.2567 57.8909 57.3085 58.3519 57.3642C58.857 57.4253 59.1479 57.3794 59.5481 57.0655C59.5236 56.8646 59.5088 56.93 59.5629 56.758C59.5744 56.7213 59.5888 56.6856 59.6022 56.6495Z" fill="#D19C6B"/>
<path d="M55.7646 58.9259C59.6062 58.1001 64.1274 59.1152 67.4303 61.2766C69.1891 62.4275 70.3772 64.5058 72.3622 65.2189C71.8916 65.5952 71.4272 65.9657 71.0007 66.3929C70.2645 66.0676 69.412 64.5284 68.8139 63.885C65.7094 60.5462 60.1401 59.1277 55.7646 58.9259Z" fill="#CE9258"/>
<path d="M59.6037 56.6495C62.9018 56.5783 67.9837 58.6843 70.3718 61.0005L70.4681 61.0952C70.5903 61.6156 70.7494 62.1456 70.7671 62.6819C66.4472 58.3893 62.7619 57.9694 56.9473 57.4598C57.3819 57.2567 57.8923 57.3085 58.3534 57.3642C58.8585 57.4253 59.1494 57.3794 59.5495 57.0655C59.5251 56.8646 59.5102 56.93 59.5644 56.758C59.5759 56.7213 59.5903 56.6856 59.6037 56.6495Z" fill="black"/>
<path d="M49.2381 58.9699C49.8477 58.6288 50.4865 58.3337 51.1134 58.0258C51.7963 58.0279 52.5036 57.9889 53.164 58.1846C51.9501 58.61 50.7252 58.9214 49.8812 59.9579C50.4386 60.2155 50.7257 60.1602 51.2969 59.9459C51.4733 59.8791 51.6487 59.8104 51.8231 59.7393C51.3242 60.4457 51.2825 60.8138 51.433 61.6633C51.9933 64.8233 55.0211 68.3135 57.6181 70.0751C58.302 70.5388 59.0735 70.9521 59.8461 71.2452L60.507 70.7128C62.538 71.5244 64.4573 71.6681 66.6149 71.6791C67.0879 71.8882 67.6505 71.9607 67.8643 72.4393L67.7603 72.8358C67.5988 73.0232 67.4291 73.1971 67.1952 73.2908C65.1541 74.1077 61.2742 73.2178 59.2609 72.4609L58.578 73.2899C58.5402 73.2783 58.5023 73.2673 58.4649 73.2553C56.4037 72.5998 53.1521 69.7858 52.1241 67.8488C51.7335 67.35 51.3669 66.8416 51.0089 66.3192C50.336 65.7527 49.9919 64.7147 49.8496 63.8786C49.0996 62.1554 48.9927 60.8017 49.2381 58.9699Z" fill="#A0643E"/>
<path d="M49.2381 58.9699C49.8477 58.6288 50.4865 58.3337 51.1134 58.0258C51.7963 58.0279 52.5036 57.9889 53.164 58.1846C51.9501 58.61 50.7252 58.9214 49.8812 59.9579C50.0058 61.9646 50.9015 63.9243 51.8624 65.6619C52.2434 66.2159 52.6651 66.7661 53.0021 67.3471C52.3465 66.9891 51.6746 66.6585 51.0089 66.3192C50.336 65.7527 49.9919 64.7147 49.8496 63.8786C49.0996 62.1554 48.9927 60.8017 49.2381 58.9699Z" fill="black"/>
<path d="M49.8496 63.8787L49.9507 63.9709C50.6413 64.6071 50.9106 65.1905 51.7963 65.6259C51.8188 65.6369 51.8404 65.6499 51.8624 65.6619C52.2434 66.216 52.6651 66.7662 53.0021 67.3472C52.3465 66.9892 51.6746 66.6586 51.0089 66.3193C50.336 65.7527 49.9919 64.7148 49.8496 63.8787Z" fill="black"/>
<path d="M51.0088 66.3191C51.6745 66.6583 52.3463 66.989 53.0019 67.347C53.623 67.9688 54.8374 69.1432 55.2208 69.9231C56.5004 70.937 57.7829 71.7674 59.2608 72.4608L58.5779 73.2897C58.5401 73.2782 58.5022 73.2671 58.4648 73.2551C56.4036 72.5997 53.152 69.7857 52.124 67.8486C51.7334 67.3498 51.3668 66.8414 51.0088 66.3191Z" fill="black"/>
<path d="M51.0088 66.3191C51.6745 66.6583 52.3463 66.989 53.0019 67.347C53.623 67.9688 54.8374 69.1432 55.2208 69.9231C54.7047 69.9716 53.0226 68.1667 52.124 67.8486C51.7334 67.3498 51.3668 66.8414 51.0088 66.3191Z" fill="black"/>
<path d="M60.5066 70.7126C62.5376 71.5243 64.457 71.6679 66.6145 71.679C67.0875 71.888 67.6501 71.9606 67.8639 72.4392L67.7599 72.8356C67.4177 72.198 66.9902 72.3839 66.3672 72.4181C64.0146 72.5464 62.0373 72.0678 59.8457 71.2451L60.5066 70.7126Z" fill="#1D0B04"/>
<path d="M52.5857 62.0849C52.4712 61.6298 52.3638 61.4338 52.5378 60.9835C54.1749 59.8067 57.6091 60.1195 59.5452 60.4439C62.9004 61.0061 66.6696 62.6616 68.7385 65.464C67.538 65.2588 66.2052 64.3314 65.1198 63.7649C61.212 61.7255 56.9013 60.8336 52.5857 62.0849Z" fill="#D35835"/>
<path d="M72.4733 87.0268C70.4457 85.8629 69.2087 84.1263 68.5958 81.8629C67.9225 79.3762 68.1784 76.4353 69.4982 74.1955C70.4289 72.616 71.9054 71.4012 73.7026 70.974C75.3507 70.5824 76.9983 70.9894 78.4082 71.8928C80.5059 73.2369 81.8017 75.4339 82.3174 77.8433C82.8038 80.1128 82.7157 82.6207 81.5521 84.6678C81.0858 85.4881 80.4776 86.3266 80.156 87.2098C79.9926 87.4679 79.95 87.6673 79.6178 87.7139C78.8247 87.8259 77.6635 87.5025 76.7841 87.5313C73.7826 87.6293 70.3858 88.2478 67.8281 89.908C67.1629 90.34 66.6304 90.9148 65.9892 91.3621C65.8699 92.1425 66.5892 93.144 67.0291 93.7456C67.8937 94.9277 69.7393 96.3357 70.3546 97.39C70.6896 98.1218 71.2024 98.6043 71.3672 99.4178C69.3036 97.9512 67.4983 96.253 66.0515 94.156C64.7274 92.2358 63.824 89.7274 64.25 87.379C64.7806 84.0345 66.2993 80.8298 66.5106 77.4257C66.7919 77.135 67.1001 76.9514 67.4447 76.7491C66.9582 80.3171 64.9823 85.6149 65.0346 88.7072C65.047 89.4362 65.2502 90.1003 65.4822 90.7855C67.4792 88.6082 69.654 87.6529 72.4733 87.0268Z" fill="#0F0C0C"/>
<path d="M64.25 87.3789L64.2783 87.5159C64.4312 88.2765 64.354 89.0795 64.5357 89.8224C64.7686 90.7729 65.2435 91.6504 65.4232 92.6201C65.5862 93.499 66.6549 94.5624 67.3881 95.0165C67.5434 95.1126 67.4772 95.0876 67.6397 95.1107C67.1892 94.1722 65.3029 92.5365 65.6777 91.3544C65.6892 91.3179 65.7055 91.2828 65.7199 91.2472C65.7994 91.2765 65.9259 91.3054 65.9892 91.3621C65.8699 92.1424 66.5892 93.1439 67.0291 93.7455C67.8937 94.9276 69.7393 96.3356 70.3546 97.3899C70.6896 98.1217 71.2024 98.6042 71.3672 99.4177C69.3036 97.9511 67.4983 96.2529 66.0515 94.1559C64.7274 92.2357 63.824 89.7273 64.25 87.3789Z" fill="black"/>
<path d="M74.7086 87.0625C72.6263 86.4815 71.2216 85.8948 70.1189 83.9073C68.9471 81.7944 68.6102 79.0597 69.2879 76.7339C69.8112 74.9377 70.9528 73.3433 72.6114 72.4447C73.9102 71.7412 75.3709 71.6258 76.7774 72.0573C78.6014 72.6172 79.9912 73.9612 80.8515 75.6417C82.0496 77.9814 82.3711 80.954 81.5272 83.4561C81.1884 84.459 80.6698 85.3465 79.9117 86.0841C79.1602 86.7252 78.6187 86.7574 77.6607 86.7252C77.3918 86.3778 77.33 86.36 76.9102 86.2197C76.0437 86.3215 75.0905 86.348 74.3141 85.8799C74.1953 85.8083 74.2197 85.7776 74.1881 85.6507L75.0718 85.8934L75.2362 85.7127C74.8792 85.5724 74.4891 85.471 74.2336 85.1716C73.9523 84.9145 73.6705 84.6474 73.4141 84.3653C72.7921 83.6805 72.2889 82.4316 72.3608 81.497C72.3953 81.0414 72.4887 80.8458 72.8319 80.5633C72.8036 80.5263 72.7744 80.4902 72.747 80.4528C72.3962 79.9679 72.264 79.4076 72.3689 78.8189C72.4547 78.3389 72.633 77.88 73.0643 77.6094C73.5181 77.325 74.1205 77.3149 74.6252 77.4297L74.9832 77.1193L74.6501 77.0674L74.6635 76.9069C75.3805 76.496 76.3332 76.5354 77.1124 76.7502C77.608 76.8867 78.0757 77.1087 78.5113 77.3793C78.9067 77.6243 79.0797 77.6868 79.559 77.5816C79.6471 77.5623 79.7334 77.5345 79.8197 77.509C78.8588 76.3716 77.5989 75.4653 76.072 75.3509C74.8638 75.2601 73.7539 75.7488 72.8606 76.5422C71.6788 77.6008 70.9724 79.0924 70.901 80.6801C70.8152 82.2355 71.3012 84.0337 72.3866 85.1875C73.0485 85.8905 73.9327 86.4931 74.7086 87.0625Z" fill="black"/>
<path d="M74.7086 87.0625C72.6263 86.4815 71.2216 85.8948 70.1189 83.9073C68.9471 81.7944 68.6102 79.0597 69.2879 76.7339C69.8112 74.9377 70.9528 73.3433 72.6114 72.4447C73.9102 71.7412 75.3709 71.6258 76.7774 72.0573C78.6014 72.6172 79.9912 73.9612 80.8515 75.6417C82.0496 77.9814 82.3711 80.954 81.5272 83.4561C81.1884 84.459 80.6698 85.3465 79.9117 86.0841C79.7531 85.6992 79.7324 85.2994 79.6893 84.8891C80.1652 84.2841 80.4791 83.5854 80.6857 82.8463C81.2167 80.9501 80.782 79.1769 79.8197 77.509C78.8588 76.3716 77.5989 75.4653 76.072 75.3509C74.8638 75.2601 73.7539 75.7488 72.8606 76.5422C71.6788 77.6008 70.9724 79.0924 70.901 80.6801C70.8152 82.2355 71.3012 84.0337 72.3866 85.1875C73.0485 85.8905 73.9327 86.4931 74.7086 87.0625Z" fill="url(#paint1_linear_3039_10752)"/>
<path d="M78.5113 77.3789C78.9067 77.624 79.0797 77.6865 79.5589 77.5812C79.6471 77.562 79.7334 77.5341 79.8196 77.5087C80.7819 79.1766 81.2166 80.9498 80.6856 82.8459C80.4791 83.585 80.1651 84.2837 79.6893 84.8887C79.7324 85.2991 79.753 85.6989 79.9116 86.0838C79.1602 86.7248 78.6186 86.757 77.6606 86.7248C77.3918 86.3774 77.33 86.3596 76.9102 86.2193C77.3031 86.0684 77.6712 85.8344 77.9463 85.5153C78.0455 85.4005 77.9846 85.2534 77.9721 85.1083L77.5063 84.8882C77.7627 84.6484 78.011 84.4 78.2496 84.1424C79.0063 83.3284 79.5474 82.265 79.4918 81.1261C79.4209 79.6807 78.5122 78.6643 77.5034 77.7326L78.4145 78.1603L78.5396 78.0521L78.5113 77.3789Z" fill="#3A3433"/>
<path d="M77.6602 86.725C78.3632 86.1364 79.0289 85.5251 79.6888 84.8889C79.7319 85.2993 79.7525 85.6991 79.9112 86.084C79.1597 86.725 78.6182 86.7572 77.6602 86.725Z" fill="#FAF7F7"/>
<path d="M72.8329 80.563C72.8047 80.526 72.7754 80.49 72.7481 80.4525C72.3973 79.9676 72.265 79.4073 72.37 78.8187C72.4558 78.3386 72.634 77.8797 73.0654 77.6092C73.5192 77.3247 74.1216 77.3146 74.6263 77.4295C75.1985 78.1373 75.7045 78.748 75.5756 79.7173C75.5277 80.0796 75.4208 80.4371 75.1295 80.6783C74.8251 80.9306 74.3972 81.0152 74.0119 80.97C73.6222 80.9244 73.1833 80.7312 72.8329 80.563Z" fill="#FAF7F7"/>
<path d="M77.5067 84.8887L77.9726 85.1088C77.985 85.2539 78.0459 85.4009 77.9467 85.5158C77.6716 85.8348 77.3036 86.0689 76.9106 86.2198C76.0441 86.3216 75.0909 86.3481 74.3145 85.88C74.1957 85.8084 74.2201 85.7777 74.1885 85.6508L75.0722 85.8935L75.2366 85.7128C74.8795 85.5725 74.4894 85.4711 74.234 85.1717C75.5064 85.4595 76.3441 85.5384 77.5067 84.8887Z" fill="#615447"/>
<path d="M74.9825 77.1192L74.6494 77.0673L74.6628 76.9068C75.3798 76.496 76.3325 76.5354 77.1118 76.7502C77.6073 76.8867 78.075 77.1087 78.5106 77.3792L78.5389 78.0524L78.4138 78.1605L77.5028 77.7329C76.6579 77.3038 75.9304 77.1327 74.9825 77.1192Z" fill="#615447"/>
<path d="M93.9583 80.5062C93.9554 80.1525 93.9722 79.7993 94.0077 79.448C94.2593 76.9935 95.4282 74.5307 97.3676 72.9743C99.0349 71.6355 100.757 71.4462 102.807 71.6571C103.683 72.0579 104.444 72.5072 105.204 73.0992C105.373 72.809 105.18 72.6787 105.255 72.3486L105.627 72.1588C106.068 72.5548 106.428 72.9526 106.785 73.4255C107.466 74.8061 107.863 76.808 107.971 78.338L108.106 80.0583C107.855 82.3072 107.344 84.411 105.499 85.917C105.236 86.1318 104.958 86.3283 104.678 86.5201L104.721 85.8569C103.998 86.1419 103.33 86.3437 102.563 86.4653C101.496 85.794 99.7452 86.0592 98.4982 85.5441L98.0434 86.0698C98.0213 86.1794 97.9341 86.2154 97.8507 86.286C97.2574 86.2428 96.7662 86.0525 96.216 85.8411C96.0665 85.5196 95.6381 85.1765 95.4167 84.8718C94.4366 83.5196 94.0939 82.1443 93.9583 80.5062Z" fill="#FAF7F7"/>
<path d="M99.1911 77.1264C99.7993 77.0697 100.321 76.9904 100.893 76.7722C101.701 77.1658 102.474 77.5401 103.176 78.1153C103.975 79.2633 104.328 80.543 104.088 81.9418C103.905 83.0081 103.328 84.0792 102.425 84.6991C101.597 85.2681 100.525 85.3993 99.5563 85.1878C99.3047 85.133 99.0598 85.0465 98.8183 84.9591C98.7469 84.8543 98.79 84.9033 98.6678 84.8044C97.8608 84.1499 96.8793 83.2344 96.724 82.1508C96.6406 81.5689 96.5012 80.8342 96.8668 80.3291C96.562 79.8241 96.3866 79.4022 96.4858 78.7996C96.573 78.2676 96.8452 77.7525 97.3159 77.4695C97.8425 77.1533 98.559 77.1836 99.1245 77.357L99.1911 77.1264Z" fill="black"/>
<path d="M96.8668 80.3291C96.562 79.824 96.3866 79.4021 96.4858 78.7995C96.573 78.2676 96.8452 77.7525 97.3159 77.4694C97.8425 77.1532 98.559 77.1835 99.1245 77.357C99.6685 77.9908 100.174 78.4723 100.124 79.3661C100.095 79.8923 99.9028 80.4997 99.4758 80.8327C99.1384 81.0955 98.7191 81.184 98.3012 81.1205C97.7107 81.0307 97.2909 80.7332 96.8668 80.3291Z" fill="#FAF7F7"/>
<path d="M98.044 86.0695C96.8431 84.6014 95.7293 84.1968 95.4259 82.0849C95.1945 80.416 95.6416 78.7235 96.6662 77.3881C97.4886 76.3137 98.691 75.4867 100.054 75.3319C101.654 75.1508 102.93 75.8557 104.131 76.8355L103.36 77.2723C103.313 77.5544 103.285 77.8514 103.176 78.1152C102.474 77.54 101.701 77.1657 100.893 76.7721C100.32 76.9903 99.799 77.0695 99.1909 77.1262L99.1242 77.3569C98.5587 77.1834 97.8423 77.1532 97.3156 77.4694C96.845 77.7524 96.5728 78.2675 96.4855 78.7995C96.3863 79.4021 96.5617 79.824 96.8665 80.329C96.5009 80.8341 96.6403 81.5688 96.7237 82.1507C96.879 83.2343 97.8605 84.1497 98.6675 84.8042C98.7897 84.9032 98.7466 84.8542 98.818 84.959L98.4988 85.5438L98.044 86.0695Z" fill="url(#paint2_linear_3039_10752)"/>
<path d="M99.1906 77.1261L99.1211 76.7571C99.6962 76.3217 100.554 76.4005 101.246 76.499C102.063 76.6153 102.651 76.87 103.36 77.2722C103.313 77.5543 103.285 77.8512 103.175 78.1151C102.474 77.5399 101.701 77.1655 100.892 76.772C100.32 76.9901 99.7987 77.0694 99.1906 77.1261Z" fill="#615447"/>
<path d="M104.131 76.8354C105.192 77.7735 105.646 79.341 105.72 80.7206C105.794 82.0872 105.511 83.6052 104.563 84.6427C103.971 85.2914 103.077 85.7816 102.564 86.4649C101.497 85.7936 99.746 86.0588 98.499 85.5437L98.8182 84.9589C99.0597 85.0463 99.3046 85.1328 99.5562 85.1876C100.525 85.3991 101.597 85.2679 102.425 84.6989C103.328 84.079 103.905 83.0079 104.088 81.9416C104.328 80.5428 103.975 79.2631 103.176 78.1151C103.286 77.8513 103.313 77.5543 103.36 77.2723L104.131 76.8354Z" fill="#3A3433"/>
<path d="M105.627 72.1584C106.068 72.5544 106.428 72.9523 106.785 73.4251C107.466 74.8057 107.864 76.8076 107.971 78.3376L108.106 80.058C107.856 82.3069 107.344 84.4106 105.499 85.9166C105.237 86.1314 104.959 86.328 104.679 86.5197L104.721 85.8566C105.007 85.4241 105.546 85.0502 105.875 84.6158C107.068 83.0392 107.301 81.3948 107.52 79.4948C107.389 76.9696 106.687 75.1315 105.204 73.0989C105.374 72.8086 105.18 72.6784 105.255 72.3483L105.627 72.1584Z" fill="black"/>
<path d="M70.4681 61.0952C71.4582 62.1317 72.3582 63.2509 73.1585 64.4407C73.7806 64.1255 74.5239 63.8213 74.8876 63.187C75.0118 62.7785 75.2356 62.4052 75.4335 62.0289L75.9132 62.8208C76.0656 63.0784 76.183 63.3196 76.287 63.6002C71.8708 66.2369 69.3006 69.1557 68.0259 74.2244C67.8169 75.0543 67.5874 75.9053 67.446 76.7491C67.1014 76.9514 66.7933 77.135 66.5119 77.4257C66.7813 76.3632 67.031 75.296 67.26 74.2239C64.375 74.8212 61.2576 74.5406 58.5781 73.2897L59.261 72.4608C61.2743 73.2177 65.1543 74.1076 67.1953 73.2907C67.4292 73.197 67.5989 73.023 67.7604 72.8356L67.8644 72.4392C67.6506 71.9606 67.088 71.888 66.615 71.679C67.042 71.6184 67.4752 71.6377 67.8188 71.3551C68.5583 70.7467 70.0804 67.8669 70.1729 66.9164C70.3842 66.6526 70.7197 66.592 71.0005 66.3926C71.427 65.9654 71.8914 65.5949 72.362 65.2187C72.3726 64.4359 71.243 63.286 70.7671 62.6819C70.7494 62.1457 70.5903 61.6156 70.4681 61.0952Z" fill="black"/>
<path d="M93.3809 80.0984C93.4043 79.6794 93.4288 79.2551 93.4882 78.839C93.8682 76.1802 95.1402 73.6213 97.3111 71.9904C99.1025 70.6439 101.016 70.3767 103.181 70.6703L103.113 71.3109C103.097 71.4757 103.107 71.4104 103.052 71.5848L102.807 71.6569C100.758 71.4459 99.0354 71.6353 97.3681 72.974C95.4287 74.5305 94.2598 76.9932 94.0082 79.4478C93.9727 79.7991 93.9559 80.1523 93.9588 80.5059C93.8735 80.7361 93.8069 80.8755 93.644 81.0662L93.3809 80.0984Z" fill="black"/>
<path d="M93.3809 80.0984L93.644 81.0662C93.8069 80.8754 93.8735 80.7361 93.9588 80.5059C94.0944 82.144 94.4371 83.5193 95.4172 84.8715C95.6386 85.1762 96.067 85.5193 96.2165 85.8408C96.0013 86.0541 95.9304 86.1382 95.8729 86.4362C95.5978 86.6394 95.3122 86.835 95.0563 87.0618C94.7649 86.9734 94.7208 86.9364 94.4213 87.0354C94.139 86.7855 93.886 86.3963 93.6425 86.1012C93.9857 85.5246 94.0877 84.996 94.1937 84.3382C93.6699 82.9436 93.3799 81.589 93.3809 80.0984Z" fill="#3A3433"/>
<path d="M94.1937 84.3384C94.6773 84.9376 95.6659 85.7324 95.873 86.4364C95.5979 86.6397 95.3122 86.8352 95.0563 87.062C94.765 86.9736 94.7209 86.9366 94.4213 87.0356C94.1391 86.7857 93.886 86.3965 93.6426 86.1015C93.9857 85.5248 94.0878 84.9962 94.1937 84.3384Z" fill="#CB7A27"/>
<path d="M86.1406 59.9907C88.4218 59.5491 91.5345 60.0205 93.7562 60.6307L93.2497 61.3655C91.1549 60.9119 89.007 60.7898 86.8719 60.8638L86.1406 59.9907Z" fill="black"/>
<path d="M80.3863 61.2574C80.7601 60.9431 81.3736 60.8576 81.8394 60.7297C81.8413 60.9945 81.9074 61.4179 81.7728 61.6394C79.8692 62.1512 78.0701 62.7557 76.2869 63.6004C76.1829 63.3198 76.0655 63.0786 75.9131 62.821L76.8658 62.3299C77.6925 62.0084 78.5345 61.6163 79.4226 61.5221L79.6972 61.8748L80.0623 61.8902C80.3494 61.6428 80.3394 61.637 80.3863 61.2574Z" fill="black"/>
<path d="M81.8391 60.7295C83.2715 60.5224 84.6992 60.1947 86.1407 59.9905L86.8721 60.8636C85.1521 61.0592 83.4762 61.3475 81.7725 61.6392C81.9071 61.4177 81.841 60.9943 81.8391 60.7295Z" fill="black"/>
<path d="M103.181 70.6704C104.095 71.0318 104.917 71.4652 105.627 72.1586L105.255 72.3484C105.18 72.6786 105.373 72.8088 105.204 73.099C104.444 72.507 103.683 72.0577 102.807 71.6569L103.052 71.5849C103.106 71.4104 103.096 71.4758 103.113 71.311L103.181 70.6704Z" fill="#1D0B04"/>
<path d="M127.202 114.558C130.939 113.795 135.9 114.666 139.11 116.736C139.203 116.796 139.273 116.856 139.345 116.94C140.061 117.431 141.423 118.261 141.712 119.079C143.609 120.761 144.635 124.399 144.79 126.865C145.032 130.728 143.367 134.583 141.101 137.628C139.485 139.8 137.675 141.834 136.908 144.495C135.96 147.785 137.889 150.371 137.633 151.612C138.1 153.311 138.274 155.627 137.394 157.199C136.644 158.54 135.789 159.821 135.054 161.17C134.478 162.227 133.972 163.824 133.219 164.725C133.185 166.269 131.795 167.764 131.578 169.314C131.473 170.061 131.717 171.659 131.32 172.237C131.318 172.267 131.319 172.296 131.314 172.325C131.252 172.687 131.002 173.021 130.698 173.218C130.117 173.594 129.257 173.61 128.603 173.442C126.48 172.897 127.195 171.434 126.359 170.065C126.346 170.044 126.331 170.023 126.318 170.002C125.744 170.366 125.115 170.592 124.436 170.632C123.723 170.674 122.959 170.725 122.4 170.236C122.488 169.292 124.626 168.277 125.339 167.575C127.674 165.276 132.443 157.636 131.225 154.39C130.788 153.227 129.526 152.064 128.694 151.157C124.83 146.942 121.585 142.814 120.698 136.967C120.266 134.12 120.878 131.094 122.498 128.704C122.83 128.215 123.637 127.558 123.846 127.076C123.881 126.994 123.847 126.693 123.847 126.589C123.458 126.922 123.037 127.206 122.648 127.536C120.242 129.58 119.454 133.661 119.715 136.691C119.802 137.704 120.186 138.767 120.089 139.778C120.086 139.814 120.081 139.849 120.076 139.884C117.849 141.275 111.787 141.817 109.138 141.954C109.126 140.931 109.073 139.958 108.762 138.972C108.172 137.101 106.956 136.001 105.277 135.122C106.476 136.371 107.585 137.616 108.085 139.326C109.884 145.47 103.379 149.136 100.854 153.798C100.976 155.952 101.763 157.688 102.898 159.484C103.387 161.862 105.02 164.147 107.011 165.533C107.155 165.742 107.311 165.963 107.361 166.217C107.449 166.667 107.254 167.163 106.977 167.511C106.621 167.957 106.079 168.214 105.519 168.272C104.005 168.427 102.993 167.596 101.895 166.698C101.753 166.834 102.003 167.771 101.964 168.093C101.459 168.96 100.564 169.332 99.6982 169.744C99.5012 163.787 97.8028 161.89 94.7428 157.013C94.0527 155.913 93.3247 154.798 92.8196 153.599C93.0568 150.384 97.5267 138.262 97.3144 136.954L97.1366 137.036C96.1034 138.609 95.7209 140.533 95.3519 142.357L95.2374 142.797C91.8079 141.472 89.5363 139.624 87.6242 136.468C87.3395 135.998 87.166 135.269 86.7074 134.968C87.1109 134.53 87.1282 134.333 87.2413 133.767C86.7107 132.695 85.9775 132.15 85.0583 131.428C85.1954 130.31 84.8 128.789 84.6553 127.654L84.7066 127.575C88.5822 127.543 92.383 127.682 95.836 125.661C97.7328 124.552 100.431 122.398 101.122 120.241C101.34 119.564 101.285 118.782 101.474 118.076L101.507 117.959L101.485 117.076C102.181 117.139 102.876 117.216 103.569 117.306C103.613 117.284 103.66 117.266 103.701 117.239C104.071 117.004 104.064 116.588 104.146 116.194C107.638 117.005 112.763 116.379 116.287 115.755L116.333 116.021C117.168 116.198 118.331 116.024 119.071 116.283C119.721 116.309 120.344 116.133 120.973 115.99L125.927 114.861L127.202 114.558Z" fill="#CB7A27"/>
<path d="M125.926 114.861L127.201 114.558C127.712 114.57 128.149 114.523 128.583 114.811C129.46 115.391 129.955 116.083 130.21 117.132C130.376 117.818 130.306 118.517 129.921 119.121C129.296 120.097 128.144 120.576 127.049 120.787C125.365 121.111 123.454 120.944 122.009 119.954C121.239 119.427 121.064 118.87 120.768 118.015L121.243 117.876L121.023 117.67C120.755 117.051 121.003 116.684 120.976 116.063C120.975 116.039 120.973 116.014 120.971 115.989L125.926 114.861Z" fill="#F4B75E"/>
<path d="M120.972 115.99L125.927 114.861C126.64 114.905 128.536 115.429 129.106 115.784L129.229 116.054C128.704 116.651 122.815 117.792 121.716 117.869C121.559 117.878 121.401 117.881 121.243 117.877L121.023 117.671C120.755 117.051 121.003 116.684 120.976 116.064C120.975 116.039 120.973 116.014 120.972 115.99Z" fill="#ECD4A5"/>
<path d="M104.146 116.194C107.637 117.005 112.762 116.379 116.287 115.755L116.332 116.021C117.168 116.198 118.33 116.024 119.071 116.283C119.72 116.309 120.344 116.133 120.972 115.99C120.974 116.014 120.976 116.039 120.977 116.064C121.004 116.684 120.756 117.051 121.024 117.671L121.244 117.877L120.769 118.016C120.328 117.69 117.708 118.38 117.018 118.501C112.503 119.3 107.7 119.434 103.168 118.627C102.598 118.525 101.861 118.471 101.506 117.959L101.484 117.076C102.181 117.139 102.876 117.216 103.569 117.306C103.613 117.284 103.659 117.265 103.701 117.239C104.07 117.004 104.064 116.588 104.146 116.194Z" fill="#F6B65C"/>
<path d="M104.145 116.194C107.637 117.005 112.762 116.379 116.286 115.755L116.331 116.021C117.167 116.198 118.329 116.024 119.07 116.283C117.3 117.519 105.778 117.742 103.678 117.334C103.641 117.327 103.605 117.316 103.568 117.306C103.612 117.284 103.658 117.265 103.7 117.239C104.07 117.004 104.063 116.588 104.145 116.194Z" fill="black"/>
<path d="M87.2399 133.767C87.3094 135.966 88.8588 138.007 90.4168 139.464C92.3386 141.261 93.4379 141.254 95.3506 142.357L95.2361 142.797C91.8066 141.472 89.535 139.624 87.6228 136.468C87.3382 135.998 87.1647 135.269 86.7061 134.968C87.1096 134.53 87.1268 134.333 87.2399 133.767Z" fill="#3D210F"/>
<path d="M135.065 120.116C136.315 120.032 137.573 120.2 138.564 121.028C139.141 121.51 139.556 122.185 139.613 122.946C139.664 123.548 139.469 124.145 139.071 124.599C138.372 125.405 137.311 125.665 136.294 125.748C135.405 125.779 134.499 125.527 133.732 125.084C133.024 124.675 132.376 124.058 132.167 123.241C132.017 122.656 132.117 122.118 132.428 121.607C133.017 120.635 134.037 120.386 135.065 120.116Z" fill="#F4B75E"/>
<path d="M115.517 119.421C115.961 119.37 116.399 119.319 116.842 119.41C117.598 119.566 118.447 120.115 118.841 120.788C119.086 121.207 119.055 121.466 118.929 121.899C118.589 122.291 118.346 122.393 117.864 122.533C117.366 122.611 116.856 122.689 116.351 122.667C115.723 122.64 114.866 122.254 114.469 121.759C114.272 121.513 114.187 121.207 114.235 120.895C114.345 120.173 114.959 119.786 115.517 119.421Z" fill="#F4B75E"/>
<path d="M126.252 123.241C126.564 123.226 126.878 123.215 127.19 123.241C127.931 123.305 128.759 123.469 129.216 124.131C129.453 124.473 129.388 124.651 129.292 125.017C128.763 125.658 128.028 125.755 127.253 125.881C126.809 126.028 126.199 125.973 125.768 125.799C125.367 125.637 124.873 125.269 124.743 124.832C124.636 124.474 124.689 124.146 124.901 123.842C125.172 123.45 125.818 123.349 126.252 123.241Z" fill="#F4B75E"/>
<path d="M115.722 30.3997C115.785 29.8569 115.877 29.3614 116.219 28.9116C116.533 28.4969 116.976 28.221 117.498 28.1746C118.695 28.0683 119.53 28.6829 120.388 29.4181C120.743 29.8414 121.287 30.3312 121.283 30.9172C121.518 32.084 121.885 33.1969 122.086 34.3775C122.707 38.0224 122.208 41.9485 120.124 45.072C119.243 46.3938 117.906 47.706 116.583 48.5958C116.459 49.0367 116.159 49.481 116.11 49.9209C111.711 52.0946 106.641 54.3038 103.096 57.787C102.393 58.478 101.895 59.2776 101.253 60.0061C100.779 60.823 100.266 61.6341 99.9162 62.514C99.321 62.3078 98.7225 62.0724 98.1181 61.8994C97.7702 61.9061 97.4481 61.9018 97.1132 62.0075L97.2128 62.3684C95.9266 61.9229 94.5765 61.6615 93.25 61.3655L93.7566 60.6308C94.3503 60.7485 94.9331 60.9124 95.5178 61.068C97.3116 56.5227 99.3929 53.3194 103.615 50.6546C104.631 50.0133 105.703 49.8013 106.693 49.0525C106.988 48.727 107.318 48.4132 107.576 48.0587C107.82 47.7252 107.921 47.2745 107.849 46.8682C107.675 45.8956 105.839 44.8476 105.082 44.2652C104.881 44.0607 104.657 43.8421 104.514 43.5924C104.172 43.0004 104.031 42.041 104.239 41.3849C104.467 40.6628 104.997 40.1157 105.653 39.7628C106.664 39.219 107.924 39.0714 109.024 39.4104C110.125 39.7496 110.725 40.4284 111.237 41.4302C111.943 42.3504 112.193 43.5272 112.936 44.4367C113.339 44.9293 113.872 45.3998 114.541 45.4286C115.084 45.452 115.578 45.1429 115.974 44.7993C117.273 43.6709 117.997 42.009 118.123 40.3177C118.302 39.1425 118.202 38.1484 117.941 36.9921C116.88 34.4114 114.63 32.7725 114.894 29.8425L115.722 30.3997Z" fill="#D9BD9D"/>
<path d="M106.693 49.0525C107.284 48.8428 107.902 48.7208 108.512 48.5828C107.257 49.9889 105.683 50.7361 104.076 51.656C100.313 53.8096 97.7031 57.2624 96.3066 61.3515L98.1181 61.8993C97.7702 61.9061 97.4481 61.9017 97.1132 62.0075L97.2128 62.3683C95.9266 61.9229 94.5765 61.6615 93.25 61.3655L93.7566 60.6307C94.3503 60.7485 94.9331 60.9123 95.5178 61.068C97.3116 56.5227 99.3929 53.3193 103.615 50.6546C104.631 50.0133 105.703 49.8013 106.693 49.0525Z" fill="black"/>
<path d="M116.584 48.5957C116.459 49.0366 116.16 49.4809 116.111 49.9208C111.712 52.0945 106.641 54.3036 103.096 57.7869C102.393 58.4778 101.895 59.2775 101.254 60.0059C101.238 59.8445 101.236 59.6845 101.275 59.5249C102.399 54.9148 109.908 51.2685 116.584 48.5957Z" fill="#B49D83"/>
<path d="M105.082 44.265C104.881 44.0604 104.657 43.8419 104.513 43.5922C104.172 43.0002 104.031 42.0408 104.238 41.3847C104.466 40.6625 104.996 40.1155 105.653 39.7626C106.664 39.2187 107.924 39.0712 109.024 39.4102C110.125 39.7493 110.724 40.4282 111.237 41.43C111.234 41.4602 111.229 41.4903 111.228 41.5206C111.178 42.3524 111.844 43.663 112.27 44.3678L112.168 44.4586C111.749 43.9281 111.49 43.2848 111.208 42.6742C111.118 42.6817 111 42.6755 110.919 42.7139C110.09 41.5555 109.22 40.5795 107.742 40.3532C107.123 40.2584 106.426 40.3389 105.903 40.7059C105.472 41.0082 105.206 41.466 105.15 41.9898C105.093 42.5326 105.244 42.9562 105.593 43.3607C105.782 43.5789 105.988 43.7828 106.207 43.9707L105.082 44.265Z" fill="black"/>
<path d="M118.124 40.3176C118.356 41.4757 118.426 42.3053 118.251 43.4801C117.719 44.5264 116.852 45.5919 115.733 46.0284C114.958 46.3309 114.084 46.3678 113.318 46.0149C111.975 45.3965 111.416 44.0088 110.921 42.7141C111.002 42.6757 111.12 42.682 111.209 42.6744C111.492 43.285 111.75 43.9283 112.169 44.4588L112.272 44.368C111.845 43.6633 111.18 42.3526 111.229 41.5208C111.231 41.4905 111.235 41.4604 111.239 41.4302C111.944 42.3503 112.194 43.5272 112.938 44.4366C113.34 44.9293 113.873 45.3998 114.542 45.4285C115.085 45.4519 115.579 45.1429 115.975 44.7993C117.275 43.6708 117.998 42.009 118.124 40.3176Z" fill="black"/>
<path d="M114.893 29.8423L115.722 30.3995C116.337 31.9316 117.632 33.3253 118.114 34.8417C118.267 35.6409 118.126 36.2128 117.94 36.9918C116.88 34.4111 114.63 32.7723 114.893 29.8423Z" fill="black"/>
<path d="M118.115 34.8416C119.331 36.7921 119.647 39.1697 119.119 41.3983C118.943 42.1376 118.629 42.8245 118.251 43.4798C118.425 42.3049 118.355 41.4754 118.124 40.3173C118.303 39.1421 118.203 38.148 117.941 36.9917C118.127 36.2127 118.268 35.6408 118.115 34.8416Z" fill="black"/>
<path d="M105.082 44.2649L106.208 43.9707C107.218 44.5935 108.475 45.2893 108.807 46.5261C108.999 47.2418 108.808 47.927 108.512 48.5825C107.902 48.7206 107.284 48.8426 106.693 49.0523C106.988 48.7267 107.318 48.413 107.576 48.0584C107.82 47.7249 107.922 47.2742 107.849 46.8679C107.675 45.8953 105.839 44.8473 105.082 44.2649Z" fill="black"/>
<path d="M113.866 55.9122C116.583 55.0642 121.496 55.0288 124.074 56.3574C124.312 56.48 124.492 56.5995 124.58 56.8686C124.653 57.1689 124.76 57.4866 124.764 57.7957L124.445 57.6852C124.393 57.813 124.39 57.8661 124.281 57.955L124.219 58.3809C123.877 58.453 123.588 58.342 123.251 58.3223L123.83 58.5395C123.805 58.7125 123.789 58.8908 123.747 59.0604C123.608 59.2281 123.525 59.294 123.321 59.3728C123.442 59.9456 123.425 60.404 123.085 60.9086C122.977 61.0681 122.864 61.1801 122.702 61.2843C122.93 62.3415 121.382 64.7749 120.812 65.6663C119.12 68.3165 116.284 70.2992 113.224 70.9532C111.457 71.3313 109.689 71.3011 107.893 71.2487C107.219 70.082 106.567 68.9013 105.906 67.7269L105.498 66.9604C105.488 66.9181 105.482 66.8744 105.467 66.8335C105.321 66.4361 105.106 66.3881 104.747 66.2319L103.208 64.8485C103.167 64.7216 103.181 64.5323 103.174 64.3958C103.582 63.5967 104.275 62.97 104.891 62.3295L104.272 61.6937C104.982 60.4247 106.5 59.5467 107.673 58.7596C109.5 57.4668 111.744 56.5837 113.866 55.9122Z" fill="#F47844"/>
<path d="M113.866 55.9122C116.583 55.0642 121.496 55.0288 124.074 56.3574C124.312 56.48 124.492 56.5995 124.58 56.8686C124.653 57.1689 124.76 57.4866 124.764 57.7957L124.445 57.6852C124.393 57.813 124.39 57.8661 124.281 57.955L124.219 58.3809C123.877 58.453 123.588 58.342 123.251 58.3223L123.83 58.5395C123.805 58.7125 123.789 58.8908 123.747 59.0604C123.608 59.2281 123.525 59.294 123.321 59.3728C123.442 59.9456 123.425 60.404 123.085 60.9086C122.977 61.0681 122.864 61.1801 122.702 61.2843L122.745 60.8211C121.614 60.1003 117.632 60.6774 116.283 60.9802C113.46 61.614 110.91 63.1541 108.575 64.8215C108.024 64.8417 107.568 64.9018 107.042 65.0695C106.527 65.6995 106.001 66.3223 105.498 66.9604C105.488 66.9181 105.482 66.8744 105.467 66.8335C105.321 66.4361 105.106 66.3881 104.747 66.2319L103.208 64.8485C103.167 64.7216 103.181 64.5323 103.174 64.3958C103.582 63.5967 104.275 62.97 104.891 62.3295L104.272 61.6937C104.982 60.4247 106.5 59.5467 107.673 58.7596C109.5 57.4668 111.744 56.5837 113.866 55.9122Z" fill="#D19C6B"/>
<path d="M107.039 65.0696C110.043 61.7294 113.837 59.5199 118.313 59.0264C119.546 58.8904 122.358 58.5992 123.318 59.3728C123.44 59.9456 123.422 60.4041 123.082 60.9086C122.975 61.0682 122.862 61.1801 122.699 61.2844L122.742 60.8212C121.611 60.1004 117.629 60.6775 116.28 60.9802C113.458 61.614 110.907 63.1541 108.573 64.8216C108.021 64.8418 107.565 64.9019 107.039 65.0696Z" fill="#D35835"/>
<path d="M119.69 57.8015C120.827 57.9056 122.179 57.9039 123.249 58.3224L123.828 58.5396C123.804 58.7126 123.788 58.8909 123.746 59.0605C123.606 59.2282 123.523 59.2941 123.32 59.3729C122.359 58.5992 119.547 58.8904 118.314 59.0264C113.838 59.5199 110.045 61.7294 107.04 65.0696C106.525 65.6996 106 66.3223 105.496 66.9605C105.486 66.9182 105.48 66.8745 105.465 66.8336C105.319 66.4362 105.105 66.3882 104.745 66.232C105.893 65.3445 106.892 63.986 107.9 62.9283C111.304 60.1254 115.229 58.0173 119.69 57.8015Z" fill="black"/>
<path d="M113.864 55.9122C116.582 55.0642 121.494 55.0288 124.072 56.3574C124.31 56.48 124.49 56.5995 124.578 56.8686C124.651 57.1689 124.758 57.4866 124.762 57.7957L124.443 57.6852C124.352 57.6068 124.282 57.5459 124.173 57.4933C120.478 55.7122 116.271 56.1622 112.521 57.4154C112.835 56.822 113.481 56.506 113.864 55.9122Z" fill="black"/>
<path d="M109.953 60.0964C111.635 59.0541 113.617 57.997 115.583 57.6748C116.354 57.5484 119.052 57.3412 119.691 57.8013C115.23 58.0171 111.304 60.1252 107.9 62.9281C108.321 61.6542 109.099 61.0627 109.953 60.0964Z" fill="#CE9258"/>
<path d="M103.207 64.8487C103.57 64.8165 103.912 64.7752 104.232 64.5892C105.02 64.1322 105.816 63.1764 106.497 62.5551C107.592 61.5589 108.669 60.8232 109.952 60.0967C109.099 61.063 108.321 61.6546 107.9 62.9285C106.892 63.9861 105.894 65.3446 104.745 66.2321L103.207 64.8487Z" fill="#CE9258"/>
<path d="M113.864 55.9124C113.482 56.5061 112.836 56.8221 112.521 57.4155C111.006 58.0448 109.5 58.6968 108.08 59.5247C108.024 59.2253 107.841 59.0048 107.672 58.7597C109.498 57.4669 111.742 56.5839 113.864 55.9124Z" fill="black"/>
<path d="M104.271 61.6939C104.981 60.4248 106.499 59.5469 107.672 58.7598C107.841 59.0048 108.023 59.2254 108.08 59.5248C106.985 60.409 105.847 61.2951 104.889 62.3297L104.271 61.6939Z" fill="black"/>
<path d="M107.04 65.0697C107.566 64.902 108.023 64.842 108.574 64.8218C107.603 65.7507 106.787 66.7194 105.904 67.7271L105.496 66.9606C106 66.3225 106.526 65.6997 107.04 65.0697Z" fill="#D35835"/>
<path d="M83.394 145.041C83.5286 144.337 83.624 143.624 83.7707 142.923L83.8909 143.098C84.0223 143.755 84.1646 144.38 84.3932 145.01L84.629 144.666C85.1408 144.825 86.2795 146.625 86.7074 147.138C87.7225 148.314 89.0715 149.097 90.3909 149.883C91.3685 150.62 91.6355 151.556 91.8823 152.718C91.8353 154.353 92.4406 155.67 93.0478 157.146C92.6112 158.865 92.2307 160.539 91.9786 162.296C91.3729 164.722 90.1551 167.687 90.3703 170.196C89.4324 170.799 88.0455 171.747 86.891 171.688C86.5661 171.672 86.2704 171.533 86.0609 171.282C85.5323 170.646 85.6963 169.552 85.7279 168.774C85.24 168.659 84.2264 169.385 83.5215 169.421C82.8635 169.454 82.135 169.21 81.501 169.045C83.0547 167.805 84.2935 166.455 85.1988 164.661C87.5902 159.92 87.1824 153.371 85.5875 148.459C85.2089 148.432 84.9065 148.299 84.56 148.158C84.1929 147.112 83.785 146.078 83.394 145.041Z" fill="#CE7F28"/>
<path d="M83.3936 145.041C83.5282 144.337 83.6236 143.624 83.7702 142.923L83.8905 143.098C84.0218 143.755 84.1642 144.38 84.3928 145.01C84.804 146.155 85.2276 147.296 85.5871 148.459C85.2085 148.432 84.906 148.299 84.5596 148.158C84.1925 147.112 83.7846 146.078 83.3936 145.041Z" fill="black"/>
<path d="M82.8573 134.697C84.0266 134.925 85.5607 135.392 86.706 134.968C87.1647 135.269 87.3382 135.998 87.6228 136.468C89.535 139.624 91.8066 141.472 95.236 142.797L93.6651 146.643C88.6331 145.383 84.1627 142.48 80.959 138.389C82.1149 137.119 82.6205 136.421 82.8573 134.697Z" fill="#C4BC6F"/>
<path d="M102.952 170.525C103.581 170.425 104.248 170.425 104.859 170.238C105.76 169.961 108.978 168.241 109.609 168.405C110.126 169.248 111.315 169.844 111.592 170.742C110.68 173.099 109.217 176.77 106.736 177.86C106.516 177.957 106.289 178.033 106.058 178.101L107.927 178.144C106.284 179.141 105.334 179.265 103.443 179.05C103.15 178.778 102.864 178.497 102.586 178.208C100.868 176.391 100.839 174.005 100.903 171.667C101.345 171.249 101.396 170.562 101.81 170.085L101.905 170.416L102.952 170.525Z" fill="#077E31"/>
<path d="M100.903 171.667C101.345 171.249 101.396 170.563 101.81 170.085L101.905 170.417L102.952 170.525C103.503 170.992 103.574 171.206 103.634 171.922C103.742 173.201 104.043 177.001 103.47 178.018C104.404 178.444 105.071 178.292 106.058 178.101L107.927 178.144C106.284 179.141 105.334 179.265 103.443 179.05C103.15 178.778 102.864 178.497 102.586 178.208C100.868 176.391 100.839 174.006 100.903 171.667Z" fill="#51A53A"/>
<path d="M100.903 171.667C101.345 171.249 101.396 170.563 101.81 170.085L101.905 170.417C101.456 172.443 101.643 175.481 102.773 177.248C102.968 177.552 103.191 177.788 103.47 178.018C104.404 178.444 105.071 178.292 106.058 178.101L107.927 178.144C106.284 179.141 105.334 179.265 103.443 179.05C103.15 178.778 102.864 178.497 102.586 178.208C100.868 176.391 100.839 174.006 100.903 171.667Z" fill="black"/>
<path d="M82.3731 170.288C82.6156 170.416 82.7579 170.565 82.9501 170.759C83.0632 170.872 83.0138 170.831 83.1638 170.911C83.634 170.665 83.8549 170.466 84.3902 170.52C85.4661 171.423 85.1939 173.181 87.1075 173.02C88.3367 172.917 89.889 172.227 90.9103 171.546C91.47 173.537 91.6713 175.181 90.6658 177.038C87.8273 178.444 83.3584 178.587 80.3569 177.556C79.6045 177.298 79.0342 176.91 78.5684 176.253C78.6024 175.675 78.7797 175.218 78.9911 174.687C78.9963 174.458 79.0078 174.231 79.0213 174.003L78.3623 174.244C79.0189 172.444 80.8985 171.397 82.3731 170.288Z" fill="#0B662C"/>
<path d="M82.3731 170.288C82.6156 170.416 82.7579 170.565 82.9501 170.759C83.0632 170.872 83.0138 170.831 83.1638 170.911L83.0186 170.916C82.5897 172.896 81.0528 173.822 79.6673 175.135C79.3587 175.427 79.1363 175.883 78.8042 176.125C78.738 176.173 78.6388 176.218 78.5684 176.253C78.6024 175.675 78.7797 175.218 78.9911 174.687C78.9963 174.458 79.0078 174.231 79.0213 174.003L78.3623 174.244C79.0189 172.444 80.8985 171.397 82.3731 170.288Z" fill="#077E31"/>
<path d="M82.3731 170.288C82.6156 170.416 82.7579 170.565 82.9501 170.759C83.0632 170.872 83.0138 170.831 83.1638 170.911L83.0186 170.916C81.4093 171.54 79.9692 173.326 78.9911 174.687C78.9963 174.458 79.0078 174.231 79.0213 174.003L78.3623 174.244C79.0189 172.444 80.8985 171.397 82.3731 170.288Z" fill="black"/>
<path d="M151.249 105.172C151.918 105.283 152.746 105.326 153.375 105.562C155.129 106.653 156.294 108.524 156.767 110.521C156.993 111.48 157.056 112.503 157.156 113.482L157.277 113.632C157.536 114.37 157.384 114.856 157.055 115.536C156.2 117.303 154.081 119.237 152.4 120.224C153.516 120.063 154.467 119.8 155.488 119.298C155.325 120.19 154.778 120.712 154.05 121.215C152.053 122.594 149.409 122.853 147.062 122.871C146.28 122.721 145.122 122.498 144.576 121.876C144.653 121.596 144.706 121.655 144.972 121.599C147.813 120.999 150.259 120.418 152.117 117.912C152.741 117.071 153.675 115.788 153.511 114.724C153.605 114.37 153.641 114.17 153.546 113.813C153.211 113.77 152.977 114.025 152.705 114.213C152.736 114.163 152.769 114.114 152.799 114.064C153.113 113.557 153.043 113.25 152.917 112.704C153.118 112.491 153.288 112.19 153.393 111.914C153.562 111.468 153.538 111.099 153.353 110.661C153.064 110.771 152.862 110.625 152.576 110.526C152.591 111.07 152.351 111.527 151.985 111.917C151.788 112.127 151.615 112.271 151.348 112.375C150.963 112.429 150.539 112.703 150.189 112.874L150.26 112.718L149.994 112.944C150.051 112.719 150.822 112.493 151.021 112.223C151.161 112.033 151.062 111.832 151.025 111.607C151.9 110.829 152.245 109.697 152.303 108.547C152.358 107.443 152.137 106.132 151.365 105.292C151.327 105.251 151.287 105.212 151.249 105.172Z" fill="#EFDAAD"/>
<path d="M151.249 105.172C151.919 105.283 152.746 105.326 153.376 105.562C155.13 106.653 156.295 108.524 156.767 110.521C156.994 111.48 157.057 112.503 157.157 113.482C157.115 113.73 157.072 113.978 157.01 114.222C156.75 115.26 156.027 115.713 155.167 116.243C155.225 116.159 155.277 116.074 155.333 115.989C155.408 115.875 155.484 115.765 155.55 115.646C156.357 114.164 156.252 111.658 155.747 110.094C155.222 108.464 153.971 106.867 152.443 106.067C152.522 106.207 152.592 106.351 152.646 106.503C153.066 107.682 153.129 109.391 152.577 110.526C152.591 111.07 152.352 111.527 151.986 111.917C151.788 112.127 151.616 112.271 151.348 112.375C150.964 112.429 150.54 112.703 150.19 112.874L150.261 112.718L149.995 112.944C150.051 112.719 150.822 112.493 151.021 112.223C151.162 112.033 151.063 111.832 151.025 111.607C151.901 110.829 152.246 109.697 152.304 108.547C152.359 107.443 152.137 106.132 151.365 105.292C151.327 105.251 151.288 105.212 151.249 105.172Z" fill="black"/>
<path d="M153.356 110.661C153.374 110.638 153.392 110.615 153.409 110.592C153.649 110.273 153.79 109.941 153.942 109.576C154.477 110.307 154.232 112.404 154.096 113.325C154.018 113.854 153.955 114.368 153.514 114.724C153.608 114.37 153.643 114.17 153.548 113.813C153.213 113.77 152.98 114.025 152.707 114.213C152.739 114.163 152.771 114.114 152.802 114.064C153.115 113.557 153.046 113.25 152.919 112.704C153.121 112.492 153.291 112.19 153.396 111.914C153.565 111.468 153.54 111.099 153.356 110.661Z" fill="black"/>
<path d="M129.554 32.5321C130.352 31.9275 131.18 31.7308 132.179 31.8814C133.179 32.0323 134.211 32.5088 134.803 33.3567C135.082 33.7575 135.496 34.4384 135.373 34.9253C135.348 35.0257 135.328 35.0613 135.29 35.1486C135.209 35.7423 135.098 36.5923 134.583 36.9739C134.457 37.0672 134.311 37.1346 134.169 37.1978C134.444 36.5354 134.451 35.5483 134.224 34.8675C134.071 34.4049 133.878 34.1207 133.437 33.898C133.83 35.8038 132.915 38.2627 131.901 39.8209C130.091 42.5997 127.148 44.0303 124.221 45.3236C123.576 45.7215 122.952 46.1269 122.178 46.1711C122.021 46.0571 121.874 45.9547 121.738 45.8149C122.78 44.7284 123.44 42.424 123.658 40.9539C124.353 41.0383 124.823 41.6106 125.599 41.5647C126.659 41.502 127.844 40.9164 128.529 40.1019C128.87 39.6971 128.931 39.4267 128.888 38.916C128.999 38.5772 128.988 38.3483 128.947 37.9963L128.902 38.0819C128.726 36.8352 129.253 36.0857 128.519 34.8616C128.889 34.0869 129.086 33.2719 129.554 32.5321Z" fill="#D9BD9D"/>
<path d="M129.554 32.5321C130.352 31.9275 131.18 31.7308 132.179 31.8814C133.179 32.0323 134.211 32.5088 134.803 33.3567C135.082 33.7575 135.496 34.4384 135.373 34.9253C135.348 35.0257 135.328 35.0613 135.29 35.1486C135.209 35.7423 135.098 36.5923 134.583 36.9739C134.457 37.0672 134.311 37.1346 134.169 37.1978C134.444 36.5354 134.451 35.5483 134.224 34.8675C134.071 34.4049 133.878 34.1207 133.437 33.898L133.391 33.5491C133.105 33.1931 132.876 32.9441 132.403 32.8662C131.434 32.7068 130.806 32.9414 130.008 33.4793C130.08 33.2852 130.164 33.0703 130.302 32.9117C130.665 32.4938 130.96 32.2969 131.494 32.2558L131.313 32.5573L131.167 32.1969C130.835 32.2575 130.53 32.4014 130.219 32.5304L130.139 32.4431L129.995 32.6577L129.554 32.5321Z" fill="black"/>
<path d="M129.555 32.532L129.997 32.6576L130.14 32.443L130.221 32.5303C130.531 32.4013 130.837 32.2574 131.169 32.1968L131.314 32.5572L131.495 32.2557C130.962 32.2968 130.666 32.4937 130.303 32.9116C130.166 33.0702 130.082 33.2851 130.009 33.4792C130.108 33.999 129.427 38.2479 129.137 38.6567C129.066 38.7572 128.982 38.8369 128.89 38.9159C129 38.5771 128.99 38.3481 128.949 37.9962L128.903 38.0818C128.727 36.8351 129.254 36.0856 128.521 34.8615C128.89 34.0868 129.087 33.2718 129.555 32.532Z" fill="#0F0C0C"/>
<path d="M152.577 110.525C152.863 110.625 153.065 110.77 153.354 110.66C153.538 111.099 153.563 111.468 153.394 111.914C153.289 112.189 153.119 112.491 152.917 112.704C152.344 114.041 149.172 117.415 147.813 117.972C145.652 118.855 143.89 117.997 141.743 117.825C142.035 118.084 142.093 118.089 142.166 118.49C141.813 118.688 141.839 118.716 141.71 119.079C141.421 118.261 140.06 117.431 139.344 116.94C139.523 116.885 139.58 116.836 139.696 116.689L139.564 116.656C139.744 116.364 139.828 116.189 139.849 115.843C140.899 115.233 141.678 114.172 142.793 113.564C145.013 112.354 147.471 113.13 149.766 112.489C150.278 112.346 150.755 112.08 151.025 111.607C151.063 111.831 151.161 112.033 151.021 112.223C150.822 112.493 150.051 112.719 149.995 112.943L150.261 112.718L150.189 112.874C150.539 112.703 150.964 112.429 151.348 112.375C151.616 112.271 151.788 112.127 151.986 111.917C152.352 111.527 152.591 111.07 152.577 110.525Z" fill="#E7A446"/>
<path d="M151.025 111.607C151.063 111.831 151.161 112.033 151.021 112.223C150.822 112.493 150.051 112.718 149.995 112.943L150.261 112.717L150.189 112.874C150.539 112.703 150.964 112.429 151.348 112.375C151.13 112.896 150.612 113.185 150.096 113.395C147.935 114.271 145.105 113.541 143.113 114.61C142.063 115.174 141.479 116.249 140.543 116.839C140.97 117.135 141.42 117.409 141.743 117.825C142.035 118.084 142.093 118.089 142.166 118.49C141.813 118.688 141.839 118.715 141.71 119.079C141.421 118.26 140.06 117.431 139.344 116.94C139.523 116.885 139.58 116.836 139.696 116.689L139.564 116.656C139.744 116.364 139.828 116.189 139.849 115.843C140.899 115.233 141.678 114.172 142.793 113.564C145.013 112.354 147.471 113.13 149.766 112.489C150.278 112.346 150.755 112.08 151.025 111.607Z" fill="black"/>
<path d="M124.578 56.8689C125.199 56.974 125.69 57.0892 126.075 57.6465C126.501 58.2626 126.504 58.8378 126.367 59.5384C126.293 59.9171 126.233 60.2414 125.934 60.5101C125.633 60.2683 125.419 60.2371 125.041 60.1919C125.316 61.8085 123.338 65.399 122.353 66.8002C120.104 69.9992 116.997 72.2726 113.099 72.9371C111.856 73.1495 110.015 73.3898 108.816 73.0241C108.515 72.7863 108.336 72.6238 108.199 72.2601L108.36 71.9852C108.558 71.9655 108.759 71.9362 108.957 71.9338L109.514 71.8358C108.771 71.7281 108.433 71.7911 107.892 71.249C109.687 71.3014 111.456 71.3317 113.223 70.9535C116.282 70.2995 119.118 68.3168 120.81 65.6667C121.38 64.7753 122.928 62.3418 122.7 61.2847C122.863 61.1804 122.976 61.0684 123.083 60.9089C123.423 60.4043 123.441 59.9459 123.319 59.3731C123.523 59.2943 123.606 59.2285 123.745 59.0608C123.788 58.8911 123.803 58.7129 123.828 58.5399L123.249 58.3227C123.586 58.3424 123.875 58.4534 124.217 58.3813L124.279 57.9554C124.389 57.8665 124.391 57.8133 124.443 57.6855L124.762 57.796C124.758 57.4869 124.651 57.1692 124.578 56.8689Z" fill="#A0643E"/>
<path d="M123.319 59.3731C123.523 59.2943 123.606 59.2285 123.745 59.0608C124.172 60.5183 122.622 63.4663 121.917 64.758C120.251 67.8123 117.429 70.5931 114.039 71.5758C112.651 71.978 110.364 72.3264 108.957 71.9338L109.514 71.8358C108.771 71.7282 108.433 71.7911 107.892 71.2491C109.687 71.3014 111.456 71.3317 113.223 70.9535C116.282 70.2995 119.118 68.3168 120.81 65.6667C121.38 64.7753 122.928 62.3419 122.7 61.2847C122.863 61.1804 122.976 61.0685 123.083 60.9089C123.423 60.4044 123.441 59.9459 123.319 59.3731Z" fill="black"/>
<path d="M124.579 56.8689C125.2 56.974 125.691 57.0892 126.076 57.6465C126.502 58.2626 126.505 58.8378 126.368 59.5384C126.293 59.9171 126.234 60.2414 125.935 60.5101C125.634 60.2683 125.42 60.2371 125.042 60.1919C125.072 60.1578 125.103 60.1247 125.132 60.0896C125.384 59.7782 125.603 59.0459 125.53 58.6557C125.437 58.1605 125.155 58.0368 124.763 57.796C124.759 57.4869 124.652 57.1692 124.579 56.8689Z" fill="black"/>
<path d="M124.153 172.704C125.441 173.523 126.604 174.987 128.072 175.364C128.248 175.41 128.423 175.457 128.6 175.499C129.207 175.762 129.656 176.043 129.927 176.689C129.977 176.811 129.997 176.913 129.997 177.044C129.979 177.76 129.386 178.689 128.88 179.188C128.78 179.287 128.673 179.35 128.552 179.419C127.957 179.948 126.686 179.857 125.913 179.887C123.414 179.43 120.511 180.091 118.479 178.185C120.283 177.735 121.766 176.565 122.949 175.146C123.472 174.52 124.223 173.531 124.153 172.704Z" fill="#077E31"/>
<path d="M71.333 127.493C72.7228 127.542 73.8419 127.591 75.1324 128.178C75.4162 129.175 75.5 129.872 75.2048 130.874C74.6005 132.495 74.3369 134.339 73.8912 136.019C73.5308 135.037 73.1786 134.253 72.4358 133.507C72.3121 133.821 72.2139 134.164 71.9743 134.409C70.6789 132.948 68.2645 134.181 66.5147 133.839C65.9727 133.734 65.4925 133.497 65.1738 133.034C65.469 132.131 67.6865 131.457 68.644 130.649L69.7089 130.559L70.3515 129.416C70.6396 128.746 70.964 128.122 71.333 127.493Z" fill="#F47844"/>
<path d="M71.333 127.493C72.7228 127.542 73.8419 127.591 75.1325 128.178C75.4162 129.175 75.5 129.872 75.2048 130.874C73.3703 130.003 72.2551 129.948 70.4407 129.442C70.411 129.433 70.3813 129.425 70.3516 129.416C70.6396 128.746 70.964 128.122 71.333 127.493Z" fill="#FAF7F7"/>
<path d="M68.644 130.649L69.7089 130.559C68.9248 131.558 67.9769 132.281 66.9355 132.992C68.3895 132.886 71.0627 132.324 72.2503 133.337C72.314 133.392 72.3749 133.45 72.4358 133.507C72.3121 133.821 72.2139 134.164 71.9743 134.409C70.6789 132.948 68.2645 134.181 66.5147 133.839C65.9727 133.734 65.4925 133.497 65.1738 133.034C65.469 132.131 67.6865 131.457 68.644 130.649Z" fill="black"/>
<path d="M75.506 110.861C76.4391 110.539 77.3118 110.374 78.2885 110.261C77.5941 112.367 77.1345 113.838 75.4203 115.354C74.733 115.962 74.0731 116.52 73.5148 117.258C72.7998 118.634 72.7418 119.57 72.5908 121.065C72.5314 121.026 72.4025 120.962 72.3641 120.904L71.1847 121.074C71.0299 120.845 70.89 120.607 70.7645 120.36C69.92 118.712 69.9579 116.84 70.51 115.108C70.914 113.499 72.1643 112.17 73.4616 111.22C74.1565 111.026 74.7834 110.886 75.506 110.861Z" fill="#EE7443"/>
<path d="M71.6031 114.753C72.0977 114.82 72.5736 114.884 73.0739 114.867C73.1904 115.659 73.2771 116.492 73.5148 117.257C72.7998 118.634 72.7418 119.57 72.5908 121.065C72.5314 121.026 72.4025 120.961 72.3641 120.904L71.1847 121.074C71.0299 120.845 70.89 120.607 70.7645 120.36C69.92 118.712 69.9579 116.84 70.51 115.108C70.5138 115.71 70.3427 116.733 70.705 117.182C70.9447 116.315 71.1311 115.533 71.6031 114.753Z" fill="#EE7443"/>
<path d="M71.6032 114.753C72.0977 114.82 72.5736 114.884 73.074 114.867C73.0356 115.525 73.1089 116.748 72.5971 117.221C72.1993 117.588 71.4872 117.578 70.9768 117.579L70.7051 117.182C70.9447 116.315 71.1311 115.533 71.6032 114.753Z" fill="#FAF7F7"/>
<path d="M71.1847 121.074C71.0299 120.846 70.89 120.607 70.7645 120.361C69.92 118.712 69.9579 116.84 70.51 115.108C70.5138 115.711 70.3427 116.733 70.705 117.182L70.9768 117.579C71.226 118.765 71.697 119.894 72.3641 120.904L71.1847 121.074Z" fill="black"/>
<path d="M73.4613 111.22C74.1562 111.026 74.7831 110.886 75.5058 110.861C73.7719 111.803 72.7324 113.191 71.6029 114.754C71.1308 115.534 70.9444 116.315 70.7048 117.182C70.3425 116.733 70.5135 115.71 70.5097 115.108C70.9137 113.499 72.164 112.17 73.4613 111.22Z" fill="black"/>
<path d="M84.501 125.945C88.1475 125.747 91.5199 125.325 94.8746 123.759C97.81 122.389 100.348 120.188 101.483 117.076L101.505 117.959L101.473 118.076C101.284 118.782 101.339 119.564 101.121 120.241C100.43 122.398 97.7314 124.552 95.8345 125.661C92.3816 127.682 88.5808 127.543 84.7051 127.575L84.501 125.945Z" fill="#9F5718"/>
<path d="M108.106 80.058C108.263 79.8889 108.307 79.7639 108.55 79.7644C108.966 79.7649 109.386 80.1248 109.732 80.3372C110.411 82.5972 111.82 87.2132 111.259 89.4251L110.988 89.6826C110.792 89.5308 110.613 89.39 110.451 89.1992C109.824 88.4751 108.895 88.0214 108.054 87.5933C107.398 87.3141 104.993 86.9455 104.679 86.5198C104.959 86.328 105.237 86.1315 105.499 85.9167C107.344 84.4107 107.856 82.3069 108.106 80.058Z" fill="#CC7C27"/>
<path d="M82.1271 129.46C82.3706 130.857 85.1703 133.133 86.1417 134.088C84.7807 133.91 83.3909 133.663 82.0207 133.595C81.8659 135.307 81.4629 136.415 80.1478 137.587C80.0453 137.678 80.0333 137.682 79.9355 137.748L79.6969 137.547C79.3652 137.581 79.2013 137.532 78.9004 137.393C78.8975 136.357 78.8026 135.431 78.4082 134.466C78.4116 134.439 78.4149 134.411 78.4187 134.384C78.425 134.34 78.4331 134.295 78.4384 134.25C78.5112 133.63 78.6382 133.347 78.9962 132.836L78.5467 132.092C78.9502 131.606 79.1774 130.962 79.672 130.547C80.3908 129.944 81.5127 130.086 82.1271 129.46Z" fill="#F47844"/>
<path d="M78.9962 132.836C80.1617 135.07 79.5497 135.714 79.9355 137.748L79.6969 137.547C79.3652 137.58 79.2013 137.532 78.9004 137.393C78.8975 136.357 78.8026 135.431 78.4082 134.465C78.4116 134.439 78.4149 134.411 78.4187 134.384C78.425 134.34 78.4331 134.295 78.4384 134.25C78.5112 133.63 78.6382 133.347 78.9962 132.836Z" fill="black"/>
<path d="M83.8906 143.098L84.044 143.174C85.4846 143.893 86.7402 144.969 88.1904 145.655C89.8116 146.421 91.6395 146.786 93.2272 147.597C92.7149 149.295 92.2069 150.971 91.882 152.718C91.6351 151.556 91.3682 150.62 90.3906 149.883C89.0712 149.097 87.7221 148.314 86.7071 147.138C86.2792 146.625 85.1405 144.825 84.6287 144.666L84.3929 145.01C84.1643 144.38 84.0219 143.756 83.8906 143.098Z" fill="#9F5C1D"/>
<path d="M86.708 147.138C87.5735 146.856 88.0192 146.936 88.8253 147.352C89.4699 147.685 90.2458 148.39 90.4365 149.116C90.5017 149.364 90.4423 149.637 90.3915 149.883C89.0721 149.097 87.723 148.314 86.708 147.138Z" fill="#A0643E"/>
<path d="M133.437 33.8979C133.878 34.1207 134.07 34.4049 134.224 34.8674C134.451 35.5482 134.444 36.5353 134.169 37.1977C134.332 38.3958 133.337 40.1463 132.654 41.0579C131.466 42.6417 128.582 45.2239 126.564 45.4957C126.219 46.0898 121.47 47.8397 120.568 48.0858C120.285 48.1621 119.999 48.2262 119.71 48.278C120.463 47.7805 121.529 46.8103 121.73 45.8868C121.735 45.8632 121.735 45.8388 121.738 45.8149C121.874 45.9547 122.021 46.0571 122.178 46.171C122.952 46.1268 123.576 45.7215 124.221 45.3236C127.148 44.0302 130.091 42.5996 131.9 39.8209C132.914 38.2626 133.83 35.8037 133.437 33.8979Z" fill="#B49D83"/>
<path d="M137.631 151.612C138.624 152.342 139.541 154.036 139.715 155.24C139.772 155.63 139.771 155.943 139.601 156.307C139.546 157.144 138.428 158.157 137.895 158.782C136.63 160.265 134.354 165.077 133.734 165.605C133.699 165.635 133.661 165.663 133.624 165.692C133.833 166.746 133.026 168.686 132.634 169.682C132.476 170.53 132.271 171.558 131.569 172.134L131.318 172.237C131.715 171.659 131.471 170.061 131.576 169.314C131.794 167.765 133.184 166.269 133.218 164.725C133.97 163.824 134.477 162.227 135.052 161.17C135.787 159.821 136.642 158.54 137.392 157.199C138.272 155.627 138.099 153.311 137.631 151.612Z" fill="#9F5C1D"/>
<path d="M152.918 112.704C153.044 113.25 153.114 113.557 152.8 114.064C152.77 114.114 152.737 114.163 152.705 114.213C152.793 115.221 152.032 116.489 151.404 117.231C149.684 119.263 147.513 120.258 144.886 120.445C144.543 120.468 144.2 120.489 143.857 120.504C143.603 119.828 142.776 118.863 142.166 118.49C142.093 118.089 142.035 118.084 141.743 117.825C143.891 117.997 145.652 118.856 147.813 117.972C149.173 117.415 152.344 114.041 152.918 112.704Z" fill="#9F5C1D"/>
<path d="M121.283 30.917C122.13 31.395 122.522 32.6812 122.767 33.5644C123.814 37.3187 123.101 41.7591 121.185 45.1313C120.084 47.0687 118.115 48.9333 116.11 49.9207C116.159 49.4809 116.459 49.0366 116.583 48.5957C117.906 47.7059 119.243 46.3937 120.124 45.0718C122.208 41.9483 122.708 38.0223 122.086 34.3774C121.885 33.1967 121.519 32.0839 121.283 30.917Z" fill="#B49D83"/>
<path d="M75.4121 124.916C77.492 125.196 78.0609 125.069 80.0478 124.558C80.4623 125.162 80.621 126.435 80.62 127.162L80.3972 127.307L80.6047 127.551C79.4914 127.951 77.932 128.858 77.2342 129.847C77.147 129.268 76.453 128.363 76.2048 127.737C75.8425 126.822 75.6249 125.874 75.4121 124.916Z" fill="#F47844"/>
<path d="M123.446 172.069L124.072 172.19C124.16 172.391 124.184 172.486 124.153 172.704C124.223 173.531 123.473 174.52 122.95 175.146C121.766 176.565 120.283 177.736 118.48 178.185C118.394 177.962 118.325 177.731 118.319 177.49C118.247 174.858 120.954 174.022 122.436 172.453C122.454 172.433 122.471 172.414 122.489 172.394C122.855 172.335 123.122 172.251 123.446 172.069Z" fill="#51A53A"/>
<path d="M102.897 159.484C105.329 161.435 107.197 162.487 110.135 163.482C109.454 163.868 107.313 164.843 107.01 165.533C105.019 164.147 103.387 161.862 102.897 159.484Z" fill="#9F5F2C"/>
<path d="M121.602 172.038C121.93 172.129 122.197 172.217 122.488 172.394C122.471 172.413 122.454 172.433 122.436 172.452C120.954 174.021 118.247 174.857 118.319 177.49C118.325 177.731 118.393 177.962 118.48 178.185C120.511 180.091 123.414 179.43 125.914 179.887C125.864 179.903 125.815 179.919 125.765 179.933C124.359 180.335 122.036 180.062 120.652 179.651L120.586 179.834L120.697 179.859C120.98 179.925 121.208 180 121.47 180.125C122.579 180.654 124.742 180.211 125.595 180.973C123.549 181.148 120.365 180.459 118.596 179.39C117.666 178.828 117.455 178.464 117.191 177.422C118.052 174.702 119.313 173.63 121.602 172.038Z" fill="black"/>
<path d="M80.6058 127.551C81.04 127.618 81.2121 127.606 81.4891 127.988C81.7781 128.385 81.9515 128.996 82.1274 129.46C81.513 130.086 80.3911 129.944 79.6723 130.547C79.1777 130.962 78.9506 131.606 78.547 132.092C78.0328 131.364 77.6283 130.644 77.2354 129.847C77.9331 128.858 79.4926 127.951 80.6058 127.551Z" fill="#FAF7F7"/>
<path d="M73.1325 123.089L74.554 124.338C74.6139 125.652 74.8405 126.898 75.1314 128.178C73.8408 127.591 72.7218 127.542 71.332 127.493C71.8856 125.993 72.3739 124.503 73.1325 123.089Z" fill="#F47844"/>
<path d="M90.3709 170.196C90.1557 167.687 91.3735 164.722 91.9792 162.296C91.845 164.145 91.765 166.06 92.1829 167.881C92.4053 168.849 93.3623 170.214 93.3077 171.114C92.9612 171.318 92.8069 171.241 92.4355 171.142C91.7938 170.971 91.3682 170.692 90.8909 170.238L90.3709 170.196Z" fill="#9F5F2C"/>
<path d="M106.741 71.4111C108.175 74.2208 109.183 77.229 109.731 80.3371C109.385 80.1247 108.966 79.7647 108.55 79.7643C108.306 79.7638 108.262 79.8887 108.105 80.0579L107.97 78.3376C107.863 76.8075 107.465 74.8056 106.785 73.4251L106.921 73.4044C107.245 73.1021 106.661 72.0176 106.741 71.4111Z" fill="#CC7C27"/>
<path d="M108.358 167.075C108.649 167.056 108.702 167.006 108.93 167.211C109.249 167.499 109.54 167.981 109.61 168.405C108.979 168.241 105.76 169.961 104.859 170.238C104.249 170.425 103.582 170.425 102.953 170.525L101.905 170.416L101.811 170.085C101.936 169.838 102.251 169.123 102.482 169.01C103.234 168.645 105.263 169.865 106.59 169.296C107.503 168.904 108.033 167.968 108.358 167.075Z" fill="#0B662C"/>
<path d="M127.957 174.605C128.843 174.603 129.728 174.595 130.613 174.58C130.506 175.075 130.716 175.687 130.992 176.107C131.031 176.168 131.087 176.226 131.134 176.279C131.203 176.235 131.297 176.194 131.343 176.126C131.508 176.629 131.449 177.134 131.213 177.604C130.846 178.333 130.031 179.061 129.255 179.309C129.028 179.381 128.789 179.408 128.552 179.419C128.673 179.35 128.78 179.288 128.88 179.189C129.386 178.689 129.979 177.76 129.997 177.044C129.997 176.913 129.978 176.811 129.927 176.689C129.656 176.044 129.207 175.762 128.6 175.499C128.627 175.386 128.636 175.307 128.607 175.193C128.516 174.831 128.26 174.777 127.957 174.605Z" fill="#07471E"/>
<path d="M108.358 167.076C108.303 166.664 108.267 166.407 108.429 166.018C108.817 165.891 108.972 165.997 109.322 166.176C110.298 166.676 111.435 167.914 111.772 168.966C111.953 169.534 111.749 170.188 111.593 170.742C111.316 169.844 110.127 169.248 109.61 168.406C109.54 167.981 109.249 167.499 108.93 167.212C108.702 167.007 108.649 167.057 108.358 167.076Z" fill="#0B662C"/>
<path d="M82.0762 127.224C82.6925 127.009 83.9246 127.172 84.4982 127.5C84.5845 127.55 84.6013 127.583 84.6545 127.653C84.7992 128.789 85.1946 130.31 85.0575 131.427C83.7109 130.231 82.8065 128.86 82.0762 127.224Z" fill="#EFDAAD"/>
<path d="M114.893 29.8422C114.868 29.6243 114.889 29.4622 114.957 29.2517C115.237 28.3895 115.791 27.7708 116.603 27.3863C117.466 26.9777 118.51 26.854 119.414 27.2073C119.855 27.3796 120.229 27.6242 120.416 28.0708L120.284 28.15C120.265 28.133 120.246 28.1153 120.225 28.099C119.653 27.6406 118.743 27.3821 118.018 27.477C117.483 27.547 117.039 27.6904 116.601 28.0112L116.605 28.0251C117.161 28.2356 119.197 26.9731 120.451 29.1304L120.387 29.4177C119.529 28.6826 118.694 28.068 117.498 28.1742C116.975 28.2206 116.532 28.4965 116.218 28.9113C115.877 29.361 115.785 29.8566 115.722 30.3994L114.893 29.8422Z" fill="black"/>
<path d="M123.446 172.069C124.043 171.918 124.733 171.808 125.288 171.549C126.499 172.596 126.243 173.724 127.957 174.605C128.26 174.777 128.517 174.831 128.607 175.192C128.636 175.307 128.627 175.386 128.601 175.499C128.424 175.457 128.249 175.41 128.073 175.365C126.604 174.987 125.441 173.523 124.153 172.704C124.184 172.486 124.16 172.391 124.072 172.19L123.446 172.069Z" fill="#0B662C"/>
<path d="M132.635 169.682C133.037 169.857 133.429 169.949 133.63 170.383C133.948 171.071 133.747 172.214 133.469 172.888C133.392 173.075 133.263 173.239 133.13 173.388C132.847 172.896 132.067 172.409 131.569 172.133C132.272 171.558 132.477 170.53 132.635 169.682Z" fill="#A0643E"/>
<path d="M81.5488 125.605C82.5461 125.661 83.5151 125.794 84.5014 125.945L84.7056 127.575L84.6543 127.654C84.6011 127.584 84.5843 127.55 84.4981 127.5C83.9244 127.173 82.6923 127.009 82.076 127.224L81.5488 125.605Z" fill="#AD9C88"/>
<path d="M130.611 174.58C131.094 174.533 131.274 174.443 131.682 174.735C131.793 175.195 131.61 175.64 131.392 176.043C131.376 176.072 131.358 176.099 131.341 176.126C131.295 176.194 131.201 176.235 131.132 176.279C131.085 176.225 131.03 176.167 130.99 176.107C130.714 175.687 130.505 175.075 130.611 174.58Z" fill="#0B662C"/>
<path d="M96.4425 109.865C96.7832 109.58 97.0617 109.369 97.526 109.415C98.3944 109.501 99.4219 110.409 99.9155 111.095C100.78 112.295 100.891 113.955 100.631 115.369C100.161 117.924 98.4016 119.894 96.315 121.311C92.7336 123.744 88.5135 124.418 84.288 124.115C83.2902 124.162 82.2785 124.102 81.2803 124.077C82.8694 121.367 82.9763 120.166 82.6001 117.067C88.5355 115.703 92.3843 114.617 96.4425 109.865Z" fill="#F47844"/>
<path d="M96.4426 109.865C96.7833 109.58 97.0618 109.369 97.5261 109.415C98.3945 109.501 99.422 110.409 99.9156 111.095C100.78 112.295 100.891 113.955 100.631 115.369C100.161 117.924 98.4017 119.894 96.3151 121.311C92.7337 123.744 88.5135 124.418 84.2881 124.115C86.8928 123.589 89.7955 122.832 92.1102 121.488C93.0275 120.954 93.8403 120.156 94.7949 119.71C94.8189 119.699 94.8438 119.688 94.8683 119.677C94.9809 119.639 95.0921 119.598 95.2028 119.554C96.1804 119.166 96.5183 118.783 96.93 117.815C97.7466 114.836 97.7241 112.689 96.4426 109.865Z" fill="#9C4115"/>
<path d="M94.8678 119.677C94.643 119.616 94.4187 119.554 94.1992 119.476C93.6749 119.287 93.1804 118.954 92.9676 118.416C92.8056 118.007 92.8511 117.53 93.0218 117.131C93.27 116.552 93.778 116.056 94.3713 115.841C94.8342 115.674 95.2953 115.67 95.741 115.896C96.4478 116.254 96.7085 117.113 96.9295 117.815C96.5178 118.783 96.1799 119.166 95.2023 119.554C95.0916 119.598 94.9804 119.639 94.8678 119.677Z" fill="#FAF7F7"/>
<path d="M85.3851 118.288C85.5279 118.275 85.6669 118.269 85.8107 118.273C86.3163 118.286 86.9426 118.628 87.2728 118.996C87.605 119.367 87.6855 119.875 87.6198 120.357C87.5086 121.174 86.8698 121.569 86.2559 122.01C86.0211 122.031 85.7704 122.054 85.5356 122.018C85.0257 121.939 84.4611 121.642 84.188 121.197C83.9392 120.791 83.9268 120.295 84.0289 119.841C84.2177 119.002 84.6993 118.722 85.3851 118.288Z" fill="#FAF7F7"/>
<path d="M95.3291 103.542C95.5241 105.099 95.7336 108.106 95.332 109.586C93.6575 111.295 92.0918 112.581 89.9822 113.708L89.7795 113.661C89.6462 113.308 89.5758 112.966 89.5068 112.597C89.4402 112.954 89.3611 113.287 89.2413 113.629C87.8721 115.186 84.0837 115.653 82.1164 116.029C80.6125 115.184 79.5045 114.65 77.7783 114.499C79.1997 111.685 80.0667 108.454 80.5747 105.354L80.8431 103.976C83.8714 104.544 86.6131 104.784 89.6942 104.669C90.0258 104.621 90.3459 104.609 90.6809 104.608C92.2562 104.293 93.8065 104.079 95.3291 103.542Z" fill="#ECD4A5"/>
<path d="M95.3286 103.542C95.5237 105.099 95.7331 108.106 95.3315 109.586C93.657 111.295 92.0913 112.581 89.9817 113.708L89.779 113.661C89.6458 113.308 89.5753 112.966 89.5063 112.597C89.4081 111.05 89.9338 108.67 90.0368 107.019C90.1768 106.399 90.2237 105.415 90.033 104.807L89.6937 104.669C90.0253 104.621 90.3455 104.609 90.6805 104.608C92.2557 104.293 93.8061 104.079 95.3286 103.542Z" fill="#F47844"/>
<path d="M95.3282 103.542C95.5233 105.099 95.7327 108.106 95.3311 109.586C95.1974 108.364 95.3287 107.021 95.3512 105.788C93.844 106.303 92.204 106.488 90.6446 106.814C90.6043 106.068 90.6192 105.353 90.6801 104.608C92.2553 104.293 93.8057 104.079 95.3282 103.542Z" fill="#974011"/>
<path d="M89.6937 104.669C90.0253 104.62 90.3455 104.609 90.6805 104.608C90.6196 105.353 90.6047 106.068 90.645 106.814C90.5391 107.989 89.6271 112.933 89.9817 113.708L89.779 113.661C89.6458 113.308 89.5753 112.966 89.5063 112.597C89.4081 111.049 89.9338 108.669 90.0368 107.019C90.1768 106.398 90.2237 105.415 90.033 104.807L89.6937 104.669Z" fill="#772D04"/>
<path d="M80.5742 105.354L80.8426 103.976C83.8709 104.544 86.6127 104.784 89.6937 104.669L90.033 104.807C90.2237 105.415 90.1768 106.398 90.0368 107.019C89.9165 106.735 89.8571 106.683 89.5432 106.639C88.7913 106.533 87.9368 106.6 87.1729 106.577C84.9363 106.509 82.6469 106.237 80.5742 105.354Z" fill="#DBBF9E"/>
<path d="M137.245 146.838L137.631 146.816C138.444 147.308 138.724 148.495 139.455 149.107C140.323 149.835 142.032 150.543 142.49 151.605C142.92 152.723 141.556 160.316 141.935 163.102C142.399 166.516 144.479 167.402 145.003 169.302C145.01 169.328 145.015 169.355 145.022 169.381C143.274 169.823 141.704 170.647 139.877 170.775C138.635 170.864 137.529 170.695 136.671 169.729C136.458 169.488 136.239 169.138 135.963 168.97C135.781 168.86 135.36 169.022 135.142 169.073C134.59 168.569 134.827 167.491 134.992 166.844C135.7 164.058 137.18 161.661 138.751 159.289C139.324 158.423 140.123 157.435 140.472 156.457C141.181 154.471 138.359 150.948 137.647 149.034C137.392 148.346 137.331 147.564 137.245 146.838Z" fill="#9F5C1D"/>
<path d="M115.904 142.014C117.106 141.743 119.443 141.415 120.381 140.569C120.695 140.944 122.262 144.456 122.251 144.871C122.25 144.905 122.24 144.939 122.234 144.973C118.385 146.629 111.072 147.532 106.866 147.56C107.529 146.633 108.942 144.907 108.773 143.734C108.82 143.577 108.865 143.389 108.95 143.249C109.287 142.689 114.73 142.289 115.904 142.014Z" fill="#C4BC6F"/>
<path d="M108.771 143.734C108.818 143.577 108.864 143.389 108.949 143.249C109.286 142.689 114.729 142.29 115.903 142.015C116.43 142.114 117.084 142.207 117.269 142.816C116.887 143.256 111.408 144.313 110.478 144.378C110.014 144.412 109.599 144.426 109.152 144.277C108.961 144.092 108.86 143.993 108.771 143.734Z" fill="#EFDAAD"/>
<path d="M134.569 170.432C137.023 171.477 139.273 172.461 141.941 171.371C142.304 171.223 142.597 171.032 142.998 171.087C143.569 171.677 143.511 173.109 143.489 173.906C143.475 174.422 143.41 174.86 143.123 175.301C142.531 175.854 142.035 176.103 141.221 176.165C139.166 177.404 135.016 177.259 132.649 177.24C133.229 176.358 133.004 174.972 132.853 173.996C133.307 173.868 133.994 173.723 134.351 173.404C134.659 173.128 134.636 172.917 134.632 172.542C134.928 171.85 134.935 171.295 134.64 170.591C134.618 170.538 134.593 170.485 134.569 170.432Z" fill="#077E31"/>
<path d="M134.569 170.432C137.024 171.477 139.274 172.461 141.941 171.371C142.305 171.223 142.597 171.032 142.998 171.087C143.569 171.677 143.511 173.109 143.49 173.906C143.476 174.422 143.411 174.86 143.124 175.301C142.532 175.854 142.036 176.103 141.222 176.165C141.332 176.108 141.439 176.05 141.541 175.979C141.988 175.673 142.1 175.058 142.184 174.553C142.261 174.09 142.103 173.56 141.797 173.202C141.218 172.526 136.497 171.986 135.37 171.804C135.11 172.039 134.87 172.284 134.632 172.542C134.928 171.85 134.936 171.295 134.641 170.591C134.618 170.538 134.593 170.485 134.569 170.432Z" fill="#0B662C"/>
<path d="M73.8779 121.135C73.8338 120.764 73.7974 120.393 73.8118 120.019C73.8592 118.763 74.3552 117.578 75.3037 116.737C76.3628 115.799 77.6625 115.482 79.0456 115.568C79.9849 115.799 80.755 116.246 81.2803 117.087C81.8041 117.927 81.7581 118.932 81.5357 119.862C81.228 121.145 80.5106 122.327 79.3739 123.029C78.4499 123.599 77.1693 123.855 76.1093 123.573C75.3717 123.377 74.6006 122.728 74.2268 122.059C74.0691 121.776 73.9603 121.447 73.8779 121.135Z" fill="#D59447"/>
<path d="M73.8779 121.135C73.8338 120.764 73.7974 120.393 73.8118 120.019C73.8592 118.763 74.3552 117.578 75.3037 116.737C76.3628 115.799 77.6625 115.482 79.0456 115.568C78.2385 116.721 76.9484 116.713 76.0728 117.643C75.0971 118.679 75.2136 120.553 73.8779 121.135Z" fill="#F0B260"/>
<path d="M43.5405 32.9224L43.6867 32.9091C44.3572 32.8516 44.8987 32.8956 45.4297 33.3654C47.3098 35.0279 46.1927 41.6626 49.3202 41.5626C49.7783 41.5479 50.306 41.4301 50.687 41.1701C51.5573 39.9588 50.9649 37.3025 51.0632 35.8214C51.2755 32.6311 52.7391 29.0832 56.2323 28.5558C57.0058 28.439 57.8411 28.5257 58.6165 28.6081C59.4302 29.2353 60.1678 29.8579 60.3461 30.9298C60.5368 32.0752 59.6986 33.2326 59.0397 34.0738C57.1447 36.492 56.7657 37.8346 57.1208 40.9566C57.1821 41.4959 57.2507 42.0299 57.2957 42.5712C57.6719 43.6928 58.5101 45.2487 59.5927 45.8032C60.2056 46.1169 60.8196 46.0336 61.4723 45.8991C63.5781 43.6283 64.6573 40.2009 68.2919 40.0576C68.8564 40.0354 69.4334 40.1063 69.9946 40.1636C70.7173 40.6757 71.4194 41.1344 71.5732 42.0824C71.6959 42.8402 71.4683 43.5694 71.2023 44.2696C70.3286 45.0557 67.5582 46.3984 67.5165 47.4224C67.5026 47.762 67.6372 48.0686 67.8725 48.3194C68.9398 49.4586 71.0964 50.2955 72.4589 51.0807C75.9266 53.0786 79.2598 57.4153 80.3865 61.257C80.3395 61.6366 80.3496 61.6424 80.0625 61.8898L79.6973 61.8745L79.4227 61.5217C78.5347 61.6159 77.6927 62.008 76.866 62.3295L75.9132 62.8206L75.4335 62.0287C75.2356 62.405 75.0118 62.7783 74.8877 63.1868C73.6728 61.6404 72.8926 59.9735 71.497 58.5237C68.7371 55.6568 65.358 54.3727 61.7684 52.8746C60.209 52.2237 58.7037 51.409 57.1246 50.8143C55.3418 50.1428 53.4555 49.6676 51.6498 49.0432C49.8339 48.7316 47.7071 47.873 46.0963 46.9678C43.68 45.6101 41.0384 42.851 40.3085 40.1411C39.6961 37.8649 40.0013 35.6669 41.1717 33.6591C41.8934 33.245 42.7028 32.9264 43.5405 32.9224Z" fill="#D9BD9D"/>
<path d="M41.1717 33.6593C41.8934 33.2452 42.7028 32.9266 43.5405 32.9226C43.0416 33.5199 42.3932 33.6079 41.6701 33.753L41.1669 34.7597C41.8038 34.3501 42.7948 33.5706 43.5851 33.6885C43.7543 33.7138 43.8156 33.7534 43.922 33.8836C44.7367 34.3846 45.2399 34.6665 45.4752 35.6475C45.9957 37.8154 45.8347 40.9801 47.998 42.314C48.6152 42.6947 49.2852 42.6406 49.959 42.4706C50.6108 42.3063 51.1178 41.9985 51.6296 41.566C52.1209 43.2365 52.5785 44.7275 53.491 46.2213C54.0278 47.0128 54.5751 47.7966 55.1338 48.5725L55.072 48.7562C53.9463 48.8653 52.73 48.6689 51.6498 49.0435C49.8339 48.7319 47.7071 47.8732 46.0963 46.9681C43.68 45.6103 41.0384 42.8513 40.3085 40.1413C39.6961 37.8652 40.0013 35.6671 41.1717 33.6593Z" fill="#B49D83"/>
<path d="M43.9223 33.8835C44.737 34.3846 45.2402 34.6665 45.4755 35.6475C45.9959 37.8154 45.8349 40.9801 47.9982 42.3139C48.6155 42.6947 49.2854 42.6405 49.9593 42.4706C50.611 42.3063 51.1181 41.9984 51.6299 41.566C52.1211 43.2365 52.5788 44.7275 53.4913 46.2213C53.4726 46.2484 53.4558 46.2769 53.4357 46.3027C53.2598 46.524 53.0163 46.7375 52.7317 46.7646C51.4923 46.8824 46.5878 44.1751 45.474 43.2198C43.0175 41.113 41.9574 37.9367 41.7168 34.7715C42.3532 34.2944 43.1684 34.1035 43.9223 33.8835Z" fill="#D9BD9D"/>
<path d="M41.1717 33.6593C41.8934 33.2452 42.7028 32.9266 43.5405 32.9226C43.0416 33.5199 42.3932 33.6079 41.6701 33.753L41.1669 34.7597C41.8038 34.3501 42.7948 33.5706 43.5851 33.6885C43.7543 33.7138 43.8156 33.7534 43.922 33.8836C43.1682 34.1035 42.353 34.2944 41.7165 34.7715C40.8999 36.2217 40.8841 37.7109 41.3226 39.3026C42.0908 42.0918 44.2695 44.5697 46.7486 45.9511C49.2775 47.3604 52.268 48.124 55.072 48.7562C53.9463 48.8653 52.73 48.6689 51.6498 49.0435C49.8339 48.7319 47.7071 47.8732 46.0963 46.9681C43.68 45.6103 41.0384 42.8513 40.3085 40.1413C39.6961 37.8652 40.0013 35.6671 41.1717 33.6593Z" fill="black"/>
<path d="M43.5416 32.9224L43.6878 32.9091C44.3583 32.8516 44.8998 32.8956 45.4308 33.3654C47.3109 35.0279 46.1938 41.6626 49.3213 41.5626C49.7794 41.5479 50.3071 41.4301 50.6881 41.1701C51.5584 39.9588 50.966 37.3025 51.0643 35.8214C51.2766 32.6311 52.7402 29.0832 56.2334 28.5558C57.0069 28.439 57.8422 28.5257 58.6176 28.6081C59.4313 29.2353 60.1689 29.8579 60.3472 30.9298C60.5379 32.0752 59.6997 33.2326 59.0408 34.0738C57.1458 36.492 56.7668 37.8346 57.1219 40.9566C57.1832 41.4959 57.2518 42.0299 57.2968 42.5712C56.4864 41.0943 56.3839 39.2992 55.9156 37.6805C56.4485 35.6097 57.9845 34.3474 58.8141 32.4579C59.0873 31.8367 59.2996 31.0119 59.0067 30.3613C58.8208 29.9478 58.458 29.7026 58.0368 29.5719C57.1904 29.3092 56.1107 29.2998 55.3151 29.7227C53.4586 30.7094 52.9213 32.7025 52.3491 34.5688C51.6188 38.8523 52.5868 43.2527 55.0477 46.83C57.7046 50.6771 60.0745 50.6421 63.965 52.3269C69.0253 54.5182 72.4954 57.4283 75.4346 62.0287C75.2367 62.405 75.0129 62.7783 74.8888 63.1868C73.6739 61.6404 72.8937 59.9735 71.4981 58.5237C68.7382 55.6568 65.3591 54.3727 61.7696 52.8746C60.2101 52.2237 58.7048 51.409 57.1257 50.8143C55.3429 50.1428 53.4567 49.6676 51.6509 49.0432C52.7311 48.6686 53.9474 48.8651 55.0731 48.7559L55.135 48.5722C54.5762 47.7963 54.0289 47.0125 53.4921 46.2211C52.5796 44.7273 52.122 43.2363 51.6307 41.5658C51.1189 41.9982 50.6119 42.3061 49.9601 42.4704C49.2863 42.6403 48.6163 42.6945 47.9991 42.3137C45.8358 40.9799 45.9968 37.8152 45.4763 35.6473C45.241 34.6663 44.7378 34.3843 43.9231 33.8833C43.8167 33.7531 43.7554 33.7135 43.5862 33.6882C42.7959 33.5703 41.8049 34.3499 41.168 34.7595L41.6712 33.7528C42.3943 33.6076 43.0428 33.5197 43.5416 32.9224Z" fill="black"/>
<path d="M61.4727 45.8991C63.5784 43.6283 64.6577 40.2009 68.2923 40.0577C68.8568 40.0354 69.4338 40.1064 69.995 40.1636C70.7177 40.6757 71.4198 41.1345 71.5736 42.0824C71.6963 42.8402 71.4687 43.5694 71.2027 44.2697C70.329 45.0557 67.5585 46.3984 67.5168 47.4224C67.5029 47.762 67.6376 48.0686 67.8729 48.3194C68.9402 49.4586 71.0968 50.2956 72.4592 51.0807C75.927 53.0786 79.2602 57.4153 80.3868 61.257C80.3399 61.6366 80.3499 61.6424 80.0629 61.8899L79.6977 61.8745L79.4231 61.5218C78.6812 58.258 74.9925 54.1139 72.3102 52.2444C70.6779 51.1068 67.4703 50.2171 66.6489 48.3282C65.5807 45.8696 69.9087 44.5345 70.7033 42.5855C70.6928 42.2299 70.7268 42.0756 70.4862 41.792C70.0295 41.2546 68.9766 40.9802 68.2999 40.9605C65.274 40.8725 64.1995 44.7081 62.3324 46.4272L61.4727 45.8991Z" fill="black"/>
<path d="M75.4345 62.029C72.4953 57.4286 69.0251 54.5185 63.9648 52.3272C60.0743 50.6424 57.7045 50.6775 55.0476 46.8304C52.5867 43.253 51.6186 38.8527 52.349 34.5691C53.7747 40.0566 53.0894 46.0415 58.7555 49.3978C60.4107 50.3784 62.3579 50.8946 64.1589 51.5491C66.8551 52.5287 70.4791 54.3994 72.5993 56.3168C73.3881 57.0305 74.1405 57.8497 74.7031 58.7547C75.3453 59.7873 75.9789 61.5379 76.8669 62.3299L75.9142 62.821L75.4345 62.029Z" fill="#B49D83"/>
<path d="M62.3315 46.4274C61.6318 46.8743 60.9015 47.1706 60.057 47.0772C59.0899 46.9702 58.3318 46.3501 57.7447 45.609C55.9471 43.3399 55.6039 40.4677 55.914 37.6807C56.3822 39.2994 56.4848 41.0945 57.2952 42.5714C57.6714 43.693 58.5096 45.2489 59.5922 45.8034C60.2051 46.1171 60.819 46.0338 61.4718 45.8993L62.3315 46.4274Z" fill="black"/>
<path d="M116.287 115.755C117.784 115.419 119.313 115.242 120.806 114.899C126.588 113.569 130.323 112.208 136.258 114.299C137.448 114.718 138.783 115.166 139.85 115.843C139.83 116.189 139.746 116.364 139.566 116.656L139.697 116.689C139.581 116.836 139.525 116.885 139.345 116.94C139.273 116.856 139.203 116.796 139.11 116.736C135.9 114.666 130.939 113.795 127.202 114.558L125.928 114.861L120.973 115.989C120.344 116.133 119.721 116.309 119.071 116.283C118.331 116.024 117.168 116.198 116.333 116.021L116.287 115.755Z" fill="url(#paint3_linear_3039_10752)"/>
<path d="M51.1133 58.0258C53.6456 56.7688 56.8182 56.476 59.6035 56.6497C59.5901 56.6859 59.5757 56.7215 59.5642 56.7582C59.5101 56.9302 59.5249 56.8648 59.5494 57.0657C59.1492 57.3796 58.8583 57.4255 58.3532 57.3644C57.8921 57.3087 57.3817 57.2569 56.9471 57.46C55.6843 57.6721 54.4004 57.8503 53.164 58.1846C52.5036 57.989 51.7962 58.0279 51.1133 58.0258Z" fill="black"/>
<defs>
<linearGradient id="paint0_linear_3039_10752" x1="101.947" y1="87.7689" x2="102.016" y2="86.0903" gradientUnits="userSpaceOnUse">
<stop stop-color="#170500"/>
<stop offset="1" stop-color="#070906"/>
</linearGradient>
<linearGradient id="paint1_linear_3039_10752" x1="76.8558" y1="86.1651" x2="73.7318" y2="72.1691" gradientUnits="userSpaceOnUse">
<stop stop-color="#F8EDE0"/>
<stop offset="1" stop-color="#FDFFFF"/>
</linearGradient>
<linearGradient id="paint2_linear_3039_10752" x1="99.3522" y1="75.4819" x2="99.2363" y2="85.3578" gradientUnits="userSpaceOnUse">
<stop stop-color="#000101"/>
<stop offset="1" stop-color="#302C2C"/>
</linearGradient>
<linearGradient id="paint3_linear_3039_10752" x1="128.108" y1="113.087" x2="127.611" y2="117.342" gradientUnits="userSpaceOnUse">
<stop/>
<stop offset="1" stop-color="#160201"/>
</linearGradient>
</defs>
</svg>
