<svg width="200" height="200" viewBox="0 0 200 200" fill="none" xmlns="http://www.w3.org/2000/svg">
<path d="M60.1498 28.8992C61.0587 28.1728 62.3643 27.6673 63.5375 27.8172C64.8817 27.989 65.6866 28.7863 66.4916 29.8045C66.5856 33.0945 64.4274 33.5859 63.2386 36.201C62.3996 38.0464 62.4767 40.6707 63.2113 42.5369C63.6041 43.5346 64.356 44.7735 65.3939 45.2C67.7936 46.1853 69.5606 41.3437 72.4886 40.2C73.4619 39.8201 74.5984 39.7843 75.558 40.2303C76.2471 40.5505 76.7732 41.1968 77.0091 41.9148C77.954 44.7923 73.5999 45.1303 72.7386 47.0183C72.388 47.7875 73.3455 48.5375 73.89 48.9373C75.2432 49.9317 76.7132 50.7667 78.055 51.7879C81.2891 54.2493 83.2074 57.7728 84.599 61.5125C90.3049 60.5266 93.9894 60.6537 99.6576 61.95C101.832 58.3045 103.414 55.0407 107.259 52.7781C108.468 52.0667 109.831 51.6278 111.027 50.907C111.632 50.5422 112.376 49.9614 112.523 49.2283C112.836 47.6681 110.272 46.1232 109.511 44.9021C109.231 44.4529 109.032 43.8947 109.18 43.3641C109.394 42.5973 110.229 42.0401 110.9 41.7068C115.848 39.2469 116.385 46.6693 119.027 47.4402C119.564 47.5967 120.126 47.4405 120.588 47.1531C121.825 46.385 122.614 45.2901 123.054 43.9099C124.712 38.7031 121.272 37.4208 120.522 33.451C120.381 32.706 120.674 31.8385 120.848 31.1121C121.251 30.7392 121.716 30.3967 122.238 30.2156C123.221 29.8748 124.257 29.9829 125.181 30.4461C128.105 31.9114 129.421 35.9212 129.331 39.0057C129.302 40.0098 128.837 41.351 129.207 42.2986C129.388 42.7598 129.81 43.1477 130.283 43.2976C130.708 43.4323 131.647 43.033 132.034 42.8201C133.922 41.7795 133.648 38.9648 134.176 37.1599C134.394 36.414 134.774 35.6743 135.494 35.3074C136.329 34.8812 137.453 35.0533 138.309 35.3328C139.038 35.5711 139.566 36.0863 139.898 36.7723C140.65 38.3267 140.349 40.4199 139.772 41.9793C138.041 46.6513 132.349 49.1277 127.958 50.5105C126.298 51.0334 124.574 51.3792 122.93 51.948C120.375 52.8322 117.766 54.1644 115.311 55.324C111.705 57.0274 108.723 58.7835 106.22 61.9627C105.862 62.4175 105.239 63.0736 105.077 63.6326C104.938 64.1107 105.039 64.4756 105.269 64.8982C106.02 65.4443 106.343 65.1173 106.952 64.5857C111.166 60.9114 115.335 58.1706 121.125 57.9891C123.582 57.9121 127.725 58.2047 129.576 60.0164C130.035 60.4665 130.337 61.0467 130.326 61.7C130.271 64.7659 127.787 68.9325 125.651 71.0496C121.576 75.0874 117.913 75.4685 112.452 75.4197C113.562 80.3455 116.025 86.8 114.599 91.8308C113.466 95.8255 108.661 99.3734 105.018 100.96C103.041 101.82 100.884 102.333 98.9994 103.387C99.0419 105.01 99.2174 106.641 99.3431 108.26C100.871 108.298 102.134 108.595 103.247 109.731C105.023 111.543 104.976 113.797 104.938 116.16C110.742 117.142 116.199 117.242 121.969 115.913C126.147 114.951 130.125 113.581 134.481 113.814C136.498 113.922 140.092 114.308 141.515 115.89C141.955 115.59 142.27 114.981 142.612 114.56C143.342 113.663 144.274 112.789 145.268 112.193C146.848 111.246 148.613 111.094 150.3 110.458C151.012 110.19 151.68 109.735 152.322 109.329C152.383 109.276 152.365 109.293 152.439 109.213C154.756 106.669 153.226 105.065 153.121 102.307C153.291 102.185 153.34 102.123 153.551 102.12C154.163 102.111 154.777 102.654 155.223 103.022C156.654 104.204 158.014 105.899 158.359 107.776C158.478 108.423 158.428 109.458 158.835 109.995C159.136 110.392 159.508 110.11 159.842 110.41C159.788 112.442 159.052 113.988 157.747 115.506L157.874 115.661C158.21 115.543 158.261 115.459 158.592 115.618C158.705 116.381 158.053 117.228 157.627 117.807C156.059 119.944 153.224 121.084 150.661 121.459C149.573 121.628 148.47 121.682 147.371 121.62C149.464 126.029 149.023 130.989 147.639 135.522C146.792 138.299 145.451 141.18 146.186 144.141C147.017 147.492 151.871 150.124 151.935 152.74C151.968 154.112 151.381 155.537 150.929 156.81C149.589 160.59 147.698 164.677 149.567 168.635C149.904 169.349 150.449 170.121 150.498 170.922C150.376 171.266 150.344 171.429 149.978 171.582C149.531 171.768 148.806 171.76 148.32 171.799C148.953 172.703 149.085 175.02 148.889 176.122C148.714 177.106 148.239 177.932 147.407 178.499C145.253 179.964 139.951 179.902 137.438 179.373C136.495 179.174 134.743 178.659 134.247 177.726C133.943 177.155 134.149 175.903 134.377 175.317C134.967 173.808 137.372 172.499 137.647 171.25C137.631 171.23 137.615 171.209 137.599 171.188C137.209 170.714 136.459 170.449 136.251 169.883C136.672 168.832 137.964 168.498 138.643 167.666C140.728 165.108 143.155 158.238 141.828 155.067C141.162 153.477 139.247 152.265 137.685 151.666C137.582 151.626 137.479 151.59 137.373 151.558C137.357 151.613 137.342 151.669 137.324 151.723C137.111 152.365 136.339 153.199 135.954 153.779C134.04 156.673 132.74 159.232 132.295 162.711C132.028 164.8 133.46 166.893 133.312 167.9C132.757 168.334 131.883 168.587 131.212 168.804C131.588 169.779 131.379 171.743 130.974 172.691C130.664 173.416 130.039 173.73 129.335 173.993C126.452 175.07 121.349 175.357 118.537 173.991C117.913 173.688 117.379 173.232 117.147 172.555C116.875 171.762 117.21 170.842 117.586 170.136C117.641 170.034 117.698 169.936 117.761 169.839C118.298 169.041 119.068 168.248 119.84 167.678C121.178 166.464 120.007 166.31 120.304 165.748C120.82 164.771 121.86 164.102 122.577 163.279C123.749 161.935 124.561 159.758 125.149 158.093C125.607 156.794 126.82 153.447 126.206 152.153C126.043 151.571 122.362 148.624 121.515 146.192C118.657 146.866 115.745 147.483 112.808 147.662C110.584 147.797 108.357 147.701 106.13 147.751C105.285 150.45 104.275 153.076 103.693 155.853C102.856 159.849 102.348 164.766 103.943 168.641C104.362 169.658 105 170.578 105.597 171.496C104.613 172.437 103.966 172.439 102.665 172.505C102.698 174.007 103.019 176.236 102.065 177.485C101.206 178.609 99.6417 178.956 98.3168 179.125C95.8493 179.438 90.7519 179.669 88.8334 177.791C88.295 177.263 88.578 176.545 88.2689 176.18C88.2256 176.131 87.6298 176.139 87.5296 176.146C84.5575 176.368 79.8481 177.047 77.3343 175.011C76.9274 174.681 76.6613 174.26 76.6263 173.725C76.4555 171.146 79.6352 169.34 81.1586 167.728C80.6835 167.435 80.0738 167.127 79.7113 166.702C79.1353 166.026 82.2998 163.738 82.7894 162.924C84.6896 159.76 85.4289 155.151 85.7045 151.529C86.0178 147.413 85.5944 143.098 83.8168 139.338C83.5554 138.784 83.2618 138.032 82.8441 137.593C82.7959 137.542 82.7138 137.474 82.6566 137.43C82.5384 137.341 81.549 137.985 81.35 138.084C80.6533 138.429 79.6389 138.36 78.8714 138.379C79.1512 137.69 79.5005 137.029 79.7689 136.338C80.7393 133.838 79.3514 131.287 78.3451 129.037C77.2349 130.941 76.3661 132.988 74.8168 134.598C74.3176 135.117 73.8373 135.538 73.0834 135.549C72.7599 135.146 72.7428 133.258 72.6048 132.664C72.0504 130.276 69.9042 131.094 68.2064 129.998C67.4572 129.514 66.4548 128.977 66.2552 128.062C66.8424 127.352 68.1836 128.289 69.1478 127.949C71.7159 127.043 74.1222 123.969 75.2406 121.555C74.4509 120.405 73.7903 119.199 73.6556 117.783C73.4922 116.062 74.1467 114.39 75.2279 113.074C76.9361 110.996 79.0635 110.159 81.6556 109.888C82.331 107.755 82.7215 105.316 82.7084 103.078C81.2966 102.353 79.7761 101.832 78.3548 101.106C74.5138 99.1461 70.4372 95.8259 68.4935 91.8894C66.3091 87.4666 68.5275 83.5844 69.7054 79.3074C70.2097 77.4762 70.4656 75.5726 71.0677 73.7703C68.8717 73.9342 66.6444 73.844 64.515 73.2517C60.5152 72.1388 57.2246 68.7511 55.2318 65.2283C54.2704 63.5283 52.9763 61.1462 53.5619 59.1492C53.7599 58.4726 54.1575 58.0935 54.7748 57.7781C58.6262 55.8106 64.0943 56.1303 68.0961 57.451C71.6884 58.6362 75.3175 61.2524 77.055 64.6932L79.0648 63.5623C77.346 58.4567 73.0348 55.0849 68.4027 52.74C67.3241 52.1942 66.1863 51.7834 65.1048 51.2498C63.6273 50.5209 62.2835 49.5435 60.7445 48.9344C56.6739 47.3232 52.0028 46.6204 49.1185 42.949C47.1711 40.4701 46.1301 37.6793 46.5394 34.4959C46.6595 33.5635 46.9772 32.6581 47.7552 32.0779C48.5352 31.4962 49.6764 31.3586 50.6146 31.5183C53.8144 32.0633 52.1477 36.9993 53.8011 39.2068C54.2062 39.7475 54.7324 40.1169 55.4154 40.1932C56.2173 40.2828 56.7027 39.7432 57.2787 39.2693C57.2177 37.9389 57.1863 36.6004 57.3177 35.2732C57.5428 33.0078 58.317 30.3642 60.1498 28.8992ZM93.9867 145.704C93.7729 147.842 93.2813 152.375 93.0248 153.401C92.7682 154.427 92.0627 156.609 91.4212 159.175C90.7799 163.664 91.5277 166.764 91.7416 168.154C92.0622 168.154 92.4158 168.475 92.7045 168.154C95.5907 164.947 95.5908 162.702 95.9115 158.533C96.0761 156.394 95.3772 149.297 94.9496 145.962L93.9867 145.704Z" fill="black"/>
<path d="M153.764 103.104C155.28 103.66 156.447 104.951 157.121 106.396C157.947 108.169 158.091 110.692 157.365 112.541C157.249 112.836 157.043 113.1 156.852 113.349C157.811 112.682 158.847 111.545 159.319 110.464C159.53 111.435 158.963 112.49 158.441 113.303C157.903 114.143 155.543 116.389 155.424 116.972C155.956 117.042 156.984 116.675 157.411 116.335C157.669 116.13 157.727 115.821 157.747 115.505L157.873 115.66C157.822 116.396 157.557 116.868 157.108 117.442C155.598 119.37 152.551 120.505 150.169 120.783C149.184 120.898 147.501 121.022 146.673 120.359L146.695 120.15C148.479 119.459 150.22 118.879 151.742 117.668C154.059 115.824 155.31 113.088 155.637 110.18C155.742 109.243 155.904 106.971 155.295 106.201C155.207 106.635 155.209 107.035 154.946 107.411C154.931 107.432 154.915 107.452 154.899 107.473L154.113 107.169C154.595 105.911 154.262 104.314 153.764 103.104Z" fill="#F2DAA7"/>
<path d="M120.452 167.943C120.967 167.481 121.594 167.12 122.173 166.741C122.898 167.202 123.297 168.224 123.992 168.813C124.037 168.841 124.081 168.87 124.126 168.898C125.34 169.64 128.829 169.852 129.277 171.348C129.422 171.83 129.158 172.567 128.972 173.02L128.624 173.262C128.545 173.325 128.546 173.33 128.437 173.38C126.671 174.19 120.916 174.127 119.093 173.387C118.565 173.173 117.964 172.837 117.765 172.268C117.555 171.672 117.871 171.048 118.104 170.509L117.761 169.839C118.297 169.042 119.067 168.249 119.84 167.678L120.452 167.943Z" fill="#1E8436"/>
<path d="M117.762 169.839C118.298 169.042 119.068 168.248 119.841 167.677L120.453 167.943C119.575 168.749 118.845 169.575 118.105 170.509L117.762 169.839Z" fill="#000A02"/>
<path d="M154.113 107.169L154.899 107.473C155.179 108.177 155.104 108.969 154.772 109.65C154.721 109.754 154.658 109.824 154.581 109.908C154.218 111.491 151.165 115.011 149.777 115.864C147.911 117.01 145.824 117.16 143.7 117.186C143.254 116.833 142.777 116.582 142.275 116.32C143.423 115.46 143.913 113.976 145.282 113.201C147.737 111.812 151.265 111.867 153.198 109.577C153.709 108.972 154.185 107.971 154.113 107.169Z" fill="#CF7B31"/>
<path d="M143.7 117.186C145.825 117.16 147.911 117.01 149.777 115.864C151.165 115.011 154.218 111.491 154.582 109.908C154.967 111.061 154.482 112.583 153.967 113.629C152.66 116.28 150.373 118.062 147.609 118.971C147.05 119.154 146.472 119.294 145.886 119.346C145.502 118.643 144.391 117.596 143.7 117.186Z" fill="#A5561D"/>
<path d="M122.174 166.741C122.692 166.639 122.979 166.474 123.446 166.801C123.859 167.09 124.767 168.03 124.976 168.48C126.869 168.868 128.587 168.97 130.516 168.934C130.917 169.675 130.755 170.865 130.549 171.659C130.478 172.124 130.285 172.509 129.905 172.801C129.512 173.104 129.105 173.187 128.625 173.261L128.972 173.02C129.159 172.567 129.422 171.829 129.278 171.348C128.83 169.852 125.341 169.639 124.127 168.897C124.082 168.87 124.038 168.841 123.993 168.813C123.298 168.224 122.899 167.202 122.174 166.741Z" fill="#145B29"/>
<path d="M125.383 115.955C130.493 114.352 136.418 113.968 141.307 116.549C143.997 117.969 146.271 120.616 147.177 123.53L147.228 123.699L147.253 123.784C148.481 128.068 147.673 132.431 146.367 136.577C145.728 138.604 145.057 140.582 145.043 142.732C145.024 145.535 148.146 148.648 148.118 149.364C148.983 149.589 150.107 150.493 150.55 151.273C151.148 152.324 151.046 153.52 150.728 154.641C149.617 158.545 147.784 161.505 147.943 165.771C148.005 167.42 148.544 168.621 149.148 170.111C149.212 170.268 149.447 170.67 149.3 170.761C148.669 171.151 147.484 170.825 146.743 171.107C146.829 171.322 146.837 171.487 146.849 171.715C146.74 171.867 146.634 172.077 146.469 172.167C145.719 172.577 144.828 172.485 144.032 172.247C142.077 171.663 142.733 170.752 141.933 169.514C141.76 169.246 140.508 170.182 140.156 170.304C139.154 170.651 137.693 170.214 136.667 170.049C138.391 169.37 139.77 167.786 140.639 166.197C141.741 164.184 142.415 161.787 142.77 159.529C143.016 157.968 143.305 155.561 142.538 154.138C141.498 152.207 138.127 150.887 136.322 149.71C133.095 147.605 129.747 144.811 128.038 141.267C126.998 139.11 126.24 136.502 126.534 134.092C126.67 132.973 127.879 130.511 127.639 129.695C127.391 131.096 126.031 132.29 125.809 134.038C125.621 135.523 126.256 137.475 125.828 138.814C125.805 138.834 125.784 138.856 125.76 138.874C125.203 139.279 124.054 139.52 123.385 139.733C118.16 141.395 113.034 141.828 107.612 141.269C107.57 139.032 106.761 137.101 105.595 135.233C106.137 136.918 106.745 138.665 106.835 140.446C107.041 144.493 104.87 148.508 103.707 152.292C103.021 154.526 102.618 156.824 102.348 159.143C101.875 163.208 101.956 168.088 104.612 171.442C103.846 171.58 103.078 171.671 102.306 171.763C102.076 171.368 101.889 170.979 101.505 170.714C100.945 171.059 100.902 171.875 100.387 172.322C100.105 172.566 99.7481 172.67 99.3789 172.639C98.4619 172.563 97.4334 171.986 96.8265 171.308C95.8438 170.21 96.1467 169.625 96.2176 168.32C95.7606 168.365 95.0246 169.457 94.5619 169.76C94.1327 170.04 93.9115 170.015 93.4459 169.911C93.349 169.825 93.0256 169.6 92.9803 169.501C92.9491 169.433 93.1859 168.971 93.2384 168.887C94.5997 166.722 95.7185 165.235 96.2214 162.671C97.285 157.248 95.8792 150.617 95.121 145.15L94.5084 145.187C91.1326 143.696 88.4548 142.272 85.7549 139.697C85.6646 139.599 85.5753 139.5 85.4878 139.4C84.628 138.41 83.4912 137.059 83.59 135.664C83.7105 135.449 83.7361 135.302 83.9795 135.22C84.6578 134.993 85.5545 135.564 86.1633 135.86C86.609 136.041 87.1162 136.287 87.6073 136.261C88.149 136.231 88.451 135.887 88.7956 135.518C88.3707 133.739 86.9881 132.752 86.0962 131.233C85.3073 129.89 85.027 128.423 84.7486 126.914L84.6748 125.336C85.7918 125.404 86.9389 125.419 88.036 125.65L88.2743 125.626C89.2291 125.285 90.6339 125.362 91.6648 125.237C93.1934 125.052 94.7996 124.63 96.2484 124.107C99.4957 122.934 102.897 120.868 104.422 117.629L104.777 117.093L105.084 117.09C112.2 118.418 118.036 117.734 125.001 116.09L125.383 115.955Z" fill="#CF7A2F"/>
<path d="M85.7549 139.697C85.6646 139.599 85.5753 139.5 85.4878 139.4C84.628 138.41 83.4912 137.059 83.59 135.664C83.7105 135.45 83.7361 135.302 83.9795 135.22C84.6578 134.993 85.5545 135.564 86.1633 135.86C86.609 136.041 87.1162 136.287 87.6073 136.261C88.149 136.231 88.451 135.887 88.7956 135.518C88.7417 136.283 89.7041 137.353 90.1834 137.903C90.7795 138.588 92.6272 140.641 93.5286 140.663C93.7474 140.669 93.7418 140.616 93.8779 140.467C93.9455 140.392 93.9842 140.325 94.0216 140.232C94.2712 140.404 94.3718 140.431 94.4418 140.743C94.5779 141.349 94.7221 144.648 94.5084 145.187C91.1326 143.696 88.4548 142.272 85.7549 139.697Z" fill="#BEBC66"/>
<path d="M85.7549 139.697C85.6646 139.599 85.5753 139.5 85.4878 139.4C84.628 138.41 83.4912 137.059 83.59 135.664C83.7105 135.45 83.7361 135.302 83.9795 135.22C84.6578 134.993 85.5545 135.564 86.1633 135.86C86.1902 137.379 86.7858 138.365 85.7549 139.697Z" fill="#EDA64E"/>
<path d="M125.383 115.955L125.501 115.955C127.013 115.935 130.493 115.382 131.727 116.235C132.21 116.374 132.595 116.59 132.857 117.039C133.12 117.492 133.116 118.083 132.962 118.572C132.636 119.609 131.792 120.367 130.84 120.833C129.512 121.482 127.698 121.758 126.277 121.265C125.348 120.943 124.364 120.187 123.95 119.277C123.85 119.055 123.766 118.828 123.687 118.599L123.837 118.522C123.857 117.473 124.712 117.018 125.001 116.09L125.383 115.955Z" fill="#EAA34C"/>
<path d="M125.383 115.955L125.5 115.955C127.013 115.935 130.493 115.382 131.727 116.235L131.863 116.553C131.056 116.991 125.054 118.325 123.837 118.522C123.856 117.473 124.712 117.018 125.001 116.09L125.383 115.955Z" fill="#F2DAA7"/>
<path d="M104.423 117.629C104.59 119.47 104.014 120.929 102.827 122.34C100.324 125.313 96.3955 126.888 92.5961 127.174C91.2249 127.277 89.8276 127.272 88.4545 127.205C88.4848 126.677 88.3628 126.145 88.2744 125.626C89.2292 125.285 90.634 125.362 91.6649 125.237C93.1936 125.052 94.7998 124.63 96.2485 124.107C99.4958 122.933 102.897 120.868 104.423 117.629Z" fill="#A5561D"/>
<path d="M105.084 117.09C112.201 118.418 118.036 117.733 125.001 116.09C124.713 117.018 123.857 117.473 123.838 118.522L123.687 118.598C121.767 118.734 119.87 119.19 117.958 119.415C114.423 119.832 108.854 119.742 105.584 118.177C105.183 117.985 105.047 117.835 104.896 117.428L105.084 117.09Z" fill="#EAA34C"/>
<path d="M84.6748 125.336C85.7917 125.404 86.9389 125.419 88.036 125.65C88.011 126.181 87.9755 126.715 87.9684 127.247C88.4742 132.301 90.0147 136.873 94.0216 140.232C93.9842 140.325 93.9455 140.392 93.8779 140.467C93.7417 140.616 93.7474 140.669 93.5286 140.663C92.6272 140.641 90.7795 138.588 90.1834 137.903C89.7041 137.353 88.7417 136.283 88.7956 135.518C88.3707 133.739 86.9881 132.752 86.0961 131.233C85.3072 129.89 85.027 128.423 84.7485 126.914L84.6748 125.336Z" fill="#F2DAA7"/>
<path d="M84.6748 125.336C85.7917 125.404 86.9389 125.419 88.036 125.65C88.011 126.181 87.9755 126.715 87.9684 127.247C86.9857 126.939 85.7785 126.968 84.7485 126.914L84.6748 125.336Z" fill="#A88B76"/>
<path d="M148.118 149.364C148.983 149.589 150.107 150.493 150.55 151.273C151.148 152.324 151.046 153.52 150.727 154.641C149.617 158.545 147.784 161.505 147.943 165.771C148.005 167.42 148.544 168.622 149.148 170.111C149.212 170.269 149.447 170.67 149.299 170.761C148.668 171.152 147.484 170.825 146.743 171.107C146.99 170.304 146.57 165.704 146.776 164.062C147.197 160.698 148.907 157.526 149.078 154.173C149.167 152.435 148.698 150.969 148.118 149.364Z" fill="#A5561D"/>
<path d="M88.0354 125.649L88.2736 125.626C88.362 126.146 88.4839 126.677 88.4537 127.205C88.5255 132.577 90.8516 136.594 94.4823 140.396C94.8391 138.62 95.3539 137.272 96.4288 135.791C95.9684 137.445 95.1657 139.021 95.0358 140.755C94.9266 142.217 95.213 143.71 95.1204 145.15L94.5078 145.187C94.7214 144.648 94.5773 141.349 94.4411 140.742C94.3712 140.431 94.2705 140.404 94.0209 140.232C90.014 136.873 88.4735 132.301 87.9678 127.247C87.9749 126.715 88.0103 126.181 88.0354 125.649Z" fill="#39291E"/>
<path d="M137.436 120.181C138.716 120.014 140.046 120.131 141.12 120.91C141.703 121.334 142.16 121.946 142.272 122.671C142.359 123.233 142.232 123.753 141.895 124.211C141.32 124.991 140.197 125.361 139.28 125.467C138.552 125.559 137.845 125.53 137.142 125.317C136.298 125.061 135.447 124.638 135.045 123.802C134.804 123.3 134.81 122.747 135.005 122.234C135.447 121.067 136.379 120.667 137.436 120.181Z" fill="#EAA34C"/>
<path d="M119.033 119.843C119.44 119.819 119.871 119.864 120.264 119.978C120.826 120.141 121.374 120.506 121.625 121.05C121.797 121.42 121.792 121.847 121.61 122.212C121.29 122.871 120.639 123.076 120.006 123.324C119.555 123.316 119.052 123.248 118.625 123.096C118.081 122.903 117.532 122.402 117.314 121.865C117.168 121.507 117.182 121.137 117.368 120.796C117.715 120.16 118.391 120.022 119.033 119.843Z" fill="#EAA34C"/>
<path d="M129.171 124.187C129.867 124.11 130.739 124.134 131.365 124.485C131.793 124.725 132.201 125.114 132.327 125.602C132.402 125.879 132.351 126.175 132.187 126.411C131.796 126.972 130.993 127.142 130.366 127.243C129.932 127.381 129.276 127.347 128.849 127.193C128.467 127.056 128.129 126.781 127.958 126.407C127.794 126.046 127.778 125.598 127.92 125.228C128.136 124.663 128.667 124.439 129.171 124.187Z" fill="#EAA34C"/>
<path d="M76.1841 86.427C72.8555 87.1894 71.3127 87.4291 68.6321 89.6954C68.3499 89.5101 68.3319 89.4481 68.2662 89.1202C68.0578 88.082 68.2852 86.6762 68.4903 85.6338C68.8155 83.9826 69.5127 82.374 69.9556 80.7441C70.6769 78.0893 71.1411 75.3729 72.103 72.7873C72.614 71.4137 73.2521 70.0771 74.0849 68.8688C76.9026 64.7817 81.5495 62.7865 86.282 61.9402C92.5979 60.8106 99.7311 61.8071 105.075 65.5422C110.675 69.4568 112.399 77.6808 113.519 84.0413C113.964 86.5682 114.077 88.9292 113.936 91.4897C112.089 89.2903 109.909 88.4066 107.231 87.5983C108.4 87.0065 109.573 86.4223 110.717 85.7826C105.788 85.7632 101.35 85.5836 96.5268 84.4611C97.6627 85.4993 98.7461 86.2612 100.168 86.8748C99.4527 86.9529 98.3348 86.951 97.7482 87.3851L97.3762 87.567C97.3682 87.5438 97.3616 87.5201 97.3521 87.4974C96.7939 86.1958 95.1381 85.4751 93.9058 84.9876C91.4876 84.2148 88.0711 84.6587 85.7497 85.6642L85.4614 84.5905L85.2908 84.3801C84.1426 84.4863 83.0498 84.826 81.8931 84.9084C78.6477 85.1406 75.3843 84.7307 72.1574 84.4285C73.4544 85.107 74.8044 85.9489 76.1841 86.427Z" fill="#CF7A2F"/>
<path d="M85.7507 85.6644C88.072 84.659 91.4885 84.215 93.9068 84.9878C95.139 85.4754 96.7948 86.1961 97.3531 87.4976C97.3625 87.5204 97.3692 87.5441 97.3772 87.5673L97.7492 87.3853C98.8491 87.5199 99.9679 87.5313 101.075 87.5834C105.829 87.807 110.247 88.3818 113.613 92.088C112.016 95.6847 108.265 98.4134 104.796 100.026C97.795 103.281 89.4059 104.568 82.0217 101.846C76.6582 99.8694 71.2928 95.8951 68.8623 90.5902C71.6265 87.6625 75.9955 87.0456 79.8483 87.1787C80.6769 87.2072 82.1489 87.4602 82.917 87.2276C83.2119 87.138 83.5083 86.8807 83.7494 86.694C84.0689 86.676 84.2206 86.5609 84.4754 86.3756L84.3889 86.332C84.5605 86.0492 85.4127 85.8023 85.7507 85.6644Z" fill="#F2DAA7"/>
<path d="M85.7495 85.6644C88.0708 84.659 91.4873 84.215 93.9056 84.9878C95.1378 85.4754 96.7936 86.1961 97.3519 87.4976C97.3613 87.5204 97.368 87.5441 97.376 87.5673C97.5386 89.0584 97.3864 90.1339 96.4287 91.3379C95.3846 92.6504 93.6366 93.6013 91.9723 93.7785C91.9033 93.7856 91.8338 93.7909 91.7648 93.7965L91.2491 93.8998L90.7051 94.4078L90.3964 94.0813C89.7616 93.3303 86.563 93.0868 85.2636 90.6134C84.7781 89.6895 84.737 88.414 85.0291 87.4299C85.2262 87.0575 85.4087 86.7139 85.524 86.3055C85.1359 86.1705 84.8637 86.2899 84.4742 86.3756L84.3877 86.332C84.5593 86.0492 85.4115 85.8023 85.7495 85.6644Z" fill="#39291E"/>
<path d="M93.9057 84.9875C95.138 85.4751 96.7938 86.1958 97.352 87.4973C97.3615 87.5201 97.3681 87.5438 97.3762 87.567C97.5388 89.0581 97.3866 90.1337 96.4289 91.3376C95.3848 92.6501 93.6368 93.601 91.9725 93.7782C91.9035 93.7854 91.834 93.7906 91.765 93.7963L91.2493 93.8995L90.7052 94.4075L90.3966 94.081C89.7618 93.33 86.5631 93.0865 85.2637 90.6132C84.7783 89.6892 84.7372 88.4137 85.0293 87.4296C85.4098 87.7674 85.5057 87.9849 85.6145 88.4938C86.1982 89.8612 87.0089 90.9946 88.3759 91.6593C89.7145 92.3099 91.1633 92.2374 92.5435 91.7584C93.8193 91.3158 95.2604 90.4464 95.8433 89.1652C96.108 88.5829 96.1675 87.9427 95.9283 87.341C95.4736 86.1991 94.3444 85.8006 93.3054 85.3453L93.9057 84.9875Z" fill="black"/>
<path d="M85.7495 85.6644C88.0708 84.659 91.4873 84.215 93.9056 84.9878L93.3053 85.3456C92.7083 85.3114 92.4166 85.4839 91.9222 85.7834C90.2626 85.637 88.9221 85.8592 87.323 86.2714C86.8442 86.2813 86.4245 86.225 86.0804 86.6429C85.7622 87.0295 85.6838 87.9999 85.6143 88.4941C85.5056 87.9852 85.4096 87.7677 85.0291 87.4299C85.2262 87.0575 85.4087 86.7139 85.524 86.3055C85.1359 86.1705 84.8637 86.2899 84.4742 86.3756L84.3877 86.332C84.5593 86.0492 85.4115 85.8023 85.7495 85.6644Z" fill="black"/>
<path d="M87.3239 86.2712C88.9229 85.859 90.2634 85.6368 91.923 85.7832C92.1404 86.1812 92.1546 86.2077 92.0861 86.655C91.7368 87.1947 91.2603 87.3828 90.6586 87.5131C89.6357 87.7348 88.4034 87.7362 87.4656 87.224C87.2586 86.9525 87.131 86.8374 87.2288 86.473C87.2548 86.375 87.2766 86.3494 87.3239 86.2712Z" fill="#F8F8F9"/>
<path d="M85.623 96.0452C84.1483 95.6126 81.9442 94.7176 81.1921 93.2511C80.9704 92.8185 80.8887 92.1026 80.9804 91.6321L81.1657 91.4236L81.367 91.4397C81.4639 92.6783 81.7296 93.2757 82.6773 94.1006C83.9048 95.1691 85.702 95.7528 87.3209 95.6017C88.5976 95.4828 89.5037 94.9815 90.3976 94.0812L90.7062 94.4077L91.2503 93.8997L91.766 93.7965C92.051 94.4825 92.8096 95.1473 93.4974 95.4254C94.7264 95.922 96.2342 95.7874 97.4339 95.2719C98.185 94.9488 99.0991 94.3826 99.4877 93.6292C99.664 93.2866 99.9069 92.3797 100.238 92.3035C100.4 92.828 100.196 93.4558 99.9405 93.9353C99.3851 94.9767 98.2379 95.6552 97.1299 95.967C96.8293 96.0513 96.5249 96.1177 96.2215 96.1883C95.7218 98.058 95.1768 99.8324 93.3854 100.862C92.1153 101.592 90.3876 101.752 88.988 101.349C87.8545 101.022 86.9891 100.245 86.4323 99.2136C85.9019 98.2318 85.7242 97.1449 85.623 96.0452Z" fill="black"/>
<path d="M89.5628 95.6709C90.8457 95.6709 91.8079 95.9916 92.1287 95.9916C92.4494 95.9916 93.896 96.1224 94.2666 96.3545C94.3625 96.9274 94.2396 97.5571 93.9159 98.0418C93.3685 98.862 92.3371 99.3765 91.3941 99.5566C90.332 99.7598 89.2127 99.585 88.325 98.9454C87.3778 98.2631 87.1906 97.3998 87.0176 96.2967C87.7526 96.1631 88.6006 95.9916 89.5628 95.6709Z" fill="#903922"/>
<path d="M91.2488 93.8994C91.781 94.5471 92.482 95.1365 92.966 95.8046C91.782 95.5526 90.3417 95.7113 89.126 95.7231C89.6677 95.3057 90.1829 94.8494 90.7047 94.4073L91.2488 93.8994Z" fill="#F1D8A6"/>
<path d="M86.0596 96.1243C86.7847 96.3721 86.9459 97.7414 87.3462 98.4256C87.791 99.1856 88.3658 99.6599 89.227 99.8721C91.2614 100.374 93.3455 99.757 94.3835 97.8641C94.6543 97.3699 94.7952 96.4943 95.2674 96.2034L95.4796 96.3702L95.5222 96.9222C95.2456 97.858 94.9493 98.7757 94.3003 99.5263C93.4343 100.528 92.3183 101.043 91.0038 101.129C89.78 101.209 88.5586 100.923 87.6364 100.08C86.5204 99.0596 86.1357 97.5855 86.0596 96.1243Z" fill="#F7F7F9"/>
<path d="M100.295 62.3975C102.161 58.4345 104.883 54.8772 108.847 52.8431C110.139 52.18 111.773 51.5648 112.79 50.5173C113.251 50.0434 113.603 49.3508 113.556 48.6746C113.469 47.4 112.083 46.5652 111.213 45.8041C110.733 45.3839 110.098 44.8464 110.099 44.1453C110.1 43.5936 110.452 42.9068 110.852 42.5495C111.301 42.1484 111.899 42.0328 112.482 42.0985C115.493 42.4381 115.711 45.4166 117.271 47.3138C117.709 47.8473 118.258 48.214 118.959 48.2675C120.062 48.3517 121.297 47.6645 122.107 46.9708C123.196 46.0382 123.828 44.7639 124.085 43.3651C125.065 38.0404 120.953 34.6164 121.296 32.4216C121.369 31.9536 121.7 31.4367 122.083 31.1696C122.613 30.8001 123.279 30.7983 123.884 30.9434C125.231 31.2661 126.363 32.3533 127.044 33.5226C127.299 33.9596 127.643 34.5205 127.506 35.0402C128.243 35.6768 128.33 36.971 128.402 37.8966C128.547 39.7509 128.469 43.5482 127.26 45.0199C127.154 45.1483 127.028 45.2515 126.893 45.3468C127.045 45.917 126.656 46.5501 126.383 47.0313C125.885 47.9081 124.818 49.5208 123.848 49.8393C123.444 50.9431 120.52 52.1009 119.5 52.575C118.968 52.8226 118.428 53.0556 117.883 53.2737C112.647 55.4663 108.934 57.2744 105.191 61.7091L103.911 63.9047C102.761 63.2376 101.56 62.7875 100.295 62.3975Z" fill="#DBBB9A"/>
<path d="M119.162 51.635C119.137 51.6649 119.112 51.695 119.086 51.7246C118.796 52.0578 118.501 52.2872 118.135 52.5317L117.883 53.2737C112.647 55.4662 108.934 57.2744 105.191 61.709C105.285 61.3015 105.236 60.8542 105.41 60.4643C107.196 56.4443 115.24 53.1667 119.162 51.635Z" fill="#B1977F"/>
<path d="M124.022 48.6041C124.329 48.4198 124.591 48.11 124.802 47.8244C125.45 46.9477 126.875 44.8844 126.721 43.8145C126.919 44.3113 127.157 44.7313 126.937 45.2614C126.924 45.291 126.907 45.3183 126.893 45.3467C127.045 45.917 126.656 46.55 126.383 47.0312C125.885 47.9081 124.818 49.5208 123.848 49.8393C123.444 50.9431 120.52 52.1009 119.5 52.5749C118.968 52.8225 118.428 53.0556 117.883 53.2737L118.134 52.5317C118.5 52.2873 118.795 52.0578 119.086 51.7246C119.111 51.695 119.137 51.6649 119.162 51.6351C120.497 50.9857 123.367 49.9081 124.022 48.6041Z" fill="#B1977F"/>
<path d="M127.506 35.04C128.244 35.6767 128.33 36.9709 128.403 37.8965C128.548 39.7508 128.47 43.5481 127.261 45.0197C127.155 45.1481 127.028 45.2514 126.893 45.3466C126.908 45.3182 126.925 45.2908 126.937 45.2613C127.157 44.7312 126.92 44.3112 126.722 43.8143C126.787 43.7373 126.851 43.6699 126.902 43.5829C127.885 41.8964 128.053 36.957 127.506 35.04Z" fill="#A88B76"/>
<path d="M58.558 33.7477C59.05 31.9599 59.7666 30.0704 61.4583 29.0898C62.2397 28.6368 63.1288 28.5071 64.0042 28.7416C64.5686 28.893 65.1618 29.2697 65.4742 29.7749C65.7536 30.2267 65.747 30.7509 65.6089 31.2458C65.2043 32.6995 63.7896 33.569 62.9846 34.7733C61.3888 37.1599 61.5562 41.4181 62.8934 43.8875C63.5315 45.0658 64.3526 45.7902 65.5881 46.2788C67.2756 46.1057 68.065 45.6904 69.1559 44.364C70.3102 42.9609 71.5515 40.9229 73.5471 40.7015C74.3771 40.6094 75.1259 40.9765 75.7437 41.5056C75.9895 41.7163 76.136 41.9392 76.2773 42.2316C76.2976 42.7435 76.2542 43.0378 75.8987 43.4367C74.8257 44.6421 71.7112 45.5416 71.8138 47.452C71.8535 48.1932 72.4269 48.837 72.9657 49.2878C74.2453 50.3575 75.7337 51.1518 77.0572 52.1613C80.0058 54.4106 82.8197 58.0572 83.6355 61.7313C82.7318 62.0355 81.7892 62.3037 80.9181 62.6918C80.634 62.8391 80.3948 62.9424 80.0772 62.9931C79.7841 63.04 78.4639 60.2767 78.194 59.7929C77.0204 57.6863 74.8546 55.8622 72.9435 54.4507C70.5163 52.7143 67.8683 51.5147 65.1571 50.304C63.0125 49.1637 61.3903 47.5623 60.2341 45.4153C58.3925 41.9962 57.4429 37.5331 58.558 33.7477Z" fill="#DBBB9A"/>
<path d="M65.1562 49.3801C66.8622 50.2629 73.9542 52.8889 74.6992 54.3481C77.7716 56.217 79.5002 59.5052 80.9182 62.6916C80.6342 62.839 80.395 62.9423 80.0773 62.993C79.7843 63.0399 78.4641 60.2766 78.1942 59.7928C77.0205 57.6862 74.8547 55.8621 72.9437 54.4506C70.5164 52.7142 67.8685 51.5146 65.1572 50.3039L65.1562 49.3801Z" fill="#B1977F"/>
<path d="M65.1571 50.3041C63.0125 49.1638 61.3903 47.5625 60.2341 45.4154C58.3925 41.9964 57.4429 37.5332 58.558 33.7478C58.5126 34.6978 58.731 35.5371 58.8269 36.4708C59.2155 40.2498 59.7903 44.2547 62.425 47.2108C63.1713 48.0482 64.145 48.8837 65.1561 49.3803L65.1571 50.3041Z" fill="#B1977F"/>
<path d="M114.612 60.3734C117.954 58.4635 122.626 58.3504 126.252 59.3462C127.373 59.6542 128.593 60.0195 129.381 60.9221C129.855 62.1256 128.727 64.5662 128.228 65.7138C126.669 69.2944 123.649 72.3368 120.005 73.7606C118.188 74.4704 114.217 75.1901 112.407 74.4737C111.931 74.2851 111.758 73.9364 111.519 73.5123C112.077 73.3887 112.539 73.4744 113.033 73.1148C112.463 73.0101 111.894 72.8954 111.327 72.7708C110.751 71.4835 110.098 70.2501 109.426 69.0116C109.347 68.8377 109.352 68.6875 109.342 68.4998C109.848 67.4437 111.16 66.3544 112.03 65.5721C115.275 62.6548 119.745 60.7956 124.145 61.0666C125.056 61.1225 126.996 61.1363 127.628 61.8508L127.888 61.8242L128.054 61.567C128.005 61.3381 127.997 61.2481 127.793 61.1003C126.339 60.0451 122.007 60.3782 120.274 60.6312C118.21 60.3706 117.016 60.6089 115.069 61.3376C115.394 60.9709 116.091 60.68 116.298 60.2867C116.038 60.2687 115.728 60.2194 115.476 60.2787C115.193 60.345 114.902 60.3526 114.612 60.3734Z" fill="#F76946"/>
<path d="M114.613 60.3734C117.955 58.4635 122.627 58.3504 126.253 59.3462C127.373 59.6542 128.594 60.0195 129.381 60.9221C129.856 62.1256 128.728 64.5662 128.228 65.7138C126.669 69.2944 123.65 72.3368 120.006 73.7606C118.189 74.4704 114.218 75.1901 112.407 74.4737C111.931 74.2851 111.759 73.9364 111.52 73.5123C112.078 73.3887 112.54 73.4744 113.034 73.1148C114.685 73.0987 116.249 73.0532 117.848 72.6036C121.963 71.447 124.367 68.7813 126.392 65.1362C126.678 64.6221 127.083 63.9773 126.91 63.3698C127.414 62.9889 127.519 62.4369 127.628 61.8508L127.889 61.8242L128.054 61.567C128.005 61.3381 127.997 61.2481 127.793 61.1003C126.339 60.0451 122.008 60.3782 120.275 60.6312C118.211 60.3706 117.017 60.6089 115.069 61.3376C115.395 60.9709 116.092 60.68 116.298 60.2867C116.039 60.2687 115.728 60.2194 115.476 60.2787C115.193 60.345 114.903 60.3526 114.613 60.3734Z" fill="url(#paint0_linear_3039_4322)"/>
<path d="M127.628 61.8508L127.889 61.8242C127.658 64.6482 124.861 68.8234 122.697 70.6533C119.557 73.3081 115.811 73.8999 111.836 73.5426C111.731 73.5331 111.625 73.5232 111.52 73.5123C112.078 73.3886 112.54 73.4744 113.034 73.1148C114.685 73.0987 116.249 73.0532 117.848 72.6035C121.963 71.4469 124.367 68.7812 126.392 65.1362C126.678 64.6221 127.083 63.9772 126.91 63.3698C127.414 62.9889 127.519 62.4369 127.628 61.8508Z" fill="#1F0604"/>
<path d="M109.426 69.0116C109.347 68.8377 109.352 68.6875 109.342 68.4999C109.848 67.4438 111.16 66.3545 112.03 65.5722C115.275 62.6549 119.745 60.7956 124.145 61.0667C125.056 61.1226 126.996 61.1363 127.628 61.8508C127.518 62.4369 127.413 62.9889 126.909 63.3699L126.823 63.042C126.216 62.7999 125.506 62.8241 124.861 62.7933C122.228 62.6667 119.89 63.0335 117.463 64.0835C115.708 64.8525 114.036 65.8001 112.473 66.9107C111.506 67.5911 110.489 68.516 109.426 69.0116Z" fill="#DD432E"/>
<path d="M128.336 144.221C129.446 144.422 129.906 145.528 130.623 146.317C132.231 148.085 135.614 149.73 136.707 151.132C136.644 151.514 133.353 156.274 132.767 157.528C131.575 160.083 131.008 163.082 131.792 165.852C131.939 166.373 132.213 166.873 132.398 167.386C132.284 167.694 132.247 167.715 131.957 167.875C130.355 168.756 126.777 168.145 125.11 167.644C124.981 167.502 124.86 167.355 124.734 167.211C124.234 166.638 124.35 166.118 124.164 165.436C123.409 165.611 121.955 166.12 121.228 165.927C121.519 165.219 122.612 164.457 123.163 163.887C125.227 161.751 127.114 156.131 127.046 153.126C127.033 152.58 126.969 152.009 126.692 151.528C126.527 151.241 126.307 150.989 126.087 150.743C125.221 149.779 124.314 148.853 123.492 147.85C122.986 147.233 122.657 146.519 122.076 145.962C124.214 145.76 126.325 144.939 128.336 144.221Z" fill="#A5561D"/>
<path d="M85.142 140.168C85.8978 141.15 86.8025 141.909 87.7611 142.679C89.7279 143.921 91.6446 144.972 93.7982 145.853C93.6252 146.985 93.4644 148.113 93.3505 149.252C93.0362 151.557 92.3881 153.805 91.7812 156.046C91.4314 157.244 91.1266 158.454 90.8675 159.675C90.7201 161.508 90.5494 163.348 90.755 165.183C90.8723 166.23 91.2613 167.347 91.2381 168.387L90.7319 168.778C90.2105 168.494 89.2982 167.798 88.722 167.956C88.6114 167.987 88.5713 168.01 88.4753 168.055C88.3689 168.179 88.4205 168.131 88.2768 168.242C87.5432 168.809 86.4971 169.397 85.5362 169.223C85.1358 169.15 84.8087 168.94 84.605 168.582C84.1942 167.862 84.4202 167.034 84.5974 166.281C84.3469 166.123 82.3924 166.84 81.836 166.871C81.2977 166.902 81.0037 166.803 80.6113 166.444C80.8188 165.746 82.3886 164.615 82.9175 163.941C86.6578 159.168 86.751 150.221 86.0698 144.484C85.7243 143.055 85.4445 141.607 85.142 140.168Z" fill="#CF7A2F"/>
<path d="M87.7611 142.678C89.7279 143.92 91.6447 144.972 93.7982 145.853C93.6252 146.985 93.4645 148.113 93.3506 149.252L92.5314 149.317C90.8761 147.826 89.4396 146.311 88.0296 144.578C87.8457 143.853 87.3447 143.408 87.166 142.736L87.7611 142.678Z" fill="#A5561D"/>
<path d="M88.4749 168.055C88.4517 166.522 90.0801 161.014 90.8671 159.675C90.7196 161.507 90.549 163.347 90.7546 165.183C90.8718 166.229 91.2608 167.346 91.2377 168.387L90.7314 168.777C90.2101 168.493 89.2978 167.797 88.7216 167.956C88.611 167.987 88.5708 168.01 88.4749 168.055Z" fill="#A5561D"/>
<path d="M92.5318 149.317L93.3509 149.252C93.0366 151.556 92.3886 153.805 91.7816 156.046C91.7391 155.838 91.7041 155.631 91.6668 155.423C91.3402 153.59 92.1796 151.132 92.5318 149.317Z" fill="#A65F2D"/>
<path d="M85.1416 140.168C85.8974 141.15 86.8021 141.909 87.7607 142.679L87.1656 142.737C87.3443 143.408 87.8453 143.853 88.0292 144.578C87.7083 144.195 87.3887 143.79 87.0347 143.437C86.7832 143.186 86.6504 143.001 86.285 142.999C85.9376 143.375 86.0567 143.988 86.0695 144.484C85.7239 143.055 85.4441 141.607 85.1416 140.168Z" fill="#A65F2D"/>
<path d="M99.4071 109.952C99.7522 109.554 99.9039 109.385 100.462 109.34C101.13 109.286 101.758 109.58 102.245 110.022C103.332 111.01 103.991 112.584 104.03 114.039C104.084 116.07 103.062 118.042 101.679 119.471C98.9434 122.298 94.7465 123.548 90.9807 124.169C88.8758 124.447 86.8272 124.425 84.737 124.028L84.5957 123.773C84.9663 123.232 85.3709 122.679 85.6635 122.091C86.4954 120.422 86.381 118.79 85.7973 117.064C90.9665 115.798 96.0133 114.329 99.4071 109.952Z" fill="#F76946"/>
<path d="M99.4072 109.952C99.7523 109.554 99.904 109.385 100.462 109.34C101.13 109.286 101.758 109.58 102.245 110.022C103.332 111.01 103.991 112.584 104.03 114.039C104.084 116.07 103.062 118.042 101.679 119.471C98.9435 122.298 94.7466 123.548 90.9808 124.169C90.8191 124.084 90.8683 124.1 90.7284 124.053C90.4003 123.944 90.0879 123.82 89.7702 123.683L89.8279 123.609L89.4805 123.408C91.401 122.938 93.6273 122.334 95.3502 121.352C96.3707 120.77 97.3326 119.83 98.4325 119.428C98.6925 119.326 98.9667 119.22 99.2016 119.066C99.9116 118.6 100.05 118.079 100.212 117.294C100.572 116.651 100.7 115.655 100.77 114.923C100.941 113.147 100.546 111.345 99.4072 109.952Z" fill="#9C3A11"/>
<path d="M98.4321 119.428C98.382 119.419 98.3319 119.41 98.2823 119.4C97.6508 119.262 96.9087 118.921 96.5688 118.349C96.3632 118.003 96.3169 117.552 96.4138 117.165C96.5471 116.63 96.9621 116.115 97.4476 115.863C97.8862 115.636 98.3887 115.577 98.8566 115.745C99.5912 116.01 99.879 116.648 100.212 117.294C100.049 118.079 99.9112 118.6 99.2012 119.066C98.9663 119.22 98.6921 119.327 98.4321 119.428Z" fill="#FCFAF9"/>
<path d="M84.5957 123.773C85.5912 124.283 88.3147 123.583 89.4804 123.408L89.8278 123.609L89.7701 123.683C90.0878 123.82 90.4002 123.944 90.7282 124.053C90.8682 124.1 90.819 124.084 90.9807 124.169C88.8758 124.448 86.8272 124.425 84.737 124.028L84.5957 123.773Z" fill="#9C3A11"/>
<path d="M88.9259 118.258C89.0658 118.258 89.2028 118.261 89.3428 118.274C89.8826 118.323 90.5372 118.668 90.8492 119.114C91.0761 119.438 91.1233 119.867 91.0468 120.248C90.8927 121.012 90.3013 121.383 89.6963 121.773C89.4137 121.783 89.1135 121.801 88.8332 121.761C88.3818 121.696 87.8874 121.359 87.6515 120.971C87.4043 120.565 87.4019 120.062 87.5409 119.618C87.7749 118.873 88.2835 118.601 88.9259 118.258Z" fill="#FCFAF9"/>
<path d="M93.2774 104.372C94.9521 104.087 96.6126 103.796 98.2637 103.389C98.3724 104.535 98.5866 105.79 98.4859 106.934L98.6045 109.592C97.2096 111.227 95.2249 112.696 93.2727 113.596C93.0486 113.68 92.8407 113.765 92.6048 113.811C90.3454 114.944 87.6142 115.777 85.0934 115.972C83.6768 115.006 82.6785 114.723 80.9863 114.708C82.2999 111.68 82.9465 108.415 83.4466 105.168L83.63 103.501C86.7596 104.14 89.7432 104.591 92.9413 104.312L93.2774 104.372Z" fill="#F2DAA7"/>
<path d="M93.2773 104.372C94.952 104.087 96.6125 103.796 98.2636 103.389C98.3723 104.535 98.5864 105.79 98.4858 106.934L98.6044 109.592C97.2095 111.227 95.2247 112.696 93.2726 113.596C93.2088 113.513 93.1199 113.445 93.0816 113.348C93.0655 113.307 93.403 107.162 93.3851 106.459L93.2773 104.372Z" fill="#F76946"/>
<path d="M93.2773 104.372C94.952 104.087 96.6126 103.796 98.2636 103.389C98.3723 104.535 98.5865 105.79 98.4858 106.934C98.4201 106.455 98.3355 105.983 98.2452 105.508C97.6775 105.337 94.3106 106.341 93.3851 106.459L93.2773 104.372Z" fill="#A5561F"/>
<path d="M83.6297 103.5C86.7593 104.14 89.7428 104.591 92.941 104.312C92.9594 105.041 92.9358 105.798 93.0114 106.522C91.8018 106.116 90.0647 106.419 88.7635 106.266C86.9734 106.056 85.2387 105.347 83.4463 105.168L83.6297 103.5Z" fill="#D7B894"/>
<path d="M92.941 104.312L93.2771 104.372L93.3849 106.46C93.4028 107.162 93.0654 113.307 93.0814 113.348C93.1197 113.445 93.2086 113.513 93.2724 113.596C93.0483 113.681 92.8404 113.765 92.6045 113.811C92.8966 111.377 93.0086 108.97 93.0115 106.522C92.9358 105.798 92.9595 105.041 92.941 104.312Z" fill="#480F09"/>
<path d="M56.4365 60.1227C60.3319 58.9509 64.897 59.3992 68.4837 61.3267C70.8939 62.6211 72.9165 64.4482 74.3421 66.7921C74.2693 67.5569 72.2562 70.5395 71.8019 71.3891C69.4485 71.7468 67.042 71.445 64.8493 70.5158C60.97 68.8376 58.4019 65.6052 56.8752 61.7436L56.4365 60.1227Z" fill="#F76946"/>
<path d="M56.4365 60.1227C60.3319 58.9509 64.897 59.3992 68.4837 61.3267C70.8939 62.6211 72.9165 64.4482 74.3421 66.7921C73.263 66.1904 72.3214 65.3408 71.3406 64.5936C69.0954 62.8827 66.4914 61.6143 63.6874 61.1926C61.8648 60.9187 58.3958 60.6183 56.8752 61.7436L56.4365 60.1227Z" fill="#DD432E"/>
<path d="M120.673 141.268C121.772 140.924 125.192 140.102 126.001 139.486C126.516 140.1 127.956 142.522 127.906 143.307C127.904 143.347 127.897 143.386 127.893 143.426C127.098 143.943 126 144.205 125.092 144.498C119.497 146.306 112.406 147.58 106.535 146.917C106.838 145.825 107.105 144.723 107.336 143.613C107.385 143.085 107.384 142.528 107.663 142.064C109.07 141.886 110.686 142.345 112.118 142.398C114.904 142.5 117.974 141.917 120.673 141.268Z" fill="#BEBC66"/>
<path d="M107.337 143.613C107.386 143.085 107.385 142.528 107.664 142.064C109.071 141.886 110.687 142.345 112.119 142.398C114.905 142.5 117.975 141.917 120.674 141.268L120.941 141.689C120.778 142.109 120.567 142.237 120.166 142.422C117.435 143.683 110.274 144.827 107.437 143.656C107.403 143.642 107.37 143.627 107.337 143.613Z" fill="#F2DAA7"/>
<path d="M47.6039 33.9164C47.9224 33.2722 48.241 32.6423 48.9633 32.3769C49.505 32.1778 50.2069 32.1725 50.7254 32.4341C51.296 32.7222 51.6018 33.3315 51.7611 33.9239C52.3264 36.0277 51.7058 39.589 53.9798 40.8654C54.625 41.2277 55.5789 41.2007 56.2667 40.9726C56.7299 40.8189 57.1969 40.6045 57.6289 40.3775C57.9163 42.2391 58.6551 43.9297 59.4298 45.6331C59.9526 46.3983 60.4329 47.1936 60.924 47.9798C56.3626 46.6135 51.3168 45.2558 48.709 40.8844C47.4408 38.7585 47.0163 36.3231 47.6039 33.9164Z" fill="#DBBB9A"/>
<path d="M47.6039 33.9165C47.6299 34.7248 47.9617 35.3691 48.2235 36.1125C49.046 38.4479 49.6524 40.4025 51.5361 42.1805C53.258 43.8058 55.2844 44.703 57.4796 45.4876C57.87 45.6271 58.4727 45.9169 58.8777 45.9109C59.1954 45.9063 59.2091 45.8638 59.4298 45.6332C59.9526 46.3984 60.4329 47.1937 60.924 47.9799C56.3626 46.6136 51.3168 45.2559 48.709 40.8845C47.4408 38.7586 47.0163 36.3232 47.6039 33.9165Z" fill="#B1977F"/>
<path d="M139.499 171.269C139.958 171.123 140.568 171.006 140.981 170.775C142.11 171.574 142.851 172.546 144.151 173.169C144.243 173.213 144.208 173.191 144.279 173.251C145.43 173.262 146.585 173.202 147.453 172.353C147.599 172.211 147.712 172.095 147.764 171.89C148.358 172.956 148.543 174.836 148.217 176C147.955 176.939 147.376 177.61 146.536 178.083C145.745 178.527 144.682 178.587 143.793 178.624C141.513 179.128 137.602 179.059 135.515 177.93C135.476 177.902 135.437 177.875 135.4 177.847C135.102 177.621 134.898 177.344 134.86 176.964C134.762 175.981 135.465 174.954 136.036 174.221C136.729 173.333 138.377 171.4 139.499 171.269Z" fill="#1E8436"/>
<path d="M139.499 171.269C139.958 171.123 140.568 171.006 140.981 170.775C142.111 171.574 142.851 172.546 144.152 173.169C144.243 173.213 144.208 173.191 144.28 173.251C145.43 173.262 146.585 173.202 147.454 172.353C147.599 172.211 147.712 172.095 147.765 171.89C148.358 172.956 148.543 174.836 148.218 176C147.955 176.939 147.377 177.61 146.536 178.083C145.745 178.527 144.682 178.587 143.793 178.624C143.877 178.605 143.923 178.6 143.999 178.567C144.727 178.246 146.089 176.771 146.361 176.025C146.501 175.642 146.549 175.243 146.349 174.871C145.922 174.076 144.165 173.836 143.312 173.597C142.005 173.329 141.182 172.493 139.996 172.029C139.92 171.678 139.731 171.529 139.499 171.269Z" fill="#145B29"/>
<path d="M135.515 177.93C135.476 177.902 135.437 177.875 135.4 177.847C135.102 177.622 134.898 177.344 134.86 176.964C134.762 175.981 135.465 174.954 136.036 174.221C136.729 173.333 138.377 171.4 139.499 171.27C139.73 171.53 139.919 171.678 139.996 172.029C140.251 172.652 139.983 173.348 139.739 173.939C139.065 175.568 137.292 177.206 135.674 177.867C135.621 177.889 135.567 177.909 135.515 177.93Z" fill="#6CAB2B"/>
<path d="M126.485 48.1344C127.542 46.9677 127.757 45.6546 128.373 44.2783C128.51 43.9735 128.606 43.6835 128.921 43.5576C129.218 43.7549 129.521 43.9571 129.869 44.0502C130.78 44.2937 131.762 44.0128 132.549 43.5342C134.576 42.3017 134.389 39.8868 134.902 37.8212C135.077 37.1144 135.448 36.1351 136.138 35.7799C136.607 35.5388 137.172 35.653 137.638 35.8485C138.08 36.0345 138.282 36.1287 138.461 36.5774C138.987 36.8548 139.292 37.2188 139.458 37.7913C139.912 39.3587 139.318 41.328 138.538 42.6936C136.925 45.5119 133.188 48.009 130.085 48.8458C129.942 48.8844 129.811 48.9051 129.664 48.9241C128.737 49.8647 125.465 50.455 124.111 50.6345C125.12 50.0713 125.897 49.1111 126.485 48.1344Z" fill="#DBBB9A"/>
<path d="M138.461 36.5776C138.987 36.855 139.292 37.219 139.458 37.7916C139.912 39.3589 139.318 41.3283 138.538 42.6938C136.925 45.5121 133.188 48.0092 130.085 48.846C129.942 48.8846 129.811 48.9053 129.664 48.9243C128.737 49.8649 125.465 50.4552 124.111 50.6347C125.12 50.0715 125.897 49.1113 126.485 48.1347L126.586 48.4791C126.979 48.4998 127.365 48.4553 127.753 48.3925C130.934 47.8762 135.06 45.0696 136.93 42.4163C138.157 40.6754 138.829 38.7099 138.461 36.5776Z" fill="#B1977F"/>
<path d="M124.111 50.6346C125.12 50.0714 125.897 49.1111 126.485 48.1345L126.586 48.479C127.636 48.7983 128.717 48.3287 129.664 48.9242C128.737 49.8648 125.465 50.455 124.111 50.6346Z" fill="#A88B76"/>
<path d="M93.4133 171.328C93.9153 170.938 94.361 170.564 94.9788 170.382C95.4486 170.446 95.572 170.497 95.8608 170.905C96.5519 171.881 96.9844 172.954 98.298 173.208C99.5922 173.459 100.96 172.836 102.012 172.133C102.086 174.113 102.455 175.989 101.014 177.57C100.267 177.812 99.5813 178.024 98.7929 178.091C95.7242 178.683 92.1002 178.899 89.309 177.268C89.0505 176.827 88.964 176.444 89.1001 175.941C89.5827 174.157 91.8544 172.222 93.4133 171.328Z" fill="#1E8436"/>
<path d="M93.4141 171.328C93.916 170.938 94.3618 170.564 94.9796 170.382C95.4494 170.446 95.5728 170.497 95.8616 170.905C96.5526 171.881 96.9852 172.954 98.2987 173.208C99.5929 173.459 100.961 172.836 102.013 172.133C102.087 174.113 102.455 175.989 101.015 177.57C100.268 177.812 99.5821 178.024 98.7936 178.091C99.1699 177.722 99.5499 177.345 99.8969 176.949C100.205 176.597 100.44 176.181 100.379 175.694C100.191 174.183 96.8892 173.764 95.7789 173.27C95.266 173.041 94.7985 172.634 94.366 172.281L93.4141 171.328Z" fill="#145B29"/>
<path d="M93.4133 171.328L94.3653 172.281C92.7671 174.028 91.2824 175.914 89.309 177.267C89.0505 176.827 88.964 176.444 89.1001 175.941C89.5827 174.157 91.8544 172.222 93.4133 171.328Z" fill="#6CAB2B"/>
<path d="M81.5171 168.384L81.7723 168.543C82.3769 168.797 82.8046 169.08 83.3 169.511C83.7174 169.625 84.1376 169.759 84.5625 169.842L84.727 169.9C86.7222 170.588 89.0582 168.199 89.7592 169.752C90.1893 170.705 89.8802 172.504 89.4581 173.423C89.1135 174.173 88.6006 174.804 87.8013 175.079C87.4369 175.204 87.02 175.248 86.6385 175.303C86.4953 175.333 86.3564 175.36 86.2112 175.38C84.0587 175.685 79.6519 175.847 77.8746 174.418C77.5295 174.14 77.2681 173.834 77.2109 173.383C77.8708 171.346 79.8986 169.689 81.5171 168.384Z" fill="#1E8436"/>
<path d="M84.5614 169.842L84.7258 169.9C86.721 170.588 89.057 168.199 89.758 169.752C90.1881 170.705 89.879 172.504 89.4569 173.423C89.1123 174.173 88.5994 174.804 87.8001 175.079C87.4357 175.204 87.0188 175.248 86.6374 175.303C87.1266 174.698 87.7212 174.057 88.0606 173.355C88.2823 172.896 88.3768 172.505 88.1981 172.01C87.4173 171.096 85.7265 171.17 84.6015 170.986C84.1104 170.53 83.7077 170.041 83.2988 169.511C83.7162 169.625 84.1364 169.759 84.5614 169.842Z" fill="#145B29"/>
<path d="M81.5171 168.384L81.7723 168.543C81.2651 170.172 79.2482 172.409 77.7446 173.238C77.5688 173.335 77.408 173.362 77.2109 173.383C77.8708 171.346 79.8986 169.689 81.5171 168.384Z" fill="#6CAB2B"/>
<path d="M79.2631 124.641C80.8489 124.77 82.1833 124.702 83.7355 124.337L83.6216 125.851C83.6481 126.582 83.6188 127.369 83.7753 128.086C84.3297 128.706 84.5481 129.465 84.7632 130.253C85.1715 132.224 86.5645 133.723 87.7826 135.25C86.2932 134.943 84.9456 134.55 83.5824 133.864C82.915 135.91 82.0708 136.712 80.2259 137.778C80.9014 135.59 81.0989 134.049 80.277 131.85C79.9938 131.142 79.7513 130.415 79.4942 129.697C79.4138 129.505 79.342 129.309 79.2787 129.111C78.9454 128.062 78.355 125.669 78.8428 124.715L79.2631 124.641Z" fill="#F76946"/>
<path d="M79.2631 124.641C80.8489 124.77 82.1833 124.702 83.7355 124.337L83.6216 125.851C83.6481 126.582 83.6188 127.369 83.7753 128.086C82.1629 128.392 80.8905 128.784 79.4942 129.697C79.4138 129.505 79.342 129.309 79.2787 129.111C78.9454 128.062 78.355 125.669 78.8428 124.715L79.2631 124.641Z" fill="#F76946"/>
<path d="M79.2637 124.641C80.8495 124.77 82.1839 124.702 83.7362 124.337L83.6222 125.851C83.3585 125.837 83.0947 125.819 82.8314 125.796C81.5339 125.69 80.166 125.706 79.2637 124.641Z" fill="#9C3A11"/>
<path d="M83.7762 128.086C84.3306 128.706 84.549 129.465 84.7641 130.254C83.1215 130.377 81.4931 130.63 80.2779 131.85C79.9947 131.143 79.7523 130.415 79.4951 129.697C80.8914 128.784 82.1639 128.392 83.7762 128.086Z" fill="#FCFAF9"/>
<path d="M80.7566 115.749C81.865 115.577 82.8874 115.493 83.8384 116.198C84.5711 116.741 84.9445 117.567 85.0523 118.459C85.2059 119.728 84.9251 121.202 84.105 122.209C83.4367 123.029 82.4573 123.503 81.4112 123.596C80.4243 123.685 79.2142 123.566 78.4229 122.905C78.1053 122.639 77.8089 122.195 77.6511 121.815C77.2412 120.564 77.2427 119.386 77.8274 118.176C78.4584 116.87 79.4217 116.209 80.7566 115.749Z" fill="#CF7B31"/>
<path d="M77.6511 121.816C77.2412 120.564 77.2427 119.386 77.8274 118.177C78.4584 116.87 79.4217 116.209 80.7566 115.75C81.1777 115.785 81.6877 115.773 82.0843 115.916C80.6247 116.624 79.0313 117.097 78.4749 118.775C78.2192 119.545 78.2183 121.329 77.6511 121.816Z" fill="#D7B894"/>
<path d="M75.7821 122.385C76.4315 122.854 77.1094 123.305 77.7352 123.805C77.7177 125.231 77.8472 126.855 77.5858 128.251C77.384 128.888 77.2162 129.633 76.7307 130.116C75.7896 131.043 74.4638 133.659 73.5926 134.893C73.534 134.067 73.535 133.136 73.3133 132.339C72.6666 130.009 69.5285 129.885 67.6709 128.85C69.442 128.572 70.6596 128.147 72.0753 127.002C72.5097 126.485 72.9796 126.034 73.4768 125.579C74.2459 124.516 75.039 123.465 75.7821 122.385Z" fill="#F76946"/>
<path d="M75.7818 122.385C76.4313 122.854 77.1091 123.305 77.7349 123.805C77.7174 125.231 77.847 126.855 77.5856 128.251C76.5764 126.765 75.1267 126.081 73.4766 125.579C74.2456 124.516 75.0388 123.465 75.7818 122.385Z" fill="#F76946"/>
<path d="M73.4767 125.579C75.1268 126.082 76.5765 126.765 77.5857 128.251C77.3839 128.888 77.2161 129.633 76.7306 130.116C75.4345 128.741 73.7768 127.773 72.0752 127.002C72.5096 126.485 72.9794 126.034 73.4767 125.579Z" fill="#FCFAF9"/>
<path d="M55.575 58.1789C57.8963 57.4054 61.3837 56.4774 63.7958 57.1916C68.023 57.4385 72.4024 59.7816 75.1808 62.9415C75.3817 63.1694 75.5769 63.4021 75.7659 63.6399C76.1389 64.0417 76.3379 64.533 76.5657 65.0253L74.9175 66.5434C73.6536 64.6904 72.2998 62.9922 70.4701 61.6674C66.8597 59.0538 61.9514 58.4147 57.6392 59.1135C57.1584 59.0633 56.699 58.9108 56.2358 58.7776C55.8189 58.9572 55.4795 59.0861 55.0186 59.1173C55.0134 58.7151 55.3249 58.4838 55.575 58.1789Z" fill="#A5561D"/>
<path d="M63.7964 57.1914C68.0236 57.4383 72.403 59.7814 75.1814 62.9413C75.3823 63.1692 75.5775 63.4018 75.7666 63.6397C75.6167 63.8562 75.5047 64.0017 75.2769 64.1462C74.3396 63.5805 73.6367 62.5305 72.7986 61.8184C70.8951 60.2012 68.1489 59.137 65.8015 58.3622L65.9164 58.2409C66.3503 58.1377 67.1194 58.478 67.5575 58.6035L67.559 58.4671C66.823 57.7582 64.8122 57.7204 63.7832 57.3424L63.7964 57.1914Z" fill="#CF7B31"/>
<path d="M55.575 58.1789C57.8963 57.4054 61.3837 56.4774 63.7958 57.1916L63.7826 57.3426C64.8116 57.7206 66.8224 57.7584 67.5583 58.4673L67.5569 58.6037C67.1187 58.4782 66.3497 58.1379 65.9158 58.2411L65.8009 58.3624C62.6557 58.0598 59.2151 57.393 56.2358 58.7776C55.8189 58.9572 55.4795 59.0861 55.0186 59.1173C55.0134 58.7151 55.3249 58.4838 55.575 58.1789Z" fill="#CF7A2F"/>
<path d="M55.5752 58.179C55.3251 58.484 55.0136 58.7152 55.0188 59.1174C55.4797 59.0862 55.8191 58.9573 56.236 58.7777C56.6992 58.9109 57.1586 59.0634 57.6394 59.1136L55.8177 59.7026C56.9842 65.6362 61.1084 70.7036 67.2367 71.8574C68.356 72.0682 70.3322 71.8394 71.2469 72.4899C70.9339 72.8093 70.3218 72.8704 69.8841 72.9202C66.4009 73.3172 62.5614 72.1208 59.8454 69.9223C56.8476 67.4959 54.4823 63.052 54.0801 59.2444C54.5584 58.7839 54.9536 58.4257 55.5752 58.179Z" fill="#A65F2D"/>
<path d="M74.8491 114.973C75.7349 113.057 77.2612 111.517 79.2644 110.801C80.024 110.53 80.7368 110.507 81.5309 110.469C81.0431 111.946 80.5487 113.428 79.8879 114.837C78.4008 115.782 77.4989 116.678 76.6311 118.235C76.434 117.893 76.4113 117.519 76.3569 117.134C75.7529 117.745 75.2764 118.005 74.4473 118.223C74.245 116.989 74.3145 116.114 74.8491 114.973Z" fill="#F26743"/>
<path d="M74.8491 114.973C75.3898 115.01 75.7429 115.027 76.1915 115.364C76.4822 115.753 76.5517 116.09 76.4784 116.573C76.4496 116.762 76.4042 116.949 76.3569 117.134C75.7529 117.745 75.2764 118.005 74.4473 118.223C74.245 116.989 74.3145 116.114 74.8491 114.973Z" fill="#FCFAF9"/>
<path d="M114.612 60.3733C114.902 60.3525 115.193 60.3449 115.476 60.2786C115.728 60.2193 116.038 60.2686 116.298 60.2866C116.091 60.6799 115.394 60.9708 115.069 61.3375C117.016 60.6088 118.21 60.3705 120.274 60.6311C115.322 61.9293 112.226 64.2415 108.823 67.9795L107.778 66.8726C107.499 66.6182 107.286 66.3941 107.096 66.0662C107.119 65.9359 107.137 65.8312 107.205 65.7151C108.279 63.8805 112.606 61.0765 114.612 60.3733Z" fill="#CF7A2F"/>
<path d="M114.612 60.3733C114.902 60.3525 115.193 60.3449 115.476 60.2786C115.728 60.2193 116.038 60.2686 116.298 60.2866C116.091 60.6799 115.394 60.9708 115.069 61.3375C112.584 62.7869 109.476 64.4671 107.778 66.8726C107.499 66.6182 107.286 66.3941 107.096 66.0662C107.119 65.9359 107.137 65.8312 107.205 65.7151C108.279 63.8805 112.606 61.0765 114.612 60.3733Z" fill="#CF7B31"/>
<path d="M74.4473 118.224C75.2763 118.005 75.7528 117.745 76.3569 117.135C76.4112 117.519 76.4339 117.894 76.631 118.235C76.2936 119.306 76.2893 120.408 76.3186 121.518C75.499 120.462 74.849 119.524 74.4473 118.224Z" fill="#F76946"/>
<path d="M81.5166 168.384C82.0389 168.104 82.6704 167.661 83.2769 167.741C83.8635 168.049 84.2024 169.269 84.5621 169.842C84.1371 169.759 83.7169 169.625 83.2996 169.511C82.8042 169.081 82.3764 168.798 81.7719 168.543L81.5166 168.384Z" fill="#234D23"/>
<path d="M81.5352 86.881C82.836 86.1428 84.3916 85.6718 85.4617 84.5906L85.75 85.6642C85.4121 85.8021 84.5598 86.049 84.3883 86.3318L84.4747 86.3754C84.22 86.5607 84.0682 86.6758 83.7487 86.6938C83.0458 86.6337 82.2394 86.8047 81.5352 86.881Z" fill="#CF7A2F"/>
<defs>
<linearGradient id="paint0_linear_3039_4322" x1="123.563" y1="71.1802" x2="115.493" y2="60.493" gradientUnits="userSpaceOnUse">
<stop stop-color="#A36038"/>
<stop offset="1" stop-color="#E0914D"/>
</linearGradient>
</defs>
</svg>
