<svg width="200" height="200" viewBox="0 0 200 200" fill="none" xmlns="http://www.w3.org/2000/svg">
<g opacity="0.7">
<path d="M100.946 150.98C84.5849 150.056 70.6582 143.924 60.1889 131.076C56.6342 126.745 55.0273 121.441 54.3456 115.844C52.6899 102.024 57.2185 89.5168 62.9158 77.3506C70.0739 61.9725 79.7154 48.1518 90.2822 34.9636C93.0578 31.5084 96.0281 28.1992 98.9011 24.7927C99.5341 24.0141 100.07 23.5761 100.995 24.598C117.356 42.7986 131.721 62.3619 140.486 85.4776C143.262 92.7287 145.015 100.32 145.258 108.058C145.599 119.154 142.678 129.471 134.838 137.646C128.946 143.778 121.349 147.233 113.169 149.374C109.176 150.445 105.134 151.126 100.946 150.98Z" fill="#B0B0B0"/>
<path d="M99.9736 28.7336C109.81 39.6832 118.526 51.1194 125.928 63.5289C131.869 73.4079 136.884 83.6761 139.708 94.9177C141.9 103.531 142.63 112.145 140.293 120.856C136.689 134.385 126.999 141.636 114.29 145.529C102.408 149.179 90.9164 147.816 79.8627 142.317C78.4019 141.587 76.9897 140.809 75.6263 139.981C60.044 130.638 54.7363 118.277 58.4371 100.514C60.531 90.5865 64.3779 81.3889 69.1499 72.5319C77.5741 56.8132 88.1408 42.4571 99.9736 28.7336Z" fill="#E8F8FE"/>
</g>
<mask id="mask0_3039_11979" style="mask-type:alpha" maskUnits="userSpaceOnUse" x="54" y="24" width="92" height="127">
<g opacity="0.7">
<path d="M100.963 150.898C84.6118 149.974 70.6943 143.846 60.2318 131.007C56.6794 126.678 55.0735 121.377 54.3922 115.785C52.7377 101.973 57.2633 89.4741 62.9569 77.3158C70.1103 61.9478 79.7456 48.136 90.3054 34.9565C93.0792 31.5035 96.0476 28.1965 98.9187 24.7922C99.5513 24.014 100.087 23.5763 101.011 24.5976C117.362 42.7864 131.717 62.3369 140.477 85.4376C143.251 92.6839 145.002 100.271 145.246 108.003C145.586 119.092 142.667 129.402 134.832 137.572C128.944 143.7 121.352 147.153 113.177 149.293C109.187 150.363 105.148 151.044 100.963 150.898Z" fill="#B0B0B0"/>
<path d="M99.9897 28.7307C109.82 39.6731 118.53 51.1019 125.927 63.5033C131.864 73.3758 136.876 83.6374 139.699 94.8716C141.888 103.48 142.618 112.088 140.283 120.793C136.682 134.313 126.998 141.559 114.297 145.45C102.423 149.097 90.9385 147.736 79.892 142.24C78.4321 141.511 77.0209 140.733 75.6583 139.906C60.0862 130.568 54.782 118.215 58.4803 100.464C60.5728 90.5433 64.4172 81.3517 69.1862 72.5004C77.6048 56.792 88.1647 42.4452 99.9897 28.7307Z" fill="#E8F8FE"/>
</g>
</mask>
<g mask="url(#mask0_3039_11979)">
<g opacity="0.7">
<path d="M120.395 23.144C121.749 23.4706 123.001 24.7657 123.7 25.9261C124.57 27.3687 125.102 29.2678 125.279 30.9402C125.368 31.7913 125.08 35.1364 125.353 35.572C125.517 35.8336 125.797 35.9585 126.079 36.0306C126.539 36.1482 127.221 36.0477 127.68 35.9531L127.738 35.9869C128.173 35.8295 128.362 35.7866 128.642 35.3963C129.35 34.4054 129.736 32.5636 129.519 31.3791C129.749 30.9204 129.903 30.6351 129.798 30.1032C130.259 28.9978 130.453 28.2942 131.562 27.6939C132.606 27.418 133.661 27.4458 134.618 28.017C134.98 28.2328 135.223 28.5035 135.474 28.8387L135.529 29.2149C136.17 29.7076 136.273 30.1204 136.372 30.91C136.614 32.8485 136.038 35.551 134.807 37.0705C134.489 37.4632 134.116 37.9122 133.66 38.1405C133.633 38.156 133.605 38.171 133.578 38.1869C133.083 38.479 132.811 38.9512 132.317 39.2331L132.502 38.957C132.47 38.9844 132.439 39.0124 132.406 39.0391C131.844 39.5065 131.217 39.7804 130.477 39.7247C129.736 40.2739 128.874 40.9416 127.953 41.1145C127.462 41.6681 126.346 42.0689 125.659 42.3415L126.481 42.4352L126.513 42.5603C126.313 42.7824 126.093 42.9982 125.937 43.2535C119.344 45.8146 105.437 50.805 102.385 57.6999C102.234 58.0429 102.178 58.3426 102.195 58.7214C102.44 59.1716 102.595 59.2383 103.025 59.4842C103.127 59.4737 103.234 59.4875 103.331 59.4527C103.63 59.3441 104.67 57.8733 104.973 57.5503C105.9 56.5622 106.939 55.6855 108.068 54.9385C112.263 52.1768 116.517 50.8159 121.528 51.1799C123.211 51.3021 125.374 51.7994 126.705 52.8903C127.128 53.2362 127.305 53.64 127.351 54.1767C127.634 57.4279 125.172 62.1522 123.105 64.5444C120.282 67.8123 117.023 69.2844 112.771 69.5722C111.826 69.6442 110.877 69.6642 109.93 69.6327C111.869 73.4237 114.091 82.7924 112.728 86.9517C111.336 91.2 106.925 94.3178 103.115 96.215C101.376 97.0807 99.3742 97.9916 97.5083 98.5229C97.3529 100.228 97.4109 101.893 97.3405 103.595C98.8406 103.604 100.174 103.832 101.281 104.94C102.881 106.542 102.782 109.175 102.921 111.288C103.578 111.38 104.186 111.494 104.817 111.701C108.889 112.46 112.847 112.825 116.962 112.14L116.624 112.72L116.705 112.969L117.008 113.082C118.683 112.921 120.37 112.698 122.005 112.297C123.372 112.151 124.787 111.743 126.136 111.456L127.492 111.142C129.533 110.682 131.657 110.825 133.72 111.015L134.242 110.964L134.315 110.806C134.378 110.664 134.402 110.586 134.533 110.492C134.672 110.393 134.809 110.298 134.945 110.195C136.264 110.169 138.26 110.903 139.314 111.665C140.9 109.836 142.747 107.959 145.149 107.296C147.548 106.634 149.124 106.693 151.325 105.215C151.584 105.06 151.781 104.649 151.938 104.395C152.633 103.271 153.023 101.948 152.711 100.63C152.715 100.602 152.721 100.574 152.724 100.547C152.807 99.8007 152.237 99.2318 152.351 98.4762C152.611 98.2999 152.656 98.2851 152.971 98.3404C154.303 98.5757 155.56 100.118 156.256 101.183C156.274 101.339 156.315 101.518 156.302 101.674C156.806 101.903 157.05 102.458 157.235 102.952C157.794 104.444 157.045 106.174 157.547 107.508C157.908 107.519 158.06 107.355 158.35 107.163C158.613 107.458 158.537 108.015 158.517 108.407C158.436 109.944 156.404 112.084 156.552 112.493L157.159 112.656C157.21 113.143 156.485 114.027 156.161 114.421C154.574 116.351 151.776 117.592 149.324 117.808C147.95 117.928 146.687 117.671 145.342 117.684C149.611 125.789 143.446 133.838 145.124 139.542C146.289 143.502 151.595 145.222 151.495 148.881C151.456 150.311 150.873 151.929 150.447 153.295C150.306 153.745 150.169 154.11 149.782 154.404C149.858 154.673 149.073 159.394 148.934 159.657C148.91 159.702 148.882 159.746 148.856 159.791C149.103 160.421 149.042 160.996 149.143 161.649C149.35 162.937 149.757 164.183 150.348 165.345C150.406 165.461 150.418 165.57 150.424 165.697C150.947 166.052 151.34 166.275 151.515 166.912C151.366 167.303 151.134 167.519 150.749 167.679C150.278 167.873 149.743 168.035 149.239 168.102C149.997 169.055 150.291 171.228 150.145 172.431C150.014 173.519 149.48 174.423 148.62 175.094C146.33 176.878 142.091 177.247 139.291 176.862C137.72 176.646 136.634 176.059 135.498 174.977C135.517 173.887 135.665 172.806 135.687 171.717C136.237 171.004 138.207 168.829 138.354 168.158C138.166 167.858 137.721 167.737 137.401 167.586C137.073 167.35 137.046 167.302 136.901 166.923C137.366 165.547 139.257 163.992 140.016 162.538C140.676 161.274 142.001 156.953 141.569 155.599C141.624 155.499 141.671 155.396 141.708 155.288C142.073 154.241 141.7 152.591 141.229 151.624C141.211 151.314 141.131 151.227 140.968 150.969C140.904 150.482 140.482 150.11 140.107 149.824C138.745 148.786 135.217 146.985 133.551 146.466C134.008 146.891 134.649 147.382 134.706 148.056C134.895 150.272 128.943 155.681 128.907 161.508C128.898 162.887 129.442 164.038 129.663 165.356C129.72 165.693 129.659 165.945 129.493 166.236C129.156 166.404 128.892 166.319 128.535 166.251C128.036 166.508 127.839 166.779 127.672 167.32C127.225 168.77 127.655 170.673 126.432 171.757C124.152 172.596 121.431 172.68 119.031 172.461L117.657 172.296C116.859 172.212 116.045 172.072 115.285 171.811C114.485 171.535 113.421 171.087 113.067 170.239C112.848 169.717 113.03 169.188 113.223 168.695C113.842 167.047 115.497 165.344 116.997 164.449C116.99 164.4 116.985 164.351 116.978 164.302C116.936 164.027 116.79 163.776 116.667 163.53C116.66 163.137 116.747 162.879 117.015 162.585C117.604 161.939 118.473 161.581 119.065 160.934C121.278 158.51 122.803 153.924 122.931 150.672C122.941 150.416 122.911 150.162 122.862 149.912C122.64 148.907 119.057 145.357 118.224 142.739C115.411 143.495 112.706 143.776 109.796 143.79C108.328 143.797 106.8 143.668 105.345 143.859C104.789 145.805 104.149 147.772 103.739 149.753C102.945 153.588 102.129 160.891 104.062 164.4C104.526 165.243 105.923 167.079 105.679 168.006C105.162 168.618 104.158 168.762 103.416 168.962C103.592 170.577 103.657 173.095 102.615 174.423C101.807 175.453 99.5129 175.67 98.2614 175.799C95.8899 176.042 91.6796 176.339 89.7253 174.757C89.2492 174.371 88.9436 173.858 88.8876 173.239C88.7602 171.836 89.7923 170.211 90.6675 169.206C91.309 168.468 92.0478 167.798 92.8774 167.28C92.3415 167.089 91.8601 166.969 91.5294 166.473C91.4292 166.066 91.3669 165.88 91.5845 165.486C92.1267 164.507 93.412 164.013 93.9489 163.007C96.825 157.618 95.2332 151.419 94.0881 145.786C93.8429 144.58 93.5099 143.387 93.1891 142.199C92.3225 144.24 91.1198 146.038 90.1306 148.007C88.5379 151.177 86.8368 155.986 88.2238 159.449C88.6956 160.626 90.1467 162.025 89.8141 163.305C89.281 163.888 88.6609 163.877 87.9249 163.945C88.258 165.567 88.8481 167.839 87.8427 169.316C86.8582 170.761 83.8529 171.353 82.2079 171.628C80.1467 171.972 77.1242 172.371 75.3234 171.101C74.7299 170.683 74.2923 170.039 74.1745 169.315C74.0656 168.647 74.3517 167.997 74.5774 167.382C75.1571 165.846 76.3573 163.782 77.8768 163.088C77.4145 162.522 76.5464 162.45 76.0812 161.803C75.9639 161.321 76.0489 161.126 76.1834 160.662L77.8241 158.999C79.0248 157.543 79.537 154.977 80.0778 153.206C80.2127 152.457 80.4032 151.71 80.5676 150.967C80.9919 149.046 81.1654 147.082 81.4989 145.144C81.6006 142.203 81.9095 139.006 81.24 136.122C81.0129 135.299 80.9188 134.424 80.7853 133.581C79.8245 134.035 78.8243 134.213 77.7913 134.423C78.0821 133.514 78.3458 132.594 78.6219 131.68C78.6433 130.309 78.3962 129.222 78.0127 127.916C77.463 126.995 76.9874 126.152 76.7156 125.103C76.0556 126.715 74.1246 131.358 72.5931 132.082C72.3432 132.2 72.2686 132.125 72.032 132.027C71.6362 131.322 71.6975 130.261 71.5179 129.467C71.4219 129.06 71.2489 128.542 70.9662 128.222C70.3651 127.543 69.1697 127.6 68.331 127.54C68.0749 127.491 67.8198 127.434 67.5713 127.353C66.8314 127.114 65.176 126.501 64.8396 125.725C64.7094 125.425 64.7935 125.332 64.9109 125.05C65.4478 124.95 65.9823 124.836 66.514 124.71C69.9518 123.891 71.6039 120.205 73.3168 117.414C72.9129 117.032 72.6193 116.605 72.3404 116.125C71.4048 114.516 71.2219 112.772 71.7022 110.977C72.3294 108.636 73.7221 107.219 75.7605 106.062C77.0073 105.485 78.3083 105.192 79.6715 105.07C80.3258 103.099 80.6769 100.933 81.125 98.9002C78.7934 98.0388 76.5027 97.2579 74.3864 95.9206C71.1629 93.8828 66.7459 90.2386 65.8636 86.3127C65.4697 84.489 65.5633 83.063 65.8849 81.2501C66.9764 77.5316 67.7086 73.8439 68.4365 70.0453C65.8431 69.465 63.1214 70.3598 60.4867 68.7937C60.3556 68.7704 60.2444 68.7508 60.1209 68.6994C56.1115 67.0342 52.468 61.9964 51.005 58.0353C50.7489 56.8719 50.2286 55.1291 50.9751 54.0528C51.7648 52.9138 55.9428 52.1152 57.3911 51.9415C61.6513 51.4303 66.9726 52.6814 70.3604 55.3806C72.0101 56.6951 73.3539 58.3336 74.4434 60.1312C75.0164 59.6933 75.6047 59.2812 76.1977 58.8705C76.5535 58.5904 76.8068 58.3812 77.0087 57.96L77.0567 58.2264C77.9343 57.9848 78.8281 57.5689 79.681 57.2397L80.5776 56.8885C80.9825 56.8466 81.3502 56.8418 81.7004 56.6122C83.0912 56.313 84.4843 55.9814 85.8984 55.8142C88.057 55.1738 90.802 55.4478 92.9986 55.7984C94.2007 55.9685 95.4266 56.334 96.6126 56.607C97.6023 54.2672 98.6439 52.1602 100.304 50.2202C101.197 49.0456 102.368 47.7796 103.618 46.9888C105.189 45.9955 107.224 45.2922 108.483 43.8961C108.779 43.5678 109.024 43.1444 108.971 42.6853C108.863 41.7406 107.37 40.7791 106.687 40.2404C106.047 39.8653 105.552 39.3093 105.375 38.5691C105.14 37.584 105.518 36.8594 106.03 36.052C106.714 35.3486 107.901 34.9114 108.873 34.9134C109.922 34.9156 110.804 35.3156 111.525 36.0728C112.743 37.3526 113.705 40.9497 115.728 40.9549C116.107 40.9559 116.554 40.7865 116.894 40.6402C118.156 39.5418 118.92 38.4181 119.228 36.7536L119.508 35.3749C118.968 32.0283 118.142 30.6569 116.306 27.8466C116.395 27.1867 116.111 26.0932 116.353 25.5311L116.635 26.1353L116.738 25.4445L116.99 25.4125C117.418 24.7935 117.831 24.3242 118.585 24.1246C119.318 23.9307 120.089 24.1222 120.723 24.5098C120.944 24.3393 121.139 24.176 121.326 23.9678C120.963 23.7579 120.734 23.5618 120.473 23.2412C120.447 23.2091 120.421 23.1764 120.395 23.144Z" fill="black"/>
<path d="M152.711 100.63C152.715 100.602 152.721 100.575 152.724 100.547C152.806 99.8008 152.237 99.232 152.351 98.4763C152.611 98.3001 152.656 98.2853 152.97 98.3406C154.303 98.5759 155.559 100.119 156.255 101.183C156.274 101.339 156.315 101.518 156.302 101.675C156.806 101.903 157.049 102.458 157.235 102.952C157.793 104.444 157.045 106.175 157.547 107.509C157.908 107.52 158.06 107.355 158.35 107.163C158.613 107.458 158.537 108.015 158.516 108.407C158.436 109.944 156.404 112.084 156.552 112.493L157.159 112.656C157.21 113.143 156.484 114.027 156.16 114.421C154.574 116.351 151.776 117.592 149.323 117.808C147.95 117.928 146.687 117.671 145.342 117.684C149.61 125.789 143.445 133.838 145.124 139.542C146.289 143.502 151.595 145.222 151.495 148.881C151.456 150.311 150.873 151.929 150.447 153.295C150.306 153.745 150.169 154.11 149.782 154.404C149.858 154.673 149.073 159.394 148.934 159.657C148.91 159.703 148.882 159.747 148.856 159.791C149.103 160.421 149.042 160.996 149.143 161.649C149.35 162.937 149.756 164.184 150.347 165.345C150.405 165.461 150.418 165.57 150.424 165.697C150.947 166.053 151.34 166.276 151.514 166.913C151.366 167.303 151.134 167.519 150.748 167.679C150.278 167.874 149.743 168.036 149.238 168.102C149.997 169.056 150.29 171.228 150.145 172.432C150.014 173.519 149.479 174.424 148.619 175.094C146.329 176.878 142.091 177.247 139.291 176.862C137.72 176.646 136.633 176.059 135.497 174.977C135.516 173.888 135.665 172.807 135.687 171.717C136.237 171.004 138.206 168.829 138.354 168.158C138.165 167.858 137.721 167.737 137.401 167.586C137.073 167.35 137.046 167.302 136.901 166.923C137.365 165.548 139.257 163.993 140.016 162.538C140.676 161.274 142.001 156.954 141.569 155.6C141.624 155.5 141.671 155.396 141.708 155.288C142.073 154.241 141.7 152.591 141.229 151.624C141.211 151.314 141.13 151.227 140.968 150.969C141.21 150.276 140.893 149.614 140.658 148.962C140.305 148.327 136.615 146.876 135.7 146.355C129.29 142.712 123.15 136.122 125.408 128.166C125.596 127.506 125.769 127.21 125.579 126.52L125.538 126.648C125.11 127.99 124.299 129.079 124.052 130.51C123.829 131.805 124.422 133.606 123.997 134.765C119.202 137.125 111.638 138.04 106.328 137.32C106.103 134.687 105.547 132.886 103.826 130.83C104.351 132.181 105.052 133.66 105.261 135.1C105.909 139.597 104.321 143.457 103.244 147.709C102.189 151.872 101.37 159.259 102.51 163.355C102.444 164.3 102.671 165.84 102.363 166.684C102.154 166.764 101.966 166.817 101.749 166.861C101.65 167.1 101.643 167.114 101.703 167.365C101.587 167.667 101.458 168.069 101.22 168.295C100.792 168.701 100.139 169.099 99.5364 169.066C98.8175 169.027 98.1228 168.535 97.6543 168.014C96.7126 166.965 96.5329 166.056 96.6104 164.7C95.7204 164.278 95.7513 163.549 95.403 162.736C98.205 155.794 95.4524 148.2 94.0232 141.25C93.8483 141.19 93.9163 141.234 93.7709 141.088C93.7343 141.052 93.6996 141.013 93.664 140.976L93.4007 141.461C93.5642 140.009 93.0895 138.391 93.0957 136.889L92.3578 136.309C90.384 135.13 88.9234 132.771 87.8049 130.824L87.4053 129.802L86.8598 128.556C86.2967 126.869 86.0387 125.14 85.8064 123.382L85.8382 123.254C85.8192 122.82 85.823 122.353 85.7232 121.93C85.6173 121.482 85.5479 121.472 85.1668 121.237C84.3581 121.143 83.5712 121.083 82.7568 121.069C82.8989 120.505 82.9659 120.007 82.7217 119.464C83.3821 119.523 84.0174 119.538 84.6798 119.513C87.563 119.551 89.9597 119.555 92.7612 118.743C96.3177 117.713 99.5169 115.552 101.332 112.257C101.514 112.526 101.616 112.771 101.983 112.798C102.16 112.811 102.362 112.765 102.537 112.736L102.648 112.679C103.389 112.386 104.708 112.815 105.503 112.94C105.375 112.325 104.941 112.339 104.816 111.701C108.889 112.46 112.846 112.826 116.962 112.14L116.624 112.72L116.705 112.969L117.008 113.082C118.683 112.921 120.369 112.698 122.005 112.297C123.371 112.151 124.786 111.743 126.135 111.456L127.492 111.142C129.532 110.682 131.657 110.826 133.719 111.016L134.242 110.964L134.314 110.807C134.377 110.665 134.402 110.586 134.533 110.493C134.672 110.393 134.808 110.299 134.945 110.195C136.264 110.169 138.259 110.903 139.314 111.665C140.899 109.836 142.746 107.959 145.149 107.296C147.547 106.634 149.124 106.693 151.325 105.215C151.584 105.06 151.781 104.65 151.938 104.395C152.632 103.272 153.023 101.948 152.711 100.63Z" fill="#CB7A27"/>
<path d="M152.711 100.63C152.715 100.602 152.721 100.575 152.724 100.547C152.807 99.8008 152.237 99.232 152.351 98.4763C152.611 98.3001 152.656 98.2853 152.971 98.3406C154.303 98.5759 155.56 100.119 156.256 101.183C156.274 101.339 156.315 101.518 156.302 101.675C156.806 101.903 157.05 102.458 157.235 102.952C157.794 104.444 157.045 106.175 157.547 107.509C157.908 107.52 158.06 107.355 158.35 107.163C158.613 107.458 158.537 108.015 158.517 108.407C158.436 109.944 156.404 112.084 156.552 112.493L157.159 112.656C157.21 113.143 156.485 114.027 156.161 114.421C154.574 116.351 151.776 117.592 149.324 117.808C147.95 117.928 146.687 117.671 145.342 117.684C149.611 125.789 143.446 133.838 145.124 139.542C146.289 143.502 151.595 145.222 151.495 148.881C151.456 150.311 150.873 151.929 150.447 153.295C150.306 153.745 150.17 154.11 149.782 154.404C149.906 153.963 149.496 152.959 149.296 152.542C149.749 151.927 150.034 151 150.283 150.276C150.609 149.328 150.668 148.244 150.206 147.331C149.721 146.373 148.59 145.604 147.592 145.284C147.438 144.273 144.126 142.27 143.842 138.464C143.664 136.08 144.292 133.881 144.866 131.592C145.863 127.62 146.485 123.317 145.022 119.367C144.148 117.009 142.216 114.204 139.915 113.138C138.047 111.867 135.88 111.489 133.72 111.016L134.242 110.964L134.315 110.807C134.378 110.665 134.403 110.586 134.533 110.493C134.672 110.393 134.809 110.299 134.945 110.195C136.264 110.169 138.26 110.903 139.314 111.665C140.9 109.836 142.747 107.959 145.15 107.296C147.548 106.634 149.124 106.693 151.325 105.215C151.585 105.06 151.781 104.65 151.938 104.395C152.633 103.272 153.023 101.948 152.711 100.63Z" fill="black"/>
<path d="M153.186 100.317C153.607 100.877 153.641 101.433 153.547 102.126C153.506 102.436 153.452 102.676 153.296 102.952C153.518 103.308 153.518 103.447 153.934 103.558C154.126 104.238 153.898 105.152 153.552 105.759C153.492 105.865 153.42 105.936 153.333 106.02C153.483 106.53 153.601 106.918 153.338 107.425C153.279 107.538 153.211 107.644 153.142 107.75C153.164 108.231 153.096 108.557 152.768 108.923C152.741 108.953 152.713 108.981 152.685 109.01C152.686 109.946 151.606 111.13 150.976 111.763C149.874 112.87 148.602 113.844 147.13 114.39C146.189 114.887 145.025 115.163 143.985 115.362C143.633 114.648 142.008 113.514 141.297 113.024L140.837 112.856L140.274 112.794C140.153 112.904 140.017 113.011 139.915 113.138C138.047 111.866 135.88 111.489 133.72 111.015L134.242 110.964L134.315 110.806C134.378 110.664 134.403 110.586 134.533 110.492C134.672 110.393 134.809 110.298 134.945 110.195C136.264 110.169 138.26 110.903 139.314 111.665C140.9 109.836 142.747 107.959 145.15 107.296C147.548 106.634 149.124 106.693 151.325 105.215C151.585 105.06 151.781 104.649 151.938 104.395C152.633 103.272 153.023 101.948 152.711 100.63L153.186 100.317Z" fill="#E7A446"/>
<path d="M153.186 100.317C153.607 100.877 153.641 101.433 153.547 102.126C153.506 102.436 153.452 102.676 153.296 102.952C153.41 103.729 153.058 104.798 152.588 105.421C150.135 108.668 144.378 107.468 141.405 110.986C141.049 111.406 140.631 111.802 140.605 112.384L140.837 112.856L140.274 112.794C140.153 112.904 140.017 113.011 139.915 113.138C138.047 111.866 135.88 111.489 133.72 111.015L134.242 110.964L134.315 110.806C134.378 110.664 134.403 110.586 134.533 110.492C134.672 110.393 134.809 110.298 134.945 110.195C136.264 110.169 138.26 110.903 139.314 111.665C140.9 109.836 142.747 107.959 145.15 107.296C147.548 106.634 149.124 106.693 151.325 105.215C151.585 105.06 151.781 104.649 151.938 104.395C152.633 103.272 153.023 101.948 152.711 100.63L153.186 100.317Z" fill="black"/>
<path d="M141.297 113.024C143.622 113.037 146.146 113.147 148.219 111.92C149.45 111.191 153.015 107.28 153.333 106.02C153.483 106.531 153.601 106.918 153.338 107.425C153.279 107.538 153.212 107.644 153.142 107.751C153.164 108.231 153.097 108.557 152.768 108.923C152.741 108.953 152.713 108.981 152.685 109.01C152.686 109.946 151.606 111.131 150.976 111.763C149.874 112.87 148.602 113.844 147.131 114.39C146.19 114.888 145.025 115.164 143.986 115.362C143.633 114.648 142.008 113.514 141.297 113.024Z" fill="#9F5718"/>
<path d="M152.71 100.63C152.715 100.602 152.72 100.575 152.723 100.547C152.806 99.8008 152.236 99.232 152.35 98.4763C152.61 98.3001 152.655 98.2853 152.97 98.3406C154.302 98.5759 155.559 100.119 156.255 101.183C156.273 101.339 156.314 101.518 156.301 101.675L156.054 101.883C156.044 102.187 156.063 102.519 155.941 102.801C156.764 103.916 156.731 105.843 156.53 107.15C156.363 108.225 156.133 109.081 155.495 109.966C156.309 109.496 157.322 108.713 157.624 107.779C157.829 108.588 157.675 109.002 157.256 109.708C156.472 111.031 154.034 112.492 153.635 113.469C154.316 113.703 155.103 113.054 155.796 113.304C155.645 113.984 154.775 114.599 154.205 114.96C151.836 116.461 148.194 117.374 145.431 116.711C145.099 116.63 144.877 116.546 144.645 116.283C144.736 116.072 144.729 116.116 144.933 116.035C145.852 115.673 147.338 115.657 148.063 114.989C148.153 114.88 148.219 114.748 148.29 114.627C147.943 114.331 147.575 114.409 147.13 114.39C148.601 113.844 149.873 112.87 150.975 111.763C151.605 111.13 152.685 109.946 152.684 109.01C152.712 108.981 152.74 108.953 152.767 108.923C153.096 108.557 153.163 108.231 153.141 107.751C153.211 107.644 153.278 107.538 153.337 107.425C153.6 106.918 153.482 106.53 153.332 106.02C153.419 105.936 153.491 105.865 153.551 105.76C153.897 105.152 154.125 104.238 153.933 103.558C153.518 103.447 153.517 103.308 153.295 102.952C153.451 102.676 153.505 102.436 153.547 102.126C153.64 101.433 153.606 100.877 153.185 100.317L152.71 100.63Z" fill="#D3BB9C"/>
<path d="M101.332 112.257C101.514 112.527 101.616 112.771 101.983 112.798C102.16 112.811 102.362 112.765 102.537 112.736L102.584 113.051C102.343 115.813 101.358 117.558 99.2342 119.336C96.2721 121.817 93.2748 122.629 89.4907 122.807C88.2591 122.865 87.0166 122.844 85.8382 123.254C85.8192 122.82 85.823 122.353 85.7232 121.93C85.6173 121.482 85.5479 121.473 85.1668 121.237C84.3581 121.143 83.5712 121.083 82.7568 121.069C82.8989 120.505 82.9659 120.008 82.7217 119.464C83.3821 119.523 84.0174 119.538 84.6798 119.513C87.563 119.551 89.9597 119.555 92.7612 118.744C96.3177 117.713 99.5169 115.552 101.332 112.257Z" fill="#9F5718"/>
<path d="M101.332 112.257C101.514 112.527 101.616 112.771 101.983 112.798C102.16 112.811 102.362 112.765 102.537 112.736L102.584 113.051C100.075 117.151 96.1538 119.493 91.5443 120.603C89.7416 121.038 86.9819 121.672 85.1668 121.237C84.3581 121.143 83.5712 121.083 82.7568 121.069C82.8989 120.505 82.9659 120.008 82.7217 119.464C83.3821 119.523 84.0174 119.538 84.6798 119.513C87.563 119.551 89.9597 119.555 92.7612 118.744C96.3177 117.713 99.5169 115.552 101.332 112.257Z" fill="black"/>
<path d="M126.136 111.456L127.493 111.142C127.81 111.157 128.345 111.108 128.598 111.305H128.531C129.415 111.6 130.277 111.961 130.705 112.856C131.014 113.502 131.001 114.298 130.757 114.962C130.373 116.012 129.417 116.77 128.43 117.22C127.133 117.817 125.65 117.859 124.323 117.335C123.65 117.07 122.454 116.406 122.143 115.732C121.954 115.324 121.878 114.778 121.588 114.436L121.841 114.394C121.765 113.688 122.145 113.035 122.006 112.297C123.372 112.151 124.787 111.742 126.136 111.456Z" fill="#E7A446"/>
<path d="M122.005 112.297C123.372 112.151 124.787 111.743 126.136 111.456L126.289 111.524C127.025 111.845 129.014 111.832 129.43 112.43C129.163 112.893 128.653 113.011 128.157 113.144C126.25 113.656 123.805 114.442 121.84 114.395C121.765 113.689 122.145 113.035 122.005 112.297Z" fill="#ECD4A5"/>
<path d="M104.817 111.701C108.889 112.46 112.847 112.826 116.962 112.14L116.624 112.72L116.705 112.969L117.008 113.082C118.683 112.921 120.37 112.698 122.005 112.297C122.145 113.035 121.765 113.689 121.84 114.395L121.588 114.437C119.88 114.512 118.166 114.924 116.45 115.038C114.06 115.196 105.105 115.022 103.12 113.713C102.711 113.443 102.725 113.114 102.648 112.679C103.39 112.386 104.708 112.815 105.504 112.94C105.375 112.325 104.941 112.339 104.817 111.701Z" fill="#F6B65C"/>
<path d="M104.817 111.701C108.89 112.46 112.847 112.826 116.963 112.14L116.625 112.72L116.706 112.969L117.009 113.082C114.559 113.932 107.997 113.573 105.504 112.94C105.376 112.325 104.942 112.339 104.817 111.701Z" fill="black"/>
<path d="M87.4043 129.801C87.4138 129.768 87.4238 129.736 87.4323 129.702C87.5587 129.205 87.4855 128.778 87.409 128.281L87.6034 128.638L87.6286 128.584C87.63 128.641 87.63 128.697 87.6328 128.753C87.7493 130.98 91.0031 134.876 92.7374 136.187C92.8652 136.284 92.9764 136.335 93.1218 136.4L93.0947 136.888L92.3568 136.308C90.383 135.129 88.9224 132.771 87.8039 130.824L87.4043 129.801Z" fill="#9F5718"/>
<path d="M93.1219 136.401C93.2141 134.957 93.866 133.542 94.5925 132.311C93.77 135.533 93.5747 137.947 94.0223 141.25C93.8474 141.19 93.9154 141.234 93.77 141.088C93.7334 141.052 93.6987 141.013 93.6631 140.976L93.3998 141.461C93.5633 140.009 93.0886 138.391 93.0948 136.888L93.1219 136.401Z" fill="#1E110B"/>
<path d="M140.657 148.962C141.379 149.205 141.782 149.623 142.127 150.295C142.401 150.827 142.649 151.76 142.451 152.337C142.423 152.418 142.406 152.455 142.374 152.529L142.359 152.441C142.014 152.069 141.715 151.797 141.229 151.624C141.21 151.314 141.13 151.227 140.967 150.969C141.209 150.277 140.892 149.614 140.657 148.962Z" fill="black"/>
<path d="M135.48 116.349C135.728 116.326 135.977 116.308 136.225 116.294C137.27 116.239 138.37 116.398 139.173 117.123C139.235 117.163 139.299 117.2 139.355 117.249C139.771 117.618 140.16 118.326 140.201 118.876C140.244 119.462 139.987 120.029 139.625 120.475C138.947 121.311 138.038 121.742 136.988 121.853C136.065 121.98 135.157 121.863 134.315 121.461C133.605 121.122 133.042 120.6 132.791 119.838C132.606 119.276 132.689 118.674 132.951 118.155C133.486 117.096 134.413 116.709 135.48 116.349Z" fill="#E7A446"/>
<path d="M116.895 115.503C117.36 115.529 117.766 115.605 118.2 115.779C118.814 116.025 119.464 116.519 119.695 117.163C119.821 117.502 119.786 117.88 119.601 118.19C119.243 118.787 118.591 118.905 117.969 119.054C117.51 119.075 117.026 119.087 116.586 118.932C116.032 118.735 115.508 118.311 115.284 117.758C115.146 117.417 115.146 117.056 115.291 116.718C115.591 116.017 116.24 115.76 116.895 115.503Z" fill="#E7A446"/>
<path d="M127.271 120.532C127.959 120.45 128.733 120.435 129.362 120.772C129.784 120.997 130.218 121.437 130.339 121.912C130.416 122.217 130.358 122.527 130.186 122.788C129.798 123.376 129.163 123.53 128.522 123.649C127.97 123.745 127.397 123.731 126.88 123.501C126.4 123.288 125.938 122.883 125.773 122.372C125.665 122.039 125.699 121.694 125.862 121.385C126.17 120.803 126.686 120.698 127.271 120.532Z" fill="#E7A446"/>
<path d="M51.005 58.0354C50.7489 56.8719 50.2286 55.1291 50.9751 54.0528C51.7648 52.9138 55.9428 52.1152 57.3911 51.9415C61.6513 51.4304 66.9726 52.6814 70.3604 55.3807C72.0101 56.6952 73.3539 58.3336 74.4434 60.1312C75.0164 59.6934 75.6047 59.2813 76.1977 58.8706C76.5535 58.5904 76.8068 58.3813 77.0087 57.9601L77.0567 58.2264C77.9343 57.9849 78.8281 57.5689 79.681 57.2397L80.5776 56.8886C80.9825 56.8467 81.3502 56.8419 81.7004 56.6123C83.0912 56.3131 84.4843 55.9815 85.8984 55.8142C88.057 55.1739 90.802 55.4478 92.9986 55.7985L93.0347 56.2983C92.8432 56.436 92.7159 56.5012 92.4854 56.5517C94.6436 56.9558 96.7457 57.4065 98.8173 58.1488C104.023 60.6553 106.081 63.0032 108.368 68.2721C108.109 68.5103 107.93 68.758 107.575 68.8166C107.784 69.2512 108.05 69.7009 108.138 70.1773C108.059 70.558 108.01 70.9992 107.824 71.3422C108.58 74.0365 108.831 76.877 107.399 79.4083C106.96 80.1839 106.272 80.7371 105.606 81.3107L104.236 81.83C103.315 82.174 100.99 81.0734 99.8584 81.2592C99.6061 81.3007 99.5396 81.4903 99.4046 81.6828C98.7736 81.7333 98.23 81.6347 97.6138 81.5051L97.0431 81.6795L96.979 81.8924L95.9902 82.5204L95.5117 82.4275L94.6531 81.3841C92.7548 79.8957 90.6328 79.556 88.2799 79.8423C86.9694 80.0019 85.7349 80.3559 84.5029 80.8262C83.6295 81.1592 82.6716 81.7643 81.737 81.8343L81.4776 82.3832C81.2376 82.7171 81.1516 82.962 80.7054 83.0225C79.8345 83.1412 78.8523 82.9077 77.9671 82.9387C74.259 83.0697 70.4678 83.8849 67.6126 86.3628C67.0139 86.4824 66.7953 87.0894 66.4428 87.0718C66.2541 86.8197 66.074 86.5448 65.8636 86.3128C65.4697 84.489 65.5633 83.063 65.8849 81.2502C66.9764 77.5316 67.7086 73.844 68.4365 70.0454C65.8431 69.4651 63.1214 70.3598 60.4867 68.7938C60.3556 68.7704 60.2444 68.7509 60.1209 68.6994C56.1115 67.0343 52.468 61.9965 51.005 58.0354Z" fill="#CB7A27"/>
<path d="M51.005 58.0354C50.7489 56.8719 50.2286 55.1291 50.9751 54.0528C51.7648 52.9138 55.9428 52.1152 57.3911 51.9415C61.6513 51.4304 66.9726 52.6814 70.3604 55.3807C72.0101 56.6952 73.3539 58.3336 74.4434 60.1312C74.2011 60.3451 74.0799 60.4385 73.7544 60.469C73.3173 60.9407 72.8602 61.5424 72.271 61.8154L71.9536 61.7235L71.5393 61.9965L71.5374 62.0751C71.5298 62.3319 71.4993 62.562 71.449 62.814C70.6878 64.2352 69.9142 65.6469 69.2709 67.1272L67.5005 67.2149C67.5527 67.2292 67.605 67.2439 67.6573 67.2573C68.1885 67.3931 68.6617 67.2573 69.125 67.6151L69.1088 67.9524C68.8803 68.3993 68.8067 68.7418 68.2911 68.9172C66.3762 69.5685 63.2892 68.5689 61.381 68.1425L61.2379 68.485C61.6936 68.7428 62.1132 68.476 62.5346 68.8162L62.5921 69.2502C61.878 69.0544 61.2389 68.6985 60.4867 68.7938C60.3556 68.7704 60.2444 68.7509 60.1209 68.6994C56.1115 67.0343 52.468 61.9965 51.005 58.0354Z" fill="#EE7443"/>
<path d="M51.005 58.0354C50.7489 56.8719 50.2286 55.1291 50.9751 54.0528C51.7648 52.9138 55.9428 52.1152 57.3911 51.9415C61.6513 51.4304 66.9726 52.6814 70.3604 55.3807C72.0101 56.6952 73.3539 58.3336 74.4434 60.1312C74.2011 60.3451 74.0799 60.4385 73.7544 60.469C73.3173 60.9407 72.8602 61.5424 72.271 61.8154L71.9536 61.7235C71.65 61.056 71.0727 60.4595 70.6151 59.8897C70.243 59.4761 69.8468 59.0802 69.4491 58.6914C65.9866 55.3049 60.9647 54.0843 56.2612 54.1472C55.1964 54.3449 54.1273 54.5269 53.0786 54.8013C52.6809 54.9847 52.3093 55.2273 51.8641 55.1148L51.7206 54.7151C51.3885 56.2816 52.5735 58.5852 53.148 60.0326C52.7398 59.5671 52.3578 58.5337 51.7667 58.3265C51.5101 58.2364 51.2588 58.1326 51.005 58.0354Z" fill="#D19C6B"/>
<path d="M51.005 58.0354C50.7489 56.8719 50.2286 55.1291 50.9751 54.0528C51.7648 52.9138 55.9428 52.1152 57.3911 51.9415C61.6513 51.4304 66.9726 52.6814 70.3604 55.3807C72.0101 56.6952 73.3539 58.3336 74.4434 60.1312C74.2011 60.3451 74.0799 60.4385 73.7544 60.469L73.4536 59.9869C72.95 59.2088 72.3285 58.5209 71.6847 57.8577C68.4014 54.474 63.847 52.7647 59.1734 52.7084C56.8157 52.68 53.4872 52.9941 51.7206 54.7151C51.3885 56.2816 52.5735 58.5852 53.148 60.0326C52.7398 59.5671 52.3578 58.5337 51.7667 58.3265C51.5101 58.2364 51.2588 58.1326 51.005 58.0354Z" fill="black"/>
<path d="M56.2598 54.1476C60.0448 52.8611 63.5643 53.9547 67.0305 55.6856C68.4242 56.3812 69.9465 57.3221 71.0166 58.4637C71.4637 58.9406 71.8761 59.6628 72.4036 60.0411C72.6473 60.2155 72.9709 60.2765 73.2474 60.1407C73.3453 60.0926 73.3776 60.055 73.4522 59.9873L73.753 60.4695C73.3159 60.9411 72.8588 61.5429 72.2696 61.8159L71.9522 61.7239C71.6485 61.0564 71.0712 60.4599 70.6137 59.8901C70.2416 59.4766 69.8453 59.0806 69.4476 58.6919C65.9852 55.3054 60.9633 54.0847 56.2598 54.1476Z" fill="#CE9258"/>
<path d="M51.7224 54.7151L51.8659 55.1148C52.3111 55.2273 52.6827 54.9848 53.0804 54.8013C52.888 57.7281 54.8066 60.8711 56.6783 63.0041C57.85 64.3396 59.3529 65.6255 60.9599 66.3978L61.159 65.7041C63.262 66.7322 65.1712 67.1439 67.5023 67.2149C67.5545 67.2292 67.6068 67.2439 67.659 67.2573C68.1903 67.3931 68.6635 67.2573 69.1268 67.6151L69.1106 67.9524C68.8821 68.3993 68.8085 68.7418 68.2929 68.9172C66.378 69.5685 63.291 68.5689 61.3828 68.1425L61.2397 68.485C61.6954 68.7428 62.115 68.476 62.5364 68.8162L62.5939 69.2502C61.8798 69.0544 61.2407 68.6985 60.4885 68.7938C60.3574 68.7704 60.2462 68.7509 60.1226 68.6994C56.1133 67.0343 52.4698 61.9965 51.0068 58.0354C51.2606 58.1326 51.5119 58.2364 51.7685 58.3265C52.3596 58.5337 52.7416 59.5671 53.1498 60.0326C52.5753 58.5852 51.3903 56.2816 51.7224 54.7151Z" fill="#A1613B"/>
<path d="M51.0068 58.0354C51.2606 58.1326 51.5119 58.2365 51.7685 58.3265C52.3596 58.5338 52.7416 59.5671 53.1498 60.0326C54.848 62.774 56.3224 64.9947 59.0493 66.8071C59.7834 67.2945 60.7004 67.6308 61.3827 68.1425L61.2397 68.4851C61.6954 68.7428 62.115 68.476 62.5364 68.8162L62.5939 69.2502C61.8798 69.0544 61.2407 68.6985 60.4885 68.7938C60.3574 68.7705 60.2462 68.7509 60.1226 68.6995C56.1133 67.0343 52.4698 61.9965 51.0068 58.0354Z" fill="black"/>
<path d="M61.1571 65.7036C63.2601 66.7318 65.1693 67.1434 67.5004 67.2144C67.5527 67.2287 67.6049 67.2435 67.6572 67.2568C68.1884 67.3926 68.6617 67.2568 69.1249 67.6146L69.1088 67.9519C66.044 67.9567 63.7752 67.6308 60.958 66.3973L61.1571 65.7036Z" fill="black"/>
<path d="M56.2604 54.1466C60.9639 54.0837 65.9858 55.3043 69.4483 58.6908C69.846 59.0796 70.2422 59.4755 70.6143 59.8891L70.7473 60.3774L70.6428 60.5499C70.2741 60.305 69.902 60.0973 69.5096 59.8943C68.3274 58.7337 67.0544 57.8366 65.5634 57.1215C64.539 56.3715 62.9472 55.9913 61.7171 55.7274C59.8383 55.3253 55.866 54.8293 54.2163 55.8956C54.0329 56.2905 54.1369 56.473 54.2272 56.8761C55.2816 60.6452 57.7842 63.7487 61.1564 65.7035L60.9573 66.3972C59.3503 65.6249 57.8474 64.339 56.6757 63.0035C54.804 60.8705 52.8854 57.7275 53.0778 54.8007C54.1265 54.5263 55.1956 54.3443 56.2604 54.1466Z" fill="black"/>
<path d="M54.2276 56.8765C54.1373 56.4734 54.0332 56.2909 54.2166 55.896C55.8664 54.8297 59.8386 55.3257 61.7174 55.7278C62.9476 55.9917 64.5393 56.3719 65.5638 57.1218C65.8536 57.7927 66.3121 58.2162 66.7127 58.8037C63.1372 57.4225 60.2392 56.5325 56.3848 56.6521C55.7048 56.6735 54.8486 56.6016 54.2276 56.8765Z" fill="#CD5130"/>
<path d="M65.5645 57.1218C67.0555 57.837 68.3284 58.7341 69.5106 59.8947L70.2357 61.0605C68.9941 60.6394 67.8081 59.5397 66.7134 58.8036C66.3128 58.2162 65.8543 57.7926 65.5645 57.1218Z" fill="#A1613B"/>
<path d="M69.5098 59.8954C69.9022 60.0983 70.2743 60.3061 70.643 60.551L70.7475 60.3785L70.6145 59.8901C71.0721 60.46 71.6494 61.0565 71.953 61.7239L71.5387 61.9969L71.5368 62.0755C71.5292 62.3323 71.4988 62.5625 71.4484 62.8145C71.217 62.1141 70.7129 61.6015 70.2348 61.0612L69.5098 59.8954Z" fill="black"/>
<path d="M73.739 82.4707C72.0584 81.5111 70.9276 80.1166 70.2524 78.2947C69.3054 75.742 69.322 72.7342 70.5047 70.2615C71.2991 68.6011 72.6747 67.2662 74.429 66.6735C76.0098 66.1399 77.6006 66.3728 79.065 67.1361C81.1205 68.2186 82.6624 70.0771 83.3495 72.3011C84.2162 75.1683 83.7862 78.2051 82.3778 80.8074C82.1645 81.1452 81.925 81.4821 81.7373 81.8341L81.4779 82.383C81.2379 82.717 81.1519 82.9619 80.7057 83.0224C79.8348 83.141 78.8526 82.9076 77.9674 82.9385C74.2593 83.0695 70.4681 83.8847 67.6129 86.3627C67.0142 86.4823 66.7956 87.0892 66.4431 87.0716C66.2544 86.8196 66.0743 86.5447 65.8639 86.3126C65.47 84.4888 65.5636 83.0629 65.8852 81.25C66.0995 81.3587 66.4606 81.4902 66.6065 81.6717C66.3381 83.2792 66.254 84.4912 66.8194 86.0539C67.7041 85.1921 68.5646 84.3002 69.7145 83.799C70.9608 83.0171 72.3231 82.7713 73.739 82.4707Z" fill="url(#paint0_linear_3039_11979)"/>
<path d="M72.5771 74.0753C73.191 72.9661 73.8681 72.0495 74.9885 71.4101C76.0557 70.8012 77.2398 70.6735 78.4153 71.0242C79.7277 71.4158 80.6714 72.3425 81.3105 73.5226C82.0607 74.7852 82.391 76.3398 82.0441 77.7777C81.6169 79.5505 80.4609 80.7687 79.1423 81.947C79.3638 82.1533 79.637 82.1556 79.9235 82.1966C79.4455 82.289 75.5739 81.371 74.9786 81.0941C74.6056 80.6163 74.3476 80.1227 74.0815 79.5791L74.1646 79.3771C73.8952 78.4523 73.6762 77.5795 73.5621 76.6195C73.6567 76.2173 73.6234 76.1364 73.9651 75.8819C73.5251 75.3945 73.5412 74.7223 73.5051 74.1048L73.0262 74.6346L72.7867 74.5741L72.5771 74.0753Z" fill="black"/>
<path d="M81.31 73.5229C82.0603 74.7855 82.3905 76.3401 82.0437 77.778C81.6165 79.5508 80.4605 80.7691 79.1419 81.9473C79.3633 82.1536 79.6366 82.156 79.9231 82.197C79.4451 82.2894 75.5735 81.3713 74.9781 81.0945C74.6051 80.6166 74.3471 80.123 74.0811 79.5794L74.1642 79.3774C74.6299 79.892 75.1962 80.3236 75.852 80.5628C76.7025 80.8734 77.5948 80.8181 78.4064 80.416C79.3785 79.9344 80.1207 79.0144 80.4662 77.9915C80.8995 76.7084 80.6814 75.6769 80.097 74.493L80.4291 73.5634L81.0401 73.725L81.31 73.5229Z" fill="#40322A"/>
<path d="M73.5059 74.1049C73.9554 73.2306 74.4025 73.0625 75.3148 72.7695L75.5433 72.6975C76.2988 73.3964 76.7402 73.9572 77.07 74.9334C76.7464 75.477 76.3986 76.256 75.7182 76.4013C75.1451 76.5233 74.4647 76.1298 73.9658 75.882C73.5258 75.3946 73.542 74.7224 73.5059 74.1049Z" fill="#F7F2F0"/>
<path d="M80.0976 74.4934C79.9379 74.2361 79.7649 74.0026 79.554 73.7859C78.6702 72.8773 77.5612 72.6153 76.3291 72.5976C76.1158 72.5943 76.0165 72.5871 75.835 72.4556C76.4512 71.922 77.7365 72.0931 78.5281 72.0993L78.5923 72.1379C79.3003 72.5719 79.8719 72.9378 80.4297 73.5638L80.0976 74.4934Z" fill="#665C4E"/>
<path d="M73.7385 82.4707C72.0579 81.5111 70.927 80.1166 70.2518 78.2947C69.3048 75.742 69.3215 72.7342 70.5041 70.2615C71.2986 68.6011 72.6742 67.2662 74.4284 66.6735C76.0093 66.1399 77.6001 66.3728 79.0645 67.1361C81.12 68.2186 82.6619 70.0771 83.3489 72.3011C84.2156 75.1683 83.7856 78.2051 82.3773 80.8074L81.924 80.5854C83.1917 78.0489 83.6283 75.4108 82.7379 72.6527C82.0988 70.6732 80.7328 68.8436 78.8663 67.8808C77.5701 67.2123 76.0083 67.0565 74.6237 67.5392C73.051 68.0871 71.8374 69.3892 71.137 70.8752C70.0537 73.1759 70.0751 76.0316 70.9484 78.3986C71.4687 79.8074 72.3724 81.1047 73.7789 81.7269C74.3491 81.979 74.8732 82.0857 75.4918 82.1195L75.7118 82.0123C75.6367 82.2153 75.6377 82.2377 75.4605 82.3563L75.5693 82.1862C73.8407 82.2634 71.0415 83.9452 69.714 83.799C70.9603 83.0171 72.3225 82.7713 73.7385 82.4707Z" fill="black"/>
<path d="M72.2523 76.9581L72.2993 76.8175C72.44 76.3935 72.5046 76.0767 72.4832 75.6255C72.9018 75.7451 73.0273 76.0933 73.366 76.3516C73.4905 76.4459 73.5176 76.4731 73.5628 76.6198C73.6768 77.5798 73.8958 78.4527 74.1653 79.3774L74.0821 79.5794C74.3482 80.123 74.6062 80.6166 74.9792 81.0945C75.5746 81.3713 79.4461 82.2894 79.9241 82.197C80.8549 81.803 81.2983 81.3742 81.9245 80.5857L82.3778 80.8077C82.1645 81.1455 81.925 81.4823 81.7373 81.8344L81.4779 82.3833C81.2379 82.7172 81.1519 82.9621 80.7057 83.0226C79.8348 83.1413 78.8526 82.9078 77.9674 82.9388C74.2593 83.0698 70.4681 83.885 67.6129 86.3629C67.0142 86.4825 66.7956 87.0895 66.4431 87.0719C66.2544 86.8198 66.0743 86.5449 65.8639 86.3129C65.47 84.4891 65.5636 83.0631 65.8852 81.2503C66.0995 81.3589 66.4606 81.4904 66.6065 81.6719C66.3381 83.2794 66.254 84.4915 66.8194 86.0542C67.7041 85.1923 68.5646 84.3004 69.7145 83.7992C71.0421 83.9455 73.8412 82.2637 75.5698 82.1865L75.461 82.3566C75.6382 82.2379 75.6373 82.2155 75.7123 82.0126L75.4924 82.1198C74.8951 81.6796 74.2864 81.2346 73.7652 80.7029C72.7474 79.6642 72.2471 78.4188 72.2523 76.9581Z" fill="black"/>
<path d="M72.5777 74.0759L72.7873 74.5748L73.0267 74.6353L73.5057 74.1055C73.5418 74.7229 73.5256 75.3952 73.9656 75.8826C73.624 76.137 73.6573 76.218 73.5627 76.6201C73.5176 76.4734 73.4905 76.4462 73.366 76.3519C73.0272 76.0936 72.9018 75.7454 72.4832 75.6258C72.5045 76.077 72.4399 76.3938 72.2993 76.8178L72.2522 76.9584C72.1121 75.9331 72.3112 75.0574 72.5777 74.0759Z" fill="#17120F"/>
<path d="M94.7768 78.2448C94.591 77.1957 94.4565 76.1328 94.513 75.0656C94.6542 72.4285 95.8121 69.8291 97.7902 68.0686C99.2199 66.7961 100.969 65.9742 102.914 66.1129C104.867 66.2525 106.338 67.3883 107.575 68.8166C107.784 69.2511 108.05 69.7009 108.138 70.1773C108.058 70.558 108.009 70.9992 107.824 71.3422C108.58 74.0365 108.831 76.877 107.398 79.4083C106.959 80.1839 106.271 80.7371 105.605 81.3107L104.236 81.83C103.314 82.174 100.989 81.0734 99.8581 81.2592C99.6057 81.3007 99.5392 81.4903 99.4043 81.6828C98.7733 81.7333 98.2297 81.6347 97.6134 81.5051L97.0428 81.6795L96.9786 81.8924L95.9898 82.5204L95.5113 82.4275L94.6527 81.3841C95.2229 80.2306 94.8319 79.4497 94.7768 78.2448Z" fill="#F7F2F0"/>
<path d="M99.6003 72.6122C99.6108 72.608 99.6231 72.6065 99.6326 72.5994C99.8612 72.4264 100.037 72.2402 100.318 72.1482C101.662 71.708 102.967 71.98 104.19 72.607C104.565 73.0134 105.006 73.3903 105.082 73.9639C105.03 74.1583 104.991 74.3732 104.913 74.558L104.925 74.6571C105.151 76.4323 105.64 77.5186 104.425 79.0884C103.779 79.9236 102.817 80.5482 101.759 80.6797C100.817 80.7965 99.9173 80.4882 99.1912 79.8869C97.78 78.7187 98.393 77.4414 96.7775 76.196C96.6634 75.8477 96.6601 75.5399 96.6572 75.1755L96.8844 74.3584L97.3894 74.305C97.56 74.0844 97.657 73.7805 97.7667 73.5227C98.3217 72.931 98.8372 72.8 99.6003 72.6122Z" fill="black"/>
<path d="M99.5996 72.6121L99.9517 72.7588C100.558 73.3219 101.215 73.8713 101.234 74.7736C101.244 75.2215 101.081 75.6379 100.768 75.9585C100.384 76.353 99.8162 76.5331 99.2741 76.4945C98.7186 76.455 98.2663 76.1958 97.9161 75.7656C97.5493 75.3158 97.44 74.8718 97.3887 74.3048C97.5593 74.0842 97.6562 73.7803 97.7659 73.5225C98.3209 72.9308 98.8365 72.7998 99.5996 72.6121Z" fill="#F7F2F0"/>
<path d="M99.6016 72.6122C99.612 72.608 99.6244 72.6065 99.6339 72.5994C99.8624 72.4264 100.039 72.2402 100.32 72.1482C101.664 71.708 102.968 71.98 104.191 72.607C104.566 73.0134 105.007 73.3903 105.083 73.9639C105.032 74.1583 104.993 74.3732 104.915 74.558C104.525 73.74 103.708 73.0215 102.874 72.6851C101.955 72.314 100.865 72.3764 99.9537 72.759L99.6016 72.6122Z" fill="#665C4E"/>
<path d="M105.173 72.3472C106.256 73.4301 106.721 74.9261 106.73 76.4417C106.738 77.8876 106.264 79.3851 105.217 80.4147C104.81 80.8153 104.043 81.1622 103.854 81.6696L104.236 81.8297C103.314 82.1737 100.989 81.0731 99.8577 81.2589C99.6054 81.3004 99.5389 81.49 99.4039 81.6825C98.5258 80.9773 97.7409 80.3127 97.1517 79.3293C96.3796 78.0406 96.2983 76.6108 96.6566 75.1748C96.6594 75.5393 96.6628 75.8471 96.7768 76.1953C98.3923 77.4407 97.7794 78.7181 99.1906 79.8863C99.9166 80.4876 100.817 80.7958 101.759 80.6791C102.816 80.5476 103.778 79.923 104.424 79.0878C105.639 77.5179 105.15 76.4317 104.925 74.6565L104.913 74.5574C104.991 74.3725 105.03 74.1576 105.082 73.9632C105.005 73.3896 104.564 73.0128 104.189 72.6064L105.173 72.3472Z" fill="url(#paint1_linear_3039_11979)"/>
<path d="M94.7768 78.2448C94.591 77.1957 94.4565 76.1328 94.513 75.0656C94.6542 72.4285 95.8121 69.8291 97.7902 68.0686C99.2199 66.7961 100.969 65.9742 102.914 66.1129C104.867 66.2525 106.338 67.3883 107.575 68.8166C107.784 69.2511 108.05 69.7009 108.138 70.1773C108.058 70.558 108.009 70.9992 107.824 71.3422C106.981 69.6094 105.997 68.0162 104.074 67.3511C102.651 66.859 101.064 67.0343 99.726 67.6994C97.6757 68.7185 96.2136 70.7076 95.5142 72.8592C94.811 75.0236 94.9117 77.4716 95.9599 79.5107C96.3752 80.3183 96.8803 80.9658 97.6134 81.5051L97.0428 81.6795L96.9786 81.8924L95.9898 82.5204L95.5113 82.4275L94.6527 81.3841C95.2229 80.2306 94.8319 79.4497 94.7768 78.2448Z" fill="#1E110B"/>
<path d="M94.7764 78.2446C95.2653 79.723 96.2631 80.5892 96.9782 81.8922L95.9894 82.5202L95.5109 82.4273L94.6523 81.3839C95.2225 80.2304 94.8315 79.4495 94.7764 78.2446Z" fill="#CB7A27"/>
<path d="M97.4922 73.2645C97.6609 73.0339 97.8367 72.8095 98.0196 72.5903C98.8397 71.626 100.005 70.9109 101.282 70.817C102.784 70.7074 104.07 71.3868 105.174 72.3478L104.19 72.607C102.967 71.98 101.663 71.7079 100.318 72.1482C100.038 72.2401 99.8613 72.4264 99.6328 72.5994C99.6233 72.6065 99.6109 72.6079 99.6004 72.6122C98.8373 72.7999 98.3218 72.931 97.7668 73.5227L97.4922 73.2645Z" fill="black"/>
<path d="M97.4915 73.2642L97.7661 73.5224C97.6564 73.7801 97.5595 74.0841 97.3889 74.3047L96.8838 74.3581L97.4915 73.2642Z" fill="#17120F"/>
<path d="M77.0093 57.96L77.0573 58.2263C77.283 58.4788 77.5615 58.7394 77.7221 59.0391C73.086 61.6847 70.619 64.7673 69.2092 69.9476L69.1612 70.1262L68.7716 70.2368L68.4371 70.0452C65.8437 69.4649 63.122 70.3597 60.4873 68.7936C61.2395 68.6984 61.8786 69.0543 62.5927 69.2501L62.5352 68.816C62.1138 68.4759 61.6942 68.7427 61.2385 68.4849L61.3815 68.1424C63.2898 68.5688 66.3768 69.5683 68.2917 68.917C68.8072 68.7417 68.8809 68.3992 69.1094 67.9523L69.1256 67.6149C68.6623 67.2571 68.1891 67.3929 67.6578 67.2571C67.6056 67.2438 67.5533 67.229 67.501 67.2147L69.2715 67.1271C69.9148 65.6468 70.6884 64.2351 71.4496 62.8139C71.4999 62.5619 71.5303 62.3317 71.5379 62.0749L71.5398 61.9963L71.9542 61.7233L72.2716 61.8153C72.8608 61.5423 73.3179 60.9405 73.755 60.4689C74.0805 60.4384 74.2016 60.345 74.444 60.1311C75.017 59.6932 75.6052 59.2811 76.1982 58.8704C76.5541 58.5903 76.8074 58.3811 77.0093 57.96Z" fill="black"/>
<path d="M68.4363 70.0454L68.7708 70.2369L69.1605 70.1264C68.5019 74.0713 67.5473 77.798 66.606 81.6719C66.4602 81.4904 66.0991 81.3589 65.8848 81.2502C66.9762 77.5317 67.7084 73.844 68.4363 70.0454Z" fill="black"/>
<path d="M85.8989 55.8143C88.0575 55.174 90.8025 55.4479 92.9991 55.7986L93.0352 56.2983C92.8437 56.436 92.7164 56.5013 92.4859 56.5518C90.5292 56.3884 88.6852 56.3236 86.7294 56.5318C86.1488 56.3279 85.658 56.3326 85.0488 56.355C85.3301 56.1711 85.6138 55.991 85.8989 55.8143Z" fill="black"/>
<path d="M81.6989 56.6122C83.0897 56.313 84.4829 55.9814 85.8969 55.8142C85.6118 55.991 85.3282 56.1711 85.0469 56.355C85.656 56.3326 86.1469 56.3278 86.7275 56.5317C84.7608 56.7814 82.7362 57.0858 80.8646 57.7705L80.5762 56.8886C80.981 56.8466 81.3488 56.8419 81.6989 56.6122Z" fill="black"/>
<path d="M80.5766 56.8884L80.865 57.7703C79.8116 58.181 78.7558 58.5845 77.7204 59.0391C77.5598 58.7394 77.2814 58.4788 77.0557 58.2263C77.9333 57.9847 78.827 57.5688 79.6799 57.2396L80.5766 56.8884Z" fill="black"/>
<path d="M81.7375 81.8347C82.6721 81.7647 83.63 81.1596 84.5034 80.8266C85.7354 80.3563 86.9699 80.0023 88.2804 79.8427C90.6333 79.5564 92.7554 79.8961 94.6536 81.3845L95.5122 82.4279L95.9907 82.5208L96.9795 81.8928L97.0436 81.6799L97.6143 81.5055C98.2305 81.6351 98.7741 81.7337 99.4051 81.6832C99.5401 81.4907 99.6066 81.3011 99.8589 81.2596C100.99 81.0738 103.315 82.1744 104.237 81.8304L105.606 81.3111C105.73 81.4564 105.9 81.6094 105.963 81.7899L105.688 82.0767C105.351 82.5589 105.3 82.7137 104.688 82.8252C104.601 82.8405 104.514 82.8538 104.427 82.8662C105.531 83.0201 106.561 83.2564 107.63 83.5713C109.301 84.2431 110.009 84.9439 111.446 85.8353C111.704 86.2765 111.777 86.3837 111.651 86.9011C110.994 89.5949 106.313 93.1653 104.015 94.4917C97.2826 98.3756 89.0691 99.9278 81.5056 97.8635C76.7907 96.6095 72.5632 93.9576 69.3754 90.2552C68.8024 89.582 68.1572 88.8836 67.7271 88.107C67.52 87.733 67.224 87.1603 67.3831 86.7306C67.4311 86.601 67.5319 86.4742 67.6131 86.3632C70.4683 83.8853 74.2595 83.0701 77.9676 82.9391C78.8528 82.9081 79.835 83.1416 80.7059 83.0229C81.1521 82.9624 81.2381 82.7175 81.4781 82.3836L81.7375 81.8347Z" fill="#ECD4A5"/>
<path d="M81.738 81.8347C82.6726 81.7647 83.6305 81.1596 84.5038 80.8266C85.7359 80.3563 86.9703 80.0023 88.2808 79.8427C90.6338 79.5564 92.7558 79.8961 94.654 81.3845L95.5126 82.4279C95.8666 83.7462 95.7982 84.8491 95.0969 86.0531C94.0297 87.8845 92.1999 88.7907 90.2114 89.2495C90.1657 89.26 90.1192 89.2685 90.0731 89.2781L89.7904 89.4972L89.0767 89.7907L88.7588 89.4081C87.5956 89.1785 86.3968 88.8054 85.39 88.1704C84.2539 87.4543 83.2551 86.3265 82.9767 84.9787C82.6826 83.5546 83.2114 82.6871 83.9683 81.5579C83.1349 81.8195 82.3077 82.1077 81.4785 82.3836L81.738 81.8347Z" fill="url(#paint2_linear_3039_11979)"/>
<path d="M87.6065 81.1516C88.1624 81.092 88.8129 80.9982 89.3669 81.0601C89.7713 81.1054 89.93 81.2745 90.179 81.5599L90.1277 81.9229C89.5104 82.6505 88.8305 82.7591 87.9443 82.9549C87.3694 82.9692 86.7802 82.9806 86.2157 82.8496C85.8114 82.7562 85.5453 82.61 85.3281 82.2555L85.4887 81.9087C86.0589 81.4303 86.898 81.3212 87.6065 81.1516Z" fill="#F7F2F0"/>
<path d="M84.0428 91.9105C83.2797 91.7033 82.5409 91.4474 81.8334 91.0891C80.7799 90.5555 79.4709 89.6717 79.1226 88.4587C78.9896 87.9966 79.0105 87.6269 79.2504 87.2114C80.0187 87.3243 80.0102 89.0533 80.8631 89.7546C82.1441 90.808 84.0409 91.3588 85.6868 91.1644C86.9564 91.0148 87.9619 90.4002 88.7568 89.4078L89.0747 89.7904L89.7884 89.4969L90.0711 89.2777C90.5339 89.6575 90.9463 90.1439 91.3625 90.576C91.7104 90.698 92.062 90.8123 92.424 90.8824C94.2101 91.2268 96.2713 90.8862 97.2853 89.2186C97.6265 88.6574 97.8698 87.8113 98.4143 87.4392L98.6077 87.5173C98.6875 87.9447 98.6034 88.3468 98.4637 88.7541C97.9349 90.2973 96.1393 91.0167 94.7969 91.6566C94.4525 92.6609 94.1279 93.6157 93.4428 94.449C92.4302 95.6796 91.0143 96.3919 89.431 96.5105C88.0854 96.611 86.6105 96.3161 85.5771 95.3985C84.5218 94.4609 84.144 93.2817 84.0428 91.9105Z" fill="#1E110B"/>
<path d="M91.1014 93.8909C90.9773 93.9452 90.8543 93.9924 90.7246 94.0338C89.4269 94.4474 87.5106 94.1768 86.3251 93.5407C85.8884 93.3063 85.7882 93.1062 85.6504 92.655C85.9412 91.7612 86.9994 91.8822 87.6171 91.1671C87.6403 91.14 87.6612 91.1114 87.6831 91.0833L88.1364 91.3791C88.6695 91.4849 89.0848 91.4882 89.6227 91.4144C90.0736 91.4925 90.3905 91.4668 90.6751 91.8813C91.0049 92.3611 91.0296 93.3092 91.1014 93.8909Z" fill="#EE7443"/>
<path d="M89.7889 89.4971C90.2513 89.9216 90.716 90.3404 91.1968 90.7444C90.1676 90.9154 89.1294 91.0555 88.1349 91.3795L87.6816 91.0836C88.1744 90.6743 88.6291 90.2503 89.0753 89.7906L89.7889 89.4971Z" fill="#F9F5F4"/>
<path d="M89.6221 91.4146C90.3586 91.3574 91.3925 91.1511 92.0021 91.6466C92.2041 91.811 92.1983 91.9539 92.2592 92.1974C92.0919 92.923 91.6419 93.4056 91.1007 93.8911C91.029 93.3094 91.0043 92.3613 90.6745 91.8815C90.3899 91.467 90.073 91.4927 89.6221 91.4146Z" fill="#EE7443"/>
<path d="M93.4498 91.3979L93.8285 91.7324C93.9083 91.9997 93.9501 92.2293 93.8874 92.5066C93.6451 93.5795 92.6843 94.5205 91.7948 95.0932C90.6164 95.8512 89.1116 96.198 87.7328 95.8826C86.3933 95.5763 85.6896 94.8335 84.975 93.7096C84.8129 93.2318 84.5763 92.5657 84.7288 92.0764C84.831 92.0912 84.9446 92.0712 85.0353 92.1202C85.1997 92.2098 85.3902 93.0574 85.5622 93.2875C85.8469 93.6686 86.3729 94.0217 86.7919 94.2423C87.8734 94.8116 89.1886 94.8573 90.3442 94.4934C91.9393 93.9907 92.7066 92.7996 93.4498 91.3979Z" fill="#F9F5F4"/>
<path d="M99.4047 81.6824C99.5396 81.4899 99.6062 81.3003 99.8585 81.2588C100.99 81.073 103.315 82.1736 104.237 81.8296L105.606 81.3103C105.729 81.4556 105.9 81.6086 105.962 81.7891L105.688 82.0759C105.351 82.5581 105.299 82.7129 104.688 82.8244C104.601 82.8397 104.514 82.853 104.427 82.8654C101.534 82.4685 98.5375 82.9111 95.9902 82.52L96.979 81.892L97.0432 81.6791L97.6138 81.5047C98.2301 81.6343 98.7737 81.7329 99.4047 81.6824Z" fill="black"/>
<path d="M116.99 25.413C117.419 24.7939 117.831 24.3247 118.586 24.1251C119.319 23.9312 120.09 24.1226 120.724 24.5103C121.288 24.9709 122.152 25.6395 122.283 26.3984C123.083 26.8327 123.583 28.1544 123.833 28.9857C124.871 32.4292 124.303 37.2656 122.6 40.4414C119.745 45.7641 112.768 47.4317 107.985 50.4775C106.81 51.226 104.687 53.3767 103.731 53.8335C102.688 55.2224 101.793 56.6679 100.93 58.1744L99.4459 57.5674C99.1713 57.7413 98.9679 57.8533 98.8182 58.1492C96.7466 57.4069 94.6445 56.9562 92.4863 56.5521C92.7168 56.5016 92.8441 56.4364 93.0356 56.2987L92.9995 55.7989C94.2016 55.969 95.4275 56.3344 96.6135 56.6074C97.6033 54.2676 98.6448 52.1607 100.305 50.2206C101.198 49.0461 102.369 47.78 103.619 46.9893C105.19 45.996 107.225 45.2927 108.484 43.8965C108.78 43.5682 109.025 43.1449 108.972 42.6857C108.864 41.7411 107.371 40.7796 106.688 40.2409C106.048 39.8657 105.553 39.3097 105.376 38.5696C105.141 37.5845 105.519 36.8598 106.031 36.0525C106.715 35.349 107.902 34.9119 108.874 34.9139C109.923 34.9161 110.805 35.316 111.526 36.0733C112.744 37.353 113.706 40.9502 115.729 40.9553C116.108 40.9563 116.555 40.787 116.895 40.6406C118.156 39.5422 118.921 38.4185 119.229 36.7541L119.509 35.3754C118.969 32.0287 118.143 30.6573 116.307 27.8471C116.396 27.1872 116.111 26.0936 116.354 25.5316L116.636 26.1357L116.739 25.4449L116.99 25.413Z" fill="#D3BB9C"/>
<path d="M122.283 26.3977C123.083 26.832 123.582 28.1538 123.833 28.985C124.87 32.4285 124.302 37.2649 122.599 40.4408C119.744 45.7635 112.767 47.4311 107.985 50.4769C106.809 51.2253 104.686 53.376 103.731 53.8328C102.842 53.8328 104.962 50.6893 113.533 46.404C114.265 46.0458 115.517 45.3074 116.276 45.0312C118.253 44.3121 119.838 42.8949 121.066 41.2124C123.161 38.3427 123.952 33.8381 123.327 30.3445C123.095 29.0459 122.486 27.8572 122.304 26.557L122.283 26.3977Z" fill="#AA947E"/>
<path d="M106.686 40.2408C107.278 39.9786 107.462 40.0103 108.065 40.1295C108.807 40.4654 109.823 41.1965 110.105 41.9826C110.312 42.5593 110.108 43.206 109.829 43.7225C108.779 45.6594 106.288 46.5593 104.488 47.6707C103.951 48.0017 103.474 48.4135 102.944 48.7481C101.932 48.9804 101.26 49.8525 100.303 50.2206C101.196 49.0461 102.367 47.78 103.617 46.9892C105.188 45.996 107.223 45.2926 108.482 43.8965C108.778 43.5682 109.023 43.1449 108.97 42.6857C108.863 41.741 107.369 40.7796 106.686 40.2408Z" fill="black"/>
<path d="M106.028 36.0522C106.713 35.3487 107.9 34.9116 108.872 34.9136C109.921 34.9158 110.803 35.3157 111.524 36.0729C112.742 37.3527 113.704 40.9499 115.727 40.955C116.105 40.956 116.552 40.7867 116.893 40.6403C116.77 41.164 116.594 41.4639 116.277 41.886C115.848 41.9376 115.415 41.9755 114.984 41.925C113.072 41.7006 112.422 38.8465 111.401 37.5442C110.533 36.4377 109.607 36.1547 108.256 36.0004C108.035 35.9747 107.682 35.8873 107.469 35.9089C107.165 35.9395 106.377 36.7773 106.167 36.4442C106.101 36.3398 106.065 36.1713 106.028 36.0522Z" fill="black"/>
<path d="M100.305 50.2198C101.262 49.8517 101.933 48.9797 102.945 48.7473C100.485 51.2081 98.555 53.6287 97.4018 56.9558C98.076 57.1478 98.7968 57.3036 99.4459 57.5666C99.1713 57.7405 98.9679 57.8525 98.8182 58.1483C96.7466 57.4061 94.6445 56.9554 92.4863 56.5513C92.7168 56.5008 92.8441 56.4356 93.0356 56.2979L92.9995 55.7981C94.2016 55.9682 95.4275 56.3336 96.6135 56.6066C97.6033 54.2668 98.6448 52.1599 100.305 50.2198Z" fill="black"/>
<path d="M116.306 27.8469C116.395 27.187 116.111 26.0935 116.354 25.5314L116.635 26.1355L116.739 25.4448L116.99 25.4128C117.186 27.6073 118.644 28.927 119.465 30.8545C119.494 31.7411 119.828 34.7187 119.508 35.3752C118.968 32.0286 118.143 30.6572 116.306 27.8469Z" fill="black"/>
<path d="M119.465 30.8542C120.489 32.9845 120.873 35.7032 120.056 37.9668C119.846 38.5462 119.564 39.1257 119.165 39.5981C119.142 38.6574 119.206 37.6957 119.229 36.7537L119.508 35.375C119.828 34.7185 119.494 31.7408 119.465 30.8542Z" fill="black"/>
<path d="M106.03 36.0525C106.067 36.1716 106.103 36.3401 106.169 36.4445C106.379 36.7777 107.166 35.9398 107.47 35.9092C107.683 35.8876 108.037 35.975 108.258 36.0007C107.571 36.1569 106.807 36.4191 106.412 37.0564C106.19 37.4157 106.211 37.7569 106.329 38.1509C106.582 39.0008 107.399 39.6034 108.066 40.1295C107.463 40.0103 107.279 39.9786 106.687 40.2409C106.047 39.8657 105.552 39.3097 105.375 38.5696C105.14 37.5844 105.519 36.8598 106.03 36.0525Z" fill="black"/>
<path d="M119.228 36.7537C119.205 37.6957 119.141 38.6574 119.164 39.5981C118.415 40.784 117.602 41.4259 116.278 41.8859C116.595 41.4638 116.771 41.1639 116.894 40.6402C118.155 39.5418 118.92 38.4181 119.228 36.7537Z" fill="black"/>
<path d="M81.2394 136.122C81.4147 135.618 81.6048 135.177 81.8775 134.718L82.25 135.041C82.261 135.188 82.3265 135.331 82.375 135.47L82.6092 135.967C83.7216 139.017 86.2598 141.36 88.1951 143.889C88.6969 144.544 89.0618 145.358 89.6087 145.956C88.0379 148.786 87.0657 151.587 86.4575 154.767C86.1738 155.776 85.9695 156.748 85.835 157.787C85.9956 159.014 86.2118 160.22 86.4513 161.433L85.835 162.015C85.5376 162.112 85.253 162.195 84.9874 162.365C84.8852 162.519 84.793 162.636 84.6524 162.758C84.057 163.277 83.3576 163.927 82.5076 163.838C82.0661 163.791 81.6813 163.499 81.4066 163.164C80.7134 162.317 80.8507 161.523 80.9329 160.512C80.8654 160.006 79.6704 159.235 79.3982 158.326C78.8783 159.111 78.3875 159.834 77.7028 160.489C77.5721 159.977 77.7137 159.502 77.8235 158.999C79.0242 157.543 79.5364 154.977 80.0772 153.206C80.2121 152.457 80.4026 151.71 80.567 150.967C80.9913 149.046 81.1648 147.082 81.4983 145.144C81.6 142.203 81.9089 139.006 81.2394 136.122Z" fill="#CB7A27"/>
<path d="M81.2407 136.122C81.416 135.618 81.6061 135.177 81.8788 134.718L82.2514 135.041C82.2623 135.188 82.3279 135.331 82.3763 135.47L82.0841 135.623C82.0361 136.417 82.2927 137.266 82.363 138.068C82.5502 140.208 82.6571 142.693 82.3431 144.828C82.1891 146.697 81.9648 148.56 81.6698 150.413C81.1414 150.478 80.9418 150.614 80.5684 150.967C80.9927 149.046 81.1661 147.082 81.4997 145.144C81.6014 142.203 81.9102 139.006 81.2407 136.122Z" fill="black"/>
<path d="M81.4997 145.144C82.1483 144.232 81.8551 142.798 82.0603 141.706C82.2979 142.693 81.8052 143.787 82.2913 144.734C82.3074 144.766 82.3255 144.797 82.3431 144.828C82.1891 146.697 81.9648 148.56 81.6698 150.412C81.1414 150.478 80.9418 150.614 80.5684 150.967C80.9927 149.046 81.1661 147.082 81.4997 145.144Z" fill="black"/>
<path d="M80.567 150.967C80.9405 150.614 81.1401 150.478 81.6684 150.413L81.4294 151.826C80.9129 153.992 80.453 156.349 79.3982 158.326C78.8783 159.111 78.3875 159.834 77.7028 160.489C77.5721 159.977 77.7137 159.503 77.8235 158.999C79.0242 157.543 79.5364 154.977 80.0772 153.206C80.2121 152.457 80.4026 151.71 80.567 150.967Z" fill="black"/>
<path d="M80.568 150.967C80.9415 150.614 81.141 150.478 81.6694 150.413L81.4304 151.826L80.7638 151.898C80.6331 152.195 80.5461 152.474 80.4768 152.791L80.0781 153.206C80.2131 152.457 80.4036 151.71 80.568 150.967Z" fill="black"/>
<path d="M97.3787 105.303C97.7028 104.929 98.1551 104.743 98.5904 104.528C99.9797 105.263 101.175 106.219 101.654 107.779C102.084 109.179 101.824 110.905 101.332 112.257C99.5169 115.552 96.3177 117.713 92.7612 118.743C89.9597 119.555 87.563 119.55 84.6798 119.513C84.0174 119.537 83.3821 119.523 82.7217 119.464C83.8801 116.717 84.4783 115.749 83.7214 112.687C89.7083 110.991 93.2482 110.134 97.3787 105.303Z" fill="#EE7443"/>
<path d="M97.3786 105.303C97.7027 104.929 98.155 104.743 98.5903 104.528C99.9796 105.263 101.175 106.219 101.654 107.779C102.084 109.179 101.824 110.905 101.332 112.257C99.5168 115.552 96.3176 117.713 92.7611 118.743C89.9596 119.555 87.5629 119.55 84.6797 119.513C89.4132 118.617 92.2912 117.616 96.3 114.847C96.3124 114.845 96.3247 114.844 96.3366 114.841C97.1634 114.628 97.5806 114.03 98.0291 113.356C98.3741 111.63 98.8212 110.125 98.6164 108.326C98.5109 107.4 98.1237 105.901 97.3786 105.303Z" fill="#974011"/>
<path d="M96.3003 114.847C95.8499 114.741 95.3343 114.613 94.9309 114.382C94.5237 114.149 94.1773 113.812 94.078 113.336C93.9977 112.954 94.0947 112.573 94.2937 112.245C94.6311 111.688 95.2417 111.259 95.8808 111.137C96.3459 111.047 96.8335 111.119 97.2121 111.418C97.8051 111.884 97.931 112.655 98.0294 113.356C97.5809 114.03 97.1637 114.628 96.3369 114.841C96.325 114.844 96.3127 114.845 96.3003 114.847Z" fill="#F7F2F0"/>
<path d="M86.2617 113.795C86.4964 113.772 86.7326 113.751 86.9688 113.754C87.528 113.76 88.2507 114.093 88.6185 114.525C88.8817 114.834 88.992 115.221 88.9497 115.623C88.8779 116.314 88.3709 116.657 87.8782 117.071C87.5865 117.206 87.2505 117.319 86.926 117.318C86.4827 117.316 86.0156 117.114 85.7229 116.78C85.4041 116.415 85.2848 115.865 85.3323 115.389C85.4036 114.676 85.7438 114.251 86.2617 113.795Z" fill="#F7F2F0"/>
<path d="M131.562 27.6937C132.607 27.4178 133.661 27.4456 134.619 28.0168C134.98 28.2326 135.223 28.5033 135.474 28.8385L135.529 29.2147C136.17 29.7074 136.273 30.1202 136.372 30.9098C136.615 32.8483 136.038 35.5508 134.808 37.0703C134.49 37.463 134.117 37.912 133.661 38.1403C133.633 38.1558 133.605 38.1708 133.578 38.1867C133.083 38.4788 132.811 38.951 132.317 39.2329L132.502 38.9568C132.47 38.9842 132.439 39.0122 132.407 39.0389C131.844 39.5063 131.217 39.7802 130.477 39.7245C129.737 40.2737 128.874 40.9415 127.954 41.1143C127.254 40.9856 126.521 40.9866 125.811 40.9529C125.077 41.3676 124.102 42.0773 123.253 42.0971C123.001 41.9643 122.906 41.8405 122.756 41.6091C123.904 40.5389 124.406 38.333 124.743 36.8352C125.506 36.9836 126.229 37.2837 127.021 37.2238C127.449 37.1914 127.819 37.104 128.113 36.7729C128.273 36.5847 128.298 36.5654 128.326 36.3227L127.738 35.9868C128.173 35.8293 128.363 35.7864 128.642 35.3961C129.351 34.4052 129.736 32.5634 129.52 31.3789C129.75 30.9202 129.904 30.6349 129.799 30.1031C130.259 28.9976 130.454 28.294 131.562 27.6937Z" fill="#D3BB9C"/>
<path d="M135.528 29.2148C136.169 29.7076 136.272 30.1204 136.371 30.91C136.614 32.8485 136.037 35.551 134.807 37.0704C134.489 37.4632 134.116 37.9122 133.66 38.1405C133.632 38.156 133.604 38.171 133.577 38.1869C133.082 38.479 132.81 38.9512 132.316 39.2331L132.501 38.957C132.469 38.9844 132.438 39.0123 132.406 39.0391C131.843 39.5065 131.216 39.7803 130.476 39.7246C129.736 40.2739 128.873 40.9416 127.953 41.1144C127.253 40.9858 126.52 40.9867 125.81 40.9531C128.715 39.7926 131.863 37.5724 133.395 34.7881C134.184 33.3555 134.818 31.12 134.349 29.4856C134.719 29.7058 134.884 29.8496 135.049 30.2516L135.038 30.6088C135.232 30.2977 135.369 30.0146 135.481 29.664L135.513 29.5594L135.53 29.8931L135.736 29.6035L135.528 29.2148Z" fill="#AA947E"/>
<path d="M135.528 29.2148C136.17 29.7076 136.273 30.1204 136.372 30.91C136.614 32.8485 136.038 35.551 134.807 37.0704C134.489 37.4632 134.116 37.9122 133.66 38.1405C133.633 38.156 133.605 38.171 133.578 38.1869C133.082 38.479 132.811 38.9512 132.316 39.2331L132.502 38.957C132.47 38.9844 132.438 39.0123 132.406 39.0391C131.844 39.5065 131.216 39.7803 130.477 39.7246C132.626 38.3691 134.516 36.2902 135.174 33.7874C135.433 32.8049 135.562 31.5215 135.038 30.6088C135.233 30.2977 135.37 30.0146 135.481 29.664L135.514 29.5594L135.531 29.8931L135.736 29.6035L135.528 29.2148Z" fill="#17120F"/>
<path d="M129.519 31.3792C130.14 32.3365 130.439 32.7816 130.178 33.932C130.171 33.9631 130.161 33.9935 130.153 34.0242C130.274 34.5825 130.199 34.9603 129.892 35.4559C129.489 36.1071 128.863 36.6125 128.112 36.7732C128.272 36.585 128.297 36.5657 128.325 36.323L127.737 35.9871C128.172 35.8296 128.362 35.7867 128.641 35.3964C129.35 34.4055 129.735 32.5637 129.519 31.3792Z" fill="#17120F"/>
<path d="M131.563 27.6937C132.607 27.4178 133.662 27.4456 134.619 28.0168C134.981 28.2326 135.224 28.5033 135.475 28.8385L135.529 29.2147L135.738 29.6034L135.532 29.893L135.515 29.5592L135.482 29.6639C135.371 30.0144 135.234 30.2975 135.04 30.6087L135.05 30.2514C134.886 29.8494 134.72 29.7056 134.351 29.4854C134.289 29.1655 134.151 28.9794 133.871 28.7962C133.164 28.3358 132.314 28.5331 131.557 28.7213C131.674 28.2584 131.685 28.1528 131.563 27.6937Z" fill="black"/>
<path d="M131.562 27.6936C131.684 28.1526 131.673 28.2583 131.555 28.7212C131.268 29.3638 130.949 30.6079 130.454 31.0765C130.144 30.8094 129.988 30.4586 129.798 30.1029C130.259 28.9975 130.453 28.2939 131.562 27.6936Z" fill="#17120F"/>
<path d="M129.519 31.3793C129.749 30.9207 129.902 30.6354 129.797 30.1035C129.988 30.4592 130.144 30.8099 130.454 31.0771C130.759 31.7143 130.705 32.9974 130.43 33.655C130.37 33.7991 130.265 33.9185 130.153 34.0244C130.161 33.9937 130.17 33.9632 130.178 33.9322C130.439 32.7818 130.14 32.3366 129.519 31.3793Z" fill="black"/>
<path d="M93.4033 141.461C92.3105 141.429 90.4388 140.39 89.4586 139.868C87.0039 138.561 82.7029 135.783 81.8889 132.953C81.7545 132.485 81.7554 131.995 82.022 131.573C82.9708 130.073 84.9465 131.944 86.4285 131.573L86.582 131.533L87.3508 130.937L87.8074 130.824C88.926 132.771 90.3866 135.13 92.3604 136.309L93.0983 136.889C93.0921 138.391 93.5668 140.009 93.4033 141.461Z" fill="#BCB366"/>
<path d="M87.8055 130.824C88.924 132.771 90.3846 135.13 92.3584 136.309C92.491 136.63 92.5893 136.951 92.6815 137.287C92.4782 137.434 92.4264 137.517 92.1603 137.453C90.3423 137.017 87.567 133.058 86.5801 131.533L87.3489 130.937L87.8055 130.824Z" fill="#ECD4A5"/>
<path d="M108.369 68.2717C109.609 71.4639 113.224 82.1751 112.135 85.229C112.124 85.2595 112.109 85.2881 112.095 85.3181C111.858 85.4701 111.611 85.6002 111.445 85.8346C110.009 84.9432 109.3 84.2423 107.63 83.5706C106.561 83.2556 105.531 83.0193 104.427 82.8654C104.514 82.8531 104.601 82.8397 104.688 82.8245C105.3 82.713 105.351 82.5581 105.688 82.076L105.962 81.7892C105.9 81.6086 105.73 81.4557 105.606 81.3104C106.272 80.7367 106.96 80.1836 107.399 79.408C108.831 76.8766 108.581 74.0361 107.824 71.3419C108.01 70.9988 108.059 70.5577 108.138 70.177C108.051 69.7006 107.784 69.2508 107.576 68.8163C107.931 68.7577 108.11 68.5099 108.369 68.2717Z" fill="#B77235"/>
<path d="M108.139 70.177C108.931 73.361 109.717 76.7818 107.874 79.7839C107.425 80.5166 106.709 81.3551 105.963 81.7892C105.9 81.6086 105.73 81.4557 105.606 81.3104C106.272 80.7367 106.96 80.1836 107.399 79.408C108.832 76.8766 108.581 74.0361 107.824 71.3419C108.01 70.9989 108.059 70.5577 108.139 70.177Z" fill="black"/>
<path d="M109.186 83.1555C110.287 83.7468 111.193 84.4524 112.095 85.3185C111.858 85.4705 111.611 85.6006 111.445 85.835C110.009 84.9436 109.301 84.2427 107.63 83.571C108.312 83.6229 108.64 83.561 109.186 83.1555Z" fill="black"/>
<path d="M104.427 82.8659C104.514 82.8535 104.601 82.8401 104.688 82.8249C105.3 82.7134 105.351 82.5586 105.688 82.0764C106.685 82.702 108.091 82.5786 109.186 83.1555C108.64 83.561 108.312 83.6229 107.63 83.571C106.561 83.2561 105.531 83.0198 104.427 82.8659Z" fill="black"/>
<path d="M82.2108 123.676C82.5905 124.212 82.7078 124.97 82.8566 125.602C83.0623 127.403 84.9221 129.317 86.0363 130.705C84.6569 130.395 83.3037 130.014 81.9452 129.625C81.4981 131.038 80.9113 132.398 79.5509 133.16C79.5253 133.175 79.4982 133.187 79.4716 133.2C79.2972 132.399 79.2373 132.192 78.6234 131.68C78.6448 130.309 78.3977 129.222 78.0143 127.916C78.2029 127.063 77.5363 125.956 77.6612 124.854L77.694 125.139C79.2069 124.879 79.2102 123.687 82.2108 123.676Z" fill="#EE7443"/>
<path d="M82.2082 123.676C82.5879 124.212 82.7052 124.97 82.854 125.602C82.8264 125.614 82.7993 125.626 82.7718 125.638C81.2703 126.259 79.9978 126.209 78.7729 127.482C78.3376 126.709 77.9841 125.981 77.6914 125.139C79.2043 124.879 79.2076 123.687 82.2082 123.676Z" fill="#F7F2F0"/>
<path d="M77.6612 124.854L77.694 125.139C77.9867 125.981 78.3402 126.709 78.7755 127.482C79.5709 129.415 79.5628 131.157 79.4716 133.2C79.2972 132.399 79.2373 132.192 78.6234 131.68C78.6448 130.309 78.3977 129.221 78.0143 127.916C78.2029 127.063 77.5363 125.956 77.6612 124.854Z" fill="black"/>
<path d="M71.7409 121.728C73.3726 122.039 74.7035 122.514 75.8196 123.826C75.7902 124.752 75.5911 125.409 75.1093 126.197C74.2849 127.028 73.3408 129.418 72.7872 130.533L72.735 130.671L72.5477 130.748C72.4494 130.404 72.3444 130.087 72.1866 129.766C72.1149 129.62 71.6858 129.524 71.5171 129.467C71.4212 129.06 71.2482 128.542 70.9655 128.222C70.3644 127.542 69.1689 127.6 68.3303 127.54C68.1626 127.056 67.9796 126.629 67.7283 126.182C67.4627 126.151 67.255 126.062 67.0127 125.956C67.1643 125.645 67.9468 125.339 68.2647 125.166C69.1704 124.674 69.7329 124.177 70.42 123.403C70.8125 122.81 71.2867 122.273 71.7409 121.728Z" fill="#EE7443"/>
<path d="M71.7408 121.728C73.3725 122.039 74.7034 122.514 75.8196 123.826C75.7901 124.752 75.591 125.409 75.1092 126.197C73.0589 123.828 71.6487 124.477 70.4199 123.403C70.8124 122.81 71.2866 122.273 71.7408 121.728Z" fill="#F7F2F0"/>
<path d="M67.7295 126.182C69.0229 126.389 70.7078 126.405 71.5578 127.555C72.2473 128.486 72.262 129.611 72.7884 130.533L72.7362 130.671L72.549 130.749C72.4506 130.405 72.3456 130.087 72.1879 129.766C72.1161 129.62 71.687 129.525 71.5184 129.467C71.4224 129.06 71.2494 128.542 70.9667 128.222C70.3656 127.543 69.1702 127.6 68.3315 127.54C68.1638 127.057 67.9808 126.629 67.7295 126.182Z" fill="black"/>
<path d="M75.7601 106.062L76.6591 106.403C75.0588 107.43 73.9654 108.648 72.9215 110.226C73.6518 110.451 74.1132 110.511 74.4891 111.22C74.5912 111.739 74.5827 112.168 75.0265 112.519C74.4164 113.813 74.0571 115.144 74.0391 116.58C73.7483 116.852 73.7193 116.976 73.5929 117.362C73.6366 117.764 73.7592 118.105 74.0733 118.382C73.028 119.364 72.6464 120.694 71.7413 121.728C71.287 122.273 70.8128 122.811 70.4203 123.403C69.7333 124.178 69.1707 124.674 68.265 125.167C67.9471 125.34 67.1646 125.645 67.013 125.957C67.2553 126.062 67.463 126.151 67.7286 126.182C67.9799 126.629 68.1629 127.057 68.3306 127.54C68.0745 127.491 67.8193 127.434 67.5708 127.353C66.831 127.114 65.1756 126.501 64.8392 125.725C64.709 125.425 64.7931 125.332 64.9104 125.05C65.4474 124.95 65.9819 124.836 66.5136 124.71C69.9513 123.891 71.6035 120.205 73.3164 117.415C72.9125 117.032 72.6189 116.605 72.3399 116.125C71.4044 114.516 71.2214 112.772 71.7018 110.977C72.329 108.636 73.7217 107.219 75.7601 106.062Z" fill="black"/>
<path d="M72.9214 110.226C73.6517 110.451 74.113 110.511 74.4889 111.22C74.591 111.739 74.5825 112.168 75.0263 112.519C74.4162 113.813 74.057 115.144 74.0389 116.58C73.0606 115.885 72.5764 114.234 72.2053 113.143C72.1621 111.97 72.3445 111.249 72.9214 110.226Z" fill="#EE7443"/>
<path d="M72.9214 110.226C73.6517 110.451 74.113 110.511 74.4889 111.22C74.4423 111.8 74.4604 112.426 73.9738 112.826C73.5828 113.147 72.6966 113.159 72.2053 113.143C72.1621 111.97 72.3445 111.249 72.9214 110.226Z" fill="#F7F2F0"/>
<path d="M82.6104 135.968C85.3192 138.659 88.1711 140.411 91.6326 141.925C90.9721 143.268 90.3506 144.657 89.6098 145.956C89.0629 145.358 88.698 144.545 88.1963 143.889C86.261 141.36 83.7227 139.017 82.6104 135.968Z" fill="#9F5718"/>
<path d="M76.6585 106.403C77.5522 106.025 78.4217 105.885 79.383 105.806C78.857 108.069 78.4892 109.408 76.6632 110.961C76.0807 111.457 75.4957 111.907 75.0258 112.519C74.582 112.168 74.5906 111.739 74.4884 111.22C74.1126 110.511 73.6512 110.451 72.9209 110.226C73.9648 108.648 75.0581 107.43 76.6585 106.403Z" fill="#EE7443"/>
<path d="M76.708 120.491C78.3307 120.59 79.8312 120.496 81.4306 120.204C81.5845 121.314 81.6962 122.676 82.2093 123.676C79.2087 123.687 79.2054 124.879 77.6925 125.139L77.6597 124.854C77.6155 124.373 77.3305 123.915 77.1884 123.451C76.8876 122.472 76.7736 121.51 76.708 120.491Z" fill="#EE7443"/>
<path d="M82.7559 121.069C83.5703 121.082 84.3571 121.142 85.1658 121.236C85.5469 121.472 85.6163 121.481 85.7222 121.93C85.822 122.353 85.8182 122.82 85.8372 123.254L85.8054 123.381C86.0377 125.139 86.2958 126.869 86.8588 128.556L86.3808 129.178C84.5054 127.33 83.6829 125.566 82.9364 123.072C82.7511 122.415 82.7658 121.745 82.7559 121.069Z" fill="#ECD4A5"/>
<path d="M82.7559 121.069C83.5703 121.082 84.3571 121.142 85.1658 121.236C85.5469 121.472 85.6163 121.481 85.7222 121.93C85.822 122.353 85.8182 122.82 85.8372 123.254L85.8054 123.381C85.6828 123.139 85.6367 123.061 85.4044 122.918C84.7415 122.511 83.9941 122.478 83.2633 122.68C83.0695 122.734 83.0329 122.903 82.9364 123.072C82.7511 122.415 82.7658 121.745 82.7559 121.069Z" fill="#AD9C88"/>
<path d="M74.0723 118.382C74.9537 118.929 75.5035 119.256 75.7406 120.318C75.9838 121.409 75.7814 122.702 75.8189 123.826C74.7028 122.514 73.3719 122.039 71.7402 121.728C72.6454 120.694 73.0269 119.364 74.0723 118.382Z" fill="#EE7443"/>
<path d="M122.755 41.6093C122.904 41.8407 122.999 41.9645 123.252 42.0973C124.101 42.0775 125.075 41.3678 125.81 40.9531C126.52 40.9868 127.253 40.9858 127.952 41.1144C127.461 41.6681 126.345 42.0689 125.658 42.3415C124.409 43.2387 122.222 43.7456 120.719 44.0353C121.499 43.5756 122.491 42.4826 122.755 41.6093Z" fill="#B39E82"/>
<path d="M86.8589 128.556L87.4043 129.801L87.804 130.824L87.3473 130.937C87.0518 130.34 86.7049 129.761 86.3809 129.179L86.8589 128.556Z" fill="#D3BB9C"/>
<path d="M104.66 60.9151L104.357 60.4968C104.337 60.3458 104.321 60.2248 104.364 60.0757C104.958 57.9646 109.565 54.974 111.516 54.0302C115.201 52.2466 119.506 51.2071 123.497 52.6139C124.544 52.7634 125.718 53.0571 126.367 53.9739C126.437 54.0726 126.47 54.1516 126.49 54.2698C126.757 55.1574 124.916 59.6364 124.355 60.6903C122.555 64.0696 119.414 67.044 115.706 68.1608C114.528 68.5162 110.74 69.3042 109.687 68.6205C109.331 68.3895 109.314 67.994 109.222 67.6157C109.31 67.2822 109.46 67.2198 109.718 67.0011C109.604 66.9802 109.493 66.9573 109.383 66.9239C108.374 66.6195 107.38 64.2683 106.873 63.3292L106.527 62.6684C106.327 62.4402 106.107 62.2263 105.896 62.0081C105.495 61.6307 105.077 61.2734 104.66 60.9151Z" fill="#EE7443"/>
<path d="M104.66 60.9151L104.357 60.4968C104.337 60.3458 104.321 60.2248 104.364 60.0757C104.958 57.9646 109.565 54.974 111.516 54.0302C115.201 52.2466 119.506 51.2071 123.497 52.6139C123.807 52.7993 124.385 53.0246 124.511 53.3561C123.947 53.4005 123.384 53.4557 122.823 53.5215C123.544 53.6609 124.448 53.7136 124.95 54.286C124.931 54.4451 124.922 54.58 124.862 54.7291L124.296 54.7639C124.412 55.3237 124.343 55.8973 124.032 56.3876C123.931 56.5467 123.805 56.6501 123.66 56.7654L123.67 56.4238C121.157 55.4814 116.643 56.6706 114.302 57.733C111.582 58.9675 108.983 61.2496 106.873 63.3292L106.527 62.6684C106.327 62.4402 106.107 62.2263 105.896 62.0081C105.495 61.6307 105.077 61.2734 104.66 60.9151Z" fill="#CD5130"/>
<path d="M104.66 60.9151L104.357 60.4968C104.337 60.3458 104.321 60.2248 104.364 60.0757C104.958 57.9646 109.565 54.974 111.516 54.0302C115.201 52.2466 119.506 51.2071 123.497 52.6139C123.807 52.7993 124.385 53.0246 124.511 53.3561C123.947 53.4005 123.384 53.4557 122.823 53.5215L122.574 53.4922C121.435 52.8722 116.665 53.293 115.344 53.7051C114.622 53.9301 113.935 54.2293 113.299 54.64C113.249 54.9816 113.299 55.126 112.998 55.3385C112.43 55.7401 112.133 55.6882 111.81 56.409C109.585 58.0484 107.625 59.847 105.896 62.0081C105.495 61.6307 105.077 61.2734 104.66 60.9151Z" fill="#D19C6B"/>
<path d="M104.662 60.9145C107.404 58.5171 110.038 56.2974 113.301 54.6394C113.252 54.981 113.301 55.1254 113.001 55.3379C112.433 55.7395 112.136 55.6876 111.813 56.4084C109.587 58.0478 107.627 59.8464 105.898 62.0075C105.497 61.6302 105.08 61.2728 104.662 60.9145Z" fill="#CE9258"/>
<path d="M113.3 54.6392C113.937 54.2286 114.623 53.9294 115.345 53.7044C116.667 53.2922 121.436 52.8714 122.576 53.4915L122.824 53.5207C123.546 53.6601 124.45 53.7129 124.952 54.2853C124.933 54.4444 124.923 54.5792 124.863 54.7283L124.298 54.7631C120.456 53.8531 115.932 54.9384 112.627 56.9895C110.339 58.4098 108.018 60.4003 106.529 62.6677C106.329 62.4395 106.108 62.2255 105.897 62.0073C107.626 59.8462 109.586 58.0477 111.812 56.4083C112.135 55.6874 112.432 55.7393 113 55.3377C113.3 55.1252 113.251 54.9809 113.3 54.6392Z" fill="black"/>
<path d="M113.299 54.6392C113.936 54.2286 114.622 53.9294 115.344 53.7044C116.666 53.2922 121.435 52.8714 122.575 53.4915C117.803 53.4664 115.972 54.209 111.811 56.4083C112.134 55.6874 112.431 55.7393 112.999 55.3377C113.299 55.1252 113.25 54.9809 113.299 54.6392Z" fill="#CE9258"/>
<path d="M123.498 52.614C124.545 52.7636 125.72 53.0573 126.369 53.9741C126.438 54.0727 126.471 54.1518 126.492 54.27C126.758 55.1576 124.917 59.6365 124.356 60.6904C122.556 64.0698 119.415 67.0442 115.708 68.1609C114.529 68.5164 110.741 69.3044 109.688 68.6207C109.332 68.3896 109.315 67.9942 109.224 67.6159C109.312 67.2824 109.461 67.22 109.719 67.0013C111.302 66.9546 112.875 66.8422 114.417 66.461C117.459 65.7092 120.203 63.8273 121.831 61.114C122.337 60.2707 123.898 57.7379 123.661 56.7655C123.806 56.6502 123.932 56.5469 124.033 56.3877C124.344 55.8975 124.413 55.3238 124.297 54.764L124.863 54.7292C124.923 54.5801 124.932 54.4453 124.951 54.2862C124.449 53.7138 123.545 53.661 122.824 53.5216C123.386 53.4558 123.949 53.4007 124.513 53.3563C124.386 53.0248 123.808 52.7995 123.498 52.614Z" fill="#A1613B"/>
<path d="M124.297 54.7643L124.863 54.7295C125.076 56.3408 122.494 61.1361 121.451 62.4964C119.41 65.1587 116.755 67.0801 113.365 67.5132C112.005 67.6866 110.591 67.6757 109.224 67.6161C109.312 67.2826 109.461 67.2202 109.719 67.0015C111.302 66.9548 112.875 66.8424 114.417 66.4613C117.459 65.7094 120.203 63.8275 121.831 61.1142C122.337 60.2709 123.898 57.7382 123.661 56.7658C123.806 56.6505 123.932 56.5471 124.033 56.388C124.344 55.8977 124.413 55.3241 124.297 54.7643Z" fill="black"/>
<path d="M126.02 140.52C126.197 140.476 126.375 140.434 126.557 140.42C126.894 140.394 127.182 140.658 127.423 140.862C128.612 141.871 133.737 147.022 133.85 148.292C133.857 148.733 133.752 149.139 133.539 149.523C133.116 150.287 132.459 150.999 131.928 151.693C130.702 153.292 129.542 155.032 128.8 156.917C127.954 159.066 128.108 161.386 128.317 163.632C128.377 164.279 128.533 165.038 128.374 165.671C128.367 165.701 128.357 165.73 128.349 165.76C128.254 165.785 128.159 165.811 128.064 165.834C125.829 166.373 123.323 166.217 121.352 165.007C121.261 164.548 120.982 163.373 120.73 163.03C120.227 162.957 119.796 163.226 119.328 163.383C118.913 163.522 118.369 163.651 117.962 163.445C118.257 162.786 119.348 162.194 119.869 161.611C121.188 160.135 122.07 158.252 122.717 156.396C125.878 147.328 122.461 149.516 119.156 142.607C120.746 142.324 124.855 141.432 126.02 140.52Z" fill="#9F5718"/>
<path d="M89.007 99.9725C91.6541 99.7019 93.9225 99.5785 96.4703 98.6919C96.5653 99.9787 96.734 101.389 96.5178 102.672L96.4546 104.943C94.9579 106.559 93.254 107.804 91.3657 108.923C91.2203 108.993 91.1538 109.061 90.9908 109.038C90.7575 109.006 90.6501 108.97 90.4235 109.057C88.6017 110.505 85.5398 110.954 83.3228 111.505C81.7833 110.576 80.7094 110.126 78.8877 110.093C80.3683 107.261 81.1 103.888 81.6826 100.769L81.9843 99.2731C84.3605 99.6805 86.5899 100.009 89.007 99.9725Z" fill="#ECD4A5"/>
<path d="M89.0078 99.9725C91.6549 99.7019 93.9233 99.5785 96.471 98.6919C96.5661 99.9787 96.7348 101.389 96.5186 102.672L96.4554 104.943C94.9586 106.559 93.2547 107.804 91.3665 108.923L91.1161 108.767C90.9702 107.95 91.3361 106.768 91.4102 105.917C91.2885 105.112 91.4439 104.3 91.3332 103.492L91.0866 104.241L91.1298 102.044L91.1897 99.9306C90.4656 99.9859 89.7334 99.9692 89.0078 99.9725Z" fill="#EE7443"/>
<path d="M89.0078 99.9725C91.6549 99.7019 93.9233 99.5785 96.471 98.6919C96.5661 99.9787 96.7348 101.389 96.5186 102.672L96.453 101.109L96.3195 101.021C96.2838 101.052 96.2487 101.083 96.2126 101.113C96.0672 101.234 96.1308 101.194 95.974 101.264L96.0472 101.041C94.5681 101.482 93.0604 101.843 91.5656 102.228C91.5703 103.457 91.6207 104.702 91.4102 105.917C91.2885 105.112 91.4439 104.3 91.3332 103.492L91.0866 104.241L91.1298 102.044L91.1897 99.9306C90.4656 99.9859 89.7334 99.9692 89.0078 99.9725Z" fill="#974011"/>
<path d="M81.9843 99.2727C84.3606 99.6801 86.59 100.008 89.0071 99.9721C89.7326 99.9688 90.4649 99.9854 91.189 99.9302L91.1291 102.043C89.0845 101.851 87.0091 101.95 84.9721 101.659C83.8664 101.501 82.8558 100.956 81.7629 100.78C81.7363 100.776 81.7092 100.773 81.6826 100.769L81.9843 99.2727Z" fill="#D3BB9C"/>
<path d="M91.0862 104.241L91.3328 103.491C91.4435 104.3 91.2881 105.112 91.4098 105.917C91.3356 106.768 90.9698 107.949 91.1156 108.766L91.3661 108.923C91.2207 108.993 91.1541 109.061 90.9912 109.038C90.7579 109.005 90.6505 108.97 90.4238 109.057C90.6376 107.461 90.7659 105.817 91.0862 104.241Z" fill="#602409"/>
<path d="M116.725 137.802C118.088 137.476 123.495 136.192 124.323 135.451C125.131 136.425 125.657 138.119 126.195 139.281L126.161 139.541C121.38 142.122 110.887 143.227 105.564 143.055C105.774 141.942 105.976 140.828 106.17 139.712C106.202 139.26 106.245 138.81 106.301 138.361C106.54 138.109 106.539 138.178 106.877 138.218C110.209 138.613 113.426 138.302 116.725 137.802Z" fill="#BCB366"/>
<path d="M116.726 137.802C117.241 137.815 117.467 137.772 117.901 138.076L117.914 138.369C116.54 139.697 110.564 140.144 108.62 140.105C107.768 140.088 106.975 140.012 106.171 139.712C106.202 139.26 106.246 138.81 106.302 138.36C106.541 138.109 106.54 138.177 106.878 138.217C110.21 138.612 113.426 138.302 116.726 137.802Z" fill="#ECD4A5"/>
<path d="M80.0323 111.109C81.147 111.286 81.8626 111.66 82.5335 112.589C82.5977 112.679 82.6604 112.769 82.7212 112.861C82.8424 114.655 82.9322 116.326 81.6611 117.777C80.9213 118.624 79.8703 119.133 78.7484 119.186C77.8143 119.235 76.8669 118.951 76.1736 118.305C75.8557 118.009 75.4718 117.49 75.4077 117.053C75.3098 116.66 75.2133 116.264 75.1843 115.859C75.1012 114.693 75.4328 113.56 76.2202 112.684C77.2389 111.55 78.5641 111.177 80.0323 111.109Z" fill="#CD7D28"/>
<path d="M75.4077 117.053C75.3098 116.66 75.2133 116.264 75.1843 115.859C75.1012 114.693 75.4328 113.56 76.2202 112.684C77.2389 111.55 78.5641 111.177 80.0323 111.109L80.1302 111.457C79.6303 112.194 77.8927 112.723 77.1087 113.265C76.4758 114.31 76.385 116.454 75.4077 117.053Z" fill="#EAAB5F"/>
<path d="M56.1399 24.564C57.0208 24.0192 57.896 23.9108 58.891 23.7056C60.0646 24.0432 61.2435 24.3377 61.8502 25.5254C62.2166 26.2427 62.1168 27.033 61.8493 27.7616C61.6051 28.4267 61.2287 29.0164 60.7978 29.5747C58.9271 31.6126 58.6178 33.0417 58.7413 35.8012C58.8145 37.4365 59.2246 38.6953 59.9995 40.114C60.6799 40.7876 61.2069 41.3163 62.2318 41.2977C62.925 41.2852 63.509 40.9123 63.9523 40.4011C65.6999 38.3866 66.3081 35.7097 69.447 35.3928C70.4206 35.2945 71.4051 35.5546 72.1587 36.1909C72.7199 36.6645 73.1394 37.3603 73.2002 38.1022C73.2539 38.758 73.0121 39.337 72.5958 39.8276C71.8769 40.6749 68.9039 41.6938 69.0013 42.8351C69.0488 43.3967 69.381 43.7918 69.7981 44.1373C70.4486 44.6756 71.2711 45.0971 71.9967 45.5307C75.1707 46.9136 79.2983 50.8931 80.6093 54.1696C80.6397 54.2458 80.6787 54.334 80.6943 54.4159C81.0887 55.1196 81.4251 55.8538 81.6998 56.6123C81.3496 56.8419 80.9818 56.8467 80.577 56.8886L79.6804 57.2398C78.8275 57.569 77.9337 57.9849 77.0561 58.2265L77.0081 57.9601C76.8062 58.3813 76.5529 58.5905 76.197 58.8706C75.5432 57.8553 74.9987 56.7924 74.295 55.8023C71.322 51.6196 67.8681 50.3029 63.4781 48.1531C61.3385 47.3546 59.2916 46.3325 57.1548 45.5326C53.4329 44.1393 48.6576 43.5413 45.8005 40.5589C45.7806 40.5502 45.7597 40.5435 45.7407 40.5328C44.2582 39.7011 42.9871 37.4165 42.473 35.8183C41.9276 34.1224 41.7289 31.1152 42.5638 29.5083L43.7184 28.5039C44.8436 28.3632 46.1331 28.2065 47.1376 28.8283C48.8339 29.8783 48.5531 32.7847 48.9983 34.5118C49.1979 35.2842 49.5001 36.0058 50.2223 36.4166C51.1208 36.9276 51.9723 36.5582 52.8718 36.2816C53.0599 33.4777 52.6247 30.7548 53.5351 28.0323C54.0853 26.4942 54.7515 25.4439 56.1399 24.564Z" fill="#D3BB9C"/>
<path d="M52.8718 36.2815C53.0599 33.4776 52.6247 30.7547 53.5351 28.0322C53.5617 29.5616 53.4343 32.8177 53.861 34.1188C53.9565 34.5696 54.024 34.9863 54.0416 35.4488C53.9922 35.8425 54.0007 36.4193 53.7251 36.7176L53.5731 36.7586C53.5403 38.3059 54.2274 39.8216 54.9985 41.1314L55.1772 41.5427C54.9054 41.8209 54.8156 41.9481 54.4032 41.9591C54.2383 41.9635 54.0639 41.9311 53.9009 41.9065C52.9064 41.9866 52.0222 42.3398 51.0182 42.35L50.8823 42.3739C49.6992 42.7314 47.0407 40.9377 45.8005 40.5588C45.7806 40.5501 45.7597 40.5434 45.7407 40.5327C44.2582 39.701 42.9871 37.4164 42.473 35.8182C41.9276 34.1223 41.7289 31.1151 42.5638 29.5082L43.7184 28.5038C44.8436 28.3631 46.1331 28.2064 47.1376 28.8282C48.8339 29.8782 48.5531 32.7846 48.9983 34.5117C49.1979 35.2842 49.5001 36.0057 50.2223 36.4165C51.1208 36.9275 51.9723 36.5581 52.8718 36.2815Z" fill="#D3BB9C"/>
<path d="M53.8623 34.1189C53.8855 32.396 53.9734 30.8341 54.4187 29.1641L54.4619 29.3286C54.719 30.3504 54.7332 31.4298 54.8073 32.4774C55.0368 35.7268 55.3846 38.538 57.1071 41.3774C57.9443 42.7573 58.5672 43.5954 59.9627 44.4601C61.6942 45.533 63.6599 46.1065 65.5434 46.8453C67.6013 47.6523 70.5663 49.0745 72.3452 50.3196C73.4566 51.0976 74.5243 52.1318 75.333 53.223C75.8029 53.857 77.1338 56.8243 77.5838 57.042C78.1459 57.3145 79.0359 57.0644 79.6816 57.2397C78.8287 57.5689 77.9349 57.9849 77.0573 58.2264L77.0093 57.9601C76.8074 58.3813 76.5541 58.5904 76.1983 58.8706C75.5444 57.8553 74.9999 56.7924 74.2962 55.8023C71.3232 51.6196 67.8693 50.3029 63.4794 48.153C61.3397 47.3546 59.2928 46.3324 57.156 45.5326C53.4341 44.1393 48.6589 43.5412 45.8018 40.5589C47.0419 40.9378 49.7004 42.7315 50.8835 42.374L51.0194 42.3501C52.0234 42.3399 52.9077 41.9867 53.9022 41.9066C54.0651 41.9312 54.2395 41.9635 54.4044 41.9591C54.8168 41.9481 54.9066 41.8209 55.1784 41.5427L54.9998 41.1315C54.2286 39.8217 53.5415 38.306 53.5743 36.7587L53.7264 36.7177C54.002 36.4194 53.9934 35.8426 54.0428 35.4489C54.0252 34.9864 53.9578 34.5697 53.8623 34.1189Z" fill="#B39E82"/>
<path d="M45.8018 40.5588C47.0419 40.9377 49.7004 42.7314 50.8835 42.3739L51.0194 42.35C52.0234 42.3398 52.9077 41.9866 53.9022 41.9065C54.0651 41.9311 54.2395 41.9635 54.4044 41.9591C54.8168 41.9481 54.9066 41.8209 55.1784 41.5427C55.6617 42.2574 56.1173 42.9701 56.5407 43.7229L56.4766 43.9939C57.1204 44.227 57.8151 44.1077 58.4708 44.317C58.9203 44.6453 59.9741 45.2291 60.1965 45.7012C60.8731 46.8989 62.8388 46.8137 63.4794 48.153C61.3397 47.3545 59.2928 46.3324 57.156 45.5325C53.4341 44.1392 48.6589 43.5412 45.8018 40.5588Z" fill="black"/>
<path d="M55.1776 41.543C55.6608 42.2577 56.1165 42.9704 56.5398 43.7232L56.4757 43.9942C54.6288 43.5369 52.7866 43.0619 51.0186 42.3503C52.0226 42.3401 52.9068 41.9869 53.9013 41.9068C54.0643 41.9314 54.2387 41.9638 54.4035 41.9594C54.816 41.9484 54.9058 41.8212 55.1776 41.543Z" fill="#AA947E"/>
<path d="M60.1953 45.7014C66.1542 47.8115 71.9558 50.446 75.6402 55.8406C76.1001 56.5143 76.657 57.2242 77.0081 57.9603C76.8062 58.3814 76.5529 58.5906 76.197 58.8707C75.5432 57.8554 74.9987 56.7925 74.295 55.8025C71.322 51.6198 67.8681 50.3031 63.4781 48.1532C62.8376 46.8139 60.8719 46.8991 60.1953 45.7014Z" fill="black"/>
<path d="M54.0419 35.4487C54.451 37.0771 54.9357 38.976 55.666 40.4912C55.4588 40.7509 55.2968 40.975 54.9989 41.1313C54.2277 39.8215 53.5406 38.3058 53.5734 36.7585L53.7254 36.7175C54.001 36.4192 53.9925 35.8425 54.0419 35.4487Z" fill="black"/>
<path d="M55.6661 40.4915C56.5167 41.8123 57.3971 43.1666 58.47 44.3172C57.8143 44.1079 57.1196 44.2271 56.4758 43.9941L56.5399 43.7231C56.1166 42.9703 55.6609 42.2576 55.1777 41.5429L54.999 41.1316C55.2969 40.9752 55.459 40.7512 55.6661 40.4915Z" fill="black"/>
<path d="M60 40.1142C60.6804 40.7878 61.2074 41.3165 62.2323 41.2979C62.9255 41.2854 63.5095 40.9125 63.9528 40.4013C65.7004 38.3868 66.3086 35.7099 69.4475 35.393C70.4211 35.2947 71.4056 35.5548 72.1592 36.1911C72.7203 36.6647 73.1399 37.3605 73.2007 38.1024C73.2544 38.7582 73.0126 39.3372 72.5963 39.8278C71.8774 40.6751 68.9044 41.694 69.0018 42.8353C69.0493 43.3969 69.3814 43.792 69.7986 44.1375C70.4491 44.6758 71.2716 45.0973 71.9972 45.5309C71.608 45.7317 71.2355 45.9541 70.8007 46.0331C69.7316 45.5004 68.3461 44.6788 67.9888 43.4498C67.324 41.1597 71.3961 40.2325 72.1259 38.497C72.2476 38.2079 72.2271 37.885 72.087 37.6117C71.8256 37.1006 71.2944 36.7101 70.7504 36.5503C70.2619 36.4068 69.7216 36.4833 69.228 36.5561C65.9969 37.0325 66.0368 40.7569 63.5494 42.0652C62.6728 42.5263 61.9206 42.4073 61.0064 42.1368C60.5502 41.6159 60.2271 40.9388 59.877 40.3412L60 40.1142Z" fill="black"/>
<path d="M71.9962 45.5308C75.1703 46.9137 79.2979 50.8931 80.6089 54.1697C80.6393 54.2459 80.6782 54.3341 80.6939 54.416L80.6274 55.2707L80.4659 55.3679L79.7583 54.7095C77.3812 50.8506 74.6975 48.3002 70.7998 46.033C71.2346 45.954 71.6071 45.7316 71.9962 45.5308Z" fill="black"/>
<path d="M61.0049 42.1367C60.6053 41.9747 60.2409 41.7156 59.9278 41.4198C58.2747 39.8573 57.599 37.6781 57.5173 35.449C57.4261 32.9665 58.0604 31.1278 59.7415 29.3042C60.0969 29.4314 60.4205 29.5342 60.7968 29.5748C58.9261 31.6127 58.6168 33.0418 58.7404 35.8013C58.8135 37.4365 59.2236 38.6954 59.9986 40.1141L59.8755 40.3411C60.2257 40.9387 60.5488 41.6158 61.0049 42.1367Z" fill="black"/>
<path d="M56.1406 24.564C57.0216 24.0192 57.8968 23.9108 58.8918 23.7056C60.0654 24.0432 61.2442 24.3377 61.851 25.5254C62.2174 26.2427 62.1176 27.033 61.8501 27.7616C61.6058 28.4267 61.2295 29.0164 60.7985 29.5747C60.4222 29.5341 60.0987 29.4313 59.7432 29.3041C60.12 28.7783 60.5101 28.2381 60.7681 27.6413C60.9853 27.1395 61.076 26.5133 60.8442 26.0028C60.5059 25.2583 59.7185 24.9719 59.0148 24.6901C58.1244 24.5453 57.061 24.63 56.1406 24.564Z" fill="black"/>
<path d="M53.5361 28.0318C54.0864 26.4937 54.7525 25.4434 56.1409 24.5635C57.0613 24.6295 58.1247 24.5448 59.0151 24.6896C57.7298 24.8177 56.7548 25.0467 55.8976 26.0865C55.1873 26.9484 54.792 28.1213 54.4185 29.1636C53.9733 30.8336 53.8854 32.3955 53.8621 34.1184C53.4354 32.8173 53.5627 29.5612 53.5361 28.0318Z" fill="#1E110B"/>
<path d="M80.6953 54.4155C81.0897 55.1192 81.4261 55.8534 81.7008 56.6119C81.3506 56.8415 80.9828 56.8463 80.578 56.8882C80.4302 56.1212 80.0762 55.4175 79.7598 54.709L80.4673 55.3674L80.6288 55.2703L80.6953 54.4155Z" fill="black"/>
<path d="M116.961 112.14C123.189 111.597 128.317 108.587 134.944 110.194C134.808 110.298 134.671 110.393 134.532 110.492C134.401 110.586 134.377 110.664 134.313 110.806L134.241 110.964L133.719 111.015C131.656 110.825 129.532 110.681 127.491 111.142L126.135 111.456C124.786 111.742 123.371 112.151 122.004 112.297C120.369 112.698 118.682 112.921 117.007 113.082L116.704 112.969L116.623 112.72L116.961 112.14Z" fill="black"/>
<path d="M130.477 39.7248C131.217 39.7805 131.844 39.5066 132.406 39.0392C132.439 39.0125 132.47 38.9845 132.502 38.9571L132.317 39.2332C132.811 38.9513 133.082 38.4791 133.578 38.187C133.605 38.1711 133.633 38.1561 133.66 38.1406C133.559 38.8618 133.038 39.303 132.472 39.7302C130.986 40.8527 127.926 42.9321 126.114 43.2266C126.077 43.2326 126.041 43.24 126.004 43.2456C125.981 43.2489 125.959 43.2509 125.937 43.2535C126.093 42.9983 126.313 42.7824 126.513 42.5604L126.481 42.4353L125.659 42.3416C126.346 42.069 127.462 41.6682 127.953 41.1145C128.874 40.9417 129.736 40.274 130.477 39.7248Z" fill="black"/>
<path d="M117.756 23.1072C118.581 23.0318 119.6 22.892 120.395 23.144C120.421 23.1764 120.447 23.2091 120.473 23.2412C120.734 23.5618 120.963 23.7579 121.326 23.9678C121.139 24.176 120.944 24.3393 120.723 24.5098C120.089 24.1221 119.318 23.9307 118.585 24.1246C117.83 24.3242 117.418 24.7934 116.989 25.4125L116.738 25.4444L116.635 26.1352L116.353 25.5311C116.11 26.0932 116.394 27.1867 116.306 27.8466C115.935 27.0136 115.802 26.1401 116.017 25.2442C116.271 24.181 116.859 23.6553 117.756 23.1072Z" fill="black"/>
</g>
</g>
<defs>
<linearGradient id="paint0_linear_3039_11979" x1="77.7942" y1="82.0653" x2="75.4775" y2="67.593" gradientUnits="userSpaceOnUse">
<stop stop-color="#F5E3D4"/>
<stop offset="1" stop-color="#FAFCFF"/>
</linearGradient>
<linearGradient id="paint1_linear_3039_11979" x1="99.2953" y1="73.9371" x2="104.985" y2="79.913" gradientUnits="userSpaceOnUse">
<stop stop-color="#111014"/>
<stop offset="1" stop-color="#3E3B36"/>
</linearGradient>
<linearGradient id="paint2_linear_3039_11979" x1="91.9662" y1="88.3053" x2="86.4554" y2="79.6772" gradientUnits="userSpaceOnUse">
<stop stop-color="#130E0B"/>
<stop offset="1" stop-color="#2F201A"/>
</linearGradient>
</defs>
</svg>
