<svg width="133" height="137" viewBox="0 0 133 137" fill="none" xmlns="http://www.w3.org/2000/svg">
<path d="M17.4486 90.9249C16.8305 88.9955 17.3381 86.2779 19.9293 87.0335C22.5198 87.7884 28.6757 94.6458 35.0412 89.1851C41.406 83.7252 36.2895 77.8913 38.6209 74.1644C40.6163 70.9756 44.1781 71.6758 48.0921 73.9695C46.7673 69.0542 41.3117 61.3322 34.188 61.9574C28.3648 62.4687 23.0038 68.5315 25.6024 76.0968C27.5622 81.8022 26.409 85.4193 22.0049 83.9529C16.4387 82.0984 13.7767 86.2536 17.4486 90.9249Z" fill="#6B6B6B"/>
<path d="M34.1345 61.3516C32.2006 61.5214 30.3213 62.2556 28.7003 63.4736C25.597 65.8062 23.003 70.3998 25.0275 76.2945C26.2078 79.7313 26.2046 82.4193 25.0186 83.3107C24.2524 83.8861 23.0604 83.6636 22.1955 83.3759C19.9196 82.6182 17.933 82.7515 16.6018 83.7536C15.8089 84.3488 15.3195 85.2066 15.1856 86.2337C14.9107 88.3374 16.6989 90.7698 17.8063 91.7965C17.4538 88.8516 17.8986 88.2641 18.4212 87.7167C18.6895 87.4351 19.1821 87.4493 19.7585 87.617C20.2842 87.7698 21.0682 88.2706 21.9757 88.8508C24.9203 90.7301 29.8486 93.8767 34.8614 90.1085C35.0529 89.9651 35.2439 89.8115 35.435 89.6474C39.5886 86.0842 39.1312 82.2718 38.7637 79.2094C38.5406 77.3504 38.3484 75.7442 39.1344 74.4874C39.4384 74.0015 39.7905 73.6065 40.1811 73.3127C41.805 72.0915 44.363 72.4894 47.7844 74.4946L49.063 75.2442L48.6769 73.8119C47.4161 69.132 41.8548 60.6733 34.1345 61.3516ZM39.4526 72.3399C38.9422 72.724 38.4892 73.2288 38.1059 73.8411C37.092 75.463 37.3187 77.3524 37.5583 79.3536C37.9258 82.4164 38.3063 85.583 34.6453 88.7236C30.1347 92.6061 25.7715 89.8309 22.629 87.8249C21.6021 87.1689 20.7902 86.651 20.0976 86.4489C18.898 86.0992 18.1277 86.4164 17.6922 86.7438C17.1498 87.1519 16.8353 87.7649 16.6929 88.4481C16.4132 87.7187 16.3071 87.021 16.3897 86.3913C16.4804 85.6952 16.8058 85.1194 17.3308 84.7248C18.3196 83.9813 19.9536 83.9096 21.8122 84.5291C22.7156 84.8301 23.5158 84.9359 24.2148 84.8597C25.7581 85.0331 27.3071 84.617 28.4963 83.6835C29.6551 82.7645 31.0033 80.9331 30.8503 77.4197C30.5791 71.1972 31.7007 68.4634 35.1334 66.9748C37.9376 65.7588 42.5724 67.3233 46.5378 72.4671C43.5215 71.0728 41.1914 71.0327 39.4526 72.3399ZM46.0399 70.6158C42.0758 66.2451 37.6332 65.0068 34.8121 66.2313C30.5164 68.0959 29.8 71.9083 30.042 77.4553C30.1801 80.6267 29.0047 82.2471 27.994 83.0485C27.4512 83.4788 26.8052 83.7738 26.1196 83.9391C27.4298 82.5222 27.4617 79.6421 26.1762 75.8994C24.3633 70.6215 26.668 66.5218 29.4296 64.4456C30.8689 63.3638 32.5329 62.713 34.2405 62.5627C39.5865 62.0931 43.8158 66.5498 46.0399 70.6158Z" fill="black"/>
<path d="M40.0861 68.0797C37.8915 67.0643 34.8016 67.098 32.8612 70.2106C29.9672 74.852 34.6713 80.4821 28.5615 84.5976C30.0858 84.3804 32.9786 82.4667 33.181 78.9505C33.4429 74.3885 33.4991 71.0254 36.9359 70.1332C38.34 69.7694 40.39 70.4517 41.302 69.8674C42.0131 69.4124 41.6796 68.816 40.0861 68.0797Z" fill="#858585"/>
<path d="M78.9625 88.6644C77.8251 98.9622 78.0016 121.61 81.5497 124.149C84.5137 126.27 94.8996 124.593 94.7568 122.074C94.6208 119.682 90.3385 115.865 88.0795 105.554C86.3958 97.8642 86.0388 90.6669 85.7996 87.8857C85.3778 82.9837 79.5987 82.9043 78.9625 88.6644Z" fill="#CCCAB8"/>
<path d="M92.5694 117.256C93.7715 119.513 94.6964 120.982 94.7591 122.075C94.9032 124.591 84.5148 126.269 81.5516 124.147C80.6964 123.535 80.0387 121.73 79.5469 119.196C82.8602 120.605 90.1741 120.551 92.5694 117.256Z" fill="#807E75"/>
<path d="M79.6048 86.3751C79.472 86.8451 79.3907 87.3067 79.3385 87.7706C79.2943 88.2378 79.2862 88.6896 79.2867 89.1738L79.2624 90.6008L79.2215 92.0263C79.1507 93.925 79.0491 95.8229 79.0167 97.7244C78.939 101.527 78.9795 105.334 79.1681 109.128C79.2632 111.024 79.4004 112.917 79.5955 114.799C79.7906 116.677 80.0403 118.149 80.4536 119.959C80.664 120.858 80.9154 121.753 81.2768 122.532C81.4549 122.913 81.6775 123.275 81.8989 123.471C81.9592 123.526 81.9799 123.536 82.1013 123.617L82.2045 123.677L82.3292 123.742C82.5028 123.827 82.6931 123.9 82.8918 123.963C83.6928 124.216 84.6019 124.316 85.5069 124.346C86.4156 124.374 87.3368 124.327 88.2507 124.222C89.1651 124.122 90.0745 123.962 90.9553 123.735C91.8263 123.505 92.7054 123.208 93.3879 122.78C93.7238 122.578 93.9853 122.289 93.9994 122.173C94.0063 122.158 94.0031 122.148 94.008 122.136C94.0067 122.131 94.0063 122.126 94.0067 122.121L94.0084 122.117C94.0084 122.115 94.0104 122.143 94.0084 122.12L94.0051 122.075C94.0003 122.002 93.995 121.994 93.9905 121.953L93.9654 121.822C93.9274 121.643 93.8626 121.447 93.787 121.249C93.4712 120.449 92.9973 119.614 92.5484 118.777C91.6304 117.101 90.7388 115.774 89.9871 113.986C89.2327 112.198 88.6053 110.357 88.0913 108.489C87.5752 106.617 87.1927 104.724 86.8555 102.835C86.52 100.941 86.2464 99.0392 86.0201 97.1328C85.8028 95.2264 85.5931 93.3184 85.5041 91.4039C85.4571 90.4477 85.4579 89.4878 85.4672 88.5323C85.4762 88.0457 85.4992 87.5907 85.4559 87.1344C85.4102 86.677 85.3167 86.2159 85.1434 85.7613C85.4729 86.1187 85.7255 86.5615 85.8943 87.0328C85.9784 87.2674 86.0545 87.5121 86.1011 87.7584L86.233 88.4732C86.3889 89.4209 86.5277 90.3658 86.637 91.3115C86.8584 93.2021 87.0235 95.0943 87.2781 96.9764C87.5238 98.8585 87.8156 100.733 88.1673 102.595C88.5227 104.459 88.9182 106.308 89.4387 108.111C90.4672 111.738 91.9907 114.758 93.8521 118.066C94.3059 118.91 94.7883 119.733 95.1817 120.707C95.2772 120.955 95.3659 121.213 95.4294 121.5C95.4464 121.57 95.459 121.645 95.4715 121.72C95.4833 121.797 95.4974 121.907 95.4999 121.953L95.5035 121.997L95.5068 122.045L95.5072 122.085L95.5043 122.249C95.493 122.356 95.4788 122.465 95.4493 122.564C95.338 122.978 95.1097 123.265 94.8919 123.497C94.6689 123.725 94.435 123.898 94.201 124.05C93.262 124.637 92.3035 124.941 91.3394 125.206C90.3749 125.459 89.4014 125.633 88.4207 125.744C87.4396 125.852 86.452 125.897 85.4551 125.862C84.4578 125.82 83.4516 125.717 82.4308 125.393C82.1762 125.309 81.9204 125.211 81.6658 125.084L81.4739 124.983L81.2691 124.86C81.1926 124.809 81.0121 124.689 80.8992 124.58C80.4159 124.126 80.1609 123.637 79.9318 123.16C79.4959 122.203 79.2429 121.245 79.0211 120.286C78.1987 116.455 77.9603 113.023 77.798 109.188C77.6555 105.352 77.662 101.52 77.7887 97.6896C77.8623 95.7751 77.9291 93.8589 78.121 91.9485L78.2987 90.519C78.3739 90.0437 78.4496 89.5688 78.5399 89.0951C78.7058 88.1519 79.0094 87.1454 79.6048 86.3751Z" fill="black"/>
<path d="M47.7328 84.0789C47.2937 88.9651 50.9863 94.3472 48.788 94.8869C46.5894 95.4266 45.7143 95.429 45.3128 96.6482C42.7779 104.346 41.9995 113.508 43.3413 123.168C43.8565 126.876 55.8271 125.489 56.7329 124.295C57.6388 123.101 55.1993 120.81 53.7734 115.036C52.7405 110.854 52.0164 103.155 53.7726 100.02C55.5288 96.8853 60.7262 94.8703 62.6577 89.0939C64.5382 83.4732 62.1842 77.7426 56.8693 76.5137C52.7919 75.5708 48.2768 78.0315 47.7328 84.0789Z" fill="#CCCAB8"/>
<path d="M54.9139 118.285C56.1772 121.616 57.4214 123.388 56.7341 124.292C55.8291 125.49 43.8577 126.876 43.3412 123.169C43.1664 121.91 43.0284 120.657 42.9268 119.405C46.3579 120.68 52.3806 120.884 54.9139 118.285Z" fill="#807E75"/>
<path d="M49.1926 79.5737C48.753 80.6215 48.4851 81.6835 48.3608 82.7576C48.2944 83.2937 48.2588 83.8293 48.262 84.3698C48.2572 84.8836 48.2977 85.4221 48.3733 85.9464C48.5142 87.0028 48.7587 88.0587 49.0493 89.1178C49.3395 90.181 49.6973 91.2284 49.9806 92.367C50.049 92.6547 50.1126 92.948 50.1531 93.2649C50.1911 93.583 50.2211 93.9209 50.1397 94.3338C50.098 94.5376 50.0162 94.7702 49.8584 94.9857C49.7034 95.2013 49.4735 95.3784 49.2513 95.4724C49.144 95.5198 49.0218 95.557 48.9343 95.5785L48.7303 95.6292L48.3163 95.7288C47.7727 95.8597 47.2141 95.9748 46.7717 96.1312C46.552 96.2094 46.3832 96.2985 46.28 96.3933C46.1759 96.4857 46.0999 96.6097 46.0278 96.8018C45.6959 97.8095 45.3911 98.8865 45.1264 99.9521C44.8609 101.022 44.6314 102.101 44.4347 103.187C43.658 107.532 43.3783 111.564 43.52 115.984C43.5948 118.194 43.7802 120.401 44.0708 122.594L44.1259 123.005C44.1445 123.138 44.1522 123.164 44.1801 123.243C44.2299 123.377 44.3177 123.506 44.4497 123.634C44.7156 123.891 45.1426 124.105 45.606 124.259C46.5443 124.571 47.6193 124.692 48.6862 124.746C49.7588 124.797 50.848 124.765 51.9287 124.673C53.007 124.576 54.0949 124.426 55.1076 124.169C56.3753 123.727 56.2798 124.06 55.9734 122.842C55.6265 121.873 55.1226 120.835 54.6988 119.788C53.825 117.686 53.1292 115.887 52.7143 113.633C52.3039 111.387 52.0667 109.126 52.0226 106.842C52.0044 105.7 52.036 104.552 52.1695 103.399C52.3128 102.249 52.5188 101.08 53.0729 99.9432C53.6574 98.8054 54.5163 97.9675 55.3517 97.1928C56.1968 96.4221 57.0569 95.7159 57.8656 94.972C59.4923 93.4999 60.8827 91.8334 61.7974 89.8865C62.7174 87.9375 63.2145 85.7872 63.1618 83.5283C63.8297 85.6981 63.5945 88.1442 62.7567 90.3006C62.3446 91.3938 61.733 92.4051 61.0409 93.3366C60.3358 94.2617 59.5332 95.0972 58.7035 95.8759C57.8745 96.6567 57.014 97.3812 56.2163 98.128C55.4246 98.8723 54.6778 99.6555 54.25 100.527C53.8262 101.413 53.6295 102.485 53.5158 103.549C53.4044 104.621 53.3866 105.716 53.417 106.811C53.4862 109.001 53.7436 111.203 54.1642 113.355C54.5766 115.5 55.2457 117.179 56.1025 119.203C56.5239 120.228 57.0116 121.2 57.4305 122.336C57.5309 122.627 57.6272 122.931 57.6794 123.299C57.7248 123.658 57.7402 124.137 57.4447 124.629C57.3807 124.73 57.4163 124.677 57.3419 124.779C57.2787 124.86 57.2205 124.915 57.1654 124.963C57.0561 125.058 56.9642 125.115 56.876 125.168C56.7011 125.269 56.5445 125.337 56.3915 125.398C56.0863 125.519 55.7961 125.605 55.5063 125.683C54.3528 125.982 53.2187 126.143 52.072 126.253C50.9265 126.359 49.7762 126.401 48.615 126.353C47.4542 126.297 46.2828 126.172 45.094 125.782C44.5043 125.576 43.8907 125.308 43.3415 124.79C43.0711 124.531 42.8262 124.194 42.6821 123.802C42.6097 123.619 42.5595 123.369 42.5433 123.225L42.4882 122.805C42.1948 120.559 42.0094 118.301 41.9374 116.037C41.7949 111.512 42.0936 107.369 42.9472 102.911C43.1597 101.797 43.4066 100.688 43.6903 99.5882C43.9769 98.4853 44.2886 97.4096 44.6694 96.2961C44.7913 95.9659 45.0038 95.5899 45.3243 95.3139C45.6413 95.036 45.9902 94.8848 46.2945 94.7783C46.911 94.5716 47.4537 94.4748 47.9965 94.3463L48.3984 94.254L48.602 94.2057C48.6502 94.1932 48.6619 94.1891 48.6826 94.1814C48.7182 94.1664 48.7141 94.1632 48.7251 94.1539C48.734 94.145 48.7542 94.1093 48.7692 94.04C48.8012 93.9031 48.7992 93.6737 48.7696 93.4379C48.7421 93.2001 48.6907 92.9448 48.632 92.6875C48.124 90.6028 47.2716 88.4136 47.1271 86.0668C47.098 85.4776 47.1016 84.8946 47.1668 84.2904C47.2494 83.7155 47.357 83.1385 47.5282 82.5805C47.8646 81.4663 48.4102 80.4027 49.1926 79.5737Z" fill="black"/>
<path d="M71.7891 57.9189C72.5505 63.0323 74.4407 68.4432 70.3211 70.0222C66.2015 71.6008 58.7415 64.8873 48.772 68.6835C39.8468 72.0822 39.3923 84.1373 44.737 89.8686C52.0938 97.7576 80.9467 96.0327 87.0512 89.132C93.0452 82.3569 90.5855 73.162 88.2059 65.5242C87.1386 62.098 85.2265 56.3374 81.9679 53.628C76.9546 49.4602 71.0436 52.914 71.7891 57.9189Z" fill="#E6E6CF"/>
<path d="M66.6661 69.9529C70.0069 72.6122 60.9441 77.675 52.1391 75.1843C45.8589 73.4079 47.1833 69.4906 50.3311 68.1709C57.1236 66.2507 62.6643 68.9967 66.6661 69.9529Z" fill="#F6F6E5"/>
<path d="M61.5252 95.6357C61.5252 95.6357 61.5252 95.6357 61.5244 95.6357C56.7604 95.429 48.1881 94.4598 44.2932 90.2831C41.2126 86.9793 39.9397 81.7459 41.0519 76.9505C42.033 72.7224 44.6979 69.5846 48.5565 68.115C50.974 67.1944 53.407 66.8014 55.9946 66.9132C59.0934 67.0473 61.7907 67.8772 64.1702 68.6089C65.8997 69.1409 67.3941 69.6004 68.6306 69.6539C69.207 69.6786 69.6882 69.613 70.1043 69.4541C72.8603 68.3982 72.5227 65.4108 71.6387 60.617C71.4813 59.7629 71.3186 58.8796 71.1891 58.0084C70.9203 56.2001 71.4206 54.4837 72.5976 53.1742C73.82 51.8152 75.6191 51.0838 77.5328 51.1665C79.2064 51.239 80.8744 51.9282 82.3558 53.16C85.9116 56.1162 87.926 62.5822 88.7861 65.3431C91.4385 73.8545 93.5229 82.7333 87.5063 89.5348C83.5073 94.055 71.1356 96.0522 61.5252 95.6357ZM55.9424 68.128C53.5232 68.0234 51.2481 68.3905 48.9879 69.2515C45.52 70.5725 43.1214 73.4039 42.2346 77.2252C41.2276 81.5696 42.4119 86.4837 45.1808 89.4537C47.8101 92.2734 53.7867 94.0842 61.5766 94.4217C72.3697 94.8889 83.3596 92.3889 86.5968 88.7293C92.1946 82.4015 90.1748 73.8853 87.6269 65.7054C86.7984 63.0469 84.8592 56.822 81.5799 54.096C80.3041 53.0356 78.8867 52.4424 77.4801 52.3816C75.9291 52.3148 74.4785 52.9003 73.4998 53.9882C72.5693 55.023 72.175 56.3873 72.39 57.8297C72.5166 58.6806 72.6769 59.553 72.8328 60.3974C73.6208 64.6742 74.436 69.0964 70.5386 70.5899C69.9639 70.8099 69.3227 70.9011 68.578 70.8686C67.186 70.8087 65.6229 70.3281 63.8136 69.7714C61.5037 69.0607 58.8846 68.2552 55.9424 68.128Z" fill="black"/>
<path d="M43.1164 84.2742C41.8933 89.1977 44.8366 95.2828 42.4935 95.4862C40.1504 95.69 39.2502 95.5538 38.6455 96.7362C34.825 104.201 32.5143 113.451 32.3674 123.536C32.3111 127.407 44.8265 127.884 45.9456 126.807C47.0652 125.73 44.9844 122.589 44.4319 116.462C44.0328 112.025 44.5039 104.447 46.8025 101.521C49.1015 98.596 54.7587 97.3593 57.6556 91.7629C60.4751 86.316 58.9621 80.087 53.6967 77.9894C49.6568 76.3796 44.631 78.1798 43.1164 84.2742Z" fill="#E6E6CF"/>
<path d="M55.5318 84.1174C55.9273 90.8589 46.0999 100.021 43.4301 93.8038C43.4078 91.6113 42.2725 87.6685 43.116 84.2726C44.0542 80.5015 46.3375 78.3731 48.9004 77.6847C48.9048 77.6851 48.9089 77.6855 48.9089 77.6855C51.8789 77.3464 55.2028 78.4947 55.5318 84.1174Z" fill="#F6F6E5"/>
<path d="M45.0829 120.638C45.8435 124.076 46.7716 126.007 45.9455 126.807C44.8259 127.882 32.3097 127.407 32.3664 123.534C32.3879 122.126 32.453 120.728 32.5579 119.343C35.4429 121.321 41.8805 122.792 45.0829 120.638Z" fill="#807E75"/>
<path d="M45.005 80.2811C44.4218 81.3115 44.0033 82.3824 43.7333 83.4878C43.4427 84.596 43.331 85.6936 43.3415 86.8293C43.3476 87.9594 43.4613 89.0996 43.6123 90.2483C43.7551 91.4035 43.979 92.5409 44.0174 93.803C44.0182 94.1235 44.0113 94.4529 43.9239 94.8225C43.8782 95.0068 43.8126 95.2037 43.6876 95.4031C43.5657 95.6004 43.3735 95.7941 43.1468 95.912C42.9286 96.0303 42.6692 96.0749 42.4976 96.0883L42.0564 96.1263L41.1821 96.1952C40.6171 96.2422 40.0334 96.2949 39.6967 96.4675C39.5323 96.5526 39.4174 96.6612 39.3008 96.8395C39.1988 96.9971 39.062 97.3034 38.9333 97.5554C37.9206 99.6239 37.063 101.782 36.338 103.977C34.8947 108.374 33.9528 112.532 33.4667 117.139C33.3449 118.291 33.2542 119.446 33.1915 120.603C33.1615 121.181 33.1352 121.76 33.1194 122.339L33.0992 123.207C33.098 123.343 33.0907 123.519 33.0943 123.621C33.098 123.671 33.1126 123.778 33.1368 123.852C33.2308 124.174 33.5404 124.511 33.9504 124.786C34.36 125.064 34.851 125.29 35.3606 125.478C36.3874 125.852 37.4997 126.089 38.6188 126.264C39.7404 126.435 40.881 126.534 42.0171 126.564C42.5846 126.578 43.1525 126.574 43.7106 126.543C44.2599 126.51 44.837 126.454 45.2766 126.329C45.3758 126.302 45.4766 126.252 45.4656 126.257C45.4592 126.26 45.4592 126.262 45.4482 126.27L45.4239 126.295L45.443 126.275C45.4822 126.236 45.462 126.251 45.4616 126.255C45.4705 126.242 45.4794 126.227 45.4887 126.209C45.5284 126.134 45.5543 125.935 45.5353 125.702C45.4992 125.228 45.3588 124.666 45.2179 124.114C44.9249 122.998 44.6055 121.847 44.3558 120.681C43.8442 118.354 43.5827 116.347 43.5937 113.969C43.5977 111.589 43.7636 109.216 44.1777 106.856C44.3914 105.677 44.6662 104.5 45.0969 103.345C45.3147 102.768 45.5725 102.196 45.9149 101.646C46.2606 101.088 46.7111 100.6 47.1757 100.184C48.1156 99.3496 49.138 98.7244 50.1268 98.098C51.1188 97.476 52.0927 96.8638 53.0021 96.1811C53.9136 95.502 54.7499 94.7443 55.4922 93.9067C56.2297 93.0656 56.8611 92.1369 57.3876 91.1397C58.4339 89.1498 59.0059 86.8877 58.9099 84.5311C59.6021 86.805 59.2868 89.3638 58.3218 91.587C58.0822 92.132 57.7969 92.6932 57.4775 93.2062C57.1525 93.7232 56.7898 94.2167 56.4 94.6863C55.6185 95.6259 54.7041 96.4404 53.7501 97.1709C52.7945 97.9015 51.7903 98.5437 50.8072 99.1717C49.8277 99.8026 48.8534 100.42 48.0484 101.151C47.6468 101.517 47.3004 101.903 47.0324 102.343C46.7596 102.789 46.5358 103.29 46.3456 103.809C45.9663 104.852 45.7129 105.966 45.5203 107.091C45.1434 109.346 45.0002 111.661 45.0168 113.962C45.0249 116.266 45.2693 118.129 45.7692 120.373C46.0129 121.497 46.3217 122.601 46.6261 123.748C46.7714 124.329 46.9312 124.904 46.9903 125.599C47.0102 125.946 47.0207 126.352 46.8175 126.817C46.7649 126.93 46.6993 127.042 46.6204 127.146C46.5734 127.207 46.5083 127.279 46.4949 127.291L46.4759 127.311C46.4342 127.353 46.4338 127.351 46.4107 127.372C46.3723 127.406 46.3423 127.428 46.3075 127.453C46.0537 127.623 45.8752 127.673 45.6959 127.732C45.0079 127.924 44.4117 127.966 43.796 128.009C43.1865 128.045 42.5842 128.05 41.9835 128.036C40.7818 128.008 39.5882 127.907 38.3978 127.728C37.2083 127.548 36.0215 127.292 34.8506 126.859C34.2669 126.639 33.6841 126.377 33.1255 125.995C32.5819 125.617 32.0007 125.089 31.7469 124.275C31.6866 124.069 31.653 123.885 31.6433 123.643C31.6401 123.453 31.6486 123.336 31.6506 123.179L31.6749 122.292C31.6947 121.701 31.7238 121.111 31.7578 120.521C31.8275 119.341 31.9258 118.162 32.0553 116.987C32.575 112.288 33.5517 108.036 35.0857 103.555C35.8523 101.314 36.7497 99.1199 37.8178 96.9951C37.9599 96.7301 38.053 96.4951 38.2651 96.1588C38.4642 95.8455 38.7876 95.536 39.1499 95.3638C39.5101 95.1896 39.857 95.1223 40.1739 95.0745C40.4928 95.0295 40.794 95.0064 41.0903 94.9845L41.9653 94.925L42.3976 94.8926C42.517 94.8832 42.5502 94.8707 42.5927 94.8533C42.6465 94.8277 42.7194 94.7499 42.7736 94.538C42.8258 94.3383 42.8416 94.0773 42.8416 93.8139C42.8234 92.7333 42.6166 91.5587 42.4818 90.3926C42.3373 89.2204 42.228 88.023 42.2737 86.8111C42.3098 85.6061 42.5591 84.3638 43.0193 83.2532C43.4787 82.1357 44.1299 81.0842 45.005 80.2811Z" fill="black"/>
<path d="M76.5197 89.1652C74.2263 99.4302 71.2579 122.931 74.4959 125.902C77.2013 128.385 88.2506 127.921 88.3919 125.362C88.5271 122.931 84.7491 117.933 83.67 107.264C82.8654 99.307 83.324 92.0003 83.4005 89.1652C83.5349 84.1681 77.8027 83.4229 76.5197 89.1652Z" fill="#E6E6CF"/>
<path d="M86.6922 119.778C87.6636 122.444 88.4529 124.227 88.3917 125.361C88.2501 127.922 77.2007 128.384 74.4966 125.9C73.7441 125.207 73.3232 123.38 73.1572 120.848C76.5167 122.696 84.3936 123.417 86.6922 119.778Z" fill="#807E75"/>
<path d="M82.5764 86.2613C83.107 86.946 83.4341 87.9225 83.4017 89.1664C83.3329 91.7596 82.9407 98.1008 83.4911 105.256C82.5076 109.45 77.5004 106.314 77.8128 94.9525C78.1079 84.2475 81.2209 85.0903 82.5727 86.2532C82.5727 86.2572 82.5764 86.2613 82.5764 86.2613Z" fill="#F6F6E5"/>
<path d="M77.1581 87.3711C77.0213 87.8488 76.9177 88.316 76.8505 88.7888L76.6756 90.226C76.6157 90.7078 76.5538 91.1891 76.4797 91.6681C76.4142 92.1482 76.3405 92.6268 76.2624 93.1049C75.9366 95.0137 75.6306 96.9278 75.3618 98.8472C74.8219 102.686 74.3847 106.54 74.0897 110.399C73.9428 112.329 73.8367 113.855 73.7861 115.782C73.7388 117.707 73.7436 119.638 73.9181 121.524C74.0107 122.462 74.1427 123.403 74.4017 124.243C74.5296 124.655 74.7061 125.056 74.9061 125.285C74.9623 125.35 74.9773 125.36 75.0902 125.457L75.189 125.53L75.3076 125.61C75.4735 125.717 75.6585 125.813 75.854 125.9C76.6404 126.247 77.5527 126.45 78.4675 126.587C79.3871 126.72 80.3269 126.781 81.2668 126.787C82.2058 126.794 83.1472 126.748 84.0717 126.632C84.9905 126.515 85.9145 126.335 86.705 126.014C87.0899 125.86 87.4538 125.633 87.5825 125.453C87.6157 125.41 87.625 125.379 87.6364 125.356C87.6428 125.329 87.6429 125.352 87.6457 125.208C87.6449 125.065 87.619 124.844 87.5777 124.643C87.402 123.801 87.0487 122.888 86.7176 121.986C86.0339 120.173 85.3499 118.319 84.795 116.428C84.2308 114.539 83.7932 113.015 83.4622 111.072C83.1286 109.128 82.9271 107.164 82.7894 105.212C82.6502 103.258 82.5745 101.302 82.549 99.3464C82.5251 97.3909 82.5466 95.4367 82.613 93.4861C82.651 92.5113 82.7364 91.5384 82.8676 90.5708C82.9348 90.0895 83.0218 89.6004 83.1048 89.1288C83.1979 88.6596 83.2391 88.1908 83.2484 87.6863C83.4945 88.1255 83.6265 88.6332 83.6961 89.1349C83.7552 89.6349 83.8029 90.1174 83.8337 90.6073C83.8916 91.5818 83.9066 92.5522 83.8932 93.5198C83.856 95.4558 83.845 97.3901 83.8892 99.322C83.9317 101.254 84.0243 103.183 84.1794 105.106C84.3336 107.031 84.5469 108.937 84.8885 110.822C85.2236 112.709 85.6798 114.165 86.2238 116.002C86.7662 117.842 87.4295 119.638 88.1196 121.46C88.4548 122.382 88.8203 123.285 89.0477 124.348C89.1008 124.624 89.1425 124.886 89.1449 125.229C89.1465 125.327 89.1384 125.596 89.0684 125.801C89.002 126.008 88.9016 126.197 88.7871 126.347C88.3143 126.942 87.7801 127.18 87.2794 127.402C86.2659 127.81 85.2633 127.992 84.2603 128.126C83.2573 128.251 82.2556 128.303 81.253 128.293C80.2504 128.279 79.2491 128.207 78.2473 128.054C77.2472 127.893 76.2442 127.674 75.2529 127.23C75.0064 127.117 74.7595 126.988 74.5179 126.831L74.3362 126.705L74.1455 126.557C74.0735 126.497 73.9027 126.349 73.8047 126.225C73.3785 125.704 73.1944 125.178 73.03 124.668C72.7265 123.646 72.603 122.648 72.5107 121.653C72.3432 119.666 72.3565 117.7 72.4188 115.741C72.4852 113.782 72.6269 112.237 72.7993 110.292C73.1494 106.402 73.6404 102.533 74.2358 98.6794C74.5361 96.7532 74.8555 94.8293 75.2303 92.9144C75.3274 92.4363 75.4351 91.9602 75.5561 91.4866C75.6682 91.0113 75.799 90.5396 75.9386 90.0704C76.0778 89.5996 76.2223 89.1377 76.4113 88.6652C76.604 88.2021 76.8473 87.7564 77.1581 87.3711Z" fill="black"/>
<path d="M89.6084 29.4679C82.069 28.7357 72.6205 33.1178 69.9098 43.1093C66.9422 54.0494 72.3282 64.5044 83.8839 66.6105C89.0684 67.5554 94.1703 67.369 96.7689 66.7191C99.3682 66.0688 100.786 68.2884 102.725 67.5862C103.746 67.2163 105.646 65.4448 105.346 64.6215C103.553 63.7981 101.908 61.5526 102.805 58.4845C104.45 61.4031 107.922 61.6247 108.464 61.2998C109.459 60.8046 111.387 56.9639 110.846 56.0968C110.304 55.2297 107.164 55.6636 106.19 53.929C106.839 47.6413 107.687 31.2236 89.6084 29.4679Z" fill="#F6F6E5"/>
<path d="M89.6077 29.4663C90.8633 29.5878 92.0245 29.7783 93.1011 30.0336C88.9083 29.8188 83.3871 31.7799 79.8936 40.0011C75.8178 49.5919 79.3031 66.2694 95.4285 66.9785C92.6276 67.3998 88.2882 67.412 83.8849 66.6097C72.3288 64.5028 66.9415 54.049 69.9084 43.1089C72.6206 33.117 82.0676 28.737 89.6077 29.4663Z" fill="#E6E6CF"/>
<path d="M107.039 57.162L107.147 57.1859C107.201 57.1968 107.258 57.2106 107.311 57.2248C107.404 57.2572 107.494 57.2977 107.576 57.3472C107.74 57.4472 107.876 57.5838 107.967 57.7378C108.156 58.0489 108.148 58.4059 108.038 58.675C108.016 58.3792 107.867 58.1251 107.666 58.008C107.568 57.9481 107.459 57.9177 107.357 57.914C107.305 57.9128 107.255 57.9181 107.208 57.9266C107.19 57.9347 107.175 57.9408 107.158 57.946L107.05 57.9728C106.828 58.0287 106.602 57.8934 106.546 57.6705C106.49 57.4472 106.625 57.2216 106.848 57.1652C106.912 57.1486 106.978 57.149 107.039 57.162Z" fill="black"/>
<path d="M100.911 52.164C100.911 54.4027 100.108 56.41 98.8373 57.7702C96.7901 56.8853 93.1473 56.0749 90.0424 56.5461C89.3127 55.3184 88.8828 53.803 88.8828 52.1644C88.8828 48.0664 91.5744 44.7439 94.8962 44.7439C98.2185 44.7434 100.911 48.0656 100.911 52.164Z" fill="#F6F6E5"/>
<path d="M89.4361 56.728C89.3126 56.5388 89.1774 56.3156 89.0734 56.1089C88.9431 55.8496 88.8212 55.5854 88.7144 55.3148C88.5003 54.7742 88.3388 54.2114 88.2416 53.6377C88.1356 53.0676 88.0975 52.4764 88.1008 51.9067C88.104 51.3123 88.1696 50.7378 88.2849 50.1612C88.512 49.0125 88.9759 47.9031 89.655 46.9278C90.346 45.9651 91.2615 45.1251 92.3729 44.6223C93.4884 44.1231 94.746 43.9801 95.923 44.2673C97.0932 44.5437 98.1193 45.2025 98.8956 46.0356C100.458 47.7167 101.106 50.0242 100.911 52.164C100.72 50.0319 99.8577 47.9594 98.3281 46.6215C97.5708 45.9594 96.6536 45.5137 95.7097 45.393C95.4766 45.3634 95.2321 45.3504 95.0079 45.3593C94.7622 45.3691 94.5368 45.3885 94.3053 45.4331C93.8459 45.5169 93.4055 45.679 92.9963 45.9011C92.1767 46.3419 91.472 47.0145 90.9527 47.8192C90.4168 48.615 90.0618 49.5344 89.853 50.4861C89.7518 50.961 89.6963 51.457 89.672 51.9355C89.6514 52.4387 89.6712 52.9233 89.7283 53.4136C89.8493 54.3942 90.2359 55.5518 90.6936 56.4545C90.1112 56.5052 89.8833 56.5814 89.4361 56.728Z" fill="black"/>
<path d="M100.909 51.8151C100.909 54.8536 99.1163 57.316 96.9039 57.316C94.6915 57.316 92.8984 54.8536 92.8984 51.8151C92.8984 48.7775 94.6915 46.3151 96.9039 46.3151C99.1163 46.3151 100.909 48.7775 100.909 51.8151Z" fill="black"/>
<path d="M98.0333 50.6057C97.3298 51.9035 95.9937 52.5388 95.0482 52.0254C94.1035 51.5117 93.9084 50.0437 94.6119 48.7463C95.3154 47.4489 96.6515 46.8135 97.5962 47.3269C98.5409 47.8407 98.7367 49.3087 98.0333 50.6057Z" fill="#F6F6E5"/>
<path d="M88.2061 57.0202C91.0393 55.1296 96.7581 55.8273 100.18 58.4404C96.9317 57.1045 90.9908 56.4979 88.2061 57.0202Z" fill="#BFAF90"/>
<path d="M89.9453 43.3115C92.2726 39.7661 98.5463 40.2726 100.874 45.3374C97.838 41.8934 92.8798 41.8934 89.9453 43.3115Z" fill="black"/>
<path d="M108.757 61.79C108.749 61.7946 108.743 61.797 108.734 61.8011C108.728 61.8048 108.723 61.8085 108.717 61.8118L108.757 61.79Z" fill="black"/>
<path d="M111.548 56.3601C111.525 56.179 111.516 55.989 111.326 55.7098C111.303 55.681 111.302 55.6746 111.262 55.6276C111.216 55.5757 111.167 55.5254 111.116 55.4793C111.038 55.4165 110.957 55.3577 110.883 55.3168C110.578 55.1417 110.321 55.0773 110.071 55.0064C109.575 54.8796 109.121 54.8038 108.687 54.7009C107.898 54.5279 107.173 54.2536 106.815 53.7726C107.184 50.4626 107.248 47.0688 106.652 43.728C106.347 42.0246 105.867 40.3374 105.151 38.7366C104.439 37.1365 103.478 35.628 102.273 34.333C101.074 33.0344 99.6431 31.9545 98.0929 31.1288C96.5427 30.3002 94.88 29.7167 93.1901 29.3249C92.345 29.1272 91.4914 28.9789 90.6349 28.8666L89.9922 28.7904L89.6627 28.7564L89.3482 28.7297C88.9018 28.6952 88.4667 28.6786 88.0279 28.677C86.2753 28.6713 84.5296 28.9144 82.8466 29.3763C79.486 30.3107 76.3581 32.119 73.938 34.6466C72.7286 35.9067 71.6977 37.3395 70.8906 38.8861C70.0811 40.4302 69.493 42.0903 69.1126 43.7755C68.3395 47.1397 68.2824 50.711 69.1939 54.0708C70.0981 57.4156 72.111 60.5084 74.9236 62.431C73.7907 61.1689 72.8104 59.8168 72.0296 58.3654C71.2517 56.9132 70.6571 55.378 70.2645 53.79C69.4614 50.6154 69.5295 47.2447 70.3001 44.055C71.0416 40.8618 72.6023 37.884 74.8868 35.568C77.1562 33.2434 80.0862 31.5883 83.2206 30.7507C84.7866 30.3297 86.4065 30.0992 88.023 30.1061C88.4262 30.1073 88.8326 30.1231 89.2264 30.1531L89.5401 30.1798L89.8396 30.211L90.4507 30.2836C91.2643 30.3901 92.0722 30.5303 92.8667 30.7163C96.0416 31.4396 99.0518 32.9298 101.227 35.3042C102.315 36.4821 103.202 37.8443 103.877 39.3152C104.553 40.7868 105.019 42.3618 105.324 43.9724C105.928 47.2041 105.898 50.549 105.586 53.8666L105.566 54.0749L105.66 54.2272L105.665 54.2357C105.963 54.7767 106.458 55.1673 106.943 55.4104C107.433 55.6583 107.929 55.7994 108.404 55.914C108.88 56.0259 109.35 56.1028 109.76 56.2074C109.959 56.2588 110.158 56.3224 110.258 56.3848C110.287 56.399 110.299 56.4124 110.314 56.4205C110.318 56.4318 110.321 56.446 110.32 56.4618C110.33 56.5822 110.308 56.7803 110.264 56.974C110.221 57.1709 110.162 57.3763 110.093 57.581C109.955 57.9918 109.779 58.4027 109.583 58.8022C109.387 59.2013 109.169 59.5919 108.929 59.9549C108.808 60.1357 108.682 60.3103 108.552 60.4639C108.43 60.6126 108.269 60.7592 108.208 60.788L108.27 60.7584L108.183 60.8022C108.175 60.8058 108.16 60.8111 108.144 60.8139C108.106 60.8233 108.056 60.8318 108.004 60.8382C107.897 60.8504 107.777 60.8549 107.656 60.8528C107.412 60.8492 107.158 60.8212 106.907 60.7763C106.404 60.6871 105.91 60.523 105.442 60.3095C104.509 59.8759 103.699 59.1827 103.144 58.2929L102.634 57.4764L102.428 58.3751L102.427 58.3772C102.234 58.9861 102.111 59.6296 102.108 60.2868C102.102 60.9424 102.212 61.6089 102.447 62.2349C102.864 63.3541 103.663 64.3269 104.705 64.959C104.694 64.9857 104.681 65.0141 104.662 65.0433C104.584 65.1924 104.459 65.3593 104.324 65.5178C104.049 65.8378 103.713 66.1361 103.367 66.4015C103.194 66.534 103.016 66.6571 102.839 66.758C102.755 66.8071 102.655 66.8581 102.593 66.8844C102.512 66.9201 102.429 66.9501 102.348 66.9716C102.023 67.0603 101.686 67.036 101.291 66.9197C100.5 66.7009 99.5739 66.1417 98.4503 65.993C97.8905 65.914 97.3182 65.9379 96.7584 66.0716C96.2816 66.2021 95.8558 66.3026 95.3847 66.3889C93.5285 66.7228 91.6019 66.8366 89.6793 66.8767C87.7535 66.8974 85.82 66.8038 83.8832 66.6126C85.7645 67.1142 87.7009 67.4331 89.6526 67.5984C90.6288 67.6871 91.6108 67.7341 92.596 67.7293C93.5819 67.7301 94.5699 67.6818 95.5628 67.5591C96.0513 67.5003 96.5779 67.4128 97.0426 67.3091C97.4315 67.2349 97.8448 67.2321 98.2435 67.3066C98.6466 67.3812 99.0506 67.5279 99.48 67.7058C99.9094 67.8832 100.36 68.1032 100.898 68.2673C101.428 68.4294 102.096 68.5007 102.712 68.3265C102.865 68.2852 103.011 68.2345 103.151 68.1693C103.31 68.0964 103.424 68.0319 103.548 67.957C103.79 67.8111 104.008 67.6527 104.216 67.4857C104.633 67.1515 105.003 66.7754 105.343 66.3439C105.511 66.1231 105.671 65.8934 105.806 65.6057C105.872 65.461 105.932 65.305 105.967 65.1105C106.001 64.9205 106.014 64.6782 105.916 64.4165V64.4156L105.834 64.1697L105.598 64.0712C104.635 63.666 103.808 62.8524 103.372 61.8613C103.152 61.3654 103.026 60.8241 102.998 60.2706C102.985 60.0323 102.993 59.7921 103.016 59.5522C103.172 59.7592 103.339 59.9582 103.522 60.1438C103.953 60.5729 104.45 60.9347 104.987 61.2203C105.522 61.5101 106.099 61.7126 106.696 61.8431C106.995 61.9071 107.299 61.9529 107.616 61.9691C107.775 61.9776 107.937 61.9784 108.109 61.9647C108.196 61.9574 108.285 61.9472 108.385 61.927C108.481 61.9047 108.58 61.8857 108.734 61.8038C109.076 61.6162 109.243 61.4185 109.425 61.2228C109.601 61.0222 109.752 60.8188 109.895 60.6126C110.178 60.2001 110.425 59.7763 110.649 59.3399C110.872 58.9031 111.073 58.4554 111.243 57.9821C111.327 57.7447 111.404 57.5015 111.463 57.2418C111.52 56.9772 111.57 56.7078 111.548 56.3601ZM108.186 60.7994C108.191 60.7977 108.191 60.7973 108.186 60.7994ZM110.294 56.3934C110.294 56.3905 110.303 56.4023 110.314 56.4173C110.314 56.4181 110.314 56.4185 110.314 56.4197C110.305 56.414 110.298 56.4043 110.294 56.3934Z" fill="black"/>
<path d="M76.8908 33.0806C75.9493 29.3143 60.0255 25.7722 60.8698 40.0737C55.9772 41.9063 54.3764 49.4809 56.6236 56.0015C59.1189 63.2418 65.0137 67.3042 60.5108 69.9545C64.764 69.8318 68.0829 65.538 65.5783 58.8038C61.0467 46.6199 65.7528 38.7471 76.8908 33.0806Z" fill="#6B6B6B"/>
<path d="M66.1492 31.9156C65.1689 32.2131 62.3162 33.9205 62.7999 37.8306C63.4981 35.6652 64.6885 34.2694 67.1882 33.2017C68.6312 32.5854 67.8795 31.3913 66.1492 31.9156Z" fill="#858585"/>
<path d="M61.4976 67.9882C61.6701 66.7678 60.7687 65.1028 59.4658 62.9635C58.3519 61.1349 56.966 58.8585 56.0501 56.1997C53.8996 49.9614 55.1021 41.9817 60.2429 39.675C60.115 36.2256 60.9447 33.5461 62.7119 31.7045C64.354 29.9922 66.8189 29.0793 69.651 29.1324C73.3974 29.2029 76.9823 30.9432 77.4801 32.9331L77.5971 33.4031L77.1664 33.6223C65.5172 39.549 62.0157 47.4833 66.1474 58.5919C67.4702 62.147 67.3378 65.3828 65.7763 67.7037C64.596 69.4578 62.4411 70.3962 59.7463 70.177C59.7463 70.177 61.3143 69.2945 61.4976 67.9882ZM69.6279 30.3476C67.1383 30.301 64.9927 31.0818 63.5874 32.5465C61.991 34.2102 61.2807 36.7305 61.4758 40.038L61.5021 40.4853L61.0823 40.6426C56.709 42.2811 54.9297 49.2236 57.1967 55.803C58.071 58.3383 59.363 60.459 60.5023 62.3306C61.9526 64.7131 63.0988 66.5947 62.6751 68.284C62.6172 68.5141 62.5326 68.7337 62.4197 68.944C63.3668 68.555 64.1803 67.8986 64.7688 67.0242C66.1057 65.0376 66.1912 62.1936 65.0089 59.0157C62.7321 52.8934 62.667 47.7317 64.8105 43.2361C66.7404 39.1887 70.4374 35.7714 76.1048 32.8022C75.3264 31.6304 72.6296 30.4039 69.6279 30.3476Z" fill="black"/>
<path d="M76.8896 33.0806C74.4295 32.7601 64.139 34.4635 60.9832 44.7362C57.6415 55.6154 64.1807 62.1219 63.4186 65.957C62.6362 69.8934 56.6365 71.4019 54.7998 66.8079C54.6152 71.2621 58.8323 73.6247 65.5565 70.658C69.7408 68.8115 73.1845 63.3042 71.0247 54.3476C68.8654 45.3913 69.2106 37.799 76.8896 33.0806Z" fill="#6B6B6B"/>
<path d="M64.6547 62.4886C61.6956 55.7892 61.1374 50.5806 62.4958 45.7548C63.3984 42.5477 65.6707 43.2317 64.8442 47.427C64.3058 50.1608 63.2774 56.1936 64.6547 62.4886Z" fill="#858585"/>
<path d="M59.9563 72.583H59.9555C58.1135 72.5482 56.5965 71.9525 55.5696 70.861C54.601 69.8306 54.0878 67.8075 54.6634 65.893C54.6634 65.893 55.8582 68.7187 58.6907 69.0323C60.3935 69.2212 62.4172 67.8784 62.8228 65.8379C63.0575 64.6567 62.4528 63.0619 61.6866 61.0433C60.2061 57.1417 58.1782 51.799 60.4028 44.5571C63.4991 34.4772 73.2294 32.3788 76.3942 32.4383C76.6063 32.4424 76.7993 32.4554 76.9677 32.4772L78.6697 32.6997L77.2069 33.5984C70.7596 37.5595 69.0876 43.7228 71.6148 54.2046C73.9381 63.8403 69.9355 69.3893 65.8018 71.2139C63.6679 72.1547 61.7008 72.6158 59.9563 72.583ZM55.9497 69.3439C56.0913 69.5923 56.2597 69.8208 56.454 70.0275C57.2518 70.8763 58.4701 71.3395 59.9778 71.3682H59.979C61.5458 71.3974 63.3405 70.9716 65.3116 70.1016C69.0167 68.4667 72.5818 63.3974 70.4342 54.4902C68.784 47.6454 67.8842 39.2592 74.8529 33.7592C71.0858 34.2751 64.0451 36.837 61.5632 44.9152C59.4617 51.758 61.4033 56.8759 62.8216 60.6122C63.6566 62.8135 64.3163 64.5522 64.0136 66.0753C63.5311 68.5024 61.2325 70.2965 58.6672 70.2483C57.6391 70.2285 56.7151 69.914 55.9497 69.3439Z" fill="black"/>
<path d="M76.8913 33.0806C74.4336 32.9319 68.453 36.4849 67.567 44.5562C66.3459 55.6774 72.6009 59.1426 69.12 64.2402C66.9344 67.4412 60.3106 69.8496 61.0003 76.2451C61.4803 80.6944 67.365 82.2414 64.3456 86.7434C66.9028 85.2718 66.9526 82.6385 65.2801 80.0745C64.0189 78.1405 64.2274 74.8739 68.4579 72.5356C73.7759 69.5964 80.3325 65.3634 76.8695 55.7746C73.0243 45.1251 73.5683 37.5773 76.8913 33.0806Z" fill="#6B6B6B"/>
<path d="M69.6371 50.8156C69.9455 53.1381 70.6805 54.7913 71.6649 57.9444C72.5946 60.9213 72.2943 64.1515 69.189 66.7058C66.2744 69.1028 64.1195 70.6409 63.7119 72.4995C64.6388 70.8002 68.3471 68.756 70.6745 67.0323C73.6231 64.8484 74.7115 62.4805 74.1772 59.1863C73.3851 54.3038 72.4428 52.2868 71.9584 50.2625C70.9768 46.1604 69.1793 47.3731 69.6371 50.8156Z" fill="#858585"/>
<path d="M62.8415 81.019C61.7964 79.7459 60.6121 78.3034 60.3972 76.3107C59.8848 71.5607 63.1601 68.8358 65.7918 66.6454C66.9239 65.7033 67.9936 64.8135 68.619 63.897C70.2076 61.57 69.5612 59.6539 68.5829 56.754C67.586 53.7993 66.3455 50.1219 66.9635 44.4894C67.854 36.3784 73.7504 32.4108 76.8007 32.4683C76.844 32.4691 76.8869 32.4712 76.9277 32.4732L78.0449 32.5412L77.3791 33.4416C73.8949 38.1571 73.9156 45.8079 77.4402 55.5676C81.2626 66.1519 73.1239 70.6511 68.7517 73.0672C66.8688 74.1077 65.6837 75.4229 65.3235 76.8703C65.0729 77.878 65.2376 78.8978 65.7881 79.7418C66.8611 81.3877 67.2489 83.0084 66.9085 84.4274C66.6288 85.5972 65.2008 86.8605 63.6041 87.4724C65.2081 84.7333 64.5852 83.145 62.8415 81.019ZM75.641 33.8824C73.1105 34.6883 68.8995 37.9898 68.1709 44.6223C67.582 49.9878 68.7748 53.5238 69.7333 56.365C70.7496 59.3771 71.5522 61.7556 69.6215 64.583C68.9003 65.6393 67.7674 66.5822 66.5681 67.5797C64.0339 69.6887 61.1626 72.0785 61.6042 76.1798C61.7806 77.8115 62.7962 79.0498 63.7793 80.2471C64.6815 81.3468 65.6023 82.4679 65.7861 83.8277C65.9148 82.8176 65.5615 81.617 64.7722 80.4067C64.0461 79.2925 63.8178 77.897 64.1456 76.5769C64.4553 75.333 65.4032 73.5299 68.1648 72.0036C73.7792 68.9002 79.5012 64.8472 76.2992 55.9809C72.1274 44.4298 73.4372 37.6871 75.641 33.8824Z" fill="black"/>
<path d="M81.0508 30.7511C81.3701 28.4233 84.8053 19.9318 95.4766 21.9266C105.349 23.7718 104.748 34.632 109.942 35.6993C114.18 36.57 114.484 30.2916 111.175 29.2795C116.221 29.3589 116.999 34.6859 115.664 37.5615C114.001 41.1442 107.951 43.9643 103.44 38.4185C97.6849 31.3459 88.752 27.4902 81.0508 30.7511Z" fill="#6B6B6B"/>
<path d="M109.512 42.1502C107.808 42.1993 105.292 41.6575 102.969 38.8026C98.4468 33.2442 92.2727 30.0254 86.4527 30.1924C84.6556 30.2438 82.918 30.6203 81.2873 31.3107L80.3037 31.7272L80.449 30.6685C80.7202 28.6928 83.4681 21.2677 91.9606 21.0238C93.1085 20.991 94.3288 21.0935 95.5876 21.3289C101.61 22.4541 103.935 26.8022 105.803 30.2957C107.071 32.6664 108.166 34.7135 110.063 35.1036C110.317 35.1563 110.562 35.1794 110.788 35.1729C112.392 35.1271 112.718 33.6259 112.78 33.1669C112.995 31.57 112.434 30.1049 110.147 29.0234C113.462 28.5951 115.183 30.0392 115.875 31.1446C117.231 33.3095 117.001 36.1211 116.214 37.818C115.068 40.2884 112.312 42.07 109.512 42.1502ZM86.4183 28.9772C92.6131 28.7998 99.1519 32.1855 103.911 38.0352C105.502 39.991 107.427 40.9938 109.477 40.9351C112.106 40.8593 114.303 39.0522 115.114 37.3054C115.788 35.8524 115.914 33.4914 114.848 31.7904C114.484 31.2078 114.015 30.7572 113.448 30.4412C113.937 31.3277 114.111 32.3905 113.984 33.3289C113.74 35.1393 112.5 36.3399 110.824 36.3877C110.504 36.397 110.166 36.3654 109.82 36.2945C107.366 35.79 106.087 33.3998 104.734 30.8694C102.897 27.4347 100.815 23.5425 95.3658 22.5234C94.192 22.3042 93.0583 22.2086 91.9966 22.239C85.4841 22.4258 82.7334 27.2617 81.9142 29.7746C83.358 29.2892 84.8685 29.0214 86.4183 28.9772Z" fill="black"/>
<path d="M74.4053 35.5015C72.6604 32.6373 69.9441 23.6632 78.531 20.4865C86.845 17.4104 94.4026 23.2742 95.0101 30.3504C88.447 27.3974 78.2023 30.2244 74.4053 35.5015Z" fill="#6B6B6B"/>
<path d="M75.8465 25.538C76.1958 22.3873 83.4963 18.7224 89.857 23.88C86.09 22.9189 83.0576 23.1324 79.9135 25.1073C77.4056 26.6831 75.7416 26.4878 75.8465 25.538Z" fill="#858585"/>
<path d="M74.3632 36.5996L73.8868 35.818C72.6082 33.7191 71.1826 29.2252 72.4961 25.4432C73.3873 22.8755 75.3471 21.0165 78.3205 19.9165C79.7687 19.3808 81.2456 19.0874 82.7104 19.0457C89.2776 18.8577 95.0659 23.9059 95.6148 30.2985L95.7038 31.3289L94.7612 30.9047C92.9624 30.0951 90.7541 29.7033 88.3749 29.7714C82.9051 29.9286 77.3636 32.4306 74.8979 35.8569L74.3632 36.5996ZM82.7452 20.2609C81.4128 20.2994 80.0658 20.5668 78.7414 21.0566C76.1251 22.0246 74.4097 23.6344 73.6431 25.8427C72.6102 28.8168 73.4869 32.3107 74.5008 34.4047C77.3891 31.0773 82.912 28.7126 88.3394 28.557C90.4858 28.4955 92.5128 28.7864 94.2694 29.4023C93.2947 24.1231 88.332 20.1008 82.7452 20.2609Z" fill="black"/>
<path d="M76.9336 33.1332C79.5305 31.1211 87.0468 28.3415 92.821 32.9712C98.3572 37.41 100.76 43.9023 106.738 43.9999C111.901 44.0842 113.722 39.5842 112.755 37.1746C112.583 38.4955 111.409 40.2451 108.762 39.5968C105.425 38.7787 104.899 34.4169 99.6326 29.8767C94.3712 25.3399 83.9763 22.4335 76.9336 33.1332Z" fill="#6B6B6B"/>
<path d="M92.8287 28.0214C95.6284 28.6555 98.7438 30.9606 100.635 33.1968C103.344 36.401 103.857 39.1008 106.825 40.5019C103.426 40.1239 102.742 38.4837 100.43 35.5805C98.7495 33.4691 97.3239 31.4432 92.772 29.9772C88.8443 28.7118 88.497 27.0396 92.8287 28.0214Z" fill="#858585"/>
<path d="M107.09 44.6061C106.972 44.6089 106.851 44.6093 106.729 44.6073C102.575 44.5396 100.021 41.5716 97.3184 38.4294C95.8536 36.7268 94.3398 34.9667 92.4423 33.4456C90.3886 31.7989 87.9382 30.9959 85.1604 31.0595C81.6342 31.1405 78.6807 32.3848 76.0547 33.9254C79.3757 27.226 85.375 25.2641 88.772 25.1863C92.6463 25.0972 96.8554 26.6786 100.03 29.4156C102.559 31.5959 104.02 33.7357 105.195 35.4545C106.452 37.2961 107.361 38.6267 108.908 39.006C109.266 39.0935 109.604 39.1344 109.915 39.1276C111.623 39.0882 112.667 38.0064 112.627 36.2682C113.512 37.7649 113.614 40.2495 112.623 41.7528C111.447 43.538 109.482 44.551 107.09 44.6061ZM85.1325 29.8447C88.2038 29.7742 90.9188 30.6664 93.2017 32.4967C95.1862 34.0882 96.7376 35.8921 98.2388 37.6365C100.868 40.6936 103.139 43.3334 106.748 43.3921C106.854 43.3942 106.959 43.3938 107.062 43.3913C109.044 43.3459 110.659 42.5263 111.609 41.0842C111.958 40.5546 112.197 39.9598 112.314 39.3703C111.746 39.931 110.954 40.32 109.942 40.3431C109.525 40.3524 109.08 40.3002 108.619 40.1871C106.62 39.6972 105.548 38.128 104.192 36.1413C103.057 34.4805 101.646 32.414 99.2369 30.3374C96.2839 27.7912 92.382 26.32 88.7996 26.4023C85.1766 26.4857 81.9026 28.1166 79.2057 31.1547C80.8927 30.4343 82.9752 29.8938 85.1325 29.8447Z" fill="black"/>
<path d="M81.4988 41.7985C82.2561 35.7284 78.1422 26.8403 70.9958 27.382C68.613 35.1867 71.3658 41.5862 73.1613 44.0745C75.9763 47.9768 80.786 47.508 81.4988 41.7985Z" fill="#F6F6E5"/>
<path d="M81.6852 36.6766C81.5241 35.8237 81.274 34.9878 80.9627 34.1733C80.6515 33.3597 80.2795 32.5635 79.8229 31.8119C78.9216 30.3079 77.7138 28.9298 76.1676 27.9708C74.6348 27.0007 72.7365 26.5631 70.9491 26.7763L70.5104 26.8289L70.414 27.2049C69.8393 28.9367 69.4924 30.7568 69.4147 32.5903C69.3358 34.4238 69.5135 36.269 69.9437 38.0498C70.1534 38.9416 70.4363 39.8148 70.7731 40.6652C71.1122 41.5149 71.502 42.3451 71.9841 43.1276C72.4584 43.9067 73.0316 44.662 73.75 45.2629C74.4616 45.8573 75.3144 46.3115 76.2125 46.4314C75.4103 46.0238 74.7494 45.455 74.2037 44.8034C73.6521 44.1567 73.2323 43.4169 72.8401 42.6494C72.0638 41.1142 71.5073 39.4635 71.1616 37.7783C70.8168 36.0915 70.6848 34.3658 70.7593 32.6503C70.7973 31.7921 70.888 30.9367 71.0208 30.0862C71.1337 29.382 71.2928 28.6859 71.4688 27.9922C72.1007 28.0052 72.7244 28.0814 73.325 28.2471C74.0609 28.4529 74.7639 28.7673 75.4144 29.1794C76.7189 30.004 77.8065 31.1916 78.6698 32.5303C79.0968 33.2041 79.4834 33.9108 79.8068 34.6494C80.131 35.3881 80.3957 36.1543 80.6256 36.9327C81.0817 38.4943 81.3772 40.1004 81.4974 41.8006C82.022 40.1628 82.0038 38.3739 81.6852 36.6766Z" fill="black"/>
<path d="M79.1212 41.132C79.6005 37.2074 77.4617 31.4444 72.9463 31.1673C72.1052 36.5858 73.4705 40.2609 74.605 41.8699C76.3839 44.393 78.6707 44.8233 79.1212 41.132Z" fill="#E6E6CF"/>
<path d="M74.6073 41.8699C75.1558 42.4943 75.7811 43.0741 76.4935 43.3954C76.8468 43.5522 77.2265 43.6085 77.5345 43.5153C77.8437 43.4238 78.0809 43.1742 78.2469 42.8577C78.5804 42.2167 78.6872 41.4007 78.7115 40.615C78.7415 39.8233 78.6719 39.0226 78.5209 38.2406C78.2404 36.6705 77.6244 35.1644 76.7327 33.8877C75.8459 32.6081 74.6037 31.5883 72.9482 31.1677C73.7901 31.0441 74.6915 31.2074 75.4929 31.5935C76.2939 31.9833 76.9998 32.5708 77.5539 33.2629C78.1129 33.9537 78.5415 34.7357 78.8576 35.5506C79.1762 36.365 79.4085 37.209 79.5401 38.0692C79.6643 38.9298 79.7028 39.8038 79.6246 40.6762C79.5797 41.1219 79.5077 41.5376 79.3939 41.9744C79.2762 42.4023 79.126 42.837 78.8564 43.2333C78.5986 43.6239 78.1813 43.9951 77.6644 44.0846C77.1504 44.1802 76.6748 43.9987 76.2984 43.7722C75.5354 43.2965 75.0226 42.5919 74.6073 41.8699Z" fill="black"/>
</svg>
