<svg width="132" height="137" viewBox="0 0 132 137" fill="none" xmlns="http://www.w3.org/2000/svg">
<path d="M11.4552 71.2545C12.1498 69.2461 14.286 67.287 15.9844 69.5543C17.6829 71.8215 18.5321 81.4559 27.3074 80.8893C36.0827 80.3227 35.462 72.202 39.7624 70.5463C43.4424 69.1296 45.9901 71.9631 47.8299 76.3552C49.8115 71.3965 50.0943 61.4785 43.7252 57.511C38.5187 54.2678 30.2062 55.9727 27.6254 63.9579C25.6795 69.9797 22.4359 72.287 19.6641 68.2791C16.1611 63.2141 11.3138 65.0206 11.4552 71.2545Z" fill="#6B6B6B"/>
<path d="M44.0632 56.9699C42.3342 55.8928 40.2956 55.3232 38.1692 55.3232C34.0981 55.3232 29.0317 57.5403 27.0207 63.7619C25.8484 67.389 24.1538 69.6422 22.598 69.6422C21.5934 69.6422 20.7336 68.7037 20.1892 67.9165C18.7571 65.8456 17.0064 64.7051 15.2592 64.7051C14.2197 64.7051 13.269 65.1162 12.5103 65.8932C10.9562 67.4846 10.926 70.653 11.2088 72.2117C12.7659 69.5194 13.5089 69.3068 14.2915 69.1768C14.694 69.11 15.0982 69.4327 15.4761 69.9368C15.8209 70.3963 16.1636 71.3106 16.5601 72.3698C17.8475 75.8035 20.0016 81.5511 26.5779 81.5511C26.8284 81.5511 27.0853 81.5426 27.3494 81.5256C33.0756 81.1558 35.0904 77.6699 36.7094 74.8688C37.6924 73.1685 38.5412 71.6999 39.9921 71.1418C40.5525 70.9259 41.0964 70.8162 41.6089 70.8162C43.7396 70.8162 45.6355 72.7626 47.2439 76.6017L47.8451 78.0372L48.4226 76.5919C50.3087 71.8721 50.966 61.2698 44.0632 56.9699ZM41.6089 69.541C40.9398 69.541 40.2421 69.6792 39.5347 69.9512C37.6639 70.6717 36.6648 72.4004 35.6071 74.2303C33.9881 77.031 32.3143 79.927 27.2675 80.253C21.0406 80.6657 19.1269 75.5863 17.7529 71.9218C17.3037 70.724 16.9491 69.7774 16.4952 69.1712C15.7088 68.1213 14.8626 67.9016 14.2915 67.9016C13.5803 67.9016 12.9302 68.2178 12.3807 68.7011C12.6049 67.9131 12.9557 67.2606 13.4206 66.7845C13.9344 66.2583 14.57 65.9799 15.2587 65.9799C16.5563 65.9799 17.9715 66.9499 19.1413 68.6416C19.7099 69.4641 20.3149 70.0571 20.9484 70.4345C22.1335 71.5529 23.6948 72.1807 25.2807 72.1471C26.8301 72.1071 29.1145 71.4211 31.1968 68.3777C34.8853 62.9866 37.5459 61.4007 41.3626 62.3163C44.4797 63.0644 47.3836 67.3001 47.4732 74.1155C45.8202 71.0441 43.8908 69.541 41.6089 69.541ZM48.2209 72.2483C47.646 66.0819 44.6984 62.2423 41.5609 61.4896C36.7841 60.3449 33.7851 63.0916 30.4966 67.8969C28.6168 70.6445 26.611 71.2625 25.2595 71.2974C24.5334 71.3157 23.8056 71.1563 23.1262 70.863C25.1172 70.5004 26.9562 68.1043 28.233 64.1543C30.0333 58.5834 34.5464 56.5984 38.1692 56.5984C40.0578 56.5984 41.8633 57.1017 43.3901 58.0525C48.1695 61.0301 48.9135 67.4357 48.2209 72.2483Z" fill="black"/>
<path d="M44.8221 66.3663C43.6201 64.1309 41.007 62.2113 37.4208 63.5979C32.0721 65.6662 32.4758 73.3556 24.7607 72.9552C26.176 73.7343 29.8072 73.9532 32.1893 71.1317C35.28 67.4702 37.4438 64.6839 40.8877 66.1032C42.2949 66.683 43.5848 68.5486 44.7177 68.6336C45.5996 68.7003 45.6955 67.99 44.8221 66.3663Z" fill="#858585"/>
<path d="M82.338 90.8276C82.7019 101.69 86.3434 125.598 90.4077 127.701C93.8037 129.457 104.335 126.155 103.809 123.562C103.309 121.098 98.2298 117.359 94.3374 106.992C91.4352 99.2612 89.9852 91.8422 89.3194 88.9909C88.1462 83.965 82.1347 84.7509 82.338 90.8276Z" fill="#CCCAB8"/>
<path d="M100.814 118.888C102.4 121.051 103.581 122.436 103.81 123.563C104.337 126.153 93.8028 129.456 90.408 127.699C89.428 127.192 88.4744 125.417 87.584 122.86C91.2356 123.825 98.8216 122.669 100.814 118.888Z" fill="#807E75"/>
<path d="M82.6609 88.3546C82.593 88.8621 82.5781 89.3535 82.5938 89.8431C82.618 90.3354 82.6774 90.8051 82.7501 91.3079L82.9394 92.7931L83.111 94.2791C83.3224 96.2607 83.5016 98.247 83.7534 100.226C84.2426 104.186 84.8565 108.132 85.6208 112.043C86.0042 113.998 86.4309 115.942 86.9154 117.867C87.4003 119.788 87.9409 121.699 88.641 123.516C88.9943 124.418 89.3896 125.309 89.8817 126.063C90.1238 126.433 90.4095 126.775 90.6686 126.945C90.7395 126.993 90.7624 127.001 90.9008 127.067L91.0167 127.113L91.156 127.162C91.3488 127.223 91.5572 127.271 91.7729 127.307C92.6421 127.449 93.6013 127.416 94.5452 127.311C95.4929 127.204 96.4428 127.016 97.3761 126.77C98.3102 126.529 99.2303 126.227 100.111 125.858C100.981 125.488 101.849 125.048 102.493 124.5C102.811 124.241 103.039 123.901 103.036 123.778C103.042 123.762 103.036 123.751 103.04 123.74C103.038 123.734 103.037 123.729 103.036 123.724L103.037 123.72C103.037 123.717 103.043 123.746 103.038 123.722L103.028 123.676C103.012 123.601 103.005 123.593 102.994 123.552L102.949 123.419C102.883 123.238 102.786 123.045 102.677 122.851C102.23 122.068 101.612 121.272 101.02 120.471C99.8162 118.868 98.6307 117.203 97.5811 115.461C96.5298 113.717 95.602 111.9 94.7885 110.038C93.9715 108.172 93.2909 106.264 92.6574 104.353C92.0252 102.438 91.4553 100.504 90.9343 98.559C90.4223 96.6118 89.9187 94.6625 89.5391 92.6881C89.3467 91.7024 89.2036 90.706 89.0703 89.7122C89.0062 89.206 88.9621 88.7295 88.8487 88.2623C88.7323 87.7944 88.5663 87.3302 88.3188 86.8839C88.7145 87.2057 89.0432 87.6273 89.2886 88.0911C89.4113 88.3223 89.5268 88.5646 89.6121 88.8137L89.8567 89.5358C90.1607 90.496 90.446 91.4563 90.7016 92.4216C91.215 94.3513 91.6706 96.2913 92.2171 98.2066C92.7542 100.124 93.3389 102.026 93.9834 103.906C94.6318 105.788 95.3201 107.649 96.1306 109.442C97.7424 113.054 99.8379 116.38 102.267 119.535C102.864 120.343 103.489 121.125 104.044 122.077C104.18 122.319 104.311 122.574 104.42 122.863C104.448 122.934 104.473 123.01 104.497 123.085C104.521 123.164 104.552 123.275 104.561 123.323L104.572 123.368L104.582 123.417L104.589 123.459L104.61 123.629C104.614 123.742 104.616 123.857 104.6 123.965C104.547 124.411 104.353 124.743 104.162 125.018C103.964 125.288 103.748 125.503 103.528 125.695C102.641 126.447 101.691 126.906 100.73 127.326C99.7661 127.733 98.7819 128.06 97.7802 128.324C96.7777 128.583 95.7591 128.779 94.7188 128.893C93.6773 128.998 92.6166 129.043 91.5088 128.859C91.2315 128.811 90.9513 128.747 90.6686 128.654L90.4541 128.578L90.2235 128.481C90.1365 128.44 89.9306 128.343 89.7973 128.245C89.2274 127.847 88.8894 127.377 88.5803 126.917C87.9837 125.988 87.5774 125.032 87.2038 124.071C85.775 120.216 84.9516 116.268 84.2081 112.311C83.485 108.35 82.9165 104.37 82.4732 100.374C82.2622 98.3758 82.0443 96.3759 81.9573 94.3637L81.9268 92.8526C81.934 92.3476 81.9412 91.8431 81.9637 91.3381C81.9942 90.3341 82.1586 89.2438 82.6609 88.3546Z" fill="black"/>
<path d="M50.9217 85.2563C47.9685 89.4687 48.5133 96.2968 46.2323 95.6363C43.9509 94.9749 43.1543 94.5188 42.1518 95.417C35.8239 101.088 30.1151 109.381 26.2864 118.867C24.8173 122.508 36.4269 127.516 37.8748 126.905C39.3223 126.294 38.513 122.565 40.2347 116.568C41.4818 112.224 44.8464 104.844 48.0819 102.914C51.317 100.984 57.0959 101.874 61.8714 97.6341C66.5191 93.508 67.3734 87.0645 63.183 83.1633C59.9683 80.1696 54.5771 80.0425 50.9217 85.2563Z" fill="#CCCAB8"/>
<path d="M39.3632 120.488C38.7709 124.179 38.9764 126.442 37.8784 126.904C36.4296 127.518 24.8196 122.509 26.2883 118.868C26.7868 117.631 27.3168 116.42 27.8785 115.228C30.3319 118.185 35.7014 121.525 39.3632 120.488Z" fill="#807E75"/>
<path d="M54.6049 81.9243C53.6572 82.6469 52.8585 83.4724 52.1842 84.3837C51.8436 84.8359 51.5316 85.3052 51.2514 85.7983C50.9788 86.2624 50.7342 86.7738 50.5291 87.2898C50.1045 88.3248 49.7754 89.4126 49.4862 90.5279C49.1941 91.6467 48.972 92.7863 48.6349 93.9692C48.5466 94.2668 48.4511 94.5669 48.3224 94.8767C48.1904 95.1857 48.0413 95.5088 47.7517 95.8416C47.6069 96.0048 47.4112 96.1731 47.1543 96.2866C46.9008 96.4014 46.5998 96.4422 46.348 96.4112C46.2257 96.3989 46.0954 96.3678 46.0041 96.3419L45.7922 96.2811L45.3637 96.1549C44.8011 95.9895 44.233 95.8017 43.749 95.712C43.5078 95.6673 43.3078 95.6605 43.1647 95.6928C43.0216 95.7222 42.8875 95.7948 42.7219 95.9321C41.8935 96.6743 41.0532 97.4938 40.2558 98.3244C39.4554 99.1579 38.6826 100.019 37.9366 100.904C34.9588 104.448 32.3853 108.335 30.2049 112.429C29.1171 114.478 28.1328 116.581 27.2509 118.727L27.0861 119.129C27.0331 119.26 27.0267 119.288 27.011 119.374C26.9859 119.522 26.9983 119.685 27.0518 119.871C27.1596 120.243 27.4356 120.662 27.7766 121.045C28.4674 121.82 29.3807 122.493 30.3233 123.101C31.2719 123.709 32.2787 124.251 33.31 124.733C34.3406 125.21 35.408 125.643 36.4636 125.94C37.847 126.202 37.5862 126.455 37.9442 125.187C38.1344 124.124 38.2193 122.916 38.3811 121.742C38.6847 119.374 39.2048 117.004 40.0052 114.737C40.806 112.48 41.7724 110.3 42.9257 108.2C43.5061 107.152 44.1345 106.125 44.8589 105.147C45.5905 104.176 46.3887 103.222 47.4864 102.478C48.6124 101.749 49.8315 101.438 50.9961 101.171C52.1676 100.913 53.3188 100.72 54.4427 100.468C56.6906 99.9808 58.8263 99.1941 60.6751 97.9031C62.5306 96.6135 64.1063 94.9184 65.2392 92.8364C64.7122 95.159 63.2205 97.26 61.331 98.7822C60.385 99.56 59.3002 100.159 58.1839 100.644C57.0591 101.116 55.8927 101.455 54.7314 101.728C53.5697 102.004 52.4088 102.212 51.2925 102.473C50.1843 102.735 49.0956 103.056 48.2502 103.625C47.4027 104.208 46.6631 105.079 46.0037 105.987C45.3417 106.904 44.7536 107.89 44.2088 108.901C43.1269 110.929 42.2098 113.066 41.4675 115.243C40.7207 117.41 40.2396 119.656 39.9615 121.945C39.809 123.097 39.7449 124.237 39.5318 125.488C39.4711 125.805 39.4006 126.132 39.2549 126.494C39.1089 126.845 38.8724 127.288 38.3463 127.581C38.2359 127.639 38.2957 127.609 38.1743 127.664C38.0745 127.704 37.9934 127.724 37.9178 127.739C37.7692 127.767 37.6555 127.772 37.5476 127.773C37.3357 127.774 37.1578 127.753 36.9867 127.729C36.6466 127.679 36.3375 127.606 36.033 127.525C34.8284 127.194 33.713 126.745 32.6124 126.244C31.5156 125.74 30.4478 125.176 29.4173 124.525C28.391 123.866 27.3915 123.138 26.5146 122.16C26.0854 121.665 25.668 121.1 25.4391 120.341C25.3292 119.964 25.282 119.529 25.3563 119.097C25.3856 118.893 25.4714 118.639 25.5317 118.5L25.7015 118.088C26.608 115.893 27.6199 113.742 28.7379 111.647C30.9734 107.458 33.6213 103.479 36.7281 99.8724C37.5039 98.9705 38.3076 98.0919 39.1403 97.2409C39.9772 96.3874 40.823 95.5734 41.7512 94.7598C42.0344 94.5235 42.4242 94.2927 42.8603 94.2098C43.2938 94.1235 43.6895 94.1686 44.0224 94.231C44.6908 94.3662 45.2355 94.5622 45.796 94.7301L46.2096 94.8567L46.4198 94.9192C46.4703 94.9328 46.483 94.9354 46.5064 94.9392C46.5463 94.9447 46.5442 94.9396 46.5594 94.9362C46.5726 94.9333 46.6095 94.9111 46.6592 94.8559C46.7599 94.7479 46.8779 94.5388 46.9743 94.3088C47.0732 94.078 47.1602 93.8187 47.2413 93.5548C47.8693 91.3929 48.2379 88.9561 49.333 86.7462C49.6145 86.1953 49.9227 85.6669 50.2972 85.1518C50.6726 84.6723 51.0722 84.2043 51.5197 83.7865C52.408 82.9491 53.4601 82.269 54.6049 81.9243Z" fill="black"/>
<path d="M74.7898 60.5382C75.5889 65.9025 77.5714 71.5788 73.2498 73.2352C68.9281 74.8913 61.1026 67.8484 50.6442 71.8308C41.2812 75.3962 40.8039 88.0426 46.4109 94.0551C54.1285 102.331 84.3965 100.522 90.8004 93.2823C97.0884 86.1749 94.5081 76.529 92.0123 68.5166C90.8922 64.9223 88.8868 58.8792 85.4678 56.0369C80.2087 51.6647 74.0081 55.2883 74.7898 60.5382Z" fill="#E6E6CF"/>
<path d="M69.4167 73.163C72.9218 75.9526 63.414 81.2638 54.1771 78.6509C47.5894 76.7875 48.9782 72.678 52.2804 71.2936C59.4061 69.2792 65.2186 72.1598 69.4167 73.163Z" fill="#F6F6E5"/>
<path d="M64.0225 100.105C64.0225 100.105 64.0225 100.105 64.0216 100.105C59.024 99.8886 50.0308 98.8719 45.9453 94.4904C42.7132 91.0244 41.3783 85.5343 42.5451 80.5038C43.5739 76.0683 46.3695 72.7766 50.4173 71.2349C52.9539 70.2687 55.5062 69.8569 58.2207 69.9742C61.471 70.1149 64.3006 70.9854 66.7973 71.7531C68.6116 72.3112 70.1789 72.7932 71.476 72.8493C72.0807 72.8756 72.5859 72.8063 73.0224 72.6397C75.9136 71.5316 75.559 68.398 74.6321 63.3692C74.4669 62.4731 74.2963 61.5465 74.1604 60.6322C73.878 58.7352 74.4028 56.9346 75.638 55.5608C76.9203 54.1351 78.8073 53.3679 80.8148 53.4546C82.571 53.5307 84.3208 54.2537 85.8748 55.5459C89.605 58.6472 91.7183 65.4303 92.6205 68.3266C95.4026 77.2555 97.5897 86.5698 91.2775 93.7049C87.0824 98.4473 74.1044 100.542 64.0225 100.105ZM58.1655 71.2485C55.6276 71.1388 53.2413 71.5239 50.8703 72.4272C47.2319 73.8129 44.7157 76.7832 43.7854 80.792C42.7289 85.3494 43.9709 90.5046 46.8756 93.6203C49.6339 96.5783 55.9036 98.4779 64.076 98.8319C75.3985 99.322 86.9274 96.6994 90.323 92.8603C96.1957 86.2221 94.077 77.2882 91.4041 68.7071C90.5349 65.9182 88.5006 59.388 85.0609 56.5282C83.7225 55.4159 82.2351 54.7936 80.7596 54.7298C79.1325 54.6597 77.6107 55.2739 76.5845 56.4152C75.6079 57.5008 75.1947 58.932 75.4198 60.4452C75.5527 61.3378 75.7212 62.253 75.8843 63.1388C76.711 67.6253 77.5661 72.2644 73.4776 73.8312C72.8751 74.062 72.2025 74.1576 71.4208 74.124C69.9606 74.0611 68.3212 73.557 66.4228 72.973C63.9996 72.227 61.2523 71.382 58.1655 71.2485Z" fill="black"/>
<path d="M45.3632 84.4657C40.8492 87.2783 38.6242 94.0117 36.7118 92.4513C34.799 90.8905 34.2211 90.1301 32.9027 90.5781C24.5787 93.4043 15.7928 98.9828 8.32266 106.469C5.45529 109.342 14.53 118.854 16.1579 118.861C17.7863 118.869 18.5124 114.982 22.5678 109.966C25.5052 106.333 31.6858 100.667 35.5514 100.146C39.417 99.6251 44.5785 102.831 50.844 100.737C56.9418 98.6976 60.348 92.9015 57.915 87.4717C56.0475 83.3057 50.9501 80.9853 45.3632 84.4657Z" fill="#E6E6CF"/>
<path d="M54.8264 93.4285C50.2046 98.7928 36.1191 98.5042 38.6468 91.8707C40.2302 90.204 42.2525 86.4052 45.3662 84.4653C48.8246 82.3123 52.0966 82.3795 54.5283 83.7359C54.5313 83.7388 54.5339 83.7422 54.5339 83.7422C57.0174 85.6597 58.6822 88.9552 54.8264 93.4285Z" fill="#F6F6E5"/>
<path d="M20.012 113.588C18.0758 116.732 17.3663 118.865 16.1596 118.863C14.5325 118.853 5.45606 109.342 8.32513 106.467C9.36923 105.423 10.4379 104.419 11.5283 103.452C12.2565 107.052 16.0296 112.867 20.012 113.588Z" fill="#807E75"/>
<path d="M49.6996 82.8411C48.5086 83.1905 47.4122 83.6908 46.4017 84.3254C45.3741 84.9473 44.4888 85.6924 43.6681 86.5548C42.8477 87.4096 42.1021 88.3511 41.3769 89.3262C40.6415 90.3 39.9799 91.3202 39.0874 92.2987C38.8543 92.5405 38.6089 92.7837 38.273 92.9979C38.1044 93.1029 37.9108 93.2032 37.6713 93.2619C37.4353 93.3218 37.1495 93.3261 36.893 93.2495C36.6421 93.179 36.4145 93.023 36.2757 92.9074L35.916 92.6132L35.2078 92.0262C34.7479 91.6479 34.2698 91.2611 33.8906 91.1446C33.7046 91.0881 33.5391 91.0856 33.3208 91.1353C33.1293 91.1795 32.8028 91.31 32.5213 91.4061C30.2488 92.2226 28.0294 93.2198 25.8813 94.3419C21.586 96.5965 17.5471 99.3436 13.8191 102.456C12.8866 103.235 11.9755 104.038 11.0842 104.863C10.6392 105.277 10.1976 105.693 9.76282 106.117L9.11404 106.756C9.01468 106.857 8.88093 106.985 8.80875 107.064C8.77436 107.105 8.70768 107.196 8.67202 107.269C8.50769 107.58 8.49456 108.06 8.60241 108.568C8.70813 109.077 8.91279 109.605 9.15991 110.119C9.65967 111.152 10.3241 112.144 11.0388 113.094C11.758 114.043 12.5444 114.952 13.3783 115.805C13.7953 116.231 14.2259 116.643 14.6687 117.028C15.1057 117.405 15.5816 117.784 16.0041 118.011C16.0988 118.064 16.21 118.1 16.1986 118.096C16.1913 118.093 16.1909 118.095 16.1761 118.093L16.1396 118.093L16.1684 118.093C16.2262 118.092 16.2007 118.088 16.1969 118.091C16.213 118.088 16.2308 118.083 16.2512 118.076C16.3349 118.049 16.5 117.918 16.6559 117.729C16.9748 117.346 17.2788 116.82 17.576 116.301C18.1696 115.248 18.7695 114.147 19.4319 113.087C20.7452 110.96 22.3083 108.953 24.0525 107.17C25.7917 105.382 27.6494 103.716 29.6832 102.243C30.7048 101.511 31.7697 100.826 32.937 100.272C33.5217 99.9957 34.1335 99.7542 34.7929 99.5902C35.4604 99.4231 36.1555 99.3849 36.8098 99.4116C38.1261 99.4707 39.3519 99.7479 40.5535 99.9986C41.7543 100.256 42.9343 100.507 44.1173 100.658C45.299 100.814 46.4815 100.855 47.6517 100.768C48.8211 100.674 49.9739 100.436 51.0978 100.07C53.3376 99.3373 55.419 98.0523 57.0665 96.208C55.9281 98.4263 53.8234 100.122 51.4745 101.09C50.8961 101.325 50.2719 101.539 49.6575 101.692C49.0351 101.843 48.402 101.95 47.7655 102.018C46.4912 102.154 45.2085 102.098 43.9577 101.951C42.7046 101.802 41.4805 101.551 40.281 101.304C39.0836 101.063 37.8994 100.816 36.7601 100.777C36.1903 100.759 35.6481 100.796 35.125 100.932C34.5942 101.067 34.0601 101.281 33.5378 101.533C32.4916 102.041 31.4878 102.694 30.5214 103.4C28.592 104.823 26.7946 106.46 25.128 108.205C23.453 109.945 21.9817 111.832 20.7202 113.887C20.0833 114.911 19.5101 115.969 18.9025 117.055C18.5887 117.598 18.2885 118.148 17.8261 118.715C17.5879 118.99 17.2992 119.304 16.8075 119.505C16.6852 119.552 16.554 119.588 16.4185 119.609C16.3387 119.619 16.2368 119.627 16.2177 119.625L16.1888 119.627C16.1268 119.628 16.1285 119.626 16.0954 119.625C16.0415 119.623 16.0033 119.617 15.9583 119.611C15.6436 119.553 15.4725 119.46 15.2946 119.373C14.6365 119.015 14.1566 118.61 13.6616 118.192C13.1771 117.774 12.7194 117.336 12.2765 116.887C11.3929 115.988 10.5679 115.038 9.8019 114.034C9.03846 113.027 8.33105 111.967 7.76548 110.785C7.48651 110.193 7.23939 109.569 7.09757 108.873C6.96382 108.191 6.91202 107.367 7.31454 106.57C7.41984 106.37 7.52815 106.207 7.69799 106.018C7.83429 105.873 7.92597 105.791 8.04231 105.673L8.70809 105.024C9.15393 104.594 9.60658 104.17 10.063 103.751C10.9764 102.913 11.9109 102.098 12.8663 101.308C16.6869 98.1505 20.8204 95.3591 25.2456 93.1067C27.4583 91.9807 29.7354 90.9852 32.0899 90.1666C32.3905 90.0705 32.6321 89.9621 33.0372 89.8635C33.416 89.7738 33.8851 89.7772 34.2834 89.9124C34.6817 90.0446 34.9921 90.2473 35.2655 90.4437C35.539 90.6431 35.7823 90.8458 36.0213 91.046L36.7236 91.6411L37.0731 91.9331C37.1695 92.013 37.2039 92.0283 37.2484 92.0466C37.3079 92.0666 37.4196 92.0615 37.6153 91.9412C37.8004 91.8286 38.0025 91.6445 38.1949 91.446C38.9698 90.6193 39.6712 89.5838 40.4211 88.607C41.1675 87.6192 41.959 86.6373 42.8778 85.7591C43.7844 84.878 44.8786 84.1248 46.0361 83.6249C47.1969 83.1212 48.4546 82.8062 49.6996 82.8411Z" fill="black"/>
<path d="M83.5373 95.8389C91.5152 103.453 111.377 119.051 115.796 117.744C119.489 116.652 125.047 106.457 122.826 104.946C120.715 103.51 113.821 103.989 103.656 99.1905C96.0759 95.6123 89.7625 91.2487 87.2577 89.647C82.8435 86.8234 79.0747 91.5794 83.5373 95.8389Z" fill="#E6E6CF"/>
<path d="M116.892 103.457C119.811 104.024 121.839 104.278 122.825 104.946C125.048 106.458 119.488 116.651 115.795 117.742C114.767 118.044 112.898 117.435 110.534 116.215C114.01 114.191 118.916 107.493 116.892 103.457Z" fill="#807E75"/>
<path d="M84.2046 88.8188C85.1065 88.7117 86.1604 88.9446 87.2601 89.6464C89.5517 91.1103 95.0333 94.8925 101.757 98.2662C104.991 101.419 99.4675 104.229 89.4337 97.805C79.9802 91.7508 82.4204 89.4054 84.1957 88.8175C84.1991 88.82 84.2046 88.8188 84.2046 88.8188Z" fill="#F6F6E5"/>
<path d="M82.2725 94.294C82.6274 94.6757 82.9909 95.0213 83.379 95.3379L84.5751 96.2718C84.9755 96.5863 85.3742 96.9022 85.764 97.2282C86.1593 97.5465 86.5495 97.8717 86.9368 98.2003C88.4747 99.5252 90.0279 100.836 91.6062 102.116C94.761 104.677 97.9858 107.154 101.292 109.507C102.945 110.683 104.622 111.822 106.326 112.91C108.029 113.993 109.764 115.033 111.553 115.896C112.445 116.32 113.361 116.71 114.257 116.931C114.696 117.038 115.151 117.096 115.465 117.041C115.553 117.025 115.571 117.017 115.719 116.967L115.838 116.918L115.974 116.855C116.159 116.763 116.346 116.649 116.529 116.52C117.266 116 117.943 115.289 118.56 114.54C119.177 113.785 119.74 112.972 120.253 112.129C120.766 111.287 121.235 110.416 121.63 109.521C122.022 108.631 122.36 107.702 122.499 106.817C122.569 106.387 122.562 105.938 122.47 105.724C122.45 105.671 122.427 105.645 122.412 105.624C122.391 105.603 122.412 105.615 122.284 105.535C122.155 105.458 121.942 105.362 121.739 105.29C120.889 104.994 119.878 104.818 118.889 104.628C116.891 104.263 114.856 103.875 112.859 103.353C110.857 102.839 108.888 102.189 106.965 101.437C105.039 100.686 103.165 99.8049 101.339 98.874C99.5081 97.9427 97.7107 96.9527 95.9414 95.9181C94.1721 94.8827 92.429 93.8064 90.7136 92.6919C89.8585 92.1304 89.0313 91.5281 88.2331 90.8863C87.8369 90.5658 87.445 90.2232 87.0667 89.8933C86.6952 89.5558 86.2969 89.2647 85.8489 88.9841C86.3763 89.0003 86.9036 89.1554 87.3919 89.3646C87.873 89.5818 88.332 89.7994 88.7885 90.037C89.695 90.5118 90.574 91.0231 91.4359 91.5587C93.1543 92.6392 94.8854 93.6947 96.6445 94.6999C98.4024 95.706 100.185 96.6662 101.995 97.5661C103.808 98.4685 105.635 99.3067 107.512 100.019C109.388 100.738 111.306 101.334 113.25 101.838C115.195 102.344 117.167 102.719 119.176 103.083C120.185 103.28 121.193 103.44 122.271 103.809C122.547 103.911 122.805 104.015 123.114 104.198C123.204 104.25 123.441 104.402 123.587 104.577C123.737 104.748 123.852 104.941 123.925 105.125C124.204 105.872 124.128 106.482 124.057 107.052C123.875 108.185 123.497 109.185 123.074 110.161C122.644 111.131 122.149 112.061 121.598 112.957C121.044 113.851 120.437 114.714 119.758 115.533C119.073 116.346 118.334 117.13 117.4 117.782C117.164 117.943 116.915 118.095 116.643 118.228L116.432 118.324L116.196 118.415C116.103 118.448 115.878 118.521 115.714 118.543C115.016 118.644 114.443 118.525 113.897 118.397C112.814 118.119 111.851 117.689 110.908 117.235C109.032 116.311 107.275 115.236 105.549 114.12C103.826 113.001 102.151 111.82 100.498 110.613C97.1944 108.195 93.9852 105.661 90.8465 103.041C89.2793 101.729 87.7244 100.401 86.2077 99.0287C85.8311 98.6827 85.4612 98.3282 85.1012 97.9635C84.7352 97.6056 84.3824 97.2329 84.0363 96.8537C83.689 96.4737 83.3527 96.0937 83.0304 95.6686C82.7187 95.2427 82.4504 94.7824 82.2725 94.294Z" fill="black"/>
<path d="M95.1803 30.6923C87.2712 29.9242 77.3592 34.5212 74.5156 45.0028C71.4024 56.4794 77.0527 67.4472 89.1752 69.6567C94.6139 70.6479 99.9661 70.4524 102.692 69.7706C105.419 69.0888 106.907 71.4169 108.94 70.6802C110.011 70.2922 112.005 68.4338 111.691 67.5701C109.808 66.7063 108.083 64.3507 109.024 61.1321C110.75 64.1938 114.392 64.4263 114.96 64.0854C116.004 63.566 118.027 59.5369 117.459 58.6272C116.891 57.7176 113.597 58.1728 112.575 56.3532C113.256 49.7571 114.146 32.5341 95.1803 30.6923Z" fill="#F6F6E5"/>
<path d="M95.1817 30.6905C96.4984 30.818 97.7166 31.0178 98.8461 31.2856C94.4476 31.0603 88.6555 33.1176 84.9912 41.7421C80.7154 51.8033 84.3712 69.2987 101.288 70.0426C98.3493 70.4846 93.7975 70.4974 89.1778 69.6558C77.0553 67.4455 71.4038 56.4789 74.5161 45.0023C77.361 34.5203 87.2713 29.9254 95.1817 30.6905Z" fill="#E6E6CF"/>
<path d="M113.467 59.7447L113.58 59.7697C113.637 59.7812 113.696 59.7957 113.752 59.8105C113.851 59.8445 113.944 59.8871 114.031 59.9389C114.203 60.0439 114.345 60.1871 114.441 60.3487C114.639 60.6751 114.63 61.0496 114.515 61.3323C114.491 61.022 114.336 60.7555 114.125 60.6326C114.021 60.5697 113.908 60.5378 113.801 60.534C113.746 60.5327 113.694 60.5382 113.644 60.5472C113.625 60.5557 113.61 60.5621 113.592 60.5676L113.479 60.5956C113.246 60.6543 113.009 60.5123 112.95 60.2785C112.891 60.0443 113.033 59.8076 113.267 59.7485C113.334 59.7306 113.404 59.7311 113.467 59.7447Z" fill="black"/>
<path d="M107.038 54.5011C107.038 56.8496 106.196 58.9553 104.863 60.3823C102.715 59.4539 98.8931 58.6038 95.6364 59.0982C94.8713 57.8102 94.4199 56.2205 94.4199 54.5016C94.4199 50.2025 97.244 46.717 100.728 46.717C104.213 46.717 107.038 50.2021 107.038 54.5011Z" fill="#F6F6E5"/>
<path d="M95.002 59.2894C94.872 59.0909 94.7306 58.8567 94.6211 58.6399C94.4844 58.3679 94.3566 58.0907 94.2449 57.8068C94.0199 57.2398 93.8504 56.6494 93.7489 56.0475C93.6373 55.4494 93.5978 54.8293 93.6007 54.2316C93.6046 53.6081 93.6734 53.0053 93.794 52.4005C94.0322 51.1954 94.5188 50.0316 95.2317 49.0085C95.9561 47.9985 96.9169 47.1174 98.0829 46.5895C99.2531 46.0662 100.572 45.9158 101.807 46.2171C103.035 46.507 104.111 47.1982 104.925 48.0721C106.564 49.8357 107.245 52.2564 107.04 54.5011C106.84 52.2644 105.935 50.0903 104.33 48.6867C103.536 47.9922 102.574 47.5246 101.584 47.3979C101.339 47.3669 101.083 47.3537 100.848 47.3627C100.59 47.3729 100.353 47.3933 100.11 47.44C99.6285 47.528 99.1661 47.698 98.7372 47.931C97.877 48.3934 97.1381 49.099 96.5929 49.9432C96.0312 50.778 95.6584 51.7425 95.4397 52.7409C95.3336 53.2391 95.275 53.7594 95.2495 54.2614C95.2279 54.7893 95.2491 55.2977 95.3085 55.812C95.4355 56.8406 95.841 58.055 96.3212 59.0021C95.7098 59.0556 95.4707 59.1355 95.002 59.2894Z" fill="black"/>
<path d="M107.038 54.1356C107.038 57.3231 105.157 59.9062 102.836 59.9062C100.515 59.9062 98.6338 57.3231 98.6338 54.1356C98.6338 50.9489 100.515 48.3658 102.836 48.3658C105.157 48.3658 107.038 50.9489 107.038 54.1356Z" fill="black"/>
<path d="M104.021 52.8668C103.283 54.2283 101.881 54.8943 100.89 54.3562C99.8981 53.8172 99.6935 52.2772 100.431 50.9162C101.169 49.5552 102.571 48.8887 103.562 49.4272C104.554 49.9658 104.759 51.5058 104.021 52.8668Z" fill="#F6F6E5"/>
<path d="M93.7109 59.5959C96.6832 57.6126 102.682 58.3446 106.272 61.0858C102.865 59.6844 96.6322 59.048 93.7109 59.5959Z" fill="#BFAF90"/>
<path d="M95.5342 45.2149C97.9757 41.4956 104.557 42.0269 106.999 47.3402C103.814 43.7272 98.6126 43.7272 95.5342 45.2149Z" fill="black"/>
<path d="M115.271 64.5997C115.262 64.6045 115.256 64.6071 115.247 64.6114C115.24 64.6153 115.236 64.6191 115.229 64.6226L115.271 64.5997Z" fill="black"/>
<path d="M118.199 58.9035C118.174 58.7135 118.165 58.5141 117.965 58.2213C117.941 58.1911 117.94 58.1843 117.899 58.135C117.851 58.0806 117.799 58.0279 117.745 57.9794C117.663 57.9135 117.578 57.8519 117.501 57.809C117.181 57.6253 116.912 57.5577 116.649 57.4834C116.129 57.3503 115.652 57.2708 115.197 57.1629C114.37 56.9814 113.608 56.6936 113.234 56.1891C113.62 52.7167 113.687 49.1564 113.062 45.6518C112.742 43.8649 112.239 42.0949 111.488 40.4155C110.741 38.7369 109.732 37.1544 108.469 35.7959C107.21 34.4336 105.71 33.3008 104.084 32.4346C102.457 31.5653 100.713 30.9532 98.9399 30.5422C98.0534 30.3348 97.1579 30.1792 96.2594 30.0615L95.5851 29.9815L95.2399 29.9458L94.91 29.9178C94.4412 29.8817 93.9848 29.8642 93.5245 29.8625C91.686 29.8566 89.855 30.1116 88.0891 30.5962C84.5636 31.5764 81.2827 33.4734 78.7439 36.1249C77.4748 37.4469 76.3938 38.9499 75.5467 40.5723C74.6979 42.1927 74.0805 43.9337 73.6814 45.7015C72.8704 49.2308 72.8109 52.9773 73.7672 56.5019C74.7157 60.0108 76.8269 63.2552 79.7779 65.2722C78.589 63.9481 77.561 62.5297 76.7415 61.0071C75.9259 59.4837 75.3017 57.8731 74.8902 56.2073C74.0478 52.877 74.1187 49.3409 74.9276 45.9948C75.7051 42.6449 77.3427 39.5212 79.7392 37.0915C82.1196 34.653 85.1933 32.9166 88.4815 32.038C90.1247 31.5963 91.824 31.3545 93.5194 31.3617C93.9428 31.363 94.369 31.3796 94.7817 31.411L95.1112 31.4391L95.425 31.4718L96.0666 31.5479C96.9201 31.6597 97.7676 31.8068 98.6011 32.0019C101.931 32.7606 105.089 34.324 107.371 36.8148C108.513 38.0505 109.443 39.4795 110.152 41.0225C110.86 42.5663 111.35 44.2185 111.669 45.9081C112.302 49.2984 112.271 52.8077 111.943 56.2877L111.922 56.5061L112.021 56.666L112.027 56.6749C112.34 57.2424 112.858 57.6521 113.367 57.9071C113.881 58.1673 114.401 58.3152 114.9 58.4355C115.399 58.5528 115.892 58.6336 116.323 58.7432C116.531 58.7972 116.74 58.864 116.845 58.9294C116.875 58.9443 116.888 58.9583 116.904 58.9668C116.908 58.9787 116.911 58.9936 116.91 59.0102C116.921 59.1364 116.897 59.3443 116.851 59.5474C116.806 59.754 116.744 59.9695 116.672 60.1842C116.526 60.6152 116.342 61.0462 116.137 61.4653C115.931 61.884 115.702 62.2938 115.45 62.6746C115.324 62.8642 115.192 63.0474 115.055 63.2085C114.926 63.3645 114.758 63.5184 114.694 63.5485L114.759 63.5175L114.668 63.5634C114.659 63.5672 114.644 63.5728 114.627 63.5757C114.587 63.5855 114.535 63.5944 114.48 63.6012C114.368 63.614 114.242 63.6187 114.115 63.6166C113.859 63.6127 113.593 63.5834 113.329 63.5366C112.801 63.4431 112.283 63.271 111.792 63.047C110.813 62.5922 109.964 61.8649 109.382 60.9315L108.847 60.075L108.63 61.0177L108.63 61.0199C108.428 61.6587 108.298 62.3337 108.295 63.0232C108.289 63.7109 108.404 64.4101 108.65 65.0669C109.088 66.2409 109.926 67.2614 111.02 67.9245C111.007 67.9526 110.994 67.9823 110.974 68.0129C110.892 68.1694 110.761 68.3445 110.62 68.5107C110.332 68.8465 109.978 69.1593 109.616 69.4378C109.434 69.5767 109.247 69.706 109.062 69.8118C108.974 69.8632 108.869 69.9168 108.804 69.944C108.719 69.9814 108.632 70.0129 108.547 70.0354C108.205 70.1285 107.852 70.103 107.438 69.981C106.609 69.7514 105.636 69.1649 104.458 69.0089C103.871 68.926 103.27 68.9511 102.683 69.0913C102.183 69.2282 101.736 69.3336 101.241 69.4242C99.294 69.7744 97.2734 69.8934 95.256 69.9359C93.2358 69.9576 91.2074 69.8594 89.1757 69.6588C91.1497 70.185 93.1805 70.5195 95.2284 70.693C96.2526 70.786 97.2827 70.8353 98.3162 70.8302C99.3501 70.8311 100.387 70.7805 101.429 70.6517C101.941 70.5901 102.493 70.4983 102.981 70.3895C103.389 70.3117 103.822 70.3087 104.241 70.3869C104.663 70.4651 105.087 70.619 105.537 70.8056C105.988 70.9918 106.461 71.2226 107.025 71.3947C107.581 71.5648 108.282 71.6396 108.928 71.4564C109.088 71.413 109.242 71.3599 109.388 71.2914C109.555 71.2149 109.674 71.1473 109.805 71.0687C110.059 70.9157 110.287 70.7495 110.506 70.5744C110.943 70.2237 111.331 69.8292 111.688 69.3765C111.864 69.1449 112.033 68.9039 112.174 68.6021C112.243 68.4503 112.306 68.2867 112.343 68.0827C112.378 67.8833 112.392 67.6291 112.29 67.3545L112.289 67.3537L112.203 67.0957L111.956 66.9924C110.945 66.5673 110.078 65.7138 109.62 64.6741C109.389 64.1538 109.258 63.5859 109.229 63.0053C109.215 62.7554 109.223 62.5033 109.247 62.2517C109.411 62.4689 109.586 62.6776 109.778 62.8723C110.23 63.3224 110.752 63.702 111.315 64.0017C111.876 64.3056 112.482 64.5181 113.108 64.655C113.422 64.7221 113.74 64.7697 114.073 64.7872C114.24 64.7957 114.409 64.7969 114.591 64.7825C114.682 64.7748 114.776 64.7642 114.88 64.743C114.981 64.7196 115.085 64.6992 115.246 64.6137C115.604 64.4169 115.78 64.2095 115.971 64.0042C116.156 63.7938 116.314 63.5804 116.463 63.3641C116.761 62.9314 117.019 62.4872 117.254 62.029C117.489 61.5707 117.7 61.101 117.878 60.6046C117.966 60.3555 118.047 60.1005 118.109 59.828C118.169 59.5509 118.222 59.2682 118.199 58.9035ZM114.671 63.5604C114.676 63.5587 114.676 63.5583 114.671 63.5604ZM116.882 58.9383C116.882 58.9354 116.892 58.9481 116.903 58.9634C116.904 58.9643 116.904 58.9647 116.904 58.966C116.894 58.96 116.886 58.9498 116.882 58.9383Z" fill="black"/>
<path d="M81.8654 34.5522C81.4884 30.4971 65.5397 24.287 64.1415 39.2508C58.777 40.3713 55.9127 47.9705 57.2056 55.0894C58.642 62.9947 64.108 68.1464 59.0178 70.1773C63.4469 70.7282 67.5719 66.8041 66.045 59.4225C63.2838 46.0671 69.4156 38.6532 81.8654 34.5522Z" fill="#6B6B6B"/>
<path d="M70.9134 31.6333C69.8502 31.785 66.6206 33.101 66.5 37.2318C67.5683 35.0984 69.0243 33.8402 71.786 33.1316C73.3812 32.7223 72.7914 31.3651 70.9134 31.6333Z" fill="#858585"/>
<path d="M60.3555 68.2952C60.7279 67.0574 60.0578 65.1872 59.0473 62.7609C58.1832 60.687 57.1081 58.1061 56.5812 55.2029C55.3435 48.3922 57.8592 40.3096 63.5562 38.7369C63.9723 35.1405 65.2584 32.4936 67.3836 30.8652C69.3589 29.3516 72.0598 28.7982 74.9874 29.304C78.8611 29.9743 82.3017 32.3504 82.5009 34.4927L82.5476 34.9989L82.0656 35.1575C69.0442 39.4464 64.1519 47.1153 66.6702 59.2924C67.4757 63.1894 66.8248 66.5235 64.8364 68.6816C63.3337 70.3121 60.9496 70.9412 58.19 70.2853C58.19 70.2853 59.9568 69.6205 60.3555 68.2952ZM74.7709 30.5609C72.1965 30.1154 69.8476 30.5834 68.1577 31.879C66.238 33.3493 65.1009 35.8495 64.7769 39.3099L64.7337 39.7783L64.2733 39.8748C59.4783 40.8767 56.5294 47.7924 57.8338 54.9751C58.337 57.7435 59.3386 60.1489 60.223 62.2704C61.3478 64.9721 62.2374 67.1059 61.5296 68.7904C61.4332 69.0199 61.3104 69.2342 61.1597 69.4335C62.2034 69.1814 63.1515 68.6301 63.901 67.8178C65.6028 65.9701 66.1437 63.0351 65.4232 59.5517C64.0356 52.8409 64.7888 47.4779 67.7263 43.1584C70.3707 39.2691 74.748 36.3149 81.0967 34.139C80.4755 32.7997 77.8743 31.0977 74.7709 30.5609Z" fill="black"/>
<path d="M81.8676 34.5522C79.3679 33.8283 68.4267 33.9546 63.5212 44.1037C58.3265 54.8518 64.0719 62.6406 62.672 66.495C61.2347 70.4528 54.7739 71.0598 53.5998 66.0049C52.6997 70.5935 56.6969 73.7155 64.1416 71.7105C68.7736 70.4626 73.22 65.3006 72.4048 55.67C71.5895 46.0382 73.1551 38.2213 81.8676 34.5522Z" fill="#6B6B6B"/>
<path d="M64.5061 63.0959C62.5037 55.6781 62.7534 50.1889 64.9286 45.4006C66.3744 42.219 68.6219 43.2902 67.0975 47.5089C66.1048 50.2582 64.079 56.3493 64.5061 63.0959Z" fill="#858585"/>
<path d="M58.0291 72.814L58.0278 72.8136C56.1235 72.4846 54.6454 71.6251 53.7545 70.3291C52.9143 69.1066 52.7033 66.9265 53.6047 65.0337C53.6047 65.0337 54.3944 68.1541 57.2813 68.9307C59.0171 69.3978 61.3291 68.3283 62.0743 66.2774C62.5057 65.0894 62.1316 63.3394 61.6586 61.1248C60.744 56.8436 59.491 50.9799 62.9494 43.8258C67.7623 33.8666 78.1856 33.2422 81.4571 33.8084C81.6767 33.8458 81.8745 33.8904 82.0456 33.9401L83.7751 34.4413L82.1153 35.1409C74.8002 38.2213 72.0861 44.3447 73.0402 55.6165C73.917 65.9782 68.8837 71.0934 64.3077 72.326C61.9452 72.9615 59.8328 73.1268 58.0291 72.814ZM54.3902 68.8176C54.4972 69.0969 54.6356 69.3604 54.8042 69.6061C55.4959 70.6126 56.686 71.2876 58.2452 71.5571H58.2465C59.8668 71.8381 61.7945 71.6821 63.9774 71.0942C68.0791 69.9891 72.5816 65.3011 71.7714 55.7228C71.1485 48.3628 71.549 39.5237 79.6492 34.9309C75.6617 34.8663 67.9538 36.3995 64.0959 44.3809C60.8285 51.1406 62.028 56.7565 62.9044 60.8575C63.4203 63.2731 63.8279 65.1812 63.2717 66.7127C62.3855 69.1521 59.7177 70.6466 57.0644 70.1876C56.0007 70.0035 55.0925 69.5304 54.3902 68.8176Z" fill="black"/>
<path d="M81.8497 34.528C79.3051 34.0872 72.657 37.0958 70.796 45.4079C68.2314 56.8607 74.35 61.2005 70.1294 66.1108C67.479 69.1942 60.2938 70.934 60.2696 77.6822C60.2539 82.377 66.2094 84.6745 62.5382 89.0169C65.3759 87.7808 65.7334 85.0409 64.2876 82.1726C63.1977 80.009 63.7938 76.6281 68.4759 74.6826C74.3618 72.2368 81.6893 68.5864 79.1922 58.186C76.4191 46.6363 77.8631 38.8296 81.8497 34.528Z" fill="#6B6B6B"/>
<path d="M72.2258 52.1748C72.278 54.632 72.8525 56.4407 73.5123 59.8429C74.1356 63.0546 73.4474 66.3879 69.9134 68.6896C66.5959 70.8494 64.171 72.2023 63.5303 74.0921C64.6937 72.4285 68.7979 70.7295 71.4241 69.2027C74.7522 67.2687 76.1614 64.9262 75.9869 61.4305C75.7287 56.2477 74.9798 54.0348 74.7101 51.8675C74.1641 47.4774 72.1489 48.532 72.2258 52.1748Z" fill="#858585"/>
<path d="M61.6345 82.8735C60.6931 81.4244 59.6256 79.7829 59.6328 77.6797C59.6507 72.6682 63.3817 70.208 66.3798 68.231C67.6694 67.3805 68.888 66.5767 69.6468 65.6947C71.5737 63.4529 71.1219 61.3803 70.4387 58.2429C69.7423 55.0461 68.8757 51.0679 70.1741 45.268C72.0445 36.9155 78.6527 33.4649 81.8262 33.8798C81.8712 33.8857 81.9149 33.8921 81.9583 33.8997L83.1149 34.1008L82.3166 34.9615C78.1364 39.4719 77.2698 47.4511 79.811 58.0372C82.568 69.5168 73.5595 73.2599 68.7203 75.2704C66.6368 76.1367 65.2487 77.3698 64.7048 78.8375C64.3269 79.8585 64.3804 80.9407 64.8564 81.8848C65.7841 83.7261 65.9998 85.46 65.481 86.9009C65.053 88.0881 63.4178 89.2392 61.6816 89.691C63.6705 87.0212 63.2064 85.2929 61.6345 82.8735ZM80.4526 35.2191C77.7207 35.7649 72.9468 38.7165 71.4174 45.5472C70.1801 51.0722 71.0136 54.8977 71.6832 57.9722C72.3927 61.2303 72.9532 63.8036 70.6119 66.5269C69.7372 67.5445 68.4468 68.3951 67.0805 69.2966C64.1936 71.2005 60.922 73.3577 60.9067 77.6848C60.9007 79.4067 61.8166 80.8153 62.7023 82.1781C63.5154 83.4299 64.3452 84.7059 64.3791 86.1452C64.6305 85.1067 64.4012 83.8141 63.7189 82.4599C63.0909 81.214 63.0149 79.7323 63.5108 78.3946C63.9779 77.133 65.1757 75.3639 68.232 74.0939C74.4461 71.512 80.8823 67.9522 78.5729 58.3356C75.565 45.807 77.7139 38.9291 80.4526 35.2191Z" fill="black"/>
<path d="M86.165 32.0669C86.7565 29.6742 91.2815 21.1985 102.192 24.4647C112.286 27.486 110.455 38.7488 115.754 40.4393C120.079 41.8186 121.092 35.3033 117.753 33.8793C123.008 34.5233 123.228 40.1664 121.516 43.0181C119.385 46.5703 112.761 48.8397 108.67 42.5535C103.452 34.5365 94.5608 29.5212 86.165 32.0669Z" fill="#6B6B6B"/>
<path d="M114.591 47.1212C112.809 46.9826 110.244 46.1381 108.138 42.9016C104.037 36.6014 97.9529 32.557 91.8632 32.0843C89.9835 31.9385 88.1288 32.1378 86.3514 32.6772L85.2793 33.0024L85.548 31.9143C86.0499 29.8838 89.7402 22.4431 98.6263 23.1329C99.8276 23.226 101.089 23.4683 102.376 23.8538C108.533 25.6969 110.476 30.4907 112.038 34.3426C113.098 36.9568 114.013 39.2142 115.949 39.8319C116.209 39.9147 116.461 39.9662 116.697 39.9845C118.376 40.1149 118.883 38.5852 118.998 38.1133C119.399 36.4713 118.976 34.8812 116.711 33.4989C120.217 33.4207 121.852 35.1184 122.451 36.3485C123.626 38.7573 123.073 41.6647 122.064 43.3471C120.594 45.7963 117.521 47.3486 114.591 47.1212ZM91.9617 30.8134C98.4433 31.3166 104.889 35.5749 109.205 42.2062C110.648 44.4234 112.544 45.6837 114.69 45.8499C117.441 46.0632 119.933 44.4221 120.972 42.6895C121.837 41.249 122.229 38.8002 121.307 36.9074C120.991 36.2592 120.552 35.7368 119.996 35.3441C120.408 36.323 120.471 37.4511 120.235 38.4164C119.78 40.2777 118.353 41.3923 116.599 41.2562C116.265 41.2299 115.916 41.1597 115.563 41.0471C113.057 40.248 111.989 37.613 110.858 34.8225C109.323 31.0357 107.583 26.7438 102.012 25.0755C100.811 24.7163 99.6395 24.4902 98.5283 24.4043C91.7142 23.8751 88.3084 28.6141 87.1751 31.1441C88.7352 30.7989 90.3406 30.6871 91.9617 30.8134Z" fill="black"/>
<path d="M78.7066 36.2839C77.2039 33.1023 75.3659 23.439 84.6758 21.0795C93.6897 18.7948 100.923 25.7513 100.772 33.2005C94.2527 29.3903 83.2524 31.201 78.7066 36.2839Z" fill="#6B6B6B"/>
<path d="M81.315 26.051C82.0287 22.8026 90.0508 19.7911 96.1142 25.8784C92.2919 24.457 89.1044 24.3435 85.6052 26.0539C82.8143 27.4184 81.1001 27.0294 81.315 26.051Z" fill="#858585"/>
<path d="M78.5414 37.4247L78.1313 36.5563C77.0303 34.2253 76.0418 29.3783 77.8311 25.5792C79.0455 23.0003 81.2963 21.2784 84.5195 20.4614C86.0897 20.0632 87.6624 19.9216 89.1957 20.041C96.0667 20.5745 101.545 26.4837 101.409 33.2132L101.387 34.2984L100.451 33.7509C98.6639 32.707 96.4038 32.0528 93.9148 31.8594C88.1915 31.4152 82.1328 33.4096 79.1814 36.7094L78.5414 37.4247ZM89.0976 21.3124C87.7032 21.204 86.268 21.3337 84.8328 21.6971C81.996 22.4163 80.0284 23.9048 78.9839 26.1232C77.5767 29.1106 78.1037 32.8528 78.9291 35.1498C82.3111 31.9997 88.3346 30.1464 94.0137 30.5876C96.259 30.7619 98.3412 31.2907 100.106 32.1285C99.6737 26.5139 94.9427 21.7664 89.0976 21.3124Z" fill="black"/>
<path d="M81.7051 34.3065C84.6132 32.4583 92.735 30.2897 98.3148 35.6892C103.664 40.8664 105.542 47.8825 111.776 48.5681C117.161 49.1606 119.501 44.638 118.726 42.0269C118.418 43.39 117.02 45.1022 114.32 44.1666C110.914 42.9862 110.789 38.3786 105.731 33.1223C100.678 27.8698 90.1034 23.819 81.7051 34.3065Z" fill="#6B6B6B"/>
<path d="M98.8052 30.5192C101.667 31.4552 104.697 34.1675 106.454 36.6881C108.971 40.2999 109.244 43.1699 112.207 44.9232C108.693 44.1964 108.139 42.4162 106.008 39.1582C104.458 36.7884 103.167 34.5331 98.5556 32.5574C94.5761 30.8516 94.3766 29.071 98.8052 30.5192Z" fill="#858585"/>
<path d="M112.083 49.2359C111.959 49.2274 111.833 49.2159 111.706 49.2019C107.374 48.7254 104.996 45.3759 102.479 41.8296C101.115 39.9079 99.7053 37.9221 97.8718 36.1479C95.8868 34.2266 93.4063 33.1491 90.4986 32.9446C86.8079 32.6849 83.6008 33.6961 80.708 35.0482C84.8301 28.3752 91.2871 26.9122 94.8432 27.1625C98.899 27.4482 103.141 29.5105 106.19 32.6794C108.619 35.2038 109.937 37.5816 110.995 39.4914C112.129 41.5381 112.949 43.0164 114.527 43.5635C114.893 43.6901 115.243 43.7662 115.567 43.7887C117.355 43.9146 118.551 42.8868 118.68 41.0675C119.458 42.7176 119.322 45.3224 118.141 46.796C116.738 48.546 114.587 49.4123 112.083 49.2359ZM90.5877 31.6724C93.8024 31.8985 96.5509 33.0959 98.7567 35.2302C100.675 37.0864 102.12 39.122 103.517 41.0909C105.966 44.5402 108.081 47.5199 111.844 47.9339C111.955 47.9463 112.065 47.9565 112.172 47.9637C114.247 48.1099 116.014 47.4115 117.147 45.9978C117.563 45.4792 117.87 44.8807 118.05 44.2763C117.402 44.8063 116.537 45.1353 115.477 45.061C115.041 45.0303 114.581 44.9317 114.11 44.7685C112.071 44.0621 111.104 42.318 109.881 40.1103C108.858 38.2651 107.585 35.9685 105.271 33.5643C102.435 30.6157 98.5032 28.6983 94.7531 28.4343C90.9605 28.1674 87.382 29.5514 84.2692 32.4609C86.1018 31.8743 88.3297 31.513 90.5877 31.6724Z" fill="black"/>
<path d="M86.6754 43.6276C87.4703 37.2594 83.1541 27.9357 75.6573 28.504C73.158 36.6915 76.0458 43.4049 77.9289 46.0152C80.8817 50.109 85.9273 49.6172 86.6754 43.6276Z" fill="#F6F6E5"/>
<path d="M86.8708 38.2545C86.7018 37.3597 86.4394 36.4828 86.1133 35.6285C85.7859 34.7749 85.3966 33.9397 84.9172 33.1512C83.9716 31.5734 82.7046 30.1278 81.0826 29.1216C79.4746 28.104 77.4832 27.645 75.6082 27.8686L75.1479 27.9238L75.0472 28.3183C74.4439 30.135 74.08 32.0443 73.9985 33.9677C73.9161 35.8911 74.1021 37.8269 74.5538 39.695C74.7738 40.6306 75.0706 41.5466 75.4234 42.4388C75.7792 43.3301 76.1886 44.2011 76.6943 45.0219C77.1919 45.8393 77.7927 46.6316 78.5464 47.2619C79.2933 47.8855 80.188 48.362 81.1302 48.4878C80.2882 48.0602 79.5952 47.4634 79.0224 46.7795C78.4441 46.1011 78.0034 45.3249 77.5919 44.5199C76.7775 42.9093 76.1941 41.1776 75.8315 39.4098C75.4693 37.6403 75.3309 35.8299 75.4094 34.0302C75.4493 33.13 75.5445 32.2327 75.6837 31.3405C75.8022 30.6017 75.969 29.8714 76.1533 29.1437C76.8161 29.1573 77.4705 29.2373 78.101 29.4111C78.8725 29.627 79.6105 29.9569 80.2928 30.3892C81.6609 31.2542 82.8018 32.5 83.7079 33.9044C84.1559 34.6113 84.5614 35.3526 84.9007 36.1275C85.2403 36.9024 85.5184 37.7061 85.7596 38.5227C86.2382 40.1609 86.5477 41.8458 86.6738 43.6294C87.2241 41.9117 87.2054 40.0351 86.8708 38.2545Z" fill="black"/>
<path d="M84.18 42.9284C84.6828 38.8113 82.4396 32.7657 77.7023 32.4749C76.8199 38.1592 78.2521 42.0145 79.4423 43.7025C81.3085 46.3493 83.707 46.8007 84.18 42.9284Z" fill="#E6E6CF"/>
<path d="M79.4426 43.7025C80.0184 44.3575 80.6744 44.9657 81.4217 45.3028C81.792 45.4673 82.1902 45.5264 82.5133 45.4286C82.8377 45.3326 83.0865 45.0707 83.2611 44.7387C83.6105 44.0663 83.7231 43.2102 83.7481 42.386C83.78 41.5555 83.7069 40.7156 83.5481 39.8952C83.2538 38.2481 82.6076 36.6681 81.6726 35.3288C80.7419 33.9864 79.4388 32.9166 77.7021 32.4753C78.5853 32.3457 79.5313 32.517 80.3716 32.9221C81.2119 33.331 81.9525 33.9473 82.5342 34.6733C83.1201 35.3981 83.5693 36.2184 83.9018 37.0732C84.236 37.9276 84.4793 38.813 84.6173 39.7154C84.7476 40.6182 84.7884 41.5351 84.7064 42.4502C84.6589 42.9178 84.5837 43.3539 84.464 43.8121C84.3408 44.261 84.1829 44.7171 83.9006 45.1324C83.6301 45.5421 83.1919 45.9315 82.6496 46.0254C82.1104 46.1257 81.6115 45.9353 81.2166 45.6977C80.4166 45.1991 79.8783 44.4599 79.4426 43.7025Z" fill="black"/>
</svg>
