<svg width="133" height="137" viewBox="0 0 133 137" fill="none" xmlns="http://www.w3.org/2000/svg">
<path d="M17.5622 91.9675C16.8802 90.0583 17.2993 87.3239 19.9157 87.995C22.5313 88.6647 28.9122 95.3213 35.0996 89.6512C41.2862 83.9827 35.9785 78.3154 38.1886 74.5115C40.0796 71.2574 43.6648 71.8408 47.6542 74.0063C46.1686 69.1336 40.46 61.5899 33.356 62.4487C27.549 63.1505 22.3859 69.3895 25.2319 76.8708C27.3781 82.5125 26.3428 86.168 21.8906 84.8455C16.2633 83.1734 13.7369 87.4164 17.5622 91.9675Z" fill="#6B6B6B"/>
<path d="M33.2825 61.845C31.3538 62.0781 29.4984 62.8736 27.9173 64.1455C24.8898 66.5798 22.446 71.259 24.6634 77.0877C25.9558 80.4861 26.0404 83.1746 24.8837 84.1051C24.1365 84.7056 22.9372 84.5223 22.0624 84.2632C19.7615 83.5797 17.7794 83.7783 16.4805 84.824C15.7074 85.4451 15.2456 86.3193 15.1456 87.3507C14.9395 89.4639 16.8078 91.8378 17.9483 92.8283C17.4996 89.8949 17.9252 89.2924 18.4303 88.7276C18.6895 88.4369 19.1824 88.4353 19.7644 88.5841C20.295 88.7195 21.0952 89.1951 22.0223 89.7453C25.0283 91.5276 30.0602 94.5137 34.9503 90.5809C35.1366 90.4313 35.3229 90.2711 35.5088 90.1008C39.5464 86.4012 38.9644 82.6033 38.4966 79.5528C38.2127 77.7011 37.9676 76.1008 38.7133 74.8176C39.0012 74.3217 39.3406 73.9151 39.7213 73.6085C41.3053 72.3342 43.8764 72.648 47.3639 74.5419L48.6672 75.2494L48.2343 73.8295C46.8196 69.1908 40.9817 60.9137 33.2825 61.845ZM38.9595 72.6602C38.4618 73.0612 38.0256 73.581 37.6623 74.2058C36.7012 75.8612 36.9899 77.7437 37.2953 79.7373C37.7627 82.7882 38.2463 85.943 34.6879 89.204C30.304 93.2345 25.8497 90.602 22.6412 88.6988C21.5922 88.0764 20.7636 87.5851 20.0649 87.4058C18.8535 87.0953 18.0933 87.4379 17.6684 87.7797C17.1395 88.2054 16.845 88.8286 16.7252 89.5166C16.4214 88.7965 16.2926 88.102 16.3542 87.4695C16.4222 86.7705 16.7292 86.1838 17.2408 85.7723C18.2059 84.9963 19.8373 84.871 21.7165 85.4293C22.6302 85.7009 23.4338 85.7804 24.1304 85.6815C25.6788 85.8043 27.215 85.3373 28.3737 84.3646C29.5025 83.4082 30.7912 81.5318 30.5231 78.023C30.0484 71.8088 31.0808 69.0384 34.4651 67.4369C37.2297 66.1285 41.9165 67.5419 46.0505 72.556C42.9886 71.2594 40.6565 71.2955 38.9595 72.6602ZM45.4919 70.7193C41.3843 66.478 36.9012 65.3853 34.1192 66.7022C29.884 68.7075 29.2927 72.5438 29.7155 78.0838C29.9577 81.2512 28.835 82.9099 27.8504 83.7447C27.3219 84.1927 26.6852 84.5089 26.0052 84.6967C27.2693 83.2367 27.2065 80.3556 25.7982 76.6547C23.8129 71.4354 25.9837 67.2601 28.6779 65.093C30.0821 63.9638 31.7248 63.2587 33.4279 63.052C38.759 62.4077 43.1348 66.7265 45.4919 70.7193Z" fill="black"/>
<path d="M39.4563 68.3783C37.2279 67.4348 34.1392 67.5698 32.3005 70.7461C29.5573 75.4829 34.4467 80.9593 28.4707 85.2752C29.9879 85.0084 32.8185 82.9999 32.906 79.4766C33.0186 74.9056 32.9651 71.54 36.3733 70.5353C37.7657 70.125 39.8386 70.7408 40.7312 70.1262C41.4266 69.6482 41.0747 69.0627 39.4563 68.3783Z" fill="#858585"/>
<path d="M78.4433 88.8127C77.3053 99.1171 77.4818 121.374 81.0322 123.914C83.9981 126.037 94.3907 124.359 94.2477 121.839C94.1116 119.445 89.8266 116.031 87.5662 105.713C85.8814 98.0184 85.5242 90.8165 85.2848 88.0335C84.8628 83.1284 79.08 83.0489 78.4433 88.8127Z" fill="#CCCAB8"/>
<path d="M92.0582 117.018C93.2611 119.275 94.1865 120.745 94.2493 121.839C94.3935 124.357 83.9985 126.035 81.0334 123.912C80.1776 123.3 79.5194 121.494 79.0273 118.959C82.3428 120.369 89.6613 120.314 92.0582 117.018Z" fill="#807E75"/>
<path d="M79.0855 86.522C78.9527 86.9923 78.8712 87.4541 78.819 87.9183C78.7749 88.3858 78.7668 88.8379 78.7672 89.3224L78.7429 90.7504L78.702 92.1767C78.6311 94.0766 78.5294 95.9757 78.497 97.8785C78.4193 101.683 78.4598 105.493 78.6485 109.289C78.7437 111.187 78.881 112.676 79.0762 114.558C79.2714 116.438 79.5213 117.911 79.9348 119.721C80.1454 120.621 80.3969 121.517 80.7586 122.296C80.9368 122.678 81.1596 123.04 81.3811 123.236C81.4414 123.291 81.4621 123.302 81.5836 123.383L81.6869 123.442L81.8116 123.507C81.9854 123.592 82.1757 123.666 82.3746 123.729C83.1761 123.982 84.0858 124.081 84.9914 124.112C85.9006 124.139 86.8225 124.092 87.737 123.988C88.6519 123.887 89.5619 123.728 90.4432 123.5C91.3148 123.27 92.1945 122.973 92.8774 122.544C93.2135 122.342 93.4752 122.053 93.4893 121.937C93.4962 121.922 93.493 121.912 93.4979 121.901C93.4966 121.895 93.4962 121.891 93.4966 121.885L93.4983 121.882C93.4983 121.879 93.5003 121.908 93.4983 121.884L93.495 121.839C93.4902 121.766 93.4849 121.758 93.4804 121.717L93.4553 121.586C93.4173 121.406 93.3525 121.211 93.2767 121.013C92.9608 120.212 92.4865 119.376 92.0374 118.54C91.1188 116.862 90.2266 115.534 89.4745 113.745C88.7195 111.956 88.0917 110.519 87.5774 108.65C87.061 106.777 86.6783 104.883 86.3409 102.992C86.0051 101.097 85.7313 99.1942 85.5049 97.2865C85.2874 95.3789 85.0777 93.4697 84.9886 91.554C84.9416 90.5971 84.9424 89.6366 84.9517 88.6806C84.9606 88.1936 84.9837 87.7383 84.9404 87.2818C84.8946 86.824 84.801 86.3626 84.6277 85.9077C84.9574 86.2653 85.2101 86.7085 85.379 87.18C85.4632 87.4148 85.5394 87.6597 85.5859 87.9062L85.718 88.6214C85.8739 89.5697 86.0128 90.5152 86.1222 91.4615C86.3437 93.3533 86.509 95.2467 86.7637 97.13C87.0096 99.0133 87.3016 100.889 87.6535 102.752C88.0091 104.618 88.4048 106.467 88.9257 108.271C89.9548 111.901 91.4793 114.518 93.3419 117.828C93.7959 118.672 94.2787 119.495 94.6724 120.471C94.768 120.718 94.8567 120.976 94.9203 121.264C94.9373 121.334 94.9498 121.409 94.9624 121.484C94.9741 121.561 94.9879 121.671 94.9907 121.717L94.9944 121.761L94.9976 121.809L94.998 121.849L94.9952 122.013C94.9838 122.12 94.9697 122.23 94.9401 122.329C94.8287 122.742 94.6003 123.03 94.3824 123.263C94.1592 123.49 93.9251 123.663 93.6911 123.815C92.7514 124.403 91.7924 124.707 90.8276 124.972C89.8625 125.225 88.8884 125.399 87.9071 125.511C86.9253 125.619 85.9371 125.664 84.9395 125.629C83.9416 125.587 82.9347 125.483 81.9133 125.159C81.6585 125.075 81.4026 124.977 81.1478 124.85L80.9558 124.749L80.7509 124.626C80.6744 124.575 80.4937 124.455 80.3807 124.346C79.8971 123.892 79.642 123.402 79.4127 122.925C78.9766 121.967 78.7234 121.008 78.5015 120.049C77.6785 116.216 77.4399 113.186 77.2775 109.349C77.135 105.511 77.1414 101.677 77.2682 97.8436C77.3419 95.9279 77.4088 94.0105 77.6007 92.0989L77.7781 90.6685C77.8539 90.1929 77.9292 89.7177 78.0195 89.2437C78.186 88.2999 78.4897 87.2927 79.0855 86.522Z" fill="black"/>
<path d="M47.1913 84.2243C46.7519 89.1136 50.4468 94.4991 48.2472 95.0392C46.0472 95.5792 45.1715 95.5816 44.7697 96.8016C42.2332 104.504 41.4539 113.267 42.7969 122.933C43.3125 126.644 55.2908 125.255 56.1972 124.06C57.1036 122.866 54.6626 120.573 53.2357 114.795C52.2021 110.611 51.4776 103.312 53.2349 100.175C54.9922 97.0388 60.193 95.0225 62.1257 89.2425C64.0078 83.6182 61.6519 77.884 56.3336 76.6543C52.2532 75.7108 47.7357 78.173 47.1913 84.2243Z" fill="#CCCAB8"/>
<path d="M54.3767 118.047C55.6407 121.38 56.8857 123.153 56.198 124.058C55.2924 125.256 43.3134 126.644 42.7966 122.934C42.6216 121.674 42.4835 120.42 42.3818 119.168C45.8151 120.444 51.8417 120.647 54.3767 118.047Z" fill="#807E75"/>
<path d="M48.6517 79.7162C48.2119 80.7647 47.9438 81.8273 47.8194 82.9022C47.753 83.4386 47.7174 83.9746 47.7206 84.5154C47.7158 85.0295 47.7563 85.5684 47.832 86.093C47.9729 87.15 48.2176 88.2066 48.5084 89.2664C48.7988 90.3303 49.1568 91.3784 49.4403 92.5177C49.5087 92.8056 49.5723 93.0991 49.6128 93.4162C49.6509 93.7344 49.6809 94.0726 49.5995 94.4857C49.5573 94.6897 49.4759 94.9224 49.318 95.1381C49.1628 95.3538 48.9328 95.531 48.7105 95.625C48.6031 95.6725 48.4808 95.7098 48.3933 95.7313L48.1892 95.7819L47.7749 95.8817C47.2309 96.0126 46.672 96.1278 46.2294 96.2843C46.0094 96.3625 45.8406 96.4517 45.7373 96.5466C45.6332 96.639 45.557 96.7631 45.4849 96.9553C45.1528 97.9636 44.8479 99.0413 44.583 100.108C44.3173 101.178 44.0877 102.258 43.8908 103.344C43.1136 107.693 42.8337 111.322 42.9755 115.744C43.0504 117.956 43.2359 120.164 43.5267 122.358L43.5818 122.77C43.6004 122.903 43.6081 122.929 43.6361 123.008C43.6859 123.142 43.7738 123.272 43.9058 123.4C44.1719 123.656 44.5992 123.871 45.0629 124.025C46.0017 124.337 47.0774 124.458 48.1451 124.512C49.2183 124.563 50.3082 124.531 51.3896 124.438C52.4686 124.342 53.5572 124.191 54.5702 123.934C55.8387 123.492 55.7435 123.825 55.4365 122.607C55.0894 121.638 54.5852 120.598 54.1611 119.551C53.2867 117.448 52.5905 115.648 52.1753 113.392C51.7647 111.144 51.5273 109.287 51.4832 107.002C51.4649 105.859 51.4965 104.711 51.6302 103.557C51.7732 102.406 51.9797 101.236 52.5342 100.099C53.119 98.9602 53.9785 98.1218 54.8144 97.3465C55.6601 96.5754 56.5207 95.8687 57.3299 95.1243C58.9577 93.6513 60.3489 91.9837 61.2642 90.0356C62.1848 88.0854 62.6821 85.9337 62.6295 83.6733C63.2978 85.8445 63.0625 88.2921 62.2241 90.4499C61.8118 91.5438 61.1998 92.5558 60.5072 93.4879C59.8017 94.4136 58.9986 95.2496 58.1683 96.0288C57.3388 96.8101 56.4778 97.5351 55.6791 98.2823C54.8869 99.0271 54.1396 99.8108 53.7115 100.683C53.2875 101.569 53.0907 102.642 52.9769 103.706C52.8655 104.78 52.8477 105.875 52.878 106.971C52.9473 109.162 53.2049 110.96 53.6257 113.113C54.0384 115.26 54.7079 116.94 55.5653 118.966C55.9869 119.991 56.475 120.964 56.8941 122.101C56.9946 122.391 57.091 122.695 57.1432 123.064C57.1886 123.423 57.204 123.902 56.9083 124.395C56.8443 124.496 56.8799 124.442 56.8054 124.545C56.7422 124.626 56.6839 124.681 56.6292 124.73C56.5199 124.824 56.428 124.882 56.3397 124.934C56.1647 125.035 56.008 125.103 55.8549 125.165C55.5495 125.285 55.2591 125.371 54.9691 125.45C53.8148 125.749 52.68 125.91 51.5326 126.02C50.3864 126.126 49.2353 126.168 48.0734 126.12C46.9118 126.064 45.7397 125.939 44.5502 125.548C43.9601 125.343 43.3461 125.074 42.7965 124.556C42.5259 124.297 42.2805 123.959 42.1367 123.567C42.0642 123.385 42.014 123.134 41.9978 122.99L41.9427 122.569C41.6491 120.323 41.4636 118.062 41.3915 115.798C41.2489 111.27 41.5478 107.53 42.402 103.068C42.6146 101.953 42.8617 100.844 43.1456 99.7435C43.4323 98.6399 43.7446 97.5635 44.1253 96.4493C44.2472 96.1189 44.4598 95.7426 44.7806 95.4665C45.0977 95.1884 45.4469 95.0371 45.7514 94.9305C46.3683 94.7237 46.9114 94.6268 47.4545 94.4983L47.8567 94.4059L48.0604 94.3576C48.1086 94.345 48.12 94.341 48.141 94.3333C48.1767 94.3183 48.1726 94.315 48.1839 94.3057C48.1933 94.2968 48.2131 94.2611 48.2281 94.1918C48.2601 94.0547 48.2581 93.8253 48.2285 93.5893C48.2009 93.3513 48.1495 93.0959 48.0908 92.8384C47.5825 90.7524 46.7295 88.5618 46.585 86.2134C46.5558 85.6239 46.5594 85.0405 46.6247 84.436C46.7073 83.8606 46.815 83.2833 46.9863 82.725C47.3229 81.61 47.8689 80.5457 48.6517 79.7162Z" fill="black"/>
<path d="M71.2647 58.0476C72.0265 63.1643 73.9179 68.5786 69.7957 70.1586C65.6735 71.7382 58.2087 65.0204 48.2329 68.819C39.3019 72.2199 38.8471 84.2827 44.1953 90.0177C51.5568 97.9117 80.4281 96.1858 86.5365 89.2806C92.5343 82.5012 90.073 73.3004 87.692 65.6578C86.6239 62.2293 84.7107 56.4651 81.4499 53.7539C76.4334 49.5835 70.5186 53.0395 71.2647 58.0476Z" fill="#E6E6CF"/>
<path d="M66.1382 70.0893C69.4812 72.7502 60.4125 77.8162 51.6019 75.324C45.3177 73.5465 46.6429 69.6267 49.7927 68.3061C56.5896 66.3847 62.1338 69.1324 66.1382 70.0893Z" fill="#F6F6E5"/>
<path d="M60.9945 95.7884C60.9945 95.7884 60.9946 95.7884 60.9937 95.7884C56.2267 95.5816 47.649 94.6118 43.7516 90.4325C40.669 87.1265 39.3953 81.8898 40.5082 77.0913C41.49 72.8605 44.1566 69.7207 48.0176 68.2502C50.4367 67.329 52.8712 66.9357 55.4604 67.0476C58.5612 67.1818 61.2602 68.0122 63.6413 68.7444C65.3719 69.2768 66.8672 69.7365 68.1041 69.7901C68.6809 69.8148 69.1624 69.7491 69.5788 69.5902C72.3365 68.5336 71.9987 65.5442 71.1142 60.7474C70.9566 59.8927 70.7938 59.0089 70.6642 58.1372C70.3953 56.3277 70.8959 54.6102 72.0737 53.2998C73.2968 51.9399 75.0971 51.2081 77.012 51.2908C78.6867 51.3634 80.3557 52.0531 81.8381 53.2856C85.3961 56.2437 87.4118 62.7138 88.2725 65.4765C90.9265 73.9933 93.0124 82.8778 86.9919 89.6836C82.9907 94.2068 70.6111 96.2052 60.9945 95.7884ZM55.4082 68.2632C52.9875 68.1585 50.7109 68.5259 48.4493 69.3875C44.9792 70.7092 42.5791 73.5425 41.6917 77.3662C40.684 81.7134 41.8691 86.6306 44.6398 89.6025C47.2707 92.424 53.2511 94.236 61.046 94.5737C71.846 95.0412 82.8429 92.5396 86.0822 88.8776C91.6835 82.5458 89.6625 74.0241 87.113 65.839C86.2839 63.1789 84.3435 56.95 81.0621 54.2222C79.7855 53.1611 78.3671 52.5676 76.9597 52.5067C75.4077 52.4398 73.9561 53.0257 72.9768 54.1143C72.0457 55.1498 71.6512 56.515 71.8663 57.9584C71.993 58.8098 72.1534 59.6827 72.3094 60.5277C73.0979 64.8071 73.9136 69.2322 70.0138 70.7266C69.4386 70.9468 68.7971 71.038 68.0519 71.0056C66.6586 70.9456 65.0949 70.4647 63.2845 69.9076C60.9731 69.1965 58.3522 68.3905 55.4082 68.2632Z" fill="black"/>
<path d="M42.5725 84.4197C41.3489 89.3463 44.2938 95.4353 41.9492 95.6388C39.6045 95.8428 38.7038 95.7065 38.0987 96.8896C34.2762 104.359 31.964 113.21 31.8166 123.301C31.7603 127.175 44.2837 127.652 45.4035 126.574C46.5238 125.497 44.4416 122.354 43.8888 116.222C43.4894 111.782 43.9609 104.606 46.2609 101.678C48.5614 98.7506 54.2222 97.5132 57.1213 91.9132C59.9426 86.4628 58.4283 80.2299 53.1599 78.1309C49.1167 76.52 44.0884 78.3214 42.5725 84.4197Z" fill="#E6E6CF"/>
<path d="M54.997 84.2628C55.3927 91.0086 45.559 100.177 42.8875 93.9554C42.8653 91.7615 41.7292 87.8161 42.5732 84.4181C43.5121 80.6446 45.7967 78.5148 48.3613 77.826C48.3657 77.8264 48.3698 77.8268 48.3698 77.8268C51.3417 77.4874 54.6681 78.6365 54.997 84.2628Z" fill="#F6F6E5"/>
<path d="M44.5413 120.402C45.3023 123.842 46.231 125.774 45.4043 126.575C44.2841 127.65 31.7599 127.174 31.8166 123.299C31.8381 121.89 31.9033 120.492 32.0082 119.105C34.8951 121.085 41.3368 122.557 44.5413 120.402Z" fill="#807E75"/>
<path d="M44.4627 80.4241C43.8791 81.4551 43.4603 82.5267 43.1897 83.6328C42.8989 84.7417 42.7871 85.84 42.7977 86.9765C42.8037 88.1073 42.9175 89.2482 43.0686 90.3976C43.2116 91.5535 43.4356 92.6916 43.4741 93.9546C43.4749 94.2753 43.468 94.6049 43.3805 94.9747C43.3347 95.1592 43.2691 95.3562 43.144 95.5557C43.0221 95.7531 42.8297 95.947 42.6029 96.0649C42.3846 96.1833 42.125 96.2279 41.9532 96.2413L41.5118 96.2794L40.6369 96.3483C40.0715 96.3954 39.4875 96.4481 39.1505 96.6208C38.9861 96.7059 38.8711 96.8146 38.754 96.993C38.652 97.1507 38.5151 97.4572 38.3863 97.7094C37.3729 99.7792 36.5147 101.938 35.7894 104.135C34.3451 108.535 33.4026 112.29 32.9162 116.9C32.7943 118.053 32.7036 119.208 32.6408 120.366C32.6108 120.945 32.5845 121.524 32.5687 122.103L32.5484 122.972C32.5472 123.108 32.5399 123.284 32.5436 123.386C32.5472 123.437 32.5618 123.544 32.5857 123.617C32.6797 123.939 32.9895 124.277 33.3998 124.552C33.8096 124.83 34.3009 125.056 34.8108 125.244C35.8384 125.619 36.9513 125.856 38.0712 126.031C39.1931 126.202 40.3348 126.301 41.4713 126.331C42.0391 126.345 42.6073 126.341 43.1658 126.31C43.7154 126.277 44.293 126.221 44.7328 126.095C44.832 126.069 44.9329 126.019 44.9219 126.024C44.9155 126.027 44.9155 126.029 44.9045 126.037L44.8802 126.062L44.8993 126.042C44.9386 126.003 44.9183 126.018 44.9179 126.022C44.9268 126.009 44.9357 125.994 44.945 125.975C44.9847 125.901 45.0106 125.702 44.9916 125.469C44.9556 124.995 44.8154 124.432 44.6741 123.88C44.3809 122.763 44.0613 121.611 43.8114 120.445C43.2995 118.116 43.0378 116.108 43.0488 113.728C43.0528 111.347 43.2189 109.377 43.6332 107.016C43.847 105.836 44.1221 104.658 44.5526 103.503C44.7705 102.925 45.0285 102.353 45.3711 101.803C45.717 101.244 46.1678 100.756 46.6327 100.34C47.5732 99.5047 48.5962 98.8791 49.5857 98.2523C50.5784 97.63 51.5528 97.0173 52.4629 96.3342C53.375 95.6546 54.2117 94.8964 54.9545 94.0584C55.6924 93.2167 56.3243 92.2874 56.8512 91.2896C57.8981 89.2985 58.4704 87.0349 58.3744 84.6768C59.067 86.9522 58.7515 89.5125 57.786 91.7372C57.5462 92.2825 57.2606 92.8441 56.9411 93.3574C56.6159 93.8747 56.253 94.3686 55.863 94.8385C55.0809 95.7787 54.166 96.5936 53.2113 97.3247C52.2551 98.0557 51.2503 98.6983 50.2661 99.3267C49.286 99.958 48.3111 100.576 47.5055 101.307C47.1038 101.673 46.7571 102.06 46.4889 102.5C46.216 102.947 45.992 103.448 45.8016 103.967C45.4225 105.01 45.1686 106.125 44.9758 107.251C44.5987 109.507 44.4554 111.419 44.472 113.721C44.4801 116.026 44.7247 117.89 45.2249 120.136C45.4687 121.261 45.7778 122.366 46.0823 123.514C46.2277 124.094 46.3877 124.67 46.4468 125.366C46.4667 125.712 46.4772 126.119 46.2739 126.584C46.2212 126.697 46.1556 126.809 46.0766 126.914C46.0297 126.974 45.9645 127.047 45.9511 127.058L45.9321 127.079C45.8903 127.12 45.8899 127.118 45.8668 127.139C45.8284 127.174 45.7984 127.195 45.7636 127.221C45.5096 127.39 45.331 127.44 45.1516 127.5C44.4631 127.692 43.8665 127.734 43.2505 127.777C42.6405 127.813 42.0379 127.818 41.4364 127.804C40.234 127.776 39.0396 127.675 37.8484 127.496C36.6581 127.315 35.4706 127.06 34.2989 126.627C33.7149 126.406 33.1317 126.144 32.5727 125.762C32.0288 125.384 31.4472 124.855 31.1933 124.041C31.1329 123.835 31.0993 123.651 31.0896 123.409C31.0864 123.218 31.0949 123.101 31.0969 122.944L31.1212 122.057C31.141 121.465 31.1702 120.875 31.2042 120.284C31.2739 119.103 31.3723 117.924 31.5019 116.748C32.0219 112.046 32.9992 108.196 34.5342 103.712C35.3017 101.47 36.1992 99.2748 37.2681 97.1487C37.4106 96.8835 37.5033 96.6484 37.716 96.3118C37.9152 95.9984 38.2389 95.6887 38.6014 95.5164C38.9618 95.342 39.3089 95.2747 39.626 95.2269C39.9452 95.1819 40.2465 95.1588 40.543 95.1369L41.4186 95.0773L41.8512 95.0448C41.9706 95.0355 42.0038 95.0229 42.0464 95.0055C42.1002 94.98 42.1732 94.9021 42.2274 94.6901C42.2797 94.4902 42.2955 94.2291 42.2955 93.9655C42.2772 92.8842 42.0703 91.7088 41.9354 90.542C41.7912 89.369 41.6814 88.1709 41.7272 86.9582C41.7633 85.7524 42.0128 84.5093 42.4733 83.398C42.9354 82.2798 43.587 81.2277 44.4627 80.4241Z" fill="black"/>
<path d="M75.9965 89.3139C73.7017 99.5854 70.7313 122.696 73.9714 125.669C76.6785 128.153 87.7345 127.689 87.8763 125.128C88.0115 122.696 84.2312 118.1 83.1514 107.424C82.3462 99.4622 82.8051 92.1508 82.8817 89.3139C83.0161 84.3135 77.28 83.5679 75.9965 89.3139Z" fill="#E6E6CF"/>
<path d="M86.1764 119.541C87.1484 122.208 87.9382 123.992 87.8771 125.128C87.7353 127.69 76.6793 128.152 73.973 125.667C73.2201 124.974 72.7993 123.145 72.6328 120.611C75.9944 122.46 83.8764 123.182 86.1764 119.541Z" fill="#807E75"/>
<path d="M82.0579 86.408C82.5889 87.0932 82.9162 88.0704 82.8838 89.3151C82.8149 91.9099 82.4225 98.2551 82.9733 105.415C81.9891 109.612 76.9787 106.474 77.2914 95.1048C77.5866 84.393 80.7016 85.2363 82.0543 86.3999C82.0543 86.404 82.0579 86.408 82.0579 86.408Z" fill="#F6F6E5"/>
<path d="M76.6348 87.5186C76.4979 87.9966 76.3942 88.4641 76.327 88.9372L76.152 90.3753C76.0921 90.8574 76.0301 91.3391 75.956 91.8183C75.8904 92.2988 75.8167 92.7776 75.7385 93.256C75.4125 95.1661 75.1063 97.0814 74.8374 99.002C74.2971 102.843 73.8597 106.699 73.5644 110.562C73.4174 112.492 73.3113 113.614 73.2606 115.543C73.2133 117.469 73.2181 119.4 73.3927 121.288C73.4854 122.226 73.6175 123.168 73.8767 124.009C74.0046 124.421 74.1812 124.822 74.3813 125.051C74.4376 125.116 74.4526 125.126 74.5656 125.223L74.6644 125.296L74.7831 125.377C74.9491 125.483 75.1342 125.579 75.3299 125.666C76.1168 126.014 77.0297 126.217 77.945 126.354C78.8648 126.488 79.8056 126.548 80.7461 126.554C81.6857 126.561 82.6278 126.515 83.5528 126.399C84.4722 126.282 85.3968 126.102 86.1878 125.78C86.573 125.627 86.9371 125.399 87.0659 125.219C87.0991 125.177 87.1084 125.145 87.1197 125.123C87.1262 125.095 87.1262 125.118 87.1291 124.974C87.1283 124.831 87.1023 124.609 87.061 124.408C86.8856 123.567 86.5317 122.653 86.2004 121.75C85.5163 119.936 84.8318 118.081 84.2766 116.189C83.712 114.299 83.2742 113.179 82.9429 111.235C82.6091 109.289 82.4074 107.324 82.2697 105.371C82.1304 103.416 82.0547 101.458 82.0291 99.5015C82.0052 97.5448 82.0267 95.5893 82.0931 93.6375C82.1312 92.662 82.2167 91.6886 82.3479 90.7204C82.4151 90.2387 82.5022 89.7493 82.5852 89.2774C82.6784 88.8079 82.7197 88.3388 82.729 87.834C82.9753 88.2735 83.1073 88.7815 83.177 89.2835C83.2361 89.7838 83.2839 90.2667 83.3146 90.7568C83.3726 91.7319 83.3876 92.703 83.3742 93.6712C83.3369 95.6084 83.326 97.544 83.3701 99.4772C83.4127 101.41 83.5054 103.341 83.6605 105.264C83.8148 107.191 84.0283 109.098 84.3701 110.985C84.7055 112.872 85.1619 113.924 85.7063 115.762C86.249 117.603 86.9128 119.401 87.6033 121.224C87.9387 122.146 88.3044 123.05 88.532 124.114C88.5851 124.39 88.6268 124.652 88.6292 124.995C88.6308 125.094 88.6227 125.363 88.5527 125.568C88.4862 125.775 88.3858 125.964 88.2712 126.114C87.7981 126.709 87.2635 126.948 86.7625 127.169C85.7484 127.578 84.7452 127.76 83.7415 127.894C82.7379 128.019 81.7355 128.071 80.7323 128.061C79.7291 128.047 78.7271 127.975 77.7247 127.822C76.7239 127.661 75.7203 127.442 74.7284 126.998C74.4817 126.885 74.2347 126.755 73.9929 126.598L73.8111 126.472L73.6203 126.324C73.5482 126.265 73.3773 126.116 73.2793 125.992C72.8528 125.471 72.6685 124.944 72.5041 124.434C72.2003 123.411 72.0768 122.412 71.9844 121.417C71.8168 119.428 71.8301 117.461 71.8925 115.501C71.9589 113.54 72.1007 112.4 72.2728 110.454C72.6231 106.562 73.1144 102.69 73.7102 98.8341C74.0107 96.9066 74.3303 94.9816 74.7053 93.0654C74.8025 92.587 74.9103 92.1106 75.0314 91.6367C75.1435 91.1611 75.2743 90.6891 75.4141 90.2196C75.5534 89.7485 75.698 89.2863 75.8871 88.8135C76.0803 88.3501 76.3237 87.9041 76.6348 87.5186Z" fill="black"/>
<path d="M89.5004 29.5784C81.9562 28.8458 72.5016 33.2307 69.7892 43.2285C66.8197 54.1756 72.2092 64.6373 83.7723 66.7448C88.9601 67.6903 94.0653 67.5038 96.6654 66.8534C99.2664 66.2027 100.686 68.4237 102.625 67.7211C103.647 67.3509 105.548 65.5783 105.248 64.7544C103.453 63.9306 101.807 61.6836 102.705 58.6136C104.352 61.534 107.826 61.7558 108.368 61.4306C109.364 60.9351 111.293 57.0919 110.751 56.2243C110.209 55.3566 107.067 55.7908 106.093 54.0551C106.742 47.7634 107.59 31.3352 89.5004 29.5784Z" fill="#F6F6E5"/>
<path d="M89.4997 29.5768C90.7561 29.6984 91.918 29.889 92.9954 30.1444C88.7998 29.9295 83.2751 31.8919 79.7794 40.1184C75.701 49.7153 79.1885 66.4034 95.3242 67.1129C92.5215 67.5346 88.1794 67.5467 83.7733 66.744C72.2098 64.6356 66.8191 54.1752 69.7878 43.2281C72.5018 33.2299 81.9548 28.847 89.4997 29.5768Z" fill="#E6E6CF"/>
<path d="M106.94 57.2902L107.049 57.3141C107.103 57.3251 107.159 57.3388 107.212 57.353C107.306 57.3855 107.396 57.426 107.478 57.4755C107.643 57.5756 107.778 57.7123 107.87 57.8663C108.059 58.1777 108.05 58.5349 107.94 58.8041C107.918 58.5081 107.769 58.2539 107.568 58.1368C107.47 58.0767 107.361 58.0463 107.259 58.0427C107.207 58.0415 107.157 58.0467 107.11 58.0553C107.091 58.0634 107.076 58.0694 107.06 58.0747L106.952 58.1015C106.73 58.1574 106.504 58.022 106.447 57.799C106.391 57.5756 106.526 57.3498 106.749 57.2934C106.813 57.2768 106.88 57.2772 106.94 57.2902Z" fill="black"/>
<path d="M100.809 52.289C100.809 54.5291 100.006 56.5377 98.7343 57.8988C96.6853 57.0133 93.0402 56.2024 89.9338 56.6739C89.2036 55.4454 88.7734 53.929 88.7734 52.2894C88.7734 48.1888 91.4668 44.8641 94.7907 44.8641C98.115 44.8637 100.809 48.1879 100.809 52.289Z" fill="#F6F6E5"/>
<path d="M89.3275 56.856C89.204 56.6666 89.0687 56.4432 88.9646 56.2364C88.8342 55.9769 88.7123 55.7126 88.6054 55.4418C88.3911 54.9009 88.2296 54.3377 88.1324 53.7636C88.0262 53.1932 87.9882 52.6016 87.9914 52.0316C87.9946 51.4368 88.0603 50.8619 88.1757 50.2849C88.4029 49.1355 88.867 48.0254 89.5467 47.0495C90.238 46.0861 91.1541 45.2456 92.2663 44.7425C93.3825 44.243 94.6409 44.0998 95.8187 44.3873C96.9895 44.6638 98.0163 45.3231 98.7931 46.1567C100.356 47.8389 101.005 50.1479 100.81 52.289C100.619 50.1556 99.7558 48.0817 98.2252 46.7429C97.4675 46.0804 96.5497 45.6344 95.6052 45.5136C95.3719 45.484 95.1273 45.4711 94.9029 45.48C94.6571 45.4897 94.4315 45.5092 94.1998 45.5538C93.7402 45.6377 93.2995 45.7999 92.89 46.0221C92.0699 46.4632 91.3648 47.1362 90.8451 47.9414C90.3089 48.7377 89.9537 49.6577 89.7447 50.6101C89.6435 51.0853 89.588 51.5815 89.5637 52.0603C89.543 52.5639 89.5628 53.0488 89.62 53.5394C89.741 54.5206 90.1278 55.6789 90.5859 56.5823C90.0031 56.633 89.7751 56.7092 89.3275 56.856Z" fill="black"/>
<path d="M100.808 51.9399C100.808 54.9804 99.0138 57.4442 96.8 57.4442C94.5862 57.4442 92.792 54.9804 92.792 51.9399C92.792 48.9003 94.5862 46.4364 96.8 46.4364C99.0138 46.4364 100.808 48.9003 100.808 51.9399Z" fill="black"/>
<path d="M97.9293 50.7297C97.2254 52.0283 95.8884 52.6641 94.9423 52.1504C93.997 51.6363 93.8018 50.1673 94.5057 48.8691C95.2096 47.5709 96.5466 46.9351 97.4919 47.4488C98.4372 47.9629 98.6332 49.4319 97.9293 50.7297Z" fill="#F6F6E5"/>
<path d="M88.0957 57.1483C90.9308 55.2565 96.6532 55.9546 100.078 58.5694C96.827 57.2326 90.8822 56.6257 88.0957 57.1483Z" fill="#BFAF90"/>
<path d="M89.8359 43.4309C92.1648 39.8832 98.4424 40.39 100.771 45.4581C97.7337 42.0118 92.7723 42.0118 89.8359 43.4309Z" fill="black"/>
<path d="M108.662 61.9212C108.654 61.9257 108.648 61.9282 108.64 61.9323C108.633 61.936 108.629 61.9397 108.622 61.943L108.662 61.9212Z" fill="black"/>
<path d="M111.454 56.4878C111.43 56.3066 111.421 56.1164 111.231 55.8371C111.208 55.8083 111.207 55.8018 111.167 55.7548C111.121 55.7029 111.072 55.6526 111.021 55.6064C110.943 55.5435 110.862 55.4847 110.788 55.4438C110.483 55.2686 110.226 55.2042 109.975 55.1332C109.479 55.0063 109.025 54.9305 108.59 54.8275C107.802 54.6544 107.075 54.3799 106.718 53.8986C107.086 50.5866 107.15 47.1905 106.554 43.8477C106.249 42.1432 105.769 40.4549 105.053 38.853C104.34 37.2519 103.378 35.7424 102.173 34.4466C100.973 33.1471 99.5409 32.0666 97.9897 31.2403C96.4385 30.4112 94.7747 29.8274 93.0838 29.4353C92.2381 29.2374 91.384 29.089 90.527 28.9767L89.8838 28.9005L89.5541 28.8665L89.2394 28.8397C88.7927 28.8052 88.3573 28.7886 87.9183 28.787C86.1646 28.7813 84.4178 29.0246 82.7337 29.4868C79.3709 30.4217 76.241 32.2312 73.8194 34.7604C72.6092 36.0213 71.5777 37.455 70.7701 39.0026C69.9601 40.5477 69.3716 42.2088 68.9909 43.8951C68.2173 47.2615 68.1602 50.8351 69.0723 54.197C69.9771 57.544 71.9912 60.6388 74.8056 62.5626C73.672 61.2996 72.6911 59.9467 71.9098 58.4944C71.1314 57.0412 70.5364 55.505 70.1435 53.9161C69.34 50.7394 69.408 47.3665 70.1792 44.1749C70.9212 40.9795 72.4829 37.9999 74.7688 35.6824C77.0397 33.3564 79.9715 31.7001 83.108 30.8621C84.675 30.4408 86.2958 30.2101 87.9134 30.217C88.3168 30.2182 88.7235 30.234 89.1175 30.264L89.4314 30.2908L89.7311 30.322L90.3427 30.3946C91.1568 30.5012 91.9652 30.6415 92.7602 30.8276C95.9371 31.5513 98.9492 33.0425 101.126 35.4185C102.215 36.5971 103.102 37.9602 103.778 39.432C104.454 40.9045 104.921 42.4805 105.225 44.0921C105.83 47.326 105.8 50.6729 105.487 53.9927L105.467 54.2011L105.561 54.3535L105.567 54.3621C105.865 54.9033 106.36 55.2942 106.845 55.5374C107.336 55.7856 107.832 55.9267 108.308 56.0414C108.784 56.1533 109.254 56.2303 109.665 56.335C109.864 56.3864 110.062 56.4501 110.163 56.5125C110.192 56.5267 110.204 56.5401 110.219 56.5482C110.222 56.5596 110.226 56.5738 110.225 56.5896C110.235 56.71 110.212 56.9083 110.168 57.1021C110.126 57.2991 110.066 57.5047 109.998 57.7094C109.859 58.1205 109.684 58.5317 109.487 58.9314C109.291 59.3308 109.073 59.7216 108.832 60.0849C108.712 60.2657 108.586 60.4405 108.456 60.5942C108.333 60.743 108.173 60.8897 108.111 60.9185L108.174 60.8889L108.086 60.9327C108.078 60.9364 108.063 60.9416 108.047 60.9445C108.009 60.9538 107.959 60.9623 107.907 60.9688C107.8 60.9809 107.68 60.9854 107.559 60.9834C107.314 60.9797 107.06 60.9518 106.81 60.9068C106.306 60.8176 105.811 60.6534 105.343 60.4397C104.41 60.0059 103.6 59.3121 103.044 58.4218L102.534 57.6048L102.327 58.5041L102.327 58.5061C102.133 59.1155 102.01 59.7593 102.008 60.417C102.001 61.073 102.112 61.7399 102.346 62.3664C102.764 63.4862 103.563 64.4597 104.606 65.0922C104.595 65.1189 104.582 65.1473 104.563 65.1765C104.485 65.3257 104.36 65.4927 104.225 65.6513C103.95 65.9716 103.613 66.27 103.267 66.5356C103.094 66.6681 102.915 66.7914 102.739 66.8923C102.655 66.9414 102.555 66.9925 102.493 67.0188C102.412 67.0545 102.329 67.0845 102.247 67.106C101.922 67.1948 101.585 67.1705 101.19 67.0541C100.399 66.8352 99.4717 66.2757 98.3473 66.1269C97.7872 66.0478 97.2145 66.0717 96.6544 66.2055C96.1773 66.3361 95.7512 66.4366 95.2798 66.523C93.4224 66.8571 91.4946 66.971 89.5707 67.0111C87.6437 67.0318 85.709 66.9382 83.771 66.7468C85.6535 67.2487 87.591 67.5678 89.544 67.7332C90.5209 67.822 91.5035 67.8691 92.4893 67.8642C93.4759 67.865 94.4645 67.8168 95.458 67.6939C95.9468 67.6351 96.4738 67.5475 96.9387 67.4437C97.3279 67.3695 97.7415 67.3667 98.1404 67.4413C98.5438 67.5159 98.948 67.6627 99.3777 67.8407C99.8074 68.0183 100.258 68.2384 100.797 68.4026C101.327 68.5648 101.995 68.6362 102.612 68.4618C102.764 68.4205 102.911 68.3698 103.051 68.3045C103.21 68.2315 103.324 68.1671 103.448 68.0921C103.691 67.9461 103.908 67.7876 104.117 67.6205C104.534 67.286 104.904 66.9098 105.245 66.478C105.412 66.257 105.573 66.0271 105.708 65.7393C105.774 65.5945 105.834 65.4384 105.869 65.2438C105.902 65.0536 105.916 64.8112 105.818 64.5493V64.5485L105.736 64.3024L105.5 64.2038C104.536 63.7984 103.708 62.9843 103.272 61.9925C103.052 61.4963 102.926 60.9546 102.898 60.4008C102.885 60.1624 102.893 59.9219 102.915 59.6819C103.072 59.8891 103.239 60.0882 103.423 60.2739C103.853 60.7032 104.351 61.0653 104.888 61.3511C105.424 61.641 106.001 61.8437 106.599 61.9743C106.898 62.0384 107.202 62.0842 107.519 62.1004C107.678 62.1089 107.84 62.1097 108.012 62.0959C108.099 62.0886 108.188 62.0785 108.288 62.0582C108.385 62.0359 108.484 62.0169 108.638 61.935C108.98 61.7472 109.147 61.5494 109.329 61.3536C109.505 61.1529 109.656 60.9493 109.799 60.743C110.083 60.3302 110.329 59.9061 110.554 59.4695C110.777 59.0324 110.978 58.5844 111.149 58.1108C111.232 57.8732 111.309 57.6299 111.368 57.3701C111.425 57.1053 111.476 56.8357 111.454 56.4878ZM108.09 60.9299C108.094 60.9282 108.094 60.9278 108.09 60.9299ZM110.198 56.5211C110.198 56.5182 110.208 56.53 110.218 56.545C110.219 56.5458 110.219 56.5462 110.219 56.5474C110.209 56.5417 110.202 56.532 110.198 56.5211Z" fill="black"/>
<path d="M76.7776 33.1909C75.9262 29.4004 60.0821 25.4733 60.5827 39.8001C55.6448 41.5155 53.8607 49.054 55.9518 55.6311C58.2738 62.9344 64.0731 67.1401 59.5046 69.683C63.7625 69.6628 67.1857 65.4473 64.8423 58.6505C60.6022 46.3529 65.4992 38.5911 76.7776 33.1909Z" fill="#6B6B6B"/>
<path d="M66.0602 31.7666C65.072 32.0407 62.1778 33.6799 62.567 37.603C63.3175 35.4537 64.5422 34.0858 67.0683 33.0782C68.5267 32.4964 67.8034 31.2841 66.0602 31.7666Z" fill="#858585"/>
<path d="M60.539 67.7397C60.7407 66.5234 59.8793 64.8359 58.6274 62.664C57.5569 60.8082 56.2253 58.4976 55.3731 55.8152C53.3723 49.5231 54.7668 41.5695 59.9651 39.3861C59.9202 35.9322 60.8148 33.272 62.6265 31.4723C64.3101 29.799 66.7981 28.9451 69.6295 29.0663C73.3755 29.2269 76.9202 31.0542 77.3697 33.0571L77.4758 33.5303L77.0396 33.7391C65.2437 39.3874 61.5503 47.24 65.4162 58.4518C66.6539 62.0404 66.4437 65.2738 64.8257 67.5581C63.6033 69.2845 61.4248 70.1708 58.7343 69.8866C58.7343 69.8866 60.324 69.042 60.539 67.7397ZM69.5773 30.2819C67.0881 30.1748 64.9229 30.9042 63.4818 32.3355C61.8448 33.9617 61.0737 36.4657 61.1895 39.7786L61.2053 40.227L60.7816 40.3738C56.3674 41.9072 54.4205 48.8095 56.5302 55.4458C57.3435 58.0034 58.5844 60.1559 59.6796 62.0558C61.0732 64.4739 62.1745 66.3843 61.7099 68.0637C61.6467 68.2924 61.5568 68.5105 61.4386 68.7177C62.3952 68.3515 63.2251 67.7142 63.8346 66.8534C65.2198 64.8984 65.3737 62.0554 64.2672 58.8483C62.1368 52.6685 62.1959 47.504 64.4482 43.0583C66.4761 39.0557 70.2569 35.7266 75.9975 32.8929C75.2471 31.7026 72.5788 30.4104 69.5773 30.2819Z" fill="black"/>
<path d="M76.7766 33.1909C74.3231 32.8106 63.9884 34.267 60.5847 44.4672C56.98 55.2699 63.365 61.9362 62.5101 65.7543C61.6328 69.6729 55.5949 71.0372 53.8679 66.3973C53.5759 70.8487 57.7382 73.3142 64.5359 70.5081C68.7659 68.7623 72.3433 63.3358 70.3985 54.324C68.4536 45.3121 68.9814 37.7263 76.7766 33.1909Z" fill="#6B6B6B"/>
<path d="M63.8313 62.3145C61.0327 55.5411 60.5997 50.3174 62.0743 45.5226C63.0545 42.3366 65.3108 43.0753 64.3829 47.2522C63.779 49.9735 62.6049 55.9839 63.8313 62.3145Z" fill="#858585"/>
<path d="M58.8888 72.299H58.888C57.046 72.2199 55.543 71.5874 54.5426 70.4704C53.5981 69.4162 53.1328 67.3801 53.7549 65.479C53.7549 65.479 54.8828 68.3341 57.7082 68.7164C59.4072 68.9459 61.4639 67.6517 61.9191 65.6205C62.1824 64.4447 61.6157 62.8347 60.8977 60.7965C59.5105 56.858 57.6106 51.4639 60.0103 44.2738C63.3504 34.265 73.1343 32.4007 76.2986 32.5361C76.5109 32.5451 76.7037 32.5629 76.8717 32.5889L78.5687 32.8524L77.0836 33.716C70.539 37.5231 68.7176 43.6482 70.9938 54.1946C73.0861 63.89 68.9485 69.3441 64.7696 71.0697C62.6117 71.96 60.6332 72.3736 58.8888 72.299ZM54.959 68.9621C55.0943 69.2139 55.2571 69.4462 55.4462 69.6579C56.2238 70.5264 57.4316 71.019 58.9394 71.0838H58.9403C60.5072 71.1511 62.3124 70.768 64.3054 69.9453C68.0514 68.399 71.739 63.414 69.8055 54.4517C68.3191 47.5652 67.6213 39.1542 74.7244 33.8198C70.944 34.2455 63.8389 36.638 61.1617 44.6594C58.8949 51.4538 60.7142 56.6204 62.0435 60.3923C62.8255 62.6145 63.444 64.3693 63.1046 65.8864C62.5631 68.3029 60.2209 70.0418 57.656 69.932C56.6276 69.8882 55.7107 69.5513 54.959 68.9621Z" fill="black"/>
<path d="M76.7781 33.1909C74.3229 32.9825 68.255 36.3931 67.1745 44.4461C65.6852 55.5415 71.8588 59.1589 68.2546 64.1742C65.991 67.3241 59.3071 69.5731 59.8429 75.9877C60.2164 80.4504 66.0656 82.1395 62.9369 86.5706C65.5305 85.1601 65.6439 82.5271 64.0324 79.9221C62.8174 77.9565 63.1045 74.6939 67.3924 72.4571C72.7831 69.6449 79.4439 65.5686 76.2103 55.893C72.6199 45.1467 73.3457 37.6087 76.7781 33.1909Z" fill="#6B6B6B"/>
<path d="M69.0939 50.7573C69.3463 53.0882 70.0421 54.7594 70.9509 57.9373C71.8092 60.9376 71.4313 64.1621 68.2633 66.6422C65.2897 68.9699 63.0969 70.4566 62.6445 72.3063C63.6129 70.6281 67.3714 68.6731 69.7412 67.0047C72.7431 64.8915 73.8885 62.5488 73.4337 59.2408C72.7589 54.3373 71.8646 52.2967 71.4288 50.2602C70.5463 46.1327 68.7185 47.3029 69.0939 50.7573Z" fill="#858585"/>
<path d="M61.5706 80.8072C60.5556 79.509 59.4054 78.0372 59.2385 76.0384C58.8404 71.2744 62.1818 68.6277 64.8674 66.5003C66.0225 65.5848 67.1136 64.7204 67.7616 63.8191C69.4068 61.5295 68.8061 59.5972 67.8973 56.6727C66.9714 53.6927 65.8184 49.9841 66.5725 44.3646C67.6587 36.2723 73.6521 32.4457 76.7023 32.5767C76.7456 32.5787 76.7885 32.5816 76.8294 32.5848L77.9452 32.6797L77.2579 33.564C73.6586 38.1974 73.4958 45.851 76.7869 55.6996C80.3563 66.3799 72.1062 70.6841 67.6745 72.9959C65.7657 73.9917 64.5486 75.2786 64.1538 76.7179C63.8788 77.7202 64.0193 78.7439 64.5495 79.6014C65.5834 81.2735 65.9322 82.9042 65.5575 84.3159C65.2493 85.4792 63.7913 86.7085 62.1789 87.2822C63.8488 84.5803 63.2635 82.9764 61.5706 80.8072ZM75.5083 33.9629C72.9575 34.7085 68.6656 37.9091 67.777 44.5268C67.0589 49.8799 68.1674 53.4458 69.0577 56.3114C70.0017 59.349 70.7478 61.7477 68.7478 64.5298C68.001 65.569 66.8451 66.4849 65.6211 67.4543C63.0355 69.503 60.1057 71.8242 60.4491 75.9378C60.586 77.5742 61.5722 78.8372 62.5272 80.0588C63.4033 81.1806 64.2971 82.3244 64.4486 83.6891C64.6017 82.6816 64.2769 81.4722 63.5163 80.242C62.8168 79.11 62.622 77.7084 62.9821 76.396C63.3215 75.159 64.3133 73.3787 67.1124 71.9178C72.8036 68.9488 78.6248 65.0326 75.635 56.0856C71.7396 44.4299 73.2123 37.7157 75.5083 33.9629Z" fill="black"/>
<path d="M80.957 30.8584C81.2081 28.5206 84.3948 19.9264 95.1264 21.6074C105.055 23.1627 104.773 34.0428 109.999 34.9575C114.264 35.7039 114.383 29.4154 111.044 28.5003C116.093 28.431 117.028 33.7363 115.777 36.6518C114.219 40.2842 108.251 43.2825 103.576 37.869C97.6123 30.9642 88.564 27.3704 80.957 30.8584Z" fill="#6B6B6B"/>
<path d="M109.758 41.4223C108.056 41.5216 105.522 41.0537 103.116 38.2667C98.4294 32.8402 92.1594 29.8026 86.3434 30.1408C84.5472 30.2454 82.8206 30.6727 81.2095 31.4114L80.2383 31.857L80.3529 30.794C80.5659 28.8097 83.096 21.3025 91.5835 20.8086C92.7305 20.7418 93.954 20.8086 95.2205 21.0069C101.277 21.9552 103.73 26.2355 105.701 29.6749C107.039 32.0087 108.194 34.0241 110.103 34.3586C110.359 34.4036 110.604 34.4194 110.83 34.4065C112.433 34.3136 112.716 32.8021 112.764 32.3411C112.932 30.7376 112.328 29.2889 110.009 28.2745C113.312 27.7487 115.076 29.1426 115.801 30.2275C117.22 32.3529 117.073 35.1719 116.335 36.8923C115.261 39.3967 112.556 41.2597 109.758 41.4223ZM86.2725 28.9261C92.4632 28.566 99.1033 31.7601 104.035 37.4712C105.684 39.3809 107.639 40.3268 109.687 40.208C112.315 40.0551 114.459 38.1824 115.218 36.4118C115.851 34.9388 115.906 32.5734 114.791 30.9034C114.409 30.3313 113.927 29.8947 113.35 29.5946C113.866 30.4668 114.071 31.525 113.972 32.4672C113.781 34.2852 112.576 35.5223 110.901 35.6196C110.581 35.6386 110.242 35.6167 109.894 35.5559C107.423 35.1237 106.075 32.7705 104.647 30.2794C102.71 26.898 100.512 23.0662 95.0326 22.2074C93.852 22.0226 92.7151 21.9605 91.6539 22.0221C85.1458 22.4008 82.5363 27.3185 81.7911 29.8557C83.2212 29.3287 84.7242 29.0161 86.2725 28.9261Z" fill="black"/>
<path d="M74.4465 35.8056C72.6171 32.9923 69.637 24.096 78.1325 20.6659C86.3579 17.3449 94.0888 22.9875 94.9045 30.0471C88.2534 27.2864 78.0896 30.4153 74.4465 35.8056Z" fill="#6B6B6B"/>
<path d="M75.5963 25.7976C75.8531 22.636 83.0477 18.7555 89.5607 23.7274C85.765 22.8768 82.7379 23.1797 79.6513 25.2479C77.1893 26.8964 75.519 26.7504 75.5963 25.7976Z" fill="#858585"/>
<path d="M74.4385 36.9052L73.9391 36.1373C72.5986 34.0756 71.0409 29.6226 72.2434 25.8013C73.0599 23.2068 74.965 21.2895 77.9067 20.102C79.3392 19.5234 80.8077 19.1865 82.2715 19.1013C88.8343 18.7206 94.7722 23.5993 95.5089 29.977L95.6279 31.0048L94.6725 30.6082C92.8496 29.8513 90.6297 29.5245 88.2515 29.6628C82.7854 29.9806 77.3161 32.646 74.9505 36.1458L74.4385 36.9052ZM82.3424 20.316C81.0111 20.3935 79.6713 20.7008 78.3615 21.2299C75.7726 22.2751 74.1044 23.9358 73.4029 26.167C72.4572 29.1718 73.4365 32.6407 74.5118 34.7057C77.3032 31.2926 82.7579 28.7651 88.1818 28.4497C90.3267 28.3244 92.3627 28.5563 94.1379 29.1203C93.0075 23.8689 87.9254 19.9913 82.3424 20.316Z" fill="black"/>
<path d="M76.874 33.3061C79.4203 31.2266 86.8681 28.2534 92.7622 32.7364C98.4138 37.035 100.984 43.4678 106.965 43.4118C112.133 43.364 113.839 38.8157 112.81 36.4304C112.672 37.7562 111.542 39.5361 108.878 38.9556C105.518 38.2229 104.881 33.8729 99.4968 29.4665C94.1178 25.0634 83.645 22.4227 76.874 33.3061Z" fill="#6B6B6B"/>
<path d="M92.6425 27.7851C95.4594 28.3479 98.6347 30.5738 100.584 32.762C103.375 35.8977 103.958 38.5854 106.963 39.9112C103.552 39.6201 102.826 37.9967 100.44 35.1521C98.7047 33.0827 97.2269 31.0928 92.6361 29.743C88.6742 28.5778 88.2842 26.9142 92.6425 27.7851Z" fill="#858585"/>
<path d="M107.332 44.0098C107.214 44.0159 107.093 44.0192 106.971 44.0204C102.813 44.0593 100.183 41.1555 97.3991 38.0818C95.8904 36.4162 94.3312 34.6947 92.3944 33.2217C90.2976 31.6267 87.8267 30.8864 85.0491 31.0214C81.5239 31.1929 78.6013 32.5134 76.0137 34.1214C79.1643 27.3351 85.1155 25.2187 88.5111 25.0537C92.3847 24.8651 96.6353 26.3393 99.8806 28.9958C102.466 31.1118 103.982 33.2149 105.201 34.9039C106.506 36.7143 107.449 38.0218 109.006 38.3612C109.366 38.4394 109.706 38.4719 110.016 38.4569C111.724 38.3737 112.741 37.2653 112.657 35.5271C113.58 37.0017 113.746 39.4847 112.794 41.0132C111.663 42.8296 109.723 43.8931 107.332 44.0098ZM84.99 29.8063C88.0604 29.6571 90.7994 30.4801 93.1295 32.2519C95.1558 33.793 96.7535 35.5579 98.2999 37.264C101.009 40.2546 103.348 42.8373 106.96 42.8032C107.066 42.8024 107.17 42.7996 107.273 42.7947C109.255 42.6986 110.85 41.8375 111.763 40.3706C112.099 39.8317 112.322 39.23 112.424 38.6377C111.871 39.2134 111.088 39.6229 110.077 39.672C109.66 39.6922 109.213 39.6509 108.749 39.5499C106.737 39.1112 105.625 37.5685 104.217 35.6163C103.04 33.9844 101.575 31.9531 99.1123 29.9372C96.093 27.466 92.1526 26.094 88.5711 26.2684C84.949 26.4451 81.7154 28.1602 79.0954 31.2679C80.7641 30.5053 82.8329 29.9109 84.99 29.8063Z" fill="black"/>
<path d="M81.4332 42.0519C82.4291 36.0124 78.6649 26.9637 71.4982 27.2236C68.8089 34.9335 71.3099 41.4401 73.0073 43.9993C75.6678 48.0124 80.4952 47.7326 81.4332 42.0519Z" fill="#F6F6E5"/>
<path d="M81.8221 36.9381C81.6949 36.0789 81.4778 35.2336 81.1984 34.4069C80.9189 33.5814 80.5787 32.7705 80.1514 32.0005C79.3094 30.4615 78.1555 29.0355 76.6477 28.0158C75.1532 26.9856 73.2723 26.4731 71.4769 26.6158L71.0358 26.6511L70.9249 27.0233C70.2821 28.7323 69.8637 30.5381 69.7143 32.3687C69.5632 34.1989 69.6685 36.0509 70.0282 37.8483C70.2027 38.7484 70.4514 39.6322 70.7543 40.4958C71.0601 41.3586 71.4174 42.2048 71.8685 43.0059C72.3124 43.8039 72.856 44.5815 73.5501 45.2108C74.2383 45.8327 75.0734 46.3205 75.9664 46.4757C75.1807 46.0366 74.5416 45.4419 74.022 44.7688C73.4959 44.1007 73.105 43.3441 72.7434 42.5612C72.0273 40.9958 71.536 39.3233 71.257 37.6245C70.9783 35.9244 70.9143 34.1936 71.0561 32.4814C71.1282 31.6247 71.2521 30.7729 71.419 29.9279C71.5595 29.2277 71.7458 28.5385 71.9495 27.8516C72.5805 27.8897 73.2014 27.9903 73.7956 28.18C74.5234 28.4144 75.2135 28.757 75.8478 29.1945C77.1199 30.0702 78.1608 31.3003 78.9712 32.6728C79.3714 33.3632 79.7302 34.0849 80.0247 34.8366C80.3199 35.5883 80.5544 36.3648 80.7537 37.1517C81.1486 38.7313 81.381 40.3491 81.4345 42.0532C82.0222 40.4375 82.0744 38.6482 81.8221 36.9381Z" fill="black"/>
<path d="M79.0839 41.2917C79.717 37.3869 77.8057 31.54 73.3016 31.0851C72.2473 36.4698 73.468 40.1986 74.5393 41.8516C76.2185 44.4445 78.4878 44.9651 79.0839 41.2917Z" fill="#E6E6CF"/>
<path d="M74.5391 41.8516C75.0632 42.4979 75.6654 43.102 76.3653 43.4511C76.7119 43.6218 77.0894 43.6936 77.4017 43.6117C77.714 43.5326 77.9614 43.2926 78.1396 42.9824C78.4985 42.3544 78.6374 41.5427 78.6925 40.7582C78.7532 39.9679 78.7156 39.1644 78.5953 38.3766C78.3766 36.7953 77.8201 35.2656 76.9785 33.954C76.1421 32.6395 74.9404 31.5708 73.3018 31.0851C74.1486 30.9946 75.0433 31.1937 75.8294 31.6113C76.6147 32.0326 77.2976 32.648 77.8245 33.3616C78.3563 34.0744 78.754 34.8731 79.0379 35.7002C79.3243 36.5269 79.5235 37.38 79.6207 38.2452C79.7111 39.1104 79.7155 39.9862 79.6029 40.8551C79.5406 41.299 79.4523 41.7118 79.321 42.1444C79.1866 42.5673 79.0193 42.9962 78.7342 43.3818C78.4612 43.7621 78.0295 44.1169 77.509 44.1854C76.9914 44.2612 76.5224 44.0605 76.1555 43.8193C75.4106 43.3149 74.9254 42.5904 74.5391 41.8516Z" fill="black"/>
</svg>
