<svg width="133" height="137" viewBox="0 0 133 137" fill="none" xmlns="http://www.w3.org/2000/svg">
<path d="M16.7857 68.5221C17.4309 66.6555 20.9292 62.0371 24.6781 66.9419C26.2767 69.0336 26.9085 73.7935 31.5839 74.4477C36.0565 75.0734 37.9787 71.8716 41.9758 70.3329C45.3956 69.0163 48.0924 71.4525 49.4735 75.7316C51.3148 71.123 52.8278 62.0817 46.8754 58.4485C42.8305 55.9795 39.144 57.7102 35.8261 60.9175C32.9651 63.6828 29.4727 64.0723 26.3221 61.313C22.1131 57.6257 14.8126 60.72 16.7857 68.5221Z" fill="#6B6B6B"/>
<path d="M48.3367 66.4264C47.639 64.1391 45.5144 62.3227 42.1053 63.3949C37.0214 64.9944 34.5073 71.208 28.8086 66.0405C29.758 67.8596 32.3886 70.0501 35.581 68.3969C39.5335 66.3494 41.5935 64.4255 44.7035 65.9476C45.9737 66.5694 46.6063 68.3143 47.7634 68.5213C48.3083 68.6189 48.8371 68.0651 48.3367 66.4264Z" fill="#858585"/>
<path d="M47.1829 57.9429C45.8163 57.109 44.4091 56.6859 42.9984 56.6859C40.5434 56.6859 38.0633 57.9303 35.4134 60.4913C33.9829 61.874 32.4005 62.6052 30.8366 62.6052C29.4152 62.6052 28.0273 62.0205 26.7109 60.8674C25.4631 59.7743 23.8854 59.1727 22.2667 59.1727C20.2845 59.1727 18.4262 60.0192 17.2775 61.5773C15.1071 64.5227 16.2416 68.1275 16.7842 69.4607C17.8694 66.7448 19.9526 65.3491 21.1799 65.3491C22.1972 65.3491 23.2161 66.0061 24.2066 67.3022C24.6028 67.8209 24.9564 68.5656 25.3305 69.3544C26.4212 71.6532 27.7783 74.5141 31.5011 75.0347C31.9072 75.092 32.3105 75.1205 32.6972 75.1205C35.1419 75.1205 36.8324 74.0171 38.6228 72.849C39.7064 72.1415 40.8279 71.4098 42.1866 70.8864C42.7355 70.6755 43.2726 70.568 43.7852 70.568C45.945 70.568 47.8123 72.5167 48.909 75.9137L49.4129 77.4753L50.0218 75.9516C51.8307 71.426 53.5647 61.838 47.1829 57.9429ZM36.2362 61.3442C38.654 59.0071 40.8658 57.8714 42.9987 57.8714C44.1881 57.8714 45.389 58.236 46.5665 58.9546C50.0632 61.089 50.7893 65.2472 50.4417 69.1147C50.2953 65.564 49.1769 63.2602 47.0582 62.1481C43.3425 60.1986 40.2842 61.6997 35.9418 65.152C32.861 67.6009 30.706 65.6336 28.6768 63.4099C29.3828 63.658 30.1034 63.7907 30.8374 63.7907C32.7138 63.7903 34.5807 62.9441 36.2362 61.3442ZM43.7856 69.3829C43.1274 69.3829 42.4467 69.5164 41.7624 69.7799C40.2865 70.3484 39.1118 71.1147 37.9765 71.8562C36.267 72.9718 34.7903 73.9353 32.6976 73.9353C32.3645 73.9353 32.0177 73.9105 31.6649 73.8611C28.575 73.4285 27.4196 70.9939 26.4007 68.846C25.9982 67.9995 25.6194 67.1995 25.1474 66.5824C23.9205 64.9774 22.5863 64.164 21.1803 64.164C19.3962 64.164 17.9594 65.4811 17.079 66.7353C16.9342 64.9888 17.3201 63.4521 18.212 62.3049C19.1741 61.0677 20.6523 60.3578 22.2667 60.3578C23.5977 60.3578 24.8995 60.8555 25.9315 61.7594C26.1296 61.9328 26.3293 62.0948 26.5313 62.2457C26.8829 62.6008 27.242 62.9986 27.611 63.4087C29.8015 65.8433 32.5276 68.8737 36.4323 65.7706C41.1962 61.9826 43.6897 61.2723 46.6908 62.8481C49.2882 64.2102 50.1824 67.911 49.3699 73.8429C48.0479 70.9875 46.0701 69.3829 43.7856 69.3829Z" fill="black"/>
<path d="M83.7245 83.9809C85.9063 82.0507 87.6123 84.1124 92.5379 87.748C98.1182 91.8659 107.737 97.2053 102.682 101.992C97.0753 107.301 91.6129 111.594 86.0551 116.237C82.9183 118.858 78.3691 104.323 81.8847 102.348C85.2461 100.46 88.8707 99.2864 92.5556 97.7046C89.6461 95.1285 87.5937 93.3588 85.3459 90.6792C83.1002 87.9996 81.8208 85.6646 83.7245 83.9809Z" fill="#CCCAB8"/>
<path d="M85.3468 100.646C84.556 104.373 85.8093 111.602 89.5365 113.356C88.3779 114.309 87.2205 115.266 86.0552 116.239C82.92 118.86 78.3684 104.326 81.8848 102.348C83.0099 101.713 84.1693 101.16 85.3468 100.646Z" fill="#807E75"/>
<path d="M104.183 96.9066C103.77 96.1082 103.233 95.4276 102.663 94.8026C101.515 93.5594 100.224 92.5244 98.9152 91.54C97.6043 90.5595 96.2598 89.643 94.9303 88.7233C93.5929 87.8128 92.3184 86.8544 90.9889 85.9284C90.3224 85.4694 89.6472 85.0155 88.9417 84.596C88.2396 84.1784 87.4965 83.777 86.6943 83.5688C87.358 84.0528 87.9373 84.6039 88.5418 85.1391C89.1385 85.6815 89.7403 86.2231 90.3591 86.7493C91.5899 87.8049 92.9241 88.7668 94.2512 89.6983C95.5747 90.6334 96.8987 91.5554 98.1706 92.5268C99.4385 93.4994 100.675 94.5162 101.714 95.6658C102.229 96.2402 102.693 96.8517 103.017 97.4992C103.344 98.1443 103.51 98.8234 103.417 99.4586C103.33 100.095 102.985 100.696 102.494 101.22C102.261 101.471 101.943 101.747 101.651 102.025L100.762 102.842C98.3836 105.018 95.9209 107.103 93.4399 109.175L85.9606 115.373L85.727 115.568L85.6106 115.666C85.6106 115.666 85.5219 115.738 85.525 115.731C85.4548 115.782 85.3679 115.819 85.306 115.824C85.1856 115.847 84.9662 115.777 84.7232 115.586C84.237 115.203 83.7981 114.557 83.4359 113.9C82.7074 112.559 82.1857 111.054 81.8164 109.536C81.464 108.02 81.2197 106.44 81.3523 104.959C81.4194 104.235 81.6167 103.507 81.9837 103.128C82.0283 103.081 82.0753 103.04 82.1234 103.004C82.1767 102.966 82.2067 102.947 82.3124 102.889L82.8325 102.601C83.1818 102.413 83.5345 102.232 83.8917 102.055C86.7456 100.646 89.8039 99.5747 92.7892 98.2486H92.79L93.6423 97.9258L92.9485 97.2598C91.2915 95.6693 89.5482 94.2018 87.9109 92.6433C87.0877 91.8655 86.3016 91.0553 85.5053 90.2395C84.7192 89.4234 83.9446 88.6021 83.2646 87.6634C83.5898 88.7897 84.2244 89.8022 84.8877 90.755C85.5523 91.7047 86.3036 92.5963 87.0881 93.4528C88.4432 94.9251 89.9136 96.258 91.4218 97.5256C88.7388 98.6033 85.9764 99.5644 83.3045 100.851C82.9331 101.029 82.5638 101.214 82.1984 101.405L81.6526 101.698C81.58 101.737 81.4336 101.818 81.3227 101.9C81.2079 101.982 81.1013 102.075 81.0042 102.173C80.6187 102.57 80.3946 103.034 80.2434 103.48C80.0939 103.93 80.0122 104.376 79.9644 104.814C79.7963 106.568 80.0386 108.242 80.419 109.871C80.8144 111.498 81.3555 113.086 82.1708 114.596C82.5954 115.344 83.0523 116.093 83.8364 116.729C84.0385 116.884 84.2658 117.032 84.5432 117.138C84.8182 117.245 85.1529 117.305 85.4895 117.26C85.8292 117.215 86.1252 117.084 86.3829 116.898C86.4693 116.835 86.4574 116.841 86.5364 116.777L86.6529 116.68L86.8856 116.486L94.3743 110.295C96.8632 108.212 99.3102 106.071 101.695 103.856L102.585 103.02C102.877 102.737 103.172 102.481 103.488 102.138C104.094 101.482 104.61 100.618 104.734 99.636C104.868 98.6547 104.592 97.6943 104.183 96.9066Z" fill="black"/>
<path d="M50.1203 86.5518C51.6234 91.092 57.0131 94.47 55.2566 95.8072C53.4994 97.1444 52.7176 97.4869 52.8317 98.7333C53.5499 106.602 56.566 115.462 61.5133 123.579C63.4126 126.695 73.5792 120.8 73.9261 119.38C74.2729 117.96 71.0449 116.498 67.5305 111.888C64.9848 108.55 61.35 101.947 61.7051 98.4595C62.0603 94.9741 65.9264 91.1521 65.413 85.2355C64.9142 79.4774 60.5868 75.2683 55.3565 76.2353C51.344 76.976 48.2612 80.9324 50.1203 86.5518Z" fill="#CCCAB8"/>
<path d="M69.9682 114.713C72.39 117.201 74.1902 118.302 73.9258 119.378C73.5805 120.801 63.4128 126.695 61.5131 123.579C60.8679 122.521 60.2582 121.454 59.6816 120.375C63.245 120.181 68.7109 118.022 69.9682 114.713Z" fill="#807E75"/>
<path d="M49.6776 81.9551C49.6914 83.0636 49.8635 84.1176 50.1693 85.1261C50.3181 85.6306 50.4945 86.124 50.7064 86.6063C50.9005 87.0673 51.1464 87.5335 51.4171 87.9728C51.9534 88.8632 52.5816 89.7117 53.2529 90.5465C53.9241 91.3843 54.6502 92.1819 55.3456 93.0897C55.5184 93.3204 55.6885 93.5586 55.8479 93.8257C56.0049 94.0955 56.1632 94.3863 56.2504 94.7872C56.2918 94.9859 56.3088 95.2249 56.2512 95.4793C56.1963 95.7326 56.0602 95.9802 55.8976 96.1509C55.8206 96.235 55.7248 96.3156 55.6549 96.369L55.4923 96.4938L55.1609 96.7435C54.726 97.0721 54.2706 97.3925 53.936 97.7038C53.7686 97.8598 53.653 98.0052 53.5978 98.1301C53.5405 98.2529 53.52 98.3935 53.5307 98.593C53.6246 99.6229 53.7694 100.705 53.9462 101.761C54.1242 102.821 54.3369 103.876 54.5835 104.922C55.574 109.111 57.0444 113.188 58.8857 117.085C59.8106 119.033 60.8319 120.934 61.9424 122.782L62.1511 123.128C62.219 123.24 62.236 123.26 62.2912 123.32C62.3875 123.421 62.5161 123.502 62.6842 123.565C63.0213 123.69 63.4865 123.716 63.9612 123.675C64.9217 123.588 65.9296 123.279 66.9047 122.912C67.8834 122.54 68.8454 122.089 69.7755 121.586C70.7029 121.081 71.6169 120.523 72.4231 119.9C73.3852 119.012 73.4289 119.347 72.6827 118.376C71.9961 117.645 71.1429 116.913 70.3572 116.141C68.7602 114.602 67.2828 112.9 66.0374 111.046C64.7994 109.196 63.7107 107.267 62.7849 105.242C62.3255 104.228 61.9084 103.189 61.5809 102.106C61.2624 101.021 60.9945 99.8967 61.0482 98.6638C61.1291 97.419 61.573 96.3358 62.0193 95.3182C62.4763 94.3005 62.9711 93.3343 63.406 92.3546C64.2892 90.4058 64.8858 88.3749 64.949 86.2788C65.0161 84.1788 64.627 82.0622 63.7028 80.0621C65.1416 81.743 65.8811 84.0212 65.9679 86.2761C66.0235 87.413 65.8684 88.5558 65.6111 89.658C65.3392 90.7598 64.9458 91.8189 64.5058 92.8373C64.0674 93.8577 63.5785 94.8402 63.1546 95.8187C62.7352 96.7917 62.3709 97.7824 62.3267 98.7286C62.2912 99.6845 62.5304 100.72 62.8417 101.715C63.1578 102.718 63.5662 103.703 64.0184 104.671C64.9296 106.603 66.014 108.472 67.2247 110.233C68.4256 111.992 69.8328 113.596 71.3844 115.073C72.159 115.825 72.972 116.505 73.7869 117.357C73.9897 117.579 74.1937 117.812 74.3835 118.122C74.5638 118.425 74.7627 118.848 74.6893 119.403C74.6708 119.518 74.6815 119.456 74.6554 119.577C74.6302 119.674 74.5998 119.746 74.5698 119.81C74.5082 119.937 74.4479 120.024 74.3902 120.105C74.2723 120.264 74.159 120.385 74.0457 120.5C73.82 120.726 73.5939 120.916 73.365 121.099C72.4503 121.815 71.4977 122.399 70.5147 122.944C69.5313 123.483 68.5183 123.968 67.4619 124.377C66.402 124.779 65.3061 125.122 64.0915 125.235C63.4849 125.281 62.8322 125.279 62.1393 125.03C61.7979 124.903 61.4471 124.696 61.1666 124.401C61.0308 124.266 60.8892 124.062 60.8189 123.939L60.6062 123.585C59.4725 121.691 58.4303 119.743 57.4887 117.747C55.606 113.756 54.1092 109.573 53.1432 105.254C52.9005 104.175 52.6913 103.087 52.5189 101.993C52.346 100.896 52.2091 99.8121 52.1163 98.6685C52.0978 98.326 52.1424 97.9073 52.3216 97.5355C52.4972 97.1646 52.7509 96.8936 52.9822 96.6795C53.453 96.2556 53.9009 95.9573 54.3365 95.6318L54.6601 95.3928L54.8234 95.2707C54.8613 95.2411 54.8704 95.2324 54.8866 95.2174C54.9118 95.1902 54.9075 95.189 54.9126 95.1759C54.9182 95.1645 54.9225 95.1246 54.9087 95.057C54.8838 94.9215 54.7939 94.7177 54.6759 94.5182C54.5587 94.3163 54.4131 94.1074 54.2611 93.9008C52.9987 92.2333 51.3871 90.6073 50.3473 88.5649C50.0928 88.049 49.8694 87.526 49.6938 86.9607C49.545 86.4139 49.4172 85.8569 49.354 85.2908C49.2234 84.1638 49.3 83.0008 49.6776 81.9551Z" fill="black"/>
<path d="M76.3162 58.6899C76.8296 63.6987 78.3935 69.0376 74.4441 70.4258C70.4948 71.8136 63.7295 65.0023 54.1722 68.3364C45.6161 71.3214 44.7013 83.0474 49.5121 88.8252C56.1327 96.7774 83.4185 96.1493 89.455 89.6505C95.3814 83.2694 93.432 74.2233 91.4968 66.6966C90.6267 63.3202 89.0565 57.6391 86.0909 54.8814C81.5291 50.639 75.815 53.7879 76.3162 58.6899Z" fill="#E6E6CF"/>
<path d="M70.9996 70.2251C74.0441 72.9367 65.2915 77.5385 57.0861 74.7914C51.2347 72.8324 52.6404 69.0649 55.6635 67.894C62.1475 66.2708 67.2638 69.1479 70.9996 70.2251Z" fill="#F6F6E5"/>
<path d="M65.1168 95.0547C65.116 95.0547 65.1168 95.0547 65.116 95.0547C60.6304 94.6798 52.583 93.4227 49.0776 89.2124C46.3038 85.8818 45.3149 80.738 46.5571 76.1073C47.6522 72.025 50.293 69.0657 53.9918 67.7743C56.3094 66.9657 58.6206 66.6718 61.057 66.8756C63.9736 67.1189 66.4846 68.0256 68.7004 68.8255C70.3104 69.4066 71.7003 69.9087 72.8648 70.0055C73.4074 70.0509 73.8643 70.0043 74.2629 69.8645C76.9049 68.9361 76.706 66.0144 76.0671 61.313C75.9523 60.4748 75.8351 59.6092 75.7471 58.7551C75.566 56.9842 76.107 55.3301 77.2707 54.098C78.4786 52.8189 80.2043 52.1718 82.0061 52.3219C83.5822 52.4535 85.1283 53.1863 86.4763 54.4393C89.711 57.4487 91.3507 63.8204 92.0503 66.5414C94.2085 74.9289 95.8177 83.6534 89.8677 90.059C85.9144 94.3163 74.1642 95.8104 65.1168 95.0547ZM60.958 68.0568C58.6806 67.8668 56.5209 68.1413 54.3536 68.8978C51.0286 70.0577 48.6526 72.7285 47.6621 76.4182C46.5366 80.6132 47.4557 85.4429 49.9481 88.4373C52.315 91.2793 57.8791 93.2612 65.2143 93.8743C75.3758 94.7228 85.843 92.6884 89.0434 89.2416C94.5795 83.2817 93.0179 74.9131 90.9438 66.8515C90.2694 64.2324 88.6909 58.0982 85.708 55.3226C84.5466 54.2434 83.2334 53.6141 81.9091 53.5031C80.4486 53.3818 79.0563 53.8993 78.0899 54.9229C77.1704 55.897 76.7435 57.2121 76.8875 58.6248C76.9731 59.4579 77.0896 60.3136 77.202 61.142C77.773 65.3365 78.3634 69.6741 74.6279 70.9864C74.0771 71.18 73.4685 71.2452 72.7665 71.1867C71.4564 71.0777 70.0018 70.5526 68.318 69.9443C66.1665 69.1676 63.7286 68.2879 60.958 68.0568Z" fill="black"/>
<path d="M48.9576 87.8471C50.1869 92.6382 55.5272 96.4938 53.6114 97.7548C51.6955 99.0157 50.8605 99.3172 50.8893 100.612C51.0665 108.787 53.5506 118.141 58.0919 126.861C59.8353 130.209 70.7923 124.813 71.2544 123.37C71.7161 121.927 68.4767 120.197 65.1678 115.197C62.7717 111.576 59.4821 104.51 60.1009 100.934C60.7197 97.3578 65.0005 93.674 64.8955 87.5291C64.7929 81.549 60.6131 76.9065 55.1255 77.5488C50.9146 78.0422 47.4364 81.9168 48.9576 87.8471Z" fill="#E6E6CF"/>
<path d="M59.5358 81.9551C62.9943 87.5548 58.8042 99.9721 53.6367 95.8767C52.6032 94.0062 49.8045 91.1497 48.9569 87.8456C48.0165 84.1756 48.99 81.2906 50.8708 79.5118C50.8747 79.5098 50.8779 79.5086 50.8779 79.5086C53.2689 77.84 56.6515 77.2845 59.5358 81.9551Z" fill="#F6F6E5"/>
<path d="M67.6599 118.479C69.9029 121.074 71.5931 122.3 71.2545 123.371C70.7904 124.811 59.8338 130.209 58.0904 126.859C57.457 125.641 56.8663 124.412 56.3154 123.175C59.7068 123.534 65.9094 121.811 67.6599 118.479Z" fill="#807E75"/>
<path d="M48.7293 83.5456C48.7061 84.701 48.8426 85.8131 49.1224 86.8872C49.386 87.972 49.7984 88.9659 50.3331 89.9357C50.8603 90.902 51.4862 91.8268 52.1467 92.7425C52.8034 93.6673 53.5224 94.5384 54.14 95.6042C54.288 95.8787 54.4352 96.1643 54.5306 96.5223C54.5768 96.7012 54.6116 96.9007 54.5962 97.1294C54.5831 97.3554 54.5082 97.6106 54.3681 97.8168C54.2355 98.0195 54.0335 98.1775 53.8926 98.2687L53.5319 98.5061L52.8145 98.9711C52.3512 99.2733 51.8749 99.5894 51.6661 99.8931C51.5635 100.042 51.515 100.189 51.498 100.396C51.4842 100.579 51.5079 100.904 51.5142 101.181C51.603 103.426 51.865 105.674 52.2588 107.894C53.056 112.334 54.359 116.686 56.074 120.864C56.5034 121.908 56.9595 122.941 57.4413 123.963C57.6825 124.473 57.9283 124.981 58.1821 125.486L58.5668 126.24C58.6292 126.357 58.7041 126.511 58.755 126.597C58.7811 126.639 58.843 126.723 58.8983 126.776C59.1272 127.008 59.5494 127.154 60.0281 127.2C60.5083 127.249 61.034 127.214 61.558 127.139C62.6124 126.983 63.6751 126.671 64.7173 126.303C65.7579 125.929 66.7828 125.486 67.7709 124.983C68.265 124.733 68.7495 124.466 69.2144 124.181C69.6698 123.898 70.1394 123.582 70.4583 123.271C70.5309 123.201 70.594 123.113 70.5869 123.122C70.5829 123.127 70.5838 123.128 70.5778 123.141L70.5687 123.174L70.5759 123.148C70.592 123.096 70.5814 123.118 70.5829 123.122C70.5845 123.107 70.5861 123.09 70.5845 123.07C70.5845 122.988 70.5143 122.805 70.3904 122.614C70.1406 122.224 69.7598 121.808 69.3837 121.398C68.6162 120.577 67.8092 119.738 67.0555 118.854C65.5393 117.095 64.1992 115.147 63.1077 113.101C62.0102 111.058 61.0545 108.944 60.3177 106.728C59.9555 105.617 59.6465 104.481 59.4815 103.29C59.4014 102.694 59.358 102.084 59.3967 101.454C59.4354 100.814 59.5956 100.187 59.802 99.6138C60.2219 98.4627 60.8102 97.4526 61.3674 96.4559C61.9317 95.4628 62.4842 94.4858 62.9475 93.4781C63.4155 92.4723 63.7821 91.4349 64.0319 90.3723C64.2746 89.3084 64.3863 88.2189 64.3772 87.1199C64.3539 84.9274 63.7983 82.7211 62.6247 80.7443C64.271 82.3743 65.1842 84.7157 65.3854 87.0709C65.4316 87.6492 65.4478 88.2631 65.4107 88.8506C65.3704 89.4455 65.288 90.0369 65.1711 90.6203C64.9352 91.7901 64.5283 92.9124 64.0473 93.981C63.5654 95.0515 63.0015 96.0676 62.4479 97.0623C61.8998 98.0582 61.3497 99.0399 60.9965 100.04C60.8217 100.54 60.7029 101.032 60.678 101.534C60.6496 102.043 60.6887 102.577 60.7668 103.111C60.9239 104.181 61.2214 105.254 61.5769 106.308C62.2975 108.418 63.2458 110.47 64.3247 112.437C65.3976 114.409 66.6569 116.242 68.1245 117.935C68.8537 118.786 69.6295 119.59 70.4211 120.433C70.8158 120.863 71.2183 121.283 71.5912 121.852C71.7684 122.14 71.9649 122.484 72.0051 122.977C72.0142 123.099 72.0091 123.225 71.9898 123.35C71.9775 123.425 71.9551 123.517 71.9484 123.533L71.942 123.559C71.925 123.615 71.9235 123.612 71.9144 123.642C71.8966 123.689 71.8813 123.722 71.8627 123.76C71.7238 124.022 71.5935 124.148 71.4673 124.282C70.9661 124.765 70.4736 125.078 69.9658 125.401C69.4595 125.713 68.9445 125.998 68.4228 126.265C67.379 126.798 66.3081 127.265 65.2051 127.664C64.0998 128.06 62.9636 128.391 61.7593 128.563C61.1575 128.645 60.536 128.69 59.8801 128.621C59.2389 128.55 58.4942 128.365 57.9007 127.786C57.7535 127.636 57.6394 127.495 57.5199 127.292C57.4291 127.13 57.3817 127.025 57.3103 126.89L56.9221 126.118C56.6656 125.601 56.4173 125.082 56.1739 124.559C55.6869 123.515 55.226 122.458 54.7935 121.39C53.0654 117.118 51.7482 112.67 50.9897 108.114C50.6105 105.836 50.3655 103.538 50.2984 101.22C50.2976 100.927 50.2691 100.682 50.2952 100.294C50.3212 99.9334 50.4554 99.5174 50.6859 99.2022C50.9147 98.8858 51.1807 98.6669 51.4313 98.4789C51.6843 98.292 51.9317 98.1332 52.1759 97.9768L52.8989 97.5201L53.2548 97.2922C53.3527 97.2286 53.376 97.2021 53.4044 97.1681C53.4383 97.1215 53.4644 97.0204 53.4135 96.813C53.3649 96.6179 53.2584 96.3868 53.1369 96.1612C52.6211 95.2423 51.9005 94.331 51.2446 93.3919C50.5785 92.4541 49.9306 91.4768 49.4097 90.4165C48.8824 89.3665 48.5218 88.1849 48.4022 87.0176C48.2787 85.8451 48.3501 84.6406 48.7293 83.5456Z" fill="black"/>
<path d="M92.0647 30.1498C84.7142 29.436 75.5022 33.7084 72.8594 43.4497C69.9661 54.1158 75.2172 64.309 86.4836 66.3625C91.5383 67.2837 96.5125 67.102 99.0468 66.4683C101.58 65.8347 102.963 67.9983 104.853 67.3137C105.848 66.953 107.701 65.2259 107.409 64.4232C105.66 63.6205 104.057 61.4312 104.931 58.4399C106.535 61.2854 109.92 61.5015 110.448 61.1847C111.418 60.7019 113.298 56.9573 112.77 56.1119C112.243 55.2665 109.181 55.6896 108.231 53.9985C108.864 47.8682 109.691 31.8616 92.0647 30.1498Z" fill="#F6F6E5"/>
<path d="M92.066 30.1482C93.2893 30.2668 94.4216 30.4524 95.4712 30.7013C91.3834 30.4919 86.0003 32.4039 82.5952 40.4193C78.6214 49.7699 82.0187 66.0298 97.7403 66.7211C95.0095 67.132 90.7796 67.1438 86.4858 66.3616C75.2198 64.3074 69.9674 54.1154 72.86 43.4493C75.5035 33.7076 84.7139 29.4372 92.066 30.1482Z" fill="#E6E6CF"/>
<path d="M109.062 57.1505L109.166 57.1738C109.22 57.1845 109.274 57.1979 109.326 57.2117C109.418 57.2433 109.505 57.2828 109.586 57.331C109.746 57.4286 109.877 57.5617 109.966 57.7118C110.151 58.0152 110.142 58.3633 110.036 58.626C110.013 58.3376 109.868 58.0899 109.673 57.9757C109.576 57.9173 109.472 57.8876 109.371 57.8841C109.321 57.8829 109.272 57.888 109.226 57.8963C109.208 57.9042 109.194 57.9101 109.177 57.9153L109.073 57.9414C108.855 57.9959 108.635 57.8639 108.58 57.6467C108.526 57.429 108.658 57.2089 108.875 57.154C108.938 57.1374 109.002 57.1378 109.062 57.1505Z" fill="black"/>
<path d="M103.086 52.2772C103.086 54.4598 102.303 56.4169 101.065 57.743C99.0683 56.8802 95.5167 56.0902 92.49 56.5496C91.7792 55.3526 91.3594 53.8752 91.3594 52.2776C91.3594 48.2822 93.9844 45.0428 97.2222 45.0428C100.461 45.0428 103.086 48.2818 103.086 52.2772Z" fill="#F6F6E5"/>
<path d="M91.9004 56.7274C91.7793 56.5429 91.6482 56.3252 91.546 56.1238C91.4189 55.8709 91.3002 55.6134 91.1968 55.3495C90.9872 54.8225 90.8298 54.2738 90.7359 53.7144C90.6317 53.1586 90.595 52.5822 90.5978 52.0268C90.6017 51.4473 90.6656 50.8871 90.7773 50.325C90.9987 49.205 91.451 48.1234 92.1139 47.1725C92.7868 46.2339 93.6801 45.415 94.7637 44.9247C95.8513 44.4385 97.0766 44.2986 98.2246 44.5787C99.3654 44.8481 100.367 45.4904 101.123 46.3026C102.645 47.9417 103.278 50.1914 103.087 52.2776C102.902 50.1989 102.061 48.1783 100.569 46.8739C99.8319 46.2284 98.9377 45.7938 98.0174 45.6761C97.7901 45.6473 97.5517 45.635 97.3331 45.6433C97.0936 45.6528 96.873 45.6718 96.6472 45.7152C96.2001 45.797 95.77 45.955 95.3719 46.1715C94.572 46.6013 93.8857 47.2571 93.3786 48.0416C92.8569 48.8175 92.5101 49.7138 92.3073 50.6418C92.2086 51.1048 92.1538 51.5883 92.1301 52.0548C92.11 52.5455 92.1301 53.0179 92.1849 53.4959C92.3029 54.4519 92.6798 55.5806 93.1261 56.4607C92.5579 56.5101 92.3357 56.5844 91.9004 56.7274Z" fill="black"/>
<path d="M103.085 51.9375C103.085 54.8999 101.337 57.3006 99.1796 57.3006C97.0226 57.3006 95.2744 54.8999 95.2744 51.9375C95.2744 48.9759 97.0226 46.5752 99.1796 46.5752C101.337 46.5752 103.085 48.9759 103.085 51.9375Z" fill="black"/>
<path d="M100.281 50.7583C99.5948 52.0237 98.2923 52.6427 97.3712 52.1426C96.4494 51.6417 96.2592 50.2104 96.945 48.9455C97.6309 47.6806 98.9335 47.0612 99.8546 47.5617C100.776 48.0622 100.967 49.4934 100.281 50.7583Z" fill="#F6F6E5"/>
<path d="M90.6992 57.0123C93.4616 55.169 99.0363 55.8493 102.373 58.3969C99.2056 57.0944 93.4138 56.503 90.6992 57.0123Z" fill="#BFAF90"/>
<path d="M92.3955 43.6468C94.6646 40.1902 100.781 40.684 103.05 45.622C100.091 42.2642 95.2565 42.2642 92.3955 43.6468Z" fill="black"/>
<path d="M110.736 61.6626C110.728 61.6669 110.722 61.6693 110.714 61.6732C110.708 61.6768 110.704 61.6803 110.697 61.6834L110.736 61.6626Z" fill="black"/>
<path d="M113.458 56.3687C113.435 56.1921 113.426 56.0068 113.24 55.7346C113.219 55.7066 113.217 55.7003 113.179 55.6545C113.134 55.6039 113.086 55.5549 113.036 55.5099C112.959 55.4486 112.881 55.3914 112.809 55.3515C112.512 55.1808 112.262 55.118 112.018 55.0489C111.534 54.9252 111.091 54.8513 110.668 54.751C109.899 54.5823 109.191 54.3149 108.844 53.846C109.202 50.6189 109.265 47.31 108.683 44.0529C108.387 42.3921 107.919 40.7472 107.221 39.1864C106.527 37.6264 105.589 36.1556 104.415 34.8931C103.245 33.627 101.851 32.5742 100.34 31.7691C98.8274 30.9612 97.2067 30.3924 95.5588 30.0104C94.7348 29.8176 93.9026 29.673 93.0676 29.5636L92.4409 29.4893L92.12 29.4561L91.8135 29.4301C91.3778 29.3965 90.9531 29.3803 90.5254 29.3787C88.8167 29.3732 87.1147 29.6102 85.4739 30.0606C82.1974 30.9715 79.1485 32.7346 76.7891 35.1988C75.6092 36.4274 74.6049 37.8243 73.8172 39.3322C73.0288 40.8381 72.4546 42.4561 72.0837 44.0991C71.33 47.3791 71.2751 50.861 72.1638 54.1367C73.0454 57.3978 75.007 60.4131 77.75 62.2876C76.6447 61.057 75.6897 59.7388 74.9277 58.3237C74.1701 56.9079 73.5896 55.4111 73.2076 53.863C72.4247 50.7678 72.4902 47.4815 73.2423 44.3717C73.9645 41.2584 75.4869 38.3552 77.7141 36.0972C79.9259 33.8308 82.7826 32.2171 85.8385 31.4005C87.3661 30.9901 88.9453 30.7653 90.5207 30.772C90.9145 30.7732 91.3107 30.7886 91.6939 30.8178L92.0005 30.8439L92.2917 30.8743L92.8884 30.945C93.6816 31.0489 94.4692 31.1856 95.2439 31.367C98.3385 32.0721 101.273 33.5251 103.394 35.84C104.455 36.9884 105.32 38.3165 105.979 39.7505C106.637 41.1853 107.092 42.7208 107.388 44.2911C107.977 47.442 107.949 50.7034 107.643 53.9376L107.624 54.1407L107.716 54.2892L107.721 54.2975C108.012 54.8249 108.494 55.2057 108.966 55.4427C109.444 55.6845 109.928 55.822 110.392 55.9337C110.855 56.0428 111.313 56.1178 111.714 56.2198C111.907 56.2699 112.102 56.332 112.199 56.3928C112.227 56.4066 112.24 56.4196 112.254 56.4276C112.257 56.4386 112.261 56.4524 112.26 56.4678C112.27 56.5852 112.248 56.7783 112.205 56.9672C112.163 57.1592 112.106 57.3595 112.038 57.5589C111.903 57.9595 111.732 58.3601 111.541 58.7496C111.349 59.1387 111.137 59.5195 110.902 59.8735C110.785 60.0497 110.663 60.2199 110.535 60.3697C110.416 60.5146 110.26 60.6577 110.2 60.6857L110.261 60.6569L110.176 60.6995C110.168 60.7031 110.153 60.7082 110.138 60.711C110.101 60.7201 110.052 60.7284 110.001 60.7347C109.896 60.7465 109.78 60.7509 109.662 60.7489C109.424 60.7454 109.177 60.7181 108.932 60.6746C108.441 60.5877 107.96 60.4277 107.504 60.2195C106.593 59.7969 105.805 59.1209 105.263 58.2534L104.766 57.4574L104.564 58.3336V58.3356C104.376 58.9293 104.255 59.5567 104.253 60.1974C104.248 60.8366 104.355 61.4864 104.583 62.0968C104.99 63.1879 105.768 64.1364 106.786 64.7526C106.773 64.7787 106.761 64.8064 106.743 64.8348C106.667 64.9802 106.545 65.1429 106.414 65.2974C106.146 65.6095 105.818 65.9002 105.481 66.159C105.312 66.2882 105.137 66.4083 104.966 66.5066C104.884 66.5544 104.787 66.6042 104.727 66.6295C104.646 66.6642 104.566 66.6935 104.487 66.7144C104.169 66.8009 103.842 66.7772 103.457 66.6639C102.686 66.4505 101.782 65.9054 100.686 65.7604C100.141 65.6834 99.5827 65.7067 99.037 65.837C98.5721 65.9642 98.1569 66.0622 97.6972 66.1463C95.8875 66.4719 94.0099 66.5825 92.1347 66.622C90.2571 66.6421 88.372 66.5509 86.4837 66.3644C88.3187 66.8535 90.2058 67.1644 92.1094 67.3255C93.0613 67.4121 94.0186 67.4579 94.9787 67.4531C95.9392 67.4539 96.9024 67.4069 97.8712 67.2872C98.3467 67.2299 98.8609 67.1446 99.3139 67.0435C99.6924 66.9712 100.096 66.9684 100.485 67.0411C100.877 67.1138 101.271 67.2568 101.69 67.4302C102.109 67.6033 102.548 67.8178 103.072 67.9778C103.59 68.1358 104.24 68.2053 104.84 68.035C104.989 67.9947 105.132 67.9454 105.268 67.8818C105.424 67.8107 105.535 67.7478 105.655 67.6748C105.891 67.5325 106.103 67.3781 106.307 67.2153C106.714 66.8894 107.074 66.5228 107.406 66.1021C107.569 65.8868 107.726 65.6628 107.857 65.3823C107.922 65.2413 107.98 65.0892 108.015 64.8996C108.048 64.7143 108.06 64.4781 107.965 64.2229L107.964 64.2221L107.884 63.9823L107.655 63.8863C106.715 63.4913 105.91 62.698 105.484 61.7318C105.27 61.2482 105.148 60.7205 105.12 60.1808C105.107 59.9486 105.116 59.7143 105.137 59.4804C105.289 59.6823 105.453 59.8763 105.631 60.0572C106.051 60.4755 106.536 60.8283 107.059 61.1068C107.58 61.3893 108.144 61.5868 108.725 61.714C109.017 61.7764 109.313 61.8207 109.622 61.8368C109.777 61.8447 109.934 61.8459 110.103 61.8325C110.188 61.8254 110.275 61.8155 110.372 61.7958C110.465 61.774 110.563 61.7551 110.712 61.6757C111.045 61.4928 111.209 61.3 111.386 61.1092C111.558 60.9136 111.705 60.7153 111.843 60.5142C112.12 60.1121 112.36 59.6993 112.579 59.2734C112.797 58.8476 112.993 58.411 113.158 57.9496C113.24 57.7181 113.315 57.4811 113.373 57.2279C113.429 56.9703 113.479 56.7076 113.458 56.3687ZM110.179 60.6968C110.184 60.6952 110.184 60.6948 110.179 60.6968ZM112.234 56.4011C112.234 56.3983 112.243 56.4102 112.254 56.4244C112.254 56.4252 112.254 56.4256 112.255 56.4268C112.245 56.4212 112.238 56.4117 112.234 56.4011Z" fill="black"/>
<path d="M84.6302 85.4346C87.5212 85.0913 87.7524 87.7579 89.7358 93.5543C91.9815 100.119 96.8551 109.99 89.9777 111.046C82.3481 112.216 75.4171 112.633 68.2066 113.285C64.1369 113.652 68.6612 99.109 72.6752 99.4886C76.5121 99.8512 80.1599 100.951 84.0892 101.751C83.1602 97.9744 82.48 95.3505 82.1556 91.8667C81.8316 88.3832 82.1074 85.7345 84.6302 85.4346Z" fill="#E6E6CF"/>
<path d="M93.021 103.189C92.6173 108.421 85.4309 103.005 84.3808 92.5256C83.779 86.5641 85.0931 84.9132 86.7769 86.0785C87.8613 87.1835 88.4032 89.6655 89.735 93.5551C90.7318 96.4689 92.2495 100.035 93.021 103.189Z" fill="#F6F6E5"/>
<path d="M76.4896 100.061C73.7201 102.675 70.6413 109.333 72.7091 112.899C71.2139 113.023 69.7179 113.15 68.2073 113.285C64.1384 113.654 68.6611 99.1101 72.676 99.487C73.9617 99.6079 75.2296 99.8129 76.4896 100.061Z" fill="#807E75"/>
<path d="M94.101 107.719C94.2158 106.827 94.1611 105.961 94.0486 105.123C93.811 103.446 93.3378 101.86 92.8217 100.305C92.3008 98.7514 91.718 97.2325 91.147 95.7187C90.5649 94.2081 90.0617 92.6939 89.4951 91.1746C89.2082 90.4177 88.9111 89.6596 88.5693 88.9126C88.2295 88.1695 87.8471 87.4157 87.3053 86.7872C87.576 87.5639 87.7386 88.3469 87.932 89.1318C88.1147 89.9175 88.3013 90.7056 88.5101 91.491C88.9232 93.0605 89.4726 94.6114 90.0337 96.1331C90.5909 97.6564 91.1544 99.1686 91.6493 100.693C92.1378 102.215 92.5758 103.755 92.7767 105.292C92.873 106.058 92.9069 106.825 92.8059 107.542C92.7072 108.259 92.4582 108.912 92.0206 109.38C91.5873 109.854 90.9615 110.152 90.2602 110.303C89.9256 110.376 89.5081 110.423 89.1095 110.485L87.9142 110.65C84.7209 111.083 81.5107 111.396 78.293 111.685L68.6193 112.52L68.3162 112.547L68.1643 112.561C68.1643 112.561 68.0511 112.57 68.0574 112.567C67.9709 112.568 67.8786 112.549 67.8246 112.518C67.7129 112.468 67.5708 112.286 67.4809 111.99C67.2989 111.399 67.3052 110.618 67.3806 109.871C67.544 108.353 67.9709 106.819 68.5305 105.36C69.1031 103.913 69.8 102.475 70.7518 101.332C71.2175 100.776 71.7948 100.289 72.311 100.187C72.3749 100.175 72.4365 100.166 72.4968 100.164C72.5615 100.163 72.5971 100.165 72.7166 100.177L73.3094 100.237C73.7024 100.281 74.0962 100.333 74.4901 100.391C77.6371 100.859 80.7617 101.721 83.97 102.331L83.9708 102.332L84.8555 102.552L84.663 101.61C84.2052 99.357 83.6061 97.1571 83.1452 94.9432C82.9116 93.8352 82.7257 92.7211 82.5348 91.5965C82.352 90.4765 82.1823 89.3609 82.1571 88.2007C81.785 89.3123 81.7309 90.5069 81.7341 91.6676C81.7404 92.8278 81.8513 93.9888 82.0099 95.14C82.2866 97.1223 82.7376 99.056 83.2577 100.958C80.4382 100.315 77.6206 99.532 74.6925 99.0663C74.2857 99.0019 73.8772 98.943 73.4672 98.8921L72.8528 98.8225C72.7703 98.8131 72.6046 98.7965 72.4664 98.7992C72.3248 98.8024 72.1851 98.8178 72.0493 98.8431C71.5059 98.9501 71.058 99.2042 70.6804 99.4846C70.302 99.7691 69.9816 100.089 69.6923 100.422C68.5578 101.769 67.8048 103.283 67.1904 104.839C66.5914 106.403 66.1328 108.016 65.945 109.723C65.8688 110.58 65.8195 111.456 66.1012 112.425C66.179 112.668 66.2832 112.918 66.4513 113.165C66.6155 113.408 66.8573 113.649 67.1588 113.803C67.4639 113.961 67.7816 114.021 68.0992 114.014C68.2058 114.012 68.1931 114.01 68.295 114.004L68.4453 113.99L68.7468 113.964L78.424 113.139C81.6552 112.845 84.8851 112.478 88.1036 112.016L89.3115 111.836C89.7133 111.77 90.1 111.727 90.5562 111.625C91.4271 111.431 92.3426 111.015 93.0024 110.278C93.6701 109.546 93.9893 108.6 94.101 107.719Z" fill="black"/>
<path d="M79.6934 33.7372C79.0604 30.0057 63.8471 25.3663 63.5957 39.3314C58.7024 40.7449 56.5782 47.9875 58.2739 54.495C60.1566 61.7203 65.5822 66.1124 61.0062 68.3507C65.1497 68.5514 68.6981 64.6263 66.7684 57.892C63.2768 45.7081 68.4424 38.409 79.6934 33.7372Z" fill="#6B6B6B"/>
<path d="M69.3391 31.7983C68.364 32.0136 65.4631 33.4587 65.6395 37.2953C66.4805 35.2439 67.7421 33.9758 70.2523 33.1261C71.7013 32.635 71.06 31.4183 69.3391 31.7983Z" fill="#858585"/>
<path d="M62.1118 66.5134C62.3707 65.3401 61.6193 63.6541 60.5132 61.4758C59.5677 59.6144 58.3906 57.2979 57.7008 54.6444C56.0777 48.4189 57.8448 40.7524 63.0151 38.8961C63.1493 35.5343 64.1567 32.9914 66.0134 31.3338C67.7375 29.7927 70.2023 29.0903 72.9508 29.3546C76.5872 29.705 79.9415 31.6664 80.2761 33.6377L80.3547 34.1038L79.919 34.2847C68.1507 39.1702 64.1528 46.6195 67.3358 57.7288C68.3547 61.2838 67.9841 64.4193 66.292 66.5584C65.0135 68.1749 62.8474 68.9247 60.2449 68.5095C60.2449 68.5095 61.8352 67.7688 62.1118 66.5134ZM72.8376 30.5346C70.4205 30.3019 68.2761 30.8996 66.8003 32.2187C65.1239 33.7159 64.2451 36.1122 64.1867 39.3417L64.1788 39.7786L63.759 39.9002C59.385 41.1644 57.1345 47.7797 58.8456 54.3449C59.5046 56.8752 60.6012 59.0341 61.5692 60.9385C62.8 63.3641 63.7728 65.2789 63.2349 66.8891C63.1615 67.1087 63.0621 67.3157 62.9374 67.5108C63.886 67.2047 64.727 66.6271 65.3643 65.822C66.8125 63.991 67.1085 61.2329 66.1981 58.0547C64.444 51.9324 64.7676 46.9095 67.1886 42.7015C69.3673 38.9119 73.2172 35.8681 78.9494 33.4078C78.2805 32.2104 75.751 30.8151 72.8376 30.5346Z" fill="black"/>
<path d="M79.6909 33.7372C77.324 33.241 67.1933 34.1232 63.3553 43.8724C59.2919 54.1964 65.1603 61.0128 64.1315 64.6827C63.0755 68.451 57.131 69.4655 55.6894 64.8633C55.176 69.1783 59.0985 71.7919 65.8572 69.413C70.063 67.9327 73.8237 62.8375 72.3952 53.9696C70.9679 45.1006 71.8727 37.7469 79.6909 33.7372Z" fill="#6B6B6B"/>
<path d="M65.5938 61.4047C63.2198 54.67 63.0682 49.5653 64.7497 44.9757C65.8673 41.926 68.0254 42.7619 66.9071 46.7783C66.1786 49.395 64.7264 55.182 65.5938 61.4047Z" fill="#858585"/>
<path d="M60.2694 70.8639L60.2686 70.8635C58.4806 70.6917 57.0509 69.9992 56.135 68.8603C55.2704 67.7862 54.9227 65.7802 55.6263 63.9634C55.6263 63.9634 56.5758 66.7994 59.305 67.3173C60.9466 67.6286 63.0144 66.4758 63.5617 64.5227C63.8794 63.3921 63.4098 61.7966 62.8171 59.7771C61.6703 55.8733 60.0993 50.5268 62.8056 43.6547C66.5707 34.088 76.1871 32.7804 79.2584 33.0759C79.464 33.0957 79.6507 33.1229 79.8133 33.1569L81.4502 33.5002L79.9613 34.2646C73.3968 37.6311 71.3096 43.4959 72.98 53.8756C74.5163 63.4166 70.2087 68.5091 66.0541 69.9719C63.9094 70.7265 61.9631 71.0275 60.2694 70.8639ZM56.6184 67.4148C56.7372 67.6661 56.8835 67.9007 57.0576 68.1164C57.7691 69.0009 58.919 69.5433 60.3819 69.684C60.3827 69.684 60.3827 69.684 60.3835 69.684C61.9047 69.8313 63.6805 69.5512 65.6623 68.854C69.3859 67.5432 73.2318 62.8833 71.812 54.0636C70.7205 47.2859 70.4746 39.0663 77.6618 34.2436C73.9615 34.4625 66.9246 36.4231 63.9074 44.0893C61.3506 50.5829 62.8553 55.7035 63.9536 59.4425C64.6004 61.6445 65.1106 63.3846 64.7018 64.8431C64.0514 67.166 61.6829 68.7374 59.1925 68.4973C58.1945 68.4013 57.3196 68.026 56.6184 67.4148Z" fill="black"/>
<path d="M79.6728 33.7159C77.2834 33.4856 71.3326 36.7387 70.1882 44.572C68.6105 55.3649 74.5838 58.959 71.0153 63.8054C68.7739 66.848 62.2374 68.963 62.6861 75.2189C62.999 79.5706 68.6788 81.2831 65.5794 85.5642C68.1227 84.2203 68.2624 81.6561 66.723 79.0998C65.5616 77.1708 65.8773 73.9954 70.0812 71.865C75.3656 69.1866 81.9013 65.2907 78.8607 55.8271C75.4848 45.3174 76.2779 37.9819 79.6728 33.7159Z" fill="#6B6B6B"/>
<path d="M71.985 50.7433C72.2048 53.0172 72.8638 54.6535 73.7123 57.7597C74.5145 60.6928 74.1093 63.8299 70.9945 66.2104C68.0712 68.4439 65.9185 69.8677 65.4561 71.6635C66.4181 70.0407 70.1035 68.1789 72.4306 66.5805C75.3796 64.5552 76.5224 62.2856 76.1163 59.0582C75.5153 54.273 74.6673 52.2745 74.2659 50.2851C73.4534 46.2545 71.6591 47.3729 71.985 50.7433Z" fill="#858585"/>
<path d="M64.3132 79.9341C63.3396 78.6573 62.2359 77.2103 62.0958 75.2611C61.7619 70.6151 65.0475 68.075 67.6891 66.0326C68.8252 65.1544 69.8982 64.3244 70.5394 63.4542C72.1688 61.2411 71.6053 59.3521 70.7529 56.4927C69.8844 53.5785 68.8039 49.9524 69.6022 44.4867C70.7521 36.6151 76.6359 32.9554 79.6066 33.1174C79.6481 33.1198 79.6899 33.1229 79.7301 33.1265L80.8161 33.232L80.1362 34.0856C76.5767 38.5579 76.3301 46.0131 79.4247 55.6462C82.7805 66.0918 74.694 70.1908 70.3493 72.3931C68.4788 73.3412 67.2787 74.5813 66.877 75.9797C66.598 76.9519 66.7235 77.9514 67.2302 78.7928C68.2183 80.4342 68.5395 82.0266 68.1591 83.3978C67.8454 84.5276 66.4101 85.7092 64.8325 86.2492C66.4895 83.6356 65.9386 82.0665 64.3132 79.9341ZM78.4259 34.4546C75.9327 35.1515 71.7142 38.2201 70.7731 44.6577C70.0123 49.8647 71.0521 53.3518 71.8875 56.1542C72.7714 59.1237 73.4715 61.4691 71.4913 64.1569C70.7521 65.1611 69.6153 66.0401 68.4121 66.9704C65.8695 68.9369 62.9884 71.1646 63.2757 75.1762C63.3905 76.7722 64.3368 78.0142 65.2535 79.2151C66.0945 80.3181 66.9524 81.4427 67.0842 82.7744C67.2452 81.7943 66.9425 80.612 66.2148 79.4055C65.5467 78.2943 65.3723 76.927 65.7385 75.6522C66.0838 74.4505 67.0703 72.7273 69.8141 71.336C75.3929 68.5087 81.1085 64.759 78.2968 56.0088C74.6356 44.6083 76.147 38.0842 78.4259 34.4546Z" fill="black"/>
<path d="M83.7764 31.5029C83.9891 29.2223 86.9747 20.8055 97.4538 22.2941C107.147 23.6708 107.024 34.2749 112.128 35.0938C116.293 35.761 116.323 29.6331 113.057 28.7877C117.975 28.6507 118.959 33.8063 117.781 36.6641C116.313 40.2246 110.54 43.2285 105.91 38.0191C100.005 31.3753 91.14 27.9992 83.7764 31.5029Z" fill="#6B6B6B"/>
<path d="M111.982 41.3959C110.326 41.5156 107.851 41.0956 105.468 38.4133C100.826 33.1921 94.6764 30.3189 89.0148 30.729C87.2667 30.8554 85.5904 31.2963 84.0312 32.0381L83.0908 32.4853L83.1871 31.4483C83.3675 29.5126 85.7289 22.1625 93.9914 21.5648C95.1074 21.4834 96.3007 21.5316 97.5358 21.707C103.45 22.5473 105.899 26.6834 107.867 30.0064C109.204 32.2621 110.357 34.2093 112.221 34.5083C112.471 34.5486 112.709 34.5613 112.93 34.5451C114.49 34.4321 114.744 32.9562 114.785 32.5063C114.927 30.9419 114.318 29.5391 112.045 28.5827C115.256 28.0249 116.993 29.3582 117.715 30.405C119.127 32.4557 119.022 35.2044 118.328 36.8908C117.316 39.346 114.706 41.1987 111.982 41.3959ZM88.9292 29.5474C94.955 29.1109 101.468 32.1302 106.352 37.626C107.985 39.4629 109.902 40.3585 111.896 40.2139C114.454 40.0282 116.518 38.1743 117.233 36.4385C117.828 34.9946 117.85 32.6896 116.74 31.0782C116.36 30.5263 115.884 30.1068 115.318 29.8232C115.833 30.6658 116.047 31.6937 115.964 32.6133C115.803 34.3867 114.645 35.6089 113.014 35.727C112.704 35.7496 112.374 35.7334 112.033 35.6788C109.621 35.2921 108.275 33.0182 106.848 30.6109C104.914 27.3439 102.72 23.6408 97.3697 22.8807C96.2167 22.7172 95.1085 22.6717 94.0754 22.7468C87.7398 23.2054 85.266 28.0328 84.5746 30.5153C85.9621 29.9816 87.4217 29.6564 88.9292 29.5474Z" fill="black"/>
<path d="M77.5042 36.4132C75.6831 33.6977 72.6564 25.0724 80.8853 21.6126C88.8531 18.2631 96.4637 23.653 97.3551 30.5192C90.8372 27.9218 80.9789 31.1118 77.5042 36.4132Z" fill="#6B6B6B"/>
<path d="M78.4851 26.647C78.6915 23.5629 85.6474 19.6832 92.0615 24.436C88.3521 23.6597 85.4071 23.9975 82.4282 26.0548C80.0518 27.6962 78.4232 27.5769 78.4851 26.647Z" fill="#858585"/>
<path d="M77.5103 37.485L77.0131 36.7435C75.6789 34.754 74.1004 30.437 75.2187 26.6972C75.978 24.1586 77.8078 22.264 80.657 21.0663C82.0453 20.4824 83.471 20.1348 84.8952 20.0317C91.2837 19.5687 97.1367 24.2396 97.9425 30.443L98.0727 31.4428L97.1363 31.0695C95.3498 30.358 93.1822 30.0704 90.8685 30.2375C85.5467 30.6231 80.2553 33.2955 77.9996 36.7379L77.5103 37.485ZM84.982 21.214C83.6849 21.3076 82.3846 21.6256 81.1159 22.1589C78.6081 23.2137 77.0056 24.8547 76.3529 27.0381C75.4733 29.9784 76.4756 33.3445 77.5521 35.3415C80.2237 31.9769 85.5029 29.4392 90.7833 29.0568C92.8712 28.9055 94.8573 29.1026 96.5948 29.6276C95.4208 24.5268 90.4163 20.8202 84.982 21.214Z" fill="black"/>
<path d="M79.7783 33.7993C82.2656 31.7822 89.5321 28.9102 95.26 33.2976C100.752 37.5039 103.235 43.7804 109.063 43.7456C114.098 43.7164 115.775 39.2911 114.781 36.9631C114.642 38.2549 113.534 39.9852 110.941 39.41C107.671 38.6851 107.063 34.4448 101.832 30.1337C96.6064 25.8257 86.4115 23.2185 79.7783 33.7993Z" fill="#6B6B6B"/>
<path d="M95.1598 28.4725C97.9028 29.0303 100.989 31.2102 102.881 33.3493C105.591 36.414 106.149 39.0343 109.072 40.336C105.751 40.0413 105.049 38.4568 102.733 35.6769C101.049 33.6555 99.6154 31.7115 95.1472 30.3814C91.2918 29.2318 90.9173 27.6097 95.1598 28.4725Z" fill="#858585"/>
<path d="M109.419 44.3302C109.303 44.3354 109.185 44.3385 109.066 44.3385C105.016 44.363 102.463 41.525 99.7603 38.5204C98.2959 36.8924 96.7822 35.2099 94.9002 33.768C92.8632 32.2072 90.4576 31.4776 87.7517 31.6004C84.3158 31.7561 81.4631 33.0329 78.9375 34.5909C82.0297 27.989 87.835 25.9466 91.1446 25.7973C94.9195 25.6266 99.0564 27.0768 102.209 29.6758C104.721 31.7462 106.192 33.8004 107.373 35.4501C108.638 37.2187 109.554 38.4955 111.069 38.832C111.42 38.9091 111.751 38.9419 112.053 38.9284C113.717 38.8534 114.712 37.7761 114.637 36.083C115.53 37.5229 115.683 39.9421 114.75 41.4287C113.642 43.1949 111.749 44.2252 109.419 44.3302ZM87.6977 30.4173C90.6897 30.2814 93.3549 31.0928 95.62 32.8266C97.5884 34.3353 99.14 36.0604 100.641 37.7279C103.27 40.6504 105.54 43.1743 109.06 43.1534C109.163 43.153 109.265 43.1506 109.365 43.1459C111.296 43.0586 112.853 42.2247 113.748 40.7982C114.077 40.2755 114.296 39.6901 114.397 39.1125C113.856 39.6711 113.092 40.0677 112.106 40.1124C111.7 40.1306 111.265 40.0887 110.813 39.9887C108.855 39.5546 107.776 38.0483 106.411 36.141C105.27 34.547 103.849 32.5628 101.456 30.5911C98.5229 28.1731 94.6879 26.8236 91.1971 26.9812C87.6681 27.1404 84.5119 28.8012 81.9488 31.8205C83.5774 31.0837 85.5959 30.5117 87.6977 30.4173Z" fill="black"/>
<path d="M84.2288 42.3219C85.2332 36.4429 81.6145 27.6054 74.6302 27.8195C71.9688 35.3166 74.3697 41.67 76.0081 44.1726C78.5795 48.097 83.2841 47.8512 84.2288 42.3219Z" fill="#F6F6E5"/>
<path d="M84.6357 37.3416C84.5153 36.5033 84.3089 35.6784 84.0422 34.8718C83.773 34.0655 83.4471 33.2738 83.034 32.5217C82.2222 31.017 81.1062 29.6217 79.6418 28.6199C78.1912 27.6078 76.3621 27.0982 74.612 27.2273L74.1826 27.2593L74.0726 27.6212C73.4368 29.2827 73.0189 31.0399 72.8634 32.8227C72.7064 34.6051 72.7979 36.4101 73.1401 38.1633C73.305 39.0414 73.5426 39.9042 73.8322 40.7472C74.125 41.5894 74.4687 42.4155 74.9044 43.1984C75.3321 43.9782 75.857 44.7387 76.5306 45.3558C77.1979 45.9657 78.0089 46.4457 78.8782 46.6017C78.1134 46.1695 77.4962 45.5865 76.9923 44.9275C76.4844 44.2737 76.1068 43.5346 75.7584 42.7698C75.0701 41.2402 74.6006 39.6079 74.3377 37.9515C74.0757 36.2935 74.0224 34.6071 74.1704 32.9392C74.245 32.1049 74.3717 31.2757 74.5382 30.4532C74.6791 29.7722 74.8642 29.1014 75.0654 28.4334C75.6806 28.4741 76.2848 28.5752 76.8629 28.7633C77.5704 28.9959 78.2417 29.3329 78.8577 29.7627C80.0909 30.6235 81.0983 31.8272 81.8813 33.1691C82.2676 33.8443 82.6133 34.5494 82.8954 35.2834C83.1784 36.017 83.4033 36.7747 83.5931 37.543C83.9692 39.0841 84.1858 40.6619 84.2288 42.3226C84.8105 40.752 84.8721 39.0086 84.6357 37.3416Z" fill="black"/>
<path d="M81.9423 41.5681C82.5804 37.767 80.7506 32.0603 76.3644 31.5918C75.3076 36.8328 76.4761 40.4719 77.5104 42.0888C79.1338 44.6241 81.3413 45.144 81.9423 41.5681Z" fill="#E6E6CF"/>
<path d="M77.5112 42.0888C78.0191 42.7212 78.6035 43.313 79.2823 43.6571C79.6193 43.8254 79.9859 43.8969 80.2905 43.8199C80.5956 43.7444 80.8378 43.5117 81.0142 43.2103C81.3666 42.6008 81.5067 41.8107 81.5647 41.0463C81.6287 40.2763 81.5963 39.4938 81.483 38.725C81.2778 37.1836 80.7447 35.6895 79.9322 34.4068C79.1236 33.1214 77.9591 32.0741 76.3652 31.5914C77.1908 31.508 78.0617 31.7067 78.8245 32.118C79.5885 32.5327 80.2495 33.136 80.7597 33.8344C81.2731 34.5321 81.6559 35.3123 81.929 36.1197C82.2032 36.9268 82.3923 37.7587 82.4823 38.6026C82.5655 39.4464 82.5655 40.2993 82.4515 41.1454C82.3876 41.5772 82.2995 41.979 82.1685 42.3997C82.0359 42.8113 81.8702 43.2281 81.5912 43.6022C81.3228 43.9712 80.8991 44.3144 80.392 44.3788C79.8872 44.4496 79.4315 44.2516 79.0747 44.0142C78.3538 43.5188 77.8841 42.8101 77.5112 42.0888Z" fill="black"/>
</svg>
