<svg width="132" height="137" viewBox="0 0 132 137" fill="none" xmlns="http://www.w3.org/2000/svg">
<path d="M17.1615 89.9476C16.6021 88.0015 17.1915 85.3023 19.7567 86.1357C22.322 86.9686 28.2636 94.005 34.7873 88.7426C41.3101 83.4818 36.3757 77.499 38.8172 73.847C40.9064 70.7222 44.4437 71.5296 48.2835 73.9389C47.1089 68.9887 41.893 61.1101 34.7585 61.5187C28.9266 61.8531 23.3879 67.7468 25.7545 75.3825C27.5396 81.1413 26.2784 84.7192 21.9232 83.1206C16.4193 81.1004 13.6344 85.1703 17.1615 89.9476Z" fill="#6B6B6B"/>
<path d="M34.7236 60.9129C32.7865 61.0239 30.8874 61.7001 29.2314 62.8679C26.061 65.1039 23.3311 69.6135 25.1748 75.5635C26.2499 79.0317 26.1654 81.7171 24.9539 82.5719C24.1716 83.1234 22.9877 82.8651 22.1322 82.5513C19.8816 81.7256 17.8935 81.7989 16.5328 82.759C15.7234 83.3295 15.2085 84.1714 15.0435 85.1938C14.7053 87.2869 16.4183 89.7711 17.4931 90.8295C17.2301 87.8776 17.6921 87.3039 18.2304 86.7726C18.5071 86.4993 18.9986 86.5288 19.5693 86.7139C20.0895 86.8823 20.858 87.4063 21.7467 88.0133C24.6311 89.9796 29.4591 93.2724 34.5804 89.6597C34.7754 89.5224 34.9711 89.3746 35.1669 89.2167C39.4234 85.783 39.0824 81.9613 38.8077 78.8912C38.6411 77.0273 38.4971 75.4173 39.3211 74.1855C39.6394 73.7093 40.003 73.3255 40.4019 73.044C42.0611 71.8734 44.6041 72.348 47.961 74.4548L49.2157 75.242L48.8735 73.7992C47.7555 69.0871 42.4563 60.4695 34.7236 60.9129ZM39.7033 72.0504C39.1823 72.4184 38.7143 72.9092 38.3126 73.5089C37.2509 75.0982 37.4199 76.9929 37.5991 78.9993C37.8738 82.0694 38.1573 85.2444 34.4057 88.2704C29.7827 92.0119 25.5085 89.1078 22.4303 87.0091C21.4239 86.3227 20.6287 85.7805 19.9435 85.5578C18.7555 85.1723 17.9764 85.4659 17.5315 85.7793C16.9773 86.1705 16.6448 86.7734 16.4818 87.4517C16.2242 86.7147 16.1396 86.0142 16.2412 85.3878C16.3528 84.6953 16.6954 84.1301 17.2318 83.7515C18.2422 83.0388 19.8763 83.0165 21.7139 83.6915C22.6079 84.0199 23.4035 84.1495 24.1041 84.0948C25.6399 84.3147 27.2001 83.9462 28.4164 83.0493C29.6015 82.1666 31.0043 80.3776 30.9574 76.8641C30.8749 70.64 32.0778 67.9436 35.5516 66.5604C38.3895 65.4307 42.9716 67.1342 46.7774 72.3921C43.8065 70.9077 41.4798 70.7971 39.7033 72.0504ZM46.3357 70.5274C42.508 66.0413 38.1084 64.6698 35.2527 65.8072C30.9052 67.5395 30.0748 71.3264 30.1484 76.8746C30.1905 80.0468 28.9677 81.6297 27.9338 82.399C27.3784 82.8124 26.7244 83.0874 26.0347 83.2323C27.3865 81.8568 27.505 78.9806 26.334 75.2031C24.6825 69.8759 27.1086 65.851 29.9304 63.8608C31.4007 62.8238 33.0826 62.2241 34.7928 62.1257C40.147 61.8187 44.2372 66.3988 46.3357 70.5274Z" fill="black"/>
<path d="M40.4655 67.8136C38.3043 66.7329 35.2168 66.6734 33.1842 69.7233C30.1526 74.2718 34.6817 80.0383 28.4541 83.964C29.9831 83.7932 32.9306 81.9694 33.2392 78.4635C33.6389 73.9146 33.797 70.5566 37.2571 69.7698C38.6703 69.4487 40.6977 70.1926 41.6264 69.6366C42.35 69.2033 42.0353 68.5976 40.4655 67.8136Z" fill="#858585"/>
<path d="M79.2257 88.5215C78.089 98.8126 78.2658 121.85 81.8108 124.388C84.7733 126.507 95.1525 124.832 95.0097 122.315C94.8738 119.924 90.5943 115.705 88.3368 105.4C86.6538 97.7153 86.2974 90.5226 86.0579 87.7432C85.6369 82.8444 79.8615 82.7651 79.2257 88.5215Z" fill="#CCCAB8"/>
<path d="M92.8227 117.5C94.0241 119.755 94.9483 121.223 95.011 122.316C95.1546 124.83 84.7729 126.506 81.812 124.386C80.9569 123.774 80.3001 121.97 79.8086 119.439C83.1198 120.847 90.4289 120.792 92.8227 117.5Z" fill="#807E75"/>
<path d="M79.8665 86.2336C79.7334 86.7034 79.6525 87.1646 79.6003 87.6282C79.5562 88.0951 79.5481 88.5466 79.5485 89.0305L79.5247 90.4566L79.4838 91.8811C79.4134 93.7786 79.3115 95.6753 79.2791 97.5756C79.2011 101.375 79.2419 105.18 79.4304 108.971C79.5259 110.867 79.663 112.759 79.8576 114.639C80.0529 116.516 80.3021 118.392 80.7151 120.2C80.9254 121.099 81.1766 121.993 81.5382 122.772C81.7158 123.153 81.9387 123.514 82.1599 123.711C82.2202 123.766 82.2408 123.776 82.3622 123.857L82.4649 123.916L82.5895 123.981C82.763 124.066 82.9532 124.139 83.1514 124.203C83.9518 124.455 84.8603 124.554 85.7648 124.585C86.6733 124.612 87.5943 124.565 88.5072 124.461C89.421 124.361 90.3295 124.201 91.21 123.974C92.0801 123.744 92.9586 123.448 93.6406 123.019C93.9768 122.818 94.2377 122.529 94.2522 122.413C94.2591 122.398 94.2555 122.388 94.2607 122.377C94.2595 122.371 94.2591 122.367 94.2595 122.361L94.2607 122.358C94.2611 122.355 94.2631 122.384 94.2607 122.36L94.2575 122.316C94.2526 122.242 94.2474 122.234 94.2433 122.193L94.2186 122.062C94.1806 121.883 94.1155 121.688 94.0399 121.49C93.7248 120.691 93.2507 119.856 92.8017 119.02C91.8843 117.344 90.9936 115.614 90.2421 113.827C89.4885 112.04 88.8611 110.2 88.3474 108.334C87.8317 106.463 87.4499 104.571 87.1129 102.683C86.7776 100.79 86.5042 98.8896 86.2777 96.9844C86.06 95.0792 85.8509 93.1724 85.7619 91.2592C85.715 90.3035 85.7158 89.3443 85.7251 88.3895C85.7336 87.9031 85.7571 87.4484 85.7138 86.9925C85.6677 86.5353 85.5751 86.0745 85.4019 85.6202C85.7312 85.9773 85.9836 86.4199 86.1519 86.8908C86.236 87.1253 86.3125 87.3699 86.3586 87.6161L86.4908 88.3303C86.6466 89.2775 86.7849 90.2217 86.8945 91.1668C87.1158 93.0562 87.2808 94.9472 87.5352 96.8281C87.7808 98.709 88.0724 100.582 88.4239 102.443C88.779 104.306 89.1742 106.153 89.6944 107.955C90.7218 111.58 92.2447 115.003 94.1046 118.309C94.558 119.152 95.0406 119.974 95.4333 120.949C95.5288 121.196 95.6178 121.454 95.6813 121.741C95.6979 121.811 95.7104 121.886 95.7234 121.961C95.7347 122.037 95.7488 122.147 95.7513 122.193L95.7553 122.237L95.7586 122.285L95.7589 122.325L95.7561 122.489C95.7444 122.596 95.7306 122.705 95.7007 122.804C95.5899 123.217 95.3617 123.504 95.1437 123.737C94.9208 123.964 94.687 124.137 94.4537 124.289C93.5152 124.876 92.557 125.179 91.5939 125.444C90.6296 125.697 89.6572 125.871 88.6767 125.982C87.6962 126.09 86.7093 126.135 85.713 126.1C84.7167 126.058 83.7104 125.955 82.691 125.631C82.4362 125.547 82.181 125.449 81.9265 125.323L81.7348 125.221L81.5305 125.098C81.4541 125.048 81.2733 124.928 81.1604 124.818C80.6775 124.365 80.4227 123.876 80.1941 123.4C79.7585 122.443 79.5053 121.486 79.284 120.528C78.4621 116.699 78.2238 112.864 78.0616 109.031C77.9193 105.199 77.9257 101.369 78.0519 97.5408C78.1255 95.6275 78.1923 93.7126 78.3844 91.8034L78.5616 90.3748C78.6372 89.8998 78.7129 89.4253 78.8027 88.9519C78.9685 88.0092 79.2715 87.0034 79.8665 86.2336Z" fill="black"/>
<path d="M48.0151 83.9389C47.5763 88.8219 51.2665 94.2005 49.0693 94.7399C46.8725 95.2792 45.9979 95.2817 45.5963 96.5001C43.063 104.192 42.2851 113.754 43.626 123.408C44.1413 127.114 56.1038 125.727 57.009 124.533C57.9143 123.34 55.476 120.646 54.0514 114.876C53.0195 110.696 52.2955 103.002 54.0506 99.8695C55.8052 96.737 60.9997 94.7233 62.9304 88.9507C64.8096 83.3336 62.4571 77.6067 57.1453 76.3786C53.0705 75.4363 48.5588 77.8954 48.0151 83.9389Z" fill="#CCCAB8"/>
<path d="M55.1913 118.528C56.4538 121.857 57.6972 123.628 57.0103 124.531C56.1059 125.728 44.1418 127.114 43.6265 123.409C43.4514 122.15 43.3138 120.898 43.2119 119.647C46.6408 120.921 52.6596 121.125 55.1913 118.528Z" fill="#807E75"/>
<path d="M49.4737 79.4366C49.034 80.4837 48.7662 81.545 48.6424 82.6185C48.5761 83.1542 48.5409 83.6895 48.5433 84.2297C48.5389 84.7431 48.5793 85.2813 48.655 85.8052C48.7953 86.8609 49.04 87.9161 49.3309 88.9746C49.6209 90.0371 49.9781 91.0838 50.2616 92.2217C50.3296 92.5092 50.3931 92.8023 50.4339 93.119C50.4715 93.4368 50.5019 93.7745 50.4206 94.1872C50.3785 94.3908 50.2972 94.6233 50.139 94.8387C49.9845 95.0541 49.7548 95.2311 49.5323 95.325C49.4255 95.3724 49.303 95.4096 49.2156 95.4311L49.0117 95.4817L48.5979 95.5813C48.0551 95.7121 47.4969 95.8271 47.0544 95.9834C46.8343 96.0616 46.6661 96.1506 46.5629 96.2454C46.459 96.3377 46.3825 96.4616 46.3113 96.6536C45.9797 97.6606 45.6747 98.7369 45.4105 99.8018C45.1452 100.871 44.9158 101.95 44.7193 103.034C43.943 107.377 43.6631 111.811 43.8051 116.228C43.8795 118.437 44.0652 120.642 44.3556 122.834L44.4102 123.245C44.4284 123.378 44.4361 123.404 44.4644 123.483C44.5142 123.617 44.6016 123.746 44.7334 123.874C44.9992 124.13 45.4259 124.344 45.889 124.498C46.8271 124.81 47.901 124.931 48.9676 124.984C50.0395 125.036 51.1276 125.004 52.208 124.911C53.2856 124.815 54.3725 124.665 55.3845 124.408C56.6514 123.967 56.5559 124.299 56.2497 123.082C55.9026 122.114 55.3995 121.076 54.9756 120.03C54.1018 117.93 53.4073 115.727 52.9919 113.474C52.5822 111.229 52.3451 108.969 52.3006 106.687C52.2828 105.546 52.3144 104.399 52.4479 103.247C52.5911 102.097 52.797 100.929 53.3507 99.7929C53.9348 98.6559 54.7931 97.8185 55.628 97.0443C56.4726 96.2741 57.3321 95.5684 58.1403 94.8249C59.7655 93.3538 61.1554 91.6884 62.0691 89.7427C62.9885 87.795 63.4853 85.6461 63.4327 83.3886C64.1001 85.557 63.8655 88.0015 63.0278 90.1565C62.616 91.249 62.0048 92.2597 61.3127 93.1906C60.6081 94.1151 59.806 94.95 58.9768 95.7283C58.1484 96.5086 57.2884 97.2326 56.4908 97.9789C55.6996 98.7227 54.9533 99.5054 54.5258 100.377C54.1027 101.262 53.9057 102.333 53.792 103.396C53.6804 104.468 53.6626 105.562 53.6933 106.656C53.7621 108.845 54.0193 111.045 54.4396 113.196C54.8518 115.34 55.5204 117.423 56.3767 119.446C56.7978 120.47 57.2856 121.441 57.7038 122.576C57.8042 122.867 57.9008 123.17 57.9526 123.538C57.9983 123.897 58.0133 124.376 57.718 124.868C57.6541 124.968 57.6893 124.915 57.6153 125.018C57.5522 125.099 57.4943 125.153 57.4393 125.202C57.3301 125.296 57.2383 125.354 57.1501 125.406C56.9754 125.507 56.8188 125.575 56.6659 125.636C56.3613 125.757 56.0713 125.843 55.7817 125.921C54.6289 126.22 53.4955 126.381 52.3496 126.491C51.2049 126.596 50.0553 126.638 48.8952 126.591C47.7347 126.535 46.5645 126.409 45.3762 126.019C44.7868 125.815 44.174 125.546 43.6247 125.029C43.3545 124.77 43.1094 124.433 42.9654 124.041C42.8934 123.859 42.8432 123.609 42.827 123.465L42.772 123.045C42.4788 120.801 42.2931 118.543 42.2215 116.281C42.0791 111.759 42.3777 107.214 43.2307 102.759C43.4431 101.645 43.6898 100.538 43.9734 99.4382C44.2598 98.336 44.5716 97.2609 44.9518 96.1482C45.0732 95.8182 45.2855 95.4424 45.6063 95.1667C45.923 94.8889 46.2717 94.7379 46.5763 94.6314C47.1923 94.4249 47.7347 94.3281 48.2772 94.1997L48.6788 94.1074L48.8823 94.0592C48.9304 94.0467 48.9422 94.0426 48.9632 94.0349C48.9984 94.0199 48.9947 94.0167 49.0052 94.0074C49.0146 93.9985 49.0348 93.9628 49.0493 93.8936C49.0817 93.7567 49.0797 93.5275 49.0497 93.2919C49.0222 93.0542 48.9709 92.7991 48.9122 92.542C48.4046 90.4586 47.5527 88.2708 47.4083 85.9255C47.3792 85.3367 47.3832 84.754 47.448 84.1503C47.5309 83.5757 47.6381 82.9991 47.8096 82.4415C48.1461 81.328 48.6914 80.2651 49.4737 79.4366Z" fill="black"/>
<path d="M72.0583 57.7958C72.8196 62.9059 74.7081 68.3133 70.5912 69.8913C66.4743 71.4689 59.0195 64.7597 49.0565 68.5534C40.137 71.9499 39.6824 83.9972 45.0237 89.7249C52.3757 97.6088 81.2099 95.885 87.3105 88.9887C93.3006 82.218 90.8425 73.029 88.4649 65.3962C87.3978 61.9722 85.4874 56.2154 82.2305 53.5076C77.22 49.3426 71.3136 52.7942 72.0583 57.7958Z" fill="#E6E6CF"/>
<path d="M66.9379 69.822C70.2769 72.4796 61.2196 77.5391 52.4203 75.05C46.1446 73.2748 47.4677 69.36 50.6134 68.0412C57.4016 66.1222 62.9391 68.8664 66.9379 69.822Z" fill="#F6F6E5"/>
<path d="M61.8008 95.4886C61.8008 95.4886 61.8008 95.4886 61.8 95.4886C57.0391 95.2821 48.472 94.3135 44.5799 90.1395C41.501 86.8378 40.2292 81.6078 41.3408 76.8155C42.3209 72.5901 44.984 69.4544 48.8401 67.9857C51.2565 67.0657 53.6879 66.6729 56.2738 66.7847C59.3702 66.9187 62.0657 67.748 64.4441 68.4793C66.1725 69.011 67.6655 69.4702 68.9012 69.5236C69.4772 69.5483 69.9586 69.4827 70.3744 69.324C73.1286 68.2687 72.7908 65.2832 71.9078 60.4926C71.7505 59.639 71.5879 58.7563 71.4584 57.8857C71.1894 56.0785 71.6894 54.3632 72.8661 53.0545C74.0876 51.6964 75.8852 50.9655 77.7976 51.0481C79.4706 51.1206 81.1375 51.8094 82.618 53.0404C86.1714 55.9947 88.1846 62.4565 89.0441 65.2156C91.6943 73.7215 93.7779 82.5946 87.7647 89.3916C83.7687 93.9086 71.405 95.9044 61.8008 95.4886ZM56.2212 67.9983C53.8036 67.8938 51.5303 68.2607 49.2717 69.1211C45.8056 70.4412 43.4085 73.2708 42.5223 77.0896C41.5159 81.4312 42.6987 86.3421 45.4662 89.3102C48.0938 92.1281 54.0665 93.9377 61.8518 94.275C72.6379 94.7419 83.6207 92.2435 86.8554 88.5862C92.4499 82.2625 90.4315 73.7518 87.8852 65.5772C87.0573 62.9205 85.1193 56.6997 81.8425 53.9753C80.5676 52.9156 79.1506 52.3228 77.745 52.2621C76.195 52.1953 74.7453 52.7804 73.7677 53.8676C72.8373 54.9018 72.4438 56.2652 72.6581 57.7067C72.7848 58.557 72.9453 59.4288 73.1007 60.2727C73.8882 64.5467 74.7029 68.966 70.808 70.4586C70.234 70.6785 69.5933 70.7696 68.8486 70.7372C67.4576 70.6772 65.8959 70.197 64.0874 69.6406C61.7793 68.9304 59.1623 68.1254 56.2212 67.9983Z" fill="black"/>
<path d="M43.4009 84.1341C42.1785 89.0544 45.12 95.1355 42.778 95.3388C40.436 95.5424 39.5368 95.4064 38.9325 96.588C35.1149 104.048 32.8052 113.697 32.6584 123.775C32.6022 127.644 45.1095 128.12 46.2275 127.044C47.3463 125.968 45.2668 122.829 44.7147 116.706C44.3154 112.271 44.7867 104.294 47.0838 101.37C49.3813 98.4466 55.0349 97.2107 57.9298 91.6179C60.7475 86.1745 59.2351 79.9496 53.9735 77.8533C49.9367 76.2446 44.9141 78.0436 43.4009 84.1341Z" fill="#E6E6CF"/>
<path d="M55.8088 83.9774C56.2039 90.7145 46.3829 99.8711 43.7149 93.6575C43.6926 91.4665 42.558 87.5262 43.401 84.1325C44.3386 80.3639 46.6199 78.2368 49.1812 77.5488C49.1856 77.5492 49.1896 77.5496 49.1896 77.5496C52.1578 77.2107 55.4799 78.3583 55.8088 83.9774Z" fill="#F6F6E5"/>
<path d="M45.3667 120.88C46.1268 124.315 47.0547 126.245 46.2287 127.045C45.1099 128.118 32.6014 127.644 32.6584 123.773C32.6798 122.366 32.745 120.97 32.8501 119.585C35.7337 121.562 42.1668 123.032 45.3667 120.88Z" fill="#807E75"/>
<path d="M45.288 80.1436C44.7056 81.1733 44.2869 82.2435 44.0171 83.3481C43.7267 84.4556 43.6151 85.5526 43.6256 86.6876C43.6316 87.8169 43.7453 88.9564 43.8962 90.1043C44.0386 91.2588 44.2627 92.3954 44.3011 93.6567C44.3019 93.977 44.295 94.3062 44.2076 94.6755C44.1619 94.8597 44.0964 95.0565 43.9714 95.2558C43.8497 95.453 43.6575 95.6465 43.431 95.7643C43.213 95.8826 42.9537 95.9271 42.783 95.9405L42.3417 95.9785L41.468 96.0474C40.9029 96.0944 40.3201 96.147 39.9839 96.3195C39.8193 96.4045 39.7044 96.5131 39.5879 96.6912C39.486 96.8487 39.3493 97.1549 39.2203 97.4067C38.2082 99.4739 37.3515 101.63 36.6267 103.824C35.1842 108.219 34.2434 112.778 33.7576 117.382C33.6363 118.534 33.5452 119.688 33.483 120.844C33.4526 121.422 33.4267 122 33.4105 122.579L33.3907 123.447C33.3899 123.582 33.3822 123.758 33.3859 123.86C33.3895 123.911 33.4041 124.018 33.4283 124.091C33.5218 124.413 33.8316 124.75 34.2414 125.025C34.6507 125.303 35.141 125.528 35.6506 125.716C36.6768 126.09 37.7884 126.327 38.9064 126.502C40.0272 126.673 41.1671 126.772 42.3021 126.801C42.8696 126.815 43.4367 126.811 43.9945 126.78C44.543 126.748 45.1202 126.691 45.5595 126.566C45.6586 126.539 45.7593 126.49 45.748 126.494C45.7419 126.498 45.7419 126.499 45.731 126.508L45.7063 126.533L45.7253 126.513C45.7645 126.474 45.7443 126.488 45.7439 126.492C45.7528 126.48 45.7617 126.465 45.7714 126.446C45.8111 126.372 45.8369 126.173 45.8175 125.94C45.7819 125.467 45.6412 124.905 45.5004 124.353C45.2075 123.238 44.8884 122.087 44.6388 120.923C44.1276 118.597 43.8659 116.186 43.8772 113.809C43.8812 111.432 44.0471 109.06 44.4613 106.701C44.6748 105.523 44.9491 104.347 45.3795 103.193C45.5971 102.616 45.8543 102.044 46.1969 101.495C46.542 100.937 46.9922 100.449 47.4569 100.033C48.3962 99.1997 49.4179 98.5749 50.4057 97.9489C51.3971 97.3274 52.3703 96.7155 53.2792 96.0332C54.1901 95.3546 55.0258 94.5974 55.7676 93.7604C56.505 92.9198 57.1356 91.9917 57.6618 90.9951C58.7075 89.0066 59.279 86.7459 59.1831 84.3908C59.8748 86.6633 59.5597 89.2204 58.595 91.4422C58.3555 91.9868 58.0708 92.5476 57.7516 93.0603C57.4268 93.5769 57.0644 94.0701 56.6749 94.5394C55.8938 95.4785 54.9797 96.2924 54.0267 97.0224C53.0717 97.7525 52.0681 98.3943 51.0852 99.022C50.1067 99.6524 49.1327 100.27 48.3282 101C47.9269 101.366 47.5807 101.752 47.3133 102.191C47.0407 102.637 46.817 103.138 46.6269 103.656C46.2479 104.698 45.9947 105.812 45.8017 106.936C45.4256 109.19 45.2824 111.503 45.2986 113.803C45.3066 116.105 45.551 118.372 46.0505 120.615C46.294 121.737 46.6026 122.841 46.9068 123.988C47.0524 124.567 47.2122 125.143 47.2713 125.837C47.2907 126.183 47.3016 126.59 47.0985 127.054C47.0464 127.167 46.9804 127.279 46.9016 127.383C46.8542 127.444 46.7891 127.516 46.7754 127.528L46.7563 127.548C46.7151 127.59 46.7147 127.588 46.6912 127.609C46.6532 127.643 46.6229 127.665 46.5881 127.69C46.3345 127.859 46.1561 127.909 45.9769 127.968C45.2893 128.16 44.6934 128.202 44.0782 128.246C43.469 128.281 42.8668 128.286 42.2665 128.273C41.066 128.245 39.8727 128.144 38.6835 127.965C37.4943 127.785 36.3083 127.529 35.1385 127.097C34.5553 126.877 33.9728 126.615 33.4146 126.233C32.8714 125.855 32.2901 125.327 32.0365 124.514C31.9762 124.308 31.9426 124.124 31.9333 123.883C31.9301 123.693 31.9386 123.576 31.9402 123.419L31.9653 122.533C31.9847 121.942 32.0138 121.352 32.0478 120.762C32.1174 119.583 32.2157 118.405 32.3455 117.23C32.8649 112.534 33.8409 107.88 35.374 103.402C36.1405 101.163 37.0372 98.9701 38.1047 96.8467C38.2471 96.5819 38.3397 96.347 38.5516 96.0109C38.7511 95.6979 39.0742 95.3886 39.4363 95.2165C39.7959 95.0424 40.1429 94.9752 40.4596 94.9274C40.7788 94.8824 41.0797 94.8593 41.3758 94.8375L42.2503 94.778L42.6823 94.7456C42.8016 94.7362 42.8352 94.7237 42.8773 94.7063C42.9311 94.6808 43.0043 94.603 43.0585 94.3912C43.1103 94.1916 43.1264 93.9308 43.126 93.6676C43.1082 92.5877 42.9015 91.4138 42.7668 90.2485C42.6224 89.077 42.5132 87.8805 42.5589 86.6693C42.5945 85.4651 42.8437 84.2236 43.304 83.1137C43.7623 81.9969 44.4135 80.9461 45.288 80.1436Z" fill="black"/>
<path d="M76.7831 89.0219C74.4912 99.2803 71.5247 123.171 74.7606 126.14C77.4642 128.621 88.506 128.157 88.648 125.6C88.7827 123.171 85.0076 117.772 83.9288 107.109C83.1247 99.1572 83.583 91.8552 83.6594 89.0219C83.7941 84.028 78.0653 83.2834 76.7831 89.0219Z" fill="#E6E6CF"/>
<path d="M86.95 120.02C87.9208 122.684 88.71 124.466 88.6489 125.6C88.5073 128.159 77.4651 128.62 74.7627 126.138C74.0107 125.446 73.5901 123.619 73.4238 121.089C76.7811 122.936 84.6525 123.656 86.95 120.02Z" fill="#807E75"/>
<path d="M82.8369 86.1199C83.3672 86.8042 83.6945 87.78 83.6621 89.0232C83.5933 91.6147 83.201 97.9517 83.7511 105.103C82.7682 109.294 77.7646 106.16 78.0765 94.8055C78.3713 84.1074 81.4823 84.9496 82.8333 86.1118C82.8329 86.1158 82.8369 86.1199 82.8369 86.1199Z" fill="#F6F6E5"/>
<path d="M77.421 87.2289C77.2843 87.7063 77.1808 88.1732 77.1132 88.6458L76.9385 90.082C76.879 90.5635 76.8167 91.0445 76.7427 91.5231C76.6772 92.003 76.6036 92.4812 76.5259 92.959C76.2003 94.8666 75.8945 96.7795 75.6255 98.6976C75.0859 102.533 74.6495 106.385 74.3542 110.242C74.2074 112.171 74.1014 114.101 74.0508 116.027C74.0039 117.951 74.0084 119.88 74.1827 121.765C74.2753 122.702 74.4072 123.642 74.6665 124.482C74.7943 124.894 74.9706 125.294 75.1701 125.523C75.2263 125.588 75.2412 125.598 75.3545 125.695L75.4528 125.768L75.5713 125.848C75.7372 125.955 75.9224 126.051 76.1174 126.138C76.9033 126.485 77.815 126.688 78.7292 126.824C79.6482 126.958 80.5878 127.018 81.5266 127.024C82.4651 127.031 83.4063 126.985 84.3298 126.869C85.248 126.752 86.1718 126.572 86.9614 126.251C87.3465 126.098 87.7097 125.871 87.8383 125.691C87.8719 125.649 87.8812 125.617 87.8921 125.595C87.8986 125.567 87.899 125.59 87.9018 125.446C87.9014 125.303 87.8751 125.082 87.8339 124.881C87.6583 124.041 87.3056 123.128 86.9747 122.227C86.2911 120.414 85.608 118.562 85.053 116.672C84.4891 114.784 84.0523 112.857 83.7214 110.915C83.3881 108.972 83.1867 107.009 83.0487 105.059C82.9096 103.106 82.8344 101.151 82.8089 99.1965C82.7846 97.2423 82.8061 95.2893 82.8728 93.34C82.9108 92.3658 82.9958 91.3936 83.1272 90.4266C83.194 89.9456 83.2809 89.4568 83.3642 88.9855C83.4569 88.5166 83.4985 88.0481 83.5074 87.544C83.753 87.9829 83.8856 88.4903 83.9548 88.9916C84.0143 89.4912 84.0616 89.9735 84.0923 90.4631C84.1502 91.4369 84.1647 92.4067 84.1514 93.3737C84.1142 95.3084 84.1033 97.2415 84.1473 99.1722C84.1898 101.102 84.2824 103.031 84.4374 104.952C84.5915 106.876 84.8051 108.781 85.1464 110.665C85.481 112.55 85.9372 114.411 86.4804 116.246C87.0229 118.085 87.685 119.88 88.3751 121.701C88.71 122.622 89.0749 123.525 89.303 124.587C89.356 124.863 89.3976 125.125 89.4001 125.467C89.4017 125.566 89.3932 125.834 89.3236 126.039C89.2569 126.246 89.1566 126.435 89.0425 126.585C88.5701 127.179 88.0357 127.417 87.5354 127.639C86.5225 128.047 85.5214 128.229 84.5183 128.362C83.5163 128.487 82.5148 128.539 81.5129 128.529C80.5114 128.515 79.5102 128.443 78.5095 128.29C77.5096 128.13 76.5077 127.91 75.5171 127.467C75.2704 127.355 75.0236 127.225 74.7821 127.068L74.6005 126.943L74.41 126.794C74.338 126.735 74.1677 126.586 74.0694 126.463C73.6439 125.942 73.4595 125.416 73.2956 124.907C72.9919 123.886 72.8685 122.888 72.7763 121.894C72.6088 119.908 72.6222 117.943 72.6844 115.985C72.7512 114.027 72.8924 112.079 73.0643 110.135C73.4142 106.248 73.9052 102.381 74.4998 98.53C74.8003 96.6049 75.1191 94.6824 75.4941 92.7687C75.5911 92.2909 75.6987 91.8151 75.8193 91.3417C75.9313 90.8668 76.062 90.3954 76.2015 89.9265C76.3407 89.456 76.4855 88.9944 76.674 88.5223C76.8669 88.0594 77.1108 87.614 77.421 87.2289Z" fill="black"/>
<path d="M89.4574 29.3632C81.9229 28.6315 72.4805 33.0108 69.7716 42.9958C66.8059 53.9288 72.1884 64.377 83.7367 66.4818C88.9178 67.4261 94.0164 67.2398 96.6137 66.5903C99.2109 65.9404 100.628 68.1586 102.565 67.4569C103.586 67.0872 105.485 65.3169 105.186 64.4941C103.393 63.6712 101.749 61.4272 102.645 58.3611C104.289 61.2777 107.759 61.4992 108.3 61.1745C109.295 60.6797 111.222 56.8414 110.681 55.9748C110.14 55.1083 107.002 55.542 106.028 53.8085C106.677 47.5249 107.524 31.1178 89.4574 29.3632Z" fill="#F6F6E5"/>
<path d="M89.4568 29.3616C90.7111 29.4831 91.8716 29.6734 92.9475 29.9285C88.7574 29.7139 83.2397 31.6737 79.749 39.8896C75.6757 49.4742 79.1584 66.1409 95.2734 66.8495C92.4743 67.2706 88.1381 67.2828 83.7373 66.481C72.189 64.3754 66.8052 53.9284 69.7702 42.9954C72.4803 33.01 81.9211 28.6327 89.4568 29.3616Z" fill="#E6E6CF"/>
<path d="M106.878 57.0394L106.986 57.0633C107.04 57.0742 107.097 57.088 107.15 57.1022C107.244 57.1346 107.333 57.175 107.415 57.2244C107.58 57.3245 107.714 57.4609 107.806 57.6148C107.995 57.9258 107.986 58.2825 107.877 58.5514C107.854 58.2558 107.706 58.0019 107.505 57.8849C107.407 57.825 107.299 57.7946 107.196 57.7909C107.144 57.7897 107.094 57.795 107.047 57.8035C107.029 57.8116 107.014 57.8177 106.997 57.8229L106.89 57.8497C106.668 57.9055 106.442 57.7703 106.386 57.5476C106.33 57.3245 106.465 57.0989 106.687 57.0426C106.751 57.026 106.818 57.0264 106.878 57.0394Z" fill="black"/>
<path d="M100.751 52.0447C100.751 54.2819 99.9488 56.2879 98.6791 57.6472C96.6328 56.7628 92.9924 55.953 89.8903 56.4239C89.1614 55.197 88.7314 53.6826 88.7314 52.0451C88.7314 47.9497 91.4217 44.6293 94.741 44.6293C98.0606 44.6289 100.751 47.9489 100.751 52.0447Z" fill="#F6F6E5"/>
<path d="M89.2861 56.6057C89.1624 56.4166 89.0277 56.1935 88.9233 55.987C88.7931 55.7279 88.6713 55.4638 88.5649 55.1934C88.3506 54.6532 88.1892 54.0907 88.0925 53.5174C87.9861 52.9476 87.9485 52.3569 87.9513 51.7875C87.955 51.1935 88.0205 50.6193 88.1354 50.0431C88.3619 48.8952 88.8258 47.7865 89.505 46.8118C90.195 45.8497 91.1104 45.0103 92.2211 44.5078C93.3359 44.0089 94.5923 43.866 95.7689 44.1531C96.9383 44.4292 97.9641 45.0877 98.7395 45.9202C100.3 47.6002 100.949 49.9063 100.753 52.0447C100.563 49.9139 99.7018 47.8428 98.1724 46.5057C97.416 45.8441 96.4994 45.3986 95.5562 45.278C95.3232 45.2484 95.0789 45.2355 94.8548 45.2444C94.6092 45.2541 94.3835 45.2735 94.1522 45.3181C93.6935 45.4019 93.253 45.5638 92.8444 45.7857C92.0249 46.2263 91.3211 46.8985 90.8018 47.7027C90.2666 48.4979 89.9115 49.4167 89.7032 50.3679C89.602 50.8424 89.5462 51.3381 89.522 51.8163C89.5013 52.3192 89.5216 52.8035 89.5782 53.2934C89.6991 54.2734 90.0854 55.4302 90.5429 56.3324C89.9604 56.383 89.7331 56.4591 89.2861 56.6057Z" fill="black"/>
<path d="M100.751 51.696C100.751 54.7325 98.9593 57.1933 96.748 57.1933C94.5366 57.1933 92.7451 54.7325 92.7451 51.696C92.7451 48.6603 94.537 46.1996 96.748 46.1996C98.9593 46.1996 100.751 48.6603 100.751 51.696Z" fill="black"/>
<path d="M97.8765 50.4873C97.1735 51.7843 95.8382 52.4192 94.8938 51.9062C93.9493 51.3927 93.7543 49.9257 94.4573 48.6291C95.1603 47.3326 96.4955 46.6976 97.4396 47.2107C98.3837 47.7241 98.5795 49.1912 97.8765 50.4873Z" fill="#F6F6E5"/>
<path d="M88.0557 56.8977C90.8871 55.0083 96.6018 55.7056 100.022 58.3169C96.7757 56.9819 90.8386 56.3757 88.0557 56.8977Z" fill="#BFAF90"/>
<path d="M89.7939 43.1979C92.1198 39.6548 98.3894 40.1609 100.715 45.2225C97.6815 41.7806 92.7265 41.7806 89.7939 43.1979Z" fill="black"/>
<path d="M108.593 61.6644C108.585 61.6689 108.579 61.6713 108.571 61.6753C108.565 61.6789 108.561 61.6825 108.554 61.6858L108.593 61.6644Z" fill="black"/>
<path d="M111.383 56.2381C111.359 56.0571 111.351 55.8671 111.161 55.5882C111.138 55.5594 111.137 55.5529 111.097 55.506C111.052 55.4541 111.002 55.4039 110.951 55.3577C110.873 55.295 110.792 55.2363 110.718 55.1954C110.414 55.0204 110.157 54.9561 109.907 54.8852C109.411 54.7585 108.957 54.6827 108.523 54.5799C107.736 54.407 107.01 54.1329 106.653 53.6522C107.021 50.3444 107.085 46.9527 106.49 43.6141C106.185 41.9118 105.706 40.2257 104.99 38.6259C104.279 37.0268 103.318 35.5193 102.114 34.2252C100.915 32.9274 99.4859 31.8483 97.9367 31.023C96.3871 30.1949 94.7254 29.6119 93.0367 29.2203C92.1921 29.0227 91.339 28.8745 90.4831 28.7623L89.8408 28.6862L89.5115 28.6522L89.1973 28.6255C88.7507 28.591 88.3159 28.5744 87.8774 28.5728C86.1259 28.5672 84.3814 28.8101 82.6995 29.2717C79.341 30.2055 76.2155 32.0126 73.797 34.5386C72.588 35.7979 71.5582 37.2297 70.7512 38.7753C69.9426 40.3185 69.3545 41.9774 68.9743 43.6615C68.2017 47.0236 68.1451 50.5926 69.056 53.9502C69.9596 57.2929 71.9708 60.3837 74.782 62.305C73.6494 61.0437 72.6701 59.6925 71.8895 58.242C71.1124 56.7908 70.5178 55.2565 70.1259 53.6696C69.3234 50.497 69.3909 47.1285 70.1615 43.9409C70.9021 40.7497 72.4622 37.7739 74.7452 35.4594C77.0131 33.1363 79.9409 31.4822 83.0732 30.6452C84.6386 30.2245 86.2574 29.9941 87.8725 30.001C88.2758 30.0022 88.6819 30.018 89.0751 30.048L89.389 30.0747L89.6879 30.1059L90.2991 30.1783C91.1121 30.2848 91.9195 30.4249 92.7135 30.6108C95.8859 31.3336 98.8941 32.8229 101.068 35.1958C102.156 36.3729 103.042 37.7342 103.717 39.2041C104.392 40.6748 104.858 42.2487 105.162 43.8583C105.766 47.088 105.736 50.4306 105.423 53.7462L105.404 53.9543L105.498 54.1065L105.503 54.115C105.801 54.6556 106.295 55.046 106.78 55.2889C107.27 55.5367 107.765 55.6776 108.241 55.7922C108.716 55.904 109.185 55.9809 109.596 56.0854C109.794 56.1368 109.993 56.2004 110.093 56.2628C110.122 56.2769 110.135 56.2903 110.15 56.2984C110.153 56.3097 110.156 56.3239 110.155 56.3397C110.165 56.46 110.143 56.658 110.099 56.8515C110.056 57.0483 109.997 57.2536 109.928 57.4581C109.79 57.8687 109.614 58.2793 109.419 58.6785C109.222 59.0774 109.004 59.4677 108.764 59.8305C108.644 60.0111 108.518 60.1857 108.388 60.3391C108.265 60.4877 108.105 60.6343 108.044 60.6631L108.106 60.6335L108.019 60.6772C108.011 60.6809 107.996 60.6861 107.98 60.689C107.942 60.6983 107.892 60.7068 107.84 60.7133C107.733 60.7254 107.613 60.7299 107.492 60.7279C107.248 60.7242 106.995 60.6963 106.744 60.6513C106.241 60.5622 105.747 60.3982 105.28 60.1849C104.347 59.7516 103.538 59.0588 102.984 58.1695L102.474 57.3536L102.268 58.2517L102.267 58.2538C102.074 58.8624 101.951 59.5054 101.948 60.1622C101.942 60.8173 102.052 61.4834 102.287 62.1091C102.704 63.2275 103.502 64.1997 104.544 64.8314C104.532 64.8581 104.519 64.8864 104.5 64.9156C104.422 65.0646 104.297 65.2314 104.163 65.3898C103.888 65.7096 103.552 66.0077 103.207 66.2729C103.034 66.4053 102.855 66.5284 102.679 66.6292C102.595 66.6782 102.495 66.7292 102.433 66.7556C102.352 66.7912 102.269 66.8212 102.188 66.8426C101.863 66.9313 101.527 66.907 101.132 66.7908C100.342 66.5721 99.4155 66.0133 98.2926 65.8647C97.7336 65.7858 97.1613 65.8097 96.6019 65.9433C96.1254 66.0737 95.6999 66.1741 95.2286 66.2603C93.3736 66.594 91.4487 66.7078 89.5269 66.7479C87.6023 66.7685 85.6701 66.675 83.7346 66.4839C85.6151 66.9852 87.5498 67.3038 89.5006 67.469C90.4763 67.5577 91.4576 67.6047 92.4417 67.5998C93.4266 67.6006 94.414 67.5525 95.4066 67.4298C95.8944 67.371 96.4211 67.2836 96.8854 67.1799C97.2737 67.1058 97.6871 67.103 98.0856 67.1775C98.488 67.252 98.8917 67.3986 99.3209 67.5763C99.75 67.7537 100.201 67.9736 100.738 68.1376C101.268 68.2995 101.935 68.3708 102.55 68.1967C102.703 68.1554 102.85 68.1048 102.989 68.0396C103.148 67.9667 103.262 67.9023 103.386 67.8274C103.628 67.6816 103.845 67.5233 104.054 67.3565C104.47 67.0224 104.84 66.6466 105.18 66.2154C105.347 65.9947 105.508 65.7651 105.643 65.4776C105.709 65.3331 105.769 65.1772 105.804 64.9828C105.838 64.7929 105.851 64.5507 105.753 64.2892L105.753 64.2884L105.671 64.0426L105.436 63.9442C104.472 63.5392 103.646 62.7262 103.21 61.7357C102.99 61.2401 102.865 60.6991 102.837 60.146C102.824 59.9079 102.832 59.6678 102.855 59.428C103.011 59.635 103.178 59.8338 103.361 60.0192C103.791 60.4481 104.288 60.8097 104.824 61.0951C105.359 61.3846 105.936 61.5871 106.533 61.7175C106.831 61.7815 107.135 61.8272 107.452 61.8434C107.611 61.8519 107.772 61.8527 107.945 61.839C108.032 61.8317 108.121 61.8216 108.22 61.8013C108.316 61.779 108.415 61.76 108.569 61.6782C108.911 61.4907 109.078 61.2931 109.26 61.0976C109.436 60.8971 109.586 60.6938 109.729 60.4877C110.012 60.0755 110.258 59.652 110.482 59.2159C110.706 58.7794 110.907 58.3319 111.077 57.859C111.16 57.6217 111.237 57.3787 111.297 57.1192C111.354 56.8548 111.405 56.5855 111.383 56.2381ZM108.023 60.6744C108.028 60.6728 108.028 60.6724 108.023 60.6744ZM110.129 56.2713C110.129 56.2684 110.139 56.2802 110.15 56.2952C110.15 56.296 110.15 56.2964 110.15 56.2976C110.141 56.2919 110.133 56.2822 110.129 56.2713Z" fill="black"/>
<path d="M76.7498 32.9735C75.7385 29.228 59.7611 25.9886 60.8735 40.2622C56.0196 42.1856 54.5618 49.784 56.9297 56.2567C59.5589 63.4441 65.5251 67.3921 61.0757 70.1253C65.3229 69.9229 68.5588 65.5699 65.9296 58.8887C61.1728 46.7997 65.7274 38.8449 76.7498 32.9735Z" fill="#6B6B6B"/>
<path d="M65.9945 32.0118C65.0204 32.3273 62.2023 34.0871 62.7585 37.9845C63.4158 35.808 64.5787 34.3908 67.0562 33.2772C68.4869 32.6342 67.7135 31.4551 65.9945 32.0118Z" fill="#858585"/>
<path d="M62.0246 68.142C62.1735 66.9191 61.2415 65.2727 59.8998 63.1594C58.7527 61.353 57.3252 59.1045 56.3597 56.4652C54.0941 50.2727 55.1458 42.2771 60.2392 39.8751C60.0466 36.4312 60.8253 33.738 62.5565 31.8648C64.1656 30.1233 66.6107 29.1644 69.4414 29.1644C73.1861 29.1644 76.8007 30.8359 77.3354 32.8148L77.4616 33.2821L77.0349 33.5092C65.5065 39.6499 62.1573 47.6435 66.4938 58.6656C67.882 62.1929 67.8109 65.4282 66.294 67.7768C65.1477 69.552 63.012 70.5299 60.3152 70.3614C60.3152 70.3614 61.8652 69.4507 62.0246 68.142ZM69.4414 30.3796C66.9529 30.3796 64.8237 31.2 63.4472 32.6901C61.8834 34.3827 61.2209 36.9142 61.4781 40.2152L61.5133 40.6622L61.0967 40.827C56.7577 42.5463 55.1102 49.5167 57.4995 56.0481C58.4202 58.5647 59.7505 60.6598 60.9248 62.5083C62.4186 64.8617 63.5989 66.7199 63.2077 68.4161C63.1543 68.647 63.0738 68.868 62.9646 69.0802C63.9035 68.6741 64.7044 68.0027 65.2759 67.118C66.5743 65.1075 66.6063 62.2645 65.3657 59.1118C62.9756 53.0371 62.8134 47.8812 64.8706 43.3485C66.7228 39.2681 70.3531 35.7841 75.9597 32.7107C75.1593 31.5539 72.4415 30.3796 69.4414 30.3796Z" fill="black"/>
<path d="M76.7494 32.9735C74.2856 32.6994 64.0354 34.5952 61.0753 44.9188C57.9405 55.8518 64.5964 62.2301 63.9068 66.0761C63.1989 70.0241 57.2327 71.6438 55.3113 67.0884C55.2102 71.5426 59.4683 73.8239 66.1315 70.7327C70.2775 68.8093 73.6146 63.2416 71.2888 54.3333C68.9629 45.4249 69.1652 37.8326 76.7494 32.9735Z" fill="#6B6B6B"/>
<path d="M65.0777 62.5877C61.9958 55.9493 61.3406 50.7558 62.607 45.9084C63.4484 42.6873 65.7317 43.3278 64.9846 47.535C64.4976 50.2763 63.5831 56.3235 65.0777 62.5877Z" fill="#858585"/>
<path d="M60.5729 72.7622H60.5717C58.7305 72.7622 57.2039 72.1957 56.1575 71.1239C55.1705 70.1128 54.6192 68.1007 55.1584 66.1773C55.1584 66.1773 56.4055 68.9782 59.2413 69.2385C60.9463 69.3952 62.9433 68.0153 63.3101 65.9692C63.5225 64.7844 62.8882 63.2023 62.0849 61.2C60.5325 57.3293 58.4061 52.0293 60.4928 44.7516C63.3975 34.6216 73.0802 32.3422 76.2433 32.3422C76.4553 32.3422 76.6486 32.3516 76.8173 32.3702L78.5218 32.5601L77.0774 33.4858C70.7099 37.565 69.1546 43.7542 71.8769 54.1802C74.379 63.7644 70.4838 69.3839 66.3879 71.2842C64.2728 72.2645 62.3167 72.7622 60.5729 72.7622ZM56.509 69.601C56.6546 69.8463 56.8273 70.0715 57.0251 70.2743C57.8382 71.1073 59.0646 71.5474 60.5717 71.5474H60.5729C62.1391 71.5474 63.9237 71.0878 65.877 70.1816C69.5486 68.4785 73.0155 63.3461 70.7026 54.4867C68.9249 47.6783 67.8687 39.3163 74.7281 33.6898C70.9744 34.2762 63.9872 36.9681 61.659 45.0864C59.6875 51.9629 61.7237 57.0402 63.211 60.7469C64.0868 62.9306 64.7788 64.6552 64.5046 66.1834C64.0681 68.6178 61.8054 70.4533 59.2409 70.4533C58.2135 70.4529 57.284 70.1561 56.509 69.601Z" fill="black"/>
<path d="M76.7502 32.9735C74.2921 32.8711 68.3828 36.534 67.6491 44.6151C66.6379 55.7505 72.9524 59.0948 69.5704 64.2539C67.4468 67.4933 60.8739 70.0241 61.6828 76.4017C62.2463 80.8384 68.1547 82.2731 65.2221 86.8285C67.7502 85.31 67.7502 82.678 66.0311 80.1472C64.7347 78.2384 64.8816 74.9711 69.0648 72.5549C74.3232 69.5179 80.7951 65.165 77.1546 55.6493C73.1122 45.0812 73.5142 37.5289 76.7502 32.9735Z" fill="#6B6B6B"/>
<path d="M69.8326 50.8303C70.1845 53.1456 70.9502 54.7832 71.9929 57.9153C72.9775 60.872 72.738 64.1053 69.6833 66.7155C66.8159 69.1657 64.6919 70.7429 64.3193 72.6075C65.2133 70.8923 68.8804 68.7802 71.1734 67.0139C74.0789 64.7763 75.1217 62.3897 74.5259 59.1086C73.6429 54.2446 72.6636 52.2471 72.1414 50.2334C71.0841 46.1542 69.3112 47.3998 69.8326 50.8303Z" fill="#858585"/>
<path d="M63.6118 81.1368C62.5436 79.8844 61.3333 78.4652 61.0809 76.4782C60.4803 71.7422 63.7016 68.9575 66.29 66.7195C67.4036 65.757 68.4556 64.8475 69.0632 63.9203C70.6067 61.5652 69.9252 59.6629 68.8929 56.7839C67.8412 53.8502 66.5327 50.199 67.0448 44.56C67.7822 36.4393 73.5992 32.3641 76.6482 32.3641C76.6911 32.3641 76.734 32.3649 76.7752 32.3665L77.8924 32.4131L77.2444 33.3254C73.8512 38.1023 74.0162 45.7465 77.7209 55.4323C81.7391 65.9356 73.6914 70.5841 69.3682 73.0809C67.5063 74.156 66.347 75.4922 66.0145 76.9455C65.7832 77.957 65.9672 78.9729 66.5327 79.8055C67.6361 81.43 68.054 83.0416 67.7405 84.4665C67.4824 85.6404 66.0801 86.9297 64.4957 87.5711C66.0461 84.8038 65.3944 83.2283 63.6118 81.1368ZM75.5156 33.7984C73.0021 34.6511 68.8565 38.029 68.2534 44.6702C67.7656 50.0423 69.0239 53.553 70.0352 56.3737C71.1067 59.3641 71.9533 61.7256 70.0772 64.5872C69.3767 65.6562 68.2623 66.6195 67.0828 67.6391C64.5903 69.7937 61.7657 72.2358 62.2847 76.3251C62.4914 77.9525 63.5297 79.1701 64.5345 80.3485C65.4567 81.43 66.3976 82.533 66.6071 83.8883C66.7167 82.8764 66.3409 81.6835 65.5295 80.4886C64.7828 79.3892 64.5284 77.9991 64.8318 76.6738C65.1174 75.425 66.0311 73.6057 68.7614 72.0285C74.3135 68.8219 79.9541 64.6645 76.5883 55.8659C72.2032 44.4033 73.3856 37.6411 75.5156 33.7984Z" fill="black"/>
<path d="M80.8955 30.6452C81.281 28.329 84.9554 19.9451 95.5583 22.243C105.367 24.3689 104.457 35.2006 109.614 36.4154C113.823 37.4066 114.307 31.1437 111.03 30.0378C116.068 30.2622 116.693 35.6055 115.277 38.44C113.514 41.9714 107.39 44.6151 103.041 38.9462C97.4954 31.7158 88.682 27.6083 80.8955 30.6452Z" fill="#6B6B6B"/>
<path d="M108.999 42.8476C107.296 42.8476 104.797 42.2346 102.559 39.3159C98.2005 33.6344 92.1246 30.2419 86.306 30.2419C84.5101 30.2419 82.7631 30.5683 81.1143 31.2113L80.1201 31.5992L80.2957 30.5456C80.6229 28.5801 83.5801 21.2409 92.0708 21.2409C93.2184 21.2409 94.4343 21.3781 95.6854 21.6494C101.669 22.946 103.867 27.356 105.634 30.8991C106.833 33.3035 107.868 35.38 109.752 35.8242C110.005 35.8837 110.248 35.9141 110.474 35.9141C112.078 35.9141 112.447 34.424 112.522 33.9672C112.782 32.3779 112.263 30.8987 110.01 29.7528C113.334 29.4203 115.012 30.9117 115.672 32.0361C116.964 34.2377 116.654 37.0394 115.819 38.7117C114.603 41.1465 111.798 42.8476 108.999 42.8476ZM86.306 29.0271C92.4988 29.0271 98.9346 32.5965 103.521 38.5765C105.055 40.576 106.949 41.6328 108.999 41.6328C111.628 41.6328 113.874 39.89 114.733 38.1683C115.449 36.7365 115.641 34.3811 114.625 32.6516C114.278 32.0588 113.823 31.5956 113.265 31.2635C113.729 32.1629 113.872 33.2294 113.719 34.1636C113.424 35.9647 112.15 37.1285 110.474 37.1285C110.154 37.1285 109.818 37.0876 109.474 37.0062C107.036 36.432 105.827 34.0081 104.547 31.4413C102.811 27.9577 100.842 24.0097 95.4281 22.8363C94.2616 22.5836 93.1318 22.4556 92.0704 22.4556C85.5593 22.4556 82.6737 27.2078 81.783 29.6945C83.2404 29.2511 84.7568 29.0271 86.306 29.0271Z" fill="black"/>
<path d="M74.1194 35.2006C72.4582 32.2896 70.0013 23.2468 78.67 20.3196C87.0632 17.4852 94.4451 23.559 94.8496 30.6452C88.3778 27.5071 78.0632 30.0378 74.1194 35.2006Z" fill="#6B6B6B"/>
<path d="M75.8433 25.2889C76.2822 22.1511 83.6799 18.6995 89.8865 24.0336C86.1514 22.9654 83.1157 23.0926 79.9182 24.9751C77.3674 26.4773 75.7111 26.2344 75.8433 25.2889Z" fill="#858585"/>
<path d="M74.0459 36.2963L73.5925 35.5019C72.3754 33.3687 71.0798 28.8384 72.5 25.0982C73.4639 22.5589 75.475 20.7578 78.4759 19.7443C79.9378 19.2502 81.4214 19 82.8861 19C89.4514 19 95.0896 24.2085 95.4549 30.6104L95.5139 31.6425L94.5844 31.1919C92.8103 30.3318 90.6159 29.8771 88.2375 29.8771C82.7688 29.8771 77.1613 32.2179 74.6009 35.5699L74.0459 36.2963ZM82.8861 20.2148C81.5537 20.2148 80.2003 20.4436 78.8638 20.895C76.2225 21.7871 74.463 23.3465 73.6342 25.5298C72.5174 28.4712 73.2932 31.9863 74.2466 34.1073C77.2269 30.8663 82.8117 28.6623 88.2379 28.6623C90.3834 28.6623 92.4001 29.0109 94.1374 29.6766C93.3135 24.375 88.4713 20.2148 82.8861 20.2148Z" fill="black"/>
<path d="M76.749 32.9735C79.3891 31.023 86.9624 28.4181 92.6253 33.176C98.0548 37.7379 100.307 44.2794 106.277 44.5139C111.434 44.7163 113.356 40.2622 112.445 37.8326C112.243 39.1486 111.03 40.8696 108.401 40.1609C105.085 39.2673 104.659 34.8969 99.5017 30.2403C94.3493 25.5877 84.0299 22.4455 76.749 32.9735Z" fill="#6B6B6B"/>
<path d="M92.7458 28.2307C95.5283 28.9287 98.5883 31.3032 100.426 33.5809C103.06 36.8446 103.511 39.5535 106.443 41.0214C103.055 40.5659 102.41 38.9113 100.167 35.9574C98.5365 33.8093 97.1584 31.7527 92.6443 30.1836C88.7486 28.8291 88.4404 27.1507 92.7458 28.2307Z" fill="#858585"/>
<path d="M106.613 45.1277C106.495 45.1277 106.374 45.1253 106.253 45.1205C102.104 44.9577 99.6205 41.9337 96.9922 38.7324C95.5679 36.9977 94.0952 35.2043 92.2345 33.6413C90.2202 31.9487 87.7908 31.0906 85.0135 31.0906C81.4888 31.0906 78.5093 32.2661 75.8506 33.7449C79.3219 27.1276 85.3606 25.3055 88.7563 25.3055C92.6293 25.3055 96.798 26.9819 99.9069 29.7888C102.384 32.0256 103.794 34.1968 104.928 35.9408C106.143 37.8095 107.02 39.1596 108.557 39.5742C108.913 39.6698 109.25 39.7184 109.56 39.7184C111.268 39.7184 112.336 38.6619 112.336 36.9244C113.185 38.44 113.23 40.9246 112.206 42.4038C110.991 44.1608 109.005 45.1277 106.613 45.1277ZM85.0143 29.8759C88.0844 29.8759 90.7763 30.8295 93.0148 32.7103C94.9616 34.3458 96.4704 36.1838 97.9298 37.961C100.487 41.0753 102.695 43.7652 106.3 43.9069C106.406 43.9114 106.51 43.9134 106.613 43.9134C108.595 43.9134 110.227 43.1315 111.21 41.7122C111.57 41.1915 111.822 40.6023 111.952 40.016C111.372 40.5634 110.572 40.9339 109.561 40.9339C109.144 40.9339 108.7 40.8712 108.242 40.7477C106.257 40.2128 105.222 38.6202 103.911 36.6041C102.816 34.9192 101.453 32.8217 99.0943 30.6918C96.2022 28.08 92.3377 26.5207 88.7563 26.5207C85.1345 26.5207 81.8261 28.0752 79.0623 31.0485C80.7648 30.3678 82.8576 29.8759 85.0143 29.8759Z" fill="black"/>
<path d="M81.2669 41.5187C81.7099 35.4209 77.1448 26.7636 70.0407 27.6739C68.066 35.5865 71.1437 41.8309 73.0634 44.2215C76.0741 47.9703 80.8499 47.2536 81.2669 41.5187Z" fill="#F6F6E5"/>
<path d="M81.1888 36.3968C80.9838 35.5537 80.6913 34.7329 80.3386 33.936C79.9855 33.1404 79.5737 32.3649 79.0786 31.6385C78.1014 30.184 76.8248 28.8708 75.2323 27.9938C73.6524 27.1054 71.7355 26.7664 69.9626 27.0714L69.5274 27.1471L69.4509 27.5269C68.9663 29.2851 68.7139 31.1194 68.7313 32.9533C68.7475 34.7872 69.0197 36.6195 69.5415 38.3744C69.7967 39.2535 70.124 40.1103 70.5038 40.942C70.886 41.7721 71.3184 42.5808 71.8398 43.3368C72.3535 44.0895 72.9639 44.8139 73.7122 45.3764C74.4532 45.9323 75.3282 46.3417 76.2306 46.4146C75.4083 46.0498 74.7198 45.5157 74.1414 44.8937C73.5577 44.277 73.1002 43.5603 72.669 42.814C71.8152 41.3223 71.1748 39.703 70.7433 38.0391C70.3117 36.3737 70.0908 34.658 70.0766 32.9419C70.0702 32.0835 70.1167 31.2251 70.2053 30.3695C70.2817 29.6604 70.4043 28.9579 70.5442 28.2562C71.1752 28.2367 71.8018 28.2805 72.4102 28.4149C73.1548 28.5821 73.8728 28.8599 74.5435 29.2369C75.8876 29.9925 77.0343 31.121 77.9655 32.4127C78.4262 33.0634 78.8485 33.7486 79.2093 34.4689C79.5705 35.1893 79.8747 35.9404 80.1445 36.7049C80.6804 38.24 81.0578 39.8277 81.2657 41.5182C81.705 39.8593 81.595 38.0748 81.1888 36.3968Z" fill="black"/>
<path d="M78.8601 40.9765C79.1356 37.0349 76.7042 31.3939 72.1832 31.351C71.6234 36.8025 73.1758 40.3998 74.3909 41.9467C76.2965 44.3721 78.6009 44.6835 78.8601 40.9765Z" fill="#E6E6CF"/>
<path d="M74.3913 41.9463C74.9718 42.5411 75.6254 43.0869 76.3531 43.3708C76.7135 43.5089 77.0953 43.5461 77.3979 43.4368C77.7017 43.3291 77.9254 43.0679 78.0754 42.7435C78.3747 42.0864 78.4395 41.2668 78.4229 40.4808C78.4124 39.6892 78.3015 38.8939 78.1102 38.1209C77.749 36.5685 77.0565 35.0974 76.1011 33.8692C75.1493 32.6379 73.8574 31.6843 72.1836 31.3502C73.0177 31.1838 73.9257 31.2996 74.7452 31.6438C75.5651 31.9912 76.2993 32.5415 76.8886 33.2035C77.4816 33.864 77.95 34.6224 78.308 35.4189C78.668 36.2154 78.9431 37.0459 79.1182 37.8974C79.2865 38.7498 79.3706 39.62 79.3374 40.4946C79.3152 40.9416 79.265 41.3603 79.1736 41.8021C79.0786 42.2346 78.9507 42.6767 78.7024 43.0861C78.4653 43.489 78.0677 43.881 77.5565 43.9972C77.0484 44.1195 76.5642 43.9624 76.1767 43.7555C75.3916 43.3218 74.8427 42.6452 74.3913 41.9463Z" fill="black"/>
</svg>
