<svg width="133" height="137" viewBox="0 0 133 137" fill="none" xmlns="http://www.w3.org/2000/svg">
<path d="M55.9303 101.015C50.8687 99.6946 44.5632 102.642 44.3809 100.231C44.1978 97.8198 44.3503 96.8975 43.1383 96.2606C35.4896 92.2391 25.5646 89.7422 15.1719 89.4615C11.1832 89.3543 10.5431 102.211 11.6389 103.375C12.7364 104.539 15.9995 102.441 22.3209 101.952C26.8984 101.597 35.1207 102.183 38.1082 104.583C41.0967 106.984 42.3038 112.813 48.0384 115.862C53.6187 118.829 60.0568 117.352 62.2816 111.968C63.9889 107.837 62.193 102.648 55.9303 101.015Z" fill="#CCCAB8"/>
<path d="M18.2757 102.513C14.5522 103.26 12.4712 104.26 11.6406 103.377C10.5401 102.213 11.1815 89.3557 15.1707 89.462C16.5247 89.4983 17.8667 89.5727 19.2005 89.6851C17.2582 93.0775 15.987 99.3877 18.2757 102.513Z" fill="#807E75"/>
<path d="M60.4107 103.343C59.3849 102.696 58.3151 102.227 57.2081 101.908C56.6561 101.744 56.0985 101.613 55.5301 101.521C54.9906 101.427 54.417 101.374 53.8525 101.363C52.7161 101.325 51.5639 101.397 50.399 101.519C49.2307 101.639 48.0666 101.831 46.8201 101.93C46.5057 101.951 46.1857 101.967 45.8453 101.955C45.5046 101.939 45.1438 101.911 44.724 101.753C44.5171 101.672 44.2869 101.546 44.0878 101.341C43.8879 101.14 43.7423 100.868 43.6823 100.617C43.6512 100.495 43.6343 100.36 43.6257 100.264L43.6085 100.04L43.5769 99.5865C43.5346 98.9902 43.5113 98.3823 43.424 97.8881C43.3809 97.6425 43.316 97.4488 43.2348 97.3239C43.1562 97.198 43.0388 97.096 42.8491 96.9862C41.8488 96.46 40.7686 95.9502 39.6953 95.4837C38.6173 95.0167 37.5224 94.5861 36.4154 94.1883C31.9809 92.6084 27.3655 91.5348 22.693 90.91C20.3551 90.6009 18.0032 90.4093 15.6463 90.3315L15.2045 90.3172C15.0619 90.3129 15.0335 90.3164 14.9454 90.3324C14.7951 90.3601 14.6443 90.4314 14.4867 90.5477C14.1709 90.7833 13.8694 91.1954 13.625 91.6572C13.1339 92.5911 12.8182 93.7023 12.5738 94.8165C12.3332 95.9381 12.1746 97.0917 12.0826 98.2479C11.9945 99.4006 11.9621 100.574 12.0554 101.686C12.2972 103.099 11.9639 102.94 13.2989 102.83C14.3774 102.634 15.5582 102.285 16.7339 102.022C19.096 101.47 21.5368 101.123 23.9793 101.08C26.4127 101.044 28.8323 101.189 31.241 101.542C32.4448 101.724 33.6467 101.957 34.8345 102.301C36.0197 102.653 37.2114 103.075 38.3106 103.859C39.4042 104.675 40.1345 105.726 40.8031 106.743C41.4661 107.768 42.0574 108.799 42.6979 109.781C43.9617 111.753 45.4699 113.511 47.3557 114.815C49.2423 116.127 51.4169 117.027 53.8028 117.368C51.404 117.691 48.8721 117.016 46.7527 115.754C45.676 115.128 44.7202 114.305 43.8607 113.414C43.0111 112.508 42.2747 111.517 41.6018 110.505C40.9254 109.495 40.3147 108.461 39.6685 107.489C39.0258 106.525 38.3335 105.6 37.4912 104.996C36.6348 104.395 35.542 103.999 34.4423 103.692C33.3353 103.387 32.1869 103.177 31.0311 103.016C28.716 102.705 26.3552 102.591 24.0189 102.656C21.6905 102.715 19.3815 103.054 17.1031 103.602C15.9517 103.866 14.8447 104.21 13.5775 104.452C13.2536 104.507 12.9184 104.556 12.521 104.547C12.1353 104.532 11.6291 104.464 11.1635 104.066C11.0689 103.981 11.1182 104.028 11.0236 103.931C10.9488 103.85 10.9022 103.779 10.8608 103.713C10.7809 103.581 10.7368 103.474 10.6962 103.372C10.6201 103.17 10.5765 102.994 10.5385 102.822C10.4659 102.479 10.4262 102.159 10.3943 101.839C10.2815 100.572 10.3126 99.3474 10.3982 98.1203C10.488 96.895 10.6443 95.6757 10.8987 94.4603C11.16 93.2466 11.4978 92.0342 12.1167 90.8499C12.4346 90.2641 12.8255 89.6652 13.4665 89.1771C13.7861 88.9371 14.1839 88.7378 14.6214 88.6543C14.8257 88.6111 15.0983 88.602 15.2516 88.6102L15.7046 88.6254C18.1164 88.7097 20.5239 88.9107 22.9163 89.2324C27.6988 89.8749 32.4283 90.9874 36.966 92.6685C38.1015 93.0875 39.2236 93.5419 40.3302 94.0348C41.4398 94.529 42.5165 95.0457 43.6201 95.6428C43.9462 95.8287 44.3042 96.1184 44.5379 96.5058C44.775 96.8876 44.8726 97.282 44.9309 97.6214C45.0397 98.3071 45.0475 98.8956 45.0868 99.491L45.1132 99.9303L45.1283 100.153C45.1335 100.207 45.1352 100.219 45.14 100.243C45.1491 100.283 45.1534 100.28 45.162 100.293C45.1698 100.303 45.2035 100.331 45.2735 100.359C45.4126 100.417 45.6526 100.456 45.907 100.465C46.1614 100.477 46.4383 100.468 46.7195 100.452C49.0013 100.282 51.452 99.7673 53.945 100.027C54.5695 100.099 55.1816 100.206 55.8066 100.379C56.3961 100.568 56.9839 100.782 57.5406 101.061C58.6532 101.611 59.6752 102.373 60.4107 103.343Z" fill="black"/>
<path d="M13.9355 80.2048C15.2252 78.471 20.4013 74.8109 22.6917 81.169C23.6687 83.8804 22.7553 89.0564 27.4173 91.2866C31.876 93.4208 34.9396 90.7167 39.6189 90.4343C43.6219 90.1926 45.6303 93.6275 45.6579 98.5492C49.1015 94.3504 53.6669 85.4183 48.6571 79.6565C45.2519 75.7414 40.8343 76.3268 36.313 78.5747C32.4146 80.5126 28.6418 79.7629 26.2659 75.8412C23.0939 70.6004 14.4547 71.412 13.9355 80.2048Z" fill="#6B6B6B"/>
<path d="M47.5474 88.4649C47.5751 85.8478 45.9579 83.2492 42.0474 83.2392C36.2148 83.2241 31.539 88.8744 27.2998 81.5966C27.6898 83.8091 29.7107 86.9659 33.588 86.2978C38.3878 85.4694 41.1733 84.145 43.9151 86.7622C45.035 87.8323 45.1183 89.8615 46.2573 90.4603C46.7933 90.7423 47.528 90.3406 47.5474 88.4649Z" fill="#858585"/>
<path d="M49.1455 79.232C47.9962 77.9085 46.6672 77.0018 45.1952 76.5348C42.6344 75.7224 39.6348 76.1997 36.0244 77.9941C34.0748 78.9635 32.1825 79.2017 30.5512 78.6841C29.068 78.2137 27.8128 77.1436 26.8212 75.5053C25.8796 73.9514 24.4323 72.8012 22.7439 72.2651C20.6759 71.6088 18.4572 71.8768 16.7443 73.122C13.5071 75.4763 13.4996 79.6129 13.6253 81.1837C15.654 78.7101 18.2887 77.9435 19.5693 78.3495C20.6314 78.6863 21.4763 79.7093 22.0818 81.3886C22.3245 82.0618 22.4464 82.9552 22.5764 83.9025C22.9547 86.6624 23.4255 90.0958 27.1378 91.872C27.543 92.0661 27.9537 92.2292 28.358 92.3567C30.908 93.1666 33.0365 92.5755 35.2906 91.949C36.6546 91.5698 38.0665 91.1781 39.6568 91.0825C40.2995 91.0436 40.8951 91.1097 41.4302 91.2792C43.6835 91.9944 44.9875 94.6453 45.0095 98.5527L45.0194 100.35L46.1584 98.9613C49.5402 94.8381 54.5168 85.4085 49.1455 79.232ZM36.601 79.1563C39.8961 77.5189 42.5791 77.0662 44.8035 77.7714C46.0444 78.1657 47.1773 78.9436 48.1685 80.0838C51.1116 83.4684 50.4953 88.0464 48.8553 91.9672C49.875 88.2133 49.4695 85.44 47.6261 83.5782C44.3936 80.3142 40.7068 80.8672 35.0357 83.0317C31.012 84.5662 29.4135 81.8002 28.0314 78.8082C28.6862 79.3007 29.3941 79.6773 30.1598 79.9203C32.1173 80.542 34.3451 80.2774 36.601 79.1563ZM41.8215 90.0431C41.1348 89.8243 40.3807 89.7383 39.5799 89.7871C37.8527 89.8909 36.3734 90.3021 34.9442 90.699C32.792 91.2979 30.933 91.8137 28.7497 91.1206C28.402 91.0107 28.0478 90.8698 27.6963 90.7016C24.6154 89.2272 24.2145 86.3052 23.8612 83.7261C23.7213 82.7091 23.5896 81.7492 23.3015 80.9493C22.5517 78.8692 21.4283 77.5781 19.9624 77.1129C18.1 76.5219 16.1663 77.4203 14.8334 78.4373C15.2589 76.5677 16.1698 75.0924 17.4798 74.1905C18.8921 73.2176 20.6685 72.9677 22.3534 73.5013C23.742 73.9423 24.9359 74.8922 25.7137 76.1772C25.8632 76.4237 26.0182 76.6585 26.1785 76.8833C26.4272 77.3706 26.6713 77.9042 26.9209 78.455C28.4015 81.7199 30.2446 85.7842 35.3438 83.8394C41.5659 81.4648 44.4022 81.5491 47.0131 84.1866C49.2733 86.4682 48.9827 90.625 46.1757 96.5447C45.7381 93.1281 44.2052 90.7989 41.8215 90.0431Z" fill="black"/>
<path d="M91.5073 115.253C102.548 115.532 127.017 113.259 129.393 109.254C131.378 105.907 128.657 95.0029 125.996 95.3829C123.466 95.7444 119.37 100.685 108.622 104.021C100.606 106.509 92.994 107.54 90.0621 108.046C84.893 108.937 85.3314 115.096 91.5073 115.253Z" fill="#CCCAB8"/>
<path d="M121.074 98.1484C123.362 96.6645 124.838 95.5472 125.995 95.3812C128.654 95.0011 131.374 105.907 129.389 109.253C128.817 110.219 126.959 111.082 124.313 111.834C125.509 108.18 124.79 100.4 121.074 98.1484Z" fill="#807E75"/>
<path d="M89.0181 114.776C89.5295 114.876 90.0261 114.921 90.5237 114.934C91.0247 114.938 91.5046 114.906 92.0195 114.862L93.5372 114.759L95.0549 114.673C97.0788 114.576 99.1033 114.513 101.126 114.376C105.172 114.116 109.212 113.727 113.224 113.183C115.23 112.91 117.229 112.593 119.209 112.216C121.187 111.838 123.158 111.402 125.043 110.799C125.979 110.494 126.906 110.145 127.701 109.69C128.089 109.466 128.454 109.196 128.643 108.943C128.695 108.874 128.705 108.851 128.78 108.714L128.834 108.599L128.892 108.461C128.966 108.269 129.027 108.058 129.076 107.841C129.272 106.967 129.295 105.99 129.247 105.023C129.194 104.054 129.06 103.077 128.866 102.114C128.677 101.149 128.425 100.196 128.104 99.2786C127.781 98.3723 127.387 97.4639 126.87 96.7764C126.626 96.437 126.294 96.1854 126.169 96.1802C126.154 96.1742 126.142 96.1794 126.13 96.1742C126.125 96.1759 126.119 96.1776 126.114 96.1768L126.11 96.1759C126.107 96.1759 126.137 96.1716 126.113 96.175L126.065 96.1837C125.988 96.1953 125.98 96.2014 125.937 96.2101L125.8 96.2481C125.613 96.3048 125.412 96.3916 125.208 96.4906C124.388 96.8984 123.543 97.4795 122.695 98.0325C120.997 99.1606 119.238 100.267 117.407 101.229C115.576 102.193 113.677 103.027 111.74 103.744C109.799 104.462 107.822 105.04 105.846 105.57C103.866 106.099 101.869 106.562 99.8656 106.976C97.8594 107.38 95.8519 107.775 93.8275 108.043C92.8155 108.179 91.7961 108.266 90.7803 108.341C90.2628 108.377 89.7773 108.393 89.2958 108.48C88.8146 108.571 88.3335 108.711 87.8662 108.937C88.2156 108.553 88.6635 108.245 89.1486 108.023C89.3904 107.911 89.6435 107.809 89.9005 107.737L90.6481 107.532C91.6402 107.281 92.6306 107.048 93.6258 106.846C95.6143 106.439 97.6088 106.092 99.5844 105.651C101.561 105.219 103.527 104.739 105.472 104.196C107.42 103.649 109.348 103.061 111.216 102.344C114.976 100.922 118.475 98.9902 121.821 96.7095C122.676 96.1504 123.506 95.5628 124.505 95.056C124.76 94.9311 125.026 94.8135 125.325 94.721C125.399 94.6955 125.477 94.6747 125.554 94.6552C125.636 94.6349 125.751 94.6103 125.799 94.6038L125.846 94.596L125.895 94.5882L125.939 94.5839L126.113 94.5722C126.228 94.5748 126.345 94.58 126.453 94.6025C126.902 94.6829 127.228 94.9004 127.495 95.111C127.757 95.328 127.962 95.561 128.144 95.7967C128.853 96.7427 129.262 97.7355 129.63 98.7373C129.986 99.7421 130.26 100.763 130.467 101.796C130.67 102.831 130.807 103.877 130.861 104.942C130.906 106.006 130.888 107.087 130.635 108.203C130.57 108.482 130.488 108.763 130.376 109.045L130.287 109.258L130.175 109.487C130.128 109.574 130.017 109.777 129.91 109.907C129.472 110.462 128.976 110.778 128.49 111.064C127.512 111.615 126.518 111.971 125.52 112.294C121.525 113.515 117.47 114.117 113.412 114.635C109.352 115.134 105.281 115.475 101.202 115.687C99.1612 115.782 97.1195 115.884 95.0736 115.852L93.5389 115.792C93.0266 115.754 92.5152 115.717 92.0043 115.665C90.9863 115.574 89.8902 115.34 89.0181 114.776Z" fill="black"/>
<path d="M85.4373 88.0096C84.2923 91.6467 80.2613 96.2585 73.2133 95.4824C68.6428 94.9791 62.0799 88.6114 52.1869 90.9104C42.2616 93.2167 40.0463 105.897 44.8729 112.729C51.1019 121.542 78.4542 124.132 88.0323 119.115C97.8255 113.986 101.321 107.493 101.972 99.7478C102.284 96.0432 102.695 89.4334 99.9751 85.5788C95.5627 79.3275 86.4476 81.9901 85.4373 88.0096Z" fill="#E6E6CF"/>
<path d="M70.9242 94.8321C74.075 98.1246 63.7639 102.172 54.8121 98.269C48.4275 95.4854 50.3914 91.5343 53.9089 90.5926C61.3672 89.5415 66.8309 93.244 70.9242 94.8321Z" fill="#F6F6E5"/>
<path d="M73.6159 122.297C73.615 122.297 73.6142 122.297 73.6133 122.297C62.2976 122.297 48.6108 119.139 44.3452 113.103C41.5628 109.165 40.9701 103.448 42.836 98.5375C44.4812 94.2086 47.7503 91.2758 52.0414 90.2783C53.5129 89.9363 55.0039 89.7625 56.4728 89.7625C61.2649 89.7625 65.1824 91.5763 68.3302 93.033C70.2457 93.9198 71.8991 94.6846 73.2851 94.8377C73.7822 94.8926 74.2772 94.9194 74.7566 94.9194C80.9032 94.9194 83.9581 90.4993 84.8072 87.8553C85.4564 84.1438 89.0676 81.3511 93.2304 81.3511C96.1683 81.3511 98.7515 82.7191 100.506 85.2044C103.151 88.954 103.025 94.9752 102.619 99.8022C101.865 108.777 97.4593 114.91 88.3343 119.69C85.1238 121.372 79.8968 122.297 73.6159 122.297ZM56.4732 91.06C55.1028 91.06 53.7107 91.2222 52.3351 91.5421C48.4772 92.4389 45.5341 95.0872 44.0475 98.9989C42.357 103.448 42.9021 108.814 45.4033 112.354C49.4145 118.03 62.6311 121 73.6133 121C73.6142 121 73.615 121 73.6159 121C79.6912 121 84.7048 120.127 87.7334 118.541C96.4222 113.99 100.615 108.177 101.329 99.6937C101.578 96.732 102.161 89.7971 99.4478 85.9532C97.9439 83.8225 95.7359 82.6486 93.2308 82.6486C89.6762 82.6486 86.6005 84.9999 86.0775 88.1164L86.0564 88.2042C84.8012 92.1929 80.8202 96.2166 74.757 96.2166C74.2305 96.2166 73.6877 96.1863 73.1439 96.1271C71.548 95.9506 69.8052 95.1443 67.7873 94.2099C64.7544 92.8073 60.9798 91.06 56.4732 91.06Z" fill="black"/>
<path d="M52.3776 100.43C46.9696 100.352 41.3677 104.89 40.5876 102.502C39.8076 100.113 39.7315 99.1442 38.3572 98.8021C29.6813 96.6385 19.0982 96.5763 8.59407 98.8696C4.56172 99.7503 7.10263 112.885 8.4921 113.788C9.88113 114.691 12.6372 111.765 18.8641 109.704C23.3729 108.212 31.7744 106.766 35.3697 108.448C38.9619 110.13 41.6191 115.716 48.1315 117.372C54.4698 118.984 60.5684 115.899 61.4685 109.912C62.1591 105.318 59.0714 100.527 52.3776 100.43Z" fill="#E6E6CF"/>
<path d="M55.5512 113.309C48.6497 115.355 36.7539 107.355 42.5606 103.069C44.8307 102.514 48.6484 100.376 52.3784 100.43C56.5204 100.492 59.2838 102.35 60.6202 104.849C60.621 104.854 60.621 104.858 60.621 104.858C61.6935 107.866 61.3082 111.603 55.5512 113.309Z" fill="#F6F6E5"/>
<path d="M14.6858 111.397C11.3022 113.022 9.52314 114.455 8.49259 113.79C7.10485 112.886 4.56176 99.7503 8.5954 98.8696C10.0635 98.5505 11.5295 98.2794 12.9928 98.0528C11.6392 101.534 11.6741 108.587 14.6858 111.397Z" fill="#807E75"/>
<path d="M56.981 101.427C55.7708 101.07 54.5579 100.895 53.3442 100.882C52.1236 100.847 50.957 100.998 49.7801 101.284C48.6087 101.564 47.4534 101.96 46.2971 102.395C45.1335 102.823 44.0067 103.333 42.7054 103.679C42.3728 103.758 42.0298 103.83 41.6242 103.829C41.4225 103.826 41.2019 103.805 40.9647 103.724C40.7306 103.645 40.4835 103.492 40.306 103.285C40.1306 103.086 40.0215 102.827 39.9649 102.652L39.8193 102.203L39.5355 101.31C39.3489 100.734 39.1524 100.139 38.8928 99.8308C38.765 99.6803 38.6246 99.586 38.4112 99.5091C38.222 99.4407 37.8722 99.3733 37.5777 99.3006C35.1849 98.7485 32.738 98.3801 30.2817 98.1579C25.3687 97.7229 20.404 97.8496 15.503 98.4618C14.2777 98.6149 13.0562 98.8004 11.8408 99.0166C11.2327 99.1247 10.6258 99.2388 10.0203 99.3621L9.11406 99.5519C8.97412 99.583 8.78932 99.6176 8.68394 99.6474C8.63168 99.6634 8.525 99.704 8.45417 99.7468C8.14362 99.9224 7.86802 100.326 7.68187 100.82C7.49269 101.313 7.37742 101.878 7.30616 102.454C7.16665 103.614 7.19122 104.828 7.28106 106.034C7.37479 107.242 7.54843 108.453 7.79333 109.642C7.91685 110.237 8.05893 110.826 8.22608 111.399C8.39237 111.962 8.59192 112.549 8.82861 112.976C8.88087 113.073 8.95607 113.166 8.94829 113.155C8.94398 113.149 8.94222 113.15 8.93142 113.14L8.89989 113.12L8.92488 113.136C8.97369 113.167 8.95345 113.149 8.94956 113.15C8.96468 113.156 8.98236 113.162 9.00439 113.167C9.09121 113.191 9.30455 113.17 9.5408 113.093C10.0245 112.94 10.574 112.658 11.1135 112.377C12.2001 111.802 13.318 111.191 14.4682 110.648C16.7599 109.55 19.1993 108.694 21.672 108.128C24.1421 107.556 26.6476 107.153 29.1968 107.012C30.4722 106.948 31.7607 106.948 33.0642 107.115C33.7159 107.201 34.3711 107.332 35.0259 107.554C35.6898 107.779 36.3048 108.128 36.8503 108.512C37.9439 109.287 38.8406 110.199 39.7316 111.075C40.6175 111.956 41.4895 112.821 42.4202 113.601C43.3458 114.385 44.3354 115.071 45.384 115.64C46.4371 116.204 47.5532 116.635 48.7163 116.94C51.0352 117.546 53.5226 117.593 55.9452 116.921C53.7536 118.193 51.0205 118.485 48.4787 118.021C47.8546 117.904 47.2024 117.744 46.593 117.536C45.9767 117.322 45.3771 117.066 44.7949 116.773C43.63 116.187 42.5632 115.435 41.5724 114.62C40.5829 113.803 39.6729 112.914 38.7819 112.043C37.8891 111.178 37.0118 110.313 36.0586 109.653C35.5813 109.324 35.0967 109.058 34.5737 108.886C34.0446 108.71 33.471 108.599 32.8849 108.527C31.7114 108.386 30.4929 108.392 29.2784 108.464C26.8454 108.62 24.4082 109.032 22.0236 109.607C19.6342 110.175 17.3382 110.98 15.1298 112.044C14.0229 112.57 12.9517 113.159 11.8339 113.755C11.2668 114.047 10.7088 114.352 10.0017 114.583C9.64668 114.687 9.22732 114.797 8.69606 114.698C8.56476 114.672 8.43385 114.63 8.30643 114.574C8.23215 114.538 8.14102 114.489 8.12591 114.477L8.10039 114.461C8.04683 114.429 8.04853 114.429 8.02046 114.409C7.97554 114.377 7.94577 114.352 7.91122 114.321C7.6741 114.099 7.57782 113.924 7.47329 113.753C7.10703 113.084 6.91918 112.475 6.72525 111.844C6.54039 111.219 6.38955 110.593 6.25695 109.965C5.99521 108.709 5.8104 107.442 5.70631 106.16C5.6061 104.878 5.58405 103.581 5.74775 102.26C5.83456 101.599 5.96635 100.929 6.2268 100.256C6.48724 99.5985 6.89494 98.8648 7.6767 98.4039C7.87711 98.2906 8.05898 98.2115 8.30949 98.1427C8.50515 98.0939 8.62906 98.0736 8.79276 98.0364L9.71838 97.8479C10.3369 97.7255 10.9575 97.6122 11.5786 97.5033C12.8195 97.2897 14.0682 97.1072 15.319 96.9567C20.3232 96.357 25.3937 96.2442 30.4173 96.7522C32.9298 97.0065 35.4254 97.4085 37.8899 98.0039C38.2 98.0865 38.4653 98.1272 38.867 98.2656C39.2406 98.3983 39.6405 98.659 39.907 98.9945C40.1752 99.3257 40.329 99.6708 40.4555 99.9894C40.5799 100.309 40.6771 100.618 40.7717 100.921L41.0451 101.816L41.1842 102.258C41.223 102.38 41.2429 102.412 41.2718 102.452C41.3107 102.501 41.4101 102.559 41.6437 102.563C41.8636 102.569 42.1373 102.523 42.4107 102.458C43.5281 102.178 44.6973 101.677 45.8755 101.255C47.0573 100.821 48.2735 100.416 49.5421 100.171C50.802 99.9146 52.1522 99.8727 53.4173 100.082C54.6862 100.289 55.9357 100.711 56.981 101.427Z" fill="black"/>
<path d="M98.198 62.7317C90.1351 63.3033 80.972 69.5957 79.8944 80.591C78.7153 92.6309 86.2401 102.672 98.7725 102.831C104.395 102.902 109.731 101.799 112.349 100.652C114.969 99.5052 116.856 101.588 118.77 100.504C119.779 99.9333 121.463 97.7308 121.003 96.9175C120.043 96.4336 115.934 96.9572 114.622 95.2312C113.106 93.2366 116.54 91.556 117.479 91.556C118.881 91.556 121.438 94.1351 123.692 92.8674C124.651 92.1691 125.998 87.7853 125.273 86.9685C124.55 86.1526 121.323 87.1678 119.99 85.517C119.556 78.7862 117.532 61.3602 98.198 62.7317Z" fill="#F6F6E5"/>
<path d="M113.442 89.1658C110.963 86.8318 104.676 84.5381 99.5889 88.1303C100.384 85.4733 103.579 82.3455 107.136 83.2128C110.712 84.0845 112.694 87.1246 113.442 89.1658Z" fill="black"/>
<path d="M104.969 77.5777C111.046 75.4945 115.422 81.812 113.436 88.4109C113.44 82.7334 108.846 78.669 104.969 77.5777Z" fill="black"/>
<path d="M98.1983 62.729C99.5403 62.6334 100.796 62.6278 101.974 62.7043C97.5236 63.2253 92.0634 66.2705 89.8489 75.5428C87.2639 86.36 93.893 103.287 110.986 101.163C108.114 102.105 103.551 102.891 98.7745 102.83C86.2412 102.669 78.7163 92.6291 79.8942 80.59C80.9731 69.5947 90.1349 63.3049 98.1983 62.729Z" fill="#E6E6CF"/>
<path d="M121.46 88.7671L121.578 88.7732C121.636 88.7758 121.698 88.7801 121.757 88.7857C121.862 88.8026 121.963 88.8298 122.058 88.867C122.249 88.9422 122.415 89.062 122.539 89.2082C122.793 89.5013 122.847 89.8797 122.78 90.181C122.703 89.8745 122.502 89.6328 122.269 89.5459C122.155 89.5005 122.036 89.4875 121.928 89.5017C121.873 89.5104 121.821 89.5238 121.774 89.5415C121.755 89.5532 121.741 89.5627 121.725 89.5709L121.617 89.6181C121.392 89.7162 121.131 89.6137 121.032 89.3902C120.933 89.1649 121.036 88.9029 121.259 88.8047C121.324 88.7758 121.394 88.7646 121.46 88.7671Z" fill="black"/>
<path d="M124.09 93.3309C124.083 93.3381 124.077 93.3413 124.068 93.3476C124.062 93.353 124.058 93.3572 124.051 93.3626L124.09 93.3309Z" fill="black"/>
<path d="M126.063 87.1211C126.005 86.9343 125.963 86.7358 125.712 86.476C125.684 86.4496 125.681 86.4431 125.631 86.4008C125.573 86.3545 125.513 86.3104 125.45 86.2715C125.357 86.2183 125.262 86.1712 125.177 86.1414C124.825 86.0112 124.542 85.9892 124.267 85.9589C123.723 85.9139 123.232 85.9148 122.756 85.8836C121.896 85.8421 121.083 85.6826 120.623 85.2403C120.422 81.6926 119.887 78.1104 118.666 74.7011C118.043 72.963 117.238 71.2732 116.201 69.7163C115.167 68.1588 113.888 66.7428 112.391 65.5953C110.897 64.4426 109.201 63.561 107.423 62.9673C105.645 62.3719 103.791 62.0537 101.943 61.9422C101.018 61.8846 100.094 61.8803 99.1731 61.9149L98.4834 61.9495L98.1314 61.9715L97.7958 61.9992C97.3189 62.0424 96.8585 62.103 96.3959 62.1791C94.5512 62.4856 92.7579 63.0516 91.0691 63.8377C87.6989 65.4185 84.7295 67.8778 82.6326 70.9684C81.5826 72.509 80.753 74.2005 80.1785 75.971C79.601 77.7394 79.2775 79.5913 79.1764 81.4324C78.9609 85.1093 79.5354 88.8774 81.0916 92.2503C82.637 95.609 85.304 98.5056 88.6056 100.027C87.1889 98.9008 85.9182 97.6525 84.8367 96.2641C83.7612 94.8749 82.8628 93.365 82.1675 91.7648C80.7586 88.5674 80.2308 85.0081 80.4757 81.5154C80.6886 78.0235 81.802 74.6116 83.794 71.7683C85.7687 68.9189 88.5576 66.6551 91.7071 65.2161C93.2801 64.4949 94.9435 63.9639 96.6452 63.6833C97.0702 63.6124 97.5008 63.5575 97.9198 63.5186L98.2553 63.4909L98.5749 63.4715L99.2319 63.4386C100.106 63.4057 100.982 63.4092 101.85 63.4641C105.318 63.6591 108.751 64.6921 111.462 66.8034C112.816 67.8489 113.991 69.1239 114.963 70.552C115.934 71.9802 116.706 73.554 117.311 75.194C118.521 78.4874 119.084 82.0126 119.344 85.5585L119.36 85.7816L119.488 85.9252L119.494 85.9329C119.904 86.4488 120.494 86.7713 121.047 86.9412C121.607 87.1151 122.153 87.176 122.675 87.2106C123.195 87.2444 123.703 87.2417 124.154 87.2789C124.372 87.2975 124.593 87.3286 124.709 87.377C124.742 87.3861 124.757 87.3983 124.774 87.4043C124.78 87.4151 124.786 87.4298 124.787 87.4467C124.819 87.5716 124.831 87.7844 124.819 87.9958C124.809 88.2102 124.783 88.4368 124.748 88.6638C124.674 89.1217 124.563 89.5852 124.428 90.0405C124.292 90.4958 124.132 90.9459 123.943 91.3696C123.849 91.5815 123.747 91.7877 123.638 91.9719C123.535 92.1509 123.393 92.3334 123.334 92.3749L123.394 92.3317L123.311 92.3943C123.302 92.3987 123.288 92.4078 123.272 92.4138C123.233 92.4298 123.183 92.4484 123.128 92.4635C123.018 92.4955 122.894 92.531 122.765 92.5414C119.013 92.8462 118.834 89.6989 115.373 91.7964C112.989 93.2422 113.409 95.213 114.57 96.0414C116.938 97.732 120.442 96.8253 120.391 97.3865C120.382 97.416 120.375 97.4484 120.36 97.483C120.304 97.6538 120.202 97.8513 120.089 98.042C119.857 98.4281 119.556 98.8022 119.239 99.1424C119.08 99.3132 118.913 99.4745 118.746 99.612C118.666 99.6777 118.571 99.7495 118.51 99.7875C118.43 99.8398 118.349 99.8866 118.267 99.9229C117.94 100.075 117.582 100.109 117.146 100.056C116.275 99.9679 115.2 99.5437 113.992 99.5886C113.389 99.6046 112.791 99.7313 112.226 99.9721C111.748 100.194 111.317 100.376 110.837 100.551C108.943 101.232 106.936 101.695 104.921 102.079C102.898 102.444 100.847 102.69 98.7745 102.832C100.844 103.026 102.938 103.017 105.02 102.843C106.064 102.762 107.106 102.637 108.141 102.456C109.178 102.282 110.209 102.055 111.232 101.749C111.735 101.601 112.274 101.415 112.745 101.223C113.141 101.075 113.576 100.998 114.008 101.006C114.445 101.013 114.897 101.095 115.38 101.207C115.863 101.317 116.377 101.469 116.971 101.545C117.558 101.622 118.273 101.578 118.89 101.284C119.043 101.214 119.188 101.134 119.324 101.04C119.478 100.936 119.587 100.848 119.705 100.746C119.934 100.549 120.134 100.344 120.325 100.13C120.705 99.705 121.025 99.2427 121.307 98.7286C121.444 98.4662 121.573 98.196 121.664 97.87C121.707 97.7052 121.742 97.5306 121.745 97.3204C121.747 97.1142 121.717 96.8569 121.568 96.5992L121.567 96.5983C120.865 95.7245 116.246 96.7657 115.03 94.9467C114.234 93.7559 115.932 92.3101 117.578 92.1496C118.551 92.0558 119.287 93.375 121.931 93.7525C122.255 93.7987 122.585 93.7602 122.922 93.7204C123.09 93.7018 123.26 93.6742 123.439 93.6283C123.53 93.6054 123.622 93.5786 123.723 93.5397C123.821 93.4991 123.921 93.4619 124.068 93.3482C124.394 93.0905 124.536 92.8527 124.692 92.6144C124.842 92.3719 124.964 92.1306 125.078 91.8889C125.303 91.4042 125.487 90.9144 125.645 90.4154C125.802 89.9156 125.935 89.4097 126.03 88.8818C126.076 88.6167 126.113 88.3473 126.13 88.0632C126.142 87.7757 126.147 87.4826 126.063 87.1211ZM123.313 92.3901C123.318 92.3883 123.317 92.3875 123.313 92.3901ZM124.748 87.3797C124.747 87.3762 124.759 87.3874 124.773 87.4017C124.774 87.4017 124.774 87.4026 124.774 87.4034C124.763 87.3991 124.753 87.3905 124.748 87.3797Z" fill="black"/>
<path d="M85.5072 68.801C84.2128 64.8664 66.9894 62.3391 69.0021 77.4939C63.9379 79.8257 62.8244 88.011 65.7226 94.7755C68.9425 102.286 75.5326 106.151 70.947 109.323C75.4639 108.861 78.6618 104.032 75.4712 97.0602C69.7004 84.4478 74.0956 75.7013 85.5072 68.801Z" fill="#6B6B6B"/>
<path d="M73.9867 68.4001C72.967 68.7927 70.0641 70.8331 70.883 74.9558C71.4566 72.5972 72.615 71.019 75.1926 69.6869C76.6801 68.9185 75.7878 67.7075 73.9867 68.4001Z" fill="#858585"/>
<path d="M71.8461 107.153C71.9334 105.841 70.8441 104.14 69.2909 101.964C67.9632 100.104 66.3117 97.7912 65.1299 95.0314C62.3545 88.5609 63.0139 79.9744 68.3044 77.1181C67.8997 73.4572 68.5748 70.5413 70.3111 68.4429C71.9252 66.4921 74.4782 65.3285 77.4964 65.1638C81.489 64.9476 85.4398 66.5193 86.1248 68.5973L86.2855 69.0898L85.8437 69.3565C73.9077 76.5724 70.8005 85.2904 76.0625 96.7894C77.7466 100.471 77.8571 103.924 76.3774 106.516C75.2583 108.474 73.0361 109.642 70.1518 109.619C70.1518 109.619 71.752 108.558 71.8461 107.153ZM77.5664 66.4592C74.9136 66.6036 72.6914 67.6019 71.3093 69.2713C69.7397 71.1664 69.1809 73.9034 69.6465 77.4078L69.709 77.8825L69.2746 78.0827C64.7481 80.1676 63.3949 87.6962 66.3194 94.5208C67.448 97.1505 68.9873 99.3072 70.3465 101.21C72.0751 103.633 73.4408 105.545 73.122 107.377C73.0788 107.626 73.0054 107.867 72.9017 108.099C73.8787 107.611 74.6937 106.85 75.2522 105.874C76.5194 103.654 76.3899 100.62 74.8838 97.3308C71.9835 90.993 71.5127 85.5036 73.4433 80.5525C75.1813 76.0942 78.8509 72.1692 84.6498 68.5666C83.7307 67.3806 80.7656 66.2854 77.5664 66.4592Z" fill="black"/>
<path d="M85.5085 68.801C82.8665 68.6523 72.0471 71.2677 69.4893 82.4481C66.7804 94.2861 74.2464 100.701 73.7324 104.841C73.2068 109.092 66.9389 111.165 64.626 106.419C64.7767 111.174 69.4496 113.359 76.3744 109.677C80.6832 107.384 83.9187 101.255 80.9233 91.8925C77.9276 82.529 77.7043 74.4219 85.5085 68.801Z" fill="#6B6B6B"/>
<path d="M74.7793 101.054C71.1097 94.1543 70.1099 88.6557 71.1789 83.4123C71.8885 79.9295 74.3607 80.4795 73.8075 85.0099C73.4481 87.9618 72.824 94.4626 74.7793 101.054Z" fill="#858585"/>
<path d="M70.5637 112.163C70.5637 112.163 70.5628 112.164 70.5628 112.163C68.5997 112.271 66.9386 111.756 65.7612 110.672C64.6504 109.652 63.946 107.539 64.409 105.457C64.409 105.457 65.9017 108.37 68.9397 108.483C70.7667 108.551 72.8161 106.965 73.09 104.762C73.2467 103.486 72.4784 101.835 71.5066 99.7479C69.6269 95.7112 67.0531 90.1824 68.8576 82.3024C71.3666 71.3326 81.5585 68.3397 84.9317 68.1563C85.1572 68.1447 85.3636 68.143 85.5446 68.1529L87.3725 68.2558L85.8862 69.3276C79.3341 74.0466 78.0341 80.7359 81.5399 91.694C84.7628 101.769 80.9343 107.986 76.6774 110.25C74.4811 111.417 72.4227 112.063 70.5637 112.163ZM66.0481 109.029C66.2178 109.281 66.4147 109.512 66.6376 109.716C67.552 110.557 68.8858 110.956 70.492 110.867C70.492 110.867 70.4929 110.867 70.4937 110.867C72.1635 110.777 74.0402 110.183 76.0706 109.104C79.8862 107.075 83.2857 101.402 80.3068 92.09C78.0168 84.9338 76.4066 76.0796 83.3945 69.6818C79.4257 70.5245 72.1315 73.8002 70.1205 82.5921C68.4154 90.038 70.8816 95.3329 72.6813 99.1996C73.7426 101.476 74.5796 103.275 74.3758 104.92C74.0514 107.541 71.7449 109.63 69.0109 109.778C67.9147 109.838 66.9067 109.576 66.0481 109.029Z" fill="black"/>
<path d="M85.484 68.7807C82.8605 68.9234 76.9528 73.4197 76.996 82.084C77.0538 94.0232 84.1067 96.9336 81.0366 102.763C79.1098 106.423 72.3814 109.783 73.8905 116.479C74.9409 121.138 81.3674 122.059 78.7141 127.201C81.246 125.329 80.9782 122.531 78.8938 120.018C77.3212 118.121 77.145 114.632 81.3449 111.638C86.6247 107.873 93.0611 102.586 88.2228 92.8429C82.8493 82.0231 82.5077 73.9541 85.484 68.7807Z" fill="#6B6B6B"/>
<path d="M79.9494 88.4684C80.5593 90.8927 81.5402 92.5556 82.9664 95.7781C84.3144 98.8199 84.389 102.281 81.4088 105.369C78.61 108.265 76.5131 110.158 76.3066 112.177C77.0819 110.263 80.7657 107.645 83.0225 105.533C85.8822 102.858 86.7486 100.214 85.7811 96.789C84.348 91.7086 83.1033 89.6851 82.3435 87.5976C80.8037 83.3694 79.045 84.8741 79.9494 88.4684Z" fill="#858585"/>
<path d="M76.4238 121.316C75.1605 120.094 73.73 118.709 73.2593 116.623C72.138 111.649 75.278 108.361 77.8026 105.718C78.888 104.582 79.9128 103.508 80.4652 102.46C81.8655 99.7988 80.9477 97.8471 79.5565 94.8922C78.1411 91.8807 76.3781 88.1338 76.3474 82.0883C76.3042 73.3807 82.0737 68.4559 85.3131 68.1442C85.3597 68.1398 85.405 68.1355 85.4495 68.1342L86.6416 68.0702L86.0456 69.1058C82.9255 74.5291 83.8782 82.6378 88.802 92.5552C94.1431 103.309 86.0629 109.071 81.7213 112.166C79.8524 113.499 78.7562 115.037 78.5502 116.616C78.4072 117.714 78.7057 118.775 79.3924 119.603C80.7305 121.217 81.3378 122.888 81.1503 124.434C80.9961 125.708 79.636 127.222 78.0176 128.064C79.3837 124.965 78.5311 123.357 76.4238 121.316ZM84.2562 69.7851C81.6716 70.9477 77.6086 74.9601 77.6436 82.0814C77.6716 87.8406 79.3673 91.4431 80.7292 94.3392C82.1731 97.4082 83.3133 99.8317 81.6107 103.065C80.9749 104.273 79.8883 105.412 78.7385 106.616C76.309 109.16 73.5555 112.043 74.5221 116.337C74.9087 118.045 76.1358 119.234 77.3231 120.383C78.4141 121.439 79.5263 122.516 79.8874 123.935C79.9008 122.848 79.3794 121.619 78.3951 120.432C77.4907 119.339 77.0782 117.887 77.2656 116.448C77.4427 115.09 78.2289 113.064 80.9706 111.108C86.5449 107.135 92.1179 102.139 87.6428 93.1312C81.8146 81.3948 82.3834 74.0859 84.2562 69.7851Z" fill="black"/>
<path d="M89.3477 65.6476C89.5878 63.1524 92.8837 53.9497 104.348 55.6143C114.954 57.1532 114.783 68.7594 120.366 69.6726C124.923 70.4167 124.975 63.7106 121.404 62.7749C126.787 62.6405 127.847 68.2859 126.547 71.4107C124.93 75.303 118.6 78.5722 113.55 72.854C107.11 65.5616 97.4193 61.8375 89.3477 65.6476Z" fill="#6B6B6B"/>
<path d="M120.186 76.5694C118.373 76.6952 115.665 76.2274 113.067 73.2834C108.004 67.5535 101.283 64.3877 95.0834 64.8183C93.1709 64.9511 91.3339 65.428 89.6248 66.2344L88.5947 66.7208L88.7037 65.5866C88.9071 63.468 91.5162 55.4319 100.561 54.8041C101.783 54.7189 103.088 54.7755 104.44 54.9714C110.909 55.9105 113.578 60.4462 115.721 64.0902C117.175 66.5638 118.43 68.6976 120.471 69.0322C120.744 69.0772 121.005 69.0915 121.246 69.0746C122.954 68.9566 123.238 67.3408 123.284 66.8496C123.443 65.137 122.782 63.5999 120.298 62.5462C123.814 61.9465 125.711 63.4109 126.497 64.5602C128.036 66.809 127.912 69.817 127.146 71.6606C126.031 74.3435 123.169 76.3627 120.186 76.5694ZM94.9945 63.5255C101.591 63.0668 108.71 66.3935 114.037 72.4247C115.818 74.4413 117.914 75.4275 120.096 75.2758C122.897 75.0816 125.161 73.0581 125.95 71.1613C126.607 69.5831 126.638 67.0598 125.428 65.2931C125.013 64.6878 124.495 64.2264 123.877 63.9143C124.438 64.8382 124.668 65.9646 124.574 66.9703C124.391 68.9108 123.121 70.2451 121.336 70.3683C120.996 70.393 120.634 70.3735 120.262 70.3125C117.623 69.881 116.156 67.3879 114.604 64.7483C112.498 61.1661 110.109 57.1056 104.255 56.2551C102.994 56.0726 101.781 56.0195 100.65 56.099C93.7142 56.5794 90.991 61.8552 90.2261 64.5693C91.7451 63.9899 93.3437 63.6388 94.9945 63.5255Z" fill="black"/>
<path d="M82.4685 71.0017C80.4839 68.0222 77.201 58.5726 86.2185 54.8131C94.9496 51.1734 103.262 57.0983 104.215 64.6168C97.0897 61.7524 86.2888 65.2105 82.4685 71.0017Z" fill="#6B6B6B"/>
<path d="M83.5743 60.3164C83.811 56.9409 91.4365 52.7179 98.4417 57.9409C94.3839 57.0797 91.16 57.4394 87.8926 59.6813C85.2864 61.4691 83.5035 61.3325 83.5743 60.3164Z" fill="#858585"/>
<path d="M82.4701 72.1747L81.9286 71.3614C80.4756 69.1792 78.76 64.4486 79.9974 60.3596C80.8357 57.5838 82.8454 55.5166 85.9677 54.2142C87.4889 53.5808 89.0516 53.2051 90.6108 53.0961C97.6043 52.6115 103.995 57.7433 104.856 64.5346L104.996 65.6298L103.972 65.2187C102.019 64.4343 99.6474 64.1105 97.1138 64.2873C91.2894 64.6911 85.488 67.5984 83.0079 71.3588L82.4701 72.1747ZM90.7016 54.3898C89.2815 54.4879 87.8579 54.8321 86.4676 55.4115C83.7184 56.5573 81.9592 58.3478 81.2379 60.7358C80.2652 63.9518 81.3515 67.6386 82.5224 69.8273C85.4586 66.1539 91.2444 63.3932 97.0256 62.9919C99.3109 62.8341 101.485 63.0559 103.385 63.6361C102.115 58.0507 96.6499 53.9777 90.7016 54.3898Z" fill="black"/>
<path d="M85.3359 68.6508C87.9434 66.3082 95.7291 62.7696 102.231 67.2499C108.467 71.546 111.525 78.2694 117.893 77.9114C123.396 77.6014 124.987 72.6723 123.772 70.1818C123.691 71.6013 122.576 73.5539 119.709 73.0675C116.094 72.4561 115.197 67.8543 109.242 63.4294C103.293 59.0075 92.0051 56.719 85.3359 68.6508Z" fill="#6B6B6B"/>
<path d="M101.856 61.981C104.885 62.4398 108.379 64.6522 110.565 66.8859C113.695 70.0863 114.449 72.9205 117.715 74.1822C114.068 74.0438 113.214 72.3498 110.53 69.4386C108.578 67.3217 106.904 65.2753 101.947 64.0677C97.6684 63.0239 97.17 61.2706 101.856 61.981Z" fill="#858585"/>
<path d="M118.314 78.5302C118.188 78.541 118.06 78.5522 117.93 78.5587C113.504 78.8078 110.557 75.8464 107.438 72.7108C105.748 71.0125 104 69.2562 101.864 67.7835C99.551 66.1898 96.8817 65.5252 93.9296 65.8075C90.1836 66.1672 87.1351 67.7204 84.459 69.5623C87.4768 62.1756 93.711 59.6237 97.3201 59.2791C101.438 58.8839 106.038 60.242 109.628 62.9093C112.487 65.034 114.208 67.1976 115.591 68.9362C117.07 70.8002 118.14 72.1453 119.817 72.4289C120.204 72.4947 120.567 72.5123 120.897 72.4803C122.713 72.3074 123.741 71.0743 123.564 69.2276C124.621 70.7526 124.922 73.3884 123.983 75.0664C122.87 77.0558 120.856 78.2872 118.314 78.5302ZM93.8061 64.5178C97.07 64.2043 100.027 64.944 102.598 66.7151C104.834 68.256 106.624 70.0561 108.356 71.7964C111.391 74.8468 114.012 77.4804 117.857 77.2638C117.97 77.2577 118.082 77.2495 118.19 77.2382C120.297 77.0372 121.953 76.0401 122.853 74.4313C123.183 73.8411 123.391 73.189 123.47 72.5521C122.909 73.1929 122.096 73.6686 121.021 73.7715C120.579 73.8138 120.1 73.7926 119.6 73.7083C117.436 73.3408 116.174 71.7536 114.577 69.7443C113.242 68.0645 111.579 65.9736 108.856 63.9505C105.517 61.4678 101.25 60.2044 97.4432 60.5693C93.594 60.9377 90.2354 62.927 87.5994 66.3683C89.3387 65.4728 91.513 64.7357 93.8061 64.5178Z" fill="black"/>
<path d="M91.8549 77.1497C91.5746 70.6277 85.6665 62.0074 78.2437 63.8498C77.1224 72.4856 81.1556 78.7287 83.4862 81.0276C87.1419 84.6328 92.1193 83.2829 91.8549 77.1497Z" fill="#F6F6E5"/>
<path d="M91.142 71.7264C90.8207 70.8573 90.4095 70.0224 89.9378 69.2208C89.4653 68.4209 88.9336 67.6482 88.3181 66.94C87.1032 65.5179 85.5876 64.2826 83.79 63.5476C82.0053 62.8009 79.93 62.6785 78.087 63.2207L77.6352 63.3543L77.6011 63.7663C77.3035 65.6908 77.2612 67.6676 77.5048 69.6112C77.748 71.5543 78.2628 73.4636 79.032 75.2615C79.4104 76.1625 79.8634 77.0307 80.3688 77.8648C80.8763 78.6984 81.4343 79.5031 82.0813 80.2403C82.7184 80.9757 83.4552 81.6684 84.3186 82.1725C85.1725 82.6715 86.1508 82.9976 87.117 82.9638C86.1996 82.6776 85.404 82.1964 84.7138 81.6083C84.0189 81.0255 83.4453 80.3211 82.8963 79.5839C81.8066 78.1069 80.9281 76.4686 80.2651 74.7569C79.6034 73.0434 79.1573 71.2516 78.9314 69.4326C78.8182 68.5238 78.7625 67.6076 78.7509 66.6888C78.7448 65.9269 78.7884 65.1668 78.8502 64.4062C79.5175 64.3072 80.1874 64.2752 80.8491 64.3435C81.6593 64.4287 82.455 64.635 83.213 64.9524C84.7312 65.5884 86.0869 66.6438 87.2332 67.8981C87.8025 68.5316 88.335 69.2069 88.8067 69.9255C89.2783 70.645 89.6933 71.4043 90.0739 72.1821C90.8314 73.7443 91.427 75.3817 91.8555 77.1492C92.1155 75.335 91.7791 73.4559 91.142 71.7264Z" fill="black"/>
<path d="M89.2357 76.8707C89.0439 72.6559 85.7704 66.9724 80.9697 67.4852C81.0457 73.3356 83.1366 76.9602 84.6151 78.4515C86.9353 80.7885 89.4179 80.8356 89.2357 76.8707Z" fill="#E6E6CF"/>
<path d="M84.6141 78.452C85.3025 79.0102 86.0632 79.5092 86.8704 79.7206C87.2691 79.8226 87.6785 79.8144 87.9865 79.6613C88.2958 79.51 88.5005 79.2051 88.6197 78.842C88.8564 78.1082 88.824 77.2314 88.7096 76.3999C88.6011 75.5615 88.386 74.7323 88.0875 73.9358C87.5135 72.3339 86.5983 70.8586 85.4334 69.6739C84.2724 68.4857 82.7841 67.6335 80.9688 67.4857C81.8321 67.2055 82.8096 67.2162 83.7214 67.4804C84.6331 67.7481 85.4797 68.2405 86.1867 68.8705C86.8972 69.4979 87.4868 70.2437 87.9649 71.0449C88.4447 71.8448 88.8387 72.6919 89.1298 73.5735C89.4122 74.4568 89.6088 75.3696 89.6814 76.3013C89.7133 76.7787 89.7107 77.2288 89.6688 77.7091C89.6209 78.1796 89.5405 78.6634 89.3263 79.1287C89.125 79.5857 88.7519 80.05 88.2237 80.2368C87.6997 80.4284 87.1667 80.322 86.7305 80.1508C85.8442 79.7872 85.179 79.1368 84.6141 78.452Z" fill="black"/>
<path d="M86.466 118.299C97.5278 120.126 123.15 121.847 126.117 118.215C128.595 115.179 127.435 103.423 124.703 103.426C122.108 103.429 116.586 107.785 105.295 109.58C96.8756 110.919 89.0722 110.871 86.0496 110.959C80.7233 111.117 80.2767 117.277 86.466 118.299Z" fill="#E6E6CF"/>
<path d="M118.859 105.577C121.639 104.379 123.488 103.43 124.7 103.426C127.434 103.422 128.592 115.179 126.112 118.213C125.421 119.058 123.501 119.617 120.816 119.947C122.579 116.252 122.871 107.809 118.859 105.577Z" fill="#807E75"/>
<path d="M83.0079 112.015C83.705 111.408 84.7234 110.999 86.0498 110.959C88.8141 110.876 95.5861 110.912 103.168 109.892C107.692 110.689 104.655 116.218 92.5453 116.57C81.1341 116.902 81.8439 113.532 82.9988 112.02C83.0035 112.019 83.0079 112.015 83.0079 112.015Z" fill="#F6F6E5"/>
<path d="M84.5173 117.726C85.0347 117.844 85.5378 117.926 86.0458 117.969L87.5852 118.068C88.1022 118.104 88.6178 118.14 89.1322 118.191C89.6453 118.231 90.1606 118.281 90.6738 118.334C92.7241 118.567 94.7799 118.778 96.8389 118.95C100.956 119.294 105.085 119.527 109.211 119.609C111.273 119.649 113.335 119.645 115.389 119.582C117.44 119.516 119.495 119.395 121.492 119.095C122.484 118.941 123.477 118.742 124.356 118.414C124.786 118.253 125.203 118.04 125.435 117.814C125.5 117.751 125.51 117.733 125.606 117.607L125.678 117.498L125.756 117.367C125.86 117.182 125.951 116.978 126.032 116.765C126.355 115.907 126.515 114.92 126.605 113.937C126.692 112.947 126.699 111.941 126.649 110.938C126.6 109.937 126.494 108.935 126.315 107.956C126.135 106.984 125.888 106.008 125.498 105.186C125.311 104.784 125.048 104.411 124.848 104.284C124.801 104.25 124.766 104.242 124.742 104.232C124.712 104.227 124.737 104.225 124.584 104.231C124.431 104.24 124.197 104.281 123.986 104.338C123.1 104.575 122.15 105.008 121.21 105.415C119.323 106.255 117.39 107.095 115.412 107.801C113.435 108.517 111.409 109.1 109.36 109.571C107.312 110.044 105.233 110.377 103.165 110.642C101.093 110.909 99.0166 111.108 96.9361 111.253C94.8569 111.396 92.7755 111.492 90.6962 111.538C89.6562 111.556 88.6161 111.525 87.5778 111.442C87.0612 111.399 86.5365 111.337 86.0286 111.277C85.5237 111.206 85.0222 111.19 84.4854 111.211C84.938 110.923 85.47 110.75 86 110.645C86.5291 110.552 87.0393 110.472 87.5584 110.41C88.5924 110.289 89.6242 110.216 90.6548 110.171C92.718 110.094 94.7765 109.989 96.8302 109.825C98.884 109.663 100.932 109.447 102.968 109.166C105.008 108.887 107.023 108.543 109.009 108.065C110.997 107.593 112.951 106.994 114.873 106.304C116.798 105.614 118.669 104.798 120.567 103.953C121.528 103.54 122.467 103.095 123.585 102.787C123.874 102.714 124.152 102.654 124.516 102.631C124.62 102.623 124.907 102.616 125.129 102.678C125.354 102.737 125.56 102.832 125.728 102.945C126.389 103.413 126.675 103.969 126.941 104.49C127.437 105.545 127.691 106.604 127.894 107.667C128.087 108.727 128.203 109.793 128.253 110.862C128.299 111.933 128.282 113.006 128.18 114.082C128.07 115.159 127.897 116.242 127.486 117.327C127.379 117.596 127.257 117.867 127.104 118.135L126.981 118.337L126.834 118.548C126.775 118.628 126.628 118.82 126.502 118.932C125.974 119.418 125.425 119.646 124.892 119.852C123.822 120.238 122.767 120.43 121.714 120.588C119.609 120.886 117.516 120.991 115.427 121.043C113.338 121.09 111.255 121.057 109.174 120.991C105.013 120.853 100.866 120.562 96.7288 120.16C94.6608 119.956 92.5941 119.731 90.5338 119.448C90.0186 119.372 89.505 119.286 88.9937 119.187C88.4814 119.096 87.9722 118.984 87.4638 118.864C86.9546 118.744 86.4544 118.618 85.9408 118.445C85.4355 118.268 84.9466 118.034 84.5173 117.726Z" fill="black"/>
</svg>
