<svg width="144" height="137" viewBox="0 0 144 137" fill="none" xmlns="http://www.w3.org/2000/svg">
<path d="M52.7885 100.553C47.1736 100.349 41.2463 104.909 40.4952 102.424C39.7421 99.9378 39.6869 98.9355 38.2676 98.55C29.3107 96.1171 18.3226 95.812 7.35849 97.9411C3.15122 98.7586 5.47104 112.39 6.89079 113.356C8.31239 114.32 11.246 111.359 17.7616 109.372C22.4792 107.933 31.2385 106.63 34.9293 108.451C38.6221 110.272 41.2444 116.103 47.9678 117.963C54.5098 119.774 60.9182 116.724 61.9974 110.559C62.826 105.828 59.736 100.805 52.7885 100.553Z" fill="#CCCAB8"/>
<path d="M13.6484 110.903C9.91759 112.555 7.96753 114.089 6.89159 113.356C5.4672 112.393 3.14828 98.7595 7.35556 97.9412C8.78366 97.6625 10.2089 97.4284 11.6338 97.2347C10.3862 101.245 10.5212 108.159 13.6484 110.903Z" fill="#807E75"/>
<path d="M58.0291 101.95C56.8019 101.511 55.5715 101.268 54.3364 101.192C53.7193 101.148 53.104 101.141 52.487 101.178C51.8986 101.204 51.2853 101.283 50.691 101.401C49.4902 101.627 48.2987 101.972 47.1059 102.37C45.9079 102.768 44.7317 103.242 43.4475 103.637C43.1232 103.733 42.7914 103.824 42.4319 103.89C42.0704 103.953 41.6863 104.008 41.2084 103.94C40.9736 103.903 40.7026 103.825 40.4461 103.657C40.1895 103.492 39.9728 103.241 39.8517 102.991C39.7909 102.87 39.7413 102.733 39.7102 102.634L39.6406 102.403L39.5019 101.935C39.3187 101.321 39.153 100.687 38.9465 100.19C38.844 99.9416 38.7307 99.7545 38.6166 99.6421C38.5052 99.5287 38.3583 99.4488 38.1337 99.3782C36.9622 99.0596 35.7103 98.7758 34.4771 98.538C33.2374 98.2993 31.9898 98.1024 30.7361 97.944C25.7188 97.3207 20.6286 97.2719 15.5829 97.7052C13.0599 97.9268 10.5479 98.2742 8.05871 98.7419L7.59191 98.8292C7.44158 98.8585 7.41241 98.8692 7.32379 98.9064C7.17346 98.9709 7.03103 99.0796 6.89324 99.2393C6.61671 99.5594 6.39674 100.062 6.2478 100.604C5.94947 101.698 5.8771 102.937 5.87989 104.163C5.88917 105.393 5.99128 106.64 6.16341 107.875C6.33926 109.103 6.5786 110.341 6.93447 111.485C7.51628 112.911 7.13027 112.822 8.50501 112.396C9.58977 111.939 10.7469 111.298 11.9184 110.747C14.2675 109.618 16.7465 108.686 19.2974 108.071C21.8409 107.465 24.4117 107.054 27.0202 106.862C28.3258 106.772 29.6407 106.736 30.9667 106.82C32.2914 106.913 33.6392 107.078 34.974 107.642C36.3107 108.243 37.3212 109.177 38.258 110.086C39.1924 111.007 40.0522 111.95 40.9523 112.83C42.7358 114.603 44.7267 116.094 47.0076 117.022C49.2921 117.959 51.7813 118.397 54.3623 118.197C51.9228 119.095 49.1102 118.977 46.5946 118.148C45.3196 117.743 44.1263 117.103 43.0169 116.368C41.9159 115.617 40.9119 114.749 39.9714 113.845C39.0263 112.944 38.1452 112.001 37.2419 111.133C36.3436 110.272 35.4023 109.463 34.3792 109.026C33.3409 108.596 32.1029 108.435 30.8785 108.37C29.6462 108.308 28.394 108.355 27.1441 108.456C24.6428 108.67 22.1411 109.1 19.7062 109.714C17.2787 110.318 14.9361 111.212 12.6743 112.319C11.5287 112.863 10.4477 113.483 9.17457 114.032C8.8484 114.165 8.50734 114.294 8.08884 114.376C7.68101 114.451 7.13349 114.498 6.55353 114.19C6.43382 114.122 6.49645 114.16 6.37489 114.081C6.27793 114.014 6.2126 113.949 6.15367 113.89C6.03953 113.771 5.96798 113.669 5.90164 113.571C5.77497 113.377 5.68783 113.202 5.60803 113.03C5.45214 112.688 5.33609 112.361 5.22845 112.034C4.81505 110.731 4.56315 109.44 4.36689 108.133C4.17666 106.827 4.0569 105.512 4.04066 104.178C4.03231 102.845 4.10428 101.494 4.47824 100.108C4.67496 99.4195 4.94589 98.701 5.50405 98.0387C5.78428 97.7141 6.15458 97.4117 6.59442 97.2222C6.7981 97.1288 7.08198 97.0554 7.24484 97.028L7.72319 96.9393C10.2713 96.4651 12.8431 96.1149 15.4269 95.8942C20.5923 95.4535 25.8101 95.5167 30.9602 96.2217C32.2486 96.3968 33.5311 96.6119 34.806 96.8701C36.0847 97.1298 37.3342 97.421 38.6301 97.7893C39.0152 97.9082 39.4583 98.1284 39.7937 98.4804C40.131 98.8251 40.3254 99.217 40.4651 99.5589C40.7388 100.253 40.8836 100.868 41.0641 101.483L41.1936 101.938L41.2613 102.168C41.2785 102.223 41.284 102.236 41.2947 102.259C41.3128 102.299 41.3164 102.294 41.328 102.306C41.3387 102.316 41.3805 102.338 41.4603 102.35C41.6199 102.378 41.8806 102.362 42.1497 102.314C42.4188 102.267 42.7079 102.193 42.9979 102.11C45.3511 101.401 47.8018 100.289 50.4766 99.9802C51.1479 99.9096 51.8151 99.8785 52.5102 99.9156C53.1727 99.9755 53.8385 100.063 54.4876 100.226C55.783 100.543 57.0316 101.104 58.0291 101.95Z" fill="black"/>
<path d="M6.71991 95.192C7.3073 92.9449 9.46755 90.6282 11.509 92.9551C13.5514 95.2803 15.2941 105.704 24.8065 104.341C34.3178 102.977 32.9524 94.1846 37.4979 92.0146C41.3873 90.1586 44.4022 93.029 46.7791 97.6569C48.5171 92.0861 47.9845 81.258 40.7094 77.4763C34.7623 74.3867 25.8517 76.9501 23.7174 85.8683C22.1079 92.5938 18.7707 95.3824 15.4106 91.2524C11.1648 86.0323 6.03649 88.4117 6.71991 95.192Z" fill="#6B6B6B"/>
<path d="M41.0292 76.8581C39.0536 75.8321 36.7857 75.3849 34.4691 75.5655C30.0331 75.9111 24.7021 78.7569 23.0383 85.7058C22.0696 89.7573 20.4141 92.355 18.7192 92.4879C17.6256 92.5733 16.6086 91.6235 15.9489 90.8135C14.2127 88.6788 12.2088 87.585 10.3051 87.7336C9.1735 87.8214 8.17279 88.3504 7.41188 89.2613C5.85434 91.1275 6.0895 94.5817 6.53027 96.2565C7.99734 93.1911 8.78938 92.8957 9.63148 92.6876C10.0639 92.5808 10.532 92.898 10.9862 93.415C11.4006 93.8859 11.8515 94.8529 12.3735 95.9732C14.067 99.6035 16.901 105.682 24.0661 105.124C24.338 105.102 24.6177 105.071 24.9035 105.03C31.11 104.14 33.0104 100.172 34.5364 96.983C35.4625 95.0471 36.2637 93.375 37.7958 92.643C38.3883 92.3611 38.9719 92.1948 39.5301 92.1511C41.8509 91.9695 44.0812 93.9291 46.1589 97.976L46.9356 99.4883L47.4422 97.8645C49.0971 92.5622 48.9139 80.9556 41.0292 76.8581ZM39.4225 90.7615C38.6931 90.8195 37.9442 91.029 37.1968 91.3848C35.2193 92.3299 34.278 94.297 33.2814 96.3815C31.7554 99.5701 30.177 102.868 24.7063 103.65C17.9579 104.629 15.4422 99.2588 13.6355 95.3833C13.0449 94.1167 12.5782 93.1154 12.0316 92.4939C11.0865 91.4173 10.146 91.2491 9.52433 91.2974C8.74857 91.3583 8.06791 91.7582 7.50975 92.3318C7.68745 91.4535 8.01364 90.7136 8.48039 90.1553C8.99586 89.5376 9.66487 89.1809 10.4151 89.1219C11.8288 89.0123 13.4527 89.9482 14.8702 91.6918C15.5596 92.5399 16.2686 93.1339 16.9914 93.4916C18.3769 94.6091 20.1315 95.1599 21.8557 94.9895C23.5403 94.8134 25.9707 93.872 27.9815 90.3801C31.542 84.1934 34.3059 82.2394 38.5414 82.9124C42.0013 83.4633 45.5237 87.8302 46.1997 95.2473C44.1373 92.0415 41.907 90.5683 39.4225 90.7615ZM46.8544 93.1497C45.7051 86.4814 42.1683 82.5479 38.6867 81.9951C33.3853 81.154 30.3505 84.4011 27.176 89.9157C25.361 93.0689 23.2285 93.9124 21.7587 94.0652C20.9695 94.1469 20.1636 94.0355 19.399 93.7731C21.5365 93.2087 23.3362 90.4419 24.3931 86.0304C25.882 79.8084 30.6293 77.2627 34.5767 76.9543C36.634 76.7936 38.6431 77.1884 40.3871 78.0945C45.8476 80.9324 47.2005 87.8474 46.8544 93.1497Z" fill="black"/>
<path d="M42.6531 87.0309C41.1545 84.6979 38.1447 82.8279 34.355 84.644C28.7039 87.3509 29.7961 95.6931 21.3574 95.9128C22.9651 96.6411 26.9385 96.5714 29.2945 93.2946C32.3511 89.0439 34.4716 85.8242 38.3438 87.0778C39.926 87.5905 41.4899 89.5125 42.7306 89.5088C43.698 89.5069 43.7425 88.7248 42.6531 87.0309Z" fill="#858585"/>
<path d="M91.9483 115.854C103.594 118.126 129.917 120.096 133.149 116.279C135.849 113.089 134.915 101.052 132.027 100.979C129.283 100.909 124.063 105.408 112.082 107.02C103.148 108.221 94.9001 107.951 91.7039 107.963C86.0699 107.982 85.4346 114.583 91.9483 115.854Z" fill="#CCCAB8"/>
<path d="M126.322 103.027C129.01 101.866 130.774 100.946 132.029 100.977C134.913 101.05 135.847 113.089 133.147 116.278C132.367 117.198 130.246 117.78 127.308 118.103C129.229 114.447 129.855 106.077 126.322 103.027Z" fill="#807E75"/>
<path d="M89.3974 114.904C89.9212 115.101 90.4395 115.237 90.9642 115.341C91.4945 115.436 92.0082 115.487 92.5608 115.533L94.1874 115.694L95.8095 115.876C97.9707 116.135 100.127 116.43 102.294 116.647C106.626 117.095 110.975 117.407 115.322 117.549C117.495 117.617 119.668 117.639 121.834 117.594C123.996 117.548 126.161 117.439 128.265 117.138C129.311 116.982 130.357 116.779 131.279 116.439C131.732 116.271 132.165 116.049 132.411 115.815C132.478 115.752 132.492 115.729 132.597 115.597L132.674 115.485L132.761 115.349C132.874 115.159 132.975 114.947 133.066 114.727C133.43 113.835 133.629 112.805 133.749 111.772C133.867 110.735 133.899 109.677 133.866 108.623C133.839 107.568 133.743 106.512 133.566 105.483C133.386 104.466 133.131 103.432 132.706 102.611C132.506 102.209 132.201 101.882 132.07 101.854C132.054 101.846 132.041 101.848 132.029 101.841C132.023 101.842 132.017 101.843 132.013 101.841L132.008 101.839C132.004 101.839 132.037 101.84 132.011 101.839H131.959C131.875 101.839 131.866 101.843 131.819 101.844L131.666 101.86C131.459 101.887 131.229 101.943 130.996 102.011C130.055 102.297 129.056 102.76 128.059 103.195C126.059 104.086 123.998 104.943 121.887 105.634C119.774 106.328 117.615 106.872 115.435 107.284C113.25 107.698 111.054 107.957 108.866 108.164C106.674 108.369 104.476 108.503 102.28 108.582C100.084 108.651 97.8867 108.71 95.694 108.632C94.5976 108.596 93.5026 108.504 92.4137 108.403C91.8592 108.348 91.3415 108.278 90.8163 108.285C90.2906 108.295 89.7561 108.357 89.2207 108.513C89.6601 108.168 90.1894 107.923 90.742 107.774C91.0185 107.699 91.3048 107.636 91.5902 107.605L92.4183 107.522C93.5137 107.434 94.605 107.364 95.6953 107.328C97.8737 107.253 100.049 107.241 102.221 107.128C104.391 107.025 106.559 106.867 108.716 106.64C110.876 106.41 113.024 106.131 115.13 105.707C119.367 104.873 123.419 103.452 127.37 101.635C128.375 101.197 129.36 100.722 130.509 100.364C130.801 100.278 131.104 100.2 131.437 100.156C131.52 100.143 131.606 100.134 131.692 100.127C131.781 100.121 131.908 100.115 131.96 100.117H132.012L132.065 100.118L132.112 100.121L132.299 100.14C132.42 100.163 132.543 100.189 132.654 100.233C133.115 100.399 133.421 100.687 133.667 100.958C133.905 101.235 134.081 101.519 134.232 101.8C134.814 102.929 135.07 104.054 135.282 105.18C135.479 106.309 135.587 107.438 135.621 108.571C135.651 109.703 135.61 110.837 135.477 111.973C135.334 113.109 135.122 114.25 134.655 115.387C134.536 115.671 134.399 115.954 134.231 116.233L134.098 116.443L133.938 116.666C133.873 116.748 133.719 116.943 133.582 117.062C133.019 117.572 132.438 117.818 131.872 118.034C130.738 118.443 129.621 118.642 128.506 118.805C124.056 119.385 119.655 119.296 115.262 119.119C110.873 118.921 106.5 118.553 102.141 118.047C99.9634 117.783 97.7818 117.526 95.6207 117.126L94.0061 116.788C93.4706 116.657 92.9347 116.525 92.4039 116.378C91.34 116.101 90.22 115.658 89.3974 114.904Z" fill="black"/>
<path d="M86.2022 86.4957C84.9726 90.4028 80.6419 95.3568 73.0714 94.5231C68.1607 93.9825 61.1107 87.1423 50.4845 89.6118C39.8215 92.0893 37.4427 105.711 42.6276 113.049C49.318 122.517 78.7003 125.3 88.9893 119.91C99.5093 114.4 103.265 107.426 103.964 99.1051C104.299 95.1255 104.74 88.0252 101.819 83.8845C97.079 77.1693 87.2869 80.0294 86.2022 86.4957Z" fill="#E6E6CF"/>
<path d="M70.6139 93.8245C73.9976 97.3614 62.9213 101.709 53.3055 97.5165C46.4476 94.5263 48.5563 90.282 52.3358 89.2704C60.3481 88.1413 66.2164 92.1185 70.6139 93.8245Z" fill="#F6F6E5"/>
<path d="M73.5012 123.328C73.5003 123.328 73.5003 123.328 73.4994 123.328C61.3438 123.328 46.6406 119.935 42.0589 113.451C39.0695 109.221 38.4335 103.079 40.4369 97.805C42.2051 93.1548 45.7164 90.0043 50.3259 88.9328C51.9071 88.5654 53.5083 88.3787 55.0863 88.3787C60.2335 88.3787 64.4417 90.3271 67.8236 91.8919C69.8808 92.8445 71.6579 93.6662 73.1468 93.8306C73.6803 93.8896 74.2125 93.9184 74.727 93.9184C81.3293 93.9184 84.611 89.1702 85.5236 86.33C86.2205 82.343 90.1007 79.343 94.5719 79.343C97.7274 79.343 100.503 80.8126 102.387 83.4823C105.23 87.5102 105.094 93.9783 104.658 99.1636C103.847 108.804 99.1141 115.392 89.3118 120.527C85.8636 122.334 80.2487 123.328 73.5012 123.328ZM55.0867 89.7726C53.615 89.7726 52.1192 89.9467 50.641 90.2904C46.4968 91.2537 43.3353 94.0986 41.7383 98.3006C39.9223 103.079 40.5079 108.844 43.1957 112.647C47.5036 118.745 61.702 121.935 73.4994 121.935C73.5003 121.935 73.5012 121.935 73.5012 121.935C80.0274 121.935 85.4141 120.997 88.6665 119.293C98.0002 114.405 102.504 108.159 103.271 99.047C103.538 95.8654 104.165 88.4159 101.251 84.2868C99.6343 81.9979 97.2625 80.7369 94.5719 80.7369C90.7535 80.7369 87.4491 83.2626 86.8872 86.6105L86.8644 86.7048C85.5161 90.9895 81.2398 95.3118 74.727 95.3118C74.1615 95.3118 73.5777 95.2793 72.9945 95.2156C71.2801 95.0261 69.408 94.1599 67.2394 93.1562C63.9814 91.6495 59.9273 89.7726 55.0867 89.7726Z" fill="black"/>
<path d="M49.3666 100.014C43.6366 100.98 38.5955 106.861 37.3099 104.488C36.0233 102.116 35.7555 101.107 34.237 101.012C24.6523 100.407 13.4572 102.394 2.80213 106.853C-1.28823 108.565 3.9375 121.951 5.57949 122.635C7.22148 123.321 9.56775 119.694 15.7488 116.31C20.2242 113.859 28.8215 110.703 32.9453 111.783C37.0667 112.864 40.9543 118.25 48.1565 118.739C55.1648 119.213 61.0118 114.771 60.8053 108.271C60.6467 103.283 56.4574 98.8185 49.3666 100.014Z" fill="#E6E6CF"/>
<path d="M55.2138 113.007C48.3178 116.506 34.201 110.36 39.5065 104.705C41.7976 103.678 45.4175 100.68 49.3705 100.014C53.7592 99.2756 57.0386 100.703 58.9334 103.086C58.9353 103.089 58.9362 103.094 58.9362 103.094C60.651 106.065 60.9674 110.087 55.2138 113.007Z" fill="#F6F6E5"/>
<path d="M11.6622 118.908C8.40189 121.28 6.79889 123.14 5.58189 122.637C3.94083 121.951 -1.28721 108.564 2.80453 106.852C4.29434 106.231 5.79067 105.661 7.29301 105.136C6.53581 109.078 7.93699 116.524 11.6622 118.908Z" fill="#807E75"/>
<path d="M54.4221 100.175C53.0747 100.032 51.7589 100.082 50.4737 100.303C49.1779 100.504 47.9734 100.89 46.7856 101.42C45.602 101.943 44.4583 102.585 43.3212 103.269C42.1738 103.947 41.0811 104.703 39.7736 105.322C39.4373 105.468 39.0893 105.612 38.6602 105.689C38.4472 105.725 38.2096 105.745 37.9433 105.706C37.6807 105.668 37.3898 105.554 37.162 105.369C36.9384 105.193 36.7723 104.941 36.679 104.768L36.4377 104.321L35.9645 103.433C35.6573 102.86 35.3339 102.27 35.0003 101.994C34.8356 101.859 34.6695 101.788 34.4287 101.747C34.2167 101.712 33.8335 101.708 33.5082 101.688C30.8729 101.568 28.2162 101.655 25.5781 101.896C20.3032 102.388 15.0807 103.485 10.0216 105.08C8.75636 105.48 7.50127 105.913 6.25922 106.377C5.6375 106.609 5.01859 106.848 4.40244 107.094L3.48288 107.472C3.34044 107.532 3.15211 107.604 3.04632 107.656C2.99482 107.682 2.88942 107.746 2.82261 107.805C2.52891 108.051 2.31503 108.532 2.21342 109.089C2.10903 109.647 2.09751 110.267 2.13277 110.889C2.20979 112.142 2.471 113.42 2.79995 114.677C3.13262 115.935 3.55015 117.18 4.03871 118.389C4.28415 118.993 4.54817 119.588 4.83537 120.162C5.12071 120.724 5.44458 121.306 5.77679 121.711C5.85102 121.804 5.94794 121.887 5.9382 121.877C5.93263 121.871 5.93081 121.873 5.91736 121.864L5.88021 121.85L5.90943 121.862C5.96743 121.884 5.94282 121.871 5.93911 121.871C5.95627 121.875 5.97535 121.879 5.99994 121.879C6.09598 121.887 6.31725 121.823 6.55248 121.696C7.03362 121.442 7.5593 121.037 8.07477 120.635C9.11221 119.817 10.1742 118.955 11.2854 118.158C13.4939 116.555 15.9061 115.177 18.4092 114.1C20.9086 113.015 23.4777 112.104 26.1445 111.461C27.4794 111.145 28.8407 110.897 30.2507 110.82C30.956 110.786 31.6732 110.796 32.4081 110.904C33.1528 111.013 33.8705 111.262 34.5215 111.563C35.8271 112.17 36.9509 112.959 38.0621 113.712C39.1686 114.472 40.2567 115.216 41.3915 115.86C42.5208 116.509 43.6988 117.042 44.9176 117.439C46.1383 117.831 47.4023 118.069 48.6893 118.167C51.2574 118.358 53.8946 117.924 56.3249 116.746C54.2551 118.514 51.4234 119.353 48.6475 119.354C47.965 119.353 47.2449 119.309 46.5615 119.208C45.8692 119.102 45.1859 118.946 44.5136 118.751C43.1699 118.358 41.8972 117.769 40.6932 117.1C39.4887 116.428 38.3553 115.666 37.245 114.918C36.1348 114.177 35.0412 113.434 33.9058 112.921C33.3375 112.665 32.7747 112.478 32.1887 112.398C31.5962 112.314 30.968 112.309 30.3347 112.346C29.068 112.424 27.7819 112.667 26.5125 112.978C23.9722 113.615 21.4761 114.522 19.0681 115.593C16.6531 116.656 14.3829 117.95 12.2551 119.503C11.1875 120.274 10.1691 121.105 9.10341 121.949C8.56057 122.368 8.02973 122.799 7.32728 123.18C6.97188 123.359 6.55069 123.557 5.9698 123.555C5.82644 123.552 5.67973 123.534 5.53404 123.499C5.44867 123.476 5.34292 123.442 5.32482 123.431L5.29515 123.421C5.23251 123.397 5.23442 123.395 5.20102 123.381C5.14766 123.355 5.1114 123.335 5.06871 123.309C4.77502 123.12 4.64003 122.954 4.49713 122.793C3.98073 122.157 3.6634 121.549 3.3363 120.921C3.01988 120.296 2.74006 119.665 2.47791 119.026C1.95873 117.751 1.51838 116.448 1.1602 115.113C0.805727 113.779 0.532004 112.412 0.448953 110.984C0.413692 110.269 0.422533 109.535 0.568684 108.774C0.716226 108.028 1.00438 107.174 1.74209 106.536C1.93139 106.377 2.1091 106.257 2.36011 106.137C2.55776 106.047 2.68437 106.003 2.85047 105.931L3.79189 105.553C4.42057 105.304 5.0553 105.063 5.69047 104.829C6.95989 104.363 8.24417 103.928 9.53725 103.525C14.7087 101.923 20.0442 100.819 25.4509 100.383C28.1549 100.164 30.8691 100.105 33.5884 100.257C33.9318 100.285 34.2199 100.275 34.6713 100.345C35.0917 100.411 35.565 100.609 35.9111 100.913C36.2591 101.211 36.4874 101.545 36.6832 101.857C36.8762 102.172 37.0386 102.479 37.1968 102.78L37.6598 103.673L37.8918 104.114C37.9563 104.235 37.9832 104.264 38.0222 104.302C38.0728 104.346 38.1887 104.387 38.4365 104.347C38.6703 104.31 38.9501 104.209 39.2276 104.087C40.3541 103.574 41.4922 102.818 42.6558 102.144C43.8204 101.456 45.0272 100.792 46.3203 100.287C47.6018 99.773 49.0205 99.466 50.3971 99.4427C51.777 99.4163 53.1796 99.6216 54.4221 100.175Z" fill="black"/>
<path d="M115.853 66.8912C107.717 63.8587 95.9608 65.9288 90.0197 76.1986C83.5149 87.4457 86.4087 100.615 98.5925 106.353C104.058 108.928 109.765 110.225 112.835 110.27C115.905 110.316 116.824 113.194 119.178 112.986C120.418 112.877 123.043 111.474 122.956 110.474C122.232 109.574 117.981 108.256 117.467 105.983C116.871 103.358 120.976 103.244 121.893 103.662C123.265 104.287 124.617 107.948 127.385 107.712C128.632 107.456 131.898 103.771 131.553 102.649C131.209 101.53 127.602 101.085 127.032 98.8766C129.6 92.1019 135.368 74.1628 115.853 66.8912Z" fill="#F6F6E5"/>
<path d="M121.975 90.6072C122.209 91.1497 121.959 91.773 121.417 92.0071L116.534 94.1116L118.636 99.001C118.87 99.5426 118.619 100.171 118.078 100.4C117.81 100.518 117.516 100.51 117.266 100.411C117.015 100.31 116.796 100.115 116.68 99.8408L114.582 94.9531L109.694 97.0576C109.425 97.1747 109.132 97.1673 108.881 97.0674C108.626 96.9657 108.413 96.7715 108.296 96.4984C108.066 95.9615 108.312 95.3327 108.854 95.0986L113.737 92.9987L111.635 88.1046C111.406 87.563 111.651 86.9388 112.193 86.7047C112.734 86.4753 113.358 86.7219 113.59 87.2635L115.694 92.1529L120.577 90.0475C121.118 89.8185 121.746 90.0698 121.975 90.6072Z" fill="black"/>
<path d="M115.856 66.8893C117.211 67.3937 118.441 67.946 119.558 68.5465C114.976 67.0732 108.283 67.6185 101.996 75.6974C94.6604 85.1219 93.6184 104.625 111.274 110.162C108.048 109.804 103.237 108.539 98.5944 106.352C86.4115 100.613 83.5173 87.4442 90.0202 76.1981C95.9632 65.9288 107.717 63.8595 115.856 66.8893Z" fill="#E6E6CF"/>
<path d="M127.022 102.708L127.135 102.766C127.192 102.796 127.25 102.826 127.305 102.859C127.4 102.922 127.487 102.993 127.563 103.072C127.717 103.231 127.826 103.422 127.882 103.619C128 104.02 127.884 104.413 127.685 104.679C127.747 104.344 127.657 104.018 127.468 103.831C127.378 103.734 127.266 103.669 127.154 103.635C127.096 103.619 127.039 103.609 126.985 103.606C126.962 103.609 126.944 103.611 126.924 103.612L126.798 103.61C126.535 103.607 126.324 103.39 126.327 103.127C126.331 102.863 126.548 102.653 126.81 102.656C126.886 102.657 126.96 102.677 127.022 102.708Z" fill="black"/>
<path d="M127.566 108.342C127.557 108.345 127.549 108.346 127.538 108.347C127.53 108.35 127.525 108.352 127.516 108.355L127.566 108.342Z" fill="black"/>
<path d="M132.256 103.15C132.283 102.942 132.328 102.728 132.201 102.362C132.184 102.324 132.185 102.317 132.154 102.253C132.118 102.182 132.078 102.112 132.035 102.046C131.967 101.953 131.895 101.864 131.825 101.798C131.539 101.514 131.274 101.367 131.017 101.214C130.505 100.929 130.024 100.71 129.573 100.468C128.75 100.044 128.027 99.5263 127.773 98.8886C129.154 95.3299 130.222 91.5896 130.544 87.7122C130.708 85.7345 130.672 83.7243 130.351 81.7396C130.031 79.7564 129.41 77.8024 128.457 76.0137C127.509 74.2223 126.242 72.6036 124.768 71.2311C123.294 69.8567 121.623 68.7202 119.866 67.7885C118.987 67.3203 118.085 66.9042 117.17 66.5275L116.481 66.2544L116.126 66.1192L115.786 65.9966C115.3 65.8261 114.823 65.6798 114.337 65.5484C112.397 65.0268 110.392 64.7811 108.392 64.7974C104.394 64.8419 100.398 65.9241 96.973 68.0114C95.2619 69.05 93.6978 70.3338 92.3495 71.8099C90.9994 73.2813 89.8594 74.9478 88.9421 76.703C87.0969 80.2018 85.9835 84.1419 86.0062 88.1321C86.0243 92.1047 87.3448 96.1241 89.8966 99.0823C89.0113 97.3503 88.3241 95.5645 87.8838 93.7257C87.4496 91.8878 87.2431 90.0109 87.2746 88.1368C87.3183 84.3839 88.3841 80.6681 90.1764 77.3625C91.9362 74.0435 94.5413 71.2037 97.7529 69.3105C100.95 67.4039 104.684 66.4332 108.402 66.4294C110.261 66.4248 112.124 66.6464 113.911 67.1308C114.359 67.2516 114.805 67.3886 115.232 67.5372L115.571 67.6598L115.893 67.7834L116.55 68.044C117.419 68.4016 118.273 68.7941 119.099 69.2348C122.403 70.971 125.3 73.5093 127.012 76.7805C127.871 78.4062 128.453 80.1772 128.768 82.0058C129.083 83.8348 129.139 85.7169 129.002 87.591C128.72 91.3494 127.703 95.047 126.382 98.6295L126.299 98.8543L126.359 99.0512L126.362 99.0619C126.533 99.7493 126.967 100.328 127.432 100.739C127.903 101.159 128.409 101.461 128.904 101.728C129.398 101.993 129.896 102.216 130.32 102.453C130.525 102.569 130.727 102.698 130.819 102.797C130.847 102.82 130.857 102.838 130.871 102.852C130.872 102.865 130.871 102.883 130.865 102.9C130.84 103.035 130.756 103.249 130.652 103.451C130.546 103.656 130.421 103.866 130.285 104.073C130.009 104.487 129.695 104.89 129.361 105.275C129.025 105.66 128.67 106.028 128.296 106.359C128.11 106.524 127.918 106.681 127.73 106.812C127.55 106.94 127.329 107.055 127.254 107.07L127.332 107.056L127.222 107.079C127.212 107.08 127.193 107.082 127.175 107.08C127.131 107.08 127.073 107.075 127.013 107.066C126.89 107.048 126.753 107.028 126.623 106.98C122.818 105.606 124.044 102.449 119.727 102.959C116.753 103.31 116.287 105.424 117.054 106.751C118.619 109.459 122.447 110.134 122.148 110.66C122.125 110.685 122.103 110.713 122.075 110.741C121.943 110.883 121.755 111.029 121.561 111.165C121.162 111.44 120.702 111.672 120.241 111.863C120.01 111.959 119.775 112.043 119.55 112.103C119.443 112.132 119.318 112.16 119.241 112.17C119.141 112.185 119.04 112.195 118.943 112.194C118.557 112.197 118.191 112.07 117.789 111.825C116.977 111.35 116.114 110.458 114.912 109.962C114.316 109.71 113.675 109.567 113.016 109.55C112.449 109.555 111.947 109.54 111.4 109.497C109.245 109.32 107.079 108.879 104.936 108.356C102.796 107.812 100.682 107.139 98.5927 106.355C100.529 107.466 102.581 108.39 104.694 109.148C105.749 109.534 106.824 109.876 107.916 110.161C109.008 110.452 110.116 110.689 111.254 110.846C111.811 110.925 112.421 110.984 112.965 111.006C113.418 111.038 113.878 111.156 114.297 111.357C114.721 111.557 115.125 111.839 115.548 112.163C115.973 112.486 116.407 112.864 116.954 113.203C117.494 113.539 118.213 113.814 118.947 113.802C119.127 113.802 119.304 113.789 119.478 113.758C119.676 113.724 119.822 113.686 119.981 113.64C120.293 113.549 120.58 113.437 120.861 113.314C121.421 113.067 121.94 112.759 122.445 112.381C122.695 112.185 122.94 111.979 123.175 111.7C123.29 111.558 123.403 111.403 123.499 111.198C123.592 110.998 123.677 110.733 123.646 110.414V110.413C123.347 109.246 118.369 108.206 117.988 105.886C117.74 104.368 120.043 103.71 121.723 104.288C122.717 104.629 122.85 106.247 125.268 107.793C125.563 107.982 125.903 108.093 126.249 108.204C126.423 108.26 126.601 108.308 126.797 108.344C126.895 108.362 126.998 108.377 127.114 108.385C127.227 108.388 127.343 108.396 127.537 108.35C127.97 108.243 128.214 108.073 128.473 107.911C128.727 107.741 128.954 107.559 129.173 107.374C129.608 107 130.006 106.603 130.383 106.186C130.759 105.768 131.113 105.33 131.44 104.857C131.603 104.618 131.759 104.372 131.902 104.102C132.043 103.825 132.178 103.54 132.256 103.15ZM127.225 107.077C127.231 107.077 127.23 107.076 127.225 107.077ZM130.855 102.817C130.856 102.812 130.863 102.828 130.87 102.849C130.87 102.849 130.87 102.85 130.87 102.851C130.861 102.842 130.857 102.829 130.855 102.817Z" fill="black"/>
<path d="M100.744 67.1736C101.356 62.7667 85.9451 52.1663 80.7171 67.7324C74.7309 67.5809 69.7855 74.945 69.3804 82.8419C68.9327 91.6096 73.4592 98.4595 67.5371 99.3448C72.1105 101.04 77.479 97.8998 77.6998 89.6644C78.1007 74.7681 86.4768 68.4179 100.744 67.1736Z" fill="#6B6B6B"/>
<path d="M89.8228 61.326C88.6536 61.2215 84.8894 61.8123 83.7295 66.1754C85.3989 64.1731 87.2617 63.2001 90.3773 63.1383C92.1743 63.1021 91.887 61.5118 89.8228 61.326Z" fill="#858585"/>
<path d="M69.4304 97.6783C70.1356 96.4545 69.8897 94.2975 69.4211 91.4633C69.0207 89.0411 68.5214 86.0267 68.687 82.807C69.0721 75.2511 73.7699 67.2846 80.2209 67.0389C81.5632 63.3167 83.593 60.8248 86.2599 59.6246C88.7393 58.509 91.7515 58.5968 94.739 59.8685C98.6911 61.5522 101.757 64.9405 101.435 67.2702L101.357 67.8201L100.804 67.8684C85.8823 69.1685 78.7632 76.1011 78.3971 89.6839C78.2802 94.0318 76.7533 97.414 74.1007 99.212C72.0955 100.571 69.4002 100.643 66.6299 99.2529C66.6299 99.2529 68.6745 98.9877 69.4304 97.6783ZM94.1938 61.1509C91.5677 60.0334 88.9523 59.9414 86.8301 60.8968C84.4207 61.9799 82.5866 64.3539 81.3785 67.9544L81.2138 68.4416L80.7011 68.4282C75.3501 68.2939 70.4845 74.9107 70.0771 82.8781C69.9213 85.9478 70.3853 88.7573 70.7959 91.2366C71.3169 94.3918 71.7293 96.8836 70.5555 98.4977C70.3959 98.7183 70.2113 98.9156 70.002 99.0898C71.1745 99.0824 72.3209 98.7341 73.3203 98.0583C75.5919 96.5181 76.9026 93.5316 77.0066 89.6463C77.2079 82.1605 79.35 76.645 83.5526 72.7858C87.3377 69.3106 92.7323 67.2646 100.028 66.541C99.7025 64.9609 97.3609 62.4997 94.1938 61.1509Z" fill="black"/>
<path d="M100.745 67.1736C98.2676 65.7774 86.5987 63.1714 78.8444 72.7389C70.6326 82.8703 74.7972 92.5939 72.3433 96.3421C69.8267 100.192 62.8022 99.2194 62.8166 93.5478C60.7125 98.2032 64.1839 102.526 72.6036 102.258C77.8423 102.091 83.8622 97.7137 85.4026 87.266C86.9421 76.8173 90.5606 68.8945 100.745 67.1736Z" fill="#6B6B6B"/>
<path d="M75.144 93.1869C74.8684 84.7949 76.5062 79.0189 80.0166 74.4694C82.3481 71.4476 84.4726 73.1494 81.7955 77.2562C80.0537 79.9315 76.3763 85.9046 75.144 93.1869Z" fill="#858585"/>
<path d="M65.8263 101.901C65.8263 101.901 65.8254 101.901 65.8254 101.9C63.8818 101.074 62.5243 99.7893 61.9007 98.1873C61.3115 96.6769 61.6325 94.3058 63.0644 92.5167C63.0644 92.5167 63.1251 96.0336 66.0012 97.5831C67.7304 98.5148 70.4572 97.957 71.7628 95.9611C72.5176 94.8056 72.5576 92.8506 72.6081 90.3769C72.7051 85.5934 72.8383 79.0439 78.3052 72.2999C85.9125 62.9116 97.1558 64.8577 100.495 66.279C100.718 66.3752 100.918 66.4713 101.088 66.5665L102.801 67.5326L100.861 67.861C92.3106 69.3059 87.8941 75.1392 86.0906 87.3676C84.4343 98.6091 77.8018 102.789 72.6262 102.955C69.9561 103.039 67.6669 102.686 65.8263 101.901ZM62.9548 96.7387C62.9984 97.0624 63.0801 97.3773 63.1975 97.6811C63.6814 98.9249 64.7787 99.9416 66.3701 100.617C66.3701 100.618 66.371 100.618 66.3719 100.618C68.0241 101.323 70.1143 101.64 72.5831 101.562C77.2219 101.413 83.1838 97.5548 84.7149 87.1642C85.892 79.1786 88.5275 69.8772 98.2917 67.0208C94.0663 65.952 85.4838 65.6539 79.3859 73.1768C74.2196 79.5488 74.0938 85.8228 73.9996 90.4047C73.9462 93.1038 73.9026 95.2343 72.9273 96.7248C71.3749 99.0968 68.1625 100.018 65.4566 98.8655C64.3718 98.4043 63.5236 97.6732 62.9548 96.7387Z" fill="black"/>
<path d="M100.734 67.1434C98.1366 66.0366 90.3135 67.5726 86.2566 75.9474C80.6653 87.4866 86.0892 93.6361 80.3717 97.8019C76.7833 100.418 68.7061 100.468 66.9936 107.64C65.8031 112.63 71.5637 116.565 66.5732 120.265C69.8999 119.661 70.9647 116.835 70.1444 113.424C69.5255 110.849 71.0051 107.403 76.4716 106.506C83.3434 105.378 92.0497 103.331 91.9927 91.6426C91.9291 78.6627 95.4173 70.7212 100.734 67.1434Z" fill="#6B6B6B"/>
<path d="M86.0861 83.5033C85.5271 86.1303 85.6857 88.1976 85.5368 91.9826C85.398 95.5539 83.8322 98.9268 79.4987 100.492C75.4297 101.957 72.5128 102.788 71.3584 104.637C73.0115 103.16 77.8025 102.382 80.9765 101.414C84.9991 100.191 87.0851 98.0527 87.7718 94.2906C88.793 88.7123 88.5494 86.1722 88.8051 83.7992C89.3215 78.992 86.9134 79.6097 86.0861 83.5033Z" fill="#858585"/>
<path d="M67.1473 113.505C66.5074 111.728 65.7827 109.714 66.3163 107.478C67.5876 102.152 72.1701 100.469 75.855 99.1177C77.4389 98.5362 78.9352 97.9863 79.9629 97.2381C82.5728 95.3356 82.6109 93.0189 82.667 89.5108C82.7269 85.9358 82.7992 81.4871 85.6295 75.6432C89.7064 67.2275 97.5984 65.2136 100.87 66.4472C100.917 66.4654 100.962 66.4835 101.006 66.5034L102.186 67.006L101.122 67.7208C95.5477 71.4718 92.6316 79.7425 92.6878 91.6389C92.7513 104.539 82.235 106.265 76.5839 107.192C74.1517 107.591 72.3673 108.555 71.4222 109.98C70.7652 110.971 70.5514 112.135 70.8214 113.259C71.348 115.45 71.1429 117.349 70.2317 118.751C69.4805 119.906 67.4535 120.72 65.4941 120.767C68.2756 118.426 68.2149 116.471 67.1473 113.505ZM99.0739 67.529C96.0307 67.4254 90.2158 69.3687 86.8822 76.2511C84.1851 81.8182 84.1155 86.0955 84.0594 89.5339C83.9995 93.1772 83.9527 96.0537 80.7819 98.3653C79.5974 99.2278 78.0115 99.8103 76.3333 100.427C72.7863 101.729 68.7674 103.204 67.6692 107.803C67.2336 109.633 67.8547 111.361 68.4556 113.032C69.0091 114.568 69.5709 116.133 69.2485 117.672C69.7751 116.63 69.8541 115.197 69.4671 113.587C69.1108 112.105 69.3998 110.509 70.2618 109.211C71.0738 107.985 72.791 106.404 76.3598 105.818C83.614 104.628 91.3501 102.454 91.2963 91.6459C91.2281 77.5665 95.2336 70.7886 99.0739 67.529Z" fill="black"/>
<path d="M105.929 65.8108C107.177 63.4258 114.179 55.606 124.912 61.9102C134.842 67.7416 129.976 79.2199 135.163 82.3922C139.395 84.9802 142.16 78.3282 138.986 75.9496C144.396 77.9988 143.167 84.0462 140.61 86.6277C137.425 89.8436 129.805 90.5301 127.094 82.794C123.637 72.9273 115.502 65.292 105.929 65.8108Z" fill="#6B6B6B"/>
<path d="M132.193 89.1808C130.338 88.5705 127.833 87.0071 126.438 83.0239C123.72 75.2715 118.312 69.3965 111.971 67.311C110.014 66.6677 107.994 66.3974 105.968 66.5075L104.745 66.5739L105.313 65.4889C106.372 63.4643 112.22 56.5261 121.473 59.5688C122.722 59.9799 123.999 60.5651 125.264 61.3087C131.321 64.8656 132.141 70.4601 132.799 74.9542C133.245 78.0049 133.631 80.6374 135.526 81.7977C135.78 81.9528 136.033 82.0736 136.281 82.1535C138.027 82.7285 138.963 81.2362 139.207 80.7666C140.059 79.1275 140.024 77.3295 137.977 75.2738C141.719 76.1029 143.014 78.3291 143.33 79.7908C143.953 82.6528 142.612 85.5947 141.104 87.1186C138.909 89.3351 135.244 90.1841 132.193 89.1808ZM112.405 65.9887C119.155 68.2074 124.891 74.4034 127.751 82.5636C128.708 85.2923 130.393 87.1228 132.627 87.8576C135.492 88.799 138.563 87.7043 140.116 86.1367C141.408 84.8321 142.459 82.3346 141.971 80.0871C141.803 79.3161 141.473 78.6472 140.985 78.0857C141.169 79.2325 140.942 80.4461 140.442 81.4085C139.475 83.2654 137.672 84.0782 135.845 83.4767C135.497 83.3634 135.145 83.1971 134.8 82.9858C132.349 81.486 131.898 78.4118 131.421 75.1563C130.776 70.7374 130.041 65.729 124.561 62.5103C123.38 61.8173 122.195 61.272 121.038 60.893C113.942 58.5591 109.099 62.7035 107.239 65.0941C108.984 65.1331 110.718 65.4318 112.405 65.9887Z" fill="black"/>
<path d="M96.9166 68.3483C96.1483 64.5801 96.7046 53.8453 107.197 53.7622C117.356 53.6804 123.231 62.9451 121.136 70.8122C115.206 65.0733 103.061 64.1346 96.9166 68.3483Z" fill="#6B6B6B"/>
<path d="M102.339 58.1644C103.939 54.9034 113.235 53.7928 118.091 61.8295C114.403 59.3274 111.049 58.3776 106.891 59.2842C103.575 60.006 101.857 59.1467 102.339 58.1644Z" fill="#858585"/>
<path d="M96.4447 69.5163L96.2354 68.4866C95.6726 65.7272 95.8791 60.325 98.7655 56.7579C100.723 54.3357 103.558 53.0938 107.191 53.065C108.962 53.0515 110.668 53.3097 112.264 53.8341C119.419 56.188 123.7 63.8847 121.809 70.991L121.505 72.1369L120.653 71.3124C119.027 69.7402 116.799 68.4578 114.206 67.606C108.248 65.6455 101.299 66.187 97.3109 68.9223L96.4447 69.5163ZM111.83 55.1587C110.378 54.6808 108.822 54.4458 107.204 54.4584C104.005 54.4839 101.53 55.5521 99.847 57.6362C97.5787 60.4402 97.1676 64.5489 97.4464 67.2024C101.854 64.7374 108.727 64.3375 114.642 66.2818C116.98 67.0509 119.053 68.1531 120.708 69.5014C121.705 63.4285 117.915 57.1601 111.83 55.1587Z" fill="black"/>
<path d="M100.689 67.089C104.234 65.8201 113.411 65.4671 118.06 72.5665C122.517 79.3737 122.831 87.304 129.309 89.5376C134.907 91.467 138.489 87.2116 138.292 84.2418C137.634 85.6208 135.734 87.1085 133.08 85.4591C129.733 83.3807 130.708 78.4406 126.582 71.6176C122.46 64.802 112.163 57.9358 100.689 67.089Z" fill="#6B6B6B"/>
<path d="M119.825 67.175C122.652 68.8624 125.228 72.4829 126.495 75.5935C128.309 80.0495 127.909 83.1744 130.646 85.7573C127.076 84.1363 126.913 82.1043 125.425 78.1183C124.343 75.2191 123.509 72.5038 119.069 69.2869C115.238 66.5094 115.454 64.5633 119.825 67.175Z" fill="#858585"/>
<path d="M129.475 90.324C129.346 90.284 129.214 90.2422 129.082 90.1971C124.58 88.6449 122.85 84.5019 121.021 80.115C120.029 77.7393 119.004 75.2818 117.478 72.9483C115.824 70.4225 113.439 68.6757 110.389 67.7565C106.517 66.5907 102.857 66.8949 99.4473 67.6395C105.445 61.5206 112.68 61.5178 116.41 62.6418C120.665 63.9237 124.69 67.1448 127.177 71.2572C129.158 74.533 129.991 77.3849 130.66 79.6756C131.376 82.1312 131.895 83.9041 133.446 84.8684C133.804 85.0913 134.159 85.2566 134.5 85.3583C136.376 85.9245 137.898 85.1168 138.472 83.2083C138.904 85.1549 138.133 87.8985 136.519 89.1846C134.604 90.7104 132.103 91.1159 129.475 90.324ZM110.789 66.423C114.162 67.4397 116.803 69.3775 118.641 72.1842C120.239 74.6255 121.289 77.1429 122.305 79.5785C124.085 83.846 125.623 87.5306 129.534 88.8785C129.65 88.9194 129.764 88.9556 129.877 88.9882C132.052 89.6458 134.105 89.3267 135.652 88.0926C136.22 87.6407 136.692 87.0764 137.029 86.4763C136.211 86.8855 135.21 87.0281 134.098 86.6923C133.64 86.5553 133.174 86.3384 132.712 86.0518C130.708 84.8061 130.097 82.7141 129.324 80.0672C128.678 77.8544 127.873 75.0978 125.987 71.9789C123.672 68.1527 119.943 65.1606 116.009 63.9753C112.032 62.777 107.884 63.3891 103.867 65.7407C105.959 65.5568 108.42 65.7082 110.789 66.423Z" fill="black"/>
<path d="M103.244 78.1629C105.869 71.6613 103.925 60.6019 95.8482 59.0961C90.9139 67.0403 92.0813 74.9413 93.3382 78.2269C95.3096 83.3797 100.776 84.278 103.244 78.1629Z" fill="#F6F6E5"/>
<path d="M104.958 72.5428C105.03 71.5502 104.999 70.5507 104.894 69.5572C104.788 68.5637 104.611 67.5725 104.324 66.6055C103.769 64.6734 102.835 62.7909 101.404 61.2716C99.9915 59.7468 98.0169 58.7027 95.9735 58.4114L95.4734 58.3409L95.2558 58.7291C94.1094 60.4783 93.1898 62.3924 92.5643 64.4007C91.938 66.4091 91.5928 68.5048 91.5459 70.6055C91.5162 71.6543 91.5723 72.7054 91.6953 73.7462C91.8206 74.7876 92.009 75.8228 92.3133 76.8317C92.6098 77.8349 93.0218 78.84 93.6417 79.7174C94.255 80.5855 95.0669 81.3403 96.0269 81.7379C95.2576 81.0495 94.693 80.2246 94.2796 79.3421C93.8584 78.4629 93.611 77.5195 93.4022 76.5534C92.9925 74.624 92.8622 72.631 92.9754 70.6622C93.0895 68.6919 93.4491 66.7416 94.0375 64.8629C94.3312 63.9233 94.6837 63.0022 95.0804 62.0988C95.414 61.3524 95.7936 60.6283 96.1931 59.9117C96.889 60.1123 97.5576 60.3799 98.1747 60.7407C98.9286 61.1852 99.6148 61.7412 100.215 62.3891C101.417 63.6873 102.273 65.3227 102.836 67.0602C103.111 67.933 103.331 68.8303 103.473 69.7434C103.614 70.6566 103.682 71.5842 103.708 72.514C103.755 74.3784 103.609 76.2451 103.243 78.1638C104.305 76.5052 104.812 74.5177 104.958 72.5428Z" fill="black"/>
<path d="M100.807 76.7239C102.493 72.5173 101.819 65.5024 96.8973 63.8647C94.371 69.619 94.8039 74.0937 95.5871 76.2102C96.8166 79.5289 99.2237 80.6812 100.807 76.7239Z" fill="#E6E6CF"/>
<path d="M95.5859 76.2107C96.0109 77.0644 96.5329 77.8906 97.228 78.4568C97.5722 78.7336 97.9763 78.9088 98.3452 78.8957C98.715 78.886 99.0509 78.6788 99.3284 78.3769C99.8856 77.7647 100.244 76.893 100.502 76.0291C100.769 75.1619 100.927 74.2539 100.989 73.3421C101.14 71.5205 100.901 69.67 100.288 67.9924C99.6814 66.3143 98.605 64.8182 96.8957 63.8647C97.8645 63.9752 98.8152 64.4216 99.5891 65.0867C100.362 65.7546 100.971 66.6125 101.382 67.5433C101.798 68.4731 102.042 69.4647 102.154 70.4615C102.268 71.4568 102.277 72.461 102.169 73.4522C102.053 74.4419 101.839 75.4215 101.496 76.3648C101.315 76.8456 101.113 77.2845 100.858 77.7355C100.602 78.1744 100.307 78.612 99.8925 78.971C99.4921 79.3277 98.92 79.6161 98.321 79.5622C97.7239 79.5167 97.2497 79.1758 96.8999 78.813C96.1956 78.0648 95.8342 77.1331 95.5859 76.2107Z" fill="black"/>
<path d="M86.5236 118.993C97.8802 123.008 124.654 129.654 128.475 126.369C131.666 123.626 132.648 110.974 129.757 110.462C127.012 109.978 120.353 113.545 108.076 113.317C98.9199 113.148 90.6752 111.628 87.4618 111.153C81.799 110.317 80.1696 116.747 86.5236 118.993Z" fill="#E6E6CF"/>
<path d="M123.176 111.638C126.34 110.895 128.474 110.238 129.756 110.462C132.649 110.974 131.665 123.626 128.472 126.368C127.582 127.131 125.447 127.361 122.545 127.205C125.104 123.628 127 114.754 123.176 111.638Z" fill="#807E75"/>
<path d="M84.0465 111.697C84.8974 111.186 86.0518 110.946 87.4618 111.152C90.4015 111.585 97.5568 112.898 105.768 113.247C110.401 114.941 106.152 120.218 93.2776 118.31C81.1467 116.513 82.5302 113.082 84.0363 111.7C84.0409 111.7 84.0465 111.697 84.0465 111.697Z" fill="#F6F6E5"/>
<path d="M84.5723 118.021C85.097 118.243 85.6143 118.423 86.1428 118.566L87.7523 118.961C88.2933 119.095 88.8315 119.231 89.3665 119.381C89.901 119.521 90.4369 119.671 90.9695 119.824C93.0945 120.455 95.2296 121.066 97.3755 121.635C101.664 122.773 105.988 123.797 110.336 124.661C112.509 125.092 114.69 125.476 116.874 125.797C119.056 126.113 121.252 126.373 123.421 126.43C124.499 126.453 125.587 126.431 126.578 126.249C127.063 126.159 127.544 126.013 127.832 125.817C127.913 125.763 127.926 125.746 128.052 125.63L128.149 125.529L128.256 125.405C128.4 125.229 128.535 125.03 128.659 124.821C129.163 123.973 129.518 122.96 129.797 121.938C130.076 120.907 130.272 119.844 130.407 118.774C130.543 117.706 130.619 116.627 130.613 115.557C130.606 114.495 130.527 113.417 130.27 112.473C130.147 112.013 129.94 111.569 129.753 111.397C129.709 111.353 129.674 111.337 129.65 111.322C129.62 111.312 129.645 111.315 129.483 111.291C129.319 111.272 129.064 111.272 128.83 111.292C127.85 111.377 126.763 111.655 125.693 111.909C123.538 112.441 121.337 112.967 119.112 113.341C116.886 113.726 114.634 113.96 112.379 114.073C110.123 114.187 107.863 114.149 105.625 114.04C103.384 113.931 101.15 113.751 98.9228 113.512C96.6962 113.272 94.4779 112.982 92.2694 112.639C91.1666 112.462 90.0721 112.233 88.9902 111.951C88.452 111.808 87.9082 111.644 87.3825 111.485C86.8614 111.314 86.3349 111.204 85.7623 111.124C86.2959 110.904 86.8908 110.823 87.4707 110.812C88.0479 110.812 88.6023 110.823 89.1633 110.856C90.2796 110.923 91.3852 111.04 92.4825 111.186C94.6789 111.494 96.8768 111.77 99.0797 111.983C101.282 112.199 103.489 112.356 105.694 112.442C107.905 112.53 110.1 112.545 112.291 112.413C114.482 112.29 116.661 112.024 118.824 111.655C120.99 111.289 123.121 110.778 125.287 110.241C126.381 109.985 127.458 109.692 128.698 109.576C129.018 109.554 129.323 109.543 129.713 109.586C129.825 109.597 130.129 109.643 130.353 109.751C130.579 109.856 130.78 109.996 130.936 110.147C131.546 110.766 131.745 111.408 131.928 112.008C132.254 113.218 132.325 114.386 132.34 115.548C132.345 116.707 132.267 117.855 132.118 118.996C131.966 120.137 131.747 121.268 131.437 122.387C131.118 123.506 130.732 124.618 130.092 125.687C129.93 125.953 129.75 126.216 129.537 126.471L129.37 126.662L129.175 126.858C129.097 126.931 128.905 127.106 128.751 127.201C128.102 127.615 127.477 127.752 126.877 127.87C125.672 128.077 124.52 128.081 123.377 128.051C121.094 127.97 118.86 127.687 116.642 127.347C114.424 127.005 112.226 126.577 110.039 126.116C105.663 125.186 101.332 124.098 97.0322 122.893C94.8835 122.288 92.7395 121.662 90.6136 120.974C90.0833 120.797 89.5562 120.609 89.0342 120.407C88.5095 120.215 87.9913 120.001 87.4767 119.779C86.9612 119.556 86.4555 119.327 85.9442 119.048C85.4413 118.766 84.968 118.428 84.5723 118.021Z" fill="black"/>
</svg>
