<svg width="133" height="137" viewBox="0 0 133 137" fill="none" xmlns="http://www.w3.org/2000/svg">
<path d="M14.2031 63.7099C12.561 66.3816 13.8953 71.9637 18.1031 71.861C22.311 71.7582 25.7525 67.1303 29.4607 71.7927C32.4034 75.4914 36.3161 77.5582 39.2579 75.4692C41.4411 73.9195 41.7556 71.6678 45.1079 72.1815C46.491 72.3936 47.6055 74.9214 48.0715 77.2717C50.808 72.8201 51.1615 65.939 48.3794 61.5523C45.8817 57.6145 39.4377 55.5 35.277 60.2857C32.061 63.9844 30.3228 62.7926 28.6397 61.7241C25.835 59.943 22.6678 60.8508 20.8742 64.0181C18.9923 67.3403 15.4347 68.5732 14.2031 63.7099Z" fill="#6B6B6B"/>
<path d="M47.4699 67.9535C46.7441 65.5741 44.8278 63.3606 42.0506 64.644C40.1638 65.5157 38.5266 67.954 36.0035 69.0993C31.8437 70.9881 30.1022 66.1934 27.3447 66.1453C30.3925 67.5496 31.7201 71.9267 36.1485 70.5036C40.0669 69.2448 41.9824 66.5185 43.9324 67.3059C44.9764 67.7271 45.6698 69.9175 46.8726 70.1329C47.4399 70.2344 47.9901 69.6582 47.4699 67.9535Z" fill="#858585"/>
<path d="M48.8991 61.2219C47.2644 58.644 44.1251 56.9126 41.0873 56.9126C38.6705 56.9126 36.5008 57.9392 34.8124 59.8814C33.4691 61.4262 32.3213 62.1774 31.3019 62.1774C30.5018 62.1774 29.7945 61.7278 29.0465 61.2524L28.9693 61.2039C27.9422 60.5517 26.8182 60.2069 25.7172 60.2069C23.5619 60.2069 21.6009 61.485 20.3385 63.714C19.4398 65.3012 18.1606 66.3269 17.0813 66.3269C15.2566 66.3269 14.4425 63.5731 14.4425 62.3402C13.6214 63.6314 12.0475 66.518 13.7828 69.9031C14.6503 71.5955 16.2033 72.4787 17.989 72.4787L18.1179 72.4774C19.6631 72.4396 21.0573 71.8597 22.4059 71.2992C23.6022 70.8019 24.7319 70.3318 25.7976 70.3318C26.9668 70.3318 27.9775 70.9182 28.9784 72.1766C30.6004 74.215 33.1703 76.8805 36.7472 76.9253C40.8315 76.9763 41.3446 72.1129 44.7651 72.6611C47.0928 73.0339 47.6388 77.3186 47.8199 78.8556L48.5953 77.5948C51.5946 72.7166 51.7256 65.678 48.8991 61.2219ZM21.41 64.3223C22.4473 62.4902 24.0176 61.4393 25.7172 61.4393C26.5961 61.4393 27.4685 61.7102 28.3101 62.2444L28.3856 62.2925C29.2099 62.8161 30.1439 63.4103 31.3015 63.4099C32.7174 63.4099 34.128 62.5457 35.7414 60.6901C37.1885 59.0253 39.0375 58.1455 41.0869 58.1455C43.72 58.1455 46.4413 59.6471 47.8597 61.8828C49.2854 64.1316 49.8668 67.1945 49.6287 70.2323C49.3881 67.2783 48.1852 64.5154 46.2114 63.1124C44.9174 62.1918 42.2281 61.1841 38.7657 64.7764C36.3128 67.3211 34.4778 68.8178 31.4387 66.5074C27.7525 63.7058 25.5768 62.7211 21.5626 65.7857C20.6102 66.5127 19.6705 66.9467 18.7805 67.0872C19.7592 66.553 20.6915 65.5913 21.41 64.3223ZM44.6642 71.4969C40.3159 70.9754 40.5589 75.6751 36.748 75.6924C34.3985 75.7031 32.2995 74.3712 29.9431 71.4085C28.7066 69.8547 27.3506 69.0989 25.7984 69.0989C24.4868 69.0989 23.1896 69.6385 21.9346 70.1604C20.6903 70.6778 19.4041 71.2125 18.0884 71.2445L17.9898 71.2458C16.2989 71.2458 15.3535 70.1888 14.8588 69.3019C14.227 68.1705 14.0049 66.7395 14.2052 65.512C14.6551 66.3984 15.1962 66.9117 15.7192 67.2035C16.0616 67.4382 16.4463 67.6375 16.8843 67.7723C17.9997 68.1159 19.8028 68.164 22.0615 66.4391C25.677 63.6795 27.3687 64.4447 30.9431 67.1624C34.5073 69.8703 36.7694 68.0316 39.3573 65.3472C41.607 63.0137 43.8731 62.4581 45.7373 63.7822C48.3511 65.6406 49.8466 71.0966 48.1027 75.5038C47.6741 73.8258 46.3744 71.7019 44.6642 71.4969Z" fill="black"/>
<path d="M83.038 89.1437C86.0632 88.9965 86.1096 91.7808 87.7496 97.9395C89.6064 104.915 93.9502 115.512 86.7368 116.11C78.7357 116.772 71.5105 116.703 63.9823 116.857C59.7317 116.944 65.4778 102.179 69.615 102.863C73.5713 103.517 77.2771 104.923 81.2974 106.037C80.6069 102.051 80.09 99.2784 80.0051 95.6389C79.9209 92.0015 80.3987 89.2723 83.038 89.1437Z" fill="#CCCAB8"/>
<path d="M73.5325 103.734C70.4696 106.246 66.7925 112.933 68.6809 116.783C67.1205 116.804 65.5589 116.827 63.9816 116.859C59.7327 116.946 65.4764 102.181 69.6161 102.863C70.9413 103.08 72.2418 103.385 73.5325 103.734Z" fill="#807E75"/>
<path d="M91.2566 112.955C91.4401 112.039 91.4467 111.136 91.3896 110.258C91.2644 108.501 90.8876 106.82 90.4651 105.169C90.0369 103.519 89.5406 101.9 89.0579 100.288C88.5632 98.678 88.1502 97.0703 87.6723 95.4528C87.4285 94.646 87.1752 93.8377 86.8747 93.0379C86.5754 92.2423 86.233 91.4323 85.7162 90.7411C85.9416 91.5667 86.0536 92.3911 86.1973 93.2188C86.3295 94.0477 86.4666 94.8791 86.6271 95.7088C86.9416 97.367 87.401 99.0171 87.8731 100.637C88.3415 102.258 88.8169 103.868 89.2192 105.485C89.6178 107.1 89.961 108.731 90.0579 110.34C90.1027 111.142 90.0829 111.941 89.9257 112.678C89.7726 113.414 89.4663 114.074 88.9778 114.529C88.4942 114.99 87.823 115.253 87.0841 115.358C86.7331 115.41 86.295 115.429 85.8771 115.464L84.6238 115.549C81.2796 115.768 77.9248 115.859 74.5651 115.927L64.4645 116.092L64.148 116.099L63.99 116.103C63.99 116.103 63.8721 116.104 63.8787 116.1C63.7888 116.096 63.6943 116.069 63.6406 116.033C63.5285 115.973 63.3943 115.774 63.3224 115.461C63.1767 114.833 63.2391 114.023 63.3713 113.254C63.6512 111.69 64.2043 110.129 64.8898 108.656C65.589 107.195 66.4166 105.753 67.486 104.636C68.0102 104.092 68.6445 103.629 69.1876 103.561C69.2549 103.552 69.319 103.549 69.3826 103.551C69.4499 103.555 69.4869 103.559 69.6104 103.58L70.2196 103.685C70.6252 103.76 71.0304 103.842 71.4344 103.931C74.6673 104.644 77.8472 105.765 81.1322 106.63L81.133 106.631L82.035 106.924L81.9044 105.931C81.5908 103.561 81.1282 101.234 80.8108 98.9032C80.6482 97.7361 80.5357 96.5665 80.4187 95.3854C80.3104 94.2108 80.2143 93.0396 80.2722 91.8346C79.8054 92.9611 79.663 94.1964 79.5825 95.4018C79.5053 96.6059 79.537 97.8191 79.6178 99.0253C79.7623 101.102 80.0908 103.142 80.4918 105.153C77.6132 104.282 74.7461 103.265 71.7402 102.57C71.3231 102.474 70.9032 102.383 70.4824 102.301L69.849 102.184C69.7648 102.168 69.594 102.139 69.4495 102.133C69.3025 102.125 69.1568 102.131 69.0139 102.148C68.4421 102.22 67.9597 102.451 67.5467 102.714C67.1337 102.982 66.7778 103.291 66.4547 103.616C65.1792 104.931 64.2884 106.448 63.5396 108.019C62.8043 109.598 62.2128 111.24 61.8934 112.996C61.753 113.88 61.6376 114.785 61.8606 115.812C61.9238 116.07 62.0137 116.338 62.1692 116.605C62.3232 116.871 62.5564 117.137 62.859 117.319C63.1644 117.505 63.4891 117.591 63.8196 117.607C63.9308 117.612 63.9173 117.609 64.0224 117.609L64.1796 117.606L64.4957 117.6L74.5975 117.446C77.9716 117.374 81.3494 117.227 84.7243 116.98L85.9904 116.881C86.4112 116.841 86.8172 116.825 87.2975 116.753C88.2155 116.614 89.1954 116.248 89.9339 115.531C90.6786 114.821 91.0776 113.862 91.2566 112.955Z" fill="black"/>
<path d="M52.9946 85.6855C51.4526 90.4157 53.8829 96.5752 51.5873 96.6093C49.2908 96.643 48.4258 96.4466 47.7522 97.5603C43.5008 104.593 40.5622 113.875 39.6981 123.73C39.3668 127.512 51.515 128.86 52.6809 127.885C53.8476 126.911 52.0466 123.692 51.9465 117.659C51.8742 113.291 52.903 105.515 55.351 102.816C57.7973 100.116 63.3923 99.3056 66.6117 94.0346C69.7452 88.9058 68.7173 82.706 63.7413 80.2833C59.9246 78.4241 54.9039 79.8313 52.9946 85.6855Z" fill="#CCCAB8"/>
<path d="M52.2447 121.532C52.7378 125.112 53.5662 127.146 52.6816 127.884C51.5149 128.862 39.3666 127.513 39.697 123.73C39.8091 122.446 39.9577 121.176 40.1404 119.915C43.2436 121.955 49.1514 123.526 52.2447 121.532Z" fill="#807E75"/>
<path d="M55.4591 81.5634C54.7863 82.4996 54.2805 83.4884 53.9148 84.522C53.728 85.0365 53.5715 85.5584 53.4513 86.0935C53.3302 86.5998 53.2485 87.1419 53.2042 87.677C53.104 88.7537 53.1064 89.8526 53.1536 90.9659C53.1992 92.0829 53.315 93.1995 53.3372 94.3884C53.3396 94.6884 53.3355 94.9934 53.3043 95.316C53.269 95.6386 53.2226 95.9801 53.0486 96.3697C52.9603 96.5616 52.8273 96.7724 52.622 96.95C52.42 97.1279 52.1528 97.2504 51.9118 97.2931C51.7956 97.3161 51.6655 97.3243 51.5743 97.326L51.3609 97.3297L50.9294 97.3342C50.3625 97.3408 49.7836 97.3272 49.3111 97.3811C49.0755 97.4082 48.8887 97.4583 48.7652 97.5286C48.6416 97.596 48.5373 97.7012 48.4236 97.875C47.8673 98.7956 47.3209 99.791 46.8176 100.784C46.3131 101.782 45.8409 102.796 45.4017 103.825C43.6483 107.944 42.3654 112.267 41.5033 116.668C41.076 118.87 40.7591 121.093 40.5493 123.327L40.5107 123.746C40.498 123.882 40.5005 123.909 40.5099 123.993C40.5284 124.138 40.5862 124.285 40.688 124.442C40.8925 124.755 41.2661 125.064 41.6893 125.322C42.5465 125.844 43.5814 126.207 44.6238 126.503C45.6727 126.797 46.7564 127.013 47.8464 127.167C48.9335 127.317 50.0427 127.415 51.1027 127.391C52.4554 127.243 52.2862 127.55 52.2595 126.276C52.1351 125.24 51.8732 124.099 51.6909 122.968C51.3038 120.692 51.1162 118.354 51.2164 116.031C51.3207 113.718 51.599 111.429 52.0727 109.161C52.3141 108.028 52.6052 106.9 52.9989 105.791C53.4012 104.686 53.8696 103.578 54.6755 102.58C55.5109 101.588 56.5507 100.956 57.5524 100.379C58.5619 99.8094 59.573 99.3068 60.5406 98.7549C62.482 97.6691 64.2346 96.3376 65.5799 94.6214C66.9309 92.904 67.91 90.8911 68.3702 88.646C68.5385 90.9425 67.7519 93.3072 66.4345 95.2486C65.7793 96.2349 64.9447 97.0958 64.0498 97.8598C63.1421 98.6144 62.1597 99.2575 61.1634 99.8386C60.1666 100.422 59.1526 100.943 58.1937 101.5C57.2429 102.055 56.327 102.659 55.7054 103.425C55.0864 104.203 54.6488 105.218 54.2949 106.244C53.9415 107.279 53.675 108.357 53.457 109.446C53.0289 111.627 52.7842 113.862 52.7123 116.085C52.6331 118.3 52.8224 120.512 53.2103 122.707C53.3946 123.816 53.6569 124.888 53.8125 126.106C53.8462 126.416 53.8733 126.738 53.8404 127.114C53.8043 127.48 53.7103 127.956 53.3072 128.376C53.2214 128.461 53.2678 128.416 53.1709 128.501C53.09 128.566 53.021 128.608 52.9553 128.643C52.826 128.711 52.7222 128.748 52.6232 128.78C52.4266 128.84 52.2566 128.872 52.0916 128.897C51.7628 128.947 51.4565 128.966 51.1519 128.978C49.9446 129.012 48.7865 128.912 47.628 128.761C46.472 128.605 45.3253 128.385 44.1882 128.075C43.0527 127.755 41.9237 127.365 40.8366 126.709C40.3001 126.373 39.7549 125.968 39.3292 125.331C39.1206 125.014 38.9548 124.624 38.9019 124.204C38.8715 124.007 38.8784 123.749 38.8953 123.603L38.9355 123.174C39.1543 120.888 39.484 118.613 39.9257 116.359C40.8108 111.854 42.1372 107.426 43.9923 103.213C44.455 102.159 44.9505 101.12 45.4805 100.097C46.013 99.0713 46.5664 98.0797 47.1941 97.065C47.3899 96.7663 47.6846 96.4428 48.0648 96.2427C48.4408 96.0405 48.8201 95.9702 49.1449 95.9336C49.8017 95.8699 50.3604 95.8971 50.9257 95.8934H51.3445L51.5563 95.8921C51.6068 95.8905 51.6195 95.8893 51.6421 95.886C51.6807 95.8794 51.6774 95.8757 51.6901 95.8683C51.7012 95.8617 51.7295 95.8309 51.7599 95.766C51.8223 95.6373 51.8728 95.4109 51.897 95.1713C51.9233 94.9297 51.9307 94.6654 51.9307 94.3983C51.902 92.2218 51.5555 89.8641 51.9442 87.5109C52.0493 86.922 52.1848 86.3463 52.386 85.7643C52.5986 85.2145 52.8359 84.6691 53.1306 84.1562C53.7169 83.1321 54.4981 82.2058 55.4591 81.5634Z" fill="black"/>
<path d="M76.2374 60.126C76.8027 65.339 78.4977 70.8994 74.2586 72.3324C70.0204 73.765 62.7327 66.6582 52.4749 70.1005C43.2919 73.1823 42.3424 85.3814 47.5269 91.4069C54.6622 99.7006 83.9729 99.1244 90.4395 92.3788C96.7883 85.7562 94.6683 76.3377 92.5676 68.5002C91.6238 64.9844 89.9202 59.069 86.7263 56.1906C81.8148 51.7632 75.6848 55.0238 76.2374 60.126Z" fill="#E6E6CF"/>
<path d="M70.5568 72.1138C73.8352 74.9445 64.4444 79.7075 55.6223 76.8259C49.3305 74.7706 50.8306 70.8546 54.0742 69.6447C61.0354 67.9745 66.5398 70.9824 70.5568 72.1138Z" fill="#F6F6E5"/>
<path d="M64.3064 97.9334C64.3056 97.9334 64.3064 97.9334 64.3056 97.9334C59.486 97.5311 50.8367 96.2 47.0594 91.8092C44.0704 88.3358 42.9927 82.9805 44.3146 78.1656C45.4797 73.9208 48.3078 70.8488 52.2772 69.5161C54.765 68.6814 57.2466 68.3818 59.8645 68.6008C62.9988 68.8626 65.6985 69.8128 68.0816 70.6511C69.8128 71.2602 71.3079 71.7871 72.5588 71.8914C73.1417 71.9399 73.6331 71.8931 74.0605 71.7484C76.8964 70.79 76.6743 67.7493 75.9743 62.8551C75.8491 61.9827 75.7202 61.0814 75.6238 60.1925C75.4242 58.3493 76.0006 56.6299 77.2474 55.3509C78.5405 54.0235 80.3928 53.3553 82.3293 53.5164C84.0235 53.6578 85.6857 54.4242 87.1378 55.7327C90.6215 58.8733 92.4007 65.5079 93.1602 68.3411C95.5022 77.0749 97.256 86.1581 90.8821 92.8062C86.6472 97.2245 74.0293 98.7459 64.3064 97.9334ZM59.7627 69.8288C57.3147 69.6246 54.9953 69.9044 52.6701 70.6853C49.1014 71.8828 46.5553 74.6552 45.5027 78.4915C44.3056 82.8535 45.3061 87.8816 47.9921 91.0042C50.5427 93.9684 56.5257 96.0463 64.4074 96.7046C75.3265 97.6166 86.5663 95.5297 89.9938 91.9522C95.9247 85.7664 94.2226 77.054 91.9717 68.66C91.2397 65.9325 89.527 59.5448 86.3143 56.6488C85.0642 55.5223 83.6508 54.8635 82.2283 54.7444C80.6593 54.6141 79.1653 55.1483 78.1304 56.2107C77.1443 57.2217 76.6903 58.5885 76.8492 60.0589C76.9432 60.9261 77.0704 61.8171 77.1932 62.6793C77.8184 67.0453 78.4658 71.5602 74.4558 72.9156C73.8651 73.1153 73.2115 73.1819 72.457 73.1186C71.0489 73.001 69.4856 72.4508 67.6743 71.8129C65.361 71.0001 62.7398 70.0774 59.7627 69.8288Z" fill="black"/>
<path d="M46.2711 85.5716C43.4512 89.8748 44.2312 96.6873 41.9195 96.0951C39.6078 95.5037 38.7925 95.0714 37.8175 96.0006C31.6613 101.864 26.2153 110.331 22.6971 119.935C21.3468 123.622 33.1679 128.279 34.5998 127.623C36.0318 126.968 35.092 123.263 36.6147 117.213C37.719 112.831 40.8427 105.347 44.0234 103.318C47.2042 101.29 53.0333 102.005 57.6808 97.6194C62.204 93.3515 62.8411 86.8809 58.5035 83.1062C55.1749 80.2097 49.7613 80.2459 46.2711 85.5716Z" fill="#E6E6CF"/>
<path d="M58.2075 89.5883C56.3281 96.174 43.8527 101.648 43.3789 94.7997C44.0924 92.694 44.326 88.5383 46.271 85.5707C48.432 82.2756 51.3295 81.0041 54.0131 81.2059C54.0172 81.2071 54.0209 81.2091 54.0209 81.2091C56.9784 81.8815 59.7749 84.0962 58.2075 89.5883Z" fill="#F6F6E5"/>
<path d="M35.8404 121.43C35.4172 124.976 35.6594 127.136 34.6002 127.625C33.1691 128.277 21.3464 123.622 22.6983 119.934C23.1905 118.593 23.7213 117.277 24.2858 115.986C26.3844 118.849 32.0541 122.417 35.8404 121.43Z" fill="#807E75"/>
<path d="M49.4155 82.3829C48.5119 83.1744 47.7524 84.0584 47.1239 85.0266C46.4744 85.9899 46.0007 87.0034 45.63 88.0941C45.2572 89.1774 44.9846 90.3071 44.7441 91.4574C44.4941 92.611 44.3278 93.7748 43.9415 94.9962C43.8347 95.3032 43.7178 95.6164 43.51 95.9406C43.405 96.1017 43.276 96.2682 43.09 96.4169C42.9074 96.5649 42.6578 96.6853 42.402 96.7223C42.1536 96.7625 41.8905 96.7173 41.7214 96.6725L41.2866 96.5612L40.427 96.3343C39.8699 96.1893 39.2931 96.0442 38.913 96.096C38.727 96.1223 38.5808 96.1872 38.4092 96.3191C38.2594 96.4358 38.0254 96.6832 37.8177 96.8817C36.1546 98.5215 34.6119 100.299 33.1824 102.157C30.3289 105.882 27.8994 109.934 25.8907 114.181C25.3886 115.243 24.9148 116.318 24.4674 117.405C24.2445 117.948 24.0265 118.493 23.8171 119.042L23.5068 119.867C23.4604 119.996 23.3947 120.162 23.3639 120.261C23.3503 120.31 23.3286 120.417 23.327 120.497C23.3085 120.835 23.492 121.263 23.7929 121.664C24.0918 122.067 24.4859 122.447 24.9116 122.799C25.7688 123.502 26.754 124.102 27.7668 124.645C28.7829 125.185 29.842 125.663 30.9196 126.073C31.4586 126.277 32.003 126.463 32.5473 126.621C33.0839 126.774 33.6554 126.914 34.118 126.941C34.2223 126.949 34.3344 126.936 34.3225 126.936C34.3159 126.937 34.3159 126.938 34.3015 126.943L34.2703 126.959L34.2954 126.946C34.3459 126.922 34.3216 126.929 34.3196 126.933C34.3323 126.924 34.3467 126.913 34.3615 126.898C34.4239 126.84 34.5162 126.658 34.5754 126.428C34.7006 125.963 34.7535 125.378 34.804 124.801C34.8972 123.636 34.9772 122.426 35.1279 121.227C35.4173 118.827 35.9752 116.43 36.7819 114.157C37.582 111.881 38.5361 109.664 39.7238 107.545C40.3235 106.488 40.9796 105.453 41.7788 104.492C42.1807 104.013 42.6192 103.552 43.1307 103.14C43.6488 102.722 44.2428 102.406 44.8282 102.164C46.0068 101.68 47.1945 101.425 48.3505 101.157C49.509 100.895 50.6462 100.635 51.7456 100.287C52.8458 99.9426 53.9 99.4979 54.891 98.9452C55.8787 98.3875 56.7938 97.7102 57.6317 96.9323C59.3001 95.3788 60.6055 93.405 61.3022 91.1171C61.2029 93.5262 60.0443 95.8695 58.3756 97.6741C57.9642 98.1154 57.5032 98.5572 57.0262 98.9411C56.5409 99.327 56.0294 99.6779 55.4986 99.996C54.4354 100.633 53.2871 101.106 52.1302 101.485C50.9701 101.864 49.7939 102.142 48.6424 102.413C47.4934 102.688 46.3542 102.952 45.3381 103.381C44.8315 103.596 44.3705 103.85 43.9669 104.182C43.5564 104.516 43.1738 104.921 42.8179 105.355C42.106 106.226 41.4902 107.207 40.9286 108.219C39.8124 110.252 38.9003 112.419 38.1457 114.628C37.3825 116.836 36.8562 119.089 36.5828 121.405C36.44 122.562 36.3665 123.724 36.2733 124.923C36.2187 125.528 36.1788 126.133 36.0023 126.818C35.9054 127.156 35.7794 127.548 35.4292 127.925C35.3418 128.016 35.2408 128.101 35.1308 128.174C35.0651 128.216 34.9785 128.263 34.9608 128.27L34.9366 128.283C34.882 128.309 34.8828 128.307 34.8541 128.32C34.8052 128.34 34.7691 128.35 34.7273 128.363C34.428 128.44 34.2396 128.428 34.0491 128.424C33.3257 128.377 32.7411 128.217 32.1377 128.052C31.5428 127.882 30.964 127.684 30.3929 127.469C29.2529 127.04 28.1432 126.542 27.064 125.972C25.9855 125.399 24.935 124.756 23.9592 123.949C23.4739 123.543 23.0043 123.096 22.5979 122.543C22.2033 121.999 21.8236 121.297 21.8532 120.434C21.8647 120.216 21.8942 120.029 21.9661 119.794C22.026 119.611 22.0736 119.502 22.1282 119.352L22.4488 118.512C22.6652 117.952 22.8914 117.397 23.1217 116.844C23.5835 115.737 24.0725 114.642 24.5898 113.56C26.6617 109.237 29.156 105.107 32.1249 101.332C33.609 99.4437 35.203 97.6445 36.9367 95.9694C37.1621 95.7631 37.3296 95.5695 37.6457 95.3184C37.9417 95.0858 38.3546 94.898 38.7586 94.8544C39.1617 94.8088 39.5164 94.8606 39.8362 94.9214C40.1568 94.9851 40.4528 95.0644 40.7439 95.1429L41.6011 95.3792L42.026 95.4931C42.143 95.5239 42.1791 95.5235 42.2255 95.5214C42.2854 95.5144 42.3819 95.4647 42.5046 95.2794C42.6216 95.1055 42.7243 94.8614 42.8125 94.6095C43.1574 93.5689 43.352 92.3755 43.6143 91.2133C43.8684 90.0429 44.1644 88.8597 44.6143 87.7156C45.052 86.5739 45.7072 85.4684 46.5204 84.559C47.3333 83.6462 48.3091 82.8584 49.4155 82.3829Z" fill="black"/>
<path d="M82.361 92.7984C84.9198 103.155 93.0339 126.199 97.3165 127.429C100.894 128.456 110.714 123.029 109.686 120.642C108.709 118.374 102.837 115.182 97.0336 105.986C92.7063 99.1285 89.819 92.2888 88.6068 89.6808C86.4696 85.0833 80.9299 87.0046 82.361 92.7984Z" fill="#E6E6CF"/>
<path d="M105.616 116.344C107.704 118.324 109.226 119.584 109.684 120.642C110.713 123.031 100.893 128.456 97.315 127.426C96.3191 127.139 95.1109 125.671 93.8145 123.447C97.6993 123.602 105.175 120.688 105.616 116.344Z" fill="#807E75"/>
<path d="M86.5434 87.4185C87.3349 87.7998 88.0734 88.5371 88.6063 89.6812C89.7167 92.0665 92.2271 97.9996 95.962 104.245C96.965 108.498 91.0021 107.919 86.1488 97.4653C81.5768 87.6149 84.7834 86.9697 86.536 87.4127C86.5388 87.4164 86.5434 87.4185 86.5434 87.4185Z" fill="#F6F6E5"/>
<path d="M82.1292 90.8804C82.2207 91.376 82.3385 91.8474 82.4908 92.3073L82.9814 93.6906C83.1448 94.1554 83.307 94.6202 83.4552 95.0883C83.6124 95.5531 83.7631 96.0216 83.9084 96.4905C84.4753 98.3702 85.0632 100.247 85.6868 102.111C86.9319 105.839 88.2784 109.535 89.7551 113.173C90.4936 114.991 91.2703 116.792 92.0955 118.564C92.9239 120.333 93.8 122.083 94.8119 123.716C95.3193 124.525 95.8645 125.319 96.4803 125.964C96.7825 126.28 97.124 126.564 97.4089 126.682C97.489 126.715 97.5066 126.717 97.6544 126.754L97.7763 126.776L97.9208 126.795C98.1195 126.817 98.3313 126.82 98.5469 126.811C99.4184 126.77 100.338 126.541 101.23 126.25C102.125 125.955 103.006 125.584 103.861 125.163C104.717 124.744 105.55 124.276 106.337 123.752C107.118 123.229 107.876 122.647 108.448 121.997C108.728 121.683 108.955 121.313 108.991 121.091C109.002 121.037 108.997 121.004 108.996 120.979C108.989 120.951 109 120.972 108.937 120.84C108.872 120.71 108.748 120.521 108.62 120.357C108.08 119.673 107.347 119.004 106.639 118.336C105.198 117 103.739 115.627 102.381 114.162C101.015 112.703 99.7456 111.15 98.567 109.537C97.3851 107.923 96.3141 106.231 95.3062 104.523C94.2967 102.812 93.3435 101.071 92.4367 99.3072C91.5306 97.5434 90.6669 95.7598 89.8458 93.9594C89.4394 93.0573 89.0769 92.1355 88.7587 91.1977C88.6015 90.73 88.4595 90.2471 88.3219 89.7815C88.1943 89.313 88.0206 88.8687 87.8006 88.4072C88.2222 88.6945 88.5719 89.0952 88.8613 89.5189C89.1421 89.9463 89.4024 90.3626 89.652 90.7929C90.1451 91.6514 90.5975 92.5255 91.0224 93.4099C91.8644 95.184 92.7285 96.9446 93.6419 98.6781C94.5545 100.413 95.5111 102.122 96.5206 103.797C97.5309 105.474 98.5867 107.107 99.7493 108.664C100.905 110.225 102.162 111.708 103.486 113.129C104.811 114.553 106.224 115.883 107.674 117.224C108.395 117.909 109.136 118.563 109.822 119.425C109.995 119.651 110.152 119.87 110.309 120.18C110.355 120.268 110.469 120.516 110.498 120.734C110.531 120.952 110.525 121.169 110.489 121.358C110.329 122.112 109.951 122.57 109.597 122.998C108.862 123.828 108.035 124.447 107.184 125.023C106.331 125.591 105.445 126.092 104.53 126.537C103.615 126.979 102.672 127.367 101.694 127.682C100.714 127.989 99.7042 128.244 98.6044 128.291C98.3285 128.3 98.0473 128.295 97.7558 128.262L97.5337 128.23L97.294 128.182C97.202 128.16 96.9795 128.103 96.8346 128.035C96.2122 127.755 95.8067 127.36 95.4281 126.973C94.6896 126.182 94.1268 125.332 93.5927 124.471C92.5421 122.742 91.6653 120.952 90.836 119.146C90.0108 117.337 89.2579 115.504 88.535 113.66C87.0941 109.971 85.7902 106.236 84.5886 102.469C83.9913 100.584 83.4108 98.6933 82.8858 96.7856C82.7581 96.3076 82.6403 95.8264 82.5352 95.3414C82.4223 94.8594 82.3274 94.3724 82.2416 93.8829C82.1558 93.3926 82.0783 92.9077 82.0356 92.3936C82.0019 91.886 82.0212 91.3711 82.1292 90.8804Z" fill="black"/>
<path d="M94.1038 30.4226C86.457 29.68 76.8737 34.1246 74.1244 44.2586C71.1144 55.3546 76.5773 65.9587 88.2978 68.0949C93.5562 69.0533 98.7309 68.8642 101.367 68.205C104.003 67.5459 105.441 69.7967 107.407 69.0845C108.443 68.7093 110.37 66.9126 110.067 66.0775C108.247 65.2424 106.579 62.9648 107.489 59.853C109.157 62.8132 112.679 63.038 113.228 62.7084C114.237 62.2062 116.193 58.3107 115.644 57.4312C115.095 56.5517 111.91 56.9919 110.922 55.2325C111.581 48.8552 112.44 32.2033 94.1038 30.4226Z" fill="#F6F6E5"/>
<path d="M94.1032 30.4209C95.3758 30.5442 96.5536 30.7374 97.6456 30.9963C93.393 30.7785 87.793 32.7676 84.2506 41.106C80.1166 50.8335 83.6508 67.7488 100.006 68.468C97.1653 68.8954 92.7649 68.9078 88.298 68.094C76.5779 65.957 71.1138 55.3542 74.123 44.2581C76.8735 34.1237 86.4547 29.6812 94.1032 30.4209Z" fill="#E6E6CF"/>
<path d="M111.785 58.5116L111.895 58.5359C111.95 58.547 112.007 58.5609 112.061 58.5753C112.157 58.6082 112.247 58.6493 112.331 58.6994C112.497 58.801 112.634 58.9394 112.727 59.0956C112.919 59.4112 112.91 59.7733 112.799 60.0466C112.776 59.7466 112.625 59.4889 112.421 59.3701C112.321 59.3093 112.212 59.2785 112.108 59.2748C112.056 59.2736 112.004 59.2789 111.957 59.2875C111.938 59.2958 111.923 59.3019 111.906 59.3073L111.797 59.3344C111.571 59.3911 111.342 59.2538 111.285 59.0278C111.229 58.8014 111.366 58.5725 111.591 58.5153C111.656 58.4981 111.724 58.4985 111.785 58.5116Z" fill="black"/>
<path d="M105.569 53.4419C105.569 55.7125 104.754 57.7484 103.466 59.128C101.389 58.2305 97.694 57.4085 94.5453 57.8865C93.8059 56.6413 93.3691 55.1043 93.3691 53.4423C93.3691 49.2858 96.1 45.9159 99.4683 45.9159C102.838 45.9159 105.569 49.2854 105.569 53.4419Z" fill="#F6F6E5"/>
<path d="M93.9315 58.0714C93.8054 57.8795 93.6692 57.6531 93.5628 57.4435C93.4307 57.1805 93.3071 56.9125 93.1995 56.638C92.9815 56.0898 92.8178 55.5189 92.72 54.937C92.6117 54.3588 92.5734 53.7592 92.5763 53.1814C92.5804 52.5785 92.647 51.9957 92.7631 51.4109C92.9934 50.2459 93.4639 49.1206 94.1536 48.1314C94.8535 47.155 95.7829 46.3031 96.9102 45.7931C98.0416 45.2872 99.3163 45.1417 100.511 45.4331C101.697 45.7133 102.739 46.3816 103.525 47.2265C105.11 48.9316 105.768 51.272 105.569 53.4423C105.377 51.2798 104.502 49.1778 102.95 47.8208C102.183 47.1492 101.252 46.6972 100.295 46.5747C100.059 46.5447 99.8106 46.532 99.5832 46.5406C99.3336 46.5505 99.1045 46.5702 98.8697 46.6154C98.4046 46.7005 97.9571 46.8649 97.5429 47.0901C96.7107 47.5372 95.9968 48.2194 95.4693 49.0356C94.9266 49.8427 94.5657 50.7752 94.3547 51.7405C94.2521 52.2222 94.195 52.7252 94.1704 53.2106C94.1495 53.721 94.1704 54.2125 94.2275 54.7098C94.3502 55.7043 94.7423 56.8784 95.2066 57.794C94.6154 57.8454 94.3847 57.9227 93.9315 58.0714Z" fill="black"/>
<path d="M105.567 53.0885C105.567 56.1704 103.749 58.6678 101.505 58.6678C99.261 58.6678 97.4424 56.1704 97.4424 53.0885C97.4424 50.0075 99.261 47.5101 101.505 47.5101C103.749 47.5101 105.567 50.0075 105.567 53.0885Z" fill="black"/>
<path d="M102.651 51.8618C101.937 53.1781 100.582 53.8221 99.6237 53.3018C98.6647 52.7807 98.4669 51.2918 99.1804 49.9759C99.8939 48.66 101.249 48.0156 102.207 48.5363C103.166 49.057 103.364 50.5459 102.651 51.8618Z" fill="#F6F6E5"/>
<path d="M92.6826 58.3678C95.5563 56.4502 101.356 57.1579 104.827 59.8082C101.532 58.4532 95.5066 57.838 92.6826 58.3678Z" fill="#BFAF90"/>
<path d="M94.4463 44.4636C96.8068 40.8677 103.17 41.3814 105.53 46.5184C102.452 43.0252 97.4226 43.0252 94.4463 44.4636Z" fill="black"/>
<path d="M113.528 63.2056C113.52 63.2102 113.514 63.2127 113.505 63.2169C113.499 63.2206 113.495 63.2244 113.487 63.2277L113.528 63.2056Z" fill="black"/>
<path d="M116.359 57.6983C116.335 57.5146 116.326 57.3219 116.133 57.0387C116.11 57.0095 116.108 57.003 116.069 56.9553C116.022 56.9027 115.972 56.8517 115.92 56.8049C115.84 56.7412 115.759 56.6816 115.684 56.6401C115.375 56.4625 115.115 56.3972 114.86 56.3253C114.358 56.1966 113.896 56.1198 113.456 56.0154C112.656 55.8399 111.92 55.5617 111.559 55.0739C111.931 51.7167 111.997 48.2745 111.392 44.8861C111.083 43.1584 110.596 41.4471 109.87 39.8234C109.148 38.2005 108.173 36.6705 106.952 35.3571C105.734 34.0399 104.284 32.9447 102.712 32.1071C101.139 31.2667 99.4526 30.6749 97.7382 30.2775C96.881 30.077 96.0152 29.9266 95.1466 29.8127L94.4947 29.7355L94.1609 29.7009L93.8419 29.6738C93.3887 29.6389 92.947 29.622 92.502 29.6204C90.7244 29.6146 88.9538 29.8612 87.2468 30.3297C83.8382 31.2774 80.6665 33.1115 78.212 35.6751C76.9845 36.9532 75.9397 38.4064 75.1203 39.9751C74.3001 41.5417 73.7028 43.225 73.3169 44.9342C72.5328 48.3464 72.4757 51.9686 73.4002 55.3764C74.3173 58.7689 76.358 61.9058 79.2116 63.8558C78.0617 62.5756 77.0683 61.2042 76.2755 59.7322C75.4873 58.2593 74.8834 56.7021 74.4861 55.0916C73.6716 51.8717 73.7397 48.4528 74.5222 45.2177C75.2734 41.9789 76.8568 38.9587 79.1742 36.6097C81.4752 34.252 84.447 32.5732 87.6261 31.7237C89.2153 31.2967 90.8582 31.0629 92.497 31.0699C92.9067 31.0711 93.3189 31.0871 93.7175 31.1175L94.0365 31.1447L94.3395 31.1763L94.9602 31.2499C95.7853 31.358 96.6047 31.5001 97.4106 31.6888C100.63 32.4224 103.683 33.9339 105.89 36.3421C106.993 37.5368 107.893 38.9185 108.578 40.4103C109.263 41.9029 109.737 43.5003 110.045 45.1339C110.657 48.4117 110.627 51.8047 110.31 55.1692L110.29 55.3805L110.386 55.535L110.391 55.5436C110.694 56.0923 111.195 56.4884 111.686 56.735C112.183 56.9865 112.686 57.1295 113.169 57.2458C113.651 57.3593 114.128 57.4373 114.545 57.5434C114.746 57.5956 114.948 57.6601 115.05 57.7234C115.078 57.7378 115.092 57.7513 115.107 57.7595C115.11 57.771 115.113 57.7854 115.112 57.8015C115.123 57.9235 115.1 58.1245 115.055 58.3209C115.011 58.5206 114.952 58.729 114.882 58.9365C114.741 59.3533 114.563 59.77 114.365 60.1752C114.165 60.58 113.944 60.9762 113.7 61.3444C113.578 61.5277 113.451 61.7048 113.318 61.8606C113.194 62.0114 113.031 62.1601 112.97 62.1893L113.033 62.1593L112.944 62.2037C112.936 62.2074 112.921 62.2127 112.905 62.2156C112.866 62.2251 112.816 62.2337 112.762 62.2403C112.654 62.2526 112.533 62.2571 112.41 62.2551C112.162 62.2514 111.905 62.223 111.65 62.1778C111.139 62.0874 110.639 61.921 110.164 61.7044C109.217 61.2647 108.397 60.5615 107.833 59.659L107.316 58.8309L107.107 59.7424V59.7445C106.911 60.3622 106.785 61.0148 106.783 61.6814C106.777 62.3463 106.889 63.0223 107.126 63.6573C107.549 64.7924 108.359 65.7791 109.418 66.4202C109.405 66.4473 109.392 66.4761 109.373 66.5057C109.294 66.6569 109.167 66.8262 109.031 66.9869C108.752 67.3116 108.411 67.6141 108.06 67.8832C107.885 68.0176 107.703 68.1426 107.525 68.2449C107.44 68.2946 107.338 68.3464 107.276 68.3727C107.192 68.4089 107.109 68.4393 107.026 68.4611C106.696 68.5511 106.355 68.5264 105.954 68.4084C105.153 68.1865 104.212 67.6194 103.073 67.4686C102.506 67.3884 101.924 67.4127 101.357 67.5483C100.873 67.6806 100.441 67.7825 99.9628 67.8701C98.0802 68.2087 96.1269 68.3238 94.1761 68.3649C92.2228 68.3858 90.2617 68.2909 88.2973 68.0969C90.2067 68.6057 92.1694 68.9291 94.1498 69.0968C95.14 69.1868 96.1359 69.2345 97.1347 69.2296C98.1339 69.2304 99.1361 69.1815 100.144 69.0569C100.639 68.9974 101.173 68.9086 101.645 68.8034C102.038 68.7282 102.458 68.7253 102.863 68.8009C103.271 68.8765 103.681 69.0253 104.116 69.2057C104.553 69.3857 105.009 69.6089 105.555 69.7753C106.093 69.9397 106.769 70.012 107.394 69.8349C107.549 69.793 107.698 69.7416 107.839 69.6755C108.001 69.6015 108.116 69.5361 108.242 69.4601C108.487 69.3122 108.708 69.1515 108.92 68.9822C109.343 68.6431 109.718 68.2617 110.063 67.8241C110.233 67.6001 110.396 67.3671 110.533 67.0753C110.6 66.9286 110.66 66.7703 110.696 66.5731C110.731 66.3803 110.743 66.1346 110.645 65.8691L110.644 65.8683L110.561 65.6188L110.322 65.519C109.344 65.108 108.506 64.2828 108.064 63.2776C107.841 62.7745 107.714 62.2255 107.685 61.6641C107.672 61.4225 107.68 61.1788 107.703 60.9355C107.861 61.1455 108.031 61.3473 108.216 61.5355C108.653 61.9707 109.158 62.3377 109.702 62.6274C110.244 62.9212 110.831 63.1267 111.435 63.2591C111.739 63.324 112.047 63.37 112.368 63.3869C112.53 63.3951 112.693 63.3963 112.869 63.3824C112.957 63.375 113.048 63.3647 113.148 63.3441C113.246 63.3215 113.347 63.3018 113.502 63.2192C113.849 63.0289 114.019 62.8284 114.203 62.6299C114.382 62.4264 114.535 62.2201 114.679 62.011C114.967 61.5926 115.217 61.1631 115.444 60.7201C115.671 60.2771 115.876 59.823 116.047 59.343C116.132 59.1022 116.211 58.8556 116.271 58.5922C116.329 58.3242 116.381 58.0509 116.359 57.6983ZM112.948 62.2008C112.953 62.1992 112.953 62.1988 112.948 62.2008ZM115.086 57.732C115.086 57.7291 115.095 57.7415 115.107 57.7563C115.107 57.7571 115.107 57.7575 115.108 57.7587C115.098 57.753 115.089 57.7431 115.086 57.732Z" fill="black"/>
<path d="M81.2333 34.1546C80.744 30.2476 65.142 24.7365 64.2495 39.2399C59.1002 40.4872 56.5648 47.9186 58.0329 54.7587C59.6639 62.3533 65.1042 67.1641 60.2468 69.2834C64.5446 69.6796 68.4102 65.7611 66.7077 58.6744C63.6304 45.8531 69.3281 38.5006 81.2333 34.1546Z" fill="#6B6B6B"/>
<path d="M70.5601 31.6703C69.5371 31.8503 66.4566 33.2205 66.4668 37.2163C67.4332 35.1216 68.8015 33.8612 71.4494 33.0919C72.9773 32.6472 72.3656 31.3535 70.5601 31.6703Z" fill="#858585"/>
<path d="M61.4818 67.4238C61.8033 66.216 61.0984 64.4295 60.0474 62.1158C59.1488 60.1383 58.0309 57.6774 57.4328 54.8882C56.0272 48.3444 58.2112 40.4568 63.6679 38.7615C63.9597 35.2737 65.1216 32.676 67.1262 31.0375C68.9879 29.514 71.5812 28.8959 74.4257 29.295C78.1894 29.8239 81.5873 32.0139 81.8455 34.0782L81.9055 34.5664L81.4453 34.7345C68.9932 39.2793 64.5017 46.8403 67.3076 58.5306C68.2063 62.2716 67.6787 65.5133 65.8244 67.6601C64.422 69.2818 62.1378 69.9636 59.451 69.4141C59.451 69.4141 61.137 68.7159 61.4818 67.4238ZM74.2545 30.5155C71.7528 30.1646 69.4974 30.6885 67.9041 31.9925C66.0937 33.4728 65.0723 35.9234 64.8654 39.2777L64.8374 39.7314L64.3958 39.8387C59.7925 40.9544 57.1553 47.728 58.6365 54.6289C59.2075 57.2886 60.2499 59.5822 61.1694 61.6054C62.3394 64.1821 63.2639 66.2164 62.6321 67.8656C62.5455 68.0904 62.4334 68.3012 62.2947 68.4985C63.2947 68.2227 64.1941 67.661 64.8933 66.853C66.4808 65.0152 66.9139 62.1623 66.1113 58.8178C64.5645 52.3751 65.1281 47.1695 67.8343 42.9053C70.2704 39.0652 74.4093 36.0763 80.4772 33.7786C79.836 32.5038 77.2702 30.9388 74.2545 30.5155Z" fill="black"/>
<path d="M81.235 34.1546C78.7973 33.5316 68.2279 33.9902 63.7988 43.9487C59.1089 54.4945 64.8998 61.845 63.665 65.6123C62.3973 69.4811 56.1728 70.2665 54.8826 65.4175C54.1539 69.8789 58.1122 72.7729 65.2442 70.6067C69.6824 69.2588 73.8213 64.1336 72.738 54.852C71.655 45.57 72.9272 37.9679 81.235 34.1546Z" fill="#6B6B6B"/>
<path d="M65.3303 62.2716C63.1676 55.1648 63.2407 49.8527 65.1956 45.1586C66.4953 42.0394 68.6994 43.006 67.3566 47.1296C66.4809 49.8165 64.7108 55.7652 65.3303 62.2716Z" fill="#858585"/>
<path d="M59.3709 71.8618L59.3701 71.8614C57.5194 71.6021 56.0641 70.8171 55.1638 69.5925C54.3141 68.4368 54.0435 66.3364 54.8567 64.4797C54.8567 64.4797 55.7156 67.4702 58.5289 68.1323C60.2207 68.5305 62.4215 67.4259 63.0792 65.4208C63.4602 64.2598 63.0447 62.5802 62.5196 60.4547C61.5036 56.3454 60.1135 50.7177 63.2364 43.698C67.5822 33.9261 77.6351 33.0023 80.8143 33.4486C81.0269 33.4781 81.2199 33.5151 81.3865 33.5579L83.073 33.989L81.4908 34.716C74.516 37.9178 72.0816 43.9187 73.3493 54.7817C74.5144 64.7677 69.8069 69.8653 65.4225 71.1973C63.1601 71.8836 61.1235 72.1084 59.3709 71.8618ZM55.7316 68.1118C55.8436 68.3781 55.9857 68.6288 56.1565 68.8609C56.8556 69.8123 58.0264 70.428 59.5409 70.6404C59.5417 70.6404 59.5417 70.6404 59.5425 70.6404C61.1165 70.8623 62.9749 70.6519 65.0661 70.017C68.9957 68.8231 73.2027 64.1542 72.1259 54.9231C71.2983 47.8294 71.4141 39.2756 79.1015 34.589C75.2459 34.649 67.8441 36.3676 64.3612 44.199C61.4104 50.8319 62.7425 56.2221 63.7151 60.158C64.2882 62.4762 64.7397 64.3079 64.2492 65.8046C63.4684 68.1894 60.9354 69.7158 58.3581 69.3533C57.3257 69.2082 56.4332 68.7788 55.7316 68.1118Z" fill="black"/>
<path d="M81.2156 34.1316C78.743 33.7839 72.4111 36.8957 70.8675 44.9851C68.7401 56.1313 74.7859 60.137 70.858 65.0119C68.3916 68.0727 61.5017 69.9747 61.6852 76.4967C61.8137 81.0337 67.6395 83.0709 64.2248 87.3798C66.9293 86.098 67.1908 83.4395 65.7055 80.7123C64.5852 78.655 65.0577 75.3694 69.523 73.3454C75.1357 70.8011 82.1048 67.0482 79.3723 57.0745C76.3381 45.9998 77.4941 38.4114 81.2156 34.1316Z" fill="#6B6B6B"/>
<path d="M72.4566 51.4805C72.5818 53.8534 73.1927 55.5835 73.9345 58.8511C74.6361 61.9358 74.0733 65.1779 70.7287 67.5105C67.589 69.6997 65.2868 71.0814 64.7256 72.9275C65.7991 71.284 69.7127 69.516 72.2041 67.9601C75.3607 65.9887 76.651 63.682 76.3751 60.3092C75.9662 55.3086 75.1747 53.1933 74.8475 51.1069C74.1853 46.8813 72.2698 47.9626 72.4566 51.4805Z" fill="#858585"/>
<path d="M63.1628 81.4718C62.2079 80.1004 61.1262 78.547 61.0683 76.5143C60.932 71.6707 64.4617 69.1786 67.2992 67.176C68.5189 66.3146 69.6717 65.5005 70.3782 64.6247C72.1709 62.3989 71.6717 60.4099 70.9147 57.3996C70.1433 54.3313 69.1835 50.5139 70.2612 44.8693C71.8117 36.7404 78.0923 33.2028 81.1721 33.5061C81.2152 33.5106 81.2579 33.5151 81.3006 33.5213L82.4238 33.6799L81.6791 34.5364C77.7775 39.0237 77.1851 46.7609 79.9648 56.9126C82.9813 67.9211 74.3915 71.8154 69.7764 73.9072C67.7894 74.808 66.4856 76.0421 66.0057 77.4776C65.6719 78.4759 65.7573 79.5201 66.2454 80.4173C67.1986 82.1684 67.4602 83.8373 67.0033 85.2457C66.6256 86.4058 65.0811 87.5685 63.4169 88.0587C65.2573 85.4175 64.7552 83.7617 63.1628 81.4718ZM79.8851 34.843C77.2623 35.4541 72.7395 38.4529 71.471 45.101C70.4447 50.4781 71.3675 54.1497 72.1094 57.0996C72.8943 60.2258 73.515 62.6952 71.3363 65.399C70.5227 66.4091 69.3014 67.2713 68.009 68.1837C65.2774 70.1119 62.1825 72.2974 62.2995 76.4798C62.3467 78.1438 63.2753 79.4774 64.1727 80.767C64.9978 81.9518 65.8382 83.1592 65.915 84.5491C66.1268 83.5377 65.8653 82.2958 65.1637 81.0082C64.5191 79.8234 64.4005 78.3941 64.8381 77.086C65.2511 75.8527 66.3542 74.1061 69.2689 72.7844C75.1944 70.0988 81.3047 66.4605 78.7783 57.2389C75.4868 45.2243 77.3526 38.5116 79.8851 34.843Z" fill="black"/>
<path d="M85.4131 31.7608C85.8725 29.4228 89.8463 21.0255 100.535 23.6693C110.424 26.1145 109.183 37.0766 114.379 38.4611C118.619 39.5904 119.294 33.2509 116.002 32.0324C121.107 32.408 121.584 37.8475 120.064 40.6816C118.172 44.2121 111.881 46.7137 107.636 40.8344C102.222 33.3364 93.4023 28.9095 85.4131 31.7608Z" fill="#6B6B6B"/>
<path d="M113.566 44.9683C111.839 44.9178 109.322 44.2228 107.138 41.1957C102.882 35.3033 96.8191 31.6827 90.9161 31.5113C89.0938 31.4583 87.3121 31.7377 85.6203 32.3418L84.6006 32.706L84.81 31.6428C85.1995 29.6582 88.4156 22.2999 97.0297 22.5502C98.1931 22.5835 99.423 22.759 100.683 23.0709C106.715 24.5627 108.817 29.1014 110.505 32.7479C111.65 35.2227 112.639 37.3597 114.538 37.8656C114.793 37.9334 115.038 37.9716 115.267 37.9778C116.894 38.0251 117.312 36.5242 117.402 36.0631C117.713 34.4587 117.23 32.9427 114.978 31.7139C118.36 31.4743 120.018 33.0372 120.655 34.1969C121.9 36.4679 121.504 39.3019 120.607 40.9737C119.301 43.4075 116.406 45.0505 113.566 44.9683ZM90.9514 30.2792C97.2345 30.4613 103.658 34.2721 108.135 40.474C109.632 42.5473 111.523 43.6758 113.602 43.7362C116.269 43.8135 118.599 42.1117 119.522 40.3902C120.289 38.9588 120.554 36.5752 119.574 34.7904C119.239 34.1793 118.791 33.6952 118.235 33.3421C118.679 34.2684 118.792 35.3546 118.61 36.2978C118.257 38.1167 116.931 39.2596 115.231 39.2103C114.907 39.2008 114.567 39.1495 114.22 39.057C111.764 38.4023 110.609 35.9078 109.386 33.2661C107.728 29.6809 105.846 25.6181 100.388 24.2676C99.2124 23.9771 98.0699 23.8135 96.9927 23.7823C90.3874 23.5899 87.3195 28.3263 86.3441 30.8225C87.8347 30.4161 89.3799 30.2332 90.9514 30.2792Z" fill="black"/>
<path d="M78.4075 36.1827C76.8073 33.1802 74.5813 23.9348 83.4614 21.2203C92.0591 18.5918 99.3701 24.9716 99.5721 32.1717C93.0981 28.7977 82.5599 31.0613 78.4075 36.1827Z" fill="#6B6B6B"/>
<path d="M80.4483 26.1786C80.9857 23.0084 88.5923 19.7248 94.7317 25.3189C90.9738 24.1254 87.8908 24.1645 84.5914 25.9805C81.9595 27.4288 80.2862 27.1341 80.4483 26.1786Z" fill="#858585"/>
<path d="M78.2995 37.2923L77.8627 36.4729C76.691 34.2734 75.5099 29.6389 77.0601 25.886C78.1127 23.3388 80.2055 21.5705 83.2803 20.6306C84.7779 20.1728 86.2903 19.9624 87.776 20.0055C94.436 20.1991 100.004 25.6489 100.186 32.1544L100.215 33.2032L99.2859 32.7183C97.5116 31.794 95.2985 31.268 92.8858 31.1977C87.3372 31.0366 81.5804 33.246 78.884 36.5711L78.2995 37.2923ZM87.7407 21.2384C86.3888 21.199 85.0091 21.3913 83.6404 21.8096C80.9334 22.6373 79.1029 24.1669 78.1985 26.3578C76.9788 29.3089 77.6627 32.8979 78.5671 35.0776C81.6855 31.877 87.416 29.8058 92.9211 29.9656C95.0981 30.0289 97.1331 30.442 98.8762 31.1685C98.1964 25.766 93.4063 21.4028 87.7407 21.2384Z" fill="black"/>
<path d="M81.1875 34.0548C83.9015 32.1228 91.6325 29.6147 97.2941 34.5438C102.722 39.2699 104.892 45.9481 110.945 46.2924C116.175 46.5904 118.205 42.1047 117.324 39.6229C117.095 40.9548 115.833 42.6797 113.177 41.9132C109.829 40.947 109.474 36.5049 104.324 31.6872C99.1792 26.874 88.7629 23.5016 81.1875 34.0548Z" fill="#6B6B6B"/>
<path d="M97.5049 29.5276C100.316 30.2858 103.379 32.7499 105.204 35.0941C107.818 38.4529 108.227 41.2101 111.177 42.752C107.747 42.2297 107.122 40.5385 104.898 37.5015C103.282 35.2926 101.921 33.1806 97.367 31.5084C93.4378 30.0639 93.155 28.3547 97.5049 29.5276Z" fill="#858585"/>
<path d="M111.276 46.922C111.156 46.9196 111.034 46.9155 110.91 46.9081C106.703 46.6689 104.237 43.5562 101.627 40.2603C100.213 38.4747 98.7499 36.6286 96.8898 35.009C94.8766 33.2554 92.4261 32.3414 89.6087 32.2921C86.0318 32.2297 82.9865 33.3688 80.2627 34.822C83.9028 28.1693 90.0632 26.4277 93.5096 26.4889C97.4399 26.5579 101.64 28.3333 104.744 31.2376C107.218 33.5513 108.612 35.78 109.731 37.5697C110.929 39.4885 111.796 40.8739 113.348 41.3218C113.707 41.4254 114.049 41.4809 114.364 41.4862C116.097 41.5166 117.199 40.4633 117.23 38.7003C118.065 40.2537 118.066 42.7754 117.001 44.2582C115.735 46.0187 113.703 46.9648 111.276 46.922ZM89.6293 31.0596C92.7451 31.1139 95.4591 32.1298 97.6977 34.0782C99.6436 35.773 101.142 37.6651 102.592 39.4947C105.131 42.7006 107.325 45.4693 110.98 45.6772C111.087 45.6838 111.194 45.6875 111.297 45.6891C113.308 45.7249 114.979 44.9609 116.001 43.5377C116.376 43.0166 116.642 42.4228 116.785 41.8302C116.187 42.3747 115.368 42.7368 114.342 42.7187C113.918 42.7109 113.469 42.6398 113.007 42.5058C111.002 41.9276 109.98 40.2928 108.687 38.2236C107.606 36.4942 106.26 34.3416 103.904 32.138C101.016 29.4359 97.1217 27.7847 93.4878 27.7206C89.8123 27.656 86.428 29.1745 83.5703 32.1421C85.3085 31.4829 87.4412 31.0206 89.6293 31.0596Z" fill="black"/>
<path d="M85.7283 42.6727C85.9825 36.4728 81.0738 27.8372 73.8962 28.9888C72.1473 37.0786 75.4693 43.3138 77.4932 45.6776C80.6674 49.3841 85.4886 48.5038 85.7283 42.6727Z" fill="#F6F6E5"/>
<path d="M85.4856 37.4797C85.2508 36.6315 84.9277 35.8079 84.5451 35.0106C84.1608 34.2146 83.719 33.4416 83.1932 32.7203C82.1549 31.2762 80.8183 29.9858 79.1746 29.147C77.5427 28.2963 75.5882 28.014 73.7991 28.3805L73.3598 28.4709L73.295 28.8589C72.8594 30.6581 72.6624 32.5268 72.7387 34.3864C72.8143 36.246 73.1493 38.0961 73.7347 39.8596C74.0216 40.7432 74.3808 41.6017 74.7922 42.4331C75.2068 43.2628 75.6719 44.0695 76.2249 44.8195C76.7701 45.5671 77.4126 46.2826 78.1893 46.8287C78.959 47.3691 79.8593 47.7563 80.7777 47.8015C79.9316 47.4575 79.2164 46.938 78.6097 46.3253C77.998 45.7183 77.5103 45.0061 77.0493 44.2635C76.135 42.777 75.4343 41.1554 74.9429 39.4815C74.4515 37.8056 74.1723 36.0726 74.1033 34.3321C74.0697 33.4617 74.0898 32.5892 74.1522 31.7188C74.2068 30.9971 74.3086 30.2804 74.4273 29.5645C75.0673 29.5243 75.7036 29.5485 76.3259 29.6648C77.0862 29.8107 77.8235 30.0692 78.5165 30.4304C79.9036 31.1541 81.1032 32.2621 82.0893 33.5418C82.5774 34.1871 83.0281 34.8688 83.4169 35.588C83.8057 36.3076 84.1394 37.0593 84.4367 37.8266C85.0299 39.3664 85.463 40.9651 85.7282 42.6731C86.1198 40.975 85.9515 39.1684 85.4856 37.4797Z" fill="black"/>
<path d="M83.2703 42.1996C83.4234 38.1927 80.7768 32.5481 76.1887 32.6501C75.7959 38.1977 77.4852 41.7973 78.7673 43.3273C80.7788 45.7269 83.1258 45.969 83.2703 42.1996Z" fill="#E6E6CF"/>
<path d="M78.768 43.3273C79.3768 43.9117 80.0574 44.4451 80.8046 44.7094C81.1732 44.838 81.5624 44.8631 81.8662 44.7427C82.1708 44.6239 82.3888 44.3519 82.5308 44.0173C82.8132 43.3413 82.8531 42.5074 82.8108 41.7114C82.7755 40.9088 82.6376 40.1054 82.4179 39.3274C82.0025 37.7641 81.2529 36.2941 80.2442 35.0788C79.2396 33.8603 77.8981 32.9344 76.1895 32.6496C77.0298 32.4536 77.9551 32.542 78.7979 32.8646C79.6407 33.1909 80.4031 33.7251 81.0221 34.3777C81.6445 35.0291 82.1437 35.7832 82.5329 36.5797C82.9233 37.3757 83.2287 38.2092 83.434 39.0677C83.6319 39.927 83.746 40.8069 83.7402 41.695C83.7316 42.1491 83.6946 42.5757 83.615 43.0269C83.5333 43.4691 83.4171 43.9216 83.1786 44.3445C82.9508 44.7612 82.5595 45.1713 82.0448 45.3053C81.5332 45.4458 81.0369 45.3024 80.6375 45.1051C79.8271 44.6901 79.2491 44.0218 78.768 43.3273Z" fill="black"/>
</svg>
