<svg width="132" height="137" viewBox="0 0 132 137" fill="none" xmlns="http://www.w3.org/2000/svg">
<path d="M16.5632 91.9675C15.8811 90.0583 16.3003 87.3239 18.9167 87.995C21.5323 88.6647 27.9132 95.3213 34.1006 89.6512C40.2871 83.9827 34.9795 78.3154 37.1896 74.5115C39.0806 71.2574 42.6658 71.8408 46.6551 74.0063C45.1696 69.1336 39.4609 61.5899 32.357 62.4487C26.55 63.1505 21.3869 69.3895 24.2329 76.8708C26.379 82.5125 25.3438 86.168 20.8915 84.8455C15.2643 83.1734 12.7378 87.4164 16.5632 91.9675Z" fill="#6B6B6B"/>
<path d="M32.2834 61.845C30.3548 62.0781 28.4994 62.8736 26.9183 64.1455C23.8908 66.5798 21.4469 71.259 23.6644 77.0877C24.9568 80.4861 25.0414 83.1746 23.8847 84.1051C23.1374 84.7056 21.9382 84.5223 21.0634 84.2632C18.7625 83.5797 16.7804 83.7783 15.4815 84.824C14.7083 85.4451 14.2466 86.3193 14.1466 87.3507C13.9404 89.4639 15.8088 91.8378 16.9493 92.8283C16.5005 89.8949 16.9262 89.2924 17.4313 88.7276C17.6905 88.4369 18.1834 88.4353 18.7654 88.5841C19.2959 88.7195 20.0962 89.1951 21.0233 89.7453C24.0293 91.5276 29.0612 94.5137 33.9513 90.5809C34.1376 90.4313 34.3239 90.2711 34.5098 90.1008C38.5473 86.4012 37.9654 82.6033 37.4976 79.5528C37.2136 77.7011 36.9686 76.1008 37.7142 74.8176C38.0022 74.3217 38.3416 73.9151 38.7223 73.6085C40.3063 72.3342 42.8773 72.648 46.3649 74.5419L47.6682 75.2494L47.2353 73.8295C45.8205 69.1908 39.9827 60.9137 32.2834 61.845ZM37.9605 72.6602C37.4627 73.0612 37.0265 73.581 36.6632 74.2058C35.7021 75.8612 35.9909 77.7437 36.2963 79.7373C36.7637 82.7882 37.2473 85.943 33.6888 89.204C29.305 93.2345 24.8507 90.602 21.6422 88.6988C20.5932 88.0764 19.7645 87.5851 19.0659 87.4058C17.8545 87.0953 17.0943 87.4379 16.6694 87.7797C16.1405 88.2054 15.846 88.8286 15.7261 89.5166C15.4224 88.7965 15.2936 88.102 15.3551 87.4695C15.4232 86.7705 15.7302 86.1838 16.2417 85.7723C17.2069 84.9963 18.8382 84.871 20.7175 85.4293C21.6312 85.7009 22.4348 85.7804 23.1314 85.6815C24.6797 85.8043 26.2159 85.3373 27.3747 84.3646C28.5035 83.4082 29.7922 81.5318 29.5241 78.023C29.0494 71.8088 30.0818 69.0384 33.4661 67.4369C36.2307 66.1285 40.9175 67.5419 45.0514 72.556C41.9896 71.2594 39.6575 71.2955 37.9605 72.6602ZM44.4929 70.7193C40.3853 66.478 35.9022 65.3853 33.1202 66.7022C28.885 68.7075 28.2937 72.5438 28.7165 78.0838C28.9587 81.2512 27.836 82.9099 26.8514 83.7447C26.3229 84.1927 25.6862 84.5089 25.0062 84.6967C26.2702 83.2367 26.2074 80.3556 24.7992 76.6547C22.8138 71.4354 24.9847 67.2601 27.6789 65.093C29.083 63.9638 30.7258 63.2587 32.4288 63.052C37.76 62.4077 42.1357 66.7265 44.4929 70.7193Z" fill="black"/>
<path d="M38.4553 68.3783C36.2269 67.4348 33.1383 67.5698 31.2995 70.7461C28.5564 75.4829 33.4457 80.9593 27.4697 85.2752C28.9869 85.0084 31.8175 82.9999 31.905 79.4766C32.0176 74.9056 31.9642 71.54 35.3723 70.5353C36.7648 70.125 38.8376 70.7408 39.7302 70.1262C40.4256 69.6482 40.0737 69.0627 38.4553 68.3783Z" fill="#858585"/>
<path d="M77.4453 88.8127C76.3072 99.1171 76.4838 121.374 80.0341 123.914C83 126.037 93.3926 124.359 93.2497 121.839C93.1136 119.445 88.8286 116.031 86.5682 105.713C84.8833 98.0184 84.5261 90.8165 84.2867 88.0335C83.8647 83.1284 78.082 83.0489 77.4453 88.8127Z" fill="#CCCAB8"/>
<path d="M91.0592 117.018C92.262 119.275 93.1875 120.745 93.2503 121.839C93.3941 124.357 82.999 126.035 80.0343 123.912C79.1786 123.3 78.5204 121.494 78.0283 118.959C81.3437 120.369 88.6623 120.314 91.0592 117.018Z" fill="#807E75"/>
<path d="M78.0869 86.522C77.954 86.9923 77.8726 87.4541 77.8204 87.9183C77.7762 88.3858 77.7682 88.8379 77.7686 89.3224L77.7442 90.7504L77.7034 92.1767C77.6325 94.0766 77.5308 95.9757 77.4984 97.8785C77.4206 101.683 77.4611 105.493 77.6499 109.289C77.745 111.187 77.8824 112.676 78.0776 114.558C78.2728 116.438 78.5227 117.911 78.9362 119.721C79.1468 120.621 79.3983 121.517 79.76 122.296C79.9378 122.678 80.161 123.04 80.3825 123.236C80.4429 123.291 80.4635 123.302 80.585 123.383L80.6883 123.442L80.813 123.507C80.9868 123.592 81.1771 123.666 81.376 123.729C82.1775 123.982 83.0872 124.081 83.9928 124.112C84.902 124.139 85.8238 124.092 86.7384 123.988C87.6533 123.887 88.5633 123.728 89.4447 123.5C90.3162 123.27 91.1959 122.973 91.8788 122.544C92.2149 122.342 92.4766 122.053 92.4907 121.937C92.498 121.922 92.4944 121.912 92.4993 121.901C92.498 121.895 92.4976 121.891 92.498 121.885L92.4996 121.882C92.4996 121.879 92.5017 121.908 92.4996 121.884L92.4964 121.839C92.4915 121.766 92.4863 121.758 92.4818 121.717L92.4567 121.586C92.4187 121.406 92.3538 121.211 92.2781 121.013C91.9622 120.212 91.4879 119.376 91.0383 118.54C90.1198 116.862 89.2275 115.534 88.4754 113.745C87.7205 111.956 87.0927 110.519 86.5784 108.65C86.062 106.777 85.6793 104.883 85.3419 102.992C85.0061 101.097 84.7323 99.1942 84.5059 97.2865C84.2884 95.3789 84.0787 93.4697 83.9895 91.554C83.9426 90.5971 83.9434 89.6366 83.9527 88.6806C83.9612 88.1936 83.9847 87.7383 83.9413 87.2818C83.8956 86.824 83.802 86.3626 83.6291 85.9077C83.9588 86.2653 84.2115 86.7085 84.38 87.18C84.4642 87.4148 84.5404 87.6597 84.5869 87.9062L84.7189 88.6214C84.8749 89.5697 85.0138 90.5152 85.1232 91.4615C85.3447 93.3533 85.5099 95.2467 85.7647 97.13C86.0101 99.0133 86.3026 100.889 86.6545 102.752C87.0101 104.618 87.4058 106.467 87.9266 108.271C88.9558 111.901 90.4803 114.518 92.3429 117.828C92.7969 118.672 93.2797 119.495 93.6733 120.471C93.7689 120.718 93.8577 120.976 93.9212 121.264C93.9383 121.334 93.9508 121.409 93.9634 121.484C93.9751 121.561 93.9889 121.671 93.9917 121.717L93.9954 121.761L93.9986 121.809L93.999 121.849L93.9961 122.013C93.9848 122.12 93.9706 122.23 93.9411 122.329C93.8297 122.742 93.6013 123.03 93.3834 123.263C93.1602 123.49 92.9261 123.663 92.692 123.815C91.7524 124.403 90.7933 124.707 89.8286 124.972C88.8635 125.225 87.8894 125.399 86.908 125.511C85.9263 125.619 84.938 125.664 83.9405 125.629C82.9426 125.587 81.9357 125.483 80.9143 125.159C80.6595 125.075 80.4036 124.977 80.1488 124.85L79.9568 124.749L79.7519 124.626C79.6758 124.575 79.4947 124.455 79.3817 124.346C78.8981 123.892 78.643 123.402 78.4137 122.925C77.9775 121.967 77.7244 121.008 77.5024 120.049C76.6795 116.216 76.4409 113.186 76.2785 109.349C76.1359 105.511 76.1424 101.677 76.2692 97.8436C76.3429 95.9279 76.4097 94.0105 76.6017 92.0989L76.7791 90.6685C76.8548 90.1929 76.9302 89.7177 77.0205 89.2437C77.1874 88.2999 77.4911 87.2927 78.0869 86.522Z" fill="black"/>
<path d="M46.1933 84.2243C45.7538 89.1136 49.4488 94.4991 47.2491 95.0392C45.0491 95.5792 44.1735 95.5816 43.7717 96.8016C41.2351 104.504 40.4559 113.267 41.7989 122.933C42.3145 126.644 54.2927 125.255 55.1991 124.06C56.1055 122.866 53.6645 120.573 52.2377 114.795C51.2041 110.611 50.4795 103.312 52.2369 100.175C53.9942 97.0388 59.195 95.0225 61.1277 89.2425C63.0094 83.6182 60.6538 77.884 55.3356 76.6543C51.2551 75.7108 46.7376 78.173 46.1933 84.2243Z" fill="#CCCAB8"/>
<path d="M53.3777 118.047C54.6417 121.38 55.8867 123.153 55.199 124.058C54.2934 125.256 42.3143 126.644 41.7975 122.934C41.6226 121.674 41.4845 120.42 41.3828 119.168C44.8161 120.444 50.8427 120.647 53.3777 118.047Z" fill="#807E75"/>
<path d="M47.6531 79.7162C47.2133 80.7647 46.9452 81.8273 46.8208 82.9022C46.7544 83.4386 46.7187 83.9746 46.722 84.5154C46.7171 85.0295 46.7576 85.5684 46.8334 86.093C46.9743 87.15 47.2189 88.2066 47.5097 89.2664C47.8001 90.3303 48.1581 91.3784 48.4417 92.5177C48.5101 92.8056 48.5737 93.0991 48.6142 93.4162C48.6523 93.7344 48.6822 94.0726 48.6008 94.4857C48.5587 94.6897 48.4773 94.9224 48.3193 95.1381C48.1642 95.3538 47.9342 95.531 47.7118 95.625C47.6045 95.6725 47.4822 95.7098 47.3947 95.7313L47.1906 95.7819L46.7762 95.8817C46.2323 96.0126 45.6734 96.1278 45.2307 96.2843C45.0108 96.3625 44.8419 96.4517 44.7387 96.5466C44.6346 96.639 44.5584 96.7631 44.4863 96.9553C44.1542 97.9636 43.8492 99.0413 43.5844 100.108C43.3187 101.178 43.089 102.258 42.8922 103.344C42.115 107.693 41.8351 111.322 41.9769 115.744C42.0518 117.956 42.2373 120.164 42.5281 122.358L42.5832 122.77C42.6018 122.903 42.6095 122.929 42.6374 123.008C42.6872 123.142 42.7751 123.272 42.9072 123.4C43.1733 123.656 43.6006 123.871 44.0643 124.025C45.0031 124.337 46.0788 124.458 47.1464 124.512C48.2197 124.563 49.3096 124.531 50.391 124.438C51.4699 124.342 52.5586 124.191 53.5715 123.934C54.84 123.492 54.7449 123.825 54.4379 122.607C54.0908 121.638 53.5865 120.598 53.1625 119.551C52.2881 117.448 51.5919 115.648 51.1767 113.392C50.766 111.144 50.5287 109.287 50.4845 107.002C50.4663 105.859 50.4979 104.711 50.6316 103.557C50.7749 102.406 50.9811 101.236 51.5356 100.099C52.1204 98.9602 52.9798 98.1218 53.8158 97.3465C54.6614 96.5754 55.5221 95.8687 56.3313 95.1243C57.959 93.6513 59.3502 91.9837 60.2656 90.0356C61.1862 88.0854 61.6835 85.9337 61.6309 83.6733C62.2992 85.8445 62.0638 88.2921 61.2254 90.4499C60.8131 91.5438 60.2012 92.5558 59.5086 93.4879C58.8031 94.4136 57.9996 95.2496 57.1697 96.0288C56.3402 96.8101 55.4792 97.5351 54.6805 98.2823C53.8883 99.0271 53.141 99.8108 52.7129 100.683C52.2889 101.569 52.0921 102.642 51.9782 103.706C51.8669 104.78 51.849 105.875 51.8794 106.971C51.9487 109.162 52.2063 110.96 52.6271 113.113C53.0394 115.26 53.7093 116.94 54.5667 118.966C54.9883 119.991 55.4763 120.964 55.8955 122.101C55.996 122.391 56.0923 122.695 56.1446 123.064C56.19 123.423 56.2053 123.902 55.9097 124.395C55.8457 124.496 55.8813 124.442 55.8068 124.545C55.7436 124.626 55.6853 124.681 55.6302 124.73C55.5209 124.824 55.4289 124.882 55.3406 124.934C55.1657 125.035 55.0089 125.103 54.8558 125.165C54.5505 125.285 54.2601 125.371 53.9701 125.45C52.8158 125.749 51.681 125.91 50.5336 126.02C49.3874 126.126 48.2363 126.168 47.0743 126.12C45.9128 126.064 44.7407 125.939 43.5512 125.548C42.9611 125.343 42.347 125.074 41.7974 124.556C41.5269 124.297 41.2815 123.959 41.1377 123.567C41.0652 123.385 41.015 123.134 40.9988 122.99L40.9437 122.569C40.65 120.323 40.4646 118.062 40.3925 115.798C40.2499 111.27 40.5488 107.53 41.403 103.068C41.6156 101.953 41.8627 100.844 42.1466 99.7435C42.4333 98.6399 42.7456 97.5635 43.1263 96.4493C43.2482 96.1189 43.4608 95.7426 43.7816 95.4665C44.0987 95.1884 44.4479 95.0371 44.7524 94.9305C45.3693 94.7237 45.9124 94.6268 46.4555 94.4983L46.8577 94.4059L47.0614 94.3576C47.1096 94.345 47.1209 94.341 47.142 94.3333C47.1776 94.3183 47.1736 94.315 47.1849 94.3057C47.1942 94.2968 47.2141 94.2611 47.2291 94.1918C47.2611 94.0547 47.259 93.8253 47.2295 93.5893C47.2019 93.3513 47.1505 93.0959 47.0918 92.8384C46.5835 90.7524 45.7305 88.5618 45.5859 86.2134C45.5568 85.6239 45.5604 85.0405 45.6256 84.436C45.7082 83.8606 45.816 83.2833 45.9873 82.725C46.3243 81.61 46.8702 80.5457 47.6531 79.7162Z" fill="black"/>
<path d="M70.2647 58.0476C71.0265 63.1643 72.9179 68.5786 68.7957 70.1586C64.6735 71.7382 57.2087 65.0204 47.2329 68.819C38.3019 72.2199 37.8471 84.2827 43.1953 90.0177C50.5568 97.9117 79.4281 96.1858 85.5365 89.2806C91.5343 82.5012 89.073 73.3004 86.6924 65.6578C85.6244 62.2293 83.7111 56.4651 80.4503 53.7539C75.4335 49.5835 69.5186 53.0395 70.2647 58.0476Z" fill="#E6E6CF"/>
<path d="M65.1382 70.0893C68.4812 72.7502 59.4125 77.8162 50.6019 75.324C44.3177 73.5465 45.6429 69.6267 48.7927 68.3061C55.5896 66.3847 61.1338 69.1324 65.1382 70.0893Z" fill="#F6F6E5"/>
<path d="M59.9936 95.7884C59.9936 95.7884 59.9936 95.7884 59.9928 95.7884C55.2258 95.5816 46.648 94.6118 42.7506 90.4325C39.668 87.1265 38.3943 81.8898 39.5073 77.0913C40.489 72.8605 43.1556 69.7207 47.0166 68.2502C49.4357 67.329 51.8702 66.9357 54.4595 67.0476C57.5602 67.1818 60.2593 68.0122 62.6403 68.7444C64.3709 69.2768 65.8663 69.7365 67.1036 69.7901C67.6803 69.8148 68.1619 69.7491 68.5782 69.5902C71.3359 68.5336 70.9982 65.5442 70.1136 60.7474C69.9561 59.8927 69.7932 59.0089 69.6636 58.1372C69.3947 56.3277 69.8953 54.6102 71.0731 53.2998C72.2962 51.9399 74.0965 51.2081 76.0114 51.2908C77.6861 51.3634 79.3551 52.0531 80.8375 53.2856C84.3955 56.2437 86.4113 62.7138 87.2719 65.4765C89.926 73.9933 92.0118 82.8778 85.9913 89.6836C81.9898 94.2068 69.6102 96.2052 59.9936 95.7884ZM54.4072 68.2632C51.9865 68.1585 49.7099 68.5259 47.4483 69.3875C43.9782 70.7092 41.5781 73.5425 40.6907 77.3662C39.683 81.7134 40.8681 86.6306 43.6388 89.6025C46.2697 92.424 52.2502 94.236 60.045 94.5737C70.8451 95.0412 81.8419 92.5396 85.0812 88.8776C90.6825 82.5458 88.6615 74.0241 86.112 65.839C85.2829 63.1789 83.3425 56.95 80.0615 54.2222C78.7849 53.1611 77.3666 52.5676 75.9591 52.5067C74.4071 52.4398 72.9556 53.0257 71.9763 54.1143C71.0451 55.1498 70.6506 56.515 70.8657 57.9584C70.9925 58.8098 71.1528 59.6827 71.3088 60.5277C72.0973 64.8071 72.913 69.2322 69.0132 70.7266C68.4381 70.9468 67.7965 71.038 67.0513 71.0056C65.6585 70.9456 64.0943 70.4647 62.2839 69.9076C59.9721 69.1965 57.3513 68.3905 54.4072 68.2632Z" fill="black"/>
<path d="M41.5725 84.4197C40.3489 89.3463 43.2938 95.4353 40.9492 95.6388C38.6045 95.8428 37.7038 95.7065 37.0987 96.8896C33.2762 104.359 30.964 113.21 30.8166 123.301C30.7603 127.175 43.2837 127.652 44.4035 126.574C45.5238 125.497 43.4416 122.354 42.8888 116.222C42.4894 111.782 42.9609 104.606 45.2609 101.678C47.5614 98.7506 53.2222 97.5132 56.1213 91.9132C58.9426 86.4628 57.4283 80.2299 52.1599 78.1309C48.1167 76.52 43.088 78.3214 41.5725 84.4197Z" fill="#E6E6CF"/>
<path d="M53.998 84.2628C54.3937 91.0086 44.56 100.177 41.8885 93.9554C41.8662 91.7615 40.7302 87.8162 41.5742 84.4181C42.513 80.6446 44.7977 78.5148 47.3622 77.826C47.3667 77.8264 47.3707 77.8268 47.3707 77.8268C50.3427 77.4874 53.6691 78.6365 53.998 84.2628Z" fill="#F6F6E5"/>
<path d="M43.5422 120.402C44.3032 123.842 45.2319 125.774 44.4053 126.575C43.285 127.65 30.7609 127.174 30.8176 123.299C30.839 121.89 30.9042 120.492 31.0091 119.105C33.8961 121.085 40.3378 122.557 43.5422 120.402Z" fill="#807E75"/>
<path d="M43.4624 80.4241C42.8784 81.4551 42.46 82.5267 42.1895 83.6328C41.8987 84.7417 41.7869 85.84 41.7974 86.9765C41.8035 88.1073 41.9173 89.2482 42.0684 90.3976C42.2114 91.5535 42.4353 92.6916 42.4738 93.9546C42.4746 94.2753 42.4677 94.6049 42.3803 94.9747C42.3345 95.1592 42.2689 95.3562 42.1437 95.5557C42.0218 95.7531 41.8294 95.947 41.6026 96.0649C41.3843 96.1833 41.1247 96.2279 40.953 96.2413L40.5115 96.2794L39.6367 96.3483C39.0713 96.3954 38.4873 96.4481 38.1503 96.6208C37.9859 96.7059 37.8708 96.8146 37.7538 96.993C37.6517 97.1507 37.5148 97.4572 37.3861 97.7094C36.3727 99.7792 35.5145 101.938 34.7891 104.135C33.3448 108.535 32.4024 112.29 31.9159 116.9C31.794 118.053 31.7033 119.208 31.6405 120.366C31.6106 120.945 31.5843 121.524 31.5685 122.103L31.5482 122.972C31.547 123.108 31.5397 123.284 31.5433 123.386C31.547 123.437 31.5616 123.544 31.5855 123.617C31.6794 123.939 31.9893 124.277 32.3995 124.552C32.8094 124.83 33.3007 125.056 33.8106 125.244C34.8381 125.619 35.9511 125.856 37.0709 126.031C38.1932 126.202 39.3346 126.301 40.4714 126.331C41.0393 126.345 41.6075 126.341 42.166 126.31C42.7156 126.277 43.2931 126.221 43.733 126.095C43.8322 126.069 43.9331 126.019 43.9221 126.024C43.9157 126.027 43.9156 126.029 43.9047 126.037L43.8804 126.062L43.8994 126.042C43.9387 126.003 43.9185 126.018 43.9181 126.022C43.9274 126.009 43.9359 125.994 43.9452 125.975C43.9849 125.901 44.0108 125.702 43.9918 125.469C43.9557 124.995 43.8156 124.432 43.6743 123.88C43.381 122.763 43.0615 121.611 42.8116 120.445C42.2997 118.116 42.038 116.108 42.049 113.728C42.053 111.347 42.2191 109.377 42.6334 107.016C42.8472 105.836 43.1222 104.658 43.5532 103.503C43.7711 102.925 44.0291 102.353 44.3717 101.803C44.7176 101.244 45.1683 100.756 45.6333 100.34C46.5737 99.5047 47.5968 98.8791 48.5862 98.2523C49.5789 97.63 50.5534 97.0173 51.4635 96.3342C52.3755 95.6546 53.2123 94.8964 53.9551 94.0584C54.693 93.2167 55.3248 92.2874 55.8517 91.2896C56.8987 89.2985 57.471 87.0349 57.375 84.6768C58.0676 86.9522 57.7521 89.5125 56.7865 91.7372C56.5468 92.2825 56.2612 92.8441 55.9417 93.3574C55.6164 93.8747 55.2536 94.3686 54.8635 94.8385C54.0815 95.7787 53.1665 96.5936 52.2119 97.3247C51.2557 98.0557 50.2508 98.6983 49.2671 99.3267C48.2869 99.958 47.3121 100.576 46.5065 101.307C46.1047 101.673 45.758 102.06 45.4899 102.5C45.2169 102.947 44.993 103.448 44.8026 103.967C44.4235 105.01 44.1696 106.125 43.9768 107.251C43.5997 109.507 43.4564 111.419 43.473 113.721C43.4811 116.026 43.7257 117.89 44.2259 120.136C44.4697 121.261 44.7787 122.366 45.0833 123.514C45.2287 124.094 45.3887 124.67 45.4478 125.366C45.4676 125.712 45.4782 126.119 45.2749 126.584C45.2222 126.697 45.1566 126.809 45.0776 126.914C45.0306 126.974 44.9654 127.047 44.9521 127.058L44.933 127.079C44.8913 127.12 44.8909 127.118 44.8678 127.139C44.8293 127.174 44.7994 127.195 44.7645 127.221C44.5106 127.39 44.332 127.44 44.1526 127.5C43.4641 127.692 42.8675 127.734 42.2515 127.777C41.6415 127.813 41.0389 127.818 40.4374 127.804C39.2349 127.776 38.0405 127.675 36.8494 127.496C35.6591 127.315 34.4716 127.06 33.2999 126.627C32.7159 126.406 32.1326 126.144 31.5737 125.762C31.0298 125.384 30.4482 124.855 30.1942 124.041C30.1339 123.835 30.1003 123.651 30.0906 123.409C30.0873 123.218 30.0958 123.101 30.0979 122.944L30.1226 122.057C30.1424 121.465 30.1716 120.875 30.2056 120.284C30.2753 119.103 30.3737 117.924 30.5033 116.748C31.0233 112.046 32.0006 108.196 33.5356 103.712C34.3031 101.47 35.2006 99.2748 36.2694 97.1487C36.412 96.8835 36.5047 96.6484 36.7174 96.3118C36.9166 95.9984 37.2402 95.6887 37.6027 95.5164C37.9632 95.342 38.3103 95.2747 38.6274 95.2269C38.9466 95.1819 39.2479 95.1588 39.5444 95.1369L40.42 95.0773L40.8525 95.0448C40.972 95.0355 41.0052 95.0229 41.0477 95.0055C41.1016 94.98 41.1745 94.9021 41.2288 94.6901C41.281 94.4902 41.2968 94.2291 41.2968 93.9655C41.2786 92.8842 41.0716 91.7088 40.9368 90.542C40.7922 89.369 40.6828 88.1709 40.7286 86.9582C40.7647 85.7524 41.0141 84.5093 41.4746 83.398C41.9351 82.2798 42.5868 81.2277 43.4624 80.4241Z" fill="black"/>
<path d="M74.9984 89.3139C72.7036 99.5854 69.7333 122.696 72.9734 125.669C75.6805 128.153 86.7365 127.689 86.8782 125.128C87.0135 122.696 83.2331 118.1 82.1534 107.424C81.3482 99.4622 81.8071 92.1508 81.8836 89.3139C82.0181 84.3135 76.2819 83.5679 74.9984 89.3139Z" fill="#E6E6CF"/>
<path d="M85.1774 119.541C86.1494 122.208 86.9392 123.992 86.878 125.128C86.7362 127.69 75.6802 128.152 72.974 125.667C72.221 124.974 71.8002 123.145 71.6338 120.611C74.9954 122.46 82.8773 123.182 85.1774 119.541Z" fill="#807E75"/>
<path d="M81.0589 86.408C81.5899 87.0932 81.9171 88.0704 81.8847 89.3151C81.8159 91.9099 81.4234 98.2551 81.9742 105.415C80.99 109.612 75.9797 106.474 76.2923 95.1048C76.5876 84.393 79.7025 85.2363 81.0553 86.3999C81.0553 86.404 81.0589 86.408 81.0589 86.408Z" fill="#F6F6E5"/>
<path d="M75.6366 87.5186C75.4997 87.9966 75.396 88.4641 75.3288 88.9372L75.1538 90.3753C75.0939 90.8574 75.0319 91.3391 74.9578 91.8183C74.8922 92.2988 74.8185 92.7776 74.7403 93.256C74.4143 95.1661 74.108 97.0814 73.8391 99.002C73.2988 102.843 72.8614 106.699 72.5662 110.562C72.4192 112.492 72.3131 113.614 72.2624 115.543C72.215 117.469 72.2199 119.4 72.3944 121.288C72.4872 122.226 72.6192 123.168 72.8784 124.009C73.0064 124.421 73.183 124.822 73.3831 125.051C73.4394 125.116 73.4544 125.126 73.5674 125.223L73.6662 125.296L73.7849 125.377C73.9509 125.483 74.136 125.579 74.3316 125.666C75.1186 126.014 76.0315 126.217 76.9468 126.354C77.8666 126.488 78.8074 126.548 79.7478 126.554C80.6875 126.561 81.6295 126.515 82.5546 126.399C83.474 126.282 84.3986 126.102 85.1896 125.78C85.5747 125.627 85.9388 125.399 86.0676 125.219C86.1008 125.177 86.1102 125.145 86.1215 125.123C86.128 125.095 86.128 125.118 86.1308 124.974C86.13 124.831 86.1041 124.609 86.0628 124.408C85.887 123.567 85.5334 122.653 85.2021 121.75C84.5181 119.936 83.8336 118.081 83.2783 116.189C82.7133 114.299 82.2759 113.179 81.9446 111.235C81.6109 109.289 81.4092 107.324 81.2715 105.371C81.1322 103.416 81.0565 101.458 81.0309 99.5015C81.007 97.5448 81.0285 95.5893 81.0949 93.6375C81.133 92.662 81.2185 91.6886 81.3497 90.7204C81.4169 90.2387 81.504 89.7493 81.587 89.2774C81.6801 88.8079 81.7214 88.3388 81.7308 87.834C81.9766 88.2735 82.1091 88.7815 82.1783 89.2835C82.2375 89.7838 82.2853 90.2667 82.316 90.7568C82.374 91.7319 82.3889 92.703 82.3752 93.6712C82.3379 95.6084 82.327 97.544 82.3711 99.4772C82.4136 101.41 82.5064 103.341 82.6615 105.264C82.8158 107.191 83.0293 109.098 83.3711 110.985C83.7064 112.872 84.1629 113.924 84.7072 115.762C85.2499 117.603 85.9138 119.401 86.6043 121.224C86.9397 122.146 87.305 123.05 87.533 124.114C87.586 124.39 87.6278 124.652 87.6302 124.995C87.6318 125.094 87.6237 125.363 87.5536 125.568C87.4872 125.775 87.3868 125.964 87.2721 126.114C86.7991 126.709 86.2645 126.948 85.7635 127.169C84.7493 127.578 83.7465 127.76 82.7425 127.894C81.7385 128.019 80.7365 128.071 79.7333 128.061C78.7301 128.047 77.7281 127.975 76.7257 127.822C75.7249 127.661 74.7212 127.442 73.7294 126.998C73.4827 126.885 73.2357 126.755 72.9939 126.598L72.812 126.472L72.6213 126.324C72.5492 126.265 72.3782 126.116 72.2802 125.992C71.8537 125.471 71.6695 124.944 71.5051 124.434C71.2013 123.411 71.0778 122.412 70.9854 121.417C70.8178 119.428 70.8311 117.461 70.8935 115.501C70.9599 113.54 71.1016 112.4 71.2738 110.454C71.6241 106.562 72.1154 102.69 72.7112 98.8341C73.0117 96.9066 73.3312 94.9816 73.7063 93.0654C73.8035 92.587 73.9112 92.1106 74.0323 91.6367C74.1445 91.1611 74.2753 90.6891 74.415 90.2196C74.5544 89.7485 74.699 89.2863 74.8881 88.8135C75.0821 88.3501 75.3255 87.9041 75.6366 87.5186Z" fill="black"/>
<path d="M88.4984 29.5784C80.9542 28.8458 71.4997 33.2307 68.7873 43.2285C65.8177 54.1756 71.2072 64.6373 82.7703 66.7448C87.9581 67.6903 93.0633 67.5038 95.6635 66.8534C98.2645 66.2027 99.6836 68.4237 101.623 67.7211C102.645 67.3509 104.546 65.5783 104.247 64.7544C102.451 63.9306 100.805 61.6836 101.703 58.6136C103.349 61.534 106.824 61.7558 107.365 61.4306C108.361 60.9351 110.291 57.0919 109.749 56.2243C109.207 55.3566 106.065 55.7908 105.091 54.0551C105.74 47.7634 106.589 31.3352 88.4984 29.5784Z" fill="#F6F6E5"/>
<path d="M88.5007 29.5768C89.7571 29.6984 90.919 29.889 91.9964 30.1444C87.8009 29.9295 82.2761 31.8919 78.7804 40.1184C74.702 49.7153 78.1895 66.4034 94.3252 67.1129C91.5225 67.5346 87.1804 67.5467 82.7742 66.744C71.2107 64.6356 65.82 54.1752 68.7888 43.2281C71.5028 33.2299 80.9558 28.847 88.5007 29.5768Z" fill="#E6E6CF"/>
<path d="M105.941 57.2902L106.05 57.3141C106.104 57.3251 106.16 57.3388 106.213 57.353C106.307 57.3855 106.397 57.426 106.479 57.4755C106.644 57.5756 106.779 57.7123 106.871 57.8663C107.06 58.1777 107.051 58.5349 106.941 58.8041C106.919 58.5081 106.77 58.2539 106.569 58.1368C106.471 58.0767 106.362 58.0463 106.26 58.0427C106.208 58.0415 106.158 58.0467 106.111 58.0553C106.092 58.0634 106.077 58.0694 106.061 58.0747L105.953 58.1015C105.731 58.1574 105.505 58.022 105.448 57.799C105.392 57.5756 105.527 57.3498 105.75 57.2934C105.814 57.2768 105.881 57.2772 105.941 57.2902Z" fill="black"/>
<path d="M88.8369 43.4309C91.1657 39.8832 97.4434 40.39 99.7722 45.4581C96.7346 42.0118 91.7733 42.0118 88.8369 43.4309Z" fill="black"/>
<path d="M86.9268 51.5373C89.6448 55.2358 95.3425 56.3621 99.6891 53.1202C97.0678 59.0952 88.4589 59.3713 86.9268 51.5373Z" fill="black"/>
<path d="M107.661 61.9212C107.653 61.9257 107.647 61.9282 107.639 61.9323C107.632 61.936 107.628 61.9397 107.621 61.943L107.661 61.9212Z" fill="black"/>
<path d="M110.455 56.4878C110.431 56.3066 110.422 56.1164 110.232 55.8371C110.209 55.8083 110.208 55.8018 110.168 55.7548C110.122 55.7029 110.073 55.6526 110.022 55.6064C109.944 55.5435 109.863 55.4847 109.789 55.4438C109.484 55.2686 109.227 55.2042 108.976 55.1332C108.48 55.0063 108.026 54.9305 107.591 54.8275C106.803 54.6544 106.076 54.3799 105.719 53.8986C106.087 50.5866 106.151 47.1905 105.555 43.8477C105.25 42.1432 104.77 40.4549 104.054 38.853C103.341 37.2519 102.379 35.7424 101.174 34.4466C99.9736 33.1471 98.5419 32.0666 96.9907 31.2403C95.4395 30.4112 93.7757 29.8274 92.0848 29.4353C91.2391 29.2374 90.3849 29.089 89.5279 28.9767L88.8848 28.9005L88.5551 28.8665L88.2404 28.8397C87.7933 28.8052 87.3583 28.7886 86.9193 28.787C85.1656 28.7813 83.4188 29.0246 81.7347 29.4868C78.3719 30.4217 75.242 32.2312 72.8204 34.7604C71.6102 36.0213 70.5786 37.455 69.7711 39.0026C68.961 40.5477 68.3726 42.2088 67.9919 43.8951C67.2183 47.2615 67.1611 50.8351 68.0732 54.197C68.978 57.544 70.9922 60.6388 73.8066 62.5626C72.673 61.2996 71.6921 59.9467 70.9108 58.4944C70.1324 57.0412 69.5374 55.505 69.1445 53.9161C68.341 50.7394 68.409 47.3665 69.1801 44.1749C69.9221 40.9795 71.4839 37.9999 73.7698 35.6824C76.0407 33.3564 78.9725 31.7001 82.1089 30.8621C83.6759 30.4408 85.2968 30.2101 86.9144 30.217C87.3178 30.2182 87.7244 30.234 88.1185 30.264L88.4324 30.2908L88.7321 30.322L89.3437 30.3946C90.1578 30.5012 90.9662 30.6415 91.7612 30.8276C94.9381 31.5513 97.9502 33.0425 100.127 35.4185C101.216 36.5971 102.103 37.9602 102.779 39.432C103.455 40.9045 103.922 42.4805 104.226 44.0921C104.831 47.326 104.801 50.6729 104.488 53.9927L104.468 54.2011L104.562 54.3535L104.568 54.3621C104.866 54.9033 105.36 55.2942 105.846 55.5374C106.336 55.7856 106.832 55.9267 107.308 56.0414C107.785 56.1533 108.254 56.2303 108.665 56.335C108.864 56.3864 109.063 56.4501 109.163 56.5125C109.193 56.5267 109.205 56.5401 109.22 56.5482C109.223 56.5596 109.226 56.5738 109.225 56.5896C109.235 56.71 109.213 56.9083 109.169 57.1021C109.126 57.2991 109.067 57.5047 108.998 57.7094C108.86 58.1205 108.684 58.5317 108.488 58.9314C108.292 59.3308 108.073 59.7216 107.833 60.0849C107.713 60.2657 107.586 60.4405 107.456 60.5942C107.333 60.743 107.173 60.8897 107.112 60.9185L107.174 60.8889L107.086 60.9327C107.078 60.9364 107.063 60.9416 107.048 60.9445C107.01 60.9538 106.96 60.9623 106.907 60.9688C106.8 60.9809 106.68 60.9854 106.56 60.9834C106.315 60.9797 106.061 60.9518 105.81 60.9068C105.306 60.8176 104.812 60.6534 104.344 60.4397C103.41 60.0059 102.6 59.3121 102.045 58.4218L101.535 57.6048L101.328 58.5041L101.327 58.5061C101.134 59.1155 101.011 59.7593 101.008 60.417C101.002 61.073 101.112 61.7399 101.347 62.3664C101.765 63.4862 102.564 64.4597 103.607 65.0922C103.595 65.1189 103.582 65.1473 103.564 65.1765C103.485 65.3257 103.36 65.4927 103.226 65.6513C102.95 65.9716 102.613 66.27 102.268 66.5356C102.095 66.6681 101.916 66.7914 101.739 66.8923C101.656 66.9414 101.555 66.9925 101.494 67.0188C101.412 67.0545 101.329 67.0845 101.248 67.106C100.923 67.1948 100.586 67.1705 100.19 67.0541C99.3993 66.8352 98.4722 66.2757 97.3479 66.1269C96.7878 66.0478 96.2151 66.0717 95.655 66.2055C95.1779 66.3361 94.7518 66.4366 94.28 66.523C92.4226 66.8571 90.4947 66.971 88.5709 67.0111C86.6439 67.0318 84.7091 66.9382 82.7711 66.7468C84.6536 67.2487 86.5912 67.5678 88.5442 67.7332C89.5211 67.822 90.5036 67.8691 91.489 67.8642C92.4756 67.865 93.4643 67.8168 94.4577 67.6939C94.9466 67.6351 95.4735 67.5475 95.9385 67.4437C96.3277 67.3695 96.7412 67.3667 97.1402 67.4413C97.5436 67.5159 97.9477 67.6627 98.3774 67.8407C98.8072 68.0183 99.258 68.2384 99.7966 68.4026C100.327 68.5648 100.995 68.6362 101.611 68.4618C101.764 68.4205 101.911 68.3698 102.05 68.3045C102.209 68.2315 102.323 68.1671 102.448 68.0921C102.69 67.9461 102.908 67.7876 103.116 67.6205C103.534 67.286 103.904 66.9098 104.244 66.478C104.412 66.257 104.573 66.0271 104.708 65.7393C104.773 65.5945 104.834 65.4384 104.869 65.2438C104.902 65.0536 104.916 64.8112 104.818 64.5493V64.5485L104.735 64.3024L104.5 64.2038C103.535 63.7984 102.708 62.9843 102.272 61.9925C102.051 61.4963 101.926 60.9546 101.898 60.4008C101.884 60.1624 101.893 59.9219 101.915 59.6819C102.072 59.8891 102.239 60.0882 102.422 60.2739C102.853 60.7032 103.351 61.0653 103.888 61.3511C104.423 61.641 105.001 61.8437 105.598 61.9743C105.897 62.0384 106.202 62.0842 106.519 62.1004C106.678 62.1089 106.839 62.1097 107.012 62.0959C107.099 62.0886 107.189 62.0785 107.288 62.0582C107.385 62.0359 107.483 62.0169 107.638 61.935C107.979 61.7472 108.146 61.5494 108.329 61.3536C108.505 61.1529 108.656 60.9493 108.799 60.743C109.083 60.3302 109.329 59.9061 109.553 59.4695C109.777 59.0324 109.978 58.5844 110.148 58.1108C110.232 57.8732 110.309 57.6299 110.368 57.3701C110.426 57.1053 110.476 56.8357 110.455 56.4878ZM107.09 60.9299C107.095 60.9282 107.095 60.9278 107.09 60.9299ZM109.199 56.5211C109.199 56.5182 109.208 56.53 109.219 56.545C109.22 56.5458 109.22 56.5462 109.22 56.5474C109.21 56.5417 109.203 56.532 109.199 56.5211Z" fill="black"/>
<path d="M75.7785 33.1909C74.9272 29.4004 59.0831 25.4733 59.5837 39.8001C54.6458 41.5155 52.8617 49.054 54.9528 55.6311C57.2747 62.9344 63.0741 67.1401 58.5056 69.683C62.7635 69.6628 66.1866 65.4473 63.8432 58.6505C59.6032 46.3529 64.5002 38.5911 75.7785 33.1909Z" fill="#6B6B6B"/>
<path d="M65.0602 31.7666C64.0724 32.0407 61.1778 33.6799 61.567 37.603C62.3179 35.4537 63.5423 34.0858 66.0683 33.0782C67.5272 32.4964 66.8038 31.2841 65.0602 31.7666Z" fill="#858585"/>
<path d="M59.54 67.7397C59.7417 66.5234 58.8803 64.8359 57.6284 62.664C56.5579 60.8082 55.2262 58.4976 54.3741 55.8152C52.3733 49.5231 53.7678 41.5695 58.9661 39.3861C58.9212 35.9322 59.8158 33.272 61.6275 31.4723C63.3111 29.799 65.799 28.9451 68.6305 29.0663C72.3764 29.2269 75.9211 31.0542 76.3707 33.0571L76.4768 33.5303L76.0406 33.7391C64.2446 39.3874 60.5513 47.24 64.4172 58.4518C65.6549 62.0404 65.4447 65.2738 63.8267 67.5581C62.6039 69.2845 60.4258 70.1708 57.7353 69.8866C57.7353 69.8866 59.3249 69.042 59.54 67.7397ZM68.5783 30.2819C66.0891 30.1748 63.9239 30.9042 62.4828 32.3355C60.8458 33.9617 60.0746 36.4657 60.1904 39.7786L60.2063 40.227L59.7826 40.3738C55.3684 41.9072 53.4215 48.8095 55.5312 55.4458C56.3445 58.0034 57.5854 60.1559 58.6806 62.0558C60.0738 64.4739 61.1754 66.3843 60.7109 68.0637C60.6477 68.2924 60.5578 68.5105 60.4395 68.7177C61.3962 68.3515 62.226 67.7142 62.8356 66.8534C64.2207 64.8984 64.3746 62.0554 63.2681 58.8483C61.1378 52.6685 61.1969 47.504 63.4492 43.0583C65.4771 39.0557 69.2579 35.7266 74.9985 32.8929C74.248 31.7026 71.5798 30.4104 68.5783 30.2819Z" fill="black"/>
<path d="M75.7776 33.1909C73.324 32.8106 62.9893 34.267 59.5856 44.4672C55.981 55.2699 62.366 61.9362 61.5111 65.7543C60.6338 69.6729 54.5959 71.0372 52.8689 66.3973C52.5769 70.8487 56.7392 73.3142 63.5369 70.5081C67.7669 68.7623 71.3443 63.3358 69.3995 54.324C67.4546 45.3121 67.9823 37.7263 75.7776 33.1909Z" fill="#6B6B6B"/>
<path d="M62.8342 62.3145C60.0356 55.5411 59.6026 50.3174 61.0773 45.5226C62.0574 42.3366 64.3137 43.0753 63.3858 47.2522C62.7815 49.9735 61.6074 55.9839 62.8342 62.3145Z" fill="#858585"/>
<path d="M57.8898 72.299H57.889C56.047 72.2199 54.544 71.5874 53.5436 70.4704C52.5991 69.4162 52.1338 67.3801 52.7558 65.479C52.7558 65.479 53.8838 68.3341 56.7092 68.7164C58.4082 68.9459 60.4649 67.6517 60.9201 65.6205C61.1833 64.4447 60.6167 62.8347 59.8991 60.7965C58.5119 56.858 56.612 51.4639 59.0117 44.2738C62.3518 34.265 72.1357 32.4007 75.3 32.5361C75.5123 32.5451 75.7051 32.5629 75.8731 32.5889L77.5701 32.8524L76.0849 33.716C69.5404 37.5231 67.719 43.6482 69.9952 54.1946C72.0875 63.89 67.9499 69.3441 63.7709 71.0697C61.6126 71.96 59.6342 72.3736 57.8898 72.299ZM53.96 68.9621C54.0952 69.2139 54.258 69.4462 54.4472 69.6579C55.2248 70.5264 56.4326 71.019 57.9404 71.0838H57.9412C59.5082 71.1511 61.3133 70.768 63.3064 69.9453C67.0524 68.399 70.74 63.414 68.8065 54.4517C67.3201 47.5652 66.6218 39.1542 73.7253 33.8198C69.9449 34.2455 62.8398 36.638 60.1627 44.6594C57.8959 51.4538 59.7156 56.6204 61.0444 60.3923C61.8265 62.6145 62.445 64.3693 62.1056 65.8864C61.5641 68.3029 59.2219 70.0418 56.6569 69.932C55.6286 69.8882 54.7117 69.5513 53.96 68.9621Z" fill="black"/>
<path d="M75.7791 33.1909C73.3239 32.9825 67.256 36.3931 66.1754 44.4461C64.6862 55.5415 70.8598 59.1589 67.2556 64.1742C64.992 67.3241 58.3081 69.5731 58.8439 75.9877C59.2173 80.4504 65.0665 82.1395 61.9378 86.5706C64.5315 85.1601 64.6449 82.5271 63.0334 79.9221C61.8184 77.9565 62.1055 74.6939 66.3933 72.4571C71.784 69.6449 78.4449 65.5686 75.2113 55.893C71.6209 45.1467 72.3466 37.6087 75.7791 33.1909Z" fill="#6B6B6B"/>
<path d="M68.0949 50.7573C68.3472 53.0882 69.043 54.7594 69.9519 57.9373C70.8101 60.9376 70.4322 64.1621 67.2642 66.6422C64.2906 68.9699 62.0979 70.4566 61.6455 72.3063C62.6139 70.6281 66.3724 68.6731 68.7421 67.0047C71.7441 64.8915 72.8894 62.5488 72.4346 59.2408C71.7598 54.3373 70.8656 52.2967 70.4298 50.2602C69.5473 46.1327 67.7195 47.3029 68.0949 50.7573Z" fill="#858585"/>
<path d="M60.5715 80.8072C59.5566 79.509 58.4064 78.0372 58.2395 76.0384C57.8414 71.2744 61.1831 68.6277 63.8683 66.5003C65.0234 65.5848 66.1145 64.7204 66.7626 63.8191C68.4077 61.5295 67.8071 59.5972 66.8983 56.6727C65.9724 53.6927 64.8194 49.9841 65.5735 44.3646C66.6597 36.2723 72.6531 32.4457 75.7032 32.5767C75.7466 32.5787 75.7895 32.5816 75.8304 32.5848L76.9462 32.6797L76.2589 33.564C72.6595 38.1974 72.4967 45.851 75.7879 55.6996C79.3572 66.3799 71.1071 70.6841 66.6755 72.9959C64.7667 73.9917 63.5496 75.2786 63.1547 76.7179C62.8797 77.7202 63.0203 78.7439 63.5508 79.6014C64.5848 81.2735 64.9336 82.9042 64.5589 84.3159C64.2507 85.4792 62.7927 86.7085 61.1803 87.2822C62.8498 84.5803 62.2645 82.9764 60.5715 80.8072ZM74.5093 33.9629C71.9585 34.7085 67.6662 37.9091 66.778 44.5268C66.0599 49.8799 67.1684 53.4458 68.0586 56.3114C69.0027 59.349 69.7487 61.7477 67.7488 64.5298C67.0019 65.569 65.8461 66.4849 64.6221 67.4543C62.0365 69.503 59.1067 71.8242 59.4497 75.9378C59.5866 77.5742 60.5728 78.8372 61.5278 80.0588C62.4039 81.1806 63.2977 82.3244 63.4492 83.6891C63.6023 82.6816 63.2775 81.4722 62.5169 80.242C61.8174 79.11 61.6226 77.7084 61.9826 76.396C62.322 75.159 63.3139 73.3787 66.1129 71.9178C71.8041 68.9488 77.6254 65.0326 74.6356 56.0856C70.7406 44.4299 72.2132 37.7157 74.5093 33.9629Z" fill="black"/>
<path d="M79.958 30.8584C80.2091 28.5206 83.3958 19.9264 94.1274 21.6074C104.056 23.1627 103.774 34.0428 109 34.9575C113.265 35.7039 113.384 29.4154 110.045 28.5003C115.094 28.431 116.029 33.7363 114.778 36.6518C113.22 40.2842 107.252 43.2825 102.577 37.869C96.6133 30.9642 87.5649 27.3704 79.958 30.8584Z" fill="#6B6B6B"/>
<path d="M108.759 41.4223C107.057 41.5216 104.523 41.0537 102.117 38.2667C97.4304 32.8402 91.1604 29.8026 85.3444 30.1408C83.5482 30.2454 81.8216 30.6727 80.2105 31.4114L79.2393 31.857L79.3539 30.794C79.5669 28.8097 82.097 21.3025 90.5844 20.8086C91.7314 20.7418 92.955 20.8086 94.221 21.0069C100.277 21.9552 102.731 26.2355 104.702 29.6749C106.04 32.0087 107.195 34.0241 109.104 34.3586C109.36 34.4036 109.605 34.4194 109.831 34.4065C111.434 34.3136 111.716 32.8021 111.765 32.3411C111.933 30.7376 111.328 29.2889 109.01 28.2745C112.313 27.7487 114.076 29.1426 114.801 30.2275C116.221 32.3529 116.073 35.1719 115.336 36.8923C114.262 39.3967 111.557 41.2597 108.759 41.4223ZM85.2735 28.9261C91.4641 28.566 98.1043 31.7601 103.035 37.4712C104.684 39.3809 106.639 40.3268 108.688 40.208C111.316 40.0551 113.46 38.1824 114.219 36.4118C114.852 34.9388 114.907 32.5734 113.791 30.9034C113.409 30.3313 112.928 29.8947 112.351 29.5946C112.866 30.4668 113.071 31.525 112.972 32.4672C112.782 34.2852 111.576 35.5223 109.901 35.6196C109.582 35.6386 109.243 35.6167 108.894 35.5559C106.424 35.1237 105.075 32.7705 103.648 30.2794C101.71 26.898 99.5129 23.0662 94.0331 22.2074C92.8525 22.0226 91.7156 21.9605 90.6545 22.0221C84.1464 22.4008 81.5369 27.3185 80.7913 29.8557C82.2222 29.3287 83.7247 29.0161 85.2735 28.9261Z" fill="black"/>
<path d="M73.4475 35.8056C71.6181 32.9923 68.638 24.096 77.1335 20.6659C85.3589 17.3449 93.0898 22.9875 93.9055 30.0471C87.2544 27.2864 77.0906 30.4153 73.4475 35.8056Z" fill="#6B6B6B"/>
<path d="M74.5973 25.7976C74.8541 22.636 82.0483 18.7555 88.5617 23.7274C84.7659 22.8768 81.7389 23.1797 78.6523 25.2479C76.1902 26.8964 74.5199 26.7504 74.5973 25.7976Z" fill="#858585"/>
<path d="M73.4395 36.9052L72.9401 36.1373C71.5996 34.0756 70.0419 29.6226 71.2444 25.8013C72.0609 23.2068 73.966 21.2895 76.9076 20.102C78.3402 19.5234 79.8087 19.1865 81.2725 19.1013C87.8353 18.7206 93.7731 23.5993 94.5102 29.977L94.6293 31.0048L93.6739 30.6082C91.851 29.8513 89.6311 29.5245 87.2529 29.6628C81.7868 29.9806 76.3175 32.646 73.9518 36.1458L73.4395 36.9052ZM81.3433 20.316C80.012 20.3935 78.6723 20.7008 77.3624 21.2299C74.7736 22.2751 73.1054 23.9358 72.4039 26.167C71.4582 29.1718 72.4375 32.6407 73.5128 34.7057C76.3041 31.2926 81.7589 28.7651 87.1828 28.4497C89.3277 28.3244 91.3637 28.5563 93.1389 29.1203C92.0085 23.8689 86.9264 19.9913 81.3433 20.316Z" fill="black"/>
<path d="M75.875 33.3061C78.4213 31.2266 85.869 28.2534 91.7632 32.7364C97.4147 37.035 99.985 43.4678 105.966 43.4118C111.134 43.364 112.84 38.8157 111.811 36.4304C111.673 37.7562 110.543 39.5361 107.879 38.9556C104.519 38.2229 103.882 33.8729 98.4977 29.4665C93.1188 25.0634 82.646 22.4227 75.875 33.3061Z" fill="#6B6B6B"/>
<path d="M91.6436 27.7851C94.4604 28.3479 97.6357 30.5738 99.5842 32.762C102.376 35.8977 102.958 38.5854 105.963 39.9112C102.553 39.6201 101.827 37.9967 99.4408 35.1521C97.7053 33.0827 96.2275 31.0928 91.6367 29.743C87.6753 28.5778 87.2852 26.9142 91.6436 27.7851Z" fill="#858585"/>
<path d="M106.333 44.0098C106.215 44.0159 106.094 44.0192 105.972 44.0204C101.814 44.0593 99.1841 41.1555 96.4001 38.0818C94.8914 36.4162 93.3321 34.6947 91.3953 33.2217C89.2986 31.6267 86.8276 30.8864 84.05 31.0214C80.5248 31.1929 77.6023 32.5134 75.0146 34.1214C78.1652 27.3351 84.1165 25.2187 87.5121 25.0537C91.3852 24.8651 95.6362 26.3393 98.8816 28.9958C101.467 31.1118 102.983 33.2149 104.202 34.9039C105.507 36.7143 106.45 38.0218 108.008 38.3612C108.368 38.4394 108.708 38.4719 109.018 38.4569C110.726 38.3737 111.743 37.2653 111.658 35.5271C112.582 37.0017 112.747 39.4847 111.795 41.0132C110.664 42.8296 108.724 43.8931 106.333 44.0098ZM83.9909 29.8063C87.0613 29.6571 89.8004 30.4801 92.1305 32.2519C94.1567 33.793 95.7545 35.5579 97.3008 37.264C100.01 40.2546 102.349 42.8373 105.961 42.8032C106.067 42.8024 106.171 42.7996 106.274 42.7947C108.256 42.6986 109.851 41.8375 110.764 40.3706C111.1 39.8317 111.323 39.23 111.425 38.6377C110.872 39.2134 110.089 39.6229 109.078 39.672C108.661 39.6922 108.214 39.6509 107.75 39.5499C105.738 39.1112 104.626 37.5685 103.218 35.6163C102.041 33.9844 100.576 31.9531 98.1133 29.9372C95.0939 27.466 91.1536 26.094 87.572 26.2684C83.95 26.4451 80.7164 28.1602 78.0964 31.2679C79.765 30.5053 81.8338 29.9109 83.9909 29.8063Z" fill="black"/>
<path d="M80.4321 42.0519C81.4281 36.0124 77.6639 26.9637 70.4972 27.2236C67.808 34.9335 70.3089 41.4401 72.0063 43.9993C74.6672 48.0124 79.4945 47.7326 80.4321 42.0519Z" fill="#F6F6E5"/>
<path d="M80.8211 36.9381C80.6939 36.0789 80.4765 35.2336 80.1974 34.4069C79.918 33.5814 79.5777 32.7705 79.1504 32.0005C78.3084 30.4615 77.1545 29.0355 75.6467 28.0158C74.1522 26.9856 72.2713 26.4731 70.4759 26.6158L70.0348 26.6511L69.9238 27.0233C69.2811 28.7323 68.8628 30.5381 68.7133 32.3687C68.5622 34.1989 68.6675 36.0509 69.0272 37.8483C69.2017 38.7484 69.4504 39.6322 69.7534 40.4958C70.0592 41.3586 70.4164 42.2048 70.8676 43.0059C71.3114 43.8039 71.855 44.5815 72.5492 45.2108C73.2373 45.8327 74.0724 46.3205 74.9654 46.4757C74.1797 46.0366 73.5406 45.4419 73.021 44.7688C72.4949 44.1007 72.1041 43.3441 71.7424 42.5612C71.0263 40.9958 70.535 39.3233 70.256 37.6245C69.9773 35.9244 69.9134 34.1936 70.0551 32.4814C70.1272 31.6247 70.2511 30.7729 70.418 29.9279C70.5585 29.2277 70.7448 28.5385 70.9485 27.8516C71.5795 27.8897 72.2004 27.9903 72.7946 28.18C73.5224 28.4144 74.2125 28.757 74.8468 29.1945C76.1189 30.0702 77.1598 31.3003 77.9702 32.6728C78.3704 33.3632 78.7292 34.0849 79.0237 34.8366C79.3189 35.5883 79.5534 36.3648 79.7527 37.1517C80.1476 38.7313 80.3801 40.3491 80.4335 42.0532C81.0212 40.4375 81.0734 38.6482 80.8211 36.9381Z" fill="black"/>
<path d="M78.083 41.2917C78.716 37.3869 76.8048 31.54 72.3006 31.0851C71.2464 36.4698 72.4671 40.1986 73.5383 41.8516C75.2175 44.4445 77.4868 44.9651 78.083 41.2917Z" fill="#E6E6CF"/>
<path d="M73.5391 41.8516C74.0632 42.4979 74.6654 43.102 75.3653 43.4511C75.712 43.6218 76.0894 43.6936 76.4017 43.6117C76.714 43.5326 76.9614 43.2926 77.1397 42.9824C77.4985 42.3544 77.6374 41.5427 77.6925 40.7582C77.7532 39.9679 77.7156 39.1644 77.5953 38.3766C77.3766 36.7953 76.8201 35.2656 75.9785 33.954C75.1421 32.6395 73.9404 31.5708 72.3018 31.0851C73.1486 30.9946 74.0433 31.1937 74.8295 31.6113C75.6148 32.0326 76.2976 32.648 76.8245 33.3616C77.3563 34.0744 77.7541 34.8731 78.038 35.7002C78.3243 36.5269 78.5236 37.38 78.6208 38.2452C78.7111 39.1104 78.7155 39.9862 78.6029 40.8551C78.5406 41.299 78.4523 41.7118 78.3211 42.1444C78.1866 42.5673 78.0193 42.9962 77.7342 43.3818C77.4612 43.7621 77.0295 44.1169 76.509 44.1854C75.9914 44.2612 75.5224 44.0605 75.1555 43.8193C74.4107 43.3149 73.9255 42.5904 73.5391 41.8516Z" fill="black"/>
</svg>
