<svg width="132" height="137" viewBox="0 0 132 137" fill="none" xmlns="http://www.w3.org/2000/svg">
<path d="M14.3583 71.4696C15.0032 69.6038 16.9877 67.7839 18.5655 69.8901C20.1433 71.9963 20.9322 80.9464 29.0838 80.4201C37.2363 79.8937 36.6592 72.3497 40.6546 70.8117C44.0729 69.4956 46.4395 72.1278 48.1491 76.208C49.9896 71.6015 50.2531 62.388 44.3363 58.7022C39.4996 55.6894 31.7771 57.2732 29.3797 64.6912C27.5723 70.2854 24.5591 72.4287 21.9838 68.7055C18.7296 64.0002 14.2265 65.6784 14.3583 71.4696Z" fill="#6B6B6B"/>
<path d="M44.649 58.1995C43.0428 57.1989 41.1492 56.6698 39.1738 56.6698C35.3918 56.6698 30.6848 58.7294 28.8171 64.5088C27.7276 67.8782 26.1538 69.9714 24.7085 69.9714C23.7749 69.9714 22.9757 69.0995 22.4704 68.3682C21.1399 66.4444 19.5137 65.385 17.8905 65.385C16.9253 65.385 16.0413 65.7668 15.3364 66.4886C13.8927 67.967 13.8651 70.9104 14.1279 72.3584C15.5739 69.8573 16.2642 69.6598 16.9915 69.539C17.3659 69.477 17.741 69.7767 18.0925 70.245C18.4124 70.6719 18.7303 71.5212 19.0995 72.5053C20.295 75.695 22.2965 81.0345 28.4061 81.0345C28.6388 81.0345 28.8766 81.0266 29.1224 81.0108C34.4419 80.6672 36.3132 77.4289 37.818 74.8267C38.7308 73.2472 39.5193 71.883 40.8671 71.3641C41.3878 71.1635 41.8934 71.0616 42.3687 71.0616C44.3489 71.0616 46.1097 72.8697 47.6034 76.4362L48.162 77.7697L48.6981 76.4271C50.451 72.0429 51.062 62.194 44.649 58.1995ZM42.3683 69.8778C41.7467 69.8778 41.0986 70.0061 40.4415 70.2589C38.7043 70.9282 37.7758 72.5341 36.7928 74.234C35.2888 76.8358 33.7335 79.5261 29.0455 79.8289C23.2613 80.2123 21.4831 75.4936 20.2066 72.0895C19.7897 70.9767 19.46 70.0973 19.0387 69.5343C18.3074 68.5589 17.5217 68.3548 16.9912 68.3548C16.3309 68.3548 15.7269 68.6486 15.2169 69.0975C15.4248 68.3651 15.751 67.7593 16.1829 67.3171C16.6598 66.8282 17.2507 66.5696 17.8901 66.5696C19.096 66.5696 20.4103 67.4707 21.4974 69.0423C22.0251 69.8059 22.5876 70.3572 23.1761 70.7078C24.277 71.7467 25.7278 72.3299 27.2007 72.2987C28.6396 72.2616 30.7621 71.6243 32.6969 68.797C36.123 63.7889 38.5951 62.3156 42.1404 63.1662C45.0364 63.8612 47.7336 67.796 47.8168 74.1274C46.2813 71.2741 44.4885 69.8778 42.3683 69.8778ZM48.5111 72.3927C47.977 66.6644 45.2391 63.0975 42.3238 62.3982C37.8862 61.3348 35.1003 63.8864 32.0457 68.3504C30.2991 70.9029 28.4357 71.477 27.1806 71.5094C26.5057 71.5264 25.8291 71.3783 25.1984 71.1058C27.048 70.769 28.7564 68.5431 29.9425 64.8736C31.6149 59.6981 35.8074 57.8544 39.1733 57.8544C40.9274 57.8544 42.6046 58.3219 44.0231 59.2053C48.4634 61.9709 49.1544 67.922 48.5111 72.3927Z" fill="black"/>
<path d="M45.3537 66.9285C44.2374 64.8519 41.8099 63.0687 38.4776 64.3567C33.5092 66.2782 33.8839 73.4214 26.7168 73.0494C28.0319 73.7732 31.4056 73.9765 33.6181 71.3554C36.4893 67.954 38.4993 65.3656 41.6979 66.6841C43.0051 67.2227 44.2043 68.9558 45.2559 69.0347C46.0763 69.0963 46.1647 68.4365 45.3537 66.9285Z" fill="#858585"/>
<path d="M82.6771 84.8722C83.0507 81.9829 85.6895 82.4114 91.7856 81.9032C98.6909 81.3279 109.439 79.0123 108.781 85.9427C108.049 93.6308 106.759 100.459 105.628 107.613C104.989 111.652 92.0145 103.708 93.3619 99.9069C94.651 96.2725 96.6078 93.0022 98.3418 89.3852C94.4589 89.3623 91.7518 89.382 88.2996 88.8454C84.8481 88.308 82.3505 87.3931 82.6771 84.8722Z" fill="#CCCAB8"/>
<path d="M94.8511 96.3459C96.7046 99.6715 102.398 104.286 106.356 103.152C106.111 104.632 105.868 106.115 105.63 107.614C104.993 111.652 92.0166 103.71 93.3625 99.9065C93.7936 98.6883 94.3028 97.5084 94.8511 96.3459Z" fill="#807E75"/>
<path d="M106.566 81.1288C105.731 80.7995 104.88 80.6407 104.04 80.5456C102.359 80.3659 100.708 80.4374 99.0759 80.5578C97.4449 80.6834 95.8315 80.8789 94.2261 81.0621C92.6215 81.2575 91.0319 81.3756 89.4233 81.5541C88.6198 81.6477 87.8132 81.7507 87.0065 81.8996C86.2046 82.0477 85.381 82.2352 84.6406 82.6068C85.4579 82.5338 86.2563 82.5669 87.063 82.5717C87.8688 82.5871 88.6778 82.5981 89.4888 82.5867C91.108 82.5705 92.7446 82.4153 94.3555 82.2431C95.9665 82.0749 97.5687 81.8972 99.1642 81.791C100.757 81.6879 102.356 81.639 103.894 81.8202C104.658 81.9134 105.409 82.0678 106.079 82.3415C106.748 82.6119 107.319 83.0135 107.667 83.5525C108.02 84.0888 108.154 84.7683 108.129 85.4858C108.119 85.8278 108.062 86.2455 108.024 86.6463L107.892 87.8475C107.531 91.0507 107.049 94.2424 106.544 97.435L104.987 107.025L104.94 107.326L104.916 107.476C104.916 107.476 104.897 107.588 104.896 107.582C104.875 107.666 104.834 107.751 104.791 107.796C104.715 107.892 104.504 107.985 104.197 108.001C103.579 108.032 102.824 107.836 102.119 107.58C100.69 107.05 99.309 106.261 98.0334 105.362C96.7715 104.453 95.5495 103.425 94.6758 102.223C94.2514 101.634 93.9217 100.956 93.9485 100.43C93.9516 100.365 93.9591 100.303 93.9717 100.244C93.9863 100.18 93.997 100.147 94.038 100.033L94.2408 99.4737C94.3804 99.1021 94.5268 98.7333 94.679 98.3657C95.901 95.4259 97.4984 92.6049 98.8739 89.641L98.8747 89.6406L99.3039 88.8363L98.3446 88.792C96.0517 88.6862 93.7753 88.7301 91.5195 88.6357C90.3894 88.5922 89.2652 88.5002 88.1296 88.4106C87.0011 88.3143 85.8784 88.2065 84.7499 87.9474C85.7353 88.5804 86.878 88.9251 88.0034 89.2055C89.1283 89.4823 90.2793 89.6588 91.4322 89.7867C93.4191 90.0023 95.402 90.0371 97.3699 89.998C96.0587 92.5753 94.6119 95.1179 93.4455 97.846C93.2838 98.2247 93.1272 98.6065 92.9777 98.9911L92.7595 99.5712C92.7304 99.6482 92.6732 99.8054 92.6432 99.9404C92.6117 100.079 92.5924 100.218 92.5841 100.355C92.5549 100.909 92.6909 101.405 92.87 101.841C93.0534 102.277 93.2854 102.667 93.5371 103.028C94.5634 104.459 95.8454 105.559 97.2027 106.535C98.5694 107.499 100.02 108.337 101.626 108.937C102.437 109.22 103.273 109.483 104.28 109.446C104.535 109.429 104.802 109.39 105.081 109.288C105.358 109.187 105.649 109.012 105.873 108.756C106.1 108.499 106.236 108.205 106.308 107.895C106.331 107.791 106.327 107.803 106.344 107.704L106.368 107.554L106.416 107.255L107.984 97.6636C108.489 94.4576 108.923 91.2343 109.262 87.9976L109.383 86.7822C109.416 86.377 109.47 85.99 109.483 85.5233C109.507 84.6305 109.328 83.641 108.776 82.82C108.231 81.9928 107.392 81.4518 106.566 81.1288Z" fill="black"/>
<path d="M49.195 81.6923C46.4493 85.6035 46.9502 91.9471 44.8312 91.3315C42.7126 90.7155 41.9723 90.291 41.041 91.1249C35.1582 96.3886 29.8485 104.088 26.2847 112.898C24.9171 116.279 35.6982 120.94 37.0441 120.374C38.3891 119.807 37.6396 116.342 39.2435 110.772C40.4051 106.738 43.5371 99.8855 46.5439 98.0948C49.5508 96.304 54.9181 97.1353 59.358 93.2C63.6784 89.3709 64.4775 83.3859 60.5867 79.7582C57.6035 76.9736 52.5955 76.852 49.195 81.6923Z" fill="#CCCAB8"/>
<path d="M38.43 114.413C37.877 117.841 38.0655 119.943 37.0455 120.372C35.6988 120.942 24.9178 116.28 26.2845 112.897C26.7484 111.749 27.2423 110.624 27.7646 109.517C30.0413 112.266 35.0271 115.373 38.43 114.413Z" fill="#807E75"/>
<path d="M52.6185 78.5996C51.7373 79.2705 50.9945 80.0366 50.3681 80.8828C50.0514 81.3025 49.7611 81.7385 49.5008 82.1961C49.2463 82.6273 49.0191 83.1019 48.8282 83.5813C48.4337 84.5424 48.1265 85.5525 47.8575 86.5886C47.5857 87.6275 47.3775 88.6858 47.0639 89.7847C46.9814 90.0611 46.8919 90.3399 46.7727 90.6274C46.6501 90.9144 46.5109 91.2145 46.2418 91.5229C46.1069 91.6746 45.9251 91.8309 45.6865 91.936C45.4506 92.0426 45.1709 92.0801 44.9377 92.0513C44.8245 92.0394 44.7026 92.0106 44.6178 91.9865L44.4215 91.9293L44.0238 91.812C43.5008 91.658 42.973 91.4827 42.5238 91.399C42.2997 91.3575 42.114 91.3508 41.9806 91.3808C41.8481 91.408 41.7234 91.4752 41.5691 91.6031C40.7996 92.2921 40.0174 93.0527 39.2762 93.8235C38.5319 94.5974 37.8133 95.3966 37.1198 96.2179C34.3508 99.5084 31.9572 103.118 29.9282 106.919C28.9168 108.821 28.0005 110.775 27.1793 112.768L27.0259 113.141C26.9766 113.263 26.9703 113.288 26.9557 113.368C26.9316 113.506 26.9434 113.658 26.9935 113.83C27.0937 114.175 27.3494 114.565 27.6661 114.921C28.3063 115.642 29.1551 116.268 30.0296 116.833C30.9108 117.398 31.8456 117.903 32.803 118.352C33.7599 118.796 34.7512 119.199 35.7322 119.475C37.0165 119.719 36.7747 119.954 37.108 118.776C37.2851 117.789 37.3651 116.667 37.5162 115.576C37.7998 113.377 38.2851 111.176 39.0302 109.07C39.7761 106.974 40.675 104.949 41.7483 103C42.2883 102.027 42.8733 101.073 43.5466 100.164C44.227 99.2632 44.9685 98.3775 45.9893 97.6865C47.0362 97.0104 48.1687 96.7226 49.2514 96.4754C50.3393 96.2365 51.4094 96.0588 52.4531 95.8246C54.5417 95.3741 56.5262 94.6448 58.2453 93.4471C59.9694 92.2503 61.4348 90.6763 62.4887 88.7438C61.9981 90.901 60.6104 92.8517 58.8539 94.2641C57.9754 94.9859 56.9664 95.5415 55.9294 95.9909C54.8841 96.4284 53.801 96.7427 52.7214 96.9958C51.6422 97.2513 50.5634 97.4436 49.5256 97.6853C48.4965 97.9277 47.4847 98.2247 46.699 98.7526C45.9109 99.2932 45.2238 100.103 44.6104 100.946C43.9947 101.796 43.4471 102.712 42.941 103.651C41.934 105.534 41.0812 107.519 40.3894 109.54C39.6936 111.553 39.2463 113.639 38.9856 115.765C38.8432 116.836 38.782 117.894 38.5832 119.057C38.5268 119.351 38.4605 119.655 38.3252 119.991C38.1896 120.316 37.9694 120.728 37.4807 121C37.3773 121.054 37.4337 121.026 37.3205 121.077C37.2282 121.114 37.1525 121.132 37.0823 121.146C36.9442 121.173 36.839 121.176 36.7388 121.178C36.5416 121.178 36.3759 121.159 36.2173 121.137C35.9014 121.09 35.615 121.021 35.3314 120.946C34.2127 120.637 33.1765 120.22 32.1549 119.754C31.1364 119.285 30.1448 118.76 29.1875 118.154C28.2345 117.541 27.3067 116.864 26.4933 115.956C26.0942 115.495 25.7076 114.97 25.495 114.265C25.3932 113.914 25.3503 113.51 25.4197 113.109C25.4465 112.92 25.5266 112.684 25.583 112.554L25.7408 112.172C26.5845 110.134 27.5265 108.136 28.5658 106.191C30.6458 102.301 33.1091 98.6069 35.998 95.2584C36.7191 94.4209 37.4665 93.6051 38.2408 92.815C39.0182 92.0225 39.8056 91.2675 40.6675 90.5125C40.931 90.2929 41.2939 90.0789 41.6982 90.0019C42.1009 89.9221 42.4693 89.9644 42.7782 90.0228C43.3983 90.1488 43.9044 90.3312 44.4254 90.4876L44.8092 90.6057L45.0049 90.6641C45.051 90.6763 45.0632 90.6791 45.0849 90.6827C45.122 90.6878 45.1204 90.6831 45.1342 90.6799C45.1456 90.6771 45.1804 90.6566 45.2265 90.6053C45.3204 90.505 45.4308 90.3107 45.52 90.0975C45.6115 89.883 45.6927 89.6422 45.768 89.397C46.3534 87.3894 46.6978 85.126 47.7163 83.0735C47.9782 82.5622 48.2657 82.0713 48.6136 81.5931C48.9635 81.1481 49.3347 80.7138 49.7501 80.326C50.5768 79.5501 51.5547 78.9187 52.6185 78.5996Z" fill="black"/>
<path d="M74.443 58.4728C74.9862 63.4817 76.6149 68.8243 72.5418 70.2012C68.4695 71.5777 61.4673 64.7493 51.6112 68.0567C42.7878 71.0178 41.8754 82.7391 46.8569 88.5287C53.7128 96.4976 81.8756 95.944 88.0889 89.4626C94.189 83.0993 92.1522 74.0496 90.1338 66.5191C89.2269 63.141 87.59 57.4572 84.5212 54.6915C79.802 50.4376 73.9121 53.5705 74.443 58.4728Z" fill="#E6E6CF"/>
<path d="M68.9851 69.9912C72.1351 72.7111 63.1122 77.2876 54.6355 74.5188C48.5902 72.544 50.0315 68.7813 53.148 67.6188C59.8367 66.0141 65.1254 68.9041 68.9851 69.9912Z" fill="#F6F6E5"/>
<path d="M62.9802 94.7997C62.9794 94.7997 62.9802 94.7997 62.9794 94.7997C58.3486 94.4131 50.038 93.1341 46.4086 88.9153C43.5367 85.5779 42.5012 80.4323 43.7713 75.806C44.8908 71.7274 47.6081 68.7758 51.4221 67.4952C53.8128 66.6932 56.1969 66.4054 58.7123 66.6158C61.7239 66.8674 64.3178 67.7803 66.6075 68.5858C68.2709 69.171 69.7075 69.6773 70.9094 69.7776C71.4695 69.8241 71.9416 69.7791 72.3523 69.6401C75.0771 68.7193 74.8638 65.7977 74.1912 61.0952C74.0709 60.2568 73.9471 59.3909 73.8544 58.5368C73.6627 56.7658 74.2165 55.1137 75.4144 53.8848C76.6569 52.6094 78.4367 51.9673 80.2973 52.1221C81.9252 52.258 83.5223 52.9944 84.9175 54.2517C88.2648 57.2693 89.9743 63.644 90.704 66.3663C92.9543 74.758 94.6394 83.4855 88.5152 89.8733C84.4461 94.1185 72.3223 95.5803 62.9802 94.7997ZM58.6145 67.7957C56.2624 67.5994 54.0337 67.8683 51.7996 68.6186C48.3706 69.7693 45.9243 72.433 44.9129 76.1192C43.7627 80.3103 44.7239 85.1415 47.3048 88.1418C49.7555 90.99 55.5042 92.9864 63.0772 93.619C73.5688 94.4952 84.3683 92.4901 87.6616 89.0527C93.3602 83.1091 91.7248 74.7379 89.5621 66.6727C88.8588 64.0519 87.2131 57.9145 84.1262 55.1318C82.9251 54.0495 81.567 53.4165 80.2002 53.302C78.6926 53.1768 77.2572 53.6902 76.2628 54.7109C75.3154 55.6823 74.8792 56.9956 75.0318 58.4085C75.1222 59.2416 75.2444 60.0977 75.3623 60.9261C75.9631 65.1212 76.5851 69.4593 72.7322 70.7616C72.1646 70.9535 71.5365 71.0174 70.8115 70.9566C69.4586 70.8437 67.9566 70.315 66.2163 69.7021C63.9935 68.9211 61.475 68.0346 58.6145 67.7957Z" fill="black"/>
<path d="M46.6285 85.9328C46.214 90.8596 49.9884 96.2579 47.7649 96.817C45.5414 97.3761 44.6547 97.3852 44.2559 98.6168C41.7365 106.391 41.0072 116.039 42.4268 125.765C42.9716 129.499 55.0878 128.015 55.9974 126.806C56.907 125.597 54.4189 122.897 52.9397 117.088C51.868 112.88 51.0854 105.127 52.845 101.955C54.6047 98.7846 59.8563 96.7167 61.7764 90.8829C63.6461 85.205 61.2263 79.4463 55.8357 78.2447C51.6996 77.323 47.1425 79.8344 46.6285 85.9328Z" fill="#E6E6CF"/>
<path d="M58.5515 83.8558C59.9759 90.2803 51.9391 100.621 48.4076 95.0527C48.0471 92.9469 46.3446 89.3295 46.6309 85.9308C46.95 82.157 48.8158 79.7547 51.1754 78.6956C51.1793 78.6948 51.1836 78.6948 51.1836 78.6948C53.9894 77.9082 57.365 78.4974 58.5515 83.8558Z" fill="#F6F6E5"/>
<path d="M54.2151 121.005C55.4793 124.194 56.6712 125.908 55.9999 126.807C55.0883 128.014 42.9725 129.498 42.4277 125.763C42.2305 124.405 42.0771 123.05 41.9639 121.7C45.0465 123.157 51.4677 123.574 54.2151 121.005Z" fill="#807E75"/>
<path d="M47.828 81.7973C47.4264 82.88 47.1894 83.975 47.1006 85.081C46.993 86.1918 47.056 87.2655 47.2414 88.3569C47.4217 89.4428 47.7077 90.522 48.0303 91.6043C48.3471 92.6933 48.7384 93.7524 48.9711 94.9619C49.0212 95.2699 49.0657 95.5877 49.0381 95.9569C49.0227 96.141 48.9904 96.3412 48.9009 96.552C48.8145 96.7609 48.659 96.9765 48.4594 97.1254C48.2677 97.273 48.0248 97.3556 47.8615 97.3951L47.443 97.5001L46.6131 97.7027C46.0762 97.8357 45.5228 97.9771 45.2254 98.1947C45.0798 98.3021 44.9868 98.4241 44.902 98.6144C44.8286 98.7818 44.7442 99.0977 44.6594 99.3611C44.0046 101.508 43.5139 103.717 43.1554 105.942C42.4474 110.396 42.2477 114.932 42.4934 119.441C42.5549 120.568 42.6461 121.693 42.7648 122.816C42.8255 123.377 42.8903 123.938 42.9644 124.497L43.0792 125.336C43.0993 125.466 43.1203 125.637 43.1392 125.735C43.1499 125.783 43.1806 125.883 43.2153 125.951C43.3549 126.245 43.7052 126.523 44.143 126.724C44.5797 126.928 45.0869 127.068 45.6068 127.17C46.6521 127.37 47.7594 127.426 48.8634 127.421C49.9691 127.412 51.0814 127.331 52.1792 127.182C52.7278 127.108 53.273 127.016 53.8055 126.9C54.3285 126.783 54.8748 126.64 55.2783 126.45C55.369 126.409 55.4585 126.346 55.4487 126.352C55.4431 126.356 55.444 126.358 55.4341 126.367L55.4148 126.395L55.4302 126.373C55.4617 126.33 55.4447 126.347 55.4447 126.35C55.4518 126.337 55.4578 126.321 55.4633 126.302C55.4901 126.224 55.485 126.029 55.4302 125.807C55.3225 125.357 55.0996 124.839 54.8795 124.328C54.4251 123.3 53.9396 122.242 53.5191 121.16C52.6663 119 52.0415 116.72 51.6833 114.429C51.3188 112.14 51.1117 109.83 51.1449 107.495C51.1689 106.328 51.2498 105.153 51.4853 103.976C51.6056 103.386 51.7657 102.796 52.0091 102.214C52.2556 101.623 52.613 101.084 52.9968 100.611C53.7711 99.6624 54.6586 98.9027 55.5122 98.1457C56.3713 97.3943 57.2135 96.6539 57.9822 95.8551C58.7542 95.0606 59.4414 94.2017 60.0263 93.2805C60.6066 92.3565 61.0696 91.365 61.4214 90.3245C62.12 88.2475 62.3203 85.9821 61.8628 83.7298C62.8812 85.8108 62.9736 88.3213 62.3891 90.61C62.2435 91.1719 62.0561 91.7559 61.8281 92.2989C61.5954 92.8473 61.3228 93.378 61.0199 93.8902C60.4136 94.9157 59.6602 95.8412 58.8551 96.6914C58.0485 97.5427 57.1819 98.3167 56.3327 99.0737C55.4882 99.8326 54.6464 100.578 53.9845 101.405C53.6547 101.82 53.3814 102.245 53.1924 102.711C52.9984 103.181 52.8604 103.699 52.7578 104.228C52.5543 105.29 52.4829 106.401 52.471 107.512C52.458 109.741 52.6781 111.991 53.0505 114.202C53.415 116.417 54.0011 118.562 54.8294 120.643C55.2377 121.687 55.7071 122.701 56.1769 123.758C56.4072 124.294 56.6498 124.823 56.8139 125.482C56.8865 125.813 56.9594 126.202 56.8356 126.681C56.804 126.797 56.7571 126.916 56.6975 127.028C56.6612 127.093 56.6095 127.173 56.5989 127.187L56.5836 127.209C56.5496 127.256 56.5496 127.253 56.5311 127.278C56.4987 127.317 56.4734 127.342 56.4431 127.372C56.2257 127.575 56.0609 127.65 55.8984 127.735C55.2657 128.026 54.6988 128.159 54.1135 128.296C53.5324 128.425 52.9534 128.523 52.3732 128.604C51.2131 128.763 50.0487 128.851 48.8764 128.864C47.7029 128.874 46.5211 128.812 45.3287 128.578C44.7331 128.457 44.1316 128.295 43.5352 128.014C42.9534 127.735 42.3116 127.316 41.942 126.574C41.8517 126.384 41.7909 126.212 41.7448 125.981C41.7124 125.799 41.7026 125.685 41.6793 125.533L41.5661 124.677C41.4936 124.104 41.4304 123.532 41.372 122.959C41.2556 121.812 41.1685 120.664 41.1109 119.512C40.8845 114.911 41.103 110.278 41.8852 105.729C42.2757 103.454 42.7995 101.204 43.4985 98.9935C43.5948 98.7163 43.648 98.4758 43.7998 98.1193C43.943 97.7868 44.2058 97.4389 44.5281 97.217C44.848 96.9939 45.1714 96.875 45.4688 96.7802C45.7694 96.6874 46.0549 96.6183 46.337 96.5516L47.1688 96.3585L47.5802 96.2602C47.6934 96.2326 47.7235 96.2156 47.7621 96.1927C47.8099 96.1595 47.8686 96.073 47.8875 95.8602C47.906 95.6596 47.8812 95.4069 47.8406 95.1534C47.6564 94.1161 47.275 93.0191 46.9653 91.917C46.6446 90.8118 46.3543 89.6765 46.2111 88.5038C46.0585 87.3385 46.1062 86.1049 46.3776 84.9642C46.647 83.819 47.1109 82.7063 47.828 81.7973Z" fill="black"/>
<path d="M91.6137 29.9328C84.2663 29.2193 75.0583 33.4898 72.4167 43.2269C69.5246 53.8884 74.7735 64.0772 86.035 66.1297C91.0875 67.0506 96.0596 66.8689 98.5927 66.2356C101.125 65.6022 102.507 67.7649 104.396 67.0806C105.391 66.7201 107.243 64.9937 106.952 64.1913C105.203 63.389 103.601 61.2006 104.474 58.2106C106.077 61.0549 109.461 61.2709 109.989 60.9542C110.959 60.4717 112.838 56.7287 112.31 55.8837C111.783 55.0386 108.723 55.4615 107.773 53.7711C108.406 47.6435 109.232 31.6438 91.6137 29.9328Z" fill="#F6F6E5"/>
<path d="M91.6121 29.9312C92.8348 30.0497 93.9665 30.2353 95.0157 30.484C90.9296 30.2747 85.549 32.1859 82.1453 40.1978C78.1732 49.5444 81.569 65.7972 97.2838 66.4883C94.5542 66.8989 90.3262 66.9108 86.0342 66.1289C74.7731 64.0756 69.523 53.888 72.4143 43.2265C75.0571 33.489 84.2631 29.2204 91.6121 29.9312Z" fill="#E6E6CF"/>
<path d="M108.601 56.9217L108.706 56.945C108.759 56.9557 108.814 56.9691 108.866 56.983C108.958 57.0145 109.044 57.054 109.125 57.1022C109.285 57.1997 109.416 57.3328 109.506 57.4829C109.69 57.7861 109.681 58.134 109.575 58.3966C109.553 58.1083 109.408 57.8608 109.212 57.7466C109.116 57.6882 109.011 57.6586 108.911 57.655C108.861 57.6538 108.812 57.659 108.766 57.6673C108.748 57.6752 108.734 57.6811 108.717 57.6862L108.613 57.7123C108.395 57.7668 108.175 57.6349 108.121 57.4177C108.066 57.2001 108.198 56.9802 108.415 56.9253C108.477 56.9087 108.542 56.9091 108.601 56.9217Z" fill="black"/>
<path d="M102.627 52.0506C102.627 54.2323 101.844 56.1885 100.606 57.514C98.6108 56.6516 95.0608 55.8619 92.0354 56.3211C91.325 55.1247 90.9053 53.6479 90.9053 52.051C90.9053 48.0573 93.5291 44.8194 96.7656 44.8194C100.003 44.8194 102.627 48.0569 102.627 52.0506Z" fill="#F6F6E5"/>
<path d="M91.4468 56.4988C91.3257 56.3144 91.1946 56.0969 91.0925 55.8955C90.9655 55.6428 90.8467 55.3853 90.7434 55.1215C90.5339 54.5948 90.3766 54.0463 90.2827 53.4872C90.1785 52.9316 90.1419 52.3555 90.1447 51.8003C90.1486 51.221 90.2125 50.6611 90.3241 50.0992C90.5454 48.9797 90.9975 47.8986 91.6602 46.9481C92.3327 46.0099 93.2257 45.1913 94.3088 44.7013C95.3959 44.2152 96.6207 44.0754 97.7681 44.3554C98.9085 44.6247 99.9092 45.2668 100.665 46.0786C102.187 47.7169 102.82 49.9657 102.629 52.051C102.444 49.9732 101.603 47.9535 100.112 46.6496C99.3748 46.0044 98.4809 45.57 97.5611 45.4524C97.3339 45.4235 97.0956 45.4113 96.8771 45.4196C96.6376 45.4291 96.4171 45.448 96.1915 45.4914C95.7446 45.5732 95.3147 45.7311 94.9167 45.9475C94.1171 46.3771 93.4312 47.0326 92.9243 47.8168C92.4028 48.5924 92.0562 49.4883 91.8534 50.4159C91.7548 50.8787 91.6999 51.362 91.6762 51.8283C91.6561 52.3187 91.6763 52.791 91.7311 53.2688C91.8491 54.2244 92.2258 55.3525 92.6719 56.2323C92.1039 56.2817 91.8822 56.3559 91.4468 56.4988Z" fill="black"/>
<path d="M102.626 51.7111C102.626 54.6722 100.879 57.0718 98.7228 57.0718C96.5667 57.0718 94.8193 54.6722 94.8193 51.7111C94.8193 48.7507 96.5667 46.3511 98.7228 46.3511C100.879 46.3511 102.626 48.7507 102.626 51.7111Z" fill="black"/>
<path d="M99.8231 50.5324C99.1375 51.7971 97.8355 52.4159 96.9148 51.916C95.9934 51.4153 95.8032 49.9847 96.4888 48.7203C97.1743 47.4559 98.4764 46.8368 99.3971 47.3371C100.318 47.8374 100.509 49.268 99.8231 50.5324Z" fill="#F6F6E5"/>
<path d="M90.2461 56.7836C93.0072 54.9411 98.5796 55.6211 101.915 58.1676C98.7492 56.8657 92.9595 56.2746 90.2461 56.7836Z" fill="#BFAF90"/>
<path d="M91.9414 43.4239C94.2095 39.9688 100.323 40.4624 102.592 45.3983C99.6331 42.0419 94.8012 42.0419 91.9414 43.4239Z" fill="black"/>
<path d="M110.274 61.432C110.266 61.4363 110.26 61.4386 110.252 61.4426C110.246 61.4461 110.242 61.4496 110.235 61.4528L110.274 61.432Z" fill="black"/>
<path d="M112.994 56.1403C112.971 55.9638 112.963 55.7786 112.777 55.5065C112.755 55.4785 112.754 55.4722 112.716 55.4264C112.671 55.3758 112.622 55.3269 112.572 55.2819C112.496 55.2207 112.418 55.1634 112.346 55.1235C112.049 54.9529 111.799 54.8902 111.555 54.8211C111.072 54.6975 110.628 54.6236 110.206 54.5233C109.437 54.3547 108.73 54.0874 108.382 53.6187C108.74 50.393 108.803 47.0856 108.222 43.8299C107.925 42.1698 107.458 40.5256 106.76 38.9655C106.066 37.4061 105.129 35.936 103.956 34.674C102.786 33.4085 101.393 32.3561 99.8818 31.5514C98.3703 30.7439 96.7503 30.1753 95.1031 29.7934C94.2795 29.6007 93.4476 29.4562 92.6129 29.3468L91.9865 29.2726L91.6658 29.2394L91.3594 29.2134C90.9239 29.1798 90.4994 29.1636 90.0719 29.162C88.3639 29.1565 86.6626 29.3934 85.0225 29.8436C81.7474 30.7541 78.7 32.5164 76.3416 34.9796C75.1622 36.2077 74.1583 37.6039 73.371 39.1112C72.5829 40.6164 72.0089 42.2338 71.6382 43.8761C70.8848 47.1547 70.8299 50.635 71.7182 53.9093C72.5994 57.169 74.5602 60.183 77.302 62.0566C76.1971 60.8266 75.2426 59.5089 74.481 58.0945C73.7236 56.6793 73.1433 55.1832 72.7615 53.6357C71.9789 50.5419 72.0445 47.2569 72.7963 44.1485C73.5181 41.0365 75.0399 38.1346 77.2662 35.8776C79.477 33.6122 82.3324 31.9992 85.387 31.183C86.9139 30.7727 88.4925 30.548 90.0671 30.5547C90.4608 30.5559 90.8569 30.5713 91.2399 30.6005L91.5463 30.6266L91.8374 30.657L92.4338 30.7277C93.2267 30.8315 94.014 30.9682 94.7883 31.1494C97.8815 31.8542 100.815 33.3066 102.935 35.6205C103.996 36.7684 104.861 38.0959 105.519 39.5293C106.176 40.9635 106.632 42.4984 106.927 44.068C107.516 47.2174 107.488 50.4775 107.182 53.7103L107.163 53.9132L107.255 54.0617L107.26 54.07C107.551 54.5972 108.033 54.9778 108.505 55.2147C108.982 55.4564 109.466 55.5938 109.93 55.7056C110.393 55.8145 110.851 55.8896 111.251 55.9914C111.445 56.0416 111.639 56.1036 111.737 56.1644C111.764 56.1782 111.777 56.1912 111.791 56.1991C111.794 56.2102 111.798 56.224 111.797 56.2394C111.807 56.3567 111.785 56.5498 111.742 56.7385C111.7 56.9304 111.643 57.1306 111.576 57.3301C111.44 57.7305 111.269 58.1309 111.079 58.5202C110.887 58.9091 110.674 59.2898 110.44 59.6436C110.323 59.8197 110.201 59.9899 110.073 60.1396C109.954 60.2845 109.797 60.4274 109.738 60.4555L109.799 60.4266L109.714 60.4693C109.706 60.4728 109.691 60.478 109.676 60.4807C109.639 60.4898 109.59 60.4981 109.539 60.5044C109.435 60.5163 109.318 60.5206 109.2 60.5186C108.962 60.5151 108.715 60.4878 108.47 60.4444C107.979 60.3575 107.499 60.1976 107.043 59.9895C106.133 59.567 105.345 58.8914 104.803 58.0242L104.306 57.2286L104.105 58.1044V58.1064C103.917 58.6999 103.796 59.3269 103.794 59.9674C103.788 60.6063 103.895 61.2558 104.123 61.8659C104.53 62.9566 105.308 63.9046 106.325 64.5206C106.313 64.5467 106.3 64.5743 106.282 64.6028C106.206 64.7481 106.084 64.9108 105.953 65.0652C105.686 65.3771 105.358 65.6677 105.021 65.9264C104.852 66.0555 104.677 66.1755 104.506 66.2739C104.425 66.3216 104.327 66.3714 104.267 66.3967C104.187 66.4314 104.107 66.4606 104.027 66.4816C103.71 66.568 103.383 66.5443 102.998 66.431C102.227 66.2178 101.323 65.6729 100.229 65.5279C99.6838 65.4509 99.1253 65.4742 98.5797 65.6046C98.1151 65.7317 97.7001 65.8296 97.2406 65.9137C95.4316 66.2391 93.5549 66.3497 91.6805 66.3892C89.8037 66.4093 87.9194 66.3181 86.0319 66.1317C87.8661 66.6206 89.7524 66.9313 91.6552 67.0924C92.6066 67.1789 93.5636 67.2247 94.5233 67.22C95.4833 67.2208 96.4461 67.1738 97.4145 67.0541C97.8898 66.9969 98.4038 66.9116 98.8566 66.8105C99.2349 66.7382 99.6384 66.7355 100.027 66.8081C100.419 66.8808 100.813 67.0237 101.231 67.1971C101.65 67.37 102.09 67.5844 102.613 67.7444C103.131 67.9023 103.781 67.9718 104.381 67.8016C104.529 67.7613 104.672 67.712 104.808 67.6484C104.964 67.5773 105.075 67.5145 105.195 67.4415C105.431 67.2993 105.643 67.1449 105.847 66.9823C106.253 66.6565 106.613 66.29 106.945 65.8695C107.108 65.6543 107.266 65.4304 107.396 65.1501C107.461 65.0091 107.519 64.8571 107.553 64.6675C107.587 64.4823 107.599 64.2462 107.504 63.9911L107.503 63.9903L107.423 63.7506L107.195 63.6547C106.255 63.2598 105.449 62.4669 105.024 61.5011C104.81 61.0177 104.688 60.4902 104.661 59.9508C104.648 59.7186 104.656 59.4845 104.678 59.2507C104.829 59.4525 104.993 59.6464 105.171 59.8272C105.59 60.2454 106.076 60.598 106.598 60.8764C107.119 61.1587 107.683 61.3561 108.264 61.4833C108.556 61.5457 108.852 61.5899 109.16 61.6061C109.315 61.614 109.472 61.6152 109.641 61.6018C109.726 61.5947 109.813 61.5848 109.909 61.565C110.003 61.5433 110.1 61.5244 110.25 61.445C110.583 61.2622 110.746 61.0695 110.923 60.8787C111.095 60.6833 111.242 60.4851 111.381 60.2841C111.657 59.8821 111.897 59.4695 112.116 59.0438C112.334 58.6181 112.53 58.1818 112.695 57.7206C112.777 57.4892 112.852 57.2523 112.91 56.9992C112.966 56.7417 113.016 56.4791 112.994 56.1403ZM109.717 60.4665C109.722 60.4649 109.722 60.4645 109.717 60.4665ZM111.771 56.1727C111.771 56.1699 111.78 56.1818 111.791 56.196C111.791 56.1968 111.791 56.1972 111.792 56.1984C111.783 56.1928 111.775 56.1834 111.771 56.1727Z" fill="black"/>
<path d="M82.147 85.5332C84.0352 83.3168 86.013 85.1158 91.3988 88.0205C97.4989 91.3098 107.768 95.2395 103.439 100.688C98.6357 106.732 93.833 111.749 88.9856 117.127C86.2489 120.163 79.7053 106.418 82.9071 103.969C85.9688 101.627 89.3911 99.9554 92.8145 97.8713C89.5733 95.7319 87.2938 94.2697 84.6936 91.9344C82.0938 89.5984 80.4998 87.4681 82.147 85.5332Z" fill="#E6E6CF"/>
<path d="M100.342 92.8569C103.594 96.9694 94.6486 97.8804 86.7723 90.9062C82.287 86.9421 82.132 84.837 84.1575 84.548C85.703 84.6214 87.7837 86.0738 91.3976 88.0225C94.1059 89.4823 97.6374 91.0673 100.342 92.8569Z" fill="#F6F6E5"/>
<path d="M86.0942 101.797C85.8347 105.597 88.0917 112.574 92.0263 113.785C91.0142 114.891 90.0024 116.001 88.9863 117.128C86.2504 120.164 79.7061 106.42 82.907 103.968C83.931 103.183 85.0012 102.472 86.0942 101.797Z" fill="#807E75"/>
<path d="M104.208 95.4444C103.688 94.7123 103.06 94.1145 102.408 93.5759C101.097 92.5066 99.6741 91.6651 98.2414 90.875C96.8052 90.0896 95.3478 89.3709 93.9017 88.6483C92.4509 87.9356 91.0542 87.1672 89.6082 86.437C88.8847 86.0769 88.1531 85.7227 87.3957 85.4068C86.6423 85.0929 85.8502 84.7999 85.0266 84.7075C85.7524 85.0933 86.4025 85.5569 87.0758 86.0015C87.7428 86.4536 88.415 86.9046 89.1005 87.3389C90.4673 88.21 91.9224 88.9745 93.3661 89.7093C94.8082 90.4481 96.2475 91.1743 97.6435 91.9561C99.0347 92.74 100.4 93.5727 101.59 94.5639C102.18 95.0602 102.725 95.6 103.138 96.1947C103.552 96.7874 103.812 97.4358 103.808 98.0774C103.812 98.7199 103.555 99.3635 103.142 99.9507C102.947 100.231 102.672 100.55 102.422 100.866L101.657 101.8C99.6082 104.288 97.4648 106.698 95.3009 109.098L88.7699 116.285L88.5657 116.511L88.4647 116.624C88.4647 116.624 88.387 116.707 88.3894 116.701C88.327 116.76 88.2469 116.809 88.1858 116.824C88.0694 116.863 87.8415 116.825 87.5756 116.67C87.0411 116.359 86.5161 115.782 86.0641 115.183C85.1549 113.958 84.4287 112.543 83.8493 111.093C83.2876 109.641 82.8236 108.113 82.7467 106.628C82.7112 105.903 82.8044 105.154 83.1144 104.727C83.1531 104.675 83.1921 104.626 83.2354 104.584C83.2816 104.539 83.3097 104.517 83.4051 104.444L83.8811 104.085C84.1995 103.851 84.5237 103.621 84.8511 103.396C87.4773 101.601 90.354 100.109 93.1223 98.3767L93.1231 98.3763L93.9211 97.9368L93.1405 97.3761C91.2767 96.0344 89.3455 94.828 87.5066 93.5167C86.5836 92.8632 85.6921 92.1717 84.7884 91.4772C83.8954 90.779 83.0142 90.0762 82.2083 89.2426C82.6899 90.3111 83.4603 91.2241 84.2492 92.0734C85.0405 92.9204 85.9102 93.6967 86.8068 94.434C88.3538 95.6999 89.9964 96.8119 91.668 97.8539C89.1633 99.2983 86.5646 100.639 84.1009 102.288C83.7589 102.517 83.4189 102.751 83.084 102.992L82.5862 103.359C82.5191 103.408 82.3866 103.509 82.2872 103.604C82.1854 103.703 82.0931 103.81 82.0107 103.92C81.6849 104.368 81.5291 104.859 81.4423 105.321C81.3575 105.787 81.339 106.24 81.3528 106.68C81.4336 108.44 81.9082 110.062 82.5137 111.621C83.1337 113.176 83.8918 114.671 84.9111 116.05C85.4365 116.731 85.9942 117.407 86.8589 117.927C87.0809 118.052 87.3275 118.165 87.617 118.232C87.9038 118.299 88.2433 118.311 88.5692 118.22C88.9005 118.128 89.1739 117.956 89.4026 117.735C89.4788 117.661 89.4689 117.668 89.5383 117.595L89.6401 117.482L89.8437 117.258L96.3836 110.076C98.5538 107.664 100.676 105.2 102.723 102.673L103.488 101.72C103.736 101.399 103.991 101.104 104.257 100.72C104.764 99.985 105.154 99.0575 105.138 98.0687C105.131 97.078 104.724 96.1666 104.208 95.4444Z" fill="black"/>
<path d="M79.2443 33.5186C78.8936 29.7515 64.0782 23.9825 62.7793 37.8835C57.7954 38.9243 55.1345 45.9838 56.3364 52.5971C57.6708 59.9409 62.7484 64.7267 58.0198 66.6134C62.1347 67.1252 65.966 63.4797 64.5475 56.6224C61.9824 44.2156 67.6787 37.3283 79.2443 33.5186Z" fill="#6B6B6B"/>
<path d="M69.069 30.807C68.0806 30.948 65.0808 32.1705 64.9688 36.0078C65.9612 34.026 67.3137 32.8572 69.8792 32.1989C71.3608 31.8187 70.8133 30.5578 69.069 30.807Z" fill="#858585"/>
<path d="M59.2609 64.8649C59.6069 63.7151 58.9845 61.9777 58.0453 59.7237C57.2426 57.7972 56.2442 55.3995 55.7547 52.7026C54.6045 46.3756 56.942 38.8671 62.2339 37.4061C62.6205 34.0651 63.8157 31.6062 65.7903 30.0935C67.6245 28.6874 70.1339 28.1732 72.8541 28.6431C76.4526 29.2658 79.6484 31.4732 79.8337 33.4633L79.8768 33.9336L79.4291 34.0809C67.3322 38.0651 62.7881 45.1894 65.1272 56.5016C65.8751 60.1218 65.2704 63.2191 63.424 65.2239C62.0281 66.7386 59.8132 67.323 57.2493 66.7137C57.2493 66.7137 58.8901 66.0961 59.2609 64.8649ZM72.6521 29.8108C70.2606 29.3969 68.0788 29.8317 66.5089 31.0353C64.7256 32.4011 63.6693 34.7237 63.368 37.9384L63.3277 38.3735L62.9001 38.4632C58.4456 39.3939 55.7062 45.8184 56.9179 52.4909C57.3857 55.0627 58.3162 57.2973 59.1375 59.2681C60.1827 61.7778 61.0088 63.7601 60.3516 65.325C60.2613 65.5382 60.1473 65.7372 60.008 65.9224C60.9772 65.6882 61.8576 65.1761 62.5542 64.4215C64.1352 62.705 64.6373 59.9784 63.9687 56.7425C62.6788 50.5083 63.3794 45.5262 66.1082 41.5135C68.5644 37.9005 72.6312 35.1561 78.5286 33.1348C77.9515 31.8905 75.5347 30.3095 72.6521 29.8108Z" fill="black"/>
<path d="M79.2454 33.5186C76.9232 32.8461 66.7595 32.9634 62.2024 42.3917C57.3768 52.3764 62.714 59.612 61.4128 63.1927C60.0776 66.8693 54.076 67.4332 52.9854 62.7374C52.1496 67 55.8629 69.9003 62.7779 68.0377C67.0814 66.8784 71.2116 62.0831 70.4543 53.1365C69.6977 44.1888 71.1513 36.9271 79.2454 33.5186Z" fill="#6B6B6B"/>
<path d="M63.1149 60.0349C61.255 53.144 61.487 48.0447 63.5078 43.5965C64.8505 40.6409 66.9383 41.6359 65.5222 45.555C64.6004 48.109 62.718 53.7675 63.1149 60.0349Z" fill="#858585"/>
<path d="M57.099 69.0628L57.0982 69.0624C55.3287 68.7568 53.9557 67.9584 53.1285 66.7544C52.3475 65.6187 52.1515 63.5935 52.9889 61.8351C52.9889 61.8351 53.7221 64.7338 56.404 65.4553C58.0165 65.8892 60.1643 64.8957 60.8569 62.9905C61.2577 61.8868 60.9102 60.2612 60.4704 58.2039C59.6207 54.2268 58.4567 48.7795 61.6699 42.1335C66.1406 32.8817 75.8238 32.3016 78.8631 32.8276C79.0666 32.8623 79.2504 32.9038 79.4101 32.95L81.0163 33.4155L79.4749 34.0655C72.6789 36.9271 70.1584 42.6156 71.0443 53.0868C71.8584 62.7125 67.1831 67.4644 62.9321 68.6095C60.737 69.1998 58.7746 69.3534 57.099 69.0628ZM53.7185 65.3502C53.8179 65.6097 53.9466 65.8545 54.1032 66.0827C54.7465 67.0178 55.8521 67.6448 57.2998 67.8952C57.3006 67.8952 57.3005 67.8952 57.3013 67.8952C58.8065 68.1562 60.597 68.0113 62.6248 67.4652C66.4352 66.4385 70.6179 62.0835 69.8649 53.1855C69.2862 46.3483 69.6586 38.137 77.1839 33.8704C73.4788 33.8104 66.3188 35.2347 62.7349 42.6492C59.6996 48.9288 60.8143 54.1458 61.6276 57.9555C62.1077 60.1996 62.4859 61.9721 61.9688 63.3948C61.146 65.661 58.6669 67.0494 56.2024 66.6229C55.2155 66.4519 54.371 66.0124 53.7185 65.3502Z" fill="black"/>
<path d="M79.2281 33.4961C76.8638 33.0866 70.6883 35.8815 68.9595 43.6032C66.5766 54.2426 72.2606 58.2742 68.3401 62.8357C65.878 65.7001 59.2032 67.3163 59.1807 73.5853C59.1661 77.9466 64.6982 80.0809 61.2878 84.1149C63.9243 82.9666 64.256 80.4213 62.9133 77.7567C61.9004 75.7468 62.4542 72.606 66.8038 70.7987C72.2712 68.5266 79.0786 65.1355 76.7589 55.4738C74.1827 44.7444 75.5238 37.4922 79.2281 33.4961Z" fill="#6B6B6B"/>
<path d="M70.2869 49.8895C70.3346 52.1723 70.8687 53.8525 71.4817 57.013C72.0611 59.9966 71.4217 63.0932 68.1387 65.2314C65.0565 67.2378 62.8038 68.4946 62.209 70.2502C63.289 68.7047 67.1018 67.1264 69.5418 65.708C72.6335 63.9114 73.943 61.7352 73.7805 58.4878C73.5411 53.6732 72.8453 51.6175 72.5948 49.6041C72.0872 45.5258 70.2151 46.5055 70.2869 49.8895Z" fill="#858585"/>
<path d="M60.4477 78.4078C59.5724 77.0617 58.5812 75.5367 58.5879 73.5829C58.6041 68.9274 62.0701 66.6419 64.856 64.8053C66.054 64.0152 67.1857 63.2685 67.8906 62.4491C69.6802 60.3666 69.2613 58.4412 68.6262 55.5267C67.9789 52.5569 67.1738 48.8613 68.3805 43.4733C70.1176 35.7141 76.2572 32.5085 79.2045 32.8939C79.2467 32.8995 79.2877 32.9054 79.3279 32.9125L80.4021 33.0993L79.6608 33.8989C75.7771 38.0888 74.9721 45.5013 77.3329 55.3356C79.8936 65.9998 71.5254 69.477 67.0302 71.3448C65.0943 72.1495 63.8045 73.295 63.3 74.6585C62.9486 75.607 62.9987 76.6123 63.44 77.4893C64.3023 79.1999 64.5023 80.8106 64.0203 82.1492C63.6226 83.2521 62.1044 84.3214 60.4911 84.7411C62.3391 82.2609 61.9079 80.6554 60.4477 78.4078ZM77.9293 34.1382C75.3914 34.6452 70.957 37.3871 69.5358 43.7327C68.3864 48.8652 69.1606 52.4191 69.7831 55.2751C70.4418 58.3018 70.9625 60.6924 68.7879 63.2223C67.975 64.1676 66.7763 64.9577 65.5077 65.7953C62.8251 67.5639 59.7866 69.5679 59.772 73.5876C59.7665 75.1872 60.6173 76.4958 61.4402 77.7618C62.1959 78.9247 62.9663 80.1101 62.9978 81.4471C63.2313 80.4824 63.0188 79.2817 62.3845 78.0236C61.8011 76.8662 61.7305 75.4897 62.1912 74.2471C62.6251 73.0751 63.7382 71.4316 66.577 70.2518C72.3498 67.8533 78.3288 64.5463 76.1834 55.6128C73.3884 43.974 75.3847 37.5846 77.9293 34.1382Z" fill="black"/>
<path d="M83.2402 31.2098C83.7897 28.9871 87.9938 21.1134 98.1291 24.1476C107.506 26.9543 105.805 37.4172 110.727 38.9876C114.745 40.2689 115.686 34.2164 112.584 32.8935C117.466 33.4918 117.671 38.7341 116.081 41.3832C114.1 44.6832 107.947 46.7914 104.146 40.9516C99.2995 33.504 91.0397 28.8449 83.2402 31.2098Z" fill="#6B6B6B"/>
<path d="M109.646 45.1949C107.991 45.0662 105.607 44.2816 103.65 41.275C99.8408 35.4223 94.1899 31.6651 88.5328 31.226C86.7861 31.0905 85.0635 31.2757 83.412 31.7768L82.416 32.0789L82.6665 31.068C83.1327 29.1817 86.5601 22.2695 94.8159 22.9104C95.9314 22.9969 97.1032 23.222 98.2988 23.5801C104.018 25.2923 105.824 29.7456 107.275 33.3239C108.259 35.7524 109.109 37.8495 110.908 38.4233C111.149 38.5003 111.383 38.5481 111.603 38.565C113.162 38.6863 113.633 37.2651 113.74 36.8268C114.113 35.3014 113.72 33.8242 111.616 32.5401C114.873 32.4675 116.391 34.0446 116.948 35.1873C118.039 37.425 117.527 40.126 116.589 41.6889C115.223 43.9641 112.367 45.4062 109.646 45.1949ZM88.6235 30.0453C94.6451 30.5128 100.633 34.4687 104.642 40.629C105.982 42.6887 107.744 43.8594 109.737 44.0138C112.293 44.2121 114.608 42.6875 115.574 41.078C116.376 39.7398 116.742 37.4649 115.884 35.7066C115.591 35.1044 115.183 34.6191 114.666 34.2542C115.049 35.1636 115.107 36.2116 114.889 37.1084C114.466 38.8375 113.14 39.8728 111.511 39.7465C111.2 39.722 110.876 39.6568 110.548 39.5522C108.22 38.8099 107.228 36.3621 106.177 33.7697C104.751 30.2518 103.135 26.2648 97.9592 24.715C96.8445 24.3813 95.755 24.1712 94.7235 24.0915C88.393 23.5999 85.2292 28.0023 84.1768 30.3525C85.6264 30.0319 87.1175 29.928 88.6235 30.0453Z" fill="black"/>
<path d="M76.3102 35.1273C74.9134 32.1717 73.2062 23.1947 81.8549 21.0028C90.2286 18.8804 96.9488 25.3428 96.8076 32.2629C90.7524 28.7233 80.5327 30.4054 76.3102 35.1273Z" fill="#6B6B6B"/>
<path d="M78.7317 25.6212C79.3951 22.6036 86.847 19.8059 92.4797 25.4609C88.9289 24.1404 85.9682 24.035 82.7179 25.6239C80.1244 26.8915 78.5321 26.5302 78.7317 25.6212Z" fill="#858585"/>
<path d="M76.1555 36.1871L75.7741 35.3804C74.7517 33.2149 73.8335 28.7122 75.4953 25.1829C76.6238 22.7872 78.7147 21.1876 81.7094 20.4287C83.1676 20.0587 84.629 19.9272 86.053 20.0381C92.436 20.5337 97.526 26.0232 97.399 32.2748L97.3788 33.2829L96.5091 32.7743C94.8488 31.8045 92.7495 31.1968 90.4373 31.0171C85.1201 30.6045 79.4922 32.4572 76.7503 35.5226L76.1555 36.1871ZM85.9611 21.2192C84.6662 21.1185 83.3333 21.2389 81.9997 21.5765C79.364 22.2447 77.5361 23.6275 76.5661 25.6883C75.2589 28.4635 75.7481 31.9399 76.5153 34.0738C79.6571 31.1474 85.2523 29.4258 90.528 29.8356C92.6142 29.9975 94.5487 30.4888 96.1876 31.267C95.7861 26.0512 91.3919 21.6409 85.9611 21.2192Z" fill="black"/>
<path d="M79.0928 33.2903C81.794 31.5734 89.3394 29.5588 94.5225 34.5749C99.4925 39.3844 101.236 45.9021 107.027 46.539C112.03 47.0895 114.204 42.888 113.484 40.4624C113.198 41.7287 111.899 43.3192 109.39 42.4501C106.226 41.3536 106.111 37.0732 101.412 32.1902C96.7179 27.3108 86.8946 23.5477 79.0928 33.2903Z" fill="#6B6B6B"/>
<path d="M94.9786 29.772C97.638 30.6415 100.452 33.1612 102.085 35.5028C104.423 38.858 104.677 41.5242 107.429 43.153C104.165 42.4778 103.651 40.8241 101.67 37.7974C100.231 35.596 99.0312 33.5008 94.7467 31.6654C91.0496 30.0808 90.8649 28.4267 94.9786 29.772Z" fill="#858585"/>
<path d="M107.313 47.1594C107.198 47.1515 107.081 47.1408 106.963 47.1278C102.939 46.6851 100.73 43.5736 98.3919 40.2792C97.1245 38.4939 95.815 36.6491 94.1114 35.0009C92.2678 33.2161 89.9634 32.2151 87.2618 32.0252C83.8337 31.7839 80.8544 32.7233 78.167 33.9794C81.9959 27.7803 87.9943 26.4212 91.2978 26.6538C95.066 26.9191 99.0065 28.835 101.839 31.7788C104.095 34.1239 105.319 36.3328 106.303 38.107C107.356 40.0083 108.118 41.3816 109.584 41.8898C109.923 42.0075 110.248 42.0782 110.55 42.0991C112.211 42.216 113.323 41.2612 113.441 39.5711C114.164 41.104 114.038 43.5238 112.94 44.8928C111.638 46.5185 109.64 47.3232 107.313 47.1594ZM87.345 30.8433C90.331 31.0534 92.8851 32.1658 94.9342 34.1484C96.7155 35.8728 98.0582 37.7638 99.3563 39.5929C101.632 42.7972 103.596 45.5653 107.092 45.9499C107.195 45.9613 107.297 45.9708 107.396 45.9775C109.324 46.1134 110.965 45.4646 112.019 44.1512C112.405 43.6695 112.689 43.1135 112.857 42.552C112.255 43.0444 111.451 43.3501 110.467 43.281C110.062 43.2525 109.634 43.1609 109.197 43.0093C107.302 42.353 106.404 40.7329 105.268 38.6819C104.318 36.9678 103.135 34.8343 100.986 32.6009C98.3513 29.8617 94.6983 28.0804 91.2154 27.8352C87.6914 27.5872 84.3673 28.8729 81.476 31.5758C83.1776 31.0309 85.247 30.6953 87.345 30.8433Z" fill="black"/>
<path d="M83.5065 41.6359C83.5806 35.6746 78.6292 27.5158 71.7669 28.8196C70.3095 36.6377 73.6713 42.5346 75.6798 44.7495C78.8303 48.2216 83.4375 47.2435 83.5065 41.6359Z" fill="#F6F6E5"/>
<path d="M83.1314 36.6554C82.8825 35.8467 82.5495 35.0649 82.1606 34.3099C81.7693 33.5561 81.324 32.8256 80.7986 32.1472C79.7624 30.7892 78.4426 29.5861 76.8411 28.8256C75.2511 28.0536 73.3648 27.8368 71.6569 28.238L71.2376 28.3367L71.1859 28.711C70.8166 30.4508 70.679 32.2514 70.8036 34.0351C70.9271 35.8199 71.2991 37.5869 71.9101 39.2643C72.2107 40.1054 72.5795 40.92 72.9972 41.7074C73.4177 42.4928 73.8871 43.2549 74.4385 43.9597C74.9825 44.6626 75.6195 45.3319 76.3808 45.835C77.135 46.3329 78.0102 46.68 78.893 46.6982C78.071 46.3913 77.37 45.912 76.7697 45.3406C76.1658 44.7744 75.6779 44.1039 75.2152 43.4034C74.2961 42.0012 73.5783 40.4632 73.0603 38.8687C72.5424 37.273 72.2268 35.6161 72.1128 33.9462C72.0564 33.1111 72.0513 32.2728 72.0876 31.4349C72.1207 30.7403 72.1985 30.0489 72.2931 29.3578C72.9065 29.3018 73.5186 29.3073 74.119 29.4021C74.853 29.5213 75.569 29.7492 76.2439 30.0773C77.596 30.7336 78.7787 31.765 79.7616 32.967C80.2476 33.5731 80.6992 34.2155 81.0929 34.8955C81.4866 35.5759 81.8269 36.2886 82.1346 37.0175C82.7464 38.4801 83.2063 40.0035 83.5072 41.6363C83.837 39.9948 83.626 38.2641 83.1314 36.6554Z" fill="black"/>
<path d="M81.1336 41.2497C81.1707 37.397 78.4734 32.0485 74.0698 32.2728C73.8449 37.6118 75.5668 41.0223 76.8401 42.4569C78.8379 44.706 81.0989 44.8739 81.1336 41.2497Z" fill="#E6E6CF"/>
<path d="M76.8396 42.4564C77.4396 43.0014 78.1086 43.4945 78.8328 43.7279C79.1917 43.8412 79.5652 43.8547 79.8535 43.7307C80.1431 43.6083 80.3458 43.3409 80.4729 43.016C80.7249 42.3589 80.7403 41.5573 80.678 40.7932C80.6216 40.0232 80.4677 39.2556 80.235 38.5145C79.7928 37.0246 79.0324 35.6331 78.0309 34.4935C77.0317 33.3507 75.7181 32.499 74.0693 32.272C74.8712 32.0607 75.7627 32.1203 76.58 32.407C77.3981 32.6968 78.1456 33.1892 78.7577 33.7989C79.3735 34.407 79.8733 35.1178 80.2693 35.872C80.6661 36.6258 80.9829 37.4179 81.203 38.2369C81.4172 39.0566 81.5505 39.8989 81.569 40.7518C81.5738 41.1881 81.5497 41.5992 81.4866 42.0343C81.4196 42.4612 81.3209 42.8987 81.1035 43.3117C80.8964 43.718 80.532 44.1232 80.0406 44.2661C79.5538 44.4146 79.073 44.291 78.6841 44.1121C77.8944 43.737 77.3205 43.1107 76.8396 42.4564Z" fill="black"/>
</svg>
