<svg width="132" height="137" viewBox="0 0 132 137" fill="none" xmlns="http://www.w3.org/2000/svg">
<path d="M84.2255 83.1419C83.1639 80.5575 85.5647 79.6581 90.4006 76.3318C95.8781 72.5648 103.728 65.5185 106.473 71.604C109.518 78.355 111.688 84.6563 114.145 91.1528C115.532 94.821 100.951 94.3829 100.268 90.5753C99.6139 86.9355 99.6904 83.2797 99.4149 79.4418C96.1706 81.2718 93.9253 82.5772 90.7952 83.7739C87.6658 84.9699 85.1512 85.3967 84.2255 83.1419Z" fill="#CCCAB8"/>
<path d="M99.8135 86.9018C102.937 88.7885 109.872 89.9205 112.629 87.0912C113.128 88.4409 113.631 89.7917 114.145 91.1528C115.533 94.8195 100.953 94.3837 100.266 90.5753C100.046 89.3563 99.9092 88.1311 99.8135 86.9018Z" fill="#807E75"/>
<path d="M102.342 68.6489C101.491 68.7716 100.706 69.0455 99.9611 69.3659C98.4759 70.0176 97.1341 70.8629 95.8327 71.7404C94.5339 72.622 93.2832 73.5525 92.0337 74.4705C90.7898 75.3972 89.5225 76.2516 88.2672 77.1666C87.643 77.6275 87.0196 78.0971 86.4188 78.6053C85.8207 79.1105 85.2242 79.6585 84.7842 80.3213C85.4311 79.871 86.1113 79.5188 86.785 79.1385C87.463 78.7674 88.142 78.3913 88.8124 77.9963C90.1535 77.2109 91.4431 76.3024 92.7022 75.3919C93.9638 74.4849 95.2138 73.5737 96.4924 72.7254C97.77 71.8809 99.0786 71.0788 100.445 70.4975C101.126 70.2112 101.825 69.982 102.512 69.8915C103.199 69.7976 103.865 69.8604 104.411 70.1437C104.96 70.4217 105.395 70.9243 105.715 71.5336C105.869 71.8237 106.019 72.1986 106.179 72.5508L106.64 73.6139C107.862 76.4535 108.976 79.3412 110.072 82.2406L113.332 90.9688L113.436 91.2419L113.488 91.3786C113.488 91.3786 113.525 91.4808 113.52 91.4755C113.545 91.5554 113.55 91.6456 113.536 91.7035C113.518 91.8205 113.386 91.9978 113.138 92.1576C112.638 92.478 111.916 92.673 111.208 92.7961C109.766 93.0358 108.24 93.0358 106.751 92.8945C105.268 92.7377 103.762 92.4639 102.463 91.8788C101.83 91.5902 101.232 91.1828 101.005 90.7317C100.978 90.6764 100.955 90.6208 100.937 90.5658C100.919 90.506 100.912 90.4727 100.892 90.3587L100.795 89.7959C100.734 89.421 100.681 89.0438 100.633 88.6651C100.254 85.6346 100.244 82.525 99.9808 79.4021L99.9816 79.4006L99.957 78.5262L99.1365 78.9469C97.1772 79.9497 95.3019 81.0704 93.3782 82.0652C92.4161 82.5674 91.4363 83.0261 90.4482 83.4923C89.4627 83.9494 88.4764 84.3939 87.4138 84.7162C88.5351 84.7738 89.6507 84.5167 90.7206 84.2148C91.7885 83.91 92.8315 83.5085 93.8526 83.0654C95.6098 82.2993 97.2778 81.3835 98.8981 80.4144C99.0309 83.1851 99.0343 85.9917 99.3589 88.8185C99.4039 89.2104 99.455 89.6039 99.5132 89.9951L99.6074 90.5818C99.6199 90.6601 99.6468 90.8177 99.6857 90.9449C99.7251 91.0745 99.775 91.2002 99.8341 91.3183C100.073 91.7932 100.422 92.1417 100.778 92.4189C101.138 92.6953 101.515 92.9093 101.897 93.0896C103.432 93.7928 105.022 94.0992 106.616 94.2651C108.212 94.4173 109.819 94.4249 111.441 94.1595C112.252 94.0095 113.073 93.8296 113.894 93.3191C114.097 93.1847 114.302 93.024 114.486 92.8059C114.669 92.5908 114.828 92.306 114.893 91.9871C114.96 91.6637 114.933 91.3547 114.846 91.0627C114.816 90.965 114.818 90.9775 114.785 90.8859L114.734 90.7507L114.631 90.4776L111.379 81.7441C110.276 78.8333 109.106 75.9422 107.85 73.0848L107.374 72.0153C107.209 71.6616 107.07 71.3139 106.859 70.9189C106.455 70.1645 105.836 69.4249 104.985 69.0046C104.138 68.5759 103.183 68.5255 102.342 68.6489Z" fill="black"/>
<path d="M15.7976 69.9744C14.6026 72.6061 16.4623 77.5566 20.298 76.9791C24.1341 76.4023 26.7501 71.7756 30.6754 75.6123C33.7896 78.656 37.6045 80.0963 40.0552 77.8482C41.8741 76.1804 41.9028 74.0853 45.0277 74.1698C46.3162 74.2054 47.6251 76.3879 48.3201 78.4837C50.3123 74.0997 49.8466 67.7665 46.7997 64.0756C44.0645 60.7618 37.9302 59.5689 34.6741 64.4225C32.1576 68.174 30.4314 67.2836 28.7702 66.5001C26.0018 65.1939 23.2099 66.3876 21.9331 69.49C20.5927 72.7436 17.4811 74.28 15.7976 69.9744Z" fill="#6B6B6B"/>
<path d="M46.7002 70.0328C45.7635 67.9411 43.7585 66.137 41.3653 67.6295C39.7401 68.6437 38.5223 71.061 36.347 72.3982C32.7599 74.6023 30.6175 70.4187 28.0908 70.6917C31.0386 71.6253 32.7546 75.4753 36.641 73.6654C40.079 72.0638 41.5181 69.3515 43.3911 69.8472C44.394 70.1127 45.2793 72.0358 46.4043 72.0945C46.9344 72.1217 47.3713 71.5321 46.7002 70.0328Z" fill="#858585"/>
<path d="M47.2356 63.7139C45.4458 61.5442 42.3766 60.3218 39.599 60.6709C37.3893 60.9482 35.5228 62.1369 34.2017 64.1059C33.1504 65.6733 32.1865 66.4921 31.2547 66.6088C30.523 66.7004 29.8255 66.3706 29.0866 66.0222L29.011 65.9866C27.9971 65.5079 26.9295 65.3216 25.9232 65.448C23.9522 65.6957 22.3058 67.0901 21.4069 69.273C20.7672 70.8277 19.7155 71.913 18.7289 72.0365C17.0602 72.2467 16.0002 69.8218 15.8587 68.6947C15.2564 69.9691 14.1479 72.7898 16.1223 75.6854C17.1093 77.1336 18.6313 77.7623 20.2633 77.5574L20.3814 77.5411C21.7906 77.3287 22.9989 76.6386 24.1674 75.971C25.204 75.379 26.1831 74.82 27.1576 74.6973C28.2263 74.5633 29.2179 74.9829 30.2775 76.0191C31.9939 77.696 34.65 79.838 37.9251 79.468C41.6658 79.0457 41.5773 74.5394 44.7679 74.6481C46.9383 74.7212 47.9291 78.5765 48.271 79.9611L48.8351 78.7185C51.0183 73.9138 50.3305 67.4631 47.2356 63.7139ZM22.4564 69.7067C23.1948 67.9123 24.5102 66.7709 26.0647 66.5754C26.8682 66.4747 27.6967 66.6221 28.5275 67.014L28.602 67.0496C29.4154 67.4336 30.338 67.8692 31.3966 67.7362C32.6911 67.5734 33.8817 66.6216 35.1441 64.7391C36.2767 63.0511 37.866 62.0332 39.7402 61.798C42.1473 61.4954 44.808 62.5562 46.3609 64.4372C47.9226 66.3293 48.8056 69.0632 48.9357 71.8687C48.377 69.1954 46.9606 66.8072 44.9953 65.751C43.706 65.0579 41.132 64.4456 38.3783 68.1274C36.427 70.7364 34.9201 72.3156 31.877 70.5519C28.1855 68.4137 26.0832 67.7635 22.7639 71.0269C21.9763 71.8013 21.1671 72.3058 20.3693 72.5364C21.2027 71.9361 21.9449 70.9492 22.4564 69.7067ZM44.5413 73.5953C40.5055 73.6184 41.2666 77.8876 37.7839 78.3409C35.637 78.6204 33.5658 77.6441 31.0708 75.2055C29.7623 73.9274 28.4363 73.3919 27.0169 73.5703C25.8169 73.721 24.6926 74.3641 23.6049 74.9844C22.5267 75.6006 21.4119 76.2376 20.2122 76.4178L20.1226 76.4303C18.5765 76.6242 17.5913 75.7661 17.0367 75.0124C16.3296 74.0501 15.9623 72.7674 16.0047 71.6218C16.5173 72.3808 17.0711 72.7883 17.5826 72.9947C17.9227 73.17 18.298 73.3082 18.713 73.3809C19.7723 73.5672 21.4266 73.404 23.2939 71.5673C26.2833 68.6292 27.918 69.1344 31.498 71.2086C35.0673 73.2753 36.9252 71.3336 38.9836 68.5819C40.7733 66.1899 42.781 65.4212 44.6374 66.4183C47.2405 67.8169 49.2331 72.6337 48.1439 76.8639C47.5606 75.379 46.1287 73.5862 44.5413 73.5953Z" fill="black"/>
<path d="M52.9863 81.0014C49.3928 83.8455 48.1209 89.8133 46.3417 88.6681C44.5622 87.5225 43.9981 86.929 42.9139 87.441C36.068 90.6688 29.0844 96.2942 23.4018 103.417C21.2209 106.151 29.8592 113.387 31.2502 113.235C32.642 113.082 32.8997 109.692 35.8959 105.01C38.0647 101.62 42.8155 96.1768 46.069 95.3542C49.3224 94.5309 54.0293 96.7642 59.1857 94.3616C64.2032 92.0242 66.5718 86.74 63.9868 82.3413C62.0041 78.965 57.4334 77.482 52.9863 81.0014Z" fill="#CCCAB8"/>
<path d="M34.1525 108.135C32.7085 111.135 32.3075 113.119 31.2528 113.234C29.8591 113.389 21.2212 106.152 23.4017 103.417C24.1417 102.489 24.9025 101.59 25.6848 100.715C27.0278 103.865 30.7621 108.086 34.1525 108.135Z" fill="#807E75"/>
<path d="M56.9776 79.0953C55.9845 79.471 55.0925 79.9716 54.2852 80.5783C53.8792 80.8779 53.4934 81.1991 53.1287 81.5482C52.778 81.8751 52.439 82.2496 52.1326 82.6378C51.5065 83.413 50.9485 84.2575 50.4185 85.1365C49.8847 86.0174 49.4043 86.9332 48.816 87.858C48.665 88.0894 48.5073 88.3219 48.3185 88.5525C48.1271 88.7824 47.9175 89.0206 47.5857 89.2308C47.42 89.3331 47.2108 89.4278 46.9626 89.4588C46.7171 89.4929 46.4497 89.4501 46.2427 89.3596C46.141 89.3175 46.0381 89.2581 45.9669 89.213L45.8012 89.1066L45.4675 88.89C45.0295 88.6052 44.5922 88.2996 44.2017 88.1C44.0069 88 43.8382 87.944 43.7073 87.9341C43.5779 87.9231 43.4447 87.9511 43.2684 88.0257C42.3726 88.448 41.4465 88.9339 40.5541 89.4391C39.659 89.9466 38.7802 90.4851 37.918 91.0501C34.4739 93.3171 31.2874 95.9803 28.3843 98.9187C26.9342 100.392 25.5587 101.936 24.2603 103.544L24.0167 103.845C23.938 103.943 23.9259 103.965 23.8903 104.034C23.8313 104.154 23.8003 104.298 23.7988 104.469C23.7965 104.815 23.9251 105.242 24.1188 105.657C24.5115 106.494 25.1198 107.302 25.7694 108.061C26.4246 108.822 27.1468 109.541 27.9053 110.216C28.6635 110.886 29.4651 111.528 30.2906 112.05C31.4047 112.627 31.1183 112.777 31.7467 111.785C32.1791 110.927 32.5593 109.916 32.9962 108.955C33.8577 107.011 34.9048 105.12 36.1646 103.389C37.4232 101.667 38.8029 100.051 40.321 98.5521C41.0837 97.8057 41.8812 97.0884 42.7483 96.4381C43.6203 95.7954 44.5441 95.1842 45.6711 94.8293C46.8181 94.4942 47.9379 94.5392 49.0006 94.6082C50.0663 94.6858 51.0979 94.8161 52.1216 94.8861C54.1649 95.0437 56.1892 94.9165 58.0951 94.2855C60.0078 93.6584 61.7844 92.6123 63.2817 91.1232C62.2406 92.9717 60.4323 94.3859 58.4322 95.2031C57.427 95.6262 56.3485 95.8606 55.2718 95.9908C54.1913 96.1071 53.1094 96.0988 52.0482 96.0359C50.9859 95.9753 49.9422 95.8568 48.9223 95.7954C47.9099 95.7363 46.8983 95.7326 46.032 96.0026C45.1604 96.2843 44.3069 96.8399 43.5128 97.447C42.715 98.0609 41.9618 98.7524 41.2392 99.4765C39.7993 100.932 38.473 102.523 37.2859 104.193C36.0969 105.853 35.1151 107.647 34.295 109.531C33.8713 110.476 33.527 111.432 33.0265 112.446C32.8937 112.701 32.7507 112.962 32.5343 113.234C32.3202 113.496 32.0054 113.815 31.4822 113.93C31.3729 113.952 31.4315 113.942 31.3143 113.958C31.2186 113.966 31.144 113.962 31.0759 113.956C30.942 113.942 30.844 113.917 30.7513 113.891C30.5701 113.838 30.4237 113.775 30.2838 113.71C30.0065 113.58 29.7613 113.439 29.5215 113.292C28.5772 112.702 27.7389 112.034 26.927 111.326C26.1189 110.617 25.3506 109.864 24.6364 109.044C23.9274 108.22 23.2589 107.344 22.7592 106.286C22.5182 105.754 22.3064 105.164 22.3037 104.458C22.306 104.108 22.3764 103.724 22.5493 103.375C22.6264 103.209 22.7638 103.013 22.8508 102.91L23.1008 102.602C24.4329 100.959 25.8439 99.3803 27.3318 97.8765C30.3061 94.8699 33.5796 92.1477 37.1493 89.8606C38.041 89.288 38.9508 88.743 39.8784 88.2287C40.8102 87.7133 41.7397 87.2331 42.7392 86.776C43.0407 86.6457 43.4323 86.548 43.8257 86.5889C44.2176 86.6253 44.5445 86.765 44.8123 86.9032C45.3484 87.1896 45.7638 87.4952 46.2 87.7811L46.5211 87.9947L46.6846 88.1019C46.7239 88.1261 46.7341 88.1314 46.7534 88.1405C46.7856 88.1553 46.786 88.1507 46.7992 88.1515C46.8109 88.1523 46.8484 88.1435 46.9048 88.1094C47.0183 88.042 47.1718 87.8943 47.313 87.722C47.456 87.5505 47.5959 87.3513 47.7325 87.1464C48.8186 85.4607 49.7534 83.474 51.2511 81.8668C51.6309 81.468 52.0289 81.0961 52.4799 80.7514C52.9225 80.4378 53.3825 80.1398 53.8713 79.8978C54.8409 79.4104 55.9119 79.0976 56.9776 79.0953Z" fill="black"/>
<path d="M71.5895 58.468C72.8901 63.1212 75.2719 67.9188 71.6353 69.8635C67.9986 71.8074 60.2996 66.4505 51.4956 71.1329C43.6136 75.3245 44.5934 86.5575 50.2166 91.2498C57.9564 97.7088 84.5137 92.7476 89.3727 85.6365C94.1435 78.6545 90.7936 70.4141 87.699 63.6083C86.3106 60.5555 83.8679 55.4356 80.5305 53.3023C75.396 50.0215 70.3165 53.9132 71.5895 58.468Z" fill="#E6E6CF"/>
<path d="M68.2372 70.2251C71.645 72.3012 63.8287 78.0531 55.3735 76.7689C49.3433 75.8539 50.1158 72.0668 52.8812 70.4758C58.9572 67.904 64.4151 69.8051 68.2372 70.2251Z" fill="#F6F6E5"/>
<path d="M66.4563 94.6426C66.4563 94.6426 66.4563 94.6426 66.4555 94.6426C62.0138 95.0058 53.9505 95.1058 49.8531 91.686C46.6117 88.9809 44.8231 84.2761 45.2971 79.699C45.7148 75.6642 47.8216 72.4436 51.2294 70.6315C53.3646 69.4953 55.5754 68.8481 57.9879 68.65C60.877 68.4133 63.4749 68.8689 65.767 69.27C67.4331 69.562 68.8718 69.8146 70.0245 69.7199C70.5621 69.6756 71.0013 69.5585 71.3686 69.3628C73.8016 68.0622 73.1407 65.3314 71.764 60.989C71.5189 60.2153 71.2654 59.4151 71.0437 58.6221C70.5837 56.9762 70.8481 55.3261 71.7882 53.9749C72.7635 52.5725 74.3467 51.684 76.1312 51.5375C77.6921 51.4102 79.3192 51.8549 80.8362 52.8244C84.4778 55.1516 87.0976 60.9133 88.2162 63.3734C91.6649 70.9579 94.6312 78.9488 89.8418 85.958C86.6587 90.615 75.4177 93.9087 66.4563 94.6426ZM58.0806 69.782C55.8251 69.9668 53.758 70.5727 51.7624 71.635C48.6992 73.2639 46.8043 76.1694 46.4264 79.816C45.9974 83.9625 47.6668 88.3821 50.5802 90.8134C53.3464 93.1221 59.0997 94.1049 66.3633 93.5103C76.4274 92.6862 86.3281 89.0869 88.9048 85.316C93.3605 78.795 90.4974 71.1329 87.1835 63.8434C86.1056 61.4749 83.5835 55.9283 80.2256 53.7817C78.9189 52.9467 77.5355 52.5619 76.2239 52.6691C74.778 52.788 73.5004 53.4996 72.7196 54.6225C71.9766 55.6904 71.7697 57.0019 72.1366 58.3149C72.3526 59.0894 72.6034 59.8794 72.8455 60.644C74.0739 64.5183 75.3439 68.5247 71.9032 70.3641C71.3963 70.6349 70.8122 70.7939 70.1176 70.8515C68.8192 70.9579 67.3147 70.6939 65.5715 70.3883C63.3466 69.9986 60.8244 69.5571 58.0806 69.782Z" fill="black"/>
<path d="M47.9128 86.2989C46.3943 90.7908 48.6671 96.6855 46.4688 96.6942C44.2704 96.7029 43.4423 96.5063 42.7882 97.561C38.6544 104.22 35.7573 113.034 34.8437 122.417C34.4927 126.019 46.1139 127.429 47.2394 126.513C48.3649 125.596 46.6685 122.51 46.6265 116.759C46.5963 112.596 47.6502 105.196 50.0177 102.648C52.3844 100.101 57.7496 99.3865 60.8793 94.3965C63.9255 89.5407 62.996 83.6218 58.2531 81.2612C54.613 79.4502 49.793 80.739 47.9128 86.2989Z" fill="#E6E6CF"/>
<path d="M59.49 87.1119C59.3391 93.4213 49.4792 101.197 47.4708 95.2001C47.6191 93.1566 46.8651 89.396 47.913 86.2973C49.0778 82.8571 51.3681 81.0506 53.8086 80.6079C53.812 80.6079 53.8161 80.6094 53.8161 80.6094C56.6092 80.5227 59.6171 81.849 59.49 87.1119Z" fill="#F6F6E5"/>
<path d="M46.9125 120.701C47.3555 123.962 48.0717 125.832 47.2405 126.513C46.1143 127.428 34.4927 126.019 34.8437 122.416C34.9727 121.105 35.1411 119.809 35.3454 118.527C37.8808 120.592 43.7635 122.46 46.9125 120.701Z" fill="#807E75"/>
<path d="M49.9806 82.7257C49.3582 83.6399 48.8861 84.6052 48.549 85.6141C48.193 86.6238 48.0043 87.638 47.9263 88.6972C47.8446 89.7497 47.8635 90.8199 47.9154 91.9023C47.9589 92.9888 48.0803 94.0659 48.0183 95.2448C47.9944 95.5436 47.9627 95.8493 47.8526 96.1871C47.7958 96.3549 47.7187 96.5332 47.5878 96.7093C47.4588 96.8839 47.2647 97.0487 47.0445 97.1415C46.8319 97.2346 46.5871 97.2562 46.426 97.2562L46.0125 97.2569L45.193 97.2539C44.663 97.2539 44.1145 97.2585 43.788 97.3922C43.6284 97.4588 43.5122 97.5505 43.3904 97.708C43.2833 97.847 43.1324 98.1215 42.9928 98.3473C41.8897 100.196 40.9253 102.139 40.0802 104.129C38.3971 108.112 37.1684 112.29 36.3603 116.543C36.1586 117.607 35.9846 118.677 35.8375 119.749C35.7645 120.285 35.696 120.822 35.6362 121.361L35.5507 122.168C35.5394 122.294 35.5186 122.457 35.5144 122.553C35.5136 122.601 35.5189 122.701 35.536 122.772C35.5984 123.078 35.8606 123.417 36.2218 123.705C36.5816 123.995 37.0216 124.243 37.482 124.457C38.41 124.886 39.428 125.192 40.4566 125.441C41.4879 125.687 42.5426 125.868 43.5989 125.983C44.127 126.04 44.6559 126.08 45.1779 126.095C45.6913 126.107 46.2338 126.099 46.6526 126.016C46.7475 125.998 46.8447 125.961 46.8342 125.964C46.8277 125.966 46.8281 125.968 46.8167 125.974L46.7922 125.995L46.8115 125.979C46.8508 125.946 46.8311 125.958 46.8307 125.962C46.8394 125.951 46.8497 125.938 46.8591 125.921C46.9019 125.855 46.942 125.671 46.9416 125.453C46.945 125.009 46.8573 124.475 46.7683 123.949C46.5818 122.887 46.373 121.79 46.2304 120.685C45.9323 118.477 45.8751 116.211 46.0684 113.996C46.2553 111.78 46.5935 109.581 47.1614 107.416C47.4512 106.334 47.7977 105.26 48.2876 104.217C48.5347 103.696 48.8192 103.184 49.1801 102.697C49.5455 102.204 50.0021 101.784 50.4682 101.432C51.4071 100.728 52.4078 100.225 53.3767 99.717C54.3489 99.2149 55.3034 98.7191 56.203 98.1526C57.1049 97.5913 57.942 96.9498 58.6979 96.2272C59.45 95.5001 60.109 94.6843 60.6761 93.7959C61.8042 92.0235 62.5113 89.9599 62.6036 87.758C63.0734 89.9288 62.582 92.2886 61.5118 94.2848C61.247 94.7745 60.9379 95.2751 60.6012 95.7281C60.2584 96.1852 59.8828 96.6165 59.4829 97.024C58.6824 97.8383 57.7684 98.5264 56.8238 99.1334C55.8773 99.7401 54.8921 100.261 53.9274 100.77C52.9673 101.282 52.0121 101.781 51.2055 102.4C50.8034 102.71 50.4508 103.043 50.1678 103.433C49.8784 103.827 49.6321 104.276 49.4146 104.746C48.9811 105.687 48.6591 106.706 48.3924 107.738C47.8685 109.81 47.5563 111.955 47.3944 114.099C47.2246 116.246 47.2771 118.379 47.5696 120.507C47.7099 121.573 47.9131 122.625 48.1083 123.718C48.1991 124.269 48.3035 124.817 48.3054 125.47C48.2971 125.794 48.2751 126.173 48.05 126.591C47.9929 126.693 47.9229 126.791 47.8416 126.882C47.792 126.935 47.7262 126.998 47.7126 127.007L47.6929 127.024C47.6517 127.061 47.6513 127.058 47.6279 127.077C47.5889 127.106 47.5601 127.123 47.5253 127.144C47.276 127.282 47.1054 127.316 46.934 127.357C46.2784 127.482 45.7197 127.476 45.1431 127.468C44.5726 127.454 44.0109 127.412 43.4521 127.354C42.3357 127.235 41.2311 127.048 40.1358 126.791C39.0414 126.53 37.9553 126.2 36.8987 125.707C36.3717 125.457 35.8492 125.167 35.3589 124.769C34.8815 124.375 34.3798 123.837 34.2066 123.061C34.1661 122.863 34.1487 122.69 34.1593 122.463C34.1706 122.286 34.1877 122.177 34.2009 122.031L34.2925 121.208C34.3564 120.659 34.4287 120.111 34.5058 119.563C34.6613 118.47 34.8448 117.379 35.0559 116.294C35.9018 111.958 37.1706 107.695 38.9445 103.639C39.8317 101.611 40.8368 99.6371 41.9952 97.7405C42.1477 97.5038 42.2525 97.2929 42.476 96.9956C42.6867 96.7192 43.0117 96.4556 43.362 96.3234C43.7105 96.189 44.0388 96.1533 44.3381 96.1333C44.6388 96.1155 44.921 96.1178 45.1987 96.1201L46.0182 96.1325L46.4237 96.1356C46.5353 96.1356 46.5674 96.1276 46.6083 96.114C46.6601 96.0947 46.7343 96.0273 46.8012 95.8338C46.8648 95.652 46.9004 95.4107 46.9201 95.1649C46.9866 94.1568 46.8841 93.0471 46.8489 91.9496C46.8051 90.8468 46.7948 89.7232 46.9318 88.598C47.0574 87.4782 47.3854 86.3405 47.8999 85.3411C48.4162 84.3352 49.104 83.4055 49.9806 82.7257Z" fill="black"/>
<path d="M73.6332 28.0422C66.9197 30.2921 60.5225 37.635 62.0104 47.1967C63.6401 57.6663 72.216 64.5353 82.8802 61.9267C87.6642 60.7565 91.9486 58.6524 93.9192 57.1061C95.8905 55.5602 97.9459 56.9137 99.3328 55.575C100.064 54.8702 101.011 52.6331 100.443 52.0446C99.5238 51.8443 96.1527 53.1883 94.6633 52.0113C92.9416 50.6509 95.4873 48.4741 96.2836 48.2692C97.473 47.9613 100.204 49.5894 101.839 48.0208C102.5 47.219 102.684 43.2055 101.892 42.6722C101.101 42.1382 98.5856 43.7057 97.0936 42.5976C95.2554 36.9836 89.7321 22.6474 73.6332 28.0422Z" fill="#F6F6E5"/>
<path d="M92.3357 47.1259C89.7238 45.6894 83.8911 45.1198 80.3604 49.2804C80.4546 46.8528 82.4811 43.4997 85.6866 43.4569C88.9109 43.4141 91.2556 45.5584 92.3357 47.1259Z" fill="black"/>
<path d="M82.6182 39.1521C87.3179 36.0542 92.4095 40.4545 92.1659 46.4867C90.9296 41.6702 86.1459 39.2282 82.6182 39.1521Z" fill="black"/>
<path d="M73.6338 28.0406C74.7513 27.6665 75.8152 27.3854 76.8309 27.1934C73.17 28.6087 69.2042 32.3879 69.3514 40.7374C69.522 50.4775 78.8424 63.3825 92.8754 57.8393C90.6452 59.267 86.9465 60.9319 82.8823 61.926C72.2178 64.5342 63.6416 57.6655 62.0111 47.1967C60.5243 37.6342 66.9203 30.294 73.6338 28.0406Z" fill="#E6E6CF"/>
<path d="M99.0502 45.0327L99.152 45.0119C99.2023 45.001 99.2553 44.9911 99.3063 44.9831C99.399 44.9744 99.4902 44.9752 99.5795 44.9862C99.7584 45.0085 99.9249 45.0733 100.061 45.1702C100.341 45.3634 100.47 45.6716 100.479 45.9432C100.347 45.6989 100.124 45.5387 99.9075 45.5156C99.8004 45.5016 99.6968 45.5171 99.6082 45.5535C99.5632 45.572 99.5224 45.5955 99.4857 45.6209C99.4728 45.6349 99.4626 45.6459 99.4505 45.6565L99.3692 45.7209C99.2004 45.8534 98.956 45.8235 98.8233 45.655C98.6905 45.4857 98.7203 45.2414 98.8887 45.1085C98.9371 45.0695 98.9935 45.0452 99.0502 45.0327Z" fill="black"/>
<path d="M102.276 48.3279C102.272 48.3345 102.267 48.3392 102.262 48.3458C102.258 48.351 102.256 48.355 102.252 48.3609L102.276 48.3279Z" fill="black"/>
<path d="M102.595 42.6287C102.506 42.4829 102.426 42.3238 102.157 42.1583C102.127 42.142 102.123 42.1375 102.072 42.1125C102.013 42.086 101.951 42.0621 101.89 42.042C101.799 42.0178 101.709 41.9985 101.63 41.9917C101.303 41.9584 101.059 42.0012 100.818 42.0368C100.347 42.1174 99.9304 42.2261 99.5203 42.3037C98.7815 42.4567 98.0578 42.4991 97.5705 42.2246C96.6248 39.2593 95.3885 36.3382 93.6081 33.7138C92.6998 32.3765 91.6481 31.1188 90.4281 30.0258C89.2114 28.931 87.817 28.0103 86.2966 27.3646C84.778 26.714 83.1464 26.3376 81.509 26.2239C79.8706 26.1077 78.2291 26.2436 76.6376 26.5538C75.8409 26.7072 75.0555 26.9064 74.2822 27.137L73.7049 27.3165L73.411 27.4135L73.1322 27.5104C72.7376 27.6509 72.36 27.8032 71.9847 27.9691C70.487 28.6326 69.0899 29.5055 67.829 30.5417C65.3159 32.62 63.3347 35.3562 62.2312 38.4371C61.6773 39.9735 61.343 41.5895 61.2427 43.2175C61.1398 44.8441 61.2692 46.4855 61.5858 48.0685C62.2062 51.2349 63.5167 54.3048 65.5728 56.8247C67.6172 59.3352 70.512 61.2072 73.6448 61.7753C72.1974 61.1303 70.8468 60.3498 69.6268 59.4091C68.4109 58.4661 67.3187 57.3822 66.3797 56.1767C64.4867 53.7734 63.2613 50.8702 62.706 47.8545C62.1238 44.8464 62.3227 41.7084 63.3915 38.8608C64.4435 36.0118 66.3147 33.4812 68.6715 31.5714C69.8477 30.6151 71.1427 29.8005 72.525 29.1904C72.8704 29.0374 73.2233 28.8962 73.5702 28.7719L73.8487 28.6749L74.1158 28.5879L74.6655 28.4163C75.4001 28.1974 76.1431 28.0088 76.8918 27.8645C79.8767 27.2719 83.0132 27.3957 85.7733 28.5932C87.1508 29.1836 88.426 30.0073 89.5621 31.0059C90.6982 32.0046 91.6965 33.1703 92.5685 34.4292C94.3133 36.9574 95.5613 39.8243 96.5567 42.7749L96.6187 42.9596L96.7579 43.0536L96.7651 43.0589C97.2259 43.4065 97.7967 43.5516 98.3025 43.5743C98.8152 43.5993 99.2918 43.5307 99.742 43.4463C100.191 43.3611 100.62 43.2475 101.011 43.1801C101.2 43.1482 101.394 43.1267 101.503 43.1415C101.534 43.1422 101.549 43.149 101.565 43.1501C101.572 43.1581 101.58 43.1695 101.586 43.1835C101.64 43.2819 101.696 43.4599 101.732 43.6421C101.771 43.8261 101.798 44.0239 101.818 44.2242C101.856 44.6279 101.862 45.046 101.847 45.4618C101.831 45.8776 101.794 46.2938 101.727 46.6949C101.693 46.8952 101.652 47.0922 101.6 47.2724C101.551 47.447 101.47 47.6326 101.429 47.6807L101.471 47.6311L101.413 47.7023C101.408 47.7083 101.397 47.7193 101.385 47.7273C101.356 47.7496 101.317 47.7761 101.274 47.8011C101.188 47.8523 101.09 47.9091 100.983 47.9462C97.8668 49.027 97.0284 46.3957 94.5509 48.9327C92.8439 50.6813 93.6305 52.2605 94.796 52.7096C97.1745 53.6246 99.9482 52.0882 100.027 52.5756C100.027 52.6029 100.027 52.6316 100.022 52.6642C100.011 52.8209 99.9679 53.0111 99.9138 53.1974C99.8014 53.5761 99.6274 53.9586 99.4333 54.3165C99.3357 54.4964 99.2298 54.6695 99.1182 54.8225C99.0648 54.8963 98.9998 54.9778 98.9563 55.0236C98.9003 55.0849 98.8409 55.1425 98.7792 55.1914C98.5352 55.3917 98.2386 55.4992 97.8577 55.55C97.0992 55.6655 96.0955 55.5413 95.0801 55.8427C94.5724 55.9885 94.0931 56.2275 93.666 56.5551C93.3089 56.8478 92.9835 57.0966 92.6143 57.3496C91.157 58.3422 89.5561 59.1735 87.9305 59.9415C86.2947 60.6937 84.6089 61.3515 82.8823 61.926C84.6797 61.6367 86.4532 61.1708 88.1821 60.5679C89.0491 60.2706 89.9056 59.937 90.7439 59.5568C91.5857 59.1818 92.41 58.7638 93.2113 58.2801C93.6058 58.0442 94.0224 57.7681 94.3791 57.5026C94.6829 57.2909 95.0347 57.1307 95.4036 57.0425C95.7751 56.9523 96.1761 56.9236 96.61 56.9122C97.0439 56.8997 97.513 56.916 98.034 56.8509C98.5485 56.7872 99.1451 56.5933 99.6043 56.2097C99.7189 56.1165 99.8249 56.0166 99.9191 55.9079C100.027 55.7852 100.1 55.6867 100.178 55.575C100.329 55.3583 100.454 55.1402 100.569 54.9183C100.798 54.4737 100.97 54.0113 101.096 53.5136C101.155 53.2614 101.205 53.0031 101.211 52.7066C101.212 52.5578 101.204 52.4017 101.16 52.223C101.117 52.0476 101.035 51.8363 100.853 51.6496H100.852C100.065 51.0622 96.3755 52.9558 94.9466 51.6791C94.0114 50.8441 95.1361 49.2455 96.4973 48.7494C97.3019 48.4567 98.2148 49.4152 100.54 49.1554C100.824 49.1244 101.096 49.0194 101.373 48.9119C101.511 48.8585 101.649 48.7979 101.792 48.7203C101.863 48.6809 101.935 48.6381 102.013 48.5836C102.087 48.5275 102.164 48.4733 102.264 48.3453C102.484 48.0545 102.552 47.8223 102.633 47.5856C102.706 47.3474 102.758 47.116 102.801 46.8858C102.887 46.4256 102.935 45.9701 102.961 45.5122C102.985 45.0536 102.987 44.5949 102.952 44.1268C102.933 43.8924 102.906 43.6557 102.858 43.4107C102.805 43.1664 102.746 42.9173 102.595 42.6287ZM101.414 47.7C101.417 47.697 101.417 47.697 101.414 47.7ZM101.536 43.1361C101.534 43.1331 101.547 43.1399 101.562 43.1486C101.563 43.1486 101.563 43.1494 101.564 43.1501C101.553 43.1494 101.544 43.1433 101.536 43.1361Z" fill="black"/>
<path d="M64.2022 36.022C62.3254 32.9184 47.128 34.1462 51.8183 46.6866C47.9527 49.6727 48.6079 56.8785 52.4088 62.0828C56.6299 67.8612 63.0128 69.8642 59.7207 73.4737C63.4857 72.191 65.269 67.4401 61.178 62.1169C53.7779 52.4847 55.8147 44.1552 64.2022 36.022Z" fill="#6B6B6B"/>
<path d="M54.288 37.9444C53.4947 38.4806 51.4167 40.7923 52.9242 44.1503C52.9519 42.0246 53.6309 40.4492 55.5701 38.8063C56.6888 37.8576 55.6893 36.9991 54.288 37.9444Z" fill="#858585"/>
<path d="M60.0614 71.445C59.8794 70.3081 58.6158 69.0701 56.8631 67.5174C55.365 66.1919 53.5011 64.541 51.9519 62.418C48.3137 57.4398 47.1924 49.981 51.1484 46.5033C50.0853 43.4581 50.0891 40.8359 51.1601 38.7033C52.1554 36.7212 54.1064 35.226 56.6502 34.4924C60.0156 33.5225 63.6965 34.0887 64.6888 35.7278L64.9222 36.116L64.5976 36.4303C55.8243 44.9366 54.8812 52.988 61.6283 61.7707C63.7877 64.5808 64.5598 67.5075 63.8047 70.0115C63.2335 71.9028 61.5655 73.3355 59.099 73.8831C59.099 73.8831 60.2566 72.6625 60.0614 71.445ZM56.9638 35.5839C54.7276 36.2288 53.0263 37.518 52.174 39.2142C51.2063 41.1404 51.266 43.5872 52.3503 46.4867L52.4967 46.8794L52.1653 47.1354C48.7102 49.8057 49.0322 56.4976 52.8667 61.7477C54.3455 63.7708 56.0827 65.3091 57.616 66.6664C59.5669 68.3944 61.1074 69.7589 61.1948 71.3847C61.2072 71.6059 61.1914 71.8256 61.1486 72.0437C61.8867 71.4359 62.4333 70.6251 62.7182 69.6821C63.3647 67.5385 62.6588 64.9747 60.7287 62.4627C57.0099 57.6223 55.5315 53.0297 56.2087 48.4245C56.8178 44.2772 59.1799 40.2053 63.4242 35.9906C62.4065 35.1586 59.6604 34.8067 56.9638 35.5839Z" fill="black"/>
<path d="M64.2019 36.022C61.9173 36.4147 53.195 40.7737 53.2041 50.8191C53.2132 61.4571 60.8444 65.4654 61.2182 69.0999C61.6033 72.8318 56.6592 75.8331 53.7545 72.2376C54.8153 76.266 59.2325 77.2135 64.4213 72.7087C67.6498 69.9062 69.21 64.0377 64.8167 56.6342C60.4234 49.2304 58.6423 42.3541 64.2019 36.022Z" fill="#6B6B6B"/>
<path d="M61.3674 65.662C56.8818 60.4941 54.9498 55.9969 54.834 51.3107C54.7568 48.198 56.9749 48.1818 57.3914 52.1575C57.6634 54.7483 58.4049 60.4191 61.3674 65.662Z" fill="#858585"/>
<path d="M59.9487 75.9733C59.9487 75.9733 59.9479 75.974 59.9479 75.9733C58.2936 76.4512 56.7743 76.3379 55.5573 75.6449C54.4088 74.9924 53.3926 73.3268 53.3801 71.4582C53.3801 71.4582 55.2255 73.6521 57.8408 73.1515C59.4138 72.8504 60.8525 71.0935 60.6539 69.1587C60.5377 68.0388 59.5583 66.7815 58.3193 65.1902C55.9231 62.1139 52.6416 57.9007 52.6367 50.8199C52.6276 40.9623 60.7405 36.4049 63.5839 35.5854C63.7741 35.5305 63.9501 35.4892 64.1067 35.4619L65.6873 35.1911L64.6284 36.3977C59.9608 41.7137 60.1632 47.6792 65.3048 56.3438C70.0314 64.31 67.9828 70.3694 64.7933 73.139C63.1462 74.5671 61.5164 75.5226 59.9487 75.9733ZM55.4797 74.1853C55.6738 74.3679 55.8872 74.5254 56.1179 74.6565C57.0633 75.1942 58.28 75.2726 59.634 74.8814H59.6351C61.0431 74.4762 62.5284 73.6002 64.0496 72.28C66.9092 69.7976 68.6982 64.2873 64.3287 56.9243C60.9709 51.266 57.8593 44.0238 62.5704 37.19C59.3476 38.6893 53.7641 42.9195 53.7713 50.8184C53.7762 57.5095 56.9196 61.5443 59.2144 64.4914C60.5665 66.2267 61.6341 67.598 61.7824 69.0428C62.0196 71.3431 60.4605 73.5798 58.1559 74.2433C57.2317 74.5095 56.3199 74.4834 55.4797 74.1853Z" fill="black"/>
<path d="M64.1778 36.0099C61.9662 36.6469 57.8048 41.6463 59.5409 49.0334C61.9321 59.2136 68.523 60.3111 67.0461 65.8907C66.1189 69.3938 61.0345 73.5839 63.6357 79.0037C65.4459 82.7738 71.1126 82.2973 69.8558 87.2073C71.6501 85.1127 70.8727 82.7768 68.6006 81.04C66.8865 79.73 66.0516 76.7874 69.0496 73.4059C72.818 69.1541 77.2749 63.3768 71.234 56.0101C64.5259 47.8306 62.6521 41.01 64.1778 36.0099Z" fill="#6B6B6B"/>
<path d="M63.3143 53.9021C64.3104 55.8517 65.4733 57.0784 67.3232 59.5495C69.0703 61.8809 69.8128 64.8212 67.8744 68.0418C66.0532 71.0639 64.635 73.0923 64.8548 74.8563C65.1411 73.0699 67.7719 70.1107 69.2844 67.8649C71.2005 65.0193 71.4218 62.5925 69.9237 59.8585C67.7041 55.8037 66.2446 54.3214 65.1869 52.6887C63.0434 49.3818 61.8374 51.0122 63.3143 53.9021Z" fill="#858585"/>
<path d="M66.7463 82.6348C65.4286 81.8395 63.9355 80.9385 63.1244 79.2498C61.1924 75.2252 63.2273 71.8013 64.8642 69.0488C65.5679 67.8653 66.2322 66.747 66.4981 65.7445C67.1715 63.1969 66.0052 61.712 64.2385 59.4632C62.4393 57.1701 60.1993 54.3188 58.988 49.1641C57.2436 41.7398 61.2022 36.4026 63.9067 35.4993C63.9453 35.4868 63.9831 35.4743 64.021 35.4637L65.0258 35.1744L64.7201 36.1754C63.1202 41.419 65.524 48.1529 71.6719 55.6503C78.34 63.7801 72.5727 70.2868 69.4736 73.782C68.1396 75.2874 67.5056 76.8162 67.6395 78.2038C67.7326 79.1699 68.196 80.0167 68.9439 80.5878C70.4027 81.7031 71.2489 83.0097 71.3923 84.367C71.5107 85.4846 70.6463 87.0437 69.43 88.0818C69.988 85.1672 68.945 83.9625 66.7463 82.6348ZM63.326 37.1078C61.3479 38.6086 58.6668 42.832 60.093 48.9039C61.2469 53.8147 63.4006 56.5566 65.131 58.7607C66.965 61.0966 68.4139 62.9413 67.5945 66.0354C67.2884 67.1916 66.5844 68.3766 65.8388 69.6301C64.2639 72.2796 62.4786 75.2828 64.1462 78.7579C64.8109 80.1402 66.0918 80.9131 67.3308 81.6611C68.4695 82.3481 69.6294 83.0487 70.2158 84.1894C70.0141 83.2589 69.3283 82.3113 68.2554 81.4918C67.2687 80.7374 66.6321 79.5789 66.5103 78.3133C66.3945 77.1203 66.6684 75.2355 68.625 73.0276C72.6041 68.5398 76.3815 63.181 70.795 56.371C63.519 47.4978 62.5706 41.1479 63.326 37.1078Z" fill="black"/>
<path d="M66.8208 32.436C66.3305 30.2962 66.5246 21.7358 76.5112 19.9422C85.7502 18.2819 88.8176 27.9736 93.7098 27.1855C97.7021 26.5413 95.8916 20.9534 92.665 21.1655C97.1014 19.5627 99.5434 23.9608 99.3273 26.917C99.0587 30.5992 94.7033 35.0696 88.9261 31.7176C81.5578 27.4423 72.4746 27.0333 66.8208 32.436Z" fill="#6B6B6B"/>
<path d="M95.4675 32.9662C93.9955 33.5729 91.6163 33.9346 88.6421 32.2088C82.8513 28.85 76.3902 28.0823 71.3579 30.1577C69.8053 30.7981 68.4105 31.7028 67.2135 32.8473L66.4921 33.5366L66.2685 32.564C65.8516 30.7473 65.7975 23.3462 73.1405 20.3183C74.1324 19.9093 75.2329 19.5942 76.411 19.3825C82.0463 18.3698 85.5176 21.3996 88.3061 23.8335C90.1988 25.4859 91.8323 26.9121 93.6202 26.6239C93.8601 26.5853 94.081 26.5254 94.2762 26.444C95.6627 25.8725 95.4512 24.452 95.354 24.0305C95.0135 22.5634 94.039 21.4688 91.6829 21.2818C94.4389 19.8086 96.4201 20.5005 97.3908 21.2375C99.2918 22.68 100.021 25.214 99.8937 26.9579C99.7091 29.4964 97.8887 31.9679 95.4675 32.9662ZM70.9263 29.1075C76.2816 26.8992 83.1173 27.6904 89.2114 31.226C91.249 32.408 93.2635 32.647 95.0355 31.9161C97.3091 30.978 98.6313 28.6705 98.7622 26.8746C98.8715 25.3814 98.1997 23.2761 96.7053 22.143C96.1935 21.7548 95.6355 21.5158 95.0355 21.4268C95.7566 22.0396 96.2593 22.9114 96.4598 23.7729C96.8453 25.4366 96.1579 26.8973 94.7086 27.4946C94.4329 27.6086 94.1272 27.6926 93.8007 27.7453C91.4885 28.1179 89.581 26.4535 87.5605 24.6902C84.8197 22.2967 81.7119 19.5851 76.6126 20.5005C75.514 20.6978 74.4914 20.9898 73.5737 21.3689C67.9429 23.6904 67.1386 28.8288 67.2537 31.2964C68.3545 30.3944 69.5859 29.6593 70.9263 29.1075Z" fill="black"/>
<path d="M62.5817 38.7919C60.1087 36.8666 54.7669 29.9233 61.2209 24.3005C67.4701 18.8565 76.0161 21.4764 78.8868 27.4593C72.1737 27.0537 64.1547 32.9204 62.5817 38.7919Z" fill="#6B6B6B"/>
<path d="M60.5455 29.6059C59.8086 26.7364 64.9778 21.1133 72.2432 23.5124C68.633 23.921 66.0533 25.1136 63.9582 27.8816C62.2869 30.0899 60.7676 30.4705 60.5455 29.6059Z" fill="#858585"/>
<path d="M62.9088 39.766L62.234 39.24C60.423 37.8293 57.6897 34.3735 57.5872 30.633C57.5168 28.0929 58.615 25.8187 60.8497 23.8718C61.9385 22.9235 63.1328 22.1778 64.3986 21.6556C70.0763 19.3144 76.806 21.8078 79.3993 27.2135L79.8181 28.0846L78.853 28.0263C77.0137 27.9161 74.9538 28.3043 72.8969 29.153C68.1681 31.1026 64.1516 35.1264 63.1305 38.9389L62.9088 39.766ZM64.831 22.7065C63.6783 23.1814 62.5903 23.862 61.595 24.7288C59.6278 26.4425 58.6608 28.4178 58.7214 30.6023C58.8023 33.5441 60.7245 36.3068 62.3032 37.8016C63.7271 33.9353 67.772 30.038 72.4649 28.1024C74.3198 27.3374 76.1879 26.9204 77.9269 26.8765C75.3287 22.5857 69.6609 20.7152 64.831 22.7065Z" fill="black"/>
<path d="M64.123 35.9561C65.6817 33.3096 71.247 28.2932 77.8606 30.3125C84.2022 32.2481 88.5327 37.0532 93.7556 35.0672C98.2688 33.3513 98.2938 28.8139 96.622 27.0571C96.9292 28.264 96.5138 30.1894 93.9913 30.5427C90.8112 30.9889 88.8467 27.3835 82.7048 25.2661C76.5698 23.1495 66.5393 24.2273 64.123 35.9561Z" fill="#6B6B6B"/>
<path d="M76.1554 26.0122C78.8055 25.5929 82.3075 26.5151 84.7226 27.802C88.1823 29.6452 89.5608 31.8118 92.6217 32.0004C89.54 32.8502 88.379 31.6622 85.3688 29.9417C83.1795 28.6909 81.2415 27.4259 76.7827 27.73C72.9345 27.9917 72.0553 26.6605 76.1554 26.0122Z" fill="#858585"/>
<path d="M94.2709 35.4721C94.1688 35.5149 94.0647 35.5581 93.9581 35.5978C90.3282 36.9783 87.085 35.2858 83.6522 33.4933C81.792 32.5227 79.8683 31.5191 77.6957 30.8549C75.3434 30.1368 72.9388 30.2883 70.5483 31.3059C67.515 32.5981 65.3802 34.7018 63.6328 36.9487C64.2007 29.9819 68.7321 26.2001 71.6545 24.956C74.9882 23.5366 79.1881 23.4514 82.8906 24.728C85.8395 25.7452 87.848 27.0965 89.4618 28.1819C91.19 29.346 92.4392 30.1857 93.9138 29.9793C94.2543 29.9319 94.563 29.8497 94.8297 29.7357C96.2998 29.1101 96.8325 27.8088 96.1973 26.3137C97.4824 27.3074 98.4297 29.4282 98.0892 31.0775C97.6848 33.0351 96.3293 34.5958 94.2709 35.4721ZM70.1042 30.2622C72.7463 29.1362 75.4115 28.9708 78.026 29.7687C80.3 30.4633 82.2706 31.4922 84.1769 32.4871C87.5166 34.2299 90.4012 35.735 93.5544 34.536C93.6475 34.5011 93.7386 34.4644 93.826 34.4265C95.5322 33.7009 96.6516 32.4295 96.9777 30.848C97.0977 30.2682 97.0991 29.6683 96.997 29.1158C96.6981 29.7994 96.1447 30.4118 95.2738 30.7822C94.9156 30.9352 94.51 31.0438 94.0708 31.1056C92.1664 31.3726 90.6929 30.3815 88.8289 29.126C87.2703 28.077 85.3296 26.7715 82.521 25.8032C79.0765 24.6151 75.1807 24.6901 72.0979 26.002C68.981 27.3286 66.7021 29.8797 65.4109 33.4509C66.6264 32.2421 68.2478 31.0514 70.1042 30.2622Z" fill="black"/>
<path d="M71.4059 41.6588C69.7429 36.1891 62.8497 30.1717 56.9561 33.3589C57.8924 40.9286 62.6764 45.3411 65.1555 46.7809C69.043 49.0381 72.9695 46.804 71.4059 41.6588Z" fill="#F6F6E5"/>
<path d="M69.6161 37.2157C69.1534 36.5492 68.6223 35.9308 68.0476 35.3548C67.4722 34.7791 66.8522 34.2409 66.1758 33.774C64.8343 32.834 63.2791 32.1179 61.5941 31.8884C59.917 31.6456 58.1303 31.9956 56.6852 32.8594L56.3311 33.0711L56.392 33.429C56.5599 35.1256 56.956 36.8117 57.5874 38.4064C58.2181 40.0019 59.0719 41.5085 60.1171 42.8642C60.635 43.5456 61.2089 44.1829 61.8195 44.7809C62.432 45.3763 63.0812 45.9364 63.7909 46.42C64.4919 46.9044 65.2682 47.3304 66.1103 47.5694C66.9437 47.8053 67.8449 47.8674 68.6567 47.6277C67.8161 47.5857 67.0364 47.3516 66.3222 47.0043C65.6053 46.6627 64.9656 46.1908 64.3387 45.6856C63.0918 44.6715 61.989 43.474 61.0527 42.1678C60.1168 40.8593 59.3469 39.4369 58.7583 37.9444C58.4643 37.1972 58.2162 36.4326 58.0058 35.6558C57.8348 35.0117 57.7055 34.3568 57.5916 33.6979C58.1356 33.468 58.697 33.2949 59.2732 33.2074C59.9791 33.1025 60.699 33.1033 61.411 33.2067C62.8376 33.4131 64.218 34.0114 65.4642 34.8249C66.0857 35.237 66.6846 35.6933 67.2411 36.2C67.7987 36.7075 68.3166 37.2601 68.8088 37.8361C69.7928 38.9953 70.6553 40.2542 71.4051 41.6588C71.2296 40.0633 70.5343 38.5435 69.6161 37.2157Z" fill="black"/>
<path d="M69.1228 41.9962C68.0393 38.4644 64.0209 34.3599 60.0615 35.8459C61.4045 40.7916 63.9691 43.4077 65.5489 44.3484C68.0276 45.8232 70.1431 45.3187 69.1228 41.9962Z" fill="#E6E6CF"/>
<path d="M65.5485 44.3484C66.2548 44.6718 67.0092 44.9282 67.7397 44.9305C68.1002 44.9297 68.4456 44.8335 68.6734 44.6362C68.9022 44.44 69.0101 44.137 69.0313 43.8034C69.0714 43.1289 68.8527 42.392 68.5743 41.7118C68.2992 41.0248 67.9353 40.3677 67.5082 39.7584C66.6714 38.5253 65.5728 37.4743 64.3262 36.7241C63.082 35.9705 61.6338 35.574 60.0615 35.8463C60.7326 35.4194 61.5646 35.2146 62.3953 35.2388C63.2272 35.2661 64.0531 35.4986 64.79 35.8781C65.5292 36.2545 66.1924 36.7582 66.7731 37.3331C67.355 37.9072 67.874 38.5389 68.3132 39.2229C68.7464 39.9099 69.1122 40.6415 69.3774 41.416C69.5086 41.8133 69.6055 42.1958 69.674 42.612C69.7364 43.0217 69.7739 43.4501 69.694 43.8909C69.6229 44.323 69.408 44.7983 69.0006 45.0721C68.5984 45.3493 68.1233 45.3762 67.7159 45.3258C66.884 45.2115 66.178 44.8063 65.5485 44.3484Z" fill="black"/>
<path d="M83.139 87.3751C88.3147 95.7299 101.953 113.634 106.057 113.498C109.486 113.384 116.559 105.839 114.982 104.037C113.483 102.326 107.431 101.193 99.7381 94.7759C94.0018 89.9909 89.5339 84.8124 87.7328 82.8696C84.5573 79.4445 80.2435 82.701 83.139 87.3751Z" fill="#E6E6CF"/>
<path d="M110.199 101.422C112.589 102.566 114.281 103.24 114.982 104.037C116.562 105.84 109.486 113.383 106.058 113.495C105.103 113.526 103.627 112.581 101.861 111C105.312 110.033 111.042 105.358 110.199 101.422Z" fill="#807E75"/>
<path d="M85.2856 81.4702C86.0873 81.5805 86.9437 82.0167 87.7355 82.8688C89.3842 84.6454 93.2653 89.1361 98.3085 93.5527C100.392 96.9975 94.9998 98.1817 87.7847 90.392C80.9865 83.0514 83.6154 81.5766 85.2781 81.4672C85.2803 81.4702 85.2856 81.4702 85.2856 81.4702Z" fill="#F6F6E5"/>
<path d="M82.3916 85.7592C82.6125 86.1682 82.849 86.5477 83.1127 86.9078L83.9351 87.9811C84.2101 88.3428 84.4833 88.7044 84.7466 89.0729C85.0159 89.4354 85.28 89.8039 85.541 90.1735C86.5704 91.6611 87.616 93.1396 88.6912 94.5976C90.8385 97.5133 93.0656 100.373 95.3903 103.143C96.5528 104.527 97.7441 105.886 98.9694 107.206C100.196 108.522 101.46 109.808 102.81 110.953C103.483 111.519 104.187 112.06 104.909 112.451C105.264 112.642 105.644 112.794 105.927 112.818C106.006 112.824 106.023 112.821 106.162 112.811L106.275 112.795L106.407 112.771C106.588 112.733 106.775 112.676 106.961 112.606C107.713 112.324 108.455 111.861 109.155 111.354C109.856 110.841 110.523 110.265 111.155 109.654C111.786 109.044 112.385 108.397 112.926 107.714C113.463 107.034 113.963 106.309 114.28 105.577C114.437 105.222 114.531 104.833 114.499 104.628C114.494 104.577 114.48 104.55 114.473 104.528C114.459 104.505 114.474 104.52 114.382 104.423C114.288 104.328 114.126 104.196 113.967 104.09C113.3 103.642 112.467 103.264 111.657 102.879C110.015 102.117 108.348 101.327 106.742 100.428C105.131 99.536 103.579 98.5343 102.088 97.4535C100.595 96.3742 99.1768 95.1945 97.8092 93.9822C96.4393 92.7684 95.1107 91.5126 93.8161 90.2231C92.5223 88.9332 91.2595 87.6149 90.03 86.2689C89.4187 85.5929 88.8395 84.8882 88.2951 84.1557C88.025 83.7903 87.7636 83.4077 87.5109 83.0381C87.2665 82.664 86.9876 82.3235 86.6646 81.9812C87.1155 82.1137 87.5358 82.3659 87.91 82.6549C88.2769 82.9499 88.6235 83.2408 88.9639 83.5475C89.6392 84.1607 90.2827 84.7992 90.9065 85.4536C92.1466 86.7711 93.403 88.069 94.6953 89.3301C95.9861 90.5919 97.3091 91.8197 98.6683 93.0009C100.029 94.1859 101.417 95.3175 102.877 96.3533C104.334 97.394 105.855 98.3378 107.418 99.2084C108.983 100.081 110.598 100.846 112.25 101.611C113.076 102.007 113.91 102.371 114.757 102.931C114.972 103.08 115.172 103.228 115.397 103.456C115.462 103.52 115.632 103.705 115.719 103.888C115.811 104.07 115.867 104.261 115.889 104.437C115.962 105.143 115.76 105.652 115.571 106.128C115.161 107.064 114.611 107.842 114.028 108.588C113.441 109.328 112.806 110.019 112.13 110.668C111.452 111.316 110.735 111.923 109.967 112.477C109.194 113.025 108.382 113.535 107.43 113.889C107.191 113.975 106.942 114.05 106.677 114.103L106.474 114.139L106.25 114.164C106.163 114.171 105.952 114.184 105.806 114.165C105.181 114.096 104.714 113.866 104.271 113.634C103.4 113.15 102.666 112.564 101.954 111.96C100.543 110.743 99.2676 109.422 98.0293 108.073C96.7938 106.721 95.6142 105.327 94.4581 103.915C92.1505 101.089 89.9502 98.1844 87.8298 95.2221C86.772 93.739 85.7275 92.2458 84.7273 90.7219C84.4802 90.3386 84.2404 89.9504 84.0108 89.5554C83.7755 89.165 83.5549 88.7639 83.3407 88.3594C83.1266 87.9542 82.9216 87.5509 82.7385 87.1123C82.5645 86.6768 82.4359 86.2197 82.3916 85.7592Z" fill="black"/>
<path d="M102.331 34.6609C102.408 33.8569 103.008 33.5172 103.382 33.5543C103.757 33.5891 104.282 34.0364 104.205 34.84C104.128 35.644 103.429 37.0176 103.054 36.982C102.68 36.9464 102.254 35.4634 102.331 34.6609Z" fill="#1ABAFF"/>
<path d="M106.495 36.203C107.117 35.689 107.78 35.8738 108.02 36.1643C108.26 36.4559 108.315 37.1429 107.693 37.6561C107.071 38.1692 105.606 38.6464 105.366 38.3567C105.126 38.0655 105.873 36.7172 106.495 36.203Z" fill="#1ABAFF"/>
<path d="M108.487 40.136C109.29 40.2121 109.629 40.8135 109.593 41.1884C109.557 41.5633 109.111 42.0886 108.308 42.011C107.506 41.9341 106.133 41.2343 106.169 40.8593C106.205 40.4852 107.685 40.0591 108.487 40.136Z" fill="#1ABAFF"/>
</svg>
