<svg width="133" height="137" viewBox="0 0 133 137" fill="none" xmlns="http://www.w3.org/2000/svg">
<path d="M10.2471 66.679C11.2043 64.6946 13.6387 62.9339 15.1144 65.4735C16.5906 68.0123 16.3072 78.0332 25.4112 78.5064C34.513 78.9796 34.8493 70.5448 39.4764 69.357C43.4358 68.3414 45.7182 71.5661 47.0848 76.3083C49.7203 71.4419 51.2027 61.265 45.1228 56.4135C40.1515 52.4482 31.389 53.2029 27.7725 61.113C25.0455 67.0782 21.4289 69.0627 19.0567 64.6034C16.0585 58.9668 10.8505 60.2427 10.2471 66.679Z" fill="#6B6B6B"/>
<path d="M45.5331 55.8962C43.8822 54.5797 41.8519 53.7484 39.6627 53.4919C35.4714 53.0016 29.9892 54.6745 27.1706 60.8376C25.5285 64.4311 23.5127 66.5464 21.9111 66.3596C20.8768 66.2384 20.1048 65.1686 19.6383 64.2927C18.4125 61.9884 16.7475 60.6036 14.9483 60.3934C13.8783 60.2679 12.8502 60.5768 11.9756 61.2848C10.1848 62.7366 9.77235 65.9943 9.87622 67.6338C11.8027 65.0497 12.5936 64.9197 13.4149 64.881C13.8374 64.8602 14.2146 65.2405 14.5429 65.8053C14.8426 66.32 15.0856 67.3025 15.3664 68.441C16.2796 72.131 17.8069 78.3081 24.5783 79.0986C24.8357 79.1294 25.1011 79.1511 25.3749 79.1656C31.3148 79.4745 33.809 76.1276 35.812 73.4395C37.0281 71.8071 38.0783 70.3968 39.639 69.9967C40.2419 69.8416 40.8154 69.7954 41.3431 69.8566C43.5363 70.113 45.2546 72.3451 46.4491 76.4925L46.8958 78.0425L47.6638 76.6242C50.173 71.9909 52.1236 61.1552 45.5331 55.8962ZM41.4963 68.5436C40.807 68.4635 40.072 68.522 39.3115 68.7168C37.2988 69.234 36.0625 70.8925 34.7536 72.6496C32.7505 75.339 30.6789 78.1183 25.444 77.8464C18.9834 77.5222 17.6229 72.0618 16.6494 68.1242C16.3311 66.8368 16.0794 65.8199 15.685 65.1409C15.0015 63.9654 14.1569 63.6376 13.5689 63.5688C12.8365 63.4829 12.1292 63.7305 11.5056 64.1619C11.8308 63.3772 12.2701 62.748 12.8061 62.3144C13.399 61.8333 14.0865 61.6245 14.796 61.7069C16.1313 61.8633 17.4724 63.0322 18.4728 64.9149C18.9596 65.8296 19.5106 66.5129 20.1184 66.9777C21.2042 68.2722 22.7359 69.1067 24.3723 69.2636C25.973 69.409 28.4069 68.9772 30.9165 66.0943C35.3614 60.9887 38.2913 59.6757 42.1107 61.0782C45.2303 62.2237 47.7109 66.9341 46.9847 73.9612C45.6515 70.5986 43.8452 68.819 41.4963 68.5436ZM47.9781 72.1279C48.1268 65.7102 45.5538 61.4011 42.4139 60.2489C37.6337 58.4958 34.2153 60.9622 30.2528 65.5136C27.9875 68.1167 25.848 68.5119 24.4519 68.3846C23.7024 68.3159 22.9727 68.0643 22.3085 67.6805C24.4018 67.547 26.5826 65.3013 28.3713 61.3883C30.8941 55.869 35.779 54.3687 39.5095 54.8045C41.4536 55.0327 43.252 55.7676 44.7097 56.9308C49.2733 60.5719 49.2698 67.2553 47.9781 72.1279Z" fill="black"/>
<path d="M45.1873 65.6625C44.2182 63.2159 41.7587 60.9252 37.8997 61.9219C32.1446 63.4071 31.6362 71.3723 23.7412 70.0307C25.1047 71.0031 28.8163 71.6657 31.6081 69.0481C35.2299 65.6498 37.7923 63.0423 41.1676 64.9184C42.5465 65.6841 43.6513 67.7598 44.807 67.9845C45.7075 68.159 45.892 67.4386 45.1873 65.6625Z" fill="#858585"/>
<path d="M89.2942 94.4574C98.6465 100.725 120.948 112.124 125.175 109.974C128.707 108.176 132.304 97.3041 129.806 96.1793C127.431 95.1086 121.214 97.1256 110.145 94.1313C101.889 91.8975 94.7747 88.63 91.9751 87.4655C87.0399 85.411 84.0629 90.9506 89.2942 94.4574Z" fill="#CCCAB8"/>
<path d="M124.066 95.8739C126.843 95.8461 128.722 95.6897 129.808 96.1783C132.305 97.3023 128.706 108.176 125.175 109.972C124.156 110.491 122.086 110.22 119.398 109.423C122.419 106.931 126.038 99.8401 124.066 95.8739Z" fill="#807E75"/>
<path d="M87.4121 92.6889C87.7981 93.0528 88.2013 93.3625 88.6225 93.6467C89.0516 93.9238 89.482 94.1578 89.949 94.4014L91.3121 95.1408L92.6651 95.8955C94.4599 96.9159 96.2371 97.9676 98.0536 98.9528C101.678 100.937 105.367 102.809 109.117 104.531C110.993 105.39 112.886 106.208 114.796 106.964C116.704 107.719 118.638 108.42 120.59 108.93C121.562 109.178 122.551 109.384 123.482 109.426C123.939 109.445 124.4 109.412 124.701 109.296C124.783 109.266 124.804 109.251 124.943 109.175L125.052 109.105L125.178 109.018C125.346 108.893 125.512 108.745 125.673 108.585C126.319 107.94 126.87 107.112 127.355 106.252C127.837 105.389 128.254 104.476 128.612 103.541C128.974 102.608 129.277 101.649 129.501 100.685C129.716 99.7287 129.872 98.7303 129.801 97.8562C129.775 97.431 129.627 97.0336 129.523 96.9613C129.513 96.9476 129.5 96.945 129.492 96.9345C129.487 96.9327 129.481 96.9309 129.478 96.9274L129.474 96.9248C129.471 96.923 129.5 96.9358 129.476 96.9256L129.431 96.9067C129.358 96.875 129.348 96.8758 129.307 96.8595L129.167 96.8173C128.976 96.7639 128.755 96.7287 128.526 96.7027C127.598 96.6062 126.554 96.6441 125.523 96.6577C123.447 96.7027 121.33 96.6939 119.23 96.5225C117.128 96.3528 115.039 96.0348 112.982 95.5942C110.918 95.1536 108.902 94.572 106.913 93.949C104.92 93.3233 102.949 92.6325 100.999 91.8949C99.0522 91.1481 97.1086 90.3916 95.2191 89.5174C94.2741 89.083 93.3499 88.6001 92.434 88.1115C91.9688 87.8594 91.5427 87.6078 91.0806 87.4215C90.6172 87.2364 90.1264 87.0946 89.6013 87.0333C90.1114 86.8941 90.6647 86.8734 91.2034 86.9465C91.4718 86.9826 91.7456 87.0324 92.0066 87.1109L92.7619 87.3431C93.7526 87.6673 94.7327 88.0084 95.6988 88.3776C97.6323 89.1125 99.539 89.9025 101.479 90.6013C103.416 91.3093 105.369 91.968 107.34 92.5624C109.315 93.1555 111.294 93.7009 113.293 94.1036C117.304 94.9324 121.369 95.1791 125.492 95.0425C126.532 95.028 127.567 94.9756 128.704 95.0848C128.99 95.1157 129.283 95.1597 129.592 95.243C129.669 95.262 129.748 95.2871 129.825 95.3117C129.906 95.3395 130.018 95.3805 130.064 95.4012L130.108 95.4201L130.156 95.4408L130.195 95.4606L130.352 95.5457C130.449 95.6109 130.547 95.6792 130.628 95.7572C130.97 96.0722 131.132 96.437 131.247 96.7639C131.354 97.0935 131.404 97.4059 131.433 97.7081C131.528 98.9096 131.339 99.9878 131.111 101.051C130.87 102.111 130.549 103.138 130.165 104.141C129.776 105.142 129.324 106.118 128.79 107.064C128.249 108.006 127.644 108.926 126.819 109.748C126.611 109.953 126.388 110.15 126.138 110.333L125.944 110.467L125.723 110.603C125.636 110.652 125.429 110.766 125.267 110.819C124.588 111.059 123.988 111.059 123.415 111.041C122.272 110.982 121.223 110.745 120.188 110.478C116.083 109.349 112.266 107.653 108.489 105.885C104.722 104.097 101.033 102.168 97.4048 100.123C95.5968 99.0916 93.7834 98.065 92.0401 96.9204L90.7514 96.0312C90.331 95.7197 89.9112 95.4082 89.5001 95.0839C88.6722 94.4486 87.8553 93.6502 87.4121 92.6889Z" fill="black"/>
<path d="M49.3747 82.8235C44.9641 85.8191 42.9836 92.6356 41.0162 91.156C39.0475 89.6761 38.4437 88.9394 37.1422 89.4408C28.9259 92.606 20.3465 98.54 13.1495 106.324C10.3882 109.31 19.7981 118.439 21.4253 118.381C23.0533 118.321 23.6395 114.408 27.5122 109.231C30.3158 105.482 36.2884 99.5688 40.1333 98.8899C43.9783 98.2109 49.251 101.201 55.437 98.8511C61.4566 96.5648 64.6524 90.6339 62.0257 85.3106C60.0108 81.2263 54.8327 79.1172 49.3747 82.8235Z" fill="#CCCAB8"/>
<path d="M25.2259 112.71C23.2959 116.068 22.663 118.337 21.4293 118.379C19.7991 118.441 10.3891 109.312 13.1505 106.324C14.088 105.309 15.047 104.33 16.0285 103.382C17.3203 107.151 21.2955 112.365 25.2259 112.71Z" fill="#807E75"/>
<path d="M54.168 80.9509C52.984 81.303 51.9061 81.8079 50.918 82.4432C50.4216 82.7565 49.9471 83.0962 49.4947 83.4707C49.0603 83.8201 48.6351 84.2254 48.2465 84.6497C47.4543 85.4965 46.7355 86.4293 46.0459 87.4043C45.3522 88.3812 44.7171 89.4024 43.9561 90.4255C43.7616 90.681 43.5587 90.9375 43.3197 91.1886C43.0785 91.4398 42.8153 91.698 42.4122 91.9139C42.2119 92.0178 41.961 92.1099 41.6697 92.1253C41.3818 92.1434 41.075 92.0711 40.8427 91.9491C40.7282 91.8914 40.6134 91.8138 40.535 91.7557L40.3515 91.6178L39.9831 91.338C39.4985 90.9705 39.0179 90.5789 38.5813 90.3141C38.3639 90.1814 38.1724 90.1026 38.0219 90.0801C37.8731 90.0559 37.7156 90.0775 37.5047 90.1488C36.4295 90.5626 35.3133 91.0481 34.2359 91.5583C33.1536 92.072 32.0885 92.6219 31.0406 93.2044C26.8515 95.5435 22.9295 98.3616 19.3125 101.526C17.5054 103.112 15.7787 104.786 14.1353 106.543L13.8272 106.872C13.7282 106.977 13.7119 107.003 13.6648 107.081C13.5856 107.214 13.5381 107.378 13.5222 107.578C13.4901 107.978 13.6032 108.486 13.7925 108.983C14.1771 109.988 14.8153 110.976 15.5041 111.913C16.2004 112.85 16.9772 113.746 17.8007 114.594C18.6233 115.436 19.4987 116.249 20.4133 116.924C21.6566 117.688 21.3115 117.836 22.1245 116.739C22.6993 115.781 23.2257 114.64 23.8142 113.562C24.9787 111.379 26.3532 109.275 27.9615 107.372C29.5679 105.481 31.3055 103.723 33.1941 102.112C34.1421 101.311 35.1285 100.546 36.1896 99.8653C37.2556 99.1934 38.3793 98.5634 39.7173 98.2466C41.0764 97.9558 42.3716 98.1021 43.5987 98.2726C44.8289 98.4532 46.0146 98.6916 47.1968 98.8595C49.5545 99.2159 51.9141 99.2397 54.179 98.6691C56.4509 98.1038 58.6009 97.0411 60.4644 95.4404C59.1 97.4971 56.8818 98.985 54.4924 99.7631C53.2904 100.168 52.0188 100.349 50.7587 100.409C49.4951 100.453 48.2407 100.352 47.0145 100.188C45.787 100.028 44.5851 99.8019 43.4077 99.6446C42.2383 99.4895 41.0649 99.3992 40.0368 99.6393C39.0016 99.8922 37.9647 100.465 36.9911 101.102C36.0136 101.747 35.0809 102.485 34.1813 103.265C32.3878 104.831 30.714 106.564 29.1947 108.401C27.6749 110.226 26.3832 112.225 25.2727 114.34C24.7006 115.4 24.2204 116.481 23.5544 117.616C23.3788 117.9 23.1905 118.192 22.9167 118.489C22.646 118.774 22.2539 119.117 21.6373 119.208C21.5083 119.222 21.577 119.216 21.4397 119.225C21.3279 119.227 21.242 119.215 21.1637 119.202C21.0087 119.175 20.8978 119.137 20.7918 119.1C20.5862 119.023 20.4216 118.937 20.2649 118.851C19.9538 118.676 19.6818 118.492 19.4155 118.301C18.3698 117.536 17.4538 116.69 16.5718 115.8C15.6942 114.908 14.8664 113.969 14.1067 112.957C13.3541 111.94 12.6521 110.868 12.1627 109.597C11.9276 108.96 11.7317 108.257 11.7881 107.438C11.8198 107.032 11.9347 106.593 12.1644 106.201C12.2683 106.016 12.4443 105.8 12.5539 105.688L12.8703 105.351C14.5552 103.558 16.3263 101.846 18.1796 100.228C21.8851 96.9909 25.9131 94.1098 30.2492 91.7597C31.3328 91.1701 32.434 90.615 33.5546 90.0973C34.6791 89.5782 35.7979 89.0997 36.9964 88.6543C37.3568 88.5296 37.8194 88.4495 38.2728 88.5305C38.7243 88.6054 39.0918 88.7957 39.3911 88.979C39.9888 89.3557 40.4452 89.7457 40.9267 90.1149L41.281 90.3903L41.4615 90.5286C41.5055 90.5603 41.5165 90.5674 41.5376 90.5793C41.5741 90.5991 41.575 90.5938 41.5904 90.5956C41.6036 90.5973 41.6481 90.5903 41.7163 90.5551C41.8541 90.4872 42.0446 90.3286 42.2229 90.1404C42.4033 89.9536 42.5821 89.7342 42.7585 89.5086C44.1617 87.6449 45.4138 85.4185 47.2879 83.6808C47.7628 83.2495 48.2553 82.8521 48.8081 82.4899C49.3486 82.1639 49.9071 81.8572 50.4951 81.6179C51.6619 81.1351 52.9312 80.8632 54.168 80.9509Z" fill="black"/>
<path d="M77.7533 61.5786C77.8242 67.1997 79.0671 73.3068 74.3974 74.403C69.728 75.4992 62.6737 67.1702 51.3756 69.7957C41.2615 72.1458 39.0041 85.0677 43.9225 92.0287C50.693 101.609 82.0331 103.989 89.6218 97.4512C97.0732 91.0317 95.7713 80.7627 94.3268 72.1847C93.6789 68.3356 92.4637 61.8477 89.3489 58.4503C84.5586 53.2235 77.6847 56.076 77.7533 61.5786Z" fill="#E6E6CF"/>
<path d="M70.4684 73.7919C73.6787 77.1471 63.1715 81.2711 54.0498 77.2943C47.5439 74.4577 49.5447 70.4315 53.1295 69.4719C60.7297 68.4008 66.2968 72.1736 70.4684 73.7919Z" fill="#F6F6E5"/>
<path d="M61.1661 100.709C61.1661 100.709 61.1662 100.709 61.1653 100.709C56.0629 99.7864 46.9685 97.4829 43.3846 92.4099C40.5493 88.3983 39.9454 82.5722 41.8468 77.5688C43.5232 73.1575 46.8541 70.1681 51.2272 69.1516C53.967 68.5141 56.6465 68.4484 59.4175 68.9485C62.7361 69.5481 65.5208 70.8391 67.9776 71.9767C69.7636 72.8037 71.3058 73.5188 72.6293 73.7581C73.2468 73.8691 73.7754 73.8691 74.2476 73.759C77.3712 73.0258 77.4452 69.7583 77.1956 64.4632C77.1512 63.519 77.1054 62.5444 77.0935 61.5865C77.0684 59.5986 77.8593 57.8225 79.3205 56.584C80.8359 55.3001 82.8816 54.7758 84.9317 55.1459C86.7244 55.4701 88.421 56.4584 89.8365 58.0027C93.2347 61.7099 94.457 68.9718 94.9794 72.0737C96.5885 81.6333 97.5343 91.5063 90.0539 97.9509C85.0827 102.235 71.4603 102.57 61.1661 100.709ZM59.1829 70.25C56.5919 69.7817 54.0872 69.8438 51.5261 70.4395C47.5953 71.3533 44.5958 74.0519 43.0809 78.038C41.3587 82.5713 41.9141 88.0401 44.4629 91.6468C46.8823 95.0707 53.0564 97.9002 61.3999 99.4079C72.9611 101.497 85.1681 100.417 89.1921 96.9503C96.1514 90.9551 95.2232 81.4822 93.6771 72.294C93.1736 69.3089 91.9971 62.3162 88.8634 58.8971C87.6438 57.5665 86.2037 56.7201 84.6971 56.447C83.0361 56.1473 81.3869 56.5651 80.1735 57.5934C79.019 58.572 78.3941 59.9841 78.4143 61.5698C78.4253 62.5052 78.4716 63.4692 78.5151 64.4011C78.7374 69.1256 78.9671 74.0092 74.5487 75.0468C73.8977 75.1993 73.194 75.2028 72.3956 75.0587C70.9044 74.7895 69.2914 74.0423 67.423 73.1769C65.0384 72.0719 62.3351 70.8197 59.1829 70.25Z" fill="black"/>
<path d="M43.9809 82.9108C39.3961 85.9716 37.3108 93.0193 35.2783 91.4654C33.2453 89.9114 32.6226 89.1421 31.2714 89.6488C22.7395 92.8493 13.8185 98.915 6.3223 106.914C3.44519 109.985 13.1557 119.542 14.8432 119.498C16.5302 119.453 17.1556 115.403 21.1946 110.072C24.1197 106.213 30.3383 100.142 34.3276 99.4755C38.3143 98.8101 43.767 101.964 50.1902 99.5892C56.4409 97.2778 59.7819 91.1618 57.0835 85.6155C55.0131 81.3589 49.6568 79.1216 43.9809 82.9108Z" fill="#E6E6CF"/>
<path d="M54.0771 91.887C49.4637 97.5958 34.8611 97.7567 37.2629 90.8009C38.8491 89.0222 40.8209 85.0207 43.9841 82.9098C47.4972 80.5667 50.8893 80.5297 53.4526 81.8546C53.4561 81.8572 53.4587 81.8616 53.4587 81.8616C56.0937 83.7668 57.926 87.1263 54.0771 91.887Z" fill="#F6F6E5"/>
<path d="M18.6625 113.909C16.759 117.229 16.0922 119.461 14.8436 119.498C13.157 119.542 3.44421 109.984 6.32265 106.913C7.37147 105.796 8.44539 104.721 9.54306 103.684C10.4145 107.39 14.513 113.291 18.6625 113.909Z" fill="#807E75"/>
<path d="M48.4201 81.0861C47.1988 81.4862 46.0791 82.0405 45.0527 82.7305C44.0083 83.4077 43.1153 84.2086 42.2927 85.1295C41.4714 86.0415 40.7294 87.0417 40.0093 88.0763C39.2796 89.1081 38.6269 90.1871 37.7343 91.23C37.5006 91.4882 37.2541 91.7473 36.9134 91.9812C36.7418 92.0949 36.5446 92.2051 36.299 92.2738C36.0565 92.3434 35.7603 92.3571 35.4923 92.2857C35.2304 92.2214 34.9892 92.0663 34.8413 91.9526L34.4598 91.6592L33.7062 91.0741C33.2177 90.6974 32.7093 90.3118 32.3132 90.203C32.1191 90.1505 31.9471 90.1532 31.723 90.2118C31.5254 90.2642 31.1922 90.4097 30.9035 90.518C28.5757 91.438 26.3095 92.5439 24.119 93.7767C19.7432 96.2524 15.6478 99.2291 11.8865 102.577C10.9464 103.413 10.0274 104.275 9.13176 105.159C8.68371 105.601 8.24004 106.048 7.80299 106.502L7.15204 107.185C7.05169 107.292 6.91704 107.429 6.84618 107.515C6.81141 107.558 6.74535 107.654 6.71014 107.731C6.55082 108.057 6.55213 108.557 6.68065 109.078C6.80652 109.602 7.03628 110.143 7.30828 110.667C7.8602 111.723 8.58157 112.728 9.35311 113.688C10.1291 114.648 10.9732 115.564 11.8649 116.421C12.3112 116.849 12.7702 117.261 13.2412 117.645C13.706 118.021 14.2117 118.399 14.6567 118.621C14.7566 118.672 14.8732 118.706 14.8609 118.702C14.8534 118.7 14.853 118.701 14.838 118.7L14.8001 118.701L14.8292 118.7C14.8886 118.698 14.8613 118.694 14.8587 118.698C14.8745 118.693 14.893 118.689 14.9141 118.68C15.0004 118.65 15.1672 118.508 15.3217 118.307C15.6403 117.9 15.9379 117.346 16.2292 116.797C16.8098 115.687 17.3955 114.528 18.0483 113.406C19.3387 111.16 20.8932 109.03 22.6423 107.126C24.3861 105.217 26.2571 103.431 28.3155 101.839C29.3498 101.047 30.4317 100.303 31.6231 99.6891C32.2195 99.3855 32.8449 99.115 33.5227 98.9233C34.2097 98.7281 34.9276 98.666 35.6067 98.673C36.9724 98.6911 38.2505 98.9392 39.504 99.1595C40.7566 99.3877 41.9876 99.6093 43.2182 99.7256C44.4475 99.8486 45.6737 99.853 46.8828 99.7239C48.0922 99.5886 49.278 99.3048 50.4306 98.8889C52.7277 98.0566 54.842 96.6578 56.4894 94.6931C55.383 97.0287 53.2567 98.8537 50.8545 99.9341C50.263 100.197 49.623 100.439 48.9918 100.617C48.3519 100.795 47.6997 100.925 47.0421 101.017C45.7266 101.198 44.3965 101.183 43.0946 101.072C41.7923 100.957 40.515 100.738 39.265 100.521C38.0164 100.311 36.7814 100.092 35.6001 100.089C35.0094 100.089 34.4487 100.145 33.9113 100.303C33.3651 100.461 32.8198 100.7 32.2859 100.978C31.2191 101.538 30.2002 102.248 29.2213 103.009C27.2694 104.547 25.4604 106.303 23.7906 108.164C22.1119 110.022 20.6486 112.024 19.4083 114.195C18.782 115.277 18.2234 116.391 17.628 117.536C17.3207 118.11 17.028 118.689 16.5677 119.292C16.33 119.584 16.0413 119.919 15.5378 120.143C15.4123 120.196 15.2781 120.238 15.139 120.264C15.0563 120.277 14.9511 120.288 14.9313 120.287L14.9014 120.289C14.8376 120.293 14.8384 120.291 14.8041 120.291C14.7478 120.29 14.7086 120.287 14.6619 120.281C14.334 120.231 14.1532 120.141 13.9665 120.057C13.2733 119.706 12.7632 119.303 12.2364 118.887C11.7206 118.468 11.2329 118.031 10.7593 117.579C9.81483 116.676 8.92926 115.719 8.10182 114.704C7.27878 113.686 6.51166 112.609 5.88668 111.405C5.57859 110.8 5.30261 110.161 5.13316 109.446C4.97252 108.744 4.89109 107.892 5.28236 107.052C5.38447 106.841 5.49187 106.67 5.66264 106.468C5.79864 106.313 5.89154 106.225 6.00729 106.099L6.67581 105.406C7.12386 104.945 7.57942 104.492 8.03847 104.042C8.95746 103.144 9.89975 102.269 10.8636 101.42C14.7191 98.024 18.9109 94.9967 23.4218 92.5192C25.6774 91.2798 28.0044 90.1752 30.4176 89.25C30.7257 89.1407 30.9717 89.0204 31.3885 88.905C31.7789 88.8002 32.2648 88.7878 32.6816 88.9151C33.0984 89.0381 33.4259 89.2385 33.7163 89.4333C34.0059 89.6302 34.2648 89.8333 34.5192 90.0329L35.2656 90.6269L35.6375 90.9177C35.74 90.997 35.7753 91.0124 35.8228 91.0296C35.884 91.0485 36.0002 91.0388 36.1991 90.9075C36.387 90.7855 36.5908 90.589 36.7832 90.3766C37.5591 89.4945 38.2519 88.3992 38.9974 87.362C39.7391 86.3147 40.5269 85.2718 41.4503 84.332C42.36 83.3887 43.4696 82.5732 44.6522 82.018C45.8366 81.4572 47.1297 81.0896 48.4201 81.0861Z" fill="black"/>
<path d="M96.9086 30.8002C88.764 29.5696 78.252 33.783 74.7328 44.475C70.8795 56.1835 76.1266 67.8474 88.5527 70.8008C94.1274 72.127 99.6787 72.2191 102.538 71.663C105.398 71.107 106.81 73.5995 108.955 72.9487C110.086 72.6055 112.25 70.7915 111.973 69.8799C111.127 69.1856 106.924 68.7886 106.004 66.7803C104.941 64.4584 108.73 63.5543 109.663 63.7631C111.057 64.0755 113.025 67.2104 115.548 66.453C116.657 65.9727 118.972 61.9135 118.434 60.9402C117.897 59.9678 114.463 60.2569 113.504 58.3182C114.572 51.529 116.439 33.7504 96.9086 30.8002Z" fill="#F6F6E5"/>
<path d="M106.18 60.4855C104.235 57.6124 98.4943 53.929 92.6357 56.366C94.0182 53.9013 97.8917 51.5031 101.235 53.1589C104.597 54.8243 105.89 58.2896 106.18 60.4855Z" fill="black"/>
<path d="M100.335 47.0734C106.842 46.3574 109.787 53.6154 106.342 59.7335C107.611 54.0895 103.948 49.0235 100.335 47.0734Z" fill="black"/>
<path d="M96.9099 30.7985C98.266 31.0025 99.5159 31.2761 100.67 31.6158C96.1291 31.1408 90.0215 32.9512 85.7549 41.6772C80.7762 51.8559 83.6001 70.1663 101.068 71.8675C98.0032 72.1636 93.2908 71.9261 88.5554 70.8003C76.1289 67.8453 70.8812 56.1822 74.7328 44.4746C78.2538 33.7822 88.7641 29.5714 96.9099 30.7985Z" fill="#E6E6CF"/>
<path d="M114.243 61.8787L114.36 61.9104C114.418 61.9258 114.478 61.9439 114.535 61.9629C114.635 62.0025 114.73 62.0523 114.816 62.11C114.99 62.2281 115.128 62.3845 115.218 62.5568C115.406 62.9053 115.375 63.2934 115.241 63.579C115.233 63.2564 115.087 62.9714 114.875 62.833C114.772 62.7625 114.657 62.7229 114.546 62.7136C114.489 62.7092 114.435 62.7119 114.384 62.719C114.362 62.726 114.347 62.7317 114.328 62.737L114.21 62.7604C113.965 62.8075 113.727 62.6476 113.679 62.4022C113.631 62.1568 113.791 61.9192 114.036 61.8712C114.106 61.8567 114.178 61.8615 114.243 61.8787Z" fill="black"/>
<path d="M115.841 67.0034C115.833 67.0078 115.825 67.0105 115.816 67.0136C115.808 67.0181 115.804 67.0217 115.796 67.0248L115.841 67.0034Z" fill="black"/>
<path d="M119.185 61.2689C119.17 61.0702 119.171 60.8636 118.981 60.5485C118.957 60.5159 118.956 60.5097 118.916 60.4555C118.87 60.3969 118.818 60.3401 118.765 60.2868C118.684 60.2137 118.601 60.1458 118.522 60.0965C118.201 59.889 117.926 59.8039 117.658 59.7127C117.127 59.5466 116.638 59.4382 116.172 59.3003C115.326 59.0681 114.553 58.728 114.194 58.1852C114.784 54.6124 115.05 50.9307 114.595 47.2685C114.362 45.4012 113.938 43.5414 113.253 41.7619C112.572 39.9823 111.614 38.2895 110.382 36.814C109.154 35.3349 107.663 34.0792 106.027 33.0931C104.391 32.1044 102.619 31.3739 100.806 30.8514C99.8998 30.5879 98.9817 30.3772 98.0588 30.2058L97.3652 30.0864L97.0095 30.0305L96.6697 29.9833C96.1865 29.9195 95.7147 29.8767 95.238 29.8498C93.3358 29.7423 91.4265 29.9049 89.5722 30.3103C85.8694 31.1302 82.3691 32.9133 79.5959 35.5181C78.209 36.8157 77.007 38.3133 76.0414 39.9457C75.074 41.5755 74.3399 43.344 73.8298 45.1518C72.7964 48.7599 72.5292 52.6349 73.3254 56.3364C74.115 60.0202 76.122 63.4952 79.066 65.7449C77.908 64.3095 76.9226 62.7846 76.1567 61.1636C75.3962 59.5413 74.839 57.8402 74.5045 56.0932C73.8157 52.6001 74.0824 48.9427 75.1035 45.525C76.0929 42.1002 77.9595 38.9566 80.5734 36.5738C83.171 34.1805 86.4482 32.5516 89.9001 31.8237C91.6245 31.4571 93.3965 31.3003 95.1513 31.4012C95.5901 31.4263 96.0307 31.4664 96.4558 31.5215L96.7952 31.5686L97.1178 31.6202L97.778 31.7348C98.6552 31.8973 99.5244 32.0952 100.376 32.3432C103.781 33.3121 106.964 35.1049 109.19 37.8084C110.303 39.15 111.188 40.6802 111.837 42.3166C112.485 43.953 112.902 45.6907 113.139 47.4566C113.608 51.0012 113.384 54.6317 112.853 58.216L112.819 58.4416L112.914 58.6121L112.919 58.6213C113.211 59.2263 113.726 59.6788 114.238 59.9709C114.756 60.2687 115.286 60.4503 115.797 60.6018C116.306 60.7516 116.813 60.8618 117.252 60.9992C117.465 61.0662 117.677 61.1473 117.783 61.2205C117.813 61.2376 117.826 61.2522 117.842 61.2627C117.845 61.2746 117.848 61.2905 117.846 61.3077C117.85 61.4386 117.813 61.6535 117.755 61.8602C117.696 62.0717 117.621 62.2915 117.535 62.5092C117.361 62.948 117.146 63.3842 116.911 63.8068C116.674 64.2284 116.415 64.6399 116.133 65.0201C115.992 65.2096 115.845 65.392 115.696 65.5502C115.553 65.7053 115.371 65.8546 115.303 65.8824L115.372 65.8542L115.275 65.8974C115.266 65.9 115.249 65.9062 115.232 65.9075C115.19 65.9154 115.136 65.9221 115.078 65.9256C114.961 65.9326 114.83 65.9401 114.7 65.922C110.9 65.3876 111.425 62.2184 107.515 63.5323C104.823 64.4377 104.801 66.4909 105.771 67.5734C107.75 69.7835 111.436 69.6627 111.26 70.21C111.245 70.2377 111.23 70.2677 111.208 70.2994C111.114 70.4558 110.969 70.6299 110.814 70.7942C110.497 71.1264 110.114 71.43 109.723 71.6988C109.528 71.8331 109.326 71.956 109.129 72.056C109.035 72.1041 108.924 72.1535 108.855 72.1781C108.764 72.2116 108.673 72.2403 108.583 72.2583C108.224 72.3359 107.86 72.29 107.438 72.1411C106.592 71.8578 105.618 71.1969 104.406 70.9718C103.804 70.8528 103.181 70.8462 102.565 70.959C102.04 71.0735 101.571 71.1577 101.054 71.2242C99.0196 71.4798 96.921 71.4916 94.8313 71.4247C92.7385 71.3361 90.6448 71.1233 88.552 70.8026C90.5665 71.4564 92.6509 71.9142 94.76 72.2072C95.815 72.3596 96.8788 72.4671 97.9487 72.5187C99.0191 72.5773 100.094 72.5817 101.18 72.505C101.714 72.4698 102.291 72.405 102.801 72.32C103.228 72.2614 103.677 72.2821 104.106 72.3861C104.538 72.49 104.969 72.6724 105.425 72.891C105.881 73.1086 106.358 73.3739 106.932 73.5818C107.499 73.7894 108.22 73.9044 108.898 73.7506C109.066 73.7154 109.229 73.6678 109.384 73.6052C109.561 73.5365 109.689 73.4726 109.828 73.3977C110.1 73.2532 110.345 73.0941 110.582 72.9245C111.054 72.5861 111.476 72.1984 111.871 71.7498C112.065 71.5194 112.254 71.2793 112.417 70.9753C112.496 70.821 112.571 70.6549 112.62 70.447C112.667 70.2421 112.696 69.9795 112.605 69.6896L112.604 69.6887C112.1 68.6639 107.276 68.6683 106.471 66.5883C105.945 65.2268 107.955 64.1676 109.628 64.376C110.616 64.4989 111.055 65.9758 113.6 66.9403C113.911 67.0592 114.248 67.0945 114.591 67.1306C114.764 67.1487 114.938 67.1588 115.127 67.154C115.222 67.1513 115.32 67.1452 115.429 67.1298C115.535 67.1108 115.644 67.0963 115.815 67.0152C116.197 66.8319 116.39 66.627 116.599 66.4248C116.801 66.2172 116.977 66.004 117.143 65.7899C117.475 65.3581 117.767 64.9122 118.036 64.4518C118.303 63.9896 118.548 63.5155 118.76 63.0119C118.864 62.7581 118.962 62.499 119.042 62.2201C119.118 61.9364 119.189 61.6474 119.185 61.2689ZM115.277 65.8943C115.284 65.8934 115.283 65.8934 115.277 65.8943ZM117.82 61.2328C117.82 61.2284 117.83 61.242 117.84 61.2597C117.841 61.2597 117.841 61.2605 117.841 61.2623C117.831 61.2548 117.824 61.2438 117.82 61.2328Z" fill="black"/>
<path d="M82.9184 34.0453C82.7274 29.8288 66.5197 22.6131 64.3367 38.0376C58.7273 38.9333 55.3884 46.6601 56.3765 54.0943C57.4755 62.3502 62.8816 67.9542 57.5112 69.806C62.0705 70.5942 66.5342 66.7346 65.3155 59.0166C63.1136 45.0528 69.8273 37.6789 82.9184 34.0453Z" fill="#6B6B6B"/>
<path d="M71.7204 30.4835C70.6122 30.5884 67.2039 31.7926 66.876 36.0633C68.0868 33.9065 69.6563 32.6759 72.551 32.078C74.2217 31.7331 73.6786 30.2993 71.7204 30.4835Z" fill="#858585"/>
<path d="M58.9871 67.9242C59.4333 66.6601 58.8313 64.6911 57.9044 62.1286C57.1113 59.9392 56.125 57.2151 55.7231 54.1824C54.7751 47.069 57.7781 38.8254 63.7532 37.4767C64.3611 33.7739 65.8231 31.0973 68.103 29.516C70.2222 28.0453 73.0465 27.6056 76.053 28.2744C80.0304 29.1591 83.4762 31.7882 83.5783 34.0158L83.6008 34.5423L83.0942 34.6824C69.4014 38.4826 63.9601 46.182 65.9684 58.9135C66.6114 62.9882 65.7725 66.4081 63.6089 68.5446C61.9734 70.1589 59.4725 70.6934 56.6482 69.8774C56.6474 69.8778 58.5091 69.276 58.9871 67.9242ZM75.7665 29.564C73.1235 28.9763 70.6689 29.3446 68.8547 30.6025C66.7945 32.0309 65.4948 34.5634 64.99 38.1296L64.9213 38.6134L64.4398 38.6901C59.4254 39.4911 56.033 46.5072 57.0303 54.008C57.4158 56.8996 58.3348 59.4388 59.1464 61.6796C60.1785 64.5325 60.9932 66.7853 60.1785 68.4935C60.068 68.7274 59.9298 68.9429 59.7648 69.1425C60.8568 68.9323 61.8655 68.4085 62.6819 67.6048C64.534 65.7754 65.2395 62.7626 64.6647 59.1207C63.5573 52.1037 64.6014 46.5878 67.8548 42.2598C70.7834 38.3632 75.4611 35.52 82.1404 33.5805C81.563 32.1626 78.9534 30.2729 75.7665 29.564Z" fill="black"/>
<path d="M82.9152 34.0452C80.3629 33.1728 69.0283 32.7648 63.451 43.0316C57.5441 53.9038 63.1104 62.251 61.4705 66.1723C59.7887 70.1989 53.0684 70.5096 52.1015 65.218C50.9444 69.9245 54.9302 73.3545 62.7358 71.6445C67.5926 70.5809 72.4499 65.4545 72.0797 55.4437C71.7096 45.432 73.7139 37.4153 82.9152 34.0452Z" fill="#6B6B6B"/>
<path d="M63.5376 62.7445C61.8295 54.9653 62.3572 49.2944 64.8453 44.4434C66.4971 41.2208 68.7725 42.4399 66.986 46.7331C65.8236 49.5309 63.4271 55.7381 63.5376 62.7445Z" fill="#858585"/>
<path d="M56.3525 72.4874C56.3525 72.4874 56.3512 72.4874 56.3516 72.4865C54.3957 72.053 52.9072 71.0898 52.0489 69.7046C51.2382 68.3973 51.1268 66.13 52.1528 64.2134C52.1528 64.2134 52.8182 67.4835 55.7684 68.429C57.5426 68.9987 59.9892 68.0056 60.862 65.9189C61.3664 64.7099 61.0654 62.8797 60.6847 60.564C59.9474 56.0857 58.9387 49.9526 62.8716 42.7162C68.3442 32.641 79.1665 32.5075 82.5268 33.2543C82.7517 33.305 82.9546 33.3601 83.1294 33.4196L84.8947 34.0236L83.1422 34.6664C75.4175 37.496 72.3071 43.7023 72.7402 55.4195C73.1385 66.1917 67.6756 71.2396 62.8778 72.2913C60.4012 72.8328 58.2045 72.9006 56.3525 72.4874ZM52.7808 68.1704C52.8781 68.4647 53.0084 68.7445 53.1712 69.0067C53.8376 70.0831 55.037 70.8413 56.6377 71.1969C56.6377 71.1969 56.6385 71.1969 56.6394 71.1969C58.3022 71.5679 60.307 71.5004 62.5952 70.9999C66.8966 70.0575 71.7895 65.4255 71.4211 55.4688C71.1373 47.8179 71.9863 38.6847 80.5996 34.329C76.4734 34.0646 68.4168 35.274 64.031 43.3475C60.3145 50.1861 61.2819 56.0597 61.987 60.3494C62.4029 62.8749 62.7308 64.8707 62.0794 66.4291C61.0425 68.9119 58.2054 70.3276 55.4824 69.7209C54.3909 69.4772 53.4736 68.9432 52.7808 68.1704Z" fill="black"/>
<path d="M82.8971 34.0197C80.2836 33.4381 73.2522 36.2254 70.9173 44.7404C67.6982 56.4722 73.8204 61.2672 69.2087 66.1437C66.3131 69.2046 58.7887 70.6519 58.4322 77.6381C58.1849 82.4983 64.238 85.1697 60.224 89.4853C63.2226 88.3459 63.7269 85.5261 62.3718 82.4855C61.3493 80.1922 62.1328 76.7207 67.0759 74.9368C73.2896 72.6932 81.0565 69.2751 78.9822 58.3844C76.6782 46.2895 78.557 38.2777 82.8971 34.0197Z" fill="#6B6B6B"/>
<path d="M72.0656 51.8163C71.9987 54.3634 72.5048 56.2646 73.0202 59.8193C73.5079 63.1754 72.6316 66.5927 68.8601 68.8027C65.3189 70.8748 62.7419 72.1561 61.9854 74.0806C63.2718 72.4156 67.6049 70.8585 70.3984 69.4081C73.9388 67.569 75.5144 65.2136 75.5047 61.5857C75.4924 56.2064 74.826 53.8788 74.6535 51.6216C74.3027 47.0482 72.1637 48.0413 72.0656 51.8163Z" fill="#858585"/>
<path d="M59.591 83.0807C58.6866 81.5333 57.6624 79.7815 57.7729 77.6041C58.0378 72.416 62.0206 70.0527 65.2238 68.1528C66.6005 67.336 67.9011 66.5644 68.7303 65.6881C70.835 63.4617 70.4701 61.294 69.9155 58.012C69.353 54.667 68.6506 50.5064 70.2795 44.565C72.6263 36.0086 79.6393 32.7618 82.9041 33.3469C82.9508 33.3557 82.9961 33.3641 83.0406 33.3746L84.2281 33.6399L83.3588 34.492C78.8088 38.9566 77.5192 47.1746 79.6296 58.2601C81.92 70.2818 72.4097 73.7136 67.2999 75.5579C65.1001 76.3523 63.6028 77.5604 62.9672 79.0527C62.5254 80.0912 62.5276 81.2144 62.9743 82.2154C63.8444 84.1681 63.9822 85.9741 63.3735 87.4405C62.8726 88.6477 61.1231 89.7589 59.3036 90.1417C61.4942 87.4748 61.0985 85.6626 59.591 83.0807ZM81.4165 34.6669C78.561 35.0974 73.4727 37.9181 71.5537 44.9152C70.0014 50.5751 70.6761 54.5767 71.2179 57.7926C71.7927 61.2011 72.2469 63.8931 69.6889 66.5975C68.7333 67.6078 67.3545 68.426 65.8959 69.2908C62.8137 71.1193 59.3204 73.1923 59.0906 77.6715C59.0008 79.4546 59.8793 80.9579 60.7296 82.4123C61.5104 83.7486 62.3057 85.111 62.2705 86.6033C62.5821 85.5406 62.4083 84.1901 61.7679 82.7551C61.1799 81.4342 61.1733 79.8965 61.7525 78.5359C62.2983 77.252 63.6266 75.48 66.8531 74.315C73.4132 71.9477 80.2524 68.5784 78.3335 58.5086C75.8348 45.3884 78.3982 38.3723 81.4165 34.6669Z" fill="black"/>
<path d="M87.585 31.7643C87.9894 29.2419 91.9312 20.0947 103.483 22.5237C114.171 24.7699 113.253 36.5624 118.873 37.849C123.459 38.8989 123.943 32.0816 120.37 30.9003C125.854 31.1105 126.57 36.9198 125.048 40.0145C123.153 43.868 116.507 46.7861 111.738 40.6472C105.655 32.8173 96.038 28.4074 87.585 31.7643Z" fill="#6B6B6B"/>
<path d="M118.248 44.8523C116.396 44.8633 113.672 44.2138 111.217 41.053C106.436 34.9009 99.803 31.2497 93.4713 31.2893C91.518 31.3012 89.6193 31.6678 87.8298 32.3789L86.751 32.8076L86.9341 31.6603C87.2765 29.5195 90.4454 21.5138 99.6841 21.457C100.932 21.4491 102.257 21.5905 103.619 21.8769C110.138 23.2467 112.561 28.0307 114.507 31.8736C115.828 34.4828 116.967 36.7338 119.021 37.2048C119.296 37.2687 119.561 37.3004 119.807 37.2978C121.551 37.2877 121.943 35.6627 122.021 35.1662C122.293 33.4346 121.72 31.8291 119.261 30.5976C122.875 30.213 124.71 31.8247 125.436 33.0442C126.857 35.4296 126.538 38.4812 125.641 40.3062C124.335 42.9635 121.294 44.8333 118.248 44.8523ZM93.4638 29.9684C100.203 29.9262 107.229 33.766 112.26 40.2414C113.942 42.4065 116.01 43.5442 118.239 43.5305C121.101 43.5124 123.532 41.6002 124.457 39.7215C125.226 38.1587 125.419 35.5945 124.302 33.7201C123.919 33.0773 123.421 32.5763 122.813 32.2186C123.323 33.1945 123.485 34.3546 123.326 35.3706C123.016 37.3326 121.638 38.6082 119.814 38.6192C119.467 38.6218 119.101 38.5795 118.725 38.4936C116.07 37.8851 114.738 35.2561 113.328 32.4715C111.415 28.6929 109.246 24.4098 103.347 23.17C102.076 22.9034 100.846 22.7709 99.6912 22.7783C92.6064 22.8224 89.4987 28.0122 88.5467 30.7236C90.1294 30.2315 91.7781 29.9768 93.4638 29.9684Z" fill="black"/>
<path d="M80.2451 36.7664C78.4176 33.6099 75.6845 23.7877 85.0957 20.5444C94.2085 17.4034 102.283 23.9626 102.77 31.6695C95.7072 28.2985 84.5006 31.1223 80.2451 36.7664Z" fill="#6B6B6B"/>
<path d="M82.0532 25.9709C82.5101 22.5536 90.5358 18.7482 97.3252 24.5108C93.254 23.3731 89.9517 23.5322 86.4853 25.603C83.72 27.253 81.9159 27.0001 82.0532 25.9709Z" fill="#858585"/>
<path d="M80.1724 37.96L79.6737 37.0977C78.3361 34.7855 76.8948 29.8649 78.4154 25.7849C79.4466 23.0158 81.6222 21.0424 84.8809 19.9193C86.4688 19.372 88.0819 19.0905 89.6747 19.0803C96.8184 19.0354 102.989 24.6654 103.429 31.6281L103.501 32.7513L102.486 32.2666C100.55 31.3431 98.1595 30.862 95.5711 30.8787C89.621 30.9157 83.535 33.4998 80.7723 37.1651L80.1724 37.96ZM89.6835 20.4017C88.2329 20.4105 86.7629 20.6691 85.3118 21.1692C82.4426 22.1579 80.5386 23.8662 79.6522 26.248C78.4568 29.4551 79.3251 33.2751 80.3762 35.5764C83.597 32.0291 89.6589 29.5939 95.5641 29.5569C97.898 29.5424 100.094 29.908 101.989 30.6205C101.057 24.8584 95.7599 20.3647 89.6835 20.4017Z" fill="black"/>
<path d="M83.0205 34.1184C85.9165 32.0282 94.1879 29.2872 100.291 34.5321C106.144 39.5611 108.515 46.7072 115.007 47.0341C120.616 47.3174 122.761 42.4955 121.801 39.8409C121.564 41.2702 120.223 43.1273 117.37 42.3236C113.774 41.3116 113.364 36.5518 107.809 31.4223C102.26 26.2973 91.07 22.7527 83.0205 34.1184Z" fill="#6B6B6B"/>
<path d="M100.482 29.1542C103.501 29.9469 106.801 32.5679 108.774 35.0688C111.6 38.6513 112.057 41.6046 115.23 43.2379C111.55 42.7008 110.868 40.8922 108.464 37.6512C106.715 35.294 105.241 33.0394 100.349 31.2779C96.1264 29.7556 95.8113 27.9263 100.482 29.1542Z" fill="#858585"/>
<path d="M115.365 47.7073C115.236 47.7056 115.105 47.702 114.973 47.6954C110.461 47.4672 107.795 44.1473 104.975 40.6313C103.446 38.7279 101.865 36.758 99.8604 35.0344C97.6893 33.168 95.0569 32.2048 92.035 32.1705C88.2001 32.1291 84.9437 33.3712 82.0322 34.9476C85.8904 27.7905 92.483 25.881 96.1779 25.9233C100.392 25.9704 104.906 27.8447 108.255 30.9377C110.922 33.4006 112.431 35.7799 113.644 37.6921C114.941 39.7409 115.881 41.2195 117.548 41.6892C117.933 41.7984 118.3 41.8553 118.637 41.8588C120.496 41.8804 121.671 40.7428 121.692 38.8522C122.597 40.5123 122.617 43.215 121.483 44.813C120.14 46.7085 117.968 47.7368 115.365 47.7073ZM92.05 30.85C95.3905 30.887 98.3077 31.9577 100.72 34.0307C102.819 35.8345 104.438 37.8525 106.005 39.8043C108.749 43.2242 111.12 46.1776 115.039 46.3754C115.154 46.3816 115.268 46.3847 115.379 46.3847C117.535 46.4107 119.322 45.5792 120.408 44.0464C120.806 43.4846 121.088 42.8466 121.237 42.21C120.599 42.7986 119.724 43.1921 118.623 43.1797C118.17 43.1744 117.688 43.1004 117.191 42.9612C115.037 42.3545 113.93 40.6084 112.53 38.3993C111.359 36.5527 109.901 34.2532 107.361 31.9083C104.245 29.0308 100.059 27.2873 96.1629 27.2433C92.2234 27.1992 88.6042 28.8506 85.5611 32.052C87.4198 31.3329 89.7032 30.8227 92.05 30.85Z" fill="black"/>
<path d="M87.3933 43.7212C88.5662 37.1744 84.6108 27.2847 76.8197 27.4605C73.7828 35.7975 76.4029 42.9057 78.2083 45.711C81.0405 50.1116 86.2899 49.8803 87.3933 43.7212Z" fill="#F6F6E5"/>
<path d="M87.8923 38.171C87.766 37.2347 87.5429 36.313 87.2524 35.4102C86.961 34.5092 86.6036 33.6227 86.1499 32.7812C85.2582 31.0954 84.0262 29.5291 82.4017 28.3976C80.7939 27.2565 78.7575 26.6722 76.8038 26.7996L76.3249 26.8313L76.199 27.234C75.4746 29.0814 74.9926 31.0377 74.8025 33.0239C74.6115 35.011 74.6986 37.0245 75.0635 38.983C75.2391 39.9633 75.4961 40.9278 75.8126 41.8711C76.1316 42.8127 76.5075 43.7366 76.9864 44.6147C77.456 45.488 78.0348 46.341 78.7808 47.0354C79.5189 47.7223 80.4194 48.2642 81.3876 48.4457C80.5391 47.9571 79.8552 47.3011 79.2997 46.5622C78.7386 45.8281 78.3248 45.0002 77.9432 44.1441C77.1884 42.4324 76.6796 40.6075 76.4014 38.7578C76.1246 36.9069 76.0802 35.0246 76.2606 33.1662C76.3509 32.237 76.4992 31.3135 76.6919 30.3971C76.8557 29.6388 77.0678 28.8929 77.2989 28.1491C77.9846 28.1998 78.6576 28.3179 79.3006 28.5338C80.0871 28.799 80.8322 29.181 81.5153 29.6661C82.8832 30.6367 83.9967 31.9885 84.8572 33.4922C85.2824 34.2487 85.6613 35.0388 85.9698 35.8587C86.2788 36.6796 86.5226 37.5273 86.7277 38.3851C87.1327 40.1079 87.3606 41.8694 87.3936 43.7212C88.0565 41.9751 88.1401 40.032 87.8923 38.171Z" fill="black"/>
<path d="M84.8506 42.8607C85.598 38.627 83.6086 32.2449 78.721 31.6841C77.4939 37.5184 78.7659 41.5887 79.904 43.4014C81.6914 46.2428 84.15 46.8433 84.8506 42.8607Z" fill="#E6E6CF"/>
<path d="M79.9038 43.4014C80.464 44.1103 81.1097 44.7765 81.865 45.1664C82.2391 45.3567 82.6475 45.44 82.9882 45.3567C83.3289 45.2748 83.6013 45.0183 83.7998 44.6839C84.1985 44.0067 84.3614 43.1282 84.4331 42.2752C84.5119 41.4174 84.4824 40.5445 84.3632 39.6858C84.1488 37.9648 83.5669 36.2937 82.6726 34.8555C81.7827 33.4148 80.4927 32.2362 78.7207 31.6845C79.6414 31.5986 80.6111 31.8273 81.4588 32.2939C82.3065 32.7627 83.0384 33.4412 83.6008 34.2259C84.1673 35.008 84.5876 35.8817 84.8851 36.7844C85.1844 37.6872 85.3873 38.6173 85.4806 39.5589C85.5651 40.5005 85.5572 41.4522 85.4221 42.3946C85.3473 42.8766 85.2451 43.3229 85.0959 43.7913C84.9437 44.249 84.7562 44.7121 84.4397 45.1267C84.1378 45.5356 83.6633 45.915 83.0965 45.9819C82.5331 46.056 82.0265 45.8312 81.6313 45.5629C80.8302 45.0038 80.3135 44.2094 79.9038 43.4014Z" fill="black"/>
<path d="M83.3587 97.3213C89.5367 106.941 105.741 127.51 110.512 127.273C114.499 127.075 122.584 118.165 120.715 116.099C118.939 114.137 111.878 112.934 102.807 105.614C96.044 100.157 90.7493 94.2181 88.6169 91.9918C84.8582 88.0678 79.9015 91.9385 83.3587 97.3213Z" fill="#E6E6CF"/>
<path d="M115.1 113.148C117.903 114.434 119.884 115.184 120.715 116.099C122.586 118.166 114.497 127.074 110.511 127.27C109.401 127.325 107.667 126.253 105.583 124.447C109.578 123.257 116.155 117.709 115.1 113.148Z" fill="#807E75"/>
<path d="M85.741 90.4109C86.6759 90.5246 87.6802 91.0159 88.6173 91.9918C90.5688 94.0269 95.1685 99.1775 101.118 104.219C103.607 108.187 97.3569 109.666 88.8167 100.742C80.7698 92.3324 83.8001 90.5664 85.7318 90.4074C85.7349 90.4109 85.741 90.4109 85.741 90.4109Z" fill="#F6F6E5"/>
<path d="M82.459 95.4545C82.7239 95.9259 83.0056 96.3634 83.3199 96.7772L84.2965 98.0104C84.6231 98.425 84.9479 98.8409 85.2608 99.2652C85.5812 99.6816 85.895 100.105 86.2053 100.53C87.4306 102.241 88.6753 103.941 89.9535 105.617C92.5066 108.968 95.1514 112.252 97.9084 115.43C99.2868 117.019 100.698 118.576 102.149 120.088C103.6 121.596 105.095 123.069 106.687 124.375C107.482 125.019 108.31 125.635 109.158 126.077C109.574 126.293 110.018 126.462 110.349 126.484C110.44 126.489 110.46 126.486 110.622 126.472L110.753 126.451L110.906 126.421C111.116 126.373 111.332 126.303 111.547 126.219C112.417 125.877 113.271 125.324 114.076 124.721C114.882 124.111 115.647 123.428 116.369 122.706C117.093 121.984 117.777 121.22 118.394 120.415C119.005 119.615 119.573 118.761 119.928 117.904C120.104 117.488 120.206 117.034 120.166 116.796C120.158 116.737 120.141 116.706 120.132 116.68C120.115 116.654 120.133 116.671 120.025 116.56C119.913 116.451 119.722 116.301 119.536 116.181C118.751 115.673 117.776 115.249 116.826 114.816C114.902 113.961 112.947 113.072 111.062 112.058C109.171 111.051 107.346 109.915 105.591 108.686C103.835 107.459 102.163 106.114 100.549 104.73C98.9325 103.343 97.3634 101.908 95.8327 100.432C94.3032 98.9559 92.8099 97.4469 91.3535 95.9048C90.6295 95.1293 89.9429 94.3204 89.2955 93.4789C88.9746 93.059 88.663 92.6192 88.362 92.1941C88.0706 91.7627 87.7401 91.3732 87.3576 90.9807C87.8849 91.126 88.3783 91.4111 88.8193 91.7407C89.2511 92.0773 89.6599 92.4087 90.0618 92.7598C90.8593 93.4604 91.6198 94.1908 92.3574 94.9394C93.8253 96.4489 95.3112 97.9351 96.8384 99.3771C98.3639 100.821 99.9263 102.224 101.529 103.572C103.134 104.925 104.77 106.215 106.489 107.392C108.203 108.576 109.99 109.644 111.825 110.627C113.661 111.613 115.556 112.472 117.491 113.33C118.459 113.776 119.437 114.183 120.433 114.819C120.686 114.988 120.92 115.157 121.188 115.417C121.265 115.49 121.466 115.701 121.571 115.913C121.68 116.123 121.748 116.345 121.778 116.548C121.876 117.368 121.652 117.965 121.44 118.522C120.982 119.618 120.356 120.533 119.692 121.413C119.023 122.285 118.297 123.101 117.523 123.868C116.746 124.634 115.924 125.355 115.042 126.014C114.153 126.666 113.217 127.274 112.117 127.704C111.841 127.808 111.553 127.901 111.246 127.968L111.01 128.013L110.75 128.046C110.649 128.056 110.404 128.076 110.233 128.057C109.506 127.989 108.958 127.729 108.439 127.467C107.416 126.921 106.55 126.254 105.711 125.565C104.047 124.176 102.538 122.663 101.072 121.117C99.6099 119.568 98.2111 117.969 96.8393 116.349C94.1012 113.105 91.4869 109.768 88.9641 106.362C87.7053 104.657 86.4624 102.939 85.2696 101.186C84.9747 100.745 84.6887 100.298 84.414 99.8428C84.1328 99.393 83.8691 98.9308 83.6125 98.4642C83.3555 97.9958 83.1095 97.5315 82.8885 97.0244C82.6773 96.519 82.5188 95.9898 82.459 95.4545Z" fill="black"/>
</svg>
